<?xml version="1.0" standalone="no"?>
 <!DOCTYPE svg PUBLIC "-//W3C//DTD SVG 1.1//EN" 
 "http://www.w3.org/Graphics/SVG/1.1/DTD/svg11.dtd"> 
<svg
  xmlns:svg="http://www.w3.org/2000/svg"
  xmlns="http://www.w3.org/2000/svg"
  xmlns:xlink="http://www.w3.org/1999/xlink"
  version="1.1"
  width="4.5212mm" height="4.4450mm" viewBox="0.0000 0.0000 4.5212 4.4450">
<title>SVG Image created as MountingHole_M2.svg date 2025/05/12 22:52:36 </title>
  <desc>Image generated by PCBNEW </desc>
<g style="fill:#000000; fill-opacity:1.0000;stroke:#000000; stroke-opacity:1.0000;
stroke-linecap:round; stroke-linejoin:round;"
 transform="translate(0 0) scale(1 1)">
</g>
<g style="fill:#4D7FC4; fill-opacity:1.0000; stroke:none;">
<circle cx="2.2679" cy="2.2250" r="2.0000" /> 
</g>
<g style="fill:#C83434; fill-opacity:1.0000; stroke:none;">
<circle cx="2.2679" cy="2.2250" r="2.0000" /> 
</g>
<g style="fill:none; 
stroke:#585D84; stroke-width:0.1111; stroke-opacity:1; 
stroke-linecap:round; stroke-linejoin:round;">
<text x="2.2679" y="2.8917"
textLength="1.3365" font-size="1.7778" lengthAdjust="spacingAndGlyphs"
text-anchor="middle" opacity="0" stroke-opacity="0">1</text>
<g class="stroked-text"><desc>1</desc>
<path d="M2.6488 2.8360
L1.8869 2.8360
" />
<path d="M2.2679 2.8360
L2.2679 1.5027
" />
<path d="M2.2679 1.5027
L2.1409 1.6932
" />
<path d="M2.1409 1.6932
L2.0139 1.8202
" />
<path d="M2.0139 1.8202
L1.8869 1.8837
" />
</g></g>
<g style="fill:none; 
stroke:#585D84; stroke-width:0.0212; stroke-opacity:1; 
stroke-linecap:round; stroke-linejoin:round;">
<circle cx="2.2679" cy="2.2250" r="2.0000" /> 
</g>
<g style="fill:none; 
stroke:#AFAFAF; stroke-width:0.1500; stroke-opacity:1; 
stroke-linecap:round; stroke-linejoin:round;">
<text x="2.2679" y="2.7250"
textLength="4.5357" font-size="1.3333" lengthAdjust="spacingAndGlyphs"
text-anchor="middle" opacity="0" stroke-opacity="0">REF**</text>
<g class="stroked-text"><desc>REF**</desc>
<path d="M0.9345 2.6798
L0.6012 2.2036
" />
<path d="M0.3631 2.6798
L0.3631 1.6798
" />
<path d="M0.3631 1.6798
L0.7440 1.6798
" />
<path d="M0.7440 1.6798
L0.8393 1.7274
" />
<path d="M0.8393 1.7274
L0.8869 1.7751
" />
<path d="M0.8869 1.7751
L0.9345 1.8703
" />
<path d="M0.9345 1.8703
L0.9345 2.0132
" />
<path d="M0.9345 2.0132
L0.8869 2.1084
" />
<path d="M0.8869 2.1084
L0.8393 2.1560
" />
<path d="M0.8393 2.1560
L0.7440 2.2036
" />
<path d="M0.7440 2.2036
L0.3631 2.2036
" />
<path d="M1.3631 2.1560
L1.6964 2.1560
" />
<path d="M1.8393 2.6798
L1.3631 2.6798
" />
<path d="M1.3631 2.6798
L1.3631 1.6798
" />
<path d="M1.3631 1.6798
L1.8393 1.6798
" />
<path d="M2.6012 2.1560
L2.2679 2.1560
" />
<path d="M2.2679 2.6798
L2.2679 1.6798
" />
<path d="M2.2679 1.6798
L2.7440 1.6798
" />
<path d="M3.2679 1.6798
L3.2679 1.9179
" />
<path d="M3.0298 1.8227
L3.2679 1.9179
" />
<path d="M3.2679 1.9179
L3.5060 1.8227
" />
<path d="M3.1250 2.1084
L3.2679 1.9179
" />
<path d="M3.2679 1.9179
L3.4107 2.1084
" />
<path d="M4.0298 1.6798
L4.0298 1.9179
" />
<path d="M3.7917 1.8227
L4.0298 1.9179
" />
<path d="M4.0298 1.9179
L4.2679 1.8227
" />
<path d="M3.8869 2.1084
L4.0298 1.9179
" />
<path d="M4.0298 1.9179
L4.1726 2.1084
" />
</g></g>
<g style="fill:none; 
stroke:#AFAFAF; stroke-width:0.1111; stroke-opacity:1; 
stroke-linecap:round; stroke-linejoin:round;">
<text x="2.2679" y="2.8917"
textLength="1.3365" font-size="1.7778" lengthAdjust="spacingAndGlyphs"
text-anchor="middle" opacity="0" stroke-opacity="0">1</text>
<g class="stroked-text"><desc>1</desc>
<path d="M2.6488 2.8360
L1.8869 2.8360
" />
<path d="M2.2679 2.8360
L2.2679 1.5027
" />
<path d="M2.2679 1.5027
L2.1409 1.6932
" />
<path d="M2.1409 1.6932
L2.0139 1.8202
" />
<path d="M2.0139 1.8202
L1.8869 1.8837
" />
</g></g>
<g style="fill:none; 
stroke:#AFAFAF; stroke-width:0.0212; stroke-opacity:1; 
stroke-linecap:round; stroke-linejoin:round;">
<circle cx="2.2679" cy="2.2250" r="2.0000" /> 
</g> 
</svg>
