<?xml version="1.0" standalone="no"?>
 <!DOCTYPE svg PUBLIC "-//W3C//DTD SVG 1.1//EN" 
 "http://www.w3.org/Graphics/SVG/1.1/DTD/svg11.dtd"> 
<svg
  xmlns:svg="http://www.w3.org/2000/svg"
  xmlns="http://www.w3.org/2000/svg"
  xmlns:xlink="http://www.w3.org/1999/xlink"
  version="1.1"
  width="6.6802mm" height="4.4450mm" viewBox="0.0000 0.0000 6.6802 4.4450">
<title>SVG Image created as MountingHole_M2_Slot.svg date 2025/05/12 03:05:52 </title>
  <desc>Image generated by PCBNEW </desc>
<g style="fill:#000000; fill-opacity:1.0000;stroke:#000000; stroke-opacity:1.0000;
stroke-linecap:round; stroke-linejoin:round;"
 transform="translate(0 0) scale(1 1)">
<path style="fill:#4D7FC4; fill-opacity:1.0000; stroke:none;fill-rule:evenodd;"
d="M 4.4750,0.2293
4.6058,0.2293
4.8652,0.2634
5.1179,0.3311
5.3596,0.4313
5.5861,0.5621
5.7937,0.7213
5.9787,0.9063
6.1379,1.1139
6.2687,1.3404
6.3689,1.5821
6.4366,1.8348
6.4707,2.0942
6.4707,2.3558
6.4366,2.6152
6.3689,2.8679
6.2687,3.1096
6.1379,3.3361
5.9787,3.5437
5.7937,3.7287
5.5861,3.8879
5.3596,4.0187
5.1179,4.1189
4.8652,4.1866
4.6058,4.2207
4.4750,4.2207
4.4750,4.2250
0.2250,4.2250
0.2250,0.2250
4.4750,0.2250
Z" /> 
<path style="fill:#C83434; fill-opacity:1.0000; stroke:none;fill-rule:evenodd;"
d="M 4.4750,0.2293
4.6058,0.2293
4.8652,0.2634
5.1179,0.3311
5.3596,0.4313
5.5861,0.5621
5.7937,0.7213
5.9787,0.9063
6.1379,1.1139
6.2687,1.3404
6.3689,1.5821
6.4366,1.8348
6.4707,2.0942
6.4707,2.3558
6.4366,2.6152
6.3689,2.8679
6.2687,3.1096
6.1379,3.3361
5.9787,3.5437
5.7937,3.7287
5.5861,3.8879
5.3596,4.0187
5.1179,4.1189
4.8652,4.1866
4.6058,4.2207
4.4750,4.2207
4.4750,4.2250
0.2250,4.2250
0.2250,0.2250
4.4750,0.2250
Z" /> 
</g>
<g style="fill:none; 
stroke:#585D84; stroke-width:0.1736; stroke-opacity:1; 
stroke-linecap:round; stroke-linejoin:round;">
<text x="3.3500" y="3.2667"
textLength="2.0883" font-size="2.7778" lengthAdjust="spacingAndGlyphs"
text-anchor="middle" opacity="0" stroke-opacity="0">1</text>
<g class="stroked-text"><desc>1</desc>
<path d="M3.9452 3.1798
L2.7548 3.1798
" />
<path d="M3.3500 3.1798
L3.3500 1.0964
" />
<path d="M3.3500 1.0964
L3.1516 1.3940
" />
<path d="M3.1516 1.3940
L2.9532 1.5925
" />
<path d="M2.9532 1.5925
L2.7548 1.6917
" />
</g><path style="fill:none; 
stroke:#585D84; stroke-width:0.0212; stroke-opacity:1; 
stroke-linecap:round; stroke-linejoin:round;fill:none"
d="M 4.4750,0.2293
4.6058,0.2293
4.8652,0.2634
5.1179,0.3311
5.3596,0.4313
5.5861,0.5621
5.7937,0.7213
5.9787,0.9063
6.1379,1.1139
6.2687,1.3404
6.3689,1.5821
6.4366,1.8348
6.4707,2.0942
6.4707,2.3558
6.4366,2.6152
6.3689,2.8679
6.2687,3.1096
6.1379,3.3361
5.9787,3.5437
5.7937,3.7287
5.5861,3.8879
5.3596,4.0187
5.1179,4.1189
4.8652,4.1866
4.6058,4.2207
4.4750,4.2207
4.4750,4.2250
0.2250,4.2250
0.2250,0.2250
4.4750,0.2250
Z" /> 
</g>
<g style="fill:none; 
stroke:#AFAFAF; stroke-width:0.1500; stroke-opacity:1; 
stroke-linecap:round; stroke-linejoin:round;">
<text x="2.9850" y="2.7250"
textLength="4.5357" font-size="1.3333" lengthAdjust="spacingAndGlyphs"
text-anchor="middle" opacity="0" stroke-opacity="0">REF**</text>
<g class="stroked-text"><desc>REF**</desc>
<path d="M1.6517 2.6798
L1.3183 2.2036
" />
<path d="M1.0802 2.6798
L1.0802 1.6798
" />
<path d="M1.0802 1.6798
L1.4612 1.6798
" />
<path d="M1.4612 1.6798
L1.5564 1.7274
" />
<path d="M1.5564 1.7274
L1.6040 1.7751
" />
<path d="M1.6040 1.7751
L1.6517 1.8703
" />
<path d="M1.6517 1.8703
L1.6517 2.0132
" />
<path d="M1.6517 2.0132
L1.6040 2.1084
" />
<path d="M1.6040 2.1084
L1.5564 2.1560
" />
<path d="M1.5564 2.1560
L1.4612 2.2036
" />
<path d="M1.4612 2.2036
L1.0802 2.2036
" />
<path d="M2.0802 2.1560
L2.4136 2.1560
" />
<path d="M2.5564 2.6798
L2.0802 2.6798
" />
<path d="M2.0802 2.6798
L2.0802 1.6798
" />
<path d="M2.0802 1.6798
L2.5564 1.6798
" />
<path d="M3.3183 2.1560
L2.9850 2.1560
" />
<path d="M2.9850 2.6798
L2.9850 1.6798
" />
<path d="M2.9850 1.6798
L3.4612 1.6798
" />
<path d="M3.9850 1.6798
L3.9850 1.9179
" />
<path d="M3.7469 1.8227
L3.9850 1.9179
" />
<path d="M3.9850 1.9179
L4.2231 1.8227
" />
<path d="M3.8421 2.1084
L3.9850 1.9179
" />
<path d="M3.9850 1.9179
L4.1279 2.1084
" />
<path d="M4.7469 1.6798
L4.7469 1.9179
" />
<path d="M4.5088 1.8227
L4.7469 1.9179
" />
<path d="M4.7469 1.9179
L4.9850 1.8227
" />
<path d="M4.6040 2.1084
L4.7469 1.9179
" />
<path d="M4.7469 1.9179
L4.8898 2.1084
" />
</g></g>
<g style="fill:none; 
stroke:#AFAFAF; stroke-width:0.1736; stroke-opacity:1; 
stroke-linecap:round; stroke-linejoin:round;">
<text x="3.3500" y="3.2667"
textLength="2.0883" font-size="2.7778" lengthAdjust="spacingAndGlyphs"
text-anchor="middle" opacity="0" stroke-opacity="0">1</text>
<g class="stroked-text"><desc>1</desc>
<path d="M3.9452 3.1798
L2.7548 3.1798
" />
<path d="M3.3500 3.1798
L3.3500 1.0964
" />
<path d="M3.3500 1.0964
L3.1516 1.3940
" />
<path d="M3.1516 1.3940
L2.9532 1.5925
" />
<path d="M2.9532 1.5925
L2.7548 1.6917
" />
</g><path style="fill:none; 
stroke:#AFAFAF; stroke-width:0.0212; stroke-opacity:1; 
stroke-linecap:round; stroke-linejoin:round;fill:none"
d="M 4.4750,0.2293
4.6058,0.2293
4.8652,0.2634
5.1179,0.3311
5.3596,0.4313
5.5861,0.5621
5.7937,0.7213
5.9787,0.9063
6.1379,1.1139
6.2687,1.3404
6.3689,1.5821
6.4366,1.8348
6.4707,2.0942
6.4707,2.3558
6.4366,2.6152
6.3689,2.8679
6.2687,3.1096
6.1379,3.3361
5.9787,3.5437
5.7937,3.7287
5.5861,3.8879
5.3596,4.0187
5.1179,4.1189
4.8652,4.1866
4.6058,4.2207
4.4750,4.2207
4.4750,4.2250
0.2250,4.2250
0.2250,0.2250
4.4750,0.2250
Z" /> 
</g>
<g style="fill:none; 
stroke:#C2C2C2; stroke-width:0.1000; stroke-opacity:1; 
stroke-linecap:round; stroke-linejoin:round;">
<path d="M1.4750 0.2250
L1.4750 4.2250
" />
<path d="M1.4750 0.2250
L4.4750 0.2250
" />
<path d="M1.4750 4.2250
L4.4750 4.2250
" />
<path d="M4.4750 4.2250 A2.0000 2.0000 0.0 0 0 4.4750 0.2250" />
</g> 
</svg>
