<svg xmlns="http://www.w3.org/2000/svg" width="25.248" height="16.8" viewBox="0 0 6.68 4.445">
    <g stroke="none" style="fill:#000;fill-opacity:1;stroke:#000;stroke-opacity:1;stroke-linecap:round;stroke-linejoin:round">
        <path d="M4.475.23h.13l.26.033.253.068.242.1.226.131.208.16.185.184.159.208.13.226.1.242.069.253.034.26v.26l-.034.26-.068.253-.1.242-.131.226-.16.208-.184.185-.208.159-.226.13-.242.1-.253.069-.26.034h-.13v.004H.225v-4h4.25Z" style="fill:#4d7fc4;fill-opacity:1;stroke:none;fill-rule:evenodd"/>
        <path d="M4.475.23h.13l.26.033.253.068.242.1.226.131.208.16.185.184.159.208.13.226.1.242.069.253.034.26v.26l-.034.26-.068.253-.1.242-.131.226-.16.208-.184.185-.208.159-.226.13-.242.1-.253.069-.26.034h-.13v.004H.225v-4h4.25Z" style="fill:#c83434;fill-opacity:1;stroke:none;fill-rule:evenodd"/>
    </g>
    <g style="fill:none;stroke:#585d84;stroke-width:.1736;stroke-opacity:1;stroke-linecap:round;stroke-linejoin:round">
        <g class="stroked-text">
            <path d="M3.945 3.18h-1.19M3.35 3.18V1.096M3.35 1.096l-.198.298M3.152 1.394l-.199.199M2.953 1.593l-.198.099"/>
        </g>
        <path d="M4.475.23h.13l.26.033.253.068.242.1.226.131.208.16.185.184.159.208.13.226.1.242.069.253.034.26v.26l-.034.26-.068.253-.1.242-.131.226-.16.208-.184.185-.208.159-.226.13-.242.1-.253.069-.26.034h-.13v.004H.225v-4h4.25Z" style="stroke:#585d84;stroke-width:.0212;stroke-opacity:1;stroke-linecap:round;stroke-linejoin:round;fill:none"/>
    </g>
    <g class="stroked-text" style="fill:none;stroke:#afafaf;stroke-width:.15;stroke-opacity:1;stroke-linecap:round;stroke-linejoin:round">
        <path d="m1.652 2.68-.334-.476M1.08 2.68v-1M1.08 1.68h.381M1.461 1.68l.095.047M1.556 1.727l.048.048M1.604 1.775l.048.095M1.652 1.87v.143M1.652 2.013l-.048.095M1.604 2.108l-.048.048M1.556 2.156l-.095.048M1.461 2.204h-.38M2.08 2.156h.334M2.556 2.68H2.08M2.08 2.68v-1M2.08 1.68h.476M3.318 2.156h-.333M2.985 2.68v-1M2.985 1.68h.476M3.985 1.68v.238M3.747 1.823l.238.095M3.985 1.918l.238-.095M3.842 2.108l.143-.19M3.985 1.918l.143.19M4.747 1.68v.238M4.509 1.823l.238.095M4.747 1.918l.238-.095M4.604 2.108l.143-.19M4.747 1.918l.143.19"/>
    </g>
    <g style="fill:none;stroke:#afafaf;stroke-width:.1736;stroke-opacity:1;stroke-linecap:round;stroke-linejoin:round">
        <g class="stroked-text">
            <path d="M3.945 3.18h-1.19M3.35 3.18V1.096M3.35 1.096l-.198.298M3.152 1.394l-.199.199M2.953 1.593l-.198.099"/>
        </g>
        <path d="M4.475.23h.13l.26.033.253.068.242.1.226.131.208.16.185.184.159.208.13.226.1.242.069.253.034.26v.26l-.034.26-.068.253-.1.242-.131.226-.16.208-.184.185-.208.159-.226.13-.242.1-.253.069-.26.034h-.13v.004H.225v-4h4.25Z" style="stroke:#afafaf;stroke-width:.0212;stroke-opacity:1;stroke-linecap:round;stroke-linejoin:round;fill:none"/>
    </g>
    <g style="fill:none;stroke:#c2c2c2;stroke-width:.1;stroke-opacity:1;stroke-linecap:round;stroke-linejoin:round">
        <path d="M1.475.225v4M1.475.225h3M1.475 4.225h3M4.475 4.225a2 2 0 0 0 0-4"/>
    </g>
</svg>
