<svg xmlns="http://www.w3.org/2000/svg" width="72.288" height="80.928" viewBox="0 0 19.126 21.412">
    <g class="stroked-text" style="fill:none;stroke:#e8b2a7;stroke-width:.15;stroke-opacity:1;stroke-linecap:round;stroke-linejoin:round">
        <path d="m10.908 10.03.334-.476M11.48 10.03v-1M11.48 9.03h-.381M11.099 9.03l-.095.047M11.004 9.077l-.048.048M10.956 9.125l-.048.095M10.908 9.22v.143M10.908 9.363l.048.095M10.956 9.458l.048.048M11.004 9.506l.095.048M11.099 9.554h.38M10.48 9.506h-.334M10.004 10.03h.476M10.48 10.03v-1M10.48 9.03h-.476M9.242 9.506h.333M9.575 10.03v-1M9.575 9.03h-.476M8.575 9.03v.238M8.813 9.173l-.238.095M8.575 9.268l-.238-.095M8.718 9.458l-.143-.19M8.575 9.268l-.143.19M7.813 9.03v.238M8.051 9.173l-.238.095M7.813 9.268l-.238-.095M7.956 9.458l-.143-.19M7.813 9.268l-.143.19"/>
    </g>
    <g style="fill:none;stroke:#f2eda1;stroke-width:.12;stroke-opacity:1;stroke-linecap:round;stroke-linejoin:round">
        <path d="M3.625 7.825v-3.9M3.625 15.275v-3.9M4.025 3.475h11.1M9.575 10.075v-1M10.075 9.575h-1M15.125 15.675h-11.1M15.525 7.825v-3.9M15.525 15.275v-3.9M4.025 3.475a.4.4 0 0 0-.4.4M3.625 15.275a.4.4 0 0 0 .4.4M15.525 3.875a.4.4 0 0 0-.4-.4M15.125 15.675a.4.4 0 0 0 .4-.4"/>
        <circle cx="9.575" cy="9.575" r="3"/>
    </g>
    <circle cx="7.075" cy="17.075" r=".6" style="fill:#4d7fc4;fill-opacity:1;stroke:none"/>
    <circle cx="12.075" cy="17.075" r=".6" style="fill:#4d7fc4;fill-opacity:1;stroke:none"/>
    <g style="fill:#4d7fc4;fill-opacity:1;stroke:none">
        <circle cx="9.575" cy="17.075" r=".6"/>
        <path d="m3.045 8.325.019-.096.054-.08.081-.055.096-.019h1.5l.75.75v1.5l-.75.75h-1.5l-.096-.019-.08-.054-.055-.081-.019-.096ZM16.105 10.825l-.019.096-.054.08-.081.055-.096.019h-1.75l-.5-.5v-2l.5-.5h1.75l.096.019.08.054.055.081.019.096Z" style="fill:#4d7fc4;fill-opacity:1;stroke:none;fill-rule:evenodd"/>
    </g>
    <circle cx="7.075" cy="2.575" r=".6" style="fill:#4d7fc4;fill-opacity:1;stroke:none"/>
    <circle cx="12.075" cy="2.575" r=".6" style="fill:#4d7fc4;fill-opacity:1;stroke:none"/>
    <circle cx="7.075" cy="17.075" r=".6" style="fill:#c83434;fill-opacity:1;stroke:none"/>
    <circle cx="12.075" cy="17.075" r=".6" style="fill:#c83434;fill-opacity:1;stroke:none"/>
    <g style="fill:#c83434;fill-opacity:1;stroke:none">
        <circle cx="9.575" cy="17.075" r=".6"/>
        <path d="m3.045 8.325.019-.096.054-.08.081-.055.096-.019h1.5l.75.75v1.5l-.75.75h-1.5l-.096-.019-.08-.054-.055-.081-.019-.096ZM16.105 10.825l-.019.096-.054.08-.081.055-.096.019h-1.75l-.5-.5v-2l.5-.5h1.75l.096.019.08.054.055.081.019.096Z" style="fill:#c83434;fill-opacity:1;stroke:none;fill-rule:evenodd"/>
    </g>
    <circle cx="7.075" cy="2.575" r=".6" style="fill:#c83434;fill-opacity:1;stroke:none"/>
    <circle cx="12.075" cy="2.575" r=".6" style="fill:#c83434;fill-opacity:1;stroke:none"/>
    <g class="stroked-text" style="fill:none;stroke:#585d84;stroke-width:.0333;stroke-opacity:1;stroke-linecap:round;stroke-linejoin:round">
        <path d="M6.98 17.144h.19M6.942 17.258l.133-.4M7.075 16.858l.133.4"/>
    </g>
    <circle cx="7.075" cy="17.075" r=".6" style="fill:none;stroke:#585d84;stroke-width:.0212;stroke-opacity:1;stroke-linecap:round;stroke-linejoin:round"/>
    <g class="stroked-text" style="fill:none;stroke:#585d84;stroke-width:.0333;stroke-opacity:1;stroke-linecap:round;stroke-linejoin:round">
        <path d="m12.104 17.049.057.019M12.16 17.068l.02.019M12.18 17.087l.019.038M12.199 17.125v.057M12.199 17.182l-.02.038M12.18 17.22l-.02.02M12.16 17.24l-.037.018M12.123 17.258h-.153M11.97 17.258v-.4M11.97 16.858h.134M12.104 16.858l.038.02M12.142 16.877l.019.02M12.16 16.896l.02.038M12.18 16.935v.038M12.18 16.973l-.02.038M12.16 17.01l-.018.02M12.142 17.03l-.038.019M12.104 17.049h-.134"/>
    </g>
    <circle cx="12.075" cy="17.075" r=".6" style="fill:none;stroke:#585d84;stroke-width:.0212;stroke-opacity:1;stroke-linecap:round;stroke-linejoin:round"/>
    <g class="stroked-text" style="fill:none;stroke:#585d84;stroke-width:.0333;stroke-opacity:1;stroke-linecap:round;stroke-linejoin:round">
        <path d="m9.699 17.22-.02.02M9.68 17.24l-.057.018M9.623 17.258h-.038M9.585 17.258l-.058-.019M9.527 17.24 9.49 17.2M9.49 17.201l-.02-.038M9.47 17.163l-.019-.076M9.451 17.087v-.057M9.451 17.03l.02-.076M9.47 16.954l.02-.038M9.49 16.916l.037-.039M9.527 16.877l.058-.019M9.585 16.858h.038M9.623 16.858l.057.02M9.68 16.877l.019.02"/>
    </g>
    <circle cx="9.575" cy="17.075" r=".6" style="fill:none;stroke:#585d84;stroke-width:.0212;stroke-opacity:1;stroke-linecap:round;stroke-linejoin:round"/>
    <g style="fill:none;stroke:#585d84;stroke-width:.0833;stroke-opacity:1;stroke-linecap:round;stroke-linejoin:round">
        <g class="stroked-text">
            <path d="M4.753 10.408h-1M3.753 10.408l.715-.333M4.468 10.075l-.715-.333M3.753 9.742h1M4.753 9.266h-1M3.753 9.266v-.382M3.753 8.885l.048-.096M3.8 8.79l.049-.048M3.849 8.742l.095-.048M3.944 8.694h.143M4.087 8.694l.095.048M4.182 8.742l.047.047M4.23 8.79l.047.095M4.277 8.885v.38"/>
        </g>
        <path d="m3.045 8.325.019-.096.054-.08.081-.055.096-.019h1.5l.75.75v1.5l-.75.75h-1.5l-.096-.019-.08-.054-.055-.081-.019-.096Z" style="stroke:#585d84;stroke-width:.0212;stroke-opacity:1;stroke-linecap:round;stroke-linejoin:round;fill:none"/>
    </g>
    <g style="fill:none;stroke:#585d84;stroke-width:.0833;stroke-opacity:1;stroke-linecap:round;stroke-linejoin:round">
        <g class="stroked-text">
            <path d="M15.313 10.408h-1M14.313 10.408l.715-.333M15.028 10.075l-.715-.333M14.313 9.742h1M15.313 9.266h-1M14.313 9.266v-.382M14.313 8.885l.048-.096M14.36 8.79l.049-.048M14.409 8.742l.095-.048M14.504 8.694h.143M14.647 8.694l.095.048M14.742 8.742l.047.047M14.79 8.79l.047.095M14.837 8.885v.38"/>
        </g>
        <path d="m16.105 10.825-.019.096-.054.08-.081.055-.096.019h-1.75l-.5-.5v-2l.5-.5h1.75l.096.019.08.054.055.081.019.096Z" style="stroke:#585d84;stroke-width:.0212;stroke-opacity:1;stroke-linecap:round;stroke-linejoin:round;fill:none"/>
    </g>
    <g class="stroked-text" style="fill:none;stroke:#585d84;stroke-width:.0333;stroke-opacity:1;stroke-linecap:round;stroke-linejoin:round">
        <path d="m6.77 2.74.057.018M6.827 2.758h.096M6.923 2.758l.038-.019M6.96 2.74l.02-.02M6.98 2.72l.019-.038M6.999 2.682v-.038M6.999 2.644l-.02-.038M6.98 2.606l-.02-.02M6.96 2.587l-.037-.02M6.923 2.568l-.077-.02M6.846 2.549l-.038-.02M6.808 2.53l-.019-.02M6.79 2.51l-.02-.037M6.77 2.473v-.038M6.77 2.435l.02-.039M6.79 2.396l.018-.019M6.808 2.377l.038-.019M6.846 2.358h.096M6.942 2.358l.057.02M7.38 2.758H7.15M7.266 2.758v-.4M7.266 2.358l-.039.058M7.227 2.416l-.038.038M7.19 2.454l-.039.019"/>
    </g>
    <circle cx="7.075" cy="2.575" r=".6" style="fill:none;stroke:#585d84;stroke-width:.0212;stroke-opacity:1;stroke-linecap:round;stroke-linejoin:round"/>
    <g class="stroked-text" style="fill:none;stroke:#585d84;stroke-width:.0333;stroke-opacity:1;stroke-linecap:round;stroke-linejoin:round">
        <path d="m11.77 2.74.057.018M11.827 2.758h.096M11.923 2.758l.038-.019M11.96 2.74l.02-.02M11.98 2.72l.019-.038M11.999 2.682v-.038M11.999 2.644l-.02-.038M11.98 2.606l-.02-.02M11.96 2.587l-.037-.02M11.923 2.568l-.077-.02M11.846 2.549l-.038-.02M11.808 2.53l-.019-.02M11.79 2.51l-.02-.037M11.77 2.473v-.038M11.77 2.435l.02-.039M11.79 2.396l.018-.019M11.808 2.377l.038-.019M11.846 2.358h.096M11.942 2.358l.057.02M12.151 2.396l.02-.019M12.17 2.377l.038-.019M12.208 2.358h.096M12.304 2.358l.038.02M12.342 2.377l.019.02M12.36 2.396l.02.038M12.38 2.435v.038M12.38 2.473l-.02.057M12.36 2.53l-.228.228M12.132 2.758h.248"/>
    </g>
    <circle cx="12.075" cy="2.575" r=".6" style="fill:none;stroke:#585d84;stroke-width:.0212;stroke-opacity:1;stroke-linecap:round;stroke-linejoin:round"/>
    <g style="fill:none;stroke:#afafaf;stroke-width:.15;stroke-opacity:1;stroke-linecap:round;stroke-linejoin:round">
        <g class="stroked-text">
            <path d="m2.408 19.43-.333-.476M1.837 19.43v-1M1.837 18.43h.38M2.218 18.43l.095.047M2.313 18.477l.048.048M2.36 18.525l.048.095M2.408 18.62v.143M2.408 18.763l-.047.095M2.36 18.858l-.047.048M2.313 18.906l-.095.048M2.218 18.954h-.381M3.027 18.43h.19M3.218 18.43l.095.047M3.313 18.477l.095.096M3.408 18.573l.048.19M3.456 18.763v.333M3.456 19.097l-.048.19M3.408 19.287l-.095.095M3.313 19.382l-.095.048M3.218 19.43h-.19M3.027 19.43l-.095-.048M2.932 19.382l-.095-.095M2.837 19.287l-.048-.19M2.79 19.097v-.334M2.79 18.763l.047-.19M2.837 18.573l.095-.096M2.932 18.477l.095-.047M3.742 18.43h.571M4.027 19.43v-1M4.408 19.525h.762M5.408 18.906h.334M5.885 19.43h-.477M5.408 19.43v-1M5.408 18.43h.476M6.885 19.335l-.048.047M6.837 19.382l-.143.048M6.694 19.43h-.095M6.599 19.43l-.143-.048M6.456 19.382l-.095-.095M6.36 19.287l-.047-.095M6.313 19.192l-.047-.19M6.266 19.001v-.143M6.266 18.858l.047-.19M6.313 18.668l.048-.095M6.36 18.573l.096-.096M6.456 18.477l.143-.047M6.599 18.43h.095M6.694 18.43l.143.047M6.837 18.477l.048.048M7.837 19.43h-.571M7.551 19.43v-1M7.551 18.43l-.095.143M7.456 18.573l-.095.095M7.36 18.668l-.095.047M8.79 19.43h-.572M8.504 19.43v-1M8.504 18.43l-.096.143M8.408 18.573l-.095.095M8.313 18.668l-.095.047M8.98 19.525h.762M9.837 18.43h.571M10.123 19.43v-1M10.742 19.43v-1M10.742 18.906h.571M11.313 19.43v-1M11.646 18.43h.572M11.932 19.43v-1M12.313 19.525h.762M13.266 19.382l.095.048M13.36 19.43h.191M13.551 19.43l.095-.048M13.646 19.382l.048-.095M13.694 19.287v-.048M13.694 19.24l-.048-.096M13.646 19.144l-.095-.047M13.551 19.097h-.143M13.408 19.097l-.095-.048M13.313 19.049l-.048-.095M13.266 18.954v-.048M13.266 18.906l.047-.095M13.313 18.81l.095-.047M13.408 18.763h.143M13.551 18.763l.095.048M14.551 18.763v1M14.551 19.382l-.095.048M14.456 19.43h-.19M14.266 19.43l-.096-.048M14.17 19.382l-.047-.047M14.123 19.335l-.048-.096M14.075 19.24v-.286M14.075 18.954l.048-.096M14.123 18.858l.047-.047M14.17 18.81l.095-.047M14.266 18.763h.19M14.456 18.763l.095.048M14.98 19.382l.143.048M15.123 19.43h.238M15.36 19.43l.096-.048M15.456 19.382l.048-.047M15.504 19.335l.047-.096M15.551 19.24v-.096M15.551 19.144l-.047-.095M15.504 19.049 15.456 19M15.456 19.001l-.095-.047M15.36 18.954l-.19-.048M15.17 18.906l-.095-.048M15.075 18.858l-.048-.047M15.027 18.81l-.047-.095M14.98 18.716v-.096M14.98 18.62l.047-.095M15.027 18.525l.048-.048M15.075 18.477l.095-.047M15.17 18.43h.238M15.408 18.43l.143.047M15.98 19.43v-.667M15.98 18.43l-.048.047M15.932 18.477l.048.048M15.98 18.525l.047-.048M16.027 18.477l-.047-.047M15.98 18.43v.095M16.599 19.43l-.095-.048M16.504 19.382l-.048-.095M16.456 19.287v-.857M16.98 19.43v-1M17.075 19.049l.286.38M17.36 18.763l-.38.381"/>
        </g>
        <g class="stroked-text">
            <path d="m8.242 21.03-.334-.476M7.67 21.03v-1M7.67 20.03h.381M8.051 20.03l.095.047M8.146 20.077l.048.048M8.194 20.125l.048.095M8.242 20.22v.143M8.242 20.363l-.048.095M8.194 20.458l-.048.048M8.146 20.506l-.095.048M8.051 20.554h-.38M8.67 20.506h.334M9.146 21.03H8.67M8.67 21.03v-1M8.67 20.03h.476M9.908 20.506h-.333M9.575 21.03v-1M9.575 20.03h.476M10.575 20.03v.238M10.337 20.173l.238.095M10.575 20.268l.238-.095M10.432 20.458l.143-.19M10.575 20.268l.143.19M11.337 20.03v.238M11.099 20.173l.238.095M11.337 20.268l.238-.095M11.194 20.458l.143-.19M11.337 20.268l.143.19"/>
        </g>
        <path d="M3.725 3.575h11.7v12h-11.7Z" style="stroke:#afafaf;stroke-width:.1;stroke-opacity:1;stroke-linecap:round;stroke-linejoin:round;fill:none"/>
    </g>
    <circle cx="9.575" cy="9.575" r="3" style="fill:none;stroke:#afafaf;stroke-width:.12;stroke-opacity:1;stroke-linecap:round;stroke-linejoin:round"/>
    <g class="stroked-text" style="fill:none;stroke:#afafaf;stroke-width:.0333;stroke-opacity:1;stroke-linecap:round;stroke-linejoin:round">
        <path d="M6.98 17.144h.19M6.942 17.258l.133-.4M7.075 16.858l.133.4"/>
    </g>
    <circle cx="7.075" cy="17.075" r=".6" style="fill:none;stroke:#afafaf;stroke-width:.0212;stroke-opacity:1;stroke-linecap:round;stroke-linejoin:round"/>
    <g class="stroked-text" style="fill:none;stroke:#afafaf;stroke-width:.0333;stroke-opacity:1;stroke-linecap:round;stroke-linejoin:round">
        <path d="m12.104 17.049.057.019M12.16 17.068l.02.019M12.18 17.087l.019.038M12.199 17.125v.057M12.199 17.182l-.02.038M12.18 17.22l-.02.02M12.16 17.24l-.037.018M12.123 17.258h-.153M11.97 17.258v-.4M11.97 16.858h.134M12.104 16.858l.038.02M12.142 16.877l.019.02M12.16 16.896l.02.038M12.18 16.935v.038M12.18 16.973l-.02.038M12.16 17.01l-.018.02M12.142 17.03l-.038.019M12.104 17.049h-.134"/>
    </g>
    <circle cx="12.075" cy="17.075" r=".6" style="fill:none;stroke:#afafaf;stroke-width:.0212;stroke-opacity:1;stroke-linecap:round;stroke-linejoin:round"/>
    <g class="stroked-text" style="fill:none;stroke:#afafaf;stroke-width:.0333;stroke-opacity:1;stroke-linecap:round;stroke-linejoin:round">
        <path d="m9.699 17.22-.02.02M9.68 17.24l-.057.018M9.623 17.258h-.038M9.585 17.258l-.058-.019M9.527 17.24 9.49 17.2M9.49 17.201l-.02-.038M9.47 17.163l-.019-.076M9.451 17.087v-.057M9.451 17.03l.02-.076M9.47 16.954l.02-.038M9.49 16.916l.037-.039M9.527 16.877l.058-.019M9.585 16.858h.038M9.623 16.858l.057.02M9.68 16.877l.019.02"/>
    </g>
    <circle cx="9.575" cy="17.075" r=".6" style="fill:none;stroke:#afafaf;stroke-width:.0212;stroke-opacity:1;stroke-linecap:round;stroke-linejoin:round"/>
    <g style="fill:none;stroke:#afafaf;stroke-width:.0833;stroke-opacity:1;stroke-linecap:round;stroke-linejoin:round">
        <g class="stroked-text">
            <path d="M4.753 10.408h-1M3.753 10.408l.715-.333M4.468 10.075l-.715-.333M3.753 9.742h1M4.753 9.266h-1M3.753 9.266v-.382M3.753 8.885l.048-.096M3.8 8.79l.049-.048M3.849 8.742l.095-.048M3.944 8.694h.143M4.087 8.694l.095.048M4.182 8.742l.047.047M4.23 8.79l.047.095M4.277 8.885v.38"/>
        </g>
        <path d="m3.045 8.325.019-.096.054-.08.081-.055.096-.019h1.5l.75.75v1.5l-.75.75h-1.5l-.096-.019-.08-.054-.055-.081-.019-.096Z" style="stroke:#afafaf;stroke-width:.0212;stroke-opacity:1;stroke-linecap:round;stroke-linejoin:round;fill:none"/>
    </g>
    <g style="fill:none;stroke:#afafaf;stroke-width:.0833;stroke-opacity:1;stroke-linecap:round;stroke-linejoin:round">
        <g class="stroked-text">
            <path d="M15.313 10.408h-1M14.313 10.408l.715-.333M15.028 10.075l-.715-.333M14.313 9.742h1M15.313 9.266h-1M14.313 9.266v-.382M14.313 8.885l.048-.096M14.36 8.79l.049-.048M14.409 8.742l.095-.048M14.504 8.694h.143M14.647 8.694l.095.048M14.742 8.742l.047.047M14.79 8.79l.047.095M14.837 8.885v.38"/>
        </g>
        <path d="m16.105 10.825-.019.096-.054.08-.081.055-.096.019h-1.75l-.5-.5v-2l.5-.5h1.75l.096.019.08.054.055.081.019.096Z" style="stroke:#afafaf;stroke-width:.0212;stroke-opacity:1;stroke-linecap:round;stroke-linejoin:round;fill:none"/>
    </g>
    <g class="stroked-text" style="fill:none;stroke:#afafaf;stroke-width:.0333;stroke-opacity:1;stroke-linecap:round;stroke-linejoin:round">
        <path d="m6.77 2.74.057.018M6.827 2.758h.096M6.923 2.758l.038-.019M6.96 2.74l.02-.02M6.98 2.72l.019-.038M6.999 2.682v-.038M6.999 2.644l-.02-.038M6.98 2.606l-.02-.02M6.96 2.587l-.037-.02M6.923 2.568l-.077-.02M6.846 2.549l-.038-.02M6.808 2.53l-.019-.02M6.79 2.51l-.02-.037M6.77 2.473v-.038M6.77 2.435l.02-.039M6.79 2.396l.018-.019M6.808 2.377l.038-.019M6.846 2.358h.096M6.942 2.358l.057.02M7.38 2.758H7.15M7.266 2.758v-.4M7.266 2.358l-.039.058M7.227 2.416l-.038.038M7.19 2.454l-.039.019"/>
    </g>
    <circle cx="7.075" cy="2.575" r=".6" style="fill:none;stroke:#afafaf;stroke-width:.0212;stroke-opacity:1;stroke-linecap:round;stroke-linejoin:round"/>
    <g class="stroked-text" style="fill:none;stroke:#afafaf;stroke-width:.0333;stroke-opacity:1;stroke-linecap:round;stroke-linejoin:round">
        <path d="m11.77 2.74.057.018M11.827 2.758h.096M11.923 2.758l.038-.019M11.96 2.74l.02-.02M11.98 2.72l.019-.038M11.999 2.682v-.038M11.999 2.644l-.02-.038M11.98 2.606l-.02-.02M11.96 2.587l-.037-.02M11.923 2.568l-.077-.02M11.846 2.549l-.038-.02M11.808 2.53l-.019-.02M11.79 2.51l-.02-.037M11.77 2.473v-.038M11.77 2.435l.02-.039M11.79 2.396l.018-.019M11.808 2.377l.038-.019M11.846 2.358h.096M11.942 2.358l.057.02M12.151 2.396l.02-.019M12.17 2.377l.038-.019M12.208 2.358h.096M12.304 2.358l.038.02M12.342 2.377l.019.02M12.36 2.396l.02.038M12.38 2.435v.038M12.38 2.473l-.02.057M12.36 2.53l-.228.228M12.132 2.758h.248"/>
    </g>
    <g style="fill:none;stroke:#afafaf;stroke-width:.0212;stroke-opacity:1;stroke-linecap:round;stroke-linejoin:round">
        <circle cx="12.075" cy="2.575" r=".6"/>
        <path d="M.05.05H19.1V19.1H.05Z" style="stroke:#c2c2c2;stroke-width:.1;stroke-opacity:1;stroke-linecap:round;stroke-linejoin:round;fill:none"/>
    </g>
</svg>
