<?xml version="1.0" standalone="no"?>
 <!DOCTYPE svg PUBLIC "-//W3C//DTD SVG 1.1//EN" 
 "http://www.w3.org/Graphics/SVG/1.1/DTD/svg11.dtd"> 
<svg
  xmlns:svg="http://www.w3.org/2000/svg"
  xmlns="http://www.w3.org/2000/svg"
  xmlns:xlink="http://www.w3.org/1999/xlink"
  version="1.1"
  width="19.1262mm" height="21.4122mm" viewBox="0.0000 0.0000 19.1262 21.4122">
<title>SVG Image created as ROT_EC11_THT.svg date 2025/05/12 02:45:49 </title>
  <desc>Image generated by PCBNEW </desc>
<g style="fill:#000000; fill-opacity:1.0000;stroke:#000000; stroke-opacity:1.0000;
stroke-linecap:round; stroke-linejoin:round;"
 transform="translate(0 0) scale(1 1)">
</g>
<g style="fill:none; 
stroke:#E8B2A7; stroke-width:0.1500; stroke-opacity:1; 
stroke-linecap:round; stroke-linejoin:round;">
<text x="9.5750" y="10.0750"
transform="scale(-1 1) translate(-19.150000 0)"
textLength="4.5357" font-size="1.3333" lengthAdjust="spacingAndGlyphs"
text-anchor="middle" opacity="0" stroke-opacity="0">REF**</text>
<g class="stroked-text"><desc>REF**</desc>
<path d="M10.9083 10.0298
L11.2417 9.5536
" />
<path d="M11.4798 10.0298
L11.4798 9.0298
" />
<path d="M11.4798 9.0298
L11.0988 9.0298
" />
<path d="M11.0988 9.0298
L11.0036 9.0774
" />
<path d="M11.0036 9.0774
L10.9560 9.1251
" />
<path d="M10.9560 9.1251
L10.9083 9.2203
" />
<path d="M10.9083 9.2203
L10.9083 9.3632
" />
<path d="M10.9083 9.3632
L10.9560 9.4584
" />
<path d="M10.9560 9.4584
L11.0036 9.5060
" />
<path d="M11.0036 9.5060
L11.0988 9.5536
" />
<path d="M11.0988 9.5536
L11.4798 9.5536
" />
<path d="M10.4798 9.5060
L10.1464 9.5060
" />
<path d="M10.0036 10.0298
L10.4798 10.0298
" />
<path d="M10.4798 10.0298
L10.4798 9.0298
" />
<path d="M10.4798 9.0298
L10.0036 9.0298
" />
<path d="M9.2417 9.5060
L9.5750 9.5060
" />
<path d="M9.5750 10.0298
L9.5750 9.0298
" />
<path d="M9.5750 9.0298
L9.0988 9.0298
" />
<path d="M8.5750 9.0298
L8.5750 9.2679
" />
<path d="M8.8131 9.1727
L8.5750 9.2679
" />
<path d="M8.5750 9.2679
L8.3369 9.1727
" />
<path d="M8.7179 9.4584
L8.5750 9.2679
" />
<path d="M8.5750 9.2679
L8.4321 9.4584
" />
<path d="M7.8131 9.0298
L7.8131 9.2679
" />
<path d="M8.0512 9.1727
L7.8131 9.2679
" />
<path d="M7.8131 9.2679
L7.5750 9.1727
" />
<path d="M7.9560 9.4584
L7.8131 9.2679
" />
<path d="M7.8131 9.2679
L7.6702 9.4584
" />
</g></g>
<g style="fill:none; 
stroke:#F2EDA1; stroke-width:0.1200; stroke-opacity:1; 
stroke-linecap:round; stroke-linejoin:round;">
<path d="M3.6250 3.4750
L3.6250 4.4750
" />
<path d="M3.6250 14.6750
L3.6250 15.6750
" />
<path d="M3.6250 15.6750
L4.6250 15.6750
" />
<path d="M4.6250 3.4750
L3.6250 3.4750
" />
<path d="M9.5750 10.0750
L9.5750 9.0750
" />
<path d="M10.0750 9.5750
L9.0750 9.5750
" />
<path d="M14.5250 15.6750
L15.5250 15.6750
" />
<path d="M15.5250 3.4750
L14.5250 3.4750
" />
<path d="M15.5250 4.4750
L15.5250 3.4750
" />
<path d="M15.5250 15.6750
L15.5250 14.6750
" />
<circle cx="9.5750" cy="9.5750" r="3.0000" /> 
</g>
<g style="fill:#4D7FC4; fill-opacity:1.0000; stroke:none;">
<circle cx="7.0750" cy="17.0750" r="0.6000" /> 
</g>
<g style="fill:#4D7FC4; fill-opacity:1.0000; stroke:none;">
<circle cx="12.0750" cy="17.0750" r="0.6000" /> 
</g>
<g style="fill:#4D7FC4; fill-opacity:1.0000; stroke:none;">
<circle cx="9.5750" cy="17.0750" r="0.6000" /> 
<path style="fill:#4D7FC4; fill-opacity:1.0000; stroke:none;fill-rule:evenodd;"
d="M 3.0450,8.3250
3.0640,8.2293
3.1182,8.1482
3.1993,8.0940
3.2950,8.0750
4.7950,8.0750
5.5450,8.8250
5.5450,10.3250
4.7950,11.0750
3.2950,11.0750
3.1993,11.0560
3.1182,11.0018
3.0640,10.9207
3.0450,10.8250
Z" /> 
<path style="fill:#4D7FC4; fill-opacity:1.0000; stroke:none;fill-rule:evenodd;"
d="M 16.1050,10.8250
16.0860,10.9207
16.0318,11.0018
15.9507,11.0560
15.8550,11.0750
14.1050,11.0750
13.6050,10.5750
13.6050,8.5750
14.1050,8.0750
15.8550,8.0750
15.9507,8.0940
16.0318,8.1482
16.0860,8.2293
16.1050,8.3250
Z" /> 
</g>
<g style="fill:#4D7FC4; fill-opacity:1.0000; stroke:none;">
<circle cx="7.0750" cy="2.5750" r="0.6000" /> 
</g>
<g style="fill:#4D7FC4; fill-opacity:1.0000; stroke:none;">
<circle cx="12.0750" cy="2.5750" r="0.6000" /> 
</g>
<g style="fill:#C83434; fill-opacity:1.0000; stroke:none;">
<circle cx="7.0750" cy="17.0750" r="0.6000" /> 
</g>
<g style="fill:#C83434; fill-opacity:1.0000; stroke:none;">
<circle cx="12.0750" cy="17.0750" r="0.6000" /> 
</g>
<g style="fill:#C83434; fill-opacity:1.0000; stroke:none;">
<circle cx="9.5750" cy="17.0750" r="0.6000" /> 
<path style="fill:#C83434; fill-opacity:1.0000; stroke:none;fill-rule:evenodd;"
d="M 3.0450,8.3250
3.0640,8.2293
3.1182,8.1482
3.1993,8.0940
3.2950,8.0750
4.7950,8.0750
5.5450,8.8250
5.5450,10.3250
4.7950,11.0750
3.2950,11.0750
3.1993,11.0560
3.1182,11.0018
3.0640,10.9207
3.0450,10.8250
Z" /> 
<path style="fill:#C83434; fill-opacity:1.0000; stroke:none;fill-rule:evenodd;"
d="M 16.1050,10.8250
16.0860,10.9207
16.0318,11.0018
15.9507,11.0560
15.8550,11.0750
14.1050,11.0750
13.6050,10.5750
13.6050,8.5750
14.1050,8.0750
15.8550,8.0750
15.9507,8.0940
16.0318,8.1482
16.0860,8.2293
16.1050,8.3250
Z" /> 
</g>
<g style="fill:#C83434; fill-opacity:1.0000; stroke:none;">
<circle cx="7.0750" cy="2.5750" r="0.6000" /> 
</g>
<g style="fill:#C83434; fill-opacity:1.0000; stroke:none;">
<circle cx="12.0750" cy="2.5750" r="0.6000" /> 
</g>
<g style="fill:none; 
stroke:#585D84; stroke-width:0.1500; stroke-opacity:1; 
stroke-linecap:round; stroke-linejoin:round;">
<text x="9.5750" y="19.4750"
transform="scale(-1 1) translate(-19.150000 0)"
textLength="10.9643" font-size="1.3333" lengthAdjust="spacingAndGlyphs"
text-anchor="middle" opacity="0" stroke-opacity="0">ROT_EC11_THT</text>
<g class="stroked-text"><desc>ROT_EC11_THT</desc>
<path d="M14.1226 19.4298
L14.4560 18.9536
" />
<path d="M14.6940 19.4298
L14.6940 18.4298
" />
<path d="M14.6940 18.4298
L14.3131 18.4298
" />
<path d="M14.3131 18.4298
L14.2179 18.4774
" />
<path d="M14.2179 18.4774
L14.1702 18.5251
" />
<path d="M14.1702 18.5251
L14.1226 18.6203
" />
<path d="M14.1226 18.6203
L14.1226 18.7632
" />
<path d="M14.1226 18.7632
L14.1702 18.8584
" />
<path d="M14.1702 18.8584
L14.2179 18.9060
" />
<path d="M14.2179 18.9060
L14.3131 18.9536
" />
<path d="M14.3131 18.9536
L14.6940 18.9536
" />
<path d="M13.5036 18.4298
L13.3131 18.4298
" />
<path d="M13.3131 18.4298
L13.2179 18.4774
" />
<path d="M13.2179 18.4774
L13.1226 18.5727
" />
<path d="M13.1226 18.5727
L13.0750 18.7632
" />
<path d="M13.0750 18.7632
L13.0750 19.0965
" />
<path d="M13.0750 19.0965
L13.1226 19.2870
" />
<path d="M13.1226 19.2870
L13.2179 19.3822
" />
<path d="M13.2179 19.3822
L13.3131 19.4298
" />
<path d="M13.3131 19.4298
L13.5036 19.4298
" />
<path d="M13.5036 19.4298
L13.5988 19.3822
" />
<path d="M13.5988 19.3822
L13.6940 19.2870
" />
<path d="M13.6940 19.2870
L13.7417 19.0965
" />
<path d="M13.7417 19.0965
L13.7417 18.7632
" />
<path d="M13.7417 18.7632
L13.6940 18.5727
" />
<path d="M13.6940 18.5727
L13.5988 18.4774
" />
<path d="M13.5988 18.4774
L13.5036 18.4298
" />
<path d="M12.7893 18.4298
L12.2179 18.4298
" />
<path d="M12.5036 19.4298
L12.5036 18.4298
" />
<path d="M12.1226 19.5251
L11.3607 19.5251
" />
<path d="M11.1226 18.9060
L10.7893 18.9060
" />
<path d="M10.6464 19.4298
L11.1226 19.4298
" />
<path d="M11.1226 19.4298
L11.1226 18.4298
" />
<path d="M11.1226 18.4298
L10.6464 18.4298
" />
<path d="M9.6464 19.3346
L9.6940 19.3822
" />
<path d="M9.6940 19.3822
L9.8369 19.4298
" />
<path d="M9.8369 19.4298
L9.9321 19.4298
" />
<path d="M9.9321 19.4298
L10.0750 19.3822
" />
<path d="M10.0750 19.3822
L10.1702 19.2870
" />
<path d="M10.1702 19.2870
L10.2179 19.1917
" />
<path d="M10.2179 19.1917
L10.2655 19.0012
" />
<path d="M10.2655 19.0012
L10.2655 18.8584
" />
<path d="M10.2655 18.8584
L10.2179 18.6679
" />
<path d="M10.2179 18.6679
L10.1702 18.5727
" />
<path d="M10.1702 18.5727
L10.0750 18.4774
" />
<path d="M10.0750 18.4774
L9.9321 18.4298
" />
<path d="M9.9321 18.4298
L9.8369 18.4298
" />
<path d="M9.8369 18.4298
L9.6940 18.4774
" />
<path d="M9.6940 18.4774
L9.6464 18.5251
" />
<path d="M8.6940 19.4298
L9.2655 19.4298
" />
<path d="M8.9798 19.4298
L8.9798 18.4298
" />
<path d="M8.9798 18.4298
L9.0750 18.5727
" />
<path d="M9.0750 18.5727
L9.1702 18.6679
" />
<path d="M9.1702 18.6679
L9.2655 18.7155
" />
<path d="M7.7417 19.4298
L8.3131 19.4298
" />
<path d="M8.0274 19.4298
L8.0274 18.4298
" />
<path d="M8.0274 18.4298
L8.1226 18.5727
" />
<path d="M8.1226 18.5727
L8.2179 18.6679
" />
<path d="M8.2179 18.6679
L8.3131 18.7155
" />
<path d="M7.5512 19.5251
L6.7893 19.5251
" />
<path d="M6.6940 18.4298
L6.1226 18.4298
" />
<path d="M6.4083 19.4298
L6.4083 18.4298
" />
<path d="M5.7893 19.4298
L5.7893 18.4298
" />
<path d="M5.7893 18.9060
L5.2179 18.9060
" />
<path d="M5.2179 19.4298
L5.2179 18.4298
" />
<path d="M4.8845 18.4298
L4.3131 18.4298
" />
<path d="M4.5988 19.4298
L4.5988 18.4298
" />
</g><text x="9.5750" y="21.0750"
transform="scale(-1 1) translate(-19.150000 0)"
textLength="4.5357" font-size="1.3333" lengthAdjust="spacingAndGlyphs"
text-anchor="middle" opacity="0" stroke-opacity="0">REF**</text>
<g class="stroked-text"><desc>REF**</desc>
<path d="M10.9083 21.0298
L11.2417 20.5536
" />
<path d="M11.4798 21.0298
L11.4798 20.0298
" />
<path d="M11.4798 20.0298
L11.0988 20.0298
" />
<path d="M11.0988 20.0298
L11.0036 20.0774
" />
<path d="M11.0036 20.0774
L10.9560 20.1251
" />
<path d="M10.9560 20.1251
L10.9083 20.2203
" />
<path d="M10.9083 20.2203
L10.9083 20.3632
" />
<path d="M10.9083 20.3632
L10.9560 20.4584
" />
<path d="M10.9560 20.4584
L11.0036 20.5060
" />
<path d="M11.0036 20.5060
L11.0988 20.5536
" />
<path d="M11.0988 20.5536
L11.4798 20.5536
" />
<path d="M10.4798 20.5060
L10.1464 20.5060
" />
<path d="M10.0036 21.0298
L10.4798 21.0298
" />
<path d="M10.4798 21.0298
L10.4798 20.0298
" />
<path d="M10.4798 20.0298
L10.0036 20.0298
" />
<path d="M9.2417 20.5060
L9.5750 20.5060
" />
<path d="M9.5750 21.0298
L9.5750 20.0298
" />
<path d="M9.5750 20.0298
L9.0988 20.0298
" />
<path d="M8.5750 20.0298
L8.5750 20.2679
" />
<path d="M8.8131 20.1727
L8.5750 20.2679
" />
<path d="M8.5750 20.2679
L8.3369 20.1727
" />
<path d="M8.7179 20.4584
L8.5750 20.2679
" />
<path d="M8.5750 20.2679
L8.4321 20.4584
" />
<path d="M7.8131 20.0298
L7.8131 20.2679
" />
<path d="M8.0512 20.1727
L7.8131 20.2679
" />
<path d="M7.8131 20.2679
L7.5750 20.1727
" />
<path d="M7.9560 20.4584
L7.8131 20.2679
" />
<path d="M7.8131 20.2679
L7.6702 20.4584
" />
</g></g>
<g style="fill:none; 
stroke:#585D84; stroke-width:0.0333; stroke-opacity:1; 
stroke-linecap:round; stroke-linejoin:round;">
<text x="7.0750" y="17.2750"
textLength="0.3629" font-size="0.5333" lengthAdjust="spacingAndGlyphs"
text-anchor="middle" opacity="0" stroke-opacity="0">A</text>
<g class="stroked-text"><desc>A</desc>
<path d="M6.9798 17.1440
L7.1702 17.1440
" />
<path d="M6.9417 17.2583
L7.0750 16.8583
" />
<path d="M7.0750 16.8583
L7.2083 17.2583
" />
</g></g>
<g style="fill:none; 
stroke:#585D84; stroke-width:0.0212; stroke-opacity:1; 
stroke-linecap:round; stroke-linejoin:round;">
<circle cx="7.0750" cy="17.0750" r="0.6000" /> 
</g>
<g style="fill:none; 
stroke:#585D84; stroke-width:0.0333; stroke-opacity:1; 
stroke-linecap:round; stroke-linejoin:round;">
<text x="12.0750" y="17.2750"
textLength="0.4200" font-size="0.5333" lengthAdjust="spacingAndGlyphs"
text-anchor="middle" opacity="0" stroke-opacity="0">B</text>
<g class="stroked-text"><desc>B</desc>
<path d="M12.1036 17.0488
L12.1607 17.0678
" />
<path d="M12.1607 17.0678
L12.1798 17.0869
" />
<path d="M12.1798 17.0869
L12.1988 17.1250
" />
<path d="M12.1988 17.1250
L12.1988 17.1821
" />
<path d="M12.1988 17.1821
L12.1798 17.2202
" />
<path d="M12.1798 17.2202
L12.1607 17.2393
" />
<path d="M12.1607 17.2393
L12.1226 17.2583
" />
<path d="M12.1226 17.2583
L11.9702 17.2583
" />
<path d="M11.9702 17.2583
L11.9702 16.8583
" />
<path d="M11.9702 16.8583
L12.1036 16.8583
" />
<path d="M12.1036 16.8583
L12.1417 16.8774
" />
<path d="M12.1417 16.8774
L12.1607 16.8964
" />
<path d="M12.1607 16.8964
L12.1798 16.9345
" />
<path d="M12.1798 16.9345
L12.1798 16.9726
" />
<path d="M12.1798 16.9726
L12.1607 17.0107
" />
<path d="M12.1607 17.0107
L12.1417 17.0297
" />
<path d="M12.1417 17.0297
L12.1036 17.0488
" />
<path d="M12.1036 17.0488
L11.9702 17.0488
" />
</g></g>
<g style="fill:none; 
stroke:#585D84; stroke-width:0.0212; stroke-opacity:1; 
stroke-linecap:round; stroke-linejoin:round;">
<circle cx="12.0750" cy="17.0750" r="0.6000" /> 
</g>
<g style="fill:none; 
stroke:#585D84; stroke-width:0.0333; stroke-opacity:1; 
stroke-linecap:round; stroke-linejoin:round;">
<text x="9.5750" y="17.2750"
textLength="0.4200" font-size="0.5333" lengthAdjust="spacingAndGlyphs"
text-anchor="middle" opacity="0" stroke-opacity="0">C</text>
<g class="stroked-text"><desc>C</desc>
<path d="M9.6988 17.2202
L9.6798 17.2393
" />
<path d="M9.6798 17.2393
L9.6226 17.2583
" />
<path d="M9.6226 17.2583
L9.5845 17.2583
" />
<path d="M9.5845 17.2583
L9.5274 17.2393
" />
<path d="M9.5274 17.2393
L9.4893 17.2012
" />
<path d="M9.4893 17.2012
L9.4702 17.1631
" />
<path d="M9.4702 17.1631
L9.4512 17.0869
" />
<path d="M9.4512 17.0869
L9.4512 17.0297
" />
<path d="M9.4512 17.0297
L9.4702 16.9536
" />
<path d="M9.4702 16.9536
L9.4893 16.9155
" />
<path d="M9.4893 16.9155
L9.5274 16.8774
" />
<path d="M9.5274 16.8774
L9.5845 16.8583
" />
<path d="M9.5845 16.8583
L9.6226 16.8583
" />
<path d="M9.6226 16.8583
L9.6798 16.8774
" />
<path d="M9.6798 16.8774
L9.6988 16.8964
" />
</g></g>
<g style="fill:none; 
stroke:#585D84; stroke-width:0.0212; stroke-opacity:1; 
stroke-linecap:round; stroke-linejoin:round;">
<circle cx="9.5750" cy="17.0750" r="0.6000" /> 
</g>
<g style="fill:none; 
stroke:#585D84; stroke-width:0.0833; stroke-opacity:1; 
stroke-linecap:round; stroke-linejoin:round;">
<g transform="rotate(-90.000000 4.2950 9.5750)">
<text x="4.2950" y="10.0750"
textLength="2.1929" font-size="1.3333" lengthAdjust="spacingAndGlyphs"
text-anchor="middle" opacity="0" stroke-opacity="0">MP</text>
</g>
<g class="stroked-text"><desc>MP</desc>
<path d="M4.7533 10.4083
L3.7533 10.4083
" />
<path d="M3.7533 10.4083
L4.4676 10.0750
" />
<path d="M4.4676 10.0750
L3.7533 9.7417
" />
<path d="M3.7533 9.7417
L4.7533 9.7417
" />
<path d="M4.7533 9.2655
L3.7533 9.2655
" />
<path d="M3.7533 9.2655
L3.7533 8.8845
" />
<path d="M3.7533 8.8845
L3.8009 8.7893
" />
<path d="M3.8009 8.7893
L3.8485 8.7417
" />
<path d="M3.8485 8.7417
L3.9438 8.6940
" />
<path d="M3.9438 8.6940
L4.0866 8.6940
" />
<path d="M4.0866 8.6940
L4.1819 8.7417
" />
<path d="M4.1819 8.7417
L4.2295 8.7893
" />
<path d="M4.2295 8.7893
L4.2771 8.8845
" />
<path d="M4.2771 8.8845
L4.2771 9.2655
" />
</g><path style="fill:none; 
stroke:#585D84; stroke-width:0.0212; stroke-opacity:1; 
stroke-linecap:round; stroke-linejoin:round;fill:none"
d="M 3.0450,8.3250
3.0640,8.2293
3.1182,8.1482
3.1993,8.0940
3.2950,8.0750
4.7950,8.0750
5.5450,8.8250
5.5450,10.3250
4.7950,11.0750
3.2950,11.0750
3.1993,11.0560
3.1182,11.0018
3.0640,10.9207
3.0450,10.8250
Z" /> 
</g>
<g style="fill:none; 
stroke:#585D84; stroke-width:0.0833; stroke-opacity:1; 
stroke-linecap:round; stroke-linejoin:round;">
<g transform="rotate(-90.000000 14.8550 9.5750)">
<text x="14.8550" y="10.0750"
textLength="2.1929" font-size="1.3333" lengthAdjust="spacingAndGlyphs"
text-anchor="middle" opacity="0" stroke-opacity="0">MP</text>
</g>
<g class="stroked-text"><desc>MP</desc>
<path d="M15.3133 10.4083
L14.3133 10.4083
" />
<path d="M14.3133 10.4083
L15.0276 10.0750
" />
<path d="M15.0276 10.0750
L14.3133 9.7417
" />
<path d="M14.3133 9.7417
L15.3133 9.7417
" />
<path d="M15.3133 9.2655
L14.3133 9.2655
" />
<path d="M14.3133 9.2655
L14.3133 8.8845
" />
<path d="M14.3133 8.8845
L14.3609 8.7893
" />
<path d="M14.3609 8.7893
L14.4085 8.7417
" />
<path d="M14.4085 8.7417
L14.5038 8.6940
" />
<path d="M14.5038 8.6940
L14.6466 8.6940
" />
<path d="M14.6466 8.6940
L14.7419 8.7417
" />
<path d="M14.7419 8.7417
L14.7895 8.7893
" />
<path d="M14.7895 8.7893
L14.8371 8.8845
" />
<path d="M14.8371 8.8845
L14.8371 9.2655
" />
</g><path style="fill:none; 
stroke:#585D84; stroke-width:0.0212; stroke-opacity:1; 
stroke-linecap:round; stroke-linejoin:round;fill:none"
d="M 16.1050,10.8250
16.0860,10.9207
16.0318,11.0018
15.9507,11.0560
15.8550,11.0750
14.1050,11.0750
13.6050,10.5750
13.6050,8.5750
14.1050,8.0750
15.8550,8.0750
15.9507,8.0940
16.0318,8.1482
16.0860,8.2293
16.1050,8.3250
Z" /> 
</g>
<g style="fill:none; 
stroke:#585D84; stroke-width:0.0333; stroke-opacity:1; 
stroke-linecap:round; stroke-linejoin:round;">
<text x="7.0750" y="2.7750"
textLength="0.7819" font-size="0.5333" lengthAdjust="spacingAndGlyphs"
text-anchor="middle" opacity="0" stroke-opacity="0">S1</text>
<g class="stroked-text"><desc>S1</desc>
<path d="M6.7702 2.7393
L6.8274 2.7583
" />
<path d="M6.8274 2.7583
L6.9226 2.7583
" />
<path d="M6.9226 2.7583
L6.9607 2.7393
" />
<path d="M6.9607 2.7393
L6.9798 2.7202
" />
<path d="M6.9798 2.7202
L6.9988 2.6821
" />
<path d="M6.9988 2.6821
L6.9988 2.6440
" />
<path d="M6.9988 2.6440
L6.9798 2.6059
" />
<path d="M6.9798 2.6059
L6.9607 2.5869
" />
<path d="M6.9607 2.5869
L6.9226 2.5678
" />
<path d="M6.9226 2.5678
L6.8464 2.5488
" />
<path d="M6.8464 2.5488
L6.8083 2.5297
" />
<path d="M6.8083 2.5297
L6.7893 2.5107
" />
<path d="M6.7893 2.5107
L6.7702 2.4726
" />
<path d="M6.7702 2.4726
L6.7702 2.4345
" />
<path d="M6.7702 2.4345
L6.7893 2.3964
" />
<path d="M6.7893 2.3964
L6.8083 2.3774
" />
<path d="M6.8083 2.3774
L6.8464 2.3583
" />
<path d="M6.8464 2.3583
L6.9417 2.3583
" />
<path d="M6.9417 2.3583
L6.9988 2.3774
" />
<path d="M7.3798 2.7583
L7.1512 2.7583
" />
<path d="M7.2655 2.7583
L7.2655 2.3583
" />
<path d="M7.2655 2.3583
L7.2274 2.4155
" />
<path d="M7.2274 2.4155
L7.1893 2.4536
" />
<path d="M7.1893 2.4536
L7.1512 2.4726
" />
</g></g>
<g style="fill:none; 
stroke:#585D84; stroke-width:0.0212; stroke-opacity:1; 
stroke-linecap:round; stroke-linejoin:round;">
<circle cx="7.0750" cy="2.5750" r="0.6000" /> 
</g>
<g style="fill:none; 
stroke:#585D84; stroke-width:0.0333; stroke-opacity:1; 
stroke-linecap:round; stroke-linejoin:round;">
<text x="12.0750" y="2.7750"
textLength="0.7819" font-size="0.5333" lengthAdjust="spacingAndGlyphs"
text-anchor="middle" opacity="0" stroke-opacity="0">S2</text>
<g class="stroked-text"><desc>S2</desc>
<path d="M11.7702 2.7393
L11.8274 2.7583
" />
<path d="M11.8274 2.7583
L11.9226 2.7583
" />
<path d="M11.9226 2.7583
L11.9607 2.7393
" />
<path d="M11.9607 2.7393
L11.9798 2.7202
" />
<path d="M11.9798 2.7202
L11.9988 2.6821
" />
<path d="M11.9988 2.6821
L11.9988 2.6440
" />
<path d="M11.9988 2.6440
L11.9798 2.6059
" />
<path d="M11.9798 2.6059
L11.9607 2.5869
" />
<path d="M11.9607 2.5869
L11.9226 2.5678
" />
<path d="M11.9226 2.5678
L11.8464 2.5488
" />
<path d="M11.8464 2.5488
L11.8083 2.5297
" />
<path d="M11.8083 2.5297
L11.7893 2.5107
" />
<path d="M11.7893 2.5107
L11.7702 2.4726
" />
<path d="M11.7702 2.4726
L11.7702 2.4345
" />
<path d="M11.7702 2.4345
L11.7893 2.3964
" />
<path d="M11.7893 2.3964
L11.8083 2.3774
" />
<path d="M11.8083 2.3774
L11.8464 2.3583
" />
<path d="M11.8464 2.3583
L11.9417 2.3583
" />
<path d="M11.9417 2.3583
L11.9988 2.3774
" />
<path d="M12.1512 2.3964
L12.1702 2.3774
" />
<path d="M12.1702 2.3774
L12.2083 2.3583
" />
<path d="M12.2083 2.3583
L12.3036 2.3583
" />
<path d="M12.3036 2.3583
L12.3417 2.3774
" />
<path d="M12.3417 2.3774
L12.3607 2.3964
" />
<path d="M12.3607 2.3964
L12.3798 2.4345
" />
<path d="M12.3798 2.4345
L12.3798 2.4726
" />
<path d="M12.3798 2.4726
L12.3607 2.5297
" />
<path d="M12.3607 2.5297
L12.1321 2.7583
" />
<path d="M12.1321 2.7583
L12.3798 2.7583
" />
</g></g>
<g style="fill:none; 
stroke:#585D84; stroke-width:0.0212; stroke-opacity:1; 
stroke-linecap:round; stroke-linejoin:round;">
<circle cx="12.0750" cy="2.5750" r="0.6000" /> 
<path style="fill:none; 
stroke:#AFAFAF; stroke-width:0.1000; stroke-opacity:1; 
stroke-linecap:round; stroke-linejoin:round;fill:none"
d="M 3.7250,3.5750
15.4250,3.5750
15.4250,15.5750
3.7250,15.5750
Z" /> 
</g>
<g style="fill:none; 
stroke:#AFAFAF; stroke-width:0.1200; stroke-opacity:1; 
stroke-linecap:round; stroke-linejoin:round;">
<circle cx="9.5750" cy="9.5750" r="3.0000" /> 
</g>
<g style="fill:none; 
stroke:#AFAFAF; stroke-width:0.0333; stroke-opacity:1; 
stroke-linecap:round; stroke-linejoin:round;">
<text x="7.0750" y="17.2750"
textLength="0.3629" font-size="0.5333" lengthAdjust="spacingAndGlyphs"
text-anchor="middle" opacity="0" stroke-opacity="0">A</text>
<g class="stroked-text"><desc>A</desc>
<path d="M6.9798 17.1440
L7.1702 17.1440
" />
<path d="M6.9417 17.2583
L7.0750 16.8583
" />
<path d="M7.0750 16.8583
L7.2083 17.2583
" />
</g></g>
<g style="fill:none; 
stroke:#AFAFAF; stroke-width:0.0212; stroke-opacity:1; 
stroke-linecap:round; stroke-linejoin:round;">
<circle cx="7.0750" cy="17.0750" r="0.6000" /> 
</g>
<g style="fill:none; 
stroke:#AFAFAF; stroke-width:0.0333; stroke-opacity:1; 
stroke-linecap:round; stroke-linejoin:round;">
<text x="12.0750" y="17.2750"
textLength="0.4200" font-size="0.5333" lengthAdjust="spacingAndGlyphs"
text-anchor="middle" opacity="0" stroke-opacity="0">B</text>
<g class="stroked-text"><desc>B</desc>
<path d="M12.1036 17.0488
L12.1607 17.0678
" />
<path d="M12.1607 17.0678
L12.1798 17.0869
" />
<path d="M12.1798 17.0869
L12.1988 17.1250
" />
<path d="M12.1988 17.1250
L12.1988 17.1821
" />
<path d="M12.1988 17.1821
L12.1798 17.2202
" />
<path d="M12.1798 17.2202
L12.1607 17.2393
" />
<path d="M12.1607 17.2393
L12.1226 17.2583
" />
<path d="M12.1226 17.2583
L11.9702 17.2583
" />
<path d="M11.9702 17.2583
L11.9702 16.8583
" />
<path d="M11.9702 16.8583
L12.1036 16.8583
" />
<path d="M12.1036 16.8583
L12.1417 16.8774
" />
<path d="M12.1417 16.8774
L12.1607 16.8964
" />
<path d="M12.1607 16.8964
L12.1798 16.9345
" />
<path d="M12.1798 16.9345
L12.1798 16.9726
" />
<path d="M12.1798 16.9726
L12.1607 17.0107
" />
<path d="M12.1607 17.0107
L12.1417 17.0297
" />
<path d="M12.1417 17.0297
L12.1036 17.0488
" />
<path d="M12.1036 17.0488
L11.9702 17.0488
" />
</g></g>
<g style="fill:none; 
stroke:#AFAFAF; stroke-width:0.0212; stroke-opacity:1; 
stroke-linecap:round; stroke-linejoin:round;">
<circle cx="12.0750" cy="17.0750" r="0.6000" /> 
</g>
<g style="fill:none; 
stroke:#AFAFAF; stroke-width:0.0333; stroke-opacity:1; 
stroke-linecap:round; stroke-linejoin:round;">
<text x="9.5750" y="17.2750"
textLength="0.4200" font-size="0.5333" lengthAdjust="spacingAndGlyphs"
text-anchor="middle" opacity="0" stroke-opacity="0">C</text>
<g class="stroked-text"><desc>C</desc>
<path d="M9.6988 17.2202
L9.6798 17.2393
" />
<path d="M9.6798 17.2393
L9.6226 17.2583
" />
<path d="M9.6226 17.2583
L9.5845 17.2583
" />
<path d="M9.5845 17.2583
L9.5274 17.2393
" />
<path d="M9.5274 17.2393
L9.4893 17.2012
" />
<path d="M9.4893 17.2012
L9.4702 17.1631
" />
<path d="M9.4702 17.1631
L9.4512 17.0869
" />
<path d="M9.4512 17.0869
L9.4512 17.0297
" />
<path d="M9.4512 17.0297
L9.4702 16.9536
" />
<path d="M9.4702 16.9536
L9.4893 16.9155
" />
<path d="M9.4893 16.9155
L9.5274 16.8774
" />
<path d="M9.5274 16.8774
L9.5845 16.8583
" />
<path d="M9.5845 16.8583
L9.6226 16.8583
" />
<path d="M9.6226 16.8583
L9.6798 16.8774
" />
<path d="M9.6798 16.8774
L9.6988 16.8964
" />
</g></g>
<g style="fill:none; 
stroke:#AFAFAF; stroke-width:0.0212; stroke-opacity:1; 
stroke-linecap:round; stroke-linejoin:round;">
<circle cx="9.5750" cy="17.0750" r="0.6000" /> 
</g>
<g style="fill:none; 
stroke:#AFAFAF; stroke-width:0.0833; stroke-opacity:1; 
stroke-linecap:round; stroke-linejoin:round;">
<g transform="rotate(-90.000000 4.2950 9.5750)">
<text x="4.2950" y="10.0750"
textLength="2.1929" font-size="1.3333" lengthAdjust="spacingAndGlyphs"
text-anchor="middle" opacity="0" stroke-opacity="0">MP</text>
</g>
<g class="stroked-text"><desc>MP</desc>
<path d="M4.7533 10.4083
L3.7533 10.4083
" />
<path d="M3.7533 10.4083
L4.4676 10.0750
" />
<path d="M4.4676 10.0750
L3.7533 9.7417
" />
<path d="M3.7533 9.7417
L4.7533 9.7417
" />
<path d="M4.7533 9.2655
L3.7533 9.2655
" />
<path d="M3.7533 9.2655
L3.7533 8.8845
" />
<path d="M3.7533 8.8845
L3.8009 8.7893
" />
<path d="M3.8009 8.7893
L3.8485 8.7417
" />
<path d="M3.8485 8.7417
L3.9438 8.6940
" />
<path d="M3.9438 8.6940
L4.0866 8.6940
" />
<path d="M4.0866 8.6940
L4.1819 8.7417
" />
<path d="M4.1819 8.7417
L4.2295 8.7893
" />
<path d="M4.2295 8.7893
L4.2771 8.8845
" />
<path d="M4.2771 8.8845
L4.2771 9.2655
" />
</g><path style="fill:none; 
stroke:#AFAFAF; stroke-width:0.0212; stroke-opacity:1; 
stroke-linecap:round; stroke-linejoin:round;fill:none"
d="M 3.0450,8.3250
3.0640,8.2293
3.1182,8.1482
3.1993,8.0940
3.2950,8.0750
4.7950,8.0750
5.5450,8.8250
5.5450,10.3250
4.7950,11.0750
3.2950,11.0750
3.1993,11.0560
3.1182,11.0018
3.0640,10.9207
3.0450,10.8250
Z" /> 
</g>
<g style="fill:none; 
stroke:#AFAFAF; stroke-width:0.0833; stroke-opacity:1; 
stroke-linecap:round; stroke-linejoin:round;">
<g transform="rotate(-90.000000 14.8550 9.5750)">
<text x="14.8550" y="10.0750"
textLength="2.1929" font-size="1.3333" lengthAdjust="spacingAndGlyphs"
text-anchor="middle" opacity="0" stroke-opacity="0">MP</text>
</g>
<g class="stroked-text"><desc>MP</desc>
<path d="M15.3133 10.4083
L14.3133 10.4083
" />
<path d="M14.3133 10.4083
L15.0276 10.0750
" />
<path d="M15.0276 10.0750
L14.3133 9.7417
" />
<path d="M14.3133 9.7417
L15.3133 9.7417
" />
<path d="M15.3133 9.2655
L14.3133 9.2655
" />
<path d="M14.3133 9.2655
L14.3133 8.8845
" />
<path d="M14.3133 8.8845
L14.3609 8.7893
" />
<path d="M14.3609 8.7893
L14.4085 8.7417
" />
<path d="M14.4085 8.7417
L14.5038 8.6940
" />
<path d="M14.5038 8.6940
L14.6466 8.6940
" />
<path d="M14.6466 8.6940
L14.7419 8.7417
" />
<path d="M14.7419 8.7417
L14.7895 8.7893
" />
<path d="M14.7895 8.7893
L14.8371 8.8845
" />
<path d="M14.8371 8.8845
L14.8371 9.2655
" />
</g><path style="fill:none; 
stroke:#AFAFAF; stroke-width:0.0212; stroke-opacity:1; 
stroke-linecap:round; stroke-linejoin:round;fill:none"
d="M 16.1050,10.8250
16.0860,10.9207
16.0318,11.0018
15.9507,11.0560
15.8550,11.0750
14.1050,11.0750
13.6050,10.5750
13.6050,8.5750
14.1050,8.0750
15.8550,8.0750
15.9507,8.0940
16.0318,8.1482
16.0860,8.2293
16.1050,8.3250
Z" /> 
</g>
<g style="fill:none; 
stroke:#AFAFAF; stroke-width:0.0333; stroke-opacity:1; 
stroke-linecap:round; stroke-linejoin:round;">
<text x="7.0750" y="2.7750"
textLength="0.7819" font-size="0.5333" lengthAdjust="spacingAndGlyphs"
text-anchor="middle" opacity="0" stroke-opacity="0">S1</text>
<g class="stroked-text"><desc>S1</desc>
<path d="M6.7702 2.7393
L6.8274 2.7583
" />
<path d="M6.8274 2.7583
L6.9226 2.7583
" />
<path d="M6.9226 2.7583
L6.9607 2.7393
" />
<path d="M6.9607 2.7393
L6.9798 2.7202
" />
<path d="M6.9798 2.7202
L6.9988 2.6821
" />
<path d="M6.9988 2.6821
L6.9988 2.6440
" />
<path d="M6.9988 2.6440
L6.9798 2.6059
" />
<path d="M6.9798 2.6059
L6.9607 2.5869
" />
<path d="M6.9607 2.5869
L6.9226 2.5678
" />
<path d="M6.9226 2.5678
L6.8464 2.5488
" />
<path d="M6.8464 2.5488
L6.8083 2.5297
" />
<path d="M6.8083 2.5297
L6.7893 2.5107
" />
<path d="M6.7893 2.5107
L6.7702 2.4726
" />
<path d="M6.7702 2.4726
L6.7702 2.4345
" />
<path d="M6.7702 2.4345
L6.7893 2.3964
" />
<path d="M6.7893 2.3964
L6.8083 2.3774
" />
<path d="M6.8083 2.3774
L6.8464 2.3583
" />
<path d="M6.8464 2.3583
L6.9417 2.3583
" />
<path d="M6.9417 2.3583
L6.9988 2.3774
" />
<path d="M7.3798 2.7583
L7.1512 2.7583
" />
<path d="M7.2655 2.7583
L7.2655 2.3583
" />
<path d="M7.2655 2.3583
L7.2274 2.4155
" />
<path d="M7.2274 2.4155
L7.1893 2.4536
" />
<path d="M7.1893 2.4536
L7.1512 2.4726
" />
</g></g>
<g style="fill:none; 
stroke:#AFAFAF; stroke-width:0.0212; stroke-opacity:1; 
stroke-linecap:round; stroke-linejoin:round;">
<circle cx="7.0750" cy="2.5750" r="0.6000" /> 
</g>
<g style="fill:none; 
stroke:#AFAFAF; stroke-width:0.0333; stroke-opacity:1; 
stroke-linecap:round; stroke-linejoin:round;">
<text x="12.0750" y="2.7750"
textLength="0.7819" font-size="0.5333" lengthAdjust="spacingAndGlyphs"
text-anchor="middle" opacity="0" stroke-opacity="0">S2</text>
<g class="stroked-text"><desc>S2</desc>
<path d="M11.7702 2.7393
L11.8274 2.7583
" />
<path d="M11.8274 2.7583
L11.9226 2.7583
" />
<path d="M11.9226 2.7583
L11.9607 2.7393
" />
<path d="M11.9607 2.7393
L11.9798 2.7202
" />
<path d="M11.9798 2.7202
L11.9988 2.6821
" />
<path d="M11.9988 2.6821
L11.9988 2.6440
" />
<path d="M11.9988 2.6440
L11.9798 2.6059
" />
<path d="M11.9798 2.6059
L11.9607 2.5869
" />
<path d="M11.9607 2.5869
L11.9226 2.5678
" />
<path d="M11.9226 2.5678
L11.8464 2.5488
" />
<path d="M11.8464 2.5488
L11.8083 2.5297
" />
<path d="M11.8083 2.5297
L11.7893 2.5107
" />
<path d="M11.7893 2.5107
L11.7702 2.4726
" />
<path d="M11.7702 2.4726
L11.7702 2.4345
" />
<path d="M11.7702 2.4345
L11.7893 2.3964
" />
<path d="M11.7893 2.3964
L11.8083 2.3774
" />
<path d="M11.8083 2.3774
L11.8464 2.3583
" />
<path d="M11.8464 2.3583
L11.9417 2.3583
" />
<path d="M11.9417 2.3583
L11.9988 2.3774
" />
<path d="M12.1512 2.3964
L12.1702 2.3774
" />
<path d="M12.1702 2.3774
L12.2083 2.3583
" />
<path d="M12.2083 2.3583
L12.3036 2.3583
" />
<path d="M12.3036 2.3583
L12.3417 2.3774
" />
<path d="M12.3417 2.3774
L12.3607 2.3964
" />
<path d="M12.3607 2.3964
L12.3798 2.4345
" />
<path d="M12.3798 2.4345
L12.3798 2.4726
" />
<path d="M12.3798 2.4726
L12.3607 2.5297
" />
<path d="M12.3607 2.5297
L12.1321 2.7583
" />
<path d="M12.1321 2.7583
L12.3798 2.7583
" />
</g></g>
<g style="fill:none; 
stroke:#AFAFAF; stroke-width:0.0212; stroke-opacity:1; 
stroke-linecap:round; stroke-linejoin:round;">
<circle cx="12.0750" cy="2.5750" r="0.6000" /> 
<path style="fill:none; 
stroke:#C2C2C2; stroke-width:0.1000; stroke-opacity:1; 
stroke-linecap:round; stroke-linejoin:round;fill:none"
d="M 0.0500,0.0500
19.1000,0.0500
19.1000,19.1000
0.0500,19.1000
Z" /> 
</g> 
</svg>
