<svg xmlns="http://www.w3.org/2000/svg" width="72.288" height="80.928" viewBox="0 0 19.126 21.412">
    <g class="stroked-text" style="fill:none;stroke:#e8b2a7;stroke-width:.15;stroke-opacity:1;stroke-linecap:round;stroke-linejoin:round">
        <path d="m10.908 10.03.334-.476M11.48 10.03v-1M11.48 9.03h-.381M11.099 9.03l-.095.047M11.004 9.077l-.048.048M10.956 9.125l-.048.095M10.908 9.22v.143M10.908 9.363l.048.095M10.956 9.458l.048.048M11.004 9.506l.095.048M11.099 9.554h.38M10.48 9.506h-.334M10.004 10.03h.476M10.48 10.03v-1M10.48 9.03h-.476M9.242 9.506h.333M9.575 10.03v-1M9.575 9.03h-.476M8.575 9.03v.238M8.813 9.173l-.238.095M8.575 9.268l-.238-.095M8.718 9.458l-.143-.19M8.575 9.268l-.143.19M7.813 9.03v.238M8.051 9.173l-.238.095M7.813 9.268l-.238-.095M7.956 9.458l-.143-.19M7.813 9.268l-.143.19"/>
    </g>
    <g style="fill:none;stroke:#f2eda1;stroke-width:.12;stroke-opacity:1;stroke-linecap:round;stroke-linejoin:round">
        <path d="M3.625 3.475v1M3.625 14.675v1M3.625 15.675h1M4.625 3.475h-1M9.575 10.075v-1M10.075 9.575h-1M14.525 15.675h1M15.525 3.475h-1M15.525 4.475v-1M15.525 15.675v-1"/>
        <circle cx="9.575" cy="9.575" r="3"/>
        <path stroke="none" d="m6.275 16.815.018-.092.052-.078.078-.052.092-.018h1.12l.092.018.078.052.052.078.018.092v1.52l-.018.092-.052.078-.078.052-.092.018h-1.12l-.092-.018-.078-.052-.052-.078-.018-.092ZM11.275 16.815l.018-.092.052-.078.078-.052.092-.018h1.12l.092.018.078.052.052.078.018.092v1.52l-.018.092-.052.078-.078.052-.092.018h-1.12l-.092-.018-.078-.052-.052-.078-.018-.092ZM8.775 16.815l.018-.092.052-.078.078-.052.092-.018h1.12l.092.018.078.052.052.078.018.092v1.52l-.018.092-.052.078-.078.052-.092.018h-1.12l-.092-.018-.078-.052-.052-.078-.018-.092ZM1.575 8.2l.016-.107.054-.11.087-.088.111-.054.107-.016H3.7l.107.016.11.054.088.087.054.111.016.107v2.75l-.016.107-.054.11-.087.088-.111.054-.107.016H1.95l-.107-.016-.11-.054-.088-.087-.054-.111-.016-.107ZM17.575 10.95l-.016.107-.054.11-.087.088-.111.054-.107.016h-1.75l-.107-.016-.11-.054-.088-.087-.054-.111-.016-.107V8.2l.016-.107.054-.11.087-.088.111-.054.107-.016h1.75l.107.016.11.054.088.087.054.111.016.107ZM7.875 2.335l-.018.092-.052.078-.078.052-.092.018h-1.12l-.092-.018-.078-.052-.052-.078-.018-.092V.815l.018-.092.052-.078.078-.052.092-.018h1.12l.092.018.078.052.052.078.018.092ZM12.875 2.335l-.018.092-.052.078-.078.052-.092.018h-1.12l-.092-.018-.078-.052-.052-.078-.018-.092V.815l.018-.092.052-.078.078-.052.092-.018h1.12l.092.018.078.052.052.078.018.092Z" style="fill:#c83434;fill-opacity:1;stroke:none;fill-rule:evenodd"/>
    </g>
    <circle cx="7.575" cy="9.575" r=".6" style="fill:none;stroke:#585d84;stroke-width:.0212;stroke-opacity:1;stroke-linecap:round;stroke-linejoin:round"/>
    <circle cx="12.075" cy="9.575" r=".5" style="fill:none;stroke:#585d84;stroke-width:.0212;stroke-opacity:1;stroke-linecap:round;stroke-linejoin:round"/>
    <g style="fill:none;stroke:#afafaf;stroke-width:.15;stroke-opacity:1;stroke-linecap:round;stroke-linejoin:round">
        <g class="stroked-text">
            <path d="m4.766 21.03-.334-.476M4.194 21.03v-1M4.194 20.03h.381M4.575 20.03l.095.047M4.67 20.077l.048.048M4.718 20.125l.048.095M4.766 20.22v.143M4.766 20.363l-.048.095M4.718 20.458l-.048.048M4.67 20.506l-.095.048M4.575 20.554h-.381M5.385 20.03h.19M5.575 20.03l.095.047M5.67 20.077l.096.096M5.766 20.173l.047.19M5.813 20.363v.334M5.813 20.697l-.047.19M5.766 20.887l-.096.095M5.67 20.982l-.095.048M5.575 21.03h-.19M5.385 21.03l-.096-.048M5.29 20.982l-.096-.095M5.194 20.887l-.048-.19M5.146 20.697v-.334M5.146 20.363l.048-.19M5.194 20.173l.095-.096M5.29 20.077l.095-.047M6.099 20.03h.571M6.385 21.03v-1M6.766 21.125h.761M7.766 20.506h.333M8.242 21.03h-.477M7.766 21.03v-1M7.766 20.03h.476M9.242 20.935l-.048.047M9.194 20.982l-.143.048M9.051 21.03h-.095M8.956 21.03l-.143-.048M8.813 20.982l-.095-.095M8.718 20.887l-.048-.095M8.67 20.792l-.047-.19M8.623 20.601v-.143M8.623 20.458l.047-.19M8.67 20.268l.048-.095M8.718 20.173l.095-.096M8.813 20.077l.143-.047M8.956 20.03h.095M9.051 20.03l.143.047M9.194 20.077l.048.048M10.194 21.03h-.571M9.908 21.03v-1M9.908 20.03l-.095.143M9.813 20.173l-.095.095M9.718 20.268l-.095.047M11.146 21.03h-.571M10.86 21.03v-1M10.86 20.03l-.095.143M10.766 20.173l-.096.095M10.67 20.268l-.095.047M11.337 21.125h.762M12.29 20.982l.142.048M12.432 21.03h.238M12.67 21.03l.095-.048M12.766 20.982l.047-.047M12.813 20.935l.048-.096M12.86 20.84v-.096M12.86 20.744l-.047-.095M12.813 20.649l-.048-.048M12.766 20.601l-.096-.047M12.67 20.554l-.19-.048M12.48 20.506l-.096-.048M12.385 20.458l-.048-.047M12.337 20.41l-.048-.095M12.29 20.316v-.096M12.29 20.22l.047-.095M12.337 20.125l.047-.048M12.385 20.077l.095-.047M12.48 20.03h.238M12.718 20.03l.143.047M13.29 21.03v-1M13.29 20.03l.333.714M13.623 20.744l.333-.714M13.956 20.03v1M14.432 21.03v-1M14.432 20.03h.238M14.67 20.03l.143.047M14.813 20.077l.095.096M14.908 20.173l.048.095M14.956 20.268l.048.19M15.004 20.458v.143M15.004 20.601l-.048.19M14.956 20.792l-.048.095M14.908 20.887l-.095.095M14.813 20.982l-.143.048M14.67 21.03h-.238"/>
        </g>
        <g class="stroked-text">
            <path d="m8.242 19.43-.334-.476M7.67 19.43v-1M7.67 18.43h.381M8.051 18.43l.095.047M8.146 18.477l.048.048M8.194 18.525l.048.095M8.242 18.62v.143M8.242 18.763l-.048.095M8.194 18.858l-.048.048M8.146 18.906l-.095.048M8.051 18.954h-.38M8.67 18.906h.334M9.146 19.43H8.67M8.67 19.43v-1M8.67 18.43h.476M9.908 18.906h-.333M9.575 19.43v-1M9.575 18.43h.476M10.575 18.43v.238M10.337 18.573l.238.095M10.575 18.668l.238-.095M10.432 18.858l.143-.19M10.575 18.668l.143.19M11.337 18.43v.238M11.099 18.573l.238.095M11.337 18.668l.238-.095M11.194 18.858l.143-.19M11.337 18.668l.143.19"/>
        </g>
        <path d="M3.725 3.575h11.7v12h-11.7Z" style="stroke:#afafaf;stroke-width:.1;stroke-opacity:1;stroke-linecap:round;stroke-linejoin:round;fill:none"/>
    </g>
    <circle cx="9.575" cy="9.575" r="3" style="fill:none;stroke:#afafaf;stroke-width:.12;stroke-opacity:1;stroke-linecap:round;stroke-linejoin:round"/>
    <circle cx="7.575" cy="9.575" r=".6" style="fill:none;stroke:#afafaf;stroke-width:.0212;stroke-opacity:1;stroke-linecap:round;stroke-linejoin:round"/>
    <circle cx="12.075" cy="9.575" r=".5" style="fill:none;stroke:#afafaf;stroke-width:.0212;stroke-opacity:1;stroke-linecap:round;stroke-linejoin:round"/>
    <g style="fill:none;stroke:#afafaf;stroke-width:.0556;stroke-opacity:1;stroke-linecap:round;stroke-linejoin:round">
        <g class="stroked-text">
            <path d="M7.19 17.734v-.318M7.38 17.797l-.666-.222M6.714 17.575l.666-.222"/>
        </g>
        <path d="m6.275 16.815.018-.092.052-.078.078-.052.092-.018h1.12l.092.018.078.052.052.078.018.092v1.52l-.018.092-.052.078-.078.052-.092.018h-1.12l-.092-.018-.078-.052-.052-.078-.018-.092Z" style="stroke:#afafaf;stroke-width:.0212;stroke-opacity:1;stroke-linecap:round;stroke-linejoin:round;fill:none"/>
    </g>
    <g style="fill:none;stroke:#afafaf;stroke-width:.0556;stroke-opacity:1;stroke-linecap:round;stroke-linejoin:round">
        <g class="stroked-text">
            <path d="m12.031 17.527.032-.095M12.063 17.432l.032-.032M12.095 17.4l.063-.031M12.158 17.369h.096M12.254 17.369l.063.031M12.317 17.4l.032.032M12.349 17.432l.031.064M12.38 17.496v.254M12.38 17.75h-.666M11.714 17.75v-.223M11.714 17.527l.032-.063M11.746 17.464l.031-.032M11.777 17.432l.064-.032M11.84 17.4h.064M11.904 17.4l.064.032M11.968 17.432l.032.032M12 17.464l.031.063M12.031 17.527v.223"/>
        </g>
        <path d="m11.275 16.815.018-.092.052-.078.078-.052.092-.018h1.12l.092.018.078.052.052.078.018.092v1.52l-.018.092-.052.078-.078.052-.092.018h-1.12l-.092-.018-.078-.052-.052-.078-.018-.092Z" style="stroke:#afafaf;stroke-width:.0212;stroke-opacity:1;stroke-linecap:round;stroke-linejoin:round;fill:none"/>
    </g>
    <g style="fill:none;stroke:#afafaf;stroke-width:.0556;stroke-opacity:1;stroke-linecap:round;stroke-linejoin:round">
        <g class="stroked-text">
            <path d="m9.817 17.369.032.031M9.849 17.4l.031.096M9.88 17.496v.063M9.88 17.56l-.031.094M9.849 17.654l-.064.064M9.785 17.718l-.063.032M9.722 17.75l-.127.031M9.595 17.781H9.5M9.5 17.781l-.127-.031M9.373 17.75l-.064-.032M9.31 17.718l-.064-.064M9.246 17.654l-.032-.095M9.214 17.56v-.064M9.214 17.496l.032-.096M9.246 17.4l.031-.031"/>
        </g>
        <path d="m8.775 16.815.018-.092.052-.078.078-.052.092-.018h1.12l.092.018.078.052.052.078.018.092v1.52l-.018.092-.052.078-.078.052-.092.018h-1.12l-.092-.018-.078-.052-.052-.078-.018-.092Z" style="stroke:#afafaf;stroke-width:.0212;stroke-opacity:1;stroke-linecap:round;stroke-linejoin:round;fill:none"/>
    </g>
    <g style="fill:none;stroke:#afafaf;stroke-width:.0972;stroke-opacity:1;stroke-linecap:round;stroke-linejoin:round">
        <g class="stroked-text">
            <path d="M3.36 10.547H2.193M2.193 10.547l.833-.389M3.026 10.158l-.833-.389M2.193 9.77H3.36M3.36 9.214H2.193M2.193 9.214v-.445M2.193 8.77l.056-.112M2.249 8.658l.055-.055M2.304 8.603l.111-.056M2.415 8.547h.167M2.582 8.547l.111.056M2.693 8.603l.056.055M2.749 8.658l.055.111M2.804 8.77v.444"/>
        </g>
        <path d="m1.575 8.2.016-.107.054-.11.087-.088.111-.054.107-.016H3.7l.107.016.11.054.088.087.054.111.016.107v2.75l-.016.107-.054.11-.087.088-.111.054-.107.016H1.95l-.107-.016-.11-.054-.088-.087-.054-.111-.016-.107Z" style="stroke:#afafaf;stroke-width:.0212;stroke-opacity:1;stroke-linecap:round;stroke-linejoin:round;fill:none"/>
    </g>
    <g style="fill:none;stroke:#afafaf;stroke-width:.0972;stroke-opacity:1;stroke-linecap:round;stroke-linejoin:round">
        <g class="stroked-text">
            <path d="M16.86 10.547h-1.167M15.693 10.547l.833-.389M16.526 10.158l-.833-.389M15.693 9.77h1.167M16.86 9.214h-1.167M15.693 9.214v-.445M15.693 8.77l.056-.112M15.749 8.658l.055-.055M15.804 8.603l.111-.056M15.915 8.547h.167M16.082 8.547l.111.056M16.193 8.603l.056.055M16.249 8.658l.055.111M16.304 8.77v.444"/>
        </g>
        <path d="m17.575 10.95-.016.107-.054.11-.087.088-.111.054-.107.016h-1.75l-.107-.016-.11-.054-.088-.087-.054-.111-.016-.107V8.2l.016-.107.054-.11.087-.088.111-.054.107-.016h1.75l.107.016.11.054.088.087.054.111.016.107Z" style="stroke:#afafaf;stroke-width:.0212;stroke-opacity:1;stroke-linecap:round;stroke-linejoin:round;fill:none"/>
    </g>
    <g style="fill:none;stroke:#afafaf;stroke-width:.0556;stroke-opacity:1;stroke-linecap:round;stroke-linejoin:round">
        <g class="stroked-text">
            <path d="m7.349 2.083.031-.095M7.38 1.988v-.159M7.38 1.829l-.031-.063M7.349 1.766l-.032-.032M7.317 1.734l-.064-.032M7.254 1.702H7.19M7.19 1.702l-.063.032M7.127 1.734l-.032.032M7.095 1.766l-.032.063M7.063 1.829l-.032.127M7.031 1.956 7 2.019M7 2.02l-.032.031M6.968 2.051l-.064.032M6.904 2.083h-.063M6.84 2.083l-.063-.032M6.777 2.051l-.031-.032M6.746 2.02l-.032-.064M6.714 1.956v-.159M6.714 1.797l.032-.095M7.38 1.067v.381M7.38 1.258h-.666M6.714 1.258l.095.063M6.81 1.321l.063.064M6.873 1.385l.031.063"/>
        </g>
        <path d="m7.875 2.335-.018.092-.052.078-.078.052-.092.018h-1.12l-.092-.018-.078-.052-.052-.078-.018-.092V.815l.018-.092.052-.078.078-.052.092-.018h1.12l.092.018.078.052.052.078.018.092Z" style="stroke:#afafaf;stroke-width:.0212;stroke-opacity:1;stroke-linecap:round;stroke-linejoin:round;fill:none"/>
    </g>
    <g style="fill:none;stroke:#afafaf;stroke-width:.0556;stroke-opacity:1;stroke-linecap:round;stroke-linejoin:round">
        <g class="stroked-text">
            <path d="m12.349 2.083.031-.095M12.38 1.988v-.159M12.38 1.829l-.031-.063M12.349 1.766l-.032-.032M12.317 1.734l-.063-.032M12.254 1.702h-.064M12.19 1.702l-.063.032M12.127 1.734l-.032.032M12.095 1.766l-.032.063M12.063 1.829l-.032.127M12.031 1.956 12 2.019M12 2.02l-.032.031M11.968 2.051l-.064.032M11.904 2.083h-.063M11.84 2.083l-.063-.032M11.777 2.051l-.031-.032M11.746 2.02l-.032-.064M11.714 1.956v-.159M11.714 1.797l.032-.095M11.777 1.448l-.031-.032M11.746 1.416l-.032-.063M11.714 1.353v-.159M11.714 1.194l.032-.063M11.746 1.13l.031-.031M11.777 1.099l.064-.032M11.84 1.067h.064M11.904 1.067 12 1.1M12 1.099l.38.38M12.38 1.48v-.413"/>
        </g>
        <path d="m12.875 2.335-.018.092-.052.078-.078.052-.092.018h-1.12l-.092-.018-.078-.052-.052-.078-.018-.092V.815l.018-.092.052-.078.078-.052.092-.018h1.12l.092.018.078.052.052.078.018.092Z" style="stroke:#afafaf;stroke-width:.0212;stroke-opacity:1;stroke-linecap:round;stroke-linejoin:round;fill:none"/>
        <path d="M.05.05H19.1V19.1H.05Z" style="stroke:#c2c2c2;stroke-width:.1;stroke-opacity:1;stroke-linecap:round;stroke-linejoin:round;fill:none"/>
    </g>
</svg>
