<svg xmlns="http://www.w3.org/2000/svg" width="79.872" height="76.8" viewBox="0 0 21.133 20.32">
    <g class="stroked-text" style="fill:none;stroke:#f2eda1;stroke-width:.15;stroke-opacity:1;stroke-linecap:round;stroke-linejoin:round">
        <path d="m11.022 4.95-.333-.476M10.45 4.95v-1M10.45 3.95h.382M10.832 3.95l.095.047M10.927 3.997l.047.048M10.974 4.045l.048.095M11.022 4.14v.143M11.022 4.283l-.048.095M10.974 4.378l-.047.048M10.927 4.426l-.095.048M10.832 4.474h-.381M11.45 4.426h.334M11.927 4.95h-.476M11.45 4.95v-1M11.45 3.95h.477M12.689 4.426h-.334M12.355 4.95v-1M12.355 3.95h.477M13.355 3.95v.238M13.117 4.093l.238.095M13.355 4.188l.239-.095M13.213 4.378l.142-.19M13.355 4.188l.143.19M14.117 3.95v.238M13.88 4.093l.237.095M14.117 4.188l.238-.095M13.974 4.378l.143-.19M14.117 4.188l.143.19"/>
    </g>
    <g style="fill:none;stroke:#f2eda1;stroke-width:.12;stroke-opacity:1;stroke-linecap:round;stroke-linejoin:round">
        <path d="M5.497 2.59v.355M5.497 7.035v-.99M5.497 7.035h5.08M8.277 17.05l.8.8M9.077 13.2l-.8.8M9.077 13.2h1.8M9.077 17.85h3.15M13.027 17.05l-.8.8M13.027 17.05v-.35M13.042 8.94h1.726M14.387 2.59h-8.89M16.577 8.94h.35M16.927 5.13v.355M16.927 8.585v.355M17.027 15.7h-3M17.827 11.05h-3.854M17.827 11.05v.725M17.827 14.875v.025M13.037 8.941a2.54 2.54 0 0 0-2.46-1.906M14.027 15.7a1 1 0 0 0-1 1M10.877 13.2a2.63 2.63 0 0 0 2.156-1.492M13.977 11.05a1 1 0 0 0-.94.658M16.927 5.13a2.54 2.54 0 0 0-2.54-2.54M17.027 15.7a.8.8 0 0 0 .8-.8"/>
        <path stroke="none" d="m16.862 6.035.02-.096.054-.08.08-.055.096-.019h2.05l.096.019.081.054.054.081.02.096v2l-.02.096-.054.08-.08.055-.097.019h-2.05l-.095-.019-.081-.054-.055-.081-.019-.096ZM17.552 12.325l.02-.096.054-.08.08-.055.096-.019h2.05l.096.019.081.054.054.081.02.096v2l-.02.096-.054.08-.08.055-.097.019h-2.05l-.095-.019-.081-.054-.055-.081-.019-.096ZM3.012 3.495l.02-.096.054-.08.08-.055.096-.019h2.05l.096.019.081.054.054.081.02.096v2l-.02.096-.054.08-.08.055-.097.019h-2.05l-.095-.019-.081-.054-.055-.081-.019-.096ZM6.057 14.525l.02-.096.054-.08.08-.055.096-.019h2.05l.096.019.081.054.054.081.02.096v2l-.02.096-.054.08-.08.055-.097.019h-2.05l-.095-.019-.081-.054-.055-.081-.019-.096Z" style="fill:#b4a09a;fill-opacity:.9;stroke:none;fill-rule:evenodd"/>
        <path stroke="none" d="m16.862 6.035.02-.096.054-.08.08-.055.096-.019h2.05l.096.019.081.054.054.081.02.096v2l-.02.096-.054.08-.08.055-.097.019h-2.05l-.095-.019-.081-.054-.055-.081-.019-.096ZM17.552 12.325l.02-.096.054-.08.08-.055.096-.019h2.05l.096.019.081.054.054.081.02.096v2l-.02.096-.054.08-.08.055-.097.019h-2.05l-.095-.019-.081-.054-.055-.081-.019-.096ZM3.012 3.495l.02-.096.054-.08.08-.055.096-.019h2.05l.096.019.081.054.054.081.02.096v2l-.02.096-.054.08-.08.055-.097.019h-2.05l-.095-.019-.081-.054-.055-.081-.019-.096ZM6.057 14.525l.02-.096.054-.08.08-.055.096-.019h2.05l.096.019.081.054.054.081.02.096v2l-.02.096-.054.08-.08.055-.097.019h-2.05l-.095-.019-.081-.054-.055-.081-.019-.096Z" style="fill:#c83434;fill-opacity:1;stroke:none;fill-rule:evenodd"/>
        <path d="M3.577 2.575h14v14h-14Z" style="stroke:#585d84;stroke-width:.1;stroke-opacity:1;stroke-linecap:round;stroke-linejoin:round;fill:none"/>
    </g>
    <circle cx="5.497" cy="9.575" r=".85" style="fill:none;stroke:#585d84;stroke-width:.0212;stroke-opacity:1;stroke-linecap:round;stroke-linejoin:round"/>
    <circle cx="8.037" cy="4.495" r="1.5" style="fill:none;stroke:#585d84;stroke-width:.0212;stroke-opacity:1;stroke-linecap:round;stroke-linejoin:round"/>
    <circle cx="10.577" cy="9.575" r="2" style="fill:none;stroke:#585d84;stroke-width:.0212;stroke-opacity:1;stroke-linecap:round;stroke-linejoin:round"/>
    <circle cx="10.577" cy="15.525" r="1.5" style="fill:none;stroke:#585d84;stroke-width:.0212;stroke-opacity:1;stroke-linecap:round;stroke-linejoin:round"/>
    <circle cx="14.387" cy="7.035" r="1.5" style="fill:none;stroke:#585d84;stroke-width:.0212;stroke-opacity:1;stroke-linecap:round;stroke-linejoin:round"/>
    <circle cx="15.577" cy="13.325" r="1.5" style="fill:none;stroke:#585d84;stroke-width:.0212;stroke-opacity:1;stroke-linecap:round;stroke-linejoin:round"/>
    <circle cx="15.657" cy="9.575" r=".85" style="fill:none;stroke:#585d84;stroke-width:.0212;stroke-opacity:1;stroke-linecap:round;stroke-linejoin:round"/>
    <g style="fill:none;stroke:#afafaf;stroke-width:.15;stroke-opacity:1;stroke-linecap:round;stroke-linejoin:round">
        <g class="stroked-text">
            <path d="m.316 18.282.142.048M.458 18.33h.238M.696 18.33l.096-.048M.792 18.282l.047-.047M.84 18.235l.047-.096M.887 18.14v-.096M.887 18.044l-.048-.095M.84 17.949.791 17.9M.792 17.901l-.096-.047M.696 17.854l-.19-.048M.506 17.806l-.095-.048M.41 17.758l-.047-.047M.363 17.71l-.047-.095M.316 17.616v-.096M.316 17.52l.047-.095M.363 17.425l.048-.048M.41 17.377l.096-.047M.506 17.33h.238M.744 17.33l.143.047M1.22 17.33l.238 1M1.458 18.33l.19-.714M1.649 17.616l.19.714M1.84 18.33l.237-1M2.22 18.425h.762M3.22 18.33v-1M3.22 17.33l.334.714M3.554 18.044l.333-.714M3.887 17.33v1M4.268 17.33l.667 1M4.935 17.33l-.667 1M5.077 18.425h.762M6.649 18.235l-.048.047M6.601 18.282l-.143.048M6.458 18.33h-.095M6.363 18.33l-.143-.048M6.22 18.282l-.095-.095M6.125 18.187l-.048-.095M6.077 18.092l-.047-.19M6.03 17.901v-.143M6.03 17.758l.047-.19M6.077 17.568l.048-.095M6.125 17.473l.095-.096M6.22 17.377l.143-.047M6.363 17.33h.095M6.458 17.33l.143.047M6.601 17.377l.048.048M7.077 18.33v-1M7.506 18.33v-.524M7.506 17.806l-.048-.095M7.458 17.71l-.095-.047M7.363 17.663H7.22M7.22 17.663l-.095.048M7.125 17.71l-.048.048M8.125 18.33l-.095-.048M8.03 18.282l-.048-.047M7.982 18.235l-.048-.096M7.935 18.14v-.286M7.935 17.854l.047-.096M7.982 17.758l.048-.047M8.03 17.71l.095-.047M8.125 17.663h.143M8.268 17.663l.095.048M8.363 17.71l.048.048M8.41 17.758l.048.096M8.458 17.854v.285M8.458 18.14l-.047.095M8.41 18.235l-.047.047M8.363 18.282l-.095.048M8.268 18.33h-.143M9.316 18.282l-.096.048M9.22 18.33h-.19M9.03 18.33l-.095-.048M8.935 18.282l-.048-.047M8.887 18.235l-.048-.096M8.84 18.14v-.286M8.84 17.854l.047-.096M8.887 17.758l.047-.047M8.935 17.71l.095-.047M9.03 17.663h.19M9.22 17.663l.095.048M9.506 18.425h.762M10.506 18.33v-1M10.506 17.806h.571M11.077 18.33v-1M11.696 18.33l-.095-.048M11.601 18.282l-.047-.047M11.554 18.235l-.048-.096M11.506 18.14v-.286M11.506 17.854l.048-.096M11.554 17.758l.047-.047M11.601 17.71l.095-.047M11.696 17.663h.143M11.84 17.663l.095.048M11.935 17.71l.047.048M11.982 17.758l.048.096M12.03 17.854v.285M12.03 18.14l-.048.095M11.982 18.235l-.047.047M11.935 18.282l-.096.048M11.84 18.33h-.144M12.316 17.663h.38M12.458 17.33v.857M12.458 18.187l.048.095M12.506 18.282l.095.048M12.601 18.33h.095M12.982 18.282l.143.048M13.125 18.33h.238M13.363 18.33l.095-.048M13.458 18.282l.048-.047M13.506 18.235l.048-.096M13.554 18.14v-.096M13.554 18.044l-.048-.095M13.506 17.949l-.048-.048M13.458 17.901l-.095-.047M13.363 17.854l-.19-.048M13.173 17.806l-.096-.048M13.077 17.758l-.047-.047M13.03 17.71l-.048-.095M12.982 17.616v-.096M12.982 17.52l.048-.095M13.03 17.425l.047-.048M13.077 17.377l.096-.047M13.173 17.33h.238M13.41 17.33l.144.047M13.887 17.663l.19.667M14.077 18.33l.19-.476M14.268 17.854l.19.476M14.458 18.33l.19-.667M15.458 18.33v-.524M15.458 17.806l-.047-.095M15.41 17.71l-.095-.047M15.316 17.663h-.191M15.125 17.663l-.095.048M15.458 18.282l-.095.048M15.363 18.33h-.238M15.125 18.33l-.095-.048M15.03 18.282l-.048-.095M14.982 18.187v-.095M14.982 18.092l.048-.095M15.03 17.997l.095-.048M15.125 17.949h.238M15.363 17.949l.095-.048M15.935 17.663v1M15.935 17.71l.095-.047M16.03 17.663h.19M16.22 17.663l.096.048M16.316 17.71l.047.048M16.363 17.758l.048.096M16.41 17.854v.285M16.41 18.14l-.047.095M16.363 18.235l-.047.047M16.316 18.282l-.096.048M16.22 18.33h-.19M16.03 18.33l-.096-.048M16.601 18.425h.762M17.601 17.663v.667M17.601 17.758l.048-.047M17.649 17.71l.095-.047M17.744 17.663h.143M17.887 17.663l.095.048M17.982 17.71l.048.096M18.03 17.806v.524M18.458 18.282l.143.048M18.601 18.33h.238M18.84 18.33l.095-.048M18.935 18.282l.047-.047M18.982 18.235l.048-.096M19.03 18.14v-.096M19.03 18.044l-.048-.095M18.982 17.949l-.047-.048M18.935 17.901l-.096-.047M18.84 17.854l-.191-.048M18.649 17.806l-.095-.048M18.554 17.758l-.048-.047M18.506 17.71l-.048-.095M18.458 17.616v-.096M18.458 17.52l.048-.095M18.506 17.425l.048-.048M18.554 17.377l.095-.047M18.649 17.33h.238M18.887 17.33l.143.047M19.458 18.33v-.667M19.458 17.33l-.047.047M19.41 17.377l.048.048M19.458 17.425l.048-.048M19.506 17.377l-.048-.047M19.458 17.33v.095M20.077 18.33l-.095-.048M19.982 18.282l-.047-.095M19.935 18.187v-.857M20.458 18.33v-1M20.554 17.949l.285.38M20.84 17.663l-.382.381"/>
        </g>
        <g class="stroked-text">
            <path d="m9.244 19.93-.333-.476M8.673 19.93v-1M8.673 18.93h.38M9.054 18.93l.095.047M9.149 18.977l.047.048M9.196 19.025l.048.095M9.244 19.12v.143M9.244 19.263l-.048.095M9.196 19.358l-.047.048M9.149 19.406l-.095.048M9.054 19.454h-.381M9.673 19.406h.333M10.149 19.93h-.476M9.673 19.93v-1M9.673 18.93h.476M10.91 19.406h-.333M10.577 19.93v-1M10.577 18.93h.477M11.577 18.93v.238M11.34 19.073l.237.095M11.577 19.168l.239-.095M11.435 19.358l.142-.19M11.577 19.168l.143.19M12.34 18.93v.238M12.101 19.073l.238.095M12.34 19.168l.237-.095M12.196 19.358l.143-.19M12.34 19.168l.142.19"/>
        </g>
    </g>
    <g style="fill:none;stroke:#afafaf;stroke-width:.1;stroke-opacity:1;stroke-linecap:round;stroke-linejoin:round">
        <path d="M2.957 3.225v2.54M2.957 5.765h2.54M5.497 2.59v4.445M5.497 3.225h-2.54M5.497 7.035h5.08M6.002 14.255v2.54M6.002 16.795h2.275M8.277 14v3.05M8.277 14.255H6.002M8.277 17.05l.8.8M9.077 13.2l-.8.8M9.077 13.2h1.8M9.077 17.85h3.15M13.027 17.05l-.8.8M13.027 17.05v-.35M14.387 2.59h-8.89M16.927 8.305h2.54M16.927 8.94h-3.81M16.927 8.94V5.13M17.027 15.7h-3M17.827 11.05h-3.854M17.827 11.05v3.85M17.827 14.595h2.33M19.467 5.765h-2.54M19.467 8.305v-2.54M20.157 12.055h-2.33M20.157 14.595v-2.54M13.042 8.959a2.54 2.54 0 0 0-2.465-1.924M14.027 15.7a1 1 0 0 0-1 1M10.877 13.2a2.63 2.63 0 0 0 2.156-1.492M13.977 11.05a1 1 0 0 0-.94.658M16.927 5.13a2.54 2.54 0 0 0-2.54-2.54M17.027 15.7a.8.8 0 0 0 .8-.8"/>
    </g>
    <circle cx="5.497" cy="9.575" r=".85" style="fill:none;stroke:#afafaf;stroke-width:.0212;stroke-opacity:1;stroke-linecap:round;stroke-linejoin:round"/>
    <circle cx="8.037" cy="4.495" r="1.5" style="fill:none;stroke:#afafaf;stroke-width:.0212;stroke-opacity:1;stroke-linecap:round;stroke-linejoin:round"/>
    <circle cx="10.577" cy="9.575" r="2" style="fill:none;stroke:#afafaf;stroke-width:.0212;stroke-opacity:1;stroke-linecap:round;stroke-linejoin:round"/>
    <circle cx="10.577" cy="15.525" r="1.5" style="fill:none;stroke:#afafaf;stroke-width:.0212;stroke-opacity:1;stroke-linecap:round;stroke-linejoin:round"/>
    <circle cx="14.387" cy="7.035" r="1.5" style="fill:none;stroke:#afafaf;stroke-width:.0212;stroke-opacity:1;stroke-linecap:round;stroke-linejoin:round"/>
    <circle cx="15.577" cy="13.325" r="1.5" style="fill:none;stroke:#afafaf;stroke-width:.0212;stroke-opacity:1;stroke-linecap:round;stroke-linejoin:round"/>
    <circle cx="15.657" cy="9.575" r=".85" style="fill:none;stroke:#afafaf;stroke-width:.0212;stroke-opacity:1;stroke-linecap:round;stroke-linejoin:round"/>
    <g style="fill:none;stroke:#afafaf;stroke-width:.0708;stroke-opacity:1;stroke-linecap:round;stroke-linejoin:round">
        <g class="stroked-text">
            <path d="M18.38 7.425h-.485M18.137 7.425v-.85M18.137 6.575l-.08.121M18.056 6.696l-.08.08M17.976 6.777l-.081.04"/>
        </g>
        <path d="m16.862 6.035.02-.096.054-.08.08-.055.096-.019h2.05l.096.019.081.054.054.081.02.096v2l-.02.096-.054.08-.08.055-.097.019h-2.05l-.095-.019-.081-.054-.055-.081-.019-.096Z" style="stroke:#afafaf;stroke-width:.0212;stroke-opacity:1;stroke-linecap:round;stroke-linejoin:round;fill:none"/>
    </g>
    <g style="fill:none;stroke:#afafaf;stroke-width:.0708;stroke-opacity:1;stroke-linecap:round;stroke-linejoin:round">
        <g class="stroked-text">
            <path d="M19.07 13.715h-.486M18.827 13.715v-.85M18.827 12.865l-.08.121M18.746 12.986l-.08.08M18.666 13.067l-.082.04"/>
        </g>
        <path d="m17.552 12.325.02-.096.054-.08.08-.055.096-.019h2.05l.096.019.081.054.054.081.02.096v2l-.02.096-.054.08-.08.055-.097.019h-2.05l-.095-.019-.081-.054-.055-.081-.019-.096Z" style="stroke:#afafaf;stroke-width:.0212;stroke-opacity:1;stroke-linecap:round;stroke-linejoin:round;fill:none"/>
    </g>
    <g style="fill:none;stroke:#afafaf;stroke-width:.0708;stroke-opacity:1;stroke-linecap:round;stroke-linejoin:round">
        <g class="stroked-text">
            <path d="m4.045 4.116.04-.041M4.085 4.075l.081-.04M4.166 4.035h.202M4.368 4.035l.081.04M4.45 4.075l.04.04M4.49 4.116l.04.08M4.53 4.196v.081M4.53 4.277l-.04.122M4.49 4.399l-.486.486M4.004 4.885h.526"/>
        </g>
        <path d="m3.012 3.495.02-.096.054-.08.08-.055.096-.019h2.05l.096.019.081.054.054.081.02.096v2l-.02.096-.054.08-.08.055-.097.019h-2.05l-.095-.019-.081-.054-.055-.081-.019-.096Z" style="stroke:#afafaf;stroke-width:.0212;stroke-opacity:1;stroke-linecap:round;stroke-linejoin:round;fill:none"/>
    </g>
    <g style="fill:none;stroke:#afafaf;stroke-width:.0708;stroke-opacity:1;stroke-linecap:round;stroke-linejoin:round">
        <g class="stroked-text">
            <path d="m7.09 15.146.04-.041M7.13 15.105l.081-.04M7.211 15.065h.202M7.413 15.065l.081.04M7.494 15.105l.04.04M7.535 15.146l.04.08M7.575 15.226v.081M7.575 15.307l-.04.122M7.535 15.429l-.486.486M7.049 15.915h.526"/>
        </g>
        <path d="m6.057 14.525.02-.096.054-.08.08-.055.096-.019h2.05l.096.019.081.054.054.081.02.096v2l-.02.096-.054.08-.08.055-.097.019h-2.05l-.095-.019-.081-.054-.055-.081-.019-.096Z" style="stroke:#afafaf;stroke-width:.0212;stroke-opacity:1;stroke-linecap:round;stroke-linejoin:round;fill:none"/>
        <path d="M1.052.05h19.05V19.1H1.052Z" style="stroke:#c2c2c2;stroke-width:.1;stroke-opacity:1;stroke-linecap:round;stroke-linejoin:round;fill:none"/>
    </g>
</svg>
