<?xml version="1.0" standalone="no"?>
 <!DOCTYPE svg PUBLIC "-//W3C//DTD SVG 1.1//EN" 
 "http://www.w3.org/Graphics/SVG/1.1/DTD/svg11.dtd"> 
<svg
  xmlns:svg="http://www.w3.org/2000/svg"
  xmlns="http://www.w3.org/2000/svg"
  xmlns:xlink="http://www.w3.org/1999/xlink"
  version="1.1"
  width="21.3868mm" height="20.3200mm" viewBox="0.0000 0.0000 21.3868 20.3200">
<title>SVG Image created as SW_MX_HotSwap_THT_sqSlim.svg date 2025/05/12 22:52:35 </title>
  <desc>Image generated by PCBNEW </desc>
<g style="fill:#000000; fill-opacity:1.0000;stroke:#000000; stroke-opacity:1.0000;
stroke-linecap:round; stroke-linejoin:round;"
 transform="translate(0 0) scale(1 1)">
</g>
<g style="fill:none; 
stroke:#E8B2A7; stroke-width:0.1500; stroke-opacity:1; 
stroke-linecap:round; stroke-linejoin:round;">
<text x="8.9184" y="4.9950"
transform="scale(-1 1) translate(-17.836858 0)"
textLength="4.5357" font-size="1.3333" lengthAdjust="spacingAndGlyphs"
text-anchor="middle" opacity="0" stroke-opacity="0">REF**</text>
<g class="stroked-text"><desc>REF**</desc>
<path d="M10.2518 4.9498
L10.5851 4.4736
" />
<path d="M10.8232 4.9498
L10.8232 3.9498
" />
<path d="M10.8232 3.9498
L10.4422 3.9498
" />
<path d="M10.4422 3.9498
L10.3470 3.9974
" />
<path d="M10.3470 3.9974
L10.2994 4.0451
" />
<path d="M10.2994 4.0451
L10.2518 4.1403
" />
<path d="M10.2518 4.1403
L10.2518 4.2832
" />
<path d="M10.2518 4.2832
L10.2994 4.3784
" />
<path d="M10.2994 4.3784
L10.3470 4.4260
" />
<path d="M10.3470 4.4260
L10.4422 4.4736
" />
<path d="M10.4422 4.4736
L10.8232 4.4736
" />
<path d="M9.8232 4.4260
L9.4899 4.4260
" />
<path d="M9.3470 4.9498
L9.8232 4.9498
" />
<path d="M9.8232 4.9498
L9.8232 3.9498
" />
<path d="M9.8232 3.9498
L9.3470 3.9498
" />
<path d="M8.5851 4.4260
L8.9184 4.4260
" />
<path d="M8.9184 4.9498
L8.9184 3.9498
" />
<path d="M8.9184 3.9498
L8.4422 3.9498
" />
<path d="M7.9184 3.9498
L7.9184 4.1879
" />
<path d="M8.1565 4.0927
L7.9184 4.1879
" />
<path d="M7.9184 4.1879
L7.6803 4.0927
" />
<path d="M8.0613 4.3784
L7.9184 4.1879
" />
<path d="M7.9184 4.1879
L7.7756 4.3784
" />
<path d="M7.1565 3.9498
L7.1565 4.1879
" />
<path d="M7.3946 4.0927
L7.1565 4.1879
" />
<path d="M7.1565 4.1879
L6.9184 4.0927
" />
<path d="M7.2994 4.3784
L7.1565 4.1879
" />
<path d="M7.1565 4.1879
L7.0137 4.3784
" />
</g></g>
<g style="fill:none; 
stroke:#E8B2A7; stroke-width:0.1200; stroke-opacity:1; 
stroke-linecap:round; stroke-linejoin:round;">
<path d="M4.3464 5.1300
L4.3464 5.4850
" />
<path d="M4.3464 8.5850
L4.3464 8.9400
" />
<path d="M4.6964 8.9400
L4.3464 8.9400
" />
<path d="M6.8864 2.5900
L15.7764 2.5900
" />
<path d="M8.2323 8.9400
L6.5054 8.9400
" />
<path d="M15.7764 2.5900
L15.7764 2.9450
" />
<path d="M15.7764 7.0350
L10.6964 7.0350
" />
<path d="M15.7764 7.0350
L15.7764 6.0450
" />
<path d="M6.8864 2.5900 A2.5400 2.5400 0.0 0 0 4.3464 5.1300" />
<path d="M10.6964 7.0350 A2.5400 2.5400 0.0 0 0 8.2368 8.9412" />
</g>
<g style="fill:none; 
stroke:#F2EDA1; stroke-width:0.1200; stroke-opacity:1; 
stroke-linecap:round; stroke-linejoin:round;">
<path d="M3.5964 16.2750
L3.5964 2.8750
" />
<path d="M3.9964 2.4750
L17.3964 2.4750
" />
<path d="M17.3964 16.6750
L3.9964 16.6750
" />
<path d="M17.7964 2.8750
L17.7964 16.2750
" />
<path d="M3.9964 2.4750 A0.4000 0.4000 0.0 0 0 3.5964 2.8750" />
<path d="M3.5964 16.2750 A0.4000 0.4000 0.0 0 0 3.9964 16.6750" />
<path d="M17.7964 2.8750 A0.4000 0.4000 0.0 0 0 17.3964 2.4750" />
<path d="M17.3964 16.6750 A0.4000 0.4000 0.0 0 0 17.7964 16.2750" />
<path style="fill:#00C2C2; fill-opacity:0.9000; stroke:none;fill-rule:evenodd;"
d="M 4.4082,8.0350
4.3892,8.1307
4.3350,8.2118
4.2539,8.2660
4.1582,8.2850
2.8582,8.2850
2.7626,8.2660
2.6815,8.2118
2.6273,8.1307
2.6082,8.0350
2.6082,6.0350
2.6273,5.9393
2.6815,5.8582
2.7626,5.8040
2.8582,5.7850
4.1582,5.7850
4.2539,5.8040
4.3350,5.8582
4.3892,5.9393
4.4082,6.0350
Z" /> 
<path style="fill:#00C2C2; fill-opacity:0.9000; stroke:none;fill-rule:evenodd;"
d="M 17.5146,5.4950
17.4956,5.5907
17.4414,5.6718
17.3603,5.7260
17.2646,5.7450
15.9646,5.7450
15.8690,5.7260
15.7879,5.6718
15.7337,5.5907
15.7146,5.4950
15.7146,3.4950
15.7337,3.3993
15.7879,3.3182
15.8690,3.2640
15.9646,3.2450
17.2646,3.2450
17.3603,3.2640
17.4414,3.3182
17.4956,3.3993
17.5146,3.4950
Z" /> 
<path style="fill:#4D7FC4; fill-opacity:1.0000; stroke:none;fill-rule:evenodd;"
d="M 4.4082,8.0350
4.3892,8.1307
4.3350,8.2118
4.2539,8.2660
4.1582,8.2850
2.8582,8.2850
2.7626,8.2660
2.6815,8.2118
2.6273,8.1307
2.6082,8.0350
2.6082,6.0350
2.6273,5.9393
2.6815,5.8582
2.7626,5.8040
2.8582,5.7850
4.1582,5.7850
4.2539,5.8040
4.3350,5.8582
4.3892,5.9393
4.4082,6.0350
Z" /> 
</g>
<g style="fill:#4D7FC4; fill-opacity:1.0000; stroke:none;">
<circle cx="8.1564" cy="14.6550" r="1.1500" /> 
</g>
<g style="fill:#4D7FC4; fill-opacity:1.0000; stroke:none;">
<circle cx="14.5064" cy="12.1150" r="1.1500" /> 
<path style="fill:#4D7FC4; fill-opacity:1.0000; stroke:none;fill-rule:evenodd;"
d="M 17.5146,5.4950
17.4956,5.5907
17.4414,5.6718
17.3603,5.7260
17.2646,5.7450
15.9646,5.7450
15.8690,5.7260
15.7879,5.6718
15.7337,5.5907
15.7146,5.4950
15.7146,3.4950
15.7337,3.3993
15.7879,3.3182
15.8690,3.2640
15.9646,3.2450
17.2646,3.2450
17.3603,3.2640
17.4414,3.3182
17.4956,3.3993
17.5146,3.4950
Z" /> 
</g>
<g style="fill:#C83434; fill-opacity:1.0000; stroke:none;">
<circle cx="8.1564" cy="14.6550" r="1.1500" /> 
</g>
<g style="fill:#C83434; fill-opacity:1.0000; stroke:none;">
<circle cx="14.5064" cy="12.1150" r="1.1500" /> 
</g>
<g style="fill:none; 
stroke:#585D84; stroke-width:0.1500; stroke-opacity:1; 
stroke-linecap:round; stroke-linejoin:round;">
<text x="10.6964" y="18.3750"
transform="scale(-1 1) translate(-21.392858 0)"
textLength="21.3929" font-size="1.3333" lengthAdjust="spacingAndGlyphs"
text-anchor="middle" opacity="0" stroke-opacity="0">SW_MX_HotSwap_THT_sqSlim</text>
<g class="stroked-text"><desc>SW_MX_HotSwap_THT_sqSlim</desc>
<path d="M21.0774 18.2822
L20.9345 18.3298
" />
<path d="M20.9345 18.3298
L20.6964 18.3298
" />
<path d="M20.6964 18.3298
L20.6012 18.2822
" />
<path d="M20.6012 18.2822
L20.5536 18.2346
" />
<path d="M20.5536 18.2346
L20.5060 18.1393
" />
<path d="M20.5060 18.1393
L20.5060 18.0441
" />
<path d="M20.5060 18.0441
L20.5536 17.9489
" />
<path d="M20.5536 17.9489
L20.6012 17.9012
" />
<path d="M20.6012 17.9012
L20.6964 17.8536
" />
<path d="M20.6964 17.8536
L20.8869 17.8060
" />
<path d="M20.8869 17.8060
L20.9821 17.7584
" />
<path d="M20.9821 17.7584
L21.0298 17.7108
" />
<path d="M21.0298 17.7108
L21.0774 17.6155
" />
<path d="M21.0774 17.6155
L21.0774 17.5203
" />
<path d="M21.0774 17.5203
L21.0298 17.4251
" />
<path d="M21.0298 17.4251
L20.9821 17.3774
" />
<path d="M20.9821 17.3774
L20.8869 17.3298
" />
<path d="M20.8869 17.3298
L20.6488 17.3298
" />
<path d="M20.6488 17.3298
L20.5060 17.3774
" />
<path d="M20.1726 17.3298
L19.9345 18.3298
" />
<path d="M19.9345 18.3298
L19.7440 17.6155
" />
<path d="M19.7440 17.6155
L19.5536 18.3298
" />
<path d="M19.5536 18.3298
L19.3155 17.3298
" />
<path d="M19.1726 18.4251
L18.4107 18.4251
" />
<path d="M18.1726 18.3298
L18.1726 17.3298
" />
<path d="M18.1726 17.3298
L17.8393 18.0441
" />
<path d="M17.8393 18.0441
L17.5060 17.3298
" />
<path d="M17.5060 17.3298
L17.5060 18.3298
" />
<path d="M17.1250 17.3298
L16.4583 18.3298
" />
<path d="M16.4583 17.3298
L17.1250 18.3298
" />
<path d="M16.3155 18.4251
L15.5536 18.4251
" />
<path d="M15.3155 18.3298
L15.3155 17.3298
" />
<path d="M15.3155 17.8060
L14.7440 17.8060
" />
<path d="M14.7440 18.3298
L14.7440 17.3298
" />
<path d="M14.1250 18.3298
L14.2202 18.2822
" />
<path d="M14.2202 18.2822
L14.2679 18.2346
" />
<path d="M14.2679 18.2346
L14.3155 18.1393
" />
<path d="M14.3155 18.1393
L14.3155 17.8536
" />
<path d="M14.3155 17.8536
L14.2679 17.7584
" />
<path d="M14.2679 17.7584
L14.2202 17.7108
" />
<path d="M14.2202 17.7108
L14.1250 17.6632
" />
<path d="M14.1250 17.6632
L13.9821 17.6632
" />
<path d="M13.9821 17.6632
L13.8869 17.7108
" />
<path d="M13.8869 17.7108
L13.8393 17.7584
" />
<path d="M13.8393 17.7584
L13.7917 17.8536
" />
<path d="M13.7917 17.8536
L13.7917 18.1393
" />
<path d="M13.7917 18.1393
L13.8393 18.2346
" />
<path d="M13.8393 18.2346
L13.8869 18.2822
" />
<path d="M13.8869 18.2822
L13.9821 18.3298
" />
<path d="M13.9821 18.3298
L14.1250 18.3298
" />
<path d="M13.5060 17.6632
L13.1250 17.6632
" />
<path d="M13.3631 17.3298
L13.3631 18.1870
" />
<path d="M13.3631 18.1870
L13.3155 18.2822
" />
<path d="M13.3155 18.2822
L13.2202 18.3298
" />
<path d="M13.2202 18.3298
L13.1250 18.3298
" />
<path d="M12.8393 18.2822
L12.6964 18.3298
" />
<path d="M12.6964 18.3298
L12.4583 18.3298
" />
<path d="M12.4583 18.3298
L12.3631 18.2822
" />
<path d="M12.3631 18.2822
L12.3155 18.2346
" />
<path d="M12.3155 18.2346
L12.2679 18.1393
" />
<path d="M12.2679 18.1393
L12.2679 18.0441
" />
<path d="M12.2679 18.0441
L12.3155 17.9489
" />
<path d="M12.3155 17.9489
L12.3631 17.9012
" />
<path d="M12.3631 17.9012
L12.4583 17.8536
" />
<path d="M12.4583 17.8536
L12.6488 17.8060
" />
<path d="M12.6488 17.8060
L12.7440 17.7584
" />
<path d="M12.7440 17.7584
L12.7917 17.7108
" />
<path d="M12.7917 17.7108
L12.8393 17.6155
" />
<path d="M12.8393 17.6155
L12.8393 17.5203
" />
<path d="M12.8393 17.5203
L12.7917 17.4251
" />
<path d="M12.7917 17.4251
L12.7440 17.3774
" />
<path d="M12.7440 17.3774
L12.6488 17.3298
" />
<path d="M12.6488 17.3298
L12.4107 17.3298
" />
<path d="M12.4107 17.3298
L12.2679 17.3774
" />
<path d="M11.9345 17.6632
L11.7440 18.3298
" />
<path d="M11.7440 18.3298
L11.5536 17.8536
" />
<path d="M11.5536 17.8536
L11.3631 18.3298
" />
<path d="M11.3631 18.3298
L11.1726 17.6632
" />
<path d="M10.3631 18.3298
L10.3631 17.8060
" />
<path d="M10.3631 17.8060
L10.4107 17.7108
" />
<path d="M10.4107 17.7108
L10.5060 17.6632
" />
<path d="M10.5060 17.6632
L10.6964 17.6632
" />
<path d="M10.6964 17.6632
L10.7917 17.7108
" />
<path d="M10.3631 18.2822
L10.4583 18.3298
" />
<path d="M10.4583 18.3298
L10.6964 18.3298
" />
<path d="M10.6964 18.3298
L10.7917 18.2822
" />
<path d="M10.7917 18.2822
L10.8393 18.1870
" />
<path d="M10.8393 18.1870
L10.8393 18.0917
" />
<path d="M10.8393 18.0917
L10.7917 17.9965
" />
<path d="M10.7917 17.9965
L10.6964 17.9489
" />
<path d="M10.6964 17.9489
L10.4583 17.9489
" />
<path d="M10.4583 17.9489
L10.3631 17.9012
" />
<path d="M9.8869 17.6632
L9.8869 18.6632
" />
<path d="M9.8869 17.7108
L9.7917 17.6632
" />
<path d="M9.7917 17.6632
L9.6012 17.6632
" />
<path d="M9.6012 17.6632
L9.5060 17.7108
" />
<path d="M9.5060 17.7108
L9.4583 17.7584
" />
<path d="M9.4583 17.7584
L9.4107 17.8536
" />
<path d="M9.4107 17.8536
L9.4107 18.1393
" />
<path d="M9.4107 18.1393
L9.4583 18.2346
" />
<path d="M9.4583 18.2346
L9.5060 18.2822
" />
<path d="M9.5060 18.2822
L9.6012 18.3298
" />
<path d="M9.6012 18.3298
L9.7917 18.3298
" />
<path d="M9.7917 18.3298
L9.8869 18.2822
" />
<path d="M9.2202 18.4251
L8.4583 18.4251
" />
<path d="M8.3631 17.3298
L7.7917 17.3298
" />
<path d="M8.0774 18.3298
L8.0774 17.3298
" />
<path d="M7.4583 18.3298
L7.4583 17.3298
" />
<path d="M7.4583 17.8060
L6.8869 17.8060
" />
<path d="M6.8869 18.3298
L6.8869 17.3298
" />
<path d="M6.5536 17.3298
L5.9821 17.3298
" />
<path d="M6.2679 18.3298
L6.2679 17.3298
" />
<path d="M5.8869 18.4251
L5.1250 18.4251
" />
<path d="M4.9345 18.2822
L4.8393 18.3298
" />
<path d="M4.8393 18.3298
L4.6488 18.3298
" />
<path d="M4.6488 18.3298
L4.5536 18.2822
" />
<path d="M4.5536 18.2822
L4.5060 18.1870
" />
<path d="M4.5060 18.1870
L4.5060 18.1393
" />
<path d="M4.5060 18.1393
L4.5536 18.0441
" />
<path d="M4.5536 18.0441
L4.6488 17.9965
" />
<path d="M4.6488 17.9965
L4.7917 17.9965
" />
<path d="M4.7917 17.9965
L4.8869 17.9489
" />
<path d="M4.8869 17.9489
L4.9345 17.8536
" />
<path d="M4.9345 17.8536
L4.9345 17.8060
" />
<path d="M4.9345 17.8060
L4.8869 17.7108
" />
<path d="M4.8869 17.7108
L4.7917 17.6632
" />
<path d="M4.7917 17.6632
L4.6488 17.6632
" />
<path d="M4.6488 17.6632
L4.5536 17.7108
" />
<path d="M3.6488 17.6632
L3.6488 18.6632
" />
<path d="M3.6488 18.2822
L3.7440 18.3298
" />
<path d="M3.7440 18.3298
L3.9345 18.3298
" />
<path d="M3.9345 18.3298
L4.0298 18.2822
" />
<path d="M4.0298 18.2822
L4.0774 18.2346
" />
<path d="M4.0774 18.2346
L4.1250 18.1393
" />
<path d="M4.1250 18.1393
L4.1250 17.8536
" />
<path d="M4.1250 17.8536
L4.0774 17.7584
" />
<path d="M4.0774 17.7584
L4.0298 17.7108
" />
<path d="M4.0298 17.7108
L3.9345 17.6632
" />
<path d="M3.9345 17.6632
L3.7440 17.6632
" />
<path d="M3.7440 17.6632
L3.6488 17.7108
" />
<path d="M3.2202 18.2822
L3.0774 18.3298
" />
<path d="M3.0774 18.3298
L2.8393 18.3298
" />
<path d="M2.8393 18.3298
L2.7440 18.2822
" />
<path d="M2.7440 18.2822
L2.6964 18.2346
" />
<path d="M2.6964 18.2346
L2.6488 18.1393
" />
<path d="M2.6488 18.1393
L2.6488 18.0441
" />
<path d="M2.6488 18.0441
L2.6964 17.9489
" />
<path d="M2.6964 17.9489
L2.7440 17.9012
" />
<path d="M2.7440 17.9012
L2.8393 17.8536
" />
<path d="M2.8393 17.8536
L3.0298 17.8060
" />
<path d="M3.0298 17.8060
L3.1250 17.7584
" />
<path d="M3.1250 17.7584
L3.1726 17.7108
" />
<path d="M3.1726 17.7108
L3.2202 17.6155
" />
<path d="M3.2202 17.6155
L3.2202 17.5203
" />
<path d="M3.2202 17.5203
L3.1726 17.4251
" />
<path d="M3.1726 17.4251
L3.1250 17.3774
" />
<path d="M3.1250 17.3774
L3.0298 17.3298
" />
<path d="M3.0298 17.3298
L2.7917 17.3298
" />
<path d="M2.7917 17.3298
L2.6488 17.3774
" />
<path d="M2.0774 18.3298
L2.1726 18.2822
" />
<path d="M2.1726 18.2822
L2.2202 18.1870
" />
<path d="M2.2202 18.1870
L2.2202 17.3298
" />
<path d="M1.6964 18.3298
L1.6964 17.6632
" />
<path d="M1.6964 17.3298
L1.7440 17.3774
" />
<path d="M1.7440 17.3774
L1.6964 17.4251
" />
<path d="M1.6964 17.4251
L1.6488 17.3774
" />
<path d="M1.6488 17.3774
L1.6964 17.3298
" />
<path d="M1.6964 17.3298
L1.6964 17.4251
" />
<path d="M1.2202 18.3298
L1.2202 17.6632
" />
<path d="M1.2202 17.7584
L1.1726 17.7108
" />
<path d="M1.1726 17.7108
L1.0774 17.6632
" />
<path d="M1.0774 17.6632
L0.9345 17.6632
" />
<path d="M0.9345 17.6632
L0.8393 17.7108
" />
<path d="M0.8393 17.7108
L0.7917 17.8060
" />
<path d="M0.7917 17.8060
L0.7917 18.3298
" />
<path d="M0.7917 17.8060
L0.7440 17.7108
" />
<path d="M0.7440 17.7108
L0.6488 17.6632
" />
<path d="M0.6488 17.6632
L0.5060 17.6632
" />
<path d="M0.5060 17.6632
L0.4107 17.7108
" />
<path d="M0.4107 17.7108
L0.3631 17.8060
" />
<path d="M0.3631 17.8060
L0.3631 18.3298
" />
</g><text x="10.6964" y="19.9750"
transform="scale(-1 1) translate(-21.392858 0)"
textLength="4.5357" font-size="1.3333" lengthAdjust="spacingAndGlyphs"
text-anchor="middle" opacity="0" stroke-opacity="0">REF**</text>
<g class="stroked-text"><desc>REF**</desc>
<path d="M12.0298 19.9298
L12.3631 19.4536
" />
<path d="M12.6012 19.9298
L12.6012 18.9298
" />
<path d="M12.6012 18.9298
L12.2202 18.9298
" />
<path d="M12.2202 18.9298
L12.1250 18.9774
" />
<path d="M12.1250 18.9774
L12.0774 19.0251
" />
<path d="M12.0774 19.0251
L12.0298 19.1203
" />
<path d="M12.0298 19.1203
L12.0298 19.2632
" />
<path d="M12.0298 19.2632
L12.0774 19.3584
" />
<path d="M12.0774 19.3584
L12.1250 19.4060
" />
<path d="M12.1250 19.4060
L12.2202 19.4536
" />
<path d="M12.2202 19.4536
L12.6012 19.4536
" />
<path d="M11.6012 19.4060
L11.2679 19.4060
" />
<path d="M11.1250 19.9298
L11.6012 19.9298
" />
<path d="M11.6012 19.9298
L11.6012 18.9298
" />
<path d="M11.6012 18.9298
L11.1250 18.9298
" />
<path d="M10.3631 19.4060
L10.6964 19.4060
" />
<path d="M10.6964 19.9298
L10.6964 18.9298
" />
<path d="M10.6964 18.9298
L10.2202 18.9298
" />
<path d="M9.6964 18.9298
L9.6964 19.1679
" />
<path d="M9.9345 19.0727
L9.6964 19.1679
" />
<path d="M9.6964 19.1679
L9.4583 19.0727
" />
<path d="M9.8393 19.3584
L9.6964 19.1679
" />
<path d="M9.6964 19.1679
L9.5536 19.3584
" />
<path d="M8.9345 18.9298
L8.9345 19.1679
" />
<path d="M9.1726 19.0727
L8.9345 19.1679
" />
<path d="M8.9345 19.1679
L8.6964 19.0727
" />
<path d="M9.0774 19.3584
L8.9345 19.1679
" />
<path d="M8.9345 19.1679
L8.7917 19.3584
" />
</g></g>
<g style="fill:none; 
stroke:#585D84; stroke-width:0.1000; stroke-opacity:1; 
stroke-linecap:round; stroke-linejoin:round;">
<path d="M2.5938 5.7650
L4.3464 5.7650
" />
<path d="M2.5938 8.3050
L2.5938 5.7650
" />
<path d="M4.3464 8.3050
L2.5938 8.3050
" />
<path d="M4.3464 8.9400
L4.3464 5.1300
" />
<path d="M4.3464 8.9400
L8.1564 8.9400
" />
<path d="M6.8864 2.5900
L15.7764 2.5900
" />
<path d="M15.7764 2.5900
L15.7764 7.0350
" />
<path d="M15.7764 3.2250
L17.5544 3.2250
" />
<path d="M15.7764 7.0350
L10.6964 7.0350
" />
<path d="M17.5544 3.2250
L17.5544 5.7650
" />
<path d="M17.5544 5.7650
L15.7764 5.7650
" />
<path d="M6.8864 2.5900 A2.5400 2.5400 0.0 0 0 4.3464 5.1300" />
<path d="M10.6964 7.0350 A2.5400 2.5400 0.0 0 0 8.2323 8.9590" />
</g>
<g style="fill:none; 
stroke:#585D84; stroke-width:0.0212; stroke-opacity:1; 
stroke-linecap:round; stroke-linejoin:round;">
<circle cx="5.6164" cy="9.5750" r="0.8500" /> 
</g>
<g style="fill:none; 
stroke:#585D84; stroke-width:0.0212; stroke-opacity:1; 
stroke-linecap:round; stroke-linejoin:round;">
<circle cx="6.8864" cy="7.0350" r="1.5000" /> 
</g>
<g style="fill:none; 
stroke:#585D84; stroke-width:0.0212; stroke-opacity:1; 
stroke-linecap:round; stroke-linejoin:round;">
<circle cx="10.6964" cy="9.5750" r="2.0000" /> 
</g>
<g style="fill:none; 
stroke:#585D84; stroke-width:0.0212; stroke-opacity:1; 
stroke-linecap:round; stroke-linejoin:round;">
<circle cx="10.6964" cy="9.5750" r="2.0000" /> 
</g>
<g style="fill:none; 
stroke:#585D84; stroke-width:0.0212; stroke-opacity:1; 
stroke-linecap:round; stroke-linejoin:round;">
<circle cx="10.6964" cy="9.5750" r="2.0000" /> 
</g>
<g style="fill:none; 
stroke:#585D84; stroke-width:0.0212; stroke-opacity:1; 
stroke-linecap:round; stroke-linejoin:round;">
<circle cx="13.2364" cy="4.4950" r="1.5000" /> 
</g>
<g style="fill:none; 
stroke:#585D84; stroke-width:0.0212; stroke-opacity:1; 
stroke-linecap:round; stroke-linejoin:round;">
<circle cx="15.7764" cy="9.5750" r="0.8500" /> 
</g>
<g style="fill:none; 
stroke:#585D84; stroke-width:0.0694; stroke-opacity:1; 
stroke-linecap:round; stroke-linejoin:round;">
<g transform="rotate(-90.000000 3.5082 7.0350)">
<text x="3.5082" y="7.4517"
textLength="0.8353" font-size="1.1111" lengthAdjust="spacingAndGlyphs"
text-anchor="middle" opacity="0" stroke-opacity="0">1</text>
</g>
<g class="stroked-text"><desc>1</desc>
<path d="M3.8901 6.7969
L3.8901 7.2731
" />
<path d="M3.8901 7.0350
L3.0568 7.0350
" />
<path d="M3.0568 7.0350
L3.1758 7.1144
" />
<path d="M3.1758 7.1144
L3.2552 7.1937
" />
<path d="M3.2552 7.1937
L3.2949 7.2731
" />
</g><path style="fill:none; 
stroke:#585D84; stroke-width:0.0212; stroke-opacity:1; 
stroke-linecap:round; stroke-linejoin:round;fill:none"
d="M 4.4082,8.0350
4.3892,8.1307
4.3350,8.2118
4.2539,8.2660
4.1582,8.2850
2.8582,8.2850
2.7626,8.2660
2.6815,8.2118
2.6273,8.1307
2.6082,8.0350
2.6082,6.0350
2.6273,5.9393
2.6815,5.8582
2.7626,5.8040
2.8582,5.7850
4.1582,5.7850
4.2539,5.8040
4.3350,5.8582
4.3892,5.9393
4.4082,6.0350
Z" /> 
</g>
<g style="fill:none; 
stroke:#585D84; stroke-width:0.0639; stroke-opacity:1; 
stroke-linecap:round; stroke-linejoin:round;">
<text x="8.1564" y="15.0383"
textLength="0.7685" font-size="1.0222" lengthAdjust="spacingAndGlyphs"
text-anchor="middle" opacity="0" stroke-opacity="0">1</text>
<g class="stroked-text"><desc>1</desc>
<path d="M8.3755 15.0063
L7.9374 15.0063
" />
<path d="M8.1564 15.0063
L8.1564 14.2397
" />
<path d="M8.1564 14.2397
L8.0834 14.3492
" />
<path d="M8.0834 14.3492
L8.0104 14.4222
" />
<path d="M8.0104 14.4222
L7.9374 14.4587
" />
</g></g>
<g style="fill:none; 
stroke:#585D84; stroke-width:0.0212; stroke-opacity:1; 
stroke-linecap:round; stroke-linejoin:round;">
<circle cx="8.1564" cy="14.6550" r="1.1500" /> 
</g>
<g style="fill:none; 
stroke:#585D84; stroke-width:0.0639; stroke-opacity:1; 
stroke-linecap:round; stroke-linejoin:round;">
<text x="14.5064" y="12.4983"
textLength="0.7685" font-size="1.0222" lengthAdjust="spacingAndGlyphs"
text-anchor="middle" opacity="0" stroke-opacity="0">2</text>
<g class="stroked-text"><desc>2</desc>
<path d="M14.2874 11.7727
L14.3239 11.7362
" />
<path d="M14.3239 11.7362
L14.3969 11.6997
" />
<path d="M14.3969 11.6997
L14.5794 11.6997
" />
<path d="M14.5794 11.6997
L14.6525 11.7362
" />
<path d="M14.6525 11.7362
L14.6890 11.7727
" />
<path d="M14.6890 11.7727
L14.7255 11.8457
" />
<path d="M14.7255 11.8457
L14.7255 11.9187
" />
<path d="M14.7255 11.9187
L14.6890 12.0283
" />
<path d="M14.6890 12.0283
L14.2509 12.4664
" />
<path d="M14.2509 12.4664
L14.7255 12.4664
" />
</g></g>
<g style="fill:none; 
stroke:#585D84; stroke-width:0.0212; stroke-opacity:1; 
stroke-linecap:round; stroke-linejoin:round;">
<circle cx="14.5064" cy="12.1150" r="1.1500" /> 
</g>
<g style="fill:none; 
stroke:#585D84; stroke-width:0.0694; stroke-opacity:1; 
stroke-linecap:round; stroke-linejoin:round;">
<g transform="rotate(-90.000000 16.6146 4.4950)">
<text x="16.6146" y="4.9117"
textLength="0.8353" font-size="1.1111" lengthAdjust="spacingAndGlyphs"
text-anchor="middle" opacity="0" stroke-opacity="0">2</text>
</g>
<g class="stroked-text"><desc>2</desc>
<path d="M16.2426 4.7331
L16.2029 4.6934
" />
<path d="M16.2029 4.6934
L16.1632 4.6140
" />
<path d="M16.1632 4.6140
L16.1632 4.4156
" />
<path d="M16.1632 4.4156
L16.2029 4.3363
" />
<path d="M16.2029 4.3363
L16.2426 4.2966
" />
<path d="M16.2426 4.2966
L16.3219 4.2569
" />
<path d="M16.3219 4.2569
L16.4013 4.2569
" />
<path d="M16.4013 4.2569
L16.5203 4.2966
" />
<path d="M16.5203 4.2966
L16.9965 4.7728
" />
<path d="M16.9965 4.7728
L16.9965 4.2569
" />
</g><path style="fill:none; 
stroke:#585D84; stroke-width:0.0212; stroke-opacity:1; 
stroke-linecap:round; stroke-linejoin:round;fill:none"
d="M 17.5146,5.4950
17.4956,5.5907
17.4414,5.6718
17.3603,5.7260
17.2646,5.7450
15.9646,5.7450
15.8690,5.7260
15.7879,5.6718
15.7337,5.5907
15.7146,5.4950
15.7146,3.4950
15.7337,3.3993
15.7879,3.3182
15.8690,3.2640
15.9646,3.2450
17.2646,3.2450
17.3603,3.2640
17.4414,3.3182
17.4956,3.3993
17.5146,3.4950
Z" /> 
<path style="fill:none; 
stroke:#AFAFAF; stroke-width:0.1000; stroke-opacity:1; 
stroke-linecap:round; stroke-linejoin:round;fill:none"
d="M 3.6964,2.5750
17.6964,2.5750
17.6964,16.5750
3.6964,16.5750
Z" /> 
</g>
<g style="fill:none; 
stroke:#AFAFAF; stroke-width:0.0212; stroke-opacity:1; 
stroke-linecap:round; stroke-linejoin:round;">
<circle cx="5.6164" cy="9.5750" r="0.8500" /> 
</g>
<g style="fill:none; 
stroke:#AFAFAF; stroke-width:0.0212; stroke-opacity:1; 
stroke-linecap:round; stroke-linejoin:round;">
<circle cx="6.8864" cy="7.0350" r="1.5000" /> 
</g>
<g style="fill:none; 
stroke:#AFAFAF; stroke-width:0.0212; stroke-opacity:1; 
stroke-linecap:round; stroke-linejoin:round;">
<circle cx="10.6964" cy="9.5750" r="2.0000" /> 
</g>
<g style="fill:none; 
stroke:#AFAFAF; stroke-width:0.0212; stroke-opacity:1; 
stroke-linecap:round; stroke-linejoin:round;">
<circle cx="10.6964" cy="9.5750" r="2.0000" /> 
</g>
<g style="fill:none; 
stroke:#AFAFAF; stroke-width:0.0212; stroke-opacity:1; 
stroke-linecap:round; stroke-linejoin:round;">
<circle cx="10.6964" cy="9.5750" r="2.0000" /> 
</g>
<g style="fill:none; 
stroke:#AFAFAF; stroke-width:0.0212; stroke-opacity:1; 
stroke-linecap:round; stroke-linejoin:round;">
<circle cx="13.2364" cy="4.4950" r="1.5000" /> 
</g>
<g style="fill:none; 
stroke:#AFAFAF; stroke-width:0.0212; stroke-opacity:1; 
stroke-linecap:round; stroke-linejoin:round;">
<circle cx="15.7764" cy="9.5750" r="0.8500" /> 
</g>
<g style="fill:none; 
stroke:#AFAFAF; stroke-width:0.0639; stroke-opacity:1; 
stroke-linecap:round; stroke-linejoin:round;">
<text x="8.1564" y="15.0383"
textLength="0.7685" font-size="1.0222" lengthAdjust="spacingAndGlyphs"
text-anchor="middle" opacity="0" stroke-opacity="0">1</text>
<g class="stroked-text"><desc>1</desc>
<path d="M8.3755 15.0063
L7.9374 15.0063
" />
<path d="M8.1564 15.0063
L8.1564 14.2397
" />
<path d="M8.1564 14.2397
L8.0834 14.3492
" />
<path d="M8.0834 14.3492
L8.0104 14.4222
" />
<path d="M8.0104 14.4222
L7.9374 14.4587
" />
</g></g>
<g style="fill:none; 
stroke:#AFAFAF; stroke-width:0.0212; stroke-opacity:1; 
stroke-linecap:round; stroke-linejoin:round;">
<circle cx="8.1564" cy="14.6550" r="1.1500" /> 
</g>
<g style="fill:none; 
stroke:#AFAFAF; stroke-width:0.0639; stroke-opacity:1; 
stroke-linecap:round; stroke-linejoin:round;">
<text x="14.5064" y="12.4983"
textLength="0.7685" font-size="1.0222" lengthAdjust="spacingAndGlyphs"
text-anchor="middle" opacity="0" stroke-opacity="0">2</text>
<g class="stroked-text"><desc>2</desc>
<path d="M14.2874 11.7727
L14.3239 11.7362
" />
<path d="M14.3239 11.7362
L14.3969 11.6997
" />
<path d="M14.3969 11.6997
L14.5794 11.6997
" />
<path d="M14.5794 11.6997
L14.6525 11.7362
" />
<path d="M14.6525 11.7362
L14.6890 11.7727
" />
<path d="M14.6890 11.7727
L14.7255 11.8457
" />
<path d="M14.7255 11.8457
L14.7255 11.9187
" />
<path d="M14.7255 11.9187
L14.6890 12.0283
" />
<path d="M14.6890 12.0283
L14.2509 12.4664
" />
<path d="M14.2509 12.4664
L14.7255 12.4664
" />
</g></g>
<g style="fill:none; 
stroke:#AFAFAF; stroke-width:0.0212; stroke-opacity:1; 
stroke-linecap:round; stroke-linejoin:round;">
<circle cx="14.5064" cy="12.1150" r="1.1500" /> 
<path style="fill:none; 
stroke:#C2C2C2; stroke-width:0.1000; stroke-opacity:1; 
stroke-linecap:round; stroke-linejoin:round;fill:none"
d="M 1.1714,0.0500
20.2214,0.0500
20.2214,19.1000
1.1714,19.1000
Z" /> 
</g> 
</svg>
