<svg xmlns="http://www.w3.org/2000/svg" width="78.816" height="76.8" viewBox="0 0 20.853 20.32">
    <g style="fill:none;stroke:#e8b2a7;stroke-width:.12;stroke-opacity:1;stroke-linecap:round;stroke-linejoin:round">
        <path d="M3.335 2.875v13.4M3.735 16.675h13.4M17.135 2.475h-13.4M17.535 16.275v-13.4M3.735 2.475a.4.4 0 0 0-.4.4M3.335 16.275a.4.4 0 0 0 .4.4M17.535 2.875a.4.4 0 0 0-.4-.4M17.135 16.675a.4.4 0 0 0 .4-.4"/>
    </g>
    <g class="stroked-text" style="fill:none;stroke:#f2eda1;stroke-width:.15;stroke-opacity:1;stroke-linecap:round;stroke-linejoin:round">
        <path d="m9.101 13.03-.333-.476M8.53 13.03v-1M8.53 12.03h.38M8.91 12.03l.096.047M9.006 12.077l.048.048M9.054 12.125l.047.095M9.101 12.22v.143M9.101 12.363l-.047.095M9.054 12.458l-.048.048M9.006 12.506l-.095.048M8.91 12.554h-.38M9.53 12.506h.333M10.006 13.03H9.53M9.53 13.03v-1M9.53 12.03h.476M10.768 12.506h-.334M10.435 13.03v-1M10.435 12.03h.476M11.435 12.03v.238M11.196 12.173l.239.095M11.435 12.268l.238-.095M11.292 12.458l.143-.19M11.435 12.268l.142.19M12.196 12.03v.238M11.958 12.173l.238.095M12.196 12.268l.239-.095M12.054 12.458l.142-.19M12.196 12.268l.143.19"/>
    </g>
    <g style="fill:none;stroke:#f2eda1;stroke-width:.12;stroke-opacity:1;stroke-linecap:round;stroke-linejoin:round">
        <path d="M5.355 2.59v.355M5.355 7.035v-.99M5.355 7.035h5.08M12.899 8.94h1.727M14.245 2.59h-8.89M16.435 8.94h.35M16.785 5.13v.355M16.785 8.585v.355M12.894 8.941a2.54 2.54 0 0 0-2.46-1.906M16.785 5.13a2.54 2.54 0 0 0-2.54-2.54"/>
        <path stroke="none" d="m16.72 6.035.019-.096.054-.08.08-.055.096-.019h2.05l.096.019.081.054.054.081.02.096v2l-.02.096-.054.08-.08.055-.096.019h-2.05l-.096-.019-.081-.054-.054-.081-.02-.096ZM2.87 3.495l.019-.096.054-.08.08-.055.096-.019h2.05l.096.019.081.054.054.081.02.096v2l-.02.096-.054.08-.08.055-.096.019H3.12l-.096-.019-.081-.054-.054-.081-.02-.096Z" style="fill:#b4a09a;fill-opacity:.9;stroke:none;fill-rule:evenodd"/>
    </g>
    <circle cx="12.975" cy="14.655" r="1.15" style="fill:#4d7fc4;fill-opacity:1;stroke:none"/>
    <circle cx="6.625" cy="12.115" r="1.15" style="fill:#4d7fc4;fill-opacity:1;stroke:none"/>
    <g style="fill:#c83434;fill-opacity:1;stroke:none">
        <circle cx="12.975" cy="14.655" r="1.15"/>
        <path d="m16.72 6.035.019-.096.054-.08.08-.055.096-.019h2.05l.096.019.081.054.054.081.02.096v2l-.02.096-.054.08-.08.055-.096.019h-2.05l-.096-.019-.081-.054-.054-.081-.02-.096ZM2.87 3.495l.019-.096.054-.08.08-.055.096-.019h2.05l.096.019.081.054.054.081.02.096v2l-.02.096-.054.08-.08.055-.096.019H3.12l-.096-.019-.081-.054-.054-.081-.02-.096Z" style="fill:#c83434;fill-opacity:1;stroke:none;fill-rule:evenodd"/>
    </g>
    <g style="fill:#c83434;fill-opacity:1;stroke:none">
        <circle cx="6.625" cy="12.115" r="1.15"/>
        <path d="M3.435 2.575h14v14h-14Z" style="stroke:#585d84;stroke-width:.1;stroke-opacity:1;stroke-linecap:round;stroke-linejoin:round;fill:none"/>
    </g>
    <circle cx="5.354" cy="9.575" r=".85" style="fill:none;stroke:#585d84;stroke-width:.0212;stroke-opacity:1;stroke-linecap:round;stroke-linejoin:round"/>
    <circle cx="7.894" cy="4.495" r="1.5" style="fill:none;stroke:#585d84;stroke-width:.0212;stroke-opacity:1;stroke-linecap:round;stroke-linejoin:round"/>
    <circle cx="10.434" cy="9.575" r="2" style="fill:none;stroke:#585d84;stroke-width:.0212;stroke-opacity:1;stroke-linecap:round;stroke-linejoin:round"/>
    <circle cx="14.245" cy="7.035" r="1.5" style="fill:none;stroke:#585d84;stroke-width:.0212;stroke-opacity:1;stroke-linecap:round;stroke-linejoin:round"/>
    <circle cx="15.514" cy="9.575" r=".85" style="fill:none;stroke:#585d84;stroke-width:.0212;stroke-opacity:1;stroke-linecap:round;stroke-linejoin:round"/>
    <g class="stroked-text" style="fill:none;stroke:#585d84;stroke-width:.0639;stroke-opacity:1;stroke-linecap:round;stroke-linejoin:round">
        <path d="M13.194 15.006h-.439M12.975 15.006v-.766M12.975 14.24l-.073.11M12.902 14.35l-.073.072M12.829 14.422l-.074.037"/>
    </g>
    <circle cx="12.975" cy="14.655" r="1.15" style="fill:none;stroke:#585d84;stroke-width:.0212;stroke-opacity:1;stroke-linecap:round;stroke-linejoin:round"/>
    <g class="stroked-text" style="fill:none;stroke:#585d84;stroke-width:.0639;stroke-opacity:1;stroke-linecap:round;stroke-linejoin:round">
        <path d="m6.406 11.773.036-.037M6.442 11.736l.073-.036M6.515 11.7h.183M6.698 11.7l.073.036M6.77 11.736l.037.037M6.807 11.773l.037.073M6.844 11.846v.073M6.844 11.919l-.037.11M6.807 12.028l-.438.438M6.369 12.466h.475"/>
    </g>
    <circle cx="6.625" cy="12.115" r="1.15" style="fill:none;stroke:#585d84;stroke-width:.0212;stroke-opacity:1;stroke-linecap:round;stroke-linejoin:round"/>
    <g style="fill:none;stroke:#afafaf;stroke-width:.15;stroke-opacity:1;stroke-linecap:round;stroke-linejoin:round">
        <g class="stroked-text">
            <path d="m.316 18.282.142.048M.458 18.33h.238M.696 18.33l.096-.048M.792 18.282l.047-.047M.84 18.235l.047-.096M.887 18.14v-.096M.887 18.044l-.048-.095M.84 17.949.791 17.9M.792 17.901l-.096-.047M.696 17.854l-.19-.048M.506 17.806l-.095-.048M.41 17.758l-.047-.047M.363 17.71l-.047-.095M.316 17.616v-.096M.316 17.52l.047-.095M.363 17.425l.048-.048M.41 17.377l.096-.047M.506 17.33h.238M.744 17.33l.143.047M1.22 17.33l.238 1M1.458 18.33l.19-.714M1.649 17.616l.19.714M1.84 18.33l.237-1M2.22 18.425h.762M3.22 18.33v-1M3.22 17.33l.334.714M3.554 18.044l.333-.714M3.887 17.33v1M4.268 17.33l.667 1M4.935 17.33l-.667 1M5.077 18.425h.762M6.077 18.33v-1M6.077 17.806h.572M6.649 18.33v-1M7.268 18.33l-.095-.048M7.173 18.282l-.048-.047M7.125 18.235l-.048-.096M7.077 18.14v-.286M7.077 17.854l.048-.096M7.125 17.758l.048-.047M7.173 17.71l.095-.047M7.268 17.663h.143M7.41 17.663l.096.048M7.506 17.71l.048.048M7.554 17.758l.047.096M7.601 17.854v.285M7.601 18.14l-.047.095M7.554 18.235l-.048.047M7.506 18.282l-.095.048M7.41 18.33h-.142M7.887 17.663h.38M8.03 17.33v.857M8.03 18.187l.047.095M8.077 18.282l.096.048M8.173 18.33h.095M8.554 18.282l.142.048M8.696 18.33h.239M8.935 18.33l.095-.048M9.03 18.282l.047-.047M9.077 18.235l.048-.096M9.125 18.14v-.096M9.125 18.044l-.048-.095M9.077 17.949 9.03 17.9M9.03 17.901l-.095-.047M8.935 17.854l-.191-.048M8.744 17.806l-.095-.048M8.649 17.758l-.048-.047M8.601 17.71l-.047-.095M8.554 17.616v-.096M8.554 17.52l.047-.095M8.601 17.425l.048-.048M8.649 17.377l.095-.047M8.744 17.33h.238M8.982 17.33l.143.047M9.458 17.663l.19.667M9.649 18.33l.19-.476M9.84 17.854l.19.476M10.03 18.33l.19-.667M11.03 18.33v-.524M11.03 17.806l-.048-.095M10.982 17.71l-.095-.047M10.887 17.663h-.19M10.696 17.663l-.095.048M11.03 18.282l-.095.048M10.935 18.33h-.239M10.696 18.33l-.095-.048M10.601 18.282l-.047-.095M10.554 18.187v-.095M10.554 18.092l.047-.095M10.601 17.997l.095-.048M10.696 17.949h.239M10.935 17.949l.095-.048M11.506 17.663v1M11.506 17.71l.095-.047M11.601 17.663h.19M11.792 17.663l.095.048M11.887 17.71l.047.048M11.935 17.758l.047.096M11.982 17.854v.285M11.982 18.14l-.047.095M11.935 18.235l-.048.047M11.887 18.282l-.095.048M11.792 18.33h-.19M11.601 18.33l-.095-.048M12.173 18.425h.761M13.03 17.33h.571M13.316 18.33v-1M13.935 18.33v-1M13.935 17.806h.571M14.506 18.33v-1M14.84 17.33h.57M15.125 18.33v-1M15.506 18.425h.762M16.458 18.282l.096.048M16.554 18.33h.19M16.744 18.33l.095-.048M16.84 18.282l.047-.095M16.887 18.187v-.048M16.887 18.14l-.048-.096M16.84 18.044l-.096-.047M16.744 17.997h-.143M16.601 17.997l-.095-.048M16.506 17.949l-.048-.095M16.458 17.854v-.048M16.458 17.806l.048-.095M16.506 17.71l.095-.047M16.601 17.663h.143M16.744 17.663l.095.048M17.744 17.663v1M17.744 18.282l-.095.048M17.649 18.33h-.19M17.458 18.33l-.095-.048M17.363 18.282l-.047-.047M17.316 18.235l-.048-.096M17.268 18.14v-.286M17.268 17.854l.047-.096M17.316 17.758l.047-.047M17.363 17.71l.095-.047M17.458 17.663h.19M17.649 17.663l.095.048M18.173 18.282l.143.048M18.316 18.33h.238M18.554 18.33l.095-.048M18.649 18.282l.047-.047M18.696 18.235l.048-.096M18.744 18.14v-.096M18.744 18.044l-.048-.095M18.696 17.949l-.047-.048M18.649 17.901l-.095-.047M18.554 17.854l-.19-.048M18.363 17.806l-.095-.048M18.268 17.758l-.048-.047M18.22 17.71l-.047-.095M18.173 17.616v-.096M18.173 17.52l.047-.095M18.22 17.425l.048-.048M18.268 17.377l.095-.047M18.363 17.33h.238M18.601 17.33l.143.047M19.173 18.33v-.667M19.173 17.33l-.048.047M19.125 17.377l.048.048M19.173 17.425l.047-.048M19.22 17.377l-.047-.047M19.173 17.33v.095M19.792 18.33l-.096-.048M19.696 18.282l-.047-.095M19.649 18.187v-.857M20.173 18.33v-1M20.268 17.949l.286.38M20.554 17.663l-.381.381"/>
        </g>
        <g class="stroked-text">
            <path d="m9.101 19.93-.333-.476M8.53 19.93v-1M8.53 18.93h.38M8.91 18.93l.096.047M9.006 18.977l.048.048M9.054 19.025l.047.095M9.101 19.12v.143M9.101 19.263l-.047.095M9.054 19.358l-.048.048M9.006 19.406l-.095.048M8.91 19.454h-.38M9.53 19.406h.333M10.006 19.93H9.53M9.53 19.93v-1M9.53 18.93h.476M10.768 19.406h-.334M10.435 19.93v-1M10.435 18.93h.476M11.435 18.93v.238M11.196 19.073l.239.095M11.435 19.168l.238-.095M11.292 19.358l.143-.19M11.435 19.168l.142.19M12.196 18.93v.238M11.958 19.073l.238.095M12.196 19.168l.239-.095M12.054 19.358l.142-.19M12.196 19.168l.143.19"/>
        </g>
    </g>
    <g style="fill:none;stroke:#afafaf;stroke-width:.1;stroke-opacity:1;stroke-linecap:round;stroke-linejoin:round">
        <path d="M2.815 3.225v2.54M2.815 5.765h2.54M5.355 2.59v4.445M5.355 3.225h-2.54M5.355 7.035h5.08M14.245 2.59h-8.89M16.785 8.305h2.54M16.785 8.94h-3.81M16.785 8.94V5.13M19.325 5.765h-2.54M19.325 8.305v-2.54M12.899 8.959a2.54 2.54 0 0 0-2.464-1.924M16.785 5.13a2.54 2.54 0 0 0-2.54-2.54"/>
    </g>
    <circle cx="5.354" cy="9.575" r=".85" style="fill:none;stroke:#afafaf;stroke-width:.0212;stroke-opacity:1;stroke-linecap:round;stroke-linejoin:round"/>
    <circle cx="7.894" cy="4.495" r="1.5" style="fill:none;stroke:#afafaf;stroke-width:.0212;stroke-opacity:1;stroke-linecap:round;stroke-linejoin:round"/>
    <circle cx="10.434" cy="9.575" r="2" style="fill:none;stroke:#afafaf;stroke-width:.0212;stroke-opacity:1;stroke-linecap:round;stroke-linejoin:round"/>
    <circle cx="14.245" cy="7.035" r="1.5" style="fill:none;stroke:#afafaf;stroke-width:.0212;stroke-opacity:1;stroke-linecap:round;stroke-linejoin:round"/>
    <circle cx="15.514" cy="9.575" r=".85" style="fill:none;stroke:#afafaf;stroke-width:.0212;stroke-opacity:1;stroke-linecap:round;stroke-linejoin:round"/>
    <g class="stroked-text" style="fill:none;stroke:#afafaf;stroke-width:.0639;stroke-opacity:1;stroke-linecap:round;stroke-linejoin:round">
        <path d="M13.194 15.006h-.439M12.975 15.006v-.766M12.975 14.24l-.073.11M12.902 14.35l-.073.072M12.829 14.422l-.074.037"/>
    </g>
    <circle cx="12.975" cy="14.655" r="1.15" style="fill:none;stroke:#afafaf;stroke-width:.0212;stroke-opacity:1;stroke-linecap:round;stroke-linejoin:round"/>
    <g style="fill:none;stroke:#afafaf;stroke-width:.0708;stroke-opacity:1;stroke-linecap:round;stroke-linejoin:round">
        <g class="stroked-text">
            <path d="M18.237 7.425h-.485M17.995 7.425v-.85M17.995 6.575l-.081.121M17.914 6.696l-.081.08M17.833 6.777l-.081.04"/>
        </g>
        <path d="m16.72 6.035.019-.096.054-.08.08-.055.096-.019h2.05l.096.019.081.054.054.081.02.096v2l-.02.096-.054.08-.08.055-.096.019h-2.05l-.096-.019-.081-.054-.054-.081-.02-.096Z" style="stroke:#afafaf;stroke-width:.0212;stroke-opacity:1;stroke-linecap:round;stroke-linejoin:round;fill:none"/>
    </g>
    <g style="fill:none;stroke:#afafaf;stroke-width:.0708;stroke-opacity:1;stroke-linecap:round;stroke-linejoin:round">
        <g class="stroked-text">
            <path d="m3.902 4.116.04-.041M3.942 4.075l.081-.04M4.023 4.035h.203M4.226 4.035l.08.04M4.306 4.075l.04.04M4.347 4.116l.04.08M4.387 4.196v.081M4.387 4.277l-.04.122M4.347 4.399l-.486.486M3.861 4.885h.526"/>
        </g>
        <path d="m2.87 3.495.019-.096.054-.08.08-.055.096-.019h2.05l.096.019.081.054.054.081.02.096v2l-.02.096-.054.08-.08.055-.096.019H3.12l-.096-.019-.081-.054-.054-.081-.02-.096Z" style="stroke:#afafaf;stroke-width:.0212;stroke-opacity:1;stroke-linecap:round;stroke-linejoin:round;fill:none"/>
    </g>
    <g class="stroked-text" style="fill:none;stroke:#afafaf;stroke-width:.0639;stroke-opacity:1;stroke-linecap:round;stroke-linejoin:round">
        <path d="m6.406 11.773.036-.037M6.442 11.736l.073-.036M6.515 11.7h.183M6.698 11.7l.073.036M6.77 11.736l.037.037M6.807 11.773l.037.073M6.844 11.846v.073M6.844 11.919l-.037.11M6.807 12.028l-.438.438M6.369 12.466h.475"/>
    </g>
    <g style="fill:none;stroke:#afafaf;stroke-width:.0212;stroke-opacity:1;stroke-linecap:round;stroke-linejoin:round">
        <circle cx="6.625" cy="12.115" r="1.15"/>
        <path d="M.91.05h19.05V19.1H.91Z" style="stroke:#c2c2c2;stroke-width:.1;stroke-opacity:1;stroke-linecap:round;stroke-linejoin:round;fill:none"/>
    </g>
</svg>
