<?xml version="1.0" standalone="no"?>
 <!DOCTYPE svg PUBLIC "-//W3C//DTD SVG 1.1//EN" 
 "http://www.w3.org/Graphics/SVG/1.1/DTD/svg11.dtd"> 
<svg
  xmlns:svg="http://www.w3.org/2000/svg"
  xmlns="http://www.w3.org/2000/svg"
  xmlns:xlink="http://www.w3.org/1999/xlink"
  version="1.1"
  width="20.8534mm" height="20.3200mm" viewBox="0.0000 0.0000 20.8534 20.3200">
<title>SVG Image created as SW_MX_HotSwap_THT_sqSilk.svg date 2025/05/12 02:45:49 </title>
  <desc>Image generated by PCBNEW </desc>
<g style="fill:#000000; fill-opacity:1.0000;stroke:#000000; stroke-opacity:1.0000;
stroke-linecap:round; stroke-linejoin:round;"
 transform="translate(0 0) scale(1 1)">
</g>
<g style="fill:none; 
stroke:#E8B2A7; stroke-width:0.1500; stroke-opacity:1; 
stroke-linecap:round; stroke-linejoin:round;">
<text x="10.4345" y="7.0750"
transform="scale(-1 1) translate(-20.869050 0)"
textLength="4.5357" font-size="1.3333" lengthAdjust="spacingAndGlyphs"
text-anchor="middle" opacity="0" stroke-opacity="0">REF**</text>
<g class="stroked-text"><desc>REF**</desc>
<path d="M11.7679 7.0298
L12.1012 6.5536
" />
<path d="M12.3393 7.0298
L12.3393 6.0298
" />
<path d="M12.3393 6.0298
L11.9583 6.0298
" />
<path d="M11.9583 6.0298
L11.8631 6.0774
" />
<path d="M11.8631 6.0774
L11.8155 6.1251
" />
<path d="M11.8155 6.1251
L11.7679 6.2203
" />
<path d="M11.7679 6.2203
L11.7679 6.3632
" />
<path d="M11.7679 6.3632
L11.8155 6.4584
" />
<path d="M11.8155 6.4584
L11.8631 6.5060
" />
<path d="M11.8631 6.5060
L11.9583 6.5536
" />
<path d="M11.9583 6.5536
L12.3393 6.5536
" />
<path d="M11.3393 6.5060
L11.0060 6.5060
" />
<path d="M10.8631 7.0298
L11.3393 7.0298
" />
<path d="M11.3393 7.0298
L11.3393 6.0298
" />
<path d="M11.3393 6.0298
L10.8631 6.0298
" />
<path d="M10.1012 6.5060
L10.4345 6.5060
" />
<path d="M10.4345 7.0298
L10.4345 6.0298
" />
<path d="M10.4345 6.0298
L9.9583 6.0298
" />
<path d="M9.4345 6.0298
L9.4345 6.2679
" />
<path d="M9.6726 6.1727
L9.4345 6.2679
" />
<path d="M9.4345 6.2679
L9.1964 6.1727
" />
<path d="M9.5774 6.4584
L9.4345 6.2679
" />
<path d="M9.4345 6.2679
L9.2917 6.4584
" />
<path d="M8.6726 6.0298
L8.6726 6.2679
" />
<path d="M8.9107 6.1727
L8.6726 6.2679
" />
<path d="M8.6726 6.2679
L8.4345 6.1727
" />
<path d="M8.8155 6.4584
L8.6726 6.2679
" />
<path d="M8.6726 6.2679
L8.5298 6.4584
" />
</g></g>
<g style="fill:none; 
stroke:#E8B2A7; stroke-width:0.1200; stroke-opacity:1; 
stroke-linecap:round; stroke-linejoin:round;">
<path d="M5.3545 12.1150
L5.3545 13.1050
" />
<path d="M5.3545 12.1150
L10.4345 12.1150
" />
<path d="M5.3545 16.5600
L5.3545 16.2050
" />
<path d="M12.8987 10.2100
L14.6255 10.2100
" />
<path d="M14.2445 16.5600
L5.3545 16.5600
" />
<path d="M16.4345 10.2100
L16.7845 10.2100
" />
<path d="M16.7845 10.5650
L16.7845 10.2100
" />
<path d="M16.7845 14.0200
L16.7845 13.6650
" />
<path d="M10.4345 12.1150 A2.5400 2.5400 0.0 0 0 12.8942 10.2088" />
<path d="M14.2445 16.5600 A2.5400 2.5400 0.0 0 0 16.7845 14.0200" />
</g>
<g style="fill:none; 
stroke:#F2EDA1; stroke-width:0.1200; stroke-opacity:1; 
stroke-linecap:round; stroke-linejoin:round;">
<path d="M3.3345 16.2750
L3.3345 2.8750
" />
<path d="M3.7345 2.4750
L17.1345 2.4750
" />
<path d="M17.1345 16.6750
L3.7345 16.6750
" />
<path d="M17.5345 2.8750
L17.5345 16.2750
" />
<path d="M3.7345 2.4750 A0.4000 0.4000 0.0 0 0 3.3345 2.8750" />
<path d="M3.3345 16.2750 A0.4000 0.4000 0.0 0 0 3.7345 16.6750" />
<path d="M17.5345 2.8750 A0.4000 0.4000 0.0 0 0 17.1345 2.4750" />
<path d="M17.1345 16.6750 A0.4000 0.4000 0.0 0 0 17.5345 16.2750" />
<path style="fill:#00C2C2; fill-opacity:0.9000; stroke:none;fill-rule:evenodd;"
d="M 16.7195,11.1150
16.7386,11.0193
16.7927,10.9382
16.8739,10.8840
16.9695,10.8650
19.0195,10.8650
19.1152,10.8840
19.1963,10.9382
19.2505,11.0193
19.2695,11.1150
19.2695,13.1150
19.2505,13.2107
19.1963,13.2918
19.1152,13.3460
19.0195,13.3650
16.9695,13.3650
16.8739,13.3460
16.7927,13.2918
16.7386,13.2107
16.7195,13.1150
Z" /> 
<path style="fill:#00C2C2; fill-opacity:0.9000; stroke:none;fill-rule:evenodd;"
d="M 2.8695,13.6550
2.8886,13.5593
2.9427,13.4782
3.0239,13.4240
3.1195,13.4050
5.1695,13.4050
5.2652,13.4240
5.3463,13.4782
5.4005,13.5593
5.4195,13.6550
5.4195,15.6550
5.4005,15.7507
5.3463,15.8318
5.2652,15.8860
5.1695,15.9050
3.1195,15.9050
3.0239,15.8860
2.9427,15.8318
2.8886,15.7507
2.8695,15.6550
Z" /> 
</g>
<g style="fill:#4D7FC4; fill-opacity:1.0000; stroke:none;">
<circle cx="12.9745" cy="4.4950" r="1.1500" /> 
<path style="fill:#4D7FC4; fill-opacity:1.0000; stroke:none;fill-rule:evenodd;"
d="M 16.7195,11.1150
16.7386,11.0193
16.7927,10.9382
16.8739,10.8840
16.9695,10.8650
19.0195,10.8650
19.1152,10.8840
19.1963,10.9382
19.2505,11.0193
19.2695,11.1150
19.2695,13.1150
19.2505,13.2107
19.1963,13.2918
19.1152,13.3460
19.0195,13.3650
16.9695,13.3650
16.8739,13.3460
16.7927,13.2918
16.7386,13.2107
16.7195,13.1150
Z" /> 
<path style="fill:#4D7FC4; fill-opacity:1.0000; stroke:none;fill-rule:evenodd;"
d="M 2.8695,13.6550
2.8886,13.5593
2.9427,13.4782
3.0239,13.4240
3.1195,13.4050
5.1695,13.4050
5.2652,13.4240
5.3463,13.4782
5.4005,13.5593
5.4195,13.6550
5.4195,15.6550
5.4005,15.7507
5.3463,15.8318
5.2652,15.8860
5.1695,15.9050
3.1195,15.9050
3.0239,15.8860
2.9427,15.8318
2.8886,15.7507
2.8695,15.6550
Z" /> 
</g>
<g style="fill:#4D7FC4; fill-opacity:1.0000; stroke:none;">
<circle cx="6.6245" cy="7.0350" r="1.1500" /> 
</g>
<g style="fill:#C83434; fill-opacity:1.0000; stroke:none;">
<circle cx="12.9745" cy="4.4950" r="1.1500" /> 
</g>
<g style="fill:#C83434; fill-opacity:1.0000; stroke:none;">
<circle cx="6.6245" cy="7.0350" r="1.1500" /> 
</g>
<g style="fill:none; 
stroke:#585D84; stroke-width:0.1500; stroke-opacity:1; 
stroke-linecap:round; stroke-linejoin:round;">
<text x="10.4345" y="18.3750"
transform="scale(-1 1) translate(-20.869050 0)"
textLength="20.8690" font-size="1.3333" lengthAdjust="spacingAndGlyphs"
text-anchor="middle" opacity="0" stroke-opacity="0">SW_MX_HotSwap_THT_sqSilk</text>
<g class="stroked-text"><desc>SW_MX_HotSwap_THT_sqSilk</desc>
<path d="M20.5536 18.2822
L20.4107 18.3298
" />
<path d="M20.4107 18.3298
L20.1726 18.3298
" />
<path d="M20.1726 18.3298
L20.0774 18.2822
" />
<path d="M20.0774 18.2822
L20.0298 18.2346
" />
<path d="M20.0298 18.2346
L19.9821 18.1393
" />
<path d="M19.9821 18.1393
L19.9821 18.0441
" />
<path d="M19.9821 18.0441
L20.0298 17.9489
" />
<path d="M20.0298 17.9489
L20.0774 17.9012
" />
<path d="M20.0774 17.9012
L20.1726 17.8536
" />
<path d="M20.1726 17.8536
L20.3631 17.8060
" />
<path d="M20.3631 17.8060
L20.4583 17.7584
" />
<path d="M20.4583 17.7584
L20.5060 17.7108
" />
<path d="M20.5060 17.7108
L20.5536 17.6155
" />
<path d="M20.5536 17.6155
L20.5536 17.5203
" />
<path d="M20.5536 17.5203
L20.5060 17.4251
" />
<path d="M20.5060 17.4251
L20.4583 17.3774
" />
<path d="M20.4583 17.3774
L20.3631 17.3298
" />
<path d="M20.3631 17.3298
L20.1250 17.3298
" />
<path d="M20.1250 17.3298
L19.9821 17.3774
" />
<path d="M19.6488 17.3298
L19.4107 18.3298
" />
<path d="M19.4107 18.3298
L19.2202 17.6155
" />
<path d="M19.2202 17.6155
L19.0298 18.3298
" />
<path d="M19.0298 18.3298
L18.7917 17.3298
" />
<path d="M18.6488 18.4251
L17.8869 18.4251
" />
<path d="M17.6488 18.3298
L17.6488 17.3298
" />
<path d="M17.6488 17.3298
L17.3155 18.0441
" />
<path d="M17.3155 18.0441
L16.9821 17.3298
" />
<path d="M16.9821 17.3298
L16.9821 18.3298
" />
<path d="M16.6012 17.3298
L15.9345 18.3298
" />
<path d="M15.9345 17.3298
L16.6012 18.3298
" />
<path d="M15.7917 18.4251
L15.0298 18.4251
" />
<path d="M14.7917 18.3298
L14.7917 17.3298
" />
<path d="M14.7917 17.8060
L14.2202 17.8060
" />
<path d="M14.2202 18.3298
L14.2202 17.3298
" />
<path d="M13.6012 18.3298
L13.6964 18.2822
" />
<path d="M13.6964 18.2822
L13.7440 18.2346
" />
<path d="M13.7440 18.2346
L13.7917 18.1393
" />
<path d="M13.7917 18.1393
L13.7917 17.8536
" />
<path d="M13.7917 17.8536
L13.7440 17.7584
" />
<path d="M13.7440 17.7584
L13.6964 17.7108
" />
<path d="M13.6964 17.7108
L13.6012 17.6632
" />
<path d="M13.6012 17.6632
L13.4583 17.6632
" />
<path d="M13.4583 17.6632
L13.3631 17.7108
" />
<path d="M13.3631 17.7108
L13.3155 17.7584
" />
<path d="M13.3155 17.7584
L13.2679 17.8536
" />
<path d="M13.2679 17.8536
L13.2679 18.1393
" />
<path d="M13.2679 18.1393
L13.3155 18.2346
" />
<path d="M13.3155 18.2346
L13.3631 18.2822
" />
<path d="M13.3631 18.2822
L13.4583 18.3298
" />
<path d="M13.4583 18.3298
L13.6012 18.3298
" />
<path d="M12.9821 17.6632
L12.6012 17.6632
" />
<path d="M12.8393 17.3298
L12.8393 18.1870
" />
<path d="M12.8393 18.1870
L12.7917 18.2822
" />
<path d="M12.7917 18.2822
L12.6964 18.3298
" />
<path d="M12.6964 18.3298
L12.6012 18.3298
" />
<path d="M12.3155 18.2822
L12.1726 18.3298
" />
<path d="M12.1726 18.3298
L11.9345 18.3298
" />
<path d="M11.9345 18.3298
L11.8393 18.2822
" />
<path d="M11.8393 18.2822
L11.7917 18.2346
" />
<path d="M11.7917 18.2346
L11.7440 18.1393
" />
<path d="M11.7440 18.1393
L11.7440 18.0441
" />
<path d="M11.7440 18.0441
L11.7917 17.9489
" />
<path d="M11.7917 17.9489
L11.8393 17.9012
" />
<path d="M11.8393 17.9012
L11.9345 17.8536
" />
<path d="M11.9345 17.8536
L12.1250 17.8060
" />
<path d="M12.1250 17.8060
L12.2202 17.7584
" />
<path d="M12.2202 17.7584
L12.2679 17.7108
" />
<path d="M12.2679 17.7108
L12.3155 17.6155
" />
<path d="M12.3155 17.6155
L12.3155 17.5203
" />
<path d="M12.3155 17.5203
L12.2679 17.4251
" />
<path d="M12.2679 17.4251
L12.2202 17.3774
" />
<path d="M12.2202 17.3774
L12.1250 17.3298
" />
<path d="M12.1250 17.3298
L11.8869 17.3298
" />
<path d="M11.8869 17.3298
L11.7440 17.3774
" />
<path d="M11.4107 17.6632
L11.2202 18.3298
" />
<path d="M11.2202 18.3298
L11.0298 17.8536
" />
<path d="M11.0298 17.8536
L10.8393 18.3298
" />
<path d="M10.8393 18.3298
L10.6488 17.6632
" />
<path d="M9.8393 18.3298
L9.8393 17.8060
" />
<path d="M9.8393 17.8060
L9.8869 17.7108
" />
<path d="M9.8869 17.7108
L9.9821 17.6632
" />
<path d="M9.9821 17.6632
L10.1726 17.6632
" />
<path d="M10.1726 17.6632
L10.2679 17.7108
" />
<path d="M9.8393 18.2822
L9.9345 18.3298
" />
<path d="M9.9345 18.3298
L10.1726 18.3298
" />
<path d="M10.1726 18.3298
L10.2679 18.2822
" />
<path d="M10.2679 18.2822
L10.3155 18.1870
" />
<path d="M10.3155 18.1870
L10.3155 18.0917
" />
<path d="M10.3155 18.0917
L10.2679 17.9965
" />
<path d="M10.2679 17.9965
L10.1726 17.9489
" />
<path d="M10.1726 17.9489
L9.9345 17.9489
" />
<path d="M9.9345 17.9489
L9.8393 17.9012
" />
<path d="M9.3631 17.6632
L9.3631 18.6632
" />
<path d="M9.3631 17.7108
L9.2679 17.6632
" />
<path d="M9.2679 17.6632
L9.0774 17.6632
" />
<path d="M9.0774 17.6632
L8.9821 17.7108
" />
<path d="M8.9821 17.7108
L8.9345 17.7584
" />
<path d="M8.9345 17.7584
L8.8869 17.8536
" />
<path d="M8.8869 17.8536
L8.8869 18.1393
" />
<path d="M8.8869 18.1393
L8.9345 18.2346
" />
<path d="M8.9345 18.2346
L8.9821 18.2822
" />
<path d="M8.9821 18.2822
L9.0774 18.3298
" />
<path d="M9.0774 18.3298
L9.2679 18.3298
" />
<path d="M9.2679 18.3298
L9.3631 18.2822
" />
<path d="M8.6964 18.4251
L7.9345 18.4251
" />
<path d="M7.8393 17.3298
L7.2679 17.3298
" />
<path d="M7.5536 18.3298
L7.5536 17.3298
" />
<path d="M6.9345 18.3298
L6.9345 17.3298
" />
<path d="M6.9345 17.8060
L6.3631 17.8060
" />
<path d="M6.3631 18.3298
L6.3631 17.3298
" />
<path d="M6.0298 17.3298
L5.4583 17.3298
" />
<path d="M5.7440 18.3298
L5.7440 17.3298
" />
<path d="M5.3631 18.4251
L4.6012 18.4251
" />
<path d="M4.4107 18.2822
L4.3155 18.3298
" />
<path d="M4.3155 18.3298
L4.1250 18.3298
" />
<path d="M4.1250 18.3298
L4.0298 18.2822
" />
<path d="M4.0298 18.2822
L3.9821 18.1870
" />
<path d="M3.9821 18.1870
L3.9821 18.1393
" />
<path d="M3.9821 18.1393
L4.0298 18.0441
" />
<path d="M4.0298 18.0441
L4.1250 17.9965
" />
<path d="M4.1250 17.9965
L4.2679 17.9965
" />
<path d="M4.2679 17.9965
L4.3631 17.9489
" />
<path d="M4.3631 17.9489
L4.4107 17.8536
" />
<path d="M4.4107 17.8536
L4.4107 17.8060
" />
<path d="M4.4107 17.8060
L4.3631 17.7108
" />
<path d="M4.3631 17.7108
L4.2679 17.6632
" />
<path d="M4.2679 17.6632
L4.1250 17.6632
" />
<path d="M4.1250 17.6632
L4.0298 17.7108
" />
<path d="M3.1250 17.6632
L3.1250 18.6632
" />
<path d="M3.1250 18.2822
L3.2202 18.3298
" />
<path d="M3.2202 18.3298
L3.4107 18.3298
" />
<path d="M3.4107 18.3298
L3.5060 18.2822
" />
<path d="M3.5060 18.2822
L3.5536 18.2346
" />
<path d="M3.5536 18.2346
L3.6012 18.1393
" />
<path d="M3.6012 18.1393
L3.6012 17.8536
" />
<path d="M3.6012 17.8536
L3.5536 17.7584
" />
<path d="M3.5536 17.7584
L3.5060 17.7108
" />
<path d="M3.5060 17.7108
L3.4107 17.6632
" />
<path d="M3.4107 17.6632
L3.2202 17.6632
" />
<path d="M3.2202 17.6632
L3.1250 17.7108
" />
<path d="M2.6964 18.2822
L2.5536 18.3298
" />
<path d="M2.5536 18.3298
L2.3155 18.3298
" />
<path d="M2.3155 18.3298
L2.2202 18.2822
" />
<path d="M2.2202 18.2822
L2.1726 18.2346
" />
<path d="M2.1726 18.2346
L2.1250 18.1393
" />
<path d="M2.1250 18.1393
L2.1250 18.0441
" />
<path d="M2.1250 18.0441
L2.1726 17.9489
" />
<path d="M2.1726 17.9489
L2.2202 17.9012
" />
<path d="M2.2202 17.9012
L2.3155 17.8536
" />
<path d="M2.3155 17.8536
L2.5060 17.8060
" />
<path d="M2.5060 17.8060
L2.6012 17.7584
" />
<path d="M2.6012 17.7584
L2.6488 17.7108
" />
<path d="M2.6488 17.7108
L2.6964 17.6155
" />
<path d="M2.6964 17.6155
L2.6964 17.5203
" />
<path d="M2.6964 17.5203
L2.6488 17.4251
" />
<path d="M2.6488 17.4251
L2.6012 17.3774
" />
<path d="M2.6012 17.3774
L2.5060 17.3298
" />
<path d="M2.5060 17.3298
L2.2679 17.3298
" />
<path d="M2.2679 17.3298
L2.1250 17.3774
" />
<path d="M1.6964 18.3298
L1.6964 17.6632
" />
<path d="M1.6964 17.3298
L1.7440 17.3774
" />
<path d="M1.7440 17.3774
L1.6964 17.4251
" />
<path d="M1.6964 17.4251
L1.6488 17.3774
" />
<path d="M1.6488 17.3774
L1.6964 17.3298
" />
<path d="M1.6964 17.3298
L1.6964 17.4251
" />
<path d="M1.0774 18.3298
L1.1726 18.2822
" />
<path d="M1.1726 18.2822
L1.2202 18.1870
" />
<path d="M1.2202 18.1870
L1.2202 17.3298
" />
<path d="M0.6964 18.3298
L0.6964 17.3298
" />
<path d="M0.6012 17.9489
L0.3155 18.3298
" />
<path d="M0.3155 17.6632
L0.6964 18.0441
" />
</g><text x="10.4345" y="19.9750"
transform="scale(-1 1) translate(-20.869050 0)"
textLength="4.5357" font-size="1.3333" lengthAdjust="spacingAndGlyphs"
text-anchor="middle" opacity="0" stroke-opacity="0">REF**</text>
<g class="stroked-text"><desc>REF**</desc>
<path d="M11.7679 19.9298
L12.1012 19.4536
" />
<path d="M12.3393 19.9298
L12.3393 18.9298
" />
<path d="M12.3393 18.9298
L11.9583 18.9298
" />
<path d="M11.9583 18.9298
L11.8631 18.9774
" />
<path d="M11.8631 18.9774
L11.8155 19.0251
" />
<path d="M11.8155 19.0251
L11.7679 19.1203
" />
<path d="M11.7679 19.1203
L11.7679 19.2632
" />
<path d="M11.7679 19.2632
L11.8155 19.3584
" />
<path d="M11.8155 19.3584
L11.8631 19.4060
" />
<path d="M11.8631 19.4060
L11.9583 19.4536
" />
<path d="M11.9583 19.4536
L12.3393 19.4536
" />
<path d="M11.3393 19.4060
L11.0060 19.4060
" />
<path d="M10.8631 19.9298
L11.3393 19.9298
" />
<path d="M11.3393 19.9298
L11.3393 18.9298
" />
<path d="M11.3393 18.9298
L10.8631 18.9298
" />
<path d="M10.1012 19.4060
L10.4345 19.4060
" />
<path d="M10.4345 19.9298
L10.4345 18.9298
" />
<path d="M10.4345 18.9298
L9.9583 18.9298
" />
<path d="M9.4345 18.9298
L9.4345 19.1679
" />
<path d="M9.6726 19.0727
L9.4345 19.1679
" />
<path d="M9.4345 19.1679
L9.1964 19.0727
" />
<path d="M9.5774 19.3584
L9.4345 19.1679
" />
<path d="M9.4345 19.1679
L9.2917 19.3584
" />
<path d="M8.6726 18.9298
L8.6726 19.1679
" />
<path d="M8.9107 19.0727
L8.6726 19.1679
" />
<path d="M8.6726 19.1679
L8.4345 19.0727
" />
<path d="M8.8155 19.3584
L8.6726 19.1679
" />
<path d="M8.6726 19.1679
L8.5298 19.3584
" />
</g></g>
<g style="fill:none; 
stroke:#585D84; stroke-width:0.1000; stroke-opacity:1; 
stroke-linecap:round; stroke-linejoin:round;">
<path d="M2.8145 13.3850
L5.3545 13.3850
" />
<path d="M2.8145 15.9250
L2.8145 13.3850
" />
<path d="M5.3545 12.1150
L10.4345 12.1150
" />
<path d="M5.3545 15.9250
L2.8145 15.9250
" />
<path d="M5.3545 16.5600
L5.3545 12.1150
" />
<path d="M14.2445 16.5600
L5.3545 16.5600
" />
<path d="M16.7845 10.2100
L12.9745 10.2100
" />
<path d="M16.7845 10.2100
L16.7845 14.0200
" />
<path d="M16.7845 10.8450
L19.3245 10.8450
" />
<path d="M19.3245 10.8450
L19.3245 13.3850
" />
<path d="M19.3245 13.3850
L16.7845 13.3850
" />
<path d="M10.4345 12.1150 A2.5400 2.5400 0.0 0 0 12.8987 10.1910" />
<path d="M14.2445 16.5600 A2.5400 2.5400 0.0 0 0 16.7845 14.0200" />
</g>
<g style="fill:none; 
stroke:#585D84; stroke-width:0.0212; stroke-opacity:1; 
stroke-linecap:round; stroke-linejoin:round;">
<circle cx="5.3545" cy="9.5750" r="0.8500" /> 
</g>
<g style="fill:none; 
stroke:#585D84; stroke-width:0.0212; stroke-opacity:1; 
stroke-linecap:round; stroke-linejoin:round;">
<circle cx="7.8945" cy="14.6550" r="1.5000" /> 
</g>
<g style="fill:none; 
stroke:#585D84; stroke-width:0.0212; stroke-opacity:1; 
stroke-linecap:round; stroke-linejoin:round;">
<circle cx="10.4345" cy="9.5750" r="2.0000" /> 
</g>
<g style="fill:none; 
stroke:#585D84; stroke-width:0.0212; stroke-opacity:1; 
stroke-linecap:round; stroke-linejoin:round;">
<circle cx="14.2445" cy="12.1150" r="1.5000" /> 
</g>
<g style="fill:none; 
stroke:#585D84; stroke-width:0.0212; stroke-opacity:1; 
stroke-linecap:round; stroke-linejoin:round;">
<circle cx="15.5145" cy="9.5750" r="0.8500" /> 
</g>
<g style="fill:none; 
stroke:#585D84; stroke-width:0.0639; stroke-opacity:1; 
stroke-linecap:round; stroke-linejoin:round;">
<text x="12.9745" y="4.8783"
textLength="0.7685" font-size="1.0222" lengthAdjust="spacingAndGlyphs"
text-anchor="middle" opacity="0" stroke-opacity="0">1</text>
<g class="stroked-text"><desc>1</desc>
<path d="M13.1936 4.8464
L12.7555 4.8464
" />
<path d="M12.9745 4.8464
L12.9745 4.0797
" />
<path d="M12.9745 4.0797
L12.9015 4.1892
" />
<path d="M12.9015 4.1892
L12.8285 4.2622
" />
<path d="M12.8285 4.2622
L12.7555 4.2987
" />
</g></g>
<g style="fill:none; 
stroke:#585D84; stroke-width:0.0212; stroke-opacity:1; 
stroke-linecap:round; stroke-linejoin:round;">
<circle cx="12.9745" cy="4.4950" r="1.1500" /> 
</g>
<g style="fill:none; 
stroke:#585D84; stroke-width:0.0708; stroke-opacity:1; 
stroke-linecap:round; stroke-linejoin:round;">
<text x="17.9945" y="12.5400"
textLength="0.8520" font-size="1.1333" lengthAdjust="spacingAndGlyphs"
text-anchor="middle" opacity="0" stroke-opacity="0">1</text>
<g class="stroked-text"><desc>1</desc>
<path d="M18.2374 12.5045
L17.7517 12.5045
" />
<path d="M17.9945 12.5045
L17.9945 11.6545
" />
<path d="M17.9945 11.6545
L17.9136 11.7760
" />
<path d="M17.9136 11.7760
L17.8326 11.8569
" />
<path d="M17.8326 11.8569
L17.7517 11.8974
" />
</g><path style="fill:none; 
stroke:#585D84; stroke-width:0.0212; stroke-opacity:1; 
stroke-linecap:round; stroke-linejoin:round;fill:none"
d="M 16.7195,11.1150
16.7386,11.0193
16.7927,10.9382
16.8739,10.8840
16.9695,10.8650
19.0195,10.8650
19.1152,10.8840
19.1963,10.9382
19.2505,11.0193
19.2695,11.1150
19.2695,13.1150
19.2505,13.2107
19.1963,13.2918
19.1152,13.3460
19.0195,13.3650
16.9695,13.3650
16.8739,13.3460
16.7927,13.2918
16.7386,13.2107
16.7195,13.1150
Z" /> 
</g>
<g style="fill:none; 
stroke:#585D84; stroke-width:0.0708; stroke-opacity:1; 
stroke-linecap:round; stroke-linejoin:round;">
<text x="4.1445" y="15.0800"
textLength="0.8520" font-size="1.1333" lengthAdjust="spacingAndGlyphs"
text-anchor="middle" opacity="0" stroke-opacity="0">2</text>
<g class="stroked-text"><desc>2</desc>
<path d="M3.9017 14.2755
L3.9421 14.2350
" />
<path d="M3.9421 14.2350
L4.0231 14.1945
" />
<path d="M4.0231 14.1945
L4.2255 14.1945
" />
<path d="M4.2255 14.1945
L4.3064 14.2350
" />
<path d="M4.3064 14.2350
L4.3469 14.2755
" />
<path d="M4.3469 14.2755
L4.3874 14.3564
" />
<path d="M4.3874 14.3564
L4.3874 14.4374
" />
<path d="M4.3874 14.4374
L4.3469 14.5588
" />
<path d="M4.3469 14.5588
L3.8612 15.0445
" />
<path d="M3.8612 15.0445
L4.3874 15.0445
" />
</g><path style="fill:none; 
stroke:#585D84; stroke-width:0.0212; stroke-opacity:1; 
stroke-linecap:round; stroke-linejoin:round;fill:none"
d="M 2.8695,13.6550
2.8886,13.5593
2.9427,13.4782
3.0239,13.4240
3.1195,13.4050
5.1695,13.4050
5.2652,13.4240
5.3463,13.4782
5.4005,13.5593
5.4195,13.6550
5.4195,15.6550
5.4005,15.7507
5.3463,15.8318
5.2652,15.8860
5.1695,15.9050
3.1195,15.9050
3.0239,15.8860
2.9427,15.8318
2.8886,15.7507
2.8695,15.6550
Z" /> 
</g>
<g style="fill:none; 
stroke:#585D84; stroke-width:0.0639; stroke-opacity:1; 
stroke-linecap:round; stroke-linejoin:round;">
<text x="6.6245" y="7.4183"
textLength="0.7685" font-size="1.0222" lengthAdjust="spacingAndGlyphs"
text-anchor="middle" opacity="0" stroke-opacity="0">2</text>
<g class="stroked-text"><desc>2</desc>
<path d="M6.4055 6.6927
L6.4420 6.6562
" />
<path d="M6.4420 6.6562
L6.5150 6.6197
" />
<path d="M6.5150 6.6197
L6.6975 6.6197
" />
<path d="M6.6975 6.6197
L6.7706 6.6562
" />
<path d="M6.7706 6.6562
L6.8071 6.6927
" />
<path d="M6.8071 6.6927
L6.8436 6.7657
" />
<path d="M6.8436 6.7657
L6.8436 6.8387
" />
<path d="M6.8436 6.8387
L6.8071 6.9483
" />
<path d="M6.8071 6.9483
L6.3690 7.3864
" />
<path d="M6.3690 7.3864
L6.8436 7.3864
" />
</g></g>
<g style="fill:none; 
stroke:#585D84; stroke-width:0.0212; stroke-opacity:1; 
stroke-linecap:round; stroke-linejoin:round;">
<circle cx="6.6245" cy="7.0350" r="1.1500" /> 
<path style="fill:none; 
stroke:#AFAFAF; stroke-width:0.1000; stroke-opacity:1; 
stroke-linecap:round; stroke-linejoin:round;fill:none"
d="M 3.4345,2.5750
17.4345,2.5750
17.4345,16.5750
3.4345,16.5750
Z" /> 
</g>
<g style="fill:none; 
stroke:#AFAFAF; stroke-width:0.0212; stroke-opacity:1; 
stroke-linecap:round; stroke-linejoin:round;">
<circle cx="5.3545" cy="9.5750" r="0.8500" /> 
</g>
<g style="fill:none; 
stroke:#AFAFAF; stroke-width:0.0212; stroke-opacity:1; 
stroke-linecap:round; stroke-linejoin:round;">
<circle cx="7.8945" cy="14.6550" r="1.5000" /> 
</g>
<g style="fill:none; 
stroke:#AFAFAF; stroke-width:0.0212; stroke-opacity:1; 
stroke-linecap:round; stroke-linejoin:round;">
<circle cx="10.4345" cy="9.5750" r="2.0000" /> 
</g>
<g style="fill:none; 
stroke:#AFAFAF; stroke-width:0.0212; stroke-opacity:1; 
stroke-linecap:round; stroke-linejoin:round;">
<circle cx="14.2445" cy="12.1150" r="1.5000" /> 
</g>
<g style="fill:none; 
stroke:#AFAFAF; stroke-width:0.0212; stroke-opacity:1; 
stroke-linecap:round; stroke-linejoin:round;">
<circle cx="15.5145" cy="9.5750" r="0.8500" /> 
</g>
<g style="fill:none; 
stroke:#AFAFAF; stroke-width:0.0639; stroke-opacity:1; 
stroke-linecap:round; stroke-linejoin:round;">
<text x="12.9745" y="4.8783"
textLength="0.7685" font-size="1.0222" lengthAdjust="spacingAndGlyphs"
text-anchor="middle" opacity="0" stroke-opacity="0">1</text>
<g class="stroked-text"><desc>1</desc>
<path d="M13.1936 4.8464
L12.7555 4.8464
" />
<path d="M12.9745 4.8464
L12.9745 4.0797
" />
<path d="M12.9745 4.0797
L12.9015 4.1892
" />
<path d="M12.9015 4.1892
L12.8285 4.2622
" />
<path d="M12.8285 4.2622
L12.7555 4.2987
" />
</g></g>
<g style="fill:none; 
stroke:#AFAFAF; stroke-width:0.0212; stroke-opacity:1; 
stroke-linecap:round; stroke-linejoin:round;">
<circle cx="12.9745" cy="4.4950" r="1.1500" /> 
</g>
<g style="fill:none; 
stroke:#AFAFAF; stroke-width:0.0639; stroke-opacity:1; 
stroke-linecap:round; stroke-linejoin:round;">
<text x="6.6245" y="7.4183"
textLength="0.7685" font-size="1.0222" lengthAdjust="spacingAndGlyphs"
text-anchor="middle" opacity="0" stroke-opacity="0">2</text>
<g class="stroked-text"><desc>2</desc>
<path d="M6.4055 6.6927
L6.4420 6.6562
" />
<path d="M6.4420 6.6562
L6.5150 6.6197
" />
<path d="M6.5150 6.6197
L6.6975 6.6197
" />
<path d="M6.6975 6.6197
L6.7706 6.6562
" />
<path d="M6.7706 6.6562
L6.8071 6.6927
" />
<path d="M6.8071 6.6927
L6.8436 6.7657
" />
<path d="M6.8436 6.7657
L6.8436 6.8387
" />
<path d="M6.8436 6.8387
L6.8071 6.9483
" />
<path d="M6.8071 6.9483
L6.3690 7.3864
" />
<path d="M6.3690 7.3864
L6.8436 7.3864
" />
</g></g>
<g style="fill:none; 
stroke:#AFAFAF; stroke-width:0.0212; stroke-opacity:1; 
stroke-linecap:round; stroke-linejoin:round;">
<circle cx="6.6245" cy="7.0350" r="1.1500" /> 
<path style="fill:none; 
stroke:#C2C2C2; stroke-width:0.1000; stroke-opacity:1; 
stroke-linecap:round; stroke-linejoin:round;fill:none"
d="M 0.9095,0.0500
19.9595,0.0500
19.9595,19.1000
0.9095,19.1000
Z" /> 
</g> 
</svg>
