<?xml version="1.0" standalone="no"?>
 <!DOCTYPE svg PUBLIC "-//W3C//DTD SVG 1.1//EN" 
 "http://www.w3.org/Graphics/SVG/1.1/DTD/svg11.dtd"> 
<svg
  xmlns:svg="http://www.w3.org/2000/svg"
  xmlns="http://www.w3.org/2000/svg"
  xmlns:xlink="http://www.w3.org/1999/xlink"
  version="1.1"
  width="24.8920mm" height="20.3200mm" viewBox="0.0000 0.0000 24.8920 20.3200">
<title>SVG Image created as SW_MX_Slim_HotSwap_THT_sqSilk.svg date 2025/05/13 13:29:23 </title>
  <desc>Image generated by PCBNEW </desc>
<g style="fill:#000000; fill-opacity:1.0000;stroke:#000000; stroke-opacity:1.0000;
stroke-linecap:round; stroke-linejoin:round;"
 transform="translate(0 0) scale(1 1)">
</g>
<g style="fill:none; 
stroke:#E8B2A7; stroke-width:0.1200; stroke-opacity:1; 
stroke-linecap:round; stroke-linejoin:round;">
<path d="M5.3583 2.8750
L5.3583 16.2750
" />
<path d="M5.7583 16.6750
L19.1583 16.6750
" />
<path d="M19.1583 2.4750
L5.7583 2.4750
" />
<path d="M19.5583 16.2750
L19.5583 2.8750
" />
<path d="M5.7583 2.4750 A0.4000 0.4000 0.0 0 0 5.3583 2.8750" />
<path d="M5.3583 16.2750 A0.4000 0.4000 0.0 0 0 5.7583 16.6750" />
<path d="M19.5583 2.8750 A0.4000 0.4000 0.0 0 0 19.1583 2.4750" />
<path d="M19.1583 16.6750 A0.4000 0.4000 0.0 0 0 19.5583 16.2750" />
</g>
<g style="fill:none; 
stroke:#F2EDA1; stroke-width:0.1500; stroke-opacity:1; 
stroke-linecap:round; stroke-linejoin:round;">
<text x="12.4583" y="13.0750"
textLength="4.5357" font-size="1.3333" lengthAdjust="spacingAndGlyphs"
text-anchor="middle" opacity="0" stroke-opacity="0">REF**</text>
<g class="stroked-text"><desc>REF**</desc>
<path d="M11.1250 13.0298
L10.7917 12.5536
" />
<path d="M10.5536 13.0298
L10.5536 12.0298
" />
<path d="M10.5536 12.0298
L10.9345 12.0298
" />
<path d="M10.9345 12.0298
L11.0298 12.0774
" />
<path d="M11.0298 12.0774
L11.0774 12.1251
" />
<path d="M11.0774 12.1251
L11.1250 12.2203
" />
<path d="M11.1250 12.2203
L11.1250 12.3632
" />
<path d="M11.1250 12.3632
L11.0774 12.4584
" />
<path d="M11.0774 12.4584
L11.0298 12.5060
" />
<path d="M11.0298 12.5060
L10.9345 12.5536
" />
<path d="M10.9345 12.5536
L10.5536 12.5536
" />
<path d="M11.5536 12.5060
L11.8869 12.5060
" />
<path d="M12.0298 13.0298
L11.5536 13.0298
" />
<path d="M11.5536 13.0298
L11.5536 12.0298
" />
<path d="M11.5536 12.0298
L12.0298 12.0298
" />
<path d="M12.7917 12.5060
L12.4583 12.5060
" />
<path d="M12.4583 13.0298
L12.4583 12.0298
" />
<path d="M12.4583 12.0298
L12.9345 12.0298
" />
<path d="M13.4583 12.0298
L13.4583 12.2679
" />
<path d="M13.2202 12.1727
L13.4583 12.2679
" />
<path d="M13.4583 12.2679
L13.6964 12.1727
" />
<path d="M13.3155 12.4584
L13.4583 12.2679
" />
<path d="M13.4583 12.2679
L13.6012 12.4584
" />
<path d="M14.2202 12.0298
L14.2202 12.2679
" />
<path d="M13.9821 12.1727
L14.2202 12.2679
" />
<path d="M14.2202 12.2679
L14.4583 12.1727
" />
<path d="M14.0774 12.4584
L14.2202 12.2679
" />
<path d="M14.2202 12.2679
L14.3631 12.4584
" />
</g></g>
<g style="fill:none; 
stroke:#F2EDA1; stroke-width:0.1200; stroke-opacity:1; 
stroke-linecap:round; stroke-linejoin:round;">
<path d="M7.3783 2.5900
L7.3783 2.9450
" />
<path d="M7.3783 7.0350
L7.3783 6.0450
" />
<path d="M7.3783 7.0350
L12.4583 7.0350
" />
<path d="M14.9225 8.9400
L16.6493 8.9400
" />
<path d="M16.2683 2.5900
L7.3783 2.5900
" />
<path d="M18.4583 8.9400
L18.8083 8.9400
" />
<path d="M18.8083 5.1300
L18.8083 5.4850
" />
<path d="M18.8083 8.5850
L18.8083 8.9400
" />
<path d="M14.9180 8.9412 A2.5400 2.5400 0.0 0 0 12.4583 7.0350" />
<path d="M18.8083 5.1300 A2.5400 2.5400 0.0 0 0 16.2683 2.5900" />
<path style="fill:#B4A09A; fill-opacity:0.9000; stroke:none;fill-rule:evenodd;"
d="M 18.7465,6.0350
18.7656,5.9393
18.8198,5.8582
18.9009,5.8040
18.9965,5.7850
20.2965,5.7850
20.3922,5.8040
20.4733,5.8582
20.5275,5.9393
20.5465,6.0350
20.5465,8.0350
20.5275,8.1307
20.4733,8.2118
20.3922,8.2660
20.2965,8.2850
18.9965,8.2850
18.9009,8.2660
18.8198,8.2118
18.7656,8.1307
18.7465,8.0350
Z" /> 
<path style="fill:#B4A09A; fill-opacity:0.9000; stroke:none;fill-rule:evenodd;"
d="M 5.6401,3.4950
5.6592,3.3993
5.7134,3.3182
5.7945,3.2640
5.8901,3.2450
7.1901,3.2450
7.2858,3.2640
7.3669,3.3182
7.4211,3.3993
7.4401,3.4950
7.4401,5.4950
7.4211,5.5907
7.3669,5.6718
7.2858,5.7260
7.1901,5.7450
5.8901,5.7450
5.7945,5.7260
5.7134,5.6718
5.6592,5.5907
5.6401,5.4950
Z" /> 
</g>
<g style="fill:#4D7FC4; fill-opacity:1.0000; stroke:none;">
<circle cx="14.9983" cy="14.6550" r="1.1500" /> 
</g>
<g style="fill:#4D7FC4; fill-opacity:1.0000; stroke:none;">
<circle cx="8.6483" cy="12.1150" r="1.1500" /> 
</g>
<g style="fill:#C83434; fill-opacity:1.0000; stroke:none;">
<circle cx="14.9983" cy="14.6550" r="1.1500" /> 
<path style="fill:#C83434; fill-opacity:1.0000; stroke:none;fill-rule:evenodd;"
d="M 18.7465,6.0350
18.7656,5.9393
18.8198,5.8582
18.9009,5.8040
18.9965,5.7850
20.2965,5.7850
20.3922,5.8040
20.4733,5.8582
20.5275,5.9393
20.5465,6.0350
20.5465,8.0350
20.5275,8.1307
20.4733,8.2118
20.3922,8.2660
20.2965,8.2850
18.9965,8.2850
18.9009,8.2660
18.8198,8.2118
18.7656,8.1307
18.7465,8.0350
Z" /> 
<path style="fill:#C83434; fill-opacity:1.0000; stroke:none;fill-rule:evenodd;"
d="M 5.6401,3.4950
5.6592,3.3993
5.7134,3.3182
5.7945,3.2640
5.8901,3.2450
7.1901,3.2450
7.2858,3.2640
7.3669,3.3182
7.4211,3.3993
7.4401,3.4950
7.4401,5.4950
7.4211,5.5907
7.3669,5.6718
7.2858,5.7260
7.1901,5.7450
5.8901,5.7450
5.7945,5.7260
5.7134,5.6718
5.6592,5.5907
5.6401,5.4950
Z" /> 
</g>
<g style="fill:#C83434; fill-opacity:1.0000; stroke:none;">
<circle cx="8.6483" cy="12.1150" r="1.1500" /> 
<path style="fill:none; 
stroke:#585D84; stroke-width:0.1000; stroke-opacity:1; 
stroke-linecap:round; stroke-linejoin:round;fill:none"
d="M 5.4583,2.5750
19.4583,2.5750
19.4583,16.5750
5.4583,16.5750
Z" /> 
</g>
<g style="fill:none; 
stroke:#585D84; stroke-width:0.0212; stroke-opacity:1; 
stroke-linecap:round; stroke-linejoin:round;">
<circle cx="7.3783" cy="9.5750" r="0.8500" /> 
</g>
<g style="fill:none; 
stroke:#585D84; stroke-width:0.0212; stroke-opacity:1; 
stroke-linecap:round; stroke-linejoin:round;">
<circle cx="9.9183" cy="4.4950" r="1.5000" /> 
</g>
<g style="fill:none; 
stroke:#585D84; stroke-width:0.0212; stroke-opacity:1; 
stroke-linecap:round; stroke-linejoin:round;">
<circle cx="12.4583" cy="9.5750" r="2.0000" /> 
</g>
<g style="fill:none; 
stroke:#585D84; stroke-width:0.0212; stroke-opacity:1; 
stroke-linecap:round; stroke-linejoin:round;">
<circle cx="16.2683" cy="7.0350" r="1.5000" /> 
</g>
<g style="fill:none; 
stroke:#585D84; stroke-width:0.0212; stroke-opacity:1; 
stroke-linecap:round; stroke-linejoin:round;">
<circle cx="17.5383" cy="9.5750" r="0.8500" /> 
</g>
<g style="fill:none; 
stroke:#585D84; stroke-width:0.0639; stroke-opacity:1; 
stroke-linecap:round; stroke-linejoin:round;">
<text x="14.9983" y="15.0383"
textLength="0.7685" font-size="1.0222" lengthAdjust="spacingAndGlyphs"
text-anchor="middle" opacity="0" stroke-opacity="0">1</text>
<g class="stroked-text"><desc>1</desc>
<path d="M15.2174 15.0063
L14.7793 15.0063
" />
<path d="M14.9983 15.0063
L14.9983 14.2397
" />
<path d="M14.9983 14.2397
L14.9253 14.3492
" />
<path d="M14.9253 14.3492
L14.8523 14.4222
" />
<path d="M14.8523 14.4222
L14.7793 14.4587
" />
</g></g>
<g style="fill:none; 
stroke:#585D84; stroke-width:0.0212; stroke-opacity:1; 
stroke-linecap:round; stroke-linejoin:round;">
<circle cx="14.9983" cy="14.6550" r="1.1500" /> 
</g>
<g style="fill:none; 
stroke:#585D84; stroke-width:0.0639; stroke-opacity:1; 
stroke-linecap:round; stroke-linejoin:round;">
<text x="8.6483" y="12.4983"
textLength="0.7685" font-size="1.0222" lengthAdjust="spacingAndGlyphs"
text-anchor="middle" opacity="0" stroke-opacity="0">2</text>
<g class="stroked-text"><desc>2</desc>
<path d="M8.4293 11.7727
L8.4658 11.7362
" />
<path d="M8.4658 11.7362
L8.5388 11.6997
" />
<path d="M8.5388 11.6997
L8.7213 11.6997
" />
<path d="M8.7213 11.6997
L8.7944 11.7362
" />
<path d="M8.7944 11.7362
L8.8309 11.7727
" />
<path d="M8.8309 11.7727
L8.8674 11.8457
" />
<path d="M8.8674 11.8457
L8.8674 11.9187
" />
<path d="M8.8674 11.9187
L8.8309 12.0283
" />
<path d="M8.8309 12.0283
L8.3928 12.4664
" />
<path d="M8.3928 12.4664
L8.8674 12.4664
" />
</g></g>
<g style="fill:none; 
stroke:#585D84; stroke-width:0.0212; stroke-opacity:1; 
stroke-linecap:round; stroke-linejoin:round;">
<circle cx="8.6483" cy="12.1150" r="1.1500" /> 
</g>
<g style="fill:none; 
stroke:#AFAFAF; stroke-width:0.1500; stroke-opacity:1; 
stroke-linecap:round; stroke-linejoin:round;">
<text x="12.4583" y="18.3750"
textLength="24.9167" font-size="1.3333" lengthAdjust="spacingAndGlyphs"
text-anchor="middle" opacity="0" stroke-opacity="0">SW_MX_Slim_HotSwap_THT_sqSilk</text>
<g class="stroked-text"><desc>SW_MX_Slim_HotSwap_THT_sqSilk</desc>
<path d="M0.3155 18.2822
L0.4583 18.3298
" />
<path d="M0.4583 18.3298
L0.6964 18.3298
" />
<path d="M0.6964 18.3298
L0.7917 18.2822
" />
<path d="M0.7917 18.2822
L0.8393 18.2346
" />
<path d="M0.8393 18.2346
L0.8869 18.1393
" />
<path d="M0.8869 18.1393
L0.8869 18.0441
" />
<path d="M0.8869 18.0441
L0.8393 17.9489
" />
<path d="M0.8393 17.9489
L0.7917 17.9012
" />
<path d="M0.7917 17.9012
L0.6964 17.8536
" />
<path d="M0.6964 17.8536
L0.5060 17.8060
" />
<path d="M0.5060 17.8060
L0.4107 17.7584
" />
<path d="M0.4107 17.7584
L0.3631 17.7108
" />
<path d="M0.3631 17.7108
L0.3155 17.6155
" />
<path d="M0.3155 17.6155
L0.3155 17.5203
" />
<path d="M0.3155 17.5203
L0.3631 17.4251
" />
<path d="M0.3631 17.4251
L0.4107 17.3774
" />
<path d="M0.4107 17.3774
L0.5060 17.3298
" />
<path d="M0.5060 17.3298
L0.7440 17.3298
" />
<path d="M0.7440 17.3298
L0.8869 17.3774
" />
<path d="M1.2202 17.3298
L1.4583 18.3298
" />
<path d="M1.4583 18.3298
L1.6488 17.6155
" />
<path d="M1.6488 17.6155
L1.8393 18.3298
" />
<path d="M1.8393 18.3298
L2.0774 17.3298
" />
<path d="M2.2202 18.4251
L2.9821 18.4251
" />
<path d="M3.2202 18.3298
L3.2202 17.3298
" />
<path d="M3.2202 17.3298
L3.5536 18.0441
" />
<path d="M3.5536 18.0441
L3.8869 17.3298
" />
<path d="M3.8869 17.3298
L3.8869 18.3298
" />
<path d="M4.2679 17.3298
L4.9345 18.3298
" />
<path d="M4.9345 17.3298
L4.2679 18.3298
" />
<path d="M5.0774 18.4251
L5.8393 18.4251
" />
<path d="M6.0298 18.2822
L6.1726 18.3298
" />
<path d="M6.1726 18.3298
L6.4107 18.3298
" />
<path d="M6.4107 18.3298
L6.5060 18.2822
" />
<path d="M6.5060 18.2822
L6.5536 18.2346
" />
<path d="M6.5536 18.2346
L6.6012 18.1393
" />
<path d="M6.6012 18.1393
L6.6012 18.0441
" />
<path d="M6.6012 18.0441
L6.5536 17.9489
" />
<path d="M6.5536 17.9489
L6.5060 17.9012
" />
<path d="M6.5060 17.9012
L6.4107 17.8536
" />
<path d="M6.4107 17.8536
L6.2202 17.8060
" />
<path d="M6.2202 17.8060
L6.1250 17.7584
" />
<path d="M6.1250 17.7584
L6.0774 17.7108
" />
<path d="M6.0774 17.7108
L6.0298 17.6155
" />
<path d="M6.0298 17.6155
L6.0298 17.5203
" />
<path d="M6.0298 17.5203
L6.0774 17.4251
" />
<path d="M6.0774 17.4251
L6.1250 17.3774
" />
<path d="M6.1250 17.3774
L6.2202 17.3298
" />
<path d="M6.2202 17.3298
L6.4583 17.3298
" />
<path d="M6.4583 17.3298
L6.6012 17.3774
" />
<path d="M7.1726 18.3298
L7.0774 18.2822
" />
<path d="M7.0774 18.2822
L7.0298 18.1870
" />
<path d="M7.0298 18.1870
L7.0298 17.3298
" />
<path d="M7.5536 18.3298
L7.5536 17.6632
" />
<path d="M7.5536 17.3298
L7.5060 17.3774
" />
<path d="M7.5060 17.3774
L7.5536 17.4251
" />
<path d="M7.5536 17.4251
L7.6012 17.3774
" />
<path d="M7.6012 17.3774
L7.5536 17.3298
" />
<path d="M7.5536 17.3298
L7.5536 17.4251
" />
<path d="M8.0298 18.3298
L8.0298 17.6632
" />
<path d="M8.0298 17.7584
L8.0774 17.7108
" />
<path d="M8.0774 17.7108
L8.1726 17.6632
" />
<path d="M8.1726 17.6632
L8.3155 17.6632
" />
<path d="M8.3155 17.6632
L8.4107 17.7108
" />
<path d="M8.4107 17.7108
L8.4583 17.8060
" />
<path d="M8.4583 17.8060
L8.4583 18.3298
" />
<path d="M8.4583 17.8060
L8.5060 17.7108
" />
<path d="M8.5060 17.7108
L8.6012 17.6632
" />
<path d="M8.6012 17.6632
L8.7440 17.6632
" />
<path d="M8.7440 17.6632
L8.8393 17.7108
" />
<path d="M8.8393 17.7108
L8.8869 17.8060
" />
<path d="M8.8869 17.8060
L8.8869 18.3298
" />
<path d="M9.1250 18.4251
L9.8869 18.4251
" />
<path d="M10.1250 18.3298
L10.1250 17.3298
" />
<path d="M10.1250 17.8060
L10.6964 17.8060
" />
<path d="M10.6964 18.3298
L10.6964 17.3298
" />
<path d="M11.3155 18.3298
L11.2202 18.2822
" />
<path d="M11.2202 18.2822
L11.1726 18.2346
" />
<path d="M11.1726 18.2346
L11.1250 18.1393
" />
<path d="M11.1250 18.1393
L11.1250 17.8536
" />
<path d="M11.1250 17.8536
L11.1726 17.7584
" />
<path d="M11.1726 17.7584
L11.2202 17.7108
" />
<path d="M11.2202 17.7108
L11.3155 17.6632
" />
<path d="M11.3155 17.6632
L11.4583 17.6632
" />
<path d="M11.4583 17.6632
L11.5536 17.7108
" />
<path d="M11.5536 17.7108
L11.6012 17.7584
" />
<path d="M11.6012 17.7584
L11.6488 17.8536
" />
<path d="M11.6488 17.8536
L11.6488 18.1393
" />
<path d="M11.6488 18.1393
L11.6012 18.2346
" />
<path d="M11.6012 18.2346
L11.5536 18.2822
" />
<path d="M11.5536 18.2822
L11.4583 18.3298
" />
<path d="M11.4583 18.3298
L11.3155 18.3298
" />
<path d="M11.9345 17.6632
L12.3155 17.6632
" />
<path d="M12.0774 17.3298
L12.0774 18.1870
" />
<path d="M12.0774 18.1870
L12.1250 18.2822
" />
<path d="M12.1250 18.2822
L12.2202 18.3298
" />
<path d="M12.2202 18.3298
L12.3155 18.3298
" />
<path d="M12.6012 18.2822
L12.7440 18.3298
" />
<path d="M12.7440 18.3298
L12.9821 18.3298
" />
<path d="M12.9821 18.3298
L13.0774 18.2822
" />
<path d="M13.0774 18.2822
L13.1250 18.2346
" />
<path d="M13.1250 18.2346
L13.1726 18.1393
" />
<path d="M13.1726 18.1393
L13.1726 18.0441
" />
<path d="M13.1726 18.0441
L13.1250 17.9489
" />
<path d="M13.1250 17.9489
L13.0774 17.9012
" />
<path d="M13.0774 17.9012
L12.9821 17.8536
" />
<path d="M12.9821 17.8536
L12.7917 17.8060
" />
<path d="M12.7917 17.8060
L12.6964 17.7584
" />
<path d="M12.6964 17.7584
L12.6488 17.7108
" />
<path d="M12.6488 17.7108
L12.6012 17.6155
" />
<path d="M12.6012 17.6155
L12.6012 17.5203
" />
<path d="M12.6012 17.5203
L12.6488 17.4251
" />
<path d="M12.6488 17.4251
L12.6964 17.3774
" />
<path d="M12.6964 17.3774
L12.7917 17.3298
" />
<path d="M12.7917 17.3298
L13.0298 17.3298
" />
<path d="M13.0298 17.3298
L13.1726 17.3774
" />
<path d="M13.5060 17.6632
L13.6964 18.3298
" />
<path d="M13.6964 18.3298
L13.8869 17.8536
" />
<path d="M13.8869 17.8536
L14.0774 18.3298
" />
<path d="M14.0774 18.3298
L14.2679 17.6632
" />
<path d="M15.0774 18.3298
L15.0774 17.8060
" />
<path d="M15.0774 17.8060
L15.0298 17.7108
" />
<path d="M15.0298 17.7108
L14.9345 17.6632
" />
<path d="M14.9345 17.6632
L14.7440 17.6632
" />
<path d="M14.7440 17.6632
L14.6488 17.7108
" />
<path d="M15.0774 18.2822
L14.9821 18.3298
" />
<path d="M14.9821 18.3298
L14.7440 18.3298
" />
<path d="M14.7440 18.3298
L14.6488 18.2822
" />
<path d="M14.6488 18.2822
L14.6012 18.1870
" />
<path d="M14.6012 18.1870
L14.6012 18.0917
" />
<path d="M14.6012 18.0917
L14.6488 17.9965
" />
<path d="M14.6488 17.9965
L14.7440 17.9489
" />
<path d="M14.7440 17.9489
L14.9821 17.9489
" />
<path d="M14.9821 17.9489
L15.0774 17.9012
" />
<path d="M15.5536 17.6632
L15.5536 18.6632
" />
<path d="M15.5536 17.7108
L15.6488 17.6632
" />
<path d="M15.6488 17.6632
L15.8393 17.6632
" />
<path d="M15.8393 17.6632
L15.9345 17.7108
" />
<path d="M15.9345 17.7108
L15.9821 17.7584
" />
<path d="M15.9821 17.7584
L16.0298 17.8536
" />
<path d="M16.0298 17.8536
L16.0298 18.1393
" />
<path d="M16.0298 18.1393
L15.9821 18.2346
" />
<path d="M15.9821 18.2346
L15.9345 18.2822
" />
<path d="M15.9345 18.2822
L15.8393 18.3298
" />
<path d="M15.8393 18.3298
L15.6488 18.3298
" />
<path d="M15.6488 18.3298
L15.5536 18.2822
" />
<path d="M16.2202 18.4251
L16.9821 18.4251
" />
<path d="M17.0774 17.3298
L17.6488 17.3298
" />
<path d="M17.3631 18.3298
L17.3631 17.3298
" />
<path d="M17.9821 18.3298
L17.9821 17.3298
" />
<path d="M17.9821 17.8060
L18.5536 17.8060
" />
<path d="M18.5536 18.3298
L18.5536 17.3298
" />
<path d="M18.8869 17.3298
L19.4583 17.3298
" />
<path d="M19.1726 18.3298
L19.1726 17.3298
" />
<path d="M19.5536 18.4251
L20.3155 18.4251
" />
<path d="M20.5060 18.2822
L20.6012 18.3298
" />
<path d="M20.6012 18.3298
L20.7917 18.3298
" />
<path d="M20.7917 18.3298
L20.8869 18.2822
" />
<path d="M20.8869 18.2822
L20.9345 18.1870
" />
<path d="M20.9345 18.1870
L20.9345 18.1393
" />
<path d="M20.9345 18.1393
L20.8869 18.0441
" />
<path d="M20.8869 18.0441
L20.7917 17.9965
" />
<path d="M20.7917 17.9965
L20.6488 17.9965
" />
<path d="M20.6488 17.9965
L20.5536 17.9489
" />
<path d="M20.5536 17.9489
L20.5060 17.8536
" />
<path d="M20.5060 17.8536
L20.5060 17.8060
" />
<path d="M20.5060 17.8060
L20.5536 17.7108
" />
<path d="M20.5536 17.7108
L20.6488 17.6632
" />
<path d="M20.6488 17.6632
L20.7917 17.6632
" />
<path d="M20.7917 17.6632
L20.8869 17.7108
" />
<path d="M21.7917 17.6632
L21.7917 18.6632
" />
<path d="M21.7917 18.2822
L21.6964 18.3298
" />
<path d="M21.6964 18.3298
L21.5060 18.3298
" />
<path d="M21.5060 18.3298
L21.4107 18.2822
" />
<path d="M21.4107 18.2822
L21.3631 18.2346
" />
<path d="M21.3631 18.2346
L21.3155 18.1393
" />
<path d="M21.3155 18.1393
L21.3155 17.8536
" />
<path d="M21.3155 17.8536
L21.3631 17.7584
" />
<path d="M21.3631 17.7584
L21.4107 17.7108
" />
<path d="M21.4107 17.7108
L21.5060 17.6632
" />
<path d="M21.5060 17.6632
L21.6964 17.6632
" />
<path d="M21.6964 17.6632
L21.7917 17.7108
" />
<path d="M22.2202 18.2822
L22.3631 18.3298
" />
<path d="M22.3631 18.3298
L22.6012 18.3298
" />
<path d="M22.6012 18.3298
L22.6964 18.2822
" />
<path d="M22.6964 18.2822
L22.7440 18.2346
" />
<path d="M22.7440 18.2346
L22.7917 18.1393
" />
<path d="M22.7917 18.1393
L22.7917 18.0441
" />
<path d="M22.7917 18.0441
L22.7440 17.9489
" />
<path d="M22.7440 17.9489
L22.6964 17.9012
" />
<path d="M22.6964 17.9012
L22.6012 17.8536
" />
<path d="M22.6012 17.8536
L22.4107 17.8060
" />
<path d="M22.4107 17.8060
L22.3155 17.7584
" />
<path d="M22.3155 17.7584
L22.2679 17.7108
" />
<path d="M22.2679 17.7108
L22.2202 17.6155
" />
<path d="M22.2202 17.6155
L22.2202 17.5203
" />
<path d="M22.2202 17.5203
L22.2679 17.4251
" />
<path d="M22.2679 17.4251
L22.3155 17.3774
" />
<path d="M22.3155 17.3774
L22.4107 17.3298
" />
<path d="M22.4107 17.3298
L22.6488 17.3298
" />
<path d="M22.6488 17.3298
L22.7917 17.3774
" />
<path d="M23.2202 18.3298
L23.2202 17.6632
" />
<path d="M23.2202 17.3298
L23.1726 17.3774
" />
<path d="M23.1726 17.3774
L23.2202 17.4251
" />
<path d="M23.2202 17.4251
L23.2679 17.3774
" />
<path d="M23.2679 17.3774
L23.2202 17.3298
" />
<path d="M23.2202 17.3298
L23.2202 17.4251
" />
<path d="M23.8393 18.3298
L23.7440 18.2822
" />
<path d="M23.7440 18.2822
L23.6964 18.1870
" />
<path d="M23.6964 18.1870
L23.6964 17.3298
" />
<path d="M24.2202 18.3298
L24.2202 17.3298
" />
<path d="M24.3155 17.9489
L24.6012 18.3298
" />
<path d="M24.6012 17.6632
L24.2202 18.0441
" />
</g><text x="12.4583" y="19.9750"
textLength="4.5357" font-size="1.3333" lengthAdjust="spacingAndGlyphs"
text-anchor="middle" opacity="0" stroke-opacity="0">REF**</text>
<g class="stroked-text"><desc>REF**</desc>
<path d="M11.1250 19.9298
L10.7917 19.4536
" />
<path d="M10.5536 19.9298
L10.5536 18.9298
" />
<path d="M10.5536 18.9298
L10.9345 18.9298
" />
<path d="M10.9345 18.9298
L11.0298 18.9774
" />
<path d="M11.0298 18.9774
L11.0774 19.0251
" />
<path d="M11.0774 19.0251
L11.1250 19.1203
" />
<path d="M11.1250 19.1203
L11.1250 19.2632
" />
<path d="M11.1250 19.2632
L11.0774 19.3584
" />
<path d="M11.0774 19.3584
L11.0298 19.4060
" />
<path d="M11.0298 19.4060
L10.9345 19.4536
" />
<path d="M10.9345 19.4536
L10.5536 19.4536
" />
<path d="M11.5536 19.4060
L11.8869 19.4060
" />
<path d="M12.0298 19.9298
L11.5536 19.9298
" />
<path d="M11.5536 19.9298
L11.5536 18.9298
" />
<path d="M11.5536 18.9298
L12.0298 18.9298
" />
<path d="M12.7917 19.4060
L12.4583 19.4060
" />
<path d="M12.4583 19.9298
L12.4583 18.9298
" />
<path d="M12.4583 18.9298
L12.9345 18.9298
" />
<path d="M13.4583 18.9298
L13.4583 19.1679
" />
<path d="M13.2202 19.0727
L13.4583 19.1679
" />
<path d="M13.4583 19.1679
L13.6964 19.0727
" />
<path d="M13.3155 19.3584
L13.4583 19.1679
" />
<path d="M13.4583 19.1679
L13.6012 19.3584
" />
<path d="M14.2202 18.9298
L14.2202 19.1679
" />
<path d="M13.9821 19.0727
L14.2202 19.1679
" />
<path d="M14.2202 19.1679
L14.4583 19.0727
" />
<path d="M14.0774 19.3584
L14.2202 19.1679
" />
<path d="M14.2202 19.1679
L14.3631 19.3584
" />
</g></g>
<g style="fill:none; 
stroke:#AFAFAF; stroke-width:0.1000; stroke-opacity:1; 
stroke-linecap:round; stroke-linejoin:round;">
<path d="M5.6003 3.2250
L5.6003 5.7650
" />
<path d="M5.6003 5.7650
L7.3783 5.7650
" />
<path d="M7.3783 2.5900
L7.3783 7.0350
" />
<path d="M7.3783 3.2250
L5.6003 3.2250
" />
<path d="M7.3783 7.0350
L12.4583 7.0350
" />
<path d="M16.2683 2.5900
L7.3783 2.5900
" />
<path d="M18.8083 8.3050
L20.5609 8.3050
" />
<path d="M18.8083 8.9400
L14.9983 8.9400
" />
<path d="M18.8083 8.9400
L18.8083 5.1300
" />
<path d="M20.5609 5.7650
L18.8083 5.7650
" />
<path d="M20.5609 8.3050
L20.5609 5.7650
" />
<path d="M14.9225 8.9590 A2.5400 2.5400 0.0 0 0 12.4583 7.0350" />
<path d="M18.8083 5.1300 A2.5400 2.5400 0.0 0 0 16.2683 2.5900" />
</g>
<g style="fill:none; 
stroke:#AFAFAF; stroke-width:0.0212; stroke-opacity:1; 
stroke-linecap:round; stroke-linejoin:round;">
<circle cx="7.3783" cy="9.5750" r="0.8500" /> 
</g>
<g style="fill:none; 
stroke:#AFAFAF; stroke-width:0.0212; stroke-opacity:1; 
stroke-linecap:round; stroke-linejoin:round;">
<circle cx="9.9183" cy="4.4950" r="1.5000" /> 
</g>
<g style="fill:none; 
stroke:#AFAFAF; stroke-width:0.0212; stroke-opacity:1; 
stroke-linecap:round; stroke-linejoin:round;">
<circle cx="12.4583" cy="9.5750" r="2.0000" /> 
</g>
<g style="fill:none; 
stroke:#AFAFAF; stroke-width:0.0212; stroke-opacity:1; 
stroke-linecap:round; stroke-linejoin:round;">
<circle cx="16.2683" cy="7.0350" r="1.5000" /> 
</g>
<g style="fill:none; 
stroke:#AFAFAF; stroke-width:0.0212; stroke-opacity:1; 
stroke-linecap:round; stroke-linejoin:round;">
<circle cx="17.5383" cy="9.5750" r="0.8500" /> 
</g>
<g style="fill:none; 
stroke:#AFAFAF; stroke-width:0.0639; stroke-opacity:1; 
stroke-linecap:round; stroke-linejoin:round;">
<text x="14.9983" y="15.0383"
textLength="0.7685" font-size="1.0222" lengthAdjust="spacingAndGlyphs"
text-anchor="middle" opacity="0" stroke-opacity="0">1</text>
<g class="stroked-text"><desc>1</desc>
<path d="M15.2174 15.0063
L14.7793 15.0063
" />
<path d="M14.9983 15.0063
L14.9983 14.2397
" />
<path d="M14.9983 14.2397
L14.9253 14.3492
" />
<path d="M14.9253 14.3492
L14.8523 14.4222
" />
<path d="M14.8523 14.4222
L14.7793 14.4587
" />
</g></g>
<g style="fill:none; 
stroke:#AFAFAF; stroke-width:0.0212; stroke-opacity:1; 
stroke-linecap:round; stroke-linejoin:round;">
<circle cx="14.9983" cy="14.6550" r="1.1500" /> 
</g>
<g style="fill:none; 
stroke:#AFAFAF; stroke-width:0.0694; stroke-opacity:1; 
stroke-linecap:round; stroke-linejoin:round;">
<g transform="rotate(-90.000000 19.6465 7.0350)">
<text x="19.6465" y="7.4517"
textLength="0.8353" font-size="1.1111" lengthAdjust="spacingAndGlyphs"
text-anchor="middle" opacity="0" stroke-opacity="0">1</text>
</g>
<g class="stroked-text"><desc>1</desc>
<path d="M20.0284 6.7969
L20.0284 7.2731
" />
<path d="M20.0284 7.0350
L19.1951 7.0350
" />
<path d="M19.1951 7.0350
L19.3142 7.1144
" />
<path d="M19.3142 7.1144
L19.3935 7.1937
" />
<path d="M19.3935 7.1937
L19.4332 7.2731
" />
</g><path style="fill:none; 
stroke:#AFAFAF; stroke-width:0.0212; stroke-opacity:1; 
stroke-linecap:round; stroke-linejoin:round;fill:none"
d="M 18.7465,6.0350
18.7656,5.9393
18.8198,5.8582
18.9009,5.8040
18.9965,5.7850
20.2965,5.7850
20.3922,5.8040
20.4733,5.8582
20.5275,5.9393
20.5465,6.0350
20.5465,8.0350
20.5275,8.1307
20.4733,8.2118
20.3922,8.2660
20.2965,8.2850
18.9965,8.2850
18.9009,8.2660
18.8198,8.2118
18.7656,8.1307
18.7465,8.0350
Z" /> 
</g>
<g style="fill:none; 
stroke:#AFAFAF; stroke-width:0.0694; stroke-opacity:1; 
stroke-linecap:round; stroke-linejoin:round;">
<g transform="rotate(-90.000000 6.5401 4.4950)">
<text x="6.5401" y="4.9117"
textLength="0.8353" font-size="1.1111" lengthAdjust="spacingAndGlyphs"
text-anchor="middle" opacity="0" stroke-opacity="0">2</text>
</g>
<g class="stroked-text"><desc>2</desc>
<path d="M6.1681 4.7331
L6.1284 4.6934
" />
<path d="M6.1284 4.6934
L6.0887 4.6140
" />
<path d="M6.0887 4.6140
L6.0887 4.4156
" />
<path d="M6.0887 4.4156
L6.1284 4.3363
" />
<path d="M6.1284 4.3363
L6.1681 4.2966
" />
<path d="M6.1681 4.2966
L6.2474 4.2569
" />
<path d="M6.2474 4.2569
L6.3268 4.2569
" />
<path d="M6.3268 4.2569
L6.4458 4.2966
" />
<path d="M6.4458 4.2966
L6.9220 4.7728
" />
<path d="M6.9220 4.7728
L6.9220 4.2569
" />
</g><path style="fill:none; 
stroke:#AFAFAF; stroke-width:0.0212; stroke-opacity:1; 
stroke-linecap:round; stroke-linejoin:round;fill:none"
d="M 5.6401,3.4950
5.6592,3.3993
5.7134,3.3182
5.7945,3.2640
5.8901,3.2450
7.1901,3.2450
7.2858,3.2640
7.3669,3.3182
7.4211,3.3993
7.4401,3.4950
7.4401,5.4950
7.4211,5.5907
7.3669,5.6718
7.2858,5.7260
7.1901,5.7450
5.8901,5.7450
5.7945,5.7260
5.7134,5.6718
5.6592,5.5907
5.6401,5.4950
Z" /> 
</g>
<g style="fill:none; 
stroke:#AFAFAF; stroke-width:0.0639; stroke-opacity:1; 
stroke-linecap:round; stroke-linejoin:round;">
<text x="8.6483" y="12.4983"
textLength="0.7685" font-size="1.0222" lengthAdjust="spacingAndGlyphs"
text-anchor="middle" opacity="0" stroke-opacity="0">2</text>
<g class="stroked-text"><desc>2</desc>
<path d="M8.4293 11.7727
L8.4658 11.7362
" />
<path d="M8.4658 11.7362
L8.5388 11.6997
" />
<path d="M8.5388 11.6997
L8.7213 11.6997
" />
<path d="M8.7213 11.6997
L8.7944 11.7362
" />
<path d="M8.7944 11.7362
L8.8309 11.7727
" />
<path d="M8.8309 11.7727
L8.8674 11.8457
" />
<path d="M8.8674 11.8457
L8.8674 11.9187
" />
<path d="M8.8674 11.9187
L8.8309 12.0283
" />
<path d="M8.8309 12.0283
L8.3928 12.4664
" />
<path d="M8.3928 12.4664
L8.8674 12.4664
" />
</g></g>
<g style="fill:none; 
stroke:#AFAFAF; stroke-width:0.0212; stroke-opacity:1; 
stroke-linecap:round; stroke-linejoin:round;">
<circle cx="8.6483" cy="12.1150" r="1.1500" /> 
<path style="fill:none; 
stroke:#C2C2C2; stroke-width:0.1000; stroke-opacity:1; 
stroke-linecap:round; stroke-linejoin:round;fill:none"
d="M 2.9333,0.0500
21.9833,0.0500
21.9833,19.1000
2.9333,19.1000
Z" /> 
</g> 
</svg>
