<svg xmlns="http://www.w3.org/2000/svg" width="80.448" height="80.928" viewBox="0 0 21.285 21.412">
    <g class="stroked-text" style="fill:none;stroke:#f2eda1;stroke-width:.15;stroke-opacity:1;stroke-linecap:round;stroke-linejoin:round">
        <path d="m10.493 4.95-.333-.476M9.922 4.95v-1M9.922 3.95h.38M10.303 3.95l.095.047M10.398 3.997l.048.048M10.446 4.045l.047.095M10.493 4.14v.143M10.493 4.283l-.047.095M10.446 4.378l-.048.048M10.398 4.426l-.095.048M10.303 4.474h-.381M10.922 4.426h.333M11.398 4.95h-.476M10.922 4.95v-1M10.922 3.95h.476M12.16 4.426h-.333M11.827 4.95v-1M11.827 3.95h.476M12.827 3.95v.238M12.589 4.093l.238.095M12.827 4.188l.238-.095M12.684 4.378l.143-.19M12.827 4.188l.143.19M13.589 3.95v.238M13.35 4.093l.239.095M13.589 4.188l.238-.095M13.446 4.378l.143-.19M13.589 4.188l.142.19"/>
    </g>
    <g style="fill:none;stroke:#f2eda1;stroke-width:.12;stroke-opacity:1;stroke-linecap:round;stroke-linejoin:round">
        <path d="M5.569 2.59v.355M5.569 2.59h1.68M5.569 7.035v-.99M5.569 7.035h5.08M12.249 2.59h-3.2M13.113 8.94h1.27M14.459 2.59h-.41M16.999 5.13v.355M13.109 8.941a2.54 2.54 0 0 0-2.46-1.906M16.999 5.13a2.54 2.54 0 0 0-2.54-2.54"/>
        <path stroke="none" d="m16.934 6.035.019-.096.054-.08.081-.055.096-.019h2.05l.095.019.082.054.054.081.019.096v2l-.02.096-.053.08-.082.055-.095.019h-2.05l-.096-.019-.081-.054-.054-.081-.02-.096ZM3.084 3.495l.019-.096.054-.08.081-.055.096-.019h2.05l.095.019.082.054.054.081.019.096v2l-.02.096-.053.08-.082.055-.095.019h-2.05l-.096-.019-.081-.054-.054-.081-.02-.096Z" style="fill:#b4a09a;fill-opacity:.9;stroke:none;fill-rule:evenodd"/>
    </g>
    <g style="fill:none;stroke:#4d7fc4;stroke-width:1;stroke-opacity:1;stroke-linecap:round;stroke-linejoin:round">
        <path d="M13.349 17.075h-.4M8.349 17.075h-.4M10.849 17.075h-.4"/>
        <path stroke="none" d="m4.119 8.25.015-.077.043-.065.065-.043.077-.015h1.2l.6.6v1.8l-.6.6h-1.2l-.077-.016-.065-.043-.043-.065-.015-.076ZM15.179 10.45V8.79l.88-.74h.52l.6.6v2.2l-.02.08-.04.06-.06.04-.08.02h-1.2Z" style="fill:#4d7fc4;fill-opacity:1;stroke:none;fill-rule:evenodd"/>
    </g>
    <g style="fill:none;stroke:#4d7fc4;stroke-width:1;stroke-opacity:1;stroke-linecap:round;stroke-linejoin:round">
        <path d="M13.349 2.25h-.4M8.349 2.25h-.4"/>
    </g>
    <g style="fill:none;stroke:#c83434;stroke-width:1;stroke-opacity:1;stroke-linecap:round;stroke-linejoin:round">
        <path d="M13.349 17.075h-.4M8.349 17.075h-.4M10.849 17.075h-.4"/>
        <path stroke="none" d="m4.119 8.25.015-.077.043-.065.065-.043.077-.015h1.2l.6.6v1.8l-.6.6h-1.2l-.077-.016-.065-.043-.043-.065-.015-.076ZM15.179 10.45V8.79l.88-.74h.52l.6.6v2.2l-.02.08-.04.06-.06.04-.08.02h-1.2Z" style="fill:#c83434;fill-opacity:1;stroke:none;fill-rule:evenodd"/>
    </g>
    <g style="fill:none;stroke:#c83434;stroke-width:1;stroke-opacity:1;stroke-linecap:round;stroke-linejoin:round">
        <path d="M13.349 2.25h-.4"/>
        <path stroke="none" d="m16.934 6.035.019-.096.054-.08.081-.055.096-.019h2.05l.095.019.082.054.054.081.019.096v2l-.02.096-.053.08-.082.055-.095.019h-2.05l-.096-.019-.081-.054-.054-.081-.02-.096ZM3.084 3.495l.019-.096.054-.08.081-.055.096-.019h2.05l.095.019.082.054.054.081.019.096v2l-.02.096-.053.08-.082.055-.095.019h-2.05l-.096-.019-.081-.054-.054-.081-.02-.096Z" style="fill:#c83434;fill-opacity:1;stroke:none;fill-rule:evenodd"/>
    </g>
    <g style="fill:none;stroke:#c83434;stroke-width:1;stroke-opacity:1;stroke-linecap:round;stroke-linejoin:round">
        <path d="M8.349 2.25h-.4"/>
        <path d="M3.649 2.575h14v14h-14Z" style="stroke:#585d84;stroke-width:.1;stroke-opacity:1;stroke-linecap:round;stroke-linejoin:round;fill:none"/>
    </g>
    <circle cx="8.109" cy="4.495" r="1.5" style="fill:none;stroke:#585d84;stroke-width:.0212;stroke-opacity:1;stroke-linecap:round;stroke-linejoin:round"/>
    <circle cx="10.649" cy="9.55" r="2" style="fill:none;stroke:#585d84;stroke-width:.0212;stroke-opacity:1;stroke-linecap:round;stroke-linejoin:round"/>
    <circle cx="14.459" cy="7.035" r="1.5" style="fill:none;stroke:#585d84;stroke-width:.0212;stroke-opacity:1;stroke-linecap:round;stroke-linejoin:round"/>
    <g class="stroked-text" style="fill:none;stroke:#585d84;stroke-width:.0389;stroke-opacity:1;stroke-linecap:round;stroke-linejoin:round">
        <path d="M13.038 17.156h.222M12.993 17.289l.156-.467M13.149 16.822l.155.467"/>
    </g>
    <g style="fill:none;stroke:#585d84;stroke-width:.0212;stroke-opacity:1;stroke-linecap:round;stroke-linejoin:round">
        <path d="M13.349 16.575h-.4M12.949 16.575a.5.5 0 0 0 0 1M12.949 17.575h.4M13.349 17.575a.5.5 0 0 0 0-1"/>
    </g>
    <g class="stroked-text" style="fill:none;stroke:#585d84;stroke-width:.0389;stroke-opacity:1;stroke-linecap:round;stroke-linejoin:round">
        <path d="m8.182 17.044.067.023M8.249 17.067l.022.022M8.271 17.089l.022.044M8.293 17.133v.067M8.293 17.2l-.022.044M8.271 17.244l-.022.023M8.249 17.267l-.045.022M8.204 17.289h-.177M8.027 17.289v-.467M8.027 16.822h.155M8.182 16.822l.045.022M8.227 16.844l.022.023M8.249 16.867l.022.044M8.271 16.911v.044M8.271 16.956 8.249 17M8.249 17l-.022.022M8.227 17.022l-.045.022M8.182 17.044h-.155"/>
    </g>
    <g style="fill:none;stroke:#585d84;stroke-width:.0212;stroke-opacity:1;stroke-linecap:round;stroke-linejoin:round">
        <path d="M8.349 16.575h-.4M7.949 16.575a.5.5 0 0 0 0 1M7.949 17.575h.4M8.349 17.575a.5.5 0 0 0 0-1"/>
    </g>
    <g class="stroked-text" style="fill:none;stroke:#585d84;stroke-width:.0389;stroke-opacity:1;stroke-linecap:round;stroke-linejoin:round">
        <path d="m10.793 17.244-.022.023M10.771 17.267l-.067.022M10.704 17.289h-.044M10.66 17.289l-.067-.022M10.593 17.267l-.044-.045M10.549 17.222l-.022-.044M10.527 17.178l-.023-.09M10.504 17.089v-.067M10.504 17.022l.023-.089M10.527 16.933l.022-.044M10.549 16.889l.044-.045M10.593 16.844l.067-.022M10.66 16.822h.044M10.704 16.822l.067.022M10.771 16.844l.022.023"/>
    </g>
    <g style="fill:none;stroke:#585d84;stroke-width:.0212;stroke-opacity:1;stroke-linecap:round;stroke-linejoin:round">
        <path d="M10.849 16.575h-.4M10.449 16.575a.5.5 0 0 0 0 1M10.449 17.575h.4M10.849 17.575a.5.5 0 0 0 0-1"/>
    </g>
    <g style="fill:none;stroke:#585d84;stroke-width:.0833;stroke-opacity:1;stroke-linecap:round;stroke-linejoin:round">
        <g class="stroked-text">
            <path d="M5.577 10.383h-1M4.577 10.383l.714-.333M5.291 10.05l-.714-.334M4.577 9.716h1M5.577 9.24h-1M4.577 9.24v-.38M4.577 8.86l.048-.096M4.625 8.764l.047-.048M4.672 8.716l.096-.047M4.768 8.669h.142M4.91 8.669l.096.047M5.006 8.716l.047.048M5.053 8.764l.048.095M5.1 8.86v.38"/>
        </g>
        <path d="m4.119 8.25.015-.077.043-.065.065-.043.077-.015h1.2l.6.6v1.8l-.6.6h-1.2l-.077-.016-.065-.043-.043-.065-.015-.076Z" style="stroke:#585d84;stroke-width:.0212;stroke-opacity:1;stroke-linecap:round;stroke-linejoin:round;fill:none"/>
    </g>
    <g style="fill:none;stroke:#585d84;stroke-width:.0833;stroke-opacity:1;stroke-linecap:round;stroke-linejoin:round">
        <g class="stroked-text">
            <path d="M16.637 10.383h-1M15.637 10.383l.714-.333M16.351 10.05l-.714-.334M15.637 9.716h1M16.637 9.24h-1M15.637 9.24v-.38M15.637 8.86l.048-.096M15.685 8.764l.047-.048M15.732 8.716l.096-.047M15.828 8.669h.142M15.97 8.669l.096.047M16.066 8.716l.047.048M16.113 8.764l.048.095M16.16 8.86v.38"/>
        </g>
        <path d="M15.179 10.45V8.79l.88-.74h.52l.6.6v2.2l-.02.08-.04.06-.06.04-.08.02h-1.2Z" style="stroke:#585d84;stroke-width:.0212;stroke-opacity:1;stroke-linecap:round;stroke-linejoin:round;fill:none"/>
    </g>
    <g class="stroked-text" style="fill:none;stroke:#585d84;stroke-width:.0389;stroke-opacity:1;stroke-linecap:round;stroke-linejoin:round">
        <path d="m12.793 2.441.067.022M12.86 2.464h.111M12.971 2.464l.044-.023M13.016 2.441l.022-.022M13.038 2.419l.022-.044M13.06 2.375V2.33M13.06 2.33l-.022-.044M13.038 2.286l-.023-.022M13.016 2.264l-.045-.023M12.971 2.241l-.089-.022M12.882 2.219l-.044-.022M12.838 2.197l-.022-.022M12.816 2.175l-.023-.045M12.793 2.13v-.044M12.793 2.086l.023-.045M12.816 2.041l.022-.022M12.838 2.019l.044-.022M12.882 1.997h.111M12.993 1.997l.067.022M13.504 2.464h-.266M13.371 2.464v-.467M13.371 1.997l-.044.066M13.327 2.064l-.045.044M13.282 2.108l-.044.022"/>
    </g>
    <g style="fill:none;stroke:#585d84;stroke-width:.0212;stroke-opacity:1;stroke-linecap:round;stroke-linejoin:round">
        <path d="M13.349 1.75h-.4M12.949 1.75a.5.5 0 0 0 0 1M12.949 2.75h.4M13.349 2.75a.5.5 0 0 0 0-1"/>
    </g>
    <g class="stroked-text" style="fill:none;stroke:#585d84;stroke-width:.0389;stroke-opacity:1;stroke-linecap:round;stroke-linejoin:round">
        <path d="m7.793 2.441.067.022M7.86 2.464h.111M7.971 2.464l.044-.023M8.015 2.441l.023-.022M8.038 2.419l.022-.044M8.06 2.375V2.33M8.06 2.33l-.022-.044M8.038 2.286l-.023-.022M8.015 2.264l-.044-.023M7.971 2.241l-.089-.022M7.882 2.219l-.044-.022M7.838 2.197l-.022-.022M7.816 2.175l-.023-.045M7.793 2.13v-.044M7.793 2.086l.022-.045M7.816 2.041l.022-.022M7.838 2.019l.044-.022M7.882 1.997h.111M7.993 1.997l.067.022M8.238 2.041l.022-.022M8.26 2.019l.044-.022M8.304 1.997h.111M8.416 1.997l.044.022M8.46 2.019l.022.022M8.482 2.041l.022.045M8.504 2.086v.044M8.504 2.13l-.022.067M8.482 2.197l-.266.266M8.216 2.464h.288"/>
    </g>
    <g style="fill:none;stroke:#585d84;stroke-width:.0212;stroke-opacity:1;stroke-linecap:round;stroke-linejoin:round">
        <path d="M8.349 1.75h-.4M7.949 1.75a.5.5 0 0 0 0 1M7.949 2.75h.4M8.349 2.75a.5.5 0 0 0 0-1"/>
    </g>
    <g style="fill:none;stroke:#afafaf;stroke-width:.15;stroke-opacity:1;stroke-linecap:round;stroke-linejoin:round">
        <g class="stroked-text">
            <path d="m.316 19.382.142.048M.458 19.43h.238M.696 19.43l.096-.048M.792 19.382l.047-.047M.84 19.335l.047-.096M.887 19.24v-.096M.887 19.144l-.048-.095M.84 19.049.791 19M.792 19.001l-.096-.047M.696 18.954l-.19-.048M.506 18.906l-.095-.048M.41 18.858l-.047-.047M.363 18.81l-.047-.095M.316 18.716v-.096M.316 18.62l.047-.095M.363 18.525l.048-.048M.41 18.477l.096-.047M.506 18.43h.238M.744 18.43l.143.047M1.22 18.43l.238 1M1.458 19.43l.19-.715M1.649 18.716l.19.714M1.84 19.43l.237-1M2.22 19.525h.762M3.22 19.43v-1M3.22 18.43l.334.714M3.554 19.144l.333-.714M3.887 18.43v1M4.268 18.43l.667 1M4.935 18.43l-.667 1M5.077 19.525h.762M6.077 18.906h.334M6.554 19.43h-.477M6.077 19.43v-1M6.077 18.43h.477M7.554 19.335l-.048.047M7.506 19.382l-.143.048M7.363 19.43h-.095M7.268 19.43l-.143-.048M7.125 19.382l-.095-.095M7.03 19.287l-.048-.095M6.982 19.192l-.048-.19M6.935 19.001v-.143M6.935 18.858l.047-.19M6.982 18.668l.048-.095M7.03 18.573l.095-.096M7.125 18.477l.143-.047M7.268 18.43h.095M7.363 18.43l.143.047M7.506 18.477l.048.048M8.506 19.43h-.572M8.22 19.43v-1M8.22 18.43l-.095.143M8.125 18.573l-.095.095M8.03 18.668l-.095.047M9.458 19.43h-.571M9.173 19.43v-1M9.173 18.43l-.096.143M9.077 18.573l-.095.095M8.982 18.668l-.095.047M9.649 19.525h.762M10.649 19.43v-1M10.649 18.906h.571M11.22 19.43v-1M11.84 19.43l-.096-.048M11.744 19.382l-.048-.047M11.696 19.335l-.047-.096M11.649 19.24v-.286M11.649 18.954l.047-.096M11.696 18.858l.048-.047M11.744 18.81l.095-.047M11.84 18.763h.142M11.982 18.763l.095.048M12.077 18.81l.048.048M12.125 18.858l.048.096M12.173 18.954v.285M12.173 19.24l-.048.095M12.125 19.335l-.048.047M12.077 19.382l-.095.048M11.982 19.43h-.143M12.458 18.763h.381M12.601 18.43v.857M12.601 19.287l.048.095M12.649 19.382l.095.048M12.744 19.43h.095M13.125 19.382l.143.048M13.268 19.43h.238M13.506 19.43l.095-.048M13.601 19.382l.048-.047M13.649 19.335l.047-.096M13.696 19.24v-.096M13.696 19.144l-.047-.095M13.649 19.049 13.6 19M13.601 19.001l-.095-.047M13.506 18.954l-.19-.048M13.316 18.906l-.096-.048M13.22 18.858l-.047-.047M13.173 18.81l-.048-.095M13.125 18.716v-.096M13.125 18.62l.048-.095M13.173 18.525l.047-.048M13.22 18.477l.095-.047M13.316 18.43h.238M13.554 18.43l.142.047M14.03 18.763l.19.667M14.22 19.43l.19-.476M14.41 18.954l.191.476M14.601 19.43l.19-.667M15.601 19.43v-.524M15.601 18.906l-.047-.095M15.554 18.81l-.096-.047M15.458 18.763h-.19M15.268 18.763l-.095.048M15.601 19.382l-.095.048M15.506 19.43h-.238M15.268 19.43l-.095-.048M15.173 19.382l-.048-.095M15.125 19.287v-.095M15.125 19.192l.048-.096M15.173 19.097l.095-.048M15.268 19.049h.238M15.506 19.049l.095-.048M16.077 18.763v1M16.077 18.81l.096-.047M16.173 18.763h.19M16.363 18.763l.095.048M16.458 18.81l.048.048M16.506 18.858l.048.096M16.554 18.954v.285M16.554 19.24l-.048.095M16.506 19.335l-.048.047M16.458 19.382l-.095.048M16.363 19.43h-.19M16.173 19.43l-.096-.048M16.744 19.525h.762M17.744 18.763v.667M17.744 18.858l.048-.047M17.792 18.81l.095-.047M17.887 18.763h.143M18.03 18.763l.095.048M18.125 18.81l.048.096M18.173 18.906v.524M18.601 19.382l.143.048M18.744 19.43h.238M18.982 19.43l.095-.048M19.077 19.382l.048-.047M19.125 19.335l.048-.096M19.173 19.24v-.096M19.173 19.144l-.048-.095M19.125 19.049 19.077 19M19.077 19.001l-.095-.047M18.982 18.954l-.19-.048M18.792 18.906l-.096-.048M18.696 18.858l-.047-.047M18.649 18.81l-.048-.095M18.601 18.716v-.096M18.601 18.62l.048-.095M18.649 18.525l.047-.048M18.696 18.477l.096-.047M18.792 18.43h.238M19.03 18.43l.143.047M19.601 19.43v-.667M19.601 18.43l-.047.047M19.554 18.477l.047.048M19.601 18.525l.048-.048M19.649 18.477l-.048-.047M19.601 18.43v.095M20.22 19.43l-.095-.048M20.125 19.382l-.048-.095M20.077 19.287v-.857M20.601 19.43v-1M20.696 19.049l.286.38M20.982 18.763l-.38.381"/>
        </g>
        <g class="stroked-text">
            <path d="m9.316 21.03-.334-.476M8.744 21.03v-1M8.744 20.03h.381M9.125 20.03l.095.047M9.22 20.077l.048.048M9.268 20.125l.047.095M9.316 20.22v.143M9.316 20.363l-.048.095M9.268 20.458l-.048.048M9.22 20.506l-.095.048M9.125 20.554h-.381M9.744 20.506h.333M10.22 21.03h-.476M9.744 21.03v-1M9.744 20.03h.476M10.982 20.506h-.333M10.649 21.03v-1M10.649 20.03h.476M11.649 20.03v.238M11.41 20.173l.239.095M11.649 20.268l.238-.095M11.506 20.458l.143-.19M11.649 20.268l.143.19M12.41 20.03v.238M12.173 20.173l.238.095M12.41 20.268l.239-.095M12.268 20.458l.143-.19M12.41 20.268l.144.19"/>
        </g>
    </g>
    <g style="fill:none;stroke:#afafaf;stroke-width:.1;stroke-opacity:1;stroke-linecap:round;stroke-linejoin:round">
        <path d="M3.029 3.225v2.54M3.029 5.765h2.54M5.569 2.59v4.445M5.569 3.225h-2.54M5.569 7.035h5.08M14.459 2.59h-8.89M16.999 8.305h2.54M16.999 8.94h-3.81M16.999 8.94V5.13M19.539 5.765h-2.54M19.539 8.305v-2.54"/>
        <path d="M8.899 13.155h3.5v3h-3.5Z" style="stroke:#afafaf;stroke-width:.1;stroke-opacity:1;stroke-linecap:round;stroke-linejoin:round;fill:none"/>
        <path d="M13.113 8.959a2.54 2.54 0 0 0-2.464-1.924M16.999 5.13a2.54 2.54 0 0 0-2.54-2.54"/>
    </g>
    <circle cx="8.109" cy="4.495" r="1.5" style="fill:none;stroke:#afafaf;stroke-width:.0212;stroke-opacity:1;stroke-linecap:round;stroke-linejoin:round"/>
    <circle cx="10.649" cy="9.55" r="2" style="fill:none;stroke:#afafaf;stroke-width:.0212;stroke-opacity:1;stroke-linecap:round;stroke-linejoin:round"/>
    <circle cx="14.459" cy="7.035" r="1.5" style="fill:none;stroke:#afafaf;stroke-width:.0212;stroke-opacity:1;stroke-linecap:round;stroke-linejoin:round"/>
    <g class="stroked-text" style="fill:none;stroke:#afafaf;stroke-width:.0389;stroke-opacity:1;stroke-linecap:round;stroke-linejoin:round">
        <path d="M13.038 17.156h.222M12.993 17.289l.156-.467M13.149 16.822l.155.467"/>
    </g>
    <g style="fill:none;stroke:#afafaf;stroke-width:.0212;stroke-opacity:1;stroke-linecap:round;stroke-linejoin:round">
        <path d="M13.349 16.575h-.4M12.949 16.575a.5.5 0 0 0 0 1M12.949 17.575h.4M13.349 17.575a.5.5 0 0 0 0-1"/>
    </g>
    <g class="stroked-text" style="fill:none;stroke:#afafaf;stroke-width:.0389;stroke-opacity:1;stroke-linecap:round;stroke-linejoin:round">
        <path d="m8.182 17.044.067.023M8.249 17.067l.022.022M8.271 17.089l.022.044M8.293 17.133v.067M8.293 17.2l-.022.044M8.271 17.244l-.022.023M8.249 17.267l-.045.022M8.204 17.289h-.177M8.027 17.289v-.467M8.027 16.822h.155M8.182 16.822l.045.022M8.227 16.844l.022.023M8.249 16.867l.022.044M8.271 16.911v.044M8.271 16.956 8.249 17M8.249 17l-.022.022M8.227 17.022l-.045.022M8.182 17.044h-.155"/>
    </g>
    <g style="fill:none;stroke:#afafaf;stroke-width:.0212;stroke-opacity:1;stroke-linecap:round;stroke-linejoin:round">
        <path d="M8.349 16.575h-.4M7.949 16.575a.5.5 0 0 0 0 1M7.949 17.575h.4M8.349 17.575a.5.5 0 0 0 0-1"/>
    </g>
    <g class="stroked-text" style="fill:none;stroke:#afafaf;stroke-width:.0389;stroke-opacity:1;stroke-linecap:round;stroke-linejoin:round">
        <path d="m10.793 17.244-.022.023M10.771 17.267l-.067.022M10.704 17.289h-.044M10.66 17.289l-.067-.022M10.593 17.267l-.044-.045M10.549 17.222l-.022-.044M10.527 17.178l-.023-.09M10.504 17.089v-.067M10.504 17.022l.023-.089M10.527 16.933l.022-.044M10.549 16.889l.044-.045M10.593 16.844l.067-.022M10.66 16.822h.044M10.704 16.822l.067.022M10.771 16.844l.022.023"/>
    </g>
    <g style="fill:none;stroke:#afafaf;stroke-width:.0212;stroke-opacity:1;stroke-linecap:round;stroke-linejoin:round">
        <path d="M10.849 16.575h-.4M10.449 16.575a.5.5 0 0 0 0 1M10.449 17.575h.4M10.849 17.575a.5.5 0 0 0 0-1"/>
    </g>
    <g style="fill:none;stroke:#afafaf;stroke-width:.0833;stroke-opacity:1;stroke-linecap:round;stroke-linejoin:round">
        <g class="stroked-text">
            <path d="M5.577 10.383h-1M4.577 10.383l.714-.333M5.291 10.05l-.714-.334M4.577 9.716h1M5.577 9.24h-1M4.577 9.24v-.38M4.577 8.86l.048-.096M4.625 8.764l.047-.048M4.672 8.716l.096-.047M4.768 8.669h.142M4.91 8.669l.096.047M5.006 8.716l.047.048M5.053 8.764l.048.095M5.1 8.86v.38"/>
        </g>
        <path d="m4.119 8.25.015-.077.043-.065.065-.043.077-.015h1.2l.6.6v1.8l-.6.6h-1.2l-.077-.016-.065-.043-.043-.065-.015-.076Z" style="stroke:#afafaf;stroke-width:.0212;stroke-opacity:1;stroke-linecap:round;stroke-linejoin:round;fill:none"/>
    </g>
    <g style="fill:none;stroke:#afafaf;stroke-width:.0833;stroke-opacity:1;stroke-linecap:round;stroke-linejoin:round">
        <g class="stroked-text">
            <path d="M16.637 10.383h-1M15.637 10.383l.714-.333M16.351 10.05l-.714-.334M15.637 9.716h1M16.637 9.24h-1M15.637 9.24v-.38M15.637 8.86l.048-.096M15.685 8.764l.047-.048M15.732 8.716l.096-.047M15.828 8.669h.142M15.97 8.669l.096.047M16.066 8.716l.047.048M16.113 8.764l.048.095M16.16 8.86v.38"/>
        </g>
        <path d="M15.179 10.45V8.79l.88-.74h.52l.6.6v2.2l-.02.08-.04.06-.06.04-.08.02h-1.2Z" style="stroke:#afafaf;stroke-width:.0212;stroke-opacity:1;stroke-linecap:round;stroke-linejoin:round;fill:none"/>
    </g>
    <g class="stroked-text" style="fill:none;stroke:#afafaf;stroke-width:.0389;stroke-opacity:1;stroke-linecap:round;stroke-linejoin:round">
        <path d="m12.793 2.441.067.022M12.86 2.464h.111M12.971 2.464l.044-.023M13.016 2.441l.022-.022M13.038 2.419l.022-.044M13.06 2.375V2.33M13.06 2.33l-.022-.044M13.038 2.286l-.023-.022M13.016 2.264l-.045-.023M12.971 2.241l-.089-.022M12.882 2.219l-.044-.022M12.838 2.197l-.022-.022M12.816 2.175l-.023-.045M12.793 2.13v-.044M12.793 2.086l.023-.045M12.816 2.041l.022-.022M12.838 2.019l.044-.022M12.882 1.997h.111M12.993 1.997l.067.022M13.504 2.464h-.266M13.371 2.464v-.467M13.371 1.997l-.044.066M13.327 2.064l-.045.044M13.282 2.108l-.044.022"/>
    </g>
    <g style="fill:none;stroke:#afafaf;stroke-width:.0212;stroke-opacity:1;stroke-linecap:round;stroke-linejoin:round">
        <path d="M13.349 1.75h-.4M12.949 1.75a.5.5 0 0 0 0 1M12.949 2.75h.4M13.349 2.75a.5.5 0 0 0 0-1"/>
    </g>
    <g style="fill:none;stroke:#afafaf;stroke-width:.0708;stroke-opacity:1;stroke-linecap:round;stroke-linejoin:round">
        <g class="stroked-text">
            <path d="m17.561 7.384.122.04M17.683 7.425h.202M17.885 7.425l.081-.04M17.966 7.384l.04-.04M18.006 7.344l.04-.081M18.047 7.263v-.081M18.047 7.182l-.04-.081M18.006 7.1l-.04-.04M17.966 7.06l-.081-.04M17.885 7.02l-.162-.04M17.723 6.98l-.08-.041M17.642 6.939l-.04-.04M17.602 6.898l-.04-.08M17.561 6.817v-.08M17.561 6.736l.04-.08M17.602 6.656l.04-.041M17.642 6.615l.081-.04M17.723 6.575h.203M17.926 6.575l.12.04M18.856 7.425h-.485M18.614 7.425v-.85M18.614 6.575l-.081.121M18.533 6.696l-.081.08M18.452 6.777l-.081.04"/>
        </g>
        <path d="m16.934 6.035.019-.096.054-.08.081-.055.096-.019h2.05l.095.019.082.054.054.081.019.096v2l-.02.096-.053.08-.082.055-.095.019h-2.05l-.096-.019-.081-.054-.054-.081-.02-.096Z" style="stroke:#afafaf;stroke-width:.0212;stroke-opacity:1;stroke-linecap:round;stroke-linejoin:round;fill:none"/>
    </g>
    <g style="fill:none;stroke:#afafaf;stroke-width:.0708;stroke-opacity:1;stroke-linecap:round;stroke-linejoin:round">
        <g class="stroked-text">
            <path d="m3.711 4.844.122.04M3.833 4.885h.202M4.035 4.885l.081-.04M4.116 4.844l.04-.04M4.156 4.804l.04-.081M4.197 4.723v-.081M4.197 4.642l-.04-.081M4.156 4.56l-.04-.04M4.116 4.52l-.081-.04M4.035 4.48l-.162-.04M3.873 4.44l-.08-.041M3.792 4.399l-.04-.04M3.752 4.358l-.04-.08M3.711 4.277v-.08M3.711 4.196l.04-.08M3.752 4.116l.04-.041M3.792 4.075l.081-.04M3.873 4.035h.202M4.076 4.035l.12.04M4.52 4.116l.041-.041M4.561 4.075l.081-.04M4.642 4.035h.202M4.845 4.035l.08.04M4.926 4.075l.04.04M4.966 4.116l.04.08M5.006 4.196v.081M5.006 4.277l-.04.122M4.966 4.399l-.486.486M4.48 4.885h.526"/>
        </g>
        <path d="m3.084 3.495.019-.096.054-.08.081-.055.096-.019h2.05l.095.019.082.054.054.081.019.096v2l-.02.096-.053.08-.082.055-.095.019h-2.05l-.096-.019-.081-.054-.054-.081-.02-.096Z" style="stroke:#afafaf;stroke-width:.0212;stroke-opacity:1;stroke-linecap:round;stroke-linejoin:round;fill:none"/>
    </g>
    <g class="stroked-text" style="fill:none;stroke:#afafaf;stroke-width:.0389;stroke-opacity:1;stroke-linecap:round;stroke-linejoin:round">
        <path d="m7.793 2.441.067.022M7.86 2.464h.111M7.971 2.464l.044-.023M8.015 2.441l.023-.022M8.038 2.419l.022-.044M8.06 2.375V2.33M8.06 2.33l-.022-.044M8.038 2.286l-.023-.022M8.015 2.264l-.044-.023M7.971 2.241l-.089-.022M7.882 2.219l-.044-.022M7.838 2.197l-.022-.022M7.816 2.175l-.023-.045M7.793 2.13v-.044M7.793 2.086l.022-.045M7.816 2.041l.022-.022M7.838 2.019l.044-.022M7.882 1.997h.111M7.993 1.997l.067.022M8.238 2.041l.022-.022M8.26 2.019l.044-.022M8.304 1.997h.111M8.416 1.997l.044.022M8.46 2.019l.022.022M8.482 2.041l.022.045M8.504 2.086v.044M8.504 2.13l-.022.067M8.482 2.197l-.266.266M8.216 2.464h.288"/>
    </g>
    <g style="fill:none;stroke:#afafaf;stroke-width:.0212;stroke-opacity:1;stroke-linecap:round;stroke-linejoin:round">
        <path d="M8.349 1.75h-.4M7.949 1.75a.5.5 0 0 0 0 1M7.949 2.75h.4M8.349 2.75a.5.5 0 0 0 0-1"/>
        <path d="M1.124.05h19.05V19.1H1.124Z" style="stroke:#c2c2c2;stroke-width:.1;stroke-opacity:1;stroke-linecap:round;stroke-linejoin:round;fill:none"/>
    </g>
</svg>
