<?xml version="1.0" standalone="no"?>
 <!DOCTYPE svg PUBLIC "-//W3C//DTD SVG 1.1//EN" 
 "http://www.w3.org/Graphics/SVG/1.1/DTD/svg11.dtd"> 
<svg
  xmlns:svg="http://www.w3.org/2000/svg"
  xmlns="http://www.w3.org/2000/svg"
  xmlns:xlink="http://www.w3.org/1999/xlink"
  version="1.1"
  width="19.1262mm" height="20.3200mm" viewBox="0.0000 0.0000 19.1262 20.3200">
<title>SVG Image created as SW_MX_HotSwap_THT.svg date 2025/05/12 02:45:49 </title>
  <desc>Image generated by PCBNEW </desc>
<g style="fill:#000000; fill-opacity:1.0000;stroke:#000000; stroke-opacity:1.0000;
stroke-linecap:round; stroke-linejoin:round;"
 transform="translate(0 0) scale(1 1)">
</g>
<g style="fill:none; 
stroke:#E8B2A7; stroke-width:0.1500; stroke-opacity:1; 
stroke-linecap:round; stroke-linejoin:round;">
<text x="9.5750" y="7.0750"
transform="scale(-1 1) translate(-19.150000 0)"
textLength="4.5357" font-size="1.3333" lengthAdjust="spacingAndGlyphs"
text-anchor="middle" opacity="0" stroke-opacity="0">REF**</text>
<g class="stroked-text"><desc>REF**</desc>
<path d="M10.9083 7.0298
L11.2417 6.5536
" />
<path d="M11.4798 7.0298
L11.4798 6.0298
" />
<path d="M11.4798 6.0298
L11.0988 6.0298
" />
<path d="M11.0988 6.0298
L11.0036 6.0774
" />
<path d="M11.0036 6.0774
L10.9560 6.1251
" />
<path d="M10.9560 6.1251
L10.9083 6.2203
" />
<path d="M10.9083 6.2203
L10.9083 6.3632
" />
<path d="M10.9083 6.3632
L10.9560 6.4584
" />
<path d="M10.9560 6.4584
L11.0036 6.5060
" />
<path d="M11.0036 6.5060
L11.0988 6.5536
" />
<path d="M11.0988 6.5536
L11.4798 6.5536
" />
<path d="M10.4798 6.5060
L10.1464 6.5060
" />
<path d="M10.0036 7.0298
L10.4798 7.0298
" />
<path d="M10.4798 7.0298
L10.4798 6.0298
" />
<path d="M10.4798 6.0298
L10.0036 6.0298
" />
<path d="M9.2417 6.5060
L9.5750 6.5060
" />
<path d="M9.5750 7.0298
L9.5750 6.0298
" />
<path d="M9.5750 6.0298
L9.0988 6.0298
" />
<path d="M8.5750 6.0298
L8.5750 6.2679
" />
<path d="M8.8131 6.1727
L8.5750 6.2679
" />
<path d="M8.5750 6.2679
L8.3369 6.1727
" />
<path d="M8.7179 6.4584
L8.5750 6.2679
" />
<path d="M8.5750 6.2679
L8.4321 6.4584
" />
<path d="M7.8131 6.0298
L7.8131 6.2679
" />
<path d="M8.0512 6.1727
L7.8131 6.2679
" />
<path d="M7.8131 6.2679
L7.5750 6.1727
" />
<path d="M7.9560 6.4584
L7.8131 6.2679
" />
<path d="M7.8131 6.2679
L7.6702 6.4584
" />
</g></g>
<g style="fill:none; 
stroke:#E8B2A7; stroke-width:0.1200; stroke-opacity:1; 
stroke-linecap:round; stroke-linejoin:round;">
<path d="M4.4950 12.1150
L4.4950 13.1050
" />
<path d="M4.4950 12.1150
L9.5750 12.1150
" />
<path d="M4.4950 16.5600
L4.4950 16.2050
" />
<path d="M12.0392 10.2100
L13.7660 10.2100
" />
<path d="M13.3850 16.5600
L4.4950 16.5600
" />
<path d="M15.5750 10.2100
L15.9250 10.2100
" />
<path d="M15.9250 10.5650
L15.9250 10.2100
" />
<path d="M15.9250 14.0200
L15.9250 13.6650
" />
<path d="M9.5750 12.1150 A2.5400 2.5400 0.0 0 0 12.0346 10.2088" />
<path d="M13.3850 16.5600 A2.5400 2.5400 0.0 0 0 15.9250 14.0200" />
</g>
<g style="fill:none; 
stroke:#F2EDA1; stroke-width:0.1200; stroke-opacity:1; 
stroke-linecap:round; stroke-linejoin:round;">
<path d="M2.4750 2.4750
L2.4750 3.4750
" />
<path d="M2.4750 16.6750
L2.4750 15.6750
" />
<path d="M2.4750 16.6750
L3.4750 16.6750
" />
<path d="M3.4750 2.4750
L2.4750 2.4750
" />
<path d="M15.6750 16.6750
L16.6750 16.6750
" />
<path d="M16.6750 2.4750
L15.6750 2.4750
" />
<path d="M16.6750 3.4750
L16.6750 2.4750
" />
<path d="M16.6750 16.6750
L16.6750 15.6750
" />
<path style="fill:#00C2C2; fill-opacity:0.9000; stroke:none;fill-rule:evenodd;"
d="M 15.8600,11.1150
15.8790,11.0193
15.9332,10.9382
16.0143,10.8840
16.1100,10.8650
18.1600,10.8650
18.2557,10.8840
18.3368,10.9382
18.3910,11.0193
18.4100,11.1150
18.4100,13.1150
18.3910,13.2107
18.3368,13.2918
18.2557,13.3460
18.1600,13.3650
16.1100,13.3650
16.0143,13.3460
15.9332,13.2918
15.8790,13.2107
15.8600,13.1150
Z" /> 
<path style="fill:#00C2C2; fill-opacity:0.9000; stroke:none;fill-rule:evenodd;"
d="M 2.0100,13.6550
2.0290,13.5593
2.0832,13.4782
2.1643,13.4240
2.2600,13.4050
4.3100,13.4050
4.4057,13.4240
4.4868,13.4782
4.5410,13.5593
4.5600,13.6550
4.5600,15.6550
4.5410,15.7507
4.4868,15.8318
4.4057,15.8860
4.3100,15.9050
2.2600,15.9050
2.1643,15.8860
2.0832,15.8318
2.0290,15.7507
2.0100,15.6550
Z" /> 
</g>
<g style="fill:#4D7FC4; fill-opacity:1.0000; stroke:none;">
<circle cx="12.1150" cy="4.4950" r="1.1500" /> 
<path style="fill:#4D7FC4; fill-opacity:1.0000; stroke:none;fill-rule:evenodd;"
d="M 15.8600,11.1150
15.8790,11.0193
15.9332,10.9382
16.0143,10.8840
16.1100,10.8650
18.1600,10.8650
18.2557,10.8840
18.3368,10.9382
18.3910,11.0193
18.4100,11.1150
18.4100,13.1150
18.3910,13.2107
18.3368,13.2918
18.2557,13.3460
18.1600,13.3650
16.1100,13.3650
16.0143,13.3460
15.9332,13.2918
15.8790,13.2107
15.8600,13.1150
Z" /> 
<path style="fill:#4D7FC4; fill-opacity:1.0000; stroke:none;fill-rule:evenodd;"
d="M 2.0100,13.6550
2.0290,13.5593
2.0832,13.4782
2.1643,13.4240
2.2600,13.4050
4.3100,13.4050
4.4057,13.4240
4.4868,13.4782
4.5410,13.5593
4.5600,13.6550
4.5600,15.6550
4.5410,15.7507
4.4868,15.8318
4.4057,15.8860
4.3100,15.9050
2.2600,15.9050
2.1643,15.8860
2.0832,15.8318
2.0290,15.7507
2.0100,15.6550
Z" /> 
</g>
<g style="fill:#4D7FC4; fill-opacity:1.0000; stroke:none;">
<circle cx="5.7650" cy="7.0350" r="1.1500" /> 
</g>
<g style="fill:#C83434; fill-opacity:1.0000; stroke:none;">
<circle cx="12.1150" cy="4.4950" r="1.1500" /> 
</g>
<g style="fill:#C83434; fill-opacity:1.0000; stroke:none;">
<circle cx="5.7650" cy="7.0350" r="1.1500" /> 
</g>
<g style="fill:none; 
stroke:#585D84; stroke-width:0.1500; stroke-opacity:1; 
stroke-linecap:round; stroke-linejoin:round;">
<text x="9.5750" y="18.3750"
transform="scale(-1 1) translate(-19.150000 0)"
textLength="15.6310" font-size="1.3333" lengthAdjust="spacingAndGlyphs"
text-anchor="middle" opacity="0" stroke-opacity="0">SW_MX_HotSwap_THT</text>
<g class="stroked-text"><desc>SW_MX_HotSwap_THT</desc>
<path d="M17.0750 18.2822
L16.9321 18.3298
" />
<path d="M16.9321 18.3298
L16.6940 18.3298
" />
<path d="M16.6940 18.3298
L16.5988 18.2822
" />
<path d="M16.5988 18.2822
L16.5512 18.2346
" />
<path d="M16.5512 18.2346
L16.5036 18.1393
" />
<path d="M16.5036 18.1393
L16.5036 18.0441
" />
<path d="M16.5036 18.0441
L16.5512 17.9489
" />
<path d="M16.5512 17.9489
L16.5988 17.9012
" />
<path d="M16.5988 17.9012
L16.6940 17.8536
" />
<path d="M16.6940 17.8536
L16.8845 17.8060
" />
<path d="M16.8845 17.8060
L16.9798 17.7584
" />
<path d="M16.9798 17.7584
L17.0274 17.7108
" />
<path d="M17.0274 17.7108
L17.0750 17.6155
" />
<path d="M17.0750 17.6155
L17.0750 17.5203
" />
<path d="M17.0750 17.5203
L17.0274 17.4251
" />
<path d="M17.0274 17.4251
L16.9798 17.3774
" />
<path d="M16.9798 17.3774
L16.8845 17.3298
" />
<path d="M16.8845 17.3298
L16.6464 17.3298
" />
<path d="M16.6464 17.3298
L16.5036 17.3774
" />
<path d="M16.1702 17.3298
L15.9321 18.3298
" />
<path d="M15.9321 18.3298
L15.7417 17.6155
" />
<path d="M15.7417 17.6155
L15.5512 18.3298
" />
<path d="M15.5512 18.3298
L15.3131 17.3298
" />
<path d="M15.1702 18.4251
L14.4083 18.4251
" />
<path d="M14.1702 18.3298
L14.1702 17.3298
" />
<path d="M14.1702 17.3298
L13.8369 18.0441
" />
<path d="M13.8369 18.0441
L13.5036 17.3298
" />
<path d="M13.5036 17.3298
L13.5036 18.3298
" />
<path d="M13.1226 17.3298
L12.4560 18.3298
" />
<path d="M12.4560 17.3298
L13.1226 18.3298
" />
<path d="M12.3131 18.4251
L11.5512 18.4251
" />
<path d="M11.3131 18.3298
L11.3131 17.3298
" />
<path d="M11.3131 17.8060
L10.7417 17.8060
" />
<path d="M10.7417 18.3298
L10.7417 17.3298
" />
<path d="M10.1226 18.3298
L10.2179 18.2822
" />
<path d="M10.2179 18.2822
L10.2655 18.2346
" />
<path d="M10.2655 18.2346
L10.3131 18.1393
" />
<path d="M10.3131 18.1393
L10.3131 17.8536
" />
<path d="M10.3131 17.8536
L10.2655 17.7584
" />
<path d="M10.2655 17.7584
L10.2179 17.7108
" />
<path d="M10.2179 17.7108
L10.1226 17.6632
" />
<path d="M10.1226 17.6632
L9.9798 17.6632
" />
<path d="M9.9798 17.6632
L9.8845 17.7108
" />
<path d="M9.8845 17.7108
L9.8369 17.7584
" />
<path d="M9.8369 17.7584
L9.7893 17.8536
" />
<path d="M9.7893 17.8536
L9.7893 18.1393
" />
<path d="M9.7893 18.1393
L9.8369 18.2346
" />
<path d="M9.8369 18.2346
L9.8845 18.2822
" />
<path d="M9.8845 18.2822
L9.9798 18.3298
" />
<path d="M9.9798 18.3298
L10.1226 18.3298
" />
<path d="M9.5036 17.6632
L9.1226 17.6632
" />
<path d="M9.3607 17.3298
L9.3607 18.1870
" />
<path d="M9.3607 18.1870
L9.3131 18.2822
" />
<path d="M9.3131 18.2822
L9.2179 18.3298
" />
<path d="M9.2179 18.3298
L9.1226 18.3298
" />
<path d="M8.8369 18.2822
L8.6940 18.3298
" />
<path d="M8.6940 18.3298
L8.4560 18.3298
" />
<path d="M8.4560 18.3298
L8.3607 18.2822
" />
<path d="M8.3607 18.2822
L8.3131 18.2346
" />
<path d="M8.3131 18.2346
L8.2655 18.1393
" />
<path d="M8.2655 18.1393
L8.2655 18.0441
" />
<path d="M8.2655 18.0441
L8.3131 17.9489
" />
<path d="M8.3131 17.9489
L8.3607 17.9012
" />
<path d="M8.3607 17.9012
L8.4560 17.8536
" />
<path d="M8.4560 17.8536
L8.6464 17.8060
" />
<path d="M8.6464 17.8060
L8.7417 17.7584
" />
<path d="M8.7417 17.7584
L8.7893 17.7108
" />
<path d="M8.7893 17.7108
L8.8369 17.6155
" />
<path d="M8.8369 17.6155
L8.8369 17.5203
" />
<path d="M8.8369 17.5203
L8.7893 17.4251
" />
<path d="M8.7893 17.4251
L8.7417 17.3774
" />
<path d="M8.7417 17.3774
L8.6464 17.3298
" />
<path d="M8.6464 17.3298
L8.4083 17.3298
" />
<path d="M8.4083 17.3298
L8.2655 17.3774
" />
<path d="M7.9321 17.6632
L7.7417 18.3298
" />
<path d="M7.7417 18.3298
L7.5512 17.8536
" />
<path d="M7.5512 17.8536
L7.3607 18.3298
" />
<path d="M7.3607 18.3298
L7.1702 17.6632
" />
<path d="M6.3607 18.3298
L6.3607 17.8060
" />
<path d="M6.3607 17.8060
L6.4083 17.7108
" />
<path d="M6.4083 17.7108
L6.5036 17.6632
" />
<path d="M6.5036 17.6632
L6.6940 17.6632
" />
<path d="M6.6940 17.6632
L6.7893 17.7108
" />
<path d="M6.3607 18.2822
L6.4560 18.3298
" />
<path d="M6.4560 18.3298
L6.6940 18.3298
" />
<path d="M6.6940 18.3298
L6.7893 18.2822
" />
<path d="M6.7893 18.2822
L6.8369 18.1870
" />
<path d="M6.8369 18.1870
L6.8369 18.0917
" />
<path d="M6.8369 18.0917
L6.7893 17.9965
" />
<path d="M6.7893 17.9965
L6.6940 17.9489
" />
<path d="M6.6940 17.9489
L6.4560 17.9489
" />
<path d="M6.4560 17.9489
L6.3607 17.9012
" />
<path d="M5.8845 17.6632
L5.8845 18.6632
" />
<path d="M5.8845 17.7108
L5.7893 17.6632
" />
<path d="M5.7893 17.6632
L5.5988 17.6632
" />
<path d="M5.5988 17.6632
L5.5036 17.7108
" />
<path d="M5.5036 17.7108
L5.4560 17.7584
" />
<path d="M5.4560 17.7584
L5.4083 17.8536
" />
<path d="M5.4083 17.8536
L5.4083 18.1393
" />
<path d="M5.4083 18.1393
L5.4560 18.2346
" />
<path d="M5.4560 18.2346
L5.5036 18.2822
" />
<path d="M5.5036 18.2822
L5.5988 18.3298
" />
<path d="M5.5988 18.3298
L5.7893 18.3298
" />
<path d="M5.7893 18.3298
L5.8845 18.2822
" />
<path d="M5.2179 18.4251
L4.4560 18.4251
" />
<path d="M4.3607 17.3298
L3.7893 17.3298
" />
<path d="M4.0750 18.3298
L4.0750 17.3298
" />
<path d="M3.4560 18.3298
L3.4560 17.3298
" />
<path d="M3.4560 17.8060
L2.8845 17.8060
" />
<path d="M2.8845 18.3298
L2.8845 17.3298
" />
<path d="M2.5512 17.3298
L1.9798 17.3298
" />
<path d="M2.2655 18.3298
L2.2655 17.3298
" />
</g><text x="9.5750" y="19.9750"
transform="scale(-1 1) translate(-19.150000 0)"
textLength="4.5357" font-size="1.3333" lengthAdjust="spacingAndGlyphs"
text-anchor="middle" opacity="0" stroke-opacity="0">REF**</text>
<g class="stroked-text"><desc>REF**</desc>
<path d="M10.9083 19.9298
L11.2417 19.4536
" />
<path d="M11.4798 19.9298
L11.4798 18.9298
" />
<path d="M11.4798 18.9298
L11.0988 18.9298
" />
<path d="M11.0988 18.9298
L11.0036 18.9774
" />
<path d="M11.0036 18.9774
L10.9560 19.0251
" />
<path d="M10.9560 19.0251
L10.9083 19.1203
" />
<path d="M10.9083 19.1203
L10.9083 19.2632
" />
<path d="M10.9083 19.2632
L10.9560 19.3584
" />
<path d="M10.9560 19.3584
L11.0036 19.4060
" />
<path d="M11.0036 19.4060
L11.0988 19.4536
" />
<path d="M11.0988 19.4536
L11.4798 19.4536
" />
<path d="M10.4798 19.4060
L10.1464 19.4060
" />
<path d="M10.0036 19.9298
L10.4798 19.9298
" />
<path d="M10.4798 19.9298
L10.4798 18.9298
" />
<path d="M10.4798 18.9298
L10.0036 18.9298
" />
<path d="M9.2417 19.4060
L9.5750 19.4060
" />
<path d="M9.5750 19.9298
L9.5750 18.9298
" />
<path d="M9.5750 18.9298
L9.0988 18.9298
" />
<path d="M8.5750 18.9298
L8.5750 19.1679
" />
<path d="M8.8131 19.0727
L8.5750 19.1679
" />
<path d="M8.5750 19.1679
L8.3369 19.0727
" />
<path d="M8.7179 19.3584
L8.5750 19.1679
" />
<path d="M8.5750 19.1679
L8.4321 19.3584
" />
<path d="M7.8131 18.9298
L7.8131 19.1679
" />
<path d="M8.0512 19.0727
L7.8131 19.1679
" />
<path d="M7.8131 19.1679
L7.5750 19.0727
" />
<path d="M7.9560 19.3584
L7.8131 19.1679
" />
<path d="M7.8131 19.1679
L7.6702 19.3584
" />
</g></g>
<g style="fill:none; 
stroke:#585D84; stroke-width:0.1000; stroke-opacity:1; 
stroke-linecap:round; stroke-linejoin:round;">
<path d="M1.9550 13.3850
L4.4950 13.3850
" />
<path d="M1.9550 15.9250
L1.9550 13.3850
" />
<path d="M4.4950 12.1150
L9.5750 12.1150
" />
<path d="M4.4950 15.9250
L1.9550 15.9250
" />
<path d="M4.4950 16.5600
L4.4950 12.1150
" />
<path d="M13.3850 16.5600
L4.4950 16.5600
" />
<path d="M15.9250 10.2100
L12.1150 10.2100
" />
<path d="M15.9250 10.2100
L15.9250 14.0200
" />
<path d="M15.9250 10.8450
L18.4650 10.8450
" />
<path d="M18.4650 10.8450
L18.4650 13.3850
" />
<path d="M18.4650 13.3850
L15.9250 13.3850
" />
<path d="M9.5750 12.1150 A2.5400 2.5400 0.0 0 0 12.0392 10.1910" />
<path d="M13.3850 16.5600 A2.5400 2.5400 0.0 0 0 15.9250 14.0200" />
</g>
<g style="fill:none; 
stroke:#585D84; stroke-width:0.0212; stroke-opacity:1; 
stroke-linecap:round; stroke-linejoin:round;">
<circle cx="4.4950" cy="9.5750" r="0.8500" /> 
</g>
<g style="fill:none; 
stroke:#585D84; stroke-width:0.0212; stroke-opacity:1; 
stroke-linecap:round; stroke-linejoin:round;">
<circle cx="7.0350" cy="14.6550" r="1.5000" /> 
</g>
<g style="fill:none; 
stroke:#585D84; stroke-width:0.0212; stroke-opacity:1; 
stroke-linecap:round; stroke-linejoin:round;">
<circle cx="9.5750" cy="9.5750" r="2.0000" /> 
</g>
<g style="fill:none; 
stroke:#585D84; stroke-width:0.0212; stroke-opacity:1; 
stroke-linecap:round; stroke-linejoin:round;">
<circle cx="13.3850" cy="12.1150" r="1.5000" /> 
</g>
<g style="fill:none; 
stroke:#585D84; stroke-width:0.0212; stroke-opacity:1; 
stroke-linecap:round; stroke-linejoin:round;">
<circle cx="14.6550" cy="9.5750" r="0.8500" /> 
</g>
<g style="fill:none; 
stroke:#585D84; stroke-width:0.0639; stroke-opacity:1; 
stroke-linecap:round; stroke-linejoin:round;">
<text x="12.1150" y="4.8783"
textLength="0.7685" font-size="1.0222" lengthAdjust="spacingAndGlyphs"
text-anchor="middle" opacity="0" stroke-opacity="0">1</text>
<g class="stroked-text"><desc>1</desc>
<path d="M12.3340 4.8464
L11.8960 4.8464
" />
<path d="M12.1150 4.8464
L12.1150 4.0797
" />
<path d="M12.1150 4.0797
L12.0420 4.1892
" />
<path d="M12.0420 4.1892
L11.9690 4.2622
" />
<path d="M11.9690 4.2622
L11.8960 4.2987
" />
</g></g>
<g style="fill:none; 
stroke:#585D84; stroke-width:0.0212; stroke-opacity:1; 
stroke-linecap:round; stroke-linejoin:round;">
<circle cx="12.1150" cy="4.4950" r="1.1500" /> 
</g>
<g style="fill:none; 
stroke:#585D84; stroke-width:0.0708; stroke-opacity:1; 
stroke-linecap:round; stroke-linejoin:round;">
<text x="17.1350" y="12.5400"
textLength="0.8520" font-size="1.1333" lengthAdjust="spacingAndGlyphs"
text-anchor="middle" opacity="0" stroke-opacity="0">1</text>
<g class="stroked-text"><desc>1</desc>
<path d="M17.3779 12.5045
L16.8921 12.5045
" />
<path d="M17.1350 12.5045
L17.1350 11.6545
" />
<path d="M17.1350 11.6545
L17.0540 11.7760
" />
<path d="M17.0540 11.7760
L16.9731 11.8569
" />
<path d="M16.9731 11.8569
L16.8921 11.8974
" />
</g><path style="fill:none; 
stroke:#585D84; stroke-width:0.0212; stroke-opacity:1; 
stroke-linecap:round; stroke-linejoin:round;fill:none"
d="M 15.8600,11.1150
15.8790,11.0193
15.9332,10.9382
16.0143,10.8840
16.1100,10.8650
18.1600,10.8650
18.2557,10.8840
18.3368,10.9382
18.3910,11.0193
18.4100,11.1150
18.4100,13.1150
18.3910,13.2107
18.3368,13.2918
18.2557,13.3460
18.1600,13.3650
16.1100,13.3650
16.0143,13.3460
15.9332,13.2918
15.8790,13.2107
15.8600,13.1150
Z" /> 
</g>
<g style="fill:none; 
stroke:#585D84; stroke-width:0.0708; stroke-opacity:1; 
stroke-linecap:round; stroke-linejoin:round;">
<text x="3.2850" y="15.0800"
textLength="0.8520" font-size="1.1333" lengthAdjust="spacingAndGlyphs"
text-anchor="middle" opacity="0" stroke-opacity="0">2</text>
<g class="stroked-text"><desc>2</desc>
<path d="M3.0421 14.2755
L3.0826 14.2350
" />
<path d="M3.0826 14.2350
L3.1636 14.1945
" />
<path d="M3.1636 14.1945
L3.3660 14.1945
" />
<path d="M3.3660 14.1945
L3.4469 14.2350
" />
<path d="M3.4469 14.2350
L3.4874 14.2755
" />
<path d="M3.4874 14.2755
L3.5279 14.3564
" />
<path d="M3.5279 14.3564
L3.5279 14.4374
" />
<path d="M3.5279 14.4374
L3.4874 14.5588
" />
<path d="M3.4874 14.5588
L3.0017 15.0445
" />
<path d="M3.0017 15.0445
L3.5279 15.0445
" />
</g><path style="fill:none; 
stroke:#585D84; stroke-width:0.0212; stroke-opacity:1; 
stroke-linecap:round; stroke-linejoin:round;fill:none"
d="M 2.0100,13.6550
2.0290,13.5593
2.0832,13.4782
2.1643,13.4240
2.2600,13.4050
4.3100,13.4050
4.4057,13.4240
4.4868,13.4782
4.5410,13.5593
4.5600,13.6550
4.5600,15.6550
4.5410,15.7507
4.4868,15.8318
4.4057,15.8860
4.3100,15.9050
2.2600,15.9050
2.1643,15.8860
2.0832,15.8318
2.0290,15.7507
2.0100,15.6550
Z" /> 
</g>
<g style="fill:none; 
stroke:#585D84; stroke-width:0.0639; stroke-opacity:1; 
stroke-linecap:round; stroke-linejoin:round;">
<text x="5.7650" y="7.4183"
textLength="0.7685" font-size="1.0222" lengthAdjust="spacingAndGlyphs"
text-anchor="middle" opacity="0" stroke-opacity="0">2</text>
<g class="stroked-text"><desc>2</desc>
<path d="M5.5460 6.6927
L5.5825 6.6562
" />
<path d="M5.5825 6.6562
L5.6555 6.6197
" />
<path d="M5.6555 6.6197
L5.8380 6.6197
" />
<path d="M5.8380 6.6197
L5.9110 6.6562
" />
<path d="M5.9110 6.6562
L5.9475 6.6927
" />
<path d="M5.9475 6.6927
L5.9840 6.7657
" />
<path d="M5.9840 6.7657
L5.9840 6.8387
" />
<path d="M5.9840 6.8387
L5.9475 6.9483
" />
<path d="M5.9475 6.9483
L5.5094 7.3864
" />
<path d="M5.5094 7.3864
L5.9840 7.3864
" />
</g></g>
<g style="fill:none; 
stroke:#585D84; stroke-width:0.0212; stroke-opacity:1; 
stroke-linecap:round; stroke-linejoin:round;">
<circle cx="5.7650" cy="7.0350" r="1.1500" /> 
<path style="fill:none; 
stroke:#AFAFAF; stroke-width:0.1000; stroke-opacity:1; 
stroke-linecap:round; stroke-linejoin:round;fill:none"
d="M 2.5750,2.5750
16.5750,2.5750
16.5750,16.5750
2.5750,16.5750
Z" /> 
</g>
<g style="fill:none; 
stroke:#AFAFAF; stroke-width:0.0212; stroke-opacity:1; 
stroke-linecap:round; stroke-linejoin:round;">
<circle cx="4.4950" cy="9.5750" r="0.8500" /> 
</g>
<g style="fill:none; 
stroke:#AFAFAF; stroke-width:0.0212; stroke-opacity:1; 
stroke-linecap:round; stroke-linejoin:round;">
<circle cx="7.0350" cy="14.6550" r="1.5000" /> 
</g>
<g style="fill:none; 
stroke:#AFAFAF; stroke-width:0.0212; stroke-opacity:1; 
stroke-linecap:round; stroke-linejoin:round;">
<circle cx="9.5750" cy="9.5750" r="2.0000" /> 
</g>
<g style="fill:none; 
stroke:#AFAFAF; stroke-width:0.0212; stroke-opacity:1; 
stroke-linecap:round; stroke-linejoin:round;">
<circle cx="13.3850" cy="12.1150" r="1.5000" /> 
</g>
<g style="fill:none; 
stroke:#AFAFAF; stroke-width:0.0212; stroke-opacity:1; 
stroke-linecap:round; stroke-linejoin:round;">
<circle cx="14.6550" cy="9.5750" r="0.8500" /> 
</g>
<g style="fill:none; 
stroke:#AFAFAF; stroke-width:0.0639; stroke-opacity:1; 
stroke-linecap:round; stroke-linejoin:round;">
<text x="12.1150" y="4.8783"
textLength="0.7685" font-size="1.0222" lengthAdjust="spacingAndGlyphs"
text-anchor="middle" opacity="0" stroke-opacity="0">1</text>
<g class="stroked-text"><desc>1</desc>
<path d="M12.3340 4.8464
L11.8960 4.8464
" />
<path d="M12.1150 4.8464
L12.1150 4.0797
" />
<path d="M12.1150 4.0797
L12.0420 4.1892
" />
<path d="M12.0420 4.1892
L11.9690 4.2622
" />
<path d="M11.9690 4.2622
L11.8960 4.2987
" />
</g></g>
<g style="fill:none; 
stroke:#AFAFAF; stroke-width:0.0212; stroke-opacity:1; 
stroke-linecap:round; stroke-linejoin:round;">
<circle cx="12.1150" cy="4.4950" r="1.1500" /> 
</g>
<g style="fill:none; 
stroke:#AFAFAF; stroke-width:0.0639; stroke-opacity:1; 
stroke-linecap:round; stroke-linejoin:round;">
<text x="5.7650" y="7.4183"
textLength="0.7685" font-size="1.0222" lengthAdjust="spacingAndGlyphs"
text-anchor="middle" opacity="0" stroke-opacity="0">2</text>
<g class="stroked-text"><desc>2</desc>
<path d="M5.5460 6.6927
L5.5825 6.6562
" />
<path d="M5.5825 6.6562
L5.6555 6.6197
" />
<path d="M5.6555 6.6197
L5.8380 6.6197
" />
<path d="M5.8380 6.6197
L5.9110 6.6562
" />
<path d="M5.9110 6.6562
L5.9475 6.6927
" />
<path d="M5.9475 6.6927
L5.9840 6.7657
" />
<path d="M5.9840 6.7657
L5.9840 6.8387
" />
<path d="M5.9840 6.8387
L5.9475 6.9483
" />
<path d="M5.9475 6.9483
L5.5094 7.3864
" />
<path d="M5.5094 7.3864
L5.9840 7.3864
" />
</g></g>
<g style="fill:none; 
stroke:#AFAFAF; stroke-width:0.0212; stroke-opacity:1; 
stroke-linecap:round; stroke-linejoin:round;">
<circle cx="5.7650" cy="7.0350" r="1.1500" /> 
<path style="fill:none; 
stroke:#C2C2C2; stroke-width:0.1000; stroke-opacity:1; 
stroke-linecap:round; stroke-linejoin:round;fill:none"
d="M 0.0500,0.0500
19.1000,0.0500
19.1000,19.1000
0.0500,19.1000
Z" /> 
</g> 
</svg>
