<svg xmlns="http://www.w3.org/2000/svg" width="91.104" height="76.8" viewBox="0 0 24.105 20.32">
    <g class="stroked-text" style="fill:none;stroke:#f2eda1;stroke-width:.15;stroke-opacity:1;stroke-linecap:round;stroke-linejoin:round">
        <path d="m10.72 13.03-.333-.476M10.149 13.03v-1M10.149 12.03h.38M10.53 12.03l.095.047M10.625 12.077l.048.048M10.673 12.125l.047.095M10.72 12.22v.143M10.72 12.363l-.047.095M10.673 12.458l-.048.048M10.625 12.506l-.095.048M10.53 12.554h-.381M11.149 12.506h.333M11.625 13.03h-.476M11.149 13.03v-1M11.149 12.03h.476M12.387 12.506h-.333M12.054 13.03v-1M12.054 12.03h.476M13.054 12.03v.238M12.816 12.173l.238.095M13.054 12.268l.238-.095M12.91 12.458l.144-.19M13.054 12.268l.142.19M13.816 12.03v.238M13.577 12.173l.239.095M13.816 12.268l.238-.095M13.673 12.458l.143-.19M13.816 12.268l.142.19"/>
    </g>
    <g style="fill:none;stroke:#f2eda1;stroke-width:.12;stroke-opacity:1;stroke-linecap:round;stroke-linejoin:round">
        <path d="M6.974 2.59v.355M6.974 7.035v-.99M6.974 7.035h5.08M14.518 8.94h1.727M15.864 2.59h-8.89M18.054 8.94h.35M18.404 5.13v.355M18.404 8.585v.355M14.513 8.941a2.54 2.54 0 0 0-2.46-1.906M18.404 5.13a2.54 2.54 0 0 0-2.54-2.54"/>
        <path stroke="none" d="m18.342 6.035.019-.096.054-.08.081-.055.096-.019h1.3l.095.019.082.054.054.081.019.096v2l-.02.096-.053.08-.082.055-.095.019h-1.3l-.096-.019-.081-.054-.054-.081-.02-.096ZM5.235 3.495l.02-.096.054-.08.08-.055.096-.019h1.3l.096.019.081.054.054.081.02.096v2l-.02.096-.054.08-.081.055-.096.019h-1.3l-.095-.019-.081-.054-.055-.081-.019-.096Z" style="fill:#b4a09a;fill-opacity:.9;stroke:none;fill-rule:evenodd"/>
    </g>
    <circle cx="14.594" cy="14.655" r="1.15" style="fill:#4d7fc4;fill-opacity:1;stroke:none"/>
    <circle cx="8.244" cy="12.115" r="1.15" style="fill:#4d7fc4;fill-opacity:1;stroke:none"/>
    <g style="fill:#c83434;fill-opacity:1;stroke:none">
        <circle cx="14.594" cy="14.655" r="1.15"/>
        <path d="m18.342 6.035.019-.096.054-.08.081-.055.096-.019h1.3l.095.019.082.054.054.081.019.096v2l-.02.096-.053.08-.082.055-.095.019h-1.3l-.096-.019-.081-.054-.054-.081-.02-.096ZM5.235 3.495l.02-.096.054-.08.08-.055.096-.019h1.3l.096.019.081.054.054.081.02.096v2l-.02.096-.054.08-.081.055-.096.019h-1.3l-.095-.019-.081-.054-.055-.081-.019-.096Z" style="fill:#c83434;fill-opacity:1;stroke:none;fill-rule:evenodd"/>
    </g>
    <g style="fill:#c83434;fill-opacity:1;stroke:none">
        <circle cx="8.244" cy="12.115" r="1.15"/>
        <path d="M5.054 2.575h14v14h-14Z" style="stroke:#585d84;stroke-width:.1;stroke-opacity:1;stroke-linecap:round;stroke-linejoin:round;fill:none"/>
    </g>
    <circle cx="6.974" cy="9.575" r=".85" style="fill:none;stroke:#585d84;stroke-width:.0212;stroke-opacity:1;stroke-linecap:round;stroke-linejoin:round"/>
    <circle cx="9.514" cy="4.495" r="1.5" style="fill:none;stroke:#585d84;stroke-width:.0212;stroke-opacity:1;stroke-linecap:round;stroke-linejoin:round"/>
    <circle cx="12.054" cy="9.575" r="2" style="fill:none;stroke:#585d84;stroke-width:.0212;stroke-opacity:1;stroke-linecap:round;stroke-linejoin:round"/>
    <circle cx="15.864" cy="7.035" r="1.5" style="fill:none;stroke:#585d84;stroke-width:.0212;stroke-opacity:1;stroke-linecap:round;stroke-linejoin:round"/>
    <circle cx="17.134" cy="9.575" r=".85" style="fill:none;stroke:#585d84;stroke-width:.0212;stroke-opacity:1;stroke-linecap:round;stroke-linejoin:round"/>
    <g class="stroked-text" style="fill:none;stroke:#585d84;stroke-width:.0639;stroke-opacity:1;stroke-linecap:round;stroke-linejoin:round">
        <path d="M14.813 15.006h-.439M14.594 15.006v-.766M14.594 14.24l-.073.11M14.52 14.35l-.072.072M14.448 14.422l-.074.037"/>
    </g>
    <circle cx="14.594" cy="14.655" r="1.15" style="fill:none;stroke:#585d84;stroke-width:.0212;stroke-opacity:1;stroke-linecap:round;stroke-linejoin:round"/>
    <g class="stroked-text" style="fill:none;stroke:#585d84;stroke-width:.0639;stroke-opacity:1;stroke-linecap:round;stroke-linejoin:round">
        <path d="m8.025 11.773.036-.037M8.061 11.736l.073-.036M8.134 11.7h.183M8.317 11.7l.073.036M8.39 11.736l.036.037M8.426 11.773l.037.073M8.463 11.846v.073M8.463 11.919l-.037.11M8.426 12.028l-.438.438M7.988 12.466h.475"/>
    </g>
    <circle cx="8.244" cy="12.115" r="1.15" style="fill:none;stroke:#585d84;stroke-width:.0212;stroke-opacity:1;stroke-linecap:round;stroke-linejoin:round"/>
    <g style="fill:none;stroke:#afafaf;stroke-width:.15;stroke-opacity:1;stroke-linecap:round;stroke-linejoin:round">
        <g class="stroked-text">
            <path d="m.316 18.282.142.048M.458 18.33h.238M.696 18.33l.096-.048M.792 18.282l.047-.047M.84 18.235l.047-.096M.887 18.14v-.096M.887 18.044l-.048-.095M.84 17.949.791 17.9M.792 17.901l-.096-.047M.696 17.854l-.19-.048M.506 17.806l-.095-.048M.41 17.758l-.047-.047M.363 17.71l-.047-.095M.316 17.616v-.096M.316 17.52l.047-.095M.363 17.425l.048-.048M.41 17.377l.096-.047M.506 17.33h.238M.744 17.33l.143.047M1.22 17.33l.238 1M1.458 18.33l.19-.714M1.649 17.616l.19.714M1.84 18.33l.237-1M2.22 18.425h.762M3.22 18.33v-1M3.22 17.33l.334.714M3.554 18.044l.333-.714M3.887 17.33v1M4.268 17.33l.667 1M4.935 17.33l-.667 1M5.077 18.425h.762M6.03 18.282l.143.048M6.173 18.33h.238M6.41 18.33l.096-.048M6.506 18.282l.048-.047M6.554 18.235l.047-.096M6.601 18.14v-.096M6.601 18.044l-.047-.095M6.554 17.949l-.048-.048M6.506 17.901l-.095-.047M6.41 17.854l-.19-.048M6.22 17.806l-.095-.048M6.125 17.758l-.048-.047M6.077 17.71l-.047-.095M6.03 17.616v-.096M6.03 17.52l.047-.095M6.077 17.425l.048-.048M6.125 17.377l.095-.047M6.22 17.33h.238M6.458 17.33l.143.047M7.173 18.33l-.096-.048M7.077 18.282l-.047-.095M7.03 18.187v-.857M7.554 18.33v-.667M7.554 17.33l-.048.047M7.506 17.377l.048.048M7.554 17.425l.047-.048M7.601 17.377l-.047-.047M7.554 17.33v.095M8.03 18.33v-.667M8.03 17.758l.047-.047M8.077 17.71l.096-.047M8.173 17.663h.143M8.316 17.663l.095.048M8.41 17.71l.048.096M8.458 17.806v.524M8.458 17.806l.048-.095M8.506 17.71l.095-.047M8.601 17.663h.143M8.744 17.663l.095.048M8.84 17.71l.047.096M8.887 17.806v.524M9.125 18.425h.762M10.125 18.33v-1M10.125 17.806h.571M10.696 18.33v-1M11.316 18.33l-.096-.048M11.22 18.282l-.047-.047M11.173 18.235l-.048-.096M11.125 18.14v-.286M11.125 17.854l.048-.096M11.173 17.758l.047-.047M11.22 17.71l.095-.047M11.316 17.663h.142M11.458 17.663l.096.048M11.554 17.71l.047.048M11.601 17.758l.048.096M11.649 17.854v.285M11.649 18.14l-.048.095M11.601 18.235l-.047.047M11.554 18.282l-.096.048M11.458 18.33h-.143M11.935 17.663h.38M12.077 17.33v.857M12.077 18.187l.048.095M12.125 18.282l.095.048M12.22 18.33h.095M12.601 18.282l.143.048M12.744 18.33h.238M12.982 18.33l.095-.048M13.077 18.282l.048-.047M13.125 18.235l.048-.096M13.173 18.14v-.096M13.173 18.044l-.048-.095M13.125 17.949l-.048-.048M13.077 17.901l-.095-.047M12.982 17.854l-.19-.048M12.792 17.806l-.096-.048M12.696 17.758l-.047-.047M12.649 17.71l-.048-.095M12.601 17.616v-.096M12.601 17.52l.048-.095M12.649 17.425l.047-.048M12.696 17.377l.096-.047M12.792 17.33h.238M13.03 17.33l.143.047M13.506 17.663l.19.667M13.696 18.33l.19-.476M13.887 17.854l.19.476M14.077 18.33l.19-.667M15.077 18.33v-.524M15.077 17.806l-.047-.095M15.03 17.71l-.095-.047M14.935 17.663h-.191M14.744 17.663l-.095.048M15.077 18.282l-.095.048M14.982 18.33h-.238M14.744 18.33l-.095-.048M14.649 18.282l-.048-.095M14.601 18.187v-.095M14.601 18.092l.048-.095M14.649 17.997l.095-.048M14.744 17.949h.238M14.982 17.949l.095-.048M15.554 17.663v1M15.554 17.71l.095-.047M15.649 17.663h.19M15.84 17.663l.095.048M15.935 17.71l.047.048M15.982 17.758l.048.096M16.03 17.854v.285M16.03 18.14l-.048.095M15.982 18.235l-.047.047M15.935 18.282l-.096.048M15.84 18.33h-.191M15.649 18.33l-.095-.048M16.22 18.425h.762M17.077 17.33h.572M17.363 18.33v-1M17.982 18.33v-1M17.982 17.806h.572M18.554 18.33v-1M18.887 17.33h.571M19.173 18.33v-1M19.554 18.425h.762M20.554 17.663v.667M20.554 17.758l.047-.047M20.601 17.71l.095-.047M20.696 17.663h.143M20.84 17.663l.095.048M20.935 17.71l.047.096M20.982 17.806v.524M21.41 18.282l.144.048M21.554 18.33h.238M21.792 18.33l.095-.048M21.887 18.282l.047-.047M21.935 18.235l.047-.096M21.982 18.14v-.096M21.982 18.044l-.047-.095M21.935 17.949l-.048-.048M21.887 17.901l-.095-.047M21.792 17.854l-.19-.048M21.601 17.806l-.095-.048M21.506 17.758l-.048-.047M21.458 17.71l-.047-.095M21.41 17.616v-.096M21.41 17.52l.048-.095M21.458 17.425l.048-.048M21.506 17.377l.095-.047M21.601 17.33h.238M21.84 17.33l.142.047M22.41 18.33v-.667M22.41 17.33l-.047.047M22.363 17.377l.048.048M22.41 17.425l.048-.048M22.458 17.377l-.047-.047M22.41 17.33v.095M23.03 18.33l-.096-.048M22.935 18.282l-.048-.095M22.887 18.187v-.857M23.41 18.33v-1M23.506 17.949l.286.38M23.792 17.663l-.381.381"/>
        </g>
        <g class="stroked-text">
            <path d="m10.72 19.93-.333-.476M10.149 19.93v-1M10.149 18.93h.38M10.53 18.93l.095.047M10.625 18.977l.048.048M10.673 19.025l.047.095M10.72 19.12v.143M10.72 19.263l-.047.095M10.673 19.358l-.048.048M10.625 19.406l-.095.048M10.53 19.454h-.381M11.149 19.406h.333M11.625 19.93h-.476M11.149 19.93v-1M11.149 18.93h.476M12.387 19.406h-.333M12.054 19.93v-1M12.054 18.93h.476M13.054 18.93v.238M12.816 19.073l.238.095M13.054 19.168l.238-.095M12.91 19.358l.144-.19M13.054 19.168l.142.19M13.816 18.93v.238M13.577 19.073l.239.095M13.816 19.168l.238-.095M13.673 19.358l.143-.19M13.816 19.168l.142.19"/>
        </g>
    </g>
    <g style="fill:none;stroke:#afafaf;stroke-width:.1;stroke-opacity:1;stroke-linecap:round;stroke-linejoin:round">
        <path d="M5.196 3.225v2.54M5.196 5.765h1.778M6.974 2.59v4.445M6.974 3.225H5.196M6.974 7.035h5.08M15.864 2.59h-8.89M18.404 8.305h1.752M18.404 8.94h-3.81M18.404 8.94V5.13M20.156 5.765h-1.752M20.156 8.305v-2.54M14.518 8.959a2.54 2.54 0 0 0-2.464-1.924M18.404 5.13a2.54 2.54 0 0 0-2.54-2.54"/>
    </g>
    <circle cx="6.974" cy="9.575" r=".85" style="fill:none;stroke:#afafaf;stroke-width:.0212;stroke-opacity:1;stroke-linecap:round;stroke-linejoin:round"/>
    <circle cx="9.514" cy="4.495" r="1.5" style="fill:none;stroke:#afafaf;stroke-width:.0212;stroke-opacity:1;stroke-linecap:round;stroke-linejoin:round"/>
    <circle cx="12.054" cy="9.575" r="2" style="fill:none;stroke:#afafaf;stroke-width:.0212;stroke-opacity:1;stroke-linecap:round;stroke-linejoin:round"/>
    <circle cx="15.864" cy="7.035" r="1.5" style="fill:none;stroke:#afafaf;stroke-width:.0212;stroke-opacity:1;stroke-linecap:round;stroke-linejoin:round"/>
    <circle cx="17.134" cy="9.575" r=".85" style="fill:none;stroke:#afafaf;stroke-width:.0212;stroke-opacity:1;stroke-linecap:round;stroke-linejoin:round"/>
    <g class="stroked-text" style="fill:none;stroke:#afafaf;stroke-width:.0639;stroke-opacity:1;stroke-linecap:round;stroke-linejoin:round">
        <path d="M14.813 15.006h-.439M14.594 15.006v-.766M14.594 14.24l-.073.11M14.52 14.35l-.072.072M14.448 14.422l-.074.037"/>
    </g>
    <circle cx="14.594" cy="14.655" r="1.15" style="fill:none;stroke:#afafaf;stroke-width:.0212;stroke-opacity:1;stroke-linecap:round;stroke-linejoin:round"/>
    <g style="fill:none;stroke:#afafaf;stroke-width:.0694;stroke-opacity:1;stroke-linecap:round;stroke-linejoin:round">
        <g class="stroked-text">
            <path d="M19.624 6.797v.476M19.624 7.035h-.834M18.79 7.035l.12.08M18.91 7.114l.079.08M18.989 7.194l.04.08"/>
        </g>
        <path d="m18.342 6.035.019-.096.054-.08.081-.055.096-.019h1.3l.095.019.082.054.054.081.019.096v2l-.02.096-.053.08-.082.055-.095.019h-1.3l-.096-.019-.081-.054-.054-.081-.02-.096Z" style="stroke:#afafaf;stroke-width:.0212;stroke-opacity:1;stroke-linecap:round;stroke-linejoin:round;fill:none"/>
    </g>
    <g style="fill:none;stroke:#afafaf;stroke-width:.0694;stroke-opacity:1;stroke-linecap:round;stroke-linejoin:round">
        <g class="stroked-text">
            <path d="m5.763 4.733-.04-.04M5.724 4.693l-.04-.079M5.684 4.614v-.198M5.684 4.416l.04-.08M5.724 4.336l.04-.04M5.763 4.297l.08-.04M5.843 4.257h.079M5.922 4.257l.12.04M6.041 4.297l.476.476M6.517 4.773v-.516"/>
        </g>
        <path d="m5.235 3.495.02-.096.054-.08.08-.055.096-.019h1.3l.096.019.081.054.054.081.02.096v2l-.02.096-.054.08-.081.055-.096.019h-1.3l-.095-.019-.081-.054-.055-.081-.019-.096Z" style="stroke:#afafaf;stroke-width:.0212;stroke-opacity:1;stroke-linecap:round;stroke-linejoin:round;fill:none"/>
    </g>
    <g class="stroked-text" style="fill:none;stroke:#afafaf;stroke-width:.0639;stroke-opacity:1;stroke-linecap:round;stroke-linejoin:round">
        <path d="m8.025 11.773.036-.037M8.061 11.736l.073-.036M8.134 11.7h.183M8.317 11.7l.073.036M8.39 11.736l.036.037M8.426 11.773l.037.073M8.463 11.846v.073M8.463 11.919l-.037.11M8.426 12.028l-.438.438M7.988 12.466h.475"/>
    </g>
    <g style="fill:none;stroke:#afafaf;stroke-width:.0212;stroke-opacity:1;stroke-linecap:round;stroke-linejoin:round">
        <circle cx="8.244" cy="12.115" r="1.15"/>
        <path d="M2.529.05h19.05V19.1H2.529Z" style="stroke:#c2c2c2;stroke-width:.1;stroke-opacity:1;stroke-linecap:round;stroke-linejoin:round;fill:none"/>
    </g>
</svg>
