<?xml version="1.0" standalone="no"?>
 <!DOCTYPE svg PUBLIC "-//W3C//DTD SVG 1.1//EN" 
 "http://www.w3.org/Graphics/SVG/1.1/DTD/svg11.dtd"> 
<svg
  xmlns:svg="http://www.w3.org/2000/svg"
  xmlns="http://www.w3.org/2000/svg"
  xmlns:xlink="http://www.w3.org/1999/xlink"
  version="1.1"
  width="19.6596mm" height="20.3200mm" viewBox="0.0000 0.0000 19.6596 20.3200">
<title>SVG Image created as SW_MX_Slim_HotSwap_THT.svg date 2025/05/13 13:29:23 </title>
  <desc>Image generated by PCBNEW </desc>
<g style="fill:#000000; fill-opacity:1.0000;stroke:#000000; stroke-opacity:1.0000;
stroke-linecap:round; stroke-linejoin:round;"
 transform="translate(0 0) scale(1 1)">
</g>
<g style="fill:none; 
stroke:#E8B2A7; stroke-width:0.1200; stroke-opacity:1; 
stroke-linecap:round; stroke-linejoin:round;">
<path d="M2.7393 2.4750
L3.7393 2.4750
" />
<path d="M2.7393 3.4750
L2.7393 2.4750
" />
<path d="M2.7393 16.6750
L2.7393 15.6750
" />
<path d="M3.7393 16.6750
L2.7393 16.6750
" />
<path d="M15.9393 2.4750
L16.9393 2.4750
" />
<path d="M16.9393 2.4750
L16.9393 3.4750
" />
<path d="M16.9393 16.6750
L15.9393 16.6750
" />
<path d="M16.9393 16.6750
L16.9393 15.6750
" />
</g>
<g style="fill:none; 
stroke:#F2EDA1; stroke-width:0.1500; stroke-opacity:1; 
stroke-linecap:round; stroke-linejoin:round;">
<text x="9.8393" y="13.0750"
textLength="4.5357" font-size="1.3333" lengthAdjust="spacingAndGlyphs"
text-anchor="middle" opacity="0" stroke-opacity="0">REF**</text>
<g class="stroked-text"><desc>REF**</desc>
<path d="M8.5060 13.0298
L8.1726 12.5536
" />
<path d="M7.9345 13.0298
L7.9345 12.0298
" />
<path d="M7.9345 12.0298
L8.3155 12.0298
" />
<path d="M8.3155 12.0298
L8.4107 12.0774
" />
<path d="M8.4107 12.0774
L8.4583 12.1251
" />
<path d="M8.4583 12.1251
L8.5060 12.2203
" />
<path d="M8.5060 12.2203
L8.5060 12.3632
" />
<path d="M8.5060 12.3632
L8.4583 12.4584
" />
<path d="M8.4583 12.4584
L8.4107 12.5060
" />
<path d="M8.4107 12.5060
L8.3155 12.5536
" />
<path d="M8.3155 12.5536
L7.9345 12.5536
" />
<path d="M8.9345 12.5060
L9.2679 12.5060
" />
<path d="M9.4107 13.0298
L8.9345 13.0298
" />
<path d="M8.9345 13.0298
L8.9345 12.0298
" />
<path d="M8.9345 12.0298
L9.4107 12.0298
" />
<path d="M10.1726 12.5060
L9.8393 12.5060
" />
<path d="M9.8393 13.0298
L9.8393 12.0298
" />
<path d="M9.8393 12.0298
L10.3155 12.0298
" />
<path d="M10.8393 12.0298
L10.8393 12.2679
" />
<path d="M10.6012 12.1727
L10.8393 12.2679
" />
<path d="M10.8393 12.2679
L11.0774 12.1727
" />
<path d="M10.6964 12.4584
L10.8393 12.2679
" />
<path d="M10.8393 12.2679
L10.9821 12.4584
" />
<path d="M11.6012 12.0298
L11.6012 12.2679
" />
<path d="M11.3631 12.1727
L11.6012 12.2679
" />
<path d="M11.6012 12.2679
L11.8393 12.1727
" />
<path d="M11.4583 12.4584
L11.6012 12.2679
" />
<path d="M11.6012 12.2679
L11.7440 12.4584
" />
</g></g>
<g style="fill:none; 
stroke:#F2EDA1; stroke-width:0.1200; stroke-opacity:1; 
stroke-linecap:round; stroke-linejoin:round;">
<path d="M4.7593 2.5900
L4.7593 2.9450
" />
<path d="M4.7593 7.0350
L4.7593 6.0450
" />
<path d="M4.7593 7.0350
L9.8393 7.0350
" />
<path d="M12.3034 8.9400
L14.0303 8.9400
" />
<path d="M13.6493 2.5900
L4.7593 2.5900
" />
<path d="M15.8393 8.9400
L16.1893 8.9400
" />
<path d="M16.1893 5.1300
L16.1893 5.4850
" />
<path d="M16.1893 8.5850
L16.1893 8.9400
" />
<path d="M12.2989 8.9412 A2.5400 2.5400 0.0 0 0 9.8393 7.0350" />
<path d="M16.1893 5.1300 A2.5400 2.5400 0.0 0 0 13.6493 2.5900" />
<path style="fill:#B4A09A; fill-opacity:0.9000; stroke:none;fill-rule:evenodd;"
d="M 16.1275,6.0350
16.1465,5.9393
16.2007,5.8582
16.2818,5.8040
16.3775,5.7850
17.6775,5.7850
17.7732,5.8040
17.8543,5.8582
17.9085,5.9393
17.9275,6.0350
17.9275,8.0350
17.9085,8.1307
17.8543,8.2118
17.7732,8.2660
17.6775,8.2850
16.3775,8.2850
16.2818,8.2660
16.2007,8.2118
16.1465,8.1307
16.1275,8.0350
Z" /> 
<path style="fill:#B4A09A; fill-opacity:0.9000; stroke:none;fill-rule:evenodd;"
d="M 3.0211,3.4950
3.0401,3.3993
3.0943,3.3182
3.1754,3.2640
3.2711,3.2450
4.5711,3.2450
4.6668,3.2640
4.7479,3.3182
4.8021,3.3993
4.8211,3.4950
4.8211,5.4950
4.8021,5.5907
4.7479,5.6718
4.6668,5.7260
4.5711,5.7450
3.2711,5.7450
3.1754,5.7260
3.0943,5.6718
3.0401,5.5907
3.0211,5.4950
Z" /> 
</g>
<g style="fill:#4D7FC4; fill-opacity:1.0000; stroke:none;">
<circle cx="12.3793" cy="14.6550" r="1.1500" /> 
</g>
<g style="fill:#4D7FC4; fill-opacity:1.0000; stroke:none;">
<circle cx="6.0293" cy="12.1150" r="1.1500" /> 
</g>
<g style="fill:#C83434; fill-opacity:1.0000; stroke:none;">
<circle cx="12.3793" cy="14.6550" r="1.1500" /> 
<path style="fill:#C83434; fill-opacity:1.0000; stroke:none;fill-rule:evenodd;"
d="M 16.1275,6.0350
16.1465,5.9393
16.2007,5.8582
16.2818,5.8040
16.3775,5.7850
17.6775,5.7850
17.7732,5.8040
17.8543,5.8582
17.9085,5.9393
17.9275,6.0350
17.9275,8.0350
17.9085,8.1307
17.8543,8.2118
17.7732,8.2660
17.6775,8.2850
16.3775,8.2850
16.2818,8.2660
16.2007,8.2118
16.1465,8.1307
16.1275,8.0350
Z" /> 
<path style="fill:#C83434; fill-opacity:1.0000; stroke:none;fill-rule:evenodd;"
d="M 3.0211,3.4950
3.0401,3.3993
3.0943,3.3182
3.1754,3.2640
3.2711,3.2450
4.5711,3.2450
4.6668,3.2640
4.7479,3.3182
4.8021,3.3993
4.8211,3.4950
4.8211,5.4950
4.8021,5.5907
4.7479,5.6718
4.6668,5.7260
4.5711,5.7450
3.2711,5.7450
3.1754,5.7260
3.0943,5.6718
3.0401,5.5907
3.0211,5.4950
Z" /> 
</g>
<g style="fill:#C83434; fill-opacity:1.0000; stroke:none;">
<circle cx="6.0293" cy="12.1150" r="1.1500" /> 
<path style="fill:none; 
stroke:#585D84; stroke-width:0.1000; stroke-opacity:1; 
stroke-linecap:round; stroke-linejoin:round;fill:none"
d="M 2.8393,2.5750
16.8393,2.5750
16.8393,16.5750
2.8393,16.5750
Z" /> 
</g>
<g style="fill:none; 
stroke:#585D84; stroke-width:0.0212; stroke-opacity:1; 
stroke-linecap:round; stroke-linejoin:round;">
<circle cx="4.7593" cy="9.5750" r="0.8500" /> 
</g>
<g style="fill:none; 
stroke:#585D84; stroke-width:0.0212; stroke-opacity:1; 
stroke-linecap:round; stroke-linejoin:round;">
<circle cx="7.2993" cy="4.4950" r="1.5000" /> 
</g>
<g style="fill:none; 
stroke:#585D84; stroke-width:0.0212; stroke-opacity:1; 
stroke-linecap:round; stroke-linejoin:round;">
<circle cx="9.8393" cy="9.5750" r="2.0000" /> 
</g>
<g style="fill:none; 
stroke:#585D84; stroke-width:0.0212; stroke-opacity:1; 
stroke-linecap:round; stroke-linejoin:round;">
<circle cx="13.6493" cy="7.0350" r="1.5000" /> 
</g>
<g style="fill:none; 
stroke:#585D84; stroke-width:0.0212; stroke-opacity:1; 
stroke-linecap:round; stroke-linejoin:round;">
<circle cx="14.9193" cy="9.5750" r="0.8500" /> 
</g>
<g style="fill:none; 
stroke:#585D84; stroke-width:0.0639; stroke-opacity:1; 
stroke-linecap:round; stroke-linejoin:round;">
<text x="12.3793" y="15.0383"
textLength="0.7685" font-size="1.0222" lengthAdjust="spacingAndGlyphs"
text-anchor="middle" opacity="0" stroke-opacity="0">1</text>
<g class="stroked-text"><desc>1</desc>
<path d="M12.5983 15.0063
L12.1602 15.0063
" />
<path d="M12.3793 15.0063
L12.3793 14.2397
" />
<path d="M12.3793 14.2397
L12.3063 14.3492
" />
<path d="M12.3063 14.3492
L12.2333 14.4222
" />
<path d="M12.2333 14.4222
L12.1602 14.4587
" />
</g></g>
<g style="fill:none; 
stroke:#585D84; stroke-width:0.0212; stroke-opacity:1; 
stroke-linecap:round; stroke-linejoin:round;">
<circle cx="12.3793" cy="14.6550" r="1.1500" /> 
</g>
<g style="fill:none; 
stroke:#585D84; stroke-width:0.0639; stroke-opacity:1; 
stroke-linecap:round; stroke-linejoin:round;">
<text x="6.0293" y="12.4983"
textLength="0.7685" font-size="1.0222" lengthAdjust="spacingAndGlyphs"
text-anchor="middle" opacity="0" stroke-opacity="0">2</text>
<g class="stroked-text"><desc>2</desc>
<path d="M5.8102 11.7727
L5.8467 11.7362
" />
<path d="M5.8467 11.7362
L5.9198 11.6997
" />
<path d="M5.9198 11.6997
L6.1023 11.6997
" />
<path d="M6.1023 11.6997
L6.1753 11.7362
" />
<path d="M6.1753 11.7362
L6.2118 11.7727
" />
<path d="M6.2118 11.7727
L6.2483 11.8457
" />
<path d="M6.2483 11.8457
L6.2483 11.9187
" />
<path d="M6.2483 11.9187
L6.2118 12.0283
" />
<path d="M6.2118 12.0283
L5.7737 12.4664
" />
<path d="M5.7737 12.4664
L6.2483 12.4664
" />
</g></g>
<g style="fill:none; 
stroke:#585D84; stroke-width:0.0212; stroke-opacity:1; 
stroke-linecap:round; stroke-linejoin:round;">
<circle cx="6.0293" cy="12.1150" r="1.1500" /> 
</g>
<g style="fill:none; 
stroke:#AFAFAF; stroke-width:0.1500; stroke-opacity:1; 
stroke-linecap:round; stroke-linejoin:round;">
<text x="9.8393" y="18.3750"
textLength="19.6786" font-size="1.3333" lengthAdjust="spacingAndGlyphs"
text-anchor="middle" opacity="0" stroke-opacity="0">SW_MX_Slim_HotSwap_THT</text>
<g class="stroked-text"><desc>SW_MX_Slim_HotSwap_THT</desc>
<path d="M0.3155 18.2822
L0.4583 18.3298
" />
<path d="M0.4583 18.3298
L0.6964 18.3298
" />
<path d="M0.6964 18.3298
L0.7917 18.2822
" />
<path d="M0.7917 18.2822
L0.8393 18.2346
" />
<path d="M0.8393 18.2346
L0.8869 18.1393
" />
<path d="M0.8869 18.1393
L0.8869 18.0441
" />
<path d="M0.8869 18.0441
L0.8393 17.9489
" />
<path d="M0.8393 17.9489
L0.7917 17.9012
" />
<path d="M0.7917 17.9012
L0.6964 17.8536
" />
<path d="M0.6964 17.8536
L0.5060 17.8060
" />
<path d="M0.5060 17.8060
L0.4107 17.7584
" />
<path d="M0.4107 17.7584
L0.3631 17.7108
" />
<path d="M0.3631 17.7108
L0.3155 17.6155
" />
<path d="M0.3155 17.6155
L0.3155 17.5203
" />
<path d="M0.3155 17.5203
L0.3631 17.4251
" />
<path d="M0.3631 17.4251
L0.4107 17.3774
" />
<path d="M0.4107 17.3774
L0.5060 17.3298
" />
<path d="M0.5060 17.3298
L0.7440 17.3298
" />
<path d="M0.7440 17.3298
L0.8869 17.3774
" />
<path d="M1.2202 17.3298
L1.4583 18.3298
" />
<path d="M1.4583 18.3298
L1.6488 17.6155
" />
<path d="M1.6488 17.6155
L1.8393 18.3298
" />
<path d="M1.8393 18.3298
L2.0774 17.3298
" />
<path d="M2.2202 18.4251
L2.9821 18.4251
" />
<path d="M3.2202 18.3298
L3.2202 17.3298
" />
<path d="M3.2202 17.3298
L3.5536 18.0441
" />
<path d="M3.5536 18.0441
L3.8869 17.3298
" />
<path d="M3.8869 17.3298
L3.8869 18.3298
" />
<path d="M4.2679 17.3298
L4.9345 18.3298
" />
<path d="M4.9345 17.3298
L4.2679 18.3298
" />
<path d="M5.0774 18.4251
L5.8393 18.4251
" />
<path d="M6.0298 18.2822
L6.1726 18.3298
" />
<path d="M6.1726 18.3298
L6.4107 18.3298
" />
<path d="M6.4107 18.3298
L6.5060 18.2822
" />
<path d="M6.5060 18.2822
L6.5536 18.2346
" />
<path d="M6.5536 18.2346
L6.6012 18.1393
" />
<path d="M6.6012 18.1393
L6.6012 18.0441
" />
<path d="M6.6012 18.0441
L6.5536 17.9489
" />
<path d="M6.5536 17.9489
L6.5060 17.9012
" />
<path d="M6.5060 17.9012
L6.4107 17.8536
" />
<path d="M6.4107 17.8536
L6.2202 17.8060
" />
<path d="M6.2202 17.8060
L6.1250 17.7584
" />
<path d="M6.1250 17.7584
L6.0774 17.7108
" />
<path d="M6.0774 17.7108
L6.0298 17.6155
" />
<path d="M6.0298 17.6155
L6.0298 17.5203
" />
<path d="M6.0298 17.5203
L6.0774 17.4251
" />
<path d="M6.0774 17.4251
L6.1250 17.3774
" />
<path d="M6.1250 17.3774
L6.2202 17.3298
" />
<path d="M6.2202 17.3298
L6.4583 17.3298
" />
<path d="M6.4583 17.3298
L6.6012 17.3774
" />
<path d="M7.1726 18.3298
L7.0774 18.2822
" />
<path d="M7.0774 18.2822
L7.0298 18.1870
" />
<path d="M7.0298 18.1870
L7.0298 17.3298
" />
<path d="M7.5536 18.3298
L7.5536 17.6632
" />
<path d="M7.5536 17.3298
L7.5060 17.3774
" />
<path d="M7.5060 17.3774
L7.5536 17.4251
" />
<path d="M7.5536 17.4251
L7.6012 17.3774
" />
<path d="M7.6012 17.3774
L7.5536 17.3298
" />
<path d="M7.5536 17.3298
L7.5536 17.4251
" />
<path d="M8.0298 18.3298
L8.0298 17.6632
" />
<path d="M8.0298 17.7584
L8.0774 17.7108
" />
<path d="M8.0774 17.7108
L8.1726 17.6632
" />
<path d="M8.1726 17.6632
L8.3155 17.6632
" />
<path d="M8.3155 17.6632
L8.4107 17.7108
" />
<path d="M8.4107 17.7108
L8.4583 17.8060
" />
<path d="M8.4583 17.8060
L8.4583 18.3298
" />
<path d="M8.4583 17.8060
L8.5060 17.7108
" />
<path d="M8.5060 17.7108
L8.6012 17.6632
" />
<path d="M8.6012 17.6632
L8.7440 17.6632
" />
<path d="M8.7440 17.6632
L8.8393 17.7108
" />
<path d="M8.8393 17.7108
L8.8869 17.8060
" />
<path d="M8.8869 17.8060
L8.8869 18.3298
" />
<path d="M9.1250 18.4251
L9.8869 18.4251
" />
<path d="M10.1250 18.3298
L10.1250 17.3298
" />
<path d="M10.1250 17.8060
L10.6964 17.8060
" />
<path d="M10.6964 18.3298
L10.6964 17.3298
" />
<path d="M11.3155 18.3298
L11.2202 18.2822
" />
<path d="M11.2202 18.2822
L11.1726 18.2346
" />
<path d="M11.1726 18.2346
L11.1250 18.1393
" />
<path d="M11.1250 18.1393
L11.1250 17.8536
" />
<path d="M11.1250 17.8536
L11.1726 17.7584
" />
<path d="M11.1726 17.7584
L11.2202 17.7108
" />
<path d="M11.2202 17.7108
L11.3155 17.6632
" />
<path d="M11.3155 17.6632
L11.4583 17.6632
" />
<path d="M11.4583 17.6632
L11.5536 17.7108
" />
<path d="M11.5536 17.7108
L11.6012 17.7584
" />
<path d="M11.6012 17.7584
L11.6488 17.8536
" />
<path d="M11.6488 17.8536
L11.6488 18.1393
" />
<path d="M11.6488 18.1393
L11.6012 18.2346
" />
<path d="M11.6012 18.2346
L11.5536 18.2822
" />
<path d="M11.5536 18.2822
L11.4583 18.3298
" />
<path d="M11.4583 18.3298
L11.3155 18.3298
" />
<path d="M11.9345 17.6632
L12.3155 17.6632
" />
<path d="M12.0774 17.3298
L12.0774 18.1870
" />
<path d="M12.0774 18.1870
L12.1250 18.2822
" />
<path d="M12.1250 18.2822
L12.2202 18.3298
" />
<path d="M12.2202 18.3298
L12.3155 18.3298
" />
<path d="M12.6012 18.2822
L12.7440 18.3298
" />
<path d="M12.7440 18.3298
L12.9821 18.3298
" />
<path d="M12.9821 18.3298
L13.0774 18.2822
" />
<path d="M13.0774 18.2822
L13.1250 18.2346
" />
<path d="M13.1250 18.2346
L13.1726 18.1393
" />
<path d="M13.1726 18.1393
L13.1726 18.0441
" />
<path d="M13.1726 18.0441
L13.1250 17.9489
" />
<path d="M13.1250 17.9489
L13.0774 17.9012
" />
<path d="M13.0774 17.9012
L12.9821 17.8536
" />
<path d="M12.9821 17.8536
L12.7917 17.8060
" />
<path d="M12.7917 17.8060
L12.6964 17.7584
" />
<path d="M12.6964 17.7584
L12.6488 17.7108
" />
<path d="M12.6488 17.7108
L12.6012 17.6155
" />
<path d="M12.6012 17.6155
L12.6012 17.5203
" />
<path d="M12.6012 17.5203
L12.6488 17.4251
" />
<path d="M12.6488 17.4251
L12.6964 17.3774
" />
<path d="M12.6964 17.3774
L12.7917 17.3298
" />
<path d="M12.7917 17.3298
L13.0298 17.3298
" />
<path d="M13.0298 17.3298
L13.1726 17.3774
" />
<path d="M13.5060 17.6632
L13.6964 18.3298
" />
<path d="M13.6964 18.3298
L13.8869 17.8536
" />
<path d="M13.8869 17.8536
L14.0774 18.3298
" />
<path d="M14.0774 18.3298
L14.2679 17.6632
" />
<path d="M15.0774 18.3298
L15.0774 17.8060
" />
<path d="M15.0774 17.8060
L15.0298 17.7108
" />
<path d="M15.0298 17.7108
L14.9345 17.6632
" />
<path d="M14.9345 17.6632
L14.7440 17.6632
" />
<path d="M14.7440 17.6632
L14.6488 17.7108
" />
<path d="M15.0774 18.2822
L14.9821 18.3298
" />
<path d="M14.9821 18.3298
L14.7440 18.3298
" />
<path d="M14.7440 18.3298
L14.6488 18.2822
" />
<path d="M14.6488 18.2822
L14.6012 18.1870
" />
<path d="M14.6012 18.1870
L14.6012 18.0917
" />
<path d="M14.6012 18.0917
L14.6488 17.9965
" />
<path d="M14.6488 17.9965
L14.7440 17.9489
" />
<path d="M14.7440 17.9489
L14.9821 17.9489
" />
<path d="M14.9821 17.9489
L15.0774 17.9012
" />
<path d="M15.5536 17.6632
L15.5536 18.6632
" />
<path d="M15.5536 17.7108
L15.6488 17.6632
" />
<path d="M15.6488 17.6632
L15.8393 17.6632
" />
<path d="M15.8393 17.6632
L15.9345 17.7108
" />
<path d="M15.9345 17.7108
L15.9821 17.7584
" />
<path d="M15.9821 17.7584
L16.0298 17.8536
" />
<path d="M16.0298 17.8536
L16.0298 18.1393
" />
<path d="M16.0298 18.1393
L15.9821 18.2346
" />
<path d="M15.9821 18.2346
L15.9345 18.2822
" />
<path d="M15.9345 18.2822
L15.8393 18.3298
" />
<path d="M15.8393 18.3298
L15.6488 18.3298
" />
<path d="M15.6488 18.3298
L15.5536 18.2822
" />
<path d="M16.2202 18.4251
L16.9821 18.4251
" />
<path d="M17.0774 17.3298
L17.6488 17.3298
" />
<path d="M17.3631 18.3298
L17.3631 17.3298
" />
<path d="M17.9821 18.3298
L17.9821 17.3298
" />
<path d="M17.9821 17.8060
L18.5536 17.8060
" />
<path d="M18.5536 18.3298
L18.5536 17.3298
" />
<path d="M18.8869 17.3298
L19.4583 17.3298
" />
<path d="M19.1726 18.3298
L19.1726 17.3298
" />
</g><text x="9.8393" y="19.9750"
textLength="4.5357" font-size="1.3333" lengthAdjust="spacingAndGlyphs"
text-anchor="middle" opacity="0" stroke-opacity="0">REF**</text>
<g class="stroked-text"><desc>REF**</desc>
<path d="M8.5060 19.9298
L8.1726 19.4536
" />
<path d="M7.9345 19.9298
L7.9345 18.9298
" />
<path d="M7.9345 18.9298
L8.3155 18.9298
" />
<path d="M8.3155 18.9298
L8.4107 18.9774
" />
<path d="M8.4107 18.9774
L8.4583 19.0251
" />
<path d="M8.4583 19.0251
L8.5060 19.1203
" />
<path d="M8.5060 19.1203
L8.5060 19.2632
" />
<path d="M8.5060 19.2632
L8.4583 19.3584
" />
<path d="M8.4583 19.3584
L8.4107 19.4060
" />
<path d="M8.4107 19.4060
L8.3155 19.4536
" />
<path d="M8.3155 19.4536
L7.9345 19.4536
" />
<path d="M8.9345 19.4060
L9.2679 19.4060
" />
<path d="M9.4107 19.9298
L8.9345 19.9298
" />
<path d="M8.9345 19.9298
L8.9345 18.9298
" />
<path d="M8.9345 18.9298
L9.4107 18.9298
" />
<path d="M10.1726 19.4060
L9.8393 19.4060
" />
<path d="M9.8393 19.9298
L9.8393 18.9298
" />
<path d="M9.8393 18.9298
L10.3155 18.9298
" />
<path d="M10.8393 18.9298
L10.8393 19.1679
" />
<path d="M10.6012 19.0727
L10.8393 19.1679
" />
<path d="M10.8393 19.1679
L11.0774 19.0727
" />
<path d="M10.6964 19.3584
L10.8393 19.1679
" />
<path d="M10.8393 19.1679
L10.9821 19.3584
" />
<path d="M11.6012 18.9298
L11.6012 19.1679
" />
<path d="M11.3631 19.0727
L11.6012 19.1679
" />
<path d="M11.6012 19.1679
L11.8393 19.0727
" />
<path d="M11.4583 19.3584
L11.6012 19.1679
" />
<path d="M11.6012 19.1679
L11.7440 19.3584
" />
</g></g>
<g style="fill:none; 
stroke:#AFAFAF; stroke-width:0.1000; stroke-opacity:1; 
stroke-linecap:round; stroke-linejoin:round;">
<path d="M2.9813 3.2250
L2.9813 5.7650
" />
<path d="M2.9813 5.7650
L4.7593 5.7650
" />
<path d="M4.7593 2.5900
L4.7593 7.0350
" />
<path d="M4.7593 3.2250
L2.9813 3.2250
" />
<path d="M4.7593 7.0350
L9.8393 7.0350
" />
<path d="M13.6493 2.5900
L4.7593 2.5900
" />
<path d="M16.1893 8.3050
L17.9419 8.3050
" />
<path d="M16.1893 8.9400
L12.3793 8.9400
" />
<path d="M16.1893 8.9400
L16.1893 5.1300
" />
<path d="M17.9419 5.7650
L16.1893 5.7650
" />
<path d="M17.9419 8.3050
L17.9419 5.7650
" />
<path d="M12.3034 8.9590 A2.5400 2.5400 0.0 0 0 9.8393 7.0350" />
<path d="M16.1893 5.1300 A2.5400 2.5400 0.0 0 0 13.6493 2.5900" />
</g>
<g style="fill:none; 
stroke:#AFAFAF; stroke-width:0.0212; stroke-opacity:1; 
stroke-linecap:round; stroke-linejoin:round;">
<circle cx="4.7593" cy="9.5750" r="0.8500" /> 
</g>
<g style="fill:none; 
stroke:#AFAFAF; stroke-width:0.0212; stroke-opacity:1; 
stroke-linecap:round; stroke-linejoin:round;">
<circle cx="7.2993" cy="4.4950" r="1.5000" /> 
</g>
<g style="fill:none; 
stroke:#AFAFAF; stroke-width:0.0212; stroke-opacity:1; 
stroke-linecap:round; stroke-linejoin:round;">
<circle cx="9.8393" cy="9.5750" r="2.0000" /> 
</g>
<g style="fill:none; 
stroke:#AFAFAF; stroke-width:0.0212; stroke-opacity:1; 
stroke-linecap:round; stroke-linejoin:round;">
<circle cx="13.6493" cy="7.0350" r="1.5000" /> 
</g>
<g style="fill:none; 
stroke:#AFAFAF; stroke-width:0.0212; stroke-opacity:1; 
stroke-linecap:round; stroke-linejoin:round;">
<circle cx="14.9193" cy="9.5750" r="0.8500" /> 
</g>
<g style="fill:none; 
stroke:#AFAFAF; stroke-width:0.0639; stroke-opacity:1; 
stroke-linecap:round; stroke-linejoin:round;">
<text x="12.3793" y="15.0383"
textLength="0.7685" font-size="1.0222" lengthAdjust="spacingAndGlyphs"
text-anchor="middle" opacity="0" stroke-opacity="0">1</text>
<g class="stroked-text"><desc>1</desc>
<path d="M12.5983 15.0063
L12.1602 15.0063
" />
<path d="M12.3793 15.0063
L12.3793 14.2397
" />
<path d="M12.3793 14.2397
L12.3063 14.3492
" />
<path d="M12.3063 14.3492
L12.2333 14.4222
" />
<path d="M12.2333 14.4222
L12.1602 14.4587
" />
</g></g>
<g style="fill:none; 
stroke:#AFAFAF; stroke-width:0.0212; stroke-opacity:1; 
stroke-linecap:round; stroke-linejoin:round;">
<circle cx="12.3793" cy="14.6550" r="1.1500" /> 
</g>
<g style="fill:none; 
stroke:#AFAFAF; stroke-width:0.0694; stroke-opacity:1; 
stroke-linecap:round; stroke-linejoin:round;">
<g transform="rotate(-90.000000 17.0275 7.0350)">
<text x="17.0275" y="7.4517"
textLength="0.8353" font-size="1.1111" lengthAdjust="spacingAndGlyphs"
text-anchor="middle" opacity="0" stroke-opacity="0">1</text>
</g>
<g class="stroked-text"><desc>1</desc>
<path d="M17.4094 6.7969
L17.4094 7.2731
" />
<path d="M17.4094 7.0350
L16.5761 7.0350
" />
<path d="M16.5761 7.0350
L16.6951 7.1144
" />
<path d="M16.6951 7.1144
L16.7745 7.1937
" />
<path d="M16.7745 7.1937
L16.8142 7.2731
" />
</g><path style="fill:none; 
stroke:#AFAFAF; stroke-width:0.0212; stroke-opacity:1; 
stroke-linecap:round; stroke-linejoin:round;fill:none"
d="M 16.1275,6.0350
16.1465,5.9393
16.2007,5.8582
16.2818,5.8040
16.3775,5.7850
17.6775,5.7850
17.7732,5.8040
17.8543,5.8582
17.9085,5.9393
17.9275,6.0350
17.9275,8.0350
17.9085,8.1307
17.8543,8.2118
17.7732,8.2660
17.6775,8.2850
16.3775,8.2850
16.2818,8.2660
16.2007,8.2118
16.1465,8.1307
16.1275,8.0350
Z" /> 
</g>
<g style="fill:none; 
stroke:#AFAFAF; stroke-width:0.0694; stroke-opacity:1; 
stroke-linecap:round; stroke-linejoin:round;">
<g transform="rotate(-90.000000 3.9211 4.4950)">
<text x="3.9211" y="4.9117"
textLength="0.8353" font-size="1.1111" lengthAdjust="spacingAndGlyphs"
text-anchor="middle" opacity="0" stroke-opacity="0">2</text>
</g>
<g class="stroked-text"><desc>2</desc>
<path d="M3.5490 4.7331
L3.5093 4.6934
" />
<path d="M3.5093 4.6934
L3.4697 4.6140
" />
<path d="M3.4697 4.6140
L3.4697 4.4156
" />
<path d="M3.4697 4.4156
L3.5093 4.3363
" />
<path d="M3.5093 4.3363
L3.5490 4.2966
" />
<path d="M3.5490 4.2966
L3.6284 4.2569
" />
<path d="M3.6284 4.2569
L3.7078 4.2569
" />
<path d="M3.7078 4.2569
L3.8268 4.2966
" />
<path d="M3.8268 4.2966
L4.3030 4.7728
" />
<path d="M4.3030 4.7728
L4.3030 4.2569
" />
</g><path style="fill:none; 
stroke:#AFAFAF; stroke-width:0.0212; stroke-opacity:1; 
stroke-linecap:round; stroke-linejoin:round;fill:none"
d="M 3.0211,3.4950
3.0401,3.3993
3.0943,3.3182
3.1754,3.2640
3.2711,3.2450
4.5711,3.2450
4.6668,3.2640
4.7479,3.3182
4.8021,3.3993
4.8211,3.4950
4.8211,5.4950
4.8021,5.5907
4.7479,5.6718
4.6668,5.7260
4.5711,5.7450
3.2711,5.7450
3.1754,5.7260
3.0943,5.6718
3.0401,5.5907
3.0211,5.4950
Z" /> 
</g>
<g style="fill:none; 
stroke:#AFAFAF; stroke-width:0.0639; stroke-opacity:1; 
stroke-linecap:round; stroke-linejoin:round;">
<text x="6.0293" y="12.4983"
textLength="0.7685" font-size="1.0222" lengthAdjust="spacingAndGlyphs"
text-anchor="middle" opacity="0" stroke-opacity="0">2</text>
<g class="stroked-text"><desc>2</desc>
<path d="M5.8102 11.7727
L5.8467 11.7362
" />
<path d="M5.8467 11.7362
L5.9198 11.6997
" />
<path d="M5.9198 11.6997
L6.1023 11.6997
" />
<path d="M6.1023 11.6997
L6.1753 11.7362
" />
<path d="M6.1753 11.7362
L6.2118 11.7727
" />
<path d="M6.2118 11.7727
L6.2483 11.8457
" />
<path d="M6.2483 11.8457
L6.2483 11.9187
" />
<path d="M6.2483 11.9187
L6.2118 12.0283
" />
<path d="M6.2118 12.0283
L5.7737 12.4664
" />
<path d="M5.7737 12.4664
L6.2483 12.4664
" />
</g></g>
<g style="fill:none; 
stroke:#AFAFAF; stroke-width:0.0212; stroke-opacity:1; 
stroke-linecap:round; stroke-linejoin:round;">
<circle cx="6.0293" cy="12.1150" r="1.1500" /> 
<path style="fill:none; 
stroke:#C2C2C2; stroke-width:0.1000; stroke-opacity:1; 
stroke-linecap:round; stroke-linejoin:round;fill:none"
d="M 0.3143,0.0500
19.3643,0.0500
19.3643,19.1000
0.3143,19.1000
Z" /> 
</g> 
</svg>
