<?xml version="1.0" standalone="no"?>
 <!DOCTYPE svg PUBLIC "-//W3C//DTD SVG 1.1//EN" 
 "http://www.w3.org/Graphics/SVG/1.1/DTD/svg11.dtd"> 
<svg
  xmlns:svg="http://www.w3.org/2000/svg"
  xmlns="http://www.w3.org/2000/svg"
  xmlns:xlink="http://www.w3.org/1999/xlink"
  version="1.1"
  width="19.6596mm" height="20.3200mm" viewBox="0.0000 0.0000 19.6596 20.3200">
<title>SVG Image created as SW_MX_Slim_HotSwap_THT.svg date 2025/05/12 22:52:35 </title>
  <desc>Image generated by PCBNEW </desc>
<g style="fill:#000000; fill-opacity:1.0000;stroke:#000000; stroke-opacity:1.0000;
stroke-linecap:round; stroke-linejoin:round;"
 transform="translate(0 0) scale(1 1)">
</g>
<g style="fill:none; 
stroke:#E8B2A7; stroke-width:0.1500; stroke-opacity:1; 
stroke-linecap:round; stroke-linejoin:round;">
<text x="9.8393" y="7.0750"
transform="scale(-1 1) translate(-19.678572 0)"
textLength="4.5357" font-size="1.3333" lengthAdjust="spacingAndGlyphs"
text-anchor="middle" opacity="0" stroke-opacity="0">REF**</text>
<g class="stroked-text"><desc>REF**</desc>
<path d="M11.1726 7.0298
L11.5060 6.5536
" />
<path d="M11.7440 7.0298
L11.7440 6.0298
" />
<path d="M11.7440 6.0298
L11.3631 6.0298
" />
<path d="M11.3631 6.0298
L11.2679 6.0774
" />
<path d="M11.2679 6.0774
L11.2202 6.1251
" />
<path d="M11.2202 6.1251
L11.1726 6.2203
" />
<path d="M11.1726 6.2203
L11.1726 6.3632
" />
<path d="M11.1726 6.3632
L11.2202 6.4584
" />
<path d="M11.2202 6.4584
L11.2679 6.5060
" />
<path d="M11.2679 6.5060
L11.3631 6.5536
" />
<path d="M11.3631 6.5536
L11.7440 6.5536
" />
<path d="M10.7440 6.5060
L10.4107 6.5060
" />
<path d="M10.2679 7.0298
L10.7440 7.0298
" />
<path d="M10.7440 7.0298
L10.7440 6.0298
" />
<path d="M10.7440 6.0298
L10.2679 6.0298
" />
<path d="M9.5060 6.5060
L9.8393 6.5060
" />
<path d="M9.8393 7.0298
L9.8393 6.0298
" />
<path d="M9.8393 6.0298
L9.3631 6.0298
" />
<path d="M8.8393 6.0298
L8.8393 6.2679
" />
<path d="M9.0774 6.1727
L8.8393 6.2679
" />
<path d="M8.8393 6.2679
L8.6012 6.1727
" />
<path d="M8.9821 6.4584
L8.8393 6.2679
" />
<path d="M8.8393 6.2679
L8.6964 6.4584
" />
<path d="M8.0774 6.0298
L8.0774 6.2679
" />
<path d="M8.3155 6.1727
L8.0774 6.2679
" />
<path d="M8.0774 6.2679
L7.8393 6.1727
" />
<path d="M8.2202 6.4584
L8.0774 6.2679
" />
<path d="M8.0774 6.2679
L7.9345 6.4584
" />
</g></g>
<g style="fill:none; 
stroke:#E8B2A7; stroke-width:0.1200; stroke-opacity:1; 
stroke-linecap:round; stroke-linejoin:round;">
<path d="M4.7593 12.1150
L4.7593 13.1050
" />
<path d="M4.7593 12.1150
L9.8393 12.1150
" />
<path d="M4.7593 16.5600
L4.7593 16.2050
" />
<path d="M12.3034 10.2100
L14.0303 10.2100
" />
<path d="M13.6493 16.5600
L4.7593 16.5600
" />
<path d="M15.8393 10.2100
L16.1893 10.2100
" />
<path d="M16.1893 10.5650
L16.1893 10.2100
" />
<path d="M16.1893 14.0200
L16.1893 13.6650
" />
<path d="M9.8393 12.1150 A2.5400 2.5400 0.0 0 0 12.2989 10.2088" />
<path d="M13.6493 16.5600 A2.5400 2.5400 0.0 0 0 16.1893 14.0200" />
</g>
<g style="fill:none; 
stroke:#F2EDA1; stroke-width:0.1200; stroke-opacity:1; 
stroke-linecap:round; stroke-linejoin:round;">
<path d="M2.7393 2.4750
L2.7393 3.4750
" />
<path d="M2.7393 15.6750
L2.7393 16.6750
" />
<path d="M2.7393 16.6750
L3.7393 16.6750
" />
<path d="M3.7393 2.4750
L2.7393 2.4750
" />
<path d="M15.9393 16.6750
L16.9393 16.6750
" />
<path d="M16.9393 2.4750
L15.9393 2.4750
" />
<path d="M16.9393 2.4750
L16.9393 3.4750
" />
<path d="M16.9393 16.6750
L16.9393 15.6750
" />
<path style="fill:#00C2C2; fill-opacity:0.9000; stroke:none;fill-rule:evenodd;"
d="M 16.1275,11.1150
16.1465,11.0193
16.2007,10.9382
16.2818,10.8840
16.3775,10.8650
17.6775,10.8650
17.7732,10.8840
17.8543,10.9382
17.9085,11.0193
17.9275,11.1150
17.9275,13.1150
17.9085,13.2107
17.8543,13.2918
17.7732,13.3460
17.6775,13.3650
16.3775,13.3650
16.2818,13.3460
16.2007,13.2918
16.1465,13.2107
16.1275,13.1150
Z" /> 
<path style="fill:#00C2C2; fill-opacity:0.9000; stroke:none;fill-rule:evenodd;"
d="M 3.0211,13.6550
3.0401,13.5593
3.0943,13.4782
3.1754,13.4240
3.2711,13.4050
4.5711,13.4050
4.6668,13.4240
4.7479,13.4782
4.8021,13.5593
4.8211,13.6550
4.8211,15.6550
4.8021,15.7507
4.7479,15.8318
4.6668,15.8860
4.5711,15.9050
3.2711,15.9050
3.1754,15.8860
3.0943,15.8318
3.0401,15.7507
3.0211,15.6550
Z" /> 
</g>
<g style="fill:#4D7FC4; fill-opacity:1.0000; stroke:none;">
<circle cx="12.3793" cy="4.4950" r="1.1500" /> 
<path style="fill:#4D7FC4; fill-opacity:1.0000; stroke:none;fill-rule:evenodd;"
d="M 16.1275,11.1150
16.1465,11.0193
16.2007,10.9382
16.2818,10.8840
16.3775,10.8650
17.6775,10.8650
17.7732,10.8840
17.8543,10.9382
17.9085,11.0193
17.9275,11.1150
17.9275,13.1150
17.9085,13.2107
17.8543,13.2918
17.7732,13.3460
17.6775,13.3650
16.3775,13.3650
16.2818,13.3460
16.2007,13.2918
16.1465,13.2107
16.1275,13.1150
Z" /> 
<path style="fill:#4D7FC4; fill-opacity:1.0000; stroke:none;fill-rule:evenodd;"
d="M 3.0211,13.6550
3.0401,13.5593
3.0943,13.4782
3.1754,13.4240
3.2711,13.4050
4.5711,13.4050
4.6668,13.4240
4.7479,13.4782
4.8021,13.5593
4.8211,13.6550
4.8211,15.6550
4.8021,15.7507
4.7479,15.8318
4.6668,15.8860
4.5711,15.9050
3.2711,15.9050
3.1754,15.8860
3.0943,15.8318
3.0401,15.7507
3.0211,15.6550
Z" /> 
</g>
<g style="fill:#4D7FC4; fill-opacity:1.0000; stroke:none;">
<circle cx="6.0293" cy="7.0350" r="1.1500" /> 
</g>
<g style="fill:#C83434; fill-opacity:1.0000; stroke:none;">
<circle cx="12.3793" cy="4.4950" r="1.1500" /> 
</g>
<g style="fill:#C83434; fill-opacity:1.0000; stroke:none;">
<circle cx="6.0293" cy="7.0350" r="1.1500" /> 
</g>
<g style="fill:none; 
stroke:#585D84; stroke-width:0.1500; stroke-opacity:1; 
stroke-linecap:round; stroke-linejoin:round;">
<text x="9.8393" y="18.3750"
transform="scale(-1 1) translate(-19.678572 0)"
textLength="19.6786" font-size="1.3333" lengthAdjust="spacingAndGlyphs"
text-anchor="middle" opacity="0" stroke-opacity="0">SW_MX_Slim_HotSwap_THT</text>
<g class="stroked-text"><desc>SW_MX_Slim_HotSwap_THT</desc>
<path d="M19.3631 18.2822
L19.2202 18.3298
" />
<path d="M19.2202 18.3298
L18.9821 18.3298
" />
<path d="M18.9821 18.3298
L18.8869 18.2822
" />
<path d="M18.8869 18.2822
L18.8393 18.2346
" />
<path d="M18.8393 18.2346
L18.7917 18.1393
" />
<path d="M18.7917 18.1393
L18.7917 18.0441
" />
<path d="M18.7917 18.0441
L18.8393 17.9489
" />
<path d="M18.8393 17.9489
L18.8869 17.9012
" />
<path d="M18.8869 17.9012
L18.9821 17.8536
" />
<path d="M18.9821 17.8536
L19.1726 17.8060
" />
<path d="M19.1726 17.8060
L19.2679 17.7584
" />
<path d="M19.2679 17.7584
L19.3155 17.7108
" />
<path d="M19.3155 17.7108
L19.3631 17.6155
" />
<path d="M19.3631 17.6155
L19.3631 17.5203
" />
<path d="M19.3631 17.5203
L19.3155 17.4251
" />
<path d="M19.3155 17.4251
L19.2679 17.3774
" />
<path d="M19.2679 17.3774
L19.1726 17.3298
" />
<path d="M19.1726 17.3298
L18.9345 17.3298
" />
<path d="M18.9345 17.3298
L18.7917 17.3774
" />
<path d="M18.4583 17.3298
L18.2202 18.3298
" />
<path d="M18.2202 18.3298
L18.0298 17.6155
" />
<path d="M18.0298 17.6155
L17.8393 18.3298
" />
<path d="M17.8393 18.3298
L17.6012 17.3298
" />
<path d="M17.4583 18.4251
L16.6964 18.4251
" />
<path d="M16.4583 18.3298
L16.4583 17.3298
" />
<path d="M16.4583 17.3298
L16.1250 18.0441
" />
<path d="M16.1250 18.0441
L15.7917 17.3298
" />
<path d="M15.7917 17.3298
L15.7917 18.3298
" />
<path d="M15.4107 17.3298
L14.7440 18.3298
" />
<path d="M14.7440 17.3298
L15.4107 18.3298
" />
<path d="M14.6012 18.4251
L13.8393 18.4251
" />
<path d="M13.6488 18.2822
L13.5060 18.3298
" />
<path d="M13.5060 18.3298
L13.2679 18.3298
" />
<path d="M13.2679 18.3298
L13.1726 18.2822
" />
<path d="M13.1726 18.2822
L13.1250 18.2346
" />
<path d="M13.1250 18.2346
L13.0774 18.1393
" />
<path d="M13.0774 18.1393
L13.0774 18.0441
" />
<path d="M13.0774 18.0441
L13.1250 17.9489
" />
<path d="M13.1250 17.9489
L13.1726 17.9012
" />
<path d="M13.1726 17.9012
L13.2679 17.8536
" />
<path d="M13.2679 17.8536
L13.4583 17.8060
" />
<path d="M13.4583 17.8060
L13.5536 17.7584
" />
<path d="M13.5536 17.7584
L13.6012 17.7108
" />
<path d="M13.6012 17.7108
L13.6488 17.6155
" />
<path d="M13.6488 17.6155
L13.6488 17.5203
" />
<path d="M13.6488 17.5203
L13.6012 17.4251
" />
<path d="M13.6012 17.4251
L13.5536 17.3774
" />
<path d="M13.5536 17.3774
L13.4583 17.3298
" />
<path d="M13.4583 17.3298
L13.2202 17.3298
" />
<path d="M13.2202 17.3298
L13.0774 17.3774
" />
<path d="M12.5060 18.3298
L12.6012 18.2822
" />
<path d="M12.6012 18.2822
L12.6488 18.1870
" />
<path d="M12.6488 18.1870
L12.6488 17.3298
" />
<path d="M12.1250 18.3298
L12.1250 17.6632
" />
<path d="M12.1250 17.3298
L12.1726 17.3774
" />
<path d="M12.1726 17.3774
L12.1250 17.4251
" />
<path d="M12.1250 17.4251
L12.0774 17.3774
" />
<path d="M12.0774 17.3774
L12.1250 17.3298
" />
<path d="M12.1250 17.3298
L12.1250 17.4251
" />
<path d="M11.6488 18.3298
L11.6488 17.6632
" />
<path d="M11.6488 17.7584
L11.6012 17.7108
" />
<path d="M11.6012 17.7108
L11.5060 17.6632
" />
<path d="M11.5060 17.6632
L11.3631 17.6632
" />
<path d="M11.3631 17.6632
L11.2679 17.7108
" />
<path d="M11.2679 17.7108
L11.2202 17.8060
" />
<path d="M11.2202 17.8060
L11.2202 18.3298
" />
<path d="M11.2202 17.8060
L11.1726 17.7108
" />
<path d="M11.1726 17.7108
L11.0774 17.6632
" />
<path d="M11.0774 17.6632
L10.9345 17.6632
" />
<path d="M10.9345 17.6632
L10.8393 17.7108
" />
<path d="M10.8393 17.7108
L10.7917 17.8060
" />
<path d="M10.7917 17.8060
L10.7917 18.3298
" />
<path d="M10.5536 18.4251
L9.7917 18.4251
" />
<path d="M9.5536 18.3298
L9.5536 17.3298
" />
<path d="M9.5536 17.8060
L8.9821 17.8060
" />
<path d="M8.9821 18.3298
L8.9821 17.3298
" />
<path d="M8.3631 18.3298
L8.4583 18.2822
" />
<path d="M8.4583 18.2822
L8.5060 18.2346
" />
<path d="M8.5060 18.2346
L8.5536 18.1393
" />
<path d="M8.5536 18.1393
L8.5536 17.8536
" />
<path d="M8.5536 17.8536
L8.5060 17.7584
" />
<path d="M8.5060 17.7584
L8.4583 17.7108
" />
<path d="M8.4583 17.7108
L8.3631 17.6632
" />
<path d="M8.3631 17.6632
L8.2202 17.6632
" />
<path d="M8.2202 17.6632
L8.1250 17.7108
" />
<path d="M8.1250 17.7108
L8.0774 17.7584
" />
<path d="M8.0774 17.7584
L8.0298 17.8536
" />
<path d="M8.0298 17.8536
L8.0298 18.1393
" />
<path d="M8.0298 18.1393
L8.0774 18.2346
" />
<path d="M8.0774 18.2346
L8.1250 18.2822
" />
<path d="M8.1250 18.2822
L8.2202 18.3298
" />
<path d="M8.2202 18.3298
L8.3631 18.3298
" />
<path d="M7.7440 17.6632
L7.3631 17.6632
" />
<path d="M7.6012 17.3298
L7.6012 18.1870
" />
<path d="M7.6012 18.1870
L7.5536 18.2822
" />
<path d="M7.5536 18.2822
L7.4583 18.3298
" />
<path d="M7.4583 18.3298
L7.3631 18.3298
" />
<path d="M7.0774 18.2822
L6.9345 18.3298
" />
<path d="M6.9345 18.3298
L6.6964 18.3298
" />
<path d="M6.6964 18.3298
L6.6012 18.2822
" />
<path d="M6.6012 18.2822
L6.5536 18.2346
" />
<path d="M6.5536 18.2346
L6.5060 18.1393
" />
<path d="M6.5060 18.1393
L6.5060 18.0441
" />
<path d="M6.5060 18.0441
L6.5536 17.9489
" />
<path d="M6.5536 17.9489
L6.6012 17.9012
" />
<path d="M6.6012 17.9012
L6.6964 17.8536
" />
<path d="M6.6964 17.8536
L6.8869 17.8060
" />
<path d="M6.8869 17.8060
L6.9821 17.7584
" />
<path d="M6.9821 17.7584
L7.0298 17.7108
" />
<path d="M7.0298 17.7108
L7.0774 17.6155
" />
<path d="M7.0774 17.6155
L7.0774 17.5203
" />
<path d="M7.0774 17.5203
L7.0298 17.4251
" />
<path d="M7.0298 17.4251
L6.9821 17.3774
" />
<path d="M6.9821 17.3774
L6.8869 17.3298
" />
<path d="M6.8869 17.3298
L6.6488 17.3298
" />
<path d="M6.6488 17.3298
L6.5060 17.3774
" />
<path d="M6.1726 17.6632
L5.9821 18.3298
" />
<path d="M5.9821 18.3298
L5.7917 17.8536
" />
<path d="M5.7917 17.8536
L5.6012 18.3298
" />
<path d="M5.6012 18.3298
L5.4107 17.6632
" />
<path d="M4.6012 18.3298
L4.6012 17.8060
" />
<path d="M4.6012 17.8060
L4.6488 17.7108
" />
<path d="M4.6488 17.7108
L4.7440 17.6632
" />
<path d="M4.7440 17.6632
L4.9345 17.6632
" />
<path d="M4.9345 17.6632
L5.0298 17.7108
" />
<path d="M4.6012 18.2822
L4.6964 18.3298
" />
<path d="M4.6964 18.3298
L4.9345 18.3298
" />
<path d="M4.9345 18.3298
L5.0298 18.2822
" />
<path d="M5.0298 18.2822
L5.0774 18.1870
" />
<path d="M5.0774 18.1870
L5.0774 18.0917
" />
<path d="M5.0774 18.0917
L5.0298 17.9965
" />
<path d="M5.0298 17.9965
L4.9345 17.9489
" />
<path d="M4.9345 17.9489
L4.6964 17.9489
" />
<path d="M4.6964 17.9489
L4.6012 17.9012
" />
<path d="M4.1250 17.6632
L4.1250 18.6632
" />
<path d="M4.1250 17.7108
L4.0298 17.6632
" />
<path d="M4.0298 17.6632
L3.8393 17.6632
" />
<path d="M3.8393 17.6632
L3.7440 17.7108
" />
<path d="M3.7440 17.7108
L3.6964 17.7584
" />
<path d="M3.6964 17.7584
L3.6488 17.8536
" />
<path d="M3.6488 17.8536
L3.6488 18.1393
" />
<path d="M3.6488 18.1393
L3.6964 18.2346
" />
<path d="M3.6964 18.2346
L3.7440 18.2822
" />
<path d="M3.7440 18.2822
L3.8393 18.3298
" />
<path d="M3.8393 18.3298
L4.0298 18.3298
" />
<path d="M4.0298 18.3298
L4.1250 18.2822
" />
<path d="M3.4583 18.4251
L2.6964 18.4251
" />
<path d="M2.6012 17.3298
L2.0298 17.3298
" />
<path d="M2.3155 18.3298
L2.3155 17.3298
" />
<path d="M1.6964 18.3298
L1.6964 17.3298
" />
<path d="M1.6964 17.8060
L1.1250 17.8060
" />
<path d="M1.1250 18.3298
L1.1250 17.3298
" />
<path d="M0.7917 17.3298
L0.2202 17.3298
" />
<path d="M0.5060 18.3298
L0.5060 17.3298
" />
</g><text x="9.8393" y="19.9750"
transform="scale(-1 1) translate(-19.678572 0)"
textLength="4.5357" font-size="1.3333" lengthAdjust="spacingAndGlyphs"
text-anchor="middle" opacity="0" stroke-opacity="0">REF**</text>
<g class="stroked-text"><desc>REF**</desc>
<path d="M11.1726 19.9298
L11.5060 19.4536
" />
<path d="M11.7440 19.9298
L11.7440 18.9298
" />
<path d="M11.7440 18.9298
L11.3631 18.9298
" />
<path d="M11.3631 18.9298
L11.2679 18.9774
" />
<path d="M11.2679 18.9774
L11.2202 19.0251
" />
<path d="M11.2202 19.0251
L11.1726 19.1203
" />
<path d="M11.1726 19.1203
L11.1726 19.2632
" />
<path d="M11.1726 19.2632
L11.2202 19.3584
" />
<path d="M11.2202 19.3584
L11.2679 19.4060
" />
<path d="M11.2679 19.4060
L11.3631 19.4536
" />
<path d="M11.3631 19.4536
L11.7440 19.4536
" />
<path d="M10.7440 19.4060
L10.4107 19.4060
" />
<path d="M10.2679 19.9298
L10.7440 19.9298
" />
<path d="M10.7440 19.9298
L10.7440 18.9298
" />
<path d="M10.7440 18.9298
L10.2679 18.9298
" />
<path d="M9.5060 19.4060
L9.8393 19.4060
" />
<path d="M9.8393 19.9298
L9.8393 18.9298
" />
<path d="M9.8393 18.9298
L9.3631 18.9298
" />
<path d="M8.8393 18.9298
L8.8393 19.1679
" />
<path d="M9.0774 19.0727
L8.8393 19.1679
" />
<path d="M8.8393 19.1679
L8.6012 19.0727
" />
<path d="M8.9821 19.3584
L8.8393 19.1679
" />
<path d="M8.8393 19.1679
L8.6964 19.3584
" />
<path d="M8.0774 18.9298
L8.0774 19.1679
" />
<path d="M8.3155 19.0727
L8.0774 19.1679
" />
<path d="M8.0774 19.1679
L7.8393 19.0727
" />
<path d="M8.2202 19.3584
L8.0774 19.1679
" />
<path d="M8.0774 19.1679
L7.9345 19.3584
" />
</g></g>
<g style="fill:none; 
stroke:#585D84; stroke-width:0.1000; stroke-opacity:1; 
stroke-linecap:round; stroke-linejoin:round;">
<path d="M2.9813 13.3850
L4.7593 13.3850
" />
<path d="M2.9813 15.9250
L2.9813 13.3850
" />
<path d="M4.7593 12.1150
L9.8393 12.1150
" />
<path d="M4.7593 15.9250
L2.9813 15.9250
" />
<path d="M4.7593 16.5600
L4.7593 12.1150
" />
<path d="M13.6493 16.5600
L4.7593 16.5600
" />
<path d="M16.1893 10.2100
L12.3793 10.2100
" />
<path d="M16.1893 10.2100
L16.1893 14.0200
" />
<path d="M16.1893 10.8450
L17.9419 10.8450
" />
<path d="M17.9419 10.8450
L17.9419 13.3850
" />
<path d="M17.9419 13.3850
L16.1893 13.3850
" />
<path d="M9.8393 12.1150 A2.5400 2.5400 0.0 0 0 12.3034 10.1910" />
<path d="M13.6493 16.5600 A2.5400 2.5400 0.0 0 0 16.1893 14.0200" />
</g>
<g style="fill:none; 
stroke:#585D84; stroke-width:0.0212; stroke-opacity:1; 
stroke-linecap:round; stroke-linejoin:round;">
<circle cx="4.7593" cy="9.5750" r="0.8500" /> 
</g>
<g style="fill:none; 
stroke:#585D84; stroke-width:0.0212; stroke-opacity:1; 
stroke-linecap:round; stroke-linejoin:round;">
<circle cx="7.2993" cy="14.6550" r="1.5000" /> 
</g>
<g style="fill:none; 
stroke:#585D84; stroke-width:0.0212; stroke-opacity:1; 
stroke-linecap:round; stroke-linejoin:round;">
<circle cx="9.8393" cy="9.5750" r="2.0000" /> 
</g>
<g style="fill:none; 
stroke:#585D84; stroke-width:0.0212; stroke-opacity:1; 
stroke-linecap:round; stroke-linejoin:round;">
<circle cx="13.6493" cy="12.1150" r="1.5000" /> 
</g>
<g style="fill:none; 
stroke:#585D84; stroke-width:0.0212; stroke-opacity:1; 
stroke-linecap:round; stroke-linejoin:round;">
<circle cx="14.9193" cy="9.5750" r="0.8500" /> 
</g>
<g style="fill:none; 
stroke:#585D84; stroke-width:0.0639; stroke-opacity:1; 
stroke-linecap:round; stroke-linejoin:round;">
<text x="12.3793" y="4.8783"
textLength="0.7685" font-size="1.0222" lengthAdjust="spacingAndGlyphs"
text-anchor="middle" opacity="0" stroke-opacity="0">1</text>
<g class="stroked-text"><desc>1</desc>
<path d="M12.5983 4.8464
L12.1602 4.8464
" />
<path d="M12.3793 4.8464
L12.3793 4.0797
" />
<path d="M12.3793 4.0797
L12.3063 4.1892
" />
<path d="M12.3063 4.1892
L12.2333 4.2622
" />
<path d="M12.2333 4.2622
L12.1602 4.2987
" />
</g></g>
<g style="fill:none; 
stroke:#585D84; stroke-width:0.0212; stroke-opacity:1; 
stroke-linecap:round; stroke-linejoin:round;">
<circle cx="12.3793" cy="4.4950" r="1.1500" /> 
</g>
<g style="fill:none; 
stroke:#585D84; stroke-width:0.0694; stroke-opacity:1; 
stroke-linecap:round; stroke-linejoin:round;">
<g transform="rotate(-90.000000 17.0275 12.1150)">
<text x="17.0275" y="12.5317"
textLength="0.8353" font-size="1.1111" lengthAdjust="spacingAndGlyphs"
text-anchor="middle" opacity="0" stroke-opacity="0">1</text>
</g>
<g class="stroked-text"><desc>1</desc>
<path d="M17.4094 11.8769
L17.4094 12.3531
" />
<path d="M17.4094 12.1150
L16.5761 12.1150
" />
<path d="M16.5761 12.1150
L16.6951 12.1944
" />
<path d="M16.6951 12.1944
L16.7745 12.2737
" />
<path d="M16.7745 12.2737
L16.8142 12.3531
" />
</g><path style="fill:none; 
stroke:#585D84; stroke-width:0.0212; stroke-opacity:1; 
stroke-linecap:round; stroke-linejoin:round;fill:none"
d="M 16.1275,11.1150
16.1465,11.0193
16.2007,10.9382
16.2818,10.8840
16.3775,10.8650
17.6775,10.8650
17.7732,10.8840
17.8543,10.9382
17.9085,11.0193
17.9275,11.1150
17.9275,13.1150
17.9085,13.2107
17.8543,13.2918
17.7732,13.3460
17.6775,13.3650
16.3775,13.3650
16.2818,13.3460
16.2007,13.2918
16.1465,13.2107
16.1275,13.1150
Z" /> 
</g>
<g style="fill:none; 
stroke:#585D84; stroke-width:0.0694; stroke-opacity:1; 
stroke-linecap:round; stroke-linejoin:round;">
<g transform="rotate(-90.000000 3.9211 14.6550)">
<text x="3.9211" y="15.0717"
textLength="0.8353" font-size="1.1111" lengthAdjust="spacingAndGlyphs"
text-anchor="middle" opacity="0" stroke-opacity="0">2</text>
</g>
<g class="stroked-text"><desc>2</desc>
<path d="M3.5490 14.8931
L3.5093 14.8534
" />
<path d="M3.5093 14.8534
L3.4697 14.7740
" />
<path d="M3.4697 14.7740
L3.4697 14.5756
" />
<path d="M3.4697 14.5756
L3.5093 14.4963
" />
<path d="M3.5093 14.4963
L3.5490 14.4566
" />
<path d="M3.5490 14.4566
L3.6284 14.4169
" />
<path d="M3.6284 14.4169
L3.7078 14.4169
" />
<path d="M3.7078 14.4169
L3.8268 14.4566
" />
<path d="M3.8268 14.4566
L4.3030 14.9328
" />
<path d="M4.3030 14.9328
L4.3030 14.4169
" />
</g><path style="fill:none; 
stroke:#585D84; stroke-width:0.0212; stroke-opacity:1; 
stroke-linecap:round; stroke-linejoin:round;fill:none"
d="M 3.0211,13.6550
3.0401,13.5593
3.0943,13.4782
3.1754,13.4240
3.2711,13.4050
4.5711,13.4050
4.6668,13.4240
4.7479,13.4782
4.8021,13.5593
4.8211,13.6550
4.8211,15.6550
4.8021,15.7507
4.7479,15.8318
4.6668,15.8860
4.5711,15.9050
3.2711,15.9050
3.1754,15.8860
3.0943,15.8318
3.0401,15.7507
3.0211,15.6550
Z" /> 
</g>
<g style="fill:none; 
stroke:#585D84; stroke-width:0.0639; stroke-opacity:1; 
stroke-linecap:round; stroke-linejoin:round;">
<text x="6.0293" y="7.4183"
textLength="0.7685" font-size="1.0222" lengthAdjust="spacingAndGlyphs"
text-anchor="middle" opacity="0" stroke-opacity="0">2</text>
<g class="stroked-text"><desc>2</desc>
<path d="M5.8102 6.6927
L5.8467 6.6562
" />
<path d="M5.8467 6.6562
L5.9198 6.6197
" />
<path d="M5.9198 6.6197
L6.1023 6.6197
" />
<path d="M6.1023 6.6197
L6.1753 6.6562
" />
<path d="M6.1753 6.6562
L6.2118 6.6927
" />
<path d="M6.2118 6.6927
L6.2483 6.7657
" />
<path d="M6.2483 6.7657
L6.2483 6.8387
" />
<path d="M6.2483 6.8387
L6.2118 6.9483
" />
<path d="M6.2118 6.9483
L5.7737 7.3864
" />
<path d="M5.7737 7.3864
L6.2483 7.3864
" />
</g></g>
<g style="fill:none; 
stroke:#585D84; stroke-width:0.0212; stroke-opacity:1; 
stroke-linecap:round; stroke-linejoin:round;">
<circle cx="6.0293" cy="7.0350" r="1.1500" /> 
<path style="fill:none; 
stroke:#AFAFAF; stroke-width:0.1000; stroke-opacity:1; 
stroke-linecap:round; stroke-linejoin:round;fill:none"
d="M 2.8393,2.5750
16.8393,2.5750
16.8393,16.5750
2.8393,16.5750
Z" /> 
</g>
<g style="fill:none; 
stroke:#AFAFAF; stroke-width:0.0212; stroke-opacity:1; 
stroke-linecap:round; stroke-linejoin:round;">
<circle cx="4.7593" cy="9.5750" r="0.8500" /> 
</g>
<g style="fill:none; 
stroke:#AFAFAF; stroke-width:0.0212; stroke-opacity:1; 
stroke-linecap:round; stroke-linejoin:round;">
<circle cx="7.2993" cy="14.6550" r="1.5000" /> 
</g>
<g style="fill:none; 
stroke:#AFAFAF; stroke-width:0.0212; stroke-opacity:1; 
stroke-linecap:round; stroke-linejoin:round;">
<circle cx="9.8393" cy="9.5750" r="2.0000" /> 
</g>
<g style="fill:none; 
stroke:#AFAFAF; stroke-width:0.0212; stroke-opacity:1; 
stroke-linecap:round; stroke-linejoin:round;">
<circle cx="13.6493" cy="12.1150" r="1.5000" /> 
</g>
<g style="fill:none; 
stroke:#AFAFAF; stroke-width:0.0212; stroke-opacity:1; 
stroke-linecap:round; stroke-linejoin:round;">
<circle cx="14.9193" cy="9.5750" r="0.8500" /> 
</g>
<g style="fill:none; 
stroke:#AFAFAF; stroke-width:0.0639; stroke-opacity:1; 
stroke-linecap:round; stroke-linejoin:round;">
<text x="12.3793" y="4.8783"
textLength="0.7685" font-size="1.0222" lengthAdjust="spacingAndGlyphs"
text-anchor="middle" opacity="0" stroke-opacity="0">1</text>
<g class="stroked-text"><desc>1</desc>
<path d="M12.5983 4.8464
L12.1602 4.8464
" />
<path d="M12.3793 4.8464
L12.3793 4.0797
" />
<path d="M12.3793 4.0797
L12.3063 4.1892
" />
<path d="M12.3063 4.1892
L12.2333 4.2622
" />
<path d="M12.2333 4.2622
L12.1602 4.2987
" />
</g></g>
<g style="fill:none; 
stroke:#AFAFAF; stroke-width:0.0212; stroke-opacity:1; 
stroke-linecap:round; stroke-linejoin:round;">
<circle cx="12.3793" cy="4.4950" r="1.1500" /> 
</g>
<g style="fill:none; 
stroke:#AFAFAF; stroke-width:0.0639; stroke-opacity:1; 
stroke-linecap:round; stroke-linejoin:round;">
<text x="6.0293" y="7.4183"
textLength="0.7685" font-size="1.0222" lengthAdjust="spacingAndGlyphs"
text-anchor="middle" opacity="0" stroke-opacity="0">2</text>
<g class="stroked-text"><desc>2</desc>
<path d="M5.8102 6.6927
L5.8467 6.6562
" />
<path d="M5.8467 6.6562
L5.9198 6.6197
" />
<path d="M5.9198 6.6197
L6.1023 6.6197
" />
<path d="M6.1023 6.6197
L6.1753 6.6562
" />
<path d="M6.1753 6.6562
L6.2118 6.6927
" />
<path d="M6.2118 6.6927
L6.2483 6.7657
" />
<path d="M6.2483 6.7657
L6.2483 6.8387
" />
<path d="M6.2483 6.8387
L6.2118 6.9483
" />
<path d="M6.2118 6.9483
L5.7737 7.3864
" />
<path d="M5.7737 7.3864
L6.2483 7.3864
" />
</g></g>
<g style="fill:none; 
stroke:#AFAFAF; stroke-width:0.0212; stroke-opacity:1; 
stroke-linecap:round; stroke-linejoin:round;">
<circle cx="6.0293" cy="7.0350" r="1.1500" /> 
<path style="fill:none; 
stroke:#C2C2C2; stroke-width:0.1000; stroke-opacity:1; 
stroke-linecap:round; stroke-linejoin:round;fill:none"
d="M 0.3143,0.0500
19.3643,0.0500
19.3643,19.1000
0.3143,19.1000
Z" /> 
</g> 
</svg>
