<svg xmlns="http://www.w3.org/2000/svg" width="72.288" height="76.8" viewBox="0 0 19.126 20.32">
    <g style="fill:none;stroke:#e8b2a7;stroke-width:.12;stroke-opacity:1;stroke-linecap:round;stroke-linejoin:round">
        <path d="M2.475 2.875v13.4M2.875 16.675h13.4M16.275 2.475h-13.4M16.675 16.275v-13.4M2.875 2.475a.4.4 0 0 0-.4.4M2.475 16.275a.4.4 0 0 0 .4.4M16.675 2.875a.4.4 0 0 0-.4-.4M16.275 16.675a.4.4 0 0 0 .4-.4"/>
    </g>
    <g class="stroked-text" style="fill:none;stroke:#f2eda1;stroke-width:.15;stroke-opacity:1;stroke-linecap:round;stroke-linejoin:round">
        <path d="m10.02 4.95-.334-.476M9.448 4.95v-1M9.448 3.95h.381M9.83 3.95l.094.047M9.924 3.997l.048.048M9.972 4.045l.048.095M10.02 4.14v.143M10.02 4.283l-.048.095M9.972 4.378l-.048.048M9.924 4.426l-.095.048M9.83 4.474h-.382M10.448 4.426h.334M10.924 4.95h-.476M10.448 4.95v-1M10.448 3.95h.476M11.686 4.426h-.333M11.353 4.95v-1M11.353 3.95h.476M12.353 3.95v.238M12.115 4.093l.238.095M12.353 4.188l.238-.095M12.21 4.378l.143-.19M12.353 4.188l.143.19M13.115 3.95v.238M12.877 4.093l.238.095M13.115 4.188l.238-.095M12.972 4.378l.143-.19M13.115 4.188l.143.19"/>
    </g>
    <g style="fill:none;stroke:#f2eda1;stroke-width:.12;stroke-opacity:1;stroke-linecap:round;stroke-linejoin:round">
        <path d="M4.495 2.59v.355M4.495 7.035v-.99M4.495 7.035h5.08M12.04 8.94h1.726M13.385 2.59h-8.89M15.575 8.94h.35M15.925 5.13v.355M15.925 8.585v.355M12.035 8.941a2.54 2.54 0 0 0-2.46-1.906M15.925 5.13a2.54 2.54 0 0 0-2.54-2.54"/>
        <path stroke="none" d="m15.86 6.035.019-.096.054-.08.081-.055.096-.019h2.05l.096.019.08.054.055.081.019.096v2l-.019.096-.054.08-.081.055-.096.019h-2.05l-.096-.019-.08-.054-.055-.081-.019-.096ZM2.01 3.495l.019-.096.054-.08.081-.055.096-.019h2.05l.096.019.08.054.055.081.019.096v2l-.019.096-.054.08-.081.055-.096.019H2.26l-.096-.019-.08-.054-.055-.081-.019-.096Z" style="fill:#b4a09a;fill-opacity:.9;stroke:none;fill-rule:evenodd"/>
        <path stroke="none" d="m15.86 6.035.019-.096.054-.08.081-.055.096-.019h2.05l.096.019.08.054.055.081.019.096v2l-.019.096-.054.08-.081.055-.096.019h-2.05l-.096-.019-.08-.054-.055-.081-.019-.096ZM2.01 3.495l.019-.096.054-.08.081-.055.096-.019h2.05l.096.019.08.054.055.081.019.096v2l-.019.096-.054.08-.081.055-.096.019H2.26l-.096-.019-.08-.054-.055-.081-.019-.096Z" style="fill:#c83434;fill-opacity:1;stroke:none;fill-rule:evenodd"/>
        <path d="M2.575 2.575h14v14h-14Z" style="stroke:#585d84;stroke-width:.1;stroke-opacity:1;stroke-linecap:round;stroke-linejoin:round;fill:none"/>
    </g>
    <circle cx="4.495" cy="9.575" r=".85" style="fill:none;stroke:#585d84;stroke-width:.0212;stroke-opacity:1;stroke-linecap:round;stroke-linejoin:round"/>
    <circle cx="7.035" cy="4.495" r="1.5" style="fill:none;stroke:#585d84;stroke-width:.0212;stroke-opacity:1;stroke-linecap:round;stroke-linejoin:round"/>
    <circle cx="9.575" cy="9.575" r="2" style="fill:none;stroke:#585d84;stroke-width:.0212;stroke-opacity:1;stroke-linecap:round;stroke-linejoin:round"/>
    <circle cx="13.385" cy="7.035" r="1.5" style="fill:none;stroke:#585d84;stroke-width:.0212;stroke-opacity:1;stroke-linecap:round;stroke-linejoin:round"/>
    <circle cx="14.655" cy="9.575" r=".85" style="fill:none;stroke:#585d84;stroke-width:.0212;stroke-opacity:1;stroke-linecap:round;stroke-linejoin:round"/>
    <g style="fill:none;stroke:#afafaf;stroke-width:.15;stroke-opacity:1;stroke-linecap:round;stroke-linejoin:round">
        <g class="stroked-text">
            <path d="m1.123 18.282.143.048M1.266 18.33h.238M1.504 18.33l.095-.048M1.599 18.282l.047-.047M1.646 18.235l.048-.096M1.694 18.14v-.096M1.694 18.044l-.048-.095M1.646 17.949 1.6 17.9M1.599 17.901l-.095-.047M1.504 17.854l-.19-.048M1.313 17.806l-.095-.048M1.218 17.758l-.048-.047M1.17 17.71l-.047-.095M1.123 17.616v-.096M1.123 17.52l.047-.095M1.17 17.425l.048-.048M1.218 17.377l.095-.047M1.313 17.33h.238M1.551 17.33l.143.047M2.027 17.33l.238 1M2.266 18.33l.19-.714M2.456 17.616l.19.714M2.646 18.33l.239-1M3.027 18.425h.762M4.027 18.33v-1M4.027 17.33l.334.714M4.36 18.044l.334-.714M4.694 17.33v1M5.075 17.33l.667 1M5.742 17.33l-.667 1M5.885 18.425h.761M6.885 18.33v-1M6.885 17.806h.571M7.456 18.33v-1M8.075 18.33l-.095-.048M7.98 18.282l-.048-.047M7.932 18.235l-.048-.096M7.885 18.14v-.286M7.885 17.854l.047-.096M7.932 17.758l.048-.047M7.98 17.71l.095-.047M8.075 17.663h.143M8.218 17.663l.095.048M8.313 17.71l.048.048M8.36 17.758l.048.096M8.408 17.854v.285M8.408 18.14l-.047.095M8.36 18.235l-.047.047M8.313 18.282l-.095.048M8.218 18.33h-.143M8.694 17.663h.381M8.837 17.33v.857M8.837 18.187l.047.095M8.885 18.282l.095.048M8.98 18.33h.095M9.36 18.282l.144.048M9.504 18.33h.238M9.742 18.33l.095-.048M9.837 18.282l.047-.047M9.885 18.235l.047-.096M9.932 18.14v-.096M9.932 18.044l-.048-.095M9.885 17.949l-.048-.048M9.837 17.901l-.095-.047M9.742 17.854l-.19-.048M9.551 17.806l-.095-.048M9.456 17.758l-.048-.047M9.408 17.71l-.047-.095M9.36 17.616v-.096M9.36 17.52l.048-.095M9.408 17.425l.048-.048M9.456 17.377l.095-.047M9.551 17.33h.238M9.79 17.33l.142.047M10.266 17.663l.19.667M10.456 18.33l.19-.476M10.646 17.854l.19.476M10.837 18.33l.19-.667M11.837 18.33v-.524M11.837 17.806l-.048-.095M11.79 17.71l-.096-.047M11.694 17.663h-.19M11.504 17.663l-.096.048M11.837 18.282l-.095.048M11.742 18.33h-.238M11.504 18.33l-.096-.048M11.408 18.282l-.047-.095M11.36 18.187v-.095M11.36 18.092l.048-.095M11.408 17.997l.096-.048M11.504 17.949h.238M11.742 17.949l.095-.048M12.313 17.663v1M12.313 17.71l.095-.047M12.408 17.663h.19M12.599 17.663l.095.048M12.694 17.71l.048.048M12.742 17.758l.047.096M12.79 17.854v.285M12.79 18.14l-.048.095M12.742 18.235l-.048.047M12.694 18.282l-.095.048M12.599 18.33h-.19M12.408 18.33l-.095-.048M12.98 18.425h.762M13.932 18.282l.095.048M14.027 18.33h.19M14.218 18.33l.095-.048M14.313 18.282l.048-.095M14.36 18.187v-.048M14.36 18.14l-.047-.096M14.313 18.044l-.095-.047M14.218 17.997h-.143M14.075 17.997l-.095-.048M13.98 17.949l-.048-.095M13.932 17.854v-.048M13.932 17.806l.048-.095M13.98 17.71l.095-.047M14.075 17.663h.143M14.218 17.663l.095.048M15.218 17.663v1M15.218 18.282l-.095.048M15.123 18.33h-.19M14.932 18.33l-.095-.048M14.837 18.282l-.048-.047M14.79 18.235l-.048-.096M14.742 18.14v-.286M14.742 17.854l.047-.096M14.79 17.758l.047-.047M14.837 17.71l.095-.047M14.932 17.663h.19M15.123 17.663l.095.048M15.646 18.282l.143.048M15.79 18.33h.237M16.027 18.33l.096-.048M16.123 18.282l.047-.047M16.17 18.235l.048-.096M16.218 18.14v-.096M16.218 18.044l-.048-.095M16.17 17.949l-.047-.048M16.123 17.901l-.096-.047M16.027 17.854l-.19-.048M15.837 17.806l-.095-.048M15.742 17.758l-.048-.047M15.694 17.71l-.048-.095M15.646 17.616v-.096M15.646 17.52l.048-.095M15.694 17.425l.048-.048M15.742 17.377l.095-.047M15.837 17.33h.238M16.075 17.33l.143.047M16.646 18.33v-.667M16.646 17.33l-.047.047M16.599 17.377l.047.048M16.646 17.425l.048-.048M16.694 17.377l-.048-.047M16.646 17.33v.095M17.266 18.33l-.096-.048M17.17 18.282l-.047-.095M17.123 18.187v-.857M17.646 18.33v-1M17.742 17.949l.285.38M18.027 17.663l-.38.381"/>
        </g>
        <g class="stroked-text">
            <path d="m8.242 19.93-.334-.476M7.67 19.93v-1M7.67 18.93h.381M8.051 18.93l.095.047M8.146 18.977l.048.048M8.194 19.025l.048.095M8.242 19.12v.143M8.242 19.263l-.048.095M8.194 19.358l-.048.048M8.146 19.406l-.095.048M8.051 19.454h-.38M8.67 19.406h.334M9.146 19.93H8.67M8.67 19.93v-1M8.67 18.93h.476M9.908 19.406h-.333M9.575 19.93v-1M9.575 18.93h.476M10.575 18.93v.238M10.337 19.073l.238.095M10.575 19.168l.238-.095M10.432 19.358l.143-.19M10.575 19.168l.143.19M11.337 18.93v.238M11.099 19.073l.238.095M11.337 19.168l.238-.095M11.194 19.358l.143-.19M11.337 19.168l.143.19"/>
        </g>
    </g>
    <g style="fill:none;stroke:#afafaf;stroke-width:.1;stroke-opacity:1;stroke-linecap:round;stroke-linejoin:round">
        <path d="M1.955 3.225v2.54M1.955 5.765h2.54M4.495 2.59v4.445M4.495 3.225h-2.54M4.495 7.035h5.08M13.385 2.59h-8.89M15.925 8.305h2.54M15.925 8.94h-3.81M15.925 8.94V5.13M18.465 5.765h-2.54M18.465 8.305v-2.54"/>
        <path d="M7.825 13.155h3.5v3h-3.5Z" style="stroke:#afafaf;stroke-width:.1;stroke-opacity:1;stroke-linecap:round;stroke-linejoin:round;fill:none"/>
        <path d="M12.04 8.959a2.54 2.54 0 0 0-2.465-1.924M15.925 5.13a2.54 2.54 0 0 0-2.54-2.54"/>
    </g>
    <circle cx="4.495" cy="9.575" r=".85" style="fill:none;stroke:#afafaf;stroke-width:.0212;stroke-opacity:1;stroke-linecap:round;stroke-linejoin:round"/>
    <circle cx="7.035" cy="4.495" r="1.5" style="fill:none;stroke:#afafaf;stroke-width:.0212;stroke-opacity:1;stroke-linecap:round;stroke-linejoin:round"/>
    <circle cx="9.575" cy="9.575" r="2" style="fill:none;stroke:#afafaf;stroke-width:.0212;stroke-opacity:1;stroke-linecap:round;stroke-linejoin:round"/>
    <circle cx="13.385" cy="7.035" r="1.5" style="fill:none;stroke:#afafaf;stroke-width:.0212;stroke-opacity:1;stroke-linecap:round;stroke-linejoin:round"/>
    <circle cx="14.655" cy="9.575" r=".85" style="fill:none;stroke:#afafaf;stroke-width:.0212;stroke-opacity:1;stroke-linecap:round;stroke-linejoin:round"/>
    <g style="fill:none;stroke:#afafaf;stroke-width:.0708;stroke-opacity:1;stroke-linecap:round;stroke-linejoin:round">
        <g class="stroked-text">
            <path d="M17.378 7.425h-.486M17.135 7.425v-.85M17.135 6.575l-.081.121M17.054 6.696l-.08.08M16.973 6.777l-.08.04"/>
        </g>
        <path d="m15.86 6.035.019-.096.054-.08.081-.055.096-.019h2.05l.096.019.08.054.055.081.019.096v2l-.019.096-.054.08-.081.055-.096.019h-2.05l-.096-.019-.08-.054-.055-.081-.019-.096Z" style="stroke:#afafaf;stroke-width:.0212;stroke-opacity:1;stroke-linecap:round;stroke-linejoin:round;fill:none"/>
    </g>
    <g style="fill:none;stroke:#afafaf;stroke-width:.0708;stroke-opacity:1;stroke-linecap:round;stroke-linejoin:round">
        <g class="stroked-text">
            <path d="m3.042 4.116.04-.041M3.083 4.075l.08-.04M3.164 4.035h.202M3.366 4.035l.08.04M3.447 4.075l.04.04M3.487 4.116l.04.08M3.528 4.196v.081M3.528 4.277l-.04.122M3.487 4.399l-.485.486M3.002 4.885h.526"/>
        </g>
        <path d="m2.01 3.495.019-.096.054-.08.081-.055.096-.019h2.05l.096.019.08.054.055.081.019.096v2l-.019.096-.054.08-.081.055-.096.019H2.26l-.096-.019-.08-.054-.055-.081-.019-.096Z" style="stroke:#afafaf;stroke-width:.0212;stroke-opacity:1;stroke-linecap:round;stroke-linejoin:round;fill:none"/>
        <path d="M.05.05H19.1V19.1H.05Z" style="stroke:#c2c2c2;stroke-width:.1;stroke-opacity:1;stroke-linecap:round;stroke-linejoin:round;fill:none"/>
    </g>
</svg>
