<svg xmlns="http://www.w3.org/2000/svg" width="83.52" height="80.928" viewBox="0 0 22.098 21.412">
    <g style="fill:none;stroke:#e8b2a7;stroke-width:.12;stroke-opacity:1;stroke-linecap:round;stroke-linejoin:round">
        <path d="M3.954 2.875v13.4M4.354 16.675h13.4M17.754 2.475h-13.4M18.154 16.275v-13.4M4.354 2.475a.4.4 0 0 0-.4.4M3.954 16.275a.4.4 0 0 0 .4.4M18.154 2.875a.4.4 0 0 0-.4-.4M17.754 16.675a.4.4 0 0 0 .4-.4"/>
    </g>
    <g class="stroked-text" style="fill:none;stroke:#f2eda1;stroke-width:.15;stroke-opacity:1;stroke-linecap:round;stroke-linejoin:round">
        <path d="m10.898 4.95-.333-.476M10.327 4.95v-1M10.327 3.95h.38M10.708 3.95l.095.047M10.803 3.997l.047.048M10.85 4.045l.048.095M10.898 4.14v.143M10.898 4.283l-.048.095M10.85 4.378l-.047.048M10.803 4.426l-.095.048M10.708 4.474h-.381M11.327 4.426h.333M11.803 4.95h-.476M11.327 4.95v-1M11.327 3.95h.476M12.565 4.426h-.334M12.231 4.95v-1M12.231 3.95h.477M13.231 3.95v.238M12.993 4.093l.238.095M13.231 4.188l.239-.095M13.089 4.378l.142-.19M13.231 4.188l.143.19M13.993 3.95v.238M13.755 4.093l.238.095M13.993 4.188l.238-.095M13.85 4.378l.143-.19M13.993 4.188l.143.19"/>
    </g>
    <g style="fill:none;stroke:#f2eda1;stroke-width:.12;stroke-opacity:1;stroke-linecap:round;stroke-linejoin:round">
        <path d="M5.974 2.59v.355M5.974 2.59h1.68M5.974 7.035v-.99M5.974 7.035h5.08M12.654 2.59h-3.2M13.518 8.94h1.27M14.864 2.59h-.41M17.404 5.13v.355M13.513 8.941a2.54 2.54 0 0 0-2.46-1.906M17.404 5.13a2.54 2.54 0 0 0-2.54-2.54"/>
        <path stroke="none" d="m17.339 6.035.019-.096.054-.08.08-.055.097-.019h2.05l.095.019.081.054.054.081.02.096v2l-.02.096-.054.08-.08.055-.096.019h-2.05l-.096-.019-.081-.054-.054-.081-.02-.096ZM3.489 3.495l.019-.096.054-.08.08-.055.097-.019h2.05l.095.019.081.054.054.081.02.096v2l-.02.096-.054.08-.08.055-.096.019h-2.05l-.096-.019-.081-.054-.054-.081-.02-.096Z" style="fill:#b4a09a;fill-opacity:.9;stroke:none;fill-rule:evenodd"/>
    </g>
    <g style="fill:none;stroke:#4d7fc4;stroke-width:1;stroke-opacity:1;stroke-linecap:round;stroke-linejoin:round">
        <path d="M13.754 17.075h-.4M8.754 17.075h-.4M11.254 17.075h-.4"/>
        <path stroke="none" d="m4.524 8.25.015-.077.043-.065.065-.043.077-.015h1.2l.6.6v1.8l-.6.6h-1.2l-.077-.016-.065-.043-.043-.065-.015-.076ZM15.584 10.45V8.79l.88-.74h.52l.6.6v2.2l-.02.08-.04.06-.06.04-.08.02h-1.2Z" style="fill:#4d7fc4;fill-opacity:1;stroke:none;fill-rule:evenodd"/>
    </g>
    <g style="fill:none;stroke:#4d7fc4;stroke-width:1;stroke-opacity:1;stroke-linecap:round;stroke-linejoin:round">
        <path d="M13.754 2.25h-.4M8.754 2.25h-.4"/>
    </g>
    <g style="fill:none;stroke:#c83434;stroke-width:1;stroke-opacity:1;stroke-linecap:round;stroke-linejoin:round">
        <path d="M13.754 17.075h-.4M8.754 17.075h-.4M11.254 17.075h-.4"/>
        <path stroke="none" d="m4.524 8.25.015-.077.043-.065.065-.043.077-.015h1.2l.6.6v1.8l-.6.6h-1.2l-.077-.016-.065-.043-.043-.065-.015-.076ZM15.584 10.45V8.79l.88-.74h.52l.6.6v2.2l-.02.08-.04.06-.06.04-.08.02h-1.2Z" style="fill:#c83434;fill-opacity:1;stroke:none;fill-rule:evenodd"/>
    </g>
    <g style="fill:none;stroke:#c83434;stroke-width:1;stroke-opacity:1;stroke-linecap:round;stroke-linejoin:round">
        <path d="M13.754 2.25h-.4"/>
        <path stroke="none" d="m17.339 6.035.019-.096.054-.08.08-.055.097-.019h2.05l.095.019.081.054.054.081.02.096v2l-.02.096-.054.08-.08.055-.096.019h-2.05l-.096-.019-.081-.054-.054-.081-.02-.096ZM3.489 3.495l.019-.096.054-.08.08-.055.097-.019h2.05l.095.019.081.054.054.081.02.096v2l-.02.096-.054.08-.08.055-.096.019h-2.05l-.096-.019-.081-.054-.054-.081-.02-.096Z" style="fill:#c83434;fill-opacity:1;stroke:none;fill-rule:evenodd"/>
    </g>
    <g style="fill:none;stroke:#c83434;stroke-width:1;stroke-opacity:1;stroke-linecap:round;stroke-linejoin:round">
        <path d="M8.754 2.25h-.4"/>
        <path d="M4.054 2.575h14v14h-14Z" style="stroke:#585d84;stroke-width:.1;stroke-opacity:1;stroke-linecap:round;stroke-linejoin:round;fill:none"/>
    </g>
    <circle cx="8.514" cy="4.495" r="1.5" style="fill:none;stroke:#585d84;stroke-width:.0212;stroke-opacity:1;stroke-linecap:round;stroke-linejoin:round"/>
    <circle cx="11.054" cy="9.55" r="2" style="fill:none;stroke:#585d84;stroke-width:.0212;stroke-opacity:1;stroke-linecap:round;stroke-linejoin:round"/>
    <circle cx="14.864" cy="7.035" r="1.5" style="fill:none;stroke:#585d84;stroke-width:.0212;stroke-opacity:1;stroke-linecap:round;stroke-linejoin:round"/>
    <g class="stroked-text" style="fill:none;stroke:#585d84;stroke-width:.0389;stroke-opacity:1;stroke-linecap:round;stroke-linejoin:round">
        <path d="M13.443 17.156h.222M13.398 17.289l.156-.467M13.554 16.822l.155.467"/>
    </g>
    <g style="fill:none;stroke:#585d84;stroke-width:.0212;stroke-opacity:1;stroke-linecap:round;stroke-linejoin:round">
        <path d="M13.754 16.575h-.4M13.354 16.575a.5.5 0 0 0 0 1M13.354 17.575h.4M13.754 17.575a.5.5 0 0 0 0-1"/>
    </g>
    <g class="stroked-text" style="fill:none;stroke:#585d84;stroke-width:.0389;stroke-opacity:1;stroke-linecap:round;stroke-linejoin:round">
        <path d="m8.587 17.044.067.023M8.654 17.067l.022.022M8.676 17.089l.022.044M8.698 17.133v.067M8.698 17.2l-.022.044M8.676 17.244l-.022.023M8.654 17.267l-.045.022M8.61 17.289H8.43M8.431 17.289v-.467M8.431 16.822h.156M8.587 16.822l.044.022M8.631 16.844l.023.023M8.654 16.867l.022.044M8.676 16.911v.044M8.676 16.956 8.654 17M8.654 17l-.023.022M8.631 17.022l-.044.022M8.587 17.044H8.43"/>
    </g>
    <g style="fill:none;stroke:#585d84;stroke-width:.0212;stroke-opacity:1;stroke-linecap:round;stroke-linejoin:round">
        <path d="M8.754 16.575h-.4M8.354 16.575a.5.5 0 0 0 0 1M8.354 17.575h.4M8.754 17.575a.5.5 0 0 0 0-1"/>
    </g>
    <g class="stroked-text" style="fill:none;stroke:#585d84;stroke-width:.0389;stroke-opacity:1;stroke-linecap:round;stroke-linejoin:round">
        <path d="m11.198 17.244-.022.023M11.176 17.267l-.067.022M11.11 17.289h-.045M11.065 17.289l-.067-.022M10.998 17.267l-.044-.045M10.954 17.222l-.023-.044M10.931 17.178l-.022-.09M10.91 17.089v-.067M10.91 17.022l.021-.089M10.931 16.933l.023-.044M10.954 16.889l.044-.045M10.998 16.844l.067-.022M11.065 16.822h.044M11.11 16.822l.066.022M11.176 16.844l.022.023"/>
    </g>
    <g style="fill:none;stroke:#585d84;stroke-width:.0212;stroke-opacity:1;stroke-linecap:round;stroke-linejoin:round">
        <path d="M11.254 16.575h-.4M10.854 16.575a.5.5 0 0 0 0 1M10.854 17.575h.4M11.254 17.575a.5.5 0 0 0 0-1"/>
    </g>
    <g style="fill:none;stroke:#585d84;stroke-width:.0833;stroke-opacity:1;stroke-linecap:round;stroke-linejoin:round">
        <g class="stroked-text">
            <path d="M5.982 10.383h-1M4.982 10.383l.714-.333M5.696 10.05l-.714-.334M4.982 9.716h1M5.982 9.24h-1M4.982 9.24v-.38M4.982 8.86l.047-.096M5.03 8.764l.047-.048M5.077 8.716l.095-.047M5.172 8.669h.143M5.315 8.669l.095.047M5.41 8.716l.048.048M5.458 8.764l.048.095M5.506 8.86v.38"/>
        </g>
        <path d="m4.524 8.25.015-.077.043-.065.065-.043.077-.015h1.2l.6.6v1.8l-.6.6h-1.2l-.077-.016-.065-.043-.043-.065-.015-.076Z" style="stroke:#585d84;stroke-width:.0212;stroke-opacity:1;stroke-linecap:round;stroke-linejoin:round;fill:none"/>
    </g>
    <g style="fill:none;stroke:#585d84;stroke-width:.0833;stroke-opacity:1;stroke-linecap:round;stroke-linejoin:round">
        <g class="stroked-text">
            <path d="M17.042 10.383h-1M16.042 10.383l.714-.333M16.756 10.05l-.714-.334M16.042 9.716h1M17.042 9.24h-1M16.042 9.24v-.38M16.042 8.86l.047-.096M16.09 8.764l.047-.048M16.137 8.716l.095-.047M16.232 8.669h.143M16.375 8.669l.095.047M16.47 8.716l.048.048M16.518 8.764l.048.095M16.566 8.86v.38"/>
        </g>
        <path d="M15.584 10.45V8.79l.88-.74h.52l.6.6v2.2l-.02.08-.04.06-.06.04-.08.02h-1.2Z" style="stroke:#585d84;stroke-width:.0212;stroke-opacity:1;stroke-linecap:round;stroke-linejoin:round;fill:none"/>
    </g>
    <g class="stroked-text" style="fill:none;stroke:#585d84;stroke-width:.0389;stroke-opacity:1;stroke-linecap:round;stroke-linejoin:round">
        <path d="m13.198 2.441.067.022M13.265 2.464h.11M13.376 2.464l.044-.023M13.42 2.441l.023-.022M13.443 2.419l.022-.044M13.465 2.375V2.33M13.465 2.33l-.022-.044M13.443 2.286l-.023-.022M13.42 2.264l-.044-.023M13.376 2.241l-.09-.022M13.287 2.219l-.045-.022M13.243 2.197l-.023-.022M13.22 2.175l-.022-.045M13.198 2.13v-.044M13.198 2.086l.022-.045M13.22 2.041l.022-.022M13.243 2.019l.044-.022M13.287 1.997h.111M13.398 1.997l.067.022M13.91 2.464h-.268M13.776 2.464v-.467M13.776 1.997l-.045.066M13.731 2.064l-.044.044M13.687 2.108l-.044.022"/>
    </g>
    <g style="fill:none;stroke:#585d84;stroke-width:.0212;stroke-opacity:1;stroke-linecap:round;stroke-linejoin:round">
        <path d="M13.754 1.75h-.4M13.354 1.75a.5.5 0 0 0 0 1M13.354 2.75h.4M13.754 2.75a.5.5 0 0 0 0-1"/>
    </g>
    <g class="stroked-text" style="fill:none;stroke:#585d84;stroke-width:.0389;stroke-opacity:1;stroke-linecap:round;stroke-linejoin:round">
        <path d="m8.198 2.441.067.022M8.265 2.464h.11M8.376 2.464l.044-.023M8.42 2.441l.023-.022M8.443 2.419l.022-.044M8.465 2.375V2.33M8.465 2.33l-.022-.044M8.443 2.286l-.023-.022M8.42 2.264l-.044-.023M8.376 2.241l-.09-.022M8.287 2.219l-.045-.022M8.243 2.197l-.023-.022M8.22 2.175l-.022-.045M8.198 2.13v-.044M8.198 2.086l.022-.045M8.22 2.041l.022-.022M8.243 2.019l.044-.022M8.287 1.997h.111M8.398 1.997l.067.022M8.643 2.041l.022-.022M8.665 2.019l.044-.022M8.71 1.997h.11M8.82 1.997l.045.022M8.865 2.019l.022.022M8.887 2.041l.022.045M8.91 2.086v.044M8.91 2.13l-.023.067M8.887 2.197l-.267.266M8.62 2.464h.29"/>
    </g>
    <g style="fill:none;stroke:#585d84;stroke-width:.0212;stroke-opacity:1;stroke-linecap:round;stroke-linejoin:round">
        <path d="M8.754 1.75h-.4M8.354 1.75a.5.5 0 0 0 0 1M8.354 2.75h.4M8.754 2.75a.5.5 0 0 0 0-1"/>
    </g>
    <g style="fill:none;stroke:#afafaf;stroke-width:.15;stroke-opacity:1;stroke-linecap:round;stroke-linejoin:round">
        <g class="stroked-text">
            <path d="m.316 19.382.142.048M.458 19.43h.238M.696 19.43l.096-.048M.792 19.382l.047-.047M.84 19.335l.047-.096M.887 19.24v-.096M.887 19.144l-.048-.095M.84 19.049.791 19M.792 19.001l-.096-.047M.696 18.954l-.19-.048M.506 18.906l-.095-.048M.41 18.858l-.047-.047M.363 18.81l-.047-.095M.316 18.716v-.096M.316 18.62l.047-.095M.363 18.525l.048-.048M.41 18.477l.096-.047M.506 18.43h.238M.744 18.43l.143.047M1.22 18.43l.238 1M1.458 19.43l.19-.715M1.649 18.716l.19.714M1.84 19.43l.237-1M2.22 19.525h.762M3.22 19.43v-1M3.22 18.43l.334.714M3.554 19.144l.333-.714M3.887 18.43v1M4.268 18.43l.667 1M4.935 18.43l-.667 1M5.077 19.525h.762M6.077 18.906h.334M6.554 19.43h-.477M6.077 19.43v-1M6.077 18.43h.477M7.554 19.335l-.048.047M7.506 19.382l-.143.048M7.363 19.43h-.095M7.268 19.43l-.143-.048M7.125 19.382l-.095-.095M7.03 19.287l-.048-.095M6.982 19.192l-.048-.19M6.935 19.001v-.143M6.935 18.858l.047-.19M6.982 18.668l.048-.095M7.03 18.573l.095-.096M7.125 18.477l.143-.047M7.268 18.43h.095M7.363 18.43l.143.047M7.506 18.477l.048.048M8.506 19.43h-.572M8.22 19.43v-1M8.22 18.43l-.095.143M8.125 18.573l-.095.095M8.03 18.668l-.095.047M9.458 19.43h-.571M9.173 19.43v-1M9.173 18.43l-.096.143M9.077 18.573l-.095.095M8.982 18.668l-.095.047M9.649 19.525h.762M10.649 19.43v-1M10.649 18.906h.571M11.22 19.43v-1M11.84 19.43l-.096-.048M11.744 19.382l-.048-.047M11.696 19.335l-.047-.096M11.649 19.24v-.286M11.649 18.954l.047-.096M11.696 18.858l.048-.047M11.744 18.81l.095-.047M11.84 18.763h.142M11.982 18.763l.095.048M12.077 18.81l.048.048M12.125 18.858l.048.096M12.173 18.954v.285M12.173 19.24l-.048.095M12.125 19.335l-.048.047M12.077 19.382l-.095.048M11.982 19.43h-.143M12.458 18.763h.381M12.601 18.43v.857M12.601 19.287l.048.095M12.649 19.382l.095.048M12.744 19.43h.095M13.125 19.382l.143.048M13.268 19.43h.238M13.506 19.43l.095-.048M13.601 19.382l.048-.047M13.649 19.335l.047-.096M13.696 19.24v-.096M13.696 19.144l-.047-.095M13.649 19.049 13.6 19M13.601 19.001l-.095-.047M13.506 18.954l-.19-.048M13.316 18.906l-.096-.048M13.22 18.858l-.047-.047M13.173 18.81l-.048-.095M13.125 18.716v-.096M13.125 18.62l.048-.095M13.173 18.525l.047-.048M13.22 18.477l.095-.047M13.316 18.43h.238M13.554 18.43l.142.047M14.03 18.763l.19.667M14.22 19.43l.19-.476M14.41 18.954l.191.476M14.601 19.43l.19-.667M15.601 19.43v-.524M15.601 18.906l-.047-.095M15.554 18.81l-.096-.047M15.458 18.763h-.19M15.268 18.763l-.095.048M15.601 19.382l-.095.048M15.506 19.43h-.238M15.268 19.43l-.095-.048M15.173 19.382l-.048-.095M15.125 19.287v-.095M15.125 19.192l.048-.096M15.173 19.097l.095-.048M15.268 19.049h.238M15.506 19.049l.095-.048M16.077 18.763v1M16.077 18.81l.096-.047M16.173 18.763h.19M16.363 18.763l.095.048M16.458 18.81l.048.048M16.506 18.858l.048.096M16.554 18.954v.285M16.554 19.24l-.048.095M16.506 19.335l-.048.047M16.458 19.382l-.095.048M16.363 19.43h-.19M16.173 19.43l-.096-.048M16.744 19.525h.762M17.696 19.382l.096.048M17.792 19.43h.19M17.982 19.43l.095-.048M18.077 19.382l.048-.095M18.125 19.287v-.048M18.125 19.24l-.048-.096M18.077 19.144l-.095-.047M17.982 19.097h-.143M17.84 19.097l-.096-.048M17.744 19.049l-.048-.095M17.696 18.954v-.048M17.696 18.906l.048-.095M17.744 18.81l.095-.047M17.84 18.763h.142M17.982 18.763l.095.048M18.982 18.763v1M18.982 19.382l-.095.048M18.887 19.43h-.19M18.696 19.43l-.095-.048M18.601 19.382l-.047-.047M18.554 19.335l-.048-.096M18.506 19.24v-.286M18.506 18.954l.048-.096M18.554 18.858l.047-.047M18.601 18.81l.095-.047M18.696 18.763h.19M18.887 18.763l.095.048M19.41 19.382l.144.048M19.554 19.43h.238M19.792 19.43l.095-.048M19.887 19.382l.047-.047M19.935 19.335l.047-.096M19.982 19.24v-.096M19.982 19.144l-.047-.095M19.935 19.049 19.887 19M19.887 19.001l-.095-.047M19.792 18.954l-.19-.048M19.601 18.906l-.095-.048M19.506 18.858l-.048-.047M19.458 18.81l-.047-.095M19.41 18.716v-.096M19.41 18.62l.048-.095M19.458 18.525l.048-.048M19.506 18.477l.095-.047M19.601 18.43h.238M19.84 18.43l.142.047M20.41 19.43v-.667M20.41 18.43l-.047.047M20.363 18.477l.048.048M20.41 18.525l.048-.048M20.458 18.477l-.047-.047M20.41 18.43v.095M21.03 19.43l-.096-.048M20.935 19.382l-.048-.095M20.887 19.287v-.857M21.41 19.43v-1M21.506 19.049l.286.38M21.792 18.763l-.381.381"/>
        </g>
        <g class="stroked-text">
            <path d="m9.72 21.03-.333-.476M9.149 21.03v-1M9.149 20.03h.38M9.53 20.03l.095.047M9.625 20.077l.048.048M9.673 20.125l.047.095M9.72 20.22v.143M9.72 20.363l-.047.095M9.673 20.458l-.048.048M9.625 20.506l-.095.048M9.53 20.554h-.381M10.149 20.506h.333M10.625 21.03h-.476M10.149 21.03v-1M10.149 20.03h.476M11.387 20.506h-.333M11.054 21.03v-1M11.054 20.03h.476M12.054 20.03v.238M11.816 20.173l.238.095M12.054 20.268l.238-.095M11.91 20.458l.144-.19M12.054 20.268l.142.19M12.816 20.03v.238M12.577 20.173l.239.095M12.816 20.268l.238-.095M12.673 20.458l.143-.19M12.816 20.268l.142.19"/>
        </g>
    </g>
    <g style="fill:none;stroke:#afafaf;stroke-width:.1;stroke-opacity:1;stroke-linecap:round;stroke-linejoin:round">
        <path d="M3.434 3.225v2.54M3.434 5.765h2.54M5.974 2.59v4.445M5.974 3.225h-2.54M5.974 7.035h5.08M14.864 2.59h-8.89M17.404 8.305h2.54M17.404 8.94h-3.81M17.404 8.94V5.13M19.944 5.765h-2.54M19.944 8.305v-2.54"/>
        <path d="M9.304 13.155h3.5v3h-3.5Z" style="stroke:#afafaf;stroke-width:.1;stroke-opacity:1;stroke-linecap:round;stroke-linejoin:round;fill:none"/>
        <path d="M13.518 8.959a2.54 2.54 0 0 0-2.464-1.924M17.404 5.13a2.54 2.54 0 0 0-2.54-2.54"/>
    </g>
    <circle cx="8.514" cy="4.495" r="1.5" style="fill:none;stroke:#afafaf;stroke-width:.0212;stroke-opacity:1;stroke-linecap:round;stroke-linejoin:round"/>
    <circle cx="11.054" cy="9.55" r="2" style="fill:none;stroke:#afafaf;stroke-width:.0212;stroke-opacity:1;stroke-linecap:round;stroke-linejoin:round"/>
    <circle cx="14.864" cy="7.035" r="1.5" style="fill:none;stroke:#afafaf;stroke-width:.0212;stroke-opacity:1;stroke-linecap:round;stroke-linejoin:round"/>
    <g class="stroked-text" style="fill:none;stroke:#afafaf;stroke-width:.0389;stroke-opacity:1;stroke-linecap:round;stroke-linejoin:round">
        <path d="M13.443 17.156h.222M13.398 17.289l.156-.467M13.554 16.822l.155.467"/>
    </g>
    <g style="fill:none;stroke:#afafaf;stroke-width:.0212;stroke-opacity:1;stroke-linecap:round;stroke-linejoin:round">
        <path d="M13.754 16.575h-.4M13.354 16.575a.5.5 0 0 0 0 1M13.354 17.575h.4M13.754 17.575a.5.5 0 0 0 0-1"/>
    </g>
    <g class="stroked-text" style="fill:none;stroke:#afafaf;stroke-width:.0389;stroke-opacity:1;stroke-linecap:round;stroke-linejoin:round">
        <path d="m8.587 17.044.067.023M8.654 17.067l.022.022M8.676 17.089l.022.044M8.698 17.133v.067M8.698 17.2l-.022.044M8.676 17.244l-.022.023M8.654 17.267l-.045.022M8.61 17.289H8.43M8.431 17.289v-.467M8.431 16.822h.156M8.587 16.822l.044.022M8.631 16.844l.023.023M8.654 16.867l.022.044M8.676 16.911v.044M8.676 16.956 8.654 17M8.654 17l-.023.022M8.631 17.022l-.044.022M8.587 17.044H8.43"/>
    </g>
    <g style="fill:none;stroke:#afafaf;stroke-width:.0212;stroke-opacity:1;stroke-linecap:round;stroke-linejoin:round">
        <path d="M8.754 16.575h-.4M8.354 16.575a.5.5 0 0 0 0 1M8.354 17.575h.4M8.754 17.575a.5.5 0 0 0 0-1"/>
    </g>
    <g class="stroked-text" style="fill:none;stroke:#afafaf;stroke-width:.0389;stroke-opacity:1;stroke-linecap:round;stroke-linejoin:round">
        <path d="m11.198 17.244-.022.023M11.176 17.267l-.067.022M11.11 17.289h-.045M11.065 17.289l-.067-.022M10.998 17.267l-.044-.045M10.954 17.222l-.023-.044M10.931 17.178l-.022-.09M10.91 17.089v-.067M10.91 17.022l.021-.089M10.931 16.933l.023-.044M10.954 16.889l.044-.045M10.998 16.844l.067-.022M11.065 16.822h.044M11.11 16.822l.066.022M11.176 16.844l.022.023"/>
    </g>
    <g style="fill:none;stroke:#afafaf;stroke-width:.0212;stroke-opacity:1;stroke-linecap:round;stroke-linejoin:round">
        <path d="M11.254 16.575h-.4M10.854 16.575a.5.5 0 0 0 0 1M10.854 17.575h.4M11.254 17.575a.5.5 0 0 0 0-1"/>
    </g>
    <g style="fill:none;stroke:#afafaf;stroke-width:.0833;stroke-opacity:1;stroke-linecap:round;stroke-linejoin:round">
        <g class="stroked-text">
            <path d="M5.982 10.383h-1M4.982 10.383l.714-.333M5.696 10.05l-.714-.334M4.982 9.716h1M5.982 9.24h-1M4.982 9.24v-.38M4.982 8.86l.047-.096M5.03 8.764l.047-.048M5.077 8.716l.095-.047M5.172 8.669h.143M5.315 8.669l.095.047M5.41 8.716l.048.048M5.458 8.764l.048.095M5.506 8.86v.38"/>
        </g>
        <path d="m4.524 8.25.015-.077.043-.065.065-.043.077-.015h1.2l.6.6v1.8l-.6.6h-1.2l-.077-.016-.065-.043-.043-.065-.015-.076Z" style="stroke:#afafaf;stroke-width:.0212;stroke-opacity:1;stroke-linecap:round;stroke-linejoin:round;fill:none"/>
    </g>
    <g style="fill:none;stroke:#afafaf;stroke-width:.0833;stroke-opacity:1;stroke-linecap:round;stroke-linejoin:round">
        <g class="stroked-text">
            <path d="M17.042 10.383h-1M16.042 10.383l.714-.333M16.756 10.05l-.714-.334M16.042 9.716h1M17.042 9.24h-1M16.042 9.24v-.38M16.042 8.86l.047-.096M16.09 8.764l.047-.048M16.137 8.716l.095-.047M16.232 8.669h.143M16.375 8.669l.095.047M16.47 8.716l.048.048M16.518 8.764l.048.095M16.566 8.86v.38"/>
        </g>
        <path d="M15.584 10.45V8.79l.88-.74h.52l.6.6v2.2l-.02.08-.04.06-.06.04-.08.02h-1.2Z" style="stroke:#afafaf;stroke-width:.0212;stroke-opacity:1;stroke-linecap:round;stroke-linejoin:round;fill:none"/>
    </g>
    <g class="stroked-text" style="fill:none;stroke:#afafaf;stroke-width:.0389;stroke-opacity:1;stroke-linecap:round;stroke-linejoin:round">
        <path d="m13.198 2.441.067.022M13.265 2.464h.11M13.376 2.464l.044-.023M13.42 2.441l.023-.022M13.443 2.419l.022-.044M13.465 2.375V2.33M13.465 2.33l-.022-.044M13.443 2.286l-.023-.022M13.42 2.264l-.044-.023M13.376 2.241l-.09-.022M13.287 2.219l-.045-.022M13.243 2.197l-.023-.022M13.22 2.175l-.022-.045M13.198 2.13v-.044M13.198 2.086l.022-.045M13.22 2.041l.022-.022M13.243 2.019l.044-.022M13.287 1.997h.111M13.398 1.997l.067.022M13.91 2.464h-.268M13.776 2.464v-.467M13.776 1.997l-.045.066M13.731 2.064l-.044.044M13.687 2.108l-.044.022"/>
    </g>
    <g style="fill:none;stroke:#afafaf;stroke-width:.0212;stroke-opacity:1;stroke-linecap:round;stroke-linejoin:round">
        <path d="M13.754 1.75h-.4M13.354 1.75a.5.5 0 0 0 0 1M13.354 2.75h.4M13.754 2.75a.5.5 0 0 0 0-1"/>
    </g>
    <g style="fill:none;stroke:#afafaf;stroke-width:.0708;stroke-opacity:1;stroke-linecap:round;stroke-linejoin:round">
        <g class="stroked-text">
            <path d="m17.966 7.384.121.04M18.087 7.425h.203M18.29 7.425l.08-.04M18.37 7.384l.041-.04M18.411 7.344l.04-.081M18.452 7.263v-.081M18.452 7.182l-.04-.081M18.411 7.1l-.04-.04M18.37 7.06l-.08-.04M18.29 7.02l-.162-.04M18.128 6.98l-.081-.041M18.047 6.939l-.04-.04M18.006 6.898l-.04-.08M17.966 6.817v-.08M17.966 6.736l.04-.08M18.006 6.656l.04-.041M18.047 6.615l.08-.04M18.128 6.575h.202M18.33 6.575l.122.04M19.261 7.425h-.485M19.018 7.425v-.85M19.018 6.575l-.08.121M18.937 6.696l-.08.08M18.856 6.777l-.08.04"/>
        </g>
        <path d="m17.339 6.035.019-.096.054-.08.08-.055.097-.019h2.05l.095.019.081.054.054.081.02.096v2l-.02.096-.054.08-.08.055-.096.019h-2.05l-.096-.019-.081-.054-.054-.081-.02-.096Z" style="stroke:#afafaf;stroke-width:.0212;stroke-opacity:1;stroke-linecap:round;stroke-linejoin:round;fill:none"/>
    </g>
    <g style="fill:none;stroke:#afafaf;stroke-width:.0708;stroke-opacity:1;stroke-linecap:round;stroke-linejoin:round">
        <g class="stroked-text">
            <path d="m4.116 4.844.121.04M4.237 4.885h.203M4.44 4.885l.08-.04M4.52 4.844l.041-.04M4.561 4.804l.04-.081M4.602 4.723v-.081M4.602 4.642l-.04-.081M4.561 4.56l-.04-.04M4.52 4.52l-.08-.04M4.44 4.48l-.162-.04M4.278 4.44l-.081-.041M4.197 4.399l-.04-.04M4.156 4.358l-.04-.08M4.116 4.277v-.08M4.116 4.196l.04-.08M4.156 4.116l.04-.041M4.197 4.075l.08-.04M4.278 4.035h.202M4.48 4.035l.122.04M4.926 4.116l.04-.041M4.966 4.075l.08-.04M5.047 4.035h.202M5.25 4.035l.08.04M5.33 4.075l.04.04M5.37 4.116l.041.08M5.411 4.196v.081M5.411 4.277l-.04.122M5.37 4.399l-.485.486M4.885 4.885h.526"/>
        </g>
        <path d="m3.489 3.495.019-.096.054-.08.08-.055.097-.019h2.05l.095.019.081.054.054.081.02.096v2l-.02.096-.054.08-.08.055-.096.019h-2.05l-.096-.019-.081-.054-.054-.081-.02-.096Z" style="stroke:#afafaf;stroke-width:.0212;stroke-opacity:1;stroke-linecap:round;stroke-linejoin:round;fill:none"/>
    </g>
    <g class="stroked-text" style="fill:none;stroke:#afafaf;stroke-width:.0389;stroke-opacity:1;stroke-linecap:round;stroke-linejoin:round">
        <path d="m8.198 2.441.067.022M8.265 2.464h.11M8.376 2.464l.044-.023M8.42 2.441l.023-.022M8.443 2.419l.022-.044M8.465 2.375V2.33M8.465 2.33l-.022-.044M8.443 2.286l-.023-.022M8.42 2.264l-.044-.023M8.376 2.241l-.09-.022M8.287 2.219l-.045-.022M8.243 2.197l-.023-.022M8.22 2.175l-.022-.045M8.198 2.13v-.044M8.198 2.086l.022-.045M8.22 2.041l.022-.022M8.243 2.019l.044-.022M8.287 1.997h.111M8.398 1.997l.067.022M8.643 2.041l.022-.022M8.665 2.019l.044-.022M8.71 1.997h.11M8.82 1.997l.045.022M8.865 2.019l.022.022M8.887 2.041l.022.045M8.91 2.086v.044M8.91 2.13l-.023.067M8.887 2.197l-.267.266M8.62 2.464h.29"/>
    </g>
    <g style="fill:none;stroke:#afafaf;stroke-width:.0212;stroke-opacity:1;stroke-linecap:round;stroke-linejoin:round">
        <path d="M8.754 1.75h-.4M8.354 1.75a.5.5 0 0 0 0 1M8.354 2.75h.4M8.754 2.75a.5.5 0 0 0 0-1"/>
        <path d="M1.529.05h19.05V19.1H1.529Z" style="stroke:#c2c2c2;stroke-width:.1;stroke-opacity:1;stroke-linecap:round;stroke-linejoin:round;fill:none"/>
    </g>
</svg>
