<?xml version="1.0" standalone="no"?>
 <!DOCTYPE svg PUBLIC "-//W3C//DTD SVG 1.1//EN" 
 "http://www.w3.org/Graphics/SVG/1.1/DTD/svg11.dtd"> 
<svg
  xmlns:svg="http://www.w3.org/2000/svg"
  xmlns="http://www.w3.org/2000/svg"
  xmlns:xlink="http://www.w3.org/1999/xlink"
  version="1.1"
  width="19.1262mm" height="21.4122mm" viewBox="0.0000 0.0000 19.1262 21.4122">
<title>SVG Image created as SW_MX_EC11_HotSwap.svg date 2025/05/13 13:29:23 </title>
  <desc>Image generated by PCBNEW </desc>
<g style="fill:#000000; fill-opacity:1.0000;stroke:#000000; stroke-opacity:1.0000;
stroke-linecap:round; stroke-linejoin:round;"
 transform="translate(0 0) scale(1 1)">
</g>
<g style="fill:none; 
stroke:#E8B2A7; stroke-width:0.1200; stroke-opacity:1; 
stroke-linecap:round; stroke-linejoin:round;">
<path d="M2.4750 2.4750
L3.4750 2.4750
" />
<path d="M2.4750 3.4750
L2.4750 2.4750
" />
<path d="M2.4750 16.6750
L2.4750 15.6750
" />
<path d="M3.4750 16.6750
L2.4750 16.6750
" />
<path d="M15.6750 2.4750
L16.6750 2.4750
" />
<path d="M16.6750 2.4750
L16.6750 3.4750
" />
<path d="M16.6750 15.6750
L16.6750 16.6750
" />
<path d="M16.6750 16.6750
L15.6750 16.6750
" />
</g>
<g style="fill:none; 
stroke:#F2EDA1; stroke-width:0.1500; stroke-opacity:1; 
stroke-linecap:round; stroke-linejoin:round;">
<text x="10.7528" y="4.9950"
textLength="4.5357" font-size="1.3333" lengthAdjust="spacingAndGlyphs"
text-anchor="middle" opacity="0" stroke-opacity="0">REF**</text>
<g class="stroked-text"><desc>REF**</desc>
<path d="M9.4195 4.9498
L9.0861 4.4736
" />
<path d="M8.8480 4.9498
L8.8480 3.9498
" />
<path d="M8.8480 3.9498
L9.2290 3.9498
" />
<path d="M9.2290 3.9498
L9.3242 3.9974
" />
<path d="M9.3242 3.9974
L9.3718 4.0451
" />
<path d="M9.3718 4.0451
L9.4195 4.1403
" />
<path d="M9.4195 4.1403
L9.4195 4.2832
" />
<path d="M9.4195 4.2832
L9.3718 4.3784
" />
<path d="M9.3718 4.3784
L9.3242 4.4260
" />
<path d="M9.3242 4.4260
L9.2290 4.4736
" />
<path d="M9.2290 4.4736
L8.8480 4.4736
" />
<path d="M9.8480 4.4260
L10.1814 4.4260
" />
<path d="M10.3242 4.9498
L9.8480 4.9498
" />
<path d="M9.8480 4.9498
L9.8480 3.9498
" />
<path d="M9.8480 3.9498
L10.3242 3.9498
" />
<path d="M11.0861 4.4260
L10.7528 4.4260
" />
<path d="M10.7528 4.9498
L10.7528 3.9498
" />
<path d="M10.7528 3.9498
L11.2290 3.9498
" />
<path d="M11.7528 3.9498
L11.7528 4.1879
" />
<path d="M11.5147 4.0927
L11.7528 4.1879
" />
<path d="M11.7528 4.1879
L11.9909 4.0927
" />
<path d="M11.6099 4.3784
L11.7528 4.1879
" />
<path d="M11.7528 4.1879
L11.8957 4.3784
" />
<path d="M12.5147 3.9498
L12.5147 4.1879
" />
<path d="M12.2766 4.0927
L12.5147 4.1879
" />
<path d="M12.5147 4.1879
L12.7528 4.0927
" />
<path d="M12.3718 4.3784
L12.5147 4.1879
" />
<path d="M12.5147 4.1879
L12.6576 4.3784
" />
</g></g>
<g style="fill:none; 
stroke:#F2EDA1; stroke-width:0.1200; stroke-opacity:1; 
stroke-linecap:round; stroke-linejoin:round;">
<path d="M4.4950 2.5900
L4.4950 2.9450
" />
<path d="M4.4950 2.5900
L6.1750 2.5900
" />
<path d="M4.4950 7.0350
L4.4950 6.0450
" />
<path d="M4.4950 7.0350
L9.5750 7.0350
" />
<path d="M11.1750 2.5900
L7.9750 2.5900
" />
<path d="M12.0392 8.9400
L13.3088 8.9400
" />
<path d="M13.3850 2.5900
L12.9750 2.5900
" />
<path d="M15.9250 5.1300
L15.9250 5.4850
" />
<path d="M12.0346 8.9412 A2.5400 2.5400 0.0 0 0 9.5750 7.0350" />
<path d="M15.9250 5.1300 A2.5400 2.5400 0.0 0 0 13.3850 2.5900" />
<path style="fill:#B4A09A; fill-opacity:0.9000; stroke:none;fill-rule:evenodd;"
d="M 15.8600,6.0350
15.8790,5.9393
15.9332,5.8582
16.0143,5.8040
16.1100,5.7850
18.1600,5.7850
18.2557,5.8040
18.3368,5.8582
18.3910,5.9393
18.4100,6.0350
18.4100,8.0350
18.3910,8.1307
18.3368,8.2118
18.2557,8.2660
18.1600,8.2850
16.1100,8.2850
16.0143,8.2660
15.9332,8.2118
15.8790,8.1307
15.8600,8.0350
Z" /> 
<path style="fill:#B4A09A; fill-opacity:0.9000; stroke:none;fill-rule:evenodd;"
d="M 2.0100,3.4950
2.0290,3.3993
2.0832,3.3182
2.1643,3.2640
2.2600,3.2450
4.3100,3.2450
4.4057,3.2640
4.4868,3.3182
4.5410,3.3993
4.5600,3.4950
4.5600,5.4950
4.5410,5.5907
4.4868,5.6718
4.4057,5.7260
4.3100,5.7450
2.2600,5.7450
2.1643,5.7260
2.0832,5.6718
2.0290,5.5907
2.0100,5.4950
Z" /> 
</g>
<g style="fill:none; 
stroke:#4D7FC4; stroke-width:1.0000; stroke-opacity:1; 
stroke-linecap:round; stroke-linejoin:round;">
<path d="M12.2750 17.0750
L11.8750 17.0750
" />
<path d="M7.2750 17.0750
L6.8750 17.0750
" />
<path d="M9.7750 17.0750
L9.3750 17.0750
" />
<path style="fill:#4D7FC4; fill-opacity:1.0000; stroke:none;fill-rule:evenodd;"
d="M 3.0450,8.2496
3.0602,8.1731
3.1036,8.1082
3.1685,8.0648
3.2450,8.0496
4.4450,8.0496
5.0450,8.6496
5.0450,10.4496
4.4450,11.0496
3.2450,11.0496
3.1685,11.0344
3.1036,10.9910
3.0602,10.9261
3.0450,10.8496
Z" /> 
<path style="fill:#4D7FC4; fill-opacity:1.0000; stroke:none;fill-rule:evenodd;"
d="M 14.1050,10.4496
14.1050,8.7896
14.9850,8.0496
15.5050,8.0496
16.1050,8.6496
16.1050,10.8496
16.0850,10.9296
16.0450,10.9896
15.9850,11.0296
15.9050,11.0496
14.7050,11.0496
Z" /> 
</g>
<g style="fill:none; 
stroke:#4D7FC4; stroke-width:1.0000; stroke-opacity:1; 
stroke-linecap:round; stroke-linejoin:round;">
<path d="M12.2750 2.2496
L11.8750 2.2496
" />
<path d="M7.2750 2.2496
L6.8750 2.2496
" />
</g>
<g style="fill:none; 
stroke:#C83434; stroke-width:1.0000; stroke-opacity:1; 
stroke-linecap:round; stroke-linejoin:round;">
<path d="M12.2750 17.0750
L11.8750 17.0750
" />
<path d="M7.2750 17.0750
L6.8750 17.0750
" />
<path d="M9.7750 17.0750
L9.3750 17.0750
" />
<path style="fill:#C83434; fill-opacity:1.0000; stroke:none;fill-rule:evenodd;"
d="M 3.0450,8.2496
3.0602,8.1731
3.1036,8.1082
3.1685,8.0648
3.2450,8.0496
4.4450,8.0496
5.0450,8.6496
5.0450,10.4496
4.4450,11.0496
3.2450,11.0496
3.1685,11.0344
3.1036,10.9910
3.0602,10.9261
3.0450,10.8496
Z" /> 
<path style="fill:#C83434; fill-opacity:1.0000; stroke:none;fill-rule:evenodd;"
d="M 14.1050,10.4496
14.1050,8.7896
14.9850,8.0496
15.5050,8.0496
16.1050,8.6496
16.1050,10.8496
16.0850,10.9296
16.0450,10.9896
15.9850,11.0296
15.9050,11.0496
14.7050,11.0496
Z" /> 
</g>
<g style="fill:none; 
stroke:#C83434; stroke-width:1.0000; stroke-opacity:1; 
stroke-linecap:round; stroke-linejoin:round;">
<path d="M12.2750 2.2496
L11.8750 2.2496
" />
<path style="fill:#C83434; fill-opacity:1.0000; stroke:none;fill-rule:evenodd;"
d="M 15.8600,6.0350
15.8790,5.9393
15.9332,5.8582
16.0143,5.8040
16.1100,5.7850
18.1600,5.7850
18.2557,5.8040
18.3368,5.8582
18.3910,5.9393
18.4100,6.0350
18.4100,8.0350
18.3910,8.1307
18.3368,8.2118
18.2557,8.2660
18.1600,8.2850
16.1100,8.2850
16.0143,8.2660
15.9332,8.2118
15.8790,8.1307
15.8600,8.0350
Z" /> 
<path style="fill:#C83434; fill-opacity:1.0000; stroke:none;fill-rule:evenodd;"
d="M 2.0100,3.4950
2.0290,3.3993
2.0832,3.3182
2.1643,3.2640
2.2600,3.2450
4.3100,3.2450
4.4057,3.2640
4.4868,3.3182
4.5410,3.3993
4.5600,3.4950
4.5600,5.4950
4.5410,5.5907
4.4868,5.6718
4.4057,5.7260
4.3100,5.7450
2.2600,5.7450
2.1643,5.7260
2.0832,5.6718
2.0290,5.5907
2.0100,5.4950
Z" /> 
</g>
<g style="fill:none; 
stroke:#C83434; stroke-width:1.0000; stroke-opacity:1; 
stroke-linecap:round; stroke-linejoin:round;">
<path d="M7.2750 2.2496
L6.8750 2.2496
" />
<path style="fill:none; 
stroke:#585D84; stroke-width:0.1000; stroke-opacity:1; 
stroke-linecap:round; stroke-linejoin:round;fill:none"
d="M 2.5750,2.5750
16.5750,2.5750
16.5750,16.5750
2.5750,16.5750
Z" /> 
</g>
<g style="fill:none; 
stroke:#585D84; stroke-width:0.0212; stroke-opacity:1; 
stroke-linecap:round; stroke-linejoin:round;">
<circle cx="7.0350" cy="4.4950" r="1.5000" /> 
</g>
<g style="fill:none; 
stroke:#585D84; stroke-width:0.0212; stroke-opacity:1; 
stroke-linecap:round; stroke-linejoin:round;">
<circle cx="9.5750" cy="9.5496" r="2.0000" /> 
</g>
<g style="fill:none; 
stroke:#585D84; stroke-width:0.0212; stroke-opacity:1; 
stroke-linecap:round; stroke-linejoin:round;">
<circle cx="13.3850" cy="7.0350" r="1.5000" /> 
</g>
<g style="fill:none; 
stroke:#585D84; stroke-width:0.0389; stroke-opacity:1; 
stroke-linecap:round; stroke-linejoin:round;">
<text x="12.0750" y="17.3083"
textLength="0.4233" font-size="0.6222" lengthAdjust="spacingAndGlyphs"
text-anchor="middle" opacity="0" stroke-opacity="0">A</text>
<g class="stroked-text"><desc>A</desc>
<path d="M11.9639 17.1555
L12.1861 17.1555
" />
<path d="M11.9194 17.2889
L12.0750 16.8222
" />
<path d="M12.0750 16.8222
L12.2306 17.2889
" />
</g></g>
<g style="fill:none; 
stroke:#585D84; stroke-width:0.0212; stroke-opacity:1; 
stroke-linecap:round; stroke-linejoin:round;">
<path d="M12.2750 16.5750
L11.8750 16.5750
" />
<path d="M11.8750 16.5750 A0.5000 0.5000 0.0 0 0 11.8750 17.5750" />
<path d="M11.8750 17.5750
L12.2750 17.5750
" />
<path d="M12.2750 17.5750 A0.5000 0.5000 0.0 0 0 12.2750 16.5750" />
</g>
<g style="fill:none; 
stroke:#585D84; stroke-width:0.0389; stroke-opacity:1; 
stroke-linecap:round; stroke-linejoin:round;">
<text x="7.0750" y="17.3083"
textLength="0.4900" font-size="0.6222" lengthAdjust="spacingAndGlyphs"
text-anchor="middle" opacity="0" stroke-opacity="0">B</text>
<g class="stroked-text"><desc>B</desc>
<path d="M7.1083 17.0444
L7.1750 17.0666
" />
<path d="M7.1750 17.0666
L7.1972 17.0889
" />
<path d="M7.1972 17.0889
L7.2194 17.1333
" />
<path d="M7.2194 17.1333
L7.2194 17.2000
" />
<path d="M7.2194 17.2000
L7.1972 17.2444
" />
<path d="M7.1972 17.2444
L7.1750 17.2666
" />
<path d="M7.1750 17.2666
L7.1306 17.2889
" />
<path d="M7.1306 17.2889
L6.9528 17.2889
" />
<path d="M6.9528 17.2889
L6.9528 16.8222
" />
<path d="M6.9528 16.8222
L7.1083 16.8222
" />
<path d="M7.1083 16.8222
L7.1528 16.8444
" />
<path d="M7.1528 16.8444
L7.1750 16.8666
" />
<path d="M7.1750 16.8666
L7.1972 16.9111
" />
<path d="M7.1972 16.9111
L7.1972 16.9555
" />
<path d="M7.1972 16.9555
L7.1750 17.0000
" />
<path d="M7.1750 17.0000
L7.1528 17.0222
" />
<path d="M7.1528 17.0222
L7.1083 17.0444
" />
<path d="M7.1083 17.0444
L6.9528 17.0444
" />
</g></g>
<g style="fill:none; 
stroke:#585D84; stroke-width:0.0212; stroke-opacity:1; 
stroke-linecap:round; stroke-linejoin:round;">
<path d="M7.2750 16.5750
L6.8750 16.5750
" />
<path d="M6.8750 16.5750 A0.5000 0.5000 0.0 0 0 6.8750 17.5750" />
<path d="M6.8750 17.5750
L7.2750 17.5750
" />
<path d="M7.2750 17.5750 A0.5000 0.5000 0.0 0 0 7.2750 16.5750" />
</g>
<g style="fill:none; 
stroke:#585D84; stroke-width:0.0389; stroke-opacity:1; 
stroke-linecap:round; stroke-linejoin:round;">
<text x="9.5750" y="17.3083"
textLength="0.4900" font-size="0.6222" lengthAdjust="spacingAndGlyphs"
text-anchor="middle" opacity="0" stroke-opacity="0">C</text>
<g class="stroked-text"><desc>C</desc>
<path d="M9.7194 17.2444
L9.6972 17.2666
" />
<path d="M9.6972 17.2666
L9.6306 17.2889
" />
<path d="M9.6306 17.2889
L9.5861 17.2889
" />
<path d="M9.5861 17.2889
L9.5194 17.2666
" />
<path d="M9.5194 17.2666
L9.4750 17.2222
" />
<path d="M9.4750 17.2222
L9.4528 17.1778
" />
<path d="M9.4528 17.1778
L9.4306 17.0889
" />
<path d="M9.4306 17.0889
L9.4306 17.0222
" />
<path d="M9.4306 17.0222
L9.4528 16.9333
" />
<path d="M9.4528 16.9333
L9.4750 16.8889
" />
<path d="M9.4750 16.8889
L9.5194 16.8444
" />
<path d="M9.5194 16.8444
L9.5861 16.8222
" />
<path d="M9.5861 16.8222
L9.6306 16.8222
" />
<path d="M9.6306 16.8222
L9.6972 16.8444
" />
<path d="M9.6972 16.8444
L9.7194 16.8666
" />
</g></g>
<g style="fill:none; 
stroke:#585D84; stroke-width:0.0212; stroke-opacity:1; 
stroke-linecap:round; stroke-linejoin:round;">
<path d="M9.7750 16.5750
L9.3750 16.5750
" />
<path d="M9.3750 16.5750 A0.5000 0.5000 0.0 0 0 9.3750 17.5750" />
<path d="M9.3750 17.5750
L9.7750 17.5750
" />
<path d="M9.7750 17.5750 A0.5000 0.5000 0.0 0 0 9.7750 16.5750" />
</g>
<g style="fill:none; 
stroke:#585D84; stroke-width:0.0833; stroke-opacity:1; 
stroke-linecap:round; stroke-linejoin:round;">
<g transform="rotate(-90.000000 4.0450 9.5496)">
<text x="4.0450" y="10.0496"
textLength="2.1929" font-size="1.3333" lengthAdjust="spacingAndGlyphs"
text-anchor="middle" opacity="0" stroke-opacity="0">MP</text>
</g>
<g class="stroked-text"><desc>MP</desc>
<path d="M4.5033 10.3829
L3.5033 10.3829
" />
<path d="M3.5033 10.3829
L4.2176 10.0496
" />
<path d="M4.2176 10.0496
L3.5033 9.7163
" />
<path d="M3.5033 9.7163
L4.5033 9.7163
" />
<path d="M4.5033 9.2401
L3.5033 9.2401
" />
<path d="M3.5033 9.2401
L3.5033 8.8591
" />
<path d="M3.5033 8.8591
L3.5509 8.7639
" />
<path d="M3.5509 8.7639
L3.5985 8.7163
" />
<path d="M3.5985 8.7163
L3.6938 8.6686
" />
<path d="M3.6938 8.6686
L3.8366 8.6686
" />
<path d="M3.8366 8.6686
L3.9319 8.7163
" />
<path d="M3.9319 8.7163
L3.9795 8.7639
" />
<path d="M3.9795 8.7639
L4.0271 8.8591
" />
<path d="M4.0271 8.8591
L4.0271 9.2401
" />
</g><path style="fill:none; 
stroke:#585D84; stroke-width:0.0212; stroke-opacity:1; 
stroke-linecap:round; stroke-linejoin:round;fill:none"
d="M 3.0450,8.2496
3.0602,8.1731
3.1036,8.1082
3.1685,8.0648
3.2450,8.0496
4.4450,8.0496
5.0450,8.6496
5.0450,10.4496
4.4450,11.0496
3.2450,11.0496
3.1685,11.0344
3.1036,10.9910
3.0602,10.9261
3.0450,10.8496
Z" /> 
</g>
<g style="fill:none; 
stroke:#585D84; stroke-width:0.0833; stroke-opacity:1; 
stroke-linecap:round; stroke-linejoin:round;">
<g transform="rotate(-90.000000 15.1050 9.5496)">
<text x="15.1050" y="10.0496"
textLength="2.1929" font-size="1.3333" lengthAdjust="spacingAndGlyphs"
text-anchor="middle" opacity="0" stroke-opacity="0">MP</text>
</g>
<g class="stroked-text"><desc>MP</desc>
<path d="M15.5633 10.3829
L14.5633 10.3829
" />
<path d="M14.5633 10.3829
L15.2776 10.0496
" />
<path d="M15.2776 10.0496
L14.5633 9.7163
" />
<path d="M14.5633 9.7163
L15.5633 9.7163
" />
<path d="M15.5633 9.2401
L14.5633 9.2401
" />
<path d="M14.5633 9.2401
L14.5633 8.8591
" />
<path d="M14.5633 8.8591
L14.6109 8.7639
" />
<path d="M14.6109 8.7639
L14.6585 8.7163
" />
<path d="M14.6585 8.7163
L14.7538 8.6686
" />
<path d="M14.7538 8.6686
L14.8966 8.6686
" />
<path d="M14.8966 8.6686
L14.9919 8.7163
" />
<path d="M14.9919 8.7163
L15.0395 8.7639
" />
<path d="M15.0395 8.7639
L15.0871 8.8591
" />
<path d="M15.0871 8.8591
L15.0871 9.2401
" />
</g><path style="fill:none; 
stroke:#585D84; stroke-width:0.0212; stroke-opacity:1; 
stroke-linecap:round; stroke-linejoin:round;fill:none"
d="M 14.1050,10.4496
14.1050,8.7896
14.9850,8.0496
15.5050,8.0496
16.1050,8.6496
16.1050,10.8496
16.0850,10.9296
16.0450,10.9896
15.9850,11.0296
15.9050,11.0496
14.7050,11.0496
Z" /> 
</g>
<g style="fill:none; 
stroke:#585D84; stroke-width:0.0389; stroke-opacity:1; 
stroke-linecap:round; stroke-linejoin:round;">
<text x="12.0750" y="2.4829"
textLength="0.9122" font-size="0.6222" lengthAdjust="spacingAndGlyphs"
text-anchor="middle" opacity="0" stroke-opacity="0">S1</text>
<g class="stroked-text"><desc>S1</desc>
<path d="M11.7194 2.4412
L11.7861 2.4635
" />
<path d="M11.7861 2.4635
L11.8972 2.4635
" />
<path d="M11.8972 2.4635
L11.9417 2.4412
" />
<path d="M11.9417 2.4412
L11.9639 2.4190
" />
<path d="M11.9639 2.4190
L11.9861 2.3746
" />
<path d="M11.9861 2.3746
L11.9861 2.3301
" />
<path d="M11.9861 2.3301
L11.9639 2.2857
" />
<path d="M11.9639 2.2857
L11.9417 2.2635
" />
<path d="M11.9417 2.2635
L11.8972 2.2412
" />
<path d="M11.8972 2.2412
L11.8083 2.2190
" />
<path d="M11.8083 2.2190
L11.7639 2.1968
" />
<path d="M11.7639 2.1968
L11.7417 2.1746
" />
<path d="M11.7417 2.1746
L11.7194 2.1301
" />
<path d="M11.7194 2.1301
L11.7194 2.0857
" />
<path d="M11.7194 2.0857
L11.7417 2.0412
" />
<path d="M11.7417 2.0412
L11.7639 2.0190
" />
<path d="M11.7639 2.0190
L11.8083 1.9968
" />
<path d="M11.8083 1.9968
L11.9194 1.9968
" />
<path d="M11.9194 1.9968
L11.9861 2.0190
" />
<path d="M12.4306 2.4635
L12.1639 2.4635
" />
<path d="M12.2972 2.4635
L12.2972 1.9968
" />
<path d="M12.2972 1.9968
L12.2528 2.0635
" />
<path d="M12.2528 2.0635
L12.2083 2.1079
" />
<path d="M12.2083 2.1079
L12.1639 2.1301
" />
</g></g>
<g style="fill:none; 
stroke:#585D84; stroke-width:0.0212; stroke-opacity:1; 
stroke-linecap:round; stroke-linejoin:round;">
<path d="M12.2750 1.7496
L11.8750 1.7496
" />
<path d="M11.8750 1.7496 A0.5000 0.5000 0.0 0 0 11.8750 2.7496" />
<path d="M11.8750 2.7496
L12.2750 2.7496
" />
<path d="M12.2750 2.7496 A0.5000 0.5000 0.0 0 0 12.2750 1.7496" />
</g>
<g style="fill:none; 
stroke:#585D84; stroke-width:0.0389; stroke-opacity:1; 
stroke-linecap:round; stroke-linejoin:round;">
<text x="7.0750" y="2.4829"
textLength="0.9122" font-size="0.6222" lengthAdjust="spacingAndGlyphs"
text-anchor="middle" opacity="0" stroke-opacity="0">S2</text>
<g class="stroked-text"><desc>S2</desc>
<path d="M6.7194 2.4412
L6.7861 2.4635
" />
<path d="M6.7861 2.4635
L6.8972 2.4635
" />
<path d="M6.8972 2.4635
L6.9417 2.4412
" />
<path d="M6.9417 2.4412
L6.9639 2.4190
" />
<path d="M6.9639 2.4190
L6.9861 2.3746
" />
<path d="M6.9861 2.3746
L6.9861 2.3301
" />
<path d="M6.9861 2.3301
L6.9639 2.2857
" />
<path d="M6.9639 2.2857
L6.9417 2.2635
" />
<path d="M6.9417 2.2635
L6.8972 2.2412
" />
<path d="M6.8972 2.2412
L6.8083 2.2190
" />
<path d="M6.8083 2.2190
L6.7639 2.1968
" />
<path d="M6.7639 2.1968
L6.7417 2.1746
" />
<path d="M6.7417 2.1746
L6.7194 2.1301
" />
<path d="M6.7194 2.1301
L6.7194 2.0857
" />
<path d="M6.7194 2.0857
L6.7417 2.0412
" />
<path d="M6.7417 2.0412
L6.7639 2.0190
" />
<path d="M6.7639 2.0190
L6.8083 1.9968
" />
<path d="M6.8083 1.9968
L6.9194 1.9968
" />
<path d="M6.9194 1.9968
L6.9861 2.0190
" />
<path d="M7.1639 2.0412
L7.1861 2.0190
" />
<path d="M7.1861 2.0190
L7.2306 1.9968
" />
<path d="M7.2306 1.9968
L7.3417 1.9968
" />
<path d="M7.3417 1.9968
L7.3861 2.0190
" />
<path d="M7.3861 2.0190
L7.4083 2.0412
" />
<path d="M7.4083 2.0412
L7.4306 2.0857
" />
<path d="M7.4306 2.0857
L7.4306 2.1301
" />
<path d="M7.4306 2.1301
L7.4083 2.1968
" />
<path d="M7.4083 2.1968
L7.1417 2.4635
" />
<path d="M7.1417 2.4635
L7.4306 2.4635
" />
</g></g>
<g style="fill:none; 
stroke:#585D84; stroke-width:0.0212; stroke-opacity:1; 
stroke-linecap:round; stroke-linejoin:round;">
<path d="M7.2750 1.7496
L6.8750 1.7496
" />
<path d="M6.8750 1.7496 A0.5000 0.5000 0.0 0 0 6.8750 2.7496" />
<path d="M6.8750 2.7496
L7.2750 2.7496
" />
<path d="M7.2750 2.7496 A0.5000 0.5000 0.0 0 0 7.2750 1.7496" />
</g>
<g style="fill:none; 
stroke:#AFAFAF; stroke-width:0.1500; stroke-opacity:1; 
stroke-linecap:round; stroke-linejoin:round;">
<text x="9.5750" y="19.4750"
textLength="16.8690" font-size="1.3333" lengthAdjust="spacingAndGlyphs"
text-anchor="middle" opacity="0" stroke-opacity="0">SW_MX_EC11_HotSwap</text>
<g class="stroked-text"><desc>SW_MX_EC11_HotSwap</desc>
<path d="M1.4560 19.3822
L1.5988 19.4298
" />
<path d="M1.5988 19.4298
L1.8369 19.4298
" />
<path d="M1.8369 19.4298
L1.9321 19.3822
" />
<path d="M1.9321 19.3822
L1.9798 19.3346
" />
<path d="M1.9798 19.3346
L2.0274 19.2393
" />
<path d="M2.0274 19.2393
L2.0274 19.1441
" />
<path d="M2.0274 19.1441
L1.9798 19.0489
" />
<path d="M1.9798 19.0489
L1.9321 19.0012
" />
<path d="M1.9321 19.0012
L1.8369 18.9536
" />
<path d="M1.8369 18.9536
L1.6464 18.9060
" />
<path d="M1.6464 18.9060
L1.5512 18.8584
" />
<path d="M1.5512 18.8584
L1.5036 18.8108
" />
<path d="M1.5036 18.8108
L1.4560 18.7155
" />
<path d="M1.4560 18.7155
L1.4560 18.6203
" />
<path d="M1.4560 18.6203
L1.5036 18.5251
" />
<path d="M1.5036 18.5251
L1.5512 18.4774
" />
<path d="M1.5512 18.4774
L1.6464 18.4298
" />
<path d="M1.6464 18.4298
L1.8845 18.4298
" />
<path d="M1.8845 18.4298
L2.0274 18.4774
" />
<path d="M2.3607 18.4298
L2.5988 19.4298
" />
<path d="M2.5988 19.4298
L2.7893 18.7155
" />
<path d="M2.7893 18.7155
L2.9798 19.4298
" />
<path d="M2.9798 19.4298
L3.2179 18.4298
" />
<path d="M3.3607 19.5251
L4.1226 19.5251
" />
<path d="M4.3607 19.4298
L4.3607 18.4298
" />
<path d="M4.3607 18.4298
L4.6940 19.1441
" />
<path d="M4.6940 19.1441
L5.0274 18.4298
" />
<path d="M5.0274 18.4298
L5.0274 19.4298
" />
<path d="M5.4083 18.4298
L6.0750 19.4298
" />
<path d="M6.0750 18.4298
L5.4083 19.4298
" />
<path d="M6.2179 19.5251
L6.9798 19.5251
" />
<path d="M7.2179 18.9060
L7.5512 18.9060
" />
<path d="M7.6940 19.4298
L7.2179 19.4298
" />
<path d="M7.2179 19.4298
L7.2179 18.4298
" />
<path d="M7.2179 18.4298
L7.6940 18.4298
" />
<path d="M8.6940 19.3346
L8.6464 19.3822
" />
<path d="M8.6464 19.3822
L8.5036 19.4298
" />
<path d="M8.5036 19.4298
L8.4083 19.4298
" />
<path d="M8.4083 19.4298
L8.2655 19.3822
" />
<path d="M8.2655 19.3822
L8.1702 19.2870
" />
<path d="M8.1702 19.2870
L8.1226 19.1917
" />
<path d="M8.1226 19.1917
L8.0750 19.0012
" />
<path d="M8.0750 19.0012
L8.0750 18.8584
" />
<path d="M8.0750 18.8584
L8.1226 18.6679
" />
<path d="M8.1226 18.6679
L8.1702 18.5727
" />
<path d="M8.1702 18.5727
L8.2655 18.4774
" />
<path d="M8.2655 18.4774
L8.4083 18.4298
" />
<path d="M8.4083 18.4298
L8.5036 18.4298
" />
<path d="M8.5036 18.4298
L8.6464 18.4774
" />
<path d="M8.6464 18.4774
L8.6940 18.5251
" />
<path d="M9.6464 19.4298
L9.0750 19.4298
" />
<path d="M9.3607 19.4298
L9.3607 18.4298
" />
<path d="M9.3607 18.4298
L9.2655 18.5727
" />
<path d="M9.2655 18.5727
L9.1702 18.6679
" />
<path d="M9.1702 18.6679
L9.0750 18.7155
" />
<path d="M10.5988 19.4298
L10.0274 19.4298
" />
<path d="M10.3131 19.4298
L10.3131 18.4298
" />
<path d="M10.3131 18.4298
L10.2179 18.5727
" />
<path d="M10.2179 18.5727
L10.1226 18.6679
" />
<path d="M10.1226 18.6679
L10.0274 18.7155
" />
<path d="M10.7893 19.5251
L11.5512 19.5251
" />
<path d="M11.7893 19.4298
L11.7893 18.4298
" />
<path d="M11.7893 18.9060
L12.3607 18.9060
" />
<path d="M12.3607 19.4298
L12.3607 18.4298
" />
<path d="M12.9798 19.4298
L12.8845 19.3822
" />
<path d="M12.8845 19.3822
L12.8369 19.3346
" />
<path d="M12.8369 19.3346
L12.7893 19.2393
" />
<path d="M12.7893 19.2393
L12.7893 18.9536
" />
<path d="M12.7893 18.9536
L12.8369 18.8584
" />
<path d="M12.8369 18.8584
L12.8845 18.8108
" />
<path d="M12.8845 18.8108
L12.9798 18.7632
" />
<path d="M12.9798 18.7632
L13.1226 18.7632
" />
<path d="M13.1226 18.7632
L13.2179 18.8108
" />
<path d="M13.2179 18.8108
L13.2655 18.8584
" />
<path d="M13.2655 18.8584
L13.3131 18.9536
" />
<path d="M13.3131 18.9536
L13.3131 19.2393
" />
<path d="M13.3131 19.2393
L13.2655 19.3346
" />
<path d="M13.2655 19.3346
L13.2179 19.3822
" />
<path d="M13.2179 19.3822
L13.1226 19.4298
" />
<path d="M13.1226 19.4298
L12.9798 19.4298
" />
<path d="M13.5988 18.7632
L13.9798 18.7632
" />
<path d="M13.7417 18.4298
L13.7417 19.2870
" />
<path d="M13.7417 19.2870
L13.7893 19.3822
" />
<path d="M13.7893 19.3822
L13.8845 19.4298
" />
<path d="M13.8845 19.4298
L13.9798 19.4298
" />
<path d="M14.2655 19.3822
L14.4083 19.4298
" />
<path d="M14.4083 19.4298
L14.6464 19.4298
" />
<path d="M14.6464 19.4298
L14.7417 19.3822
" />
<path d="M14.7417 19.3822
L14.7893 19.3346
" />
<path d="M14.7893 19.3346
L14.8369 19.2393
" />
<path d="M14.8369 19.2393
L14.8369 19.1441
" />
<path d="M14.8369 19.1441
L14.7893 19.0489
" />
<path d="M14.7893 19.0489
L14.7417 19.0012
" />
<path d="M14.7417 19.0012
L14.6464 18.9536
" />
<path d="M14.6464 18.9536
L14.4560 18.9060
" />
<path d="M14.4560 18.9060
L14.3607 18.8584
" />
<path d="M14.3607 18.8584
L14.3131 18.8108
" />
<path d="M14.3131 18.8108
L14.2655 18.7155
" />
<path d="M14.2655 18.7155
L14.2655 18.6203
" />
<path d="M14.2655 18.6203
L14.3131 18.5251
" />
<path d="M14.3131 18.5251
L14.3607 18.4774
" />
<path d="M14.3607 18.4774
L14.4560 18.4298
" />
<path d="M14.4560 18.4298
L14.6940 18.4298
" />
<path d="M14.6940 18.4298
L14.8369 18.4774
" />
<path d="M15.1702 18.7632
L15.3607 19.4298
" />
<path d="M15.3607 19.4298
L15.5512 18.9536
" />
<path d="M15.5512 18.9536
L15.7417 19.4298
" />
<path d="M15.7417 19.4298
L15.9321 18.7632
" />
<path d="M16.7417 19.4298
L16.7417 18.9060
" />
<path d="M16.7417 18.9060
L16.6940 18.8108
" />
<path d="M16.6940 18.8108
L16.5988 18.7632
" />
<path d="M16.5988 18.7632
L16.4083 18.7632
" />
<path d="M16.4083 18.7632
L16.3131 18.8108
" />
<path d="M16.7417 19.3822
L16.6464 19.4298
" />
<path d="M16.6464 19.4298
L16.4083 19.4298
" />
<path d="M16.4083 19.4298
L16.3131 19.3822
" />
<path d="M16.3131 19.3822
L16.2655 19.2870
" />
<path d="M16.2655 19.2870
L16.2655 19.1917
" />
<path d="M16.2655 19.1917
L16.3131 19.0965
" />
<path d="M16.3131 19.0965
L16.4083 19.0489
" />
<path d="M16.4083 19.0489
L16.6464 19.0489
" />
<path d="M16.6464 19.0489
L16.7417 19.0012
" />
<path d="M17.2179 18.7632
L17.2179 19.7632
" />
<path d="M17.2179 18.8108
L17.3131 18.7632
" />
<path d="M17.3131 18.7632
L17.5036 18.7632
" />
<path d="M17.5036 18.7632
L17.5988 18.8108
" />
<path d="M17.5988 18.8108
L17.6464 18.8584
" />
<path d="M17.6464 18.8584
L17.6940 18.9536
" />
<path d="M17.6940 18.9536
L17.6940 19.2393
" />
<path d="M17.6940 19.2393
L17.6464 19.3346
" />
<path d="M17.6464 19.3346
L17.5988 19.3822
" />
<path d="M17.5988 19.3822
L17.5036 19.4298
" />
<path d="M17.5036 19.4298
L17.3131 19.4298
" />
<path d="M17.3131 19.4298
L17.2179 19.3822
" />
</g><text x="9.5750" y="21.0750"
textLength="4.5357" font-size="1.3333" lengthAdjust="spacingAndGlyphs"
text-anchor="middle" opacity="0" stroke-opacity="0">REF**</text>
<g class="stroked-text"><desc>REF**</desc>
<path d="M8.2417 21.0298
L7.9083 20.5536
" />
<path d="M7.6702 21.0298
L7.6702 20.0298
" />
<path d="M7.6702 20.0298
L8.0512 20.0298
" />
<path d="M8.0512 20.0298
L8.1464 20.0774
" />
<path d="M8.1464 20.0774
L8.1940 20.1251
" />
<path d="M8.1940 20.1251
L8.2417 20.2203
" />
<path d="M8.2417 20.2203
L8.2417 20.3632
" />
<path d="M8.2417 20.3632
L8.1940 20.4584
" />
<path d="M8.1940 20.4584
L8.1464 20.5060
" />
<path d="M8.1464 20.5060
L8.0512 20.5536
" />
<path d="M8.0512 20.5536
L7.6702 20.5536
" />
<path d="M8.6702 20.5060
L9.0036 20.5060
" />
<path d="M9.1464 21.0298
L8.6702 21.0298
" />
<path d="M8.6702 21.0298
L8.6702 20.0298
" />
<path d="M8.6702 20.0298
L9.1464 20.0298
" />
<path d="M9.9083 20.5060
L9.5750 20.5060
" />
<path d="M9.5750 21.0298
L9.5750 20.0298
" />
<path d="M9.5750 20.0298
L10.0512 20.0298
" />
<path d="M10.5750 20.0298
L10.5750 20.2679
" />
<path d="M10.3369 20.1727
L10.5750 20.2679
" />
<path d="M10.5750 20.2679
L10.8131 20.1727
" />
<path d="M10.4321 20.4584
L10.5750 20.2679
" />
<path d="M10.5750 20.2679
L10.7179 20.4584
" />
<path d="M11.3369 20.0298
L11.3369 20.2679
" />
<path d="M11.0988 20.1727
L11.3369 20.2679
" />
<path d="M11.3369 20.2679
L11.5750 20.1727
" />
<path d="M11.1940 20.4584
L11.3369 20.2679
" />
<path d="M11.3369 20.2679
L11.4798 20.4584
" />
</g></g>
<g style="fill:none; 
stroke:#AFAFAF; stroke-width:0.1000; stroke-opacity:1; 
stroke-linecap:round; stroke-linejoin:round;">
<path d="M1.9550 3.2250
L1.9550 5.7650
" />
<path d="M1.9550 5.7650
L4.4950 5.7650
" />
<path d="M4.4950 2.5900
L4.4950 7.0350
" />
<path d="M4.4950 3.2250
L1.9550 3.2250
" />
<path d="M4.4950 7.0350
L9.5750 7.0350
" />
<path d="M13.3850 2.5900
L4.4950 2.5900
" />
<path d="M15.9250 8.3050
L18.4650 8.3050
" />
<path d="M15.9250 8.9400
L12.1150 8.9400
" />
<path d="M15.9250 8.9400
L15.9250 5.1300
" />
<path d="M18.4650 5.7650
L15.9250 5.7650
" />
<path d="M18.4650 8.3050
L18.4650 5.7650
" />
<path style="fill:none; 
stroke:#AFAFAF; stroke-width:0.1000; stroke-opacity:1; 
stroke-linecap:round; stroke-linejoin:round;fill:none"
d="M 7.8250,13.1550
11.3250,13.1550
11.3250,16.1550
7.8250,16.1550
Z" /> 
<path d="M12.0392 8.9590 A2.5400 2.5400 0.0 0 0 9.5750 7.0350" />
<path d="M15.9250 5.1300 A2.5400 2.5400 0.0 0 0 13.3850 2.5900" />
</g>
<g style="fill:none; 
stroke:#AFAFAF; stroke-width:0.0212; stroke-opacity:1; 
stroke-linecap:round; stroke-linejoin:round;">
<circle cx="7.0350" cy="4.4950" r="1.5000" /> 
</g>
<g style="fill:none; 
stroke:#AFAFAF; stroke-width:0.0212; stroke-opacity:1; 
stroke-linecap:round; stroke-linejoin:round;">
<circle cx="9.5750" cy="9.5496" r="2.0000" /> 
</g>
<g style="fill:none; 
stroke:#AFAFAF; stroke-width:0.0212; stroke-opacity:1; 
stroke-linecap:round; stroke-linejoin:round;">
<circle cx="13.3850" cy="7.0350" r="1.5000" /> 
</g>
<g style="fill:none; 
stroke:#AFAFAF; stroke-width:0.0389; stroke-opacity:1; 
stroke-linecap:round; stroke-linejoin:round;">
<text x="12.0750" y="17.3083"
textLength="0.4233" font-size="0.6222" lengthAdjust="spacingAndGlyphs"
text-anchor="middle" opacity="0" stroke-opacity="0">A</text>
<g class="stroked-text"><desc>A</desc>
<path d="M11.9639 17.1555
L12.1861 17.1555
" />
<path d="M11.9194 17.2889
L12.0750 16.8222
" />
<path d="M12.0750 16.8222
L12.2306 17.2889
" />
</g></g>
<g style="fill:none; 
stroke:#AFAFAF; stroke-width:0.0212; stroke-opacity:1; 
stroke-linecap:round; stroke-linejoin:round;">
<path d="M12.2750 16.5750
L11.8750 16.5750
" />
<path d="M11.8750 16.5750 A0.5000 0.5000 0.0 0 0 11.8750 17.5750" />
<path d="M11.8750 17.5750
L12.2750 17.5750
" />
<path d="M12.2750 17.5750 A0.5000 0.5000 0.0 0 0 12.2750 16.5750" />
</g>
<g style="fill:none; 
stroke:#AFAFAF; stroke-width:0.0389; stroke-opacity:1; 
stroke-linecap:round; stroke-linejoin:round;">
<text x="7.0750" y="17.3083"
textLength="0.4900" font-size="0.6222" lengthAdjust="spacingAndGlyphs"
text-anchor="middle" opacity="0" stroke-opacity="0">B</text>
<g class="stroked-text"><desc>B</desc>
<path d="M7.1083 17.0444
L7.1750 17.0666
" />
<path d="M7.1750 17.0666
L7.1972 17.0889
" />
<path d="M7.1972 17.0889
L7.2194 17.1333
" />
<path d="M7.2194 17.1333
L7.2194 17.2000
" />
<path d="M7.2194 17.2000
L7.1972 17.2444
" />
<path d="M7.1972 17.2444
L7.1750 17.2666
" />
<path d="M7.1750 17.2666
L7.1306 17.2889
" />
<path d="M7.1306 17.2889
L6.9528 17.2889
" />
<path d="M6.9528 17.2889
L6.9528 16.8222
" />
<path d="M6.9528 16.8222
L7.1083 16.8222
" />
<path d="M7.1083 16.8222
L7.1528 16.8444
" />
<path d="M7.1528 16.8444
L7.1750 16.8666
" />
<path d="M7.1750 16.8666
L7.1972 16.9111
" />
<path d="M7.1972 16.9111
L7.1972 16.9555
" />
<path d="M7.1972 16.9555
L7.1750 17.0000
" />
<path d="M7.1750 17.0000
L7.1528 17.0222
" />
<path d="M7.1528 17.0222
L7.1083 17.0444
" />
<path d="M7.1083 17.0444
L6.9528 17.0444
" />
</g></g>
<g style="fill:none; 
stroke:#AFAFAF; stroke-width:0.0212; stroke-opacity:1; 
stroke-linecap:round; stroke-linejoin:round;">
<path d="M7.2750 16.5750
L6.8750 16.5750
" />
<path d="M6.8750 16.5750 A0.5000 0.5000 0.0 0 0 6.8750 17.5750" />
<path d="M6.8750 17.5750
L7.2750 17.5750
" />
<path d="M7.2750 17.5750 A0.5000 0.5000 0.0 0 0 7.2750 16.5750" />
</g>
<g style="fill:none; 
stroke:#AFAFAF; stroke-width:0.0389; stroke-opacity:1; 
stroke-linecap:round; stroke-linejoin:round;">
<text x="9.5750" y="17.3083"
textLength="0.4900" font-size="0.6222" lengthAdjust="spacingAndGlyphs"
text-anchor="middle" opacity="0" stroke-opacity="0">C</text>
<g class="stroked-text"><desc>C</desc>
<path d="M9.7194 17.2444
L9.6972 17.2666
" />
<path d="M9.6972 17.2666
L9.6306 17.2889
" />
<path d="M9.6306 17.2889
L9.5861 17.2889
" />
<path d="M9.5861 17.2889
L9.5194 17.2666
" />
<path d="M9.5194 17.2666
L9.4750 17.2222
" />
<path d="M9.4750 17.2222
L9.4528 17.1778
" />
<path d="M9.4528 17.1778
L9.4306 17.0889
" />
<path d="M9.4306 17.0889
L9.4306 17.0222
" />
<path d="M9.4306 17.0222
L9.4528 16.9333
" />
<path d="M9.4528 16.9333
L9.4750 16.8889
" />
<path d="M9.4750 16.8889
L9.5194 16.8444
" />
<path d="M9.5194 16.8444
L9.5861 16.8222
" />
<path d="M9.5861 16.8222
L9.6306 16.8222
" />
<path d="M9.6306 16.8222
L9.6972 16.8444
" />
<path d="M9.6972 16.8444
L9.7194 16.8666
" />
</g></g>
<g style="fill:none; 
stroke:#AFAFAF; stroke-width:0.0212; stroke-opacity:1; 
stroke-linecap:round; stroke-linejoin:round;">
<path d="M9.7750 16.5750
L9.3750 16.5750
" />
<path d="M9.3750 16.5750 A0.5000 0.5000 0.0 0 0 9.3750 17.5750" />
<path d="M9.3750 17.5750
L9.7750 17.5750
" />
<path d="M9.7750 17.5750 A0.5000 0.5000 0.0 0 0 9.7750 16.5750" />
</g>
<g style="fill:none; 
stroke:#AFAFAF; stroke-width:0.0833; stroke-opacity:1; 
stroke-linecap:round; stroke-linejoin:round;">
<g transform="rotate(-90.000000 4.0450 9.5496)">
<text x="4.0450" y="10.0496"
textLength="2.1929" font-size="1.3333" lengthAdjust="spacingAndGlyphs"
text-anchor="middle" opacity="0" stroke-opacity="0">MP</text>
</g>
<g class="stroked-text"><desc>MP</desc>
<path d="M4.5033 10.3829
L3.5033 10.3829
" />
<path d="M3.5033 10.3829
L4.2176 10.0496
" />
<path d="M4.2176 10.0496
L3.5033 9.7163
" />
<path d="M3.5033 9.7163
L4.5033 9.7163
" />
<path d="M4.5033 9.2401
L3.5033 9.2401
" />
<path d="M3.5033 9.2401
L3.5033 8.8591
" />
<path d="M3.5033 8.8591
L3.5509 8.7639
" />
<path d="M3.5509 8.7639
L3.5985 8.7163
" />
<path d="M3.5985 8.7163
L3.6938 8.6686
" />
<path d="M3.6938 8.6686
L3.8366 8.6686
" />
<path d="M3.8366 8.6686
L3.9319 8.7163
" />
<path d="M3.9319 8.7163
L3.9795 8.7639
" />
<path d="M3.9795 8.7639
L4.0271 8.8591
" />
<path d="M4.0271 8.8591
L4.0271 9.2401
" />
</g><path style="fill:none; 
stroke:#AFAFAF; stroke-width:0.0212; stroke-opacity:1; 
stroke-linecap:round; stroke-linejoin:round;fill:none"
d="M 3.0450,8.2496
3.0602,8.1731
3.1036,8.1082
3.1685,8.0648
3.2450,8.0496
4.4450,8.0496
5.0450,8.6496
5.0450,10.4496
4.4450,11.0496
3.2450,11.0496
3.1685,11.0344
3.1036,10.9910
3.0602,10.9261
3.0450,10.8496
Z" /> 
</g>
<g style="fill:none; 
stroke:#AFAFAF; stroke-width:0.0833; stroke-opacity:1; 
stroke-linecap:round; stroke-linejoin:round;">
<g transform="rotate(-90.000000 15.1050 9.5496)">
<text x="15.1050" y="10.0496"
textLength="2.1929" font-size="1.3333" lengthAdjust="spacingAndGlyphs"
text-anchor="middle" opacity="0" stroke-opacity="0">MP</text>
</g>
<g class="stroked-text"><desc>MP</desc>
<path d="M15.5633 10.3829
L14.5633 10.3829
" />
<path d="M14.5633 10.3829
L15.2776 10.0496
" />
<path d="M15.2776 10.0496
L14.5633 9.7163
" />
<path d="M14.5633 9.7163
L15.5633 9.7163
" />
<path d="M15.5633 9.2401
L14.5633 9.2401
" />
<path d="M14.5633 9.2401
L14.5633 8.8591
" />
<path d="M14.5633 8.8591
L14.6109 8.7639
" />
<path d="M14.6109 8.7639
L14.6585 8.7163
" />
<path d="M14.6585 8.7163
L14.7538 8.6686
" />
<path d="M14.7538 8.6686
L14.8966 8.6686
" />
<path d="M14.8966 8.6686
L14.9919 8.7163
" />
<path d="M14.9919 8.7163
L15.0395 8.7639
" />
<path d="M15.0395 8.7639
L15.0871 8.8591
" />
<path d="M15.0871 8.8591
L15.0871 9.2401
" />
</g><path style="fill:none; 
stroke:#AFAFAF; stroke-width:0.0212; stroke-opacity:1; 
stroke-linecap:round; stroke-linejoin:round;fill:none"
d="M 14.1050,10.4496
14.1050,8.7896
14.9850,8.0496
15.5050,8.0496
16.1050,8.6496
16.1050,10.8496
16.0850,10.9296
16.0450,10.9896
15.9850,11.0296
15.9050,11.0496
14.7050,11.0496
Z" /> 
</g>
<g style="fill:none; 
stroke:#AFAFAF; stroke-width:0.0389; stroke-opacity:1; 
stroke-linecap:round; stroke-linejoin:round;">
<text x="12.0750" y="2.4829"
textLength="0.9122" font-size="0.6222" lengthAdjust="spacingAndGlyphs"
text-anchor="middle" opacity="0" stroke-opacity="0">S1</text>
<g class="stroked-text"><desc>S1</desc>
<path d="M11.7194 2.4412
L11.7861 2.4635
" />
<path d="M11.7861 2.4635
L11.8972 2.4635
" />
<path d="M11.8972 2.4635
L11.9417 2.4412
" />
<path d="M11.9417 2.4412
L11.9639 2.4190
" />
<path d="M11.9639 2.4190
L11.9861 2.3746
" />
<path d="M11.9861 2.3746
L11.9861 2.3301
" />
<path d="M11.9861 2.3301
L11.9639 2.2857
" />
<path d="M11.9639 2.2857
L11.9417 2.2635
" />
<path d="M11.9417 2.2635
L11.8972 2.2412
" />
<path d="M11.8972 2.2412
L11.8083 2.2190
" />
<path d="M11.8083 2.2190
L11.7639 2.1968
" />
<path d="M11.7639 2.1968
L11.7417 2.1746
" />
<path d="M11.7417 2.1746
L11.7194 2.1301
" />
<path d="M11.7194 2.1301
L11.7194 2.0857
" />
<path d="M11.7194 2.0857
L11.7417 2.0412
" />
<path d="M11.7417 2.0412
L11.7639 2.0190
" />
<path d="M11.7639 2.0190
L11.8083 1.9968
" />
<path d="M11.8083 1.9968
L11.9194 1.9968
" />
<path d="M11.9194 1.9968
L11.9861 2.0190
" />
<path d="M12.4306 2.4635
L12.1639 2.4635
" />
<path d="M12.2972 2.4635
L12.2972 1.9968
" />
<path d="M12.2972 1.9968
L12.2528 2.0635
" />
<path d="M12.2528 2.0635
L12.2083 2.1079
" />
<path d="M12.2083 2.1079
L12.1639 2.1301
" />
</g></g>
<g style="fill:none; 
stroke:#AFAFAF; stroke-width:0.0212; stroke-opacity:1; 
stroke-linecap:round; stroke-linejoin:round;">
<path d="M12.2750 1.7496
L11.8750 1.7496
" />
<path d="M11.8750 1.7496 A0.5000 0.5000 0.0 0 0 11.8750 2.7496" />
<path d="M11.8750 2.7496
L12.2750 2.7496
" />
<path d="M12.2750 2.7496 A0.5000 0.5000 0.0 0 0 12.2750 1.7496" />
</g>
<g style="fill:none; 
stroke:#AFAFAF; stroke-width:0.0708; stroke-opacity:1; 
stroke-linecap:round; stroke-linejoin:round;">
<text x="17.1350" y="7.4600"
textLength="1.6615" font-size="1.1333" lengthAdjust="spacingAndGlyphs"
text-anchor="middle" opacity="0" stroke-opacity="0">S1</text>
<g class="stroked-text"><desc>S1</desc>
<path d="M16.4874 7.3841
L16.6088 7.4245
" />
<path d="M16.6088 7.4245
L16.8112 7.4245
" />
<path d="M16.8112 7.4245
L16.8921 7.3841
" />
<path d="M16.8921 7.3841
L16.9326 7.3436
" />
<path d="M16.9326 7.3436
L16.9731 7.2626
" />
<path d="M16.9731 7.2626
L16.9731 7.1817
" />
<path d="M16.9731 7.1817
L16.9326 7.1007
" />
<path d="M16.9326 7.1007
L16.8921 7.0603
" />
<path d="M16.8921 7.0603
L16.8112 7.0198
" />
<path d="M16.8112 7.0198
L16.6493 6.9793
" />
<path d="M16.6493 6.9793
L16.5683 6.9388
" />
<path d="M16.5683 6.9388
L16.5279 6.8984
" />
<path d="M16.5279 6.8984
L16.4874 6.8174
" />
<path d="M16.4874 6.8174
L16.4874 6.7364
" />
<path d="M16.4874 6.7364
L16.5279 6.6555
" />
<path d="M16.5279 6.6555
L16.5683 6.6150
" />
<path d="M16.5683 6.6150
L16.6493 6.5745
" />
<path d="M16.6493 6.5745
L16.8517 6.5745
" />
<path d="M16.8517 6.5745
L16.9731 6.6150
" />
<path d="M17.7826 7.4245
L17.2969 7.4245
" />
<path d="M17.5398 7.4245
L17.5398 6.5745
" />
<path d="M17.5398 6.5745
L17.4588 6.6960
" />
<path d="M17.4588 6.6960
L17.3779 6.7769
" />
<path d="M17.3779 6.7769
L17.2969 6.8174
" />
</g><path style="fill:none; 
stroke:#AFAFAF; stroke-width:0.0212; stroke-opacity:1; 
stroke-linecap:round; stroke-linejoin:round;fill:none"
d="M 15.8600,6.0350
15.8790,5.9393
15.9332,5.8582
16.0143,5.8040
16.1100,5.7850
18.1600,5.7850
18.2557,5.8040
18.3368,5.8582
18.3910,5.9393
18.4100,6.0350
18.4100,8.0350
18.3910,8.1307
18.3368,8.2118
18.2557,8.2660
18.1600,8.2850
16.1100,8.2850
16.0143,8.2660
15.9332,8.2118
15.8790,8.1307
15.8600,8.0350
Z" /> 
</g>
<g style="fill:none; 
stroke:#AFAFAF; stroke-width:0.0708; stroke-opacity:1; 
stroke-linecap:round; stroke-linejoin:round;">
<text x="3.2850" y="4.9200"
textLength="1.6615" font-size="1.1333" lengthAdjust="spacingAndGlyphs"
text-anchor="middle" opacity="0" stroke-opacity="0">S2</text>
<g class="stroked-text"><desc>S2</desc>
<path d="M2.6374 4.8441
L2.7588 4.8845
" />
<path d="M2.7588 4.8845
L2.9612 4.8845
" />
<path d="M2.9612 4.8845
L3.0421 4.8441
" />
<path d="M3.0421 4.8441
L3.0826 4.8036
" />
<path d="M3.0826 4.8036
L3.1231 4.7226
" />
<path d="M3.1231 4.7226
L3.1231 4.6417
" />
<path d="M3.1231 4.6417
L3.0826 4.5607
" />
<path d="M3.0826 4.5607
L3.0421 4.5203
" />
<path d="M3.0421 4.5203
L2.9612 4.4798
" />
<path d="M2.9612 4.4798
L2.7993 4.4393
" />
<path d="M2.7993 4.4393
L2.7183 4.3988
" />
<path d="M2.7183 4.3988
L2.6779 4.3584
" />
<path d="M2.6779 4.3584
L2.6374 4.2774
" />
<path d="M2.6374 4.2774
L2.6374 4.1964
" />
<path d="M2.6374 4.1964
L2.6779 4.1155
" />
<path d="M2.6779 4.1155
L2.7183 4.0750
" />
<path d="M2.7183 4.0750
L2.7993 4.0345
" />
<path d="M2.7993 4.0345
L3.0017 4.0345
" />
<path d="M3.0017 4.0345
L3.1231 4.0750
" />
<path d="M3.4469 4.1155
L3.4874 4.0750
" />
<path d="M3.4874 4.0750
L3.5683 4.0345
" />
<path d="M3.5683 4.0345
L3.7707 4.0345
" />
<path d="M3.7707 4.0345
L3.8517 4.0750
" />
<path d="M3.8517 4.0750
L3.8921 4.1155
" />
<path d="M3.8921 4.1155
L3.9326 4.1964
" />
<path d="M3.9326 4.1964
L3.9326 4.2774
" />
<path d="M3.9326 4.2774
L3.8921 4.3988
" />
<path d="M3.8921 4.3988
L3.4064 4.8845
" />
<path d="M3.4064 4.8845
L3.9326 4.8845
" />
</g><path style="fill:none; 
stroke:#AFAFAF; stroke-width:0.0212; stroke-opacity:1; 
stroke-linecap:round; stroke-linejoin:round;fill:none"
d="M 2.0100,3.4950
2.0290,3.3993
2.0832,3.3182
2.1643,3.2640
2.2600,3.2450
4.3100,3.2450
4.4057,3.2640
4.4868,3.3182
4.5410,3.3993
4.5600,3.4950
4.5600,5.4950
4.5410,5.5907
4.4868,5.6718
4.4057,5.7260
4.3100,5.7450
2.2600,5.7450
2.1643,5.7260
2.0832,5.6718
2.0290,5.5907
2.0100,5.4950
Z" /> 
</g>
<g style="fill:none; 
stroke:#AFAFAF; stroke-width:0.0389; stroke-opacity:1; 
stroke-linecap:round; stroke-linejoin:round;">
<text x="7.0750" y="2.4829"
textLength="0.9122" font-size="0.6222" lengthAdjust="spacingAndGlyphs"
text-anchor="middle" opacity="0" stroke-opacity="0">S2</text>
<g class="stroked-text"><desc>S2</desc>
<path d="M6.7194 2.4412
L6.7861 2.4635
" />
<path d="M6.7861 2.4635
L6.8972 2.4635
" />
<path d="M6.8972 2.4635
L6.9417 2.4412
" />
<path d="M6.9417 2.4412
L6.9639 2.4190
" />
<path d="M6.9639 2.4190
L6.9861 2.3746
" />
<path d="M6.9861 2.3746
L6.9861 2.3301
" />
<path d="M6.9861 2.3301
L6.9639 2.2857
" />
<path d="M6.9639 2.2857
L6.9417 2.2635
" />
<path d="M6.9417 2.2635
L6.8972 2.2412
" />
<path d="M6.8972 2.2412
L6.8083 2.2190
" />
<path d="M6.8083 2.2190
L6.7639 2.1968
" />
<path d="M6.7639 2.1968
L6.7417 2.1746
" />
<path d="M6.7417 2.1746
L6.7194 2.1301
" />
<path d="M6.7194 2.1301
L6.7194 2.0857
" />
<path d="M6.7194 2.0857
L6.7417 2.0412
" />
<path d="M6.7417 2.0412
L6.7639 2.0190
" />
<path d="M6.7639 2.0190
L6.8083 1.9968
" />
<path d="M6.8083 1.9968
L6.9194 1.9968
" />
<path d="M6.9194 1.9968
L6.9861 2.0190
" />
<path d="M7.1639 2.0412
L7.1861 2.0190
" />
<path d="M7.1861 2.0190
L7.2306 1.9968
" />
<path d="M7.2306 1.9968
L7.3417 1.9968
" />
<path d="M7.3417 1.9968
L7.3861 2.0190
" />
<path d="M7.3861 2.0190
L7.4083 2.0412
" />
<path d="M7.4083 2.0412
L7.4306 2.0857
" />
<path d="M7.4306 2.0857
L7.4306 2.1301
" />
<path d="M7.4306 2.1301
L7.4083 2.1968
" />
<path d="M7.4083 2.1968
L7.1417 2.4635
" />
<path d="M7.1417 2.4635
L7.4306 2.4635
" />
</g></g>
<g style="fill:none; 
stroke:#AFAFAF; stroke-width:0.0212; stroke-opacity:1; 
stroke-linecap:round; stroke-linejoin:round;">
<path d="M7.2750 1.7496
L6.8750 1.7496
" />
<path d="M6.8750 1.7496 A0.5000 0.5000 0.0 0 0 6.8750 2.7496" />
<path d="M6.8750 2.7496
L7.2750 2.7496
" />
<path d="M7.2750 2.7496 A0.5000 0.5000 0.0 0 0 7.2750 1.7496" />
<path style="fill:none; 
stroke:#C2C2C2; stroke-width:0.1000; stroke-opacity:1; 
stroke-linecap:round; stroke-linejoin:round;fill:none"
d="M 0.0500,0.0500
19.1000,0.0500
19.1000,19.1000
0.0500,19.1000
Z" /> 
</g> 
</svg>
