<?xml version="1.0" standalone="no"?>
 <!DOCTYPE svg PUBLIC "-//W3C//DTD SVG 1.1//EN" 
 "http://www.w3.org/Graphics/SVG/1.1/DTD/svg11.dtd"> 
<svg
  xmlns:svg="http://www.w3.org/2000/svg"
  xmlns="http://www.w3.org/2000/svg"
  xmlns:xlink="http://www.w3.org/1999/xlink"
  version="1.1"
  width="38.1762mm" height="20.2438mm" viewBox="0.0000 0.0000 38.1762 20.2438">
<title>SVG Image created as SW_MX_2U_HotSwap_sqSilk.svg date 2025/04/10 11:36:09 </title>
  <desc>Image generated by PCBNEW </desc>
<g style="fill:#000000; fill-opacity:1.0000;stroke:#000000; stroke-opacity:1.0000;
stroke-linecap:round; stroke-linejoin:round;"
 transform="translate(0 0) scale(1 1)">
</g>
<g style="fill:none; 
stroke:#F2EDA1; stroke-width:0.1500; stroke-opacity:1; 
stroke-linecap:round; stroke-linejoin:round;">
<text x="19.1000" y="7.0750"
textLength="4.5357" font-size="1.3333" lengthAdjust="spacingAndGlyphs"
text-anchor="middle" opacity="0" stroke-opacity="0">REF**</text>
<g class="stroked-text"><desc>REF**</desc>
<path d="M17.7667 7.0298
L17.4333 6.5536
" />
<path d="M17.1952 7.0298
L17.1952 6.0298
" />
<path d="M17.1952 6.0298
L17.5762 6.0298
" />
<path d="M17.5762 6.0298
L17.6714 6.0774
" />
<path d="M17.6714 6.0774
L17.7190 6.1251
" />
<path d="M17.7190 6.1251
L17.7667 6.2203
" />
<path d="M17.7667 6.2203
L17.7667 6.3632
" />
<path d="M17.7667 6.3632
L17.7190 6.4584
" />
<path d="M17.7190 6.4584
L17.6714 6.5060
" />
<path d="M17.6714 6.5060
L17.5762 6.5536
" />
<path d="M17.5762 6.5536
L17.1952 6.5536
" />
<path d="M18.1952 6.5060
L18.5286 6.5060
" />
<path d="M18.6714 7.0298
L18.1952 7.0298
" />
<path d="M18.1952 7.0298
L18.1952 6.0298
" />
<path d="M18.1952 6.0298
L18.6714 6.0298
" />
<path d="M19.4333 6.5060
L19.1000 6.5060
" />
<path d="M19.1000 7.0298
L19.1000 6.0298
" />
<path d="M19.1000 6.0298
L19.5762 6.0298
" />
<path d="M20.1000 6.0298
L20.1000 6.2679
" />
<path d="M19.8619 6.1727
L20.1000 6.2679
" />
<path d="M20.1000 6.2679
L20.3381 6.1727
" />
<path d="M19.9571 6.4584
L20.1000 6.2679
" />
<path d="M20.1000 6.2679
L20.2429 6.4584
" />
<path d="M20.8619 6.0298
L20.8619 6.2679
" />
<path d="M20.6238 6.1727
L20.8619 6.2679
" />
<path d="M20.8619 6.2679
L21.1000 6.1727
" />
<path d="M20.7190 6.4584
L20.8619 6.2679
" />
<path d="M20.8619 6.2679
L21.0048 6.4584
" />
</g></g>
<g style="fill:none; 
stroke:#F2EDA1; stroke-width:0.1200; stroke-opacity:1; 
stroke-linecap:round; stroke-linejoin:round;">
<path d="M12.7500 10.5650
L12.7500 10.2100
" />
<path d="M12.7500 14.0200
L12.7500 13.6650
" />
<path d="M13.1000 10.2100
L12.7500 10.2100
" />
<path d="M15.2900 16.5600
L24.1800 16.5600
" />
<path d="M16.6358 10.2100
L14.9090 10.2100
" />
<path d="M24.1800 12.1150
L19.1000 12.1150
" />
<path d="M24.1800 12.1150
L24.1800 13.1050
" />
<path d="M24.1800 16.5600
L24.1800 16.2050
" />
<path d="M12.7500 14.0200 A2.5400 2.5400 0.0 0 0 15.2900 16.5600" />
<path d="M16.6404 10.2088 A2.5400 2.5400 0.0 0 0 19.1000 12.1150" />
</g>
<g style="fill:none; 
stroke:#E8B2A7; stroke-width:0.1200; stroke-opacity:1; 
stroke-linecap:round; stroke-linejoin:round;">
<path d="M12.1040 2.9750
L12.1040 16.1750
" />
<path d="M12.5040 16.5750
L25.7040 16.5750
" />
<path d="M25.7040 2.5750
L12.5040 2.5750
" />
<path d="M26.1040 16.1750
L26.1040 2.9750
" />
<path d="M12.5040 2.5750 A0.4000 0.4000 0.0 0 0 12.1040 2.9750" />
<path d="M12.1040 16.1750 A0.4000 0.4000 0.0 0 0 12.5040 16.5750" />
<path d="M26.1040 2.9750 A0.4000 0.4000 0.0 0 0 25.7040 2.5750" />
<path d="M25.7040 16.5750 A0.4000 0.4000 0.0 0 0 26.1040 16.1750" />
<path style="fill:#B4A09A; fill-opacity:0.9000; stroke:none;fill-rule:evenodd;"
d="M 12.8150,13.1150
12.7960,13.2107
12.7418,13.2918
12.6607,13.3460
12.5650,13.3650
10.5150,13.3650
10.4193,13.3460
10.3382,13.2918
10.2840,13.2107
10.2650,13.1150
10.2650,11.1150
10.2840,11.0193
10.3382,10.9382
10.4193,10.8840
10.5150,10.8650
12.5650,10.8650
12.6607,10.8840
12.7418,10.9382
12.7960,11.0193
12.8150,11.1150
Z" /> 
<path style="fill:#B4A09A; fill-opacity:0.9000; stroke:none;fill-rule:evenodd;"
d="M 26.6650,15.6550
26.6460,15.7507
26.5918,15.8318
26.5107,15.8860
26.4150,15.9050
24.3650,15.9050
24.2693,15.8860
24.1882,15.8318
24.1340,15.7507
24.1150,15.6550
24.1150,13.6550
24.1340,13.5593
24.1882,13.4782
24.2693,13.4240
24.3650,13.4050
26.4150,13.4050
26.5107,13.4240
26.5918,13.4782
26.6460,13.5593
26.6650,13.6550
Z" /> 
<path style="fill:#C83434; fill-opacity:1.0000; stroke:none;fill-rule:evenodd;"
d="M 12.8150,13.1150
12.7960,13.2107
12.7418,13.2918
12.6607,13.3460
12.5650,13.3650
10.5150,13.3650
10.4193,13.3460
10.3382,13.2918
10.2840,13.2107
10.2650,13.1150
10.2650,11.1150
10.2840,11.0193
10.3382,10.9382
10.4193,10.8840
10.5150,10.8650
12.5650,10.8650
12.6607,10.8840
12.7418,10.9382
12.7960,11.0193
12.8150,11.1150
Z" /> 
<path style="fill:#C83434; fill-opacity:1.0000; stroke:none;fill-rule:evenodd;"
d="M 26.6650,15.6550
26.6460,15.7507
26.5918,15.8318
26.5107,15.8860
26.4150,15.9050
24.3650,15.9050
24.2693,15.8860
24.1882,15.8318
24.1340,15.7507
24.1150,15.6550
24.1150,13.6550
24.1340,13.5593
24.1882,13.4782
24.2693,13.4240
24.3650,13.4050
26.4150,13.4050
26.5107,13.4240
26.5918,13.4782
26.6460,13.5593
26.6650,13.6550
Z" /> 
</g>
<g style="fill:none; 
stroke:#AFAFAF; stroke-width:0.1500; stroke-opacity:1; 
stroke-linecap:round; stroke-linejoin:round;">
<text x="19.1000" y="18.3000"
textLength="20.2976" font-size="1.3333" lengthAdjust="spacingAndGlyphs"
text-anchor="middle" opacity="0" stroke-opacity="0">SW_MX_2U_HotSwap_sqSilk</text>
<g class="stroked-text"><desc>SW_MX_2U_HotSwap_sqSilk</desc>
<path d="M9.2667 18.2072
L9.4095 18.2548
" />
<path d="M9.4095 18.2548
L9.6476 18.2548
" />
<path d="M9.6476 18.2548
L9.7429 18.2072
" />
<path d="M9.7429 18.2072
L9.7905 18.1596
" />
<path d="M9.7905 18.1596
L9.8381 18.0643
" />
<path d="M9.8381 18.0643
L9.8381 17.9691
" />
<path d="M9.8381 17.9691
L9.7905 17.8739
" />
<path d="M9.7905 17.8739
L9.7429 17.8262
" />
<path d="M9.7429 17.8262
L9.6476 17.7786
" />
<path d="M9.6476 17.7786
L9.4571 17.7310
" />
<path d="M9.4571 17.7310
L9.3619 17.6834
" />
<path d="M9.3619 17.6834
L9.3143 17.6358
" />
<path d="M9.3143 17.6358
L9.2667 17.5405
" />
<path d="M9.2667 17.5405
L9.2667 17.4453
" />
<path d="M9.2667 17.4453
L9.3143 17.3501
" />
<path d="M9.3143 17.3501
L9.3619 17.3024
" />
<path d="M9.3619 17.3024
L9.4571 17.2548
" />
<path d="M9.4571 17.2548
L9.6952 17.2548
" />
<path d="M9.6952 17.2548
L9.8381 17.3024
" />
<path d="M10.1714 17.2548
L10.4095 18.2548
" />
<path d="M10.4095 18.2548
L10.6000 17.5405
" />
<path d="M10.6000 17.5405
L10.7905 18.2548
" />
<path d="M10.7905 18.2548
L11.0286 17.2548
" />
<path d="M11.1714 18.3501
L11.9333 18.3501
" />
<path d="M12.1714 18.2548
L12.1714 17.2548
" />
<path d="M12.1714 17.2548
L12.5048 17.9691
" />
<path d="M12.5048 17.9691
L12.8381 17.2548
" />
<path d="M12.8381 17.2548
L12.8381 18.2548
" />
<path d="M13.2190 17.2548
L13.8857 18.2548
" />
<path d="M13.8857 17.2548
L13.2190 18.2548
" />
<path d="M14.0286 18.3501
L14.7905 18.3501
" />
<path d="M14.9810 17.3501
L15.0286 17.3024
" />
<path d="M15.0286 17.3024
L15.1238 17.2548
" />
<path d="M15.1238 17.2548
L15.3619 17.2548
" />
<path d="M15.3619 17.2548
L15.4571 17.3024
" />
<path d="M15.4571 17.3024
L15.5048 17.3501
" />
<path d="M15.5048 17.3501
L15.5524 17.4453
" />
<path d="M15.5524 17.4453
L15.5524 17.5405
" />
<path d="M15.5524 17.5405
L15.5048 17.6834
" />
<path d="M15.5048 17.6834
L14.9333 18.2548
" />
<path d="M14.9333 18.2548
L15.5524 18.2548
" />
<path d="M15.9810 17.2548
L15.9810 18.0643
" />
<path d="M15.9810 18.0643
L16.0286 18.1596
" />
<path d="M16.0286 18.1596
L16.0762 18.2072
" />
<path d="M16.0762 18.2072
L16.1714 18.2548
" />
<path d="M16.1714 18.2548
L16.3619 18.2548
" />
<path d="M16.3619 18.2548
L16.4571 18.2072
" />
<path d="M16.4571 18.2072
L16.5048 18.1596
" />
<path d="M16.5048 18.1596
L16.5524 18.0643
" />
<path d="M16.5524 18.0643
L16.5524 17.2548
" />
<path d="M16.7905 18.3501
L17.5524 18.3501
" />
<path d="M17.7905 18.2548
L17.7905 17.2548
" />
<path d="M17.7905 17.7310
L18.3619 17.7310
" />
<path d="M18.3619 18.2548
L18.3619 17.2548
" />
<path d="M18.9810 18.2548
L18.8857 18.2072
" />
<path d="M18.8857 18.2072
L18.8381 18.1596
" />
<path d="M18.8381 18.1596
L18.7905 18.0643
" />
<path d="M18.7905 18.0643
L18.7905 17.7786
" />
<path d="M18.7905 17.7786
L18.8381 17.6834
" />
<path d="M18.8381 17.6834
L18.8857 17.6358
" />
<path d="M18.8857 17.6358
L18.9810 17.5882
" />
<path d="M18.9810 17.5882
L19.1238 17.5882
" />
<path d="M19.1238 17.5882
L19.2190 17.6358
" />
<path d="M19.2190 17.6358
L19.2667 17.6834
" />
<path d="M19.2667 17.6834
L19.3143 17.7786
" />
<path d="M19.3143 17.7786
L19.3143 18.0643
" />
<path d="M19.3143 18.0643
L19.2667 18.1596
" />
<path d="M19.2667 18.1596
L19.2190 18.2072
" />
<path d="M19.2190 18.2072
L19.1238 18.2548
" />
<path d="M19.1238 18.2548
L18.9810 18.2548
" />
<path d="M19.6000 17.5882
L19.9810 17.5882
" />
<path d="M19.7429 17.2548
L19.7429 18.1120
" />
<path d="M19.7429 18.1120
L19.7905 18.2072
" />
<path d="M19.7905 18.2072
L19.8857 18.2548
" />
<path d="M19.8857 18.2548
L19.9810 18.2548
" />
<path d="M20.2667 18.2072
L20.4095 18.2548
" />
<path d="M20.4095 18.2548
L20.6476 18.2548
" />
<path d="M20.6476 18.2548
L20.7429 18.2072
" />
<path d="M20.7429 18.2072
L20.7905 18.1596
" />
<path d="M20.7905 18.1596
L20.8381 18.0643
" />
<path d="M20.8381 18.0643
L20.8381 17.9691
" />
<path d="M20.8381 17.9691
L20.7905 17.8739
" />
<path d="M20.7905 17.8739
L20.7429 17.8262
" />
<path d="M20.7429 17.8262
L20.6476 17.7786
" />
<path d="M20.6476 17.7786
L20.4571 17.7310
" />
<path d="M20.4571 17.7310
L20.3619 17.6834
" />
<path d="M20.3619 17.6834
L20.3143 17.6358
" />
<path d="M20.3143 17.6358
L20.2667 17.5405
" />
<path d="M20.2667 17.5405
L20.2667 17.4453
" />
<path d="M20.2667 17.4453
L20.3143 17.3501
" />
<path d="M20.3143 17.3501
L20.3619 17.3024
" />
<path d="M20.3619 17.3024
L20.4571 17.2548
" />
<path d="M20.4571 17.2548
L20.6952 17.2548
" />
<path d="M20.6952 17.2548
L20.8381 17.3024
" />
<path d="M21.1714 17.5882
L21.3619 18.2548
" />
<path d="M21.3619 18.2548
L21.5524 17.7786
" />
<path d="M21.5524 17.7786
L21.7429 18.2548
" />
<path d="M21.7429 18.2548
L21.9333 17.5882
" />
<path d="M22.7429 18.2548
L22.7429 17.7310
" />
<path d="M22.7429 17.7310
L22.6952 17.6358
" />
<path d="M22.6952 17.6358
L22.6000 17.5882
" />
<path d="M22.6000 17.5882
L22.4095 17.5882
" />
<path d="M22.4095 17.5882
L22.3143 17.6358
" />
<path d="M22.7429 18.2072
L22.6476 18.2548
" />
<path d="M22.6476 18.2548
L22.4095 18.2548
" />
<path d="M22.4095 18.2548
L22.3143 18.2072
" />
<path d="M22.3143 18.2072
L22.2667 18.1120
" />
<path d="M22.2667 18.1120
L22.2667 18.0167
" />
<path d="M22.2667 18.0167
L22.3143 17.9215
" />
<path d="M22.3143 17.9215
L22.4095 17.8739
" />
<path d="M22.4095 17.8739
L22.6476 17.8739
" />
<path d="M22.6476 17.8739
L22.7429 17.8262
" />
<path d="M23.2190 17.5882
L23.2190 18.5882
" />
<path d="M23.2190 17.6358
L23.3143 17.5882
" />
<path d="M23.3143 17.5882
L23.5048 17.5882
" />
<path d="M23.5048 17.5882
L23.6000 17.6358
" />
<path d="M23.6000 17.6358
L23.6476 17.6834
" />
<path d="M23.6476 17.6834
L23.6952 17.7786
" />
<path d="M23.6952 17.7786
L23.6952 18.0643
" />
<path d="M23.6952 18.0643
L23.6476 18.1596
" />
<path d="M23.6476 18.1596
L23.6000 18.2072
" />
<path d="M23.6000 18.2072
L23.5048 18.2548
" />
<path d="M23.5048 18.2548
L23.3143 18.2548
" />
<path d="M23.3143 18.2548
L23.2190 18.2072
" />
<path d="M23.8857 18.3501
L24.6476 18.3501
" />
<path d="M24.8381 18.2072
L24.9333 18.2548
" />
<path d="M24.9333 18.2548
L25.1238 18.2548
" />
<path d="M25.1238 18.2548
L25.2190 18.2072
" />
<path d="M25.2190 18.2072
L25.2667 18.1120
" />
<path d="M25.2667 18.1120
L25.2667 18.0643
" />
<path d="M25.2667 18.0643
L25.2190 17.9691
" />
<path d="M25.2190 17.9691
L25.1238 17.9215
" />
<path d="M25.1238 17.9215
L24.9810 17.9215
" />
<path d="M24.9810 17.9215
L24.8857 17.8739
" />
<path d="M24.8857 17.8739
L24.8381 17.7786
" />
<path d="M24.8381 17.7786
L24.8381 17.7310
" />
<path d="M24.8381 17.7310
L24.8857 17.6358
" />
<path d="M24.8857 17.6358
L24.9810 17.5882
" />
<path d="M24.9810 17.5882
L25.1238 17.5882
" />
<path d="M25.1238 17.5882
L25.2190 17.6358
" />
<path d="M26.1238 17.5882
L26.1238 18.5882
" />
<path d="M26.1238 18.2072
L26.0286 18.2548
" />
<path d="M26.0286 18.2548
L25.8381 18.2548
" />
<path d="M25.8381 18.2548
L25.7429 18.2072
" />
<path d="M25.7429 18.2072
L25.6952 18.1596
" />
<path d="M25.6952 18.1596
L25.6476 18.0643
" />
<path d="M25.6476 18.0643
L25.6476 17.7786
" />
<path d="M25.6476 17.7786
L25.6952 17.6834
" />
<path d="M25.6952 17.6834
L25.7429 17.6358
" />
<path d="M25.7429 17.6358
L25.8381 17.5882
" />
<path d="M25.8381 17.5882
L26.0286 17.5882
" />
<path d="M26.0286 17.5882
L26.1238 17.6358
" />
<path d="M26.5524 18.2072
L26.6952 18.2548
" />
<path d="M26.6952 18.2548
L26.9333 18.2548
" />
<path d="M26.9333 18.2548
L27.0286 18.2072
" />
<path d="M27.0286 18.2072
L27.0762 18.1596
" />
<path d="M27.0762 18.1596
L27.1238 18.0643
" />
<path d="M27.1238 18.0643
L27.1238 17.9691
" />
<path d="M27.1238 17.9691
L27.0762 17.8739
" />
<path d="M27.0762 17.8739
L27.0286 17.8262
" />
<path d="M27.0286 17.8262
L26.9333 17.7786
" />
<path d="M26.9333 17.7786
L26.7429 17.7310
" />
<path d="M26.7429 17.7310
L26.6476 17.6834
" />
<path d="M26.6476 17.6834
L26.6000 17.6358
" />
<path d="M26.6000 17.6358
L26.5524 17.5405
" />
<path d="M26.5524 17.5405
L26.5524 17.4453
" />
<path d="M26.5524 17.4453
L26.6000 17.3501
" />
<path d="M26.6000 17.3501
L26.6476 17.3024
" />
<path d="M26.6476 17.3024
L26.7429 17.2548
" />
<path d="M26.7429 17.2548
L26.9810 17.2548
" />
<path d="M26.9810 17.2548
L27.1238 17.3024
" />
<path d="M27.5524 18.2548
L27.5524 17.5882
" />
<path d="M27.5524 17.2548
L27.5048 17.3024
" />
<path d="M27.5048 17.3024
L27.5524 17.3501
" />
<path d="M27.5524 17.3501
L27.6000 17.3024
" />
<path d="M27.6000 17.3024
L27.5524 17.2548
" />
<path d="M27.5524 17.2548
L27.5524 17.3501
" />
<path d="M28.1714 18.2548
L28.0762 18.2072
" />
<path d="M28.0762 18.2072
L28.0286 18.1120
" />
<path d="M28.0286 18.1120
L28.0286 17.2548
" />
<path d="M28.5524 18.2548
L28.5524 17.2548
" />
<path d="M28.6476 17.8739
L28.9333 18.2548
" />
<path d="M28.9333 17.5882
L28.5524 17.9691
" />
</g><text x="19.1000" y="19.9000"
textLength="4.5357" font-size="1.3333" lengthAdjust="spacingAndGlyphs"
text-anchor="middle" opacity="0" stroke-opacity="0">REF**</text>
<g class="stroked-text"><desc>REF**</desc>
<path d="M17.7667 19.8548
L17.4333 19.3786
" />
<path d="M17.1952 19.8548
L17.1952 18.8548
" />
<path d="M17.1952 18.8548
L17.5762 18.8548
" />
<path d="M17.5762 18.8548
L17.6714 18.9024
" />
<path d="M17.6714 18.9024
L17.7190 18.9501
" />
<path d="M17.7190 18.9501
L17.7667 19.0453
" />
<path d="M17.7667 19.0453
L17.7667 19.1882
" />
<path d="M17.7667 19.1882
L17.7190 19.2834
" />
<path d="M17.7190 19.2834
L17.6714 19.3310
" />
<path d="M17.6714 19.3310
L17.5762 19.3786
" />
<path d="M17.5762 19.3786
L17.1952 19.3786
" />
<path d="M18.1952 19.3310
L18.5286 19.3310
" />
<path d="M18.6714 19.8548
L18.1952 19.8548
" />
<path d="M18.1952 19.8548
L18.1952 18.8548
" />
<path d="M18.1952 18.8548
L18.6714 18.8548
" />
<path d="M19.4333 19.3310
L19.1000 19.3310
" />
<path d="M19.1000 19.8548
L19.1000 18.8548
" />
<path d="M19.1000 18.8548
L19.5762 18.8548
" />
<path d="M20.1000 18.8548
L20.1000 19.0929
" />
<path d="M19.8619 18.9977
L20.1000 19.0929
" />
<path d="M20.1000 19.0929
L20.3381 18.9977
" />
<path d="M19.9571 19.2834
L20.1000 19.0929
" />
<path d="M20.1000 19.0929
L20.2429 19.2834
" />
<path d="M20.8619 18.8548
L20.8619 19.0929
" />
<path d="M20.6238 18.9977
L20.8619 19.0929
" />
<path d="M20.8619 19.0929
L21.1000 18.9977
" />
<path d="M20.7190 19.2834
L20.8619 19.0929
" />
<path d="M20.8619 19.0929
L21.0048 19.2834
" />
</g></g>
<g style="fill:none; 
stroke:#AFAFAF; stroke-width:0.1200; stroke-opacity:1; 
stroke-linecap:round; stroke-linejoin:round;">
<path d="M10.2100 10.8450
L10.2100 13.3850
" />
<path d="M10.2100 13.3850
L12.7500 13.3850
" />
<path d="M12.7500 10.2100
L12.7500 14.0200
" />
<path d="M12.7500 10.2100
L16.5600 10.2100
" />
<path d="M12.7500 10.8450
L10.2100 10.8450
" />
<path d="M15.2900 16.5600
L24.1800 16.5600
" />
<path d="M24.1800 12.1150
L19.1000 12.1150
" />
<path d="M24.1800 15.9250
L26.7200 15.9250
" />
<path d="M24.1800 16.5600
L24.1800 12.1150
" />
<path d="M26.7200 13.3850
L24.1800 13.3850
" />
<path d="M26.7200 15.9250
L26.7200 13.3850
" />
<path d="M12.7500 14.0200 A2.5400 2.5400 0.0 0 0 15.2900 16.5600" />
<path d="M16.6358 10.1910 A2.5400 2.5400 0.0 0 0 19.1000 12.1150" />
</g>
<g style="fill:none; 
stroke:#AFAFAF; stroke-width:0.0212; stroke-opacity:1; 
stroke-linecap:round; stroke-linejoin:round;">
<circle cx="7.1620" cy="2.5750" r="1.5250" /> 
</g>
<g style="fill:none; 
stroke:#AFAFAF; stroke-width:0.0212; stroke-opacity:1; 
stroke-linecap:round; stroke-linejoin:round;">
<circle cx="7.1620" cy="17.8150" r="2.0000" /> 
</g>
<g style="fill:none; 
stroke:#AFAFAF; stroke-width:0.0212; stroke-opacity:1; 
stroke-linecap:round; stroke-linejoin:round;">
<circle cx="14.0200" cy="9.5750" r="0.8500" /> 
</g>
<g style="fill:none; 
stroke:#AFAFAF; stroke-width:0.0212; stroke-opacity:1; 
stroke-linecap:round; stroke-linejoin:round;">
<circle cx="15.2900" cy="12.1150" r="1.5000" /> 
</g>
<g style="fill:none; 
stroke:#AFAFAF; stroke-width:0.0212; stroke-opacity:1; 
stroke-linecap:round; stroke-linejoin:round;">
<circle cx="19.1000" cy="9.5750" r="2.0000" /> 
</g>
<g style="fill:none; 
stroke:#AFAFAF; stroke-width:0.0212; stroke-opacity:1; 
stroke-linecap:round; stroke-linejoin:round;">
<circle cx="21.6400" cy="14.6550" r="1.5000" /> 
</g>
<g style="fill:none; 
stroke:#AFAFAF; stroke-width:0.0212; stroke-opacity:1; 
stroke-linecap:round; stroke-linejoin:round;">
<circle cx="24.1800" cy="9.5750" r="0.8500" /> 
</g>
<g style="fill:none; 
stroke:#AFAFAF; stroke-width:0.0212; stroke-opacity:1; 
stroke-linecap:round; stroke-linejoin:round;">
<circle cx="31.0380" cy="2.5750" r="1.5250" /> 
</g>
<g style="fill:none; 
stroke:#AFAFAF; stroke-width:0.0212; stroke-opacity:1; 
stroke-linecap:round; stroke-linejoin:round;">
<circle cx="31.0380" cy="17.8150" r="2.0000" /> 
</g>
<g style="fill:none; 
stroke:#AFAFAF; stroke-width:0.0708; stroke-opacity:1; 
stroke-linecap:round; stroke-linejoin:round;">
<text x="11.5400" y="12.5400"
textLength="0.8520" font-size="1.1333" lengthAdjust="spacingAndGlyphs"
text-anchor="middle" opacity="0" stroke-opacity="0">1</text>
<g class="stroked-text"><desc>1</desc>
<path d="M11.7829 12.5045
L11.2971 12.5045
" />
<path d="M11.5400 12.5045
L11.5400 11.6545
" />
<path d="M11.5400 11.6545
L11.4590 11.7760
" />
<path d="M11.4590 11.7760
L11.3781 11.8569
" />
<path d="M11.3781 11.8569
L11.2971 11.8974
" />
</g><path style="fill:none; 
stroke:#AFAFAF; stroke-width:0.0212; stroke-opacity:1; 
stroke-linecap:round; stroke-linejoin:round;fill:none"
d="M 12.8150,13.1150
12.7960,13.2107
12.7418,13.2918
12.6607,13.3460
12.5650,13.3650
10.5150,13.3650
10.4193,13.3460
10.3382,13.2918
10.2840,13.2107
10.2650,13.1150
10.2650,11.1150
10.2840,11.0193
10.3382,10.9382
10.4193,10.8840
10.5150,10.8650
12.5650,10.8650
12.6607,10.8840
12.7418,10.9382
12.7960,11.0193
12.8150,11.1150
Z" /> 
</g>
<g style="fill:none; 
stroke:#AFAFAF; stroke-width:0.0708; stroke-opacity:1; 
stroke-linecap:round; stroke-linejoin:round;">
<text x="25.3900" y="15.0800"
textLength="0.8520" font-size="1.1333" lengthAdjust="spacingAndGlyphs"
text-anchor="middle" opacity="0" stroke-opacity="0">2</text>
<g class="stroked-text"><desc>2</desc>
<path d="M25.1471 14.2755
L25.1876 14.2350
" />
<path d="M25.1876 14.2350
L25.2686 14.1945
" />
<path d="M25.2686 14.1945
L25.4710 14.1945
" />
<path d="M25.4710 14.1945
L25.5519 14.2350
" />
<path d="M25.5519 14.2350
L25.5924 14.2755
" />
<path d="M25.5924 14.2755
L25.6329 14.3564
" />
<path d="M25.6329 14.3564
L25.6329 14.4374
" />
<path d="M25.6329 14.4374
L25.5924 14.5588
" />
<path d="M25.5924 14.5588
L25.1067 15.0445
" />
<path d="M25.1067 15.0445
L25.6329 15.0445
" />
</g><path style="fill:none; 
stroke:#AFAFAF; stroke-width:0.0212; stroke-opacity:1; 
stroke-linecap:round; stroke-linejoin:round;fill:none"
d="M 26.6650,15.6550
26.6460,15.7507
26.5918,15.8318
26.5107,15.8860
26.4150,15.9050
24.3650,15.9050
24.2693,15.8860
24.1882,15.8318
24.1340,15.7507
24.1150,15.6550
24.1150,13.6550
24.1340,13.5593
24.1882,13.4782
24.2693,13.4240
24.3650,13.4050
26.4150,13.4050
26.5107,13.4240
26.5918,13.4782
26.6460,13.5593
26.6650,13.6550
Z" /> 
<path style="fill:none; 
stroke:#585D84; stroke-width:0.0500; stroke-opacity:1; 
stroke-linecap:round; stroke-linejoin:round;fill:none"
d="M 2.5750,2.5750
35.6250,2.5750
35.6250,16.5750
2.5750,16.5750
Z" /> 
</g>
<g style="fill:none; 
stroke:#585D84; stroke-width:0.0212; stroke-opacity:1; 
stroke-linecap:round; stroke-linejoin:round;">
<circle cx="7.1620" cy="2.5750" r="1.5250" /> 
</g>
<g style="fill:none; 
stroke:#585D84; stroke-width:0.0212; stroke-opacity:1; 
stroke-linecap:round; stroke-linejoin:round;">
<circle cx="7.1620" cy="17.8150" r="2.0000" /> 
</g>
<g style="fill:none; 
stroke:#585D84; stroke-width:0.0212; stroke-opacity:1; 
stroke-linecap:round; stroke-linejoin:round;">
<circle cx="14.0200" cy="9.5750" r="0.8500" /> 
</g>
<g style="fill:none; 
stroke:#585D84; stroke-width:0.0212; stroke-opacity:1; 
stroke-linecap:round; stroke-linejoin:round;">
<circle cx="15.2900" cy="12.1150" r="1.5000" /> 
</g>
<g style="fill:none; 
stroke:#585D84; stroke-width:0.0212; stroke-opacity:1; 
stroke-linecap:round; stroke-linejoin:round;">
<circle cx="19.1000" cy="9.5750" r="2.0000" /> 
</g>
<g style="fill:none; 
stroke:#585D84; stroke-width:0.0212; stroke-opacity:1; 
stroke-linecap:round; stroke-linejoin:round;">
<circle cx="21.6400" cy="14.6550" r="1.5000" /> 
</g>
<g style="fill:none; 
stroke:#585D84; stroke-width:0.0212; stroke-opacity:1; 
stroke-linecap:round; stroke-linejoin:round;">
<circle cx="24.1800" cy="9.5750" r="0.8500" /> 
</g>
<g style="fill:none; 
stroke:#585D84; stroke-width:0.0212; stroke-opacity:1; 
stroke-linecap:round; stroke-linejoin:round;">
<circle cx="31.0380" cy="2.5750" r="1.5250" /> 
</g>
<g style="fill:none; 
stroke:#585D84; stroke-width:0.0212; stroke-opacity:1; 
stroke-linecap:round; stroke-linejoin:round;">
<circle cx="31.0380" cy="17.8150" r="2.0000" /> 
<path style="fill:none; 
stroke:#C2C2C2; stroke-width:0.1000; stroke-opacity:1; 
stroke-linecap:round; stroke-linejoin:round;fill:none"
d="M 0.0500,0.0500
38.1500,0.0500
38.1500,19.1000
0.0500,19.1000
Z" /> 
</g> 
</svg>
