<?xml version="1.0" standalone="no"?>
 <!DOCTYPE svg PUBLIC "-//W3C//DTD SVG 1.1//EN" 
 "http://www.w3.org/Graphics/SVG/1.1/DTD/svg11.dtd"> 
<svg
  xmlns:svg="http://www.w3.org/2000/svg"
  xmlns="http://www.w3.org/2000/svg"
  xmlns:xlink="http://www.w3.org/1999/xlink"
  version="1.1"
  width="21.1328mm" height="20.3200mm" viewBox="0.0000 0.0000 21.1328 20.3200">
<title>SVG Image created as SW_MX_Choc_HotSwap_nSilk.svg date 2025/05/12 03:05:51 </title>
  <desc>Image generated by PCBNEW </desc>
<g style="fill:#000000; fill-opacity:1.0000;stroke:#000000; stroke-opacity:1.0000;
stroke-linecap:round; stroke-linejoin:round;"
 transform="translate(0 0) scale(1 1)">
</g>
<g style="fill:none; 
stroke:#E8B2A7; stroke-width:0.1500; stroke-opacity:1; 
stroke-linecap:round; stroke-linejoin:round;">
<text x="8.7994" y="4.9950"
transform="scale(-1 1) translate(-17.598764 0)"
textLength="4.5357" font-size="1.3333" lengthAdjust="spacingAndGlyphs"
text-anchor="middle" opacity="0" stroke-opacity="0">REF**</text>
<g class="stroked-text"><desc>REF**</desc>
<path d="M10.1327 4.9498
L10.4660 4.4736
" />
<path d="M10.7041 4.9498
L10.7041 3.9498
" />
<path d="M10.7041 3.9498
L10.3232 3.9498
" />
<path d="M10.3232 3.9498
L10.2280 3.9974
" />
<path d="M10.2280 3.9974
L10.1803 4.0451
" />
<path d="M10.1803 4.0451
L10.1327 4.1403
" />
<path d="M10.1327 4.1403
L10.1327 4.2832
" />
<path d="M10.1327 4.2832
L10.1803 4.3784
" />
<path d="M10.1803 4.3784
L10.2280 4.4260
" />
<path d="M10.2280 4.4260
L10.3232 4.4736
" />
<path d="M10.3232 4.4736
L10.7041 4.4736
" />
<path d="M9.7041 4.4260
L9.3708 4.4260
" />
<path d="M9.2280 4.9498
L9.7041 4.9498
" />
<path d="M9.7041 4.9498
L9.7041 3.9498
" />
<path d="M9.7041 3.9498
L9.2280 3.9498
" />
<path d="M8.4660 4.4260
L8.7994 4.4260
" />
<path d="M8.7994 4.9498
L8.7994 3.9498
" />
<path d="M8.7994 3.9498
L8.3232 3.9498
" />
<path d="M7.7994 3.9498
L7.7994 4.1879
" />
<path d="M8.0375 4.0927
L7.7994 4.1879
" />
<path d="M7.7994 4.1879
L7.5613 4.0927
" />
<path d="M7.9422 4.3784
L7.7994 4.1879
" />
<path d="M7.7994 4.1879
L7.6565 4.3784
" />
<path d="M7.0375 3.9498
L7.0375 4.1879
" />
<path d="M7.2756 4.0927
L7.0375 4.1879
" />
<path d="M7.0375 4.1879
L6.7994 4.0927
" />
<path d="M7.1803 4.3784
L7.0375 4.1879
" />
<path d="M7.0375 4.1879
L6.8946 4.3784
" />
</g></g>
<g style="fill:none; 
stroke:#E8B2A7; stroke-width:0.1200; stroke-opacity:1; 
stroke-linecap:round; stroke-linejoin:round;">
<path d="M3.3274 11.0500
L3.3274 11.7750
" />
<path d="M3.3274 11.0500
L7.1814 11.0500
" />
<path d="M3.3274 14.8750
L3.3274 14.9000
" />
<path d="M4.1274 15.7000
L7.1274 15.7000
" />
<path d="M4.2274 5.1300
L4.2274 5.4850
" />
<path d="M4.2274 8.5850
L4.2274 8.9400
" />
<path d="M4.5774 8.9400
L4.2274 8.9400
" />
<path d="M6.7674 2.5900
L15.6574 2.5900
" />
<path d="M8.1132 8.9400
L6.3864 8.9400
" />
<path d="M8.1274 17.0500
L8.1274 16.7000
" />
<path d="M8.1274 17.0500
L8.9274 17.8500
" />
<path d="M12.0774 13.2000
L10.2774 13.2000
" />
<path d="M12.0774 13.2000
L12.8774 14.0000
" />
<path d="M12.0774 17.8500
L8.9274 17.8500
" />
<path d="M12.8774 17.0500
L12.0774 17.8500
" />
<path d="M15.6574 2.5900
L15.6574 2.9450
" />
<path d="M15.6574 7.0350
L10.5774 7.0350
" />
<path d="M15.6574 7.0350
L15.6574 6.0450
" />
<path d="M3.3274 14.9000 A0.8000 0.8000 0.0 0 0 4.1274 15.7000" />
<path d="M6.7674 2.5900 A2.5400 2.5400 0.0 0 0 4.2274 5.1300" />
<path d="M8.1274 16.7000 A1.0000 1.0000 0.0 0 0 7.1274 15.7000" />
<path d="M8.1171 11.7080 A1.0000 1.0000 0.0 0 0 7.1774 11.0500" />
<path d="M10.5774 7.0350 A2.5400 2.5400 0.0 0 0 8.1177 8.9412" />
<path d="M8.1219 11.7079 A2.6255 2.6255 0.0 0 0 10.2774 13.2000" />
<path style="fill:#00C2C2; fill-opacity:0.9000; stroke:none;fill-rule:evenodd;"
d="M 3.6024,14.3250
3.5834,14.4207
3.5292,14.5018
3.4481,14.5560
3.3524,14.5750
1.3024,14.5750
1.2067,14.5560
1.1256,14.5018
1.0714,14.4207
1.0524,14.3250
1.0524,12.3250
1.0714,12.2293
1.1256,12.1482
1.2067,12.0940
1.3024,12.0750
3.3524,12.0750
3.4481,12.0940
3.5292,12.1482
3.5834,12.2293
3.6024,12.3250
Z" /> 
<path style="fill:#00C2C2; fill-opacity:0.9000; stroke:none;fill-rule:evenodd;"
d="M 4.2924,8.0350
4.2734,8.1307
4.2192,8.2118
4.1381,8.2660
4.0424,8.2850
1.9924,8.2850
1.8967,8.2660
1.8156,8.2118
1.7614,8.1307
1.7424,8.0350
1.7424,6.0350
1.7614,5.9393
1.8156,5.8582
1.8967,5.8040
1.9924,5.7850
4.0424,5.7850
4.1381,5.8040
4.2192,5.8582
4.2734,5.9393
4.2924,6.0350
Z" /> 
<path style="fill:#00C2C2; fill-opacity:0.9000; stroke:none;fill-rule:evenodd;"
d="M 15.0974,16.5250
15.0784,16.6207
15.0242,16.7018
14.9431,16.7560
14.8474,16.7750
12.7974,16.7750
12.7017,16.7560
12.6206,16.7018
12.5664,16.6207
12.5474,16.5250
12.5474,14.5250
12.5664,14.4293
12.6206,14.3482
12.7017,14.2940
12.7974,14.2750
14.8474,14.2750
14.9431,14.2940
15.0242,14.3482
15.0784,14.4293
15.0974,14.5250
Z" /> 
<path style="fill:#00C2C2; fill-opacity:0.9000; stroke:none;fill-rule:evenodd;"
d="M 18.1424,5.4950
18.1234,5.5907
18.0692,5.6718
17.9881,5.7260
17.8924,5.7450
15.8424,5.7450
15.7467,5.7260
15.6656,5.6718
15.6114,5.5907
15.5924,5.4950
15.5924,3.4950
15.6114,3.3993
15.6656,3.3182
15.7467,3.2640
15.8424,3.2450
17.8924,3.2450
17.9881,3.2640
18.0692,3.3182
18.1234,3.3993
18.1424,3.4950
Z" /> 
<path style="fill:#4D7FC4; fill-opacity:1.0000; stroke:none;fill-rule:evenodd;"
d="M 3.6024,14.3250
3.5834,14.4207
3.5292,14.5018
3.4481,14.5560
3.3524,14.5750
1.3024,14.5750
1.2067,14.5560
1.1256,14.5018
1.0714,14.4207
1.0524,14.3250
1.0524,12.3250
1.0714,12.2293
1.1256,12.1482
1.2067,12.0940
1.3024,12.0750
3.3524,12.0750
3.4481,12.0940
3.5292,12.1482
3.5834,12.2293
3.6024,12.3250
Z" /> 
<path style="fill:#4D7FC4; fill-opacity:1.0000; stroke:none;fill-rule:evenodd;"
d="M 4.2924,8.0350
4.2734,8.1307
4.2192,8.2118
4.1381,8.2660
4.0424,8.2850
1.9924,8.2850
1.8967,8.2660
1.8156,8.2118
1.7614,8.1307
1.7424,8.0350
1.7424,6.0350
1.7614,5.9393
1.8156,5.8582
1.8967,5.8040
1.9924,5.7850
4.0424,5.7850
4.1381,5.8040
4.2192,5.8582
4.2734,5.9393
4.2924,6.0350
Z" /> 
<path style="fill:#4D7FC4; fill-opacity:1.0000; stroke:none;fill-rule:evenodd;"
d="M 15.0974,16.5250
15.0784,16.6207
15.0242,16.7018
14.9431,16.7560
14.8474,16.7750
12.7974,16.7750
12.7017,16.7560
12.6206,16.7018
12.5664,16.6207
12.5474,16.5250
12.5474,14.5250
12.5664,14.4293
12.6206,14.3482
12.7017,14.2940
12.7974,14.2750
14.8474,14.2750
14.9431,14.2940
15.0242,14.3482
15.0784,14.4293
15.0974,14.5250
Z" /> 
<path style="fill:#4D7FC4; fill-opacity:1.0000; stroke:none;fill-rule:evenodd;"
d="M 18.1424,5.4950
18.1234,5.5907
18.0692,5.6718
17.9881,5.7260
17.8924,5.7450
15.8424,5.7450
15.7467,5.7260
15.6656,5.6718
15.6114,5.5907
15.5924,5.4950
15.5924,3.4950
15.6114,3.3993
15.6656,3.3182
15.7467,3.2640
15.8424,3.2450
17.8924,3.2450
17.9881,3.2640
18.0692,3.3182
18.1234,3.3993
18.1424,3.4950
Z" /> 
</g>
<g style="fill:none; 
stroke:#585D84; stroke-width:0.1500; stroke-opacity:1; 
stroke-linecap:round; stroke-linejoin:round;">
<text x="10.5774" y="18.3750"
transform="scale(-1 1) translate(-21.154764 0)"
textLength="21.1548" font-size="1.3333" lengthAdjust="spacingAndGlyphs"
text-anchor="middle" opacity="0" stroke-opacity="0">SW_MX_Choc_HotSwap_nSilk</text>
<g class="stroked-text"><desc>SW_MX_Choc_HotSwap_nSilk</desc>
<path d="M20.8393 18.2822
L20.6964 18.3298
" />
<path d="M20.6964 18.3298
L20.4583 18.3298
" />
<path d="M20.4583 18.3298
L20.3631 18.2822
" />
<path d="M20.3631 18.2822
L20.3155 18.2346
" />
<path d="M20.3155 18.2346
L20.2679 18.1393
" />
<path d="M20.2679 18.1393
L20.2679 18.0441
" />
<path d="M20.2679 18.0441
L20.3155 17.9489
" />
<path d="M20.3155 17.9489
L20.3631 17.9012
" />
<path d="M20.3631 17.9012
L20.4583 17.8536
" />
<path d="M20.4583 17.8536
L20.6488 17.8060
" />
<path d="M20.6488 17.8060
L20.7440 17.7584
" />
<path d="M20.7440 17.7584
L20.7917 17.7108
" />
<path d="M20.7917 17.7108
L20.8393 17.6155
" />
<path d="M20.8393 17.6155
L20.8393 17.5203
" />
<path d="M20.8393 17.5203
L20.7917 17.4251
" />
<path d="M20.7917 17.4251
L20.7440 17.3774
" />
<path d="M20.7440 17.3774
L20.6488 17.3298
" />
<path d="M20.6488 17.3298
L20.4107 17.3298
" />
<path d="M20.4107 17.3298
L20.2679 17.3774
" />
<path d="M19.9345 17.3298
L19.6964 18.3298
" />
<path d="M19.6964 18.3298
L19.5060 17.6155
" />
<path d="M19.5060 17.6155
L19.3155 18.3298
" />
<path d="M19.3155 18.3298
L19.0774 17.3298
" />
<path d="M18.9345 18.4251
L18.1726 18.4251
" />
<path d="M17.9345 18.3298
L17.9345 17.3298
" />
<path d="M17.9345 17.3298
L17.6012 18.0441
" />
<path d="M17.6012 18.0441
L17.2679 17.3298
" />
<path d="M17.2679 17.3298
L17.2679 18.3298
" />
<path d="M16.8869 17.3298
L16.2202 18.3298
" />
<path d="M16.2202 17.3298
L16.8869 18.3298
" />
<path d="M16.0774 18.4251
L15.3155 18.4251
" />
<path d="M14.5060 18.2346
L14.5536 18.2822
" />
<path d="M14.5536 18.2822
L14.6964 18.3298
" />
<path d="M14.6964 18.3298
L14.7917 18.3298
" />
<path d="M14.7917 18.3298
L14.9345 18.2822
" />
<path d="M14.9345 18.2822
L15.0298 18.1870
" />
<path d="M15.0298 18.1870
L15.0774 18.0917
" />
<path d="M15.0774 18.0917
L15.1250 17.9012
" />
<path d="M15.1250 17.9012
L15.1250 17.7584
" />
<path d="M15.1250 17.7584
L15.0774 17.5679
" />
<path d="M15.0774 17.5679
L15.0298 17.4727
" />
<path d="M15.0298 17.4727
L14.9345 17.3774
" />
<path d="M14.9345 17.3774
L14.7917 17.3298
" />
<path d="M14.7917 17.3298
L14.6964 17.3298
" />
<path d="M14.6964 17.3298
L14.5536 17.3774
" />
<path d="M14.5536 17.3774
L14.5060 17.4251
" />
<path d="M14.0774 18.3298
L14.0774 17.3298
" />
<path d="M13.6488 18.3298
L13.6488 17.8060
" />
<path d="M13.6488 17.8060
L13.6964 17.7108
" />
<path d="M13.6964 17.7108
L13.7917 17.6632
" />
<path d="M13.7917 17.6632
L13.9345 17.6632
" />
<path d="M13.9345 17.6632
L14.0298 17.7108
" />
<path d="M14.0298 17.7108
L14.0774 17.7584
" />
<path d="M13.0298 18.3298
L13.1250 18.2822
" />
<path d="M13.1250 18.2822
L13.1726 18.2346
" />
<path d="M13.1726 18.2346
L13.2202 18.1393
" />
<path d="M13.2202 18.1393
L13.2202 17.8536
" />
<path d="M13.2202 17.8536
L13.1726 17.7584
" />
<path d="M13.1726 17.7584
L13.1250 17.7108
" />
<path d="M13.1250 17.7108
L13.0298 17.6632
" />
<path d="M13.0298 17.6632
L12.8869 17.6632
" />
<path d="M12.8869 17.6632
L12.7917 17.7108
" />
<path d="M12.7917 17.7108
L12.7440 17.7584
" />
<path d="M12.7440 17.7584
L12.6964 17.8536
" />
<path d="M12.6964 17.8536
L12.6964 18.1393
" />
<path d="M12.6964 18.1393
L12.7440 18.2346
" />
<path d="M12.7440 18.2346
L12.7917 18.2822
" />
<path d="M12.7917 18.2822
L12.8869 18.3298
" />
<path d="M12.8869 18.3298
L13.0298 18.3298
" />
<path d="M11.8393 18.2822
L11.9345 18.3298
" />
<path d="M11.9345 18.3298
L12.1250 18.3298
" />
<path d="M12.1250 18.3298
L12.2202 18.2822
" />
<path d="M12.2202 18.2822
L12.2679 18.2346
" />
<path d="M12.2679 18.2346
L12.3155 18.1393
" />
<path d="M12.3155 18.1393
L12.3155 17.8536
" />
<path d="M12.3155 17.8536
L12.2679 17.7584
" />
<path d="M12.2679 17.7584
L12.2202 17.7108
" />
<path d="M12.2202 17.7108
L12.1250 17.6632
" />
<path d="M12.1250 17.6632
L11.9345 17.6632
" />
<path d="M11.9345 17.6632
L11.8393 17.7108
" />
<path d="M11.6488 18.4251
L10.8869 18.4251
" />
<path d="M10.6488 18.3298
L10.6488 17.3298
" />
<path d="M10.6488 17.8060
L10.0774 17.8060
" />
<path d="M10.0774 18.3298
L10.0774 17.3298
" />
<path d="M9.4583 18.3298
L9.5536 18.2822
" />
<path d="M9.5536 18.2822
L9.6012 18.2346
" />
<path d="M9.6012 18.2346
L9.6488 18.1393
" />
<path d="M9.6488 18.1393
L9.6488 17.8536
" />
<path d="M9.6488 17.8536
L9.6012 17.7584
" />
<path d="M9.6012 17.7584
L9.5536 17.7108
" />
<path d="M9.5536 17.7108
L9.4583 17.6632
" />
<path d="M9.4583 17.6632
L9.3155 17.6632
" />
<path d="M9.3155 17.6632
L9.2202 17.7108
" />
<path d="M9.2202 17.7108
L9.1726 17.7584
" />
<path d="M9.1726 17.7584
L9.1250 17.8536
" />
<path d="M9.1250 17.8536
L9.1250 18.1393
" />
<path d="M9.1250 18.1393
L9.1726 18.2346
" />
<path d="M9.1726 18.2346
L9.2202 18.2822
" />
<path d="M9.2202 18.2822
L9.3155 18.3298
" />
<path d="M9.3155 18.3298
L9.4583 18.3298
" />
<path d="M8.8393 17.6632
L8.4583 17.6632
" />
<path d="M8.6964 17.3298
L8.6964 18.1870
" />
<path d="M8.6964 18.1870
L8.6488 18.2822
" />
<path d="M8.6488 18.2822
L8.5536 18.3298
" />
<path d="M8.5536 18.3298
L8.4583 18.3298
" />
<path d="M8.1726 18.2822
L8.0298 18.3298
" />
<path d="M8.0298 18.3298
L7.7917 18.3298
" />
<path d="M7.7917 18.3298
L7.6964 18.2822
" />
<path d="M7.6964 18.2822
L7.6488 18.2346
" />
<path d="M7.6488 18.2346
L7.6012 18.1393
" />
<path d="M7.6012 18.1393
L7.6012 18.0441
" />
<path d="M7.6012 18.0441
L7.6488 17.9489
" />
<path d="M7.6488 17.9489
L7.6964 17.9012
" />
<path d="M7.6964 17.9012
L7.7917 17.8536
" />
<path d="M7.7917 17.8536
L7.9821 17.8060
" />
<path d="M7.9821 17.8060
L8.0774 17.7584
" />
<path d="M8.0774 17.7584
L8.1250 17.7108
" />
<path d="M8.1250 17.7108
L8.1726 17.6155
" />
<path d="M8.1726 17.6155
L8.1726 17.5203
" />
<path d="M8.1726 17.5203
L8.1250 17.4251
" />
<path d="M8.1250 17.4251
L8.0774 17.3774
" />
<path d="M8.0774 17.3774
L7.9821 17.3298
" />
<path d="M7.9821 17.3298
L7.7440 17.3298
" />
<path d="M7.7440 17.3298
L7.6012 17.3774
" />
<path d="M7.2679 17.6632
L7.0774 18.3298
" />
<path d="M7.0774 18.3298
L6.8869 17.8536
" />
<path d="M6.8869 17.8536
L6.6964 18.3298
" />
<path d="M6.6964 18.3298
L6.5060 17.6632
" />
<path d="M5.6964 18.3298
L5.6964 17.8060
" />
<path d="M5.6964 17.8060
L5.7440 17.7108
" />
<path d="M5.7440 17.7108
L5.8393 17.6632
" />
<path d="M5.8393 17.6632
L6.0298 17.6632
" />
<path d="M6.0298 17.6632
L6.1250 17.7108
" />
<path d="M5.6964 18.2822
L5.7917 18.3298
" />
<path d="M5.7917 18.3298
L6.0298 18.3298
" />
<path d="M6.0298 18.3298
L6.1250 18.2822
" />
<path d="M6.1250 18.2822
L6.1726 18.1870
" />
<path d="M6.1726 18.1870
L6.1726 18.0917
" />
<path d="M6.1726 18.0917
L6.1250 17.9965
" />
<path d="M6.1250 17.9965
L6.0298 17.9489
" />
<path d="M6.0298 17.9489
L5.7917 17.9489
" />
<path d="M5.7917 17.9489
L5.6964 17.9012
" />
<path d="M5.2202 17.6632
L5.2202 18.6632
" />
<path d="M5.2202 17.7108
L5.1250 17.6632
" />
<path d="M5.1250 17.6632
L4.9345 17.6632
" />
<path d="M4.9345 17.6632
L4.8393 17.7108
" />
<path d="M4.8393 17.7108
L4.7917 17.7584
" />
<path d="M4.7917 17.7584
L4.7440 17.8536
" />
<path d="M4.7440 17.8536
L4.7440 18.1393
" />
<path d="M4.7440 18.1393
L4.7917 18.2346
" />
<path d="M4.7917 18.2346
L4.8393 18.2822
" />
<path d="M4.8393 18.2822
L4.9345 18.3298
" />
<path d="M4.9345 18.3298
L5.1250 18.3298
" />
<path d="M5.1250 18.3298
L5.2202 18.2822
" />
<path d="M4.5536 18.4251
L3.7917 18.4251
" />
<path d="M3.5536 17.6632
L3.5536 18.3298
" />
<path d="M3.5536 17.7584
L3.5060 17.7108
" />
<path d="M3.5060 17.7108
L3.4107 17.6632
" />
<path d="M3.4107 17.6632
L3.2679 17.6632
" />
<path d="M3.2679 17.6632
L3.1726 17.7108
" />
<path d="M3.1726 17.7108
L3.1250 17.8060
" />
<path d="M3.1250 17.8060
L3.1250 18.3298
" />
<path d="M2.6964 18.2822
L2.5536 18.3298
" />
<path d="M2.5536 18.3298
L2.3155 18.3298
" />
<path d="M2.3155 18.3298
L2.2202 18.2822
" />
<path d="M2.2202 18.2822
L2.1726 18.2346
" />
<path d="M2.1726 18.2346
L2.1250 18.1393
" />
<path d="M2.1250 18.1393
L2.1250 18.0441
" />
<path d="M2.1250 18.0441
L2.1726 17.9489
" />
<path d="M2.1726 17.9489
L2.2202 17.9012
" />
<path d="M2.2202 17.9012
L2.3155 17.8536
" />
<path d="M2.3155 17.8536
L2.5060 17.8060
" />
<path d="M2.5060 17.8060
L2.6012 17.7584
" />
<path d="M2.6012 17.7584
L2.6488 17.7108
" />
<path d="M2.6488 17.7108
L2.6964 17.6155
" />
<path d="M2.6964 17.6155
L2.6964 17.5203
" />
<path d="M2.6964 17.5203
L2.6488 17.4251
" />
<path d="M2.6488 17.4251
L2.6012 17.3774
" />
<path d="M2.6012 17.3774
L2.5060 17.3298
" />
<path d="M2.5060 17.3298
L2.2679 17.3298
" />
<path d="M2.2679 17.3298
L2.1250 17.3774
" />
<path d="M1.6964 18.3298
L1.6964 17.6632
" />
<path d="M1.6964 17.3298
L1.7440 17.3774
" />
<path d="M1.7440 17.3774
L1.6964 17.4251
" />
<path d="M1.6964 17.4251
L1.6488 17.3774
" />
<path d="M1.6488 17.3774
L1.6964 17.3298
" />
<path d="M1.6964 17.3298
L1.6964 17.4251
" />
<path d="M1.0774 18.3298
L1.1726 18.2822
" />
<path d="M1.1726 18.2822
L1.2202 18.1870
" />
<path d="M1.2202 18.1870
L1.2202 17.3298
" />
<path d="M0.6964 18.3298
L0.6964 17.3298
" />
<path d="M0.6012 17.9489
L0.3155 18.3298
" />
<path d="M0.3155 17.6632
L0.6964 18.0441
" />
</g><text x="10.5774" y="19.9750"
transform="scale(-1 1) translate(-21.154764 0)"
textLength="4.5357" font-size="1.3333" lengthAdjust="spacingAndGlyphs"
text-anchor="middle" opacity="0" stroke-opacity="0">REF**</text>
<g class="stroked-text"><desc>REF**</desc>
<path d="M11.9107 19.9298
L12.2440 19.4536
" />
<path d="M12.4821 19.9298
L12.4821 18.9298
" />
<path d="M12.4821 18.9298
L12.1012 18.9298
" />
<path d="M12.1012 18.9298
L12.0060 18.9774
" />
<path d="M12.0060 18.9774
L11.9583 19.0251
" />
<path d="M11.9583 19.0251
L11.9107 19.1203
" />
<path d="M11.9107 19.1203
L11.9107 19.2632
" />
<path d="M11.9107 19.2632
L11.9583 19.3584
" />
<path d="M11.9583 19.3584
L12.0060 19.4060
" />
<path d="M12.0060 19.4060
L12.1012 19.4536
" />
<path d="M12.1012 19.4536
L12.4821 19.4536
" />
<path d="M11.4821 19.4060
L11.1488 19.4060
" />
<path d="M11.0060 19.9298
L11.4821 19.9298
" />
<path d="M11.4821 19.9298
L11.4821 18.9298
" />
<path d="M11.4821 18.9298
L11.0060 18.9298
" />
<path d="M10.2440 19.4060
L10.5774 19.4060
" />
<path d="M10.5774 19.9298
L10.5774 18.9298
" />
<path d="M10.5774 18.9298
L10.1012 18.9298
" />
<path d="M9.5774 18.9298
L9.5774 19.1679
" />
<path d="M9.8155 19.0727
L9.5774 19.1679
" />
<path d="M9.5774 19.1679
L9.3393 19.0727
" />
<path d="M9.7202 19.3584
L9.5774 19.1679
" />
<path d="M9.5774 19.1679
L9.4345 19.3584
" />
<path d="M8.8155 18.9298
L8.8155 19.1679
" />
<path d="M9.0536 19.0727
L8.8155 19.1679
" />
<path d="M8.8155 19.1679
L8.5774 19.0727
" />
<path d="M8.9583 19.3584
L8.8155 19.1679
" />
<path d="M8.8155 19.1679
L8.6726 19.3584
" />
</g></g>
<g style="fill:none; 
stroke:#585D84; stroke-width:0.1000; stroke-opacity:1; 
stroke-linecap:round; stroke-linejoin:round;">
<path d="M0.9974 12.0550
L3.3274 12.0550
" />
<path d="M0.9974 14.5950
L0.9974 12.0550
" />
<path d="M1.6874 5.7650
L4.2274 5.7650
" />
<path d="M1.6874 8.3050
L1.6874 5.7650
" />
<path d="M3.3274 11.0500
L3.3274 14.9000
" />
<path d="M3.3274 11.0500
L7.1814 11.0500
" />
<path d="M3.3274 14.5950
L0.9974 14.5950
" />
<path d="M4.1274 15.7000
L7.1274 15.7000
" />
<path d="M4.2274 8.3050
L1.6874 8.3050
" />
<path d="M4.2274 8.9400
L4.2274 5.1300
" />
<path d="M4.2274 8.9400
L8.0374 8.9400
" />
<path d="M6.7674 2.5900
L15.6574 2.5900
" />
<path d="M8.1274 17.0500
L8.1274 16.7000
" />
<path d="M8.1274 17.0500
L8.9274 17.8500
" />
<path d="M12.0774 13.2000
L10.2774 13.2000
" />
<path d="M12.0774 13.2000
L12.8774 14.0000
" />
<path d="M12.0774 17.8500
L8.9274 17.8500
" />
<path d="M12.8774 14.0000
L12.8774 17.0500
" />
<path d="M12.8774 14.2550
L15.1524 14.2550
" />
<path d="M12.8774 17.0500
L12.0774 17.8500
" />
<path d="M15.1524 14.2550
L15.1524 16.7950
" />
<path d="M15.1524 16.7950
L12.8774 16.7950
" />
<path d="M15.6574 2.5900
L15.6574 7.0350
" />
<path d="M15.6574 3.2250
L18.1974 3.2250
" />
<path d="M15.6574 7.0350
L10.5774 7.0350
" />
<path d="M18.1974 3.2250
L18.1974 5.7650
" />
<path d="M18.1974 5.7650
L15.6574 5.7650
" />
<path d="M3.3274 14.9000 A0.8000 0.8000 0.0 0 0 4.1274 15.7000" />
<path d="M6.7674 2.5900 A2.5400 2.5400 0.0 0 0 4.2274 5.1300" />
<path d="M8.1274 16.7000 A1.0000 1.0000 0.0 0 0 7.1274 15.7000" />
<path d="M8.1171 11.7080 A1.0000 1.0000 0.0 0 0 7.1774 11.0500" />
<path d="M10.5774 7.0350 A2.5400 2.5400 0.0 0 0 8.1132 8.9590" />
<path d="M8.1219 11.7079 A2.6255 2.6255 0.0 0 0 10.2774 13.2000" />
</g>
<g style="fill:none; 
stroke:#585D84; stroke-width:0.0212; stroke-opacity:1; 
stroke-linecap:round; stroke-linejoin:round;">
<circle cx="5.4974" cy="9.5750" r="0.8500" /> 
</g>
<g style="fill:none; 
stroke:#585D84; stroke-width:0.0212; stroke-opacity:1; 
stroke-linecap:round; stroke-linejoin:round;">
<circle cx="5.5774" cy="13.3250" r="1.5000" /> 
</g>
<g style="fill:none; 
stroke:#585D84; stroke-width:0.0212; stroke-opacity:1; 
stroke-linecap:round; stroke-linejoin:round;">
<circle cx="6.7674" cy="7.0350" r="1.5000" /> 
</g>
<g style="fill:none; 
stroke:#585D84; stroke-width:0.0212; stroke-opacity:1; 
stroke-linecap:round; stroke-linejoin:round;">
<circle cx="10.5774" cy="9.5750" r="2.0000" /> 
</g>
<g style="fill:none; 
stroke:#585D84; stroke-width:0.0212; stroke-opacity:1; 
stroke-linecap:round; stroke-linejoin:round;">
<circle cx="10.5774" cy="15.5250" r="1.5000" /> 
</g>
<g style="fill:none; 
stroke:#585D84; stroke-width:0.0212; stroke-opacity:1; 
stroke-linecap:round; stroke-linejoin:round;">
<circle cx="13.1174" cy="4.4950" r="1.5000" /> 
</g>
<g style="fill:none; 
stroke:#585D84; stroke-width:0.0212; stroke-opacity:1; 
stroke-linecap:round; stroke-linejoin:round;">
<circle cx="15.6574" cy="9.5750" r="0.8500" /> 
</g>
<g style="fill:none; 
stroke:#585D84; stroke-width:0.0708; stroke-opacity:1; 
stroke-linecap:round; stroke-linejoin:round;">
<text x="2.3274" y="13.7500"
textLength="0.8520" font-size="1.1333" lengthAdjust="spacingAndGlyphs"
text-anchor="middle" opacity="0" stroke-opacity="0">1</text>
<g class="stroked-text"><desc>1</desc>
<path d="M2.5702 13.7145
L2.0845 13.7145
" />
<path d="M2.3274 13.7145
L2.3274 12.8645
" />
<path d="M2.3274 12.8645
L2.2464 12.9860
" />
<path d="M2.2464 12.9860
L2.1655 13.0669
" />
<path d="M2.1655 13.0669
L2.0845 13.1074
" />
</g><path style="fill:none; 
stroke:#585D84; stroke-width:0.0212; stroke-opacity:1; 
stroke-linecap:round; stroke-linejoin:round;fill:none"
d="M 3.6024,14.3250
3.5834,14.4207
3.5292,14.5018
3.4481,14.5560
3.3524,14.5750
1.3024,14.5750
1.2067,14.5560
1.1256,14.5018
1.0714,14.4207
1.0524,14.3250
1.0524,12.3250
1.0714,12.2293
1.1256,12.1482
1.2067,12.0940
1.3024,12.0750
3.3524,12.0750
3.4481,12.0940
3.5292,12.1482
3.5834,12.2293
3.6024,12.3250
Z" /> 
</g>
<g style="fill:none; 
stroke:#585D84; stroke-width:0.0708; stroke-opacity:1; 
stroke-linecap:round; stroke-linejoin:round;">
<text x="3.0174" y="7.4600"
textLength="0.8520" font-size="1.1333" lengthAdjust="spacingAndGlyphs"
text-anchor="middle" opacity="0" stroke-opacity="0">1</text>
<g class="stroked-text"><desc>1</desc>
<path d="M3.2602 7.4245
L2.7745 7.4245
" />
<path d="M3.0174 7.4245
L3.0174 6.5745
" />
<path d="M3.0174 6.5745
L2.9364 6.6960
" />
<path d="M2.9364 6.6960
L2.8555 6.7769
" />
<path d="M2.8555 6.7769
L2.7745 6.8174
" />
</g><path style="fill:none; 
stroke:#585D84; stroke-width:0.0212; stroke-opacity:1; 
stroke-linecap:round; stroke-linejoin:round;fill:none"
d="M 4.2924,8.0350
4.2734,8.1307
4.2192,8.2118
4.1381,8.2660
4.0424,8.2850
1.9924,8.2850
1.8967,8.2660
1.8156,8.2118
1.7614,8.1307
1.7424,8.0350
1.7424,6.0350
1.7614,5.9393
1.8156,5.8582
1.8967,5.8040
1.9924,5.7850
4.0424,5.7850
4.1381,5.8040
4.2192,5.8582
4.2734,5.9393
4.2924,6.0350
Z" /> 
</g>
<g style="fill:none; 
stroke:#585D84; stroke-width:0.0708; stroke-opacity:1; 
stroke-linecap:round; stroke-linejoin:round;">
<text x="13.8224" y="15.9500"
textLength="0.8520" font-size="1.1333" lengthAdjust="spacingAndGlyphs"
text-anchor="middle" opacity="0" stroke-opacity="0">2</text>
<g class="stroked-text"><desc>2</desc>
<path d="M13.5795 15.1455
L13.6200 15.1050
" />
<path d="M13.6200 15.1050
L13.7010 15.0645
" />
<path d="M13.7010 15.0645
L13.9033 15.0645
" />
<path d="M13.9033 15.0645
L13.9843 15.1050
" />
<path d="M13.9843 15.1050
L14.0248 15.1455
" />
<path d="M14.0248 15.1455
L14.0652 15.2264
" />
<path d="M14.0652 15.2264
L14.0652 15.3074
" />
<path d="M14.0652 15.3074
L14.0248 15.4288
" />
<path d="M14.0248 15.4288
L13.5390 15.9145
" />
<path d="M13.5390 15.9145
L14.0652 15.9145
" />
</g><path style="fill:none; 
stroke:#585D84; stroke-width:0.0212; stroke-opacity:1; 
stroke-linecap:round; stroke-linejoin:round;fill:none"
d="M 15.0974,16.5250
15.0784,16.6207
15.0242,16.7018
14.9431,16.7560
14.8474,16.7750
12.7974,16.7750
12.7017,16.7560
12.6206,16.7018
12.5664,16.6207
12.5474,16.5250
12.5474,14.5250
12.5664,14.4293
12.6206,14.3482
12.7017,14.2940
12.7974,14.2750
14.8474,14.2750
14.9431,14.2940
15.0242,14.3482
15.0784,14.4293
15.0974,14.5250
Z" /> 
</g>
<g style="fill:none; 
stroke:#585D84; stroke-width:0.0708; stroke-opacity:1; 
stroke-linecap:round; stroke-linejoin:round;">
<text x="16.8674" y="4.9200"
textLength="0.8520" font-size="1.1333" lengthAdjust="spacingAndGlyphs"
text-anchor="middle" opacity="0" stroke-opacity="0">2</text>
<g class="stroked-text"><desc>2</desc>
<path d="M16.6245 4.1155
L16.6650 4.0750
" />
<path d="M16.6650 4.0750
L16.7460 4.0345
" />
<path d="M16.7460 4.0345
L16.9483 4.0345
" />
<path d="M16.9483 4.0345
L17.0293 4.0750
" />
<path d="M17.0293 4.0750
L17.0698 4.1155
" />
<path d="M17.0698 4.1155
L17.1102 4.1964
" />
<path d="M17.1102 4.1964
L17.1102 4.2774
" />
<path d="M17.1102 4.2774
L17.0698 4.3988
" />
<path d="M17.0698 4.3988
L16.5840 4.8845
" />
<path d="M16.5840 4.8845
L17.1102 4.8845
" />
</g><path style="fill:none; 
stroke:#585D84; stroke-width:0.0212; stroke-opacity:1; 
stroke-linecap:round; stroke-linejoin:round;fill:none"
d="M 18.1424,5.4950
18.1234,5.5907
18.0692,5.6718
17.9881,5.7260
17.8924,5.7450
15.8424,5.7450
15.7467,5.7260
15.6656,5.6718
15.6114,5.5907
15.5924,5.4950
15.5924,3.4950
15.6114,3.3993
15.6656,3.3182
15.7467,3.2640
15.8424,3.2450
17.8924,3.2450
17.9881,3.2640
18.0692,3.3182
18.1234,3.3993
18.1424,3.4950
Z" /> 
<path style="fill:none; 
stroke:#AFAFAF; stroke-width:0.1000; stroke-opacity:1; 
stroke-linecap:round; stroke-linejoin:round;fill:none"
d="M 3.5774,2.5750
17.5774,2.5750
17.5774,16.5750
3.5774,16.5750
Z" /> 
</g>
<g style="fill:none; 
stroke:#AFAFAF; stroke-width:0.0212; stroke-opacity:1; 
stroke-linecap:round; stroke-linejoin:round;">
<circle cx="5.4974" cy="9.5750" r="0.8500" /> 
</g>
<g style="fill:none; 
stroke:#AFAFAF; stroke-width:0.0212; stroke-opacity:1; 
stroke-linecap:round; stroke-linejoin:round;">
<circle cx="5.5774" cy="13.3250" r="1.5000" /> 
</g>
<g style="fill:none; 
stroke:#AFAFAF; stroke-width:0.0212; stroke-opacity:1; 
stroke-linecap:round; stroke-linejoin:round;">
<circle cx="6.7674" cy="7.0350" r="1.5000" /> 
</g>
<g style="fill:none; 
stroke:#AFAFAF; stroke-width:0.0212; stroke-opacity:1; 
stroke-linecap:round; stroke-linejoin:round;">
<circle cx="10.5774" cy="9.5750" r="2.0000" /> 
</g>
<g style="fill:none; 
stroke:#AFAFAF; stroke-width:0.0212; stroke-opacity:1; 
stroke-linecap:round; stroke-linejoin:round;">
<circle cx="10.5774" cy="15.5250" r="1.5000" /> 
</g>
<g style="fill:none; 
stroke:#AFAFAF; stroke-width:0.0212; stroke-opacity:1; 
stroke-linecap:round; stroke-linejoin:round;">
<circle cx="13.1174" cy="4.4950" r="1.5000" /> 
</g>
<g style="fill:none; 
stroke:#AFAFAF; stroke-width:0.0212; stroke-opacity:1; 
stroke-linecap:round; stroke-linejoin:round;">
<circle cx="15.6574" cy="9.5750" r="0.8500" /> 
<path style="fill:none; 
stroke:#C2C2C2; stroke-width:0.1000; stroke-opacity:1; 
stroke-linecap:round; stroke-linejoin:round;fill:none"
d="M 1.0524,0.0500
20.1024,0.0500
20.1024,19.1000
1.0524,19.1000
Z" /> 
</g> 
</svg>
