<?xml version="1.0" standalone="no"?>
 <!DOCTYPE svg PUBLIC "-//W3C//DTD SVG 1.1//EN" 
 "http://www.w3.org/Graphics/SVG/1.1/DTD/svg11.dtd"> 
<svg
  xmlns:svg="http://www.w3.org/2000/svg"
  xmlns="http://www.w3.org/2000/svg"
  xmlns:xlink="http://www.w3.org/1999/xlink"
  version="1.1"
  width="19.1262mm" height="20.2946mm" viewBox="0.0000 0.0000 19.1262 20.2946">
<title>SVG Image created as SW_MX_THT.svg date 2025/05/13 13:29:23 </title>
  <desc>Image generated by PCBNEW </desc>
<g style="fill:#000000; fill-opacity:1.0000;stroke:#000000; stroke-opacity:1.0000;
stroke-linecap:round; stroke-linejoin:round;"
 transform="translate(0 0) scale(1 1)">
</g>
<g style="fill:none; 
stroke:#E8B2A7; stroke-width:0.1500; stroke-opacity:1; 
stroke-linecap:round; stroke-linejoin:round;">
<text x="9.5750" y="7.0750"
transform="scale(-1 1) translate(-19.150000 0)"
textLength="4.5357" font-size="1.3333" lengthAdjust="spacingAndGlyphs"
text-anchor="middle" opacity="0" stroke-opacity="0">REF**</text>
<g class="stroked-text"><desc>REF**</desc>
<path d="M10.9083 7.0298
L11.2417 6.5536
" />
<path d="M11.4798 7.0298
L11.4798 6.0298
" />
<path d="M11.4798 6.0298
L11.0988 6.0298
" />
<path d="M11.0988 6.0298
L11.0036 6.0774
" />
<path d="M11.0036 6.0774
L10.9560 6.1251
" />
<path d="M10.9560 6.1251
L10.9083 6.2203
" />
<path d="M10.9083 6.2203
L10.9083 6.3632
" />
<path d="M10.9083 6.3632
L10.9560 6.4584
" />
<path d="M10.9560 6.4584
L11.0036 6.5060
" />
<path d="M11.0036 6.5060
L11.0988 6.5536
" />
<path d="M11.0988 6.5536
L11.4798 6.5536
" />
<path d="M10.4798 6.5060
L10.1464 6.5060
" />
<path d="M10.0036 7.0298
L10.4798 7.0298
" />
<path d="M10.4798 7.0298
L10.4798 6.0298
" />
<path d="M10.4798 6.0298
L10.0036 6.0298
" />
<path d="M9.2417 6.5060
L9.5750 6.5060
" />
<path d="M9.5750 7.0298
L9.5750 6.0298
" />
<path d="M9.5750 6.0298
L9.0988 6.0298
" />
<path d="M8.5750 6.0298
L8.5750 6.2679
" />
<path d="M8.8131 6.1727
L8.5750 6.2679
" />
<path d="M8.5750 6.2679
L8.3369 6.1727
" />
<path d="M8.7179 6.4584
L8.5750 6.2679
" />
<path d="M8.5750 6.2679
L8.4321 6.4584
" />
<path d="M7.8131 6.0298
L7.8131 6.2679
" />
<path d="M8.0512 6.1727
L7.8131 6.2679
" />
<path d="M7.8131 6.2679
L7.5750 6.1727
" />
<path d="M7.9560 6.4584
L7.8131 6.2679
" />
<path d="M7.8131 6.2679
L7.6702 6.4584
" />
</g></g>
<g style="fill:none; 
stroke:#F2EDA1; stroke-width:0.1200; stroke-opacity:1; 
stroke-linecap:round; stroke-linejoin:round;">
<path d="M2.4750 2.4750
L2.4750 3.4750
" />
<path d="M2.4750 16.6750
L2.4750 15.6750
" />
<path d="M2.4750 16.6750
L3.4750 16.6750
" />
<path d="M3.4750 2.4750
L2.4750 2.4750
" />
<path d="M15.6750 16.6750
L16.6750 16.6750
" />
<path d="M16.6750 2.4750
L15.6750 2.4750
" />
<path d="M16.6750 3.4750
L16.6750 2.4750
" />
<path d="M16.6750 16.6750
L16.6750 15.6750
" />
</g>
<g style="fill:#4D7FC4; fill-opacity:1.0000; stroke:none;">
<circle cx="12.1150" cy="4.4950" r="1.1500" /> 
</g>
<g style="fill:#4D7FC4; fill-opacity:1.0000; stroke:none;">
<circle cx="5.7650" cy="7.0350" r="1.1500" /> 
</g>
<g style="fill:#C83434; fill-opacity:1.0000; stroke:none;">
<circle cx="12.1150" cy="4.4950" r="1.1500" /> 
</g>
<g style="fill:#C83434; fill-opacity:1.0000; stroke:none;">
<circle cx="5.7650" cy="7.0350" r="1.1500" /> 
<path style="fill:none; 
stroke:#585D84; stroke-width:0.1000; stroke-opacity:1; 
stroke-linecap:round; stroke-linejoin:round;fill:none"
d="M 7.8250,13.1550
11.3250,13.1550
11.3250,16.1550
7.8250,16.1550
Z" /> 
</g>
<g style="fill:none; 
stroke:#585D84; stroke-width:0.0212; stroke-opacity:1; 
stroke-linecap:round; stroke-linejoin:round;">
<circle cx="4.4950" cy="9.5750" r="0.8500" /> 
</g>
<g style="fill:none; 
stroke:#585D84; stroke-width:0.0212; stroke-opacity:1; 
stroke-linecap:round; stroke-linejoin:round;">
<circle cx="9.5750" cy="9.5750" r="2.0000" /> 
</g>
<g style="fill:none; 
stroke:#585D84; stroke-width:0.0212; stroke-opacity:1; 
stroke-linecap:round; stroke-linejoin:round;">
<circle cx="14.6550" cy="9.5750" r="0.8500" /> 
</g>
<g style="fill:none; 
stroke:#585D84; stroke-width:0.0639; stroke-opacity:1; 
stroke-linecap:round; stroke-linejoin:round;">
<text x="12.1150" y="4.8783"
textLength="0.7685" font-size="1.0222" lengthAdjust="spacingAndGlyphs"
text-anchor="middle" opacity="0" stroke-opacity="0">1</text>
<g class="stroked-text"><desc>1</desc>
<path d="M12.3340 4.8464
L11.8960 4.8464
" />
<path d="M12.1150 4.8464
L12.1150 4.0797
" />
<path d="M12.1150 4.0797
L12.0420 4.1892
" />
<path d="M12.0420 4.1892
L11.9690 4.2622
" />
<path d="M11.9690 4.2622
L11.8960 4.2987
" />
</g></g>
<g style="fill:none; 
stroke:#585D84; stroke-width:0.0212; stroke-opacity:1; 
stroke-linecap:round; stroke-linejoin:round;">
<circle cx="12.1150" cy="4.4950" r="1.1500" /> 
</g>
<g style="fill:none; 
stroke:#585D84; stroke-width:0.0639; stroke-opacity:1; 
stroke-linecap:round; stroke-linejoin:round;">
<text x="5.7650" y="7.4183"
textLength="0.7685" font-size="1.0222" lengthAdjust="spacingAndGlyphs"
text-anchor="middle" opacity="0" stroke-opacity="0">2</text>
<g class="stroked-text"><desc>2</desc>
<path d="M5.5460 6.6927
L5.5825 6.6562
" />
<path d="M5.5825 6.6562
L5.6555 6.6197
" />
<path d="M5.6555 6.6197
L5.8380 6.6197
" />
<path d="M5.8380 6.6197
L5.9110 6.6562
" />
<path d="M5.9110 6.6562
L5.9475 6.6927
" />
<path d="M5.9475 6.6927
L5.9840 6.7657
" />
<path d="M5.9840 6.7657
L5.9840 6.8387
" />
<path d="M5.9840 6.8387
L5.9475 6.9483
" />
<path d="M5.9475 6.9483
L5.5094 7.3864
" />
<path d="M5.5094 7.3864
L5.9840 7.3864
" />
</g></g>
<g style="fill:none; 
stroke:#585D84; stroke-width:0.0212; stroke-opacity:1; 
stroke-linecap:round; stroke-linejoin:round;">
<circle cx="5.7650" cy="7.0350" r="1.1500" /> 
</g>
<g style="fill:none; 
stroke:#AFAFAF; stroke-width:0.1500; stroke-opacity:1; 
stroke-linecap:round; stroke-linejoin:round;">
<text x="9.5750" y="18.3500"
textLength="8.5357" font-size="1.3333" lengthAdjust="spacingAndGlyphs"
text-anchor="middle" opacity="0" stroke-opacity="0">SW_MX_THT</text>
<g class="stroked-text"><desc>SW_MX_THT</desc>
<path d="M5.6226 18.2572
L5.7655 18.3048
" />
<path d="M5.7655 18.3048
L6.0036 18.3048
" />
<path d="M6.0036 18.3048
L6.0988 18.2572
" />
<path d="M6.0988 18.2572
L6.1464 18.2096
" />
<path d="M6.1464 18.2096
L6.1940 18.1143
" />
<path d="M6.1940 18.1143
L6.1940 18.0191
" />
<path d="M6.1940 18.0191
L6.1464 17.9239
" />
<path d="M6.1464 17.9239
L6.0988 17.8762
" />
<path d="M6.0988 17.8762
L6.0036 17.8286
" />
<path d="M6.0036 17.8286
L5.8131 17.7810
" />
<path d="M5.8131 17.7810
L5.7179 17.7334
" />
<path d="M5.7179 17.7334
L5.6702 17.6858
" />
<path d="M5.6702 17.6858
L5.6226 17.5905
" />
<path d="M5.6226 17.5905
L5.6226 17.4953
" />
<path d="M5.6226 17.4953
L5.6702 17.4001
" />
<path d="M5.6702 17.4001
L5.7179 17.3524
" />
<path d="M5.7179 17.3524
L5.8131 17.3048
" />
<path d="M5.8131 17.3048
L6.0512 17.3048
" />
<path d="M6.0512 17.3048
L6.1940 17.3524
" />
<path d="M6.5274 17.3048
L6.7655 18.3048
" />
<path d="M6.7655 18.3048
L6.9560 17.5905
" />
<path d="M6.9560 17.5905
L7.1464 18.3048
" />
<path d="M7.1464 18.3048
L7.3845 17.3048
" />
<path d="M7.5274 18.4001
L8.2893 18.4001
" />
<path d="M8.5274 18.3048
L8.5274 17.3048
" />
<path d="M8.5274 17.3048
L8.8607 18.0191
" />
<path d="M8.8607 18.0191
L9.1940 17.3048
" />
<path d="M9.1940 17.3048
L9.1940 18.3048
" />
<path d="M9.5750 17.3048
L10.2417 18.3048
" />
<path d="M10.2417 17.3048
L9.5750 18.3048
" />
<path d="M10.3845 18.4001
L11.1464 18.4001
" />
<path d="M11.2417 17.3048
L11.8131 17.3048
" />
<path d="M11.5274 18.3048
L11.5274 17.3048
" />
<path d="M12.1464 18.3048
L12.1464 17.3048
" />
<path d="M12.1464 17.7810
L12.7179 17.7810
" />
<path d="M12.7179 18.3048
L12.7179 17.3048
" />
<path d="M13.0512 17.3048
L13.6226 17.3048
" />
<path d="M13.3369 18.3048
L13.3369 17.3048
" />
</g><text x="9.5750" y="19.9500"
textLength="4.5357" font-size="1.3333" lengthAdjust="spacingAndGlyphs"
text-anchor="middle" opacity="0" stroke-opacity="0">REF**</text>
<g class="stroked-text"><desc>REF**</desc>
<path d="M8.2417 19.9048
L7.9083 19.4286
" />
<path d="M7.6702 19.9048
L7.6702 18.9048
" />
<path d="M7.6702 18.9048
L8.0512 18.9048
" />
<path d="M8.0512 18.9048
L8.1464 18.9524
" />
<path d="M8.1464 18.9524
L8.1940 19.0001
" />
<path d="M8.1940 19.0001
L8.2417 19.0953
" />
<path d="M8.2417 19.0953
L8.2417 19.2382
" />
<path d="M8.2417 19.2382
L8.1940 19.3334
" />
<path d="M8.1940 19.3334
L8.1464 19.3810
" />
<path d="M8.1464 19.3810
L8.0512 19.4286
" />
<path d="M8.0512 19.4286
L7.6702 19.4286
" />
<path d="M8.6702 19.3810
L9.0036 19.3810
" />
<path d="M9.1464 19.9048
L8.6702 19.9048
" />
<path d="M8.6702 19.9048
L8.6702 18.9048
" />
<path d="M8.6702 18.9048
L9.1464 18.9048
" />
<path d="M9.9083 19.3810
L9.5750 19.3810
" />
<path d="M9.5750 19.9048
L9.5750 18.9048
" />
<path d="M9.5750 18.9048
L10.0512 18.9048
" />
<path d="M10.5750 18.9048
L10.5750 19.1429
" />
<path d="M10.3369 19.0477
L10.5750 19.1429
" />
<path d="M10.5750 19.1429
L10.8131 19.0477
" />
<path d="M10.4321 19.3334
L10.5750 19.1429
" />
<path d="M10.5750 19.1429
L10.7179 19.3334
" />
<path d="M11.3369 18.9048
L11.3369 19.1429
" />
<path d="M11.0988 19.0477
L11.3369 19.1429
" />
<path d="M11.3369 19.1429
L11.5750 19.0477
" />
<path d="M11.1940 19.3334
L11.3369 19.1429
" />
<path d="M11.3369 19.1429
L11.4798 19.3334
" />
</g><path style="fill:none; 
stroke:#AFAFAF; stroke-width:0.1000; stroke-opacity:1; 
stroke-linecap:round; stroke-linejoin:round;fill:none"
d="M 2.5750,2.5750
16.5750,2.5750
16.5750,16.5750
2.5750,16.5750
Z" /> 
</g>
<g style="fill:none; 
stroke:#AFAFAF; stroke-width:0.0212; stroke-opacity:1; 
stroke-linecap:round; stroke-linejoin:round;">
<circle cx="4.4950" cy="9.5750" r="0.8500" /> 
</g>
<g style="fill:none; 
stroke:#AFAFAF; stroke-width:0.0212; stroke-opacity:1; 
stroke-linecap:round; stroke-linejoin:round;">
<circle cx="9.5750" cy="9.5750" r="2.0000" /> 
</g>
<g style="fill:none; 
stroke:#AFAFAF; stroke-width:0.0212; stroke-opacity:1; 
stroke-linecap:round; stroke-linejoin:round;">
<circle cx="14.6550" cy="9.5750" r="0.8500" /> 
</g>
<g style="fill:none; 
stroke:#AFAFAF; stroke-width:0.0639; stroke-opacity:1; 
stroke-linecap:round; stroke-linejoin:round;">
<text x="12.1150" y="4.8783"
textLength="0.7685" font-size="1.0222" lengthAdjust="spacingAndGlyphs"
text-anchor="middle" opacity="0" stroke-opacity="0">1</text>
<g class="stroked-text"><desc>1</desc>
<path d="M12.3340 4.8464
L11.8960 4.8464
" />
<path d="M12.1150 4.8464
L12.1150 4.0797
" />
<path d="M12.1150 4.0797
L12.0420 4.1892
" />
<path d="M12.0420 4.1892
L11.9690 4.2622
" />
<path d="M11.9690 4.2622
L11.8960 4.2987
" />
</g></g>
<g style="fill:none; 
stroke:#AFAFAF; stroke-width:0.0212; stroke-opacity:1; 
stroke-linecap:round; stroke-linejoin:round;">
<circle cx="12.1150" cy="4.4950" r="1.1500" /> 
</g>
<g style="fill:none; 
stroke:#AFAFAF; stroke-width:0.0639; stroke-opacity:1; 
stroke-linecap:round; stroke-linejoin:round;">
<text x="5.7650" y="7.4183"
textLength="0.7685" font-size="1.0222" lengthAdjust="spacingAndGlyphs"
text-anchor="middle" opacity="0" stroke-opacity="0">2</text>
<g class="stroked-text"><desc>2</desc>
<path d="M5.5460 6.6927
L5.5825 6.6562
" />
<path d="M5.5825 6.6562
L5.6555 6.6197
" />
<path d="M5.6555 6.6197
L5.8380 6.6197
" />
<path d="M5.8380 6.6197
L5.9110 6.6562
" />
<path d="M5.9110 6.6562
L5.9475 6.6927
" />
<path d="M5.9475 6.6927
L5.9840 6.7657
" />
<path d="M5.9840 6.7657
L5.9840 6.8387
" />
<path d="M5.9840 6.8387
L5.9475 6.9483
" />
<path d="M5.9475 6.9483
L5.5094 7.3864
" />
<path d="M5.5094 7.3864
L5.9840 7.3864
" />
</g></g>
<g style="fill:none; 
stroke:#AFAFAF; stroke-width:0.0212; stroke-opacity:1; 
stroke-linecap:round; stroke-linejoin:round;">
<circle cx="5.7650" cy="7.0350" r="1.1500" /> 
<path style="fill:none; 
stroke:#C2C2C2; stroke-width:0.1000; stroke-opacity:1; 
stroke-linecap:round; stroke-linejoin:round;fill:none"
d="M 0.0500,0.0500
19.1000,0.0500
19.1000,19.1000
0.0500,19.1000
Z" /> 
</g> 
</svg>
