<?xml version="1.0" standalone="no"?>
 <!DOCTYPE svg PUBLIC "-//W3C//DTD SVG 1.1//EN" 
 "http://www.w3.org/Graphics/SVG/1.1/DTD/svg11.dtd"> 
<svg
  xmlns:svg="http://www.w3.org/2000/svg"
  xmlns="http://www.w3.org/2000/svg"
  xmlns:xlink="http://www.w3.org/1999/xlink"
  version="1.1"
  width="20.0406mm" height="20.3200mm" viewBox="0.0000 0.0000 20.0406 20.3200">
<title>SVG Image created as SW_MX_HotSwap_THT_nSilk.svg date 2025/04/12 02:58:43 </title>
  <desc>Image generated by PCBNEW </desc>
<g style="fill:#000000; fill-opacity:1.0000;stroke:#000000; stroke-opacity:1.0000;
stroke-linecap:round; stroke-linejoin:round;"
 transform="translate(0 0) scale(1 1)">
</g>
<g style="fill:none; 
stroke:#F2EDA1; stroke-width:0.1500; stroke-opacity:1; 
stroke-linecap:round; stroke-linejoin:round;">
<text x="10.0298" y="7.0750"
textLength="4.5357" font-size="1.3333" lengthAdjust="spacingAndGlyphs"
text-anchor="middle" opacity="0" stroke-opacity="0">REF**</text>
<g class="stroked-text"><desc>REF**</desc>
<path d="M8.6964 7.0298
L8.3631 6.5536
" />
<path d="M8.1250 7.0298
L8.1250 6.0298
" />
<path d="M8.1250 6.0298
L8.5060 6.0298
" />
<path d="M8.5060 6.0298
L8.6012 6.0774
" />
<path d="M8.6012 6.0774
L8.6488 6.1251
" />
<path d="M8.6488 6.1251
L8.6964 6.2203
" />
<path d="M8.6964 6.2203
L8.6964 6.3632
" />
<path d="M8.6964 6.3632
L8.6488 6.4584
" />
<path d="M8.6488 6.4584
L8.6012 6.5060
" />
<path d="M8.6012 6.5060
L8.5060 6.5536
" />
<path d="M8.5060 6.5536
L8.1250 6.5536
" />
<path d="M9.1250 6.5060
L9.4583 6.5060
" />
<path d="M9.6012 7.0298
L9.1250 7.0298
" />
<path d="M9.1250 7.0298
L9.1250 6.0298
" />
<path d="M9.1250 6.0298
L9.6012 6.0298
" />
<path d="M10.3631 6.5060
L10.0298 6.5060
" />
<path d="M10.0298 7.0298
L10.0298 6.0298
" />
<path d="M10.0298 6.0298
L10.5060 6.0298
" />
<path d="M11.0298 6.0298
L11.0298 6.2679
" />
<path d="M10.7917 6.1727
L11.0298 6.2679
" />
<path d="M11.0298 6.2679
L11.2679 6.1727
" />
<path d="M10.8869 6.4584
L11.0298 6.2679
" />
<path d="M11.0298 6.2679
L11.1726 6.4584
" />
<path d="M11.7917 6.0298
L11.7917 6.2679
" />
<path d="M11.5536 6.1727
L11.7917 6.2679
" />
<path d="M11.7917 6.2679
L12.0298 6.1727
" />
<path d="M11.6488 6.4584
L11.7917 6.2679
" />
<path d="M11.7917 6.2679
L11.9345 6.4584
" />
</g></g>
<g style="fill:none; 
stroke:#F2EDA1; stroke-width:0.1200; stroke-opacity:1; 
stroke-linecap:round; stroke-linejoin:round;">
<path d="M3.6798 10.5650
L3.6798 10.2100
" />
<path d="M3.6798 14.0200
L3.6798 13.6650
" />
<path d="M4.0298 10.2100
L3.6798 10.2100
" />
<path d="M6.2198 16.5600
L15.1098 16.5600
" />
<path d="M7.5656 10.2100
L5.8388 10.2100
" />
<path d="M15.1098 12.1150
L10.0298 12.1150
" />
<path d="M15.1098 12.1150
L15.1098 13.1050
" />
<path d="M15.1098 16.5600
L15.1098 16.2050
" />
<path d="M3.6798 14.0200 A2.5400 2.5400 0.0 0 0 6.2198 16.5600" />
<path d="M7.5701 10.2088 A2.5400 2.5400 0.0 0 0 10.0298 12.1150" />
<path style="fill:#B4A09A; fill-opacity:0.9000; stroke:none;fill-rule:evenodd;"
d="M 3.7448,13.1150
3.7257,13.2107
3.6715,13.2918
3.5904,13.3460
3.4948,13.3650
1.4448,13.3650
1.3491,13.3460
1.2680,13.2918
1.2138,13.2107
1.1948,13.1150
1.1948,11.1150
1.2138,11.0193
1.2680,10.9382
1.3491,10.8840
1.4448,10.8650
3.4948,10.8650
3.5904,10.8840
3.6715,10.9382
3.7257,11.0193
3.7448,11.1150
Z" /> 
<path style="fill:#B4A09A; fill-opacity:0.9000; stroke:none;fill-rule:evenodd;"
d="M 17.5948,15.6550
17.5757,15.7507
17.5215,15.8318
17.4404,15.8860
17.3448,15.9050
15.2948,15.9050
15.1991,15.8860
15.1180,15.8318
15.0638,15.7507
15.0448,15.6550
15.0448,13.6550
15.0638,13.5593
15.1180,13.4782
15.1991,13.4240
15.2948,13.4050
17.3448,13.4050
17.4404,13.4240
17.5215,13.4782
17.5757,13.5593
17.5948,13.6550
Z" /> 
</g>
<g style="fill:#4D7FC4; fill-opacity:1.0000; stroke:none;">
<circle cx="7.4898" cy="4.4950" r="1.1500" /> 
</g>
<g style="fill:#4D7FC4; fill-opacity:1.0000; stroke:none;">
<circle cx="13.8398" cy="7.0350" r="1.1500" /> 
<path style="fill:#C83434; fill-opacity:1.0000; stroke:none;fill-rule:evenodd;"
d="M 3.7448,13.1150
3.7257,13.2107
3.6715,13.2918
3.5904,13.3460
3.4948,13.3650
1.4448,13.3650
1.3491,13.3460
1.2680,13.2918
1.2138,13.2107
1.1948,13.1150
1.1948,11.1150
1.2138,11.0193
1.2680,10.9382
1.3491,10.8840
1.4448,10.8650
3.4948,10.8650
3.5904,10.8840
3.6715,10.9382
3.7257,11.0193
3.7448,11.1150
Z" /> 
</g>
<g style="fill:#C83434; fill-opacity:1.0000; stroke:none;">
<circle cx="7.4898" cy="4.4950" r="1.1500" /> 
</g>
<g style="fill:#C83434; fill-opacity:1.0000; stroke:none;">
<circle cx="13.8398" cy="7.0350" r="1.1500" /> 
<path style="fill:#C83434; fill-opacity:1.0000; stroke:none;fill-rule:evenodd;"
d="M 17.5948,15.6550
17.5757,15.7507
17.5215,15.8318
17.4404,15.8860
17.3448,15.9050
15.2948,15.9050
15.1991,15.8860
15.1180,15.8318
15.0638,15.7507
15.0448,15.6550
15.0448,13.6550
15.0638,13.5593
15.1180,13.4782
15.1991,13.4240
15.2948,13.4050
17.3448,13.4050
17.4404,13.4240
17.5215,13.4782
17.5757,13.5593
17.5948,13.6550
Z" /> 
<path style="fill:none; 
stroke:#585D84; stroke-width:0.0500; stroke-opacity:1; 
stroke-linecap:round; stroke-linejoin:round;fill:none"
d="M 3.0298,2.5750
17.0298,2.5750
17.0298,16.5750
3.0298,16.5750
Z" /> 
</g>
<g style="fill:none; 
stroke:#585D84; stroke-width:0.0212; stroke-opacity:1; 
stroke-linecap:round; stroke-linejoin:round;">
<circle cx="4.9498" cy="9.5750" r="0.8500" /> 
</g>
<g style="fill:none; 
stroke:#585D84; stroke-width:0.0212; stroke-opacity:1; 
stroke-linecap:round; stroke-linejoin:round;">
<circle cx="6.2198" cy="12.1150" r="1.5000" /> 
</g>
<g style="fill:none; 
stroke:#585D84; stroke-width:0.0212; stroke-opacity:1; 
stroke-linecap:round; stroke-linejoin:round;">
<circle cx="10.0298" cy="9.5750" r="2.0000" /> 
</g>
<g style="fill:none; 
stroke:#585D84; stroke-width:0.0212; stroke-opacity:1; 
stroke-linecap:round; stroke-linejoin:round;">
<circle cx="12.5698" cy="14.6550" r="1.5000" /> 
</g>
<g style="fill:none; 
stroke:#585D84; stroke-width:0.0212; stroke-opacity:1; 
stroke-linecap:round; stroke-linejoin:round;">
<circle cx="15.1098" cy="9.5750" r="0.8500" /> 
</g>
<g style="fill:none; 
stroke:#585D84; stroke-width:0.0639; stroke-opacity:1; 
stroke-linecap:round; stroke-linejoin:round;">
<text x="7.4898" y="4.8783"
textLength="0.7685" font-size="1.0222" lengthAdjust="spacingAndGlyphs"
text-anchor="middle" opacity="0" stroke-opacity="0">1</text>
<g class="stroked-text"><desc>1</desc>
<path d="M7.7088 4.8464
L7.2707 4.8464
" />
<path d="M7.4898 4.8464
L7.4898 4.0797
" />
<path d="M7.4898 4.0797
L7.4167 4.1892
" />
<path d="M7.4167 4.1892
L7.3437 4.2622
" />
<path d="M7.3437 4.2622
L7.2707 4.2987
" />
</g></g>
<g style="fill:none; 
stroke:#585D84; stroke-width:0.0212; stroke-opacity:1; 
stroke-linecap:round; stroke-linejoin:round;">
<circle cx="7.4898" cy="4.4950" r="1.1500" /> 
</g>
<g style="fill:none; 
stroke:#585D84; stroke-width:0.0639; stroke-opacity:1; 
stroke-linecap:round; stroke-linejoin:round;">
<text x="13.8398" y="7.4183"
textLength="0.7685" font-size="1.0222" lengthAdjust="spacingAndGlyphs"
text-anchor="middle" opacity="0" stroke-opacity="0">2</text>
<g class="stroked-text"><desc>2</desc>
<path d="M13.6207 6.6927
L13.6572 6.6562
" />
<path d="M13.6572 6.6562
L13.7302 6.6197
" />
<path d="M13.7302 6.6197
L13.9128 6.6197
" />
<path d="M13.9128 6.6197
L13.9858 6.6562
" />
<path d="M13.9858 6.6562
L14.0223 6.6927
" />
<path d="M14.0223 6.6927
L14.0588 6.7657
" />
<path d="M14.0588 6.7657
L14.0588 6.8387
" />
<path d="M14.0588 6.8387
L14.0223 6.9483
" />
<path d="M14.0223 6.9483
L13.5842 7.3864
" />
<path d="M13.5842 7.3864
L14.0588 7.3864
" />
</g></g>
<g style="fill:none; 
stroke:#585D84; stroke-width:0.0212; stroke-opacity:1; 
stroke-linecap:round; stroke-linejoin:round;">
<circle cx="13.8398" cy="7.0350" r="1.1500" /> 
</g>
<g style="fill:none; 
stroke:#AFAFAF; stroke-width:0.1500; stroke-opacity:1; 
stroke-linecap:round; stroke-linejoin:round;">
<text x="10.0298" y="18.3750"
textLength="20.0595" font-size="1.3333" lengthAdjust="spacingAndGlyphs"
text-anchor="middle" opacity="0" stroke-opacity="0">SW_MX_HotSwap_THT_nSilk</text>
<g class="stroked-text"><desc>SW_MX_HotSwap_THT_nSilk</desc>
<path d="M0.3155 18.2822
L0.4583 18.3298
" />
<path d="M0.4583 18.3298
L0.6964 18.3298
" />
<path d="M0.6964 18.3298
L0.7917 18.2822
" />
<path d="M0.7917 18.2822
L0.8393 18.2346
" />
<path d="M0.8393 18.2346
L0.8869 18.1393
" />
<path d="M0.8869 18.1393
L0.8869 18.0441
" />
<path d="M0.8869 18.0441
L0.8393 17.9489
" />
<path d="M0.8393 17.9489
L0.7917 17.9012
" />
<path d="M0.7917 17.9012
L0.6964 17.8536
" />
<path d="M0.6964 17.8536
L0.5060 17.8060
" />
<path d="M0.5060 17.8060
L0.4107 17.7584
" />
<path d="M0.4107 17.7584
L0.3631 17.7108
" />
<path d="M0.3631 17.7108
L0.3155 17.6155
" />
<path d="M0.3155 17.6155
L0.3155 17.5203
" />
<path d="M0.3155 17.5203
L0.3631 17.4251
" />
<path d="M0.3631 17.4251
L0.4107 17.3774
" />
<path d="M0.4107 17.3774
L0.5060 17.3298
" />
<path d="M0.5060 17.3298
L0.7440 17.3298
" />
<path d="M0.7440 17.3298
L0.8869 17.3774
" />
<path d="M1.2202 17.3298
L1.4583 18.3298
" />
<path d="M1.4583 18.3298
L1.6488 17.6155
" />
<path d="M1.6488 17.6155
L1.8393 18.3298
" />
<path d="M1.8393 18.3298
L2.0774 17.3298
" />
<path d="M2.2202 18.4251
L2.9821 18.4251
" />
<path d="M3.2202 18.3298
L3.2202 17.3298
" />
<path d="M3.2202 17.3298
L3.5536 18.0441
" />
<path d="M3.5536 18.0441
L3.8869 17.3298
" />
<path d="M3.8869 17.3298
L3.8869 18.3298
" />
<path d="M4.2679 17.3298
L4.9345 18.3298
" />
<path d="M4.9345 17.3298
L4.2679 18.3298
" />
<path d="M5.0774 18.4251
L5.8393 18.4251
" />
<path d="M6.0774 18.3298
L6.0774 17.3298
" />
<path d="M6.0774 17.8060
L6.6488 17.8060
" />
<path d="M6.6488 18.3298
L6.6488 17.3298
" />
<path d="M7.2679 18.3298
L7.1726 18.2822
" />
<path d="M7.1726 18.2822
L7.1250 18.2346
" />
<path d="M7.1250 18.2346
L7.0774 18.1393
" />
<path d="M7.0774 18.1393
L7.0774 17.8536
" />
<path d="M7.0774 17.8536
L7.1250 17.7584
" />
<path d="M7.1250 17.7584
L7.1726 17.7108
" />
<path d="M7.1726 17.7108
L7.2679 17.6632
" />
<path d="M7.2679 17.6632
L7.4107 17.6632
" />
<path d="M7.4107 17.6632
L7.5060 17.7108
" />
<path d="M7.5060 17.7108
L7.5536 17.7584
" />
<path d="M7.5536 17.7584
L7.6012 17.8536
" />
<path d="M7.6012 17.8536
L7.6012 18.1393
" />
<path d="M7.6012 18.1393
L7.5536 18.2346
" />
<path d="M7.5536 18.2346
L7.5060 18.2822
" />
<path d="M7.5060 18.2822
L7.4107 18.3298
" />
<path d="M7.4107 18.3298
L7.2679 18.3298
" />
<path d="M7.8869 17.6632
L8.2679 17.6632
" />
<path d="M8.0298 17.3298
L8.0298 18.1870
" />
<path d="M8.0298 18.1870
L8.0774 18.2822
" />
<path d="M8.0774 18.2822
L8.1726 18.3298
" />
<path d="M8.1726 18.3298
L8.2679 18.3298
" />
<path d="M8.5536 18.2822
L8.6964 18.3298
" />
<path d="M8.6964 18.3298
L8.9345 18.3298
" />
<path d="M8.9345 18.3298
L9.0298 18.2822
" />
<path d="M9.0298 18.2822
L9.0774 18.2346
" />
<path d="M9.0774 18.2346
L9.1250 18.1393
" />
<path d="M9.1250 18.1393
L9.1250 18.0441
" />
<path d="M9.1250 18.0441
L9.0774 17.9489
" />
<path d="M9.0774 17.9489
L9.0298 17.9012
" />
<path d="M9.0298 17.9012
L8.9345 17.8536
" />
<path d="M8.9345 17.8536
L8.7440 17.8060
" />
<path d="M8.7440 17.8060
L8.6488 17.7584
" />
<path d="M8.6488 17.7584
L8.6012 17.7108
" />
<path d="M8.6012 17.7108
L8.5536 17.6155
" />
<path d="M8.5536 17.6155
L8.5536 17.5203
" />
<path d="M8.5536 17.5203
L8.6012 17.4251
" />
<path d="M8.6012 17.4251
L8.6488 17.3774
" />
<path d="M8.6488 17.3774
L8.7440 17.3298
" />
<path d="M8.7440 17.3298
L8.9821 17.3298
" />
<path d="M8.9821 17.3298
L9.1250 17.3774
" />
<path d="M9.4583 17.6632
L9.6488 18.3298
" />
<path d="M9.6488 18.3298
L9.8393 17.8536
" />
<path d="M9.8393 17.8536
L10.0298 18.3298
" />
<path d="M10.0298 18.3298
L10.2202 17.6632
" />
<path d="M11.0298 18.3298
L11.0298 17.8060
" />
<path d="M11.0298 17.8060
L10.9821 17.7108
" />
<path d="M10.9821 17.7108
L10.8869 17.6632
" />
<path d="M10.8869 17.6632
L10.6964 17.6632
" />
<path d="M10.6964 17.6632
L10.6012 17.7108
" />
<path d="M11.0298 18.2822
L10.9345 18.3298
" />
<path d="M10.9345 18.3298
L10.6964 18.3298
" />
<path d="M10.6964 18.3298
L10.6012 18.2822
" />
<path d="M10.6012 18.2822
L10.5536 18.1870
" />
<path d="M10.5536 18.1870
L10.5536 18.0917
" />
<path d="M10.5536 18.0917
L10.6012 17.9965
" />
<path d="M10.6012 17.9965
L10.6964 17.9489
" />
<path d="M10.6964 17.9489
L10.9345 17.9489
" />
<path d="M10.9345 17.9489
L11.0298 17.9012
" />
<path d="M11.5060 17.6632
L11.5060 18.6632
" />
<path d="M11.5060 17.7108
L11.6012 17.6632
" />
<path d="M11.6012 17.6632
L11.7917 17.6632
" />
<path d="M11.7917 17.6632
L11.8869 17.7108
" />
<path d="M11.8869 17.7108
L11.9345 17.7584
" />
<path d="M11.9345 17.7584
L11.9821 17.8536
" />
<path d="M11.9821 17.8536
L11.9821 18.1393
" />
<path d="M11.9821 18.1393
L11.9345 18.2346
" />
<path d="M11.9345 18.2346
L11.8869 18.2822
" />
<path d="M11.8869 18.2822
L11.7917 18.3298
" />
<path d="M11.7917 18.3298
L11.6012 18.3298
" />
<path d="M11.6012 18.3298
L11.5060 18.2822
" />
<path d="M12.1726 18.4251
L12.9345 18.4251
" />
<path d="M13.0298 17.3298
L13.6012 17.3298
" />
<path d="M13.3155 18.3298
L13.3155 17.3298
" />
<path d="M13.9345 18.3298
L13.9345 17.3298
" />
<path d="M13.9345 17.8060
L14.5060 17.8060
" />
<path d="M14.5060 18.3298
L14.5060 17.3298
" />
<path d="M14.8393 17.3298
L15.4107 17.3298
" />
<path d="M15.1250 18.3298
L15.1250 17.3298
" />
<path d="M15.5060 18.4251
L16.2679 18.4251
" />
<path d="M16.5060 17.6632
L16.5060 18.3298
" />
<path d="M16.5060 17.7584
L16.5536 17.7108
" />
<path d="M16.5536 17.7108
L16.6488 17.6632
" />
<path d="M16.6488 17.6632
L16.7917 17.6632
" />
<path d="M16.7917 17.6632
L16.8869 17.7108
" />
<path d="M16.8869 17.7108
L16.9345 17.8060
" />
<path d="M16.9345 17.8060
L16.9345 18.3298
" />
<path d="M17.3631 18.2822
L17.5060 18.3298
" />
<path d="M17.5060 18.3298
L17.7440 18.3298
" />
<path d="M17.7440 18.3298
L17.8393 18.2822
" />
<path d="M17.8393 18.2822
L17.8869 18.2346
" />
<path d="M17.8869 18.2346
L17.9345 18.1393
" />
<path d="M17.9345 18.1393
L17.9345 18.0441
" />
<path d="M17.9345 18.0441
L17.8869 17.9489
" />
<path d="M17.8869 17.9489
L17.8393 17.9012
" />
<path d="M17.8393 17.9012
L17.7440 17.8536
" />
<path d="M17.7440 17.8536
L17.5536 17.8060
" />
<path d="M17.5536 17.8060
L17.4583 17.7584
" />
<path d="M17.4583 17.7584
L17.4107 17.7108
" />
<path d="M17.4107 17.7108
L17.3631 17.6155
" />
<path d="M17.3631 17.6155
L17.3631 17.5203
" />
<path d="M17.3631 17.5203
L17.4107 17.4251
" />
<path d="M17.4107 17.4251
L17.4583 17.3774
" />
<path d="M17.4583 17.3774
L17.5536 17.3298
" />
<path d="M17.5536 17.3298
L17.7917 17.3298
" />
<path d="M17.7917 17.3298
L17.9345 17.3774
" />
<path d="M18.3631 18.3298
L18.3631 17.6632
" />
<path d="M18.3631 17.3298
L18.3155 17.3774
" />
<path d="M18.3155 17.3774
L18.3631 17.4251
" />
<path d="M18.3631 17.4251
L18.4107 17.3774
" />
<path d="M18.4107 17.3774
L18.3631 17.3298
" />
<path d="M18.3631 17.3298
L18.3631 17.4251
" />
<path d="M18.9821 18.3298
L18.8869 18.2822
" />
<path d="M18.8869 18.2822
L18.8393 18.1870
" />
<path d="M18.8393 18.1870
L18.8393 17.3298
" />
<path d="M19.3631 18.3298
L19.3631 17.3298
" />
<path d="M19.4583 17.9489
L19.7440 18.3298
" />
<path d="M19.7440 17.6632
L19.3631 18.0441
" />
</g><text x="10.0298" y="19.9750"
textLength="4.5357" font-size="1.3333" lengthAdjust="spacingAndGlyphs"
text-anchor="middle" opacity="0" stroke-opacity="0">REF**</text>
<g class="stroked-text"><desc>REF**</desc>
<path d="M8.6964 19.9298
L8.3631 19.4536
" />
<path d="M8.1250 19.9298
L8.1250 18.9298
" />
<path d="M8.1250 18.9298
L8.5060 18.9298
" />
<path d="M8.5060 18.9298
L8.6012 18.9774
" />
<path d="M8.6012 18.9774
L8.6488 19.0251
" />
<path d="M8.6488 19.0251
L8.6964 19.1203
" />
<path d="M8.6964 19.1203
L8.6964 19.2632
" />
<path d="M8.6964 19.2632
L8.6488 19.3584
" />
<path d="M8.6488 19.3584
L8.6012 19.4060
" />
<path d="M8.6012 19.4060
L8.5060 19.4536
" />
<path d="M8.5060 19.4536
L8.1250 19.4536
" />
<path d="M9.1250 19.4060
L9.4583 19.4060
" />
<path d="M9.6012 19.9298
L9.1250 19.9298
" />
<path d="M9.1250 19.9298
L9.1250 18.9298
" />
<path d="M9.1250 18.9298
L9.6012 18.9298
" />
<path d="M10.3631 19.4060
L10.0298 19.4060
" />
<path d="M10.0298 19.9298
L10.0298 18.9298
" />
<path d="M10.0298 18.9298
L10.5060 18.9298
" />
<path d="M11.0298 18.9298
L11.0298 19.1679
" />
<path d="M10.7917 19.0727
L11.0298 19.1679
" />
<path d="M11.0298 19.1679
L11.2679 19.0727
" />
<path d="M10.8869 19.3584
L11.0298 19.1679
" />
<path d="M11.0298 19.1679
L11.1726 19.3584
" />
<path d="M11.7917 18.9298
L11.7917 19.1679
" />
<path d="M11.5536 19.0727
L11.7917 19.1679
" />
<path d="M11.7917 19.1679
L12.0298 19.0727
" />
<path d="M11.6488 19.3584
L11.7917 19.1679
" />
<path d="M11.7917 19.1679
L11.9345 19.3584
" />
</g></g>
<g style="fill:none; 
stroke:#AFAFAF; stroke-width:0.1200; stroke-opacity:1; 
stroke-linecap:round; stroke-linejoin:round;">
<path d="M1.1398 10.8450
L1.1398 13.3850
" />
<path d="M1.1398 13.3850
L3.6798 13.3850
" />
<path d="M3.6798 10.2100
L3.6798 14.0200
" />
<path d="M3.6798 10.2100
L7.4898 10.2100
" />
<path d="M3.6798 10.8450
L1.1398 10.8450
" />
<path d="M6.2198 16.5600
L15.1098 16.5600
" />
<path d="M15.1098 12.1150
L10.0298 12.1150
" />
<path d="M15.1098 15.9250
L17.6498 15.9250
" />
<path d="M15.1098 16.5600
L15.1098 12.1150
" />
<path d="M17.6498 13.3850
L15.1098 13.3850
" />
<path d="M17.6498 15.9250
L17.6498 13.3850
" />
<path d="M3.6798 14.0200 A2.5400 2.5400 0.0 0 0 6.2198 16.5600" />
<path d="M7.5656 10.1910 A2.5400 2.5400 0.0 0 0 10.0298 12.1150" />
</g>
<g style="fill:none; 
stroke:#AFAFAF; stroke-width:0.0212; stroke-opacity:1; 
stroke-linecap:round; stroke-linejoin:round;">
<circle cx="4.9498" cy="9.5750" r="0.8500" /> 
</g>
<g style="fill:none; 
stroke:#AFAFAF; stroke-width:0.0212; stroke-opacity:1; 
stroke-linecap:round; stroke-linejoin:round;">
<circle cx="6.2198" cy="12.1150" r="1.5000" /> 
</g>
<g style="fill:none; 
stroke:#AFAFAF; stroke-width:0.0212; stroke-opacity:1; 
stroke-linecap:round; stroke-linejoin:round;">
<circle cx="10.0298" cy="9.5750" r="2.0000" /> 
</g>
<g style="fill:none; 
stroke:#AFAFAF; stroke-width:0.0212; stroke-opacity:1; 
stroke-linecap:round; stroke-linejoin:round;">
<circle cx="12.5698" cy="14.6550" r="1.5000" /> 
</g>
<g style="fill:none; 
stroke:#AFAFAF; stroke-width:0.0212; stroke-opacity:1; 
stroke-linecap:round; stroke-linejoin:round;">
<circle cx="15.1098" cy="9.5750" r="0.8500" /> 
</g>
<g style="fill:none; 
stroke:#AFAFAF; stroke-width:0.0708; stroke-opacity:1; 
stroke-linecap:round; stroke-linejoin:round;">
<text x="2.4698" y="12.5400"
textLength="0.8520" font-size="1.1333" lengthAdjust="spacingAndGlyphs"
text-anchor="middle" opacity="0" stroke-opacity="0">1</text>
<g class="stroked-text"><desc>1</desc>
<path d="M2.7126 12.5045
L2.2269 12.5045
" />
<path d="M2.4698 12.5045
L2.4698 11.6545
" />
<path d="M2.4698 11.6545
L2.3888 11.7760
" />
<path d="M2.3888 11.7760
L2.3079 11.8569
" />
<path d="M2.3079 11.8569
L2.2269 11.8974
" />
</g><path style="fill:none; 
stroke:#AFAFAF; stroke-width:0.0212; stroke-opacity:1; 
stroke-linecap:round; stroke-linejoin:round;fill:none"
d="M 3.7448,13.1150
3.7257,13.2107
3.6715,13.2918
3.5904,13.3460
3.4948,13.3650
1.4448,13.3650
1.3491,13.3460
1.2680,13.2918
1.2138,13.2107
1.1948,13.1150
1.1948,11.1150
1.2138,11.0193
1.2680,10.9382
1.3491,10.8840
1.4448,10.8650
3.4948,10.8650
3.5904,10.8840
3.6715,10.9382
3.7257,11.0193
3.7448,11.1150
Z" /> 
</g>
<g style="fill:none; 
stroke:#AFAFAF; stroke-width:0.0639; stroke-opacity:1; 
stroke-linecap:round; stroke-linejoin:round;">
<text x="7.4898" y="4.8783"
textLength="0.7685" font-size="1.0222" lengthAdjust="spacingAndGlyphs"
text-anchor="middle" opacity="0" stroke-opacity="0">1</text>
<g class="stroked-text"><desc>1</desc>
<path d="M7.7088 4.8464
L7.2707 4.8464
" />
<path d="M7.4898 4.8464
L7.4898 4.0797
" />
<path d="M7.4898 4.0797
L7.4167 4.1892
" />
<path d="M7.4167 4.1892
L7.3437 4.2622
" />
<path d="M7.3437 4.2622
L7.2707 4.2987
" />
</g></g>
<g style="fill:none; 
stroke:#AFAFAF; stroke-width:0.0212; stroke-opacity:1; 
stroke-linecap:round; stroke-linejoin:round;">
<circle cx="7.4898" cy="4.4950" r="1.1500" /> 
</g>
<g style="fill:none; 
stroke:#AFAFAF; stroke-width:0.0639; stroke-opacity:1; 
stroke-linecap:round; stroke-linejoin:round;">
<text x="13.8398" y="7.4183"
textLength="0.7685" font-size="1.0222" lengthAdjust="spacingAndGlyphs"
text-anchor="middle" opacity="0" stroke-opacity="0">2</text>
<g class="stroked-text"><desc>2</desc>
<path d="M13.6207 6.6927
L13.6572 6.6562
" />
<path d="M13.6572 6.6562
L13.7302 6.6197
" />
<path d="M13.7302 6.6197
L13.9128 6.6197
" />
<path d="M13.9128 6.6197
L13.9858 6.6562
" />
<path d="M13.9858 6.6562
L14.0223 6.6927
" />
<path d="M14.0223 6.6927
L14.0588 6.7657
" />
<path d="M14.0588 6.7657
L14.0588 6.8387
" />
<path d="M14.0588 6.8387
L14.0223 6.9483
" />
<path d="M14.0223 6.9483
L13.5842 7.3864
" />
<path d="M13.5842 7.3864
L14.0588 7.3864
" />
</g></g>
<g style="fill:none; 
stroke:#AFAFAF; stroke-width:0.0212; stroke-opacity:1; 
stroke-linecap:round; stroke-linejoin:round;">
<circle cx="13.8398" cy="7.0350" r="1.1500" /> 
</g>
<g style="fill:none; 
stroke:#AFAFAF; stroke-width:0.0708; stroke-opacity:1; 
stroke-linecap:round; stroke-linejoin:round;">
<text x="16.3198" y="15.0800"
textLength="0.8520" font-size="1.1333" lengthAdjust="spacingAndGlyphs"
text-anchor="middle" opacity="0" stroke-opacity="0">2</text>
<g class="stroked-text"><desc>2</desc>
<path d="M16.0769 14.2755
L16.1174 14.2350
" />
<path d="M16.1174 14.2350
L16.1983 14.1945
" />
<path d="M16.1983 14.1945
L16.4007 14.1945
" />
<path d="M16.4007 14.1945
L16.4817 14.2350
" />
<path d="M16.4817 14.2350
L16.5221 14.2755
" />
<path d="M16.5221 14.2755
L16.5626 14.3564
" />
<path d="M16.5626 14.3564
L16.5626 14.4374
" />
<path d="M16.5626 14.4374
L16.5221 14.5588
" />
<path d="M16.5221 14.5588
L16.0364 15.0445
" />
<path d="M16.0364 15.0445
L16.5626 15.0445
" />
</g><path style="fill:none; 
stroke:#AFAFAF; stroke-width:0.0212; stroke-opacity:1; 
stroke-linecap:round; stroke-linejoin:round;fill:none"
d="M 17.5948,15.6550
17.5757,15.7507
17.5215,15.8318
17.4404,15.8860
17.3448,15.9050
15.2948,15.9050
15.1991,15.8860
15.1180,15.8318
15.0638,15.7507
15.0448,15.6550
15.0448,13.6550
15.0638,13.5593
15.1180,13.4782
15.1991,13.4240
15.2948,13.4050
17.3448,13.4050
17.4404,13.4240
17.5215,13.4782
17.5757,13.5593
17.5948,13.6550
Z" /> 
<path style="fill:none; 
stroke:#C2C2C2; stroke-width:0.1000; stroke-opacity:1; 
stroke-linecap:round; stroke-linejoin:round;fill:none"
d="M 0.5048,0.0500
19.5548,0.0500
19.5548,19.1000
0.5048,19.1000
Z" /> 
</g> 
</svg>
