<svg xmlns="http://www.w3.org/2000/svg" width="74.304" height="76.8" viewBox="0 0 19.66 20.32">
    <g style="fill:none;stroke:#e8b2a7;stroke-width:.12;stroke-opacity:1;stroke-linecap:round;stroke-linejoin:round">
        <path d="M2.74 2.475h1M2.74 3.475v-1M2.74 16.675v-1M3.74 16.675h-1M15.94 2.475h1M16.94 2.475v1M16.94 16.675h-1M16.94 16.675v-1"/>
    </g>
    <g class="stroked-text" style="fill:none;stroke:#f2eda1;stroke-width:.15;stroke-opacity:1;stroke-linecap:round;stroke-linejoin:round">
        <path d="m8.506 13.03-.333-.476M7.935 13.03v-1M7.935 12.03h.38M8.316 12.03l.095.047M8.41 12.077l.048.048M8.458 12.125l.048.095M8.506 12.22v.143M8.506 12.363l-.048.095M8.458 12.458l-.047.048M8.41 12.506l-.095.048M8.316 12.554h-.382M8.935 12.506h.333M9.41 13.03h-.476M8.935 13.03v-1M8.935 12.03h.476M10.173 12.506h-.334M9.84 13.03v-1M9.84 12.03h.476M10.84 12.03v.238M10.601 12.173l.238.095M10.84 12.268l.237-.095M10.696 12.458l.143-.19M10.84 12.268l.142.19M11.601 12.03v.238M11.363 12.173l.238.095M11.601 12.268l.238-.095M11.458 12.458l.143-.19M11.601 12.268l.143.19"/>
    </g>
    <g style="fill:none;stroke:#f2eda1;stroke-width:.12;stroke-opacity:1;stroke-linecap:round;stroke-linejoin:round">
        <path d="M4.76 2.59v.355M4.76 7.035v-.99M4.76 7.035h5.08M12.303 8.94h1.727M13.65 2.59H4.76M15.84 8.94h.35M16.19 5.13v.355M16.19 8.585v.355M12.299 8.941a2.54 2.54 0 0 0-2.46-1.906M16.19 5.13a2.54 2.54 0 0 0-2.54-2.54"/>
        <path stroke="none" d="m16.128 6.035.018-.096.055-.08.08-.055.097-.019h1.3l.095.019.081.054.055.081.018.096v2l-.018.096-.055.08-.08.055-.097.019h-1.3l-.095-.019-.081-.054-.055-.081-.018-.096ZM3.021 3.495l.02-.096.053-.08.081-.055.096-.019h1.3l.096.019.08.054.055.081.02.096v2l-.02.096-.054.08-.081.055-.096.019h-1.3l-.096-.019-.08-.054-.055-.081-.019-.096Z" style="fill:#b4a09a;fill-opacity:.9;stroke:none;fill-rule:evenodd"/>
    </g>
    <circle cx="12.379" cy="14.655" r="1.15" style="fill:#4d7fc4;fill-opacity:1;stroke:none"/>
    <circle cx="6.029" cy="12.115" r="1.15" style="fill:#4d7fc4;fill-opacity:1;stroke:none"/>
    <g style="fill:#c83434;fill-opacity:1;stroke:none">
        <circle cx="12.379" cy="14.655" r="1.15"/>
        <path d="m16.128 6.035.018-.096.055-.08.08-.055.097-.019h1.3l.095.019.081.054.055.081.018.096v2l-.018.096-.055.08-.08.055-.097.019h-1.3l-.095-.019-.081-.054-.055-.081-.018-.096ZM3.021 3.495l.02-.096.053-.08.081-.055.096-.019h1.3l.096.019.08.054.055.081.02.096v2l-.02.096-.054.08-.081.055-.096.019h-1.3l-.096-.019-.08-.054-.055-.081-.019-.096Z" style="fill:#c83434;fill-opacity:1;stroke:none;fill-rule:evenodd"/>
    </g>
    <g style="fill:#c83434;fill-opacity:1;stroke:none">
        <circle cx="6.029" cy="12.115" r="1.15"/>
        <path d="M2.84 2.575h14v14h-14Z" style="stroke:#585d84;stroke-width:.1;stroke-opacity:1;stroke-linecap:round;stroke-linejoin:round;fill:none"/>
    </g>
    <circle cx="4.759" cy="9.575" r=".85" style="fill:none;stroke:#585d84;stroke-width:.0212;stroke-opacity:1;stroke-linecap:round;stroke-linejoin:round"/>
    <circle cx="7.299" cy="4.495" r="1.5" style="fill:none;stroke:#585d84;stroke-width:.0212;stroke-opacity:1;stroke-linecap:round;stroke-linejoin:round"/>
    <circle cx="9.839" cy="9.575" r="2" style="fill:none;stroke:#585d84;stroke-width:.0212;stroke-opacity:1;stroke-linecap:round;stroke-linejoin:round"/>
    <circle cx="13.649" cy="7.035" r="1.5" style="fill:none;stroke:#585d84;stroke-width:.0212;stroke-opacity:1;stroke-linecap:round;stroke-linejoin:round"/>
    <circle cx="14.919" cy="9.575" r=".85" style="fill:none;stroke:#585d84;stroke-width:.0212;stroke-opacity:1;stroke-linecap:round;stroke-linejoin:round"/>
    <g class="stroked-text" style="fill:none;stroke:#585d84;stroke-width:.0639;stroke-opacity:1;stroke-linecap:round;stroke-linejoin:round">
        <path d="M12.598 15.006h-.438M12.38 15.006v-.766M12.38 14.24l-.074.11M12.306 14.35l-.073.072M12.233 14.422l-.073.037"/>
    </g>
    <circle cx="12.379" cy="14.655" r="1.15" style="fill:none;stroke:#585d84;stroke-width:.0212;stroke-opacity:1;stroke-linecap:round;stroke-linejoin:round"/>
    <g class="stroked-text" style="fill:none;stroke:#585d84;stroke-width:.0639;stroke-opacity:1;stroke-linecap:round;stroke-linejoin:round">
        <path d="m5.81 11.773.037-.037M5.847 11.736l.073-.036M5.92 11.7h.182M6.102 11.7l.073.036M6.175 11.736l.037.037M6.212 11.773l.036.073M6.248 11.846v.073M6.248 11.919l-.036.11M6.212 12.028l-.438.438M5.774 12.466h.474"/>
    </g>
    <circle cx="6.029" cy="12.115" r="1.15" style="fill:none;stroke:#585d84;stroke-width:.0212;stroke-opacity:1;stroke-linecap:round;stroke-linejoin:round"/>
    <g style="fill:none;stroke:#afafaf;stroke-width:.15;stroke-opacity:1;stroke-linecap:round;stroke-linejoin:round">
        <g class="stroked-text">
            <path d="m.316 18.282.142.048M.458 18.33h.238M.696 18.33l.096-.048M.792 18.282l.047-.047M.84 18.235l.047-.096M.887 18.14v-.096M.887 18.044l-.048-.095M.84 17.949.791 17.9M.792 17.901l-.096-.047M.696 17.854l-.19-.048M.506 17.806l-.095-.048M.41 17.758l-.047-.047M.363 17.71l-.047-.095M.316 17.616v-.096M.316 17.52l.047-.095M.363 17.425l.048-.048M.41 17.377l.096-.047M.506 17.33h.238M.744 17.33l.143.047M1.22 17.33l.238 1M1.458 18.33l.19-.714M1.649 17.616l.19.714M1.84 18.33l.237-1M2.22 18.425h.762M3.22 18.33v-1M3.22 17.33l.334.714M3.554 18.044l.333-.714M3.887 17.33v1M4.268 17.33l.667 1M4.935 17.33l-.667 1M5.077 18.425h.762M6.03 18.282l.143.048M6.173 18.33h.238M6.41 18.33l.096-.048M6.506 18.282l.048-.047M6.554 18.235l.047-.096M6.601 18.14v-.096M6.601 18.044l-.047-.095M6.554 17.949l-.048-.048M6.506 17.901l-.095-.047M6.41 17.854l-.19-.048M6.22 17.806l-.095-.048M6.125 17.758l-.048-.047M6.077 17.71l-.047-.095M6.03 17.616v-.096M6.03 17.52l.047-.095M6.077 17.425l.048-.048M6.125 17.377l.095-.047M6.22 17.33h.238M6.458 17.33l.143.047M7.173 18.33l-.096-.048M7.077 18.282l-.047-.095M7.03 18.187v-.857M7.554 18.33v-.667M7.554 17.33l-.048.047M7.506 17.377l.048.048M7.554 17.425l.047-.048M7.601 17.377l-.047-.047M7.554 17.33v.095M8.03 18.33v-.667M8.03 17.758l.047-.047M8.077 17.71l.096-.047M8.173 17.663h.143M8.316 17.663l.095.048M8.41 17.71l.048.096M8.458 17.806v.524M8.458 17.806l.048-.095M8.506 17.71l.095-.047M8.601 17.663h.143M8.744 17.663l.095.048M8.84 17.71l.047.096M8.887 17.806v.524M9.125 18.425h.762M10.125 18.33v-1M10.125 17.806h.571M10.696 18.33v-1M11.316 18.33l-.096-.048M11.22 18.282l-.047-.047M11.173 18.235l-.048-.096M11.125 18.14v-.286M11.125 17.854l.048-.096M11.173 17.758l.047-.047M11.22 17.71l.095-.047M11.316 17.663h.142M11.458 17.663l.096.048M11.554 17.71l.047.048M11.601 17.758l.048.096M11.649 17.854v.285M11.649 18.14l-.048.095M11.601 18.235l-.047.047M11.554 18.282l-.096.048M11.458 18.33h-.143M11.935 17.663h.38M12.077 17.33v.857M12.077 18.187l.048.095M12.125 18.282l.095.048M12.22 18.33h.095M12.601 18.282l.143.048M12.744 18.33h.238M12.982 18.33l.095-.048M13.077 18.282l.048-.047M13.125 18.235l.048-.096M13.173 18.14v-.096M13.173 18.044l-.048-.095M13.125 17.949l-.048-.048M13.077 17.901l-.095-.047M12.982 17.854l-.19-.048M12.792 17.806l-.096-.048M12.696 17.758l-.047-.047M12.649 17.71l-.048-.095M12.601 17.616v-.096M12.601 17.52l.048-.095M12.649 17.425l.047-.048M12.696 17.377l.096-.047M12.792 17.33h.238M13.03 17.33l.143.047M13.506 17.663l.19.667M13.696 18.33l.19-.476M13.887 17.854l.19.476M14.077 18.33l.19-.667M15.077 18.33v-.524M15.077 17.806l-.047-.095M15.03 17.71l-.095-.047M14.935 17.663h-.191M14.744 17.663l-.095.048M15.077 18.282l-.095.048M14.982 18.33h-.238M14.744 18.33l-.095-.048M14.649 18.282l-.048-.095M14.601 18.187v-.095M14.601 18.092l.048-.095M14.649 17.997l.095-.048M14.744 17.949h.238M14.982 17.949l.095-.048M15.554 17.663v1M15.554 17.71l.095-.047M15.649 17.663h.19M15.84 17.663l.095.048M15.935 17.71l.047.048M15.982 17.758l.048.096M16.03 17.854v.285M16.03 18.14l-.048.095M15.982 18.235l-.047.047M15.935 18.282l-.096.048M15.84 18.33h-.191M15.649 18.33l-.095-.048M16.22 18.425h.762M17.077 17.33h.572M17.363 18.33v-1M17.982 18.33v-1M17.982 17.806h.572M18.554 18.33v-1M18.887 17.33h.571M19.173 18.33v-1"/>
        </g>
        <g class="stroked-text">
            <path d="m8.506 19.93-.333-.476M7.935 19.93v-1M7.935 18.93h.38M8.316 18.93l.095.047M8.41 18.977l.048.048M8.458 19.025l.048.095M8.506 19.12v.143M8.506 19.263l-.048.095M8.458 19.358l-.047.048M8.41 19.406l-.095.048M8.316 19.454h-.382M8.935 19.406h.333M9.41 19.93h-.476M8.935 19.93v-1M8.935 18.93h.476M10.173 19.406h-.334M9.84 19.93v-1M9.84 18.93h.476M10.84 18.93v.238M10.601 19.073l.238.095M10.84 19.168l.237-.095M10.696 19.358l.143-.19M10.84 19.168l.142.19M11.601 18.93v.238M11.363 19.073l.238.095M11.601 19.168l.238-.095M11.458 19.358l.143-.19M11.601 19.168l.143.19"/>
        </g>
    </g>
    <g style="fill:none;stroke:#afafaf;stroke-width:.1;stroke-opacity:1;stroke-linecap:round;stroke-linejoin:round">
        <path d="M2.981 3.225v2.54M2.981 5.765H4.76M4.76 2.59v4.445M4.76 3.225H2.98M4.76 7.035h5.08M13.65 2.59H4.76M16.19 8.305h1.752M16.19 8.94h-3.81M16.19 8.94V5.13M17.942 5.765h-1.753M17.942 8.305v-2.54M12.303 8.959A2.54 2.54 0 0 0 9.84 7.035M16.19 5.13a2.54 2.54 0 0 0-2.54-2.54"/>
    </g>
    <circle cx="4.759" cy="9.575" r=".85" style="fill:none;stroke:#afafaf;stroke-width:.0212;stroke-opacity:1;stroke-linecap:round;stroke-linejoin:round"/>
    <circle cx="7.299" cy="4.495" r="1.5" style="fill:none;stroke:#afafaf;stroke-width:.0212;stroke-opacity:1;stroke-linecap:round;stroke-linejoin:round"/>
    <circle cx="9.839" cy="9.575" r="2" style="fill:none;stroke:#afafaf;stroke-width:.0212;stroke-opacity:1;stroke-linecap:round;stroke-linejoin:round"/>
    <circle cx="13.649" cy="7.035" r="1.5" style="fill:none;stroke:#afafaf;stroke-width:.0212;stroke-opacity:1;stroke-linecap:round;stroke-linejoin:round"/>
    <circle cx="14.919" cy="9.575" r=".85" style="fill:none;stroke:#afafaf;stroke-width:.0212;stroke-opacity:1;stroke-linecap:round;stroke-linejoin:round"/>
    <g class="stroked-text" style="fill:none;stroke:#afafaf;stroke-width:.0639;stroke-opacity:1;stroke-linecap:round;stroke-linejoin:round">
        <path d="M12.598 15.006h-.438M12.38 15.006v-.766M12.38 14.24l-.074.11M12.306 14.35l-.073.072M12.233 14.422l-.073.037"/>
    </g>
    <circle cx="12.379" cy="14.655" r="1.15" style="fill:none;stroke:#afafaf;stroke-width:.0212;stroke-opacity:1;stroke-linecap:round;stroke-linejoin:round"/>
    <g style="fill:none;stroke:#afafaf;stroke-width:.0694;stroke-opacity:1;stroke-linecap:round;stroke-linejoin:round">
        <g class="stroked-text">
            <path d="M17.41 6.797v.476M17.41 7.035h-.834M16.576 7.035l.12.08M16.695 7.114l.08.08M16.775 7.194l.04.08"/>
        </g>
        <path d="m16.128 6.035.018-.096.055-.08.08-.055.097-.019h1.3l.095.019.081.054.055.081.018.096v2l-.018.096-.055.08-.08.055-.097.019h-1.3l-.095-.019-.081-.054-.055-.081-.018-.096Z" style="stroke:#afafaf;stroke-width:.0212;stroke-opacity:1;stroke-linecap:round;stroke-linejoin:round;fill:none"/>
    </g>
    <g style="fill:none;stroke:#afafaf;stroke-width:.0694;stroke-opacity:1;stroke-linecap:round;stroke-linejoin:round">
        <g class="stroked-text">
            <path d="m3.549 4.733-.04-.04M3.51 4.693l-.04-.079M3.47 4.614v-.198M3.47 4.416l.04-.08M3.51 4.336l.039-.04M3.549 4.297l.08-.04M3.628 4.257h.08M3.708 4.257l.119.04M3.827 4.297l.476.476M4.303 4.773v-.516"/>
        </g>
        <path d="m3.021 3.495.02-.096.053-.08.081-.055.096-.019h1.3l.096.019.08.054.055.081.02.096v2l-.02.096-.054.08-.081.055-.096.019h-1.3l-.096-.019-.08-.054-.055-.081-.019-.096Z" style="stroke:#afafaf;stroke-width:.0212;stroke-opacity:1;stroke-linecap:round;stroke-linejoin:round;fill:none"/>
    </g>
    <g class="stroked-text" style="fill:none;stroke:#afafaf;stroke-width:.0639;stroke-opacity:1;stroke-linecap:round;stroke-linejoin:round">
        <path d="m5.81 11.773.037-.037M5.847 11.736l.073-.036M5.92 11.7h.182M6.102 11.7l.073.036M6.175 11.736l.037.037M6.212 11.773l.036.073M6.248 11.846v.073M6.248 11.919l-.036.11M6.212 12.028l-.438.438M5.774 12.466h.474"/>
    </g>
    <g style="fill:none;stroke:#afafaf;stroke-width:.0212;stroke-opacity:1;stroke-linecap:round;stroke-linejoin:round">
        <circle cx="6.029" cy="12.115" r="1.15"/>
        <path d="M.314.05h19.05V19.1H.314Z" style="stroke:#c2c2c2;stroke-width:.1;stroke-opacity:1;stroke-linecap:round;stroke-linejoin:round;fill:none"/>
    </g>
</svg>
