<?xml version="1.0" standalone="no"?>
 <!DOCTYPE svg PUBLIC "-//W3C//DTD SVG 1.1//EN" 
 "http://www.w3.org/Graphics/SVG/1.1/DTD/svg11.dtd"> 
<svg
  xmlns:svg="http://www.w3.org/2000/svg"
  xmlns="http://www.w3.org/2000/svg"
  xmlns:xlink="http://www.w3.org/1999/xlink"
  version="1.1"
  width="19.4056mm" height="20.3200mm" viewBox="0.0000 0.0000 19.4056 20.3200">
<title>SVG Image created as SW_MX_Choc_HotSwap.svg date 2025/04/12 02:54:52 </title>
  <desc>Image generated by PCBNEW </desc>
<g style="fill:#000000; fill-opacity:1.0000;stroke:#000000; stroke-opacity:1.0000;
stroke-linecap:round; stroke-linejoin:round;"
 transform="translate(0 0) scale(1 1)">
</g>
<g style="fill:none; 
stroke:#F2EDA1; stroke-width:0.1500; stroke-opacity:1; 
stroke-linecap:round; stroke-linejoin:round;">
<text x="11.3530" y="4.9950"
textLength="4.5357" font-size="1.3333" lengthAdjust="spacingAndGlyphs"
text-anchor="middle" opacity="0" stroke-opacity="0">REF**</text>
<g class="stroked-text"><desc>REF**</desc>
<path d="M10.0197 4.9498
L9.6863 4.4736
" />
<path d="M9.4482 4.9498
L9.4482 3.9498
" />
<path d="M9.4482 3.9498
L9.8292 3.9498
" />
<path d="M9.8292 3.9498
L9.9244 3.9974
" />
<path d="M9.9244 3.9974
L9.9720 4.0451
" />
<path d="M9.9720 4.0451
L10.0197 4.1403
" />
<path d="M10.0197 4.1403
L10.0197 4.2832
" />
<path d="M10.0197 4.2832
L9.9720 4.3784
" />
<path d="M9.9720 4.3784
L9.9244 4.4260
" />
<path d="M9.9244 4.4260
L9.8292 4.4736
" />
<path d="M9.8292 4.4736
L9.4482 4.4736
" />
<path d="M10.4482 4.4260
L10.7816 4.4260
" />
<path d="M10.9244 4.9498
L10.4482 4.9498
" />
<path d="M10.4482 4.9498
L10.4482 3.9498
" />
<path d="M10.4482 3.9498
L10.9244 3.9498
" />
<path d="M11.6863 4.4260
L11.3530 4.4260
" />
<path d="M11.3530 4.9498
L11.3530 3.9498
" />
<path d="M11.3530 3.9498
L11.8292 3.9498
" />
<path d="M12.3530 3.9498
L12.3530 4.1879
" />
<path d="M12.1149 4.0927
L12.3530 4.1879
" />
<path d="M12.3530 4.1879
L12.5911 4.0927
" />
<path d="M12.2101 4.3784
L12.3530 4.1879
" />
<path d="M12.3530 4.1879
L12.4959 4.3784
" />
<path d="M13.1149 3.9498
L13.1149 4.1879
" />
<path d="M12.8768 4.0927
L13.1149 4.1879
" />
<path d="M13.1149 4.1879
L13.3530 4.0927
" />
<path d="M12.9720 4.3784
L13.1149 4.1879
" />
<path d="M13.1149 4.1879
L13.2578 4.3784
" />
</g></g>
<g style="fill:none; 
stroke:#F2EDA1; stroke-width:0.1200; stroke-opacity:1; 
stroke-linecap:round; stroke-linejoin:round;">
<path d="M4.4950 2.5900
L4.4950 2.9450
" />
<path d="M4.4950 7.0350
L4.4950 6.0450
" />
<path d="M4.4950 7.0350
L9.5750 7.0350
" />
<path d="M7.2750 17.0500
L8.0750 17.8500
" />
<path d="M8.0750 13.2000
L7.2750 14.0000
" />
<path d="M8.0750 13.2000
L9.8750 13.2000
" />
<path d="M8.0750 17.8500
L11.2250 17.8500
" />
<path d="M12.0250 17.0500
L11.2250 17.8500
" />
<path d="M12.0250 17.0500
L12.0250 16.7000
" />
<path d="M12.0392 8.9400
L13.7660 8.9400
" />
<path d="M13.3850 2.5900
L4.4950 2.5900
" />
<path d="M15.5750 8.9400
L15.9250 8.9400
" />
<path d="M15.9250 5.1300
L15.9250 5.4850
" />
<path d="M15.9250 8.5850
L15.9250 8.9400
" />
<path d="M16.0250 15.7000
L13.0250 15.7000
" />
<path d="M16.8250 11.0500
L12.9710 11.0500
" />
<path d="M16.8250 11.0500
L16.8250 11.7750
" />
<path d="M16.8250 14.8750
L16.8250 14.9000
" />
<path d="M12.0346 8.9412 A2.5400 2.5400 0.0 0 0 9.5750 7.0350" />
<path d="M13.0250 15.7000 A1.0000 1.0000 0.0 0 0 12.0250 16.7000" />
<path d="M9.8750 13.2000 A2.6255 2.6255 0.0 0 0 12.0304 11.7079" />
<path d="M12.9750 11.0500 A1.0000 1.0000 0.0 0 0 12.0353 11.7080" />
<path d="M15.9250 5.1300 A2.5400 2.5400 0.0 0 0 13.3850 2.5900" />
<path d="M16.0250 15.7000 A0.8000 0.8000 0.0 0 0 16.8250 14.9000" />
</g>
<g style="fill:none; 
stroke:#E8B2A7; stroke-width:0.1200; stroke-opacity:1; 
stroke-linecap:round; stroke-linejoin:round;">
<path d="M2.5750 2.5750
L2.5750 3.5750
" />
<path d="M2.5750 2.5750
L3.5750 2.5750
" />
<path d="M2.5750 16.5750
L2.5750 15.5750
" />
<path d="M3.5750 16.5750
L2.5750 16.5750
" />
<path d="M15.5750 2.5750
L16.5750 2.5750
" />
<path d="M16.5750 2.5750
L16.5750 3.5750
" />
<path d="M16.5750 15.5750
L16.5750 16.5750
" />
<path d="M16.5750 16.5750
L15.5750 16.5750
" />
<path style="fill:#B4A09A; fill-opacity:0.9000; stroke:none;fill-rule:evenodd;"
d="M 15.8600,6.0350
15.8790,5.9393
15.9332,5.8582
16.0143,5.8040
16.1100,5.7850
18.1600,5.7850
18.2557,5.8040
18.3368,5.8582
18.3910,5.9393
18.4100,6.0350
18.4100,8.0350
18.3910,8.1307
18.3368,8.2118
18.2557,8.2660
18.1600,8.2850
16.1100,8.2850
16.0143,8.2660
15.9332,8.2118
15.8790,8.1307
15.8600,8.0350
Z" /> 
<path style="fill:#B4A09A; fill-opacity:0.9000; stroke:none;fill-rule:evenodd;"
d="M 16.5500,12.3250
16.5690,12.2293
16.6232,12.1482
16.7043,12.0940
16.8000,12.0750
18.8500,12.0750
18.9457,12.0940
19.0268,12.1482
19.0810,12.2293
19.1000,12.3250
19.1000,14.3250
19.0810,14.4207
19.0268,14.5018
18.9457,14.5560
18.8500,14.5750
16.8000,14.5750
16.7043,14.5560
16.6232,14.5018
16.5690,14.4207
16.5500,14.3250
Z" /> 
<path style="fill:#B4A09A; fill-opacity:0.9000; stroke:none;fill-rule:evenodd;"
d="M 2.0100,3.4950
2.0290,3.3993
2.0832,3.3182
2.1643,3.2640
2.2600,3.2450
4.3100,3.2450
4.4057,3.2640
4.4868,3.3182
4.5410,3.3993
4.5600,3.4950
4.5600,5.4950
4.5410,5.5907
4.4868,5.6718
4.4057,5.7260
4.3100,5.7450
2.2600,5.7450
2.1643,5.7260
2.0832,5.6718
2.0290,5.5907
2.0100,5.4950
Z" /> 
<path style="fill:#B4A09A; fill-opacity:0.9000; stroke:none;fill-rule:evenodd;"
d="M 5.0550,14.5250
5.0740,14.4293
5.1282,14.3482
5.2093,14.2940
5.3050,14.2750
7.3550,14.2750
7.4507,14.2940
7.5318,14.3482
7.5860,14.4293
7.6050,14.5250
7.6050,16.5250
7.5860,16.6207
7.5318,16.7018
7.4507,16.7560
7.3550,16.7750
5.3050,16.7750
5.2093,16.7560
5.1282,16.7018
5.0740,16.6207
5.0550,16.5250
Z" /> 
<path style="fill:#C83434; fill-opacity:1.0000; stroke:none;fill-rule:evenodd;"
d="M 15.8600,6.0350
15.8790,5.9393
15.9332,5.8582
16.0143,5.8040
16.1100,5.7850
18.1600,5.7850
18.2557,5.8040
18.3368,5.8582
18.3910,5.9393
18.4100,6.0350
18.4100,8.0350
18.3910,8.1307
18.3368,8.2118
18.2557,8.2660
18.1600,8.2850
16.1100,8.2850
16.0143,8.2660
15.9332,8.2118
15.8790,8.1307
15.8600,8.0350
Z" /> 
<path style="fill:#C83434; fill-opacity:1.0000; stroke:none;fill-rule:evenodd;"
d="M 16.5500,12.3250
16.5690,12.2293
16.6232,12.1482
16.7043,12.0940
16.8000,12.0750
18.8500,12.0750
18.9457,12.0940
19.0268,12.1482
19.0810,12.2293
19.1000,12.3250
19.1000,14.3250
19.0810,14.4207
19.0268,14.5018
18.9457,14.5560
18.8500,14.5750
16.8000,14.5750
16.7043,14.5560
16.6232,14.5018
16.5690,14.4207
16.5500,14.3250
Z" /> 
<path style="fill:#C83434; fill-opacity:1.0000; stroke:none;fill-rule:evenodd;"
d="M 2.0100,3.4950
2.0290,3.3993
2.0832,3.3182
2.1643,3.2640
2.2600,3.2450
4.3100,3.2450
4.4057,3.2640
4.4868,3.3182
4.5410,3.3993
4.5600,3.4950
4.5600,5.4950
4.5410,5.5907
4.4868,5.6718
4.4057,5.7260
4.3100,5.7450
2.2600,5.7450
2.1643,5.7260
2.0832,5.6718
2.0290,5.5907
2.0100,5.4950
Z" /> 
<path style="fill:#C83434; fill-opacity:1.0000; stroke:none;fill-rule:evenodd;"
d="M 5.0550,14.5250
5.0740,14.4293
5.1282,14.3482
5.2093,14.2940
5.3050,14.2750
7.3550,14.2750
7.4507,14.2940
7.5318,14.3482
7.5860,14.4293
7.6050,14.5250
7.6050,16.5250
7.5860,16.6207
7.5318,16.7018
7.4507,16.7560
7.3550,16.7750
5.3050,16.7750
5.2093,16.7560
5.1282,16.7018
5.0740,16.6207
5.0550,16.5250
Z" /> 
</g>
<g style="fill:none; 
stroke:#AFAFAF; stroke-width:0.1500; stroke-opacity:1; 
stroke-linecap:round; stroke-linejoin:round;">
<text x="9.5750" y="18.3750"
textLength="16.7262" font-size="1.3333" lengthAdjust="spacingAndGlyphs"
text-anchor="middle" opacity="0" stroke-opacity="0">SW_MX_Choc_HotSwap</text>
<g class="stroked-text"><desc>SW_MX_Choc_HotSwap</desc>
<path d="M1.5274 18.2822
L1.6702 18.3298
" />
<path d="M1.6702 18.3298
L1.9083 18.3298
" />
<path d="M1.9083 18.3298
L2.0036 18.2822
" />
<path d="M2.0036 18.2822
L2.0512 18.2346
" />
<path d="M2.0512 18.2346
L2.0988 18.1393
" />
<path d="M2.0988 18.1393
L2.0988 18.0441
" />
<path d="M2.0988 18.0441
L2.0512 17.9489
" />
<path d="M2.0512 17.9489
L2.0036 17.9012
" />
<path d="M2.0036 17.9012
L1.9083 17.8536
" />
<path d="M1.9083 17.8536
L1.7179 17.8060
" />
<path d="M1.7179 17.8060
L1.6226 17.7584
" />
<path d="M1.6226 17.7584
L1.5750 17.7108
" />
<path d="M1.5750 17.7108
L1.5274 17.6155
" />
<path d="M1.5274 17.6155
L1.5274 17.5203
" />
<path d="M1.5274 17.5203
L1.5750 17.4251
" />
<path d="M1.5750 17.4251
L1.6226 17.3774
" />
<path d="M1.6226 17.3774
L1.7179 17.3298
" />
<path d="M1.7179 17.3298
L1.9560 17.3298
" />
<path d="M1.9560 17.3298
L2.0988 17.3774
" />
<path d="M2.4321 17.3298
L2.6702 18.3298
" />
<path d="M2.6702 18.3298
L2.8607 17.6155
" />
<path d="M2.8607 17.6155
L3.0512 18.3298
" />
<path d="M3.0512 18.3298
L3.2893 17.3298
" />
<path d="M3.4321 18.4251
L4.1940 18.4251
" />
<path d="M4.4321 18.3298
L4.4321 17.3298
" />
<path d="M4.4321 17.3298
L4.7655 18.0441
" />
<path d="M4.7655 18.0441
L5.0988 17.3298
" />
<path d="M5.0988 17.3298
L5.0988 18.3298
" />
<path d="M5.4798 17.3298
L6.1464 18.3298
" />
<path d="M6.1464 17.3298
L5.4798 18.3298
" />
<path d="M6.2893 18.4251
L7.0512 18.4251
" />
<path d="M7.8607 18.2346
L7.8131 18.2822
" />
<path d="M7.8131 18.2822
L7.6702 18.3298
" />
<path d="M7.6702 18.3298
L7.5750 18.3298
" />
<path d="M7.5750 18.3298
L7.4321 18.2822
" />
<path d="M7.4321 18.2822
L7.3369 18.1870
" />
<path d="M7.3369 18.1870
L7.2893 18.0917
" />
<path d="M7.2893 18.0917
L7.2417 17.9012
" />
<path d="M7.2417 17.9012
L7.2417 17.7584
" />
<path d="M7.2417 17.7584
L7.2893 17.5679
" />
<path d="M7.2893 17.5679
L7.3369 17.4727
" />
<path d="M7.3369 17.4727
L7.4321 17.3774
" />
<path d="M7.4321 17.3774
L7.5750 17.3298
" />
<path d="M7.5750 17.3298
L7.6702 17.3298
" />
<path d="M7.6702 17.3298
L7.8131 17.3774
" />
<path d="M7.8131 17.3774
L7.8607 17.4251
" />
<path d="M8.2893 18.3298
L8.2893 17.3298
" />
<path d="M8.7179 18.3298
L8.7179 17.8060
" />
<path d="M8.7179 17.8060
L8.6702 17.7108
" />
<path d="M8.6702 17.7108
L8.5750 17.6632
" />
<path d="M8.5750 17.6632
L8.4321 17.6632
" />
<path d="M8.4321 17.6632
L8.3369 17.7108
" />
<path d="M8.3369 17.7108
L8.2893 17.7584
" />
<path d="M9.3369 18.3298
L9.2417 18.2822
" />
<path d="M9.2417 18.2822
L9.1940 18.2346
" />
<path d="M9.1940 18.2346
L9.1464 18.1393
" />
<path d="M9.1464 18.1393
L9.1464 17.8536
" />
<path d="M9.1464 17.8536
L9.1940 17.7584
" />
<path d="M9.1940 17.7584
L9.2417 17.7108
" />
<path d="M9.2417 17.7108
L9.3369 17.6632
" />
<path d="M9.3369 17.6632
L9.4798 17.6632
" />
<path d="M9.4798 17.6632
L9.5750 17.7108
" />
<path d="M9.5750 17.7108
L9.6226 17.7584
" />
<path d="M9.6226 17.7584
L9.6702 17.8536
" />
<path d="M9.6702 17.8536
L9.6702 18.1393
" />
<path d="M9.6702 18.1393
L9.6226 18.2346
" />
<path d="M9.6226 18.2346
L9.5750 18.2822
" />
<path d="M9.5750 18.2822
L9.4798 18.3298
" />
<path d="M9.4798 18.3298
L9.3369 18.3298
" />
<path d="M10.5274 18.2822
L10.4321 18.3298
" />
<path d="M10.4321 18.3298
L10.2417 18.3298
" />
<path d="M10.2417 18.3298
L10.1464 18.2822
" />
<path d="M10.1464 18.2822
L10.0988 18.2346
" />
<path d="M10.0988 18.2346
L10.0512 18.1393
" />
<path d="M10.0512 18.1393
L10.0512 17.8536
" />
<path d="M10.0512 17.8536
L10.0988 17.7584
" />
<path d="M10.0988 17.7584
L10.1464 17.7108
" />
<path d="M10.1464 17.7108
L10.2417 17.6632
" />
<path d="M10.2417 17.6632
L10.4321 17.6632
" />
<path d="M10.4321 17.6632
L10.5274 17.7108
" />
<path d="M10.7179 18.4251
L11.4798 18.4251
" />
<path d="M11.7179 18.3298
L11.7179 17.3298
" />
<path d="M11.7179 17.8060
L12.2893 17.8060
" />
<path d="M12.2893 18.3298
L12.2893 17.3298
" />
<path d="M12.9083 18.3298
L12.8131 18.2822
" />
<path d="M12.8131 18.2822
L12.7655 18.2346
" />
<path d="M12.7655 18.2346
L12.7179 18.1393
" />
<path d="M12.7179 18.1393
L12.7179 17.8536
" />
<path d="M12.7179 17.8536
L12.7655 17.7584
" />
<path d="M12.7655 17.7584
L12.8131 17.7108
" />
<path d="M12.8131 17.7108
L12.9083 17.6632
" />
<path d="M12.9083 17.6632
L13.0512 17.6632
" />
<path d="M13.0512 17.6632
L13.1464 17.7108
" />
<path d="M13.1464 17.7108
L13.1940 17.7584
" />
<path d="M13.1940 17.7584
L13.2417 17.8536
" />
<path d="M13.2417 17.8536
L13.2417 18.1393
" />
<path d="M13.2417 18.1393
L13.1940 18.2346
" />
<path d="M13.1940 18.2346
L13.1464 18.2822
" />
<path d="M13.1464 18.2822
L13.0512 18.3298
" />
<path d="M13.0512 18.3298
L12.9083 18.3298
" />
<path d="M13.5274 17.6632
L13.9083 17.6632
" />
<path d="M13.6702 17.3298
L13.6702 18.1870
" />
<path d="M13.6702 18.1870
L13.7179 18.2822
" />
<path d="M13.7179 18.2822
L13.8131 18.3298
" />
<path d="M13.8131 18.3298
L13.9083 18.3298
" />
<path d="M14.1940 18.2822
L14.3369 18.3298
" />
<path d="M14.3369 18.3298
L14.5750 18.3298
" />
<path d="M14.5750 18.3298
L14.6702 18.2822
" />
<path d="M14.6702 18.2822
L14.7179 18.2346
" />
<path d="M14.7179 18.2346
L14.7655 18.1393
" />
<path d="M14.7655 18.1393
L14.7655 18.0441
" />
<path d="M14.7655 18.0441
L14.7179 17.9489
" />
<path d="M14.7179 17.9489
L14.6702 17.9012
" />
<path d="M14.6702 17.9012
L14.5750 17.8536
" />
<path d="M14.5750 17.8536
L14.3845 17.8060
" />
<path d="M14.3845 17.8060
L14.2893 17.7584
" />
<path d="M14.2893 17.7584
L14.2417 17.7108
" />
<path d="M14.2417 17.7108
L14.1940 17.6155
" />
<path d="M14.1940 17.6155
L14.1940 17.5203
" />
<path d="M14.1940 17.5203
L14.2417 17.4251
" />
<path d="M14.2417 17.4251
L14.2893 17.3774
" />
<path d="M14.2893 17.3774
L14.3845 17.3298
" />
<path d="M14.3845 17.3298
L14.6226 17.3298
" />
<path d="M14.6226 17.3298
L14.7655 17.3774
" />
<path d="M15.0988 17.6632
L15.2893 18.3298
" />
<path d="M15.2893 18.3298
L15.4798 17.8536
" />
<path d="M15.4798 17.8536
L15.6702 18.3298
" />
<path d="M15.6702 18.3298
L15.8607 17.6632
" />
<path d="M16.6702 18.3298
L16.6702 17.8060
" />
<path d="M16.6702 17.8060
L16.6226 17.7108
" />
<path d="M16.6226 17.7108
L16.5274 17.6632
" />
<path d="M16.5274 17.6632
L16.3369 17.6632
" />
<path d="M16.3369 17.6632
L16.2417 17.7108
" />
<path d="M16.6702 18.2822
L16.5750 18.3298
" />
<path d="M16.5750 18.3298
L16.3369 18.3298
" />
<path d="M16.3369 18.3298
L16.2417 18.2822
" />
<path d="M16.2417 18.2822
L16.1940 18.1870
" />
<path d="M16.1940 18.1870
L16.1940 18.0917
" />
<path d="M16.1940 18.0917
L16.2417 17.9965
" />
<path d="M16.2417 17.9965
L16.3369 17.9489
" />
<path d="M16.3369 17.9489
L16.5750 17.9489
" />
<path d="M16.5750 17.9489
L16.6702 17.9012
" />
<path d="M17.1464 17.6632
L17.1464 18.6632
" />
<path d="M17.1464 17.7108
L17.2417 17.6632
" />
<path d="M17.2417 17.6632
L17.4321 17.6632
" />
<path d="M17.4321 17.6632
L17.5274 17.7108
" />
<path d="M17.5274 17.7108
L17.5750 17.7584
" />
<path d="M17.5750 17.7584
L17.6226 17.8536
" />
<path d="M17.6226 17.8536
L17.6226 18.1393
" />
<path d="M17.6226 18.1393
L17.5750 18.2346
" />
<path d="M17.5750 18.2346
L17.5274 18.2822
" />
<path d="M17.5274 18.2822
L17.4321 18.3298
" />
<path d="M17.4321 18.3298
L17.2417 18.3298
" />
<path d="M17.2417 18.3298
L17.1464 18.2822
" />
</g><text x="9.5750" y="19.9750"
textLength="4.5357" font-size="1.3333" lengthAdjust="spacingAndGlyphs"
text-anchor="middle" opacity="0" stroke-opacity="0">REF**</text>
<g class="stroked-text"><desc>REF**</desc>
<path d="M8.2417 19.9298
L7.9083 19.4536
" />
<path d="M7.6702 19.9298
L7.6702 18.9298
" />
<path d="M7.6702 18.9298
L8.0512 18.9298
" />
<path d="M8.0512 18.9298
L8.1464 18.9774
" />
<path d="M8.1464 18.9774
L8.1940 19.0251
" />
<path d="M8.1940 19.0251
L8.2417 19.1203
" />
<path d="M8.2417 19.1203
L8.2417 19.2632
" />
<path d="M8.2417 19.2632
L8.1940 19.3584
" />
<path d="M8.1940 19.3584
L8.1464 19.4060
" />
<path d="M8.1464 19.4060
L8.0512 19.4536
" />
<path d="M8.0512 19.4536
L7.6702 19.4536
" />
<path d="M8.6702 19.4060
L9.0036 19.4060
" />
<path d="M9.1464 19.9298
L8.6702 19.9298
" />
<path d="M8.6702 19.9298
L8.6702 18.9298
" />
<path d="M8.6702 18.9298
L9.1464 18.9298
" />
<path d="M9.9083 19.4060
L9.5750 19.4060
" />
<path d="M9.5750 19.9298
L9.5750 18.9298
" />
<path d="M9.5750 18.9298
L10.0512 18.9298
" />
<path d="M10.5750 18.9298
L10.5750 19.1679
" />
<path d="M10.3369 19.0727
L10.5750 19.1679
" />
<path d="M10.5750 19.1679
L10.8131 19.0727
" />
<path d="M10.4321 19.3584
L10.5750 19.1679
" />
<path d="M10.5750 19.1679
L10.7179 19.3584
" />
<path d="M11.3369 18.9298
L11.3369 19.1679
" />
<path d="M11.0988 19.0727
L11.3369 19.1679
" />
<path d="M11.3369 19.1679
L11.5750 19.0727
" />
<path d="M11.1940 19.3584
L11.3369 19.1679
" />
<path d="M11.3369 19.1679
L11.4798 19.3584
" />
</g></g>
<g style="fill:none; 
stroke:#AFAFAF; stroke-width:0.1200; stroke-opacity:1; 
stroke-linecap:round; stroke-linejoin:round;">
<path d="M1.9550 3.2250
L1.9550 5.7650
" />
<path d="M1.9550 5.7650
L4.4950 5.7650
" />
<path d="M4.4950 2.5900
L4.4950 7.0350
" />
<path d="M4.4950 3.2250
L1.9550 3.2250
" />
<path d="M4.4950 7.0350
L9.5750 7.0350
" />
<path d="M5.0000 14.2550
L5.0000 16.7950
" />
<path d="M5.0000 16.7950
L7.2750 16.7950
" />
<path d="M7.2750 14.0000
L7.2750 17.0500
" />
<path d="M7.2750 14.2550
L5.0000 14.2550
" />
<path d="M7.2750 17.0500
L8.0750 17.8500
" />
<path d="M8.0750 13.2000
L7.2750 14.0000
" />
<path d="M8.0750 13.2000
L9.8750 13.2000
" />
<path d="M8.0750 17.8500
L11.2250 17.8500
" />
<path d="M12.0250 17.0500
L11.2250 17.8500
" />
<path d="M12.0250 17.0500
L12.0250 16.7000
" />
<path d="M13.3850 2.5900
L4.4950 2.5900
" />
<path d="M15.9250 8.3050
L18.4650 8.3050
" />
<path d="M15.9250 8.9400
L12.1150 8.9400
" />
<path d="M15.9250 8.9400
L15.9250 5.1300
" />
<path d="M16.0250 15.7000
L13.0250 15.7000
" />
<path d="M16.8250 11.0500
L12.9710 11.0500
" />
<path d="M16.8250 11.0500
L16.8250 14.9000
" />
<path d="M16.8250 14.5950
L19.1550 14.5950
" />
<path d="M18.4650 5.7650
L15.9250 5.7650
" />
<path d="M18.4650 8.3050
L18.4650 5.7650
" />
<path d="M19.1550 12.0550
L16.8250 12.0550
" />
<path d="M19.1550 14.5950
L19.1550 12.0550
" />
<path d="M12.0392 8.9590 A2.5400 2.5400 0.0 0 0 9.5750 7.0350" />
<path d="M13.0250 15.7000 A1.0000 1.0000 0.0 0 0 12.0250 16.7000" />
<path d="M9.8750 13.2000 A2.6255 2.6255 0.0 0 0 12.0304 11.7079" />
<path d="M12.9750 11.0500 A1.0000 1.0000 0.0 0 0 12.0353 11.7080" />
<path d="M15.9250 5.1300 A2.5400 2.5400 0.0 0 0 13.3850 2.5900" />
<path d="M16.0250 15.7000 A0.8000 0.8000 0.0 0 0 16.8250 14.9000" />
</g>
<g style="fill:none; 
stroke:#AFAFAF; stroke-width:0.0212; stroke-opacity:1; 
stroke-linecap:round; stroke-linejoin:round;">
<circle cx="4.4950" cy="9.5750" r="0.8500" /> 
</g>
<g style="fill:none; 
stroke:#AFAFAF; stroke-width:0.0212; stroke-opacity:1; 
stroke-linecap:round; stroke-linejoin:round;">
<circle cx="7.0350" cy="4.4950" r="1.5000" /> 
</g>
<g style="fill:none; 
stroke:#AFAFAF; stroke-width:0.0212; stroke-opacity:1; 
stroke-linecap:round; stroke-linejoin:round;">
<circle cx="9.5750" cy="9.5750" r="2.0000" /> 
</g>
<g style="fill:none; 
stroke:#AFAFAF; stroke-width:0.0212; stroke-opacity:1; 
stroke-linecap:round; stroke-linejoin:round;">
<circle cx="9.5750" cy="15.5250" r="1.5000" /> 
</g>
<g style="fill:none; 
stroke:#AFAFAF; stroke-width:0.0212; stroke-opacity:1; 
stroke-linecap:round; stroke-linejoin:round;">
<circle cx="13.3850" cy="7.0350" r="1.5000" /> 
</g>
<g style="fill:none; 
stroke:#AFAFAF; stroke-width:0.0212; stroke-opacity:1; 
stroke-linecap:round; stroke-linejoin:round;">
<circle cx="14.5750" cy="13.3250" r="1.5000" /> 
</g>
<g style="fill:none; 
stroke:#AFAFAF; stroke-width:0.0212; stroke-opacity:1; 
stroke-linecap:round; stroke-linejoin:round;">
<circle cx="14.6550" cy="9.5750" r="0.8500" /> 
</g>
<g style="fill:none; 
stroke:#AFAFAF; stroke-width:0.0708; stroke-opacity:1; 
stroke-linecap:round; stroke-linejoin:round;">
<text x="17.1350" y="7.4600"
textLength="0.8520" font-size="1.1333" lengthAdjust="spacingAndGlyphs"
text-anchor="middle" opacity="0" stroke-opacity="0">1</text>
<g class="stroked-text"><desc>1</desc>
<path d="M17.3779 7.4245
L16.8921 7.4245
" />
<path d="M17.1350 7.4245
L17.1350 6.5745
" />
<path d="M17.1350 6.5745
L17.0540 6.6960
" />
<path d="M17.0540 6.6960
L16.9731 6.7769
" />
<path d="M16.9731 6.7769
L16.8921 6.8174
" />
</g><path style="fill:none; 
stroke:#AFAFAF; stroke-width:0.0212; stroke-opacity:1; 
stroke-linecap:round; stroke-linejoin:round;fill:none"
d="M 15.8600,6.0350
15.8790,5.9393
15.9332,5.8582
16.0143,5.8040
16.1100,5.7850
18.1600,5.7850
18.2557,5.8040
18.3368,5.8582
18.3910,5.9393
18.4100,6.0350
18.4100,8.0350
18.3910,8.1307
18.3368,8.2118
18.2557,8.2660
18.1600,8.2850
16.1100,8.2850
16.0143,8.2660
15.9332,8.2118
15.8790,8.1307
15.8600,8.0350
Z" /> 
</g>
<g style="fill:none; 
stroke:#AFAFAF; stroke-width:0.0708; stroke-opacity:1; 
stroke-linecap:round; stroke-linejoin:round;">
<text x="17.8250" y="13.7500"
textLength="0.8520" font-size="1.1333" lengthAdjust="spacingAndGlyphs"
text-anchor="middle" opacity="0" stroke-opacity="0">1</text>
<g class="stroked-text"><desc>1</desc>
<path d="M18.0679 13.7145
L17.5821 13.7145
" />
<path d="M17.8250 13.7145
L17.8250 12.8645
" />
<path d="M17.8250 12.8645
L17.7440 12.9860
" />
<path d="M17.7440 12.9860
L17.6631 13.0669
" />
<path d="M17.6631 13.0669
L17.5821 13.1074
" />
</g><path style="fill:none; 
stroke:#AFAFAF; stroke-width:0.0212; stroke-opacity:1; 
stroke-linecap:round; stroke-linejoin:round;fill:none"
d="M 16.5500,12.3250
16.5690,12.2293
16.6232,12.1482
16.7043,12.0940
16.8000,12.0750
18.8500,12.0750
18.9457,12.0940
19.0268,12.1482
19.0810,12.2293
19.1000,12.3250
19.1000,14.3250
19.0810,14.4207
19.0268,14.5018
18.9457,14.5560
18.8500,14.5750
16.8000,14.5750
16.7043,14.5560
16.6232,14.5018
16.5690,14.4207
16.5500,14.3250
Z" /> 
</g>
<g style="fill:none; 
stroke:#AFAFAF; stroke-width:0.0708; stroke-opacity:1; 
stroke-linecap:round; stroke-linejoin:round;">
<text x="3.2850" y="4.9200"
textLength="0.8520" font-size="1.1333" lengthAdjust="spacingAndGlyphs"
text-anchor="middle" opacity="0" stroke-opacity="0">2</text>
<g class="stroked-text"><desc>2</desc>
<path d="M3.0421 4.1155
L3.0826 4.0750
" />
<path d="M3.0826 4.0750
L3.1636 4.0345
" />
<path d="M3.1636 4.0345
L3.3660 4.0345
" />
<path d="M3.3660 4.0345
L3.4469 4.0750
" />
<path d="M3.4469 4.0750
L3.4874 4.1155
" />
<path d="M3.4874 4.1155
L3.5279 4.1964
" />
<path d="M3.5279 4.1964
L3.5279 4.2774
" />
<path d="M3.5279 4.2774
L3.4874 4.3988
" />
<path d="M3.4874 4.3988
L3.0017 4.8845
" />
<path d="M3.0017 4.8845
L3.5279 4.8845
" />
</g><path style="fill:none; 
stroke:#AFAFAF; stroke-width:0.0212; stroke-opacity:1; 
stroke-linecap:round; stroke-linejoin:round;fill:none"
d="M 2.0100,3.4950
2.0290,3.3993
2.0832,3.3182
2.1643,3.2640
2.2600,3.2450
4.3100,3.2450
4.4057,3.2640
4.4868,3.3182
4.5410,3.3993
4.5600,3.4950
4.5600,5.4950
4.5410,5.5907
4.4868,5.6718
4.4057,5.7260
4.3100,5.7450
2.2600,5.7450
2.1643,5.7260
2.0832,5.6718
2.0290,5.5907
2.0100,5.4950
Z" /> 
</g>
<g style="fill:none; 
stroke:#AFAFAF; stroke-width:0.0708; stroke-opacity:1; 
stroke-linecap:round; stroke-linejoin:round;">
<text x="6.3300" y="15.9500"
textLength="0.8520" font-size="1.1333" lengthAdjust="spacingAndGlyphs"
text-anchor="middle" opacity="0" stroke-opacity="0">2</text>
<g class="stroked-text"><desc>2</desc>
<path d="M6.0871 15.1455
L6.1276 15.1050
" />
<path d="M6.1276 15.1050
L6.2086 15.0645
" />
<path d="M6.2086 15.0645
L6.4110 15.0645
" />
<path d="M6.4110 15.0645
L6.4919 15.1050
" />
<path d="M6.4919 15.1050
L6.5324 15.1455
" />
<path d="M6.5324 15.1455
L6.5729 15.2264
" />
<path d="M6.5729 15.2264
L6.5729 15.3074
" />
<path d="M6.5729 15.3074
L6.5324 15.4288
" />
<path d="M6.5324 15.4288
L6.0467 15.9145
" />
<path d="M6.0467 15.9145
L6.5729 15.9145
" />
</g><path style="fill:none; 
stroke:#AFAFAF; stroke-width:0.0212; stroke-opacity:1; 
stroke-linecap:round; stroke-linejoin:round;fill:none"
d="M 5.0550,14.5250
5.0740,14.4293
5.1282,14.3482
5.2093,14.2940
5.3050,14.2750
7.3550,14.2750
7.4507,14.2940
7.5318,14.3482
7.5860,14.4293
7.6050,14.5250
7.6050,16.5250
7.5860,16.6207
7.5318,16.7018
7.4507,16.7560
7.3550,16.7750
5.3050,16.7750
5.2093,16.7560
5.1282,16.7018
5.0740,16.6207
5.0550,16.5250
Z" /> 
<path style="fill:none; 
stroke:#585D84; stroke-width:0.0500; stroke-opacity:1; 
stroke-linecap:round; stroke-linejoin:round;fill:none"
d="M 2.5750,2.5750
16.5750,2.5750
16.5750,16.5750
2.5750,16.5750
Z" /> 
</g>
<g style="fill:none; 
stroke:#585D84; stroke-width:0.0212; stroke-opacity:1; 
stroke-linecap:round; stroke-linejoin:round;">
<circle cx="4.4950" cy="9.5750" r="0.8500" /> 
</g>
<g style="fill:none; 
stroke:#585D84; stroke-width:0.0212; stroke-opacity:1; 
stroke-linecap:round; stroke-linejoin:round;">
<circle cx="7.0350" cy="4.4950" r="1.5000" /> 
</g>
<g style="fill:none; 
stroke:#585D84; stroke-width:0.0212; stroke-opacity:1; 
stroke-linecap:round; stroke-linejoin:round;">
<circle cx="9.5750" cy="9.5750" r="2.0000" /> 
</g>
<g style="fill:none; 
stroke:#585D84; stroke-width:0.0212; stroke-opacity:1; 
stroke-linecap:round; stroke-linejoin:round;">
<circle cx="9.5750" cy="15.5250" r="1.5000" /> 
</g>
<g style="fill:none; 
stroke:#585D84; stroke-width:0.0212; stroke-opacity:1; 
stroke-linecap:round; stroke-linejoin:round;">
<circle cx="13.3850" cy="7.0350" r="1.5000" /> 
</g>
<g style="fill:none; 
stroke:#585D84; stroke-width:0.0212; stroke-opacity:1; 
stroke-linecap:round; stroke-linejoin:round;">
<circle cx="14.5750" cy="13.3250" r="1.5000" /> 
</g>
<g style="fill:none; 
stroke:#585D84; stroke-width:0.0212; stroke-opacity:1; 
stroke-linecap:round; stroke-linejoin:round;">
<circle cx="14.6550" cy="9.5750" r="0.8500" /> 
<path style="fill:none; 
stroke:#C2C2C2; stroke-width:0.1000; stroke-opacity:1; 
stroke-linecap:round; stroke-linejoin:round;fill:none"
d="M 0.0500,0.0500
19.1000,0.0500
19.1000,19.1000
0.0500,19.1000
Z" /> 
</g> 
</svg>
