<svg xmlns="http://www.w3.org/2000/svg" width="72.288" height="76.8" viewBox="0 0 19.126 20.32">
    <g style="fill:none;stroke:#e8b2a7;stroke-width:.12;stroke-opacity:1;stroke-linecap:round;stroke-linejoin:round">
        <path d="M2.475 2.475v1M2.475 2.475h1M2.475 16.675v-1M3.475 16.675h-1M15.675 2.475h1M16.675 2.475v1M16.675 15.675v1M16.675 16.675h-1"/>
    </g>
    <g class="stroked-text" style="fill:none;stroke:#f2eda1;stroke-width:.15;stroke-opacity:1;stroke-linecap:round;stroke-linejoin:round">
        <path d="m8.242 13.03-.334-.476M7.67 13.03v-1M7.67 12.03h.381M8.051 12.03l.095.047M8.146 12.077l.048.048M8.194 12.125l.048.095M8.242 12.22v.143M8.242 12.363l-.048.095M8.194 12.458l-.048.048M8.146 12.506l-.095.048M8.051 12.554h-.38M8.67 12.506h.334M9.146 13.03H8.67M8.67 13.03v-1M8.67 12.03h.476M9.908 12.506h-.333M9.575 13.03v-1M9.575 12.03h.476M10.575 12.03v.238M10.337 12.173l.238.095M10.575 12.268l.238-.095M10.432 12.458l.143-.19M10.575 12.268l.143.19M11.337 12.03v.238M11.099 12.173l.238.095M11.337 12.268l.238-.095M11.194 12.458l.143-.19M11.337 12.268l.143.19"/>
    </g>
    <g style="fill:none;stroke:#f2eda1;stroke-width:.12;stroke-opacity:1;stroke-linecap:round;stroke-linejoin:round">
        <path d="M4.495 2.59v.355M4.495 7.035v-.99M4.495 7.035h5.08M12.04 8.94h1.726M13.385 2.59h-8.89M15.575 8.94h.35M15.925 5.13v.355M15.925 8.585v.355M12.035 8.941a2.54 2.54 0 0 0-2.46-1.906M15.925 5.13a2.54 2.54 0 0 0-2.54-2.54"/>
        <path stroke="none" d="m15.86 6.035.019-.096.054-.08.081-.055.096-.019h2.05l.096.019.08.054.055.081.019.096v2l-.019.096-.054.08-.081.055-.096.019h-2.05l-.096-.019-.08-.054-.055-.081-.019-.096ZM2.01 3.495l.019-.096.054-.08.081-.055.096-.019h2.05l.096.019.08.054.055.081.019.096v2l-.019.096-.054.08-.081.055-.096.019H2.26l-.096-.019-.08-.054-.055-.081-.019-.096Z" style="fill:#b4a09a;fill-opacity:.9;stroke:none;fill-rule:evenodd"/>
    </g>
    <circle cx="12.115" cy="14.655" r="1.15" style="fill:#4d7fc4;fill-opacity:1;stroke:none"/>
    <circle cx="5.765" cy="12.115" r="1.15" style="fill:#4d7fc4;fill-opacity:1;stroke:none"/>
    <g style="fill:#c83434;fill-opacity:1;stroke:none">
        <circle cx="12.115" cy="14.655" r="1.15"/>
        <path d="m15.86 6.035.019-.096.054-.08.081-.055.096-.019h2.05l.096.019.08.054.055.081.019.096v2l-.019.096-.054.08-.081.055-.096.019h-2.05l-.096-.019-.08-.054-.055-.081-.019-.096ZM2.01 3.495l.019-.096.054-.08.081-.055.096-.019h2.05l.096.019.08.054.055.081.019.096v2l-.019.096-.054.08-.081.055-.096.019H2.26l-.096-.019-.08-.054-.055-.081-.019-.096Z" style="fill:#c83434;fill-opacity:1;stroke:none;fill-rule:evenodd"/>
    </g>
    <g style="fill:#c83434;fill-opacity:1;stroke:none">
        <circle cx="5.765" cy="12.115" r="1.15"/>
        <path d="M2.575 2.575h14v14h-14Z" style="stroke:#585d84;stroke-width:.1;stroke-opacity:1;stroke-linecap:round;stroke-linejoin:round;fill:none"/>
    </g>
    <circle cx="4.495" cy="9.575" r=".85" style="fill:none;stroke:#585d84;stroke-width:.0212;stroke-opacity:1;stroke-linecap:round;stroke-linejoin:round"/>
    <circle cx="7.035" cy="4.495" r="1.5" style="fill:none;stroke:#585d84;stroke-width:.0212;stroke-opacity:1;stroke-linecap:round;stroke-linejoin:round"/>
    <circle cx="9.575" cy="9.575" r="2" style="fill:none;stroke:#585d84;stroke-width:.0212;stroke-opacity:1;stroke-linecap:round;stroke-linejoin:round"/>
    <circle cx="13.385" cy="7.035" r="1.5" style="fill:none;stroke:#585d84;stroke-width:.0212;stroke-opacity:1;stroke-linecap:round;stroke-linejoin:round"/>
    <circle cx="14.655" cy="9.575" r=".85" style="fill:none;stroke:#585d84;stroke-width:.0212;stroke-opacity:1;stroke-linecap:round;stroke-linejoin:round"/>
    <g class="stroked-text" style="fill:none;stroke:#585d84;stroke-width:.0639;stroke-opacity:1;stroke-linecap:round;stroke-linejoin:round">
        <path d="M12.334 15.006h-.438M12.115 15.006v-.766M12.115 14.24l-.073.11M12.042 14.35l-.073.072M11.969 14.422l-.073.037"/>
    </g>
    <circle cx="12.115" cy="14.655" r="1.15" style="fill:none;stroke:#585d84;stroke-width:.0212;stroke-opacity:1;stroke-linecap:round;stroke-linejoin:round"/>
    <g class="stroked-text" style="fill:none;stroke:#585d84;stroke-width:.0639;stroke-opacity:1;stroke-linecap:round;stroke-linejoin:round">
        <path d="m5.546 11.773.036-.037M5.583 11.736l.072-.036M5.656 11.7h.182M5.838 11.7l.073.036M5.911 11.736l.037.037M5.948 11.773l.036.073M5.984 11.846v.073M5.984 11.919l-.037.11M5.948 12.028l-.439.438M5.51 12.466h.474"/>
    </g>
    <circle cx="5.765" cy="12.115" r="1.15" style="fill:none;stroke:#585d84;stroke-width:.0212;stroke-opacity:1;stroke-linecap:round;stroke-linejoin:round"/>
    <g style="fill:none;stroke:#afafaf;stroke-width:.15;stroke-opacity:1;stroke-linecap:round;stroke-linejoin:round">
        <g class="stroked-text">
            <path d="m2.075 18.282.143.048M2.218 18.33h.238M2.456 18.33l.095-.048M2.551 18.282l.048-.047M2.599 18.235l.047-.096M2.646 18.14v-.096M2.646 18.044 2.6 17.95M2.599 17.949 2.55 17.9M2.551 17.901l-.095-.047M2.456 17.854l-.19-.048M2.266 17.806l-.096-.048M2.17 17.758l-.047-.047M2.123 17.71l-.048-.095M2.075 17.616v-.096M2.075 17.52l.048-.095M2.123 17.425l.047-.048M2.17 17.377l.095-.047M2.266 17.33h.238M2.504 17.33l.142.047M2.98 17.33l.238 1M3.218 18.33l.19-.714M3.408 17.616l.19.714M3.599 18.33l.238-1M3.98 18.425h.762M4.98 18.33v-1M4.98 17.33l.333.714M5.313 18.044l.333-.714M5.646 17.33v1M6.027 17.33l.667 1M6.694 17.33l-.667 1M6.837 18.425h.762M7.837 18.33v-1M7.837 17.806h.571M8.408 18.33v-1M9.027 18.33l-.095-.048M8.932 18.282l-.048-.047M8.885 18.235l-.048-.096M8.837 18.14v-.286M8.837 17.854l.047-.096M8.885 17.758l.047-.047M8.932 17.71l.095-.047M9.027 17.663h.143M9.17 17.663l.095.048M9.266 17.71l.047.048M9.313 17.758l.048.096M9.36 17.854v.285M9.36 18.14l-.047.095M9.313 18.235l-.048.047M9.266 18.282l-.096.048M9.17 18.33h-.143M9.646 17.663h.381M9.79 17.33v.857M9.79 18.187l.047.095M9.837 18.282l.095.048M9.932 18.33h.095M10.313 18.282l.143.048M10.456 18.33h.238M10.694 18.33l.095-.048M10.79 18.282l.047-.047M10.837 18.235l.047-.096M10.885 18.14v-.096M10.885 18.044l-.048-.095M10.837 17.949l-.048-.048M10.79 17.901l-.096-.047M10.694 17.854l-.19-.048M10.504 17.806l-.096-.048M10.408 17.758l-.047-.047M10.36 17.71l-.047-.095M10.313 17.616v-.096M10.313 17.52l.048-.095M10.36 17.425l.048-.048M10.408 17.377l.096-.047M10.504 17.33h.238M10.742 17.33l.142.047M11.218 17.663l.19.667M11.408 18.33l.19-.476M11.599 17.854l.19.476M11.79 18.33l.19-.667M12.79 18.33v-.524M12.79 17.806l-.048-.095M12.742 17.71l-.096-.047M12.646 17.663h-.19M12.456 17.663l-.095.048M12.79 18.282l-.096.048M12.694 18.33h-.238M12.456 18.33l-.095-.048M12.36 18.282l-.047-.095M12.313 18.187v-.095M12.313 18.092l.048-.095M12.36 17.997l.096-.048M12.456 17.949h.238M12.694 17.949l.095-.048M13.266 17.663v1M13.266 17.71l.095-.047M13.36 17.663h.191M13.551 17.663l.095.048M13.646 17.71l.048.048M13.694 17.758l.048.096M13.742 17.854v.285M13.742 18.14l-.048.095M13.694 18.235l-.048.047M13.646 18.282l-.095.048M13.551 18.33h-.19M13.36 18.33l-.095-.048M13.932 18.425h.762M14.79 17.33h.57M15.075 18.33v-1M15.694 18.33v-1M15.694 17.806h.571M16.266 18.33v-1M16.599 17.33h.571M16.885 18.33v-1"/>
        </g>
        <g class="stroked-text">
            <path d="m8.242 19.93-.334-.476M7.67 19.93v-1M7.67 18.93h.381M8.051 18.93l.095.047M8.146 18.977l.048.048M8.194 19.025l.048.095M8.242 19.12v.143M8.242 19.263l-.048.095M8.194 19.358l-.048.048M8.146 19.406l-.095.048M8.051 19.454h-.38M8.67 19.406h.334M9.146 19.93H8.67M8.67 19.93v-1M8.67 18.93h.476M9.908 19.406h-.333M9.575 19.93v-1M9.575 18.93h.476M10.575 18.93v.238M10.337 19.073l.238.095M10.575 19.168l.238-.095M10.432 19.358l.143-.19M10.575 19.168l.143.19M11.337 18.93v.238M11.099 19.073l.238.095M11.337 19.168l.238-.095M11.194 19.358l.143-.19M11.337 19.168l.143.19"/>
        </g>
    </g>
    <g style="fill:none;stroke:#afafaf;stroke-width:.1;stroke-opacity:1;stroke-linecap:round;stroke-linejoin:round">
        <path d="M1.955 3.225v2.54M1.955 5.765h2.54M4.495 2.59v4.445M4.495 3.225h-2.54M4.495 7.035h5.08M13.385 2.59h-8.89M15.925 8.305h2.54M15.925 8.94h-3.81M15.925 8.94V5.13M18.465 5.765h-2.54M18.465 8.305v-2.54M12.04 8.959a2.54 2.54 0 0 0-2.465-1.924M15.925 5.13a2.54 2.54 0 0 0-2.54-2.54"/>
    </g>
    <circle cx="4.495" cy="9.575" r=".85" style="fill:none;stroke:#afafaf;stroke-width:.0212;stroke-opacity:1;stroke-linecap:round;stroke-linejoin:round"/>
    <circle cx="7.035" cy="4.495" r="1.5" style="fill:none;stroke:#afafaf;stroke-width:.0212;stroke-opacity:1;stroke-linecap:round;stroke-linejoin:round"/>
    <circle cx="9.575" cy="9.575" r="2" style="fill:none;stroke:#afafaf;stroke-width:.0212;stroke-opacity:1;stroke-linecap:round;stroke-linejoin:round"/>
    <circle cx="13.385" cy="7.035" r="1.5" style="fill:none;stroke:#afafaf;stroke-width:.0212;stroke-opacity:1;stroke-linecap:round;stroke-linejoin:round"/>
    <circle cx="14.655" cy="9.575" r=".85" style="fill:none;stroke:#afafaf;stroke-width:.0212;stroke-opacity:1;stroke-linecap:round;stroke-linejoin:round"/>
    <g class="stroked-text" style="fill:none;stroke:#afafaf;stroke-width:.0639;stroke-opacity:1;stroke-linecap:round;stroke-linejoin:round">
        <path d="M12.334 15.006h-.438M12.115 15.006v-.766M12.115 14.24l-.073.11M12.042 14.35l-.073.072M11.969 14.422l-.073.037"/>
    </g>
    <circle cx="12.115" cy="14.655" r="1.15" style="fill:none;stroke:#afafaf;stroke-width:.0212;stroke-opacity:1;stroke-linecap:round;stroke-linejoin:round"/>
    <g style="fill:none;stroke:#afafaf;stroke-width:.0708;stroke-opacity:1;stroke-linecap:round;stroke-linejoin:round">
        <g class="stroked-text">
            <path d="M17.378 7.425h-.486M17.135 7.425v-.85M17.135 6.575l-.081.121M17.054 6.696l-.08.08M16.973 6.777l-.08.04"/>
        </g>
        <path d="m15.86 6.035.019-.096.054-.08.081-.055.096-.019h2.05l.096.019.08.054.055.081.019.096v2l-.019.096-.054.08-.081.055-.096.019h-2.05l-.096-.019-.08-.054-.055-.081-.019-.096Z" style="stroke:#afafaf;stroke-width:.0212;stroke-opacity:1;stroke-linecap:round;stroke-linejoin:round;fill:none"/>
    </g>
    <g style="fill:none;stroke:#afafaf;stroke-width:.0708;stroke-opacity:1;stroke-linecap:round;stroke-linejoin:round">
        <g class="stroked-text">
            <path d="m3.042 4.116.04-.041M3.083 4.075l.08-.04M3.164 4.035h.202M3.366 4.035l.08.04M3.447 4.075l.04.04M3.487 4.116l.04.08M3.528 4.196v.081M3.528 4.277l-.04.122M3.487 4.399l-.485.486M3.002 4.885h.526"/>
        </g>
        <path d="m2.01 3.495.019-.096.054-.08.081-.055.096-.019h2.05l.096.019.08.054.055.081.019.096v2l-.019.096-.054.08-.081.055-.096.019H2.26l-.096-.019-.08-.054-.055-.081-.019-.096Z" style="stroke:#afafaf;stroke-width:.0212;stroke-opacity:1;stroke-linecap:round;stroke-linejoin:round;fill:none"/>
    </g>
    <g class="stroked-text" style="fill:none;stroke:#afafaf;stroke-width:.0639;stroke-opacity:1;stroke-linecap:round;stroke-linejoin:round">
        <path d="m5.546 11.773.036-.037M5.583 11.736l.072-.036M5.656 11.7h.182M5.838 11.7l.073.036M5.911 11.736l.037.037M5.948 11.773l.036.073M5.984 11.846v.073M5.984 11.919l-.037.11M5.948 12.028l-.439.438M5.51 12.466h.474"/>
    </g>
    <g style="fill:none;stroke:#afafaf;stroke-width:.0212;stroke-opacity:1;stroke-linecap:round;stroke-linejoin:round">
        <circle cx="5.765" cy="12.115" r="1.15"/>
        <path d="M.05.05H19.1V19.1H.05Z" style="stroke:#c2c2c2;stroke-width:.1;stroke-opacity:1;stroke-linecap:round;stroke-linejoin:round;fill:none"/>
    </g>
</svg>
