<svg xmlns="http://www.w3.org/2000/svg" width="72.288" height="76.8" viewBox="0 0 19.126 20.32">
    <g style="fill:none;stroke:#e8b2a7;stroke-width:.12;stroke-opacity:1;stroke-linecap:round;stroke-linejoin:round">
        <path d="M2.475 2.475v1M2.475 2.475h1M2.475 16.675v-1M3.475 16.675h-1M15.675 2.475h1M16.675 2.475v1M16.675 15.675v1M16.675 16.675h-1"/>
    </g>
    <g class="stroked-text" style="fill:none;stroke:#f2eda1;stroke-width:.15;stroke-opacity:1;stroke-linecap:round;stroke-linejoin:round">
        <path d="m10.02 4.95-.334-.476M9.448 4.95v-1M9.448 3.95h.381M9.83 3.95l.094.047M9.924 3.997l.048.048M9.972 4.045l.048.095M10.02 4.14v.143M10.02 4.283l-.048.095M9.972 4.378l-.048.048M9.924 4.426l-.095.048M9.83 4.474h-.382M10.448 4.426h.334M10.924 4.95h-.476M10.448 4.95v-1M10.448 3.95h.476M11.686 4.426h-.333M11.353 4.95v-1M11.353 3.95h.476M12.353 3.95v.238M12.115 4.093l.238.095M12.353 4.188l.238-.095M12.21 4.378l.143-.19M12.353 4.188l.143.19M13.115 3.95v.238M12.877 4.093l.238.095M13.115 4.188l.238-.095M12.972 4.378l.143-.19M13.115 4.188l.143.19"/>
    </g>
    <g style="fill:none;stroke:#f2eda1;stroke-width:.12;stroke-opacity:1;stroke-linecap:round;stroke-linejoin:round">
        <path d="M4.495 2.59v.355M4.495 7.035v-.99M4.495 7.035h5.08M12.04 8.94h1.726M13.385 2.59h-8.89M15.575 8.94h.35M15.925 5.13v.355M15.925 8.585v.355M12.035 8.941a2.54 2.54 0 0 0-2.46-1.906M15.925 5.13a2.54 2.54 0 0 0-2.54-2.54"/>
        <path stroke="none" d="m15.863 6.035.02-.096.053-.08.081-.055.096-.019h1.3l.096.019.081.054.054.081.02.096v2l-.02.096-.054.08-.081.055-.096.019h-1.3l-.096-.019-.08-.054-.055-.081-.019-.096ZM2.757 3.495l.019-.096.054-.08.081-.055.096-.019h1.3l.095.019.082.054.054.081.019.096v2l-.02.096-.053.08-.082.055-.095.019h-1.3l-.096-.019-.081-.054-.054-.081-.02-.096Z" style="fill:#b4a09a;fill-opacity:.9;stroke:none;fill-rule:evenodd"/>
        <path stroke="none" d="m15.863 6.035.02-.096.053-.08.081-.055.096-.019h1.3l.096.019.081.054.054.081.02.096v2l-.02.096-.054.08-.081.055-.096.019h-1.3l-.096-.019-.08-.054-.055-.081-.019-.096ZM2.757 3.495l.019-.096.054-.08.081-.055.096-.019h1.3l.095.019.082.054.054.081.019.096v2l-.02.096-.053.08-.082.055-.095.019h-1.3l-.096-.019-.081-.054-.054-.081-.02-.096Z" style="fill:#c83434;fill-opacity:1;stroke:none;fill-rule:evenodd"/>
        <path d="M2.575 2.575h14v14h-14Z" style="stroke:#585d84;stroke-width:.1;stroke-opacity:1;stroke-linecap:round;stroke-linejoin:round;fill:none"/>
    </g>
    <circle cx="4.495" cy="9.575" r=".85" style="fill:none;stroke:#585d84;stroke-width:.0212;stroke-opacity:1;stroke-linecap:round;stroke-linejoin:round"/>
    <circle cx="7.035" cy="4.495" r="1.5" style="fill:none;stroke:#585d84;stroke-width:.0212;stroke-opacity:1;stroke-linecap:round;stroke-linejoin:round"/>
    <circle cx="9.575" cy="9.575" r="2" style="fill:none;stroke:#585d84;stroke-width:.0212;stroke-opacity:1;stroke-linecap:round;stroke-linejoin:round"/>
    <circle cx="13.385" cy="7.035" r="1.5" style="fill:none;stroke:#585d84;stroke-width:.0212;stroke-opacity:1;stroke-linecap:round;stroke-linejoin:round"/>
    <circle cx="14.655" cy="9.575" r=".85" style="fill:none;stroke:#585d84;stroke-width:.0212;stroke-opacity:1;stroke-linecap:round;stroke-linejoin:round"/>
    <g style="fill:none;stroke:#afafaf;stroke-width:.15;stroke-opacity:1;stroke-linecap:round;stroke-linejoin:round">
        <g class="stroked-text">
            <path d="m1.718 18.282.143.048M1.86 18.33H2.1M2.099 18.33l.095-.048M2.194 18.282l.048-.047M2.242 18.235l.047-.096M2.29 18.14v-.096M2.29 18.044l-.048-.095M2.242 17.949l-.048-.048M2.194 17.901l-.095-.047M2.099 17.854l-.19-.048M1.908 17.806l-.095-.048M1.813 17.758l-.047-.047M1.766 17.71l-.048-.095M1.718 17.616v-.096M1.718 17.52l.048-.095M1.766 17.425l.047-.048M1.813 17.377l.095-.047M1.908 17.33h.238M2.146 17.33l.143.047M2.623 17.33l.238 1M2.86 18.33l.191-.714M3.051 17.616l.19.714M3.242 18.33l.238-1M3.623 18.425h.761M4.623 18.33v-1M4.623 17.33l.333.714M4.956 18.044l.333-.714M5.29 17.33v1M5.67 17.33l.667 1M6.337 17.33l-.667 1M6.48 18.425h.762M7.432 18.282l.143.048M7.575 18.33h.238M7.813 18.33l.095-.048M7.908 18.282l.048-.047M7.956 18.235l.048-.096M8.004 18.14v-.096M8.004 18.044l-.048-.095M7.956 17.949l-.048-.048M7.908 17.901l-.095-.047M7.813 17.854l-.19-.048M7.623 17.806l-.096-.048M7.527 17.758l-.047-.047M7.48 17.71l-.048-.095M7.432 17.616v-.096M7.432 17.52l.048-.095M7.48 17.425l.047-.048M7.527 17.377l.096-.047M7.623 17.33h.238M7.86 17.33l.144.047M8.575 18.33l-.095-.048M8.48 18.282l-.048-.095M8.432 18.187v-.857M8.956 18.33v-.667M8.956 17.33l-.048.047M8.908 17.377l.048.048M8.956 17.425l.048-.048M9.004 17.377l-.048-.047M8.956 17.33v.095M9.432 18.33v-.667M9.432 17.758l.048-.047M9.48 17.71l.095-.047M9.575 17.663h.143M9.718 17.663l.095.048M9.813 17.71l.048.096M9.86 17.806v.524M9.86 17.806l.048-.095M9.908 17.71l.096-.047M10.004 17.663h.142M10.146 17.663l.096.048M10.242 17.71l.047.096M10.29 17.806v.524M10.527 18.425h.762M11.527 18.33v-1M11.527 17.806h.572M12.099 18.33v-1M12.718 18.33l-.095-.048M12.623 18.282l-.048-.047M12.575 18.235l-.048-.096M12.527 18.14v-.286M12.527 17.854l.048-.096M12.575 17.758l.048-.047M12.623 17.71l.095-.047M12.718 17.663h.143M12.86 17.663l.096.048M12.956 17.71l.048.048M13.004 17.758l.047.096M13.051 17.854v.285M13.051 18.14l-.047.095M13.004 18.235l-.048.047M12.956 18.282l-.095.048M12.86 18.33h-.142M13.337 17.663h.38M13.48 17.33v.857M13.48 18.187l.047.095M13.527 18.282l.096.048M13.623 18.33h.095M14.004 18.282l.142.048M14.146 18.33h.238M14.385 18.33l.095-.048M14.48 18.282l.047-.047M14.527 18.235l.048-.096M14.575 18.14v-.096M14.575 18.044l-.048-.095M14.527 17.949l-.047-.048M14.48 17.901l-.096-.047M14.385 17.854l-.191-.048M14.194 17.806l-.095-.048M14.099 17.758l-.048-.047M14.051 17.71l-.047-.095M14.004 17.616v-.096M14.004 17.52l.047-.095M14.051 17.425l.048-.048M14.099 17.377l.095-.047M14.194 17.33h.238M14.432 17.33l.143.047M14.908 17.663l.19.667M15.099 18.33l.19-.476M15.29 17.854l.19.476M15.48 18.33l.19-.667M16.48 18.33v-.524M16.48 17.806l-.048-.095M16.432 17.71l-.095-.047M16.337 17.663h-.19M16.146 17.663l-.095.048M16.48 18.282l-.096.048M16.385 18.33h-.239M16.146 18.33l-.095-.048M16.051 18.282l-.047-.095M16.004 18.187v-.095M16.004 18.092l.047-.095M16.051 17.997l.095-.048M16.146 17.949h.238M16.385 17.949l.095-.048M16.956 17.663v1M16.956 17.71l.095-.047M17.051 17.663h.19M17.242 17.663l.095.048M17.337 17.71l.047.048M17.385 17.758l.047.096M17.432 17.854v.285M17.432 18.14l-.047.095M17.385 18.235l-.048.047M17.337 18.282l-.095.048M17.242 18.33h-.19M17.051 18.33l-.095-.048"/>
        </g>
        <g class="stroked-text">
            <path d="m8.242 19.93-.334-.476M7.67 19.93v-1M7.67 18.93h.381M8.051 18.93l.095.047M8.146 18.977l.048.048M8.194 19.025l.048.095M8.242 19.12v.143M8.242 19.263l-.048.095M8.194 19.358l-.048.048M8.146 19.406l-.095.048M8.051 19.454h-.38M8.67 19.406h.334M9.146 19.93H8.67M8.67 19.93v-1M8.67 18.93h.476M9.908 19.406h-.333M9.575 19.93v-1M9.575 18.93h.476M10.575 18.93v.238M10.337 19.073l.238.095M10.575 19.168l.238-.095M10.432 19.358l.143-.19M10.575 19.168l.143.19M11.337 18.93v.238M11.099 19.073l.238.095M11.337 19.168l.238-.095M11.194 19.358l.143-.19M11.337 19.168l.143.19"/>
        </g>
    </g>
    <g style="fill:none;stroke:#afafaf;stroke-width:.1;stroke-opacity:1;stroke-linecap:round;stroke-linejoin:round">
        <path d="M2.717 3.225v2.54M2.717 5.765h1.778M4.495 2.59v4.445M4.495 3.225H2.717M4.495 7.035h5.08M13.385 2.59h-8.89M15.925 8.305h1.753M15.925 8.94h-3.81M15.925 8.94V5.13M17.678 5.765h-1.753M17.678 8.305v-2.54"/>
        <path d="M7.825 13.155h3.5v3h-3.5Z" style="stroke:#afafaf;stroke-width:.1;stroke-opacity:1;stroke-linecap:round;stroke-linejoin:round;fill:none"/>
        <path d="M12.04 8.959a2.54 2.54 0 0 0-2.465-1.924M15.925 5.13a2.54 2.54 0 0 0-2.54-2.54"/>
    </g>
    <circle cx="4.495" cy="9.575" r=".85" style="fill:none;stroke:#afafaf;stroke-width:.0212;stroke-opacity:1;stroke-linecap:round;stroke-linejoin:round"/>
    <circle cx="7.035" cy="4.495" r="1.5" style="fill:none;stroke:#afafaf;stroke-width:.0212;stroke-opacity:1;stroke-linecap:round;stroke-linejoin:round"/>
    <circle cx="9.575" cy="9.575" r="2" style="fill:none;stroke:#afafaf;stroke-width:.0212;stroke-opacity:1;stroke-linecap:round;stroke-linejoin:round"/>
    <circle cx="13.385" cy="7.035" r="1.5" style="fill:none;stroke:#afafaf;stroke-width:.0212;stroke-opacity:1;stroke-linecap:round;stroke-linejoin:round"/>
    <circle cx="14.655" cy="9.575" r=".85" style="fill:none;stroke:#afafaf;stroke-width:.0212;stroke-opacity:1;stroke-linecap:round;stroke-linejoin:round"/>
    <g style="fill:none;stroke:#afafaf;stroke-width:.0694;stroke-opacity:1;stroke-linecap:round;stroke-linejoin:round">
        <g class="stroked-text">
            <path d="M17.145 6.797v.476M17.145 7.035h-.833M16.312 7.035l.119.08M16.43 7.114l.08.08M16.51 7.194l.04.08"/>
        </g>
        <path d="m15.863 6.035.02-.096.053-.08.081-.055.096-.019h1.3l.096.019.081.054.054.081.02.096v2l-.02.096-.054.08-.081.055-.096.019h-1.3l-.096-.019-.08-.054-.055-.081-.019-.096Z" style="stroke:#afafaf;stroke-width:.0212;stroke-opacity:1;stroke-linecap:round;stroke-linejoin:round;fill:none"/>
    </g>
    <g style="fill:none;stroke:#afafaf;stroke-width:.0694;stroke-opacity:1;stroke-linecap:round;stroke-linejoin:round">
        <g class="stroked-text">
            <path d="m3.285 4.733-.04-.04M3.245 4.693l-.04-.079M3.205 4.614v-.198M3.205 4.416l.04-.08M3.245 4.336l.04-.04M3.285 4.297l.08-.04M3.364 4.257h.08M3.444 4.257l.119.04M3.563 4.297l.476.476M4.039 4.773v-.516"/>
        </g>
        <path d="m2.757 3.495.019-.096.054-.08.081-.055.096-.019h1.3l.095.019.082.054.054.081.019.096v2l-.02.096-.053.08-.082.055-.095.019h-1.3l-.096-.019-.081-.054-.054-.081-.02-.096Z" style="stroke:#afafaf;stroke-width:.0212;stroke-opacity:1;stroke-linecap:round;stroke-linejoin:round;fill:none"/>
        <path d="M.05.05H19.1V19.1H.05Z" style="stroke:#c2c2c2;stroke-width:.1;stroke-opacity:1;stroke-linecap:round;stroke-linejoin:round;fill:none"/>
    </g>
</svg>
