<?xml version="1.0" standalone="no"?>
 <!DOCTYPE svg PUBLIC "-//W3C//DTD SVG 1.1//EN" 
 "http://www.w3.org/Graphics/SVG/1.1/DTD/svg11.dtd"> 
<svg
  xmlns:svg="http://www.w3.org/2000/svg"
  xmlns="http://www.w3.org/2000/svg"
  xmlns:xlink="http://www.w3.org/1999/xlink"
  version="1.1"
  width="19.1262mm" height="20.3200mm" viewBox="0.0000 0.0000 19.1262 20.3200">
<title>SVG Image created as SW_MX_Slim_HotSwap.svg date 2025/05/12 22:52:35 </title>
  <desc>Image generated by PCBNEW </desc>
<g style="fill:#000000; fill-opacity:1.0000;stroke:#000000; stroke-opacity:1.0000;
stroke-linecap:round; stroke-linejoin:round;"
 transform="translate(0 0) scale(1 1)">
</g>
<g style="fill:none; 
stroke:#E8B2A7; stroke-width:0.1500; stroke-opacity:1; 
stroke-linecap:round; stroke-linejoin:round;">
<text x="7.7970" y="4.9950"
transform="scale(-1 1) translate(-15.594000 0)"
textLength="4.5357" font-size="1.3333" lengthAdjust="spacingAndGlyphs"
text-anchor="middle" opacity="0" stroke-opacity="0">REF**</text>
<g class="stroked-text"><desc>REF**</desc>
<path d="M9.1303 4.9498
L9.4637 4.4736
" />
<path d="M9.7018 4.9498
L9.7018 3.9498
" />
<path d="M9.7018 3.9498
L9.3208 3.9498
" />
<path d="M9.3208 3.9498
L9.2256 3.9974
" />
<path d="M9.2256 3.9974
L9.1780 4.0451
" />
<path d="M9.1780 4.0451
L9.1303 4.1403
" />
<path d="M9.1303 4.1403
L9.1303 4.2832
" />
<path d="M9.1303 4.2832
L9.1780 4.3784
" />
<path d="M9.1780 4.3784
L9.2256 4.4260
" />
<path d="M9.2256 4.4260
L9.3208 4.4736
" />
<path d="M9.3208 4.4736
L9.7018 4.4736
" />
<path d="M8.7018 4.4260
L8.3684 4.4260
" />
<path d="M8.2256 4.9498
L8.7018 4.9498
" />
<path d="M8.7018 4.9498
L8.7018 3.9498
" />
<path d="M8.7018 3.9498
L8.2256 3.9498
" />
<path d="M7.4637 4.4260
L7.7970 4.4260
" />
<path d="M7.7970 4.9498
L7.7970 3.9498
" />
<path d="M7.7970 3.9498
L7.3208 3.9498
" />
<path d="M6.7970 3.9498
L6.7970 4.1879
" />
<path d="M7.0351 4.0927
L6.7970 4.1879
" />
<path d="M6.7970 4.1879
L6.5589 4.0927
" />
<path d="M6.9399 4.3784
L6.7970 4.1879
" />
<path d="M6.7970 4.1879
L6.6541 4.3784
" />
<path d="M6.0351 3.9498
L6.0351 4.1879
" />
<path d="M6.2732 4.0927
L6.0351 4.1879
" />
<path d="M6.0351 4.1879
L5.7970 4.0927
" />
<path d="M6.1780 4.3784
L6.0351 4.1879
" />
<path d="M6.0351 4.1879
L5.8922 4.3784
" />
</g></g>
<g style="fill:none; 
stroke:#E8B2A7; stroke-width:0.1200; stroke-opacity:1; 
stroke-linecap:round; stroke-linejoin:round;">
<path d="M3.2250 5.1300
L3.2250 5.4850
" />
<path d="M3.2250 8.5850
L3.2250 8.9400
" />
<path d="M3.5750 8.9400
L3.2250 8.9400
" />
<path d="M5.7650 2.5900
L14.6550 2.5900
" />
<path d="M7.1108 8.9400
L5.3840 8.9400
" />
<path d="M14.6550 2.5900
L14.6550 2.9450
" />
<path d="M14.6550 7.0350
L9.5750 7.0350
" />
<path d="M14.6550 7.0350
L14.6550 6.0450
" />
<path d="M5.7650 2.5900 A2.5400 2.5400 0.0 0 0 3.2250 5.1300" />
<path d="M9.5750 7.0350 A2.5400 2.5400 0.0 0 0 7.1154 8.9412" />
</g>
<g style="fill:none; 
stroke:#F2EDA1; stroke-width:0.1200; stroke-opacity:1; 
stroke-linecap:round; stroke-linejoin:round;">
<path d="M2.4750 2.4750
L2.4750 3.4750
" />
<path d="M2.4750 15.6750
L2.4750 16.6750
" />
<path d="M2.4750 16.6750
L3.4750 16.6750
" />
<path d="M3.4750 2.4750
L2.4750 2.4750
" />
<path d="M15.6750 16.6750
L16.6750 16.6750
" />
<path d="M16.6750 2.4750
L15.6750 2.4750
" />
<path d="M16.6750 2.4750
L16.6750 3.4750
" />
<path d="M16.6750 16.6750
L16.6750 15.6750
" />
<path style="fill:#00C2C2; fill-opacity:0.9000; stroke:none;fill-rule:evenodd;"
d="M 3.2868,8.0350
3.2678,8.1307
3.2136,8.2118
3.1325,8.2660
3.0368,8.2850
1.7368,8.2850
1.6411,8.2660
1.5600,8.2118
1.5058,8.1307
1.4868,8.0350
1.4868,6.0350
1.5058,5.9393
1.5600,5.8582
1.6411,5.8040
1.7368,5.7850
3.0368,5.7850
3.1325,5.8040
3.2136,5.8582
3.2678,5.9393
3.2868,6.0350
Z" /> 
<path style="fill:#00C2C2; fill-opacity:0.9000; stroke:none;fill-rule:evenodd;"
d="M 16.3932,5.4950
16.3742,5.5907
16.3200,5.6718
16.2389,5.7260
16.1432,5.7450
14.8432,5.7450
14.7475,5.7260
14.6664,5.6718
14.6122,5.5907
14.5932,5.4950
14.5932,3.4950
14.6122,3.3993
14.6664,3.3182
14.7475,3.2640
14.8432,3.2450
16.1432,3.2450
16.2389,3.2640
16.3200,3.3182
16.3742,3.3993
16.3932,3.4950
Z" /> 
<path style="fill:#4D7FC4; fill-opacity:1.0000; stroke:none;fill-rule:evenodd;"
d="M 3.2868,8.0350
3.2678,8.1307
3.2136,8.2118
3.1325,8.2660
3.0368,8.2850
1.7368,8.2850
1.6411,8.2660
1.5600,8.2118
1.5058,8.1307
1.4868,8.0350
1.4868,6.0350
1.5058,5.9393
1.5600,5.8582
1.6411,5.8040
1.7368,5.7850
3.0368,5.7850
3.1325,5.8040
3.2136,5.8582
3.2678,5.9393
3.2868,6.0350
Z" /> 
<path style="fill:#4D7FC4; fill-opacity:1.0000; stroke:none;fill-rule:evenodd;"
d="M 16.3932,5.4950
16.3742,5.5907
16.3200,5.6718
16.2389,5.7260
16.1432,5.7450
14.8432,5.7450
14.7475,5.7260
14.6664,5.6718
14.6122,5.5907
14.5932,5.4950
14.5932,3.4950
14.6122,3.3993
14.6664,3.3182
14.7475,3.2640
14.8432,3.2450
16.1432,3.2450
16.2389,3.2640
16.3200,3.3182
16.3742,3.3993
16.3932,3.4950
Z" /> 
</g>
<g style="fill:none; 
stroke:#585D84; stroke-width:0.1500; stroke-opacity:1; 
stroke-linecap:round; stroke-linejoin:round;">
<text x="9.5750" y="18.3750"
transform="scale(-1 1) translate(-19.150000 0)"
textLength="16.3452" font-size="1.3333" lengthAdjust="spacingAndGlyphs"
text-anchor="middle" opacity="0" stroke-opacity="0">SW_MX_Slim_HotSwap</text>
<g class="stroked-text"><desc>SW_MX_Slim_HotSwap</desc>
<path d="M17.4321 18.2822
L17.2893 18.3298
" />
<path d="M17.2893 18.3298
L17.0512 18.3298
" />
<path d="M17.0512 18.3298
L16.9560 18.2822
" />
<path d="M16.9560 18.2822
L16.9083 18.2346
" />
<path d="M16.9083 18.2346
L16.8607 18.1393
" />
<path d="M16.8607 18.1393
L16.8607 18.0441
" />
<path d="M16.8607 18.0441
L16.9083 17.9489
" />
<path d="M16.9083 17.9489
L16.9560 17.9012
" />
<path d="M16.9560 17.9012
L17.0512 17.8536
" />
<path d="M17.0512 17.8536
L17.2417 17.8060
" />
<path d="M17.2417 17.8060
L17.3369 17.7584
" />
<path d="M17.3369 17.7584
L17.3845 17.7108
" />
<path d="M17.3845 17.7108
L17.4321 17.6155
" />
<path d="M17.4321 17.6155
L17.4321 17.5203
" />
<path d="M17.4321 17.5203
L17.3845 17.4251
" />
<path d="M17.3845 17.4251
L17.3369 17.3774
" />
<path d="M17.3369 17.3774
L17.2417 17.3298
" />
<path d="M17.2417 17.3298
L17.0036 17.3298
" />
<path d="M17.0036 17.3298
L16.8607 17.3774
" />
<path d="M16.5274 17.3298
L16.2893 18.3298
" />
<path d="M16.2893 18.3298
L16.0988 17.6155
" />
<path d="M16.0988 17.6155
L15.9083 18.3298
" />
<path d="M15.9083 18.3298
L15.6702 17.3298
" />
<path d="M15.5274 18.4251
L14.7655 18.4251
" />
<path d="M14.5274 18.3298
L14.5274 17.3298
" />
<path d="M14.5274 17.3298
L14.1940 18.0441
" />
<path d="M14.1940 18.0441
L13.8607 17.3298
" />
<path d="M13.8607 17.3298
L13.8607 18.3298
" />
<path d="M13.4798 17.3298
L12.8131 18.3298
" />
<path d="M12.8131 17.3298
L13.4798 18.3298
" />
<path d="M12.6702 18.4251
L11.9083 18.4251
" />
<path d="M11.7179 18.2822
L11.5750 18.3298
" />
<path d="M11.5750 18.3298
L11.3369 18.3298
" />
<path d="M11.3369 18.3298
L11.2417 18.2822
" />
<path d="M11.2417 18.2822
L11.1940 18.2346
" />
<path d="M11.1940 18.2346
L11.1464 18.1393
" />
<path d="M11.1464 18.1393
L11.1464 18.0441
" />
<path d="M11.1464 18.0441
L11.1940 17.9489
" />
<path d="M11.1940 17.9489
L11.2417 17.9012
" />
<path d="M11.2417 17.9012
L11.3369 17.8536
" />
<path d="M11.3369 17.8536
L11.5274 17.8060
" />
<path d="M11.5274 17.8060
L11.6226 17.7584
" />
<path d="M11.6226 17.7584
L11.6702 17.7108
" />
<path d="M11.6702 17.7108
L11.7179 17.6155
" />
<path d="M11.7179 17.6155
L11.7179 17.5203
" />
<path d="M11.7179 17.5203
L11.6702 17.4251
" />
<path d="M11.6702 17.4251
L11.6226 17.3774
" />
<path d="M11.6226 17.3774
L11.5274 17.3298
" />
<path d="M11.5274 17.3298
L11.2893 17.3298
" />
<path d="M11.2893 17.3298
L11.1464 17.3774
" />
<path d="M10.5750 18.3298
L10.6702 18.2822
" />
<path d="M10.6702 18.2822
L10.7179 18.1870
" />
<path d="M10.7179 18.1870
L10.7179 17.3298
" />
<path d="M10.1940 18.3298
L10.1940 17.6632
" />
<path d="M10.1940 17.3298
L10.2417 17.3774
" />
<path d="M10.2417 17.3774
L10.1940 17.4251
" />
<path d="M10.1940 17.4251
L10.1464 17.3774
" />
<path d="M10.1464 17.3774
L10.1940 17.3298
" />
<path d="M10.1940 17.3298
L10.1940 17.4251
" />
<path d="M9.7179 18.3298
L9.7179 17.6632
" />
<path d="M9.7179 17.7584
L9.6702 17.7108
" />
<path d="M9.6702 17.7108
L9.5750 17.6632
" />
<path d="M9.5750 17.6632
L9.4321 17.6632
" />
<path d="M9.4321 17.6632
L9.3369 17.7108
" />
<path d="M9.3369 17.7108
L9.2893 17.8060
" />
<path d="M9.2893 17.8060
L9.2893 18.3298
" />
<path d="M9.2893 17.8060
L9.2417 17.7108
" />
<path d="M9.2417 17.7108
L9.1464 17.6632
" />
<path d="M9.1464 17.6632
L9.0036 17.6632
" />
<path d="M9.0036 17.6632
L8.9083 17.7108
" />
<path d="M8.9083 17.7108
L8.8607 17.8060
" />
<path d="M8.8607 17.8060
L8.8607 18.3298
" />
<path d="M8.6226 18.4251
L7.8607 18.4251
" />
<path d="M7.6226 18.3298
L7.6226 17.3298
" />
<path d="M7.6226 17.8060
L7.0512 17.8060
" />
<path d="M7.0512 18.3298
L7.0512 17.3298
" />
<path d="M6.4321 18.3298
L6.5274 18.2822
" />
<path d="M6.5274 18.2822
L6.5750 18.2346
" />
<path d="M6.5750 18.2346
L6.6226 18.1393
" />
<path d="M6.6226 18.1393
L6.6226 17.8536
" />
<path d="M6.6226 17.8536
L6.5750 17.7584
" />
<path d="M6.5750 17.7584
L6.5274 17.7108
" />
<path d="M6.5274 17.7108
L6.4321 17.6632
" />
<path d="M6.4321 17.6632
L6.2893 17.6632
" />
<path d="M6.2893 17.6632
L6.1940 17.7108
" />
<path d="M6.1940 17.7108
L6.1464 17.7584
" />
<path d="M6.1464 17.7584
L6.0988 17.8536
" />
<path d="M6.0988 17.8536
L6.0988 18.1393
" />
<path d="M6.0988 18.1393
L6.1464 18.2346
" />
<path d="M6.1464 18.2346
L6.1940 18.2822
" />
<path d="M6.1940 18.2822
L6.2893 18.3298
" />
<path d="M6.2893 18.3298
L6.4321 18.3298
" />
<path d="M5.8131 17.6632
L5.4321 17.6632
" />
<path d="M5.6702 17.3298
L5.6702 18.1870
" />
<path d="M5.6702 18.1870
L5.6226 18.2822
" />
<path d="M5.6226 18.2822
L5.5274 18.3298
" />
<path d="M5.5274 18.3298
L5.4321 18.3298
" />
<path d="M5.1464 18.2822
L5.0036 18.3298
" />
<path d="M5.0036 18.3298
L4.7655 18.3298
" />
<path d="M4.7655 18.3298
L4.6702 18.2822
" />
<path d="M4.6702 18.2822
L4.6226 18.2346
" />
<path d="M4.6226 18.2346
L4.5750 18.1393
" />
<path d="M4.5750 18.1393
L4.5750 18.0441
" />
<path d="M4.5750 18.0441
L4.6226 17.9489
" />
<path d="M4.6226 17.9489
L4.6702 17.9012
" />
<path d="M4.6702 17.9012
L4.7655 17.8536
" />
<path d="M4.7655 17.8536
L4.9560 17.8060
" />
<path d="M4.9560 17.8060
L5.0512 17.7584
" />
<path d="M5.0512 17.7584
L5.0988 17.7108
" />
<path d="M5.0988 17.7108
L5.1464 17.6155
" />
<path d="M5.1464 17.6155
L5.1464 17.5203
" />
<path d="M5.1464 17.5203
L5.0988 17.4251
" />
<path d="M5.0988 17.4251
L5.0512 17.3774
" />
<path d="M5.0512 17.3774
L4.9560 17.3298
" />
<path d="M4.9560 17.3298
L4.7179 17.3298
" />
<path d="M4.7179 17.3298
L4.5750 17.3774
" />
<path d="M4.2417 17.6632
L4.0512 18.3298
" />
<path d="M4.0512 18.3298
L3.8607 17.8536
" />
<path d="M3.8607 17.8536
L3.6702 18.3298
" />
<path d="M3.6702 18.3298
L3.4798 17.6632
" />
<path d="M2.6702 18.3298
L2.6702 17.8060
" />
<path d="M2.6702 17.8060
L2.7179 17.7108
" />
<path d="M2.7179 17.7108
L2.8131 17.6632
" />
<path d="M2.8131 17.6632
L3.0036 17.6632
" />
<path d="M3.0036 17.6632
L3.0988 17.7108
" />
<path d="M2.6702 18.2822
L2.7655 18.3298
" />
<path d="M2.7655 18.3298
L3.0036 18.3298
" />
<path d="M3.0036 18.3298
L3.0988 18.2822
" />
<path d="M3.0988 18.2822
L3.1464 18.1870
" />
<path d="M3.1464 18.1870
L3.1464 18.0917
" />
<path d="M3.1464 18.0917
L3.0988 17.9965
" />
<path d="M3.0988 17.9965
L3.0036 17.9489
" />
<path d="M3.0036 17.9489
L2.7655 17.9489
" />
<path d="M2.7655 17.9489
L2.6702 17.9012
" />
<path d="M2.1940 17.6632
L2.1940 18.6632
" />
<path d="M2.1940 17.7108
L2.0988 17.6632
" />
<path d="M2.0988 17.6632
L1.9083 17.6632
" />
<path d="M1.9083 17.6632
L1.8131 17.7108
" />
<path d="M1.8131 17.7108
L1.7655 17.7584
" />
<path d="M1.7655 17.7584
L1.7179 17.8536
" />
<path d="M1.7179 17.8536
L1.7179 18.1393
" />
<path d="M1.7179 18.1393
L1.7655 18.2346
" />
<path d="M1.7655 18.2346
L1.8131 18.2822
" />
<path d="M1.8131 18.2822
L1.9083 18.3298
" />
<path d="M1.9083 18.3298
L2.0988 18.3298
" />
<path d="M2.0988 18.3298
L2.1940 18.2822
" />
</g><text x="9.5750" y="19.9750"
transform="scale(-1 1) translate(-19.150000 0)"
textLength="4.5357" font-size="1.3333" lengthAdjust="spacingAndGlyphs"
text-anchor="middle" opacity="0" stroke-opacity="0">REF**</text>
<g class="stroked-text"><desc>REF**</desc>
<path d="M10.9083 19.9298
L11.2417 19.4536
" />
<path d="M11.4798 19.9298
L11.4798 18.9298
" />
<path d="M11.4798 18.9298
L11.0988 18.9298
" />
<path d="M11.0988 18.9298
L11.0036 18.9774
" />
<path d="M11.0036 18.9774
L10.9560 19.0251
" />
<path d="M10.9560 19.0251
L10.9083 19.1203
" />
<path d="M10.9083 19.1203
L10.9083 19.2632
" />
<path d="M10.9083 19.2632
L10.9560 19.3584
" />
<path d="M10.9560 19.3584
L11.0036 19.4060
" />
<path d="M11.0036 19.4060
L11.0988 19.4536
" />
<path d="M11.0988 19.4536
L11.4798 19.4536
" />
<path d="M10.4798 19.4060
L10.1464 19.4060
" />
<path d="M10.0036 19.9298
L10.4798 19.9298
" />
<path d="M10.4798 19.9298
L10.4798 18.9298
" />
<path d="M10.4798 18.9298
L10.0036 18.9298
" />
<path d="M9.2417 19.4060
L9.5750 19.4060
" />
<path d="M9.5750 19.9298
L9.5750 18.9298
" />
<path d="M9.5750 18.9298
L9.0988 18.9298
" />
<path d="M8.5750 18.9298
L8.5750 19.1679
" />
<path d="M8.8131 19.0727
L8.5750 19.1679
" />
<path d="M8.5750 19.1679
L8.3369 19.0727
" />
<path d="M8.7179 19.3584
L8.5750 19.1679
" />
<path d="M8.5750 19.1679
L8.4321 19.3584
" />
<path d="M7.8131 18.9298
L7.8131 19.1679
" />
<path d="M8.0512 19.0727
L7.8131 19.1679
" />
<path d="M7.8131 19.1679
L7.5750 19.0727
" />
<path d="M7.9560 19.3584
L7.8131 19.1679
" />
<path d="M7.8131 19.1679
L7.6702 19.3584
" />
</g></g>
<g style="fill:none; 
stroke:#585D84; stroke-width:0.1000; stroke-opacity:1; 
stroke-linecap:round; stroke-linejoin:round;">
<path d="M1.4724 5.7650
L3.2250 5.7650
" />
<path d="M1.4724 8.3050
L1.4724 5.7650
" />
<path d="M3.2250 8.3050
L1.4724 8.3050
" />
<path d="M3.2250 8.9400
L3.2250 5.1300
" />
<path d="M3.2250 8.9400
L7.0350 8.9400
" />
<path d="M5.7650 2.5900
L14.6550 2.5900
" />
<path d="M14.6550 2.5900
L14.6550 7.0350
" />
<path d="M14.6550 3.2250
L16.4330 3.2250
" />
<path d="M14.6550 7.0350
L9.5750 7.0350
" />
<path d="M16.4330 3.2250
L16.4330 5.7650
" />
<path d="M16.4330 5.7650
L14.6550 5.7650
" />
<path style="fill:none; 
stroke:#585D84; stroke-width:0.1000; stroke-opacity:1; 
stroke-linecap:round; stroke-linejoin:round;fill:none"
d="M 7.8250,13.1550
11.3250,13.1550
11.3250,16.1550
7.8250,16.1550
Z" /> 
<path d="M5.7650 2.5900 A2.5400 2.5400 0.0 0 0 3.2250 5.1300" />
<path d="M9.5750 7.0350 A2.5400 2.5400 0.0 0 0 7.1108 8.9590" />
</g>
<g style="fill:none; 
stroke:#585D84; stroke-width:0.0212; stroke-opacity:1; 
stroke-linecap:round; stroke-linejoin:round;">
<circle cx="4.4950" cy="9.5750" r="0.8500" /> 
</g>
<g style="fill:none; 
stroke:#585D84; stroke-width:0.0212; stroke-opacity:1; 
stroke-linecap:round; stroke-linejoin:round;">
<circle cx="5.7650" cy="7.0350" r="1.5000" /> 
</g>
<g style="fill:none; 
stroke:#585D84; stroke-width:0.0212; stroke-opacity:1; 
stroke-linecap:round; stroke-linejoin:round;">
<circle cx="9.5750" cy="9.5750" r="2.0000" /> 
</g>
<g style="fill:none; 
stroke:#585D84; stroke-width:0.0212; stroke-opacity:1; 
stroke-linecap:round; stroke-linejoin:round;">
<circle cx="12.1150" cy="4.4950" r="1.5000" /> 
</g>
<g style="fill:none; 
stroke:#585D84; stroke-width:0.0212; stroke-opacity:1; 
stroke-linecap:round; stroke-linejoin:round;">
<circle cx="14.6550" cy="9.5750" r="0.8500" /> 
</g>
<g style="fill:none; 
stroke:#585D84; stroke-width:0.0694; stroke-opacity:1; 
stroke-linecap:round; stroke-linejoin:round;">
<g transform="rotate(-90.000000 2.3868 7.0350)">
<text x="2.3868" y="7.4517"
textLength="0.8353" font-size="1.1111" lengthAdjust="spacingAndGlyphs"
text-anchor="middle" opacity="0" stroke-opacity="0">1</text>
</g>
<g class="stroked-text"><desc>1</desc>
<path d="M2.7687 6.7969
L2.7687 7.2731
" />
<path d="M2.7687 7.0350
L1.9354 7.0350
" />
<path d="M1.9354 7.0350
L2.0544 7.1144
" />
<path d="M2.0544 7.1144
L2.1338 7.1937
" />
<path d="M2.1338 7.1937
L2.1735 7.2731
" />
</g><path style="fill:none; 
stroke:#585D84; stroke-width:0.0212; stroke-opacity:1; 
stroke-linecap:round; stroke-linejoin:round;fill:none"
d="M 3.2868,8.0350
3.2678,8.1307
3.2136,8.2118
3.1325,8.2660
3.0368,8.2850
1.7368,8.2850
1.6411,8.2660
1.5600,8.2118
1.5058,8.1307
1.4868,8.0350
1.4868,6.0350
1.5058,5.9393
1.5600,5.8582
1.6411,5.8040
1.7368,5.7850
3.0368,5.7850
3.1325,5.8040
3.2136,5.8582
3.2678,5.9393
3.2868,6.0350
Z" /> 
</g>
<g style="fill:none; 
stroke:#585D84; stroke-width:0.0694; stroke-opacity:1; 
stroke-linecap:round; stroke-linejoin:round;">
<g transform="rotate(-90.000000 15.4932 4.4950)">
<text x="15.4932" y="4.9117"
textLength="0.8353" font-size="1.1111" lengthAdjust="spacingAndGlyphs"
text-anchor="middle" opacity="0" stroke-opacity="0">2</text>
</g>
<g class="stroked-text"><desc>2</desc>
<path d="M15.1211 4.7331
L15.0815 4.6934
" />
<path d="M15.0815 4.6934
L15.0418 4.6140
" />
<path d="M15.0418 4.6140
L15.0418 4.4156
" />
<path d="M15.0418 4.4156
L15.0815 4.3363
" />
<path d="M15.0815 4.3363
L15.1211 4.2966
" />
<path d="M15.1211 4.2966
L15.2005 4.2569
" />
<path d="M15.2005 4.2569
L15.2799 4.2569
" />
<path d="M15.2799 4.2569
L15.3989 4.2966
" />
<path d="M15.3989 4.2966
L15.8751 4.7728
" />
<path d="M15.8751 4.7728
L15.8751 4.2569
" />
</g><path style="fill:none; 
stroke:#585D84; stroke-width:0.0212; stroke-opacity:1; 
stroke-linecap:round; stroke-linejoin:round;fill:none"
d="M 16.3932,5.4950
16.3742,5.5907
16.3200,5.6718
16.2389,5.7260
16.1432,5.7450
14.8432,5.7450
14.7475,5.7260
14.6664,5.6718
14.6122,5.5907
14.5932,5.4950
14.5932,3.4950
14.6122,3.3993
14.6664,3.3182
14.7475,3.2640
14.8432,3.2450
16.1432,3.2450
16.2389,3.2640
16.3200,3.3182
16.3742,3.3993
16.3932,3.4950
Z" /> 
<path style="fill:none; 
stroke:#AFAFAF; stroke-width:0.1000; stroke-opacity:1; 
stroke-linecap:round; stroke-linejoin:round;fill:none"
d="M 2.5750,2.5750
16.5750,2.5750
16.5750,16.5750
2.5750,16.5750
Z" /> 
</g>
<g style="fill:none; 
stroke:#AFAFAF; stroke-width:0.0212; stroke-opacity:1; 
stroke-linecap:round; stroke-linejoin:round;">
<circle cx="4.4950" cy="9.5750" r="0.8500" /> 
</g>
<g style="fill:none; 
stroke:#AFAFAF; stroke-width:0.0212; stroke-opacity:1; 
stroke-linecap:round; stroke-linejoin:round;">
<circle cx="5.7650" cy="7.0350" r="1.5000" /> 
</g>
<g style="fill:none; 
stroke:#AFAFAF; stroke-width:0.0212; stroke-opacity:1; 
stroke-linecap:round; stroke-linejoin:round;">
<circle cx="9.5750" cy="9.5750" r="2.0000" /> 
</g>
<g style="fill:none; 
stroke:#AFAFAF; stroke-width:0.0212; stroke-opacity:1; 
stroke-linecap:round; stroke-linejoin:round;">
<circle cx="12.1150" cy="4.4950" r="1.5000" /> 
</g>
<g style="fill:none; 
stroke:#AFAFAF; stroke-width:0.0212; stroke-opacity:1; 
stroke-linecap:round; stroke-linejoin:round;">
<circle cx="14.6550" cy="9.5750" r="0.8500" /> 
<path style="fill:none; 
stroke:#C2C2C2; stroke-width:0.1000; stroke-opacity:1; 
stroke-linecap:round; stroke-linejoin:round;fill:none"
d="M 0.0500,0.0500
19.1000,0.0500
19.1000,19.1000
0.0500,19.1000
Z" /> 
</g> 
</svg>
