<svg xmlns="http://www.w3.org/2000/svg" width="95.04" height="76.8" viewBox="0 0 25.146 20.32">
    <g style="fill:none;stroke:#e8b2a7;stroke-width:.12;stroke-opacity:1;stroke-linecap:round;stroke-linejoin:round">
        <path d="M6.227 5.13v.355M6.227 8.585v.355M6.577 8.94h-.35M8.767 2.59h8.89M10.113 8.94H8.386M14.677 7.035h-2.1M17.657 2.59v.355M8.767 2.59a2.54 2.54 0 0 0-2.54 2.54M12.577 7.035a2.54 2.54 0 0 0-2.46 1.906"/>
    </g>
    <g class="stroked-text" style="fill:none;stroke:#f2eda1;stroke-width:.15;stroke-opacity:1;stroke-linecap:round;stroke-linejoin:round">
        <path d="m11.244 13.63-.333-.476M10.673 13.63v-1M10.673 12.63h.38M11.054 12.63l.095.047M11.149 12.677l.047.048M11.196 12.725l.048.095M11.244 12.82v.143M11.244 12.963l-.048.095M11.196 13.058l-.047.048M11.149 13.106l-.095.048M11.054 13.154h-.381M11.673 13.106h.333M12.149 13.63h-.476M11.673 13.63v-1M11.673 12.63h.476M12.91 13.106h-.333M12.577 13.63v-1M12.577 12.63h.477M13.577 12.63v.238M13.34 12.773l.237.095M13.577 12.868l.239-.095M13.435 13.058l.142-.19M13.577 12.868l.143.19M14.34 12.63v.238M14.101 12.773l.238.095M14.34 12.868l.237-.095M14.196 13.058l.143-.19M14.34 12.868l.142.19"/>
    </g>
    <g style="fill:none;stroke:#f2eda1;stroke-width:.12;stroke-opacity:1;stroke-linecap:round;stroke-linejoin:round">
        <path d="M7.497 2.59v.355M10.477 7.035h2.1M15.042 8.94h1.726M16.387 2.59h-8.89M18.577 8.94h.35M18.927 5.13v.355M18.927 8.585v.355M15.037 8.941a2.54 2.54 0 0 0-2.46-1.906M18.927 5.13a2.54 2.54 0 0 0-2.54-2.54"/>
        <path stroke="none" d="m6.292 8.035-.019.096-.054.08-.08.055-.097.019h-2.05l-.095-.019-.081-.054-.055-.081-.019-.096v-2l.02-.096.054-.08.08-.055.096-.019h2.05l.096.019.081.054.054.081.02.096ZM20.142 5.495l-.019.096-.054.08-.08.055-.097.019h-2.05l-.095-.019-.081-.054-.055-.081-.019-.096v-2l.02-.096.054-.08.08-.055.096-.019h2.05l.096.019.081.054.054.081.02.096Z" style="fill:#00c2c2;fill-opacity:.9;stroke:none;fill-rule:evenodd"/>
        <path stroke="none" d="m18.862 6.035.02-.096.054-.08.08-.055.096-.019h2.05l.096.019.081.054.054.081.02.096v2l-.02.096-.054.08-.08.055-.097.019h-2.05l-.095-.019-.081-.054-.055-.081-.019-.096ZM5.012 3.495l.02-.096.054-.08.08-.055.096-.019h2.05l.096.019.081.054.054.081.02.096v2l-.02.096-.054.08-.08.055-.097.019h-2.05l-.095-.019-.081-.054-.055-.081-.019-.096Z" style="fill:#b4a09a;fill-opacity:.9;stroke:none;fill-rule:evenodd"/>
        <path stroke="none" d="m6.292 8.035-.019.096-.054.08-.08.055-.097.019h-2.05l-.095-.019-.081-.054-.055-.081-.019-.096v-2l.02-.096.054-.08.08-.055.096-.019h2.05l.096.019.081.054.054.081.02.096ZM20.142 5.495l-.019.096-.054.08-.08.055-.097.019h-2.05l-.095-.019-.081-.054-.055-.081-.019-.096v-2l.02-.096.054-.08.08-.055.096-.019h2.05l.096.019.081.054.054.081.02.096Z" style="fill:#4d7fc4;fill-opacity:1;stroke:none;fill-rule:evenodd"/>
        <path stroke="none" d="m18.862 6.035.02-.096.054-.08.08-.055.096-.019h2.05l.096.019.081.054.054.081.02.096v2l-.02.096-.054.08-.08.055-.097.019h-2.05l-.095-.019-.081-.054-.055-.081-.019-.096ZM5.012 3.495l.02-.096.054-.08.08-.055.096-.019h2.05l.096.019.081.054.054.081.02.096v2l-.02.096-.054.08-.08.055-.097.019h-2.05l-.095-.019-.081-.054-.055-.081-.019-.096Z" style="fill:#c83434;fill-opacity:1;stroke:none;fill-rule:evenodd"/>
    </g>
    <g style="fill:none;stroke:#585d84;stroke-width:.1;stroke-opacity:1;stroke-linecap:round;stroke-linejoin:round">
        <path d="M3.687 5.765h2.54M3.687 8.305v-2.54M6.227 8.305h-2.54M6.227 8.94V5.13M6.227 8.94h3.81M8.767 2.59h8.89M17.657 2.59v4.445M17.657 3.225h2.54M17.657 7.035h-5.08M20.197 3.225v2.54M20.197 5.765h-2.54"/>
        <path d="M5.577 2.575h14v14h-14Z" style="stroke:#585d84;stroke-width:.1;stroke-opacity:1;stroke-linecap:round;stroke-linejoin:round;fill:none"/>
        <path d="M8.767 2.59a2.54 2.54 0 0 0-2.54 2.54M12.577 7.035a2.54 2.54 0 0 0-2.464 1.924"/>
    </g>
    <circle cx="7.497" cy="9.575" r=".85" style="fill:none;stroke:#585d84;stroke-width:.0212;stroke-opacity:1;stroke-linecap:round;stroke-linejoin:round"/>
    <circle cx="7.497" cy="9.575" r=".85" style="fill:none;stroke:#585d84;stroke-width:.0212;stroke-opacity:1;stroke-linecap:round;stroke-linejoin:round"/>
    <circle cx="8.767" cy="7.035" r="1.5" style="fill:none;stroke:#585d84;stroke-width:.0212;stroke-opacity:1;stroke-linecap:round;stroke-linejoin:round"/>
    <circle cx="10.037" cy="4.495" r="1.5" style="fill:none;stroke:#585d84;stroke-width:.0212;stroke-opacity:1;stroke-linecap:round;stroke-linejoin:round"/>
    <circle cx="12.577" cy="9.575" r="2" style="fill:none;stroke:#585d84;stroke-width:.0212;stroke-opacity:1;stroke-linecap:round;stroke-linejoin:round"/>
    <circle cx="15.117" cy="4.495" r="1.5" style="fill:none;stroke:#585d84;stroke-width:.0212;stroke-opacity:1;stroke-linecap:round;stroke-linejoin:round"/>
    <circle cx="16.387" cy="7.035" r="1.5" style="fill:none;stroke:#585d84;stroke-width:.0212;stroke-opacity:1;stroke-linecap:round;stroke-linejoin:round"/>
    <circle cx="17.657" cy="9.575" r=".85" style="fill:none;stroke:#585d84;stroke-width:.0212;stroke-opacity:1;stroke-linecap:round;stroke-linejoin:round"/>
    <circle cx="17.657" cy="9.575" r=".85" style="fill:none;stroke:#585d84;stroke-width:.0212;stroke-opacity:1;stroke-linecap:round;stroke-linejoin:round"/>
    <g style="fill:none;stroke:#585d84;stroke-width:.0708;stroke-opacity:1;stroke-linecap:round;stroke-linejoin:round">
        <g class="stroked-text">
            <path d="M5.26 7.425h-.486M5.017 7.425v-.85M5.017 6.575l-.08.121M4.936 6.696l-.08.08M4.856 6.777l-.082.04"/>
        </g>
        <path d="m6.292 8.035-.019.096-.054.08-.08.055-.097.019h-2.05l-.095-.019-.081-.054-.055-.081-.019-.096v-2l.02-.096.054-.08.08-.055.096-.019h2.05l.096.019.081.054.054.081.02.096Z" style="stroke:#585d84;stroke-width:.0212;stroke-opacity:1;stroke-linecap:round;stroke-linejoin:round;fill:none"/>
    </g>
    <g style="fill:none;stroke:#585d84;stroke-width:.0708;stroke-opacity:1;stroke-linecap:round;stroke-linejoin:round">
        <g class="stroked-text">
            <path d="m18.625 4.116.04-.041M18.665 4.075l.081-.04M18.746 4.035h.202M18.948 4.035l.081.04M19.03 4.075l.04.04M19.07 4.116l.04.08M19.11 4.196v.081M19.11 4.277l-.04.122M19.07 4.399l-.486.486M18.584 4.885h.526"/>
        </g>
        <path d="m20.142 5.495-.019.096-.054.08-.08.055-.097.019h-2.05l-.095-.019-.081-.054-.055-.081-.019-.096v-2l.02-.096.054-.08.08-.055.096-.019h2.05l.096.019.081.054.054.081.02.096Z" style="stroke:#585d84;stroke-width:.0212;stroke-opacity:1;stroke-linecap:round;stroke-linejoin:round;fill:none"/>
    </g>
    <g style="fill:none;stroke:#afafaf;stroke-width:.15;stroke-opacity:1;stroke-linecap:round;stroke-linejoin:round">
        <g class="stroked-text">
            <path d="m.316 18.282.142.048M.458 18.33h.238M.696 18.33l.096-.048M.792 18.282l.047-.047M.84 18.235l.047-.096M.887 18.14v-.096M.887 18.044l-.048-.095M.84 17.949.791 17.9M.792 17.901l-.096-.047M.696 17.854l-.19-.048M.506 17.806l-.095-.048M.41 17.758l-.047-.047M.363 17.71l-.047-.095M.316 17.616v-.096M.316 17.52l.047-.095M.363 17.425l.048-.048M.41 17.377l.096-.047M.506 17.33h.238M.744 17.33l.143.047M1.22 17.33l.238 1M1.458 18.33l.19-.714M1.649 17.616l.19.714M1.84 18.33l.237-1M2.22 18.425h.762M3.22 18.33v-1M3.22 17.33l.334.714M3.554 18.044l.333-.714M3.887 17.33v1M4.268 17.33l.667 1M4.935 17.33l-.667 1M5.077 18.425h.762M6.649 18.33l-.333-.476M6.077 18.33v-1M6.077 17.33h.381M6.458 17.33l.096.047M6.554 17.377l.047.048M6.601 17.425l.048.095M6.649 17.52v.143M6.649 17.663l-.048.095M6.601 17.758l-.047.048M6.554 17.806l-.096.048M6.458 17.854h-.38M7.458 18.282l-.095.048M7.363 18.33h-.19M7.173 18.33l-.096-.048M7.077 18.282l-.047-.095M7.03 18.187v-.381M7.03 17.806l.047-.095M7.077 17.71l.096-.047M7.173 17.663h.19M7.363 17.663l.095.048M7.458 17.71l.048.096M7.506 17.806v.095M7.506 17.901l-.476.096M7.84 17.663l.237.667M8.077 18.33l.239-.667M9.077 18.282l-.095.048M8.982 18.33h-.19M8.792 18.33l-.096-.048M8.696 18.282l-.047-.095M8.649 18.187v-.381M8.649 17.806l.047-.095M8.696 17.71l.096-.047M8.792 17.663h.19M8.982 17.663l.095.048M9.077 17.71l.048.096M9.125 17.806v.095M9.125 17.901l-.476.096M9.554 18.33v-.667M9.554 17.854l.047-.096M9.601 17.758l.048-.047M9.649 17.71l.095-.047M9.744 17.663h.095M10.125 18.282l.095.048M10.22 18.33h.19M10.41 18.33l.096-.048M10.506 18.282l.048-.095M10.554 18.187v-.048M10.554 18.14l-.048-.096M10.506 18.044l-.095-.047M10.41 17.997h-.142M10.268 17.997l-.095-.048M10.173 17.949l-.048-.095M10.125 17.854v-.048M10.125 17.806l.048-.095M10.173 17.71l.095-.047M10.268 17.663h.143M10.41 17.663l.096.048M10.982 18.33v-.667M10.982 17.33l-.047.047M10.935 17.377l.047.048M10.982 17.425l.048-.048M11.03 17.377l-.048-.047M10.982 17.33v.095M11.458 18.33v-1M11.458 17.71l.096-.047M11.554 17.663h.19M11.744 17.663l.095.048M11.84 17.71l.047.048M11.887 17.758l.047.096M11.935 17.854v.285M11.935 18.14l-.048.095M11.887 18.235l-.048.047M11.84 18.282l-.096.048M11.744 18.33h-.19M11.554 18.33l-.096-.048M12.506 18.33l-.095-.048M12.41 18.282l-.047-.095M12.363 18.187v-.857M13.268 18.282l-.095.048M13.173 18.33h-.19M12.982 18.33l-.095-.048M12.887 18.282l-.048-.095M12.84 18.187v-.381M12.84 17.806l.047-.095M12.887 17.71l.095-.047M12.982 17.663h.19M13.173 17.663l.095.048M13.268 17.71l.047.096M13.316 17.806v.095M13.316 17.901l-.477.096M13.506 18.425h.762M14.506 18.33v-1M14.506 17.806h.571M15.077 18.33v-1M15.696 18.33l-.095-.048M15.601 18.282l-.047-.047M15.554 18.235l-.048-.096M15.506 18.14v-.286M15.506 17.854l.048-.096M15.554 17.758l.047-.047M15.601 17.71l.095-.047M15.696 17.663h.143M15.84 17.663l.095.048M15.935 17.71l.047.048M15.982 17.758l.048.096M16.03 17.854v.285M16.03 18.14l-.048.095M15.982 18.235l-.047.047M15.935 18.282l-.096.048M15.84 18.33h-.144M16.316 17.663h.38M16.458 17.33v.857M16.458 18.187l.048.095M16.506 18.282l.095.048M16.601 18.33h.095M16.982 18.282l.143.048M17.125 18.33h.238M17.363 18.33l.095-.048M17.458 18.282l.048-.047M17.506 18.235l.048-.096M17.554 18.14v-.096M17.554 18.044l-.048-.095M17.506 17.949l-.048-.048M17.458 17.901l-.095-.047M17.363 17.854l-.19-.048M17.173 17.806l-.096-.048M17.077 17.758l-.047-.047M17.03 17.71l-.048-.095M16.982 17.616v-.096M16.982 17.52l.048-.095M17.03 17.425l.047-.048M17.077 17.377l.096-.047M17.173 17.33h.238M17.41 17.33l.144.047M17.887 17.663l.19.667M18.077 18.33l.19-.476M18.268 17.854l.19.476M18.458 18.33l.19-.667M19.458 18.33v-.524M19.458 17.806l-.047-.095M19.41 17.71l-.095-.047M19.316 17.663h-.191M19.125 17.663l-.095.048M19.458 18.282l-.095.048M19.363 18.33h-.238M19.125 18.33l-.095-.048M19.03 18.282l-.048-.095M18.982 18.187v-.095M18.982 18.092l.048-.095M19.03 17.997l.095-.048M19.125 17.949h.238M19.363 17.949l.095-.048M19.935 17.663v1M19.935 17.71l.095-.047M20.03 17.663h.19M20.22 17.663l.096.048M20.316 17.71l.047.048M20.363 17.758l.048.096M20.41 17.854v.285M20.41 18.14l-.047.095M20.363 18.235l-.047.047M20.316 18.282l-.096.048M20.22 18.33h-.19M20.03 18.33l-.096-.048M20.601 18.425h.762M21.601 17.663v.667M21.601 17.758l.048-.047M21.649 17.71l.095-.047M21.744 17.663h.143M21.887 17.663l.095.048M21.982 17.71l.048.096M22.03 17.806v.524M22.458 18.282l.143.048M22.601 18.33h.238M22.84 18.33l.095-.048M22.935 18.282l.047-.047M22.982 18.235l.048-.096M23.03 18.14v-.096M23.03 18.044l-.048-.095M22.982 17.949l-.047-.048M22.935 17.901l-.096-.047M22.84 17.854l-.191-.048M22.649 17.806l-.095-.048M22.554 17.758l-.048-.047M22.506 17.71l-.048-.095M22.458 17.616v-.096M22.458 17.52l.048-.095M22.506 17.425l.048-.048M22.554 17.377l.095-.047M22.649 17.33h.238M22.887 17.33l.143.047M23.458 18.33v-.667M23.458 17.33l-.047.047M23.41 17.377l.048.048M23.458 17.425l.048-.048M23.506 17.377l-.048-.047M23.458 17.33v.095M24.077 18.33l-.095-.048M23.982 18.282l-.047-.095M23.935 18.187v-.857M24.458 18.33v-1M24.554 17.949l.285.38M24.84 17.663l-.382.381"/>
        </g>
        <g class="stroked-text">
            <path d="m11.244 19.93-.333-.476M10.673 19.93v-1M10.673 18.93h.38M11.054 18.93l.095.047M11.149 18.977l.047.048M11.196 19.025l.048.095M11.244 19.12v.143M11.244 19.263l-.048.095M11.196 19.358l-.047.048M11.149 19.406l-.095.048M11.054 19.454h-.381M11.673 19.406h.333M12.149 19.93h-.476M11.673 19.93v-1M11.673 18.93h.476M12.91 19.406h-.333M12.577 19.93v-1M12.577 18.93h.477M13.577 18.93v.238M13.34 19.073l.237.095M13.577 19.168l.239-.095M13.435 19.358l.142-.19M13.577 19.168l.143.19M14.34 18.93v.238M14.101 19.073l.238.095M14.34 19.168l.237-.095M14.196 19.358l.143-.19M14.34 19.168l.142.19"/>
        </g>
    </g>
    <g style="fill:none;stroke:#afafaf;stroke-width:.1;stroke-opacity:1;stroke-linecap:round;stroke-linejoin:round">
        <path d="M4.957 3.225v2.54M4.957 5.765h2.54M7.497 2.59v4.445M7.497 3.225h-2.54M7.497 7.035h5.08M16.387 2.59h-8.89M18.927 8.305h2.54M18.927 8.94h-3.81M18.927 8.94V5.13M21.467 5.765h-2.54M21.467 8.305v-2.54"/>
        <path d="M10.827 13.155h3.5v3h-3.5Z" style="stroke:#afafaf;stroke-width:.1;stroke-opacity:1;stroke-linecap:round;stroke-linejoin:round;fill:none"/>
        <path d="M15.042 8.959a2.54 2.54 0 0 0-2.465-1.924M18.927 5.13a2.54 2.54 0 0 0-2.54-2.54"/>
    </g>
    <circle cx="7.497" cy="9.575" r=".85" style="fill:none;stroke:#afafaf;stroke-width:.0212;stroke-opacity:1;stroke-linecap:round;stroke-linejoin:round"/>
    <circle cx="7.497" cy="9.575" r=".85" style="fill:none;stroke:#afafaf;stroke-width:.0212;stroke-opacity:1;stroke-linecap:round;stroke-linejoin:round"/>
    <circle cx="8.767" cy="7.035" r="1.5" style="fill:none;stroke:#afafaf;stroke-width:.0212;stroke-opacity:1;stroke-linecap:round;stroke-linejoin:round"/>
    <circle cx="10.037" cy="4.495" r="1.5" style="fill:none;stroke:#afafaf;stroke-width:.0212;stroke-opacity:1;stroke-linecap:round;stroke-linejoin:round"/>
    <circle cx="12.577" cy="9.575" r="2" style="fill:none;stroke:#afafaf;stroke-width:.0212;stroke-opacity:1;stroke-linecap:round;stroke-linejoin:round"/>
    <circle cx="15.117" cy="4.495" r="1.5" style="fill:none;stroke:#afafaf;stroke-width:.0212;stroke-opacity:1;stroke-linecap:round;stroke-linejoin:round"/>
    <circle cx="16.387" cy="7.035" r="1.5" style="fill:none;stroke:#afafaf;stroke-width:.0212;stroke-opacity:1;stroke-linecap:round;stroke-linejoin:round"/>
    <circle cx="17.657" cy="9.575" r=".85" style="fill:none;stroke:#afafaf;stroke-width:.0212;stroke-opacity:1;stroke-linecap:round;stroke-linejoin:round"/>
    <circle cx="17.657" cy="9.575" r=".85" style="fill:none;stroke:#afafaf;stroke-width:.0212;stroke-opacity:1;stroke-linecap:round;stroke-linejoin:round"/>
    <g style="fill:none;stroke:#afafaf;stroke-width:.0708;stroke-opacity:1;stroke-linecap:round;stroke-linejoin:round">
        <g class="stroked-text">
            <path d="M20.38 7.425h-.485M20.137 7.425v-.85M20.137 6.575l-.08.121M20.056 6.696l-.08.08M19.976 6.777l-.081.04"/>
        </g>
        <path d="m18.862 6.035.02-.096.054-.08.08-.055.096-.019h2.05l.096.019.081.054.054.081.02.096v2l-.02.096-.054.08-.08.055-.097.019h-2.05l-.095-.019-.081-.054-.055-.081-.019-.096Z" style="stroke:#afafaf;stroke-width:.0212;stroke-opacity:1;stroke-linecap:round;stroke-linejoin:round;fill:none"/>
    </g>
    <g style="fill:none;stroke:#afafaf;stroke-width:.0708;stroke-opacity:1;stroke-linecap:round;stroke-linejoin:round">
        <g class="stroked-text">
            <path d="m6.045 4.116.04-.041M6.085 4.075l.081-.04M6.166 4.035h.202M6.368 4.035l.081.04M6.45 4.075l.04.04M6.49 4.116l.04.08M6.53 4.196v.081M6.53 4.277l-.04.122M6.49 4.399l-.486.486M6.004 4.885h.526"/>
        </g>
        <path d="m5.012 3.495.02-.096.054-.08.08-.055.096-.019h2.05l.096.019.081.054.054.081.02.096v2l-.02.096-.054.08-.08.055-.097.019h-2.05l-.095-.019-.081-.054-.055-.081-.019-.096Z" style="stroke:#afafaf;stroke-width:.0212;stroke-opacity:1;stroke-linecap:round;stroke-linejoin:round;fill:none"/>
        <path d="M3.052.05h19.05V19.1H3.052Z" style="stroke:#c2c2c2;stroke-width:.1;stroke-opacity:1;stroke-linecap:round;stroke-linejoin:round;fill:none"/>
    </g>
</svg>
