<?xml version="1.0" standalone="no"?>
 <!DOCTYPE svg PUBLIC "-//W3C//DTD SVG 1.1//EN" 
 "http://www.w3.org/Graphics/SVG/1.1/DTD/svg11.dtd"> 
<svg
  xmlns:svg="http://www.w3.org/2000/svg"
  xmlns="http://www.w3.org/2000/svg"
  xmlns:xlink="http://www.w3.org/1999/xlink"
  version="1.1"
  width="20.0406mm" height="20.3200mm" viewBox="0.0000 0.0000 20.0406 20.3200">
<title>SVG Image created as SW_MX_HotSwap_THT_nSilk.svg date 2025/05/13 13:29:23 </title>
  <desc>Image generated by PCBNEW </desc>
<g style="fill:#000000; fill-opacity:1.0000;stroke:#000000; stroke-opacity:1.0000;
stroke-linecap:round; stroke-linejoin:round;"
 transform="translate(0 0) scale(1 1)">
</g>
<g style="fill:none; 
stroke:#F2EDA1; stroke-width:0.1500; stroke-opacity:1; 
stroke-linecap:round; stroke-linejoin:round;">
<text x="10.0298" y="13.0750"
textLength="4.5357" font-size="1.3333" lengthAdjust="spacingAndGlyphs"
text-anchor="middle" opacity="0" stroke-opacity="0">REF**</text>
<g class="stroked-text"><desc>REF**</desc>
<path d="M8.6964 13.0298
L8.3631 12.5536
" />
<path d="M8.1250 13.0298
L8.1250 12.0298
" />
<path d="M8.1250 12.0298
L8.5060 12.0298
" />
<path d="M8.5060 12.0298
L8.6012 12.0774
" />
<path d="M8.6012 12.0774
L8.6488 12.1251
" />
<path d="M8.6488 12.1251
L8.6964 12.2203
" />
<path d="M8.6964 12.2203
L8.6964 12.3632
" />
<path d="M8.6964 12.3632
L8.6488 12.4584
" />
<path d="M8.6488 12.4584
L8.6012 12.5060
" />
<path d="M8.6012 12.5060
L8.5060 12.5536
" />
<path d="M8.5060 12.5536
L8.1250 12.5536
" />
<path d="M9.1250 12.5060
L9.4583 12.5060
" />
<path d="M9.6012 13.0298
L9.1250 13.0298
" />
<path d="M9.1250 13.0298
L9.1250 12.0298
" />
<path d="M9.1250 12.0298
L9.6012 12.0298
" />
<path d="M10.3631 12.5060
L10.0298 12.5060
" />
<path d="M10.0298 13.0298
L10.0298 12.0298
" />
<path d="M10.0298 12.0298
L10.5060 12.0298
" />
<path d="M11.0298 12.0298
L11.0298 12.2679
" />
<path d="M10.7917 12.1727
L11.0298 12.2679
" />
<path d="M11.0298 12.2679
L11.2679 12.1727
" />
<path d="M10.8869 12.4584
L11.0298 12.2679
" />
<path d="M11.0298 12.2679
L11.1726 12.4584
" />
<path d="M11.7917 12.0298
L11.7917 12.2679
" />
<path d="M11.5536 12.1727
L11.7917 12.2679
" />
<path d="M11.7917 12.2679
L12.0298 12.1727
" />
<path d="M11.6488 12.4584
L11.7917 12.2679
" />
<path d="M11.7917 12.2679
L11.9345 12.4584
" />
</g></g>
<g style="fill:none; 
stroke:#F2EDA1; stroke-width:0.1200; stroke-opacity:1; 
stroke-linecap:round; stroke-linejoin:round;">
<path d="M4.9498 2.5900
L4.9498 2.9450
" />
<path d="M4.9498 7.0350
L4.9498 6.0450
" />
<path d="M4.9498 7.0350
L10.0298 7.0350
" />
<path d="M12.4939 8.9400
L14.2208 8.9400
" />
<path d="M13.8398 2.5900
L4.9498 2.5900
" />
<path d="M16.0298 8.9400
L16.3798 8.9400
" />
<path d="M16.3798 5.1300
L16.3798 5.4850
" />
<path d="M16.3798 8.5850
L16.3798 8.9400
" />
<path d="M12.4894 8.9412 A2.5400 2.5400 0.0 0 0 10.0298 7.0350" />
<path d="M16.3798 5.1300 A2.5400 2.5400 0.0 0 0 13.8398 2.5900" />
<path style="fill:#B4A09A; fill-opacity:0.9000; stroke:none;fill-rule:evenodd;"
d="M 16.3148,6.0350
16.3338,5.9393
16.3880,5.8582
16.4691,5.8040
16.5648,5.7850
18.6148,5.7850
18.7104,5.8040
18.7915,5.8582
18.8457,5.9393
18.8648,6.0350
18.8648,8.0350
18.8457,8.1307
18.7915,8.2118
18.7104,8.2660
18.6148,8.2850
16.5648,8.2850
16.4691,8.2660
16.3880,8.2118
16.3338,8.1307
16.3148,8.0350
Z" /> 
<path style="fill:#B4A09A; fill-opacity:0.9000; stroke:none;fill-rule:evenodd;"
d="M 2.4648,3.4950
2.4838,3.3993
2.5380,3.3182
2.6191,3.2640
2.7148,3.2450
4.7648,3.2450
4.8604,3.2640
4.9415,3.3182
4.9957,3.3993
5.0148,3.4950
5.0148,5.4950
4.9957,5.5907
4.9415,5.6718
4.8604,5.7260
4.7648,5.7450
2.7148,5.7450
2.6191,5.7260
2.5380,5.6718
2.4838,5.5907
2.4648,5.4950
Z" /> 
</g>
<g style="fill:#4D7FC4; fill-opacity:1.0000; stroke:none;">
<circle cx="12.5698" cy="14.6550" r="1.1500" /> 
</g>
<g style="fill:#4D7FC4; fill-opacity:1.0000; stroke:none;">
<circle cx="6.2198" cy="12.1150" r="1.1500" /> 
</g>
<g style="fill:#C83434; fill-opacity:1.0000; stroke:none;">
<circle cx="12.5698" cy="14.6550" r="1.1500" /> 
<path style="fill:#C83434; fill-opacity:1.0000; stroke:none;fill-rule:evenodd;"
d="M 16.3148,6.0350
16.3338,5.9393
16.3880,5.8582
16.4691,5.8040
16.5648,5.7850
18.6148,5.7850
18.7104,5.8040
18.7915,5.8582
18.8457,5.9393
18.8648,6.0350
18.8648,8.0350
18.8457,8.1307
18.7915,8.2118
18.7104,8.2660
18.6148,8.2850
16.5648,8.2850
16.4691,8.2660
16.3880,8.2118
16.3338,8.1307
16.3148,8.0350
Z" /> 
<path style="fill:#C83434; fill-opacity:1.0000; stroke:none;fill-rule:evenodd;"
d="M 2.4648,3.4950
2.4838,3.3993
2.5380,3.3182
2.6191,3.2640
2.7148,3.2450
4.7648,3.2450
4.8604,3.2640
4.9415,3.3182
4.9957,3.3993
5.0148,3.4950
5.0148,5.4950
4.9957,5.5907
4.9415,5.6718
4.8604,5.7260
4.7648,5.7450
2.7148,5.7450
2.6191,5.7260
2.5380,5.6718
2.4838,5.5907
2.4648,5.4950
Z" /> 
</g>
<g style="fill:#C83434; fill-opacity:1.0000; stroke:none;">
<circle cx="6.2198" cy="12.1150" r="1.1500" /> 
<path style="fill:none; 
stroke:#585D84; stroke-width:0.1000; stroke-opacity:1; 
stroke-linecap:round; stroke-linejoin:round;fill:none"
d="M 3.0298,2.5750
17.0298,2.5750
17.0298,16.5750
3.0298,16.5750
Z" /> 
</g>
<g style="fill:none; 
stroke:#585D84; stroke-width:0.0212; stroke-opacity:1; 
stroke-linecap:round; stroke-linejoin:round;">
<circle cx="4.9498" cy="9.5750" r="0.8500" /> 
</g>
<g style="fill:none; 
stroke:#585D84; stroke-width:0.0212; stroke-opacity:1; 
stroke-linecap:round; stroke-linejoin:round;">
<circle cx="7.4898" cy="4.4950" r="1.5000" /> 
</g>
<g style="fill:none; 
stroke:#585D84; stroke-width:0.0212; stroke-opacity:1; 
stroke-linecap:round; stroke-linejoin:round;">
<circle cx="10.0298" cy="9.5750" r="2.0000" /> 
</g>
<g style="fill:none; 
stroke:#585D84; stroke-width:0.0212; stroke-opacity:1; 
stroke-linecap:round; stroke-linejoin:round;">
<circle cx="13.8398" cy="7.0350" r="1.5000" /> 
</g>
<g style="fill:none; 
stroke:#585D84; stroke-width:0.0212; stroke-opacity:1; 
stroke-linecap:round; stroke-linejoin:round;">
<circle cx="15.1098" cy="9.5750" r="0.8500" /> 
</g>
<g style="fill:none; 
stroke:#585D84; stroke-width:0.0639; stroke-opacity:1; 
stroke-linecap:round; stroke-linejoin:round;">
<text x="12.5698" y="15.0383"
textLength="0.7685" font-size="1.0222" lengthAdjust="spacingAndGlyphs"
text-anchor="middle" opacity="0" stroke-opacity="0">1</text>
<g class="stroked-text"><desc>1</desc>
<path d="M12.7888 15.0064
L12.3507 15.0064
" />
<path d="M12.5698 15.0064
L12.5698 14.2397
" />
<path d="M12.5698 14.2397
L12.4967 14.3492
" />
<path d="M12.4967 14.3492
L12.4237 14.4222
" />
<path d="M12.4237 14.4222
L12.3507 14.4587
" />
</g></g>
<g style="fill:none; 
stroke:#585D84; stroke-width:0.0212; stroke-opacity:1; 
stroke-linecap:round; stroke-linejoin:round;">
<circle cx="12.5698" cy="14.6550" r="1.1500" /> 
</g>
<g style="fill:none; 
stroke:#585D84; stroke-width:0.0639; stroke-opacity:1; 
stroke-linecap:round; stroke-linejoin:round;">
<text x="6.2198" y="12.4983"
textLength="0.7685" font-size="1.0222" lengthAdjust="spacingAndGlyphs"
text-anchor="middle" opacity="0" stroke-opacity="0">2</text>
<g class="stroked-text"><desc>2</desc>
<path d="M6.0007 11.7727
L6.0372 11.7362
" />
<path d="M6.0372 11.7362
L6.1102 11.6997
" />
<path d="M6.1102 11.6997
L6.2928 11.6997
" />
<path d="M6.2928 11.6997
L6.3658 11.7362
" />
<path d="M6.3658 11.7362
L6.4023 11.7727
" />
<path d="M6.4023 11.7727
L6.4388 11.8457
" />
<path d="M6.4388 11.8457
L6.4388 11.9187
" />
<path d="M6.4388 11.9187
L6.4023 12.0283
" />
<path d="M6.4023 12.0283
L5.9642 12.4664
" />
<path d="M5.9642 12.4664
L6.4388 12.4664
" />
</g></g>
<g style="fill:none; 
stroke:#585D84; stroke-width:0.0212; stroke-opacity:1; 
stroke-linecap:round; stroke-linejoin:round;">
<circle cx="6.2198" cy="12.1150" r="1.1500" /> 
</g>
<g style="fill:none; 
stroke:#AFAFAF; stroke-width:0.1500; stroke-opacity:1; 
stroke-linecap:round; stroke-linejoin:round;">
<text x="10.0298" y="18.3750"
textLength="20.0595" font-size="1.3333" lengthAdjust="spacingAndGlyphs"
text-anchor="middle" opacity="0" stroke-opacity="0">SW_MX_HotSwap_THT_nSilk</text>
<g class="stroked-text"><desc>SW_MX_HotSwap_THT_nSilk</desc>
<path d="M0.3155 18.2822
L0.4583 18.3298
" />
<path d="M0.4583 18.3298
L0.6964 18.3298
" />
<path d="M0.6964 18.3298
L0.7917 18.2822
" />
<path d="M0.7917 18.2822
L0.8393 18.2346
" />
<path d="M0.8393 18.2346
L0.8869 18.1393
" />
<path d="M0.8869 18.1393
L0.8869 18.0441
" />
<path d="M0.8869 18.0441
L0.8393 17.9489
" />
<path d="M0.8393 17.9489
L0.7917 17.9012
" />
<path d="M0.7917 17.9012
L0.6964 17.8536
" />
<path d="M0.6964 17.8536
L0.5060 17.8060
" />
<path d="M0.5060 17.8060
L0.4107 17.7584
" />
<path d="M0.4107 17.7584
L0.3631 17.7108
" />
<path d="M0.3631 17.7108
L0.3155 17.6155
" />
<path d="M0.3155 17.6155
L0.3155 17.5203
" />
<path d="M0.3155 17.5203
L0.3631 17.4251
" />
<path d="M0.3631 17.4251
L0.4107 17.3774
" />
<path d="M0.4107 17.3774
L0.5060 17.3298
" />
<path d="M0.5060 17.3298
L0.7440 17.3298
" />
<path d="M0.7440 17.3298
L0.8869 17.3774
" />
<path d="M1.2202 17.3298
L1.4583 18.3298
" />
<path d="M1.4583 18.3298
L1.6488 17.6155
" />
<path d="M1.6488 17.6155
L1.8393 18.3298
" />
<path d="M1.8393 18.3298
L2.0774 17.3298
" />
<path d="M2.2202 18.4251
L2.9821 18.4251
" />
<path d="M3.2202 18.3298
L3.2202 17.3298
" />
<path d="M3.2202 17.3298
L3.5536 18.0441
" />
<path d="M3.5536 18.0441
L3.8869 17.3298
" />
<path d="M3.8869 17.3298
L3.8869 18.3298
" />
<path d="M4.2679 17.3298
L4.9345 18.3298
" />
<path d="M4.9345 17.3298
L4.2679 18.3298
" />
<path d="M5.0774 18.4251
L5.8393 18.4251
" />
<path d="M6.0774 18.3298
L6.0774 17.3298
" />
<path d="M6.0774 17.8060
L6.6488 17.8060
" />
<path d="M6.6488 18.3298
L6.6488 17.3298
" />
<path d="M7.2679 18.3298
L7.1726 18.2822
" />
<path d="M7.1726 18.2822
L7.1250 18.2346
" />
<path d="M7.1250 18.2346
L7.0774 18.1393
" />
<path d="M7.0774 18.1393
L7.0774 17.8536
" />
<path d="M7.0774 17.8536
L7.1250 17.7584
" />
<path d="M7.1250 17.7584
L7.1726 17.7108
" />
<path d="M7.1726 17.7108
L7.2679 17.6632
" />
<path d="M7.2679 17.6632
L7.4107 17.6632
" />
<path d="M7.4107 17.6632
L7.5060 17.7108
" />
<path d="M7.5060 17.7108
L7.5536 17.7584
" />
<path d="M7.5536 17.7584
L7.6012 17.8536
" />
<path d="M7.6012 17.8536
L7.6012 18.1393
" />
<path d="M7.6012 18.1393
L7.5536 18.2346
" />
<path d="M7.5536 18.2346
L7.5060 18.2822
" />
<path d="M7.5060 18.2822
L7.4107 18.3298
" />
<path d="M7.4107 18.3298
L7.2679 18.3298
" />
<path d="M7.8869 17.6632
L8.2679 17.6632
" />
<path d="M8.0298 17.3298
L8.0298 18.1870
" />
<path d="M8.0298 18.1870
L8.0774 18.2822
" />
<path d="M8.0774 18.2822
L8.1726 18.3298
" />
<path d="M8.1726 18.3298
L8.2679 18.3298
" />
<path d="M8.5536 18.2822
L8.6964 18.3298
" />
<path d="M8.6964 18.3298
L8.9345 18.3298
" />
<path d="M8.9345 18.3298
L9.0298 18.2822
" />
<path d="M9.0298 18.2822
L9.0774 18.2346
" />
<path d="M9.0774 18.2346
L9.1250 18.1393
" />
<path d="M9.1250 18.1393
L9.1250 18.0441
" />
<path d="M9.1250 18.0441
L9.0774 17.9489
" />
<path d="M9.0774 17.9489
L9.0298 17.9012
" />
<path d="M9.0298 17.9012
L8.9345 17.8536
" />
<path d="M8.9345 17.8536
L8.7440 17.8060
" />
<path d="M8.7440 17.8060
L8.6488 17.7584
" />
<path d="M8.6488 17.7584
L8.6012 17.7108
" />
<path d="M8.6012 17.7108
L8.5536 17.6155
" />
<path d="M8.5536 17.6155
L8.5536 17.5203
" />
<path d="M8.5536 17.5203
L8.6012 17.4251
" />
<path d="M8.6012 17.4251
L8.6488 17.3774
" />
<path d="M8.6488 17.3774
L8.7440 17.3298
" />
<path d="M8.7440 17.3298
L8.9821 17.3298
" />
<path d="M8.9821 17.3298
L9.1250 17.3774
" />
<path d="M9.4583 17.6632
L9.6488 18.3298
" />
<path d="M9.6488 18.3298
L9.8393 17.8536
" />
<path d="M9.8393 17.8536
L10.0298 18.3298
" />
<path d="M10.0298 18.3298
L10.2202 17.6632
" />
<path d="M11.0298 18.3298
L11.0298 17.8060
" />
<path d="M11.0298 17.8060
L10.9821 17.7108
" />
<path d="M10.9821 17.7108
L10.8869 17.6632
" />
<path d="M10.8869 17.6632
L10.6964 17.6632
" />
<path d="M10.6964 17.6632
L10.6012 17.7108
" />
<path d="M11.0298 18.2822
L10.9345 18.3298
" />
<path d="M10.9345 18.3298
L10.6964 18.3298
" />
<path d="M10.6964 18.3298
L10.6012 18.2822
" />
<path d="M10.6012 18.2822
L10.5536 18.1870
" />
<path d="M10.5536 18.1870
L10.5536 18.0917
" />
<path d="M10.5536 18.0917
L10.6012 17.9965
" />
<path d="M10.6012 17.9965
L10.6964 17.9489
" />
<path d="M10.6964 17.9489
L10.9345 17.9489
" />
<path d="M10.9345 17.9489
L11.0298 17.9012
" />
<path d="M11.5060 17.6632
L11.5060 18.6632
" />
<path d="M11.5060 17.7108
L11.6012 17.6632
" />
<path d="M11.6012 17.6632
L11.7917 17.6632
" />
<path d="M11.7917 17.6632
L11.8869 17.7108
" />
<path d="M11.8869 17.7108
L11.9345 17.7584
" />
<path d="M11.9345 17.7584
L11.9821 17.8536
" />
<path d="M11.9821 17.8536
L11.9821 18.1393
" />
<path d="M11.9821 18.1393
L11.9345 18.2346
" />
<path d="M11.9345 18.2346
L11.8869 18.2822
" />
<path d="M11.8869 18.2822
L11.7917 18.3298
" />
<path d="M11.7917 18.3298
L11.6012 18.3298
" />
<path d="M11.6012 18.3298
L11.5060 18.2822
" />
<path d="M12.1726 18.4251
L12.9345 18.4251
" />
<path d="M13.0298 17.3298
L13.6012 17.3298
" />
<path d="M13.3155 18.3298
L13.3155 17.3298
" />
<path d="M13.9345 18.3298
L13.9345 17.3298
" />
<path d="M13.9345 17.8060
L14.5060 17.8060
" />
<path d="M14.5060 18.3298
L14.5060 17.3298
" />
<path d="M14.8393 17.3298
L15.4107 17.3298
" />
<path d="M15.1250 18.3298
L15.1250 17.3298
" />
<path d="M15.5060 18.4251
L16.2679 18.4251
" />
<path d="M16.5060 17.6632
L16.5060 18.3298
" />
<path d="M16.5060 17.7584
L16.5536 17.7108
" />
<path d="M16.5536 17.7108
L16.6488 17.6632
" />
<path d="M16.6488 17.6632
L16.7917 17.6632
" />
<path d="M16.7917 17.6632
L16.8869 17.7108
" />
<path d="M16.8869 17.7108
L16.9345 17.8060
" />
<path d="M16.9345 17.8060
L16.9345 18.3298
" />
<path d="M17.3631 18.2822
L17.5060 18.3298
" />
<path d="M17.5060 18.3298
L17.7440 18.3298
" />
<path d="M17.7440 18.3298
L17.8393 18.2822
" />
<path d="M17.8393 18.2822
L17.8869 18.2346
" />
<path d="M17.8869 18.2346
L17.9345 18.1393
" />
<path d="M17.9345 18.1393
L17.9345 18.0441
" />
<path d="M17.9345 18.0441
L17.8869 17.9489
" />
<path d="M17.8869 17.9489
L17.8393 17.9012
" />
<path d="M17.8393 17.9012
L17.7440 17.8536
" />
<path d="M17.7440 17.8536
L17.5536 17.8060
" />
<path d="M17.5536 17.8060
L17.4583 17.7584
" />
<path d="M17.4583 17.7584
L17.4107 17.7108
" />
<path d="M17.4107 17.7108
L17.3631 17.6155
" />
<path d="M17.3631 17.6155
L17.3631 17.5203
" />
<path d="M17.3631 17.5203
L17.4107 17.4251
" />
<path d="M17.4107 17.4251
L17.4583 17.3774
" />
<path d="M17.4583 17.3774
L17.5536 17.3298
" />
<path d="M17.5536 17.3298
L17.7917 17.3298
" />
<path d="M17.7917 17.3298
L17.9345 17.3774
" />
<path d="M18.3631 18.3298
L18.3631 17.6632
" />
<path d="M18.3631 17.3298
L18.3155 17.3774
" />
<path d="M18.3155 17.3774
L18.3631 17.4251
" />
<path d="M18.3631 17.4251
L18.4107 17.3774
" />
<path d="M18.4107 17.3774
L18.3631 17.3298
" />
<path d="M18.3631 17.3298
L18.3631 17.4251
" />
<path d="M18.9821 18.3298
L18.8869 18.2822
" />
<path d="M18.8869 18.2822
L18.8393 18.1870
" />
<path d="M18.8393 18.1870
L18.8393 17.3298
" />
<path d="M19.3631 18.3298
L19.3631 17.3298
" />
<path d="M19.4583 17.9489
L19.7440 18.3298
" />
<path d="M19.7440 17.6632
L19.3631 18.0441
" />
</g><text x="10.0298" y="19.9750"
textLength="4.5357" font-size="1.3333" lengthAdjust="spacingAndGlyphs"
text-anchor="middle" opacity="0" stroke-opacity="0">REF**</text>
<g class="stroked-text"><desc>REF**</desc>
<path d="M8.6964 19.9298
L8.3631 19.4536
" />
<path d="M8.1250 19.9298
L8.1250 18.9298
" />
<path d="M8.1250 18.9298
L8.5060 18.9298
" />
<path d="M8.5060 18.9298
L8.6012 18.9774
" />
<path d="M8.6012 18.9774
L8.6488 19.0251
" />
<path d="M8.6488 19.0251
L8.6964 19.1203
" />
<path d="M8.6964 19.1203
L8.6964 19.2632
" />
<path d="M8.6964 19.2632
L8.6488 19.3584
" />
<path d="M8.6488 19.3584
L8.6012 19.4060
" />
<path d="M8.6012 19.4060
L8.5060 19.4536
" />
<path d="M8.5060 19.4536
L8.1250 19.4536
" />
<path d="M9.1250 19.4060
L9.4583 19.4060
" />
<path d="M9.6012 19.9298
L9.1250 19.9298
" />
<path d="M9.1250 19.9298
L9.1250 18.9298
" />
<path d="M9.1250 18.9298
L9.6012 18.9298
" />
<path d="M10.3631 19.4060
L10.0298 19.4060
" />
<path d="M10.0298 19.9298
L10.0298 18.9298
" />
<path d="M10.0298 18.9298
L10.5060 18.9298
" />
<path d="M11.0298 18.9298
L11.0298 19.1679
" />
<path d="M10.7917 19.0727
L11.0298 19.1679
" />
<path d="M11.0298 19.1679
L11.2679 19.0727
" />
<path d="M10.8869 19.3584
L11.0298 19.1679
" />
<path d="M11.0298 19.1679
L11.1726 19.3584
" />
<path d="M11.7917 18.9298
L11.7917 19.1679
" />
<path d="M11.5536 19.0727
L11.7917 19.1679
" />
<path d="M11.7917 19.1679
L12.0298 19.0727
" />
<path d="M11.6488 19.3584
L11.7917 19.1679
" />
<path d="M11.7917 19.1679
L11.9345 19.3584
" />
</g></g>
<g style="fill:none; 
stroke:#AFAFAF; stroke-width:0.1000; stroke-opacity:1; 
stroke-linecap:round; stroke-linejoin:round;">
<path d="M2.4098 3.2250
L2.4098 5.7650
" />
<path d="M2.4098 5.7650
L4.9498 5.7650
" />
<path d="M4.9498 2.5900
L4.9498 7.0350
" />
<path d="M4.9498 3.2250
L2.4098 3.2250
" />
<path d="M4.9498 7.0350
L10.0298 7.0350
" />
<path d="M13.8398 2.5900
L4.9498 2.5900
" />
<path d="M16.3798 8.3050
L18.9198 8.3050
" />
<path d="M16.3798 8.9400
L12.5698 8.9400
" />
<path d="M16.3798 8.9400
L16.3798 5.1300
" />
<path d="M18.9198 5.7650
L16.3798 5.7650
" />
<path d="M18.9198 8.3050
L18.9198 5.7650
" />
<path d="M12.4939 8.9590 A2.5400 2.5400 0.0 0 0 10.0298 7.0350" />
<path d="M16.3798 5.1300 A2.5400 2.5400 0.0 0 0 13.8398 2.5900" />
</g>
<g style="fill:none; 
stroke:#AFAFAF; stroke-width:0.0212; stroke-opacity:1; 
stroke-linecap:round; stroke-linejoin:round;">
<circle cx="4.9498" cy="9.5750" r="0.8500" /> 
</g>
<g style="fill:none; 
stroke:#AFAFAF; stroke-width:0.0212; stroke-opacity:1; 
stroke-linecap:round; stroke-linejoin:round;">
<circle cx="7.4898" cy="4.4950" r="1.5000" /> 
</g>
<g style="fill:none; 
stroke:#AFAFAF; stroke-width:0.0212; stroke-opacity:1; 
stroke-linecap:round; stroke-linejoin:round;">
<circle cx="10.0298" cy="9.5750" r="2.0000" /> 
</g>
<g style="fill:none; 
stroke:#AFAFAF; stroke-width:0.0212; stroke-opacity:1; 
stroke-linecap:round; stroke-linejoin:round;">
<circle cx="13.8398" cy="7.0350" r="1.5000" /> 
</g>
<g style="fill:none; 
stroke:#AFAFAF; stroke-width:0.0212; stroke-opacity:1; 
stroke-linecap:round; stroke-linejoin:round;">
<circle cx="15.1098" cy="9.5750" r="0.8500" /> 
</g>
<g style="fill:none; 
stroke:#AFAFAF; stroke-width:0.0639; stroke-opacity:1; 
stroke-linecap:round; stroke-linejoin:round;">
<text x="12.5698" y="15.0383"
textLength="0.7685" font-size="1.0222" lengthAdjust="spacingAndGlyphs"
text-anchor="middle" opacity="0" stroke-opacity="0">1</text>
<g class="stroked-text"><desc>1</desc>
<path d="M12.7888 15.0064
L12.3507 15.0064
" />
<path d="M12.5698 15.0064
L12.5698 14.2397
" />
<path d="M12.5698 14.2397
L12.4967 14.3492
" />
<path d="M12.4967 14.3492
L12.4237 14.4222
" />
<path d="M12.4237 14.4222
L12.3507 14.4587
" />
</g></g>
<g style="fill:none; 
stroke:#AFAFAF; stroke-width:0.0212; stroke-opacity:1; 
stroke-linecap:round; stroke-linejoin:round;">
<circle cx="12.5698" cy="14.6550" r="1.1500" /> 
</g>
<g style="fill:none; 
stroke:#AFAFAF; stroke-width:0.0708; stroke-opacity:1; 
stroke-linecap:round; stroke-linejoin:round;">
<text x="17.5898" y="7.4600"
textLength="0.8520" font-size="1.1333" lengthAdjust="spacingAndGlyphs"
text-anchor="middle" opacity="0" stroke-opacity="0">1</text>
<g class="stroked-text"><desc>1</desc>
<path d="M17.8326 7.4245
L17.3469 7.4245
" />
<path d="M17.5898 7.4245
L17.5898 6.5745
" />
<path d="M17.5898 6.5745
L17.5088 6.6960
" />
<path d="M17.5088 6.6960
L17.4279 6.7769
" />
<path d="M17.4279 6.7769
L17.3469 6.8174
" />
</g><path style="fill:none; 
stroke:#AFAFAF; stroke-width:0.0212; stroke-opacity:1; 
stroke-linecap:round; stroke-linejoin:round;fill:none"
d="M 16.3148,6.0350
16.3338,5.9393
16.3880,5.8582
16.4691,5.8040
16.5648,5.7850
18.6148,5.7850
18.7104,5.8040
18.7915,5.8582
18.8457,5.9393
18.8648,6.0350
18.8648,8.0350
18.8457,8.1307
18.7915,8.2118
18.7104,8.2660
18.6148,8.2850
16.5648,8.2850
16.4691,8.2660
16.3880,8.2118
16.3338,8.1307
16.3148,8.0350
Z" /> 
</g>
<g style="fill:none; 
stroke:#AFAFAF; stroke-width:0.0708; stroke-opacity:1; 
stroke-linecap:round; stroke-linejoin:round;">
<text x="3.7398" y="4.9200"
textLength="0.8520" font-size="1.1333" lengthAdjust="spacingAndGlyphs"
text-anchor="middle" opacity="0" stroke-opacity="0">2</text>
<g class="stroked-text"><desc>2</desc>
<path d="M3.4969 4.1155
L3.5374 4.0750
" />
<path d="M3.5374 4.0750
L3.6183 4.0345
" />
<path d="M3.6183 4.0345
L3.8207 4.0345
" />
<path d="M3.8207 4.0345
L3.9017 4.0750
" />
<path d="M3.9017 4.0750
L3.9421 4.1155
" />
<path d="M3.9421 4.1155
L3.9826 4.1964
" />
<path d="M3.9826 4.1964
L3.9826 4.2774
" />
<path d="M3.9826 4.2774
L3.9421 4.3988
" />
<path d="M3.9421 4.3988
L3.4564 4.8845
" />
<path d="M3.4564 4.8845
L3.9826 4.8845
" />
</g><path style="fill:none; 
stroke:#AFAFAF; stroke-width:0.0212; stroke-opacity:1; 
stroke-linecap:round; stroke-linejoin:round;fill:none"
d="M 2.4648,3.4950
2.4838,3.3993
2.5380,3.3182
2.6191,3.2640
2.7148,3.2450
4.7648,3.2450
4.8604,3.2640
4.9415,3.3182
4.9957,3.3993
5.0148,3.4950
5.0148,5.4950
4.9957,5.5907
4.9415,5.6718
4.8604,5.7260
4.7648,5.7450
2.7148,5.7450
2.6191,5.7260
2.5380,5.6718
2.4838,5.5907
2.4648,5.4950
Z" /> 
</g>
<g style="fill:none; 
stroke:#AFAFAF; stroke-width:0.0639; stroke-opacity:1; 
stroke-linecap:round; stroke-linejoin:round;">
<text x="6.2198" y="12.4983"
textLength="0.7685" font-size="1.0222" lengthAdjust="spacingAndGlyphs"
text-anchor="middle" opacity="0" stroke-opacity="0">2</text>
<g class="stroked-text"><desc>2</desc>
<path d="M6.0007 11.7727
L6.0372 11.7362
" />
<path d="M6.0372 11.7362
L6.1102 11.6997
" />
<path d="M6.1102 11.6997
L6.2928 11.6997
" />
<path d="M6.2928 11.6997
L6.3658 11.7362
" />
<path d="M6.3658 11.7362
L6.4023 11.7727
" />
<path d="M6.4023 11.7727
L6.4388 11.8457
" />
<path d="M6.4388 11.8457
L6.4388 11.9187
" />
<path d="M6.4388 11.9187
L6.4023 12.0283
" />
<path d="M6.4023 12.0283
L5.9642 12.4664
" />
<path d="M5.9642 12.4664
L6.4388 12.4664
" />
</g></g>
<g style="fill:none; 
stroke:#AFAFAF; stroke-width:0.0212; stroke-opacity:1; 
stroke-linecap:round; stroke-linejoin:round;">
<circle cx="6.2198" cy="12.1150" r="1.1500" /> 
<path style="fill:none; 
stroke:#C2C2C2; stroke-width:0.1000; stroke-opacity:1; 
stroke-linecap:round; stroke-linejoin:round;fill:none"
d="M 0.5048,0.0500
19.5548,0.0500
19.5548,19.1000
0.5048,19.1000
Z" /> 
</g> 
</svg>
