<?xml version="1.0" standalone="no"?>
 <!DOCTYPE svg PUBLIC "-//W3C//DTD SVG 1.1//EN" 
 "http://www.w3.org/Graphics/SVG/1.1/DTD/svg11.dtd"> 
<svg
  xmlns:svg="http://www.w3.org/2000/svg"
  xmlns="http://www.w3.org/2000/svg"
  xmlns:xlink="http://www.w3.org/1999/xlink"
  version="1.1"
  width="20.1930mm" height="21.4122mm" viewBox="0.0000 0.0000 20.1930 21.4122">
<title>SVG Image created as SW_MX_EC11_HotSwap_THT.svg date 2025/05/12 03:05:51 </title>
  <desc>Image generated by PCBNEW </desc>
<g style="fill:#000000; fill-opacity:1.0000;stroke:#000000; stroke-opacity:1.0000;
stroke-linecap:round; stroke-linejoin:round;"
 transform="translate(0 0) scale(1 1)">
</g>
<g style="fill:none; 
stroke:#E8B2A7; stroke-width:0.1500; stroke-opacity:1; 
stroke-linecap:round; stroke-linejoin:round;">
<text x="10.1012" y="7.0750"
transform="scale(-1 1) translate(-20.202382 0)"
textLength="4.5357" font-size="1.3333" lengthAdjust="spacingAndGlyphs"
text-anchor="middle" opacity="0" stroke-opacity="0">REF**</text>
<g class="stroked-text"><desc>REF**</desc>
<path d="M11.4345 7.0298
L11.7679 6.5536
" />
<path d="M12.0060 7.0298
L12.0060 6.0298
" />
<path d="M12.0060 6.0298
L11.6250 6.0298
" />
<path d="M11.6250 6.0298
L11.5298 6.0774
" />
<path d="M11.5298 6.0774
L11.4821 6.1251
" />
<path d="M11.4821 6.1251
L11.4345 6.2203
" />
<path d="M11.4345 6.2203
L11.4345 6.3632
" />
<path d="M11.4345 6.3632
L11.4821 6.4584
" />
<path d="M11.4821 6.4584
L11.5298 6.5060
" />
<path d="M11.5298 6.5060
L11.6250 6.5536
" />
<path d="M11.6250 6.5536
L12.0060 6.5536
" />
<path d="M11.0060 6.5060
L10.6726 6.5060
" />
<path d="M10.5298 7.0298
L11.0060 7.0298
" />
<path d="M11.0060 7.0298
L11.0060 6.0298
" />
<path d="M11.0060 6.0298
L10.5298 6.0298
" />
<path d="M9.7679 6.5060
L10.1012 6.5060
" />
<path d="M10.1012 7.0298
L10.1012 6.0298
" />
<path d="M10.1012 6.0298
L9.6250 6.0298
" />
<path d="M9.1012 6.0298
L9.1012 6.2679
" />
<path d="M9.3393 6.1727
L9.1012 6.2679
" />
<path d="M9.1012 6.2679
L8.8631 6.1727
" />
<path d="M9.2440 6.4584
L9.1012 6.2679
" />
<path d="M9.1012 6.2679
L8.9583 6.4584
" />
<path d="M8.3393 6.0298
L8.3393 6.2679
" />
<path d="M8.5774 6.1727
L8.3393 6.2679
" />
<path d="M8.3393 6.2679
L8.1012 6.1727
" />
<path d="M8.4821 6.4584
L8.3393 6.2679
" />
<path d="M8.3393 6.2679
L8.1964 6.4584
" />
</g></g>
<g style="fill:none; 
stroke:#E8B2A7; stroke-width:0.1200; stroke-opacity:1; 
stroke-linecap:round; stroke-linejoin:round;">
<path d="M5.0212 12.1150
L5.0212 13.1050
" />
<path d="M5.0212 12.1150
L10.1012 12.1150
" />
<path d="M5.0212 16.5600
L5.0212 16.2050
" />
<path d="M12.5654 10.2100
L14.2922 10.2100
" />
<path d="M13.9112 16.5600
L5.0212 16.5600
" />
<path d="M16.4512 14.0200
L16.4512 13.6650
" />
<path d="M10.1012 12.1150 A2.5400 2.5400 0.0 0 0 12.5608 10.2088" />
<path d="M13.9112 16.5600 A2.5400 2.5400 0.0 0 0 16.4512 14.0200" />
</g>
<g style="fill:none; 
stroke:#F2EDA1; stroke-width:0.1200; stroke-opacity:1; 
stroke-linecap:round; stroke-linejoin:round;">
<path d="M3.0012 2.4750
L3.0012 3.4750
" />
<path d="M3.0012 15.6750
L3.0012 16.6750
" />
<path d="M3.0012 16.6750
L4.0012 16.6750
" />
<path d="M4.0012 2.4750
L3.0012 2.4750
" />
<path d="M16.2012 16.6750
L17.2012 16.6750
" />
<path d="M17.2012 2.4750
L16.2012 2.4750
" />
<path d="M17.2012 3.4750
L17.2012 2.4750
" />
<path d="M17.2012 16.6750
L17.2012 15.6750
" />
<path style="fill:#00C2C2; fill-opacity:0.9000; stroke:none;fill-rule:evenodd;"
d="M 2.5362,13.6550
2.5552,13.5593
2.6094,13.4782
2.6905,13.4240
2.7862,13.4050
4.8362,13.4050
4.9319,13.4240
5.0130,13.4782
5.0672,13.5593
5.0862,13.6550
5.0862,15.6550
5.0672,15.7507
5.0130,15.8318
4.9319,15.8860
4.8362,15.9050
2.7862,15.9050
2.6905,15.8860
2.6094,15.8318
2.5552,15.7507
2.5362,15.6550
Z" /> 
<path style="fill:#00C2C2; fill-opacity:0.9000; stroke:none;fill-rule:evenodd;"
d="M 16.3862,11.1150
16.4052,11.0193
16.4594,10.9382
16.5405,10.8840
16.6362,10.8650
18.6862,10.8650
18.7819,10.8840
18.8630,10.9382
18.9172,11.0193
18.9362,11.1150
18.9362,13.1150
18.9172,13.2107
18.8630,13.2918
18.7819,13.3460
18.6862,13.3650
16.6362,13.3650
16.5405,13.3460
16.4594,13.2918
16.4052,13.2107
16.3862,13.1150
Z" /> 
</g>
<g style="fill:none; 
stroke:#4D7FC4; stroke-width:1.0000; stroke-opacity:1; 
stroke-linecap:round; stroke-linejoin:round;">
<path d="M7.4012 17.0750
L7.8012 17.0750
" />
<path d="M12.4012 17.0750
L12.8012 17.0750
" />
<path d="M9.9012 17.0750
L10.3012 17.0750
" />
<path style="fill:#4D7FC4; fill-opacity:1.0000; stroke:none;fill-rule:evenodd;"
d="M 3.5712,8.2750
3.5864,8.1985
3.6298,8.1336
3.6947,8.0902
3.7712,8.0750
4.9712,8.0750
5.5712,8.6750
5.5712,10.4750
4.9712,11.0750
3.7712,11.0750
3.6947,11.0598
3.6298,11.0164
3.5864,10.9515
3.5712,10.8750
Z" /> 
<path style="fill:#4D7FC4; fill-opacity:1.0000; stroke:none;fill-rule:evenodd;"
d="M 14.6312,10.3350
14.6312,8.6750
15.2312,8.0750
16.4312,8.0750
16.5112,8.0950
16.5712,8.1350
16.6112,8.1950
16.6312,8.2750
16.6312,10.4750
16.0312,11.0750
15.5112,11.0750
Z" /> 
<path style="fill:#4D7FC4; fill-opacity:1.0000; stroke:none;fill-rule:evenodd;"
d="M 2.5362,13.6550
2.5552,13.5593
2.6094,13.4782
2.6905,13.4240
2.7862,13.4050
4.8362,13.4050
4.9319,13.4240
5.0130,13.4782
5.0672,13.5593
5.0862,13.6550
5.0862,15.6550
5.0672,15.7507
5.0130,15.8318
4.9319,15.8860
4.8362,15.9050
2.7862,15.9050
2.6905,15.8860
2.6094,15.8318
2.5552,15.7507
2.5362,15.6550
Z" /> 
</g>
<g style="fill:#4D7FC4; fill-opacity:1.0000; stroke:none;">
<circle cx="6.2912" cy="7.0350" r="1.1500" /> 
</g>
<g style="fill:none; 
stroke:#4D7FC4; stroke-width:1.0000; stroke-opacity:1; 
stroke-linecap:round; stroke-linejoin:round;">
<path d="M7.4012 2.5750
L7.8012 2.5750
" />
<path d="M12.4012 2.5750
L12.8012 2.5750
" />
</g>
<g style="fill:#4D7FC4; fill-opacity:1.0000; stroke:none;">
<circle cx="12.6412" cy="4.4950" r="1.1500" /> 
<path style="fill:#4D7FC4; fill-opacity:1.0000; stroke:none;fill-rule:evenodd;"
d="M 16.3862,11.1150
16.4052,11.0193
16.4594,10.9382
16.5405,10.8840
16.6362,10.8650
18.6862,10.8650
18.7819,10.8840
18.8630,10.9382
18.9172,11.0193
18.9362,11.1150
18.9362,13.1150
18.9172,13.2107
18.8630,13.2918
18.7819,13.3460
18.6862,13.3650
16.6362,13.3650
16.5405,13.3460
16.4594,13.2918
16.4052,13.2107
16.3862,13.1150
Z" /> 
</g>
<g style="fill:none; 
stroke:#C83434; stroke-width:1.0000; stroke-opacity:1; 
stroke-linecap:round; stroke-linejoin:round;">
<path d="M7.4012 17.0750
L7.8012 17.0750
" />
<path d="M12.4012 17.0750
L12.8012 17.0750
" />
<path d="M9.9012 17.0750
L10.3012 17.0750
" />
<path style="fill:#C83434; fill-opacity:1.0000; stroke:none;fill-rule:evenodd;"
d="M 3.5712,8.2750
3.5864,8.1985
3.6298,8.1336
3.6947,8.0902
3.7712,8.0750
4.9712,8.0750
5.5712,8.6750
5.5712,10.4750
4.9712,11.0750
3.7712,11.0750
3.6947,11.0598
3.6298,11.0164
3.5864,10.9515
3.5712,10.8750
Z" /> 
<path style="fill:#C83434; fill-opacity:1.0000; stroke:none;fill-rule:evenodd;"
d="M 14.6312,10.3350
14.6312,8.6750
15.2312,8.0750
16.4312,8.0750
16.5112,8.0950
16.5712,8.1350
16.6112,8.1950
16.6312,8.2750
16.6312,10.4750
16.0312,11.0750
15.5112,11.0750
Z" /> 
</g>
<g style="fill:#C83434; fill-opacity:1.0000; stroke:none;">
<circle cx="6.2912" cy="7.0350" r="1.1500" /> 
</g>
<g style="fill:none; 
stroke:#C83434; stroke-width:1.0000; stroke-opacity:1; 
stroke-linecap:round; stroke-linejoin:round;">
<path d="M7.4012 2.5750
L7.8012 2.5750
" />
<path d="M12.4012 2.5750
L12.8012 2.5750
" />
</g>
<g style="fill:#C83434; fill-opacity:1.0000; stroke:none;">
<circle cx="12.6412" cy="4.4950" r="1.1500" /> 
</g>
<g style="fill:none; 
stroke:#585D84; stroke-width:0.1500; stroke-opacity:1; 
stroke-linecap:round; stroke-linejoin:round;">
<text x="10.1012" y="19.4750"
transform="scale(-1 1) translate(-20.202382 0)"
textLength="20.2024" font-size="1.3333" lengthAdjust="spacingAndGlyphs"
text-anchor="middle" opacity="0" stroke-opacity="0">SW_MX_EC11_HotSwap_THT</text>
<g class="stroked-text"><desc>SW_MX_EC11_HotSwap_THT</desc>
<path d="M19.8869 19.3822
L19.7440 19.4298
" />
<path d="M19.7440 19.4298
L19.5060 19.4298
" />
<path d="M19.5060 19.4298
L19.4107 19.3822
" />
<path d="M19.4107 19.3822
L19.3631 19.3346
" />
<path d="M19.3631 19.3346
L19.3155 19.2393
" />
<path d="M19.3155 19.2393
L19.3155 19.1441
" />
<path d="M19.3155 19.1441
L19.3631 19.0489
" />
<path d="M19.3631 19.0489
L19.4107 19.0012
" />
<path d="M19.4107 19.0012
L19.5060 18.9536
" />
<path d="M19.5060 18.9536
L19.6964 18.9060
" />
<path d="M19.6964 18.9060
L19.7917 18.8584
" />
<path d="M19.7917 18.8584
L19.8393 18.8108
" />
<path d="M19.8393 18.8108
L19.8869 18.7155
" />
<path d="M19.8869 18.7155
L19.8869 18.6203
" />
<path d="M19.8869 18.6203
L19.8393 18.5251
" />
<path d="M19.8393 18.5251
L19.7917 18.4774
" />
<path d="M19.7917 18.4774
L19.6964 18.4298
" />
<path d="M19.6964 18.4298
L19.4583 18.4298
" />
<path d="M19.4583 18.4298
L19.3155 18.4774
" />
<path d="M18.9821 18.4298
L18.7440 19.4298
" />
<path d="M18.7440 19.4298
L18.5536 18.7155
" />
<path d="M18.5536 18.7155
L18.3631 19.4298
" />
<path d="M18.3631 19.4298
L18.1250 18.4298
" />
<path d="M17.9821 19.5251
L17.2202 19.5251
" />
<path d="M16.9821 19.4298
L16.9821 18.4298
" />
<path d="M16.9821 18.4298
L16.6488 19.1441
" />
<path d="M16.6488 19.1441
L16.3155 18.4298
" />
<path d="M16.3155 18.4298
L16.3155 19.4298
" />
<path d="M15.9345 18.4298
L15.2679 19.4298
" />
<path d="M15.2679 18.4298
L15.9345 19.4298
" />
<path d="M15.1250 19.5251
L14.3631 19.5251
" />
<path d="M14.1250 18.9060
L13.7917 18.9060
" />
<path d="M13.6488 19.4298
L14.1250 19.4298
" />
<path d="M14.1250 19.4298
L14.1250 18.4298
" />
<path d="M14.1250 18.4298
L13.6488 18.4298
" />
<path d="M12.6488 19.3346
L12.6964 19.3822
" />
<path d="M12.6964 19.3822
L12.8393 19.4298
" />
<path d="M12.8393 19.4298
L12.9345 19.4298
" />
<path d="M12.9345 19.4298
L13.0774 19.3822
" />
<path d="M13.0774 19.3822
L13.1726 19.2870
" />
<path d="M13.1726 19.2870
L13.2202 19.1917
" />
<path d="M13.2202 19.1917
L13.2679 19.0012
" />
<path d="M13.2679 19.0012
L13.2679 18.8584
" />
<path d="M13.2679 18.8584
L13.2202 18.6679
" />
<path d="M13.2202 18.6679
L13.1726 18.5727
" />
<path d="M13.1726 18.5727
L13.0774 18.4774
" />
<path d="M13.0774 18.4774
L12.9345 18.4298
" />
<path d="M12.9345 18.4298
L12.8393 18.4298
" />
<path d="M12.8393 18.4298
L12.6964 18.4774
" />
<path d="M12.6964 18.4774
L12.6488 18.5251
" />
<path d="M11.6964 19.4298
L12.2679 19.4298
" />
<path d="M11.9821 19.4298
L11.9821 18.4298
" />
<path d="M11.9821 18.4298
L12.0774 18.5727
" />
<path d="M12.0774 18.5727
L12.1726 18.6679
" />
<path d="M12.1726 18.6679
L12.2679 18.7155
" />
<path d="M10.7440 19.4298
L11.3155 19.4298
" />
<path d="M11.0298 19.4298
L11.0298 18.4298
" />
<path d="M11.0298 18.4298
L11.1250 18.5727
" />
<path d="M11.1250 18.5727
L11.2202 18.6679
" />
<path d="M11.2202 18.6679
L11.3155 18.7155
" />
<path d="M10.5536 19.5251
L9.7917 19.5251
" />
<path d="M9.5536 19.4298
L9.5536 18.4298
" />
<path d="M9.5536 18.9060
L8.9821 18.9060
" />
<path d="M8.9821 19.4298
L8.9821 18.4298
" />
<path d="M8.3631 19.4298
L8.4583 19.3822
" />
<path d="M8.4583 19.3822
L8.5060 19.3346
" />
<path d="M8.5060 19.3346
L8.5536 19.2393
" />
<path d="M8.5536 19.2393
L8.5536 18.9536
" />
<path d="M8.5536 18.9536
L8.5060 18.8584
" />
<path d="M8.5060 18.8584
L8.4583 18.8108
" />
<path d="M8.4583 18.8108
L8.3631 18.7632
" />
<path d="M8.3631 18.7632
L8.2202 18.7632
" />
<path d="M8.2202 18.7632
L8.1250 18.8108
" />
<path d="M8.1250 18.8108
L8.0774 18.8584
" />
<path d="M8.0774 18.8584
L8.0298 18.9536
" />
<path d="M8.0298 18.9536
L8.0298 19.2393
" />
<path d="M8.0298 19.2393
L8.0774 19.3346
" />
<path d="M8.0774 19.3346
L8.1250 19.3822
" />
<path d="M8.1250 19.3822
L8.2202 19.4298
" />
<path d="M8.2202 19.4298
L8.3631 19.4298
" />
<path d="M7.7440 18.7632
L7.3631 18.7632
" />
<path d="M7.6012 18.4298
L7.6012 19.2870
" />
<path d="M7.6012 19.2870
L7.5536 19.3822
" />
<path d="M7.5536 19.3822
L7.4583 19.4298
" />
<path d="M7.4583 19.4298
L7.3631 19.4298
" />
<path d="M7.0774 19.3822
L6.9345 19.4298
" />
<path d="M6.9345 19.4298
L6.6964 19.4298
" />
<path d="M6.6964 19.4298
L6.6012 19.3822
" />
<path d="M6.6012 19.3822
L6.5536 19.3346
" />
<path d="M6.5536 19.3346
L6.5060 19.2393
" />
<path d="M6.5060 19.2393
L6.5060 19.1441
" />
<path d="M6.5060 19.1441
L6.5536 19.0489
" />
<path d="M6.5536 19.0489
L6.6012 19.0012
" />
<path d="M6.6012 19.0012
L6.6964 18.9536
" />
<path d="M6.6964 18.9536
L6.8869 18.9060
" />
<path d="M6.8869 18.9060
L6.9821 18.8584
" />
<path d="M6.9821 18.8584
L7.0298 18.8108
" />
<path d="M7.0298 18.8108
L7.0774 18.7155
" />
<path d="M7.0774 18.7155
L7.0774 18.6203
" />
<path d="M7.0774 18.6203
L7.0298 18.5251
" />
<path d="M7.0298 18.5251
L6.9821 18.4774
" />
<path d="M6.9821 18.4774
L6.8869 18.4298
" />
<path d="M6.8869 18.4298
L6.6488 18.4298
" />
<path d="M6.6488 18.4298
L6.5060 18.4774
" />
<path d="M6.1726 18.7632
L5.9821 19.4298
" />
<path d="M5.9821 19.4298
L5.7917 18.9536
" />
<path d="M5.7917 18.9536
L5.6012 19.4298
" />
<path d="M5.6012 19.4298
L5.4107 18.7632
" />
<path d="M4.6012 19.4298
L4.6012 18.9060
" />
<path d="M4.6012 18.9060
L4.6488 18.8108
" />
<path d="M4.6488 18.8108
L4.7440 18.7632
" />
<path d="M4.7440 18.7632
L4.9345 18.7632
" />
<path d="M4.9345 18.7632
L5.0298 18.8108
" />
<path d="M4.6012 19.3822
L4.6964 19.4298
" />
<path d="M4.6964 19.4298
L4.9345 19.4298
" />
<path d="M4.9345 19.4298
L5.0298 19.3822
" />
<path d="M5.0298 19.3822
L5.0774 19.2870
" />
<path d="M5.0774 19.2870
L5.0774 19.1917
" />
<path d="M5.0774 19.1917
L5.0298 19.0965
" />
<path d="M5.0298 19.0965
L4.9345 19.0489
" />
<path d="M4.9345 19.0489
L4.6964 19.0489
" />
<path d="M4.6964 19.0489
L4.6012 19.0012
" />
<path d="M4.1250 18.7632
L4.1250 19.7632
" />
<path d="M4.1250 18.8108
L4.0298 18.7632
" />
<path d="M4.0298 18.7632
L3.8393 18.7632
" />
<path d="M3.8393 18.7632
L3.7440 18.8108
" />
<path d="M3.7440 18.8108
L3.6964 18.8584
" />
<path d="M3.6964 18.8584
L3.6488 18.9536
" />
<path d="M3.6488 18.9536
L3.6488 19.2393
" />
<path d="M3.6488 19.2393
L3.6964 19.3346
" />
<path d="M3.6964 19.3346
L3.7440 19.3822
" />
<path d="M3.7440 19.3822
L3.8393 19.4298
" />
<path d="M3.8393 19.4298
L4.0298 19.4298
" />
<path d="M4.0298 19.4298
L4.1250 19.3822
" />
<path d="M3.4583 19.5251
L2.6964 19.5251
" />
<path d="M2.6012 18.4298
L2.0298 18.4298
" />
<path d="M2.3155 19.4298
L2.3155 18.4298
" />
<path d="M1.6964 19.4298
L1.6964 18.4298
" />
<path d="M1.6964 18.9060
L1.1250 18.9060
" />
<path d="M1.1250 19.4298
L1.1250 18.4298
" />
<path d="M0.7917 18.4298
L0.2202 18.4298
" />
<path d="M0.5060 19.4298
L0.5060 18.4298
" />
</g><text x="10.1012" y="21.0750"
transform="scale(-1 1) translate(-20.202382 0)"
textLength="4.5357" font-size="1.3333" lengthAdjust="spacingAndGlyphs"
text-anchor="middle" opacity="0" stroke-opacity="0">REF**</text>
<g class="stroked-text"><desc>REF**</desc>
<path d="M11.4345 21.0298
L11.7679 20.5536
" />
<path d="M12.0060 21.0298
L12.0060 20.0298
" />
<path d="M12.0060 20.0298
L11.6250 20.0298
" />
<path d="M11.6250 20.0298
L11.5298 20.0774
" />
<path d="M11.5298 20.0774
L11.4821 20.1251
" />
<path d="M11.4821 20.1251
L11.4345 20.2203
" />
<path d="M11.4345 20.2203
L11.4345 20.3632
" />
<path d="M11.4345 20.3632
L11.4821 20.4584
" />
<path d="M11.4821 20.4584
L11.5298 20.5060
" />
<path d="M11.5298 20.5060
L11.6250 20.5536
" />
<path d="M11.6250 20.5536
L12.0060 20.5536
" />
<path d="M11.0060 20.5060
L10.6726 20.5060
" />
<path d="M10.5298 21.0298
L11.0060 21.0298
" />
<path d="M11.0060 21.0298
L11.0060 20.0298
" />
<path d="M11.0060 20.0298
L10.5298 20.0298
" />
<path d="M9.7679 20.5060
L10.1012 20.5060
" />
<path d="M10.1012 21.0298
L10.1012 20.0298
" />
<path d="M10.1012 20.0298
L9.6250 20.0298
" />
<path d="M9.1012 20.0298
L9.1012 20.2679
" />
<path d="M9.3393 20.1727
L9.1012 20.2679
" />
<path d="M9.1012 20.2679
L8.8631 20.1727
" />
<path d="M9.2440 20.4584
L9.1012 20.2679
" />
<path d="M9.1012 20.2679
L8.9583 20.4584
" />
<path d="M8.3393 20.0298
L8.3393 20.2679
" />
<path d="M8.5774 20.1727
L8.3393 20.2679
" />
<path d="M8.3393 20.2679
L8.1012 20.1727
" />
<path d="M8.4821 20.4584
L8.3393 20.2679
" />
<path d="M8.3393 20.2679
L8.1964 20.4584
" />
</g></g>
<g style="fill:none; 
stroke:#585D84; stroke-width:0.1000; stroke-opacity:1; 
stroke-linecap:round; stroke-linejoin:round;">
<path d="M2.4812 13.3850
L5.0212 13.3850
" />
<path d="M2.4812 15.9250
L2.4812 13.3850
" />
<path d="M5.0212 12.1150
L10.1012 12.1150
" />
<path d="M5.0212 15.9250
L2.4812 15.9250
" />
<path d="M5.0212 16.5600
L5.0212 12.1150
" />
<path d="M13.9112 16.5600
L5.0212 16.5600
" />
<path d="M16.4512 10.2100
L12.6412 10.2100
" />
<path d="M16.4512 10.2100
L16.4512 14.0200
" />
<path d="M16.4512 10.8450
L18.9912 10.8450
" />
<path d="M18.9912 10.8450
L18.9912 13.3850
" />
<path d="M18.9912 13.3850
L16.4512 13.3850
" />
<path d="M10.1012 12.1150 A2.5400 2.5400 0.0 0 0 12.5654 10.1910" />
<path d="M13.9112 16.5600 A2.5400 2.5400 0.0 0 0 16.4512 14.0200" />
</g>
<g style="fill:none; 
stroke:#585D84; stroke-width:0.0212; stroke-opacity:1; 
stroke-linecap:round; stroke-linejoin:round;">
<circle cx="7.5612" cy="14.6550" r="1.5000" /> 
</g>
<g style="fill:none; 
stroke:#585D84; stroke-width:0.0212; stroke-opacity:1; 
stroke-linecap:round; stroke-linejoin:round;">
<circle cx="10.1012" cy="9.5750" r="2.0000" /> 
</g>
<g style="fill:none; 
stroke:#585D84; stroke-width:0.0212; stroke-opacity:1; 
stroke-linecap:round; stroke-linejoin:round;">
<circle cx="10.1012" cy="9.5750" r="2.0000" /> 
</g>
<g style="fill:none; 
stroke:#585D84; stroke-width:0.0212; stroke-opacity:1; 
stroke-linecap:round; stroke-linejoin:round;">
<circle cx="10.1012" cy="9.5750" r="2.0000" /> 
</g>
<g style="fill:none; 
stroke:#585D84; stroke-width:0.0212; stroke-opacity:1; 
stroke-linecap:round; stroke-linejoin:round;">
<circle cx="13.9112" cy="12.1150" r="1.5000" /> 
</g>
<g style="fill:none; 
stroke:#585D84; stroke-width:0.0389; stroke-opacity:1; 
stroke-linecap:round; stroke-linejoin:round;">
<text x="7.6012" y="17.3083"
textLength="0.4233" font-size="0.6222" lengthAdjust="spacingAndGlyphs"
text-anchor="middle" opacity="0" stroke-opacity="0">A</text>
<g class="stroked-text"><desc>A</desc>
<path d="M7.4901 17.1555
L7.7123 17.1555
" />
<path d="M7.4456 17.2889
L7.6012 16.8222
" />
<path d="M7.6012 16.8222
L7.7567 17.2889
" />
</g></g>
<g style="fill:none; 
stroke:#585D84; stroke-width:0.0212; stroke-opacity:1; 
stroke-linecap:round; stroke-linejoin:round;">
<path d="M7.4012 17.5750
L7.8012 17.5750
" />
<path d="M7.8012 17.5750 A0.5000 0.5000 0.0 0 0 7.8012 16.5750" />
<path d="M7.8012 16.5750
L7.4012 16.5750
" />
<path d="M7.4012 16.5750 A0.5000 0.5000 0.0 0 0 7.4012 17.5750" />
</g>
<g style="fill:none; 
stroke:#585D84; stroke-width:0.0389; stroke-opacity:1; 
stroke-linecap:round; stroke-linejoin:round;">
<text x="12.6012" y="17.3083"
textLength="0.4900" font-size="0.6222" lengthAdjust="spacingAndGlyphs"
text-anchor="middle" opacity="0" stroke-opacity="0">B</text>
<g class="stroked-text"><desc>B</desc>
<path d="M12.6345 17.0444
L12.7012 17.0666
" />
<path d="M12.7012 17.0666
L12.7234 17.0889
" />
<path d="M12.7234 17.0889
L12.7456 17.1333
" />
<path d="M12.7456 17.1333
L12.7456 17.2000
" />
<path d="M12.7456 17.2000
L12.7234 17.2444
" />
<path d="M12.7234 17.2444
L12.7012 17.2666
" />
<path d="M12.7012 17.2666
L12.6567 17.2889
" />
<path d="M12.6567 17.2889
L12.4790 17.2889
" />
<path d="M12.4790 17.2889
L12.4790 16.8222
" />
<path d="M12.4790 16.8222
L12.6345 16.8222
" />
<path d="M12.6345 16.8222
L12.6790 16.8444
" />
<path d="M12.6790 16.8444
L12.7012 16.8666
" />
<path d="M12.7012 16.8666
L12.7234 16.9111
" />
<path d="M12.7234 16.9111
L12.7234 16.9555
" />
<path d="M12.7234 16.9555
L12.7012 17.0000
" />
<path d="M12.7012 17.0000
L12.6790 17.0222
" />
<path d="M12.6790 17.0222
L12.6345 17.0444
" />
<path d="M12.6345 17.0444
L12.4790 17.0444
" />
</g></g>
<g style="fill:none; 
stroke:#585D84; stroke-width:0.0212; stroke-opacity:1; 
stroke-linecap:round; stroke-linejoin:round;">
<path d="M12.4012 17.5750
L12.8012 17.5750
" />
<path d="M12.8012 17.5750 A0.5000 0.5000 0.0 0 0 12.8012 16.5750" />
<path d="M12.8012 16.5750
L12.4012 16.5750
" />
<path d="M12.4012 16.5750 A0.5000 0.5000 0.0 0 0 12.4012 17.5750" />
</g>
<g style="fill:none; 
stroke:#585D84; stroke-width:0.0389; stroke-opacity:1; 
stroke-linecap:round; stroke-linejoin:round;">
<text x="10.1012" y="17.3083"
textLength="0.4900" font-size="0.6222" lengthAdjust="spacingAndGlyphs"
text-anchor="middle" opacity="0" stroke-opacity="0">C</text>
<g class="stroked-text"><desc>C</desc>
<path d="M10.2456 17.2444
L10.2234 17.2666
" />
<path d="M10.2234 17.2666
L10.1567 17.2889
" />
<path d="M10.1567 17.2889
L10.1123 17.2889
" />
<path d="M10.1123 17.2889
L10.0456 17.2666
" />
<path d="M10.0456 17.2666
L10.0012 17.2222
" />
<path d="M10.0012 17.2222
L9.9790 17.1778
" />
<path d="M9.9790 17.1778
L9.9567 17.0889
" />
<path d="M9.9567 17.0889
L9.9567 17.0222
" />
<path d="M9.9567 17.0222
L9.9790 16.9333
" />
<path d="M9.9790 16.9333
L10.0012 16.8889
" />
<path d="M10.0012 16.8889
L10.0456 16.8444
" />
<path d="M10.0456 16.8444
L10.1123 16.8222
" />
<path d="M10.1123 16.8222
L10.1567 16.8222
" />
<path d="M10.1567 16.8222
L10.2234 16.8444
" />
<path d="M10.2234 16.8444
L10.2456 16.8666
" />
</g></g>
<g style="fill:none; 
stroke:#585D84; stroke-width:0.0212; stroke-opacity:1; 
stroke-linecap:round; stroke-linejoin:round;">
<path d="M9.9012 17.5750
L10.3012 17.5750
" />
<path d="M10.3012 17.5750 A0.5000 0.5000 0.0 0 0 10.3012 16.5750" />
<path d="M10.3012 16.5750
L9.9012 16.5750
" />
<path d="M9.9012 16.5750 A0.5000 0.5000 0.0 0 0 9.9012 17.5750" />
</g>
<g style="fill:none; 
stroke:#585D84; stroke-width:0.0833; stroke-opacity:1; 
stroke-linecap:round; stroke-linejoin:round;">
<g transform="rotate(-90.000000 4.5712 9.5750)">
<text x="4.5712" y="10.0750"
textLength="2.1929" font-size="1.3333" lengthAdjust="spacingAndGlyphs"
text-anchor="middle" opacity="0" stroke-opacity="0">MP</text>
</g>
<g class="stroked-text"><desc>MP</desc>
<path d="M5.0295 10.4083
L4.0295 10.4083
" />
<path d="M4.0295 10.4083
L4.7438 10.0750
" />
<path d="M4.7438 10.0750
L4.0295 9.7417
" />
<path d="M4.0295 9.7417
L5.0295 9.7417
" />
<path d="M5.0295 9.2655
L4.0295 9.2655
" />
<path d="M4.0295 9.2655
L4.0295 8.8845
" />
<path d="M4.0295 8.8845
L4.0771 8.7893
" />
<path d="M4.0771 8.7893
L4.1247 8.7417
" />
<path d="M4.1247 8.7417
L4.2200 8.6940
" />
<path d="M4.2200 8.6940
L4.3628 8.6940
" />
<path d="M4.3628 8.6940
L4.4580 8.7417
" />
<path d="M4.4580 8.7417
L4.5057 8.7893
" />
<path d="M4.5057 8.7893
L4.5533 8.8845
" />
<path d="M4.5533 8.8845
L4.5533 9.2655
" />
</g><path style="fill:none; 
stroke:#585D84; stroke-width:0.0212; stroke-opacity:1; 
stroke-linecap:round; stroke-linejoin:round;fill:none"
d="M 3.5712,8.2750
3.5864,8.1985
3.6298,8.1336
3.6947,8.0902
3.7712,8.0750
4.9712,8.0750
5.5712,8.6750
5.5712,10.4750
4.9712,11.0750
3.7712,11.0750
3.6947,11.0598
3.6298,11.0164
3.5864,10.9515
3.5712,10.8750
Z" /> 
</g>
<g style="fill:none; 
stroke:#585D84; stroke-width:0.0833; stroke-opacity:1; 
stroke-linecap:round; stroke-linejoin:round;">
<g transform="rotate(-90.000000 15.6312 9.5750)">
<text x="15.6312" y="10.0750"
textLength="2.1929" font-size="1.3333" lengthAdjust="spacingAndGlyphs"
text-anchor="middle" opacity="0" stroke-opacity="0">MP</text>
</g>
<g class="stroked-text"><desc>MP</desc>
<path d="M16.0895 10.4083
L15.0895 10.4083
" />
<path d="M15.0895 10.4083
L15.8038 10.0750
" />
<path d="M15.8038 10.0750
L15.0895 9.7417
" />
<path d="M15.0895 9.7417
L16.0895 9.7417
" />
<path d="M16.0895 9.2655
L15.0895 9.2655
" />
<path d="M15.0895 9.2655
L15.0895 8.8845
" />
<path d="M15.0895 8.8845
L15.1371 8.7893
" />
<path d="M15.1371 8.7893
L15.1847 8.7417
" />
<path d="M15.1847 8.7417
L15.2800 8.6940
" />
<path d="M15.2800 8.6940
L15.4228 8.6940
" />
<path d="M15.4228 8.6940
L15.5180 8.7417
" />
<path d="M15.5180 8.7417
L15.5657 8.7893
" />
<path d="M15.5657 8.7893
L15.6133 8.8845
" />
<path d="M15.6133 8.8845
L15.6133 9.2655
" />
</g><path style="fill:none; 
stroke:#585D84; stroke-width:0.0212; stroke-opacity:1; 
stroke-linecap:round; stroke-linejoin:round;fill:none"
d="M 14.6312,10.3350
14.6312,8.6750
15.2312,8.0750
16.4312,8.0750
16.5112,8.0950
16.5712,8.1350
16.6112,8.1950
16.6312,8.2750
16.6312,10.4750
16.0312,11.0750
15.5112,11.0750
Z" /> 
</g>
<g style="fill:none; 
stroke:#585D84; stroke-width:0.0708; stroke-opacity:1; 
stroke-linecap:round; stroke-linejoin:round;">
<text x="3.8112" y="15.0800"
textLength="1.6615" font-size="1.1333" lengthAdjust="spacingAndGlyphs"
text-anchor="middle" opacity="0" stroke-opacity="0">S1</text>
<g class="stroked-text"><desc>S1</desc>
<path d="M3.1636 15.0041
L3.2850 15.0445
" />
<path d="M3.2850 15.0445
L3.4874 15.0445
" />
<path d="M3.4874 15.0445
L3.5683 15.0041
" />
<path d="M3.5683 15.0041
L3.6088 14.9636
" />
<path d="M3.6088 14.9636
L3.6493 14.8826
" />
<path d="M3.6493 14.8826
L3.6493 14.8017
" />
<path d="M3.6493 14.8017
L3.6088 14.7207
" />
<path d="M3.6088 14.7207
L3.5683 14.6803
" />
<path d="M3.5683 14.6803
L3.4874 14.6398
" />
<path d="M3.4874 14.6398
L3.3255 14.5993
" />
<path d="M3.3255 14.5993
L3.2445 14.5588
" />
<path d="M3.2445 14.5588
L3.2040 14.5184
" />
<path d="M3.2040 14.5184
L3.1636 14.4374
" />
<path d="M3.1636 14.4374
L3.1636 14.3564
" />
<path d="M3.1636 14.3564
L3.2040 14.2755
" />
<path d="M3.2040 14.2755
L3.2445 14.2350
" />
<path d="M3.2445 14.2350
L3.3255 14.1945
" />
<path d="M3.3255 14.1945
L3.5279 14.1945
" />
<path d="M3.5279 14.1945
L3.6493 14.2350
" />
<path d="M4.4588 15.0445
L3.9731 15.0445
" />
<path d="M4.2160 15.0445
L4.2160 14.1945
" />
<path d="M4.2160 14.1945
L4.1350 14.3160
" />
<path d="M4.1350 14.3160
L4.0540 14.3969
" />
<path d="M4.0540 14.3969
L3.9731 14.4374
" />
</g><path style="fill:none; 
stroke:#585D84; stroke-width:0.0212; stroke-opacity:1; 
stroke-linecap:round; stroke-linejoin:round;fill:none"
d="M 2.5362,13.6550
2.5552,13.5593
2.6094,13.4782
2.6905,13.4240
2.7862,13.4050
4.8362,13.4050
4.9319,13.4240
5.0130,13.4782
5.0672,13.5593
5.0862,13.6550
5.0862,15.6550
5.0672,15.7507
5.0130,15.8318
4.9319,15.8860
4.8362,15.9050
2.7862,15.9050
2.6905,15.8860
2.6094,15.8318
2.5552,15.7507
2.5362,15.6550
Z" /> 
</g>
<g style="fill:none; 
stroke:#585D84; stroke-width:0.0639; stroke-opacity:1; 
stroke-linecap:round; stroke-linejoin:round;">
<text x="6.2912" y="7.4183"
textLength="1.4987" font-size="1.0222" lengthAdjust="spacingAndGlyphs"
text-anchor="middle" opacity="0" stroke-opacity="0">S1</text>
<g class="stroked-text"><desc>S1</desc>
<path d="M5.7071 7.3498
L5.8166 7.3864
" />
<path d="M5.8166 7.3864
L5.9991 7.3864
" />
<path d="M5.9991 7.3864
L6.0721 7.3498
" />
<path d="M6.0721 7.3498
L6.1087 7.3133
" />
<path d="M6.1087 7.3133
L6.1452 7.2403
" />
<path d="M6.1452 7.2403
L6.1452 7.1673
" />
<path d="M6.1452 7.1673
L6.1087 7.0943
" />
<path d="M6.1087 7.0943
L6.0721 7.0578
" />
<path d="M6.0721 7.0578
L5.9991 7.0213
" />
<path d="M5.9991 7.0213
L5.8531 6.9848
" />
<path d="M5.8531 6.9848
L5.7801 6.9483
" />
<path d="M5.7801 6.9483
L5.7436 6.9117
" />
<path d="M5.7436 6.9117
L5.7071 6.8387
" />
<path d="M5.7071 6.8387
L5.7071 6.7657
" />
<path d="M5.7071 6.7657
L5.7436 6.6927
" />
<path d="M5.7436 6.6927
L5.7801 6.6562
" />
<path d="M5.7801 6.6562
L5.8531 6.6197
" />
<path d="M5.8531 6.6197
L6.0356 6.6197
" />
<path d="M6.0356 6.6197
L6.1452 6.6562
" />
<path d="M6.8753 7.3864
L6.4372 7.3864
" />
<path d="M6.6563 7.3864
L6.6563 6.6197
" />
<path d="M6.6563 6.6197
L6.5833 6.7292
" />
<path d="M6.5833 6.7292
L6.5102 6.8022
" />
<path d="M6.5102 6.8022
L6.4372 6.8387
" />
</g></g>
<g style="fill:none; 
stroke:#585D84; stroke-width:0.0212; stroke-opacity:1; 
stroke-linecap:round; stroke-linejoin:round;">
<circle cx="6.2912" cy="7.0350" r="1.1500" /> 
</g>
<g style="fill:none; 
stroke:#585D84; stroke-width:0.0389; stroke-opacity:1; 
stroke-linecap:round; stroke-linejoin:round;">
<text x="7.6012" y="2.8083"
textLength="0.9122" font-size="0.6222" lengthAdjust="spacingAndGlyphs"
text-anchor="middle" opacity="0" stroke-opacity="0">S1</text>
<g class="stroked-text"><desc>S1</desc>
<path d="M7.2456 2.7666
L7.3123 2.7889
" />
<path d="M7.3123 2.7889
L7.4234 2.7889
" />
<path d="M7.4234 2.7889
L7.4679 2.7666
" />
<path d="M7.4679 2.7666
L7.4901 2.7444
" />
<path d="M7.4901 2.7444
L7.5123 2.7000
" />
<path d="M7.5123 2.7000
L7.5123 2.6555
" />
<path d="M7.5123 2.6555
L7.4901 2.6111
" />
<path d="M7.4901 2.6111
L7.4679 2.5889
" />
<path d="M7.4679 2.5889
L7.4234 2.5666
" />
<path d="M7.4234 2.5666
L7.3345 2.5444
" />
<path d="M7.3345 2.5444
L7.2901 2.5222
" />
<path d="M7.2901 2.5222
L7.2679 2.5000
" />
<path d="M7.2679 2.5000
L7.2456 2.4555
" />
<path d="M7.2456 2.4555
L7.2456 2.4111
" />
<path d="M7.2456 2.4111
L7.2679 2.3666
" />
<path d="M7.2679 2.3666
L7.2901 2.3444
" />
<path d="M7.2901 2.3444
L7.3345 2.3222
" />
<path d="M7.3345 2.3222
L7.4456 2.3222
" />
<path d="M7.4456 2.3222
L7.5123 2.3444
" />
<path d="M7.9567 2.7889
L7.6901 2.7889
" />
<path d="M7.8234 2.7889
L7.8234 2.3222
" />
<path d="M7.8234 2.3222
L7.7790 2.3889
" />
<path d="M7.7790 2.3889
L7.7345 2.4333
" />
<path d="M7.7345 2.4333
L7.6901 2.4555
" />
</g></g>
<g style="fill:none; 
stroke:#585D84; stroke-width:0.0212; stroke-opacity:1; 
stroke-linecap:round; stroke-linejoin:round;">
<path d="M7.4012 3.0750
L7.8012 3.0750
" />
<path d="M7.8012 3.0750 A0.5000 0.5000 0.0 0 0 7.8012 2.0750" />
<path d="M7.8012 2.0750
L7.4012 2.0750
" />
<path d="M7.4012 2.0750 A0.5000 0.5000 0.0 0 0 7.4012 3.0750" />
</g>
<g style="fill:none; 
stroke:#585D84; stroke-width:0.0389; stroke-opacity:1; 
stroke-linecap:round; stroke-linejoin:round;">
<text x="12.6012" y="2.8083"
textLength="0.9122" font-size="0.6222" lengthAdjust="spacingAndGlyphs"
text-anchor="middle" opacity="0" stroke-opacity="0">S2</text>
<g class="stroked-text"><desc>S2</desc>
<path d="M12.2456 2.7666
L12.3123 2.7889
" />
<path d="M12.3123 2.7889
L12.4234 2.7889
" />
<path d="M12.4234 2.7889
L12.4679 2.7666
" />
<path d="M12.4679 2.7666
L12.4901 2.7444
" />
<path d="M12.4901 2.7444
L12.5123 2.7000
" />
<path d="M12.5123 2.7000
L12.5123 2.6555
" />
<path d="M12.5123 2.6555
L12.4901 2.6111
" />
<path d="M12.4901 2.6111
L12.4679 2.5889
" />
<path d="M12.4679 2.5889
L12.4234 2.5666
" />
<path d="M12.4234 2.5666
L12.3345 2.5444
" />
<path d="M12.3345 2.5444
L12.2901 2.5222
" />
<path d="M12.2901 2.5222
L12.2679 2.5000
" />
<path d="M12.2679 2.5000
L12.2456 2.4555
" />
<path d="M12.2456 2.4555
L12.2456 2.4111
" />
<path d="M12.2456 2.4111
L12.2679 2.3666
" />
<path d="M12.2679 2.3666
L12.2901 2.3444
" />
<path d="M12.2901 2.3444
L12.3345 2.3222
" />
<path d="M12.3345 2.3222
L12.4456 2.3222
" />
<path d="M12.4456 2.3222
L12.5123 2.3444
" />
<path d="M12.6901 2.3666
L12.7123 2.3444
" />
<path d="M12.7123 2.3444
L12.7567 2.3222
" />
<path d="M12.7567 2.3222
L12.8679 2.3222
" />
<path d="M12.8679 2.3222
L12.9123 2.3444
" />
<path d="M12.9123 2.3444
L12.9345 2.3666
" />
<path d="M12.9345 2.3666
L12.9567 2.4111
" />
<path d="M12.9567 2.4111
L12.9567 2.4555
" />
<path d="M12.9567 2.4555
L12.9345 2.5222
" />
<path d="M12.9345 2.5222
L12.6679 2.7889
" />
<path d="M12.6679 2.7889
L12.9567 2.7889
" />
</g></g>
<g style="fill:none; 
stroke:#585D84; stroke-width:0.0212; stroke-opacity:1; 
stroke-linecap:round; stroke-linejoin:round;">
<path d="M12.4012 3.0750
L12.8012 3.0750
" />
<path d="M12.8012 3.0750 A0.5000 0.5000 0.0 0 0 12.8012 2.0750" />
<path d="M12.8012 2.0750
L12.4012 2.0750
" />
<path d="M12.4012 2.0750 A0.5000 0.5000 0.0 0 0 12.4012 3.0750" />
</g>
<g style="fill:none; 
stroke:#585D84; stroke-width:0.0639; stroke-opacity:1; 
stroke-linecap:round; stroke-linejoin:round;">
<text x="12.6412" y="4.8783"
textLength="1.4987" font-size="1.0222" lengthAdjust="spacingAndGlyphs"
text-anchor="middle" opacity="0" stroke-opacity="0">S2</text>
<g class="stroked-text"><desc>S2</desc>
<path d="M12.0571 4.8098
L12.1666 4.8464
" />
<path d="M12.1666 4.8464
L12.3491 4.8464
" />
<path d="M12.3491 4.8464
L12.4221 4.8098
" />
<path d="M12.4221 4.8098
L12.4587 4.7733
" />
<path d="M12.4587 4.7733
L12.4952 4.7003
" />
<path d="M12.4952 4.7003
L12.4952 4.6273
" />
<path d="M12.4952 4.6273
L12.4587 4.5543
" />
<path d="M12.4587 4.5543
L12.4221 4.5178
" />
<path d="M12.4221 4.5178
L12.3491 4.4813
" />
<path d="M12.3491 4.4813
L12.2031 4.4448
" />
<path d="M12.2031 4.4448
L12.1301 4.4083
" />
<path d="M12.1301 4.4083
L12.0936 4.3717
" />
<path d="M12.0936 4.3717
L12.0571 4.2987
" />
<path d="M12.0571 4.2987
L12.0571 4.2257
" />
<path d="M12.0571 4.2257
L12.0936 4.1527
" />
<path d="M12.0936 4.1527
L12.1301 4.1162
" />
<path d="M12.1301 4.1162
L12.2031 4.0797
" />
<path d="M12.2031 4.0797
L12.3856 4.0797
" />
<path d="M12.3856 4.0797
L12.4952 4.1162
" />
<path d="M12.7872 4.1527
L12.8237 4.1162
" />
<path d="M12.8237 4.1162
L12.8967 4.0797
" />
<path d="M12.8967 4.0797
L13.0793 4.0797
" />
<path d="M13.0793 4.0797
L13.1523 4.1162
" />
<path d="M13.1523 4.1162
L13.1888 4.1527
" />
<path d="M13.1888 4.1527
L13.2253 4.2257
" />
<path d="M13.2253 4.2257
L13.2253 4.2987
" />
<path d="M13.2253 4.2987
L13.1888 4.4083
" />
<path d="M13.1888 4.4083
L12.7507 4.8464
" />
<path d="M12.7507 4.8464
L13.2253 4.8464
" />
</g></g>
<g style="fill:none; 
stroke:#585D84; stroke-width:0.0212; stroke-opacity:1; 
stroke-linecap:round; stroke-linejoin:round;">
<circle cx="12.6412" cy="4.4950" r="1.1500" /> 
</g>
<g style="fill:none; 
stroke:#585D84; stroke-width:0.0708; stroke-opacity:1; 
stroke-linecap:round; stroke-linejoin:round;">
<text x="17.6612" y="12.5400"
textLength="1.6615" font-size="1.1333" lengthAdjust="spacingAndGlyphs"
text-anchor="middle" opacity="0" stroke-opacity="0">S2</text>
<g class="stroked-text"><desc>S2</desc>
<path d="M17.0136 12.4641
L17.1350 12.5045
" />
<path d="M17.1350 12.5045
L17.3374 12.5045
" />
<path d="M17.3374 12.5045
L17.4183 12.4641
" />
<path d="M17.4183 12.4641
L17.4588 12.4236
" />
<path d="M17.4588 12.4236
L17.4993 12.3426
" />
<path d="M17.4993 12.3426
L17.4993 12.2617
" />
<path d="M17.4993 12.2617
L17.4588 12.1807
" />
<path d="M17.4588 12.1807
L17.4183 12.1403
" />
<path d="M17.4183 12.1403
L17.3374 12.0998
" />
<path d="M17.3374 12.0998
L17.1755 12.0593
" />
<path d="M17.1755 12.0593
L17.0945 12.0188
" />
<path d="M17.0945 12.0188
L17.0540 11.9784
" />
<path d="M17.0540 11.9784
L17.0136 11.8974
" />
<path d="M17.0136 11.8974
L17.0136 11.8164
" />
<path d="M17.0136 11.8164
L17.0540 11.7355
" />
<path d="M17.0540 11.7355
L17.0945 11.6950
" />
<path d="M17.0945 11.6950
L17.1755 11.6545
" />
<path d="M17.1755 11.6545
L17.3779 11.6545
" />
<path d="M17.3779 11.6545
L17.4993 11.6950
" />
<path d="M17.8231 11.7355
L17.8636 11.6950
" />
<path d="M17.8636 11.6950
L17.9445 11.6545
" />
<path d="M17.9445 11.6545
L18.1469 11.6545
" />
<path d="M18.1469 11.6545
L18.2279 11.6950
" />
<path d="M18.2279 11.6950
L18.2683 11.7355
" />
<path d="M18.2683 11.7355
L18.3088 11.8164
" />
<path d="M18.3088 11.8164
L18.3088 11.8974
" />
<path d="M18.3088 11.8974
L18.2683 12.0188
" />
<path d="M18.2683 12.0188
L17.7826 12.5045
" />
<path d="M17.7826 12.5045
L18.3088 12.5045
" />
</g><path style="fill:none; 
stroke:#585D84; stroke-width:0.0212; stroke-opacity:1; 
stroke-linecap:round; stroke-linejoin:round;fill:none"
d="M 16.3862,11.1150
16.4052,11.0193
16.4594,10.9382
16.5405,10.8840
16.6362,10.8650
18.6862,10.8650
18.7819,10.8840
18.8630,10.9382
18.9172,11.0193
18.9362,11.1150
18.9362,13.1150
18.9172,13.2107
18.8630,13.2918
18.7819,13.3460
18.6862,13.3650
16.6362,13.3650
16.5405,13.3460
16.4594,13.2918
16.4052,13.2107
16.3862,13.1150
Z" /> 
<path style="fill:none; 
stroke:#AFAFAF; stroke-width:0.1000; stroke-opacity:1; 
stroke-linecap:round; stroke-linejoin:round;fill:none"
d="M 3.1012,2.5750
17.1012,2.5750
17.1012,16.5750
3.1012,16.5750
Z" /> 
</g>
<g style="fill:none; 
stroke:#AFAFAF; stroke-width:0.0212; stroke-opacity:1; 
stroke-linecap:round; stroke-linejoin:round;">
<circle cx="7.5612" cy="14.6550" r="1.5000" /> 
</g>
<g style="fill:none; 
stroke:#AFAFAF; stroke-width:0.0212; stroke-opacity:1; 
stroke-linecap:round; stroke-linejoin:round;">
<circle cx="10.1012" cy="9.5750" r="2.0000" /> 
</g>
<g style="fill:none; 
stroke:#AFAFAF; stroke-width:0.0212; stroke-opacity:1; 
stroke-linecap:round; stroke-linejoin:round;">
<circle cx="10.1012" cy="9.5750" r="2.0000" /> 
</g>
<g style="fill:none; 
stroke:#AFAFAF; stroke-width:0.0212; stroke-opacity:1; 
stroke-linecap:round; stroke-linejoin:round;">
<circle cx="10.1012" cy="9.5750" r="2.0000" /> 
</g>
<g style="fill:none; 
stroke:#AFAFAF; stroke-width:0.0212; stroke-opacity:1; 
stroke-linecap:round; stroke-linejoin:round;">
<circle cx="13.9112" cy="12.1150" r="1.5000" /> 
</g>
<g style="fill:none; 
stroke:#AFAFAF; stroke-width:0.0389; stroke-opacity:1; 
stroke-linecap:round; stroke-linejoin:round;">
<text x="7.6012" y="17.3083"
textLength="0.4233" font-size="0.6222" lengthAdjust="spacingAndGlyphs"
text-anchor="middle" opacity="0" stroke-opacity="0">A</text>
<g class="stroked-text"><desc>A</desc>
<path d="M7.4901 17.1555
L7.7123 17.1555
" />
<path d="M7.4456 17.2889
L7.6012 16.8222
" />
<path d="M7.6012 16.8222
L7.7567 17.2889
" />
</g></g>
<g style="fill:none; 
stroke:#AFAFAF; stroke-width:0.0212; stroke-opacity:1; 
stroke-linecap:round; stroke-linejoin:round;">
<path d="M7.4012 17.5750
L7.8012 17.5750
" />
<path d="M7.8012 17.5750 A0.5000 0.5000 0.0 0 0 7.8012 16.5750" />
<path d="M7.8012 16.5750
L7.4012 16.5750
" />
<path d="M7.4012 16.5750 A0.5000 0.5000 0.0 0 0 7.4012 17.5750" />
</g>
<g style="fill:none; 
stroke:#AFAFAF; stroke-width:0.0389; stroke-opacity:1; 
stroke-linecap:round; stroke-linejoin:round;">
<text x="12.6012" y="17.3083"
textLength="0.4900" font-size="0.6222" lengthAdjust="spacingAndGlyphs"
text-anchor="middle" opacity="0" stroke-opacity="0">B</text>
<g class="stroked-text"><desc>B</desc>
<path d="M12.6345 17.0444
L12.7012 17.0666
" />
<path d="M12.7012 17.0666
L12.7234 17.0889
" />
<path d="M12.7234 17.0889
L12.7456 17.1333
" />
<path d="M12.7456 17.1333
L12.7456 17.2000
" />
<path d="M12.7456 17.2000
L12.7234 17.2444
" />
<path d="M12.7234 17.2444
L12.7012 17.2666
" />
<path d="M12.7012 17.2666
L12.6567 17.2889
" />
<path d="M12.6567 17.2889
L12.4790 17.2889
" />
<path d="M12.4790 17.2889
L12.4790 16.8222
" />
<path d="M12.4790 16.8222
L12.6345 16.8222
" />
<path d="M12.6345 16.8222
L12.6790 16.8444
" />
<path d="M12.6790 16.8444
L12.7012 16.8666
" />
<path d="M12.7012 16.8666
L12.7234 16.9111
" />
<path d="M12.7234 16.9111
L12.7234 16.9555
" />
<path d="M12.7234 16.9555
L12.7012 17.0000
" />
<path d="M12.7012 17.0000
L12.6790 17.0222
" />
<path d="M12.6790 17.0222
L12.6345 17.0444
" />
<path d="M12.6345 17.0444
L12.4790 17.0444
" />
</g></g>
<g style="fill:none; 
stroke:#AFAFAF; stroke-width:0.0212; stroke-opacity:1; 
stroke-linecap:round; stroke-linejoin:round;">
<path d="M12.4012 17.5750
L12.8012 17.5750
" />
<path d="M12.8012 17.5750 A0.5000 0.5000 0.0 0 0 12.8012 16.5750" />
<path d="M12.8012 16.5750
L12.4012 16.5750
" />
<path d="M12.4012 16.5750 A0.5000 0.5000 0.0 0 0 12.4012 17.5750" />
</g>
<g style="fill:none; 
stroke:#AFAFAF; stroke-width:0.0389; stroke-opacity:1; 
stroke-linecap:round; stroke-linejoin:round;">
<text x="10.1012" y="17.3083"
textLength="0.4900" font-size="0.6222" lengthAdjust="spacingAndGlyphs"
text-anchor="middle" opacity="0" stroke-opacity="0">C</text>
<g class="stroked-text"><desc>C</desc>
<path d="M10.2456 17.2444
L10.2234 17.2666
" />
<path d="M10.2234 17.2666
L10.1567 17.2889
" />
<path d="M10.1567 17.2889
L10.1123 17.2889
" />
<path d="M10.1123 17.2889
L10.0456 17.2666
" />
<path d="M10.0456 17.2666
L10.0012 17.2222
" />
<path d="M10.0012 17.2222
L9.9790 17.1778
" />
<path d="M9.9790 17.1778
L9.9567 17.0889
" />
<path d="M9.9567 17.0889
L9.9567 17.0222
" />
<path d="M9.9567 17.0222
L9.9790 16.9333
" />
<path d="M9.9790 16.9333
L10.0012 16.8889
" />
<path d="M10.0012 16.8889
L10.0456 16.8444
" />
<path d="M10.0456 16.8444
L10.1123 16.8222
" />
<path d="M10.1123 16.8222
L10.1567 16.8222
" />
<path d="M10.1567 16.8222
L10.2234 16.8444
" />
<path d="M10.2234 16.8444
L10.2456 16.8666
" />
</g></g>
<g style="fill:none; 
stroke:#AFAFAF; stroke-width:0.0212; stroke-opacity:1; 
stroke-linecap:round; stroke-linejoin:round;">
<path d="M9.9012 17.5750
L10.3012 17.5750
" />
<path d="M10.3012 17.5750 A0.5000 0.5000 0.0 0 0 10.3012 16.5750" />
<path d="M10.3012 16.5750
L9.9012 16.5750
" />
<path d="M9.9012 16.5750 A0.5000 0.5000 0.0 0 0 9.9012 17.5750" />
</g>
<g style="fill:none; 
stroke:#AFAFAF; stroke-width:0.0833; stroke-opacity:1; 
stroke-linecap:round; stroke-linejoin:round;">
<g transform="rotate(-90.000000 4.5712 9.5750)">
<text x="4.5712" y="10.0750"
textLength="2.1929" font-size="1.3333" lengthAdjust="spacingAndGlyphs"
text-anchor="middle" opacity="0" stroke-opacity="0">MP</text>
</g>
<g class="stroked-text"><desc>MP</desc>
<path d="M5.0295 10.4083
L4.0295 10.4083
" />
<path d="M4.0295 10.4083
L4.7438 10.0750
" />
<path d="M4.7438 10.0750
L4.0295 9.7417
" />
<path d="M4.0295 9.7417
L5.0295 9.7417
" />
<path d="M5.0295 9.2655
L4.0295 9.2655
" />
<path d="M4.0295 9.2655
L4.0295 8.8845
" />
<path d="M4.0295 8.8845
L4.0771 8.7893
" />
<path d="M4.0771 8.7893
L4.1247 8.7417
" />
<path d="M4.1247 8.7417
L4.2200 8.6940
" />
<path d="M4.2200 8.6940
L4.3628 8.6940
" />
<path d="M4.3628 8.6940
L4.4580 8.7417
" />
<path d="M4.4580 8.7417
L4.5057 8.7893
" />
<path d="M4.5057 8.7893
L4.5533 8.8845
" />
<path d="M4.5533 8.8845
L4.5533 9.2655
" />
</g><path style="fill:none; 
stroke:#AFAFAF; stroke-width:0.0212; stroke-opacity:1; 
stroke-linecap:round; stroke-linejoin:round;fill:none"
d="M 3.5712,8.2750
3.5864,8.1985
3.6298,8.1336
3.6947,8.0902
3.7712,8.0750
4.9712,8.0750
5.5712,8.6750
5.5712,10.4750
4.9712,11.0750
3.7712,11.0750
3.6947,11.0598
3.6298,11.0164
3.5864,10.9515
3.5712,10.8750
Z" /> 
</g>
<g style="fill:none; 
stroke:#AFAFAF; stroke-width:0.0833; stroke-opacity:1; 
stroke-linecap:round; stroke-linejoin:round;">
<g transform="rotate(-90.000000 15.6312 9.5750)">
<text x="15.6312" y="10.0750"
textLength="2.1929" font-size="1.3333" lengthAdjust="spacingAndGlyphs"
text-anchor="middle" opacity="0" stroke-opacity="0">MP</text>
</g>
<g class="stroked-text"><desc>MP</desc>
<path d="M16.0895 10.4083
L15.0895 10.4083
" />
<path d="M15.0895 10.4083
L15.8038 10.0750
" />
<path d="M15.8038 10.0750
L15.0895 9.7417
" />
<path d="M15.0895 9.7417
L16.0895 9.7417
" />
<path d="M16.0895 9.2655
L15.0895 9.2655
" />
<path d="M15.0895 9.2655
L15.0895 8.8845
" />
<path d="M15.0895 8.8845
L15.1371 8.7893
" />
<path d="M15.1371 8.7893
L15.1847 8.7417
" />
<path d="M15.1847 8.7417
L15.2800 8.6940
" />
<path d="M15.2800 8.6940
L15.4228 8.6940
" />
<path d="M15.4228 8.6940
L15.5180 8.7417
" />
<path d="M15.5180 8.7417
L15.5657 8.7893
" />
<path d="M15.5657 8.7893
L15.6133 8.8845
" />
<path d="M15.6133 8.8845
L15.6133 9.2655
" />
</g><path style="fill:none; 
stroke:#AFAFAF; stroke-width:0.0212; stroke-opacity:1; 
stroke-linecap:round; stroke-linejoin:round;fill:none"
d="M 14.6312,10.3350
14.6312,8.6750
15.2312,8.0750
16.4312,8.0750
16.5112,8.0950
16.5712,8.1350
16.6112,8.1950
16.6312,8.2750
16.6312,10.4750
16.0312,11.0750
15.5112,11.0750
Z" /> 
</g>
<g style="fill:none; 
stroke:#AFAFAF; stroke-width:0.0639; stroke-opacity:1; 
stroke-linecap:round; stroke-linejoin:round;">
<text x="6.2912" y="7.4183"
textLength="1.4987" font-size="1.0222" lengthAdjust="spacingAndGlyphs"
text-anchor="middle" opacity="0" stroke-opacity="0">S1</text>
<g class="stroked-text"><desc>S1</desc>
<path d="M5.7071 7.3498
L5.8166 7.3864
" />
<path d="M5.8166 7.3864
L5.9991 7.3864
" />
<path d="M5.9991 7.3864
L6.0721 7.3498
" />
<path d="M6.0721 7.3498
L6.1087 7.3133
" />
<path d="M6.1087 7.3133
L6.1452 7.2403
" />
<path d="M6.1452 7.2403
L6.1452 7.1673
" />
<path d="M6.1452 7.1673
L6.1087 7.0943
" />
<path d="M6.1087 7.0943
L6.0721 7.0578
" />
<path d="M6.0721 7.0578
L5.9991 7.0213
" />
<path d="M5.9991 7.0213
L5.8531 6.9848
" />
<path d="M5.8531 6.9848
L5.7801 6.9483
" />
<path d="M5.7801 6.9483
L5.7436 6.9117
" />
<path d="M5.7436 6.9117
L5.7071 6.8387
" />
<path d="M5.7071 6.8387
L5.7071 6.7657
" />
<path d="M5.7071 6.7657
L5.7436 6.6927
" />
<path d="M5.7436 6.6927
L5.7801 6.6562
" />
<path d="M5.7801 6.6562
L5.8531 6.6197
" />
<path d="M5.8531 6.6197
L6.0356 6.6197
" />
<path d="M6.0356 6.6197
L6.1452 6.6562
" />
<path d="M6.8753 7.3864
L6.4372 7.3864
" />
<path d="M6.6563 7.3864
L6.6563 6.6197
" />
<path d="M6.6563 6.6197
L6.5833 6.7292
" />
<path d="M6.5833 6.7292
L6.5102 6.8022
" />
<path d="M6.5102 6.8022
L6.4372 6.8387
" />
</g></g>
<g style="fill:none; 
stroke:#AFAFAF; stroke-width:0.0212; stroke-opacity:1; 
stroke-linecap:round; stroke-linejoin:round;">
<circle cx="6.2912" cy="7.0350" r="1.1500" /> 
</g>
<g style="fill:none; 
stroke:#AFAFAF; stroke-width:0.0389; stroke-opacity:1; 
stroke-linecap:round; stroke-linejoin:round;">
<text x="7.6012" y="2.8083"
textLength="0.9122" font-size="0.6222" lengthAdjust="spacingAndGlyphs"
text-anchor="middle" opacity="0" stroke-opacity="0">S1</text>
<g class="stroked-text"><desc>S1</desc>
<path d="M7.2456 2.7666
L7.3123 2.7889
" />
<path d="M7.3123 2.7889
L7.4234 2.7889
" />
<path d="M7.4234 2.7889
L7.4679 2.7666
" />
<path d="M7.4679 2.7666
L7.4901 2.7444
" />
<path d="M7.4901 2.7444
L7.5123 2.7000
" />
<path d="M7.5123 2.7000
L7.5123 2.6555
" />
<path d="M7.5123 2.6555
L7.4901 2.6111
" />
<path d="M7.4901 2.6111
L7.4679 2.5889
" />
<path d="M7.4679 2.5889
L7.4234 2.5666
" />
<path d="M7.4234 2.5666
L7.3345 2.5444
" />
<path d="M7.3345 2.5444
L7.2901 2.5222
" />
<path d="M7.2901 2.5222
L7.2679 2.5000
" />
<path d="M7.2679 2.5000
L7.2456 2.4555
" />
<path d="M7.2456 2.4555
L7.2456 2.4111
" />
<path d="M7.2456 2.4111
L7.2679 2.3666
" />
<path d="M7.2679 2.3666
L7.2901 2.3444
" />
<path d="M7.2901 2.3444
L7.3345 2.3222
" />
<path d="M7.3345 2.3222
L7.4456 2.3222
" />
<path d="M7.4456 2.3222
L7.5123 2.3444
" />
<path d="M7.9567 2.7889
L7.6901 2.7889
" />
<path d="M7.8234 2.7889
L7.8234 2.3222
" />
<path d="M7.8234 2.3222
L7.7790 2.3889
" />
<path d="M7.7790 2.3889
L7.7345 2.4333
" />
<path d="M7.7345 2.4333
L7.6901 2.4555
" />
</g></g>
<g style="fill:none; 
stroke:#AFAFAF; stroke-width:0.0212; stroke-opacity:1; 
stroke-linecap:round; stroke-linejoin:round;">
<path d="M7.4012 3.0750
L7.8012 3.0750
" />
<path d="M7.8012 3.0750 A0.5000 0.5000 0.0 0 0 7.8012 2.0750" />
<path d="M7.8012 2.0750
L7.4012 2.0750
" />
<path d="M7.4012 2.0750 A0.5000 0.5000 0.0 0 0 7.4012 3.0750" />
</g>
<g style="fill:none; 
stroke:#AFAFAF; stroke-width:0.0389; stroke-opacity:1; 
stroke-linecap:round; stroke-linejoin:round;">
<text x="12.6012" y="2.8083"
textLength="0.9122" font-size="0.6222" lengthAdjust="spacingAndGlyphs"
text-anchor="middle" opacity="0" stroke-opacity="0">S2</text>
<g class="stroked-text"><desc>S2</desc>
<path d="M12.2456 2.7666
L12.3123 2.7889
" />
<path d="M12.3123 2.7889
L12.4234 2.7889
" />
<path d="M12.4234 2.7889
L12.4679 2.7666
" />
<path d="M12.4679 2.7666
L12.4901 2.7444
" />
<path d="M12.4901 2.7444
L12.5123 2.7000
" />
<path d="M12.5123 2.7000
L12.5123 2.6555
" />
<path d="M12.5123 2.6555
L12.4901 2.6111
" />
<path d="M12.4901 2.6111
L12.4679 2.5889
" />
<path d="M12.4679 2.5889
L12.4234 2.5666
" />
<path d="M12.4234 2.5666
L12.3345 2.5444
" />
<path d="M12.3345 2.5444
L12.2901 2.5222
" />
<path d="M12.2901 2.5222
L12.2679 2.5000
" />
<path d="M12.2679 2.5000
L12.2456 2.4555
" />
<path d="M12.2456 2.4555
L12.2456 2.4111
" />
<path d="M12.2456 2.4111
L12.2679 2.3666
" />
<path d="M12.2679 2.3666
L12.2901 2.3444
" />
<path d="M12.2901 2.3444
L12.3345 2.3222
" />
<path d="M12.3345 2.3222
L12.4456 2.3222
" />
<path d="M12.4456 2.3222
L12.5123 2.3444
" />
<path d="M12.6901 2.3666
L12.7123 2.3444
" />
<path d="M12.7123 2.3444
L12.7567 2.3222
" />
<path d="M12.7567 2.3222
L12.8679 2.3222
" />
<path d="M12.8679 2.3222
L12.9123 2.3444
" />
<path d="M12.9123 2.3444
L12.9345 2.3666
" />
<path d="M12.9345 2.3666
L12.9567 2.4111
" />
<path d="M12.9567 2.4111
L12.9567 2.4555
" />
<path d="M12.9567 2.4555
L12.9345 2.5222
" />
<path d="M12.9345 2.5222
L12.6679 2.7889
" />
<path d="M12.6679 2.7889
L12.9567 2.7889
" />
</g></g>
<g style="fill:none; 
stroke:#AFAFAF; stroke-width:0.0212; stroke-opacity:1; 
stroke-linecap:round; stroke-linejoin:round;">
<path d="M12.4012 3.0750
L12.8012 3.0750
" />
<path d="M12.8012 3.0750 A0.5000 0.5000 0.0 0 0 12.8012 2.0750" />
<path d="M12.8012 2.0750
L12.4012 2.0750
" />
<path d="M12.4012 2.0750 A0.5000 0.5000 0.0 0 0 12.4012 3.0750" />
</g>
<g style="fill:none; 
stroke:#AFAFAF; stroke-width:0.0639; stroke-opacity:1; 
stroke-linecap:round; stroke-linejoin:round;">
<text x="12.6412" y="4.8783"
textLength="1.4987" font-size="1.0222" lengthAdjust="spacingAndGlyphs"
text-anchor="middle" opacity="0" stroke-opacity="0">S2</text>
<g class="stroked-text"><desc>S2</desc>
<path d="M12.0571 4.8098
L12.1666 4.8464
" />
<path d="M12.1666 4.8464
L12.3491 4.8464
" />
<path d="M12.3491 4.8464
L12.4221 4.8098
" />
<path d="M12.4221 4.8098
L12.4587 4.7733
" />
<path d="M12.4587 4.7733
L12.4952 4.7003
" />
<path d="M12.4952 4.7003
L12.4952 4.6273
" />
<path d="M12.4952 4.6273
L12.4587 4.5543
" />
<path d="M12.4587 4.5543
L12.4221 4.5178
" />
<path d="M12.4221 4.5178
L12.3491 4.4813
" />
<path d="M12.3491 4.4813
L12.2031 4.4448
" />
<path d="M12.2031 4.4448
L12.1301 4.4083
" />
<path d="M12.1301 4.4083
L12.0936 4.3717
" />
<path d="M12.0936 4.3717
L12.0571 4.2987
" />
<path d="M12.0571 4.2987
L12.0571 4.2257
" />
<path d="M12.0571 4.2257
L12.0936 4.1527
" />
<path d="M12.0936 4.1527
L12.1301 4.1162
" />
<path d="M12.1301 4.1162
L12.2031 4.0797
" />
<path d="M12.2031 4.0797
L12.3856 4.0797
" />
<path d="M12.3856 4.0797
L12.4952 4.1162
" />
<path d="M12.7872 4.1527
L12.8237 4.1162
" />
<path d="M12.8237 4.1162
L12.8967 4.0797
" />
<path d="M12.8967 4.0797
L13.0793 4.0797
" />
<path d="M13.0793 4.0797
L13.1523 4.1162
" />
<path d="M13.1523 4.1162
L13.1888 4.1527
" />
<path d="M13.1888 4.1527
L13.2253 4.2257
" />
<path d="M13.2253 4.2257
L13.2253 4.2987
" />
<path d="M13.2253 4.2987
L13.1888 4.4083
" />
<path d="M13.1888 4.4083
L12.7507 4.8464
" />
<path d="M12.7507 4.8464
L13.2253 4.8464
" />
</g></g>
<g style="fill:none; 
stroke:#AFAFAF; stroke-width:0.0212; stroke-opacity:1; 
stroke-linecap:round; stroke-linejoin:round;">
<circle cx="12.6412" cy="4.4950" r="1.1500" /> 
<path style="fill:none; 
stroke:#C2C2C2; stroke-width:0.1000; stroke-opacity:1; 
stroke-linecap:round; stroke-linejoin:round;fill:none"
d="M 0.5762,0.0500
19.6262,0.0500
19.6262,19.1000
0.5762,19.1000
Z" /> 
</g> 
</svg>
