<?xml version="1.0" standalone="no"?>
 <!DOCTYPE svg PUBLIC "-//W3C//DTD SVG 1.1//EN" 
 "http://www.w3.org/Graphics/SVG/1.1/DTD/svg11.dtd"> 
<svg
  xmlns:svg="http://www.w3.org/2000/svg"
  xmlns="http://www.w3.org/2000/svg"
  xmlns:xlink="http://www.w3.org/1999/xlink"
  version="1.1"
  width="20.1930mm" height="21.4122mm" viewBox="0.0000 0.0000 20.1930 21.4122">
<title>SVG Image created as SW_MX_EC11_HotSwap_THT.svg date 2025/05/13 13:29:23 </title>
  <desc>Image generated by PCBNEW </desc>
<g style="fill:#000000; fill-opacity:1.0000;stroke:#000000; stroke-opacity:1.0000;
stroke-linecap:round; stroke-linejoin:round;"
 transform="translate(0 0) scale(1 1)">
</g>
<g style="fill:none; 
stroke:#E8B2A7; stroke-width:0.1200; stroke-opacity:1; 
stroke-linecap:round; stroke-linejoin:round;">
<path d="M3.0012 2.4750
L4.0012 2.4750
" />
<path d="M3.0012 3.4750
L3.0012 2.4750
" />
<path d="M3.0012 16.6750
L3.0012 15.6750
" />
<path d="M4.0012 16.6750
L3.0012 16.6750
" />
<path d="M16.2012 2.4750
L17.2012 2.4750
" />
<path d="M17.2012 2.4750
L17.2012 3.4750
" />
<path d="M17.2012 15.6750
L17.2012 16.6750
" />
<path d="M17.2012 16.6750
L16.2012 16.6750
" />
</g>
<g style="fill:none; 
stroke:#F2EDA1; stroke-width:0.1500; stroke-opacity:1; 
stroke-linecap:round; stroke-linejoin:round;">
<text x="10.1012" y="7.0750"
textLength="4.5357" font-size="1.3333" lengthAdjust="spacingAndGlyphs"
text-anchor="middle" opacity="0" stroke-opacity="0">REF**</text>
<g class="stroked-text"><desc>REF**</desc>
<path d="M8.7679 7.0298
L8.4345 6.5536
" />
<path d="M8.1964 7.0298
L8.1964 6.0298
" />
<path d="M8.1964 6.0298
L8.5774 6.0298
" />
<path d="M8.5774 6.0298
L8.6726 6.0774
" />
<path d="M8.6726 6.0774
L8.7202 6.1251
" />
<path d="M8.7202 6.1251
L8.7679 6.2203
" />
<path d="M8.7679 6.2203
L8.7679 6.3632
" />
<path d="M8.7679 6.3632
L8.7202 6.4584
" />
<path d="M8.7202 6.4584
L8.6726 6.5060
" />
<path d="M8.6726 6.5060
L8.5774 6.5536
" />
<path d="M8.5774 6.5536
L8.1964 6.5536
" />
<path d="M9.1964 6.5060
L9.5298 6.5060
" />
<path d="M9.6726 7.0298
L9.1964 7.0298
" />
<path d="M9.1964 7.0298
L9.1964 6.0298
" />
<path d="M9.1964 6.0298
L9.6726 6.0298
" />
<path d="M10.4345 6.5060
L10.1012 6.5060
" />
<path d="M10.1012 7.0298
L10.1012 6.0298
" />
<path d="M10.1012 6.0298
L10.5774 6.0298
" />
<path d="M11.1012 6.0298
L11.1012 6.2679
" />
<path d="M10.8631 6.1727
L11.1012 6.2679
" />
<path d="M11.1012 6.2679
L11.3393 6.1727
" />
<path d="M10.9583 6.4584
L11.1012 6.2679
" />
<path d="M11.1012 6.2679
L11.2440 6.4584
" />
<path d="M11.8631 6.0298
L11.8631 6.2679
" />
<path d="M11.6250 6.1727
L11.8631 6.2679
" />
<path d="M11.8631 6.2679
L12.1012 6.1727
" />
<path d="M11.7202 6.4584
L11.8631 6.2679
" />
<path d="M11.8631 6.2679
L12.0060 6.4584
" />
</g></g>
<g style="fill:none; 
stroke:#F2EDA1; stroke-width:0.1200; stroke-opacity:1; 
stroke-linecap:round; stroke-linejoin:round;">
<path d="M3.7512 14.0200
L3.7512 13.6650
" />
<path d="M6.2912 16.5600
L15.1812 16.5600
" />
<path d="M7.6370 10.2100
L5.9102 10.2100
" />
<path d="M15.1812 12.1150
L10.1012 12.1150
" />
<path d="M15.1812 12.1150
L15.1812 13.1050
" />
<path d="M15.1812 16.5600
L15.1812 16.2050
" />
<path d="M3.7512 14.0200 A2.5400 2.5400 0.0 0 0 6.2912 16.5600" />
<path d="M7.6415 10.2088 A2.5400 2.5400 0.0 0 0 10.1012 12.1150" />
<path style="fill:#B4A09A; fill-opacity:0.9000; stroke:none;fill-rule:evenodd;"
d="M 17.6662,15.6550
17.6472,15.7507
17.5930,15.8318
17.5119,15.8860
17.4162,15.9050
15.3662,15.9050
15.2705,15.8860
15.1894,15.8318
15.1352,15.7507
15.1162,15.6550
15.1162,13.6550
15.1352,13.5593
15.1894,13.4782
15.2705,13.4240
15.3662,13.4050
17.4162,13.4050
17.5119,13.4240
17.5930,13.4782
17.6472,13.5593
17.6662,13.6550
Z" /> 
<path style="fill:#B4A09A; fill-opacity:0.9000; stroke:none;fill-rule:evenodd;"
d="M 3.8162,13.1150
3.7972,13.2107
3.7430,13.2918
3.6619,13.3460
3.5662,13.3650
1.5162,13.3650
1.4205,13.3460
1.3394,13.2918
1.2852,13.2107
1.2662,13.1150
1.2662,11.1150
1.2852,11.0193
1.3394,10.9382
1.4205,10.8840
1.5162,10.8650
3.5662,10.8650
3.6619,10.8840
3.7430,10.9382
3.7972,11.0193
3.8162,11.1150
Z" /> 
</g>
<g style="fill:none; 
stroke:#4D7FC4; stroke-width:1.0000; stroke-opacity:1; 
stroke-linecap:round; stroke-linejoin:round;">
<path d="M12.8012 17.0750
L12.4012 17.0750
" />
<path d="M7.8012 17.0750
L7.4012 17.0750
" />
<path d="M10.3012 17.0750
L9.9012 17.0750
" />
<path style="fill:#4D7FC4; fill-opacity:1.0000; stroke:none;fill-rule:evenodd;"
d="M 5.5712,8.6750
5.5712,10.3350
4.6912,11.0750
4.1712,11.0750
3.5712,10.4750
3.5712,8.2750
3.5912,8.1950
3.6312,8.1350
3.6912,8.0950
3.7712,8.0750
4.9712,8.0750
Z" /> 
<path style="fill:#4D7FC4; fill-opacity:1.0000; stroke:none;fill-rule:evenodd;"
d="M 16.6312,10.8750
16.6160,10.9515
16.5726,11.0164
16.5077,11.0598
16.4312,11.0750
15.2312,11.0750
14.6312,10.4750
14.6312,8.6750
15.2312,8.0750
16.4312,8.0750
16.5077,8.0902
16.5726,8.1336
16.6160,8.1985
16.6312,8.2750
Z" /> 
</g>
<g style="fill:none; 
stroke:#4D7FC4; stroke-width:1.0000; stroke-opacity:1; 
stroke-linecap:round; stroke-linejoin:round;">
<path d="M12.8012 2.5750
L12.4012 2.5750
" />
</g>
<g style="fill:#4D7FC4; fill-opacity:1.0000; stroke:none;">
<circle cx="13.9112" cy="7.0350" r="1.1500" /> 
</g>
<g style="fill:#4D7FC4; fill-opacity:1.0000; stroke:none;">
<circle cx="7.5612" cy="4.4950" r="1.1500" /> 
</g>
<g style="fill:none; 
stroke:#4D7FC4; stroke-width:1.0000; stroke-opacity:1; 
stroke-linecap:round; stroke-linejoin:round;">
<path d="M7.8012 2.5750
L7.4012 2.5750
" />
</g>
<g style="fill:none; 
stroke:#C83434; stroke-width:1.0000; stroke-opacity:1; 
stroke-linecap:round; stroke-linejoin:round;">
<path d="M12.8012 17.0750
L12.4012 17.0750
" />
<path d="M7.8012 17.0750
L7.4012 17.0750
" />
<path d="M10.3012 17.0750
L9.9012 17.0750
" />
<path style="fill:#C83434; fill-opacity:1.0000; stroke:none;fill-rule:evenodd;"
d="M 5.5712,8.6750
5.5712,10.3350
4.6912,11.0750
4.1712,11.0750
3.5712,10.4750
3.5712,8.2750
3.5912,8.1950
3.6312,8.1350
3.6912,8.0950
3.7712,8.0750
4.9712,8.0750
Z" /> 
<path style="fill:#C83434; fill-opacity:1.0000; stroke:none;fill-rule:evenodd;"
d="M 16.6312,10.8750
16.6160,10.9515
16.5726,11.0164
16.5077,11.0598
16.4312,11.0750
15.2312,11.0750
14.6312,10.4750
14.6312,8.6750
15.2312,8.0750
16.4312,8.0750
16.5077,8.0902
16.5726,8.1336
16.6160,8.1985
16.6312,8.2750
Z" /> 
</g>
<g style="fill:none; 
stroke:#C83434; stroke-width:1.0000; stroke-opacity:1; 
stroke-linecap:round; stroke-linejoin:round;">
<path d="M12.8012 2.5750
L12.4012 2.5750
" />
</g>
<g style="fill:#C83434; fill-opacity:1.0000; stroke:none;">
<circle cx="13.9112" cy="7.0350" r="1.1500" /> 
<path style="fill:#C83434; fill-opacity:1.0000; stroke:none;fill-rule:evenodd;"
d="M 17.6662,15.6550
17.6472,15.7507
17.5930,15.8318
17.5119,15.8860
17.4162,15.9050
15.3662,15.9050
15.2705,15.8860
15.1894,15.8318
15.1352,15.7507
15.1162,15.6550
15.1162,13.6550
15.1352,13.5593
15.1894,13.4782
15.2705,13.4240
15.3662,13.4050
17.4162,13.4050
17.5119,13.4240
17.5930,13.4782
17.6472,13.5593
17.6662,13.6550
Z" /> 
<path style="fill:#C83434; fill-opacity:1.0000; stroke:none;fill-rule:evenodd;"
d="M 3.8162,13.1150
3.7972,13.2107
3.7430,13.2918
3.6619,13.3460
3.5662,13.3650
1.5162,13.3650
1.4205,13.3460
1.3394,13.2918
1.2852,13.2107
1.2662,13.1150
1.2662,11.1150
1.2852,11.0193
1.3394,10.9382
1.4205,10.8840
1.5162,10.8650
3.5662,10.8650
3.6619,10.8840
3.7430,10.9382
3.7972,11.0193
3.8162,11.1150
Z" /> 
</g>
<g style="fill:#C83434; fill-opacity:1.0000; stroke:none;">
<circle cx="7.5612" cy="4.4950" r="1.1500" /> 
</g>
<g style="fill:none; 
stroke:#C83434; stroke-width:1.0000; stroke-opacity:1; 
stroke-linecap:round; stroke-linejoin:round;">
<path d="M7.8012 2.5750
L7.4012 2.5750
" />
<path style="fill:none; 
stroke:#585D84; stroke-width:0.1000; stroke-opacity:1; 
stroke-linecap:round; stroke-linejoin:round;fill:none"
d="M 3.1012,2.5750
17.1012,2.5750
17.1012,16.5750
3.1012,16.5750
Z" /> 
</g>
<g style="fill:none; 
stroke:#585D84; stroke-width:0.0212; stroke-opacity:1; 
stroke-linecap:round; stroke-linejoin:round;">
<circle cx="6.2912" cy="12.1150" r="1.5000" /> 
</g>
<g style="fill:none; 
stroke:#585D84; stroke-width:0.0212; stroke-opacity:1; 
stroke-linecap:round; stroke-linejoin:round;">
<circle cx="10.1012" cy="9.5750" r="2.0000" /> 
</g>
<g style="fill:none; 
stroke:#585D84; stroke-width:0.0212; stroke-opacity:1; 
stroke-linecap:round; stroke-linejoin:round;">
<circle cx="10.1012" cy="9.5750" r="2.0000" /> 
</g>
<g style="fill:none; 
stroke:#585D84; stroke-width:0.0212; stroke-opacity:1; 
stroke-linecap:round; stroke-linejoin:round;">
<circle cx="10.1012" cy="9.5750" r="2.0000" /> 
</g>
<g style="fill:none; 
stroke:#585D84; stroke-width:0.0212; stroke-opacity:1; 
stroke-linecap:round; stroke-linejoin:round;">
<circle cx="12.6412" cy="14.6550" r="1.5000" /> 
</g>
<g style="fill:none; 
stroke:#585D84; stroke-width:0.0389; stroke-opacity:1; 
stroke-linecap:round; stroke-linejoin:round;">
<text x="12.6012" y="17.3083"
textLength="0.4233" font-size="0.6222" lengthAdjust="spacingAndGlyphs"
text-anchor="middle" opacity="0" stroke-opacity="0">A</text>
<g class="stroked-text"><desc>A</desc>
<path d="M12.4901 17.1555
L12.7123 17.1555
" />
<path d="M12.4456 17.2889
L12.6012 16.8222
" />
<path d="M12.6012 16.8222
L12.7567 17.2889
" />
</g></g>
<g style="fill:none; 
stroke:#585D84; stroke-width:0.0212; stroke-opacity:1; 
stroke-linecap:round; stroke-linejoin:round;">
<path d="M12.8012 16.5750
L12.4012 16.5750
" />
<path d="M12.4012 16.5750 A0.5000 0.5000 0.0 0 0 12.4012 17.5750" />
<path d="M12.4012 17.5750
L12.8012 17.5750
" />
<path d="M12.8012 17.5750 A0.5000 0.5000 0.0 0 0 12.8012 16.5750" />
</g>
<g style="fill:none; 
stroke:#585D84; stroke-width:0.0389; stroke-opacity:1; 
stroke-linecap:round; stroke-linejoin:round;">
<text x="7.6012" y="17.3083"
textLength="0.4900" font-size="0.6222" lengthAdjust="spacingAndGlyphs"
text-anchor="middle" opacity="0" stroke-opacity="0">B</text>
<g class="stroked-text"><desc>B</desc>
<path d="M7.6345 17.0444
L7.7012 17.0666
" />
<path d="M7.7012 17.0666
L7.7234 17.0889
" />
<path d="M7.7234 17.0889
L7.7456 17.1333
" />
<path d="M7.7456 17.1333
L7.7456 17.2000
" />
<path d="M7.7456 17.2000
L7.7234 17.2444
" />
<path d="M7.7234 17.2444
L7.7012 17.2666
" />
<path d="M7.7012 17.2666
L7.6567 17.2889
" />
<path d="M7.6567 17.2889
L7.4790 17.2889
" />
<path d="M7.4790 17.2889
L7.4790 16.8222
" />
<path d="M7.4790 16.8222
L7.6345 16.8222
" />
<path d="M7.6345 16.8222
L7.6790 16.8444
" />
<path d="M7.6790 16.8444
L7.7012 16.8666
" />
<path d="M7.7012 16.8666
L7.7234 16.9111
" />
<path d="M7.7234 16.9111
L7.7234 16.9555
" />
<path d="M7.7234 16.9555
L7.7012 17.0000
" />
<path d="M7.7012 17.0000
L7.6790 17.0222
" />
<path d="M7.6790 17.0222
L7.6345 17.0444
" />
<path d="M7.6345 17.0444
L7.4790 17.0444
" />
</g></g>
<g style="fill:none; 
stroke:#585D84; stroke-width:0.0212; stroke-opacity:1; 
stroke-linecap:round; stroke-linejoin:round;">
<path d="M7.8012 16.5750
L7.4012 16.5750
" />
<path d="M7.4012 16.5750 A0.5000 0.5000 0.0 0 0 7.4012 17.5750" />
<path d="M7.4012 17.5750
L7.8012 17.5750
" />
<path d="M7.8012 17.5750 A0.5000 0.5000 0.0 0 0 7.8012 16.5750" />
</g>
<g style="fill:none; 
stroke:#585D84; stroke-width:0.0389; stroke-opacity:1; 
stroke-linecap:round; stroke-linejoin:round;">
<text x="10.1012" y="17.3083"
textLength="0.4900" font-size="0.6222" lengthAdjust="spacingAndGlyphs"
text-anchor="middle" opacity="0" stroke-opacity="0">C</text>
<g class="stroked-text"><desc>C</desc>
<path d="M10.2456 17.2444
L10.2234 17.2666
" />
<path d="M10.2234 17.2666
L10.1567 17.2889
" />
<path d="M10.1567 17.2889
L10.1123 17.2889
" />
<path d="M10.1123 17.2889
L10.0456 17.2666
" />
<path d="M10.0456 17.2666
L10.0012 17.2222
" />
<path d="M10.0012 17.2222
L9.9790 17.1778
" />
<path d="M9.9790 17.1778
L9.9567 17.0889
" />
<path d="M9.9567 17.0889
L9.9567 17.0222
" />
<path d="M9.9567 17.0222
L9.9790 16.9333
" />
<path d="M9.9790 16.9333
L10.0012 16.8889
" />
<path d="M10.0012 16.8889
L10.0456 16.8444
" />
<path d="M10.0456 16.8444
L10.1123 16.8222
" />
<path d="M10.1123 16.8222
L10.1567 16.8222
" />
<path d="M10.1567 16.8222
L10.2234 16.8444
" />
<path d="M10.2234 16.8444
L10.2456 16.8666
" />
</g></g>
<g style="fill:none; 
stroke:#585D84; stroke-width:0.0212; stroke-opacity:1; 
stroke-linecap:round; stroke-linejoin:round;">
<path d="M10.3012 16.5750
L9.9012 16.5750
" />
<path d="M9.9012 16.5750 A0.5000 0.5000 0.0 0 0 9.9012 17.5750" />
<path d="M9.9012 17.5750
L10.3012 17.5750
" />
<path d="M10.3012 17.5750 A0.5000 0.5000 0.0 0 0 10.3012 16.5750" />
</g>
<g style="fill:none; 
stroke:#585D84; stroke-width:0.0833; stroke-opacity:1; 
stroke-linecap:round; stroke-linejoin:round;">
<g transform="rotate(-90.000000 4.5712 9.5750)">
<text x="4.5712" y="10.0750"
textLength="2.1929" font-size="1.3333" lengthAdjust="spacingAndGlyphs"
text-anchor="middle" opacity="0" stroke-opacity="0">MP</text>
</g>
<g class="stroked-text"><desc>MP</desc>
<path d="M5.0295 10.4083
L4.0295 10.4083
" />
<path d="M4.0295 10.4083
L4.7438 10.0750
" />
<path d="M4.7438 10.0750
L4.0295 9.7417
" />
<path d="M4.0295 9.7417
L5.0295 9.7417
" />
<path d="M5.0295 9.2655
L4.0295 9.2655
" />
<path d="M4.0295 9.2655
L4.0295 8.8845
" />
<path d="M4.0295 8.8845
L4.0771 8.7893
" />
<path d="M4.0771 8.7893
L4.1247 8.7417
" />
<path d="M4.1247 8.7417
L4.2200 8.6940
" />
<path d="M4.2200 8.6940
L4.3628 8.6940
" />
<path d="M4.3628 8.6940
L4.4580 8.7417
" />
<path d="M4.4580 8.7417
L4.5057 8.7893
" />
<path d="M4.5057 8.7893
L4.5533 8.8845
" />
<path d="M4.5533 8.8845
L4.5533 9.2655
" />
</g><path style="fill:none; 
stroke:#585D84; stroke-width:0.0212; stroke-opacity:1; 
stroke-linecap:round; stroke-linejoin:round;fill:none"
d="M 5.5712,8.6750
5.5712,10.3350
4.6912,11.0750
4.1712,11.0750
3.5712,10.4750
3.5712,8.2750
3.5912,8.1950
3.6312,8.1350
3.6912,8.0950
3.7712,8.0750
4.9712,8.0750
Z" /> 
</g>
<g style="fill:none; 
stroke:#585D84; stroke-width:0.0833; stroke-opacity:1; 
stroke-linecap:round; stroke-linejoin:round;">
<g transform="rotate(-90.000000 15.6312 9.5750)">
<text x="15.6312" y="10.0750"
textLength="2.1929" font-size="1.3333" lengthAdjust="spacingAndGlyphs"
text-anchor="middle" opacity="0" stroke-opacity="0">MP</text>
</g>
<g class="stroked-text"><desc>MP</desc>
<path d="M16.0895 10.4083
L15.0895 10.4083
" />
<path d="M15.0895 10.4083
L15.8038 10.0750
" />
<path d="M15.8038 10.0750
L15.0895 9.7417
" />
<path d="M15.0895 9.7417
L16.0895 9.7417
" />
<path d="M16.0895 9.2655
L15.0895 9.2655
" />
<path d="M15.0895 9.2655
L15.0895 8.8845
" />
<path d="M15.0895 8.8845
L15.1371 8.7893
" />
<path d="M15.1371 8.7893
L15.1847 8.7417
" />
<path d="M15.1847 8.7417
L15.2800 8.6940
" />
<path d="M15.2800 8.6940
L15.4228 8.6940
" />
<path d="M15.4228 8.6940
L15.5180 8.7417
" />
<path d="M15.5180 8.7417
L15.5657 8.7893
" />
<path d="M15.5657 8.7893
L15.6133 8.8845
" />
<path d="M15.6133 8.8845
L15.6133 9.2655
" />
</g><path style="fill:none; 
stroke:#585D84; stroke-width:0.0212; stroke-opacity:1; 
stroke-linecap:round; stroke-linejoin:round;fill:none"
d="M 16.6312,10.8750
16.6160,10.9515
16.5726,11.0164
16.5077,11.0598
16.4312,11.0750
15.2312,11.0750
14.6312,10.4750
14.6312,8.6750
15.2312,8.0750
16.4312,8.0750
16.5077,8.0902
16.5726,8.1336
16.6160,8.1985
16.6312,8.2750
Z" /> 
</g>
<g style="fill:none; 
stroke:#585D84; stroke-width:0.0389; stroke-opacity:1; 
stroke-linecap:round; stroke-linejoin:round;">
<text x="12.6012" y="2.8083"
textLength="0.9122" font-size="0.6222" lengthAdjust="spacingAndGlyphs"
text-anchor="middle" opacity="0" stroke-opacity="0">S1</text>
<g class="stroked-text"><desc>S1</desc>
<path d="M12.2456 2.7666
L12.3123 2.7889
" />
<path d="M12.3123 2.7889
L12.4234 2.7889
" />
<path d="M12.4234 2.7889
L12.4679 2.7666
" />
<path d="M12.4679 2.7666
L12.4901 2.7444
" />
<path d="M12.4901 2.7444
L12.5123 2.7000
" />
<path d="M12.5123 2.7000
L12.5123 2.6555
" />
<path d="M12.5123 2.6555
L12.4901 2.6111
" />
<path d="M12.4901 2.6111
L12.4679 2.5889
" />
<path d="M12.4679 2.5889
L12.4234 2.5666
" />
<path d="M12.4234 2.5666
L12.3345 2.5444
" />
<path d="M12.3345 2.5444
L12.2901 2.5222
" />
<path d="M12.2901 2.5222
L12.2679 2.5000
" />
<path d="M12.2679 2.5000
L12.2456 2.4555
" />
<path d="M12.2456 2.4555
L12.2456 2.4111
" />
<path d="M12.2456 2.4111
L12.2679 2.3666
" />
<path d="M12.2679 2.3666
L12.2901 2.3444
" />
<path d="M12.2901 2.3444
L12.3345 2.3222
" />
<path d="M12.3345 2.3222
L12.4456 2.3222
" />
<path d="M12.4456 2.3222
L12.5123 2.3444
" />
<path d="M12.9567 2.7889
L12.6901 2.7889
" />
<path d="M12.8234 2.7889
L12.8234 2.3222
" />
<path d="M12.8234 2.3222
L12.7790 2.3889
" />
<path d="M12.7790 2.3889
L12.7345 2.4333
" />
<path d="M12.7345 2.4333
L12.6901 2.4555
" />
</g></g>
<g style="fill:none; 
stroke:#585D84; stroke-width:0.0212; stroke-opacity:1; 
stroke-linecap:round; stroke-linejoin:round;">
<path d="M12.8012 2.0750
L12.4012 2.0750
" />
<path d="M12.4012 2.0750 A0.5000 0.5000 0.0 0 0 12.4012 3.0750" />
<path d="M12.4012 3.0750
L12.8012 3.0750
" />
<path d="M12.8012 3.0750 A0.5000 0.5000 0.0 0 0 12.8012 2.0750" />
</g>
<g style="fill:none; 
stroke:#585D84; stroke-width:0.0639; stroke-opacity:1; 
stroke-linecap:round; stroke-linejoin:round;">
<text x="13.9112" y="7.4183"
textLength="1.4987" font-size="1.0222" lengthAdjust="spacingAndGlyphs"
text-anchor="middle" opacity="0" stroke-opacity="0">S1</text>
<g class="stroked-text"><desc>S1</desc>
<path d="M13.3271 7.3498
L13.4366 7.3864
" />
<path d="M13.4366 7.3864
L13.6191 7.3864
" />
<path d="M13.6191 7.3864
L13.6921 7.3498
" />
<path d="M13.6921 7.3498
L13.7287 7.3133
" />
<path d="M13.7287 7.3133
L13.7652 7.2403
" />
<path d="M13.7652 7.2403
L13.7652 7.1673
" />
<path d="M13.7652 7.1673
L13.7287 7.0943
" />
<path d="M13.7287 7.0943
L13.6921 7.0578
" />
<path d="M13.6921 7.0578
L13.6191 7.0213
" />
<path d="M13.6191 7.0213
L13.4731 6.9848
" />
<path d="M13.4731 6.9848
L13.4001 6.9483
" />
<path d="M13.4001 6.9483
L13.3636 6.9117
" />
<path d="M13.3636 6.9117
L13.3271 6.8387
" />
<path d="M13.3271 6.8387
L13.3271 6.7657
" />
<path d="M13.3271 6.7657
L13.3636 6.6927
" />
<path d="M13.3636 6.6927
L13.4001 6.6562
" />
<path d="M13.4001 6.6562
L13.4731 6.6197
" />
<path d="M13.4731 6.6197
L13.6556 6.6197
" />
<path d="M13.6556 6.6197
L13.7652 6.6562
" />
<path d="M14.4953 7.3864
L14.0572 7.3864
" />
<path d="M14.2763 7.3864
L14.2763 6.6197
" />
<path d="M14.2763 6.6197
L14.2033 6.7292
" />
<path d="M14.2033 6.7292
L14.1302 6.8022
" />
<path d="M14.1302 6.8022
L14.0572 6.8387
" />
</g></g>
<g style="fill:none; 
stroke:#585D84; stroke-width:0.0212; stroke-opacity:1; 
stroke-linecap:round; stroke-linejoin:round;">
<circle cx="13.9112" cy="7.0350" r="1.1500" /> 
</g>
<g style="fill:none; 
stroke:#585D84; stroke-width:0.0639; stroke-opacity:1; 
stroke-linecap:round; stroke-linejoin:round;">
<text x="7.5612" y="4.8783"
textLength="1.4987" font-size="1.0222" lengthAdjust="spacingAndGlyphs"
text-anchor="middle" opacity="0" stroke-opacity="0">S2</text>
<g class="stroked-text"><desc>S2</desc>
<path d="M6.9771 4.8098
L7.0866 4.8464
" />
<path d="M7.0866 4.8464
L7.2691 4.8464
" />
<path d="M7.2691 4.8464
L7.3421 4.8098
" />
<path d="M7.3421 4.8098
L7.3787 4.7733
" />
<path d="M7.3787 4.7733
L7.4152 4.7003
" />
<path d="M7.4152 4.7003
L7.4152 4.6273
" />
<path d="M7.4152 4.6273
L7.3787 4.5543
" />
<path d="M7.3787 4.5543
L7.3421 4.5178
" />
<path d="M7.3421 4.5178
L7.2691 4.4813
" />
<path d="M7.2691 4.4813
L7.1231 4.4448
" />
<path d="M7.1231 4.4448
L7.0501 4.4083
" />
<path d="M7.0501 4.4083
L7.0136 4.3717
" />
<path d="M7.0136 4.3717
L6.9771 4.2987
" />
<path d="M6.9771 4.2987
L6.9771 4.2257
" />
<path d="M6.9771 4.2257
L7.0136 4.1527
" />
<path d="M7.0136 4.1527
L7.0501 4.1162
" />
<path d="M7.0501 4.1162
L7.1231 4.0797
" />
<path d="M7.1231 4.0797
L7.3056 4.0797
" />
<path d="M7.3056 4.0797
L7.4152 4.1162
" />
<path d="M7.7072 4.1527
L7.7437 4.1162
" />
<path d="M7.7437 4.1162
L7.8167 4.0797
" />
<path d="M7.8167 4.0797
L7.9993 4.0797
" />
<path d="M7.9993 4.0797
L8.0723 4.1162
" />
<path d="M8.0723 4.1162
L8.1088 4.1527
" />
<path d="M8.1088 4.1527
L8.1453 4.2257
" />
<path d="M8.1453 4.2257
L8.1453 4.2987
" />
<path d="M8.1453 4.2987
L8.1088 4.4083
" />
<path d="M8.1088 4.4083
L7.6707 4.8464
" />
<path d="M7.6707 4.8464
L8.1453 4.8464
" />
</g></g>
<g style="fill:none; 
stroke:#585D84; stroke-width:0.0212; stroke-opacity:1; 
stroke-linecap:round; stroke-linejoin:round;">
<circle cx="7.5612" cy="4.4950" r="1.1500" /> 
</g>
<g style="fill:none; 
stroke:#585D84; stroke-width:0.0389; stroke-opacity:1; 
stroke-linecap:round; stroke-linejoin:round;">
<text x="7.6012" y="2.8083"
textLength="0.9122" font-size="0.6222" lengthAdjust="spacingAndGlyphs"
text-anchor="middle" opacity="0" stroke-opacity="0">S2</text>
<g class="stroked-text"><desc>S2</desc>
<path d="M7.2456 2.7666
L7.3123 2.7889
" />
<path d="M7.3123 2.7889
L7.4234 2.7889
" />
<path d="M7.4234 2.7889
L7.4679 2.7666
" />
<path d="M7.4679 2.7666
L7.4901 2.7444
" />
<path d="M7.4901 2.7444
L7.5123 2.7000
" />
<path d="M7.5123 2.7000
L7.5123 2.6555
" />
<path d="M7.5123 2.6555
L7.4901 2.6111
" />
<path d="M7.4901 2.6111
L7.4679 2.5889
" />
<path d="M7.4679 2.5889
L7.4234 2.5666
" />
<path d="M7.4234 2.5666
L7.3345 2.5444
" />
<path d="M7.3345 2.5444
L7.2901 2.5222
" />
<path d="M7.2901 2.5222
L7.2679 2.5000
" />
<path d="M7.2679 2.5000
L7.2456 2.4555
" />
<path d="M7.2456 2.4555
L7.2456 2.4111
" />
<path d="M7.2456 2.4111
L7.2679 2.3666
" />
<path d="M7.2679 2.3666
L7.2901 2.3444
" />
<path d="M7.2901 2.3444
L7.3345 2.3222
" />
<path d="M7.3345 2.3222
L7.4456 2.3222
" />
<path d="M7.4456 2.3222
L7.5123 2.3444
" />
<path d="M7.6901 2.3666
L7.7123 2.3444
" />
<path d="M7.7123 2.3444
L7.7567 2.3222
" />
<path d="M7.7567 2.3222
L7.8679 2.3222
" />
<path d="M7.8679 2.3222
L7.9123 2.3444
" />
<path d="M7.9123 2.3444
L7.9345 2.3666
" />
<path d="M7.9345 2.3666
L7.9567 2.4111
" />
<path d="M7.9567 2.4111
L7.9567 2.4555
" />
<path d="M7.9567 2.4555
L7.9345 2.5222
" />
<path d="M7.9345 2.5222
L7.6679 2.7889
" />
<path d="M7.6679 2.7889
L7.9567 2.7889
" />
</g></g>
<g style="fill:none; 
stroke:#585D84; stroke-width:0.0212; stroke-opacity:1; 
stroke-linecap:round; stroke-linejoin:round;">
<path d="M7.8012 2.0750
L7.4012 2.0750
" />
<path d="M7.4012 2.0750 A0.5000 0.5000 0.0 0 0 7.4012 3.0750" />
<path d="M7.4012 3.0750
L7.8012 3.0750
" />
<path d="M7.8012 3.0750 A0.5000 0.5000 0.0 0 0 7.8012 2.0750" />
</g>
<g style="fill:none; 
stroke:#AFAFAF; stroke-width:0.1500; stroke-opacity:1; 
stroke-linecap:round; stroke-linejoin:round;">
<text x="10.1012" y="19.4750"
textLength="20.2024" font-size="1.3333" lengthAdjust="spacingAndGlyphs"
text-anchor="middle" opacity="0" stroke-opacity="0">SW_MX_EC11_HotSwap_THT</text>
<g class="stroked-text"><desc>SW_MX_EC11_HotSwap_THT</desc>
<path d="M0.3155 19.3822
L0.4583 19.4298
" />
<path d="M0.4583 19.4298
L0.6964 19.4298
" />
<path d="M0.6964 19.4298
L0.7917 19.3822
" />
<path d="M0.7917 19.3822
L0.8393 19.3346
" />
<path d="M0.8393 19.3346
L0.8869 19.2393
" />
<path d="M0.8869 19.2393
L0.8869 19.1441
" />
<path d="M0.8869 19.1441
L0.8393 19.0489
" />
<path d="M0.8393 19.0489
L0.7917 19.0012
" />
<path d="M0.7917 19.0012
L0.6964 18.9536
" />
<path d="M0.6964 18.9536
L0.5060 18.9060
" />
<path d="M0.5060 18.9060
L0.4107 18.8584
" />
<path d="M0.4107 18.8584
L0.3631 18.8108
" />
<path d="M0.3631 18.8108
L0.3155 18.7155
" />
<path d="M0.3155 18.7155
L0.3155 18.6203
" />
<path d="M0.3155 18.6203
L0.3631 18.5251
" />
<path d="M0.3631 18.5251
L0.4107 18.4774
" />
<path d="M0.4107 18.4774
L0.5060 18.4298
" />
<path d="M0.5060 18.4298
L0.7440 18.4298
" />
<path d="M0.7440 18.4298
L0.8869 18.4774
" />
<path d="M1.2202 18.4298
L1.4583 19.4298
" />
<path d="M1.4583 19.4298
L1.6488 18.7155
" />
<path d="M1.6488 18.7155
L1.8393 19.4298
" />
<path d="M1.8393 19.4298
L2.0774 18.4298
" />
<path d="M2.2202 19.5251
L2.9821 19.5251
" />
<path d="M3.2202 19.4298
L3.2202 18.4298
" />
<path d="M3.2202 18.4298
L3.5536 19.1441
" />
<path d="M3.5536 19.1441
L3.8869 18.4298
" />
<path d="M3.8869 18.4298
L3.8869 19.4298
" />
<path d="M4.2679 18.4298
L4.9345 19.4298
" />
<path d="M4.9345 18.4298
L4.2679 19.4298
" />
<path d="M5.0774 19.5251
L5.8393 19.5251
" />
<path d="M6.0774 18.9060
L6.4107 18.9060
" />
<path d="M6.5536 19.4298
L6.0774 19.4298
" />
<path d="M6.0774 19.4298
L6.0774 18.4298
" />
<path d="M6.0774 18.4298
L6.5536 18.4298
" />
<path d="M7.5536 19.3346
L7.5060 19.3822
" />
<path d="M7.5060 19.3822
L7.3631 19.4298
" />
<path d="M7.3631 19.4298
L7.2679 19.4298
" />
<path d="M7.2679 19.4298
L7.1250 19.3822
" />
<path d="M7.1250 19.3822
L7.0298 19.2870
" />
<path d="M7.0298 19.2870
L6.9821 19.1917
" />
<path d="M6.9821 19.1917
L6.9345 19.0012
" />
<path d="M6.9345 19.0012
L6.9345 18.8584
" />
<path d="M6.9345 18.8584
L6.9821 18.6679
" />
<path d="M6.9821 18.6679
L7.0298 18.5727
" />
<path d="M7.0298 18.5727
L7.1250 18.4774
" />
<path d="M7.1250 18.4774
L7.2679 18.4298
" />
<path d="M7.2679 18.4298
L7.3631 18.4298
" />
<path d="M7.3631 18.4298
L7.5060 18.4774
" />
<path d="M7.5060 18.4774
L7.5536 18.5251
" />
<path d="M8.5060 19.4298
L7.9345 19.4298
" />
<path d="M8.2202 19.4298
L8.2202 18.4298
" />
<path d="M8.2202 18.4298
L8.1250 18.5727
" />
<path d="M8.1250 18.5727
L8.0298 18.6679
" />
<path d="M8.0298 18.6679
L7.9345 18.7155
" />
<path d="M9.4583 19.4298
L8.8869 19.4298
" />
<path d="M9.1726 19.4298
L9.1726 18.4298
" />
<path d="M9.1726 18.4298
L9.0774 18.5727
" />
<path d="M9.0774 18.5727
L8.9821 18.6679
" />
<path d="M8.9821 18.6679
L8.8869 18.7155
" />
<path d="M9.6488 19.5251
L10.4107 19.5251
" />
<path d="M10.6488 19.4298
L10.6488 18.4298
" />
<path d="M10.6488 18.9060
L11.2202 18.9060
" />
<path d="M11.2202 19.4298
L11.2202 18.4298
" />
<path d="M11.8393 19.4298
L11.7440 19.3822
" />
<path d="M11.7440 19.3822
L11.6964 19.3346
" />
<path d="M11.6964 19.3346
L11.6488 19.2393
" />
<path d="M11.6488 19.2393
L11.6488 18.9536
" />
<path d="M11.6488 18.9536
L11.6964 18.8584
" />
<path d="M11.6964 18.8584
L11.7440 18.8108
" />
<path d="M11.7440 18.8108
L11.8393 18.7632
" />
<path d="M11.8393 18.7632
L11.9821 18.7632
" />
<path d="M11.9821 18.7632
L12.0774 18.8108
" />
<path d="M12.0774 18.8108
L12.1250 18.8584
" />
<path d="M12.1250 18.8584
L12.1726 18.9536
" />
<path d="M12.1726 18.9536
L12.1726 19.2393
" />
<path d="M12.1726 19.2393
L12.1250 19.3346
" />
<path d="M12.1250 19.3346
L12.0774 19.3822
" />
<path d="M12.0774 19.3822
L11.9821 19.4298
" />
<path d="M11.9821 19.4298
L11.8393 19.4298
" />
<path d="M12.4583 18.7632
L12.8393 18.7632
" />
<path d="M12.6012 18.4298
L12.6012 19.2870
" />
<path d="M12.6012 19.2870
L12.6488 19.3822
" />
<path d="M12.6488 19.3822
L12.7440 19.4298
" />
<path d="M12.7440 19.4298
L12.8393 19.4298
" />
<path d="M13.1250 19.3822
L13.2679 19.4298
" />
<path d="M13.2679 19.4298
L13.5060 19.4298
" />
<path d="M13.5060 19.4298
L13.6012 19.3822
" />
<path d="M13.6012 19.3822
L13.6488 19.3346
" />
<path d="M13.6488 19.3346
L13.6964 19.2393
" />
<path d="M13.6964 19.2393
L13.6964 19.1441
" />
<path d="M13.6964 19.1441
L13.6488 19.0489
" />
<path d="M13.6488 19.0489
L13.6012 19.0012
" />
<path d="M13.6012 19.0012
L13.5060 18.9536
" />
<path d="M13.5060 18.9536
L13.3155 18.9060
" />
<path d="M13.3155 18.9060
L13.2202 18.8584
" />
<path d="M13.2202 18.8584
L13.1726 18.8108
" />
<path d="M13.1726 18.8108
L13.1250 18.7155
" />
<path d="M13.1250 18.7155
L13.1250 18.6203
" />
<path d="M13.1250 18.6203
L13.1726 18.5251
" />
<path d="M13.1726 18.5251
L13.2202 18.4774
" />
<path d="M13.2202 18.4774
L13.3155 18.4298
" />
<path d="M13.3155 18.4298
L13.5536 18.4298
" />
<path d="M13.5536 18.4298
L13.6964 18.4774
" />
<path d="M14.0298 18.7632
L14.2202 19.4298
" />
<path d="M14.2202 19.4298
L14.4107 18.9536
" />
<path d="M14.4107 18.9536
L14.6012 19.4298
" />
<path d="M14.6012 19.4298
L14.7917 18.7632
" />
<path d="M15.6012 19.4298
L15.6012 18.9060
" />
<path d="M15.6012 18.9060
L15.5536 18.8108
" />
<path d="M15.5536 18.8108
L15.4583 18.7632
" />
<path d="M15.4583 18.7632
L15.2679 18.7632
" />
<path d="M15.2679 18.7632
L15.1726 18.8108
" />
<path d="M15.6012 19.3822
L15.5060 19.4298
" />
<path d="M15.5060 19.4298
L15.2679 19.4298
" />
<path d="M15.2679 19.4298
L15.1726 19.3822
" />
<path d="M15.1726 19.3822
L15.1250 19.2870
" />
<path d="M15.1250 19.2870
L15.1250 19.1917
" />
<path d="M15.1250 19.1917
L15.1726 19.0965
" />
<path d="M15.1726 19.0965
L15.2679 19.0489
" />
<path d="M15.2679 19.0489
L15.5060 19.0489
" />
<path d="M15.5060 19.0489
L15.6012 19.0012
" />
<path d="M16.0774 18.7632
L16.0774 19.7632
" />
<path d="M16.0774 18.8108
L16.1726 18.7632
" />
<path d="M16.1726 18.7632
L16.3631 18.7632
" />
<path d="M16.3631 18.7632
L16.4583 18.8108
" />
<path d="M16.4583 18.8108
L16.5060 18.8584
" />
<path d="M16.5060 18.8584
L16.5536 18.9536
" />
<path d="M16.5536 18.9536
L16.5536 19.2393
" />
<path d="M16.5536 19.2393
L16.5060 19.3346
" />
<path d="M16.5060 19.3346
L16.4583 19.3822
" />
<path d="M16.4583 19.3822
L16.3631 19.4298
" />
<path d="M16.3631 19.4298
L16.1726 19.4298
" />
<path d="M16.1726 19.4298
L16.0774 19.3822
" />
<path d="M16.7440 19.5251
L17.5060 19.5251
" />
<path d="M17.6012 18.4298
L18.1726 18.4298
" />
<path d="M17.8869 19.4298
L17.8869 18.4298
" />
<path d="M18.5060 19.4298
L18.5060 18.4298
" />
<path d="M18.5060 18.9060
L19.0774 18.9060
" />
<path d="M19.0774 19.4298
L19.0774 18.4298
" />
<path d="M19.4107 18.4298
L19.9821 18.4298
" />
<path d="M19.6964 19.4298
L19.6964 18.4298
" />
</g><text x="10.1012" y="21.0750"
textLength="4.5357" font-size="1.3333" lengthAdjust="spacingAndGlyphs"
text-anchor="middle" opacity="0" stroke-opacity="0">REF**</text>
<g class="stroked-text"><desc>REF**</desc>
<path d="M8.7679 21.0298
L8.4345 20.5536
" />
<path d="M8.1964 21.0298
L8.1964 20.0298
" />
<path d="M8.1964 20.0298
L8.5774 20.0298
" />
<path d="M8.5774 20.0298
L8.6726 20.0774
" />
<path d="M8.6726 20.0774
L8.7202 20.1251
" />
<path d="M8.7202 20.1251
L8.7679 20.2203
" />
<path d="M8.7679 20.2203
L8.7679 20.3632
" />
<path d="M8.7679 20.3632
L8.7202 20.4584
" />
<path d="M8.7202 20.4584
L8.6726 20.5060
" />
<path d="M8.6726 20.5060
L8.5774 20.5536
" />
<path d="M8.5774 20.5536
L8.1964 20.5536
" />
<path d="M9.1964 20.5060
L9.5298 20.5060
" />
<path d="M9.6726 21.0298
L9.1964 21.0298
" />
<path d="M9.1964 21.0298
L9.1964 20.0298
" />
<path d="M9.1964 20.0298
L9.6726 20.0298
" />
<path d="M10.4345 20.5060
L10.1012 20.5060
" />
<path d="M10.1012 21.0298
L10.1012 20.0298
" />
<path d="M10.1012 20.0298
L10.5774 20.0298
" />
<path d="M11.1012 20.0298
L11.1012 20.2679
" />
<path d="M10.8631 20.1727
L11.1012 20.2679
" />
<path d="M11.1012 20.2679
L11.3393 20.1727
" />
<path d="M10.9583 20.4584
L11.1012 20.2679
" />
<path d="M11.1012 20.2679
L11.2440 20.4584
" />
<path d="M11.8631 20.0298
L11.8631 20.2679
" />
<path d="M11.6250 20.1727
L11.8631 20.2679
" />
<path d="M11.8631 20.2679
L12.1012 20.1727
" />
<path d="M11.7202 20.4584
L11.8631 20.2679
" />
<path d="M11.8631 20.2679
L12.0060 20.4584
" />
</g></g>
<g style="fill:none; 
stroke:#AFAFAF; stroke-width:0.1000; stroke-opacity:1; 
stroke-linecap:round; stroke-linejoin:round;">
<path d="M1.2112 10.8450
L1.2112 13.3850
" />
<path d="M1.2112 13.3850
L3.7512 13.3850
" />
<path d="M3.7512 10.2100
L3.7512 14.0200
" />
<path d="M3.7512 10.2100
L7.5612 10.2100
" />
<path d="M3.7512 10.8450
L1.2112 10.8450
" />
<path d="M6.2912 16.5600
L15.1812 16.5600
" />
<path d="M15.1812 12.1150
L10.1012 12.1150
" />
<path d="M15.1812 15.9250
L17.7212 15.9250
" />
<path d="M15.1812 16.5600
L15.1812 12.1150
" />
<path d="M17.7212 13.3850
L15.1812 13.3850
" />
<path d="M17.7212 15.9250
L17.7212 13.3850
" />
<path d="M3.7512 14.0200 A2.5400 2.5400 0.0 0 0 6.2912 16.5600" />
<path d="M7.6370 10.1910 A2.5400 2.5400 0.0 0 0 10.1012 12.1150" />
</g>
<g style="fill:none; 
stroke:#AFAFAF; stroke-width:0.0212; stroke-opacity:1; 
stroke-linecap:round; stroke-linejoin:round;">
<circle cx="6.2912" cy="12.1150" r="1.5000" /> 
</g>
<g style="fill:none; 
stroke:#AFAFAF; stroke-width:0.0212; stroke-opacity:1; 
stroke-linecap:round; stroke-linejoin:round;">
<circle cx="10.1012" cy="9.5750" r="2.0000" /> 
</g>
<g style="fill:none; 
stroke:#AFAFAF; stroke-width:0.0212; stroke-opacity:1; 
stroke-linecap:round; stroke-linejoin:round;">
<circle cx="10.1012" cy="9.5750" r="2.0000" /> 
</g>
<g style="fill:none; 
stroke:#AFAFAF; stroke-width:0.0212; stroke-opacity:1; 
stroke-linecap:round; stroke-linejoin:round;">
<circle cx="10.1012" cy="9.5750" r="2.0000" /> 
</g>
<g style="fill:none; 
stroke:#AFAFAF; stroke-width:0.0212; stroke-opacity:1; 
stroke-linecap:round; stroke-linejoin:round;">
<circle cx="12.6412" cy="14.6550" r="1.5000" /> 
</g>
<g style="fill:none; 
stroke:#AFAFAF; stroke-width:0.0389; stroke-opacity:1; 
stroke-linecap:round; stroke-linejoin:round;">
<text x="12.6012" y="17.3083"
textLength="0.4233" font-size="0.6222" lengthAdjust="spacingAndGlyphs"
text-anchor="middle" opacity="0" stroke-opacity="0">A</text>
<g class="stroked-text"><desc>A</desc>
<path d="M12.4901 17.1555
L12.7123 17.1555
" />
<path d="M12.4456 17.2889
L12.6012 16.8222
" />
<path d="M12.6012 16.8222
L12.7567 17.2889
" />
</g></g>
<g style="fill:none; 
stroke:#AFAFAF; stroke-width:0.0212; stroke-opacity:1; 
stroke-linecap:round; stroke-linejoin:round;">
<path d="M12.8012 16.5750
L12.4012 16.5750
" />
<path d="M12.4012 16.5750 A0.5000 0.5000 0.0 0 0 12.4012 17.5750" />
<path d="M12.4012 17.5750
L12.8012 17.5750
" />
<path d="M12.8012 17.5750 A0.5000 0.5000 0.0 0 0 12.8012 16.5750" />
</g>
<g style="fill:none; 
stroke:#AFAFAF; stroke-width:0.0389; stroke-opacity:1; 
stroke-linecap:round; stroke-linejoin:round;">
<text x="7.6012" y="17.3083"
textLength="0.4900" font-size="0.6222" lengthAdjust="spacingAndGlyphs"
text-anchor="middle" opacity="0" stroke-opacity="0">B</text>
<g class="stroked-text"><desc>B</desc>
<path d="M7.6345 17.0444
L7.7012 17.0666
" />
<path d="M7.7012 17.0666
L7.7234 17.0889
" />
<path d="M7.7234 17.0889
L7.7456 17.1333
" />
<path d="M7.7456 17.1333
L7.7456 17.2000
" />
<path d="M7.7456 17.2000
L7.7234 17.2444
" />
<path d="M7.7234 17.2444
L7.7012 17.2666
" />
<path d="M7.7012 17.2666
L7.6567 17.2889
" />
<path d="M7.6567 17.2889
L7.4790 17.2889
" />
<path d="M7.4790 17.2889
L7.4790 16.8222
" />
<path d="M7.4790 16.8222
L7.6345 16.8222
" />
<path d="M7.6345 16.8222
L7.6790 16.8444
" />
<path d="M7.6790 16.8444
L7.7012 16.8666
" />
<path d="M7.7012 16.8666
L7.7234 16.9111
" />
<path d="M7.7234 16.9111
L7.7234 16.9555
" />
<path d="M7.7234 16.9555
L7.7012 17.0000
" />
<path d="M7.7012 17.0000
L7.6790 17.0222
" />
<path d="M7.6790 17.0222
L7.6345 17.0444
" />
<path d="M7.6345 17.0444
L7.4790 17.0444
" />
</g></g>
<g style="fill:none; 
stroke:#AFAFAF; stroke-width:0.0212; stroke-opacity:1; 
stroke-linecap:round; stroke-linejoin:round;">
<path d="M7.8012 16.5750
L7.4012 16.5750
" />
<path d="M7.4012 16.5750 A0.5000 0.5000 0.0 0 0 7.4012 17.5750" />
<path d="M7.4012 17.5750
L7.8012 17.5750
" />
<path d="M7.8012 17.5750 A0.5000 0.5000 0.0 0 0 7.8012 16.5750" />
</g>
<g style="fill:none; 
stroke:#AFAFAF; stroke-width:0.0389; stroke-opacity:1; 
stroke-linecap:round; stroke-linejoin:round;">
<text x="10.1012" y="17.3083"
textLength="0.4900" font-size="0.6222" lengthAdjust="spacingAndGlyphs"
text-anchor="middle" opacity="0" stroke-opacity="0">C</text>
<g class="stroked-text"><desc>C</desc>
<path d="M10.2456 17.2444
L10.2234 17.2666
" />
<path d="M10.2234 17.2666
L10.1567 17.2889
" />
<path d="M10.1567 17.2889
L10.1123 17.2889
" />
<path d="M10.1123 17.2889
L10.0456 17.2666
" />
<path d="M10.0456 17.2666
L10.0012 17.2222
" />
<path d="M10.0012 17.2222
L9.9790 17.1778
" />
<path d="M9.9790 17.1778
L9.9567 17.0889
" />
<path d="M9.9567 17.0889
L9.9567 17.0222
" />
<path d="M9.9567 17.0222
L9.9790 16.9333
" />
<path d="M9.9790 16.9333
L10.0012 16.8889
" />
<path d="M10.0012 16.8889
L10.0456 16.8444
" />
<path d="M10.0456 16.8444
L10.1123 16.8222
" />
<path d="M10.1123 16.8222
L10.1567 16.8222
" />
<path d="M10.1567 16.8222
L10.2234 16.8444
" />
<path d="M10.2234 16.8444
L10.2456 16.8666
" />
</g></g>
<g style="fill:none; 
stroke:#AFAFAF; stroke-width:0.0212; stroke-opacity:1; 
stroke-linecap:round; stroke-linejoin:round;">
<path d="M10.3012 16.5750
L9.9012 16.5750
" />
<path d="M9.9012 16.5750 A0.5000 0.5000 0.0 0 0 9.9012 17.5750" />
<path d="M9.9012 17.5750
L10.3012 17.5750
" />
<path d="M10.3012 17.5750 A0.5000 0.5000 0.0 0 0 10.3012 16.5750" />
</g>
<g style="fill:none; 
stroke:#AFAFAF; stroke-width:0.0833; stroke-opacity:1; 
stroke-linecap:round; stroke-linejoin:round;">
<g transform="rotate(-90.000000 4.5712 9.5750)">
<text x="4.5712" y="10.0750"
textLength="2.1929" font-size="1.3333" lengthAdjust="spacingAndGlyphs"
text-anchor="middle" opacity="0" stroke-opacity="0">MP</text>
</g>
<g class="stroked-text"><desc>MP</desc>
<path d="M5.0295 10.4083
L4.0295 10.4083
" />
<path d="M4.0295 10.4083
L4.7438 10.0750
" />
<path d="M4.7438 10.0750
L4.0295 9.7417
" />
<path d="M4.0295 9.7417
L5.0295 9.7417
" />
<path d="M5.0295 9.2655
L4.0295 9.2655
" />
<path d="M4.0295 9.2655
L4.0295 8.8845
" />
<path d="M4.0295 8.8845
L4.0771 8.7893
" />
<path d="M4.0771 8.7893
L4.1247 8.7417
" />
<path d="M4.1247 8.7417
L4.2200 8.6940
" />
<path d="M4.2200 8.6940
L4.3628 8.6940
" />
<path d="M4.3628 8.6940
L4.4580 8.7417
" />
<path d="M4.4580 8.7417
L4.5057 8.7893
" />
<path d="M4.5057 8.7893
L4.5533 8.8845
" />
<path d="M4.5533 8.8845
L4.5533 9.2655
" />
</g><path style="fill:none; 
stroke:#AFAFAF; stroke-width:0.0212; stroke-opacity:1; 
stroke-linecap:round; stroke-linejoin:round;fill:none"
d="M 5.5712,8.6750
5.5712,10.3350
4.6912,11.0750
4.1712,11.0750
3.5712,10.4750
3.5712,8.2750
3.5912,8.1950
3.6312,8.1350
3.6912,8.0950
3.7712,8.0750
4.9712,8.0750
Z" /> 
</g>
<g style="fill:none; 
stroke:#AFAFAF; stroke-width:0.0833; stroke-opacity:1; 
stroke-linecap:round; stroke-linejoin:round;">
<g transform="rotate(-90.000000 15.6312 9.5750)">
<text x="15.6312" y="10.0750"
textLength="2.1929" font-size="1.3333" lengthAdjust="spacingAndGlyphs"
text-anchor="middle" opacity="0" stroke-opacity="0">MP</text>
</g>
<g class="stroked-text"><desc>MP</desc>
<path d="M16.0895 10.4083
L15.0895 10.4083
" />
<path d="M15.0895 10.4083
L15.8038 10.0750
" />
<path d="M15.8038 10.0750
L15.0895 9.7417
" />
<path d="M15.0895 9.7417
L16.0895 9.7417
" />
<path d="M16.0895 9.2655
L15.0895 9.2655
" />
<path d="M15.0895 9.2655
L15.0895 8.8845
" />
<path d="M15.0895 8.8845
L15.1371 8.7893
" />
<path d="M15.1371 8.7893
L15.1847 8.7417
" />
<path d="M15.1847 8.7417
L15.2800 8.6940
" />
<path d="M15.2800 8.6940
L15.4228 8.6940
" />
<path d="M15.4228 8.6940
L15.5180 8.7417
" />
<path d="M15.5180 8.7417
L15.5657 8.7893
" />
<path d="M15.5657 8.7893
L15.6133 8.8845
" />
<path d="M15.6133 8.8845
L15.6133 9.2655
" />
</g><path style="fill:none; 
stroke:#AFAFAF; stroke-width:0.0212; stroke-opacity:1; 
stroke-linecap:round; stroke-linejoin:round;fill:none"
d="M 16.6312,10.8750
16.6160,10.9515
16.5726,11.0164
16.5077,11.0598
16.4312,11.0750
15.2312,11.0750
14.6312,10.4750
14.6312,8.6750
15.2312,8.0750
16.4312,8.0750
16.5077,8.0902
16.5726,8.1336
16.6160,8.1985
16.6312,8.2750
Z" /> 
</g>
<g style="fill:none; 
stroke:#AFAFAF; stroke-width:0.0389; stroke-opacity:1; 
stroke-linecap:round; stroke-linejoin:round;">
<text x="12.6012" y="2.8083"
textLength="0.9122" font-size="0.6222" lengthAdjust="spacingAndGlyphs"
text-anchor="middle" opacity="0" stroke-opacity="0">S1</text>
<g class="stroked-text"><desc>S1</desc>
<path d="M12.2456 2.7666
L12.3123 2.7889
" />
<path d="M12.3123 2.7889
L12.4234 2.7889
" />
<path d="M12.4234 2.7889
L12.4679 2.7666
" />
<path d="M12.4679 2.7666
L12.4901 2.7444
" />
<path d="M12.4901 2.7444
L12.5123 2.7000
" />
<path d="M12.5123 2.7000
L12.5123 2.6555
" />
<path d="M12.5123 2.6555
L12.4901 2.6111
" />
<path d="M12.4901 2.6111
L12.4679 2.5889
" />
<path d="M12.4679 2.5889
L12.4234 2.5666
" />
<path d="M12.4234 2.5666
L12.3345 2.5444
" />
<path d="M12.3345 2.5444
L12.2901 2.5222
" />
<path d="M12.2901 2.5222
L12.2679 2.5000
" />
<path d="M12.2679 2.5000
L12.2456 2.4555
" />
<path d="M12.2456 2.4555
L12.2456 2.4111
" />
<path d="M12.2456 2.4111
L12.2679 2.3666
" />
<path d="M12.2679 2.3666
L12.2901 2.3444
" />
<path d="M12.2901 2.3444
L12.3345 2.3222
" />
<path d="M12.3345 2.3222
L12.4456 2.3222
" />
<path d="M12.4456 2.3222
L12.5123 2.3444
" />
<path d="M12.9567 2.7889
L12.6901 2.7889
" />
<path d="M12.8234 2.7889
L12.8234 2.3222
" />
<path d="M12.8234 2.3222
L12.7790 2.3889
" />
<path d="M12.7790 2.3889
L12.7345 2.4333
" />
<path d="M12.7345 2.4333
L12.6901 2.4555
" />
</g></g>
<g style="fill:none; 
stroke:#AFAFAF; stroke-width:0.0212; stroke-opacity:1; 
stroke-linecap:round; stroke-linejoin:round;">
<path d="M12.8012 2.0750
L12.4012 2.0750
" />
<path d="M12.4012 2.0750 A0.5000 0.5000 0.0 0 0 12.4012 3.0750" />
<path d="M12.4012 3.0750
L12.8012 3.0750
" />
<path d="M12.8012 3.0750 A0.5000 0.5000 0.0 0 0 12.8012 2.0750" />
</g>
<g style="fill:none; 
stroke:#AFAFAF; stroke-width:0.0639; stroke-opacity:1; 
stroke-linecap:round; stroke-linejoin:round;">
<text x="13.9112" y="7.4183"
textLength="1.4987" font-size="1.0222" lengthAdjust="spacingAndGlyphs"
text-anchor="middle" opacity="0" stroke-opacity="0">S1</text>
<g class="stroked-text"><desc>S1</desc>
<path d="M13.3271 7.3498
L13.4366 7.3864
" />
<path d="M13.4366 7.3864
L13.6191 7.3864
" />
<path d="M13.6191 7.3864
L13.6921 7.3498
" />
<path d="M13.6921 7.3498
L13.7287 7.3133
" />
<path d="M13.7287 7.3133
L13.7652 7.2403
" />
<path d="M13.7652 7.2403
L13.7652 7.1673
" />
<path d="M13.7652 7.1673
L13.7287 7.0943
" />
<path d="M13.7287 7.0943
L13.6921 7.0578
" />
<path d="M13.6921 7.0578
L13.6191 7.0213
" />
<path d="M13.6191 7.0213
L13.4731 6.9848
" />
<path d="M13.4731 6.9848
L13.4001 6.9483
" />
<path d="M13.4001 6.9483
L13.3636 6.9117
" />
<path d="M13.3636 6.9117
L13.3271 6.8387
" />
<path d="M13.3271 6.8387
L13.3271 6.7657
" />
<path d="M13.3271 6.7657
L13.3636 6.6927
" />
<path d="M13.3636 6.6927
L13.4001 6.6562
" />
<path d="M13.4001 6.6562
L13.4731 6.6197
" />
<path d="M13.4731 6.6197
L13.6556 6.6197
" />
<path d="M13.6556 6.6197
L13.7652 6.6562
" />
<path d="M14.4953 7.3864
L14.0572 7.3864
" />
<path d="M14.2763 7.3864
L14.2763 6.6197
" />
<path d="M14.2763 6.6197
L14.2033 6.7292
" />
<path d="M14.2033 6.7292
L14.1302 6.8022
" />
<path d="M14.1302 6.8022
L14.0572 6.8387
" />
</g></g>
<g style="fill:none; 
stroke:#AFAFAF; stroke-width:0.0212; stroke-opacity:1; 
stroke-linecap:round; stroke-linejoin:round;">
<circle cx="13.9112" cy="7.0350" r="1.1500" /> 
</g>
<g style="fill:none; 
stroke:#AFAFAF; stroke-width:0.0708; stroke-opacity:1; 
stroke-linecap:round; stroke-linejoin:round;">
<text x="16.3912" y="15.0800"
textLength="1.6615" font-size="1.1333" lengthAdjust="spacingAndGlyphs"
text-anchor="middle" opacity="0" stroke-opacity="0">S1</text>
<g class="stroked-text"><desc>S1</desc>
<path d="M15.7436 15.0041
L15.8650 15.0445
" />
<path d="M15.8650 15.0445
L16.0674 15.0445
" />
<path d="M16.0674 15.0445
L16.1483 15.0041
" />
<path d="M16.1483 15.0041
L16.1888 14.9636
" />
<path d="M16.1888 14.9636
L16.2293 14.8826
" />
<path d="M16.2293 14.8826
L16.2293 14.8017
" />
<path d="M16.2293 14.8017
L16.1888 14.7207
" />
<path d="M16.1888 14.7207
L16.1483 14.6803
" />
<path d="M16.1483 14.6803
L16.0674 14.6398
" />
<path d="M16.0674 14.6398
L15.9055 14.5993
" />
<path d="M15.9055 14.5993
L15.8245 14.5588
" />
<path d="M15.8245 14.5588
L15.7840 14.5184
" />
<path d="M15.7840 14.5184
L15.7436 14.4374
" />
<path d="M15.7436 14.4374
L15.7436 14.3564
" />
<path d="M15.7436 14.3564
L15.7840 14.2755
" />
<path d="M15.7840 14.2755
L15.8245 14.2350
" />
<path d="M15.8245 14.2350
L15.9055 14.1945
" />
<path d="M15.9055 14.1945
L16.1079 14.1945
" />
<path d="M16.1079 14.1945
L16.2293 14.2350
" />
<path d="M17.0388 15.0445
L16.5531 15.0445
" />
<path d="M16.7960 15.0445
L16.7960 14.1945
" />
<path d="M16.7960 14.1945
L16.7150 14.3160
" />
<path d="M16.7150 14.3160
L16.6340 14.3969
" />
<path d="M16.6340 14.3969
L16.5531 14.4374
" />
</g><path style="fill:none; 
stroke:#AFAFAF; stroke-width:0.0212; stroke-opacity:1; 
stroke-linecap:round; stroke-linejoin:round;fill:none"
d="M 17.6662,15.6550
17.6472,15.7507
17.5930,15.8318
17.5119,15.8860
17.4162,15.9050
15.3662,15.9050
15.2705,15.8860
15.1894,15.8318
15.1352,15.7507
15.1162,15.6550
15.1162,13.6550
15.1352,13.5593
15.1894,13.4782
15.2705,13.4240
15.3662,13.4050
17.4162,13.4050
17.5119,13.4240
17.5930,13.4782
17.6472,13.5593
17.6662,13.6550
Z" /> 
</g>
<g style="fill:none; 
stroke:#AFAFAF; stroke-width:0.0708; stroke-opacity:1; 
stroke-linecap:round; stroke-linejoin:round;">
<text x="2.5412" y="12.5400"
textLength="1.6615" font-size="1.1333" lengthAdjust="spacingAndGlyphs"
text-anchor="middle" opacity="0" stroke-opacity="0">S2</text>
<g class="stroked-text"><desc>S2</desc>
<path d="M1.8936 12.4641
L2.0150 12.5045
" />
<path d="M2.0150 12.5045
L2.2174 12.5045
" />
<path d="M2.2174 12.5045
L2.2983 12.4641
" />
<path d="M2.2983 12.4641
L2.3388 12.4236
" />
<path d="M2.3388 12.4236
L2.3793 12.3426
" />
<path d="M2.3793 12.3426
L2.3793 12.2617
" />
<path d="M2.3793 12.2617
L2.3388 12.1807
" />
<path d="M2.3388 12.1807
L2.2983 12.1403
" />
<path d="M2.2983 12.1403
L2.2174 12.0998
" />
<path d="M2.2174 12.0998
L2.0555 12.0593
" />
<path d="M2.0555 12.0593
L1.9745 12.0188
" />
<path d="M1.9745 12.0188
L1.9340 11.9784
" />
<path d="M1.9340 11.9784
L1.8936 11.8974
" />
<path d="M1.8936 11.8974
L1.8936 11.8164
" />
<path d="M1.8936 11.8164
L1.9340 11.7355
" />
<path d="M1.9340 11.7355
L1.9745 11.6950
" />
<path d="M1.9745 11.6950
L2.0555 11.6545
" />
<path d="M2.0555 11.6545
L2.2579 11.6545
" />
<path d="M2.2579 11.6545
L2.3793 11.6950
" />
<path d="M2.7031 11.7355
L2.7436 11.6950
" />
<path d="M2.7436 11.6950
L2.8245 11.6545
" />
<path d="M2.8245 11.6545
L3.0269 11.6545
" />
<path d="M3.0269 11.6545
L3.1079 11.6950
" />
<path d="M3.1079 11.6950
L3.1483 11.7355
" />
<path d="M3.1483 11.7355
L3.1888 11.8164
" />
<path d="M3.1888 11.8164
L3.1888 11.8974
" />
<path d="M3.1888 11.8974
L3.1483 12.0188
" />
<path d="M3.1483 12.0188
L2.6626 12.5045
" />
<path d="M2.6626 12.5045
L3.1888 12.5045
" />
</g><path style="fill:none; 
stroke:#AFAFAF; stroke-width:0.0212; stroke-opacity:1; 
stroke-linecap:round; stroke-linejoin:round;fill:none"
d="M 3.8162,13.1150
3.7972,13.2107
3.7430,13.2918
3.6619,13.3460
3.5662,13.3650
1.5162,13.3650
1.4205,13.3460
1.3394,13.2918
1.2852,13.2107
1.2662,13.1150
1.2662,11.1150
1.2852,11.0193
1.3394,10.9382
1.4205,10.8840
1.5162,10.8650
3.5662,10.8650
3.6619,10.8840
3.7430,10.9382
3.7972,11.0193
3.8162,11.1150
Z" /> 
</g>
<g style="fill:none; 
stroke:#AFAFAF; stroke-width:0.0639; stroke-opacity:1; 
stroke-linecap:round; stroke-linejoin:round;">
<text x="7.5612" y="4.8783"
textLength="1.4987" font-size="1.0222" lengthAdjust="spacingAndGlyphs"
text-anchor="middle" opacity="0" stroke-opacity="0">S2</text>
<g class="stroked-text"><desc>S2</desc>
<path d="M6.9771 4.8098
L7.0866 4.8464
" />
<path d="M7.0866 4.8464
L7.2691 4.8464
" />
<path d="M7.2691 4.8464
L7.3421 4.8098
" />
<path d="M7.3421 4.8098
L7.3787 4.7733
" />
<path d="M7.3787 4.7733
L7.4152 4.7003
" />
<path d="M7.4152 4.7003
L7.4152 4.6273
" />
<path d="M7.4152 4.6273
L7.3787 4.5543
" />
<path d="M7.3787 4.5543
L7.3421 4.5178
" />
<path d="M7.3421 4.5178
L7.2691 4.4813
" />
<path d="M7.2691 4.4813
L7.1231 4.4448
" />
<path d="M7.1231 4.4448
L7.0501 4.4083
" />
<path d="M7.0501 4.4083
L7.0136 4.3717
" />
<path d="M7.0136 4.3717
L6.9771 4.2987
" />
<path d="M6.9771 4.2987
L6.9771 4.2257
" />
<path d="M6.9771 4.2257
L7.0136 4.1527
" />
<path d="M7.0136 4.1527
L7.0501 4.1162
" />
<path d="M7.0501 4.1162
L7.1231 4.0797
" />
<path d="M7.1231 4.0797
L7.3056 4.0797
" />
<path d="M7.3056 4.0797
L7.4152 4.1162
" />
<path d="M7.7072 4.1527
L7.7437 4.1162
" />
<path d="M7.7437 4.1162
L7.8167 4.0797
" />
<path d="M7.8167 4.0797
L7.9993 4.0797
" />
<path d="M7.9993 4.0797
L8.0723 4.1162
" />
<path d="M8.0723 4.1162
L8.1088 4.1527
" />
<path d="M8.1088 4.1527
L8.1453 4.2257
" />
<path d="M8.1453 4.2257
L8.1453 4.2987
" />
<path d="M8.1453 4.2987
L8.1088 4.4083
" />
<path d="M8.1088 4.4083
L7.6707 4.8464
" />
<path d="M7.6707 4.8464
L8.1453 4.8464
" />
</g></g>
<g style="fill:none; 
stroke:#AFAFAF; stroke-width:0.0212; stroke-opacity:1; 
stroke-linecap:round; stroke-linejoin:round;">
<circle cx="7.5612" cy="4.4950" r="1.1500" /> 
</g>
<g style="fill:none; 
stroke:#AFAFAF; stroke-width:0.0389; stroke-opacity:1; 
stroke-linecap:round; stroke-linejoin:round;">
<text x="7.6012" y="2.8083"
textLength="0.9122" font-size="0.6222" lengthAdjust="spacingAndGlyphs"
text-anchor="middle" opacity="0" stroke-opacity="0">S2</text>
<g class="stroked-text"><desc>S2</desc>
<path d="M7.2456 2.7666
L7.3123 2.7889
" />
<path d="M7.3123 2.7889
L7.4234 2.7889
" />
<path d="M7.4234 2.7889
L7.4679 2.7666
" />
<path d="M7.4679 2.7666
L7.4901 2.7444
" />
<path d="M7.4901 2.7444
L7.5123 2.7000
" />
<path d="M7.5123 2.7000
L7.5123 2.6555
" />
<path d="M7.5123 2.6555
L7.4901 2.6111
" />
<path d="M7.4901 2.6111
L7.4679 2.5889
" />
<path d="M7.4679 2.5889
L7.4234 2.5666
" />
<path d="M7.4234 2.5666
L7.3345 2.5444
" />
<path d="M7.3345 2.5444
L7.2901 2.5222
" />
<path d="M7.2901 2.5222
L7.2679 2.5000
" />
<path d="M7.2679 2.5000
L7.2456 2.4555
" />
<path d="M7.2456 2.4555
L7.2456 2.4111
" />
<path d="M7.2456 2.4111
L7.2679 2.3666
" />
<path d="M7.2679 2.3666
L7.2901 2.3444
" />
<path d="M7.2901 2.3444
L7.3345 2.3222
" />
<path d="M7.3345 2.3222
L7.4456 2.3222
" />
<path d="M7.4456 2.3222
L7.5123 2.3444
" />
<path d="M7.6901 2.3666
L7.7123 2.3444
" />
<path d="M7.7123 2.3444
L7.7567 2.3222
" />
<path d="M7.7567 2.3222
L7.8679 2.3222
" />
<path d="M7.8679 2.3222
L7.9123 2.3444
" />
<path d="M7.9123 2.3444
L7.9345 2.3666
" />
<path d="M7.9345 2.3666
L7.9567 2.4111
" />
<path d="M7.9567 2.4111
L7.9567 2.4555
" />
<path d="M7.9567 2.4555
L7.9345 2.5222
" />
<path d="M7.9345 2.5222
L7.6679 2.7889
" />
<path d="M7.6679 2.7889
L7.9567 2.7889
" />
</g></g>
<g style="fill:none; 
stroke:#AFAFAF; stroke-width:0.0212; stroke-opacity:1; 
stroke-linecap:round; stroke-linejoin:round;">
<path d="M7.8012 2.0750
L7.4012 2.0750
" />
<path d="M7.4012 2.0750 A0.5000 0.5000 0.0 0 0 7.4012 3.0750" />
<path d="M7.4012 3.0750
L7.8012 3.0750
" />
<path d="M7.8012 3.0750 A0.5000 0.5000 0.0 0 0 7.8012 2.0750" />
<path style="fill:none; 
stroke:#C2C2C2; stroke-width:0.1000; stroke-opacity:1; 
stroke-linecap:round; stroke-linejoin:round;fill:none"
d="M 0.5762,0.0500
19.6262,0.0500
19.6262,19.1000
0.5762,19.1000
Z" /> 
</g> 
</svg>
