<?xml version="1.0" standalone="no"?>
 <!DOCTYPE svg PUBLIC "-//W3C//DTD SVG 1.1//EN" 
 "http://www.w3.org/Graphics/SVG/1.1/DTD/svg11.dtd"> 
<svg
  xmlns:svg="http://www.w3.org/2000/svg"
  xmlns="http://www.w3.org/2000/svg"
  xmlns:xlink="http://www.w3.org/1999/xlink"
  version="1.1"
  width="21.1328mm" height="20.3200mm" viewBox="0.0000 0.0000 21.1328 20.3200">
<title>SVG Image created as SW_MX_Choc_HotSwap_nSilk.svg date 2025/04/11 03:39:53 </title>
  <desc>Image generated by PCBNEW </desc>
<g style="fill:#000000; fill-opacity:1.0000;stroke:#000000; stroke-opacity:1.0000;
stroke-linecap:round; stroke-linejoin:round;"
 transform="translate(0 0) scale(1 1)">
</g>
<g style="fill:none; 
stroke:#F2EDA1; stroke-width:0.1500; stroke-opacity:1; 
stroke-linecap:round; stroke-linejoin:round;">
<text x="12.3554" y="4.9950"
textLength="4.5357" font-size="1.3333" lengthAdjust="spacingAndGlyphs"
text-anchor="middle" opacity="0" stroke-opacity="0">REF**</text>
<g class="stroked-text"><desc>REF**</desc>
<path d="M11.0220 4.9498
L10.6887 4.4736
" />
<path d="M10.4506 4.9498
L10.4506 3.9498
" />
<path d="M10.4506 3.9498
L10.8316 3.9498
" />
<path d="M10.8316 3.9498
L10.9268 3.9974
" />
<path d="M10.9268 3.9974
L10.9744 4.0451
" />
<path d="M10.9744 4.0451
L11.0220 4.1403
" />
<path d="M11.0220 4.1403
L11.0220 4.2832
" />
<path d="M11.0220 4.2832
L10.9744 4.3784
" />
<path d="M10.9744 4.3784
L10.9268 4.4260
" />
<path d="M10.9268 4.4260
L10.8316 4.4736
" />
<path d="M10.8316 4.4736
L10.4506 4.4736
" />
<path d="M11.4506 4.4260
L11.7840 4.4260
" />
<path d="M11.9268 4.9498
L11.4506 4.9498
" />
<path d="M11.4506 4.9498
L11.4506 3.9498
" />
<path d="M11.4506 3.9498
L11.9268 3.9498
" />
<path d="M12.6887 4.4260
L12.3554 4.4260
" />
<path d="M12.3554 4.9498
L12.3554 3.9498
" />
<path d="M12.3554 3.9498
L12.8316 3.9498
" />
<path d="M13.3554 3.9498
L13.3554 4.1879
" />
<path d="M13.1173 4.0927
L13.3554 4.1879
" />
<path d="M13.3554 4.1879
L13.5935 4.0927
" />
<path d="M13.2125 4.3784
L13.3554 4.1879
" />
<path d="M13.3554 4.1879
L13.4982 4.3784
" />
<path d="M14.1173 3.9498
L14.1173 4.1879
" />
<path d="M13.8792 4.0927
L14.1173 4.1879
" />
<path d="M14.1173 4.1879
L14.3554 4.0927
" />
<path d="M13.9744 4.3784
L14.1173 4.1879
" />
<path d="M14.1173 4.1879
L14.2601 4.3784
" />
</g></g>
<g style="fill:none; 
stroke:#F2EDA1; stroke-width:0.1200; stroke-opacity:1; 
stroke-linecap:round; stroke-linejoin:round;">
<path d="M5.4974 2.5900
L5.4974 2.9450
" />
<path d="M5.4974 7.0350
L5.4974 6.0450
" />
<path d="M5.4974 7.0350
L10.5774 7.0350
" />
<path d="M8.2774 17.0500
L9.0774 17.8500
" />
<path d="M9.0774 13.2000
L8.2774 14.0000
" />
<path d="M9.0774 13.2000
L10.8774 13.2000
" />
<path d="M9.0774 17.8500
L12.2274 17.8500
" />
<path d="M13.0274 17.0500
L12.2274 17.8500
" />
<path d="M13.0274 17.0500
L13.0274 16.7000
" />
<path d="M13.0415 8.9400
L14.7684 8.9400
" />
<path d="M14.3874 2.5900
L5.4974 2.5900
" />
<path d="M16.5774 8.9400
L16.9274 8.9400
" />
<path d="M16.9274 5.1300
L16.9274 5.4850
" />
<path d="M16.9274 8.5850
L16.9274 8.9400
" />
<path d="M17.0274 15.7000
L14.0274 15.7000
" />
<path d="M17.8274 11.0500
L13.9734 11.0500
" />
<path d="M17.8274 11.0500
L17.8274 11.7750
" />
<path d="M17.8274 14.8750
L17.8274 14.9000
" />
<path d="M13.0370 8.9412 A2.5400 2.5400 0.0 0 0 10.5774 7.0350" />
<path d="M14.0274 15.7000 A1.0000 1.0000 0.0 0 0 13.0274 16.7000" />
<path d="M10.8774 13.2000 A2.6255 2.6255 0.0 0 0 13.0328 11.7079" />
<path d="M13.9774 11.0500 A1.0000 1.0000 0.0 0 0 13.0377 11.7080" />
<path d="M16.9274 5.1300 A2.5400 2.5400 0.0 0 0 14.3874 2.5900" />
<path d="M17.0274 15.7000 A0.8000 0.8000 0.0 0 0 17.8274 14.9000" />
<path style="fill:#B4A09A; fill-opacity:0.9000; stroke:none;fill-rule:evenodd;"
d="M 16.8624,6.0350
16.8814,5.9393
16.9356,5.8582
17.0167,5.8040
17.1124,5.7850
19.1624,5.7850
19.2581,5.8040
19.3392,5.8582
19.3934,5.9393
19.4124,6.0350
19.4124,8.0350
19.3934,8.1307
19.3392,8.2118
19.2581,8.2660
19.1624,8.2850
17.1124,8.2850
17.0167,8.2660
16.9356,8.2118
16.8814,8.1307
16.8624,8.0350
Z" /> 
<path style="fill:#B4A09A; fill-opacity:0.9000; stroke:none;fill-rule:evenodd;"
d="M 17.5524,12.3250
17.5714,12.2293
17.6256,12.1482
17.7067,12.0940
17.8024,12.0750
19.8524,12.0750
19.9481,12.0940
20.0292,12.1482
20.0834,12.2293
20.1024,12.3250
20.1024,14.3250
20.0834,14.4207
20.0292,14.5018
19.9481,14.5560
19.8524,14.5750
17.8024,14.5750
17.7067,14.5560
17.6256,14.5018
17.5714,14.4207
17.5524,14.3250
Z" /> 
<path style="fill:#B4A09A; fill-opacity:0.9000; stroke:none;fill-rule:evenodd;"
d="M 3.0124,3.4950
3.0314,3.3993
3.0856,3.3182
3.1667,3.2640
3.2624,3.2450
5.3124,3.2450
5.4081,3.2640
5.4892,3.3182
5.5434,3.3993
5.5624,3.4950
5.5624,5.4950
5.5434,5.5907
5.4892,5.6718
5.4081,5.7260
5.3124,5.7450
3.2624,5.7450
3.1667,5.7260
3.0856,5.6718
3.0314,5.5907
3.0124,5.4950
Z" /> 
<path style="fill:#B4A09A; fill-opacity:0.9000; stroke:none;fill-rule:evenodd;"
d="M 6.0574,14.5250
6.0764,14.4293
6.1306,14.3482
6.2117,14.2940
6.3074,14.2750
8.3574,14.2750
8.4531,14.2940
8.5342,14.3482
8.5884,14.4293
8.6074,14.5250
8.6074,16.5250
8.5884,16.6207
8.5342,16.7018
8.4531,16.7560
8.3574,16.7750
6.3074,16.7750
6.2117,16.7560
6.1306,16.7018
6.0764,16.6207
6.0574,16.5250
Z" /> 
<path style="fill:#C83434; fill-opacity:1.0000; stroke:none;fill-rule:evenodd;"
d="M 16.8624,6.0350
16.8814,5.9393
16.9356,5.8582
17.0167,5.8040
17.1124,5.7850
19.1624,5.7850
19.2581,5.8040
19.3392,5.8582
19.3934,5.9393
19.4124,6.0350
19.4124,8.0350
19.3934,8.1307
19.3392,8.2118
19.2581,8.2660
19.1624,8.2850
17.1124,8.2850
17.0167,8.2660
16.9356,8.2118
16.8814,8.1307
16.8624,8.0350
Z" /> 
<path style="fill:#C83434; fill-opacity:1.0000; stroke:none;fill-rule:evenodd;"
d="M 17.5524,12.3250
17.5714,12.2293
17.6256,12.1482
17.7067,12.0940
17.8024,12.0750
19.8524,12.0750
19.9481,12.0940
20.0292,12.1482
20.0834,12.2293
20.1024,12.3250
20.1024,14.3250
20.0834,14.4207
20.0292,14.5018
19.9481,14.5560
19.8524,14.5750
17.8024,14.5750
17.7067,14.5560
17.6256,14.5018
17.5714,14.4207
17.5524,14.3250
Z" /> 
<path style="fill:#C83434; fill-opacity:1.0000; stroke:none;fill-rule:evenodd;"
d="M 3.0124,3.4950
3.0314,3.3993
3.0856,3.3182
3.1667,3.2640
3.2624,3.2450
5.3124,3.2450
5.4081,3.2640
5.4892,3.3182
5.5434,3.3993
5.5624,3.4950
5.5624,5.4950
5.5434,5.5907
5.4892,5.6718
5.4081,5.7260
5.3124,5.7450
3.2624,5.7450
3.1667,5.7260
3.0856,5.6718
3.0314,5.5907
3.0124,5.4950
Z" /> 
<path style="fill:#C83434; fill-opacity:1.0000; stroke:none;fill-rule:evenodd;"
d="M 6.0574,14.5250
6.0764,14.4293
6.1306,14.3482
6.2117,14.2940
6.3074,14.2750
8.3574,14.2750
8.4531,14.2940
8.5342,14.3482
8.5884,14.4293
8.6074,14.5250
8.6074,16.5250
8.5884,16.6207
8.5342,16.7018
8.4531,16.7560
8.3574,16.7750
6.3074,16.7750
6.2117,16.7560
6.1306,16.7018
6.0764,16.6207
6.0574,16.5250
Z" /> 
</g>
<g style="fill:none; 
stroke:#AFAFAF; stroke-width:0.1500; stroke-opacity:1; 
stroke-linecap:round; stroke-linejoin:round;">
<text x="10.5774" y="18.3750"
textLength="21.1548" font-size="1.3333" lengthAdjust="spacingAndGlyphs"
text-anchor="middle" opacity="0" stroke-opacity="0">SW_MX_Choc_HotSwap_nSilk</text>
<g class="stroked-text"><desc>SW_MX_Choc_HotSwap_nSilk</desc>
<path d="M0.3155 18.2822
L0.4583 18.3298
" />
<path d="M0.4583 18.3298
L0.6964 18.3298
" />
<path d="M0.6964 18.3298
L0.7917 18.2822
" />
<path d="M0.7917 18.2822
L0.8393 18.2346
" />
<path d="M0.8393 18.2346
L0.8869 18.1393
" />
<path d="M0.8869 18.1393
L0.8869 18.0441
" />
<path d="M0.8869 18.0441
L0.8393 17.9489
" />
<path d="M0.8393 17.9489
L0.7917 17.9012
" />
<path d="M0.7917 17.9012
L0.6964 17.8536
" />
<path d="M0.6964 17.8536
L0.5060 17.8060
" />
<path d="M0.5060 17.8060
L0.4107 17.7584
" />
<path d="M0.4107 17.7584
L0.3631 17.7108
" />
<path d="M0.3631 17.7108
L0.3155 17.6155
" />
<path d="M0.3155 17.6155
L0.3155 17.5203
" />
<path d="M0.3155 17.5203
L0.3631 17.4251
" />
<path d="M0.3631 17.4251
L0.4107 17.3774
" />
<path d="M0.4107 17.3774
L0.5060 17.3298
" />
<path d="M0.5060 17.3298
L0.7440 17.3298
" />
<path d="M0.7440 17.3298
L0.8869 17.3774
" />
<path d="M1.2202 17.3298
L1.4583 18.3298
" />
<path d="M1.4583 18.3298
L1.6488 17.6155
" />
<path d="M1.6488 17.6155
L1.8393 18.3298
" />
<path d="M1.8393 18.3298
L2.0774 17.3298
" />
<path d="M2.2202 18.4251
L2.9821 18.4251
" />
<path d="M3.2202 18.3298
L3.2202 17.3298
" />
<path d="M3.2202 17.3298
L3.5536 18.0441
" />
<path d="M3.5536 18.0441
L3.8869 17.3298
" />
<path d="M3.8869 17.3298
L3.8869 18.3298
" />
<path d="M4.2679 17.3298
L4.9345 18.3298
" />
<path d="M4.9345 17.3298
L4.2679 18.3298
" />
<path d="M5.0774 18.4251
L5.8393 18.4251
" />
<path d="M6.6488 18.2346
L6.6012 18.2822
" />
<path d="M6.6012 18.2822
L6.4583 18.3298
" />
<path d="M6.4583 18.3298
L6.3631 18.3298
" />
<path d="M6.3631 18.3298
L6.2202 18.2822
" />
<path d="M6.2202 18.2822
L6.1250 18.1870
" />
<path d="M6.1250 18.1870
L6.0774 18.0917
" />
<path d="M6.0774 18.0917
L6.0298 17.9012
" />
<path d="M6.0298 17.9012
L6.0298 17.7584
" />
<path d="M6.0298 17.7584
L6.0774 17.5679
" />
<path d="M6.0774 17.5679
L6.1250 17.4727
" />
<path d="M6.1250 17.4727
L6.2202 17.3774
" />
<path d="M6.2202 17.3774
L6.3631 17.3298
" />
<path d="M6.3631 17.3298
L6.4583 17.3298
" />
<path d="M6.4583 17.3298
L6.6012 17.3774
" />
<path d="M6.6012 17.3774
L6.6488 17.4251
" />
<path d="M7.0774 18.3298
L7.0774 17.3298
" />
<path d="M7.5060 18.3298
L7.5060 17.8060
" />
<path d="M7.5060 17.8060
L7.4583 17.7108
" />
<path d="M7.4583 17.7108
L7.3631 17.6632
" />
<path d="M7.3631 17.6632
L7.2202 17.6632
" />
<path d="M7.2202 17.6632
L7.1250 17.7108
" />
<path d="M7.1250 17.7108
L7.0774 17.7584
" />
<path d="M8.1250 18.3298
L8.0298 18.2822
" />
<path d="M8.0298 18.2822
L7.9821 18.2346
" />
<path d="M7.9821 18.2346
L7.9345 18.1393
" />
<path d="M7.9345 18.1393
L7.9345 17.8536
" />
<path d="M7.9345 17.8536
L7.9821 17.7584
" />
<path d="M7.9821 17.7584
L8.0298 17.7108
" />
<path d="M8.0298 17.7108
L8.1250 17.6632
" />
<path d="M8.1250 17.6632
L8.2679 17.6632
" />
<path d="M8.2679 17.6632
L8.3631 17.7108
" />
<path d="M8.3631 17.7108
L8.4107 17.7584
" />
<path d="M8.4107 17.7584
L8.4583 17.8536
" />
<path d="M8.4583 17.8536
L8.4583 18.1393
" />
<path d="M8.4583 18.1393
L8.4107 18.2346
" />
<path d="M8.4107 18.2346
L8.3631 18.2822
" />
<path d="M8.3631 18.2822
L8.2679 18.3298
" />
<path d="M8.2679 18.3298
L8.1250 18.3298
" />
<path d="M9.3155 18.2822
L9.2202 18.3298
" />
<path d="M9.2202 18.3298
L9.0298 18.3298
" />
<path d="M9.0298 18.3298
L8.9345 18.2822
" />
<path d="M8.9345 18.2822
L8.8869 18.2346
" />
<path d="M8.8869 18.2346
L8.8393 18.1393
" />
<path d="M8.8393 18.1393
L8.8393 17.8536
" />
<path d="M8.8393 17.8536
L8.8869 17.7584
" />
<path d="M8.8869 17.7584
L8.9345 17.7108
" />
<path d="M8.9345 17.7108
L9.0298 17.6632
" />
<path d="M9.0298 17.6632
L9.2202 17.6632
" />
<path d="M9.2202 17.6632
L9.3155 17.7108
" />
<path d="M9.5060 18.4251
L10.2679 18.4251
" />
<path d="M10.5060 18.3298
L10.5060 17.3298
" />
<path d="M10.5060 17.8060
L11.0774 17.8060
" />
<path d="M11.0774 18.3298
L11.0774 17.3298
" />
<path d="M11.6964 18.3298
L11.6012 18.2822
" />
<path d="M11.6012 18.2822
L11.5536 18.2346
" />
<path d="M11.5536 18.2346
L11.5060 18.1393
" />
<path d="M11.5060 18.1393
L11.5060 17.8536
" />
<path d="M11.5060 17.8536
L11.5536 17.7584
" />
<path d="M11.5536 17.7584
L11.6012 17.7108
" />
<path d="M11.6012 17.7108
L11.6964 17.6632
" />
<path d="M11.6964 17.6632
L11.8393 17.6632
" />
<path d="M11.8393 17.6632
L11.9345 17.7108
" />
<path d="M11.9345 17.7108
L11.9821 17.7584
" />
<path d="M11.9821 17.7584
L12.0298 17.8536
" />
<path d="M12.0298 17.8536
L12.0298 18.1393
" />
<path d="M12.0298 18.1393
L11.9821 18.2346
" />
<path d="M11.9821 18.2346
L11.9345 18.2822
" />
<path d="M11.9345 18.2822
L11.8393 18.3298
" />
<path d="M11.8393 18.3298
L11.6964 18.3298
" />
<path d="M12.3155 17.6632
L12.6964 17.6632
" />
<path d="M12.4583 17.3298
L12.4583 18.1870
" />
<path d="M12.4583 18.1870
L12.5060 18.2822
" />
<path d="M12.5060 18.2822
L12.6012 18.3298
" />
<path d="M12.6012 18.3298
L12.6964 18.3298
" />
<path d="M12.9821 18.2822
L13.1250 18.3298
" />
<path d="M13.1250 18.3298
L13.3631 18.3298
" />
<path d="M13.3631 18.3298
L13.4583 18.2822
" />
<path d="M13.4583 18.2822
L13.5060 18.2346
" />
<path d="M13.5060 18.2346
L13.5536 18.1393
" />
<path d="M13.5536 18.1393
L13.5536 18.0441
" />
<path d="M13.5536 18.0441
L13.5060 17.9489
" />
<path d="M13.5060 17.9489
L13.4583 17.9012
" />
<path d="M13.4583 17.9012
L13.3631 17.8536
" />
<path d="M13.3631 17.8536
L13.1726 17.8060
" />
<path d="M13.1726 17.8060
L13.0774 17.7584
" />
<path d="M13.0774 17.7584
L13.0298 17.7108
" />
<path d="M13.0298 17.7108
L12.9821 17.6155
" />
<path d="M12.9821 17.6155
L12.9821 17.5203
" />
<path d="M12.9821 17.5203
L13.0298 17.4251
" />
<path d="M13.0298 17.4251
L13.0774 17.3774
" />
<path d="M13.0774 17.3774
L13.1726 17.3298
" />
<path d="M13.1726 17.3298
L13.4107 17.3298
" />
<path d="M13.4107 17.3298
L13.5536 17.3774
" />
<path d="M13.8869 17.6632
L14.0774 18.3298
" />
<path d="M14.0774 18.3298
L14.2679 17.8536
" />
<path d="M14.2679 17.8536
L14.4583 18.3298
" />
<path d="M14.4583 18.3298
L14.6488 17.6632
" />
<path d="M15.4583 18.3298
L15.4583 17.8060
" />
<path d="M15.4583 17.8060
L15.4107 17.7108
" />
<path d="M15.4107 17.7108
L15.3155 17.6632
" />
<path d="M15.3155 17.6632
L15.1250 17.6632
" />
<path d="M15.1250 17.6632
L15.0298 17.7108
" />
<path d="M15.4583 18.2822
L15.3631 18.3298
" />
<path d="M15.3631 18.3298
L15.1250 18.3298
" />
<path d="M15.1250 18.3298
L15.0298 18.2822
" />
<path d="M15.0298 18.2822
L14.9821 18.1870
" />
<path d="M14.9821 18.1870
L14.9821 18.0917
" />
<path d="M14.9821 18.0917
L15.0298 17.9965
" />
<path d="M15.0298 17.9965
L15.1250 17.9489
" />
<path d="M15.1250 17.9489
L15.3631 17.9489
" />
<path d="M15.3631 17.9489
L15.4583 17.9012
" />
<path d="M15.9345 17.6632
L15.9345 18.6632
" />
<path d="M15.9345 17.7108
L16.0298 17.6632
" />
<path d="M16.0298 17.6632
L16.2202 17.6632
" />
<path d="M16.2202 17.6632
L16.3155 17.7108
" />
<path d="M16.3155 17.7108
L16.3631 17.7584
" />
<path d="M16.3631 17.7584
L16.4107 17.8536
" />
<path d="M16.4107 17.8536
L16.4107 18.1393
" />
<path d="M16.4107 18.1393
L16.3631 18.2346
" />
<path d="M16.3631 18.2346
L16.3155 18.2822
" />
<path d="M16.3155 18.2822
L16.2202 18.3298
" />
<path d="M16.2202 18.3298
L16.0298 18.3298
" />
<path d="M16.0298 18.3298
L15.9345 18.2822
" />
<path d="M16.6012 18.4251
L17.3631 18.4251
" />
<path d="M17.6012 17.6632
L17.6012 18.3298
" />
<path d="M17.6012 17.7584
L17.6488 17.7108
" />
<path d="M17.6488 17.7108
L17.7440 17.6632
" />
<path d="M17.7440 17.6632
L17.8869 17.6632
" />
<path d="M17.8869 17.6632
L17.9821 17.7108
" />
<path d="M17.9821 17.7108
L18.0298 17.8060
" />
<path d="M18.0298 17.8060
L18.0298 18.3298
" />
<path d="M18.4583 18.2822
L18.6012 18.3298
" />
<path d="M18.6012 18.3298
L18.8393 18.3298
" />
<path d="M18.8393 18.3298
L18.9345 18.2822
" />
<path d="M18.9345 18.2822
L18.9821 18.2346
" />
<path d="M18.9821 18.2346
L19.0298 18.1393
" />
<path d="M19.0298 18.1393
L19.0298 18.0441
" />
<path d="M19.0298 18.0441
L18.9821 17.9489
" />
<path d="M18.9821 17.9489
L18.9345 17.9012
" />
<path d="M18.9345 17.9012
L18.8393 17.8536
" />
<path d="M18.8393 17.8536
L18.6488 17.8060
" />
<path d="M18.6488 17.8060
L18.5536 17.7584
" />
<path d="M18.5536 17.7584
L18.5060 17.7108
" />
<path d="M18.5060 17.7108
L18.4583 17.6155
" />
<path d="M18.4583 17.6155
L18.4583 17.5203
" />
<path d="M18.4583 17.5203
L18.5060 17.4251
" />
<path d="M18.5060 17.4251
L18.5536 17.3774
" />
<path d="M18.5536 17.3774
L18.6488 17.3298
" />
<path d="M18.6488 17.3298
L18.8869 17.3298
" />
<path d="M18.8869 17.3298
L19.0298 17.3774
" />
<path d="M19.4583 18.3298
L19.4583 17.6632
" />
<path d="M19.4583 17.3298
L19.4107 17.3774
" />
<path d="M19.4107 17.3774
L19.4583 17.4251
" />
<path d="M19.4583 17.4251
L19.5060 17.3774
" />
<path d="M19.5060 17.3774
L19.4583 17.3298
" />
<path d="M19.4583 17.3298
L19.4583 17.4251
" />
<path d="M20.0774 18.3298
L19.9821 18.2822
" />
<path d="M19.9821 18.2822
L19.9345 18.1870
" />
<path d="M19.9345 18.1870
L19.9345 17.3298
" />
<path d="M20.4583 18.3298
L20.4583 17.3298
" />
<path d="M20.5536 17.9489
L20.8393 18.3298
" />
<path d="M20.8393 17.6632
L20.4583 18.0441
" />
</g><text x="10.5774" y="19.9750"
textLength="4.5357" font-size="1.3333" lengthAdjust="spacingAndGlyphs"
text-anchor="middle" opacity="0" stroke-opacity="0">REF**</text>
<g class="stroked-text"><desc>REF**</desc>
<path d="M9.2440 19.9298
L8.9107 19.4536
" />
<path d="M8.6726 19.9298
L8.6726 18.9298
" />
<path d="M8.6726 18.9298
L9.0536 18.9298
" />
<path d="M9.0536 18.9298
L9.1488 18.9774
" />
<path d="M9.1488 18.9774
L9.1964 19.0251
" />
<path d="M9.1964 19.0251
L9.2440 19.1203
" />
<path d="M9.2440 19.1203
L9.2440 19.2632
" />
<path d="M9.2440 19.2632
L9.1964 19.3584
" />
<path d="M9.1964 19.3584
L9.1488 19.4060
" />
<path d="M9.1488 19.4060
L9.0536 19.4536
" />
<path d="M9.0536 19.4536
L8.6726 19.4536
" />
<path d="M9.6726 19.4060
L10.0060 19.4060
" />
<path d="M10.1488 19.9298
L9.6726 19.9298
" />
<path d="M9.6726 19.9298
L9.6726 18.9298
" />
<path d="M9.6726 18.9298
L10.1488 18.9298
" />
<path d="M10.9107 19.4060
L10.5774 19.4060
" />
<path d="M10.5774 19.9298
L10.5774 18.9298
" />
<path d="M10.5774 18.9298
L11.0536 18.9298
" />
<path d="M11.5774 18.9298
L11.5774 19.1679
" />
<path d="M11.3393 19.0727
L11.5774 19.1679
" />
<path d="M11.5774 19.1679
L11.8155 19.0727
" />
<path d="M11.4345 19.3584
L11.5774 19.1679
" />
<path d="M11.5774 19.1679
L11.7202 19.3584
" />
<path d="M12.3393 18.9298
L12.3393 19.1679
" />
<path d="M12.1012 19.0727
L12.3393 19.1679
" />
<path d="M12.3393 19.1679
L12.5774 19.0727
" />
<path d="M12.1964 19.3584
L12.3393 19.1679
" />
<path d="M12.3393 19.1679
L12.4821 19.3584
" />
</g></g>
<g style="fill:none; 
stroke:#AFAFAF; stroke-width:0.1200; stroke-opacity:1; 
stroke-linecap:round; stroke-linejoin:round;">
<path d="M2.9574 3.2250
L2.9574 5.7650
" />
<path d="M2.9574 5.7650
L5.4974 5.7650
" />
<path d="M5.4974 2.5900
L5.4974 7.0350
" />
<path d="M5.4974 3.2250
L2.9574 3.2250
" />
<path d="M5.4974 7.0350
L10.5774 7.0350
" />
<path d="M6.0024 14.2550
L6.0024 16.7950
" />
<path d="M6.0024 16.7950
L8.2774 16.7950
" />
<path d="M8.2774 14.0000
L8.2774 17.0500
" />
<path d="M8.2774 14.2550
L6.0024 14.2550
" />
<path d="M8.2774 17.0500
L9.0774 17.8500
" />
<path d="M9.0774 13.2000
L8.2774 14.0000
" />
<path d="M9.0774 13.2000
L10.8774 13.2000
" />
<path d="M9.0774 17.8500
L12.2274 17.8500
" />
<path d="M13.0274 17.0500
L12.2274 17.8500
" />
<path d="M13.0274 17.0500
L13.0274 16.7000
" />
<path d="M14.3874 2.5900
L5.4974 2.5900
" />
<path d="M16.9274 8.3050
L19.4674 8.3050
" />
<path d="M16.9274 8.9400
L13.1174 8.9400
" />
<path d="M16.9274 8.9400
L16.9274 5.1300
" />
<path d="M17.0274 15.7000
L14.0274 15.7000
" />
<path d="M17.8274 11.0500
L13.9734 11.0500
" />
<path d="M17.8274 11.0500
L17.8274 14.9000
" />
<path d="M17.8274 14.5950
L20.1574 14.5950
" />
<path d="M19.4674 5.7650
L16.9274 5.7650
" />
<path d="M19.4674 8.3050
L19.4674 5.7650
" />
<path d="M20.1574 12.0550
L17.8274 12.0550
" />
<path d="M20.1574 14.5950
L20.1574 12.0550
" />
<path d="M13.0415 8.9590 A2.5400 2.5400 0.0 0 0 10.5774 7.0350" />
<path d="M14.0274 15.7000 A1.0000 1.0000 0.0 0 0 13.0274 16.7000" />
<path d="M10.8774 13.2000 A2.6255 2.6255 0.0 0 0 13.0328 11.7079" />
<path d="M13.9774 11.0500 A1.0000 1.0000 0.0 0 0 13.0377 11.7080" />
<path d="M16.9274 5.1300 A2.5400 2.5400 0.0 0 0 14.3874 2.5900" />
<path d="M17.0274 15.7000 A0.8000 0.8000 0.0 0 0 17.8274 14.9000" />
</g>
<g style="fill:none; 
stroke:#AFAFAF; stroke-width:0.0212; stroke-opacity:1; 
stroke-linecap:round; stroke-linejoin:round;">
<circle cx="5.4974" cy="9.5750" r="0.8500" /> 
</g>
<g style="fill:none; 
stroke:#AFAFAF; stroke-width:0.0212; stroke-opacity:1; 
stroke-linecap:round; stroke-linejoin:round;">
<circle cx="8.0374" cy="4.4950" r="1.5000" /> 
</g>
<g style="fill:none; 
stroke:#AFAFAF; stroke-width:0.0212; stroke-opacity:1; 
stroke-linecap:round; stroke-linejoin:round;">
<circle cx="10.5774" cy="9.5750" r="2.0000" /> 
</g>
<g style="fill:none; 
stroke:#AFAFAF; stroke-width:0.0212; stroke-opacity:1; 
stroke-linecap:round; stroke-linejoin:round;">
<circle cx="10.5774" cy="15.5250" r="1.5000" /> 
</g>
<g style="fill:none; 
stroke:#AFAFAF; stroke-width:0.0212; stroke-opacity:1; 
stroke-linecap:round; stroke-linejoin:round;">
<circle cx="14.3874" cy="7.0350" r="1.5000" /> 
</g>
<g style="fill:none; 
stroke:#AFAFAF; stroke-width:0.0212; stroke-opacity:1; 
stroke-linecap:round; stroke-linejoin:round;">
<circle cx="15.5774" cy="13.3250" r="1.5000" /> 
</g>
<g style="fill:none; 
stroke:#AFAFAF; stroke-width:0.0212; stroke-opacity:1; 
stroke-linecap:round; stroke-linejoin:round;">
<circle cx="15.6574" cy="9.5750" r="0.8500" /> 
</g>
<g style="fill:none; 
stroke:#AFAFAF; stroke-width:0.0708; stroke-opacity:1; 
stroke-linecap:round; stroke-linejoin:round;">
<text x="18.1374" y="7.4600"
textLength="0.8520" font-size="1.1333" lengthAdjust="spacingAndGlyphs"
text-anchor="middle" opacity="0" stroke-opacity="0">1</text>
<g class="stroked-text"><desc>1</desc>
<path d="M18.3802 7.4245
L17.8945 7.4245
" />
<path d="M18.1374 7.4245
L18.1374 6.5745
" />
<path d="M18.1374 6.5745
L18.0564 6.6960
" />
<path d="M18.0564 6.6960
L17.9755 6.7769
" />
<path d="M17.9755 6.7769
L17.8945 6.8174
" />
</g><path style="fill:none; 
stroke:#AFAFAF; stroke-width:0.0212; stroke-opacity:1; 
stroke-linecap:round; stroke-linejoin:round;fill:none"
d="M 16.8624,6.0350
16.8814,5.9393
16.9356,5.8582
17.0167,5.8040
17.1124,5.7850
19.1624,5.7850
19.2581,5.8040
19.3392,5.8582
19.3934,5.9393
19.4124,6.0350
19.4124,8.0350
19.3934,8.1307
19.3392,8.2118
19.2581,8.2660
19.1624,8.2850
17.1124,8.2850
17.0167,8.2660
16.9356,8.2118
16.8814,8.1307
16.8624,8.0350
Z" /> 
</g>
<g style="fill:none; 
stroke:#AFAFAF; stroke-width:0.0708; stroke-opacity:1; 
stroke-linecap:round; stroke-linejoin:round;">
<text x="18.8274" y="13.7500"
textLength="0.8520" font-size="1.1333" lengthAdjust="spacingAndGlyphs"
text-anchor="middle" opacity="0" stroke-opacity="0">1</text>
<g class="stroked-text"><desc>1</desc>
<path d="M19.0702 13.7145
L18.5845 13.7145
" />
<path d="M18.8274 13.7145
L18.8274 12.8645
" />
<path d="M18.8274 12.8645
L18.7464 12.9860
" />
<path d="M18.7464 12.9860
L18.6655 13.0669
" />
<path d="M18.6655 13.0669
L18.5845 13.1074
" />
</g><path style="fill:none; 
stroke:#AFAFAF; stroke-width:0.0212; stroke-opacity:1; 
stroke-linecap:round; stroke-linejoin:round;fill:none"
d="M 17.5524,12.3250
17.5714,12.2293
17.6256,12.1482
17.7067,12.0940
17.8024,12.0750
19.8524,12.0750
19.9481,12.0940
20.0292,12.1482
20.0834,12.2293
20.1024,12.3250
20.1024,14.3250
20.0834,14.4207
20.0292,14.5018
19.9481,14.5560
19.8524,14.5750
17.8024,14.5750
17.7067,14.5560
17.6256,14.5018
17.5714,14.4207
17.5524,14.3250
Z" /> 
</g>
<g style="fill:none; 
stroke:#AFAFAF; stroke-width:0.0708; stroke-opacity:1; 
stroke-linecap:round; stroke-linejoin:round;">
<text x="4.2874" y="4.9200"
textLength="0.8520" font-size="1.1333" lengthAdjust="spacingAndGlyphs"
text-anchor="middle" opacity="0" stroke-opacity="0">2</text>
<g class="stroked-text"><desc>2</desc>
<path d="M4.0445 4.1155
L4.0850 4.0750
" />
<path d="M4.0850 4.0750
L4.1660 4.0345
" />
<path d="M4.1660 4.0345
L4.3683 4.0345
" />
<path d="M4.3683 4.0345
L4.4493 4.0750
" />
<path d="M4.4493 4.0750
L4.4898 4.1155
" />
<path d="M4.4898 4.1155
L4.5302 4.1964
" />
<path d="M4.5302 4.1964
L4.5302 4.2774
" />
<path d="M4.5302 4.2774
L4.4898 4.3988
" />
<path d="M4.4898 4.3988
L4.0040 4.8845
" />
<path d="M4.0040 4.8845
L4.5302 4.8845
" />
</g><path style="fill:none; 
stroke:#AFAFAF; stroke-width:0.0212; stroke-opacity:1; 
stroke-linecap:round; stroke-linejoin:round;fill:none"
d="M 3.0124,3.4950
3.0314,3.3993
3.0856,3.3182
3.1667,3.2640
3.2624,3.2450
5.3124,3.2450
5.4081,3.2640
5.4892,3.3182
5.5434,3.3993
5.5624,3.4950
5.5624,5.4950
5.5434,5.5907
5.4892,5.6718
5.4081,5.7260
5.3124,5.7450
3.2624,5.7450
3.1667,5.7260
3.0856,5.6718
3.0314,5.5907
3.0124,5.4950
Z" /> 
</g>
<g style="fill:none; 
stroke:#AFAFAF; stroke-width:0.0708; stroke-opacity:1; 
stroke-linecap:round; stroke-linejoin:round;">
<text x="7.3324" y="15.9500"
textLength="0.8520" font-size="1.1333" lengthAdjust="spacingAndGlyphs"
text-anchor="middle" opacity="0" stroke-opacity="0">2</text>
<g class="stroked-text"><desc>2</desc>
<path d="M7.0895 15.1455
L7.1300 15.1050
" />
<path d="M7.1300 15.1050
L7.2110 15.0645
" />
<path d="M7.2110 15.0645
L7.4133 15.0645
" />
<path d="M7.4133 15.0645
L7.4943 15.1050
" />
<path d="M7.4943 15.1050
L7.5348 15.1455
" />
<path d="M7.5348 15.1455
L7.5752 15.2264
" />
<path d="M7.5752 15.2264
L7.5752 15.3074
" />
<path d="M7.5752 15.3074
L7.5348 15.4288
" />
<path d="M7.5348 15.4288
L7.0490 15.9145
" />
<path d="M7.0490 15.9145
L7.5752 15.9145
" />
</g><path style="fill:none; 
stroke:#AFAFAF; stroke-width:0.0212; stroke-opacity:1; 
stroke-linecap:round; stroke-linejoin:round;fill:none"
d="M 6.0574,14.5250
6.0764,14.4293
6.1306,14.3482
6.2117,14.2940
6.3074,14.2750
8.3574,14.2750
8.4531,14.2940
8.5342,14.3482
8.5884,14.4293
8.6074,14.5250
8.6074,16.5250
8.5884,16.6207
8.5342,16.7018
8.4531,16.7560
8.3574,16.7750
6.3074,16.7750
6.2117,16.7560
6.1306,16.7018
6.0764,16.6207
6.0574,16.5250
Z" /> 
<path style="fill:none; 
stroke:#585D84; stroke-width:0.0500; stroke-opacity:1; 
stroke-linecap:round; stroke-linejoin:round;fill:none"
d="M 3.5774,2.5750
17.5774,2.5750
17.5774,16.5750
3.5774,16.5750
Z" /> 
</g>
<g style="fill:none; 
stroke:#585D84; stroke-width:0.0212; stroke-opacity:1; 
stroke-linecap:round; stroke-linejoin:round;">
<circle cx="5.4974" cy="9.5750" r="0.8500" /> 
</g>
<g style="fill:none; 
stroke:#585D84; stroke-width:0.0212; stroke-opacity:1; 
stroke-linecap:round; stroke-linejoin:round;">
<circle cx="8.0374" cy="4.4950" r="1.5000" /> 
</g>
<g style="fill:none; 
stroke:#585D84; stroke-width:0.0212; stroke-opacity:1; 
stroke-linecap:round; stroke-linejoin:round;">
<circle cx="10.5774" cy="9.5750" r="2.0000" /> 
</g>
<g style="fill:none; 
stroke:#585D84; stroke-width:0.0212; stroke-opacity:1; 
stroke-linecap:round; stroke-linejoin:round;">
<circle cx="10.5774" cy="15.5250" r="1.5000" /> 
</g>
<g style="fill:none; 
stroke:#585D84; stroke-width:0.0212; stroke-opacity:1; 
stroke-linecap:round; stroke-linejoin:round;">
<circle cx="14.3874" cy="7.0350" r="1.5000" /> 
</g>
<g style="fill:none; 
stroke:#585D84; stroke-width:0.0212; stroke-opacity:1; 
stroke-linecap:round; stroke-linejoin:round;">
<circle cx="15.5774" cy="13.3250" r="1.5000" /> 
</g>
<g style="fill:none; 
stroke:#585D84; stroke-width:0.0212; stroke-opacity:1; 
stroke-linecap:round; stroke-linejoin:round;">
<circle cx="15.6574" cy="9.5750" r="0.8500" /> 
<path style="fill:none; 
stroke:#C2C2C2; stroke-width:0.1000; stroke-opacity:1; 
stroke-linecap:round; stroke-linejoin:round;fill:none"
d="M 1.0524,0.0500
20.1024,0.0500
20.1024,19.1000
1.0524,19.1000
Z" /> 
</g> 
</svg>
