<?xml version="1.0" standalone="no"?>
 <!DOCTYPE svg PUBLIC "-//W3C//DTD SVG 1.1//EN" 
 "http://www.w3.org/Graphics/SVG/1.1/DTD/svg11.dtd"> 
<svg
  xmlns:svg="http://www.w3.org/2000/svg"
  xmlns="http://www.w3.org/2000/svg"
  xmlns:xlink="http://www.w3.org/1999/xlink"
  version="1.1"
  width="21.2852mm" height="21.4122mm" viewBox="0.0000 0.0000 21.2852 21.4122">
<title>SVG Image created as SW_MX_EC11_HotSwap_nSilk.svg date 2025/05/13 13:29:23 </title>
  <desc>Image generated by PCBNEW </desc>
<g style="fill:#000000; fill-opacity:1.0000;stroke:#000000; stroke-opacity:1.0000;
stroke-linecap:round; stroke-linejoin:round;"
 transform="translate(0 0) scale(1 1)">
</g>
<g style="fill:none; 
stroke:#F2EDA1; stroke-width:0.1500; stroke-opacity:1; 
stroke-linecap:round; stroke-linejoin:round;">
<text x="11.8266" y="4.9950"
textLength="4.5357" font-size="1.3333" lengthAdjust="spacingAndGlyphs"
text-anchor="middle" opacity="0" stroke-opacity="0">REF**</text>
<g class="stroked-text"><desc>REF**</desc>
<path d="M10.4933 4.9498
L10.1599 4.4736
" />
<path d="M9.9218 4.9498
L9.9218 3.9498
" />
<path d="M9.9218 3.9498
L10.3028 3.9498
" />
<path d="M10.3028 3.9498
L10.3980 3.9974
" />
<path d="M10.3980 3.9974
L10.4457 4.0451
" />
<path d="M10.4457 4.0451
L10.4933 4.1403
" />
<path d="M10.4933 4.1403
L10.4933 4.2832
" />
<path d="M10.4933 4.2832
L10.4457 4.3784
" />
<path d="M10.4457 4.3784
L10.3980 4.4260
" />
<path d="M10.3980 4.4260
L10.3028 4.4736
" />
<path d="M10.3028 4.4736
L9.9218 4.4736
" />
<path d="M10.9218 4.4260
L11.2552 4.4260
" />
<path d="M11.3980 4.9498
L10.9218 4.9498
" />
<path d="M10.9218 4.9498
L10.9218 3.9498
" />
<path d="M10.9218 3.9498
L11.3980 3.9498
" />
<path d="M12.1599 4.4260
L11.8266 4.4260
" />
<path d="M11.8266 4.9498
L11.8266 3.9498
" />
<path d="M11.8266 3.9498
L12.3028 3.9498
" />
<path d="M12.8266 3.9498
L12.8266 4.1879
" />
<path d="M12.5885 4.0927
L12.8266 4.1879
" />
<path d="M12.8266 4.1879
L13.0647 4.0927
" />
<path d="M12.6838 4.3784
L12.8266 4.1879
" />
<path d="M12.8266 4.1879
L12.9695 4.3784
" />
<path d="M13.5885 3.9498
L13.5885 4.1879
" />
<path d="M13.3504 4.0927
L13.5885 4.1879
" />
<path d="M13.5885 4.1879
L13.8266 4.0927
" />
<path d="M13.4457 4.3784
L13.5885 4.1879
" />
<path d="M13.5885 4.1879
L13.7314 4.3784
" />
</g></g>
<g style="fill:none; 
stroke:#F2EDA1; stroke-width:0.1200; stroke-opacity:1; 
stroke-linecap:round; stroke-linejoin:round;">
<path d="M5.5688 2.5900
L5.5688 2.9450
" />
<path d="M5.5688 2.5900
L7.2488 2.5900
" />
<path d="M5.5688 7.0350
L5.5688 6.0450
" />
<path d="M5.5688 7.0350
L10.6488 7.0350
" />
<path d="M12.2488 2.5900
L9.0488 2.5900
" />
<path d="M13.1130 8.9400
L14.3826 8.9400
" />
<path d="M14.4588 2.5900
L14.0488 2.5900
" />
<path d="M16.9988 5.1300
L16.9988 5.4850
" />
<path d="M13.1085 8.9412 A2.5400 2.5400 0.0 0 0 10.6488 7.0350" />
<path d="M16.9988 5.1300 A2.5400 2.5400 0.0 0 0 14.4588 2.5900" />
<path style="fill:#B4A09A; fill-opacity:0.9000; stroke:none;fill-rule:evenodd;"
d="M 16.9338,6.0350
16.9528,5.9393
17.0070,5.8582
17.0881,5.8040
17.1838,5.7850
19.2338,5.7850
19.3295,5.8040
19.4106,5.8582
19.4648,5.9393
19.4838,6.0350
19.4838,8.0350
19.4648,8.1307
19.4106,8.2118
19.3295,8.2660
19.2338,8.2850
17.1838,8.2850
17.0881,8.2660
17.0070,8.2118
16.9528,8.1307
16.9338,8.0350
Z" /> 
<path style="fill:#B4A09A; fill-opacity:0.9000; stroke:none;fill-rule:evenodd;"
d="M 3.0838,3.4950
3.1028,3.3993
3.1570,3.3182
3.2381,3.2640
3.3338,3.2450
5.3838,3.2450
5.4795,3.2640
5.5606,3.3182
5.6148,3.3993
5.6338,3.4950
5.6338,5.4950
5.6148,5.5907
5.5606,5.6718
5.4795,5.7260
5.3838,5.7450
3.3338,5.7450
3.2381,5.7260
3.1570,5.6718
3.1028,5.5907
3.0838,5.4950
Z" /> 
</g>
<g style="fill:none; 
stroke:#4D7FC4; stroke-width:1.0000; stroke-opacity:1; 
stroke-linecap:round; stroke-linejoin:round;">
<path d="M13.3488 17.0750
L12.9488 17.0750
" />
<path d="M8.3488 17.0750
L7.9488 17.0750
" />
<path d="M10.8488 17.0750
L10.4488 17.0750
" />
<path style="fill:#4D7FC4; fill-opacity:1.0000; stroke:none;fill-rule:evenodd;"
d="M 4.1188,8.2496
4.1340,8.1731
4.1774,8.1082
4.2423,8.0648
4.3188,8.0496
5.5188,8.0496
6.1188,8.6496
6.1188,10.4496
5.5188,11.0496
4.3188,11.0496
4.2423,11.0344
4.1774,10.9910
4.1340,10.9261
4.1188,10.8496
Z" /> 
<path style="fill:#4D7FC4; fill-opacity:1.0000; stroke:none;fill-rule:evenodd;"
d="M 15.1788,10.4496
15.1788,8.7896
16.0588,8.0496
16.5788,8.0496
17.1788,8.6496
17.1788,10.8496
17.1588,10.9296
17.1188,10.9896
17.0588,11.0296
16.9788,11.0496
15.7788,11.0496
Z" /> 
</g>
<g style="fill:none; 
stroke:#4D7FC4; stroke-width:1.0000; stroke-opacity:1; 
stroke-linecap:round; stroke-linejoin:round;">
<path d="M13.3488 2.2496
L12.9488 2.2496
" />
<path d="M8.3488 2.2496
L7.9488 2.2496
" />
</g>
<g style="fill:none; 
stroke:#C83434; stroke-width:1.0000; stroke-opacity:1; 
stroke-linecap:round; stroke-linejoin:round;">
<path d="M13.3488 17.0750
L12.9488 17.0750
" />
<path d="M8.3488 17.0750
L7.9488 17.0750
" />
<path d="M10.8488 17.0750
L10.4488 17.0750
" />
<path style="fill:#C83434; fill-opacity:1.0000; stroke:none;fill-rule:evenodd;"
d="M 4.1188,8.2496
4.1340,8.1731
4.1774,8.1082
4.2423,8.0648
4.3188,8.0496
5.5188,8.0496
6.1188,8.6496
6.1188,10.4496
5.5188,11.0496
4.3188,11.0496
4.2423,11.0344
4.1774,10.9910
4.1340,10.9261
4.1188,10.8496
Z" /> 
<path style="fill:#C83434; fill-opacity:1.0000; stroke:none;fill-rule:evenodd;"
d="M 15.1788,10.4496
15.1788,8.7896
16.0588,8.0496
16.5788,8.0496
17.1788,8.6496
17.1788,10.8496
17.1588,10.9296
17.1188,10.9896
17.0588,11.0296
16.9788,11.0496
15.7788,11.0496
Z" /> 
</g>
<g style="fill:none; 
stroke:#C83434; stroke-width:1.0000; stroke-opacity:1; 
stroke-linecap:round; stroke-linejoin:round;">
<path d="M13.3488 2.2496
L12.9488 2.2496
" />
<path style="fill:#C83434; fill-opacity:1.0000; stroke:none;fill-rule:evenodd;"
d="M 16.9338,6.0350
16.9528,5.9393
17.0070,5.8582
17.0881,5.8040
17.1838,5.7850
19.2338,5.7850
19.3295,5.8040
19.4106,5.8582
19.4648,5.9393
19.4838,6.0350
19.4838,8.0350
19.4648,8.1307
19.4106,8.2118
19.3295,8.2660
19.2338,8.2850
17.1838,8.2850
17.0881,8.2660
17.0070,8.2118
16.9528,8.1307
16.9338,8.0350
Z" /> 
<path style="fill:#C83434; fill-opacity:1.0000; stroke:none;fill-rule:evenodd;"
d="M 3.0838,3.4950
3.1028,3.3993
3.1570,3.3182
3.2381,3.2640
3.3338,3.2450
5.3838,3.2450
5.4795,3.2640
5.5606,3.3182
5.6148,3.3993
5.6338,3.4950
5.6338,5.4950
5.6148,5.5907
5.5606,5.6718
5.4795,5.7260
5.3838,5.7450
3.3338,5.7450
3.2381,5.7260
3.1570,5.6718
3.1028,5.5907
3.0838,5.4950
Z" /> 
</g>
<g style="fill:none; 
stroke:#C83434; stroke-width:1.0000; stroke-opacity:1; 
stroke-linecap:round; stroke-linejoin:round;">
<path d="M8.3488 2.2496
L7.9488 2.2496
" />
<path style="fill:none; 
stroke:#585D84; stroke-width:0.1000; stroke-opacity:1; 
stroke-linecap:round; stroke-linejoin:round;fill:none"
d="M 3.6488,2.5750
17.6488,2.5750
17.6488,16.5750
3.6488,16.5750
Z" /> 
</g>
<g style="fill:none; 
stroke:#585D84; stroke-width:0.0212; stroke-opacity:1; 
stroke-linecap:round; stroke-linejoin:round;">
<circle cx="8.1088" cy="4.4950" r="1.5000" /> 
</g>
<g style="fill:none; 
stroke:#585D84; stroke-width:0.0212; stroke-opacity:1; 
stroke-linecap:round; stroke-linejoin:round;">
<circle cx="10.6488" cy="9.5496" r="2.0000" /> 
</g>
<g style="fill:none; 
stroke:#585D84; stroke-width:0.0212; stroke-opacity:1; 
stroke-linecap:round; stroke-linejoin:round;">
<circle cx="14.4588" cy="7.0350" r="1.5000" /> 
</g>
<g style="fill:none; 
stroke:#585D84; stroke-width:0.0389; stroke-opacity:1; 
stroke-linecap:round; stroke-linejoin:round;">
<text x="13.1488" y="17.3083"
textLength="0.4233" font-size="0.6222" lengthAdjust="spacingAndGlyphs"
text-anchor="middle" opacity="0" stroke-opacity="0">A</text>
<g class="stroked-text"><desc>A</desc>
<path d="M13.0377 17.1555
L13.2599 17.1555
" />
<path d="M12.9933 17.2889
L13.1488 16.8222
" />
<path d="M13.1488 16.8222
L13.3044 17.2889
" />
</g></g>
<g style="fill:none; 
stroke:#585D84; stroke-width:0.0212; stroke-opacity:1; 
stroke-linecap:round; stroke-linejoin:round;">
<path d="M13.3488 16.5750
L12.9488 16.5750
" />
<path d="M12.9488 16.5750 A0.5000 0.5000 0.0 0 0 12.9488 17.5750" />
<path d="M12.9488 17.5750
L13.3488 17.5750
" />
<path d="M13.3488 17.5750 A0.5000 0.5000 0.0 0 0 13.3488 16.5750" />
</g>
<g style="fill:none; 
stroke:#585D84; stroke-width:0.0389; stroke-opacity:1; 
stroke-linecap:round; stroke-linejoin:round;">
<text x="8.1488" y="17.3083"
textLength="0.4900" font-size="0.6222" lengthAdjust="spacingAndGlyphs"
text-anchor="middle" opacity="0" stroke-opacity="0">B</text>
<g class="stroked-text"><desc>B</desc>
<path d="M8.1821 17.0444
L8.2488 17.0666
" />
<path d="M8.2488 17.0666
L8.2710 17.0889
" />
<path d="M8.2710 17.0889
L8.2933 17.1333
" />
<path d="M8.2933 17.1333
L8.2933 17.2000
" />
<path d="M8.2933 17.2000
L8.2710 17.2444
" />
<path d="M8.2710 17.2444
L8.2488 17.2666
" />
<path d="M8.2488 17.2666
L8.2044 17.2889
" />
<path d="M8.2044 17.2889
L8.0266 17.2889
" />
<path d="M8.0266 17.2889
L8.0266 16.8222
" />
<path d="M8.0266 16.8222
L8.1821 16.8222
" />
<path d="M8.1821 16.8222
L8.2266 16.8444
" />
<path d="M8.2266 16.8444
L8.2488 16.8666
" />
<path d="M8.2488 16.8666
L8.2710 16.9111
" />
<path d="M8.2710 16.9111
L8.2710 16.9555
" />
<path d="M8.2710 16.9555
L8.2488 17.0000
" />
<path d="M8.2488 17.0000
L8.2266 17.0222
" />
<path d="M8.2266 17.0222
L8.1821 17.0444
" />
<path d="M8.1821 17.0444
L8.0266 17.0444
" />
</g></g>
<g style="fill:none; 
stroke:#585D84; stroke-width:0.0212; stroke-opacity:1; 
stroke-linecap:round; stroke-linejoin:round;">
<path d="M8.3488 16.5750
L7.9488 16.5750
" />
<path d="M7.9488 16.5750 A0.5000 0.5000 0.0 0 0 7.9488 17.5750" />
<path d="M7.9488 17.5750
L8.3488 17.5750
" />
<path d="M8.3488 17.5750 A0.5000 0.5000 0.0 0 0 8.3488 16.5750" />
</g>
<g style="fill:none; 
stroke:#585D84; stroke-width:0.0389; stroke-opacity:1; 
stroke-linecap:round; stroke-linejoin:round;">
<text x="10.6488" y="17.3083"
textLength="0.4900" font-size="0.6222" lengthAdjust="spacingAndGlyphs"
text-anchor="middle" opacity="0" stroke-opacity="0">C</text>
<g class="stroked-text"><desc>C</desc>
<path d="M10.7933 17.2444
L10.7710 17.2666
" />
<path d="M10.7710 17.2666
L10.7044 17.2889
" />
<path d="M10.7044 17.2889
L10.6599 17.2889
" />
<path d="M10.6599 17.2889
L10.5933 17.2666
" />
<path d="M10.5933 17.2666
L10.5488 17.2222
" />
<path d="M10.5488 17.2222
L10.5266 17.1778
" />
<path d="M10.5266 17.1778
L10.5044 17.0889
" />
<path d="M10.5044 17.0889
L10.5044 17.0222
" />
<path d="M10.5044 17.0222
L10.5266 16.9333
" />
<path d="M10.5266 16.9333
L10.5488 16.8889
" />
<path d="M10.5488 16.8889
L10.5933 16.8444
" />
<path d="M10.5933 16.8444
L10.6599 16.8222
" />
<path d="M10.6599 16.8222
L10.7044 16.8222
" />
<path d="M10.7044 16.8222
L10.7710 16.8444
" />
<path d="M10.7710 16.8444
L10.7933 16.8666
" />
</g></g>
<g style="fill:none; 
stroke:#585D84; stroke-width:0.0212; stroke-opacity:1; 
stroke-linecap:round; stroke-linejoin:round;">
<path d="M10.8488 16.5750
L10.4488 16.5750
" />
<path d="M10.4488 16.5750 A0.5000 0.5000 0.0 0 0 10.4488 17.5750" />
<path d="M10.4488 17.5750
L10.8488 17.5750
" />
<path d="M10.8488 17.5750 A0.5000 0.5000 0.0 0 0 10.8488 16.5750" />
</g>
<g style="fill:none; 
stroke:#585D84; stroke-width:0.0833; stroke-opacity:1; 
stroke-linecap:round; stroke-linejoin:round;">
<g transform="rotate(-90.000000 5.1188 9.5496)">
<text x="5.1188" y="10.0496"
textLength="2.1929" font-size="1.3333" lengthAdjust="spacingAndGlyphs"
text-anchor="middle" opacity="0" stroke-opacity="0">MP</text>
</g>
<g class="stroked-text"><desc>MP</desc>
<path d="M5.5771 10.3829
L4.5771 10.3829
" />
<path d="M4.5771 10.3829
L5.2914 10.0496
" />
<path d="M5.2914 10.0496
L4.5771 9.7163
" />
<path d="M4.5771 9.7163
L5.5771 9.7163
" />
<path d="M5.5771 9.2401
L4.5771 9.2401
" />
<path d="M4.5771 9.2401
L4.5771 8.8591
" />
<path d="M4.5771 8.8591
L4.6247 8.7639
" />
<path d="M4.6247 8.7639
L4.6723 8.7163
" />
<path d="M4.6723 8.7163
L4.7676 8.6686
" />
<path d="M4.7676 8.6686
L4.9104 8.6686
" />
<path d="M4.9104 8.6686
L5.0057 8.7163
" />
<path d="M5.0057 8.7163
L5.0533 8.7639
" />
<path d="M5.0533 8.7639
L5.1009 8.8591
" />
<path d="M5.1009 8.8591
L5.1009 9.2401
" />
</g><path style="fill:none; 
stroke:#585D84; stroke-width:0.0212; stroke-opacity:1; 
stroke-linecap:round; stroke-linejoin:round;fill:none"
d="M 4.1188,8.2496
4.1340,8.1731
4.1774,8.1082
4.2423,8.0648
4.3188,8.0496
5.5188,8.0496
6.1188,8.6496
6.1188,10.4496
5.5188,11.0496
4.3188,11.0496
4.2423,11.0344
4.1774,10.9910
4.1340,10.9261
4.1188,10.8496
Z" /> 
</g>
<g style="fill:none; 
stroke:#585D84; stroke-width:0.0833; stroke-opacity:1; 
stroke-linecap:round; stroke-linejoin:round;">
<g transform="rotate(-90.000000 16.1788 9.5496)">
<text x="16.1788" y="10.0496"
textLength="2.1929" font-size="1.3333" lengthAdjust="spacingAndGlyphs"
text-anchor="middle" opacity="0" stroke-opacity="0">MP</text>
</g>
<g class="stroked-text"><desc>MP</desc>
<path d="M16.6371 10.3829
L15.6371 10.3829
" />
<path d="M15.6371 10.3829
L16.3514 10.0496
" />
<path d="M16.3514 10.0496
L15.6371 9.7163
" />
<path d="M15.6371 9.7163
L16.6371 9.7163
" />
<path d="M16.6371 9.2401
L15.6371 9.2401
" />
<path d="M15.6371 9.2401
L15.6371 8.8591
" />
<path d="M15.6371 8.8591
L15.6847 8.7639
" />
<path d="M15.6847 8.7639
L15.7323 8.7163
" />
<path d="M15.7323 8.7163
L15.8276 8.6686
" />
<path d="M15.8276 8.6686
L15.9704 8.6686
" />
<path d="M15.9704 8.6686
L16.0657 8.7163
" />
<path d="M16.0657 8.7163
L16.1133 8.7639
" />
<path d="M16.1133 8.7639
L16.1609 8.8591
" />
<path d="M16.1609 8.8591
L16.1609 9.2401
" />
</g><path style="fill:none; 
stroke:#585D84; stroke-width:0.0212; stroke-opacity:1; 
stroke-linecap:round; stroke-linejoin:round;fill:none"
d="M 15.1788,10.4496
15.1788,8.7896
16.0588,8.0496
16.5788,8.0496
17.1788,8.6496
17.1788,10.8496
17.1588,10.9296
17.1188,10.9896
17.0588,11.0296
16.9788,11.0496
15.7788,11.0496
Z" /> 
</g>
<g style="fill:none; 
stroke:#585D84; stroke-width:0.0389; stroke-opacity:1; 
stroke-linecap:round; stroke-linejoin:round;">
<text x="13.1488" y="2.4829"
textLength="0.9122" font-size="0.6222" lengthAdjust="spacingAndGlyphs"
text-anchor="middle" opacity="0" stroke-opacity="0">S1</text>
<g class="stroked-text"><desc>S1</desc>
<path d="M12.7933 2.4412
L12.8599 2.4635
" />
<path d="M12.8599 2.4635
L12.9710 2.4635
" />
<path d="M12.9710 2.4635
L13.0155 2.4412
" />
<path d="M13.0155 2.4412
L13.0377 2.4190
" />
<path d="M13.0377 2.4190
L13.0599 2.3746
" />
<path d="M13.0599 2.3746
L13.0599 2.3301
" />
<path d="M13.0599 2.3301
L13.0377 2.2857
" />
<path d="M13.0377 2.2857
L13.0155 2.2635
" />
<path d="M13.0155 2.2635
L12.9710 2.2412
" />
<path d="M12.9710 2.2412
L12.8821 2.2190
" />
<path d="M12.8821 2.2190
L12.8377 2.1968
" />
<path d="M12.8377 2.1968
L12.8155 2.1746
" />
<path d="M12.8155 2.1746
L12.7933 2.1301
" />
<path d="M12.7933 2.1301
L12.7933 2.0857
" />
<path d="M12.7933 2.0857
L12.8155 2.0412
" />
<path d="M12.8155 2.0412
L12.8377 2.0190
" />
<path d="M12.8377 2.0190
L12.8821 1.9968
" />
<path d="M12.8821 1.9968
L12.9933 1.9968
" />
<path d="M12.9933 1.9968
L13.0599 2.0190
" />
<path d="M13.5044 2.4635
L13.2377 2.4635
" />
<path d="M13.3710 2.4635
L13.3710 1.9968
" />
<path d="M13.3710 1.9968
L13.3266 2.0635
" />
<path d="M13.3266 2.0635
L13.2821 2.1079
" />
<path d="M13.2821 2.1079
L13.2377 2.1301
" />
</g></g>
<g style="fill:none; 
stroke:#585D84; stroke-width:0.0212; stroke-opacity:1; 
stroke-linecap:round; stroke-linejoin:round;">
<path d="M13.3488 1.7496
L12.9488 1.7496
" />
<path d="M12.9488 1.7496 A0.5000 0.5000 0.0 0 0 12.9488 2.7496" />
<path d="M12.9488 2.7496
L13.3488 2.7496
" />
<path d="M13.3488 2.7496 A0.5000 0.5000 0.0 0 0 13.3488 1.7496" />
</g>
<g style="fill:none; 
stroke:#585D84; stroke-width:0.0389; stroke-opacity:1; 
stroke-linecap:round; stroke-linejoin:round;">
<text x="8.1488" y="2.4829"
textLength="0.9122" font-size="0.6222" lengthAdjust="spacingAndGlyphs"
text-anchor="middle" opacity="0" stroke-opacity="0">S2</text>
<g class="stroked-text"><desc>S2</desc>
<path d="M7.7933 2.4412
L7.8599 2.4635
" />
<path d="M7.8599 2.4635
L7.9710 2.4635
" />
<path d="M7.9710 2.4635
L8.0155 2.4412
" />
<path d="M8.0155 2.4412
L8.0377 2.4190
" />
<path d="M8.0377 2.4190
L8.0599 2.3746
" />
<path d="M8.0599 2.3746
L8.0599 2.3301
" />
<path d="M8.0599 2.3301
L8.0377 2.2857
" />
<path d="M8.0377 2.2857
L8.0155 2.2635
" />
<path d="M8.0155 2.2635
L7.9710 2.2412
" />
<path d="M7.9710 2.2412
L7.8821 2.2190
" />
<path d="M7.8821 2.2190
L7.8377 2.1968
" />
<path d="M7.8377 2.1968
L7.8155 2.1746
" />
<path d="M7.8155 2.1746
L7.7933 2.1301
" />
<path d="M7.7933 2.1301
L7.7933 2.0857
" />
<path d="M7.7933 2.0857
L7.8155 2.0412
" />
<path d="M7.8155 2.0412
L7.8377 2.0190
" />
<path d="M7.8377 2.0190
L7.8821 1.9968
" />
<path d="M7.8821 1.9968
L7.9933 1.9968
" />
<path d="M7.9933 1.9968
L8.0599 2.0190
" />
<path d="M8.2377 2.0412
L8.2599 2.0190
" />
<path d="M8.2599 2.0190
L8.3044 1.9968
" />
<path d="M8.3044 1.9968
L8.4155 1.9968
" />
<path d="M8.4155 1.9968
L8.4599 2.0190
" />
<path d="M8.4599 2.0190
L8.4821 2.0412
" />
<path d="M8.4821 2.0412
L8.5044 2.0857
" />
<path d="M8.5044 2.0857
L8.5044 2.1301
" />
<path d="M8.5044 2.1301
L8.4821 2.1968
" />
<path d="M8.4821 2.1968
L8.2155 2.4635
" />
<path d="M8.2155 2.4635
L8.5044 2.4635
" />
</g></g>
<g style="fill:none; 
stroke:#585D84; stroke-width:0.0212; stroke-opacity:1; 
stroke-linecap:round; stroke-linejoin:round;">
<path d="M8.3488 1.7496
L7.9488 1.7496
" />
<path d="M7.9488 1.7496 A0.5000 0.5000 0.0 0 0 7.9488 2.7496" />
<path d="M7.9488 2.7496
L8.3488 2.7496
" />
<path d="M8.3488 2.7496 A0.5000 0.5000 0.0 0 0 8.3488 1.7496" />
</g>
<g style="fill:none; 
stroke:#AFAFAF; stroke-width:0.1500; stroke-opacity:1; 
stroke-linecap:round; stroke-linejoin:round;">
<text x="10.6488" y="19.4750"
textLength="21.2976" font-size="1.3333" lengthAdjust="spacingAndGlyphs"
text-anchor="middle" opacity="0" stroke-opacity="0">SW_MX_EC11_HotSwap_nSilk</text>
<g class="stroked-text"><desc>SW_MX_EC11_HotSwap_nSilk</desc>
<path d="M0.3155 19.3822
L0.4583 19.4298
" />
<path d="M0.4583 19.4298
L0.6964 19.4298
" />
<path d="M0.6964 19.4298
L0.7917 19.3822
" />
<path d="M0.7917 19.3822
L0.8393 19.3346
" />
<path d="M0.8393 19.3346
L0.8869 19.2393
" />
<path d="M0.8869 19.2393
L0.8869 19.1441
" />
<path d="M0.8869 19.1441
L0.8393 19.0489
" />
<path d="M0.8393 19.0489
L0.7917 19.0012
" />
<path d="M0.7917 19.0012
L0.6964 18.9536
" />
<path d="M0.6964 18.9536
L0.5060 18.9060
" />
<path d="M0.5060 18.9060
L0.4107 18.8584
" />
<path d="M0.4107 18.8584
L0.3631 18.8108
" />
<path d="M0.3631 18.8108
L0.3155 18.7155
" />
<path d="M0.3155 18.7155
L0.3155 18.6203
" />
<path d="M0.3155 18.6203
L0.3631 18.5251
" />
<path d="M0.3631 18.5251
L0.4107 18.4774
" />
<path d="M0.4107 18.4774
L0.5060 18.4298
" />
<path d="M0.5060 18.4298
L0.7440 18.4298
" />
<path d="M0.7440 18.4298
L0.8869 18.4774
" />
<path d="M1.2202 18.4298
L1.4583 19.4298
" />
<path d="M1.4583 19.4298
L1.6488 18.7155
" />
<path d="M1.6488 18.7155
L1.8393 19.4298
" />
<path d="M1.8393 19.4298
L2.0774 18.4298
" />
<path d="M2.2202 19.5251
L2.9821 19.5251
" />
<path d="M3.2202 19.4298
L3.2202 18.4298
" />
<path d="M3.2202 18.4298
L3.5536 19.1441
" />
<path d="M3.5536 19.1441
L3.8869 18.4298
" />
<path d="M3.8869 18.4298
L3.8869 19.4298
" />
<path d="M4.2679 18.4298
L4.9345 19.4298
" />
<path d="M4.9345 18.4298
L4.2679 19.4298
" />
<path d="M5.0774 19.5251
L5.8393 19.5251
" />
<path d="M6.0774 18.9060
L6.4107 18.9060
" />
<path d="M6.5536 19.4298
L6.0774 19.4298
" />
<path d="M6.0774 19.4298
L6.0774 18.4298
" />
<path d="M6.0774 18.4298
L6.5536 18.4298
" />
<path d="M7.5536 19.3346
L7.5060 19.3822
" />
<path d="M7.5060 19.3822
L7.3631 19.4298
" />
<path d="M7.3631 19.4298
L7.2679 19.4298
" />
<path d="M7.2679 19.4298
L7.1250 19.3822
" />
<path d="M7.1250 19.3822
L7.0298 19.2870
" />
<path d="M7.0298 19.2870
L6.9821 19.1917
" />
<path d="M6.9821 19.1917
L6.9345 19.0012
" />
<path d="M6.9345 19.0012
L6.9345 18.8584
" />
<path d="M6.9345 18.8584
L6.9821 18.6679
" />
<path d="M6.9821 18.6679
L7.0298 18.5727
" />
<path d="M7.0298 18.5727
L7.1250 18.4774
" />
<path d="M7.1250 18.4774
L7.2679 18.4298
" />
<path d="M7.2679 18.4298
L7.3631 18.4298
" />
<path d="M7.3631 18.4298
L7.5060 18.4774
" />
<path d="M7.5060 18.4774
L7.5536 18.5251
" />
<path d="M8.5060 19.4298
L7.9345 19.4298
" />
<path d="M8.2202 19.4298
L8.2202 18.4298
" />
<path d="M8.2202 18.4298
L8.1250 18.5727
" />
<path d="M8.1250 18.5727
L8.0298 18.6679
" />
<path d="M8.0298 18.6679
L7.9345 18.7155
" />
<path d="M9.4583 19.4298
L8.8869 19.4298
" />
<path d="M9.1726 19.4298
L9.1726 18.4298
" />
<path d="M9.1726 18.4298
L9.0774 18.5727
" />
<path d="M9.0774 18.5727
L8.9821 18.6679
" />
<path d="M8.9821 18.6679
L8.8869 18.7155
" />
<path d="M9.6488 19.5251
L10.4107 19.5251
" />
<path d="M10.6488 19.4298
L10.6488 18.4298
" />
<path d="M10.6488 18.9060
L11.2202 18.9060
" />
<path d="M11.2202 19.4298
L11.2202 18.4298
" />
<path d="M11.8393 19.4298
L11.7440 19.3822
" />
<path d="M11.7440 19.3822
L11.6964 19.3346
" />
<path d="M11.6964 19.3346
L11.6488 19.2393
" />
<path d="M11.6488 19.2393
L11.6488 18.9536
" />
<path d="M11.6488 18.9536
L11.6964 18.8584
" />
<path d="M11.6964 18.8584
L11.7440 18.8108
" />
<path d="M11.7440 18.8108
L11.8393 18.7632
" />
<path d="M11.8393 18.7632
L11.9821 18.7632
" />
<path d="M11.9821 18.7632
L12.0774 18.8108
" />
<path d="M12.0774 18.8108
L12.1250 18.8584
" />
<path d="M12.1250 18.8584
L12.1726 18.9536
" />
<path d="M12.1726 18.9536
L12.1726 19.2393
" />
<path d="M12.1726 19.2393
L12.1250 19.3346
" />
<path d="M12.1250 19.3346
L12.0774 19.3822
" />
<path d="M12.0774 19.3822
L11.9821 19.4298
" />
<path d="M11.9821 19.4298
L11.8393 19.4298
" />
<path d="M12.4583 18.7632
L12.8393 18.7632
" />
<path d="M12.6012 18.4298
L12.6012 19.2870
" />
<path d="M12.6012 19.2870
L12.6488 19.3822
" />
<path d="M12.6488 19.3822
L12.7440 19.4298
" />
<path d="M12.7440 19.4298
L12.8393 19.4298
" />
<path d="M13.1250 19.3822
L13.2679 19.4298
" />
<path d="M13.2679 19.4298
L13.5060 19.4298
" />
<path d="M13.5060 19.4298
L13.6012 19.3822
" />
<path d="M13.6012 19.3822
L13.6488 19.3346
" />
<path d="M13.6488 19.3346
L13.6964 19.2393
" />
<path d="M13.6964 19.2393
L13.6964 19.1441
" />
<path d="M13.6964 19.1441
L13.6488 19.0489
" />
<path d="M13.6488 19.0489
L13.6012 19.0012
" />
<path d="M13.6012 19.0012
L13.5060 18.9536
" />
<path d="M13.5060 18.9536
L13.3155 18.9060
" />
<path d="M13.3155 18.9060
L13.2202 18.8584
" />
<path d="M13.2202 18.8584
L13.1726 18.8108
" />
<path d="M13.1726 18.8108
L13.1250 18.7155
" />
<path d="M13.1250 18.7155
L13.1250 18.6203
" />
<path d="M13.1250 18.6203
L13.1726 18.5251
" />
<path d="M13.1726 18.5251
L13.2202 18.4774
" />
<path d="M13.2202 18.4774
L13.3155 18.4298
" />
<path d="M13.3155 18.4298
L13.5536 18.4298
" />
<path d="M13.5536 18.4298
L13.6964 18.4774
" />
<path d="M14.0298 18.7632
L14.2202 19.4298
" />
<path d="M14.2202 19.4298
L14.4107 18.9536
" />
<path d="M14.4107 18.9536
L14.6012 19.4298
" />
<path d="M14.6012 19.4298
L14.7917 18.7632
" />
<path d="M15.6012 19.4298
L15.6012 18.9060
" />
<path d="M15.6012 18.9060
L15.5536 18.8108
" />
<path d="M15.5536 18.8108
L15.4583 18.7632
" />
<path d="M15.4583 18.7632
L15.2679 18.7632
" />
<path d="M15.2679 18.7632
L15.1726 18.8108
" />
<path d="M15.6012 19.3822
L15.5060 19.4298
" />
<path d="M15.5060 19.4298
L15.2679 19.4298
" />
<path d="M15.2679 19.4298
L15.1726 19.3822
" />
<path d="M15.1726 19.3822
L15.1250 19.2870
" />
<path d="M15.1250 19.2870
L15.1250 19.1917
" />
<path d="M15.1250 19.1917
L15.1726 19.0965
" />
<path d="M15.1726 19.0965
L15.2679 19.0489
" />
<path d="M15.2679 19.0489
L15.5060 19.0489
" />
<path d="M15.5060 19.0489
L15.6012 19.0012
" />
<path d="M16.0774 18.7632
L16.0774 19.7632
" />
<path d="M16.0774 18.8108
L16.1726 18.7632
" />
<path d="M16.1726 18.7632
L16.3631 18.7632
" />
<path d="M16.3631 18.7632
L16.4583 18.8108
" />
<path d="M16.4583 18.8108
L16.5060 18.8584
" />
<path d="M16.5060 18.8584
L16.5536 18.9536
" />
<path d="M16.5536 18.9536
L16.5536 19.2393
" />
<path d="M16.5536 19.2393
L16.5060 19.3346
" />
<path d="M16.5060 19.3346
L16.4583 19.3822
" />
<path d="M16.4583 19.3822
L16.3631 19.4298
" />
<path d="M16.3631 19.4298
L16.1726 19.4298
" />
<path d="M16.1726 19.4298
L16.0774 19.3822
" />
<path d="M16.7440 19.5251
L17.5060 19.5251
" />
<path d="M17.7440 18.7632
L17.7440 19.4298
" />
<path d="M17.7440 18.8584
L17.7917 18.8108
" />
<path d="M17.7917 18.8108
L17.8869 18.7632
" />
<path d="M17.8869 18.7632
L18.0298 18.7632
" />
<path d="M18.0298 18.7632
L18.1250 18.8108
" />
<path d="M18.1250 18.8108
L18.1726 18.9060
" />
<path d="M18.1726 18.9060
L18.1726 19.4298
" />
<path d="M18.6012 19.3822
L18.7440 19.4298
" />
<path d="M18.7440 19.4298
L18.9821 19.4298
" />
<path d="M18.9821 19.4298
L19.0774 19.3822
" />
<path d="M19.0774 19.3822
L19.1250 19.3346
" />
<path d="M19.1250 19.3346
L19.1726 19.2393
" />
<path d="M19.1726 19.2393
L19.1726 19.1441
" />
<path d="M19.1726 19.1441
L19.1250 19.0489
" />
<path d="M19.1250 19.0489
L19.0774 19.0012
" />
<path d="M19.0774 19.0012
L18.9821 18.9536
" />
<path d="M18.9821 18.9536
L18.7917 18.9060
" />
<path d="M18.7917 18.9060
L18.6964 18.8584
" />
<path d="M18.6964 18.8584
L18.6488 18.8108
" />
<path d="M18.6488 18.8108
L18.6012 18.7155
" />
<path d="M18.6012 18.7155
L18.6012 18.6203
" />
<path d="M18.6012 18.6203
L18.6488 18.5251
" />
<path d="M18.6488 18.5251
L18.6964 18.4774
" />
<path d="M18.6964 18.4774
L18.7917 18.4298
" />
<path d="M18.7917 18.4298
L19.0298 18.4298
" />
<path d="M19.0298 18.4298
L19.1726 18.4774
" />
<path d="M19.6012 19.4298
L19.6012 18.7632
" />
<path d="M19.6012 18.4298
L19.5536 18.4774
" />
<path d="M19.5536 18.4774
L19.6012 18.5251
" />
<path d="M19.6012 18.5251
L19.6488 18.4774
" />
<path d="M19.6488 18.4774
L19.6012 18.4298
" />
<path d="M19.6012 18.4298
L19.6012 18.5251
" />
<path d="M20.2202 19.4298
L20.1250 19.3822
" />
<path d="M20.1250 19.3822
L20.0774 19.2870
" />
<path d="M20.0774 19.2870
L20.0774 18.4298
" />
<path d="M20.6012 19.4298
L20.6012 18.4298
" />
<path d="M20.6964 19.0489
L20.9821 19.4298
" />
<path d="M20.9821 18.7632
L20.6012 19.1441
" />
</g><text x="10.6488" y="21.0750"
textLength="4.5357" font-size="1.3333" lengthAdjust="spacingAndGlyphs"
text-anchor="middle" opacity="0" stroke-opacity="0">REF**</text>
<g class="stroked-text"><desc>REF**</desc>
<path d="M9.3155 21.0298
L8.9821 20.5536
" />
<path d="M8.7440 21.0298
L8.7440 20.0298
" />
<path d="M8.7440 20.0298
L9.1250 20.0298
" />
<path d="M9.1250 20.0298
L9.2202 20.0774
" />
<path d="M9.2202 20.0774
L9.2679 20.1251
" />
<path d="M9.2679 20.1251
L9.3155 20.2203
" />
<path d="M9.3155 20.2203
L9.3155 20.3632
" />
<path d="M9.3155 20.3632
L9.2679 20.4584
" />
<path d="M9.2679 20.4584
L9.2202 20.5060
" />
<path d="M9.2202 20.5060
L9.1250 20.5536
" />
<path d="M9.1250 20.5536
L8.7440 20.5536
" />
<path d="M9.7440 20.5060
L10.0774 20.5060
" />
<path d="M10.2202 21.0298
L9.7440 21.0298
" />
<path d="M9.7440 21.0298
L9.7440 20.0298
" />
<path d="M9.7440 20.0298
L10.2202 20.0298
" />
<path d="M10.9821 20.5060
L10.6488 20.5060
" />
<path d="M10.6488 21.0298
L10.6488 20.0298
" />
<path d="M10.6488 20.0298
L11.1250 20.0298
" />
<path d="M11.6488 20.0298
L11.6488 20.2679
" />
<path d="M11.4107 20.1727
L11.6488 20.2679
" />
<path d="M11.6488 20.2679
L11.8869 20.1727
" />
<path d="M11.5060 20.4584
L11.6488 20.2679
" />
<path d="M11.6488 20.2679
L11.7917 20.4584
" />
<path d="M12.4107 20.0298
L12.4107 20.2679
" />
<path d="M12.1726 20.1727
L12.4107 20.2679
" />
<path d="M12.4107 20.2679
L12.6488 20.1727
" />
<path d="M12.2679 20.4584
L12.4107 20.2679
" />
<path d="M12.4107 20.2679
L12.5536 20.4584
" />
</g></g>
<g style="fill:none; 
stroke:#AFAFAF; stroke-width:0.1000; stroke-opacity:1; 
stroke-linecap:round; stroke-linejoin:round;">
<path d="M3.0288 3.2250
L3.0288 5.7650
" />
<path d="M3.0288 5.7650
L5.5688 5.7650
" />
<path d="M5.5688 2.5900
L5.5688 7.0350
" />
<path d="M5.5688 3.2250
L3.0288 3.2250
" />
<path d="M5.5688 7.0350
L10.6488 7.0350
" />
<path d="M14.4588 2.5900
L5.5688 2.5900
" />
<path d="M16.9988 8.3050
L19.5388 8.3050
" />
<path d="M16.9988 8.9400
L13.1888 8.9400
" />
<path d="M16.9988 8.9400
L16.9988 5.1300
" />
<path d="M19.5388 5.7650
L16.9988 5.7650
" />
<path d="M19.5388 8.3050
L19.5388 5.7650
" />
<path style="fill:none; 
stroke:#AFAFAF; stroke-width:0.1000; stroke-opacity:1; 
stroke-linecap:round; stroke-linejoin:round;fill:none"
d="M 8.8988,13.1550
12.3988,13.1550
12.3988,16.1550
8.8988,16.1550
Z" /> 
<path d="M13.1130 8.9590 A2.5400 2.5400 0.0 0 0 10.6488 7.0350" />
<path d="M16.9988 5.1300 A2.5400 2.5400 0.0 0 0 14.4588 2.5900" />
</g>
<g style="fill:none; 
stroke:#AFAFAF; stroke-width:0.0212; stroke-opacity:1; 
stroke-linecap:round; stroke-linejoin:round;">
<circle cx="8.1088" cy="4.4950" r="1.5000" /> 
</g>
<g style="fill:none; 
stroke:#AFAFAF; stroke-width:0.0212; stroke-opacity:1; 
stroke-linecap:round; stroke-linejoin:round;">
<circle cx="10.6488" cy="9.5496" r="2.0000" /> 
</g>
<g style="fill:none; 
stroke:#AFAFAF; stroke-width:0.0212; stroke-opacity:1; 
stroke-linecap:round; stroke-linejoin:round;">
<circle cx="14.4588" cy="7.0350" r="1.5000" /> 
</g>
<g style="fill:none; 
stroke:#AFAFAF; stroke-width:0.0389; stroke-opacity:1; 
stroke-linecap:round; stroke-linejoin:round;">
<text x="13.1488" y="17.3083"
textLength="0.4233" font-size="0.6222" lengthAdjust="spacingAndGlyphs"
text-anchor="middle" opacity="0" stroke-opacity="0">A</text>
<g class="stroked-text"><desc>A</desc>
<path d="M13.0377 17.1555
L13.2599 17.1555
" />
<path d="M12.9933 17.2889
L13.1488 16.8222
" />
<path d="M13.1488 16.8222
L13.3044 17.2889
" />
</g></g>
<g style="fill:none; 
stroke:#AFAFAF; stroke-width:0.0212; stroke-opacity:1; 
stroke-linecap:round; stroke-linejoin:round;">
<path d="M13.3488 16.5750
L12.9488 16.5750
" />
<path d="M12.9488 16.5750 A0.5000 0.5000 0.0 0 0 12.9488 17.5750" />
<path d="M12.9488 17.5750
L13.3488 17.5750
" />
<path d="M13.3488 17.5750 A0.5000 0.5000 0.0 0 0 13.3488 16.5750" />
</g>
<g style="fill:none; 
stroke:#AFAFAF; stroke-width:0.0389; stroke-opacity:1; 
stroke-linecap:round; stroke-linejoin:round;">
<text x="8.1488" y="17.3083"
textLength="0.4900" font-size="0.6222" lengthAdjust="spacingAndGlyphs"
text-anchor="middle" opacity="0" stroke-opacity="0">B</text>
<g class="stroked-text"><desc>B</desc>
<path d="M8.1821 17.0444
L8.2488 17.0666
" />
<path d="M8.2488 17.0666
L8.2710 17.0889
" />
<path d="M8.2710 17.0889
L8.2933 17.1333
" />
<path d="M8.2933 17.1333
L8.2933 17.2000
" />
<path d="M8.2933 17.2000
L8.2710 17.2444
" />
<path d="M8.2710 17.2444
L8.2488 17.2666
" />
<path d="M8.2488 17.2666
L8.2044 17.2889
" />
<path d="M8.2044 17.2889
L8.0266 17.2889
" />
<path d="M8.0266 17.2889
L8.0266 16.8222
" />
<path d="M8.0266 16.8222
L8.1821 16.8222
" />
<path d="M8.1821 16.8222
L8.2266 16.8444
" />
<path d="M8.2266 16.8444
L8.2488 16.8666
" />
<path d="M8.2488 16.8666
L8.2710 16.9111
" />
<path d="M8.2710 16.9111
L8.2710 16.9555
" />
<path d="M8.2710 16.9555
L8.2488 17.0000
" />
<path d="M8.2488 17.0000
L8.2266 17.0222
" />
<path d="M8.2266 17.0222
L8.1821 17.0444
" />
<path d="M8.1821 17.0444
L8.0266 17.0444
" />
</g></g>
<g style="fill:none; 
stroke:#AFAFAF; stroke-width:0.0212; stroke-opacity:1; 
stroke-linecap:round; stroke-linejoin:round;">
<path d="M8.3488 16.5750
L7.9488 16.5750
" />
<path d="M7.9488 16.5750 A0.5000 0.5000 0.0 0 0 7.9488 17.5750" />
<path d="M7.9488 17.5750
L8.3488 17.5750
" />
<path d="M8.3488 17.5750 A0.5000 0.5000 0.0 0 0 8.3488 16.5750" />
</g>
<g style="fill:none; 
stroke:#AFAFAF; stroke-width:0.0389; stroke-opacity:1; 
stroke-linecap:round; stroke-linejoin:round;">
<text x="10.6488" y="17.3083"
textLength="0.4900" font-size="0.6222" lengthAdjust="spacingAndGlyphs"
text-anchor="middle" opacity="0" stroke-opacity="0">C</text>
<g class="stroked-text"><desc>C</desc>
<path d="M10.7933 17.2444
L10.7710 17.2666
" />
<path d="M10.7710 17.2666
L10.7044 17.2889
" />
<path d="M10.7044 17.2889
L10.6599 17.2889
" />
<path d="M10.6599 17.2889
L10.5933 17.2666
" />
<path d="M10.5933 17.2666
L10.5488 17.2222
" />
<path d="M10.5488 17.2222
L10.5266 17.1778
" />
<path d="M10.5266 17.1778
L10.5044 17.0889
" />
<path d="M10.5044 17.0889
L10.5044 17.0222
" />
<path d="M10.5044 17.0222
L10.5266 16.9333
" />
<path d="M10.5266 16.9333
L10.5488 16.8889
" />
<path d="M10.5488 16.8889
L10.5933 16.8444
" />
<path d="M10.5933 16.8444
L10.6599 16.8222
" />
<path d="M10.6599 16.8222
L10.7044 16.8222
" />
<path d="M10.7044 16.8222
L10.7710 16.8444
" />
<path d="M10.7710 16.8444
L10.7933 16.8666
" />
</g></g>
<g style="fill:none; 
stroke:#AFAFAF; stroke-width:0.0212; stroke-opacity:1; 
stroke-linecap:round; stroke-linejoin:round;">
<path d="M10.8488 16.5750
L10.4488 16.5750
" />
<path d="M10.4488 16.5750 A0.5000 0.5000 0.0 0 0 10.4488 17.5750" />
<path d="M10.4488 17.5750
L10.8488 17.5750
" />
<path d="M10.8488 17.5750 A0.5000 0.5000 0.0 0 0 10.8488 16.5750" />
</g>
<g style="fill:none; 
stroke:#AFAFAF; stroke-width:0.0833; stroke-opacity:1; 
stroke-linecap:round; stroke-linejoin:round;">
<g transform="rotate(-90.000000 5.1188 9.5496)">
<text x="5.1188" y="10.0496"
textLength="2.1929" font-size="1.3333" lengthAdjust="spacingAndGlyphs"
text-anchor="middle" opacity="0" stroke-opacity="0">MP</text>
</g>
<g class="stroked-text"><desc>MP</desc>
<path d="M5.5771 10.3829
L4.5771 10.3829
" />
<path d="M4.5771 10.3829
L5.2914 10.0496
" />
<path d="M5.2914 10.0496
L4.5771 9.7163
" />
<path d="M4.5771 9.7163
L5.5771 9.7163
" />
<path d="M5.5771 9.2401
L4.5771 9.2401
" />
<path d="M4.5771 9.2401
L4.5771 8.8591
" />
<path d="M4.5771 8.8591
L4.6247 8.7639
" />
<path d="M4.6247 8.7639
L4.6723 8.7163
" />
<path d="M4.6723 8.7163
L4.7676 8.6686
" />
<path d="M4.7676 8.6686
L4.9104 8.6686
" />
<path d="M4.9104 8.6686
L5.0057 8.7163
" />
<path d="M5.0057 8.7163
L5.0533 8.7639
" />
<path d="M5.0533 8.7639
L5.1009 8.8591
" />
<path d="M5.1009 8.8591
L5.1009 9.2401
" />
</g><path style="fill:none; 
stroke:#AFAFAF; stroke-width:0.0212; stroke-opacity:1; 
stroke-linecap:round; stroke-linejoin:round;fill:none"
d="M 4.1188,8.2496
4.1340,8.1731
4.1774,8.1082
4.2423,8.0648
4.3188,8.0496
5.5188,8.0496
6.1188,8.6496
6.1188,10.4496
5.5188,11.0496
4.3188,11.0496
4.2423,11.0344
4.1774,10.9910
4.1340,10.9261
4.1188,10.8496
Z" /> 
</g>
<g style="fill:none; 
stroke:#AFAFAF; stroke-width:0.0833; stroke-opacity:1; 
stroke-linecap:round; stroke-linejoin:round;">
<g transform="rotate(-90.000000 16.1788 9.5496)">
<text x="16.1788" y="10.0496"
textLength="2.1929" font-size="1.3333" lengthAdjust="spacingAndGlyphs"
text-anchor="middle" opacity="0" stroke-opacity="0">MP</text>
</g>
<g class="stroked-text"><desc>MP</desc>
<path d="M16.6371 10.3829
L15.6371 10.3829
" />
<path d="M15.6371 10.3829
L16.3514 10.0496
" />
<path d="M16.3514 10.0496
L15.6371 9.7163
" />
<path d="M15.6371 9.7163
L16.6371 9.7163
" />
<path d="M16.6371 9.2401
L15.6371 9.2401
" />
<path d="M15.6371 9.2401
L15.6371 8.8591
" />
<path d="M15.6371 8.8591
L15.6847 8.7639
" />
<path d="M15.6847 8.7639
L15.7323 8.7163
" />
<path d="M15.7323 8.7163
L15.8276 8.6686
" />
<path d="M15.8276 8.6686
L15.9704 8.6686
" />
<path d="M15.9704 8.6686
L16.0657 8.7163
" />
<path d="M16.0657 8.7163
L16.1133 8.7639
" />
<path d="M16.1133 8.7639
L16.1609 8.8591
" />
<path d="M16.1609 8.8591
L16.1609 9.2401
" />
</g><path style="fill:none; 
stroke:#AFAFAF; stroke-width:0.0212; stroke-opacity:1; 
stroke-linecap:round; stroke-linejoin:round;fill:none"
d="M 15.1788,10.4496
15.1788,8.7896
16.0588,8.0496
16.5788,8.0496
17.1788,8.6496
17.1788,10.8496
17.1588,10.9296
17.1188,10.9896
17.0588,11.0296
16.9788,11.0496
15.7788,11.0496
Z" /> 
</g>
<g style="fill:none; 
stroke:#AFAFAF; stroke-width:0.0389; stroke-opacity:1; 
stroke-linecap:round; stroke-linejoin:round;">
<text x="13.1488" y="2.4829"
textLength="0.9122" font-size="0.6222" lengthAdjust="spacingAndGlyphs"
text-anchor="middle" opacity="0" stroke-opacity="0">S1</text>
<g class="stroked-text"><desc>S1</desc>
<path d="M12.7933 2.4412
L12.8599 2.4635
" />
<path d="M12.8599 2.4635
L12.9710 2.4635
" />
<path d="M12.9710 2.4635
L13.0155 2.4412
" />
<path d="M13.0155 2.4412
L13.0377 2.4190
" />
<path d="M13.0377 2.4190
L13.0599 2.3746
" />
<path d="M13.0599 2.3746
L13.0599 2.3301
" />
<path d="M13.0599 2.3301
L13.0377 2.2857
" />
<path d="M13.0377 2.2857
L13.0155 2.2635
" />
<path d="M13.0155 2.2635
L12.9710 2.2412
" />
<path d="M12.9710 2.2412
L12.8821 2.2190
" />
<path d="M12.8821 2.2190
L12.8377 2.1968
" />
<path d="M12.8377 2.1968
L12.8155 2.1746
" />
<path d="M12.8155 2.1746
L12.7933 2.1301
" />
<path d="M12.7933 2.1301
L12.7933 2.0857
" />
<path d="M12.7933 2.0857
L12.8155 2.0412
" />
<path d="M12.8155 2.0412
L12.8377 2.0190
" />
<path d="M12.8377 2.0190
L12.8821 1.9968
" />
<path d="M12.8821 1.9968
L12.9933 1.9968
" />
<path d="M12.9933 1.9968
L13.0599 2.0190
" />
<path d="M13.5044 2.4635
L13.2377 2.4635
" />
<path d="M13.3710 2.4635
L13.3710 1.9968
" />
<path d="M13.3710 1.9968
L13.3266 2.0635
" />
<path d="M13.3266 2.0635
L13.2821 2.1079
" />
<path d="M13.2821 2.1079
L13.2377 2.1301
" />
</g></g>
<g style="fill:none; 
stroke:#AFAFAF; stroke-width:0.0212; stroke-opacity:1; 
stroke-linecap:round; stroke-linejoin:round;">
<path d="M13.3488 1.7496
L12.9488 1.7496
" />
<path d="M12.9488 1.7496 A0.5000 0.5000 0.0 0 0 12.9488 2.7496" />
<path d="M12.9488 2.7496
L13.3488 2.7496
" />
<path d="M13.3488 2.7496 A0.5000 0.5000 0.0 0 0 13.3488 1.7496" />
</g>
<g style="fill:none; 
stroke:#AFAFAF; stroke-width:0.0708; stroke-opacity:1; 
stroke-linecap:round; stroke-linejoin:round;">
<text x="18.2088" y="7.4600"
textLength="1.6615" font-size="1.1333" lengthAdjust="spacingAndGlyphs"
text-anchor="middle" opacity="0" stroke-opacity="0">S1</text>
<g class="stroked-text"><desc>S1</desc>
<path d="M17.5612 7.3841
L17.6826 7.4245
" />
<path d="M17.6826 7.4245
L17.8850 7.4245
" />
<path d="M17.8850 7.4245
L17.9660 7.3841
" />
<path d="M17.9660 7.3841
L18.0064 7.3436
" />
<path d="M18.0064 7.3436
L18.0469 7.2626
" />
<path d="M18.0469 7.2626
L18.0469 7.1817
" />
<path d="M18.0469 7.1817
L18.0064 7.1007
" />
<path d="M18.0064 7.1007
L17.9660 7.0603
" />
<path d="M17.9660 7.0603
L17.8850 7.0198
" />
<path d="M17.8850 7.0198
L17.7231 6.9793
" />
<path d="M17.7231 6.9793
L17.6421 6.9388
" />
<path d="M17.6421 6.9388
L17.6017 6.8984
" />
<path d="M17.6017 6.8984
L17.5612 6.8174
" />
<path d="M17.5612 6.8174
L17.5612 6.7364
" />
<path d="M17.5612 6.7364
L17.6017 6.6555
" />
<path d="M17.6017 6.6555
L17.6421 6.6150
" />
<path d="M17.6421 6.6150
L17.7231 6.5745
" />
<path d="M17.7231 6.5745
L17.9255 6.5745
" />
<path d="M17.9255 6.5745
L18.0469 6.6150
" />
<path d="M18.8564 7.4245
L18.3707 7.4245
" />
<path d="M18.6136 7.4245
L18.6136 6.5745
" />
<path d="M18.6136 6.5745
L18.5326 6.6960
" />
<path d="M18.5326 6.6960
L18.4517 6.7769
" />
<path d="M18.4517 6.7769
L18.3707 6.8174
" />
</g><path style="fill:none; 
stroke:#AFAFAF; stroke-width:0.0212; stroke-opacity:1; 
stroke-linecap:round; stroke-linejoin:round;fill:none"
d="M 16.9338,6.0350
16.9528,5.9393
17.0070,5.8582
17.0881,5.8040
17.1838,5.7850
19.2338,5.7850
19.3295,5.8040
19.4106,5.8582
19.4648,5.9393
19.4838,6.0350
19.4838,8.0350
19.4648,8.1307
19.4106,8.2118
19.3295,8.2660
19.2338,8.2850
17.1838,8.2850
17.0881,8.2660
17.0070,8.2118
16.9528,8.1307
16.9338,8.0350
Z" /> 
</g>
<g style="fill:none; 
stroke:#AFAFAF; stroke-width:0.0708; stroke-opacity:1; 
stroke-linecap:round; stroke-linejoin:round;">
<text x="4.3588" y="4.9200"
textLength="1.6615" font-size="1.1333" lengthAdjust="spacingAndGlyphs"
text-anchor="middle" opacity="0" stroke-opacity="0">S2</text>
<g class="stroked-text"><desc>S2</desc>
<path d="M3.7112 4.8441
L3.8326 4.8845
" />
<path d="M3.8326 4.8845
L4.0350 4.8845
" />
<path d="M4.0350 4.8845
L4.1160 4.8441
" />
<path d="M4.1160 4.8441
L4.1564 4.8036
" />
<path d="M4.1564 4.8036
L4.1969 4.7226
" />
<path d="M4.1969 4.7226
L4.1969 4.6417
" />
<path d="M4.1969 4.6417
L4.1564 4.5607
" />
<path d="M4.1564 4.5607
L4.1160 4.5203
" />
<path d="M4.1160 4.5203
L4.0350 4.4798
" />
<path d="M4.0350 4.4798
L3.8731 4.4393
" />
<path d="M3.8731 4.4393
L3.7921 4.3988
" />
<path d="M3.7921 4.3988
L3.7517 4.3584
" />
<path d="M3.7517 4.3584
L3.7112 4.2774
" />
<path d="M3.7112 4.2774
L3.7112 4.1964
" />
<path d="M3.7112 4.1964
L3.7517 4.1155
" />
<path d="M3.7517 4.1155
L3.7921 4.0750
" />
<path d="M3.7921 4.0750
L3.8731 4.0345
" />
<path d="M3.8731 4.0345
L4.0755 4.0345
" />
<path d="M4.0755 4.0345
L4.1969 4.0750
" />
<path d="M4.5207 4.1155
L4.5612 4.0750
" />
<path d="M4.5612 4.0750
L4.6421 4.0345
" />
<path d="M4.6421 4.0345
L4.8445 4.0345
" />
<path d="M4.8445 4.0345
L4.9255 4.0750
" />
<path d="M4.9255 4.0750
L4.9660 4.1155
" />
<path d="M4.9660 4.1155
L5.0064 4.1964
" />
<path d="M5.0064 4.1964
L5.0064 4.2774
" />
<path d="M5.0064 4.2774
L4.9660 4.3988
" />
<path d="M4.9660 4.3988
L4.4802 4.8845
" />
<path d="M4.4802 4.8845
L5.0064 4.8845
" />
</g><path style="fill:none; 
stroke:#AFAFAF; stroke-width:0.0212; stroke-opacity:1; 
stroke-linecap:round; stroke-linejoin:round;fill:none"
d="M 3.0838,3.4950
3.1028,3.3993
3.1570,3.3182
3.2381,3.2640
3.3338,3.2450
5.3838,3.2450
5.4795,3.2640
5.5606,3.3182
5.6148,3.3993
5.6338,3.4950
5.6338,5.4950
5.6148,5.5907
5.5606,5.6718
5.4795,5.7260
5.3838,5.7450
3.3338,5.7450
3.2381,5.7260
3.1570,5.6718
3.1028,5.5907
3.0838,5.4950
Z" /> 
</g>
<g style="fill:none; 
stroke:#AFAFAF; stroke-width:0.0389; stroke-opacity:1; 
stroke-linecap:round; stroke-linejoin:round;">
<text x="8.1488" y="2.4829"
textLength="0.9122" font-size="0.6222" lengthAdjust="spacingAndGlyphs"
text-anchor="middle" opacity="0" stroke-opacity="0">S2</text>
<g class="stroked-text"><desc>S2</desc>
<path d="M7.7933 2.4412
L7.8599 2.4635
" />
<path d="M7.8599 2.4635
L7.9710 2.4635
" />
<path d="M7.9710 2.4635
L8.0155 2.4412
" />
<path d="M8.0155 2.4412
L8.0377 2.4190
" />
<path d="M8.0377 2.4190
L8.0599 2.3746
" />
<path d="M8.0599 2.3746
L8.0599 2.3301
" />
<path d="M8.0599 2.3301
L8.0377 2.2857
" />
<path d="M8.0377 2.2857
L8.0155 2.2635
" />
<path d="M8.0155 2.2635
L7.9710 2.2412
" />
<path d="M7.9710 2.2412
L7.8821 2.2190
" />
<path d="M7.8821 2.2190
L7.8377 2.1968
" />
<path d="M7.8377 2.1968
L7.8155 2.1746
" />
<path d="M7.8155 2.1746
L7.7933 2.1301
" />
<path d="M7.7933 2.1301
L7.7933 2.0857
" />
<path d="M7.7933 2.0857
L7.8155 2.0412
" />
<path d="M7.8155 2.0412
L7.8377 2.0190
" />
<path d="M7.8377 2.0190
L7.8821 1.9968
" />
<path d="M7.8821 1.9968
L7.9933 1.9968
" />
<path d="M7.9933 1.9968
L8.0599 2.0190
" />
<path d="M8.2377 2.0412
L8.2599 2.0190
" />
<path d="M8.2599 2.0190
L8.3044 1.9968
" />
<path d="M8.3044 1.9968
L8.4155 1.9968
" />
<path d="M8.4155 1.9968
L8.4599 2.0190
" />
<path d="M8.4599 2.0190
L8.4821 2.0412
" />
<path d="M8.4821 2.0412
L8.5044 2.0857
" />
<path d="M8.5044 2.0857
L8.5044 2.1301
" />
<path d="M8.5044 2.1301
L8.4821 2.1968
" />
<path d="M8.4821 2.1968
L8.2155 2.4635
" />
<path d="M8.2155 2.4635
L8.5044 2.4635
" />
</g></g>
<g style="fill:none; 
stroke:#AFAFAF; stroke-width:0.0212; stroke-opacity:1; 
stroke-linecap:round; stroke-linejoin:round;">
<path d="M8.3488 1.7496
L7.9488 1.7496
" />
<path d="M7.9488 1.7496 A0.5000 0.5000 0.0 0 0 7.9488 2.7496" />
<path d="M7.9488 2.7496
L8.3488 2.7496
" />
<path d="M8.3488 2.7496 A0.5000 0.5000 0.0 0 0 8.3488 1.7496" />
<path style="fill:none; 
stroke:#C2C2C2; stroke-width:0.1000; stroke-opacity:1; 
stroke-linecap:round; stroke-linejoin:round;fill:none"
d="M 1.1238,0.0500
20.1738,0.0500
20.1738,19.1000
1.1238,19.1000
Z" /> 
</g> 
</svg>
