<svg xmlns="http://www.w3.org/2000/svg" width="72.288" height="80.928" viewBox="0 0 19.126 21.412">
    <g class="stroked-text" style="fill:none;stroke:#e8b2a7;stroke-width:.15;stroke-opacity:1;stroke-linecap:round;stroke-linejoin:round">
        <path d="m10.908 7.03.334-.476M11.48 7.03v-1M11.48 6.03h-.381M11.099 6.03l-.095.047M11.004 6.077l-.048.048M10.956 6.125l-.048.095M10.908 6.22v.143M10.908 6.363l.048.095M10.956 6.458l.048.048M11.004 6.506l.095.048M11.099 6.554h.38M10.48 6.506h-.334M10.004 7.03h.476M10.48 7.03v-1M10.48 6.03h-.476M9.242 6.506h.333M9.575 7.03v-1M9.575 6.03h-.476M8.575 6.03v.238M8.813 6.173l-.238.095M8.575 6.268l-.238-.095M8.718 6.458l-.143-.19M8.575 6.268l-.143.19M7.813 6.03v.238M8.051 6.173l-.238.095M7.813 6.268l-.238-.095M7.956 6.458l-.143-.19M7.813 6.268l-.143.19"/>
    </g>
    <g style="fill:none;stroke:#f2eda1;stroke-width:.12;stroke-opacity:1;stroke-linecap:round;stroke-linejoin:round">
        <path d="M2.475 16.275v-13.4M2.875 2.475h13.4M2.875 16.675h3.3M7.975 16.675h.7M10.475 16.675h.7M12.975 16.675h3.3M16.675 2.875v13.4M2.875 2.475a.4.4 0 0 0-.4.4M2.475 16.275a.4.4 0 0 0 .4.4M16.675 2.875a.4.4 0 0 0-.4-.4M16.275 16.675a.4.4 0 0 0 .4-.4"/>
    </g>
    <circle cx="7.075" cy="17.075" r=".6" style="fill:#4d7fc4;fill-opacity:1;stroke:none"/>
    <circle cx="12.075" cy="17.075" r=".6" style="fill:#4d7fc4;fill-opacity:1;stroke:none"/>
    <g style="fill:#4d7fc4;fill-opacity:1;stroke:none">
        <circle cx="9.575" cy="17.075" r=".6"/>
        <path d="m3.045 8.325.019-.096.054-.08.081-.055.096-.019h1.5l.75.75v1.5l-.75.75h-1.5l-.096-.019-.08-.054-.055-.081-.019-.096ZM16.105 10.825l-.019.096-.054.08-.081.055-.096.019h-1.75l-.5-.5v-2l.5-.5h1.75l.096.019.08.054.055.081.019.096Z" style="fill:#4d7fc4;fill-opacity:1;stroke:none;fill-rule:evenodd"/>
    </g>
    <circle cx="5.765" cy="7.035" r="1.15" style="fill:#4d7fc4;fill-opacity:1;stroke:none"/>
    <circle cx="7.075" cy="2.575" r=".6" style="fill:#4d7fc4;fill-opacity:1;stroke:none"/>
    <circle cx="12.075" cy="2.575" r=".6" style="fill:#4d7fc4;fill-opacity:1;stroke:none"/>
    <circle cx="12.115" cy="4.495" r="1.15" style="fill:#4d7fc4;fill-opacity:1;stroke:none"/>
    <circle cx="7.075" cy="17.075" r=".6" style="fill:#c83434;fill-opacity:1;stroke:none"/>
    <circle cx="12.075" cy="17.075" r=".6" style="fill:#c83434;fill-opacity:1;stroke:none"/>
    <g style="fill:#c83434;fill-opacity:1;stroke:none">
        <circle cx="9.575" cy="17.075" r=".6"/>
        <path d="m3.045 8.325.019-.096.054-.08.081-.055.096-.019h1.5l.75.75v1.5l-.75.75h-1.5l-.096-.019-.08-.054-.055-.081-.019-.096ZM16.105 10.825l-.019.096-.054.08-.081.055-.096.019h-1.75l-.5-.5v-2l.5-.5h1.75l.096.019.08.054.055.081.019.096Z" style="fill:#c83434;fill-opacity:1;stroke:none;fill-rule:evenodd"/>
    </g>
    <circle cx="5.765" cy="7.035" r="1.15" style="fill:#c83434;fill-opacity:1;stroke:none"/>
    <circle cx="7.075" cy="2.575" r=".6" style="fill:#c83434;fill-opacity:1;stroke:none"/>
    <circle cx="12.075" cy="2.575" r=".6" style="fill:#c83434;fill-opacity:1;stroke:none"/>
    <circle cx="12.115" cy="4.495" r="1.15" style="fill:#c83434;fill-opacity:1;stroke:none"/>
    <circle cx="9.575" cy="9.575" r="2" style="fill:none;stroke:#585d84;stroke-width:.0212;stroke-opacity:1;stroke-linecap:round;stroke-linejoin:round"/>
    <g class="stroked-text" style="fill:none;stroke:#585d84;stroke-width:.0333;stroke-opacity:1;stroke-linecap:round;stroke-linejoin:round">
        <path d="M6.98 17.144h.19M6.942 17.258l.133-.4M7.075 16.858l.133.4"/>
    </g>
    <circle cx="7.075" cy="17.075" r=".6" style="fill:none;stroke:#585d84;stroke-width:.0212;stroke-opacity:1;stroke-linecap:round;stroke-linejoin:round"/>
    <g class="stroked-text" style="fill:none;stroke:#585d84;stroke-width:.0333;stroke-opacity:1;stroke-linecap:round;stroke-linejoin:round">
        <path d="m12.104 17.049.057.019M12.16 17.068l.02.019M12.18 17.087l.019.038M12.199 17.125v.057M12.199 17.182l-.02.038M12.18 17.22l-.02.02M12.16 17.24l-.037.018M12.123 17.258h-.153M11.97 17.258v-.4M11.97 16.858h.134M12.104 16.858l.038.02M12.142 16.877l.019.02M12.16 16.896l.02.038M12.18 16.935v.038M12.18 16.973l-.02.038M12.16 17.01l-.018.02M12.142 17.03l-.038.019M12.104 17.049h-.134"/>
    </g>
    <circle cx="12.075" cy="17.075" r=".6" style="fill:none;stroke:#585d84;stroke-width:.0212;stroke-opacity:1;stroke-linecap:round;stroke-linejoin:round"/>
    <g class="stroked-text" style="fill:none;stroke:#585d84;stroke-width:.0333;stroke-opacity:1;stroke-linecap:round;stroke-linejoin:round">
        <path d="m9.699 17.22-.02.02M9.68 17.24l-.057.018M9.623 17.258h-.038M9.585 17.258l-.058-.019M9.527 17.24 9.49 17.2M9.49 17.201l-.02-.038M9.47 17.163l-.019-.076M9.451 17.087v-.057M9.451 17.03l.02-.076M9.47 16.954l.02-.038M9.49 16.916l.037-.039M9.527 16.877l.058-.019M9.585 16.858h.038M9.623 16.858l.057.02M9.68 16.877l.019.02"/>
    </g>
    <circle cx="9.575" cy="17.075" r=".6" style="fill:none;stroke:#585d84;stroke-width:.0212;stroke-opacity:1;stroke-linecap:round;stroke-linejoin:round"/>
    <g style="fill:none;stroke:#585d84;stroke-width:.0833;stroke-opacity:1;stroke-linecap:round;stroke-linejoin:round">
        <g class="stroked-text">
            <path d="M4.753 10.408h-1M3.753 10.408l.715-.333M4.468 10.075l-.715-.333M3.753 9.742h1M4.753 9.266h-1M3.753 9.266v-.382M3.753 8.885l.048-.096M3.8 8.79l.049-.048M3.849 8.742l.095-.048M3.944 8.694h.143M4.087 8.694l.095.048M4.182 8.742l.047.047M4.23 8.79l.047.095M4.277 8.885v.38"/>
        </g>
        <path d="m3.045 8.325.019-.096.054-.08.081-.055.096-.019h1.5l.75.75v1.5l-.75.75h-1.5l-.096-.019-.08-.054-.055-.081-.019-.096Z" style="stroke:#585d84;stroke-width:.0212;stroke-opacity:1;stroke-linecap:round;stroke-linejoin:round;fill:none"/>
    </g>
    <g style="fill:none;stroke:#585d84;stroke-width:.0833;stroke-opacity:1;stroke-linecap:round;stroke-linejoin:round">
        <g class="stroked-text">
            <path d="M15.313 10.408h-1M14.313 10.408l.715-.333M15.028 10.075l-.715-.333M14.313 9.742h1M15.313 9.266h-1M14.313 9.266v-.382M14.313 8.885l.048-.096M14.36 8.79l.049-.048M14.409 8.742l.095-.048M14.504 8.694h.143M14.647 8.694l.095.048M14.742 8.742l.047.047M14.79 8.79l.047.095M14.837 8.885v.38"/>
        </g>
        <path d="m16.105 10.825-.019.096-.054.08-.081.055-.096.019h-1.75l-.5-.5v-2l.5-.5h1.75l.096.019.08.054.055.081.019.096Z" style="stroke:#585d84;stroke-width:.0212;stroke-opacity:1;stroke-linecap:round;stroke-linejoin:round;fill:none"/>
    </g>
    <g class="stroked-text" style="fill:none;stroke:#585d84;stroke-width:.0639;stroke-opacity:1;stroke-linecap:round;stroke-linejoin:round">
        <path d="m5.18 7.35.11.036M5.29 7.386h.183M5.473 7.386l.073-.036M5.546 7.35l.036-.037M5.583 7.313l.036-.073M5.619 7.24v-.073M5.619 7.167l-.037-.073M5.583 7.094l-.037-.036M5.546 7.058l-.073-.037M5.473 7.021l-.146-.036M5.327 6.985l-.073-.037M5.254 6.948l-.037-.036M5.217 6.912l-.036-.073M5.18 6.839v-.073M5.18 6.766l.037-.073M5.217 6.693l.037-.037M5.254 6.656l.073-.036M5.327 6.62h.182M5.51 6.62l.109.036M6.35 7.386H5.91M6.13 7.386V6.62M6.13 6.62l-.073.11M6.057 6.73l-.073.072M5.984 6.802l-.073.037"/>
    </g>
    <circle cx="5.765" cy="7.035" r="1.15" style="fill:none;stroke:#585d84;stroke-width:.0212;stroke-opacity:1;stroke-linecap:round;stroke-linejoin:round"/>
    <g class="stroked-text" style="fill:none;stroke:#585d84;stroke-width:.0333;stroke-opacity:1;stroke-linecap:round;stroke-linejoin:round">
        <path d="m6.77 2.74.057.018M6.827 2.758h.096M6.923 2.758l.038-.019M6.96 2.74l.02-.02M6.98 2.72l.019-.038M6.999 2.682v-.038M6.999 2.644l-.02-.038M6.98 2.606l-.02-.02M6.96 2.587l-.037-.02M6.923 2.568l-.077-.02M6.846 2.549l-.038-.02M6.808 2.53l-.019-.02M6.79 2.51l-.02-.037M6.77 2.473v-.038M6.77 2.435l.02-.039M6.79 2.396l.018-.019M6.808 2.377l.038-.019M6.846 2.358h.096M6.942 2.358l.057.02M7.38 2.758H7.15M7.266 2.758v-.4M7.266 2.358l-.039.058M7.227 2.416l-.038.038M7.19 2.454l-.039.019"/>
    </g>
    <circle cx="7.075" cy="2.575" r=".6" style="fill:none;stroke:#585d84;stroke-width:.0212;stroke-opacity:1;stroke-linecap:round;stroke-linejoin:round"/>
    <g class="stroked-text" style="fill:none;stroke:#585d84;stroke-width:.0333;stroke-opacity:1;stroke-linecap:round;stroke-linejoin:round">
        <path d="m11.77 2.74.057.018M11.827 2.758h.096M11.923 2.758l.038-.019M11.96 2.74l.02-.02M11.98 2.72l.019-.038M11.999 2.682v-.038M11.999 2.644l-.02-.038M11.98 2.606l-.02-.02M11.96 2.587l-.037-.02M11.923 2.568l-.077-.02M11.846 2.549l-.038-.02M11.808 2.53l-.019-.02M11.79 2.51l-.02-.037M11.77 2.473v-.038M11.77 2.435l.02-.039M11.79 2.396l.018-.019M11.808 2.377l.038-.019M11.846 2.358h.096M11.942 2.358l.057.02M12.151 2.396l.02-.019M12.17 2.377l.038-.019M12.208 2.358h.096M12.304 2.358l.038.02M12.342 2.377l.019.02M12.36 2.396l.02.038M12.38 2.435v.038M12.38 2.473l-.02.057M12.36 2.53l-.228.228M12.132 2.758h.248"/>
    </g>
    <circle cx="12.075" cy="2.575" r=".6" style="fill:none;stroke:#585d84;stroke-width:.0212;stroke-opacity:1;stroke-linecap:round;stroke-linejoin:round"/>
    <g class="stroked-text" style="fill:none;stroke:#585d84;stroke-width:.0639;stroke-opacity:1;stroke-linecap:round;stroke-linejoin:round">
        <path d="m11.53 4.81.11.036M11.64 4.846h.183M11.823 4.846l.073-.036M11.896 4.81l.036-.037M11.933 4.773l.036-.073M11.969 4.7v-.073M11.969 4.627l-.037-.073M11.933 4.554l-.037-.036M11.896 4.518l-.073-.037M11.823 4.481l-.146-.036M11.677 4.445l-.073-.037M11.604 4.408l-.037-.036M11.567 4.372l-.036-.073M11.53 4.299v-.073M11.53 4.226l.037-.073M11.567 4.153l.037-.037M11.604 4.116l.073-.036M11.677 4.08h.182M11.86 4.08l.109.036M12.261 4.153l.037-.037M12.298 4.116l.073-.036M12.37 4.08h.183M12.553 4.08l.073.036M12.626 4.116l.037.037M12.663 4.153l.036.073M12.7 4.226v.073M12.7 4.299l-.037.11M12.663 4.408l-.438.438M12.225 4.846h.474"/>
    </g>
    <circle cx="12.115" cy="4.495" r="1.15" style="fill:none;stroke:#585d84;stroke-width:.0212;stroke-opacity:1;stroke-linecap:round;stroke-linejoin:round"/>
    <g style="fill:none;stroke:#afafaf;stroke-width:.15;stroke-opacity:1;stroke-linecap:round;stroke-linejoin:round">
        <g class="stroked-text">
            <path d="m.718 19.382.143.048M.86 19.43H1.1M1.099 19.43l.095-.048M1.194 19.382l.048-.047M1.242 19.335l.047-.096M1.29 19.24v-.096M1.29 19.144l-.048-.095M1.242 19.049 1.194 19M1.194 19.001l-.095-.047M1.099 18.954l-.19-.048M.908 18.906l-.095-.048M.813 18.858l-.047-.047M.766 18.81l-.048-.095M.718 18.716v-.096M.718 18.62l.047-.095M.766 18.525l.047-.048M.813 18.477l.095-.047M.908 18.43h.238M1.146 18.43l.143.047M1.623 18.43l.238 1M1.86 19.43l.191-.715M2.051 18.716l.19.714M2.242 19.43l.238-1M2.623 19.525h.761M3.623 19.43v-1M3.623 18.43l.333.714M3.956 19.144l.333-.714M4.29 18.43v1M4.67 18.43l.667 1M5.337 18.43l-.667 1M5.48 19.525h.762M6.48 18.906h.333M6.956 19.43H6.48M6.48 19.43v-1M6.48 18.43h.476M7.956 19.335l-.048.047M7.908 19.382l-.143.048M7.766 19.43H7.67M7.67 19.43l-.143-.048M7.527 19.382l-.095-.095M7.432 19.287l-.048-.095M7.385 19.192l-.048-.19M7.337 19.001v-.143M7.337 18.858l.048-.19M7.385 18.668l.047-.095M7.432 18.573l.095-.096M7.527 18.477l.143-.047M7.67 18.43h.096M7.766 18.43l.142.047M7.908 18.477l.048.048M8.908 19.43h-.571M8.623 19.43v-1M8.623 18.43l-.096.143M8.527 18.573l-.095.095M8.432 18.668l-.095.047M9.86 19.43h-.57M9.575 19.43v-1M9.575 18.43l-.095.143M9.48 18.573l-.096.095M9.385 18.668l-.096.047M10.051 19.525h.762M10.908 18.43h.572M11.194 19.43v-1M11.813 19.43v-1M11.813 18.906h.571M12.385 19.43v-1M12.718 18.43h.571M13.004 19.43v-1M13.385 19.525h.761M14.337 19.382l.095.048M14.432 19.43h.19M14.623 19.43l.095-.048M14.718 19.382l.047-.095M14.766 19.287v-.048M14.766 19.24l-.048-.096M14.718 19.144l-.095-.047M14.623 19.097h-.143M14.48 19.097l-.096-.048M14.385 19.049l-.048-.095M14.337 18.954v-.048M14.337 18.906l.047-.095M14.385 18.81l.095-.047M14.48 18.763h.143M14.623 18.763l.095.048M15.623 18.763v1M15.623 19.382l-.096.048M15.527 19.43h-.19M15.337 19.43l-.095-.048M15.242 19.382l-.048-.047M15.194 19.335l-.048-.096M15.146 19.24v-.286M15.146 18.954l.048-.096M15.194 18.858l.048-.047M15.242 18.81l.095-.047M15.337 18.763h.19M15.527 18.763l.096.048M16.051 19.382l.143.048M16.194 19.43h.238M16.432 19.43l.095-.048M16.527 19.382l.048-.047M16.575 19.335l.048-.096M16.623 19.24v-.096M16.623 19.144l-.048-.095M16.575 19.049 16.527 19M16.527 19.001l-.095-.047M16.432 18.954l-.19-.048M16.242 18.906l-.096-.048M16.146 18.858l-.047-.047M16.099 18.81l-.048-.095M16.051 18.716v-.096M16.051 18.62l.048-.095M16.099 18.525l.047-.048M16.146 18.477l.096-.047M16.242 18.43h.238M16.48 18.43l.143.047M17.051 19.43v-.667M17.051 18.43l-.047.047M17.004 18.477l.047.048M17.051 18.525l.048-.048M17.099 18.477l-.048-.047M17.051 18.43v.095M17.67 19.43l-.095-.048M17.575 19.382l-.048-.095M17.527 19.287v-.857M18.051 19.43v-1M18.146 19.049l.286.38M18.432 18.763l-.38.381"/>
        </g>
        <g class="stroked-text">
            <path d="m8.242 21.03-.334-.476M7.67 21.03v-1M7.67 20.03h.381M8.051 20.03l.095.047M8.146 20.077l.048.048M8.194 20.125l.048.095M8.242 20.22v.143M8.242 20.363l-.048.095M8.194 20.458l-.048.048M8.146 20.506l-.095.048M8.051 20.554h-.38M8.67 20.506h.334M9.146 21.03H8.67M8.67 21.03v-1M8.67 20.03h.476M9.908 20.506h-.333M9.575 21.03v-1M9.575 20.03h.476M10.575 20.03v.238M10.337 20.173l.238.095M10.575 20.268l.238-.095M10.432 20.458l.143-.19M10.575 20.268l.143.19M11.337 20.03v.238M11.099 20.173l.238.095M11.337 20.268l.238-.095M11.194 20.458l.143-.19M11.337 20.268l.143.19"/>
        </g>
        <path d="M2.575 2.575h14v14h-14Z" style="stroke:#afafaf;stroke-width:.1;stroke-opacity:1;stroke-linecap:round;stroke-linejoin:round;fill:none"/>
    </g>
    <circle cx="9.575" cy="9.575" r="2" style="fill:none;stroke:#afafaf;stroke-width:.0212;stroke-opacity:1;stroke-linecap:round;stroke-linejoin:round"/>
    <g class="stroked-text" style="fill:none;stroke:#afafaf;stroke-width:.0333;stroke-opacity:1;stroke-linecap:round;stroke-linejoin:round">
        <path d="M6.98 17.144h.19M6.942 17.258l.133-.4M7.075 16.858l.133.4"/>
    </g>
    <circle cx="7.075" cy="17.075" r=".6" style="fill:none;stroke:#afafaf;stroke-width:.0212;stroke-opacity:1;stroke-linecap:round;stroke-linejoin:round"/>
    <g class="stroked-text" style="fill:none;stroke:#afafaf;stroke-width:.0333;stroke-opacity:1;stroke-linecap:round;stroke-linejoin:round">
        <path d="m12.104 17.049.057.019M12.16 17.068l.02.019M12.18 17.087l.019.038M12.199 17.125v.057M12.199 17.182l-.02.038M12.18 17.22l-.02.02M12.16 17.24l-.037.018M12.123 17.258h-.153M11.97 17.258v-.4M11.97 16.858h.134M12.104 16.858l.038.02M12.142 16.877l.019.02M12.16 16.896l.02.038M12.18 16.935v.038M12.18 16.973l-.02.038M12.16 17.01l-.018.02M12.142 17.03l-.038.019M12.104 17.049h-.134"/>
    </g>
    <circle cx="12.075" cy="17.075" r=".6" style="fill:none;stroke:#afafaf;stroke-width:.0212;stroke-opacity:1;stroke-linecap:round;stroke-linejoin:round"/>
    <g class="stroked-text" style="fill:none;stroke:#afafaf;stroke-width:.0333;stroke-opacity:1;stroke-linecap:round;stroke-linejoin:round">
        <path d="m9.699 17.22-.02.02M9.68 17.24l-.057.018M9.623 17.258h-.038M9.585 17.258l-.058-.019M9.527 17.24 9.49 17.2M9.49 17.201l-.02-.038M9.47 17.163l-.019-.076M9.451 17.087v-.057M9.451 17.03l.02-.076M9.47 16.954l.02-.038M9.49 16.916l.037-.039M9.527 16.877l.058-.019M9.585 16.858h.038M9.623 16.858l.057.02M9.68 16.877l.019.02"/>
    </g>
    <circle cx="9.575" cy="17.075" r=".6" style="fill:none;stroke:#afafaf;stroke-width:.0212;stroke-opacity:1;stroke-linecap:round;stroke-linejoin:round"/>
    <g style="fill:none;stroke:#afafaf;stroke-width:.0833;stroke-opacity:1;stroke-linecap:round;stroke-linejoin:round">
        <g class="stroked-text">
            <path d="M4.753 10.408h-1M3.753 10.408l.715-.333M4.468 10.075l-.715-.333M3.753 9.742h1M4.753 9.266h-1M3.753 9.266v-.382M3.753 8.885l.048-.096M3.8 8.79l.049-.048M3.849 8.742l.095-.048M3.944 8.694h.143M4.087 8.694l.095.048M4.182 8.742l.047.047M4.23 8.79l.047.095M4.277 8.885v.38"/>
        </g>
        <path d="m3.045 8.325.019-.096.054-.08.081-.055.096-.019h1.5l.75.75v1.5l-.75.75h-1.5l-.096-.019-.08-.054-.055-.081-.019-.096Z" style="stroke:#afafaf;stroke-width:.0212;stroke-opacity:1;stroke-linecap:round;stroke-linejoin:round;fill:none"/>
    </g>
    <g style="fill:none;stroke:#afafaf;stroke-width:.0833;stroke-opacity:1;stroke-linecap:round;stroke-linejoin:round">
        <g class="stroked-text">
            <path d="M15.313 10.408h-1M14.313 10.408l.715-.333M15.028 10.075l-.715-.333M14.313 9.742h1M15.313 9.266h-1M14.313 9.266v-.382M14.313 8.885l.048-.096M14.36 8.79l.049-.048M14.409 8.742l.095-.048M14.504 8.694h.143M14.647 8.694l.095.048M14.742 8.742l.047.047M14.79 8.79l.047.095M14.837 8.885v.38"/>
        </g>
        <path d="m16.105 10.825-.019.096-.054.08-.081.055-.096.019h-1.75l-.5-.5v-2l.5-.5h1.75l.096.019.08.054.055.081.019.096Z" style="stroke:#afafaf;stroke-width:.0212;stroke-opacity:1;stroke-linecap:round;stroke-linejoin:round;fill:none"/>
    </g>
    <g class="stroked-text" style="fill:none;stroke:#afafaf;stroke-width:.0639;stroke-opacity:1;stroke-linecap:round;stroke-linejoin:round">
        <path d="m5.18 7.35.11.036M5.29 7.386h.183M5.473 7.386l.073-.036M5.546 7.35l.036-.037M5.583 7.313l.036-.073M5.619 7.24v-.073M5.619 7.167l-.037-.073M5.583 7.094l-.037-.036M5.546 7.058l-.073-.037M5.473 7.021l-.146-.036M5.327 6.985l-.073-.037M5.254 6.948l-.037-.036M5.217 6.912l-.036-.073M5.18 6.839v-.073M5.18 6.766l.037-.073M5.217 6.693l.037-.037M5.254 6.656l.073-.036M5.327 6.62h.182M5.51 6.62l.109.036M6.35 7.386H5.91M6.13 7.386V6.62M6.13 6.62l-.073.11M6.057 6.73l-.073.072M5.984 6.802l-.073.037"/>
    </g>
    <circle cx="5.765" cy="7.035" r="1.15" style="fill:none;stroke:#afafaf;stroke-width:.0212;stroke-opacity:1;stroke-linecap:round;stroke-linejoin:round"/>
    <g class="stroked-text" style="fill:none;stroke:#afafaf;stroke-width:.0333;stroke-opacity:1;stroke-linecap:round;stroke-linejoin:round">
        <path d="m6.77 2.74.057.018M6.827 2.758h.096M6.923 2.758l.038-.019M6.96 2.74l.02-.02M6.98 2.72l.019-.038M6.999 2.682v-.038M6.999 2.644l-.02-.038M6.98 2.606l-.02-.02M6.96 2.587l-.037-.02M6.923 2.568l-.077-.02M6.846 2.549l-.038-.02M6.808 2.53l-.019-.02M6.79 2.51l-.02-.037M6.77 2.473v-.038M6.77 2.435l.02-.039M6.79 2.396l.018-.019M6.808 2.377l.038-.019M6.846 2.358h.096M6.942 2.358l.057.02M7.38 2.758H7.15M7.266 2.758v-.4M7.266 2.358l-.039.058M7.227 2.416l-.038.038M7.19 2.454l-.039.019"/>
    </g>
    <circle cx="7.075" cy="2.575" r=".6" style="fill:none;stroke:#afafaf;stroke-width:.0212;stroke-opacity:1;stroke-linecap:round;stroke-linejoin:round"/>
    <g class="stroked-text" style="fill:none;stroke:#afafaf;stroke-width:.0333;stroke-opacity:1;stroke-linecap:round;stroke-linejoin:round">
        <path d="m11.77 2.74.057.018M11.827 2.758h.096M11.923 2.758l.038-.019M11.96 2.74l.02-.02M11.98 2.72l.019-.038M11.999 2.682v-.038M11.999 2.644l-.02-.038M11.98 2.606l-.02-.02M11.96 2.587l-.037-.02M11.923 2.568l-.077-.02M11.846 2.549l-.038-.02M11.808 2.53l-.019-.02M11.79 2.51l-.02-.037M11.77 2.473v-.038M11.77 2.435l.02-.039M11.79 2.396l.018-.019M11.808 2.377l.038-.019M11.846 2.358h.096M11.942 2.358l.057.02M12.151 2.396l.02-.019M12.17 2.377l.038-.019M12.208 2.358h.096M12.304 2.358l.038.02M12.342 2.377l.019.02M12.36 2.396l.02.038M12.38 2.435v.038M12.38 2.473l-.02.057M12.36 2.53l-.228.228M12.132 2.758h.248"/>
    </g>
    <circle cx="12.075" cy="2.575" r=".6" style="fill:none;stroke:#afafaf;stroke-width:.0212;stroke-opacity:1;stroke-linecap:round;stroke-linejoin:round"/>
    <g class="stroked-text" style="fill:none;stroke:#afafaf;stroke-width:.0639;stroke-opacity:1;stroke-linecap:round;stroke-linejoin:round">
        <path d="m11.53 4.81.11.036M11.64 4.846h.183M11.823 4.846l.073-.036M11.896 4.81l.036-.037M11.933 4.773l.036-.073M11.969 4.7v-.073M11.969 4.627l-.037-.073M11.933 4.554l-.037-.036M11.896 4.518l-.073-.037M11.823 4.481l-.146-.036M11.677 4.445l-.073-.037M11.604 4.408l-.037-.036M11.567 4.372l-.036-.073M11.53 4.299v-.073M11.53 4.226l.037-.073M11.567 4.153l.037-.037M11.604 4.116l.073-.036M11.677 4.08h.182M11.86 4.08l.109.036M12.261 4.153l.037-.037M12.298 4.116l.073-.036M12.37 4.08h.183M12.553 4.08l.073.036M12.626 4.116l.037.037M12.663 4.153l.036.073M12.7 4.226v.073M12.7 4.299l-.037.11M12.663 4.408l-.438.438M12.225 4.846h.474"/>
    </g>
    <g style="fill:none;stroke:#afafaf;stroke-width:.0212;stroke-opacity:1;stroke-linecap:round;stroke-linejoin:round">
        <circle cx="12.115" cy="4.495" r="1.15"/>
        <path d="M.05.05H19.1V19.1H.05Z" style="stroke:#c2c2c2;stroke-width:.1;stroke-opacity:1;stroke-linecap:round;stroke-linejoin:round;fill:none"/>
    </g>
</svg>
