<?xml version="1.0" standalone="no"?>
 <!DOCTYPE svg PUBLIC "-//W3C//DTD SVG 1.1//EN" 
 "http://www.w3.org/Graphics/SVG/1.1/DTD/svg11.dtd"> 
<svg
  xmlns:svg="http://www.w3.org/2000/svg"
  xmlns="http://www.w3.org/2000/svg"
  xmlns:xlink="http://www.w3.org/1999/xlink"
  version="1.1"
  width="19.1262mm" height="20.3200mm" viewBox="0.0000 0.0000 19.1262 20.3200">
<title>SVG Image created as SW_MX_HotSwap.svg date 2025/04/12 02:50:51 </title>
  <desc>Image generated by PCBNEW </desc>
<g style="fill:#000000; fill-opacity:1.0000;stroke:#000000; stroke-opacity:1.0000;
stroke-linecap:round; stroke-linejoin:round;"
 transform="translate(0 0) scale(1 1)">
</g>
<g style="fill:none; 
stroke:#F2EDA1; stroke-width:0.1500; stroke-opacity:1; 
stroke-linecap:round; stroke-linejoin:round;">
<text x="11.3530" y="4.9950"
textLength="4.5357" font-size="1.3333" lengthAdjust="spacingAndGlyphs"
text-anchor="middle" opacity="0" stroke-opacity="0">REF**</text>
<g class="stroked-text"><desc>REF**</desc>
<path d="M10.0197 4.9498
L9.6863 4.4736
" />
<path d="M9.4482 4.9498
L9.4482 3.9498
" />
<path d="M9.4482 3.9498
L9.8292 3.9498
" />
<path d="M9.8292 3.9498
L9.9244 3.9974
" />
<path d="M9.9244 3.9974
L9.9720 4.0451
" />
<path d="M9.9720 4.0451
L10.0197 4.1403
" />
<path d="M10.0197 4.1403
L10.0197 4.2832
" />
<path d="M10.0197 4.2832
L9.9720 4.3784
" />
<path d="M9.9720 4.3784
L9.9244 4.4260
" />
<path d="M9.9244 4.4260
L9.8292 4.4736
" />
<path d="M9.8292 4.4736
L9.4482 4.4736
" />
<path d="M10.4482 4.4260
L10.7816 4.4260
" />
<path d="M10.9244 4.9498
L10.4482 4.9498
" />
<path d="M10.4482 4.9498
L10.4482 3.9498
" />
<path d="M10.4482 3.9498
L10.9244 3.9498
" />
<path d="M11.6863 4.4260
L11.3530 4.4260
" />
<path d="M11.3530 4.9498
L11.3530 3.9498
" />
<path d="M11.3530 3.9498
L11.8292 3.9498
" />
<path d="M12.3530 3.9498
L12.3530 4.1879
" />
<path d="M12.1149 4.0927
L12.3530 4.1879
" />
<path d="M12.3530 4.1879
L12.5911 4.0927
" />
<path d="M12.2101 4.3784
L12.3530 4.1879
" />
<path d="M12.3530 4.1879
L12.4959 4.3784
" />
<path d="M13.1149 3.9498
L13.1149 4.1879
" />
<path d="M12.8768 4.0927
L13.1149 4.1879
" />
<path d="M13.1149 4.1879
L13.3530 4.0927
" />
<path d="M12.9720 4.3784
L13.1149 4.1879
" />
<path d="M13.1149 4.1879
L13.2578 4.3784
" />
</g></g>
<g style="fill:none; 
stroke:#F2EDA1; stroke-width:0.1200; stroke-opacity:1; 
stroke-linecap:round; stroke-linejoin:round;">
<path d="M4.4950 2.5900
L4.4950 2.9450
" />
<path d="M4.4950 7.0350
L4.4950 6.0450
" />
<path d="M4.4950 7.0350
L9.5750 7.0350
" />
<path d="M12.0392 8.9400
L13.7660 8.9400
" />
<path d="M13.3850 2.5900
L4.4950 2.5900
" />
<path d="M15.5750 8.9400
L15.9250 8.9400
" />
<path d="M15.9250 5.1300
L15.9250 5.4850
" />
<path d="M15.9250 8.5850
L15.9250 8.9400
" />
<path d="M12.0346 8.9412 A2.5400 2.5400 0.0 0 0 9.5750 7.0350" />
<path d="M15.9250 5.1300 A2.5400 2.5400 0.0 0 0 13.3850 2.5900" />
</g>
<g style="fill:none; 
stroke:#E8B2A7; stroke-width:0.1200; stroke-opacity:1; 
stroke-linecap:round; stroke-linejoin:round;">
<path d="M2.5750 2.5750
L2.5750 3.5750
" />
<path d="M2.5750 2.5750
L3.5750 2.5750
" />
<path d="M2.5750 16.5750
L2.5750 15.5750
" />
<path d="M3.5750 16.5750
L2.5750 16.5750
" />
<path d="M15.5750 2.5750
L16.5750 2.5750
" />
<path d="M16.5750 2.5750
L16.5750 3.5750
" />
<path d="M16.5750 15.5750
L16.5750 16.5750
" />
<path d="M16.5750 16.5750
L15.5750 16.5750
" />
<path style="fill:#B4A09A; fill-opacity:0.9000; stroke:none;fill-rule:evenodd;"
d="M 15.8600,6.0350
15.8790,5.9393
15.9332,5.8582
16.0143,5.8040
16.1100,5.7850
18.1600,5.7850
18.2557,5.8040
18.3368,5.8582
18.3910,5.9393
18.4100,6.0350
18.4100,8.0350
18.3910,8.1307
18.3368,8.2118
18.2557,8.2660
18.1600,8.2850
16.1100,8.2850
16.0143,8.2660
15.9332,8.2118
15.8790,8.1307
15.8600,8.0350
Z" /> 
<path style="fill:#B4A09A; fill-opacity:0.9000; stroke:none;fill-rule:evenodd;"
d="M 2.0100,3.4950
2.0290,3.3993
2.0832,3.3182
2.1643,3.2640
2.2600,3.2450
4.3100,3.2450
4.4057,3.2640
4.4868,3.3182
4.5410,3.3993
4.5600,3.4950
4.5600,5.4950
4.5410,5.5907
4.4868,5.6718
4.4057,5.7260
4.3100,5.7450
2.2600,5.7450
2.1643,5.7260
2.0832,5.6718
2.0290,5.5907
2.0100,5.4950
Z" /> 
<path style="fill:#C83434; fill-opacity:1.0000; stroke:none;fill-rule:evenodd;"
d="M 15.8600,6.0350
15.8790,5.9393
15.9332,5.8582
16.0143,5.8040
16.1100,5.7850
18.1600,5.7850
18.2557,5.8040
18.3368,5.8582
18.3910,5.9393
18.4100,6.0350
18.4100,8.0350
18.3910,8.1307
18.3368,8.2118
18.2557,8.2660
18.1600,8.2850
16.1100,8.2850
16.0143,8.2660
15.9332,8.2118
15.8790,8.1307
15.8600,8.0350
Z" /> 
<path style="fill:#C83434; fill-opacity:1.0000; stroke:none;fill-rule:evenodd;"
d="M 2.0100,3.4950
2.0290,3.3993
2.0832,3.3182
2.1643,3.2640
2.2600,3.2450
4.3100,3.2450
4.4057,3.2640
4.4868,3.3182
4.5410,3.3993
4.5600,3.4950
4.5600,5.4950
4.5410,5.5907
4.4868,5.6718
4.4057,5.7260
4.3100,5.7450
2.2600,5.7450
2.1643,5.7260
2.0832,5.6718
2.0290,5.5907
2.0100,5.4950
Z" /> 
</g>
<g style="fill:none; 
stroke:#AFAFAF; stroke-width:0.1500; stroke-opacity:1; 
stroke-linecap:round; stroke-linejoin:round;">
<text x="9.5750" y="18.3750"
textLength="12.2976" font-size="1.3333" lengthAdjust="spacingAndGlyphs"
text-anchor="middle" opacity="0" stroke-opacity="0">SW_MX_HotSwap</text>
<g class="stroked-text"><desc>SW_MX_HotSwap</desc>
<path d="M3.7417 18.2822
L3.8845 18.3298
" />
<path d="M3.8845 18.3298
L4.1226 18.3298
" />
<path d="M4.1226 18.3298
L4.2179 18.2822
" />
<path d="M4.2179 18.2822
L4.2655 18.2346
" />
<path d="M4.2655 18.2346
L4.3131 18.1393
" />
<path d="M4.3131 18.1393
L4.3131 18.0441
" />
<path d="M4.3131 18.0441
L4.2655 17.9489
" />
<path d="M4.2655 17.9489
L4.2179 17.9012
" />
<path d="M4.2179 17.9012
L4.1226 17.8536
" />
<path d="M4.1226 17.8536
L3.9321 17.8060
" />
<path d="M3.9321 17.8060
L3.8369 17.7584
" />
<path d="M3.8369 17.7584
L3.7893 17.7108
" />
<path d="M3.7893 17.7108
L3.7417 17.6155
" />
<path d="M3.7417 17.6155
L3.7417 17.5203
" />
<path d="M3.7417 17.5203
L3.7893 17.4251
" />
<path d="M3.7893 17.4251
L3.8369 17.3774
" />
<path d="M3.8369 17.3774
L3.9321 17.3298
" />
<path d="M3.9321 17.3298
L4.1702 17.3298
" />
<path d="M4.1702 17.3298
L4.3131 17.3774
" />
<path d="M4.6464 17.3298
L4.8845 18.3298
" />
<path d="M4.8845 18.3298
L5.0750 17.6155
" />
<path d="M5.0750 17.6155
L5.2655 18.3298
" />
<path d="M5.2655 18.3298
L5.5036 17.3298
" />
<path d="M5.6464 18.4251
L6.4083 18.4251
" />
<path d="M6.6464 18.3298
L6.6464 17.3298
" />
<path d="M6.6464 17.3298
L6.9798 18.0441
" />
<path d="M6.9798 18.0441
L7.3131 17.3298
" />
<path d="M7.3131 17.3298
L7.3131 18.3298
" />
<path d="M7.6940 17.3298
L8.3607 18.3298
" />
<path d="M8.3607 17.3298
L7.6940 18.3298
" />
<path d="M8.5036 18.4251
L9.2655 18.4251
" />
<path d="M9.5036 18.3298
L9.5036 17.3298
" />
<path d="M9.5036 17.8060
L10.0750 17.8060
" />
<path d="M10.0750 18.3298
L10.0750 17.3298
" />
<path d="M10.6940 18.3298
L10.5988 18.2822
" />
<path d="M10.5988 18.2822
L10.5512 18.2346
" />
<path d="M10.5512 18.2346
L10.5036 18.1393
" />
<path d="M10.5036 18.1393
L10.5036 17.8536
" />
<path d="M10.5036 17.8536
L10.5512 17.7584
" />
<path d="M10.5512 17.7584
L10.5988 17.7108
" />
<path d="M10.5988 17.7108
L10.6940 17.6632
" />
<path d="M10.6940 17.6632
L10.8369 17.6632
" />
<path d="M10.8369 17.6632
L10.9321 17.7108
" />
<path d="M10.9321 17.7108
L10.9798 17.7584
" />
<path d="M10.9798 17.7584
L11.0274 17.8536
" />
<path d="M11.0274 17.8536
L11.0274 18.1393
" />
<path d="M11.0274 18.1393
L10.9798 18.2346
" />
<path d="M10.9798 18.2346
L10.9321 18.2822
" />
<path d="M10.9321 18.2822
L10.8369 18.3298
" />
<path d="M10.8369 18.3298
L10.6940 18.3298
" />
<path d="M11.3131 17.6632
L11.6940 17.6632
" />
<path d="M11.4560 17.3298
L11.4560 18.1870
" />
<path d="M11.4560 18.1870
L11.5036 18.2822
" />
<path d="M11.5036 18.2822
L11.5988 18.3298
" />
<path d="M11.5988 18.3298
L11.6940 18.3298
" />
<path d="M11.9798 18.2822
L12.1226 18.3298
" />
<path d="M12.1226 18.3298
L12.3607 18.3298
" />
<path d="M12.3607 18.3298
L12.4560 18.2822
" />
<path d="M12.4560 18.2822
L12.5036 18.2346
" />
<path d="M12.5036 18.2346
L12.5512 18.1393
" />
<path d="M12.5512 18.1393
L12.5512 18.0441
" />
<path d="M12.5512 18.0441
L12.5036 17.9489
" />
<path d="M12.5036 17.9489
L12.4560 17.9012
" />
<path d="M12.4560 17.9012
L12.3607 17.8536
" />
<path d="M12.3607 17.8536
L12.1702 17.8060
" />
<path d="M12.1702 17.8060
L12.0750 17.7584
" />
<path d="M12.0750 17.7584
L12.0274 17.7108
" />
<path d="M12.0274 17.7108
L11.9798 17.6155
" />
<path d="M11.9798 17.6155
L11.9798 17.5203
" />
<path d="M11.9798 17.5203
L12.0274 17.4251
" />
<path d="M12.0274 17.4251
L12.0750 17.3774
" />
<path d="M12.0750 17.3774
L12.1702 17.3298
" />
<path d="M12.1702 17.3298
L12.4083 17.3298
" />
<path d="M12.4083 17.3298
L12.5512 17.3774
" />
<path d="M12.8845 17.6632
L13.0750 18.3298
" />
<path d="M13.0750 18.3298
L13.2655 17.8536
" />
<path d="M13.2655 17.8536
L13.4560 18.3298
" />
<path d="M13.4560 18.3298
L13.6464 17.6632
" />
<path d="M14.4560 18.3298
L14.4560 17.8060
" />
<path d="M14.4560 17.8060
L14.4083 17.7108
" />
<path d="M14.4083 17.7108
L14.3131 17.6632
" />
<path d="M14.3131 17.6632
L14.1226 17.6632
" />
<path d="M14.1226 17.6632
L14.0274 17.7108
" />
<path d="M14.4560 18.2822
L14.3607 18.3298
" />
<path d="M14.3607 18.3298
L14.1226 18.3298
" />
<path d="M14.1226 18.3298
L14.0274 18.2822
" />
<path d="M14.0274 18.2822
L13.9798 18.1870
" />
<path d="M13.9798 18.1870
L13.9798 18.0917
" />
<path d="M13.9798 18.0917
L14.0274 17.9965
" />
<path d="M14.0274 17.9965
L14.1226 17.9489
" />
<path d="M14.1226 17.9489
L14.3607 17.9489
" />
<path d="M14.3607 17.9489
L14.4560 17.9012
" />
<path d="M14.9321 17.6632
L14.9321 18.6632
" />
<path d="M14.9321 17.7108
L15.0274 17.6632
" />
<path d="M15.0274 17.6632
L15.2179 17.6632
" />
<path d="M15.2179 17.6632
L15.3131 17.7108
" />
<path d="M15.3131 17.7108
L15.3607 17.7584
" />
<path d="M15.3607 17.7584
L15.4083 17.8536
" />
<path d="M15.4083 17.8536
L15.4083 18.1393
" />
<path d="M15.4083 18.1393
L15.3607 18.2346
" />
<path d="M15.3607 18.2346
L15.3131 18.2822
" />
<path d="M15.3131 18.2822
L15.2179 18.3298
" />
<path d="M15.2179 18.3298
L15.0274 18.3298
" />
<path d="M15.0274 18.3298
L14.9321 18.2822
" />
</g><text x="9.5750" y="19.9750"
textLength="4.5357" font-size="1.3333" lengthAdjust="spacingAndGlyphs"
text-anchor="middle" opacity="0" stroke-opacity="0">REF**</text>
<g class="stroked-text"><desc>REF**</desc>
<path d="M8.2417 19.9298
L7.9083 19.4536
" />
<path d="M7.6702 19.9298
L7.6702 18.9298
" />
<path d="M7.6702 18.9298
L8.0512 18.9298
" />
<path d="M8.0512 18.9298
L8.1464 18.9774
" />
<path d="M8.1464 18.9774
L8.1940 19.0251
" />
<path d="M8.1940 19.0251
L8.2417 19.1203
" />
<path d="M8.2417 19.1203
L8.2417 19.2632
" />
<path d="M8.2417 19.2632
L8.1940 19.3584
" />
<path d="M8.1940 19.3584
L8.1464 19.4060
" />
<path d="M8.1464 19.4060
L8.0512 19.4536
" />
<path d="M8.0512 19.4536
L7.6702 19.4536
" />
<path d="M8.6702 19.4060
L9.0036 19.4060
" />
<path d="M9.1464 19.9298
L8.6702 19.9298
" />
<path d="M8.6702 19.9298
L8.6702 18.9298
" />
<path d="M8.6702 18.9298
L9.1464 18.9298
" />
<path d="M9.9083 19.4060
L9.5750 19.4060
" />
<path d="M9.5750 19.9298
L9.5750 18.9298
" />
<path d="M9.5750 18.9298
L10.0512 18.9298
" />
<path d="M10.5750 18.9298
L10.5750 19.1679
" />
<path d="M10.3369 19.0727
L10.5750 19.1679
" />
<path d="M10.5750 19.1679
L10.8131 19.0727
" />
<path d="M10.4321 19.3584
L10.5750 19.1679
" />
<path d="M10.5750 19.1679
L10.7179 19.3584
" />
<path d="M11.3369 18.9298
L11.3369 19.1679
" />
<path d="M11.0988 19.0727
L11.3369 19.1679
" />
<path d="M11.3369 19.1679
L11.5750 19.0727
" />
<path d="M11.1940 19.3584
L11.3369 19.1679
" />
<path d="M11.3369 19.1679
L11.4798 19.3584
" />
</g></g>
<g style="fill:none; 
stroke:#AFAFAF; stroke-width:0.1200; stroke-opacity:1; 
stroke-linecap:round; stroke-linejoin:round;">
<path d="M1.9550 3.2250
L1.9550 5.7650
" />
<path d="M1.9550 5.7650
L4.4950 5.7650
" />
<path d="M4.4950 2.5900
L4.4950 7.0350
" />
<path d="M4.4950 3.2250
L1.9550 3.2250
" />
<path d="M4.4950 7.0350
L9.5750 7.0350
" />
<path d="M13.3850 2.5900
L4.4950 2.5900
" />
<path d="M15.9250 8.3050
L18.4650 8.3050
" />
<path d="M15.9250 8.9400
L12.1150 8.9400
" />
<path d="M15.9250 8.9400
L15.9250 5.1300
" />
<path d="M18.4650 5.7650
L15.9250 5.7650
" />
<path d="M18.4650 8.3050
L18.4650 5.7650
" />
<path style="fill:none; 
stroke:#AFAFAF; stroke-width:0.1000; stroke-opacity:1; 
stroke-linecap:round; stroke-linejoin:round;fill:none"
d="M 7.8250,13.1550
11.3250,13.1550
11.3250,16.1550
7.8250,16.1550
Z" /> 
</g>
<g style="fill:none; 
stroke:#AFAFAF; stroke-width:0.1200; stroke-opacity:1; 
stroke-linecap:round; stroke-linejoin:round;">
<path d="M12.0392 8.9590 A2.5400 2.5400 0.0 0 0 9.5750 7.0350" />
<path d="M15.9250 5.1300 A2.5400 2.5400 0.0 0 0 13.3850 2.5900" />
</g>
<g style="fill:none; 
stroke:#AFAFAF; stroke-width:0.0212; stroke-opacity:1; 
stroke-linecap:round; stroke-linejoin:round;">
<circle cx="4.4950" cy="9.5750" r="0.8500" /> 
</g>
<g style="fill:none; 
stroke:#AFAFAF; stroke-width:0.0212; stroke-opacity:1; 
stroke-linecap:round; stroke-linejoin:round;">
<circle cx="7.0350" cy="4.4950" r="1.5000" /> 
</g>
<g style="fill:none; 
stroke:#AFAFAF; stroke-width:0.0212; stroke-opacity:1; 
stroke-linecap:round; stroke-linejoin:round;">
<circle cx="9.5750" cy="9.5750" r="2.0000" /> 
</g>
<g style="fill:none; 
stroke:#AFAFAF; stroke-width:0.0212; stroke-opacity:1; 
stroke-linecap:round; stroke-linejoin:round;">
<circle cx="13.3850" cy="7.0350" r="1.5000" /> 
</g>
<g style="fill:none; 
stroke:#AFAFAF; stroke-width:0.0212; stroke-opacity:1; 
stroke-linecap:round; stroke-linejoin:round;">
<circle cx="14.6550" cy="9.5750" r="0.8500" /> 
</g>
<g style="fill:none; 
stroke:#AFAFAF; stroke-width:0.0708; stroke-opacity:1; 
stroke-linecap:round; stroke-linejoin:round;">
<text x="17.1350" y="7.4600"
textLength="0.8520" font-size="1.1333" lengthAdjust="spacingAndGlyphs"
text-anchor="middle" opacity="0" stroke-opacity="0">1</text>
<g class="stroked-text"><desc>1</desc>
<path d="M17.3779 7.4245
L16.8921 7.4245
" />
<path d="M17.1350 7.4245
L17.1350 6.5745
" />
<path d="M17.1350 6.5745
L17.0540 6.6960
" />
<path d="M17.0540 6.6960
L16.9731 6.7769
" />
<path d="M16.9731 6.7769
L16.8921 6.8174
" />
</g><path style="fill:none; 
stroke:#AFAFAF; stroke-width:0.0212; stroke-opacity:1; 
stroke-linecap:round; stroke-linejoin:round;fill:none"
d="M 15.8600,6.0350
15.8790,5.9393
15.9332,5.8582
16.0143,5.8040
16.1100,5.7850
18.1600,5.7850
18.2557,5.8040
18.3368,5.8582
18.3910,5.9393
18.4100,6.0350
18.4100,8.0350
18.3910,8.1307
18.3368,8.2118
18.2557,8.2660
18.1600,8.2850
16.1100,8.2850
16.0143,8.2660
15.9332,8.2118
15.8790,8.1307
15.8600,8.0350
Z" /> 
</g>
<g style="fill:none; 
stroke:#AFAFAF; stroke-width:0.0708; stroke-opacity:1; 
stroke-linecap:round; stroke-linejoin:round;">
<text x="3.2850" y="4.9200"
textLength="0.8520" font-size="1.1333" lengthAdjust="spacingAndGlyphs"
text-anchor="middle" opacity="0" stroke-opacity="0">2</text>
<g class="stroked-text"><desc>2</desc>
<path d="M3.0421 4.1155
L3.0826 4.0750
" />
<path d="M3.0826 4.0750
L3.1636 4.0345
" />
<path d="M3.1636 4.0345
L3.3660 4.0345
" />
<path d="M3.3660 4.0345
L3.4469 4.0750
" />
<path d="M3.4469 4.0750
L3.4874 4.1155
" />
<path d="M3.4874 4.1155
L3.5279 4.1964
" />
<path d="M3.5279 4.1964
L3.5279 4.2774
" />
<path d="M3.5279 4.2774
L3.4874 4.3988
" />
<path d="M3.4874 4.3988
L3.0017 4.8845
" />
<path d="M3.0017 4.8845
L3.5279 4.8845
" />
</g><path style="fill:none; 
stroke:#AFAFAF; stroke-width:0.0212; stroke-opacity:1; 
stroke-linecap:round; stroke-linejoin:round;fill:none"
d="M 2.0100,3.4950
2.0290,3.3993
2.0832,3.3182
2.1643,3.2640
2.2600,3.2450
4.3100,3.2450
4.4057,3.2640
4.4868,3.3182
4.5410,3.3993
4.5600,3.4950
4.5600,5.4950
4.5410,5.5907
4.4868,5.6718
4.4057,5.7260
4.3100,5.7450
2.2600,5.7450
2.1643,5.7260
2.0832,5.6718
2.0290,5.5907
2.0100,5.4950
Z" /> 
<path style="fill:none; 
stroke:#585D84; stroke-width:0.0500; stroke-opacity:1; 
stroke-linecap:round; stroke-linejoin:round;fill:none"
d="M 2.5750,2.5750
16.5750,2.5750
16.5750,16.5750
2.5750,16.5750
Z" /> 
</g>
<g style="fill:none; 
stroke:#585D84; stroke-width:0.0212; stroke-opacity:1; 
stroke-linecap:round; stroke-linejoin:round;">
<circle cx="4.4950" cy="9.5750" r="0.8500" /> 
</g>
<g style="fill:none; 
stroke:#585D84; stroke-width:0.0212; stroke-opacity:1; 
stroke-linecap:round; stroke-linejoin:round;">
<circle cx="7.0350" cy="4.4950" r="1.5000" /> 
</g>
<g style="fill:none; 
stroke:#585D84; stroke-width:0.0212; stroke-opacity:1; 
stroke-linecap:round; stroke-linejoin:round;">
<circle cx="9.5750" cy="9.5750" r="2.0000" /> 
</g>
<g style="fill:none; 
stroke:#585D84; stroke-width:0.0212; stroke-opacity:1; 
stroke-linecap:round; stroke-linejoin:round;">
<circle cx="13.3850" cy="7.0350" r="1.5000" /> 
</g>
<g style="fill:none; 
stroke:#585D84; stroke-width:0.0212; stroke-opacity:1; 
stroke-linecap:round; stroke-linejoin:round;">
<circle cx="14.6550" cy="9.5750" r="0.8500" /> 
<path style="fill:none; 
stroke:#C2C2C2; stroke-width:0.1000; stroke-opacity:1; 
stroke-linecap:round; stroke-linejoin:round;fill:none"
d="M 0.0500,0.0500
19.1000,0.0500
19.1000,19.1000
0.0500,19.1000
Z" /> 
</g> 
</svg>
