<svg xmlns="http://www.w3.org/2000/svg" width="72.288" height="76.8" viewBox="0 0 19.126 20.32">
    <g style="fill:none;stroke:#e8b2a7;stroke-width:.12;stroke-opacity:1;stroke-linecap:round;stroke-linejoin:round">
        <path d="M2.475 2.475v1M2.475 2.475h1M2.475 16.675v-1M3.475 16.675h-1M15.675 2.475h1M16.675 2.475v1M16.675 15.675v1M16.675 16.675h-1"/>
    </g>
    <g class="stroked-text" style="fill:none;stroke:#f2eda1;stroke-width:.15;stroke-opacity:1;stroke-linecap:round;stroke-linejoin:round">
        <path d="m10.02 4.95-.334-.476M9.448 4.95v-1M9.448 3.95h.381M9.83 3.95l.094.047M9.924 3.997l.048.048M9.972 4.045l.048.095M10.02 4.14v.143M10.02 4.283l-.048.095M9.972 4.378l-.048.048M9.924 4.426l-.095.048M9.83 4.474h-.382M10.448 4.426h.334M10.924 4.95h-.476M10.448 4.95v-1M10.448 3.95h.476M11.686 4.426h-.333M11.353 4.95v-1M11.353 3.95h.476M12.353 3.95v.238M12.115 4.093l.238.095M12.353 4.188l.238-.095M12.21 4.378l.143-.19M12.353 4.188l.143.19M13.115 3.95v.238M12.877 4.093l.238.095M13.115 4.188l.238-.095M12.972 4.378l.143-.19M13.115 4.188l.143.19"/>
    </g>
    <g style="fill:none;stroke:#f2eda1;stroke-width:.12;stroke-opacity:1;stroke-linecap:round;stroke-linejoin:round">
        <path d="M4.495 2.59v.355M4.495 7.035v-.99M4.495 7.035h5.08M12.04 8.94h1.726M13.385 2.59h-8.89M15.575 8.94h.35M15.925 5.13v.355M15.925 8.585v.355M12.035 8.941a2.54 2.54 0 0 0-2.46-1.906M15.925 5.13a2.54 2.54 0 0 0-2.54-2.54"/>
        <path stroke="none" d="m15.86 6.035.019-.096.054-.08.081-.055.096-.019h2.05l.096.019.08.054.055.081.019.096v2l-.019.096-.054.08-.081.055-.096.019h-2.05l-.096-.019-.08-.054-.055-.081-.019-.096ZM2.01 3.495l.019-.096.054-.08.081-.055.096-.019h2.05l.096.019.08.054.055.081.019.096v2l-.019.096-.054.08-.081.055-.096.019H2.26l-.096-.019-.08-.054-.055-.081-.019-.096Z" style="fill:#b4a09a;fill-opacity:.9;stroke:none;fill-rule:evenodd"/>
        <path stroke="none" d="m15.86 6.035.019-.096.054-.08.081-.055.096-.019h2.05l.096.019.08.054.055.081.019.096v2l-.019.096-.054.08-.081.055-.096.019h-2.05l-.096-.019-.08-.054-.055-.081-.019-.096ZM2.01 3.495l.019-.096.054-.08.081-.055.096-.019h2.05l.096.019.08.054.055.081.019.096v2l-.019.096-.054.08-.081.055-.096.019H2.26l-.096-.019-.08-.054-.055-.081-.019-.096Z" style="fill:#c83434;fill-opacity:1;stroke:none;fill-rule:evenodd"/>
        <path d="M2.575 2.575h14v14h-14Z" style="stroke:#585d84;stroke-width:.1;stroke-opacity:1;stroke-linecap:round;stroke-linejoin:round;fill:none"/>
    </g>
    <circle cx="4.495" cy="9.575" r=".85" style="fill:none;stroke:#585d84;stroke-width:.0212;stroke-opacity:1;stroke-linecap:round;stroke-linejoin:round"/>
    <circle cx="7.035" cy="4.495" r="1.5" style="fill:none;stroke:#585d84;stroke-width:.0212;stroke-opacity:1;stroke-linecap:round;stroke-linejoin:round"/>
    <circle cx="9.575" cy="9.575" r="2" style="fill:none;stroke:#585d84;stroke-width:.0212;stroke-opacity:1;stroke-linecap:round;stroke-linejoin:round"/>
    <circle cx="13.385" cy="7.035" r="1.5" style="fill:none;stroke:#585d84;stroke-width:.0212;stroke-opacity:1;stroke-linecap:round;stroke-linejoin:round"/>
    <circle cx="14.655" cy="9.575" r=".85" style="fill:none;stroke:#585d84;stroke-width:.0212;stroke-opacity:1;stroke-linecap:round;stroke-linejoin:round"/>
    <g style="fill:none;stroke:#afafaf;stroke-width:.15;stroke-opacity:1;stroke-linecap:round;stroke-linejoin:round">
        <g class="stroked-text">
            <path d="m3.742 18.282.143.048M3.885 18.33h.238M4.123 18.33l.095-.048M4.218 18.282l.048-.047M4.266 18.235l.047-.096M4.313 18.14v-.096M4.313 18.044l-.047-.095M4.266 17.949l-.048-.048M4.218 17.901l-.095-.047M4.123 17.854l-.19-.048M3.932 17.806l-.095-.048M3.837 17.758l-.048-.047M3.79 17.71l-.048-.095M3.742 17.616v-.096M3.742 17.52l.047-.095M3.79 17.425l.047-.048M3.837 17.377l.095-.047M3.932 17.33h.238M4.17 17.33l.143.047M4.646 17.33l.239 1M4.885 18.33l.19-.714M5.075 17.616l.19.714M5.266 18.33l.238-1M5.646 18.425h.762M6.646 18.33v-1M6.646 17.33l.334.714M6.98 18.044l.333-.714M7.313 17.33v1M7.694 17.33l.667 1M8.36 17.33l-.666 1M8.504 18.425h.761M9.504 18.33v-1M9.504 17.806h.571M10.075 18.33v-1M10.694 18.33l-.095-.048M10.599 18.282l-.048-.047M10.551 18.235l-.047-.096M10.504 18.14v-.286M10.504 17.854l.047-.096M10.551 17.758l.048-.047M10.599 17.71l.095-.047M10.694 17.663h.143M10.837 17.663l.095.048M10.932 17.71l.048.048M10.98 17.758l.047.096M11.027 17.854v.285M11.027 18.14l-.047.095M10.98 18.235l-.048.047M10.932 18.282l-.095.048M10.837 18.33h-.143M11.313 17.663h.381M11.456 17.33v.857M11.456 18.187l.048.095M11.504 18.282l.095.048M11.599 18.33h.095M11.98 18.282l.143.048M12.123 18.33h.238M12.36 18.33l.096-.048M12.456 18.282l.048-.047M12.504 18.235l.047-.096M12.551 18.14v-.096M12.551 18.044l-.047-.095M12.504 17.949l-.048-.048M12.456 17.901l-.095-.047M12.36 17.854l-.19-.048M12.17 17.806l-.095-.048M12.075 17.758l-.048-.047M12.027 17.71l-.047-.095M11.98 17.616v-.096M11.98 17.52l.047-.095M12.027 17.425l.048-.048M12.075 17.377l.095-.047M12.17 17.33h.238M12.408 17.33l.143.047M12.885 17.663l.19.667M13.075 18.33l.19-.476M13.266 17.854l.19.476M13.456 18.33l.19-.667M14.456 18.33v-.524M14.456 17.806l-.048-.095M14.408 17.71l-.095-.047M14.313 17.663h-.19M14.123 17.663l-.096.048M14.456 18.282l-.095.048M14.36 18.33h-.237M14.123 18.33l-.096-.048M14.027 18.282l-.047-.095M13.98 18.187v-.095M13.98 18.092l.047-.095M14.027 17.997l.096-.048M14.123 17.949h.238M14.36 17.949l.096-.048M14.932 17.663v1M14.932 17.71l.095-.047M15.027 17.663h.19M15.218 17.663l.095.048M15.313 17.71l.048.048M15.36 17.758l.048.096M15.408 17.854v.285M15.408 18.14l-.047.095M15.36 18.235l-.047.047M15.313 18.282l-.095.048M15.218 18.33h-.19M15.027 18.33l-.095-.048"/>
        </g>
        <g class="stroked-text">
            <path d="m8.242 19.93-.334-.476M7.67 19.93v-1M7.67 18.93h.381M8.051 18.93l.095.047M8.146 18.977l.048.048M8.194 19.025l.048.095M8.242 19.12v.143M8.242 19.263l-.048.095M8.194 19.358l-.048.048M8.146 19.406l-.095.048M8.051 19.454h-.38M8.67 19.406h.334M9.146 19.93H8.67M8.67 19.93v-1M8.67 18.93h.476M9.908 19.406h-.333M9.575 19.93v-1M9.575 18.93h.476M10.575 18.93v.238M10.337 19.073l.238.095M10.575 19.168l.238-.095M10.432 19.358l.143-.19M10.575 19.168l.143.19M11.337 18.93v.238M11.099 19.073l.238.095M11.337 19.168l.238-.095M11.194 19.358l.143-.19M11.337 19.168l.143.19"/>
        </g>
    </g>
    <g style="fill:none;stroke:#afafaf;stroke-width:.1;stroke-opacity:1;stroke-linecap:round;stroke-linejoin:round">
        <path d="M1.955 3.225v2.54M1.955 5.765h2.54M4.495 2.59v4.445M4.495 3.225h-2.54M4.495 7.035h5.08M13.385 2.59h-8.89M15.925 8.305h2.54M15.925 8.94h-3.81M15.925 8.94V5.13M18.465 5.765h-2.54M18.465 8.305v-2.54"/>
        <path d="M7.825 13.155h3.5v3h-3.5Z" style="stroke:#afafaf;stroke-width:.1;stroke-opacity:1;stroke-linecap:round;stroke-linejoin:round;fill:none"/>
        <path d="M12.04 8.959a2.54 2.54 0 0 0-2.465-1.924M15.925 5.13a2.54 2.54 0 0 0-2.54-2.54"/>
    </g>
    <circle cx="4.495" cy="9.575" r=".85" style="fill:none;stroke:#afafaf;stroke-width:.0212;stroke-opacity:1;stroke-linecap:round;stroke-linejoin:round"/>
    <circle cx="7.035" cy="4.495" r="1.5" style="fill:none;stroke:#afafaf;stroke-width:.0212;stroke-opacity:1;stroke-linecap:round;stroke-linejoin:round"/>
    <circle cx="9.575" cy="9.575" r="2" style="fill:none;stroke:#afafaf;stroke-width:.0212;stroke-opacity:1;stroke-linecap:round;stroke-linejoin:round"/>
    <circle cx="13.385" cy="7.035" r="1.5" style="fill:none;stroke:#afafaf;stroke-width:.0212;stroke-opacity:1;stroke-linecap:round;stroke-linejoin:round"/>
    <circle cx="14.655" cy="9.575" r=".85" style="fill:none;stroke:#afafaf;stroke-width:.0212;stroke-opacity:1;stroke-linecap:round;stroke-linejoin:round"/>
    <g style="fill:none;stroke:#afafaf;stroke-width:.0708;stroke-opacity:1;stroke-linecap:round;stroke-linejoin:round">
        <g class="stroked-text">
            <path d="M17.378 7.425h-.486M17.135 7.425v-.85M17.135 6.575l-.081.121M17.054 6.696l-.08.08M16.973 6.777l-.08.04"/>
        </g>
        <path d="m15.86 6.035.019-.096.054-.08.081-.055.096-.019h2.05l.096.019.08.054.055.081.019.096v2l-.019.096-.054.08-.081.055-.096.019h-2.05l-.096-.019-.08-.054-.055-.081-.019-.096Z" style="stroke:#afafaf;stroke-width:.0212;stroke-opacity:1;stroke-linecap:round;stroke-linejoin:round;fill:none"/>
    </g>
    <g style="fill:none;stroke:#afafaf;stroke-width:.0708;stroke-opacity:1;stroke-linecap:round;stroke-linejoin:round">
        <g class="stroked-text">
            <path d="m3.042 4.116.04-.041M3.083 4.075l.08-.04M3.164 4.035h.202M3.366 4.035l.08.04M3.447 4.075l.04.04M3.487 4.116l.04.08M3.528 4.196v.081M3.528 4.277l-.04.122M3.487 4.399l-.485.486M3.002 4.885h.526"/>
        </g>
        <path d="m2.01 3.495.019-.096.054-.08.081-.055.096-.019h2.05l.096.019.08.054.055.081.019.096v2l-.019.096-.054.08-.081.055-.096.019H2.26l-.096-.019-.08-.054-.055-.081-.019-.096Z" style="stroke:#afafaf;stroke-width:.0212;stroke-opacity:1;stroke-linecap:round;stroke-linejoin:round;fill:none"/>
        <path d="M.05.05H19.1V19.1H.05Z" style="stroke:#c2c2c2;stroke-width:.1;stroke-opacity:1;stroke-linecap:round;stroke-linejoin:round;fill:none"/>
    </g>
</svg>
