<?xml version="1.0" standalone="no"?>
 <!DOCTYPE svg PUBLIC "-//W3C//DTD SVG 1.1//EN" 
 "http://www.w3.org/Graphics/SVG/1.1/DTD/svg11.dtd"> 
<svg
  xmlns:svg="http://www.w3.org/2000/svg"
  xmlns="http://www.w3.org/2000/svg"
  xmlns:xlink="http://www.w3.org/1999/xlink"
  version="1.1"
  width="19.1262mm" height="20.3200mm" viewBox="0.0000 0.0000 19.1262 20.3200">
<title>SVG Image created as SW_MX_Slim_HotSwap.svg date 2025/05/13 13:29:23 </title>
  <desc>Image generated by PCBNEW </desc>
<g style="fill:#000000; fill-opacity:1.0000;stroke:#000000; stroke-opacity:1.0000;
stroke-linecap:round; stroke-linejoin:round;"
 transform="translate(0 0) scale(1 1)">
</g>
<g style="fill:none; 
stroke:#E8B2A7; stroke-width:0.1200; stroke-opacity:1; 
stroke-linecap:round; stroke-linejoin:round;">
<path d="M2.4750 2.4750
L2.4750 3.4750
" />
<path d="M2.4750 2.4750
L3.4750 2.4750
" />
<path d="M2.4750 16.6750
L2.4750 15.6750
" />
<path d="M3.4750 16.6750
L2.4750 16.6750
" />
<path d="M15.6750 2.4750
L16.6750 2.4750
" />
<path d="M16.6750 2.4750
L16.6750 3.4750
" />
<path d="M16.6750 15.6750
L16.6750 16.6750
" />
<path d="M16.6750 16.6750
L15.6750 16.6750
" />
</g>
<g style="fill:none; 
stroke:#F2EDA1; stroke-width:0.1500; stroke-opacity:1; 
stroke-linecap:round; stroke-linejoin:round;">
<text x="11.3530" y="4.9950"
textLength="4.5357" font-size="1.3333" lengthAdjust="spacingAndGlyphs"
text-anchor="middle" opacity="0" stroke-opacity="0">REF**</text>
<g class="stroked-text"><desc>REF**</desc>
<path d="M10.0197 4.9498
L9.6863 4.4736
" />
<path d="M9.4482 4.9498
L9.4482 3.9498
" />
<path d="M9.4482 3.9498
L9.8292 3.9498
" />
<path d="M9.8292 3.9498
L9.9244 3.9974
" />
<path d="M9.9244 3.9974
L9.9720 4.0451
" />
<path d="M9.9720 4.0451
L10.0197 4.1403
" />
<path d="M10.0197 4.1403
L10.0197 4.2832
" />
<path d="M10.0197 4.2832
L9.9720 4.3784
" />
<path d="M9.9720 4.3784
L9.9244 4.4260
" />
<path d="M9.9244 4.4260
L9.8292 4.4736
" />
<path d="M9.8292 4.4736
L9.4482 4.4736
" />
<path d="M10.4482 4.4260
L10.7816 4.4260
" />
<path d="M10.9244 4.9498
L10.4482 4.9498
" />
<path d="M10.4482 4.9498
L10.4482 3.9498
" />
<path d="M10.4482 3.9498
L10.9244 3.9498
" />
<path d="M11.6863 4.4260
L11.3530 4.4260
" />
<path d="M11.3530 4.9498
L11.3530 3.9498
" />
<path d="M11.3530 3.9498
L11.8292 3.9498
" />
<path d="M12.3530 3.9498
L12.3530 4.1879
" />
<path d="M12.1149 4.0927
L12.3530 4.1879
" />
<path d="M12.3530 4.1879
L12.5911 4.0927
" />
<path d="M12.2101 4.3784
L12.3530 4.1879
" />
<path d="M12.3530 4.1879
L12.4959 4.3784
" />
<path d="M13.1149 3.9498
L13.1149 4.1879
" />
<path d="M12.8768 4.0927
L13.1149 4.1879
" />
<path d="M13.1149 4.1879
L13.3530 4.0927
" />
<path d="M12.9720 4.3784
L13.1149 4.1879
" />
<path d="M13.1149 4.1879
L13.2578 4.3784
" />
</g></g>
<g style="fill:none; 
stroke:#F2EDA1; stroke-width:0.1200; stroke-opacity:1; 
stroke-linecap:round; stroke-linejoin:round;">
<path d="M4.4950 2.5900
L4.4950 2.9450
" />
<path d="M4.4950 7.0350
L4.4950 6.0450
" />
<path d="M4.4950 7.0350
L9.5750 7.0350
" />
<path d="M12.0392 8.9400
L13.7660 8.9400
" />
<path d="M13.3850 2.5900
L4.4950 2.5900
" />
<path d="M15.5750 8.9400
L15.9250 8.9400
" />
<path d="M15.9250 5.1300
L15.9250 5.4850
" />
<path d="M15.9250 8.5850
L15.9250 8.9400
" />
<path d="M12.0346 8.9412 A2.5400 2.5400 0.0 0 0 9.5750 7.0350" />
<path d="M15.9250 5.1300 A2.5400 2.5400 0.0 0 0 13.3850 2.5900" />
<path style="fill:#B4A09A; fill-opacity:0.9000; stroke:none;fill-rule:evenodd;"
d="M 15.8632,6.0350
15.8822,5.9393
15.9364,5.8582
16.0175,5.8040
16.1132,5.7850
17.4132,5.7850
17.5089,5.8040
17.5900,5.8582
17.6442,5.9393
17.6632,6.0350
17.6632,8.0350
17.6442,8.1307
17.5900,8.2118
17.5089,8.2660
17.4132,8.2850
16.1132,8.2850
16.0175,8.2660
15.9364,8.2118
15.8822,8.1307
15.8632,8.0350
Z" /> 
<path style="fill:#B4A09A; fill-opacity:0.9000; stroke:none;fill-rule:evenodd;"
d="M 2.7568,3.4950
2.7758,3.3993
2.8300,3.3182
2.9111,3.2640
3.0068,3.2450
4.3068,3.2450
4.4025,3.2640
4.4836,3.3182
4.5378,3.3993
4.5568,3.4950
4.5568,5.4950
4.5378,5.5907
4.4836,5.6718
4.4025,5.7260
4.3068,5.7450
3.0068,5.7450
2.9111,5.7260
2.8300,5.6718
2.7758,5.5907
2.7568,5.4950
Z" /> 
<path style="fill:#C83434; fill-opacity:1.0000; stroke:none;fill-rule:evenodd;"
d="M 15.8632,6.0350
15.8822,5.9393
15.9364,5.8582
16.0175,5.8040
16.1132,5.7850
17.4132,5.7850
17.5089,5.8040
17.5900,5.8582
17.6442,5.9393
17.6632,6.0350
17.6632,8.0350
17.6442,8.1307
17.5900,8.2118
17.5089,8.2660
17.4132,8.2850
16.1132,8.2850
16.0175,8.2660
15.9364,8.2118
15.8822,8.1307
15.8632,8.0350
Z" /> 
<path style="fill:#C83434; fill-opacity:1.0000; stroke:none;fill-rule:evenodd;"
d="M 2.7568,3.4950
2.7758,3.3993
2.8300,3.3182
2.9111,3.2640
3.0068,3.2450
4.3068,3.2450
4.4025,3.2640
4.4836,3.3182
4.5378,3.3993
4.5568,3.4950
4.5568,5.4950
4.5378,5.5907
4.4836,5.6718
4.4025,5.7260
4.3068,5.7450
3.0068,5.7450
2.9111,5.7260
2.8300,5.6718
2.7758,5.5907
2.7568,5.4950
Z" /> 
<path style="fill:none; 
stroke:#585D84; stroke-width:0.1000; stroke-opacity:1; 
stroke-linecap:round; stroke-linejoin:round;fill:none"
d="M 2.5750,2.5750
16.5750,2.5750
16.5750,16.5750
2.5750,16.5750
Z" /> 
</g>
<g style="fill:none; 
stroke:#585D84; stroke-width:0.0212; stroke-opacity:1; 
stroke-linecap:round; stroke-linejoin:round;">
<circle cx="4.4950" cy="9.5750" r="0.8500" /> 
</g>
<g style="fill:none; 
stroke:#585D84; stroke-width:0.0212; stroke-opacity:1; 
stroke-linecap:round; stroke-linejoin:round;">
<circle cx="7.0350" cy="4.4950" r="1.5000" /> 
</g>
<g style="fill:none; 
stroke:#585D84; stroke-width:0.0212; stroke-opacity:1; 
stroke-linecap:round; stroke-linejoin:round;">
<circle cx="9.5750" cy="9.5750" r="2.0000" /> 
</g>
<g style="fill:none; 
stroke:#585D84; stroke-width:0.0212; stroke-opacity:1; 
stroke-linecap:round; stroke-linejoin:round;">
<circle cx="13.3850" cy="7.0350" r="1.5000" /> 
</g>
<g style="fill:none; 
stroke:#585D84; stroke-width:0.0212; stroke-opacity:1; 
stroke-linecap:round; stroke-linejoin:round;">
<circle cx="14.6550" cy="9.5750" r="0.8500" /> 
</g>
<g style="fill:none; 
stroke:#AFAFAF; stroke-width:0.1500; stroke-opacity:1; 
stroke-linecap:round; stroke-linejoin:round;">
<text x="9.5750" y="18.3750"
textLength="16.3452" font-size="1.3333" lengthAdjust="spacingAndGlyphs"
text-anchor="middle" opacity="0" stroke-opacity="0">SW_MX_Slim_HotSwap</text>
<g class="stroked-text"><desc>SW_MX_Slim_HotSwap</desc>
<path d="M1.7179 18.2822
L1.8607 18.3298
" />
<path d="M1.8607 18.3298
L2.0988 18.3298
" />
<path d="M2.0988 18.3298
L2.1940 18.2822
" />
<path d="M2.1940 18.2822
L2.2417 18.2346
" />
<path d="M2.2417 18.2346
L2.2893 18.1393
" />
<path d="M2.2893 18.1393
L2.2893 18.0441
" />
<path d="M2.2893 18.0441
L2.2417 17.9489
" />
<path d="M2.2417 17.9489
L2.1940 17.9012
" />
<path d="M2.1940 17.9012
L2.0988 17.8536
" />
<path d="M2.0988 17.8536
L1.9083 17.8060
" />
<path d="M1.9083 17.8060
L1.8131 17.7584
" />
<path d="M1.8131 17.7584
L1.7655 17.7108
" />
<path d="M1.7655 17.7108
L1.7179 17.6155
" />
<path d="M1.7179 17.6155
L1.7179 17.5203
" />
<path d="M1.7179 17.5203
L1.7655 17.4251
" />
<path d="M1.7655 17.4251
L1.8131 17.3774
" />
<path d="M1.8131 17.3774
L1.9083 17.3298
" />
<path d="M1.9083 17.3298
L2.1464 17.3298
" />
<path d="M2.1464 17.3298
L2.2893 17.3774
" />
<path d="M2.6226 17.3298
L2.8607 18.3298
" />
<path d="M2.8607 18.3298
L3.0512 17.6155
" />
<path d="M3.0512 17.6155
L3.2417 18.3298
" />
<path d="M3.2417 18.3298
L3.4798 17.3298
" />
<path d="M3.6226 18.4251
L4.3845 18.4251
" />
<path d="M4.6226 18.3298
L4.6226 17.3298
" />
<path d="M4.6226 17.3298
L4.9560 18.0441
" />
<path d="M4.9560 18.0441
L5.2893 17.3298
" />
<path d="M5.2893 17.3298
L5.2893 18.3298
" />
<path d="M5.6702 17.3298
L6.3369 18.3298
" />
<path d="M6.3369 17.3298
L5.6702 18.3298
" />
<path d="M6.4798 18.4251
L7.2417 18.4251
" />
<path d="M7.4321 18.2822
L7.5750 18.3298
" />
<path d="M7.5750 18.3298
L7.8131 18.3298
" />
<path d="M7.8131 18.3298
L7.9083 18.2822
" />
<path d="M7.9083 18.2822
L7.9560 18.2346
" />
<path d="M7.9560 18.2346
L8.0036 18.1393
" />
<path d="M8.0036 18.1393
L8.0036 18.0441
" />
<path d="M8.0036 18.0441
L7.9560 17.9489
" />
<path d="M7.9560 17.9489
L7.9083 17.9012
" />
<path d="M7.9083 17.9012
L7.8131 17.8536
" />
<path d="M7.8131 17.8536
L7.6226 17.8060
" />
<path d="M7.6226 17.8060
L7.5274 17.7584
" />
<path d="M7.5274 17.7584
L7.4798 17.7108
" />
<path d="M7.4798 17.7108
L7.4321 17.6155
" />
<path d="M7.4321 17.6155
L7.4321 17.5203
" />
<path d="M7.4321 17.5203
L7.4798 17.4251
" />
<path d="M7.4798 17.4251
L7.5274 17.3774
" />
<path d="M7.5274 17.3774
L7.6226 17.3298
" />
<path d="M7.6226 17.3298
L7.8607 17.3298
" />
<path d="M7.8607 17.3298
L8.0036 17.3774
" />
<path d="M8.5750 18.3298
L8.4798 18.2822
" />
<path d="M8.4798 18.2822
L8.4321 18.1870
" />
<path d="M8.4321 18.1870
L8.4321 17.3298
" />
<path d="M8.9560 18.3298
L8.9560 17.6632
" />
<path d="M8.9560 17.3298
L8.9083 17.3774
" />
<path d="M8.9083 17.3774
L8.9560 17.4251
" />
<path d="M8.9560 17.4251
L9.0036 17.3774
" />
<path d="M9.0036 17.3774
L8.9560 17.3298
" />
<path d="M8.9560 17.3298
L8.9560 17.4251
" />
<path d="M9.4321 18.3298
L9.4321 17.6632
" />
<path d="M9.4321 17.7584
L9.4798 17.7108
" />
<path d="M9.4798 17.7108
L9.5750 17.6632
" />
<path d="M9.5750 17.6632
L9.7179 17.6632
" />
<path d="M9.7179 17.6632
L9.8131 17.7108
" />
<path d="M9.8131 17.7108
L9.8607 17.8060
" />
<path d="M9.8607 17.8060
L9.8607 18.3298
" />
<path d="M9.8607 17.8060
L9.9083 17.7108
" />
<path d="M9.9083 17.7108
L10.0036 17.6632
" />
<path d="M10.0036 17.6632
L10.1464 17.6632
" />
<path d="M10.1464 17.6632
L10.2417 17.7108
" />
<path d="M10.2417 17.7108
L10.2893 17.8060
" />
<path d="M10.2893 17.8060
L10.2893 18.3298
" />
<path d="M10.5274 18.4251
L11.2893 18.4251
" />
<path d="M11.5274 18.3298
L11.5274 17.3298
" />
<path d="M11.5274 17.8060
L12.0988 17.8060
" />
<path d="M12.0988 18.3298
L12.0988 17.3298
" />
<path d="M12.7179 18.3298
L12.6226 18.2822
" />
<path d="M12.6226 18.2822
L12.5750 18.2346
" />
<path d="M12.5750 18.2346
L12.5274 18.1393
" />
<path d="M12.5274 18.1393
L12.5274 17.8536
" />
<path d="M12.5274 17.8536
L12.5750 17.7584
" />
<path d="M12.5750 17.7584
L12.6226 17.7108
" />
<path d="M12.6226 17.7108
L12.7179 17.6632
" />
<path d="M12.7179 17.6632
L12.8607 17.6632
" />
<path d="M12.8607 17.6632
L12.9560 17.7108
" />
<path d="M12.9560 17.7108
L13.0036 17.7584
" />
<path d="M13.0036 17.7584
L13.0512 17.8536
" />
<path d="M13.0512 17.8536
L13.0512 18.1393
" />
<path d="M13.0512 18.1393
L13.0036 18.2346
" />
<path d="M13.0036 18.2346
L12.9560 18.2822
" />
<path d="M12.9560 18.2822
L12.8607 18.3298
" />
<path d="M12.8607 18.3298
L12.7179 18.3298
" />
<path d="M13.3369 17.6632
L13.7179 17.6632
" />
<path d="M13.4798 17.3298
L13.4798 18.1870
" />
<path d="M13.4798 18.1870
L13.5274 18.2822
" />
<path d="M13.5274 18.2822
L13.6226 18.3298
" />
<path d="M13.6226 18.3298
L13.7179 18.3298
" />
<path d="M14.0036 18.2822
L14.1464 18.3298
" />
<path d="M14.1464 18.3298
L14.3845 18.3298
" />
<path d="M14.3845 18.3298
L14.4798 18.2822
" />
<path d="M14.4798 18.2822
L14.5274 18.2346
" />
<path d="M14.5274 18.2346
L14.5750 18.1393
" />
<path d="M14.5750 18.1393
L14.5750 18.0441
" />
<path d="M14.5750 18.0441
L14.5274 17.9489
" />
<path d="M14.5274 17.9489
L14.4798 17.9012
" />
<path d="M14.4798 17.9012
L14.3845 17.8536
" />
<path d="M14.3845 17.8536
L14.1940 17.8060
" />
<path d="M14.1940 17.8060
L14.0988 17.7584
" />
<path d="M14.0988 17.7584
L14.0512 17.7108
" />
<path d="M14.0512 17.7108
L14.0036 17.6155
" />
<path d="M14.0036 17.6155
L14.0036 17.5203
" />
<path d="M14.0036 17.5203
L14.0512 17.4251
" />
<path d="M14.0512 17.4251
L14.0988 17.3774
" />
<path d="M14.0988 17.3774
L14.1940 17.3298
" />
<path d="M14.1940 17.3298
L14.4321 17.3298
" />
<path d="M14.4321 17.3298
L14.5750 17.3774
" />
<path d="M14.9083 17.6632
L15.0988 18.3298
" />
<path d="M15.0988 18.3298
L15.2893 17.8536
" />
<path d="M15.2893 17.8536
L15.4798 18.3298
" />
<path d="M15.4798 18.3298
L15.6702 17.6632
" />
<path d="M16.4798 18.3298
L16.4798 17.8060
" />
<path d="M16.4798 17.8060
L16.4321 17.7108
" />
<path d="M16.4321 17.7108
L16.3369 17.6632
" />
<path d="M16.3369 17.6632
L16.1464 17.6632
" />
<path d="M16.1464 17.6632
L16.0512 17.7108
" />
<path d="M16.4798 18.2822
L16.3845 18.3298
" />
<path d="M16.3845 18.3298
L16.1464 18.3298
" />
<path d="M16.1464 18.3298
L16.0512 18.2822
" />
<path d="M16.0512 18.2822
L16.0036 18.1870
" />
<path d="M16.0036 18.1870
L16.0036 18.0917
" />
<path d="M16.0036 18.0917
L16.0512 17.9965
" />
<path d="M16.0512 17.9965
L16.1464 17.9489
" />
<path d="M16.1464 17.9489
L16.3845 17.9489
" />
<path d="M16.3845 17.9489
L16.4798 17.9012
" />
<path d="M16.9560 17.6632
L16.9560 18.6632
" />
<path d="M16.9560 17.7108
L17.0512 17.6632
" />
<path d="M17.0512 17.6632
L17.2417 17.6632
" />
<path d="M17.2417 17.6632
L17.3369 17.7108
" />
<path d="M17.3369 17.7108
L17.3845 17.7584
" />
<path d="M17.3845 17.7584
L17.4321 17.8536
" />
<path d="M17.4321 17.8536
L17.4321 18.1393
" />
<path d="M17.4321 18.1393
L17.3845 18.2346
" />
<path d="M17.3845 18.2346
L17.3369 18.2822
" />
<path d="M17.3369 18.2822
L17.2417 18.3298
" />
<path d="M17.2417 18.3298
L17.0512 18.3298
" />
<path d="M17.0512 18.3298
L16.9560 18.2822
" />
</g><text x="9.5750" y="19.9750"
textLength="4.5357" font-size="1.3333" lengthAdjust="spacingAndGlyphs"
text-anchor="middle" opacity="0" stroke-opacity="0">REF**</text>
<g class="stroked-text"><desc>REF**</desc>
<path d="M8.2417 19.9298
L7.9083 19.4536
" />
<path d="M7.6702 19.9298
L7.6702 18.9298
" />
<path d="M7.6702 18.9298
L8.0512 18.9298
" />
<path d="M8.0512 18.9298
L8.1464 18.9774
" />
<path d="M8.1464 18.9774
L8.1940 19.0251
" />
<path d="M8.1940 19.0251
L8.2417 19.1203
" />
<path d="M8.2417 19.1203
L8.2417 19.2632
" />
<path d="M8.2417 19.2632
L8.1940 19.3584
" />
<path d="M8.1940 19.3584
L8.1464 19.4060
" />
<path d="M8.1464 19.4060
L8.0512 19.4536
" />
<path d="M8.0512 19.4536
L7.6702 19.4536
" />
<path d="M8.6702 19.4060
L9.0036 19.4060
" />
<path d="M9.1464 19.9298
L8.6702 19.9298
" />
<path d="M8.6702 19.9298
L8.6702 18.9298
" />
<path d="M8.6702 18.9298
L9.1464 18.9298
" />
<path d="M9.9083 19.4060
L9.5750 19.4060
" />
<path d="M9.5750 19.9298
L9.5750 18.9298
" />
<path d="M9.5750 18.9298
L10.0512 18.9298
" />
<path d="M10.5750 18.9298
L10.5750 19.1679
" />
<path d="M10.3369 19.0727
L10.5750 19.1679
" />
<path d="M10.5750 19.1679
L10.8131 19.0727
" />
<path d="M10.4321 19.3584
L10.5750 19.1679
" />
<path d="M10.5750 19.1679
L10.7179 19.3584
" />
<path d="M11.3369 18.9298
L11.3369 19.1679
" />
<path d="M11.0988 19.0727
L11.3369 19.1679
" />
<path d="M11.3369 19.1679
L11.5750 19.0727
" />
<path d="M11.1940 19.3584
L11.3369 19.1679
" />
<path d="M11.3369 19.1679
L11.4798 19.3584
" />
</g></g>
<g style="fill:none; 
stroke:#AFAFAF; stroke-width:0.1000; stroke-opacity:1; 
stroke-linecap:round; stroke-linejoin:round;">
<path d="M2.7170 3.2250
L2.7170 5.7650
" />
<path d="M2.7170 5.7650
L4.4950 5.7650
" />
<path d="M4.4950 2.5900
L4.4950 7.0350
" />
<path d="M4.4950 3.2250
L2.7170 3.2250
" />
<path d="M4.4950 7.0350
L9.5750 7.0350
" />
<path d="M13.3850 2.5900
L4.4950 2.5900
" />
<path d="M15.9250 8.3050
L17.6776 8.3050
" />
<path d="M15.9250 8.9400
L12.1150 8.9400
" />
<path d="M15.9250 8.9400
L15.9250 5.1300
" />
<path d="M17.6776 5.7650
L15.9250 5.7650
" />
<path d="M17.6776 8.3050
L17.6776 5.7650
" />
<path style="fill:none; 
stroke:#AFAFAF; stroke-width:0.1000; stroke-opacity:1; 
stroke-linecap:round; stroke-linejoin:round;fill:none"
d="M 7.8250,13.1550
11.3250,13.1550
11.3250,16.1550
7.8250,16.1550
Z" /> 
<path d="M12.0392 8.9590 A2.5400 2.5400 0.0 0 0 9.5750 7.0350" />
<path d="M15.9250 5.1300 A2.5400 2.5400 0.0 0 0 13.3850 2.5900" />
</g>
<g style="fill:none; 
stroke:#AFAFAF; stroke-width:0.0212; stroke-opacity:1; 
stroke-linecap:round; stroke-linejoin:round;">
<circle cx="4.4950" cy="9.5750" r="0.8500" /> 
</g>
<g style="fill:none; 
stroke:#AFAFAF; stroke-width:0.0212; stroke-opacity:1; 
stroke-linecap:round; stroke-linejoin:round;">
<circle cx="7.0350" cy="4.4950" r="1.5000" /> 
</g>
<g style="fill:none; 
stroke:#AFAFAF; stroke-width:0.0212; stroke-opacity:1; 
stroke-linecap:round; stroke-linejoin:round;">
<circle cx="9.5750" cy="9.5750" r="2.0000" /> 
</g>
<g style="fill:none; 
stroke:#AFAFAF; stroke-width:0.0212; stroke-opacity:1; 
stroke-linecap:round; stroke-linejoin:round;">
<circle cx="13.3850" cy="7.0350" r="1.5000" /> 
</g>
<g style="fill:none; 
stroke:#AFAFAF; stroke-width:0.0212; stroke-opacity:1; 
stroke-linecap:round; stroke-linejoin:round;">
<circle cx="14.6550" cy="9.5750" r="0.8500" /> 
</g>
<g style="fill:none; 
stroke:#AFAFAF; stroke-width:0.0694; stroke-opacity:1; 
stroke-linecap:round; stroke-linejoin:round;">
<g transform="rotate(-90.000000 16.7632 7.0350)">
<text x="16.7632" y="7.4517"
textLength="0.8353" font-size="1.1111" lengthAdjust="spacingAndGlyphs"
text-anchor="middle" opacity="0" stroke-opacity="0">1</text>
</g>
<g class="stroked-text"><desc>1</desc>
<path d="M17.1451 6.7969
L17.1451 7.2731
" />
<path d="M17.1451 7.0350
L16.3118 7.0350
" />
<path d="M16.3118 7.0350
L16.4308 7.1144
" />
<path d="M16.4308 7.1144
L16.5102 7.1937
" />
<path d="M16.5102 7.1937
L16.5499 7.2731
" />
</g><path style="fill:none; 
stroke:#AFAFAF; stroke-width:0.0212; stroke-opacity:1; 
stroke-linecap:round; stroke-linejoin:round;fill:none"
d="M 15.8632,6.0350
15.8822,5.9393
15.9364,5.8582
16.0175,5.8040
16.1132,5.7850
17.4132,5.7850
17.5089,5.8040
17.5900,5.8582
17.6442,5.9393
17.6632,6.0350
17.6632,8.0350
17.6442,8.1307
17.5900,8.2118
17.5089,8.2660
17.4132,8.2850
16.1132,8.2850
16.0175,8.2660
15.9364,8.2118
15.8822,8.1307
15.8632,8.0350
Z" /> 
</g>
<g style="fill:none; 
stroke:#AFAFAF; stroke-width:0.0694; stroke-opacity:1; 
stroke-linecap:round; stroke-linejoin:round;">
<g transform="rotate(-90.000000 3.6568 4.4950)">
<text x="3.6568" y="4.9117"
textLength="0.8353" font-size="1.1111" lengthAdjust="spacingAndGlyphs"
text-anchor="middle" opacity="0" stroke-opacity="0">2</text>
</g>
<g class="stroked-text"><desc>2</desc>
<path d="M3.2847 4.7331
L3.2451 4.6934
" />
<path d="M3.2451 4.6934
L3.2054 4.6140
" />
<path d="M3.2054 4.6140
L3.2054 4.4156
" />
<path d="M3.2054 4.4156
L3.2451 4.3363
" />
<path d="M3.2451 4.3363
L3.2847 4.2966
" />
<path d="M3.2847 4.2966
L3.3641 4.2569
" />
<path d="M3.3641 4.2569
L3.4435 4.2569
" />
<path d="M3.4435 4.2569
L3.5625 4.2966
" />
<path d="M3.5625 4.2966
L4.0387 4.7728
" />
<path d="M4.0387 4.7728
L4.0387 4.2569
" />
</g><path style="fill:none; 
stroke:#AFAFAF; stroke-width:0.0212; stroke-opacity:1; 
stroke-linecap:round; stroke-linejoin:round;fill:none"
d="M 2.7568,3.4950
2.7758,3.3993
2.8300,3.3182
2.9111,3.2640
3.0068,3.2450
4.3068,3.2450
4.4025,3.2640
4.4836,3.3182
4.5378,3.3993
4.5568,3.4950
4.5568,5.4950
4.5378,5.5907
4.4836,5.6718
4.4025,5.7260
4.3068,5.7450
3.0068,5.7450
2.9111,5.7260
2.8300,5.6718
2.7758,5.5907
2.7568,5.4950
Z" /> 
<path style="fill:none; 
stroke:#C2C2C2; stroke-width:0.1000; stroke-opacity:1; 
stroke-linecap:round; stroke-linejoin:round;fill:none"
d="M 0.0500,0.0500
19.1000,0.0500
19.1000,19.1000
0.0500,19.1000
Z" /> 
</g> 
</svg>
