<?xml version="1.0" standalone="no"?>
 <!DOCTYPE svg PUBLIC "-//W3C//DTD SVG 1.1//EN" 
 "http://www.w3.org/Graphics/SVG/1.1/DTD/svg11.dtd"> 
<svg
  xmlns:svg="http://www.w3.org/2000/svg"
  xmlns="http://www.w3.org/2000/svg"
  xmlns:xlink="http://www.w3.org/1999/xlink"
  version="1.1"
  width="21.5646mm" height="20.3200mm" viewBox="0.0000 0.0000 21.5646 20.3200">
<title>SVG Image created as SW_MX_Slim_HotSwap_sqSilk.svg date 2025/05/13 13:29:23 </title>
  <desc>Image generated by PCBNEW </desc>
<g style="fill:#000000; fill-opacity:1.0000;stroke:#000000; stroke-opacity:1.0000;
stroke-linecap:round; stroke-linejoin:round;"
 transform="translate(0 0) scale(1 1)">
</g>
<g style="fill:none; 
stroke:#E8B2A7; stroke-width:0.1200; stroke-opacity:1; 
stroke-linecap:round; stroke-linejoin:round;">
<path d="M3.6917 2.8750
L3.6917 16.2750
" />
<path d="M4.0917 16.6750
L17.4917 16.6750
" />
<path d="M17.4917 2.4750
L4.0917 2.4750
" />
<path d="M17.8917 16.2750
L17.8917 2.8750
" />
<path d="M4.0917 2.4750 A0.4000 0.4000 0.0 0 0 3.6917 2.8750" />
<path d="M3.6917 16.2750 A0.4000 0.4000 0.0 0 0 4.0917 16.6750" />
<path d="M17.8917 2.8750 A0.4000 0.4000 0.0 0 0 17.4917 2.4750" />
<path d="M17.4917 16.6750 A0.4000 0.4000 0.0 0 0 17.8917 16.2750" />
</g>
<g style="fill:none; 
stroke:#F2EDA1; stroke-width:0.1500; stroke-opacity:1; 
stroke-linecap:round; stroke-linejoin:round;">
<text x="12.5697" y="4.9950"
textLength="4.5357" font-size="1.3333" lengthAdjust="spacingAndGlyphs"
text-anchor="middle" opacity="0" stroke-opacity="0">REF**</text>
<g class="stroked-text"><desc>REF**</desc>
<path d="M11.2363 4.9498
L10.9030 4.4736
" />
<path d="M10.6649 4.9498
L10.6649 3.9498
" />
<path d="M10.6649 3.9498
L11.0459 3.9498
" />
<path d="M11.0459 3.9498
L11.1411 3.9974
" />
<path d="M11.1411 3.9974
L11.1887 4.0451
" />
<path d="M11.1887 4.0451
L11.2363 4.1403
" />
<path d="M11.2363 4.1403
L11.2363 4.2832
" />
<path d="M11.2363 4.2832
L11.1887 4.3784
" />
<path d="M11.1887 4.3784
L11.1411 4.4260
" />
<path d="M11.1411 4.4260
L11.0459 4.4736
" />
<path d="M11.0459 4.4736
L10.6649 4.4736
" />
<path d="M11.6649 4.4260
L11.9982 4.4260
" />
<path d="M12.1411 4.9498
L11.6649 4.9498
" />
<path d="M11.6649 4.9498
L11.6649 3.9498
" />
<path d="M11.6649 3.9498
L12.1411 3.9498
" />
<path d="M12.9030 4.4260
L12.5697 4.4260
" />
<path d="M12.5697 4.9498
L12.5697 3.9498
" />
<path d="M12.5697 3.9498
L13.0459 3.9498
" />
<path d="M13.5697 3.9498
L13.5697 4.1879
" />
<path d="M13.3316 4.0927
L13.5697 4.1879
" />
<path d="M13.5697 4.1879
L13.8078 4.0927
" />
<path d="M13.4268 4.3784
L13.5697 4.1879
" />
<path d="M13.5697 4.1879
L13.7125 4.3784
" />
<path d="M14.3316 3.9498
L14.3316 4.1879
" />
<path d="M14.0935 4.0927
L14.3316 4.1879
" />
<path d="M14.3316 4.1879
L14.5697 4.0927
" />
<path d="M14.1887 4.3784
L14.3316 4.1879
" />
<path d="M14.3316 4.1879
L14.4744 4.3784
" />
</g></g>
<g style="fill:none; 
stroke:#F2EDA1; stroke-width:0.1200; stroke-opacity:1; 
stroke-linecap:round; stroke-linejoin:round;">
<path d="M5.7117 2.5900
L5.7117 2.9450
" />
<path d="M5.7117 7.0350
L5.7117 6.0450
" />
<path d="M5.7117 7.0350
L10.7917 7.0350
" />
<path d="M13.2558 8.9400
L14.9827 8.9400
" />
<path d="M14.6017 2.5900
L5.7117 2.5900
" />
<path d="M16.7917 8.9400
L17.1417 8.9400
" />
<path d="M17.1417 5.1300
L17.1417 5.4850
" />
<path d="M17.1417 8.5850
L17.1417 8.9400
" />
<path d="M13.2513 8.9412 A2.5400 2.5400 0.0 0 0 10.7917 7.0350" />
<path d="M17.1417 5.1300 A2.5400 2.5400 0.0 0 0 14.6017 2.5900" />
<path style="fill:#B4A09A; fill-opacity:0.9000; stroke:none;fill-rule:evenodd;"
d="M 17.0799,6.0350
17.0989,5.9393
17.1531,5.8582
17.2342,5.8040
17.3299,5.7850
18.6299,5.7850
18.7255,5.8040
18.8066,5.8582
18.8608,5.9393
18.8799,6.0350
18.8799,8.0350
18.8608,8.1307
18.8066,8.2118
18.7255,8.2660
18.6299,8.2850
17.3299,8.2850
17.2342,8.2660
17.1531,8.2118
17.0989,8.1307
17.0799,8.0350
Z" /> 
<path style="fill:#B4A09A; fill-opacity:0.9000; stroke:none;fill-rule:evenodd;"
d="M 3.9735,3.4950
3.9925,3.3993
4.0467,3.3182
4.1278,3.2640
4.2235,3.2450
5.5235,3.2450
5.6191,3.2640
5.7002,3.3182
5.7544,3.3993
5.7735,3.4950
5.7735,5.4950
5.7544,5.5907
5.7002,5.6718
5.6191,5.7260
5.5235,5.7450
4.2235,5.7450
4.1278,5.7260
4.0467,5.6718
3.9925,5.5907
3.9735,5.4950
Z" /> 
<path style="fill:#C83434; fill-opacity:1.0000; stroke:none;fill-rule:evenodd;"
d="M 17.0799,6.0350
17.0989,5.9393
17.1531,5.8582
17.2342,5.8040
17.3299,5.7850
18.6299,5.7850
18.7255,5.8040
18.8066,5.8582
18.8608,5.9393
18.8799,6.0350
18.8799,8.0350
18.8608,8.1307
18.8066,8.2118
18.7255,8.2660
18.6299,8.2850
17.3299,8.2850
17.2342,8.2660
17.1531,8.2118
17.0989,8.1307
17.0799,8.0350
Z" /> 
<path style="fill:#C83434; fill-opacity:1.0000; stroke:none;fill-rule:evenodd;"
d="M 3.9735,3.4950
3.9925,3.3993
4.0467,3.3182
4.1278,3.2640
4.2235,3.2450
5.5235,3.2450
5.6191,3.2640
5.7002,3.3182
5.7544,3.3993
5.7735,3.4950
5.7735,5.4950
5.7544,5.5907
5.7002,5.6718
5.6191,5.7260
5.5235,5.7450
4.2235,5.7450
4.1278,5.7260
4.0467,5.6718
3.9925,5.5907
3.9735,5.4950
Z" /> 
<path style="fill:none; 
stroke:#585D84; stroke-width:0.1000; stroke-opacity:1; 
stroke-linecap:round; stroke-linejoin:round;fill:none"
d="M 3.7917,2.5750
17.7917,2.5750
17.7917,16.5750
3.7917,16.5750
Z" /> 
</g>
<g style="fill:none; 
stroke:#585D84; stroke-width:0.0212; stroke-opacity:1; 
stroke-linecap:round; stroke-linejoin:round;">
<circle cx="5.7117" cy="9.5750" r="0.8500" /> 
</g>
<g style="fill:none; 
stroke:#585D84; stroke-width:0.0212; stroke-opacity:1; 
stroke-linecap:round; stroke-linejoin:round;">
<circle cx="8.2517" cy="4.4950" r="1.5000" /> 
</g>
<g style="fill:none; 
stroke:#585D84; stroke-width:0.0212; stroke-opacity:1; 
stroke-linecap:round; stroke-linejoin:round;">
<circle cx="10.7917" cy="9.5750" r="2.0000" /> 
</g>
<g style="fill:none; 
stroke:#585D84; stroke-width:0.0212; stroke-opacity:1; 
stroke-linecap:round; stroke-linejoin:round;">
<circle cx="14.6017" cy="7.0350" r="1.5000" /> 
</g>
<g style="fill:none; 
stroke:#585D84; stroke-width:0.0212; stroke-opacity:1; 
stroke-linecap:round; stroke-linejoin:round;">
<circle cx="15.8717" cy="9.5750" r="0.8500" /> 
</g>
<g style="fill:none; 
stroke:#AFAFAF; stroke-width:0.1500; stroke-opacity:1; 
stroke-linecap:round; stroke-linejoin:round;">
<text x="10.7917" y="18.3750"
textLength="21.5833" font-size="1.3333" lengthAdjust="spacingAndGlyphs"
text-anchor="middle" opacity="0" stroke-opacity="0">SW_MX_Slim_HotSwap_sqSilk</text>
<g class="stroked-text"><desc>SW_MX_Slim_HotSwap_sqSilk</desc>
<path d="M0.3155 18.2822
L0.4583 18.3298
" />
<path d="M0.4583 18.3298
L0.6964 18.3298
" />
<path d="M0.6964 18.3298
L0.7917 18.2822
" />
<path d="M0.7917 18.2822
L0.8393 18.2346
" />
<path d="M0.8393 18.2346
L0.8869 18.1393
" />
<path d="M0.8869 18.1393
L0.8869 18.0441
" />
<path d="M0.8869 18.0441
L0.8393 17.9489
" />
<path d="M0.8393 17.9489
L0.7917 17.9012
" />
<path d="M0.7917 17.9012
L0.6964 17.8536
" />
<path d="M0.6964 17.8536
L0.5060 17.8060
" />
<path d="M0.5060 17.8060
L0.4107 17.7584
" />
<path d="M0.4107 17.7584
L0.3631 17.7108
" />
<path d="M0.3631 17.7108
L0.3155 17.6155
" />
<path d="M0.3155 17.6155
L0.3155 17.5203
" />
<path d="M0.3155 17.5203
L0.3631 17.4251
" />
<path d="M0.3631 17.4251
L0.4107 17.3774
" />
<path d="M0.4107 17.3774
L0.5060 17.3298
" />
<path d="M0.5060 17.3298
L0.7440 17.3298
" />
<path d="M0.7440 17.3298
L0.8869 17.3774
" />
<path d="M1.2202 17.3298
L1.4583 18.3298
" />
<path d="M1.4583 18.3298
L1.6488 17.6155
" />
<path d="M1.6488 17.6155
L1.8393 18.3298
" />
<path d="M1.8393 18.3298
L2.0774 17.3298
" />
<path d="M2.2202 18.4251
L2.9821 18.4251
" />
<path d="M3.2202 18.3298
L3.2202 17.3298
" />
<path d="M3.2202 17.3298
L3.5536 18.0441
" />
<path d="M3.5536 18.0441
L3.8869 17.3298
" />
<path d="M3.8869 17.3298
L3.8869 18.3298
" />
<path d="M4.2679 17.3298
L4.9345 18.3298
" />
<path d="M4.9345 17.3298
L4.2679 18.3298
" />
<path d="M5.0774 18.4251
L5.8393 18.4251
" />
<path d="M6.0298 18.2822
L6.1726 18.3298
" />
<path d="M6.1726 18.3298
L6.4107 18.3298
" />
<path d="M6.4107 18.3298
L6.5060 18.2822
" />
<path d="M6.5060 18.2822
L6.5536 18.2346
" />
<path d="M6.5536 18.2346
L6.6012 18.1393
" />
<path d="M6.6012 18.1393
L6.6012 18.0441
" />
<path d="M6.6012 18.0441
L6.5536 17.9489
" />
<path d="M6.5536 17.9489
L6.5060 17.9012
" />
<path d="M6.5060 17.9012
L6.4107 17.8536
" />
<path d="M6.4107 17.8536
L6.2202 17.8060
" />
<path d="M6.2202 17.8060
L6.1250 17.7584
" />
<path d="M6.1250 17.7584
L6.0774 17.7108
" />
<path d="M6.0774 17.7108
L6.0298 17.6155
" />
<path d="M6.0298 17.6155
L6.0298 17.5203
" />
<path d="M6.0298 17.5203
L6.0774 17.4251
" />
<path d="M6.0774 17.4251
L6.1250 17.3774
" />
<path d="M6.1250 17.3774
L6.2202 17.3298
" />
<path d="M6.2202 17.3298
L6.4583 17.3298
" />
<path d="M6.4583 17.3298
L6.6012 17.3774
" />
<path d="M7.1726 18.3298
L7.0774 18.2822
" />
<path d="M7.0774 18.2822
L7.0298 18.1870
" />
<path d="M7.0298 18.1870
L7.0298 17.3298
" />
<path d="M7.5536 18.3298
L7.5536 17.6632
" />
<path d="M7.5536 17.3298
L7.5060 17.3774
" />
<path d="M7.5060 17.3774
L7.5536 17.4251
" />
<path d="M7.5536 17.4251
L7.6012 17.3774
" />
<path d="M7.6012 17.3774
L7.5536 17.3298
" />
<path d="M7.5536 17.3298
L7.5536 17.4251
" />
<path d="M8.0298 18.3298
L8.0298 17.6632
" />
<path d="M8.0298 17.7584
L8.0774 17.7108
" />
<path d="M8.0774 17.7108
L8.1726 17.6632
" />
<path d="M8.1726 17.6632
L8.3155 17.6632
" />
<path d="M8.3155 17.6632
L8.4107 17.7108
" />
<path d="M8.4107 17.7108
L8.4583 17.8060
" />
<path d="M8.4583 17.8060
L8.4583 18.3298
" />
<path d="M8.4583 17.8060
L8.5060 17.7108
" />
<path d="M8.5060 17.7108
L8.6012 17.6632
" />
<path d="M8.6012 17.6632
L8.7440 17.6632
" />
<path d="M8.7440 17.6632
L8.8393 17.7108
" />
<path d="M8.8393 17.7108
L8.8869 17.8060
" />
<path d="M8.8869 17.8060
L8.8869 18.3298
" />
<path d="M9.1250 18.4251
L9.8869 18.4251
" />
<path d="M10.1250 18.3298
L10.1250 17.3298
" />
<path d="M10.1250 17.8060
L10.6964 17.8060
" />
<path d="M10.6964 18.3298
L10.6964 17.3298
" />
<path d="M11.3155 18.3298
L11.2202 18.2822
" />
<path d="M11.2202 18.2822
L11.1726 18.2346
" />
<path d="M11.1726 18.2346
L11.1250 18.1393
" />
<path d="M11.1250 18.1393
L11.1250 17.8536
" />
<path d="M11.1250 17.8536
L11.1726 17.7584
" />
<path d="M11.1726 17.7584
L11.2202 17.7108
" />
<path d="M11.2202 17.7108
L11.3155 17.6632
" />
<path d="M11.3155 17.6632
L11.4583 17.6632
" />
<path d="M11.4583 17.6632
L11.5536 17.7108
" />
<path d="M11.5536 17.7108
L11.6012 17.7584
" />
<path d="M11.6012 17.7584
L11.6488 17.8536
" />
<path d="M11.6488 17.8536
L11.6488 18.1393
" />
<path d="M11.6488 18.1393
L11.6012 18.2346
" />
<path d="M11.6012 18.2346
L11.5536 18.2822
" />
<path d="M11.5536 18.2822
L11.4583 18.3298
" />
<path d="M11.4583 18.3298
L11.3155 18.3298
" />
<path d="M11.9345 17.6632
L12.3155 17.6632
" />
<path d="M12.0774 17.3298
L12.0774 18.1870
" />
<path d="M12.0774 18.1870
L12.1250 18.2822
" />
<path d="M12.1250 18.2822
L12.2202 18.3298
" />
<path d="M12.2202 18.3298
L12.3155 18.3298
" />
<path d="M12.6012 18.2822
L12.7440 18.3298
" />
<path d="M12.7440 18.3298
L12.9821 18.3298
" />
<path d="M12.9821 18.3298
L13.0774 18.2822
" />
<path d="M13.0774 18.2822
L13.1250 18.2346
" />
<path d="M13.1250 18.2346
L13.1726 18.1393
" />
<path d="M13.1726 18.1393
L13.1726 18.0441
" />
<path d="M13.1726 18.0441
L13.1250 17.9489
" />
<path d="M13.1250 17.9489
L13.0774 17.9012
" />
<path d="M13.0774 17.9012
L12.9821 17.8536
" />
<path d="M12.9821 17.8536
L12.7917 17.8060
" />
<path d="M12.7917 17.8060
L12.6964 17.7584
" />
<path d="M12.6964 17.7584
L12.6488 17.7108
" />
<path d="M12.6488 17.7108
L12.6012 17.6155
" />
<path d="M12.6012 17.6155
L12.6012 17.5203
" />
<path d="M12.6012 17.5203
L12.6488 17.4251
" />
<path d="M12.6488 17.4251
L12.6964 17.3774
" />
<path d="M12.6964 17.3774
L12.7917 17.3298
" />
<path d="M12.7917 17.3298
L13.0298 17.3298
" />
<path d="M13.0298 17.3298
L13.1726 17.3774
" />
<path d="M13.5060 17.6632
L13.6964 18.3298
" />
<path d="M13.6964 18.3298
L13.8869 17.8536
" />
<path d="M13.8869 17.8536
L14.0774 18.3298
" />
<path d="M14.0774 18.3298
L14.2679 17.6632
" />
<path d="M15.0774 18.3298
L15.0774 17.8060
" />
<path d="M15.0774 17.8060
L15.0298 17.7108
" />
<path d="M15.0298 17.7108
L14.9345 17.6632
" />
<path d="M14.9345 17.6632
L14.7440 17.6632
" />
<path d="M14.7440 17.6632
L14.6488 17.7108
" />
<path d="M15.0774 18.2822
L14.9821 18.3298
" />
<path d="M14.9821 18.3298
L14.7440 18.3298
" />
<path d="M14.7440 18.3298
L14.6488 18.2822
" />
<path d="M14.6488 18.2822
L14.6012 18.1870
" />
<path d="M14.6012 18.1870
L14.6012 18.0917
" />
<path d="M14.6012 18.0917
L14.6488 17.9965
" />
<path d="M14.6488 17.9965
L14.7440 17.9489
" />
<path d="M14.7440 17.9489
L14.9821 17.9489
" />
<path d="M14.9821 17.9489
L15.0774 17.9012
" />
<path d="M15.5536 17.6632
L15.5536 18.6632
" />
<path d="M15.5536 17.7108
L15.6488 17.6632
" />
<path d="M15.6488 17.6632
L15.8393 17.6632
" />
<path d="M15.8393 17.6632
L15.9345 17.7108
" />
<path d="M15.9345 17.7108
L15.9821 17.7584
" />
<path d="M15.9821 17.7584
L16.0298 17.8536
" />
<path d="M16.0298 17.8536
L16.0298 18.1393
" />
<path d="M16.0298 18.1393
L15.9821 18.2346
" />
<path d="M15.9821 18.2346
L15.9345 18.2822
" />
<path d="M15.9345 18.2822
L15.8393 18.3298
" />
<path d="M15.8393 18.3298
L15.6488 18.3298
" />
<path d="M15.6488 18.3298
L15.5536 18.2822
" />
<path d="M16.2202 18.4251
L16.9821 18.4251
" />
<path d="M17.1726 18.2822
L17.2679 18.3298
" />
<path d="M17.2679 18.3298
L17.4583 18.3298
" />
<path d="M17.4583 18.3298
L17.5536 18.2822
" />
<path d="M17.5536 18.2822
L17.6012 18.1870
" />
<path d="M17.6012 18.1870
L17.6012 18.1393
" />
<path d="M17.6012 18.1393
L17.5536 18.0441
" />
<path d="M17.5536 18.0441
L17.4583 17.9965
" />
<path d="M17.4583 17.9965
L17.3155 17.9965
" />
<path d="M17.3155 17.9965
L17.2202 17.9489
" />
<path d="M17.2202 17.9489
L17.1726 17.8536
" />
<path d="M17.1726 17.8536
L17.1726 17.8060
" />
<path d="M17.1726 17.8060
L17.2202 17.7108
" />
<path d="M17.2202 17.7108
L17.3155 17.6632
" />
<path d="M17.3155 17.6632
L17.4583 17.6632
" />
<path d="M17.4583 17.6632
L17.5536 17.7108
" />
<path d="M18.4583 17.6632
L18.4583 18.6632
" />
<path d="M18.4583 18.2822
L18.3631 18.3298
" />
<path d="M18.3631 18.3298
L18.1726 18.3298
" />
<path d="M18.1726 18.3298
L18.0774 18.2822
" />
<path d="M18.0774 18.2822
L18.0298 18.2346
" />
<path d="M18.0298 18.2346
L17.9821 18.1393
" />
<path d="M17.9821 18.1393
L17.9821 17.8536
" />
<path d="M17.9821 17.8536
L18.0298 17.7584
" />
<path d="M18.0298 17.7584
L18.0774 17.7108
" />
<path d="M18.0774 17.7108
L18.1726 17.6632
" />
<path d="M18.1726 17.6632
L18.3631 17.6632
" />
<path d="M18.3631 17.6632
L18.4583 17.7108
" />
<path d="M18.8869 18.2822
L19.0298 18.3298
" />
<path d="M19.0298 18.3298
L19.2679 18.3298
" />
<path d="M19.2679 18.3298
L19.3631 18.2822
" />
<path d="M19.3631 18.2822
L19.4107 18.2346
" />
<path d="M19.4107 18.2346
L19.4583 18.1393
" />
<path d="M19.4583 18.1393
L19.4583 18.0441
" />
<path d="M19.4583 18.0441
L19.4107 17.9489
" />
<path d="M19.4107 17.9489
L19.3631 17.9012
" />
<path d="M19.3631 17.9012
L19.2679 17.8536
" />
<path d="M19.2679 17.8536
L19.0774 17.8060
" />
<path d="M19.0774 17.8060
L18.9821 17.7584
" />
<path d="M18.9821 17.7584
L18.9345 17.7108
" />
<path d="M18.9345 17.7108
L18.8869 17.6155
" />
<path d="M18.8869 17.6155
L18.8869 17.5203
" />
<path d="M18.8869 17.5203
L18.9345 17.4251
" />
<path d="M18.9345 17.4251
L18.9821 17.3774
" />
<path d="M18.9821 17.3774
L19.0774 17.3298
" />
<path d="M19.0774 17.3298
L19.3155 17.3298
" />
<path d="M19.3155 17.3298
L19.4583 17.3774
" />
<path d="M19.8869 18.3298
L19.8869 17.6632
" />
<path d="M19.8869 17.3298
L19.8393 17.3774
" />
<path d="M19.8393 17.3774
L19.8869 17.4251
" />
<path d="M19.8869 17.4251
L19.9345 17.3774
" />
<path d="M19.9345 17.3774
L19.8869 17.3298
" />
<path d="M19.8869 17.3298
L19.8869 17.4251
" />
<path d="M20.5060 18.3298
L20.4107 18.2822
" />
<path d="M20.4107 18.2822
L20.3631 18.1870
" />
<path d="M20.3631 18.1870
L20.3631 17.3298
" />
<path d="M20.8869 18.3298
L20.8869 17.3298
" />
<path d="M20.9821 17.9489
L21.2679 18.3298
" />
<path d="M21.2679 17.6632
L20.8869 18.0441
" />
</g><text x="10.7917" y="19.9750"
textLength="4.5357" font-size="1.3333" lengthAdjust="spacingAndGlyphs"
text-anchor="middle" opacity="0" stroke-opacity="0">REF**</text>
<g class="stroked-text"><desc>REF**</desc>
<path d="M9.4583 19.9298
L9.1250 19.4536
" />
<path d="M8.8869 19.9298
L8.8869 18.9298
" />
<path d="M8.8869 18.9298
L9.2679 18.9298
" />
<path d="M9.2679 18.9298
L9.3631 18.9774
" />
<path d="M9.3631 18.9774
L9.4107 19.0251
" />
<path d="M9.4107 19.0251
L9.4583 19.1203
" />
<path d="M9.4583 19.1203
L9.4583 19.2632
" />
<path d="M9.4583 19.2632
L9.4107 19.3584
" />
<path d="M9.4107 19.3584
L9.3631 19.4060
" />
<path d="M9.3631 19.4060
L9.2679 19.4536
" />
<path d="M9.2679 19.4536
L8.8869 19.4536
" />
<path d="M9.8869 19.4060
L10.2202 19.4060
" />
<path d="M10.3631 19.9298
L9.8869 19.9298
" />
<path d="M9.8869 19.9298
L9.8869 18.9298
" />
<path d="M9.8869 18.9298
L10.3631 18.9298
" />
<path d="M11.1250 19.4060
L10.7917 19.4060
" />
<path d="M10.7917 19.9298
L10.7917 18.9298
" />
<path d="M10.7917 18.9298
L11.2679 18.9298
" />
<path d="M11.7917 18.9298
L11.7917 19.1679
" />
<path d="M11.5536 19.0727
L11.7917 19.1679
" />
<path d="M11.7917 19.1679
L12.0298 19.0727
" />
<path d="M11.6488 19.3584
L11.7917 19.1679
" />
<path d="M11.7917 19.1679
L11.9345 19.3584
" />
<path d="M12.5536 18.9298
L12.5536 19.1679
" />
<path d="M12.3155 19.0727
L12.5536 19.1679
" />
<path d="M12.5536 19.1679
L12.7917 19.0727
" />
<path d="M12.4107 19.3584
L12.5536 19.1679
" />
<path d="M12.5536 19.1679
L12.6964 19.3584
" />
</g></g>
<g style="fill:none; 
stroke:#AFAFAF; stroke-width:0.1000; stroke-opacity:1; 
stroke-linecap:round; stroke-linejoin:round;">
<path d="M3.9337 3.2250
L3.9337 5.7650
" />
<path d="M3.9337 5.7650
L5.7117 5.7650
" />
<path d="M5.7117 2.5900
L5.7117 7.0350
" />
<path d="M5.7117 3.2250
L3.9337 3.2250
" />
<path d="M5.7117 7.0350
L10.7917 7.0350
" />
<path d="M14.6017 2.5900
L5.7117 2.5900
" />
<path d="M17.1417 8.3050
L18.8943 8.3050
" />
<path d="M17.1417 8.9400
L13.3317 8.9400
" />
<path d="M17.1417 8.9400
L17.1417 5.1300
" />
<path d="M18.8943 5.7650
L17.1417 5.7650
" />
<path d="M18.8943 8.3050
L18.8943 5.7650
" />
<path style="fill:none; 
stroke:#AFAFAF; stroke-width:0.1000; stroke-opacity:1; 
stroke-linecap:round; stroke-linejoin:round;fill:none"
d="M 9.0417,13.1550
12.5417,13.1550
12.5417,16.1550
9.0417,16.1550
Z" /> 
<path d="M13.2558 8.9590 A2.5400 2.5400 0.0 0 0 10.7917 7.0350" />
<path d="M17.1417 5.1300 A2.5400 2.5400 0.0 0 0 14.6017 2.5900" />
</g>
<g style="fill:none; 
stroke:#AFAFAF; stroke-width:0.0212; stroke-opacity:1; 
stroke-linecap:round; stroke-linejoin:round;">
<circle cx="5.7117" cy="9.5750" r="0.8500" /> 
</g>
<g style="fill:none; 
stroke:#AFAFAF; stroke-width:0.0212; stroke-opacity:1; 
stroke-linecap:round; stroke-linejoin:round;">
<circle cx="8.2517" cy="4.4950" r="1.5000" /> 
</g>
<g style="fill:none; 
stroke:#AFAFAF; stroke-width:0.0212; stroke-opacity:1; 
stroke-linecap:round; stroke-linejoin:round;">
<circle cx="10.7917" cy="9.5750" r="2.0000" /> 
</g>
<g style="fill:none; 
stroke:#AFAFAF; stroke-width:0.0212; stroke-opacity:1; 
stroke-linecap:round; stroke-linejoin:round;">
<circle cx="14.6017" cy="7.0350" r="1.5000" /> 
</g>
<g style="fill:none; 
stroke:#AFAFAF; stroke-width:0.0212; stroke-opacity:1; 
stroke-linecap:round; stroke-linejoin:round;">
<circle cx="15.8717" cy="9.5750" r="0.8500" /> 
</g>
<g style="fill:none; 
stroke:#AFAFAF; stroke-width:0.0694; stroke-opacity:1; 
stroke-linecap:round; stroke-linejoin:round;">
<g transform="rotate(-90.000000 17.9799 7.0350)">
<text x="17.9799" y="7.4517"
textLength="0.8353" font-size="1.1111" lengthAdjust="spacingAndGlyphs"
text-anchor="middle" opacity="0" stroke-opacity="0">1</text>
</g>
<g class="stroked-text"><desc>1</desc>
<path d="M18.3618 6.7969
L18.3618 7.2731
" />
<path d="M18.3618 7.0350
L17.5284 7.0350
" />
<path d="M17.5284 7.0350
L17.6475 7.1144
" />
<path d="M17.6475 7.1144
L17.7269 7.1937
" />
<path d="M17.7269 7.1937
L17.7665 7.2731
" />
</g><path style="fill:none; 
stroke:#AFAFAF; stroke-width:0.0212; stroke-opacity:1; 
stroke-linecap:round; stroke-linejoin:round;fill:none"
d="M 17.0799,6.0350
17.0989,5.9393
17.1531,5.8582
17.2342,5.8040
17.3299,5.7850
18.6299,5.7850
18.7255,5.8040
18.8066,5.8582
18.8608,5.9393
18.8799,6.0350
18.8799,8.0350
18.8608,8.1307
18.8066,8.2118
18.7255,8.2660
18.6299,8.2850
17.3299,8.2850
17.2342,8.2660
17.1531,8.2118
17.0989,8.1307
17.0799,8.0350
Z" /> 
</g>
<g style="fill:none; 
stroke:#AFAFAF; stroke-width:0.0694; stroke-opacity:1; 
stroke-linecap:round; stroke-linejoin:round;">
<g transform="rotate(-90.000000 4.8735 4.4950)">
<text x="4.8735" y="4.9117"
textLength="0.8353" font-size="1.1111" lengthAdjust="spacingAndGlyphs"
text-anchor="middle" opacity="0" stroke-opacity="0">2</text>
</g>
<g class="stroked-text"><desc>2</desc>
<path d="M4.5014 4.7331
L4.4617 4.6934
" />
<path d="M4.4617 4.6934
L4.4220 4.6140
" />
<path d="M4.4220 4.6140
L4.4220 4.4156
" />
<path d="M4.4220 4.4156
L4.4617 4.3363
" />
<path d="M4.4617 4.3363
L4.5014 4.2966
" />
<path d="M4.5014 4.2966
L4.5808 4.2569
" />
<path d="M4.5808 4.2569
L4.6601 4.2569
" />
<path d="M4.6601 4.2569
L4.7792 4.2966
" />
<path d="M4.7792 4.2966
L5.2554 4.7728
" />
<path d="M5.2554 4.7728
L5.2554 4.2569
" />
</g><path style="fill:none; 
stroke:#AFAFAF; stroke-width:0.0212; stroke-opacity:1; 
stroke-linecap:round; stroke-linejoin:round;fill:none"
d="M 3.9735,3.4950
3.9925,3.3993
4.0467,3.3182
4.1278,3.2640
4.2235,3.2450
5.5235,3.2450
5.6191,3.2640
5.7002,3.3182
5.7544,3.3993
5.7735,3.4950
5.7735,5.4950
5.7544,5.5907
5.7002,5.6718
5.6191,5.7260
5.5235,5.7450
4.2235,5.7450
4.1278,5.7260
4.0467,5.6718
3.9925,5.5907
3.9735,5.4950
Z" /> 
<path style="fill:none; 
stroke:#C2C2C2; stroke-width:0.1000; stroke-opacity:1; 
stroke-linecap:round; stroke-linejoin:round;fill:none"
d="M 1.2667,0.0500
20.3167,0.0500
20.3167,19.1000
1.2667,19.1000
Z" /> 
</g> 
</svg>
