<svg xmlns="http://www.w3.org/2000/svg" width="96.096" height="80.928" viewBox="0 0 25.425 21.412">
    <g style="fill:none;stroke:#e8b2a7;stroke-width:.12;stroke-opacity:1;stroke-linecap:round;stroke-linejoin:round">
        <path d="M5.62 2.875v13.4M6.02 16.675h13.4M19.42 2.475H6.02M19.82 16.275v-13.4M6.02 2.475a.4.4 0 0 0-.4.4M5.62 16.275a.4.4 0 0 0 .4.4M19.82 2.875a.4.4 0 0 0-.4-.4M19.42 16.675a.4.4 0 0 0 .4-.4"/>
    </g>
    <g class="stroked-text" style="fill:none;stroke:#f2eda1;stroke-width:.15;stroke-opacity:1;stroke-linecap:round;stroke-linejoin:round">
        <path d="m11.387 7.03-.333-.476M10.816 7.03v-1M10.816 6.03h.38M11.196 6.03l.096.047M11.292 6.077l.047.048M11.34 6.125l.047.095M11.387 6.22v.143M11.387 6.363l-.048.095M11.34 6.458l-.048.048M11.292 6.506l-.096.048M11.196 6.554h-.38M11.816 6.506h.333M12.292 7.03h-.476M11.816 7.03v-1M11.816 6.03h.476M13.054 6.506h-.334M12.72 7.03v-1M12.72 6.03h.476M13.72 6.03v.238M13.482 6.173l.238.095M13.72 6.268l.238-.095M13.577 6.458l.143-.19M13.72 6.268l.143.19M14.482 6.03v.238M14.244 6.173l.238.095M14.482 6.268l.238-.095M14.34 6.458l.142-.19M14.482 6.268l.143.19"/>
    </g>
    <g style="fill:none;stroke:#f2eda1;stroke-width:.12;stroke-opacity:1;stroke-linecap:round;stroke-linejoin:round">
        <path d="M6.37 14.02v-.355M8.91 16.56h8.89M10.256 10.21H8.53M17.8 12.115h-5.08M17.8 12.115v.99M17.8 16.56v-.355M6.37 14.02a2.54 2.54 0 0 0 2.54 2.54M10.26 10.209a2.54 2.54 0 0 0 2.46 1.906"/>
        <path stroke="none" d="m20.285 15.655-.019.096-.054.08-.081.055-.096.019h-2.05l-.095-.019-.082-.054-.054-.081-.019-.096v-2l.02-.096.053-.08.082-.055.095-.019h2.05l.096.019.081.054.054.081.02.096ZM6.435 13.115l-.019.096-.054.08-.081.055-.096.019h-2.05l-.095-.019-.082-.054-.054-.081-.019-.096v-2l.02-.096.054-.08.08-.055.096-.019h2.05l.096.019.081.054.054.081.02.096Z" style="fill:#b4a09a;fill-opacity:.9;stroke:none;fill-rule:evenodd"/>
    </g>
    <g style="fill:none;stroke:#4d7fc4;stroke-width:1;stroke-opacity:1;stroke-linecap:round;stroke-linejoin:round">
        <path d="M15.42 17.075h-.4M10.42 17.075h-.4M12.92 17.075h-.4"/>
        <path stroke="none" d="M8.19 8.675v1.66l-.88.74h-.52l-.6-.6v-2.2l.02-.08.04-.06.06-.04.08-.02h1.2ZM19.25 10.875l-.015.076-.043.065-.065.044-.077.015h-1.2l-.6-.6v-1.8l.6-.6h1.2l.077.015.065.044.043.064.015.077Z" style="fill:#4d7fc4;fill-opacity:1;stroke:none;fill-rule:evenodd"/>
    </g>
    <path d="M15.42 2.575h-.4" style="fill:none;stroke:#4d7fc4;stroke-width:1;stroke-opacity:1;stroke-linecap:round;stroke-linejoin:round"/>
    <circle cx="16.53" cy="7.035" r="1.15" style="fill:#4d7fc4;fill-opacity:1;stroke:none"/>
    <circle cx="10.18" cy="4.495" r="1.15" style="fill:#4d7fc4;fill-opacity:1;stroke:none"/>
    <path d="M10.42 2.575h-.4" style="fill:none;stroke:#4d7fc4;stroke-width:1;stroke-opacity:1;stroke-linecap:round;stroke-linejoin:round"/>
    <g style="fill:none;stroke:#c83434;stroke-width:1;stroke-opacity:1;stroke-linecap:round;stroke-linejoin:round">
        <path d="M15.42 17.075h-.4M10.42 17.075h-.4M12.92 17.075h-.4"/>
        <path stroke="none" d="M8.19 8.675v1.66l-.88.74h-.52l-.6-.6v-2.2l.02-.08.04-.06.06-.04.08-.02h1.2ZM19.25 10.875l-.015.076-.043.065-.065.044-.077.015h-1.2l-.6-.6v-1.8l.6-.6h1.2l.077.015.065.044.043.064.015.077Z" style="fill:#c83434;fill-opacity:1;stroke:none;fill-rule:evenodd"/>
    </g>
    <path d="M15.42 2.575h-.4" style="fill:none;stroke:#c83434;stroke-width:1;stroke-opacity:1;stroke-linecap:round;stroke-linejoin:round"/>
    <g style="fill:#c83434;fill-opacity:1;stroke:none">
        <circle cx="16.53" cy="7.035" r="1.15"/>
        <path d="m20.285 15.655-.019.096-.054.08-.081.055-.096.019h-2.05l-.095-.019-.082-.054-.054-.081-.019-.096v-2l.02-.096.053-.08.082-.055.095-.019h2.05l.096.019.081.054.054.081.02.096ZM6.435 13.115l-.019.096-.054.08-.081.055-.096.019h-2.05l-.095-.019-.082-.054-.054-.081-.019-.096v-2l.02-.096.054-.08.08-.055.096-.019h2.05l.096.019.081.054.054.081.02.096Z" style="fill:#c83434;fill-opacity:1;stroke:none;fill-rule:evenodd"/>
    </g>
    <circle cx="10.18" cy="4.495" r="1.15" style="fill:#c83434;fill-opacity:1;stroke:none"/>
    <g style="fill:none;stroke:#c83434;stroke-width:1;stroke-opacity:1;stroke-linecap:round;stroke-linejoin:round">
        <path d="M10.42 2.575h-.4"/>
        <path d="M5.72 2.575h14v14h-14Z" style="stroke:#585d84;stroke-width:.1;stroke-opacity:1;stroke-linecap:round;stroke-linejoin:round;fill:none"/>
    </g>
    <circle cx="8.91" cy="12.115" r="1.5" style="fill:none;stroke:#585d84;stroke-width:.0212;stroke-opacity:1;stroke-linecap:round;stroke-linejoin:round"/>
    <circle cx="12.72" cy="9.575" r="2" style="fill:none;stroke:#585d84;stroke-width:.0212;stroke-opacity:1;stroke-linecap:round;stroke-linejoin:round"/>
    <circle cx="12.72" cy="9.575" r="2" style="fill:none;stroke:#585d84;stroke-width:.0212;stroke-opacity:1;stroke-linecap:round;stroke-linejoin:round"/>
    <circle cx="12.72" cy="9.575" r="2" style="fill:none;stroke:#585d84;stroke-width:.0212;stroke-opacity:1;stroke-linecap:round;stroke-linejoin:round"/>
    <circle cx="15.26" cy="14.655" r="1.5" style="fill:none;stroke:#585d84;stroke-width:.0212;stroke-opacity:1;stroke-linecap:round;stroke-linejoin:round"/>
    <g class="stroked-text" style="fill:none;stroke:#585d84;stroke-width:.0389;stroke-opacity:1;stroke-linecap:round;stroke-linejoin:round">
        <path d="M15.11 17.156h.221M15.065 17.289l.155-.467M15.22 16.822l.156.467"/>
    </g>
    <g style="fill:none;stroke:#585d84;stroke-width:.0212;stroke-opacity:1;stroke-linecap:round;stroke-linejoin:round">
        <path d="M15.42 16.575h-.4M15.02 16.575a.5.5 0 0 0 0 1M15.02 17.575h.4M15.42 17.575a.5.5 0 0 0 0-1"/>
    </g>
    <g class="stroked-text" style="fill:none;stroke:#585d84;stroke-width:.0389;stroke-opacity:1;stroke-linecap:round;stroke-linejoin:round">
        <path d="m10.254 17.044.066.023M10.32 17.067l.022.022M10.343 17.089l.022.044M10.365 17.133v.067M10.365 17.2l-.023.044M10.343 17.244l-.023.023M10.32 17.267l-.044.022M10.276 17.289h-.178M10.098 17.289v-.467M10.098 16.822h.156M10.254 16.822l.044.022M10.298 16.844l.022.023M10.32 16.867l.022.044M10.343 16.911v.044M10.343 16.956 10.32 17M10.32 17l-.022.022M10.298 17.022l-.044.022M10.254 17.044h-.156"/>
    </g>
    <g style="fill:none;stroke:#585d84;stroke-width:.0212;stroke-opacity:1;stroke-linecap:round;stroke-linejoin:round">
        <path d="M10.42 16.575h-.4M10.02 16.575a.5.5 0 0 0 0 1M10.02 17.575h.4M10.42 17.575a.5.5 0 0 0 0-1"/>
    </g>
    <g class="stroked-text" style="fill:none;stroke:#585d84;stroke-width:.0389;stroke-opacity:1;stroke-linecap:round;stroke-linejoin:round">
        <path d="m12.865 17.244-.023.023M12.843 17.267l-.067.022M12.776 17.289h-.045M12.731 17.289l-.066-.022M12.665 17.267l-.045-.045M12.62 17.222l-.022-.044M12.598 17.178l-.022-.09M12.576 17.089v-.067M12.576 17.022l.022-.089M12.598 16.933l.022-.044M12.62 16.889l.045-.045M12.665 16.844l.066-.022M12.731 16.822h.045M12.776 16.822l.066.022M12.843 16.844l.022.023"/>
    </g>
    <g style="fill:none;stroke:#585d84;stroke-width:.0212;stroke-opacity:1;stroke-linecap:round;stroke-linejoin:round">
        <path d="M12.92 16.575h-.4M12.52 16.575a.5.5 0 0 0 0 1M12.52 17.575h.4M12.92 17.575a.5.5 0 0 0 0-1"/>
    </g>
    <g style="fill:none;stroke:#585d84;stroke-width:.0833;stroke-opacity:1;stroke-linecap:round;stroke-linejoin:round">
        <g class="stroked-text">
            <path d="M7.649 10.408h-1M6.649 10.408l.714-.333M7.363 10.075l-.715-.333M6.649 9.742h1M7.649 9.266h-1M6.649 9.266v-.382M6.649 8.885l.047-.096M6.696 8.79l.048-.048M6.744 8.742l.095-.048M6.839 8.694h.143M6.982 8.694l.095.048M7.077 8.742l.048.047M7.125 8.79l.047.095M7.172 8.885v.38"/>
        </g>
        <path d="M8.19 8.675v1.66l-.88.74h-.52l-.6-.6v-2.2l.02-.08.04-.06.06-.04.08-.02h1.2Z" style="stroke:#585d84;stroke-width:.0212;stroke-opacity:1;stroke-linecap:round;stroke-linejoin:round;fill:none"/>
    </g>
    <g style="fill:none;stroke:#585d84;stroke-width:.0833;stroke-opacity:1;stroke-linecap:round;stroke-linejoin:round">
        <g class="stroked-text">
            <path d="M18.709 10.408h-1M17.709 10.408l.714-.333M18.423 10.075l-.714-.333M17.709 9.742h1M18.709 9.266h-1M17.709 9.266v-.382M17.709 8.885l.047-.096M17.756 8.79l.048-.048M17.804 8.742l.095-.048M17.899 8.694h.143M18.042 8.694l.095.048M18.137 8.742l.048.047M18.185 8.79l.047.095M18.232 8.885v.38"/>
        </g>
        <path d="m19.25 10.875-.015.076-.043.065-.065.044-.077.015h-1.2l-.6-.6v-1.8l.6-.6h1.2l.077.015.065.044.043.064.015.077Z" style="stroke:#585d84;stroke-width:.0212;stroke-opacity:1;stroke-linecap:round;stroke-linejoin:round;fill:none"/>
    </g>
    <g class="stroked-text" style="fill:none;stroke:#585d84;stroke-width:.0389;stroke-opacity:1;stroke-linecap:round;stroke-linejoin:round">
        <path d="m14.865 2.767.066.022M14.931 2.789h.112M15.043 2.789l.044-.022M15.087 2.767l.022-.023M15.11 2.744l.021-.044M15.131 2.7v-.045M15.131 2.656l-.022-.045M15.11 2.611l-.023-.022M15.087 2.589l-.044-.022M15.043 2.567l-.09-.023M14.954 2.544l-.045-.022M14.91 2.522l-.023-.022M14.887 2.5l-.022-.045M14.865 2.456V2.41M14.865 2.411l.022-.044M14.887 2.367l.022-.023M14.91 2.344l.044-.022M14.954 2.322h.11M15.065 2.322l.066.022M15.576 2.789h-.267M15.443 2.789v-.467M15.443 2.322l-.045.067M15.398 2.389l-.044.044M15.354 2.433l-.045.022"/>
    </g>
    <g style="fill:none;stroke:#585d84;stroke-width:.0212;stroke-opacity:1;stroke-linecap:round;stroke-linejoin:round">
        <path d="M15.42 2.075h-.4M15.02 2.075a.5.5 0 0 0 0 1M15.02 3.075h.4M15.42 3.075a.5.5 0 0 0 0-1"/>
    </g>
    <g class="stroked-text" style="fill:none;stroke:#585d84;stroke-width:.0639;stroke-opacity:1;stroke-linecap:round;stroke-linejoin:round">
        <path d="m15.946 7.35.11.036M16.056 7.386h.182M16.238 7.386l.073-.036M16.311 7.35l.037-.037M16.348 7.313l.036-.073M16.384 7.24v-.073M16.384 7.167l-.036-.073M16.348 7.094l-.037-.036M16.311 7.058l-.073-.037M16.238 7.021l-.146-.036M16.092 6.985l-.073-.037M16.02 6.948l-.037-.036M15.983 6.912l-.037-.073M15.946 6.839v-.073M15.946 6.766l.037-.073M15.983 6.693l.036-.037M16.02 6.656l.072-.036M16.092 6.62h.183M16.275 6.62l.11.036M17.114 7.386h-.438M16.895 7.386V6.62M16.895 6.62l-.073.11M16.822 6.73l-.073.072M16.75 6.802l-.074.037"/>
    </g>
    <circle cx="16.53" cy="7.035" r="1.15" style="fill:none;stroke:#585d84;stroke-width:.0212;stroke-opacity:1;stroke-linecap:round;stroke-linejoin:round"/>
    <g class="stroked-text" style="fill:none;stroke:#585d84;stroke-width:.0639;stroke-opacity:1;stroke-linecap:round;stroke-linejoin:round">
        <path d="m9.596 4.81.11.036M9.706 4.846h.182M9.888 4.846l.073-.036M9.961 4.81l.037-.037M9.998 4.773l.036-.073M10.034 4.7v-.073M10.034 4.627l-.036-.073M9.998 4.554l-.037-.036M9.961 4.518l-.073-.037M9.888 4.481l-.146-.036M9.742 4.445l-.073-.037M9.67 4.408l-.037-.036M9.633 4.372l-.037-.073M9.596 4.299v-.073M9.596 4.226l.037-.073M9.633 4.153l.036-.037M9.67 4.116l.072-.036M9.742 4.08h.183M9.925 4.08l.11.036M10.326 4.153l.037-.037M10.363 4.116l.073-.036M10.436 4.08h.182M10.618 4.08l.073.036M10.691 4.116l.037.037M10.728 4.153l.036.073M10.764 4.226v.073M10.764 4.299l-.036.11M10.728 4.408l-.438.438M10.29 4.846h.474"/>
    </g>
    <circle cx="10.18" cy="4.495" r="1.15" style="fill:none;stroke:#585d84;stroke-width:.0212;stroke-opacity:1;stroke-linecap:round;stroke-linejoin:round"/>
    <g class="stroked-text" style="fill:none;stroke:#585d84;stroke-width:.0389;stroke-opacity:1;stroke-linecap:round;stroke-linejoin:round">
        <path d="m9.865 2.767.066.022M9.931 2.789h.112M10.043 2.789l.044-.022M10.087 2.767l.022-.023M10.11 2.744l.021-.044M10.131 2.7v-.045M10.131 2.656l-.022-.045M10.11 2.611l-.023-.022M10.087 2.589l-.044-.022M10.043 2.567l-.09-.023M9.954 2.544l-.045-.022M9.91 2.522 9.886 2.5M9.887 2.5l-.022-.045M9.865 2.456V2.41M9.865 2.411l.022-.044M9.887 2.367l.022-.023M9.91 2.344l.044-.022M9.954 2.322h.11M10.065 2.322l.066.022M10.31 2.367l.021-.023M10.331 2.344l.045-.022M10.376 2.322h.11M10.487 2.322l.044.022M10.531 2.344l.023.023M10.554 2.367l.022.044M10.576 2.411v.044M10.576 2.456l-.022.066M10.554 2.522l-.267.267M10.287 2.789h.289"/>
    </g>
    <g style="fill:none;stroke:#585d84;stroke-width:.0212;stroke-opacity:1;stroke-linecap:round;stroke-linejoin:round">
        <path d="M10.42 2.075h-.4M10.02 2.075a.5.5 0 0 0 0 1M10.02 3.075h.4M10.42 3.075a.5.5 0 0 0 0-1"/>
    </g>
    <g style="fill:none;stroke:#afafaf;stroke-width:.15;stroke-opacity:1;stroke-linecap:round;stroke-linejoin:round">
        <g class="stroked-text">
            <path d="m.316 19.382.142.048M.458 19.43h.238M.696 19.43l.096-.048M.792 19.382l.047-.047M.84 19.335l.047-.096M.887 19.24v-.096M.887 19.144l-.048-.095M.84 19.049.791 19M.792 19.001l-.096-.047M.696 18.954l-.19-.048M.506 18.906l-.095-.048M.41 18.858l-.047-.047M.363 18.81l-.047-.095M.316 18.716v-.096M.316 18.62l.047-.095M.363 18.525l.048-.048M.41 18.477l.096-.047M.506 18.43h.238M.744 18.43l.143.047M1.22 18.43l.238 1M1.458 19.43l.19-.715M1.649 18.716l.19.714M1.84 19.43l.237-1M2.22 19.525h.762M3.22 19.43v-1M3.22 18.43l.334.714M3.554 19.144l.333-.714M3.887 18.43v1M4.268 18.43l.667 1M4.935 18.43l-.667 1M5.077 19.525h.762M6.077 18.906h.334M6.554 19.43h-.477M6.077 19.43v-1M6.077 18.43h.477M7.554 19.335l-.048.047M7.506 19.382l-.143.048M7.363 19.43h-.095M7.268 19.43l-.143-.048M7.125 19.382l-.095-.095M7.03 19.287l-.048-.095M6.982 19.192l-.048-.19M6.935 19.001v-.143M6.935 18.858l.047-.19M6.982 18.668l.048-.095M7.03 18.573l.095-.096M7.125 18.477l.143-.047M7.268 18.43h.095M7.363 18.43l.143.047M7.506 18.477l.048.048M8.506 19.43h-.572M8.22 19.43v-1M8.22 18.43l-.095.143M8.125 18.573l-.095.095M8.03 18.668l-.095.047M9.458 19.43h-.571M9.173 19.43v-1M9.173 18.43l-.096.143M9.077 18.573l-.095.095M8.982 18.668l-.095.047M9.649 19.525h.762M10.649 19.43v-1M10.649 18.906h.571M11.22 19.43v-1M11.84 19.43l-.096-.048M11.744 19.382l-.048-.047M11.696 19.335l-.047-.096M11.649 19.24v-.286M11.649 18.954l.047-.096M11.696 18.858l.048-.047M11.744 18.81l.095-.047M11.84 18.763h.142M11.982 18.763l.095.048M12.077 18.81l.048.048M12.125 18.858l.048.096M12.173 18.954v.285M12.173 19.24l-.048.095M12.125 19.335l-.048.047M12.077 19.382l-.095.048M11.982 19.43h-.143M12.458 18.763h.381M12.601 18.43v.857M12.601 19.287l.048.095M12.649 19.382l.095.048M12.744 19.43h.095M13.125 19.382l.143.048M13.268 19.43h.238M13.506 19.43l.095-.048M13.601 19.382l.048-.047M13.649 19.335l.047-.096M13.696 19.24v-.096M13.696 19.144l-.047-.095M13.649 19.049 13.6 19M13.601 19.001l-.095-.047M13.506 18.954l-.19-.048M13.316 18.906l-.096-.048M13.22 18.858l-.047-.047M13.173 18.81l-.048-.095M13.125 18.716v-.096M13.125 18.62l.048-.095M13.173 18.525l.047-.048M13.22 18.477l.095-.047M13.316 18.43h.238M13.554 18.43l.142.047M14.03 18.763l.19.667M14.22 19.43l.19-.476M14.41 18.954l.191.476M14.601 19.43l.19-.667M15.601 19.43v-.524M15.601 18.906l-.047-.095M15.554 18.81l-.096-.047M15.458 18.763h-.19M15.268 18.763l-.095.048M15.601 19.382l-.095.048M15.506 19.43h-.238M15.268 19.43l-.095-.048M15.173 19.382l-.048-.095M15.125 19.287v-.095M15.125 19.192l.048-.096M15.173 19.097l.095-.048M15.268 19.049h.238M15.506 19.049l.095-.048M16.077 18.763v1M16.077 18.81l.096-.047M16.173 18.763h.19M16.363 18.763l.095.048M16.458 18.81l.048.048M16.506 18.858l.048.096M16.554 18.954v.285M16.554 19.24l-.048.095M16.506 19.335l-.048.047M16.458 19.382l-.095.048M16.363 19.43h-.19M16.173 19.43l-.096-.048M16.744 19.525h.762M17.601 18.43h.572M17.887 19.43v-1M18.506 19.43v-1M18.506 18.906h.571M19.077 19.43v-1M19.41 18.43h.572M19.696 19.43v-1M20.077 19.525h.762M21.03 19.382l.095.048M21.125 19.43h.19M21.316 19.43l.095-.048M21.41 19.382l.048-.095M21.458 19.287v-.048M21.458 19.24l-.047-.096M21.41 19.144l-.095-.047M21.316 19.097h-.143M21.173 19.097l-.096-.048M21.077 19.049l-.047-.095M21.03 18.954v-.048M21.03 18.906l.047-.095M21.077 18.81l.096-.047M21.173 18.763h.143M21.316 18.763l.095.048M22.316 18.763v1M22.316 19.382l-.096.048M22.22 19.43h-.19M22.03 19.43l-.096-.048M21.935 19.382l-.048-.047M21.887 19.335l-.048-.096M21.84 19.24v-.286M21.84 18.954l.047-.096M21.887 18.858l.047-.047M21.935 18.81l.095-.047M22.03 18.763h.19M22.22 18.763l.096.048M22.744 19.382l.143.048M22.887 19.43h.238M23.125 19.43l.095-.048M23.22 19.382l.048-.047M23.268 19.335l.047-.096M23.316 19.24v-.096M23.316 19.144l-.048-.095M23.268 19.049 23.22 19M23.22 19.001l-.095-.047M23.125 18.954l-.19-.048M22.935 18.906l-.096-.048M22.84 18.858l-.048-.047M22.792 18.81l-.048-.095M22.744 18.716v-.096M22.744 18.62l.048-.095M22.792 18.525l.047-.048M22.84 18.477l.095-.047M22.935 18.43h.238M23.173 18.43l.143.047M23.744 19.43v-.667M23.744 18.43l-.048.047M23.696 18.477l.048.048M23.744 18.525l.048-.048M23.792 18.477l-.048-.047M23.744 18.43v.095M24.363 19.43l-.095-.048M24.268 19.382l-.048-.095M24.22 19.287v-.857M24.744 19.43v-1M24.84 19.049l.285.38M25.125 18.763l-.381.381"/>
        </g>
        <g class="stroked-text">
            <path d="m11.387 21.03-.333-.476M10.816 21.03v-1M10.816 20.03h.38M11.196 20.03l.096.047M11.292 20.077l.047.048M11.34 20.125l.047.095M11.387 20.22v.143M11.387 20.363l-.048.095M11.34 20.458l-.048.048M11.292 20.506l-.096.048M11.196 20.554h-.38M11.816 20.506h.333M12.292 21.03h-.476M11.816 21.03v-1M11.816 20.03h.476M13.054 20.506h-.334M12.72 21.03v-1M12.72 20.03h.476M13.72 20.03v.238M13.482 20.173l.238.095M13.72 20.268l.238-.095M13.577 20.458l.143-.19M13.72 20.268l.143.19M14.482 20.03v.238M14.244 20.173l.238.095M14.482 20.268l.238-.095M14.34 20.458l.142-.19M14.482 20.268l.143.19"/>
        </g>
    </g>
    <g style="fill:none;stroke:#afafaf;stroke-width:.1;stroke-opacity:1;stroke-linecap:round;stroke-linejoin:round">
        <path d="M3.83 10.845v2.54M3.83 13.385h2.54M6.37 10.21v3.81M6.37 10.21h3.81M6.37 10.845H3.83M8.91 16.56h8.89M17.8 12.115h-5.08M17.8 15.925h2.54M17.8 16.56v-4.445M20.34 13.385H17.8M20.34 15.925v-2.54M6.37 14.02a2.54 2.54 0 0 0 2.54 2.54M10.256 10.191a2.54 2.54 0 0 0 2.464 1.924"/>
    </g>
    <circle cx="8.91" cy="12.115" r="1.5" style="fill:none;stroke:#afafaf;stroke-width:.0212;stroke-opacity:1;stroke-linecap:round;stroke-linejoin:round"/>
    <circle cx="12.72" cy="9.575" r="2" style="fill:none;stroke:#afafaf;stroke-width:.0212;stroke-opacity:1;stroke-linecap:round;stroke-linejoin:round"/>
    <circle cx="12.72" cy="9.575" r="2" style="fill:none;stroke:#afafaf;stroke-width:.0212;stroke-opacity:1;stroke-linecap:round;stroke-linejoin:round"/>
    <circle cx="12.72" cy="9.575" r="2" style="fill:none;stroke:#afafaf;stroke-width:.0212;stroke-opacity:1;stroke-linecap:round;stroke-linejoin:round"/>
    <circle cx="15.26" cy="14.655" r="1.5" style="fill:none;stroke:#afafaf;stroke-width:.0212;stroke-opacity:1;stroke-linecap:round;stroke-linejoin:round"/>
    <g class="stroked-text" style="fill:none;stroke:#afafaf;stroke-width:.0389;stroke-opacity:1;stroke-linecap:round;stroke-linejoin:round">
        <path d="M15.11 17.156h.221M15.065 17.289l.155-.467M15.22 16.822l.156.467"/>
    </g>
    <g style="fill:none;stroke:#afafaf;stroke-width:.0212;stroke-opacity:1;stroke-linecap:round;stroke-linejoin:round">
        <path d="M15.42 16.575h-.4M15.02 16.575a.5.5 0 0 0 0 1M15.02 17.575h.4M15.42 17.575a.5.5 0 0 0 0-1"/>
    </g>
    <g class="stroked-text" style="fill:none;stroke:#afafaf;stroke-width:.0389;stroke-opacity:1;stroke-linecap:round;stroke-linejoin:round">
        <path d="m10.254 17.044.066.023M10.32 17.067l.022.022M10.343 17.089l.022.044M10.365 17.133v.067M10.365 17.2l-.023.044M10.343 17.244l-.023.023M10.32 17.267l-.044.022M10.276 17.289h-.178M10.098 17.289v-.467M10.098 16.822h.156M10.254 16.822l.044.022M10.298 16.844l.022.023M10.32 16.867l.022.044M10.343 16.911v.044M10.343 16.956 10.32 17M10.32 17l-.022.022M10.298 17.022l-.044.022M10.254 17.044h-.156"/>
    </g>
    <g style="fill:none;stroke:#afafaf;stroke-width:.0212;stroke-opacity:1;stroke-linecap:round;stroke-linejoin:round">
        <path d="M10.42 16.575h-.4M10.02 16.575a.5.5 0 0 0 0 1M10.02 17.575h.4M10.42 17.575a.5.5 0 0 0 0-1"/>
    </g>
    <g class="stroked-text" style="fill:none;stroke:#afafaf;stroke-width:.0389;stroke-opacity:1;stroke-linecap:round;stroke-linejoin:round">
        <path d="m12.865 17.244-.023.023M12.843 17.267l-.067.022M12.776 17.289h-.045M12.731 17.289l-.066-.022M12.665 17.267l-.045-.045M12.62 17.222l-.022-.044M12.598 17.178l-.022-.09M12.576 17.089v-.067M12.576 17.022l.022-.089M12.598 16.933l.022-.044M12.62 16.889l.045-.045M12.665 16.844l.066-.022M12.731 16.822h.045M12.776 16.822l.066.022M12.843 16.844l.022.023"/>
    </g>
    <g style="fill:none;stroke:#afafaf;stroke-width:.0212;stroke-opacity:1;stroke-linecap:round;stroke-linejoin:round">
        <path d="M12.92 16.575h-.4M12.52 16.575a.5.5 0 0 0 0 1M12.52 17.575h.4M12.92 17.575a.5.5 0 0 0 0-1"/>
    </g>
    <g style="fill:none;stroke:#afafaf;stroke-width:.0833;stroke-opacity:1;stroke-linecap:round;stroke-linejoin:round">
        <g class="stroked-text">
            <path d="M7.649 10.408h-1M6.649 10.408l.714-.333M7.363 10.075l-.715-.333M6.649 9.742h1M7.649 9.266h-1M6.649 9.266v-.382M6.649 8.885l.047-.096M6.696 8.79l.048-.048M6.744 8.742l.095-.048M6.839 8.694h.143M6.982 8.694l.095.048M7.077 8.742l.048.047M7.125 8.79l.047.095M7.172 8.885v.38"/>
        </g>
        <path d="M8.19 8.675v1.66l-.88.74h-.52l-.6-.6v-2.2l.02-.08.04-.06.06-.04.08-.02h1.2Z" style="stroke:#afafaf;stroke-width:.0212;stroke-opacity:1;stroke-linecap:round;stroke-linejoin:round;fill:none"/>
    </g>
    <g style="fill:none;stroke:#afafaf;stroke-width:.0833;stroke-opacity:1;stroke-linecap:round;stroke-linejoin:round">
        <g class="stroked-text">
            <path d="M18.709 10.408h-1M17.709 10.408l.714-.333M18.423 10.075l-.714-.333M17.709 9.742h1M18.709 9.266h-1M17.709 9.266v-.382M17.709 8.885l.047-.096M17.756 8.79l.048-.048M17.804 8.742l.095-.048M17.899 8.694h.143M18.042 8.694l.095.048M18.137 8.742l.048.047M18.185 8.79l.047.095M18.232 8.885v.38"/>
        </g>
        <path d="m19.25 10.875-.015.076-.043.065-.065.044-.077.015h-1.2l-.6-.6v-1.8l.6-.6h1.2l.077.015.065.044.043.064.015.077Z" style="stroke:#afafaf;stroke-width:.0212;stroke-opacity:1;stroke-linecap:round;stroke-linejoin:round;fill:none"/>
    </g>
    <g class="stroked-text" style="fill:none;stroke:#afafaf;stroke-width:.0389;stroke-opacity:1;stroke-linecap:round;stroke-linejoin:round">
        <path d="m14.865 2.767.066.022M14.931 2.789h.112M15.043 2.789l.044-.022M15.087 2.767l.022-.023M15.11 2.744l.021-.044M15.131 2.7v-.045M15.131 2.656l-.022-.045M15.11 2.611l-.023-.022M15.087 2.589l-.044-.022M15.043 2.567l-.09-.023M14.954 2.544l-.045-.022M14.91 2.522l-.023-.022M14.887 2.5l-.022-.045M14.865 2.456V2.41M14.865 2.411l.022-.044M14.887 2.367l.022-.023M14.91 2.344l.044-.022M14.954 2.322h.11M15.065 2.322l.066.022M15.576 2.789h-.267M15.443 2.789v-.467M15.443 2.322l-.045.067M15.398 2.389l-.044.044M15.354 2.433l-.045.022"/>
    </g>
    <g style="fill:none;stroke:#afafaf;stroke-width:.0212;stroke-opacity:1;stroke-linecap:round;stroke-linejoin:round">
        <path d="M15.42 2.075h-.4M15.02 2.075a.5.5 0 0 0 0 1M15.02 3.075h.4M15.42 3.075a.5.5 0 0 0 0-1"/>
    </g>
    <g class="stroked-text" style="fill:none;stroke:#afafaf;stroke-width:.0639;stroke-opacity:1;stroke-linecap:round;stroke-linejoin:round">
        <path d="m15.946 7.35.11.036M16.056 7.386h.182M16.238 7.386l.073-.036M16.311 7.35l.037-.037M16.348 7.313l.036-.073M16.384 7.24v-.073M16.384 7.167l-.036-.073M16.348 7.094l-.037-.036M16.311 7.058l-.073-.037M16.238 7.021l-.146-.036M16.092 6.985l-.073-.037M16.02 6.948l-.037-.036M15.983 6.912l-.037-.073M15.946 6.839v-.073M15.946 6.766l.037-.073M15.983 6.693l.036-.037M16.02 6.656l.072-.036M16.092 6.62h.183M16.275 6.62l.11.036M17.114 7.386h-.438M16.895 7.386V6.62M16.895 6.62l-.073.11M16.822 6.73l-.073.072M16.75 6.802l-.074.037"/>
    </g>
    <circle cx="16.53" cy="7.035" r="1.15" style="fill:none;stroke:#afafaf;stroke-width:.0212;stroke-opacity:1;stroke-linecap:round;stroke-linejoin:round"/>
    <g style="fill:none;stroke:#afafaf;stroke-width:.0708;stroke-opacity:1;stroke-linecap:round;stroke-linejoin:round">
        <g class="stroked-text">
            <path d="m18.363 15.004.121.04M18.484 15.045h.202M18.686 15.045l.081-.04M18.767 15.004l.04-.04M18.808 14.964l.04-.081M18.848 14.883v-.081M18.848 14.802l-.04-.081M18.808 14.72l-.04-.04M18.767 14.68l-.08-.04M18.686 14.64l-.162-.04M18.525 14.6l-.081-.041M18.444 14.559l-.04-.04M18.403 14.518l-.04-.08M18.363 14.437v-.08M18.363 14.356l.04-.08M18.403 14.276l.04-.041M18.444 14.235l.08-.04M18.525 14.195h.202M18.727 14.195l.121.04M19.658 15.045h-.486M19.415 15.045v-.85M19.415 14.195l-.081.121M19.334 14.316l-.08.08M19.253 14.397l-.08.04"/>
        </g>
        <path d="m20.285 15.655-.019.096-.054.08-.081.055-.096.019h-2.05l-.095-.019-.082-.054-.054-.081-.019-.096v-2l.02-.096.053-.08.082-.055.095-.019h2.05l.096.019.081.054.054.081.02.096Z" style="stroke:#afafaf;stroke-width:.0212;stroke-opacity:1;stroke-linecap:round;stroke-linejoin:round;fill:none"/>
    </g>
    <g style="fill:none;stroke:#afafaf;stroke-width:.0708;stroke-opacity:1;stroke-linecap:round;stroke-linejoin:round">
        <g class="stroked-text">
            <path d="m4.513 12.464.121.04M4.634 12.505h.202M4.836 12.505l.081-.04M4.917 12.464l.04-.04M4.958 12.424l.04-.081M4.998 12.343v-.081M4.998 12.262l-.04-.081M4.958 12.18l-.04-.04M4.917 12.14l-.08-.04M4.836 12.1l-.162-.04M4.675 12.06l-.081-.041M4.594 12.019l-.04-.04M4.553 11.978l-.04-.08M4.513 11.897v-.08M4.513 11.816l.04-.08M4.553 11.736l.04-.041M4.594 11.695l.08-.04M4.675 11.655h.202M4.877 11.655l.121.04M5.322 11.736l.04-.041M5.363 11.695l.08-.04M5.444 11.655h.202M5.646 11.655l.08.04M5.727 11.695l.04.04M5.767 11.736l.04.08M5.808 11.816v.081M5.808 11.897l-.04.122M5.767 12.019l-.485.486M5.282 12.505h.526"/>
        </g>
        <path d="m6.435 13.115-.019.096-.054.08-.081.055-.096.019h-2.05l-.095-.019-.082-.054-.054-.081-.019-.096v-2l.02-.096.054-.08.08-.055.096-.019h2.05l.096.019.081.054.054.081.02.096Z" style="stroke:#afafaf;stroke-width:.0212;stroke-opacity:1;stroke-linecap:round;stroke-linejoin:round;fill:none"/>
    </g>
    <g class="stroked-text" style="fill:none;stroke:#afafaf;stroke-width:.0639;stroke-opacity:1;stroke-linecap:round;stroke-linejoin:round">
        <path d="m9.596 4.81.11.036M9.706 4.846h.182M9.888 4.846l.073-.036M9.961 4.81l.037-.037M9.998 4.773l.036-.073M10.034 4.7v-.073M10.034 4.627l-.036-.073M9.998 4.554l-.037-.036M9.961 4.518l-.073-.037M9.888 4.481l-.146-.036M9.742 4.445l-.073-.037M9.67 4.408l-.037-.036M9.633 4.372l-.037-.073M9.596 4.299v-.073M9.596 4.226l.037-.073M9.633 4.153l.036-.037M9.67 4.116l.072-.036M9.742 4.08h.183M9.925 4.08l.11.036M10.326 4.153l.037-.037M10.363 4.116l.073-.036M10.436 4.08h.182M10.618 4.08l.073.036M10.691 4.116l.037.037M10.728 4.153l.036.073M10.764 4.226v.073M10.764 4.299l-.036.11M10.728 4.408l-.438.438M10.29 4.846h.474"/>
    </g>
    <circle cx="10.18" cy="4.495" r="1.15" style="fill:none;stroke:#afafaf;stroke-width:.0212;stroke-opacity:1;stroke-linecap:round;stroke-linejoin:round"/>
    <g class="stroked-text" style="fill:none;stroke:#afafaf;stroke-width:.0389;stroke-opacity:1;stroke-linecap:round;stroke-linejoin:round">
        <path d="m9.865 2.767.066.022M9.931 2.789h.112M10.043 2.789l.044-.022M10.087 2.767l.022-.023M10.11 2.744l.021-.044M10.131 2.7v-.045M10.131 2.656l-.022-.045M10.11 2.611l-.023-.022M10.087 2.589l-.044-.022M10.043 2.567l-.09-.023M9.954 2.544l-.045-.022M9.91 2.522 9.886 2.5M9.887 2.5l-.022-.045M9.865 2.456V2.41M9.865 2.411l.022-.044M9.887 2.367l.022-.023M9.91 2.344l.044-.022M9.954 2.322h.11M10.065 2.322l.066.022M10.31 2.367l.021-.023M10.331 2.344l.045-.022M10.376 2.322h.11M10.487 2.322l.044.022M10.531 2.344l.023.023M10.554 2.367l.022.044M10.576 2.411v.044M10.576 2.456l-.022.066M10.554 2.522l-.267.267M10.287 2.789h.289"/>
    </g>
    <g style="fill:none;stroke:#afafaf;stroke-width:.0212;stroke-opacity:1;stroke-linecap:round;stroke-linejoin:round">
        <path d="M10.42 2.075h-.4M10.02 2.075a.5.5 0 0 0 0 1M10.02 3.075h.4M10.42 3.075a.5.5 0 0 0 0-1"/>
        <path d="M3.195.05h19.05V19.1H3.195Z" style="stroke:#c2c2c2;stroke-width:.1;stroke-opacity:1;stroke-linecap:round;stroke-linejoin:round;fill:none"/>
    </g>
</svg>
