<svg xmlns="http://www.w3.org/2000/svg" width="78.432" height="76.8" viewBox="0 0 20.752 20.32">
    <g class="stroked-text" style="fill:none;stroke:#f2eda1;stroke-width:.15;stroke-opacity:1;stroke-linecap:round;stroke-linejoin:round">
        <path d="m10.832 4.95-.334-.476M10.26 4.95v-1M10.26 3.95h.381M10.641 3.95l.095.047M10.736 3.997l.048.048M10.784 4.045l.048.095M10.832 4.14v.143M10.832 4.283l-.048.095M10.784 4.378l-.048.048M10.736 4.426l-.095.048M10.641 4.474h-.38M11.26 4.426h.334M11.736 4.95h-.476M11.26 4.95v-1M11.26 3.95h.476M12.498 4.426h-.333M12.165 4.95v-1M12.165 3.95h.476M13.165 3.95v.238M12.927 4.093l.238.095M13.165 4.188l.238-.095M13.022 4.378l.143-.19M13.165 4.188l.143.19M13.927 3.95v.238M13.689 4.093l.238.095M13.927 4.188l.238-.095M13.784 4.378l.143-.19M13.927 4.188l.143.19"/>
    </g>
    <g style="fill:none;stroke:#f2eda1;stroke-width:.12;stroke-opacity:1;stroke-linecap:round;stroke-linejoin:round">
        <path d="M5.307 2.59v.355M5.307 7.035v-.99M5.307 7.035h5.08M12.851 8.94h1.727M14.197 2.59h-8.89M16.387 8.94h.35M16.737 5.13v.355M16.737 8.585v.355M12.847 8.941a2.54 2.54 0 0 0-2.46-1.906M16.737 5.13a2.54 2.54 0 0 0-2.54-2.54"/>
        <path stroke="none" d="m16.675 6.035.02-.096.053-.08.081-.055.096-.019h1.3l.096.019.08.054.055.081.02.096v2l-.02.096-.054.08-.081.055-.096.019h-1.3l-.096-.019-.08-.054-.055-.081-.019-.096ZM3.569 3.495l.019-.096.054-.08.081-.055.096-.019h1.3l.095.019.081.054.055.081.019.096v2l-.02.096-.054.08-.08.055-.096.019h-1.3l-.096-.019-.081-.054-.054-.081-.02-.096Z" style="fill:#b4a09a;fill-opacity:.9;stroke:none;fill-rule:evenodd"/>
        <path stroke="none" d="m16.675 6.035.02-.096.053-.08.081-.055.096-.019h1.3l.096.019.08.054.055.081.02.096v2l-.02.096-.054.08-.081.055-.096.019h-1.3l-.096-.019-.08-.054-.055-.081-.019-.096ZM3.569 3.495l.019-.096.054-.08.081-.055.096-.019h1.3l.095.019.081.054.055.081.019.096v2l-.02.096-.054.08-.08.055-.096.019h-1.3l-.096-.019-.081-.054-.054-.081-.02-.096Z" style="fill:#c83434;fill-opacity:1;stroke:none;fill-rule:evenodd"/>
        <path d="M3.387 2.575h14v14h-14Z" style="stroke:#585d84;stroke-width:.1;stroke-opacity:1;stroke-linecap:round;stroke-linejoin:round;fill:none"/>
    </g>
    <circle cx="5.307" cy="9.575" r=".85" style="fill:none;stroke:#585d84;stroke-width:.0212;stroke-opacity:1;stroke-linecap:round;stroke-linejoin:round"/>
    <circle cx="7.847" cy="4.495" r="1.5" style="fill:none;stroke:#585d84;stroke-width:.0212;stroke-opacity:1;stroke-linecap:round;stroke-linejoin:round"/>
    <circle cx="10.387" cy="9.575" r="2" style="fill:none;stroke:#585d84;stroke-width:.0212;stroke-opacity:1;stroke-linecap:round;stroke-linejoin:round"/>
    <circle cx="14.197" cy="7.035" r="1.5" style="fill:none;stroke:#585d84;stroke-width:.0212;stroke-opacity:1;stroke-linecap:round;stroke-linejoin:round"/>
    <circle cx="15.467" cy="9.575" r=".85" style="fill:none;stroke:#585d84;stroke-width:.0212;stroke-opacity:1;stroke-linecap:round;stroke-linejoin:round"/>
    <g style="fill:none;stroke:#afafaf;stroke-width:.15;stroke-opacity:1;stroke-linecap:round;stroke-linejoin:round">
        <g class="stroked-text">
            <path d="m.316 18.282.142.048M.458 18.33h.238M.696 18.33l.096-.048M.792 18.282l.047-.047M.84 18.235l.047-.096M.887 18.14v-.096M.887 18.044l-.048-.095M.84 17.949.791 17.9M.792 17.901l-.096-.047M.696 17.854l-.19-.048M.506 17.806l-.095-.048M.41 17.758l-.047-.047M.363 17.71l-.047-.095M.316 17.616v-.096M.316 17.52l.047-.095M.363 17.425l.048-.048M.41 17.377l.096-.047M.506 17.33h.238M.744 17.33l.143.047M1.22 17.33l.238 1M1.458 18.33l.19-.714M1.649 17.616l.19.714M1.84 18.33l.237-1M2.22 18.425h.762M3.22 18.33v-1M3.22 17.33l.334.714M3.554 18.044l.333-.714M3.887 17.33v1M4.268 17.33l.667 1M4.935 17.33l-.667 1M5.077 18.425h.762M6.03 18.282l.143.048M6.173 18.33h.238M6.41 18.33l.096-.048M6.506 18.282l.048-.047M6.554 18.235l.047-.096M6.601 18.14v-.096M6.601 18.044l-.047-.095M6.554 17.949l-.048-.048M6.506 17.901l-.095-.047M6.41 17.854l-.19-.048M6.22 17.806l-.095-.048M6.125 17.758l-.048-.047M6.077 17.71l-.047-.095M6.03 17.616v-.096M6.03 17.52l.047-.095M6.077 17.425l.048-.048M6.125 17.377l.095-.047M6.22 17.33h.238M6.458 17.33l.143.047M7.173 18.33l-.096-.048M7.077 18.282l-.047-.095M7.03 18.187v-.857M7.554 18.33v-.667M7.554 17.33l-.048.047M7.506 17.377l.048.048M7.554 17.425l.047-.048M7.601 17.377l-.047-.047M7.554 17.33v.095M8.03 18.33v-.667M8.03 17.758l.047-.047M8.077 17.71l.096-.047M8.173 17.663h.143M8.316 17.663l.095.048M8.41 17.71l.048.096M8.458 17.806v.524M8.458 17.806l.048-.095M8.506 17.71l.095-.047M8.601 17.663h.143M8.744 17.663l.095.048M8.84 17.71l.047.096M8.887 17.806v.524M9.125 18.425h.762M10.125 18.33v-1M10.125 17.806h.571M10.696 18.33v-1M11.316 18.33l-.096-.048M11.22 18.282l-.047-.047M11.173 18.235l-.048-.096M11.125 18.14v-.286M11.125 17.854l.048-.096M11.173 17.758l.047-.047M11.22 17.71l.095-.047M11.316 17.663h.142M11.458 17.663l.096.048M11.554 17.71l.047.048M11.601 17.758l.048.096M11.649 17.854v.285M11.649 18.14l-.048.095M11.601 18.235l-.047.047M11.554 18.282l-.096.048M11.458 18.33h-.143M11.935 17.663h.38M12.077 17.33v.857M12.077 18.187l.048.095M12.125 18.282l.095.048M12.22 18.33h.095M12.601 18.282l.143.048M12.744 18.33h.238M12.982 18.33l.095-.048M13.077 18.282l.048-.047M13.125 18.235l.048-.096M13.173 18.14v-.096M13.173 18.044l-.048-.095M13.125 17.949l-.048-.048M13.077 17.901l-.095-.047M12.982 17.854l-.19-.048M12.792 17.806l-.096-.048M12.696 17.758l-.047-.047M12.649 17.71l-.048-.095M12.601 17.616v-.096M12.601 17.52l.048-.095M12.649 17.425l.047-.048M12.696 17.377l.096-.047M12.792 17.33h.238M13.03 17.33l.143.047M13.506 17.663l.19.667M13.696 18.33l.19-.476M13.887 17.854l.19.476M14.077 18.33l.19-.667M15.077 18.33v-.524M15.077 17.806l-.047-.095M15.03 17.71l-.095-.047M14.935 17.663h-.191M14.744 17.663l-.095.048M15.077 18.282l-.095.048M14.982 18.33h-.238M14.744 18.33l-.095-.048M14.649 18.282l-.048-.095M14.601 18.187v-.095M14.601 18.092l.048-.095M14.649 17.997l.095-.048M14.744 17.949h.238M14.982 17.949l.095-.048M15.554 17.663v1M15.554 17.71l.095-.047M15.649 17.663h.19M15.84 17.663l.095.048M15.935 17.71l.047.048M15.982 17.758l.048.096M16.03 17.854v.285M16.03 18.14l-.048.095M15.982 18.235l-.047.047M15.935 18.282l-.096.048M15.84 18.33h-.191M15.649 18.33l-.095-.048M16.22 18.425h.762M17.22 17.663v.667M17.22 17.758l.048-.047M17.268 17.71l.095-.047M17.363 17.663h.143M17.506 17.663l.095.048M17.601 17.71l.048.096M17.649 17.806v.524M18.077 18.282l.143.048M18.22 18.33h.238M18.458 18.33l.096-.048M18.554 18.282l.047-.047M18.601 18.235l.048-.096M18.649 18.14v-.096M18.649 18.044l-.048-.095M18.601 17.949l-.047-.048M18.554 17.901l-.096-.047M18.458 17.854l-.19-.048M18.268 17.806l-.095-.048M18.173 17.758l-.048-.047M18.125 17.71l-.048-.095M18.077 17.616v-.096M18.077 17.52l.048-.095M18.125 17.425l.048-.048M18.173 17.377l.095-.047M18.268 17.33h.238M18.506 17.33l.143.047M19.077 18.33v-.667M19.077 17.33l-.047.047M19.03 17.377l.047.048M19.077 17.425l.048-.048M19.125 17.377l-.048-.047M19.077 17.33v.095M19.696 18.33l-.095-.048M19.601 18.282l-.047-.095M19.554 18.187v-.857M20.077 18.33v-1M20.173 17.949l.285.38M20.458 17.663l-.38.381"/>
        </g>
        <g class="stroked-text">
            <path d="m9.054 19.93-.334-.476M8.482 19.93v-1M8.482 18.93h.381M8.863 18.93l.095.047M8.958 18.977l.048.048M9.006 19.025l.048.095M9.054 19.12v.143M9.054 19.263l-.048.095M9.006 19.358l-.048.048M8.958 19.406l-.095.048M8.863 19.454h-.38M9.482 19.406h.334M9.958 19.93h-.476M9.482 19.93v-1M9.482 18.93h.476M10.72 19.406h-.333M10.387 19.93v-1M10.387 18.93h.476M11.387 18.93v.238M11.149 19.073l.238.095M11.387 19.168l.238-.095M11.244 19.358l.143-.19M11.387 19.168l.143.19M12.149 18.93v.238M11.91 19.073l.239.095M12.149 19.168l.238-.095M12.006 19.358l.143-.19M12.149 19.168l.143.19"/>
        </g>
    </g>
    <g style="fill:none;stroke:#afafaf;stroke-width:.1;stroke-opacity:1;stroke-linecap:round;stroke-linejoin:round">
        <path d="M3.529 3.225v2.54M3.529 5.765h1.778M5.307 2.59v4.445M5.307 3.225H3.529M5.307 7.035h5.08M14.197 2.59h-8.89M16.737 8.305h1.753M16.737 8.94h-3.81M16.737 8.94V5.13M18.49 5.765h-1.753M18.49 8.305v-2.54"/>
        <path d="M8.637 13.155h3.5v3h-3.5Z" style="stroke:#afafaf;stroke-width:.1;stroke-opacity:1;stroke-linecap:round;stroke-linejoin:round;fill:none"/>
        <path d="M12.851 8.959a2.54 2.54 0 0 0-2.464-1.924M16.737 5.13a2.54 2.54 0 0 0-2.54-2.54"/>
    </g>
    <circle cx="5.307" cy="9.575" r=".85" style="fill:none;stroke:#afafaf;stroke-width:.0212;stroke-opacity:1;stroke-linecap:round;stroke-linejoin:round"/>
    <circle cx="7.847" cy="4.495" r="1.5" style="fill:none;stroke:#afafaf;stroke-width:.0212;stroke-opacity:1;stroke-linecap:round;stroke-linejoin:round"/>
    <circle cx="10.387" cy="9.575" r="2" style="fill:none;stroke:#afafaf;stroke-width:.0212;stroke-opacity:1;stroke-linecap:round;stroke-linejoin:round"/>
    <circle cx="14.197" cy="7.035" r="1.5" style="fill:none;stroke:#afafaf;stroke-width:.0212;stroke-opacity:1;stroke-linecap:round;stroke-linejoin:round"/>
    <circle cx="15.467" cy="9.575" r=".85" style="fill:none;stroke:#afafaf;stroke-width:.0212;stroke-opacity:1;stroke-linecap:round;stroke-linejoin:round"/>
    <g style="fill:none;stroke:#afafaf;stroke-width:.0694;stroke-opacity:1;stroke-linecap:round;stroke-linejoin:round">
        <g class="stroked-text">
            <path d="M17.957 6.797v.476M17.957 7.035h-.833M17.124 7.035l.119.08M17.243 7.114l.08.08M17.322 7.194l.04.08"/>
        </g>
        <path d="m16.675 6.035.02-.096.053-.08.081-.055.096-.019h1.3l.096.019.08.054.055.081.02.096v2l-.02.096-.054.08-.081.055-.096.019h-1.3l-.096-.019-.08-.054-.055-.081-.019-.096Z" style="stroke:#afafaf;stroke-width:.0212;stroke-opacity:1;stroke-linecap:round;stroke-linejoin:round;fill:none"/>
    </g>
    <g style="fill:none;stroke:#afafaf;stroke-width:.0694;stroke-opacity:1;stroke-linecap:round;stroke-linejoin:round">
        <g class="stroked-text">
            <path d="m4.097 4.733-.04-.04M4.057 4.693l-.04-.079M4.017 4.614v-.198M4.017 4.416l.04-.08M4.057 4.336l.04-.04M4.097 4.297l.079-.04M4.176 4.257h.08M4.255 4.257l.12.04M4.374 4.297l.477.476M4.85 4.773v-.516"/>
        </g>
        <path d="m3.569 3.495.019-.096.054-.08.081-.055.096-.019h1.3l.095.019.081.054.055.081.019.096v2l-.02.096-.054.08-.08.055-.096.019h-1.3l-.096-.019-.081-.054-.054-.081-.02-.096Z" style="stroke:#afafaf;stroke-width:.0212;stroke-opacity:1;stroke-linecap:round;stroke-linejoin:round;fill:none"/>
        <path d="M.862.05h19.05V19.1H.862Z" style="stroke:#c2c2c2;stroke-width:.1;stroke-opacity:1;stroke-linecap:round;stroke-linejoin:round;fill:none"/>
    </g>
</svg>
