<?xml version="1.0" standalone="no"?>
 <!DOCTYPE svg PUBLIC "-//W3C//DTD SVG 1.1//EN" 
 "http://www.w3.org/Graphics/SVG/1.1/DTD/svg11.dtd"> 
<svg
  xmlns:svg="http://www.w3.org/2000/svg"
  xmlns="http://www.w3.org/2000/svg"
  xmlns:xlink="http://www.w3.org/1999/xlink"
  version="1.1"
  width="25.4254mm" height="21.4122mm" viewBox="0.0000 0.0000 25.4254 21.4122">
<title>SVG Image created as SW_MX_EC11_HotSwap_THT_sqSilk.svg date 2025/05/12 02:45:49 </title>
  <desc>Image generated by PCBNEW </desc>
<g style="fill:#000000; fill-opacity:1.0000;stroke:#000000; stroke-opacity:1.0000;
stroke-linecap:round; stroke-linejoin:round;"
 transform="translate(0 0) scale(1 1)">
</g>
<g style="fill:none; 
stroke:#E8B2A7; stroke-width:0.1500; stroke-opacity:1; 
stroke-linecap:round; stroke-linejoin:round;">
<text x="12.7202" y="7.0750"
transform="scale(-1 1) translate(-25.440478 0)"
textLength="4.5357" font-size="1.3333" lengthAdjust="spacingAndGlyphs"
text-anchor="middle" opacity="0" stroke-opacity="0">REF**</text>
<g class="stroked-text"><desc>REF**</desc>
<path d="M14.0536 7.0298
L14.3869 6.5536
" />
<path d="M14.6250 7.0298
L14.6250 6.0298
" />
<path d="M14.6250 6.0298
L14.2440 6.0298
" />
<path d="M14.2440 6.0298
L14.1488 6.0774
" />
<path d="M14.1488 6.0774
L14.1012 6.1251
" />
<path d="M14.1012 6.1251
L14.0536 6.2203
" />
<path d="M14.0536 6.2203
L14.0536 6.3632
" />
<path d="M14.0536 6.3632
L14.1012 6.4584
" />
<path d="M14.1012 6.4584
L14.1488 6.5060
" />
<path d="M14.1488 6.5060
L14.2440 6.5536
" />
<path d="M14.2440 6.5536
L14.6250 6.5536
" />
<path d="M13.6250 6.5060
L13.2917 6.5060
" />
<path d="M13.1488 7.0298
L13.6250 7.0298
" />
<path d="M13.6250 7.0298
L13.6250 6.0298
" />
<path d="M13.6250 6.0298
L13.1488 6.0298
" />
<path d="M12.3869 6.5060
L12.7202 6.5060
" />
<path d="M12.7202 7.0298
L12.7202 6.0298
" />
<path d="M12.7202 6.0298
L12.2440 6.0298
" />
<path d="M11.7202 6.0298
L11.7202 6.2679
" />
<path d="M11.9583 6.1727
L11.7202 6.2679
" />
<path d="M11.7202 6.2679
L11.4821 6.1727
" />
<path d="M11.8631 6.4584
L11.7202 6.2679
" />
<path d="M11.7202 6.2679
L11.5774 6.4584
" />
<path d="M10.9583 6.0298
L10.9583 6.2679
" />
<path d="M11.1964 6.1727
L10.9583 6.2679
" />
<path d="M10.9583 6.2679
L10.7202 6.1727
" />
<path d="M11.1012 6.4584
L10.9583 6.2679
" />
<path d="M10.9583 6.2679
L10.8155 6.4584
" />
</g></g>
<g style="fill:none; 
stroke:#E8B2A7; stroke-width:0.1200; stroke-opacity:1; 
stroke-linecap:round; stroke-linejoin:round;">
<path d="M7.6402 12.1150
L7.6402 13.1050
" />
<path d="M7.6402 12.1150
L12.7202 12.1150
" />
<path d="M7.6402 16.5600
L7.6402 16.2050
" />
<path d="M15.1844 10.2100
L16.9112 10.2100
" />
<path d="M16.5302 16.5600
L7.6402 16.5600
" />
<path d="M19.0702 14.0200
L19.0702 13.6650
" />
<path d="M12.7202 12.1150 A2.5400 2.5400 0.0 0 0 15.1799 10.2088" />
<path d="M16.5302 16.5600 A2.5400 2.5400 0.0 0 0 19.0702 14.0200" />
</g>
<g style="fill:none; 
stroke:#F2EDA1; stroke-width:0.1200; stroke-opacity:1; 
stroke-linecap:round; stroke-linejoin:round;">
<path d="M5.6202 16.2750
L5.6202 2.8750
" />
<path d="M6.0202 2.4750
L19.4202 2.4750
" />
<path d="M19.4202 16.6750
L6.0202 16.6750
" />
<path d="M19.8202 2.8750
L19.8202 16.2750
" />
<path d="M6.0202 2.4750 A0.4000 0.4000 0.0 0 0 5.6202 2.8750" />
<path d="M5.6202 16.2750 A0.4000 0.4000 0.0 0 0 6.0202 16.6750" />
<path d="M19.8202 2.8750 A0.4000 0.4000 0.0 0 0 19.4202 2.4750" />
<path d="M19.4202 16.6750 A0.4000 0.4000 0.0 0 0 19.8202 16.2750" />
<path style="fill:#00C2C2; fill-opacity:0.9000; stroke:none;fill-rule:evenodd;"
d="M 5.1552,13.6550
5.1743,13.5593
5.2285,13.4782
5.3096,13.4240
5.4052,13.4050
7.4552,13.4050
7.5509,13.4240
7.6320,13.4782
7.6862,13.5593
7.7052,13.6550
7.7052,15.6550
7.6862,15.7507
7.6320,15.8318
7.5509,15.8860
7.4552,15.9050
5.4052,15.9050
5.3096,15.8860
5.2285,15.8318
5.1743,15.7507
5.1552,15.6550
Z" /> 
<path style="fill:#00C2C2; fill-opacity:0.9000; stroke:none;fill-rule:evenodd;"
d="M 19.0052,11.1150
19.0243,11.0193
19.0785,10.9382
19.1596,10.8840
19.2552,10.8650
21.3052,10.8650
21.4009,10.8840
21.4820,10.9382
21.5362,11.0193
21.5552,11.1150
21.5552,13.1150
21.5362,13.2107
21.4820,13.2918
21.4009,13.3460
21.3052,13.3650
19.2552,13.3650
19.1596,13.3460
19.0785,13.2918
19.0243,13.2107
19.0052,13.1150
Z" /> 
</g>
<g style="fill:none; 
stroke:#4D7FC4; stroke-width:1.0000; stroke-opacity:1; 
stroke-linecap:round; stroke-linejoin:round;">
<path d="M10.0202 17.0750
L10.4202 17.0750
" />
<path d="M15.0202 17.0750
L15.4202 17.0750
" />
<path d="M12.5202 17.0750
L12.9202 17.0750
" />
<path style="fill:#4D7FC4; fill-opacity:1.0000; stroke:none;fill-rule:evenodd;"
d="M 6.1902,8.2750
6.2055,8.1985
6.2488,8.1336
6.3137,8.0902
6.3902,8.0750
7.5902,8.0750
8.1902,8.6750
8.1902,10.4750
7.5902,11.0750
6.3902,11.0750
6.3137,11.0598
6.2488,11.0164
6.2055,10.9515
6.1902,10.8750
Z" /> 
<path style="fill:#4D7FC4; fill-opacity:1.0000; stroke:none;fill-rule:evenodd;"
d="M 17.2502,10.3350
17.2502,8.6750
17.8502,8.0750
19.0502,8.0750
19.1302,8.0950
19.1902,8.1350
19.2302,8.1950
19.2502,8.2750
19.2502,10.4750
18.6502,11.0750
18.1302,11.0750
Z" /> 
<path style="fill:#4D7FC4; fill-opacity:1.0000; stroke:none;fill-rule:evenodd;"
d="M 5.1552,13.6550
5.1743,13.5593
5.2285,13.4782
5.3096,13.4240
5.4052,13.4050
7.4552,13.4050
7.5509,13.4240
7.6320,13.4782
7.6862,13.5593
7.7052,13.6550
7.7052,15.6550
7.6862,15.7507
7.6320,15.8318
7.5509,15.8860
7.4552,15.9050
5.4052,15.9050
5.3096,15.8860
5.2285,15.8318
5.1743,15.7507
5.1552,15.6550
Z" /> 
</g>
<g style="fill:#4D7FC4; fill-opacity:1.0000; stroke:none;">
<circle cx="8.9102" cy="7.0350" r="1.1500" /> 
</g>
<g style="fill:none; 
stroke:#4D7FC4; stroke-width:1.0000; stroke-opacity:1; 
stroke-linecap:round; stroke-linejoin:round;">
<path d="M10.0202 2.5750
L10.4202 2.5750
" />
<path d="M15.0202 2.5750
L15.4202 2.5750
" />
</g>
<g style="fill:#4D7FC4; fill-opacity:1.0000; stroke:none;">
<circle cx="15.2602" cy="4.4950" r="1.1500" /> 
<path style="fill:#4D7FC4; fill-opacity:1.0000; stroke:none;fill-rule:evenodd;"
d="M 19.0052,11.1150
19.0243,11.0193
19.0785,10.9382
19.1596,10.8840
19.2552,10.8650
21.3052,10.8650
21.4009,10.8840
21.4820,10.9382
21.5362,11.0193
21.5552,11.1150
21.5552,13.1150
21.5362,13.2107
21.4820,13.2918
21.4009,13.3460
21.3052,13.3650
19.2552,13.3650
19.1596,13.3460
19.0785,13.2918
19.0243,13.2107
19.0052,13.1150
Z" /> 
</g>
<g style="fill:none; 
stroke:#C83434; stroke-width:1.0000; stroke-opacity:1; 
stroke-linecap:round; stroke-linejoin:round;">
<path d="M10.0202 17.0750
L10.4202 17.0750
" />
<path d="M15.0202 17.0750
L15.4202 17.0750
" />
<path d="M12.5202 17.0750
L12.9202 17.0750
" />
<path style="fill:#C83434; fill-opacity:1.0000; stroke:none;fill-rule:evenodd;"
d="M 6.1902,8.2750
6.2055,8.1985
6.2488,8.1336
6.3137,8.0902
6.3902,8.0750
7.5902,8.0750
8.1902,8.6750
8.1902,10.4750
7.5902,11.0750
6.3902,11.0750
6.3137,11.0598
6.2488,11.0164
6.2055,10.9515
6.1902,10.8750
Z" /> 
<path style="fill:#C83434; fill-opacity:1.0000; stroke:none;fill-rule:evenodd;"
d="M 17.2502,10.3350
17.2502,8.6750
17.8502,8.0750
19.0502,8.0750
19.1302,8.0950
19.1902,8.1350
19.2302,8.1950
19.2502,8.2750
19.2502,10.4750
18.6502,11.0750
18.1302,11.0750
Z" /> 
</g>
<g style="fill:#C83434; fill-opacity:1.0000; stroke:none;">
<circle cx="8.9102" cy="7.0350" r="1.1500" /> 
</g>
<g style="fill:none; 
stroke:#C83434; stroke-width:1.0000; stroke-opacity:1; 
stroke-linecap:round; stroke-linejoin:round;">
<path d="M10.0202 2.5750
L10.4202 2.5750
" />
<path d="M15.0202 2.5750
L15.4202 2.5750
" />
</g>
<g style="fill:#C83434; fill-opacity:1.0000; stroke:none;">
<circle cx="15.2602" cy="4.4950" r="1.1500" /> 
</g>
<g style="fill:none; 
stroke:#585D84; stroke-width:0.1500; stroke-opacity:1; 
stroke-linecap:round; stroke-linejoin:round;">
<text x="12.7202" y="19.4750"
transform="scale(-1 1) translate(-25.440478 0)"
textLength="25.4405" font-size="1.3333" lengthAdjust="spacingAndGlyphs"
text-anchor="middle" opacity="0" stroke-opacity="0">SW_MX_EC11_HotSwap_THT_sqSilk</text>
<g class="stroked-text"><desc>SW_MX_EC11_HotSwap_THT_sqSilk</desc>
<path d="M25.1250 19.3822
L24.9821 19.4298
" />
<path d="M24.9821 19.4298
L24.7440 19.4298
" />
<path d="M24.7440 19.4298
L24.6488 19.3822
" />
<path d="M24.6488 19.3822
L24.6012 19.3346
" />
<path d="M24.6012 19.3346
L24.5536 19.2393
" />
<path d="M24.5536 19.2393
L24.5536 19.1441
" />
<path d="M24.5536 19.1441
L24.6012 19.0489
" />
<path d="M24.6012 19.0489
L24.6488 19.0012
" />
<path d="M24.6488 19.0012
L24.7440 18.9536
" />
<path d="M24.7440 18.9536
L24.9345 18.9060
" />
<path d="M24.9345 18.9060
L25.0298 18.8584
" />
<path d="M25.0298 18.8584
L25.0774 18.8108
" />
<path d="M25.0774 18.8108
L25.1250 18.7155
" />
<path d="M25.1250 18.7155
L25.1250 18.6203
" />
<path d="M25.1250 18.6203
L25.0774 18.5251
" />
<path d="M25.0774 18.5251
L25.0298 18.4774
" />
<path d="M25.0298 18.4774
L24.9345 18.4298
" />
<path d="M24.9345 18.4298
L24.6964 18.4298
" />
<path d="M24.6964 18.4298
L24.5536 18.4774
" />
<path d="M24.2202 18.4298
L23.9821 19.4298
" />
<path d="M23.9821 19.4298
L23.7917 18.7155
" />
<path d="M23.7917 18.7155
L23.6012 19.4298
" />
<path d="M23.6012 19.4298
L23.3631 18.4298
" />
<path d="M23.2202 19.5251
L22.4583 19.5251
" />
<path d="M22.2202 19.4298
L22.2202 18.4298
" />
<path d="M22.2202 18.4298
L21.8869 19.1441
" />
<path d="M21.8869 19.1441
L21.5536 18.4298
" />
<path d="M21.5536 18.4298
L21.5536 19.4298
" />
<path d="M21.1726 18.4298
L20.5060 19.4298
" />
<path d="M20.5060 18.4298
L21.1726 19.4298
" />
<path d="M20.3631 19.5251
L19.6012 19.5251
" />
<path d="M19.3631 18.9060
L19.0298 18.9060
" />
<path d="M18.8869 19.4298
L19.3631 19.4298
" />
<path d="M19.3631 19.4298
L19.3631 18.4298
" />
<path d="M19.3631 18.4298
L18.8869 18.4298
" />
<path d="M17.8869 19.3346
L17.9345 19.3822
" />
<path d="M17.9345 19.3822
L18.0774 19.4298
" />
<path d="M18.0774 19.4298
L18.1726 19.4298
" />
<path d="M18.1726 19.4298
L18.3155 19.3822
" />
<path d="M18.3155 19.3822
L18.4107 19.2870
" />
<path d="M18.4107 19.2870
L18.4583 19.1917
" />
<path d="M18.4583 19.1917
L18.5060 19.0012
" />
<path d="M18.5060 19.0012
L18.5060 18.8584
" />
<path d="M18.5060 18.8584
L18.4583 18.6679
" />
<path d="M18.4583 18.6679
L18.4107 18.5727
" />
<path d="M18.4107 18.5727
L18.3155 18.4774
" />
<path d="M18.3155 18.4774
L18.1726 18.4298
" />
<path d="M18.1726 18.4298
L18.0774 18.4298
" />
<path d="M18.0774 18.4298
L17.9345 18.4774
" />
<path d="M17.9345 18.4774
L17.8869 18.5251
" />
<path d="M16.9345 19.4298
L17.5060 19.4298
" />
<path d="M17.2202 19.4298
L17.2202 18.4298
" />
<path d="M17.2202 18.4298
L17.3155 18.5727
" />
<path d="M17.3155 18.5727
L17.4107 18.6679
" />
<path d="M17.4107 18.6679
L17.5060 18.7155
" />
<path d="M15.9821 19.4298
L16.5536 19.4298
" />
<path d="M16.2679 19.4298
L16.2679 18.4298
" />
<path d="M16.2679 18.4298
L16.3631 18.5727
" />
<path d="M16.3631 18.5727
L16.4583 18.6679
" />
<path d="M16.4583 18.6679
L16.5536 18.7155
" />
<path d="M15.7917 19.5251
L15.0298 19.5251
" />
<path d="M14.7917 19.4298
L14.7917 18.4298
" />
<path d="M14.7917 18.9060
L14.2202 18.9060
" />
<path d="M14.2202 19.4298
L14.2202 18.4298
" />
<path d="M13.6012 19.4298
L13.6964 19.3822
" />
<path d="M13.6964 19.3822
L13.7440 19.3346
" />
<path d="M13.7440 19.3346
L13.7917 19.2393
" />
<path d="M13.7917 19.2393
L13.7917 18.9536
" />
<path d="M13.7917 18.9536
L13.7440 18.8584
" />
<path d="M13.7440 18.8584
L13.6964 18.8108
" />
<path d="M13.6964 18.8108
L13.6012 18.7632
" />
<path d="M13.6012 18.7632
L13.4583 18.7632
" />
<path d="M13.4583 18.7632
L13.3631 18.8108
" />
<path d="M13.3631 18.8108
L13.3155 18.8584
" />
<path d="M13.3155 18.8584
L13.2679 18.9536
" />
<path d="M13.2679 18.9536
L13.2679 19.2393
" />
<path d="M13.2679 19.2393
L13.3155 19.3346
" />
<path d="M13.3155 19.3346
L13.3631 19.3822
" />
<path d="M13.3631 19.3822
L13.4583 19.4298
" />
<path d="M13.4583 19.4298
L13.6012 19.4298
" />
<path d="M12.9821 18.7632
L12.6012 18.7632
" />
<path d="M12.8393 18.4298
L12.8393 19.2870
" />
<path d="M12.8393 19.2870
L12.7917 19.3822
" />
<path d="M12.7917 19.3822
L12.6964 19.4298
" />
<path d="M12.6964 19.4298
L12.6012 19.4298
" />
<path d="M12.3155 19.3822
L12.1726 19.4298
" />
<path d="M12.1726 19.4298
L11.9345 19.4298
" />
<path d="M11.9345 19.4298
L11.8393 19.3822
" />
<path d="M11.8393 19.3822
L11.7917 19.3346
" />
<path d="M11.7917 19.3346
L11.7440 19.2393
" />
<path d="M11.7440 19.2393
L11.7440 19.1441
" />
<path d="M11.7440 19.1441
L11.7917 19.0489
" />
<path d="M11.7917 19.0489
L11.8393 19.0012
" />
<path d="M11.8393 19.0012
L11.9345 18.9536
" />
<path d="M11.9345 18.9536
L12.1250 18.9060
" />
<path d="M12.1250 18.9060
L12.2202 18.8584
" />
<path d="M12.2202 18.8584
L12.2679 18.8108
" />
<path d="M12.2679 18.8108
L12.3155 18.7155
" />
<path d="M12.3155 18.7155
L12.3155 18.6203
" />
<path d="M12.3155 18.6203
L12.2679 18.5251
" />
<path d="M12.2679 18.5251
L12.2202 18.4774
" />
<path d="M12.2202 18.4774
L12.1250 18.4298
" />
<path d="M12.1250 18.4298
L11.8869 18.4298
" />
<path d="M11.8869 18.4298
L11.7440 18.4774
" />
<path d="M11.4107 18.7632
L11.2202 19.4298
" />
<path d="M11.2202 19.4298
L11.0298 18.9536
" />
<path d="M11.0298 18.9536
L10.8393 19.4298
" />
<path d="M10.8393 19.4298
L10.6488 18.7632
" />
<path d="M9.8393 19.4298
L9.8393 18.9060
" />
<path d="M9.8393 18.9060
L9.8869 18.8108
" />
<path d="M9.8869 18.8108
L9.9821 18.7632
" />
<path d="M9.9821 18.7632
L10.1726 18.7632
" />
<path d="M10.1726 18.7632
L10.2679 18.8108
" />
<path d="M9.8393 19.3822
L9.9345 19.4298
" />
<path d="M9.9345 19.4298
L10.1726 19.4298
" />
<path d="M10.1726 19.4298
L10.2679 19.3822
" />
<path d="M10.2679 19.3822
L10.3155 19.2870
" />
<path d="M10.3155 19.2870
L10.3155 19.1917
" />
<path d="M10.3155 19.1917
L10.2679 19.0965
" />
<path d="M10.2679 19.0965
L10.1726 19.0489
" />
<path d="M10.1726 19.0489
L9.9345 19.0489
" />
<path d="M9.9345 19.0489
L9.8393 19.0012
" />
<path d="M9.3631 18.7632
L9.3631 19.7632
" />
<path d="M9.3631 18.8108
L9.2679 18.7632
" />
<path d="M9.2679 18.7632
L9.0774 18.7632
" />
<path d="M9.0774 18.7632
L8.9821 18.8108
" />
<path d="M8.9821 18.8108
L8.9345 18.8584
" />
<path d="M8.9345 18.8584
L8.8869 18.9536
" />
<path d="M8.8869 18.9536
L8.8869 19.2393
" />
<path d="M8.8869 19.2393
L8.9345 19.3346
" />
<path d="M8.9345 19.3346
L8.9821 19.3822
" />
<path d="M8.9821 19.3822
L9.0774 19.4298
" />
<path d="M9.0774 19.4298
L9.2679 19.4298
" />
<path d="M9.2679 19.4298
L9.3631 19.3822
" />
<path d="M8.6964 19.5251
L7.9345 19.5251
" />
<path d="M7.8393 18.4298
L7.2679 18.4298
" />
<path d="M7.5536 19.4298
L7.5536 18.4298
" />
<path d="M6.9345 19.4298
L6.9345 18.4298
" />
<path d="M6.9345 18.9060
L6.3631 18.9060
" />
<path d="M6.3631 19.4298
L6.3631 18.4298
" />
<path d="M6.0298 18.4298
L5.4583 18.4298
" />
<path d="M5.7440 19.4298
L5.7440 18.4298
" />
<path d="M5.3631 19.5251
L4.6012 19.5251
" />
<path d="M4.4107 19.3822
L4.3155 19.4298
" />
<path d="M4.3155 19.4298
L4.1250 19.4298
" />
<path d="M4.1250 19.4298
L4.0298 19.3822
" />
<path d="M4.0298 19.3822
L3.9821 19.2870
" />
<path d="M3.9821 19.2870
L3.9821 19.2393
" />
<path d="M3.9821 19.2393
L4.0298 19.1441
" />
<path d="M4.0298 19.1441
L4.1250 19.0965
" />
<path d="M4.1250 19.0965
L4.2679 19.0965
" />
<path d="M4.2679 19.0965
L4.3631 19.0489
" />
<path d="M4.3631 19.0489
L4.4107 18.9536
" />
<path d="M4.4107 18.9536
L4.4107 18.9060
" />
<path d="M4.4107 18.9060
L4.3631 18.8108
" />
<path d="M4.3631 18.8108
L4.2679 18.7632
" />
<path d="M4.2679 18.7632
L4.1250 18.7632
" />
<path d="M4.1250 18.7632
L4.0298 18.8108
" />
<path d="M3.1250 18.7632
L3.1250 19.7632
" />
<path d="M3.1250 19.3822
L3.2202 19.4298
" />
<path d="M3.2202 19.4298
L3.4107 19.4298
" />
<path d="M3.4107 19.4298
L3.5060 19.3822
" />
<path d="M3.5060 19.3822
L3.5536 19.3346
" />
<path d="M3.5536 19.3346
L3.6012 19.2393
" />
<path d="M3.6012 19.2393
L3.6012 18.9536
" />
<path d="M3.6012 18.9536
L3.5536 18.8584
" />
<path d="M3.5536 18.8584
L3.5060 18.8108
" />
<path d="M3.5060 18.8108
L3.4107 18.7632
" />
<path d="M3.4107 18.7632
L3.2202 18.7632
" />
<path d="M3.2202 18.7632
L3.1250 18.8108
" />
<path d="M2.6964 19.3822
L2.5536 19.4298
" />
<path d="M2.5536 19.4298
L2.3155 19.4298
" />
<path d="M2.3155 19.4298
L2.2202 19.3822
" />
<path d="M2.2202 19.3822
L2.1726 19.3346
" />
<path d="M2.1726 19.3346
L2.1250 19.2393
" />
<path d="M2.1250 19.2393
L2.1250 19.1441
" />
<path d="M2.1250 19.1441
L2.1726 19.0489
" />
<path d="M2.1726 19.0489
L2.2202 19.0012
" />
<path d="M2.2202 19.0012
L2.3155 18.9536
" />
<path d="M2.3155 18.9536
L2.5060 18.9060
" />
<path d="M2.5060 18.9060
L2.6012 18.8584
" />
<path d="M2.6012 18.8584
L2.6488 18.8108
" />
<path d="M2.6488 18.8108
L2.6964 18.7155
" />
<path d="M2.6964 18.7155
L2.6964 18.6203
" />
<path d="M2.6964 18.6203
L2.6488 18.5251
" />
<path d="M2.6488 18.5251
L2.6012 18.4774
" />
<path d="M2.6012 18.4774
L2.5060 18.4298
" />
<path d="M2.5060 18.4298
L2.2679 18.4298
" />
<path d="M2.2679 18.4298
L2.1250 18.4774
" />
<path d="M1.6964 19.4298
L1.6964 18.7632
" />
<path d="M1.6964 18.4298
L1.7440 18.4774
" />
<path d="M1.7440 18.4774
L1.6964 18.5251
" />
<path d="M1.6964 18.5251
L1.6488 18.4774
" />
<path d="M1.6488 18.4774
L1.6964 18.4298
" />
<path d="M1.6964 18.4298
L1.6964 18.5251
" />
<path d="M1.0774 19.4298
L1.1726 19.3822
" />
<path d="M1.1726 19.3822
L1.2202 19.2870
" />
<path d="M1.2202 19.2870
L1.2202 18.4298
" />
<path d="M0.6964 19.4298
L0.6964 18.4298
" />
<path d="M0.6012 19.0489
L0.3155 19.4298
" />
<path d="M0.3155 18.7632
L0.6964 19.1441
" />
</g><text x="12.7202" y="21.0750"
transform="scale(-1 1) translate(-25.440478 0)"
textLength="4.5357" font-size="1.3333" lengthAdjust="spacingAndGlyphs"
text-anchor="middle" opacity="0" stroke-opacity="0">REF**</text>
<g class="stroked-text"><desc>REF**</desc>
<path d="M14.0536 21.0298
L14.3869 20.5536
" />
<path d="M14.6250 21.0298
L14.6250 20.0298
" />
<path d="M14.6250 20.0298
L14.2440 20.0298
" />
<path d="M14.2440 20.0298
L14.1488 20.0774
" />
<path d="M14.1488 20.0774
L14.1012 20.1251
" />
<path d="M14.1012 20.1251
L14.0536 20.2203
" />
<path d="M14.0536 20.2203
L14.0536 20.3632
" />
<path d="M14.0536 20.3632
L14.1012 20.4584
" />
<path d="M14.1012 20.4584
L14.1488 20.5060
" />
<path d="M14.1488 20.5060
L14.2440 20.5536
" />
<path d="M14.2440 20.5536
L14.6250 20.5536
" />
<path d="M13.6250 20.5060
L13.2917 20.5060
" />
<path d="M13.1488 21.0298
L13.6250 21.0298
" />
<path d="M13.6250 21.0298
L13.6250 20.0298
" />
<path d="M13.6250 20.0298
L13.1488 20.0298
" />
<path d="M12.3869 20.5060
L12.7202 20.5060
" />
<path d="M12.7202 21.0298
L12.7202 20.0298
" />
<path d="M12.7202 20.0298
L12.2440 20.0298
" />
<path d="M11.7202 20.0298
L11.7202 20.2679
" />
<path d="M11.9583 20.1727
L11.7202 20.2679
" />
<path d="M11.7202 20.2679
L11.4821 20.1727
" />
<path d="M11.8631 20.4584
L11.7202 20.2679
" />
<path d="M11.7202 20.2679
L11.5774 20.4584
" />
<path d="M10.9583 20.0298
L10.9583 20.2679
" />
<path d="M11.1964 20.1727
L10.9583 20.2679
" />
<path d="M10.9583 20.2679
L10.7202 20.1727
" />
<path d="M11.1012 20.4584
L10.9583 20.2679
" />
<path d="M10.9583 20.2679
L10.8155 20.4584
" />
</g></g>
<g style="fill:none; 
stroke:#585D84; stroke-width:0.1000; stroke-opacity:1; 
stroke-linecap:round; stroke-linejoin:round;">
<path d="M5.1002 13.3850
L7.6402 13.3850
" />
<path d="M5.1002 15.9250
L5.1002 13.3850
" />
<path d="M7.6402 12.1150
L12.7202 12.1150
" />
<path d="M7.6402 15.9250
L5.1002 15.9250
" />
<path d="M7.6402 16.5600
L7.6402 12.1150
" />
<path d="M16.5302 16.5600
L7.6402 16.5600
" />
<path d="M19.0702 10.2100
L15.2602 10.2100
" />
<path d="M19.0702 10.2100
L19.0702 14.0200
" />
<path d="M19.0702 10.8450
L21.6102 10.8450
" />
<path d="M21.6102 10.8450
L21.6102 13.3850
" />
<path d="M21.6102 13.3850
L19.0702 13.3850
" />
<path d="M12.7202 12.1150 A2.5400 2.5400 0.0 0 0 15.1844 10.1910" />
<path d="M16.5302 16.5600 A2.5400 2.5400 0.0 0 0 19.0702 14.0200" />
</g>
<g style="fill:none; 
stroke:#585D84; stroke-width:0.0212; stroke-opacity:1; 
stroke-linecap:round; stroke-linejoin:round;">
<circle cx="10.1802" cy="14.6550" r="1.5000" /> 
</g>
<g style="fill:none; 
stroke:#585D84; stroke-width:0.0212; stroke-opacity:1; 
stroke-linecap:round; stroke-linejoin:round;">
<circle cx="12.7202" cy="9.5750" r="2.0000" /> 
</g>
<g style="fill:none; 
stroke:#585D84; stroke-width:0.0212; stroke-opacity:1; 
stroke-linecap:round; stroke-linejoin:round;">
<circle cx="12.7202" cy="9.5750" r="2.0000" /> 
</g>
<g style="fill:none; 
stroke:#585D84; stroke-width:0.0212; stroke-opacity:1; 
stroke-linecap:round; stroke-linejoin:round;">
<circle cx="12.7202" cy="9.5750" r="2.0000" /> 
</g>
<g style="fill:none; 
stroke:#585D84; stroke-width:0.0212; stroke-opacity:1; 
stroke-linecap:round; stroke-linejoin:round;">
<circle cx="16.5302" cy="12.1150" r="1.5000" /> 
</g>
<g style="fill:none; 
stroke:#585D84; stroke-width:0.0389; stroke-opacity:1; 
stroke-linecap:round; stroke-linejoin:round;">
<text x="10.2202" y="17.3083"
textLength="0.4233" font-size="0.6222" lengthAdjust="spacingAndGlyphs"
text-anchor="middle" opacity="0" stroke-opacity="0">A</text>
<g class="stroked-text"><desc>A</desc>
<path d="M10.1091 17.1555
L10.3314 17.1555
" />
<path d="M10.0647 17.2889
L10.2202 16.8222
" />
<path d="M10.2202 16.8222
L10.3758 17.2889
" />
</g></g>
<g style="fill:none; 
stroke:#585D84; stroke-width:0.0212; stroke-opacity:1; 
stroke-linecap:round; stroke-linejoin:round;">
<path d="M10.0202 17.5750
L10.4202 17.5750
" />
<path d="M10.4202 17.5750 A0.5000 0.5000 0.0 0 0 10.4202 16.5750" />
<path d="M10.4202 16.5750
L10.0202 16.5750
" />
<path d="M10.0202 16.5750 A0.5000 0.5000 0.0 0 0 10.0202 17.5750" />
</g>
<g style="fill:none; 
stroke:#585D84; stroke-width:0.0389; stroke-opacity:1; 
stroke-linecap:round; stroke-linejoin:round;">
<text x="15.2202" y="17.3083"
textLength="0.4900" font-size="0.6222" lengthAdjust="spacingAndGlyphs"
text-anchor="middle" opacity="0" stroke-opacity="0">B</text>
<g class="stroked-text"><desc>B</desc>
<path d="M15.2536 17.0444
L15.3202 17.0666
" />
<path d="M15.3202 17.0666
L15.3425 17.0889
" />
<path d="M15.3425 17.0889
L15.3647 17.1333
" />
<path d="M15.3647 17.1333
L15.3647 17.2000
" />
<path d="M15.3647 17.2000
L15.3425 17.2444
" />
<path d="M15.3425 17.2444
L15.3202 17.2666
" />
<path d="M15.3202 17.2666
L15.2758 17.2889
" />
<path d="M15.2758 17.2889
L15.0980 17.2889
" />
<path d="M15.0980 17.2889
L15.0980 16.8222
" />
<path d="M15.0980 16.8222
L15.2536 16.8222
" />
<path d="M15.2536 16.8222
L15.2980 16.8444
" />
<path d="M15.2980 16.8444
L15.3202 16.8666
" />
<path d="M15.3202 16.8666
L15.3425 16.9111
" />
<path d="M15.3425 16.9111
L15.3425 16.9555
" />
<path d="M15.3425 16.9555
L15.3202 17.0000
" />
<path d="M15.3202 17.0000
L15.2980 17.0222
" />
<path d="M15.2980 17.0222
L15.2536 17.0444
" />
<path d="M15.2536 17.0444
L15.0980 17.0444
" />
</g></g>
<g style="fill:none; 
stroke:#585D84; stroke-width:0.0212; stroke-opacity:1; 
stroke-linecap:round; stroke-linejoin:round;">
<path d="M15.0202 17.5750
L15.4202 17.5750
" />
<path d="M15.4202 17.5750 A0.5000 0.5000 0.0 0 0 15.4202 16.5750" />
<path d="M15.4202 16.5750
L15.0202 16.5750
" />
<path d="M15.0202 16.5750 A0.5000 0.5000 0.0 0 0 15.0202 17.5750" />
</g>
<g style="fill:none; 
stroke:#585D84; stroke-width:0.0389; stroke-opacity:1; 
stroke-linecap:round; stroke-linejoin:round;">
<text x="12.7202" y="17.3083"
textLength="0.4900" font-size="0.6222" lengthAdjust="spacingAndGlyphs"
text-anchor="middle" opacity="0" stroke-opacity="0">C</text>
<g class="stroked-text"><desc>C</desc>
<path d="M12.8647 17.2444
L12.8425 17.2666
" />
<path d="M12.8425 17.2666
L12.7758 17.2889
" />
<path d="M12.7758 17.2889
L12.7313 17.2889
" />
<path d="M12.7313 17.2889
L12.6647 17.2666
" />
<path d="M12.6647 17.2666
L12.6202 17.2222
" />
<path d="M12.6202 17.2222
L12.5980 17.1778
" />
<path d="M12.5980 17.1778
L12.5758 17.0889
" />
<path d="M12.5758 17.0889
L12.5758 17.0222
" />
<path d="M12.5758 17.0222
L12.5980 16.9333
" />
<path d="M12.5980 16.9333
L12.6202 16.8889
" />
<path d="M12.6202 16.8889
L12.6647 16.8444
" />
<path d="M12.6647 16.8444
L12.7313 16.8222
" />
<path d="M12.7313 16.8222
L12.7758 16.8222
" />
<path d="M12.7758 16.8222
L12.8425 16.8444
" />
<path d="M12.8425 16.8444
L12.8647 16.8666
" />
</g></g>
<g style="fill:none; 
stroke:#585D84; stroke-width:0.0212; stroke-opacity:1; 
stroke-linecap:round; stroke-linejoin:round;">
<path d="M12.5202 17.5750
L12.9202 17.5750
" />
<path d="M12.9202 17.5750 A0.5000 0.5000 0.0 0 0 12.9202 16.5750" />
<path d="M12.9202 16.5750
L12.5202 16.5750
" />
<path d="M12.5202 16.5750 A0.5000 0.5000 0.0 0 0 12.5202 17.5750" />
</g>
<g style="fill:none; 
stroke:#585D84; stroke-width:0.0833; stroke-opacity:1; 
stroke-linecap:round; stroke-linejoin:round;">
<g transform="rotate(-90.000000 7.1902 9.5750)">
<text x="7.1902" y="10.0750"
textLength="2.1929" font-size="1.3333" lengthAdjust="spacingAndGlyphs"
text-anchor="middle" opacity="0" stroke-opacity="0">MP</text>
</g>
<g class="stroked-text"><desc>MP</desc>
<path d="M7.6485 10.4083
L6.6485 10.4083
" />
<path d="M6.6485 10.4083
L7.3628 10.0750
" />
<path d="M7.3628 10.0750
L6.6485 9.7417
" />
<path d="M6.6485 9.7417
L7.6485 9.7417
" />
<path d="M7.6485 9.2655
L6.6485 9.2655
" />
<path d="M6.6485 9.2655
L6.6485 8.8845
" />
<path d="M6.6485 8.8845
L6.6961 8.7893
" />
<path d="M6.6961 8.7893
L6.7438 8.7417
" />
<path d="M6.7438 8.7417
L6.8390 8.6940
" />
<path d="M6.8390 8.6940
L6.9819 8.6940
" />
<path d="M6.9819 8.6940
L7.0771 8.7417
" />
<path d="M7.0771 8.7417
L7.1247 8.7893
" />
<path d="M7.1247 8.7893
L7.1723 8.8845
" />
<path d="M7.1723 8.8845
L7.1723 9.2655
" />
</g><path style="fill:none; 
stroke:#585D84; stroke-width:0.0212; stroke-opacity:1; 
stroke-linecap:round; stroke-linejoin:round;fill:none"
d="M 6.1902,8.2750
6.2055,8.1985
6.2488,8.1336
6.3137,8.0902
6.3902,8.0750
7.5902,8.0750
8.1902,8.6750
8.1902,10.4750
7.5902,11.0750
6.3902,11.0750
6.3137,11.0598
6.2488,11.0164
6.2055,10.9515
6.1902,10.8750
Z" /> 
</g>
<g style="fill:none; 
stroke:#585D84; stroke-width:0.0833; stroke-opacity:1; 
stroke-linecap:round; stroke-linejoin:round;">
<g transform="rotate(-90.000000 18.2502 9.5750)">
<text x="18.2502" y="10.0750"
textLength="2.1929" font-size="1.3333" lengthAdjust="spacingAndGlyphs"
text-anchor="middle" opacity="0" stroke-opacity="0">MP</text>
</g>
<g class="stroked-text"><desc>MP</desc>
<path d="M18.7085 10.4083
L17.7085 10.4083
" />
<path d="M17.7085 10.4083
L18.4228 10.0750
" />
<path d="M18.4228 10.0750
L17.7085 9.7417
" />
<path d="M17.7085 9.7417
L18.7085 9.7417
" />
<path d="M18.7085 9.2655
L17.7085 9.2655
" />
<path d="M17.7085 9.2655
L17.7085 8.8845
" />
<path d="M17.7085 8.8845
L17.7561 8.7893
" />
<path d="M17.7561 8.7893
L17.8038 8.7417
" />
<path d="M17.8038 8.7417
L17.8990 8.6940
" />
<path d="M17.8990 8.6940
L18.0419 8.6940
" />
<path d="M18.0419 8.6940
L18.1371 8.7417
" />
<path d="M18.1371 8.7417
L18.1847 8.7893
" />
<path d="M18.1847 8.7893
L18.2323 8.8845
" />
<path d="M18.2323 8.8845
L18.2323 9.2655
" />
</g><path style="fill:none; 
stroke:#585D84; stroke-width:0.0212; stroke-opacity:1; 
stroke-linecap:round; stroke-linejoin:round;fill:none"
d="M 17.2502,10.3350
17.2502,8.6750
17.8502,8.0750
19.0502,8.0750
19.1302,8.0950
19.1902,8.1350
19.2302,8.1950
19.2502,8.2750
19.2502,10.4750
18.6502,11.0750
18.1302,11.0750
Z" /> 
</g>
<g style="fill:none; 
stroke:#585D84; stroke-width:0.0708; stroke-opacity:1; 
stroke-linecap:round; stroke-linejoin:round;">
<text x="6.4302" y="15.0800"
textLength="1.6615" font-size="1.1333" lengthAdjust="spacingAndGlyphs"
text-anchor="middle" opacity="0" stroke-opacity="0">S1</text>
<g class="stroked-text"><desc>S1</desc>
<path d="M5.7826 15.0041
L5.9040 15.0445
" />
<path d="M5.9040 15.0445
L6.1064 15.0445
" />
<path d="M6.1064 15.0445
L6.1874 15.0041
" />
<path d="M6.1874 15.0041
L6.2279 14.9636
" />
<path d="M6.2279 14.9636
L6.2683 14.8826
" />
<path d="M6.2683 14.8826
L6.2683 14.8017
" />
<path d="M6.2683 14.8017
L6.2279 14.7207
" />
<path d="M6.2279 14.7207
L6.1874 14.6803
" />
<path d="M6.1874 14.6803
L6.1064 14.6398
" />
<path d="M6.1064 14.6398
L5.9445 14.5993
" />
<path d="M5.9445 14.5993
L5.8636 14.5588
" />
<path d="M5.8636 14.5588
L5.8231 14.5184
" />
<path d="M5.8231 14.5184
L5.7826 14.4374
" />
<path d="M5.7826 14.4374
L5.7826 14.3564
" />
<path d="M5.7826 14.3564
L5.8231 14.2755
" />
<path d="M5.8231 14.2755
L5.8636 14.2350
" />
<path d="M5.8636 14.2350
L5.9445 14.1945
" />
<path d="M5.9445 14.1945
L6.1469 14.1945
" />
<path d="M6.1469 14.1945
L6.2683 14.2350
" />
<path d="M7.0779 15.0445
L6.5921 15.0445
" />
<path d="M6.8350 15.0445
L6.8350 14.1945
" />
<path d="M6.8350 14.1945
L6.7540 14.3160
" />
<path d="M6.7540 14.3160
L6.6731 14.3969
" />
<path d="M6.6731 14.3969
L6.5921 14.4374
" />
</g><path style="fill:none; 
stroke:#585D84; stroke-width:0.0212; stroke-opacity:1; 
stroke-linecap:round; stroke-linejoin:round;fill:none"
d="M 5.1552,13.6550
5.1743,13.5593
5.2285,13.4782
5.3096,13.4240
5.4052,13.4050
7.4552,13.4050
7.5509,13.4240
7.6320,13.4782
7.6862,13.5593
7.7052,13.6550
7.7052,15.6550
7.6862,15.7507
7.6320,15.8318
7.5509,15.8860
7.4552,15.9050
5.4052,15.9050
5.3096,15.8860
5.2285,15.8318
5.1743,15.7507
5.1552,15.6550
Z" /> 
</g>
<g style="fill:none; 
stroke:#585D84; stroke-width:0.0639; stroke-opacity:1; 
stroke-linecap:round; stroke-linejoin:round;">
<text x="8.9102" y="7.4183"
textLength="1.4987" font-size="1.0222" lengthAdjust="spacingAndGlyphs"
text-anchor="middle" opacity="0" stroke-opacity="0">S1</text>
<g class="stroked-text"><desc>S1</desc>
<path d="M8.3261 7.3498
L8.4356 7.3864
" />
<path d="M8.4356 7.3864
L8.6182 7.3864
" />
<path d="M8.6182 7.3864
L8.6912 7.3498
" />
<path d="M8.6912 7.3498
L8.7277 7.3133
" />
<path d="M8.7277 7.3133
L8.7642 7.2403
" />
<path d="M8.7642 7.2403
L8.7642 7.1673
" />
<path d="M8.7642 7.1673
L8.7277 7.0943
" />
<path d="M8.7277 7.0943
L8.6912 7.0578
" />
<path d="M8.6912 7.0578
L8.6182 7.0213
" />
<path d="M8.6182 7.0213
L8.4721 6.9848
" />
<path d="M8.4721 6.9848
L8.3991 6.9483
" />
<path d="M8.3991 6.9483
L8.3626 6.9117
" />
<path d="M8.3626 6.9117
L8.3261 6.8387
" />
<path d="M8.3261 6.8387
L8.3261 6.7657
" />
<path d="M8.3261 6.7657
L8.3626 6.6927
" />
<path d="M8.3626 6.6927
L8.3991 6.6562
" />
<path d="M8.3991 6.6562
L8.4721 6.6197
" />
<path d="M8.4721 6.6197
L8.6547 6.6197
" />
<path d="M8.6547 6.6197
L8.7642 6.6562
" />
<path d="M9.4944 7.3864
L9.0563 7.3864
" />
<path d="M9.2753 7.3864
L9.2753 6.6197
" />
<path d="M9.2753 6.6197
L9.2023 6.7292
" />
<path d="M9.2023 6.7292
L9.1293 6.8022
" />
<path d="M9.1293 6.8022
L9.0563 6.8387
" />
</g></g>
<g style="fill:none; 
stroke:#585D84; stroke-width:0.0212; stroke-opacity:1; 
stroke-linecap:round; stroke-linejoin:round;">
<circle cx="8.9102" cy="7.0350" r="1.1500" /> 
</g>
<g style="fill:none; 
stroke:#585D84; stroke-width:0.0389; stroke-opacity:1; 
stroke-linecap:round; stroke-linejoin:round;">
<text x="10.2202" y="2.8083"
textLength="0.9122" font-size="0.6222" lengthAdjust="spacingAndGlyphs"
text-anchor="middle" opacity="0" stroke-opacity="0">S1</text>
<g class="stroked-text"><desc>S1</desc>
<path d="M9.8647 2.7666
L9.9314 2.7889
" />
<path d="M9.9314 2.7889
L10.0425 2.7889
" />
<path d="M10.0425 2.7889
L10.0869 2.7666
" />
<path d="M10.0869 2.7666
L10.1091 2.7444
" />
<path d="M10.1091 2.7444
L10.1314 2.7000
" />
<path d="M10.1314 2.7000
L10.1314 2.6555
" />
<path d="M10.1314 2.6555
L10.1091 2.6111
" />
<path d="M10.1091 2.6111
L10.0869 2.5889
" />
<path d="M10.0869 2.5889
L10.0425 2.5666
" />
<path d="M10.0425 2.5666
L9.9536 2.5444
" />
<path d="M9.9536 2.5444
L9.9091 2.5222
" />
<path d="M9.9091 2.5222
L9.8869 2.5000
" />
<path d="M9.8869 2.5000
L9.8647 2.4555
" />
<path d="M9.8647 2.4555
L9.8647 2.4111
" />
<path d="M9.8647 2.4111
L9.8869 2.3666
" />
<path d="M9.8869 2.3666
L9.9091 2.3444
" />
<path d="M9.9091 2.3444
L9.9536 2.3222
" />
<path d="M9.9536 2.3222
L10.0647 2.3222
" />
<path d="M10.0647 2.3222
L10.1314 2.3444
" />
<path d="M10.5758 2.7889
L10.3091 2.7889
" />
<path d="M10.4425 2.7889
L10.4425 2.3222
" />
<path d="M10.4425 2.3222
L10.3980 2.3889
" />
<path d="M10.3980 2.3889
L10.3536 2.4333
" />
<path d="M10.3536 2.4333
L10.3091 2.4555
" />
</g></g>
<g style="fill:none; 
stroke:#585D84; stroke-width:0.0212; stroke-opacity:1; 
stroke-linecap:round; stroke-linejoin:round;">
<path d="M10.0202 3.0750
L10.4202 3.0750
" />
<path d="M10.4202 3.0750 A0.5000 0.5000 0.0 0 0 10.4202 2.0750" />
<path d="M10.4202 2.0750
L10.0202 2.0750
" />
<path d="M10.0202 2.0750 A0.5000 0.5000 0.0 0 0 10.0202 3.0750" />
</g>
<g style="fill:none; 
stroke:#585D84; stroke-width:0.0389; stroke-opacity:1; 
stroke-linecap:round; stroke-linejoin:round;">
<text x="15.2202" y="2.8083"
textLength="0.9122" font-size="0.6222" lengthAdjust="spacingAndGlyphs"
text-anchor="middle" opacity="0" stroke-opacity="0">S2</text>
<g class="stroked-text"><desc>S2</desc>
<path d="M14.8647 2.7666
L14.9314 2.7889
" />
<path d="M14.9314 2.7889
L15.0425 2.7889
" />
<path d="M15.0425 2.7889
L15.0869 2.7666
" />
<path d="M15.0869 2.7666
L15.1091 2.7444
" />
<path d="M15.1091 2.7444
L15.1313 2.7000
" />
<path d="M15.1313 2.7000
L15.1313 2.6555
" />
<path d="M15.1313 2.6555
L15.1091 2.6111
" />
<path d="M15.1091 2.6111
L15.0869 2.5889
" />
<path d="M15.0869 2.5889
L15.0425 2.5666
" />
<path d="M15.0425 2.5666
L14.9536 2.5444
" />
<path d="M14.9536 2.5444
L14.9091 2.5222
" />
<path d="M14.9091 2.5222
L14.8869 2.5000
" />
<path d="M14.8869 2.5000
L14.8647 2.4555
" />
<path d="M14.8647 2.4555
L14.8647 2.4111
" />
<path d="M14.8647 2.4111
L14.8869 2.3666
" />
<path d="M14.8869 2.3666
L14.9091 2.3444
" />
<path d="M14.9091 2.3444
L14.9536 2.3222
" />
<path d="M14.9536 2.3222
L15.0647 2.3222
" />
<path d="M15.0647 2.3222
L15.1313 2.3444
" />
<path d="M15.3091 2.3666
L15.3313 2.3444
" />
<path d="M15.3313 2.3444
L15.3758 2.3222
" />
<path d="M15.3758 2.3222
L15.4869 2.3222
" />
<path d="M15.4869 2.3222
L15.5313 2.3444
" />
<path d="M15.5313 2.3444
L15.5536 2.3666
" />
<path d="M15.5536 2.3666
L15.5758 2.4111
" />
<path d="M15.5758 2.4111
L15.5758 2.4555
" />
<path d="M15.5758 2.4555
L15.5536 2.5222
" />
<path d="M15.5536 2.5222
L15.2869 2.7889
" />
<path d="M15.2869 2.7889
L15.5758 2.7889
" />
</g></g>
<g style="fill:none; 
stroke:#585D84; stroke-width:0.0212; stroke-opacity:1; 
stroke-linecap:round; stroke-linejoin:round;">
<path d="M15.0202 3.0750
L15.4202 3.0750
" />
<path d="M15.4202 3.0750 A0.5000 0.5000 0.0 0 0 15.4202 2.0750" />
<path d="M15.4202 2.0750
L15.0202 2.0750
" />
<path d="M15.0202 2.0750 A0.5000 0.5000 0.0 0 0 15.0202 3.0750" />
</g>
<g style="fill:none; 
stroke:#585D84; stroke-width:0.0639; stroke-opacity:1; 
stroke-linecap:round; stroke-linejoin:round;">
<text x="15.2602" y="4.8783"
textLength="1.4987" font-size="1.0222" lengthAdjust="spacingAndGlyphs"
text-anchor="middle" opacity="0" stroke-opacity="0">S2</text>
<g class="stroked-text"><desc>S2</desc>
<path d="M14.6761 4.8098
L14.7856 4.8464
" />
<path d="M14.7856 4.8464
L14.9682 4.8464
" />
<path d="M14.9682 4.8464
L15.0412 4.8098
" />
<path d="M15.0412 4.8098
L15.0777 4.7733
" />
<path d="M15.0777 4.7733
L15.1142 4.7003
" />
<path d="M15.1142 4.7003
L15.1142 4.6273
" />
<path d="M15.1142 4.6273
L15.0777 4.5543
" />
<path d="M15.0777 4.5543
L15.0412 4.5178
" />
<path d="M15.0412 4.5178
L14.9682 4.4813
" />
<path d="M14.9682 4.4813
L14.8221 4.4448
" />
<path d="M14.8221 4.4448
L14.7491 4.4083
" />
<path d="M14.7491 4.4083
L14.7126 4.3717
" />
<path d="M14.7126 4.3717
L14.6761 4.2987
" />
<path d="M14.6761 4.2987
L14.6761 4.2257
" />
<path d="M14.6761 4.2257
L14.7126 4.1527
" />
<path d="M14.7126 4.1527
L14.7491 4.1162
" />
<path d="M14.7491 4.1162
L14.8221 4.0797
" />
<path d="M14.8221 4.0797
L15.0047 4.0797
" />
<path d="M15.0047 4.0797
L15.1142 4.1162
" />
<path d="M15.4063 4.1527
L15.4428 4.1162
" />
<path d="M15.4428 4.1162
L15.5158 4.0797
" />
<path d="M15.5158 4.0797
L15.6983 4.0797
" />
<path d="M15.6983 4.0797
L15.7713 4.1162
" />
<path d="M15.7713 4.1162
L15.8079 4.1527
" />
<path d="M15.8079 4.1527
L15.8444 4.2257
" />
<path d="M15.8444 4.2257
L15.8444 4.2987
" />
<path d="M15.8444 4.2987
L15.8079 4.4083
" />
<path d="M15.8079 4.4083
L15.3698 4.8464
" />
<path d="M15.3698 4.8464
L15.8444 4.8464
" />
</g></g>
<g style="fill:none; 
stroke:#585D84; stroke-width:0.0212; stroke-opacity:1; 
stroke-linecap:round; stroke-linejoin:round;">
<circle cx="15.2602" cy="4.4950" r="1.1500" /> 
</g>
<g style="fill:none; 
stroke:#585D84; stroke-width:0.0708; stroke-opacity:1; 
stroke-linecap:round; stroke-linejoin:round;">
<text x="20.2802" y="12.5400"
textLength="1.6615" font-size="1.1333" lengthAdjust="spacingAndGlyphs"
text-anchor="middle" opacity="0" stroke-opacity="0">S2</text>
<g class="stroked-text"><desc>S2</desc>
<path d="M19.6326 12.4641
L19.7540 12.5045
" />
<path d="M19.7540 12.5045
L19.9564 12.5045
" />
<path d="M19.9564 12.5045
L20.0374 12.4641
" />
<path d="M20.0374 12.4641
L20.0779 12.4236
" />
<path d="M20.0779 12.4236
L20.1183 12.3426
" />
<path d="M20.1183 12.3426
L20.1183 12.2617
" />
<path d="M20.1183 12.2617
L20.0779 12.1807
" />
<path d="M20.0779 12.1807
L20.0374 12.1403
" />
<path d="M20.0374 12.1403
L19.9564 12.0998
" />
<path d="M19.9564 12.0998
L19.7945 12.0593
" />
<path d="M19.7945 12.0593
L19.7136 12.0188
" />
<path d="M19.7136 12.0188
L19.6731 11.9784
" />
<path d="M19.6731 11.9784
L19.6326 11.8974
" />
<path d="M19.6326 11.8974
L19.6326 11.8164
" />
<path d="M19.6326 11.8164
L19.6731 11.7355
" />
<path d="M19.6731 11.7355
L19.7136 11.6950
" />
<path d="M19.7136 11.6950
L19.7945 11.6545
" />
<path d="M19.7945 11.6545
L19.9969 11.6545
" />
<path d="M19.9969 11.6545
L20.1183 11.6950
" />
<path d="M20.4421 11.7355
L20.4826 11.6950
" />
<path d="M20.4826 11.6950
L20.5636 11.6545
" />
<path d="M20.5636 11.6545
L20.7660 11.6545
" />
<path d="M20.7660 11.6545
L20.8469 11.6950
" />
<path d="M20.8469 11.6950
L20.8874 11.7355
" />
<path d="M20.8874 11.7355
L20.9279 11.8164
" />
<path d="M20.9279 11.8164
L20.9279 11.8974
" />
<path d="M20.9279 11.8974
L20.8874 12.0188
" />
<path d="M20.8874 12.0188
L20.4017 12.5045
" />
<path d="M20.4017 12.5045
L20.9279 12.5045
" />
</g><path style="fill:none; 
stroke:#585D84; stroke-width:0.0212; stroke-opacity:1; 
stroke-linecap:round; stroke-linejoin:round;fill:none"
d="M 19.0052,11.1150
19.0243,11.0193
19.0785,10.9382
19.1596,10.8840
19.2552,10.8650
21.3052,10.8650
21.4009,10.8840
21.4820,10.9382
21.5362,11.0193
21.5552,11.1150
21.5552,13.1150
21.5362,13.2107
21.4820,13.2918
21.4009,13.3460
21.3052,13.3650
19.2552,13.3650
19.1596,13.3460
19.0785,13.2918
19.0243,13.2107
19.0052,13.1150
Z" /> 
<path style="fill:none; 
stroke:#AFAFAF; stroke-width:0.1000; stroke-opacity:1; 
stroke-linecap:round; stroke-linejoin:round;fill:none"
d="M 5.7202,2.5750
19.7202,2.5750
19.7202,16.5750
5.7202,16.5750
Z" /> 
</g>
<g style="fill:none; 
stroke:#AFAFAF; stroke-width:0.0212; stroke-opacity:1; 
stroke-linecap:round; stroke-linejoin:round;">
<circle cx="10.1802" cy="14.6550" r="1.5000" /> 
</g>
<g style="fill:none; 
stroke:#AFAFAF; stroke-width:0.0212; stroke-opacity:1; 
stroke-linecap:round; stroke-linejoin:round;">
<circle cx="12.7202" cy="9.5750" r="2.0000" /> 
</g>
<g style="fill:none; 
stroke:#AFAFAF; stroke-width:0.0212; stroke-opacity:1; 
stroke-linecap:round; stroke-linejoin:round;">
<circle cx="12.7202" cy="9.5750" r="2.0000" /> 
</g>
<g style="fill:none; 
stroke:#AFAFAF; stroke-width:0.0212; stroke-opacity:1; 
stroke-linecap:round; stroke-linejoin:round;">
<circle cx="12.7202" cy="9.5750" r="2.0000" /> 
</g>
<g style="fill:none; 
stroke:#AFAFAF; stroke-width:0.0212; stroke-opacity:1; 
stroke-linecap:round; stroke-linejoin:round;">
<circle cx="16.5302" cy="12.1150" r="1.5000" /> 
</g>
<g style="fill:none; 
stroke:#AFAFAF; stroke-width:0.0389; stroke-opacity:1; 
stroke-linecap:round; stroke-linejoin:round;">
<text x="10.2202" y="17.3083"
textLength="0.4233" font-size="0.6222" lengthAdjust="spacingAndGlyphs"
text-anchor="middle" opacity="0" stroke-opacity="0">A</text>
<g class="stroked-text"><desc>A</desc>
<path d="M10.1091 17.1555
L10.3314 17.1555
" />
<path d="M10.0647 17.2889
L10.2202 16.8222
" />
<path d="M10.2202 16.8222
L10.3758 17.2889
" />
</g></g>
<g style="fill:none; 
stroke:#AFAFAF; stroke-width:0.0212; stroke-opacity:1; 
stroke-linecap:round; stroke-linejoin:round;">
<path d="M10.0202 17.5750
L10.4202 17.5750
" />
<path d="M10.4202 17.5750 A0.5000 0.5000 0.0 0 0 10.4202 16.5750" />
<path d="M10.4202 16.5750
L10.0202 16.5750
" />
<path d="M10.0202 16.5750 A0.5000 0.5000 0.0 0 0 10.0202 17.5750" />
</g>
<g style="fill:none; 
stroke:#AFAFAF; stroke-width:0.0389; stroke-opacity:1; 
stroke-linecap:round; stroke-linejoin:round;">
<text x="15.2202" y="17.3083"
textLength="0.4900" font-size="0.6222" lengthAdjust="spacingAndGlyphs"
text-anchor="middle" opacity="0" stroke-opacity="0">B</text>
<g class="stroked-text"><desc>B</desc>
<path d="M15.2536 17.0444
L15.3202 17.0666
" />
<path d="M15.3202 17.0666
L15.3425 17.0889
" />
<path d="M15.3425 17.0889
L15.3647 17.1333
" />
<path d="M15.3647 17.1333
L15.3647 17.2000
" />
<path d="M15.3647 17.2000
L15.3425 17.2444
" />
<path d="M15.3425 17.2444
L15.3202 17.2666
" />
<path d="M15.3202 17.2666
L15.2758 17.2889
" />
<path d="M15.2758 17.2889
L15.0980 17.2889
" />
<path d="M15.0980 17.2889
L15.0980 16.8222
" />
<path d="M15.0980 16.8222
L15.2536 16.8222
" />
<path d="M15.2536 16.8222
L15.2980 16.8444
" />
<path d="M15.2980 16.8444
L15.3202 16.8666
" />
<path d="M15.3202 16.8666
L15.3425 16.9111
" />
<path d="M15.3425 16.9111
L15.3425 16.9555
" />
<path d="M15.3425 16.9555
L15.3202 17.0000
" />
<path d="M15.3202 17.0000
L15.2980 17.0222
" />
<path d="M15.2980 17.0222
L15.2536 17.0444
" />
<path d="M15.2536 17.0444
L15.0980 17.0444
" />
</g></g>
<g style="fill:none; 
stroke:#AFAFAF; stroke-width:0.0212; stroke-opacity:1; 
stroke-linecap:round; stroke-linejoin:round;">
<path d="M15.0202 17.5750
L15.4202 17.5750
" />
<path d="M15.4202 17.5750 A0.5000 0.5000 0.0 0 0 15.4202 16.5750" />
<path d="M15.4202 16.5750
L15.0202 16.5750
" />
<path d="M15.0202 16.5750 A0.5000 0.5000 0.0 0 0 15.0202 17.5750" />
</g>
<g style="fill:none; 
stroke:#AFAFAF; stroke-width:0.0389; stroke-opacity:1; 
stroke-linecap:round; stroke-linejoin:round;">
<text x="12.7202" y="17.3083"
textLength="0.4900" font-size="0.6222" lengthAdjust="spacingAndGlyphs"
text-anchor="middle" opacity="0" stroke-opacity="0">C</text>
<g class="stroked-text"><desc>C</desc>
<path d="M12.8647 17.2444
L12.8425 17.2666
" />
<path d="M12.8425 17.2666
L12.7758 17.2889
" />
<path d="M12.7758 17.2889
L12.7313 17.2889
" />
<path d="M12.7313 17.2889
L12.6647 17.2666
" />
<path d="M12.6647 17.2666
L12.6202 17.2222
" />
<path d="M12.6202 17.2222
L12.5980 17.1778
" />
<path d="M12.5980 17.1778
L12.5758 17.0889
" />
<path d="M12.5758 17.0889
L12.5758 17.0222
" />
<path d="M12.5758 17.0222
L12.5980 16.9333
" />
<path d="M12.5980 16.9333
L12.6202 16.8889
" />
<path d="M12.6202 16.8889
L12.6647 16.8444
" />
<path d="M12.6647 16.8444
L12.7313 16.8222
" />
<path d="M12.7313 16.8222
L12.7758 16.8222
" />
<path d="M12.7758 16.8222
L12.8425 16.8444
" />
<path d="M12.8425 16.8444
L12.8647 16.8666
" />
</g></g>
<g style="fill:none; 
stroke:#AFAFAF; stroke-width:0.0212; stroke-opacity:1; 
stroke-linecap:round; stroke-linejoin:round;">
<path d="M12.5202 17.5750
L12.9202 17.5750
" />
<path d="M12.9202 17.5750 A0.5000 0.5000 0.0 0 0 12.9202 16.5750" />
<path d="M12.9202 16.5750
L12.5202 16.5750
" />
<path d="M12.5202 16.5750 A0.5000 0.5000 0.0 0 0 12.5202 17.5750" />
</g>
<g style="fill:none; 
stroke:#AFAFAF; stroke-width:0.0833; stroke-opacity:1; 
stroke-linecap:round; stroke-linejoin:round;">
<g transform="rotate(-90.000000 7.1902 9.5750)">
<text x="7.1902" y="10.0750"
textLength="2.1929" font-size="1.3333" lengthAdjust="spacingAndGlyphs"
text-anchor="middle" opacity="0" stroke-opacity="0">MP</text>
</g>
<g class="stroked-text"><desc>MP</desc>
<path d="M7.6485 10.4083
L6.6485 10.4083
" />
<path d="M6.6485 10.4083
L7.3628 10.0750
" />
<path d="M7.3628 10.0750
L6.6485 9.7417
" />
<path d="M6.6485 9.7417
L7.6485 9.7417
" />
<path d="M7.6485 9.2655
L6.6485 9.2655
" />
<path d="M6.6485 9.2655
L6.6485 8.8845
" />
<path d="M6.6485 8.8845
L6.6961 8.7893
" />
<path d="M6.6961 8.7893
L6.7438 8.7417
" />
<path d="M6.7438 8.7417
L6.8390 8.6940
" />
<path d="M6.8390 8.6940
L6.9819 8.6940
" />
<path d="M6.9819 8.6940
L7.0771 8.7417
" />
<path d="M7.0771 8.7417
L7.1247 8.7893
" />
<path d="M7.1247 8.7893
L7.1723 8.8845
" />
<path d="M7.1723 8.8845
L7.1723 9.2655
" />
</g><path style="fill:none; 
stroke:#AFAFAF; stroke-width:0.0212; stroke-opacity:1; 
stroke-linecap:round; stroke-linejoin:round;fill:none"
d="M 6.1902,8.2750
6.2055,8.1985
6.2488,8.1336
6.3137,8.0902
6.3902,8.0750
7.5902,8.0750
8.1902,8.6750
8.1902,10.4750
7.5902,11.0750
6.3902,11.0750
6.3137,11.0598
6.2488,11.0164
6.2055,10.9515
6.1902,10.8750
Z" /> 
</g>
<g style="fill:none; 
stroke:#AFAFAF; stroke-width:0.0833; stroke-opacity:1; 
stroke-linecap:round; stroke-linejoin:round;">
<g transform="rotate(-90.000000 18.2502 9.5750)">
<text x="18.2502" y="10.0750"
textLength="2.1929" font-size="1.3333" lengthAdjust="spacingAndGlyphs"
text-anchor="middle" opacity="0" stroke-opacity="0">MP</text>
</g>
<g class="stroked-text"><desc>MP</desc>
<path d="M18.7085 10.4083
L17.7085 10.4083
" />
<path d="M17.7085 10.4083
L18.4228 10.0750
" />
<path d="M18.4228 10.0750
L17.7085 9.7417
" />
<path d="M17.7085 9.7417
L18.7085 9.7417
" />
<path d="M18.7085 9.2655
L17.7085 9.2655
" />
<path d="M17.7085 9.2655
L17.7085 8.8845
" />
<path d="M17.7085 8.8845
L17.7561 8.7893
" />
<path d="M17.7561 8.7893
L17.8038 8.7417
" />
<path d="M17.8038 8.7417
L17.8990 8.6940
" />
<path d="M17.8990 8.6940
L18.0419 8.6940
" />
<path d="M18.0419 8.6940
L18.1371 8.7417
" />
<path d="M18.1371 8.7417
L18.1847 8.7893
" />
<path d="M18.1847 8.7893
L18.2323 8.8845
" />
<path d="M18.2323 8.8845
L18.2323 9.2655
" />
</g><path style="fill:none; 
stroke:#AFAFAF; stroke-width:0.0212; stroke-opacity:1; 
stroke-linecap:round; stroke-linejoin:round;fill:none"
d="M 17.2502,10.3350
17.2502,8.6750
17.8502,8.0750
19.0502,8.0750
19.1302,8.0950
19.1902,8.1350
19.2302,8.1950
19.2502,8.2750
19.2502,10.4750
18.6502,11.0750
18.1302,11.0750
Z" /> 
</g>
<g style="fill:none; 
stroke:#AFAFAF; stroke-width:0.0639; stroke-opacity:1; 
stroke-linecap:round; stroke-linejoin:round;">
<text x="8.9102" y="7.4183"
textLength="1.4987" font-size="1.0222" lengthAdjust="spacingAndGlyphs"
text-anchor="middle" opacity="0" stroke-opacity="0">S1</text>
<g class="stroked-text"><desc>S1</desc>
<path d="M8.3261 7.3498
L8.4356 7.3864
" />
<path d="M8.4356 7.3864
L8.6182 7.3864
" />
<path d="M8.6182 7.3864
L8.6912 7.3498
" />
<path d="M8.6912 7.3498
L8.7277 7.3133
" />
<path d="M8.7277 7.3133
L8.7642 7.2403
" />
<path d="M8.7642 7.2403
L8.7642 7.1673
" />
<path d="M8.7642 7.1673
L8.7277 7.0943
" />
<path d="M8.7277 7.0943
L8.6912 7.0578
" />
<path d="M8.6912 7.0578
L8.6182 7.0213
" />
<path d="M8.6182 7.0213
L8.4721 6.9848
" />
<path d="M8.4721 6.9848
L8.3991 6.9483
" />
<path d="M8.3991 6.9483
L8.3626 6.9117
" />
<path d="M8.3626 6.9117
L8.3261 6.8387
" />
<path d="M8.3261 6.8387
L8.3261 6.7657
" />
<path d="M8.3261 6.7657
L8.3626 6.6927
" />
<path d="M8.3626 6.6927
L8.3991 6.6562
" />
<path d="M8.3991 6.6562
L8.4721 6.6197
" />
<path d="M8.4721 6.6197
L8.6547 6.6197
" />
<path d="M8.6547 6.6197
L8.7642 6.6562
" />
<path d="M9.4944 7.3864
L9.0563 7.3864
" />
<path d="M9.2753 7.3864
L9.2753 6.6197
" />
<path d="M9.2753 6.6197
L9.2023 6.7292
" />
<path d="M9.2023 6.7292
L9.1293 6.8022
" />
<path d="M9.1293 6.8022
L9.0563 6.8387
" />
</g></g>
<g style="fill:none; 
stroke:#AFAFAF; stroke-width:0.0212; stroke-opacity:1; 
stroke-linecap:round; stroke-linejoin:round;">
<circle cx="8.9102" cy="7.0350" r="1.1500" /> 
</g>
<g style="fill:none; 
stroke:#AFAFAF; stroke-width:0.0389; stroke-opacity:1; 
stroke-linecap:round; stroke-linejoin:round;">
<text x="10.2202" y="2.8083"
textLength="0.9122" font-size="0.6222" lengthAdjust="spacingAndGlyphs"
text-anchor="middle" opacity="0" stroke-opacity="0">S1</text>
<g class="stroked-text"><desc>S1</desc>
<path d="M9.8647 2.7666
L9.9314 2.7889
" />
<path d="M9.9314 2.7889
L10.0425 2.7889
" />
<path d="M10.0425 2.7889
L10.0869 2.7666
" />
<path d="M10.0869 2.7666
L10.1091 2.7444
" />
<path d="M10.1091 2.7444
L10.1314 2.7000
" />
<path d="M10.1314 2.7000
L10.1314 2.6555
" />
<path d="M10.1314 2.6555
L10.1091 2.6111
" />
<path d="M10.1091 2.6111
L10.0869 2.5889
" />
<path d="M10.0869 2.5889
L10.0425 2.5666
" />
<path d="M10.0425 2.5666
L9.9536 2.5444
" />
<path d="M9.9536 2.5444
L9.9091 2.5222
" />
<path d="M9.9091 2.5222
L9.8869 2.5000
" />
<path d="M9.8869 2.5000
L9.8647 2.4555
" />
<path d="M9.8647 2.4555
L9.8647 2.4111
" />
<path d="M9.8647 2.4111
L9.8869 2.3666
" />
<path d="M9.8869 2.3666
L9.9091 2.3444
" />
<path d="M9.9091 2.3444
L9.9536 2.3222
" />
<path d="M9.9536 2.3222
L10.0647 2.3222
" />
<path d="M10.0647 2.3222
L10.1314 2.3444
" />
<path d="M10.5758 2.7889
L10.3091 2.7889
" />
<path d="M10.4425 2.7889
L10.4425 2.3222
" />
<path d="M10.4425 2.3222
L10.3980 2.3889
" />
<path d="M10.3980 2.3889
L10.3536 2.4333
" />
<path d="M10.3536 2.4333
L10.3091 2.4555
" />
</g></g>
<g style="fill:none; 
stroke:#AFAFAF; stroke-width:0.0212; stroke-opacity:1; 
stroke-linecap:round; stroke-linejoin:round;">
<path d="M10.0202 3.0750
L10.4202 3.0750
" />
<path d="M10.4202 3.0750 A0.5000 0.5000 0.0 0 0 10.4202 2.0750" />
<path d="M10.4202 2.0750
L10.0202 2.0750
" />
<path d="M10.0202 2.0750 A0.5000 0.5000 0.0 0 0 10.0202 3.0750" />
</g>
<g style="fill:none; 
stroke:#AFAFAF; stroke-width:0.0389; stroke-opacity:1; 
stroke-linecap:round; stroke-linejoin:round;">
<text x="15.2202" y="2.8083"
textLength="0.9122" font-size="0.6222" lengthAdjust="spacingAndGlyphs"
text-anchor="middle" opacity="0" stroke-opacity="0">S2</text>
<g class="stroked-text"><desc>S2</desc>
<path d="M14.8647 2.7666
L14.9314 2.7889
" />
<path d="M14.9314 2.7889
L15.0425 2.7889
" />
<path d="M15.0425 2.7889
L15.0869 2.7666
" />
<path d="M15.0869 2.7666
L15.1091 2.7444
" />
<path d="M15.1091 2.7444
L15.1313 2.7000
" />
<path d="M15.1313 2.7000
L15.1313 2.6555
" />
<path d="M15.1313 2.6555
L15.1091 2.6111
" />
<path d="M15.1091 2.6111
L15.0869 2.5889
" />
<path d="M15.0869 2.5889
L15.0425 2.5666
" />
<path d="M15.0425 2.5666
L14.9536 2.5444
" />
<path d="M14.9536 2.5444
L14.9091 2.5222
" />
<path d="M14.9091 2.5222
L14.8869 2.5000
" />
<path d="M14.8869 2.5000
L14.8647 2.4555
" />
<path d="M14.8647 2.4555
L14.8647 2.4111
" />
<path d="M14.8647 2.4111
L14.8869 2.3666
" />
<path d="M14.8869 2.3666
L14.9091 2.3444
" />
<path d="M14.9091 2.3444
L14.9536 2.3222
" />
<path d="M14.9536 2.3222
L15.0647 2.3222
" />
<path d="M15.0647 2.3222
L15.1313 2.3444
" />
<path d="M15.3091 2.3666
L15.3313 2.3444
" />
<path d="M15.3313 2.3444
L15.3758 2.3222
" />
<path d="M15.3758 2.3222
L15.4869 2.3222
" />
<path d="M15.4869 2.3222
L15.5313 2.3444
" />
<path d="M15.5313 2.3444
L15.5536 2.3666
" />
<path d="M15.5536 2.3666
L15.5758 2.4111
" />
<path d="M15.5758 2.4111
L15.5758 2.4555
" />
<path d="M15.5758 2.4555
L15.5536 2.5222
" />
<path d="M15.5536 2.5222
L15.2869 2.7889
" />
<path d="M15.2869 2.7889
L15.5758 2.7889
" />
</g></g>
<g style="fill:none; 
stroke:#AFAFAF; stroke-width:0.0212; stroke-opacity:1; 
stroke-linecap:round; stroke-linejoin:round;">
<path d="M15.0202 3.0750
L15.4202 3.0750
" />
<path d="M15.4202 3.0750 A0.5000 0.5000 0.0 0 0 15.4202 2.0750" />
<path d="M15.4202 2.0750
L15.0202 2.0750
" />
<path d="M15.0202 2.0750 A0.5000 0.5000 0.0 0 0 15.0202 3.0750" />
</g>
<g style="fill:none; 
stroke:#AFAFAF; stroke-width:0.0639; stroke-opacity:1; 
stroke-linecap:round; stroke-linejoin:round;">
<text x="15.2602" y="4.8783"
textLength="1.4987" font-size="1.0222" lengthAdjust="spacingAndGlyphs"
text-anchor="middle" opacity="0" stroke-opacity="0">S2</text>
<g class="stroked-text"><desc>S2</desc>
<path d="M14.6761 4.8098
L14.7856 4.8464
" />
<path d="M14.7856 4.8464
L14.9682 4.8464
" />
<path d="M14.9682 4.8464
L15.0412 4.8098
" />
<path d="M15.0412 4.8098
L15.0777 4.7733
" />
<path d="M15.0777 4.7733
L15.1142 4.7003
" />
<path d="M15.1142 4.7003
L15.1142 4.6273
" />
<path d="M15.1142 4.6273
L15.0777 4.5543
" />
<path d="M15.0777 4.5543
L15.0412 4.5178
" />
<path d="M15.0412 4.5178
L14.9682 4.4813
" />
<path d="M14.9682 4.4813
L14.8221 4.4448
" />
<path d="M14.8221 4.4448
L14.7491 4.4083
" />
<path d="M14.7491 4.4083
L14.7126 4.3717
" />
<path d="M14.7126 4.3717
L14.6761 4.2987
" />
<path d="M14.6761 4.2987
L14.6761 4.2257
" />
<path d="M14.6761 4.2257
L14.7126 4.1527
" />
<path d="M14.7126 4.1527
L14.7491 4.1162
" />
<path d="M14.7491 4.1162
L14.8221 4.0797
" />
<path d="M14.8221 4.0797
L15.0047 4.0797
" />
<path d="M15.0047 4.0797
L15.1142 4.1162
" />
<path d="M15.4063 4.1527
L15.4428 4.1162
" />
<path d="M15.4428 4.1162
L15.5158 4.0797
" />
<path d="M15.5158 4.0797
L15.6983 4.0797
" />
<path d="M15.6983 4.0797
L15.7713 4.1162
" />
<path d="M15.7713 4.1162
L15.8079 4.1527
" />
<path d="M15.8079 4.1527
L15.8444 4.2257
" />
<path d="M15.8444 4.2257
L15.8444 4.2987
" />
<path d="M15.8444 4.2987
L15.8079 4.4083
" />
<path d="M15.8079 4.4083
L15.3698 4.8464
" />
<path d="M15.3698 4.8464
L15.8444 4.8464
" />
</g></g>
<g style="fill:none; 
stroke:#AFAFAF; stroke-width:0.0212; stroke-opacity:1; 
stroke-linecap:round; stroke-linejoin:round;">
<circle cx="15.2602" cy="4.4950" r="1.1500" /> 
<path style="fill:none; 
stroke:#C2C2C2; stroke-width:0.1000; stroke-opacity:1; 
stroke-linecap:round; stroke-linejoin:round;fill:none"
d="M 3.1952,0.0500
22.2452,0.0500
22.2452,19.1000
3.1952,19.1000
Z" /> 
</g> 
</svg>
