<?xml version="1.0" standalone="no"?>
 <!DOCTYPE svg PUBLIC "-//W3C//DTD SVG 1.1//EN" 
 "http://www.w3.org/Graphics/SVG/1.1/DTD/svg11.dtd"> 
<svg
  xmlns:svg="http://www.w3.org/2000/svg"
  xmlns="http://www.w3.org/2000/svg"
  xmlns:xlink="http://www.w3.org/1999/xlink"
  version="1.1"
  width="20.7518mm" height="20.3200mm" viewBox="0.0000 0.0000 20.7518 20.3200">
<title>SVG Image created as SW_MX_Slim_HotSwap_nSilk.svg date 2025/05/12 22:52:35 </title>
  <desc>Image generated by PCBNEW </desc>
<g style="fill:#000000; fill-opacity:1.0000;stroke:#000000; stroke-opacity:1.0000;
stroke-linecap:round; stroke-linejoin:round;"
 transform="translate(0 0) scale(1 1)">
</g>
<g style="fill:none; 
stroke:#E8B2A7; stroke-width:0.1500; stroke-opacity:1; 
stroke-linecap:round; stroke-linejoin:round;">
<text x="8.6089" y="4.9950"
transform="scale(-1 1) translate(-17.217810 0)"
textLength="4.5357" font-size="1.3333" lengthAdjust="spacingAndGlyphs"
text-anchor="middle" opacity="0" stroke-opacity="0">REF**</text>
<g class="stroked-text"><desc>REF**</desc>
<path d="M9.9422 4.9498
L10.2756 4.4736
" />
<path d="M10.5137 4.9498
L10.5137 3.9498
" />
<path d="M10.5137 3.9498
L10.1327 3.9498
" />
<path d="M10.1327 3.9498
L10.0375 3.9974
" />
<path d="M10.0375 3.9974
L9.9899 4.0451
" />
<path d="M9.9899 4.0451
L9.9422 4.1403
" />
<path d="M9.9422 4.1403
L9.9422 4.2832
" />
<path d="M9.9422 4.2832
L9.9899 4.3784
" />
<path d="M9.9899 4.3784
L10.0375 4.4260
" />
<path d="M10.0375 4.4260
L10.1327 4.4736
" />
<path d="M10.1327 4.4736
L10.5137 4.4736
" />
<path d="M9.5137 4.4260
L9.1803 4.4260
" />
<path d="M9.0375 4.9498
L9.5137 4.9498
" />
<path d="M9.5137 4.9498
L9.5137 3.9498
" />
<path d="M9.5137 3.9498
L9.0375 3.9498
" />
<path d="M8.2756 4.4260
L8.6089 4.4260
" />
<path d="M8.6089 4.9498
L8.6089 3.9498
" />
<path d="M8.6089 3.9498
L8.1327 3.9498
" />
<path d="M7.6089 3.9498
L7.6089 4.1879
" />
<path d="M7.8470 4.0927
L7.6089 4.1879
" />
<path d="M7.6089 4.1879
L7.3708 4.0927
" />
<path d="M7.7518 4.3784
L7.6089 4.1879
" />
<path d="M7.6089 4.1879
L7.4660 4.3784
" />
<path d="M6.8470 3.9498
L6.8470 4.1879
" />
<path d="M7.0851 4.0927
L6.8470 4.1879
" />
<path d="M6.8470 4.1879
L6.6089 4.0927
" />
<path d="M6.9899 4.3784
L6.8470 4.1879
" />
<path d="M6.8470 4.1879
L6.7041 4.3784
" />
</g></g>
<g style="fill:none; 
stroke:#E8B2A7; stroke-width:0.1200; stroke-opacity:1; 
stroke-linecap:round; stroke-linejoin:round;">
<path d="M4.0369 5.1300
L4.0369 5.4850
" />
<path d="M4.0369 8.5850
L4.0369 8.9400
" />
<path d="M4.3869 8.9400
L4.0369 8.9400
" />
<path d="M6.5769 2.5900
L15.4669 2.5900
" />
<path d="M7.9227 8.9400
L6.1959 8.9400
" />
<path d="M15.4669 2.5900
L15.4669 2.9450
" />
<path d="M15.4669 7.0350
L10.3869 7.0350
" />
<path d="M15.4669 7.0350
L15.4669 6.0450
" />
<path d="M6.5769 2.5900 A2.5400 2.5400 0.0 0 0 4.0369 5.1300" />
<path d="M10.3869 7.0350 A2.5400 2.5400 0.0 0 0 7.9273 8.9412" />
<path style="fill:#00C2C2; fill-opacity:0.9000; stroke:none;fill-rule:evenodd;"
d="M 4.0987,8.0350
4.0797,8.1307
4.0255,8.2118
3.9444,8.2660
3.8487,8.2850
2.5487,8.2850
2.4530,8.2660
2.3719,8.2118
2.3177,8.1307
2.2987,8.0350
2.2987,6.0350
2.3177,5.9393
2.3719,5.8582
2.4530,5.8040
2.5487,5.7850
3.8487,5.7850
3.9444,5.8040
4.0255,5.8582
4.0797,5.9393
4.0987,6.0350
Z" /> 
<path style="fill:#00C2C2; fill-opacity:0.9000; stroke:none;fill-rule:evenodd;"
d="M 17.2051,5.4950
17.1861,5.5907
17.1319,5.6718
17.0508,5.7260
16.9551,5.7450
15.6551,5.7450
15.5594,5.7260
15.4783,5.6718
15.4241,5.5907
15.4051,5.4950
15.4051,3.4950
15.4241,3.3993
15.4783,3.3182
15.5594,3.2640
15.6551,3.2450
16.9551,3.2450
17.0508,3.2640
17.1319,3.3182
17.1861,3.3993
17.2051,3.4950
Z" /> 
<path style="fill:#4D7FC4; fill-opacity:1.0000; stroke:none;fill-rule:evenodd;"
d="M 4.0987,8.0350
4.0797,8.1307
4.0255,8.2118
3.9444,8.2660
3.8487,8.2850
2.5487,8.2850
2.4530,8.2660
2.3719,8.2118
2.3177,8.1307
2.2987,8.0350
2.2987,6.0350
2.3177,5.9393
2.3719,5.8582
2.4530,5.8040
2.5487,5.7850
3.8487,5.7850
3.9444,5.8040
4.0255,5.8582
4.0797,5.9393
4.0987,6.0350
Z" /> 
<path style="fill:#4D7FC4; fill-opacity:1.0000; stroke:none;fill-rule:evenodd;"
d="M 17.2051,5.4950
17.1861,5.5907
17.1319,5.6718
17.0508,5.7260
16.9551,5.7450
15.6551,5.7450
15.5594,5.7260
15.4783,5.6718
15.4241,5.5907
15.4051,5.4950
15.4051,3.4950
15.4241,3.3993
15.4783,3.3182
15.5594,3.2640
15.6551,3.2450
16.9551,3.2450
17.0508,3.2640
17.1319,3.3182
17.1861,3.3993
17.2051,3.4950
Z" /> 
</g>
<g style="fill:none; 
stroke:#585D84; stroke-width:0.1500; stroke-opacity:1; 
stroke-linecap:round; stroke-linejoin:round;">
<text x="10.3869" y="18.3750"
transform="scale(-1 1) translate(-20.773810 0)"
textLength="20.7738" font-size="1.3333" lengthAdjust="spacingAndGlyphs"
text-anchor="middle" opacity="0" stroke-opacity="0">SW_MX_Slim_HotSwap_nSilk</text>
<g class="stroked-text"><desc>SW_MX_Slim_HotSwap_nSilk</desc>
<path d="M20.4583 18.2822
L20.3155 18.3298
" />
<path d="M20.3155 18.3298
L20.0774 18.3298
" />
<path d="M20.0774 18.3298
L19.9821 18.2822
" />
<path d="M19.9821 18.2822
L19.9345 18.2346
" />
<path d="M19.9345 18.2346
L19.8869 18.1393
" />
<path d="M19.8869 18.1393
L19.8869 18.0441
" />
<path d="M19.8869 18.0441
L19.9345 17.9489
" />
<path d="M19.9345 17.9489
L19.9821 17.9012
" />
<path d="M19.9821 17.9012
L20.0774 17.8536
" />
<path d="M20.0774 17.8536
L20.2679 17.8060
" />
<path d="M20.2679 17.8060
L20.3631 17.7584
" />
<path d="M20.3631 17.7584
L20.4107 17.7108
" />
<path d="M20.4107 17.7108
L20.4583 17.6155
" />
<path d="M20.4583 17.6155
L20.4583 17.5203
" />
<path d="M20.4583 17.5203
L20.4107 17.4251
" />
<path d="M20.4107 17.4251
L20.3631 17.3774
" />
<path d="M20.3631 17.3774
L20.2679 17.3298
" />
<path d="M20.2679 17.3298
L20.0298 17.3298
" />
<path d="M20.0298 17.3298
L19.8869 17.3774
" />
<path d="M19.5536 17.3298
L19.3155 18.3298
" />
<path d="M19.3155 18.3298
L19.1250 17.6155
" />
<path d="M19.1250 17.6155
L18.9345 18.3298
" />
<path d="M18.9345 18.3298
L18.6964 17.3298
" />
<path d="M18.5536 18.4251
L17.7917 18.4251
" />
<path d="M17.5536 18.3298
L17.5536 17.3298
" />
<path d="M17.5536 17.3298
L17.2202 18.0441
" />
<path d="M17.2202 18.0441
L16.8869 17.3298
" />
<path d="M16.8869 17.3298
L16.8869 18.3298
" />
<path d="M16.5060 17.3298
L15.8393 18.3298
" />
<path d="M15.8393 17.3298
L16.5060 18.3298
" />
<path d="M15.6964 18.4251
L14.9345 18.4251
" />
<path d="M14.7440 18.2822
L14.6012 18.3298
" />
<path d="M14.6012 18.3298
L14.3631 18.3298
" />
<path d="M14.3631 18.3298
L14.2679 18.2822
" />
<path d="M14.2679 18.2822
L14.2202 18.2346
" />
<path d="M14.2202 18.2346
L14.1726 18.1393
" />
<path d="M14.1726 18.1393
L14.1726 18.0441
" />
<path d="M14.1726 18.0441
L14.2202 17.9489
" />
<path d="M14.2202 17.9489
L14.2679 17.9012
" />
<path d="M14.2679 17.9012
L14.3631 17.8536
" />
<path d="M14.3631 17.8536
L14.5536 17.8060
" />
<path d="M14.5536 17.8060
L14.6488 17.7584
" />
<path d="M14.6488 17.7584
L14.6964 17.7108
" />
<path d="M14.6964 17.7108
L14.7440 17.6155
" />
<path d="M14.7440 17.6155
L14.7440 17.5203
" />
<path d="M14.7440 17.5203
L14.6964 17.4251
" />
<path d="M14.6964 17.4251
L14.6488 17.3774
" />
<path d="M14.6488 17.3774
L14.5536 17.3298
" />
<path d="M14.5536 17.3298
L14.3155 17.3298
" />
<path d="M14.3155 17.3298
L14.1726 17.3774
" />
<path d="M13.6012 18.3298
L13.6964 18.2822
" />
<path d="M13.6964 18.2822
L13.7440 18.1870
" />
<path d="M13.7440 18.1870
L13.7440 17.3298
" />
<path d="M13.2202 18.3298
L13.2202 17.6632
" />
<path d="M13.2202 17.3298
L13.2679 17.3774
" />
<path d="M13.2679 17.3774
L13.2202 17.4251
" />
<path d="M13.2202 17.4251
L13.1726 17.3774
" />
<path d="M13.1726 17.3774
L13.2202 17.3298
" />
<path d="M13.2202 17.3298
L13.2202 17.4251
" />
<path d="M12.7440 18.3298
L12.7440 17.6632
" />
<path d="M12.7440 17.7584
L12.6964 17.7108
" />
<path d="M12.6964 17.7108
L12.6012 17.6632
" />
<path d="M12.6012 17.6632
L12.4583 17.6632
" />
<path d="M12.4583 17.6632
L12.3631 17.7108
" />
<path d="M12.3631 17.7108
L12.3155 17.8060
" />
<path d="M12.3155 17.8060
L12.3155 18.3298
" />
<path d="M12.3155 17.8060
L12.2679 17.7108
" />
<path d="M12.2679 17.7108
L12.1726 17.6632
" />
<path d="M12.1726 17.6632
L12.0298 17.6632
" />
<path d="M12.0298 17.6632
L11.9345 17.7108
" />
<path d="M11.9345 17.7108
L11.8869 17.8060
" />
<path d="M11.8869 17.8060
L11.8869 18.3298
" />
<path d="M11.6488 18.4251
L10.8869 18.4251
" />
<path d="M10.6488 18.3298
L10.6488 17.3298
" />
<path d="M10.6488 17.8060
L10.0774 17.8060
" />
<path d="M10.0774 18.3298
L10.0774 17.3298
" />
<path d="M9.4583 18.3298
L9.5536 18.2822
" />
<path d="M9.5536 18.2822
L9.6012 18.2346
" />
<path d="M9.6012 18.2346
L9.6488 18.1393
" />
<path d="M9.6488 18.1393
L9.6488 17.8536
" />
<path d="M9.6488 17.8536
L9.6012 17.7584
" />
<path d="M9.6012 17.7584
L9.5536 17.7108
" />
<path d="M9.5536 17.7108
L9.4583 17.6632
" />
<path d="M9.4583 17.6632
L9.3155 17.6632
" />
<path d="M9.3155 17.6632
L9.2202 17.7108
" />
<path d="M9.2202 17.7108
L9.1726 17.7584
" />
<path d="M9.1726 17.7584
L9.1250 17.8536
" />
<path d="M9.1250 17.8536
L9.1250 18.1393
" />
<path d="M9.1250 18.1393
L9.1726 18.2346
" />
<path d="M9.1726 18.2346
L9.2202 18.2822
" />
<path d="M9.2202 18.2822
L9.3155 18.3298
" />
<path d="M9.3155 18.3298
L9.4583 18.3298
" />
<path d="M8.8393 17.6632
L8.4583 17.6632
" />
<path d="M8.6964 17.3298
L8.6964 18.1870
" />
<path d="M8.6964 18.1870
L8.6488 18.2822
" />
<path d="M8.6488 18.2822
L8.5536 18.3298
" />
<path d="M8.5536 18.3298
L8.4583 18.3298
" />
<path d="M8.1726 18.2822
L8.0298 18.3298
" />
<path d="M8.0298 18.3298
L7.7917 18.3298
" />
<path d="M7.7917 18.3298
L7.6964 18.2822
" />
<path d="M7.6964 18.2822
L7.6488 18.2346
" />
<path d="M7.6488 18.2346
L7.6012 18.1393
" />
<path d="M7.6012 18.1393
L7.6012 18.0441
" />
<path d="M7.6012 18.0441
L7.6488 17.9489
" />
<path d="M7.6488 17.9489
L7.6964 17.9012
" />
<path d="M7.6964 17.9012
L7.7917 17.8536
" />
<path d="M7.7917 17.8536
L7.9821 17.8060
" />
<path d="M7.9821 17.8060
L8.0774 17.7584
" />
<path d="M8.0774 17.7584
L8.1250 17.7108
" />
<path d="M8.1250 17.7108
L8.1726 17.6155
" />
<path d="M8.1726 17.6155
L8.1726 17.5203
" />
<path d="M8.1726 17.5203
L8.1250 17.4251
" />
<path d="M8.1250 17.4251
L8.0774 17.3774
" />
<path d="M8.0774 17.3774
L7.9821 17.3298
" />
<path d="M7.9821 17.3298
L7.7440 17.3298
" />
<path d="M7.7440 17.3298
L7.6012 17.3774
" />
<path d="M7.2679 17.6632
L7.0774 18.3298
" />
<path d="M7.0774 18.3298
L6.8869 17.8536
" />
<path d="M6.8869 17.8536
L6.6964 18.3298
" />
<path d="M6.6964 18.3298
L6.5060 17.6632
" />
<path d="M5.6964 18.3298
L5.6964 17.8060
" />
<path d="M5.6964 17.8060
L5.7440 17.7108
" />
<path d="M5.7440 17.7108
L5.8393 17.6632
" />
<path d="M5.8393 17.6632
L6.0298 17.6632
" />
<path d="M6.0298 17.6632
L6.1250 17.7108
" />
<path d="M5.6964 18.2822
L5.7917 18.3298
" />
<path d="M5.7917 18.3298
L6.0298 18.3298
" />
<path d="M6.0298 18.3298
L6.1250 18.2822
" />
<path d="M6.1250 18.2822
L6.1726 18.1870
" />
<path d="M6.1726 18.1870
L6.1726 18.0917
" />
<path d="M6.1726 18.0917
L6.1250 17.9965
" />
<path d="M6.1250 17.9965
L6.0298 17.9489
" />
<path d="M6.0298 17.9489
L5.7917 17.9489
" />
<path d="M5.7917 17.9489
L5.6964 17.9012
" />
<path d="M5.2202 17.6632
L5.2202 18.6632
" />
<path d="M5.2202 17.7108
L5.1250 17.6632
" />
<path d="M5.1250 17.6632
L4.9345 17.6632
" />
<path d="M4.9345 17.6632
L4.8393 17.7108
" />
<path d="M4.8393 17.7108
L4.7917 17.7584
" />
<path d="M4.7917 17.7584
L4.7440 17.8536
" />
<path d="M4.7440 17.8536
L4.7440 18.1393
" />
<path d="M4.7440 18.1393
L4.7917 18.2346
" />
<path d="M4.7917 18.2346
L4.8393 18.2822
" />
<path d="M4.8393 18.2822
L4.9345 18.3298
" />
<path d="M4.9345 18.3298
L5.1250 18.3298
" />
<path d="M5.1250 18.3298
L5.2202 18.2822
" />
<path d="M4.5536 18.4251
L3.7917 18.4251
" />
<path d="M3.5536 17.6632
L3.5536 18.3298
" />
<path d="M3.5536 17.7584
L3.5060 17.7108
" />
<path d="M3.5060 17.7108
L3.4107 17.6632
" />
<path d="M3.4107 17.6632
L3.2679 17.6632
" />
<path d="M3.2679 17.6632
L3.1726 17.7108
" />
<path d="M3.1726 17.7108
L3.1250 17.8060
" />
<path d="M3.1250 17.8060
L3.1250 18.3298
" />
<path d="M2.6964 18.2822
L2.5536 18.3298
" />
<path d="M2.5536 18.3298
L2.3155 18.3298
" />
<path d="M2.3155 18.3298
L2.2202 18.2822
" />
<path d="M2.2202 18.2822
L2.1726 18.2346
" />
<path d="M2.1726 18.2346
L2.1250 18.1393
" />
<path d="M2.1250 18.1393
L2.1250 18.0441
" />
<path d="M2.1250 18.0441
L2.1726 17.9489
" />
<path d="M2.1726 17.9489
L2.2202 17.9012
" />
<path d="M2.2202 17.9012
L2.3155 17.8536
" />
<path d="M2.3155 17.8536
L2.5060 17.8060
" />
<path d="M2.5060 17.8060
L2.6012 17.7584
" />
<path d="M2.6012 17.7584
L2.6488 17.7108
" />
<path d="M2.6488 17.7108
L2.6964 17.6155
" />
<path d="M2.6964 17.6155
L2.6964 17.5203
" />
<path d="M2.6964 17.5203
L2.6488 17.4251
" />
<path d="M2.6488 17.4251
L2.6012 17.3774
" />
<path d="M2.6012 17.3774
L2.5060 17.3298
" />
<path d="M2.5060 17.3298
L2.2679 17.3298
" />
<path d="M2.2679 17.3298
L2.1250 17.3774
" />
<path d="M1.6964 18.3298
L1.6964 17.6632
" />
<path d="M1.6964 17.3298
L1.7440 17.3774
" />
<path d="M1.7440 17.3774
L1.6964 17.4251
" />
<path d="M1.6964 17.4251
L1.6488 17.3774
" />
<path d="M1.6488 17.3774
L1.6964 17.3298
" />
<path d="M1.6964 17.3298
L1.6964 17.4251
" />
<path d="M1.0774 18.3298
L1.1726 18.2822
" />
<path d="M1.1726 18.2822
L1.2202 18.1870
" />
<path d="M1.2202 18.1870
L1.2202 17.3298
" />
<path d="M0.6964 18.3298
L0.6964 17.3298
" />
<path d="M0.6012 17.9489
L0.3155 18.3298
" />
<path d="M0.3155 17.6632
L0.6964 18.0441
" />
</g><text x="10.3869" y="19.9750"
transform="scale(-1 1) translate(-20.773810 0)"
textLength="4.5357" font-size="1.3333" lengthAdjust="spacingAndGlyphs"
text-anchor="middle" opacity="0" stroke-opacity="0">REF**</text>
<g class="stroked-text"><desc>REF**</desc>
<path d="M11.7202 19.9298
L12.0536 19.4536
" />
<path d="M12.2917 19.9298
L12.2917 18.9298
" />
<path d="M12.2917 18.9298
L11.9107 18.9298
" />
<path d="M11.9107 18.9298
L11.8155 18.9774
" />
<path d="M11.8155 18.9774
L11.7679 19.0251
" />
<path d="M11.7679 19.0251
L11.7202 19.1203
" />
<path d="M11.7202 19.1203
L11.7202 19.2632
" />
<path d="M11.7202 19.2632
L11.7679 19.3584
" />
<path d="M11.7679 19.3584
L11.8155 19.4060
" />
<path d="M11.8155 19.4060
L11.9107 19.4536
" />
<path d="M11.9107 19.4536
L12.2917 19.4536
" />
<path d="M11.2917 19.4060
L10.9583 19.4060
" />
<path d="M10.8155 19.9298
L11.2917 19.9298
" />
<path d="M11.2917 19.9298
L11.2917 18.9298
" />
<path d="M11.2917 18.9298
L10.8155 18.9298
" />
<path d="M10.0536 19.4060
L10.3869 19.4060
" />
<path d="M10.3869 19.9298
L10.3869 18.9298
" />
<path d="M10.3869 18.9298
L9.9107 18.9298
" />
<path d="M9.3869 18.9298
L9.3869 19.1679
" />
<path d="M9.6250 19.0727
L9.3869 19.1679
" />
<path d="M9.3869 19.1679
L9.1488 19.0727
" />
<path d="M9.5298 19.3584
L9.3869 19.1679
" />
<path d="M9.3869 19.1679
L9.2440 19.3584
" />
<path d="M8.6250 18.9298
L8.6250 19.1679
" />
<path d="M8.8631 19.0727
L8.6250 19.1679
" />
<path d="M8.6250 19.1679
L8.3869 19.0727
" />
<path d="M8.7679 19.3584
L8.6250 19.1679
" />
<path d="M8.6250 19.1679
L8.4821 19.3584
" />
</g></g>
<g style="fill:none; 
stroke:#585D84; stroke-width:0.1000; stroke-opacity:1; 
stroke-linecap:round; stroke-linejoin:round;">
<path d="M2.2843 5.7650
L4.0369 5.7650
" />
<path d="M2.2843 8.3050
L2.2843 5.7650
" />
<path d="M4.0369 8.3050
L2.2843 8.3050
" />
<path d="M4.0369 8.9400
L4.0369 5.1300
" />
<path d="M4.0369 8.9400
L7.8469 8.9400
" />
<path d="M6.5769 2.5900
L15.4669 2.5900
" />
<path d="M15.4669 2.5900
L15.4669 7.0350
" />
<path d="M15.4669 3.2250
L17.2449 3.2250
" />
<path d="M15.4669 7.0350
L10.3869 7.0350
" />
<path d="M17.2449 3.2250
L17.2449 5.7650
" />
<path d="M17.2449 5.7650
L15.4669 5.7650
" />
<path style="fill:none; 
stroke:#585D84; stroke-width:0.1000; stroke-opacity:1; 
stroke-linecap:round; stroke-linejoin:round;fill:none"
d="M 8.6369,13.1550
12.1369,13.1550
12.1369,16.1550
8.6369,16.1550
Z" /> 
<path d="M6.5769 2.5900 A2.5400 2.5400 0.0 0 0 4.0369 5.1300" />
<path d="M10.3869 7.0350 A2.5400 2.5400 0.0 0 0 7.9227 8.9590" />
</g>
<g style="fill:none; 
stroke:#585D84; stroke-width:0.0212; stroke-opacity:1; 
stroke-linecap:round; stroke-linejoin:round;">
<circle cx="5.3069" cy="9.5750" r="0.8500" /> 
</g>
<g style="fill:none; 
stroke:#585D84; stroke-width:0.0212; stroke-opacity:1; 
stroke-linecap:round; stroke-linejoin:round;">
<circle cx="6.5769" cy="7.0350" r="1.5000" /> 
</g>
<g style="fill:none; 
stroke:#585D84; stroke-width:0.0212; stroke-opacity:1; 
stroke-linecap:round; stroke-linejoin:round;">
<circle cx="10.3869" cy="9.5750" r="2.0000" /> 
</g>
<g style="fill:none; 
stroke:#585D84; stroke-width:0.0212; stroke-opacity:1; 
stroke-linecap:round; stroke-linejoin:round;">
<circle cx="12.9269" cy="4.4950" r="1.5000" /> 
</g>
<g style="fill:none; 
stroke:#585D84; stroke-width:0.0212; stroke-opacity:1; 
stroke-linecap:round; stroke-linejoin:round;">
<circle cx="15.4669" cy="9.5750" r="0.8500" /> 
</g>
<g style="fill:none; 
stroke:#585D84; stroke-width:0.0694; stroke-opacity:1; 
stroke-linecap:round; stroke-linejoin:round;">
<g transform="rotate(-90.000000 3.1987 7.0350)">
<text x="3.1987" y="7.4517"
textLength="0.8353" font-size="1.1111" lengthAdjust="spacingAndGlyphs"
text-anchor="middle" opacity="0" stroke-opacity="0">1</text>
</g>
<g class="stroked-text"><desc>1</desc>
<path d="M3.5806 6.7969
L3.5806 7.2731
" />
<path d="M3.5806 7.0350
L2.7473 7.0350
" />
<path d="M2.7473 7.0350
L2.8663 7.1144
" />
<path d="M2.8663 7.1144
L2.9457 7.1937
" />
<path d="M2.9457 7.1937
L2.9854 7.2731
" />
</g><path style="fill:none; 
stroke:#585D84; stroke-width:0.0212; stroke-opacity:1; 
stroke-linecap:round; stroke-linejoin:round;fill:none"
d="M 4.0987,8.0350
4.0797,8.1307
4.0255,8.2118
3.9444,8.2660
3.8487,8.2850
2.5487,8.2850
2.4530,8.2660
2.3719,8.2118
2.3177,8.1307
2.2987,8.0350
2.2987,6.0350
2.3177,5.9393
2.3719,5.8582
2.4530,5.8040
2.5487,5.7850
3.8487,5.7850
3.9444,5.8040
4.0255,5.8582
4.0797,5.9393
4.0987,6.0350
Z" /> 
</g>
<g style="fill:none; 
stroke:#585D84; stroke-width:0.0694; stroke-opacity:1; 
stroke-linecap:round; stroke-linejoin:round;">
<g transform="rotate(-90.000000 16.3051 4.4950)">
<text x="16.3051" y="4.9117"
textLength="0.8353" font-size="1.1111" lengthAdjust="spacingAndGlyphs"
text-anchor="middle" opacity="0" stroke-opacity="0">2</text>
</g>
<g class="stroked-text"><desc>2</desc>
<path d="M15.9330 4.7331
L15.8934 4.6934
" />
<path d="M15.8934 4.6934
L15.8537 4.6140
" />
<path d="M15.8537 4.6140
L15.8537 4.4156
" />
<path d="M15.8537 4.4156
L15.8934 4.3363
" />
<path d="M15.8934 4.3363
L15.9330 4.2966
" />
<path d="M15.9330 4.2966
L16.0124 4.2569
" />
<path d="M16.0124 4.2569
L16.0918 4.2569
" />
<path d="M16.0918 4.2569
L16.2108 4.2966
" />
<path d="M16.2108 4.2966
L16.6870 4.7728
" />
<path d="M16.6870 4.7728
L16.6870 4.2569
" />
</g><path style="fill:none; 
stroke:#585D84; stroke-width:0.0212; stroke-opacity:1; 
stroke-linecap:round; stroke-linejoin:round;fill:none"
d="M 17.2051,5.4950
17.1861,5.5907
17.1319,5.6718
17.0508,5.7260
16.9551,5.7450
15.6551,5.7450
15.5594,5.7260
15.4783,5.6718
15.4241,5.5907
15.4051,5.4950
15.4051,3.4950
15.4241,3.3993
15.4783,3.3182
15.5594,3.2640
15.6551,3.2450
16.9551,3.2450
17.0508,3.2640
17.1319,3.3182
17.1861,3.3993
17.2051,3.4950
Z" /> 
<path style="fill:none; 
stroke:#AFAFAF; stroke-width:0.1000; stroke-opacity:1; 
stroke-linecap:round; stroke-linejoin:round;fill:none"
d="M 3.3869,2.5750
17.3869,2.5750
17.3869,16.5750
3.3869,16.5750
Z" /> 
</g>
<g style="fill:none; 
stroke:#AFAFAF; stroke-width:0.0212; stroke-opacity:1; 
stroke-linecap:round; stroke-linejoin:round;">
<circle cx="5.3069" cy="9.5750" r="0.8500" /> 
</g>
<g style="fill:none; 
stroke:#AFAFAF; stroke-width:0.0212; stroke-opacity:1; 
stroke-linecap:round; stroke-linejoin:round;">
<circle cx="6.5769" cy="7.0350" r="1.5000" /> 
</g>
<g style="fill:none; 
stroke:#AFAFAF; stroke-width:0.0212; stroke-opacity:1; 
stroke-linecap:round; stroke-linejoin:round;">
<circle cx="10.3869" cy="9.5750" r="2.0000" /> 
</g>
<g style="fill:none; 
stroke:#AFAFAF; stroke-width:0.0212; stroke-opacity:1; 
stroke-linecap:round; stroke-linejoin:round;">
<circle cx="12.9269" cy="4.4950" r="1.5000" /> 
</g>
<g style="fill:none; 
stroke:#AFAFAF; stroke-width:0.0212; stroke-opacity:1; 
stroke-linecap:round; stroke-linejoin:round;">
<circle cx="15.4669" cy="9.5750" r="0.8500" /> 
<path style="fill:none; 
stroke:#C2C2C2; stroke-width:0.1000; stroke-opacity:1; 
stroke-linecap:round; stroke-linejoin:round;fill:none"
d="M 0.8619,0.0500
19.9119,0.0500
19.9119,19.1000
0.8619,19.1000
Z" /> 
</g> 
</svg>
