<?xml version="1.0" standalone="no"?>
 <!DOCTYPE svg PUBLIC "-//W3C//DTD SVG 1.1//EN" 
 "http://www.w3.org/Graphics/SVG/1.1/DTD/svg11.dtd"> 
<svg
  xmlns:svg="http://www.w3.org/2000/svg"
  xmlns="http://www.w3.org/2000/svg"
  xmlns:xlink="http://www.w3.org/1999/xlink"
  version="1.1"
  width="20.8534mm" height="20.3200mm" viewBox="0.0000 0.0000 20.8534 20.3200">
<title>SVG Image created as SW_MX_HotSwap_THT_sqSilk.svg date 2025/05/13 13:29:23 </title>
  <desc>Image generated by PCBNEW </desc>
<g style="fill:#000000; fill-opacity:1.0000;stroke:#000000; stroke-opacity:1.0000;
stroke-linecap:round; stroke-linejoin:round;"
 transform="translate(0 0) scale(1 1)">
</g>
<g style="fill:none; 
stroke:#E8B2A7; stroke-width:0.1200; stroke-opacity:1; 
stroke-linecap:round; stroke-linejoin:round;">
<path d="M3.3345 2.8750
L3.3345 16.2750
" />
<path d="M3.7345 16.6750
L17.1345 16.6750
" />
<path d="M17.1345 2.4750
L3.7345 2.4750
" />
<path d="M17.5345 16.2750
L17.5345 2.8750
" />
<path d="M3.7345 2.4750 A0.4000 0.4000 0.0 0 0 3.3345 2.8750" />
<path d="M3.3345 16.2750 A0.4000 0.4000 0.0 0 0 3.7345 16.6750" />
<path d="M17.5345 2.8750 A0.4000 0.4000 0.0 0 0 17.1345 2.4750" />
<path d="M17.1345 16.6750 A0.4000 0.4000 0.0 0 0 17.5345 16.2750" />
</g>
<g style="fill:none; 
stroke:#F2EDA1; stroke-width:0.1500; stroke-opacity:1; 
stroke-linecap:round; stroke-linejoin:round;">
<text x="10.4345" y="13.0750"
textLength="4.5357" font-size="1.3333" lengthAdjust="spacingAndGlyphs"
text-anchor="middle" opacity="0" stroke-opacity="0">REF**</text>
<g class="stroked-text"><desc>REF**</desc>
<path d="M9.1012 13.0298
L8.7679 12.5536
" />
<path d="M8.5298 13.0298
L8.5298 12.0298
" />
<path d="M8.5298 12.0298
L8.9107 12.0298
" />
<path d="M8.9107 12.0298
L9.0060 12.0774
" />
<path d="M9.0060 12.0774
L9.0536 12.1251
" />
<path d="M9.0536 12.1251
L9.1012 12.2203
" />
<path d="M9.1012 12.2203
L9.1012 12.3632
" />
<path d="M9.1012 12.3632
L9.0536 12.4584
" />
<path d="M9.0536 12.4584
L9.0060 12.5060
" />
<path d="M9.0060 12.5060
L8.9107 12.5536
" />
<path d="M8.9107 12.5536
L8.5298 12.5536
" />
<path d="M9.5298 12.5060
L9.8631 12.5060
" />
<path d="M10.0060 13.0298
L9.5298 13.0298
" />
<path d="M9.5298 13.0298
L9.5298 12.0298
" />
<path d="M9.5298 12.0298
L10.0060 12.0298
" />
<path d="M10.7679 12.5060
L10.4345 12.5060
" />
<path d="M10.4345 13.0298
L10.4345 12.0298
" />
<path d="M10.4345 12.0298
L10.9107 12.0298
" />
<path d="M11.4345 12.0298
L11.4345 12.2679
" />
<path d="M11.1964 12.1727
L11.4345 12.2679
" />
<path d="M11.4345 12.2679
L11.6726 12.1727
" />
<path d="M11.2917 12.4584
L11.4345 12.2679
" />
<path d="M11.4345 12.2679
L11.5774 12.4584
" />
<path d="M12.1964 12.0298
L12.1964 12.2679
" />
<path d="M11.9583 12.1727
L12.1964 12.2679
" />
<path d="M12.1964 12.2679
L12.4345 12.1727
" />
<path d="M12.0536 12.4584
L12.1964 12.2679
" />
<path d="M12.1964 12.2679
L12.3393 12.4584
" />
</g></g>
<g style="fill:none; 
stroke:#F2EDA1; stroke-width:0.1200; stroke-opacity:1; 
stroke-linecap:round; stroke-linejoin:round;">
<path d="M5.3545 2.5900
L5.3545 2.9450
" />
<path d="M5.3545 7.0350
L5.3545 6.0450
" />
<path d="M5.3545 7.0350
L10.4345 7.0350
" />
<path d="M12.8987 8.9400
L14.6255 8.9400
" />
<path d="M14.2445 2.5900
L5.3545 2.5900
" />
<path d="M16.4345 8.9400
L16.7845 8.9400
" />
<path d="M16.7845 5.1300
L16.7845 5.4850
" />
<path d="M16.7845 8.5850
L16.7845 8.9400
" />
<path d="M12.8942 8.9412 A2.5400 2.5400 0.0 0 0 10.4345 7.0350" />
<path d="M16.7845 5.1300 A2.5400 2.5400 0.0 0 0 14.2445 2.5900" />
<path style="fill:#B4A09A; fill-opacity:0.9000; stroke:none;fill-rule:evenodd;"
d="M 16.7195,6.0350
16.7386,5.9393
16.7927,5.8582
16.8739,5.8040
16.9695,5.7850
19.0195,5.7850
19.1152,5.8040
19.1963,5.8582
19.2505,5.9393
19.2695,6.0350
19.2695,8.0350
19.2505,8.1307
19.1963,8.2118
19.1152,8.2660
19.0195,8.2850
16.9695,8.2850
16.8739,8.2660
16.7927,8.2118
16.7386,8.1307
16.7195,8.0350
Z" /> 
<path style="fill:#B4A09A; fill-opacity:0.9000; stroke:none;fill-rule:evenodd;"
d="M 2.8695,3.4950
2.8886,3.3993
2.9427,3.3182
3.0239,3.2640
3.1195,3.2450
5.1695,3.2450
5.2652,3.2640
5.3463,3.3182
5.4005,3.3993
5.4195,3.4950
5.4195,5.4950
5.4005,5.5907
5.3463,5.6718
5.2652,5.7260
5.1695,5.7450
3.1195,5.7450
3.0239,5.7260
2.9427,5.6718
2.8886,5.5907
2.8695,5.4950
Z" /> 
</g>
<g style="fill:#4D7FC4; fill-opacity:1.0000; stroke:none;">
<circle cx="12.9745" cy="14.6550" r="1.1500" /> 
</g>
<g style="fill:#4D7FC4; fill-opacity:1.0000; stroke:none;">
<circle cx="6.6245" cy="12.1150" r="1.1500" /> 
</g>
<g style="fill:#C83434; fill-opacity:1.0000; stroke:none;">
<circle cx="12.9745" cy="14.6550" r="1.1500" /> 
<path style="fill:#C83434; fill-opacity:1.0000; stroke:none;fill-rule:evenodd;"
d="M 16.7195,6.0350
16.7386,5.9393
16.7927,5.8582
16.8739,5.8040
16.9695,5.7850
19.0195,5.7850
19.1152,5.8040
19.1963,5.8582
19.2505,5.9393
19.2695,6.0350
19.2695,8.0350
19.2505,8.1307
19.1963,8.2118
19.1152,8.2660
19.0195,8.2850
16.9695,8.2850
16.8739,8.2660
16.7927,8.2118
16.7386,8.1307
16.7195,8.0350
Z" /> 
<path style="fill:#C83434; fill-opacity:1.0000; stroke:none;fill-rule:evenodd;"
d="M 2.8695,3.4950
2.8886,3.3993
2.9427,3.3182
3.0239,3.2640
3.1195,3.2450
5.1695,3.2450
5.2652,3.2640
5.3463,3.3182
5.4005,3.3993
5.4195,3.4950
5.4195,5.4950
5.4005,5.5907
5.3463,5.6718
5.2652,5.7260
5.1695,5.7450
3.1195,5.7450
3.0239,5.7260
2.9427,5.6718
2.8886,5.5907
2.8695,5.4950
Z" /> 
</g>
<g style="fill:#C83434; fill-opacity:1.0000; stroke:none;">
<circle cx="6.6245" cy="12.1150" r="1.1500" /> 
<path style="fill:none; 
stroke:#585D84; stroke-width:0.1000; stroke-opacity:1; 
stroke-linecap:round; stroke-linejoin:round;fill:none"
d="M 3.4345,2.5750
17.4345,2.5750
17.4345,16.5750
3.4345,16.5750
Z" /> 
</g>
<g style="fill:none; 
stroke:#585D84; stroke-width:0.0212; stroke-opacity:1; 
stroke-linecap:round; stroke-linejoin:round;">
<circle cx="5.3545" cy="9.5750" r="0.8500" /> 
</g>
<g style="fill:none; 
stroke:#585D84; stroke-width:0.0212; stroke-opacity:1; 
stroke-linecap:round; stroke-linejoin:round;">
<circle cx="7.8945" cy="4.4950" r="1.5000" /> 
</g>
<g style="fill:none; 
stroke:#585D84; stroke-width:0.0212; stroke-opacity:1; 
stroke-linecap:round; stroke-linejoin:round;">
<circle cx="10.4345" cy="9.5750" r="2.0000" /> 
</g>
<g style="fill:none; 
stroke:#585D84; stroke-width:0.0212; stroke-opacity:1; 
stroke-linecap:round; stroke-linejoin:round;">
<circle cx="14.2445" cy="7.0350" r="1.5000" /> 
</g>
<g style="fill:none; 
stroke:#585D84; stroke-width:0.0212; stroke-opacity:1; 
stroke-linecap:round; stroke-linejoin:round;">
<circle cx="15.5145" cy="9.5750" r="0.8500" /> 
</g>
<g style="fill:none; 
stroke:#585D84; stroke-width:0.0639; stroke-opacity:1; 
stroke-linecap:round; stroke-linejoin:round;">
<text x="12.9745" y="15.0383"
textLength="0.7685" font-size="1.0222" lengthAdjust="spacingAndGlyphs"
text-anchor="middle" opacity="0" stroke-opacity="0">1</text>
<g class="stroked-text"><desc>1</desc>
<path d="M13.1936 15.0064
L12.7555 15.0064
" />
<path d="M12.9745 15.0064
L12.9745 14.2397
" />
<path d="M12.9745 14.2397
L12.9015 14.3492
" />
<path d="M12.9015 14.3492
L12.8285 14.4222
" />
<path d="M12.8285 14.4222
L12.7555 14.4587
" />
</g></g>
<g style="fill:none; 
stroke:#585D84; stroke-width:0.0212; stroke-opacity:1; 
stroke-linecap:round; stroke-linejoin:round;">
<circle cx="12.9745" cy="14.6550" r="1.1500" /> 
</g>
<g style="fill:none; 
stroke:#585D84; stroke-width:0.0639; stroke-opacity:1; 
stroke-linecap:round; stroke-linejoin:round;">
<text x="6.6245" y="12.4983"
textLength="0.7685" font-size="1.0222" lengthAdjust="spacingAndGlyphs"
text-anchor="middle" opacity="0" stroke-opacity="0">2</text>
<g class="stroked-text"><desc>2</desc>
<path d="M6.4055 11.7727
L6.4420 11.7362
" />
<path d="M6.4420 11.7362
L6.5150 11.6997
" />
<path d="M6.5150 11.6997
L6.6975 11.6997
" />
<path d="M6.6975 11.6997
L6.7706 11.7362
" />
<path d="M6.7706 11.7362
L6.8071 11.7727
" />
<path d="M6.8071 11.7727
L6.8436 11.8457
" />
<path d="M6.8436 11.8457
L6.8436 11.9187
" />
<path d="M6.8436 11.9187
L6.8071 12.0283
" />
<path d="M6.8071 12.0283
L6.3690 12.4664
" />
<path d="M6.3690 12.4664
L6.8436 12.4664
" />
</g></g>
<g style="fill:none; 
stroke:#585D84; stroke-width:0.0212; stroke-opacity:1; 
stroke-linecap:round; stroke-linejoin:round;">
<circle cx="6.6245" cy="12.1150" r="1.1500" /> 
</g>
<g style="fill:none; 
stroke:#AFAFAF; stroke-width:0.1500; stroke-opacity:1; 
stroke-linecap:round; stroke-linejoin:round;">
<text x="10.4345" y="18.3750"
textLength="20.8690" font-size="1.3333" lengthAdjust="spacingAndGlyphs"
text-anchor="middle" opacity="0" stroke-opacity="0">SW_MX_HotSwap_THT_sqSilk</text>
<g class="stroked-text"><desc>SW_MX_HotSwap_THT_sqSilk</desc>
<path d="M0.3155 18.2822
L0.4583 18.3298
" />
<path d="M0.4583 18.3298
L0.6964 18.3298
" />
<path d="M0.6964 18.3298
L0.7917 18.2822
" />
<path d="M0.7917 18.2822
L0.8393 18.2346
" />
<path d="M0.8393 18.2346
L0.8869 18.1393
" />
<path d="M0.8869 18.1393
L0.8869 18.0441
" />
<path d="M0.8869 18.0441
L0.8393 17.9489
" />
<path d="M0.8393 17.9489
L0.7917 17.9012
" />
<path d="M0.7917 17.9012
L0.6964 17.8536
" />
<path d="M0.6964 17.8536
L0.5060 17.8060
" />
<path d="M0.5060 17.8060
L0.4107 17.7584
" />
<path d="M0.4107 17.7584
L0.3631 17.7108
" />
<path d="M0.3631 17.7108
L0.3155 17.6155
" />
<path d="M0.3155 17.6155
L0.3155 17.5203
" />
<path d="M0.3155 17.5203
L0.3631 17.4251
" />
<path d="M0.3631 17.4251
L0.4107 17.3774
" />
<path d="M0.4107 17.3774
L0.5060 17.3298
" />
<path d="M0.5060 17.3298
L0.7440 17.3298
" />
<path d="M0.7440 17.3298
L0.8869 17.3774
" />
<path d="M1.2202 17.3298
L1.4583 18.3298
" />
<path d="M1.4583 18.3298
L1.6488 17.6155
" />
<path d="M1.6488 17.6155
L1.8393 18.3298
" />
<path d="M1.8393 18.3298
L2.0774 17.3298
" />
<path d="M2.2202 18.4251
L2.9821 18.4251
" />
<path d="M3.2202 18.3298
L3.2202 17.3298
" />
<path d="M3.2202 17.3298
L3.5536 18.0441
" />
<path d="M3.5536 18.0441
L3.8869 17.3298
" />
<path d="M3.8869 17.3298
L3.8869 18.3298
" />
<path d="M4.2679 17.3298
L4.9345 18.3298
" />
<path d="M4.9345 17.3298
L4.2679 18.3298
" />
<path d="M5.0774 18.4251
L5.8393 18.4251
" />
<path d="M6.0774 18.3298
L6.0774 17.3298
" />
<path d="M6.0774 17.8060
L6.6488 17.8060
" />
<path d="M6.6488 18.3298
L6.6488 17.3298
" />
<path d="M7.2679 18.3298
L7.1726 18.2822
" />
<path d="M7.1726 18.2822
L7.1250 18.2346
" />
<path d="M7.1250 18.2346
L7.0774 18.1393
" />
<path d="M7.0774 18.1393
L7.0774 17.8536
" />
<path d="M7.0774 17.8536
L7.1250 17.7584
" />
<path d="M7.1250 17.7584
L7.1726 17.7108
" />
<path d="M7.1726 17.7108
L7.2679 17.6632
" />
<path d="M7.2679 17.6632
L7.4107 17.6632
" />
<path d="M7.4107 17.6632
L7.5060 17.7108
" />
<path d="M7.5060 17.7108
L7.5536 17.7584
" />
<path d="M7.5536 17.7584
L7.6012 17.8536
" />
<path d="M7.6012 17.8536
L7.6012 18.1393
" />
<path d="M7.6012 18.1393
L7.5536 18.2346
" />
<path d="M7.5536 18.2346
L7.5060 18.2822
" />
<path d="M7.5060 18.2822
L7.4107 18.3298
" />
<path d="M7.4107 18.3298
L7.2679 18.3298
" />
<path d="M7.8869 17.6632
L8.2679 17.6632
" />
<path d="M8.0298 17.3298
L8.0298 18.1870
" />
<path d="M8.0298 18.1870
L8.0774 18.2822
" />
<path d="M8.0774 18.2822
L8.1726 18.3298
" />
<path d="M8.1726 18.3298
L8.2679 18.3298
" />
<path d="M8.5536 18.2822
L8.6964 18.3298
" />
<path d="M8.6964 18.3298
L8.9345 18.3298
" />
<path d="M8.9345 18.3298
L9.0298 18.2822
" />
<path d="M9.0298 18.2822
L9.0774 18.2346
" />
<path d="M9.0774 18.2346
L9.1250 18.1393
" />
<path d="M9.1250 18.1393
L9.1250 18.0441
" />
<path d="M9.1250 18.0441
L9.0774 17.9489
" />
<path d="M9.0774 17.9489
L9.0298 17.9012
" />
<path d="M9.0298 17.9012
L8.9345 17.8536
" />
<path d="M8.9345 17.8536
L8.7440 17.8060
" />
<path d="M8.7440 17.8060
L8.6488 17.7584
" />
<path d="M8.6488 17.7584
L8.6012 17.7108
" />
<path d="M8.6012 17.7108
L8.5536 17.6155
" />
<path d="M8.5536 17.6155
L8.5536 17.5203
" />
<path d="M8.5536 17.5203
L8.6012 17.4251
" />
<path d="M8.6012 17.4251
L8.6488 17.3774
" />
<path d="M8.6488 17.3774
L8.7440 17.3298
" />
<path d="M8.7440 17.3298
L8.9821 17.3298
" />
<path d="M8.9821 17.3298
L9.1250 17.3774
" />
<path d="M9.4583 17.6632
L9.6488 18.3298
" />
<path d="M9.6488 18.3298
L9.8393 17.8536
" />
<path d="M9.8393 17.8536
L10.0298 18.3298
" />
<path d="M10.0298 18.3298
L10.2202 17.6632
" />
<path d="M11.0298 18.3298
L11.0298 17.8060
" />
<path d="M11.0298 17.8060
L10.9821 17.7108
" />
<path d="M10.9821 17.7108
L10.8869 17.6632
" />
<path d="M10.8869 17.6632
L10.6964 17.6632
" />
<path d="M10.6964 17.6632
L10.6012 17.7108
" />
<path d="M11.0298 18.2822
L10.9345 18.3298
" />
<path d="M10.9345 18.3298
L10.6964 18.3298
" />
<path d="M10.6964 18.3298
L10.6012 18.2822
" />
<path d="M10.6012 18.2822
L10.5536 18.1870
" />
<path d="M10.5536 18.1870
L10.5536 18.0917
" />
<path d="M10.5536 18.0917
L10.6012 17.9965
" />
<path d="M10.6012 17.9965
L10.6964 17.9489
" />
<path d="M10.6964 17.9489
L10.9345 17.9489
" />
<path d="M10.9345 17.9489
L11.0298 17.9012
" />
<path d="M11.5060 17.6632
L11.5060 18.6632
" />
<path d="M11.5060 17.7108
L11.6012 17.6632
" />
<path d="M11.6012 17.6632
L11.7917 17.6632
" />
<path d="M11.7917 17.6632
L11.8869 17.7108
" />
<path d="M11.8869 17.7108
L11.9345 17.7584
" />
<path d="M11.9345 17.7584
L11.9821 17.8536
" />
<path d="M11.9821 17.8536
L11.9821 18.1393
" />
<path d="M11.9821 18.1393
L11.9345 18.2346
" />
<path d="M11.9345 18.2346
L11.8869 18.2822
" />
<path d="M11.8869 18.2822
L11.7917 18.3298
" />
<path d="M11.7917 18.3298
L11.6012 18.3298
" />
<path d="M11.6012 18.3298
L11.5060 18.2822
" />
<path d="M12.1726 18.4251
L12.9345 18.4251
" />
<path d="M13.0298 17.3298
L13.6012 17.3298
" />
<path d="M13.3155 18.3298
L13.3155 17.3298
" />
<path d="M13.9345 18.3298
L13.9345 17.3298
" />
<path d="M13.9345 17.8060
L14.5060 17.8060
" />
<path d="M14.5060 18.3298
L14.5060 17.3298
" />
<path d="M14.8393 17.3298
L15.4107 17.3298
" />
<path d="M15.1250 18.3298
L15.1250 17.3298
" />
<path d="M15.5060 18.4251
L16.2679 18.4251
" />
<path d="M16.4583 18.2822
L16.5536 18.3298
" />
<path d="M16.5536 18.3298
L16.7440 18.3298
" />
<path d="M16.7440 18.3298
L16.8393 18.2822
" />
<path d="M16.8393 18.2822
L16.8869 18.1870
" />
<path d="M16.8869 18.1870
L16.8869 18.1393
" />
<path d="M16.8869 18.1393
L16.8393 18.0441
" />
<path d="M16.8393 18.0441
L16.7440 17.9965
" />
<path d="M16.7440 17.9965
L16.6012 17.9965
" />
<path d="M16.6012 17.9965
L16.5060 17.9489
" />
<path d="M16.5060 17.9489
L16.4583 17.8536
" />
<path d="M16.4583 17.8536
L16.4583 17.8060
" />
<path d="M16.4583 17.8060
L16.5060 17.7108
" />
<path d="M16.5060 17.7108
L16.6012 17.6632
" />
<path d="M16.6012 17.6632
L16.7440 17.6632
" />
<path d="M16.7440 17.6632
L16.8393 17.7108
" />
<path d="M17.7440 17.6632
L17.7440 18.6632
" />
<path d="M17.7440 18.2822
L17.6488 18.3298
" />
<path d="M17.6488 18.3298
L17.4583 18.3298
" />
<path d="M17.4583 18.3298
L17.3631 18.2822
" />
<path d="M17.3631 18.2822
L17.3155 18.2346
" />
<path d="M17.3155 18.2346
L17.2679 18.1393
" />
<path d="M17.2679 18.1393
L17.2679 17.8536
" />
<path d="M17.2679 17.8536
L17.3155 17.7584
" />
<path d="M17.3155 17.7584
L17.3631 17.7108
" />
<path d="M17.3631 17.7108
L17.4583 17.6632
" />
<path d="M17.4583 17.6632
L17.6488 17.6632
" />
<path d="M17.6488 17.6632
L17.7440 17.7108
" />
<path d="M18.1726 18.2822
L18.3155 18.3298
" />
<path d="M18.3155 18.3298
L18.5536 18.3298
" />
<path d="M18.5536 18.3298
L18.6488 18.2822
" />
<path d="M18.6488 18.2822
L18.6964 18.2346
" />
<path d="M18.6964 18.2346
L18.7440 18.1393
" />
<path d="M18.7440 18.1393
L18.7440 18.0441
" />
<path d="M18.7440 18.0441
L18.6964 17.9489
" />
<path d="M18.6964 17.9489
L18.6488 17.9012
" />
<path d="M18.6488 17.9012
L18.5536 17.8536
" />
<path d="M18.5536 17.8536
L18.3631 17.8060
" />
<path d="M18.3631 17.8060
L18.2679 17.7584
" />
<path d="M18.2679 17.7584
L18.2202 17.7108
" />
<path d="M18.2202 17.7108
L18.1726 17.6155
" />
<path d="M18.1726 17.6155
L18.1726 17.5203
" />
<path d="M18.1726 17.5203
L18.2202 17.4251
" />
<path d="M18.2202 17.4251
L18.2679 17.3774
" />
<path d="M18.2679 17.3774
L18.3631 17.3298
" />
<path d="M18.3631 17.3298
L18.6012 17.3298
" />
<path d="M18.6012 17.3298
L18.7440 17.3774
" />
<path d="M19.1726 18.3298
L19.1726 17.6632
" />
<path d="M19.1726 17.3298
L19.1250 17.3774
" />
<path d="M19.1250 17.3774
L19.1726 17.4251
" />
<path d="M19.1726 17.4251
L19.2202 17.3774
" />
<path d="M19.2202 17.3774
L19.1726 17.3298
" />
<path d="M19.1726 17.3298
L19.1726 17.4251
" />
<path d="M19.7917 18.3298
L19.6964 18.2822
" />
<path d="M19.6964 18.2822
L19.6488 18.1870
" />
<path d="M19.6488 18.1870
L19.6488 17.3298
" />
<path d="M20.1726 18.3298
L20.1726 17.3298
" />
<path d="M20.2679 17.9489
L20.5536 18.3298
" />
<path d="M20.5536 17.6632
L20.1726 18.0441
" />
</g><text x="10.4345" y="19.9750"
textLength="4.5357" font-size="1.3333" lengthAdjust="spacingAndGlyphs"
text-anchor="middle" opacity="0" stroke-opacity="0">REF**</text>
<g class="stroked-text"><desc>REF**</desc>
<path d="M9.1012 19.9298
L8.7679 19.4536
" />
<path d="M8.5298 19.9298
L8.5298 18.9298
" />
<path d="M8.5298 18.9298
L8.9107 18.9298
" />
<path d="M8.9107 18.9298
L9.0060 18.9774
" />
<path d="M9.0060 18.9774
L9.0536 19.0251
" />
<path d="M9.0536 19.0251
L9.1012 19.1203
" />
<path d="M9.1012 19.1203
L9.1012 19.2632
" />
<path d="M9.1012 19.2632
L9.0536 19.3584
" />
<path d="M9.0536 19.3584
L9.0060 19.4060
" />
<path d="M9.0060 19.4060
L8.9107 19.4536
" />
<path d="M8.9107 19.4536
L8.5298 19.4536
" />
<path d="M9.5298 19.4060
L9.8631 19.4060
" />
<path d="M10.0060 19.9298
L9.5298 19.9298
" />
<path d="M9.5298 19.9298
L9.5298 18.9298
" />
<path d="M9.5298 18.9298
L10.0060 18.9298
" />
<path d="M10.7679 19.4060
L10.4345 19.4060
" />
<path d="M10.4345 19.9298
L10.4345 18.9298
" />
<path d="M10.4345 18.9298
L10.9107 18.9298
" />
<path d="M11.4345 18.9298
L11.4345 19.1679
" />
<path d="M11.1964 19.0727
L11.4345 19.1679
" />
<path d="M11.4345 19.1679
L11.6726 19.0727
" />
<path d="M11.2917 19.3584
L11.4345 19.1679
" />
<path d="M11.4345 19.1679
L11.5774 19.3584
" />
<path d="M12.1964 18.9298
L12.1964 19.1679
" />
<path d="M11.9583 19.0727
L12.1964 19.1679
" />
<path d="M12.1964 19.1679
L12.4345 19.0727
" />
<path d="M12.0536 19.3584
L12.1964 19.1679
" />
<path d="M12.1964 19.1679
L12.3393 19.3584
" />
</g></g>
<g style="fill:none; 
stroke:#AFAFAF; stroke-width:0.1000; stroke-opacity:1; 
stroke-linecap:round; stroke-linejoin:round;">
<path d="M2.8145 3.2250
L2.8145 5.7650
" />
<path d="M2.8145 5.7650
L5.3545 5.7650
" />
<path d="M5.3545 2.5900
L5.3545 7.0350
" />
<path d="M5.3545 3.2250
L2.8145 3.2250
" />
<path d="M5.3545 7.0350
L10.4345 7.0350
" />
<path d="M14.2445 2.5900
L5.3545 2.5900
" />
<path d="M16.7845 8.3050
L19.3245 8.3050
" />
<path d="M16.7845 8.9400
L12.9745 8.9400
" />
<path d="M16.7845 8.9400
L16.7845 5.1300
" />
<path d="M19.3245 5.7650
L16.7845 5.7650
" />
<path d="M19.3245 8.3050
L19.3245 5.7650
" />
<path d="M12.8987 8.9590 A2.5400 2.5400 0.0 0 0 10.4345 7.0350" />
<path d="M16.7845 5.1300 A2.5400 2.5400 0.0 0 0 14.2445 2.5900" />
</g>
<g style="fill:none; 
stroke:#AFAFAF; stroke-width:0.0212; stroke-opacity:1; 
stroke-linecap:round; stroke-linejoin:round;">
<circle cx="5.3545" cy="9.5750" r="0.8500" /> 
</g>
<g style="fill:none; 
stroke:#AFAFAF; stroke-width:0.0212; stroke-opacity:1; 
stroke-linecap:round; stroke-linejoin:round;">
<circle cx="7.8945" cy="4.4950" r="1.5000" /> 
</g>
<g style="fill:none; 
stroke:#AFAFAF; stroke-width:0.0212; stroke-opacity:1; 
stroke-linecap:round; stroke-linejoin:round;">
<circle cx="10.4345" cy="9.5750" r="2.0000" /> 
</g>
<g style="fill:none; 
stroke:#AFAFAF; stroke-width:0.0212; stroke-opacity:1; 
stroke-linecap:round; stroke-linejoin:round;">
<circle cx="14.2445" cy="7.0350" r="1.5000" /> 
</g>
<g style="fill:none; 
stroke:#AFAFAF; stroke-width:0.0212; stroke-opacity:1; 
stroke-linecap:round; stroke-linejoin:round;">
<circle cx="15.5145" cy="9.5750" r="0.8500" /> 
</g>
<g style="fill:none; 
stroke:#AFAFAF; stroke-width:0.0639; stroke-opacity:1; 
stroke-linecap:round; stroke-linejoin:round;">
<text x="12.9745" y="15.0383"
textLength="0.7685" font-size="1.0222" lengthAdjust="spacingAndGlyphs"
text-anchor="middle" opacity="0" stroke-opacity="0">1</text>
<g class="stroked-text"><desc>1</desc>
<path d="M13.1936 15.0064
L12.7555 15.0064
" />
<path d="M12.9745 15.0064
L12.9745 14.2397
" />
<path d="M12.9745 14.2397
L12.9015 14.3492
" />
<path d="M12.9015 14.3492
L12.8285 14.4222
" />
<path d="M12.8285 14.4222
L12.7555 14.4587
" />
</g></g>
<g style="fill:none; 
stroke:#AFAFAF; stroke-width:0.0212; stroke-opacity:1; 
stroke-linecap:round; stroke-linejoin:round;">
<circle cx="12.9745" cy="14.6550" r="1.1500" /> 
</g>
<g style="fill:none; 
stroke:#AFAFAF; stroke-width:0.0708; stroke-opacity:1; 
stroke-linecap:round; stroke-linejoin:round;">
<text x="17.9945" y="7.4600"
textLength="0.8520" font-size="1.1333" lengthAdjust="spacingAndGlyphs"
text-anchor="middle" opacity="0" stroke-opacity="0">1</text>
<g class="stroked-text"><desc>1</desc>
<path d="M18.2374 7.4245
L17.7517 7.4245
" />
<path d="M17.9945 7.4245
L17.9945 6.5745
" />
<path d="M17.9945 6.5745
L17.9136 6.6960
" />
<path d="M17.9136 6.6960
L17.8326 6.7769
" />
<path d="M17.8326 6.7769
L17.7517 6.8174
" />
</g><path style="fill:none; 
stroke:#AFAFAF; stroke-width:0.0212; stroke-opacity:1; 
stroke-linecap:round; stroke-linejoin:round;fill:none"
d="M 16.7195,6.0350
16.7386,5.9393
16.7927,5.8582
16.8739,5.8040
16.9695,5.7850
19.0195,5.7850
19.1152,5.8040
19.1963,5.8582
19.2505,5.9393
19.2695,6.0350
19.2695,8.0350
19.2505,8.1307
19.1963,8.2118
19.1152,8.2660
19.0195,8.2850
16.9695,8.2850
16.8739,8.2660
16.7927,8.2118
16.7386,8.1307
16.7195,8.0350
Z" /> 
</g>
<g style="fill:none; 
stroke:#AFAFAF; stroke-width:0.0708; stroke-opacity:1; 
stroke-linecap:round; stroke-linejoin:round;">
<text x="4.1445" y="4.9200"
textLength="0.8520" font-size="1.1333" lengthAdjust="spacingAndGlyphs"
text-anchor="middle" opacity="0" stroke-opacity="0">2</text>
<g class="stroked-text"><desc>2</desc>
<path d="M3.9017 4.1155
L3.9421 4.0750
" />
<path d="M3.9421 4.0750
L4.0231 4.0345
" />
<path d="M4.0231 4.0345
L4.2255 4.0345
" />
<path d="M4.2255 4.0345
L4.3064 4.0750
" />
<path d="M4.3064 4.0750
L4.3469 4.1155
" />
<path d="M4.3469 4.1155
L4.3874 4.1964
" />
<path d="M4.3874 4.1964
L4.3874 4.2774
" />
<path d="M4.3874 4.2774
L4.3469 4.3988
" />
<path d="M4.3469 4.3988
L3.8612 4.8845
" />
<path d="M3.8612 4.8845
L4.3874 4.8845
" />
</g><path style="fill:none; 
stroke:#AFAFAF; stroke-width:0.0212; stroke-opacity:1; 
stroke-linecap:round; stroke-linejoin:round;fill:none"
d="M 2.8695,3.4950
2.8886,3.3993
2.9427,3.3182
3.0239,3.2640
3.1195,3.2450
5.1695,3.2450
5.2652,3.2640
5.3463,3.3182
5.4005,3.3993
5.4195,3.4950
5.4195,5.4950
5.4005,5.5907
5.3463,5.6718
5.2652,5.7260
5.1695,5.7450
3.1195,5.7450
3.0239,5.7260
2.9427,5.6718
2.8886,5.5907
2.8695,5.4950
Z" /> 
</g>
<g style="fill:none; 
stroke:#AFAFAF; stroke-width:0.0639; stroke-opacity:1; 
stroke-linecap:round; stroke-linejoin:round;">
<text x="6.6245" y="12.4983"
textLength="0.7685" font-size="1.0222" lengthAdjust="spacingAndGlyphs"
text-anchor="middle" opacity="0" stroke-opacity="0">2</text>
<g class="stroked-text"><desc>2</desc>
<path d="M6.4055 11.7727
L6.4420 11.7362
" />
<path d="M6.4420 11.7362
L6.5150 11.6997
" />
<path d="M6.5150 11.6997
L6.6975 11.6997
" />
<path d="M6.6975 11.6997
L6.7706 11.7362
" />
<path d="M6.7706 11.7362
L6.8071 11.7727
" />
<path d="M6.8071 11.7727
L6.8436 11.8457
" />
<path d="M6.8436 11.8457
L6.8436 11.9187
" />
<path d="M6.8436 11.9187
L6.8071 12.0283
" />
<path d="M6.8071 12.0283
L6.3690 12.4664
" />
<path d="M6.3690 12.4664
L6.8436 12.4664
" />
</g></g>
<g style="fill:none; 
stroke:#AFAFAF; stroke-width:0.0212; stroke-opacity:1; 
stroke-linecap:round; stroke-linejoin:round;">
<circle cx="6.6245" cy="12.1150" r="1.1500" /> 
<path style="fill:none; 
stroke:#C2C2C2; stroke-width:0.1000; stroke-opacity:1; 
stroke-linecap:round; stroke-linejoin:round;fill:none"
d="M 0.9095,0.0500
19.9595,0.0500
19.9595,19.1000
0.9095,19.1000
Z" /> 
</g> 
</svg>
