<?xml version="1.0" standalone="no"?>
 <!DOCTYPE svg PUBLIC "-//W3C//DTD SVG 1.1//EN" 
 "http://www.w3.org/Graphics/SVG/1.1/DTD/svg11.dtd"> 
<svg
  xmlns:svg="http://www.w3.org/2000/svg"
  xmlns="http://www.w3.org/2000/svg"
  xmlns:xlink="http://www.w3.org/1999/xlink"
  version="1.1"
  width="24.6126mm" height="21.4122mm" viewBox="0.0000 0.0000 24.6126 21.4122">
<title>SVG Image created as SW_MX_EC11_HotSwap_THT_nSilk.svg date 2025/05/12 02:45:49 </title>
  <desc>Image generated by PCBNEW </desc>
<g style="fill:#000000; fill-opacity:1.0000;stroke:#000000; stroke-opacity:1.0000;
stroke-linecap:round; stroke-linejoin:round;"
 transform="translate(0 0) scale(1 1)">
</g>
<g style="fill:none; 
stroke:#E8B2A7; stroke-width:0.1500; stroke-opacity:1; 
stroke-linecap:round; stroke-linejoin:round;">
<text x="12.3155" y="7.0750"
transform="scale(-1 1) translate(-24.630954 0)"
textLength="4.5357" font-size="1.3333" lengthAdjust="spacingAndGlyphs"
text-anchor="middle" opacity="0" stroke-opacity="0">REF**</text>
<g class="stroked-text"><desc>REF**</desc>
<path d="M13.6488 7.0298
L13.9821 6.5536
" />
<path d="M14.2202 7.0298
L14.2202 6.0298
" />
<path d="M14.2202 6.0298
L13.8393 6.0298
" />
<path d="M13.8393 6.0298
L13.7440 6.0774
" />
<path d="M13.7440 6.0774
L13.6964 6.1251
" />
<path d="M13.6964 6.1251
L13.6488 6.2203
" />
<path d="M13.6488 6.2203
L13.6488 6.3632
" />
<path d="M13.6488 6.3632
L13.6964 6.4584
" />
<path d="M13.6964 6.4584
L13.7440 6.5060
" />
<path d="M13.7440 6.5060
L13.8393 6.5536
" />
<path d="M13.8393 6.5536
L14.2202 6.5536
" />
<path d="M13.2202 6.5060
L12.8869 6.5060
" />
<path d="M12.7440 7.0298
L13.2202 7.0298
" />
<path d="M13.2202 7.0298
L13.2202 6.0298
" />
<path d="M13.2202 6.0298
L12.7440 6.0298
" />
<path d="M11.9821 6.5060
L12.3155 6.5060
" />
<path d="M12.3155 7.0298
L12.3155 6.0298
" />
<path d="M12.3155 6.0298
L11.8393 6.0298
" />
<path d="M11.3155 6.0298
L11.3155 6.2679
" />
<path d="M11.5536 6.1727
L11.3155 6.2679
" />
<path d="M11.3155 6.2679
L11.0774 6.1727
" />
<path d="M11.4583 6.4584
L11.3155 6.2679
" />
<path d="M11.3155 6.2679
L11.1726 6.4584
" />
<path d="M10.5536 6.0298
L10.5536 6.2679
" />
<path d="M10.7917 6.1727
L10.5536 6.2679
" />
<path d="M10.5536 6.2679
L10.3155 6.1727
" />
<path d="M10.6964 6.4584
L10.5536 6.2679
" />
<path d="M10.5536 6.2679
L10.4107 6.4584
" />
</g></g>
<g style="fill:none; 
stroke:#E8B2A7; stroke-width:0.1200; stroke-opacity:1; 
stroke-linecap:round; stroke-linejoin:round;">
<path d="M7.2355 12.1150
L7.2355 13.1050
" />
<path d="M7.2355 12.1150
L12.3155 12.1150
" />
<path d="M7.2355 16.5600
L7.2355 16.2050
" />
<path d="M14.7796 10.2100
L16.5065 10.2100
" />
<path d="M16.1255 16.5600
L7.2355 16.5600
" />
<path d="M18.6655 14.0200
L18.6655 13.6650
" />
<path d="M12.3155 12.1150 A2.5400 2.5400 0.0 0 0 14.7751 10.2088" />
<path d="M16.1255 16.5600 A2.5400 2.5400 0.0 0 0 18.6655 14.0200" />
<path style="fill:#00C2C2; fill-opacity:0.9000; stroke:none;fill-rule:evenodd;"
d="M 4.7505,13.6550
4.7695,13.5593
4.8237,13.4782
4.9048,13.4240
5.0005,13.4050
7.0505,13.4050
7.1461,13.4240
7.2273,13.4782
7.2814,13.5593
7.3005,13.6550
7.3005,15.6550
7.2814,15.7507
7.2273,15.8318
7.1461,15.8860
7.0505,15.9050
5.0005,15.9050
4.9048,15.8860
4.8237,15.8318
4.7695,15.7507
4.7505,15.6550
Z" /> 
<path style="fill:#00C2C2; fill-opacity:0.9000; stroke:none;fill-rule:evenodd;"
d="M 18.6005,11.1150
18.6195,11.0193
18.6737,10.9382
18.7548,10.8840
18.8505,10.8650
20.9005,10.8650
20.9961,10.8840
21.0773,10.9382
21.1314,11.0193
21.1505,11.1150
21.1505,13.1150
21.1314,13.2107
21.0773,13.2918
20.9961,13.3460
20.9005,13.3650
18.8505,13.3650
18.7548,13.3460
18.6737,13.2918
18.6195,13.2107
18.6005,13.1150
Z" /> 
</g>
<g style="fill:none; 
stroke:#4D7FC4; stroke-width:1.0000; stroke-opacity:1; 
stroke-linecap:round; stroke-linejoin:round;">
<path d="M9.6155 17.0750
L10.0155 17.0750
" />
<path d="M14.6155 17.0750
L15.0155 17.0750
" />
<path d="M12.1155 17.0750
L12.5155 17.0750
" />
<path style="fill:#4D7FC4; fill-opacity:1.0000; stroke:none;fill-rule:evenodd;"
d="M 5.7855,8.2750
5.8007,8.1985
5.8441,8.1336
5.9089,8.0902
5.9855,8.0750
7.1855,8.0750
7.7855,8.6750
7.7855,10.4750
7.1855,11.0750
5.9855,11.0750
5.9089,11.0598
5.8441,11.0164
5.8007,10.9515
5.7855,10.8750
Z" /> 
<path style="fill:#4D7FC4; fill-opacity:1.0000; stroke:none;fill-rule:evenodd;"
d="M 16.8455,10.3350
16.8455,8.6750
17.4455,8.0750
18.6455,8.0750
18.7255,8.0950
18.7855,8.1350
18.8255,8.1950
18.8455,8.2750
18.8455,10.4750
18.2455,11.0750
17.7255,11.0750
Z" /> 
<path style="fill:#4D7FC4; fill-opacity:1.0000; stroke:none;fill-rule:evenodd;"
d="M 4.7505,13.6550
4.7695,13.5593
4.8237,13.4782
4.9048,13.4240
5.0005,13.4050
7.0505,13.4050
7.1461,13.4240
7.2273,13.4782
7.2814,13.5593
7.3005,13.6550
7.3005,15.6550
7.2814,15.7507
7.2273,15.8318
7.1461,15.8860
7.0505,15.9050
5.0005,15.9050
4.9048,15.8860
4.8237,15.8318
4.7695,15.7507
4.7505,15.6550
Z" /> 
</g>
<g style="fill:#4D7FC4; fill-opacity:1.0000; stroke:none;">
<circle cx="8.5055" cy="7.0350" r="1.1500" /> 
</g>
<g style="fill:none; 
stroke:#4D7FC4; stroke-width:1.0000; stroke-opacity:1; 
stroke-linecap:round; stroke-linejoin:round;">
<path d="M9.6155 2.5750
L10.0155 2.5750
" />
<path d="M14.6155 2.5750
L15.0155 2.5750
" />
</g>
<g style="fill:#4D7FC4; fill-opacity:1.0000; stroke:none;">
<circle cx="14.8555" cy="4.4950" r="1.1500" /> 
<path style="fill:#4D7FC4; fill-opacity:1.0000; stroke:none;fill-rule:evenodd;"
d="M 18.6005,11.1150
18.6195,11.0193
18.6737,10.9382
18.7548,10.8840
18.8505,10.8650
20.9005,10.8650
20.9961,10.8840
21.0773,10.9382
21.1314,11.0193
21.1505,11.1150
21.1505,13.1150
21.1314,13.2107
21.0773,13.2918
20.9961,13.3460
20.9005,13.3650
18.8505,13.3650
18.7548,13.3460
18.6737,13.2918
18.6195,13.2107
18.6005,13.1150
Z" /> 
</g>
<g style="fill:none; 
stroke:#C83434; stroke-width:1.0000; stroke-opacity:1; 
stroke-linecap:round; stroke-linejoin:round;">
<path d="M9.6155 17.0750
L10.0155 17.0750
" />
<path d="M14.6155 17.0750
L15.0155 17.0750
" />
<path d="M12.1155 17.0750
L12.5155 17.0750
" />
<path style="fill:#C83434; fill-opacity:1.0000; stroke:none;fill-rule:evenodd;"
d="M 5.7855,8.2750
5.8007,8.1985
5.8441,8.1336
5.9089,8.0902
5.9855,8.0750
7.1855,8.0750
7.7855,8.6750
7.7855,10.4750
7.1855,11.0750
5.9855,11.0750
5.9089,11.0598
5.8441,11.0164
5.8007,10.9515
5.7855,10.8750
Z" /> 
<path style="fill:#C83434; fill-opacity:1.0000; stroke:none;fill-rule:evenodd;"
d="M 16.8455,10.3350
16.8455,8.6750
17.4455,8.0750
18.6455,8.0750
18.7255,8.0950
18.7855,8.1350
18.8255,8.1950
18.8455,8.2750
18.8455,10.4750
18.2455,11.0750
17.7255,11.0750
Z" /> 
</g>
<g style="fill:#C83434; fill-opacity:1.0000; stroke:none;">
<circle cx="8.5055" cy="7.0350" r="1.1500" /> 
</g>
<g style="fill:none; 
stroke:#C83434; stroke-width:1.0000; stroke-opacity:1; 
stroke-linecap:round; stroke-linejoin:round;">
<path d="M9.6155 2.5750
L10.0155 2.5750
" />
<path d="M14.6155 2.5750
L15.0155 2.5750
" />
</g>
<g style="fill:#C83434; fill-opacity:1.0000; stroke:none;">
<circle cx="14.8555" cy="4.4950" r="1.1500" /> 
</g>
<g style="fill:none; 
stroke:#585D84; stroke-width:0.1500; stroke-opacity:1; 
stroke-linecap:round; stroke-linejoin:round;">
<text x="12.3155" y="19.4750"
transform="scale(-1 1) translate(-24.630954 0)"
textLength="24.6310" font-size="1.3333" lengthAdjust="spacingAndGlyphs"
text-anchor="middle" opacity="0" stroke-opacity="0">SW_MX_EC11_HotSwap_THT_nSilk</text>
<g class="stroked-text"><desc>SW_MX_EC11_HotSwap_THT_nSilk</desc>
<path d="M24.3155 19.3822
L24.1726 19.4298
" />
<path d="M24.1726 19.4298
L23.9345 19.4298
" />
<path d="M23.9345 19.4298
L23.8393 19.3822
" />
<path d="M23.8393 19.3822
L23.7917 19.3346
" />
<path d="M23.7917 19.3346
L23.7440 19.2393
" />
<path d="M23.7440 19.2393
L23.7440 19.1441
" />
<path d="M23.7440 19.1441
L23.7917 19.0489
" />
<path d="M23.7917 19.0489
L23.8393 19.0012
" />
<path d="M23.8393 19.0012
L23.9345 18.9536
" />
<path d="M23.9345 18.9536
L24.1250 18.9060
" />
<path d="M24.1250 18.9060
L24.2202 18.8584
" />
<path d="M24.2202 18.8584
L24.2679 18.8108
" />
<path d="M24.2679 18.8108
L24.3155 18.7155
" />
<path d="M24.3155 18.7155
L24.3155 18.6203
" />
<path d="M24.3155 18.6203
L24.2679 18.5251
" />
<path d="M24.2679 18.5251
L24.2202 18.4774
" />
<path d="M24.2202 18.4774
L24.1250 18.4298
" />
<path d="M24.1250 18.4298
L23.8869 18.4298
" />
<path d="M23.8869 18.4298
L23.7440 18.4774
" />
<path d="M23.4107 18.4298
L23.1726 19.4298
" />
<path d="M23.1726 19.4298
L22.9821 18.7155
" />
<path d="M22.9821 18.7155
L22.7917 19.4298
" />
<path d="M22.7917 19.4298
L22.5536 18.4298
" />
<path d="M22.4107 19.5251
L21.6488 19.5251
" />
<path d="M21.4107 19.4298
L21.4107 18.4298
" />
<path d="M21.4107 18.4298
L21.0774 19.1441
" />
<path d="M21.0774 19.1441
L20.7440 18.4298
" />
<path d="M20.7440 18.4298
L20.7440 19.4298
" />
<path d="M20.3631 18.4298
L19.6964 19.4298
" />
<path d="M19.6964 18.4298
L20.3631 19.4298
" />
<path d="M19.5536 19.5251
L18.7917 19.5251
" />
<path d="M18.5536 18.9060
L18.2202 18.9060
" />
<path d="M18.0774 19.4298
L18.5536 19.4298
" />
<path d="M18.5536 19.4298
L18.5536 18.4298
" />
<path d="M18.5536 18.4298
L18.0774 18.4298
" />
<path d="M17.0774 19.3346
L17.1250 19.3822
" />
<path d="M17.1250 19.3822
L17.2679 19.4298
" />
<path d="M17.2679 19.4298
L17.3631 19.4298
" />
<path d="M17.3631 19.4298
L17.5060 19.3822
" />
<path d="M17.5060 19.3822
L17.6012 19.2870
" />
<path d="M17.6012 19.2870
L17.6488 19.1917
" />
<path d="M17.6488 19.1917
L17.6964 19.0012
" />
<path d="M17.6964 19.0012
L17.6964 18.8584
" />
<path d="M17.6964 18.8584
L17.6488 18.6679
" />
<path d="M17.6488 18.6679
L17.6012 18.5727
" />
<path d="M17.6012 18.5727
L17.5060 18.4774
" />
<path d="M17.5060 18.4774
L17.3631 18.4298
" />
<path d="M17.3631 18.4298
L17.2679 18.4298
" />
<path d="M17.2679 18.4298
L17.1250 18.4774
" />
<path d="M17.1250 18.4774
L17.0774 18.5251
" />
<path d="M16.1250 19.4298
L16.6964 19.4298
" />
<path d="M16.4107 19.4298
L16.4107 18.4298
" />
<path d="M16.4107 18.4298
L16.5060 18.5727
" />
<path d="M16.5060 18.5727
L16.6012 18.6679
" />
<path d="M16.6012 18.6679
L16.6964 18.7155
" />
<path d="M15.1726 19.4298
L15.7440 19.4298
" />
<path d="M15.4583 19.4298
L15.4583 18.4298
" />
<path d="M15.4583 18.4298
L15.5536 18.5727
" />
<path d="M15.5536 18.5727
L15.6488 18.6679
" />
<path d="M15.6488 18.6679
L15.7440 18.7155
" />
<path d="M14.9821 19.5251
L14.2202 19.5251
" />
<path d="M13.9821 19.4298
L13.9821 18.4298
" />
<path d="M13.9821 18.9060
L13.4107 18.9060
" />
<path d="M13.4107 19.4298
L13.4107 18.4298
" />
<path d="M12.7917 19.4298
L12.8869 19.3822
" />
<path d="M12.8869 19.3822
L12.9345 19.3346
" />
<path d="M12.9345 19.3346
L12.9821 19.2393
" />
<path d="M12.9821 19.2393
L12.9821 18.9536
" />
<path d="M12.9821 18.9536
L12.9345 18.8584
" />
<path d="M12.9345 18.8584
L12.8869 18.8108
" />
<path d="M12.8869 18.8108
L12.7917 18.7632
" />
<path d="M12.7917 18.7632
L12.6488 18.7632
" />
<path d="M12.6488 18.7632
L12.5536 18.8108
" />
<path d="M12.5536 18.8108
L12.5060 18.8584
" />
<path d="M12.5060 18.8584
L12.4583 18.9536
" />
<path d="M12.4583 18.9536
L12.4583 19.2393
" />
<path d="M12.4583 19.2393
L12.5060 19.3346
" />
<path d="M12.5060 19.3346
L12.5536 19.3822
" />
<path d="M12.5536 19.3822
L12.6488 19.4298
" />
<path d="M12.6488 19.4298
L12.7917 19.4298
" />
<path d="M12.1726 18.7632
L11.7917 18.7632
" />
<path d="M12.0298 18.4298
L12.0298 19.2870
" />
<path d="M12.0298 19.2870
L11.9821 19.3822
" />
<path d="M11.9821 19.3822
L11.8869 19.4298
" />
<path d="M11.8869 19.4298
L11.7917 19.4298
" />
<path d="M11.5060 19.3822
L11.3631 19.4298
" />
<path d="M11.3631 19.4298
L11.1250 19.4298
" />
<path d="M11.1250 19.4298
L11.0298 19.3822
" />
<path d="M11.0298 19.3822
L10.9821 19.3346
" />
<path d="M10.9821 19.3346
L10.9345 19.2393
" />
<path d="M10.9345 19.2393
L10.9345 19.1441
" />
<path d="M10.9345 19.1441
L10.9821 19.0489
" />
<path d="M10.9821 19.0489
L11.0298 19.0012
" />
<path d="M11.0298 19.0012
L11.1250 18.9536
" />
<path d="M11.1250 18.9536
L11.3155 18.9060
" />
<path d="M11.3155 18.9060
L11.4107 18.8584
" />
<path d="M11.4107 18.8584
L11.4583 18.8108
" />
<path d="M11.4583 18.8108
L11.5060 18.7155
" />
<path d="M11.5060 18.7155
L11.5060 18.6203
" />
<path d="M11.5060 18.6203
L11.4583 18.5251
" />
<path d="M11.4583 18.5251
L11.4107 18.4774
" />
<path d="M11.4107 18.4774
L11.3155 18.4298
" />
<path d="M11.3155 18.4298
L11.0774 18.4298
" />
<path d="M11.0774 18.4298
L10.9345 18.4774
" />
<path d="M10.6012 18.7632
L10.4107 19.4298
" />
<path d="M10.4107 19.4298
L10.2202 18.9536
" />
<path d="M10.2202 18.9536
L10.0298 19.4298
" />
<path d="M10.0298 19.4298
L9.8393 18.7632
" />
<path d="M9.0298 19.4298
L9.0298 18.9060
" />
<path d="M9.0298 18.9060
L9.0774 18.8108
" />
<path d="M9.0774 18.8108
L9.1726 18.7632
" />
<path d="M9.1726 18.7632
L9.3631 18.7632
" />
<path d="M9.3631 18.7632
L9.4583 18.8108
" />
<path d="M9.0298 19.3822
L9.1250 19.4298
" />
<path d="M9.1250 19.4298
L9.3631 19.4298
" />
<path d="M9.3631 19.4298
L9.4583 19.3822
" />
<path d="M9.4583 19.3822
L9.5060 19.2870
" />
<path d="M9.5060 19.2870
L9.5060 19.1917
" />
<path d="M9.5060 19.1917
L9.4583 19.0965
" />
<path d="M9.4583 19.0965
L9.3631 19.0489
" />
<path d="M9.3631 19.0489
L9.1250 19.0489
" />
<path d="M9.1250 19.0489
L9.0298 19.0012
" />
<path d="M8.5536 18.7632
L8.5536 19.7632
" />
<path d="M8.5536 18.8108
L8.4583 18.7632
" />
<path d="M8.4583 18.7632
L8.2679 18.7632
" />
<path d="M8.2679 18.7632
L8.1726 18.8108
" />
<path d="M8.1726 18.8108
L8.1250 18.8584
" />
<path d="M8.1250 18.8584
L8.0774 18.9536
" />
<path d="M8.0774 18.9536
L8.0774 19.2393
" />
<path d="M8.0774 19.2393
L8.1250 19.3346
" />
<path d="M8.1250 19.3346
L8.1726 19.3822
" />
<path d="M8.1726 19.3822
L8.2679 19.4298
" />
<path d="M8.2679 19.4298
L8.4583 19.4298
" />
<path d="M8.4583 19.4298
L8.5536 19.3822
" />
<path d="M7.8869 19.5251
L7.1250 19.5251
" />
<path d="M7.0298 18.4298
L6.4583 18.4298
" />
<path d="M6.7440 19.4298
L6.7440 18.4298
" />
<path d="M6.1250 19.4298
L6.1250 18.4298
" />
<path d="M6.1250 18.9060
L5.5536 18.9060
" />
<path d="M5.5536 19.4298
L5.5536 18.4298
" />
<path d="M5.2202 18.4298
L4.6488 18.4298
" />
<path d="M4.9345 19.4298
L4.9345 18.4298
" />
<path d="M4.5536 19.5251
L3.7917 19.5251
" />
<path d="M3.5536 18.7632
L3.5536 19.4298
" />
<path d="M3.5536 18.8584
L3.5060 18.8108
" />
<path d="M3.5060 18.8108
L3.4107 18.7632
" />
<path d="M3.4107 18.7632
L3.2679 18.7632
" />
<path d="M3.2679 18.7632
L3.1726 18.8108
" />
<path d="M3.1726 18.8108
L3.1250 18.9060
" />
<path d="M3.1250 18.9060
L3.1250 19.4298
" />
<path d="M2.6964 19.3822
L2.5536 19.4298
" />
<path d="M2.5536 19.4298
L2.3155 19.4298
" />
<path d="M2.3155 19.4298
L2.2202 19.3822
" />
<path d="M2.2202 19.3822
L2.1726 19.3346
" />
<path d="M2.1726 19.3346
L2.1250 19.2393
" />
<path d="M2.1250 19.2393
L2.1250 19.1441
" />
<path d="M2.1250 19.1441
L2.1726 19.0489
" />
<path d="M2.1726 19.0489
L2.2202 19.0012
" />
<path d="M2.2202 19.0012
L2.3155 18.9536
" />
<path d="M2.3155 18.9536
L2.5060 18.9060
" />
<path d="M2.5060 18.9060
L2.6012 18.8584
" />
<path d="M2.6012 18.8584
L2.6488 18.8108
" />
<path d="M2.6488 18.8108
L2.6964 18.7155
" />
<path d="M2.6964 18.7155
L2.6964 18.6203
" />
<path d="M2.6964 18.6203
L2.6488 18.5251
" />
<path d="M2.6488 18.5251
L2.6012 18.4774
" />
<path d="M2.6012 18.4774
L2.5060 18.4298
" />
<path d="M2.5060 18.4298
L2.2679 18.4298
" />
<path d="M2.2679 18.4298
L2.1250 18.4774
" />
<path d="M1.6964 19.4298
L1.6964 18.7632
" />
<path d="M1.6964 18.4298
L1.7440 18.4774
" />
<path d="M1.7440 18.4774
L1.6964 18.5251
" />
<path d="M1.6964 18.5251
L1.6488 18.4774
" />
<path d="M1.6488 18.4774
L1.6964 18.4298
" />
<path d="M1.6964 18.4298
L1.6964 18.5251
" />
<path d="M1.0774 19.4298
L1.1726 19.3822
" />
<path d="M1.1726 19.3822
L1.2202 19.2870
" />
<path d="M1.2202 19.2870
L1.2202 18.4298
" />
<path d="M0.6964 19.4298
L0.6964 18.4298
" />
<path d="M0.6012 19.0489
L0.3155 19.4298
" />
<path d="M0.3155 18.7632
L0.6964 19.1441
" />
</g><text x="12.3155" y="21.0750"
transform="scale(-1 1) translate(-24.630954 0)"
textLength="4.5357" font-size="1.3333" lengthAdjust="spacingAndGlyphs"
text-anchor="middle" opacity="0" stroke-opacity="0">REF**</text>
<g class="stroked-text"><desc>REF**</desc>
<path d="M13.6488 21.0298
L13.9821 20.5536
" />
<path d="M14.2202 21.0298
L14.2202 20.0298
" />
<path d="M14.2202 20.0298
L13.8393 20.0298
" />
<path d="M13.8393 20.0298
L13.7440 20.0774
" />
<path d="M13.7440 20.0774
L13.6964 20.1251
" />
<path d="M13.6964 20.1251
L13.6488 20.2203
" />
<path d="M13.6488 20.2203
L13.6488 20.3632
" />
<path d="M13.6488 20.3632
L13.6964 20.4584
" />
<path d="M13.6964 20.4584
L13.7440 20.5060
" />
<path d="M13.7440 20.5060
L13.8393 20.5536
" />
<path d="M13.8393 20.5536
L14.2202 20.5536
" />
<path d="M13.2202 20.5060
L12.8869 20.5060
" />
<path d="M12.7440 21.0298
L13.2202 21.0298
" />
<path d="M13.2202 21.0298
L13.2202 20.0298
" />
<path d="M13.2202 20.0298
L12.7440 20.0298
" />
<path d="M11.9821 20.5060
L12.3155 20.5060
" />
<path d="M12.3155 21.0298
L12.3155 20.0298
" />
<path d="M12.3155 20.0298
L11.8393 20.0298
" />
<path d="M11.3155 20.0298
L11.3155 20.2679
" />
<path d="M11.5536 20.1727
L11.3155 20.2679
" />
<path d="M11.3155 20.2679
L11.0774 20.1727
" />
<path d="M11.4583 20.4584
L11.3155 20.2679
" />
<path d="M11.3155 20.2679
L11.1726 20.4584
" />
<path d="M10.5536 20.0298
L10.5536 20.2679
" />
<path d="M10.7917 20.1727
L10.5536 20.2679
" />
<path d="M10.5536 20.2679
L10.3155 20.1727
" />
<path d="M10.6964 20.4584
L10.5536 20.2679
" />
<path d="M10.5536 20.2679
L10.4107 20.4584
" />
</g></g>
<g style="fill:none; 
stroke:#585D84; stroke-width:0.1000; stroke-opacity:1; 
stroke-linecap:round; stroke-linejoin:round;">
<path d="M4.6955 13.3850
L7.2355 13.3850
" />
<path d="M4.6955 15.9250
L4.6955 13.3850
" />
<path d="M7.2355 12.1150
L12.3155 12.1150
" />
<path d="M7.2355 15.9250
L4.6955 15.9250
" />
<path d="M7.2355 16.5600
L7.2355 12.1150
" />
<path d="M16.1255 16.5600
L7.2355 16.5600
" />
<path d="M18.6655 10.2100
L14.8555 10.2100
" />
<path d="M18.6655 10.2100
L18.6655 14.0200
" />
<path d="M18.6655 10.8450
L21.2055 10.8450
" />
<path d="M21.2055 10.8450
L21.2055 13.3850
" />
<path d="M21.2055 13.3850
L18.6655 13.3850
" />
<path d="M12.3155 12.1150 A2.5400 2.5400 0.0 0 0 14.7796 10.1910" />
<path d="M16.1255 16.5600 A2.5400 2.5400 0.0 0 0 18.6655 14.0200" />
</g>
<g style="fill:none; 
stroke:#585D84; stroke-width:0.0212; stroke-opacity:1; 
stroke-linecap:round; stroke-linejoin:round;">
<circle cx="9.7755" cy="14.6550" r="1.5000" /> 
</g>
<g style="fill:none; 
stroke:#585D84; stroke-width:0.0212; stroke-opacity:1; 
stroke-linecap:round; stroke-linejoin:round;">
<circle cx="12.3155" cy="9.5750" r="2.0000" /> 
</g>
<g style="fill:none; 
stroke:#585D84; stroke-width:0.0212; stroke-opacity:1; 
stroke-linecap:round; stroke-linejoin:round;">
<circle cx="12.3155" cy="9.5750" r="2.0000" /> 
</g>
<g style="fill:none; 
stroke:#585D84; stroke-width:0.0212; stroke-opacity:1; 
stroke-linecap:round; stroke-linejoin:round;">
<circle cx="12.3155" cy="9.5750" r="2.0000" /> 
</g>
<g style="fill:none; 
stroke:#585D84; stroke-width:0.0212; stroke-opacity:1; 
stroke-linecap:round; stroke-linejoin:round;">
<circle cx="16.1255" cy="12.1150" r="1.5000" /> 
</g>
<g style="fill:none; 
stroke:#585D84; stroke-width:0.0389; stroke-opacity:1; 
stroke-linecap:round; stroke-linejoin:round;">
<text x="9.8155" y="17.3083"
textLength="0.4233" font-size="0.6222" lengthAdjust="spacingAndGlyphs"
text-anchor="middle" opacity="0" stroke-opacity="0">A</text>
<g class="stroked-text"><desc>A</desc>
<path d="M9.7044 17.1555
L9.9266 17.1555
" />
<path d="M9.6599 17.2889
L9.8155 16.8222
" />
<path d="M9.8155 16.8222
L9.9710 17.2889
" />
</g></g>
<g style="fill:none; 
stroke:#585D84; stroke-width:0.0212; stroke-opacity:1; 
stroke-linecap:round; stroke-linejoin:round;">
<path d="M9.6155 17.5750
L10.0155 17.5750
" />
<path d="M10.0155 17.5750 A0.5000 0.5000 0.0 0 0 10.0155 16.5750" />
<path d="M10.0155 16.5750
L9.6155 16.5750
" />
<path d="M9.6155 16.5750 A0.5000 0.5000 0.0 0 0 9.6155 17.5750" />
</g>
<g style="fill:none; 
stroke:#585D84; stroke-width:0.0389; stroke-opacity:1; 
stroke-linecap:round; stroke-linejoin:round;">
<text x="14.8155" y="17.3083"
textLength="0.4900" font-size="0.6222" lengthAdjust="spacingAndGlyphs"
text-anchor="middle" opacity="0" stroke-opacity="0">B</text>
<g class="stroked-text"><desc>B</desc>
<path d="M14.8488 17.0444
L14.9155 17.0666
" />
<path d="M14.9155 17.0666
L14.9377 17.0889
" />
<path d="M14.9377 17.0889
L14.9599 17.1333
" />
<path d="M14.9599 17.1333
L14.9599 17.2000
" />
<path d="M14.9599 17.2000
L14.9377 17.2444
" />
<path d="M14.9377 17.2444
L14.9155 17.2666
" />
<path d="M14.9155 17.2666
L14.8710 17.2889
" />
<path d="M14.8710 17.2889
L14.6933 17.2889
" />
<path d="M14.6933 17.2889
L14.6933 16.8222
" />
<path d="M14.6933 16.8222
L14.8488 16.8222
" />
<path d="M14.8488 16.8222
L14.8933 16.8444
" />
<path d="M14.8933 16.8444
L14.9155 16.8666
" />
<path d="M14.9155 16.8666
L14.9377 16.9111
" />
<path d="M14.9377 16.9111
L14.9377 16.9555
" />
<path d="M14.9377 16.9555
L14.9155 17.0000
" />
<path d="M14.9155 17.0000
L14.8933 17.0222
" />
<path d="M14.8933 17.0222
L14.8488 17.0444
" />
<path d="M14.8488 17.0444
L14.6933 17.0444
" />
</g></g>
<g style="fill:none; 
stroke:#585D84; stroke-width:0.0212; stroke-opacity:1; 
stroke-linecap:round; stroke-linejoin:round;">
<path d="M14.6155 17.5750
L15.0155 17.5750
" />
<path d="M15.0155 17.5750 A0.5000 0.5000 0.0 0 0 15.0155 16.5750" />
<path d="M15.0155 16.5750
L14.6155 16.5750
" />
<path d="M14.6155 16.5750 A0.5000 0.5000 0.0 0 0 14.6155 17.5750" />
</g>
<g style="fill:none; 
stroke:#585D84; stroke-width:0.0389; stroke-opacity:1; 
stroke-linecap:round; stroke-linejoin:round;">
<text x="12.3155" y="17.3083"
textLength="0.4900" font-size="0.6222" lengthAdjust="spacingAndGlyphs"
text-anchor="middle" opacity="0" stroke-opacity="0">C</text>
<g class="stroked-text"><desc>C</desc>
<path d="M12.4599 17.2444
L12.4377 17.2666
" />
<path d="M12.4377 17.2666
L12.3710 17.2889
" />
<path d="M12.3710 17.2889
L12.3266 17.2889
" />
<path d="M12.3266 17.2889
L12.2599 17.2666
" />
<path d="M12.2599 17.2666
L12.2155 17.2222
" />
<path d="M12.2155 17.2222
L12.1933 17.1778
" />
<path d="M12.1933 17.1778
L12.1710 17.0889
" />
<path d="M12.1710 17.0889
L12.1710 17.0222
" />
<path d="M12.1710 17.0222
L12.1933 16.9333
" />
<path d="M12.1933 16.9333
L12.2155 16.8889
" />
<path d="M12.2155 16.8889
L12.2599 16.8444
" />
<path d="M12.2599 16.8444
L12.3266 16.8222
" />
<path d="M12.3266 16.8222
L12.3710 16.8222
" />
<path d="M12.3710 16.8222
L12.4377 16.8444
" />
<path d="M12.4377 16.8444
L12.4599 16.8666
" />
</g></g>
<g style="fill:none; 
stroke:#585D84; stroke-width:0.0212; stroke-opacity:1; 
stroke-linecap:round; stroke-linejoin:round;">
<path d="M12.1155 17.5750
L12.5155 17.5750
" />
<path d="M12.5155 17.5750 A0.5000 0.5000 0.0 0 0 12.5155 16.5750" />
<path d="M12.5155 16.5750
L12.1155 16.5750
" />
<path d="M12.1155 16.5750 A0.5000 0.5000 0.0 0 0 12.1155 17.5750" />
</g>
<g style="fill:none; 
stroke:#585D84; stroke-width:0.0833; stroke-opacity:1; 
stroke-linecap:round; stroke-linejoin:round;">
<g transform="rotate(-90.000000 6.7855 9.5750)">
<text x="6.7855" y="10.0750"
textLength="2.1929" font-size="1.3333" lengthAdjust="spacingAndGlyphs"
text-anchor="middle" opacity="0" stroke-opacity="0">MP</text>
</g>
<g class="stroked-text"><desc>MP</desc>
<path d="M7.2438 10.4083
L6.2438 10.4083
" />
<path d="M6.2438 10.4083
L6.9580 10.0750
" />
<path d="M6.9580 10.0750
L6.2438 9.7417
" />
<path d="M6.2438 9.7417
L7.2438 9.7417
" />
<path d="M7.2438 9.2655
L6.2438 9.2655
" />
<path d="M6.2438 9.2655
L6.2438 8.8845
" />
<path d="M6.2438 8.8845
L6.2914 8.7893
" />
<path d="M6.2914 8.7893
L6.3390 8.7417
" />
<path d="M6.3390 8.7417
L6.4342 8.6940
" />
<path d="M6.4342 8.6940
L6.5771 8.6940
" />
<path d="M6.5771 8.6940
L6.6723 8.7417
" />
<path d="M6.6723 8.7417
L6.7200 8.7893
" />
<path d="M6.7200 8.7893
L6.7676 8.8845
" />
<path d="M6.7676 8.8845
L6.7676 9.2655
" />
</g><path style="fill:none; 
stroke:#585D84; stroke-width:0.0212; stroke-opacity:1; 
stroke-linecap:round; stroke-linejoin:round;fill:none"
d="M 5.7855,8.2750
5.8007,8.1985
5.8441,8.1336
5.9089,8.0902
5.9855,8.0750
7.1855,8.0750
7.7855,8.6750
7.7855,10.4750
7.1855,11.0750
5.9855,11.0750
5.9089,11.0598
5.8441,11.0164
5.8007,10.9515
5.7855,10.8750
Z" /> 
</g>
<g style="fill:none; 
stroke:#585D84; stroke-width:0.0833; stroke-opacity:1; 
stroke-linecap:round; stroke-linejoin:round;">
<g transform="rotate(-90.000000 17.8455 9.5750)">
<text x="17.8455" y="10.0750"
textLength="2.1929" font-size="1.3333" lengthAdjust="spacingAndGlyphs"
text-anchor="middle" opacity="0" stroke-opacity="0">MP</text>
</g>
<g class="stroked-text"><desc>MP</desc>
<path d="M18.3038 10.4083
L17.3038 10.4083
" />
<path d="M17.3038 10.4083
L18.0180 10.0750
" />
<path d="M18.0180 10.0750
L17.3038 9.7417
" />
<path d="M17.3038 9.7417
L18.3038 9.7417
" />
<path d="M18.3038 9.2655
L17.3038 9.2655
" />
<path d="M17.3038 9.2655
L17.3038 8.8845
" />
<path d="M17.3038 8.8845
L17.3514 8.7893
" />
<path d="M17.3514 8.7893
L17.3990 8.7417
" />
<path d="M17.3990 8.7417
L17.4942 8.6940
" />
<path d="M17.4942 8.6940
L17.6371 8.6940
" />
<path d="M17.6371 8.6940
L17.7323 8.7417
" />
<path d="M17.7323 8.7417
L17.7800 8.7893
" />
<path d="M17.7800 8.7893
L17.8276 8.8845
" />
<path d="M17.8276 8.8845
L17.8276 9.2655
" />
</g><path style="fill:none; 
stroke:#585D84; stroke-width:0.0212; stroke-opacity:1; 
stroke-linecap:round; stroke-linejoin:round;fill:none"
d="M 16.8455,10.3350
16.8455,8.6750
17.4455,8.0750
18.6455,8.0750
18.7255,8.0950
18.7855,8.1350
18.8255,8.1950
18.8455,8.2750
18.8455,10.4750
18.2455,11.0750
17.7255,11.0750
Z" /> 
</g>
<g style="fill:none; 
stroke:#585D84; stroke-width:0.0708; stroke-opacity:1; 
stroke-linecap:round; stroke-linejoin:round;">
<text x="6.0255" y="15.0800"
textLength="1.6615" font-size="1.1333" lengthAdjust="spacingAndGlyphs"
text-anchor="middle" opacity="0" stroke-opacity="0">S1</text>
<g class="stroked-text"><desc>S1</desc>
<path d="M5.3779 15.0041
L5.4993 15.0445
" />
<path d="M5.4993 15.0445
L5.7017 15.0445
" />
<path d="M5.7017 15.0445
L5.7826 15.0041
" />
<path d="M5.7826 15.0041
L5.8231 14.9636
" />
<path d="M5.8231 14.9636
L5.8636 14.8826
" />
<path d="M5.8636 14.8826
L5.8636 14.8017
" />
<path d="M5.8636 14.8017
L5.8231 14.7207
" />
<path d="M5.8231 14.7207
L5.7826 14.6803
" />
<path d="M5.7826 14.6803
L5.7017 14.6398
" />
<path d="M5.7017 14.6398
L5.5398 14.5993
" />
<path d="M5.5398 14.5993
L5.4588 14.5588
" />
<path d="M5.4588 14.5588
L5.4183 14.5184
" />
<path d="M5.4183 14.5184
L5.3779 14.4374
" />
<path d="M5.3779 14.4374
L5.3779 14.3564
" />
<path d="M5.3779 14.3564
L5.4183 14.2755
" />
<path d="M5.4183 14.2755
L5.4588 14.2350
" />
<path d="M5.4588 14.2350
L5.5398 14.1945
" />
<path d="M5.5398 14.1945
L5.7421 14.1945
" />
<path d="M5.7421 14.1945
L5.8636 14.2350
" />
<path d="M6.6731 15.0445
L6.1874 15.0445
" />
<path d="M6.4302 15.0445
L6.4302 14.1945
" />
<path d="M6.4302 14.1945
L6.3493 14.3160
" />
<path d="M6.3493 14.3160
L6.2683 14.3969
" />
<path d="M6.2683 14.3969
L6.1874 14.4374
" />
</g><path style="fill:none; 
stroke:#585D84; stroke-width:0.0212; stroke-opacity:1; 
stroke-linecap:round; stroke-linejoin:round;fill:none"
d="M 4.7505,13.6550
4.7695,13.5593
4.8237,13.4782
4.9048,13.4240
5.0005,13.4050
7.0505,13.4050
7.1461,13.4240
7.2273,13.4782
7.2814,13.5593
7.3005,13.6550
7.3005,15.6550
7.2814,15.7507
7.2273,15.8318
7.1461,15.8860
7.0505,15.9050
5.0005,15.9050
4.9048,15.8860
4.8237,15.8318
4.7695,15.7507
4.7505,15.6550
Z" /> 
</g>
<g style="fill:none; 
stroke:#585D84; stroke-width:0.0639; stroke-opacity:1; 
stroke-linecap:round; stroke-linejoin:round;">
<text x="8.5055" y="7.4183"
textLength="1.4987" font-size="1.0222" lengthAdjust="spacingAndGlyphs"
text-anchor="middle" opacity="0" stroke-opacity="0">S1</text>
<g class="stroked-text"><desc>S1</desc>
<path d="M7.9214 7.3498
L8.0309 7.3864
" />
<path d="M8.0309 7.3864
L8.2134 7.3864
" />
<path d="M8.2134 7.3864
L8.2864 7.3498
" />
<path d="M8.2864 7.3498
L8.3229 7.3133
" />
<path d="M8.3229 7.3133
L8.3594 7.2403
" />
<path d="M8.3594 7.2403
L8.3594 7.1673
" />
<path d="M8.3594 7.1673
L8.3229 7.0943
" />
<path d="M8.3229 7.0943
L8.2864 7.0578
" />
<path d="M8.2864 7.0578
L8.2134 7.0213
" />
<path d="M8.2134 7.0213
L8.0674 6.9848
" />
<path d="M8.0674 6.9848
L7.9944 6.9483
" />
<path d="M7.9944 6.9483
L7.9579 6.9117
" />
<path d="M7.9579 6.9117
L7.9214 6.8387
" />
<path d="M7.9214 6.8387
L7.9214 6.7657
" />
<path d="M7.9214 6.7657
L7.9579 6.6927
" />
<path d="M7.9579 6.6927
L7.9944 6.6562
" />
<path d="M7.9944 6.6562
L8.0674 6.6197
" />
<path d="M8.0674 6.6197
L8.2499 6.6197
" />
<path d="M8.2499 6.6197
L8.3594 6.6562
" />
<path d="M9.0896 7.3864
L8.6515 7.3864
" />
<path d="M8.8706 7.3864
L8.8706 6.6197
" />
<path d="M8.8706 6.6197
L8.7975 6.7292
" />
<path d="M8.7975 6.7292
L8.7245 6.8022
" />
<path d="M8.7245 6.8022
L8.6515 6.8387
" />
</g></g>
<g style="fill:none; 
stroke:#585D84; stroke-width:0.0212; stroke-opacity:1; 
stroke-linecap:round; stroke-linejoin:round;">
<circle cx="8.5055" cy="7.0350" r="1.1500" /> 
</g>
<g style="fill:none; 
stroke:#585D84; stroke-width:0.0389; stroke-opacity:1; 
stroke-linecap:round; stroke-linejoin:round;">
<text x="9.8155" y="2.8083"
textLength="0.9122" font-size="0.6222" lengthAdjust="spacingAndGlyphs"
text-anchor="middle" opacity="0" stroke-opacity="0">S1</text>
<g class="stroked-text"><desc>S1</desc>
<path d="M9.4599 2.7666
L9.5266 2.7889
" />
<path d="M9.5266 2.7889
L9.6377 2.7889
" />
<path d="M9.6377 2.7889
L9.6821 2.7666
" />
<path d="M9.6821 2.7666
L9.7044 2.7444
" />
<path d="M9.7044 2.7444
L9.7266 2.7000
" />
<path d="M9.7266 2.7000
L9.7266 2.6555
" />
<path d="M9.7266 2.6555
L9.7044 2.6111
" />
<path d="M9.7044 2.6111
L9.6821 2.5889
" />
<path d="M9.6821 2.5889
L9.6377 2.5666
" />
<path d="M9.6377 2.5666
L9.5488 2.5444
" />
<path d="M9.5488 2.5444
L9.5044 2.5222
" />
<path d="M9.5044 2.5222
L9.4821 2.5000
" />
<path d="M9.4821 2.5000
L9.4599 2.4555
" />
<path d="M9.4599 2.4555
L9.4599 2.4111
" />
<path d="M9.4599 2.4111
L9.4821 2.3666
" />
<path d="M9.4821 2.3666
L9.5044 2.3444
" />
<path d="M9.5044 2.3444
L9.5488 2.3222
" />
<path d="M9.5488 2.3222
L9.6599 2.3222
" />
<path d="M9.6599 2.3222
L9.7266 2.3444
" />
<path d="M10.1710 2.7889
L9.9044 2.7889
" />
<path d="M10.0377 2.7889
L10.0377 2.3222
" />
<path d="M10.0377 2.3222
L9.9933 2.3889
" />
<path d="M9.9933 2.3889
L9.9488 2.4333
" />
<path d="M9.9488 2.4333
L9.9044 2.4555
" />
</g></g>
<g style="fill:none; 
stroke:#585D84; stroke-width:0.0212; stroke-opacity:1; 
stroke-linecap:round; stroke-linejoin:round;">
<path d="M9.6155 3.0750
L10.0155 3.0750
" />
<path d="M10.0155 3.0750 A0.5000 0.5000 0.0 0 0 10.0155 2.0750" />
<path d="M10.0155 2.0750
L9.6155 2.0750
" />
<path d="M9.6155 2.0750 A0.5000 0.5000 0.0 0 0 9.6155 3.0750" />
</g>
<g style="fill:none; 
stroke:#585D84; stroke-width:0.0389; stroke-opacity:1; 
stroke-linecap:round; stroke-linejoin:round;">
<text x="14.8155" y="2.8083"
textLength="0.9122" font-size="0.6222" lengthAdjust="spacingAndGlyphs"
text-anchor="middle" opacity="0" stroke-opacity="0">S2</text>
<g class="stroked-text"><desc>S2</desc>
<path d="M14.4599 2.7666
L14.5266 2.7889
" />
<path d="M14.5266 2.7889
L14.6377 2.7889
" />
<path d="M14.6377 2.7889
L14.6821 2.7666
" />
<path d="M14.6821 2.7666
L14.7044 2.7444
" />
<path d="M14.7044 2.7444
L14.7266 2.7000
" />
<path d="M14.7266 2.7000
L14.7266 2.6555
" />
<path d="M14.7266 2.6555
L14.7044 2.6111
" />
<path d="M14.7044 2.6111
L14.6821 2.5889
" />
<path d="M14.6821 2.5889
L14.6377 2.5666
" />
<path d="M14.6377 2.5666
L14.5488 2.5444
" />
<path d="M14.5488 2.5444
L14.5044 2.5222
" />
<path d="M14.5044 2.5222
L14.4821 2.5000
" />
<path d="M14.4821 2.5000
L14.4599 2.4555
" />
<path d="M14.4599 2.4555
L14.4599 2.4111
" />
<path d="M14.4599 2.4111
L14.4821 2.3666
" />
<path d="M14.4821 2.3666
L14.5044 2.3444
" />
<path d="M14.5044 2.3444
L14.5488 2.3222
" />
<path d="M14.5488 2.3222
L14.6599 2.3222
" />
<path d="M14.6599 2.3222
L14.7266 2.3444
" />
<path d="M14.9044 2.3666
L14.9266 2.3444
" />
<path d="M14.9266 2.3444
L14.9710 2.3222
" />
<path d="M14.9710 2.3222
L15.0821 2.3222
" />
<path d="M15.0821 2.3222
L15.1266 2.3444
" />
<path d="M15.1266 2.3444
L15.1488 2.3666
" />
<path d="M15.1488 2.3666
L15.1710 2.4111
" />
<path d="M15.1710 2.4111
L15.1710 2.4555
" />
<path d="M15.1710 2.4555
L15.1488 2.5222
" />
<path d="M15.1488 2.5222
L14.8821 2.7889
" />
<path d="M14.8821 2.7889
L15.1710 2.7889
" />
</g></g>
<g style="fill:none; 
stroke:#585D84; stroke-width:0.0212; stroke-opacity:1; 
stroke-linecap:round; stroke-linejoin:round;">
<path d="M14.6155 3.0750
L15.0155 3.0750
" />
<path d="M15.0155 3.0750 A0.5000 0.5000 0.0 0 0 15.0155 2.0750" />
<path d="M15.0155 2.0750
L14.6155 2.0750
" />
<path d="M14.6155 2.0750 A0.5000 0.5000 0.0 0 0 14.6155 3.0750" />
</g>
<g style="fill:none; 
stroke:#585D84; stroke-width:0.0639; stroke-opacity:1; 
stroke-linecap:round; stroke-linejoin:round;">
<text x="14.8555" y="4.8783"
textLength="1.4987" font-size="1.0222" lengthAdjust="spacingAndGlyphs"
text-anchor="middle" opacity="0" stroke-opacity="0">S2</text>
<g class="stroked-text"><desc>S2</desc>
<path d="M14.2713 4.8098
L14.3809 4.8464
" />
<path d="M14.3809 4.8464
L14.5634 4.8464
" />
<path d="M14.5634 4.8464
L14.6364 4.8098
" />
<path d="M14.6364 4.8098
L14.6729 4.7733
" />
<path d="M14.6729 4.7733
L14.7094 4.7003
" />
<path d="M14.7094 4.7003
L14.7094 4.6273
" />
<path d="M14.7094 4.6273
L14.6729 4.5543
" />
<path d="M14.6729 4.5543
L14.6364 4.5178
" />
<path d="M14.6364 4.5178
L14.5634 4.4813
" />
<path d="M14.5634 4.4813
L14.4174 4.4448
" />
<path d="M14.4174 4.4448
L14.3444 4.4083
" />
<path d="M14.3444 4.4083
L14.3079 4.3717
" />
<path d="M14.3079 4.3717
L14.2713 4.2987
" />
<path d="M14.2713 4.2987
L14.2713 4.2257
" />
<path d="M14.2713 4.2257
L14.3079 4.1527
" />
<path d="M14.3079 4.1527
L14.3444 4.1162
" />
<path d="M14.3444 4.1162
L14.4174 4.0797
" />
<path d="M14.4174 4.0797
L14.5999 4.0797
" />
<path d="M14.5999 4.0797
L14.7094 4.1162
" />
<path d="M15.0015 4.1527
L15.0380 4.1162
" />
<path d="M15.0380 4.1162
L15.1110 4.0797
" />
<path d="M15.1110 4.0797
L15.2936 4.0797
" />
<path d="M15.2936 4.0797
L15.3666 4.1162
" />
<path d="M15.3666 4.1162
L15.4031 4.1527
" />
<path d="M15.4031 4.1527
L15.4396 4.2257
" />
<path d="M15.4396 4.2257
L15.4396 4.2987
" />
<path d="M15.4396 4.2987
L15.4031 4.4083
" />
<path d="M15.4031 4.4083
L14.9650 4.8464
" />
<path d="M14.9650 4.8464
L15.4396 4.8464
" />
</g></g>
<g style="fill:none; 
stroke:#585D84; stroke-width:0.0212; stroke-opacity:1; 
stroke-linecap:round; stroke-linejoin:round;">
<circle cx="14.8555" cy="4.4950" r="1.1500" /> 
</g>
<g style="fill:none; 
stroke:#585D84; stroke-width:0.0708; stroke-opacity:1; 
stroke-linecap:round; stroke-linejoin:round;">
<text x="19.8755" y="12.5400"
textLength="1.6615" font-size="1.1333" lengthAdjust="spacingAndGlyphs"
text-anchor="middle" opacity="0" stroke-opacity="0">S2</text>
<g class="stroked-text"><desc>S2</desc>
<path d="M19.2279 12.4641
L19.3493 12.5045
" />
<path d="M19.3493 12.5045
L19.5517 12.5045
" />
<path d="M19.5517 12.5045
L19.6326 12.4641
" />
<path d="M19.6326 12.4641
L19.6731 12.4236
" />
<path d="M19.6731 12.4236
L19.7136 12.3426
" />
<path d="M19.7136 12.3426
L19.7136 12.2617
" />
<path d="M19.7136 12.2617
L19.6731 12.1807
" />
<path d="M19.6731 12.1807
L19.6326 12.1403
" />
<path d="M19.6326 12.1403
L19.5517 12.0998
" />
<path d="M19.5517 12.0998
L19.3898 12.0593
" />
<path d="M19.3898 12.0593
L19.3088 12.0188
" />
<path d="M19.3088 12.0188
L19.2683 11.9784
" />
<path d="M19.2683 11.9784
L19.2279 11.8974
" />
<path d="M19.2279 11.8974
L19.2279 11.8164
" />
<path d="M19.2279 11.8164
L19.2683 11.7355
" />
<path d="M19.2683 11.7355
L19.3088 11.6950
" />
<path d="M19.3088 11.6950
L19.3898 11.6545
" />
<path d="M19.3898 11.6545
L19.5921 11.6545
" />
<path d="M19.5921 11.6545
L19.7136 11.6950
" />
<path d="M20.0374 11.7355
L20.0779 11.6950
" />
<path d="M20.0779 11.6950
L20.1588 11.6545
" />
<path d="M20.1588 11.6545
L20.3612 11.6545
" />
<path d="M20.3612 11.6545
L20.4421 11.6950
" />
<path d="M20.4421 11.6950
L20.4826 11.7355
" />
<path d="M20.4826 11.7355
L20.5231 11.8164
" />
<path d="M20.5231 11.8164
L20.5231 11.8974
" />
<path d="M20.5231 11.8974
L20.4826 12.0188
" />
<path d="M20.4826 12.0188
L19.9969 12.5045
" />
<path d="M19.9969 12.5045
L20.5231 12.5045
" />
</g><path style="fill:none; 
stroke:#585D84; stroke-width:0.0212; stroke-opacity:1; 
stroke-linecap:round; stroke-linejoin:round;fill:none"
d="M 18.6005,11.1150
18.6195,11.0193
18.6737,10.9382
18.7548,10.8840
18.8505,10.8650
20.9005,10.8650
20.9961,10.8840
21.0773,10.9382
21.1314,11.0193
21.1505,11.1150
21.1505,13.1150
21.1314,13.2107
21.0773,13.2918
20.9961,13.3460
20.9005,13.3650
18.8505,13.3650
18.7548,13.3460
18.6737,13.2918
18.6195,13.2107
18.6005,13.1150
Z" /> 
<path style="fill:none; 
stroke:#AFAFAF; stroke-width:0.1000; stroke-opacity:1; 
stroke-linecap:round; stroke-linejoin:round;fill:none"
d="M 5.3155,2.5750
19.3155,2.5750
19.3155,16.5750
5.3155,16.5750
Z" /> 
</g>
<g style="fill:none; 
stroke:#AFAFAF; stroke-width:0.0212; stroke-opacity:1; 
stroke-linecap:round; stroke-linejoin:round;">
<circle cx="9.7755" cy="14.6550" r="1.5000" /> 
</g>
<g style="fill:none; 
stroke:#AFAFAF; stroke-width:0.0212; stroke-opacity:1; 
stroke-linecap:round; stroke-linejoin:round;">
<circle cx="12.3155" cy="9.5750" r="2.0000" /> 
</g>
<g style="fill:none; 
stroke:#AFAFAF; stroke-width:0.0212; stroke-opacity:1; 
stroke-linecap:round; stroke-linejoin:round;">
<circle cx="12.3155" cy="9.5750" r="2.0000" /> 
</g>
<g style="fill:none; 
stroke:#AFAFAF; stroke-width:0.0212; stroke-opacity:1; 
stroke-linecap:round; stroke-linejoin:round;">
<circle cx="12.3155" cy="9.5750" r="2.0000" /> 
</g>
<g style="fill:none; 
stroke:#AFAFAF; stroke-width:0.0212; stroke-opacity:1; 
stroke-linecap:round; stroke-linejoin:round;">
<circle cx="16.1255" cy="12.1150" r="1.5000" /> 
</g>
<g style="fill:none; 
stroke:#AFAFAF; stroke-width:0.0389; stroke-opacity:1; 
stroke-linecap:round; stroke-linejoin:round;">
<text x="9.8155" y="17.3083"
textLength="0.4233" font-size="0.6222" lengthAdjust="spacingAndGlyphs"
text-anchor="middle" opacity="0" stroke-opacity="0">A</text>
<g class="stroked-text"><desc>A</desc>
<path d="M9.7044 17.1555
L9.9266 17.1555
" />
<path d="M9.6599 17.2889
L9.8155 16.8222
" />
<path d="M9.8155 16.8222
L9.9710 17.2889
" />
</g></g>
<g style="fill:none; 
stroke:#AFAFAF; stroke-width:0.0212; stroke-opacity:1; 
stroke-linecap:round; stroke-linejoin:round;">
<path d="M9.6155 17.5750
L10.0155 17.5750
" />
<path d="M10.0155 17.5750 A0.5000 0.5000 0.0 0 0 10.0155 16.5750" />
<path d="M10.0155 16.5750
L9.6155 16.5750
" />
<path d="M9.6155 16.5750 A0.5000 0.5000 0.0 0 0 9.6155 17.5750" />
</g>
<g style="fill:none; 
stroke:#AFAFAF; stroke-width:0.0389; stroke-opacity:1; 
stroke-linecap:round; stroke-linejoin:round;">
<text x="14.8155" y="17.3083"
textLength="0.4900" font-size="0.6222" lengthAdjust="spacingAndGlyphs"
text-anchor="middle" opacity="0" stroke-opacity="0">B</text>
<g class="stroked-text"><desc>B</desc>
<path d="M14.8488 17.0444
L14.9155 17.0666
" />
<path d="M14.9155 17.0666
L14.9377 17.0889
" />
<path d="M14.9377 17.0889
L14.9599 17.1333
" />
<path d="M14.9599 17.1333
L14.9599 17.2000
" />
<path d="M14.9599 17.2000
L14.9377 17.2444
" />
<path d="M14.9377 17.2444
L14.9155 17.2666
" />
<path d="M14.9155 17.2666
L14.8710 17.2889
" />
<path d="M14.8710 17.2889
L14.6933 17.2889
" />
<path d="M14.6933 17.2889
L14.6933 16.8222
" />
<path d="M14.6933 16.8222
L14.8488 16.8222
" />
<path d="M14.8488 16.8222
L14.8933 16.8444
" />
<path d="M14.8933 16.8444
L14.9155 16.8666
" />
<path d="M14.9155 16.8666
L14.9377 16.9111
" />
<path d="M14.9377 16.9111
L14.9377 16.9555
" />
<path d="M14.9377 16.9555
L14.9155 17.0000
" />
<path d="M14.9155 17.0000
L14.8933 17.0222
" />
<path d="M14.8933 17.0222
L14.8488 17.0444
" />
<path d="M14.8488 17.0444
L14.6933 17.0444
" />
</g></g>
<g style="fill:none; 
stroke:#AFAFAF; stroke-width:0.0212; stroke-opacity:1; 
stroke-linecap:round; stroke-linejoin:round;">
<path d="M14.6155 17.5750
L15.0155 17.5750
" />
<path d="M15.0155 17.5750 A0.5000 0.5000 0.0 0 0 15.0155 16.5750" />
<path d="M15.0155 16.5750
L14.6155 16.5750
" />
<path d="M14.6155 16.5750 A0.5000 0.5000 0.0 0 0 14.6155 17.5750" />
</g>
<g style="fill:none; 
stroke:#AFAFAF; stroke-width:0.0389; stroke-opacity:1; 
stroke-linecap:round; stroke-linejoin:round;">
<text x="12.3155" y="17.3083"
textLength="0.4900" font-size="0.6222" lengthAdjust="spacingAndGlyphs"
text-anchor="middle" opacity="0" stroke-opacity="0">C</text>
<g class="stroked-text"><desc>C</desc>
<path d="M12.4599 17.2444
L12.4377 17.2666
" />
<path d="M12.4377 17.2666
L12.3710 17.2889
" />
<path d="M12.3710 17.2889
L12.3266 17.2889
" />
<path d="M12.3266 17.2889
L12.2599 17.2666
" />
<path d="M12.2599 17.2666
L12.2155 17.2222
" />
<path d="M12.2155 17.2222
L12.1933 17.1778
" />
<path d="M12.1933 17.1778
L12.1710 17.0889
" />
<path d="M12.1710 17.0889
L12.1710 17.0222
" />
<path d="M12.1710 17.0222
L12.1933 16.9333
" />
<path d="M12.1933 16.9333
L12.2155 16.8889
" />
<path d="M12.2155 16.8889
L12.2599 16.8444
" />
<path d="M12.2599 16.8444
L12.3266 16.8222
" />
<path d="M12.3266 16.8222
L12.3710 16.8222
" />
<path d="M12.3710 16.8222
L12.4377 16.8444
" />
<path d="M12.4377 16.8444
L12.4599 16.8666
" />
</g></g>
<g style="fill:none; 
stroke:#AFAFAF; stroke-width:0.0212; stroke-opacity:1; 
stroke-linecap:round; stroke-linejoin:round;">
<path d="M12.1155 17.5750
L12.5155 17.5750
" />
<path d="M12.5155 17.5750 A0.5000 0.5000 0.0 0 0 12.5155 16.5750" />
<path d="M12.5155 16.5750
L12.1155 16.5750
" />
<path d="M12.1155 16.5750 A0.5000 0.5000 0.0 0 0 12.1155 17.5750" />
</g>
<g style="fill:none; 
stroke:#AFAFAF; stroke-width:0.0833; stroke-opacity:1; 
stroke-linecap:round; stroke-linejoin:round;">
<g transform="rotate(-90.000000 6.7855 9.5750)">
<text x="6.7855" y="10.0750"
textLength="2.1929" font-size="1.3333" lengthAdjust="spacingAndGlyphs"
text-anchor="middle" opacity="0" stroke-opacity="0">MP</text>
</g>
<g class="stroked-text"><desc>MP</desc>
<path d="M7.2438 10.4083
L6.2438 10.4083
" />
<path d="M6.2438 10.4083
L6.9580 10.0750
" />
<path d="M6.9580 10.0750
L6.2438 9.7417
" />
<path d="M6.2438 9.7417
L7.2438 9.7417
" />
<path d="M7.2438 9.2655
L6.2438 9.2655
" />
<path d="M6.2438 9.2655
L6.2438 8.8845
" />
<path d="M6.2438 8.8845
L6.2914 8.7893
" />
<path d="M6.2914 8.7893
L6.3390 8.7417
" />
<path d="M6.3390 8.7417
L6.4342 8.6940
" />
<path d="M6.4342 8.6940
L6.5771 8.6940
" />
<path d="M6.5771 8.6940
L6.6723 8.7417
" />
<path d="M6.6723 8.7417
L6.7200 8.7893
" />
<path d="M6.7200 8.7893
L6.7676 8.8845
" />
<path d="M6.7676 8.8845
L6.7676 9.2655
" />
</g><path style="fill:none; 
stroke:#AFAFAF; stroke-width:0.0212; stroke-opacity:1; 
stroke-linecap:round; stroke-linejoin:round;fill:none"
d="M 5.7855,8.2750
5.8007,8.1985
5.8441,8.1336
5.9089,8.0902
5.9855,8.0750
7.1855,8.0750
7.7855,8.6750
7.7855,10.4750
7.1855,11.0750
5.9855,11.0750
5.9089,11.0598
5.8441,11.0164
5.8007,10.9515
5.7855,10.8750
Z" /> 
</g>
<g style="fill:none; 
stroke:#AFAFAF; stroke-width:0.0833; stroke-opacity:1; 
stroke-linecap:round; stroke-linejoin:round;">
<g transform="rotate(-90.000000 17.8455 9.5750)">
<text x="17.8455" y="10.0750"
textLength="2.1929" font-size="1.3333" lengthAdjust="spacingAndGlyphs"
text-anchor="middle" opacity="0" stroke-opacity="0">MP</text>
</g>
<g class="stroked-text"><desc>MP</desc>
<path d="M18.3038 10.4083
L17.3038 10.4083
" />
<path d="M17.3038 10.4083
L18.0180 10.0750
" />
<path d="M18.0180 10.0750
L17.3038 9.7417
" />
<path d="M17.3038 9.7417
L18.3038 9.7417
" />
<path d="M18.3038 9.2655
L17.3038 9.2655
" />
<path d="M17.3038 9.2655
L17.3038 8.8845
" />
<path d="M17.3038 8.8845
L17.3514 8.7893
" />
<path d="M17.3514 8.7893
L17.3990 8.7417
" />
<path d="M17.3990 8.7417
L17.4942 8.6940
" />
<path d="M17.4942 8.6940
L17.6371 8.6940
" />
<path d="M17.6371 8.6940
L17.7323 8.7417
" />
<path d="M17.7323 8.7417
L17.7800 8.7893
" />
<path d="M17.7800 8.7893
L17.8276 8.8845
" />
<path d="M17.8276 8.8845
L17.8276 9.2655
" />
</g><path style="fill:none; 
stroke:#AFAFAF; stroke-width:0.0212; stroke-opacity:1; 
stroke-linecap:round; stroke-linejoin:round;fill:none"
d="M 16.8455,10.3350
16.8455,8.6750
17.4455,8.0750
18.6455,8.0750
18.7255,8.0950
18.7855,8.1350
18.8255,8.1950
18.8455,8.2750
18.8455,10.4750
18.2455,11.0750
17.7255,11.0750
Z" /> 
</g>
<g style="fill:none; 
stroke:#AFAFAF; stroke-width:0.0639; stroke-opacity:1; 
stroke-linecap:round; stroke-linejoin:round;">
<text x="8.5055" y="7.4183"
textLength="1.4987" font-size="1.0222" lengthAdjust="spacingAndGlyphs"
text-anchor="middle" opacity="0" stroke-opacity="0">S1</text>
<g class="stroked-text"><desc>S1</desc>
<path d="M7.9214 7.3498
L8.0309 7.3864
" />
<path d="M8.0309 7.3864
L8.2134 7.3864
" />
<path d="M8.2134 7.3864
L8.2864 7.3498
" />
<path d="M8.2864 7.3498
L8.3229 7.3133
" />
<path d="M8.3229 7.3133
L8.3594 7.2403
" />
<path d="M8.3594 7.2403
L8.3594 7.1673
" />
<path d="M8.3594 7.1673
L8.3229 7.0943
" />
<path d="M8.3229 7.0943
L8.2864 7.0578
" />
<path d="M8.2864 7.0578
L8.2134 7.0213
" />
<path d="M8.2134 7.0213
L8.0674 6.9848
" />
<path d="M8.0674 6.9848
L7.9944 6.9483
" />
<path d="M7.9944 6.9483
L7.9579 6.9117
" />
<path d="M7.9579 6.9117
L7.9214 6.8387
" />
<path d="M7.9214 6.8387
L7.9214 6.7657
" />
<path d="M7.9214 6.7657
L7.9579 6.6927
" />
<path d="M7.9579 6.6927
L7.9944 6.6562
" />
<path d="M7.9944 6.6562
L8.0674 6.6197
" />
<path d="M8.0674 6.6197
L8.2499 6.6197
" />
<path d="M8.2499 6.6197
L8.3594 6.6562
" />
<path d="M9.0896 7.3864
L8.6515 7.3864
" />
<path d="M8.8706 7.3864
L8.8706 6.6197
" />
<path d="M8.8706 6.6197
L8.7975 6.7292
" />
<path d="M8.7975 6.7292
L8.7245 6.8022
" />
<path d="M8.7245 6.8022
L8.6515 6.8387
" />
</g></g>
<g style="fill:none; 
stroke:#AFAFAF; stroke-width:0.0212; stroke-opacity:1; 
stroke-linecap:round; stroke-linejoin:round;">
<circle cx="8.5055" cy="7.0350" r="1.1500" /> 
</g>
<g style="fill:none; 
stroke:#AFAFAF; stroke-width:0.0389; stroke-opacity:1; 
stroke-linecap:round; stroke-linejoin:round;">
<text x="9.8155" y="2.8083"
textLength="0.9122" font-size="0.6222" lengthAdjust="spacingAndGlyphs"
text-anchor="middle" opacity="0" stroke-opacity="0">S1</text>
<g class="stroked-text"><desc>S1</desc>
<path d="M9.4599 2.7666
L9.5266 2.7889
" />
<path d="M9.5266 2.7889
L9.6377 2.7889
" />
<path d="M9.6377 2.7889
L9.6821 2.7666
" />
<path d="M9.6821 2.7666
L9.7044 2.7444
" />
<path d="M9.7044 2.7444
L9.7266 2.7000
" />
<path d="M9.7266 2.7000
L9.7266 2.6555
" />
<path d="M9.7266 2.6555
L9.7044 2.6111
" />
<path d="M9.7044 2.6111
L9.6821 2.5889
" />
<path d="M9.6821 2.5889
L9.6377 2.5666
" />
<path d="M9.6377 2.5666
L9.5488 2.5444
" />
<path d="M9.5488 2.5444
L9.5044 2.5222
" />
<path d="M9.5044 2.5222
L9.4821 2.5000
" />
<path d="M9.4821 2.5000
L9.4599 2.4555
" />
<path d="M9.4599 2.4555
L9.4599 2.4111
" />
<path d="M9.4599 2.4111
L9.4821 2.3666
" />
<path d="M9.4821 2.3666
L9.5044 2.3444
" />
<path d="M9.5044 2.3444
L9.5488 2.3222
" />
<path d="M9.5488 2.3222
L9.6599 2.3222
" />
<path d="M9.6599 2.3222
L9.7266 2.3444
" />
<path d="M10.1710 2.7889
L9.9044 2.7889
" />
<path d="M10.0377 2.7889
L10.0377 2.3222
" />
<path d="M10.0377 2.3222
L9.9933 2.3889
" />
<path d="M9.9933 2.3889
L9.9488 2.4333
" />
<path d="M9.9488 2.4333
L9.9044 2.4555
" />
</g></g>
<g style="fill:none; 
stroke:#AFAFAF; stroke-width:0.0212; stroke-opacity:1; 
stroke-linecap:round; stroke-linejoin:round;">
<path d="M9.6155 3.0750
L10.0155 3.0750
" />
<path d="M10.0155 3.0750 A0.5000 0.5000 0.0 0 0 10.0155 2.0750" />
<path d="M10.0155 2.0750
L9.6155 2.0750
" />
<path d="M9.6155 2.0750 A0.5000 0.5000 0.0 0 0 9.6155 3.0750" />
</g>
<g style="fill:none; 
stroke:#AFAFAF; stroke-width:0.0389; stroke-opacity:1; 
stroke-linecap:round; stroke-linejoin:round;">
<text x="14.8155" y="2.8083"
textLength="0.9122" font-size="0.6222" lengthAdjust="spacingAndGlyphs"
text-anchor="middle" opacity="0" stroke-opacity="0">S2</text>
<g class="stroked-text"><desc>S2</desc>
<path d="M14.4599 2.7666
L14.5266 2.7889
" />
<path d="M14.5266 2.7889
L14.6377 2.7889
" />
<path d="M14.6377 2.7889
L14.6821 2.7666
" />
<path d="M14.6821 2.7666
L14.7044 2.7444
" />
<path d="M14.7044 2.7444
L14.7266 2.7000
" />
<path d="M14.7266 2.7000
L14.7266 2.6555
" />
<path d="M14.7266 2.6555
L14.7044 2.6111
" />
<path d="M14.7044 2.6111
L14.6821 2.5889
" />
<path d="M14.6821 2.5889
L14.6377 2.5666
" />
<path d="M14.6377 2.5666
L14.5488 2.5444
" />
<path d="M14.5488 2.5444
L14.5044 2.5222
" />
<path d="M14.5044 2.5222
L14.4821 2.5000
" />
<path d="M14.4821 2.5000
L14.4599 2.4555
" />
<path d="M14.4599 2.4555
L14.4599 2.4111
" />
<path d="M14.4599 2.4111
L14.4821 2.3666
" />
<path d="M14.4821 2.3666
L14.5044 2.3444
" />
<path d="M14.5044 2.3444
L14.5488 2.3222
" />
<path d="M14.5488 2.3222
L14.6599 2.3222
" />
<path d="M14.6599 2.3222
L14.7266 2.3444
" />
<path d="M14.9044 2.3666
L14.9266 2.3444
" />
<path d="M14.9266 2.3444
L14.9710 2.3222
" />
<path d="M14.9710 2.3222
L15.0821 2.3222
" />
<path d="M15.0821 2.3222
L15.1266 2.3444
" />
<path d="M15.1266 2.3444
L15.1488 2.3666
" />
<path d="M15.1488 2.3666
L15.1710 2.4111
" />
<path d="M15.1710 2.4111
L15.1710 2.4555
" />
<path d="M15.1710 2.4555
L15.1488 2.5222
" />
<path d="M15.1488 2.5222
L14.8821 2.7889
" />
<path d="M14.8821 2.7889
L15.1710 2.7889
" />
</g></g>
<g style="fill:none; 
stroke:#AFAFAF; stroke-width:0.0212; stroke-opacity:1; 
stroke-linecap:round; stroke-linejoin:round;">
<path d="M14.6155 3.0750
L15.0155 3.0750
" />
<path d="M15.0155 3.0750 A0.5000 0.5000 0.0 0 0 15.0155 2.0750" />
<path d="M15.0155 2.0750
L14.6155 2.0750
" />
<path d="M14.6155 2.0750 A0.5000 0.5000 0.0 0 0 14.6155 3.0750" />
</g>
<g style="fill:none; 
stroke:#AFAFAF; stroke-width:0.0639; stroke-opacity:1; 
stroke-linecap:round; stroke-linejoin:round;">
<text x="14.8555" y="4.8783"
textLength="1.4987" font-size="1.0222" lengthAdjust="spacingAndGlyphs"
text-anchor="middle" opacity="0" stroke-opacity="0">S2</text>
<g class="stroked-text"><desc>S2</desc>
<path d="M14.2713 4.8098
L14.3809 4.8464
" />
<path d="M14.3809 4.8464
L14.5634 4.8464
" />
<path d="M14.5634 4.8464
L14.6364 4.8098
" />
<path d="M14.6364 4.8098
L14.6729 4.7733
" />
<path d="M14.6729 4.7733
L14.7094 4.7003
" />
<path d="M14.7094 4.7003
L14.7094 4.6273
" />
<path d="M14.7094 4.6273
L14.6729 4.5543
" />
<path d="M14.6729 4.5543
L14.6364 4.5178
" />
<path d="M14.6364 4.5178
L14.5634 4.4813
" />
<path d="M14.5634 4.4813
L14.4174 4.4448
" />
<path d="M14.4174 4.4448
L14.3444 4.4083
" />
<path d="M14.3444 4.4083
L14.3079 4.3717
" />
<path d="M14.3079 4.3717
L14.2713 4.2987
" />
<path d="M14.2713 4.2987
L14.2713 4.2257
" />
<path d="M14.2713 4.2257
L14.3079 4.1527
" />
<path d="M14.3079 4.1527
L14.3444 4.1162
" />
<path d="M14.3444 4.1162
L14.4174 4.0797
" />
<path d="M14.4174 4.0797
L14.5999 4.0797
" />
<path d="M14.5999 4.0797
L14.7094 4.1162
" />
<path d="M15.0015 4.1527
L15.0380 4.1162
" />
<path d="M15.0380 4.1162
L15.1110 4.0797
" />
<path d="M15.1110 4.0797
L15.2936 4.0797
" />
<path d="M15.2936 4.0797
L15.3666 4.1162
" />
<path d="M15.3666 4.1162
L15.4031 4.1527
" />
<path d="M15.4031 4.1527
L15.4396 4.2257
" />
<path d="M15.4396 4.2257
L15.4396 4.2987
" />
<path d="M15.4396 4.2987
L15.4031 4.4083
" />
<path d="M15.4031 4.4083
L14.9650 4.8464
" />
<path d="M14.9650 4.8464
L15.4396 4.8464
" />
</g></g>
<g style="fill:none; 
stroke:#AFAFAF; stroke-width:0.0212; stroke-opacity:1; 
stroke-linecap:round; stroke-linejoin:round;">
<circle cx="14.8555" cy="4.4950" r="1.1500" /> 
<path style="fill:none; 
stroke:#C2C2C2; stroke-width:0.1000; stroke-opacity:1; 
stroke-linecap:round; stroke-linejoin:round;fill:none"
d="M 2.7905,0.0500
21.8405,0.0500
21.8405,19.1000
2.7905,19.1000
Z" /> 
</g> 
</svg>
