<?xml version="1.0" standalone="no"?>
 <!DOCTYPE svg PUBLIC "-//W3C//DTD SVG 1.1//EN" 
 "http://www.w3.org/Graphics/SVG/1.1/DTD/svg11.dtd"> 
<svg
  xmlns:svg="http://www.w3.org/2000/svg"
  xmlns="http://www.w3.org/2000/svg"
  xmlns:xlink="http://www.w3.org/1999/xlink"
  version="1.1"
  width="38.1762mm" height="20.2438mm" viewBox="0.0000 0.0000 38.1762 20.2438">
<title>SVG Image created as SW_MX_2U_THT_sqSilk.svg date 2025/04/12 02:50:51 </title>
  <desc>Image generated by PCBNEW </desc>
<g style="fill:#000000; fill-opacity:1.0000;stroke:#000000; stroke-opacity:1.0000;
stroke-linecap:round; stroke-linejoin:round;"
 transform="translate(0 0) scale(1 1)">
</g>
<g style="fill:none; 
stroke:#F2EDA1; stroke-width:0.1200; stroke-opacity:1; 
stroke-linecap:round; stroke-linejoin:round;">
<path d="M12.1000 16.1750
L12.1000 2.9750
" />
<path d="M12.5000 2.5750
L25.7000 2.5750
" />
<path d="M25.7000 16.5750
L12.5000 16.5750
" />
<path d="M26.1000 2.9750
L26.1000 16.1750
" />
<path d="M12.5000 2.5750 A0.4000 0.4000 0.0 0 0 12.1000 2.9750" />
<path d="M12.1000 16.1750 A0.4000 0.4000 0.0 0 0 12.5000 16.5750" />
<path d="M26.1000 2.9750 A0.4000 0.4000 0.0 0 0 25.7000 2.5750" />
<path d="M25.7000 16.5750 A0.4000 0.4000 0.0 0 0 26.1000 16.1750" />
</g>
<g style="fill:none; 
stroke:#E8B2A7; stroke-width:0.1500; stroke-opacity:1; 
stroke-linecap:round; stroke-linejoin:round;">
<text x="19.1000" y="7.0750"
transform="scale(-1 1) translate(-38.200000 0)"
textLength="4.5357" font-size="1.3333" lengthAdjust="spacingAndGlyphs"
text-anchor="middle" opacity="0" stroke-opacity="0">REF**</text>
<g class="stroked-text"><desc>REF**</desc>
<path d="M20.4333 7.0298
L20.7667 6.5536
" />
<path d="M21.0048 7.0298
L21.0048 6.0298
" />
<path d="M21.0048 6.0298
L20.6238 6.0298
" />
<path d="M20.6238 6.0298
L20.5286 6.0774
" />
<path d="M20.5286 6.0774
L20.4810 6.1251
" />
<path d="M20.4810 6.1251
L20.4333 6.2203
" />
<path d="M20.4333 6.2203
L20.4333 6.3632
" />
<path d="M20.4333 6.3632
L20.4810 6.4584
" />
<path d="M20.4810 6.4584
L20.5286 6.5060
" />
<path d="M20.5286 6.5060
L20.6238 6.5536
" />
<path d="M20.6238 6.5536
L21.0048 6.5536
" />
<path d="M20.0048 6.5060
L19.6714 6.5060
" />
<path d="M19.5286 7.0298
L20.0048 7.0298
" />
<path d="M20.0048 7.0298
L20.0048 6.0298
" />
<path d="M20.0048 6.0298
L19.5286 6.0298
" />
<path d="M18.7667 6.5060
L19.1000 6.5060
" />
<path d="M19.1000 7.0298
L19.1000 6.0298
" />
<path d="M19.1000 6.0298
L18.6238 6.0298
" />
<path d="M18.1000 6.0298
L18.1000 6.2679
" />
<path d="M18.3381 6.1727
L18.1000 6.2679
" />
<path d="M18.1000 6.2679
L17.8619 6.1727
" />
<path d="M18.2429 6.4584
L18.1000 6.2679
" />
<path d="M18.1000 6.2679
L17.9571 6.4584
" />
<path d="M17.3381 6.0298
L17.3381 6.2679
" />
<path d="M17.5762 6.1727
L17.3381 6.2679
" />
<path d="M17.3381 6.2679
L17.1000 6.1727
" />
<path d="M17.4810 6.4584
L17.3381 6.2679
" />
<path d="M17.3381 6.2679
L17.1952 6.4584
" />
</g></g>
<g style="fill:#C83434; fill-opacity:1.0000; stroke:none;">
<circle cx="21.6400" cy="4.4950" r="1.1500" /> 
</g>
<g style="fill:#C83434; fill-opacity:1.0000; stroke:none;">
<circle cx="15.2900" cy="7.0350" r="1.1500" /> 
</g>
<g style="fill:#4D7FC4; fill-opacity:1.0000; stroke:none;">
<circle cx="21.6400" cy="4.4950" r="1.1500" /> 
</g>
<g style="fill:#4D7FC4; fill-opacity:1.0000; stroke:none;">
<circle cx="15.2900" cy="7.0350" r="1.1500" /> 
<path style="fill:none; 
stroke:#AFAFAF; stroke-width:0.0500; stroke-opacity:1; 
stroke-linecap:round; stroke-linejoin:round;fill:none"
d="M 2.5750,2.5750
35.6250,2.5750
35.6250,16.5750
2.5750,16.5750
Z" /> 
</g>
<g style="fill:none; 
stroke:#AFAFAF; stroke-width:0.0212; stroke-opacity:1; 
stroke-linecap:round; stroke-linejoin:round;">
<circle cx="7.1620" cy="2.5750" r="1.5250" /> 
</g>
<g style="fill:none; 
stroke:#AFAFAF; stroke-width:0.0212; stroke-opacity:1; 
stroke-linecap:round; stroke-linejoin:round;">
<circle cx="7.1620" cy="17.8150" r="2.0000" /> 
</g>
<g style="fill:none; 
stroke:#AFAFAF; stroke-width:0.0212; stroke-opacity:1; 
stroke-linecap:round; stroke-linejoin:round;">
<circle cx="14.0200" cy="9.5750" r="0.8500" /> 
</g>
<g style="fill:none; 
stroke:#AFAFAF; stroke-width:0.0212; stroke-opacity:1; 
stroke-linecap:round; stroke-linejoin:round;">
<circle cx="19.1000" cy="9.5750" r="2.0000" /> 
</g>
<g style="fill:none; 
stroke:#AFAFAF; stroke-width:0.0212; stroke-opacity:1; 
stroke-linecap:round; stroke-linejoin:round;">
<circle cx="24.1800" cy="9.5750" r="0.8500" /> 
</g>
<g style="fill:none; 
stroke:#AFAFAF; stroke-width:0.0212; stroke-opacity:1; 
stroke-linecap:round; stroke-linejoin:round;">
<circle cx="31.0380" cy="2.5750" r="1.5250" /> 
</g>
<g style="fill:none; 
stroke:#AFAFAF; stroke-width:0.0212; stroke-opacity:1; 
stroke-linecap:round; stroke-linejoin:round;">
<circle cx="31.0380" cy="17.8150" r="2.0000" /> 
</g>
<g style="fill:none; 
stroke:#AFAFAF; stroke-width:0.0639; stroke-opacity:1; 
stroke-linecap:round; stroke-linejoin:round;">
<text x="21.6400" y="4.8783"
textLength="0.7685" font-size="1.0222" lengthAdjust="spacingAndGlyphs"
text-anchor="middle" opacity="0" stroke-opacity="0">1</text>
<g class="stroked-text"><desc>1</desc>
<path d="M21.8590 4.8464
L21.4210 4.8464
" />
<path d="M21.6400 4.8464
L21.6400 4.0797
" />
<path d="M21.6400 4.0797
L21.5670 4.1892
" />
<path d="M21.5670 4.1892
L21.4940 4.2622
" />
<path d="M21.4940 4.2622
L21.4210 4.2987
" />
</g></g>
<g style="fill:none; 
stroke:#AFAFAF; stroke-width:0.0212; stroke-opacity:1; 
stroke-linecap:round; stroke-linejoin:round;">
<circle cx="21.6400" cy="4.4950" r="1.1500" /> 
</g>
<g style="fill:none; 
stroke:#AFAFAF; stroke-width:0.0639; stroke-opacity:1; 
stroke-linecap:round; stroke-linejoin:round;">
<text x="15.2900" y="7.4183"
textLength="0.7685" font-size="1.0222" lengthAdjust="spacingAndGlyphs"
text-anchor="middle" opacity="0" stroke-opacity="0">2</text>
<g class="stroked-text"><desc>2</desc>
<path d="M15.0710 6.6927
L15.1075 6.6562
" />
<path d="M15.1075 6.6562
L15.1805 6.6197
" />
<path d="M15.1805 6.6197
L15.3630 6.6197
" />
<path d="M15.3630 6.6197
L15.4360 6.6562
" />
<path d="M15.4360 6.6562
L15.4725 6.6927
" />
<path d="M15.4725 6.6927
L15.5090 6.7657
" />
<path d="M15.5090 6.7657
L15.5090 6.8387
" />
<path d="M15.5090 6.8387
L15.4725 6.9483
" />
<path d="M15.4725 6.9483
L15.0344 7.3864
" />
<path d="M15.0344 7.3864
L15.5090 7.3864
" />
</g></g>
<g style="fill:none; 
stroke:#AFAFAF; stroke-width:0.0212; stroke-opacity:1; 
stroke-linecap:round; stroke-linejoin:round;">
<circle cx="15.2900" cy="7.0350" r="1.1500" /> 
</g>
<g style="fill:none; 
stroke:#585D84; stroke-width:0.1500; stroke-opacity:1; 
stroke-linecap:round; stroke-linejoin:round;">
<text x="19.1000" y="18.3000"
transform="scale(-1 1) translate(-38.200000 0)"
textLength="16.5357" font-size="1.3333" lengthAdjust="spacingAndGlyphs"
text-anchor="middle" opacity="0" stroke-opacity="0">SW_MX_2U_THT_sqSilk</text>
<g class="stroked-text"><desc>SW_MX_2U_THT_sqSilk</desc>
<path d="M27.0524 18.2072
L26.9095 18.2548
" />
<path d="M26.9095 18.2548
L26.6714 18.2548
" />
<path d="M26.6714 18.2548
L26.5762 18.2072
" />
<path d="M26.5762 18.2072
L26.5286 18.1596
" />
<path d="M26.5286 18.1596
L26.4810 18.0643
" />
<path d="M26.4810 18.0643
L26.4810 17.9691
" />
<path d="M26.4810 17.9691
L26.5286 17.8739
" />
<path d="M26.5286 17.8739
L26.5762 17.8262
" />
<path d="M26.5762 17.8262
L26.6714 17.7786
" />
<path d="M26.6714 17.7786
L26.8619 17.7310
" />
<path d="M26.8619 17.7310
L26.9571 17.6834
" />
<path d="M26.9571 17.6834
L27.0048 17.6358
" />
<path d="M27.0048 17.6358
L27.0524 17.5405
" />
<path d="M27.0524 17.5405
L27.0524 17.4453
" />
<path d="M27.0524 17.4453
L27.0048 17.3501
" />
<path d="M27.0048 17.3501
L26.9571 17.3024
" />
<path d="M26.9571 17.3024
L26.8619 17.2548
" />
<path d="M26.8619 17.2548
L26.6238 17.2548
" />
<path d="M26.6238 17.2548
L26.4810 17.3024
" />
<path d="M26.1476 17.2548
L25.9095 18.2548
" />
<path d="M25.9095 18.2548
L25.7190 17.5405
" />
<path d="M25.7190 17.5405
L25.5286 18.2548
" />
<path d="M25.5286 18.2548
L25.2905 17.2548
" />
<path d="M25.1476 18.3501
L24.3857 18.3501
" />
<path d="M24.1476 18.2548
L24.1476 17.2548
" />
<path d="M24.1476 17.2548
L23.8143 17.9691
" />
<path d="M23.8143 17.9691
L23.4810 17.2548
" />
<path d="M23.4810 17.2548
L23.4810 18.2548
" />
<path d="M23.1000 17.2548
L22.4333 18.2548
" />
<path d="M22.4333 17.2548
L23.1000 18.2548
" />
<path d="M22.2905 18.3501
L21.5286 18.3501
" />
<path d="M21.3381 17.3501
L21.2905 17.3024
" />
<path d="M21.2905 17.3024
L21.1952 17.2548
" />
<path d="M21.1952 17.2548
L20.9571 17.2548
" />
<path d="M20.9571 17.2548
L20.8619 17.3024
" />
<path d="M20.8619 17.3024
L20.8143 17.3501
" />
<path d="M20.8143 17.3501
L20.7667 17.4453
" />
<path d="M20.7667 17.4453
L20.7667 17.5405
" />
<path d="M20.7667 17.5405
L20.8143 17.6834
" />
<path d="M20.8143 17.6834
L21.3857 18.2548
" />
<path d="M21.3857 18.2548
L20.7667 18.2548
" />
<path d="M20.3381 17.2548
L20.3381 18.0643
" />
<path d="M20.3381 18.0643
L20.2905 18.1596
" />
<path d="M20.2905 18.1596
L20.2429 18.2072
" />
<path d="M20.2429 18.2072
L20.1476 18.2548
" />
<path d="M20.1476 18.2548
L19.9571 18.2548
" />
<path d="M19.9571 18.2548
L19.8619 18.2072
" />
<path d="M19.8619 18.2072
L19.8143 18.1596
" />
<path d="M19.8143 18.1596
L19.7667 18.0643
" />
<path d="M19.7667 18.0643
L19.7667 17.2548
" />
<path d="M19.5286 18.3501
L18.7667 18.3501
" />
<path d="M18.6714 17.2548
L18.1000 17.2548
" />
<path d="M18.3857 18.2548
L18.3857 17.2548
" />
<path d="M17.7667 18.2548
L17.7667 17.2548
" />
<path d="M17.7667 17.7310
L17.1952 17.7310
" />
<path d="M17.1952 18.2548
L17.1952 17.2548
" />
<path d="M16.8619 17.2548
L16.2905 17.2548
" />
<path d="M16.5762 18.2548
L16.5762 17.2548
" />
<path d="M16.1952 18.3501
L15.4333 18.3501
" />
<path d="M15.2429 18.2072
L15.1476 18.2548
" />
<path d="M15.1476 18.2548
L14.9571 18.2548
" />
<path d="M14.9571 18.2548
L14.8619 18.2072
" />
<path d="M14.8619 18.2072
L14.8143 18.1120
" />
<path d="M14.8143 18.1120
L14.8143 18.0643
" />
<path d="M14.8143 18.0643
L14.8619 17.9691
" />
<path d="M14.8619 17.9691
L14.9571 17.9215
" />
<path d="M14.9571 17.9215
L15.1000 17.9215
" />
<path d="M15.1000 17.9215
L15.1952 17.8739
" />
<path d="M15.1952 17.8739
L15.2429 17.7786
" />
<path d="M15.2429 17.7786
L15.2429 17.7310
" />
<path d="M15.2429 17.7310
L15.1952 17.6358
" />
<path d="M15.1952 17.6358
L15.1000 17.5882
" />
<path d="M15.1000 17.5882
L14.9571 17.5882
" />
<path d="M14.9571 17.5882
L14.8619 17.6358
" />
<path d="M13.9571 17.5882
L13.9571 18.5882
" />
<path d="M13.9571 18.2072
L14.0524 18.2548
" />
<path d="M14.0524 18.2548
L14.2429 18.2548
" />
<path d="M14.2429 18.2548
L14.3381 18.2072
" />
<path d="M14.3381 18.2072
L14.3857 18.1596
" />
<path d="M14.3857 18.1596
L14.4333 18.0643
" />
<path d="M14.4333 18.0643
L14.4333 17.7786
" />
<path d="M14.4333 17.7786
L14.3857 17.6834
" />
<path d="M14.3857 17.6834
L14.3381 17.6358
" />
<path d="M14.3381 17.6358
L14.2429 17.5882
" />
<path d="M14.2429 17.5882
L14.0524 17.5882
" />
<path d="M14.0524 17.5882
L13.9571 17.6358
" />
<path d="M13.5286 18.2072
L13.3857 18.2548
" />
<path d="M13.3857 18.2548
L13.1476 18.2548
" />
<path d="M13.1476 18.2548
L13.0524 18.2072
" />
<path d="M13.0524 18.2072
L13.0048 18.1596
" />
<path d="M13.0048 18.1596
L12.9571 18.0643
" />
<path d="M12.9571 18.0643
L12.9571 17.9691
" />
<path d="M12.9571 17.9691
L13.0048 17.8739
" />
<path d="M13.0048 17.8739
L13.0524 17.8262
" />
<path d="M13.0524 17.8262
L13.1476 17.7786
" />
<path d="M13.1476 17.7786
L13.3381 17.7310
" />
<path d="M13.3381 17.7310
L13.4333 17.6834
" />
<path d="M13.4333 17.6834
L13.4810 17.6358
" />
<path d="M13.4810 17.6358
L13.5286 17.5405
" />
<path d="M13.5286 17.5405
L13.5286 17.4453
" />
<path d="M13.5286 17.4453
L13.4810 17.3501
" />
<path d="M13.4810 17.3501
L13.4333 17.3024
" />
<path d="M13.4333 17.3024
L13.3381 17.2548
" />
<path d="M13.3381 17.2548
L13.1000 17.2548
" />
<path d="M13.1000 17.2548
L12.9571 17.3024
" />
<path d="M12.5286 18.2548
L12.5286 17.5882
" />
<path d="M12.5286 17.2548
L12.5762 17.3024
" />
<path d="M12.5762 17.3024
L12.5286 17.3501
" />
<path d="M12.5286 17.3501
L12.4810 17.3024
" />
<path d="M12.4810 17.3024
L12.5286 17.2548
" />
<path d="M12.5286 17.2548
L12.5286 17.3501
" />
<path d="M11.9095 18.2548
L12.0048 18.2072
" />
<path d="M12.0048 18.2072
L12.0524 18.1120
" />
<path d="M12.0524 18.1120
L12.0524 17.2548
" />
<path d="M11.5286 18.2548
L11.5286 17.2548
" />
<path d="M11.4333 17.8739
L11.1476 18.2548
" />
<path d="M11.1476 17.5882
L11.5286 17.9691
" />
</g><text x="19.1000" y="19.9000"
transform="scale(-1 1) translate(-38.200000 0)"
textLength="4.5357" font-size="1.3333" lengthAdjust="spacingAndGlyphs"
text-anchor="middle" opacity="0" stroke-opacity="0">REF**</text>
<g class="stroked-text"><desc>REF**</desc>
<path d="M20.4333 19.8548
L20.7667 19.3786
" />
<path d="M21.0048 19.8548
L21.0048 18.8548
" />
<path d="M21.0048 18.8548
L20.6238 18.8548
" />
<path d="M20.6238 18.8548
L20.5286 18.9024
" />
<path d="M20.5286 18.9024
L20.4810 18.9501
" />
<path d="M20.4810 18.9501
L20.4333 19.0453
" />
<path d="M20.4333 19.0453
L20.4333 19.1882
" />
<path d="M20.4333 19.1882
L20.4810 19.2834
" />
<path d="M20.4810 19.2834
L20.5286 19.3310
" />
<path d="M20.5286 19.3310
L20.6238 19.3786
" />
<path d="M20.6238 19.3786
L21.0048 19.3786
" />
<path d="M20.0048 19.3310
L19.6714 19.3310
" />
<path d="M19.5286 19.8548
L20.0048 19.8548
" />
<path d="M20.0048 19.8548
L20.0048 18.8548
" />
<path d="M20.0048 18.8548
L19.5286 18.8548
" />
<path d="M18.7667 19.3310
L19.1000 19.3310
" />
<path d="M19.1000 19.8548
L19.1000 18.8548
" />
<path d="M19.1000 18.8548
L18.6238 18.8548
" />
<path d="M18.1000 18.8548
L18.1000 19.0929
" />
<path d="M18.3381 18.9977
L18.1000 19.0929
" />
<path d="M18.1000 19.0929
L17.8619 18.9977
" />
<path d="M18.2429 19.2834
L18.1000 19.0929
" />
<path d="M18.1000 19.0929
L17.9571 19.2834
" />
<path d="M17.3381 18.8548
L17.3381 19.0929
" />
<path d="M17.5762 18.9977
L17.3381 19.0929
" />
<path d="M17.3381 19.0929
L17.1000 18.9977
" />
<path d="M17.4810 19.2834
L17.3381 19.0929
" />
<path d="M17.3381 19.0929
L17.1952 19.2834
" />
</g><path style="fill:none; 
stroke:#585D84; stroke-width:0.1000; stroke-opacity:1; 
stroke-linecap:round; stroke-linejoin:round;fill:none"
d="M 17.3500,13.1550
20.8500,13.1550
20.8500,16.1550
17.3500,16.1550
Z" /> 
</g>
<g style="fill:none; 
stroke:#585D84; stroke-width:0.0212; stroke-opacity:1; 
stroke-linecap:round; stroke-linejoin:round;">
<circle cx="7.1620" cy="2.5750" r="1.5250" /> 
</g>
<g style="fill:none; 
stroke:#585D84; stroke-width:0.0212; stroke-opacity:1; 
stroke-linecap:round; stroke-linejoin:round;">
<circle cx="7.1620" cy="17.8150" r="2.0000" /> 
</g>
<g style="fill:none; 
stroke:#585D84; stroke-width:0.0212; stroke-opacity:1; 
stroke-linecap:round; stroke-linejoin:round;">
<circle cx="14.0200" cy="9.5750" r="0.8500" /> 
</g>
<g style="fill:none; 
stroke:#585D84; stroke-width:0.0212; stroke-opacity:1; 
stroke-linecap:round; stroke-linejoin:round;">
<circle cx="19.1000" cy="9.5750" r="2.0000" /> 
</g>
<g style="fill:none; 
stroke:#585D84; stroke-width:0.0212; stroke-opacity:1; 
stroke-linecap:round; stroke-linejoin:round;">
<circle cx="24.1800" cy="9.5750" r="0.8500" /> 
</g>
<g style="fill:none; 
stroke:#585D84; stroke-width:0.0212; stroke-opacity:1; 
stroke-linecap:round; stroke-linejoin:round;">
<circle cx="31.0380" cy="2.5750" r="1.5250" /> 
</g>
<g style="fill:none; 
stroke:#585D84; stroke-width:0.0212; stroke-opacity:1; 
stroke-linecap:round; stroke-linejoin:round;">
<circle cx="31.0380" cy="17.8150" r="2.0000" /> 
</g>
<g style="fill:none; 
stroke:#585D84; stroke-width:0.0639; stroke-opacity:1; 
stroke-linecap:round; stroke-linejoin:round;">
<text x="21.6400" y="4.8783"
textLength="0.7685" font-size="1.0222" lengthAdjust="spacingAndGlyphs"
text-anchor="middle" opacity="0" stroke-opacity="0">1</text>
<g class="stroked-text"><desc>1</desc>
<path d="M21.8590 4.8464
L21.4210 4.8464
" />
<path d="M21.6400 4.8464
L21.6400 4.0797
" />
<path d="M21.6400 4.0797
L21.5670 4.1892
" />
<path d="M21.5670 4.1892
L21.4940 4.2622
" />
<path d="M21.4940 4.2622
L21.4210 4.2987
" />
</g></g>
<g style="fill:none; 
stroke:#585D84; stroke-width:0.0212; stroke-opacity:1; 
stroke-linecap:round; stroke-linejoin:round;">
<circle cx="21.6400" cy="4.4950" r="1.1500" /> 
</g>
<g style="fill:none; 
stroke:#585D84; stroke-width:0.0639; stroke-opacity:1; 
stroke-linecap:round; stroke-linejoin:round;">
<text x="15.2900" y="7.4183"
textLength="0.7685" font-size="1.0222" lengthAdjust="spacingAndGlyphs"
text-anchor="middle" opacity="0" stroke-opacity="0">2</text>
<g class="stroked-text"><desc>2</desc>
<path d="M15.0710 6.6927
L15.1075 6.6562
" />
<path d="M15.1075 6.6562
L15.1805 6.6197
" />
<path d="M15.1805 6.6197
L15.3630 6.6197
" />
<path d="M15.3630 6.6197
L15.4360 6.6562
" />
<path d="M15.4360 6.6562
L15.4725 6.6927
" />
<path d="M15.4725 6.6927
L15.5090 6.7657
" />
<path d="M15.5090 6.7657
L15.5090 6.8387
" />
<path d="M15.5090 6.8387
L15.4725 6.9483
" />
<path d="M15.4725 6.9483
L15.0344 7.3864
" />
<path d="M15.0344 7.3864
L15.5090 7.3864
" />
</g></g>
<g style="fill:none; 
stroke:#585D84; stroke-width:0.0212; stroke-opacity:1; 
stroke-linecap:round; stroke-linejoin:round;">
<circle cx="15.2900" cy="7.0350" r="1.1500" /> 
<path style="fill:none; 
stroke:#C2C2C2; stroke-width:0.1000; stroke-opacity:1; 
stroke-linecap:round; stroke-linejoin:round;fill:none"
d="M 0.0500,0.0500
38.1500,0.0500
38.1500,19.1000
0.0500,19.1000
Z" /> 
</g> 
</svg>
