<?xml version="1.0" standalone="no"?>
 <!DOCTYPE svg PUBLIC "-//W3C//DTD SVG 1.1//EN" 
 "http://www.w3.org/Graphics/SVG/1.1/DTD/svg11.dtd"> 
<svg
  xmlns:svg="http://www.w3.org/2000/svg"
  xmlns="http://www.w3.org/2000/svg"
  xmlns:xlink="http://www.w3.org/1999/xlink"
  version="1.1"
  width="19.1262mm" height="20.3200mm" viewBox="0.0000 0.0000 19.1262 20.3200">
<title>SVG Image created as SW_MX_HotSwap_THT.svg date 2025/05/13 13:29:23 </title>
  <desc>Image generated by PCBNEW </desc>
<g style="fill:#000000; fill-opacity:1.0000;stroke:#000000; stroke-opacity:1.0000;
stroke-linecap:round; stroke-linejoin:round;"
 transform="translate(0 0) scale(1 1)">
</g>
<g style="fill:none; 
stroke:#E8B2A7; stroke-width:0.1200; stroke-opacity:1; 
stroke-linecap:round; stroke-linejoin:round;">
<path d="M2.4750 2.4750
L2.4750 3.4750
" />
<path d="M2.4750 2.4750
L3.4750 2.4750
" />
<path d="M2.4750 16.6750
L2.4750 15.6750
" />
<path d="M3.4750 16.6750
L2.4750 16.6750
" />
<path d="M15.6750 2.4750
L16.6750 2.4750
" />
<path d="M16.6750 2.4750
L16.6750 3.4750
" />
<path d="M16.6750 15.6750
L16.6750 16.6750
" />
<path d="M16.6750 16.6750
L15.6750 16.6750
" />
</g>
<g style="fill:none; 
stroke:#F2EDA1; stroke-width:0.1500; stroke-opacity:1; 
stroke-linecap:round; stroke-linejoin:round;">
<text x="9.5750" y="13.0750"
textLength="4.5357" font-size="1.3333" lengthAdjust="spacingAndGlyphs"
text-anchor="middle" opacity="0" stroke-opacity="0">REF**</text>
<g class="stroked-text"><desc>REF**</desc>
<path d="M8.2417 13.0298
L7.9083 12.5536
" />
<path d="M7.6702 13.0298
L7.6702 12.0298
" />
<path d="M7.6702 12.0298
L8.0512 12.0298
" />
<path d="M8.0512 12.0298
L8.1464 12.0774
" />
<path d="M8.1464 12.0774
L8.1940 12.1251
" />
<path d="M8.1940 12.1251
L8.2417 12.2203
" />
<path d="M8.2417 12.2203
L8.2417 12.3632
" />
<path d="M8.2417 12.3632
L8.1940 12.4584
" />
<path d="M8.1940 12.4584
L8.1464 12.5060
" />
<path d="M8.1464 12.5060
L8.0512 12.5536
" />
<path d="M8.0512 12.5536
L7.6702 12.5536
" />
<path d="M8.6702 12.5060
L9.0036 12.5060
" />
<path d="M9.1464 13.0298
L8.6702 13.0298
" />
<path d="M8.6702 13.0298
L8.6702 12.0298
" />
<path d="M8.6702 12.0298
L9.1464 12.0298
" />
<path d="M9.9083 12.5060
L9.5750 12.5060
" />
<path d="M9.5750 13.0298
L9.5750 12.0298
" />
<path d="M9.5750 12.0298
L10.0512 12.0298
" />
<path d="M10.5750 12.0298
L10.5750 12.2679
" />
<path d="M10.3369 12.1727
L10.5750 12.2679
" />
<path d="M10.5750 12.2679
L10.8131 12.1727
" />
<path d="M10.4321 12.4584
L10.5750 12.2679
" />
<path d="M10.5750 12.2679
L10.7179 12.4584
" />
<path d="M11.3369 12.0298
L11.3369 12.2679
" />
<path d="M11.0988 12.1727
L11.3369 12.2679
" />
<path d="M11.3369 12.2679
L11.5750 12.1727
" />
<path d="M11.1940 12.4584
L11.3369 12.2679
" />
<path d="M11.3369 12.2679
L11.4798 12.4584
" />
</g></g>
<g style="fill:none; 
stroke:#F2EDA1; stroke-width:0.1200; stroke-opacity:1; 
stroke-linecap:round; stroke-linejoin:round;">
<path d="M4.4950 2.5900
L4.4950 2.9450
" />
<path d="M4.4950 7.0350
L4.4950 6.0450
" />
<path d="M4.4950 7.0350
L9.5750 7.0350
" />
<path d="M12.0392 8.9400
L13.7660 8.9400
" />
<path d="M13.3850 2.5900
L4.4950 2.5900
" />
<path d="M15.5750 8.9400
L15.9250 8.9400
" />
<path d="M15.9250 5.1300
L15.9250 5.4850
" />
<path d="M15.9250 8.5850
L15.9250 8.9400
" />
<path d="M12.0346 8.9412 A2.5400 2.5400 0.0 0 0 9.5750 7.0350" />
<path d="M15.9250 5.1300 A2.5400 2.5400 0.0 0 0 13.3850 2.5900" />
<path style="fill:#B4A09A; fill-opacity:0.9000; stroke:none;fill-rule:evenodd;"
d="M 15.8600,6.0350
15.8790,5.9393
15.9332,5.8582
16.0143,5.8040
16.1100,5.7850
18.1600,5.7850
18.2557,5.8040
18.3368,5.8582
18.3910,5.9393
18.4100,6.0350
18.4100,8.0350
18.3910,8.1307
18.3368,8.2118
18.2557,8.2660
18.1600,8.2850
16.1100,8.2850
16.0143,8.2660
15.9332,8.2118
15.8790,8.1307
15.8600,8.0350
Z" /> 
<path style="fill:#B4A09A; fill-opacity:0.9000; stroke:none;fill-rule:evenodd;"
d="M 2.0100,3.4950
2.0290,3.3993
2.0832,3.3182
2.1643,3.2640
2.2600,3.2450
4.3100,3.2450
4.4057,3.2640
4.4868,3.3182
4.5410,3.3993
4.5600,3.4950
4.5600,5.4950
4.5410,5.5907
4.4868,5.6718
4.4057,5.7260
4.3100,5.7450
2.2600,5.7450
2.1643,5.7260
2.0832,5.6718
2.0290,5.5907
2.0100,5.4950
Z" /> 
</g>
<g style="fill:#4D7FC4; fill-opacity:1.0000; stroke:none;">
<circle cx="12.1150" cy="14.6550" r="1.1500" /> 
</g>
<g style="fill:#4D7FC4; fill-opacity:1.0000; stroke:none;">
<circle cx="5.7650" cy="12.1150" r="1.1500" /> 
</g>
<g style="fill:#C83434; fill-opacity:1.0000; stroke:none;">
<circle cx="12.1150" cy="14.6550" r="1.1500" /> 
<path style="fill:#C83434; fill-opacity:1.0000; stroke:none;fill-rule:evenodd;"
d="M 15.8600,6.0350
15.8790,5.9393
15.9332,5.8582
16.0143,5.8040
16.1100,5.7850
18.1600,5.7850
18.2557,5.8040
18.3368,5.8582
18.3910,5.9393
18.4100,6.0350
18.4100,8.0350
18.3910,8.1307
18.3368,8.2118
18.2557,8.2660
18.1600,8.2850
16.1100,8.2850
16.0143,8.2660
15.9332,8.2118
15.8790,8.1307
15.8600,8.0350
Z" /> 
<path style="fill:#C83434; fill-opacity:1.0000; stroke:none;fill-rule:evenodd;"
d="M 2.0100,3.4950
2.0290,3.3993
2.0832,3.3182
2.1643,3.2640
2.2600,3.2450
4.3100,3.2450
4.4057,3.2640
4.4868,3.3182
4.5410,3.3993
4.5600,3.4950
4.5600,5.4950
4.5410,5.5907
4.4868,5.6718
4.4057,5.7260
4.3100,5.7450
2.2600,5.7450
2.1643,5.7260
2.0832,5.6718
2.0290,5.5907
2.0100,5.4950
Z" /> 
</g>
<g style="fill:#C83434; fill-opacity:1.0000; stroke:none;">
<circle cx="5.7650" cy="12.1150" r="1.1500" /> 
<path style="fill:none; 
stroke:#585D84; stroke-width:0.1000; stroke-opacity:1; 
stroke-linecap:round; stroke-linejoin:round;fill:none"
d="M 2.5750,2.5750
16.5750,2.5750
16.5750,16.5750
2.5750,16.5750
Z" /> 
</g>
<g style="fill:none; 
stroke:#585D84; stroke-width:0.0212; stroke-opacity:1; 
stroke-linecap:round; stroke-linejoin:round;">
<circle cx="4.4950" cy="9.5750" r="0.8500" /> 
</g>
<g style="fill:none; 
stroke:#585D84; stroke-width:0.0212; stroke-opacity:1; 
stroke-linecap:round; stroke-linejoin:round;">
<circle cx="7.0350" cy="4.4950" r="1.5000" /> 
</g>
<g style="fill:none; 
stroke:#585D84; stroke-width:0.0212; stroke-opacity:1; 
stroke-linecap:round; stroke-linejoin:round;">
<circle cx="9.5750" cy="9.5750" r="2.0000" /> 
</g>
<g style="fill:none; 
stroke:#585D84; stroke-width:0.0212; stroke-opacity:1; 
stroke-linecap:round; stroke-linejoin:round;">
<circle cx="13.3850" cy="7.0350" r="1.5000" /> 
</g>
<g style="fill:none; 
stroke:#585D84; stroke-width:0.0212; stroke-opacity:1; 
stroke-linecap:round; stroke-linejoin:round;">
<circle cx="14.6550" cy="9.5750" r="0.8500" /> 
</g>
<g style="fill:none; 
stroke:#585D84; stroke-width:0.0639; stroke-opacity:1; 
stroke-linecap:round; stroke-linejoin:round;">
<text x="12.1150" y="15.0383"
textLength="0.7685" font-size="1.0222" lengthAdjust="spacingAndGlyphs"
text-anchor="middle" opacity="0" stroke-opacity="0">1</text>
<g class="stroked-text"><desc>1</desc>
<path d="M12.3340 15.0064
L11.8960 15.0064
" />
<path d="M12.1150 15.0064
L12.1150 14.2397
" />
<path d="M12.1150 14.2397
L12.0420 14.3492
" />
<path d="M12.0420 14.3492
L11.9690 14.4222
" />
<path d="M11.9690 14.4222
L11.8960 14.4587
" />
</g></g>
<g style="fill:none; 
stroke:#585D84; stroke-width:0.0212; stroke-opacity:1; 
stroke-linecap:round; stroke-linejoin:round;">
<circle cx="12.1150" cy="14.6550" r="1.1500" /> 
</g>
<g style="fill:none; 
stroke:#585D84; stroke-width:0.0639; stroke-opacity:1; 
stroke-linecap:round; stroke-linejoin:round;">
<text x="5.7650" y="12.4983"
textLength="0.7685" font-size="1.0222" lengthAdjust="spacingAndGlyphs"
text-anchor="middle" opacity="0" stroke-opacity="0">2</text>
<g class="stroked-text"><desc>2</desc>
<path d="M5.5460 11.7727
L5.5825 11.7362
" />
<path d="M5.5825 11.7362
L5.6555 11.6997
" />
<path d="M5.6555 11.6997
L5.8380 11.6997
" />
<path d="M5.8380 11.6997
L5.9110 11.7362
" />
<path d="M5.9110 11.7362
L5.9475 11.7727
" />
<path d="M5.9475 11.7727
L5.9840 11.8457
" />
<path d="M5.9840 11.8457
L5.9840 11.9187
" />
<path d="M5.9840 11.9187
L5.9475 12.0283
" />
<path d="M5.9475 12.0283
L5.5094 12.4664
" />
<path d="M5.5094 12.4664
L5.9840 12.4664
" />
</g></g>
<g style="fill:none; 
stroke:#585D84; stroke-width:0.0212; stroke-opacity:1; 
stroke-linecap:round; stroke-linejoin:round;">
<circle cx="5.7650" cy="12.1150" r="1.1500" /> 
</g>
<g style="fill:none; 
stroke:#AFAFAF; stroke-width:0.1500; stroke-opacity:1; 
stroke-linecap:round; stroke-linejoin:round;">
<text x="9.5750" y="18.3750"
textLength="15.6310" font-size="1.3333" lengthAdjust="spacingAndGlyphs"
text-anchor="middle" opacity="0" stroke-opacity="0">SW_MX_HotSwap_THT</text>
<g class="stroked-text"><desc>SW_MX_HotSwap_THT</desc>
<path d="M2.0750 18.2822
L2.2179 18.3298
" />
<path d="M2.2179 18.3298
L2.4560 18.3298
" />
<path d="M2.4560 18.3298
L2.5512 18.2822
" />
<path d="M2.5512 18.2822
L2.5988 18.2346
" />
<path d="M2.5988 18.2346
L2.6464 18.1393
" />
<path d="M2.6464 18.1393
L2.6464 18.0441
" />
<path d="M2.6464 18.0441
L2.5988 17.9489
" />
<path d="M2.5988 17.9489
L2.5512 17.9012
" />
<path d="M2.5512 17.9012
L2.4560 17.8536
" />
<path d="M2.4560 17.8536
L2.2655 17.8060
" />
<path d="M2.2655 17.8060
L2.1702 17.7584
" />
<path d="M2.1702 17.7584
L2.1226 17.7108
" />
<path d="M2.1226 17.7108
L2.0750 17.6155
" />
<path d="M2.0750 17.6155
L2.0750 17.5203
" />
<path d="M2.0750 17.5203
L2.1226 17.4251
" />
<path d="M2.1226 17.4251
L2.1702 17.3774
" />
<path d="M2.1702 17.3774
L2.2655 17.3298
" />
<path d="M2.2655 17.3298
L2.5036 17.3298
" />
<path d="M2.5036 17.3298
L2.6464 17.3774
" />
<path d="M2.9798 17.3298
L3.2179 18.3298
" />
<path d="M3.2179 18.3298
L3.4083 17.6155
" />
<path d="M3.4083 17.6155
L3.5988 18.3298
" />
<path d="M3.5988 18.3298
L3.8369 17.3298
" />
<path d="M3.9798 18.4251
L4.7417 18.4251
" />
<path d="M4.9798 18.3298
L4.9798 17.3298
" />
<path d="M4.9798 17.3298
L5.3131 18.0441
" />
<path d="M5.3131 18.0441
L5.6464 17.3298
" />
<path d="M5.6464 17.3298
L5.6464 18.3298
" />
<path d="M6.0274 17.3298
L6.6940 18.3298
" />
<path d="M6.6940 17.3298
L6.0274 18.3298
" />
<path d="M6.8369 18.4251
L7.5988 18.4251
" />
<path d="M7.8369 18.3298
L7.8369 17.3298
" />
<path d="M7.8369 17.8060
L8.4083 17.8060
" />
<path d="M8.4083 18.3298
L8.4083 17.3298
" />
<path d="M9.0274 18.3298
L8.9321 18.2822
" />
<path d="M8.9321 18.2822
L8.8845 18.2346
" />
<path d="M8.8845 18.2346
L8.8369 18.1393
" />
<path d="M8.8369 18.1393
L8.8369 17.8536
" />
<path d="M8.8369 17.8536
L8.8845 17.7584
" />
<path d="M8.8845 17.7584
L8.9321 17.7108
" />
<path d="M8.9321 17.7108
L9.0274 17.6632
" />
<path d="M9.0274 17.6632
L9.1702 17.6632
" />
<path d="M9.1702 17.6632
L9.2655 17.7108
" />
<path d="M9.2655 17.7108
L9.3131 17.7584
" />
<path d="M9.3131 17.7584
L9.3607 17.8536
" />
<path d="M9.3607 17.8536
L9.3607 18.1393
" />
<path d="M9.3607 18.1393
L9.3131 18.2346
" />
<path d="M9.3131 18.2346
L9.2655 18.2822
" />
<path d="M9.2655 18.2822
L9.1702 18.3298
" />
<path d="M9.1702 18.3298
L9.0274 18.3298
" />
<path d="M9.6464 17.6632
L10.0274 17.6632
" />
<path d="M9.7893 17.3298
L9.7893 18.1870
" />
<path d="M9.7893 18.1870
L9.8369 18.2822
" />
<path d="M9.8369 18.2822
L9.9321 18.3298
" />
<path d="M9.9321 18.3298
L10.0274 18.3298
" />
<path d="M10.3131 18.2822
L10.4560 18.3298
" />
<path d="M10.4560 18.3298
L10.6940 18.3298
" />
<path d="M10.6940 18.3298
L10.7893 18.2822
" />
<path d="M10.7893 18.2822
L10.8369 18.2346
" />
<path d="M10.8369 18.2346
L10.8845 18.1393
" />
<path d="M10.8845 18.1393
L10.8845 18.0441
" />
<path d="M10.8845 18.0441
L10.8369 17.9489
" />
<path d="M10.8369 17.9489
L10.7893 17.9012
" />
<path d="M10.7893 17.9012
L10.6940 17.8536
" />
<path d="M10.6940 17.8536
L10.5036 17.8060
" />
<path d="M10.5036 17.8060
L10.4083 17.7584
" />
<path d="M10.4083 17.7584
L10.3607 17.7108
" />
<path d="M10.3607 17.7108
L10.3131 17.6155
" />
<path d="M10.3131 17.6155
L10.3131 17.5203
" />
<path d="M10.3131 17.5203
L10.3607 17.4251
" />
<path d="M10.3607 17.4251
L10.4083 17.3774
" />
<path d="M10.4083 17.3774
L10.5036 17.3298
" />
<path d="M10.5036 17.3298
L10.7417 17.3298
" />
<path d="M10.7417 17.3298
L10.8845 17.3774
" />
<path d="M11.2179 17.6632
L11.4083 18.3298
" />
<path d="M11.4083 18.3298
L11.5988 17.8536
" />
<path d="M11.5988 17.8536
L11.7893 18.3298
" />
<path d="M11.7893 18.3298
L11.9798 17.6632
" />
<path d="M12.7893 18.3298
L12.7893 17.8060
" />
<path d="M12.7893 17.8060
L12.7417 17.7108
" />
<path d="M12.7417 17.7108
L12.6464 17.6632
" />
<path d="M12.6464 17.6632
L12.4560 17.6632
" />
<path d="M12.4560 17.6632
L12.3607 17.7108
" />
<path d="M12.7893 18.2822
L12.6940 18.3298
" />
<path d="M12.6940 18.3298
L12.4560 18.3298
" />
<path d="M12.4560 18.3298
L12.3607 18.2822
" />
<path d="M12.3607 18.2822
L12.3131 18.1870
" />
<path d="M12.3131 18.1870
L12.3131 18.0917
" />
<path d="M12.3131 18.0917
L12.3607 17.9965
" />
<path d="M12.3607 17.9965
L12.4560 17.9489
" />
<path d="M12.4560 17.9489
L12.6940 17.9489
" />
<path d="M12.6940 17.9489
L12.7893 17.9012
" />
<path d="M13.2655 17.6632
L13.2655 18.6632
" />
<path d="M13.2655 17.7108
L13.3607 17.6632
" />
<path d="M13.3607 17.6632
L13.5512 17.6632
" />
<path d="M13.5512 17.6632
L13.6464 17.7108
" />
<path d="M13.6464 17.7108
L13.6940 17.7584
" />
<path d="M13.6940 17.7584
L13.7417 17.8536
" />
<path d="M13.7417 17.8536
L13.7417 18.1393
" />
<path d="M13.7417 18.1393
L13.6940 18.2346
" />
<path d="M13.6940 18.2346
L13.6464 18.2822
" />
<path d="M13.6464 18.2822
L13.5512 18.3298
" />
<path d="M13.5512 18.3298
L13.3607 18.3298
" />
<path d="M13.3607 18.3298
L13.2655 18.2822
" />
<path d="M13.9321 18.4251
L14.6940 18.4251
" />
<path d="M14.7893 17.3298
L15.3607 17.3298
" />
<path d="M15.0750 18.3298
L15.0750 17.3298
" />
<path d="M15.6940 18.3298
L15.6940 17.3298
" />
<path d="M15.6940 17.8060
L16.2655 17.8060
" />
<path d="M16.2655 18.3298
L16.2655 17.3298
" />
<path d="M16.5988 17.3298
L17.1702 17.3298
" />
<path d="M16.8845 18.3298
L16.8845 17.3298
" />
</g><text x="9.5750" y="19.9750"
textLength="4.5357" font-size="1.3333" lengthAdjust="spacingAndGlyphs"
text-anchor="middle" opacity="0" stroke-opacity="0">REF**</text>
<g class="stroked-text"><desc>REF**</desc>
<path d="M8.2417 19.9298
L7.9083 19.4536
" />
<path d="M7.6702 19.9298
L7.6702 18.9298
" />
<path d="M7.6702 18.9298
L8.0512 18.9298
" />
<path d="M8.0512 18.9298
L8.1464 18.9774
" />
<path d="M8.1464 18.9774
L8.1940 19.0251
" />
<path d="M8.1940 19.0251
L8.2417 19.1203
" />
<path d="M8.2417 19.1203
L8.2417 19.2632
" />
<path d="M8.2417 19.2632
L8.1940 19.3584
" />
<path d="M8.1940 19.3584
L8.1464 19.4060
" />
<path d="M8.1464 19.4060
L8.0512 19.4536
" />
<path d="M8.0512 19.4536
L7.6702 19.4536
" />
<path d="M8.6702 19.4060
L9.0036 19.4060
" />
<path d="M9.1464 19.9298
L8.6702 19.9298
" />
<path d="M8.6702 19.9298
L8.6702 18.9298
" />
<path d="M8.6702 18.9298
L9.1464 18.9298
" />
<path d="M9.9083 19.4060
L9.5750 19.4060
" />
<path d="M9.5750 19.9298
L9.5750 18.9298
" />
<path d="M9.5750 18.9298
L10.0512 18.9298
" />
<path d="M10.5750 18.9298
L10.5750 19.1679
" />
<path d="M10.3369 19.0727
L10.5750 19.1679
" />
<path d="M10.5750 19.1679
L10.8131 19.0727
" />
<path d="M10.4321 19.3584
L10.5750 19.1679
" />
<path d="M10.5750 19.1679
L10.7179 19.3584
" />
<path d="M11.3369 18.9298
L11.3369 19.1679
" />
<path d="M11.0988 19.0727
L11.3369 19.1679
" />
<path d="M11.3369 19.1679
L11.5750 19.0727
" />
<path d="M11.1940 19.3584
L11.3369 19.1679
" />
<path d="M11.3369 19.1679
L11.4798 19.3584
" />
</g></g>
<g style="fill:none; 
stroke:#AFAFAF; stroke-width:0.1000; stroke-opacity:1; 
stroke-linecap:round; stroke-linejoin:round;">
<path d="M1.9550 3.2250
L1.9550 5.7650
" />
<path d="M1.9550 5.7650
L4.4950 5.7650
" />
<path d="M4.4950 2.5900
L4.4950 7.0350
" />
<path d="M4.4950 3.2250
L1.9550 3.2250
" />
<path d="M4.4950 7.0350
L9.5750 7.0350
" />
<path d="M13.3850 2.5900
L4.4950 2.5900
" />
<path d="M15.9250 8.3050
L18.4650 8.3050
" />
<path d="M15.9250 8.9400
L12.1150 8.9400
" />
<path d="M15.9250 8.9400
L15.9250 5.1300
" />
<path d="M18.4650 5.7650
L15.9250 5.7650
" />
<path d="M18.4650 8.3050
L18.4650 5.7650
" />
<path d="M12.0392 8.9590 A2.5400 2.5400 0.0 0 0 9.5750 7.0350" />
<path d="M15.9250 5.1300 A2.5400 2.5400 0.0 0 0 13.3850 2.5900" />
</g>
<g style="fill:none; 
stroke:#AFAFAF; stroke-width:0.0212; stroke-opacity:1; 
stroke-linecap:round; stroke-linejoin:round;">
<circle cx="4.4950" cy="9.5750" r="0.8500" /> 
</g>
<g style="fill:none; 
stroke:#AFAFAF; stroke-width:0.0212; stroke-opacity:1; 
stroke-linecap:round; stroke-linejoin:round;">
<circle cx="7.0350" cy="4.4950" r="1.5000" /> 
</g>
<g style="fill:none; 
stroke:#AFAFAF; stroke-width:0.0212; stroke-opacity:1; 
stroke-linecap:round; stroke-linejoin:round;">
<circle cx="9.5750" cy="9.5750" r="2.0000" /> 
</g>
<g style="fill:none; 
stroke:#AFAFAF; stroke-width:0.0212; stroke-opacity:1; 
stroke-linecap:round; stroke-linejoin:round;">
<circle cx="13.3850" cy="7.0350" r="1.5000" /> 
</g>
<g style="fill:none; 
stroke:#AFAFAF; stroke-width:0.0212; stroke-opacity:1; 
stroke-linecap:round; stroke-linejoin:round;">
<circle cx="14.6550" cy="9.5750" r="0.8500" /> 
</g>
<g style="fill:none; 
stroke:#AFAFAF; stroke-width:0.0639; stroke-opacity:1; 
stroke-linecap:round; stroke-linejoin:round;">
<text x="12.1150" y="15.0383"
textLength="0.7685" font-size="1.0222" lengthAdjust="spacingAndGlyphs"
text-anchor="middle" opacity="0" stroke-opacity="0">1</text>
<g class="stroked-text"><desc>1</desc>
<path d="M12.3340 15.0064
L11.8960 15.0064
" />
<path d="M12.1150 15.0064
L12.1150 14.2397
" />
<path d="M12.1150 14.2397
L12.0420 14.3492
" />
<path d="M12.0420 14.3492
L11.9690 14.4222
" />
<path d="M11.9690 14.4222
L11.8960 14.4587
" />
</g></g>
<g style="fill:none; 
stroke:#AFAFAF; stroke-width:0.0212; stroke-opacity:1; 
stroke-linecap:round; stroke-linejoin:round;">
<circle cx="12.1150" cy="14.6550" r="1.1500" /> 
</g>
<g style="fill:none; 
stroke:#AFAFAF; stroke-width:0.0708; stroke-opacity:1; 
stroke-linecap:round; stroke-linejoin:round;">
<text x="17.1350" y="7.4600"
textLength="0.8520" font-size="1.1333" lengthAdjust="spacingAndGlyphs"
text-anchor="middle" opacity="0" stroke-opacity="0">1</text>
<g class="stroked-text"><desc>1</desc>
<path d="M17.3779 7.4245
L16.8921 7.4245
" />
<path d="M17.1350 7.4245
L17.1350 6.5745
" />
<path d="M17.1350 6.5745
L17.0540 6.6960
" />
<path d="M17.0540 6.6960
L16.9731 6.7769
" />
<path d="M16.9731 6.7769
L16.8921 6.8174
" />
</g><path style="fill:none; 
stroke:#AFAFAF; stroke-width:0.0212; stroke-opacity:1; 
stroke-linecap:round; stroke-linejoin:round;fill:none"
d="M 15.8600,6.0350
15.8790,5.9393
15.9332,5.8582
16.0143,5.8040
16.1100,5.7850
18.1600,5.7850
18.2557,5.8040
18.3368,5.8582
18.3910,5.9393
18.4100,6.0350
18.4100,8.0350
18.3910,8.1307
18.3368,8.2118
18.2557,8.2660
18.1600,8.2850
16.1100,8.2850
16.0143,8.2660
15.9332,8.2118
15.8790,8.1307
15.8600,8.0350
Z" /> 
</g>
<g style="fill:none; 
stroke:#AFAFAF; stroke-width:0.0708; stroke-opacity:1; 
stroke-linecap:round; stroke-linejoin:round;">
<text x="3.2850" y="4.9200"
textLength="0.8520" font-size="1.1333" lengthAdjust="spacingAndGlyphs"
text-anchor="middle" opacity="0" stroke-opacity="0">2</text>
<g class="stroked-text"><desc>2</desc>
<path d="M3.0421 4.1155
L3.0826 4.0750
" />
<path d="M3.0826 4.0750
L3.1636 4.0345
" />
<path d="M3.1636 4.0345
L3.3660 4.0345
" />
<path d="M3.3660 4.0345
L3.4469 4.0750
" />
<path d="M3.4469 4.0750
L3.4874 4.1155
" />
<path d="M3.4874 4.1155
L3.5279 4.1964
" />
<path d="M3.5279 4.1964
L3.5279 4.2774
" />
<path d="M3.5279 4.2774
L3.4874 4.3988
" />
<path d="M3.4874 4.3988
L3.0017 4.8845
" />
<path d="M3.0017 4.8845
L3.5279 4.8845
" />
</g><path style="fill:none; 
stroke:#AFAFAF; stroke-width:0.0212; stroke-opacity:1; 
stroke-linecap:round; stroke-linejoin:round;fill:none"
d="M 2.0100,3.4950
2.0290,3.3993
2.0832,3.3182
2.1643,3.2640
2.2600,3.2450
4.3100,3.2450
4.4057,3.2640
4.4868,3.3182
4.5410,3.3993
4.5600,3.4950
4.5600,5.4950
4.5410,5.5907
4.4868,5.6718
4.4057,5.7260
4.3100,5.7450
2.2600,5.7450
2.1643,5.7260
2.0832,5.6718
2.0290,5.5907
2.0100,5.4950
Z" /> 
</g>
<g style="fill:none; 
stroke:#AFAFAF; stroke-width:0.0639; stroke-opacity:1; 
stroke-linecap:round; stroke-linejoin:round;">
<text x="5.7650" y="12.4983"
textLength="0.7685" font-size="1.0222" lengthAdjust="spacingAndGlyphs"
text-anchor="middle" opacity="0" stroke-opacity="0">2</text>
<g class="stroked-text"><desc>2</desc>
<path d="M5.5460 11.7727
L5.5825 11.7362
" />
<path d="M5.5825 11.7362
L5.6555 11.6997
" />
<path d="M5.6555 11.6997
L5.8380 11.6997
" />
<path d="M5.8380 11.6997
L5.9110 11.7362
" />
<path d="M5.9110 11.7362
L5.9475 11.7727
" />
<path d="M5.9475 11.7727
L5.9840 11.8457
" />
<path d="M5.9840 11.8457
L5.9840 11.9187
" />
<path d="M5.9840 11.9187
L5.9475 12.0283
" />
<path d="M5.9475 12.0283
L5.5094 12.4664
" />
<path d="M5.5094 12.4664
L5.9840 12.4664
" />
</g></g>
<g style="fill:none; 
stroke:#AFAFAF; stroke-width:0.0212; stroke-opacity:1; 
stroke-linecap:round; stroke-linejoin:round;">
<circle cx="5.7650" cy="12.1150" r="1.1500" /> 
<path style="fill:none; 
stroke:#C2C2C2; stroke-width:0.1000; stroke-opacity:1; 
stroke-linecap:round; stroke-linejoin:round;fill:none"
d="M 0.0500,0.0500
19.1000,0.0500
19.1000,19.1000
0.0500,19.1000
Z" /> 
</g> 
</svg>
