<?xml version="1.0" standalone="no"?>
 <!DOCTYPE svg PUBLIC "-//W3C//DTD SVG 1.1//EN" 
 "http://www.w3.org/Graphics/SVG/1.1/DTD/svg11.dtd"> 
<svg
  xmlns:svg="http://www.w3.org/2000/svg"
  xmlns="http://www.w3.org/2000/svg"
  xmlns:xlink="http://www.w3.org/1999/xlink"
  version="1.1"
  width="24.1046mm" height="20.3200mm" viewBox="0.0000 0.0000 24.1046 20.3200">
<title>SVG Image created as SW_MX_Slim_HotSwap_THT_nSilk.svg date 2025/05/13 13:29:23 </title>
  <desc>Image generated by PCBNEW </desc>
<g style="fill:#000000; fill-opacity:1.0000;stroke:#000000; stroke-opacity:1.0000;
stroke-linecap:round; stroke-linejoin:round;"
 transform="translate(0 0) scale(1 1)">
</g>
<g style="fill:none; 
stroke:#F2EDA1; stroke-width:0.1500; stroke-opacity:1; 
stroke-linecap:round; stroke-linejoin:round;">
<text x="12.0536" y="13.0750"
textLength="4.5357" font-size="1.3333" lengthAdjust="spacingAndGlyphs"
text-anchor="middle" opacity="0" stroke-opacity="0">REF**</text>
<g class="stroked-text"><desc>REF**</desc>
<path d="M10.7202 13.0298
L10.3869 12.5536
" />
<path d="M10.1488 13.0298
L10.1488 12.0298
" />
<path d="M10.1488 12.0298
L10.5298 12.0298
" />
<path d="M10.5298 12.0298
L10.6250 12.0774
" />
<path d="M10.6250 12.0774
L10.6726 12.1251
" />
<path d="M10.6726 12.1251
L10.7202 12.2203
" />
<path d="M10.7202 12.2203
L10.7202 12.3632
" />
<path d="M10.7202 12.3632
L10.6726 12.4584
" />
<path d="M10.6726 12.4584
L10.6250 12.5060
" />
<path d="M10.6250 12.5060
L10.5298 12.5536
" />
<path d="M10.5298 12.5536
L10.1488 12.5536
" />
<path d="M11.1488 12.5060
L11.4821 12.5060
" />
<path d="M11.6250 13.0298
L11.1488 13.0298
" />
<path d="M11.1488 13.0298
L11.1488 12.0298
" />
<path d="M11.1488 12.0298
L11.6250 12.0298
" />
<path d="M12.3869 12.5060
L12.0536 12.5060
" />
<path d="M12.0536 13.0298
L12.0536 12.0298
" />
<path d="M12.0536 12.0298
L12.5298 12.0298
" />
<path d="M13.0536 12.0298
L13.0536 12.2679
" />
<path d="M12.8155 12.1727
L13.0536 12.2679
" />
<path d="M13.0536 12.2679
L13.2917 12.1727
" />
<path d="M12.9107 12.4584
L13.0536 12.2679
" />
<path d="M13.0536 12.2679
L13.1964 12.4584
" />
<path d="M13.8155 12.0298
L13.8155 12.2679
" />
<path d="M13.5774 12.1727
L13.8155 12.2679
" />
<path d="M13.8155 12.2679
L14.0536 12.1727
" />
<path d="M13.6726 12.4584
L13.8155 12.2679
" />
<path d="M13.8155 12.2679
L13.9583 12.4584
" />
</g></g>
<g style="fill:none; 
stroke:#F2EDA1; stroke-width:0.1200; stroke-opacity:1; 
stroke-linecap:round; stroke-linejoin:round;">
<path d="M6.9736 2.5900
L6.9736 2.9450
" />
<path d="M6.9736 7.0350
L6.9736 6.0450
" />
<path d="M6.9736 7.0350
L12.0536 7.0350
" />
<path d="M14.5177 8.9400
L16.2446 8.9400
" />
<path d="M15.8636 2.5900
L6.9736 2.5900
" />
<path d="M18.0536 8.9400
L18.4036 8.9400
" />
<path d="M18.4036 5.1300
L18.4036 5.4850
" />
<path d="M18.4036 8.5850
L18.4036 8.9400
" />
<path d="M14.5132 8.9412 A2.5400 2.5400 0.0 0 0 12.0536 7.0350" />
<path d="M18.4036 5.1300 A2.5400 2.5400 0.0 0 0 15.8636 2.5900" />
<path style="fill:#B4A09A; fill-opacity:0.9000; stroke:none;fill-rule:evenodd;"
d="M 18.3418,6.0350
18.3608,5.9393
18.4150,5.8582
18.4961,5.8040
18.5918,5.7850
19.8918,5.7850
19.9874,5.8040
20.0685,5.8582
20.1227,5.9393
20.1418,6.0350
20.1418,8.0350
20.1227,8.1307
20.0685,8.2118
19.9874,8.2660
19.8918,8.2850
18.5918,8.2850
18.4961,8.2660
18.4150,8.2118
18.3608,8.1307
18.3418,8.0350
Z" /> 
<path style="fill:#B4A09A; fill-opacity:0.9000; stroke:none;fill-rule:evenodd;"
d="M 5.2354,3.4950
5.2544,3.3993
5.3086,3.3182
5.3897,3.2640
5.4854,3.2450
6.7854,3.2450
6.8810,3.2640
6.9621,3.3182
7.0163,3.3993
7.0354,3.4950
7.0354,5.4950
7.0163,5.5907
6.9621,5.6718
6.8810,5.7260
6.7854,5.7450
5.4854,5.7450
5.3897,5.7260
5.3086,5.6718
5.2544,5.5907
5.2354,5.4950
Z" /> 
</g>
<g style="fill:#4D7FC4; fill-opacity:1.0000; stroke:none;">
<circle cx="14.5936" cy="14.6550" r="1.1500" /> 
</g>
<g style="fill:#4D7FC4; fill-opacity:1.0000; stroke:none;">
<circle cx="8.2436" cy="12.1150" r="1.1500" /> 
</g>
<g style="fill:#C83434; fill-opacity:1.0000; stroke:none;">
<circle cx="14.5936" cy="14.6550" r="1.1500" /> 
<path style="fill:#C83434; fill-opacity:1.0000; stroke:none;fill-rule:evenodd;"
d="M 18.3418,6.0350
18.3608,5.9393
18.4150,5.8582
18.4961,5.8040
18.5918,5.7850
19.8918,5.7850
19.9874,5.8040
20.0685,5.8582
20.1227,5.9393
20.1418,6.0350
20.1418,8.0350
20.1227,8.1307
20.0685,8.2118
19.9874,8.2660
19.8918,8.2850
18.5918,8.2850
18.4961,8.2660
18.4150,8.2118
18.3608,8.1307
18.3418,8.0350
Z" /> 
<path style="fill:#C83434; fill-opacity:1.0000; stroke:none;fill-rule:evenodd;"
d="M 5.2354,3.4950
5.2544,3.3993
5.3086,3.3182
5.3897,3.2640
5.4854,3.2450
6.7854,3.2450
6.8810,3.2640
6.9621,3.3182
7.0163,3.3993
7.0354,3.4950
7.0354,5.4950
7.0163,5.5907
6.9621,5.6718
6.8810,5.7260
6.7854,5.7450
5.4854,5.7450
5.3897,5.7260
5.3086,5.6718
5.2544,5.5907
5.2354,5.4950
Z" /> 
</g>
<g style="fill:#C83434; fill-opacity:1.0000; stroke:none;">
<circle cx="8.2436" cy="12.1150" r="1.1500" /> 
<path style="fill:none; 
stroke:#585D84; stroke-width:0.1000; stroke-opacity:1; 
stroke-linecap:round; stroke-linejoin:round;fill:none"
d="M 5.0536,2.5750
19.0536,2.5750
19.0536,16.5750
5.0536,16.5750
Z" /> 
</g>
<g style="fill:none; 
stroke:#585D84; stroke-width:0.0212; stroke-opacity:1; 
stroke-linecap:round; stroke-linejoin:round;">
<circle cx="6.9736" cy="9.5750" r="0.8500" /> 
</g>
<g style="fill:none; 
stroke:#585D84; stroke-width:0.0212; stroke-opacity:1; 
stroke-linecap:round; stroke-linejoin:round;">
<circle cx="9.5136" cy="4.4950" r="1.5000" /> 
</g>
<g style="fill:none; 
stroke:#585D84; stroke-width:0.0212; stroke-opacity:1; 
stroke-linecap:round; stroke-linejoin:round;">
<circle cx="12.0536" cy="9.5750" r="2.0000" /> 
</g>
<g style="fill:none; 
stroke:#585D84; stroke-width:0.0212; stroke-opacity:1; 
stroke-linecap:round; stroke-linejoin:round;">
<circle cx="15.8636" cy="7.0350" r="1.5000" /> 
</g>
<g style="fill:none; 
stroke:#585D84; stroke-width:0.0212; stroke-opacity:1; 
stroke-linecap:round; stroke-linejoin:round;">
<circle cx="17.1336" cy="9.5750" r="0.8500" /> 
</g>
<g style="fill:none; 
stroke:#585D84; stroke-width:0.0639; stroke-opacity:1; 
stroke-linecap:round; stroke-linejoin:round;">
<text x="14.5936" y="15.0383"
textLength="0.7685" font-size="1.0222" lengthAdjust="spacingAndGlyphs"
text-anchor="middle" opacity="0" stroke-opacity="0">1</text>
<g class="stroked-text"><desc>1</desc>
<path d="M14.8126 15.0063
L14.3745 15.0063
" />
<path d="M14.5936 15.0063
L14.5936 14.2397
" />
<path d="M14.5936 14.2397
L14.5206 14.3492
" />
<path d="M14.5206 14.3492
L14.4475 14.4222
" />
<path d="M14.4475 14.4222
L14.3745 14.4587
" />
</g></g>
<g style="fill:none; 
stroke:#585D84; stroke-width:0.0212; stroke-opacity:1; 
stroke-linecap:round; stroke-linejoin:round;">
<circle cx="14.5936" cy="14.6550" r="1.1500" /> 
</g>
<g style="fill:none; 
stroke:#585D84; stroke-width:0.0639; stroke-opacity:1; 
stroke-linecap:round; stroke-linejoin:round;">
<text x="8.2436" y="12.4983"
textLength="0.7685" font-size="1.0222" lengthAdjust="spacingAndGlyphs"
text-anchor="middle" opacity="0" stroke-opacity="0">2</text>
<g class="stroked-text"><desc>2</desc>
<path d="M8.0245 11.7727
L8.0610 11.7362
" />
<path d="M8.0610 11.7362
L8.1340 11.6997
" />
<path d="M8.1340 11.6997
L8.3166 11.6997
" />
<path d="M8.3166 11.6997
L8.3896 11.7362
" />
<path d="M8.3896 11.7362
L8.4261 11.7727
" />
<path d="M8.4261 11.7727
L8.4626 11.8457
" />
<path d="M8.4626 11.8457
L8.4626 11.9187
" />
<path d="M8.4626 11.9187
L8.4261 12.0283
" />
<path d="M8.4261 12.0283
L7.9880 12.4664
" />
<path d="M7.9880 12.4664
L8.4626 12.4664
" />
</g></g>
<g style="fill:none; 
stroke:#585D84; stroke-width:0.0212; stroke-opacity:1; 
stroke-linecap:round; stroke-linejoin:round;">
<circle cx="8.2436" cy="12.1150" r="1.1500" /> 
</g>
<g style="fill:none; 
stroke:#AFAFAF; stroke-width:0.1500; stroke-opacity:1; 
stroke-linecap:round; stroke-linejoin:round;">
<text x="12.0536" y="18.3750"
textLength="24.1071" font-size="1.3333" lengthAdjust="spacingAndGlyphs"
text-anchor="middle" opacity="0" stroke-opacity="0">SW_MX_Slim_HotSwap_THT_nSilk</text>
<g class="stroked-text"><desc>SW_MX_Slim_HotSwap_THT_nSilk</desc>
<path d="M0.3155 18.2822
L0.4583 18.3298
" />
<path d="M0.4583 18.3298
L0.6964 18.3298
" />
<path d="M0.6964 18.3298
L0.7917 18.2822
" />
<path d="M0.7917 18.2822
L0.8393 18.2346
" />
<path d="M0.8393 18.2346
L0.8869 18.1393
" />
<path d="M0.8869 18.1393
L0.8869 18.0441
" />
<path d="M0.8869 18.0441
L0.8393 17.9489
" />
<path d="M0.8393 17.9489
L0.7917 17.9012
" />
<path d="M0.7917 17.9012
L0.6964 17.8536
" />
<path d="M0.6964 17.8536
L0.5060 17.8060
" />
<path d="M0.5060 17.8060
L0.4107 17.7584
" />
<path d="M0.4107 17.7584
L0.3631 17.7108
" />
<path d="M0.3631 17.7108
L0.3155 17.6155
" />
<path d="M0.3155 17.6155
L0.3155 17.5203
" />
<path d="M0.3155 17.5203
L0.3631 17.4251
" />
<path d="M0.3631 17.4251
L0.4107 17.3774
" />
<path d="M0.4107 17.3774
L0.5060 17.3298
" />
<path d="M0.5060 17.3298
L0.7440 17.3298
" />
<path d="M0.7440 17.3298
L0.8869 17.3774
" />
<path d="M1.2202 17.3298
L1.4583 18.3298
" />
<path d="M1.4583 18.3298
L1.6488 17.6155
" />
<path d="M1.6488 17.6155
L1.8393 18.3298
" />
<path d="M1.8393 18.3298
L2.0774 17.3298
" />
<path d="M2.2202 18.4251
L2.9821 18.4251
" />
<path d="M3.2202 18.3298
L3.2202 17.3298
" />
<path d="M3.2202 17.3298
L3.5536 18.0441
" />
<path d="M3.5536 18.0441
L3.8869 17.3298
" />
<path d="M3.8869 17.3298
L3.8869 18.3298
" />
<path d="M4.2679 17.3298
L4.9345 18.3298
" />
<path d="M4.9345 17.3298
L4.2679 18.3298
" />
<path d="M5.0774 18.4251
L5.8393 18.4251
" />
<path d="M6.0298 18.2822
L6.1726 18.3298
" />
<path d="M6.1726 18.3298
L6.4107 18.3298
" />
<path d="M6.4107 18.3298
L6.5060 18.2822
" />
<path d="M6.5060 18.2822
L6.5536 18.2346
" />
<path d="M6.5536 18.2346
L6.6012 18.1393
" />
<path d="M6.6012 18.1393
L6.6012 18.0441
" />
<path d="M6.6012 18.0441
L6.5536 17.9489
" />
<path d="M6.5536 17.9489
L6.5060 17.9012
" />
<path d="M6.5060 17.9012
L6.4107 17.8536
" />
<path d="M6.4107 17.8536
L6.2202 17.8060
" />
<path d="M6.2202 17.8060
L6.1250 17.7584
" />
<path d="M6.1250 17.7584
L6.0774 17.7108
" />
<path d="M6.0774 17.7108
L6.0298 17.6155
" />
<path d="M6.0298 17.6155
L6.0298 17.5203
" />
<path d="M6.0298 17.5203
L6.0774 17.4251
" />
<path d="M6.0774 17.4251
L6.1250 17.3774
" />
<path d="M6.1250 17.3774
L6.2202 17.3298
" />
<path d="M6.2202 17.3298
L6.4583 17.3298
" />
<path d="M6.4583 17.3298
L6.6012 17.3774
" />
<path d="M7.1726 18.3298
L7.0774 18.2822
" />
<path d="M7.0774 18.2822
L7.0298 18.1870
" />
<path d="M7.0298 18.1870
L7.0298 17.3298
" />
<path d="M7.5536 18.3298
L7.5536 17.6632
" />
<path d="M7.5536 17.3298
L7.5060 17.3774
" />
<path d="M7.5060 17.3774
L7.5536 17.4251
" />
<path d="M7.5536 17.4251
L7.6012 17.3774
" />
<path d="M7.6012 17.3774
L7.5536 17.3298
" />
<path d="M7.5536 17.3298
L7.5536 17.4251
" />
<path d="M8.0298 18.3298
L8.0298 17.6632
" />
<path d="M8.0298 17.7584
L8.0774 17.7108
" />
<path d="M8.0774 17.7108
L8.1726 17.6632
" />
<path d="M8.1726 17.6632
L8.3155 17.6632
" />
<path d="M8.3155 17.6632
L8.4107 17.7108
" />
<path d="M8.4107 17.7108
L8.4583 17.8060
" />
<path d="M8.4583 17.8060
L8.4583 18.3298
" />
<path d="M8.4583 17.8060
L8.5060 17.7108
" />
<path d="M8.5060 17.7108
L8.6012 17.6632
" />
<path d="M8.6012 17.6632
L8.7440 17.6632
" />
<path d="M8.7440 17.6632
L8.8393 17.7108
" />
<path d="M8.8393 17.7108
L8.8869 17.8060
" />
<path d="M8.8869 17.8060
L8.8869 18.3298
" />
<path d="M9.1250 18.4251
L9.8869 18.4251
" />
<path d="M10.1250 18.3298
L10.1250 17.3298
" />
<path d="M10.1250 17.8060
L10.6964 17.8060
" />
<path d="M10.6964 18.3298
L10.6964 17.3298
" />
<path d="M11.3155 18.3298
L11.2202 18.2822
" />
<path d="M11.2202 18.2822
L11.1726 18.2346
" />
<path d="M11.1726 18.2346
L11.1250 18.1393
" />
<path d="M11.1250 18.1393
L11.1250 17.8536
" />
<path d="M11.1250 17.8536
L11.1726 17.7584
" />
<path d="M11.1726 17.7584
L11.2202 17.7108
" />
<path d="M11.2202 17.7108
L11.3155 17.6632
" />
<path d="M11.3155 17.6632
L11.4583 17.6632
" />
<path d="M11.4583 17.6632
L11.5536 17.7108
" />
<path d="M11.5536 17.7108
L11.6012 17.7584
" />
<path d="M11.6012 17.7584
L11.6488 17.8536
" />
<path d="M11.6488 17.8536
L11.6488 18.1393
" />
<path d="M11.6488 18.1393
L11.6012 18.2346
" />
<path d="M11.6012 18.2346
L11.5536 18.2822
" />
<path d="M11.5536 18.2822
L11.4583 18.3298
" />
<path d="M11.4583 18.3298
L11.3155 18.3298
" />
<path d="M11.9345 17.6632
L12.3155 17.6632
" />
<path d="M12.0774 17.3298
L12.0774 18.1870
" />
<path d="M12.0774 18.1870
L12.1250 18.2822
" />
<path d="M12.1250 18.2822
L12.2202 18.3298
" />
<path d="M12.2202 18.3298
L12.3155 18.3298
" />
<path d="M12.6012 18.2822
L12.7440 18.3298
" />
<path d="M12.7440 18.3298
L12.9821 18.3298
" />
<path d="M12.9821 18.3298
L13.0774 18.2822
" />
<path d="M13.0774 18.2822
L13.1250 18.2346
" />
<path d="M13.1250 18.2346
L13.1726 18.1393
" />
<path d="M13.1726 18.1393
L13.1726 18.0441
" />
<path d="M13.1726 18.0441
L13.1250 17.9489
" />
<path d="M13.1250 17.9489
L13.0774 17.9012
" />
<path d="M13.0774 17.9012
L12.9821 17.8536
" />
<path d="M12.9821 17.8536
L12.7917 17.8060
" />
<path d="M12.7917 17.8060
L12.6964 17.7584
" />
<path d="M12.6964 17.7584
L12.6488 17.7108
" />
<path d="M12.6488 17.7108
L12.6012 17.6155
" />
<path d="M12.6012 17.6155
L12.6012 17.5203
" />
<path d="M12.6012 17.5203
L12.6488 17.4251
" />
<path d="M12.6488 17.4251
L12.6964 17.3774
" />
<path d="M12.6964 17.3774
L12.7917 17.3298
" />
<path d="M12.7917 17.3298
L13.0298 17.3298
" />
<path d="M13.0298 17.3298
L13.1726 17.3774
" />
<path d="M13.5060 17.6632
L13.6964 18.3298
" />
<path d="M13.6964 18.3298
L13.8869 17.8536
" />
<path d="M13.8869 17.8536
L14.0774 18.3298
" />
<path d="M14.0774 18.3298
L14.2679 17.6632
" />
<path d="M15.0774 18.3298
L15.0774 17.8060
" />
<path d="M15.0774 17.8060
L15.0298 17.7108
" />
<path d="M15.0298 17.7108
L14.9345 17.6632
" />
<path d="M14.9345 17.6632
L14.7440 17.6632
" />
<path d="M14.7440 17.6632
L14.6488 17.7108
" />
<path d="M15.0774 18.2822
L14.9821 18.3298
" />
<path d="M14.9821 18.3298
L14.7440 18.3298
" />
<path d="M14.7440 18.3298
L14.6488 18.2822
" />
<path d="M14.6488 18.2822
L14.6012 18.1870
" />
<path d="M14.6012 18.1870
L14.6012 18.0917
" />
<path d="M14.6012 18.0917
L14.6488 17.9965
" />
<path d="M14.6488 17.9965
L14.7440 17.9489
" />
<path d="M14.7440 17.9489
L14.9821 17.9489
" />
<path d="M14.9821 17.9489
L15.0774 17.9012
" />
<path d="M15.5536 17.6632
L15.5536 18.6632
" />
<path d="M15.5536 17.7108
L15.6488 17.6632
" />
<path d="M15.6488 17.6632
L15.8393 17.6632
" />
<path d="M15.8393 17.6632
L15.9345 17.7108
" />
<path d="M15.9345 17.7108
L15.9821 17.7584
" />
<path d="M15.9821 17.7584
L16.0298 17.8536
" />
<path d="M16.0298 17.8536
L16.0298 18.1393
" />
<path d="M16.0298 18.1393
L15.9821 18.2346
" />
<path d="M15.9821 18.2346
L15.9345 18.2822
" />
<path d="M15.9345 18.2822
L15.8393 18.3298
" />
<path d="M15.8393 18.3298
L15.6488 18.3298
" />
<path d="M15.6488 18.3298
L15.5536 18.2822
" />
<path d="M16.2202 18.4251
L16.9821 18.4251
" />
<path d="M17.0774 17.3298
L17.6488 17.3298
" />
<path d="M17.3631 18.3298
L17.3631 17.3298
" />
<path d="M17.9821 18.3298
L17.9821 17.3298
" />
<path d="M17.9821 17.8060
L18.5536 17.8060
" />
<path d="M18.5536 18.3298
L18.5536 17.3298
" />
<path d="M18.8869 17.3298
L19.4583 17.3298
" />
<path d="M19.1726 18.3298
L19.1726 17.3298
" />
<path d="M19.5536 18.4251
L20.3155 18.4251
" />
<path d="M20.5536 17.6632
L20.5536 18.3298
" />
<path d="M20.5536 17.7584
L20.6012 17.7108
" />
<path d="M20.6012 17.7108
L20.6964 17.6632
" />
<path d="M20.6964 17.6632
L20.8393 17.6632
" />
<path d="M20.8393 17.6632
L20.9345 17.7108
" />
<path d="M20.9345 17.7108
L20.9821 17.8060
" />
<path d="M20.9821 17.8060
L20.9821 18.3298
" />
<path d="M21.4107 18.2822
L21.5536 18.3298
" />
<path d="M21.5536 18.3298
L21.7917 18.3298
" />
<path d="M21.7917 18.3298
L21.8869 18.2822
" />
<path d="M21.8869 18.2822
L21.9345 18.2346
" />
<path d="M21.9345 18.2346
L21.9821 18.1393
" />
<path d="M21.9821 18.1393
L21.9821 18.0441
" />
<path d="M21.9821 18.0441
L21.9345 17.9489
" />
<path d="M21.9345 17.9489
L21.8869 17.9012
" />
<path d="M21.8869 17.9012
L21.7917 17.8536
" />
<path d="M21.7917 17.8536
L21.6012 17.8060
" />
<path d="M21.6012 17.8060
L21.5060 17.7584
" />
<path d="M21.5060 17.7584
L21.4583 17.7108
" />
<path d="M21.4583 17.7108
L21.4107 17.6155
" />
<path d="M21.4107 17.6155
L21.4107 17.5203
" />
<path d="M21.4107 17.5203
L21.4583 17.4251
" />
<path d="M21.4583 17.4251
L21.5060 17.3774
" />
<path d="M21.5060 17.3774
L21.6012 17.3298
" />
<path d="M21.6012 17.3298
L21.8393 17.3298
" />
<path d="M21.8393 17.3298
L21.9821 17.3774
" />
<path d="M22.4107 18.3298
L22.4107 17.6632
" />
<path d="M22.4107 17.3298
L22.3631 17.3774
" />
<path d="M22.3631 17.3774
L22.4107 17.4251
" />
<path d="M22.4107 17.4251
L22.4583 17.3774
" />
<path d="M22.4583 17.3774
L22.4107 17.3298
" />
<path d="M22.4107 17.3298
L22.4107 17.4251
" />
<path d="M23.0298 18.3298
L22.9345 18.2822
" />
<path d="M22.9345 18.2822
L22.8869 18.1870
" />
<path d="M22.8869 18.1870
L22.8869 17.3298
" />
<path d="M23.4107 18.3298
L23.4107 17.3298
" />
<path d="M23.5060 17.9489
L23.7917 18.3298
" />
<path d="M23.7917 17.6632
L23.4107 18.0441
" />
</g><text x="12.0536" y="19.9750"
textLength="4.5357" font-size="1.3333" lengthAdjust="spacingAndGlyphs"
text-anchor="middle" opacity="0" stroke-opacity="0">REF**</text>
<g class="stroked-text"><desc>REF**</desc>
<path d="M10.7202 19.9298
L10.3869 19.4536
" />
<path d="M10.1488 19.9298
L10.1488 18.9298
" />
<path d="M10.1488 18.9298
L10.5298 18.9298
" />
<path d="M10.5298 18.9298
L10.6250 18.9774
" />
<path d="M10.6250 18.9774
L10.6726 19.0251
" />
<path d="M10.6726 19.0251
L10.7202 19.1203
" />
<path d="M10.7202 19.1203
L10.7202 19.2632
" />
<path d="M10.7202 19.2632
L10.6726 19.3584
" />
<path d="M10.6726 19.3584
L10.6250 19.4060
" />
<path d="M10.6250 19.4060
L10.5298 19.4536
" />
<path d="M10.5298 19.4536
L10.1488 19.4536
" />
<path d="M11.1488 19.4060
L11.4821 19.4060
" />
<path d="M11.6250 19.9298
L11.1488 19.9298
" />
<path d="M11.1488 19.9298
L11.1488 18.9298
" />
<path d="M11.1488 18.9298
L11.6250 18.9298
" />
<path d="M12.3869 19.4060
L12.0536 19.4060
" />
<path d="M12.0536 19.9298
L12.0536 18.9298
" />
<path d="M12.0536 18.9298
L12.5298 18.9298
" />
<path d="M13.0536 18.9298
L13.0536 19.1679
" />
<path d="M12.8155 19.0727
L13.0536 19.1679
" />
<path d="M13.0536 19.1679
L13.2917 19.0727
" />
<path d="M12.9107 19.3584
L13.0536 19.1679
" />
<path d="M13.0536 19.1679
L13.1964 19.3584
" />
<path d="M13.8155 18.9298
L13.8155 19.1679
" />
<path d="M13.5774 19.0727
L13.8155 19.1679
" />
<path d="M13.8155 19.1679
L14.0536 19.0727
" />
<path d="M13.6726 19.3584
L13.8155 19.1679
" />
<path d="M13.8155 19.1679
L13.9583 19.3584
" />
</g></g>
<g style="fill:none; 
stroke:#AFAFAF; stroke-width:0.1000; stroke-opacity:1; 
stroke-linecap:round; stroke-linejoin:round;">
<path d="M5.1956 3.2250
L5.1956 5.7650
" />
<path d="M5.1956 5.7650
L6.9736 5.7650
" />
<path d="M6.9736 2.5900
L6.9736 7.0350
" />
<path d="M6.9736 3.2250
L5.1956 3.2250
" />
<path d="M6.9736 7.0350
L12.0536 7.0350
" />
<path d="M15.8636 2.5900
L6.9736 2.5900
" />
<path d="M18.4036 8.3050
L20.1562 8.3050
" />
<path d="M18.4036 8.9400
L14.5936 8.9400
" />
<path d="M18.4036 8.9400
L18.4036 5.1300
" />
<path d="M20.1562 5.7650
L18.4036 5.7650
" />
<path d="M20.1562 8.3050
L20.1562 5.7650
" />
<path d="M14.5177 8.9590 A2.5400 2.5400 0.0 0 0 12.0536 7.0350" />
<path d="M18.4036 5.1300 A2.5400 2.5400 0.0 0 0 15.8636 2.5900" />
</g>
<g style="fill:none; 
stroke:#AFAFAF; stroke-width:0.0212; stroke-opacity:1; 
stroke-linecap:round; stroke-linejoin:round;">
<circle cx="6.9736" cy="9.5750" r="0.8500" /> 
</g>
<g style="fill:none; 
stroke:#AFAFAF; stroke-width:0.0212; stroke-opacity:1; 
stroke-linecap:round; stroke-linejoin:round;">
<circle cx="9.5136" cy="4.4950" r="1.5000" /> 
</g>
<g style="fill:none; 
stroke:#AFAFAF; stroke-width:0.0212; stroke-opacity:1; 
stroke-linecap:round; stroke-linejoin:round;">
<circle cx="12.0536" cy="9.5750" r="2.0000" /> 
</g>
<g style="fill:none; 
stroke:#AFAFAF; stroke-width:0.0212; stroke-opacity:1; 
stroke-linecap:round; stroke-linejoin:round;">
<circle cx="15.8636" cy="7.0350" r="1.5000" /> 
</g>
<g style="fill:none; 
stroke:#AFAFAF; stroke-width:0.0212; stroke-opacity:1; 
stroke-linecap:round; stroke-linejoin:round;">
<circle cx="17.1336" cy="9.5750" r="0.8500" /> 
</g>
<g style="fill:none; 
stroke:#AFAFAF; stroke-width:0.0639; stroke-opacity:1; 
stroke-linecap:round; stroke-linejoin:round;">
<text x="14.5936" y="15.0383"
textLength="0.7685" font-size="1.0222" lengthAdjust="spacingAndGlyphs"
text-anchor="middle" opacity="0" stroke-opacity="0">1</text>
<g class="stroked-text"><desc>1</desc>
<path d="M14.8126 15.0063
L14.3745 15.0063
" />
<path d="M14.5936 15.0063
L14.5936 14.2397
" />
<path d="M14.5936 14.2397
L14.5206 14.3492
" />
<path d="M14.5206 14.3492
L14.4475 14.4222
" />
<path d="M14.4475 14.4222
L14.3745 14.4587
" />
</g></g>
<g style="fill:none; 
stroke:#AFAFAF; stroke-width:0.0212; stroke-opacity:1; 
stroke-linecap:round; stroke-linejoin:round;">
<circle cx="14.5936" cy="14.6550" r="1.1500" /> 
</g>
<g style="fill:none; 
stroke:#AFAFAF; stroke-width:0.0694; stroke-opacity:1; 
stroke-linecap:round; stroke-linejoin:round;">
<g transform="rotate(-90.000000 19.2418 7.0350)">
<text x="19.2418" y="7.4517"
textLength="0.8353" font-size="1.1111" lengthAdjust="spacingAndGlyphs"
text-anchor="middle" opacity="0" stroke-opacity="0">1</text>
</g>
<g class="stroked-text"><desc>1</desc>
<path d="M19.6237 6.7969
L19.6237 7.2731
" />
<path d="M19.6237 7.0350
L18.7903 7.0350
" />
<path d="M18.7903 7.0350
L18.9094 7.1144
" />
<path d="M18.9094 7.1144
L18.9888 7.1937
" />
<path d="M18.9888 7.1937
L19.0284 7.2731
" />
</g><path style="fill:none; 
stroke:#AFAFAF; stroke-width:0.0212; stroke-opacity:1; 
stroke-linecap:round; stroke-linejoin:round;fill:none"
d="M 18.3418,6.0350
18.3608,5.9393
18.4150,5.8582
18.4961,5.8040
18.5918,5.7850
19.8918,5.7850
19.9874,5.8040
20.0685,5.8582
20.1227,5.9393
20.1418,6.0350
20.1418,8.0350
20.1227,8.1307
20.0685,8.2118
19.9874,8.2660
19.8918,8.2850
18.5918,8.2850
18.4961,8.2660
18.4150,8.2118
18.3608,8.1307
18.3418,8.0350
Z" /> 
</g>
<g style="fill:none; 
stroke:#AFAFAF; stroke-width:0.0694; stroke-opacity:1; 
stroke-linecap:round; stroke-linejoin:round;">
<g transform="rotate(-90.000000 6.1354 4.4950)">
<text x="6.1354" y="4.9117"
textLength="0.8353" font-size="1.1111" lengthAdjust="spacingAndGlyphs"
text-anchor="middle" opacity="0" stroke-opacity="0">2</text>
</g>
<g class="stroked-text"><desc>2</desc>
<path d="M5.7633 4.7331
L5.7236 4.6934
" />
<path d="M5.7236 4.6934
L5.6839 4.6140
" />
<path d="M5.6839 4.6140
L5.6839 4.4156
" />
<path d="M5.6839 4.4156
L5.7236 4.3363
" />
<path d="M5.7236 4.3363
L5.7633 4.2966
" />
<path d="M5.7633 4.2966
L5.8427 4.2569
" />
<path d="M5.8427 4.2569
L5.9220 4.2569
" />
<path d="M5.9220 4.2569
L6.0411 4.2966
" />
<path d="M6.0411 4.2966
L6.5173 4.7728
" />
<path d="M6.5173 4.7728
L6.5173 4.2569
" />
</g><path style="fill:none; 
stroke:#AFAFAF; stroke-width:0.0212; stroke-opacity:1; 
stroke-linecap:round; stroke-linejoin:round;fill:none"
d="M 5.2354,3.4950
5.2544,3.3993
5.3086,3.3182
5.3897,3.2640
5.4854,3.2450
6.7854,3.2450
6.8810,3.2640
6.9621,3.3182
7.0163,3.3993
7.0354,3.4950
7.0354,5.4950
7.0163,5.5907
6.9621,5.6718
6.8810,5.7260
6.7854,5.7450
5.4854,5.7450
5.3897,5.7260
5.3086,5.6718
5.2544,5.5907
5.2354,5.4950
Z" /> 
</g>
<g style="fill:none; 
stroke:#AFAFAF; stroke-width:0.0639; stroke-opacity:1; 
stroke-linecap:round; stroke-linejoin:round;">
<text x="8.2436" y="12.4983"
textLength="0.7685" font-size="1.0222" lengthAdjust="spacingAndGlyphs"
text-anchor="middle" opacity="0" stroke-opacity="0">2</text>
<g class="stroked-text"><desc>2</desc>
<path d="M8.0245 11.7727
L8.0610 11.7362
" />
<path d="M8.0610 11.7362
L8.1340 11.6997
" />
<path d="M8.1340 11.6997
L8.3166 11.6997
" />
<path d="M8.3166 11.6997
L8.3896 11.7362
" />
<path d="M8.3896 11.7362
L8.4261 11.7727
" />
<path d="M8.4261 11.7727
L8.4626 11.8457
" />
<path d="M8.4626 11.8457
L8.4626 11.9187
" />
<path d="M8.4626 11.9187
L8.4261 12.0283
" />
<path d="M8.4261 12.0283
L7.9880 12.4664
" />
<path d="M7.9880 12.4664
L8.4626 12.4664
" />
</g></g>
<g style="fill:none; 
stroke:#AFAFAF; stroke-width:0.0212; stroke-opacity:1; 
stroke-linecap:round; stroke-linejoin:round;">
<circle cx="8.2436" cy="12.1150" r="1.1500" /> 
<path style="fill:none; 
stroke:#C2C2C2; stroke-width:0.1000; stroke-opacity:1; 
stroke-linecap:round; stroke-linejoin:round;fill:none"
d="M 2.5286,0.0500
21.5786,0.0500
21.5786,19.1000
2.5286,19.1000
Z" /> 
</g> 
</svg>
