<?xml version="1.0" standalone="no"?>
 <!DOCTYPE svg PUBLIC "-//W3C//DTD SVG 1.1//EN" 
 "http://www.w3.org/Graphics/SVG/1.1/DTD/svg11.dtd"> 
<svg
  xmlns:svg="http://www.w3.org/2000/svg"
  xmlns="http://www.w3.org/2000/svg"
  xmlns:xlink="http://www.w3.org/1999/xlink"
  version="1.1"
  width="19.1262mm" height="21.4122mm" viewBox="0.0000 0.0000 19.1262 21.4122">
<title>SVG Image created as SW_MX_EC11_THT_sqSilk.svg date 2025/04/12 02:50:51 </title>
  <desc>Image generated by PCBNEW </desc>
<g style="fill:#000000; fill-opacity:1.0000;stroke:#000000; stroke-opacity:1.0000;
stroke-linecap:round; stroke-linejoin:round;"
 transform="translate(0 0) scale(1 1)">
</g>
<g style="fill:none; 
stroke:#F2EDA1; stroke-width:0.1200; stroke-opacity:1; 
stroke-linecap:round; stroke-linejoin:round;">
<path d="M2.5750 16.1750
L2.5750 2.9750
" />
<path d="M2.9750 2.5750
L6.0750 2.5750
" />
<path d="M2.9750 16.5750
L6.3750 16.5750
" />
<path d="M7.7750 16.5750
L8.8750 16.5750
" />
<path d="M8.0750 2.5750
L11.0750 2.5750
" />
<path d="M10.2750 16.5750
L11.3750 16.5750
" />
<path d="M12.7750 16.5750
L16.1750 16.5750
" />
<path d="M13.0750 2.5750
L16.1750 2.5750
" />
<path d="M16.5750 2.9750
L16.5750 16.1750
" />
<path d="M2.9750 2.5750 A0.4000 0.4000 0.0 0 0 2.5750 2.9750" />
<path d="M2.5750 16.1750 A0.4000 0.4000 0.0 0 0 2.9750 16.5750" />
<path d="M16.5750 2.9750 A0.4000 0.4000 0.0 0 0 16.1750 2.5750" />
<path d="M16.1750 16.5750 A0.4000 0.4000 0.0 0 0 16.5750 16.1750" />
</g>
<g style="fill:none; 
stroke:#E8B2A7; stroke-width:0.1500; stroke-opacity:1; 
stroke-linecap:round; stroke-linejoin:round;">
<text x="9.5750" y="7.0750"
transform="scale(-1 1) translate(-19.150000 0)"
textLength="4.5357" font-size="1.3333" lengthAdjust="spacingAndGlyphs"
text-anchor="middle" opacity="0" stroke-opacity="0">REF**</text>
<g class="stroked-text"><desc>REF**</desc>
<path d="M10.9083 7.0298
L11.2417 6.5536
" />
<path d="M11.4798 7.0298
L11.4798 6.0298
" />
<path d="M11.4798 6.0298
L11.0988 6.0298
" />
<path d="M11.0988 6.0298
L11.0036 6.0774
" />
<path d="M11.0036 6.0774
L10.9560 6.1251
" />
<path d="M10.9560 6.1251
L10.9083 6.2203
" />
<path d="M10.9083 6.2203
L10.9083 6.3632
" />
<path d="M10.9083 6.3632
L10.9560 6.4584
" />
<path d="M10.9560 6.4584
L11.0036 6.5060
" />
<path d="M11.0036 6.5060
L11.0988 6.5536
" />
<path d="M11.0988 6.5536
L11.4798 6.5536
" />
<path d="M10.4798 6.5060
L10.1464 6.5060
" />
<path d="M10.0036 7.0298
L10.4798 7.0298
" />
<path d="M10.4798 7.0298
L10.4798 6.0298
" />
<path d="M10.4798 6.0298
L10.0036 6.0298
" />
<path d="M9.2417 6.5060
L9.5750 6.5060
" />
<path d="M9.5750 7.0298
L9.5750 6.0298
" />
<path d="M9.5750 6.0298
L9.0988 6.0298
" />
<path d="M8.5750 6.0298
L8.5750 6.2679
" />
<path d="M8.8131 6.1727
L8.5750 6.2679
" />
<path d="M8.5750 6.2679
L8.3369 6.1727
" />
<path d="M8.7179 6.4584
L8.5750 6.2679
" />
<path d="M8.5750 6.2679
L8.4321 6.4584
" />
<path d="M7.8131 6.0298
L7.8131 6.2679
" />
<path d="M8.0512 6.1727
L7.8131 6.2679
" />
<path d="M7.8131 6.2679
L7.5750 6.1727
" />
<path d="M7.9560 6.4584
L7.8131 6.2679
" />
<path d="M7.8131 6.2679
L7.6702 6.4584
" />
</g></g>
<g style="fill:#C83434; fill-opacity:1.0000; stroke:none;">
<circle cx="7.0750" cy="17.0750" r="0.6000" /> 
</g>
<g style="fill:#C83434; fill-opacity:1.0000; stroke:none;">
<circle cx="12.0750" cy="17.0750" r="0.6000" /> 
</g>
<g style="fill:#C83434; fill-opacity:1.0000; stroke:none;">
<circle cx="9.5750" cy="17.0750" r="0.6000" /> 
<path style="fill:#C83434; fill-opacity:1.0000; stroke:none;fill-rule:evenodd;"
d="M 3.0450,8.3250
3.0640,8.2293
3.1182,8.1482
3.1993,8.0940
3.2950,8.0750
4.7950,8.0750
5.5450,8.8250
5.5450,10.3250
4.7950,11.0750
3.2950,11.0750
3.1993,11.0560
3.1182,11.0018
3.0640,10.9207
3.0450,10.8250
Z" /> 
<path style="fill:#C83434; fill-opacity:1.0000; stroke:none;fill-rule:evenodd;"
d="M 16.1050,10.8250
16.0860,10.9207
16.0318,11.0018
15.9507,11.0560
15.8550,11.0750
14.1050,11.0750
13.6050,10.5750
13.6050,8.5750
14.1050,8.0750
15.8550,8.0750
15.9507,8.0940
16.0318,8.1482
16.0860,8.2293
16.1050,8.3250
Z" /> 
</g>
<g style="fill:#C83434; fill-opacity:1.0000; stroke:none;">
<circle cx="5.7650" cy="7.0350" r="1.1500" /> 
</g>
<g style="fill:#C83434; fill-opacity:1.0000; stroke:none;">
<circle cx="7.0750" cy="2.5750" r="0.6000" /> 
</g>
<g style="fill:#C83434; fill-opacity:1.0000; stroke:none;">
<circle cx="12.0750" cy="2.5750" r="0.6000" /> 
</g>
<g style="fill:#C83434; fill-opacity:1.0000; stroke:none;">
<circle cx="12.1150" cy="4.4950" r="1.1500" /> 
</g>
<g style="fill:#4D7FC4; fill-opacity:1.0000; stroke:none;">
<circle cx="7.0750" cy="17.0750" r="0.6000" /> 
</g>
<g style="fill:#4D7FC4; fill-opacity:1.0000; stroke:none;">
<circle cx="12.0750" cy="17.0750" r="0.6000" /> 
</g>
<g style="fill:#4D7FC4; fill-opacity:1.0000; stroke:none;">
<circle cx="9.5750" cy="17.0750" r="0.6000" /> 
<path style="fill:#4D7FC4; fill-opacity:1.0000; stroke:none;fill-rule:evenodd;"
d="M 3.0450,8.3250
3.0640,8.2293
3.1182,8.1482
3.1993,8.0940
3.2950,8.0750
4.7950,8.0750
5.5450,8.8250
5.5450,10.3250
4.7950,11.0750
3.2950,11.0750
3.1993,11.0560
3.1182,11.0018
3.0640,10.9207
3.0450,10.8250
Z" /> 
<path style="fill:#4D7FC4; fill-opacity:1.0000; stroke:none;fill-rule:evenodd;"
d="M 16.1050,10.8250
16.0860,10.9207
16.0318,11.0018
15.9507,11.0560
15.8550,11.0750
14.1050,11.0750
13.6050,10.5750
13.6050,8.5750
14.1050,8.0750
15.8550,8.0750
15.9507,8.0940
16.0318,8.1482
16.0860,8.2293
16.1050,8.3250
Z" /> 
</g>
<g style="fill:#4D7FC4; fill-opacity:1.0000; stroke:none;">
<circle cx="5.7650" cy="7.0350" r="1.1500" /> 
</g>
<g style="fill:#4D7FC4; fill-opacity:1.0000; stroke:none;">
<circle cx="7.0750" cy="2.5750" r="0.6000" /> 
</g>
<g style="fill:#4D7FC4; fill-opacity:1.0000; stroke:none;">
<circle cx="12.0750" cy="2.5750" r="0.6000" /> 
</g>
<g style="fill:#4D7FC4; fill-opacity:1.0000; stroke:none;">
<circle cx="12.1150" cy="4.4950" r="1.1500" /> 
<path style="fill:none; 
stroke:#AFAFAF; stroke-width:0.0500; stroke-opacity:1; 
stroke-linecap:round; stroke-linejoin:round;fill:none"
d="M 2.5750,2.5750
16.5750,2.5750
16.5750,16.5750
2.5750,16.5750
Z" /> 
</g>
<g style="fill:none; 
stroke:#AFAFAF; stroke-width:0.0212; stroke-opacity:1; 
stroke-linecap:round; stroke-linejoin:round;">
<circle cx="9.5750" cy="9.5750" r="2.0000" /> 
</g>
<g style="fill:none; 
stroke:#AFAFAF; stroke-width:0.0333; stroke-opacity:1; 
stroke-linecap:round; stroke-linejoin:round;">
<text x="7.0750" y="17.2750"
textLength="0.3629" font-size="0.5333" lengthAdjust="spacingAndGlyphs"
text-anchor="middle" opacity="0" stroke-opacity="0">A</text>
<g class="stroked-text"><desc>A</desc>
<path d="M6.9798 17.1440
L7.1702 17.1440
" />
<path d="M6.9417 17.2583
L7.0750 16.8583
" />
<path d="M7.0750 16.8583
L7.2083 17.2583
" />
</g></g>
<g style="fill:none; 
stroke:#AFAFAF; stroke-width:0.0212; stroke-opacity:1; 
stroke-linecap:round; stroke-linejoin:round;">
<circle cx="7.0750" cy="17.0750" r="0.6000" /> 
</g>
<g style="fill:none; 
stroke:#AFAFAF; stroke-width:0.0333; stroke-opacity:1; 
stroke-linecap:round; stroke-linejoin:round;">
<text x="12.0750" y="17.2750"
textLength="0.4200" font-size="0.5333" lengthAdjust="spacingAndGlyphs"
text-anchor="middle" opacity="0" stroke-opacity="0">B</text>
<g class="stroked-text"><desc>B</desc>
<path d="M12.1036 17.0488
L12.1607 17.0678
" />
<path d="M12.1607 17.0678
L12.1798 17.0869
" />
<path d="M12.1798 17.0869
L12.1988 17.1250
" />
<path d="M12.1988 17.1250
L12.1988 17.1821
" />
<path d="M12.1988 17.1821
L12.1798 17.2202
" />
<path d="M12.1798 17.2202
L12.1607 17.2393
" />
<path d="M12.1607 17.2393
L12.1226 17.2583
" />
<path d="M12.1226 17.2583
L11.9702 17.2583
" />
<path d="M11.9702 17.2583
L11.9702 16.8583
" />
<path d="M11.9702 16.8583
L12.1036 16.8583
" />
<path d="M12.1036 16.8583
L12.1417 16.8774
" />
<path d="M12.1417 16.8774
L12.1607 16.8964
" />
<path d="M12.1607 16.8964
L12.1798 16.9345
" />
<path d="M12.1798 16.9345
L12.1798 16.9726
" />
<path d="M12.1798 16.9726
L12.1607 17.0107
" />
<path d="M12.1607 17.0107
L12.1417 17.0297
" />
<path d="M12.1417 17.0297
L12.1036 17.0488
" />
<path d="M12.1036 17.0488
L11.9702 17.0488
" />
</g></g>
<g style="fill:none; 
stroke:#AFAFAF; stroke-width:0.0212; stroke-opacity:1; 
stroke-linecap:round; stroke-linejoin:round;">
<circle cx="12.0750" cy="17.0750" r="0.6000" /> 
</g>
<g style="fill:none; 
stroke:#AFAFAF; stroke-width:0.0333; stroke-opacity:1; 
stroke-linecap:round; stroke-linejoin:round;">
<text x="9.5750" y="17.2750"
textLength="0.4200" font-size="0.5333" lengthAdjust="spacingAndGlyphs"
text-anchor="middle" opacity="0" stroke-opacity="0">C</text>
<g class="stroked-text"><desc>C</desc>
<path d="M9.6988 17.2202
L9.6798 17.2393
" />
<path d="M9.6798 17.2393
L9.6226 17.2583
" />
<path d="M9.6226 17.2583
L9.5845 17.2583
" />
<path d="M9.5845 17.2583
L9.5274 17.2393
" />
<path d="M9.5274 17.2393
L9.4893 17.2012
" />
<path d="M9.4893 17.2012
L9.4702 17.1631
" />
<path d="M9.4702 17.1631
L9.4512 17.0869
" />
<path d="M9.4512 17.0869
L9.4512 17.0297
" />
<path d="M9.4512 17.0297
L9.4702 16.9536
" />
<path d="M9.4702 16.9536
L9.4893 16.9155
" />
<path d="M9.4893 16.9155
L9.5274 16.8774
" />
<path d="M9.5274 16.8774
L9.5845 16.8583
" />
<path d="M9.5845 16.8583
L9.6226 16.8583
" />
<path d="M9.6226 16.8583
L9.6798 16.8774
" />
<path d="M9.6798 16.8774
L9.6988 16.8964
" />
</g></g>
<g style="fill:none; 
stroke:#AFAFAF; stroke-width:0.0212; stroke-opacity:1; 
stroke-linecap:round; stroke-linejoin:round;">
<circle cx="9.5750" cy="17.0750" r="0.6000" /> 
</g>
<g style="fill:none; 
stroke:#AFAFAF; stroke-width:0.0833; stroke-opacity:1; 
stroke-linecap:round; stroke-linejoin:round;">
<g transform="rotate(-90.000000 4.2950 9.5750)">
<text x="4.2950" y="10.0750"
textLength="2.1929" font-size="1.3333" lengthAdjust="spacingAndGlyphs"
text-anchor="middle" opacity="0" stroke-opacity="0">MP</text>
</g>
<g class="stroked-text"><desc>MP</desc>
<path d="M4.7533 10.4083
L3.7533 10.4083
" />
<path d="M3.7533 10.4083
L4.4676 10.0750
" />
<path d="M4.4676 10.0750
L3.7533 9.7417
" />
<path d="M3.7533 9.7417
L4.7533 9.7417
" />
<path d="M4.7533 9.2655
L3.7533 9.2655
" />
<path d="M3.7533 9.2655
L3.7533 8.8845
" />
<path d="M3.7533 8.8845
L3.8009 8.7893
" />
<path d="M3.8009 8.7893
L3.8485 8.7417
" />
<path d="M3.8485 8.7417
L3.9438 8.6940
" />
<path d="M3.9438 8.6940
L4.0866 8.6940
" />
<path d="M4.0866 8.6940
L4.1819 8.7417
" />
<path d="M4.1819 8.7417
L4.2295 8.7893
" />
<path d="M4.2295 8.7893
L4.2771 8.8845
" />
<path d="M4.2771 8.8845
L4.2771 9.2655
" />
</g><path style="fill:none; 
stroke:#AFAFAF; stroke-width:0.0212; stroke-opacity:1; 
stroke-linecap:round; stroke-linejoin:round;fill:none"
d="M 3.0450,8.3250
3.0640,8.2293
3.1182,8.1482
3.1993,8.0940
3.2950,8.0750
4.7950,8.0750
5.5450,8.8250
5.5450,10.3250
4.7950,11.0750
3.2950,11.0750
3.1993,11.0560
3.1182,11.0018
3.0640,10.9207
3.0450,10.8250
Z" /> 
</g>
<g style="fill:none; 
stroke:#AFAFAF; stroke-width:0.0833; stroke-opacity:1; 
stroke-linecap:round; stroke-linejoin:round;">
<g transform="rotate(-90.000000 14.8550 9.5750)">
<text x="14.8550" y="10.0750"
textLength="2.1929" font-size="1.3333" lengthAdjust="spacingAndGlyphs"
text-anchor="middle" opacity="0" stroke-opacity="0">MP</text>
</g>
<g class="stroked-text"><desc>MP</desc>
<path d="M15.3133 10.4083
L14.3133 10.4083
" />
<path d="M14.3133 10.4083
L15.0276 10.0750
" />
<path d="M15.0276 10.0750
L14.3133 9.7417
" />
<path d="M14.3133 9.7417
L15.3133 9.7417
" />
<path d="M15.3133 9.2655
L14.3133 9.2655
" />
<path d="M14.3133 9.2655
L14.3133 8.8845
" />
<path d="M14.3133 8.8845
L14.3609 8.7893
" />
<path d="M14.3609 8.7893
L14.4085 8.7417
" />
<path d="M14.4085 8.7417
L14.5038 8.6940
" />
<path d="M14.5038 8.6940
L14.6466 8.6940
" />
<path d="M14.6466 8.6940
L14.7419 8.7417
" />
<path d="M14.7419 8.7417
L14.7895 8.7893
" />
<path d="M14.7895 8.7893
L14.8371 8.8845
" />
<path d="M14.8371 8.8845
L14.8371 9.2655
" />
</g><path style="fill:none; 
stroke:#AFAFAF; stroke-width:0.0212; stroke-opacity:1; 
stroke-linecap:round; stroke-linejoin:round;fill:none"
d="M 16.1050,10.8250
16.0860,10.9207
16.0318,11.0018
15.9507,11.0560
15.8550,11.0750
14.1050,11.0750
13.6050,10.5750
13.6050,8.5750
14.1050,8.0750
15.8550,8.0750
15.9507,8.0940
16.0318,8.1482
16.0860,8.2293
16.1050,8.3250
Z" /> 
</g>
<g style="fill:none; 
stroke:#AFAFAF; stroke-width:0.0639; stroke-opacity:1; 
stroke-linecap:round; stroke-linejoin:round;">
<text x="5.7650" y="7.4183"
textLength="1.4987" font-size="1.0222" lengthAdjust="spacingAndGlyphs"
text-anchor="middle" opacity="0" stroke-opacity="0">S1</text>
<g class="stroked-text"><desc>S1</desc>
<path d="M5.1809 7.3498
L5.2904 7.3864
" />
<path d="M5.2904 7.3864
L5.4729 7.3864
" />
<path d="M5.4729 7.3864
L5.5460 7.3498
" />
<path d="M5.5460 7.3498
L5.5825 7.3133
" />
<path d="M5.5825 7.3133
L5.6190 7.2403
" />
<path d="M5.6190 7.2403
L5.6190 7.1673
" />
<path d="M5.6190 7.1673
L5.5825 7.0943
" />
<path d="M5.5825 7.0943
L5.5460 7.0578
" />
<path d="M5.5460 7.0578
L5.4729 7.0213
" />
<path d="M5.4729 7.0213
L5.3269 6.9848
" />
<path d="M5.3269 6.9848
L5.2539 6.9483
" />
<path d="M5.2539 6.9483
L5.2174 6.9117
" />
<path d="M5.2174 6.9117
L5.1809 6.8387
" />
<path d="M5.1809 6.8387
L5.1809 6.7657
" />
<path d="M5.1809 6.7657
L5.2174 6.6927
" />
<path d="M5.2174 6.6927
L5.2539 6.6562
" />
<path d="M5.2539 6.6562
L5.3269 6.6197
" />
<path d="M5.3269 6.6197
L5.5094 6.6197
" />
<path d="M5.5094 6.6197
L5.6190 6.6562
" />
<path d="M6.3491 7.3864
L5.9110 7.3864
" />
<path d="M6.1301 7.3864
L6.1301 6.6197
" />
<path d="M6.1301 6.6197
L6.0571 6.7292
" />
<path d="M6.0571 6.7292
L5.9840 6.8022
" />
<path d="M5.9840 6.8022
L5.9110 6.8387
" />
</g></g>
<g style="fill:none; 
stroke:#AFAFAF; stroke-width:0.0212; stroke-opacity:1; 
stroke-linecap:round; stroke-linejoin:round;">
<circle cx="5.7650" cy="7.0350" r="1.1500" /> 
</g>
<g style="fill:none; 
stroke:#AFAFAF; stroke-width:0.0333; stroke-opacity:1; 
stroke-linecap:round; stroke-linejoin:round;">
<text x="7.0750" y="2.7750"
textLength="0.7819" font-size="0.5333" lengthAdjust="spacingAndGlyphs"
text-anchor="middle" opacity="0" stroke-opacity="0">S1</text>
<g class="stroked-text"><desc>S1</desc>
<path d="M6.7702 2.7393
L6.8274 2.7583
" />
<path d="M6.8274 2.7583
L6.9226 2.7583
" />
<path d="M6.9226 2.7583
L6.9607 2.7393
" />
<path d="M6.9607 2.7393
L6.9798 2.7202
" />
<path d="M6.9798 2.7202
L6.9988 2.6821
" />
<path d="M6.9988 2.6821
L6.9988 2.6440
" />
<path d="M6.9988 2.6440
L6.9798 2.6059
" />
<path d="M6.9798 2.6059
L6.9607 2.5869
" />
<path d="M6.9607 2.5869
L6.9226 2.5678
" />
<path d="M6.9226 2.5678
L6.8464 2.5488
" />
<path d="M6.8464 2.5488
L6.8083 2.5297
" />
<path d="M6.8083 2.5297
L6.7893 2.5107
" />
<path d="M6.7893 2.5107
L6.7702 2.4726
" />
<path d="M6.7702 2.4726
L6.7702 2.4345
" />
<path d="M6.7702 2.4345
L6.7893 2.3964
" />
<path d="M6.7893 2.3964
L6.8083 2.3774
" />
<path d="M6.8083 2.3774
L6.8464 2.3583
" />
<path d="M6.8464 2.3583
L6.9417 2.3583
" />
<path d="M6.9417 2.3583
L6.9988 2.3774
" />
<path d="M7.3798 2.7583
L7.1512 2.7583
" />
<path d="M7.2655 2.7583
L7.2655 2.3583
" />
<path d="M7.2655 2.3583
L7.2274 2.4155
" />
<path d="M7.2274 2.4155
L7.1893 2.4536
" />
<path d="M7.1893 2.4536
L7.1512 2.4726
" />
</g></g>
<g style="fill:none; 
stroke:#AFAFAF; stroke-width:0.0212; stroke-opacity:1; 
stroke-linecap:round; stroke-linejoin:round;">
<circle cx="7.0750" cy="2.5750" r="0.6000" /> 
</g>
<g style="fill:none; 
stroke:#AFAFAF; stroke-width:0.0333; stroke-opacity:1; 
stroke-linecap:round; stroke-linejoin:round;">
<text x="12.0750" y="2.7750"
textLength="0.7819" font-size="0.5333" lengthAdjust="spacingAndGlyphs"
text-anchor="middle" opacity="0" stroke-opacity="0">S2</text>
<g class="stroked-text"><desc>S2</desc>
<path d="M11.7702 2.7393
L11.8274 2.7583
" />
<path d="M11.8274 2.7583
L11.9226 2.7583
" />
<path d="M11.9226 2.7583
L11.9607 2.7393
" />
<path d="M11.9607 2.7393
L11.9798 2.7202
" />
<path d="M11.9798 2.7202
L11.9988 2.6821
" />
<path d="M11.9988 2.6821
L11.9988 2.6440
" />
<path d="M11.9988 2.6440
L11.9798 2.6059
" />
<path d="M11.9798 2.6059
L11.9607 2.5869
" />
<path d="M11.9607 2.5869
L11.9226 2.5678
" />
<path d="M11.9226 2.5678
L11.8464 2.5488
" />
<path d="M11.8464 2.5488
L11.8083 2.5297
" />
<path d="M11.8083 2.5297
L11.7893 2.5107
" />
<path d="M11.7893 2.5107
L11.7702 2.4726
" />
<path d="M11.7702 2.4726
L11.7702 2.4345
" />
<path d="M11.7702 2.4345
L11.7893 2.3964
" />
<path d="M11.7893 2.3964
L11.8083 2.3774
" />
<path d="M11.8083 2.3774
L11.8464 2.3583
" />
<path d="M11.8464 2.3583
L11.9417 2.3583
" />
<path d="M11.9417 2.3583
L11.9988 2.3774
" />
<path d="M12.1512 2.3964
L12.1702 2.3774
" />
<path d="M12.1702 2.3774
L12.2083 2.3583
" />
<path d="M12.2083 2.3583
L12.3036 2.3583
" />
<path d="M12.3036 2.3583
L12.3417 2.3774
" />
<path d="M12.3417 2.3774
L12.3607 2.3964
" />
<path d="M12.3607 2.3964
L12.3798 2.4345
" />
<path d="M12.3798 2.4345
L12.3798 2.4726
" />
<path d="M12.3798 2.4726
L12.3607 2.5297
" />
<path d="M12.3607 2.5297
L12.1321 2.7583
" />
<path d="M12.1321 2.7583
L12.3798 2.7583
" />
</g></g>
<g style="fill:none; 
stroke:#AFAFAF; stroke-width:0.0212; stroke-opacity:1; 
stroke-linecap:round; stroke-linejoin:round;">
<circle cx="12.0750" cy="2.5750" r="0.6000" /> 
</g>
<g style="fill:none; 
stroke:#AFAFAF; stroke-width:0.0639; stroke-opacity:1; 
stroke-linecap:round; stroke-linejoin:round;">
<text x="12.1150" y="4.8783"
textLength="1.4987" font-size="1.0222" lengthAdjust="spacingAndGlyphs"
text-anchor="middle" opacity="0" stroke-opacity="0">S2</text>
<g class="stroked-text"><desc>S2</desc>
<path d="M11.5309 4.8098
L11.6404 4.8464
" />
<path d="M11.6404 4.8464
L11.8229 4.8464
" />
<path d="M11.8229 4.8464
L11.8960 4.8098
" />
<path d="M11.8960 4.8098
L11.9325 4.7733
" />
<path d="M11.9325 4.7733
L11.9690 4.7003
" />
<path d="M11.9690 4.7003
L11.9690 4.6273
" />
<path d="M11.9690 4.6273
L11.9325 4.5543
" />
<path d="M11.9325 4.5543
L11.8960 4.5178
" />
<path d="M11.8960 4.5178
L11.8229 4.4813
" />
<path d="M11.8229 4.4813
L11.6769 4.4448
" />
<path d="M11.6769 4.4448
L11.6039 4.4083
" />
<path d="M11.6039 4.4083
L11.5674 4.3717
" />
<path d="M11.5674 4.3717
L11.5309 4.2987
" />
<path d="M11.5309 4.2987
L11.5309 4.2257
" />
<path d="M11.5309 4.2257
L11.5674 4.1527
" />
<path d="M11.5674 4.1527
L11.6039 4.1162
" />
<path d="M11.6039 4.1162
L11.6769 4.0797
" />
<path d="M11.6769 4.0797
L11.8594 4.0797
" />
<path d="M11.8594 4.0797
L11.9690 4.1162
" />
<path d="M12.2610 4.1527
L12.2975 4.1162
" />
<path d="M12.2975 4.1162
L12.3706 4.0797
" />
<path d="M12.3706 4.0797
L12.5531 4.0797
" />
<path d="M12.5531 4.0797
L12.6261 4.1162
" />
<path d="M12.6261 4.1162
L12.6626 4.1527
" />
<path d="M12.6626 4.1527
L12.6991 4.2257
" />
<path d="M12.6991 4.2257
L12.6991 4.2987
" />
<path d="M12.6991 4.2987
L12.6626 4.4083
" />
<path d="M12.6626 4.4083
L12.2245 4.8464
" />
<path d="M12.2245 4.8464
L12.6991 4.8464
" />
</g></g>
<g style="fill:none; 
stroke:#AFAFAF; stroke-width:0.0212; stroke-opacity:1; 
stroke-linecap:round; stroke-linejoin:round;">
<circle cx="12.1150" cy="4.4950" r="1.1500" /> 
</g>
<g style="fill:none; 
stroke:#585D84; stroke-width:0.1500; stroke-opacity:1; 
stroke-linecap:round; stroke-linejoin:round;">
<text x="9.5750" y="19.4750"
transform="scale(-1 1) translate(-19.150000 0)"
textLength="18.3452" font-size="1.3333" lengthAdjust="spacingAndGlyphs"
text-anchor="middle" opacity="0" stroke-opacity="0">SW_MX_EC11_THT_sqSilk</text>
<g class="stroked-text"><desc>SW_MX_EC11_THT_sqSilk</desc>
<path d="M18.4321 19.3822
L18.2893 19.4298
" />
<path d="M18.2893 19.4298
L18.0512 19.4298
" />
<path d="M18.0512 19.4298
L17.9560 19.3822
" />
<path d="M17.9560 19.3822
L17.9083 19.3346
" />
<path d="M17.9083 19.3346
L17.8607 19.2393
" />
<path d="M17.8607 19.2393
L17.8607 19.1441
" />
<path d="M17.8607 19.1441
L17.9083 19.0489
" />
<path d="M17.9083 19.0489
L17.9560 19.0012
" />
<path d="M17.9560 19.0012
L18.0512 18.9536
" />
<path d="M18.0512 18.9536
L18.2417 18.9060
" />
<path d="M18.2417 18.9060
L18.3369 18.8584
" />
<path d="M18.3369 18.8584
L18.3845 18.8108
" />
<path d="M18.3845 18.8108
L18.4321 18.7155
" />
<path d="M18.4321 18.7155
L18.4321 18.6203
" />
<path d="M18.4321 18.6203
L18.3845 18.5251
" />
<path d="M18.3845 18.5251
L18.3369 18.4774
" />
<path d="M18.3369 18.4774
L18.2417 18.4298
" />
<path d="M18.2417 18.4298
L18.0036 18.4298
" />
<path d="M18.0036 18.4298
L17.8607 18.4774
" />
<path d="M17.5274 18.4298
L17.2893 19.4298
" />
<path d="M17.2893 19.4298
L17.0988 18.7155
" />
<path d="M17.0988 18.7155
L16.9083 19.4298
" />
<path d="M16.9083 19.4298
L16.6702 18.4298
" />
<path d="M16.5274 19.5251
L15.7655 19.5251
" />
<path d="M15.5274 19.4298
L15.5274 18.4298
" />
<path d="M15.5274 18.4298
L15.1940 19.1441
" />
<path d="M15.1940 19.1441
L14.8607 18.4298
" />
<path d="M14.8607 18.4298
L14.8607 19.4298
" />
<path d="M14.4798 18.4298
L13.8131 19.4298
" />
<path d="M13.8131 18.4298
L14.4798 19.4298
" />
<path d="M13.6702 19.5251
L12.9083 19.5251
" />
<path d="M12.6702 18.9060
L12.3369 18.9060
" />
<path d="M12.1940 19.4298
L12.6702 19.4298
" />
<path d="M12.6702 19.4298
L12.6702 18.4298
" />
<path d="M12.6702 18.4298
L12.1940 18.4298
" />
<path d="M11.1940 19.3346
L11.2417 19.3822
" />
<path d="M11.2417 19.3822
L11.3845 19.4298
" />
<path d="M11.3845 19.4298
L11.4798 19.4298
" />
<path d="M11.4798 19.4298
L11.6226 19.3822
" />
<path d="M11.6226 19.3822
L11.7179 19.2870
" />
<path d="M11.7179 19.2870
L11.7655 19.1917
" />
<path d="M11.7655 19.1917
L11.8131 19.0012
" />
<path d="M11.8131 19.0012
L11.8131 18.8584
" />
<path d="M11.8131 18.8584
L11.7655 18.6679
" />
<path d="M11.7655 18.6679
L11.7179 18.5727
" />
<path d="M11.7179 18.5727
L11.6226 18.4774
" />
<path d="M11.6226 18.4774
L11.4798 18.4298
" />
<path d="M11.4798 18.4298
L11.3845 18.4298
" />
<path d="M11.3845 18.4298
L11.2417 18.4774
" />
<path d="M11.2417 18.4774
L11.1940 18.5251
" />
<path d="M10.2417 19.4298
L10.8131 19.4298
" />
<path d="M10.5274 19.4298
L10.5274 18.4298
" />
<path d="M10.5274 18.4298
L10.6226 18.5727
" />
<path d="M10.6226 18.5727
L10.7179 18.6679
" />
<path d="M10.7179 18.6679
L10.8131 18.7155
" />
<path d="M9.2893 19.4298
L9.8607 19.4298
" />
<path d="M9.5750 19.4298
L9.5750 18.4298
" />
<path d="M9.5750 18.4298
L9.6702 18.5727
" />
<path d="M9.6702 18.5727
L9.7655 18.6679
" />
<path d="M9.7655 18.6679
L9.8607 18.7155
" />
<path d="M9.0988 19.5251
L8.3369 19.5251
" />
<path d="M8.2417 18.4298
L7.6702 18.4298
" />
<path d="M7.9560 19.4298
L7.9560 18.4298
" />
<path d="M7.3369 19.4298
L7.3369 18.4298
" />
<path d="M7.3369 18.9060
L6.7655 18.9060
" />
<path d="M6.7655 19.4298
L6.7655 18.4298
" />
<path d="M6.4321 18.4298
L5.8607 18.4298
" />
<path d="M6.1464 19.4298
L6.1464 18.4298
" />
<path d="M5.7655 19.5251
L5.0036 19.5251
" />
<path d="M4.8131 19.3822
L4.7179 19.4298
" />
<path d="M4.7179 19.4298
L4.5274 19.4298
" />
<path d="M4.5274 19.4298
L4.4321 19.3822
" />
<path d="M4.4321 19.3822
L4.3845 19.2870
" />
<path d="M4.3845 19.2870
L4.3845 19.2393
" />
<path d="M4.3845 19.2393
L4.4321 19.1441
" />
<path d="M4.4321 19.1441
L4.5274 19.0965
" />
<path d="M4.5274 19.0965
L4.6702 19.0965
" />
<path d="M4.6702 19.0965
L4.7655 19.0489
" />
<path d="M4.7655 19.0489
L4.8131 18.9536
" />
<path d="M4.8131 18.9536
L4.8131 18.9060
" />
<path d="M4.8131 18.9060
L4.7655 18.8108
" />
<path d="M4.7655 18.8108
L4.6702 18.7632
" />
<path d="M4.6702 18.7632
L4.5274 18.7632
" />
<path d="M4.5274 18.7632
L4.4321 18.8108
" />
<path d="M3.5274 18.7632
L3.5274 19.7632
" />
<path d="M3.5274 19.3822
L3.6226 19.4298
" />
<path d="M3.6226 19.4298
L3.8131 19.4298
" />
<path d="M3.8131 19.4298
L3.9083 19.3822
" />
<path d="M3.9083 19.3822
L3.9560 19.3346
" />
<path d="M3.9560 19.3346
L4.0036 19.2393
" />
<path d="M4.0036 19.2393
L4.0036 18.9536
" />
<path d="M4.0036 18.9536
L3.9560 18.8584
" />
<path d="M3.9560 18.8584
L3.9083 18.8108
" />
<path d="M3.9083 18.8108
L3.8131 18.7632
" />
<path d="M3.8131 18.7632
L3.6226 18.7632
" />
<path d="M3.6226 18.7632
L3.5274 18.8108
" />
<path d="M3.0988 19.3822
L2.9560 19.4298
" />
<path d="M2.9560 19.4298
L2.7179 19.4298
" />
<path d="M2.7179 19.4298
L2.6226 19.3822
" />
<path d="M2.6226 19.3822
L2.5750 19.3346
" />
<path d="M2.5750 19.3346
L2.5274 19.2393
" />
<path d="M2.5274 19.2393
L2.5274 19.1441
" />
<path d="M2.5274 19.1441
L2.5750 19.0489
" />
<path d="M2.5750 19.0489
L2.6226 19.0012
" />
<path d="M2.6226 19.0012
L2.7179 18.9536
" />
<path d="M2.7179 18.9536
L2.9083 18.9060
" />
<path d="M2.9083 18.9060
L3.0036 18.8584
" />
<path d="M3.0036 18.8584
L3.0512 18.8108
" />
<path d="M3.0512 18.8108
L3.0988 18.7155
" />
<path d="M3.0988 18.7155
L3.0988 18.6203
" />
<path d="M3.0988 18.6203
L3.0512 18.5251
" />
<path d="M3.0512 18.5251
L3.0036 18.4774
" />
<path d="M3.0036 18.4774
L2.9083 18.4298
" />
<path d="M2.9083 18.4298
L2.6702 18.4298
" />
<path d="M2.6702 18.4298
L2.5274 18.4774
" />
<path d="M2.0988 19.4298
L2.0988 18.7632
" />
<path d="M2.0988 18.4298
L2.1464 18.4774
" />
<path d="M2.1464 18.4774
L2.0988 18.5251
" />
<path d="M2.0988 18.5251
L2.0512 18.4774
" />
<path d="M2.0512 18.4774
L2.0988 18.4298
" />
<path d="M2.0988 18.4298
L2.0988 18.5251
" />
<path d="M1.4798 19.4298
L1.5750 19.3822
" />
<path d="M1.5750 19.3822
L1.6226 19.2870
" />
<path d="M1.6226 19.2870
L1.6226 18.4298
" />
<path d="M1.0988 19.4298
L1.0988 18.4298
" />
<path d="M1.0036 19.0489
L0.7179 19.4298
" />
<path d="M0.7179 18.7632
L1.0988 19.1441
" />
</g><text x="9.5750" y="21.0750"
transform="scale(-1 1) translate(-19.150000 0)"
textLength="4.5357" font-size="1.3333" lengthAdjust="spacingAndGlyphs"
text-anchor="middle" opacity="0" stroke-opacity="0">REF**</text>
<g class="stroked-text"><desc>REF**</desc>
<path d="M10.9083 21.0298
L11.2417 20.5536
" />
<path d="M11.4798 21.0298
L11.4798 20.0298
" />
<path d="M11.4798 20.0298
L11.0988 20.0298
" />
<path d="M11.0988 20.0298
L11.0036 20.0774
" />
<path d="M11.0036 20.0774
L10.9560 20.1251
" />
<path d="M10.9560 20.1251
L10.9083 20.2203
" />
<path d="M10.9083 20.2203
L10.9083 20.3632
" />
<path d="M10.9083 20.3632
L10.9560 20.4584
" />
<path d="M10.9560 20.4584
L11.0036 20.5060
" />
<path d="M11.0036 20.5060
L11.0988 20.5536
" />
<path d="M11.0988 20.5536
L11.4798 20.5536
" />
<path d="M10.4798 20.5060
L10.1464 20.5060
" />
<path d="M10.0036 21.0298
L10.4798 21.0298
" />
<path d="M10.4798 21.0298
L10.4798 20.0298
" />
<path d="M10.4798 20.0298
L10.0036 20.0298
" />
<path d="M9.2417 20.5060
L9.5750 20.5060
" />
<path d="M9.5750 21.0298
L9.5750 20.0298
" />
<path d="M9.5750 20.0298
L9.0988 20.0298
" />
<path d="M8.5750 20.0298
L8.5750 20.2679
" />
<path d="M8.8131 20.1727
L8.5750 20.2679
" />
<path d="M8.5750 20.2679
L8.3369 20.1727
" />
<path d="M8.7179 20.4584
L8.5750 20.2679
" />
<path d="M8.5750 20.2679
L8.4321 20.4584
" />
<path d="M7.8131 20.0298
L7.8131 20.2679
" />
<path d="M8.0512 20.1727
L7.8131 20.2679
" />
<path d="M7.8131 20.2679
L7.5750 20.1727
" />
<path d="M7.9560 20.4584
L7.8131 20.2679
" />
<path d="M7.8131 20.2679
L7.6702 20.4584
" />
</g></g>
<g style="fill:none; 
stroke:#585D84; stroke-width:0.0212; stroke-opacity:1; 
stroke-linecap:round; stroke-linejoin:round;">
<circle cx="9.5750" cy="9.5750" r="2.0000" /> 
</g>
<g style="fill:none; 
stroke:#585D84; stroke-width:0.0333; stroke-opacity:1; 
stroke-linecap:round; stroke-linejoin:round;">
<text x="7.0750" y="17.2750"
textLength="0.3629" font-size="0.5333" lengthAdjust="spacingAndGlyphs"
text-anchor="middle" opacity="0" stroke-opacity="0">A</text>
<g class="stroked-text"><desc>A</desc>
<path d="M6.9798 17.1440
L7.1702 17.1440
" />
<path d="M6.9417 17.2583
L7.0750 16.8583
" />
<path d="M7.0750 16.8583
L7.2083 17.2583
" />
</g></g>
<g style="fill:none; 
stroke:#585D84; stroke-width:0.0212; stroke-opacity:1; 
stroke-linecap:round; stroke-linejoin:round;">
<circle cx="7.0750" cy="17.0750" r="0.6000" /> 
</g>
<g style="fill:none; 
stroke:#585D84; stroke-width:0.0333; stroke-opacity:1; 
stroke-linecap:round; stroke-linejoin:round;">
<text x="12.0750" y="17.2750"
textLength="0.4200" font-size="0.5333" lengthAdjust="spacingAndGlyphs"
text-anchor="middle" opacity="0" stroke-opacity="0">B</text>
<g class="stroked-text"><desc>B</desc>
<path d="M12.1036 17.0488
L12.1607 17.0678
" />
<path d="M12.1607 17.0678
L12.1798 17.0869
" />
<path d="M12.1798 17.0869
L12.1988 17.1250
" />
<path d="M12.1988 17.1250
L12.1988 17.1821
" />
<path d="M12.1988 17.1821
L12.1798 17.2202
" />
<path d="M12.1798 17.2202
L12.1607 17.2393
" />
<path d="M12.1607 17.2393
L12.1226 17.2583
" />
<path d="M12.1226 17.2583
L11.9702 17.2583
" />
<path d="M11.9702 17.2583
L11.9702 16.8583
" />
<path d="M11.9702 16.8583
L12.1036 16.8583
" />
<path d="M12.1036 16.8583
L12.1417 16.8774
" />
<path d="M12.1417 16.8774
L12.1607 16.8964
" />
<path d="M12.1607 16.8964
L12.1798 16.9345
" />
<path d="M12.1798 16.9345
L12.1798 16.9726
" />
<path d="M12.1798 16.9726
L12.1607 17.0107
" />
<path d="M12.1607 17.0107
L12.1417 17.0297
" />
<path d="M12.1417 17.0297
L12.1036 17.0488
" />
<path d="M12.1036 17.0488
L11.9702 17.0488
" />
</g></g>
<g style="fill:none; 
stroke:#585D84; stroke-width:0.0212; stroke-opacity:1; 
stroke-linecap:round; stroke-linejoin:round;">
<circle cx="12.0750" cy="17.0750" r="0.6000" /> 
</g>
<g style="fill:none; 
stroke:#585D84; stroke-width:0.0333; stroke-opacity:1; 
stroke-linecap:round; stroke-linejoin:round;">
<text x="9.5750" y="17.2750"
textLength="0.4200" font-size="0.5333" lengthAdjust="spacingAndGlyphs"
text-anchor="middle" opacity="0" stroke-opacity="0">C</text>
<g class="stroked-text"><desc>C</desc>
<path d="M9.6988 17.2202
L9.6798 17.2393
" />
<path d="M9.6798 17.2393
L9.6226 17.2583
" />
<path d="M9.6226 17.2583
L9.5845 17.2583
" />
<path d="M9.5845 17.2583
L9.5274 17.2393
" />
<path d="M9.5274 17.2393
L9.4893 17.2012
" />
<path d="M9.4893 17.2012
L9.4702 17.1631
" />
<path d="M9.4702 17.1631
L9.4512 17.0869
" />
<path d="M9.4512 17.0869
L9.4512 17.0297
" />
<path d="M9.4512 17.0297
L9.4702 16.9536
" />
<path d="M9.4702 16.9536
L9.4893 16.9155
" />
<path d="M9.4893 16.9155
L9.5274 16.8774
" />
<path d="M9.5274 16.8774
L9.5845 16.8583
" />
<path d="M9.5845 16.8583
L9.6226 16.8583
" />
<path d="M9.6226 16.8583
L9.6798 16.8774
" />
<path d="M9.6798 16.8774
L9.6988 16.8964
" />
</g></g>
<g style="fill:none; 
stroke:#585D84; stroke-width:0.0212; stroke-opacity:1; 
stroke-linecap:round; stroke-linejoin:round;">
<circle cx="9.5750" cy="17.0750" r="0.6000" /> 
</g>
<g style="fill:none; 
stroke:#585D84; stroke-width:0.0833; stroke-opacity:1; 
stroke-linecap:round; stroke-linejoin:round;">
<g transform="rotate(-90.000000 4.2950 9.5750)">
<text x="4.2950" y="10.0750"
textLength="2.1929" font-size="1.3333" lengthAdjust="spacingAndGlyphs"
text-anchor="middle" opacity="0" stroke-opacity="0">MP</text>
</g>
<g class="stroked-text"><desc>MP</desc>
<path d="M4.7533 10.4083
L3.7533 10.4083
" />
<path d="M3.7533 10.4083
L4.4676 10.0750
" />
<path d="M4.4676 10.0750
L3.7533 9.7417
" />
<path d="M3.7533 9.7417
L4.7533 9.7417
" />
<path d="M4.7533 9.2655
L3.7533 9.2655
" />
<path d="M3.7533 9.2655
L3.7533 8.8845
" />
<path d="M3.7533 8.8845
L3.8009 8.7893
" />
<path d="M3.8009 8.7893
L3.8485 8.7417
" />
<path d="M3.8485 8.7417
L3.9438 8.6940
" />
<path d="M3.9438 8.6940
L4.0866 8.6940
" />
<path d="M4.0866 8.6940
L4.1819 8.7417
" />
<path d="M4.1819 8.7417
L4.2295 8.7893
" />
<path d="M4.2295 8.7893
L4.2771 8.8845
" />
<path d="M4.2771 8.8845
L4.2771 9.2655
" />
</g><path style="fill:none; 
stroke:#585D84; stroke-width:0.0212; stroke-opacity:1; 
stroke-linecap:round; stroke-linejoin:round;fill:none"
d="M 3.0450,8.3250
3.0640,8.2293
3.1182,8.1482
3.1993,8.0940
3.2950,8.0750
4.7950,8.0750
5.5450,8.8250
5.5450,10.3250
4.7950,11.0750
3.2950,11.0750
3.1993,11.0560
3.1182,11.0018
3.0640,10.9207
3.0450,10.8250
Z" /> 
</g>
<g style="fill:none; 
stroke:#585D84; stroke-width:0.0833; stroke-opacity:1; 
stroke-linecap:round; stroke-linejoin:round;">
<g transform="rotate(-90.000000 14.8550 9.5750)">
<text x="14.8550" y="10.0750"
textLength="2.1929" font-size="1.3333" lengthAdjust="spacingAndGlyphs"
text-anchor="middle" opacity="0" stroke-opacity="0">MP</text>
</g>
<g class="stroked-text"><desc>MP</desc>
<path d="M15.3133 10.4083
L14.3133 10.4083
" />
<path d="M14.3133 10.4083
L15.0276 10.0750
" />
<path d="M15.0276 10.0750
L14.3133 9.7417
" />
<path d="M14.3133 9.7417
L15.3133 9.7417
" />
<path d="M15.3133 9.2655
L14.3133 9.2655
" />
<path d="M14.3133 9.2655
L14.3133 8.8845
" />
<path d="M14.3133 8.8845
L14.3609 8.7893
" />
<path d="M14.3609 8.7893
L14.4085 8.7417
" />
<path d="M14.4085 8.7417
L14.5038 8.6940
" />
<path d="M14.5038 8.6940
L14.6466 8.6940
" />
<path d="M14.6466 8.6940
L14.7419 8.7417
" />
<path d="M14.7419 8.7417
L14.7895 8.7893
" />
<path d="M14.7895 8.7893
L14.8371 8.8845
" />
<path d="M14.8371 8.8845
L14.8371 9.2655
" />
</g><path style="fill:none; 
stroke:#585D84; stroke-width:0.0212; stroke-opacity:1; 
stroke-linecap:round; stroke-linejoin:round;fill:none"
d="M 16.1050,10.8250
16.0860,10.9207
16.0318,11.0018
15.9507,11.0560
15.8550,11.0750
14.1050,11.0750
13.6050,10.5750
13.6050,8.5750
14.1050,8.0750
15.8550,8.0750
15.9507,8.0940
16.0318,8.1482
16.0860,8.2293
16.1050,8.3250
Z" /> 
</g>
<g style="fill:none; 
stroke:#585D84; stroke-width:0.0639; stroke-opacity:1; 
stroke-linecap:round; stroke-linejoin:round;">
<text x="5.7650" y="7.4183"
textLength="1.4987" font-size="1.0222" lengthAdjust="spacingAndGlyphs"
text-anchor="middle" opacity="0" stroke-opacity="0">S1</text>
<g class="stroked-text"><desc>S1</desc>
<path d="M5.1809 7.3498
L5.2904 7.3864
" />
<path d="M5.2904 7.3864
L5.4729 7.3864
" />
<path d="M5.4729 7.3864
L5.5460 7.3498
" />
<path d="M5.5460 7.3498
L5.5825 7.3133
" />
<path d="M5.5825 7.3133
L5.6190 7.2403
" />
<path d="M5.6190 7.2403
L5.6190 7.1673
" />
<path d="M5.6190 7.1673
L5.5825 7.0943
" />
<path d="M5.5825 7.0943
L5.5460 7.0578
" />
<path d="M5.5460 7.0578
L5.4729 7.0213
" />
<path d="M5.4729 7.0213
L5.3269 6.9848
" />
<path d="M5.3269 6.9848
L5.2539 6.9483
" />
<path d="M5.2539 6.9483
L5.2174 6.9117
" />
<path d="M5.2174 6.9117
L5.1809 6.8387
" />
<path d="M5.1809 6.8387
L5.1809 6.7657
" />
<path d="M5.1809 6.7657
L5.2174 6.6927
" />
<path d="M5.2174 6.6927
L5.2539 6.6562
" />
<path d="M5.2539 6.6562
L5.3269 6.6197
" />
<path d="M5.3269 6.6197
L5.5094 6.6197
" />
<path d="M5.5094 6.6197
L5.6190 6.6562
" />
<path d="M6.3491 7.3864
L5.9110 7.3864
" />
<path d="M6.1301 7.3864
L6.1301 6.6197
" />
<path d="M6.1301 6.6197
L6.0571 6.7292
" />
<path d="M6.0571 6.7292
L5.9840 6.8022
" />
<path d="M5.9840 6.8022
L5.9110 6.8387
" />
</g></g>
<g style="fill:none; 
stroke:#585D84; stroke-width:0.0212; stroke-opacity:1; 
stroke-linecap:round; stroke-linejoin:round;">
<circle cx="5.7650" cy="7.0350" r="1.1500" /> 
</g>
<g style="fill:none; 
stroke:#585D84; stroke-width:0.0333; stroke-opacity:1; 
stroke-linecap:round; stroke-linejoin:round;">
<text x="7.0750" y="2.7750"
textLength="0.7819" font-size="0.5333" lengthAdjust="spacingAndGlyphs"
text-anchor="middle" opacity="0" stroke-opacity="0">S1</text>
<g class="stroked-text"><desc>S1</desc>
<path d="M6.7702 2.7393
L6.8274 2.7583
" />
<path d="M6.8274 2.7583
L6.9226 2.7583
" />
<path d="M6.9226 2.7583
L6.9607 2.7393
" />
<path d="M6.9607 2.7393
L6.9798 2.7202
" />
<path d="M6.9798 2.7202
L6.9988 2.6821
" />
<path d="M6.9988 2.6821
L6.9988 2.6440
" />
<path d="M6.9988 2.6440
L6.9798 2.6059
" />
<path d="M6.9798 2.6059
L6.9607 2.5869
" />
<path d="M6.9607 2.5869
L6.9226 2.5678
" />
<path d="M6.9226 2.5678
L6.8464 2.5488
" />
<path d="M6.8464 2.5488
L6.8083 2.5297
" />
<path d="M6.8083 2.5297
L6.7893 2.5107
" />
<path d="M6.7893 2.5107
L6.7702 2.4726
" />
<path d="M6.7702 2.4726
L6.7702 2.4345
" />
<path d="M6.7702 2.4345
L6.7893 2.3964
" />
<path d="M6.7893 2.3964
L6.8083 2.3774
" />
<path d="M6.8083 2.3774
L6.8464 2.3583
" />
<path d="M6.8464 2.3583
L6.9417 2.3583
" />
<path d="M6.9417 2.3583
L6.9988 2.3774
" />
<path d="M7.3798 2.7583
L7.1512 2.7583
" />
<path d="M7.2655 2.7583
L7.2655 2.3583
" />
<path d="M7.2655 2.3583
L7.2274 2.4155
" />
<path d="M7.2274 2.4155
L7.1893 2.4536
" />
<path d="M7.1893 2.4536
L7.1512 2.4726
" />
</g></g>
<g style="fill:none; 
stroke:#585D84; stroke-width:0.0212; stroke-opacity:1; 
stroke-linecap:round; stroke-linejoin:round;">
<circle cx="7.0750" cy="2.5750" r="0.6000" /> 
</g>
<g style="fill:none; 
stroke:#585D84; stroke-width:0.0333; stroke-opacity:1; 
stroke-linecap:round; stroke-linejoin:round;">
<text x="12.0750" y="2.7750"
textLength="0.7819" font-size="0.5333" lengthAdjust="spacingAndGlyphs"
text-anchor="middle" opacity="0" stroke-opacity="0">S2</text>
<g class="stroked-text"><desc>S2</desc>
<path d="M11.7702 2.7393
L11.8274 2.7583
" />
<path d="M11.8274 2.7583
L11.9226 2.7583
" />
<path d="M11.9226 2.7583
L11.9607 2.7393
" />
<path d="M11.9607 2.7393
L11.9798 2.7202
" />
<path d="M11.9798 2.7202
L11.9988 2.6821
" />
<path d="M11.9988 2.6821
L11.9988 2.6440
" />
<path d="M11.9988 2.6440
L11.9798 2.6059
" />
<path d="M11.9798 2.6059
L11.9607 2.5869
" />
<path d="M11.9607 2.5869
L11.9226 2.5678
" />
<path d="M11.9226 2.5678
L11.8464 2.5488
" />
<path d="M11.8464 2.5488
L11.8083 2.5297
" />
<path d="M11.8083 2.5297
L11.7893 2.5107
" />
<path d="M11.7893 2.5107
L11.7702 2.4726
" />
<path d="M11.7702 2.4726
L11.7702 2.4345
" />
<path d="M11.7702 2.4345
L11.7893 2.3964
" />
<path d="M11.7893 2.3964
L11.8083 2.3774
" />
<path d="M11.8083 2.3774
L11.8464 2.3583
" />
<path d="M11.8464 2.3583
L11.9417 2.3583
" />
<path d="M11.9417 2.3583
L11.9988 2.3774
" />
<path d="M12.1512 2.3964
L12.1702 2.3774
" />
<path d="M12.1702 2.3774
L12.2083 2.3583
" />
<path d="M12.2083 2.3583
L12.3036 2.3583
" />
<path d="M12.3036 2.3583
L12.3417 2.3774
" />
<path d="M12.3417 2.3774
L12.3607 2.3964
" />
<path d="M12.3607 2.3964
L12.3798 2.4345
" />
<path d="M12.3798 2.4345
L12.3798 2.4726
" />
<path d="M12.3798 2.4726
L12.3607 2.5297
" />
<path d="M12.3607 2.5297
L12.1321 2.7583
" />
<path d="M12.1321 2.7583
L12.3798 2.7583
" />
</g></g>
<g style="fill:none; 
stroke:#585D84; stroke-width:0.0212; stroke-opacity:1; 
stroke-linecap:round; stroke-linejoin:round;">
<circle cx="12.0750" cy="2.5750" r="0.6000" /> 
</g>
<g style="fill:none; 
stroke:#585D84; stroke-width:0.0639; stroke-opacity:1; 
stroke-linecap:round; stroke-linejoin:round;">
<text x="12.1150" y="4.8783"
textLength="1.4987" font-size="1.0222" lengthAdjust="spacingAndGlyphs"
text-anchor="middle" opacity="0" stroke-opacity="0">S2</text>
<g class="stroked-text"><desc>S2</desc>
<path d="M11.5309 4.8098
L11.6404 4.8464
" />
<path d="M11.6404 4.8464
L11.8229 4.8464
" />
<path d="M11.8229 4.8464
L11.8960 4.8098
" />
<path d="M11.8960 4.8098
L11.9325 4.7733
" />
<path d="M11.9325 4.7733
L11.9690 4.7003
" />
<path d="M11.9690 4.7003
L11.9690 4.6273
" />
<path d="M11.9690 4.6273
L11.9325 4.5543
" />
<path d="M11.9325 4.5543
L11.8960 4.5178
" />
<path d="M11.8960 4.5178
L11.8229 4.4813
" />
<path d="M11.8229 4.4813
L11.6769 4.4448
" />
<path d="M11.6769 4.4448
L11.6039 4.4083
" />
<path d="M11.6039 4.4083
L11.5674 4.3717
" />
<path d="M11.5674 4.3717
L11.5309 4.2987
" />
<path d="M11.5309 4.2987
L11.5309 4.2257
" />
<path d="M11.5309 4.2257
L11.5674 4.1527
" />
<path d="M11.5674 4.1527
L11.6039 4.1162
" />
<path d="M11.6039 4.1162
L11.6769 4.0797
" />
<path d="M11.6769 4.0797
L11.8594 4.0797
" />
<path d="M11.8594 4.0797
L11.9690 4.1162
" />
<path d="M12.2610 4.1527
L12.2975 4.1162
" />
<path d="M12.2975 4.1162
L12.3706 4.0797
" />
<path d="M12.3706 4.0797
L12.5531 4.0797
" />
<path d="M12.5531 4.0797
L12.6261 4.1162
" />
<path d="M12.6261 4.1162
L12.6626 4.1527
" />
<path d="M12.6626 4.1527
L12.6991 4.2257
" />
<path d="M12.6991 4.2257
L12.6991 4.2987
" />
<path d="M12.6991 4.2987
L12.6626 4.4083
" />
<path d="M12.6626 4.4083
L12.2245 4.8464
" />
<path d="M12.2245 4.8464
L12.6991 4.8464
" />
</g></g>
<g style="fill:none; 
stroke:#585D84; stroke-width:0.0212; stroke-opacity:1; 
stroke-linecap:round; stroke-linejoin:round;">
<circle cx="12.1150" cy="4.4950" r="1.1500" /> 
<path style="fill:none; 
stroke:#C2C2C2; stroke-width:0.1000; stroke-opacity:1; 
stroke-linecap:round; stroke-linejoin:round;fill:none"
d="M 0.0500,0.0500
19.1000,0.0500
19.1000,19.1000
0.0500,19.1000
Z" /> 
</g> 
</svg>
