<?xml version="1.0" standalone="no"?>
 <!DOCTYPE svg PUBLIC "-//W3C//DTD SVG 1.1//EN" 
 "http://www.w3.org/Graphics/SVG/1.1/DTD/svg11.dtd"> 
<svg
  xmlns:svg="http://www.w3.org/2000/svg"
  xmlns="http://www.w3.org/2000/svg"
  xmlns:xlink="http://www.w3.org/1999/xlink"
  version="1.1"
  width="24.8920mm" height="20.3200mm" viewBox="0.0000 0.0000 24.8920 20.3200">
<title>SVG Image created as SW_MX_Slim_HotSwap_THT_sqSilk.svg date 2025/05/12 22:52:35 </title>
  <desc>Image generated by PCBNEW </desc>
<g style="fill:#000000; fill-opacity:1.0000;stroke:#000000; stroke-opacity:1.0000;
stroke-linecap:round; stroke-linejoin:round;"
 transform="translate(0 0) scale(1 1)">
</g>
<g style="fill:none; 
stroke:#E8B2A7; stroke-width:0.1500; stroke-opacity:1; 
stroke-linecap:round; stroke-linejoin:round;">
<text x="12.4583" y="7.0750"
transform="scale(-1 1) translate(-24.916668 0)"
textLength="4.5357" font-size="1.3333" lengthAdjust="spacingAndGlyphs"
text-anchor="middle" opacity="0" stroke-opacity="0">REF**</text>
<g class="stroked-text"><desc>REF**</desc>
<path d="M13.7917 7.0298
L14.1250 6.5536
" />
<path d="M14.3631 7.0298
L14.3631 6.0298
" />
<path d="M14.3631 6.0298
L13.9821 6.0298
" />
<path d="M13.9821 6.0298
L13.8869 6.0774
" />
<path d="M13.8869 6.0774
L13.8393 6.1251
" />
<path d="M13.8393 6.1251
L13.7917 6.2203
" />
<path d="M13.7917 6.2203
L13.7917 6.3632
" />
<path d="M13.7917 6.3632
L13.8393 6.4584
" />
<path d="M13.8393 6.4584
L13.8869 6.5060
" />
<path d="M13.8869 6.5060
L13.9821 6.5536
" />
<path d="M13.9821 6.5536
L14.3631 6.5536
" />
<path d="M13.3631 6.5060
L13.0298 6.5060
" />
<path d="M12.8869 7.0298
L13.3631 7.0298
" />
<path d="M13.3631 7.0298
L13.3631 6.0298
" />
<path d="M13.3631 6.0298
L12.8869 6.0298
" />
<path d="M12.1250 6.5060
L12.4583 6.5060
" />
<path d="M12.4583 7.0298
L12.4583 6.0298
" />
<path d="M12.4583 6.0298
L11.9821 6.0298
" />
<path d="M11.4583 6.0298
L11.4583 6.2679
" />
<path d="M11.6964 6.1727
L11.4583 6.2679
" />
<path d="M11.4583 6.2679
L11.2202 6.1727
" />
<path d="M11.6012 6.4584
L11.4583 6.2679
" />
<path d="M11.4583 6.2679
L11.3155 6.4584
" />
<path d="M10.6964 6.0298
L10.6964 6.2679
" />
<path d="M10.9345 6.1727
L10.6964 6.2679
" />
<path d="M10.6964 6.2679
L10.4583 6.1727
" />
<path d="M10.8393 6.4584
L10.6964 6.2679
" />
<path d="M10.6964 6.2679
L10.5536 6.4584
" />
</g></g>
<g style="fill:none; 
stroke:#E8B2A7; stroke-width:0.1200; stroke-opacity:1; 
stroke-linecap:round; stroke-linejoin:round;">
<path d="M7.3783 12.1150
L7.3783 13.1050
" />
<path d="M7.3783 12.1150
L12.4583 12.1150
" />
<path d="M7.3783 16.5600
L7.3783 16.2050
" />
<path d="M14.9225 10.2100
L16.6493 10.2100
" />
<path d="M16.2683 16.5600
L7.3783 16.5600
" />
<path d="M18.4583 10.2100
L18.8083 10.2100
" />
<path d="M18.8083 10.5650
L18.8083 10.2100
" />
<path d="M18.8083 14.0200
L18.8083 13.6650
" />
<path d="M12.4583 12.1150 A2.5400 2.5400 0.0 0 0 14.9180 10.2088" />
<path d="M16.2683 16.5600 A2.5400 2.5400 0.0 0 0 18.8083 14.0200" />
</g>
<g style="fill:none; 
stroke:#F2EDA1; stroke-width:0.1200; stroke-opacity:1; 
stroke-linecap:round; stroke-linejoin:round;">
<path d="M5.3583 16.2750
L5.3583 2.8750
" />
<path d="M5.7583 2.4750
L19.1583 2.4750
" />
<path d="M19.1583 16.6750
L5.7583 16.6750
" />
<path d="M19.5583 2.8750
L19.5583 16.2750
" />
<path d="M5.7583 2.4750 A0.4000 0.4000 0.0 0 0 5.3583 2.8750" />
<path d="M5.3583 16.2750 A0.4000 0.4000 0.0 0 0 5.7583 16.6750" />
<path d="M19.5583 2.8750 A0.4000 0.4000 0.0 0 0 19.1583 2.4750" />
<path d="M19.1583 16.6750 A0.4000 0.4000 0.0 0 0 19.5583 16.2750" />
<path style="fill:#00C2C2; fill-opacity:0.9000; stroke:none;fill-rule:evenodd;"
d="M 18.7465,11.1150
18.7656,11.0193
18.8198,10.9382
18.9009,10.8840
18.9965,10.8650
20.2965,10.8650
20.3922,10.8840
20.4733,10.9382
20.5275,11.0193
20.5465,11.1150
20.5465,13.1150
20.5275,13.2107
20.4733,13.2918
20.3922,13.3460
20.2965,13.3650
18.9965,13.3650
18.9009,13.3460
18.8198,13.2918
18.7656,13.2107
18.7465,13.1150
Z" /> 
<path style="fill:#00C2C2; fill-opacity:0.9000; stroke:none;fill-rule:evenodd;"
d="M 5.6401,13.6550
5.6592,13.5593
5.7134,13.4782
5.7945,13.4240
5.8901,13.4050
7.1901,13.4050
7.2858,13.4240
7.3669,13.4782
7.4211,13.5593
7.4401,13.6550
7.4401,15.6550
7.4211,15.7507
7.3669,15.8318
7.2858,15.8860
7.1901,15.9050
5.8901,15.9050
5.7945,15.8860
5.7134,15.8318
5.6592,15.7507
5.6401,15.6550
Z" /> 
</g>
<g style="fill:#4D7FC4; fill-opacity:1.0000; stroke:none;">
<circle cx="14.9983" cy="4.4950" r="1.1500" /> 
<path style="fill:#4D7FC4; fill-opacity:1.0000; stroke:none;fill-rule:evenodd;"
d="M 18.7465,11.1150
18.7656,11.0193
18.8198,10.9382
18.9009,10.8840
18.9965,10.8650
20.2965,10.8650
20.3922,10.8840
20.4733,10.9382
20.5275,11.0193
20.5465,11.1150
20.5465,13.1150
20.5275,13.2107
20.4733,13.2918
20.3922,13.3460
20.2965,13.3650
18.9965,13.3650
18.9009,13.3460
18.8198,13.2918
18.7656,13.2107
18.7465,13.1150
Z" /> 
<path style="fill:#4D7FC4; fill-opacity:1.0000; stroke:none;fill-rule:evenodd;"
d="M 5.6401,13.6550
5.6592,13.5593
5.7134,13.4782
5.7945,13.4240
5.8901,13.4050
7.1901,13.4050
7.2858,13.4240
7.3669,13.4782
7.4211,13.5593
7.4401,13.6550
7.4401,15.6550
7.4211,15.7507
7.3669,15.8318
7.2858,15.8860
7.1901,15.9050
5.8901,15.9050
5.7945,15.8860
5.7134,15.8318
5.6592,15.7507
5.6401,15.6550
Z" /> 
</g>
<g style="fill:#4D7FC4; fill-opacity:1.0000; stroke:none;">
<circle cx="8.6483" cy="7.0350" r="1.1500" /> 
</g>
<g style="fill:#C83434; fill-opacity:1.0000; stroke:none;">
<circle cx="14.9983" cy="4.4950" r="1.1500" /> 
</g>
<g style="fill:#C83434; fill-opacity:1.0000; stroke:none;">
<circle cx="8.6483" cy="7.0350" r="1.1500" /> 
</g>
<g style="fill:none; 
stroke:#585D84; stroke-width:0.1500; stroke-opacity:1; 
stroke-linecap:round; stroke-linejoin:round;">
<text x="12.4583" y="18.3750"
transform="scale(-1 1) translate(-24.916668 0)"
textLength="24.9167" font-size="1.3333" lengthAdjust="spacingAndGlyphs"
text-anchor="middle" opacity="0" stroke-opacity="0">SW_MX_Slim_HotSwap_THT_sqSilk</text>
<g class="stroked-text"><desc>SW_MX_Slim_HotSwap_THT_sqSilk</desc>
<path d="M24.6012 18.2822
L24.4583 18.3298
" />
<path d="M24.4583 18.3298
L24.2202 18.3298
" />
<path d="M24.2202 18.3298
L24.1250 18.2822
" />
<path d="M24.1250 18.2822
L24.0774 18.2346
" />
<path d="M24.0774 18.2346
L24.0298 18.1393
" />
<path d="M24.0298 18.1393
L24.0298 18.0441
" />
<path d="M24.0298 18.0441
L24.0774 17.9489
" />
<path d="M24.0774 17.9489
L24.1250 17.9012
" />
<path d="M24.1250 17.9012
L24.2202 17.8536
" />
<path d="M24.2202 17.8536
L24.4107 17.8060
" />
<path d="M24.4107 17.8060
L24.5060 17.7584
" />
<path d="M24.5060 17.7584
L24.5536 17.7108
" />
<path d="M24.5536 17.7108
L24.6012 17.6155
" />
<path d="M24.6012 17.6155
L24.6012 17.5203
" />
<path d="M24.6012 17.5203
L24.5536 17.4251
" />
<path d="M24.5536 17.4251
L24.5060 17.3774
" />
<path d="M24.5060 17.3774
L24.4107 17.3298
" />
<path d="M24.4107 17.3298
L24.1726 17.3298
" />
<path d="M24.1726 17.3298
L24.0298 17.3774
" />
<path d="M23.6964 17.3298
L23.4583 18.3298
" />
<path d="M23.4583 18.3298
L23.2679 17.6155
" />
<path d="M23.2679 17.6155
L23.0774 18.3298
" />
<path d="M23.0774 18.3298
L22.8393 17.3298
" />
<path d="M22.6964 18.4251
L21.9345 18.4251
" />
<path d="M21.6964 18.3298
L21.6964 17.3298
" />
<path d="M21.6964 17.3298
L21.3631 18.0441
" />
<path d="M21.3631 18.0441
L21.0298 17.3298
" />
<path d="M21.0298 17.3298
L21.0298 18.3298
" />
<path d="M20.6488 17.3298
L19.9821 18.3298
" />
<path d="M19.9821 17.3298
L20.6488 18.3298
" />
<path d="M19.8393 18.4251
L19.0774 18.4251
" />
<path d="M18.8869 18.2822
L18.7440 18.3298
" />
<path d="M18.7440 18.3298
L18.5060 18.3298
" />
<path d="M18.5060 18.3298
L18.4107 18.2822
" />
<path d="M18.4107 18.2822
L18.3631 18.2346
" />
<path d="M18.3631 18.2346
L18.3155 18.1393
" />
<path d="M18.3155 18.1393
L18.3155 18.0441
" />
<path d="M18.3155 18.0441
L18.3631 17.9489
" />
<path d="M18.3631 17.9489
L18.4107 17.9012
" />
<path d="M18.4107 17.9012
L18.5060 17.8536
" />
<path d="M18.5060 17.8536
L18.6964 17.8060
" />
<path d="M18.6964 17.8060
L18.7917 17.7584
" />
<path d="M18.7917 17.7584
L18.8393 17.7108
" />
<path d="M18.8393 17.7108
L18.8869 17.6155
" />
<path d="M18.8869 17.6155
L18.8869 17.5203
" />
<path d="M18.8869 17.5203
L18.8393 17.4251
" />
<path d="M18.8393 17.4251
L18.7917 17.3774
" />
<path d="M18.7917 17.3774
L18.6964 17.3298
" />
<path d="M18.6964 17.3298
L18.4583 17.3298
" />
<path d="M18.4583 17.3298
L18.3155 17.3774
" />
<path d="M17.7440 18.3298
L17.8393 18.2822
" />
<path d="M17.8393 18.2822
L17.8869 18.1870
" />
<path d="M17.8869 18.1870
L17.8869 17.3298
" />
<path d="M17.3631 18.3298
L17.3631 17.6632
" />
<path d="M17.3631 17.3298
L17.4107 17.3774
" />
<path d="M17.4107 17.3774
L17.3631 17.4251
" />
<path d="M17.3631 17.4251
L17.3155 17.3774
" />
<path d="M17.3155 17.3774
L17.3631 17.3298
" />
<path d="M17.3631 17.3298
L17.3631 17.4251
" />
<path d="M16.8869 18.3298
L16.8869 17.6632
" />
<path d="M16.8869 17.7584
L16.8393 17.7108
" />
<path d="M16.8393 17.7108
L16.7440 17.6632
" />
<path d="M16.7440 17.6632
L16.6012 17.6632
" />
<path d="M16.6012 17.6632
L16.5060 17.7108
" />
<path d="M16.5060 17.7108
L16.4583 17.8060
" />
<path d="M16.4583 17.8060
L16.4583 18.3298
" />
<path d="M16.4583 17.8060
L16.4107 17.7108
" />
<path d="M16.4107 17.7108
L16.3155 17.6632
" />
<path d="M16.3155 17.6632
L16.1726 17.6632
" />
<path d="M16.1726 17.6632
L16.0774 17.7108
" />
<path d="M16.0774 17.7108
L16.0298 17.8060
" />
<path d="M16.0298 17.8060
L16.0298 18.3298
" />
<path d="M15.7917 18.4251
L15.0298 18.4251
" />
<path d="M14.7917 18.3298
L14.7917 17.3298
" />
<path d="M14.7917 17.8060
L14.2202 17.8060
" />
<path d="M14.2202 18.3298
L14.2202 17.3298
" />
<path d="M13.6012 18.3298
L13.6964 18.2822
" />
<path d="M13.6964 18.2822
L13.7440 18.2346
" />
<path d="M13.7440 18.2346
L13.7917 18.1393
" />
<path d="M13.7917 18.1393
L13.7917 17.8536
" />
<path d="M13.7917 17.8536
L13.7440 17.7584
" />
<path d="M13.7440 17.7584
L13.6964 17.7108
" />
<path d="M13.6964 17.7108
L13.6012 17.6632
" />
<path d="M13.6012 17.6632
L13.4583 17.6632
" />
<path d="M13.4583 17.6632
L13.3631 17.7108
" />
<path d="M13.3631 17.7108
L13.3155 17.7584
" />
<path d="M13.3155 17.7584
L13.2679 17.8536
" />
<path d="M13.2679 17.8536
L13.2679 18.1393
" />
<path d="M13.2679 18.1393
L13.3155 18.2346
" />
<path d="M13.3155 18.2346
L13.3631 18.2822
" />
<path d="M13.3631 18.2822
L13.4583 18.3298
" />
<path d="M13.4583 18.3298
L13.6012 18.3298
" />
<path d="M12.9821 17.6632
L12.6012 17.6632
" />
<path d="M12.8393 17.3298
L12.8393 18.1870
" />
<path d="M12.8393 18.1870
L12.7917 18.2822
" />
<path d="M12.7917 18.2822
L12.6964 18.3298
" />
<path d="M12.6964 18.3298
L12.6012 18.3298
" />
<path d="M12.3155 18.2822
L12.1726 18.3298
" />
<path d="M12.1726 18.3298
L11.9345 18.3298
" />
<path d="M11.9345 18.3298
L11.8393 18.2822
" />
<path d="M11.8393 18.2822
L11.7917 18.2346
" />
<path d="M11.7917 18.2346
L11.7440 18.1393
" />
<path d="M11.7440 18.1393
L11.7440 18.0441
" />
<path d="M11.7440 18.0441
L11.7917 17.9489
" />
<path d="M11.7917 17.9489
L11.8393 17.9012
" />
<path d="M11.8393 17.9012
L11.9345 17.8536
" />
<path d="M11.9345 17.8536
L12.1250 17.8060
" />
<path d="M12.1250 17.8060
L12.2202 17.7584
" />
<path d="M12.2202 17.7584
L12.2679 17.7108
" />
<path d="M12.2679 17.7108
L12.3155 17.6155
" />
<path d="M12.3155 17.6155
L12.3155 17.5203
" />
<path d="M12.3155 17.5203
L12.2679 17.4251
" />
<path d="M12.2679 17.4251
L12.2202 17.3774
" />
<path d="M12.2202 17.3774
L12.1250 17.3298
" />
<path d="M12.1250 17.3298
L11.8869 17.3298
" />
<path d="M11.8869 17.3298
L11.7440 17.3774
" />
<path d="M11.4107 17.6632
L11.2202 18.3298
" />
<path d="M11.2202 18.3298
L11.0298 17.8536
" />
<path d="M11.0298 17.8536
L10.8393 18.3298
" />
<path d="M10.8393 18.3298
L10.6488 17.6632
" />
<path d="M9.8393 18.3298
L9.8393 17.8060
" />
<path d="M9.8393 17.8060
L9.8869 17.7108
" />
<path d="M9.8869 17.7108
L9.9821 17.6632
" />
<path d="M9.9821 17.6632
L10.1726 17.6632
" />
<path d="M10.1726 17.6632
L10.2679 17.7108
" />
<path d="M9.8393 18.2822
L9.9345 18.3298
" />
<path d="M9.9345 18.3298
L10.1726 18.3298
" />
<path d="M10.1726 18.3298
L10.2679 18.2822
" />
<path d="M10.2679 18.2822
L10.3155 18.1870
" />
<path d="M10.3155 18.1870
L10.3155 18.0917
" />
<path d="M10.3155 18.0917
L10.2679 17.9965
" />
<path d="M10.2679 17.9965
L10.1726 17.9489
" />
<path d="M10.1726 17.9489
L9.9345 17.9489
" />
<path d="M9.9345 17.9489
L9.8393 17.9012
" />
<path d="M9.3631 17.6632
L9.3631 18.6632
" />
<path d="M9.3631 17.7108
L9.2679 17.6632
" />
<path d="M9.2679 17.6632
L9.0774 17.6632
" />
<path d="M9.0774 17.6632
L8.9821 17.7108
" />
<path d="M8.9821 17.7108
L8.9345 17.7584
" />
<path d="M8.9345 17.7584
L8.8869 17.8536
" />
<path d="M8.8869 17.8536
L8.8869 18.1393
" />
<path d="M8.8869 18.1393
L8.9345 18.2346
" />
<path d="M8.9345 18.2346
L8.9821 18.2822
" />
<path d="M8.9821 18.2822
L9.0774 18.3298
" />
<path d="M9.0774 18.3298
L9.2679 18.3298
" />
<path d="M9.2679 18.3298
L9.3631 18.2822
" />
<path d="M8.6964 18.4251
L7.9345 18.4251
" />
<path d="M7.8393 17.3298
L7.2679 17.3298
" />
<path d="M7.5536 18.3298
L7.5536 17.3298
" />
<path d="M6.9345 18.3298
L6.9345 17.3298
" />
<path d="M6.9345 17.8060
L6.3631 17.8060
" />
<path d="M6.3631 18.3298
L6.3631 17.3298
" />
<path d="M6.0298 17.3298
L5.4583 17.3298
" />
<path d="M5.7440 18.3298
L5.7440 17.3298
" />
<path d="M5.3631 18.4251
L4.6012 18.4251
" />
<path d="M4.4107 18.2822
L4.3155 18.3298
" />
<path d="M4.3155 18.3298
L4.1250 18.3298
" />
<path d="M4.1250 18.3298
L4.0298 18.2822
" />
<path d="M4.0298 18.2822
L3.9821 18.1870
" />
<path d="M3.9821 18.1870
L3.9821 18.1393
" />
<path d="M3.9821 18.1393
L4.0298 18.0441
" />
<path d="M4.0298 18.0441
L4.1250 17.9965
" />
<path d="M4.1250 17.9965
L4.2679 17.9965
" />
<path d="M4.2679 17.9965
L4.3631 17.9489
" />
<path d="M4.3631 17.9489
L4.4107 17.8536
" />
<path d="M4.4107 17.8536
L4.4107 17.8060
" />
<path d="M4.4107 17.8060
L4.3631 17.7108
" />
<path d="M4.3631 17.7108
L4.2679 17.6632
" />
<path d="M4.2679 17.6632
L4.1250 17.6632
" />
<path d="M4.1250 17.6632
L4.0298 17.7108
" />
<path d="M3.1250 17.6632
L3.1250 18.6632
" />
<path d="M3.1250 18.2822
L3.2202 18.3298
" />
<path d="M3.2202 18.3298
L3.4107 18.3298
" />
<path d="M3.4107 18.3298
L3.5060 18.2822
" />
<path d="M3.5060 18.2822
L3.5536 18.2346
" />
<path d="M3.5536 18.2346
L3.6012 18.1393
" />
<path d="M3.6012 18.1393
L3.6012 17.8536
" />
<path d="M3.6012 17.8536
L3.5536 17.7584
" />
<path d="M3.5536 17.7584
L3.5060 17.7108
" />
<path d="M3.5060 17.7108
L3.4107 17.6632
" />
<path d="M3.4107 17.6632
L3.2202 17.6632
" />
<path d="M3.2202 17.6632
L3.1250 17.7108
" />
<path d="M2.6964 18.2822
L2.5536 18.3298
" />
<path d="M2.5536 18.3298
L2.3155 18.3298
" />
<path d="M2.3155 18.3298
L2.2202 18.2822
" />
<path d="M2.2202 18.2822
L2.1726 18.2346
" />
<path d="M2.1726 18.2346
L2.1250 18.1393
" />
<path d="M2.1250 18.1393
L2.1250 18.0441
" />
<path d="M2.1250 18.0441
L2.1726 17.9489
" />
<path d="M2.1726 17.9489
L2.2202 17.9012
" />
<path d="M2.2202 17.9012
L2.3155 17.8536
" />
<path d="M2.3155 17.8536
L2.5060 17.8060
" />
<path d="M2.5060 17.8060
L2.6012 17.7584
" />
<path d="M2.6012 17.7584
L2.6488 17.7108
" />
<path d="M2.6488 17.7108
L2.6964 17.6155
" />
<path d="M2.6964 17.6155
L2.6964 17.5203
" />
<path d="M2.6964 17.5203
L2.6488 17.4251
" />
<path d="M2.6488 17.4251
L2.6012 17.3774
" />
<path d="M2.6012 17.3774
L2.5060 17.3298
" />
<path d="M2.5060 17.3298
L2.2679 17.3298
" />
<path d="M2.2679 17.3298
L2.1250 17.3774
" />
<path d="M1.6964 18.3298
L1.6964 17.6632
" />
<path d="M1.6964 17.3298
L1.7440 17.3774
" />
<path d="M1.7440 17.3774
L1.6964 17.4251
" />
<path d="M1.6964 17.4251
L1.6488 17.3774
" />
<path d="M1.6488 17.3774
L1.6964 17.3298
" />
<path d="M1.6964 17.3298
L1.6964 17.4251
" />
<path d="M1.0774 18.3298
L1.1726 18.2822
" />
<path d="M1.1726 18.2822
L1.2202 18.1870
" />
<path d="M1.2202 18.1870
L1.2202 17.3298
" />
<path d="M0.6964 18.3298
L0.6964 17.3298
" />
<path d="M0.6012 17.9489
L0.3155 18.3298
" />
<path d="M0.3155 17.6632
L0.6964 18.0441
" />
</g><text x="12.4583" y="19.9750"
transform="scale(-1 1) translate(-24.916668 0)"
textLength="4.5357" font-size="1.3333" lengthAdjust="spacingAndGlyphs"
text-anchor="middle" opacity="0" stroke-opacity="0">REF**</text>
<g class="stroked-text"><desc>REF**</desc>
<path d="M13.7917 19.9298
L14.1250 19.4536
" />
<path d="M14.3631 19.9298
L14.3631 18.9298
" />
<path d="M14.3631 18.9298
L13.9821 18.9298
" />
<path d="M13.9821 18.9298
L13.8869 18.9774
" />
<path d="M13.8869 18.9774
L13.8393 19.0251
" />
<path d="M13.8393 19.0251
L13.7917 19.1203
" />
<path d="M13.7917 19.1203
L13.7917 19.2632
" />
<path d="M13.7917 19.2632
L13.8393 19.3584
" />
<path d="M13.8393 19.3584
L13.8869 19.4060
" />
<path d="M13.8869 19.4060
L13.9821 19.4536
" />
<path d="M13.9821 19.4536
L14.3631 19.4536
" />
<path d="M13.3631 19.4060
L13.0298 19.4060
" />
<path d="M12.8869 19.9298
L13.3631 19.9298
" />
<path d="M13.3631 19.9298
L13.3631 18.9298
" />
<path d="M13.3631 18.9298
L12.8869 18.9298
" />
<path d="M12.1250 19.4060
L12.4583 19.4060
" />
<path d="M12.4583 19.9298
L12.4583 18.9298
" />
<path d="M12.4583 18.9298
L11.9821 18.9298
" />
<path d="M11.4583 18.9298
L11.4583 19.1679
" />
<path d="M11.6964 19.0727
L11.4583 19.1679
" />
<path d="M11.4583 19.1679
L11.2202 19.0727
" />
<path d="M11.6012 19.3584
L11.4583 19.1679
" />
<path d="M11.4583 19.1679
L11.3155 19.3584
" />
<path d="M10.6964 18.9298
L10.6964 19.1679
" />
<path d="M10.9345 19.0727
L10.6964 19.1679
" />
<path d="M10.6964 19.1679
L10.4583 19.0727
" />
<path d="M10.8393 19.3584
L10.6964 19.1679
" />
<path d="M10.6964 19.1679
L10.5536 19.3584
" />
</g></g>
<g style="fill:none; 
stroke:#585D84; stroke-width:0.1000; stroke-opacity:1; 
stroke-linecap:round; stroke-linejoin:round;">
<path d="M5.6003 13.3850
L7.3783 13.3850
" />
<path d="M5.6003 15.9250
L5.6003 13.3850
" />
<path d="M7.3783 12.1150
L12.4583 12.1150
" />
<path d="M7.3783 15.9250
L5.6003 15.9250
" />
<path d="M7.3783 16.5600
L7.3783 12.1150
" />
<path d="M16.2683 16.5600
L7.3783 16.5600
" />
<path d="M18.8083 10.2100
L14.9983 10.2100
" />
<path d="M18.8083 10.2100
L18.8083 14.0200
" />
<path d="M18.8083 10.8450
L20.5609 10.8450
" />
<path d="M20.5609 10.8450
L20.5609 13.3850
" />
<path d="M20.5609 13.3850
L18.8083 13.3850
" />
<path d="M12.4583 12.1150 A2.5400 2.5400 0.0 0 0 14.9225 10.1910" />
<path d="M16.2683 16.5600 A2.5400 2.5400 0.0 0 0 18.8083 14.0200" />
</g>
<g style="fill:none; 
stroke:#585D84; stroke-width:0.0212; stroke-opacity:1; 
stroke-linecap:round; stroke-linejoin:round;">
<circle cx="7.3783" cy="9.5750" r="0.8500" /> 
</g>
<g style="fill:none; 
stroke:#585D84; stroke-width:0.0212; stroke-opacity:1; 
stroke-linecap:round; stroke-linejoin:round;">
<circle cx="9.9183" cy="14.6550" r="1.5000" /> 
</g>
<g style="fill:none; 
stroke:#585D84; stroke-width:0.0212; stroke-opacity:1; 
stroke-linecap:round; stroke-linejoin:round;">
<circle cx="12.4583" cy="9.5750" r="2.0000" /> 
</g>
<g style="fill:none; 
stroke:#585D84; stroke-width:0.0212; stroke-opacity:1; 
stroke-linecap:round; stroke-linejoin:round;">
<circle cx="16.2683" cy="12.1150" r="1.5000" /> 
</g>
<g style="fill:none; 
stroke:#585D84; stroke-width:0.0212; stroke-opacity:1; 
stroke-linecap:round; stroke-linejoin:round;">
<circle cx="17.5383" cy="9.5750" r="0.8500" /> 
</g>
<g style="fill:none; 
stroke:#585D84; stroke-width:0.0639; stroke-opacity:1; 
stroke-linecap:round; stroke-linejoin:round;">
<text x="14.9983" y="4.8783"
textLength="0.7685" font-size="1.0222" lengthAdjust="spacingAndGlyphs"
text-anchor="middle" opacity="0" stroke-opacity="0">1</text>
<g class="stroked-text"><desc>1</desc>
<path d="M15.2174 4.8464
L14.7793 4.8464
" />
<path d="M14.9983 4.8464
L14.9983 4.0797
" />
<path d="M14.9983 4.0797
L14.9253 4.1892
" />
<path d="M14.9253 4.1892
L14.8523 4.2622
" />
<path d="M14.8523 4.2622
L14.7793 4.2987
" />
</g></g>
<g style="fill:none; 
stroke:#585D84; stroke-width:0.0212; stroke-opacity:1; 
stroke-linecap:round; stroke-linejoin:round;">
<circle cx="14.9983" cy="4.4950" r="1.1500" /> 
</g>
<g style="fill:none; 
stroke:#585D84; stroke-width:0.0694; stroke-opacity:1; 
stroke-linecap:round; stroke-linejoin:round;">
<g transform="rotate(-90.000000 19.6465 12.1150)">
<text x="19.6465" y="12.5317"
textLength="0.8353" font-size="1.1111" lengthAdjust="spacingAndGlyphs"
text-anchor="middle" opacity="0" stroke-opacity="0">1</text>
</g>
<g class="stroked-text"><desc>1</desc>
<path d="M20.0284 11.8769
L20.0284 12.3531
" />
<path d="M20.0284 12.1150
L19.1951 12.1150
" />
<path d="M19.1951 12.1150
L19.3142 12.1944
" />
<path d="M19.3142 12.1944
L19.3935 12.2737
" />
<path d="M19.3935 12.2737
L19.4332 12.3531
" />
</g><path style="fill:none; 
stroke:#585D84; stroke-width:0.0212; stroke-opacity:1; 
stroke-linecap:round; stroke-linejoin:round;fill:none"
d="M 18.7465,11.1150
18.7656,11.0193
18.8198,10.9382
18.9009,10.8840
18.9965,10.8650
20.2965,10.8650
20.3922,10.8840
20.4733,10.9382
20.5275,11.0193
20.5465,11.1150
20.5465,13.1150
20.5275,13.2107
20.4733,13.2918
20.3922,13.3460
20.2965,13.3650
18.9965,13.3650
18.9009,13.3460
18.8198,13.2918
18.7656,13.2107
18.7465,13.1150
Z" /> 
</g>
<g style="fill:none; 
stroke:#585D84; stroke-width:0.0694; stroke-opacity:1; 
stroke-linecap:round; stroke-linejoin:round;">
<g transform="rotate(-90.000000 6.5401 14.6550)">
<text x="6.5401" y="15.0717"
textLength="0.8353" font-size="1.1111" lengthAdjust="spacingAndGlyphs"
text-anchor="middle" opacity="0" stroke-opacity="0">2</text>
</g>
<g class="stroked-text"><desc>2</desc>
<path d="M6.1681 14.8931
L6.1284 14.8534
" />
<path d="M6.1284 14.8534
L6.0887 14.7740
" />
<path d="M6.0887 14.7740
L6.0887 14.5756
" />
<path d="M6.0887 14.5756
L6.1284 14.4963
" />
<path d="M6.1284 14.4963
L6.1681 14.4566
" />
<path d="M6.1681 14.4566
L6.2474 14.4169
" />
<path d="M6.2474 14.4169
L6.3268 14.4169
" />
<path d="M6.3268 14.4169
L6.4458 14.4566
" />
<path d="M6.4458 14.4566
L6.9220 14.9328
" />
<path d="M6.9220 14.9328
L6.9220 14.4169
" />
</g><path style="fill:none; 
stroke:#585D84; stroke-width:0.0212; stroke-opacity:1; 
stroke-linecap:round; stroke-linejoin:round;fill:none"
d="M 5.6401,13.6550
5.6592,13.5593
5.7134,13.4782
5.7945,13.4240
5.8901,13.4050
7.1901,13.4050
7.2858,13.4240
7.3669,13.4782
7.4211,13.5593
7.4401,13.6550
7.4401,15.6550
7.4211,15.7507
7.3669,15.8318
7.2858,15.8860
7.1901,15.9050
5.8901,15.9050
5.7945,15.8860
5.7134,15.8318
5.6592,15.7507
5.6401,15.6550
Z" /> 
</g>
<g style="fill:none; 
stroke:#585D84; stroke-width:0.0639; stroke-opacity:1; 
stroke-linecap:round; stroke-linejoin:round;">
<text x="8.6483" y="7.4183"
textLength="0.7685" font-size="1.0222" lengthAdjust="spacingAndGlyphs"
text-anchor="middle" opacity="0" stroke-opacity="0">2</text>
<g class="stroked-text"><desc>2</desc>
<path d="M8.4293 6.6927
L8.4658 6.6562
" />
<path d="M8.4658 6.6562
L8.5388 6.6197
" />
<path d="M8.5388 6.6197
L8.7213 6.6197
" />
<path d="M8.7213 6.6197
L8.7944 6.6562
" />
<path d="M8.7944 6.6562
L8.8309 6.6927
" />
<path d="M8.8309 6.6927
L8.8674 6.7657
" />
<path d="M8.8674 6.7657
L8.8674 6.8387
" />
<path d="M8.8674 6.8387
L8.8309 6.9483
" />
<path d="M8.8309 6.9483
L8.3928 7.3864
" />
<path d="M8.3928 7.3864
L8.8674 7.3864
" />
</g></g>
<g style="fill:none; 
stroke:#585D84; stroke-width:0.0212; stroke-opacity:1; 
stroke-linecap:round; stroke-linejoin:round;">
<circle cx="8.6483" cy="7.0350" r="1.1500" /> 
<path style="fill:none; 
stroke:#AFAFAF; stroke-width:0.1000; stroke-opacity:1; 
stroke-linecap:round; stroke-linejoin:round;fill:none"
d="M 5.4583,2.5750
19.4583,2.5750
19.4583,16.5750
5.4583,16.5750
Z" /> 
</g>
<g style="fill:none; 
stroke:#AFAFAF; stroke-width:0.0212; stroke-opacity:1; 
stroke-linecap:round; stroke-linejoin:round;">
<circle cx="7.3783" cy="9.5750" r="0.8500" /> 
</g>
<g style="fill:none; 
stroke:#AFAFAF; stroke-width:0.0212; stroke-opacity:1; 
stroke-linecap:round; stroke-linejoin:round;">
<circle cx="9.9183" cy="14.6550" r="1.5000" /> 
</g>
<g style="fill:none; 
stroke:#AFAFAF; stroke-width:0.0212; stroke-opacity:1; 
stroke-linecap:round; stroke-linejoin:round;">
<circle cx="12.4583" cy="9.5750" r="2.0000" /> 
</g>
<g style="fill:none; 
stroke:#AFAFAF; stroke-width:0.0212; stroke-opacity:1; 
stroke-linecap:round; stroke-linejoin:round;">
<circle cx="16.2683" cy="12.1150" r="1.5000" /> 
</g>
<g style="fill:none; 
stroke:#AFAFAF; stroke-width:0.0212; stroke-opacity:1; 
stroke-linecap:round; stroke-linejoin:round;">
<circle cx="17.5383" cy="9.5750" r="0.8500" /> 
</g>
<g style="fill:none; 
stroke:#AFAFAF; stroke-width:0.0639; stroke-opacity:1; 
stroke-linecap:round; stroke-linejoin:round;">
<text x="14.9983" y="4.8783"
textLength="0.7685" font-size="1.0222" lengthAdjust="spacingAndGlyphs"
text-anchor="middle" opacity="0" stroke-opacity="0">1</text>
<g class="stroked-text"><desc>1</desc>
<path d="M15.2174 4.8464
L14.7793 4.8464
" />
<path d="M14.9983 4.8464
L14.9983 4.0797
" />
<path d="M14.9983 4.0797
L14.9253 4.1892
" />
<path d="M14.9253 4.1892
L14.8523 4.2622
" />
<path d="M14.8523 4.2622
L14.7793 4.2987
" />
</g></g>
<g style="fill:none; 
stroke:#AFAFAF; stroke-width:0.0212; stroke-opacity:1; 
stroke-linecap:round; stroke-linejoin:round;">
<circle cx="14.9983" cy="4.4950" r="1.1500" /> 
</g>
<g style="fill:none; 
stroke:#AFAFAF; stroke-width:0.0639; stroke-opacity:1; 
stroke-linecap:round; stroke-linejoin:round;">
<text x="8.6483" y="7.4183"
textLength="0.7685" font-size="1.0222" lengthAdjust="spacingAndGlyphs"
text-anchor="middle" opacity="0" stroke-opacity="0">2</text>
<g class="stroked-text"><desc>2</desc>
<path d="M8.4293 6.6927
L8.4658 6.6562
" />
<path d="M8.4658 6.6562
L8.5388 6.6197
" />
<path d="M8.5388 6.6197
L8.7213 6.6197
" />
<path d="M8.7213 6.6197
L8.7944 6.6562
" />
<path d="M8.7944 6.6562
L8.8309 6.6927
" />
<path d="M8.8309 6.6927
L8.8674 6.7657
" />
<path d="M8.8674 6.7657
L8.8674 6.8387
" />
<path d="M8.8674 6.8387
L8.8309 6.9483
" />
<path d="M8.8309 6.9483
L8.3928 7.3864
" />
<path d="M8.3928 7.3864
L8.8674 7.3864
" />
</g></g>
<g style="fill:none; 
stroke:#AFAFAF; stroke-width:0.0212; stroke-opacity:1; 
stroke-linecap:round; stroke-linejoin:round;">
<circle cx="8.6483" cy="7.0350" r="1.1500" /> 
<path style="fill:none; 
stroke:#C2C2C2; stroke-width:0.1000; stroke-opacity:1; 
stroke-linecap:round; stroke-linejoin:round;fill:none"
d="M 2.9333,0.0500
21.9833,0.0500
21.9833,19.1000
2.9333,19.1000
Z" /> 
</g> 
</svg>
