<?xml version="1.0" standalone="no"?>
 <!DOCTYPE svg PUBLIC "-//W3C//DTD SVG 1.1//EN" 
 "http://www.w3.org/Graphics/SVG/1.1/DTD/svg11.dtd"> 
<svg
  xmlns:svg="http://www.w3.org/2000/svg"
  xmlns="http://www.w3.org/2000/svg"
  xmlns:xlink="http://www.w3.org/1999/xlink"
  version="1.1"
  width="38.1762mm" height="20.2438mm" viewBox="0.0000 0.0000 38.1762 20.2438">
<title>SVG Image created as SW_MX_2U_HotSwap_sqSilkAlt.svg date 2025/04/11 03:39:52 </title>
  <desc>Image generated by PCBNEW </desc>
<g style="fill:#000000; fill-opacity:1.0000;stroke:#000000; stroke-opacity:1.0000;
stroke-linecap:round; stroke-linejoin:round;"
 transform="translate(0 0) scale(1 1)">
</g>
<g style="fill:none; 
stroke:#F2EDA1; stroke-width:0.1500; stroke-opacity:1; 
stroke-linecap:round; stroke-linejoin:round;">
<text x="20.8780" y="4.9950"
textLength="4.5357" font-size="1.3333" lengthAdjust="spacingAndGlyphs"
text-anchor="middle" opacity="0" stroke-opacity="0">REF**</text>
<g class="stroked-text"><desc>REF**</desc>
<path d="M19.5447 4.9498
L19.2113 4.4736
" />
<path d="M18.9732 4.9498
L18.9732 3.9498
" />
<path d="M18.9732 3.9498
L19.3542 3.9498
" />
<path d="M19.3542 3.9498
L19.4494 3.9974
" />
<path d="M19.4494 3.9974
L19.4970 4.0451
" />
<path d="M19.4970 4.0451
L19.5447 4.1403
" />
<path d="M19.5447 4.1403
L19.5447 4.2832
" />
<path d="M19.5447 4.2832
L19.4970 4.3784
" />
<path d="M19.4970 4.3784
L19.4494 4.4260
" />
<path d="M19.4494 4.4260
L19.3542 4.4736
" />
<path d="M19.3542 4.4736
L18.9732 4.4736
" />
<path d="M19.9732 4.4260
L20.3066 4.4260
" />
<path d="M20.4494 4.9498
L19.9732 4.9498
" />
<path d="M19.9732 4.9498
L19.9732 3.9498
" />
<path d="M19.9732 3.9498
L20.4494 3.9498
" />
<path d="M21.2113 4.4260
L20.8780 4.4260
" />
<path d="M20.8780 4.9498
L20.8780 3.9498
" />
<path d="M20.8780 3.9498
L21.3542 3.9498
" />
<path d="M21.8780 3.9498
L21.8780 4.1879
" />
<path d="M21.6399 4.0927
L21.8780 4.1879
" />
<path d="M21.8780 4.1879
L22.1161 4.0927
" />
<path d="M21.7351 4.3784
L21.8780 4.1879
" />
<path d="M21.8780 4.1879
L22.0209 4.3784
" />
<path d="M22.6399 3.9498
L22.6399 4.1879
" />
<path d="M22.4018 4.0927
L22.6399 4.1879
" />
<path d="M22.6399 4.1879
L22.8780 4.0927
" />
<path d="M22.4970 4.3784
L22.6399 4.1879
" />
<path d="M22.6399 4.1879
L22.7828 4.3784
" />
</g></g>
<g style="fill:none; 
stroke:#F2EDA1; stroke-width:0.1200; stroke-opacity:1; 
stroke-linecap:round; stroke-linejoin:round;">
<path d="M14.0200 2.5900
L14.0200 2.9450
" />
<path d="M14.0200 7.0350
L14.0200 6.0450
" />
<path d="M14.0200 7.0350
L19.1000 7.0350
" />
<path d="M21.5642 8.9400
L23.2910 8.9400
" />
<path d="M22.9100 2.5900
L14.0200 2.5900
" />
<path d="M25.1000 8.9400
L25.4500 8.9400
" />
<path d="M25.4500 5.1300
L25.4500 5.4850
" />
<path d="M25.4500 8.5850
L25.4500 8.9400
" />
<path d="M21.5596 8.9412 A2.5400 2.5400 0.0 0 0 19.1000 7.0350" />
<path d="M25.4500 5.1300 A2.5400 2.5400 0.0 0 0 22.9100 2.5900" />
</g>
<g style="fill:none; 
stroke:#E8B2A7; stroke-width:0.1200; stroke-opacity:1; 
stroke-linecap:round; stroke-linejoin:round;">
<path d="M2.5750 2.9750
L2.5750 16.1750
" />
<path d="M2.9750 2.5750
L5.2000 2.5750
" />
<path d="M5.2000 16.5750
L2.9750 16.5750
" />
<path d="M29.1000 2.5750
L9.1000 2.5750
" />
<path d="M29.1000 16.5750
L9.1000 16.5750
" />
<path d="M33.0000 2.5750
L35.2250 2.5750
" />
<path d="M35.2250 16.5750
L33.0000 16.5750
" />
<path d="M35.6250 16.1750
L35.6250 2.9750
" />
<path d="M2.9750 2.5750 A0.4000 0.4000 0.0 0 0 2.5750 2.9750" />
<path d="M2.5750 16.1750 A0.4000 0.4000 0.0 0 0 2.9750 16.5750" />
<path d="M35.6250 2.9750 A0.4000 0.4000 0.0 0 0 35.2250 2.5750" />
<path d="M35.2250 16.5750 A0.4000 0.4000 0.0 0 0 35.6250 16.1750" />
<path style="fill:#B4A09A; fill-opacity:0.9000; stroke:none;fill-rule:evenodd;"
d="M 25.3850,6.0350
25.4040,5.9393
25.4582,5.8582
25.5393,5.8040
25.6350,5.7850
27.6850,5.7850
27.7807,5.8040
27.8618,5.8582
27.9160,5.9393
27.9350,6.0350
27.9350,8.0350
27.9160,8.1307
27.8618,8.2118
27.7807,8.2660
27.6850,8.2850
25.6350,8.2850
25.5393,8.2660
25.4582,8.2118
25.4040,8.1307
25.3850,8.0350
Z" /> 
<path style="fill:#B4A09A; fill-opacity:0.9000; stroke:none;fill-rule:evenodd;"
d="M 11.5350,3.4950
11.5540,3.3993
11.6082,3.3182
11.6893,3.2640
11.7850,3.2450
13.8350,3.2450
13.9307,3.2640
14.0118,3.3182
14.0660,3.3993
14.0850,3.4950
14.0850,5.4950
14.0660,5.5907
14.0118,5.6718
13.9307,5.7260
13.8350,5.7450
11.7850,5.7450
11.6893,5.7260
11.6082,5.6718
11.5540,5.5907
11.5350,5.4950
Z" /> 
<path style="fill:#C83434; fill-opacity:1.0000; stroke:none;fill-rule:evenodd;"
d="M 25.3850,6.0350
25.4040,5.9393
25.4582,5.8582
25.5393,5.8040
25.6350,5.7850
27.6850,5.7850
27.7807,5.8040
27.8618,5.8582
27.9160,5.9393
27.9350,6.0350
27.9350,8.0350
27.9160,8.1307
27.8618,8.2118
27.7807,8.2660
27.6850,8.2850
25.6350,8.2850
25.5393,8.2660
25.4582,8.2118
25.4040,8.1307
25.3850,8.0350
Z" /> 
<path style="fill:#C83434; fill-opacity:1.0000; stroke:none;fill-rule:evenodd;"
d="M 11.5350,3.4950
11.5540,3.3993
11.6082,3.3182
11.6893,3.2640
11.7850,3.2450
13.8350,3.2450
13.9307,3.2640
14.0118,3.3182
14.0660,3.3993
14.0850,3.4950
14.0850,5.4950
14.0660,5.5907
14.0118,5.6718
13.9307,5.7260
13.8350,5.7450
11.7850,5.7450
11.6893,5.7260
11.6082,5.6718
11.5540,5.5907
11.5350,5.4950
Z" /> 
</g>
<g style="fill:none; 
stroke:#AFAFAF; stroke-width:0.1500; stroke-opacity:1; 
stroke-linecap:round; stroke-linejoin:round;">
<text x="19.1000" y="18.3000"
textLength="22.2500" font-size="1.3333" lengthAdjust="spacingAndGlyphs"
text-anchor="middle" opacity="0" stroke-opacity="0">SW_MX_2U_HotSwap_sqSilkAlt</text>
<g class="stroked-text"><desc>SW_MX_2U_HotSwap_sqSilkAlt</desc>
<path d="M8.2905 18.2072
L8.4333 18.2548
" />
<path d="M8.4333 18.2548
L8.6714 18.2548
" />
<path d="M8.6714 18.2548
L8.7667 18.2072
" />
<path d="M8.7667 18.2072
L8.8143 18.1596
" />
<path d="M8.8143 18.1596
L8.8619 18.0643
" />
<path d="M8.8619 18.0643
L8.8619 17.9691
" />
<path d="M8.8619 17.9691
L8.8143 17.8739
" />
<path d="M8.8143 17.8739
L8.7667 17.8262
" />
<path d="M8.7667 17.8262
L8.6714 17.7786
" />
<path d="M8.6714 17.7786
L8.4810 17.7310
" />
<path d="M8.4810 17.7310
L8.3857 17.6834
" />
<path d="M8.3857 17.6834
L8.3381 17.6358
" />
<path d="M8.3381 17.6358
L8.2905 17.5405
" />
<path d="M8.2905 17.5405
L8.2905 17.4453
" />
<path d="M8.2905 17.4453
L8.3381 17.3501
" />
<path d="M8.3381 17.3501
L8.3857 17.3024
" />
<path d="M8.3857 17.3024
L8.4810 17.2548
" />
<path d="M8.4810 17.2548
L8.7190 17.2548
" />
<path d="M8.7190 17.2548
L8.8619 17.3024
" />
<path d="M9.1952 17.2548
L9.4333 18.2548
" />
<path d="M9.4333 18.2548
L9.6238 17.5405
" />
<path d="M9.6238 17.5405
L9.8143 18.2548
" />
<path d="M9.8143 18.2548
L10.0524 17.2548
" />
<path d="M10.1952 18.3501
L10.9571 18.3501
" />
<path d="M11.1952 18.2548
L11.1952 17.2548
" />
<path d="M11.1952 17.2548
L11.5286 17.9691
" />
<path d="M11.5286 17.9691
L11.8619 17.2548
" />
<path d="M11.8619 17.2548
L11.8619 18.2548
" />
<path d="M12.2429 17.2548
L12.9095 18.2548
" />
<path d="M12.9095 17.2548
L12.2429 18.2548
" />
<path d="M13.0524 18.3501
L13.8143 18.3501
" />
<path d="M14.0048 17.3501
L14.0524 17.3024
" />
<path d="M14.0524 17.3024
L14.1476 17.2548
" />
<path d="M14.1476 17.2548
L14.3857 17.2548
" />
<path d="M14.3857 17.2548
L14.4810 17.3024
" />
<path d="M14.4810 17.3024
L14.5286 17.3501
" />
<path d="M14.5286 17.3501
L14.5762 17.4453
" />
<path d="M14.5762 17.4453
L14.5762 17.5405
" />
<path d="M14.5762 17.5405
L14.5286 17.6834
" />
<path d="M14.5286 17.6834
L13.9571 18.2548
" />
<path d="M13.9571 18.2548
L14.5762 18.2548
" />
<path d="M15.0048 17.2548
L15.0048 18.0643
" />
<path d="M15.0048 18.0643
L15.0524 18.1596
" />
<path d="M15.0524 18.1596
L15.1000 18.2072
" />
<path d="M15.1000 18.2072
L15.1952 18.2548
" />
<path d="M15.1952 18.2548
L15.3857 18.2548
" />
<path d="M15.3857 18.2548
L15.4810 18.2072
" />
<path d="M15.4810 18.2072
L15.5286 18.1596
" />
<path d="M15.5286 18.1596
L15.5762 18.0643
" />
<path d="M15.5762 18.0643
L15.5762 17.2548
" />
<path d="M15.8143 18.3501
L16.5762 18.3501
" />
<path d="M16.8143 18.2548
L16.8143 17.2548
" />
<path d="M16.8143 17.7310
L17.3857 17.7310
" />
<path d="M17.3857 18.2548
L17.3857 17.2548
" />
<path d="M18.0048 18.2548
L17.9095 18.2072
" />
<path d="M17.9095 18.2072
L17.8619 18.1596
" />
<path d="M17.8619 18.1596
L17.8143 18.0643
" />
<path d="M17.8143 18.0643
L17.8143 17.7786
" />
<path d="M17.8143 17.7786
L17.8619 17.6834
" />
<path d="M17.8619 17.6834
L17.9095 17.6358
" />
<path d="M17.9095 17.6358
L18.0048 17.5881
" />
<path d="M18.0048 17.5881
L18.1476 17.5881
" />
<path d="M18.1476 17.5881
L18.2429 17.6358
" />
<path d="M18.2429 17.6358
L18.2905 17.6834
" />
<path d="M18.2905 17.6834
L18.3381 17.7786
" />
<path d="M18.3381 17.7786
L18.3381 18.0643
" />
<path d="M18.3381 18.0643
L18.2905 18.1596
" />
<path d="M18.2905 18.1596
L18.2429 18.2072
" />
<path d="M18.2429 18.2072
L18.1476 18.2548
" />
<path d="M18.1476 18.2548
L18.0048 18.2548
" />
<path d="M18.6238 17.5881
L19.0048 17.5881
" />
<path d="M18.7667 17.2548
L18.7667 18.1120
" />
<path d="M18.7667 18.1120
L18.8143 18.2072
" />
<path d="M18.8143 18.2072
L18.9095 18.2548
" />
<path d="M18.9095 18.2548
L19.0048 18.2548
" />
<path d="M19.2905 18.2072
L19.4333 18.2548
" />
<path d="M19.4333 18.2548
L19.6714 18.2548
" />
<path d="M19.6714 18.2548
L19.7667 18.2072
" />
<path d="M19.7667 18.2072
L19.8143 18.1596
" />
<path d="M19.8143 18.1596
L19.8619 18.0643
" />
<path d="M19.8619 18.0643
L19.8619 17.9691
" />
<path d="M19.8619 17.9691
L19.8143 17.8739
" />
<path d="M19.8143 17.8739
L19.7667 17.8262
" />
<path d="M19.7667 17.8262
L19.6714 17.7786
" />
<path d="M19.6714 17.7786
L19.4810 17.7310
" />
<path d="M19.4810 17.7310
L19.3857 17.6834
" />
<path d="M19.3857 17.6834
L19.3381 17.6358
" />
<path d="M19.3381 17.6358
L19.2905 17.5405
" />
<path d="M19.2905 17.5405
L19.2905 17.4453
" />
<path d="M19.2905 17.4453
L19.3381 17.3501
" />
<path d="M19.3381 17.3501
L19.3857 17.3024
" />
<path d="M19.3857 17.3024
L19.4810 17.2548
" />
<path d="M19.4810 17.2548
L19.7190 17.2548
" />
<path d="M19.7190 17.2548
L19.8619 17.3024
" />
<path d="M20.1952 17.5881
L20.3857 18.2548
" />
<path d="M20.3857 18.2548
L20.5762 17.7786
" />
<path d="M20.5762 17.7786
L20.7667 18.2548
" />
<path d="M20.7667 18.2548
L20.9571 17.5881
" />
<path d="M21.7667 18.2548
L21.7667 17.7310
" />
<path d="M21.7667 17.7310
L21.7190 17.6358
" />
<path d="M21.7190 17.6358
L21.6238 17.5881
" />
<path d="M21.6238 17.5881
L21.4333 17.5881
" />
<path d="M21.4333 17.5881
L21.3381 17.6358
" />
<path d="M21.7667 18.2072
L21.6714 18.2548
" />
<path d="M21.6714 18.2548
L21.4333 18.2548
" />
<path d="M21.4333 18.2548
L21.3381 18.2072
" />
<path d="M21.3381 18.2072
L21.2905 18.1120
" />
<path d="M21.2905 18.1120
L21.2905 18.0167
" />
<path d="M21.2905 18.0167
L21.3381 17.9215
" />
<path d="M21.3381 17.9215
L21.4333 17.8739
" />
<path d="M21.4333 17.8739
L21.6714 17.8739
" />
<path d="M21.6714 17.8739
L21.7667 17.8262
" />
<path d="M22.2429 17.5881
L22.2429 18.5881
" />
<path d="M22.2429 17.6358
L22.3381 17.5881
" />
<path d="M22.3381 17.5881
L22.5286 17.5881
" />
<path d="M22.5286 17.5881
L22.6238 17.6358
" />
<path d="M22.6238 17.6358
L22.6714 17.6834
" />
<path d="M22.6714 17.6834
L22.7190 17.7786
" />
<path d="M22.7190 17.7786
L22.7190 18.0643
" />
<path d="M22.7190 18.0643
L22.6714 18.1596
" />
<path d="M22.6714 18.1596
L22.6238 18.2072
" />
<path d="M22.6238 18.2072
L22.5286 18.2548
" />
<path d="M22.5286 18.2548
L22.3381 18.2548
" />
<path d="M22.3381 18.2548
L22.2429 18.2072
" />
<path d="M22.9095 18.3501
L23.6714 18.3501
" />
<path d="M23.8619 18.2072
L23.9571 18.2548
" />
<path d="M23.9571 18.2548
L24.1476 18.2548
" />
<path d="M24.1476 18.2548
L24.2429 18.2072
" />
<path d="M24.2429 18.2072
L24.2905 18.1120
" />
<path d="M24.2905 18.1120
L24.2905 18.0643
" />
<path d="M24.2905 18.0643
L24.2429 17.9691
" />
<path d="M24.2429 17.9691
L24.1476 17.9215
" />
<path d="M24.1476 17.9215
L24.0048 17.9215
" />
<path d="M24.0048 17.9215
L23.9095 17.8739
" />
<path d="M23.9095 17.8739
L23.8619 17.7786
" />
<path d="M23.8619 17.7786
L23.8619 17.7310
" />
<path d="M23.8619 17.7310
L23.9095 17.6358
" />
<path d="M23.9095 17.6358
L24.0048 17.5881
" />
<path d="M24.0048 17.5881
L24.1476 17.5881
" />
<path d="M24.1476 17.5881
L24.2429 17.6358
" />
<path d="M25.1476 17.5881
L25.1476 18.5881
" />
<path d="M25.1476 18.2072
L25.0524 18.2548
" />
<path d="M25.0524 18.2548
L24.8619 18.2548
" />
<path d="M24.8619 18.2548
L24.7667 18.2072
" />
<path d="M24.7667 18.2072
L24.7190 18.1596
" />
<path d="M24.7190 18.1596
L24.6714 18.0643
" />
<path d="M24.6714 18.0643
L24.6714 17.7786
" />
<path d="M24.6714 17.7786
L24.7190 17.6834
" />
<path d="M24.7190 17.6834
L24.7667 17.6358
" />
<path d="M24.7667 17.6358
L24.8619 17.5881
" />
<path d="M24.8619 17.5881
L25.0524 17.5881
" />
<path d="M25.0524 17.5881
L25.1476 17.6358
" />
<path d="M25.5762 18.2072
L25.7190 18.2548
" />
<path d="M25.7190 18.2548
L25.9571 18.2548
" />
<path d="M25.9571 18.2548
L26.0524 18.2072
" />
<path d="M26.0524 18.2072
L26.1000 18.1596
" />
<path d="M26.1000 18.1596
L26.1476 18.0643
" />
<path d="M26.1476 18.0643
L26.1476 17.9691
" />
<path d="M26.1476 17.9691
L26.1000 17.8739
" />
<path d="M26.1000 17.8739
L26.0524 17.8262
" />
<path d="M26.0524 17.8262
L25.9571 17.7786
" />
<path d="M25.9571 17.7786
L25.7667 17.7310
" />
<path d="M25.7667 17.7310
L25.6714 17.6834
" />
<path d="M25.6714 17.6834
L25.6238 17.6358
" />
<path d="M25.6238 17.6358
L25.5762 17.5405
" />
<path d="M25.5762 17.5405
L25.5762 17.4453
" />
<path d="M25.5762 17.4453
L25.6238 17.3501
" />
<path d="M25.6238 17.3501
L25.6714 17.3024
" />
<path d="M25.6714 17.3024
L25.7667 17.2548
" />
<path d="M25.7667 17.2548
L26.0048 17.2548
" />
<path d="M26.0048 17.2548
L26.1476 17.3024
" />
<path d="M26.5762 18.2548
L26.5762 17.5881
" />
<path d="M26.5762 17.2548
L26.5286 17.3024
" />
<path d="M26.5286 17.3024
L26.5762 17.3501
" />
<path d="M26.5762 17.3501
L26.6238 17.3024
" />
<path d="M26.6238 17.3024
L26.5762 17.2548
" />
<path d="M26.5762 17.2548
L26.5762 17.3501
" />
<path d="M27.1952 18.2548
L27.1000 18.2072
" />
<path d="M27.1000 18.2072
L27.0524 18.1120
" />
<path d="M27.0524 18.1120
L27.0524 17.2548
" />
<path d="M27.5762 18.2548
L27.5762 17.2548
" />
<path d="M27.6714 17.8739
L27.9571 18.2548
" />
<path d="M27.9571 17.5881
L27.5762 17.9691
" />
<path d="M28.3381 17.9691
L28.8143 17.9691
" />
<path d="M28.2429 18.2548
L28.5762 17.2548
" />
<path d="M28.5762 17.2548
L28.9095 18.2548
" />
<path d="M29.3857 18.2548
L29.2905 18.2072
" />
<path d="M29.2905 18.2072
L29.2429 18.1120
" />
<path d="M29.2429 18.1120
L29.2429 17.2548
" />
<path d="M29.6238 17.5881
L30.0048 17.5881
" />
<path d="M29.7667 17.2548
L29.7667 18.1120
" />
<path d="M29.7667 18.1120
L29.8143 18.2072
" />
<path d="M29.8143 18.2072
L29.9095 18.2548
" />
<path d="M29.9095 18.2548
L30.0048 18.2548
" />
</g><text x="19.1000" y="19.9000"
textLength="4.5357" font-size="1.3333" lengthAdjust="spacingAndGlyphs"
text-anchor="middle" opacity="0" stroke-opacity="0">REF**</text>
<g class="stroked-text"><desc>REF**</desc>
<path d="M17.7667 19.8548
L17.4333 19.3786
" />
<path d="M17.1952 19.8548
L17.1952 18.8548
" />
<path d="M17.1952 18.8548
L17.5762 18.8548
" />
<path d="M17.5762 18.8548
L17.6714 18.9024
" />
<path d="M17.6714 18.9024
L17.7190 18.9501
" />
<path d="M17.7190 18.9501
L17.7667 19.0453
" />
<path d="M17.7667 19.0453
L17.7667 19.1882
" />
<path d="M17.7667 19.1882
L17.7190 19.2834
" />
<path d="M17.7190 19.2834
L17.6714 19.3310
" />
<path d="M17.6714 19.3310
L17.5762 19.3786
" />
<path d="M17.5762 19.3786
L17.1952 19.3786
" />
<path d="M18.1952 19.3310
L18.5286 19.3310
" />
<path d="M18.6714 19.8548
L18.1952 19.8548
" />
<path d="M18.1952 19.8548
L18.1952 18.8548
" />
<path d="M18.1952 18.8548
L18.6714 18.8548
" />
<path d="M19.4333 19.3310
L19.1000 19.3310
" />
<path d="M19.1000 19.8548
L19.1000 18.8548
" />
<path d="M19.1000 18.8548
L19.5762 18.8548
" />
<path d="M20.1000 18.8548
L20.1000 19.0929
" />
<path d="M19.8619 18.9977
L20.1000 19.0929
" />
<path d="M20.1000 19.0929
L20.3381 18.9977
" />
<path d="M19.9571 19.2834
L20.1000 19.0929
" />
<path d="M20.1000 19.0929
L20.2429 19.2834
" />
<path d="M20.8619 18.8548
L20.8619 19.0929
" />
<path d="M20.6238 18.9977
L20.8619 19.0929
" />
<path d="M20.8619 19.0929
L21.1000 18.9977
" />
<path d="M20.7190 19.2834
L20.8619 19.0929
" />
<path d="M20.8619 19.0929
L21.0048 19.2834
" />
</g></g>
<g style="fill:none; 
stroke:#AFAFAF; stroke-width:0.1200; stroke-opacity:1; 
stroke-linecap:round; stroke-linejoin:round;">
<path d="M11.4800 3.2250
L11.4800 5.7650
" />
<path d="M11.4800 5.7650
L14.0200 5.7650
" />
<path d="M14.0200 2.5900
L14.0200 7.0350
" />
<path d="M14.0200 3.2250
L11.4800 3.2250
" />
<path d="M14.0200 7.0350
L19.1000 7.0350
" />
<path d="M22.9100 2.5900
L14.0200 2.5900
" />
<path d="M25.4500 8.3050
L27.9900 8.3050
" />
<path d="M25.4500 8.9400
L21.6400 8.9400
" />
<path d="M25.4500 8.9400
L25.4500 5.1300
" />
<path d="M27.9900 5.7650
L25.4500 5.7650
" />
<path d="M27.9900 8.3050
L27.9900 5.7650
" />
<path style="fill:none; 
stroke:#AFAFAF; stroke-width:0.1000; stroke-opacity:1; 
stroke-linecap:round; stroke-linejoin:round;fill:none"
d="M 17.3500,13.1550
20.8500,13.1550
20.8500,16.1550
17.3500,16.1550
Z" /> 
</g>
<g style="fill:none; 
stroke:#AFAFAF; stroke-width:0.1200; stroke-opacity:1; 
stroke-linecap:round; stroke-linejoin:round;">
<path d="M21.5642 8.9590 A2.5400 2.5400 0.0 0 0 19.1000 7.0350" />
<path d="M25.4500 5.1300 A2.5400 2.5400 0.0 0 0 22.9100 2.5900" />
</g>
<g style="fill:none; 
stroke:#AFAFAF; stroke-width:0.0212; stroke-opacity:1; 
stroke-linecap:round; stroke-linejoin:round;">
<circle cx="7.1620" cy="2.5750" r="1.5250" /> 
</g>
<g style="fill:none; 
stroke:#AFAFAF; stroke-width:0.0212; stroke-opacity:1; 
stroke-linecap:round; stroke-linejoin:round;">
<circle cx="7.1620" cy="17.8150" r="2.0000" /> 
</g>
<g style="fill:none; 
stroke:#AFAFAF; stroke-width:0.0212; stroke-opacity:1; 
stroke-linecap:round; stroke-linejoin:round;">
<circle cx="14.0200" cy="9.5750" r="0.8500" /> 
</g>
<g style="fill:none; 
stroke:#AFAFAF; stroke-width:0.0212; stroke-opacity:1; 
stroke-linecap:round; stroke-linejoin:round;">
<circle cx="16.5600" cy="4.4950" r="1.5000" /> 
</g>
<g style="fill:none; 
stroke:#AFAFAF; stroke-width:0.0212; stroke-opacity:1; 
stroke-linecap:round; stroke-linejoin:round;">
<circle cx="19.1000" cy="9.5750" r="2.0000" /> 
</g>
<g style="fill:none; 
stroke:#AFAFAF; stroke-width:0.0212; stroke-opacity:1; 
stroke-linecap:round; stroke-linejoin:round;">
<circle cx="22.9100" cy="7.0350" r="1.5000" /> 
</g>
<g style="fill:none; 
stroke:#AFAFAF; stroke-width:0.0212; stroke-opacity:1; 
stroke-linecap:round; stroke-linejoin:round;">
<circle cx="24.1800" cy="9.5750" r="0.8500" /> 
</g>
<g style="fill:none; 
stroke:#AFAFAF; stroke-width:0.0212; stroke-opacity:1; 
stroke-linecap:round; stroke-linejoin:round;">
<circle cx="31.0380" cy="2.5750" r="1.5250" /> 
</g>
<g style="fill:none; 
stroke:#AFAFAF; stroke-width:0.0212; stroke-opacity:1; 
stroke-linecap:round; stroke-linejoin:round;">
<circle cx="31.0380" cy="17.8150" r="2.0000" /> 
</g>
<g style="fill:none; 
stroke:#AFAFAF; stroke-width:0.0708; stroke-opacity:1; 
stroke-linecap:round; stroke-linejoin:round;">
<text x="26.6600" y="7.4600"
textLength="0.8520" font-size="1.1333" lengthAdjust="spacingAndGlyphs"
text-anchor="middle" opacity="0" stroke-opacity="0">1</text>
<g class="stroked-text"><desc>1</desc>
<path d="M26.9029 7.4245
L26.4171 7.4245
" />
<path d="M26.6600 7.4245
L26.6600 6.5745
" />
<path d="M26.6600 6.5745
L26.5790 6.6960
" />
<path d="M26.5790 6.6960
L26.4981 6.7769
" />
<path d="M26.4981 6.7769
L26.4171 6.8174
" />
</g><path style="fill:none; 
stroke:#AFAFAF; stroke-width:0.0212; stroke-opacity:1; 
stroke-linecap:round; stroke-linejoin:round;fill:none"
d="M 25.3850,6.0350
25.4040,5.9393
25.4582,5.8582
25.5393,5.8040
25.6350,5.7850
27.6850,5.7850
27.7807,5.8040
27.8618,5.8582
27.9160,5.9393
27.9350,6.0350
27.9350,8.0350
27.9160,8.1307
27.8618,8.2118
27.7807,8.2660
27.6850,8.2850
25.6350,8.2850
25.5393,8.2660
25.4582,8.2118
25.4040,8.1307
25.3850,8.0350
Z" /> 
</g>
<g style="fill:none; 
stroke:#AFAFAF; stroke-width:0.0708; stroke-opacity:1; 
stroke-linecap:round; stroke-linejoin:round;">
<text x="12.8100" y="4.9200"
textLength="0.8520" font-size="1.1333" lengthAdjust="spacingAndGlyphs"
text-anchor="middle" opacity="0" stroke-opacity="0">2</text>
<g class="stroked-text"><desc>2</desc>
<path d="M12.5671 4.1155
L12.6076 4.0750
" />
<path d="M12.6076 4.0750
L12.6886 4.0345
" />
<path d="M12.6886 4.0345
L12.8910 4.0345
" />
<path d="M12.8910 4.0345
L12.9719 4.0750
" />
<path d="M12.9719 4.0750
L13.0124 4.1155
" />
<path d="M13.0124 4.1155
L13.0529 4.1964
" />
<path d="M13.0529 4.1964
L13.0529 4.2774
" />
<path d="M13.0529 4.2774
L13.0124 4.3988
" />
<path d="M13.0124 4.3988
L12.5267 4.8845
" />
<path d="M12.5267 4.8845
L13.0529 4.8845
" />
</g><path style="fill:none; 
stroke:#AFAFAF; stroke-width:0.0212; stroke-opacity:1; 
stroke-linecap:round; stroke-linejoin:round;fill:none"
d="M 11.5350,3.4950
11.5540,3.3993
11.6082,3.3182
11.6893,3.2640
11.7850,3.2450
13.8350,3.2450
13.9307,3.2640
14.0118,3.3182
14.0660,3.3993
14.0850,3.4950
14.0850,5.4950
14.0660,5.5907
14.0118,5.6718
13.9307,5.7260
13.8350,5.7450
11.7850,5.7450
11.6893,5.7260
11.6082,5.6718
11.5540,5.5907
11.5350,5.4950
Z" /> 
<path style="fill:none; 
stroke:#585D84; stroke-width:0.0500; stroke-opacity:1; 
stroke-linecap:round; stroke-linejoin:round;fill:none"
d="M 2.5750,2.5750
35.6250,2.5750
35.6250,16.5750
2.5750,16.5750
Z" /> 
</g>
<g style="fill:none; 
stroke:#585D84; stroke-width:0.0212; stroke-opacity:1; 
stroke-linecap:round; stroke-linejoin:round;">
<circle cx="7.1620" cy="2.5750" r="1.5250" /> 
</g>
<g style="fill:none; 
stroke:#585D84; stroke-width:0.0212; stroke-opacity:1; 
stroke-linecap:round; stroke-linejoin:round;">
<circle cx="7.1620" cy="17.8150" r="2.0000" /> 
</g>
<g style="fill:none; 
stroke:#585D84; stroke-width:0.0212; stroke-opacity:1; 
stroke-linecap:round; stroke-linejoin:round;">
<circle cx="14.0200" cy="9.5750" r="0.8500" /> 
</g>
<g style="fill:none; 
stroke:#585D84; stroke-width:0.0212; stroke-opacity:1; 
stroke-linecap:round; stroke-linejoin:round;">
<circle cx="16.5600" cy="4.4950" r="1.5000" /> 
</g>
<g style="fill:none; 
stroke:#585D84; stroke-width:0.0212; stroke-opacity:1; 
stroke-linecap:round; stroke-linejoin:round;">
<circle cx="19.1000" cy="9.5750" r="2.0000" /> 
</g>
<g style="fill:none; 
stroke:#585D84; stroke-width:0.0212; stroke-opacity:1; 
stroke-linecap:round; stroke-linejoin:round;">
<circle cx="22.9100" cy="7.0350" r="1.5000" /> 
</g>
<g style="fill:none; 
stroke:#585D84; stroke-width:0.0212; stroke-opacity:1; 
stroke-linecap:round; stroke-linejoin:round;">
<circle cx="24.1800" cy="9.5750" r="0.8500" /> 
</g>
<g style="fill:none; 
stroke:#585D84; stroke-width:0.0212; stroke-opacity:1; 
stroke-linecap:round; stroke-linejoin:round;">
<circle cx="31.0380" cy="2.5750" r="1.5250" /> 
</g>
<g style="fill:none; 
stroke:#585D84; stroke-width:0.0212; stroke-opacity:1; 
stroke-linecap:round; stroke-linejoin:round;">
<circle cx="31.0380" cy="17.8150" r="2.0000" /> 
<path style="fill:none; 
stroke:#C2C2C2; stroke-width:0.1000; stroke-opacity:1; 
stroke-linecap:round; stroke-linejoin:round;fill:none"
d="M 0.0500,0.0500
38.1500,0.0500
38.1500,19.1000
0.0500,19.1000
Z" /> 
</g> 
</svg>
