<?xml version="1.0" standalone="no"?>
 <!DOCTYPE svg PUBLIC "-//W3C//DTD SVG 1.1//EN" 
 "http://www.w3.org/Graphics/SVG/1.1/DTD/svg11.dtd"> 
<svg
  xmlns:svg="http://www.w3.org/2000/svg"
  xmlns="http://www.w3.org/2000/svg"
  xmlns:xlink="http://www.w3.org/1999/xlink"
  version="1.1"
  width="19.4056mm" height="20.3200mm" viewBox="0.0000 0.0000 19.4056 20.3200">
<title>SVG Image created as SW_MX_Choc_HotSwap.svg date 2025/05/12 02:45:49 </title>
  <desc>Image generated by PCBNEW </desc>
<g style="fill:#000000; fill-opacity:1.0000;stroke:#000000; stroke-opacity:1.0000;
stroke-linecap:round; stroke-linejoin:round;"
 transform="translate(0 0) scale(1 1)">
</g>
<g style="fill:none; 
stroke:#E8B2A7; stroke-width:0.1500; stroke-opacity:1; 
stroke-linecap:round; stroke-linejoin:round;">
<text x="8.0620" y="4.9950"
transform="scale(-1 1) translate(-16.124000 0)"
textLength="4.5357" font-size="1.3333" lengthAdjust="spacingAndGlyphs"
text-anchor="middle" opacity="0" stroke-opacity="0">REF**</text>
<g class="stroked-text"><desc>REF**</desc>
<path d="M9.3953 4.9498
L9.7287 4.4736
" />
<path d="M9.9668 4.9498
L9.9668 3.9498
" />
<path d="M9.9668 3.9498
L9.5858 3.9498
" />
<path d="M9.5858 3.9498
L9.4906 3.9974
" />
<path d="M9.4906 3.9974
L9.4430 4.0451
" />
<path d="M9.4430 4.0451
L9.3953 4.1403
" />
<path d="M9.3953 4.1403
L9.3953 4.2832
" />
<path d="M9.3953 4.2832
L9.4430 4.3784
" />
<path d="M9.4430 4.3784
L9.4906 4.4260
" />
<path d="M9.4906 4.4260
L9.5858 4.4736
" />
<path d="M9.5858 4.4736
L9.9668 4.4736
" />
<path d="M8.9668 4.4260
L8.6334 4.4260
" />
<path d="M8.4906 4.9498
L8.9668 4.9498
" />
<path d="M8.9668 4.9498
L8.9668 3.9498
" />
<path d="M8.9668 3.9498
L8.4906 3.9498
" />
<path d="M7.7287 4.4260
L8.0620 4.4260
" />
<path d="M8.0620 4.9498
L8.0620 3.9498
" />
<path d="M8.0620 3.9498
L7.5858 3.9498
" />
<path d="M7.0620 3.9498
L7.0620 4.1879
" />
<path d="M7.3001 4.0927
L7.0620 4.1879
" />
<path d="M7.0620 4.1879
L6.8239 4.0927
" />
<path d="M7.2049 4.3784
L7.0620 4.1879
" />
<path d="M7.0620 4.1879
L6.9191 4.3784
" />
<path d="M6.3001 3.9498
L6.3001 4.1879
" />
<path d="M6.5382 4.0927
L6.3001 4.1879
" />
<path d="M6.3001 4.1879
L6.0620 4.0927
" />
<path d="M6.4430 4.3784
L6.3001 4.1879
" />
<path d="M6.3001 4.1879
L6.1572 4.3784
" />
</g></g>
<g style="fill:none; 
stroke:#E8B2A7; stroke-width:0.1200; stroke-opacity:1; 
stroke-linecap:round; stroke-linejoin:round;">
<path d="M2.5900 11.0500
L2.5900 11.7750
" />
<path d="M2.5900 11.0500
L6.4440 11.0500
" />
<path d="M2.5900 14.8750
L2.5900 14.9000
" />
<path d="M3.3900 15.7000
L6.3900 15.7000
" />
<path d="M3.4900 5.1300
L3.4900 5.4850
" />
<path d="M3.4900 8.5850
L3.4900 8.9400
" />
<path d="M3.8400 8.9400
L3.4900 8.9400
" />
<path d="M6.0300 2.5900
L14.9200 2.5900
" />
<path d="M7.3758 8.9400
L5.6490 8.9400
" />
<path d="M7.3900 17.0500
L7.3900 16.7000
" />
<path d="M7.3900 17.0500
L8.1900 17.8500
" />
<path d="M11.3400 13.2000
L9.5400 13.2000
" />
<path d="M11.3400 13.2000
L12.1400 14.0000
" />
<path d="M11.3400 17.8500
L8.1900 17.8500
" />
<path d="M12.1400 17.0500
L11.3400 17.8500
" />
<path d="M14.9200 2.5900
L14.9200 2.9450
" />
<path d="M14.9200 7.0350
L9.8400 7.0350
" />
<path d="M14.9200 7.0350
L14.9200 6.0450
" />
<path d="M2.5900 14.9000 A0.8000 0.8000 0.0 0 0 3.3900 15.7000" />
<path d="M6.0300 2.5900 A2.5400 2.5400 0.0 0 0 3.4900 5.1300" />
<path d="M7.3900 16.7000 A1.0000 1.0000 0.0 0 0 6.3900 15.7000" />
<path d="M7.3797 11.7080 A1.0000 1.0000 0.0 0 0 6.4400 11.0500" />
<path d="M9.8400 7.0350 A2.5400 2.5400 0.0 0 0 7.3804 8.9412" />
<path d="M7.3846 11.7079 A2.6255 2.6255 0.0 0 0 9.5400 13.2000" />
</g>
<g style="fill:none; 
stroke:#F2EDA1; stroke-width:0.1200; stroke-opacity:1; 
stroke-linecap:round; stroke-linejoin:round;">
<path d="M2.7400 2.4750
L2.7400 3.4750
" />
<path d="M2.7400 15.6750
L2.7400 16.6750
" />
<path d="M2.7400 16.6750
L3.7400 16.6750
" />
<path d="M3.7400 2.4750
L2.7400 2.4750
" />
<path d="M15.9400 16.6750
L16.9400 16.6750
" />
<path d="M16.9400 2.4750
L15.9400 2.4750
" />
<path d="M16.9400 2.4750
L16.9400 3.4750
" />
<path d="M16.9400 16.6750
L16.9400 15.6750
" />
<path style="fill:#00C2C2; fill-opacity:0.9000; stroke:none;fill-rule:evenodd;"
d="M 2.8650,14.3250
2.8460,14.4207
2.7918,14.5018
2.7107,14.5560
2.6150,14.5750
0.5650,14.5750
0.4693,14.5560
0.3882,14.5018
0.3340,14.4207
0.3150,14.3250
0.3150,12.3250
0.3340,12.2293
0.3882,12.1482
0.4693,12.0940
0.5650,12.0750
2.6150,12.0750
2.7107,12.0940
2.7918,12.1482
2.8460,12.2293
2.8650,12.3250
Z" /> 
<path style="fill:#00C2C2; fill-opacity:0.9000; stroke:none;fill-rule:evenodd;"
d="M 3.5550,8.0350
3.5360,8.1307
3.4818,8.2118
3.4007,8.2660
3.3050,8.2850
1.2550,8.2850
1.1593,8.2660
1.0782,8.2118
1.0240,8.1307
1.0050,8.0350
1.0050,6.0350
1.0240,5.9393
1.0782,5.8582
1.1593,5.8040
1.2550,5.7850
3.3050,5.7850
3.4007,5.8040
3.4818,5.8582
3.5360,5.9393
3.5550,6.0350
Z" /> 
<path style="fill:#00C2C2; fill-opacity:0.9000; stroke:none;fill-rule:evenodd;"
d="M 14.3600,16.5250
14.3410,16.6207
14.2868,16.7018
14.2057,16.7560
14.1100,16.7750
12.0600,16.7750
11.9643,16.7560
11.8832,16.7018
11.8290,16.6207
11.8100,16.5250
11.8100,14.5250
11.8290,14.4293
11.8832,14.3482
11.9643,14.2940
12.0600,14.2750
14.1100,14.2750
14.2057,14.2940
14.2868,14.3482
14.3410,14.4293
14.3600,14.5250
Z" /> 
<path style="fill:#00C2C2; fill-opacity:0.9000; stroke:none;fill-rule:evenodd;"
d="M 17.4050,5.4950
17.3860,5.5907
17.3318,5.6718
17.2507,5.7260
17.1550,5.7450
15.1050,5.7450
15.0093,5.7260
14.9282,5.6718
14.8740,5.5907
14.8550,5.4950
14.8550,3.4950
14.8740,3.3993
14.9282,3.3182
15.0093,3.2640
15.1050,3.2450
17.1550,3.2450
17.2507,3.2640
17.3318,3.3182
17.3860,3.3993
17.4050,3.4950
Z" /> 
<path style="fill:#4D7FC4; fill-opacity:1.0000; stroke:none;fill-rule:evenodd;"
d="M 2.8650,14.3250
2.8460,14.4207
2.7918,14.5018
2.7107,14.5560
2.6150,14.5750
0.5650,14.5750
0.4693,14.5560
0.3882,14.5018
0.3340,14.4207
0.3150,14.3250
0.3150,12.3250
0.3340,12.2293
0.3882,12.1482
0.4693,12.0940
0.5650,12.0750
2.6150,12.0750
2.7107,12.0940
2.7918,12.1482
2.8460,12.2293
2.8650,12.3250
Z" /> 
<path style="fill:#4D7FC4; fill-opacity:1.0000; stroke:none;fill-rule:evenodd;"
d="M 3.5550,8.0350
3.5360,8.1307
3.4818,8.2118
3.4007,8.2660
3.3050,8.2850
1.2550,8.2850
1.1593,8.2660
1.0782,8.2118
1.0240,8.1307
1.0050,8.0350
1.0050,6.0350
1.0240,5.9393
1.0782,5.8582
1.1593,5.8040
1.2550,5.7850
3.3050,5.7850
3.4007,5.8040
3.4818,5.8582
3.5360,5.9393
3.5550,6.0350
Z" /> 
<path style="fill:#4D7FC4; fill-opacity:1.0000; stroke:none;fill-rule:evenodd;"
d="M 14.3600,16.5250
14.3410,16.6207
14.2868,16.7018
14.2057,16.7560
14.1100,16.7750
12.0600,16.7750
11.9643,16.7560
11.8832,16.7018
11.8290,16.6207
11.8100,16.5250
11.8100,14.5250
11.8290,14.4293
11.8832,14.3482
11.9643,14.2940
12.0600,14.2750
14.1100,14.2750
14.2057,14.2940
14.2868,14.3482
14.3410,14.4293
14.3600,14.5250
Z" /> 
<path style="fill:#4D7FC4; fill-opacity:1.0000; stroke:none;fill-rule:evenodd;"
d="M 17.4050,5.4950
17.3860,5.5907
17.3318,5.6718
17.2507,5.7260
17.1550,5.7450
15.1050,5.7450
15.0093,5.7260
14.9282,5.6718
14.8740,5.5907
14.8550,5.4950
14.8550,3.4950
14.8740,3.3993
14.9282,3.3182
15.0093,3.2640
15.1050,3.2450
17.1550,3.2450
17.2507,3.2640
17.3318,3.3182
17.3860,3.3993
17.4050,3.4950
Z" /> 
</g>
<g style="fill:none; 
stroke:#585D84; stroke-width:0.1500; stroke-opacity:1; 
stroke-linecap:round; stroke-linejoin:round;">
<text x="9.8400" y="18.3750"
transform="scale(-1 1) translate(-19.680000 0)"
textLength="16.7262" font-size="1.3333" lengthAdjust="spacingAndGlyphs"
text-anchor="middle" opacity="0" stroke-opacity="0">SW_MX_Choc_HotSwap</text>
<g class="stroked-text"><desc>SW_MX_Choc_HotSwap</desc>
<path d="M17.8876 18.2822
L17.7448 18.3298
" />
<path d="M17.7448 18.3298
L17.5067 18.3298
" />
<path d="M17.5067 18.3298
L17.4114 18.2822
" />
<path d="M17.4114 18.2822
L17.3638 18.2346
" />
<path d="M17.3638 18.2346
L17.3162 18.1393
" />
<path d="M17.3162 18.1393
L17.3162 18.0441
" />
<path d="M17.3162 18.0441
L17.3638 17.9489
" />
<path d="M17.3638 17.9489
L17.4114 17.9012
" />
<path d="M17.4114 17.9012
L17.5067 17.8536
" />
<path d="M17.5067 17.8536
L17.6971 17.8060
" />
<path d="M17.6971 17.8060
L17.7924 17.7584
" />
<path d="M17.7924 17.7584
L17.8400 17.7108
" />
<path d="M17.8400 17.7108
L17.8876 17.6155
" />
<path d="M17.8876 17.6155
L17.8876 17.5203
" />
<path d="M17.8876 17.5203
L17.8400 17.4251
" />
<path d="M17.8400 17.4251
L17.7924 17.3774
" />
<path d="M17.7924 17.3774
L17.6971 17.3298
" />
<path d="M17.6971 17.3298
L17.4590 17.3298
" />
<path d="M17.4590 17.3298
L17.3162 17.3774
" />
<path d="M16.9829 17.3298
L16.7448 18.3298
" />
<path d="M16.7448 18.3298
L16.5543 17.6155
" />
<path d="M16.5543 17.6155
L16.3638 18.3298
" />
<path d="M16.3638 18.3298
L16.1257 17.3298
" />
<path d="M15.9829 18.4251
L15.2210 18.4251
" />
<path d="M14.9829 18.3298
L14.9829 17.3298
" />
<path d="M14.9829 17.3298
L14.6495 18.0441
" />
<path d="M14.6495 18.0441
L14.3162 17.3298
" />
<path d="M14.3162 17.3298
L14.3162 18.3298
" />
<path d="M13.9352 17.3298
L13.2686 18.3298
" />
<path d="M13.2686 17.3298
L13.9352 18.3298
" />
<path d="M13.1257 18.4251
L12.3638 18.4251
" />
<path d="M11.5543 18.2346
L11.6019 18.2822
" />
<path d="M11.6019 18.2822
L11.7448 18.3298
" />
<path d="M11.7448 18.3298
L11.8400 18.3298
" />
<path d="M11.8400 18.3298
L11.9829 18.2822
" />
<path d="M11.9829 18.2822
L12.0781 18.1870
" />
<path d="M12.0781 18.1870
L12.1257 18.0917
" />
<path d="M12.1257 18.0917
L12.1733 17.9012
" />
<path d="M12.1733 17.9012
L12.1733 17.7584
" />
<path d="M12.1733 17.7584
L12.1257 17.5679
" />
<path d="M12.1257 17.5679
L12.0781 17.4727
" />
<path d="M12.0781 17.4727
L11.9829 17.3774
" />
<path d="M11.9829 17.3774
L11.8400 17.3298
" />
<path d="M11.8400 17.3298
L11.7448 17.3298
" />
<path d="M11.7448 17.3298
L11.6019 17.3774
" />
<path d="M11.6019 17.3774
L11.5543 17.4251
" />
<path d="M11.1257 18.3298
L11.1257 17.3298
" />
<path d="M10.6971 18.3298
L10.6971 17.8060
" />
<path d="M10.6971 17.8060
L10.7448 17.7108
" />
<path d="M10.7448 17.7108
L10.8400 17.6632
" />
<path d="M10.8400 17.6632
L10.9829 17.6632
" />
<path d="M10.9829 17.6632
L11.0781 17.7108
" />
<path d="M11.0781 17.7108
L11.1257 17.7584
" />
<path d="M10.0781 18.3298
L10.1733 18.2822
" />
<path d="M10.1733 18.2822
L10.2210 18.2346
" />
<path d="M10.2210 18.2346
L10.2686 18.1393
" />
<path d="M10.2686 18.1393
L10.2686 17.8536
" />
<path d="M10.2686 17.8536
L10.2210 17.7584
" />
<path d="M10.2210 17.7584
L10.1733 17.7108
" />
<path d="M10.1733 17.7108
L10.0781 17.6632
" />
<path d="M10.0781 17.6632
L9.9352 17.6632
" />
<path d="M9.9352 17.6632
L9.8400 17.7108
" />
<path d="M9.8400 17.7108
L9.7924 17.7584
" />
<path d="M9.7924 17.7584
L9.7448 17.8536
" />
<path d="M9.7448 17.8536
L9.7448 18.1393
" />
<path d="M9.7448 18.1393
L9.7924 18.2346
" />
<path d="M9.7924 18.2346
L9.8400 18.2822
" />
<path d="M9.8400 18.2822
L9.9352 18.3298
" />
<path d="M9.9352 18.3298
L10.0781 18.3298
" />
<path d="M8.8876 18.2822
L8.9829 18.3298
" />
<path d="M8.9829 18.3298
L9.1733 18.3298
" />
<path d="M9.1733 18.3298
L9.2686 18.2822
" />
<path d="M9.2686 18.2822
L9.3162 18.2346
" />
<path d="M9.3162 18.2346
L9.3638 18.1393
" />
<path d="M9.3638 18.1393
L9.3638 17.8536
" />
<path d="M9.3638 17.8536
L9.3162 17.7584
" />
<path d="M9.3162 17.7584
L9.2686 17.7108
" />
<path d="M9.2686 17.7108
L9.1733 17.6632
" />
<path d="M9.1733 17.6632
L8.9829 17.6632
" />
<path d="M8.9829 17.6632
L8.8876 17.7108
" />
<path d="M8.6971 18.4251
L7.9352 18.4251
" />
<path d="M7.6971 18.3298
L7.6971 17.3298
" />
<path d="M7.6971 17.8060
L7.1257 17.8060
" />
<path d="M7.1257 18.3298
L7.1257 17.3298
" />
<path d="M6.5067 18.3298
L6.6019 18.2822
" />
<path d="M6.6019 18.2822
L6.6495 18.2346
" />
<path d="M6.6495 18.2346
L6.6971 18.1393
" />
<path d="M6.6971 18.1393
L6.6971 17.8536
" />
<path d="M6.6971 17.8536
L6.6495 17.7584
" />
<path d="M6.6495 17.7584
L6.6019 17.7108
" />
<path d="M6.6019 17.7108
L6.5067 17.6632
" />
<path d="M6.5067 17.6632
L6.3638 17.6632
" />
<path d="M6.3638 17.6632
L6.2686 17.7108
" />
<path d="M6.2686 17.7108
L6.2210 17.7584
" />
<path d="M6.2210 17.7584
L6.1733 17.8536
" />
<path d="M6.1733 17.8536
L6.1733 18.1393
" />
<path d="M6.1733 18.1393
L6.2210 18.2346
" />
<path d="M6.2210 18.2346
L6.2686 18.2822
" />
<path d="M6.2686 18.2822
L6.3638 18.3298
" />
<path d="M6.3638 18.3298
L6.5067 18.3298
" />
<path d="M5.8876 17.6632
L5.5067 17.6632
" />
<path d="M5.7448 17.3298
L5.7448 18.1870
" />
<path d="M5.7448 18.1870
L5.6971 18.2822
" />
<path d="M5.6971 18.2822
L5.6019 18.3298
" />
<path d="M5.6019 18.3298
L5.5067 18.3298
" />
<path d="M5.2210 18.2822
L5.0781 18.3298
" />
<path d="M5.0781 18.3298
L4.8400 18.3298
" />
<path d="M4.8400 18.3298
L4.7448 18.2822
" />
<path d="M4.7448 18.2822
L4.6971 18.2346
" />
<path d="M4.6971 18.2346
L4.6495 18.1393
" />
<path d="M4.6495 18.1393
L4.6495 18.0441
" />
<path d="M4.6495 18.0441
L4.6971 17.9489
" />
<path d="M4.6971 17.9489
L4.7448 17.9012
" />
<path d="M4.7448 17.9012
L4.8400 17.8536
" />
<path d="M4.8400 17.8536
L5.0305 17.8060
" />
<path d="M5.0305 17.8060
L5.1257 17.7584
" />
<path d="M5.1257 17.7584
L5.1733 17.7108
" />
<path d="M5.1733 17.7108
L5.2210 17.6155
" />
<path d="M5.2210 17.6155
L5.2210 17.5203
" />
<path d="M5.2210 17.5203
L5.1733 17.4251
" />
<path d="M5.1733 17.4251
L5.1257 17.3774
" />
<path d="M5.1257 17.3774
L5.0305 17.3298
" />
<path d="M5.0305 17.3298
L4.7924 17.3298
" />
<path d="M4.7924 17.3298
L4.6495 17.3774
" />
<path d="M4.3162 17.6632
L4.1257 18.3298
" />
<path d="M4.1257 18.3298
L3.9352 17.8536
" />
<path d="M3.9352 17.8536
L3.7448 18.3298
" />
<path d="M3.7448 18.3298
L3.5543 17.6632
" />
<path d="M2.7448 18.3298
L2.7448 17.8060
" />
<path d="M2.7448 17.8060
L2.7924 17.7108
" />
<path d="M2.7924 17.7108
L2.8876 17.6632
" />
<path d="M2.8876 17.6632
L3.0781 17.6632
" />
<path d="M3.0781 17.6632
L3.1733 17.7108
" />
<path d="M2.7448 18.2822
L2.8400 18.3298
" />
<path d="M2.8400 18.3298
L3.0781 18.3298
" />
<path d="M3.0781 18.3298
L3.1733 18.2822
" />
<path d="M3.1733 18.2822
L3.2210 18.1870
" />
<path d="M3.2210 18.1870
L3.2210 18.0917
" />
<path d="M3.2210 18.0917
L3.1733 17.9965
" />
<path d="M3.1733 17.9965
L3.0781 17.9489
" />
<path d="M3.0781 17.9489
L2.8400 17.9489
" />
<path d="M2.8400 17.9489
L2.7448 17.9012
" />
<path d="M2.2686 17.6632
L2.2686 18.6632
" />
<path d="M2.2686 17.7108
L2.1733 17.6632
" />
<path d="M2.1733 17.6632
L1.9829 17.6632
" />
<path d="M1.9829 17.6632
L1.8876 17.7108
" />
<path d="M1.8876 17.7108
L1.8400 17.7584
" />
<path d="M1.8400 17.7584
L1.7924 17.8536
" />
<path d="M1.7924 17.8536
L1.7924 18.1393
" />
<path d="M1.7924 18.1393
L1.8400 18.2346
" />
<path d="M1.8400 18.2346
L1.8876 18.2822
" />
<path d="M1.8876 18.2822
L1.9829 18.3298
" />
<path d="M1.9829 18.3298
L2.1733 18.3298
" />
<path d="M2.1733 18.3298
L2.2686 18.2822
" />
</g><text x="9.8400" y="19.9750"
transform="scale(-1 1) translate(-19.680000 0)"
textLength="4.5357" font-size="1.3333" lengthAdjust="spacingAndGlyphs"
text-anchor="middle" opacity="0" stroke-opacity="0">REF**</text>
<g class="stroked-text"><desc>REF**</desc>
<path d="M11.1733 19.9298
L11.5067 19.4536
" />
<path d="M11.7448 19.9298
L11.7448 18.9298
" />
<path d="M11.7448 18.9298
L11.3638 18.9298
" />
<path d="M11.3638 18.9298
L11.2686 18.9774
" />
<path d="M11.2686 18.9774
L11.2210 19.0251
" />
<path d="M11.2210 19.0251
L11.1733 19.1203
" />
<path d="M11.1733 19.1203
L11.1733 19.2632
" />
<path d="M11.1733 19.2632
L11.2210 19.3584
" />
<path d="M11.2210 19.3584
L11.2686 19.4060
" />
<path d="M11.2686 19.4060
L11.3638 19.4536
" />
<path d="M11.3638 19.4536
L11.7448 19.4536
" />
<path d="M10.7448 19.4060
L10.4114 19.4060
" />
<path d="M10.2686 19.9298
L10.7448 19.9298
" />
<path d="M10.7448 19.9298
L10.7448 18.9298
" />
<path d="M10.7448 18.9298
L10.2686 18.9298
" />
<path d="M9.5067 19.4060
L9.8400 19.4060
" />
<path d="M9.8400 19.9298
L9.8400 18.9298
" />
<path d="M9.8400 18.9298
L9.3638 18.9298
" />
<path d="M8.8400 18.9298
L8.8400 19.1679
" />
<path d="M9.0781 19.0727
L8.8400 19.1679
" />
<path d="M8.8400 19.1679
L8.6019 19.0727
" />
<path d="M8.9829 19.3584
L8.8400 19.1679
" />
<path d="M8.8400 19.1679
L8.6971 19.3584
" />
<path d="M8.0781 18.9298
L8.0781 19.1679
" />
<path d="M8.3162 19.0727
L8.0781 19.1679
" />
<path d="M8.0781 19.1679
L7.8400 19.0727
" />
<path d="M8.2210 19.3584
L8.0781 19.1679
" />
<path d="M8.0781 19.1679
L7.9352 19.3584
" />
</g></g>
<g style="fill:none; 
stroke:#585D84; stroke-width:0.1000; stroke-opacity:1; 
stroke-linecap:round; stroke-linejoin:round;">
<path d="M0.2600 12.0550
L2.5900 12.0550
" />
<path d="M0.2600 14.5950
L0.2600 12.0550
" />
<path d="M0.9500 5.7650
L3.4900 5.7650
" />
<path d="M0.9500 8.3050
L0.9500 5.7650
" />
<path d="M2.5900 11.0500
L2.5900 14.9000
" />
<path d="M2.5900 11.0500
L6.4440 11.0500
" />
<path d="M2.5900 14.5950
L0.2600 14.5950
" />
<path d="M3.3900 15.7000
L6.3900 15.7000
" />
<path d="M3.4900 8.3050
L0.9500 8.3050
" />
<path d="M3.4900 8.9400
L3.4900 5.1300
" />
<path d="M3.4900 8.9400
L7.3000 8.9400
" />
<path d="M6.0300 2.5900
L14.9200 2.5900
" />
<path d="M7.3900 17.0500
L7.3900 16.7000
" />
<path d="M7.3900 17.0500
L8.1900 17.8500
" />
<path d="M11.3400 13.2000
L9.5400 13.2000
" />
<path d="M11.3400 13.2000
L12.1400 14.0000
" />
<path d="M11.3400 17.8500
L8.1900 17.8500
" />
<path d="M12.1400 14.0000
L12.1400 17.0500
" />
<path d="M12.1400 14.2550
L14.4150 14.2550
" />
<path d="M12.1400 17.0500
L11.3400 17.8500
" />
<path d="M14.4150 14.2550
L14.4150 16.7950
" />
<path d="M14.4150 16.7950
L12.1400 16.7950
" />
<path d="M14.9200 2.5900
L14.9200 7.0350
" />
<path d="M14.9200 3.2250
L17.4600 3.2250
" />
<path d="M14.9200 7.0350
L9.8400 7.0350
" />
<path d="M17.4600 3.2250
L17.4600 5.7650
" />
<path d="M17.4600 5.7650
L14.9200 5.7650
" />
<path d="M2.5900 14.9000 A0.8000 0.8000 0.0 0 0 3.3900 15.7000" />
<path d="M6.0300 2.5900 A2.5400 2.5400 0.0 0 0 3.4900 5.1300" />
<path d="M7.3900 16.7000 A1.0000 1.0000 0.0 0 0 6.3900 15.7000" />
<path d="M7.3797 11.7080 A1.0000 1.0000 0.0 0 0 6.4400 11.0500" />
<path d="M9.8400 7.0350 A2.5400 2.5400 0.0 0 0 7.3758 8.9590" />
<path d="M7.3846 11.7079 A2.6255 2.6255 0.0 0 0 9.5400 13.2000" />
</g>
<g style="fill:none; 
stroke:#585D84; stroke-width:0.0212; stroke-opacity:1; 
stroke-linecap:round; stroke-linejoin:round;">
<circle cx="4.7600" cy="9.5750" r="0.8500" /> 
</g>
<g style="fill:none; 
stroke:#585D84; stroke-width:0.0212; stroke-opacity:1; 
stroke-linecap:round; stroke-linejoin:round;">
<circle cx="4.8400" cy="13.3250" r="1.5000" /> 
</g>
<g style="fill:none; 
stroke:#585D84; stroke-width:0.0212; stroke-opacity:1; 
stroke-linecap:round; stroke-linejoin:round;">
<circle cx="6.0300" cy="7.0350" r="1.5000" /> 
</g>
<g style="fill:none; 
stroke:#585D84; stroke-width:0.0212; stroke-opacity:1; 
stroke-linecap:round; stroke-linejoin:round;">
<circle cx="9.8400" cy="9.5750" r="2.0000" /> 
</g>
<g style="fill:none; 
stroke:#585D84; stroke-width:0.0212; stroke-opacity:1; 
stroke-linecap:round; stroke-linejoin:round;">
<circle cx="9.8400" cy="15.5250" r="1.5000" /> 
</g>
<g style="fill:none; 
stroke:#585D84; stroke-width:0.0212; stroke-opacity:1; 
stroke-linecap:round; stroke-linejoin:round;">
<circle cx="12.3800" cy="4.4950" r="1.5000" /> 
</g>
<g style="fill:none; 
stroke:#585D84; stroke-width:0.0212; stroke-opacity:1; 
stroke-linecap:round; stroke-linejoin:round;">
<circle cx="14.9200" cy="9.5750" r="0.8500" /> 
</g>
<g style="fill:none; 
stroke:#585D84; stroke-width:0.0708; stroke-opacity:1; 
stroke-linecap:round; stroke-linejoin:round;">
<text x="1.5900" y="13.7500"
textLength="0.8520" font-size="1.1333" lengthAdjust="spacingAndGlyphs"
text-anchor="middle" opacity="0" stroke-opacity="0">1</text>
<g class="stroked-text"><desc>1</desc>
<path d="M1.8329 13.7145
L1.3471 13.7145
" />
<path d="M1.5900 13.7145
L1.5900 12.8645
" />
<path d="M1.5900 12.8645
L1.5090 12.9860
" />
<path d="M1.5090 12.9860
L1.4281 13.0669
" />
<path d="M1.4281 13.0669
L1.3471 13.1074
" />
</g><path style="fill:none; 
stroke:#585D84; stroke-width:0.0212; stroke-opacity:1; 
stroke-linecap:round; stroke-linejoin:round;fill:none"
d="M 2.8650,14.3250
2.8460,14.4207
2.7918,14.5018
2.7107,14.5560
2.6150,14.5750
0.5650,14.5750
0.4693,14.5560
0.3882,14.5018
0.3340,14.4207
0.3150,14.3250
0.3150,12.3250
0.3340,12.2293
0.3882,12.1482
0.4693,12.0940
0.5650,12.0750
2.6150,12.0750
2.7107,12.0940
2.7918,12.1482
2.8460,12.2293
2.8650,12.3250
Z" /> 
</g>
<g style="fill:none; 
stroke:#585D84; stroke-width:0.0708; stroke-opacity:1; 
stroke-linecap:round; stroke-linejoin:round;">
<text x="2.2800" y="7.4600"
textLength="0.8520" font-size="1.1333" lengthAdjust="spacingAndGlyphs"
text-anchor="middle" opacity="0" stroke-opacity="0">1</text>
<g class="stroked-text"><desc>1</desc>
<path d="M2.5229 7.4245
L2.0371 7.4245
" />
<path d="M2.2800 7.4245
L2.2800 6.5745
" />
<path d="M2.2800 6.5745
L2.1990 6.6960
" />
<path d="M2.1990 6.6960
L2.1181 6.7769
" />
<path d="M2.1181 6.7769
L2.0371 6.8174
" />
</g><path style="fill:none; 
stroke:#585D84; stroke-width:0.0212; stroke-opacity:1; 
stroke-linecap:round; stroke-linejoin:round;fill:none"
d="M 3.5550,8.0350
3.5360,8.1307
3.4818,8.2118
3.4007,8.2660
3.3050,8.2850
1.2550,8.2850
1.1593,8.2660
1.0782,8.2118
1.0240,8.1307
1.0050,8.0350
1.0050,6.0350
1.0240,5.9393
1.0782,5.8582
1.1593,5.8040
1.2550,5.7850
3.3050,5.7850
3.4007,5.8040
3.4818,5.8582
3.5360,5.9393
3.5550,6.0350
Z" /> 
</g>
<g style="fill:none; 
stroke:#585D84; stroke-width:0.0708; stroke-opacity:1; 
stroke-linecap:round; stroke-linejoin:round;">
<text x="13.0850" y="15.9500"
textLength="0.8520" font-size="1.1333" lengthAdjust="spacingAndGlyphs"
text-anchor="middle" opacity="0" stroke-opacity="0">2</text>
<g class="stroked-text"><desc>2</desc>
<path d="M12.8421 15.1455
L12.8826 15.1050
" />
<path d="M12.8826 15.1050
L12.9636 15.0645
" />
<path d="M12.9636 15.0645
L13.1660 15.0645
" />
<path d="M13.1660 15.0645
L13.2469 15.1050
" />
<path d="M13.2469 15.1050
L13.2874 15.1455
" />
<path d="M13.2874 15.1455
L13.3279 15.2264
" />
<path d="M13.3279 15.2264
L13.3279 15.3074
" />
<path d="M13.3279 15.3074
L13.2874 15.4288
" />
<path d="M13.2874 15.4288
L12.8017 15.9145
" />
<path d="M12.8017 15.9145
L13.3279 15.9145
" />
</g><path style="fill:none; 
stroke:#585D84; stroke-width:0.0212; stroke-opacity:1; 
stroke-linecap:round; stroke-linejoin:round;fill:none"
d="M 14.3600,16.5250
14.3410,16.6207
14.2868,16.7018
14.2057,16.7560
14.1100,16.7750
12.0600,16.7750
11.9643,16.7560
11.8832,16.7018
11.8290,16.6207
11.8100,16.5250
11.8100,14.5250
11.8290,14.4293
11.8832,14.3482
11.9643,14.2940
12.0600,14.2750
14.1100,14.2750
14.2057,14.2940
14.2868,14.3482
14.3410,14.4293
14.3600,14.5250
Z" /> 
</g>
<g style="fill:none; 
stroke:#585D84; stroke-width:0.0708; stroke-opacity:1; 
stroke-linecap:round; stroke-linejoin:round;">
<text x="16.1300" y="4.9200"
textLength="0.8520" font-size="1.1333" lengthAdjust="spacingAndGlyphs"
text-anchor="middle" opacity="0" stroke-opacity="0">2</text>
<g class="stroked-text"><desc>2</desc>
<path d="M15.8871 4.1155
L15.9276 4.0750
" />
<path d="M15.9276 4.0750
L16.0086 4.0345
" />
<path d="M16.0086 4.0345
L16.2110 4.0345
" />
<path d="M16.2110 4.0345
L16.2919 4.0750
" />
<path d="M16.2919 4.0750
L16.3324 4.1155
" />
<path d="M16.3324 4.1155
L16.3729 4.1964
" />
<path d="M16.3729 4.1964
L16.3729 4.2774
" />
<path d="M16.3729 4.2774
L16.3324 4.3988
" />
<path d="M16.3324 4.3988
L15.8467 4.8845
" />
<path d="M15.8467 4.8845
L16.3729 4.8845
" />
</g><path style="fill:none; 
stroke:#585D84; stroke-width:0.0212; stroke-opacity:1; 
stroke-linecap:round; stroke-linejoin:round;fill:none"
d="M 17.4050,5.4950
17.3860,5.5907
17.3318,5.6718
17.2507,5.7260
17.1550,5.7450
15.1050,5.7450
15.0093,5.7260
14.9282,5.6718
14.8740,5.5907
14.8550,5.4950
14.8550,3.4950
14.8740,3.3993
14.9282,3.3182
15.0093,3.2640
15.1050,3.2450
17.1550,3.2450
17.2507,3.2640
17.3318,3.3182
17.3860,3.3993
17.4050,3.4950
Z" /> 
<path style="fill:none; 
stroke:#AFAFAF; stroke-width:0.1000; stroke-opacity:1; 
stroke-linecap:round; stroke-linejoin:round;fill:none"
d="M 2.8400,2.5750
16.8400,2.5750
16.8400,16.5750
2.8400,16.5750
Z" /> 
</g>
<g style="fill:none; 
stroke:#AFAFAF; stroke-width:0.0212; stroke-opacity:1; 
stroke-linecap:round; stroke-linejoin:round;">
<circle cx="4.7600" cy="9.5750" r="0.8500" /> 
</g>
<g style="fill:none; 
stroke:#AFAFAF; stroke-width:0.0212; stroke-opacity:1; 
stroke-linecap:round; stroke-linejoin:round;">
<circle cx="4.8400" cy="13.3250" r="1.5000" /> 
</g>
<g style="fill:none; 
stroke:#AFAFAF; stroke-width:0.0212; stroke-opacity:1; 
stroke-linecap:round; stroke-linejoin:round;">
<circle cx="6.0300" cy="7.0350" r="1.5000" /> 
</g>
<g style="fill:none; 
stroke:#AFAFAF; stroke-width:0.0212; stroke-opacity:1; 
stroke-linecap:round; stroke-linejoin:round;">
<circle cx="9.8400" cy="9.5750" r="2.0000" /> 
</g>
<g style="fill:none; 
stroke:#AFAFAF; stroke-width:0.0212; stroke-opacity:1; 
stroke-linecap:round; stroke-linejoin:round;">
<circle cx="9.8400" cy="15.5250" r="1.5000" /> 
</g>
<g style="fill:none; 
stroke:#AFAFAF; stroke-width:0.0212; stroke-opacity:1; 
stroke-linecap:round; stroke-linejoin:round;">
<circle cx="12.3800" cy="4.4950" r="1.5000" /> 
</g>
<g style="fill:none; 
stroke:#AFAFAF; stroke-width:0.0212; stroke-opacity:1; 
stroke-linecap:round; stroke-linejoin:round;">
<circle cx="14.9200" cy="9.5750" r="0.8500" /> 
<path style="fill:none; 
stroke:#C2C2C2; stroke-width:0.1000; stroke-opacity:1; 
stroke-linecap:round; stroke-linejoin:round;fill:none"
d="M 0.3150,0.0500
19.3650,0.0500
19.3650,19.1000
0.3150,19.1000
Z" /> 
</g> 
</svg>
