<?xml version="1.0" standalone="no"?>
 <!DOCTYPE svg PUBLIC "-//W3C//DTD SVG 1.1//EN" 
 "http://www.w3.org/Graphics/SVG/1.1/DTD/svg11.dtd"> 
<svg
  xmlns:svg="http://www.w3.org/2000/svg"
  xmlns="http://www.w3.org/2000/svg"
  xmlns:xlink="http://www.w3.org/1999/xlink"
  version="1.1"
  width="21.9456mm" height="20.3200mm" viewBox="0.0000 0.0000 21.9456 20.3200">
<title>SVG Image created as SW_MX_Choc_HotSwap_sqSilk.svg date 2025/04/11 03:39:53 </title>
  <desc>Image generated by PCBNEW </desc>
<g style="fill:#000000; fill-opacity:1.0000;stroke:#000000; stroke-opacity:1.0000;
stroke-linecap:round; stroke-linejoin:round;"
 transform="translate(0 0) scale(1 1)">
</g>
<g style="fill:none; 
stroke:#F2EDA1; stroke-width:0.1500; stroke-opacity:1; 
stroke-linecap:round; stroke-linejoin:round;">
<text x="12.7601" y="4.9950"
textLength="4.5357" font-size="1.3333" lengthAdjust="spacingAndGlyphs"
text-anchor="middle" opacity="0" stroke-opacity="0">REF**</text>
<g class="stroked-text"><desc>REF**</desc>
<path d="M11.4268 4.9498
L11.0935 4.4736
" />
<path d="M10.8554 4.9498
L10.8554 3.9498
" />
<path d="M10.8554 3.9498
L11.2363 3.9498
" />
<path d="M11.2363 3.9498
L11.3316 3.9974
" />
<path d="M11.3316 3.9974
L11.3792 4.0451
" />
<path d="M11.3792 4.0451
L11.4268 4.1403
" />
<path d="M11.4268 4.1403
L11.4268 4.2832
" />
<path d="M11.4268 4.2832
L11.3792 4.3784
" />
<path d="M11.3792 4.3784
L11.3316 4.4260
" />
<path d="M11.3316 4.4260
L11.2363 4.4736
" />
<path d="M11.2363 4.4736
L10.8554 4.4736
" />
<path d="M11.8554 4.4260
L12.1887 4.4260
" />
<path d="M12.3316 4.9498
L11.8554 4.9498
" />
<path d="M11.8554 4.9498
L11.8554 3.9498
" />
<path d="M11.8554 3.9498
L12.3316 3.9498
" />
<path d="M13.0935 4.4260
L12.7601 4.4260
" />
<path d="M12.7601 4.9498
L12.7601 3.9498
" />
<path d="M12.7601 3.9498
L13.2363 3.9498
" />
<path d="M13.7601 3.9498
L13.7601 4.1879
" />
<path d="M13.5220 4.0927
L13.7601 4.1879
" />
<path d="M13.7601 4.1879
L13.9982 4.0927
" />
<path d="M13.6173 4.3784
L13.7601 4.1879
" />
<path d="M13.7601 4.1879
L13.9030 4.3784
" />
<path d="M14.5220 3.9498
L14.5220 4.1879
" />
<path d="M14.2840 4.0927
L14.5220 4.1879
" />
<path d="M14.5220 4.1879
L14.7601 4.0927
" />
<path d="M14.3792 4.3784
L14.5220 4.1879
" />
<path d="M14.5220 4.1879
L14.6649 4.3784
" />
</g></g>
<g style="fill:none; 
stroke:#F2EDA1; stroke-width:0.1200; stroke-opacity:1; 
stroke-linecap:round; stroke-linejoin:round;">
<path d="M5.9021 2.5900
L5.9021 2.9450
" />
<path d="M5.9021 7.0350
L5.9021 6.0450
" />
<path d="M5.9021 7.0350
L10.9821 7.0350
" />
<path d="M8.6821 17.0500
L9.4821 17.8500
" />
<path d="M9.4821 13.2000
L8.6821 14.0000
" />
<path d="M9.4821 13.2000
L11.2821 13.2000
" />
<path d="M9.4821 17.8500
L12.6321 17.8500
" />
<path d="M13.4321 17.0500
L12.6321 17.8500
" />
<path d="M13.4321 17.0500
L13.4321 16.7000
" />
<path d="M13.4463 8.9400
L15.1731 8.9400
" />
<path d="M14.7921 2.5900
L5.9021 2.5900
" />
<path d="M16.9821 8.9400
L17.3321 8.9400
" />
<path d="M17.3321 5.1300
L17.3321 5.4850
" />
<path d="M17.3321 8.5850
L17.3321 8.9400
" />
<path d="M17.4321 15.7000
L14.4321 15.7000
" />
<path d="M18.2321 11.0500
L14.3781 11.0500
" />
<path d="M18.2321 11.0500
L18.2321 11.7750
" />
<path d="M18.2321 14.8750
L18.2321 14.9000
" />
<path d="M13.4418 8.9412 A2.5400 2.5400 0.0 0 0 10.9821 7.0350" />
<path d="M14.4321 15.7000 A1.0000 1.0000 0.0 0 0 13.4321 16.7000" />
<path d="M11.2821 13.2000 A2.6255 2.6255 0.0 0 0 13.4376 11.7079" />
<path d="M14.3821 11.0500 A1.0000 1.0000 0.0 0 0 13.4425 11.7080" />
<path d="M17.3321 5.1300 A2.5400 2.5400 0.0 0 0 14.7921 2.5900" />
<path d="M17.4321 15.7000 A0.8000 0.8000 0.0 0 0 18.2321 14.9000" />
</g>
<g style="fill:none; 
stroke:#E8B2A7; stroke-width:0.1200; stroke-opacity:1; 
stroke-linecap:round; stroke-linejoin:round;">
<path d="M3.9821 2.9750
L3.9821 16.1750
" />
<path d="M4.4571 16.5750
L9.5571 16.5750
" />
<path d="M12.4071 16.5750
L17.5821 16.5750
" />
<path d="M17.5821 2.5750
L4.3821 2.5750
" />
<path d="M17.9821 16.1750
L17.9821 2.9750
" />
<path d="M4.3821 2.5750 A0.4000 0.4000 0.0 0 0 3.9821 2.9750" />
<path d="M3.9821 16.1750 A0.4000 0.4000 0.0 0 0 4.3821 16.5750" />
<path d="M17.9821 2.9750 A0.4000 0.4000 0.0 0 0 17.5821 2.5750" />
<path d="M17.5821 16.5750 A0.4000 0.4000 0.0 0 0 17.9821 16.1750" />
<path style="fill:#B4A09A; fill-opacity:0.9000; stroke:none;fill-rule:evenodd;"
d="M 17.2671,6.0350
17.2862,5.9393
17.3404,5.8582
17.4215,5.8040
17.5171,5.7850
19.5671,5.7850
19.6628,5.8040
19.7439,5.8582
19.7981,5.9393
19.8171,6.0350
19.8171,8.0350
19.7981,8.1307
19.7439,8.2118
19.6628,8.2660
19.5671,8.2850
17.5171,8.2850
17.4215,8.2660
17.3404,8.2118
17.2862,8.1307
17.2671,8.0350
Z" /> 
<path style="fill:#B4A09A; fill-opacity:0.9000; stroke:none;fill-rule:evenodd;"
d="M 17.9571,12.3250
17.9762,12.2293
18.0304,12.1482
18.1115,12.0940
18.2071,12.0750
20.2571,12.0750
20.3528,12.0940
20.4339,12.1482
20.4881,12.2293
20.5071,12.3250
20.5071,14.3250
20.4881,14.4207
20.4339,14.5018
20.3528,14.5560
20.2571,14.5750
18.2071,14.5750
18.1115,14.5560
18.0304,14.5018
17.9762,14.4207
17.9571,14.3250
Z" /> 
<path style="fill:#B4A09A; fill-opacity:0.9000; stroke:none;fill-rule:evenodd;"
d="M 3.4171,3.4950
3.4362,3.3993
3.4904,3.3182
3.5715,3.2640
3.6671,3.2450
5.7171,3.2450
5.8128,3.2640
5.8939,3.3182
5.9481,3.3993
5.9671,3.4950
5.9671,5.4950
5.9481,5.5907
5.8939,5.6718
5.8128,5.7260
5.7171,5.7450
3.6671,5.7450
3.5715,5.7260
3.4904,5.6718
3.4362,5.5907
3.4171,5.4950
Z" /> 
<path style="fill:#B4A09A; fill-opacity:0.9000; stroke:none;fill-rule:evenodd;"
d="M 6.4621,14.5250
6.4812,14.4293
6.5354,14.3482
6.6165,14.2940
6.7121,14.2750
8.7621,14.2750
8.8578,14.2940
8.9389,14.3482
8.9931,14.4293
9.0121,14.5250
9.0121,16.5250
8.9931,16.6207
8.9389,16.7018
8.8578,16.7560
8.7621,16.7750
6.7121,16.7750
6.6165,16.7560
6.5354,16.7018
6.4812,16.6207
6.4621,16.5250
Z" /> 
<path style="fill:#C83434; fill-opacity:1.0000; stroke:none;fill-rule:evenodd;"
d="M 17.2671,6.0350
17.2862,5.9393
17.3404,5.8582
17.4215,5.8040
17.5171,5.7850
19.5671,5.7850
19.6628,5.8040
19.7439,5.8582
19.7981,5.9393
19.8171,6.0350
19.8171,8.0350
19.7981,8.1307
19.7439,8.2118
19.6628,8.2660
19.5671,8.2850
17.5171,8.2850
17.4215,8.2660
17.3404,8.2118
17.2862,8.1307
17.2671,8.0350
Z" /> 
<path style="fill:#C83434; fill-opacity:1.0000; stroke:none;fill-rule:evenodd;"
d="M 17.9571,12.3250
17.9762,12.2293
18.0304,12.1482
18.1115,12.0940
18.2071,12.0750
20.2571,12.0750
20.3528,12.0940
20.4339,12.1482
20.4881,12.2293
20.5071,12.3250
20.5071,14.3250
20.4881,14.4207
20.4339,14.5018
20.3528,14.5560
20.2571,14.5750
18.2071,14.5750
18.1115,14.5560
18.0304,14.5018
17.9762,14.4207
17.9571,14.3250
Z" /> 
<path style="fill:#C83434; fill-opacity:1.0000; stroke:none;fill-rule:evenodd;"
d="M 3.4171,3.4950
3.4362,3.3993
3.4904,3.3182
3.5715,3.2640
3.6671,3.2450
5.7171,3.2450
5.8128,3.2640
5.8939,3.3182
5.9481,3.3993
5.9671,3.4950
5.9671,5.4950
5.9481,5.5907
5.8939,5.6718
5.8128,5.7260
5.7171,5.7450
3.6671,5.7450
3.5715,5.7260
3.4904,5.6718
3.4362,5.5907
3.4171,5.4950
Z" /> 
<path style="fill:#C83434; fill-opacity:1.0000; stroke:none;fill-rule:evenodd;"
d="M 6.4621,14.5250
6.4812,14.4293
6.5354,14.3482
6.6165,14.2940
6.7121,14.2750
8.7621,14.2750
8.8578,14.2940
8.9389,14.3482
8.9931,14.4293
9.0121,14.5250
9.0121,16.5250
8.9931,16.6207
8.9389,16.7018
8.8578,16.7560
8.7621,16.7750
6.7121,16.7750
6.6165,16.7560
6.5354,16.7018
6.4812,16.6207
6.4621,16.5250
Z" /> 
</g>
<g style="fill:none; 
stroke:#AFAFAF; stroke-width:0.1500; stroke-opacity:1; 
stroke-linecap:round; stroke-linejoin:round;">
<text x="10.9821" y="18.3750"
textLength="21.9643" font-size="1.3333" lengthAdjust="spacingAndGlyphs"
text-anchor="middle" opacity="0" stroke-opacity="0">SW_MX_Choc_HotSwap_sqSilk</text>
<g class="stroked-text"><desc>SW_MX_Choc_HotSwap_sqSilk</desc>
<path d="M0.3155 18.2822
L0.4583 18.3298
" />
<path d="M0.4583 18.3298
L0.6964 18.3298
" />
<path d="M0.6964 18.3298
L0.7917 18.2822
" />
<path d="M0.7917 18.2822
L0.8393 18.2346
" />
<path d="M0.8393 18.2346
L0.8869 18.1393
" />
<path d="M0.8869 18.1393
L0.8869 18.0441
" />
<path d="M0.8869 18.0441
L0.8393 17.9489
" />
<path d="M0.8393 17.9489
L0.7917 17.9012
" />
<path d="M0.7917 17.9012
L0.6964 17.8536
" />
<path d="M0.6964 17.8536
L0.5060 17.8060
" />
<path d="M0.5060 17.8060
L0.4107 17.7584
" />
<path d="M0.4107 17.7584
L0.3631 17.7108
" />
<path d="M0.3631 17.7108
L0.3155 17.6155
" />
<path d="M0.3155 17.6155
L0.3155 17.5203
" />
<path d="M0.3155 17.5203
L0.3631 17.4251
" />
<path d="M0.3631 17.4251
L0.4107 17.3774
" />
<path d="M0.4107 17.3774
L0.5060 17.3298
" />
<path d="M0.5060 17.3298
L0.7440 17.3298
" />
<path d="M0.7440 17.3298
L0.8869 17.3774
" />
<path d="M1.2202 17.3298
L1.4583 18.3298
" />
<path d="M1.4583 18.3298
L1.6488 17.6155
" />
<path d="M1.6488 17.6155
L1.8393 18.3298
" />
<path d="M1.8393 18.3298
L2.0774 17.3298
" />
<path d="M2.2202 18.4251
L2.9821 18.4251
" />
<path d="M3.2202 18.3298
L3.2202 17.3298
" />
<path d="M3.2202 17.3298
L3.5536 18.0441
" />
<path d="M3.5536 18.0441
L3.8869 17.3298
" />
<path d="M3.8869 17.3298
L3.8869 18.3298
" />
<path d="M4.2679 17.3298
L4.9345 18.3298
" />
<path d="M4.9345 17.3298
L4.2679 18.3298
" />
<path d="M5.0774 18.4251
L5.8393 18.4251
" />
<path d="M6.6488 18.2346
L6.6012 18.2822
" />
<path d="M6.6012 18.2822
L6.4583 18.3298
" />
<path d="M6.4583 18.3298
L6.3631 18.3298
" />
<path d="M6.3631 18.3298
L6.2202 18.2822
" />
<path d="M6.2202 18.2822
L6.1250 18.1870
" />
<path d="M6.1250 18.1870
L6.0774 18.0917
" />
<path d="M6.0774 18.0917
L6.0298 17.9012
" />
<path d="M6.0298 17.9012
L6.0298 17.7584
" />
<path d="M6.0298 17.7584
L6.0774 17.5679
" />
<path d="M6.0774 17.5679
L6.1250 17.4727
" />
<path d="M6.1250 17.4727
L6.2202 17.3774
" />
<path d="M6.2202 17.3774
L6.3631 17.3298
" />
<path d="M6.3631 17.3298
L6.4583 17.3298
" />
<path d="M6.4583 17.3298
L6.6012 17.3774
" />
<path d="M6.6012 17.3774
L6.6488 17.4251
" />
<path d="M7.0774 18.3298
L7.0774 17.3298
" />
<path d="M7.5060 18.3298
L7.5060 17.8060
" />
<path d="M7.5060 17.8060
L7.4583 17.7108
" />
<path d="M7.4583 17.7108
L7.3631 17.6632
" />
<path d="M7.3631 17.6632
L7.2202 17.6632
" />
<path d="M7.2202 17.6632
L7.1250 17.7108
" />
<path d="M7.1250 17.7108
L7.0774 17.7584
" />
<path d="M8.1250 18.3298
L8.0298 18.2822
" />
<path d="M8.0298 18.2822
L7.9821 18.2346
" />
<path d="M7.9821 18.2346
L7.9345 18.1393
" />
<path d="M7.9345 18.1393
L7.9345 17.8536
" />
<path d="M7.9345 17.8536
L7.9821 17.7584
" />
<path d="M7.9821 17.7584
L8.0298 17.7108
" />
<path d="M8.0298 17.7108
L8.1250 17.6632
" />
<path d="M8.1250 17.6632
L8.2679 17.6632
" />
<path d="M8.2679 17.6632
L8.3631 17.7108
" />
<path d="M8.3631 17.7108
L8.4107 17.7584
" />
<path d="M8.4107 17.7584
L8.4583 17.8536
" />
<path d="M8.4583 17.8536
L8.4583 18.1393
" />
<path d="M8.4583 18.1393
L8.4107 18.2346
" />
<path d="M8.4107 18.2346
L8.3631 18.2822
" />
<path d="M8.3631 18.2822
L8.2679 18.3298
" />
<path d="M8.2679 18.3298
L8.1250 18.3298
" />
<path d="M9.3155 18.2822
L9.2202 18.3298
" />
<path d="M9.2202 18.3298
L9.0298 18.3298
" />
<path d="M9.0298 18.3298
L8.9345 18.2822
" />
<path d="M8.9345 18.2822
L8.8869 18.2346
" />
<path d="M8.8869 18.2346
L8.8393 18.1393
" />
<path d="M8.8393 18.1393
L8.8393 17.8536
" />
<path d="M8.8393 17.8536
L8.8869 17.7584
" />
<path d="M8.8869 17.7584
L8.9345 17.7108
" />
<path d="M8.9345 17.7108
L9.0298 17.6632
" />
<path d="M9.0298 17.6632
L9.2202 17.6632
" />
<path d="M9.2202 17.6632
L9.3155 17.7108
" />
<path d="M9.5060 18.4251
L10.2679 18.4251
" />
<path d="M10.5060 18.3298
L10.5060 17.3298
" />
<path d="M10.5060 17.8060
L11.0774 17.8060
" />
<path d="M11.0774 18.3298
L11.0774 17.3298
" />
<path d="M11.6964 18.3298
L11.6012 18.2822
" />
<path d="M11.6012 18.2822
L11.5536 18.2346
" />
<path d="M11.5536 18.2346
L11.5060 18.1393
" />
<path d="M11.5060 18.1393
L11.5060 17.8536
" />
<path d="M11.5060 17.8536
L11.5536 17.7584
" />
<path d="M11.5536 17.7584
L11.6012 17.7108
" />
<path d="M11.6012 17.7108
L11.6964 17.6632
" />
<path d="M11.6964 17.6632
L11.8393 17.6632
" />
<path d="M11.8393 17.6632
L11.9345 17.7108
" />
<path d="M11.9345 17.7108
L11.9821 17.7584
" />
<path d="M11.9821 17.7584
L12.0298 17.8536
" />
<path d="M12.0298 17.8536
L12.0298 18.1393
" />
<path d="M12.0298 18.1393
L11.9821 18.2346
" />
<path d="M11.9821 18.2346
L11.9345 18.2822
" />
<path d="M11.9345 18.2822
L11.8393 18.3298
" />
<path d="M11.8393 18.3298
L11.6964 18.3298
" />
<path d="M12.3155 17.6632
L12.6964 17.6632
" />
<path d="M12.4583 17.3298
L12.4583 18.1870
" />
<path d="M12.4583 18.1870
L12.5060 18.2822
" />
<path d="M12.5060 18.2822
L12.6012 18.3298
" />
<path d="M12.6012 18.3298
L12.6964 18.3298
" />
<path d="M12.9821 18.2822
L13.1250 18.3298
" />
<path d="M13.1250 18.3298
L13.3631 18.3298
" />
<path d="M13.3631 18.3298
L13.4583 18.2822
" />
<path d="M13.4583 18.2822
L13.5060 18.2346
" />
<path d="M13.5060 18.2346
L13.5536 18.1393
" />
<path d="M13.5536 18.1393
L13.5536 18.0441
" />
<path d="M13.5536 18.0441
L13.5060 17.9489
" />
<path d="M13.5060 17.9489
L13.4583 17.9012
" />
<path d="M13.4583 17.9012
L13.3631 17.8536
" />
<path d="M13.3631 17.8536
L13.1726 17.8060
" />
<path d="M13.1726 17.8060
L13.0774 17.7584
" />
<path d="M13.0774 17.7584
L13.0298 17.7108
" />
<path d="M13.0298 17.7108
L12.9821 17.6155
" />
<path d="M12.9821 17.6155
L12.9821 17.5203
" />
<path d="M12.9821 17.5203
L13.0298 17.4251
" />
<path d="M13.0298 17.4251
L13.0774 17.3774
" />
<path d="M13.0774 17.3774
L13.1726 17.3298
" />
<path d="M13.1726 17.3298
L13.4107 17.3298
" />
<path d="M13.4107 17.3298
L13.5536 17.3774
" />
<path d="M13.8869 17.6632
L14.0774 18.3298
" />
<path d="M14.0774 18.3298
L14.2679 17.8536
" />
<path d="M14.2679 17.8536
L14.4583 18.3298
" />
<path d="M14.4583 18.3298
L14.6488 17.6632
" />
<path d="M15.4583 18.3298
L15.4583 17.8060
" />
<path d="M15.4583 17.8060
L15.4107 17.7108
" />
<path d="M15.4107 17.7108
L15.3155 17.6632
" />
<path d="M15.3155 17.6632
L15.1250 17.6632
" />
<path d="M15.1250 17.6632
L15.0298 17.7108
" />
<path d="M15.4583 18.2822
L15.3631 18.3298
" />
<path d="M15.3631 18.3298
L15.1250 18.3298
" />
<path d="M15.1250 18.3298
L15.0298 18.2822
" />
<path d="M15.0298 18.2822
L14.9821 18.1870
" />
<path d="M14.9821 18.1870
L14.9821 18.0917
" />
<path d="M14.9821 18.0917
L15.0298 17.9965
" />
<path d="M15.0298 17.9965
L15.1250 17.9489
" />
<path d="M15.1250 17.9489
L15.3631 17.9489
" />
<path d="M15.3631 17.9489
L15.4583 17.9012
" />
<path d="M15.9345 17.6632
L15.9345 18.6632
" />
<path d="M15.9345 17.7108
L16.0298 17.6632
" />
<path d="M16.0298 17.6632
L16.2202 17.6632
" />
<path d="M16.2202 17.6632
L16.3155 17.7108
" />
<path d="M16.3155 17.7108
L16.3631 17.7584
" />
<path d="M16.3631 17.7584
L16.4107 17.8536
" />
<path d="M16.4107 17.8536
L16.4107 18.1393
" />
<path d="M16.4107 18.1393
L16.3631 18.2346
" />
<path d="M16.3631 18.2346
L16.3155 18.2822
" />
<path d="M16.3155 18.2822
L16.2202 18.3298
" />
<path d="M16.2202 18.3298
L16.0298 18.3298
" />
<path d="M16.0298 18.3298
L15.9345 18.2822
" />
<path d="M16.6012 18.4251
L17.3631 18.4251
" />
<path d="M17.5536 18.2822
L17.6488 18.3298
" />
<path d="M17.6488 18.3298
L17.8393 18.3298
" />
<path d="M17.8393 18.3298
L17.9345 18.2822
" />
<path d="M17.9345 18.2822
L17.9821 18.1870
" />
<path d="M17.9821 18.1870
L17.9821 18.1393
" />
<path d="M17.9821 18.1393
L17.9345 18.0441
" />
<path d="M17.9345 18.0441
L17.8393 17.9965
" />
<path d="M17.8393 17.9965
L17.6964 17.9965
" />
<path d="M17.6964 17.9965
L17.6012 17.9489
" />
<path d="M17.6012 17.9489
L17.5536 17.8536
" />
<path d="M17.5536 17.8536
L17.5536 17.8060
" />
<path d="M17.5536 17.8060
L17.6012 17.7108
" />
<path d="M17.6012 17.7108
L17.6964 17.6632
" />
<path d="M17.6964 17.6632
L17.8393 17.6632
" />
<path d="M17.8393 17.6632
L17.9345 17.7108
" />
<path d="M18.8393 17.6632
L18.8393 18.6632
" />
<path d="M18.8393 18.2822
L18.7440 18.3298
" />
<path d="M18.7440 18.3298
L18.5536 18.3298
" />
<path d="M18.5536 18.3298
L18.4583 18.2822
" />
<path d="M18.4583 18.2822
L18.4107 18.2346
" />
<path d="M18.4107 18.2346
L18.3631 18.1393
" />
<path d="M18.3631 18.1393
L18.3631 17.8536
" />
<path d="M18.3631 17.8536
L18.4107 17.7584
" />
<path d="M18.4107 17.7584
L18.4583 17.7108
" />
<path d="M18.4583 17.7108
L18.5536 17.6632
" />
<path d="M18.5536 17.6632
L18.7440 17.6632
" />
<path d="M18.7440 17.6632
L18.8393 17.7108
" />
<path d="M19.2679 18.2822
L19.4107 18.3298
" />
<path d="M19.4107 18.3298
L19.6488 18.3298
" />
<path d="M19.6488 18.3298
L19.7440 18.2822
" />
<path d="M19.7440 18.2822
L19.7917 18.2346
" />
<path d="M19.7917 18.2346
L19.8393 18.1393
" />
<path d="M19.8393 18.1393
L19.8393 18.0441
" />
<path d="M19.8393 18.0441
L19.7917 17.9489
" />
<path d="M19.7917 17.9489
L19.7440 17.9012
" />
<path d="M19.7440 17.9012
L19.6488 17.8536
" />
<path d="M19.6488 17.8536
L19.4583 17.8060
" />
<path d="M19.4583 17.8060
L19.3631 17.7584
" />
<path d="M19.3631 17.7584
L19.3155 17.7108
" />
<path d="M19.3155 17.7108
L19.2679 17.6155
" />
<path d="M19.2679 17.6155
L19.2679 17.5203
" />
<path d="M19.2679 17.5203
L19.3155 17.4251
" />
<path d="M19.3155 17.4251
L19.3631 17.3774
" />
<path d="M19.3631 17.3774
L19.4583 17.3298
" />
<path d="M19.4583 17.3298
L19.6964 17.3298
" />
<path d="M19.6964 17.3298
L19.8393 17.3774
" />
<path d="M20.2679 18.3298
L20.2679 17.6632
" />
<path d="M20.2679 17.3298
L20.2202 17.3774
" />
<path d="M20.2202 17.3774
L20.2679 17.4251
" />
<path d="M20.2679 17.4251
L20.3155 17.3774
" />
<path d="M20.3155 17.3774
L20.2679 17.3298
" />
<path d="M20.2679 17.3298
L20.2679 17.4251
" />
<path d="M20.8869 18.3298
L20.7917 18.2822
" />
<path d="M20.7917 18.2822
L20.7440 18.1870
" />
<path d="M20.7440 18.1870
L20.7440 17.3298
" />
<path d="M21.2679 18.3298
L21.2679 17.3298
" />
<path d="M21.3631 17.9489
L21.6488 18.3298
" />
<path d="M21.6488 17.6632
L21.2679 18.0441
" />
</g><text x="10.9821" y="19.9750"
textLength="4.5357" font-size="1.3333" lengthAdjust="spacingAndGlyphs"
text-anchor="middle" opacity="0" stroke-opacity="0">REF**</text>
<g class="stroked-text"><desc>REF**</desc>
<path d="M9.6488 19.9298
L9.3155 19.4536
" />
<path d="M9.0774 19.9298
L9.0774 18.9298
" />
<path d="M9.0774 18.9298
L9.4583 18.9298
" />
<path d="M9.4583 18.9298
L9.5536 18.9774
" />
<path d="M9.5536 18.9774
L9.6012 19.0251
" />
<path d="M9.6012 19.0251
L9.6488 19.1203
" />
<path d="M9.6488 19.1203
L9.6488 19.2632
" />
<path d="M9.6488 19.2632
L9.6012 19.3584
" />
<path d="M9.6012 19.3584
L9.5536 19.4060
" />
<path d="M9.5536 19.4060
L9.4583 19.4536
" />
<path d="M9.4583 19.4536
L9.0774 19.4536
" />
<path d="M10.0774 19.4060
L10.4107 19.4060
" />
<path d="M10.5536 19.9298
L10.0774 19.9298
" />
<path d="M10.0774 19.9298
L10.0774 18.9298
" />
<path d="M10.0774 18.9298
L10.5536 18.9298
" />
<path d="M11.3155 19.4060
L10.9821 19.4060
" />
<path d="M10.9821 19.9298
L10.9821 18.9298
" />
<path d="M10.9821 18.9298
L11.4583 18.9298
" />
<path d="M11.9821 18.9298
L11.9821 19.1679
" />
<path d="M11.7440 19.0727
L11.9821 19.1679
" />
<path d="M11.9821 19.1679
L12.2202 19.0727
" />
<path d="M11.8393 19.3584
L11.9821 19.1679
" />
<path d="M11.9821 19.1679
L12.1250 19.3584
" />
<path d="M12.7440 18.9298
L12.7440 19.1679
" />
<path d="M12.5060 19.0727
L12.7440 19.1679
" />
<path d="M12.7440 19.1679
L12.9821 19.0727
" />
<path d="M12.6012 19.3584
L12.7440 19.1679
" />
<path d="M12.7440 19.1679
L12.8869 19.3584
" />
</g></g>
<g style="fill:none; 
stroke:#AFAFAF; stroke-width:0.1200; stroke-opacity:1; 
stroke-linecap:round; stroke-linejoin:round;">
<path d="M3.3621 3.2250
L3.3621 5.7650
" />
<path d="M3.3621 5.7650
L5.9021 5.7650
" />
<path d="M5.9021 2.5900
L5.9021 7.0350
" />
<path d="M5.9021 3.2250
L3.3621 3.2250
" />
<path d="M5.9021 7.0350
L10.9821 7.0350
" />
<path d="M6.4071 14.2550
L6.4071 16.7950
" />
<path d="M6.4071 16.7950
L8.6821 16.7950
" />
<path d="M8.6821 14.0000
L8.6821 17.0500
" />
<path d="M8.6821 14.2550
L6.4071 14.2550
" />
<path d="M8.6821 17.0500
L9.4821 17.8500
" />
<path d="M9.4821 13.2000
L8.6821 14.0000
" />
<path d="M9.4821 13.2000
L11.2821 13.2000
" />
<path d="M9.4821 17.8500
L12.6321 17.8500
" />
<path d="M13.4321 17.0500
L12.6321 17.8500
" />
<path d="M13.4321 17.0500
L13.4321 16.7000
" />
<path d="M14.7921 2.5900
L5.9021 2.5900
" />
<path d="M17.3321 8.3050
L19.8721 8.3050
" />
<path d="M17.3321 8.9400
L13.5221 8.9400
" />
<path d="M17.3321 8.9400
L17.3321 5.1300
" />
<path d="M17.4321 15.7000
L14.4321 15.7000
" />
<path d="M18.2321 11.0500
L14.3781 11.0500
" />
<path d="M18.2321 11.0500
L18.2321 14.9000
" />
<path d="M18.2321 14.5950
L20.5621 14.5950
" />
<path d="M19.8721 5.7650
L17.3321 5.7650
" />
<path d="M19.8721 8.3050
L19.8721 5.7650
" />
<path d="M20.5621 12.0550
L18.2321 12.0550
" />
<path d="M20.5621 14.5950
L20.5621 12.0550
" />
<path d="M13.4463 8.9590 A2.5400 2.5400 0.0 0 0 10.9821 7.0350" />
<path d="M14.4321 15.7000 A1.0000 1.0000 0.0 0 0 13.4321 16.7000" />
<path d="M11.2821 13.2000 A2.6255 2.6255 0.0 0 0 13.4376 11.7079" />
<path d="M14.3821 11.0500 A1.0000 1.0000 0.0 0 0 13.4425 11.7080" />
<path d="M17.3321 5.1300 A2.5400 2.5400 0.0 0 0 14.7921 2.5900" />
<path d="M17.4321 15.7000 A0.8000 0.8000 0.0 0 0 18.2321 14.9000" />
</g>
<g style="fill:none; 
stroke:#AFAFAF; stroke-width:0.0212; stroke-opacity:1; 
stroke-linecap:round; stroke-linejoin:round;">
<circle cx="5.9021" cy="9.5750" r="0.8500" /> 
</g>
<g style="fill:none; 
stroke:#AFAFAF; stroke-width:0.0212; stroke-opacity:1; 
stroke-linecap:round; stroke-linejoin:round;">
<circle cx="8.4421" cy="4.4950" r="1.5000" /> 
</g>
<g style="fill:none; 
stroke:#AFAFAF; stroke-width:0.0212; stroke-opacity:1; 
stroke-linecap:round; stroke-linejoin:round;">
<circle cx="10.9821" cy="9.5750" r="2.0000" /> 
</g>
<g style="fill:none; 
stroke:#AFAFAF; stroke-width:0.0212; stroke-opacity:1; 
stroke-linecap:round; stroke-linejoin:round;">
<circle cx="10.9821" cy="15.5250" r="1.5000" /> 
</g>
<g style="fill:none; 
stroke:#AFAFAF; stroke-width:0.0212; stroke-opacity:1; 
stroke-linecap:round; stroke-linejoin:round;">
<circle cx="14.7921" cy="7.0350" r="1.5000" /> 
</g>
<g style="fill:none; 
stroke:#AFAFAF; stroke-width:0.0212; stroke-opacity:1; 
stroke-linecap:round; stroke-linejoin:round;">
<circle cx="15.9821" cy="13.3250" r="1.5000" /> 
</g>
<g style="fill:none; 
stroke:#AFAFAF; stroke-width:0.0212; stroke-opacity:1; 
stroke-linecap:round; stroke-linejoin:round;">
<circle cx="16.0621" cy="9.5750" r="0.8500" /> 
</g>
<g style="fill:none; 
stroke:#AFAFAF; stroke-width:0.0708; stroke-opacity:1; 
stroke-linecap:round; stroke-linejoin:round;">
<text x="18.5421" y="7.4600"
textLength="0.8520" font-size="1.1333" lengthAdjust="spacingAndGlyphs"
text-anchor="middle" opacity="0" stroke-opacity="0">1</text>
<g class="stroked-text"><desc>1</desc>
<path d="M18.7850 7.4245
L18.2993 7.4245
" />
<path d="M18.5421 7.4245
L18.5421 6.5745
" />
<path d="M18.5421 6.5745
L18.4612 6.6960
" />
<path d="M18.4612 6.6960
L18.3802 6.7769
" />
<path d="M18.3802 6.7769
L18.2993 6.8174
" />
</g><path style="fill:none; 
stroke:#AFAFAF; stroke-width:0.0212; stroke-opacity:1; 
stroke-linecap:round; stroke-linejoin:round;fill:none"
d="M 17.2671,6.0350
17.2862,5.9393
17.3404,5.8582
17.4215,5.8040
17.5171,5.7850
19.5671,5.7850
19.6628,5.8040
19.7439,5.8582
19.7981,5.9393
19.8171,6.0350
19.8171,8.0350
19.7981,8.1307
19.7439,8.2118
19.6628,8.2660
19.5671,8.2850
17.5171,8.2850
17.4215,8.2660
17.3404,8.2118
17.2862,8.1307
17.2671,8.0350
Z" /> 
</g>
<g style="fill:none; 
stroke:#AFAFAF; stroke-width:0.0708; stroke-opacity:1; 
stroke-linecap:round; stroke-linejoin:round;">
<text x="19.2321" y="13.7500"
textLength="0.8520" font-size="1.1333" lengthAdjust="spacingAndGlyphs"
text-anchor="middle" opacity="0" stroke-opacity="0">1</text>
<g class="stroked-text"><desc>1</desc>
<path d="M19.4750 13.7145
L18.9893 13.7145
" />
<path d="M19.2321 13.7145
L19.2321 12.8645
" />
<path d="M19.2321 12.8645
L19.1512 12.9860
" />
<path d="M19.1512 12.9860
L19.0702 13.0669
" />
<path d="M19.0702 13.0669
L18.9893 13.1074
" />
</g><path style="fill:none; 
stroke:#AFAFAF; stroke-width:0.0212; stroke-opacity:1; 
stroke-linecap:round; stroke-linejoin:round;fill:none"
d="M 17.9571,12.3250
17.9762,12.2293
18.0304,12.1482
18.1115,12.0940
18.2071,12.0750
20.2571,12.0750
20.3528,12.0940
20.4339,12.1482
20.4881,12.2293
20.5071,12.3250
20.5071,14.3250
20.4881,14.4207
20.4339,14.5018
20.3528,14.5560
20.2571,14.5750
18.2071,14.5750
18.1115,14.5560
18.0304,14.5018
17.9762,14.4207
17.9571,14.3250
Z" /> 
</g>
<g style="fill:none; 
stroke:#AFAFAF; stroke-width:0.0708; stroke-opacity:1; 
stroke-linecap:round; stroke-linejoin:round;">
<text x="4.6921" y="4.9200"
textLength="0.8520" font-size="1.1333" lengthAdjust="spacingAndGlyphs"
text-anchor="middle" opacity="0" stroke-opacity="0">2</text>
<g class="stroked-text"><desc>2</desc>
<path d="M4.4493 4.1155
L4.4898 4.0750
" />
<path d="M4.4898 4.0750
L4.5707 4.0345
" />
<path d="M4.5707 4.0345
L4.7731 4.0345
" />
<path d="M4.7731 4.0345
L4.8540 4.0750
" />
<path d="M4.8540 4.0750
L4.8945 4.1155
" />
<path d="M4.8945 4.1155
L4.9350 4.1964
" />
<path d="M4.9350 4.1964
L4.9350 4.2774
" />
<path d="M4.9350 4.2774
L4.8945 4.3988
" />
<path d="M4.8945 4.3988
L4.4088 4.8845
" />
<path d="M4.4088 4.8845
L4.9350 4.8845
" />
</g><path style="fill:none; 
stroke:#AFAFAF; stroke-width:0.0212; stroke-opacity:1; 
stroke-linecap:round; stroke-linejoin:round;fill:none"
d="M 3.4171,3.4950
3.4362,3.3993
3.4904,3.3182
3.5715,3.2640
3.6671,3.2450
5.7171,3.2450
5.8128,3.2640
5.8939,3.3182
5.9481,3.3993
5.9671,3.4950
5.9671,5.4950
5.9481,5.5907
5.8939,5.6718
5.8128,5.7260
5.7171,5.7450
3.6671,5.7450
3.5715,5.7260
3.4904,5.6718
3.4362,5.5907
3.4171,5.4950
Z" /> 
</g>
<g style="fill:none; 
stroke:#AFAFAF; stroke-width:0.0708; stroke-opacity:1; 
stroke-linecap:round; stroke-linejoin:round;">
<text x="7.7371" y="15.9500"
textLength="0.8520" font-size="1.1333" lengthAdjust="spacingAndGlyphs"
text-anchor="middle" opacity="0" stroke-opacity="0">2</text>
<g class="stroked-text"><desc>2</desc>
<path d="M7.4943 15.1455
L7.5348 15.1050
" />
<path d="M7.5348 15.1050
L7.6157 15.0645
" />
<path d="M7.6157 15.0645
L7.8181 15.0645
" />
<path d="M7.8181 15.0645
L7.8990 15.1050
" />
<path d="M7.8990 15.1050
L7.9395 15.1455
" />
<path d="M7.9395 15.1455
L7.9800 15.2264
" />
<path d="M7.9800 15.2264
L7.9800 15.3074
" />
<path d="M7.9800 15.3074
L7.9395 15.4288
" />
<path d="M7.9395 15.4288
L7.4538 15.9145
" />
<path d="M7.4538 15.9145
L7.9800 15.9145
" />
</g><path style="fill:none; 
stroke:#AFAFAF; stroke-width:0.0212; stroke-opacity:1; 
stroke-linecap:round; stroke-linejoin:round;fill:none"
d="M 6.4621,14.5250
6.4812,14.4293
6.5354,14.3482
6.6165,14.2940
6.7121,14.2750
8.7621,14.2750
8.8578,14.2940
8.9389,14.3482
8.9931,14.4293
9.0121,14.5250
9.0121,16.5250
8.9931,16.6207
8.9389,16.7018
8.8578,16.7560
8.7621,16.7750
6.7121,16.7750
6.6165,16.7560
6.5354,16.7018
6.4812,16.6207
6.4621,16.5250
Z" /> 
<path style="fill:none; 
stroke:#585D84; stroke-width:0.0500; stroke-opacity:1; 
stroke-linecap:round; stroke-linejoin:round;fill:none"
d="M 3.9821,2.5750
17.9821,2.5750
17.9821,16.5750
3.9821,16.5750
Z" /> 
</g>
<g style="fill:none; 
stroke:#585D84; stroke-width:0.0212; stroke-opacity:1; 
stroke-linecap:round; stroke-linejoin:round;">
<circle cx="5.9021" cy="9.5750" r="0.8500" /> 
</g>
<g style="fill:none; 
stroke:#585D84; stroke-width:0.0212; stroke-opacity:1; 
stroke-linecap:round; stroke-linejoin:round;">
<circle cx="8.4421" cy="4.4950" r="1.5000" /> 
</g>
<g style="fill:none; 
stroke:#585D84; stroke-width:0.0212; stroke-opacity:1; 
stroke-linecap:round; stroke-linejoin:round;">
<circle cx="10.9821" cy="9.5750" r="2.0000" /> 
</g>
<g style="fill:none; 
stroke:#585D84; stroke-width:0.0212; stroke-opacity:1; 
stroke-linecap:round; stroke-linejoin:round;">
<circle cx="10.9821" cy="15.5250" r="1.5000" /> 
</g>
<g style="fill:none; 
stroke:#585D84; stroke-width:0.0212; stroke-opacity:1; 
stroke-linecap:round; stroke-linejoin:round;">
<circle cx="14.7921" cy="7.0350" r="1.5000" /> 
</g>
<g style="fill:none; 
stroke:#585D84; stroke-width:0.0212; stroke-opacity:1; 
stroke-linecap:round; stroke-linejoin:round;">
<circle cx="15.9821" cy="13.3250" r="1.5000" /> 
</g>
<g style="fill:none; 
stroke:#585D84; stroke-width:0.0212; stroke-opacity:1; 
stroke-linecap:round; stroke-linejoin:round;">
<circle cx="16.0621" cy="9.5750" r="0.8500" /> 
<path style="fill:none; 
stroke:#C2C2C2; stroke-width:0.1000; stroke-opacity:1; 
stroke-linecap:round; stroke-linejoin:round;fill:none"
d="M 1.4571,0.0500
20.5071,0.0500
20.5071,19.1000
1.4571,19.1000
Z" /> 
</g> 
</svg>
