<svg xmlns="http://www.w3.org/2000/svg" width="72.288" height="76.8" viewBox="0 0 19.126 20.32">
    <g class="stroked-text" style="fill:none;stroke:#f2eda1;stroke-width:.15;stroke-opacity:1;stroke-linecap:round;stroke-linejoin:round">
        <path d="m10.02 4.95-.334-.476M9.448 4.95v-1M9.448 3.95h.381M9.83 3.95l.094.047M9.924 3.997l.048.048M9.972 4.045l.048.095M10.02 4.14v.143M10.02 4.283l-.048.095M9.972 4.378l-.048.048M9.924 4.426l-.095.048M9.83 4.474h-.382M10.448 4.426h.334M10.924 4.95h-.476M10.448 4.95v-1M10.448 3.95h.476M11.686 4.426h-.333M11.353 4.95v-1M11.353 3.95h.476M12.353 3.95v.238M12.115 4.093l.238.095M12.353 4.188l.238-.095M12.21 4.378l.143-.19M12.353 4.188l.143.19M13.115 3.95v.238M12.877 4.093l.238.095M13.115 4.188l.238-.095M12.972 4.378l.143-.19M13.115 4.188l.143.19"/>
    </g>
    <g style="fill:none;stroke:#f2eda1;stroke-width:.12;stroke-opacity:1;stroke-linecap:round;stroke-linejoin:round">
        <path d="M4.495 2.59v.355M4.495 7.035v-.99M4.495 7.035h5.08M12.04 8.94h1.726M13.385 2.59h-8.89M15.575 8.94h.35M15.925 5.13v.355M15.925 8.585v.355M12.035 8.941a2.54 2.54 0 0 0-2.46-1.906M15.925 5.13a2.54 2.54 0 0 0-2.54-2.54"/>
        <path stroke="none" d="m15.86 6.035.019-.096.054-.08.081-.055.096-.019h2.05l.096.019.08.054.055.081.019.096v2l-.019.096-.054.08-.081.055-.096.019h-2.05l-.096-.019-.08-.054-.055-.081-.019-.096ZM2.01 3.495l.019-.096.054-.08.081-.055.096-.019h2.05l.096.019.08.054.055.081.019.096v2l-.019.096-.054.08-.081.055-.096.019H2.26l-.096-.019-.08-.054-.055-.081-.019-.096Z" style="fill:#b4a09a;fill-opacity:.9;stroke:none;fill-rule:evenodd"/>
        <path stroke="none" d="m15.86 6.035.019-.096.054-.08.081-.055.096-.019h2.05l.096.019.08.054.055.081.019.096v2l-.019.096-.054.08-.081.055-.096.019h-2.05l-.096-.019-.08-.054-.055-.081-.019-.096ZM2.01 3.495l.019-.096.054-.08.081-.055.096-.019h2.05l.096.019.08.054.055.081.019.096v2l-.019.096-.054.08-.081.055-.096.019H2.26l-.096-.019-.08-.054-.055-.081-.019-.096Z" style="fill:#c83434;fill-opacity:1;stroke:none;fill-rule:evenodd"/>
        <path d="M2.575 2.575h14v14h-14Z" style="stroke:#585d84;stroke-width:.1;stroke-opacity:1;stroke-linecap:round;stroke-linejoin:round;fill:none"/>
    </g>
    <circle cx="4.495" cy="9.575" r=".85" style="fill:none;stroke:#585d84;stroke-width:.0212;stroke-opacity:1;stroke-linecap:round;stroke-linejoin:round"/>
    <circle cx="7.035" cy="4.495" r="1.5" style="fill:none;stroke:#585d84;stroke-width:.0212;stroke-opacity:1;stroke-linecap:round;stroke-linejoin:round"/>
    <circle cx="9.575" cy="9.575" r="2" style="fill:none;stroke:#585d84;stroke-width:.0212;stroke-opacity:1;stroke-linecap:round;stroke-linejoin:round"/>
    <circle cx="13.385" cy="7.035" r="1.5" style="fill:none;stroke:#585d84;stroke-width:.0212;stroke-opacity:1;stroke-linecap:round;stroke-linejoin:round"/>
    <circle cx="14.655" cy="9.575" r=".85" style="fill:none;stroke:#585d84;stroke-width:.0212;stroke-opacity:1;stroke-linecap:round;stroke-linejoin:round"/>
    <g style="fill:none;stroke:#afafaf;stroke-width:.15;stroke-opacity:1;stroke-linecap:round;stroke-linejoin:round">
        <g class="stroked-text">
            <path d="m1.527 18.282.143.048M1.67 18.33h.238M1.908 18.33l.096-.048M2.004 18.282l.047-.047M2.051 18.235l.048-.096M2.099 18.14v-.096M2.099 18.044l-.048-.095M2.051 17.949l-.047-.048M2.004 17.901l-.096-.047M1.908 17.854l-.19-.048M1.718 17.806l-.095-.048M1.623 17.758l-.048-.047M1.575 17.71l-.048-.095M1.527 17.616v-.096M1.527 17.52l.048-.095M1.575 17.425l.048-.048M1.623 17.377l.095-.047M1.718 17.33h.238M1.956 17.33l.143.047M2.432 17.33l.238 1M2.67 18.33l.19-.714M2.86 17.616l.191.714M3.051 18.33l.238-1M3.432 18.425h.762M4.432 18.33v-1M4.432 17.33l.333.714M4.766 18.044l.333-.714M5.099 17.33v1M5.48 17.33l.666 1M6.146 17.33l-.666 1M6.29 18.425h.761M7.29 18.33v-1M7.29 17.806h.57M7.86 18.33v-1M8.48 18.33l-.096-.048M8.385 18.282l-.048-.047M8.337 18.235l-.048-.096M8.29 18.14v-.286M8.29 17.854l.047-.096M8.337 17.758l.047-.047M8.385 17.71l.095-.047M8.48 17.663h.143M8.623 17.663l.095.048M8.718 17.71l.047.048M8.766 17.758l.047.096M8.813 17.854v.285M8.813 18.14l-.048.095M8.766 18.235l-.048.047M8.718 18.282l-.095.048M8.623 18.33H8.48M9.099 17.663h.38M9.242 17.33v.857M9.242 18.187l.047.095M9.29 18.282l.095.048M9.385 18.33h.095M9.766 18.282l.142.048M9.908 18.33h.238M10.146 18.33l.096-.048M10.242 18.282l.047-.047M10.29 18.235l.047-.096M10.337 18.14v-.096M10.337 18.044l-.048-.095M10.29 17.949l-.048-.048M10.242 17.901l-.096-.047M10.146 17.854l-.19-.048M9.956 17.806l-.095-.048M9.86 17.758l-.047-.047M9.813 17.71l-.048-.095M9.766 17.616v-.096M9.766 17.52l.047-.095M9.813 17.425l.048-.048M9.86 17.377l.096-.047M9.956 17.33h.238M10.194 17.33l.143.047M10.67 17.663l.19.667M10.86 18.33l.191-.476M11.051 17.854l.19.476M11.242 18.33l.19-.667M12.242 18.33v-.524M12.242 17.806l-.048-.095M12.194 17.71l-.095-.047M12.099 17.663h-.19M11.908 17.663l-.095.048M12.242 18.282l-.096.048M12.146 18.33h-.238M11.908 18.33l-.095-.048M11.813 18.282l-.048-.095M11.766 18.187v-.095M11.766 18.092l.047-.095M11.813 17.997l.095-.048M11.908 17.949h.238M12.146 17.949l.096-.048M12.718 17.663v1M12.718 17.71l.095-.047M12.813 17.663h.19M13.004 17.663l.095.048M13.099 17.71l.047.048M13.146 17.758l.048.096M13.194 17.854v.285M13.194 18.14l-.048.095M13.146 18.235l-.047.047M13.099 18.282l-.095.048M13.004 18.33h-.19M12.813 18.33l-.095-.048M13.385 18.425h.761M14.385 17.663v.667M14.385 17.758l.047-.047M14.432 17.71l.095-.047M14.527 17.663h.143M14.67 17.663l.095.048M14.766 17.71l.047.096M14.813 17.806v.524M15.242 18.282l.142.048M15.385 18.33h.238M15.623 18.33l.095-.048M15.718 18.282l.047-.047M15.766 18.235l.047-.096M15.813 18.14v-.096M15.813 18.044l-.048-.095M15.766 17.949l-.048-.048M15.718 17.901l-.095-.047M15.623 17.854l-.19-.048M15.432 17.806l-.095-.048M15.337 17.758l-.048-.047M15.29 17.71l-.048-.095M15.242 17.616v-.096M15.242 17.52l.047-.095M15.29 17.425l.047-.048M15.337 17.377l.095-.047M15.432 17.33h.238M15.67 17.33l.143.047M16.242 18.33v-.667M16.242 17.33l-.048.047M16.194 17.377l.048.048M16.242 17.425l.047-.048M16.29 17.377l-.048-.047M16.242 17.33v.095M16.86 18.33l-.095-.048M16.766 18.282l-.048-.095M16.718 18.187v-.857M17.242 18.33v-1M17.337 17.949l.286.38M17.623 17.663l-.381.381"/>
        </g>
        <g class="stroked-text">
            <path d="m8.242 19.93-.334-.476M7.67 19.93v-1M7.67 18.93h.381M8.051 18.93l.095.047M8.146 18.977l.048.048M8.194 19.025l.048.095M8.242 19.12v.143M8.242 19.263l-.048.095M8.194 19.358l-.048.048M8.146 19.406l-.095.048M8.051 19.454h-.38M8.67 19.406h.334M9.146 19.93H8.67M8.67 19.93v-1M8.67 18.93h.476M9.908 19.406h-.333M9.575 19.93v-1M9.575 18.93h.476M10.575 18.93v.238M10.337 19.073l.238.095M10.575 19.168l.238-.095M10.432 19.358l.143-.19M10.575 19.168l.143.19M11.337 18.93v.238M11.099 19.073l.238.095M11.337 19.168l.238-.095M11.194 19.358l.143-.19M11.337 19.168l.143.19"/>
        </g>
    </g>
    <g style="fill:none;stroke:#afafaf;stroke-width:.1;stroke-opacity:1;stroke-linecap:round;stroke-linejoin:round">
        <path d="M1.955 3.225v2.54M1.955 5.765h2.54M4.495 2.59v4.445M4.495 3.225h-2.54M4.495 7.035h5.08M13.385 2.59h-8.89M15.925 8.305h2.54M15.925 8.94h-3.81M15.925 8.94V5.13M18.465 5.765h-2.54M18.465 8.305v-2.54"/>
        <path d="M7.825 13.155h3.5v3h-3.5Z" style="stroke:#afafaf;stroke-width:.1;stroke-opacity:1;stroke-linecap:round;stroke-linejoin:round;fill:none"/>
        <path d="M12.04 8.959a2.54 2.54 0 0 0-2.465-1.924M15.925 5.13a2.54 2.54 0 0 0-2.54-2.54"/>
    </g>
    <circle cx="4.495" cy="9.575" r=".85" style="fill:none;stroke:#afafaf;stroke-width:.0212;stroke-opacity:1;stroke-linecap:round;stroke-linejoin:round"/>
    <circle cx="7.035" cy="4.495" r="1.5" style="fill:none;stroke:#afafaf;stroke-width:.0212;stroke-opacity:1;stroke-linecap:round;stroke-linejoin:round"/>
    <circle cx="9.575" cy="9.575" r="2" style="fill:none;stroke:#afafaf;stroke-width:.0212;stroke-opacity:1;stroke-linecap:round;stroke-linejoin:round"/>
    <circle cx="13.385" cy="7.035" r="1.5" style="fill:none;stroke:#afafaf;stroke-width:.0212;stroke-opacity:1;stroke-linecap:round;stroke-linejoin:round"/>
    <circle cx="14.655" cy="9.575" r=".85" style="fill:none;stroke:#afafaf;stroke-width:.0212;stroke-opacity:1;stroke-linecap:round;stroke-linejoin:round"/>
    <g style="fill:none;stroke:#afafaf;stroke-width:.0708;stroke-opacity:1;stroke-linecap:round;stroke-linejoin:round">
        <g class="stroked-text">
            <path d="M17.378 7.425h-.486M17.135 7.425v-.85M17.135 6.575l-.081.121M17.054 6.696l-.08.08M16.973 6.777l-.08.04"/>
        </g>
        <path d="m15.86 6.035.019-.096.054-.08.081-.055.096-.019h2.05l.096.019.08.054.055.081.019.096v2l-.019.096-.054.08-.081.055-.096.019h-2.05l-.096-.019-.08-.054-.055-.081-.019-.096Z" style="stroke:#afafaf;stroke-width:.0212;stroke-opacity:1;stroke-linecap:round;stroke-linejoin:round;fill:none"/>
    </g>
    <g style="fill:none;stroke:#afafaf;stroke-width:.0708;stroke-opacity:1;stroke-linecap:round;stroke-linejoin:round">
        <g class="stroked-text">
            <path d="m3.042 4.116.04-.041M3.083 4.075l.08-.04M3.164 4.035h.202M3.366 4.035l.08.04M3.447 4.075l.04.04M3.487 4.116l.04.08M3.528 4.196v.081M3.528 4.277l-.04.122M3.487 4.399l-.485.486M3.002 4.885h.526"/>
        </g>
        <path d="m2.01 3.495.019-.096.054-.08.081-.055.096-.019h2.05l.096.019.08.054.055.081.019.096v2l-.019.096-.054.08-.081.055-.096.019H2.26l-.096-.019-.08-.054-.055-.081-.019-.096Z" style="stroke:#afafaf;stroke-width:.0212;stroke-opacity:1;stroke-linecap:round;stroke-linejoin:round;fill:none"/>
        <path d="M.05.05H19.1V19.1H.05Z" style="stroke:#c2c2c2;stroke-width:.1;stroke-opacity:1;stroke-linecap:round;stroke-linejoin:round;fill:none"/>
    </g>
</svg>
