<svg xmlns="http://www.w3.org/2000/svg" width="76.32" height="80.928" viewBox="0 0 20.193 21.412">
    <g style="fill:none;stroke:#e8b2a7;stroke-width:.12;stroke-opacity:1;stroke-linecap:round;stroke-linejoin:round">
        <path d="M3.001 2.475h1M3.001 3.475v-1M3.001 16.675v-1M4.001 16.675h-1M16.201 2.475h1M17.201 2.475v1M17.201 15.675v1M17.201 16.675h-1"/>
    </g>
    <g class="stroked-text" style="fill:none;stroke:#f2eda1;stroke-width:.15;stroke-opacity:1;stroke-linecap:round;stroke-linejoin:round">
        <path d="m8.768 7.03-.334-.476M8.196 7.03v-1M8.196 6.03h.381M8.577 6.03l.096.047M8.673 6.077l.047.048M8.72 6.125l.048.095M8.768 6.22v.143M8.768 6.363l-.048.095M8.72 6.458l-.047.048M8.673 6.506l-.096.048M8.577 6.554h-.38M9.196 6.506h.334M9.673 7.03h-.477M9.196 7.03v-1M9.196 6.03h.477M10.435 6.506H10.1M10.101 7.03v-1M10.101 6.03h.476M11.101 6.03v.238M10.863 6.173l.238.095M11.101 6.268l.238-.095M10.958 6.458l.143-.19M11.101 6.268l.143.19M11.863 6.03v.238M11.625 6.173l.238.095M11.863 6.268l.238-.095M11.72 6.458l.143-.19M11.863 6.268l.143.19"/>
    </g>
    <g style="fill:none;stroke:#f2eda1;stroke-width:.12;stroke-opacity:1;stroke-linecap:round;stroke-linejoin:round">
        <path d="M3.751 14.02v-.355M6.291 16.56h8.89M7.637 10.21H5.91M15.181 12.115h-5.08M15.181 12.115v.99M15.181 16.56v-.355M3.751 14.02a2.54 2.54 0 0 0 2.54 2.54M7.642 10.209a2.54 2.54 0 0 0 2.46 1.906"/>
        <path stroke="none" d="m17.666 15.655-.019.096-.054.08-.081.055-.096.019h-2.05l-.095-.019-.082-.054-.054-.081-.019-.096v-2l.02-.096.053-.08.082-.055.095-.019h2.05l.096.019.081.054.054.081.02.096ZM3.816 13.115l-.019.096-.054.08-.081.055-.096.019h-2.05l-.095-.019-.082-.054-.054-.081-.019-.096v-2l.02-.096.053-.08.082-.055.095-.019h2.05l.096.019.081.054.054.081.02.096Z" style="fill:#b4a09a;fill-opacity:.9;stroke:none;fill-rule:evenodd"/>
    </g>
    <g style="fill:none;stroke:#4d7fc4;stroke-width:1;stroke-opacity:1;stroke-linecap:round;stroke-linejoin:round">
        <path d="M12.801 17.075h-.4M7.801 17.075h-.4M10.301 17.075h-.4"/>
        <path stroke="none" d="M5.571 8.675v1.66l-.88.74h-.52l-.6-.6v-2.2l.02-.08.04-.06.06-.04.08-.02h1.2ZM16.631 10.875l-.015.076-.043.065-.065.044-.077.015h-1.2l-.6-.6v-1.8l.6-.6h1.2l.077.015.065.044.043.064.015.077Z" style="fill:#4d7fc4;fill-opacity:1;stroke:none;fill-rule:evenodd"/>
    </g>
    <path d="M12.801 2.575h-.4" style="fill:none;stroke:#4d7fc4;stroke-width:1;stroke-opacity:1;stroke-linecap:round;stroke-linejoin:round"/>
    <circle cx="13.911" cy="7.035" r="1.15" style="fill:#4d7fc4;fill-opacity:1;stroke:none"/>
    <circle cx="7.561" cy="4.495" r="1.15" style="fill:#4d7fc4;fill-opacity:1;stroke:none"/>
    <path d="M7.801 2.575h-.4" style="fill:none;stroke:#4d7fc4;stroke-width:1;stroke-opacity:1;stroke-linecap:round;stroke-linejoin:round"/>
    <g style="fill:none;stroke:#c83434;stroke-width:1;stroke-opacity:1;stroke-linecap:round;stroke-linejoin:round">
        <path d="M12.801 17.075h-.4M7.801 17.075h-.4M10.301 17.075h-.4"/>
        <path stroke="none" d="M5.571 8.675v1.66l-.88.74h-.52l-.6-.6v-2.2l.02-.08.04-.06.06-.04.08-.02h1.2ZM16.631 10.875l-.015.076-.043.065-.065.044-.077.015h-1.2l-.6-.6v-1.8l.6-.6h1.2l.077.015.065.044.043.064.015.077Z" style="fill:#c83434;fill-opacity:1;stroke:none;fill-rule:evenodd"/>
    </g>
    <path d="M12.801 2.575h-.4" style="fill:none;stroke:#c83434;stroke-width:1;stroke-opacity:1;stroke-linecap:round;stroke-linejoin:round"/>
    <g style="fill:#c83434;fill-opacity:1;stroke:none">
        <circle cx="13.911" cy="7.035" r="1.15"/>
        <path d="m17.666 15.655-.019.096-.054.08-.081.055-.096.019h-2.05l-.095-.019-.082-.054-.054-.081-.019-.096v-2l.02-.096.053-.08.082-.055.095-.019h2.05l.096.019.081.054.054.081.02.096ZM3.816 13.115l-.019.096-.054.08-.081.055-.096.019h-2.05l-.095-.019-.082-.054-.054-.081-.019-.096v-2l.02-.096.053-.08.082-.055.095-.019h2.05l.096.019.081.054.054.081.02.096Z" style="fill:#c83434;fill-opacity:1;stroke:none;fill-rule:evenodd"/>
    </g>
    <circle cx="7.561" cy="4.495" r="1.15" style="fill:#c83434;fill-opacity:1;stroke:none"/>
    <g style="fill:none;stroke:#c83434;stroke-width:1;stroke-opacity:1;stroke-linecap:round;stroke-linejoin:round">
        <path d="M7.801 2.575h-.4"/>
        <path d="M3.101 2.575h14v14h-14Z" style="stroke:#585d84;stroke-width:.1;stroke-opacity:1;stroke-linecap:round;stroke-linejoin:round;fill:none"/>
    </g>
    <circle cx="6.291" cy="12.115" r="1.5" style="fill:none;stroke:#585d84;stroke-width:.0212;stroke-opacity:1;stroke-linecap:round;stroke-linejoin:round"/>
    <circle cx="10.101" cy="9.575" r="2" style="fill:none;stroke:#585d84;stroke-width:.0212;stroke-opacity:1;stroke-linecap:round;stroke-linejoin:round"/>
    <circle cx="10.101" cy="9.575" r="2" style="fill:none;stroke:#585d84;stroke-width:.0212;stroke-opacity:1;stroke-linecap:round;stroke-linejoin:round"/>
    <circle cx="10.101" cy="9.575" r="2" style="fill:none;stroke:#585d84;stroke-width:.0212;stroke-opacity:1;stroke-linecap:round;stroke-linejoin:round"/>
    <circle cx="12.641" cy="14.655" r="1.5" style="fill:none;stroke:#585d84;stroke-width:.0212;stroke-opacity:1;stroke-linecap:round;stroke-linejoin:round"/>
    <g class="stroked-text" style="fill:none;stroke:#585d84;stroke-width:.0389;stroke-opacity:1;stroke-linecap:round;stroke-linejoin:round">
        <path d="M12.49 17.156h.222M12.446 17.289l.155-.467M12.601 16.822l.156.467"/>
    </g>
    <g style="fill:none;stroke:#585d84;stroke-width:.0212;stroke-opacity:1;stroke-linecap:round;stroke-linejoin:round">
        <path d="M12.801 16.575h-.4M12.401 16.575a.5.5 0 0 0 0 1M12.401 17.575h.4M12.801 17.575a.5.5 0 0 0 0-1"/>
    </g>
    <g class="stroked-text" style="fill:none;stroke:#585d84;stroke-width:.0389;stroke-opacity:1;stroke-linecap:round;stroke-linejoin:round">
        <path d="m7.635 17.044.066.023M7.701 17.067l.022.022M7.723 17.089l.023.044M7.746 17.133v.067M7.746 17.2l-.023.044M7.723 17.244l-.022.023M7.701 17.267l-.044.022M7.657 17.289h-.178M7.479 17.289v-.467M7.479 16.822h.155M7.635 16.822l.044.022M7.679 16.844l.022.023M7.701 16.867l.022.044M7.723 16.911v.044M7.723 16.956 7.701 17M7.701 17l-.022.022M7.679 17.022l-.045.022M7.635 17.044h-.156"/>
    </g>
    <g style="fill:none;stroke:#585d84;stroke-width:.0212;stroke-opacity:1;stroke-linecap:round;stroke-linejoin:round">
        <path d="M7.801 16.575h-.4M7.401 16.575a.5.5 0 0 0 0 1M7.401 17.575h.4M7.801 17.575a.5.5 0 0 0 0-1"/>
    </g>
    <g class="stroked-text" style="fill:none;stroke:#585d84;stroke-width:.0389;stroke-opacity:1;stroke-linecap:round;stroke-linejoin:round">
        <path d="m10.246 17.244-.023.023M10.223 17.267l-.066.022M10.157 17.289h-.045M10.112 17.289l-.066-.022M10.046 17.267 10 17.222M10.001 17.222l-.022-.044M9.979 17.178l-.022-.09M9.957 17.089v-.067M9.957 17.022l.022-.089M9.979 16.933l.022-.044M10.001 16.889l.045-.045M10.046 16.844l.066-.022M10.112 16.822h.045M10.157 16.822l.066.022M10.223 16.844l.023.023"/>
    </g>
    <g style="fill:none;stroke:#585d84;stroke-width:.0212;stroke-opacity:1;stroke-linecap:round;stroke-linejoin:round">
        <path d="M10.301 16.575h-.4M9.901 16.575a.5.5 0 0 0 0 1M9.901 17.575h.4M10.301 17.575a.5.5 0 0 0 0-1"/>
    </g>
    <g style="fill:none;stroke:#585d84;stroke-width:.0833;stroke-opacity:1;stroke-linecap:round;stroke-linejoin:round">
        <g class="stroked-text">
            <path d="M5.03 10.408h-1M4.03 10.408l.714-.333M4.744 10.075l-.715-.333M4.03 9.742h1M5.03 9.266h-1M4.03 9.266v-.382M4.03 8.885l.047-.096M4.077 8.79l.048-.048M4.125 8.742l.095-.048M4.22 8.694h.143M4.363 8.694l.095.048M4.458 8.742l.048.047M4.506 8.79l.047.095M4.553 8.885v.38"/>
        </g>
        <path d="M5.571 8.675v1.66l-.88.74h-.52l-.6-.6v-2.2l.02-.08.04-.06.06-.04.08-.02h1.2Z" style="stroke:#585d84;stroke-width:.0212;stroke-opacity:1;stroke-linecap:round;stroke-linejoin:round;fill:none"/>
    </g>
    <g style="fill:none;stroke:#585d84;stroke-width:.0833;stroke-opacity:1;stroke-linecap:round;stroke-linejoin:round">
        <g class="stroked-text">
            <path d="M16.09 10.408h-1M15.09 10.408l.714-.333M15.804 10.075l-.715-.333M15.09 9.742h1M16.09 9.266h-1M15.09 9.266v-.382M15.09 8.885l.047-.096M15.137 8.79l.048-.048M15.185 8.742l.095-.048M15.28 8.694h.143M15.423 8.694l.095.048M15.518 8.742l.048.047M15.566 8.79l.047.095M15.613 8.885v.38"/>
        </g>
        <path d="m16.631 10.875-.015.076-.043.065-.065.044-.077.015h-1.2l-.6-.6v-1.8l.6-.6h1.2l.077.015.065.044.043.064.015.077Z" style="stroke:#585d84;stroke-width:.0212;stroke-opacity:1;stroke-linecap:round;stroke-linejoin:round;fill:none"/>
    </g>
    <g class="stroked-text" style="fill:none;stroke:#585d84;stroke-width:.0389;stroke-opacity:1;stroke-linecap:round;stroke-linejoin:round">
        <path d="m12.246 2.767.066.022M12.312 2.789h.111M12.423 2.789l.045-.022M12.468 2.767l.022-.023M12.49 2.744l.022-.044M12.512 2.7v-.045M12.512 2.656l-.022-.045M12.49 2.611l-.022-.022M12.468 2.589l-.045-.022M12.423 2.567l-.088-.023M12.335 2.544l-.045-.022M12.29 2.522l-.022-.022M12.268 2.5l-.022-.045M12.246 2.456V2.41M12.246 2.411l.022-.044M12.268 2.367l.022-.023M12.29 2.344l.045-.022M12.335 2.322h.11M12.446 2.322l.066.022M12.957 2.789h-.267M12.823 2.789v-.467M12.823 2.322l-.044.067M12.779 2.389l-.044.044M12.735 2.433l-.045.022"/>
    </g>
    <g style="fill:none;stroke:#585d84;stroke-width:.0212;stroke-opacity:1;stroke-linecap:round;stroke-linejoin:round">
        <path d="M12.801 2.075h-.4M12.401 2.075a.5.5 0 0 0 0 1M12.401 3.075h.4M12.801 3.075a.5.5 0 0 0 0-1"/>
    </g>
    <g class="stroked-text" style="fill:none;stroke:#585d84;stroke-width:.0639;stroke-opacity:1;stroke-linecap:round;stroke-linejoin:round">
        <path d="m13.327 7.35.11.036M13.437 7.386h.182M13.62 7.386l.072-.036M13.692 7.35l.037-.037M13.729 7.313l.036-.073M13.765 7.24v-.073M13.765 7.167l-.036-.073M13.729 7.094l-.037-.036M13.692 7.058l-.073-.037M13.62 7.021l-.147-.036M13.473 6.985l-.073-.037M13.4 6.948l-.036-.036M13.364 6.912l-.037-.073M13.327 6.839v-.073M13.327 6.766l.037-.073M13.364 6.693l.036-.037M13.4 6.656l.073-.036M13.473 6.62h.183M13.656 6.62l.11.036M14.495 7.386h-.438M14.276 7.386V6.62M14.276 6.62l-.073.11M14.203 6.73l-.073.072M14.13 6.802l-.073.037"/>
    </g>
    <circle cx="13.911" cy="7.035" r="1.15" style="fill:none;stroke:#585d84;stroke-width:.0212;stroke-opacity:1;stroke-linecap:round;stroke-linejoin:round"/>
    <g class="stroked-text" style="fill:none;stroke:#585d84;stroke-width:.0639;stroke-opacity:1;stroke-linecap:round;stroke-linejoin:round">
        <path d="m6.977 4.81.11.036M7.087 4.846h.182M7.27 4.846l.072-.036M7.342 4.81l.037-.037M7.379 4.773l.036-.073M7.415 4.7v-.073M7.415 4.627l-.036-.073M7.379 4.554l-.037-.036M7.342 4.518 7.27 4.48M7.27 4.481l-.147-.036M7.123 4.445l-.073-.037M7.05 4.408l-.036-.036M7.014 4.372l-.037-.073M6.977 4.299v-.073M6.977 4.226l.037-.073M7.014 4.153l.036-.037M7.05 4.116l.073-.036M7.123 4.08h.183M7.306 4.08l.11.036M7.707 4.153l.037-.037M7.744 4.116l.073-.036M7.817 4.08h.182M8 4.08l.072.036M8.072 4.116l.037.037M8.109 4.153l.036.073M8.145 4.226v.073M8.145 4.299l-.036.11M8.109 4.408l-.438.438M7.67 4.846h.475"/>
    </g>
    <circle cx="7.561" cy="4.495" r="1.15" style="fill:none;stroke:#585d84;stroke-width:.0212;stroke-opacity:1;stroke-linecap:round;stroke-linejoin:round"/>
    <g class="stroked-text" style="fill:none;stroke:#585d84;stroke-width:.0389;stroke-opacity:1;stroke-linecap:round;stroke-linejoin:round">
        <path d="m7.246 2.767.066.022M7.312 2.789h.111M7.423 2.789l.045-.022M7.468 2.767l.022-.023M7.49 2.744l.022-.044M7.512 2.7v-.045M7.512 2.656 7.49 2.61M7.49 2.611l-.022-.022M7.468 2.589l-.045-.022M7.423 2.567l-.088-.023M7.335 2.544l-.045-.022M7.29 2.522 7.268 2.5M7.268 2.5l-.022-.045M7.246 2.456V2.41M7.246 2.411l.022-.044M7.268 2.367l.022-.023M7.29 2.344l.045-.022M7.335 2.322h.11M7.446 2.322l.066.022M7.69 2.367l.022-.023M7.712 2.344l.045-.022M7.757 2.322h.11M7.868 2.322l.044.022M7.912 2.344l.022.023M7.935 2.367l.022.044M7.957 2.411v.044M7.957 2.456l-.022.066M7.935 2.522l-.267.267M7.668 2.789h.289"/>
    </g>
    <g style="fill:none;stroke:#585d84;stroke-width:.0212;stroke-opacity:1;stroke-linecap:round;stroke-linejoin:round">
        <path d="M7.801 2.075h-.4M7.401 2.075a.5.5 0 0 0 0 1M7.401 3.075h.4M7.801 3.075a.5.5 0 0 0 0-1"/>
    </g>
    <g style="fill:none;stroke:#afafaf;stroke-width:.15;stroke-opacity:1;stroke-linecap:round;stroke-linejoin:round">
        <g class="stroked-text">
            <path d="m.316 19.382.142.048M.458 19.43h.238M.696 19.43l.096-.048M.792 19.382l.047-.047M.84 19.335l.047-.096M.887 19.24v-.096M.887 19.144l-.048-.095M.84 19.049.791 19M.792 19.001l-.096-.047M.696 18.954l-.19-.048M.506 18.906l-.095-.048M.41 18.858l-.047-.047M.363 18.81l-.047-.095M.316 18.716v-.096M.316 18.62l.047-.095M.363 18.525l.048-.048M.41 18.477l.096-.047M.506 18.43h.238M.744 18.43l.143.047M1.22 18.43l.238 1M1.458 19.43l.19-.715M1.649 18.716l.19.714M1.84 19.43l.237-1M2.22 19.525h.762M3.22 19.43v-1M3.22 18.43l.334.714M3.554 19.144l.333-.714M3.887 18.43v1M4.268 18.43l.667 1M4.935 18.43l-.667 1M5.077 19.525h.762M6.077 18.906h.334M6.554 19.43h-.477M6.077 19.43v-1M6.077 18.43h.477M7.554 19.335l-.048.047M7.506 19.382l-.143.048M7.363 19.43h-.095M7.268 19.43l-.143-.048M7.125 19.382l-.095-.095M7.03 19.287l-.048-.095M6.982 19.192l-.048-.19M6.935 19.001v-.143M6.935 18.858l.047-.19M6.982 18.668l.048-.095M7.03 18.573l.095-.096M7.125 18.477l.143-.047M7.268 18.43h.095M7.363 18.43l.143.047M7.506 18.477l.048.048M8.506 19.43h-.572M8.22 19.43v-1M8.22 18.43l-.095.143M8.125 18.573l-.095.095M8.03 18.668l-.095.047M9.458 19.43h-.571M9.173 19.43v-1M9.173 18.43l-.096.143M9.077 18.573l-.095.095M8.982 18.668l-.095.047M9.649 19.525h.762M10.649 19.43v-1M10.649 18.906h.571M11.22 19.43v-1M11.84 19.43l-.096-.048M11.744 19.382l-.048-.047M11.696 19.335l-.047-.096M11.649 19.24v-.286M11.649 18.954l.047-.096M11.696 18.858l.048-.047M11.744 18.81l.095-.047M11.84 18.763h.142M11.982 18.763l.095.048M12.077 18.81l.048.048M12.125 18.858l.048.096M12.173 18.954v.285M12.173 19.24l-.048.095M12.125 19.335l-.048.047M12.077 19.382l-.095.048M11.982 19.43h-.143M12.458 18.763h.381M12.601 18.43v.857M12.601 19.287l.048.095M12.649 19.382l.095.048M12.744 19.43h.095M13.125 19.382l.143.048M13.268 19.43h.238M13.506 19.43l.095-.048M13.601 19.382l.048-.047M13.649 19.335l.047-.096M13.696 19.24v-.096M13.696 19.144l-.047-.095M13.649 19.049 13.6 19M13.601 19.001l-.095-.047M13.506 18.954l-.19-.048M13.316 18.906l-.096-.048M13.22 18.858l-.047-.047M13.173 18.81l-.048-.095M13.125 18.716v-.096M13.125 18.62l.048-.095M13.173 18.525l.047-.048M13.22 18.477l.095-.047M13.316 18.43h.238M13.554 18.43l.142.047M14.03 18.763l.19.667M14.22 19.43l.19-.476M14.41 18.954l.191.476M14.601 19.43l.19-.667M15.601 19.43v-.524M15.601 18.906l-.047-.095M15.554 18.81l-.096-.047M15.458 18.763h-.19M15.268 18.763l-.095.048M15.601 19.382l-.095.048M15.506 19.43h-.238M15.268 19.43l-.095-.048M15.173 19.382l-.048-.095M15.125 19.287v-.095M15.125 19.192l.048-.096M15.173 19.097l.095-.048M15.268 19.049h.238M15.506 19.049l.095-.048M16.077 18.763v1M16.077 18.81l.096-.047M16.173 18.763h.19M16.363 18.763l.095.048M16.458 18.81l.048.048M16.506 18.858l.048.096M16.554 18.954v.285M16.554 19.24l-.048.095M16.506 19.335l-.048.047M16.458 19.382l-.095.048M16.363 19.43h-.19M16.173 19.43l-.096-.048M16.744 19.525h.762M17.601 18.43h.572M17.887 19.43v-1M18.506 19.43v-1M18.506 18.906h.571M19.077 19.43v-1M19.41 18.43h.572M19.696 19.43v-1"/>
        </g>
        <g class="stroked-text">
            <path d="m8.768 21.03-.334-.476M8.196 21.03v-1M8.196 20.03h.381M8.577 20.03l.096.047M8.673 20.077l.047.048M8.72 20.125l.048.095M8.768 20.22v.143M8.768 20.363l-.048.095M8.72 20.458l-.047.048M8.673 20.506l-.096.048M8.577 20.554h-.38M9.196 20.506h.334M9.673 21.03h-.477M9.196 21.03v-1M9.196 20.03h.477M10.435 20.506H10.1M10.101 21.03v-1M10.101 20.03h.476M11.101 20.03v.238M10.863 20.173l.238.095M11.101 20.268l.238-.095M10.958 20.458l.143-.19M11.101 20.268l.143.19M11.863 20.03v.238M11.625 20.173l.238.095M11.863 20.268l.238-.095M11.72 20.458l.143-.19M11.863 20.268l.143.19"/>
        </g>
    </g>
    <g style="fill:none;stroke:#afafaf;stroke-width:.1;stroke-opacity:1;stroke-linecap:round;stroke-linejoin:round">
        <path d="M1.211 10.845v2.54M1.211 13.385h2.54M3.751 10.21v3.81M3.751 10.21h3.81M3.751 10.845h-2.54M6.291 16.56h8.89M15.181 12.115h-5.08M15.181 15.925h2.54M15.181 16.56v-4.445M17.721 13.385h-2.54M17.721 15.925v-2.54M3.751 14.02a2.54 2.54 0 0 0 2.54 2.54M7.637 10.191a2.54 2.54 0 0 0 2.464 1.924"/>
    </g>
    <circle cx="6.291" cy="12.115" r="1.5" style="fill:none;stroke:#afafaf;stroke-width:.0212;stroke-opacity:1;stroke-linecap:round;stroke-linejoin:round"/>
    <circle cx="10.101" cy="9.575" r="2" style="fill:none;stroke:#afafaf;stroke-width:.0212;stroke-opacity:1;stroke-linecap:round;stroke-linejoin:round"/>
    <circle cx="10.101" cy="9.575" r="2" style="fill:none;stroke:#afafaf;stroke-width:.0212;stroke-opacity:1;stroke-linecap:round;stroke-linejoin:round"/>
    <circle cx="10.101" cy="9.575" r="2" style="fill:none;stroke:#afafaf;stroke-width:.0212;stroke-opacity:1;stroke-linecap:round;stroke-linejoin:round"/>
    <circle cx="12.641" cy="14.655" r="1.5" style="fill:none;stroke:#afafaf;stroke-width:.0212;stroke-opacity:1;stroke-linecap:round;stroke-linejoin:round"/>
    <g class="stroked-text" style="fill:none;stroke:#afafaf;stroke-width:.0389;stroke-opacity:1;stroke-linecap:round;stroke-linejoin:round">
        <path d="M12.49 17.156h.222M12.446 17.289l.155-.467M12.601 16.822l.156.467"/>
    </g>
    <g style="fill:none;stroke:#afafaf;stroke-width:.0212;stroke-opacity:1;stroke-linecap:round;stroke-linejoin:round">
        <path d="M12.801 16.575h-.4M12.401 16.575a.5.5 0 0 0 0 1M12.401 17.575h.4M12.801 17.575a.5.5 0 0 0 0-1"/>
    </g>
    <g class="stroked-text" style="fill:none;stroke:#afafaf;stroke-width:.0389;stroke-opacity:1;stroke-linecap:round;stroke-linejoin:round">
        <path d="m7.635 17.044.066.023M7.701 17.067l.022.022M7.723 17.089l.023.044M7.746 17.133v.067M7.746 17.2l-.023.044M7.723 17.244l-.022.023M7.701 17.267l-.044.022M7.657 17.289h-.178M7.479 17.289v-.467M7.479 16.822h.155M7.635 16.822l.044.022M7.679 16.844l.022.023M7.701 16.867l.022.044M7.723 16.911v.044M7.723 16.956 7.701 17M7.701 17l-.022.022M7.679 17.022l-.045.022M7.635 17.044h-.156"/>
    </g>
    <g style="fill:none;stroke:#afafaf;stroke-width:.0212;stroke-opacity:1;stroke-linecap:round;stroke-linejoin:round">
        <path d="M7.801 16.575h-.4M7.401 16.575a.5.5 0 0 0 0 1M7.401 17.575h.4M7.801 17.575a.5.5 0 0 0 0-1"/>
    </g>
    <g class="stroked-text" style="fill:none;stroke:#afafaf;stroke-width:.0389;stroke-opacity:1;stroke-linecap:round;stroke-linejoin:round">
        <path d="m10.246 17.244-.023.023M10.223 17.267l-.066.022M10.157 17.289h-.045M10.112 17.289l-.066-.022M10.046 17.267 10 17.222M10.001 17.222l-.022-.044M9.979 17.178l-.022-.09M9.957 17.089v-.067M9.957 17.022l.022-.089M9.979 16.933l.022-.044M10.001 16.889l.045-.045M10.046 16.844l.066-.022M10.112 16.822h.045M10.157 16.822l.066.022M10.223 16.844l.023.023"/>
    </g>
    <g style="fill:none;stroke:#afafaf;stroke-width:.0212;stroke-opacity:1;stroke-linecap:round;stroke-linejoin:round">
        <path d="M10.301 16.575h-.4M9.901 16.575a.5.5 0 0 0 0 1M9.901 17.575h.4M10.301 17.575a.5.5 0 0 0 0-1"/>
    </g>
    <g style="fill:none;stroke:#afafaf;stroke-width:.0833;stroke-opacity:1;stroke-linecap:round;stroke-linejoin:round">
        <g class="stroked-text">
            <path d="M5.03 10.408h-1M4.03 10.408l.714-.333M4.744 10.075l-.715-.333M4.03 9.742h1M5.03 9.266h-1M4.03 9.266v-.382M4.03 8.885l.047-.096M4.077 8.79l.048-.048M4.125 8.742l.095-.048M4.22 8.694h.143M4.363 8.694l.095.048M4.458 8.742l.048.047M4.506 8.79l.047.095M4.553 8.885v.38"/>
        </g>
        <path d="M5.571 8.675v1.66l-.88.74h-.52l-.6-.6v-2.2l.02-.08.04-.06.06-.04.08-.02h1.2Z" style="stroke:#afafaf;stroke-width:.0212;stroke-opacity:1;stroke-linecap:round;stroke-linejoin:round;fill:none"/>
    </g>
    <g style="fill:none;stroke:#afafaf;stroke-width:.0833;stroke-opacity:1;stroke-linecap:round;stroke-linejoin:round">
        <g class="stroked-text">
            <path d="M16.09 10.408h-1M15.09 10.408l.714-.333M15.804 10.075l-.715-.333M15.09 9.742h1M16.09 9.266h-1M15.09 9.266v-.382M15.09 8.885l.047-.096M15.137 8.79l.048-.048M15.185 8.742l.095-.048M15.28 8.694h.143M15.423 8.694l.095.048M15.518 8.742l.048.047M15.566 8.79l.047.095M15.613 8.885v.38"/>
        </g>
        <path d="m16.631 10.875-.015.076-.043.065-.065.044-.077.015h-1.2l-.6-.6v-1.8l.6-.6h1.2l.077.015.065.044.043.064.015.077Z" style="stroke:#afafaf;stroke-width:.0212;stroke-opacity:1;stroke-linecap:round;stroke-linejoin:round;fill:none"/>
    </g>
    <g class="stroked-text" style="fill:none;stroke:#afafaf;stroke-width:.0389;stroke-opacity:1;stroke-linecap:round;stroke-linejoin:round">
        <path d="m12.246 2.767.066.022M12.312 2.789h.111M12.423 2.789l.045-.022M12.468 2.767l.022-.023M12.49 2.744l.022-.044M12.512 2.7v-.045M12.512 2.656l-.022-.045M12.49 2.611l-.022-.022M12.468 2.589l-.045-.022M12.423 2.567l-.088-.023M12.335 2.544l-.045-.022M12.29 2.522l-.022-.022M12.268 2.5l-.022-.045M12.246 2.456V2.41M12.246 2.411l.022-.044M12.268 2.367l.022-.023M12.29 2.344l.045-.022M12.335 2.322h.11M12.446 2.322l.066.022M12.957 2.789h-.267M12.823 2.789v-.467M12.823 2.322l-.044.067M12.779 2.389l-.044.044M12.735 2.433l-.045.022"/>
    </g>
    <g style="fill:none;stroke:#afafaf;stroke-width:.0212;stroke-opacity:1;stroke-linecap:round;stroke-linejoin:round">
        <path d="M12.801 2.075h-.4M12.401 2.075a.5.5 0 0 0 0 1M12.401 3.075h.4M12.801 3.075a.5.5 0 0 0 0-1"/>
    </g>
    <g class="stroked-text" style="fill:none;stroke:#afafaf;stroke-width:.0639;stroke-opacity:1;stroke-linecap:round;stroke-linejoin:round">
        <path d="m13.327 7.35.11.036M13.437 7.386h.182M13.62 7.386l.072-.036M13.692 7.35l.037-.037M13.729 7.313l.036-.073M13.765 7.24v-.073M13.765 7.167l-.036-.073M13.729 7.094l-.037-.036M13.692 7.058l-.073-.037M13.62 7.021l-.147-.036M13.473 6.985l-.073-.037M13.4 6.948l-.036-.036M13.364 6.912l-.037-.073M13.327 6.839v-.073M13.327 6.766l.037-.073M13.364 6.693l.036-.037M13.4 6.656l.073-.036M13.473 6.62h.183M13.656 6.62l.11.036M14.495 7.386h-.438M14.276 7.386V6.62M14.276 6.62l-.073.11M14.203 6.73l-.073.072M14.13 6.802l-.073.037"/>
    </g>
    <circle cx="13.911" cy="7.035" r="1.15" style="fill:none;stroke:#afafaf;stroke-width:.0212;stroke-opacity:1;stroke-linecap:round;stroke-linejoin:round"/>
    <g style="fill:none;stroke:#afafaf;stroke-width:.0708;stroke-opacity:1;stroke-linecap:round;stroke-linejoin:round">
        <g class="stroked-text">
            <path d="m15.744 15.004.121.04M15.865 15.045h.202M16.067 15.045l.081-.04M16.148 15.004l.04-.04M16.189 14.964l.04-.081M16.23 14.883v-.081M16.23 14.802l-.041-.081M16.189 14.72l-.04-.04M16.148 14.68l-.08-.04M16.067 14.64l-.162-.04M15.906 14.6l-.082-.041M15.825 14.559l-.041-.04M15.784 14.518l-.04-.08M15.744 14.437v-.08M15.744 14.356l.04-.08M15.784 14.276l.04-.041M15.825 14.235l.08-.04M15.906 14.195h.202M16.108 14.195l.121.04M17.039 15.045h-.486M16.796 15.045v-.85M16.796 14.195l-.081.121M16.715 14.316l-.081.08M16.634 14.397l-.08.04"/>
        </g>
        <path d="m17.666 15.655-.019.096-.054.08-.081.055-.096.019h-2.05l-.095-.019-.082-.054-.054-.081-.019-.096v-2l.02-.096.053-.08.082-.055.095-.019h2.05l.096.019.081.054.054.081.02.096Z" style="stroke:#afafaf;stroke-width:.0212;stroke-opacity:1;stroke-linecap:round;stroke-linejoin:round;fill:none"/>
    </g>
    <g style="fill:none;stroke:#afafaf;stroke-width:.0708;stroke-opacity:1;stroke-linecap:round;stroke-linejoin:round">
        <g class="stroked-text">
            <path d="m1.894 12.464.121.04M2.015 12.505h.202M2.217 12.505l.081-.04M2.298 12.464l.04-.04M2.339 12.424l.04-.081M2.38 12.343v-.081M2.38 12.262l-.041-.081M2.339 12.18l-.04-.04M2.298 12.14l-.08-.04M2.217 12.1l-.162-.04M2.056 12.06l-.082-.041M1.975 12.019l-.041-.04M1.934 11.978l-.04-.08M1.894 11.897v-.08M1.894 11.816l.04-.08M1.934 11.736l.04-.041M1.975 11.695l.08-.04M2.056 11.655h.202M2.258 11.655l.121.04M2.703 11.736l.04-.041M2.744 11.695l.08-.04M2.825 11.655h.202M3.027 11.655l.08.04M3.108 11.695l.04.04M3.148 11.736l.04.08M3.189 11.816v.081M3.189 11.897l-.04.122M3.148 12.019l-.485.486M2.663 12.505h.526"/>
        </g>
        <path d="m3.816 13.115-.019.096-.054.08-.081.055-.096.019h-2.05l-.095-.019-.082-.054-.054-.081-.019-.096v-2l.02-.096.053-.08.082-.055.095-.019h2.05l.096.019.081.054.054.081.02.096Z" style="stroke:#afafaf;stroke-width:.0212;stroke-opacity:1;stroke-linecap:round;stroke-linejoin:round;fill:none"/>
    </g>
    <g class="stroked-text" style="fill:none;stroke:#afafaf;stroke-width:.0639;stroke-opacity:1;stroke-linecap:round;stroke-linejoin:round">
        <path d="m6.977 4.81.11.036M7.087 4.846h.182M7.27 4.846l.072-.036M7.342 4.81l.037-.037M7.379 4.773l.036-.073M7.415 4.7v-.073M7.415 4.627l-.036-.073M7.379 4.554l-.037-.036M7.342 4.518 7.27 4.48M7.27 4.481l-.147-.036M7.123 4.445l-.073-.037M7.05 4.408l-.036-.036M7.014 4.372l-.037-.073M6.977 4.299v-.073M6.977 4.226l.037-.073M7.014 4.153l.036-.037M7.05 4.116l.073-.036M7.123 4.08h.183M7.306 4.08l.11.036M7.707 4.153l.037-.037M7.744 4.116l.073-.036M7.817 4.08h.182M8 4.08l.072.036M8.072 4.116l.037.037M8.109 4.153l.036.073M8.145 4.226v.073M8.145 4.299l-.036.11M8.109 4.408l-.438.438M7.67 4.846h.475"/>
    </g>
    <circle cx="7.561" cy="4.495" r="1.15" style="fill:none;stroke:#afafaf;stroke-width:.0212;stroke-opacity:1;stroke-linecap:round;stroke-linejoin:round"/>
    <g class="stroked-text" style="fill:none;stroke:#afafaf;stroke-width:.0389;stroke-opacity:1;stroke-linecap:round;stroke-linejoin:round">
        <path d="m7.246 2.767.066.022M7.312 2.789h.111M7.423 2.789l.045-.022M7.468 2.767l.022-.023M7.49 2.744l.022-.044M7.512 2.7v-.045M7.512 2.656 7.49 2.61M7.49 2.611l-.022-.022M7.468 2.589l-.045-.022M7.423 2.567l-.088-.023M7.335 2.544l-.045-.022M7.29 2.522 7.268 2.5M7.268 2.5l-.022-.045M7.246 2.456V2.41M7.246 2.411l.022-.044M7.268 2.367l.022-.023M7.29 2.344l.045-.022M7.335 2.322h.11M7.446 2.322l.066.022M7.69 2.367l.022-.023M7.712 2.344l.045-.022M7.757 2.322h.11M7.868 2.322l.044.022M7.912 2.344l.022.023M7.935 2.367l.022.044M7.957 2.411v.044M7.957 2.456l-.022.066M7.935 2.522l-.267.267M7.668 2.789h.289"/>
    </g>
    <g style="fill:none;stroke:#afafaf;stroke-width:.0212;stroke-opacity:1;stroke-linecap:round;stroke-linejoin:round">
        <path d="M7.801 2.075h-.4M7.401 2.075a.5.5 0 0 0 0 1M7.401 3.075h.4M7.801 3.075a.5.5 0 0 0 0-1"/>
        <path d="M.576.05h19.05V19.1H.576Z" style="stroke:#c2c2c2;stroke-width:.1;stroke-opacity:1;stroke-linecap:round;stroke-linejoin:round;fill:none"/>
    </g>
</svg>
