<?xml version="1.0" standalone="no"?>
 <!DOCTYPE svg PUBLIC "-//W3C//DTD SVG 1.1//EN" 
 "http://www.w3.org/Graphics/SVG/1.1/DTD/svg11.dtd"> 
<svg
  xmlns:svg="http://www.w3.org/2000/svg"
  xmlns="http://www.w3.org/2000/svg"
  xmlns:xlink="http://www.w3.org/1999/xlink"
  version="1.1"
  width="24.1046mm" height="20.3200mm" viewBox="0.0000 0.0000 24.1046 20.3200">
<title>SVG Image created as SW_MX_Slim_HotSwap_THT_nSilk.svg date 2025/05/12 22:52:35 </title>
  <desc>Image generated by PCBNEW </desc>
<g style="fill:#000000; fill-opacity:1.0000;stroke:#000000; stroke-opacity:1.0000;
stroke-linecap:round; stroke-linejoin:round;"
 transform="translate(0 0) scale(1 1)">
</g>
<g style="fill:none; 
stroke:#E8B2A7; stroke-width:0.1500; stroke-opacity:1; 
stroke-linecap:round; stroke-linejoin:round;">
<text x="12.0536" y="7.0750"
transform="scale(-1 1) translate(-24.107144 0)"
textLength="4.5357" font-size="1.3333" lengthAdjust="spacingAndGlyphs"
text-anchor="middle" opacity="0" stroke-opacity="0">REF**</text>
<g class="stroked-text"><desc>REF**</desc>
<path d="M13.3869 7.0298
L13.7202 6.5536
" />
<path d="M13.9583 7.0298
L13.9583 6.0298
" />
<path d="M13.9583 6.0298
L13.5774 6.0298
" />
<path d="M13.5774 6.0298
L13.4821 6.0774
" />
<path d="M13.4821 6.0774
L13.4345 6.1251
" />
<path d="M13.4345 6.1251
L13.3869 6.2203
" />
<path d="M13.3869 6.2203
L13.3869 6.3632
" />
<path d="M13.3869 6.3632
L13.4345 6.4584
" />
<path d="M13.4345 6.4584
L13.4821 6.5060
" />
<path d="M13.4821 6.5060
L13.5774 6.5536
" />
<path d="M13.5774 6.5536
L13.9583 6.5536
" />
<path d="M12.9583 6.5060
L12.6250 6.5060
" />
<path d="M12.4821 7.0298
L12.9583 7.0298
" />
<path d="M12.9583 7.0298
L12.9583 6.0298
" />
<path d="M12.9583 6.0298
L12.4821 6.0298
" />
<path d="M11.7202 6.5060
L12.0536 6.5060
" />
<path d="M12.0536 7.0298
L12.0536 6.0298
" />
<path d="M12.0536 6.0298
L11.5774 6.0298
" />
<path d="M11.0536 6.0298
L11.0536 6.2679
" />
<path d="M11.2917 6.1727
L11.0536 6.2679
" />
<path d="M11.0536 6.2679
L10.8155 6.1727
" />
<path d="M11.1964 6.4584
L11.0536 6.2679
" />
<path d="M11.0536 6.2679
L10.9107 6.4584
" />
<path d="M10.2917 6.0298
L10.2917 6.2679
" />
<path d="M10.5298 6.1727
L10.2917 6.2679
" />
<path d="M10.2917 6.2679
L10.0536 6.1727
" />
<path d="M10.4345 6.4584
L10.2917 6.2679
" />
<path d="M10.2917 6.2679
L10.1488 6.4584
" />
</g></g>
<g style="fill:none; 
stroke:#E8B2A7; stroke-width:0.1200; stroke-opacity:1; 
stroke-linecap:round; stroke-linejoin:round;">
<path d="M6.9736 12.1150
L6.9736 13.1050
" />
<path d="M6.9736 12.1150
L12.0536 12.1150
" />
<path d="M6.9736 16.5600
L6.9736 16.2050
" />
<path d="M14.5177 10.2100
L16.2446 10.2100
" />
<path d="M15.8636 16.5600
L6.9736 16.5600
" />
<path d="M18.0536 10.2100
L18.4036 10.2100
" />
<path d="M18.4036 10.5650
L18.4036 10.2100
" />
<path d="M18.4036 14.0200
L18.4036 13.6650
" />
<path d="M12.0536 12.1150 A2.5400 2.5400 0.0 0 0 14.5132 10.2088" />
<path d="M15.8636 16.5600 A2.5400 2.5400 0.0 0 0 18.4036 14.0200" />
<path style="fill:#00C2C2; fill-opacity:0.9000; stroke:none;fill-rule:evenodd;"
d="M 18.3418,11.1150
18.3608,11.0193
18.4150,10.9382
18.4961,10.8840
18.5918,10.8650
19.8918,10.8650
19.9874,10.8840
20.0685,10.9382
20.1227,11.0193
20.1418,11.1150
20.1418,13.1150
20.1227,13.2107
20.0685,13.2918
19.9874,13.3460
19.8918,13.3650
18.5918,13.3650
18.4961,13.3460
18.4150,13.2918
18.3608,13.2107
18.3418,13.1150
Z" /> 
<path style="fill:#00C2C2; fill-opacity:0.9000; stroke:none;fill-rule:evenodd;"
d="M 5.2354,13.6550
5.2544,13.5593
5.3086,13.4782
5.3897,13.4240
5.4854,13.4050
6.7854,13.4050
6.8810,13.4240
6.9621,13.4782
7.0163,13.5593
7.0354,13.6550
7.0354,15.6550
7.0163,15.7507
6.9621,15.8318
6.8810,15.8860
6.7854,15.9050
5.4854,15.9050
5.3897,15.8860
5.3086,15.8318
5.2544,15.7507
5.2354,15.6550
Z" /> 
</g>
<g style="fill:#4D7FC4; fill-opacity:1.0000; stroke:none;">
<circle cx="14.5936" cy="4.4950" r="1.1500" /> 
<path style="fill:#4D7FC4; fill-opacity:1.0000; stroke:none;fill-rule:evenodd;"
d="M 18.3418,11.1150
18.3608,11.0193
18.4150,10.9382
18.4961,10.8840
18.5918,10.8650
19.8918,10.8650
19.9874,10.8840
20.0685,10.9382
20.1227,11.0193
20.1418,11.1150
20.1418,13.1150
20.1227,13.2107
20.0685,13.2918
19.9874,13.3460
19.8918,13.3650
18.5918,13.3650
18.4961,13.3460
18.4150,13.2918
18.3608,13.2107
18.3418,13.1150
Z" /> 
<path style="fill:#4D7FC4; fill-opacity:1.0000; stroke:none;fill-rule:evenodd;"
d="M 5.2354,13.6550
5.2544,13.5593
5.3086,13.4782
5.3897,13.4240
5.4854,13.4050
6.7854,13.4050
6.8810,13.4240
6.9621,13.4782
7.0163,13.5593
7.0354,13.6550
7.0354,15.6550
7.0163,15.7507
6.9621,15.8318
6.8810,15.8860
6.7854,15.9050
5.4854,15.9050
5.3897,15.8860
5.3086,15.8318
5.2544,15.7507
5.2354,15.6550
Z" /> 
</g>
<g style="fill:#4D7FC4; fill-opacity:1.0000; stroke:none;">
<circle cx="8.2436" cy="7.0350" r="1.1500" /> 
</g>
<g style="fill:#C83434; fill-opacity:1.0000; stroke:none;">
<circle cx="14.5936" cy="4.4950" r="1.1500" /> 
</g>
<g style="fill:#C83434; fill-opacity:1.0000; stroke:none;">
<circle cx="8.2436" cy="7.0350" r="1.1500" /> 
</g>
<g style="fill:none; 
stroke:#585D84; stroke-width:0.1500; stroke-opacity:1; 
stroke-linecap:round; stroke-linejoin:round;">
<text x="12.0536" y="18.3750"
transform="scale(-1 1) translate(-24.107144 0)"
textLength="24.1071" font-size="1.3333" lengthAdjust="spacingAndGlyphs"
text-anchor="middle" opacity="0" stroke-opacity="0">SW_MX_Slim_HotSwap_THT_nSilk</text>
<g class="stroked-text"><desc>SW_MX_Slim_HotSwap_THT_nSilk</desc>
<path d="M23.7917 18.2822
L23.6488 18.3298
" />
<path d="M23.6488 18.3298
L23.4107 18.3298
" />
<path d="M23.4107 18.3298
L23.3155 18.2822
" />
<path d="M23.3155 18.2822
L23.2679 18.2346
" />
<path d="M23.2679 18.2346
L23.2202 18.1393
" />
<path d="M23.2202 18.1393
L23.2202 18.0441
" />
<path d="M23.2202 18.0441
L23.2679 17.9489
" />
<path d="M23.2679 17.9489
L23.3155 17.9012
" />
<path d="M23.3155 17.9012
L23.4107 17.8536
" />
<path d="M23.4107 17.8536
L23.6012 17.8060
" />
<path d="M23.6012 17.8060
L23.6964 17.7584
" />
<path d="M23.6964 17.7584
L23.7440 17.7108
" />
<path d="M23.7440 17.7108
L23.7917 17.6155
" />
<path d="M23.7917 17.6155
L23.7917 17.5203
" />
<path d="M23.7917 17.5203
L23.7440 17.4251
" />
<path d="M23.7440 17.4251
L23.6964 17.3774
" />
<path d="M23.6964 17.3774
L23.6012 17.3298
" />
<path d="M23.6012 17.3298
L23.3631 17.3298
" />
<path d="M23.3631 17.3298
L23.2202 17.3774
" />
<path d="M22.8869 17.3298
L22.6488 18.3298
" />
<path d="M22.6488 18.3298
L22.4583 17.6155
" />
<path d="M22.4583 17.6155
L22.2679 18.3298
" />
<path d="M22.2679 18.3298
L22.0298 17.3298
" />
<path d="M21.8869 18.4251
L21.1250 18.4251
" />
<path d="M20.8869 18.3298
L20.8869 17.3298
" />
<path d="M20.8869 17.3298
L20.5536 18.0441
" />
<path d="M20.5536 18.0441
L20.2202 17.3298
" />
<path d="M20.2202 17.3298
L20.2202 18.3298
" />
<path d="M19.8393 17.3298
L19.1726 18.3298
" />
<path d="M19.1726 17.3298
L19.8393 18.3298
" />
<path d="M19.0298 18.4251
L18.2679 18.4251
" />
<path d="M18.0774 18.2822
L17.9345 18.3298
" />
<path d="M17.9345 18.3298
L17.6964 18.3298
" />
<path d="M17.6964 18.3298
L17.6012 18.2822
" />
<path d="M17.6012 18.2822
L17.5536 18.2346
" />
<path d="M17.5536 18.2346
L17.5060 18.1393
" />
<path d="M17.5060 18.1393
L17.5060 18.0441
" />
<path d="M17.5060 18.0441
L17.5536 17.9489
" />
<path d="M17.5536 17.9489
L17.6012 17.9012
" />
<path d="M17.6012 17.9012
L17.6964 17.8536
" />
<path d="M17.6964 17.8536
L17.8869 17.8060
" />
<path d="M17.8869 17.8060
L17.9821 17.7584
" />
<path d="M17.9821 17.7584
L18.0298 17.7108
" />
<path d="M18.0298 17.7108
L18.0774 17.6155
" />
<path d="M18.0774 17.6155
L18.0774 17.5203
" />
<path d="M18.0774 17.5203
L18.0298 17.4251
" />
<path d="M18.0298 17.4251
L17.9821 17.3774
" />
<path d="M17.9821 17.3774
L17.8869 17.3298
" />
<path d="M17.8869 17.3298
L17.6488 17.3298
" />
<path d="M17.6488 17.3298
L17.5060 17.3774
" />
<path d="M16.9345 18.3298
L17.0298 18.2822
" />
<path d="M17.0298 18.2822
L17.0774 18.1870
" />
<path d="M17.0774 18.1870
L17.0774 17.3298
" />
<path d="M16.5536 18.3298
L16.5536 17.6632
" />
<path d="M16.5536 17.3298
L16.6012 17.3774
" />
<path d="M16.6012 17.3774
L16.5536 17.4251
" />
<path d="M16.5536 17.4251
L16.5060 17.3774
" />
<path d="M16.5060 17.3774
L16.5536 17.3298
" />
<path d="M16.5536 17.3298
L16.5536 17.4251
" />
<path d="M16.0774 18.3298
L16.0774 17.6632
" />
<path d="M16.0774 17.7584
L16.0298 17.7108
" />
<path d="M16.0298 17.7108
L15.9345 17.6632
" />
<path d="M15.9345 17.6632
L15.7917 17.6632
" />
<path d="M15.7917 17.6632
L15.6964 17.7108
" />
<path d="M15.6964 17.7108
L15.6488 17.8060
" />
<path d="M15.6488 17.8060
L15.6488 18.3298
" />
<path d="M15.6488 17.8060
L15.6012 17.7108
" />
<path d="M15.6012 17.7108
L15.5060 17.6632
" />
<path d="M15.5060 17.6632
L15.3631 17.6632
" />
<path d="M15.3631 17.6632
L15.2679 17.7108
" />
<path d="M15.2679 17.7108
L15.2202 17.8060
" />
<path d="M15.2202 17.8060
L15.2202 18.3298
" />
<path d="M14.9821 18.4251
L14.2202 18.4251
" />
<path d="M13.9821 18.3298
L13.9821 17.3298
" />
<path d="M13.9821 17.8060
L13.4107 17.8060
" />
<path d="M13.4107 18.3298
L13.4107 17.3298
" />
<path d="M12.7917 18.3298
L12.8869 18.2822
" />
<path d="M12.8869 18.2822
L12.9345 18.2346
" />
<path d="M12.9345 18.2346
L12.9821 18.1393
" />
<path d="M12.9821 18.1393
L12.9821 17.8536
" />
<path d="M12.9821 17.8536
L12.9345 17.7584
" />
<path d="M12.9345 17.7584
L12.8869 17.7108
" />
<path d="M12.8869 17.7108
L12.7917 17.6632
" />
<path d="M12.7917 17.6632
L12.6488 17.6632
" />
<path d="M12.6488 17.6632
L12.5536 17.7108
" />
<path d="M12.5536 17.7108
L12.5060 17.7584
" />
<path d="M12.5060 17.7584
L12.4583 17.8536
" />
<path d="M12.4583 17.8536
L12.4583 18.1393
" />
<path d="M12.4583 18.1393
L12.5060 18.2346
" />
<path d="M12.5060 18.2346
L12.5536 18.2822
" />
<path d="M12.5536 18.2822
L12.6488 18.3298
" />
<path d="M12.6488 18.3298
L12.7917 18.3298
" />
<path d="M12.1726 17.6632
L11.7917 17.6632
" />
<path d="M12.0298 17.3298
L12.0298 18.1870
" />
<path d="M12.0298 18.1870
L11.9821 18.2822
" />
<path d="M11.9821 18.2822
L11.8869 18.3298
" />
<path d="M11.8869 18.3298
L11.7917 18.3298
" />
<path d="M11.5060 18.2822
L11.3631 18.3298
" />
<path d="M11.3631 18.3298
L11.1250 18.3298
" />
<path d="M11.1250 18.3298
L11.0298 18.2822
" />
<path d="M11.0298 18.2822
L10.9821 18.2346
" />
<path d="M10.9821 18.2346
L10.9345 18.1393
" />
<path d="M10.9345 18.1393
L10.9345 18.0441
" />
<path d="M10.9345 18.0441
L10.9821 17.9489
" />
<path d="M10.9821 17.9489
L11.0298 17.9012
" />
<path d="M11.0298 17.9012
L11.1250 17.8536
" />
<path d="M11.1250 17.8536
L11.3155 17.8060
" />
<path d="M11.3155 17.8060
L11.4107 17.7584
" />
<path d="M11.4107 17.7584
L11.4583 17.7108
" />
<path d="M11.4583 17.7108
L11.5060 17.6155
" />
<path d="M11.5060 17.6155
L11.5060 17.5203
" />
<path d="M11.5060 17.5203
L11.4583 17.4251
" />
<path d="M11.4583 17.4251
L11.4107 17.3774
" />
<path d="M11.4107 17.3774
L11.3155 17.3298
" />
<path d="M11.3155 17.3298
L11.0774 17.3298
" />
<path d="M11.0774 17.3298
L10.9345 17.3774
" />
<path d="M10.6012 17.6632
L10.4107 18.3298
" />
<path d="M10.4107 18.3298
L10.2202 17.8536
" />
<path d="M10.2202 17.8536
L10.0298 18.3298
" />
<path d="M10.0298 18.3298
L9.8393 17.6632
" />
<path d="M9.0298 18.3298
L9.0298 17.8060
" />
<path d="M9.0298 17.8060
L9.0774 17.7108
" />
<path d="M9.0774 17.7108
L9.1726 17.6632
" />
<path d="M9.1726 17.6632
L9.3631 17.6632
" />
<path d="M9.3631 17.6632
L9.4583 17.7108
" />
<path d="M9.0298 18.2822
L9.1250 18.3298
" />
<path d="M9.1250 18.3298
L9.3631 18.3298
" />
<path d="M9.3631 18.3298
L9.4583 18.2822
" />
<path d="M9.4583 18.2822
L9.5060 18.1870
" />
<path d="M9.5060 18.1870
L9.5060 18.0917
" />
<path d="M9.5060 18.0917
L9.4583 17.9965
" />
<path d="M9.4583 17.9965
L9.3631 17.9489
" />
<path d="M9.3631 17.9489
L9.1250 17.9489
" />
<path d="M9.1250 17.9489
L9.0298 17.9012
" />
<path d="M8.5536 17.6632
L8.5536 18.6632
" />
<path d="M8.5536 17.7108
L8.4583 17.6632
" />
<path d="M8.4583 17.6632
L8.2679 17.6632
" />
<path d="M8.2679 17.6632
L8.1726 17.7108
" />
<path d="M8.1726 17.7108
L8.1250 17.7584
" />
<path d="M8.1250 17.7584
L8.0774 17.8536
" />
<path d="M8.0774 17.8536
L8.0774 18.1393
" />
<path d="M8.0774 18.1393
L8.1250 18.2346
" />
<path d="M8.1250 18.2346
L8.1726 18.2822
" />
<path d="M8.1726 18.2822
L8.2679 18.3298
" />
<path d="M8.2679 18.3298
L8.4583 18.3298
" />
<path d="M8.4583 18.3298
L8.5536 18.2822
" />
<path d="M7.8869 18.4251
L7.1250 18.4251
" />
<path d="M7.0298 17.3298
L6.4583 17.3298
" />
<path d="M6.7440 18.3298
L6.7440 17.3298
" />
<path d="M6.1250 18.3298
L6.1250 17.3298
" />
<path d="M6.1250 17.8060
L5.5536 17.8060
" />
<path d="M5.5536 18.3298
L5.5536 17.3298
" />
<path d="M5.2202 17.3298
L4.6488 17.3298
" />
<path d="M4.9345 18.3298
L4.9345 17.3298
" />
<path d="M4.5536 18.4251
L3.7917 18.4251
" />
<path d="M3.5536 17.6632
L3.5536 18.3298
" />
<path d="M3.5536 17.7584
L3.5060 17.7108
" />
<path d="M3.5060 17.7108
L3.4107 17.6632
" />
<path d="M3.4107 17.6632
L3.2679 17.6632
" />
<path d="M3.2679 17.6632
L3.1726 17.7108
" />
<path d="M3.1726 17.7108
L3.1250 17.8060
" />
<path d="M3.1250 17.8060
L3.1250 18.3298
" />
<path d="M2.6964 18.2822
L2.5536 18.3298
" />
<path d="M2.5536 18.3298
L2.3155 18.3298
" />
<path d="M2.3155 18.3298
L2.2202 18.2822
" />
<path d="M2.2202 18.2822
L2.1726 18.2346
" />
<path d="M2.1726 18.2346
L2.1250 18.1393
" />
<path d="M2.1250 18.1393
L2.1250 18.0441
" />
<path d="M2.1250 18.0441
L2.1726 17.9489
" />
<path d="M2.1726 17.9489
L2.2202 17.9012
" />
<path d="M2.2202 17.9012
L2.3155 17.8536
" />
<path d="M2.3155 17.8536
L2.5060 17.8060
" />
<path d="M2.5060 17.8060
L2.6012 17.7584
" />
<path d="M2.6012 17.7584
L2.6488 17.7108
" />
<path d="M2.6488 17.7108
L2.6964 17.6155
" />
<path d="M2.6964 17.6155
L2.6964 17.5203
" />
<path d="M2.6964 17.5203
L2.6488 17.4251
" />
<path d="M2.6488 17.4251
L2.6012 17.3774
" />
<path d="M2.6012 17.3774
L2.5060 17.3298
" />
<path d="M2.5060 17.3298
L2.2679 17.3298
" />
<path d="M2.2679 17.3298
L2.1250 17.3774
" />
<path d="M1.6964 18.3298
L1.6964 17.6632
" />
<path d="M1.6964 17.3298
L1.7440 17.3774
" />
<path d="M1.7440 17.3774
L1.6964 17.4251
" />
<path d="M1.6964 17.4251
L1.6488 17.3774
" />
<path d="M1.6488 17.3774
L1.6964 17.3298
" />
<path d="M1.6964 17.3298
L1.6964 17.4251
" />
<path d="M1.0774 18.3298
L1.1726 18.2822
" />
<path d="M1.1726 18.2822
L1.2202 18.1870
" />
<path d="M1.2202 18.1870
L1.2202 17.3298
" />
<path d="M0.6964 18.3298
L0.6964 17.3298
" />
<path d="M0.6012 17.9489
L0.3155 18.3298
" />
<path d="M0.3155 17.6632
L0.6964 18.0441
" />
</g><text x="12.0536" y="19.9750"
transform="scale(-1 1) translate(-24.107144 0)"
textLength="4.5357" font-size="1.3333" lengthAdjust="spacingAndGlyphs"
text-anchor="middle" opacity="0" stroke-opacity="0">REF**</text>
<g class="stroked-text"><desc>REF**</desc>
<path d="M13.3869 19.9298
L13.7202 19.4536
" />
<path d="M13.9583 19.9298
L13.9583 18.9298
" />
<path d="M13.9583 18.9298
L13.5774 18.9298
" />
<path d="M13.5774 18.9298
L13.4821 18.9774
" />
<path d="M13.4821 18.9774
L13.4345 19.0251
" />
<path d="M13.4345 19.0251
L13.3869 19.1203
" />
<path d="M13.3869 19.1203
L13.3869 19.2632
" />
<path d="M13.3869 19.2632
L13.4345 19.3584
" />
<path d="M13.4345 19.3584
L13.4821 19.4060
" />
<path d="M13.4821 19.4060
L13.5774 19.4536
" />
<path d="M13.5774 19.4536
L13.9583 19.4536
" />
<path d="M12.9583 19.4060
L12.6250 19.4060
" />
<path d="M12.4821 19.9298
L12.9583 19.9298
" />
<path d="M12.9583 19.9298
L12.9583 18.9298
" />
<path d="M12.9583 18.9298
L12.4821 18.9298
" />
<path d="M11.7202 19.4060
L12.0536 19.4060
" />
<path d="M12.0536 19.9298
L12.0536 18.9298
" />
<path d="M12.0536 18.9298
L11.5774 18.9298
" />
<path d="M11.0536 18.9298
L11.0536 19.1679
" />
<path d="M11.2917 19.0727
L11.0536 19.1679
" />
<path d="M11.0536 19.1679
L10.8155 19.0727
" />
<path d="M11.1964 19.3584
L11.0536 19.1679
" />
<path d="M11.0536 19.1679
L10.9107 19.3584
" />
<path d="M10.2917 18.9298
L10.2917 19.1679
" />
<path d="M10.5298 19.0727
L10.2917 19.1679
" />
<path d="M10.2917 19.1679
L10.0536 19.0727
" />
<path d="M10.4345 19.3584
L10.2917 19.1679
" />
<path d="M10.2917 19.1679
L10.1488 19.3584
" />
</g></g>
<g style="fill:none; 
stroke:#585D84; stroke-width:0.1000; stroke-opacity:1; 
stroke-linecap:round; stroke-linejoin:round;">
<path d="M5.1956 13.3850
L6.9736 13.3850
" />
<path d="M5.1956 15.9250
L5.1956 13.3850
" />
<path d="M6.9736 12.1150
L12.0536 12.1150
" />
<path d="M6.9736 15.9250
L5.1956 15.9250
" />
<path d="M6.9736 16.5600
L6.9736 12.1150
" />
<path d="M15.8636 16.5600
L6.9736 16.5600
" />
<path d="M18.4036 10.2100
L14.5936 10.2100
" />
<path d="M18.4036 10.2100
L18.4036 14.0200
" />
<path d="M18.4036 10.8450
L20.1562 10.8450
" />
<path d="M20.1562 10.8450
L20.1562 13.3850
" />
<path d="M20.1562 13.3850
L18.4036 13.3850
" />
<path d="M12.0536 12.1150 A2.5400 2.5400 0.0 0 0 14.5177 10.1910" />
<path d="M15.8636 16.5600 A2.5400 2.5400 0.0 0 0 18.4036 14.0200" />
</g>
<g style="fill:none; 
stroke:#585D84; stroke-width:0.0212; stroke-opacity:1; 
stroke-linecap:round; stroke-linejoin:round;">
<circle cx="6.9736" cy="9.5750" r="0.8500" /> 
</g>
<g style="fill:none; 
stroke:#585D84; stroke-width:0.0212; stroke-opacity:1; 
stroke-linecap:round; stroke-linejoin:round;">
<circle cx="9.5136" cy="14.6550" r="1.5000" /> 
</g>
<g style="fill:none; 
stroke:#585D84; stroke-width:0.0212; stroke-opacity:1; 
stroke-linecap:round; stroke-linejoin:round;">
<circle cx="12.0536" cy="9.5750" r="2.0000" /> 
</g>
<g style="fill:none; 
stroke:#585D84; stroke-width:0.0212; stroke-opacity:1; 
stroke-linecap:round; stroke-linejoin:round;">
<circle cx="15.8636" cy="12.1150" r="1.5000" /> 
</g>
<g style="fill:none; 
stroke:#585D84; stroke-width:0.0212; stroke-opacity:1; 
stroke-linecap:round; stroke-linejoin:round;">
<circle cx="17.1336" cy="9.5750" r="0.8500" /> 
</g>
<g style="fill:none; 
stroke:#585D84; stroke-width:0.0639; stroke-opacity:1; 
stroke-linecap:round; stroke-linejoin:round;">
<text x="14.5936" y="4.8783"
textLength="0.7685" font-size="1.0222" lengthAdjust="spacingAndGlyphs"
text-anchor="middle" opacity="0" stroke-opacity="0">1</text>
<g class="stroked-text"><desc>1</desc>
<path d="M14.8126 4.8464
L14.3745 4.8464
" />
<path d="M14.5936 4.8464
L14.5936 4.0797
" />
<path d="M14.5936 4.0797
L14.5206 4.1892
" />
<path d="M14.5206 4.1892
L14.4475 4.2622
" />
<path d="M14.4475 4.2622
L14.3745 4.2987
" />
</g></g>
<g style="fill:none; 
stroke:#585D84; stroke-width:0.0212; stroke-opacity:1; 
stroke-linecap:round; stroke-linejoin:round;">
<circle cx="14.5936" cy="4.4950" r="1.1500" /> 
</g>
<g style="fill:none; 
stroke:#585D84; stroke-width:0.0694; stroke-opacity:1; 
stroke-linecap:round; stroke-linejoin:round;">
<g transform="rotate(-90.000000 19.2418 12.1150)">
<text x="19.2418" y="12.5317"
textLength="0.8353" font-size="1.1111" lengthAdjust="spacingAndGlyphs"
text-anchor="middle" opacity="0" stroke-opacity="0">1</text>
</g>
<g class="stroked-text"><desc>1</desc>
<path d="M19.6237 11.8769
L19.6237 12.3531
" />
<path d="M19.6237 12.1150
L18.7903 12.1150
" />
<path d="M18.7903 12.1150
L18.9094 12.1944
" />
<path d="M18.9094 12.1944
L18.9888 12.2737
" />
<path d="M18.9888 12.2737
L19.0284 12.3531
" />
</g><path style="fill:none; 
stroke:#585D84; stroke-width:0.0212; stroke-opacity:1; 
stroke-linecap:round; stroke-linejoin:round;fill:none"
d="M 18.3418,11.1150
18.3608,11.0193
18.4150,10.9382
18.4961,10.8840
18.5918,10.8650
19.8918,10.8650
19.9874,10.8840
20.0685,10.9382
20.1227,11.0193
20.1418,11.1150
20.1418,13.1150
20.1227,13.2107
20.0685,13.2918
19.9874,13.3460
19.8918,13.3650
18.5918,13.3650
18.4961,13.3460
18.4150,13.2918
18.3608,13.2107
18.3418,13.1150
Z" /> 
</g>
<g style="fill:none; 
stroke:#585D84; stroke-width:0.0694; stroke-opacity:1; 
stroke-linecap:round; stroke-linejoin:round;">
<g transform="rotate(-90.000000 6.1354 14.6550)">
<text x="6.1354" y="15.0717"
textLength="0.8353" font-size="1.1111" lengthAdjust="spacingAndGlyphs"
text-anchor="middle" opacity="0" stroke-opacity="0">2</text>
</g>
<g class="stroked-text"><desc>2</desc>
<path d="M5.7633 14.8931
L5.7236 14.8534
" />
<path d="M5.7236 14.8534
L5.6839 14.7740
" />
<path d="M5.6839 14.7740
L5.6839 14.5756
" />
<path d="M5.6839 14.5756
L5.7236 14.4963
" />
<path d="M5.7236 14.4963
L5.7633 14.4566
" />
<path d="M5.7633 14.4566
L5.8427 14.4169
" />
<path d="M5.8427 14.4169
L5.9220 14.4169
" />
<path d="M5.9220 14.4169
L6.0411 14.4566
" />
<path d="M6.0411 14.4566
L6.5173 14.9328
" />
<path d="M6.5173 14.9328
L6.5173 14.4169
" />
</g><path style="fill:none; 
stroke:#585D84; stroke-width:0.0212; stroke-opacity:1; 
stroke-linecap:round; stroke-linejoin:round;fill:none"
d="M 5.2354,13.6550
5.2544,13.5593
5.3086,13.4782
5.3897,13.4240
5.4854,13.4050
6.7854,13.4050
6.8810,13.4240
6.9621,13.4782
7.0163,13.5593
7.0354,13.6550
7.0354,15.6550
7.0163,15.7507
6.9621,15.8318
6.8810,15.8860
6.7854,15.9050
5.4854,15.9050
5.3897,15.8860
5.3086,15.8318
5.2544,15.7507
5.2354,15.6550
Z" /> 
</g>
<g style="fill:none; 
stroke:#585D84; stroke-width:0.0639; stroke-opacity:1; 
stroke-linecap:round; stroke-linejoin:round;">
<text x="8.2436" y="7.4183"
textLength="0.7685" font-size="1.0222" lengthAdjust="spacingAndGlyphs"
text-anchor="middle" opacity="0" stroke-opacity="0">2</text>
<g class="stroked-text"><desc>2</desc>
<path d="M8.0245 6.6927
L8.0610 6.6562
" />
<path d="M8.0610 6.6562
L8.1340 6.6197
" />
<path d="M8.1340 6.6197
L8.3166 6.6197
" />
<path d="M8.3166 6.6197
L8.3896 6.6562
" />
<path d="M8.3896 6.6562
L8.4261 6.6927
" />
<path d="M8.4261 6.6927
L8.4626 6.7657
" />
<path d="M8.4626 6.7657
L8.4626 6.8387
" />
<path d="M8.4626 6.8387
L8.4261 6.9483
" />
<path d="M8.4261 6.9483
L7.9880 7.3864
" />
<path d="M7.9880 7.3864
L8.4626 7.3864
" />
</g></g>
<g style="fill:none; 
stroke:#585D84; stroke-width:0.0212; stroke-opacity:1; 
stroke-linecap:round; stroke-linejoin:round;">
<circle cx="8.2436" cy="7.0350" r="1.1500" /> 
<path style="fill:none; 
stroke:#AFAFAF; stroke-width:0.1000; stroke-opacity:1; 
stroke-linecap:round; stroke-linejoin:round;fill:none"
d="M 5.0536,2.5750
19.0536,2.5750
19.0536,16.5750
5.0536,16.5750
Z" /> 
</g>
<g style="fill:none; 
stroke:#AFAFAF; stroke-width:0.0212; stroke-opacity:1; 
stroke-linecap:round; stroke-linejoin:round;">
<circle cx="6.9736" cy="9.5750" r="0.8500" /> 
</g>
<g style="fill:none; 
stroke:#AFAFAF; stroke-width:0.0212; stroke-opacity:1; 
stroke-linecap:round; stroke-linejoin:round;">
<circle cx="9.5136" cy="14.6550" r="1.5000" /> 
</g>
<g style="fill:none; 
stroke:#AFAFAF; stroke-width:0.0212; stroke-opacity:1; 
stroke-linecap:round; stroke-linejoin:round;">
<circle cx="12.0536" cy="9.5750" r="2.0000" /> 
</g>
<g style="fill:none; 
stroke:#AFAFAF; stroke-width:0.0212; stroke-opacity:1; 
stroke-linecap:round; stroke-linejoin:round;">
<circle cx="15.8636" cy="12.1150" r="1.5000" /> 
</g>
<g style="fill:none; 
stroke:#AFAFAF; stroke-width:0.0212; stroke-opacity:1; 
stroke-linecap:round; stroke-linejoin:round;">
<circle cx="17.1336" cy="9.5750" r="0.8500" /> 
</g>
<g style="fill:none; 
stroke:#AFAFAF; stroke-width:0.0639; stroke-opacity:1; 
stroke-linecap:round; stroke-linejoin:round;">
<text x="14.5936" y="4.8783"
textLength="0.7685" font-size="1.0222" lengthAdjust="spacingAndGlyphs"
text-anchor="middle" opacity="0" stroke-opacity="0">1</text>
<g class="stroked-text"><desc>1</desc>
<path d="M14.8126 4.8464
L14.3745 4.8464
" />
<path d="M14.5936 4.8464
L14.5936 4.0797
" />
<path d="M14.5936 4.0797
L14.5206 4.1892
" />
<path d="M14.5206 4.1892
L14.4475 4.2622
" />
<path d="M14.4475 4.2622
L14.3745 4.2987
" />
</g></g>
<g style="fill:none; 
stroke:#AFAFAF; stroke-width:0.0212; stroke-opacity:1; 
stroke-linecap:round; stroke-linejoin:round;">
<circle cx="14.5936" cy="4.4950" r="1.1500" /> 
</g>
<g style="fill:none; 
stroke:#AFAFAF; stroke-width:0.0639; stroke-opacity:1; 
stroke-linecap:round; stroke-linejoin:round;">
<text x="8.2436" y="7.4183"
textLength="0.7685" font-size="1.0222" lengthAdjust="spacingAndGlyphs"
text-anchor="middle" opacity="0" stroke-opacity="0">2</text>
<g class="stroked-text"><desc>2</desc>
<path d="M8.0245 6.6927
L8.0610 6.6562
" />
<path d="M8.0610 6.6562
L8.1340 6.6197
" />
<path d="M8.1340 6.6197
L8.3166 6.6197
" />
<path d="M8.3166 6.6197
L8.3896 6.6562
" />
<path d="M8.3896 6.6562
L8.4261 6.6927
" />
<path d="M8.4261 6.6927
L8.4626 6.7657
" />
<path d="M8.4626 6.7657
L8.4626 6.8387
" />
<path d="M8.4626 6.8387
L8.4261 6.9483
" />
<path d="M8.4261 6.9483
L7.9880 7.3864
" />
<path d="M7.9880 7.3864
L8.4626 7.3864
" />
</g></g>
<g style="fill:none; 
stroke:#AFAFAF; stroke-width:0.0212; stroke-opacity:1; 
stroke-linecap:round; stroke-linejoin:round;">
<circle cx="8.2436" cy="7.0350" r="1.1500" /> 
<path style="fill:none; 
stroke:#C2C2C2; stroke-width:0.1000; stroke-opacity:1; 
stroke-linecap:round; stroke-linejoin:round;fill:none"
d="M 2.5286,0.0500
21.5786,0.0500
21.5786,19.1000
2.5286,19.1000
Z" /> 
</g> 
</svg>
