<?xml version="1.0" standalone="no"?>
 <!DOCTYPE svg PUBLIC "-//W3C//DTD SVG 1.1//EN" 
 "http://www.w3.org/Graphics/SVG/1.1/DTD/svg11.dtd"> 
<svg
  xmlns:svg="http://www.w3.org/2000/svg"
  xmlns="http://www.w3.org/2000/svg"
  xmlns:xlink="http://www.w3.org/1999/xlink"
  version="1.1"
  width="19.1262mm" height="20.3200mm" viewBox="0.0000 0.0000 19.1262 20.3200">
<title>SVG Image created as SW_MX_HotSwap_sqSilk.svg date 2025/05/12 03:05:51 </title>
  <desc>Image generated by PCBNEW </desc>
<g style="fill:#000000; fill-opacity:1.0000;stroke:#000000; stroke-opacity:1.0000;
stroke-linecap:round; stroke-linejoin:round;"
 transform="translate(0 0) scale(1 1)">
</g>
<g style="fill:none; 
stroke:#E8B2A7; stroke-width:0.1500; stroke-opacity:1; 
stroke-linecap:round; stroke-linejoin:round;">
<text x="7.7970" y="4.9950"
transform="scale(-1 1) translate(-15.594000 0)"
textLength="4.5357" font-size="1.3333" lengthAdjust="spacingAndGlyphs"
text-anchor="middle" opacity="0" stroke-opacity="0">REF**</text>
<g class="stroked-text"><desc>REF**</desc>
<path d="M9.1303 4.9498
L9.4637 4.4736
" />
<path d="M9.7018 4.9498
L9.7018 3.9498
" />
<path d="M9.7018 3.9498
L9.3208 3.9498
" />
<path d="M9.3208 3.9498
L9.2256 3.9974
" />
<path d="M9.2256 3.9974
L9.1780 4.0451
" />
<path d="M9.1780 4.0451
L9.1303 4.1403
" />
<path d="M9.1303 4.1403
L9.1303 4.2832
" />
<path d="M9.1303 4.2832
L9.1780 4.3784
" />
<path d="M9.1780 4.3784
L9.2256 4.4260
" />
<path d="M9.2256 4.4260
L9.3208 4.4736
" />
<path d="M9.3208 4.4736
L9.7018 4.4736
" />
<path d="M8.7018 4.4260
L8.3684 4.4260
" />
<path d="M8.2256 4.9498
L8.7018 4.9498
" />
<path d="M8.7018 4.9498
L8.7018 3.9498
" />
<path d="M8.7018 3.9498
L8.2256 3.9498
" />
<path d="M7.4637 4.4260
L7.7970 4.4260
" />
<path d="M7.7970 4.9498
L7.7970 3.9498
" />
<path d="M7.7970 3.9498
L7.3208 3.9498
" />
<path d="M6.7970 3.9498
L6.7970 4.1879
" />
<path d="M7.0351 4.0927
L6.7970 4.1879
" />
<path d="M6.7970 4.1879
L6.5589 4.0927
" />
<path d="M6.9399 4.3784
L6.7970 4.1879
" />
<path d="M6.7970 4.1879
L6.6541 4.3784
" />
<path d="M6.0351 3.9498
L6.0351 4.1879
" />
<path d="M6.2732 4.0927
L6.0351 4.1879
" />
<path d="M6.0351 4.1879
L5.7970 4.0927
" />
<path d="M6.1780 4.3784
L6.0351 4.1879
" />
<path d="M6.0351 4.1879
L5.8922 4.3784
" />
</g></g>
<g style="fill:none; 
stroke:#E8B2A7; stroke-width:0.1200; stroke-opacity:1; 
stroke-linecap:round; stroke-linejoin:round;">
<path d="M3.2250 5.1300
L3.2250 5.4850
" />
<path d="M3.2250 8.5850
L3.2250 8.9400
" />
<path d="M3.5750 8.9400
L3.2250 8.9400
" />
<path d="M5.7650 2.5900
L14.6550 2.5900
" />
<path d="M7.1108 8.9400
L5.3840 8.9400
" />
<path d="M14.6550 2.5900
L14.6550 2.9450
" />
<path d="M14.6550 7.0350
L9.5750 7.0350
" />
<path d="M14.6550 7.0350
L14.6550 6.0450
" />
<path d="M5.7650 2.5900 A2.5400 2.5400 0.0 0 0 3.2250 5.1300" />
<path d="M9.5750 7.0350 A2.5400 2.5400 0.0 0 0 7.1154 8.9412" />
</g>
<g style="fill:none; 
stroke:#F2EDA1; stroke-width:0.1200; stroke-opacity:1; 
stroke-linecap:round; stroke-linejoin:round;">
<path d="M2.4750 16.2750
L2.4750 2.8750
" />
<path d="M2.8750 2.4750
L16.2750 2.4750
" />
<path d="M16.2750 16.6750
L2.8750 16.6750
" />
<path d="M16.6750 2.8750
L16.6750 16.2750
" />
<path d="M2.8750 2.4750 A0.4000 0.4000 0.0 0 0 2.4750 2.8750" />
<path d="M2.4750 16.2750 A0.4000 0.4000 0.0 0 0 2.8750 16.6750" />
<path d="M16.6750 2.8750 A0.4000 0.4000 0.0 0 0 16.2750 2.4750" />
<path d="M16.2750 16.6750 A0.4000 0.4000 0.0 0 0 16.6750 16.2750" />
<path style="fill:#00C2C2; fill-opacity:0.9000; stroke:none;fill-rule:evenodd;"
d="M 3.2900,8.0350
3.2710,8.1307
3.2168,8.2118
3.1357,8.2660
3.0400,8.2850
0.9900,8.2850
0.8943,8.2660
0.8132,8.2118
0.7590,8.1307
0.7400,8.0350
0.7400,6.0350
0.7590,5.9393
0.8132,5.8582
0.8943,5.8040
0.9900,5.7850
3.0400,5.7850
3.1357,5.8040
3.2168,5.8582
3.2710,5.9393
3.2900,6.0350
Z" /> 
<path style="fill:#00C2C2; fill-opacity:0.9000; stroke:none;fill-rule:evenodd;"
d="M 17.1400,5.4950
17.1210,5.5907
17.0668,5.6718
16.9857,5.7260
16.8900,5.7450
14.8400,5.7450
14.7443,5.7260
14.6632,5.6718
14.6090,5.5907
14.5900,5.4950
14.5900,3.4950
14.6090,3.3993
14.6632,3.3182
14.7443,3.2640
14.8400,3.2450
16.8900,3.2450
16.9857,3.2640
17.0668,3.3182
17.1210,3.3993
17.1400,3.4950
Z" /> 
<path style="fill:#4D7FC4; fill-opacity:1.0000; stroke:none;fill-rule:evenodd;"
d="M 3.2900,8.0350
3.2710,8.1307
3.2168,8.2118
3.1357,8.2660
3.0400,8.2850
0.9900,8.2850
0.8943,8.2660
0.8132,8.2118
0.7590,8.1307
0.7400,8.0350
0.7400,6.0350
0.7590,5.9393
0.8132,5.8582
0.8943,5.8040
0.9900,5.7850
3.0400,5.7850
3.1357,5.8040
3.2168,5.8582
3.2710,5.9393
3.2900,6.0350
Z" /> 
<path style="fill:#4D7FC4; fill-opacity:1.0000; stroke:none;fill-rule:evenodd;"
d="M 17.1400,5.4950
17.1210,5.5907
17.0668,5.6718
16.9857,5.7260
16.8900,5.7450
14.8400,5.7450
14.7443,5.7260
14.6632,5.6718
14.6090,5.5907
14.5900,5.4950
14.5900,3.4950
14.6090,3.3993
14.6632,3.3182
14.7443,3.2640
14.8400,3.2450
16.8900,3.2450
16.9857,3.2640
17.0668,3.3182
17.1210,3.3993
17.1400,3.4950
Z" /> 
</g>
<g style="fill:none; 
stroke:#585D84; stroke-width:0.1500; stroke-opacity:1; 
stroke-linecap:round; stroke-linejoin:round;">
<text x="9.5750" y="18.3750"
transform="scale(-1 1) translate(-19.150000 0)"
textLength="17.5357" font-size="1.3333" lengthAdjust="spacingAndGlyphs"
text-anchor="middle" opacity="0" stroke-opacity="0">SW_MX_HotSwap_sqSilk</text>
<g class="stroked-text"><desc>SW_MX_HotSwap_sqSilk</desc>
<path d="M18.0274 18.2822
L17.8845 18.3298
" />
<path d="M17.8845 18.3298
L17.6464 18.3298
" />
<path d="M17.6464 18.3298
L17.5512 18.2822
" />
<path d="M17.5512 18.2822
L17.5036 18.2346
" />
<path d="M17.5036 18.2346
L17.4560 18.1393
" />
<path d="M17.4560 18.1393
L17.4560 18.0441
" />
<path d="M17.4560 18.0441
L17.5036 17.9489
" />
<path d="M17.5036 17.9489
L17.5512 17.9012
" />
<path d="M17.5512 17.9012
L17.6464 17.8536
" />
<path d="M17.6464 17.8536
L17.8369 17.8060
" />
<path d="M17.8369 17.8060
L17.9321 17.7584
" />
<path d="M17.9321 17.7584
L17.9798 17.7108
" />
<path d="M17.9798 17.7108
L18.0274 17.6155
" />
<path d="M18.0274 17.6155
L18.0274 17.5203
" />
<path d="M18.0274 17.5203
L17.9798 17.4251
" />
<path d="M17.9798 17.4251
L17.9321 17.3774
" />
<path d="M17.9321 17.3774
L17.8369 17.3298
" />
<path d="M17.8369 17.3298
L17.5988 17.3298
" />
<path d="M17.5988 17.3298
L17.4560 17.3774
" />
<path d="M17.1226 17.3298
L16.8845 18.3298
" />
<path d="M16.8845 18.3298
L16.6940 17.6155
" />
<path d="M16.6940 17.6155
L16.5036 18.3298
" />
<path d="M16.5036 18.3298
L16.2655 17.3298
" />
<path d="M16.1226 18.4251
L15.3607 18.4251
" />
<path d="M15.1226 18.3298
L15.1226 17.3298
" />
<path d="M15.1226 17.3298
L14.7893 18.0441
" />
<path d="M14.7893 18.0441
L14.4560 17.3298
" />
<path d="M14.4560 17.3298
L14.4560 18.3298
" />
<path d="M14.0750 17.3298
L13.4083 18.3298
" />
<path d="M13.4083 17.3298
L14.0750 18.3298
" />
<path d="M13.2655 18.4251
L12.5036 18.4251
" />
<path d="M12.2655 18.3298
L12.2655 17.3298
" />
<path d="M12.2655 17.8060
L11.6940 17.8060
" />
<path d="M11.6940 18.3298
L11.6940 17.3298
" />
<path d="M11.0750 18.3298
L11.1702 18.2822
" />
<path d="M11.1702 18.2822
L11.2179 18.2346
" />
<path d="M11.2179 18.2346
L11.2655 18.1393
" />
<path d="M11.2655 18.1393
L11.2655 17.8536
" />
<path d="M11.2655 17.8536
L11.2179 17.7584
" />
<path d="M11.2179 17.7584
L11.1702 17.7108
" />
<path d="M11.1702 17.7108
L11.0750 17.6632
" />
<path d="M11.0750 17.6632
L10.9321 17.6632
" />
<path d="M10.9321 17.6632
L10.8369 17.7108
" />
<path d="M10.8369 17.7108
L10.7893 17.7584
" />
<path d="M10.7893 17.7584
L10.7417 17.8536
" />
<path d="M10.7417 17.8536
L10.7417 18.1393
" />
<path d="M10.7417 18.1393
L10.7893 18.2346
" />
<path d="M10.7893 18.2346
L10.8369 18.2822
" />
<path d="M10.8369 18.2822
L10.9321 18.3298
" />
<path d="M10.9321 18.3298
L11.0750 18.3298
" />
<path d="M10.4560 17.6632
L10.0750 17.6632
" />
<path d="M10.3131 17.3298
L10.3131 18.1870
" />
<path d="M10.3131 18.1870
L10.2655 18.2822
" />
<path d="M10.2655 18.2822
L10.1702 18.3298
" />
<path d="M10.1702 18.3298
L10.0750 18.3298
" />
<path d="M9.7893 18.2822
L9.6464 18.3298
" />
<path d="M9.6464 18.3298
L9.4083 18.3298
" />
<path d="M9.4083 18.3298
L9.3131 18.2822
" />
<path d="M9.3131 18.2822
L9.2655 18.2346
" />
<path d="M9.2655 18.2346
L9.2179 18.1393
" />
<path d="M9.2179 18.1393
L9.2179 18.0441
" />
<path d="M9.2179 18.0441
L9.2655 17.9489
" />
<path d="M9.2655 17.9489
L9.3131 17.9012
" />
<path d="M9.3131 17.9012
L9.4083 17.8536
" />
<path d="M9.4083 17.8536
L9.5988 17.8060
" />
<path d="M9.5988 17.8060
L9.6940 17.7584
" />
<path d="M9.6940 17.7584
L9.7417 17.7108
" />
<path d="M9.7417 17.7108
L9.7893 17.6155
" />
<path d="M9.7893 17.6155
L9.7893 17.5203
" />
<path d="M9.7893 17.5203
L9.7417 17.4251
" />
<path d="M9.7417 17.4251
L9.6940 17.3774
" />
<path d="M9.6940 17.3774
L9.5988 17.3298
" />
<path d="M9.5988 17.3298
L9.3607 17.3298
" />
<path d="M9.3607 17.3298
L9.2179 17.3774
" />
<path d="M8.8845 17.6632
L8.6940 18.3298
" />
<path d="M8.6940 18.3298
L8.5036 17.8536
" />
<path d="M8.5036 17.8536
L8.3131 18.3298
" />
<path d="M8.3131 18.3298
L8.1226 17.6632
" />
<path d="M7.3131 18.3298
L7.3131 17.8060
" />
<path d="M7.3131 17.8060
L7.3607 17.7108
" />
<path d="M7.3607 17.7108
L7.4560 17.6632
" />
<path d="M7.4560 17.6632
L7.6464 17.6632
" />
<path d="M7.6464 17.6632
L7.7417 17.7108
" />
<path d="M7.3131 18.2822
L7.4083 18.3298
" />
<path d="M7.4083 18.3298
L7.6464 18.3298
" />
<path d="M7.6464 18.3298
L7.7417 18.2822
" />
<path d="M7.7417 18.2822
L7.7893 18.1870
" />
<path d="M7.7893 18.1870
L7.7893 18.0917
" />
<path d="M7.7893 18.0917
L7.7417 17.9965
" />
<path d="M7.7417 17.9965
L7.6464 17.9489
" />
<path d="M7.6464 17.9489
L7.4083 17.9489
" />
<path d="M7.4083 17.9489
L7.3131 17.9012
" />
<path d="M6.8369 17.6632
L6.8369 18.6632
" />
<path d="M6.8369 17.7108
L6.7417 17.6632
" />
<path d="M6.7417 17.6632
L6.5512 17.6632
" />
<path d="M6.5512 17.6632
L6.4560 17.7108
" />
<path d="M6.4560 17.7108
L6.4083 17.7584
" />
<path d="M6.4083 17.7584
L6.3607 17.8536
" />
<path d="M6.3607 17.8536
L6.3607 18.1393
" />
<path d="M6.3607 18.1393
L6.4083 18.2346
" />
<path d="M6.4083 18.2346
L6.4560 18.2822
" />
<path d="M6.4560 18.2822
L6.5512 18.3298
" />
<path d="M6.5512 18.3298
L6.7417 18.3298
" />
<path d="M6.7417 18.3298
L6.8369 18.2822
" />
<path d="M6.1702 18.4251
L5.4083 18.4251
" />
<path d="M5.2179 18.2822
L5.1226 18.3298
" />
<path d="M5.1226 18.3298
L4.9321 18.3298
" />
<path d="M4.9321 18.3298
L4.8369 18.2822
" />
<path d="M4.8369 18.2822
L4.7893 18.1870
" />
<path d="M4.7893 18.1870
L4.7893 18.1393
" />
<path d="M4.7893 18.1393
L4.8369 18.0441
" />
<path d="M4.8369 18.0441
L4.9321 17.9965
" />
<path d="M4.9321 17.9965
L5.0750 17.9965
" />
<path d="M5.0750 17.9965
L5.1702 17.9489
" />
<path d="M5.1702 17.9489
L5.2179 17.8536
" />
<path d="M5.2179 17.8536
L5.2179 17.8060
" />
<path d="M5.2179 17.8060
L5.1702 17.7108
" />
<path d="M5.1702 17.7108
L5.0750 17.6632
" />
<path d="M5.0750 17.6632
L4.9321 17.6632
" />
<path d="M4.9321 17.6632
L4.8369 17.7108
" />
<path d="M3.9321 17.6632
L3.9321 18.6632
" />
<path d="M3.9321 18.2822
L4.0274 18.3298
" />
<path d="M4.0274 18.3298
L4.2179 18.3298
" />
<path d="M4.2179 18.3298
L4.3131 18.2822
" />
<path d="M4.3131 18.2822
L4.3607 18.2346
" />
<path d="M4.3607 18.2346
L4.4083 18.1393
" />
<path d="M4.4083 18.1393
L4.4083 17.8536
" />
<path d="M4.4083 17.8536
L4.3607 17.7584
" />
<path d="M4.3607 17.7584
L4.3131 17.7108
" />
<path d="M4.3131 17.7108
L4.2179 17.6632
" />
<path d="M4.2179 17.6632
L4.0274 17.6632
" />
<path d="M4.0274 17.6632
L3.9321 17.7108
" />
<path d="M3.5036 18.2822
L3.3607 18.3298
" />
<path d="M3.3607 18.3298
L3.1226 18.3298
" />
<path d="M3.1226 18.3298
L3.0274 18.2822
" />
<path d="M3.0274 18.2822
L2.9798 18.2346
" />
<path d="M2.9798 18.2346
L2.9321 18.1393
" />
<path d="M2.9321 18.1393
L2.9321 18.0441
" />
<path d="M2.9321 18.0441
L2.9798 17.9489
" />
<path d="M2.9798 17.9489
L3.0274 17.9012
" />
<path d="M3.0274 17.9012
L3.1226 17.8536
" />
<path d="M3.1226 17.8536
L3.3131 17.8060
" />
<path d="M3.3131 17.8060
L3.4083 17.7584
" />
<path d="M3.4083 17.7584
L3.4560 17.7108
" />
<path d="M3.4560 17.7108
L3.5036 17.6155
" />
<path d="M3.5036 17.6155
L3.5036 17.5203
" />
<path d="M3.5036 17.5203
L3.4560 17.4251
" />
<path d="M3.4560 17.4251
L3.4083 17.3774
" />
<path d="M3.4083 17.3774
L3.3131 17.3298
" />
<path d="M3.3131 17.3298
L3.0750 17.3298
" />
<path d="M3.0750 17.3298
L2.9321 17.3774
" />
<path d="M2.5036 18.3298
L2.5036 17.6632
" />
<path d="M2.5036 17.3298
L2.5512 17.3774
" />
<path d="M2.5512 17.3774
L2.5036 17.4251
" />
<path d="M2.5036 17.4251
L2.4560 17.3774
" />
<path d="M2.4560 17.3774
L2.5036 17.3298
" />
<path d="M2.5036 17.3298
L2.5036 17.4251
" />
<path d="M1.8845 18.3298
L1.9798 18.2822
" />
<path d="M1.9798 18.2822
L2.0274 18.1870
" />
<path d="M2.0274 18.1870
L2.0274 17.3298
" />
<path d="M1.5036 18.3298
L1.5036 17.3298
" />
<path d="M1.4083 17.9489
L1.1226 18.3298
" />
<path d="M1.1226 17.6632
L1.5036 18.0441
" />
</g><text x="9.5750" y="19.9750"
transform="scale(-1 1) translate(-19.150000 0)"
textLength="4.5357" font-size="1.3333" lengthAdjust="spacingAndGlyphs"
text-anchor="middle" opacity="0" stroke-opacity="0">REF**</text>
<g class="stroked-text"><desc>REF**</desc>
<path d="M10.9083 19.9298
L11.2417 19.4536
" />
<path d="M11.4798 19.9298
L11.4798 18.9298
" />
<path d="M11.4798 18.9298
L11.0988 18.9298
" />
<path d="M11.0988 18.9298
L11.0036 18.9774
" />
<path d="M11.0036 18.9774
L10.9560 19.0251
" />
<path d="M10.9560 19.0251
L10.9083 19.1203
" />
<path d="M10.9083 19.1203
L10.9083 19.2632
" />
<path d="M10.9083 19.2632
L10.9560 19.3584
" />
<path d="M10.9560 19.3584
L11.0036 19.4060
" />
<path d="M11.0036 19.4060
L11.0988 19.4536
" />
<path d="M11.0988 19.4536
L11.4798 19.4536
" />
<path d="M10.4798 19.4060
L10.1464 19.4060
" />
<path d="M10.0036 19.9298
L10.4798 19.9298
" />
<path d="M10.4798 19.9298
L10.4798 18.9298
" />
<path d="M10.4798 18.9298
L10.0036 18.9298
" />
<path d="M9.2417 19.4060
L9.5750 19.4060
" />
<path d="M9.5750 19.9298
L9.5750 18.9298
" />
<path d="M9.5750 18.9298
L9.0988 18.9298
" />
<path d="M8.5750 18.9298
L8.5750 19.1679
" />
<path d="M8.8131 19.0727
L8.5750 19.1679
" />
<path d="M8.5750 19.1679
L8.3369 19.0727
" />
<path d="M8.7179 19.3584
L8.5750 19.1679
" />
<path d="M8.5750 19.1679
L8.4321 19.3584
" />
<path d="M7.8131 18.9298
L7.8131 19.1679
" />
<path d="M8.0512 19.0727
L7.8131 19.1679
" />
<path d="M7.8131 19.1679
L7.5750 19.0727
" />
<path d="M7.9560 19.3584
L7.8131 19.1679
" />
<path d="M7.8131 19.1679
L7.6702 19.3584
" />
</g></g>
<g style="fill:none; 
stroke:#585D84; stroke-width:0.1000; stroke-opacity:1; 
stroke-linecap:round; stroke-linejoin:round;">
<path d="M0.6850 5.7650
L3.2250 5.7650
" />
<path d="M0.6850 8.3050
L0.6850 5.7650
" />
<path d="M3.2250 8.3050
L0.6850 8.3050
" />
<path d="M3.2250 8.9400
L3.2250 5.1300
" />
<path d="M3.2250 8.9400
L7.0350 8.9400
" />
<path d="M5.7650 2.5900
L14.6550 2.5900
" />
<path d="M14.6550 2.5900
L14.6550 7.0350
" />
<path d="M14.6550 3.2250
L17.1950 3.2250
" />
<path d="M14.6550 7.0350
L9.5750 7.0350
" />
<path d="M17.1950 3.2250
L17.1950 5.7650
" />
<path d="M17.1950 5.7650
L14.6550 5.7650
" />
<path style="fill:none; 
stroke:#585D84; stroke-width:0.1000; stroke-opacity:1; 
stroke-linecap:round; stroke-linejoin:round;fill:none"
d="M 7.8250,13.1550
11.3250,13.1550
11.3250,16.1550
7.8250,16.1550
Z" /> 
<path d="M5.7650 2.5900 A2.5400 2.5400 0.0 0 0 3.2250 5.1300" />
<path d="M9.5750 7.0350 A2.5400 2.5400 0.0 0 0 7.1108 8.9590" />
</g>
<g style="fill:none; 
stroke:#585D84; stroke-width:0.0212; stroke-opacity:1; 
stroke-linecap:round; stroke-linejoin:round;">
<circle cx="4.4950" cy="9.5750" r="0.8500" /> 
</g>
<g style="fill:none; 
stroke:#585D84; stroke-width:0.0212; stroke-opacity:1; 
stroke-linecap:round; stroke-linejoin:round;">
<circle cx="5.7650" cy="7.0350" r="1.5000" /> 
</g>
<g style="fill:none; 
stroke:#585D84; stroke-width:0.0212; stroke-opacity:1; 
stroke-linecap:round; stroke-linejoin:round;">
<circle cx="9.5750" cy="9.5750" r="2.0000" /> 
</g>
<g style="fill:none; 
stroke:#585D84; stroke-width:0.0212; stroke-opacity:1; 
stroke-linecap:round; stroke-linejoin:round;">
<circle cx="12.1150" cy="4.4950" r="1.5000" /> 
</g>
<g style="fill:none; 
stroke:#585D84; stroke-width:0.0212; stroke-opacity:1; 
stroke-linecap:round; stroke-linejoin:round;">
<circle cx="14.6550" cy="9.5750" r="0.8500" /> 
</g>
<g style="fill:none; 
stroke:#585D84; stroke-width:0.0708; stroke-opacity:1; 
stroke-linecap:round; stroke-linejoin:round;">
<text x="2.0150" y="7.4600"
textLength="0.8520" font-size="1.1333" lengthAdjust="spacingAndGlyphs"
text-anchor="middle" opacity="0" stroke-opacity="0">1</text>
<g class="stroked-text"><desc>1</desc>
<path d="M2.2579 7.4245
L1.7721 7.4245
" />
<path d="M2.0150 7.4245
L2.0150 6.5745
" />
<path d="M2.0150 6.5745
L1.9340 6.6960
" />
<path d="M1.9340 6.6960
L1.8531 6.7769
" />
<path d="M1.8531 6.7769
L1.7721 6.8174
" />
</g><path style="fill:none; 
stroke:#585D84; stroke-width:0.0212; stroke-opacity:1; 
stroke-linecap:round; stroke-linejoin:round;fill:none"
d="M 3.2900,8.0350
3.2710,8.1307
3.2168,8.2118
3.1357,8.2660
3.0400,8.2850
0.9900,8.2850
0.8943,8.2660
0.8132,8.2118
0.7590,8.1307
0.7400,8.0350
0.7400,6.0350
0.7590,5.9393
0.8132,5.8582
0.8943,5.8040
0.9900,5.7850
3.0400,5.7850
3.1357,5.8040
3.2168,5.8582
3.2710,5.9393
3.2900,6.0350
Z" /> 
</g>
<g style="fill:none; 
stroke:#585D84; stroke-width:0.0708; stroke-opacity:1; 
stroke-linecap:round; stroke-linejoin:round;">
<text x="15.8650" y="4.9200"
textLength="0.8520" font-size="1.1333" lengthAdjust="spacingAndGlyphs"
text-anchor="middle" opacity="0" stroke-opacity="0">2</text>
<g class="stroked-text"><desc>2</desc>
<path d="M15.6221 4.1155
L15.6626 4.0750
" />
<path d="M15.6626 4.0750
L15.7436 4.0345
" />
<path d="M15.7436 4.0345
L15.9460 4.0345
" />
<path d="M15.9460 4.0345
L16.0269 4.0750
" />
<path d="M16.0269 4.0750
L16.0674 4.1155
" />
<path d="M16.0674 4.1155
L16.1079 4.1964
" />
<path d="M16.1079 4.1964
L16.1079 4.2774
" />
<path d="M16.1079 4.2774
L16.0674 4.3988
" />
<path d="M16.0674 4.3988
L15.5817 4.8845
" />
<path d="M15.5817 4.8845
L16.1079 4.8845
" />
</g><path style="fill:none; 
stroke:#585D84; stroke-width:0.0212; stroke-opacity:1; 
stroke-linecap:round; stroke-linejoin:round;fill:none"
d="M 17.1400,5.4950
17.1210,5.5907
17.0668,5.6718
16.9857,5.7260
16.8900,5.7450
14.8400,5.7450
14.7443,5.7260
14.6632,5.6718
14.6090,5.5907
14.5900,5.4950
14.5900,3.4950
14.6090,3.3993
14.6632,3.3182
14.7443,3.2640
14.8400,3.2450
16.8900,3.2450
16.9857,3.2640
17.0668,3.3182
17.1210,3.3993
17.1400,3.4950
Z" /> 
<path style="fill:none; 
stroke:#AFAFAF; stroke-width:0.1000; stroke-opacity:1; 
stroke-linecap:round; stroke-linejoin:round;fill:none"
d="M 2.5750,2.5750
16.5750,2.5750
16.5750,16.5750
2.5750,16.5750
Z" /> 
</g>
<g style="fill:none; 
stroke:#AFAFAF; stroke-width:0.0212; stroke-opacity:1; 
stroke-linecap:round; stroke-linejoin:round;">
<circle cx="4.4950" cy="9.5750" r="0.8500" /> 
</g>
<g style="fill:none; 
stroke:#AFAFAF; stroke-width:0.0212; stroke-opacity:1; 
stroke-linecap:round; stroke-linejoin:round;">
<circle cx="5.7650" cy="7.0350" r="1.5000" /> 
</g>
<g style="fill:none; 
stroke:#AFAFAF; stroke-width:0.0212; stroke-opacity:1; 
stroke-linecap:round; stroke-linejoin:round;">
<circle cx="9.5750" cy="9.5750" r="2.0000" /> 
</g>
<g style="fill:none; 
stroke:#AFAFAF; stroke-width:0.0212; stroke-opacity:1; 
stroke-linecap:round; stroke-linejoin:round;">
<circle cx="12.1150" cy="4.4950" r="1.5000" /> 
</g>
<g style="fill:none; 
stroke:#AFAFAF; stroke-width:0.0212; stroke-opacity:1; 
stroke-linecap:round; stroke-linejoin:round;">
<circle cx="14.6550" cy="9.5750" r="0.8500" /> 
<path style="fill:none; 
stroke:#C2C2C2; stroke-width:0.1000; stroke-opacity:1; 
stroke-linecap:round; stroke-linejoin:round;fill:none"
d="M 0.0500,0.0500
19.1000,0.0500
19.1000,19.1000
0.0500,19.1000
Z" /> 
</g> 
</svg>
