<?xml version="1.0" standalone="no"?>
 <!DOCTYPE svg PUBLIC "-//W3C//DTD SVG 1.1//EN" 
 "http://www.w3.org/Graphics/SVG/1.1/DTD/svg11.dtd"> 
<svg
  xmlns:svg="http://www.w3.org/2000/svg"
  xmlns="http://www.w3.org/2000/svg"
  xmlns:xlink="http://www.w3.org/1999/xlink"
  version="1.1"
  width="19.1262mm" height="20.3200mm" viewBox="0.0000 0.0000 19.1262 20.3200">
<title>SVG Image created as SW_MX_HotSwap_nSilk.svg date 2025/04/10 11:36:10 </title>
  <desc>Image generated by PCBNEW </desc>
<g style="fill:#000000; fill-opacity:1.0000;stroke:#000000; stroke-opacity:1.0000;
stroke-linecap:round; stroke-linejoin:round;"
 transform="translate(0 0) scale(1 1)">
</g>
<g style="fill:none; 
stroke:#F2EDA1; stroke-width:0.1500; stroke-opacity:1; 
stroke-linecap:round; stroke-linejoin:round;">
<text x="9.5750" y="7.0750"
textLength="4.5357" font-size="1.3333" lengthAdjust="spacingAndGlyphs"
text-anchor="middle" opacity="0" stroke-opacity="0">REF**</text>
<g class="stroked-text"><desc>REF**</desc>
<path d="M8.2417 7.0298
L7.9083 6.5536
" />
<path d="M7.6702 7.0298
L7.6702 6.0298
" />
<path d="M7.6702 6.0298
L8.0512 6.0298
" />
<path d="M8.0512 6.0298
L8.1464 6.0774
" />
<path d="M8.1464 6.0774
L8.1940 6.1251
" />
<path d="M8.1940 6.1251
L8.2417 6.2203
" />
<path d="M8.2417 6.2203
L8.2417 6.3632
" />
<path d="M8.2417 6.3632
L8.1940 6.4584
" />
<path d="M8.1940 6.4584
L8.1464 6.5060
" />
<path d="M8.1464 6.5060
L8.0512 6.5536
" />
<path d="M8.0512 6.5536
L7.6702 6.5536
" />
<path d="M8.6702 6.5060
L9.0036 6.5060
" />
<path d="M9.1464 7.0298
L8.6702 7.0298
" />
<path d="M8.6702 7.0298
L8.6702 6.0298
" />
<path d="M8.6702 6.0298
L9.1464 6.0298
" />
<path d="M9.9083 6.5060
L9.5750 6.5060
" />
<path d="M9.5750 7.0298
L9.5750 6.0298
" />
<path d="M9.5750 6.0298
L10.0512 6.0298
" />
<path d="M10.5750 6.0298
L10.5750 6.2679
" />
<path d="M10.3369 6.1727
L10.5750 6.2679
" />
<path d="M10.5750 6.2679
L10.8131 6.1727
" />
<path d="M10.4321 6.4584
L10.5750 6.2679
" />
<path d="M10.5750 6.2679
L10.7179 6.4584
" />
<path d="M11.3369 6.0298
L11.3369 6.2679
" />
<path d="M11.0988 6.1727
L11.3369 6.2679
" />
<path d="M11.3369 6.2679
L11.5750 6.1727
" />
<path d="M11.1940 6.4584
L11.3369 6.2679
" />
<path d="M11.3369 6.2679
L11.4798 6.4584
" />
</g></g>
<g style="fill:none; 
stroke:#F2EDA1; stroke-width:0.1200; stroke-opacity:1; 
stroke-linecap:round; stroke-linejoin:round;">
<path d="M3.2250 10.5650
L3.2250 10.2100
" />
<path d="M3.2250 14.0200
L3.2250 13.6650
" />
<path d="M3.5750 10.2100
L3.2250 10.2100
" />
<path d="M5.7650 16.5600
L14.6550 16.5600
" />
<path d="M7.1108 10.2100
L5.3840 10.2100
" />
<path d="M14.6550 12.1150
L9.5750 12.1150
" />
<path d="M14.6550 12.1150
L14.6550 13.1050
" />
<path d="M14.6550 16.5600
L14.6550 16.2050
" />
<path d="M3.2250 14.0200 A2.5400 2.5400 0.0 0 0 5.7650 16.5600" />
<path d="M7.1154 10.2088 A2.5400 2.5400 0.0 0 0 9.5750 12.1150" />
<path style="fill:#B4A09A; fill-opacity:0.9000; stroke:none;fill-rule:evenodd;"
d="M 3.2900,13.1150
3.2710,13.2107
3.2168,13.2918
3.1357,13.3460
3.0400,13.3650
0.9900,13.3650
0.8943,13.3460
0.8132,13.2918
0.7590,13.2107
0.7400,13.1150
0.7400,11.1150
0.7590,11.0193
0.8132,10.9382
0.8943,10.8840
0.9900,10.8650
3.0400,10.8650
3.1357,10.8840
3.2168,10.9382
3.2710,11.0193
3.2900,11.1150
Z" /> 
<path style="fill:#B4A09A; fill-opacity:0.9000; stroke:none;fill-rule:evenodd;"
d="M 17.1400,15.6550
17.1210,15.7507
17.0668,15.8318
16.9857,15.8860
16.8900,15.9050
14.8400,15.9050
14.7443,15.8860
14.6632,15.8318
14.6090,15.7507
14.5900,15.6550
14.5900,13.6550
14.6090,13.5593
14.6632,13.4782
14.7443,13.4240
14.8400,13.4050
16.8900,13.4050
16.9857,13.4240
17.0668,13.4782
17.1210,13.5593
17.1400,13.6550
Z" /> 
<path style="fill:#C83434; fill-opacity:1.0000; stroke:none;fill-rule:evenodd;"
d="M 3.2900,13.1150
3.2710,13.2107
3.2168,13.2918
3.1357,13.3460
3.0400,13.3650
0.9900,13.3650
0.8943,13.3460
0.8132,13.2918
0.7590,13.2107
0.7400,13.1150
0.7400,11.1150
0.7590,11.0193
0.8132,10.9382
0.8943,10.8840
0.9900,10.8650
3.0400,10.8650
3.1357,10.8840
3.2168,10.9382
3.2710,11.0193
3.2900,11.1150
Z" /> 
<path style="fill:#C83434; fill-opacity:1.0000; stroke:none;fill-rule:evenodd;"
d="M 17.1400,15.6550
17.1210,15.7507
17.0668,15.8318
16.9857,15.8860
16.8900,15.9050
14.8400,15.9050
14.7443,15.8860
14.6632,15.8318
14.6090,15.7507
14.5900,15.6550
14.5900,13.6550
14.6090,13.5593
14.6632,13.4782
14.7443,13.4240
14.8400,13.4050
16.8900,13.4050
16.9857,13.4240
17.0668,13.4782
17.1210,13.5593
17.1400,13.6550
Z" /> 
</g>
<g style="fill:none; 
stroke:#AFAFAF; stroke-width:0.1500; stroke-opacity:1; 
stroke-linecap:round; stroke-linejoin:round;">
<text x="9.5750" y="18.3750"
textLength="16.7262" font-size="1.3333" lengthAdjust="spacingAndGlyphs"
text-anchor="middle" opacity="0" stroke-opacity="0">SW_MX_HotSwap_nSilk</text>
<g class="stroked-text"><desc>SW_MX_HotSwap_nSilk</desc>
<path d="M1.5274 18.2822
L1.6702 18.3298
" />
<path d="M1.6702 18.3298
L1.9083 18.3298
" />
<path d="M1.9083 18.3298
L2.0036 18.2822
" />
<path d="M2.0036 18.2822
L2.0512 18.2346
" />
<path d="M2.0512 18.2346
L2.0988 18.1393
" />
<path d="M2.0988 18.1393
L2.0988 18.0441
" />
<path d="M2.0988 18.0441
L2.0512 17.9489
" />
<path d="M2.0512 17.9489
L2.0036 17.9012
" />
<path d="M2.0036 17.9012
L1.9083 17.8536
" />
<path d="M1.9083 17.8536
L1.7179 17.8060
" />
<path d="M1.7179 17.8060
L1.6226 17.7584
" />
<path d="M1.6226 17.7584
L1.5750 17.7108
" />
<path d="M1.5750 17.7108
L1.5274 17.6155
" />
<path d="M1.5274 17.6155
L1.5274 17.5203
" />
<path d="M1.5274 17.5203
L1.5750 17.4251
" />
<path d="M1.5750 17.4251
L1.6226 17.3774
" />
<path d="M1.6226 17.3774
L1.7179 17.3298
" />
<path d="M1.7179 17.3298
L1.9560 17.3298
" />
<path d="M1.9560 17.3298
L2.0988 17.3774
" />
<path d="M2.4321 17.3298
L2.6702 18.3298
" />
<path d="M2.6702 18.3298
L2.8607 17.6155
" />
<path d="M2.8607 17.6155
L3.0512 18.3298
" />
<path d="M3.0512 18.3298
L3.2893 17.3298
" />
<path d="M3.4321 18.4251
L4.1940 18.4251
" />
<path d="M4.4321 18.3298
L4.4321 17.3298
" />
<path d="M4.4321 17.3298
L4.7655 18.0441
" />
<path d="M4.7655 18.0441
L5.0988 17.3298
" />
<path d="M5.0988 17.3298
L5.0988 18.3298
" />
<path d="M5.4798 17.3298
L6.1464 18.3298
" />
<path d="M6.1464 17.3298
L5.4798 18.3298
" />
<path d="M6.2893 18.4251
L7.0512 18.4251
" />
<path d="M7.2893 18.3298
L7.2893 17.3298
" />
<path d="M7.2893 17.8060
L7.8607 17.8060
" />
<path d="M7.8607 18.3298
L7.8607 17.3298
" />
<path d="M8.4798 18.3298
L8.3845 18.2822
" />
<path d="M8.3845 18.2822
L8.3369 18.2346
" />
<path d="M8.3369 18.2346
L8.2893 18.1393
" />
<path d="M8.2893 18.1393
L8.2893 17.8536
" />
<path d="M8.2893 17.8536
L8.3369 17.7584
" />
<path d="M8.3369 17.7584
L8.3845 17.7108
" />
<path d="M8.3845 17.7108
L8.4798 17.6632
" />
<path d="M8.4798 17.6632
L8.6226 17.6632
" />
<path d="M8.6226 17.6632
L8.7179 17.7108
" />
<path d="M8.7179 17.7108
L8.7655 17.7584
" />
<path d="M8.7655 17.7584
L8.8131 17.8536
" />
<path d="M8.8131 17.8536
L8.8131 18.1393
" />
<path d="M8.8131 18.1393
L8.7655 18.2346
" />
<path d="M8.7655 18.2346
L8.7179 18.2822
" />
<path d="M8.7179 18.2822
L8.6226 18.3298
" />
<path d="M8.6226 18.3298
L8.4798 18.3298
" />
<path d="M9.0988 17.6632
L9.4798 17.6632
" />
<path d="M9.2417 17.3298
L9.2417 18.1870
" />
<path d="M9.2417 18.1870
L9.2893 18.2822
" />
<path d="M9.2893 18.2822
L9.3845 18.3298
" />
<path d="M9.3845 18.3298
L9.4798 18.3298
" />
<path d="M9.7655 18.2822
L9.9083 18.3298
" />
<path d="M9.9083 18.3298
L10.1464 18.3298
" />
<path d="M10.1464 18.3298
L10.2417 18.2822
" />
<path d="M10.2417 18.2822
L10.2893 18.2346
" />
<path d="M10.2893 18.2346
L10.3369 18.1393
" />
<path d="M10.3369 18.1393
L10.3369 18.0441
" />
<path d="M10.3369 18.0441
L10.2893 17.9489
" />
<path d="M10.2893 17.9489
L10.2417 17.9012
" />
<path d="M10.2417 17.9012
L10.1464 17.8536
" />
<path d="M10.1464 17.8536
L9.9560 17.8060
" />
<path d="M9.9560 17.8060
L9.8607 17.7584
" />
<path d="M9.8607 17.7584
L9.8131 17.7108
" />
<path d="M9.8131 17.7108
L9.7655 17.6155
" />
<path d="M9.7655 17.6155
L9.7655 17.5203
" />
<path d="M9.7655 17.5203
L9.8131 17.4251
" />
<path d="M9.8131 17.4251
L9.8607 17.3774
" />
<path d="M9.8607 17.3774
L9.9560 17.3298
" />
<path d="M9.9560 17.3298
L10.1940 17.3298
" />
<path d="M10.1940 17.3298
L10.3369 17.3774
" />
<path d="M10.6702 17.6632
L10.8607 18.3298
" />
<path d="M10.8607 18.3298
L11.0512 17.8536
" />
<path d="M11.0512 17.8536
L11.2417 18.3298
" />
<path d="M11.2417 18.3298
L11.4321 17.6632
" />
<path d="M12.2417 18.3298
L12.2417 17.8060
" />
<path d="M12.2417 17.8060
L12.1940 17.7108
" />
<path d="M12.1940 17.7108
L12.0988 17.6632
" />
<path d="M12.0988 17.6632
L11.9083 17.6632
" />
<path d="M11.9083 17.6632
L11.8131 17.7108
" />
<path d="M12.2417 18.2822
L12.1464 18.3298
" />
<path d="M12.1464 18.3298
L11.9083 18.3298
" />
<path d="M11.9083 18.3298
L11.8131 18.2822
" />
<path d="M11.8131 18.2822
L11.7655 18.1870
" />
<path d="M11.7655 18.1870
L11.7655 18.0917
" />
<path d="M11.7655 18.0917
L11.8131 17.9965
" />
<path d="M11.8131 17.9965
L11.9083 17.9489
" />
<path d="M11.9083 17.9489
L12.1464 17.9489
" />
<path d="M12.1464 17.9489
L12.2417 17.9012
" />
<path d="M12.7179 17.6632
L12.7179 18.6632
" />
<path d="M12.7179 17.7108
L12.8131 17.6632
" />
<path d="M12.8131 17.6632
L13.0036 17.6632
" />
<path d="M13.0036 17.6632
L13.0988 17.7108
" />
<path d="M13.0988 17.7108
L13.1464 17.7584
" />
<path d="M13.1464 17.7584
L13.1940 17.8536
" />
<path d="M13.1940 17.8536
L13.1940 18.1393
" />
<path d="M13.1940 18.1393
L13.1464 18.2346
" />
<path d="M13.1464 18.2346
L13.0988 18.2822
" />
<path d="M13.0988 18.2822
L13.0036 18.3298
" />
<path d="M13.0036 18.3298
L12.8131 18.3298
" />
<path d="M12.8131 18.3298
L12.7179 18.2822
" />
<path d="M13.3845 18.4251
L14.1464 18.4251
" />
<path d="M14.3845 17.6632
L14.3845 18.3298
" />
<path d="M14.3845 17.7584
L14.4321 17.7108
" />
<path d="M14.4321 17.7108
L14.5274 17.6632
" />
<path d="M14.5274 17.6632
L14.6702 17.6632
" />
<path d="M14.6702 17.6632
L14.7655 17.7108
" />
<path d="M14.7655 17.7108
L14.8131 17.8060
" />
<path d="M14.8131 17.8060
L14.8131 18.3298
" />
<path d="M15.2417 18.2822
L15.3845 18.3298
" />
<path d="M15.3845 18.3298
L15.6226 18.3298
" />
<path d="M15.6226 18.3298
L15.7179 18.2822
" />
<path d="M15.7179 18.2822
L15.7655 18.2346
" />
<path d="M15.7655 18.2346
L15.8131 18.1393
" />
<path d="M15.8131 18.1393
L15.8131 18.0441
" />
<path d="M15.8131 18.0441
L15.7655 17.9489
" />
<path d="M15.7655 17.9489
L15.7179 17.9012
" />
<path d="M15.7179 17.9012
L15.6226 17.8536
" />
<path d="M15.6226 17.8536
L15.4321 17.8060
" />
<path d="M15.4321 17.8060
L15.3369 17.7584
" />
<path d="M15.3369 17.7584
L15.2893 17.7108
" />
<path d="M15.2893 17.7108
L15.2417 17.6155
" />
<path d="M15.2417 17.6155
L15.2417 17.5203
" />
<path d="M15.2417 17.5203
L15.2893 17.4251
" />
<path d="M15.2893 17.4251
L15.3369 17.3774
" />
<path d="M15.3369 17.3774
L15.4321 17.3298
" />
<path d="M15.4321 17.3298
L15.6702 17.3298
" />
<path d="M15.6702 17.3298
L15.8131 17.3774
" />
<path d="M16.2417 18.3298
L16.2417 17.6632
" />
<path d="M16.2417 17.3298
L16.1940 17.3774
" />
<path d="M16.1940 17.3774
L16.2417 17.4251
" />
<path d="M16.2417 17.4251
L16.2893 17.3774
" />
<path d="M16.2893 17.3774
L16.2417 17.3298
" />
<path d="M16.2417 17.3298
L16.2417 17.4251
" />
<path d="M16.8607 18.3298
L16.7655 18.2822
" />
<path d="M16.7655 18.2822
L16.7179 18.1870
" />
<path d="M16.7179 18.1870
L16.7179 17.3298
" />
<path d="M17.2417 18.3298
L17.2417 17.3298
" />
<path d="M17.3369 17.9489
L17.6226 18.3298
" />
<path d="M17.6226 17.6632
L17.2417 18.0441
" />
</g><text x="9.5750" y="19.9750"
textLength="4.5357" font-size="1.3333" lengthAdjust="spacingAndGlyphs"
text-anchor="middle" opacity="0" stroke-opacity="0">REF**</text>
<g class="stroked-text"><desc>REF**</desc>
<path d="M8.2417 19.9298
L7.9083 19.4536
" />
<path d="M7.6702 19.9298
L7.6702 18.9298
" />
<path d="M7.6702 18.9298
L8.0512 18.9298
" />
<path d="M8.0512 18.9298
L8.1464 18.9774
" />
<path d="M8.1464 18.9774
L8.1940 19.0251
" />
<path d="M8.1940 19.0251
L8.2417 19.1203
" />
<path d="M8.2417 19.1203
L8.2417 19.2632
" />
<path d="M8.2417 19.2632
L8.1940 19.3584
" />
<path d="M8.1940 19.3584
L8.1464 19.4060
" />
<path d="M8.1464 19.4060
L8.0512 19.4536
" />
<path d="M8.0512 19.4536
L7.6702 19.4536
" />
<path d="M8.6702 19.4060
L9.0036 19.4060
" />
<path d="M9.1464 19.9298
L8.6702 19.9298
" />
<path d="M8.6702 19.9298
L8.6702 18.9298
" />
<path d="M8.6702 18.9298
L9.1464 18.9298
" />
<path d="M9.9083 19.4060
L9.5750 19.4060
" />
<path d="M9.5750 19.9298
L9.5750 18.9298
" />
<path d="M9.5750 18.9298
L10.0512 18.9298
" />
<path d="M10.5750 18.9298
L10.5750 19.1679
" />
<path d="M10.3369 19.0727
L10.5750 19.1679
" />
<path d="M10.5750 19.1679
L10.8131 19.0727
" />
<path d="M10.4321 19.3584
L10.5750 19.1679
" />
<path d="M10.5750 19.1679
L10.7179 19.3584
" />
<path d="M11.3369 18.9298
L11.3369 19.1679
" />
<path d="M11.0988 19.0727
L11.3369 19.1679
" />
<path d="M11.3369 19.1679
L11.5750 19.0727
" />
<path d="M11.1940 19.3584
L11.3369 19.1679
" />
<path d="M11.3369 19.1679
L11.4798 19.3584
" />
</g></g>
<g style="fill:none; 
stroke:#AFAFAF; stroke-width:0.1200; stroke-opacity:1; 
stroke-linecap:round; stroke-linejoin:round;">
<path d="M0.6850 10.8450
L0.6850 13.3850
" />
<path d="M0.6850 13.3850
L3.2250 13.3850
" />
<path d="M3.2250 10.2100
L3.2250 14.0200
" />
<path d="M3.2250 10.2100
L7.0350 10.2100
" />
<path d="M3.2250 10.8450
L0.6850 10.8450
" />
<path d="M5.7650 16.5600
L14.6550 16.5600
" />
<path d="M14.6550 12.1150
L9.5750 12.1150
" />
<path d="M14.6550 15.9250
L17.1950 15.9250
" />
<path d="M14.6550 16.5600
L14.6550 12.1150
" />
<path d="M17.1950 13.3850
L14.6550 13.3850
" />
<path d="M17.1950 15.9250
L17.1950 13.3850
" />
<path d="M3.2250 14.0200 A2.5400 2.5400 0.0 0 0 5.7650 16.5600" />
<path d="M7.1108 10.1910 A2.5400 2.5400 0.0 0 0 9.5750 12.1150" />
</g>
<g style="fill:none; 
stroke:#AFAFAF; stroke-width:0.0212; stroke-opacity:1; 
stroke-linecap:round; stroke-linejoin:round;">
<circle cx="4.4950" cy="9.5750" r="0.8500" /> 
</g>
<g style="fill:none; 
stroke:#AFAFAF; stroke-width:0.0212; stroke-opacity:1; 
stroke-linecap:round; stroke-linejoin:round;">
<circle cx="5.7650" cy="12.1150" r="1.5000" /> 
</g>
<g style="fill:none; 
stroke:#AFAFAF; stroke-width:0.0212; stroke-opacity:1; 
stroke-linecap:round; stroke-linejoin:round;">
<circle cx="9.5750" cy="9.5750" r="2.0000" /> 
</g>
<g style="fill:none; 
stroke:#AFAFAF; stroke-width:0.0212; stroke-opacity:1; 
stroke-linecap:round; stroke-linejoin:round;">
<circle cx="12.1150" cy="14.6550" r="1.5000" /> 
</g>
<g style="fill:none; 
stroke:#AFAFAF; stroke-width:0.0212; stroke-opacity:1; 
stroke-linecap:round; stroke-linejoin:round;">
<circle cx="14.6550" cy="9.5750" r="0.8500" /> 
</g>
<g style="fill:none; 
stroke:#AFAFAF; stroke-width:0.0708; stroke-opacity:1; 
stroke-linecap:round; stroke-linejoin:round;">
<text x="2.0150" y="12.5400"
textLength="0.8520" font-size="1.1333" lengthAdjust="spacingAndGlyphs"
text-anchor="middle" opacity="0" stroke-opacity="0">1</text>
<g class="stroked-text"><desc>1</desc>
<path d="M2.2579 12.5045
L1.7721 12.5045
" />
<path d="M2.0150 12.5045
L2.0150 11.6545
" />
<path d="M2.0150 11.6545
L1.9340 11.7760
" />
<path d="M1.9340 11.7760
L1.8531 11.8569
" />
<path d="M1.8531 11.8569
L1.7721 11.8974
" />
</g><path style="fill:none; 
stroke:#AFAFAF; stroke-width:0.0212; stroke-opacity:1; 
stroke-linecap:round; stroke-linejoin:round;fill:none"
d="M 3.2900,13.1150
3.2710,13.2107
3.2168,13.2918
3.1357,13.3460
3.0400,13.3650
0.9900,13.3650
0.8943,13.3460
0.8132,13.2918
0.7590,13.2107
0.7400,13.1150
0.7400,11.1150
0.7590,11.0193
0.8132,10.9382
0.8943,10.8840
0.9900,10.8650
3.0400,10.8650
3.1357,10.8840
3.2168,10.9382
3.2710,11.0193
3.2900,11.1150
Z" /> 
</g>
<g style="fill:none; 
stroke:#AFAFAF; stroke-width:0.0708; stroke-opacity:1; 
stroke-linecap:round; stroke-linejoin:round;">
<text x="15.8650" y="15.0800"
textLength="0.8520" font-size="1.1333" lengthAdjust="spacingAndGlyphs"
text-anchor="middle" opacity="0" stroke-opacity="0">2</text>
<g class="stroked-text"><desc>2</desc>
<path d="M15.6221 14.2755
L15.6626 14.2350
" />
<path d="M15.6626 14.2350
L15.7436 14.1945
" />
<path d="M15.7436 14.1945
L15.9460 14.1945
" />
<path d="M15.9460 14.1945
L16.0269 14.2350
" />
<path d="M16.0269 14.2350
L16.0674 14.2755
" />
<path d="M16.0674 14.2755
L16.1079 14.3564
" />
<path d="M16.1079 14.3564
L16.1079 14.4374
" />
<path d="M16.1079 14.4374
L16.0674 14.5588
" />
<path d="M16.0674 14.5588
L15.5817 15.0445
" />
<path d="M15.5817 15.0445
L16.1079 15.0445
" />
</g><path style="fill:none; 
stroke:#AFAFAF; stroke-width:0.0212; stroke-opacity:1; 
stroke-linecap:round; stroke-linejoin:round;fill:none"
d="M 17.1400,15.6550
17.1210,15.7507
17.0668,15.8318
16.9857,15.8860
16.8900,15.9050
14.8400,15.9050
14.7443,15.8860
14.6632,15.8318
14.6090,15.7507
14.5900,15.6550
14.5900,13.6550
14.6090,13.5593
14.6632,13.4782
14.7443,13.4240
14.8400,13.4050
16.8900,13.4050
16.9857,13.4240
17.0668,13.4782
17.1210,13.5593
17.1400,13.6550
Z" /> 
<path style="fill:none; 
stroke:#585D84; stroke-width:0.0500; stroke-opacity:1; 
stroke-linecap:round; stroke-linejoin:round;fill:none"
d="M 2.5750,2.5750
16.5750,2.5750
16.5750,16.5750
2.5750,16.5750
Z" /> 
</g>
<g style="fill:none; 
stroke:#585D84; stroke-width:0.0212; stroke-opacity:1; 
stroke-linecap:round; stroke-linejoin:round;">
<circle cx="4.4950" cy="9.5750" r="0.8500" /> 
</g>
<g style="fill:none; 
stroke:#585D84; stroke-width:0.0212; stroke-opacity:1; 
stroke-linecap:round; stroke-linejoin:round;">
<circle cx="5.7650" cy="12.1150" r="1.5000" /> 
</g>
<g style="fill:none; 
stroke:#585D84; stroke-width:0.0212; stroke-opacity:1; 
stroke-linecap:round; stroke-linejoin:round;">
<circle cx="9.5750" cy="9.5750" r="2.0000" /> 
</g>
<g style="fill:none; 
stroke:#585D84; stroke-width:0.0212; stroke-opacity:1; 
stroke-linecap:round; stroke-linejoin:round;">
<circle cx="12.1150" cy="14.6550" r="1.5000" /> 
</g>
<g style="fill:none; 
stroke:#585D84; stroke-width:0.0212; stroke-opacity:1; 
stroke-linecap:round; stroke-linejoin:round;">
<circle cx="14.6550" cy="9.5750" r="0.8500" /> 
<path style="fill:none; 
stroke:#C2C2C2; stroke-width:0.1000; stroke-opacity:1; 
stroke-linecap:round; stroke-linejoin:round;fill:none"
d="M 0.0500,0.0500
19.1000,0.0500
19.1000,19.1000
0.0500,19.1000
Z" /> 
</g> 
</svg>
