<svg xmlns="http://www.w3.org/2000/svg" width="67.68" height="86.976" viewBox="0 0 17.907 23.012">
    <rect width="5.08" height="10.16" x="6.413" y="6.747" rx="0" style="fill:#ffffc2;fill-opacity:1;stroke:none"/>
    <rect width="5.08" height="10.16" x="6.413" y="6.747" rx="0" style="fill:none;stroke:#840000;stroke-width:.254;stroke-opacity:1;stroke-linecap:round;stroke-linejoin:round"/>
    <g style="fill:none;stroke:#840000;stroke-width:.1524;stroke-opacity:1;stroke-linecap:round;stroke-linejoin:round">
        <rect width="1.27" height=".254" x="6.413" y="7.889" rx="0"/>
        <rect width="1.27" height=".254" x="6.413" y="10.43" rx="0"/>
        <rect width="1.27" height=".254" x="6.413" y="12.97" rx="0"/>
        <rect width="1.27" height=".254" x="6.413" y="15.509" rx="0"/>
        <path d="M7.938 17.669H9.97" style="stroke:#840000;stroke-width:.1524;stroke-opacity:1;stroke-linecap:round;stroke-linejoin:round;fill:none"/>
    </g>
    <g class="stroked-text" style="fill:none;stroke:#840000;stroke-width:.0953;stroke-opacity:1;stroke-linecap:round;stroke-linejoin:round">
        <path d="M7.765 17.459v-.381M7.765 17.078l.127.272M7.892 17.35l.127-.272M8.02 17.078v.38M8.255 17.459l-.036-.018M8.219 17.44l-.018-.018M8.2 17.423l-.018-.037M8.182 17.386v-.109M8.182 17.277l.019-.036M8.2 17.241l.019-.018M8.219 17.223l.036-.018M8.255 17.205h.054M8.31 17.205l.036.018M8.346 17.223l.018.018M8.364 17.241l.018.036M8.382 17.277v.11M8.382 17.386l-.018.037M8.364 17.423l-.018.018M8.346 17.44l-.037.019M8.31 17.459h-.055M8.709 17.205v.254M8.545 17.205v.2M8.545 17.404l.018.037M8.563 17.44l.037.019M8.6 17.459h.054M8.654 17.459l.036-.018M8.69 17.44l.019-.018M8.89 17.205v.254M8.89 17.241l.018-.018M8.908 17.223l.036-.018M8.944 17.205H9M8.999 17.205l.036.018M9.035 17.223l.018.036M9.053 17.26v.199M9.18 17.205h.145M9.235 17.078v.326M9.235 17.404l.018.037M9.253 17.44l.036.019M9.29 17.459h.035M9.452 17.459v-.254M9.452 17.078l-.018.018M9.434 17.096l.018.018M9.452 17.114l.018-.018M9.47 17.096l-.018-.018M9.452 17.078v.036M9.634 17.205v.254M9.634 17.241l.018-.018M9.652 17.223l.036-.018M9.688 17.205h.055M9.743 17.205l.036.018M9.779 17.223l.018.036M9.797 17.26v.199M10.142 17.205v.308M10.142 17.513l-.018.036M10.124 17.55l-.019.018M10.106 17.568l-.037.018M10.07 17.586h-.055M10.015 17.586l-.037-.018M10.142 17.44l-.037.019M10.106 17.459h-.073M10.033 17.459l-.036-.018M9.997 17.44l-.018-.018M9.979 17.423l-.019-.037M9.96 17.386v-.109M9.96 17.277l.018-.036M9.979 17.241l.018-.018M9.997 17.223l.036-.018M10.033 17.205h.072M10.106 17.205l.036.018"/>
    </g>
    <path d="M6.414 8.017h-3.81" style="fill:none;stroke:#840000;stroke-width:.1524;stroke-opacity:1;stroke-linecap:round;stroke-linejoin:round"/>
    <g class="stroked-text" style="fill:none;stroke:#006464;stroke-width:.1524;stroke-opacity:1;stroke-linecap:round;stroke-linejoin:round">
        <path d="m8.558 7.51-.097-.047M8.461 7.463h-.145M8.316 7.463l-.145.048M8.17 7.51l-.096.098M8.074 7.608l-.048.096M8.026 7.704l-.049.194M7.977 7.898v.145M7.977 8.043l.049.194M8.026 8.237l.048.096M8.074 8.333l.097.097M8.17 8.43l.146.049M8.316 8.479h.097M8.413 8.479l.145-.049M8.558 8.43l.048-.048M8.606 8.382v-.339M8.606 8.043h-.193M9.042 8.479V7.463M9.042 7.463l.58 1.016M9.622 8.479V7.463M10.106 8.479V7.463M10.106 7.463h.242M10.348 7.463l.145.048M10.493 7.51l.097.098M10.59 7.608l.048.096M10.638 7.704l.049.194M10.687 7.898v.145M10.687 8.043l-.049.194M10.638 8.237l-.048.096M10.59 8.333l-.097.097M10.493 8.43l-.145.049M10.348 8.479h-.242"/>
    </g>
    <g class="stroked-text" style="fill:none;stroke:#a90000;stroke-width:.1524;stroke-opacity:1;stroke-linecap:round;stroke-linejoin:round">
        <path d="M4.871 7.599h-.725M4.509 7.599v-1.27M4.509 6.329l-.121.182M4.388 6.51l-.121.121M4.267 6.631l-.121.06"/>
    </g>
    <path d="M6.414 10.557h-3.81" style="fill:none;stroke:#840000;stroke-width:.1524;stroke-opacity:1;stroke-linecap:round;stroke-linejoin:round"/>
    <g class="stroked-text" style="fill:none;stroke:#006464;stroke-width:.1524;stroke-opacity:1;stroke-linecap:round;stroke-linejoin:round">
        <path d="m7.88 10.003.34 1.015M8.22 11.019l.338-1.017M9.477 10.922l-.048.048M9.429 10.97l-.146.048M9.284 11.019h-.097M9.187 11.019l-.145-.049M9.042 10.97l-.097-.097M8.945 10.873l-.049-.096M8.897 10.777l-.049-.194M8.848 10.583v-.145M8.848 10.438l.048-.194M8.897 10.244l.048-.096M8.945 10.148l.097-.097M9.042 10.05l.145-.048M9.187 10.003h.097M9.284 10.003l.145.048M9.429 10.05l.048.05M10.493 10.922l-.048.048M10.445 10.97l-.146.048M10.3 11.019h-.097M10.203 11.019l-.145-.049M10.058 10.97l-.097-.097M9.96 10.873l-.048-.096M9.913 10.777l-.049-.194M9.864 10.583v-.145M9.864 10.438l.048-.194M9.913 10.244l.048-.096M9.96 10.148l.098-.097M10.058 10.05l.145-.048M10.203 10.003h.097M10.3 10.003l.145.048M10.445 10.05l.048.05"/>
    </g>
    <g class="stroked-text" style="fill:none;stroke:#a90000;stroke-width:.1524;stroke-opacity:1;stroke-linecap:round;stroke-linejoin:round">
        <path d="m4.146 8.99.06-.06M4.206 8.93l.121-.061M4.327 8.869h.303M4.63 8.869l.12.06M4.75 8.93l.06.06M4.81 8.99l.061.12M4.871 9.11v.122M4.871 9.232l-.06.181M4.81 9.413l-.725.726M4.085 10.139h.786"/>
    </g>
    <path d="M6.414 13.097h-3.81" style="fill:none;stroke:#840000;stroke-width:.1524;stroke-opacity:1;stroke-linecap:round;stroke-linejoin:round"/>
    <g class="stroked-text" style="fill:none;stroke:#006464;stroke-width:.1524;stroke-opacity:1;stroke-linecap:round;stroke-linejoin:round">
        <path d="m7.977 13.51.145.049M8.122 13.559h.242M8.364 13.559l.097-.049M8.461 13.51l.048-.048M8.51 13.462l.048-.097M8.558 13.365v-.097M8.558 13.268l-.049-.097M8.51 13.172l-.049-.049M8.461 13.123l-.097-.048M8.364 13.075l-.193-.049M8.17 13.026l-.096-.048M8.074 12.978l-.048-.048M8.026 12.93l-.049-.097M7.977 12.833v-.097M7.977 12.736l.049-.097M8.026 12.64l.048-.05M8.074 12.59l.097-.047M8.17 12.543h.243M8.413 12.543l.145.048M8.993 13.559v-1.016M8.993 12.543h.242M9.235 12.543l.145.048M9.38 12.59l.097.098M9.477 12.688l.048.096M9.525 12.784l.049.194M9.574 12.978v.145M9.574 13.123l-.049.194M9.525 13.317l-.048.096M9.477 13.413l-.097.097M9.38 13.51l-.145.049M9.235 13.559h-.242M9.96 13.268h.485M9.864 13.559l.339-1.016M10.203 12.543l.338 1.016"/>
    </g>
    <g class="stroked-text" style="fill:none;stroke:#a90000;stroke-width:.1524;stroke-opacity:1;stroke-linecap:round;stroke-linejoin:round">
        <path d="M4.085 11.409h.786M4.871 11.409l-.423.484M4.448 11.893h.181M4.63 11.893l.12.06M4.75 11.953l.06.06M4.81 12.014l.061.12M4.871 12.135v.302M4.871 12.437l-.06.121M4.81 12.558l-.06.06M4.75 12.619l-.12.06M4.63 12.679h-.363M4.267 12.679l-.121-.06M4.146 12.619l-.06-.06"/>
    </g>
    <path d="M6.414 15.637h-3.81" style="fill:none;stroke:#840000;stroke-width:.1524;stroke-opacity:1;stroke-linecap:round;stroke-linejoin:round"/>
    <g class="stroked-text" style="fill:none;stroke:#006464;stroke-width:.1524;stroke-opacity:1;stroke-linecap:round;stroke-linejoin:round">
        <path d="m7.977 16.05.145.049M8.122 16.099h.242M8.364 16.099l.097-.049M8.461 16.05l.048-.048M8.51 16.002l.048-.097M8.558 15.905v-.097M8.558 15.808l-.049-.097M8.51 15.712l-.049-.049M8.461 15.663l-.097-.048M8.364 15.615l-.193-.049M8.17 15.566l-.096-.048M8.074 15.518l-.048-.048M8.026 15.47l-.049-.097M7.977 15.373v-.097M7.977 15.276l.049-.097M8.026 15.18l.048-.05M8.074 15.13l.097-.048M8.17 15.083h.243M8.413 15.083l.145.048M9.574 16.002l-.049.048M9.525 16.05l-.145.049M9.38 16.099h-.097M9.283 16.099l-.145-.049M9.138 16.05l-.097-.097M9.042 15.953l-.049-.096M8.993 15.857l-.048-.194M8.945 15.663v-.145M8.945 15.518l.048-.194M8.993 15.324l.048-.096M9.042 15.228l.096-.097M9.138 15.13l.145-.048M9.283 15.083h.097M9.38 15.083l.145.048M9.525 15.13l.049.05M10.493 16.099h-.484M10.01 16.099v-1.017"/>
    </g>
    <g class="stroked-text" style="fill:none;stroke:#a90000;stroke-width:.1524;stroke-opacity:1;stroke-linecap:round;stroke-linejoin:round">
        <path d="M4.75 14.372v.847M4.448 13.889l-.302.907M4.146 14.796h.786"/>
    </g>
    <path d="M8.954 17.669v3.047" style="fill:none;stroke:#840000;stroke-width:.1524;stroke-opacity:1;stroke-linecap:round;stroke-linejoin:round"/>
    <g style="fill:none;stroke:#a90000;stroke-width:.1524;stroke-opacity:1;stroke-linecap:round;stroke-linejoin:round">
        <g class="stroked-text">
            <path d="M8.536 20.25h-1.27M7.266 20.25l.907-.423M8.173 19.827l-.907-.423M7.266 19.404h1.27M8.536 18.8h-1.27M7.266 18.8v-.484M7.266 18.316l.06-.121M7.327 18.195l.06-.06M7.387 18.134l.12-.06M7.508 18.074h.181M7.69 18.074l.12.06M7.81 18.134l.06.06M7.87 18.195l.061.12M7.931 18.316v.483"/>
        </g>
    </g>
    <g style="fill:none;stroke:#006464;stroke-width:.1524;stroke-opacity:1;stroke-linecap:round;stroke-linejoin:round">
        <g class="stroked-text">
            <path d="M-.363-9.26v.907M-.363-8.353l-.06.181M-.423-8.171l-.121.12M-.544-8.05l-.182.06M-.726-7.99h-.12M.423-8.111l.06.06M.484-8.05l-.06.06M.423-7.99l-.06-.06M.363-8.05l.06-.061M.423-8.111v.12M.181-9.2l.121-.06M.302-9.26h.303M.605-9.26l.12.06M.726-9.2l.06.121M.786-9.079v.121M.786-8.958l-.06.121M.726-8.837l-.06.06M.665-8.776l-.12.06M.544-8.716l-.06.06M.484-8.655l-.06.12M.423-8.534v.06"/>
        </g>
        <g class="stroked-text">
            <path d="m-6.32-5.825-.06.06M-6.38-5.765l-.182.06M-6.562-5.704h-.12M-6.682-5.704l-.182-.06M-6.864-5.765l-.12-.12M-6.985-5.885l-.06-.122M-7.045-6.006l-.06-.242M-7.106-6.248v-.182M-7.106-6.43l.06-.242M-7.045-6.672l.06-.12M-6.985-6.793l.121-.12M-6.864-6.914l.181-.06M-6.682-6.974h.12M-6.562-6.974l.182.06M-6.38-6.914l.06.06M-5.594-5.704l-.12-.06M-5.715-5.765l-.06-.06M-5.775-5.825l-.06-.121M-5.836-5.946v-.363M-5.836-6.309l.06-.12M-5.775-6.43l.06-.06M-5.715-6.49l.121-.06M-5.594-6.55h.182M-5.412-6.55l.12.06M-5.292-6.49l.06.06M-5.231-6.43l.06.121M-5.17-6.309v.363M-5.17-5.946l-.061.121M-5.231-5.825l-.06.06M-5.292-5.765l-.12.06M-5.412-5.704h-.182M-4.626-6.55v.846M-4.626-6.43l.06-.06M-4.566-6.49l.121-.06M-4.445-6.55h.182M-4.263-6.55l.12.06M-4.143-6.49l.06.12M-4.082-6.37v.666M-3.477-6.55v.846M-3.477-6.43l.06-.06M-3.417-6.49l.121-.06M-3.296-6.55h.181M-3.114-6.55l.12.06M-2.994-6.49l.06.12M-2.933-6.37v.666M-2.63-5.583h.967M-.514-5.583l-.121-.06M-.635-5.644l-.121-.12M-.756-5.765l-.181-.181M-.937-5.946l-.121-.06M-1.058-6.006h-.121M-1.119-5.704l-.12-.06M-1.24-5.765l-.12-.12M-1.36-5.885l-.061-.242M-1.421-6.127v-.424M-1.421-6.55l.06-.243M-1.36-6.793l.12-.12M-1.24-6.914l.121-.06M-1.119-6.974h.242M-.877-6.974l.121.06M-.756-6.914l.12.121M-.635-6.793l.06.242M-.575-6.55v.423M-.575-6.127l-.06.241M-.635-5.885l-.121.12M-.756-5.765l-.121.06M-.877-5.704h-.242M-.151-6.55l.242.846M.09-5.704l.243-.605M.333-6.309l.241.605M.574-5.704l.242-.847M1.3-5.704v-.847M1.3-6.974l-.06.06M1.24-6.914l.06.06M1.3-6.853l.06-.06M1.36-6.914l-.06-.06M1.3-6.974v.12M1.905-5.704v-.847M1.905-6.974l-.06.06M1.845-6.914l.06.06M1.905-6.853l.06-.06M1.965-6.914l-.06-.06M1.905-6.974v.12M3.054-5.765l-.12.06M2.933-5.704h-.242M2.691-5.704l-.12-.06M2.57-5.765l-.06-.06M2.51-5.825l-.06-.121M2.45-5.946v-.363M2.45-6.309l.06-.12M2.51-6.43l.06-.06M2.57-6.49l.121-.06M2.691-6.55h.242M2.933-6.55l.121.06M3.296-5.583h.968M4.566-5.704v-1.27M5.11-6.853l.06-.06M5.17-6.914l.122-.06M5.292-6.974h.302M5.594-6.974l.121.06M5.715-6.914l.06.06M5.776-6.853l.06.12M5.836-6.732v.12M5.836-6.611l-.06.181M5.776-6.43l-.726.726M5.05-5.704h.786M7.106-5.825l-.06.06M7.046-5.765l-.182.06M6.864-5.704h-.12M6.743-5.704l-.181-.06M6.562-5.765l-.121-.12M6.44-5.885l-.06-.122M6.38-6.006l-.06-.242M6.32-6.248v-.182M6.32-6.43l.06-.242M6.38-6.672l.06-.12M6.44-6.793l.122-.12M6.562-6.914l.181-.06M6.743-6.974h.121M6.864-6.974l.181.06M7.046-6.914l.06.06"/>
        </g>
    </g>
</svg>
