<svg xmlns="http://www.w3.org/2000/svg" width="104.928" height="86.976" viewBox="0 0 27.762 23.012">
    <rect width="5.08" height="10.16" x="11.341" y="6.747" rx="0" style="fill:#ffffc2;fill-opacity:1;stroke:none"/>
    <rect width="5.08" height="10.16" x="11.341" y="6.747" rx="0" style="fill:none;stroke:#840000;stroke-width:.254;stroke-opacity:1;stroke-linecap:round;stroke-linejoin:round"/>
    <g style="fill:none;stroke:#840000;stroke-width:.1524;stroke-opacity:1;stroke-linecap:round;stroke-linejoin:round">
        <rect width="1.27" height=".254" x="11.341" y="7.889" rx="0"/>
        <rect width="1.27" height=".254" x="11.341" y="10.43" rx="0"/>
        <rect width="1.27" height=".254" x="11.341" y="12.97" rx="0"/>
        <rect width="1.27" height=".254" x="11.341" y="15.509" rx="0"/>
        <path d="M12.865 17.669h2.032" style="stroke:#840000;stroke-width:.1524;stroke-opacity:1;stroke-linecap:round;stroke-linejoin:round;fill:none"/>
    </g>
    <g class="stroked-text" style="fill:none;stroke:#840000;stroke-width:.0953;stroke-opacity:1;stroke-linecap:round;stroke-linejoin:round">
        <path d="M12.693 17.459v-.381M12.693 17.078l.127.272M12.82 17.35l.127-.272M12.947 17.078v.38M13.183 17.459l-.037-.018M13.146 17.44l-.018-.018M13.128 17.423l-.018-.037M13.11 17.386v-.109M13.11 17.277l.018-.036M13.128 17.241l.018-.018M13.146 17.223l.037-.018M13.183 17.205h.054M13.237 17.205l.036.018M13.273 17.223l.018.018M13.292 17.241l.018.036M13.31 17.277v.11M13.31 17.386l-.019.037M13.292 17.423l-.019.018M13.273 17.44l-.036.019M13.237 17.459h-.054M13.636 17.205v.254M13.473 17.205v.2M13.473 17.404l.018.037M13.491 17.44l.036.019M13.527 17.459h.055M13.582 17.459l.036-.018M13.618 17.44l.018-.018M13.818 17.205v.254M13.818 17.241l.018-.018M13.836 17.223l.036-.018M13.872 17.205h.054M13.926 17.205l.037.018M13.963 17.223l.018.036M13.98 17.26v.199M14.108 17.205h.145M14.162 17.078v.326M14.162 17.404l.018.037M14.18 17.44l.037.019M14.217 17.459h.036M14.38 17.459v-.254M14.38 17.078l-.018.018M14.362 17.096l.018.018M14.38 17.114l.018-.018M14.398 17.096l-.018-.018M14.38 17.078v.036M14.561 17.205v.254M14.561 17.241l.018-.018M14.58 17.223l.036-.018M14.616 17.205h.054M14.67 17.205l.037.018M14.707 17.223l.018.036M14.725 17.26v.199M15.07 17.205v.308M15.07 17.513l-.019.036M15.051 17.55l-.018.018M15.033 17.568l-.036.018M14.997 17.586h-.055M14.942 17.586l-.036-.018M15.07 17.44l-.037.019M15.033 17.459h-.072M14.96 17.459l-.036-.018M14.924 17.44l-.018-.018M14.906 17.423l-.018-.037M14.888 17.386v-.109M14.888 17.277l.018-.036M14.906 17.241l.018-.018M14.924 17.223l.037-.018M14.96 17.205h.073M15.033 17.205l.036.018"/>
    </g>
    <path d="M11.341 8.017h-3.81" style="fill:none;stroke:#840000;stroke-width:.1524;stroke-opacity:1;stroke-linecap:round;stroke-linejoin:round"/>
    <g class="stroked-text" style="fill:none;stroke:#006464;stroke-width:.1524;stroke-opacity:1;stroke-linecap:round;stroke-linejoin:round">
        <path d="M12.953 8.479V7.463M12.953 7.463h.242M13.195 7.463l.145.048M13.34 7.51l.097.098M13.437 7.608l.048.096M13.485 7.704l.049.194M13.534 7.898v.145M13.534 8.043l-.049.194M13.485 8.237l-.048.096M13.437 8.333l-.097.097M13.34 8.43l-.145.049M13.195 8.479h-.242M14.501 8.479h-.58M14.211 8.479V7.463M14.211 7.463l-.097.145M14.114 7.608l-.097.096M14.018 7.704l-.097.049"/>
    </g>
    <g class="stroked-text" style="fill:none;stroke:#a90000;stroke-width:.1524;stroke-opacity:1;stroke-linecap:round;stroke-linejoin:round">
        <path d="M9.799 7.599h-.726M9.436 7.599v-1.27M9.436 6.329l-.12.182M9.315 6.51l-.12.121M9.194 6.631l-.12.06"/>
    </g>
    <path d="M11.341 10.557h-3.81" style="fill:none;stroke:#840000;stroke-width:.1524;stroke-opacity:1;stroke-linecap:round;stroke-linejoin:round"/>
    <g class="stroked-text" style="fill:none;stroke:#006464;stroke-width:.1524;stroke-opacity:1;stroke-linecap:round;stroke-linejoin:round">
        <path d="M12.953 11.019v-1.017M12.953 10.003h.242M13.195 10.003l.145.048M13.34 10.05l.097.098M13.437 10.148l.048.096M13.485 10.244l.049.194M13.534 10.438v.145M13.534 10.583l-.049.194M13.485 10.777l-.048.096M13.437 10.873l-.097.097M13.34 10.97l-.145.048M13.195 11.019h-.242M13.92 10.1l.05-.05M13.97 10.05l.096-.048M14.066 10.003h.242M14.308 10.003l.097.048M14.405 10.05l.048.05M14.453 10.1l.048.096M14.501 10.196v.097M14.501 10.293l-.048.145M14.453 10.438l-.58.58M13.872 11.019h.63"/>
    </g>
    <g class="stroked-text" style="fill:none;stroke:#a90000;stroke-width:.1524;stroke-opacity:1;stroke-linecap:round;stroke-linejoin:round">
        <path d="m9.073 8.99.06-.06M9.134 8.93l.12-.061M9.255 8.869h.302M9.557 8.869l.121.06M9.678 8.93l.06.06M9.739 8.99l.06.12M9.799 9.11v.122M9.799 9.232l-.06.181M9.739 9.413l-.726.726M9.013 10.139h.786"/>
    </g>
    <path d="M11.341 13.097h-3.81" style="fill:none;stroke:#840000;stroke-width:.1524;stroke-opacity:1;stroke-linecap:round;stroke-linejoin:round"/>
    <g class="stroked-text" style="fill:none;stroke:#006464;stroke-width:.1524;stroke-opacity:1;stroke-linecap:round;stroke-linejoin:round">
        <path d="m12.808 12.543.339 1.016M13.147 13.559l.338-1.016M14.405 13.462l-.049.048M14.356 13.51l-.145.049M14.211 13.559h-.097M14.114 13.559l-.145-.049M13.97 13.51l-.098-.097M13.872 13.413l-.048-.096M13.824 13.317l-.048-.194M13.776 13.123v-.145M13.776 12.978l.048-.194M13.824 12.784l.048-.096M13.872 12.688l.097-.097M13.97 12.59l.144-.047M14.114 12.543h.097M14.211 12.543l.145.048M14.356 12.59l.049.05M15.42 13.462l-.048.048M15.372 13.51l-.145.049M15.227 13.559h-.097M15.13 13.559l-.145-.049M14.985 13.51l-.097-.097M14.888 13.413l-.048-.096M14.84 13.317l-.048-.194M14.792 13.123v-.145M14.792 12.978l.048-.194M14.84 12.784l.048-.096M14.888 12.688l.097-.097M14.985 12.59l.145-.047M15.13 12.543h.097M15.227 12.543l.145.048M15.372 12.59l.049.05"/>
    </g>
    <g class="stroked-text" style="fill:none;stroke:#a90000;stroke-width:.1524;stroke-opacity:1;stroke-linecap:round;stroke-linejoin:round">
        <path d="M9.013 11.409h.786M9.799 11.409l-.423.484M9.376 11.893h.181M9.557 11.893l.121.06M9.678 11.953l.06.06M9.739 12.014l.06.12M9.799 12.135v.302M9.799 12.437l-.06.121M9.739 12.558l-.061.06M9.678 12.619l-.12.06M9.557 12.679h-.363M9.194 12.679l-.12-.06M9.073 12.619l-.06-.06"/>
    </g>
    <path d="M11.341 15.637h-3.81" style="fill:none;stroke:#840000;stroke-width:.1524;stroke-opacity:1;stroke-linecap:round;stroke-linejoin:round"/>
    <g class="stroked-text" style="fill:none;stroke:#006464;stroke-width:.1524;stroke-opacity:1;stroke-linecap:round;stroke-linejoin:round">
        <path d="m13.485 15.13-.096-.048M13.389 15.083h-.146M13.243 15.083l-.145.048M13.098 15.13l-.097.098M13.002 15.228l-.049.096M12.953 15.324l-.048.194M12.905 15.518v.145M12.905 15.663l.048.194M12.953 15.857l.049.096M13.002 15.953l.096.097M13.098 16.05l.145.049M13.243 16.099h.097M13.34 16.099l.145-.049M13.485 16.05l.049-.048M13.534 16.002v-.339M13.534 15.663h-.194M13.97 16.099v-1.017M13.97 15.083l.58 1.016M14.55 16.099v-1.017M15.034 16.099v-1.017M15.034 15.083h.241M15.276 15.083l.145.048M15.42 15.13l.097.098M15.517 15.228l.049.096M15.566 15.324l.048.194M15.614 15.518v.145M15.614 15.663l-.048.194M15.566 15.857l-.049.096M15.517 15.953l-.096.097M15.42 16.05l-.145.049M15.276 16.099h-.242"/>
    </g>
    <g class="stroked-text" style="fill:none;stroke:#a90000;stroke-width:.1524;stroke-opacity:1;stroke-linecap:round;stroke-linejoin:round">
        <path d="M9.678 14.372v.847M9.376 13.889l-.303.907M9.073 14.796h.786"/>
    </g>
    <path d="M13.881 17.669v3.047" style="fill:none;stroke:#840000;stroke-width:.1524;stroke-opacity:1;stroke-linecap:round;stroke-linejoin:round"/>
    <g style="fill:none;stroke:#a90000;stroke-width:.1524;stroke-opacity:1;stroke-linecap:round;stroke-linejoin:round">
        <g class="stroked-text">
            <path d="M13.464 20.25h-1.27M12.194 20.25l.907-.423M13.1 19.827l-.906-.423M12.194 19.404h1.27M13.464 18.8h-1.27M12.194 18.8v-.484M12.194 18.316l.06-.121M12.254 18.195l.06-.06M12.315 18.134l.12-.06M12.436 18.074h.181M12.617 18.074l.12.06M12.738 18.134l.06.06M12.798 18.195l.06.12M12.859 18.316v.483"/>
        </g>
    </g>
    <g style="fill:none;stroke:#006464;stroke-width:.1524;stroke-opacity:1;stroke-linecap:round;stroke-linejoin:round">
        <g class="stroked-text">
            <path d="M-.363-9.26v.907M-.363-8.353l-.06.181M-.423-8.171l-.121.12M-.544-8.05l-.182.06M-.726-7.99h-.12M.423-8.111l.06.06M.484-8.05l-.06.06M.423-7.99l-.06-.06M.363-8.05l.06-.061M.423-8.111v.12M.181-9.2l.121-.06M.302-9.26h.303M.605-9.26l.12.06M.726-9.2l.06.121M.786-9.079v.121M.786-8.958l-.06.121M.726-8.837l-.06.06M.665-8.776l-.12.06M.544-8.716l-.06.06M.484-8.655l-.06.12M.423-8.534v.06"/>
        </g>
        <g class="stroked-text">
            <path d="m-10.432-5.825-.06.06M-10.492-5.765l-.182.06M-10.674-5.704h-.12M-10.795-5.704l-.181-.06M-10.976-5.765l-.121-.12M-11.097-5.885l-.06-.122M-11.158-6.006l-.06-.242M-11.218-6.248v-.182M-11.218-6.43l.06-.242M-11.158-6.672l.06-.12M-11.097-6.793l.12-.12M-10.976-6.914l.181-.06M-10.795-6.974h.121M-10.674-6.974l.182.06M-10.492-6.914l.06.06M-9.706-5.704l-.121-.06M-9.827-5.765l-.06-.06M-9.888-5.825l-.06-.121M-9.948-5.946v-.363M-9.948-6.309l.06-.12M-9.888-6.43l.06-.06M-9.827-6.49l.12-.06M-9.706-6.55h.181M-9.525-6.55l.121.06M-9.404-6.49l.06.06M-9.343-6.43l.06.121M-9.283-6.309v.363M-9.283-5.946l-.06.121M-9.343-5.825l-.06.06M-9.404-5.765l-.12.06M-9.525-5.704h-.181M-8.739-6.55v.846M-8.739-6.43l.06-.06M-8.678-6.49l.12-.06M-8.557-6.55h.181M-8.376-6.55l.121.06M-8.255-6.49l.06.12M-8.194-6.37v.666M-7.59-6.55v.846M-7.59-6.43l.06-.06M-7.53-6.49l.122-.06M-7.408-6.55h.181M-7.227-6.55l.121.06M-7.106-6.49l.06.12M-7.045-6.37v.666M-5.957-5.765l-.12.06M-6.078-5.704h-.242M-6.32-5.704l-.12-.06M-6.44-5.765l-.061-.12M-6.501-5.885v-.484M-6.501-6.37l.06-.12M-6.44-6.49l.12-.06M-6.32-6.55h.242M-6.078-6.55l.121.06M-5.957-6.49l.06.12M-5.896-6.37v.122M-5.896-6.248l-.605.12M-4.808-5.765l-.12.06M-4.929-5.704h-.242M-5.17-5.704l-.122-.06M-5.292-5.765l-.06-.06M-5.352-5.825l-.06-.121M-5.412-5.946v-.363M-5.412-6.309l.06-.12M-5.352-6.43l.06-.06M-5.292-6.49l.121-.06M-5.17-6.55h.241M-4.929-6.55l.121.06M-4.445-6.55h.484M-4.263-6.974v1.088M-4.263-5.885l.06.12M-4.203-5.765l.121.06M-4.082-5.704h.12M-3.356-5.704l-.121-.06M-3.477-5.765l-.06-.06M-3.538-5.825l-.06-.121M-3.598-5.946v-.363M-3.598-6.309l.06-.12M-3.538-6.43l.06-.06M-3.477-6.49l.12-.06M-3.356-6.55h.181M-3.175-6.55l.121.06M-3.054-6.49l.06.06M-2.993-6.43l.06.121M-2.933-6.309v.363M-2.933-5.946l-.06.121M-2.993-5.825l-.061.06M-3.054-5.765l-.12.06M-3.175-5.704h-.181M-2.389-5.704v-.847M-2.389-6.309l.06-.12M-2.328-6.43l.06-.06M-2.268-6.49l.121-.06M-2.147-6.55h.121M-1.905-5.583h.968M.03-6.914l-.12-.06M-.09-6.974h-.182M-.272-6.974l-.181.06M-.453-6.914l-.121.121M-.574-6.793l-.061.121M-.635-6.672l-.06.242M-.695-6.43v.182M-.695-6.248l.06.242M-.635-6.006l.06.12M-.574-5.885l.12.12M-.453-5.765l.18.06M-.272-5.704h.12M-.151-5.704l.181-.06M.03-5.765l.06-.06M.09-5.825v-.423M.09-6.248H-.15M.635-5.704v-.847M.635-6.309l.06-.12M.695-6.43l.06-.06M.756-6.49l.12-.06M.877-6.55h.12M1.603-5.704l-.121-.06M1.482-5.765l-.06-.06M1.421-5.825l-.06-.121M1.36-5.946v-.363M1.36-6.309l.061-.12M1.421-6.43l.06-.06M1.482-6.49l.12-.06M1.603-6.55h.181M1.784-6.55l.12.06M1.905-6.49l.06.06M1.965-6.43l.06.121M2.026-6.309v.363M2.026-5.946l-.06.121M1.965-5.825l-.06.06M1.905-5.765l-.121.06M1.784-5.704h-.181M2.45-6.55l.302.846M2.752-5.704l.302-.847M4.021-5.765l-.12.06M3.9-5.704H3.66M3.659-5.704l-.121-.06M3.538-5.765l-.06-.12M3.477-5.885v-.484M3.477-6.37l.06-.12M3.538-6.49l.12-.06M3.659-6.55H3.9M3.9-6.55l.121.06M4.021-6.49l.061.12M4.082-6.37v.122M4.082-6.248l-.605.12M4.324-5.583h.968M5.594-5.704v-1.27M5.594-6.974h.302M5.896-6.974l.182.06M6.078-6.914l.12.121M6.199-6.793l.06.121M6.26-6.672l.06.242M6.32-6.43v.182M6.32-6.248l-.06.242M6.26-6.006l-.061.12M6.199-5.885l-.121.12M6.078-5.765l-.182.06M5.896-5.704h-.302M6.864-5.704v-.847M6.864-6.974l-.06.06M6.804-6.914l.06.06M6.864-6.853l.06-.06M6.924-6.914l-.06-.06M6.864-6.974v.12M8.013-6.55v1.027M8.013-5.523l-.06.121M7.953-5.402l-.06.06M7.892-5.341l-.12.06M7.771-5.28H7.59M7.59-5.28l-.121-.061M8.013-5.765l-.12.06M7.892-5.704H7.65M7.65-5.704l-.12-.06M7.53-5.765l-.061-.06M7.469-5.825l-.06-.121M7.408-5.946v-.363M7.408-6.309l.06-.12M7.469-6.43l.06-.06M7.53-6.49l.12-.06M7.65-6.55h.242M7.892-6.55l.121.06M8.618-5.704v-.847M8.618-6.974l-.06.06M8.557-6.914l.06.06M8.618-6.853l.06-.06M8.678-6.914l-.06-.06M8.618-6.974v.12M9.041-6.55h.484M9.223-6.974v1.088M9.223-5.885l.06.12M9.283-5.765l.121.06M9.404-5.704h.12M10.493-5.704v-.665M10.493-6.37l-.061-.12M10.432-6.49l-.12-.06M10.311-6.55h-.242M10.07-6.55l-.122.06M10.493-5.765l-.121.06M10.372-5.704h-.303M10.07-5.704l-.122-.06M9.948-5.765l-.06-.12M9.888-5.885v-.122M9.888-6.006l.06-.121M9.948-6.127l.121-.06M10.07-6.188h.302M10.372-6.188l.12-.06M11.279-5.704l-.121-.06M11.158-5.765l-.06-.12M11.097-5.885v-1.09"/>
        </g>
    </g>
</svg>
