<svg xmlns="http://www.w3.org/2000/svg" width="76.128" height="86.976" viewBox="0 0 20.142 23.012">
    <rect width="5.08" height="10.16" x="7.531" y="6.747" rx="0" style="fill:#ffffc2;fill-opacity:1;stroke:none"/>
    <rect width="5.08" height="10.16" x="7.531" y="6.747" rx="0" style="fill:none;stroke:#840000;stroke-width:.254;stroke-opacity:1;stroke-linecap:round;stroke-linejoin:round"/>
    <g style="fill:none;stroke:#840000;stroke-width:.1524;stroke-opacity:1;stroke-linecap:round;stroke-linejoin:round">
        <rect width="1.27" height=".254" x="7.531" y="7.889" rx="0"/>
        <rect width="1.27" height=".254" x="7.531" y="10.43" rx="0"/>
        <rect width="1.27" height=".254" x="7.531" y="12.97" rx="0"/>
        <rect width="1.27" height=".254" x="7.531" y="15.509" rx="0"/>
        <path d="M9.055 17.669h2.032" style="stroke:#840000;stroke-width:.1524;stroke-opacity:1;stroke-linecap:round;stroke-linejoin:round;fill:none"/>
    </g>
    <g class="stroked-text" style="fill:none;stroke:#840000;stroke-width:.0953;stroke-opacity:1;stroke-linecap:round;stroke-linejoin:round">
        <path d="M8.883 17.459v-.381M8.883 17.078l.127.272M9.01 17.35l.127-.272M9.137 17.078v.38M9.373 17.459l-.037-.018M9.336 17.44l-.018-.018M9.318 17.423l-.018-.037M9.3 17.386v-.109M9.3 17.277l.018-.036M9.318 17.241l.018-.018M9.336 17.223l.037-.018M9.373 17.205h.054M9.427 17.205l.036.018M9.463 17.223l.019.018M9.482 17.241l.018.036M9.5 17.277v.11M9.5 17.386l-.018.037M9.482 17.423l-.019.018M9.463 17.44l-.036.019M9.427 17.459h-.054M9.826 17.205v.254M9.663 17.205v.2M9.663 17.404l.018.037M9.681 17.44l.036.019M9.717 17.459h.055M9.772 17.459l.036-.018M9.808 17.44l.018-.018M10.008 17.205v.254M10.008 17.241l.018-.018M10.026 17.223l.036-.018M10.062 17.205h.054M10.116 17.205l.037.018M10.153 17.223l.018.036M10.17 17.26v.199M10.298 17.205h.145M10.352 17.078v.326M10.352 17.404l.018.037M10.37 17.44l.037.019M10.407 17.459h.036M10.57 17.459v-.254M10.57 17.078l-.018.018M10.552 17.096l.018.018M10.57 17.114l.018-.018M10.588 17.096l-.018-.018M10.57 17.078v.036M10.751 17.205v.254M10.751 17.241l.019-.018M10.77 17.223l.036-.018M10.806 17.205h.054M10.86 17.205l.037.018M10.897 17.223l.018.036M10.915 17.26v.199M11.26 17.205v.308M11.26 17.513l-.019.036M11.241 17.55l-.018.018M11.223 17.568l-.036.018M11.187 17.586h-.055M11.132 17.586l-.036-.018M11.26 17.44l-.037.019M11.223 17.459h-.073M11.15 17.459l-.036-.018M11.114 17.44l-.018-.018M11.096 17.423l-.018-.037M11.078 17.386v-.109M11.078 17.277l.018-.036M11.096 17.241l.018-.018M11.114 17.223l.036-.018M11.15 17.205h.073M11.223 17.205l.036.018"/>
    </g>
    <path d="M7.531 8.017h-3.81" style="fill:none;stroke:#840000;stroke-width:.1524;stroke-opacity:1;stroke-linecap:round;stroke-linejoin:round"/>
    <g class="stroked-text" style="fill:none;stroke:#006464;stroke-width:.1524;stroke-opacity:1;stroke-linecap:round;stroke-linejoin:round">
        <path d="m9.724 8.479-.339-.484M9.143 8.479V7.463M9.143 7.463h.387M9.53 7.463l.097.048M9.627 7.51l.048.05M9.675 7.56l.049.096M9.724 7.656v.145M9.724 7.801l-.049.097M9.675 7.898l-.048.048M9.627 7.946l-.097.049M9.53 7.995h-.387M10.062 7.463l.678 1.016M10.74 7.463l-.678 1.016"/>
    </g>
    <g class="stroked-text" style="fill:none;stroke:#a90000;stroke-width:.1524;stroke-opacity:1;stroke-linecap:round;stroke-linejoin:round">
        <path d="M5.989 7.599h-.726M5.626 7.599v-1.27M5.626 6.329l-.12.182M5.505 6.51l-.12.121M5.384 6.631l-.12.06"/>
    </g>
    <path d="M7.531 10.557h-3.81" style="fill:none;stroke:#840000;stroke-width:.1524;stroke-opacity:1;stroke-linecap:round;stroke-linejoin:round"/>
    <g class="stroked-text" style="fill:none;stroke:#006464;stroke-width:.1524;stroke-opacity:1;stroke-linecap:round;stroke-linejoin:round">
        <path d="M8.998 10.003h.58M9.288 11.019v-1.017M9.82 10.003l.678 1.015M10.498 10.003l-.678 1.015"/>
    </g>
    <g class="stroked-text" style="fill:none;stroke:#a90000;stroke-width:.1524;stroke-opacity:1;stroke-linecap:round;stroke-linejoin:round">
        <path d="m5.263 8.99.06-.06M5.324 8.93l.12-.061M5.445 8.869h.302M5.747 8.869l.121.06M5.868 8.93l.06.06M5.929 8.99l.06.12M5.989 9.11v.122M5.989 9.232l-.06.181M5.929 9.413l-.726.726M5.203 10.139h.786"/>
    </g>
    <path d="M7.531 13.097h-3.81" style="fill:none;stroke:#840000;stroke-width:.1524;stroke-opacity:1;stroke-linecap:round;stroke-linejoin:round"/>
    <g class="stroked-text" style="fill:none;stroke:#006464;stroke-width:.1524;stroke-opacity:1;stroke-linecap:round;stroke-linejoin:round">
        <path d="m8.998 12.543.339 1.016M9.337 13.559l.338-1.016M10.595 13.462l-.049.048M10.546 13.51l-.145.049M10.401 13.559h-.097M10.304 13.559l-.145-.049M10.16 13.51l-.098-.097M10.062 13.413l-.048-.096M10.014 13.317l-.048-.194M9.966 13.123v-.145M9.966 12.978l.048-.194M10.014 12.784l.048-.096M10.062 12.688l.097-.097M10.16 12.59l.144-.047M10.304 12.543h.097M10.401 12.543l.145.048M10.546 12.59l.049.05M11.61 13.462l-.048.048M11.562 13.51l-.145.049M11.417 13.559h-.097M11.32 13.559l-.145-.049M11.175 13.51l-.097-.097M11.078 13.413l-.048-.096M11.03 13.317l-.048-.194M10.982 13.123v-.145M10.982 12.978l.048-.194M11.03 12.784l.048-.096M11.078 12.688l.097-.097M11.175 12.59l.145-.047M11.32 12.543h.097M11.417 12.543l.145.048M11.562 12.59l.049.05"/>
    </g>
    <g class="stroked-text" style="fill:none;stroke:#a90000;stroke-width:.1524;stroke-opacity:1;stroke-linecap:round;stroke-linejoin:round">
        <path d="M5.203 11.409h.786M5.989 11.409l-.423.484M5.566 11.893h.181M5.747 11.893l.121.06M5.868 11.953l.06.06M5.929 12.014l.06.12M5.989 12.135v.302M5.989 12.437l-.06.121M5.929 12.558l-.061.06M5.868 12.619l-.12.06M5.747 12.679h-.363M5.384 12.679l-.12-.06M5.263 12.619l-.06-.06"/>
    </g>
    <path d="M7.531 15.637h-3.81" style="fill:none;stroke:#840000;stroke-width:.1524;stroke-opacity:1;stroke-linecap:round;stroke-linejoin:round"/>
    <g class="stroked-text" style="fill:none;stroke:#006464;stroke-width:.1524;stroke-opacity:1;stroke-linecap:round;stroke-linejoin:round">
        <path d="m9.675 15.13-.096-.048M9.579 15.083h-.146M9.433 15.083l-.145.048M9.288 15.13l-.097.098M9.192 15.228l-.049.096M9.143 15.324l-.048.194M9.095 15.518v.145M9.095 15.663l.048.194M9.143 15.857l.048.096M9.192 15.953l.096.097M9.288 16.05l.145.049M9.433 16.099h.097M9.53 16.099l.145-.049M9.675 16.05l.049-.048M9.724 16.002v-.339M9.724 15.663H9.53M10.16 16.099v-1.017M10.16 15.083l.58 1.016M10.74 16.099v-1.017M11.224 16.099v-1.017M11.224 15.083h.242M11.466 15.083l.145.048M11.61 15.13l.097.098M11.707 15.228l.049.096M11.756 15.324l.048.194M11.804 15.518v.145M11.804 15.663l-.048.194M11.756 15.857l-.049.096M11.707 15.953l-.096.097M11.61 16.05l-.144.049M11.466 16.099h-.242"/>
    </g>
    <g class="stroked-text" style="fill:none;stroke:#a90000;stroke-width:.1524;stroke-opacity:1;stroke-linecap:round;stroke-linejoin:round">
        <path d="M5.868 14.372v.847M5.566 13.889l-.303.907M5.263 14.796h.786"/>
    </g>
    <path d="M10.071 17.669v3.047" style="fill:none;stroke:#840000;stroke-width:.1524;stroke-opacity:1;stroke-linecap:round;stroke-linejoin:round"/>
    <g style="fill:none;stroke:#a90000;stroke-width:.1524;stroke-opacity:1;stroke-linecap:round;stroke-linejoin:round">
        <g class="stroked-text">
            <path d="M9.654 20.25h-1.27M8.384 20.25l.907-.423M9.29 19.827l-.906-.423M8.384 19.404h1.27M9.654 18.8h-1.27M8.384 18.8v-.484M8.384 18.316l.06-.121M8.444 18.195l.06-.06M8.505 18.134l.12-.06M8.626 18.074h.181M8.807 18.074l.12.06M8.928 18.134l.06.06M8.988 18.195l.06.12M9.049 18.316v.483"/>
        </g>
    </g>
    <g style="fill:none;stroke:#006464;stroke-width:.1524;stroke-opacity:1;stroke-linecap:round;stroke-linejoin:round">
        <g class="stroked-text">
            <path d="M-.363-9.26v.907M-.363-8.353l-.06.181M-.423-8.171l-.121.12M-.544-8.05l-.182.06M-.726-7.99h-.12M.423-8.111l.06.06M.484-8.05l-.06.06M.423-7.99l-.06-.06M.363-8.05l.06-.061M.423-8.111v.12M.181-9.2l.121-.06M.302-9.26h.303M.605-9.26l.12.06M.726-9.2l.06.121M.786-9.079v.121M.786-8.958l-.06.121M.726-8.837l-.06.06M.665-8.776l-.12.06M.544-8.716l-.06.06M.484-8.655l-.06.12M.423-8.534v.06"/>
        </g>
        <g class="stroked-text">
            <path d="m-7.257-5.825-.06.06M-7.317-5.765l-.182.06M-7.499-5.704h-.12M-7.62-5.704l-.181-.06M-7.801-5.765l-.121-.12M-7.922-5.885l-.06-.122M-7.983-6.006l-.06-.242M-8.043-6.248v-.182M-8.043-6.43l.06-.242M-7.983-6.672l.06-.12M-7.922-6.793l.12-.12M-7.801-6.914l.181-.06M-7.62-6.974h.121M-7.499-6.974l.182.06M-7.317-6.914l.06.06M-6.531-5.704l-.121-.06M-6.652-5.765l-.06-.06M-6.713-5.825l-.06-.121M-6.773-5.946v-.363M-6.773-6.309l.06-.12M-6.713-6.43l.06-.06M-6.652-6.49l.12-.06M-6.531-6.55h.181M-6.35-6.55l.121.06M-6.229-6.49l.06.06M-6.168-6.43l.06.121M-6.108-6.309v.363M-6.108-5.946l-.06.121M-6.168-5.825l-.06.06M-6.229-5.765l-.12.06M-6.35-5.704h-.181M-5.564-6.55v.846M-5.564-6.43l.06-.06M-5.503-6.49l.12-.06M-5.382-6.55h.181M-5.2-6.55l.12.06M-5.08-6.49l.06.12M-5.02-6.37v.666M-4.415-6.55v.846M-4.415-6.43l.06-.06M-4.354-6.49l.12-.06M-4.233-6.55h.181M-4.052-6.55l.121.06M-3.93-6.49l.06.12M-3.87-6.37v.666M-3.568-5.583h.968M-1.633-6.914l-.12-.06M-1.754-6.974h-.181M-1.935-6.974l-.182.06M-2.117-6.914l-.12.121M-2.238-6.793l-.06.121M-2.298-6.672l-.06.242M-2.358-6.43v.182M-2.358-6.248l.06.242M-2.298-6.006l.06.12M-2.238-5.885l.121.12M-2.117-5.765l.182.06M-1.935-5.704h.12M-1.814-5.704l.181-.06M-1.633-5.765l.06-.06M-1.572-5.825v-.423M-1.572-6.248h-.242M-1.028-5.704v-.847M-1.028-6.309l.06-.12M-.968-6.43l.06-.06M-.907-6.49l.12-.06M-.786-6.55h.12M-.06-5.704l-.121-.06M-.181-5.765l-.06-.06M-.242-5.825l-.06-.121M-.302-5.946v-.363M-.302-6.309l.06-.12M-.242-6.43l.06-.06M-.181-6.49l.12-.06M-.06-6.55h.18M.12-6.55l.122.06M.242-6.49l.06.06M.302-6.43l.06.121M.363-6.309v.363M.363-5.946l-.06.121M.302-5.825l-.06.06M.242-5.765l-.121.06M.12-5.704h-.18M.786-6.55l.303.846M1.089-5.704l.302-.847M2.358-5.765l-.12.06M2.238-5.704h-.242M1.996-5.704l-.121-.06M1.875-5.765l-.06-.12M1.814-5.885v-.484M1.814-6.37l.06-.12M1.875-6.49l.12-.06M1.996-6.55h.241M2.238-6.55l.12.06M2.358-6.49l.06.12M2.419-6.37v.122M2.419-6.248l-.605.12M2.66-5.583h.968M3.93-6.974v1.028M3.93-5.946l.061.121M3.991-5.825l.06.06M4.052-5.765l.12.06M4.173-5.704h.242M4.415-5.704l.12-.06M4.536-5.765l.06-.06M4.596-5.825l.06-.121M4.657-5.946v-1.028M5.2-6.067h.606M5.08-5.704l.423-1.27M5.503-6.974l.424 1.27M7.076-5.704l-.424-.605M6.35-5.704v-1.27M6.35-6.974h.484M6.834-6.974l.12.06M6.955-6.914l.06.06M7.015-6.853l.06.12M7.076-6.732v.181M7.076-6.55l-.06.12M7.015-6.43l-.06.06M6.955-6.37l-.121.061M6.834-6.309H6.35M7.439-6.974h.725M7.801-5.704v-1.27"/>
        </g>
    </g>
</svg>
