<svg xmlns="http://www.w3.org/2000/svg" width="94.848" height="104.832" viewBox="0 0 25.095 27.737">
    <rect width="6.35" height="17.78" x="9.373" y="7.521" rx="0" style="fill:#ffffc2;fill-opacity:1;stroke:none"/>
    <rect width="6.35" height="17.78" x="9.373" y="7.521" rx="0" style="fill:none;stroke:#840000;stroke-width:.254;stroke-opacity:1;stroke-linecap:round;stroke-linejoin:round"/>
    <g style="fill:none;stroke:#840000;stroke-width:.1524;stroke-opacity:1;stroke-linecap:round;stroke-linejoin:round">
        <rect width="1.27" height=".254" x="9.373" y="8.664" rx="0"/>
        <rect width="1.27" height=".254" x="9.373" y="11.204" rx="0"/>
        <rect width="1.27" height=".254" x="9.373" y="13.744" rx="0"/>
        <rect width="1.27" height=".254" x="9.373" y="16.284" rx="0"/>
        <rect width="1.27" height=".254" x="9.373" y="18.824" rx="0"/>
        <rect width="1.27" height=".254" x="9.373" y="21.364" rx="0"/>
        <rect width="1.27" height=".254" x="9.373" y="23.904" rx="0"/>
        <path d="M9.373 8.791h-3.81"/>
    </g>
    <g class="stroked-text" style="fill:none;stroke:#006464;stroke-width:.1524;stroke-opacity:1;stroke-linecap:round;stroke-linejoin:round">
        <path d="m10.84 8.237.338 1.016M11.178 9.253l.339-1.016M12.436 9.157l-.048.048M12.388 9.205l-.145.048M12.243 9.253h-.097M12.146 9.253 12 9.205M12 9.205l-.096-.097M11.904 9.108l-.048-.097M11.856 9.011l-.049-.193M11.807 8.818v-.145M11.807 8.673l.049-.194M11.856 8.48l.048-.098M11.904 8.382 12 8.286M12 8.286l.146-.049M12.146 8.237h.097M12.243 8.237l.145.049M12.388 8.286l.048.048M13.452 9.157l-.048.048M13.404 9.205l-.145.048M13.259 9.253h-.097M13.162 9.253l-.145-.048M13.017 9.205l-.097-.097M12.92 9.108l-.048-.097M12.872 9.011l-.049-.193M12.823 8.818v-.145M12.823 8.673l.049-.194M12.872 8.48l.048-.098M12.92 8.382l.097-.096M13.017 8.286l.145-.049M13.162 8.237h.097M13.259 8.237l.145.049M13.404 8.286l.048.048"/>
    </g>
    <g class="stroked-text" style="fill:none;stroke:#a90000;stroke-width:.1524;stroke-opacity:1;stroke-linecap:round;stroke-linejoin:round">
        <path d="M7.83 8.374h-.725M7.468 8.374v-1.27M7.468 7.104l-.121.181M7.347 7.285l-.121.121M7.226 7.406l-.121.06"/>
    </g>
    <path d="M9.373 11.331h-3.81" style="fill:none;stroke:#840000;stroke-width:.1524;stroke-opacity:1;stroke-linecap:round;stroke-linejoin:round"/>
    <g class="stroked-text" style="fill:none;stroke:#006464;stroke-width:.1524;stroke-opacity:1;stroke-linecap:round;stroke-linejoin:round">
        <path d="m11.565 11.697-.048.048M11.517 11.745l-.145.048M11.372 11.793h-.097M11.275 11.793l-.145-.048M11.13 11.745l-.097-.097M11.033 11.648l-.048-.097M10.985 11.551l-.049-.193M10.936 11.358v-.145M10.936 11.213l.049-.194M10.985 11.02l.048-.098M11.033 10.922l.097-.096M11.13 10.826l.145-.049M11.275 10.777h.097M11.372 10.777l.145.049M11.517 10.826l.048.048M11.952 11.745l.145.048M12.097 11.793h.242M12.34 11.793l.096-.048M12.436 11.745l.049-.048M12.485 11.697l.048-.097M12.533 11.6v-.097M12.533 11.503l-.048-.097M12.485 11.406l-.049-.048M12.436 11.358l-.097-.049M12.34 11.31l-.194-.049M12.146 11.261l-.097-.048M12.049 11.213l-.048-.049M12 11.164l-.048-.096M11.952 11.068v-.097M11.952 10.97l.049-.096M12 10.874l.049-.048M12.049 10.826l.097-.049M12.146 10.777h.242M12.388 10.777l.145.049"/>
    </g>
    <g class="stroked-text" style="fill:none;stroke:#a90000;stroke-width:.1524;stroke-opacity:1;stroke-linecap:round;stroke-linejoin:round">
        <path d="m7.105 9.765.06-.06M7.165 9.704l.121-.06M7.286 9.644h.303M7.589 9.644l.12.06M7.71 9.704l.06.06M7.77 9.765l.06.12M7.83 9.886v.12M7.83 10.007l-.06.181M7.77 10.188l-.726.726M7.044 10.914h.787"/>
    </g>
    <path d="M9.373 13.871h-3.81" style="fill:none;stroke:#840000;stroke-width:.1524;stroke-opacity:1;stroke-linecap:round;stroke-linejoin:round"/>
    <g class="stroked-text" style="fill:none;stroke:#006464;stroke-width:.1524;stroke-opacity:1;stroke-linecap:round;stroke-linejoin:round">
        <path d="m10.936 14.285.145.048M11.081 14.333h.242M11.323 14.333l.097-.048M11.42 14.285l.049-.049M11.469 14.237l.048-.097M11.517 14.14v-.097M11.517 14.043l-.048-.097M11.469 13.946l-.049-.048M11.42 13.898l-.097-.049M11.323 13.85l-.193-.049M11.13 13.801l-.097-.048M11.033 13.753l-.048-.049M10.985 13.704l-.049-.097M10.936 13.608v-.097M10.936 13.51l.049-.096M10.985 13.414l.048-.048M11.033 13.366l.097-.049M11.13 13.317h.242M11.372 13.317l.145.049M12.533 14.237l-.049.048M12.484 14.285l-.145.048M12.34 14.333h-.098M12.243 14.333l-.146-.048M12.097 14.285l-.096-.097M12 14.188l-.048-.097M11.952 14.091l-.048-.193M11.904 13.898v-.145M11.904 13.753l.048-.194M11.952 13.56l.049-.098M12 13.462l.097-.096M12.097 13.366l.146-.049M12.243 13.317h.096M12.34 13.317l.144.049M12.484 13.366l.049.048M13.452 14.333h-.484M12.968 14.333v-1.016M13.79 14.333v-1.016M14.371 14.333l-.435-.58M14.371 13.317l-.58.58"/>
    </g>
    <g class="stroked-text" style="fill:none;stroke:#a90000;stroke-width:.1524;stroke-opacity:1;stroke-linecap:round;stroke-linejoin:round">
        <path d="M7.044 12.184h.787M7.83 12.184l-.423.484M7.407 12.668h.182M7.589 12.668l.12.06M7.71 12.728l.06.06M7.77 12.789l.06.12M7.83 12.91v.302M7.83 13.212l-.06.12M7.77 13.333l-.06.06M7.71 13.393l-.121.06M7.589 13.454h-.363M7.226 13.454l-.121-.06M7.105 13.393l-.06-.06"/>
    </g>
    <path d="M9.373 16.411h-3.81" style="fill:none;stroke:#840000;stroke-width:.1524;stroke-opacity:1;stroke-linecap:round;stroke-linejoin:round"/>
    <g class="stroked-text" style="fill:none;stroke:#006464;stroke-width:.1524;stroke-opacity:1;stroke-linecap:round;stroke-linejoin:round">
        <path d="M10.985 16.873v-1.016M10.985 15.857l.338.726M11.323 16.583l.339-.726M11.662 15.857v1.016M12.34 15.857h.193M12.533 15.857l.097.049M12.63 15.906l.096.096M12.726 16.002l.049.194M12.775 16.196v.339M12.775 16.535l-.049.193M12.726 16.728l-.096.097M12.63 16.825l-.097.048M12.533 16.873h-.194M12.34 16.873l-.098-.048M12.243 16.825l-.097-.097M12.146 16.728l-.049-.193M12.097 16.535v-.34M12.097 16.196l.049-.194M12.146 16.002l.096-.096M12.243 15.906l.096-.049M13.162 16.825l.145.048M13.307 16.873h.242M13.549 16.873l.097-.048M13.646 16.825l.048-.049M13.694 16.777l.048-.097M13.742 16.68v-.097M13.742 16.583l-.048-.097M13.694 16.486l-.048-.048M13.646 16.438l-.097-.049M13.549 16.39l-.194-.049M13.355 16.341l-.097-.048M13.259 16.293l-.049-.049M13.21 16.244l-.048-.096M13.162 16.148v-.097M13.162 16.05l.048-.096M13.21 15.954l.048-.048M13.259 15.906l.096-.049M13.355 15.857h.242M13.597 15.857l.145.049M14.178 16.873v-1.016"/>
    </g>
    <g class="stroked-text" style="fill:none;stroke:#a90000;stroke-width:.1524;stroke-opacity:1;stroke-linecap:round;stroke-linejoin:round">
        <path d="M7.71 15.147v.847M7.407 14.663l-.302.907M7.105 15.57h.786"/>
    </g>
    <path d="M9.373 18.951h-3.81" style="fill:none;stroke:#840000;stroke-width:.1524;stroke-opacity:1;stroke-linecap:round;stroke-linejoin:round"/>
    <g class="stroked-text" style="fill:none;stroke:#006464;stroke-width:.1524;stroke-opacity:1;stroke-linecap:round;stroke-linejoin:round">
        <path d="M10.985 19.413v-1.016M10.985 18.397l.338.726M11.323 19.123l.339-.726M11.662 18.397v1.016M12.146 19.413v-1.016M12.581 19.365l.145.048M12.726 19.413h.242M12.968 19.413l.097-.048M13.065 19.365l.048-.048M13.113 19.317l.049-.097M13.162 19.22v-.097M13.162 19.123l-.049-.097M13.113 19.026l-.048-.048M13.065 18.978l-.097-.049M12.968 18.93l-.193-.049M12.775 18.881l-.097-.048M12.678 18.833l-.048-.049M12.63 18.784l-.049-.096M12.581 18.688v-.097M12.581 18.59l.049-.096M12.63 18.494l.048-.048M12.678 18.446l.097-.049M12.775 18.397h.242M13.017 18.397l.145.049M13.79 18.397h.194M13.984 18.397l.097.049M14.081 18.446l.097.096M14.178 18.542l.048.194M14.226 18.736v.339M14.226 19.075l-.048.193M14.178 19.268l-.097.097M14.081 19.365l-.097.048M13.984 19.413h-.193M13.79 19.413l-.096-.048M13.694 19.365l-.097-.097M13.597 19.268l-.048-.193M13.549 19.075v-.34M13.549 18.736l.048-.194M13.597 18.542l.097-.096M13.694 18.446l.097-.049"/>
    </g>
    <g class="stroked-text" style="fill:none;stroke:#a90000;stroke-width:.1524;stroke-opacity:1;stroke-linecap:round;stroke-linejoin:round">
        <path d="M7.77 17.264h-.605M7.165 17.264l-.06.605M7.105 17.869l.06-.061M7.165 17.808l.121-.06M7.286 17.748h.303M7.589 17.748l.12.06M7.71 17.808l.06.06M7.77 17.869l.06.12M7.83 17.99v.302M7.83 18.292l-.06.12M7.77 18.413l-.06.06M7.71 18.473l-.121.06M7.589 18.534h-.303M7.286 18.534l-.12-.06M7.165 18.473l-.06-.06"/>
    </g>
    <path d="M9.373 21.491h-3.81" style="fill:none;stroke:#840000;stroke-width:.1524;stroke-opacity:1;stroke-linecap:round;stroke-linejoin:round"/>
    <g class="stroked-text" style="fill:none;stroke:#006464;stroke-width:.1524;stroke-opacity:1;stroke-linecap:round;stroke-linejoin:round">
        <path d="M10.985 21.953v-1.016M11.662 20.937h.193M11.856 20.937l.096.049M11.952 20.986l.097.096M12.049 21.082l.048.194M12.097 21.276v.339M12.097 21.615l-.048.193M12.049 21.808l-.097.097M11.952 21.905l-.097.048M11.856 21.953h-.194M11.662 21.953l-.097-.048M11.565 21.905l-.096-.097M11.469 21.808l-.049-.193M11.42 21.615v-.34M11.42 21.276l.049-.194M11.469 21.082l.096-.096M11.565 20.986l.097-.049"/>
    </g>
    <g class="stroked-text" style="fill:none;stroke:#a90000;stroke-width:.1524;stroke-opacity:1;stroke-linecap:round;stroke-linejoin:round">
        <path d="M7.71 19.804h-.242M7.468 19.804l-.121.06M7.347 19.864l-.06.06M7.286 19.925l-.12.181M7.165 20.106l-.06.242M7.105 20.348v.484M7.105 20.832l.06.12M7.165 20.953l.06.06M7.226 21.013l.12.06M7.347 21.074h.242M7.589 21.074l.12-.06M7.71 21.013l.06-.06M7.77 20.953l.06-.121M7.83 20.832v-.303M7.83 20.53l-.06-.122M7.77 20.409l-.06-.061M7.71 20.348l-.121-.06M7.589 20.288h-.242M7.347 20.288l-.121.06M7.226 20.348l-.06.06M7.165 20.409l-.06.12"/>
    </g>
    <path d="M9.373 24.031h-3.81" style="fill:none;stroke:#840000;stroke-width:.1524;stroke-opacity:1;stroke-linecap:round;stroke-linejoin:round"/>
    <g class="stroked-text" style="fill:none;stroke:#006464;stroke-width:.1524;stroke-opacity:1;stroke-linecap:round;stroke-linejoin:round">
        <path d="m11.517 23.526-.097-.049M11.42 23.477h-.145M11.275 23.477l-.145.049M11.13 23.526l-.097.096M11.033 23.622l-.048.097M10.985 23.72l-.049.193M10.936 23.913v.145M10.936 24.058l.049.193M10.985 24.251l.048.097M11.033 24.348l.097.097M11.13 24.445l.145.048M11.275 24.493h.097M11.372 24.493l.145-.048M11.517 24.445l.048-.049M11.565 24.397v-.34M11.565 24.058h-.193M12 24.493v-1.016M12 23.477l.581 1.016M12.581 24.493v-1.016M13.065 24.493v-1.016M13.065 23.477h.242M13.307 23.477l.145.049M13.452 23.526l.097.096M13.549 23.622l.048.097M13.597 23.72l.049.193M13.646 23.913v.145M13.646 24.058l-.049.193M13.597 24.251l-.048.097M13.549 24.348l-.097.097M13.452 24.445l-.145.048M13.307 24.493h-.242"/>
    </g>
    <g class="stroked-text" style="fill:none;stroke:#a90000;stroke-width:.1524;stroke-opacity:1;stroke-linecap:round;stroke-linejoin:round">
        <path d="M7.044 22.344h.847M7.89 22.344l-.543 1.27"/>
    </g>
    <g style="fill:none;stroke:#006464;stroke-width:.1524;stroke-opacity:1;stroke-linecap:round;stroke-linejoin:round">
        <g class="stroked-text">
            <path d="M-.363-11.229v.908M-.363-10.321l-.06.181M-.423-10.14l-.121.12M-.544-10.02l-.182.061M-.726-9.959h-.12M.423-10.08l.06.06M.484-10.02l-.06.061M.423-9.959l-.06-.06M.363-10.02l.06-.06M.423-10.08v.121M.181-11.168l.121-.06M.302-11.229h.303M.605-11.229l.12.06M.726-11.168l.06.12M.786-11.047v.12M.786-10.926l-.06.12M.726-10.805l-.06.06M.665-10.745l-.12.06M.544-10.684l-.06.06M.484-10.624l-.06.121M.423-10.503v.06"/>
        </g>
        <g class="stroked-text">
            <path d="m-9.313-7.793-.06.06M-9.374-7.733l-.181.06M-9.555-7.673h-.121M-9.676-7.673l-.181-.06M-9.857-7.733l-.121-.121M-9.978-7.854l-.06-.121M-10.039-7.975l-.06-.242M-10.1-8.217v-.181M-10.1-8.398l.061-.242M-10.039-8.64l.06-.121M-9.978-8.761l.12-.121M-9.857-8.882l.181-.06M-9.676-8.943h.12M-9.555-8.943l.181.06M-9.374-8.882l.06.06M-8.587-7.673l-.121-.06M-8.708-7.733l-.06-.06M-8.769-7.793l-.06-.122M-8.83-7.914v-.363M-8.83-8.277l.061-.121M-8.769-8.398l.06-.06M-8.708-8.459l.12-.06M-8.587-8.52h.181M-8.406-8.52l.12.061M-8.285-8.459l.06.06M-8.225-8.398l.06.12M-8.164-8.277v.362M-8.164-7.914l-.06.12M-8.225-7.793l-.06.06M-8.285-7.733l-.121.06M-8.406-7.673h-.181M-7.62-8.52v.847M-7.62-8.398l.06-.06M-7.56-8.459l.122-.06M-7.438-8.52h.181M-7.257-8.52l.12.061M-7.136-8.459l.06.121M-7.076-8.338v.665M-6.47-8.52v.847M-6.47-8.398l.06-.06M-6.41-8.459l.12-.06M-6.29-8.52h.182M-6.108-8.52l.12.061M-5.987-8.459l.06.121M-5.927-8.338v.665M-5.624-7.552h.967M-4.354-7.673v-1.27M-4.354-8.943h.484M-3.87-8.943l.12.06M-3.75-8.882l.061.06M-3.689-8.822l.06.121M-3.629-8.7v.18M-3.629-8.52l-.06.122M-3.689-8.398l-.06.06M-3.75-8.338l-.12.06M-3.87-8.277h-.484M-3.084-7.673v-.846M-3.084-8.943l-.06.06M-3.145-8.882l.06.06M-3.084-8.822l.06-.06M-3.024-8.882l-.06-.06M-3.084-8.943v.121M-2.48-7.673v-.846M-2.48-8.398l.061-.06M-2.419-8.459l.121-.06M-2.298-8.52h.181M-2.117-8.52l.121.061M-1.996-8.459l.06.121M-1.935-8.338v.665M-1.935-8.338l.06-.12M-1.875-8.459l.121-.06M-1.754-8.52h.182M-1.572-8.52l.12.061M-1.451-8.459l.06.121M-1.39-8.338v.665M-.605-7.673l-.12-.06M-.726-7.733l-.06-.06M-.786-7.793l-.06-.122M-.847-7.914v-.363M-.847-8.277l.06-.121M-.786-8.398l.06-.06M-.726-8.459l.121-.06M-.605-8.52h.182M-.423-8.52l.12.061M-.302-8.459l.06.06M-.242-8.398l.06.12M-.181-8.277v.362M-.181-7.914l-.06.12M-.242-7.793l-.06.06M-.302-7.733l-.121.06M-.423-7.673h-.182M.363-7.673v-.846M.363-8.277l.06-.121M.423-8.398l.06-.06M.484-8.459l.12-.06M.605-8.52h.12M1.33-7.673l-.12-.06M1.21-7.733l-.061-.06M1.149-7.793l-.06-.122M1.089-7.914v-.363M1.089-8.277l.06-.121M1.149-8.398l.06-.06M1.21-8.459l.12-.06M1.33-8.52h.182M1.512-8.52l.12.061M1.633-8.459l.06.06M1.693-8.398l.06.12M1.754-8.277v.362M1.754-7.914l-.06.12M1.693-7.793l-.06.06M1.633-7.733l-.121.06M1.512-7.673H1.33M2.298-8.52v.847M2.298-8.398l.06-.06M2.358-8.459l.121-.06M2.48-8.52h.18M2.66-8.52l.122.061M2.782-8.459l.06.121M2.842-8.338v.665M3.447-7.673v-.846M3.447-8.943l-.06.06M3.387-8.882l.06.06M3.447-8.822l.06-.06M3.507-8.882l-.06-.06M3.447-8.943v.121M4.475-8.338l.182.06M4.657-8.277l.06.06M4.717-8.217l.06.121M4.777-8.096v.181M4.777-7.914l-.06.12M4.717-7.793l-.06.06M4.657-7.733l-.122.06M4.536-7.673h-.484M4.052-7.673v-1.27M4.052-8.943h.423M4.475-8.943l.121.06M4.596-8.882l.06.06M4.657-8.822l.06.121M4.717-8.7v.12M4.717-8.58l-.06.121M4.657-8.459l-.061.06M4.596-8.398l-.12.06M4.475-8.338h-.423M5.987-8.882l-.121-.06M5.866-8.943h-.181M5.685-8.943l-.182.06M5.503-8.882l-.12.12M5.382-8.761l-.06.12M5.322-8.64l-.06.242M5.261-8.398v.181M5.261-8.217l.06.242M5.322-7.975l.06.121M5.382-7.854l.121.12M5.503-7.733l.182.06M5.685-7.673h.12M5.806-7.673l.181-.06M5.987-7.733l.06-.06M6.047-7.793v-.424M6.047-8.217h-.241M6.29-7.552h.967M7.499-7.733l.181.06M7.68-7.673h.303M7.983-7.673l.12-.06M8.104-7.733l.06-.06M8.164-7.793l.06-.122M8.225-7.914v-.121M8.225-8.035l-.06-.121M8.164-8.156l-.06-.06M8.104-8.217l-.121-.06M7.983-8.277l-.242-.06M7.74-8.338l-.12-.06M7.62-8.398l-.06-.06M7.56-8.459l-.061-.12M7.499-8.58v-.12M7.499-8.7l.06-.122M7.56-8.822l.06-.06M7.62-8.882l.12-.06M7.74-8.943h.303M8.043-8.943l.182.06M8.769-7.673v-1.27M8.769-8.943h.484M9.253-8.943l.12.06M9.374-8.882l.06.06M9.434-8.822l.06.121M9.495-8.7v.18M9.495-8.52l-.06.122M9.434-8.398l-.06.06M9.374-8.338l-.121.06M9.253-8.277h-.484M10.039-7.673v-1.27"/>
        </g>
    </g>
</svg>
