<svg xmlns="http://www.w3.org/2000/svg" width="87.36" height="86.976" viewBox="0 0 23.114 23.012">
    <rect width="5.08" height="10.16" x="9.017" y="6.747" rx="0" style="fill:#ffffc2;fill-opacity:1;stroke:none"/>
    <rect width="5.08" height="10.16" x="9.017" y="6.747" rx="0" style="fill:none;stroke:#840000;stroke-width:.254;stroke-opacity:1;stroke-linecap:round;stroke-linejoin:round"/>
    <g style="fill:none;stroke:#840000;stroke-width:.1524;stroke-opacity:1;stroke-linecap:round;stroke-linejoin:round">
        <rect width="1.27" height=".254" x="9.017" y="7.889" rx="0"/>
        <rect width="1.27" height=".254" x="9.017" y="10.43" rx="0"/>
        <rect width="1.27" height=".254" x="9.017" y="12.97" rx="0"/>
        <rect width="1.27" height=".254" x="9.017" y="15.509" rx="0"/>
        <path d="M10.541 17.669h2.032" style="stroke:#840000;stroke-width:.1524;stroke-opacity:1;stroke-linecap:round;stroke-linejoin:round;fill:none"/>
    </g>
    <g class="stroked-text" style="fill:none;stroke:#840000;stroke-width:.0953;stroke-opacity:1;stroke-linecap:round;stroke-linejoin:round">
        <path d="M10.369 17.459v-.381M10.369 17.078l.127.272M10.496 17.35l.127-.272M10.623 17.078v.38M10.859 17.459l-.037-.018M10.822 17.44l-.018-.018M10.804 17.423l-.018-.037M10.786 17.386v-.109M10.786 17.277l.018-.036M10.804 17.241l.018-.018M10.822 17.223l.037-.018M10.859 17.205h.054M10.913 17.205l.036.018M10.95 17.223l.017.018M10.967 17.241l.018.036M10.986 17.277v.11M10.986 17.386l-.019.037M10.967 17.423l-.018.018M10.95 17.44l-.037.019M10.913 17.459h-.055M11.312 17.205v.254M11.149 17.205v.2M11.149 17.404l.018.037M11.167 17.44l.036.019M11.203 17.459h.055M11.258 17.459l.036-.018M11.294 17.44l.018-.018M11.494 17.205v.254M11.494 17.241l.018-.018M11.512 17.223l.036-.018M11.548 17.205h.054M11.602 17.205l.037.018M11.639 17.223l.018.036M11.657 17.26v.199M11.784 17.205h.145M11.838 17.078v.326M11.838 17.404l.018.037M11.856 17.44l.037.019M11.893 17.459h.036M12.056 17.459v-.254M12.056 17.078l-.018.018M12.038 17.096l.018.018M12.056 17.114l.018-.018M12.074 17.096l-.018-.018M12.056 17.078v.036M12.237 17.205v.254M12.237 17.241l.018-.018M12.255 17.223l.037-.018M12.292 17.205h.054M12.346 17.205l.036.018M12.382 17.223l.019.036M12.4 17.26v.199M12.745 17.205v.308M12.745 17.513l-.018.036M12.727 17.55l-.018.018M12.709 17.568l-.036.018M12.673 17.586h-.055M12.618 17.586l-.036-.018M12.745 17.44l-.036.019M12.709 17.459h-.073M12.636 17.459l-.036-.018M12.6 17.44l-.018-.018M12.582 17.423l-.018-.037M12.564 17.386v-.109M12.564 17.277l.018-.036M12.582 17.241l.018-.018M12.6 17.223l.036-.018M12.636 17.205h.073M12.709 17.205l.036.018"/>
    </g>
    <path d="M9.017 8.017h-3.81" style="fill:none;stroke:#840000;stroke-width:.1524;stroke-opacity:1;stroke-linecap:round;stroke-linejoin:round"/>
    <g class="stroked-text" style="fill:none;stroke:#006464;stroke-width:.1524;stroke-opacity:1;stroke-linecap:round;stroke-linejoin:round">
        <path d="M10.58 8.188h.485M10.484 8.479l.339-1.016M10.823 7.463l.338 1.016M12.032 8.479h-.58M11.742 8.479V7.463M11.742 7.463l-.097.145M11.645 7.608l-.097.096M11.548 7.704l-.096.049"/>
    </g>
    <g class="stroked-text" style="fill:none;stroke:#a90000;stroke-width:.1524;stroke-opacity:1;stroke-linecap:round;stroke-linejoin:round">
        <path d="M7.475 7.599h-.726M7.112 7.599v-1.27M7.112 6.329l-.12.182M6.991 6.51l-.12.121M6.87 6.631l-.12.06"/>
    </g>
    <path d="M9.017 10.557h-3.81" style="fill:none;stroke:#840000;stroke-width:.1524;stroke-opacity:1;stroke-linecap:round;stroke-linejoin:round"/>
    <g class="stroked-text" style="fill:none;stroke:#006464;stroke-width:.1524;stroke-opacity:1;stroke-linecap:round;stroke-linejoin:round">
        <path d="M10.58 10.728h.485M10.484 11.019l.339-1.017M10.823 10.003l.338 1.015M11.452 10.1l.048-.05M11.5 10.05l.097-.048M11.597 10.003h.242M11.839 10.003l.096.048M11.935 10.05l.049.05M11.984 10.1l.048.096M12.032 10.196v.097M12.032 10.293l-.048.145M11.984 10.438l-.58.58M11.403 11.019h.63"/>
    </g>
    <g class="stroked-text" style="fill:none;stroke:#a90000;stroke-width:.1524;stroke-opacity:1;stroke-linecap:round;stroke-linejoin:round">
        <path d="m6.75 8.99.06-.06M6.81 8.93l.12-.061M6.93 8.869h.303M7.233 8.869l.12.06M7.354 8.93l.06.06M7.414 8.99l.06.12M7.475 9.11v.122M7.475 9.232l-.06.181M7.414 9.413l-.725.726M6.689 10.139h.786"/>
    </g>
    <path d="M9.017 13.097h-3.81" style="fill:none;stroke:#840000;stroke-width:.1524;stroke-opacity:1;stroke-linecap:round;stroke-linejoin:round"/>
    <g class="stroked-text" style="fill:none;stroke:#006464;stroke-width:.1524;stroke-opacity:1;stroke-linecap:round;stroke-linejoin:round">
        <path d="m10.484 12.543.339 1.016M10.823 13.559l.338-1.016M12.08 13.462l-.048.048M12.032 13.51l-.145.049M11.887 13.559h-.097M11.79 13.559l-.145-.049M11.645 13.51l-.097-.097M11.548 13.413l-.048-.096M11.5 13.317l-.048-.194M11.452 13.123v-.145M11.452 12.978l.048-.194M11.5 12.784l.048-.096M11.548 12.688l.097-.097M11.645 12.59l.145-.047M11.79 12.543h.097M11.887 12.543l.145.048M12.032 12.59l.049.05M13.097 13.462l-.049.048M13.048 13.51l-.145.049M12.903 13.559h-.097M12.806 13.559l-.145-.049M12.661 13.51l-.097-.097M12.564 13.413l-.048-.096M12.516 13.317l-.048-.194M12.468 13.123v-.145M12.468 12.978l.048-.194M12.516 12.784l.048-.096M12.564 12.688l.097-.097M12.661 12.59l.145-.047M12.806 12.543h.097M12.903 12.543l.145.048M13.048 12.59l.049.05"/>
    </g>
    <g class="stroked-text" style="fill:none;stroke:#a90000;stroke-width:.1524;stroke-opacity:1;stroke-linecap:round;stroke-linejoin:round">
        <path d="M6.689 11.409h.786M7.475 11.409l-.423.484M7.052 11.893h.181M7.233 11.893l.12.06M7.354 11.953l.06.06M7.414 12.014l.06.12M7.475 12.135v.302M7.475 12.437l-.06.121M7.414 12.558l-.06.06M7.354 12.619l-.121.06M7.233 12.679H6.87M6.87 12.679l-.12-.06M6.75 12.619l-.061-.06"/>
    </g>
    <path d="M9.017 15.637h-3.81" style="fill:none;stroke:#840000;stroke-width:.1524;stroke-opacity:1;stroke-linecap:round;stroke-linejoin:round"/>
    <g class="stroked-text" style="fill:none;stroke:#006464;stroke-width:.1524;stroke-opacity:1;stroke-linecap:round;stroke-linejoin:round">
        <path d="m11.161 15.13-.096-.048M11.065 15.083h-.146M10.92 15.083l-.146.048M10.774 15.13l-.097.098M10.677 15.228l-.048.096M10.63 15.324l-.05.194M10.58 15.518v.145M10.58 15.663l.05.194M10.63 15.857l.047.096M10.677 15.953l.097.097M10.774 16.05l.145.049M10.92 16.099h.096M11.016 16.099l.145-.049M11.161 16.05l.049-.048M11.21 16.002v-.339M11.21 15.663h-.194M11.645 16.099v-1.017M11.645 15.083l.58 1.016M12.226 16.099v-1.017M12.71 16.099v-1.017M12.71 15.083h.241M12.951 15.083l.146.048M13.097 15.13l.096.098M13.193 15.228l.049.096M13.242 15.324l.048.194M13.29 15.518v.145M13.29 15.663l-.048.194M13.242 15.857l-.049.096M13.193 15.953l-.096.097M13.097 16.05l-.146.049M12.951 16.099h-.242"/>
    </g>
    <g class="stroked-text" style="fill:none;stroke:#a90000;stroke-width:.1524;stroke-opacity:1;stroke-linecap:round;stroke-linejoin:round">
        <path d="M7.354 14.372v.847M7.052 13.889l-.303.907M6.75 14.796h.785"/>
    </g>
    <path d="M11.557 17.669v3.047" style="fill:none;stroke:#840000;stroke-width:.1524;stroke-opacity:1;stroke-linecap:round;stroke-linejoin:round"/>
    <g style="fill:none;stroke:#a90000;stroke-width:.1524;stroke-opacity:1;stroke-linecap:round;stroke-linejoin:round">
        <g class="stroked-text">
            <path d="M11.14 20.25H9.87M9.87 20.25l.907-.423M10.777 19.827l-.907-.423M9.87 19.404h1.27M11.14 18.8H9.87M9.87 18.8v-.484M9.87 18.316l.06-.121M9.93 18.195l.06-.06M9.99 18.134l.121-.06M10.111 18.074h.182M10.293 18.074l.12.06M10.414 18.134l.06.06M10.474 18.195l.06.12M10.535 18.316v.483"/>
        </g>
    </g>
    <g style="fill:none;stroke:#006464;stroke-width:.1524;stroke-opacity:1;stroke-linecap:round;stroke-linejoin:round">
        <g class="stroked-text">
            <path d="M-.363-9.26v.907M-.363-8.353l-.06.181M-.423-8.171l-.121.12M-.544-8.05l-.182.06M-.726-7.99h-.12M.423-8.111l.06.06M.484-8.05l-.06.06M.423-7.99l-.06-.06M.363-8.05l.06-.061M.423-8.111v.12M.181-9.2l.121-.06M.302-9.26h.303M.605-9.26l.12.06M.726-9.2l.06.121M.786-9.079v.121M.786-8.958l-.06.121M.726-8.837l-.06.06M.665-8.776l-.12.06M.544-8.716l-.06.06M.484-8.655l-.06.12M.423-8.534v.06"/>
        </g>
        <g class="stroked-text">
            <path d="m-8.497-5.825-.06.06M-8.557-5.765l-.182.06M-8.739-5.704h-.12M-8.86-5.704l-.18-.06M-9.04-5.765l-.122-.12M-9.162-5.885l-.06-.122M-9.222-6.006l-.06-.242M-9.283-6.248v-.182M-9.283-6.43l.06-.242M-9.222-6.672l.06-.12M-9.162-6.793l.121-.12M-9.04-6.914l.18-.06M-8.86-6.974h.121M-8.739-6.974l.182.06M-8.557-6.914l.06.06M-7.77-5.704l-.122-.06M-7.892-5.765l-.06-.06M-7.952-5.825l-.06-.121M-8.013-5.946v-.363M-8.013-6.309l.06-.12M-7.952-6.43l.06-.06M-7.892-6.49l.121-.06M-7.77-6.55h.18M-7.59-6.55l.121.06M-7.469-6.49l.06.06M-7.408-6.43l.06.121M-7.348-6.309v.363M-7.348-5.946l-.06.121M-7.408-5.825l-.06.06M-7.469-5.765l-.12.06M-7.59-5.704h-.18M-6.803-6.55v.846M-6.803-6.43l.06-.06M-6.743-6.49l.121-.06M-6.622-6.55h.181M-6.44-6.55l.12.06M-6.32-6.49l.06.12M-6.26-6.37v.666M-5.654-6.55v.846M-5.654-6.43l.06-.06M-5.594-6.49l.121-.06M-5.473-6.55h.181M-5.291-6.55l.12.06M-5.17-6.49l.06.12M-5.11-6.37v.666M-4.505-5.704v-.847M-4.505-6.309l.06-.12M-4.445-6.43l.06-.06M-4.384-6.49l.12-.06M-4.263-6.55h.12M-4.022-5.583h.968M-2.086-6.914l-.121-.06M-2.207-6.974h-.182M-2.389-6.974l-.181.06M-2.57-6.914l-.121.121M-2.691-6.793l-.06.121M-2.752-6.672l-.06.242M-2.812-6.43v.182M-2.812-6.248l.06.242M-2.752-6.006l.06.12M-2.691-5.885l.12.12M-2.57-5.765l.181.06M-2.389-5.704h.121M-2.268-5.704l.182-.06M-2.086-5.765l.06-.06M-2.026-5.825v-.423M-2.026-6.248h-.242M-1.482-5.704v-.847M-1.482-6.309l.06-.12M-1.421-6.43l.06-.06M-1.36-6.49l.12-.06M-1.24-6.55h.121M-.514-5.704l-.12-.06M-.635-5.765l-.06-.06M-.695-5.825l-.06-.121M-.756-5.946v-.363M-.756-6.309l.06-.12M-.695-6.43l.06-.06M-.635-6.49l.121-.06M-.514-6.55h.182M-.332-6.55l.12.06M-.212-6.49l.06.06M-.151-6.43l.06.121M-.09-6.309v.363M-.09-5.946l-.061.121M-.151-5.825l-.06.06M-.212-5.765l-.12.06M-.332-5.704h-.182M.333-6.55l.302.846M.635-5.704l.302-.847M1.905-5.765l-.121.06M1.784-5.704h-.242M1.542-5.704l-.12-.06M1.421-5.765l-.06-.12M1.36-5.885v-.484M1.36-6.37l.061-.12M1.421-6.49l.121-.06M1.542-6.55h.242M1.784-6.55l.12.06M1.905-6.49l.06.12M1.965-6.37v.122M1.965-6.248l-.604.12M2.207-5.583h.968M3.417-6.067h.605M3.296-5.704l.423-1.27M3.72-6.974l.423 1.27M4.566-6.55v.846M4.566-6.43l.06-.06M4.626-6.49l.121-.06M4.747-6.55h.182M4.929-6.55l.12.06M5.05-6.49l.06.12M5.11-6.37v.666M6.26-5.704v-.665M6.26-6.37l-.061-.12M6.199-6.49l-.121-.06M6.078-6.55h-.242M5.836-6.55l-.121.06M6.26-5.765l-.122.06M6.138-5.704h-.302M5.836-5.704l-.121-.06M5.715-5.765l-.06-.12M5.655-5.885v-.122M5.655-6.006l.06-.121M5.715-6.127l.12-.06M5.836-6.188h.302M6.138-6.188l.121-.06M7.045-5.704l-.12-.06M6.924-5.765l-.06-.12M6.864-5.885v-1.09M7.71-5.704l-.12-.06M7.59-5.765l-.06-.06M7.53-5.825l-.061-.121M7.469-5.946v-.363M7.469-6.309l.06-.12M7.53-6.43l.06-.06M7.59-6.49l.12-.06M7.71-6.55h.182M7.892-6.55l.12.06M8.013-6.49l.06.06M8.073-6.43l.06.121M8.134-6.309v.363M8.134-5.946l-.06.121M8.073-5.825l-.06.06M8.013-5.765l-.121.06M7.892-5.704h-.181M9.222-6.55v1.027M9.222-5.523l-.06.121M9.162-5.402l-.06.06M9.102-5.341l-.122.06M8.98-5.28H8.8M8.8-5.28l-.122-.061M9.222-5.765l-.12.06M9.102-5.704H8.86M8.86-5.704l-.121-.06M8.739-5.765l-.06-.06M8.678-5.825l-.06-.121M8.618-5.946v-.363M8.618-6.309l.06-.12M8.678-6.43l.06-.06M8.739-6.49l.12-.06M8.86-6.55h.242M9.102-6.55l.12.06"/>
        </g>
    </g>
</svg>
