<svg xmlns="http://www.w3.org/2000/svg" width="94.848" height="81.216" viewBox="0 0 25.095 21.488">
    <rect width="5.08" height="12.7" x="10.008" y="6.873" rx="0" style="fill:#ffffc2;fill-opacity:1;stroke:none"/>
    <rect width="5.08" height="12.7" x="10.008" y="6.873" rx="0" style="fill:none;stroke:#840000;stroke-width:.254;stroke-opacity:1;stroke-linecap:round;stroke-linejoin:round"/>
    <g style="fill:none;stroke:#840000;stroke-width:.1524;stroke-opacity:1;stroke-linecap:round;stroke-linejoin:round">
        <rect width="1.27" height=".254" x="10.008" y="8.017" rx="0"/>
        <rect width="1.27" height=".254" x="10.008" y="10.556" rx="0"/>
        <rect width="1.27" height=".254" x="10.008" y="13.097" rx="0"/>
        <rect width="1.27" height=".254" x="10.008" y="15.636" rx="0"/>
        <rect width="1.27" height=".254" x="10.008" y="18.177" rx="0"/>
        <path d="M10.008 8.143h-3.81"/>
    </g>
    <g class="stroked-text" style="fill:none;stroke:#006464;stroke-width:.1524;stroke-opacity:1;stroke-linecap:round;stroke-linejoin:round">
        <path d="m12.152 7.638-.097-.048M12.055 7.59h-.145M11.91 7.59l-.145.048M11.765 7.638l-.097.097M11.668 7.735l-.048.096M11.62 7.831l-.049.194M11.571 8.025v.145M11.571 8.17l.049.194M11.62 8.364l.048.096M11.668 8.46l.097.097M11.765 8.557l.145.048M11.91 8.606h.097M12.007 8.606l.145-.049M12.152 8.557l.048-.048M12.2 8.509V8.17M12.2 8.17h-.193M12.636 8.606V7.59M12.636 7.59l.58 1.015M13.216 8.606V7.59M13.7 8.606V7.59M13.7 7.59h.242M13.942 7.59l.145.048M14.087 7.638l.097.097M14.184 7.735l.048.096M14.232 7.831l.049.194M14.28 8.025v.145M14.28 8.17l-.048.194M14.232 8.364l-.048.096M14.184 8.46l-.097.097M14.087 8.557l-.145.048M13.942 8.606H13.7"/>
    </g>
    <g class="stroked-text" style="fill:none;stroke:#a90000;stroke-width:.1524;stroke-opacity:1;stroke-linecap:round;stroke-linejoin:round">
        <path d="M8.466 7.726H7.74M8.103 7.726v-1.27M8.103 6.456l-.121.181M7.982 6.638l-.121.12M7.86 6.758l-.12.06"/>
    </g>
    <path d="M10.008 10.684h-3.81" style="fill:none;stroke:#840000;stroke-width:.1524;stroke-opacity:1;stroke-linecap:round;stroke-linejoin:round"/>
    <g class="stroked-text" style="fill:none;stroke:#006464;stroke-width:.1524;stroke-opacity:1;stroke-linecap:round;stroke-linejoin:round">
        <path d="m11.475 10.13.338 1.015M11.813 11.146l.339-1.017M13.071 11.049l-.048.048M13.023 11.097l-.145.049M12.878 11.146h-.097M12.78 11.146l-.144-.049M12.636 11.097 12.539 11M12.539 11l-.048-.096M12.49 10.904l-.048-.194M12.442 10.71v-.145M12.442 10.565l.049-.194M12.49 10.371l.049-.096M12.539 10.275l.097-.097M12.636 10.178l.145-.049M12.78 10.13h.098M12.878 10.13l.145.048M13.023 10.178l.048.048M14.087 11.049l-.048.048M14.039 11.097l-.145.049M13.894 11.146h-.097M13.797 11.146l-.145-.049M13.652 11.097 13.555 11M13.555 11l-.048-.096M13.507 10.904l-.049-.194M13.458 10.71v-.145M13.458 10.565l.049-.194M13.507 10.371l.048-.096M13.555 10.275l.097-.097M13.652 10.178l.145-.049M13.797 10.13h.097M13.894 10.13l.145.048M14.039 10.178l.048.048"/>
    </g>
    <g class="stroked-text" style="fill:none;stroke:#a90000;stroke-width:.1524;stroke-opacity:1;stroke-linecap:round;stroke-linejoin:round">
        <path d="m7.74 9.117.06-.06M7.8 9.057l.121-.061M7.921 8.996h.303M8.224 8.996l.12.06M8.345 9.057l.06.06M8.405 9.117l.06.12M8.466 9.238v.12M8.466 9.359l-.061.181M8.405 9.54l-.726.726M7.68 10.266h.786"/>
    </g>
    <path d="M10.008 13.224h-3.81" style="fill:none;stroke:#840000;stroke-width:.1524;stroke-opacity:1;stroke-linecap:round;stroke-linejoin:round"/>
    <g class="stroked-text" style="fill:none;stroke:#006464;stroke-width:.1524;stroke-opacity:1;stroke-linecap:round;stroke-linejoin:round">
        <path d="m11.571 13.637.145.048M11.716 13.686h.242M11.958 13.686l.097-.049M12.055 13.637l.049-.048M12.104 13.589l.048-.097M12.152 13.492v-.097M12.152 13.395l-.048-.096M12.104 13.299l-.049-.049M12.055 13.25l-.097-.048M11.958 13.202l-.193-.049M11.765 13.153l-.097-.048M11.668 13.105l-.048-.048M11.62 13.057l-.049-.097M11.571 12.96v-.097M11.571 12.863l.049-.097M11.62 12.766l.048-.048M11.668 12.718l.097-.049M11.765 12.67h.242M12.007 12.67l.145.048M12.587 13.686v-1.017M12.587 12.67h.242M12.83 12.67l.144.048M12.974 12.718l.097.097M13.071 12.815l.048.096M13.12 12.911l.048.194M13.168 13.105v.145M13.168 13.25l-.049.194M13.12 13.444l-.049.096M13.071 13.54l-.097.097M12.974 13.637l-.145.048M12.83 13.686h-.243M13.555 13.395h.484M13.458 13.686l.339-1.017M13.797 12.67l.338 1.015"/>
    </g>
    <g class="stroked-text" style="fill:none;stroke:#a90000;stroke-width:.1524;stroke-opacity:1;stroke-linecap:round;stroke-linejoin:round">
        <path d="M7.68 11.536h.786M8.466 11.536l-.424.484M8.042 12.02h.182M8.224 12.02l.12.06M8.345 12.08l.06.06M8.405 12.14l.06.122M8.466 12.262v.302M8.466 12.564l-.061.121M8.405 12.685l-.06.06M8.345 12.746l-.121.06M8.224 12.806H7.86M7.86 12.806l-.12-.06M7.74 12.746l-.06-.06"/>
    </g>
    <path d="M10.008 15.764h-3.81" style="fill:none;stroke:#840000;stroke-width:.1524;stroke-opacity:1;stroke-linecap:round;stroke-linejoin:round"/>
    <g class="stroked-text" style="fill:none;stroke:#006464;stroke-width:.1524;stroke-opacity:1;stroke-linecap:round;stroke-linejoin:round">
        <path d="m11.571 16.177.145.049M11.716 16.226h.242M11.958 16.226l.097-.049M12.055 16.177l.049-.048M12.104 16.129l.048-.097M12.152 16.032v-.097M12.152 15.935l-.048-.097M12.104 15.839l-.049-.049M12.055 15.79l-.097-.048M11.958 15.742l-.193-.049M11.765 15.693l-.097-.048M11.668 15.645l-.048-.048M11.62 15.597l-.049-.097M11.571 15.5v-.097M11.571 15.403l.049-.097M11.62 15.306l.048-.048M11.668 15.258l.097-.048M11.765 15.21h.242M12.007 15.21l.145.048M13.168 16.129l-.049.048M13.12 16.177l-.146.049M12.974 16.226h-.097M12.878 16.226l-.146-.049M12.732 16.177l-.096-.097M12.636 16.08l-.049-.096M12.587 15.984l-.048-.194M12.539 15.79v-.145M12.539 15.645l.048-.194M12.587 15.451l.049-.096M12.636 15.355l.096-.097M12.732 15.258l.146-.048M12.878 15.21h.096M12.974 15.21l.145.048M13.12 15.258l.048.048M14.087 16.226h-.484M13.603 16.226V15.21"/>
    </g>
    <g class="stroked-text" style="fill:none;stroke:#a90000;stroke-width:.1524;stroke-opacity:1;stroke-linecap:round;stroke-linejoin:round">
        <path d="M8.345 14.5v.846M8.042 14.016l-.302.907M7.74 14.923h.786"/>
    </g>
    <path d="M10.008 18.304h-3.81" style="fill:none;stroke:#840000;stroke-width:.1524;stroke-opacity:1;stroke-linecap:round;stroke-linejoin:round"/>
    <g class="stroked-text" style="fill:none;stroke:#006464;stroke-width:.1524;stroke-opacity:1;stroke-linecap:round;stroke-linejoin:round">
        <path d="M11.62 18.766V17.75M12.297 17.75h.194M12.49 17.75l.097.048M12.587 17.798l.097.097M12.684 17.895l.048.193M12.732 18.088v.339M12.732 18.427l-.048.193M12.684 18.62l-.097.097M12.587 18.717l-.096.049M12.49 18.766h-.193M12.297 18.766l-.097-.049M12.2 18.717l-.096-.097M12.104 18.62l-.049-.193M12.055 18.427v-.339M12.055 18.088l.049-.193M12.104 17.895l.096-.097M12.2 17.798l.097-.048M13.7 18.766h-.58M13.41 18.766V17.75M13.41 17.75l-.097.145M13.313 17.895l-.097.096M13.216 17.991l-.096.049"/>
    </g>
    <g class="stroked-text" style="fill:none;stroke:#a90000;stroke-width:.1524;stroke-opacity:1;stroke-linecap:round;stroke-linejoin:round">
        <path d="M8.405 16.616H7.8M7.8 16.616l-.06.605M7.74 17.22l.06-.06M7.8 17.16l.121-.06M7.921 17.1h.303M8.224 17.1l.12.06M8.345 17.16l.06.06M8.405 17.22l.06.122M8.466 17.342v.302M8.466 17.644l-.061.121M8.405 17.765l-.06.06M8.345 17.826l-.121.06M8.224 17.886H7.92M7.921 17.886l-.12-.06M7.8 17.826l-.06-.06"/>
    </g>
    <g style="fill:none;stroke:#006464;stroke-width:.1524;stroke-opacity:1;stroke-linecap:round;stroke-linejoin:round">
        <g class="stroked-text">
            <path d="M-.363-8.625v.907M-.363-7.718l-.06.181M-.423-7.536l-.121.12M-.544-7.416l-.182.06M-.726-7.355h-.12M.423-7.476l.06.06M.484-7.416l-.06.06M.423-7.355l-.06-.06M.363-7.416l.06-.06M.423-7.476v.12M.181-8.565l.121-.06M.302-8.625h.303M.605-8.625l.12.06M.726-8.565l.06.121M.786-8.444v.121M.786-8.323l-.06.121M.726-8.202l-.06.06M.665-8.141l-.12.06M.544-8.08l-.06.06M.484-8.02l-.06.12M.423-7.9v.061"/>
        </g>
        <g class="stroked-text">
            <path d="m-9.313-5.19-.06.06M-9.374-5.13l-.181.06M-9.555-5.07h-.121M-9.676-5.07l-.181-.06M-9.857-5.13l-.121-.12M-9.978-5.25l-.06-.122M-10.039-5.371l-.06-.242M-10.1-5.613v-.182M-10.1-5.795l.061-.242M-10.039-6.037l.06-.12M-9.978-6.158l.12-.12M-9.857-6.279l.181-.06M-9.676-6.34h.12M-9.555-6.34l.181.061M-9.374-6.279l.06.06M-8.587-5.07l-.121-.06M-8.708-5.13l-.06-.06M-8.769-5.19l-.06-.121M-8.83-5.311v-.363M-8.83-5.674l.061-.12M-8.769-5.795l.06-.06M-8.708-5.855l.12-.06M-8.587-5.916h.181M-8.406-5.916l.12.06M-8.285-5.855l.06.06M-8.225-5.795l.06.121M-8.164-5.674v.363M-8.164-5.311l-.06.121M-8.225-5.19l-.06.06M-8.285-5.13l-.121.06M-8.406-5.07h-.181M-7.62-5.916v.847M-7.62-5.795l.06-.06M-7.56-5.855l.122-.06M-7.438-5.916h.181M-7.257-5.916l.12.06M-7.136-5.855l.06.12M-7.076-5.734v.665M-6.47-5.916v.847M-6.47-5.795l.06-.06M-6.41-5.855l.12-.06M-6.29-5.916h.182M-6.108-5.916l.12.06M-5.987-5.855l.06.12M-5.927-5.734v.665M-5.624-4.948h.967M-4.354-5.07v-1.27M-4.354-6.34h.484M-3.87-6.34l.12.061M-3.75-6.279l.061.06M-3.689-6.218l.06.12M-3.629-6.097v.181M-3.629-5.916l-.06.121M-3.689-5.795l-.06.06M-3.75-5.734l-.12.06M-3.87-5.674h-.484M-3.084-5.07v-.846M-3.084-6.34l-.06.061M-3.145-6.279l.06.06M-3.084-6.218l.06-.06M-3.024-6.279l-.06-.06M-3.084-6.34v.122M-2.48-5.07v-.846M-2.48-5.795l.061-.06M-2.419-5.855l.121-.06M-2.298-5.916h.181M-2.117-5.916l.121.06M-1.996-5.855l.06.12M-1.935-5.734v.665M-1.935-5.734l.06-.121M-1.875-5.855l.121-.06M-1.754-5.916h.182M-1.572-5.916l.12.06M-1.451-5.855l.06.12M-1.39-5.734v.665M-.605-5.07l-.12-.06M-.726-5.13l-.06-.06M-.786-5.19l-.06-.121M-.847-5.311v-.363M-.847-5.674l.06-.12M-.786-5.795l.06-.06M-.726-5.855l.121-.06M-.605-5.916h.182M-.423-5.916l.12.06M-.302-5.855l.06.06M-.242-5.795l.06.121M-.181-5.674v.363M-.181-5.311l-.06.121M-.242-5.19l-.06.06M-.302-5.13l-.121.06M-.423-5.07h-.182M.363-5.07v-.846M.363-5.674l.06-.12M.423-5.795l.06-.06M.484-5.855l.12-.06M.605-5.916h.12M1.33-5.07l-.12-.06M1.21-5.13l-.061-.06M1.149-5.19l-.06-.121M1.089-5.311v-.363M1.089-5.674l.06-.12M1.149-5.795l.06-.06M1.21-5.855l.12-.06M1.33-5.916h.182M1.512-5.916l.12.06M1.633-5.855l.06.06M1.693-5.795l.06.121M1.754-5.674v.363M1.754-5.311l-.06.121M1.693-5.19l-.06.06M1.633-5.13l-.121.06M1.512-5.07H1.33M2.298-5.916v.847M2.298-5.795l.06-.06M2.358-5.855l.121-.06M2.48-5.916h.18M2.66-5.916l.122.06M2.782-5.855l.06.12M2.842-5.734v.665M3.447-5.07v-.846M3.447-6.34l-.06.061M3.387-6.279l.06.06M3.447-6.218l.06-.06M3.507-6.279l-.06-.06M3.447-6.34v.122M4.475-5.734l.182.06M4.657-5.674l.06.06M4.717-5.613l.06.12M4.777-5.492v.181M4.777-5.311l-.06.121M4.717-5.19l-.06.06M4.657-5.13l-.122.06M4.536-5.07h-.484M4.052-5.07v-1.27M4.052-6.34h.423M4.475-6.34l.121.061M4.596-6.279l.06.06M4.657-6.218l.06.12M4.717-6.097v.12M4.717-5.976l-.06.12M4.657-5.855l-.061.06M4.596-5.795l-.12.06M4.475-5.734h-.423M5.987-6.279l-.121-.06M5.866-6.34h-.181M5.685-6.34l-.182.061M5.503-6.279l-.12.121M5.382-6.158l-.06.121M5.322-6.037l-.06.242M5.261-5.795v.182M5.261-5.613l.06.242M5.322-5.371l.06.12M5.382-5.25l.121.12M5.503-5.13l.182.06M5.685-5.07h.12M5.806-5.07l.181-.06M5.987-5.13l.06-.06M6.047-5.19v-.423M6.047-5.613h-.241M6.29-4.948h.967M7.56-5.07v-1.27M8.104-6.218l.06-.06M8.164-6.279l.121-.06M8.285-6.34h.303M8.588-6.34l.12.061M8.708-6.279l.06.06M8.769-6.218l.06.12M8.83-6.097v.12M8.83-5.976l-.061.181M8.769-5.795l-.726.726M8.043-5.07h.786M10.1-5.19l-.061.06M10.039-5.13l-.182.06M9.857-5.07h-.12M9.737-5.07l-.182-.06M9.555-5.13l-.12-.12M9.434-5.25l-.06-.122M9.374-5.371l-.06-.242M9.313-5.613v-.182M9.313-5.795l.06-.242M9.374-6.037l.06-.12M9.434-6.158l.121-.12M9.555-6.279l.181-.06M9.737-6.34h.12M9.857-6.34l.182.061M10.039-6.279l.06.06"/>
        </g>
    </g>
</svg>
