<svg xmlns="http://www.w3.org/2000/svg" width="97.248" height="67.392" viewBox="0 0 25.73 17.831">
    <g style="fill:#ffffc2;fill-opacity:1;stroke:none">
        <rect width="5.08" height="10.16" x="10.325" y="6.061" rx="0"/>
        <path d="M10.325 7.33h1.27M10.325 9.87h1.27M10.325 12.41h1.27M10.325 14.95h1.27" style="stroke:#840000;stroke-width:.5;stroke-opacity:1;stroke-linecap:round;stroke-linejoin:round;fill:none"/>
    </g>
    <rect width="5.08" height="10.16" x="10.325" y="6.061" rx="0" style="fill:none;stroke:#840000;stroke-width:.254;stroke-opacity:1;stroke-linecap:round;stroke-linejoin:round"/>
    <path d="M10.325 7.33h-3.81" style="fill:none;stroke:#840000;stroke-width:.1524;stroke-opacity:1;stroke-linecap:round;stroke-linejoin:round"/>
    <g class="stroked-text" style="fill:none;stroke:#006464;stroke-width:.1524;stroke-opacity:1;stroke-linecap:round;stroke-linejoin:round">
        <path d="m12.596 6.825-.096-.048M12.5 6.777h-.146M12.354 6.777l-.145.048M12.21 6.825l-.098.097M12.113 6.922l-.049.097M12.064 7.019l-.048.193M12.016 7.212v.145M12.016 7.357l.048.194M12.064 7.55l.049.098M12.113 7.648l.096.096M12.21 7.744l.144.049M12.354 7.793h.097M12.451 7.793l.145-.049M12.596 7.744l.049-.048M12.645 7.696v-.339M12.645 7.357h-.194M13.08 7.793V6.777M13.08 6.777l.58 1.016M13.66 7.793V6.777M14.145 7.793V6.777M14.145 6.777h.242M14.387 6.777l.145.048M14.532 6.825l.096.097M14.628 6.922l.049.097M14.677 7.019l.048.193M14.725 7.212v.145M14.725 7.357l-.048.194M14.677 7.55l-.049.098M14.628 7.648l-.096.096M14.532 7.744l-.146.049M14.387 7.793h-.242"/>
    </g>
    <g class="stroked-text" style="fill:none;stroke:#a90000;stroke-width:.1524;stroke-opacity:1;stroke-linecap:round;stroke-linejoin:round">
        <path d="M8.783 6.913h-.726M8.42 6.913v-1.27M8.42 5.643l-.12.182M8.3 5.825l-.122.12M8.178 5.946l-.12.06"/>
    </g>
    <path d="M10.325 9.87h-3.81" style="fill:none;stroke:#840000;stroke-width:.1524;stroke-opacity:1;stroke-linecap:round;stroke-linejoin:round"/>
    <g class="stroked-text" style="fill:none;stroke:#006464;stroke-width:.1524;stroke-opacity:1;stroke-linecap:round;stroke-linejoin:round">
        <path d="m11.919 9.317.339 1.016M12.258 10.333l.338-1.016M13.516 10.236l-.049.048M13.467 10.284l-.145.049M13.322 10.333h-.097M13.225 10.333l-.145-.049M13.08 10.284l-.097-.096M12.983 10.188l-.048-.097M12.935 10.09l-.048-.193M12.887 9.897v-.145M12.887 9.752l.048-.193M12.935 9.559l.048-.097M12.983 9.462l.097-.097M13.08 9.365l.145-.048M13.225 9.317h.097M13.322 9.317l.145.048M13.467 9.365l.049.049M14.532 10.236l-.049.048M14.483 10.284l-.145.049M14.338 10.333h-.097M14.241 10.333l-.145-.049M14.096 10.284 14 10.188M14 10.188l-.049-.097M13.951 10.09l-.048-.193M13.903 9.897v-.145M13.903 9.752l.048-.193M13.951 9.559 14 9.462M14 9.462l.096-.097M14.096 9.365l.145-.048M14.241 9.317h.097M14.338 9.317l.145.048M14.483 9.365l.049.049"/>
    </g>
    <g class="stroked-text" style="fill:none;stroke:#a90000;stroke-width:.1524;stroke-opacity:1;stroke-linecap:round;stroke-linejoin:round">
        <path d="m8.057 8.304.06-.06M8.118 8.244l.12-.06M8.239 8.183h.302M8.541 8.183l.121.06M8.662 8.244l.06.06M8.723 8.304l.06.121M8.783 8.425v.121M8.783 8.546l-.06.181M8.723 8.728l-.726.725M7.997 9.453h.786"/>
    </g>
    <path d="M10.325 12.41h-3.81" style="fill:none;stroke:#840000;stroke-width:.1524;stroke-opacity:1;stroke-linecap:round;stroke-linejoin:round"/>
    <g class="stroked-text" style="fill:none;stroke:#006464;stroke-width:.1524;stroke-opacity:1;stroke-linecap:round;stroke-linejoin:round">
        <path d="m12.016 12.824.145.049M12.16 12.873h.243M12.403 12.873l.097-.049M12.5 12.824l.048-.048M12.548 12.776l.048-.097M12.596 12.68v-.098M12.596 12.582l-.048-.096M12.548 12.486l-.048-.049M12.5 12.437l-.097-.048M12.403 12.389l-.194-.048M12.21 12.34l-.098-.048M12.113 12.292l-.049-.048M12.064 12.244l-.048-.097M12.016 12.147v-.097M12.016 12.05l.048-.097M12.064 11.954l.049-.049M12.113 11.905l.096-.048M12.21 11.857h.241M12.451 11.857l.145.048M13.612 12.776l-.048.048M13.564 12.824l-.145.049M13.419 12.873h-.097M13.322 12.873l-.145-.049M13.177 12.824l-.097-.096M13.08 12.728l-.048-.097M13.032 12.63l-.049-.193M12.983 12.437v-.145M12.983 12.292l.049-.193M13.032 12.099l.048-.097M13.08 12.002l.097-.097M13.177 11.905l.145-.048M13.322 11.857h.097M13.419 11.857l.145.048M13.564 11.905l.048.049M14.532 12.873h-.484M14.048 12.873v-1.016"/>
    </g>
    <g class="stroked-text" style="fill:none;stroke:#a90000;stroke-width:.1524;stroke-opacity:1;stroke-linecap:round;stroke-linejoin:round">
        <path d="M7.997 10.723h.786M8.783 10.723l-.423.484M8.36 11.207h.181M8.541 11.207l.121.06M8.662 11.268l.06.06M8.723 11.328l.06.12M8.783 11.449v.302M8.783 11.751l-.06.121M8.723 11.872l-.061.06M8.662 11.933l-.12.06M8.541 11.993h-.363M8.178 11.993l-.12-.06M8.057 11.933l-.06-.06"/>
    </g>
    <path d="M10.325 14.95h-3.81" style="fill:none;stroke:#840000;stroke-width:.1524;stroke-opacity:1;stroke-linecap:round;stroke-linejoin:round"/>
    <g class="stroked-text" style="fill:none;stroke:#006464;stroke-width:.1524;stroke-opacity:1;stroke-linecap:round;stroke-linejoin:round">
        <path d="m12.016 15.364.145.049M12.16 15.413h.243M12.403 15.413l.097-.049M12.5 15.364l.048-.048M12.548 15.316l.048-.097M12.596 15.22v-.098M12.596 15.122l-.048-.096M12.548 15.026l-.048-.049M12.5 14.977l-.097-.048M12.403 14.929l-.194-.049M12.21 14.88l-.098-.048M12.113 14.832l-.049-.048M12.064 14.784l-.048-.097M12.016 14.687v-.097M12.016 14.59l.048-.097M12.064 14.494l.049-.049M12.113 14.445l.096-.048M12.21 14.397h.241M12.451 14.397l.145.048M13.032 15.413v-1.016M13.032 14.397h.242M13.274 14.397l.145.048M13.419 14.445l.097.097M13.516 14.542l.048.097M13.564 14.639l.048.193M13.612 14.832v.145M13.612 14.977l-.048.194M13.564 15.17l-.048.098M13.516 15.268l-.097.096M13.419 15.364l-.145.049M13.274 15.413h-.242M14 15.122h.483M13.903 15.413l.338-1.016M14.241 14.397l.339 1.016"/>
    </g>
    <g class="stroked-text" style="fill:none;stroke:#a90000;stroke-width:.1524;stroke-opacity:1;stroke-linecap:round;stroke-linejoin:round">
        <path d="M8.662 13.687v.846M8.36 13.203l-.303.907M8.057 14.11h.786"/>
    </g>
    <g style="fill:none;stroke:#006464;stroke-width:.1524;stroke-opacity:1;stroke-linecap:round;stroke-linejoin:round">
        <g class="stroked-text">
            <path d="M-.363-7.101v.907M-.363-6.194l-.06.181M-.423-6.012l-.121.12M-.544-5.892l-.182.06M-.726-5.831h-.12M.423-5.952l.06.06M.484-5.892l-.06.06M.423-5.831l-.06-.06M.363-5.892l.06-.06M.423-5.952v.12M.181-7.04l.121-.061M.302-7.101h.303M.605-7.101l.12.06M.726-7.04l.06.12M.786-6.92v.121M.786-6.799l-.06.121M.726-6.678l-.06.06M.665-6.617l-.12.06M.544-6.557l-.06.06M.484-6.496l-.06.12M.423-6.375v.06"/>
        </g>
        <g class="stroked-text">
            <path d="M-10.311-3.8v-1.27M-10.311-5.07h.484M-9.827-5.07l.12.061M-9.706-5.009l.06.06M-9.646-4.948l.06.12M-9.585-4.827v.181M-9.585-4.646l-.06.121M-9.646-4.525l-.06.06M-9.706-4.464l-.121.06M-9.827-4.404h-.484M-9.041-3.8v-1.27M-8.436-3.8v-1.27M-8.436-5.07l.725 1.27M-7.71-3.8v-1.27M-7.106-3.8v-1.27M-7.106-4.464h.726M-6.38-3.8v-1.27M-5.775-3.8v-1.27M-5.775-5.07h.302M-5.473-5.07l.181.061M-5.291-5.009l.12.121M-5.17-4.888l.06.121M-5.11-4.767l.06.242M-5.05-4.525v.182M-5.05-4.343l-.06.242M-5.11-4.101l-.06.12M-5.17-3.98l-.122.12M-5.291-3.86l-.182.06M-5.473-3.8h-.302M-4.808-3.678h.968M-2.872-3.8h-.726M-3.235-3.8v-1.27M-3.235-5.07l-.121.182M-3.356-4.888l-.121.121M-3.477-4.767l-.121.06M-2.45-3.8l.666-.846M-2.45-4.646l.666.847M-1.058-5.07h.12M-.937-5.07l.12.061M-.816-5.009l.06.06M-.756-4.948l.06.12M-.695-4.827l.06.242M-.635-4.585v.302M-.635-4.283l-.06.242M-.695-4.041l-.06.121M-.756-3.92l-.06.06M-.816-3.86l-.121.06M-.937-3.8h-.121M-1.058-3.8l-.121-.06M-1.18-3.86l-.06-.06M-1.24-3.92l-.06-.121M-1.3-4.041l-.06-.242M-1.36-4.283v-.302M-1.36-4.585l.06-.242M-1.3-4.827l.06-.121M-1.24-4.948l.06-.06M-1.18-5.009l.122-.06M.454-4.646v.847M.151-5.13l-.302.908M-.151-4.222h.786M.817-3.678h.967M2.086-3.8v-1.27M2.63-4.948l.061-.06M2.691-5.009l.121-.06M2.812-5.07h.303M3.115-5.07l.12.061M3.236-5.009l.06.06M3.296-4.948l.06.12M3.357-4.827v.12M3.357-4.706l-.061.181M3.296-4.525l-.726.726M2.57-3.8h.787M4.626-3.92l-.06.06M4.566-3.86l-.181.06M4.385-3.8h-.121M4.264-3.8l-.182-.06M4.082-3.86l-.12-.12M3.961-3.98l-.06-.121M3.9-4.101l-.06-.242M3.84-4.343v-.182M3.84-4.525l.06-.242M3.9-4.767l.061-.12M3.961-4.888l.121-.12M4.082-5.009l.182-.06M4.264-5.07h.12M4.385-5.07l.181.061M4.566-5.009l.06.06M4.868-3.678h.968M6.38-5.07h.242M6.622-5.07l.121.061M6.743-5.009l.121.121M6.864-4.888l.06.242M6.925-4.646v.424M6.925-4.222l-.061.242M6.864-3.98l-.12.12M6.743-3.86l-.12.06M6.622-3.8H6.38M6.38-3.8l-.12-.06M6.26-3.86l-.122-.12M6.138-3.98l-.06-.242M6.078-4.222v-.424M6.078-4.646l.06-.242M6.138-4.888l.121-.12M6.26-5.009l.12-.06M8.074-3.8h-.605M7.469-3.8v-1.27M8.497-4.464h.423M9.102-3.8h-.605M8.497-3.8v-1.27M8.497-5.07h.605M9.646-3.8v-1.27M9.646-5.07h.302M9.948-5.07l.182.061M10.13-5.009l.12.121M10.25-4.888l.061.121M10.311-4.767l.06.242M10.372-4.525v.182M10.372-4.343l-.06.242M10.311-4.101l-.06.12M10.25-3.98l-.12.12M10.13-3.86l-.182.06M9.948-3.8h-.302"/>
        </g>
    </g>
</svg>
