<svg xmlns="http://www.w3.org/2000/svg" width="71.232" height="67.392" viewBox="0 0 18.847 17.831">
    <g style="fill:#ffffc2;fill-opacity:1;stroke:none">
        <rect width="5.08" height="10.16" x="6.883" y="6.061" rx="0"/>
        <path d="M6.883 7.33h1.27M6.883 9.87h1.27M6.883 12.41h1.27M6.883 14.95h1.27" style="stroke:#840000;stroke-width:.5;stroke-opacity:1;stroke-linecap:round;stroke-linejoin:round;fill:none"/>
    </g>
    <rect width="5.08" height="10.16" x="6.883" y="6.061" rx="0" style="fill:none;stroke:#840000;stroke-width:.254;stroke-opacity:1;stroke-linecap:round;stroke-linejoin:round"/>
    <path d="M6.883 7.33h-3.81" style="fill:none;stroke:#840000;stroke-width:.1524;stroke-opacity:1;stroke-linecap:round;stroke-linejoin:round"/>
    <g class="stroked-text" style="fill:none;stroke:#006464;stroke-width:.1524;stroke-opacity:1;stroke-linecap:round;stroke-linejoin:round">
        <path d="m9.155 6.825-.097-.048M9.058 6.777h-.145M8.913 6.777l-.145.048M8.768 6.825l-.097.097M8.67 6.922l-.047.097M8.623 7.019l-.049.193M8.574 7.212v.145M8.574 7.357l.049.194M8.623 7.55l.048.098M8.67 7.648l.098.096M8.768 7.744l.145.049M8.913 7.793h.096M9.01 7.793l.145-.049M9.155 7.744l.048-.048M9.203 7.696v-.339M9.203 7.357h-.194M9.639 7.793V6.777M9.639 6.777l.58 1.016M10.219 7.793V6.777M10.703 7.793V6.777M10.703 6.777h.242M10.945 6.777l.145.048M11.09 6.825l.097.097M11.187 6.922l.048.097M11.235 7.019l.048.193M11.283 7.212v.145M11.283 7.357l-.048.194M11.235 7.55l-.048.098M11.187 7.648l-.097.096M11.09 7.744l-.145.049M10.945 7.793h-.242"/>
    </g>
    <g class="stroked-text" style="fill:none;stroke:#a90000;stroke-width:.1524;stroke-opacity:1;stroke-linecap:round;stroke-linejoin:round">
        <path d="M5.341 6.913h-.725M4.978 6.913v-1.27M4.978 5.643l-.12.182M4.858 5.825l-.121.12M4.737 5.946l-.121.06"/>
    </g>
    <path d="M6.883 9.87h-3.81" style="fill:none;stroke:#840000;stroke-width:.1524;stroke-opacity:1;stroke-linecap:round;stroke-linejoin:round"/>
    <g class="stroked-text" style="fill:none;stroke:#006464;stroke-width:.1524;stroke-opacity:1;stroke-linecap:round;stroke-linejoin:round">
        <path d="m8.477 9.317.339 1.016M8.816 10.333l.339-1.016M10.074 10.236l-.049.048M10.026 10.284l-.146.049M9.88 10.333h-.096M9.784 10.333l-.146-.049M9.639 10.284l-.097-.096M9.542 10.188l-.049-.097M9.493 10.09l-.048-.193M9.445 9.897v-.145M9.445 9.752l.048-.193M9.493 9.559l.049-.097M9.542 9.462l.097-.097M9.639 9.365l.145-.048M9.784 9.317h.096M9.88 9.317l.145.048M10.026 9.365l.048.049M11.09 10.236l-.049.048M11.042 10.284l-.146.049M10.896 10.333H10.8M10.8 10.333l-.146-.049M10.655 10.284l-.097-.096M10.558 10.188l-.049-.097M10.51 10.09l-.049-.193M10.461 9.897v-.145M10.461 9.752l.048-.193M10.51 9.559l.048-.097M10.558 9.462l.097-.097M10.655 9.365l.145-.048M10.8 9.317h.096M10.896 9.317l.145.048M11.042 9.365l.048.049"/>
    </g>
    <g class="stroked-text" style="fill:none;stroke:#a90000;stroke-width:.1524;stroke-opacity:1;stroke-linecap:round;stroke-linejoin:round">
        <path d="m4.616 8.304.06-.06M4.676 8.244l.121-.06M4.797 8.183h.302M5.1 8.183l.12.06M5.22 8.244l.06.06M5.28 8.304l.061.121M5.341 8.425v.121M5.341 8.546l-.06.181M5.28 8.728l-.725.725M4.555 9.453h.786"/>
    </g>
    <path d="M6.883 12.41h-3.81" style="fill:none;stroke:#840000;stroke-width:.1524;stroke-opacity:1;stroke-linecap:round;stroke-linejoin:round"/>
    <g class="stroked-text" style="fill:none;stroke:#006464;stroke-width:.1524;stroke-opacity:1;stroke-linecap:round;stroke-linejoin:round">
        <path d="m8.574 12.824.145.049M8.72 12.873h.241M8.961 12.873l.097-.049M9.058 12.824l.048-.048M9.106 12.776l.049-.097M9.155 12.68v-.098M9.155 12.582l-.049-.096M9.106 12.486l-.048-.049M9.058 12.437l-.097-.048M8.961 12.389l-.193-.048M8.768 12.34l-.097-.048M8.67 12.292l-.047-.048M8.623 12.244l-.049-.097M8.574 12.147v-.097M8.574 12.05l.049-.097M8.623 11.954l.048-.049M8.67 11.905l.098-.048M8.768 11.857h.241M9.01 11.857l.145.048M9.59 12.873v-1.016M9.59 11.857h.242M9.832 11.857l.145.048M9.977 11.905l.097.097M10.074 12.002l.048.097M10.122 12.099l.049.193M10.17 12.292v.145M10.17 12.437l-.048.194M10.122 12.63l-.048.098M10.074 12.728l-.097.096M9.977 12.824l-.145.049M9.832 12.873H9.59M10.558 12.582h.483M10.46 12.873l.34-1.016M10.8 11.857l.338 1.016"/>
    </g>
    <g class="stroked-text" style="fill:none;stroke:#a90000;stroke-width:.1524;stroke-opacity:1;stroke-linecap:round;stroke-linejoin:round">
        <path d="M4.555 10.723h.786M5.341 10.723l-.423.484M4.918 11.207h.181M5.1 11.207l.12.06M5.22 11.268l.06.06M5.28 11.328l.061.12M5.341 11.449v.302M5.341 11.751l-.06.121M5.28 11.872l-.06.06M5.22 11.933l-.12.06M5.1 11.993h-.363M4.737 11.993l-.121-.06M4.616 11.933l-.06-.06"/>
    </g>
    <path d="M6.883 14.95h-3.81" style="fill:none;stroke:#840000;stroke-width:.1524;stroke-opacity:1;stroke-linecap:round;stroke-linejoin:round"/>
    <g class="stroked-text" style="fill:none;stroke:#006464;stroke-width:.1524;stroke-opacity:1;stroke-linecap:round;stroke-linejoin:round">
        <path d="m8.574 15.364.145.049M8.72 15.413h.241M8.961 15.413l.097-.049M9.058 15.364l.048-.048M9.106 15.316l.049-.097M9.155 15.22v-.098M9.155 15.122l-.049-.096M9.106 15.026l-.048-.049M9.058 14.977l-.097-.048M8.961 14.929l-.193-.049M8.768 14.88l-.097-.048M8.67 14.832l-.047-.048M8.623 14.784l-.049-.097M8.574 14.687v-.097M8.574 14.59l.049-.097M8.623 14.494l.048-.049M8.67 14.445l.098-.048M8.768 14.397h.241M9.01 14.397l.145.048M10.17 15.316l-.048.048M10.122 15.364l-.145.049M9.977 15.413H9.88M9.88 15.413l-.145-.049M9.735 15.364l-.097-.096M9.638 15.268l-.048-.097M9.59 15.17l-.048-.193M9.542 14.977v-.145M9.542 14.832l.048-.193M9.59 14.639l.048-.097M9.638 14.542l.097-.097M9.735 14.445l.145-.048M9.88 14.397h.097M9.977 14.397l.145.048M10.122 14.445l.049.048M11.09 15.413h-.484M10.606 15.413v-1.016"/>
    </g>
    <g class="stroked-text" style="fill:none;stroke:#a90000;stroke-width:.1524;stroke-opacity:1;stroke-linecap:round;stroke-linejoin:round">
        <path d="M5.22 13.687v.846M4.918 13.203l-.302.907M4.616 14.11h.786"/>
    </g>
    <g style="fill:none;stroke:#006464;stroke-width:.1524;stroke-opacity:1;stroke-linecap:round;stroke-linejoin:round">
        <g class="stroked-text">
            <path d="M-.363-7.101v.907M-.363-6.194l-.06.181M-.423-6.012l-.121.12M-.544-5.892l-.182.06M-.726-5.831h-.12M.423-5.952l.06.06M.484-5.892l-.06.06M.423-5.831l-.06-.06M.363-5.892l.06-.06M.423-5.952v.12M.181-7.04l.121-.061M.302-7.101h.303M.605-7.101l.12.06M.726-7.04l.06.12M.786-6.92v.121M.786-6.799l-.06.121M.726-6.678l-.06.06M.665-6.617l-.12.06M.544-6.557l-.06.06M.484-6.496l-.06.12M.423-6.375v.06"/>
        </g>
        <g class="stroked-text">
            <path d="M-7.438-3.8v-1.27M-7.438-5.07h.483M-6.955-5.07l.121.061M-6.834-5.009l.06.06M-6.773-4.948l.06.12M-6.713-4.827v.181M-6.713-4.646l-.06.121M-6.773-4.525l-.06.06M-6.834-4.464l-.12.06M-6.955-4.404h-.484M-6.168-3.8v-1.27M-5.564-3.8v-1.27M-5.564-5.07l.726 1.27M-4.838-3.8v-1.27M-4.233-3.8v-1.27M-4.233-4.464h.725M-3.507-3.8v-1.27M-2.903-3.8v-1.27M-2.903-5.07h.303M-2.6-5.07l.181.061M-2.419-5.009l.121.121M-2.298-4.888l.06.121M-2.237-4.767l.06.242M-2.177-4.525v.182M-2.177-4.343l-.06.242M-2.237-4.101l-.06.12M-2.298-3.98l-.12.12M-2.419-3.86l-.181.06M-2.6-3.8h-.303M-1.935-3.678h.968M0-3.8h-.725M-.363-3.8v-1.27M-.363-5.07l-.12.182M-.484-4.888l-.12.121M-.605-4.767l-.12.06M.423-3.8l.666-.846M.423-4.646l.666.847M1.814-5.07h.121M1.935-5.07l.121.061M2.056-5.009l.06.06M2.117-4.948l.06.12M2.177-4.827l.06.242M2.238-4.585v.302M2.238-4.283l-.06.242M2.177-4.041l-.06.121M2.117-3.92l-.06.06M2.056-3.86l-.12.06M1.935-3.8h-.12M1.814-3.8l-.12-.06M1.693-3.86l-.06-.06M1.633-3.92l-.06-.121M1.572-4.041l-.06-.242M1.512-4.283v-.302M1.512-4.585l.06-.242M1.572-4.827l.06-.121M1.633-4.948l.06-.06M1.693-5.009l.121-.06M3.326-4.646v.847M3.024-5.13l-.303.908M2.722-4.222h.786M3.69-3.678h.967M4.959-3.8v-1.27M5.503-4.948l.06-.06M5.564-5.009l.12-.06M5.685-5.07h.302M5.987-5.07l.121.061M6.108-5.009l.06.06M6.169-4.948l.06.12M6.23-4.827v.12M6.23-4.706l-.061.181M6.169-4.525l-.726.726M5.443-3.8h.786M7.499-3.92l-.06.06M7.439-3.86l-.182.06M7.257-3.8h-.12M7.136-3.8l-.181-.06M6.955-3.86l-.121-.12M6.834-3.98l-.06-.121M6.773-4.101l-.06-.242M6.713-4.343v-.182M6.713-4.525l.06-.242M6.773-4.767l.06-.12M6.834-4.888l.12-.12M6.955-5.009l.181-.06M7.136-5.07h.121M7.257-5.07l.182.061M7.439-5.009l.06.06"/>
        </g>
    </g>
</svg>
