<svg xmlns="http://www.w3.org/2000/svg" width="71.232" height="81.216" viewBox="0 0 18.847 21.488">
    <g style="fill:#ffffc2;fill-opacity:1;stroke:none">
        <rect width="5.08" height="12.7" x="6.883" y="6.873" rx="0"/>
        <path d="M6.883 8.143h1.27M6.883 10.684h1.27M6.883 13.224h1.27M6.883 15.764h1.27M6.883 18.304h1.27" style="stroke:#840000;stroke-width:.5;stroke-opacity:1;stroke-linecap:round;stroke-linejoin:round;fill:none"/>
    </g>
    <rect width="5.08" height="12.7" x="6.883" y="6.873" rx="0" style="fill:none;stroke:#840000;stroke-width:.254;stroke-opacity:1;stroke-linecap:round;stroke-linejoin:round"/>
    <path d="M6.883 8.143h-3.81" style="fill:none;stroke:#840000;stroke-width:.1524;stroke-opacity:1;stroke-linecap:round;stroke-linejoin:round"/>
    <g class="stroked-text" style="fill:none;stroke:#006464;stroke-width:.1524;stroke-opacity:1;stroke-linecap:round;stroke-linejoin:round">
        <path d="m9.155 7.638-.097-.048M9.058 7.59h-.145M8.913 7.59l-.145.048M8.768 7.638l-.097.097M8.67 7.735l-.047.096M8.623 7.831l-.049.194M8.574 8.025v.145M8.574 8.17l.049.194M8.623 8.364l.048.096M8.67 8.46l.098.097M8.768 8.557l.145.048M8.913 8.606h.096M9.01 8.606l.145-.049M9.155 8.557l.048-.048M9.203 8.509V8.17M9.203 8.17h-.194M9.639 8.606V7.59M9.639 7.59l.58 1.015M10.219 8.606V7.59M10.703 8.606V7.59M10.703 7.59h.242M10.945 7.59l.145.048M11.09 7.638l.097.097M11.187 7.735l.048.096M11.235 7.831l.048.194M11.283 8.025v.145M11.283 8.17l-.048.194M11.235 8.364l-.048.096M11.187 8.46l-.097.097M11.09 8.557l-.145.048M10.945 8.606h-.242"/>
    </g>
    <g class="stroked-text" style="fill:none;stroke:#a90000;stroke-width:.1524;stroke-opacity:1;stroke-linecap:round;stroke-linejoin:round">
        <path d="M5.341 7.726h-.725M4.978 7.726v-1.27M4.978 6.456l-.12.181M4.858 6.638l-.121.12M4.737 6.758l-.121.06"/>
    </g>
    <path d="M6.883 10.684h-3.81" style="fill:none;stroke:#840000;stroke-width:.1524;stroke-opacity:1;stroke-linecap:round;stroke-linejoin:round"/>
    <g class="stroked-text" style="fill:none;stroke:#006464;stroke-width:.1524;stroke-opacity:1;stroke-linecap:round;stroke-linejoin:round">
        <path d="m8.477 10.13.339 1.015M8.816 11.146l.339-1.017M10.074 11.049l-.049.048M10.026 11.097l-.146.049M9.88 11.146h-.096M9.784 11.146l-.146-.049M9.639 11.097 9.542 11M9.542 11l-.049-.096M9.493 10.904l-.048-.194M9.445 10.71v-.145M9.445 10.565l.048-.194M9.493 10.371l.049-.096M9.542 10.275l.097-.097M9.639 10.178l.145-.049M9.784 10.13h.096M9.88 10.13l.145.048M10.026 10.178l.048.048M11.09 11.049l-.049.048M11.042 11.097l-.146.049M10.896 11.146H10.8M10.8 11.146l-.146-.049M10.655 11.097 10.558 11M10.558 11l-.049-.096M10.51 10.904l-.049-.194M10.461 10.71v-.145M10.461 10.565l.048-.194M10.51 10.371l.048-.096M10.558 10.275l.097-.097M10.655 10.178l.145-.049M10.8 10.13h.096M10.896 10.13l.145.048M11.042 10.178l.048.048"/>
    </g>
    <g class="stroked-text" style="fill:none;stroke:#a90000;stroke-width:.1524;stroke-opacity:1;stroke-linecap:round;stroke-linejoin:round">
        <path d="m4.616 9.117.06-.06M4.676 9.057l.121-.061M4.797 8.996h.302M5.1 8.996l.12.06M5.22 9.057l.06.06M5.28 9.117l.061.12M5.341 9.238v.12M5.341 9.359l-.06.181M5.28 9.54l-.725.726M4.555 10.266h.786"/>
    </g>
    <path d="M6.883 13.224h-3.81" style="fill:none;stroke:#840000;stroke-width:.1524;stroke-opacity:1;stroke-linecap:round;stroke-linejoin:round"/>
    <g class="stroked-text" style="fill:none;stroke:#006464;stroke-width:.1524;stroke-opacity:1;stroke-linecap:round;stroke-linejoin:round">
        <path d="m8.574 13.637.145.048M8.72 13.686h.241M8.961 13.686l.097-.049M9.058 13.637l.048-.048M9.106 13.589l.049-.097M9.155 13.492v-.097M9.155 13.395l-.049-.096M9.106 13.299l-.048-.049M9.058 13.25l-.097-.048M8.961 13.202l-.193-.049M8.768 13.153l-.097-.048M8.67 13.105l-.047-.048M8.623 13.057l-.049-.097M8.574 12.96v-.097M8.574 12.863l.049-.097M8.623 12.766l.048-.048M8.67 12.718l.098-.049M8.768 12.67h.241M9.01 12.67l.145.048M9.59 13.686v-1.017M9.59 12.67h.242M9.832 12.67l.145.048M9.977 12.718l.097.097M10.074 12.815l.048.096M10.122 12.911l.049.194M10.17 13.105v.145M10.17 13.25l-.048.194M10.122 13.444l-.048.096M10.074 13.54l-.097.097M9.977 13.637l-.145.048M9.832 13.686H9.59M10.558 13.395h.483M10.46 13.686l.34-1.017M10.8 12.67l.338 1.015"/>
    </g>
    <g class="stroked-text" style="fill:none;stroke:#a90000;stroke-width:.1524;stroke-opacity:1;stroke-linecap:round;stroke-linejoin:round">
        <path d="M4.555 11.536h.786M5.341 11.536l-.423.484M4.918 12.02h.181M5.1 12.02l.12.06M5.22 12.08l.06.06M5.28 12.14l.061.122M5.341 12.262v.302M5.341 12.564l-.06.121M5.28 12.685l-.06.06M5.22 12.746l-.12.06M5.1 12.806h-.363M4.737 12.806l-.121-.06M4.616 12.746l-.06-.06"/>
    </g>
    <path d="M6.883 15.764h-3.81" style="fill:none;stroke:#840000;stroke-width:.1524;stroke-opacity:1;stroke-linecap:round;stroke-linejoin:round"/>
    <g class="stroked-text" style="fill:none;stroke:#006464;stroke-width:.1524;stroke-opacity:1;stroke-linecap:round;stroke-linejoin:round">
        <path d="m8.574 16.177.145.049M8.72 16.226h.241M8.961 16.226l.097-.049M9.058 16.177l.048-.048M9.106 16.129l.049-.097M9.155 16.032v-.097M9.155 15.935l-.049-.097M9.106 15.839l-.048-.049M9.058 15.79l-.097-.048M8.961 15.742l-.193-.049M8.768 15.693l-.097-.048M8.67 15.645l-.047-.048M8.623 15.597l-.049-.097M8.574 15.5v-.097M8.574 15.403l.049-.097M8.623 15.306l.048-.048M8.67 15.258l.098-.048M8.768 15.21h.241M9.01 15.21l.145.048M10.17 16.129l-.048.048M10.122 16.177l-.145.049M9.977 16.226H9.88M9.88 16.226l-.145-.049M9.735 16.177l-.097-.097M9.638 16.08l-.048-.096M9.59 15.984l-.048-.194M9.542 15.79v-.145M9.542 15.645l.048-.194M9.59 15.451l.048-.096M9.638 15.355l.097-.097M9.735 15.258l.145-.048M9.88 15.21h.097M9.977 15.21l.145.048M10.122 15.258l.049.048M11.09 16.226h-.484M10.606 16.226V15.21"/>
    </g>
    <g class="stroked-text" style="fill:none;stroke:#a90000;stroke-width:.1524;stroke-opacity:1;stroke-linecap:round;stroke-linejoin:round">
        <path d="M5.22 14.5v.846M4.918 14.016l-.302.907M4.616 14.923h.786"/>
    </g>
    <path d="M6.883 18.304h-3.81" style="fill:none;stroke:#840000;stroke-width:.1524;stroke-opacity:1;stroke-linecap:round;stroke-linejoin:round"/>
    <g class="stroked-text" style="fill:none;stroke:#006464;stroke-width:.1524;stroke-opacity:1;stroke-linecap:round;stroke-linejoin:round">
        <path d="M8.623 18.766V17.75M9.3 17.75h.193M9.493 17.75l.097.048M9.59 17.798l.097.097M9.687 17.895l.048.193M9.735 18.088v.339M9.735 18.427l-.048.193M9.687 18.62l-.097.097M9.59 18.717l-.097.049M9.493 18.766H9.3M9.3 18.766l-.097-.049M9.203 18.717l-.097-.097M9.106 18.62l-.048-.193M9.058 18.427v-.339M9.058 18.088l.048-.193M9.106 17.895l.097-.097M9.203 17.798l.097-.048M10.703 18.766h-.58M10.413 18.766V17.75M10.413 17.75l-.097.145M10.316 17.895l-.097.096M10.219 17.991l-.097.049"/>
    </g>
    <g class="stroked-text" style="fill:none;stroke:#a90000;stroke-width:.1524;stroke-opacity:1;stroke-linecap:round;stroke-linejoin:round">
        <path d="M5.28 16.616h-.604M4.676 16.616l-.06.605M4.616 17.22l.06-.06M4.676 17.16l.121-.06M4.797 17.1h.302M5.1 17.1l.12.06M5.22 17.16l.06.06M5.28 17.22l.061.122M5.341 17.342v.302M5.341 17.644l-.06.121M5.28 17.765l-.06.06M5.22 17.826l-.12.06M5.1 17.886h-.303M4.797 17.886l-.121-.06M4.676 17.826l-.06-.06"/>
    </g>
    <g style="fill:none;stroke:#006464;stroke-width:.1524;stroke-opacity:1;stroke-linecap:round;stroke-linejoin:round">
        <g class="stroked-text">
            <path d="M-.363-8.625v.907M-.363-7.718l-.06.181M-.423-7.536l-.121.12M-.544-7.416l-.182.06M-.726-7.355h-.12M.423-7.476l.06.06M.484-7.416l-.06.06M.423-7.355l-.06-.06M.363-7.416l.06-.06M.423-7.476v.12M.181-8.565l.121-.06M.302-8.625h.303M.605-8.625l.12.06M.726-8.565l.06.121M.786-8.444v.121M.786-8.323l-.06.121M.726-8.202l-.06.06M.665-8.141l-.12.06M.544-8.08l-.06.06M.484-8.02l-.06.12M.423-7.9v.061"/>
        </g>
        <g class="stroked-text">
            <path d="M-7.438-5.07v-1.27M-7.438-6.34h.483M-6.955-6.34l.121.061M-6.834-6.279l.06.06M-6.773-6.218l.06.12M-6.713-6.097v.181M-6.713-5.916l-.06.121M-6.773-5.795l-.06.06M-6.834-5.734l-.12.06M-6.955-5.674h-.484M-6.168-5.07v-1.27M-5.564-5.07v-1.27M-5.564-6.34l.726 1.27M-4.838-5.07v-1.27M-4.233-5.07v-1.27M-4.233-5.734h.725M-3.507-5.07v-1.27M-2.903-5.07v-1.27M-2.903-6.34h.303M-2.6-6.34l.181.061M-2.419-6.279l.121.121M-2.298-6.158l.06.121M-2.237-6.037l.06.242M-2.177-5.795v.182M-2.177-5.613l-.06.242M-2.237-5.371l-.06.12M-2.298-5.25l-.12.12M-2.419-5.13l-.181.06M-2.6-5.07h-.303M-1.935-4.948h.968M0-5.07h-.725M-.363-5.07v-1.27M-.363-6.34l-.12.182M-.484-6.158l-.12.121M-.605-6.037l-.12.06M.423-5.07l.666-.846M.423-5.916l.666.847M1.814-6.34h.121M1.935-6.34l.121.061M2.056-6.279l.06.06M2.117-6.218l.06.12M2.177-6.097l.06.242M2.238-5.855v.302M2.238-5.553l-.06.242M2.177-5.311l-.06.121M2.117-5.19l-.06.06M2.056-5.13l-.12.06M1.935-5.07h-.12M1.814-5.07l-.12-.06M1.693-5.13l-.06-.06M1.633-5.19l-.06-.121M1.572-5.311l-.06-.242M1.512-5.553v-.302M1.512-5.855l.06-.242M1.572-6.097l.06-.121M1.633-6.218l.06-.06M1.693-6.279l.121-.06M3.387-6.34h-.605M2.782-6.34l-.06.606M2.722-5.734l.06-.06M2.782-5.795l.12-.06M2.903-5.855h.302M3.205-5.855l.121.06M3.326-5.795l.06.06M3.387-5.734l.06.12M3.447-5.613v.302M3.447-5.311l-.06.121M3.387-5.19l-.06.06M3.326-5.13l-.12.06M3.205-5.07h-.302M2.903-5.07l-.121-.06M2.782-5.13l-.06-.06M3.69-4.948h.967M4.959-5.07v-1.27M5.503-6.218l.06-.06M5.564-6.279l.12-.06M5.685-6.34h.302M5.987-6.34l.121.061M6.108-6.279l.06.06M6.169-6.218l.06.12M6.23-6.097v.12M6.23-5.976l-.061.181M6.169-5.795l-.726.726M5.443-5.07h.786M7.499-5.19l-.06.06M7.439-5.13l-.182.06M7.257-5.07h-.12M7.136-5.07l-.181-.06M6.955-5.13l-.121-.12M6.834-5.25l-.06-.122M6.773-5.371l-.06-.242M6.713-5.613v-.182M6.713-5.795l.06-.242M6.773-6.037l.06-.12M6.834-6.158l.12-.12M6.955-6.279l.181-.06M7.136-6.34h.121M7.257-6.34l.182.061M7.439-6.279l.06.06"/>
        </g>
    </g>
</svg>
