<svg xmlns="http://www.w3.org/2000/svg" width="71.232" height="92.16" viewBox="0 0 18.847 24.384">
    <g style="fill:#ffffc2;fill-opacity:1;stroke:none">
        <rect width="5.08" height="15.24" x="6.883" y="6.988" rx="0"/>
        <path d="M6.883 8.258h1.27M6.883 10.798h1.27M6.883 13.338h1.27M6.883 15.878h1.27M6.883 18.418h1.27M6.883 20.958h1.27" style="stroke:#840000;stroke-width:.5;stroke-opacity:1;stroke-linecap:round;stroke-linejoin:round;fill:none"/>
    </g>
    <rect width="5.08" height="15.24" x="6.883" y="6.988" rx="0" style="fill:none;stroke:#840000;stroke-width:.254;stroke-opacity:1;stroke-linecap:round;stroke-linejoin:round"/>
    <path d="M6.883 8.258h-3.81" style="fill:none;stroke:#840000;stroke-width:.1524;stroke-opacity:1;stroke-linecap:round;stroke-linejoin:round"/>
    <g class="stroked-text" style="fill:none;stroke:#006464;stroke-width:.1524;stroke-opacity:1;stroke-linecap:round;stroke-linejoin:round">
        <path d="m9.155 7.752-.097-.048M9.058 7.704h-.145M8.913 7.704l-.145.048M8.768 7.752l-.097.097M8.67 7.849l-.047.097M8.623 7.946l-.049.193M8.574 8.14v.144M8.574 8.284l.049.194M8.623 8.478l.048.097M8.67 8.575l.098.097M8.768 8.672l.145.048M8.913 8.72h.096M9.01 8.72l.145-.049M9.155 8.672l.048-.049M9.203 8.623v-.339M9.203 8.284h-.194M9.639 8.72V7.704M9.639 7.704l.58 1.016M10.219 8.72V7.704M10.703 8.72V7.704M10.703 7.704h.242M10.945 7.704l.145.048M11.09 7.752l.097.097M11.187 7.849l.048.097M11.235 7.946l.048.193M11.283 8.14v.144M11.283 8.284l-.048.194M11.235 8.478l-.048.097M11.187 8.575l-.097.097M11.09 8.672l-.145.048M10.945 8.72h-.242"/>
    </g>
    <g class="stroked-text" style="fill:none;stroke:#a90000;stroke-width:.1524;stroke-opacity:1;stroke-linecap:round;stroke-linejoin:round">
        <path d="M5.341 7.84h-.725M4.978 7.84V6.57M4.978 6.57l-.12.182M4.858 6.752l-.121.12M4.737 6.873l-.121.06"/>
    </g>
    <path d="M6.883 10.798h-3.81" style="fill:none;stroke:#840000;stroke-width:.1524;stroke-opacity:1;stroke-linecap:round;stroke-linejoin:round"/>
    <g class="stroked-text" style="fill:none;stroke:#006464;stroke-width:.1524;stroke-opacity:1;stroke-linecap:round;stroke-linejoin:round">
        <path d="m8.477 10.244.339 1.016M8.816 11.26l.339-1.016M10.074 11.163l-.049.048M10.026 11.212l-.146.048M9.88 11.26h-.096M9.784 11.26l-.146-.049M9.639 11.212l-.097-.097M9.542 11.115l-.049-.097M9.493 11.018l-.048-.194M9.445 10.824v-.145M9.445 10.68l.048-.194M9.493 10.486l.049-.097M9.542 10.389l.097-.097M9.639 10.292l.145-.048M9.784 10.244h.096M9.88 10.244l.145.048M10.026 10.292l.048.049M11.09 11.163l-.049.048M11.042 11.212l-.146.048M10.896 11.26H10.8M10.8 11.26l-.146-.049M10.655 11.212l-.097-.097M10.558 11.115l-.049-.097M10.51 11.018l-.049-.194M10.461 10.824v-.145M10.461 10.68l.048-.194M10.51 10.486l.048-.097M10.558 10.389l.097-.097M10.655 10.292l.145-.048M10.8 10.244h.096M10.896 10.244l.145.048M11.042 10.292l.048.049"/>
    </g>
    <g class="stroked-text" style="fill:none;stroke:#a90000;stroke-width:.1524;stroke-opacity:1;stroke-linecap:round;stroke-linejoin:round">
        <path d="m4.616 9.231.06-.06M4.676 9.17l.121-.06M4.797 9.11h.302M5.1 9.11l.12.06M5.22 9.17l.06.061M5.28 9.231l.061.121M5.341 9.352v.121M5.341 9.473l-.06.182M5.28 9.655l-.725.725M4.555 10.38h.786"/>
    </g>
    <path d="M6.883 13.338h-3.81" style="fill:none;stroke:#840000;stroke-width:.1524;stroke-opacity:1;stroke-linecap:round;stroke-linejoin:round"/>
    <g class="stroked-text" style="fill:none;stroke:#006464;stroke-width:.1524;stroke-opacity:1;stroke-linecap:round;stroke-linejoin:round">
        <path d="m8.574 13.752.145.048M8.72 13.8h.241M8.961 13.8l.097-.049M9.058 13.752l.048-.049M9.106 13.703l.049-.097M9.155 13.606v-.097M9.155 13.51l-.049-.097M9.106 13.413l-.048-.049M9.058 13.364l-.097-.048M8.961 13.316l-.193-.048M8.768 13.268l-.097-.049M8.67 13.22l-.047-.05M8.623 13.17l-.049-.096M8.574 13.074v-.097M8.574 12.977l.049-.096M8.623 12.88l.048-.048M8.67 12.832l.098-.048M8.768 12.784h.241M9.01 12.784l.145.048M9.59 13.8v-1.016M9.59 12.784h.242M9.832 12.784l.145.048M9.977 12.832l.097.097M10.074 12.929l.048.097M10.122 13.026l.049.193M10.17 13.22v.144M10.17 13.364l-.048.194M10.122 13.558l-.048.097M10.074 13.655l-.097.097M9.977 13.752l-.145.048M9.832 13.8H9.59M10.558 13.51h.483M10.46 13.8l.34-1.016M10.8 12.784l.338 1.016"/>
    </g>
    <g class="stroked-text" style="fill:none;stroke:#a90000;stroke-width:.1524;stroke-opacity:1;stroke-linecap:round;stroke-linejoin:round">
        <path d="M4.555 11.65h.786M5.341 11.65l-.423.484M4.918 12.134h.181M5.1 12.134l.12.06M5.22 12.195l.06.06M5.28 12.255l.061.121M5.341 12.376v.302M5.341 12.678l-.06.121M5.28 12.8l-.06.06M5.22 12.86l-.12.06M5.1 12.92h-.363M4.737 12.92l-.121-.06M4.616 12.86l-.06-.06"/>
    </g>
    <path d="M6.883 15.878h-3.81" style="fill:none;stroke:#840000;stroke-width:.1524;stroke-opacity:1;stroke-linecap:round;stroke-linejoin:round"/>
    <g class="stroked-text" style="fill:none;stroke:#006464;stroke-width:.1524;stroke-opacity:1;stroke-linecap:round;stroke-linejoin:round">
        <path d="m8.574 16.292.145.048M8.72 16.34h.241M8.961 16.34l.097-.049M9.058 16.292l.048-.049M9.106 16.243l.049-.097M9.155 16.146v-.097M9.155 16.05l-.049-.097M9.106 15.953l-.048-.049M9.058 15.904l-.097-.048M8.961 15.856l-.193-.048M8.768 15.808l-.097-.049M8.67 15.76l-.047-.05M8.623 15.71l-.049-.096M8.574 15.614v-.097M8.574 15.517l.049-.096M8.623 15.42l.048-.048M8.67 15.372l.098-.048M8.768 15.324h.241M9.01 15.324l.145.048M10.17 16.243l-.048.049M10.122 16.292l-.145.048M9.977 16.34H9.88M9.88 16.34l-.145-.049M9.735 16.292l-.097-.097M9.638 16.195l-.048-.097M9.59 16.098l-.048-.194M9.542 15.904v-.145M9.542 15.76l.048-.194M9.59 15.566l.048-.097M9.638 15.469l.097-.097M9.735 15.372l.145-.048M9.88 15.324h.097M9.977 15.324l.145.048M10.122 15.372l.049.049M11.09 16.34h-.484M10.606 16.34v-1.016"/>
    </g>
    <g class="stroked-text" style="fill:none;stroke:#a90000;stroke-width:.1524;stroke-opacity:1;stroke-linecap:round;stroke-linejoin:round">
        <path d="M5.22 14.614v.846M4.918 14.13l-.302.907M4.616 15.037h.786"/>
    </g>
    <path d="M6.883 18.418h-3.81" style="fill:none;stroke:#840000;stroke-width:.1524;stroke-opacity:1;stroke-linecap:round;stroke-linejoin:round"/>
    <g class="stroked-text" style="fill:none;stroke:#006464;stroke-width:.1524;stroke-opacity:1;stroke-linecap:round;stroke-linejoin:round">
        <path d="M8.623 18.88v-1.016M9.3 17.864h.193M9.493 17.864l.097.048M9.59 17.912l.097.097M9.687 18.009l.048.194M9.735 18.203v.338M9.735 18.541l-.048.194M9.687 18.735l-.097.096M9.59 18.832l-.097.048M9.493 18.88H9.3M9.3 18.88l-.097-.049M9.203 18.832l-.097-.097M9.106 18.735l-.048-.194M9.058 18.541v-.338M9.058 18.203l.048-.194M9.106 18.009l.097-.097M9.203 17.912l.097-.048M10.703 18.88h-.58M10.413 18.88v-1.016M10.413 17.864l-.097.145M10.316 18.009l-.097.097M10.219 18.106l-.097.048"/>
    </g>
    <g class="stroked-text" style="fill:none;stroke:#a90000;stroke-width:.1524;stroke-opacity:1;stroke-linecap:round;stroke-linejoin:round">
        <path d="M5.28 16.73h-.604M4.676 16.73l-.06.605M4.616 17.335l.06-.06M4.676 17.275l.121-.06M4.797 17.214h.302M5.1 17.214l.12.06M5.22 17.275l.06.06M5.28 17.335l.061.121M5.341 17.456v.302M5.341 17.758l-.06.121M5.28 17.88l-.06.06M5.22 17.94 5.1 18M5.1 18h-.303M4.797 18l-.121-.06M4.676 17.94l-.06-.06"/>
    </g>
    <path d="M6.883 20.958h-3.81" style="fill:none;stroke:#840000;stroke-width:.1524;stroke-opacity:1;stroke-linecap:round;stroke-linejoin:round"/>
    <g class="stroked-text" style="fill:none;stroke:#006464;stroke-width:.1524;stroke-opacity:1;stroke-linecap:round;stroke-linejoin:round">
        <path d="M8.623 21.42v-1.016M9.3 20.404h.193M9.493 20.404l.097.048M9.59 20.452l.097.097M9.687 20.549l.048.194M9.735 20.743v.338M9.735 21.081l-.048.194M9.687 21.275l-.097.097M9.59 21.372l-.097.048M9.493 21.42H9.3M9.3 21.42l-.097-.049M9.203 21.372l-.097-.097M9.106 21.275l-.048-.194M9.058 21.081v-.338M9.058 20.743l.048-.194M9.106 20.549l.097-.097M9.203 20.452l.097-.048M10.122 20.5l.049-.048M10.17 20.452l.097-.048M10.267 20.404h.242M10.51 20.404l.096.048M10.606 20.452l.049.049M10.655 20.5l.048.097M10.703 20.597v.097M10.703 20.694l-.048.145M10.655 20.84l-.581.58M10.074 21.42h.629"/>
    </g>
    <g class="stroked-text" style="fill:none;stroke:#a90000;stroke-width:.1524;stroke-opacity:1;stroke-linecap:round;stroke-linejoin:round">
        <path d="M5.22 19.27h-.242M4.978 19.27l-.12.06M4.858 19.33l-.061.061M4.797 19.391l-.121.182M4.676 19.573l-.06.242M4.616 19.815v.483M4.616 20.298l.06.121M4.676 20.42l.06.06M4.737 20.48l.12.06M4.858 20.54h.241M5.1 20.54l.12-.06M5.22 20.48l.06-.06M5.28 20.42l.061-.122M5.341 20.298v-.302M5.341 19.996l-.06-.12M5.28 19.875l-.06-.06M5.22 19.815l-.12-.06M5.1 19.754h-.242M4.858 19.754l-.121.06M4.737 19.815l-.061.06M4.676 19.875l-.06.121"/>
    </g>
    <g style="fill:none;stroke:#006464;stroke-width:.1524;stroke-opacity:1;stroke-linecap:round;stroke-linejoin:round">
        <g class="stroked-text">
            <path d="M-.363-9.832v.908M-.363-8.924l-.06.181M-.423-8.743l-.121.12M-.544-8.622l-.182.06M-.726-8.562h-.12M.423-8.682l.06.06M.484-8.622l-.06.06M.423-8.562l-.06-.06M.363-8.622l.06-.06M.423-8.682v.12M.181-9.771l.121-.06M.302-9.832h.303M.605-9.832l.12.06M.726-9.771l.06.12M.786-9.65v.12M.786-9.53l-.06.122M.726-9.408l-.06.06M.665-9.348l-.12.06M.544-9.287l-.06.06M.484-9.227l-.06.121M.423-9.106v.06"/>
        </g>
        <g class="stroked-text">
            <path d="M-7.438-6.53V-7.8M-7.438-7.8h.483M-6.955-7.8l.121.06M-6.834-7.74l.06.061M-6.773-7.679l.06.121M-6.713-7.558v.182M-6.713-7.376l-.06.12M-6.773-7.255l-.06.06M-6.834-7.195l-.12.06M-6.955-7.134h-.484M-6.168-6.53V-7.8M-5.564-6.53V-7.8M-5.564-7.8l.726 1.27M-4.838-6.53V-7.8M-4.233-6.53V-7.8M-4.233-7.195h.725M-3.507-6.53V-7.8M-2.903-6.53V-7.8M-2.903-7.8h.303M-2.6-7.8l.181.06M-2.419-7.74l.121.122M-2.298-7.618l.06.12M-2.237-7.497l.06.242M-2.177-7.255v.181M-2.177-7.074l-.06.242M-2.237-6.832l-.06.121M-2.298-6.711l-.12.12M-2.419-6.59l-.181.06M-2.6-6.53h-.303M-1.935-6.409h.968M0-6.53h-.725M-.363-6.53V-7.8M-.363-7.8l-.12.182M-.484-7.618l-.12.12M-.605-7.497l-.12.06M.423-6.53l.666-.846M.423-7.376l.666.846M1.814-7.8h.121M1.935-7.8l.121.06M2.056-7.74l.06.061M2.117-7.679l.06.121M2.177-7.558l.06.242M2.238-7.316v.303M2.238-7.013l-.06.242M2.177-6.771l-.06.12M2.117-6.65l-.06.06M2.056-6.59l-.12.06M1.935-6.53h-.12M1.814-6.53l-.12-.06M1.693-6.59l-.06-.06M1.633-6.65l-.06-.121M1.572-6.771l-.06-.242M1.512-7.013v-.303M1.512-7.316l.06-.242M1.572-7.558l.06-.12M1.633-7.679l.06-.06M1.693-7.74l.121-.06M3.326-7.8h-.242M3.084-7.8l-.12.06M2.963-7.74l-.06.061M2.903-7.679l-.121.182M2.782-7.497l-.06.242M2.722-7.255v.484M2.722-6.771l.06.12M2.782-6.65l.06.06M2.842-6.59l.121.06M2.963-6.53h.242M3.205-6.53l.121-.06M3.326-6.59l.06-.06M3.387-6.65l.06-.121M3.447-6.771v-.303M3.447-7.074l-.06-.12M3.387-7.195l-.06-.06M3.326-7.255l-.12-.06M3.205-7.316h-.242M2.963-7.316l-.12.06M2.842-7.255l-.06.06M2.782-7.195l-.06.121M3.69-6.409h.967M4.959-6.53V-7.8M5.503-7.679l.06-.06M5.564-7.74l.12-.06M5.685-7.8h.302M5.987-7.8l.121.06M6.108-7.74l.06.061M6.169-7.679l.06.121M6.23-7.558v.121M6.23-7.437l-.061.182M6.169-7.255l-.726.725M5.443-6.53h.786M7.499-6.65l-.06.06M7.439-6.59l-.182.06M7.257-6.53h-.12M7.136-6.53l-.181-.06M6.955-6.59l-.121-.121M6.834-6.711l-.06-.121M6.773-6.832l-.06-.242M6.713-7.074v-.181M6.713-7.255l.06-.242M6.773-7.497l.06-.121M6.834-7.618l.12-.121M6.955-7.74l.181-.06M7.136-7.8h.121M7.257-7.8l.182.06M7.439-7.74l.06.061"/>
        </g>
    </g>
</svg>
