<svg xmlns="http://www.w3.org/2000/svg" width="89.472" height="15.456" viewBox="0 0 23.673 4.089">
    <g style="fill:#000;fill-opacity:1;stroke:#000;stroke-opacity:1;stroke-linecap:round;stroke-linejoin:round">
        <path stroke="none" d="M6.84.05h10v2h-10Z" style="fill:#f2eda1;fill-opacity:1;stroke:none;fill-rule:evenodd"/>
    </g>
    <g style="fill:none;stroke:#afafaf;stroke-width:.15;stroke-opacity:1;stroke-linecap:round;stroke-linejoin:round">
        <g class="stroked-text">
            <path d="M.649 2.705v.714M.649 3.42.6 3.561M.601 3.562l-.095.095M.506 3.657l-.143.048M.363 3.705H.268M1.601 3.705h-.476M1.125 3.705v-1M2.506 3.61l-.048.047M2.458 3.657l-.143.048M2.316 3.705H2.22M2.22 3.705l-.143-.048M2.077 3.657l-.095-.095M1.982 3.562l-.047-.095M1.935 3.467l-.048-.19M1.887 3.276v-.143M1.887 3.133l.048-.19M1.935 2.943l.047-.095M1.982 2.848l.095-.096M2.077 2.752l.143-.047M2.22 2.705h.095M2.316 2.705l.142.047M2.458 2.752l.048.048M2.935 3.705v-1M2.935 2.705h.38M3.316 2.705l.095.047M3.41 2.752l.048.048M3.458 2.8l.048.095M3.506 2.895v.143M3.506 3.038l-.048.095M3.458 3.133l-.047.048M3.41 3.181l-.095.048M3.316 3.229h-.381M4.506 3.61l-.048.047M4.458 3.657l-.143.048M4.316 3.705H4.22M4.22 3.705l-.143-.048M4.077 3.657l-.095-.095M3.982 3.562l-.048-.095M3.935 3.467l-.048-.19M3.887 3.276v-.143M3.887 3.133l.047-.19M3.935 2.943l.047-.095M3.982 2.848l.095-.096M4.077 2.752l.143-.047M4.22 2.705h.096M4.316 2.705l.142.047M4.458 2.752l.048.048M5.268 3.181l.143.048M5.41 3.229l.048.047M5.458 3.276l.048.096M5.506 3.372v.142M5.506 3.514l-.048.096M5.458 3.61l-.047.047M5.41 3.657l-.095.048M5.316 3.705h-.381M4.935 3.705v-1M4.935 2.705h.333M5.268 2.705l.095.047M5.363 2.752l.048.048M5.41 2.8l.048.095M5.458 2.895v.095M5.458 2.99l-.047.096M5.41 3.086l-.047.047M5.363 3.133l-.095.048M5.268 3.181h-.333M5.696 3.8h.762M6.649 3.657l.143.048M6.792 3.705h.238M7.03 3.705l.095-.048M7.125 3.657l.048-.047M7.173 3.61l.047-.096M7.22 3.514V3.42M7.22 3.42l-.047-.096M7.173 3.324l-.048-.048M7.125 3.276 7.03 3.23M7.03 3.229l-.19-.048M6.84 3.181l-.096-.048M6.744 3.133l-.048-.047M6.696 3.086 6.65 2.99M6.649 2.99v-.095M6.649 2.895l.047-.095M6.696 2.8l.048-.048M6.744 2.752l.095-.047M6.84 2.705h.237M7.077 2.705l.143.047M8.03 3.657l-.095.048M7.935 3.705h-.191M7.744 3.705l-.095-.048M7.649 3.657 7.6 3.562M7.601 3.562v-.381M7.601 3.181l.048-.095M7.649 3.086l.095-.048M7.744 3.038h.19M7.935 3.038l.095.048M8.03 3.086l.047.095M8.077 3.181v.095M8.077 3.276l-.476.096M8.506 3.705v-.667M8.506 3.229l.048-.096M8.554 3.133l.047-.047M8.601 3.086l.095-.048M8.696 3.038h.096M9.125 3.705v-.667M9.125 2.705l-.048.047M9.077 2.752l.048.048M9.125 2.8l.048-.048M9.173 2.752l-.048-.047M9.125 2.705V2.8M10.03 3.705V3.18M10.03 3.181l-.048-.095M9.982 3.086l-.095-.048M9.887 3.038h-.19M9.696 3.038l-.095.048M10.03 3.657l-.095.048M9.935 3.705h-.239M9.696 3.705l-.095-.048M9.601 3.657l-.047-.095M9.554 3.562v-.095M9.554 3.467l.047-.095M9.601 3.372l.095-.048M9.696 3.324h.239M9.935 3.324l.095-.048M10.649 3.705l-.095-.048M10.554 3.657l-.048-.095M10.506 3.562v-.857M11.03 3.705v-1M11.03 2.705l.571 1M11.601 3.705v-1M12.506 3.038v.667M12.077 3.038v.524M12.077 3.562l.048.095M12.125 3.657l.095.048M12.22 3.705h.143M12.363 3.705l.095-.048M12.458 3.657l.048-.047M12.982 3.705v-.667M12.982 3.133l.048-.047M13.03 3.086l.095-.048M13.125 3.038h.143M13.268 3.038l.095.048M13.363 3.086l.048.095M13.41 3.181v.524M13.41 3.181l.048-.095M13.458 3.086l.096-.048M13.554 3.038h.142M13.696 3.038l.096.048M13.792 3.086l.047.095M13.84 3.181v.524M14.316 3.705v-1M14.316 3.086l.095-.048M14.41 3.038h.191M14.601 3.038l.095.048M14.696 3.086l.048.047M14.744 3.133l.048.096M14.792 3.229v.285M14.792 3.514l-.048.096M14.744 3.61l-.048.047M14.696 3.657l-.095.048M14.601 3.705h-.19M14.41 3.705l-.095-.048M15.601 3.657l-.095.048M15.506 3.705h-.19M15.316 3.705l-.096-.048M15.22 3.657l-.047-.095M15.173 3.562v-.381M15.173 3.181l.047-.095M15.22 3.086l.095-.048M15.316 3.038h.19M15.506 3.038l.095.048M15.601 3.086l.048.095M15.649 3.181v.095M15.649 3.276l-.476.096M16.077 3.705v-.667M16.077 3.229l.048-.096M16.125 3.133l.048-.047M16.173 3.086l.095-.048M16.268 3.038h.095M16.458 3.8h.762M17.41 2.8l.048-.048M17.458 2.752l.096-.047M17.554 2.705h.238M17.792 2.705l.095.047M17.887 2.752l.047.048M17.935 2.8l.047.095M17.982 2.895v.095M17.982 2.99l-.047.143M17.935 3.133l-.572.572M17.363 3.705h.62M18.316 3.705l.523-.667M18.316 3.038l.523.667M19.744 3.705h-.571M19.458 3.705v-1M19.458 2.705l-.095.143M19.363 2.848l-.095.095M19.268 2.943l-.095.047M20.363 2.705h.095M20.458 2.705l.096.047M20.554 2.752l.047.048M20.601 2.8l.048.095M20.649 2.895l.047.19M20.696 3.086v.238M20.696 3.324l-.047.19M20.649 3.514l-.048.096M20.601 3.61l-.047.047M20.554 3.657l-.096.048M20.458 3.705h-.095M20.363 3.705l-.095-.048M20.268 3.657l-.048-.047M20.22 3.61l-.047-.096M20.173 3.514l-.048-.19M20.125 3.324v-.238M20.125 3.086l.048-.19M20.173 2.895l.047-.095M20.22 2.8l.048-.048M20.268 2.752l.095-.047M21.125 3.705v-.667M21.125 3.133l.048-.047M21.173 3.086l.095-.048M21.268 3.038h.143M21.41 3.038l.096.048M21.506 3.086l.048.095M21.554 3.181v.524M21.554 3.181l.047-.095M21.601 3.086l.095-.048M21.696 3.038h.143M21.84 3.038l.095.048M21.935 3.086l.047.095M21.982 3.181v.524M22.458 3.705v-.667M22.458 3.133l.048-.047M22.506 3.086l.095-.048M22.601 3.038h.143M22.744 3.038l.095.048M22.84 3.086l.047.095M22.887 3.181v.524M22.887 3.181l.047-.095M22.935 3.086l.095-.048M23.03 3.038h.143M23.173 3.038l.095.048M23.268 3.086l.047.095M23.316 3.181v.524"/>
        </g>
        <g class="stroked-text">
            <path d="M11.982.981h-.333M11.649 1.505v-1M11.649.505h.476"/>
        </g>
        <path d="M6.84.05h10v2h-10Z" style="stroke:#afafaf;stroke-width:.1;stroke-opacity:1;stroke-linecap:round;stroke-linejoin:round;fill:none"/>
    </g>
</svg>
