<svg xmlns="http://www.w3.org/2000/svg" width="78.24" height="33.984" viewBox="0 0 20.701 8.992">
    <g style="fill:#000;fill-opacity:1;stroke:#000;stroke-opacity:1;stroke-linecap:round;stroke-linejoin:round">
        <path stroke="none" d="M7.863.05h5v5h-5Z" style="fill:#f2eda1;fill-opacity:1;stroke:none;fill-rule:evenodd"/>
    </g>
    <g class="stroked-text" style="fill:none;stroke:#afafaf;stroke-width:.15;stroke-opacity:1;stroke-linecap:round;stroke-linejoin:round">
        <path d="M.649 7.605v.714M.649 8.32.6 8.461M.601 8.462l-.095.095M.506 8.557l-.143.048M.363 8.605H.268M1.601 8.605h-.476M1.125 8.605v-1M2.506 8.51l-.048.047M2.458 8.557l-.143.048M2.316 8.605H2.22M2.22 8.605l-.143-.048M2.077 8.557l-.095-.095M1.982 8.462l-.047-.095M1.935 8.367l-.048-.19M1.887 8.176v-.143M1.887 8.033l.048-.19M1.935 7.843l.047-.095M1.982 7.748l.095-.096M2.077 7.652l.143-.047M2.22 7.605h.095M2.316 7.605l.142.047M2.458 7.652l.048.048M2.935 8.605v-1M2.935 7.605h.38M3.316 7.605l.095.047M3.41 7.652l.048.048M3.458 7.7l.048.095M3.506 7.795v.143M3.506 7.938l-.048.095M3.458 8.033l-.047.048M3.41 8.081l-.095.048M3.316 8.129h-.381M4.506 8.51l-.048.047M4.458 8.557l-.143.048M4.316 8.605H4.22M4.22 8.605l-.143-.048M4.077 8.557l-.095-.095M3.982 8.462l-.048-.095M3.935 8.367l-.048-.19M3.887 8.176v-.143M3.887 8.033l.047-.19M3.935 7.843l.047-.095M3.982 7.748l.095-.096M4.077 7.652l.143-.047M4.22 7.605h.096M4.316 7.605l.142.047M4.458 7.652l.048.048M5.268 8.081l.143.048M5.41 8.129l.048.047M5.458 8.176l.048.095M5.506 8.272v.142M5.506 8.414l-.048.096M5.458 8.51l-.047.047M5.41 8.557l-.095.048M5.316 8.605h-.381M4.935 8.605v-1M4.935 7.605h.333M5.268 7.605l.095.047M5.363 7.652l.048.048M5.41 7.7l.048.095M5.458 7.795v.096M5.458 7.89l-.047.096M5.41 7.986l-.047.047M5.363 8.033l-.095.048M5.268 8.081h-.333M5.696 8.7h.762M6.649 7.7l.047-.048M6.696 7.652l.096-.047M6.792 7.605h.238M7.03 7.605l.095.047M7.125 7.652l.048.048M7.173 7.7l.047.095M7.22 7.795v.096M7.22 7.89l-.047.143M7.173 8.033l-.572.572M6.601 8.605h.62M7.649 8.605v-1M7.649 7.605h.238M7.887 7.605l.143.047M8.03 7.652l.095.096M8.125 7.748l.048.095M8.173 7.843l.047.19M8.22 8.033v.143M8.22 8.176l-.047.19M8.173 8.367l-.048.095M8.125 8.462l-.095.095M8.03 8.557l-.143.048M7.887 8.605h-.238M8.982 8.081l.143.048M9.125 8.129l.048.047M9.173 8.176l.047.095M9.22 8.272v.142M9.22 8.414l-.047.096M9.173 8.51l-.048.047M9.125 8.557l-.095.048M9.03 8.605h-.381M8.649 8.605v-1M8.649 7.605h.333M8.982 7.605l.095.047M9.077 7.652l.048.048M9.125 7.7l.048.095M9.173 7.795v.096M9.173 7.89l-.048.096M9.125 7.986l-.048.047M9.077 8.033l-.095.048M8.982 8.081H8.65M10.077 8.605V8.08M10.077 8.081l-.047-.095M10.03 7.986l-.095-.048M9.935 7.938h-.191M9.744 7.938l-.095.048M10.077 8.557l-.095.048M9.982 8.605h-.238M9.744 8.605l-.095-.048M9.649 8.557 9.6 8.462M9.601 8.462v-.095M9.601 8.367l.048-.096M9.649 8.272l.095-.048M9.744 8.224h.238M9.982 8.224l.095-.048M10.554 8.605v-.667M10.554 8.129l.047-.096M10.601 8.033l.048-.047M10.649 7.986l.095-.048M10.744 7.938h.095M11.601 8.557l-.095.048M11.506 8.605h-.19M11.316 8.605l-.096-.048M11.22 8.557l-.047-.047M11.173 8.51l-.048-.096M11.125 8.414V8.13M11.125 8.129l.048-.096M11.173 8.033l.047-.047M11.22 7.986l.095-.048M11.316 7.938h.19M11.506 7.938l.095.048M12.173 8.605l-.096-.048M12.077 8.557l-.047-.047M12.03 8.51l-.048-.096M11.982 8.414V8.13M11.982 8.129l.048-.096M12.03 8.033l.047-.047M12.077 7.986l.096-.048M12.173 7.938h.143M12.316 7.938l.095.048M12.41 7.986l.048.047M12.458 8.033l.048.096M12.506 8.129v.285M12.506 8.414l-.048.096M12.458 8.51l-.047.047M12.41 8.557l-.095.048M12.316 8.605h-.143M13.363 8.605v-1M13.363 8.557l-.095.048M13.268 8.605h-.19M13.077 8.605l-.095-.048M12.982 8.557l-.047-.047M12.935 8.51l-.048-.096M12.887 8.414V8.13M12.887 8.129l.047-.096M12.935 8.033l.047-.047M12.982 7.986l.095-.048M13.077 7.938h.19M13.268 7.938l.095.048M14.22 8.557l-.095.048M14.125 8.605h-.19M13.935 8.605l-.096-.048M13.84 8.557l-.048-.095M13.792 8.462v-.381M13.792 8.081l.047-.095M13.84 7.986l.095-.048M13.935 7.938h.19M14.125 7.938l.095.048M14.22 7.986l.048.095M14.268 8.081v.095M14.268 8.176l-.476.095M14.458 8.7h.762M15.935 7.605h-.477M15.458 7.605l-.047.476M15.41 8.081l.048-.048M15.458 8.033l.096-.047M15.554 7.986h.238M15.792 7.986l.095.047M15.887 8.033l.047.048M15.935 8.081l.047.095M15.982 8.176v.238M15.982 8.414l-.047.096M15.935 8.51l-.048.047M15.887 8.557l-.095.048M15.792 8.605h-.238M15.554 8.605l-.096-.048M15.458 8.557l-.047-.047M16.316 8.605l.523-.667M16.316 7.938l.523.667M17.696 7.605h-.476M17.22 7.605l-.047.476M17.173 8.081l.047-.048M17.22 8.033l.096-.047M17.316 7.986h.238M17.554 7.986l.095.047M17.649 8.033l.047.048M17.696 8.081l.048.095M17.744 8.176v.238M17.744 8.414l-.048.096M17.696 8.51l-.047.047M17.649 8.557l-.095.048M17.554 8.605h-.238M17.316 8.605l-.096-.048M17.22 8.557l-.047-.047M18.173 8.605v-.667M18.173 8.033l.047-.047M18.22 7.986l.096-.048M18.316 7.938h.142M18.458 7.938l.096.048M18.554 7.986l.047.095M18.601 8.081v.524M18.601 8.081l.048-.095M18.649 7.986l.095-.048M18.744 7.938h.143M18.887 7.938l.095.048M18.982 7.986l.048.095M19.03 8.081v.524M19.506 8.605v-.667M19.506 8.033l.048-.047M19.554 7.986l.095-.048M19.649 7.938h.143M19.792 7.938l.095.048M19.887 7.986l.047.095M19.935 8.081v.524M19.935 8.081l.047-.095M19.982 7.986l.095-.048M20.077 7.938h.143M20.22 7.938l.096.048M20.316 7.986l.047.095M20.363 8.081v.524"/>
    </g>
    <g class="stroked-text" style="fill:none;stroke:#afafaf;stroke-width:.25;stroke-opacity:1;stroke-linecap:round;stroke-linejoin:round">
        <path d="M10.649 2.415h-.667M9.982 3.462v-2M9.982 1.462h.953"/>
    </g>
    <g style="fill:none;stroke:#afafaf;stroke-width:.15;stroke-opacity:1;stroke-linecap:round;stroke-linejoin:round">
        <g class="stroked-text">
            <path d="M10.506 5.981h-.333M10.173 6.505v-1M10.173 5.505h.476"/>
        </g>
        <path d="M7.863.05h5v5h-5ZM7.863 5.05h5v2h-5Z" style="stroke:#afafaf;stroke-width:.1;stroke-opacity:1;stroke-linecap:round;stroke-linejoin:round;fill:none"/>
    </g>
</svg>
