<?xml version="1.0" standalone="no"?>
 <!DOCTYPE svg PUBLIC "-//W3C//DTD SVG 1.1//EN" 
 "http://www.w3.org/Graphics/SVG/1.1/DTD/svg11.dtd"> 
<svg
  xmlns:svg="http://www.w3.org/2000/svg"
  xmlns="http://www.w3.org/2000/svg"
  xmlns:xlink="http://www.w3.org/1999/xlink"
  version="1.1"
  width="20.7010mm" height="10.8966mm" viewBox="0.0000 0.0000 20.7010 10.8966">
<title>SVG Image created as JLCPCB_2DBarcode_5x5mm.svg date 2025/04/11 03:39:55 </title>
  <desc>Image generated by PCBNEW </desc>
<g style="fill:#000000; fill-opacity:1.0000;stroke:#000000; stroke-opacity:1.0000;
stroke-linecap:round; stroke-linejoin:round;"
 transform="translate(0 0) scale(1 1)">
<path style="fill:#F2EDA1; fill-opacity:1.0000; stroke:none;fill-rule:evenodd;"
d="M 7.8631,0.0500
12.8631,0.0500
12.8631,5.0500
7.8631,5.0500
Z" /> 
</g>
<g style="fill:none; 
stroke:#AFAFAF; stroke-width:0.1500; stroke-opacity:1; 
stroke-linecap:round; stroke-linejoin:round;">
<text x="10.3631" y="9.0500"
textLength="20.7262" font-size="1.3333" lengthAdjust="spacingAndGlyphs"
text-anchor="middle" opacity="0" stroke-opacity="0">JLCPCB_2DBarcode_5x5mm</text>
<g class="stroked-text"><desc>JLCPCB_2DBarcode_5x5mm</desc>
<path d="M0.6488 8.0048
L0.6488 8.7191
" />
<path d="M0.6488 8.7191
L0.6012 8.8620
" />
<path d="M0.6012 8.8620
L0.5060 8.9572
" />
<path d="M0.5060 8.9572
L0.3631 9.0048
" />
<path d="M0.3631 9.0048
L0.2679 9.0048
" />
<path d="M1.6012 9.0048
L1.1250 9.0048
" />
<path d="M1.1250 9.0048
L1.1250 8.0048
" />
<path d="M2.5060 8.9096
L2.4583 8.9572
" />
<path d="M2.4583 8.9572
L2.3155 9.0048
" />
<path d="M2.3155 9.0048
L2.2202 9.0048
" />
<path d="M2.2202 9.0048
L2.0774 8.9572
" />
<path d="M2.0774 8.9572
L1.9821 8.8620
" />
<path d="M1.9821 8.8620
L1.9345 8.7667
" />
<path d="M1.9345 8.7667
L1.8869 8.5762
" />
<path d="M1.8869 8.5762
L1.8869 8.4334
" />
<path d="M1.8869 8.4334
L1.9345 8.2429
" />
<path d="M1.9345 8.2429
L1.9821 8.1477
" />
<path d="M1.9821 8.1477
L2.0774 8.0524
" />
<path d="M2.0774 8.0524
L2.2202 8.0048
" />
<path d="M2.2202 8.0048
L2.3155 8.0048
" />
<path d="M2.3155 8.0048
L2.4583 8.0524
" />
<path d="M2.4583 8.0524
L2.5060 8.1001
" />
<path d="M2.9345 9.0048
L2.9345 8.0048
" />
<path d="M2.9345 8.0048
L3.3155 8.0048
" />
<path d="M3.3155 8.0048
L3.4107 8.0524
" />
<path d="M3.4107 8.0524
L3.4583 8.1001
" />
<path d="M3.4583 8.1001
L3.5060 8.1953
" />
<path d="M3.5060 8.1953
L3.5060 8.3382
" />
<path d="M3.5060 8.3382
L3.4583 8.4334
" />
<path d="M3.4583 8.4334
L3.4107 8.4810
" />
<path d="M3.4107 8.4810
L3.3155 8.5286
" />
<path d="M3.3155 8.5286
L2.9345 8.5286
" />
<path d="M4.5060 8.9096
L4.4583 8.9572
" />
<path d="M4.4583 8.9572
L4.3155 9.0048
" />
<path d="M4.3155 9.0048
L4.2202 9.0048
" />
<path d="M4.2202 9.0048
L4.0774 8.9572
" />
<path d="M4.0774 8.9572
L3.9821 8.8620
" />
<path d="M3.9821 8.8620
L3.9345 8.7667
" />
<path d="M3.9345 8.7667
L3.8869 8.5762
" />
<path d="M3.8869 8.5762
L3.8869 8.4334
" />
<path d="M3.8869 8.4334
L3.9345 8.2429
" />
<path d="M3.9345 8.2429
L3.9821 8.1477
" />
<path d="M3.9821 8.1477
L4.0774 8.0524
" />
<path d="M4.0774 8.0524
L4.2202 8.0048
" />
<path d="M4.2202 8.0048
L4.3155 8.0048
" />
<path d="M4.3155 8.0048
L4.4583 8.0524
" />
<path d="M4.4583 8.0524
L4.5060 8.1001
" />
<path d="M5.2679 8.4810
L5.4107 8.5286
" />
<path d="M5.4107 8.5286
L5.4583 8.5762
" />
<path d="M5.4583 8.5762
L5.5060 8.6715
" />
<path d="M5.5060 8.6715
L5.5060 8.8143
" />
<path d="M5.5060 8.8143
L5.4583 8.9096
" />
<path d="M5.4583 8.9096
L5.4107 8.9572
" />
<path d="M5.4107 8.9572
L5.3155 9.0048
" />
<path d="M5.3155 9.0048
L4.9345 9.0048
" />
<path d="M4.9345 9.0048
L4.9345 8.0048
" />
<path d="M4.9345 8.0048
L5.2679 8.0048
" />
<path d="M5.2679 8.0048
L5.3631 8.0524
" />
<path d="M5.3631 8.0524
L5.4107 8.1001
" />
<path d="M5.4107 8.1001
L5.4583 8.1953
" />
<path d="M5.4583 8.1953
L5.4583 8.2905
" />
<path d="M5.4583 8.2905
L5.4107 8.3858
" />
<path d="M5.4107 8.3858
L5.3631 8.4334
" />
<path d="M5.3631 8.4334
L5.2679 8.4810
" />
<path d="M5.2679 8.4810
L4.9345 8.4810
" />
<path d="M5.6964 9.1001
L6.4583 9.1001
" />
<path d="M6.6488 8.1001
L6.6964 8.0524
" />
<path d="M6.6964 8.0524
L6.7917 8.0048
" />
<path d="M6.7917 8.0048
L7.0298 8.0048
" />
<path d="M7.0298 8.0048
L7.1250 8.0524
" />
<path d="M7.1250 8.0524
L7.1726 8.1001
" />
<path d="M7.1726 8.1001
L7.2202 8.1953
" />
<path d="M7.2202 8.1953
L7.2202 8.2905
" />
<path d="M7.2202 8.2905
L7.1726 8.4334
" />
<path d="M7.1726 8.4334
L6.6012 9.0048
" />
<path d="M6.6012 9.0048
L7.2202 9.0048
" />
<path d="M7.6488 9.0048
L7.6488 8.0048
" />
<path d="M7.6488 8.0048
L7.8869 8.0048
" />
<path d="M7.8869 8.0048
L8.0298 8.0524
" />
<path d="M8.0298 8.0524
L8.1250 8.1477
" />
<path d="M8.1250 8.1477
L8.1726 8.2429
" />
<path d="M8.1726 8.2429
L8.2202 8.4334
" />
<path d="M8.2202 8.4334
L8.2202 8.5762
" />
<path d="M8.2202 8.5762
L8.1726 8.7667
" />
<path d="M8.1726 8.7667
L8.1250 8.8620
" />
<path d="M8.1250 8.8620
L8.0298 8.9572
" />
<path d="M8.0298 8.9572
L7.8869 9.0048
" />
<path d="M7.8869 9.0048
L7.6488 9.0048
" />
<path d="M8.9821 8.4810
L9.1250 8.5286
" />
<path d="M9.1250 8.5286
L9.1726 8.5762
" />
<path d="M9.1726 8.5762
L9.2202 8.6715
" />
<path d="M9.2202 8.6715
L9.2202 8.8143
" />
<path d="M9.2202 8.8143
L9.1726 8.9096
" />
<path d="M9.1726 8.9096
L9.1250 8.9572
" />
<path d="M9.1250 8.9572
L9.0298 9.0048
" />
<path d="M9.0298 9.0048
L8.6488 9.0048
" />
<path d="M8.6488 9.0048
L8.6488 8.0048
" />
<path d="M8.6488 8.0048
L8.9821 8.0048
" />
<path d="M8.9821 8.0048
L9.0774 8.0524
" />
<path d="M9.0774 8.0524
L9.1250 8.1001
" />
<path d="M9.1250 8.1001
L9.1726 8.1953
" />
<path d="M9.1726 8.1953
L9.1726 8.2905
" />
<path d="M9.1726 8.2905
L9.1250 8.3858
" />
<path d="M9.1250 8.3858
L9.0774 8.4334
" />
<path d="M9.0774 8.4334
L8.9821 8.4810
" />
<path d="M8.9821 8.4810
L8.6488 8.4810
" />
<path d="M10.0774 9.0048
L10.0774 8.4810
" />
<path d="M10.0774 8.4810
L10.0298 8.3858
" />
<path d="M10.0298 8.3858
L9.9345 8.3382
" />
<path d="M9.9345 8.3382
L9.7440 8.3382
" />
<path d="M9.7440 8.3382
L9.6488 8.3858
" />
<path d="M10.0774 8.9572
L9.9821 9.0048
" />
<path d="M9.9821 9.0048
L9.7440 9.0048
" />
<path d="M9.7440 9.0048
L9.6488 8.9572
" />
<path d="M9.6488 8.9572
L9.6012 8.8620
" />
<path d="M9.6012 8.8620
L9.6012 8.7667
" />
<path d="M9.6012 8.7667
L9.6488 8.6715
" />
<path d="M9.6488 8.6715
L9.7440 8.6239
" />
<path d="M9.7440 8.6239
L9.9821 8.6239
" />
<path d="M9.9821 8.6239
L10.0774 8.5762
" />
<path d="M10.5536 9.0048
L10.5536 8.3382
" />
<path d="M10.5536 8.5286
L10.6012 8.4334
" />
<path d="M10.6012 8.4334
L10.6488 8.3858
" />
<path d="M10.6488 8.3858
L10.7440 8.3382
" />
<path d="M10.7440 8.3382
L10.8393 8.3382
" />
<path d="M11.6012 8.9572
L11.5060 9.0048
" />
<path d="M11.5060 9.0048
L11.3155 9.0048
" />
<path d="M11.3155 9.0048
L11.2202 8.9572
" />
<path d="M11.2202 8.9572
L11.1726 8.9096
" />
<path d="M11.1726 8.9096
L11.1250 8.8143
" />
<path d="M11.1250 8.8143
L11.1250 8.5286
" />
<path d="M11.1250 8.5286
L11.1726 8.4334
" />
<path d="M11.1726 8.4334
L11.2202 8.3858
" />
<path d="M11.2202 8.3858
L11.3155 8.3382
" />
<path d="M11.3155 8.3382
L11.5060 8.3382
" />
<path d="M11.5060 8.3382
L11.6012 8.3858
" />
<path d="M12.1726 9.0048
L12.0774 8.9572
" />
<path d="M12.0774 8.9572
L12.0298 8.9096
" />
<path d="M12.0298 8.9096
L11.9821 8.8143
" />
<path d="M11.9821 8.8143
L11.9821 8.5286
" />
<path d="M11.9821 8.5286
L12.0298 8.4334
" />
<path d="M12.0298 8.4334
L12.0774 8.3858
" />
<path d="M12.0774 8.3858
L12.1726 8.3382
" />
<path d="M12.1726 8.3382
L12.3155 8.3382
" />
<path d="M12.3155 8.3382
L12.4107 8.3858
" />
<path d="M12.4107 8.3858
L12.4583 8.4334
" />
<path d="M12.4583 8.4334
L12.5060 8.5286
" />
<path d="M12.5060 8.5286
L12.5060 8.8143
" />
<path d="M12.5060 8.8143
L12.4583 8.9096
" />
<path d="M12.4583 8.9096
L12.4107 8.9572
" />
<path d="M12.4107 8.9572
L12.3155 9.0048
" />
<path d="M12.3155 9.0048
L12.1726 9.0048
" />
<path d="M13.3631 9.0048
L13.3631 8.0048
" />
<path d="M13.3631 8.9572
L13.2679 9.0048
" />
<path d="M13.2679 9.0048
L13.0774 9.0048
" />
<path d="M13.0774 9.0048
L12.9821 8.9572
" />
<path d="M12.9821 8.9572
L12.9345 8.9096
" />
<path d="M12.9345 8.9096
L12.8869 8.8143
" />
<path d="M12.8869 8.8143
L12.8869 8.5286
" />
<path d="M12.8869 8.5286
L12.9345 8.4334
" />
<path d="M12.9345 8.4334
L12.9821 8.3858
" />
<path d="M12.9821 8.3858
L13.0774 8.3382
" />
<path d="M13.0774 8.3382
L13.2679 8.3382
" />
<path d="M13.2679 8.3382
L13.3631 8.3858
" />
<path d="M14.2202 8.9572
L14.1250 9.0048
" />
<path d="M14.1250 9.0048
L13.9345 9.0048
" />
<path d="M13.9345 9.0048
L13.8393 8.9572
" />
<path d="M13.8393 8.9572
L13.7917 8.8620
" />
<path d="M13.7917 8.8620
L13.7917 8.4810
" />
<path d="M13.7917 8.4810
L13.8393 8.3858
" />
<path d="M13.8393 8.3858
L13.9345 8.3382
" />
<path d="M13.9345 8.3382
L14.1250 8.3382
" />
<path d="M14.1250 8.3382
L14.2202 8.3858
" />
<path d="M14.2202 8.3858
L14.2679 8.4810
" />
<path d="M14.2679 8.4810
L14.2679 8.5762
" />
<path d="M14.2679 8.5762
L13.7917 8.6715
" />
<path d="M14.4583 9.1001
L15.2202 9.1001
" />
<path d="M15.9345 8.0048
L15.4583 8.0048
" />
<path d="M15.4583 8.0048
L15.4107 8.4810
" />
<path d="M15.4107 8.4810
L15.4583 8.4334
" />
<path d="M15.4583 8.4334
L15.5536 8.3858
" />
<path d="M15.5536 8.3858
L15.7917 8.3858
" />
<path d="M15.7917 8.3858
L15.8869 8.4334
" />
<path d="M15.8869 8.4334
L15.9345 8.4810
" />
<path d="M15.9345 8.4810
L15.9821 8.5762
" />
<path d="M15.9821 8.5762
L15.9821 8.8143
" />
<path d="M15.9821 8.8143
L15.9345 8.9096
" />
<path d="M15.9345 8.9096
L15.8869 8.9572
" />
<path d="M15.8869 8.9572
L15.7917 9.0048
" />
<path d="M15.7917 9.0048
L15.5536 9.0048
" />
<path d="M15.5536 9.0048
L15.4583 8.9572
" />
<path d="M15.4583 8.9572
L15.4107 8.9096
" />
<path d="M16.3155 9.0048
L16.8393 8.3382
" />
<path d="M16.3155 8.3382
L16.8393 9.0048
" />
<path d="M17.6964 8.0048
L17.2202 8.0048
" />
<path d="M17.2202 8.0048
L17.1726 8.4810
" />
<path d="M17.1726 8.4810
L17.2202 8.4334
" />
<path d="M17.2202 8.4334
L17.3155 8.3858
" />
<path d="M17.3155 8.3858
L17.5536 8.3858
" />
<path d="M17.5536 8.3858
L17.6488 8.4334
" />
<path d="M17.6488 8.4334
L17.6964 8.4810
" />
<path d="M17.6964 8.4810
L17.7440 8.5762
" />
<path d="M17.7440 8.5762
L17.7440 8.8143
" />
<path d="M17.7440 8.8143
L17.6964 8.9096
" />
<path d="M17.6964 8.9096
L17.6488 8.9572
" />
<path d="M17.6488 8.9572
L17.5536 9.0048
" />
<path d="M17.5536 9.0048
L17.3155 9.0048
" />
<path d="M17.3155 9.0048
L17.2202 8.9572
" />
<path d="M17.2202 8.9572
L17.1726 8.9096
" />
<path d="M18.1726 9.0048
L18.1726 8.3382
" />
<path d="M18.1726 8.4334
L18.2202 8.3858
" />
<path d="M18.2202 8.3858
L18.3155 8.3382
" />
<path d="M18.3155 8.3382
L18.4583 8.3382
" />
<path d="M18.4583 8.3382
L18.5536 8.3858
" />
<path d="M18.5536 8.3858
L18.6012 8.4810
" />
<path d="M18.6012 8.4810
L18.6012 9.0048
" />
<path d="M18.6012 8.4810
L18.6488 8.3858
" />
<path d="M18.6488 8.3858
L18.7440 8.3382
" />
<path d="M18.7440 8.3382
L18.8869 8.3382
" />
<path d="M18.8869 8.3382
L18.9821 8.3858
" />
<path d="M18.9821 8.3858
L19.0298 8.4810
" />
<path d="M19.0298 8.4810
L19.0298 9.0048
" />
<path d="M19.5060 9.0048
L19.5060 8.3382
" />
<path d="M19.5060 8.4334
L19.5536 8.3858
" />
<path d="M19.5536 8.3858
L19.6488 8.3382
" />
<path d="M19.6488 8.3382
L19.7917 8.3382
" />
<path d="M19.7917 8.3382
L19.8869 8.3858
" />
<path d="M19.8869 8.3858
L19.9345 8.4810
" />
<path d="M19.9345 8.4810
L19.9345 9.0048
" />
<path d="M19.9345 8.4810
L19.9821 8.3858
" />
<path d="M19.9821 8.3858
L20.0774 8.3382
" />
<path d="M20.0774 8.3382
L20.2202 8.3382
" />
<path d="M20.2202 8.3382
L20.3155 8.3858
" />
<path d="M20.3155 8.3858
L20.3631 8.4810
" />
<path d="M20.3631 8.4810
L20.3631 9.0048
" />
</g></g>
<g style="fill:none; 
stroke:#AFAFAF; stroke-width:0.2500; stroke-opacity:1; 
stroke-linecap:round; stroke-linejoin:round;">
<text x="10.3631" y="3.5500"
textLength="2.0643" font-size="2.6667" lengthAdjust="spacingAndGlyphs"
text-anchor="middle" opacity="0" stroke-opacity="0">F</text>
<g class="stroked-text"><desc>F</desc>
<path d="M10.6488 2.4146
L9.9821 2.4146
" />
<path d="M9.9821 3.4622
L9.9821 1.4622
" />
<path d="M9.9821 1.4622
L10.9345 1.4622
" />
</g></g>
<g style="fill:none; 
stroke:#AFAFAF; stroke-width:0.1500; stroke-opacity:1; 
stroke-linecap:round; stroke-linejoin:round;">
<text x="10.3631" y="6.5500"
textLength="1.1071" font-size="1.3333" lengthAdjust="spacingAndGlyphs"
text-anchor="middle" opacity="0" stroke-opacity="0">F</text>
<g class="stroked-text"><desc>F</desc>
<path d="M10.5060 5.9810
L10.1726 5.9810
" />
<path d="M10.1726 6.5048
L10.1726 5.5048
" />
<path d="M10.1726 5.5048
L10.6488 5.5048
" />
</g><text x="10.3631" y="10.5500"
textLength="4.5357" font-size="1.3333" lengthAdjust="spacingAndGlyphs"
text-anchor="middle" opacity="0" stroke-opacity="0">REF**</text>
<g class="stroked-text"><desc>REF**</desc>
<path d="M9.0298 10.5048
L8.6964 10.0286
" />
<path d="M8.4583 10.5048
L8.4583 9.5048
" />
<path d="M8.4583 9.5048
L8.8393 9.5048
" />
<path d="M8.8393 9.5048
L8.9345 9.5524
" />
<path d="M8.9345 9.5524
L8.9821 9.6001
" />
<path d="M8.9821 9.6001
L9.0298 9.6953
" />
<path d="M9.0298 9.6953
L9.0298 9.8382
" />
<path d="M9.0298 9.8382
L8.9821 9.9334
" />
<path d="M8.9821 9.9334
L8.9345 9.9810
" />
<path d="M8.9345 9.9810
L8.8393 10.0286
" />
<path d="M8.8393 10.0286
L8.4583 10.0286
" />
<path d="M9.4583 9.9810
L9.7917 9.9810
" />
<path d="M9.9345 10.5048
L9.4583 10.5048
" />
<path d="M9.4583 10.5048
L9.4583 9.5048
" />
<path d="M9.4583 9.5048
L9.9345 9.5048
" />
<path d="M10.6964 9.9810
L10.3631 9.9810
" />
<path d="M10.3631 10.5048
L10.3631 9.5048
" />
<path d="M10.3631 9.5048
L10.8393 9.5048
" />
<path d="M11.3631 9.5048
L11.3631 9.7429
" />
<path d="M11.1250 9.6477
L11.3631 9.7429
" />
<path d="M11.3631 9.7429
L11.6012 9.6477
" />
<path d="M11.2202 9.9334
L11.3631 9.7429
" />
<path d="M11.3631 9.7429
L11.5060 9.9334
" />
<path d="M12.1250 9.5048
L12.1250 9.7429
" />
<path d="M11.8869 9.6477
L12.1250 9.7429
" />
<path d="M12.1250 9.7429
L12.3631 9.6477
" />
<path d="M11.9821 9.9334
L12.1250 9.7429
" />
<path d="M12.1250 9.7429
L12.2679 9.9334
" />
</g><path style="fill:none; 
stroke:#AFAFAF; stroke-width:0.1000; stroke-opacity:1; 
stroke-linecap:round; stroke-linejoin:round;fill:none"
d="M 7.8631,0.0500
12.8631,0.0500
12.8631,5.0500
7.8631,5.0500
Z" /> 
<path style="fill:none; 
stroke:#AFAFAF; stroke-width:0.1000; stroke-opacity:1; 
stroke-linecap:round; stroke-linejoin:round;fill:none"
d="M 7.8631,5.0500
12.8631,5.0500
12.8631,7.0500
7.8631,7.0500
Z" /> 
</g> 
</svg>
