<?xml version="1.0" standalone="no"?>
 <!DOCTYPE svg PUBLIC "-//W3C//DTD SVG 1.1//EN" 
 "http://www.w3.org/Graphics/SVG/1.1/DTD/svg11.dtd"> 
<svg
  xmlns:svg="http://www.w3.org/2000/svg"
  xmlns="http://www.w3.org/2000/svg"
  xmlns:xlink="http://www.w3.org/1999/xlink"
  version="1.1"
  width="20.7010mm" height="12.0904mm" viewBox="0.0000 0.0000 20.7010 12.0904">
<title>SVG Image created as JLCPCB_2DBarcode_8x8mm.svg date 2025/04/29 02:13:23 </title>
  <desc>Image generated by PCBNEW </desc>
<g style="fill:#000000; fill-opacity:1.0000;stroke:#000000; stroke-opacity:1.0000;
stroke-linecap:round; stroke-linejoin:round;"
 transform="translate(0 0) scale(1 1)">
<path style="fill:#F2EDA1; fill-opacity:1.0000; stroke:none;fill-rule:evenodd;"
d="M 6.3631,0.0500
14.3631,0.0500
14.3631,8.0500
6.3631,8.0500
Z" /> 
</g>
<g style="fill:none; 
stroke:#AFAFAF; stroke-width:0.1500; stroke-opacity:1; 
stroke-linecap:round; stroke-linejoin:round;">
<text x="10.3631" y="11.7500"
textLength="20.7262" font-size="1.3333" lengthAdjust="spacingAndGlyphs"
text-anchor="middle" opacity="0" stroke-opacity="0">JLCPCB_2DBarcode_8x8mm</text>
<g class="stroked-text"><desc>JLCPCB_2DBarcode_8x8mm</desc>
<path d="M0.6488 10.7048
L0.6488 11.4191
" />
<path d="M0.6488 11.4191
L0.6012 11.5620
" />
<path d="M0.6012 11.5620
L0.5060 11.6572
" />
<path d="M0.5060 11.6572
L0.3631 11.7048
" />
<path d="M0.3631 11.7048
L0.2679 11.7048
" />
<path d="M1.6012 11.7048
L1.1250 11.7048
" />
<path d="M1.1250 11.7048
L1.1250 10.7048
" />
<path d="M2.5060 11.6096
L2.4583 11.6572
" />
<path d="M2.4583 11.6572
L2.3155 11.7048
" />
<path d="M2.3155 11.7048
L2.2202 11.7048
" />
<path d="M2.2202 11.7048
L2.0774 11.6572
" />
<path d="M2.0774 11.6572
L1.9821 11.5620
" />
<path d="M1.9821 11.5620
L1.9345 11.4667
" />
<path d="M1.9345 11.4667
L1.8869 11.2762
" />
<path d="M1.8869 11.2762
L1.8869 11.1334
" />
<path d="M1.8869 11.1334
L1.9345 10.9429
" />
<path d="M1.9345 10.9429
L1.9821 10.8477
" />
<path d="M1.9821 10.8477
L2.0774 10.7524
" />
<path d="M2.0774 10.7524
L2.2202 10.7048
" />
<path d="M2.2202 10.7048
L2.3155 10.7048
" />
<path d="M2.3155 10.7048
L2.4583 10.7524
" />
<path d="M2.4583 10.7524
L2.5060 10.8001
" />
<path d="M2.9345 11.7048
L2.9345 10.7048
" />
<path d="M2.9345 10.7048
L3.3155 10.7048
" />
<path d="M3.3155 10.7048
L3.4107 10.7524
" />
<path d="M3.4107 10.7524
L3.4583 10.8001
" />
<path d="M3.4583 10.8001
L3.5060 10.8953
" />
<path d="M3.5060 10.8953
L3.5060 11.0382
" />
<path d="M3.5060 11.0382
L3.4583 11.1334
" />
<path d="M3.4583 11.1334
L3.4107 11.1810
" />
<path d="M3.4107 11.1810
L3.3155 11.2286
" />
<path d="M3.3155 11.2286
L2.9345 11.2286
" />
<path d="M4.5060 11.6096
L4.4583 11.6572
" />
<path d="M4.4583 11.6572
L4.3155 11.7048
" />
<path d="M4.3155 11.7048
L4.2202 11.7048
" />
<path d="M4.2202 11.7048
L4.0774 11.6572
" />
<path d="M4.0774 11.6572
L3.9821 11.5620
" />
<path d="M3.9821 11.5620
L3.9345 11.4667
" />
<path d="M3.9345 11.4667
L3.8869 11.2762
" />
<path d="M3.8869 11.2762
L3.8869 11.1334
" />
<path d="M3.8869 11.1334
L3.9345 10.9429
" />
<path d="M3.9345 10.9429
L3.9821 10.8477
" />
<path d="M3.9821 10.8477
L4.0774 10.7524
" />
<path d="M4.0774 10.7524
L4.2202 10.7048
" />
<path d="M4.2202 10.7048
L4.3155 10.7048
" />
<path d="M4.3155 10.7048
L4.4583 10.7524
" />
<path d="M4.4583 10.7524
L4.5060 10.8001
" />
<path d="M5.2679 11.1810
L5.4107 11.2286
" />
<path d="M5.4107 11.2286
L5.4583 11.2762
" />
<path d="M5.4583 11.2762
L5.5060 11.3715
" />
<path d="M5.5060 11.3715
L5.5060 11.5143
" />
<path d="M5.5060 11.5143
L5.4583 11.6096
" />
<path d="M5.4583 11.6096
L5.4107 11.6572
" />
<path d="M5.4107 11.6572
L5.3155 11.7048
" />
<path d="M5.3155 11.7048
L4.9345 11.7048
" />
<path d="M4.9345 11.7048
L4.9345 10.7048
" />
<path d="M4.9345 10.7048
L5.2679 10.7048
" />
<path d="M5.2679 10.7048
L5.3631 10.7524
" />
<path d="M5.3631 10.7524
L5.4107 10.8001
" />
<path d="M5.4107 10.8001
L5.4583 10.8953
" />
<path d="M5.4583 10.8953
L5.4583 10.9905
" />
<path d="M5.4583 10.9905
L5.4107 11.0858
" />
<path d="M5.4107 11.0858
L5.3631 11.1334
" />
<path d="M5.3631 11.1334
L5.2679 11.1810
" />
<path d="M5.2679 11.1810
L4.9345 11.1810
" />
<path d="M5.6964 11.8001
L6.4583 11.8001
" />
<path d="M6.6488 10.8001
L6.6964 10.7524
" />
<path d="M6.6964 10.7524
L6.7917 10.7048
" />
<path d="M6.7917 10.7048
L7.0298 10.7048
" />
<path d="M7.0298 10.7048
L7.1250 10.7524
" />
<path d="M7.1250 10.7524
L7.1726 10.8001
" />
<path d="M7.1726 10.8001
L7.2202 10.8953
" />
<path d="M7.2202 10.8953
L7.2202 10.9905
" />
<path d="M7.2202 10.9905
L7.1726 11.1334
" />
<path d="M7.1726 11.1334
L6.6012 11.7048
" />
<path d="M6.6012 11.7048
L7.2202 11.7048
" />
<path d="M7.6488 11.7048
L7.6488 10.7048
" />
<path d="M7.6488 10.7048
L7.8869 10.7048
" />
<path d="M7.8869 10.7048
L8.0298 10.7524
" />
<path d="M8.0298 10.7524
L8.1250 10.8477
" />
<path d="M8.1250 10.8477
L8.1726 10.9429
" />
<path d="M8.1726 10.9429
L8.2202 11.1334
" />
<path d="M8.2202 11.1334
L8.2202 11.2762
" />
<path d="M8.2202 11.2762
L8.1726 11.4667
" />
<path d="M8.1726 11.4667
L8.1250 11.5620
" />
<path d="M8.1250 11.5620
L8.0298 11.6572
" />
<path d="M8.0298 11.6572
L7.8869 11.7048
" />
<path d="M7.8869 11.7048
L7.6488 11.7048
" />
<path d="M8.9821 11.1810
L9.1250 11.2286
" />
<path d="M9.1250 11.2286
L9.1726 11.2762
" />
<path d="M9.1726 11.2762
L9.2202 11.3715
" />
<path d="M9.2202 11.3715
L9.2202 11.5143
" />
<path d="M9.2202 11.5143
L9.1726 11.6096
" />
<path d="M9.1726 11.6096
L9.1250 11.6572
" />
<path d="M9.1250 11.6572
L9.0298 11.7048
" />
<path d="M9.0298 11.7048
L8.6488 11.7048
" />
<path d="M8.6488 11.7048
L8.6488 10.7048
" />
<path d="M8.6488 10.7048
L8.9821 10.7048
" />
<path d="M8.9821 10.7048
L9.0774 10.7524
" />
<path d="M9.0774 10.7524
L9.1250 10.8001
" />
<path d="M9.1250 10.8001
L9.1726 10.8953
" />
<path d="M9.1726 10.8953
L9.1726 10.9905
" />
<path d="M9.1726 10.9905
L9.1250 11.0858
" />
<path d="M9.1250 11.0858
L9.0774 11.1334
" />
<path d="M9.0774 11.1334
L8.9821 11.1810
" />
<path d="M8.9821 11.1810
L8.6488 11.1810
" />
<path d="M10.0774 11.7048
L10.0774 11.1810
" />
<path d="M10.0774 11.1810
L10.0298 11.0858
" />
<path d="M10.0298 11.0858
L9.9345 11.0382
" />
<path d="M9.9345 11.0382
L9.7440 11.0382
" />
<path d="M9.7440 11.0382
L9.6488 11.0858
" />
<path d="M10.0774 11.6572
L9.9821 11.7048
" />
<path d="M9.9821 11.7048
L9.7440 11.7048
" />
<path d="M9.7440 11.7048
L9.6488 11.6572
" />
<path d="M9.6488 11.6572
L9.6012 11.5620
" />
<path d="M9.6012 11.5620
L9.6012 11.4667
" />
<path d="M9.6012 11.4667
L9.6488 11.3715
" />
<path d="M9.6488 11.3715
L9.7440 11.3239
" />
<path d="M9.7440 11.3239
L9.9821 11.3239
" />
<path d="M9.9821 11.3239
L10.0774 11.2762
" />
<path d="M10.5536 11.7048
L10.5536 11.0382
" />
<path d="M10.5536 11.2286
L10.6012 11.1334
" />
<path d="M10.6012 11.1334
L10.6488 11.0858
" />
<path d="M10.6488 11.0858
L10.7440 11.0382
" />
<path d="M10.7440 11.0382
L10.8393 11.0382
" />
<path d="M11.6012 11.6572
L11.5060 11.7048
" />
<path d="M11.5060 11.7048
L11.3155 11.7048
" />
<path d="M11.3155 11.7048
L11.2202 11.6572
" />
<path d="M11.2202 11.6572
L11.1726 11.6096
" />
<path d="M11.1726 11.6096
L11.1250 11.5143
" />
<path d="M11.1250 11.5143
L11.1250 11.2286
" />
<path d="M11.1250 11.2286
L11.1726 11.1334
" />
<path d="M11.1726 11.1334
L11.2202 11.0858
" />
<path d="M11.2202 11.0858
L11.3155 11.0382
" />
<path d="M11.3155 11.0382
L11.5060 11.0382
" />
<path d="M11.5060 11.0382
L11.6012 11.0858
" />
<path d="M12.1726 11.7048
L12.0774 11.6572
" />
<path d="M12.0774 11.6572
L12.0298 11.6096
" />
<path d="M12.0298 11.6096
L11.9821 11.5143
" />
<path d="M11.9821 11.5143
L11.9821 11.2286
" />
<path d="M11.9821 11.2286
L12.0298 11.1334
" />
<path d="M12.0298 11.1334
L12.0774 11.0858
" />
<path d="M12.0774 11.0858
L12.1726 11.0382
" />
<path d="M12.1726 11.0382
L12.3155 11.0382
" />
<path d="M12.3155 11.0382
L12.4107 11.0858
" />
<path d="M12.4107 11.0858
L12.4583 11.1334
" />
<path d="M12.4583 11.1334
L12.5060 11.2286
" />
<path d="M12.5060 11.2286
L12.5060 11.5143
" />
<path d="M12.5060 11.5143
L12.4583 11.6096
" />
<path d="M12.4583 11.6096
L12.4107 11.6572
" />
<path d="M12.4107 11.6572
L12.3155 11.7048
" />
<path d="M12.3155 11.7048
L12.1726 11.7048
" />
<path d="M13.3631 11.7048
L13.3631 10.7048
" />
<path d="M13.3631 11.6572
L13.2679 11.7048
" />
<path d="M13.2679 11.7048
L13.0774 11.7048
" />
<path d="M13.0774 11.7048
L12.9821 11.6572
" />
<path d="M12.9821 11.6572
L12.9345 11.6096
" />
<path d="M12.9345 11.6096
L12.8869 11.5143
" />
<path d="M12.8869 11.5143
L12.8869 11.2286
" />
<path d="M12.8869 11.2286
L12.9345 11.1334
" />
<path d="M12.9345 11.1334
L12.9821 11.0858
" />
<path d="M12.9821 11.0858
L13.0774 11.0382
" />
<path d="M13.0774 11.0382
L13.2679 11.0382
" />
<path d="M13.2679 11.0382
L13.3631 11.0858
" />
<path d="M14.2202 11.6572
L14.1250 11.7048
" />
<path d="M14.1250 11.7048
L13.9345 11.7048
" />
<path d="M13.9345 11.7048
L13.8393 11.6572
" />
<path d="M13.8393 11.6572
L13.7917 11.5620
" />
<path d="M13.7917 11.5620
L13.7917 11.1810
" />
<path d="M13.7917 11.1810
L13.8393 11.0858
" />
<path d="M13.8393 11.0858
L13.9345 11.0382
" />
<path d="M13.9345 11.0382
L14.1250 11.0382
" />
<path d="M14.1250 11.0382
L14.2202 11.0858
" />
<path d="M14.2202 11.0858
L14.2679 11.1810
" />
<path d="M14.2679 11.1810
L14.2679 11.2762
" />
<path d="M14.2679 11.2762
L13.7917 11.3715
" />
<path d="M14.4583 11.8001
L15.2202 11.8001
" />
<path d="M15.6012 11.1334
L15.5060 11.0858
" />
<path d="M15.5060 11.0858
L15.4583 11.0382
" />
<path d="M15.4583 11.0382
L15.4107 10.9429
" />
<path d="M15.4107 10.9429
L15.4107 10.8953
" />
<path d="M15.4107 10.8953
L15.4583 10.8001
" />
<path d="M15.4583 10.8001
L15.5060 10.7524
" />
<path d="M15.5060 10.7524
L15.6012 10.7048
" />
<path d="M15.6012 10.7048
L15.7917 10.7048
" />
<path d="M15.7917 10.7048
L15.8869 10.7524
" />
<path d="M15.8869 10.7524
L15.9345 10.8001
" />
<path d="M15.9345 10.8001
L15.9821 10.8953
" />
<path d="M15.9821 10.8953
L15.9821 10.9429
" />
<path d="M15.9821 10.9429
L15.9345 11.0382
" />
<path d="M15.9345 11.0382
L15.8869 11.0858
" />
<path d="M15.8869 11.0858
L15.7917 11.1334
" />
<path d="M15.7917 11.1334
L15.6012 11.1334
" />
<path d="M15.6012 11.1334
L15.5060 11.1810
" />
<path d="M15.5060 11.1810
L15.4583 11.2286
" />
<path d="M15.4583 11.2286
L15.4107 11.3239
" />
<path d="M15.4107 11.3239
L15.4107 11.5143
" />
<path d="M15.4107 11.5143
L15.4583 11.6096
" />
<path d="M15.4583 11.6096
L15.5060 11.6572
" />
<path d="M15.5060 11.6572
L15.6012 11.7048
" />
<path d="M15.6012 11.7048
L15.7917 11.7048
" />
<path d="M15.7917 11.7048
L15.8869 11.6572
" />
<path d="M15.8869 11.6572
L15.9345 11.6096
" />
<path d="M15.9345 11.6096
L15.9821 11.5143
" />
<path d="M15.9821 11.5143
L15.9821 11.3239
" />
<path d="M15.9821 11.3239
L15.9345 11.2286
" />
<path d="M15.9345 11.2286
L15.8869 11.1810
" />
<path d="M15.8869 11.1810
L15.7917 11.1334
" />
<path d="M16.3155 11.7048
L16.8393 11.0382
" />
<path d="M16.3155 11.0382
L16.8393 11.7048
" />
<path d="M17.3631 11.1334
L17.2679 11.0858
" />
<path d="M17.2679 11.0858
L17.2202 11.0382
" />
<path d="M17.2202 11.0382
L17.1726 10.9429
" />
<path d="M17.1726 10.9429
L17.1726 10.8953
" />
<path d="M17.1726 10.8953
L17.2202 10.8001
" />
<path d="M17.2202 10.8001
L17.2679 10.7524
" />
<path d="M17.2679 10.7524
L17.3631 10.7048
" />
<path d="M17.3631 10.7048
L17.5536 10.7048
" />
<path d="M17.5536 10.7048
L17.6488 10.7524
" />
<path d="M17.6488 10.7524
L17.6964 10.8001
" />
<path d="M17.6964 10.8001
L17.7440 10.8953
" />
<path d="M17.7440 10.8953
L17.7440 10.9429
" />
<path d="M17.7440 10.9429
L17.6964 11.0382
" />
<path d="M17.6964 11.0382
L17.6488 11.0858
" />
<path d="M17.6488 11.0858
L17.5536 11.1334
" />
<path d="M17.5536 11.1334
L17.3631 11.1334
" />
<path d="M17.3631 11.1334
L17.2679 11.1810
" />
<path d="M17.2679 11.1810
L17.2202 11.2286
" />
<path d="M17.2202 11.2286
L17.1726 11.3239
" />
<path d="M17.1726 11.3239
L17.1726 11.5143
" />
<path d="M17.1726 11.5143
L17.2202 11.6096
" />
<path d="M17.2202 11.6096
L17.2679 11.6572
" />
<path d="M17.2679 11.6572
L17.3631 11.7048
" />
<path d="M17.3631 11.7048
L17.5536 11.7048
" />
<path d="M17.5536 11.7048
L17.6488 11.6572
" />
<path d="M17.6488 11.6572
L17.6964 11.6096
" />
<path d="M17.6964 11.6096
L17.7440 11.5143
" />
<path d="M17.7440 11.5143
L17.7440 11.3239
" />
<path d="M17.7440 11.3239
L17.6964 11.2286
" />
<path d="M17.6964 11.2286
L17.6488 11.1810
" />
<path d="M17.6488 11.1810
L17.5536 11.1334
" />
<path d="M18.1726 11.7048
L18.1726 11.0382
" />
<path d="M18.1726 11.1334
L18.2202 11.0858
" />
<path d="M18.2202 11.0858
L18.3155 11.0382
" />
<path d="M18.3155 11.0382
L18.4583 11.0382
" />
<path d="M18.4583 11.0382
L18.5536 11.0858
" />
<path d="M18.5536 11.0858
L18.6012 11.1810
" />
<path d="M18.6012 11.1810
L18.6012 11.7048
" />
<path d="M18.6012 11.1810
L18.6488 11.0858
" />
<path d="M18.6488 11.0858
L18.7440 11.0382
" />
<path d="M18.7440 11.0382
L18.8869 11.0382
" />
<path d="M18.8869 11.0382
L18.9821 11.0858
" />
<path d="M18.9821 11.0858
L19.0298 11.1810
" />
<path d="M19.0298 11.1810
L19.0298 11.7048
" />
<path d="M19.5060 11.7048
L19.5060 11.0382
" />
<path d="M19.5060 11.1334
L19.5536 11.0858
" />
<path d="M19.5536 11.0858
L19.6488 11.0382
" />
<path d="M19.6488 11.0382
L19.7917 11.0382
" />
<path d="M19.7917 11.0382
L19.8869 11.0858
" />
<path d="M19.8869 11.0858
L19.9345 11.1810
" />
<path d="M19.9345 11.1810
L19.9345 11.7048
" />
<path d="M19.9345 11.1810
L19.9821 11.0858
" />
<path d="M19.9821 11.0858
L20.0774 11.0382
" />
<path d="M20.0774 11.0382
L20.2202 11.0382
" />
<path d="M20.2202 11.0382
L20.3155 11.0858
" />
<path d="M20.3155 11.0858
L20.3631 11.1810
" />
<path d="M20.3631 11.1810
L20.3631 11.7048
" />
</g></g>
<g style="fill:none; 
stroke:#AFAFAF; stroke-width:0.2500; stroke-opacity:1; 
stroke-linecap:round; stroke-linejoin:round;">
<text x="10.3631" y="5.0500"
textLength="2.0643" font-size="2.6667" lengthAdjust="spacingAndGlyphs"
text-anchor="middle" opacity="0" stroke-opacity="0">F</text>
<g class="stroked-text"><desc>F</desc>
<path d="M10.6488 3.9146
L9.9821 3.9146
" />
<path d="M9.9821 4.9622
L9.9821 2.9622
" />
<path d="M9.9821 2.9622
L10.9345 2.9622
" />
</g></g>
<g style="fill:none; 
stroke:#AFAFAF; stroke-width:0.1500; stroke-opacity:1; 
stroke-linecap:round; stroke-linejoin:round;">
<text x="10.3631" y="9.5500"
textLength="1.1071" font-size="1.3333" lengthAdjust="spacingAndGlyphs"
text-anchor="middle" opacity="0" stroke-opacity="0">F</text>
<g class="stroked-text"><desc>F</desc>
<path d="M10.5060 8.9810
L10.1726 8.9810
" />
<path d="M10.1726 9.5048
L10.1726 8.5048
" />
<path d="M10.1726 8.5048
L10.6488 8.5048
" />
</g><path style="fill:none; 
stroke:#AFAFAF; stroke-width:0.1000; stroke-opacity:1; 
stroke-linecap:round; stroke-linejoin:round;fill:none"
d="M 6.3631,0.0500
14.3631,0.0500
14.3631,8.0500
6.3631,8.0500
Z" /> 
<path style="fill:none; 
stroke:#AFAFAF; stroke-width:0.1000; stroke-opacity:1; 
stroke-linecap:round; stroke-linejoin:round;fill:none"
d="M 6.3631,8.0500
14.3631,8.0500
14.3631,10.0500
6.3631,10.0500
Z" /> 
</g> 
</svg>
