<?xml version="1.0" standalone="no"?>
 <!DOCTYPE svg PUBLIC "-//W3C//DTD SVG 1.1//EN" 
 "http://www.w3.org/Graphics/SVG/1.1/DTD/svg11.dtd"> 
<svg
  xmlns:svg="http://www.w3.org/2000/svg"
  xmlns="http://www.w3.org/2000/svg"
  xmlns:xlink="http://www.w3.org/1999/xlink"
  version="1.1"
  width="23.1394mm" height="3.6830mm" viewBox="0.0000 0.0000 23.1394 3.6830">
<title>SVG Image created as JLCPCB_OrderNumber_H0.8mm.svg date 2025/04/29 02:13:23 </title>
  <desc>Image generated by PCBNEW </desc>
<g style="fill:#000000; fill-opacity:1.0000;stroke:#000000; stroke-opacity:1.0000;
stroke-linecap:round; stroke-linejoin:round;"
 transform="translate(0 0) scale(1 1)">
</g>
<g style="fill:none; 
stroke:#F2EDA1; stroke-width:0.1500; stroke-opacity:1; 
stroke-linecap:round; stroke-linejoin:round;">
<text x="11.5774" y="1.2500"
textLength="8.5186" font-size="1.0667" lengthAdjust="spacingAndGlyphs"
text-anchor="middle" opacity="0" stroke-opacity="0">JLCJLCJLCJLC</text>
<g class="stroked-text"><desc>JLCJLCJLCJLC</desc>
<path d="M7.8821 0.4123
L7.8821 0.9837
" />
<path d="M7.8821 0.9837
L7.8440 1.0980
" />
<path d="M7.8440 1.0980
L7.7679 1.1742
" />
<path d="M7.7679 1.1742
L7.6536 1.2123
" />
<path d="M7.6536 1.2123
L7.5774 1.2123
" />
<path d="M8.6440 1.2123
L8.2631 1.2123
" />
<path d="M8.2631 1.2123
L8.2631 0.4123
" />
<path d="M9.3679 1.1361
L9.3298 1.1742
" />
<path d="M9.3298 1.1742
L9.2155 1.2123
" />
<path d="M9.2155 1.2123
L9.1393 1.2123
" />
<path d="M9.1393 1.2123
L9.0250 1.1742
" />
<path d="M9.0250 1.1742
L8.9488 1.0980
" />
<path d="M8.9488 1.0980
L8.9107 1.0218
" />
<path d="M8.9107 1.0218
L8.8726 0.8694
" />
<path d="M8.8726 0.8694
L8.8726 0.7552
" />
<path d="M8.8726 0.7552
L8.9107 0.6028
" />
<path d="M8.9107 0.6028
L8.9488 0.5266
" />
<path d="M8.9488 0.5266
L9.0250 0.4504
" />
<path d="M9.0250 0.4504
L9.1393 0.4123
" />
<path d="M9.1393 0.4123
L9.2155 0.4123
" />
<path d="M9.2155 0.4123
L9.3298 0.4504
" />
<path d="M9.3298 0.4504
L9.3679 0.4885
" />
<path d="M9.9393 0.4123
L9.9393 0.9837
" />
<path d="M9.9393 0.9837
L9.9012 1.0980
" />
<path d="M9.9012 1.0980
L9.8250 1.1742
" />
<path d="M9.8250 1.1742
L9.7107 1.2123
" />
<path d="M9.7107 1.2123
L9.6345 1.2123
" />
<path d="M10.7012 1.2123
L10.3202 1.2123
" />
<path d="M10.3202 1.2123
L10.3202 0.4123
" />
<path d="M11.4250 1.1361
L11.3869 1.1742
" />
<path d="M11.3869 1.1742
L11.2726 1.2123
" />
<path d="M11.2726 1.2123
L11.1964 1.2123
" />
<path d="M11.1964 1.2123
L11.0821 1.1742
" />
<path d="M11.0821 1.1742
L11.0060 1.0980
" />
<path d="M11.0060 1.0980
L10.9679 1.0218
" />
<path d="M10.9679 1.0218
L10.9298 0.8694
" />
<path d="M10.9298 0.8694
L10.9298 0.7552
" />
<path d="M10.9298 0.7552
L10.9679 0.6028
" />
<path d="M10.9679 0.6028
L11.0060 0.5266
" />
<path d="M11.0060 0.5266
L11.0821 0.4504
" />
<path d="M11.0821 0.4504
L11.1964 0.4123
" />
<path d="M11.1964 0.4123
L11.2726 0.4123
" />
<path d="M11.2726 0.4123
L11.3869 0.4504
" />
<path d="M11.3869 0.4504
L11.4250 0.4885
" />
<path d="M11.9964 0.4123
L11.9964 0.9837
" />
<path d="M11.9964 0.9837
L11.9583 1.0980
" />
<path d="M11.9583 1.0980
L11.8821 1.1742
" />
<path d="M11.8821 1.1742
L11.7679 1.2123
" />
<path d="M11.7679 1.2123
L11.6917 1.2123
" />
<path d="M12.7583 1.2123
L12.3774 1.2123
" />
<path d="M12.3774 1.2123
L12.3774 0.4123
" />
<path d="M13.4821 1.1361
L13.4440 1.1742
" />
<path d="M13.4440 1.1742
L13.3298 1.2123
" />
<path d="M13.3298 1.2123
L13.2536 1.2123
" />
<path d="M13.2536 1.2123
L13.1393 1.1742
" />
<path d="M13.1393 1.1742
L13.0631 1.0980
" />
<path d="M13.0631 1.0980
L13.0250 1.0218
" />
<path d="M13.0250 1.0218
L12.9869 0.8694
" />
<path d="M12.9869 0.8694
L12.9869 0.7552
" />
<path d="M12.9869 0.7552
L13.0250 0.6028
" />
<path d="M13.0250 0.6028
L13.0631 0.5266
" />
<path d="M13.0631 0.5266
L13.1393 0.4504
" />
<path d="M13.1393 0.4504
L13.2536 0.4123
" />
<path d="M13.2536 0.4123
L13.3298 0.4123
" />
<path d="M13.3298 0.4123
L13.4440 0.4504
" />
<path d="M13.4440 0.4504
L13.4821 0.4885
" />
<path d="M14.0536 0.4123
L14.0536 0.9837
" />
<path d="M14.0536 0.9837
L14.0155 1.0980
" />
<path d="M14.0155 1.0980
L13.9393 1.1742
" />
<path d="M13.9393 1.1742
L13.8250 1.2123
" />
<path d="M13.8250 1.2123
L13.7488 1.2123
" />
<path d="M14.8155 1.2123
L14.4345 1.2123
" />
<path d="M14.4345 1.2123
L14.4345 0.4123
" />
<path d="M15.5393 1.1361
L15.5012 1.1742
" />
<path d="M15.5012 1.1742
L15.3869 1.2123
" />
<path d="M15.3869 1.2123
L15.3107 1.2123
" />
<path d="M15.3107 1.2123
L15.1964 1.1742
" />
<path d="M15.1964 1.1742
L15.1202 1.0980
" />
<path d="M15.1202 1.0980
L15.0821 1.0218
" />
<path d="M15.0821 1.0218
L15.0440 0.8694
" />
<path d="M15.0440 0.8694
L15.0440 0.7552
" />
<path d="M15.0440 0.7552
L15.0821 0.6028
" />
<path d="M15.0821 0.6028
L15.1202 0.5266
" />
<path d="M15.1202 0.5266
L15.1964 0.4504
" />
<path d="M15.1964 0.4504
L15.3107 0.4123
" />
<path d="M15.3107 0.4123
L15.3869 0.4123
" />
<path d="M15.3869 0.4123
L15.5012 0.4504
" />
<path d="M15.5012 0.4504
L15.5393 0.4885
" />
</g></g>
<g style="fill:none; 
stroke:#AFAFAF; stroke-width:0.1500; stroke-opacity:1; 
stroke-linecap:round; stroke-linejoin:round;">
<text x="11.5774" y="3.3500"
textLength="23.1548" font-size="1.3333" lengthAdjust="spacingAndGlyphs"
text-anchor="middle" opacity="0" stroke-opacity="0">JLCPCB_OrderNumber_H0.8mm</text>
<g class="stroked-text"><desc>JLCPCB_OrderNumber_H0.8mm</desc>
<path d="M0.6488 2.3048
L0.6488 3.0191
" />
<path d="M0.6488 3.0191
L0.6012 3.1620
" />
<path d="M0.6012 3.1620
L0.5060 3.2572
" />
<path d="M0.5060 3.2572
L0.3631 3.3048
" />
<path d="M0.3631 3.3048
L0.2679 3.3048
" />
<path d="M1.6012 3.3048
L1.1250 3.3048
" />
<path d="M1.1250 3.3048
L1.1250 2.3048
" />
<path d="M2.5060 3.2096
L2.4583 3.2572
" />
<path d="M2.4583 3.2572
L2.3155 3.3048
" />
<path d="M2.3155 3.3048
L2.2202 3.3048
" />
<path d="M2.2202 3.3048
L2.0774 3.2572
" />
<path d="M2.0774 3.2572
L1.9821 3.1620
" />
<path d="M1.9821 3.1620
L1.9345 3.0667
" />
<path d="M1.9345 3.0667
L1.8869 2.8762
" />
<path d="M1.8869 2.8762
L1.8869 2.7334
" />
<path d="M1.8869 2.7334
L1.9345 2.5429
" />
<path d="M1.9345 2.5429
L1.9821 2.4477
" />
<path d="M1.9821 2.4477
L2.0774 2.3524
" />
<path d="M2.0774 2.3524
L2.2202 2.3048
" />
<path d="M2.2202 2.3048
L2.3155 2.3048
" />
<path d="M2.3155 2.3048
L2.4583 2.3524
" />
<path d="M2.4583 2.3524
L2.5060 2.4001
" />
<path d="M2.9345 3.3048
L2.9345 2.3048
" />
<path d="M2.9345 2.3048
L3.3155 2.3048
" />
<path d="M3.3155 2.3048
L3.4107 2.3524
" />
<path d="M3.4107 2.3524
L3.4583 2.4001
" />
<path d="M3.4583 2.4001
L3.5060 2.4953
" />
<path d="M3.5060 2.4953
L3.5060 2.6382
" />
<path d="M3.5060 2.6382
L3.4583 2.7334
" />
<path d="M3.4583 2.7334
L3.4107 2.7810
" />
<path d="M3.4107 2.7810
L3.3155 2.8286
" />
<path d="M3.3155 2.8286
L2.9345 2.8286
" />
<path d="M4.5060 3.2096
L4.4583 3.2572
" />
<path d="M4.4583 3.2572
L4.3155 3.3048
" />
<path d="M4.3155 3.3048
L4.2202 3.3048
" />
<path d="M4.2202 3.3048
L4.0774 3.2572
" />
<path d="M4.0774 3.2572
L3.9821 3.1620
" />
<path d="M3.9821 3.1620
L3.9345 3.0667
" />
<path d="M3.9345 3.0667
L3.8869 2.8762
" />
<path d="M3.8869 2.8762
L3.8869 2.7334
" />
<path d="M3.8869 2.7334
L3.9345 2.5429
" />
<path d="M3.9345 2.5429
L3.9821 2.4477
" />
<path d="M3.9821 2.4477
L4.0774 2.3524
" />
<path d="M4.0774 2.3524
L4.2202 2.3048
" />
<path d="M4.2202 2.3048
L4.3155 2.3048
" />
<path d="M4.3155 2.3048
L4.4583 2.3524
" />
<path d="M4.4583 2.3524
L4.5060 2.4001
" />
<path d="M5.2679 2.7810
L5.4107 2.8286
" />
<path d="M5.4107 2.8286
L5.4583 2.8762
" />
<path d="M5.4583 2.8762
L5.5060 2.9715
" />
<path d="M5.5060 2.9715
L5.5060 3.1143
" />
<path d="M5.5060 3.1143
L5.4583 3.2096
" />
<path d="M5.4583 3.2096
L5.4107 3.2572
" />
<path d="M5.4107 3.2572
L5.3155 3.3048
" />
<path d="M5.3155 3.3048
L4.9345 3.3048
" />
<path d="M4.9345 3.3048
L4.9345 2.3048
" />
<path d="M4.9345 2.3048
L5.2679 2.3048
" />
<path d="M5.2679 2.3048
L5.3631 2.3524
" />
<path d="M5.3631 2.3524
L5.4107 2.4001
" />
<path d="M5.4107 2.4001
L5.4583 2.4953
" />
<path d="M5.4583 2.4953
L5.4583 2.5905
" />
<path d="M5.4583 2.5905
L5.4107 2.6858
" />
<path d="M5.4107 2.6858
L5.3631 2.7334
" />
<path d="M5.3631 2.7334
L5.2679 2.7810
" />
<path d="M5.2679 2.7810
L4.9345 2.7810
" />
<path d="M5.6964 3.4001
L6.4583 3.4001
" />
<path d="M6.8869 2.3048
L7.0774 2.3048
" />
<path d="M7.0774 2.3048
L7.1726 2.3524
" />
<path d="M7.1726 2.3524
L7.2679 2.4477
" />
<path d="M7.2679 2.4477
L7.3155 2.6382
" />
<path d="M7.3155 2.6382
L7.3155 2.9715
" />
<path d="M7.3155 2.9715
L7.2679 3.1620
" />
<path d="M7.2679 3.1620
L7.1726 3.2572
" />
<path d="M7.1726 3.2572
L7.0774 3.3048
" />
<path d="M7.0774 3.3048
L6.8869 3.3048
" />
<path d="M6.8869 3.3048
L6.7917 3.2572
" />
<path d="M6.7917 3.2572
L6.6964 3.1620
" />
<path d="M6.6964 3.1620
L6.6488 2.9715
" />
<path d="M6.6488 2.9715
L6.6488 2.6382
" />
<path d="M6.6488 2.6382
L6.6964 2.4477
" />
<path d="M6.6964 2.4477
L6.7917 2.3524
" />
<path d="M6.7917 2.3524
L6.8869 2.3048
" />
<path d="M7.7440 3.3048
L7.7440 2.6382
" />
<path d="M7.7440 2.8286
L7.7917 2.7334
" />
<path d="M7.7917 2.7334
L7.8393 2.6858
" />
<path d="M7.8393 2.6858
L7.9345 2.6382
" />
<path d="M7.9345 2.6382
L8.0298 2.6382
" />
<path d="M8.7917 3.3048
L8.7917 2.3048
" />
<path d="M8.7917 3.2572
L8.6964 3.3048
" />
<path d="M8.6964 3.3048
L8.5060 3.3048
" />
<path d="M8.5060 3.3048
L8.4107 3.2572
" />
<path d="M8.4107 3.2572
L8.3631 3.2096
" />
<path d="M8.3631 3.2096
L8.3155 3.1143
" />
<path d="M8.3155 3.1143
L8.3155 2.8286
" />
<path d="M8.3155 2.8286
L8.3631 2.7334
" />
<path d="M8.3631 2.7334
L8.4107 2.6858
" />
<path d="M8.4107 2.6858
L8.5060 2.6382
" />
<path d="M8.5060 2.6382
L8.6964 2.6382
" />
<path d="M8.6964 2.6382
L8.7917 2.6858
" />
<path d="M9.6488 3.2572
L9.5536 3.3048
" />
<path d="M9.5536 3.3048
L9.3631 3.3048
" />
<path d="M9.3631 3.3048
L9.2679 3.2572
" />
<path d="M9.2679 3.2572
L9.2202 3.1620
" />
<path d="M9.2202 3.1620
L9.2202 2.7810
" />
<path d="M9.2202 2.7810
L9.2679 2.6858
" />
<path d="M9.2679 2.6858
L9.3631 2.6382
" />
<path d="M9.3631 2.6382
L9.5536 2.6382
" />
<path d="M9.5536 2.6382
L9.6488 2.6858
" />
<path d="M9.6488 2.6858
L9.6964 2.7810
" />
<path d="M9.6964 2.7810
L9.6964 2.8762
" />
<path d="M9.6964 2.8762
L9.2202 2.9715
" />
<path d="M10.1250 3.3048
L10.1250 2.6382
" />
<path d="M10.1250 2.8286
L10.1726 2.7334
" />
<path d="M10.1726 2.7334
L10.2202 2.6858
" />
<path d="M10.2202 2.6858
L10.3155 2.6382
" />
<path d="M10.3155 2.6382
L10.4107 2.6382
" />
<path d="M10.7440 3.3048
L10.7440 2.3048
" />
<path d="M10.7440 2.3048
L11.3155 3.3048
" />
<path d="M11.3155 3.3048
L11.3155 2.3048
" />
<path d="M12.2202 2.6382
L12.2202 3.3048
" />
<path d="M11.7917 2.6382
L11.7917 3.1620
" />
<path d="M11.7917 3.1620
L11.8393 3.2572
" />
<path d="M11.8393 3.2572
L11.9345 3.3048
" />
<path d="M11.9345 3.3048
L12.0774 3.3048
" />
<path d="M12.0774 3.3048
L12.1726 3.2572
" />
<path d="M12.1726 3.2572
L12.2202 3.2096
" />
<path d="M12.6964 3.3048
L12.6964 2.6382
" />
<path d="M12.6964 2.7334
L12.7440 2.6858
" />
<path d="M12.7440 2.6858
L12.8393 2.6382
" />
<path d="M12.8393 2.6382
L12.9821 2.6382
" />
<path d="M12.9821 2.6382
L13.0774 2.6858
" />
<path d="M13.0774 2.6858
L13.1250 2.7810
" />
<path d="M13.1250 2.7810
L13.1250 3.3048
" />
<path d="M13.1250 2.7810
L13.1726 2.6858
" />
<path d="M13.1726 2.6858
L13.2679 2.6382
" />
<path d="M13.2679 2.6382
L13.4107 2.6382
" />
<path d="M13.4107 2.6382
L13.5060 2.6858
" />
<path d="M13.5060 2.6858
L13.5536 2.7810
" />
<path d="M13.5536 2.7810
L13.5536 3.3048
" />
<path d="M14.0298 3.3048
L14.0298 2.3048
" />
<path d="M14.0298 2.6858
L14.1250 2.6382
" />
<path d="M14.1250 2.6382
L14.3155 2.6382
" />
<path d="M14.3155 2.6382
L14.4107 2.6858
" />
<path d="M14.4107 2.6858
L14.4583 2.7334
" />
<path d="M14.4583 2.7334
L14.5060 2.8286
" />
<path d="M14.5060 2.8286
L14.5060 3.1143
" />
<path d="M14.5060 3.1143
L14.4583 3.2096
" />
<path d="M14.4583 3.2096
L14.4107 3.2572
" />
<path d="M14.4107 3.2572
L14.3155 3.3048
" />
<path d="M14.3155 3.3048
L14.1250 3.3048
" />
<path d="M14.1250 3.3048
L14.0298 3.2572
" />
<path d="M15.3155 3.2572
L15.2202 3.3048
" />
<path d="M15.2202 3.3048
L15.0298 3.3048
" />
<path d="M15.0298 3.3048
L14.9345 3.2572
" />
<path d="M14.9345 3.2572
L14.8869 3.1620
" />
<path d="M14.8869 3.1620
L14.8869 2.7810
" />
<path d="M14.8869 2.7810
L14.9345 2.6858
" />
<path d="M14.9345 2.6858
L15.0298 2.6382
" />
<path d="M15.0298 2.6382
L15.2202 2.6382
" />
<path d="M15.2202 2.6382
L15.3155 2.6858
" />
<path d="M15.3155 2.6858
L15.3631 2.7810
" />
<path d="M15.3631 2.7810
L15.3631 2.8762
" />
<path d="M15.3631 2.8762
L14.8869 2.9715
" />
<path d="M15.7917 3.3048
L15.7917 2.6382
" />
<path d="M15.7917 2.8286
L15.8393 2.7334
" />
<path d="M15.8393 2.7334
L15.8869 2.6858
" />
<path d="M15.8869 2.6858
L15.9821 2.6382
" />
<path d="M15.9821 2.6382
L16.0774 2.6382
" />
<path d="M16.1726 3.4001
L16.9345 3.4001
" />
<path d="M17.1726 3.3048
L17.1726 2.3048
" />
<path d="M17.1726 2.7810
L17.7440 2.7810
" />
<path d="M17.7440 3.3048
L17.7440 2.3048
" />
<path d="M18.4107 2.3048
L18.5060 2.3048
" />
<path d="M18.5060 2.3048
L18.6012 2.3524
" />
<path d="M18.6012 2.3524
L18.6488 2.4001
" />
<path d="M18.6488 2.4001
L18.6964 2.4953
" />
<path d="M18.6964 2.4953
L18.7440 2.6858
" />
<path d="M18.7440 2.6858
L18.7440 2.9239
" />
<path d="M18.7440 2.9239
L18.6964 3.1143
" />
<path d="M18.6964 3.1143
L18.6488 3.2096
" />
<path d="M18.6488 3.2096
L18.6012 3.2572
" />
<path d="M18.6012 3.2572
L18.5060 3.3048
" />
<path d="M18.5060 3.3048
L18.4107 3.3048
" />
<path d="M18.4107 3.3048
L18.3155 3.2572
" />
<path d="M18.3155 3.2572
L18.2679 3.2096
" />
<path d="M18.2679 3.2096
L18.2202 3.1143
" />
<path d="M18.2202 3.1143
L18.1726 2.9239
" />
<path d="M18.1726 2.9239
L18.1726 2.6858
" />
<path d="M18.1726 2.6858
L18.2202 2.4953
" />
<path d="M18.2202 2.4953
L18.2679 2.4001
" />
<path d="M18.2679 2.4001
L18.3155 2.3524
" />
<path d="M18.3155 2.3524
L18.4107 2.3048
" />
<path d="M19.1726 3.2096
L19.2202 3.2572
" />
<path d="M19.2202 3.2572
L19.1726 3.3048
" />
<path d="M19.1726 3.3048
L19.1250 3.2572
" />
<path d="M19.1250 3.2572
L19.1726 3.2096
" />
<path d="M19.1726 3.2096
L19.1726 3.3048
" />
<path d="M19.7917 2.7334
L19.6964 2.6858
" />
<path d="M19.6964 2.6858
L19.6488 2.6382
" />
<path d="M19.6488 2.6382
L19.6012 2.5429
" />
<path d="M19.6012 2.5429
L19.6012 2.4953
" />
<path d="M19.6012 2.4953
L19.6488 2.4001
" />
<path d="M19.6488 2.4001
L19.6964 2.3524
" />
<path d="M19.6964 2.3524
L19.7917 2.3048
" />
<path d="M19.7917 2.3048
L19.9821 2.3048
" />
<path d="M19.9821 2.3048
L20.0774 2.3524
" />
<path d="M20.0774 2.3524
L20.1250 2.4001
" />
<path d="M20.1250 2.4001
L20.1726 2.4953
" />
<path d="M20.1726 2.4953
L20.1726 2.5429
" />
<path d="M20.1726 2.5429
L20.1250 2.6382
" />
<path d="M20.1250 2.6382
L20.0774 2.6858
" />
<path d="M20.0774 2.6858
L19.9821 2.7334
" />
<path d="M19.9821 2.7334
L19.7917 2.7334
" />
<path d="M19.7917 2.7334
L19.6964 2.7810
" />
<path d="M19.6964 2.7810
L19.6488 2.8286
" />
<path d="M19.6488 2.8286
L19.6012 2.9239
" />
<path d="M19.6012 2.9239
L19.6012 3.1143
" />
<path d="M19.6012 3.1143
L19.6488 3.2096
" />
<path d="M19.6488 3.2096
L19.6964 3.2572
" />
<path d="M19.6964 3.2572
L19.7917 3.3048
" />
<path d="M19.7917 3.3048
L19.9821 3.3048
" />
<path d="M19.9821 3.3048
L20.0774 3.2572
" />
<path d="M20.0774 3.2572
L20.1250 3.2096
" />
<path d="M20.1250 3.2096
L20.1726 3.1143
" />
<path d="M20.1726 3.1143
L20.1726 2.9239
" />
<path d="M20.1726 2.9239
L20.1250 2.8286
" />
<path d="M20.1250 2.8286
L20.0774 2.7810
" />
<path d="M20.0774 2.7810
L19.9821 2.7334
" />
<path d="M20.6012 3.3048
L20.6012 2.6382
" />
<path d="M20.6012 2.7334
L20.6488 2.6858
" />
<path d="M20.6488 2.6858
L20.7440 2.6382
" />
<path d="M20.7440 2.6382
L20.8869 2.6382
" />
<path d="M20.8869 2.6382
L20.9821 2.6858
" />
<path d="M20.9821 2.6858
L21.0298 2.7810
" />
<path d="M21.0298 2.7810
L21.0298 3.3048
" />
<path d="M21.0298 2.7810
L21.0774 2.6858
" />
<path d="M21.0774 2.6858
L21.1726 2.6382
" />
<path d="M21.1726 2.6382
L21.3155 2.6382
" />
<path d="M21.3155 2.6382
L21.4107 2.6858
" />
<path d="M21.4107 2.6858
L21.4583 2.7810
" />
<path d="M21.4583 2.7810
L21.4583 3.3048
" />
<path d="M21.9345 3.3048
L21.9345 2.6382
" />
<path d="M21.9345 2.7334
L21.9821 2.6858
" />
<path d="M21.9821 2.6858
L22.0774 2.6382
" />
<path d="M22.0774 2.6382
L22.2202 2.6382
" />
<path d="M22.2202 2.6382
L22.3155 2.6858
" />
<path d="M22.3155 2.6858
L22.3631 2.7810
" />
<path d="M22.3631 2.7810
L22.3631 3.3048
" />
<path d="M22.3631 2.7810
L22.4107 2.6858
" />
<path d="M22.4107 2.6858
L22.5060 2.6382
" />
<path d="M22.5060 2.6382
L22.6488 2.6382
" />
<path d="M22.6488 2.6382
L22.7440 2.6858
" />
<path d="M22.7440 2.6858
L22.7917 2.7810
" />
<path d="M22.7917 2.7810
L22.7917 3.3048
" />
</g><path style="fill:none; 
stroke:#AFAFAF; stroke-width:0.1000; stroke-opacity:1; 
stroke-linecap:round; stroke-linejoin:round;fill:none"
d="M 6.9774,0.0500
16.1774,0.0500
16.1774,1.6500
6.9774,1.6500
Z" /> 
</g> 
</svg>
