<?xml version="1.0" standalone="no"?>
 <!DOCTYPE svg PUBLIC "-//W3C//DTD SVG 1.1//EN" 
 "http://www.w3.org/Graphics/SVG/1.1/DTD/svg11.dtd"> 
<svg
  xmlns:svg="http://www.w3.org/2000/svg"
  xmlns="http://www.w3.org/2000/svg"
  xmlns:xlink="http://www.w3.org/1999/xlink"
  version="1.1"
  width="23.6728mm" height="5.8928mm" viewBox="0.0000 0.0000 23.6728 5.8928">
<title>SVG Image created as JLCPCB_SerialNumber_2x10mm.svg date 2025/04/12 02:58:46 </title>
  <desc>Image generated by PCBNEW </desc>
<g style="fill:#000000; fill-opacity:1.0000;stroke:#000000; stroke-opacity:1.0000;
stroke-linecap:round; stroke-linejoin:round;"
 transform="translate(0 0) scale(1 1)">
<path style="fill:#F2EDA1; fill-opacity:1.0000; stroke:none;fill-rule:evenodd;"
d="M 6.8393,0.0500
16.8393,0.0500
16.8393,2.0500
6.8393,2.0500
Z" /> 
</g>
<g style="fill:none; 
stroke:#AFAFAF; stroke-width:0.1500; stroke-opacity:1; 
stroke-linecap:round; stroke-linejoin:round;">
<text x="11.8393" y="4.0500"
textLength="23.6786" font-size="1.3333" lengthAdjust="spacingAndGlyphs"
text-anchor="middle" opacity="0" stroke-opacity="0">JLCPCB_SerialNumber_2x10mm</text>
<g class="stroked-text"><desc>JLCPCB_SerialNumber_2x10mm</desc>
<path d="M0.6488 3.0048
L0.6488 3.7191
" />
<path d="M0.6488 3.7191
L0.6012 3.8620
" />
<path d="M0.6012 3.8620
L0.5060 3.9572
" />
<path d="M0.5060 3.9572
L0.3631 4.0048
" />
<path d="M0.3631 4.0048
L0.2679 4.0048
" />
<path d="M1.6012 4.0048
L1.1250 4.0048
" />
<path d="M1.1250 4.0048
L1.1250 3.0048
" />
<path d="M2.5060 3.9096
L2.4583 3.9572
" />
<path d="M2.4583 3.9572
L2.3155 4.0048
" />
<path d="M2.3155 4.0048
L2.2202 4.0048
" />
<path d="M2.2202 4.0048
L2.0774 3.9572
" />
<path d="M2.0774 3.9572
L1.9821 3.8620
" />
<path d="M1.9821 3.8620
L1.9345 3.7667
" />
<path d="M1.9345 3.7667
L1.8869 3.5762
" />
<path d="M1.8869 3.5762
L1.8869 3.4334
" />
<path d="M1.8869 3.4334
L1.9345 3.2429
" />
<path d="M1.9345 3.2429
L1.9821 3.1477
" />
<path d="M1.9821 3.1477
L2.0774 3.0524
" />
<path d="M2.0774 3.0524
L2.2202 3.0048
" />
<path d="M2.2202 3.0048
L2.3155 3.0048
" />
<path d="M2.3155 3.0048
L2.4583 3.0524
" />
<path d="M2.4583 3.0524
L2.5060 3.1001
" />
<path d="M2.9345 4.0048
L2.9345 3.0048
" />
<path d="M2.9345 3.0048
L3.3155 3.0048
" />
<path d="M3.3155 3.0048
L3.4107 3.0524
" />
<path d="M3.4107 3.0524
L3.4583 3.1001
" />
<path d="M3.4583 3.1001
L3.5060 3.1953
" />
<path d="M3.5060 3.1953
L3.5060 3.3382
" />
<path d="M3.5060 3.3382
L3.4583 3.4334
" />
<path d="M3.4583 3.4334
L3.4107 3.4810
" />
<path d="M3.4107 3.4810
L3.3155 3.5286
" />
<path d="M3.3155 3.5286
L2.9345 3.5286
" />
<path d="M4.5060 3.9096
L4.4583 3.9572
" />
<path d="M4.4583 3.9572
L4.3155 4.0048
" />
<path d="M4.3155 4.0048
L4.2202 4.0048
" />
<path d="M4.2202 4.0048
L4.0774 3.9572
" />
<path d="M4.0774 3.9572
L3.9821 3.8620
" />
<path d="M3.9821 3.8620
L3.9345 3.7667
" />
<path d="M3.9345 3.7667
L3.8869 3.5762
" />
<path d="M3.8869 3.5762
L3.8869 3.4334
" />
<path d="M3.8869 3.4334
L3.9345 3.2429
" />
<path d="M3.9345 3.2429
L3.9821 3.1477
" />
<path d="M3.9821 3.1477
L4.0774 3.0524
" />
<path d="M4.0774 3.0524
L4.2202 3.0048
" />
<path d="M4.2202 3.0048
L4.3155 3.0048
" />
<path d="M4.3155 3.0048
L4.4583 3.0524
" />
<path d="M4.4583 3.0524
L4.5060 3.1001
" />
<path d="M5.2679 3.4810
L5.4107 3.5286
" />
<path d="M5.4107 3.5286
L5.4583 3.5762
" />
<path d="M5.4583 3.5762
L5.5060 3.6715
" />
<path d="M5.5060 3.6715
L5.5060 3.8143
" />
<path d="M5.5060 3.8143
L5.4583 3.9096
" />
<path d="M5.4583 3.9096
L5.4107 3.9572
" />
<path d="M5.4107 3.9572
L5.3155 4.0048
" />
<path d="M5.3155 4.0048
L4.9345 4.0048
" />
<path d="M4.9345 4.0048
L4.9345 3.0048
" />
<path d="M4.9345 3.0048
L5.2679 3.0048
" />
<path d="M5.2679 3.0048
L5.3631 3.0524
" />
<path d="M5.3631 3.0524
L5.4107 3.1001
" />
<path d="M5.4107 3.1001
L5.4583 3.1953
" />
<path d="M5.4583 3.1953
L5.4583 3.2905
" />
<path d="M5.4583 3.2905
L5.4107 3.3858
" />
<path d="M5.4107 3.3858
L5.3631 3.4334
" />
<path d="M5.3631 3.4334
L5.2679 3.4810
" />
<path d="M5.2679 3.4810
L4.9345 3.4810
" />
<path d="M5.6964 4.1001
L6.4583 4.1001
" />
<path d="M6.6488 3.9572
L6.7917 4.0048
" />
<path d="M6.7917 4.0048
L7.0298 4.0048
" />
<path d="M7.0298 4.0048
L7.1250 3.9572
" />
<path d="M7.1250 3.9572
L7.1726 3.9096
" />
<path d="M7.1726 3.9096
L7.2202 3.8143
" />
<path d="M7.2202 3.8143
L7.2202 3.7191
" />
<path d="M7.2202 3.7191
L7.1726 3.6239
" />
<path d="M7.1726 3.6239
L7.1250 3.5762
" />
<path d="M7.1250 3.5762
L7.0298 3.5286
" />
<path d="M7.0298 3.5286
L6.8393 3.4810
" />
<path d="M6.8393 3.4810
L6.7440 3.4334
" />
<path d="M6.7440 3.4334
L6.6964 3.3858
" />
<path d="M6.6964 3.3858
L6.6488 3.2905
" />
<path d="M6.6488 3.2905
L6.6488 3.1953
" />
<path d="M6.6488 3.1953
L6.6964 3.1001
" />
<path d="M6.6964 3.1001
L6.7440 3.0524
" />
<path d="M6.7440 3.0524
L6.8393 3.0048
" />
<path d="M6.8393 3.0048
L7.0774 3.0048
" />
<path d="M7.0774 3.0048
L7.2202 3.0524
" />
<path d="M8.0298 3.9572
L7.9345 4.0048
" />
<path d="M7.9345 4.0048
L7.7440 4.0048
" />
<path d="M7.7440 4.0048
L7.6488 3.9572
" />
<path d="M7.6488 3.9572
L7.6012 3.8620
" />
<path d="M7.6012 3.8620
L7.6012 3.4810
" />
<path d="M7.6012 3.4810
L7.6488 3.3858
" />
<path d="M7.6488 3.3858
L7.7440 3.3382
" />
<path d="M7.7440 3.3382
L7.9345 3.3382
" />
<path d="M7.9345 3.3382
L8.0298 3.3858
" />
<path d="M8.0298 3.3858
L8.0774 3.4810
" />
<path d="M8.0774 3.4810
L8.0774 3.5762
" />
<path d="M8.0774 3.5762
L7.6012 3.6715
" />
<path d="M8.5060 4.0048
L8.5060 3.3382
" />
<path d="M8.5060 3.5286
L8.5536 3.4334
" />
<path d="M8.5536 3.4334
L8.6012 3.3858
" />
<path d="M8.6012 3.3858
L8.6964 3.3382
" />
<path d="M8.6964 3.3382
L8.7917 3.3382
" />
<path d="M9.1250 4.0048
L9.1250 3.3382
" />
<path d="M9.1250 3.0048
L9.0774 3.0524
" />
<path d="M9.0774 3.0524
L9.1250 3.1001
" />
<path d="M9.1250 3.1001
L9.1726 3.0524
" />
<path d="M9.1726 3.0524
L9.1250 3.0048
" />
<path d="M9.1250 3.0048
L9.1250 3.1001
" />
<path d="M10.0298 4.0048
L10.0298 3.4810
" />
<path d="M10.0298 3.4810
L9.9821 3.3858
" />
<path d="M9.9821 3.3858
L9.8869 3.3382
" />
<path d="M9.8869 3.3382
L9.6964 3.3382
" />
<path d="M9.6964 3.3382
L9.6012 3.3858
" />
<path d="M10.0298 3.9572
L9.9345 4.0048
" />
<path d="M9.9345 4.0048
L9.6964 4.0048
" />
<path d="M9.6964 4.0048
L9.6012 3.9572
" />
<path d="M9.6012 3.9572
L9.5536 3.8620
" />
<path d="M9.5536 3.8620
L9.5536 3.7667
" />
<path d="M9.5536 3.7667
L9.6012 3.6715
" />
<path d="M9.6012 3.6715
L9.6964 3.6239
" />
<path d="M9.6964 3.6239
L9.9345 3.6239
" />
<path d="M9.9345 3.6239
L10.0298 3.5762
" />
<path d="M10.6488 4.0048
L10.5536 3.9572
" />
<path d="M10.5536 3.9572
L10.5060 3.8620
" />
<path d="M10.5060 3.8620
L10.5060 3.0048
" />
<path d="M11.0298 4.0048
L11.0298 3.0048
" />
<path d="M11.0298 3.0048
L11.6012 4.0048
" />
<path d="M11.6012 4.0048
L11.6012 3.0048
" />
<path d="M12.5060 3.3382
L12.5060 4.0048
" />
<path d="M12.0774 3.3382
L12.0774 3.8620
" />
<path d="M12.0774 3.8620
L12.1250 3.9572
" />
<path d="M12.1250 3.9572
L12.2202 4.0048
" />
<path d="M12.2202 4.0048
L12.3631 4.0048
" />
<path d="M12.3631 4.0048
L12.4583 3.9572
" />
<path d="M12.4583 3.9572
L12.5060 3.9096
" />
<path d="M12.9821 4.0048
L12.9821 3.3382
" />
<path d="M12.9821 3.4334
L13.0298 3.3858
" />
<path d="M13.0298 3.3858
L13.1250 3.3382
" />
<path d="M13.1250 3.3382
L13.2679 3.3382
" />
<path d="M13.2679 3.3382
L13.3631 3.3858
" />
<path d="M13.3631 3.3858
L13.4107 3.4810
" />
<path d="M13.4107 3.4810
L13.4107 4.0048
" />
<path d="M13.4107 3.4810
L13.4583 3.3858
" />
<path d="M13.4583 3.3858
L13.5536 3.3382
" />
<path d="M13.5536 3.3382
L13.6964 3.3382
" />
<path d="M13.6964 3.3382
L13.7917 3.3858
" />
<path d="M13.7917 3.3858
L13.8393 3.4810
" />
<path d="M13.8393 3.4810
L13.8393 4.0048
" />
<path d="M14.3155 4.0048
L14.3155 3.0048
" />
<path d="M14.3155 3.3858
L14.4107 3.3382
" />
<path d="M14.4107 3.3382
L14.6012 3.3382
" />
<path d="M14.6012 3.3382
L14.6964 3.3858
" />
<path d="M14.6964 3.3858
L14.7440 3.4334
" />
<path d="M14.7440 3.4334
L14.7917 3.5286
" />
<path d="M14.7917 3.5286
L14.7917 3.8143
" />
<path d="M14.7917 3.8143
L14.7440 3.9096
" />
<path d="M14.7440 3.9096
L14.6964 3.9572
" />
<path d="M14.6964 3.9572
L14.6012 4.0048
" />
<path d="M14.6012 4.0048
L14.4107 4.0048
" />
<path d="M14.4107 4.0048
L14.3155 3.9572
" />
<path d="M15.6012 3.9572
L15.5060 4.0048
" />
<path d="M15.5060 4.0048
L15.3155 4.0048
" />
<path d="M15.3155 4.0048
L15.2202 3.9572
" />
<path d="M15.2202 3.9572
L15.1726 3.8620
" />
<path d="M15.1726 3.8620
L15.1726 3.4810
" />
<path d="M15.1726 3.4810
L15.2202 3.3858
" />
<path d="M15.2202 3.3858
L15.3155 3.3382
" />
<path d="M15.3155 3.3382
L15.5060 3.3382
" />
<path d="M15.5060 3.3382
L15.6012 3.3858
" />
<path d="M15.6012 3.3858
L15.6488 3.4810
" />
<path d="M15.6488 3.4810
L15.6488 3.5762
" />
<path d="M15.6488 3.5762
L15.1726 3.6715
" />
<path d="M16.0774 4.0048
L16.0774 3.3382
" />
<path d="M16.0774 3.5286
L16.1250 3.4334
" />
<path d="M16.1250 3.4334
L16.1726 3.3858
" />
<path d="M16.1726 3.3858
L16.2679 3.3382
" />
<path d="M16.2679 3.3382
L16.3631 3.3382
" />
<path d="M16.4583 4.1001
L17.2202 4.1001
" />
<path d="M17.4107 3.1001
L17.4583 3.0524
" />
<path d="M17.4583 3.0524
L17.5536 3.0048
" />
<path d="M17.5536 3.0048
L17.7917 3.0048
" />
<path d="M17.7917 3.0048
L17.8869 3.0524
" />
<path d="M17.8869 3.0524
L17.9345 3.1001
" />
<path d="M17.9345 3.1001
L17.9821 3.1953
" />
<path d="M17.9821 3.1953
L17.9821 3.2905
" />
<path d="M17.9821 3.2905
L17.9345 3.4334
" />
<path d="M17.9345 3.4334
L17.3631 4.0048
" />
<path d="M17.3631 4.0048
L17.9821 4.0048
" />
<path d="M18.3155 4.0048
L18.8393 3.3382
" />
<path d="M18.3155 3.3382
L18.8393 4.0048
" />
<path d="M19.7440 4.0048
L19.1726 4.0048
" />
<path d="M19.4583 4.0048
L19.4583 3.0048
" />
<path d="M19.4583 3.0048
L19.3631 3.1477
" />
<path d="M19.3631 3.1477
L19.2679 3.2429
" />
<path d="M19.2679 3.2429
L19.1726 3.2905
" />
<path d="M20.3631 3.0048
L20.4583 3.0048
" />
<path d="M20.4583 3.0048
L20.5536 3.0524
" />
<path d="M20.5536 3.0524
L20.6012 3.1001
" />
<path d="M20.6012 3.1001
L20.6488 3.1953
" />
<path d="M20.6488 3.1953
L20.6964 3.3858
" />
<path d="M20.6964 3.3858
L20.6964 3.6239
" />
<path d="M20.6964 3.6239
L20.6488 3.8143
" />
<path d="M20.6488 3.8143
L20.6012 3.9096
" />
<path d="M20.6012 3.9096
L20.5536 3.9572
" />
<path d="M20.5536 3.9572
L20.4583 4.0048
" />
<path d="M20.4583 4.0048
L20.3631 4.0048
" />
<path d="M20.3631 4.0048
L20.2679 3.9572
" />
<path d="M20.2679 3.9572
L20.2202 3.9096
" />
<path d="M20.2202 3.9096
L20.1726 3.8143
" />
<path d="M20.1726 3.8143
L20.1250 3.6239
" />
<path d="M20.1250 3.6239
L20.1250 3.3858
" />
<path d="M20.1250 3.3858
L20.1726 3.1953
" />
<path d="M20.1726 3.1953
L20.2202 3.1001
" />
<path d="M20.2202 3.1001
L20.2679 3.0524
" />
<path d="M20.2679 3.0524
L20.3631 3.0048
" />
<path d="M21.1250 4.0048
L21.1250 3.3382
" />
<path d="M21.1250 3.4334
L21.1726 3.3858
" />
<path d="M21.1726 3.3858
L21.2679 3.3382
" />
<path d="M21.2679 3.3382
L21.4107 3.3382
" />
<path d="M21.4107 3.3382
L21.5060 3.3858
" />
<path d="M21.5060 3.3858
L21.5536 3.4810
" />
<path d="M21.5536 3.4810
L21.5536 4.0048
" />
<path d="M21.5536 3.4810
L21.6012 3.3858
" />
<path d="M21.6012 3.3858
L21.6964 3.3382
" />
<path d="M21.6964 3.3382
L21.8393 3.3382
" />
<path d="M21.8393 3.3382
L21.9345 3.3858
" />
<path d="M21.9345 3.3858
L21.9821 3.4810
" />
<path d="M21.9821 3.4810
L21.9821 4.0048
" />
<path d="M22.4583 4.0048
L22.4583 3.3382
" />
<path d="M22.4583 3.4334
L22.5060 3.3858
" />
<path d="M22.5060 3.3858
L22.6012 3.3382
" />
<path d="M22.6012 3.3382
L22.7440 3.3382
" />
<path d="M22.7440 3.3382
L22.8393 3.3858
" />
<path d="M22.8393 3.3858
L22.8869 3.4810
" />
<path d="M22.8869 3.4810
L22.8869 4.0048
" />
<path d="M22.8869 3.4810
L22.9345 3.3858
" />
<path d="M22.9345 3.3858
L23.0298 3.3382
" />
<path d="M23.0298 3.3382
L23.1726 3.3382
" />
<path d="M23.1726 3.3382
L23.2679 3.3858
" />
<path d="M23.2679 3.3858
L23.3155 3.4810
" />
<path d="M23.3155 3.4810
L23.3155 4.0048
" />
</g><text x="11.8393" y="1.5500"
textLength="1.1071" font-size="1.3333" lengthAdjust="spacingAndGlyphs"
text-anchor="middle" opacity="0" stroke-opacity="0">F</text>
<g class="stroked-text"><desc>F</desc>
<path d="M11.9821 0.9810
L11.6488 0.9810
" />
<path d="M11.6488 1.5048
L11.6488 0.5048
" />
<path d="M11.6488 0.5048
L12.1250 0.5048
" />
</g><text x="11.8393" y="5.5500"
textLength="4.5357" font-size="1.3333" lengthAdjust="spacingAndGlyphs"
text-anchor="middle" opacity="0" stroke-opacity="0">REF**</text>
<g class="stroked-text"><desc>REF**</desc>
<path d="M10.5060 5.5048
L10.1726 5.0286
" />
<path d="M9.9345 5.5048
L9.9345 4.5048
" />
<path d="M9.9345 4.5048
L10.3155 4.5048
" />
<path d="M10.3155 4.5048
L10.4107 4.5524
" />
<path d="M10.4107 4.5524
L10.4583 4.6001
" />
<path d="M10.4583 4.6001
L10.5060 4.6953
" />
<path d="M10.5060 4.6953
L10.5060 4.8382
" />
<path d="M10.5060 4.8382
L10.4583 4.9334
" />
<path d="M10.4583 4.9334
L10.4107 4.9810
" />
<path d="M10.4107 4.9810
L10.3155 5.0286
" />
<path d="M10.3155 5.0286
L9.9345 5.0286
" />
<path d="M10.9345 4.9810
L11.2679 4.9810
" />
<path d="M11.4107 5.5048
L10.9345 5.5048
" />
<path d="M10.9345 5.5048
L10.9345 4.5048
" />
<path d="M10.9345 4.5048
L11.4107 4.5048
" />
<path d="M12.1726 4.9810
L11.8393 4.9810
" />
<path d="M11.8393 5.5048
L11.8393 4.5048
" />
<path d="M11.8393 4.5048
L12.3155 4.5048
" />
<path d="M12.8393 4.5048
L12.8393 4.7429
" />
<path d="M12.6012 4.6477
L12.8393 4.7429
" />
<path d="M12.8393 4.7429
L13.0774 4.6477
" />
<path d="M12.6964 4.9334
L12.8393 4.7429
" />
<path d="M12.8393 4.7429
L12.9821 4.9334
" />
<path d="M13.6012 4.5048
L13.6012 4.7429
" />
<path d="M13.3631 4.6477
L13.6012 4.7429
" />
<path d="M13.6012 4.7429
L13.8393 4.6477
" />
<path d="M13.4583 4.9334
L13.6012 4.7429
" />
<path d="M13.6012 4.7429
L13.7440 4.9334
" />
</g><path style="fill:none; 
stroke:#AFAFAF; stroke-width:0.1000; stroke-opacity:1; 
stroke-linecap:round; stroke-linejoin:round;fill:none"
d="M 6.8393,0.0500
16.8393,0.0500
16.8393,2.0500
6.8393,2.0500
Z" /> 
</g> 
</svg>
