<?xml version="1.0" standalone="no"?>
 <!DOCTYPE svg PUBLIC "-//W3C//DTD SVG 1.1//EN" 
 "http://www.w3.org/Graphics/SVG/1.1/DTD/svg11.dtd"> 
<svg
  xmlns:svg="http://www.w3.org/2000/svg"
  xmlns="http://www.w3.org/2000/svg"
  xmlns:xlink="http://www.w3.org/1999/xlink"
  version="1.1"
  width="20.7010mm" height="13.8938mm" viewBox="0.0000 0.0000 20.7010 13.8938">
<title>SVG Image created as JLCPCB_2DBarcode_8x8mm.svg date 2025/04/12 02:54:55 </title>
  <desc>Image generated by PCBNEW </desc>
<g style="fill:#000000; fill-opacity:1.0000;stroke:#000000; stroke-opacity:1.0000;
stroke-linecap:round; stroke-linejoin:round;"
 transform="translate(0 0) scale(1 1)">
<path style="fill:#F2EDA1; fill-opacity:1.0000; stroke:none;fill-rule:evenodd;"
d="M 6.3631,0.0500
14.3631,0.0500
14.3631,8.0500
6.3631,8.0500
Z" /> 
</g>
<g style="fill:none; 
stroke:#AFAFAF; stroke-width:0.1500; stroke-opacity:1; 
stroke-linecap:round; stroke-linejoin:round;">
<text x="10.3631" y="12.0500"
textLength="20.7262" font-size="1.3333" lengthAdjust="spacingAndGlyphs"
text-anchor="middle" opacity="0" stroke-opacity="0">JLCPCB_2DBarcode_8x8mm</text>
<g class="stroked-text"><desc>JLCPCB_2DBarcode_8x8mm</desc>
<path d="M0.6488 11.0048
L0.6488 11.7191
" />
<path d="M0.6488 11.7191
L0.6012 11.8620
" />
<path d="M0.6012 11.8620
L0.5060 11.9572
" />
<path d="M0.5060 11.9572
L0.3631 12.0048
" />
<path d="M0.3631 12.0048
L0.2679 12.0048
" />
<path d="M1.6012 12.0048
L1.1250 12.0048
" />
<path d="M1.1250 12.0048
L1.1250 11.0048
" />
<path d="M2.5060 11.9096
L2.4583 11.9572
" />
<path d="M2.4583 11.9572
L2.3155 12.0048
" />
<path d="M2.3155 12.0048
L2.2202 12.0048
" />
<path d="M2.2202 12.0048
L2.0774 11.9572
" />
<path d="M2.0774 11.9572
L1.9821 11.8620
" />
<path d="M1.9821 11.8620
L1.9345 11.7667
" />
<path d="M1.9345 11.7667
L1.8869 11.5762
" />
<path d="M1.8869 11.5762
L1.8869 11.4334
" />
<path d="M1.8869 11.4334
L1.9345 11.2429
" />
<path d="M1.9345 11.2429
L1.9821 11.1477
" />
<path d="M1.9821 11.1477
L2.0774 11.0524
" />
<path d="M2.0774 11.0524
L2.2202 11.0048
" />
<path d="M2.2202 11.0048
L2.3155 11.0048
" />
<path d="M2.3155 11.0048
L2.4583 11.0524
" />
<path d="M2.4583 11.0524
L2.5060 11.1001
" />
<path d="M2.9345 12.0048
L2.9345 11.0048
" />
<path d="M2.9345 11.0048
L3.3155 11.0048
" />
<path d="M3.3155 11.0048
L3.4107 11.0524
" />
<path d="M3.4107 11.0524
L3.4583 11.1001
" />
<path d="M3.4583 11.1001
L3.5060 11.1953
" />
<path d="M3.5060 11.1953
L3.5060 11.3382
" />
<path d="M3.5060 11.3382
L3.4583 11.4334
" />
<path d="M3.4583 11.4334
L3.4107 11.4810
" />
<path d="M3.4107 11.4810
L3.3155 11.5286
" />
<path d="M3.3155 11.5286
L2.9345 11.5286
" />
<path d="M4.5060 11.9096
L4.4583 11.9572
" />
<path d="M4.4583 11.9572
L4.3155 12.0048
" />
<path d="M4.3155 12.0048
L4.2202 12.0048
" />
<path d="M4.2202 12.0048
L4.0774 11.9572
" />
<path d="M4.0774 11.9572
L3.9821 11.8620
" />
<path d="M3.9821 11.8620
L3.9345 11.7667
" />
<path d="M3.9345 11.7667
L3.8869 11.5762
" />
<path d="M3.8869 11.5762
L3.8869 11.4334
" />
<path d="M3.8869 11.4334
L3.9345 11.2429
" />
<path d="M3.9345 11.2429
L3.9821 11.1477
" />
<path d="M3.9821 11.1477
L4.0774 11.0524
" />
<path d="M4.0774 11.0524
L4.2202 11.0048
" />
<path d="M4.2202 11.0048
L4.3155 11.0048
" />
<path d="M4.3155 11.0048
L4.4583 11.0524
" />
<path d="M4.4583 11.0524
L4.5060 11.1001
" />
<path d="M5.2679 11.4810
L5.4107 11.5286
" />
<path d="M5.4107 11.5286
L5.4583 11.5762
" />
<path d="M5.4583 11.5762
L5.5060 11.6715
" />
<path d="M5.5060 11.6715
L5.5060 11.8143
" />
<path d="M5.5060 11.8143
L5.4583 11.9096
" />
<path d="M5.4583 11.9096
L5.4107 11.9572
" />
<path d="M5.4107 11.9572
L5.3155 12.0048
" />
<path d="M5.3155 12.0048
L4.9345 12.0048
" />
<path d="M4.9345 12.0048
L4.9345 11.0048
" />
<path d="M4.9345 11.0048
L5.2679 11.0048
" />
<path d="M5.2679 11.0048
L5.3631 11.0524
" />
<path d="M5.3631 11.0524
L5.4107 11.1001
" />
<path d="M5.4107 11.1001
L5.4583 11.1953
" />
<path d="M5.4583 11.1953
L5.4583 11.2905
" />
<path d="M5.4583 11.2905
L5.4107 11.3858
" />
<path d="M5.4107 11.3858
L5.3631 11.4334
" />
<path d="M5.3631 11.4334
L5.2679 11.4810
" />
<path d="M5.2679 11.4810
L4.9345 11.4810
" />
<path d="M5.6964 12.1001
L6.4583 12.1001
" />
<path d="M6.6488 11.1001
L6.6964 11.0524
" />
<path d="M6.6964 11.0524
L6.7917 11.0048
" />
<path d="M6.7917 11.0048
L7.0298 11.0048
" />
<path d="M7.0298 11.0048
L7.1250 11.0524
" />
<path d="M7.1250 11.0524
L7.1726 11.1001
" />
<path d="M7.1726 11.1001
L7.2202 11.1953
" />
<path d="M7.2202 11.1953
L7.2202 11.2905
" />
<path d="M7.2202 11.2905
L7.1726 11.4334
" />
<path d="M7.1726 11.4334
L6.6012 12.0048
" />
<path d="M6.6012 12.0048
L7.2202 12.0048
" />
<path d="M7.6488 12.0048
L7.6488 11.0048
" />
<path d="M7.6488 11.0048
L7.8869 11.0048
" />
<path d="M7.8869 11.0048
L8.0298 11.0524
" />
<path d="M8.0298 11.0524
L8.1250 11.1477
" />
<path d="M8.1250 11.1477
L8.1726 11.2429
" />
<path d="M8.1726 11.2429
L8.2202 11.4334
" />
<path d="M8.2202 11.4334
L8.2202 11.5762
" />
<path d="M8.2202 11.5762
L8.1726 11.7667
" />
<path d="M8.1726 11.7667
L8.1250 11.8620
" />
<path d="M8.1250 11.8620
L8.0298 11.9572
" />
<path d="M8.0298 11.9572
L7.8869 12.0048
" />
<path d="M7.8869 12.0048
L7.6488 12.0048
" />
<path d="M8.9821 11.4810
L9.1250 11.5286
" />
<path d="M9.1250 11.5286
L9.1726 11.5762
" />
<path d="M9.1726 11.5762
L9.2202 11.6715
" />
<path d="M9.2202 11.6715
L9.2202 11.8143
" />
<path d="M9.2202 11.8143
L9.1726 11.9096
" />
<path d="M9.1726 11.9096
L9.1250 11.9572
" />
<path d="M9.1250 11.9572
L9.0298 12.0048
" />
<path d="M9.0298 12.0048
L8.6488 12.0048
" />
<path d="M8.6488 12.0048
L8.6488 11.0048
" />
<path d="M8.6488 11.0048
L8.9821 11.0048
" />
<path d="M8.9821 11.0048
L9.0774 11.0524
" />
<path d="M9.0774 11.0524
L9.1250 11.1001
" />
<path d="M9.1250 11.1001
L9.1726 11.1953
" />
<path d="M9.1726 11.1953
L9.1726 11.2905
" />
<path d="M9.1726 11.2905
L9.1250 11.3858
" />
<path d="M9.1250 11.3858
L9.0774 11.4334
" />
<path d="M9.0774 11.4334
L8.9821 11.4810
" />
<path d="M8.9821 11.4810
L8.6488 11.4810
" />
<path d="M10.0774 12.0048
L10.0774 11.4810
" />
<path d="M10.0774 11.4810
L10.0298 11.3858
" />
<path d="M10.0298 11.3858
L9.9345 11.3382
" />
<path d="M9.9345 11.3382
L9.7440 11.3382
" />
<path d="M9.7440 11.3382
L9.6488 11.3858
" />
<path d="M10.0774 11.9572
L9.9821 12.0048
" />
<path d="M9.9821 12.0048
L9.7440 12.0048
" />
<path d="M9.7440 12.0048
L9.6488 11.9572
" />
<path d="M9.6488 11.9572
L9.6012 11.8620
" />
<path d="M9.6012 11.8620
L9.6012 11.7667
" />
<path d="M9.6012 11.7667
L9.6488 11.6715
" />
<path d="M9.6488 11.6715
L9.7440 11.6239
" />
<path d="M9.7440 11.6239
L9.9821 11.6239
" />
<path d="M9.9821 11.6239
L10.0774 11.5762
" />
<path d="M10.5536 12.0048
L10.5536 11.3382
" />
<path d="M10.5536 11.5286
L10.6012 11.4334
" />
<path d="M10.6012 11.4334
L10.6488 11.3858
" />
<path d="M10.6488 11.3858
L10.7440 11.3382
" />
<path d="M10.7440 11.3382
L10.8393 11.3382
" />
<path d="M11.6012 11.9572
L11.5060 12.0048
" />
<path d="M11.5060 12.0048
L11.3155 12.0048
" />
<path d="M11.3155 12.0048
L11.2202 11.9572
" />
<path d="M11.2202 11.9572
L11.1726 11.9096
" />
<path d="M11.1726 11.9096
L11.1250 11.8143
" />
<path d="M11.1250 11.8143
L11.1250 11.5286
" />
<path d="M11.1250 11.5286
L11.1726 11.4334
" />
<path d="M11.1726 11.4334
L11.2202 11.3858
" />
<path d="M11.2202 11.3858
L11.3155 11.3382
" />
<path d="M11.3155 11.3382
L11.5060 11.3382
" />
<path d="M11.5060 11.3382
L11.6012 11.3858
" />
<path d="M12.1726 12.0048
L12.0774 11.9572
" />
<path d="M12.0774 11.9572
L12.0298 11.9096
" />
<path d="M12.0298 11.9096
L11.9821 11.8143
" />
<path d="M11.9821 11.8143
L11.9821 11.5286
" />
<path d="M11.9821 11.5286
L12.0298 11.4334
" />
<path d="M12.0298 11.4334
L12.0774 11.3858
" />
<path d="M12.0774 11.3858
L12.1726 11.3382
" />
<path d="M12.1726 11.3382
L12.3155 11.3382
" />
<path d="M12.3155 11.3382
L12.4107 11.3858
" />
<path d="M12.4107 11.3858
L12.4583 11.4334
" />
<path d="M12.4583 11.4334
L12.5060 11.5286
" />
<path d="M12.5060 11.5286
L12.5060 11.8143
" />
<path d="M12.5060 11.8143
L12.4583 11.9096
" />
<path d="M12.4583 11.9096
L12.4107 11.9572
" />
<path d="M12.4107 11.9572
L12.3155 12.0048
" />
<path d="M12.3155 12.0048
L12.1726 12.0048
" />
<path d="M13.3631 12.0048
L13.3631 11.0048
" />
<path d="M13.3631 11.9572
L13.2679 12.0048
" />
<path d="M13.2679 12.0048
L13.0774 12.0048
" />
<path d="M13.0774 12.0048
L12.9821 11.9572
" />
<path d="M12.9821 11.9572
L12.9345 11.9096
" />
<path d="M12.9345 11.9096
L12.8869 11.8143
" />
<path d="M12.8869 11.8143
L12.8869 11.5286
" />
<path d="M12.8869 11.5286
L12.9345 11.4334
" />
<path d="M12.9345 11.4334
L12.9821 11.3858
" />
<path d="M12.9821 11.3858
L13.0774 11.3382
" />
<path d="M13.0774 11.3382
L13.2679 11.3382
" />
<path d="M13.2679 11.3382
L13.3631 11.3858
" />
<path d="M14.2202 11.9572
L14.1250 12.0048
" />
<path d="M14.1250 12.0048
L13.9345 12.0048
" />
<path d="M13.9345 12.0048
L13.8393 11.9572
" />
<path d="M13.8393 11.9572
L13.7917 11.8620
" />
<path d="M13.7917 11.8620
L13.7917 11.4810
" />
<path d="M13.7917 11.4810
L13.8393 11.3858
" />
<path d="M13.8393 11.3858
L13.9345 11.3382
" />
<path d="M13.9345 11.3382
L14.1250 11.3382
" />
<path d="M14.1250 11.3382
L14.2202 11.3858
" />
<path d="M14.2202 11.3858
L14.2679 11.4810
" />
<path d="M14.2679 11.4810
L14.2679 11.5762
" />
<path d="M14.2679 11.5762
L13.7917 11.6715
" />
<path d="M14.4583 12.1001
L15.2202 12.1001
" />
<path d="M15.6012 11.4334
L15.5060 11.3858
" />
<path d="M15.5060 11.3858
L15.4583 11.3382
" />
<path d="M15.4583 11.3382
L15.4107 11.2429
" />
<path d="M15.4107 11.2429
L15.4107 11.1953
" />
<path d="M15.4107 11.1953
L15.4583 11.1001
" />
<path d="M15.4583 11.1001
L15.5060 11.0524
" />
<path d="M15.5060 11.0524
L15.6012 11.0048
" />
<path d="M15.6012 11.0048
L15.7917 11.0048
" />
<path d="M15.7917 11.0048
L15.8869 11.0524
" />
<path d="M15.8869 11.0524
L15.9345 11.1001
" />
<path d="M15.9345 11.1001
L15.9821 11.1953
" />
<path d="M15.9821 11.1953
L15.9821 11.2429
" />
<path d="M15.9821 11.2429
L15.9345 11.3382
" />
<path d="M15.9345 11.3382
L15.8869 11.3858
" />
<path d="M15.8869 11.3858
L15.7917 11.4334
" />
<path d="M15.7917 11.4334
L15.6012 11.4334
" />
<path d="M15.6012 11.4334
L15.5060 11.4810
" />
<path d="M15.5060 11.4810
L15.4583 11.5286
" />
<path d="M15.4583 11.5286
L15.4107 11.6239
" />
<path d="M15.4107 11.6239
L15.4107 11.8143
" />
<path d="M15.4107 11.8143
L15.4583 11.9096
" />
<path d="M15.4583 11.9096
L15.5060 11.9572
" />
<path d="M15.5060 11.9572
L15.6012 12.0048
" />
<path d="M15.6012 12.0048
L15.7917 12.0048
" />
<path d="M15.7917 12.0048
L15.8869 11.9572
" />
<path d="M15.8869 11.9572
L15.9345 11.9096
" />
<path d="M15.9345 11.9096
L15.9821 11.8143
" />
<path d="M15.9821 11.8143
L15.9821 11.6239
" />
<path d="M15.9821 11.6239
L15.9345 11.5286
" />
<path d="M15.9345 11.5286
L15.8869 11.4810
" />
<path d="M15.8869 11.4810
L15.7917 11.4334
" />
<path d="M16.3155 12.0048
L16.8393 11.3382
" />
<path d="M16.3155 11.3382
L16.8393 12.0048
" />
<path d="M17.3631 11.4334
L17.2679 11.3858
" />
<path d="M17.2679 11.3858
L17.2202 11.3382
" />
<path d="M17.2202 11.3382
L17.1726 11.2429
" />
<path d="M17.1726 11.2429
L17.1726 11.1953
" />
<path d="M17.1726 11.1953
L17.2202 11.1001
" />
<path d="M17.2202 11.1001
L17.2679 11.0524
" />
<path d="M17.2679 11.0524
L17.3631 11.0048
" />
<path d="M17.3631 11.0048
L17.5536 11.0048
" />
<path d="M17.5536 11.0048
L17.6488 11.0524
" />
<path d="M17.6488 11.0524
L17.6964 11.1001
" />
<path d="M17.6964 11.1001
L17.7440 11.1953
" />
<path d="M17.7440 11.1953
L17.7440 11.2429
" />
<path d="M17.7440 11.2429
L17.6964 11.3382
" />
<path d="M17.6964 11.3382
L17.6488 11.3858
" />
<path d="M17.6488 11.3858
L17.5536 11.4334
" />
<path d="M17.5536 11.4334
L17.3631 11.4334
" />
<path d="M17.3631 11.4334
L17.2679 11.4810
" />
<path d="M17.2679 11.4810
L17.2202 11.5286
" />
<path d="M17.2202 11.5286
L17.1726 11.6239
" />
<path d="M17.1726 11.6239
L17.1726 11.8143
" />
<path d="M17.1726 11.8143
L17.2202 11.9096
" />
<path d="M17.2202 11.9096
L17.2679 11.9572
" />
<path d="M17.2679 11.9572
L17.3631 12.0048
" />
<path d="M17.3631 12.0048
L17.5536 12.0048
" />
<path d="M17.5536 12.0048
L17.6488 11.9572
" />
<path d="M17.6488 11.9572
L17.6964 11.9096
" />
<path d="M17.6964 11.9096
L17.7440 11.8143
" />
<path d="M17.7440 11.8143
L17.7440 11.6239
" />
<path d="M17.7440 11.6239
L17.6964 11.5286
" />
<path d="M17.6964 11.5286
L17.6488 11.4810
" />
<path d="M17.6488 11.4810
L17.5536 11.4334
" />
<path d="M18.1726 12.0048
L18.1726 11.3382
" />
<path d="M18.1726 11.4334
L18.2202 11.3858
" />
<path d="M18.2202 11.3858
L18.3155 11.3382
" />
<path d="M18.3155 11.3382
L18.4583 11.3382
" />
<path d="M18.4583 11.3382
L18.5536 11.3858
" />
<path d="M18.5536 11.3858
L18.6012 11.4810
" />
<path d="M18.6012 11.4810
L18.6012 12.0048
" />
<path d="M18.6012 11.4810
L18.6488 11.3858
" />
<path d="M18.6488 11.3858
L18.7440 11.3382
" />
<path d="M18.7440 11.3382
L18.8869 11.3382
" />
<path d="M18.8869 11.3382
L18.9821 11.3858
" />
<path d="M18.9821 11.3858
L19.0298 11.4810
" />
<path d="M19.0298 11.4810
L19.0298 12.0048
" />
<path d="M19.5060 12.0048
L19.5060 11.3382
" />
<path d="M19.5060 11.4334
L19.5536 11.3858
" />
<path d="M19.5536 11.3858
L19.6488 11.3382
" />
<path d="M19.6488 11.3382
L19.7917 11.3382
" />
<path d="M19.7917 11.3382
L19.8869 11.3858
" />
<path d="M19.8869 11.3858
L19.9345 11.4810
" />
<path d="M19.9345 11.4810
L19.9345 12.0048
" />
<path d="M19.9345 11.4810
L19.9821 11.3858
" />
<path d="M19.9821 11.3858
L20.0774 11.3382
" />
<path d="M20.0774 11.3382
L20.2202 11.3382
" />
<path d="M20.2202 11.3382
L20.3155 11.3858
" />
<path d="M20.3155 11.3858
L20.3631 11.4810
" />
<path d="M20.3631 11.4810
L20.3631 12.0048
" />
</g></g>
<g style="fill:none; 
stroke:#AFAFAF; stroke-width:0.2500; stroke-opacity:1; 
stroke-linecap:round; stroke-linejoin:round;">
<text x="10.3631" y="5.0500"
textLength="2.0643" font-size="2.6667" lengthAdjust="spacingAndGlyphs"
text-anchor="middle" opacity="0" stroke-opacity="0">F</text>
<g class="stroked-text"><desc>F</desc>
<path d="M10.6488 3.9146
L9.9821 3.9146
" />
<path d="M9.9821 4.9622
L9.9821 2.9622
" />
<path d="M9.9821 2.9622
L10.9345 2.9622
" />
</g></g>
<g style="fill:none; 
stroke:#AFAFAF; stroke-width:0.1500; stroke-opacity:1; 
stroke-linecap:round; stroke-linejoin:round;">
<text x="10.3631" y="9.5500"
textLength="1.1071" font-size="1.3333" lengthAdjust="spacingAndGlyphs"
text-anchor="middle" opacity="0" stroke-opacity="0">F</text>
<g class="stroked-text"><desc>F</desc>
<path d="M10.5060 8.9810
L10.1726 8.9810
" />
<path d="M10.1726 9.5048
L10.1726 8.5048
" />
<path d="M10.1726 8.5048
L10.6488 8.5048
" />
</g><text x="10.3631" y="13.5500"
textLength="4.5357" font-size="1.3333" lengthAdjust="spacingAndGlyphs"
text-anchor="middle" opacity="0" stroke-opacity="0">REF**</text>
<g class="stroked-text"><desc>REF**</desc>
<path d="M9.0298 13.5048
L8.6964 13.0286
" />
<path d="M8.4583 13.5048
L8.4583 12.5048
" />
<path d="M8.4583 12.5048
L8.8393 12.5048
" />
<path d="M8.8393 12.5048
L8.9345 12.5524
" />
<path d="M8.9345 12.5524
L8.9821 12.6001
" />
<path d="M8.9821 12.6001
L9.0298 12.6953
" />
<path d="M9.0298 12.6953
L9.0298 12.8382
" />
<path d="M9.0298 12.8382
L8.9821 12.9334
" />
<path d="M8.9821 12.9334
L8.9345 12.9810
" />
<path d="M8.9345 12.9810
L8.8393 13.0286
" />
<path d="M8.8393 13.0286
L8.4583 13.0286
" />
<path d="M9.4583 12.9810
L9.7917 12.9810
" />
<path d="M9.9345 13.5048
L9.4583 13.5048
" />
<path d="M9.4583 13.5048
L9.4583 12.5048
" />
<path d="M9.4583 12.5048
L9.9345 12.5048
" />
<path d="M10.6964 12.9810
L10.3631 12.9810
" />
<path d="M10.3631 13.5048
L10.3631 12.5048
" />
<path d="M10.3631 12.5048
L10.8393 12.5048
" />
<path d="M11.3631 12.5048
L11.3631 12.7429
" />
<path d="M11.1250 12.6477
L11.3631 12.7429
" />
<path d="M11.3631 12.7429
L11.6012 12.6477
" />
<path d="M11.2202 12.9334
L11.3631 12.7429
" />
<path d="M11.3631 12.7429
L11.5060 12.9334
" />
<path d="M12.1250 12.5048
L12.1250 12.7429
" />
<path d="M11.8869 12.6477
L12.1250 12.7429
" />
<path d="M12.1250 12.7429
L12.3631 12.6477
" />
<path d="M11.9821 12.9334
L12.1250 12.7429
" />
<path d="M12.1250 12.7429
L12.2679 12.9334
" />
</g><path style="fill:none; 
stroke:#AFAFAF; stroke-width:0.1000; stroke-opacity:1; 
stroke-linecap:round; stroke-linejoin:round;fill:none"
d="M 6.3631,0.0500
14.3631,0.0500
14.3631,8.0500
6.3631,8.0500
Z" /> 
<path style="fill:none; 
stroke:#AFAFAF; stroke-width:0.1000; stroke-opacity:1; 
stroke-linecap:round; stroke-linejoin:round;fill:none"
d="M 6.3631,8.0500
14.3631,8.0500
14.3631,10.0500
6.3631,10.0500
Z" /> 
</g> 
</svg>
