<?xml version="1.0" standalone="no"?>
 <!DOCTYPE svg PUBLIC "-//W3C//DTD SVG 1.1//EN" 
 "http://www.w3.org/Graphics/SVG/1.1/DTD/svg11.dtd"> 
<svg
  xmlns:svg="http://www.w3.org/2000/svg"
  xmlns="http://www.w3.org/2000/svg"
  xmlns:xlink="http://www.w3.org/1999/xlink"
  version="1.1"
  width="22.6060mm" height="15.8750mm" viewBox="0.0000 0.0000 22.6060 15.8750">
<title>SVG Image created as JLCPCB_2DBarcode_10x10mm.svg date 2025/04/12 02:58:46 </title>
  <desc>Image generated by PCBNEW </desc>
<g style="fill:#000000; fill-opacity:1.0000;stroke:#000000; stroke-opacity:1.0000;
stroke-linecap:round; stroke-linejoin:round;"
 transform="translate(0 0) scale(1 1)">
<path style="fill:#F2EDA1; fill-opacity:1.0000; stroke:none;fill-rule:evenodd;"
d="M 6.3155,0.0500
16.3155,0.0500
16.3155,10.0500
6.3155,10.0500
Z" /> 
<path style="fill:none; 
stroke:#585D84; stroke-width:0.1000; stroke-opacity:1; 
stroke-linecap:round; stroke-linejoin:round;fill:none"
d="M 6.3155,0.0500
16.3155,0.0500
16.3155,10.0500
6.3155,10.0500
Z" /> 
</g>
<g style="fill:none; 
stroke:#AFAFAF; stroke-width:0.1500; stroke-opacity:1; 
stroke-linecap:round; stroke-linejoin:round;">
<text x="11.3155" y="14.0500"
textLength="22.6310" font-size="1.3333" lengthAdjust="spacingAndGlyphs"
text-anchor="middle" opacity="0" stroke-opacity="0">JLCPCB_2DBarcode_10x10mm</text>
<g class="stroked-text"><desc>JLCPCB_2DBarcode_10x10mm</desc>
<path d="M0.6488 13.0048
L0.6488 13.7191
" />
<path d="M0.6488 13.7191
L0.6012 13.8620
" />
<path d="M0.6012 13.8620
L0.5060 13.9572
" />
<path d="M0.5060 13.9572
L0.3631 14.0048
" />
<path d="M0.3631 14.0048
L0.2679 14.0048
" />
<path d="M1.6012 14.0048
L1.1250 14.0048
" />
<path d="M1.1250 14.0048
L1.1250 13.0048
" />
<path d="M2.5060 13.9096
L2.4583 13.9572
" />
<path d="M2.4583 13.9572
L2.3155 14.0048
" />
<path d="M2.3155 14.0048
L2.2202 14.0048
" />
<path d="M2.2202 14.0048
L2.0774 13.9572
" />
<path d="M2.0774 13.9572
L1.9821 13.8620
" />
<path d="M1.9821 13.8620
L1.9345 13.7667
" />
<path d="M1.9345 13.7667
L1.8869 13.5762
" />
<path d="M1.8869 13.5762
L1.8869 13.4334
" />
<path d="M1.8869 13.4334
L1.9345 13.2429
" />
<path d="M1.9345 13.2429
L1.9821 13.1477
" />
<path d="M1.9821 13.1477
L2.0774 13.0524
" />
<path d="M2.0774 13.0524
L2.2202 13.0048
" />
<path d="M2.2202 13.0048
L2.3155 13.0048
" />
<path d="M2.3155 13.0048
L2.4583 13.0524
" />
<path d="M2.4583 13.0524
L2.5060 13.1001
" />
<path d="M2.9345 14.0048
L2.9345 13.0048
" />
<path d="M2.9345 13.0048
L3.3155 13.0048
" />
<path d="M3.3155 13.0048
L3.4107 13.0524
" />
<path d="M3.4107 13.0524
L3.4583 13.1001
" />
<path d="M3.4583 13.1001
L3.5060 13.1953
" />
<path d="M3.5060 13.1953
L3.5060 13.3382
" />
<path d="M3.5060 13.3382
L3.4583 13.4334
" />
<path d="M3.4583 13.4334
L3.4107 13.4810
" />
<path d="M3.4107 13.4810
L3.3155 13.5286
" />
<path d="M3.3155 13.5286
L2.9345 13.5286
" />
<path d="M4.5060 13.9096
L4.4583 13.9572
" />
<path d="M4.4583 13.9572
L4.3155 14.0048
" />
<path d="M4.3155 14.0048
L4.2202 14.0048
" />
<path d="M4.2202 14.0048
L4.0774 13.9572
" />
<path d="M4.0774 13.9572
L3.9821 13.8620
" />
<path d="M3.9821 13.8620
L3.9345 13.7667
" />
<path d="M3.9345 13.7667
L3.8869 13.5762
" />
<path d="M3.8869 13.5762
L3.8869 13.4334
" />
<path d="M3.8869 13.4334
L3.9345 13.2429
" />
<path d="M3.9345 13.2429
L3.9821 13.1477
" />
<path d="M3.9821 13.1477
L4.0774 13.0524
" />
<path d="M4.0774 13.0524
L4.2202 13.0048
" />
<path d="M4.2202 13.0048
L4.3155 13.0048
" />
<path d="M4.3155 13.0048
L4.4583 13.0524
" />
<path d="M4.4583 13.0524
L4.5060 13.1001
" />
<path d="M5.2679 13.4810
L5.4107 13.5286
" />
<path d="M5.4107 13.5286
L5.4583 13.5762
" />
<path d="M5.4583 13.5762
L5.5060 13.6715
" />
<path d="M5.5060 13.6715
L5.5060 13.8143
" />
<path d="M5.5060 13.8143
L5.4583 13.9096
" />
<path d="M5.4583 13.9096
L5.4107 13.9572
" />
<path d="M5.4107 13.9572
L5.3155 14.0048
" />
<path d="M5.3155 14.0048
L4.9345 14.0048
" />
<path d="M4.9345 14.0048
L4.9345 13.0048
" />
<path d="M4.9345 13.0048
L5.2679 13.0048
" />
<path d="M5.2679 13.0048
L5.3631 13.0524
" />
<path d="M5.3631 13.0524
L5.4107 13.1001
" />
<path d="M5.4107 13.1001
L5.4583 13.1953
" />
<path d="M5.4583 13.1953
L5.4583 13.2905
" />
<path d="M5.4583 13.2905
L5.4107 13.3858
" />
<path d="M5.4107 13.3858
L5.3631 13.4334
" />
<path d="M5.3631 13.4334
L5.2679 13.4810
" />
<path d="M5.2679 13.4810
L4.9345 13.4810
" />
<path d="M5.6964 14.1001
L6.4583 14.1001
" />
<path d="M6.6488 13.1001
L6.6964 13.0524
" />
<path d="M6.6964 13.0524
L6.7917 13.0048
" />
<path d="M6.7917 13.0048
L7.0298 13.0048
" />
<path d="M7.0298 13.0048
L7.1250 13.0524
" />
<path d="M7.1250 13.0524
L7.1726 13.1001
" />
<path d="M7.1726 13.1001
L7.2202 13.1953
" />
<path d="M7.2202 13.1953
L7.2202 13.2905
" />
<path d="M7.2202 13.2905
L7.1726 13.4334
" />
<path d="M7.1726 13.4334
L6.6012 14.0048
" />
<path d="M6.6012 14.0048
L7.2202 14.0048
" />
<path d="M7.6488 14.0048
L7.6488 13.0048
" />
<path d="M7.6488 13.0048
L7.8869 13.0048
" />
<path d="M7.8869 13.0048
L8.0298 13.0524
" />
<path d="M8.0298 13.0524
L8.1250 13.1477
" />
<path d="M8.1250 13.1477
L8.1726 13.2429
" />
<path d="M8.1726 13.2429
L8.2202 13.4334
" />
<path d="M8.2202 13.4334
L8.2202 13.5762
" />
<path d="M8.2202 13.5762
L8.1726 13.7667
" />
<path d="M8.1726 13.7667
L8.1250 13.8620
" />
<path d="M8.1250 13.8620
L8.0298 13.9572
" />
<path d="M8.0298 13.9572
L7.8869 14.0048
" />
<path d="M7.8869 14.0048
L7.6488 14.0048
" />
<path d="M8.9821 13.4810
L9.1250 13.5286
" />
<path d="M9.1250 13.5286
L9.1726 13.5762
" />
<path d="M9.1726 13.5762
L9.2202 13.6715
" />
<path d="M9.2202 13.6715
L9.2202 13.8143
" />
<path d="M9.2202 13.8143
L9.1726 13.9096
" />
<path d="M9.1726 13.9096
L9.1250 13.9572
" />
<path d="M9.1250 13.9572
L9.0298 14.0048
" />
<path d="M9.0298 14.0048
L8.6488 14.0048
" />
<path d="M8.6488 14.0048
L8.6488 13.0048
" />
<path d="M8.6488 13.0048
L8.9821 13.0048
" />
<path d="M8.9821 13.0048
L9.0774 13.0524
" />
<path d="M9.0774 13.0524
L9.1250 13.1001
" />
<path d="M9.1250 13.1001
L9.1726 13.1953
" />
<path d="M9.1726 13.1953
L9.1726 13.2905
" />
<path d="M9.1726 13.2905
L9.1250 13.3858
" />
<path d="M9.1250 13.3858
L9.0774 13.4334
" />
<path d="M9.0774 13.4334
L8.9821 13.4810
" />
<path d="M8.9821 13.4810
L8.6488 13.4810
" />
<path d="M10.0774 14.0048
L10.0774 13.4810
" />
<path d="M10.0774 13.4810
L10.0298 13.3858
" />
<path d="M10.0298 13.3858
L9.9345 13.3382
" />
<path d="M9.9345 13.3382
L9.7440 13.3382
" />
<path d="M9.7440 13.3382
L9.6488 13.3858
" />
<path d="M10.0774 13.9572
L9.9821 14.0048
" />
<path d="M9.9821 14.0048
L9.7440 14.0048
" />
<path d="M9.7440 14.0048
L9.6488 13.9572
" />
<path d="M9.6488 13.9572
L9.6012 13.8620
" />
<path d="M9.6012 13.8620
L9.6012 13.7667
" />
<path d="M9.6012 13.7667
L9.6488 13.6715
" />
<path d="M9.6488 13.6715
L9.7440 13.6239
" />
<path d="M9.7440 13.6239
L9.9821 13.6239
" />
<path d="M9.9821 13.6239
L10.0774 13.5762
" />
<path d="M10.5536 14.0048
L10.5536 13.3382
" />
<path d="M10.5536 13.5286
L10.6012 13.4334
" />
<path d="M10.6012 13.4334
L10.6488 13.3858
" />
<path d="M10.6488 13.3858
L10.7440 13.3382
" />
<path d="M10.7440 13.3382
L10.8393 13.3382
" />
<path d="M11.6012 13.9572
L11.5060 14.0048
" />
<path d="M11.5060 14.0048
L11.3155 14.0048
" />
<path d="M11.3155 14.0048
L11.2202 13.9572
" />
<path d="M11.2202 13.9572
L11.1726 13.9096
" />
<path d="M11.1726 13.9096
L11.1250 13.8143
" />
<path d="M11.1250 13.8143
L11.1250 13.5286
" />
<path d="M11.1250 13.5286
L11.1726 13.4334
" />
<path d="M11.1726 13.4334
L11.2202 13.3858
" />
<path d="M11.2202 13.3858
L11.3155 13.3382
" />
<path d="M11.3155 13.3382
L11.5060 13.3382
" />
<path d="M11.5060 13.3382
L11.6012 13.3858
" />
<path d="M12.1726 14.0048
L12.0774 13.9572
" />
<path d="M12.0774 13.9572
L12.0298 13.9096
" />
<path d="M12.0298 13.9096
L11.9821 13.8143
" />
<path d="M11.9821 13.8143
L11.9821 13.5286
" />
<path d="M11.9821 13.5286
L12.0298 13.4334
" />
<path d="M12.0298 13.4334
L12.0774 13.3858
" />
<path d="M12.0774 13.3858
L12.1726 13.3382
" />
<path d="M12.1726 13.3382
L12.3155 13.3382
" />
<path d="M12.3155 13.3382
L12.4107 13.3858
" />
<path d="M12.4107 13.3858
L12.4583 13.4334
" />
<path d="M12.4583 13.4334
L12.5060 13.5286
" />
<path d="M12.5060 13.5286
L12.5060 13.8143
" />
<path d="M12.5060 13.8143
L12.4583 13.9096
" />
<path d="M12.4583 13.9096
L12.4107 13.9572
" />
<path d="M12.4107 13.9572
L12.3155 14.0048
" />
<path d="M12.3155 14.0048
L12.1726 14.0048
" />
<path d="M13.3631 14.0048
L13.3631 13.0048
" />
<path d="M13.3631 13.9572
L13.2679 14.0048
" />
<path d="M13.2679 14.0048
L13.0774 14.0048
" />
<path d="M13.0774 14.0048
L12.9821 13.9572
" />
<path d="M12.9821 13.9572
L12.9345 13.9096
" />
<path d="M12.9345 13.9096
L12.8869 13.8143
" />
<path d="M12.8869 13.8143
L12.8869 13.5286
" />
<path d="M12.8869 13.5286
L12.9345 13.4334
" />
<path d="M12.9345 13.4334
L12.9821 13.3858
" />
<path d="M12.9821 13.3858
L13.0774 13.3382
" />
<path d="M13.0774 13.3382
L13.2679 13.3382
" />
<path d="M13.2679 13.3382
L13.3631 13.3858
" />
<path d="M14.2202 13.9572
L14.1250 14.0048
" />
<path d="M14.1250 14.0048
L13.9345 14.0048
" />
<path d="M13.9345 14.0048
L13.8393 13.9572
" />
<path d="M13.8393 13.9572
L13.7917 13.8620
" />
<path d="M13.7917 13.8620
L13.7917 13.4810
" />
<path d="M13.7917 13.4810
L13.8393 13.3858
" />
<path d="M13.8393 13.3858
L13.9345 13.3382
" />
<path d="M13.9345 13.3382
L14.1250 13.3382
" />
<path d="M14.1250 13.3382
L14.2202 13.3858
" />
<path d="M14.2202 13.3858
L14.2679 13.4810
" />
<path d="M14.2679 13.4810
L14.2679 13.5762
" />
<path d="M14.2679 13.5762
L13.7917 13.6715
" />
<path d="M14.4583 14.1001
L15.2202 14.1001
" />
<path d="M15.9821 14.0048
L15.4107 14.0048
" />
<path d="M15.6964 14.0048
L15.6964 13.0048
" />
<path d="M15.6964 13.0048
L15.6012 13.1477
" />
<path d="M15.6012 13.1477
L15.5060 13.2429
" />
<path d="M15.5060 13.2429
L15.4107 13.2905
" />
<path d="M16.6012 13.0048
L16.6964 13.0048
" />
<path d="M16.6964 13.0048
L16.7917 13.0524
" />
<path d="M16.7917 13.0524
L16.8393 13.1001
" />
<path d="M16.8393 13.1001
L16.8869 13.1953
" />
<path d="M16.8869 13.1953
L16.9345 13.3858
" />
<path d="M16.9345 13.3858
L16.9345 13.6239
" />
<path d="M16.9345 13.6239
L16.8869 13.8143
" />
<path d="M16.8869 13.8143
L16.8393 13.9096
" />
<path d="M16.8393 13.9096
L16.7917 13.9572
" />
<path d="M16.7917 13.9572
L16.6964 14.0048
" />
<path d="M16.6964 14.0048
L16.6012 14.0048
" />
<path d="M16.6012 14.0048
L16.5060 13.9572
" />
<path d="M16.5060 13.9572
L16.4583 13.9096
" />
<path d="M16.4583 13.9096
L16.4107 13.8143
" />
<path d="M16.4107 13.8143
L16.3631 13.6239
" />
<path d="M16.3631 13.6239
L16.3631 13.3858
" />
<path d="M16.3631 13.3858
L16.4107 13.1953
" />
<path d="M16.4107 13.1953
L16.4583 13.1001
" />
<path d="M16.4583 13.1001
L16.5060 13.0524
" />
<path d="M16.5060 13.0524
L16.6012 13.0048
" />
<path d="M17.2679 14.0048
L17.7917 13.3382
" />
<path d="M17.2679 13.3382
L17.7917 14.0048
" />
<path d="M18.6964 14.0048
L18.1250 14.0048
" />
<path d="M18.4107 14.0048
L18.4107 13.0048
" />
<path d="M18.4107 13.0048
L18.3155 13.1477
" />
<path d="M18.3155 13.1477
L18.2202 13.2429
" />
<path d="M18.2202 13.2429
L18.1250 13.2905
" />
<path d="M19.3155 13.0048
L19.4107 13.0048
" />
<path d="M19.4107 13.0048
L19.5060 13.0524
" />
<path d="M19.5060 13.0524
L19.5536 13.1001
" />
<path d="M19.5536 13.1001
L19.6012 13.1953
" />
<path d="M19.6012 13.1953
L19.6488 13.3858
" />
<path d="M19.6488 13.3858
L19.6488 13.6239
" />
<path d="M19.6488 13.6239
L19.6012 13.8143
" />
<path d="M19.6012 13.8143
L19.5536 13.9096
" />
<path d="M19.5536 13.9096
L19.5060 13.9572
" />
<path d="M19.5060 13.9572
L19.4107 14.0048
" />
<path d="M19.4107 14.0048
L19.3155 14.0048
" />
<path d="M19.3155 14.0048
L19.2202 13.9572
" />
<path d="M19.2202 13.9572
L19.1726 13.9096
" />
<path d="M19.1726 13.9096
L19.1250 13.8143
" />
<path d="M19.1250 13.8143
L19.0774 13.6239
" />
<path d="M19.0774 13.6239
L19.0774 13.3858
" />
<path d="M19.0774 13.3858
L19.1250 13.1953
" />
<path d="M19.1250 13.1953
L19.1726 13.1001
" />
<path d="M19.1726 13.1001
L19.2202 13.0524
" />
<path d="M19.2202 13.0524
L19.3155 13.0048
" />
<path d="M20.0774 14.0048
L20.0774 13.3382
" />
<path d="M20.0774 13.4334
L20.1250 13.3858
" />
<path d="M20.1250 13.3858
L20.2202 13.3382
" />
<path d="M20.2202 13.3382
L20.3631 13.3382
" />
<path d="M20.3631 13.3382
L20.4583 13.3858
" />
<path d="M20.4583 13.3858
L20.5060 13.4810
" />
<path d="M20.5060 13.4810
L20.5060 14.0048
" />
<path d="M20.5060 13.4810
L20.5536 13.3858
" />
<path d="M20.5536 13.3858
L20.6488 13.3382
" />
<path d="M20.6488 13.3382
L20.7917 13.3382
" />
<path d="M20.7917 13.3382
L20.8869 13.3858
" />
<path d="M20.8869 13.3858
L20.9345 13.4810
" />
<path d="M20.9345 13.4810
L20.9345 14.0048
" />
<path d="M21.4107 14.0048
L21.4107 13.3382
" />
<path d="M21.4107 13.4334
L21.4583 13.3858
" />
<path d="M21.4583 13.3858
L21.5536 13.3382
" />
<path d="M21.5536 13.3382
L21.6964 13.3382
" />
<path d="M21.6964 13.3382
L21.7917 13.3858
" />
<path d="M21.7917 13.3858
L21.8393 13.4810
" />
<path d="M21.8393 13.4810
L21.8393 14.0048
" />
<path d="M21.8393 13.4810
L21.8869 13.3858
" />
<path d="M21.8869 13.3858
L21.9821 13.3382
" />
<path d="M21.9821 13.3382
L22.1250 13.3382
" />
<path d="M22.1250 13.3382
L22.2202 13.3858
" />
<path d="M22.2202 13.3858
L22.2679 13.4810
" />
<path d="M22.2679 13.4810
L22.2679 14.0048
" />
</g></g>
<g style="fill:none; 
stroke:#AFAFAF; stroke-width:0.2500; stroke-opacity:1; 
stroke-linecap:round; stroke-linejoin:round;">
<text x="11.3155" y="6.0500"
textLength="2.0643" font-size="2.6667" lengthAdjust="spacingAndGlyphs"
text-anchor="middle" opacity="0" stroke-opacity="0">F</text>
<g class="stroked-text"><desc>F</desc>
<path d="M11.6012 4.9146
L10.9345 4.9146
" />
<path d="M10.9345 5.9622
L10.9345 3.9622
" />
<path d="M10.9345 3.9622
L11.8869 3.9622
" />
</g></g>
<g style="fill:none; 
stroke:#AFAFAF; stroke-width:0.1500; stroke-opacity:1; 
stroke-linecap:round; stroke-linejoin:round;">
<text x="11.3155" y="11.5500"
textLength="1.1071" font-size="1.3333" lengthAdjust="spacingAndGlyphs"
text-anchor="middle" opacity="0" stroke-opacity="0">F</text>
<g class="stroked-text"><desc>F</desc>
<path d="M11.4583 10.9810
L11.1250 10.9810
" />
<path d="M11.1250 11.5048
L11.1250 10.5048
" />
<path d="M11.1250 10.5048
L11.6012 10.5048
" />
</g><text x="11.3155" y="15.5500"
textLength="4.5357" font-size="1.3333" lengthAdjust="spacingAndGlyphs"
text-anchor="middle" opacity="0" stroke-opacity="0">REF**</text>
<g class="stroked-text"><desc>REF**</desc>
<path d="M9.9821 15.5048
L9.6488 15.0286
" />
<path d="M9.4107 15.5048
L9.4107 14.5048
" />
<path d="M9.4107 14.5048
L9.7917 14.5048
" />
<path d="M9.7917 14.5048
L9.8869 14.5524
" />
<path d="M9.8869 14.5524
L9.9345 14.6001
" />
<path d="M9.9345 14.6001
L9.9821 14.6953
" />
<path d="M9.9821 14.6953
L9.9821 14.8382
" />
<path d="M9.9821 14.8382
L9.9345 14.9334
" />
<path d="M9.9345 14.9334
L9.8869 14.9810
" />
<path d="M9.8869 14.9810
L9.7917 15.0286
" />
<path d="M9.7917 15.0286
L9.4107 15.0286
" />
<path d="M10.4107 14.9810
L10.7440 14.9810
" />
<path d="M10.8869 15.5048
L10.4107 15.5048
" />
<path d="M10.4107 15.5048
L10.4107 14.5048
" />
<path d="M10.4107 14.5048
L10.8869 14.5048
" />
<path d="M11.6488 14.9810
L11.3155 14.9810
" />
<path d="M11.3155 15.5048
L11.3155 14.5048
" />
<path d="M11.3155 14.5048
L11.7917 14.5048
" />
<path d="M12.3155 14.5048
L12.3155 14.7429
" />
<path d="M12.0774 14.6477
L12.3155 14.7429
" />
<path d="M12.3155 14.7429
L12.5536 14.6477
" />
<path d="M12.1726 14.9334
L12.3155 14.7429
" />
<path d="M12.3155 14.7429
L12.4583 14.9334
" />
<path d="M13.0774 14.5048
L13.0774 14.7429
" />
<path d="M12.8393 14.6477
L13.0774 14.7429
" />
<path d="M13.0774 14.7429
L13.3155 14.6477
" />
<path d="M12.9345 14.9334
L13.0774 14.7429
" />
<path d="M13.0774 14.7429
L13.2202 14.9334
" />
</g><path style="fill:none; 
stroke:#AFAFAF; stroke-width:0.1000; stroke-opacity:1; 
stroke-linecap:round; stroke-linejoin:round;fill:none"
d="M 6.3155,10.0500
16.3155,10.0500
16.3155,12.0500
6.3155,12.0500
Z" /> 
</g> 
</svg>
