<svg xmlns="http://www.w3.org/2000/svg" width="85.44" height="53.28" viewBox="0 0 22.606 14.097">
    <g style="fill:#000;fill-opacity:1;stroke:#000;stroke-opacity:1;stroke-linecap:round;stroke-linejoin:round">
        <path stroke="none" d="M6.316.05h10v10h-10Z" style="fill:#f2eda1;fill-opacity:1;stroke:none;fill-rule:evenodd"/>
        <path d="M6.316.05h10v10h-10Z" style="stroke:#585d84;stroke-width:.1;stroke-opacity:1;stroke-linecap:round;stroke-linejoin:round;fill:none"/>
    </g>
    <g class="stroked-text" style="fill:none;stroke:#afafaf;stroke-width:.15;stroke-opacity:1;stroke-linecap:round;stroke-linejoin:round">
        <path d="M.649 12.705v.714M.649 13.42l-.048.142M.601 13.562l-.095.095M.506 13.657l-.143.048M.363 13.705H.268M1.601 13.705h-.476M1.125 13.705v-1M2.506 13.61l-.048.047M2.458 13.657l-.143.048M2.316 13.705H2.22M2.22 13.705l-.143-.048M2.077 13.657l-.095-.095M1.982 13.562l-.047-.095M1.935 13.467l-.048-.19M1.887 13.276v-.143M1.887 13.133l.048-.19M1.935 12.943l.047-.095M1.982 12.848l.095-.096M2.077 12.752l.143-.047M2.22 12.705h.095M2.316 12.705l.142.047M2.458 12.752l.048.048M2.935 13.705v-1M2.935 12.705h.38M3.316 12.705l.095.047M3.41 12.752l.048.048M3.458 12.8l.048.095M3.506 12.895v.143M3.506 13.038l-.048.095M3.458 13.133l-.047.048M3.41 13.181l-.095.048M3.316 13.229h-.381M4.506 13.61l-.048.047M4.458 13.657l-.143.048M4.316 13.705H4.22M4.22 13.705l-.143-.048M4.077 13.657l-.095-.095M3.982 13.562l-.048-.095M3.935 13.467l-.048-.19M3.887 13.276v-.143M3.887 13.133l.047-.19M3.935 12.943l.047-.095M3.982 12.848l.095-.096M4.077 12.752l.143-.047M4.22 12.705h.096M4.316 12.705l.142.047M4.458 12.752l.048.048M5.268 13.181l.143.048M5.41 13.229l.048.047M5.458 13.276l.048.095M5.506 13.372v.142M5.506 13.514l-.048.096M5.458 13.61l-.047.047M5.41 13.657l-.095.048M5.316 13.705h-.381M4.935 13.705v-1M4.935 12.705h.333M5.268 12.705l.095.047M5.363 12.752l.048.048M5.41 12.8l.048.095M5.458 12.895v.096M5.458 12.99l-.047.096M5.41 13.086l-.047.047M5.363 13.133l-.095.048M5.268 13.181h-.333M5.696 13.8h.762M6.649 12.8l.047-.048M6.696 12.752l.096-.047M6.792 12.705h.238M7.03 12.705l.095.047M7.125 12.752l.048.048M7.173 12.8l.047.095M7.22 12.895v.096M7.22 12.99l-.047.143M7.173 13.133l-.572.572M6.601 13.705h.62M7.649 13.705v-1M7.649 12.705h.238M7.887 12.705l.143.047M8.03 12.752l.095.096M8.125 12.848l.048.095M8.173 12.943l.047.19M8.22 13.133v.143M8.22 13.276l-.047.19M8.173 13.467l-.048.095M8.125 13.562l-.095.095M8.03 13.657l-.143.048M7.887 13.705h-.238M8.982 13.181l.143.048M9.125 13.229l.048.047M9.173 13.276l.047.095M9.22 13.372v.142M9.22 13.514l-.047.096M9.173 13.61l-.048.047M9.125 13.657l-.095.048M9.03 13.705h-.381M8.649 13.705v-1M8.649 12.705h.333M8.982 12.705l.095.047M9.077 12.752l.048.048M9.125 12.8l.048.095M9.173 12.895v.096M9.173 12.99l-.048.096M9.125 13.086l-.048.047M9.077 13.133l-.095.048M8.982 13.181H8.65M10.077 13.705v-.524M10.077 13.181l-.047-.095M10.03 13.086l-.095-.048M9.935 13.038h-.191M9.744 13.038l-.095.048M10.077 13.657l-.095.048M9.982 13.705h-.238M9.744 13.705l-.095-.048M9.649 13.657l-.048-.095M9.601 13.562v-.095M9.601 13.467l.048-.096M9.649 13.372l.095-.048M9.744 13.324h.238M9.982 13.324l.095-.048M10.554 13.705v-.667M10.554 13.229l.047-.096M10.601 13.133l.048-.047M10.649 13.086l.095-.048M10.744 13.038h.095M11.601 13.657l-.095.048M11.506 13.705h-.19M11.316 13.705l-.096-.048M11.22 13.657l-.047-.047M11.173 13.61l-.048-.096M11.125 13.514v-.285M11.125 13.229l.048-.096M11.173 13.133l.047-.047M11.22 13.086l.095-.048M11.316 13.038h.19M11.506 13.038l.095.048M12.173 13.705l-.096-.048M12.077 13.657l-.047-.047M12.03 13.61l-.048-.096M11.982 13.514v-.285M11.982 13.229l.048-.096M12.03 13.133l.047-.047M12.077 13.086l.096-.048M12.173 13.038h.143M12.316 13.038l.095.048M12.41 13.086l.048.047M12.458 13.133l.048.096M12.506 13.229v.285M12.506 13.514l-.048.096M12.458 13.61l-.047.047M12.41 13.657l-.095.048M12.316 13.705h-.143M13.363 13.705v-1M13.363 13.657l-.095.048M13.268 13.705h-.19M13.077 13.705l-.095-.048M12.982 13.657l-.047-.047M12.935 13.61l-.048-.096M12.887 13.514v-.285M12.887 13.229l.047-.096M12.935 13.133l.047-.047M12.982 13.086l.095-.048M13.077 13.038h.19M13.268 13.038l.095.048M14.22 13.657l-.095.048M14.125 13.705h-.19M13.935 13.705l-.096-.048M13.84 13.657l-.048-.095M13.792 13.562v-.381M13.792 13.181l.047-.095M13.84 13.086l.095-.048M13.935 13.038h.19M14.125 13.038l.095.048M14.22 13.086l.048.095M14.268 13.181v.095M14.268 13.276l-.476.095M14.458 13.8h.762M15.982 13.705h-.571M15.696 13.705v-1M15.696 12.705l-.095.143M15.601 12.848l-.095.095M15.506 12.943l-.095.048M16.601 12.705h.095M16.696 12.705l.096.047M16.792 12.752l.047.048M16.84 12.8l.047.095M16.887 12.895l.047.19M16.935 13.086v.238M16.935 13.324l-.048.19M16.887 13.514l-.048.096M16.84 13.61l-.048.047M16.792 13.657l-.096.048M16.696 13.705h-.095M16.601 13.705l-.095-.048M16.506 13.657l-.048-.047M16.458 13.61l-.047-.096M16.41 13.514l-.047-.19M16.363 13.324v-.238M16.363 13.086l.048-.19M16.41 12.895l.048-.095M16.458 12.8l.048-.048M16.506 12.752l.095-.047M17.268 13.705l.524-.667M17.268 13.038l.524.667M18.696 13.705h-.571M18.41 13.705v-1M18.41 12.705l-.095.143M18.316 12.848l-.096.095M18.22 12.943l-.095.048M19.316 12.705h.095M19.41 12.705l.096.047M19.506 12.752l.048.048M19.554 12.8l.047.095M19.601 12.895l.048.19M19.649 13.086v.238M19.649 13.324l-.048.19M19.601 13.514l-.047.096M19.554 13.61l-.048.047M19.506 13.657l-.095.048M19.41 13.705h-.095M19.316 13.705l-.096-.048M19.22 13.657l-.047-.047M19.173 13.61l-.048-.096M19.125 13.514l-.048-.19M19.077 13.324v-.238M19.077 13.086l.048-.19M19.125 12.895l.048-.095M19.173 12.8l.047-.048M19.22 12.752l.096-.047M20.077 13.705v-.667M20.077 13.133l.048-.047M20.125 13.086l.095-.048M20.22 13.038h.143M20.363 13.038l.095.048M20.458 13.086l.048.095M20.506 13.181v.524M20.506 13.181l.048-.095M20.554 13.086l.095-.048M20.649 13.038h.143M20.792 13.038l.095.048M20.887 13.086l.047.095M20.935 13.181v.524M21.41 13.705v-.667M21.41 13.133l.048-.047M21.458 13.086l.096-.048M21.554 13.038h.142M21.696 13.038l.096.048M21.792 13.086l.047.095M21.84 13.181v.524M21.84 13.181l.047-.095M21.887 13.086l.095-.048M21.982 13.038h.143M22.125 13.038l.095.048M22.22 13.086l.048.095M22.268 13.181v.524"/>
    </g>
    <g class="stroked-text" style="fill:none;stroke:#afafaf;stroke-width:.25;stroke-opacity:1;stroke-linecap:round;stroke-linejoin:round">
        <path d="M11.601 4.915h-.667M10.935 5.962v-2M10.935 3.962h.952"/>
    </g>
    <g style="fill:none;stroke:#afafaf;stroke-width:.15;stroke-opacity:1;stroke-linecap:round;stroke-linejoin:round">
        <g class="stroked-text">
            <path d="M11.458 10.981h-.333M11.125 11.505v-1M11.125 10.505h.476"/>
        </g>
        <path d="M6.316 10.05h10v2h-10Z" style="stroke:#afafaf;stroke-width:.1;stroke-opacity:1;stroke-linecap:round;stroke-linejoin:round;fill:none"/>
    </g>
</svg>
