<?xml version="1.0" standalone="no"?>
 <!DOCTYPE svg PUBLIC "-//W3C//DTD SVG 1.1//EN" 
 "http://www.w3.org/Graphics/SVG/1.1/DTD/svg11.dtd"> 
<svg
  xmlns:svg="http://www.w3.org/2000/svg"
  xmlns="http://www.w3.org/2000/svg"
  xmlns:xlink="http://www.w3.org/1999/xlink"
  version="1.1"
  width="25.0952mm" height="3.6830mm" viewBox="0.0000 0.0000 25.0952 3.6830">
<title>SVG Image created as PCBWay_ProductNumber_H0.8mm.svg date 2025/05/12 03:05:54 </title>
  <desc>Image generated by PCBNEW </desc>
<g style="fill:#000000; fill-opacity:1.0000;stroke:#000000; stroke-opacity:1.0000;
stroke-linecap:round; stroke-linejoin:round;"
 transform="translate(0 0) scale(1 1)">
</g>
<g style="fill:none; 
stroke:#F2EDA1; stroke-width:0.1500; stroke-opacity:1; 
stroke-linecap:round; stroke-linejoin:round;">
<text x="12.5536" y="1.2500"
textLength="7.0329" font-size="1.0667" lengthAdjust="spacingAndGlyphs"
text-anchor="middle" opacity="0" stroke-opacity="0">WayWayWay</text>
<g class="stroked-text"><desc>WayWayWay</desc>
<path d="M9.2964 0.4123
L9.4869 1.2123
" />
<path d="M9.4869 1.2123
L9.6393 0.6409
" />
<path d="M9.6393 0.6409
L9.7917 1.2123
" />
<path d="M9.7917 1.2123
L9.9821 0.4123
" />
<path d="M10.6298 1.2123
L10.6298 0.7932
" />
<path d="M10.6298 0.7932
L10.5917 0.7171
" />
<path d="M10.5917 0.7171
L10.5155 0.6790
" />
<path d="M10.5155 0.6790
L10.3631 0.6790
" />
<path d="M10.3631 0.6790
L10.2869 0.7171
" />
<path d="M10.6298 1.1742
L10.5536 1.2123
" />
<path d="M10.5536 1.2123
L10.3631 1.2123
" />
<path d="M10.3631 1.2123
L10.2869 1.1742
" />
<path d="M10.2869 1.1742
L10.2488 1.0980
" />
<path d="M10.2488 1.0980
L10.2488 1.0218
" />
<path d="M10.2488 1.0218
L10.2869 0.9456
" />
<path d="M10.2869 0.9456
L10.3631 0.9075
" />
<path d="M10.3631 0.9075
L10.5536 0.9075
" />
<path d="M10.5536 0.9075
L10.6298 0.8694
" />
<path d="M10.9345 0.6790
L11.1250 1.2123
" />
<path d="M11.3155 0.6790
L11.1250 1.2123
" />
<path d="M11.1250 1.2123
L11.0488 1.4028
" />
<path d="M11.0488 1.4028
L11.0107 1.4409
" />
<path d="M11.0107 1.4409
L10.9345 1.4790
" />
<path d="M11.5440 0.4123
L11.7345 1.2123
" />
<path d="M11.7345 1.2123
L11.8869 0.6409
" />
<path d="M11.8869 0.6409
L12.0393 1.2123
" />
<path d="M12.0393 1.2123
L12.2298 0.4123
" />
<path d="M12.8774 1.2123
L12.8774 0.7932
" />
<path d="M12.8774 0.7932
L12.8393 0.7171
" />
<path d="M12.8393 0.7171
L12.7631 0.6790
" />
<path d="M12.7631 0.6790
L12.6107 0.6790
" />
<path d="M12.6107 0.6790
L12.5345 0.7171
" />
<path d="M12.8774 1.1742
L12.8012 1.2123
" />
<path d="M12.8012 1.2123
L12.6107 1.2123
" />
<path d="M12.6107 1.2123
L12.5345 1.1742
" />
<path d="M12.5345 1.1742
L12.4964 1.0980
" />
<path d="M12.4964 1.0980
L12.4964 1.0218
" />
<path d="M12.4964 1.0218
L12.5345 0.9456
" />
<path d="M12.5345 0.9456
L12.6107 0.9075
" />
<path d="M12.6107 0.9075
L12.8012 0.9075
" />
<path d="M12.8012 0.9075
L12.8774 0.8694
" />
<path d="M13.1821 0.6790
L13.3726 1.2123
" />
<path d="M13.5631 0.6790
L13.3726 1.2123
" />
<path d="M13.3726 1.2123
L13.2964 1.4028
" />
<path d="M13.2964 1.4028
L13.2583 1.4409
" />
<path d="M13.2583 1.4409
L13.1821 1.4790
" />
<path d="M13.7917 0.4123
L13.9821 1.2123
" />
<path d="M13.9821 1.2123
L14.1345 0.6409
" />
<path d="M14.1345 0.6409
L14.2869 1.2123
" />
<path d="M14.2869 1.2123
L14.4774 0.4123
" />
<path d="M15.1250 1.2123
L15.1250 0.7932
" />
<path d="M15.1250 0.7932
L15.0869 0.7171
" />
<path d="M15.0869 0.7171
L15.0107 0.6790
" />
<path d="M15.0107 0.6790
L14.8583 0.6790
" />
<path d="M14.8583 0.6790
L14.7821 0.7171
" />
<path d="M15.1250 1.1742
L15.0488 1.2123
" />
<path d="M15.0488 1.2123
L14.8583 1.2123
" />
<path d="M14.8583 1.2123
L14.7821 1.1742
" />
<path d="M14.7821 1.1742
L14.7440 1.0980
" />
<path d="M14.7440 1.0980
L14.7440 1.0218
" />
<path d="M14.7440 1.0218
L14.7821 0.9456
" />
<path d="M14.7821 0.9456
L14.8583 0.9075
" />
<path d="M14.8583 0.9075
L15.0488 0.9075
" />
<path d="M15.0488 0.9075
L15.1250 0.8694
" />
<path d="M15.4298 0.6790
L15.6202 1.2123
" />
<path d="M15.8107 0.6790
L15.6202 1.2123
" />
<path d="M15.6202 1.2123
L15.5440 1.4028
" />
<path d="M15.5440 1.4028
L15.5060 1.4409
" />
<path d="M15.5060 1.4409
L15.4298 1.4790
" />
</g></g>
<g style="fill:none; 
stroke:#AFAFAF; stroke-width:0.1500; stroke-opacity:1; 
stroke-linecap:round; stroke-linejoin:round;">
<text x="12.5536" y="3.3500"
textLength="25.1071" font-size="1.3333" lengthAdjust="spacingAndGlyphs"
text-anchor="middle" opacity="0" stroke-opacity="0">PCBWay_ProductNumber_H0.8mm</text>
<g class="stroked-text"><desc>PCBWay_ProductNumber_H0.8mm</desc>
<path d="M0.3631 3.3048
L0.3631 2.3048
" />
<path d="M0.3631 2.3048
L0.7440 2.3048
" />
<path d="M0.7440 2.3048
L0.8393 2.3524
" />
<path d="M0.8393 2.3524
L0.8869 2.4001
" />
<path d="M0.8869 2.4001
L0.9345 2.4953
" />
<path d="M0.9345 2.4953
L0.9345 2.6382
" />
<path d="M0.9345 2.6382
L0.8869 2.7334
" />
<path d="M0.8869 2.7334
L0.8393 2.7810
" />
<path d="M0.8393 2.7810
L0.7440 2.8286
" />
<path d="M0.7440 2.8286
L0.3631 2.8286
" />
<path d="M1.9345 3.2096
L1.8869 3.2572
" />
<path d="M1.8869 3.2572
L1.7440 3.3048
" />
<path d="M1.7440 3.3048
L1.6488 3.3048
" />
<path d="M1.6488 3.3048
L1.5060 3.2572
" />
<path d="M1.5060 3.2572
L1.4107 3.1620
" />
<path d="M1.4107 3.1620
L1.3631 3.0667
" />
<path d="M1.3631 3.0667
L1.3155 2.8762
" />
<path d="M1.3155 2.8762
L1.3155 2.7334
" />
<path d="M1.3155 2.7334
L1.3631 2.5429
" />
<path d="M1.3631 2.5429
L1.4107 2.4477
" />
<path d="M1.4107 2.4477
L1.5060 2.3524
" />
<path d="M1.5060 2.3524
L1.6488 2.3048
" />
<path d="M1.6488 2.3048
L1.7440 2.3048
" />
<path d="M1.7440 2.3048
L1.8869 2.3524
" />
<path d="M1.8869 2.3524
L1.9345 2.4001
" />
<path d="M2.6964 2.7810
L2.8393 2.8286
" />
<path d="M2.8393 2.8286
L2.8869 2.8762
" />
<path d="M2.8869 2.8762
L2.9345 2.9715
" />
<path d="M2.9345 2.9715
L2.9345 3.1143
" />
<path d="M2.9345 3.1143
L2.8869 3.2096
" />
<path d="M2.8869 3.2096
L2.8393 3.2572
" />
<path d="M2.8393 3.2572
L2.7440 3.3048
" />
<path d="M2.7440 3.3048
L2.3631 3.3048
" />
<path d="M2.3631 3.3048
L2.3631 2.3048
" />
<path d="M2.3631 2.3048
L2.6964 2.3048
" />
<path d="M2.6964 2.3048
L2.7917 2.3524
" />
<path d="M2.7917 2.3524
L2.8393 2.4001
" />
<path d="M2.8393 2.4001
L2.8869 2.4953
" />
<path d="M2.8869 2.4953
L2.8869 2.5905
" />
<path d="M2.8869 2.5905
L2.8393 2.6858
" />
<path d="M2.8393 2.6858
L2.7917 2.7334
" />
<path d="M2.7917 2.7334
L2.6964 2.7810
" />
<path d="M2.6964 2.7810
L2.3631 2.7810
" />
<path d="M3.2679 2.3048
L3.5060 3.3048
" />
<path d="M3.5060 3.3048
L3.6964 2.5905
" />
<path d="M3.6964 2.5905
L3.8869 3.3048
" />
<path d="M3.8869 3.3048
L4.1250 2.3048
" />
<path d="M4.9345 3.3048
L4.9345 2.7810
" />
<path d="M4.9345 2.7810
L4.8869 2.6858
" />
<path d="M4.8869 2.6858
L4.7917 2.6382
" />
<path d="M4.7917 2.6382
L4.6012 2.6382
" />
<path d="M4.6012 2.6382
L4.5060 2.6858
" />
<path d="M4.9345 3.2572
L4.8393 3.3048
" />
<path d="M4.8393 3.3048
L4.6012 3.3048
" />
<path d="M4.6012 3.3048
L4.5060 3.2572
" />
<path d="M4.5060 3.2572
L4.4583 3.1620
" />
<path d="M4.4583 3.1620
L4.4583 3.0667
" />
<path d="M4.4583 3.0667
L4.5060 2.9715
" />
<path d="M4.5060 2.9715
L4.6012 2.9239
" />
<path d="M4.6012 2.9239
L4.8393 2.9239
" />
<path d="M4.8393 2.9239
L4.9345 2.8762
" />
<path d="M5.3155 2.6382
L5.5536 3.3048
" />
<path d="M5.7917 2.6382
L5.5536 3.3048
" />
<path d="M5.5536 3.3048
L5.4583 3.5429
" />
<path d="M5.4583 3.5429
L5.4107 3.5905
" />
<path d="M5.4107 3.5905
L5.3155 3.6382
" />
<path d="M5.9345 3.4001
L6.6964 3.4001
" />
<path d="M6.9345 3.3048
L6.9345 2.3048
" />
<path d="M6.9345 2.3048
L7.3155 2.3048
" />
<path d="M7.3155 2.3048
L7.4107 2.3524
" />
<path d="M7.4107 2.3524
L7.4583 2.4001
" />
<path d="M7.4583 2.4001
L7.5060 2.4953
" />
<path d="M7.5060 2.4953
L7.5060 2.6382
" />
<path d="M7.5060 2.6382
L7.4583 2.7334
" />
<path d="M7.4583 2.7334
L7.4107 2.7810
" />
<path d="M7.4107 2.7810
L7.3155 2.8286
" />
<path d="M7.3155 2.8286
L6.9345 2.8286
" />
<path d="M7.9345 3.3048
L7.9345 2.6382
" />
<path d="M7.9345 2.8286
L7.9821 2.7334
" />
<path d="M7.9821 2.7334
L8.0298 2.6858
" />
<path d="M8.0298 2.6858
L8.1250 2.6382
" />
<path d="M8.1250 2.6382
L8.2202 2.6382
" />
<path d="M8.6964 3.3048
L8.6012 3.2572
" />
<path d="M8.6012 3.2572
L8.5536 3.2096
" />
<path d="M8.5536 3.2096
L8.5060 3.1143
" />
<path d="M8.5060 3.1143
L8.5060 2.8286
" />
<path d="M8.5060 2.8286
L8.5536 2.7334
" />
<path d="M8.5536 2.7334
L8.6012 2.6858
" />
<path d="M8.6012 2.6858
L8.6964 2.6382
" />
<path d="M8.6964 2.6382
L8.8393 2.6382
" />
<path d="M8.8393 2.6382
L8.9345 2.6858
" />
<path d="M8.9345 2.6858
L8.9821 2.7334
" />
<path d="M8.9821 2.7334
L9.0298 2.8286
" />
<path d="M9.0298 2.8286
L9.0298 3.1143
" />
<path d="M9.0298 3.1143
L8.9821 3.2096
" />
<path d="M8.9821 3.2096
L8.9345 3.2572
" />
<path d="M8.9345 3.2572
L8.8393 3.3048
" />
<path d="M8.8393 3.3048
L8.6964 3.3048
" />
<path d="M9.8869 3.3048
L9.8869 2.3048
" />
<path d="M9.8869 3.2572
L9.7917 3.3048
" />
<path d="M9.7917 3.3048
L9.6012 3.3048
" />
<path d="M9.6012 3.3048
L9.5060 3.2572
" />
<path d="M9.5060 3.2572
L9.4583 3.2096
" />
<path d="M9.4583 3.2096
L9.4107 3.1143
" />
<path d="M9.4107 3.1143
L9.4107 2.8286
" />
<path d="M9.4107 2.8286
L9.4583 2.7334
" />
<path d="M9.4583 2.7334
L9.5060 2.6858
" />
<path d="M9.5060 2.6858
L9.6012 2.6382
" />
<path d="M9.6012 2.6382
L9.7917 2.6382
" />
<path d="M9.7917 2.6382
L9.8869 2.6858
" />
<path d="M10.7917 2.6382
L10.7917 3.3048
" />
<path d="M10.3631 2.6382
L10.3631 3.1620
" />
<path d="M10.3631 3.1620
L10.4107 3.2572
" />
<path d="M10.4107 3.2572
L10.5060 3.3048
" />
<path d="M10.5060 3.3048
L10.6488 3.3048
" />
<path d="M10.6488 3.3048
L10.7440 3.2572
" />
<path d="M10.7440 3.2572
L10.7917 3.2096
" />
<path d="M11.6964 3.2572
L11.6012 3.3048
" />
<path d="M11.6012 3.3048
L11.4107 3.3048
" />
<path d="M11.4107 3.3048
L11.3155 3.2572
" />
<path d="M11.3155 3.2572
L11.2679 3.2096
" />
<path d="M11.2679 3.2096
L11.2202 3.1143
" />
<path d="M11.2202 3.1143
L11.2202 2.8286
" />
<path d="M11.2202 2.8286
L11.2679 2.7334
" />
<path d="M11.2679 2.7334
L11.3155 2.6858
" />
<path d="M11.3155 2.6858
L11.4107 2.6382
" />
<path d="M11.4107 2.6382
L11.6012 2.6382
" />
<path d="M11.6012 2.6382
L11.6964 2.6858
" />
<path d="M11.9821 2.6382
L12.3631 2.6382
" />
<path d="M12.1250 2.3048
L12.1250 3.1620
" />
<path d="M12.1250 3.1620
L12.1726 3.2572
" />
<path d="M12.1726 3.2572
L12.2679 3.3048
" />
<path d="M12.2679 3.3048
L12.3631 3.3048
" />
<path d="M12.6964 3.3048
L12.6964 2.3048
" />
<path d="M12.6964 2.3048
L13.2679 3.3048
" />
<path d="M13.2679 3.3048
L13.2679 2.3048
" />
<path d="M14.1726 2.6382
L14.1726 3.3048
" />
<path d="M13.7440 2.6382
L13.7440 3.1620
" />
<path d="M13.7440 3.1620
L13.7917 3.2572
" />
<path d="M13.7917 3.2572
L13.8869 3.3048
" />
<path d="M13.8869 3.3048
L14.0298 3.3048
" />
<path d="M14.0298 3.3048
L14.1250 3.2572
" />
<path d="M14.1250 3.2572
L14.1726 3.2096
" />
<path d="M14.6488 3.3048
L14.6488 2.6382
" />
<path d="M14.6488 2.7334
L14.6964 2.6858
" />
<path d="M14.6964 2.6858
L14.7917 2.6382
" />
<path d="M14.7917 2.6382
L14.9345 2.6382
" />
<path d="M14.9345 2.6382
L15.0298 2.6858
" />
<path d="M15.0298 2.6858
L15.0774 2.7810
" />
<path d="M15.0774 2.7810
L15.0774 3.3048
" />
<path d="M15.0774 2.7810
L15.1250 2.6858
" />
<path d="M15.1250 2.6858
L15.2202 2.6382
" />
<path d="M15.2202 2.6382
L15.3631 2.6382
" />
<path d="M15.3631 2.6382
L15.4583 2.6858
" />
<path d="M15.4583 2.6858
L15.5060 2.7810
" />
<path d="M15.5060 2.7810
L15.5060 3.3048
" />
<path d="M15.9821 3.3048
L15.9821 2.3048
" />
<path d="M15.9821 2.6858
L16.0774 2.6382
" />
<path d="M16.0774 2.6382
L16.2679 2.6382
" />
<path d="M16.2679 2.6382
L16.3631 2.6858
" />
<path d="M16.3631 2.6858
L16.4107 2.7334
" />
<path d="M16.4107 2.7334
L16.4583 2.8286
" />
<path d="M16.4583 2.8286
L16.4583 3.1143
" />
<path d="M16.4583 3.1143
L16.4107 3.2096
" />
<path d="M16.4107 3.2096
L16.3631 3.2572
" />
<path d="M16.3631 3.2572
L16.2679 3.3048
" />
<path d="M16.2679 3.3048
L16.0774 3.3048
" />
<path d="M16.0774 3.3048
L15.9821 3.2572
" />
<path d="M17.2679 3.2572
L17.1726 3.3048
" />
<path d="M17.1726 3.3048
L16.9821 3.3048
" />
<path d="M16.9821 3.3048
L16.8869 3.2572
" />
<path d="M16.8869 3.2572
L16.8393 3.1620
" />
<path d="M16.8393 3.1620
L16.8393 2.7810
" />
<path d="M16.8393 2.7810
L16.8869 2.6858
" />
<path d="M16.8869 2.6858
L16.9821 2.6382
" />
<path d="M16.9821 2.6382
L17.1726 2.6382
" />
<path d="M17.1726 2.6382
L17.2679 2.6858
" />
<path d="M17.2679 2.6858
L17.3155 2.7810
" />
<path d="M17.3155 2.7810
L17.3155 2.8762
" />
<path d="M17.3155 2.8762
L16.8393 2.9715
" />
<path d="M17.7440 3.3048
L17.7440 2.6382
" />
<path d="M17.7440 2.8286
L17.7917 2.7334
" />
<path d="M17.7917 2.7334
L17.8393 2.6858
" />
<path d="M17.8393 2.6858
L17.9345 2.6382
" />
<path d="M17.9345 2.6382
L18.0298 2.6382
" />
<path d="M18.1250 3.4001
L18.8869 3.4001
" />
<path d="M19.1250 3.3048
L19.1250 2.3048
" />
<path d="M19.1250 2.7810
L19.6964 2.7810
" />
<path d="M19.6964 3.3048
L19.6964 2.3048
" />
<path d="M20.3631 2.3048
L20.4583 2.3048
" />
<path d="M20.4583 2.3048
L20.5536 2.3524
" />
<path d="M20.5536 2.3524
L20.6012 2.4001
" />
<path d="M20.6012 2.4001
L20.6488 2.4953
" />
<path d="M20.6488 2.4953
L20.6964 2.6858
" />
<path d="M20.6964 2.6858
L20.6964 2.9239
" />
<path d="M20.6964 2.9239
L20.6488 3.1143
" />
<path d="M20.6488 3.1143
L20.6012 3.2096
" />
<path d="M20.6012 3.2096
L20.5536 3.2572
" />
<path d="M20.5536 3.2572
L20.4583 3.3048
" />
<path d="M20.4583 3.3048
L20.3631 3.3048
" />
<path d="M20.3631 3.3048
L20.2679 3.2572
" />
<path d="M20.2679 3.2572
L20.2202 3.2096
" />
<path d="M20.2202 3.2096
L20.1726 3.1143
" />
<path d="M20.1726 3.1143
L20.1250 2.9239
" />
<path d="M20.1250 2.9239
L20.1250 2.6858
" />
<path d="M20.1250 2.6858
L20.1726 2.4953
" />
<path d="M20.1726 2.4953
L20.2202 2.4001
" />
<path d="M20.2202 2.4001
L20.2679 2.3524
" />
<path d="M20.2679 2.3524
L20.3631 2.3048
" />
<path d="M21.1250 3.2096
L21.1726 3.2572
" />
<path d="M21.1726 3.2572
L21.1250 3.3048
" />
<path d="M21.1250 3.3048
L21.0774 3.2572
" />
<path d="M21.0774 3.2572
L21.1250 3.2096
" />
<path d="M21.1250 3.2096
L21.1250 3.3048
" />
<path d="M21.7440 2.7334
L21.6488 2.6858
" />
<path d="M21.6488 2.6858
L21.6012 2.6382
" />
<path d="M21.6012 2.6382
L21.5536 2.5429
" />
<path d="M21.5536 2.5429
L21.5536 2.4953
" />
<path d="M21.5536 2.4953
L21.6012 2.4001
" />
<path d="M21.6012 2.4001
L21.6488 2.3524
" />
<path d="M21.6488 2.3524
L21.7440 2.3048
" />
<path d="M21.7440 2.3048
L21.9345 2.3048
" />
<path d="M21.9345 2.3048
L22.0298 2.3524
" />
<path d="M22.0298 2.3524
L22.0774 2.4001
" />
<path d="M22.0774 2.4001
L22.1250 2.4953
" />
<path d="M22.1250 2.4953
L22.1250 2.5429
" />
<path d="M22.1250 2.5429
L22.0774 2.6382
" />
<path d="M22.0774 2.6382
L22.0298 2.6858
" />
<path d="M22.0298 2.6858
L21.9345 2.7334
" />
<path d="M21.9345 2.7334
L21.7440 2.7334
" />
<path d="M21.7440 2.7334
L21.6488 2.7810
" />
<path d="M21.6488 2.7810
L21.6012 2.8286
" />
<path d="M21.6012 2.8286
L21.5536 2.9239
" />
<path d="M21.5536 2.9239
L21.5536 3.1143
" />
<path d="M21.5536 3.1143
L21.6012 3.2096
" />
<path d="M21.6012 3.2096
L21.6488 3.2572
" />
<path d="M21.6488 3.2572
L21.7440 3.3048
" />
<path d="M21.7440 3.3048
L21.9345 3.3048
" />
<path d="M21.9345 3.3048
L22.0298 3.2572
" />
<path d="M22.0298 3.2572
L22.0774 3.2096
" />
<path d="M22.0774 3.2096
L22.1250 3.1143
" />
<path d="M22.1250 3.1143
L22.1250 2.9239
" />
<path d="M22.1250 2.9239
L22.0774 2.8286
" />
<path d="M22.0774 2.8286
L22.0298 2.7810
" />
<path d="M22.0298 2.7810
L21.9345 2.7334
" />
<path d="M22.5536 3.3048
L22.5536 2.6382
" />
<path d="M22.5536 2.7334
L22.6012 2.6858
" />
<path d="M22.6012 2.6858
L22.6964 2.6382
" />
<path d="M22.6964 2.6382
L22.8393 2.6382
" />
<path d="M22.8393 2.6382
L22.9345 2.6858
" />
<path d="M22.9345 2.6858
L22.9821 2.7810
" />
<path d="M22.9821 2.7810
L22.9821 3.3048
" />
<path d="M22.9821 2.7810
L23.0298 2.6858
" />
<path d="M23.0298 2.6858
L23.1250 2.6382
" />
<path d="M23.1250 2.6382
L23.2679 2.6382
" />
<path d="M23.2679 2.6382
L23.3631 2.6858
" />
<path d="M23.3631 2.6858
L23.4107 2.7810
" />
<path d="M23.4107 2.7810
L23.4107 3.3048
" />
<path d="M23.8869 3.3048
L23.8869 2.6382
" />
<path d="M23.8869 2.7334
L23.9345 2.6858
" />
<path d="M23.9345 2.6858
L24.0298 2.6382
" />
<path d="M24.0298 2.6382
L24.1726 2.6382
" />
<path d="M24.1726 2.6382
L24.2679 2.6858
" />
<path d="M24.2679 2.6858
L24.3155 2.7810
" />
<path d="M24.3155 2.7810
L24.3155 3.3048
" />
<path d="M24.3155 2.7810
L24.3631 2.6858
" />
<path d="M24.3631 2.6858
L24.4583 2.6382
" />
<path d="M24.4583 2.6382
L24.6012 2.6382
" />
<path d="M24.6012 2.6382
L24.6964 2.6858
" />
<path d="M24.6964 2.6858
L24.7440 2.7810
" />
<path d="M24.7440 2.7810
L24.7440 3.3048
" />
</g><path style="fill:none; 
stroke:#AFAFAF; stroke-width:0.1000; stroke-opacity:1; 
stroke-linecap:round; stroke-linejoin:round;fill:none"
d="M 8.7536,0.0500
16.3536,0.0500
16.3536,1.6500
8.7536,1.6500
Z" /> 
</g> 
</svg>
