<svg xmlns="http://www.w3.org/2000/svg" width="94.848" height="13.92" viewBox="0 0 25.095 3.683">
    <g class="stroked-text" style="fill:none;stroke:#f2eda1;stroke-width:.15;stroke-opacity:1;stroke-linecap:round;stroke-linejoin:round">
        <path d="m9.296.412.19.8M9.487 1.212l.152-.571M9.64.64l.152.572M9.792 1.212l.19-.8M10.63 1.212V.793M10.63.793l-.038-.076M10.592.717 10.515.68M10.516.679h-.153M10.363.679l-.076.038M10.63 1.174l-.076.038M10.554 1.212h-.19M10.363 1.212l-.076-.038M10.287 1.174l-.038-.076M10.249 1.098v-.076M10.249 1.022l.038-.076M10.287.946l.076-.038M10.363.908h.19M10.554.908l.076-.039M10.935.679l.19.533M11.316.679l-.191.533M11.125 1.212l-.076.19M11.049 1.403l-.038.038M11.01 1.44l-.075.039M11.544.412l.19.8M11.735 1.212l.152-.571M11.887.64l.152.572M12.04 1.212l.19-.8M12.877 1.212V.793M12.877.793 12.84.717M12.84.717 12.762.68M12.763.679h-.152M12.61.679l-.075.038M12.877 1.174l-.076.038M12.801 1.212h-.19M12.61 1.212l-.075-.038M12.535 1.174l-.039-.076M12.496 1.098v-.076M12.496 1.022l.038-.076M12.535.946l.076-.038M12.61.908h.191M12.801.908l.076-.039M13.182.679l.19.533M13.563.679l-.19.533M13.373 1.212l-.077.19M13.296 1.403l-.038.038M13.258 1.44l-.076.039M13.792.412l.19.8M13.982 1.212l.152-.571M14.135.64l.152.572M14.287 1.212l.19-.8M15.125 1.212V.793M15.125.793l-.038-.076M15.087.717 15.01.68M15.01.679h-.152M14.858.679l-.076.038M15.125 1.174l-.076.038M15.049 1.212h-.19M14.858 1.212l-.076-.038M14.782 1.174l-.038-.076M14.744 1.098v-.076M14.744 1.022l.038-.076M14.782.946l.076-.038M14.858.908h.19M15.049.908l.076-.039M15.43.679l.19.533M15.81.679l-.19.533M15.62 1.212l-.076.19M15.544 1.403l-.038.038M15.506 1.44l-.076.039"/>
    </g>
    <g style="fill:none;stroke:#afafaf;stroke-width:.15;stroke-opacity:1;stroke-linecap:round;stroke-linejoin:round">
        <g class="stroked-text">
            <path d="M.363 3.305v-1M.363 2.305h.381M.744 2.305l.095.047M.84 2.352l.047.048M.887 2.4l.047.095M.935 2.495v.143M.935 2.638l-.048.095M.887 2.733l-.048.048M.84 2.781l-.096.048M.744 2.829h-.38M1.935 3.21l-.048.047M1.887 3.257l-.143.048M1.744 3.305h-.095M1.649 3.305l-.143-.048M1.506 3.257l-.095-.095M1.41 3.162l-.047-.095M1.363 3.067l-.048-.19M1.316 2.876v-.143M1.316 2.733l.047-.19M1.363 2.543l.048-.095M1.41 2.448l.096-.096M1.506 2.352l.143-.047M1.649 2.305h.095M1.744 2.305l.143.047M1.887 2.352l.048.048M2.696 2.781l.143.048M2.84 2.829l.047.047M2.887 2.876l.047.095M2.935 2.972v.142M2.935 3.114l-.048.096M2.887 3.21l-.048.047M2.84 3.257l-.096.048M2.744 3.305h-.38M2.363 3.305v-1M2.363 2.305h.333M2.696 2.305l.096.047M2.792 2.352l.047.048M2.84 2.4l.047.095M2.887 2.495v.095M2.887 2.59l-.048.096M2.84 2.686l-.048.047M2.792 2.733l-.096.048M2.696 2.781h-.333M3.268 2.305l.238 1M3.506 3.305l.19-.715M3.696 2.59l.19.715M3.887 3.305l.238-1M4.935 3.305V2.78M4.935 2.781l-.048-.095M4.887 2.686l-.095-.048M4.792 2.638h-.19M4.601 2.638l-.095.048M4.935 3.257l-.096.048M4.84 3.305H4.6M4.601 3.305l-.095-.048M4.506 3.257l-.048-.095M4.458 3.162v-.095M4.458 3.067l.048-.096M4.506 2.972l.095-.048M4.601 2.924h.238M4.84 2.924l.095-.048M5.316 2.638l.238.667M5.792 2.638l-.238.667M5.554 3.305l-.096.238M5.458 3.543l-.047.047M5.41 3.59l-.095.048M5.935 3.4h.761M6.935 3.305v-1M6.935 2.305h.38M7.316 2.305l.095.047M7.41 2.352l.048.048M7.458 2.4l.048.095M7.506 2.495v.143M7.506 2.638l-.048.095M7.458 2.733l-.047.048M7.41 2.781l-.095.048M7.316 2.829h-.381M7.935 3.305v-.667M7.935 2.829l.047-.096M7.982 2.733l.048-.047M8.03 2.686l.095-.048M8.125 2.638h.095M8.696 3.305l-.095-.048M8.601 3.257l-.047-.047M8.554 3.21l-.048-.096M8.506 3.114V2.83M8.506 2.829l.048-.096M8.554 2.733l.047-.047M8.601 2.686l.095-.048M8.696 2.638h.143M8.84 2.638l.095.048M8.935 2.686l.047.047M8.982 2.733l.048.096M9.03 2.829v.285M9.03 3.114l-.048.096M8.982 3.21l-.047.047M8.935 3.257l-.096.048M8.84 3.305h-.144M9.887 3.305v-1M9.887 3.257l-.095.048M9.792 3.305h-.19M9.601 3.305l-.095-.048M9.506 3.257l-.048-.047M9.458 3.21l-.047-.096M9.41 3.114V2.83M9.41 2.829l.048-.096M9.458 2.733l.048-.047M9.506 2.686l.095-.048M9.601 2.638h.19M9.792 2.638l.095.048M10.792 2.638v.667M10.363 2.638v.524M10.363 3.162l.048.095M10.41 3.257l.096.048M10.506 3.305h.143M10.649 3.305l.095-.048M10.744 3.257l.048-.047M11.696 3.257l-.095.048M11.601 3.305h-.19M11.41 3.305l-.095-.048M11.316 3.257l-.048-.047M11.268 3.21l-.048-.096M11.22 3.114V2.83M11.22 2.829l.048-.096M11.268 2.733l.047-.047M11.316 2.686l.095-.048M11.41 2.638h.191M11.601 2.638l.095.048M11.982 2.638h.381M12.125 2.305v.857M12.125 3.162l.048.095M12.173 3.257l.095.048M12.268 3.305h.095M12.696 3.305v-1M12.696 2.305l.572 1M13.268 3.305v-1M14.173 2.638v.667M13.744 2.638v.524M13.744 3.162l.048.095M13.792 3.257l.095.048M13.887 3.305h.143M14.03 3.305l.095-.048M14.125 3.257l.048-.047M14.649 3.305v-.667M14.649 2.733l.047-.047M14.696 2.686l.096-.048M14.792 2.638h.143M14.935 2.638l.095.048M15.03 2.686l.047.095M15.077 2.781v.524M15.077 2.781l.048-.095M15.125 2.686l.095-.048M15.22 2.638h.143M15.363 2.638l.095.048M15.458 2.686l.048.095M15.506 2.781v.524M15.982 3.305v-1M15.982 2.686l.095-.048M16.077 2.638h.19M16.268 2.638l.095.048M16.363 2.686l.048.047M16.41 2.733l.048.096M16.458 2.829v.285M16.458 3.114l-.047.096M16.41 3.21l-.047.047M16.363 3.257l-.095.048M16.268 3.305h-.19M16.077 3.305l-.095-.048M17.268 3.257l-.095.048M17.173 3.305h-.19M16.982 3.305l-.095-.048M16.887 3.257l-.048-.095M16.84 3.162v-.381M16.84 2.781l.047-.095M16.887 2.686l.095-.048M16.982 2.638h.19M17.173 2.638l.095.048M17.268 2.686l.047.095M17.316 2.781v.095M17.316 2.876l-.477.095M17.744 3.305v-.667M17.744 2.829l.048-.096M17.792 2.733l.047-.047M17.84 2.686l.095-.048M17.935 2.638h.095M18.125 3.4h.762M19.125 3.305v-1M19.125 2.781h.571M19.696 3.305v-1M20.363 2.305h.095M20.458 2.305l.096.047M20.554 2.352l.047.048M20.601 2.4l.048.095M20.649 2.495l.047.19M20.696 2.686v.238M20.696 2.924l-.047.19M20.649 3.114l-.048.096M20.601 3.21l-.047.047M20.554 3.257l-.096.048M20.458 3.305h-.095M20.363 3.305l-.095-.048M20.268 3.257l-.048-.047M20.22 3.21l-.047-.096M20.173 3.114l-.048-.19M20.125 2.924v-.238M20.125 2.686l.048-.19M20.173 2.495l.047-.095M20.22 2.4l.048-.048M20.268 2.352l.095-.047M21.125 3.21l.048.047M21.173 3.257l-.048.048M21.125 3.305l-.048-.048M21.077 3.257l.048-.047M21.125 3.21v.095M21.744 2.733l-.095-.047M21.649 2.686l-.048-.048M21.601 2.638l-.047-.095M21.554 2.543v-.048M21.554 2.495 21.6 2.4M21.601 2.4l.048-.048M21.649 2.352l.095-.047M21.744 2.305h.19M21.935 2.305l.095.047M22.03 2.352l.047.048M22.077 2.4l.048.095M22.125 2.495v.048M22.125 2.543l-.048.095M22.077 2.638l-.047.048M22.03 2.686l-.096.047M21.935 2.733h-.191M21.744 2.733l-.095.048M21.649 2.781l-.048.048M21.601 2.829l-.047.095M21.554 2.924v.19M21.554 3.114l.047.096M21.601 3.21l.048.047M21.649 3.257l.095.048M21.744 3.305h.19M21.935 3.305l.095-.048M22.03 3.257l.047-.047M22.077 3.21l.048-.096M22.125 3.114v-.19M22.125 2.924l-.048-.095M22.077 2.829l-.047-.048M22.03 2.781l-.096-.048M22.554 3.305v-.667M22.554 2.733l.047-.047M22.601 2.686l.095-.048M22.696 2.638h.143M22.84 2.638l.095.048M22.935 2.686l.047.095M22.982 2.781v.524M22.982 2.781l.048-.095M23.03 2.686l.095-.048M23.125 2.638h.143M23.268 2.638l.095.048M23.363 2.686l.048.095M23.41 2.781v.524M23.887 3.305v-.667M23.887 2.733l.047-.047M23.935 2.686l.095-.048M24.03 2.638h.143M24.173 2.638l.095.048M24.268 2.686l.047.095M24.316 2.781v.524M24.316 2.781l.047-.095M24.363 2.686l.095-.048M24.458 2.638h.143M24.601 2.638l.095.048M24.696 2.686l.048.095M24.744 2.781v.524"/>
        </g>
        <path d="M8.754.05h7.6v1.6h-7.6Z" style="stroke:#afafaf;stroke-width:.1;stroke-opacity:1;stroke-linecap:round;stroke-linejoin:round;fill:none"/>
    </g>
</svg>
