<svg xmlns="http://www.w3.org/2000/svg" width="106.752" height="151.392" viewBox="0 0 28.245 40.056">
    <g style="fill:none;stroke:#f2eda1;stroke-width:.15;stroke-opacity:1;stroke-linecap:round;stroke-linejoin:round">
        <g class="stroked-text">
            <path d="M19.77.935 20.246.6M19.77.363h1M20.77.363v.381M20.77.744l-.047.095M20.723.84l-.048.047M20.675.887l-.095.047M20.58.935h-.143M20.437.935l-.095-.048M20.342.887l-.048-.048M20.294.84l-.048-.096M20.246.744v-.38M20.294 1.363v.333M19.77 1.84v-.477M19.77 1.363h1M20.77 1.363v.476M20.294 2.601v-.333M19.77 2.268h1M20.77 2.268v.476M20.77 3.268h-.238M20.627 3.03l-.095.238M20.532 3.268l.095.238M20.342 3.125l.19.143M20.532 3.268l-.19.143M20.77 4.03h-.238M20.627 3.792l-.095.238M20.532 4.03l.095.238M20.342 3.887l.19.143M20.532 4.03l-.19.143"/>
        </g>
    </g>
    <g style="fill:none;stroke:#f2eda1;stroke-width:.12;stroke-opacity:1;stroke-linecap:round;stroke-linejoin:round">
        <g class="stroked-text">
            <path d="m17.21 1.296.086.029M17.296 1.325h.143M17.439 1.325l.057-.029M17.496 1.296l.029-.029M17.525 1.267l.028-.057M17.553 1.21v-.057M17.553 1.153l-.028-.057M17.525 1.096l-.029-.029M17.496 1.067l-.057-.028M17.439 1.039l-.114-.029M17.325 1.01l-.057-.028M17.268.982l-.029-.029M17.239.953 17.21.896M17.21.896V.839M17.21.839l.029-.057M17.239.782l.029-.029M17.268.753l.057-.028M17.325.725h.143M17.468.725l.085.028M17.81 1.325v-.6M17.81.725h.143M17.953.725l.086.028M18.039.753l.057.057M18.096.81l.029.057M18.125.867l.028.115M18.153.982v.085M18.153 1.067l-.028.115M18.125 1.182l-.029.057M18.096 1.239l-.057.057M18.039 1.296l-.086.029M17.953 1.325h-.143M18.382 1.153h.286M18.325 1.325l.2-.6M18.525.725l.2.6"/>
        </g>
        <g class="stroked-text">
            <path d="M9.862.753 9.805.725M9.805.725h-.086M9.719.725l-.086.028M9.633.753 9.576.81M9.576.81l-.028.057M9.548.867l-.029.115M9.519.982v.085M9.519 1.067l.029.115M9.548 1.182l.028.057M9.576 1.239l.057.057M9.633 1.296l.086.029M9.719 1.325h.057M9.776 1.325l.086-.029M9.862 1.296l.028-.029M9.89 1.267v-.2M9.89 1.067h-.114M10.148 1.325v-.6M10.148.725l.342.6M10.49 1.325v-.6M10.776 1.325v-.6M10.776.725h.143M10.919.725l.086.028M11.005.753l.057.057M11.062.81l.028.057M11.09.867l.029.115M11.119.982v.085M11.119 1.067l-.029.115M11.09 1.182l-.028.057M11.062 1.239l-.057.057M11.005 1.296l-.086.029M10.919 1.325h-.143"/>
        </g>
        <g class="stroked-text">
            <path d="m14.685 1.296.085.029M14.77 1.325h.143M14.913 1.325l.057-.029M14.97 1.296 15 1.267M14.999 1.267l.029-.057M15.028 1.21v-.057M15.028 1.153l-.029-.057M14.999 1.096l-.029-.029M14.97 1.067l-.057-.028M14.913 1.039 14.8 1.01M14.799 1.01l-.057-.028M14.742.982l-.029-.029M14.713.953l-.028-.057M14.685.896V.839M14.685.839l.028-.057M14.713.782l.029-.029M14.742.753l.057-.028M14.799.725h.143M14.942.725l.086.028M15.628 1.267l-.029.029M15.599 1.296l-.086.029M15.513 1.325h-.057M15.456 1.325l-.086-.029M15.37 1.296l-.057-.057M15.313 1.239l-.028-.057M15.285 1.182l-.029-.115M15.256 1.067V.982M15.256.982l.029-.115M15.285.867l.028-.057M15.313.81l.057-.057M15.37.753l.086-.028M15.456.725h.057M15.513.725l.086.028M15.599.753l.029.029M16.17 1.325h-.285M15.885 1.325v-.6"/>
        </g>
        <g class="stroked-text">
            <path d="m12.059.725.2.6M12.259 1.325l.2-.6M13.002 1.267l-.029.029M12.973 1.296l-.085.029M12.888 1.325h-.058M12.83 1.325l-.085-.029M12.745 1.296l-.057-.057M12.688 1.239l-.029-.057M12.659 1.182l-.029-.115M12.63 1.067V.982M12.63.982l.029-.115M12.659.867l.029-.057M12.688.81l.057-.057M12.745.753l.085-.028M12.83.725h.058M12.888.725l.085.028M12.973.753l.029.029M13.602 1.267l-.029.029M13.573 1.296l-.085.029M13.488 1.325h-.058M13.43 1.325l-.085-.029M13.345 1.296l-.057-.057M13.288 1.239l-.029-.057M13.259 1.182l-.029-.115M13.23 1.067V.982M13.23.982l.029-.115M13.259.867l.029-.057M13.288.81l.057-.057M13.345.753l.085-.028M13.43.725h.058M13.488.725l.085.028M13.573.753l.029.029"/>
        </g>
        <path d="M9.045.35h2.54v3.938h-2.54Z" style="stroke:#f2eda1;stroke-width:.12;stroke-opacity:1;stroke-linecap:round;stroke-linejoin:round;fill:none"/>
        <path d="M9.045 1.748h10.16v2.54H9.045Z" style="stroke:#f2eda1;stroke-width:.12;stroke-opacity:1;stroke-linecap:round;stroke-linejoin:round;fill:none"/>
        <path d="M11.585.35h2.54v3.938h-2.54ZM14.125.35h2.54v3.938h-2.54ZM16.665.35h2.54v3.938h-2.54Z" style="stroke:#f2eda1;stroke-width:.12;stroke-opacity:1;stroke-linecap:round;stroke-linejoin:round;fill:none"/>
    </g>
    <circle cx="17.935" cy="3.018" r=".85" style="fill:#4d7fc4;fill-opacity:1;stroke:none"/>
    <circle cx="15.395" cy="3.018" r=".85" style="fill:#4d7fc4;fill-opacity:1;stroke:none"/>
    <circle cx="12.855" cy="3.018" r=".85" style="fill:#4d7fc4;fill-opacity:1;stroke:none"/>
    <circle cx="10.315" cy="3.018" r=".85" style="fill:#4d7fc4;fill-opacity:1;stroke:none"/>
    <circle cx="17.935" cy="3.018" r=".85" style="fill:#c83434;fill-opacity:1;stroke:none"/>
    <circle cx="15.395" cy="3.018" r=".85" style="fill:#c83434;fill-opacity:1;stroke:none"/>
    <circle cx="12.855" cy="3.018" r=".85" style="fill:#c83434;fill-opacity:1;stroke:none"/>
    <circle cx="10.315" cy="3.018" r=".85" style="fill:#c83434;fill-opacity:1;stroke:none"/>
    <g class="stroked-text" style="fill:none;stroke:#585d84;stroke-width:.0472;stroke-opacity:1;stroke-linecap:round;stroke-linejoin:round">
        <path d="M18.097 3.278h-.324M17.935 3.278V2.71M17.935 2.71l-.054.082M17.881 2.792l-.054.054M17.827 2.846l-.054.027"/>
    </g>
    <circle cx="17.935" cy="3.018" r=".85" style="fill:none;stroke:#585d84;stroke-width:.0212;stroke-opacity:1;stroke-linecap:round;stroke-linejoin:round"/>
    <g class="stroked-text" style="fill:none;stroke:#585d84;stroke-width:.0472;stroke-opacity:1;stroke-linecap:round;stroke-linejoin:round">
        <path d="m15.233 2.765.027-.027M15.26 2.738l.054-.027M15.314 2.71h.135M15.449 2.71l.054.028M15.503 2.738l.027.027M15.53 2.765l.027.054M15.557 2.819v.054M15.557 2.873l-.027.08M15.53 2.954l-.324.324M15.206 3.278h.35"/>
    </g>
    <circle cx="15.395" cy="3.018" r=".85" style="fill:none;stroke:#585d84;stroke-width:.0212;stroke-opacity:1;stroke-linecap:round;stroke-linejoin:round"/>
    <g class="stroked-text" style="fill:none;stroke:#585d84;stroke-width:.0472;stroke-opacity:1;stroke-linecap:round;stroke-linejoin:round">
        <path d="M12.666 2.71h.35M13.017 2.71l-.189.217M12.828 2.927h.081M12.909 2.927l.054.027M12.963 2.954l.027.027M12.99 2.98l.027.055M13.017 3.035v.135M13.017 3.17l-.027.054M12.99 3.224l-.027.027M12.963 3.25l-.054.028M12.909 3.278h-.162M12.747 3.278l-.054-.027M12.693 3.25l-.027-.026"/>
    </g>
    <circle cx="12.855" cy="3.018" r=".85" style="fill:none;stroke:#585d84;stroke-width:.0212;stroke-opacity:1;stroke-linecap:round;stroke-linejoin:round"/>
    <g class="stroked-text" style="fill:none;stroke:#585d84;stroke-width:.0472;stroke-opacity:1;stroke-linecap:round;stroke-linejoin:round">
        <path d="M10.423 2.9v.378M10.288 2.684l-.135.405M10.153 3.089h.35"/>
    </g>
    <circle cx="10.315" cy="3.018" r=".85" style="fill:none;stroke:#585d84;stroke-width:.0212;stroke-opacity:1;stroke-linecap:round;stroke-linejoin:round"/>
    <g style="fill:none;stroke:#afafaf;stroke-width:.15;stroke-opacity:1;stroke-linecap:round;stroke-linejoin:round">
        <g class="stroked-text">
            <path d="M.554 37.183h.19M.744 37.183l.095.047M.84 37.23l.095.096M.935 37.326l.047.19M.982 37.516v.333M.982 37.85l-.047.19M.935 38.04l-.096.095M.84 38.135l-.096.048M.744 38.183h-.19M.554 38.183l-.096-.048M.458 38.135l-.095-.095M.363 38.04l-.047-.19M.316 37.85v-.334M.316 37.516l.047-.19M.363 37.326l.095-.096M.458 37.23l.096-.047M1.887 38.183H1.41M1.41 38.183v-1M2.22 37.659h.334M2.696 38.183H2.22M2.22 38.183v-1M2.22 37.183h.476M3.125 38.183v-1M3.125 37.183h.238M3.363 37.183l.143.047M3.506 37.23l.095.096M3.601 37.326l.048.095M3.649 37.42l.047.191M3.696 37.611v.143M3.696 37.754l-.047.19M3.649 37.945l-.048.095M3.601 38.04l-.095.095M3.506 38.135l-.143.048M3.363 38.183h-.238M3.887 38.278h.762M4.84 38.135l.142.048M4.982 38.183h.238M5.22 38.183l.096-.048M5.316 38.135l.047-.048M5.363 38.087l.048-.095M5.41 37.992v-.095M5.41 37.897l-.047-.095M5.363 37.802l-.048-.048M5.316 37.754l-.096-.047M5.22 37.707l-.19-.048M5.03 37.659l-.096-.048M4.935 37.611l-.048-.047M4.887 37.564l-.048-.096M4.84 37.468v-.095M4.84 37.373l.047-.095M4.887 37.278l.048-.048M4.935 37.23l.095-.047M5.03 37.183h.238M5.268 37.183l.143.047M5.792 38.135l.143.048M5.935 38.183h.238M6.173 38.183l.095-.048M6.268 38.135l.048-.048M6.316 38.087l.047-.095M6.363 37.992v-.095M6.363 37.897l-.048-.095M6.316 37.802l-.048-.048M6.268 37.754l-.095-.047M6.173 37.707l-.19-.048M5.982 37.659l-.095-.048M5.887 37.611l-.048-.047M5.84 37.564l-.048-.096M5.792 37.468v-.095M5.792 37.373l.047-.095M5.84 37.278l.047-.048M5.887 37.23l.095-.047M5.982 37.183h.238M6.22 37.183l.143.047M6.792 38.183v-1M6.792 37.183h.238M7.03 37.183l.143.047M7.173 37.23l.095.096M7.268 37.326l.048.095M7.316 37.42l.047.191M7.363 37.611v.143M7.363 37.754l-.048.19M7.316 37.945l-.048.095M7.268 38.04l-.095.095M7.173 38.135l-.143.048M7.03 38.183h-.238M8.316 38.183h-.572M8.03 38.183v-1M8.03 37.183l-.095.142M7.935 37.326l-.096.095M7.84 37.42l-.096.048M9.268 38.183h-.572M8.982 38.183v-1M8.982 37.183l-.095.142M8.887 37.326l-.095.095M8.792 37.42l-.096.048M9.887 37.183h.095M9.982 37.183l.095.047M10.077 37.23l.048.048M10.125 37.278l.048.095M10.173 37.373l.047.19M10.22 37.564v.238M10.22 37.802l-.047.19M10.173 37.992l-.048.095M10.125 38.087l-.048.048M10.077 38.135l-.095.048M9.982 38.183h-.095M9.887 38.183l-.095-.048M9.792 38.135l-.048-.048M9.744 38.087l-.048-.095M9.696 37.992l-.047-.19M9.649 37.802v-.238M9.649 37.564l.047-.19M9.696 37.373l.048-.095M9.744 37.278l.048-.048M9.792 37.23l.095-.047M10.554 37.183h.666M11.22 37.183l-.428 1M11.363 38.278h.762M12.792 37.183h-.19M12.601 37.183l-.095.047M12.506 37.23l-.048.048M12.458 37.278l-.095.143M12.363 37.42l-.047.191M12.316 37.611v.381M12.316 37.992l.047.095M12.363 38.087l.048.048M12.41 38.135l.096.048M12.506 38.183h.19M12.696 38.183l.096-.048M12.792 38.135l.047-.048M12.84 38.087l.047-.095M12.887 37.992v-.238M12.887 37.754l-.048-.095M12.84 37.659l-.048-.048M12.792 37.611l-.096-.047M12.696 37.564h-.19M12.506 37.564l-.095.047M12.41 37.611l-.047.048M12.363 37.659l-.047.095M13.744 37.516v.667M13.506 37.135l-.238.714M13.268 37.85h.619M14.173 38.183l.523-.667M14.173 37.516l.523.667M15.601 38.183h-.571M15.316 38.183v-1M15.316 37.183l-.096.142M15.22 37.326l-.095.095M15.125 37.42l-.095.048M15.982 37.278l.048-.048M16.03 37.23l.095-.047M16.125 37.183h.238M16.363 37.183l.095.047M16.458 37.23l.048.048M16.506 37.278l.048.095M16.554 37.373v.095M16.554 37.468l-.048.143M16.506 37.611l-.572.572M15.935 38.183h.619M17.125 37.611l-.095-.047M17.03 37.564l-.048-.048M16.982 37.516l-.047-.095M16.935 37.42v-.047M16.935 37.373l.047-.095M16.982 37.278l.048-.048M17.03 37.23l.095-.047M17.125 37.183h.19M17.316 37.183l.095.047M17.41 37.23l.048.048M17.458 37.278l.048.095M17.506 37.373v.048M17.506 37.42l-.048.096M17.458 37.516l-.047.048M17.41 37.564l-.095.047M17.316 37.611h-.191M17.125 37.611l-.095.048M17.03 37.659l-.048.047M16.982 37.707l-.047.095M16.935 37.802v.19M16.935 37.992l.047.095M16.982 38.087l.048.048M17.03 38.135l.095.048M17.125 38.183h.19M17.316 38.183l.095-.048M17.41 38.135l.048-.048M17.458 38.087l.048-.095M17.506 37.992v-.19M17.506 37.802l-.048-.096M17.458 37.707l-.047-.048M17.41 37.659l-.095-.048M17.696 38.278h.762M18.887 37.183h.095M18.982 37.183l.095.047M19.077 37.23l.048.048M19.125 37.278l.048.095M19.173 37.373l.047.19M19.22 37.564v.238M19.22 37.802l-.047.19M19.173 37.992l-.048.095M19.125 38.087l-.048.048M19.077 38.135l-.095.048M18.982 38.183h-.095M18.887 38.183l-.095-.048M18.792 38.135l-.048-.048M18.744 38.087l-.048-.095M18.696 37.992l-.047-.19M18.649 37.802v-.238M18.649 37.564l.047-.19M18.696 37.373l.048-.095M18.744 37.278l.048-.048M18.792 37.23l.095-.047M19.649 38.087l.047.048M19.696 38.135l-.047.048M19.649 38.183l-.048-.048M19.601 38.135l.048-.048M19.649 38.087v.096M20.173 38.183h.19M20.363 38.183l.095-.048M20.458 38.135l.048-.048M20.506 38.087l.095-.142M20.601 37.945l.048-.19M20.649 37.754v-.38M20.649 37.373l-.048-.095M20.601 37.278l-.047-.048M20.554 37.23l-.096-.047M20.458 37.183h-.19M20.268 37.183l-.095.047M20.173 37.23l-.048.048M20.125 37.278l-.048.095M20.077 37.373v.238M20.077 37.611l.048.096M20.125 37.707l.048.047M20.173 37.754l.095.048M20.268 37.802h.19M20.458 37.802l.096-.048M20.554 37.754l.047-.047M20.601 37.707l.048-.096M21.506 37.183h-.19M21.316 37.183l-.096.047M21.22 37.23l-.047.048M21.173 37.278l-.096.143M21.077 37.42l-.047.191M21.03 37.611v.381M21.03 37.992l.047.095M21.077 38.087l.048.048M21.125 38.135l.095.048M21.22 38.183h.19M21.41 38.183l.096-.048M21.506 38.135l.048-.048M21.554 38.087l.047-.095M21.601 37.992v-.238M21.601 37.754l-.047-.095M21.554 37.659l-.048-.048M21.506 37.611l-.095-.047M21.41 37.564h-.19M21.22 37.564l-.095.047M21.125 37.611l-.048.048M21.077 37.659l-.047.095M22.03 38.183v-.667M22.03 37.183l-.048.047M21.982 37.23l.048.048M22.03 37.278l.047-.048M22.077 37.23l-.047-.047M22.03 37.183v.095M22.506 37.516v.667M22.506 37.611l.048-.047M22.554 37.564l.095-.048M22.649 37.516h.143M22.792 37.516l.095.048M22.887 37.564l.047.095M22.935 37.659v.524M23.84 38.135l-.096.048M23.744 38.183h-.19M23.554 38.183l-.096-.048M23.458 38.135l-.047-.048M23.41 38.087l-.047-.095M23.363 37.992v-.285M23.363 37.707l.048-.096M23.41 37.611l.048-.047M23.458 37.564l.096-.048M23.554 37.516h.19M23.744 37.516l.095.048M24.268 38.183v-1M24.696 38.183v-.524M24.696 37.659l-.047-.095M24.649 37.564l-.095-.048M24.554 37.516h-.143M24.41 37.516l-.095.048M24.316 37.564l-.048.047M24.935 38.278h.761M25.935 38.183v-1M26.363 37.278l.048-.048M26.41 37.23l.096-.047M26.506 37.183h.238M26.744 37.183l.095.047M26.84 37.23l.047.048M26.887 37.278l.047.095M26.935 37.373v.095M26.935 37.468l-.048.143M26.887 37.611l-.572.572M26.316 38.183h.619M27.935 38.087l-.048.048M27.887 38.135l-.143.048M27.744 38.183h-.095M27.649 38.183l-.143-.048M27.506 38.135l-.095-.095M27.41 38.04l-.047-.095M27.363 37.945l-.047-.19M27.316 37.754v-.143M27.316 37.611l.047-.19M27.363 37.42l.048-.095M27.41 37.326l.096-.096M27.506 37.23l.143-.047M27.649 37.183h.095M27.744 37.183l.143.047M27.887 37.23l.047.048"/>
        </g>
        <g class="stroked-text">
            <path d="m12.792 39.683-.334-.477M12.22 39.683v-1M12.22 38.683h.381M12.601 38.683l.095.047M12.696 38.73l.048.048M12.744 38.778l.048.095M12.792 38.873v.143M12.792 39.016l-.048.095M12.744 39.111l-.048.048M12.696 39.159l-.095.047M12.601 39.207h-.38M13.22 39.159h.334M13.696 39.683h-.476M13.22 39.683v-1M13.22 38.683h.476M14.458 39.159h-.333M14.125 39.683v-1M14.125 38.683h.476M15.125 38.683v.238M14.887 38.826l.238.095M15.125 38.92l.238-.095M14.982 39.111l.143-.19M15.125 38.92l.143.191M15.887 38.683v.238M15.649 38.826l.238.095M15.887 38.92l.238-.095M15.744 39.111l.143-.19M15.887 38.92l.143.191"/>
        </g>
        <path d="M4.625 1.598h19v35h-19Z" style="stroke:#afafaf;stroke-width:.1;stroke-opacity:1;stroke-linecap:round;stroke-linejoin:round;fill:none"/>
        <path d="M7.125 7.058h14v28h-14Z" style="stroke:#afafaf;stroke-width:.1;stroke-opacity:1;stroke-linecap:round;stroke-linejoin:round;fill:none"/>
    </g>
    <g style="fill:none;stroke:#afafaf;stroke-width:.1;stroke-opacity:1;stroke-linecap:round;stroke-linejoin:round">
        <path d="M8.195 8.158h1.1M9.695 8.158h1.1M11.195 8.158h1.1M12.695 8.158h1.1M14.195 8.158h1.1M15.695 8.158h1.1M17.195 8.158h1.1M18.695 8.158h1.1M20.055 8.158v1.1M20.055 9.658v1.1M20.055 11.158v1.1M20.055 12.658v1.1M20.055 14.158v1.1M20.055 15.658v1.1M20.055 17.158v1.1M20.055 18.658v1.1M20.055 20.158v1.1M20.055 21.658v1.1M20.055 23.158v1.1M20.055 24.658v1.1M20.055 26.158v1.1M20.055 27.658v1.1M20.055 29.158v1.1M20.055 30.658v.24M20.055 30.898h-1.1M18.555 30.898h-1.1M17.055 30.898h-1.1M15.555 30.898h-1.1M14.055 30.898h-1.1M12.555 30.898h-1.1M11.055 30.898h-1.1M9.555 30.898h-1.1M8.195 30.898v-1.1M8.195 29.398v-1.1M8.195 27.898v-1.1M8.195 26.398v-1.1M8.195 24.898v-1.1M8.195 23.398v-1.1M8.195 21.898v-1.1M8.195 20.398v-1.1M8.195 18.898v-1.1M8.195 17.398v-1.1M8.195 15.898v-1.1M8.195 14.398v-1.1M8.195 12.898v-1.1M8.195 11.398v-1.1M8.195 9.898v-1.1M8.195 8.398v-.24"/>
        <circle cx="6.625" cy="3.598" r="1.1"/>
        <circle cx="21.625" cy="3.598" r="1.1"/>
    </g>
    <g class="stroked-text" style="fill:none;stroke:#afafaf;stroke-width:.0472;stroke-opacity:1;stroke-linecap:round;stroke-linejoin:round">
        <path d="M18.097 3.278h-.324M17.935 3.278V2.71M17.935 2.71l-.054.082M17.881 2.792l-.054.054M17.827 2.846l-.054.027"/>
    </g>
    <circle cx="17.935" cy="3.018" r=".85" style="fill:none;stroke:#afafaf;stroke-width:.0212;stroke-opacity:1;stroke-linecap:round;stroke-linejoin:round"/>
    <g class="stroked-text" style="fill:none;stroke:#afafaf;stroke-width:.0472;stroke-opacity:1;stroke-linecap:round;stroke-linejoin:round">
        <path d="m15.233 2.765.027-.027M15.26 2.738l.054-.027M15.314 2.71h.135M15.449 2.71l.054.028M15.503 2.738l.027.027M15.53 2.765l.027.054M15.557 2.819v.054M15.557 2.873l-.027.08M15.53 2.954l-.324.324M15.206 3.278h.35"/>
    </g>
    <circle cx="15.395" cy="3.018" r=".85" style="fill:none;stroke:#afafaf;stroke-width:.0212;stroke-opacity:1;stroke-linecap:round;stroke-linejoin:round"/>
    <g class="stroked-text" style="fill:none;stroke:#afafaf;stroke-width:.0472;stroke-opacity:1;stroke-linecap:round;stroke-linejoin:round">
        <path d="M12.666 2.71h.35M13.017 2.71l-.189.217M12.828 2.927h.081M12.909 2.927l.054.027M12.963 2.954l.027.027M12.99 2.98l.027.055M13.017 3.035v.135M13.017 3.17l-.027.054M12.99 3.224l-.027.027M12.963 3.25l-.054.028M12.909 3.278h-.162M12.747 3.278l-.054-.027M12.693 3.25l-.027-.026"/>
    </g>
    <circle cx="12.855" cy="3.018" r=".85" style="fill:none;stroke:#afafaf;stroke-width:.0212;stroke-opacity:1;stroke-linecap:round;stroke-linejoin:round"/>
    <g class="stroked-text" style="fill:none;stroke:#afafaf;stroke-width:.0472;stroke-opacity:1;stroke-linecap:round;stroke-linejoin:round">
        <path d="M10.423 2.9v.378M10.288 2.684l-.135.405M10.153 3.089h.35"/>
    </g>
    <g style="fill:none;stroke:#afafaf;stroke-width:.0212;stroke-opacity:1;stroke-linecap:round;stroke-linejoin:round">
        <circle cx="10.315" cy="3.018" r=".85"/>
        <path d="M8.195 8.158h11.86v22.74H8.195Z" style="stroke:#c2c2c2;stroke-width:.05;stroke-opacity:1;stroke-linecap:round;stroke-linejoin:round;fill:none"/>
    </g>
</svg>
