<svg xmlns="http://www.w3.org/2000/svg" width="116.448" height="178.944" viewBox="0 0 30.81 47.346">
    <g class="stroked-text" style="fill:none;stroke:#f2eda1;stroke-width:.15;stroke-opacity:1;stroke-linecap:round;stroke-linejoin:round">
        <path d="m14.077 1.303-.333-.476M13.506 1.303v-1M13.506.303h.38M13.887.303l.095.048M13.982.35l.048.048M14.03.398l.047.095M14.077.494v.142M14.077.636l-.047.096M14.03.732l-.048.047M13.982.78l-.095.047M13.887.827h-.381M14.506.78h.333M14.982 1.303h-.476M14.506 1.303v-1M14.506.303h.476M15.744.78h-.333M15.41 1.303v-1M15.41.303h.477M16.41.303v.238M16.173.446l.238.095M16.41.541l.239-.095M16.268.732l.143-.19M16.41.541l.144.19M17.173.303v.238M16.935.446l.238.095M17.173.541l.238-.095M17.03.732l.143-.19M17.173.541l.143.19"/>
    </g>
    <circle cx="11.601" cy="3.388" r=".85" style="fill:#4d7fc4;fill-opacity:1;stroke:none"/>
    <circle cx="14.141" cy="3.388" r=".85" style="fill:#4d7fc4;fill-opacity:1;stroke:none"/>
    <circle cx="16.681" cy="3.388" r=".85" style="fill:#4d7fc4;fill-opacity:1;stroke:none"/>
    <circle cx="19.221" cy="3.388" r=".85" style="fill:#4d7fc4;fill-opacity:1;stroke:none"/>
    <circle cx="11.601" cy="3.388" r=".85" style="fill:#c83434;fill-opacity:1;stroke:none"/>
    <circle cx="14.141" cy="3.388" r=".85" style="fill:#c83434;fill-opacity:1;stroke:none"/>
    <circle cx="16.681" cy="3.388" r=".85" style="fill:#c83434;fill-opacity:1;stroke:none"/>
    <circle cx="19.221" cy="3.388" r=".85" style="fill:#c83434;fill-opacity:1;stroke:none"/>
    <g class="stroked-text" style="fill:none;stroke:#585d84;stroke-width:.0472;stroke-opacity:1;stroke-linecap:round;stroke-linejoin:round">
        <path d="M11.763 3.648h-.324M11.6 3.648V3.08M11.6 3.081l-.053.081M11.547 3.162l-.054.054M11.493 3.216l-.054.027"/>
    </g>
    <circle cx="11.601" cy="3.388" r=".85" style="fill:none;stroke:#585d84;stroke-width:.0212;stroke-opacity:1;stroke-linecap:round;stroke-linejoin:round"/>
    <g class="stroked-text" style="fill:none;stroke:#585d84;stroke-width:.0472;stroke-opacity:1;stroke-linecap:round;stroke-linejoin:round">
        <path d="m13.979 3.135.027-.027M14.006 3.108l.054-.027M14.06 3.081h.135M14.195 3.081l.054.027M14.249 3.108l.027.027M14.276 3.135l.027.054M14.303 3.19v.053M14.303 3.243l-.027.081M14.276 3.324l-.324.324M13.952 3.648h.35"/>
    </g>
    <circle cx="14.141" cy="3.388" r=".85" style="fill:none;stroke:#585d84;stroke-width:.0212;stroke-opacity:1;stroke-linecap:round;stroke-linejoin:round"/>
    <g class="stroked-text" style="fill:none;stroke:#585d84;stroke-width:.0472;stroke-opacity:1;stroke-linecap:round;stroke-linejoin:round">
        <path d="M16.492 3.081h.35M16.843 3.081l-.19.216M16.654 3.297h.08M16.735 3.297l.054.027M16.789 3.324l.027.027M16.816 3.351l.027.054M16.843 3.405v.135M16.843 3.54l-.027.054M16.816 3.594l-.027.027M16.789 3.621l-.054.027M16.735 3.648h-.162M16.573 3.648l-.054-.027M16.519 3.621l-.027-.027"/>
    </g>
    <circle cx="16.681" cy="3.388" r=".85" style="fill:none;stroke:#585d84;stroke-width:.0212;stroke-opacity:1;stroke-linecap:round;stroke-linejoin:round"/>
    <g class="stroked-text" style="fill:none;stroke:#585d84;stroke-width:.0472;stroke-opacity:1;stroke-linecap:round;stroke-linejoin:round">
        <path d="M19.329 3.27v.378M19.194 3.054l-.135.405M19.059 3.46h.35"/>
    </g>
    <circle cx="19.221" cy="3.388" r=".85" style="fill:none;stroke:#585d84;stroke-width:.0212;stroke-opacity:1;stroke-linecap:round;stroke-linejoin:round"/>
    <g style="fill:none;stroke:#afafaf;stroke-width:.15;stroke-opacity:1;stroke-linecap:round;stroke-linejoin:round">
        <g class="stroked-text">
            <path d="M.554 44.473h.19M.744 44.473l.095.048M.84 44.52l.095.096M.935 44.616l.047.19M.982 44.806v.334M.982 45.14l-.047.19M.935 45.33l-.096.095M.84 45.425l-.096.048M.744 45.473h-.19M.554 45.473l-.096-.048M.458 45.425l-.095-.095M.363 45.33l-.047-.19M.316 45.14v-.334M.316 44.806l.047-.19M.363 44.616l.095-.095M.458 44.52l.096-.047M1.887 45.473H1.41M1.41 45.473v-1M2.22 44.95h.334M2.696 45.473H2.22M2.22 45.473v-1M2.22 44.473h.476M3.125 45.473v-1M3.125 44.473h.238M3.363 44.473l.143.048M3.506 44.52l.095.096M3.601 44.616l.048.095M3.649 44.711l.047.19M3.696 44.902v.142M3.696 45.045l-.047.19M3.649 45.235l-.048.095M3.601 45.33l-.095.095M3.506 45.425l-.143.048M3.363 45.473h-.238M3.887 45.568h.762M4.84 45.425l.142.048M4.982 45.473h.238M5.22 45.473l.096-.048M5.316 45.425l.047-.047M5.363 45.378l.048-.095M5.41 45.283v-.096M5.41 45.187l-.047-.095M5.363 45.092l-.048-.047M5.316 45.045l-.096-.048M5.22 44.997l-.19-.048M5.03 44.95l-.096-.048M4.935 44.902l-.048-.048M4.887 44.854l-.048-.095M4.84 44.759v-.096M4.84 44.664l.047-.096M4.887 44.568l.048-.047M4.935 44.52l.095-.047M5.03 44.473h.238M5.268 44.473l.143.048M5.84 45.473v-1M5.84 44.95h.57M6.41 45.473v-1M7.41 45.473h-.57M7.125 45.473v-1M7.125 44.473l-.095.143M7.03 44.616l-.096.095M6.935 44.711l-.096.048M8.363 45.473h-.571M8.077 45.473v-1M8.077 44.473l-.095.143M7.982 44.616l-.095.095M7.887 44.711l-.095.048M8.982 44.473h.095M9.077 44.473l.096.048M9.173 44.52l.047.048M9.22 44.568l.048.096M9.268 44.664l.047.19M9.316 44.854v.238M9.316 45.092l-.048.19M9.268 45.283l-.048.095M9.22 45.378l-.047.047M9.173 45.425l-.096.048M9.077 45.473h-.095M8.982 45.473l-.095-.048M8.887 45.425l-.048-.047M8.84 45.378l-.048-.095M8.792 45.283l-.048-.19M8.744 45.092v-.238M8.744 44.854l.048-.19M8.792 44.664l.047-.096M8.84 44.568l.047-.047M8.887 44.52l.095-.047M9.649 44.473h.667M10.316 44.473l-.43 1M10.458 45.568h.762M11.887 44.473h-.19M11.696 44.473l-.095.048M11.601 44.52l-.047.048M11.554 44.568l-.096.143M11.458 44.711l-.047.19M11.41 44.902v.38M11.41 45.283l.048.095M11.458 45.378l.048.047M11.506 45.425l.095.048M11.601 45.473h.19M11.792 45.473l.095-.048M11.887 45.425l.047-.047M11.935 45.378l.047-.095M11.982 45.283v-.239M11.982 45.045l-.047-.096M11.935 44.95l-.048-.048M11.887 44.902l-.095-.048M11.792 44.854h-.19M11.601 44.854l-.095.048M11.506 44.902l-.048.047M11.458 44.95l-.047.094M12.84 44.806v.667M12.601 44.425l-.238.715M12.363 45.14h.62M13.268 45.473l.524-.667M13.268 44.806l.524.667M14.696 45.473h-.571M14.41 45.473v-1M14.41 44.473l-.095.143M14.316 44.616l-.096.095M14.22 44.711l-.095.048M15.077 44.568l.048-.047M15.125 44.52l.095-.047M15.22 44.473h.238M15.458 44.473l.096.048M15.554 44.52l.047.048M15.601 44.568l.048.096M15.649 44.664v.095M15.649 44.759l-.048.143M15.601 44.902l-.571.571M15.03 45.473h.619M16.22 44.902l-.095-.048M16.125 44.854l-.048-.048M16.077 44.806l-.047-.095M16.03 44.711v-.047M16.03 44.664l.047-.096M16.077 44.568l.048-.047M16.125 44.52l.095-.047M16.22 44.473h.19M16.41 44.473l.096.048M16.506 44.52l.048.048M16.554 44.568l.047.096M16.601 44.664v.047M16.601 44.711l-.047.095M16.554 44.806l-.048.048M16.506 44.854l-.095.048M16.41 44.902h-.19M16.22 44.902l-.095.047M16.125 44.95l-.048.047M16.077 44.997l-.047.095M16.03 45.092v.19M16.03 45.283l.047.095M16.077 45.378l.048.047M16.125 45.425l.095.048M16.22 45.473h.19M16.41 45.473l.096-.048M16.506 45.425l.048-.047M16.554 45.378l.047-.095M16.601 45.283v-.19M16.601 45.092l-.047-.095M16.554 44.997l-.048-.048M16.506 44.95l-.095-.048M16.792 45.568h.762M18.316 45.473h-.572M18.03 45.473v-1M18.03 44.473l-.096.143M17.935 44.616l-.096.095M17.84 44.711l-.096.048M18.744 45.378l.048.047M18.792 45.425l-.048.048M18.744 45.473l-.048-.048M18.696 45.425l.048-.047M18.744 45.378v.095M19.125 44.473h.619M19.744 44.473l-.333.381M19.41 44.854h.144M19.554 44.854l.095.048M19.649 44.902l.047.047M19.696 44.95l.048.094M19.744 45.045v.238M19.744 45.283l-.048.095M19.696 45.378l-.047.047M19.649 45.425l-.095.048M19.554 45.473h-.286M19.268 45.473l-.095-.048M19.173 45.425l-.048-.047M20.173 45.473v-.667M20.173 44.473l-.048.048M20.125 44.52l.048.048M20.173 44.568l.047-.047M20.22 44.52l-.047-.047M20.173 44.473v.095M20.649 44.806v.667M20.649 44.902l.047-.048M20.696 44.854l.096-.048M20.792 44.806h.142M20.935 44.806l.095.048M21.03 44.854l.047.095M21.077 44.95v.523M21.982 45.425l-.095.048M21.887 45.473h-.19M21.696 45.473l-.095-.048M21.601 45.425l-.047-.047M21.554 45.378l-.048-.095M21.506 45.283v-.286M21.506 44.997l.048-.095M21.554 44.902l.047-.048M21.601 44.854l.095-.048M21.696 44.806h.19M21.887 44.806l.095.048M22.41 45.473v-1M22.84 45.473v-.524M22.84 44.95l-.048-.096M22.792 44.854l-.096-.048M22.696 44.806h-.142M22.554 44.806l-.096.048M22.458 44.854l-.047.048M23.077 45.568h.762M24.077 45.473v-1M24.506 44.568l.048-.047M24.554 44.52l.095-.047M24.649 44.473h.238M24.887 44.473l.095.048M24.982 44.52l.048.048M25.03 44.568l.047.096M25.077 44.664v.095M25.077 44.759l-.047.143M25.03 44.902l-.572.571M24.458 45.473h.62M26.077 45.378l-.047.047M26.03 45.425l-.143.048M25.887 45.473h-.095M25.792 45.473l-.143-.048M25.649 45.425l-.095-.095M25.554 45.33l-.048-.095M25.506 45.235l-.048-.19M25.458 45.045v-.143M25.458 44.902l.048-.19M25.506 44.711l.048-.095M25.554 44.616l.095-.095M25.649 44.52l.143-.047M25.792 44.473h.095M25.887 44.473l.143.048M26.03 44.52l.047.048M26.268 45.568h.762M27.268 44.806v.667M27.268 44.902l.047-.048M27.316 44.854l.095-.048M27.41 44.806h.144M27.554 44.806l.095.048M27.649 44.854l.047.095M27.696 44.95v.523M28.125 45.425l.143.048M28.268 45.473h.238M28.506 45.473l.095-.048M28.601 45.425l.048-.047M28.649 45.378l.047-.095M28.696 45.283v-.096M28.696 45.187l-.047-.095M28.649 45.092l-.048-.047M28.601 45.045l-.095-.048M28.506 44.997l-.19-.048M28.316 44.95l-.096-.048M28.22 44.902l-.047-.048M28.173 44.854l-.048-.095M28.125 44.759v-.096M28.125 44.664l.048-.096M28.173 44.568l.047-.047M28.22 44.52l.096-.047M28.316 44.473h.238M28.554 44.473l.142.048M29.125 45.473v-.667M29.125 44.473l-.048.048M29.077 44.52l.048.048M29.125 44.568l.048-.047M29.173 44.52l-.048-.047M29.125 44.473v.095M29.744 45.473l-.095-.048M29.649 45.425l-.048-.095M29.601 45.33v-.857M30.125 45.473v-1M30.22 45.092l.286.381M30.506 44.806l-.381.381"/>
        </g>
        <g class="stroked-text">
            <path d="m14.077 46.973-.333-.476M13.506 46.973v-1M13.506 45.973h.38M13.887 45.973l.095.048M13.982 46.02l.048.048M14.03 46.068l.047.096M14.077 46.164v.142M14.077 46.306l-.047.096M14.03 46.402l-.048.047M13.982 46.45l-.095.047M13.887 46.497h-.381M14.506 46.45h.333M14.982 46.973h-.476M14.506 46.973v-1M14.506 45.973h.476M15.744 46.45h-.333M15.41 46.973v-1M15.41 45.973h.477M16.41 45.973v.238M16.173 46.116l.238.095M16.41 46.211l.239-.095M16.268 46.402l.143-.19M16.41 46.211l.144.19M17.173 45.973v.238M16.935 46.116l.238.095M17.173 46.211l.238-.095M17.03 46.402l.143-.19M17.173 46.211l.143.19"/>
        </g>
        <path d="M5.91 1.888h19v42h-19Z" style="stroke:#afafaf;stroke-width:.1;stroke-opacity:1;stroke-linecap:round;stroke-linejoin:round;fill:none"/>
        <path d="M6.86 6.388h17.1v35.8H6.86Z" style="stroke:#afafaf;stroke-width:.1;stroke-opacity:1;stroke-linecap:round;stroke-linejoin:round;fill:none"/>
    </g>
    <g style="fill:none;stroke:#afafaf;stroke-width:.1;stroke-opacity:1;stroke-linecap:round;stroke-linejoin:round">
        <path d="M7.76 7.588h1.1M9.26 7.588h1.1M10.76 7.588h1.1M12.26 7.588h1.1M13.76 7.588h1.1M15.26 7.588h1.1M16.76 7.588h1.1M18.26 7.588h1.1M19.76 7.588h1.1M21.26 7.588h1.1M22.76 7.588h.3M23.06 7.588v1.1M23.06 9.088v1.1M23.06 10.588v1.1M23.06 12.088v1.1M23.06 13.588v1.1M23.06 15.088v1.1M23.06 16.588v1.1M23.06 18.088v1.1M23.06 19.588v1.1M23.06 21.088v1.1M23.06 22.588v1.1M23.06 24.088v1.1M23.06 25.588v1.1M23.06 27.088v1.1M23.06 28.588v1.1M23.06 30.088v1.1M23.06 31.588v1.1M23.06 33.088v1.1M23.06 34.588v1.1M23.06 36.088v1.1"/>
    </g>
    <circle cx="23.061" cy="37.588" r=".05" style="fill:#afafaf;fill-opacity:1;stroke:none"/>
    <g style="fill:none;stroke:#afafaf;stroke-width:.1;stroke-opacity:1;stroke-linecap:round;stroke-linejoin:round">
        <path d="M23.06 37.588h-1.1M21.56 37.588h-1.1M20.06 37.588h-1.1M18.56 37.588h-1.1M17.06 37.588h-1.1M15.56 37.588h-1.1M14.06 37.588h-1.1M12.56 37.588h-1.1M11.06 37.588h-1.1M9.56 37.588h-1.1M8.06 37.588h-.3M7.76 37.588v-1.1M7.76 36.088v-1.1M7.76 34.588v-1.1M7.76 33.088v-1.1M7.76 31.588v-1.1M7.76 30.088v-1.1M7.76 28.588v-1.1M7.76 27.088v-1.1M7.76 25.588v-1.1M7.76 24.088v-1.1M7.76 22.588v-1.1M7.76 21.088v-1.1M7.76 19.588v-1.1M7.76 18.088v-1.1M7.76 16.588v-1.1M7.76 15.088v-1.1M7.76 13.588v-1.1M7.76 12.088v-1.1M7.76 10.588v-1.1M7.76 9.088v-1.1"/>
    </g>
    <circle cx="7.761" cy="7.588" r=".05" style="fill:#afafaf;fill-opacity:1;stroke:none"/>
    <g style="fill:none;stroke:#afafaf;stroke-width:.1;stroke-opacity:1;stroke-linecap:round;stroke-linejoin:round">
        <circle cx="7.911" cy="3.888" r="1.1"/>
        <circle cx="22.911" cy="3.888" r="1.1"/>
    </g>
    <g class="stroked-text" style="fill:none;stroke:#afafaf;stroke-width:.0472;stroke-opacity:1;stroke-linecap:round;stroke-linejoin:round">
        <path d="M11.763 3.648h-.324M11.6 3.648V3.08M11.6 3.081l-.053.081M11.547 3.162l-.054.054M11.493 3.216l-.054.027"/>
    </g>
    <circle cx="11.601" cy="3.388" r=".85" style="fill:none;stroke:#afafaf;stroke-width:.0212;stroke-opacity:1;stroke-linecap:round;stroke-linejoin:round"/>
    <g class="stroked-text" style="fill:none;stroke:#afafaf;stroke-width:.0472;stroke-opacity:1;stroke-linecap:round;stroke-linejoin:round">
        <path d="m13.979 3.135.027-.027M14.006 3.108l.054-.027M14.06 3.081h.135M14.195 3.081l.054.027M14.249 3.108l.027.027M14.276 3.135l.027.054M14.303 3.19v.053M14.303 3.243l-.027.081M14.276 3.324l-.324.324M13.952 3.648h.35"/>
    </g>
    <circle cx="14.141" cy="3.388" r=".85" style="fill:none;stroke:#afafaf;stroke-width:.0212;stroke-opacity:1;stroke-linecap:round;stroke-linejoin:round"/>
    <g class="stroked-text" style="fill:none;stroke:#afafaf;stroke-width:.0472;stroke-opacity:1;stroke-linecap:round;stroke-linejoin:round">
        <path d="M16.492 3.081h.35M16.843 3.081l-.19.216M16.654 3.297h.08M16.735 3.297l.054.027M16.789 3.324l.027.027M16.816 3.351l.027.054M16.843 3.405v.135M16.843 3.54l-.027.054M16.816 3.594l-.027.027M16.789 3.621l-.054.027M16.735 3.648h-.162M16.573 3.648l-.054-.027M16.519 3.621l-.027-.027"/>
    </g>
    <circle cx="16.681" cy="3.388" r=".85" style="fill:none;stroke:#afafaf;stroke-width:.0212;stroke-opacity:1;stroke-linecap:round;stroke-linejoin:round"/>
    <g class="stroked-text" style="fill:none;stroke:#afafaf;stroke-width:.0472;stroke-opacity:1;stroke-linecap:round;stroke-linejoin:round">
        <path d="M19.329 3.27v.378M19.194 3.054l-.135.405M19.059 3.46h.35"/>
    </g>
    <g style="fill:none;stroke:#afafaf;stroke-width:.0212;stroke-opacity:1;stroke-linecap:round;stroke-linejoin:round">
        <circle cx="19.221" cy="3.388" r=".85"/>
        <path d="M7.76 7.588h15.3v30H7.76Z" style="stroke:#c2c2c2;stroke-width:.05;stroke-opacity:1;stroke-linecap:round;stroke-linejoin:round;fill:none"/>
    </g>
</svg>
