<?xml version="1.0" standalone="no"?>
 <!DOCTYPE svg PUBLIC "-//W3C//DTD SVG 1.1//EN" 
 "http://www.w3.org/Graphics/SVG/1.1/DTD/svg11.dtd"> 
<svg
  xmlns:svg="http://www.w3.org/2000/svg"
  xmlns="http://www.w3.org/2000/svg"
  xmlns:xlink="http://www.w3.org/1999/xlink"
  version="1.1"
  width="39.7764mm" height="16.3322mm" viewBox="0.0000 0.0000 39.7764 16.3322">
<title>SVG Image created as OLED_SSD1306_128x32_0.91inch_I2C.svg date 2025/04/12 02:50:53 </title>
  <desc>Image generated by PCBNEW </desc>
<g style="fill:#000000; fill-opacity:1.0000;stroke:#000000; stroke-opacity:1.0000;
stroke-linecap:round; stroke-linejoin:round;"
 transform="translate(0 0) scale(1 1)">
</g>
<g style="fill:none; 
stroke:#F2EDA1; stroke-width:0.1500; stroke-opacity:1; 
stroke-linecap:round; stroke-linejoin:round;">
<text x="2.2679" y="1.3482"
textLength="4.5357" font-size="1.3333" lengthAdjust="spacingAndGlyphs"
text-anchor="middle" opacity="0" stroke-opacity="0">REF**</text>
<g class="stroked-text"><desc>REF**</desc>
<path d="M0.9345 1.3031
L0.6012 0.8269
" />
<path d="M0.3631 1.3031
L0.3631 0.3031
" />
<path d="M0.3631 0.3031
L0.7440 0.3031
" />
<path d="M0.7440 0.3031
L0.8393 0.3507
" />
<path d="M0.8393 0.3507
L0.8869 0.3983
" />
<path d="M0.8869 0.3983
L0.9345 0.4935
" />
<path d="M0.9345 0.4935
L0.9345 0.6364
" />
<path d="M0.9345 0.6364
L0.8869 0.7316
" />
<path d="M0.8869 0.7316
L0.8393 0.7793
" />
<path d="M0.8393 0.7793
L0.7440 0.8269
" />
<path d="M0.7440 0.8269
L0.3631 0.8269
" />
<path d="M1.3631 0.7793
L1.6964 0.7793
" />
<path d="M1.8393 1.3031
L1.3631 1.3031
" />
<path d="M1.3631 1.3031
L1.3631 0.3031
" />
<path d="M1.3631 0.3031
L1.8393 0.3031
" />
<path d="M2.6012 0.7793
L2.2679 0.7793
" />
<path d="M2.2679 1.3031
L2.2679 0.3031
" />
<path d="M2.2679 0.3031
L2.7440 0.3031
" />
<path d="M3.2679 0.3031
L3.2679 0.5412
" />
<path d="M3.0298 0.4459
L3.2679 0.5412
" />
<path d="M3.2679 0.5412
L3.5060 0.4459
" />
<path d="M3.1250 0.7316
L3.2679 0.5412
" />
<path d="M3.2679 0.5412
L3.4107 0.7316
" />
<path d="M4.0298 0.3031
L4.0298 0.5412
" />
<path d="M3.7917 0.4459
L4.0298 0.5412
" />
<path d="M4.0298 0.5412
L4.2679 0.4459
" />
<path d="M3.8869 0.7316
L4.0298 0.5412
" />
<path d="M4.0298 0.5412
L4.1726 0.7316
" />
</g></g>
<g style="fill:none; 
stroke:#F2EDA1; stroke-width:0.1200; stroke-opacity:1; 
stroke-linecap:round; stroke-linejoin:round;">
<g transform="rotate(-90.000000 1.4043 3.1342)">
<text x="1.4043" y="3.1342"
textLength="1.9257" font-size="0.8000" lengthAdjust="spacingAndGlyphs"
text-anchor="middle" opacity="0" stroke-opacity="0">SDA</text>
</g>
<g class="stroked-text"><desc>SDA</desc>
<path d="M1.2960 3.8628
L1.3246 3.7771
" />
<path d="M1.3246 3.7771
L1.3246 3.6342
" />
<path d="M1.3246 3.6342
L1.2960 3.5771
" />
<path d="M1.2960 3.5771
L1.2674 3.5485
" />
<path d="M1.2674 3.5485
L1.2103 3.5200
" />
<path d="M1.2103 3.5200
L1.1532 3.5200
" />
<path d="M1.1532 3.5200
L1.0960 3.5485
" />
<path d="M1.0960 3.5485
L1.0674 3.5771
" />
<path d="M1.0674 3.5771
L1.0389 3.6342
" />
<path d="M1.0389 3.6342
L1.0103 3.7485
" />
<path d="M1.0103 3.7485
L0.9817 3.8057
" />
<path d="M0.9817 3.8057
L0.9532 3.8342
" />
<path d="M0.9532 3.8342
L0.8960 3.8628
" />
<path d="M0.8960 3.8628
L0.8389 3.8628
" />
<path d="M0.8389 3.8628
L0.7817 3.8342
" />
<path d="M0.7817 3.8342
L0.7532 3.8057
" />
<path d="M0.7532 3.8057
L0.7246 3.7485
" />
<path d="M0.7246 3.7485
L0.7246 3.6057
" />
<path d="M0.7246 3.6057
L0.7532 3.5200
" />
<path d="M1.3246 3.2628
L0.7246 3.2628
" />
<path d="M0.7246 3.2628
L0.7246 3.1200
" />
<path d="M0.7246 3.1200
L0.7532 3.0342
" />
<path d="M0.7532 3.0342
L0.8103 2.9771
" />
<path d="M0.8103 2.9771
L0.8674 2.9485
" />
<path d="M0.8674 2.9485
L0.9817 2.9200
" />
<path d="M0.9817 2.9200
L1.0674 2.9200
" />
<path d="M1.0674 2.9200
L1.1817 2.9485
" />
<path d="M1.1817 2.9485
L1.2389 2.9771
" />
<path d="M1.2389 2.9771
L1.2960 3.0342
" />
<path d="M1.2960 3.0342
L1.3246 3.1200
" />
<path d="M1.3246 3.1200
L1.3246 3.2628
" />
<path d="M1.1532 2.6914
L1.1532 2.4057
" />
<path d="M1.3246 2.7485
L0.7246 2.5485
" />
<path d="M0.7246 2.5485
L1.3246 2.3485
" />
</g><g transform="rotate(-90.000000 1.4043 10.7542)">
<text x="1.4043" y="10.7542"
textLength="2.0686" font-size="0.8000" lengthAdjust="spacingAndGlyphs"
text-anchor="middle" opacity="0" stroke-opacity="0">GND</text>
</g>
<g class="stroked-text"><desc>GND</desc>
<path d="M0.7532 11.2114
L0.7246 11.2685
" />
<path d="M0.7246 11.2685
L0.7246 11.3542
" />
<path d="M0.7246 11.3542
L0.7532 11.4400
" />
<path d="M0.7532 11.4400
L0.8103 11.4971
" />
<path d="M0.8103 11.4971
L0.8674 11.5257
" />
<path d="M0.8674 11.5257
L0.9817 11.5542
" />
<path d="M0.9817 11.5542
L1.0674 11.5542
" />
<path d="M1.0674 11.5542
L1.1817 11.5257
" />
<path d="M1.1817 11.5257
L1.2389 11.4971
" />
<path d="M1.2389 11.4971
L1.2960 11.4400
" />
<path d="M1.2960 11.4400
L1.3246 11.3542
" />
<path d="M1.3246 11.3542
L1.3246 11.2971
" />
<path d="M1.3246 11.2971
L1.2960 11.2114
" />
<path d="M1.2960 11.2114
L1.2674 11.1828
" />
<path d="M1.2674 11.1828
L1.0674 11.1828
" />
<path d="M1.0674 11.1828
L1.0674 11.2971
" />
<path d="M1.3246 10.9257
L0.7246 10.9257
" />
<path d="M0.7246 10.9257
L1.3246 10.5828
" />
<path d="M1.3246 10.5828
L0.7246 10.5828
" />
<path d="M1.3246 10.2971
L0.7246 10.2971
" />
<path d="M0.7246 10.2971
L0.7246 10.1542
" />
<path d="M0.7246 10.1542
L0.7532 10.0685
" />
<path d="M0.7532 10.0685
L0.8103 10.0114
" />
<path d="M0.8103 10.0114
L0.8674 9.9828
" />
<path d="M0.8674 9.9828
L0.9817 9.9542
" />
<path d="M0.9817 9.9542
L1.0674 9.9542
" />
<path d="M1.0674 9.9542
L1.1817 9.9828
" />
<path d="M1.1817 9.9828
L1.2389 10.0114
" />
<path d="M1.2389 10.0114
L1.2960 10.0685
" />
<path d="M1.2960 10.0685
L1.3246 10.1542
" />
<path d="M1.3246 10.1542
L1.3246 10.2971
" />
</g><g transform="rotate(-90.000000 1.4043 5.6742)">
<text x="1.4043" y="5.6742"
textLength="1.8971" font-size="0.8000" lengthAdjust="spacingAndGlyphs"
text-anchor="middle" opacity="0" stroke-opacity="0">SCL</text>
</g>
<g class="stroked-text"><desc>SCL</desc>
<path d="M1.2960 6.3885
L1.3246 6.3028
" />
<path d="M1.3246 6.3028
L1.3246 6.1600
" />
<path d="M1.3246 6.1600
L1.2960 6.1028
" />
<path d="M1.2960 6.1028
L1.2674 6.0743
" />
<path d="M1.2674 6.0743
L1.2103 6.0457
" />
<path d="M1.2103 6.0457
L1.1532 6.0457
" />
<path d="M1.1532 6.0457
L1.0960 6.0743
" />
<path d="M1.0960 6.0743
L1.0674 6.1028
" />
<path d="M1.0674 6.1028
L1.0389 6.1600
" />
<path d="M1.0389 6.1600
L1.0103 6.2742
" />
<path d="M1.0103 6.2742
L0.9817 6.3314
" />
<path d="M0.9817 6.3314
L0.9532 6.3600
" />
<path d="M0.9532 6.3600
L0.8960 6.3885
" />
<path d="M0.8960 6.3885
L0.8389 6.3885
" />
<path d="M0.8389 6.3885
L0.7817 6.3600
" />
<path d="M0.7817 6.3600
L0.7532 6.3314
" />
<path d="M0.7532 6.3314
L0.7246 6.2742
" />
<path d="M0.7246 6.2742
L0.7246 6.1314
" />
<path d="M0.7246 6.1314
L0.7532 6.0457
" />
<path d="M1.2674 5.4457
L1.2960 5.4742
" />
<path d="M1.2960 5.4742
L1.3246 5.5600
" />
<path d="M1.3246 5.5600
L1.3246 5.6171
" />
<path d="M1.3246 5.6171
L1.2960 5.7028
" />
<path d="M1.2960 5.7028
L1.2389 5.7600
" />
<path d="M1.2389 5.7600
L1.1817 5.7885
" />
<path d="M1.1817 5.7885
L1.0674 5.8171
" />
<path d="M1.0674 5.8171
L0.9817 5.8171
" />
<path d="M0.9817 5.8171
L0.8674 5.7885
" />
<path d="M0.8674 5.7885
L0.8103 5.7600
" />
<path d="M0.8103 5.7600
L0.7532 5.7028
" />
<path d="M0.7532 5.7028
L0.7246 5.6171
" />
<path d="M0.7246 5.6171
L0.7246 5.5600
" />
<path d="M0.7246 5.5600
L0.7532 5.4742
" />
<path d="M0.7532 5.4742
L0.7817 5.4457
" />
<path d="M1.3246 4.9028
L1.3246 5.1885
" />
<path d="M1.3246 5.1885
L0.7246 5.1885
" />
</g><g transform="rotate(-90.000000 1.4043 8.2142)">
<text x="1.4043" y="8.2142"
textLength="1.9543" font-size="0.8000" lengthAdjust="spacingAndGlyphs"
text-anchor="middle" opacity="0" stroke-opacity="0">VCC</text>
</g>
<g class="stroked-text"><desc>VCC</desc>
<path d="M0.7246 9.0142
L1.3246 8.8142
" />
<path d="M1.3246 8.8142
L0.7246 8.6143
" />
<path d="M1.2674 8.0714
L1.2960 8.1000
" />
<path d="M1.2960 8.1000
L1.3246 8.1857
" />
<path d="M1.3246 8.1857
L1.3246 8.2428
" />
<path d="M1.3246 8.2428
L1.2960 8.3285
" />
<path d="M1.2960 8.3285
L1.2389 8.3857
" />
<path d="M1.2389 8.3857
L1.1817 8.4142
" />
<path d="M1.1817 8.4142
L1.0674 8.4428
" />
<path d="M1.0674 8.4428
L0.9817 8.4428
" />
<path d="M0.9817 8.4428
L0.8674 8.4142
" />
<path d="M0.8674 8.4142
L0.8103 8.3857
" />
<path d="M0.8103 8.3857
L0.7532 8.3285
" />
<path d="M0.7532 8.3285
L0.7246 8.2428
" />
<path d="M0.7246 8.2428
L0.7246 8.1857
" />
<path d="M0.7246 8.1857
L0.7532 8.1000
" />
<path d="M0.7532 8.1000
L0.7817 8.0714
" />
<path d="M1.2674 7.4714
L1.2960 7.5000
" />
<path d="M1.2960 7.5000
L1.3246 7.5857
" />
<path d="M1.3246 7.5857
L1.3246 7.6428
" />
<path d="M1.3246 7.6428
L1.2960 7.7285
" />
<path d="M1.2960 7.7285
L1.2389 7.7857
" />
<path d="M1.2389 7.7857
L1.1817 7.8142
" />
<path d="M1.1817 7.8142
L1.0674 7.8428
" />
<path d="M1.0674 7.8428
L0.9817 7.8428
" />
<path d="M0.9817 7.8428
L0.8674 7.8142
" />
<path d="M0.8674 7.8142
L0.8103 7.7857
" />
<path d="M0.8103 7.7857
L0.7532 7.7285
" />
<path d="M0.7532 7.7285
L0.7246 7.6428
" />
<path d="M0.7246 7.6428
L0.7246 7.5857
" />
<path d="M0.7246 7.5857
L0.7532 7.5000
" />
<path d="M0.7532 7.5000
L0.7817 7.4714
" />
</g><path style="fill:none; 
stroke:#F2EDA1; stroke-width:0.1200; stroke-opacity:1; 
stroke-linecap:round; stroke-linejoin:round;fill:none"
d="M 0.3509,1.8682
4.2879,1.8682
4.2879,4.4082
0.3509,4.4082
Z" /> 
<path style="fill:none; 
stroke:#F2EDA1; stroke-width:0.1200; stroke-opacity:1; 
stroke-linecap:round; stroke-linejoin:round;fill:none"
d="M 0.3509,4.4082
4.2879,4.4082
4.2879,6.9482
0.3509,6.9482
Z" /> 
<path style="fill:none; 
stroke:#F2EDA1; stroke-width:0.1200; stroke-opacity:1; 
stroke-linecap:round; stroke-linejoin:round;fill:none"
d="M 0.3509,6.9482
4.2879,6.9482
4.2879,9.4882
0.3509,9.4882
Z" /> 
<path style="fill:none; 
stroke:#F2EDA1; stroke-width:0.1200; stroke-opacity:1; 
stroke-linecap:round; stroke-linejoin:round;fill:none"
d="M 0.3509,9.4882
4.2879,9.4882
4.2879,12.0282
0.3509,12.0282
Z" /> 
<path style="fill:none; 
stroke:#F2EDA1; stroke-width:0.1200; stroke-opacity:1; 
stroke-linecap:round; stroke-linejoin:round;fill:none"
d="M 1.7479,1.8682
4.2879,1.8682
4.2879,12.0282
1.7479,12.0282
Z" /> 
</g>
<g style="fill:#C83434; fill-opacity:1.0000; stroke:none;">
<circle cx="3.0179" cy="3.1382" r="0.8500" /> 
</g>
<g style="fill:#C83434; fill-opacity:1.0000; stroke:none;">
<circle cx="3.0179" cy="5.6782" r="0.8500" /> 
</g>
<g style="fill:#C83434; fill-opacity:1.0000; stroke:none;">
<circle cx="3.0179" cy="8.2182" r="0.8500" /> 
</g>
<g style="fill:#C83434; fill-opacity:1.0000; stroke:none;">
<circle cx="3.0179" cy="10.7583" r="0.8500" /> 
</g>
<g style="fill:#4D7FC4; fill-opacity:1.0000; stroke:none;">
<circle cx="3.0179" cy="3.1382" r="0.8500" /> 
</g>
<g style="fill:#4D7FC4; fill-opacity:1.0000; stroke:none;">
<circle cx="3.0179" cy="5.6782" r="0.8500" /> 
</g>
<g style="fill:#4D7FC4; fill-opacity:1.0000; stroke:none;">
<circle cx="3.0179" cy="8.2182" r="0.8500" /> 
</g>
<g style="fill:#4D7FC4; fill-opacity:1.0000; stroke:none;">
<circle cx="3.0179" cy="10.7583" r="0.8500" /> 
</g>
<g style="fill:none; 
stroke:#AFAFAF; stroke-width:0.1500; stroke-opacity:1; 
stroke-linecap:round; stroke-linejoin:round;">
<text x="20.0479" y="14.4982"
textLength="28.2500" font-size="1.3333" lengthAdjust="spacingAndGlyphs"
text-anchor="middle" opacity="0" stroke-opacity="0">OLED_SSD1306_128x32_0.91inch_I2C</text>
<g class="stroked-text"><desc>OLED_SSD1306_128x32_0.91inch_I2C</desc>
<path d="M6.4764 13.4531
L6.6669 13.4531
" />
<path d="M6.6669 13.4531
L6.7621 13.5007
" />
<path d="M6.7621 13.5007
L6.8574 13.5959
" />
<path d="M6.8574 13.5959
L6.9050 13.7864
" />
<path d="M6.9050 13.7864
L6.9050 14.1197
" />
<path d="M6.9050 14.1197
L6.8574 14.3102
" />
<path d="M6.8574 14.3102
L6.7621 14.4055
" />
<path d="M6.7621 14.4055
L6.6669 14.4531
" />
<path d="M6.6669 14.4531
L6.4764 14.4531
" />
<path d="M6.4764 14.4531
L6.3812 14.4055
" />
<path d="M6.3812 14.4055
L6.2860 14.3102
" />
<path d="M6.2860 14.3102
L6.2383 14.1197
" />
<path d="M6.2383 14.1197
L6.2383 13.7864
" />
<path d="M6.2383 13.7864
L6.2860 13.5959
" />
<path d="M6.2860 13.5959
L6.3812 13.5007
" />
<path d="M6.3812 13.5007
L6.4764 13.4531
" />
<path d="M7.8098 14.4531
L7.3336 14.4531
" />
<path d="M7.3336 14.4531
L7.3336 13.4531
" />
<path d="M8.1431 13.9293
L8.4764 13.9293
" />
<path d="M8.6193 14.4531
L8.1431 14.4531
" />
<path d="M8.1431 14.4531
L8.1431 13.4531
" />
<path d="M8.1431 13.4531
L8.6193 13.4531
" />
<path d="M9.0479 14.4531
L9.0479 13.4531
" />
<path d="M9.0479 13.4531
L9.2860 13.4531
" />
<path d="M9.2860 13.4531
L9.4288 13.5007
" />
<path d="M9.4288 13.5007
L9.5240 13.5959
" />
<path d="M9.5240 13.5959
L9.5717 13.6912
" />
<path d="M9.5717 13.6912
L9.6193 13.8816
" />
<path d="M9.6193 13.8816
L9.6193 14.0245
" />
<path d="M9.6193 14.0245
L9.5717 14.2150
" />
<path d="M9.5717 14.2150
L9.5240 14.3102
" />
<path d="M9.5240 14.3102
L9.4288 14.4055
" />
<path d="M9.4288 14.4055
L9.2860 14.4531
" />
<path d="M9.2860 14.4531
L9.0479 14.4531
" />
<path d="M9.8098 14.5483
L10.5717 14.5483
" />
<path d="M10.7621 14.4055
L10.9050 14.4531
" />
<path d="M10.9050 14.4531
L11.1431 14.4531
" />
<path d="M11.1431 14.4531
L11.2383 14.4055
" />
<path d="M11.2383 14.4055
L11.2860 14.3578
" />
<path d="M11.2860 14.3578
L11.3336 14.2626
" />
<path d="M11.3336 14.2626
L11.3336 14.1674
" />
<path d="M11.3336 14.1674
L11.2860 14.0721
" />
<path d="M11.2860 14.0721
L11.2383 14.0245
" />
<path d="M11.2383 14.0245
L11.1431 13.9769
" />
<path d="M11.1431 13.9769
L10.9526 13.9293
" />
<path d="M10.9526 13.9293
L10.8574 13.8816
" />
<path d="M10.8574 13.8816
L10.8098 13.8340
" />
<path d="M10.8098 13.8340
L10.7621 13.7388
" />
<path d="M10.7621 13.7388
L10.7621 13.6435
" />
<path d="M10.7621 13.6435
L10.8098 13.5483
" />
<path d="M10.8098 13.5483
L10.8574 13.5007
" />
<path d="M10.8574 13.5007
L10.9526 13.4531
" />
<path d="M10.9526 13.4531
L11.1907 13.4531
" />
<path d="M11.1907 13.4531
L11.3336 13.5007
" />
<path d="M11.7145 14.4055
L11.8574 14.4531
" />
<path d="M11.8574 14.4531
L12.0955 14.4531
" />
<path d="M12.0955 14.4531
L12.1907 14.4055
" />
<path d="M12.1907 14.4055
L12.2383 14.3578
" />
<path d="M12.2383 14.3578
L12.2860 14.2626
" />
<path d="M12.2860 14.2626
L12.2860 14.1674
" />
<path d="M12.2860 14.1674
L12.2383 14.0721
" />
<path d="M12.2383 14.0721
L12.1907 14.0245
" />
<path d="M12.1907 14.0245
L12.0955 13.9769
" />
<path d="M12.0955 13.9769
L11.9050 13.9293
" />
<path d="M11.9050 13.9293
L11.8098 13.8816
" />
<path d="M11.8098 13.8816
L11.7621 13.8340
" />
<path d="M11.7621 13.8340
L11.7145 13.7388
" />
<path d="M11.7145 13.7388
L11.7145 13.6435
" />
<path d="M11.7145 13.6435
L11.7621 13.5483
" />
<path d="M11.7621 13.5483
L11.8098 13.5007
" />
<path d="M11.8098 13.5007
L11.9050 13.4531
" />
<path d="M11.9050 13.4531
L12.1431 13.4531
" />
<path d="M12.1431 13.4531
L12.2860 13.5007
" />
<path d="M12.7145 14.4531
L12.7145 13.4531
" />
<path d="M12.7145 13.4531
L12.9526 13.4531
" />
<path d="M12.9526 13.4531
L13.0955 13.5007
" />
<path d="M13.0955 13.5007
L13.1907 13.5959
" />
<path d="M13.1907 13.5959
L13.2383 13.6912
" />
<path d="M13.2383 13.6912
L13.2860 13.8816
" />
<path d="M13.2860 13.8816
L13.2860 14.0245
" />
<path d="M13.2860 14.0245
L13.2383 14.2150
" />
<path d="M13.2383 14.2150
L13.1907 14.3102
" />
<path d="M13.1907 14.3102
L13.0955 14.4055
" />
<path d="M13.0955 14.4055
L12.9526 14.4531
" />
<path d="M12.9526 14.4531
L12.7145 14.4531
" />
<path d="M14.2383 14.4531
L13.6669 14.4531
" />
<path d="M13.9526 14.4531
L13.9526 13.4531
" />
<path d="M13.9526 13.4531
L13.8574 13.5959
" />
<path d="M13.8574 13.5959
L13.7621 13.6912
" />
<path d="M13.7621 13.6912
L13.6669 13.7388
" />
<path d="M14.5717 13.4531
L15.1907 13.4531
" />
<path d="M15.1907 13.4531
L14.8574 13.8340
" />
<path d="M14.8574 13.8340
L15.0002 13.8340
" />
<path d="M15.0002 13.8340
L15.0955 13.8816
" />
<path d="M15.0955 13.8816
L15.1431 13.9293
" />
<path d="M15.1431 13.9293
L15.1907 14.0245
" />
<path d="M15.1907 14.0245
L15.1907 14.2626
" />
<path d="M15.1907 14.2626
L15.1431 14.3578
" />
<path d="M15.1431 14.3578
L15.0955 14.4055
" />
<path d="M15.0955 14.4055
L15.0002 14.4531
" />
<path d="M15.0002 14.4531
L14.7145 14.4531
" />
<path d="M14.7145 14.4531
L14.6193 14.4055
" />
<path d="M14.6193 14.4055
L14.5717 14.3578
" />
<path d="M15.8098 13.4531
L15.9050 13.4531
" />
<path d="M15.9050 13.4531
L16.0002 13.5007
" />
<path d="M16.0002 13.5007
L16.0479 13.5483
" />
<path d="M16.0479 13.5483
L16.0955 13.6435
" />
<path d="M16.0955 13.6435
L16.1431 13.8340
" />
<path d="M16.1431 13.8340
L16.1431 14.0721
" />
<path d="M16.1431 14.0721
L16.0955 14.2626
" />
<path d="M16.0955 14.2626
L16.0479 14.3578
" />
<path d="M16.0479 14.3578
L16.0002 14.4055
" />
<path d="M16.0002 14.4055
L15.9050 14.4531
" />
<path d="M15.9050 14.4531
L15.8098 14.4531
" />
<path d="M15.8098 14.4531
L15.7145 14.4055
" />
<path d="M15.7145 14.4055
L15.6669 14.3578
" />
<path d="M15.6669 14.3578
L15.6193 14.2626
" />
<path d="M15.6193 14.2626
L15.5717 14.0721
" />
<path d="M15.5717 14.0721
L15.5717 13.8340
" />
<path d="M15.5717 13.8340
L15.6193 13.6435
" />
<path d="M15.6193 13.6435
L15.6669 13.5483
" />
<path d="M15.6669 13.5483
L15.7145 13.5007
" />
<path d="M15.7145 13.5007
L15.8098 13.4531
" />
<path d="M17.0002 13.4531
L16.8098 13.4531
" />
<path d="M16.8098 13.4531
L16.7145 13.5007
" />
<path d="M16.7145 13.5007
L16.6669 13.5483
" />
<path d="M16.6669 13.5483
L16.5717 13.6912
" />
<path d="M16.5717 13.6912
L16.5240 13.8816
" />
<path d="M16.5240 13.8816
L16.5240 14.2626
" />
<path d="M16.5240 14.2626
L16.5717 14.3578
" />
<path d="M16.5717 14.3578
L16.6193 14.4055
" />
<path d="M16.6193 14.4055
L16.7145 14.4531
" />
<path d="M16.7145 14.4531
L16.9050 14.4531
" />
<path d="M16.9050 14.4531
L17.0002 14.4055
" />
<path d="M17.0002 14.4055
L17.0479 14.3578
" />
<path d="M17.0479 14.3578
L17.0955 14.2626
" />
<path d="M17.0955 14.2626
L17.0955 14.0245
" />
<path d="M17.0955 14.0245
L17.0479 13.9293
" />
<path d="M17.0479 13.9293
L17.0002 13.8816
" />
<path d="M17.0002 13.8816
L16.9050 13.8340
" />
<path d="M16.9050 13.8340
L16.7145 13.8340
" />
<path d="M16.7145 13.8340
L16.6193 13.8816
" />
<path d="M16.6193 13.8816
L16.5717 13.9293
" />
<path d="M16.5717 13.9293
L16.5240 14.0245
" />
<path d="M17.2860 14.5483
L18.0479 14.5483
" />
<path d="M18.8098 14.4531
L18.2383 14.4531
" />
<path d="M18.5240 14.4531
L18.5240 13.4531
" />
<path d="M18.5240 13.4531
L18.4288 13.5959
" />
<path d="M18.4288 13.5959
L18.3336 13.6912
" />
<path d="M18.3336 13.6912
L18.2383 13.7388
" />
<path d="M19.1907 13.5483
L19.2383 13.5007
" />
<path d="M19.2383 13.5007
L19.3336 13.4531
" />
<path d="M19.3336 13.4531
L19.5717 13.4531
" />
<path d="M19.5717 13.4531
L19.6669 13.5007
" />
<path d="M19.6669 13.5007
L19.7145 13.5483
" />
<path d="M19.7145 13.5483
L19.7621 13.6435
" />
<path d="M19.7621 13.6435
L19.7621 13.7388
" />
<path d="M19.7621 13.7388
L19.7145 13.8816
" />
<path d="M19.7145 13.8816
L19.1431 14.4531
" />
<path d="M19.1431 14.4531
L19.7621 14.4531
" />
<path d="M20.3336 13.8816
L20.2383 13.8340
" />
<path d="M20.2383 13.8340
L20.1907 13.7864
" />
<path d="M20.1907 13.7864
L20.1431 13.6912
" />
<path d="M20.1431 13.6912
L20.1431 13.6435
" />
<path d="M20.1431 13.6435
L20.1907 13.5483
" />
<path d="M20.1907 13.5483
L20.2383 13.5007
" />
<path d="M20.2383 13.5007
L20.3336 13.4531
" />
<path d="M20.3336 13.4531
L20.5240 13.4531
" />
<path d="M20.5240 13.4531
L20.6193 13.5007
" />
<path d="M20.6193 13.5007
L20.6669 13.5483
" />
<path d="M20.6669 13.5483
L20.7145 13.6435
" />
<path d="M20.7145 13.6435
L20.7145 13.6912
" />
<path d="M20.7145 13.6912
L20.6669 13.7864
" />
<path d="M20.6669 13.7864
L20.6193 13.8340
" />
<path d="M20.6193 13.8340
L20.5240 13.8816
" />
<path d="M20.5240 13.8816
L20.3336 13.8816
" />
<path d="M20.3336 13.8816
L20.2383 13.9293
" />
<path d="M20.2383 13.9293
L20.1907 13.9769
" />
<path d="M20.1907 13.9769
L20.1431 14.0721
" />
<path d="M20.1431 14.0721
L20.1431 14.2626
" />
<path d="M20.1431 14.2626
L20.1907 14.3578
" />
<path d="M20.1907 14.3578
L20.2383 14.4055
" />
<path d="M20.2383 14.4055
L20.3336 14.4531
" />
<path d="M20.3336 14.4531
L20.5240 14.4531
" />
<path d="M20.5240 14.4531
L20.6193 14.4055
" />
<path d="M20.6193 14.4055
L20.6669 14.3578
" />
<path d="M20.6669 14.3578
L20.7145 14.2626
" />
<path d="M20.7145 14.2626
L20.7145 14.0721
" />
<path d="M20.7145 14.0721
L20.6669 13.9769
" />
<path d="M20.6669 13.9769
L20.6193 13.9293
" />
<path d="M20.6193 13.9293
L20.5240 13.8816
" />
<path d="M21.0479 14.4531
L21.5717 13.7864
" />
<path d="M21.0479 13.7864
L21.5717 14.4531
" />
<path d="M21.8574 13.4531
L22.4764 13.4531
" />
<path d="M22.4764 13.4531
L22.1431 13.8340
" />
<path d="M22.1431 13.8340
L22.2860 13.8340
" />
<path d="M22.2860 13.8340
L22.3812 13.8816
" />
<path d="M22.3812 13.8816
L22.4288 13.9293
" />
<path d="M22.4288 13.9293
L22.4764 14.0245
" />
<path d="M22.4764 14.0245
L22.4764 14.2626
" />
<path d="M22.4764 14.2626
L22.4288 14.3578
" />
<path d="M22.4288 14.3578
L22.3812 14.4055
" />
<path d="M22.3812 14.4055
L22.2860 14.4531
" />
<path d="M22.2860 14.4531
L22.0002 14.4531
" />
<path d="M22.0002 14.4531
L21.9050 14.4055
" />
<path d="M21.9050 14.4055
L21.8574 14.3578
" />
<path d="M22.8574 13.5483
L22.9050 13.5007
" />
<path d="M22.9050 13.5007
L23.0002 13.4531
" />
<path d="M23.0002 13.4531
L23.2383 13.4531
" />
<path d="M23.2383 13.4531
L23.3336 13.5007
" />
<path d="M23.3336 13.5007
L23.3812 13.5483
" />
<path d="M23.3812 13.5483
L23.4288 13.6435
" />
<path d="M23.4288 13.6435
L23.4288 13.7388
" />
<path d="M23.4288 13.7388
L23.3812 13.8816
" />
<path d="M23.3812 13.8816
L22.8098 14.4531
" />
<path d="M22.8098 14.4531
L23.4288 14.4531
" />
<path d="M23.6193 14.5483
L24.3812 14.5483
" />
<path d="M24.8098 13.4531
L24.9050 13.4531
" />
<path d="M24.9050 13.4531
L25.0002 13.5007
" />
<path d="M25.0002 13.5007
L25.0479 13.5483
" />
<path d="M25.0479 13.5483
L25.0955 13.6435
" />
<path d="M25.0955 13.6435
L25.1431 13.8340
" />
<path d="M25.1431 13.8340
L25.1431 14.0721
" />
<path d="M25.1431 14.0721
L25.0955 14.2626
" />
<path d="M25.0955 14.2626
L25.0479 14.3578
" />
<path d="M25.0479 14.3578
L25.0002 14.4055
" />
<path d="M25.0002 14.4055
L24.9050 14.4531
" />
<path d="M24.9050 14.4531
L24.8098 14.4531
" />
<path d="M24.8098 14.4531
L24.7145 14.4055
" />
<path d="M24.7145 14.4055
L24.6669 14.3578
" />
<path d="M24.6669 14.3578
L24.6193 14.2626
" />
<path d="M24.6193 14.2626
L24.5717 14.0721
" />
<path d="M24.5717 14.0721
L24.5717 13.8340
" />
<path d="M24.5717 13.8340
L24.6193 13.6435
" />
<path d="M24.6193 13.6435
L24.6669 13.5483
" />
<path d="M24.6669 13.5483
L24.7145 13.5007
" />
<path d="M24.7145 13.5007
L24.8098 13.4531
" />
<path d="M25.5717 14.3578
L25.6193 14.4055
" />
<path d="M25.6193 14.4055
L25.5717 14.4531
" />
<path d="M25.5717 14.4531
L25.5240 14.4055
" />
<path d="M25.5240 14.4055
L25.5717 14.3578
" />
<path d="M25.5717 14.3578
L25.5717 14.4531
" />
<path d="M26.0955 14.4531
L26.2860 14.4531
" />
<path d="M26.2860 14.4531
L26.3812 14.4055
" />
<path d="M26.3812 14.4055
L26.4288 14.3578
" />
<path d="M26.4288 14.3578
L26.5240 14.2150
" />
<path d="M26.5240 14.2150
L26.5717 14.0245
" />
<path d="M26.5717 14.0245
L26.5717 13.6435
" />
<path d="M26.5717 13.6435
L26.5240 13.5483
" />
<path d="M26.5240 13.5483
L26.4764 13.5007
" />
<path d="M26.4764 13.5007
L26.3812 13.4531
" />
<path d="M26.3812 13.4531
L26.1907 13.4531
" />
<path d="M26.1907 13.4531
L26.0955 13.5007
" />
<path d="M26.0955 13.5007
L26.0479 13.5483
" />
<path d="M26.0479 13.5483
L26.0002 13.6435
" />
<path d="M26.0002 13.6435
L26.0002 13.8816
" />
<path d="M26.0002 13.8816
L26.0479 13.9769
" />
<path d="M26.0479 13.9769
L26.0955 14.0245
" />
<path d="M26.0955 14.0245
L26.1907 14.0721
" />
<path d="M26.1907 14.0721
L26.3812 14.0721
" />
<path d="M26.3812 14.0721
L26.4764 14.0245
" />
<path d="M26.4764 14.0245
L26.5240 13.9769
" />
<path d="M26.5240 13.9769
L26.5717 13.8816
" />
<path d="M27.5240 14.4531
L26.9526 14.4531
" />
<path d="M27.2383 14.4531
L27.2383 13.4531
" />
<path d="M27.2383 13.4531
L27.1431 13.5959
" />
<path d="M27.1431 13.5959
L27.0479 13.6912
" />
<path d="M27.0479 13.6912
L26.9526 13.7388
" />
<path d="M27.9526 14.4531
L27.9526 13.7864
" />
<path d="M27.9526 13.4531
L27.9050 13.5007
" />
<path d="M27.9050 13.5007
L27.9526 13.5483
" />
<path d="M27.9526 13.5483
L28.0002 13.5007
" />
<path d="M28.0002 13.5007
L27.9526 13.4531
" />
<path d="M27.9526 13.4531
L27.9526 13.5483
" />
<path d="M28.4288 13.7864
L28.4288 14.4531
" />
<path d="M28.4288 13.8816
L28.4764 13.8340
" />
<path d="M28.4764 13.8340
L28.5717 13.7864
" />
<path d="M28.5717 13.7864
L28.7145 13.7864
" />
<path d="M28.7145 13.7864
L28.8098 13.8340
" />
<path d="M28.8098 13.8340
L28.8574 13.9293
" />
<path d="M28.8574 13.9293
L28.8574 14.4531
" />
<path d="M29.7621 14.4055
L29.6669 14.4531
" />
<path d="M29.6669 14.4531
L29.4764 14.4531
" />
<path d="M29.4764 14.4531
L29.3812 14.4055
" />
<path d="M29.3812 14.4055
L29.3336 14.3578
" />
<path d="M29.3336 14.3578
L29.2860 14.2626
" />
<path d="M29.2860 14.2626
L29.2860 13.9769
" />
<path d="M29.2860 13.9769
L29.3336 13.8816
" />
<path d="M29.3336 13.8816
L29.3812 13.8340
" />
<path d="M29.3812 13.8340
L29.4764 13.7864
" />
<path d="M29.4764 13.7864
L29.6669 13.7864
" />
<path d="M29.6669 13.7864
L29.7621 13.8340
" />
<path d="M30.1907 14.4531
L30.1907 13.4531
" />
<path d="M30.6193 14.4531
L30.6193 13.9293
" />
<path d="M30.6193 13.9293
L30.5717 13.8340
" />
<path d="M30.5717 13.8340
L30.4764 13.7864
" />
<path d="M30.4764 13.7864
L30.3336 13.7864
" />
<path d="M30.3336 13.7864
L30.2383 13.8340
" />
<path d="M30.2383 13.8340
L30.1907 13.8816
" />
<path d="M30.8574 14.5483
L31.6193 14.5483
" />
<path d="M31.8574 14.4531
L31.8574 13.4531
" />
<path d="M32.2860 13.5483
L32.3336 13.5007
" />
<path d="M32.3336 13.5007
L32.4288 13.4531
" />
<path d="M32.4288 13.4531
L32.6669 13.4531
" />
<path d="M32.6669 13.4531
L32.7621 13.5007
" />
<path d="M32.7621 13.5007
L32.8098 13.5483
" />
<path d="M32.8098 13.5483
L32.8574 13.6435
" />
<path d="M32.8574 13.6435
L32.8574 13.7388
" />
<path d="M32.8574 13.7388
L32.8098 13.8816
" />
<path d="M32.8098 13.8816
L32.2383 14.4531
" />
<path d="M32.2383 14.4531
L32.8574 14.4531
" />
<path d="M33.8574 14.3578
L33.8098 14.4055
" />
<path d="M33.8098 14.4055
L33.6669 14.4531
" />
<path d="M33.6669 14.4531
L33.5717 14.4531
" />
<path d="M33.5717 14.4531
L33.4288 14.4055
" />
<path d="M33.4288 14.4055
L33.3336 14.3102
" />
<path d="M33.3336 14.3102
L33.2860 14.2150
" />
<path d="M33.2860 14.2150
L33.2383 14.0245
" />
<path d="M33.2383 14.0245
L33.2383 13.8816
" />
<path d="M33.2383 13.8816
L33.2860 13.6912
" />
<path d="M33.2860 13.6912
L33.3336 13.5959
" />
<path d="M33.3336 13.5959
L33.4288 13.5007
" />
<path d="M33.4288 13.5007
L33.5717 13.4531
" />
<path d="M33.5717 13.4531
L33.6669 13.4531
" />
<path d="M33.6669 13.4531
L33.8098 13.5007
" />
<path d="M33.8098 13.5007
L33.8574 13.5483
" />
</g><text x="20.0479" y="15.9982"
textLength="4.5357" font-size="1.3333" lengthAdjust="spacingAndGlyphs"
text-anchor="middle" opacity="0" stroke-opacity="0">REF**</text>
<g class="stroked-text"><desc>REF**</desc>
<path d="M18.7145 15.9531
L18.3812 15.4769
" />
<path d="M18.1431 15.9531
L18.1431 14.9531
" />
<path d="M18.1431 14.9531
L18.5240 14.9531
" />
<path d="M18.5240 14.9531
L18.6193 15.0007
" />
<path d="M18.6193 15.0007
L18.6669 15.0483
" />
<path d="M18.6669 15.0483
L18.7145 15.1435
" />
<path d="M18.7145 15.1435
L18.7145 15.2864
" />
<path d="M18.7145 15.2864
L18.6669 15.3816
" />
<path d="M18.6669 15.3816
L18.6193 15.4293
" />
<path d="M18.6193 15.4293
L18.5240 15.4769
" />
<path d="M18.5240 15.4769
L18.1431 15.4769
" />
<path d="M19.1431 15.4293
L19.4764 15.4293
" />
<path d="M19.6193 15.9531
L19.1431 15.9531
" />
<path d="M19.1431 15.9531
L19.1431 14.9531
" />
<path d="M19.1431 14.9531
L19.6193 14.9531
" />
<path d="M20.3812 15.4293
L20.0479 15.4293
" />
<path d="M20.0479 15.9531
L20.0479 14.9531
" />
<path d="M20.0479 14.9531
L20.5240 14.9531
" />
<path d="M21.0479 14.9531
L21.0479 15.1912
" />
<path d="M20.8098 15.0959
L21.0479 15.1912
" />
<path d="M21.0479 15.1912
L21.2860 15.0959
" />
<path d="M20.9050 15.3816
L21.0479 15.1912
" />
<path d="M21.0479 15.1912
L21.1907 15.3816
" />
<path d="M21.8098 14.9531
L21.8098 15.1912
" />
<path d="M21.5717 15.0959
L21.8098 15.1912
" />
<path d="M21.8098 15.1912
L22.0479 15.0959
" />
<path d="M21.6669 15.3816
L21.8098 15.1912
" />
<path d="M21.8098 15.1912
L21.9526 15.3816
" />
</g><path style="fill:none; 
stroke:#AFAFAF; stroke-width:0.1000; stroke-opacity:1; 
stroke-linecap:round; stroke-linejoin:round;fill:none"
d="M 1.7479,0.9482
39.7479,0.9482
39.7479,12.9482
1.7479,12.9482
Z" /> 
<path style="fill:none; 
stroke:#AFAFAF; stroke-width:0.1000; stroke-opacity:1; 
stroke-linecap:round; stroke-linejoin:round;fill:none"
d="M 6.7479,1.4483
36.7479,1.4483
36.7479,12.9482
6.7479,12.9482
Z" /> 
</g>
<g style="fill:none; 
stroke:#AFAFAF; stroke-width:0.1000; stroke-opacity:1; 
stroke-linecap:round; stroke-linejoin:round;">
<path d="M7.8579 3.4082
L8.9579 3.4082
" />
<path d="M9.3579 3.4082
L10.4579 3.4082
" />
<path d="M10.8579 3.4082
L11.9579 3.4082
" />
<path d="M12.3579 3.4082
L13.4579 3.4082
" />
<path d="M13.8579 3.4082
L14.9579 3.4082
" />
<path d="M15.3579 3.4082
L16.4579 3.4082
" />
<path d="M16.8579 3.4082
L17.9579 3.4082
" />
<path d="M18.3579 3.4082
L19.4579 3.4082
" />
<path d="M19.8579 3.4082
L20.9579 3.4082
" />
<path d="M21.3579 3.4082
L22.4579 3.4082
" />
<path d="M22.8579 3.4082
L23.9579 3.4082
" />
<path d="M24.3579 3.4082
L25.4579 3.4082
" />
<path d="M25.8579 3.4082
L26.9579 3.4082
" />
<path d="M27.3579 3.4082
L28.4579 3.4082
" />
<path d="M28.8579 3.4082
L29.9579 3.4082
" />
<path d="M30.3579 3.4082
L31.4579 3.4082
" />
<path d="M31.8579 3.4082
L32.2379 3.4082
" />
<path d="M32.2379 3.4082
L32.2379 4.5082
" />
<path d="M32.2379 4.9082
L32.2379 6.0082
" />
<path d="M32.2379 6.4082
L32.2379 7.5082
" />
<path d="M32.2379 7.9082
L32.2379 9.0083
" />
<path d="M32.2379 9.4082
L32.2379 10.5083
" />
<path d="M32.2379 10.9082
L32.2379 10.9882
" />
<path d="M32.2379 10.9882
L31.1379 10.9882
" />
<path d="M30.7379 10.9882
L29.6379 10.9882
" />
<path d="M29.2379 10.9882
L28.1379 10.9882
" />
<path d="M27.7379 10.9882
L26.6379 10.9882
" />
<path d="M26.2379 10.9882
L25.1379 10.9882
" />
<path d="M24.7379 10.9882
L23.6379 10.9882
" />
<path d="M23.2379 10.9882
L22.1379 10.9882
" />
<path d="M21.7379 10.9882
L20.6379 10.9882
" />
<path d="M20.2379 10.9882
L19.1379 10.9882
" />
<path d="M18.7379 10.9882
L17.6379 10.9882
" />
<path d="M17.2379 10.9882
L16.1379 10.9882
" />
<path d="M15.7379 10.9882
L14.6379 10.9882
" />
<path d="M14.2379 10.9882
L13.1379 10.9882
" />
<path d="M12.7379 10.9882
L11.6379 10.9882
" />
<path d="M11.2379 10.9882
L10.1379 10.9882
" />
<path d="M9.7379 10.9882
L8.6379 10.9882
" />
<path d="M8.2379 10.9882
L7.8579 10.9882
" />
<path d="M7.8579 10.9882
L7.8579 9.8882
" />
<path d="M7.8579 9.4882
L7.8579 8.3882
" />
<path d="M7.8579 7.9882
L7.8579 6.8882
" />
<path d="M7.8579 6.4882
L7.8579 5.3882
" />
<path d="M7.8579 4.9882
L7.8579 3.8882
" />
<path d="M7.8579 3.4882
L7.8579 3.4082
" />
</g>
<g style="fill:none; 
stroke:#AFAFAF; stroke-width:0.0472; stroke-opacity:1; 
stroke-linecap:round; stroke-linejoin:round;">
<text x="3.0179" y="3.4216"
textLength="0.5680" font-size="0.7556" lengthAdjust="spacingAndGlyphs"
text-anchor="middle" opacity="0" stroke-opacity="0">1</text>
<g class="stroked-text"><desc>1</desc>
<path d="M3.1798 3.3979
L2.8560 3.3979
" />
<path d="M3.0179 3.3979
L3.0179 2.8313
" />
<path d="M3.0179 2.8313
L2.9639 2.9122
" />
<path d="M2.9639 2.9122
L2.9099 2.9662
" />
<path d="M2.9099 2.9662
L2.8560 2.9932
" />
</g></g>
<g style="fill:none; 
stroke:#AFAFAF; stroke-width:0.0212; stroke-opacity:1; 
stroke-linecap:round; stroke-linejoin:round;">
<circle cx="3.0179" cy="3.1382" r="0.8500" /> 
</g>
<g style="fill:none; 
stroke:#AFAFAF; stroke-width:0.0472; stroke-opacity:1; 
stroke-linecap:round; stroke-linejoin:round;">
<text x="3.0179" y="5.9616"
textLength="0.5680" font-size="0.7556" lengthAdjust="spacingAndGlyphs"
text-anchor="middle" opacity="0" stroke-opacity="0">2</text>
<g class="stroked-text"><desc>2</desc>
<path d="M2.8560 5.4252
L2.8829 5.3983
" />
<path d="M2.8829 5.3983
L2.9369 5.3713
" />
<path d="M2.9369 5.3713
L3.0718 5.3713
" />
<path d="M3.0718 5.3713
L3.1258 5.3983
" />
<path d="M3.1258 5.3983
L3.1528 5.4252
" />
<path d="M3.1528 5.4252
L3.1798 5.4792
" />
<path d="M3.1798 5.4792
L3.1798 5.5332
" />
<path d="M3.1798 5.5332
L3.1528 5.6141
" />
<path d="M3.1528 5.6141
L2.8290 5.9379
" />
<path d="M2.8290 5.9379
L3.1798 5.9379
" />
</g></g>
<g style="fill:none; 
stroke:#AFAFAF; stroke-width:0.0212; stroke-opacity:1; 
stroke-linecap:round; stroke-linejoin:round;">
<circle cx="3.0179" cy="5.6782" r="0.8500" /> 
</g>
<g style="fill:none; 
stroke:#AFAFAF; stroke-width:0.0472; stroke-opacity:1; 
stroke-linecap:round; stroke-linejoin:round;">
<text x="3.0179" y="8.5016"
textLength="0.5680" font-size="0.7556" lengthAdjust="spacingAndGlyphs"
text-anchor="middle" opacity="0" stroke-opacity="0">3</text>
<g class="stroked-text"><desc>3</desc>
<path d="M2.8290 7.9113
L3.1798 7.9113
" />
<path d="M3.1798 7.9113
L2.9909 8.1272
" />
<path d="M2.9909 8.1272
L3.0718 8.1272
" />
<path d="M3.0718 8.1272
L3.1258 8.1541
" />
<path d="M3.1258 8.1541
L3.1528 8.1811
" />
<path d="M3.1528 8.1811
L3.1798 8.2351
" />
<path d="M3.1798 8.2351
L3.1798 8.3700
" />
<path d="M3.1798 8.3700
L3.1528 8.4240
" />
<path d="M3.1528 8.4240
L3.1258 8.4510
" />
<path d="M3.1258 8.4510
L3.0718 8.4779
" />
<path d="M3.0718 8.4779
L2.9099 8.4779
" />
<path d="M2.9099 8.4779
L2.8560 8.4510
" />
<path d="M2.8560 8.4510
L2.8290 8.4240
" />
</g></g>
<g style="fill:none; 
stroke:#AFAFAF; stroke-width:0.0212; stroke-opacity:1; 
stroke-linecap:round; stroke-linejoin:round;">
<circle cx="3.0179" cy="8.2182" r="0.8500" /> 
</g>
<g style="fill:none; 
stroke:#AFAFAF; stroke-width:0.0472; stroke-opacity:1; 
stroke-linecap:round; stroke-linejoin:round;">
<text x="3.0179" y="11.0416"
textLength="0.5680" font-size="0.7556" lengthAdjust="spacingAndGlyphs"
text-anchor="middle" opacity="0" stroke-opacity="0">4</text>
<g class="stroked-text"><desc>4</desc>
<path d="M3.1258 10.6402
L3.1258 11.0179
" />
<path d="M2.9909 10.4243
L2.8560 10.8291
" />
<path d="M2.8560 10.8291
L3.2067 10.8291
" />
</g></g>
<g style="fill:none; 
stroke:#AFAFAF; stroke-width:0.0212; stroke-opacity:1; 
stroke-linecap:round; stroke-linejoin:round;">
<circle cx="3.0179" cy="10.7583" r="0.8500" /> 
</g>
<g style="fill:none; 
stroke:#585D84; stroke-width:0.0472; stroke-opacity:1; 
stroke-linecap:round; stroke-linejoin:round;">
<text x="3.0179" y="3.4216"
textLength="0.5680" font-size="0.7556" lengthAdjust="spacingAndGlyphs"
text-anchor="middle" opacity="0" stroke-opacity="0">1</text>
<g class="stroked-text"><desc>1</desc>
<path d="M3.1798 3.3979
L2.8560 3.3979
" />
<path d="M3.0179 3.3979
L3.0179 2.8313
" />
<path d="M3.0179 2.8313
L2.9639 2.9122
" />
<path d="M2.9639 2.9122
L2.9099 2.9662
" />
<path d="M2.9099 2.9662
L2.8560 2.9932
" />
</g></g>
<g style="fill:none; 
stroke:#585D84; stroke-width:0.0212; stroke-opacity:1; 
stroke-linecap:round; stroke-linejoin:round;">
<circle cx="3.0179" cy="3.1382" r="0.8500" /> 
</g>
<g style="fill:none; 
stroke:#585D84; stroke-width:0.0472; stroke-opacity:1; 
stroke-linecap:round; stroke-linejoin:round;">
<text x="3.0179" y="5.9616"
textLength="0.5680" font-size="0.7556" lengthAdjust="spacingAndGlyphs"
text-anchor="middle" opacity="0" stroke-opacity="0">2</text>
<g class="stroked-text"><desc>2</desc>
<path d="M2.8560 5.4252
L2.8829 5.3983
" />
<path d="M2.8829 5.3983
L2.9369 5.3713
" />
<path d="M2.9369 5.3713
L3.0718 5.3713
" />
<path d="M3.0718 5.3713
L3.1258 5.3983
" />
<path d="M3.1258 5.3983
L3.1528 5.4252
" />
<path d="M3.1528 5.4252
L3.1798 5.4792
" />
<path d="M3.1798 5.4792
L3.1798 5.5332
" />
<path d="M3.1798 5.5332
L3.1528 5.6141
" />
<path d="M3.1528 5.6141
L2.8290 5.9379
" />
<path d="M2.8290 5.9379
L3.1798 5.9379
" />
</g></g>
<g style="fill:none; 
stroke:#585D84; stroke-width:0.0212; stroke-opacity:1; 
stroke-linecap:round; stroke-linejoin:round;">
<circle cx="3.0179" cy="5.6782" r="0.8500" /> 
</g>
<g style="fill:none; 
stroke:#585D84; stroke-width:0.0472; stroke-opacity:1; 
stroke-linecap:round; stroke-linejoin:round;">
<text x="3.0179" y="8.5016"
textLength="0.5680" font-size="0.7556" lengthAdjust="spacingAndGlyphs"
text-anchor="middle" opacity="0" stroke-opacity="0">3</text>
<g class="stroked-text"><desc>3</desc>
<path d="M2.8290 7.9113
L3.1798 7.9113
" />
<path d="M3.1798 7.9113
L2.9909 8.1272
" />
<path d="M2.9909 8.1272
L3.0718 8.1272
" />
<path d="M3.0718 8.1272
L3.1258 8.1541
" />
<path d="M3.1258 8.1541
L3.1528 8.1811
" />
<path d="M3.1528 8.1811
L3.1798 8.2351
" />
<path d="M3.1798 8.2351
L3.1798 8.3700
" />
<path d="M3.1798 8.3700
L3.1528 8.4240
" />
<path d="M3.1528 8.4240
L3.1258 8.4510
" />
<path d="M3.1258 8.4510
L3.0718 8.4779
" />
<path d="M3.0718 8.4779
L2.9099 8.4779
" />
<path d="M2.9099 8.4779
L2.8560 8.4510
" />
<path d="M2.8560 8.4510
L2.8290 8.4240
" />
</g></g>
<g style="fill:none; 
stroke:#585D84; stroke-width:0.0212; stroke-opacity:1; 
stroke-linecap:round; stroke-linejoin:round;">
<circle cx="3.0179" cy="8.2182" r="0.8500" /> 
</g>
<g style="fill:none; 
stroke:#585D84; stroke-width:0.0472; stroke-opacity:1; 
stroke-linecap:round; stroke-linejoin:round;">
<text x="3.0179" y="11.0416"
textLength="0.5680" font-size="0.7556" lengthAdjust="spacingAndGlyphs"
text-anchor="middle" opacity="0" stroke-opacity="0">4</text>
<g class="stroked-text"><desc>4</desc>
<path d="M3.1258 10.6402
L3.1258 11.0179
" />
<path d="M2.9909 10.4243
L2.8560 10.8291
" />
<path d="M2.8560 10.8291
L3.2067 10.8291
" />
</g></g>
<g style="fill:none; 
stroke:#585D84; stroke-width:0.0212; stroke-opacity:1; 
stroke-linecap:round; stroke-linejoin:round;">
<circle cx="3.0179" cy="10.7583" r="0.8500" /> 
<path style="fill:none; 
stroke:#C2C2C2; stroke-width:0.0500; stroke-opacity:1; 
stroke-linecap:round; stroke-linejoin:round;fill:none"
d="M 7.8579,3.4082
32.2379,3.4082
32.2379,10.9882
7.8579,10.9882
Z" /> 
</g> 
</svg>
