<svg xmlns="http://www.w3.org/2000/svg" width="150.336" height="61.728" viewBox="0 0 39.776 16.332">
    <g class="stroked-text" style="fill:none;stroke:#f2eda1;stroke-width:.15;stroke-opacity:1;stroke-linecap:round;stroke-linejoin:round">
        <path d="M.935 1.303.6.827M.363 1.303v-1M.363.303h.381M.744.303l.095.048M.84.35l.047.048M.887.398l.047.095M.935.494v.142M.935.636.887.732M.887.732.839.779M.84.78.743.826M.744.827h-.38M1.363.78h.333M1.84 1.303h-.477M1.363 1.303v-1M1.363.303h.476M2.601.78h-.333M2.268 1.303v-1M2.268.303h.476M3.268.303v.238M3.03.446l.238.095M3.268.541l.238-.095M3.125.732l.143-.19M3.268.541l.143.19M4.03.303v.238M3.792.446 4.03.54M4.03.541l.238-.095M3.887.732l.143-.19M4.03.541l.143.19"/>
    </g>
    <g style="fill:none;stroke:#f2eda1;stroke-width:.12;stroke-opacity:1;stroke-linecap:round;stroke-linejoin:round">
        <g class="stroked-text">
            <path d="m1.296 3.863.029-.086M1.325 3.777v-.143M1.325 3.634l-.029-.057M1.296 3.577l-.029-.028M1.267 3.549 1.21 3.52M1.21 3.52h-.057M1.153 3.52l-.057.029M1.096 3.549l-.029.028M1.067 3.577l-.028.057M1.039 3.634l-.029.115M1.01 3.749l-.028.057M.982 3.806l-.029.028M.953 3.834l-.057.029M.896 3.863H.839M.839 3.863l-.057-.029M.782 3.834l-.029-.028M.753 3.806l-.028-.058M.725 3.749v-.143M.725 3.606l.028-.086M1.325 3.263h-.6M.725 3.263V3.12M.725 3.12l.028-.086M.753 3.034l.057-.057M.81 2.977l.057-.028M.867 2.949l.115-.029M.982 2.92h.085M1.067 2.92l.115.029M1.182 2.949l.057.028M1.239 2.977l.057.057M1.296 3.034l.029.086M1.325 3.12v.143M1.153 2.691v-.285M1.325 2.749l-.6-.2M.725 2.549l.6-.2"/>
        </g>
        <g class="stroked-text">
            <path d="m.753 11.211-.028.057M.725 11.269v.085M.725 11.354l.028.086M.753 11.44l.057.057M.81 11.497l.057.029M.867 11.526l.115.028M.982 11.554h.085M1.067 11.554l.115-.028M1.182 11.526l.057-.029M1.239 11.497l.057-.057M1.296 11.44l.029-.086M1.325 11.354v-.057M1.325 11.297l-.029-.086M1.296 11.211l-.029-.028M1.267 11.183h-.2M1.067 11.183v.114M1.325 10.926h-.6M.725 10.926l.6-.343M1.325 10.583h-.6M1.325 10.297h-.6M.725 10.297v-.143M.725 10.154l.028-.085M.753 10.069l.057-.058M.81 10.011l.057-.028M.867 9.983l.115-.029M.982 9.954h.085M1.067 9.954l.115.029M1.182 9.983l.057.028M1.239 10.011l.057.058M1.296 10.069l.029.085M1.325 10.154v.143"/>
        </g>
        <g class="stroked-text">
            <path d="m1.296 6.389.029-.086M1.325 6.303V6.16M1.325 6.16l-.029-.057M1.296 6.103l-.029-.029M1.267 6.074l-.057-.028M1.21 6.046h-.057M1.153 6.046l-.057.028M1.096 6.074l-.029.029M1.067 6.103l-.028.057M1.039 6.16l-.029.114M1.01 6.274l-.028.057M.982 6.331l-.029.029M.953 6.36l-.057.028M.896 6.389H.839M.839 6.389.782 6.36M.782 6.36l-.029-.029M.753 6.331l-.028-.057M.725 6.274v-.143M.725 6.131l.028-.085M1.267 5.446l.029.028M1.296 5.474l.029.086M1.325 5.56v.057M1.325 5.617l-.029.086M1.296 5.703l-.057.057M1.239 5.76l-.057.029M1.182 5.789l-.115.028M1.067 5.817H.982M.982 5.817l-.115-.029M.867 5.789.81 5.76M.81 5.76l-.057-.057M.753 5.703l-.028-.086M.725 5.617V5.56M.725 5.56l.028-.086M.753 5.474l.029-.028M1.325 4.903v.286M1.325 5.189h-.6"/>
        </g>
        <g class="stroked-text">
            <path d="m.725 9.014.6-.2M1.325 8.814l-.6-.2M1.267 8.071l.029.029M1.296 8.1l.029.086M1.325 8.186v.057M1.325 8.243l-.029.085M1.296 8.329l-.057.057M1.239 8.386l-.057.028M1.182 8.414l-.115.029M1.067 8.443H.982M.982 8.443l-.115-.029M.867 8.414.81 8.386M.81 8.386l-.057-.057M.753 8.329l-.028-.086M.725 8.243v-.057M.725 8.186.753 8.1M.753 8.1l.029-.029M1.267 7.471l.029.029M1.296 7.5l.029.086M1.325 7.586v.057M1.325 7.643l-.029.086M1.296 7.729l-.057.057M1.239 7.786l-.057.028M1.182 7.814l-.115.029M1.067 7.843H.982M.982 7.843l-.115-.029M.867 7.814.81 7.786M.81 7.786l-.057-.057M.753 7.729l-.028-.086M.725 7.643v-.057M.725 7.586.753 7.5M.753 7.5l.029-.029"/>
        </g>
        <path d="M.35 1.868h3.938v2.54H.35ZM.35 4.408h3.938v2.54H.35ZM.35 6.948h3.938v2.54H.35ZM.35 9.488h3.938v2.54H.35Z" style="stroke:#f2eda1;stroke-width:.12;stroke-opacity:1;stroke-linecap:round;stroke-linejoin:round;fill:none"/>
        <path d="M1.748 1.868h2.54v10.16h-2.54Z" style="stroke:#f2eda1;stroke-width:.12;stroke-opacity:1;stroke-linecap:round;stroke-linejoin:round;fill:none"/>
    </g>
    <circle cx="3.018" cy="10.758" r=".85" style="fill:#4d7fc4;fill-opacity:1;stroke:none"/>
    <circle cx="3.018" cy="8.218" r=".85" style="fill:#4d7fc4;fill-opacity:1;stroke:none"/>
    <circle cx="3.018" cy="5.678" r=".85" style="fill:#4d7fc4;fill-opacity:1;stroke:none"/>
    <circle cx="3.018" cy="3.138" r=".85" style="fill:#4d7fc4;fill-opacity:1;stroke:none"/>
    <circle cx="3.018" cy="10.758" r=".85" style="fill:#c83434;fill-opacity:1;stroke:none"/>
    <circle cx="3.018" cy="8.218" r=".85" style="fill:#c83434;fill-opacity:1;stroke:none"/>
    <circle cx="3.018" cy="5.678" r=".85" style="fill:#c83434;fill-opacity:1;stroke:none"/>
    <circle cx="3.018" cy="3.138" r=".85" style="fill:#c83434;fill-opacity:1;stroke:none"/>
    <g class="stroked-text" style="fill:none;stroke:#585d84;stroke-width:.0472;stroke-opacity:1;stroke-linecap:round;stroke-linejoin:round">
        <path d="M3.18 11.018h-.324M3.018 11.018v-.567M3.018 10.451l-.054.081M2.964 10.532l-.054.054M2.91 10.586l-.054.027"/>
    </g>
    <circle cx="3.018" cy="10.758" r=".85" style="fill:none;stroke:#585d84;stroke-width:.0212;stroke-opacity:1;stroke-linecap:round;stroke-linejoin:round"/>
    <g class="stroked-text" style="fill:none;stroke:#585d84;stroke-width:.0472;stroke-opacity:1;stroke-linecap:round;stroke-linejoin:round">
        <path d="m2.856 7.965.027-.027M2.883 7.938l.054-.027M2.937 7.911h.135M3.072 7.911l.054.027M3.126 7.938l.027.027M3.153 7.965l.027.054M3.18 8.02v.053M3.18 8.073l-.027.081M3.153 8.154l-.324.324M2.829 8.478h.35"/>
    </g>
    <circle cx="3.018" cy="8.218" r=".85" style="fill:none;stroke:#585d84;stroke-width:.0212;stroke-opacity:1;stroke-linecap:round;stroke-linejoin:round"/>
    <g class="stroked-text" style="fill:none;stroke:#585d84;stroke-width:.0472;stroke-opacity:1;stroke-linecap:round;stroke-linejoin:round">
        <path d="M2.829 5.371h.35M3.18 5.371l-.19.216M2.99 5.587h.082M3.072 5.587l.054.027M3.126 5.614l.027.027M3.153 5.641l.027.054M3.18 5.695v.135M3.18 5.83l-.027.054M3.153 5.884l-.027.027M3.126 5.911l-.054.027M3.072 5.938H2.91M2.91 5.938l-.054-.027M2.856 5.911l-.027-.027"/>
    </g>
    <circle cx="3.018" cy="5.678" r=".85" style="fill:none;stroke:#585d84;stroke-width:.0212;stroke-opacity:1;stroke-linecap:round;stroke-linejoin:round"/>
    <g class="stroked-text" style="fill:none;stroke:#585d84;stroke-width:.0472;stroke-opacity:1;stroke-linecap:round;stroke-linejoin:round">
        <path d="M3.126 3.02v.378M2.99 2.804l-.134.405M2.856 3.21h.35"/>
    </g>
    <circle cx="3.018" cy="3.138" r=".85" style="fill:none;stroke:#585d84;stroke-width:.0212;stroke-opacity:1;stroke-linecap:round;stroke-linejoin:round"/>
    <g style="fill:none;stroke:#afafaf;stroke-width:.15;stroke-opacity:1;stroke-linecap:round;stroke-linejoin:round">
        <g class="stroked-text">
            <path d="M6.476 13.453h.19M6.667 13.453l.095.048M6.762 13.5l.095.096M6.857 13.596l.048.19M6.905 13.786v.334M6.905 14.12l-.048.19M6.857 14.31l-.095.095M6.762 14.406l-.095.047M6.667 14.453h-.19M6.476 14.453l-.095-.047M6.381 14.406l-.095-.096M6.286 14.31l-.048-.19M6.238 14.12v-.334M6.238 13.786l.048-.19M6.286 13.596l.095-.095M6.381 13.5l.095-.047M7.81 14.453h-.476M7.334 14.453v-1M8.143 13.93h.333M8.62 14.453h-.477M8.143 14.453v-1M8.143 13.453h.476M9.048 14.453v-1M9.048 13.453h.238M9.286 13.453l.143.048M9.429 13.5l.095.096M9.524 13.596l.048.095M9.572 13.691l.047.19M9.62 13.882v.143M9.62 14.025l-.048.19M9.572 14.215l-.048.095M9.524 14.31l-.095.095M9.429 14.406l-.143.047M9.286 14.453h-.238M9.81 14.548h.762M10.762 14.406l.143.047M10.905 14.453h.238M11.143 14.453l.095-.047M11.238 14.406l.048-.048M11.286 14.358l.048-.095M11.334 14.263v-.096M11.334 14.167l-.048-.095M11.286 14.072l-.048-.047M11.238 14.025l-.095-.048M11.143 13.977l-.19-.048M10.953 13.93l-.096-.048M10.857 13.882l-.047-.048M10.81 13.834l-.048-.095M10.762 13.739v-.096M10.762 13.644l.048-.096M10.81 13.548l.047-.047M10.857 13.5l.096-.047M10.953 13.453h.238M11.19 13.453l.144.048M11.715 14.406l.142.047M11.857 14.453h.239M12.096 14.453l.095-.047M12.19 14.406l.048-.048M12.238 14.358l.048-.095M12.286 14.263v-.096M12.286 14.167l-.048-.095M12.238 14.072l-.047-.047M12.19 14.025l-.095-.048M12.096 13.977l-.191-.048M11.905 13.93l-.095-.048M11.81 13.882l-.048-.048M11.762 13.834l-.048-.095M11.715 13.739v-.096M11.715 13.644l.047-.096M11.762 13.548l.048-.047M11.81 13.5l.095-.047M11.905 13.453h.238M12.143 13.453l.143.048M12.715 14.453v-1M12.715 13.453h.238M12.953 13.453l.143.048M13.096 13.5l.095.096M13.19 13.596l.048.095M13.238 13.691l.048.19M13.286 13.882v.143M13.286 14.025l-.048.19M13.238 14.215l-.047.095M13.19 14.31l-.095.095M13.096 14.406l-.143.047M12.953 14.453h-.239M14.238 14.453h-.571M13.953 14.453v-1M13.953 13.453l-.096.143M13.857 13.596l-.095.095M13.762 13.691l-.095.048M14.572 13.453h.619M15.19 13.453l-.333.381M14.857 13.834H15M15 13.834l.095.048M15.096 13.882l.047.047M15.143 13.93l.048.095M15.19 14.025v.238M15.19 14.263l-.047.095M15.143 14.358l-.048.047M15.096 14.406l-.096.047M15 14.453h-.286M14.715 14.453l-.096-.047M14.62 14.406l-.048-.048M15.81 13.453h.095M15.905 13.453l.095.048M16 13.5l.048.048M16.048 13.548l.048.095M16.096 13.644l.047.19M16.143 13.834v.238M16.143 14.072l-.047.19M16.096 14.263l-.048.095M16.048 14.358l-.048.047M16 14.406l-.095.047M15.905 14.453h-.095M15.81 14.453l-.096-.047M15.715 14.406l-.048-.048M15.667 14.358l-.048-.095M15.62 14.263l-.048-.19M15.572 14.072v-.238M15.572 13.834l.047-.19M15.62 13.644l.047-.096M15.667 13.548l.047-.047M15.715 13.5l.095-.047M17 13.453h-.19M16.81 13.453l-.095.048M16.715 13.5l-.048.048M16.667 13.548l-.095.143M16.572 13.691l-.048.19M16.524 13.882v.38M16.524 14.263l.048.095M16.572 14.358l.047.047M16.62 14.406l.095.047M16.715 14.453h.19M16.905 14.453l.095-.047M17 14.406l.048-.048M17.048 14.358l.048-.095M17.096 14.263v-.239M17.096 14.025l-.048-.096M17.048 13.93 17 13.881M17 13.882l-.095-.048M16.905 13.834h-.19M16.715 13.834l-.096.048M16.62 13.882l-.048.047M16.572 13.93l-.048.095M17.286 14.548h.762M18.81 14.453h-.572M18.524 14.453v-1M18.524 13.453l-.095.143M18.429 13.596l-.095.095M18.334 13.691l-.096.048M19.19 13.548l.048-.047M19.238 13.5l.096-.047M19.334 13.453h.238M19.572 13.453l.095.048M19.667 13.5l.047.048M19.715 13.548l.047.095M19.762 13.644v.095M19.762 13.739l-.047.143M19.715 13.882l-.572.571M19.143 14.453h.62M20.334 13.882l-.096-.048M20.238 13.834l-.047-.048M20.19 13.786l-.047-.095M20.143 13.691v-.048M20.143 13.644l.048-.096M20.19 13.548l.048-.047M20.238 13.5l.096-.047M20.334 13.453h.19M20.524 13.453l.095.048M20.62 13.5l.047.048M20.667 13.548l.047.095M20.715 13.644v.047M20.715 13.691l-.048.095M20.667 13.786l-.048.048M20.62 13.834l-.096.048M20.524 13.882h-.19M20.334 13.882l-.096.047M20.238 13.93l-.047.047M20.19 13.977l-.047.095M20.143 14.072v.19M20.143 14.263l.048.095M20.19 14.358l.048.047M20.238 14.406l.096.047M20.334 14.453h.19M20.524 14.453l.095-.047M20.62 14.406l.047-.048M20.667 14.358l.047-.095M20.715 14.263v-.19M20.715 14.072l-.048-.095M20.667 13.977l-.048-.048M20.62 13.93l-.096-.048M21.048 14.453l.524-.667M21.048 13.786l.524.667M21.857 13.453h.62M22.476 13.453l-.333.381M22.143 13.834h.143M22.286 13.834l.095.048M22.381 13.882l.048.047M22.429 13.93l.047.095M22.476 14.025v.238M22.476 14.263l-.047.095M22.429 14.358l-.048.047M22.381 14.406l-.095.047M22.286 14.453H22M22 14.453l-.095-.047M21.905 14.406l-.048-.048M22.857 13.548l.048-.047M22.905 13.5l.095-.047M23 13.453h.238M23.238 13.453l.096.048M23.334 13.5l.047.048M23.381 13.548l.048.095M23.429 13.644v.095M23.429 13.739l-.048.143M23.381 13.882l-.571.571M22.81 14.453h.619M23.62 14.548h.761M24.81 13.453h.095M24.905 13.453l.095.048M25 13.5l.048.048M25.048 13.548l.048.095M25.096 13.644l.047.19M25.143 13.834v.238M25.143 14.072l-.047.19M25.096 14.263l-.048.095M25.048 14.358l-.048.047M25 14.406l-.095.047M24.905 14.453h-.095M24.81 14.453l-.095-.047M24.715 14.406l-.048-.048M24.667 14.358l-.048-.095M24.62 14.263l-.048-.19M24.572 14.072v-.238M24.572 13.834l.047-.19M24.62 13.644l.047-.096M24.667 13.548l.047-.047M24.715 13.5l.095-.047M25.572 14.358l.047.047M25.62 14.406l-.048.047M25.572 14.453l-.048-.047M25.524 14.406l.048-.048M25.572 14.358v.095M26.096 14.453h.19M26.286 14.453l.095-.047M26.381 14.406l.048-.048M26.429 14.358l.095-.143M26.524 14.215l.048-.19M26.572 14.025v-.382M26.572 13.644l-.048-.096M26.524 13.548l-.048-.047M26.476 13.5l-.095-.047M26.381 13.453h-.19M26.19 13.453l-.095.048M26.096 13.5l-.048.048M26.048 13.548l-.048.095M26 13.644v.238M26 13.882l.048.095M26.048 13.977l.048.047M26.096 14.025l.095.047M26.19 14.072h.191M26.381 14.072l.095-.047M26.476 14.025l.048-.048M26.524 13.977l.048-.095M27.524 14.453h-.571M27.238 14.453v-1M27.238 13.453l-.095.143M27.143 13.596l-.095.095M27.048 13.691l-.095.048M27.953 14.453v-.667M27.953 13.453l-.048.048M27.905 13.5l.048.048M27.953 13.548l.047-.047M28 13.5l-.047-.047M27.953 13.453v.095M28.429 13.786v.667M28.429 13.882l.047-.048M28.476 13.834l.096-.048M28.572 13.786h.143M28.715 13.786l.095.048M28.81 13.834l.047.095M28.857 13.93v.523M29.762 14.406l-.095.047M29.667 14.453h-.19M29.476 14.453l-.095-.047M29.381 14.406l-.047-.048M29.334 14.358l-.048-.095M29.286 14.263v-.286M29.286 13.977l.048-.095M29.334 13.882l.047-.048M29.381 13.834l.095-.048M29.476 13.786h.19M29.667 13.786l.095.048M30.19 14.453v-1M30.62 14.453v-.524M30.62 13.93l-.048-.096M30.572 13.834l-.096-.048M30.476 13.786h-.142M30.334 13.786l-.096.048M30.238 13.834l-.047.048M30.857 14.548h.762M31.857 14.453v-1M32.286 13.548l.048-.047M32.334 13.5l.095-.047M32.429 13.453h.238M32.667 13.453l.095.048M32.762 13.5l.048.048M32.81 13.548l.047.095M32.857 13.644v.095M32.857 13.739l-.047.143M32.81 13.882l-.572.571M32.238 14.453h.62M33.857 14.358l-.047.047M33.81 14.406l-.143.047M33.667 14.453h-.095M33.572 14.453l-.143-.047M33.429 14.406l-.095-.096M33.334 14.31l-.048-.095M33.286 14.215l-.048-.19M33.238 14.025v-.143M33.238 13.882l.048-.19M33.286 13.691l.048-.095M33.334 13.596l.095-.095M33.429 13.5l.143-.047M33.572 13.453h.095M33.667 13.453l.143.048M33.81 13.5l.047.048"/>
        </g>
        <g class="stroked-text">
            <path d="m18.715 15.953-.334-.476M18.143 15.953v-1M18.143 14.953h.381M18.524 14.953l.095.048M18.62 15l.047.048M18.667 15.048l.047.095M18.715 15.144v.142M18.715 15.286l-.048.096M18.667 15.382l-.048.047M18.62 15.43l-.096.047M18.524 15.477h-.38M19.143 15.43h.333M19.62 15.953h-.477M19.143 15.953v-1M19.143 14.953h.476M20.381 15.43h-.333M20.048 15.953v-1M20.048 14.953h.476M21.048 14.953v.238M20.81 15.096l.238.095M21.048 15.191l.238-.095M20.905 15.382l.143-.19M21.048 15.191l.143.19M21.81 14.953v.238M21.572 15.096l.238.095M21.81 15.191l.238-.095M21.667 15.382l.143-.19M21.81 15.191l.143.19"/>
        </g>
        <path d="M1.748.948h38v12h-38Z" style="stroke:#afafaf;stroke-width:.1;stroke-opacity:1;stroke-linecap:round;stroke-linejoin:round;fill:none"/>
        <path d="M6.748 1.448h30v11.5h-30Z" style="stroke:#afafaf;stroke-width:.1;stroke-opacity:1;stroke-linecap:round;stroke-linejoin:round;fill:none"/>
    </g>
    <g style="fill:none;stroke:#afafaf;stroke-width:.1;stroke-opacity:1;stroke-linecap:round;stroke-linejoin:round">
        <path d="M7.858 3.408h1.1M9.358 3.408h1.1M10.858 3.408h1.1M12.358 3.408h1.1M13.858 3.408h1.1M15.358 3.408h1.1M16.858 3.408h1.1M18.358 3.408h1.1M19.858 3.408h1.1M21.358 3.408h1.1M22.858 3.408h1.1M24.358 3.408h1.1M25.858 3.408h1.1M27.358 3.408h1.1M28.858 3.408h1.1M30.358 3.408h1.1M31.858 3.408h.38M32.238 3.408v1.1M32.238 4.908v1.1M32.238 6.408v1.1M32.238 7.908v1.1M32.238 9.408v1.1M32.238 10.908v.08M32.238 10.988h-1.1M30.738 10.988h-1.1M29.238 10.988h-1.1M27.738 10.988h-1.1M26.238 10.988h-1.1M24.738 10.988h-1.1M23.238 10.988h-1.1M21.738 10.988h-1.1M20.238 10.988h-1.1M18.738 10.988h-1.1M17.238 10.988h-1.1M15.738 10.988h-1.1M14.238 10.988h-1.1M12.738 10.988h-1.1M11.238 10.988h-1.1M9.738 10.988h-1.1M8.238 10.988h-.38M7.858 10.988v-1.1M7.858 9.488v-1.1M7.858 7.988v-1.1M7.858 6.488v-1.1M7.858 4.988v-1.1M7.858 3.488v-.08"/>
    </g>
    <g class="stroked-text" style="fill:none;stroke:#afafaf;stroke-width:.0472;stroke-opacity:1;stroke-linecap:round;stroke-linejoin:round">
        <path d="M3.18 11.018h-.324M3.018 11.018v-.567M3.018 10.451l-.054.081M2.964 10.532l-.054.054M2.91 10.586l-.054.027"/>
    </g>
    <circle cx="3.018" cy="10.758" r=".85" style="fill:none;stroke:#afafaf;stroke-width:.0212;stroke-opacity:1;stroke-linecap:round;stroke-linejoin:round"/>
    <g class="stroked-text" style="fill:none;stroke:#afafaf;stroke-width:.0472;stroke-opacity:1;stroke-linecap:round;stroke-linejoin:round">
        <path d="m2.856 7.965.027-.027M2.883 7.938l.054-.027M2.937 7.911h.135M3.072 7.911l.054.027M3.126 7.938l.027.027M3.153 7.965l.027.054M3.18 8.02v.053M3.18 8.073l-.027.081M3.153 8.154l-.324.324M2.829 8.478h.35"/>
    </g>
    <circle cx="3.018" cy="8.218" r=".85" style="fill:none;stroke:#afafaf;stroke-width:.0212;stroke-opacity:1;stroke-linecap:round;stroke-linejoin:round"/>
    <g class="stroked-text" style="fill:none;stroke:#afafaf;stroke-width:.0472;stroke-opacity:1;stroke-linecap:round;stroke-linejoin:round">
        <path d="M2.829 5.371h.35M3.18 5.371l-.19.216M2.99 5.587h.082M3.072 5.587l.054.027M3.126 5.614l.027.027M3.153 5.641l.027.054M3.18 5.695v.135M3.18 5.83l-.027.054M3.153 5.884l-.027.027M3.126 5.911l-.054.027M3.072 5.938H2.91M2.91 5.938l-.054-.027M2.856 5.911l-.027-.027"/>
    </g>
    <circle cx="3.018" cy="5.678" r=".85" style="fill:none;stroke:#afafaf;stroke-width:.0212;stroke-opacity:1;stroke-linecap:round;stroke-linejoin:round"/>
    <g class="stroked-text" style="fill:none;stroke:#afafaf;stroke-width:.0472;stroke-opacity:1;stroke-linecap:round;stroke-linejoin:round">
        <path d="M3.126 3.02v.378M2.99 2.804l-.134.405M2.856 3.21h.35"/>
    </g>
    <g style="fill:none;stroke:#afafaf;stroke-width:.0212;stroke-opacity:1;stroke-linecap:round;stroke-linejoin:round">
        <circle cx="3.018" cy="3.138" r=".85"/>
        <path d="M7.858 3.408h24.38v7.58H7.858Z" style="stroke:#c2c2c2;stroke-width:.05;stroke-opacity:1;stroke-linecap:round;stroke-linejoin:round;fill:none"/>
    </g>
</svg>
