<svg xmlns="http://www.w3.org/2000/svg" width="165.408" height="84.96" viewBox="0 0 43.764 22.479">
    <g style="fill:none;stroke:#f2eda1;stroke-width:.15;stroke-opacity:1;stroke-linecap:round;stroke-linejoin:round">
        <g class="stroked-text">
            <path d="m1.303 10.883-.476.334M1.303 11.455h-1M.303 11.455v-.381M.303 11.074l.048-.095M.35 10.979l.048-.048M.398 10.931l.095-.048M.494 10.883h.142M.636 10.883l.096.048M.732 10.931l.047.048M.78 10.979l.047.095M.827 11.074v.38M.78 10.455v-.334M1.303 9.979v.476M1.303 10.455h-1M.303 10.455v-.476M.78 9.217v.333M1.303 9.55h-1M.303 9.55v-.476M.303 8.55h.238M.446 8.788.54 8.55M.541 8.55l-.095-.238M.732 8.693l-.19-.143M.541 8.55l.19-.143M.303 7.788h.238M.446 8.026l.095-.238M.541 7.788.446 7.55M.732 7.931l-.19-.143M.541 7.788l.19-.143"/>
        </g>
        <path stroke="none" d="m4.438 12.51.115.008.178.044.165.082.143.115.115.143.082.165.045.178.007.115-.008.115-.044.178-.082.165-.115.143-.143.115-.165.082-.178.044-.115.008h-1.2l-.115-.008-.178-.044-.164-.082-.144-.115-.115-.143-.082-.165-.044-.178-.008-.115.008-.115.044-.178.082-.165.115-.143.143-.115.165-.082.179-.044.114-.008Z" style="fill:#4d7fc4;fill-opacity:1;stroke:none;fill-rule:evenodd"/>
        <path stroke="none" d="m5.438 12.51.115.008.178.044.165.082.143.115.115.143.082.165.045.178.007.115-.008.115-.044.178-.082.165-.115.143-.143.115-.165.082-.178.044-.115.008h-1.2l-.115-.008-.178-.044-.164-.082-.144-.115-.115-.143-.082-.165-.044-.178-.008-.115.008-.115.044-.178.082-.165.115-.143.143-.115.165-.082.179-.044.114-.008ZM4.438 9.97l.115.008.178.044.165.082.143.115.115.143.082.165.045.178.007.115-.008.115-.044.178-.082.165-.115.143-.143.115-.165.082-.178.044-.115.008h-1.2l-.115-.008-.178-.044-.164-.082-.144-.115-.115-.143-.082-.165-.044-.178-.008-.115.008-.115.044-.178.082-.165.115-.143.143-.115.165-.082.179-.044.114-.008Z" style="fill:#4d7fc4;fill-opacity:1;stroke:none;fill-rule:evenodd"/>
        <path stroke="none" d="m5.438 9.97.115.008.178.044.165.082.143.115.115.143.082.165.045.178.007.115-.008.115-.044.178-.082.165-.115.143-.143.115-.165.082-.178.044-.115.008h-1.2l-.115-.008-.178-.044-.164-.082-.144-.115-.115-.143-.082-.165-.044-.178-.008-.115.008-.115.044-.178.082-.165.115-.143.143-.115.165-.082.179-.044.114-.008ZM4.438 7.43l.115.008.178.044.165.082.143.115.115.143.082.165.045.178.007.115-.008.115-.044.178-.082.165-.115.143-.143.115-.165.082-.178.044-.115.008h-1.2l-.115-.008-.178-.044-.164-.082-.144-.115-.115-.143-.082-.165-.044-.178-.008-.115.008-.115.044-.178.082-.165.115-.143.143-.115.165-.082.179-.044.114-.008Z" style="fill:#4d7fc4;fill-opacity:1;stroke:none;fill-rule:evenodd"/>
        <path stroke="none" d="m5.438 7.43.115.008.178.044.165.082.143.115.115.143.082.165.045.178.007.115-.008.115-.044.178-.082.165-.115.143-.143.115-.165.082-.178.044-.115.008h-1.2l-.115-.008-.178-.044-.164-.082-.144-.115-.115-.143-.082-.165-.044-.178-.008-.115.008-.115.044-.178.082-.165.115-.143.143-.115.165-.082.179-.044.114-.008ZM4.438 4.89l.115.008.178.044.165.082.143.115.115.143.082.165.045.178.007.115-.008.115-.044.178-.082.165-.115.143-.143.115-.165.082-.178.044-.115.008h-1.2l-.115-.008-.178-.044-.164-.082-.144-.115-.115-.143-.082-.165-.044-.178-.008-.115.008-.115.044-.178.082-.165.115-.143.143-.115.165-.082.179-.044.114-.008Z" style="fill:#4d7fc4;fill-opacity:1;stroke:none;fill-rule:evenodd"/>
        <path stroke="none" d="m5.438 4.89.115.008.178.044.165.082.143.115.115.143.082.165.045.178.007.115-.008.115-.044.178-.082.165-.115.143-.143.115-.165.082-.178.044-.115.008h-1.2l-.115-.008-.178-.044-.164-.082-.144-.115-.115-.143-.082-.165-.044-.178-.008-.115.008-.115.044-.178.082-.165.115-.143.143-.115.165-.082.179-.044.114-.008Z" style="fill:#4d7fc4;fill-opacity:1;stroke:none;fill-rule:evenodd"/>
        <path stroke="none" d="m4.438 12.51.115.008.178.044.165.082.143.115.115.143.082.165.045.178.007.115-.008.115-.044.178-.082.165-.115.143-.143.115-.165.082-.178.044-.115.008h-1.2l-.115-.008-.178-.044-.164-.082-.144-.115-.115-.143-.082-.165-.044-.178-.008-.115.008-.115.044-.178.082-.165.115-.143.143-.115.165-.082.179-.044.114-.008Z" style="fill:#c83434;fill-opacity:1;stroke:none;fill-rule:evenodd"/>
        <path stroke="none" d="m5.438 12.51.115.008.178.044.165.082.143.115.115.143.082.165.045.178.007.115-.008.115-.044.178-.082.165-.115.143-.143.115-.165.082-.178.044-.115.008h-1.2l-.115-.008-.178-.044-.164-.082-.144-.115-.115-.143-.082-.165-.044-.178-.008-.115.008-.115.044-.178.082-.165.115-.143.143-.115.165-.082.179-.044.114-.008ZM4.438 9.97l.115.008.178.044.165.082.143.115.115.143.082.165.045.178.007.115-.008.115-.044.178-.082.165-.115.143-.143.115-.165.082-.178.044-.115.008h-1.2l-.115-.008-.178-.044-.164-.082-.144-.115-.115-.143-.082-.165-.044-.178-.008-.115.008-.115.044-.178.082-.165.115-.143.143-.115.165-.082.179-.044.114-.008Z" style="fill:#c83434;fill-opacity:1;stroke:none;fill-rule:evenodd"/>
        <path stroke="none" d="m5.438 9.97.115.008.178.044.165.082.143.115.115.143.082.165.045.178.007.115-.008.115-.044.178-.082.165-.115.143-.143.115-.165.082-.178.044-.115.008h-1.2l-.115-.008-.178-.044-.164-.082-.144-.115-.115-.143-.082-.165-.044-.178-.008-.115.008-.115.044-.178.082-.165.115-.143.143-.115.165-.082.179-.044.114-.008ZM4.438 7.43l.115.008.178.044.165.082.143.115.115.143.082.165.045.178.007.115-.008.115-.044.178-.082.165-.115.143-.143.115-.165.082-.178.044-.115.008h-1.2l-.115-.008-.178-.044-.164-.082-.144-.115-.115-.143-.082-.165-.044-.178-.008-.115.008-.115.044-.178.082-.165.115-.143.143-.115.165-.082.179-.044.114-.008Z" style="fill:#c83434;fill-opacity:1;stroke:none;fill-rule:evenodd"/>
        <path stroke="none" d="m5.438 7.43.115.008.178.044.165.082.143.115.115.143.082.165.045.178.007.115-.008.115-.044.178-.082.165-.115.143-.143.115-.165.082-.178.044-.115.008h-1.2l-.115-.008-.178-.044-.164-.082-.144-.115-.115-.143-.082-.165-.044-.178-.008-.115.008-.115.044-.178.082-.165.115-.143.143-.115.165-.082.179-.044.114-.008ZM4.438 4.89l.115.008.178.044.165.082.143.115.115.143.082.165.045.178.007.115-.008.115-.044.178-.082.165-.115.143-.143.115-.165.082-.178.044-.115.008h-1.2l-.115-.008-.178-.044-.164-.082-.144-.115-.115-.143-.082-.165-.044-.178-.008-.115.008-.115.044-.178.082-.165.115-.143.143-.115.165-.082.179-.044.114-.008Z" style="fill:#c83434;fill-opacity:1;stroke:none;fill-rule:evenodd"/>
        <path stroke="none" d="m5.438 4.89.115.008.178.044.165.082.143.115.115.143.082.165.045.178.007.115-.008.115-.044.178-.082.165-.115.143-.143.115-.165.082-.178.044-.115.008h-1.2l-.115-.008-.178-.044-.164-.082-.144-.115-.115-.143-.082-.165-.044-.178-.008-.115.008-.115.044-.178.082-.165.115-.143.143-.115.165-.082.179-.044.114-.008Z" style="fill:#c83434;fill-opacity:1;stroke:none;fill-rule:evenodd"/>
    </g>
    <g style="fill:none;stroke:#585d84;stroke-width:.0806;stroke-opacity:1;stroke-linecap:round;stroke-linejoin:round">
        <g class="stroked-text">
            <path d="M4.114 13.803h-.552M3.838 13.803v-.967M3.838 12.836l-.092.138M3.746 12.974l-.092.092M3.654 13.067l-.092.046"/>
        </g>
        <path d="m4.438 12.51.115.008.178.044.165.082.143.115.115.143.082.165.045.178.007.115-.008.115-.044.178-.082.165-.115.143-.143.115-.165.082-.178.044-.115.008h-1.2l-.115-.008-.178-.044-.164-.082-.144-.115-.115-.143-.082-.165-.044-.178-.008-.115.008-.115.044-.178.082-.165.115-.143.143-.115.165-.082.179-.044.114-.008Z" style="stroke:#585d84;stroke-width:.0212;stroke-opacity:1;stroke-linecap:round;stroke-linejoin:round;fill:none"/>
    </g>
    <g style="fill:none;stroke:#585d84;stroke-width:.0806;stroke-opacity:1;stroke-linecap:round;stroke-linejoin:round">
        <g class="stroked-text">
            <path d="M5.114 13.803h-.552M4.838 13.803v-.967M4.838 12.836l-.092.138M4.746 12.974l-.092.092M4.654 13.067l-.092.046"/>
        </g>
        <path d="m5.438 12.51.115.008.178.044.165.082.143.115.115.143.082.165.045.178.007.115-.008.115-.044.178-.082.165-.115.143-.143.115-.165.082-.178.044-.115.008h-1.2l-.115-.008-.178-.044-.164-.082-.144-.115-.115-.143-.082-.165-.044-.178-.008-.115.008-.115.044-.178.082-.165.115-.143.143-.115.165-.082.179-.044.114-.008Z" style="stroke:#585d84;stroke-width:.0212;stroke-opacity:1;stroke-linecap:round;stroke-linejoin:round;fill:none"/>
    </g>
    <g style="fill:none;stroke:#585d84;stroke-width:.0806;stroke-opacity:1;stroke-linecap:round;stroke-linejoin:round">
        <g class="stroked-text">
            <path d="m3.562 10.388.046-.046M3.608 10.342l.092-.046M3.7 10.296h.23M3.93 10.296l.092.046M4.022 10.342l.046.046M4.068 10.388l.046.092M4.114 10.48v.092M4.114 10.573l-.046.138M4.068 10.71l-.552.553M3.516 11.263h.598"/>
        </g>
        <path d="m4.438 9.97.115.008.178.044.165.082.143.115.115.143.082.165.045.178.007.115-.008.115-.044.178-.082.165-.115.143-.143.115-.165.082-.178.044-.115.008h-1.2l-.115-.008-.178-.044-.164-.082-.144-.115-.115-.143-.082-.165-.044-.178-.008-.115.008-.115.044-.178.082-.165.115-.143.143-.115.165-.082.179-.044.114-.008Z" style="stroke:#585d84;stroke-width:.0212;stroke-opacity:1;stroke-linecap:round;stroke-linejoin:round;fill:none"/>
    </g>
    <g style="fill:none;stroke:#585d84;stroke-width:.0806;stroke-opacity:1;stroke-linecap:round;stroke-linejoin:round">
        <g class="stroked-text">
            <path d="m4.562 10.388.046-.046M4.608 10.342l.092-.046M4.7 10.296h.23M4.93 10.296l.092.046M5.022 10.342l.046.046M5.068 10.388l.046.092M5.114 10.48v.092M5.114 10.573l-.046.138M5.068 10.71l-.552.553M4.516 11.263h.598"/>
        </g>
        <path d="m5.438 9.97.115.008.178.044.165.082.143.115.115.143.082.165.045.178.007.115-.008.115-.044.178-.082.165-.115.143-.143.115-.165.082-.178.044-.115.008h-1.2l-.115-.008-.178-.044-.164-.082-.144-.115-.115-.143-.082-.165-.044-.178-.008-.115.008-.115.044-.178.082-.165.115-.143.143-.115.165-.082.179-.044.114-.008Z" style="stroke:#585d84;stroke-width:.0212;stroke-opacity:1;stroke-linecap:round;stroke-linejoin:round;fill:none"/>
    </g>
    <g style="fill:none;stroke:#585d84;stroke-width:.0806;stroke-opacity:1;stroke-linecap:round;stroke-linejoin:round">
        <g class="stroked-text">
            <path d="M3.516 7.756h.598M4.114 7.756l-.322.369M3.792 8.125h.138M3.93 8.125l.092.046M4.022 8.17l.046.047M4.068 8.217l.046.092M4.114 8.309v.23M4.114 8.539l-.046.092M4.068 8.63l-.046.047M4.022 8.677l-.092.046M3.93 8.723h-.276M3.654 8.723l-.092-.046M3.562 8.677l-.046-.046"/>
        </g>
        <path d="m4.438 7.43.115.008.178.044.165.082.143.115.115.143.082.165.045.178.007.115-.008.115-.044.178-.082.165-.115.143-.143.115-.165.082-.178.044-.115.008h-1.2l-.115-.008-.178-.044-.164-.082-.144-.115-.115-.143-.082-.165-.044-.178-.008-.115.008-.115.044-.178.082-.165.115-.143.143-.115.165-.082.179-.044.114-.008Z" style="stroke:#585d84;stroke-width:.0212;stroke-opacity:1;stroke-linecap:round;stroke-linejoin:round;fill:none"/>
    </g>
    <g style="fill:none;stroke:#585d84;stroke-width:.0806;stroke-opacity:1;stroke-linecap:round;stroke-linejoin:round">
        <g class="stroked-text">
            <path d="M4.516 7.756h.598M5.114 7.756l-.322.369M4.792 8.125h.138M4.93 8.125l.092.046M5.022 8.17l.046.047M5.068 8.217l.046.092M5.114 8.309v.23M5.114 8.539l-.046.092M5.068 8.63l-.046.047M5.022 8.677l-.092.046M4.93 8.723h-.276M4.654 8.723l-.092-.046M4.562 8.677l-.046-.046"/>
        </g>
        <path d="m5.438 7.43.115.008.178.044.165.082.143.115.115.143.082.165.045.178.007.115-.008.115-.044.178-.082.165-.115.143-.143.115-.165.082-.178.044-.115.008h-1.2l-.115-.008-.178-.044-.164-.082-.144-.115-.115-.143-.082-.165-.044-.178-.008-.115.008-.115.044-.178.082-.165.115-.143.143-.115.165-.082.179-.044.114-.008Z" style="stroke:#585d84;stroke-width:.0212;stroke-opacity:1;stroke-linecap:round;stroke-linejoin:round;fill:none"/>
    </g>
    <g style="fill:none;stroke:#585d84;stroke-width:.0806;stroke-opacity:1;stroke-linecap:round;stroke-linejoin:round">
        <g class="stroked-text">
            <path d="M4.022 5.539v.644M3.792 5.17l-.23.69M3.562 5.86h.599"/>
        </g>
        <path d="m4.438 4.89.115.008.178.044.165.082.143.115.115.143.082.165.045.178.007.115-.008.115-.044.178-.082.165-.115.143-.143.115-.165.082-.178.044-.115.008h-1.2l-.115-.008-.178-.044-.164-.082-.144-.115-.115-.143-.082-.165-.044-.178-.008-.115.008-.115.044-.178.082-.165.115-.143.143-.115.165-.082.179-.044.114-.008Z" style="stroke:#585d84;stroke-width:.0212;stroke-opacity:1;stroke-linecap:round;stroke-linejoin:round;fill:none"/>
    </g>
    <g style="fill:none;stroke:#585d84;stroke-width:.0806;stroke-opacity:1;stroke-linecap:round;stroke-linejoin:round">
        <g class="stroked-text">
            <path d="M5.022 5.539v.644M4.792 5.17l-.23.69M4.562 5.86h.598"/>
        </g>
        <path d="m5.438 4.89.115.008.178.044.165.082.143.115.115.143.082.165.045.178.007.115-.008.115-.044.178-.082.165-.115.143-.143.115-.165.082-.178.044-.115.008h-1.2l-.115-.008-.178-.044-.164-.082-.144-.115-.115-.143-.082-.165-.044-.178-.008-.115.008-.115.044-.178.082-.165.115-.143.143-.115.165-.082.179-.044.114-.008Z" style="stroke:#585d84;stroke-width:.0212;stroke-opacity:1;stroke-linecap:round;stroke-linejoin:round;fill:none"/>
    </g>
    <g style="fill:none;stroke:#afafaf;stroke-width:.15;stroke-opacity:1;stroke-linecap:round;stroke-linejoin:round">
        <g class="stroked-text">
            <path d="M7.676 19.605h.19M7.867 19.605l.095.047M7.962 19.652l.095.096M8.057 19.748l.048.19M8.105 19.938v.334M8.105 20.272l-.048.19M8.057 20.462l-.095.095M7.962 20.557l-.095.048M7.867 20.605h-.19M7.676 20.605l-.095-.048M7.581 20.557l-.095-.095M7.486 20.462l-.048-.19M7.438 20.272v-.334M7.438 19.938l.048-.19M7.486 19.748l.095-.096M7.581 19.652l.095-.047M9.01 20.605h-.476M8.534 20.605v-1M9.343 20.081h.333M9.82 20.605h-.477M9.343 20.605v-1M9.343 19.605h.476M10.248 20.605v-1M10.248 19.605h.238M10.486 19.605l.143.047M10.629 19.652l.095.096M10.724 19.748l.048.095M10.772 19.843l.047.19M10.82 20.033v.143M10.82 20.176l-.048.19M10.772 20.367l-.048.095M10.724 20.462l-.095.095M10.629 20.557l-.143.048M10.486 20.605h-.238M11.01 20.7h.762M12.534 19.652l-.096-.047M12.438 19.605h-.143M12.295 19.605l-.143.047M12.153 19.652l-.096.096M12.057 19.748l-.047.095M12.01 19.843l-.048.19M11.962 20.033v.143M11.962 20.176l.048.19M12.01 20.367l.047.095M12.057 20.462l.095.095M12.153 20.557l.142.048M12.295 20.605h.096M12.39 20.605l.143-.048M12.534 20.557l.047-.047M12.581 20.51v-.334M12.581 20.176h-.19M13.39 20.557l-.095.048M13.295 20.605h-.19M13.105 20.605l-.095-.048M13.01 20.557l-.048-.095M12.962 20.462v-.381M12.962 20.081l.048-.095M13.01 19.986l.095-.048M13.105 19.938h.19M13.295 19.938l.096.048M13.39 19.986l.048.095M13.438 20.081v.095M13.438 20.176l-.476.096M13.867 19.938v.667M13.867 20.033l.047-.047M13.914 19.986l.096-.048M14.01 19.938h.143M14.153 19.938l.095.048M14.248 19.986l.047.095M14.295 20.081v.524M15.153 20.557l-.096.048M15.057 20.605h-.19M14.867 20.605l-.095-.048M14.772 20.557l-.048-.095M14.724 20.462v-.381M14.724 20.081l.048-.095M14.772 19.986l.095-.048M14.867 19.938h.19M15.057 19.938l.095.048M15.153 19.986l.047.095M15.2 20.081v.095M15.2 20.176l-.476.096M15.629 20.605v-.667M15.629 20.129l.047-.096M15.676 20.033l.048-.047M15.724 19.986l.095-.048M15.82 19.938h.094M16.248 20.605v-.667M16.248 19.605l-.048.047M16.2 19.652l.048.048M16.248 19.7l.047-.048M16.295 19.652l-.047-.047M16.248 19.605v.095M17.153 20.557l-.096.048M17.057 20.605h-.19M16.867 20.605l-.095-.048M16.772 20.557l-.048-.047M16.724 20.51l-.048-.096M16.676 20.414v-.285M16.676 20.129l.048-.096M16.724 20.033l.048-.047M16.772 19.986l.095-.048M16.867 19.938h.19M17.057 19.938l.096.048M17.343 20.7h.762M18.867 20.605h-.572M18.581 20.605v-1M18.581 19.605l-.095.143M18.486 19.748l-.095.095M18.39 19.843l-.095.047M19.248 19.7l.047-.048M19.295 19.652l.096-.047M19.39 19.605h.239M19.629 19.605l.095.047M19.724 19.652l.048.048M19.772 19.7l.047.095M19.82 19.795v.095M19.82 19.89l-.048.143M19.772 20.033l-.572.572M19.2 20.605h.62M20.39 20.033l-.095-.047M20.295 19.986l-.047-.048M20.248 19.938l-.048-.095M20.2 19.843v-.048M20.2 19.795l.048-.095M20.248 19.7l.047-.048M20.295 19.652l.096-.047M20.39 19.605h.191M20.581 19.605l.095.047M20.676 19.652l.048.048M20.724 19.7l.048.095M20.772 19.795v.048M20.772 19.843l-.048.095M20.724 19.938l-.048.048M20.676 19.986l-.095.047M20.581 20.033h-.19M20.39 20.033l-.095.048M20.295 20.081l-.047.048M20.248 20.129l-.048.095M20.2 20.224v.19M20.2 20.414l.048.096M20.248 20.51l.047.047M20.295 20.557l.096.048M20.39 20.605h.191M20.581 20.605l.095-.048M20.676 20.557l.048-.047M20.724 20.51l.048-.096M20.772 20.414v-.19M20.772 20.224l-.048-.095M20.724 20.129l-.048-.048M20.676 20.081l-.095-.048M21.105 20.605l.524-.667M21.105 19.938l.524.667M21.914 19.605h.62M22.534 19.605l-.334.38M22.2 19.986h.143M22.343 19.986l.095.047M22.438 20.033l.048.048M22.486 20.081l.047.095M22.534 20.176v.238M22.534 20.414l-.048.096M22.486 20.51l-.048.047M22.438 20.557l-.095.048M22.343 20.605h-.286M22.057 20.605l-.095-.048M21.962 20.557l-.048-.047M22.914 19.7l.048-.048M22.962 19.652l.095-.047M23.057 19.605h.238M23.295 19.605l.096.047M23.39 19.652l.048.048M23.438 19.7l.048.095M23.486 19.795v.095M23.486 19.89l-.048.143M23.438 20.033l-.571.572M22.867 20.605h.619M23.676 20.7h.762M25.105 19.605h-.19M24.914 19.605l-.095.047M24.82 19.652l-.048.048M24.772 19.7l-.096.143M24.676 19.843l-.047.19M24.629 20.033v.381M24.629 20.414l.047.096M24.676 20.51l.048.047M24.724 20.557l.095.048M24.82 20.605h.19M25.01 20.605l.095-.048M25.105 20.557l.047-.047M25.153 20.51l.047-.096M25.2 20.414v-.238M25.2 20.176l-.047-.095M25.153 20.081l-.048-.048M25.105 20.033l-.095-.047M25.01 19.986h-.19M24.82 19.986l-.096.047M24.724 20.033l-.048.048M24.676 20.081l-.047.095M26.057 19.938v.667M25.82 19.557l-.239.715M25.581 20.272h.62M26.486 20.605l.524-.667M26.486 19.938l.524.667M27.914 20.605h-.571M27.629 20.605v-1M27.629 19.605l-.096.143M27.534 19.748l-.096.095M27.438 19.843l-.095.047M28.295 19.7l.048-.048M28.343 19.652l.095-.047M28.438 19.605h.238M28.676 19.605l.096.047M28.772 19.652l.047.048M28.82 19.7l.047.095M28.867 19.795v.095M28.867 19.89l-.048.143M28.82 20.033l-.572.572M28.248 20.605h.619M29.438 20.033l-.095-.047M29.343 19.986l-.048-.048M29.295 19.938l-.047-.095M29.248 19.843v-.048M29.248 19.795l.047-.095M29.295 19.7l.048-.048M29.343 19.652l.095-.047M29.438 19.605h.19M29.629 19.605l.095.047M29.724 19.652l.048.048M29.772 19.7l.047.095M29.82 19.795v.048M29.82 19.843l-.048.095M29.772 19.938l-.048.048M29.724 19.986l-.095.047M29.629 20.033h-.19M29.438 20.033l-.095.048M29.343 20.081l-.048.048M29.295 20.129l-.047.095M29.248 20.224v.19M29.248 20.414l.047.096M29.295 20.51l.048.047M29.343 20.557l.095.048M29.438 20.605h.19M29.629 20.605l.095-.048M29.724 20.557l.048-.047M29.772 20.51l.047-.096M29.82 20.414v-.19M29.82 20.224l-.048-.095M29.772 20.129l-.048-.048M29.724 20.081l-.095-.048M30.01 20.7h.762M31.01 20.605v-1M31.438 19.7l.048-.048M31.486 19.652l.095-.047M31.581 19.605h.238M31.82 19.605l.094.047M31.914 19.652l.048.048M31.962 19.7l.048.095M32.01 19.795v.095M32.01 19.89l-.048.143M31.962 20.033l-.571.572M31.39 20.605h.62M33.01 20.51l-.048.047M32.962 20.557l-.143.048M32.82 20.605h-.096M32.724 20.605l-.143-.048M32.581 20.557l-.095-.095M32.486 20.462l-.048-.095M32.438 20.367l-.047-.19M32.39 20.176v-.143M32.39 20.033l.048-.19M32.438 19.843l.048-.095M32.486 19.748l.095-.096M32.581 19.652l.143-.047M32.724 19.605h.095M32.82 19.605l.142.047M32.962 19.652l.048.048M33.2 20.7h.762M34.2 19.938v.667M34.2 20.033l.048-.047M34.248 19.986l.095-.048M34.343 19.938h.143M34.486 19.938l.095.048M34.581 19.986l.048.095M34.629 20.081v.524M35.057 20.557l.143.048M35.2 20.605h.238M35.438 20.605l.095-.048M35.534 20.557l.047-.047M35.581 20.51l.048-.096M35.629 20.414v-.095M35.629 20.32l-.048-.096M35.581 20.224l-.048-.048M35.534 20.176l-.096-.047M35.438 20.129l-.19-.048M35.248 20.081l-.095-.048M35.153 20.033l-.048-.047M35.105 19.986l-.048-.096M35.057 19.89v-.095M35.057 19.795l.048-.095M35.105 19.7l.048-.048M35.153 19.652l.095-.047M35.248 19.605h.238M35.486 19.605l.143.047M36.057 20.605v-.667M36.057 19.605l-.047.047M36.01 19.652l.047.048M36.057 19.7l.048-.048M36.105 19.652l-.048-.047M36.057 19.605v.095M36.676 20.605l-.095-.048M36.581 20.557l-.048-.095M36.534 20.462v-.857M37.057 20.605v-1M37.153 20.224l.285.38M37.438 19.938l-.38.381"/>
        </g>
        <g class="stroked-text">
            <path d="m21.105 22.105-.333-.476M20.534 22.105v-1M20.534 21.105h.38M20.914 21.105l.096.047M21.01 21.152l.047.048M21.057 21.2l.048.095M21.105 21.295v.143M21.105 21.438l-.048.095M21.057 21.533l-.047.048M21.01 21.581l-.096.048M20.914 21.629h-.38M21.534 21.581h.333M22.01 22.105h-.477M21.534 22.105v-1M21.534 21.105h.476M22.772 21.581h-.334M22.438 22.105v-1M22.438 21.105h.476M23.438 21.105v.238M23.2 21.248l.238.095M23.438 21.343l.238-.095M23.295 21.533l.143-.19M23.438 21.343l.143.19M24.2 21.105v.238M23.962 21.248l.238.095M24.2 21.343l.238-.095M24.057 21.533l.143-.19M24.2 21.343l.143.19"/>
        </g>
        <path d="M1.738.05h42v19h-42Z" style="stroke:#afafaf;stroke-width:.1;stroke-opacity:1;stroke-linecap:round;stroke-linejoin:round;fill:none"/>
        <path d="M4.138 3.55h38v12h-38Z" style="stroke:#afafaf;stroke-width:.1;stroke-opacity:1;stroke-linecap:round;stroke-linejoin:round;fill:none"/>
        <path d="M6.238 1h35.8v17.1h-35.8Z" style="stroke:#afafaf;stroke-width:.1;stroke-opacity:1;stroke-linecap:round;stroke-linejoin:round;fill:none"/>
    </g>
    <g style="fill:none;stroke:#afafaf;stroke-width:.1;stroke-opacity:1;stroke-linecap:round;stroke-linejoin:round">
        <path d="M7.438 1.9h1.1M8.938 1.9h1.1M10.438 1.9h1.1M11.938 1.9h1.1M13.438 1.9h1.1M14.938 1.9h1.1M16.438 1.9h1.1M17.938 1.9h1.1M19.438 1.9h1.1M20.938 1.9h1.1M22.438 1.9h1.1M23.938 1.9h1.1M25.438 1.9h1.1M26.938 1.9h1.1M28.438 1.9h1.1M29.938 1.9h1.1M31.438 1.9h1.1M32.938 1.9h1.1M34.438 1.9h1.1M35.938 1.9h1.1"/>
    </g>
    <circle cx="37.438" cy="1.9" r=".05" style="fill:#afafaf;fill-opacity:1;stroke:none"/>
    <g style="fill:none;stroke:#afafaf;stroke-width:.1;stroke-opacity:1;stroke-linecap:round;stroke-linejoin:round">
        <path d="M37.438 1.9V3M37.438 3.4v1.1M37.438 4.9V6M37.438 6.4v1.1M37.438 7.9V9M37.438 9.4v1.1M37.438 10.9V12M37.438 12.4v1.1M37.438 13.9V15M37.438 15.4v1.1M37.438 16.9v.3M37.438 17.2h-1.1M35.938 17.2h-1.1M34.438 17.2h-1.1M32.938 17.2h-1.1M31.438 17.2h-1.1M29.938 17.2h-1.1M28.438 17.2h-1.1M26.938 17.2h-1.1M25.438 17.2h-1.1M23.938 17.2h-1.1M22.438 17.2h-1.1M20.938 17.2h-1.1M19.438 17.2h-1.1M17.938 17.2h-1.1M16.438 17.2h-1.1M14.938 17.2h-1.1M13.438 17.2h-1.1M11.938 17.2h-1.1M10.438 17.2h-1.1M8.938 17.2h-1.1"/>
    </g>
    <circle cx="7.438" cy="17.2" r=".05" style="fill:#afafaf;fill-opacity:1;stroke:none"/>
    <g style="fill:none;stroke:#afafaf;stroke-width:.1;stroke-opacity:1;stroke-linecap:round;stroke-linejoin:round">
        <path d="M7.438 17.2v-1.1M7.438 15.7v-1.1M7.438 14.2v-1.1M7.438 12.7v-1.1M7.438 11.2v-1.1M7.438 9.7V8.6M7.438 8.2V7.1M7.438 6.7V5.6M7.438 5.2V4.1M7.438 3.7V2.6M7.438 2.2v-.3"/>
        <path d="M9.138 4.05h30v11.5h-30Z" style="stroke:#afafaf;stroke-width:.1;stroke-opacity:1;stroke-linecap:round;stroke-linejoin:round;fill:none"/>
        <path d="M10.248 6.01h1.1M11.748 6.01h1.1M13.248 6.01h1.1M14.748 6.01h1.1M16.248 6.01h1.1M17.748 6.01h1.1M19.248 6.01h1.1M20.748 6.01h1.1M22.248 6.01h1.1M23.748 6.01h1.1M25.248 6.01h1.1M26.748 6.01h1.1M28.248 6.01h1.1M29.748 6.01h1.1M31.248 6.01h1.1M32.748 6.01h1.1M34.248 6.01h.38M34.628 6.01v1.1M34.628 7.51v1.1M34.628 9.01v1.1M34.628 10.51v1.1M34.628 12.01v1.1M34.628 13.51v.08M34.628 13.59h-1.1M33.128 13.59h-1.1M31.628 13.59h-1.1M30.128 13.59h-1.1M28.628 13.59h-1.1M27.128 13.59h-1.1M25.628 13.59h-1.1M24.128 13.59h-1.1M22.628 13.59h-1.1M21.128 13.59h-1.1M19.628 13.59h-1.1M18.128 13.59h-1.1M16.628 13.59h-1.1M15.128 13.59h-1.1M13.628 13.59h-1.1M12.128 13.59h-1.1M10.628 13.59h-.38M10.248 13.59v-1.1M10.248 12.09v-1.1M10.248 10.59v-1.1M10.248 9.09v-1.1M10.248 7.59v-1.1M10.248 6.09v-.08"/>
        <circle cx="3.738" cy="2.05" r="1.1"/>
        <circle cx="3.738" cy="17.05" r="1.1"/>
    </g>
    <g style="fill:none;stroke:#afafaf;stroke-width:.0806;stroke-opacity:1;stroke-linecap:round;stroke-linejoin:round">
        <g class="stroked-text">
            <path d="M4.114 13.803h-.552M3.838 13.803v-.967M3.838 12.836l-.092.138M3.746 12.974l-.092.092M3.654 13.067l-.092.046"/>
        </g>
        <path d="m4.438 12.51.115.008.178.044.165.082.143.115.115.143.082.165.045.178.007.115-.008.115-.044.178-.082.165-.115.143-.143.115-.165.082-.178.044-.115.008h-1.2l-.115-.008-.178-.044-.164-.082-.144-.115-.115-.143-.082-.165-.044-.178-.008-.115.008-.115.044-.178.082-.165.115-.143.143-.115.165-.082.179-.044.114-.008Z" style="stroke:#afafaf;stroke-width:.0212;stroke-opacity:1;stroke-linecap:round;stroke-linejoin:round;fill:none"/>
    </g>
    <g style="fill:none;stroke:#afafaf;stroke-width:.0806;stroke-opacity:1;stroke-linecap:round;stroke-linejoin:round">
        <g class="stroked-text">
            <path d="M5.114 13.803h-.552M4.838 13.803v-.967M4.838 12.836l-.092.138M4.746 12.974l-.092.092M4.654 13.067l-.092.046"/>
        </g>
        <path d="m5.438 12.51.115.008.178.044.165.082.143.115.115.143.082.165.045.178.007.115-.008.115-.044.178-.082.165-.115.143-.143.115-.165.082-.178.044-.115.008h-1.2l-.115-.008-.178-.044-.164-.082-.144-.115-.115-.143-.082-.165-.044-.178-.008-.115.008-.115.044-.178.082-.165.115-.143.143-.115.165-.082.179-.044.114-.008Z" style="stroke:#afafaf;stroke-width:.0212;stroke-opacity:1;stroke-linecap:round;stroke-linejoin:round;fill:none"/>
    </g>
    <g style="fill:none;stroke:#afafaf;stroke-width:.0806;stroke-opacity:1;stroke-linecap:round;stroke-linejoin:round">
        <g class="stroked-text">
            <path d="m3.562 10.388.046-.046M3.608 10.342l.092-.046M3.7 10.296h.23M3.93 10.296l.092.046M4.022 10.342l.046.046M4.068 10.388l.046.092M4.114 10.48v.092M4.114 10.573l-.046.138M4.068 10.71l-.552.553M3.516 11.263h.598"/>
        </g>
        <path d="m4.438 9.97.115.008.178.044.165.082.143.115.115.143.082.165.045.178.007.115-.008.115-.044.178-.082.165-.115.143-.143.115-.165.082-.178.044-.115.008h-1.2l-.115-.008-.178-.044-.164-.082-.144-.115-.115-.143-.082-.165-.044-.178-.008-.115.008-.115.044-.178.082-.165.115-.143.143-.115.165-.082.179-.044.114-.008Z" style="stroke:#afafaf;stroke-width:.0212;stroke-opacity:1;stroke-linecap:round;stroke-linejoin:round;fill:none"/>
    </g>
    <g style="fill:none;stroke:#afafaf;stroke-width:.0806;stroke-opacity:1;stroke-linecap:round;stroke-linejoin:round">
        <g class="stroked-text">
            <path d="m4.562 10.388.046-.046M4.608 10.342l.092-.046M4.7 10.296h.23M4.93 10.296l.092.046M5.022 10.342l.046.046M5.068 10.388l.046.092M5.114 10.48v.092M5.114 10.573l-.046.138M5.068 10.71l-.552.553M4.516 11.263h.598"/>
        </g>
        <path d="m5.438 9.97.115.008.178.044.165.082.143.115.115.143.082.165.045.178.007.115-.008.115-.044.178-.082.165-.115.143-.143.115-.165.082-.178.044-.115.008h-1.2l-.115-.008-.178-.044-.164-.082-.144-.115-.115-.143-.082-.165-.044-.178-.008-.115.008-.115.044-.178.082-.165.115-.143.143-.115.165-.082.179-.044.114-.008Z" style="stroke:#afafaf;stroke-width:.0212;stroke-opacity:1;stroke-linecap:round;stroke-linejoin:round;fill:none"/>
    </g>
    <g style="fill:none;stroke:#afafaf;stroke-width:.0806;stroke-opacity:1;stroke-linecap:round;stroke-linejoin:round">
        <g class="stroked-text">
            <path d="M3.516 7.756h.598M4.114 7.756l-.322.369M3.792 8.125h.138M3.93 8.125l.092.046M4.022 8.17l.046.047M4.068 8.217l.046.092M4.114 8.309v.23M4.114 8.539l-.046.092M4.068 8.63l-.046.047M4.022 8.677l-.092.046M3.93 8.723h-.276M3.654 8.723l-.092-.046M3.562 8.677l-.046-.046"/>
        </g>
        <path d="m4.438 7.43.115.008.178.044.165.082.143.115.115.143.082.165.045.178.007.115-.008.115-.044.178-.082.165-.115.143-.143.115-.165.082-.178.044-.115.008h-1.2l-.115-.008-.178-.044-.164-.082-.144-.115-.115-.143-.082-.165-.044-.178-.008-.115.008-.115.044-.178.082-.165.115-.143.143-.115.165-.082.179-.044.114-.008Z" style="stroke:#afafaf;stroke-width:.0212;stroke-opacity:1;stroke-linecap:round;stroke-linejoin:round;fill:none"/>
    </g>
    <g style="fill:none;stroke:#afafaf;stroke-width:.0806;stroke-opacity:1;stroke-linecap:round;stroke-linejoin:round">
        <g class="stroked-text">
            <path d="M4.516 7.756h.598M5.114 7.756l-.322.369M4.792 8.125h.138M4.93 8.125l.092.046M5.022 8.17l.046.047M5.068 8.217l.046.092M5.114 8.309v.23M5.114 8.539l-.046.092M5.068 8.63l-.046.047M5.022 8.677l-.092.046M4.93 8.723h-.276M4.654 8.723l-.092-.046M4.562 8.677l-.046-.046"/>
        </g>
        <path d="m5.438 7.43.115.008.178.044.165.082.143.115.115.143.082.165.045.178.007.115-.008.115-.044.178-.082.165-.115.143-.143.115-.165.082-.178.044-.115.008h-1.2l-.115-.008-.178-.044-.164-.082-.144-.115-.115-.143-.082-.165-.044-.178-.008-.115.008-.115.044-.178.082-.165.115-.143.143-.115.165-.082.179-.044.114-.008Z" style="stroke:#afafaf;stroke-width:.0212;stroke-opacity:1;stroke-linecap:round;stroke-linejoin:round;fill:none"/>
    </g>
    <g style="fill:none;stroke:#afafaf;stroke-width:.0806;stroke-opacity:1;stroke-linecap:round;stroke-linejoin:round">
        <g class="stroked-text">
            <path d="M4.022 5.539v.644M3.792 5.17l-.23.69M3.562 5.86h.599"/>
        </g>
        <path d="m4.438 4.89.115.008.178.044.165.082.143.115.115.143.082.165.045.178.007.115-.008.115-.044.178-.082.165-.115.143-.143.115-.165.082-.178.044-.115.008h-1.2l-.115-.008-.178-.044-.164-.082-.144-.115-.115-.143-.082-.165-.044-.178-.008-.115.008-.115.044-.178.082-.165.115-.143.143-.115.165-.082.179-.044.114-.008Z" style="stroke:#afafaf;stroke-width:.0212;stroke-opacity:1;stroke-linecap:round;stroke-linejoin:round;fill:none"/>
    </g>
    <g style="fill:none;stroke:#afafaf;stroke-width:.0806;stroke-opacity:1;stroke-linecap:round;stroke-linejoin:round">
        <g class="stroked-text">
            <path d="M5.022 5.539v.644M4.792 5.17l-.23.69M4.562 5.86h.598"/>
        </g>
        <path d="m5.438 4.89.115.008.178.044.165.082.143.115.115.143.082.165.045.178.007.115-.008.115-.044.178-.082.165-.115.143-.143.115-.165.082-.178.044-.115.008h-1.2l-.115-.008-.178-.044-.164-.082-.144-.115-.115-.143-.082-.165-.044-.178-.008-.115.008-.115.044-.178.082-.165.115-.143.143-.115.165-.082.179-.044.114-.008Z" style="stroke:#afafaf;stroke-width:.0212;stroke-opacity:1;stroke-linecap:round;stroke-linejoin:round;fill:none"/>
        <path d="M7.438 1.9h30v15.3h-30Z" style="stroke:#c2c2c2;stroke-width:.05;stroke-opacity:1;stroke-linecap:round;stroke-linejoin:round;fill:none"/>
        <path d="M10.248 6.01h24.38v7.58h-24.38Z" style="stroke:#c2c2c2;stroke-width:.05;stroke-opacity:1;stroke-linecap:round;stroke-linejoin:round;fill:none"/>
    </g>
</svg>
