<svg xmlns="http://www.w3.org/2000/svg" width="151.776" height="58.368" viewBox="0 0 40.157 15.443">
    <g style="fill:none;stroke:#f2eda1;stroke-width:.15;stroke-opacity:1;stroke-linecap:round;stroke-linejoin:round">
        <g class="stroked-text">
            <path d="m1.303 7.633-.476.334M1.303 8.205h-1M.303 8.205v-.381M.303 7.824l.048-.095M.35 7.729l.048-.048M.398 7.681l.095-.048M.494 7.633h.142M.636 7.633l.096.048M.732 7.681l.047.048M.78 7.729l.047.095M.827 7.824v.38M.78 7.205V6.87M1.303 6.729v.476M1.303 7.205h-1M.303 7.205v-.476M.78 5.967V6.3M1.303 6.3h-1M.303 6.3v-.476M.303 5.3h.238M.446 5.538.54 5.3M.541 5.3l-.095-.238M.732 5.443.542 5.3M.541 5.3l.19-.143M.303 4.538h.238M.446 4.776l.095-.238M.541 4.538.446 4.3M.732 4.681l-.19-.143M.541 4.538l.19-.143"/>
        </g>
    </g>
    <circle cx="3.388" cy="9.86" r=".85" style="fill:#4d7fc4;fill-opacity:1;stroke:none"/>
    <circle cx="3.388" cy="7.32" r=".85" style="fill:#4d7fc4;fill-opacity:1;stroke:none"/>
    <circle cx="3.388" cy="4.78" r=".85" style="fill:#4d7fc4;fill-opacity:1;stroke:none"/>
    <circle cx="3.388" cy="2.24" r=".85" style="fill:#4d7fc4;fill-opacity:1;stroke:none"/>
    <circle cx="3.388" cy="9.86" r=".85" style="fill:#c83434;fill-opacity:1;stroke:none"/>
    <circle cx="3.388" cy="7.32" r=".85" style="fill:#c83434;fill-opacity:1;stroke:none"/>
    <circle cx="3.388" cy="4.78" r=".85" style="fill:#c83434;fill-opacity:1;stroke:none"/>
    <circle cx="3.388" cy="2.24" r=".85" style="fill:#c83434;fill-opacity:1;stroke:none"/>
    <g class="stroked-text" style="fill:none;stroke:#585d84;stroke-width:.0472;stroke-opacity:1;stroke-linecap:round;stroke-linejoin:round">
        <path d="M3.55 10.12h-.324M3.388 10.12v-.567M3.388 9.553l-.054.081M3.334 9.634l-.054.054M3.28 9.688l-.054.027"/>
    </g>
    <circle cx="3.388" cy="9.86" r=".85" style="fill:none;stroke:#585d84;stroke-width:.0212;stroke-opacity:1;stroke-linecap:round;stroke-linejoin:round"/>
    <g class="stroked-text" style="fill:none;stroke:#585d84;stroke-width:.0472;stroke-opacity:1;stroke-linecap:round;stroke-linejoin:round">
        <path d="m3.226 7.067.027-.027M3.253 7.04l.054-.027M3.307 7.013h.135M3.442 7.013l.054.027M3.496 7.04l.027.027M3.523 7.067l.027.054M3.55 7.121v.054M3.55 7.175l-.027.08M3.523 7.256 3.2 7.58M3.2 7.58h.35"/>
    </g>
    <circle cx="3.388" cy="7.32" r=".85" style="fill:none;stroke:#585d84;stroke-width:.0212;stroke-opacity:1;stroke-linecap:round;stroke-linejoin:round"/>
    <g class="stroked-text" style="fill:none;stroke:#585d84;stroke-width:.0472;stroke-opacity:1;stroke-linecap:round;stroke-linejoin:round">
        <path d="M3.2 4.473h.35M3.55 4.473l-.189.216M3.361 4.689h.081M3.442 4.689l.054.027M3.496 4.716l.027.027M3.523 4.743l.027.054M3.55 4.797v.135M3.55 4.932l-.027.054M3.523 4.986l-.027.027M3.496 5.013l-.054.027M3.442 5.04H3.28M3.28 5.04l-.054-.027M3.226 5.013 3.2 4.986"/>
    </g>
    <circle cx="3.388" cy="4.78" r=".85" style="fill:none;stroke:#585d84;stroke-width:.0212;stroke-opacity:1;stroke-linecap:round;stroke-linejoin:round"/>
    <g class="stroked-text" style="fill:none;stroke:#585d84;stroke-width:.0472;stroke-opacity:1;stroke-linecap:round;stroke-linejoin:round">
        <path d="M3.496 2.122V2.5M3.361 1.906l-.135.405M3.226 2.31h.351"/>
    </g>
    <circle cx="3.388" cy="2.24" r=".85" style="fill:none;stroke:#585d84;stroke-width:.0212;stroke-opacity:1;stroke-linecap:round;stroke-linejoin:round"/>
    <g style="fill:none;stroke:#afafaf;stroke-width:.15;stroke-opacity:1;stroke-linecap:round;stroke-linejoin:round">
        <g class="stroked-text">
            <path d="M4.633 12.555h.19M4.823 12.555l.095.047M4.918 12.602l.095.096M5.014 12.698l.047.19M5.061 12.888v.334M5.061 13.222l-.048.19M5.014 13.412l-.096.095M4.918 13.507l-.095.048M4.823 13.555h-.19M4.633 13.555l-.096-.048M4.537 13.507l-.095-.095M4.442 13.412l-.048-.19M4.394 13.222v-.334M4.394 12.888l.048-.19M4.442 12.698l.095-.096M4.537 12.602l.096-.047M5.966 13.555H5.49M5.49 13.555v-1M6.3 13.031h.333M6.775 13.555H6.3M6.3 13.555v-1M6.3 12.555h.475M7.204 13.555v-1M7.204 12.555h.238M7.442 12.555l.143.047M7.585 12.602l.095.096M7.68 12.698l.048.095M7.728 12.793l.047.19M7.775 12.983v.143M7.775 13.126l-.047.19M7.728 13.317l-.048.095M7.68 13.412l-.095.095M7.585 13.507l-.143.048M7.442 13.555h-.238M7.966 13.65h.762M8.918 13.507l.143.048M9.061 13.555H9.3M9.3 13.555l.094-.048M9.394 13.507l.048-.047M9.442 13.46l.048-.096M9.49 13.364v-.095M9.49 13.27l-.048-.096M9.442 13.174l-.048-.048M9.394 13.126 9.3 13.08M9.3 13.079l-.191-.048M9.109 13.031l-.095-.048M9.014 12.983l-.048-.047M8.966 12.936l-.048-.095M8.918 12.84v-.095M8.918 12.745l.048-.095M8.966 12.65l.048-.048M9.014 12.602l.095-.047M9.109 12.555h.238M9.347 12.555l.143.047M9.87 13.507l.144.048M10.014 13.555h.238M10.252 13.555l.095-.048M10.347 13.507l.047-.047M10.394 13.46l.048-.096M10.442 13.364v-.095M10.442 13.27l-.048-.096M10.394 13.174l-.047-.048M10.347 13.126l-.095-.047M10.252 13.079l-.19-.048M10.061 13.031l-.095-.048M9.966 12.983l-.048-.047M9.918 12.936l-.047-.095M9.87 12.84v-.095M9.87 12.745l.048-.095M9.918 12.65l.048-.048M9.966 12.602l.095-.047M10.061 12.555h.238M10.3 12.555l.142.047M10.87 13.555v-1M10.87 12.555h.239M11.109 12.555l.143.047M11.252 12.602l.095.096M11.347 12.698l.047.095M11.394 12.793l.048.19M11.442 12.983v.143M11.442 13.126l-.048.19M11.394 13.317l-.047.095M11.347 13.412l-.095.095M11.252 13.507l-.143.048M11.109 13.555h-.238M12.394 13.555h-.571M12.109 13.555v-1M12.109 12.555l-.095.143M12.014 12.698l-.096.095M11.918 12.793l-.095.048M12.728 12.555h.619M13.347 12.555l-.333.38M13.014 12.936h.142M13.156 12.936l.096.047M13.252 12.983l.047.048M13.3 13.031l.047.095M13.347 13.126v.238M13.347 13.364l-.048.096M13.3 13.46l-.048.047M13.252 13.507l-.096.048M13.156 13.555h-.285M12.87 13.555l-.095-.048M12.775 13.507l-.047-.047M13.966 12.555h.095M14.061 12.555l.095.047M14.156 12.602l.048.048M14.204 12.65l.048.095M14.252 12.745l.047.19M14.3 12.936v.238M14.3 13.174l-.048.19M14.252 13.364l-.048.096M14.204 13.46l-.048.047M14.156 13.507l-.095.048M14.061 13.555h-.095M13.966 13.555l-.095-.048M13.87 13.507l-.047-.047M13.823 13.46l-.048-.096M13.775 13.364l-.047-.19M13.728 13.174v-.238M13.728 12.936l.047-.19M13.775 12.745l.048-.095M13.823 12.65l.048-.048M13.87 12.602l.096-.047M15.156 12.555h-.19M14.966 12.555l-.095.047M14.87 12.602l-.047.048M14.823 12.65l-.095.143M14.728 12.793l-.048.19M14.68 12.983v.381M14.68 13.364l.048.096M14.728 13.46l.047.047M14.775 13.507l.096.048M14.87 13.555h.191M15.061 13.555l.095-.048M15.156 13.507l.048-.047M15.204 13.46l.048-.096M15.252 13.364v-.238M15.252 13.126l-.048-.095M15.204 13.031l-.048-.048M15.156 12.983l-.095-.047M15.061 12.936h-.19M14.87 12.936l-.095.047M14.775 12.983l-.047.048M14.728 13.031l-.048.095M15.442 13.65h.762M16.966 13.555h-.572M16.68 13.555v-1M16.68 12.555l-.095.143M16.585 12.698l-.095.095M16.49 12.793l-.096.048M17.347 12.65l.047-.048M17.394 12.602l.096-.047M17.49 12.555h.238M17.728 12.555l.095.047M17.823 12.602l.048.048M17.87 12.65l.048.095M17.918 12.745v.096M17.918 12.84l-.047.143M17.87 12.983l-.57.572M17.3 13.555h.618M18.49 12.983l-.096-.047M18.394 12.936l-.047-.048M18.347 12.888l-.048-.095M18.3 12.793v-.048M18.3 12.745l.047-.095M18.347 12.65l.047-.048M18.394 12.602l.096-.047M18.49 12.555h.19M18.68 12.555l.095.047M18.775 12.602l.048.048M18.823 12.65l.048.095M18.87 12.745v.048M18.87 12.793l-.047.095M18.823 12.888l-.048.048M18.775 12.936l-.095.047M18.68 12.983h-.19M18.49 12.983l-.096.048M18.394 13.031l-.047.048M18.347 13.079l-.048.095M18.3 13.174v.19M18.3 13.364l.047.096M18.347 13.46l.047.047M18.394 13.507l.096.048M18.49 13.555h.19M18.68 13.555l.095-.048M18.775 13.507l.048-.047M18.823 13.46l.048-.096M18.87 13.364v-.19M18.87 13.174l-.047-.095M18.823 13.079l-.048-.048M18.775 13.031l-.095-.048M19.204 13.555l.524-.667M19.204 12.888l.524.667M20.014 12.555h.619M20.633 12.555l-.334.38M20.3 12.936h.142M20.442 12.936l.095.047M20.537 12.983l.048.048M20.585 13.031l.047.095M20.633 13.126v.238M20.633 13.364l-.048.096M20.585 13.46l-.048.047M20.537 13.507l-.095.048M20.442 13.555h-.286M20.156 13.555l-.095-.048M20.061 13.507l-.047-.047M21.014 12.65l.047-.048M21.061 12.602l.095-.047M21.156 12.555h.238M21.394 12.555l.096.047M21.49 12.602l.047.048M21.537 12.65l.048.095M21.585 12.745v.096M21.585 12.84l-.048.143M21.537 12.983l-.571.572M20.966 13.555h.619M21.775 13.65h.762M22.966 12.555h.095M23.061 12.555l.095.047M23.156 12.602l.048.048M23.204 12.65l.048.095M23.252 12.745l.047.19M23.3 12.936v.238M23.3 13.174l-.048.19M23.252 13.364l-.048.096M23.204 13.46l-.048.047M23.156 13.507l-.095.048M23.061 13.555h-.095M22.966 13.555l-.095-.048M22.87 13.507l-.047-.047M22.823 13.46l-.048-.096M22.775 13.364l-.047-.19M22.728 13.174v-.238M22.728 12.936l.047-.19M22.775 12.745l.048-.095M22.823 12.65l.048-.048M22.87 12.602l.096-.047M23.728 13.46l.047.047M23.775 13.507l-.047.048M23.728 13.555l-.048-.048M23.68 13.507l.048-.047M23.728 13.46v.095M24.252 13.555h.19M24.442 13.555l.095-.048M24.537 13.507l.048-.047M24.585 13.46l.095-.143M24.68 13.317l.048-.19M24.728 13.126v-.38M24.728 12.745l-.048-.095M24.68 12.65l-.047-.048M24.633 12.602l-.096-.047M24.537 12.555h-.19M24.347 12.555l-.095.047M24.252 12.602l-.048.048M24.204 12.65l-.048.095M24.156 12.745v.238M24.156 12.983l.048.096M24.204 13.079l.048.047M24.252 13.126l.095.048M24.347 13.174h.19M24.537 13.174l.096-.048M24.633 13.126l.047-.047M24.68 13.079l.048-.096M25.68 13.555h-.571M25.394 13.555v-1M25.394 12.555l-.095.143M25.3 12.698l-.096.095M25.204 12.793l-.095.048M26.109 13.555v-.667M26.109 12.555l-.048.047M26.061 12.602l.048.048M26.109 12.65l.047-.048M26.156 12.602l-.047-.047M26.109 12.555v.095M26.585 12.888v.667M26.585 12.983l.047-.047M26.633 12.936l.095-.048M26.728 12.888h.143M26.87 12.888l.096.048M26.966 12.936l.047.095M27.014 13.031v.524M27.918 13.507l-.095.048M27.823 13.555h-.19M27.633 13.555l-.096-.048M27.537 13.507l-.047-.047M27.49 13.46l-.048-.096M27.442 13.364v-.285M27.442 13.079l.048-.096M27.49 12.983l.047-.047M27.537 12.936l.096-.048M27.633 12.888h.19M27.823 12.888l.095.048M28.347 13.555v-1M28.775 13.555v-.524M28.775 13.031l-.047-.095M28.728 12.936l-.096-.048M28.633 12.888h-.143M28.49 12.888l-.096.048M28.394 12.936l-.047.047M29.014 13.65h.761M30.014 13.555v-1M30.442 12.65l.048-.048M30.49 12.602l.095-.047M30.585 12.555h.238M30.823 12.555l.095.047M30.918 12.602l.048.048M30.966 12.65l.047.095M31.014 12.745v.096M31.014 12.84l-.048.143M30.966 12.983l-.572.572M30.394 13.555h.62M32.014 13.46l-.048.047M31.966 13.507l-.143.048M31.823 13.555h-.095M31.728 13.555l-.143-.048M31.585 13.507l-.095-.095M31.49 13.412l-.048-.095M31.442 13.317l-.048-.19M31.394 13.126v-.143M31.394 12.983l.048-.19M31.442 12.793l.048-.095M31.49 12.698l.095-.096M31.585 12.602l.143-.047M31.728 12.555h.095M31.823 12.555l.143.047M31.966 12.602l.047.048M32.204 13.65h.762M33.204 12.888v.667M33.204 12.983l.048-.047M33.252 12.936l.095-.048M33.347 12.888h.143M33.49 12.888l.095.048M33.585 12.936l.047.095M33.633 13.031v.524M34.061 13.507l.143.048M34.204 13.555h.238M34.442 13.555l.095-.048M34.537 13.507l.048-.047M34.585 13.46l.047-.096M34.633 13.364v-.095M34.633 13.27l-.048-.096M34.585 13.174l-.048-.048M34.537 13.126l-.095-.047M34.442 13.079l-.19-.048M34.252 13.031l-.096-.048M34.156 12.983l-.047-.047M34.109 12.936l-.048-.095M34.061 12.84v-.095M34.061 12.745l.048-.095M34.109 12.65l.047-.048M34.156 12.602l.096-.047M34.252 12.555h.238M34.49 12.555l.142.047M35.061 13.555v-.667M35.061 12.555l-.047.047M35.014 12.602l.047.048M35.061 12.65l.048-.048M35.109 12.602l-.048-.047M35.061 12.555v.095M35.68 13.555l-.095-.048M35.585 13.507l-.048-.095M35.537 13.412v-.857M36.061 13.555v-1M36.156 13.174l.286.38M36.442 12.888l-.38.381"/>
        </g>
        <g class="stroked-text">
            <path d="m19.085 15.055-.333-.476M18.514 15.055v-1M18.514 14.055h.38M18.894 14.055l.096.047M18.99 14.102l.047.048M19.037 14.15l.048.095M19.085 14.245v.143M19.085 14.388l-.048.095M19.037 14.483l-.047.048M18.99 14.531l-.096.048M18.894 14.579h-.38M19.514 14.531h.333M19.99 15.055h-.476M19.514 15.055v-1M19.514 14.055h.476M20.752 14.531h-.334M20.418 15.055v-1M20.418 14.055h.476M21.418 14.055v.238M21.18 14.198l.238.095M21.418 14.293l.238-.095M21.275 14.483l.143-.19M21.418 14.293l.143.19M22.18 14.055v.238M21.942 14.198l.238.095M22.18 14.293l.238-.095M22.037 14.483l.143-.19M22.18 14.293l.143.19"/>
        </g>
        <path d="M2.118.05h38v12h-38Z" style="stroke:#afafaf;stroke-width:.1;stroke-opacity:1;stroke-linecap:round;stroke-linejoin:round;fill:none"/>
        <path d="M7.118.55h30v11.5h-30Z" style="stroke:#afafaf;stroke-width:.1;stroke-opacity:1;stroke-linecap:round;stroke-linejoin:round;fill:none"/>
    </g>
    <g style="fill:none;stroke:#afafaf;stroke-width:.1;stroke-opacity:1;stroke-linecap:round;stroke-linejoin:round">
        <path d="M8.228 2.51h1.1M9.728 2.51h1.1M11.228 2.51h1.1M12.728 2.51h1.1M14.228 2.51h1.1M15.728 2.51h1.1M17.228 2.51h1.1M18.728 2.51h1.1M20.228 2.51h1.1M21.728 2.51h1.1M23.228 2.51h1.1M24.728 2.51h1.1M26.228 2.51h1.1M27.728 2.51h1.1M29.228 2.51h1.1M30.728 2.51h1.1M32.228 2.51h.38M32.608 2.51v1.1M32.608 4.01v1.1M32.608 5.51v1.1M32.608 7.01v1.1M32.608 8.51v1.1M32.608 10.01v.08M32.608 10.09h-1.1M31.108 10.09h-1.1M29.608 10.09h-1.1M28.108 10.09h-1.1M26.608 10.09h-1.1M25.108 10.09h-1.1M23.608 10.09h-1.1M22.108 10.09h-1.1M20.608 10.09h-1.1M19.108 10.09h-1.1M17.608 10.09h-1.1M16.108 10.09h-1.1M14.608 10.09h-1.1M13.108 10.09h-1.1M11.608 10.09h-1.1M10.108 10.09h-1.1M8.608 10.09h-.38M8.228 10.09v-1.1M8.228 8.59v-1.1M8.228 7.09v-1.1M8.228 5.59v-1.1M8.228 4.09v-1.1M8.228 2.59v-.08"/>
    </g>
    <g class="stroked-text" style="fill:none;stroke:#afafaf;stroke-width:.0472;stroke-opacity:1;stroke-linecap:round;stroke-linejoin:round">
        <path d="M3.55 10.12h-.324M3.388 10.12v-.567M3.388 9.553l-.054.081M3.334 9.634l-.054.054M3.28 9.688l-.054.027"/>
    </g>
    <circle cx="3.388" cy="9.86" r=".85" style="fill:none;stroke:#afafaf;stroke-width:.0212;stroke-opacity:1;stroke-linecap:round;stroke-linejoin:round"/>
    <g class="stroked-text" style="fill:none;stroke:#afafaf;stroke-width:.0472;stroke-opacity:1;stroke-linecap:round;stroke-linejoin:round">
        <path d="m3.226 7.067.027-.027M3.253 7.04l.054-.027M3.307 7.013h.135M3.442 7.013l.054.027M3.496 7.04l.027.027M3.523 7.067l.027.054M3.55 7.121v.054M3.55 7.175l-.027.08M3.523 7.256 3.2 7.58M3.2 7.58h.35"/>
    </g>
    <circle cx="3.388" cy="7.32" r=".85" style="fill:none;stroke:#afafaf;stroke-width:.0212;stroke-opacity:1;stroke-linecap:round;stroke-linejoin:round"/>
    <g class="stroked-text" style="fill:none;stroke:#afafaf;stroke-width:.0472;stroke-opacity:1;stroke-linecap:round;stroke-linejoin:round">
        <path d="M3.2 4.473h.35M3.55 4.473l-.189.216M3.361 4.689h.081M3.442 4.689l.054.027M3.496 4.716l.027.027M3.523 4.743l.027.054M3.55 4.797v.135M3.55 4.932l-.027.054M3.523 4.986l-.027.027M3.496 5.013l-.054.027M3.442 5.04H3.28M3.28 5.04l-.054-.027M3.226 5.013 3.2 4.986"/>
    </g>
    <circle cx="3.388" cy="4.78" r=".85" style="fill:none;stroke:#afafaf;stroke-width:.0212;stroke-opacity:1;stroke-linecap:round;stroke-linejoin:round"/>
    <g class="stroked-text" style="fill:none;stroke:#afafaf;stroke-width:.0472;stroke-opacity:1;stroke-linecap:round;stroke-linejoin:round">
        <path d="M3.496 2.122V2.5M3.361 1.906l-.135.405M3.226 2.31h.351"/>
    </g>
    <g style="fill:none;stroke:#afafaf;stroke-width:.0212;stroke-opacity:1;stroke-linecap:round;stroke-linejoin:round">
        <circle cx="3.388" cy="2.24" r=".85"/>
        <path d="M8.228 2.51h24.38v7.58H8.228Z" style="stroke:#c2c2c2;stroke-width:.05;stroke-opacity:1;stroke-linecap:round;stroke-linejoin:round;fill:none"/>
    </g>
</svg>
