<svg xmlns="http://www.w3.org/2000/svg" width="163.488" height="84.96" viewBox="0 0 43.256 22.479">
    <g class="stroked-text" style="fill:none;stroke:#f2eda1;stroke-width:.15;stroke-opacity:1;stroke-linecap:round;stroke-linejoin:round">
        <path d="m1.994 3.905-.334-.476M1.422 3.905v-1M1.422 2.905h.381M1.803 2.905l.095.047M1.898 2.952 1.946 3M1.946 3l.048.095M1.994 3.095v.143M1.994 3.238l-.048.095M1.946 3.333l-.048.048M1.898 3.381l-.095.048M1.803 3.429h-.38M2.422 3.381h.334M2.898 3.905h-.476M2.422 3.905v-1M2.422 2.905h.476M3.66 3.381h-.333M3.327 3.905v-1M3.327 2.905h.476M4.327 2.905v.238M4.089 3.048l.238.095M4.327 3.143l.238-.095M4.184 3.333l.143-.19M4.327 3.143l.143.19M5.089 2.905v.238M4.85 3.048l.239.095M5.089 3.143l.238-.095M4.946 3.333l.143-.19M5.089 3.143l.143.19"/>
    </g>
    <g style="fill:none;stroke:#f2eda1;stroke-width:.12;stroke-opacity:1;stroke-linecap:round;stroke-linejoin:round">
        <g class="stroked-text">
            <path d="m.462 13.813-.028.057M.434 13.87v.086M.434 13.956l.028.086M.462 14.042l.057.057M.52 14.099l.057.028M.577 14.127l.114.029M.69 14.156h.087M.777 14.156l.114-.029M.89 14.127l.058-.028M.948 14.099l.057-.057M1.005 14.042l.029-.086M1.034 13.956v-.057M1.034 13.899l-.029-.086M1.005 13.813l-.028-.028M.977 13.785h-.2M.777 13.785v.114M1.034 13.527h-.6M.434 13.527l.6-.342M1.034 13.185h-.6M1.034 12.899h-.6M.434 12.899v-.143M.434 12.756l.028-.086M.462 12.67l.057-.057M.52 12.613l.057-.028M.577 12.585l.114-.029M.69 12.556h.087M.777 12.556l.114.029M.89 12.585l.058.028M.948 12.613l.057.057M1.005 12.67l.029.086M1.034 12.756v.143"/>
        </g>
        <g class="stroked-text">
            <path d="m.434 11.616.6-.2M1.034 11.416l-.6-.2M.977 10.673l.028.029M1.005 10.702l.029.085M1.034 10.787v.058M1.034 10.845l-.029.085M1.005 10.93l-.057.057M.948 10.987l-.057.029M.89 11.016l-.113.029M.777 11.045H.69M.69 11.045l-.113-.029M.577 11.016l-.058-.029M.52 10.987l-.058-.057M.462 10.93l-.028-.085M.434 10.845v-.058M.434 10.787l.028-.085M.462 10.702l.029-.029M.977 10.073l.028.029M1.005 10.102l.029.085M1.034 10.187v.058M1.034 10.245l-.029.085M1.005 10.33l-.057.057M.948 10.387l-.057.029M.89 10.416l-.113.029M.777 10.445H.69M.69 10.445l-.113-.029M.577 10.416l-.058-.029M.52 10.387l-.058-.057M.462 10.33l-.028-.085M.434 10.245v-.058M.434 10.187l.028-.085M.462 10.102l.029-.029"/>
        </g>
        <g class="stroked-text">
            <path d="m1.005 8.99.029-.085M1.034 8.905v-.143M1.034 8.762l-.029-.057M1.005 8.705l-.028-.029M.977 8.676l-.058-.029M.92 8.647H.861M.862 8.647l-.057.029M.805 8.676l-.028.029M.777 8.705l-.029.057M.748 8.762l-.029.114M.72 8.876l-.03.057M.69 8.933l-.028.029M.662 8.962l-.057.028M.605 8.99H.548M.548 8.99l-.057-.028M.49 8.962l-.028-.029M.462 8.933l-.028-.057M.434 8.876v-.143M.434 8.733l.028-.086M.977 8.047l.028.029M1.005 8.076l.029.086M1.034 8.162v.057M1.034 8.219l-.029.086M1.005 8.305l-.057.057M.948 8.362l-.057.028M.89 8.39l-.113.029M.777 8.419H.69M.69 8.419.578 8.39M.577 8.39l-.058-.028M.52 8.362l-.058-.057M.462 8.305l-.028-.086M.434 8.219v-.057M.434 8.162l.028-.086M.462 8.076l.029-.029M1.034 7.505v.285M1.034 7.79h-.6"/>
        </g>
        <g class="stroked-text">
            <path d="m1.005 6.465.029-.086M1.034 6.379v-.143M1.034 6.236l-.029-.057M1.005 6.179.977 6.15M.977 6.15l-.058-.028M.92 6.122H.861M.862 6.122l-.057.028M.805 6.15l-.028.029M.777 6.179l-.029.057M.748 6.236l-.029.114M.72 6.35l-.03.057M.69 6.407l-.028.029M.662 6.436l-.057.029M.605 6.465H.548M.548 6.465l-.057-.029M.49 6.436l-.028-.029M.462 6.407.434 6.35M.434 6.35v-.143M.434 6.207l.028-.085M1.034 5.865h-.6M.434 5.865v-.143M.434 5.722l.028-.086M.462 5.636l.057-.057M.52 5.579l.057-.029M.577 5.55l.114-.028M.69 5.522h.087M.777 5.522l.114.028M.89 5.55l.058.029M.948 5.579l.057.057M1.005 5.636l.029.086M1.034 5.722v.143M.862 5.293v-.286M1.034 5.35l-.6-.2M.434 5.15l.6-.2"/>
        </g>
        <path d="M.06 4.47h6.137v2.54H.06ZM.06 7.01h6.137v2.54H.06ZM.06 9.55h6.137v2.54H.06ZM.06 12.09h6.137v2.54H.06Z" style="stroke:#f2eda1;stroke-width:.12;stroke-opacity:1;stroke-linecap:round;stroke-linejoin:round;fill:none"/>
        <path d="M1.457 4.47h4.74v10.16h-4.74Z" style="stroke:#f2eda1;stroke-width:.12;stroke-opacity:1;stroke-linecap:round;stroke-linejoin:round;fill:none"/>
        <path stroke="none" d="m3.927 12.51.115.008.178.044.165.082.143.115.115.143.082.165.044.178.008.115-.008.115-.044.178-.082.165-.115.143-.143.115-.165.082-.178.044-.115.008h-1.2l-.115-.008-.178-.044-.165-.082-.143-.115-.115-.143-.082-.165-.044-.178-.008-.115.008-.115.044-.178.082-.165.115-.143.143-.115.165-.082.178-.044.115-.008Z" style="fill:#4d7fc4;fill-opacity:1;stroke:none;fill-rule:evenodd"/>
        <path stroke="none" d="m4.927 12.51.115.008.178.044.165.082.143.115.115.143.082.165.044.178.008.115-.008.115-.044.178-.082.165-.115.143-.143.115-.165.082-.178.044-.115.008h-1.2l-.115-.008-.178-.044-.165-.082-.143-.115-.115-.143-.082-.165-.044-.178-.008-.115.008-.115.044-.178.082-.165.115-.143.143-.115.165-.082.178-.044.115-.008ZM3.927 9.97l.115.008.178.044.165.082.143.115.115.143.082.165.044.178.008.115-.008.115-.044.178-.082.165-.115.143-.143.115-.165.082-.178.044-.115.008h-1.2l-.115-.008-.178-.044-.165-.082-.143-.115-.115-.143-.082-.165-.044-.178-.008-.115.008-.115.044-.178.082-.165.115-.143.143-.115.165-.082.178-.044.115-.008Z" style="fill:#4d7fc4;fill-opacity:1;stroke:none;fill-rule:evenodd"/>
        <path stroke="none" d="m4.927 9.97.115.008.178.044.165.082.143.115.115.143.082.165.044.178.008.115-.008.115-.044.178-.082.165-.115.143-.143.115-.165.082-.178.044-.115.008h-1.2l-.115-.008-.178-.044-.165-.082-.143-.115-.115-.143-.082-.165-.044-.178-.008-.115.008-.115.044-.178.082-.165.115-.143.143-.115.165-.082.178-.044.115-.008ZM3.927 7.43l.115.008.178.044.165.082.143.115.115.143.082.165.044.178.008.115-.008.115-.044.178-.082.165-.115.143-.143.115-.165.082-.178.044-.115.008h-1.2l-.115-.008-.178-.044-.165-.082-.143-.115-.115-.143-.082-.165-.044-.178-.008-.115.008-.115.044-.178.082-.165.115-.143.143-.115.165-.082.178-.044.115-.008Z" style="fill:#4d7fc4;fill-opacity:1;stroke:none;fill-rule:evenodd"/>
        <path stroke="none" d="m4.927 7.43.115.008.178.044.165.082.143.115.115.143.082.165.044.178.008.115-.008.115-.044.178-.082.165-.115.143-.143.115-.165.082-.178.044-.115.008h-1.2l-.115-.008-.178-.044-.165-.082-.143-.115-.115-.143-.082-.165-.044-.178-.008-.115.008-.115.044-.178.082-.165.115-.143.143-.115.165-.082.178-.044.115-.008ZM3.927 4.89l.115.008.178.044.165.082.143.115.115.143.082.165.044.178.008.115-.008.115-.044.178-.082.165-.115.143-.143.115-.165.082-.178.044-.115.008h-1.2l-.115-.008-.178-.044-.165-.082-.143-.115-.115-.143-.082-.165-.044-.178-.008-.115.008-.115.044-.178.082-.165.115-.143.143-.115.165-.082.178-.044.115-.008Z" style="fill:#4d7fc4;fill-opacity:1;stroke:none;fill-rule:evenodd"/>
        <path stroke="none" d="m4.927 4.89.115.008.178.044.165.082.143.115.115.143.082.165.044.178.008.115-.008.115-.044.178-.082.165-.115.143-.143.115-.165.082-.178.044-.115.008h-1.2l-.115-.008-.178-.044-.165-.082-.143-.115-.115-.143-.082-.165-.044-.178-.008-.115.008-.115.044-.178.082-.165.115-.143.143-.115.165-.082.178-.044.115-.008Z" style="fill:#4d7fc4;fill-opacity:1;stroke:none;fill-rule:evenodd"/>
        <path stroke="none" d="m3.927 12.51.115.008.178.044.165.082.143.115.115.143.082.165.044.178.008.115-.008.115-.044.178-.082.165-.115.143-.143.115-.165.082-.178.044-.115.008h-1.2l-.115-.008-.178-.044-.165-.082-.143-.115-.115-.143-.082-.165-.044-.178-.008-.115.008-.115.044-.178.082-.165.115-.143.143-.115.165-.082.178-.044.115-.008Z" style="fill:#c83434;fill-opacity:1;stroke:none;fill-rule:evenodd"/>
        <path stroke="none" d="m4.927 12.51.115.008.178.044.165.082.143.115.115.143.082.165.044.178.008.115-.008.115-.044.178-.082.165-.115.143-.143.115-.165.082-.178.044-.115.008h-1.2l-.115-.008-.178-.044-.165-.082-.143-.115-.115-.143-.082-.165-.044-.178-.008-.115.008-.115.044-.178.082-.165.115-.143.143-.115.165-.082.178-.044.115-.008ZM3.927 9.97l.115.008.178.044.165.082.143.115.115.143.082.165.044.178.008.115-.008.115-.044.178-.082.165-.115.143-.143.115-.165.082-.178.044-.115.008h-1.2l-.115-.008-.178-.044-.165-.082-.143-.115-.115-.143-.082-.165-.044-.178-.008-.115.008-.115.044-.178.082-.165.115-.143.143-.115.165-.082.178-.044.115-.008Z" style="fill:#c83434;fill-opacity:1;stroke:none;fill-rule:evenodd"/>
        <path stroke="none" d="m4.927 9.97.115.008.178.044.165.082.143.115.115.143.082.165.044.178.008.115-.008.115-.044.178-.082.165-.115.143-.143.115-.165.082-.178.044-.115.008h-1.2l-.115-.008-.178-.044-.165-.082-.143-.115-.115-.143-.082-.165-.044-.178-.008-.115.008-.115.044-.178.082-.165.115-.143.143-.115.165-.082.178-.044.115-.008ZM3.927 7.43l.115.008.178.044.165.082.143.115.115.143.082.165.044.178.008.115-.008.115-.044.178-.082.165-.115.143-.143.115-.165.082-.178.044-.115.008h-1.2l-.115-.008-.178-.044-.165-.082-.143-.115-.115-.143-.082-.165-.044-.178-.008-.115.008-.115.044-.178.082-.165.115-.143.143-.115.165-.082.178-.044.115-.008Z" style="fill:#c83434;fill-opacity:1;stroke:none;fill-rule:evenodd"/>
        <path stroke="none" d="m4.927 7.43.115.008.178.044.165.082.143.115.115.143.082.165.044.178.008.115-.008.115-.044.178-.082.165-.115.143-.143.115-.165.082-.178.044-.115.008h-1.2l-.115-.008-.178-.044-.165-.082-.143-.115-.115-.143-.082-.165-.044-.178-.008-.115.008-.115.044-.178.082-.165.115-.143.143-.115.165-.082.178-.044.115-.008ZM3.927 4.89l.115.008.178.044.165.082.143.115.115.143.082.165.044.178.008.115-.008.115-.044.178-.082.165-.115.143-.143.115-.165.082-.178.044-.115.008h-1.2l-.115-.008-.178-.044-.165-.082-.143-.115-.115-.143-.082-.165-.044-.178-.008-.115.008-.115.044-.178.082-.165.115-.143.143-.115.165-.082.178-.044.115-.008Z" style="fill:#c83434;fill-opacity:1;stroke:none;fill-rule:evenodd"/>
        <path stroke="none" d="m4.927 4.89.115.008.178.044.165.082.143.115.115.143.082.165.044.178.008.115-.008.115-.044.178-.082.165-.115.143-.143.115-.165.082-.178.044-.115.008h-1.2l-.115-.008-.178-.044-.165-.082-.143-.115-.115-.143-.082-.165-.044-.178-.008-.115.008-.115.044-.178.082-.165.115-.143.143-.115.165-.082.178-.044.115-.008Z" style="fill:#c83434;fill-opacity:1;stroke:none;fill-rule:evenodd"/>
    </g>
    <g style="fill:none;stroke:#585d84;stroke-width:.0806;stroke-opacity:1;stroke-linecap:round;stroke-linejoin:round">
        <g class="stroked-text">
            <path d="M3.603 13.803h-.552M3.327 13.803v-.967M3.327 12.836l-.092.138M3.235 12.974l-.092.092M3.143 13.067l-.092.046"/>
        </g>
        <path d="m3.927 12.51.115.008.178.044.165.082.143.115.115.143.082.165.044.178.008.115-.008.115-.044.178-.082.165-.115.143-.143.115-.165.082-.178.044-.115.008h-1.2l-.115-.008-.178-.044-.165-.082-.143-.115-.115-.143-.082-.165-.044-.178-.008-.115.008-.115.044-.178.082-.165.115-.143.143-.115.165-.082.178-.044.115-.008Z" style="stroke:#585d84;stroke-width:.0212;stroke-opacity:1;stroke-linecap:round;stroke-linejoin:round;fill:none"/>
    </g>
    <g style="fill:none;stroke:#585d84;stroke-width:.0806;stroke-opacity:1;stroke-linecap:round;stroke-linejoin:round">
        <g class="stroked-text">
            <path d="M4.603 13.803h-.552M4.327 13.803v-.967M4.327 12.836l-.092.138M4.235 12.974l-.092.092M4.143 13.067l-.092.046"/>
        </g>
        <path d="m4.927 12.51.115.008.178.044.165.082.143.115.115.143.082.165.044.178.008.115-.008.115-.044.178-.082.165-.115.143-.143.115-.165.082-.178.044-.115.008h-1.2l-.115-.008-.178-.044-.165-.082-.143-.115-.115-.143-.082-.165-.044-.178-.008-.115.008-.115.044-.178.082-.165.115-.143.143-.115.165-.082.178-.044.115-.008Z" style="stroke:#585d84;stroke-width:.0212;stroke-opacity:1;stroke-linecap:round;stroke-linejoin:round;fill:none"/>
    </g>
    <g style="fill:none;stroke:#585d84;stroke-width:.0806;stroke-opacity:1;stroke-linecap:round;stroke-linejoin:round">
        <g class="stroked-text">
            <path d="m3.05 10.388.047-.046M3.097 10.342l.092-.046M3.189 10.296h.23M3.42 10.296l.091.046M3.511 10.342l.046.046M3.557 10.388l.046.092M3.603 10.48v.092M3.603 10.573l-.046.138M3.557 10.71l-.552.553M3.005 11.263h.598"/>
        </g>
        <path d="m3.927 9.97.115.008.178.044.165.082.143.115.115.143.082.165.044.178.008.115-.008.115-.044.178-.082.165-.115.143-.143.115-.165.082-.178.044-.115.008h-1.2l-.115-.008-.178-.044-.165-.082-.143-.115-.115-.143-.082-.165-.044-.178-.008-.115.008-.115.044-.178.082-.165.115-.143.143-.115.165-.082.178-.044.115-.008Z" style="stroke:#585d84;stroke-width:.0212;stroke-opacity:1;stroke-linecap:round;stroke-linejoin:round;fill:none"/>
    </g>
    <g style="fill:none;stroke:#585d84;stroke-width:.0806;stroke-opacity:1;stroke-linecap:round;stroke-linejoin:round">
        <g class="stroked-text">
            <path d="m4.05 10.388.047-.046M4.097 10.342l.092-.046M4.189 10.296h.23M4.42 10.296l.091.046M4.511 10.342l.046.046M4.557 10.388l.046.092M4.603 10.48v.092M4.603 10.573l-.046.138M4.557 10.71l-.552.553M4.005 11.263h.598"/>
        </g>
        <path d="m4.927 9.97.115.008.178.044.165.082.143.115.115.143.082.165.044.178.008.115-.008.115-.044.178-.082.165-.115.143-.143.115-.165.082-.178.044-.115.008h-1.2l-.115-.008-.178-.044-.165-.082-.143-.115-.115-.143-.082-.165-.044-.178-.008-.115.008-.115.044-.178.082-.165.115-.143.143-.115.165-.082.178-.044.115-.008Z" style="stroke:#585d84;stroke-width:.0212;stroke-opacity:1;stroke-linecap:round;stroke-linejoin:round;fill:none"/>
    </g>
    <g style="fill:none;stroke:#585d84;stroke-width:.0806;stroke-opacity:1;stroke-linecap:round;stroke-linejoin:round">
        <g class="stroked-text">
            <path d="M3.005 7.756h.598M3.603 7.756l-.322.369M3.281 8.125h.138M3.42 8.125l.091.046M3.511 8.17l.046.047M3.557 8.217l.046.092M3.603 8.309v.23M3.603 8.539l-.046.092M3.557 8.63l-.046.047M3.511 8.677l-.092.046M3.42 8.723h-.277M3.143 8.723l-.092-.046M3.05 8.677l-.045-.046"/>
        </g>
        <path d="m3.927 7.43.115.008.178.044.165.082.143.115.115.143.082.165.044.178.008.115-.008.115-.044.178-.082.165-.115.143-.143.115-.165.082-.178.044-.115.008h-1.2l-.115-.008-.178-.044-.165-.082-.143-.115-.115-.143-.082-.165-.044-.178-.008-.115.008-.115.044-.178.082-.165.115-.143.143-.115.165-.082.178-.044.115-.008Z" style="stroke:#585d84;stroke-width:.0212;stroke-opacity:1;stroke-linecap:round;stroke-linejoin:round;fill:none"/>
    </g>
    <g style="fill:none;stroke:#585d84;stroke-width:.0806;stroke-opacity:1;stroke-linecap:round;stroke-linejoin:round">
        <g class="stroked-text">
            <path d="M4.005 7.756h.598M4.603 7.756l-.322.369M4.281 8.125h.138M4.42 8.125l.091.046M4.511 8.17l.046.047M4.557 8.217l.046.092M4.603 8.309v.23M4.603 8.539l-.046.092M4.557 8.63l-.046.047M4.511 8.677l-.092.046M4.42 8.723h-.277M4.143 8.723l-.092-.046M4.05 8.677l-.045-.046"/>
        </g>
        <path d="m4.927 7.43.115.008.178.044.165.082.143.115.115.143.082.165.044.178.008.115-.008.115-.044.178-.082.165-.115.143-.143.115-.165.082-.178.044-.115.008h-1.2l-.115-.008-.178-.044-.165-.082-.143-.115-.115-.143-.082-.165-.044-.178-.008-.115.008-.115.044-.178.082-.165.115-.143.143-.115.165-.082.178-.044.115-.008Z" style="stroke:#585d84;stroke-width:.0212;stroke-opacity:1;stroke-linecap:round;stroke-linejoin:round;fill:none"/>
    </g>
    <g style="fill:none;stroke:#585d84;stroke-width:.0806;stroke-opacity:1;stroke-linecap:round;stroke-linejoin:round">
        <g class="stroked-text">
            <path d="M3.511 5.539v.644M3.281 5.17l-.23.69M3.05 5.86h.6"/>
        </g>
        <path d="m3.927 4.89.115.008.178.044.165.082.143.115.115.143.082.165.044.178.008.115-.008.115-.044.178-.082.165-.115.143-.143.115-.165.082-.178.044-.115.008h-1.2l-.115-.008-.178-.044-.165-.082-.143-.115-.115-.143-.082-.165-.044-.178-.008-.115.008-.115.044-.178.082-.165.115-.143.143-.115.165-.082.178-.044.115-.008Z" style="stroke:#585d84;stroke-width:.0212;stroke-opacity:1;stroke-linecap:round;stroke-linejoin:round;fill:none"/>
    </g>
    <g style="fill:none;stroke:#585d84;stroke-width:.0806;stroke-opacity:1;stroke-linecap:round;stroke-linejoin:round">
        <g class="stroked-text">
            <path d="M4.511 5.539v.644M4.281 5.17l-.23.69M4.05 5.86h.6"/>
        </g>
        <path d="m4.927 4.89.115.008.178.044.165.082.143.115.115.143.082.165.044.178.008.115-.008.115-.044.178-.082.165-.115.143-.143.115-.165.082-.178.044-.115.008h-1.2l-.115-.008-.178-.044-.165-.082-.143-.115-.115-.143-.082-.165-.044-.178-.008-.115.008-.115.044-.178.082-.165.115-.143.143-.115.165-.082.178-.044.115-.008Z" style="stroke:#585d84;stroke-width:.0212;stroke-opacity:1;stroke-linecap:round;stroke-linejoin:round;fill:none"/>
    </g>
    <g style="fill:none;stroke:#afafaf;stroke-width:.15;stroke-opacity:1;stroke-linecap:round;stroke-linejoin:round">
        <g class="stroked-text">
            <path d="M9.38 19.605h.19M9.57 19.605l.095.047M9.665 19.652l.095.096M9.76 19.748l.048.19M9.808 19.938v.334M9.808 20.272l-.048.19M9.76 20.462l-.095.095M9.665 20.557l-.095.048M9.57 20.605h-.19M9.38 20.605l-.096-.048M9.284 20.557l-.095-.095M9.189 20.462l-.048-.19M9.141 20.272v-.334M9.141 19.938l.048-.19M9.189 19.748l.095-.096M9.284 19.652l.095-.047M10.713 20.605h-.476M10.237 20.605v-1M11.046 20.081h.333M11.522 20.605h-.476M11.046 20.605v-1M11.046 19.605h.476M11.95 20.605v-1M11.95 19.605h.239M12.189 19.605l.143.047M12.332 19.652l.095.096M12.427 19.748l.048.095M12.475 19.843l.047.19M12.522 20.033v.143M12.522 20.176l-.047.19M12.475 20.367l-.048.095M12.427 20.462l-.095.095M12.332 20.557l-.143.048M12.189 20.605h-.238M12.713 20.7h.762M14.237 19.652l-.096-.047M14.141 19.605h-.143M13.998 19.605l-.142.047M13.856 19.652l-.096.096M13.76 19.748l-.047.095M13.713 19.843l-.048.19M13.665 20.033v.143M13.665 20.176l.048.19M13.713 20.367l.047.095M13.76 20.462l.096.095M13.856 20.557l.142.048M13.998 20.605h.096M14.094 20.605l.143-.048M14.237 20.557l.047-.047M14.284 20.51v-.334M14.284 20.176h-.19M15.094 20.557l-.096.048M14.998 20.605h-.19M14.808 20.605l-.095-.048M14.713 20.557l-.048-.095M14.665 20.462v-.381M14.665 20.081l.048-.095M14.713 19.986l.095-.048M14.808 19.938h.19M14.998 19.938l.096.048M15.094 19.986l.047.095M15.141 20.081v.095M15.141 20.176l-.476.096M15.57 19.938v.667M15.57 20.033l.047-.047M15.618 19.986l.095-.048M15.713 19.938h.143M15.856 19.938l.095.048M15.95 19.986l.048.095M15.998 20.081v.524M16.856 20.557l-.096.048M16.76 20.605h-.19M16.57 20.605l-.095-.048M16.475 20.557l-.048-.095M16.427 20.462v-.381M16.427 20.081l.048-.095M16.475 19.986l.095-.048M16.57 19.938h.19M16.76 19.938l.096.048M16.856 19.986l.047.095M16.903 20.081v.095M16.903 20.176l-.476.096M17.332 20.605v-.667M17.332 20.129l.047-.096M17.38 20.033l.047-.047M17.427 19.986l.095-.048M17.522 19.938h.096M17.95 20.605v-.667M17.95 19.605l-.047.047M17.903 19.652l.048.048M17.95 19.7l.048-.048M17.998 19.652l-.047-.047M17.95 19.605v.095M18.856 20.557l-.096.048M18.76 20.605h-.19M18.57 20.605l-.095-.048M18.475 20.557l-.048-.047M18.427 20.51l-.048-.096M18.38 20.414v-.285M18.38 20.129l.047-.096M18.427 20.033l.048-.047M18.475 19.986l.095-.048M18.57 19.938h.19M18.76 19.938l.096.048M19.046 20.7h.762M20.57 20.605h-.572M20.284 20.605v-1M20.284 19.605l-.095.143M20.189 19.748l-.095.095M20.094 19.843l-.096.047M20.95 19.7l.048-.048M20.998 19.652l.096-.047M21.094 19.605h.238M21.332 19.605l.095.047M21.427 19.652l.048.048M21.475 19.7l.047.095M21.522 19.795v.095M21.522 19.89l-.047.143M21.475 20.033l-.572.572M20.903 20.605h.62M22.094 20.033l-.096-.047M21.998 19.986l-.047-.048M21.95 19.938l-.047-.095M21.903 19.843v-.048M21.903 19.795l.048-.095M21.95 19.7l.048-.048M21.998 19.652l.096-.047M22.094 19.605h.19M22.284 19.605l.095.047M22.38 19.652l.047.048M22.427 19.7l.048.095M22.475 19.795v.048M22.475 19.843l-.048.095M22.427 19.938l-.048.048M22.38 19.986l-.096.047M22.284 20.033h-.19M22.094 20.033l-.096.048M21.998 20.081l-.047.048M21.95 20.129l-.047.095M21.903 20.224v.19M21.903 20.414l.048.096M21.95 20.51l.048.047M21.998 20.557l.096.048M22.094 20.605h.19M22.284 20.605l.095-.048M22.38 20.557l.047-.047M22.427 20.51l.048-.096M22.475 20.414v-.19M22.475 20.224l-.048-.095M22.427 20.129l-.048-.048M22.38 20.081l-.096-.048M22.808 20.605l.524-.667M22.808 19.938l.524.667M23.618 19.605h.619M24.237 19.605l-.334.38M23.903 19.986h.143M24.046 19.986l.095.047M24.141 20.033l.048.048M24.189 20.081l.047.095M24.237 20.176v.238M24.237 20.414l-.048.096M24.189 20.51l-.048.047M24.141 20.557l-.095.048M24.046 20.605h-.286M23.76 20.605l-.095-.048M23.665 20.557l-.047-.047M24.618 19.7l.047-.048M24.665 19.652l.095-.047M24.76 19.605h.238M24.998 19.605l.096.047M25.094 19.652l.047.048M25.141 19.7l.048.095M25.189 19.795v.095M25.189 19.89l-.048.143M25.141 20.033l-.571.572M24.57 20.605h.619M25.38 20.7h.761M26.808 19.605h-.19M26.618 19.605l-.096.047M26.522 19.652l-.047.048M26.475 19.7l-.096.143M26.38 19.843l-.048.19M26.332 20.033v.381M26.332 20.414l.047.096M26.38 20.51l.047.047M26.427 20.557l.095.048M26.522 20.605h.19M26.713 20.605l.095-.048M26.808 20.557l.048-.047M26.856 20.51l.047-.096M26.903 20.414v-.238M26.903 20.176l-.047-.095M26.856 20.081l-.048-.048M26.808 20.033l-.095-.047M26.713 19.986h-.19M26.522 19.986l-.095.047M26.427 20.033l-.048.048M26.38 20.081l-.048.095M27.76 19.938v.667M27.522 19.557l-.238.715M27.284 20.272h.62M28.189 20.605l.524-.667M28.189 19.938l.524.667M29.618 20.605h-.572M29.332 20.605v-1M29.332 19.605l-.096.143M29.237 19.748l-.096.095M29.141 19.843l-.095.047M29.998 19.7l.048-.048M30.046 19.652l.095-.047M30.141 19.605h.238M30.38 19.605l.095.047M30.475 19.652l.047.048M30.522 19.7l.048.095M30.57 19.795v.095M30.57 19.89l-.048.143M30.522 20.033l-.571.572M29.95 20.605h.62M31.141 20.033l-.095-.047M31.046 19.986l-.048-.048M30.998 19.938l-.047-.095M30.95 19.843v-.048M30.95 19.795l.048-.095M30.998 19.7l.048-.048M31.046 19.652l.095-.047M31.141 19.605h.19M31.332 19.605l.095.047M31.427 19.652l.048.048M31.475 19.7l.047.095M31.522 19.795v.048M31.522 19.843l-.047.095M31.475 19.938l-.048.048M31.427 19.986l-.095.047M31.332 20.033h-.19M31.141 20.033l-.095.048M31.046 20.081l-.048.048M30.998 20.129l-.047.095M30.95 20.224v.19M30.95 20.414l.048.096M30.998 20.51l.048.047M31.046 20.557l.095.048M31.141 20.605h.19M31.332 20.605l.095-.048M31.427 20.557l.048-.047M31.475 20.51l.047-.096M31.522 20.414v-.19M31.522 20.224l-.047-.095M31.475 20.129l-.048-.048M31.427 20.081l-.095-.048M31.713 20.7h.762M32.713 20.605v-1M33.141 19.7l.048-.048M33.189 19.652l.095-.047M33.284 19.605h.238M33.522 19.605l.096.047M33.618 19.652l.047.048M33.665 19.7l.048.095M33.713 19.795v.095M33.713 19.89l-.048.143M33.665 20.033l-.571.572M33.094 20.605h.619M34.713 20.51l-.048.047M34.665 20.557l-.143.048M34.522 20.605h-.095M34.427 20.605l-.143-.048M34.284 20.557l-.095-.095M34.189 20.462l-.048-.095M34.141 20.367l-.047-.19M34.094 20.176v-.143M34.094 20.033l.047-.19M34.141 19.843l.048-.095M34.189 19.748l.095-.096M34.284 19.652l.143-.047M34.427 19.605h.095M34.522 19.605l.143.047M34.665 19.652l.048.048"/>
        </g>
        <g class="stroked-text">
            <path d="m20.594 22.105-.334-.476M20.022 22.105v-1M20.022 21.105h.381M20.403 21.105l.095.047M20.498 21.152l.048.048M20.546 21.2l.048.095M20.594 21.295v.143M20.594 21.438l-.048.095M20.546 21.533l-.048.048M20.498 21.581l-.095.048M20.403 21.629h-.38M21.022 21.581h.334M21.498 22.105h-.476M21.022 22.105v-1M21.022 21.105h.476M22.26 21.581h-.333M21.927 22.105v-1M21.927 21.105h.476M22.927 21.105v.238M22.689 21.248l.238.095M22.927 21.343l.238-.095M22.784 21.533l.143-.19M22.927 21.343l.143.19M23.689 21.105v.238M23.45 21.248l.239.095M23.689 21.343l.238-.095M23.546 21.533l.143-.19M23.689 21.343l.143.19"/>
        </g>
        <path d="M1.227.05h42v19h-42Z" style="stroke:#afafaf;stroke-width:.1;stroke-opacity:1;stroke-linecap:round;stroke-linejoin:round;fill:none"/>
        <path d="M3.627 3.55h38v12h-38Z" style="stroke:#afafaf;stroke-width:.1;stroke-opacity:1;stroke-linecap:round;stroke-linejoin:round;fill:none"/>
        <path d="M5.727 1h35.8v17.1h-35.8Z" style="stroke:#afafaf;stroke-width:.1;stroke-opacity:1;stroke-linecap:round;stroke-linejoin:round;fill:none"/>
    </g>
    <g style="fill:none;stroke:#afafaf;stroke-width:.1;stroke-opacity:1;stroke-linecap:round;stroke-linejoin:round">
        <path d="M6.927 1.9h1.1M8.427 1.9h1.1M9.927 1.9h1.1M11.427 1.9h1.1M12.927 1.9h1.1M14.427 1.9h1.1M15.927 1.9h1.1M17.427 1.9h1.1M18.927 1.9h1.1M20.427 1.9h1.1M21.927 1.9h1.1M23.427 1.9h1.1M24.927 1.9h1.1M26.427 1.9h1.1M27.927 1.9h1.1M29.427 1.9h1.1M30.927 1.9h1.1M32.427 1.9h1.1M33.927 1.9h1.1M35.427 1.9h1.1"/>
    </g>
    <circle cx="36.927" cy="1.9" r=".05" style="fill:#afafaf;fill-opacity:1;stroke:none"/>
    <g style="fill:none;stroke:#afafaf;stroke-width:.1;stroke-opacity:1;stroke-linecap:round;stroke-linejoin:round">
        <path d="M36.927 1.9V3M36.927 3.4v1.1M36.927 4.9V6M36.927 6.4v1.1M36.927 7.9V9M36.927 9.4v1.1M36.927 10.9V12M36.927 12.4v1.1M36.927 13.9V15M36.927 15.4v1.1M36.927 16.9v.3M36.927 17.2h-1.1M35.427 17.2h-1.1M33.927 17.2h-1.1M32.427 17.2h-1.1M30.927 17.2h-1.1M29.427 17.2h-1.1M27.927 17.2h-1.1M26.427 17.2h-1.1M24.927 17.2h-1.1M23.427 17.2h-1.1M21.927 17.2h-1.1M20.427 17.2h-1.1M18.927 17.2h-1.1M17.427 17.2h-1.1M15.927 17.2h-1.1M14.427 17.2h-1.1M12.927 17.2h-1.1M11.427 17.2h-1.1M9.927 17.2h-1.1M8.427 17.2h-1.1"/>
    </g>
    <circle cx="6.927" cy="17.2" r=".05" style="fill:#afafaf;fill-opacity:1;stroke:none"/>
    <g style="fill:none;stroke:#afafaf;stroke-width:.1;stroke-opacity:1;stroke-linecap:round;stroke-linejoin:round">
        <path d="M6.927 17.2v-1.1M6.927 15.7v-1.1M6.927 14.2v-1.1M6.927 12.7v-1.1M6.927 11.2v-1.1M6.927 9.7V8.6M6.927 8.2V7.1M6.927 6.7V5.6M6.927 5.2V4.1M6.927 3.7V2.6M6.927 2.2v-.3"/>
        <path d="M8.627 4.05h30v11.5h-30Z" style="stroke:#afafaf;stroke-width:.1;stroke-opacity:1;stroke-linecap:round;stroke-linejoin:round;fill:none"/>
        <path d="M9.737 6.01h1.1M11.237 6.01h1.1M12.737 6.01h1.1M14.237 6.01h1.1M15.737 6.01h1.1M17.237 6.01h1.1M18.737 6.01h1.1M20.237 6.01h1.1M21.737 6.01h1.1M23.237 6.01h1.1M24.737 6.01h1.1M26.237 6.01h1.1M27.737 6.01h1.1M29.237 6.01h1.1M30.737 6.01h1.1M32.237 6.01h1.1M33.737 6.01h.38M34.117 6.01v1.1M34.117 7.51v1.1M34.117 9.01v1.1M34.117 10.51v1.1M34.117 12.01v1.1M34.117 13.51v.08M34.117 13.59h-1.1M32.617 13.59h-1.1M31.117 13.59h-1.1M29.617 13.59h-1.1M28.117 13.59h-1.1M26.617 13.59h-1.1M25.117 13.59h-1.1M23.617 13.59h-1.1M22.117 13.59h-1.1M20.617 13.59h-1.1M19.117 13.59h-1.1M17.617 13.59h-1.1M16.117 13.59h-1.1M14.617 13.59h-1.1M13.117 13.59h-1.1M11.617 13.59h-1.1M10.117 13.59h-.38M9.737 13.59v-1.1M9.737 12.09v-1.1M9.737 10.59v-1.1M9.737 9.09v-1.1M9.737 7.59v-1.1M9.737 6.09v-.08"/>
        <circle cx="3.227" cy="2.05" r="1.1"/>
        <circle cx="3.227" cy="17.05" r="1.1"/>
    </g>
    <g style="fill:none;stroke:#afafaf;stroke-width:.0806;stroke-opacity:1;stroke-linecap:round;stroke-linejoin:round">
        <g class="stroked-text">
            <path d="M3.603 13.803h-.552M3.327 13.803v-.967M3.327 12.836l-.092.138M3.235 12.974l-.092.092M3.143 13.067l-.092.046"/>
        </g>
        <path d="m3.927 12.51.115.008.178.044.165.082.143.115.115.143.082.165.044.178.008.115-.008.115-.044.178-.082.165-.115.143-.143.115-.165.082-.178.044-.115.008h-1.2l-.115-.008-.178-.044-.165-.082-.143-.115-.115-.143-.082-.165-.044-.178-.008-.115.008-.115.044-.178.082-.165.115-.143.143-.115.165-.082.178-.044.115-.008Z" style="stroke:#afafaf;stroke-width:.0212;stroke-opacity:1;stroke-linecap:round;stroke-linejoin:round;fill:none"/>
    </g>
    <g style="fill:none;stroke:#afafaf;stroke-width:.0806;stroke-opacity:1;stroke-linecap:round;stroke-linejoin:round">
        <g class="stroked-text">
            <path d="M4.603 13.803h-.552M4.327 13.803v-.967M4.327 12.836l-.092.138M4.235 12.974l-.092.092M4.143 13.067l-.092.046"/>
        </g>
        <path d="m4.927 12.51.115.008.178.044.165.082.143.115.115.143.082.165.044.178.008.115-.008.115-.044.178-.082.165-.115.143-.143.115-.165.082-.178.044-.115.008h-1.2l-.115-.008-.178-.044-.165-.082-.143-.115-.115-.143-.082-.165-.044-.178-.008-.115.008-.115.044-.178.082-.165.115-.143.143-.115.165-.082.178-.044.115-.008Z" style="stroke:#afafaf;stroke-width:.0212;stroke-opacity:1;stroke-linecap:round;stroke-linejoin:round;fill:none"/>
    </g>
    <g style="fill:none;stroke:#afafaf;stroke-width:.0806;stroke-opacity:1;stroke-linecap:round;stroke-linejoin:round">
        <g class="stroked-text">
            <path d="m3.05 10.388.047-.046M3.097 10.342l.092-.046M3.189 10.296h.23M3.42 10.296l.091.046M3.511 10.342l.046.046M3.557 10.388l.046.092M3.603 10.48v.092M3.603 10.573l-.046.138M3.557 10.71l-.552.553M3.005 11.263h.598"/>
        </g>
        <path d="m3.927 9.97.115.008.178.044.165.082.143.115.115.143.082.165.044.178.008.115-.008.115-.044.178-.082.165-.115.143-.143.115-.165.082-.178.044-.115.008h-1.2l-.115-.008-.178-.044-.165-.082-.143-.115-.115-.143-.082-.165-.044-.178-.008-.115.008-.115.044-.178.082-.165.115-.143.143-.115.165-.082.178-.044.115-.008Z" style="stroke:#afafaf;stroke-width:.0212;stroke-opacity:1;stroke-linecap:round;stroke-linejoin:round;fill:none"/>
    </g>
    <g style="fill:none;stroke:#afafaf;stroke-width:.0806;stroke-opacity:1;stroke-linecap:round;stroke-linejoin:round">
        <g class="stroked-text">
            <path d="m4.05 10.388.047-.046M4.097 10.342l.092-.046M4.189 10.296h.23M4.42 10.296l.091.046M4.511 10.342l.046.046M4.557 10.388l.046.092M4.603 10.48v.092M4.603 10.573l-.046.138M4.557 10.71l-.552.553M4.005 11.263h.598"/>
        </g>
        <path d="m4.927 9.97.115.008.178.044.165.082.143.115.115.143.082.165.044.178.008.115-.008.115-.044.178-.082.165-.115.143-.143.115-.165.082-.178.044-.115.008h-1.2l-.115-.008-.178-.044-.165-.082-.143-.115-.115-.143-.082-.165-.044-.178-.008-.115.008-.115.044-.178.082-.165.115-.143.143-.115.165-.082.178-.044.115-.008Z" style="stroke:#afafaf;stroke-width:.0212;stroke-opacity:1;stroke-linecap:round;stroke-linejoin:round;fill:none"/>
    </g>
    <g style="fill:none;stroke:#afafaf;stroke-width:.0806;stroke-opacity:1;stroke-linecap:round;stroke-linejoin:round">
        <g class="stroked-text">
            <path d="M3.005 7.756h.598M3.603 7.756l-.322.369M3.281 8.125h.138M3.42 8.125l.091.046M3.511 8.17l.046.047M3.557 8.217l.046.092M3.603 8.309v.23M3.603 8.539l-.046.092M3.557 8.63l-.046.047M3.511 8.677l-.092.046M3.42 8.723h-.277M3.143 8.723l-.092-.046M3.05 8.677l-.045-.046"/>
        </g>
        <path d="m3.927 7.43.115.008.178.044.165.082.143.115.115.143.082.165.044.178.008.115-.008.115-.044.178-.082.165-.115.143-.143.115-.165.082-.178.044-.115.008h-1.2l-.115-.008-.178-.044-.165-.082-.143-.115-.115-.143-.082-.165-.044-.178-.008-.115.008-.115.044-.178.082-.165.115-.143.143-.115.165-.082.178-.044.115-.008Z" style="stroke:#afafaf;stroke-width:.0212;stroke-opacity:1;stroke-linecap:round;stroke-linejoin:round;fill:none"/>
    </g>
    <g style="fill:none;stroke:#afafaf;stroke-width:.0806;stroke-opacity:1;stroke-linecap:round;stroke-linejoin:round">
        <g class="stroked-text">
            <path d="M4.005 7.756h.598M4.603 7.756l-.322.369M4.281 8.125h.138M4.42 8.125l.091.046M4.511 8.17l.046.047M4.557 8.217l.046.092M4.603 8.309v.23M4.603 8.539l-.046.092M4.557 8.63l-.046.047M4.511 8.677l-.092.046M4.42 8.723h-.277M4.143 8.723l-.092-.046M4.05 8.677l-.045-.046"/>
        </g>
        <path d="m4.927 7.43.115.008.178.044.165.082.143.115.115.143.082.165.044.178.008.115-.008.115-.044.178-.082.165-.115.143-.143.115-.165.082-.178.044-.115.008h-1.2l-.115-.008-.178-.044-.165-.082-.143-.115-.115-.143-.082-.165-.044-.178-.008-.115.008-.115.044-.178.082-.165.115-.143.143-.115.165-.082.178-.044.115-.008Z" style="stroke:#afafaf;stroke-width:.0212;stroke-opacity:1;stroke-linecap:round;stroke-linejoin:round;fill:none"/>
    </g>
    <g style="fill:none;stroke:#afafaf;stroke-width:.0806;stroke-opacity:1;stroke-linecap:round;stroke-linejoin:round">
        <g class="stroked-text">
            <path d="M3.511 5.539v.644M3.281 5.17l-.23.69M3.05 5.86h.6"/>
        </g>
        <path d="m3.927 4.89.115.008.178.044.165.082.143.115.115.143.082.165.044.178.008.115-.008.115-.044.178-.082.165-.115.143-.143.115-.165.082-.178.044-.115.008h-1.2l-.115-.008-.178-.044-.165-.082-.143-.115-.115-.143-.082-.165-.044-.178-.008-.115.008-.115.044-.178.082-.165.115-.143.143-.115.165-.082.178-.044.115-.008Z" style="stroke:#afafaf;stroke-width:.0212;stroke-opacity:1;stroke-linecap:round;stroke-linejoin:round;fill:none"/>
    </g>
    <g style="fill:none;stroke:#afafaf;stroke-width:.0806;stroke-opacity:1;stroke-linecap:round;stroke-linejoin:round">
        <g class="stroked-text">
            <path d="M4.511 5.539v.644M4.281 5.17l-.23.69M4.05 5.86h.6"/>
        </g>
        <path d="m4.927 4.89.115.008.178.044.165.082.143.115.115.143.082.165.044.178.008.115-.008.115-.044.178-.082.165-.115.143-.143.115-.165.082-.178.044-.115.008h-1.2l-.115-.008-.178-.044-.165-.082-.143-.115-.115-.143-.082-.165-.044-.178-.008-.115.008-.115.044-.178.082-.165.115-.143.143-.115.165-.082.178-.044.115-.008Z" style="stroke:#afafaf;stroke-width:.0212;stroke-opacity:1;stroke-linecap:round;stroke-linejoin:round;fill:none"/>
        <path d="M6.927 1.9h30v15.3h-30Z" style="stroke:#c2c2c2;stroke-width:.05;stroke-opacity:1;stroke-linecap:round;stroke-linejoin:round;fill:none"/>
        <path d="M9.737 6.01h24.38v7.58H9.737Z" style="stroke:#c2c2c2;stroke-width:.05;stroke-opacity:1;stroke-linecap:round;stroke-linejoin:round;fill:none"/>
    </g>
</svg>
