<?xml version="1.0" standalone="no"?>
 <!DOCTYPE svg PUBLIC "-//W3C//DTD SVG 1.1//EN" 
 "http://www.w3.org/Graphics/SVG/1.1/DTD/svg11.dtd"> 
<svg
  xmlns:svg="http://www.w3.org/2000/svg"
  xmlns="http://www.w3.org/2000/svg"
  xmlns:xlink="http://www.w3.org/1999/xlink"
  version="1.1"
  width="26.3906mm" height="46.9900mm" viewBox="0.0000 0.0000 26.3906 46.9900">
<title>SVG Image created as OLED_SH1107_64x128_1.3inch_I2C.svg date 2025/05/12 03:05:53 </title>
  <desc>Image generated by PCBNEW </desc>
<g style="fill:#000000; fill-opacity:1.0000;stroke:#000000; stroke-opacity:1.0000;
stroke-linecap:round; stroke-linejoin:round;"
 transform="translate(0 0) scale(1 1)">
</g>
<g style="fill:none; 
stroke:#F2EDA1; stroke-width:0.1500; stroke-opacity:1; 
stroke-linecap:round; stroke-linejoin:round;">
<g transform="rotate(-270.000000 19.2964 2.2679)">
<text x="19.2964" y="2.7679"
textLength="4.5357" font-size="1.3333" lengthAdjust="spacingAndGlyphs"
text-anchor="middle" opacity="0" stroke-opacity="0">REF**</text>
</g>
<g class="stroked-text"><desc>REF**</desc>
<path d="M18.8416 0.9345
L19.3178 0.6012
" />
<path d="M18.8416 0.3631
L19.8416 0.3631
" />
<path d="M19.8416 0.3631
L19.8416 0.7440
" />
<path d="M19.8416 0.7440
L19.7940 0.8393
" />
<path d="M19.7940 0.8393
L19.7464 0.8869
" />
<path d="M19.7464 0.8869
L19.6511 0.9345
" />
<path d="M19.6511 0.9345
L19.5083 0.9345
" />
<path d="M19.5083 0.9345
L19.4130 0.8869
" />
<path d="M19.4130 0.8869
L19.3654 0.8393
" />
<path d="M19.3654 0.8393
L19.3178 0.7440
" />
<path d="M19.3178 0.7440
L19.3178 0.3631
" />
<path d="M19.3654 1.3631
L19.3654 1.6964
" />
<path d="M18.8416 1.8393
L18.8416 1.3631
" />
<path d="M18.8416 1.3631
L19.8416 1.3631
" />
<path d="M19.8416 1.3631
L19.8416 1.8393
" />
<path d="M19.3654 2.6012
L19.3654 2.2679
" />
<path d="M18.8416 2.2679
L19.8416 2.2679
" />
<path d="M19.8416 2.2679
L19.8416 2.7440
" />
<path d="M19.8416 3.2679
L19.6035 3.2679
" />
<path d="M19.6988 3.0298
L19.6035 3.2679
" />
<path d="M19.6035 3.2679
L19.6988 3.5060
" />
<path d="M19.4130 3.1250
L19.6035 3.2679
" />
<path d="M19.6035 3.2679
L19.4130 3.4107
" />
<path d="M19.8416 4.0298
L19.6035 4.0298
" />
<path d="M19.6988 3.7917
L19.6035 4.0298
" />
<path d="M19.6035 4.0298
L19.6988 4.2679
" />
<path d="M19.4130 3.8869
L19.6035 4.0298
" />
<path d="M19.6035 4.0298
L19.4130 4.1726
" />
</g></g>
<g style="fill:none; 
stroke:#F2EDA1; stroke-width:0.1200; stroke-opacity:1; 
stroke-linecap:round; stroke-linejoin:round;">
<text x="17.0104" y="1.4043"
textLength="1.9257" font-size="0.8000" lengthAdjust="spacingAndGlyphs"
text-anchor="middle" opacity="0" stroke-opacity="0">SDA</text>
<g class="stroked-text"><desc>SDA</desc>
<path d="M16.2819 1.2960
L16.3676 1.3246
" />
<path d="M16.3676 1.3246
L16.5104 1.3246
" />
<path d="M16.5104 1.3246
L16.5676 1.2960
" />
<path d="M16.5676 1.2960
L16.5961 1.2674
" />
<path d="M16.5961 1.2674
L16.6247 1.2103
" />
<path d="M16.6247 1.2103
L16.6247 1.1532
" />
<path d="M16.6247 1.1532
L16.5961 1.0960
" />
<path d="M16.5961 1.0960
L16.5676 1.0674
" />
<path d="M16.5676 1.0674
L16.5104 1.0389
" />
<path d="M16.5104 1.0389
L16.3961 1.0103
" />
<path d="M16.3961 1.0103
L16.3390 0.9817
" />
<path d="M16.3390 0.9817
L16.3104 0.9532
" />
<path d="M16.3104 0.9532
L16.2819 0.8960
" />
<path d="M16.2819 0.8960
L16.2819 0.8389
" />
<path d="M16.2819 0.8389
L16.3104 0.7817
" />
<path d="M16.3104 0.7817
L16.3390 0.7532
" />
<path d="M16.3390 0.7532
L16.3961 0.7246
" />
<path d="M16.3961 0.7246
L16.5390 0.7246
" />
<path d="M16.5390 0.7246
L16.6247 0.7532
" />
<path d="M16.8819 1.3246
L16.8819 0.7246
" />
<path d="M16.8819 0.7246
L17.0247 0.7246
" />
<path d="M17.0247 0.7246
L17.1104 0.7532
" />
<path d="M17.1104 0.7532
L17.1676 0.8103
" />
<path d="M17.1676 0.8103
L17.1961 0.8674
" />
<path d="M17.1961 0.8674
L17.2247 0.9817
" />
<path d="M17.2247 0.9817
L17.2247 1.0674
" />
<path d="M17.2247 1.0674
L17.1961 1.1817
" />
<path d="M17.1961 1.1817
L17.1676 1.2389
" />
<path d="M17.1676 1.2389
L17.1104 1.2960
" />
<path d="M17.1104 1.2960
L17.0247 1.3246
" />
<path d="M17.0247 1.3246
L16.8819 1.3246
" />
<path d="M17.4533 1.1532
L17.7390 1.1532
" />
<path d="M17.3961 1.3246
L17.5961 0.7246
" />
<path d="M17.5961 0.7246
L17.7961 1.3246
" />
</g><text x="9.3904" y="1.4043"
textLength="2.0686" font-size="0.8000" lengthAdjust="spacingAndGlyphs"
text-anchor="middle" opacity="0" stroke-opacity="0">GND</text>
<g class="stroked-text"><desc>GND</desc>
<path d="M8.9333 0.7532
L8.8761 0.7246
" />
<path d="M8.8761 0.7246
L8.7904 0.7246
" />
<path d="M8.7904 0.7246
L8.7047 0.7532
" />
<path d="M8.7047 0.7532
L8.6476 0.8103
" />
<path d="M8.6476 0.8103
L8.6190 0.8674
" />
<path d="M8.6190 0.8674
L8.5904 0.9817
" />
<path d="M8.5904 0.9817
L8.5904 1.0674
" />
<path d="M8.5904 1.0674
L8.6190 1.1817
" />
<path d="M8.6190 1.1817
L8.6476 1.2389
" />
<path d="M8.6476 1.2389
L8.7047 1.2960
" />
<path d="M8.7047 1.2960
L8.7904 1.3246
" />
<path d="M8.7904 1.3246
L8.8476 1.3246
" />
<path d="M8.8476 1.3246
L8.9333 1.2960
" />
<path d="M8.9333 1.2960
L8.9619 1.2674
" />
<path d="M8.9619 1.2674
L8.9619 1.0674
" />
<path d="M8.9619 1.0674
L8.8476 1.0674
" />
<path d="M9.2190 1.3246
L9.2190 0.7246
" />
<path d="M9.2190 0.7246
L9.5619 1.3246
" />
<path d="M9.5619 1.3246
L9.5619 0.7246
" />
<path d="M9.8476 1.3246
L9.8476 0.7246
" />
<path d="M9.8476 0.7246
L9.9904 0.7246
" />
<path d="M9.9904 0.7246
L10.0761 0.7532
" />
<path d="M10.0761 0.7532
L10.1333 0.8103
" />
<path d="M10.1333 0.8103
L10.1619 0.8674
" />
<path d="M10.1619 0.8674
L10.1904 0.9817
" />
<path d="M10.1904 0.9817
L10.1904 1.0674
" />
<path d="M10.1904 1.0674
L10.1619 1.1817
" />
<path d="M10.1619 1.1817
L10.1333 1.2389
" />
<path d="M10.1333 1.2389
L10.0761 1.2960
" />
<path d="M10.0761 1.2960
L9.9904 1.3246
" />
<path d="M9.9904 1.3246
L9.8476 1.3246
" />
</g><text x="14.4704" y="1.4043"
textLength="1.8971" font-size="0.8000" lengthAdjust="spacingAndGlyphs"
text-anchor="middle" opacity="0" stroke-opacity="0">SCL</text>
<g class="stroked-text"><desc>SCL</desc>
<path d="M13.7561 1.2960
L13.8419 1.3246
" />
<path d="M13.8419 1.3246
L13.9847 1.3246
" />
<path d="M13.9847 1.3246
L14.0419 1.2960
" />
<path d="M14.0419 1.2960
L14.0704 1.2674
" />
<path d="M14.0704 1.2674
L14.0990 1.2103
" />
<path d="M14.0990 1.2103
L14.0990 1.1532
" />
<path d="M14.0990 1.1532
L14.0704 1.0960
" />
<path d="M14.0704 1.0960
L14.0419 1.0674
" />
<path d="M14.0419 1.0674
L13.9847 1.0389
" />
<path d="M13.9847 1.0389
L13.8704 1.0103
" />
<path d="M13.8704 1.0103
L13.8133 0.9817
" />
<path d="M13.8133 0.9817
L13.7847 0.9532
" />
<path d="M13.7847 0.9532
L13.7561 0.8960
" />
<path d="M13.7561 0.8960
L13.7561 0.8389
" />
<path d="M13.7561 0.8389
L13.7847 0.7817
" />
<path d="M13.7847 0.7817
L13.8133 0.7532
" />
<path d="M13.8133 0.7532
L13.8704 0.7246
" />
<path d="M13.8704 0.7246
L14.0133 0.7246
" />
<path d="M14.0133 0.7246
L14.0990 0.7532
" />
<path d="M14.6990 1.2674
L14.6704 1.2960
" />
<path d="M14.6704 1.2960
L14.5847 1.3246
" />
<path d="M14.5847 1.3246
L14.5276 1.3246
" />
<path d="M14.5276 1.3246
L14.4419 1.2960
" />
<path d="M14.4419 1.2960
L14.3847 1.2389
" />
<path d="M14.3847 1.2389
L14.3561 1.1817
" />
<path d="M14.3561 1.1817
L14.3276 1.0674
" />
<path d="M14.3276 1.0674
L14.3276 0.9817
" />
<path d="M14.3276 0.9817
L14.3561 0.8674
" />
<path d="M14.3561 0.8674
L14.3847 0.8103
" />
<path d="M14.3847 0.8103
L14.4419 0.7532
" />
<path d="M14.4419 0.7532
L14.5276 0.7246
" />
<path d="M14.5276 0.7246
L14.5847 0.7246
" />
<path d="M14.5847 0.7246
L14.6704 0.7532
" />
<path d="M14.6704 0.7532
L14.6990 0.7817
" />
<path d="M15.2419 1.3246
L14.9561 1.3246
" />
<path d="M14.9561 1.3246
L14.9561 0.7246
" />
</g><text x="11.9304" y="1.4043"
textLength="1.9543" font-size="0.8000" lengthAdjust="spacingAndGlyphs"
text-anchor="middle" opacity="0" stroke-opacity="0">VCC</text>
<g class="stroked-text"><desc>VCC</desc>
<path d="M11.1304 0.7246
L11.3304 1.3246
" />
<path d="M11.3304 1.3246
L11.5304 0.7246
" />
<path d="M12.0733 1.2674
L12.0447 1.2960
" />
<path d="M12.0447 1.2960
L11.9590 1.3246
" />
<path d="M11.9590 1.3246
L11.9019 1.3246
" />
<path d="M11.9019 1.3246
L11.8161 1.2960
" />
<path d="M11.8161 1.2960
L11.7590 1.2389
" />
<path d="M11.7590 1.2389
L11.7304 1.1817
" />
<path d="M11.7304 1.1817
L11.7019 1.0674
" />
<path d="M11.7019 1.0674
L11.7019 0.9817
" />
<path d="M11.7019 0.9817
L11.7304 0.8674
" />
<path d="M11.7304 0.8674
L11.7590 0.8103
" />
<path d="M11.7590 0.8103
L11.8161 0.7532
" />
<path d="M11.8161 0.7532
L11.9019 0.7246
" />
<path d="M11.9019 0.7246
L11.9590 0.7246
" />
<path d="M11.9590 0.7246
L12.0447 0.7532
" />
<path d="M12.0447 0.7532
L12.0733 0.7817
" />
<path d="M12.6733 1.2674
L12.6447 1.2960
" />
<path d="M12.6447 1.2960
L12.5590 1.3246
" />
<path d="M12.5590 1.3246
L12.5019 1.3246
" />
<path d="M12.5019 1.3246
L12.4161 1.2960
" />
<path d="M12.4161 1.2960
L12.3590 1.2389
" />
<path d="M12.3590 1.2389
L12.3304 1.1817
" />
<path d="M12.3304 1.1817
L12.3019 1.0674
" />
<path d="M12.3019 1.0674
L12.3019 0.9817
" />
<path d="M12.3019 0.9817
L12.3304 0.8674
" />
<path d="M12.3304 0.8674
L12.3590 0.8103
" />
<path d="M12.3590 0.8103
L12.4161 0.7532
" />
<path d="M12.4161 0.7532
L12.5019 0.7246
" />
<path d="M12.5019 0.7246
L12.5590 0.7246
" />
<path d="M12.5590 0.7246
L12.6447 0.7532
" />
<path d="M12.6447 0.7532
L12.6733 0.7817
" />
</g><path style="fill:none; 
stroke:#F2EDA1; stroke-width:0.1200; stroke-opacity:1; 
stroke-linecap:round; stroke-linejoin:round;fill:none"
d="M 8.1164,0.3509
10.6564,0.3509
10.6564,4.2879
8.1164,4.2879
Z" /> 
<path style="fill:none; 
stroke:#F2EDA1; stroke-width:0.1200; stroke-opacity:1; 
stroke-linecap:round; stroke-linejoin:round;fill:none"
d="M 8.1164,1.7479
18.2764,1.7479
18.2764,4.2879
8.1164,4.2879
Z" /> 
<path style="fill:none; 
stroke:#F2EDA1; stroke-width:0.1200; stroke-opacity:1; 
stroke-linecap:round; stroke-linejoin:round;fill:none"
d="M 10.6564,0.3509
13.1964,0.3509
13.1964,4.2879
10.6564,4.2879
Z" /> 
<path style="fill:none; 
stroke:#F2EDA1; stroke-width:0.1200; stroke-opacity:1; 
stroke-linecap:round; stroke-linejoin:round;fill:none"
d="M 13.1964,0.3509
15.7364,0.3509
15.7364,4.2879
13.1964,4.2879
Z" /> 
<path style="fill:none; 
stroke:#F2EDA1; stroke-width:0.1200; stroke-opacity:1; 
stroke-linecap:round; stroke-linejoin:round;fill:none"
d="M 15.7364,0.3509
18.2764,0.3509
18.2764,4.2879
15.7364,4.2879
Z" /> 
</g>
<g style="fill:#4D7FC4; fill-opacity:1.0000; stroke:none;">
<circle cx="17.0064" cy="3.0179" r="0.8500" /> 
</g>
<g style="fill:#4D7FC4; fill-opacity:1.0000; stroke:none;">
<circle cx="14.4664" cy="3.0179" r="0.8500" /> 
</g>
<g style="fill:#4D7FC4; fill-opacity:1.0000; stroke:none;">
<circle cx="11.9264" cy="3.0179" r="0.8500" /> 
</g>
<g style="fill:#4D7FC4; fill-opacity:1.0000; stroke:none;">
<circle cx="9.3864" cy="3.0179" r="0.8500" /> 
</g>
<g style="fill:#C83434; fill-opacity:1.0000; stroke:none;">
<circle cx="17.0064" cy="3.0179" r="0.8500" /> 
</g>
<g style="fill:#C83434; fill-opacity:1.0000; stroke:none;">
<circle cx="14.4664" cy="3.0179" r="0.8500" /> 
</g>
<g style="fill:#C83434; fill-opacity:1.0000; stroke:none;">
<circle cx="11.9264" cy="3.0179" r="0.8500" /> 
</g>
<g style="fill:#C83434; fill-opacity:1.0000; stroke:none;">
<circle cx="9.3864" cy="3.0179" r="0.8500" /> 
</g>
<g style="fill:none; 
stroke:#585D84; stroke-width:0.0472; stroke-opacity:1; 
stroke-linecap:round; stroke-linejoin:round;">
<text x="17.0064" y="3.3012"
textLength="0.5680" font-size="0.7556" lengthAdjust="spacingAndGlyphs"
text-anchor="middle" opacity="0" stroke-opacity="0">1</text>
<g class="stroked-text"><desc>1</desc>
<path d="M17.1683 3.2776
L16.8445 3.2776
" />
<path d="M17.0064 3.2776
L17.0064 2.7109
" />
<path d="M17.0064 2.7109
L16.9525 2.7918
" />
<path d="M16.9525 2.7918
L16.8985 2.8458
" />
<path d="M16.8985 2.8458
L16.8445 2.8728
" />
</g></g>
<g style="fill:none; 
stroke:#585D84; stroke-width:0.0212; stroke-opacity:1; 
stroke-linecap:round; stroke-linejoin:round;">
<circle cx="17.0064" cy="3.0179" r="0.8500" /> 
</g>
<g style="fill:none; 
stroke:#585D84; stroke-width:0.0472; stroke-opacity:1; 
stroke-linecap:round; stroke-linejoin:round;">
<text x="14.4664" y="3.3012"
textLength="0.5680" font-size="0.7556" lengthAdjust="spacingAndGlyphs"
text-anchor="middle" opacity="0" stroke-opacity="0">2</text>
<g class="stroked-text"><desc>2</desc>
<path d="M14.3045 2.7649
L14.3315 2.7379
" />
<path d="M14.3315 2.7379
L14.3855 2.7109
" />
<path d="M14.3855 2.7109
L14.5204 2.7109
" />
<path d="M14.5204 2.7109
L14.5744 2.7379
" />
<path d="M14.5744 2.7379
L14.6013 2.7649
" />
<path d="M14.6013 2.7649
L14.6283 2.8188
" />
<path d="M14.6283 2.8188
L14.6283 2.8728
" />
<path d="M14.6283 2.8728
L14.6013 2.9537
" />
<path d="M14.6013 2.9537
L14.2775 3.2776
" />
<path d="M14.2775 3.2776
L14.6283 3.2776
" />
</g></g>
<g style="fill:none; 
stroke:#585D84; stroke-width:0.0212; stroke-opacity:1; 
stroke-linecap:round; stroke-linejoin:round;">
<circle cx="14.4664" cy="3.0179" r="0.8500" /> 
</g>
<g style="fill:none; 
stroke:#585D84; stroke-width:0.0472; stroke-opacity:1; 
stroke-linecap:round; stroke-linejoin:round;">
<text x="11.9264" y="3.3012"
textLength="0.5680" font-size="0.7556" lengthAdjust="spacingAndGlyphs"
text-anchor="middle" opacity="0" stroke-opacity="0">3</text>
<g class="stroked-text"><desc>3</desc>
<path d="M11.7375 2.7109
L12.0883 2.7109
" />
<path d="M12.0883 2.7109
L11.8994 2.9268
" />
<path d="M11.8994 2.9268
L11.9804 2.9268
" />
<path d="M11.9804 2.9268
L12.0344 2.9537
" />
<path d="M12.0344 2.9537
L12.0613 2.9807
" />
<path d="M12.0613 2.9807
L12.0883 3.0347
" />
<path d="M12.0883 3.0347
L12.0883 3.1696
" />
<path d="M12.0883 3.1696
L12.0613 3.2236
" />
<path d="M12.0613 3.2236
L12.0344 3.2506
" />
<path d="M12.0344 3.2506
L11.9804 3.2776
" />
<path d="M11.9804 3.2776
L11.8185 3.2776
" />
<path d="M11.8185 3.2776
L11.7645 3.2506
" />
<path d="M11.7645 3.2506
L11.7375 3.2236
" />
</g></g>
<g style="fill:none; 
stroke:#585D84; stroke-width:0.0212; stroke-opacity:1; 
stroke-linecap:round; stroke-linejoin:round;">
<circle cx="11.9264" cy="3.0179" r="0.8500" /> 
</g>
<g style="fill:none; 
stroke:#585D84; stroke-width:0.0472; stroke-opacity:1; 
stroke-linecap:round; stroke-linejoin:round;">
<text x="9.3864" y="3.3012"
textLength="0.5680" font-size="0.7556" lengthAdjust="spacingAndGlyphs"
text-anchor="middle" opacity="0" stroke-opacity="0">4</text>
<g class="stroked-text"><desc>4</desc>
<path d="M9.4944 2.8998
L9.4944 3.2776
" />
<path d="M9.3594 2.6839
L9.2245 3.0887
" />
<path d="M9.2245 3.0887
L9.5753 3.0887
" />
</g></g>
<g style="fill:none; 
stroke:#585D84; stroke-width:0.0212; stroke-opacity:1; 
stroke-linecap:round; stroke-linejoin:round;">
<circle cx="9.3864" cy="3.0179" r="0.8500" /> 
</g>
<g style="fill:none; 
stroke:#AFAFAF; stroke-width:0.1500; stroke-opacity:1; 
stroke-linecap:round; stroke-linejoin:round;">
<text x="13.1964" y="45.1479"
textLength="26.3929" font-size="1.3333" lengthAdjust="spacingAndGlyphs"
text-anchor="middle" opacity="0" stroke-opacity="0">OLED_SH1107_64x128_1.3inch_I2C</text>
<g class="stroked-text"><desc>OLED_SH1107_64x128_1.3inch_I2C</desc>
<path d="M0.5536 44.1027
L0.7440 44.1027
" />
<path d="M0.7440 44.1027
L0.8393 44.1503
" />
<path d="M0.8393 44.1503
L0.9345 44.2455
" />
<path d="M0.9345 44.2455
L0.9821 44.4360
" />
<path d="M0.9821 44.4360
L0.9821 44.7693
" />
<path d="M0.9821 44.7693
L0.9345 44.9598
" />
<path d="M0.9345 44.9598
L0.8393 45.0551
" />
<path d="M0.8393 45.0551
L0.7440 45.1027
" />
<path d="M0.7440 45.1027
L0.5536 45.1027
" />
<path d="M0.5536 45.1027
L0.4583 45.0551
" />
<path d="M0.4583 45.0551
L0.3631 44.9598
" />
<path d="M0.3631 44.9598
L0.3155 44.7693
" />
<path d="M0.3155 44.7693
L0.3155 44.4360
" />
<path d="M0.3155 44.4360
L0.3631 44.2455
" />
<path d="M0.3631 44.2455
L0.4583 44.1503
" />
<path d="M0.4583 44.1503
L0.5536 44.1027
" />
<path d="M1.8869 45.1027
L1.4107 45.1027
" />
<path d="M1.4107 45.1027
L1.4107 44.1027
" />
<path d="M2.2202 44.5789
L2.5536 44.5789
" />
<path d="M2.6964 45.1027
L2.2202 45.1027
" />
<path d="M2.2202 45.1027
L2.2202 44.1027
" />
<path d="M2.2202 44.1027
L2.6964 44.1027
" />
<path d="M3.1250 45.1027
L3.1250 44.1027
" />
<path d="M3.1250 44.1027
L3.3631 44.1027
" />
<path d="M3.3631 44.1027
L3.5060 44.1503
" />
<path d="M3.5060 44.1503
L3.6012 44.2455
" />
<path d="M3.6012 44.2455
L3.6488 44.3408
" />
<path d="M3.6488 44.3408
L3.6964 44.5312
" />
<path d="M3.6964 44.5312
L3.6964 44.6741
" />
<path d="M3.6964 44.6741
L3.6488 44.8646
" />
<path d="M3.6488 44.8646
L3.6012 44.9598
" />
<path d="M3.6012 44.9598
L3.5060 45.0551
" />
<path d="M3.5060 45.0551
L3.3631 45.1027
" />
<path d="M3.3631 45.1027
L3.1250 45.1027
" />
<path d="M3.8869 45.1979
L4.6488 45.1979
" />
<path d="M4.8393 45.0551
L4.9821 45.1027
" />
<path d="M4.9821 45.1027
L5.2202 45.1027
" />
<path d="M5.2202 45.1027
L5.3155 45.0551
" />
<path d="M5.3155 45.0551
L5.3631 45.0074
" />
<path d="M5.3631 45.0074
L5.4107 44.9122
" />
<path d="M5.4107 44.9122
L5.4107 44.8170
" />
<path d="M5.4107 44.8170
L5.3631 44.7217
" />
<path d="M5.3631 44.7217
L5.3155 44.6741
" />
<path d="M5.3155 44.6741
L5.2202 44.6265
" />
<path d="M5.2202 44.6265
L5.0298 44.5789
" />
<path d="M5.0298 44.5789
L4.9345 44.5312
" />
<path d="M4.9345 44.5312
L4.8869 44.4836
" />
<path d="M4.8869 44.4836
L4.8393 44.3884
" />
<path d="M4.8393 44.3884
L4.8393 44.2932
" />
<path d="M4.8393 44.2932
L4.8869 44.1979
" />
<path d="M4.8869 44.1979
L4.9345 44.1503
" />
<path d="M4.9345 44.1503
L5.0298 44.1027
" />
<path d="M5.0298 44.1027
L5.2679 44.1027
" />
<path d="M5.2679 44.1027
L5.4107 44.1503
" />
<path d="M5.8393 45.1027
L5.8393 44.1027
" />
<path d="M5.8393 44.5789
L6.4107 44.5789
" />
<path d="M6.4107 45.1027
L6.4107 44.1027
" />
<path d="M7.4107 45.1027
L6.8393 45.1027
" />
<path d="M7.1250 45.1027
L7.1250 44.1027
" />
<path d="M7.1250 44.1027
L7.0298 44.2455
" />
<path d="M7.0298 44.2455
L6.9345 44.3408
" />
<path d="M6.9345 44.3408
L6.8393 44.3884
" />
<path d="M8.3631 45.1027
L7.7917 45.1027
" />
<path d="M8.0774 45.1027
L8.0774 44.1027
" />
<path d="M8.0774 44.1027
L7.9821 44.2455
" />
<path d="M7.9821 44.2455
L7.8869 44.3408
" />
<path d="M7.8869 44.3408
L7.7917 44.3884
" />
<path d="M8.9821 44.1027
L9.0774 44.1027
" />
<path d="M9.0774 44.1027
L9.1726 44.1503
" />
<path d="M9.1726 44.1503
L9.2202 44.1979
" />
<path d="M9.2202 44.1979
L9.2679 44.2932
" />
<path d="M9.2679 44.2932
L9.3155 44.4836
" />
<path d="M9.3155 44.4836
L9.3155 44.7217
" />
<path d="M9.3155 44.7217
L9.2679 44.9122
" />
<path d="M9.2679 44.9122
L9.2202 45.0074
" />
<path d="M9.2202 45.0074
L9.1726 45.0551
" />
<path d="M9.1726 45.0551
L9.0774 45.1027
" />
<path d="M9.0774 45.1027
L8.9821 45.1027
" />
<path d="M8.9821 45.1027
L8.8869 45.0551
" />
<path d="M8.8869 45.0551
L8.8393 45.0074
" />
<path d="M8.8393 45.0074
L8.7917 44.9122
" />
<path d="M8.7917 44.9122
L8.7440 44.7217
" />
<path d="M8.7440 44.7217
L8.7440 44.4836
" />
<path d="M8.7440 44.4836
L8.7917 44.2932
" />
<path d="M8.7917 44.2932
L8.8393 44.1979
" />
<path d="M8.8393 44.1979
L8.8869 44.1503
" />
<path d="M8.8869 44.1503
L8.9821 44.1027
" />
<path d="M9.6488 44.1027
L10.3155 44.1027
" />
<path d="M10.3155 44.1027
L9.8869 45.1027
" />
<path d="M10.4583 45.1979
L11.2202 45.1979
" />
<path d="M11.8869 44.1027
L11.6964 44.1027
" />
<path d="M11.6964 44.1027
L11.6012 44.1503
" />
<path d="M11.6012 44.1503
L11.5536 44.1979
" />
<path d="M11.5536 44.1979
L11.4583 44.3408
" />
<path d="M11.4583 44.3408
L11.4107 44.5312
" />
<path d="M11.4107 44.5312
L11.4107 44.9122
" />
<path d="M11.4107 44.9122
L11.4583 45.0074
" />
<path d="M11.4583 45.0074
L11.5060 45.0551
" />
<path d="M11.5060 45.0551
L11.6012 45.1027
" />
<path d="M11.6012 45.1027
L11.7917 45.1027
" />
<path d="M11.7917 45.1027
L11.8869 45.0551
" />
<path d="M11.8869 45.0551
L11.9345 45.0074
" />
<path d="M11.9345 45.0074
L11.9821 44.9122
" />
<path d="M11.9821 44.9122
L11.9821 44.6741
" />
<path d="M11.9821 44.6741
L11.9345 44.5789
" />
<path d="M11.9345 44.5789
L11.8869 44.5312
" />
<path d="M11.8869 44.5312
L11.7917 44.4836
" />
<path d="M11.7917 44.4836
L11.6012 44.4836
" />
<path d="M11.6012 44.4836
L11.5060 44.5312
" />
<path d="M11.5060 44.5312
L11.4583 44.5789
" />
<path d="M11.4583 44.5789
L11.4107 44.6741
" />
<path d="M12.8393 44.4360
L12.8393 45.1027
" />
<path d="M12.6012 44.0551
L12.3631 44.7693
" />
<path d="M12.3631 44.7693
L12.9821 44.7693
" />
<path d="M13.2679 45.1027
L13.7917 44.4360
" />
<path d="M13.2679 44.4360
L13.7917 45.1027
" />
<path d="M14.6964 45.1027
L14.1250 45.1027
" />
<path d="M14.4107 45.1027
L14.4107 44.1027
" />
<path d="M14.4107 44.1027
L14.3155 44.2455
" />
<path d="M14.3155 44.2455
L14.2202 44.3408
" />
<path d="M14.2202 44.3408
L14.1250 44.3884
" />
<path d="M15.0774 44.1979
L15.1250 44.1503
" />
<path d="M15.1250 44.1503
L15.2202 44.1027
" />
<path d="M15.2202 44.1027
L15.4583 44.1027
" />
<path d="M15.4583 44.1027
L15.5536 44.1503
" />
<path d="M15.5536 44.1503
L15.6012 44.1979
" />
<path d="M15.6012 44.1979
L15.6488 44.2932
" />
<path d="M15.6488 44.2932
L15.6488 44.3884
" />
<path d="M15.6488 44.3884
L15.6012 44.5312
" />
<path d="M15.6012 44.5312
L15.0298 45.1027
" />
<path d="M15.0298 45.1027
L15.6488 45.1027
" />
<path d="M16.2202 44.5312
L16.1250 44.4836
" />
<path d="M16.1250 44.4836
L16.0774 44.4360
" />
<path d="M16.0774 44.4360
L16.0298 44.3408
" />
<path d="M16.0298 44.3408
L16.0298 44.2932
" />
<path d="M16.0298 44.2932
L16.0774 44.1979
" />
<path d="M16.0774 44.1979
L16.1250 44.1503
" />
<path d="M16.1250 44.1503
L16.2202 44.1027
" />
<path d="M16.2202 44.1027
L16.4107 44.1027
" />
<path d="M16.4107 44.1027
L16.5060 44.1503
" />
<path d="M16.5060 44.1503
L16.5536 44.1979
" />
<path d="M16.5536 44.1979
L16.6012 44.2932
" />
<path d="M16.6012 44.2932
L16.6012 44.3408
" />
<path d="M16.6012 44.3408
L16.5536 44.4360
" />
<path d="M16.5536 44.4360
L16.5060 44.4836
" />
<path d="M16.5060 44.4836
L16.4107 44.5312
" />
<path d="M16.4107 44.5312
L16.2202 44.5312
" />
<path d="M16.2202 44.5312
L16.1250 44.5789
" />
<path d="M16.1250 44.5789
L16.0774 44.6265
" />
<path d="M16.0774 44.6265
L16.0298 44.7217
" />
<path d="M16.0298 44.7217
L16.0298 44.9122
" />
<path d="M16.0298 44.9122
L16.0774 45.0074
" />
<path d="M16.0774 45.0074
L16.1250 45.0551
" />
<path d="M16.1250 45.0551
L16.2202 45.1027
" />
<path d="M16.2202 45.1027
L16.4107 45.1027
" />
<path d="M16.4107 45.1027
L16.5060 45.0551
" />
<path d="M16.5060 45.0551
L16.5536 45.0074
" />
<path d="M16.5536 45.0074
L16.6012 44.9122
" />
<path d="M16.6012 44.9122
L16.6012 44.7217
" />
<path d="M16.6012 44.7217
L16.5536 44.6265
" />
<path d="M16.5536 44.6265
L16.5060 44.5789
" />
<path d="M16.5060 44.5789
L16.4107 44.5312
" />
<path d="M16.7917 45.1979
L17.5536 45.1979
" />
<path d="M18.3155 45.1027
L17.7440 45.1027
" />
<path d="M18.0298 45.1027
L18.0298 44.1027
" />
<path d="M18.0298 44.1027
L17.9345 44.2455
" />
<path d="M17.9345 44.2455
L17.8393 44.3408
" />
<path d="M17.8393 44.3408
L17.7440 44.3884
" />
<path d="M18.7440 45.0074
L18.7917 45.0551
" />
<path d="M18.7917 45.0551
L18.7440 45.1027
" />
<path d="M18.7440 45.1027
L18.6964 45.0551
" />
<path d="M18.6964 45.0551
L18.7440 45.0074
" />
<path d="M18.7440 45.0074
L18.7440 45.1027
" />
<path d="M19.1250 44.1027
L19.7440 44.1027
" />
<path d="M19.7440 44.1027
L19.4107 44.4836
" />
<path d="M19.4107 44.4836
L19.5536 44.4836
" />
<path d="M19.5536 44.4836
L19.6488 44.5312
" />
<path d="M19.6488 44.5312
L19.6964 44.5789
" />
<path d="M19.6964 44.5789
L19.7440 44.6741
" />
<path d="M19.7440 44.6741
L19.7440 44.9122
" />
<path d="M19.7440 44.9122
L19.6964 45.0074
" />
<path d="M19.6964 45.0074
L19.6488 45.0551
" />
<path d="M19.6488 45.0551
L19.5536 45.1027
" />
<path d="M19.5536 45.1027
L19.2679 45.1027
" />
<path d="M19.2679 45.1027
L19.1726 45.0551
" />
<path d="M19.1726 45.0551
L19.1250 45.0074
" />
<path d="M20.1726 45.1027
L20.1726 44.4360
" />
<path d="M20.1726 44.1027
L20.1250 44.1503
" />
<path d="M20.1250 44.1503
L20.1726 44.1979
" />
<path d="M20.1726 44.1979
L20.2202 44.1503
" />
<path d="M20.2202 44.1503
L20.1726 44.1027
" />
<path d="M20.1726 44.1027
L20.1726 44.1979
" />
<path d="M20.6488 44.4360
L20.6488 45.1027
" />
<path d="M20.6488 44.5312
L20.6964 44.4836
" />
<path d="M20.6964 44.4836
L20.7917 44.4360
" />
<path d="M20.7917 44.4360
L20.9345 44.4360
" />
<path d="M20.9345 44.4360
L21.0298 44.4836
" />
<path d="M21.0298 44.4836
L21.0774 44.5789
" />
<path d="M21.0774 44.5789
L21.0774 45.1027
" />
<path d="M21.9821 45.0551
L21.8869 45.1027
" />
<path d="M21.8869 45.1027
L21.6964 45.1027
" />
<path d="M21.6964 45.1027
L21.6012 45.0551
" />
<path d="M21.6012 45.0551
L21.5536 45.0074
" />
<path d="M21.5536 45.0074
L21.5060 44.9122
" />
<path d="M21.5060 44.9122
L21.5060 44.6265
" />
<path d="M21.5060 44.6265
L21.5536 44.5312
" />
<path d="M21.5536 44.5312
L21.6012 44.4836
" />
<path d="M21.6012 44.4836
L21.6964 44.4360
" />
<path d="M21.6964 44.4360
L21.8869 44.4360
" />
<path d="M21.8869 44.4360
L21.9821 44.4836
" />
<path d="M22.4107 45.1027
L22.4107 44.1027
" />
<path d="M22.8393 45.1027
L22.8393 44.5789
" />
<path d="M22.8393 44.5789
L22.7917 44.4836
" />
<path d="M22.7917 44.4836
L22.6964 44.4360
" />
<path d="M22.6964 44.4360
L22.5536 44.4360
" />
<path d="M22.5536 44.4360
L22.4583 44.4836
" />
<path d="M22.4583 44.4836
L22.4107 44.5312
" />
<path d="M23.0774 45.1979
L23.8393 45.1979
" />
<path d="M24.0774 45.1027
L24.0774 44.1027
" />
<path d="M24.5060 44.1979
L24.5536 44.1503
" />
<path d="M24.5536 44.1503
L24.6488 44.1027
" />
<path d="M24.6488 44.1027
L24.8869 44.1027
" />
<path d="M24.8869 44.1027
L24.9821 44.1503
" />
<path d="M24.9821 44.1503
L25.0298 44.1979
" />
<path d="M25.0298 44.1979
L25.0774 44.2932
" />
<path d="M25.0774 44.2932
L25.0774 44.3884
" />
<path d="M25.0774 44.3884
L25.0298 44.5312
" />
<path d="M25.0298 44.5312
L24.4583 45.1027
" />
<path d="M24.4583 45.1027
L25.0774 45.1027
" />
<path d="M26.0774 45.0074
L26.0298 45.0551
" />
<path d="M26.0298 45.0551
L25.8869 45.1027
" />
<path d="M25.8869 45.1027
L25.7917 45.1027
" />
<path d="M25.7917 45.1027
L25.6488 45.0551
" />
<path d="M25.6488 45.0551
L25.5536 44.9598
" />
<path d="M25.5536 44.9598
L25.5060 44.8646
" />
<path d="M25.5060 44.8646
L25.4583 44.6741
" />
<path d="M25.4583 44.6741
L25.4583 44.5312
" />
<path d="M25.4583 44.5312
L25.5060 44.3408
" />
<path d="M25.5060 44.3408
L25.5536 44.2455
" />
<path d="M25.5536 44.2455
L25.6488 44.1503
" />
<path d="M25.6488 44.1503
L25.7917 44.1027
" />
<path d="M25.7917 44.1027
L25.8869 44.1027
" />
<path d="M25.8869 44.1027
L26.0298 44.1503
" />
<path d="M26.0298 44.1503
L26.0774 44.1979
" />
</g><text x="13.1964" y="46.6479"
textLength="4.5357" font-size="1.3333" lengthAdjust="spacingAndGlyphs"
text-anchor="middle" opacity="0" stroke-opacity="0">REF**</text>
<g class="stroked-text"><desc>REF**</desc>
<path d="M11.8631 46.6027
L11.5298 46.1265
" />
<path d="M11.2917 46.6027
L11.2917 45.6027
" />
<path d="M11.2917 45.6027
L11.6726 45.6027
" />
<path d="M11.6726 45.6027
L11.7679 45.6503
" />
<path d="M11.7679 45.6503
L11.8155 45.6979
" />
<path d="M11.8155 45.6979
L11.8631 45.7932
" />
<path d="M11.8631 45.7932
L11.8631 45.9360
" />
<path d="M11.8631 45.9360
L11.8155 46.0312
" />
<path d="M11.8155 46.0312
L11.7679 46.0789
" />
<path d="M11.7679 46.0789
L11.6726 46.1265
" />
<path d="M11.6726 46.1265
L11.2917 46.1265
" />
<path d="M12.2917 46.0789
L12.6250 46.0789
" />
<path d="M12.7679 46.6027
L12.2917 46.6027
" />
<path d="M12.2917 46.6027
L12.2917 45.6027
" />
<path d="M12.2917 45.6027
L12.7679 45.6027
" />
<path d="M13.5298 46.0789
L13.1964 46.0789
" />
<path d="M13.1964 46.6027
L13.1964 45.6027
" />
<path d="M13.1964 45.6027
L13.6726 45.6027
" />
<path d="M14.1964 45.6027
L14.1964 45.8408
" />
<path d="M13.9583 45.7455
L14.1964 45.8408
" />
<path d="M14.1964 45.8408
L14.4345 45.7455
" />
<path d="M14.0536 46.0312
L14.1964 45.8408
" />
<path d="M14.1964 45.8408
L14.3393 46.0312
" />
<path d="M14.9583 45.6027
L14.9583 45.8408
" />
<path d="M14.7202 45.7455
L14.9583 45.8408
" />
<path d="M14.9583 45.8408
L15.1964 45.7455
" />
<path d="M14.8155 46.0312
L14.9583 45.8408
" />
<path d="M14.9583 45.8408
L15.1012 46.0312
" />
</g><path style="fill:none; 
stroke:#AFAFAF; stroke-width:0.1000; stroke-opacity:1; 
stroke-linecap:round; stroke-linejoin:round;fill:none"
d="M 3.6964,1.5179
22.6964,1.5179
22.6964,43.5179
3.6964,43.5179
Z" /> 
<path style="fill:none; 
stroke:#AFAFAF; stroke-width:0.1000; stroke-opacity:1; 
stroke-linecap:round; stroke-linejoin:round;fill:none"
d="M 4.6464,6.0179
21.7464,6.0179
21.7464,41.8179
4.6464,41.8179
Z" /> 
</g>
<g style="fill:none; 
stroke:#AFAFAF; stroke-width:0.1000; stroke-opacity:1; 
stroke-linecap:round; stroke-linejoin:round;">
<path d="M5.5464 7.2179
L6.6464 7.2179
" />
<path d="M7.0464 7.2179
L8.1464 7.2179
" />
<path d="M8.5464 7.2179
L9.6464 7.2179
" />
<path d="M10.0464 7.2179
L11.1464 7.2179
" />
<path d="M11.5464 7.2179
L12.6464 7.2179
" />
<path d="M13.0464 7.2179
L14.1464 7.2179
" />
<path d="M14.5464 7.2179
L15.6464 7.2179
" />
<path d="M16.0464 7.2179
L17.1464 7.2179
" />
<path d="M17.5464 7.2179
L18.6464 7.2179
" />
<path d="M19.0464 7.2179
L20.1464 7.2179
" />
<path d="M20.5464 7.2179
L20.8464 7.2179
" />
<path d="M20.8464 7.2179
L20.8464 8.3179
" />
<path d="M20.8464 8.7179
L20.8464 9.8179
" />
<path d="M20.8464 10.2179
L20.8464 11.3179
" />
<path d="M20.8464 11.7179
L20.8464 12.8179
" />
<path d="M20.8464 13.2179
L20.8464 14.3179
" />
<path d="M20.8464 14.7179
L20.8464 15.8179
" />
<path d="M20.8464 16.2179
L20.8464 17.3179
" />
<path d="M20.8464 17.7179
L20.8464 18.8179
" />
<path d="M20.8464 19.2179
L20.8464 20.3179
" />
<path d="M20.8464 20.7179
L20.8464 21.8179
" />
<path d="M20.8464 22.2179
L20.8464 23.3179
" />
<path d="M20.8464 23.7179
L20.8464 24.8179
" />
<path d="M20.8464 25.2179
L20.8464 26.3179
" />
<path d="M20.8464 26.7179
L20.8464 27.8179
" />
<path d="M20.8464 28.2179
L20.8464 29.3179
" />
<path d="M20.8464 29.7179
L20.8464 30.8179
" />
<path d="M20.8464 31.2179
L20.8464 32.3179
" />
<path d="M20.8464 32.7179
L20.8464 33.8179
" />
<path d="M20.8464 34.2179
L20.8464 35.3179
" />
<path d="M20.8464 35.7179
L20.8464 36.8179
" />
</g>
<g style="fill:#AFAFAF; fill-opacity:1.0000; stroke:none;">
<circle cx="20.8464" cy="37.2179" r="0.0500" /> 
</g>
<g style="fill:none; 
stroke:#AFAFAF; stroke-width:0.1000; stroke-opacity:1; 
stroke-linecap:round; stroke-linejoin:round;">
<path d="M20.8464 37.2179
L19.7464 37.2179
" />
<path d="M19.3464 37.2179
L18.2464 37.2179
" />
<path d="M17.8464 37.2179
L16.7464 37.2179
" />
<path d="M16.3464 37.2179
L15.2464 37.2179
" />
<path d="M14.8464 37.2179
L13.7464 37.2179
" />
<path d="M13.3464 37.2179
L12.2464 37.2179
" />
<path d="M11.8464 37.2179
L10.7464 37.2179
" />
<path d="M10.3464 37.2179
L9.2464 37.2179
" />
<path d="M8.8464 37.2179
L7.7464 37.2179
" />
<path d="M7.3464 37.2179
L6.2464 37.2179
" />
<path d="M5.8464 37.2179
L5.5464 37.2179
" />
<path d="M5.5464 37.2179
L5.5464 36.1179
" />
<path d="M5.5464 35.7179
L5.5464 34.6179
" />
<path d="M5.5464 34.2179
L5.5464 33.1179
" />
<path d="M5.5464 32.7179
L5.5464 31.6179
" />
<path d="M5.5464 31.2179
L5.5464 30.1179
" />
<path d="M5.5464 29.7179
L5.5464 28.6179
" />
<path d="M5.5464 28.2179
L5.5464 27.1179
" />
<path d="M5.5464 26.7179
L5.5464 25.6179
" />
<path d="M5.5464 25.2179
L5.5464 24.1179
" />
<path d="M5.5464 23.7179
L5.5464 22.6179
" />
<path d="M5.5464 22.2179
L5.5464 21.1179
" />
<path d="M5.5464 20.7179
L5.5464 19.6179
" />
<path d="M5.5464 19.2179
L5.5464 18.1179
" />
<path d="M5.5464 17.7179
L5.5464 16.6179
" />
<path d="M5.5464 16.2179
L5.5464 15.1179
" />
<path d="M5.5464 14.7179
L5.5464 13.6179
" />
<path d="M5.5464 13.2179
L5.5464 12.1179
" />
<path d="M5.5464 11.7179
L5.5464 10.6179
" />
<path d="M5.5464 10.2179
L5.5464 9.1179
" />
<path d="M5.5464 8.7179
L5.5464 7.6179
" />
</g>
<g style="fill:#AFAFAF; fill-opacity:1.0000; stroke:none;">
<circle cx="5.5464" cy="7.2179" r="0.0500" /> 
</g>
<g style="fill:none; 
stroke:#AFAFAF; stroke-width:0.1000; stroke-opacity:1; 
stroke-linecap:round; stroke-linejoin:round;">
<circle cx="5.6964" cy="3.5179" r="1.1000" /> 
<circle cx="20.6964" cy="3.5179" r="1.1000" /> 
</g>
<g style="fill:none; 
stroke:#AFAFAF; stroke-width:0.0472; stroke-opacity:1; 
stroke-linecap:round; stroke-linejoin:round;">
<text x="17.0064" y="3.3012"
textLength="0.5680" font-size="0.7556" lengthAdjust="spacingAndGlyphs"
text-anchor="middle" opacity="0" stroke-opacity="0">1</text>
<g class="stroked-text"><desc>1</desc>
<path d="M17.1683 3.2776
L16.8445 3.2776
" />
<path d="M17.0064 3.2776
L17.0064 2.7109
" />
<path d="M17.0064 2.7109
L16.9525 2.7918
" />
<path d="M16.9525 2.7918
L16.8985 2.8458
" />
<path d="M16.8985 2.8458
L16.8445 2.8728
" />
</g></g>
<g style="fill:none; 
stroke:#AFAFAF; stroke-width:0.0212; stroke-opacity:1; 
stroke-linecap:round; stroke-linejoin:round;">
<circle cx="17.0064" cy="3.0179" r="0.8500" /> 
</g>
<g style="fill:none; 
stroke:#AFAFAF; stroke-width:0.0472; stroke-opacity:1; 
stroke-linecap:round; stroke-linejoin:round;">
<text x="14.4664" y="3.3012"
textLength="0.5680" font-size="0.7556" lengthAdjust="spacingAndGlyphs"
text-anchor="middle" opacity="0" stroke-opacity="0">2</text>
<g class="stroked-text"><desc>2</desc>
<path d="M14.3045 2.7649
L14.3315 2.7379
" />
<path d="M14.3315 2.7379
L14.3855 2.7109
" />
<path d="M14.3855 2.7109
L14.5204 2.7109
" />
<path d="M14.5204 2.7109
L14.5744 2.7379
" />
<path d="M14.5744 2.7379
L14.6013 2.7649
" />
<path d="M14.6013 2.7649
L14.6283 2.8188
" />
<path d="M14.6283 2.8188
L14.6283 2.8728
" />
<path d="M14.6283 2.8728
L14.6013 2.9537
" />
<path d="M14.6013 2.9537
L14.2775 3.2776
" />
<path d="M14.2775 3.2776
L14.6283 3.2776
" />
</g></g>
<g style="fill:none; 
stroke:#AFAFAF; stroke-width:0.0212; stroke-opacity:1; 
stroke-linecap:round; stroke-linejoin:round;">
<circle cx="14.4664" cy="3.0179" r="0.8500" /> 
</g>
<g style="fill:none; 
stroke:#AFAFAF; stroke-width:0.0472; stroke-opacity:1; 
stroke-linecap:round; stroke-linejoin:round;">
<text x="11.9264" y="3.3012"
textLength="0.5680" font-size="0.7556" lengthAdjust="spacingAndGlyphs"
text-anchor="middle" opacity="0" stroke-opacity="0">3</text>
<g class="stroked-text"><desc>3</desc>
<path d="M11.7375 2.7109
L12.0883 2.7109
" />
<path d="M12.0883 2.7109
L11.8994 2.9268
" />
<path d="M11.8994 2.9268
L11.9804 2.9268
" />
<path d="M11.9804 2.9268
L12.0344 2.9537
" />
<path d="M12.0344 2.9537
L12.0613 2.9807
" />
<path d="M12.0613 2.9807
L12.0883 3.0347
" />
<path d="M12.0883 3.0347
L12.0883 3.1696
" />
<path d="M12.0883 3.1696
L12.0613 3.2236
" />
<path d="M12.0613 3.2236
L12.0344 3.2506
" />
<path d="M12.0344 3.2506
L11.9804 3.2776
" />
<path d="M11.9804 3.2776
L11.8185 3.2776
" />
<path d="M11.8185 3.2776
L11.7645 3.2506
" />
<path d="M11.7645 3.2506
L11.7375 3.2236
" />
</g></g>
<g style="fill:none; 
stroke:#AFAFAF; stroke-width:0.0212; stroke-opacity:1; 
stroke-linecap:round; stroke-linejoin:round;">
<circle cx="11.9264" cy="3.0179" r="0.8500" /> 
</g>
<g style="fill:none; 
stroke:#AFAFAF; stroke-width:0.0472; stroke-opacity:1; 
stroke-linecap:round; stroke-linejoin:round;">
<text x="9.3864" y="3.3012"
textLength="0.5680" font-size="0.7556" lengthAdjust="spacingAndGlyphs"
text-anchor="middle" opacity="0" stroke-opacity="0">4</text>
<g class="stroked-text"><desc>4</desc>
<path d="M9.4944 2.8998
L9.4944 3.2776
" />
<path d="M9.3594 2.6839
L9.2245 3.0887
" />
<path d="M9.2245 3.0887
L9.5753 3.0887
" />
</g></g>
<g style="fill:none; 
stroke:#AFAFAF; stroke-width:0.0212; stroke-opacity:1; 
stroke-linecap:round; stroke-linejoin:round;">
<circle cx="9.3864" cy="3.0179" r="0.8500" /> 
<path style="fill:none; 
stroke:#C2C2C2; stroke-width:0.0500; stroke-opacity:1; 
stroke-linecap:round; stroke-linejoin:round;fill:none"
d="M 5.5464,7.2179
20.8464,7.2179
20.8464,37.2179
5.5464,37.2179
Z" /> 
</g> 
</svg>
