<?xml version="1.0" standalone="no"?>
 <!DOCTYPE svg PUBLIC "-//W3C//DTD SVG 1.1//EN" 
 "http://www.w3.org/Graphics/SVG/1.1/DTD/svg11.dtd"> 
<svg
  xmlns:svg="http://www.w3.org/2000/svg"
  xmlns="http://www.w3.org/2000/svg"
  xmlns:xlink="http://www.w3.org/1999/xlink"
  version="1.1"
  width="28.2448mm" height="40.0558mm" viewBox="0.0000 0.0000 28.2448 40.0558">
<title>SVG Image created as OLED_SSD1107_64x128_0.96inch_I2C.svg date 2025/04/12 02:50:53 </title>
  <desc>Image generated by PCBNEW </desc>
<g style="fill:#000000; fill-opacity:1.0000;stroke:#000000; stroke-opacity:1.0000;
stroke-linecap:round; stroke-linejoin:round;"
 transform="translate(0 0) scale(1 1)">
</g>
<g style="fill:none; 
stroke:#F2EDA1; stroke-width:0.1500; stroke-opacity:1; 
stroke-linecap:round; stroke-linejoin:round;">
<g transform="rotate(-270.000000 20.2250 2.2679)">
<text x="20.2250" y="2.7679"
textLength="4.5357" font-size="1.3333" lengthAdjust="spacingAndGlyphs"
text-anchor="middle" opacity="0" stroke-opacity="0">REF**</text>
</g>
<g class="stroked-text"><desc>REF**</desc>
<path d="M19.7702 0.9345
L20.2464 0.6012
" />
<path d="M19.7702 0.3631
L20.7702 0.3631
" />
<path d="M20.7702 0.3631
L20.7702 0.7440
" />
<path d="M20.7702 0.7440
L20.7226 0.8393
" />
<path d="M20.7226 0.8393
L20.6749 0.8869
" />
<path d="M20.6749 0.8869
L20.5797 0.9345
" />
<path d="M20.5797 0.9345
L20.4368 0.9345
" />
<path d="M20.4368 0.9345
L20.3416 0.8869
" />
<path d="M20.3416 0.8869
L20.2940 0.8393
" />
<path d="M20.2940 0.8393
L20.2464 0.7440
" />
<path d="M20.2464 0.7440
L20.2464 0.3631
" />
<path d="M20.2940 1.3631
L20.2940 1.6964
" />
<path d="M19.7702 1.8393
L19.7702 1.3631
" />
<path d="M19.7702 1.3631
L20.7702 1.3631
" />
<path d="M20.7702 1.3631
L20.7702 1.8393
" />
<path d="M20.2940 2.6012
L20.2940 2.2679
" />
<path d="M19.7702 2.2679
L20.7702 2.2679
" />
<path d="M20.7702 2.2679
L20.7702 2.7440
" />
<path d="M20.7702 3.2679
L20.5321 3.2679
" />
<path d="M20.6273 3.0298
L20.5321 3.2679
" />
<path d="M20.5321 3.2679
L20.6273 3.5060
" />
<path d="M20.3416 3.1250
L20.5321 3.2679
" />
<path d="M20.5321 3.2679
L20.3416 3.4107
" />
<path d="M20.7702 4.0298
L20.5321 4.0298
" />
<path d="M20.6273 3.7917
L20.5321 4.0298
" />
<path d="M20.5321 4.0298
L20.6273 4.2679
" />
<path d="M20.3416 3.8869
L20.5321 4.0298
" />
<path d="M20.5321 4.0298
L20.3416 4.1726
" />
</g></g>
<g style="fill:none; 
stroke:#F2EDA1; stroke-width:0.1200; stroke-opacity:1; 
stroke-linecap:round; stroke-linejoin:round;">
<text x="17.9390" y="1.4043"
textLength="1.9257" font-size="0.8000" lengthAdjust="spacingAndGlyphs"
text-anchor="middle" opacity="0" stroke-opacity="0">SDA</text>
<g class="stroked-text"><desc>SDA</desc>
<path d="M17.2104 1.2960
L17.2961 1.3246
" />
<path d="M17.2961 1.3246
L17.4390 1.3246
" />
<path d="M17.4390 1.3246
L17.4961 1.2960
" />
<path d="M17.4961 1.2960
L17.5247 1.2674
" />
<path d="M17.5247 1.2674
L17.5533 1.2103
" />
<path d="M17.5533 1.2103
L17.5533 1.1532
" />
<path d="M17.5533 1.1532
L17.5247 1.0960
" />
<path d="M17.5247 1.0960
L17.4961 1.0674
" />
<path d="M17.4961 1.0674
L17.4390 1.0389
" />
<path d="M17.4390 1.0389
L17.3247 1.0103
" />
<path d="M17.3247 1.0103
L17.2676 0.9817
" />
<path d="M17.2676 0.9817
L17.2390 0.9532
" />
<path d="M17.2390 0.9532
L17.2104 0.8960
" />
<path d="M17.2104 0.8960
L17.2104 0.8389
" />
<path d="M17.2104 0.8389
L17.2390 0.7817
" />
<path d="M17.2390 0.7817
L17.2676 0.7532
" />
<path d="M17.2676 0.7532
L17.3247 0.7246
" />
<path d="M17.3247 0.7246
L17.4676 0.7246
" />
<path d="M17.4676 0.7246
L17.5533 0.7532
" />
<path d="M17.8104 1.3246
L17.8104 0.7246
" />
<path d="M17.8104 0.7246
L17.9533 0.7246
" />
<path d="M17.9533 0.7246
L18.0390 0.7532
" />
<path d="M18.0390 0.7532
L18.0961 0.8103
" />
<path d="M18.0961 0.8103
L18.1247 0.8674
" />
<path d="M18.1247 0.8674
L18.1533 0.9817
" />
<path d="M18.1533 0.9817
L18.1533 1.0674
" />
<path d="M18.1533 1.0674
L18.1247 1.1817
" />
<path d="M18.1247 1.1817
L18.0961 1.2389
" />
<path d="M18.0961 1.2389
L18.0390 1.2960
" />
<path d="M18.0390 1.2960
L17.9533 1.3246
" />
<path d="M17.9533 1.3246
L17.8104 1.3246
" />
<path d="M18.3819 1.1532
L18.6676 1.1532
" />
<path d="M18.3247 1.3246
L18.5247 0.7246
" />
<path d="M18.5247 0.7246
L18.7247 1.3246
" />
</g><text x="10.3190" y="1.4043"
textLength="2.0686" font-size="0.8000" lengthAdjust="spacingAndGlyphs"
text-anchor="middle" opacity="0" stroke-opacity="0">GND</text>
<g class="stroked-text"><desc>GND</desc>
<path d="M9.8619 0.7532
L9.8047 0.7246
" />
<path d="M9.8047 0.7246
L9.7190 0.7246
" />
<path d="M9.7190 0.7246
L9.6333 0.7532
" />
<path d="M9.6333 0.7532
L9.5761 0.8103
" />
<path d="M9.5761 0.8103
L9.5476 0.8674
" />
<path d="M9.5476 0.8674
L9.5190 0.9817
" />
<path d="M9.5190 0.9817
L9.5190 1.0674
" />
<path d="M9.5190 1.0674
L9.5476 1.1817
" />
<path d="M9.5476 1.1817
L9.5761 1.2389
" />
<path d="M9.5761 1.2389
L9.6333 1.2960
" />
<path d="M9.6333 1.2960
L9.7190 1.3246
" />
<path d="M9.7190 1.3246
L9.7761 1.3246
" />
<path d="M9.7761 1.3246
L9.8619 1.2960
" />
<path d="M9.8619 1.2960
L9.8904 1.2674
" />
<path d="M9.8904 1.2674
L9.8904 1.0674
" />
<path d="M9.8904 1.0674
L9.7761 1.0674
" />
<path d="M10.1476 1.3246
L10.1476 0.7246
" />
<path d="M10.1476 0.7246
L10.4904 1.3246
" />
<path d="M10.4904 1.3246
L10.4904 0.7246
" />
<path d="M10.7761 1.3246
L10.7761 0.7246
" />
<path d="M10.7761 0.7246
L10.9190 0.7246
" />
<path d="M10.9190 0.7246
L11.0047 0.7532
" />
<path d="M11.0047 0.7532
L11.0619 0.8103
" />
<path d="M11.0619 0.8103
L11.0904 0.8674
" />
<path d="M11.0904 0.8674
L11.1190 0.9817
" />
<path d="M11.1190 0.9817
L11.1190 1.0674
" />
<path d="M11.1190 1.0674
L11.0904 1.1817
" />
<path d="M11.0904 1.1817
L11.0619 1.2389
" />
<path d="M11.0619 1.2389
L11.0047 1.2960
" />
<path d="M11.0047 1.2960
L10.9190 1.3246
" />
<path d="M10.9190 1.3246
L10.7761 1.3246
" />
</g><text x="15.3990" y="1.4043"
textLength="1.8971" font-size="0.8000" lengthAdjust="spacingAndGlyphs"
text-anchor="middle" opacity="0" stroke-opacity="0">SCL</text>
<g class="stroked-text"><desc>SCL</desc>
<path d="M14.6847 1.2960
L14.7704 1.3246
" />
<path d="M14.7704 1.3246
L14.9133 1.3246
" />
<path d="M14.9133 1.3246
L14.9704 1.2960
" />
<path d="M14.9704 1.2960
L14.9990 1.2674
" />
<path d="M14.9990 1.2674
L15.0276 1.2103
" />
<path d="M15.0276 1.2103
L15.0276 1.1532
" />
<path d="M15.0276 1.1532
L14.9990 1.0960
" />
<path d="M14.9990 1.0960
L14.9704 1.0674
" />
<path d="M14.9704 1.0674
L14.9133 1.0389
" />
<path d="M14.9133 1.0389
L14.7990 1.0103
" />
<path d="M14.7990 1.0103
L14.7419 0.9817
" />
<path d="M14.7419 0.9817
L14.7133 0.9532
" />
<path d="M14.7133 0.9532
L14.6847 0.8960
" />
<path d="M14.6847 0.8960
L14.6847 0.8389
" />
<path d="M14.6847 0.8389
L14.7133 0.7817
" />
<path d="M14.7133 0.7817
L14.7419 0.7532
" />
<path d="M14.7419 0.7532
L14.7990 0.7246
" />
<path d="M14.7990 0.7246
L14.9419 0.7246
" />
<path d="M14.9419 0.7246
L15.0276 0.7532
" />
<path d="M15.6276 1.2674
L15.5990 1.2960
" />
<path d="M15.5990 1.2960
L15.5133 1.3246
" />
<path d="M15.5133 1.3246
L15.4561 1.3246
" />
<path d="M15.4561 1.3246
L15.3704 1.2960
" />
<path d="M15.3704 1.2960
L15.3133 1.2389
" />
<path d="M15.3133 1.2389
L15.2847 1.1817
" />
<path d="M15.2847 1.1817
L15.2561 1.0674
" />
<path d="M15.2561 1.0674
L15.2561 0.9817
" />
<path d="M15.2561 0.9817
L15.2847 0.8674
" />
<path d="M15.2847 0.8674
L15.3133 0.8103
" />
<path d="M15.3133 0.8103
L15.3704 0.7532
" />
<path d="M15.3704 0.7532
L15.4561 0.7246
" />
<path d="M15.4561 0.7246
L15.5133 0.7246
" />
<path d="M15.5133 0.7246
L15.5990 0.7532
" />
<path d="M15.5990 0.7532
L15.6276 0.7817
" />
<path d="M16.1704 1.3246
L15.8847 1.3246
" />
<path d="M15.8847 1.3246
L15.8847 0.7246
" />
</g><text x="12.8590" y="1.4043"
textLength="1.9543" font-size="0.8000" lengthAdjust="spacingAndGlyphs"
text-anchor="middle" opacity="0" stroke-opacity="0">VCC</text>
<g class="stroked-text"><desc>VCC</desc>
<path d="M12.0590 0.7246
L12.2590 1.3246
" />
<path d="M12.2590 1.3246
L12.4590 0.7246
" />
<path d="M13.0019 1.2674
L12.9733 1.2960
" />
<path d="M12.9733 1.2960
L12.8876 1.3246
" />
<path d="M12.8876 1.3246
L12.8304 1.3246
" />
<path d="M12.8304 1.3246
L12.7447 1.2960
" />
<path d="M12.7447 1.2960
L12.6876 1.2389
" />
<path d="M12.6876 1.2389
L12.6590 1.1817
" />
<path d="M12.6590 1.1817
L12.6304 1.0674
" />
<path d="M12.6304 1.0674
L12.6304 0.9817
" />
<path d="M12.6304 0.9817
L12.6590 0.8674
" />
<path d="M12.6590 0.8674
L12.6876 0.8103
" />
<path d="M12.6876 0.8103
L12.7447 0.7532
" />
<path d="M12.7447 0.7532
L12.8304 0.7246
" />
<path d="M12.8304 0.7246
L12.8876 0.7246
" />
<path d="M12.8876 0.7246
L12.9733 0.7532
" />
<path d="M12.9733 0.7532
L13.0019 0.7817
" />
<path d="M13.6019 1.2674
L13.5733 1.2960
" />
<path d="M13.5733 1.2960
L13.4876 1.3246
" />
<path d="M13.4876 1.3246
L13.4304 1.3246
" />
<path d="M13.4304 1.3246
L13.3447 1.2960
" />
<path d="M13.3447 1.2960
L13.2876 1.2389
" />
<path d="M13.2876 1.2389
L13.2590 1.1817
" />
<path d="M13.2590 1.1817
L13.2304 1.0674
" />
<path d="M13.2304 1.0674
L13.2304 0.9817
" />
<path d="M13.2304 0.9817
L13.2590 0.8674
" />
<path d="M13.2590 0.8674
L13.2876 0.8103
" />
<path d="M13.2876 0.8103
L13.3447 0.7532
" />
<path d="M13.3447 0.7532
L13.4304 0.7246
" />
<path d="M13.4304 0.7246
L13.4876 0.7246
" />
<path d="M13.4876 0.7246
L13.5733 0.7532
" />
<path d="M13.5733 0.7532
L13.6019 0.7817
" />
</g><path style="fill:none; 
stroke:#F2EDA1; stroke-width:0.1200; stroke-opacity:1; 
stroke-linecap:round; stroke-linejoin:round;fill:none"
d="M 9.0450,0.3509
11.5850,0.3509
11.5850,4.2879
9.0450,4.2879
Z" /> 
<path style="fill:none; 
stroke:#F2EDA1; stroke-width:0.1200; stroke-opacity:1; 
stroke-linecap:round; stroke-linejoin:round;fill:none"
d="M 9.0450,1.7479
19.2050,1.7479
19.2050,4.2879
9.0450,4.2879
Z" /> 
<path style="fill:none; 
stroke:#F2EDA1; stroke-width:0.1200; stroke-opacity:1; 
stroke-linecap:round; stroke-linejoin:round;fill:none"
d="M 11.5850,0.3509
14.1250,0.3509
14.1250,4.2879
11.5850,4.2879
Z" /> 
<path style="fill:none; 
stroke:#F2EDA1; stroke-width:0.1200; stroke-opacity:1; 
stroke-linecap:round; stroke-linejoin:round;fill:none"
d="M 14.1250,0.3509
16.6650,0.3509
16.6650,4.2879
14.1250,4.2879
Z" /> 
<path style="fill:none; 
stroke:#F2EDA1; stroke-width:0.1200; stroke-opacity:1; 
stroke-linecap:round; stroke-linejoin:round;fill:none"
d="M 16.6650,0.3509
19.2050,0.3509
19.2050,4.2879
16.6650,4.2879
Z" /> 
</g>
<g style="fill:#C83434; fill-opacity:1.0000; stroke:none;">
<circle cx="17.9350" cy="3.0179" r="0.8500" /> 
</g>
<g style="fill:#C83434; fill-opacity:1.0000; stroke:none;">
<circle cx="15.3950" cy="3.0179" r="0.8500" /> 
</g>
<g style="fill:#C83434; fill-opacity:1.0000; stroke:none;">
<circle cx="12.8550" cy="3.0179" r="0.8500" /> 
</g>
<g style="fill:#C83434; fill-opacity:1.0000; stroke:none;">
<circle cx="10.3150" cy="3.0179" r="0.8500" /> 
</g>
<g style="fill:#4D7FC4; fill-opacity:1.0000; stroke:none;">
<circle cx="17.9350" cy="3.0179" r="0.8500" /> 
</g>
<g style="fill:#4D7FC4; fill-opacity:1.0000; stroke:none;">
<circle cx="15.3950" cy="3.0179" r="0.8500" /> 
</g>
<g style="fill:#4D7FC4; fill-opacity:1.0000; stroke:none;">
<circle cx="12.8550" cy="3.0179" r="0.8500" /> 
</g>
<g style="fill:#4D7FC4; fill-opacity:1.0000; stroke:none;">
<circle cx="10.3150" cy="3.0179" r="0.8500" /> 
</g>
<g style="fill:none; 
stroke:#AFAFAF; stroke-width:0.1500; stroke-opacity:1; 
stroke-linecap:round; stroke-linejoin:round;">
<text x="14.1250" y="38.2279"
textLength="28.2500" font-size="1.3333" lengthAdjust="spacingAndGlyphs"
text-anchor="middle" opacity="0" stroke-opacity="0">OLED_SSD1107_64x128_0.96inch_I2C</text>
<g class="stroked-text"><desc>OLED_SSD1107_64x128_0.96inch_I2C</desc>
<path d="M0.5536 37.1827
L0.7440 37.1827
" />
<path d="M0.7440 37.1827
L0.8393 37.2303
" />
<path d="M0.8393 37.2303
L0.9345 37.3255
" />
<path d="M0.9345 37.3255
L0.9821 37.5160
" />
<path d="M0.9821 37.5160
L0.9821 37.8493
" />
<path d="M0.9821 37.8493
L0.9345 38.0398
" />
<path d="M0.9345 38.0398
L0.8393 38.1351
" />
<path d="M0.8393 38.1351
L0.7440 38.1827
" />
<path d="M0.7440 38.1827
L0.5536 38.1827
" />
<path d="M0.5536 38.1827
L0.4583 38.1351
" />
<path d="M0.4583 38.1351
L0.3631 38.0398
" />
<path d="M0.3631 38.0398
L0.3155 37.8493
" />
<path d="M0.3155 37.8493
L0.3155 37.5160
" />
<path d="M0.3155 37.5160
L0.3631 37.3255
" />
<path d="M0.3631 37.3255
L0.4583 37.2303
" />
<path d="M0.4583 37.2303
L0.5536 37.1827
" />
<path d="M1.8869 38.1827
L1.4107 38.1827
" />
<path d="M1.4107 38.1827
L1.4107 37.1827
" />
<path d="M2.2202 37.6589
L2.5536 37.6589
" />
<path d="M2.6964 38.1827
L2.2202 38.1827
" />
<path d="M2.2202 38.1827
L2.2202 37.1827
" />
<path d="M2.2202 37.1827
L2.6964 37.1827
" />
<path d="M3.1250 38.1827
L3.1250 37.1827
" />
<path d="M3.1250 37.1827
L3.3631 37.1827
" />
<path d="M3.3631 37.1827
L3.5060 37.2303
" />
<path d="M3.5060 37.2303
L3.6012 37.3255
" />
<path d="M3.6012 37.3255
L3.6488 37.4208
" />
<path d="M3.6488 37.4208
L3.6964 37.6112
" />
<path d="M3.6964 37.6112
L3.6964 37.7541
" />
<path d="M3.6964 37.7541
L3.6488 37.9446
" />
<path d="M3.6488 37.9446
L3.6012 38.0398
" />
<path d="M3.6012 38.0398
L3.5060 38.1351
" />
<path d="M3.5060 38.1351
L3.3631 38.1827
" />
<path d="M3.3631 38.1827
L3.1250 38.1827
" />
<path d="M3.8869 38.2779
L4.6488 38.2779
" />
<path d="M4.8393 38.1351
L4.9821 38.1827
" />
<path d="M4.9821 38.1827
L5.2202 38.1827
" />
<path d="M5.2202 38.1827
L5.3155 38.1351
" />
<path d="M5.3155 38.1351
L5.3631 38.0874
" />
<path d="M5.3631 38.0874
L5.4107 37.9922
" />
<path d="M5.4107 37.9922
L5.4107 37.8970
" />
<path d="M5.4107 37.8970
L5.3631 37.8017
" />
<path d="M5.3631 37.8017
L5.3155 37.7541
" />
<path d="M5.3155 37.7541
L5.2202 37.7065
" />
<path d="M5.2202 37.7065
L5.0298 37.6589
" />
<path d="M5.0298 37.6589
L4.9345 37.6112
" />
<path d="M4.9345 37.6112
L4.8869 37.5636
" />
<path d="M4.8869 37.5636
L4.8393 37.4684
" />
<path d="M4.8393 37.4684
L4.8393 37.3732
" />
<path d="M4.8393 37.3732
L4.8869 37.2779
" />
<path d="M4.8869 37.2779
L4.9345 37.2303
" />
<path d="M4.9345 37.2303
L5.0298 37.1827
" />
<path d="M5.0298 37.1827
L5.2679 37.1827
" />
<path d="M5.2679 37.1827
L5.4107 37.2303
" />
<path d="M5.7917 38.1351
L5.9345 38.1827
" />
<path d="M5.9345 38.1827
L6.1726 38.1827
" />
<path d="M6.1726 38.1827
L6.2679 38.1351
" />
<path d="M6.2679 38.1351
L6.3155 38.0874
" />
<path d="M6.3155 38.0874
L6.3631 37.9922
" />
<path d="M6.3631 37.9922
L6.3631 37.8970
" />
<path d="M6.3631 37.8970
L6.3155 37.8017
" />
<path d="M6.3155 37.8017
L6.2679 37.7541
" />
<path d="M6.2679 37.7541
L6.1726 37.7065
" />
<path d="M6.1726 37.7065
L5.9821 37.6589
" />
<path d="M5.9821 37.6589
L5.8869 37.6112
" />
<path d="M5.8869 37.6112
L5.8393 37.5636
" />
<path d="M5.8393 37.5636
L5.7917 37.4684
" />
<path d="M5.7917 37.4684
L5.7917 37.3732
" />
<path d="M5.7917 37.3732
L5.8393 37.2779
" />
<path d="M5.8393 37.2779
L5.8869 37.2303
" />
<path d="M5.8869 37.2303
L5.9821 37.1827
" />
<path d="M5.9821 37.1827
L6.2202 37.1827
" />
<path d="M6.2202 37.1827
L6.3631 37.2303
" />
<path d="M6.7917 38.1827
L6.7917 37.1827
" />
<path d="M6.7917 37.1827
L7.0298 37.1827
" />
<path d="M7.0298 37.1827
L7.1726 37.2303
" />
<path d="M7.1726 37.2303
L7.2679 37.3255
" />
<path d="M7.2679 37.3255
L7.3155 37.4208
" />
<path d="M7.3155 37.4208
L7.3631 37.6112
" />
<path d="M7.3631 37.6112
L7.3631 37.7541
" />
<path d="M7.3631 37.7541
L7.3155 37.9446
" />
<path d="M7.3155 37.9446
L7.2679 38.0398
" />
<path d="M7.2679 38.0398
L7.1726 38.1351
" />
<path d="M7.1726 38.1351
L7.0298 38.1827
" />
<path d="M7.0298 38.1827
L6.7917 38.1827
" />
<path d="M8.3155 38.1827
L7.7440 38.1827
" />
<path d="M8.0298 38.1827
L8.0298 37.1827
" />
<path d="M8.0298 37.1827
L7.9345 37.3255
" />
<path d="M7.9345 37.3255
L7.8393 37.4208
" />
<path d="M7.8393 37.4208
L7.7440 37.4684
" />
<path d="M9.2679 38.1827
L8.6964 38.1827
" />
<path d="M8.9821 38.1827
L8.9821 37.1827
" />
<path d="M8.9821 37.1827
L8.8869 37.3255
" />
<path d="M8.8869 37.3255
L8.7917 37.4208
" />
<path d="M8.7917 37.4208
L8.6964 37.4684
" />
<path d="M9.8869 37.1827
L9.9821 37.1827
" />
<path d="M9.9821 37.1827
L10.0774 37.2303
" />
<path d="M10.0774 37.2303
L10.1250 37.2779
" />
<path d="M10.1250 37.2779
L10.1726 37.3732
" />
<path d="M10.1726 37.3732
L10.2202 37.5636
" />
<path d="M10.2202 37.5636
L10.2202 37.8017
" />
<path d="M10.2202 37.8017
L10.1726 37.9922
" />
<path d="M10.1726 37.9922
L10.1250 38.0874
" />
<path d="M10.1250 38.0874
L10.0774 38.1351
" />
<path d="M10.0774 38.1351
L9.9821 38.1827
" />
<path d="M9.9821 38.1827
L9.8869 38.1827
" />
<path d="M9.8869 38.1827
L9.7917 38.1351
" />
<path d="M9.7917 38.1351
L9.7440 38.0874
" />
<path d="M9.7440 38.0874
L9.6964 37.9922
" />
<path d="M9.6964 37.9922
L9.6488 37.8017
" />
<path d="M9.6488 37.8017
L9.6488 37.5636
" />
<path d="M9.6488 37.5636
L9.6964 37.3732
" />
<path d="M9.6964 37.3732
L9.7440 37.2779
" />
<path d="M9.7440 37.2779
L9.7917 37.2303
" />
<path d="M9.7917 37.2303
L9.8869 37.1827
" />
<path d="M10.5536 37.1827
L11.2202 37.1827
" />
<path d="M11.2202 37.1827
L10.7917 38.1827
" />
<path d="M11.3631 38.2779
L12.1250 38.2779
" />
<path d="M12.7917 37.1827
L12.6012 37.1827
" />
<path d="M12.6012 37.1827
L12.5060 37.2303
" />
<path d="M12.5060 37.2303
L12.4583 37.2779
" />
<path d="M12.4583 37.2779
L12.3631 37.4208
" />
<path d="M12.3631 37.4208
L12.3155 37.6112
" />
<path d="M12.3155 37.6112
L12.3155 37.9922
" />
<path d="M12.3155 37.9922
L12.3631 38.0874
" />
<path d="M12.3631 38.0874
L12.4107 38.1351
" />
<path d="M12.4107 38.1351
L12.5060 38.1827
" />
<path d="M12.5060 38.1827
L12.6964 38.1827
" />
<path d="M12.6964 38.1827
L12.7917 38.1351
" />
<path d="M12.7917 38.1351
L12.8393 38.0874
" />
<path d="M12.8393 38.0874
L12.8869 37.9922
" />
<path d="M12.8869 37.9922
L12.8869 37.7541
" />
<path d="M12.8869 37.7541
L12.8393 37.6589
" />
<path d="M12.8393 37.6589
L12.7917 37.6112
" />
<path d="M12.7917 37.6112
L12.6964 37.5636
" />
<path d="M12.6964 37.5636
L12.5060 37.5636
" />
<path d="M12.5060 37.5636
L12.4107 37.6112
" />
<path d="M12.4107 37.6112
L12.3631 37.6589
" />
<path d="M12.3631 37.6589
L12.3155 37.7541
" />
<path d="M13.7440 37.5160
L13.7440 38.1827
" />
<path d="M13.5060 37.1351
L13.2679 37.8493
" />
<path d="M13.2679 37.8493
L13.8869 37.8493
" />
<path d="M14.1726 38.1827
L14.6964 37.5160
" />
<path d="M14.1726 37.5160
L14.6964 38.1827
" />
<path d="M15.6012 38.1827
L15.0298 38.1827
" />
<path d="M15.3155 38.1827
L15.3155 37.1827
" />
<path d="M15.3155 37.1827
L15.2202 37.3255
" />
<path d="M15.2202 37.3255
L15.1250 37.4208
" />
<path d="M15.1250 37.4208
L15.0298 37.4684
" />
<path d="M15.9821 37.2779
L16.0298 37.2303
" />
<path d="M16.0298 37.2303
L16.1250 37.1827
" />
<path d="M16.1250 37.1827
L16.3631 37.1827
" />
<path d="M16.3631 37.1827
L16.4583 37.2303
" />
<path d="M16.4583 37.2303
L16.5060 37.2779
" />
<path d="M16.5060 37.2779
L16.5536 37.3732
" />
<path d="M16.5536 37.3732
L16.5536 37.4684
" />
<path d="M16.5536 37.4684
L16.5060 37.6112
" />
<path d="M16.5060 37.6112
L15.9345 38.1827
" />
<path d="M15.9345 38.1827
L16.5536 38.1827
" />
<path d="M17.1250 37.6112
L17.0298 37.5636
" />
<path d="M17.0298 37.5636
L16.9821 37.5160
" />
<path d="M16.9821 37.5160
L16.9345 37.4208
" />
<path d="M16.9345 37.4208
L16.9345 37.3732
" />
<path d="M16.9345 37.3732
L16.9821 37.2779
" />
<path d="M16.9821 37.2779
L17.0298 37.2303
" />
<path d="M17.0298 37.2303
L17.1250 37.1827
" />
<path d="M17.1250 37.1827
L17.3155 37.1827
" />
<path d="M17.3155 37.1827
L17.4107 37.2303
" />
<path d="M17.4107 37.2303
L17.4583 37.2779
" />
<path d="M17.4583 37.2779
L17.5060 37.3732
" />
<path d="M17.5060 37.3732
L17.5060 37.4208
" />
<path d="M17.5060 37.4208
L17.4583 37.5160
" />
<path d="M17.4583 37.5160
L17.4107 37.5636
" />
<path d="M17.4107 37.5636
L17.3155 37.6112
" />
<path d="M17.3155 37.6112
L17.1250 37.6112
" />
<path d="M17.1250 37.6112
L17.0298 37.6589
" />
<path d="M17.0298 37.6589
L16.9821 37.7065
" />
<path d="M16.9821 37.7065
L16.9345 37.8017
" />
<path d="M16.9345 37.8017
L16.9345 37.9922
" />
<path d="M16.9345 37.9922
L16.9821 38.0874
" />
<path d="M16.9821 38.0874
L17.0298 38.1351
" />
<path d="M17.0298 38.1351
L17.1250 38.1827
" />
<path d="M17.1250 38.1827
L17.3155 38.1827
" />
<path d="M17.3155 38.1827
L17.4107 38.1351
" />
<path d="M17.4107 38.1351
L17.4583 38.0874
" />
<path d="M17.4583 38.0874
L17.5060 37.9922
" />
<path d="M17.5060 37.9922
L17.5060 37.8017
" />
<path d="M17.5060 37.8017
L17.4583 37.7065
" />
<path d="M17.4583 37.7065
L17.4107 37.6589
" />
<path d="M17.4107 37.6589
L17.3155 37.6112
" />
<path d="M17.6964 38.2779
L18.4583 38.2779
" />
<path d="M18.8869 37.1827
L18.9821 37.1827
" />
<path d="M18.9821 37.1827
L19.0774 37.2303
" />
<path d="M19.0774 37.2303
L19.1250 37.2779
" />
<path d="M19.1250 37.2779
L19.1726 37.3732
" />
<path d="M19.1726 37.3732
L19.2202 37.5636
" />
<path d="M19.2202 37.5636
L19.2202 37.8017
" />
<path d="M19.2202 37.8017
L19.1726 37.9922
" />
<path d="M19.1726 37.9922
L19.1250 38.0874
" />
<path d="M19.1250 38.0874
L19.0774 38.1351
" />
<path d="M19.0774 38.1351
L18.9821 38.1827
" />
<path d="M18.9821 38.1827
L18.8869 38.1827
" />
<path d="M18.8869 38.1827
L18.7917 38.1351
" />
<path d="M18.7917 38.1351
L18.7440 38.0874
" />
<path d="M18.7440 38.0874
L18.6964 37.9922
" />
<path d="M18.6964 37.9922
L18.6488 37.8017
" />
<path d="M18.6488 37.8017
L18.6488 37.5636
" />
<path d="M18.6488 37.5636
L18.6964 37.3732
" />
<path d="M18.6964 37.3732
L18.7440 37.2779
" />
<path d="M18.7440 37.2779
L18.7917 37.2303
" />
<path d="M18.7917 37.2303
L18.8869 37.1827
" />
<path d="M19.6488 38.0874
L19.6964 38.1351
" />
<path d="M19.6964 38.1351
L19.6488 38.1827
" />
<path d="M19.6488 38.1827
L19.6012 38.1351
" />
<path d="M19.6012 38.1351
L19.6488 38.0874
" />
<path d="M19.6488 38.0874
L19.6488 38.1827
" />
<path d="M20.1726 38.1827
L20.3631 38.1827
" />
<path d="M20.3631 38.1827
L20.4583 38.1351
" />
<path d="M20.4583 38.1351
L20.5060 38.0874
" />
<path d="M20.5060 38.0874
L20.6012 37.9446
" />
<path d="M20.6012 37.9446
L20.6488 37.7541
" />
<path d="M20.6488 37.7541
L20.6488 37.3732
" />
<path d="M20.6488 37.3732
L20.6012 37.2779
" />
<path d="M20.6012 37.2779
L20.5536 37.2303
" />
<path d="M20.5536 37.2303
L20.4583 37.1827
" />
<path d="M20.4583 37.1827
L20.2679 37.1827
" />
<path d="M20.2679 37.1827
L20.1726 37.2303
" />
<path d="M20.1726 37.2303
L20.1250 37.2779
" />
<path d="M20.1250 37.2779
L20.0774 37.3732
" />
<path d="M20.0774 37.3732
L20.0774 37.6112
" />
<path d="M20.0774 37.6112
L20.1250 37.7065
" />
<path d="M20.1250 37.7065
L20.1726 37.7541
" />
<path d="M20.1726 37.7541
L20.2679 37.8017
" />
<path d="M20.2679 37.8017
L20.4583 37.8017
" />
<path d="M20.4583 37.8017
L20.5536 37.7541
" />
<path d="M20.5536 37.7541
L20.6012 37.7065
" />
<path d="M20.6012 37.7065
L20.6488 37.6112
" />
<path d="M21.5060 37.1827
L21.3155 37.1827
" />
<path d="M21.3155 37.1827
L21.2202 37.2303
" />
<path d="M21.2202 37.2303
L21.1726 37.2779
" />
<path d="M21.1726 37.2779
L21.0774 37.4208
" />
<path d="M21.0774 37.4208
L21.0298 37.6112
" />
<path d="M21.0298 37.6112
L21.0298 37.9922
" />
<path d="M21.0298 37.9922
L21.0774 38.0874
" />
<path d="M21.0774 38.0874
L21.1250 38.1351
" />
<path d="M21.1250 38.1351
L21.2202 38.1827
" />
<path d="M21.2202 38.1827
L21.4107 38.1827
" />
<path d="M21.4107 38.1827
L21.5060 38.1351
" />
<path d="M21.5060 38.1351
L21.5536 38.0874
" />
<path d="M21.5536 38.0874
L21.6012 37.9922
" />
<path d="M21.6012 37.9922
L21.6012 37.7541
" />
<path d="M21.6012 37.7541
L21.5536 37.6589
" />
<path d="M21.5536 37.6589
L21.5060 37.6112
" />
<path d="M21.5060 37.6112
L21.4107 37.5636
" />
<path d="M21.4107 37.5636
L21.2202 37.5636
" />
<path d="M21.2202 37.5636
L21.1250 37.6112
" />
<path d="M21.1250 37.6112
L21.0774 37.6589
" />
<path d="M21.0774 37.6589
L21.0298 37.7541
" />
<path d="M22.0298 38.1827
L22.0298 37.5160
" />
<path d="M22.0298 37.1827
L21.9821 37.2303
" />
<path d="M21.9821 37.2303
L22.0298 37.2779
" />
<path d="M22.0298 37.2779
L22.0774 37.2303
" />
<path d="M22.0774 37.2303
L22.0298 37.1827
" />
<path d="M22.0298 37.1827
L22.0298 37.2779
" />
<path d="M22.5060 37.5160
L22.5060 38.1827
" />
<path d="M22.5060 37.6112
L22.5536 37.5636
" />
<path d="M22.5536 37.5636
L22.6488 37.5160
" />
<path d="M22.6488 37.5160
L22.7917 37.5160
" />
<path d="M22.7917 37.5160
L22.8869 37.5636
" />
<path d="M22.8869 37.5636
L22.9345 37.6589
" />
<path d="M22.9345 37.6589
L22.9345 38.1827
" />
<path d="M23.8393 38.1351
L23.7440 38.1827
" />
<path d="M23.7440 38.1827
L23.5536 38.1827
" />
<path d="M23.5536 38.1827
L23.4583 38.1351
" />
<path d="M23.4583 38.1351
L23.4107 38.0874
" />
<path d="M23.4107 38.0874
L23.3631 37.9922
" />
<path d="M23.3631 37.9922
L23.3631 37.7065
" />
<path d="M23.3631 37.7065
L23.4107 37.6112
" />
<path d="M23.4107 37.6112
L23.4583 37.5636
" />
<path d="M23.4583 37.5636
L23.5536 37.5160
" />
<path d="M23.5536 37.5160
L23.7440 37.5160
" />
<path d="M23.7440 37.5160
L23.8393 37.5636
" />
<path d="M24.2679 38.1827
L24.2679 37.1827
" />
<path d="M24.6964 38.1827
L24.6964 37.6589
" />
<path d="M24.6964 37.6589
L24.6488 37.5636
" />
<path d="M24.6488 37.5636
L24.5536 37.5160
" />
<path d="M24.5536 37.5160
L24.4107 37.5160
" />
<path d="M24.4107 37.5160
L24.3155 37.5636
" />
<path d="M24.3155 37.5636
L24.2679 37.6112
" />
<path d="M24.9345 38.2779
L25.6964 38.2779
" />
<path d="M25.9345 38.1827
L25.9345 37.1827
" />
<path d="M26.3631 37.2779
L26.4107 37.2303
" />
<path d="M26.4107 37.2303
L26.5060 37.1827
" />
<path d="M26.5060 37.1827
L26.7440 37.1827
" />
<path d="M26.7440 37.1827
L26.8393 37.2303
" />
<path d="M26.8393 37.2303
L26.8869 37.2779
" />
<path d="M26.8869 37.2779
L26.9345 37.3732
" />
<path d="M26.9345 37.3732
L26.9345 37.4684
" />
<path d="M26.9345 37.4684
L26.8869 37.6112
" />
<path d="M26.8869 37.6112
L26.3155 38.1827
" />
<path d="M26.3155 38.1827
L26.9345 38.1827
" />
<path d="M27.9345 38.0874
L27.8869 38.1351
" />
<path d="M27.8869 38.1351
L27.7440 38.1827
" />
<path d="M27.7440 38.1827
L27.6488 38.1827
" />
<path d="M27.6488 38.1827
L27.5060 38.1351
" />
<path d="M27.5060 38.1351
L27.4107 38.0398
" />
<path d="M27.4107 38.0398
L27.3631 37.9446
" />
<path d="M27.3631 37.9446
L27.3155 37.7541
" />
<path d="M27.3155 37.7541
L27.3155 37.6112
" />
<path d="M27.3155 37.6112
L27.3631 37.4208
" />
<path d="M27.3631 37.4208
L27.4107 37.3255
" />
<path d="M27.4107 37.3255
L27.5060 37.2303
" />
<path d="M27.5060 37.2303
L27.6488 37.1827
" />
<path d="M27.6488 37.1827
L27.7440 37.1827
" />
<path d="M27.7440 37.1827
L27.8869 37.2303
" />
<path d="M27.8869 37.2303
L27.9345 37.2779
" />
</g><text x="14.1250" y="39.7279"
textLength="4.5357" font-size="1.3333" lengthAdjust="spacingAndGlyphs"
text-anchor="middle" opacity="0" stroke-opacity="0">REF**</text>
<g class="stroked-text"><desc>REF**</desc>
<path d="M12.7917 39.6827
L12.4583 39.2065
" />
<path d="M12.2202 39.6827
L12.2202 38.6827
" />
<path d="M12.2202 38.6827
L12.6012 38.6827
" />
<path d="M12.6012 38.6827
L12.6964 38.7303
" />
<path d="M12.6964 38.7303
L12.7440 38.7779
" />
<path d="M12.7440 38.7779
L12.7917 38.8732
" />
<path d="M12.7917 38.8732
L12.7917 39.0160
" />
<path d="M12.7917 39.0160
L12.7440 39.1112
" />
<path d="M12.7440 39.1112
L12.6964 39.1589
" />
<path d="M12.6964 39.1589
L12.6012 39.2065
" />
<path d="M12.6012 39.2065
L12.2202 39.2065
" />
<path d="M13.2202 39.1589
L13.5536 39.1589
" />
<path d="M13.6964 39.6827
L13.2202 39.6827
" />
<path d="M13.2202 39.6827
L13.2202 38.6827
" />
<path d="M13.2202 38.6827
L13.6964 38.6827
" />
<path d="M14.4583 39.1589
L14.1250 39.1589
" />
<path d="M14.1250 39.6827
L14.1250 38.6827
" />
<path d="M14.1250 38.6827
L14.6012 38.6827
" />
<path d="M15.1250 38.6827
L15.1250 38.9208
" />
<path d="M14.8869 38.8255
L15.1250 38.9208
" />
<path d="M15.1250 38.9208
L15.3631 38.8255
" />
<path d="M14.9821 39.1112
L15.1250 38.9208
" />
<path d="M15.1250 38.9208
L15.2679 39.1112
" />
<path d="M15.8869 38.6827
L15.8869 38.9208
" />
<path d="M15.6488 38.8255
L15.8869 38.9208
" />
<path d="M15.8869 38.9208
L16.1250 38.8255
" />
<path d="M15.7440 39.1112
L15.8869 38.9208
" />
<path d="M15.8869 38.9208
L16.0298 39.1112
" />
</g><path style="fill:none; 
stroke:#AFAFAF; stroke-width:0.1000; stroke-opacity:1; 
stroke-linecap:round; stroke-linejoin:round;fill:none"
d="M 4.6250,1.5979
23.6250,1.5979
23.6250,36.5979
4.6250,36.5979
Z" /> 
<path style="fill:none; 
stroke:#AFAFAF; stroke-width:0.1000; stroke-opacity:1; 
stroke-linecap:round; stroke-linejoin:round;fill:none"
d="M 7.1250,7.0579
21.1250,7.0579
21.1250,35.0579
7.1250,35.0579
Z" /> 
</g>
<g style="fill:none; 
stroke:#AFAFAF; stroke-width:0.1000; stroke-opacity:1; 
stroke-linecap:round; stroke-linejoin:round;">
<path d="M8.1950 8.1579
L9.2950 8.1579
" />
<path d="M9.6950 8.1579
L10.7950 8.1579
" />
<path d="M11.1950 8.1579
L12.2950 8.1579
" />
<path d="M12.6950 8.1579
L13.7950 8.1579
" />
<path d="M14.1950 8.1579
L15.2950 8.1579
" />
<path d="M15.6950 8.1579
L16.7950 8.1579
" />
<path d="M17.1950 8.1579
L18.2950 8.1579
" />
<path d="M18.6950 8.1579
L19.7950 8.1579
" />
<path d="M20.0550 8.1579
L20.0550 9.2579
" />
<path d="M20.0550 9.6579
L20.0550 10.7579
" />
<path d="M20.0550 11.1579
L20.0550 12.2579
" />
<path d="M20.0550 12.6579
L20.0550 13.7579
" />
<path d="M20.0550 14.1579
L20.0550 15.2579
" />
<path d="M20.0550 15.6579
L20.0550 16.7579
" />
<path d="M20.0550 17.1579
L20.0550 18.2579
" />
<path d="M20.0550 18.6579
L20.0550 19.7579
" />
<path d="M20.0550 20.1579
L20.0550 21.2579
" />
<path d="M20.0550 21.6579
L20.0550 22.7579
" />
<path d="M20.0550 23.1579
L20.0550 24.2579
" />
<path d="M20.0550 24.6579
L20.0550 25.7579
" />
<path d="M20.0550 26.1579
L20.0550 27.2579
" />
<path d="M20.0550 27.6579
L20.0550 28.7579
" />
<path d="M20.0550 29.1579
L20.0550 30.2579
" />
<path d="M20.0550 30.6579
L20.0550 30.8979
" />
<path d="M20.0550 30.8979
L18.9550 30.8979
" />
<path d="M18.5550 30.8979
L17.4550 30.8979
" />
<path d="M17.0550 30.8979
L15.9550 30.8979
" />
<path d="M15.5550 30.8979
L14.4550 30.8979
" />
<path d="M14.0550 30.8979
L12.9550 30.8979
" />
<path d="M12.5550 30.8979
L11.4550 30.8979
" />
<path d="M11.0550 30.8979
L9.9550 30.8979
" />
<path d="M9.5550 30.8979
L8.4550 30.8979
" />
<path d="M8.1950 30.8979
L8.1950 29.7979
" />
<path d="M8.1950 29.3979
L8.1950 28.2979
" />
<path d="M8.1950 27.8979
L8.1950 26.7979
" />
<path d="M8.1950 26.3979
L8.1950 25.2979
" />
<path d="M8.1950 24.8979
L8.1950 23.7979
" />
<path d="M8.1950 23.3979
L8.1950 22.2979
" />
<path d="M8.1950 21.8979
L8.1950 20.7979
" />
<path d="M8.1950 20.3979
L8.1950 19.2979
" />
<path d="M8.1950 18.8979
L8.1950 17.7979
" />
<path d="M8.1950 17.3979
L8.1950 16.2979
" />
<path d="M8.1950 15.8979
L8.1950 14.7979
" />
<path d="M8.1950 14.3979
L8.1950 13.2979
" />
<path d="M8.1950 12.8979
L8.1950 11.7979
" />
<path d="M8.1950 11.3979
L8.1950 10.2979
" />
<path d="M8.1950 9.8979
L8.1950 8.7979
" />
<path d="M8.1950 8.3979
L8.1950 8.1579
" />
<circle cx="6.6250" cy="3.5979" r="1.1000" /> 
<circle cx="21.6250" cy="3.5979" r="1.1000" /> 
</g>
<g style="fill:none; 
stroke:#AFAFAF; stroke-width:0.0472; stroke-opacity:1; 
stroke-linecap:round; stroke-linejoin:round;">
<text x="17.9350" y="3.3012"
textLength="0.5680" font-size="0.7556" lengthAdjust="spacingAndGlyphs"
text-anchor="middle" opacity="0" stroke-opacity="0">1</text>
<g class="stroked-text"><desc>1</desc>
<path d="M18.0969 3.2776
L17.7731 3.2776
" />
<path d="M17.9350 3.2776
L17.9350 2.7109
" />
<path d="M17.9350 2.7109
L17.8810 2.7918
" />
<path d="M17.8810 2.7918
L17.8271 2.8458
" />
<path d="M17.8271 2.8458
L17.7731 2.8728
" />
</g></g>
<g style="fill:none; 
stroke:#AFAFAF; stroke-width:0.0212; stroke-opacity:1; 
stroke-linecap:round; stroke-linejoin:round;">
<circle cx="17.9350" cy="3.0179" r="0.8500" /> 
</g>
<g style="fill:none; 
stroke:#AFAFAF; stroke-width:0.0472; stroke-opacity:1; 
stroke-linecap:round; stroke-linejoin:round;">
<text x="15.3950" y="3.3012"
textLength="0.5680" font-size="0.7556" lengthAdjust="spacingAndGlyphs"
text-anchor="middle" opacity="0" stroke-opacity="0">2</text>
<g class="stroked-text"><desc>2</desc>
<path d="M15.2331 2.7649
L15.2601 2.7379
" />
<path d="M15.2601 2.7379
L15.3140 2.7109
" />
<path d="M15.3140 2.7109
L15.4490 2.7109
" />
<path d="M15.4490 2.7109
L15.5029 2.7379
" />
<path d="M15.5029 2.7379
L15.5299 2.7649
" />
<path d="M15.5299 2.7649
L15.5569 2.8188
" />
<path d="M15.5569 2.8188
L15.5569 2.8728
" />
<path d="M15.5569 2.8728
L15.5299 2.9537
" />
<path d="M15.5299 2.9537
L15.2061 3.2776
" />
<path d="M15.2061 3.2776
L15.5569 3.2776
" />
</g></g>
<g style="fill:none; 
stroke:#AFAFAF; stroke-width:0.0212; stroke-opacity:1; 
stroke-linecap:round; stroke-linejoin:round;">
<circle cx="15.3950" cy="3.0179" r="0.8500" /> 
</g>
<g style="fill:none; 
stroke:#AFAFAF; stroke-width:0.0472; stroke-opacity:1; 
stroke-linecap:round; stroke-linejoin:round;">
<text x="12.8550" y="3.3012"
textLength="0.5680" font-size="0.7556" lengthAdjust="spacingAndGlyphs"
text-anchor="middle" opacity="0" stroke-opacity="0">3</text>
<g class="stroked-text"><desc>3</desc>
<path d="M12.6661 2.7109
L13.0169 2.7109
" />
<path d="M13.0169 2.7109
L12.8280 2.9268
" />
<path d="M12.8280 2.9268
L12.9090 2.9268
" />
<path d="M12.9090 2.9268
L12.9629 2.9537
" />
<path d="M12.9629 2.9537
L12.9899 2.9807
" />
<path d="M12.9899 2.9807
L13.0169 3.0347
" />
<path d="M13.0169 3.0347
L13.0169 3.1696
" />
<path d="M13.0169 3.1696
L12.9899 3.2236
" />
<path d="M12.9899 3.2236
L12.9629 3.2506
" />
<path d="M12.9629 3.2506
L12.9090 3.2776
" />
<path d="M12.9090 3.2776
L12.7471 3.2776
" />
<path d="M12.7471 3.2776
L12.6931 3.2506
" />
<path d="M12.6931 3.2506
L12.6661 3.2236
" />
</g></g>
<g style="fill:none; 
stroke:#AFAFAF; stroke-width:0.0212; stroke-opacity:1; 
stroke-linecap:round; stroke-linejoin:round;">
<circle cx="12.8550" cy="3.0179" r="0.8500" /> 
</g>
<g style="fill:none; 
stroke:#AFAFAF; stroke-width:0.0472; stroke-opacity:1; 
stroke-linecap:round; stroke-linejoin:round;">
<text x="10.3150" y="3.3012"
textLength="0.5680" font-size="0.7556" lengthAdjust="spacingAndGlyphs"
text-anchor="middle" opacity="0" stroke-opacity="0">4</text>
<g class="stroked-text"><desc>4</desc>
<path d="M10.4229 2.8998
L10.4229 3.2776
" />
<path d="M10.2880 2.6839
L10.1531 3.0887
" />
<path d="M10.1531 3.0887
L10.5039 3.0887
" />
</g></g>
<g style="fill:none; 
stroke:#AFAFAF; stroke-width:0.0212; stroke-opacity:1; 
stroke-linecap:round; stroke-linejoin:round;">
<circle cx="10.3150" cy="3.0179" r="0.8500" /> 
</g>
<g style="fill:none; 
stroke:#585D84; stroke-width:0.0472; stroke-opacity:1; 
stroke-linecap:round; stroke-linejoin:round;">
<text x="17.9350" y="3.3012"
textLength="0.5680" font-size="0.7556" lengthAdjust="spacingAndGlyphs"
text-anchor="middle" opacity="0" stroke-opacity="0">1</text>
<g class="stroked-text"><desc>1</desc>
<path d="M18.0969 3.2776
L17.7731 3.2776
" />
<path d="M17.9350 3.2776
L17.9350 2.7109
" />
<path d="M17.9350 2.7109
L17.8810 2.7918
" />
<path d="M17.8810 2.7918
L17.8271 2.8458
" />
<path d="M17.8271 2.8458
L17.7731 2.8728
" />
</g></g>
<g style="fill:none; 
stroke:#585D84; stroke-width:0.0212; stroke-opacity:1; 
stroke-linecap:round; stroke-linejoin:round;">
<circle cx="17.9350" cy="3.0179" r="0.8500" /> 
</g>
<g style="fill:none; 
stroke:#585D84; stroke-width:0.0472; stroke-opacity:1; 
stroke-linecap:round; stroke-linejoin:round;">
<text x="15.3950" y="3.3012"
textLength="0.5680" font-size="0.7556" lengthAdjust="spacingAndGlyphs"
text-anchor="middle" opacity="0" stroke-opacity="0">2</text>
<g class="stroked-text"><desc>2</desc>
<path d="M15.2331 2.7649
L15.2601 2.7379
" />
<path d="M15.2601 2.7379
L15.3140 2.7109
" />
<path d="M15.3140 2.7109
L15.4490 2.7109
" />
<path d="M15.4490 2.7109
L15.5029 2.7379
" />
<path d="M15.5029 2.7379
L15.5299 2.7649
" />
<path d="M15.5299 2.7649
L15.5569 2.8188
" />
<path d="M15.5569 2.8188
L15.5569 2.8728
" />
<path d="M15.5569 2.8728
L15.5299 2.9537
" />
<path d="M15.5299 2.9537
L15.2061 3.2776
" />
<path d="M15.2061 3.2776
L15.5569 3.2776
" />
</g></g>
<g style="fill:none; 
stroke:#585D84; stroke-width:0.0212; stroke-opacity:1; 
stroke-linecap:round; stroke-linejoin:round;">
<circle cx="15.3950" cy="3.0179" r="0.8500" /> 
</g>
<g style="fill:none; 
stroke:#585D84; stroke-width:0.0472; stroke-opacity:1; 
stroke-linecap:round; stroke-linejoin:round;">
<text x="12.8550" y="3.3012"
textLength="0.5680" font-size="0.7556" lengthAdjust="spacingAndGlyphs"
text-anchor="middle" opacity="0" stroke-opacity="0">3</text>
<g class="stroked-text"><desc>3</desc>
<path d="M12.6661 2.7109
L13.0169 2.7109
" />
<path d="M13.0169 2.7109
L12.8280 2.9268
" />
<path d="M12.8280 2.9268
L12.9090 2.9268
" />
<path d="M12.9090 2.9268
L12.9629 2.9537
" />
<path d="M12.9629 2.9537
L12.9899 2.9807
" />
<path d="M12.9899 2.9807
L13.0169 3.0347
" />
<path d="M13.0169 3.0347
L13.0169 3.1696
" />
<path d="M13.0169 3.1696
L12.9899 3.2236
" />
<path d="M12.9899 3.2236
L12.9629 3.2506
" />
<path d="M12.9629 3.2506
L12.9090 3.2776
" />
<path d="M12.9090 3.2776
L12.7471 3.2776
" />
<path d="M12.7471 3.2776
L12.6931 3.2506
" />
<path d="M12.6931 3.2506
L12.6661 3.2236
" />
</g></g>
<g style="fill:none; 
stroke:#585D84; stroke-width:0.0212; stroke-opacity:1; 
stroke-linecap:round; stroke-linejoin:round;">
<circle cx="12.8550" cy="3.0179" r="0.8500" /> 
</g>
<g style="fill:none; 
stroke:#585D84; stroke-width:0.0472; stroke-opacity:1; 
stroke-linecap:round; stroke-linejoin:round;">
<text x="10.3150" y="3.3012"
textLength="0.5680" font-size="0.7556" lengthAdjust="spacingAndGlyphs"
text-anchor="middle" opacity="0" stroke-opacity="0">4</text>
<g class="stroked-text"><desc>4</desc>
<path d="M10.4229 2.8998
L10.4229 3.2776
" />
<path d="M10.2880 2.6839
L10.1531 3.0887
" />
<path d="M10.1531 3.0887
L10.5039 3.0887
" />
</g></g>
<g style="fill:none; 
stroke:#585D84; stroke-width:0.0212; stroke-opacity:1; 
stroke-linecap:round; stroke-linejoin:round;">
<circle cx="10.3150" cy="3.0179" r="0.8500" /> 
<path style="fill:none; 
stroke:#C2C2C2; stroke-width:0.0500; stroke-opacity:1; 
stroke-linecap:round; stroke-linejoin:round;fill:none"
d="M 8.1950,8.1579
20.0550,8.1579
20.0550,30.8979
8.1950,30.8979
Z" /> 
</g> 
</svg>
