<svg xmlns="http://www.w3.org/2000/svg" width="123.456" height="152.832" viewBox="0 0 32.664 40.437">
    <g class="stroked-text" style="fill:none;stroke:#f2eda1;stroke-width:.15;stroke-opacity:1;stroke-linecap:round;stroke-linejoin:round">
        <path d="m15.006 1.303-.333-.476M14.435 1.303v-1M14.435.303h.38M14.816.303l.095.048M14.91.35l.048.048M14.958.398l.048.095M15.006.494v.142M15.006.636l-.048.096M14.958.732l-.047.047M14.91.78l-.095.047M14.816.827h-.382M15.435.78h.333M15.91 1.303h-.476M15.435 1.303v-1M15.435.303h.476M16.673.78h-.334M16.34 1.303v-1M16.34.303h.476M17.34.303v.238M17.101.446l.238.095M17.34.541l.237-.095M17.196.732l.143-.19M17.34.541l.142.19M18.101.303v.238M17.863.446l.238.095M18.101.541l.238-.095M17.958.732l.143-.19M18.101.541l.143.19"/>
    </g>
    <circle cx="12.529" cy="3.388" r=".85" style="fill:#4d7fc4;fill-opacity:1;stroke:none"/>
    <circle cx="15.069" cy="3.388" r=".85" style="fill:#4d7fc4;fill-opacity:1;stroke:none"/>
    <circle cx="17.609" cy="3.388" r=".85" style="fill:#4d7fc4;fill-opacity:1;stroke:none"/>
    <circle cx="20.149" cy="3.388" r=".85" style="fill:#4d7fc4;fill-opacity:1;stroke:none"/>
    <circle cx="12.529" cy="3.388" r=".85" style="fill:#c83434;fill-opacity:1;stroke:none"/>
    <circle cx="15.069" cy="3.388" r=".85" style="fill:#c83434;fill-opacity:1;stroke:none"/>
    <circle cx="17.609" cy="3.388" r=".85" style="fill:#c83434;fill-opacity:1;stroke:none"/>
    <circle cx="20.149" cy="3.388" r=".85" style="fill:#c83434;fill-opacity:1;stroke:none"/>
    <g class="stroked-text" style="fill:none;stroke:#585d84;stroke-width:.0472;stroke-opacity:1;stroke-linecap:round;stroke-linejoin:round">
        <path d="M12.691 3.648h-.324M12.53 3.648V3.08M12.53 3.081l-.055.081M12.475 3.162l-.054.054M12.421 3.216l-.054.027"/>
    </g>
    <circle cx="12.529" cy="3.388" r=".85" style="fill:none;stroke:#585d84;stroke-width:.0212;stroke-opacity:1;stroke-linecap:round;stroke-linejoin:round"/>
    <g class="stroked-text" style="fill:none;stroke:#585d84;stroke-width:.0472;stroke-opacity:1;stroke-linecap:round;stroke-linejoin:round">
        <path d="m14.907 3.135.027-.027M14.934 3.108l.054-.027M14.988 3.081h.135M15.123 3.081l.054.027M15.177 3.108l.027.027M15.204 3.135l.027.054M15.231 3.19v.053M15.231 3.243l-.027.081M15.204 3.324l-.324.324M14.88 3.648h.351"/>
    </g>
    <circle cx="15.069" cy="3.388" r=".85" style="fill:none;stroke:#585d84;stroke-width:.0212;stroke-opacity:1;stroke-linecap:round;stroke-linejoin:round"/>
    <g class="stroked-text" style="fill:none;stroke:#585d84;stroke-width:.0472;stroke-opacity:1;stroke-linecap:round;stroke-linejoin:round">
        <path d="M17.42 3.081h.351M17.771 3.081l-.189.216M17.582 3.297h.081M17.663 3.297l.054.027M17.717 3.324l.027.027M17.744 3.351l.027.054M17.771 3.405v.135M17.771 3.54l-.027.054M17.744 3.594l-.027.027M17.717 3.621l-.054.027M17.663 3.648h-.162M17.501 3.648l-.054-.027M17.447 3.621l-.027-.027"/>
    </g>
    <circle cx="17.609" cy="3.388" r=".85" style="fill:none;stroke:#585d84;stroke-width:.0212;stroke-opacity:1;stroke-linecap:round;stroke-linejoin:round"/>
    <g class="stroked-text" style="fill:none;stroke:#585d84;stroke-width:.0472;stroke-opacity:1;stroke-linecap:round;stroke-linejoin:round">
        <path d="M20.257 3.27v.378M20.122 3.054l-.135.405M19.987 3.46h.351"/>
    </g>
    <circle cx="20.149" cy="3.388" r=".85" style="fill:none;stroke:#585d84;stroke-width:.0212;stroke-opacity:1;stroke-linecap:round;stroke-linejoin:round"/>
    <g style="fill:none;stroke:#afafaf;stroke-width:.15;stroke-opacity:1;stroke-linecap:round;stroke-linejoin:round">
        <g class="stroked-text">
            <path d="M.554 37.553h.19M.744 37.553l.095.048M.84 37.6l.095.096M.935 37.696l.047.19M.982 37.886v.334M.982 38.22l-.047.19M.935 38.41l-.096.095M.84 38.505l-.096.048M.744 38.553h-.19M.554 38.553l-.096-.048M.458 38.505l-.095-.095M.363 38.41l-.047-.19M.316 38.22v-.334M.316 37.886l.047-.19M.363 37.696l.095-.095M.458 37.6l.096-.047M1.887 38.553H1.41M1.41 38.553v-1M2.22 38.03h.334M2.696 38.553H2.22M2.22 38.553v-1M2.22 37.553h.476M3.125 38.553v-1M3.125 37.553h.238M3.363 37.553l.143.048M3.506 37.6l.095.096M3.601 37.696l.048.095M3.649 37.791l.047.19M3.696 37.982v.142M3.696 38.125l-.047.19M3.649 38.315l-.048.095M3.601 38.41l-.095.095M3.506 38.505l-.143.048M3.363 38.553h-.238M3.887 38.648h.762M4.84 38.505l.142.048M4.982 38.553h.238M5.22 38.553l.096-.048M5.316 38.505l.047-.047M5.363 38.458l.048-.095M5.41 38.363v-.096M5.41 38.267l-.047-.095M5.363 38.172l-.048-.047M5.316 38.125l-.096-.048M5.22 38.077l-.19-.048M5.03 38.03l-.096-.048M4.935 37.982l-.048-.048M4.887 37.934l-.048-.095M4.84 37.839v-.096M4.84 37.744l.047-.096M4.887 37.648l.048-.047M4.935 37.6l.095-.047M5.03 37.553h.238M5.268 37.553l.143.048M5.792 38.505l.143.048M5.935 38.553h.238M6.173 38.553l.095-.048M6.268 38.505l.048-.047M6.316 38.458l.047-.095M6.363 38.363v-.096M6.363 38.267l-.048-.095M6.316 38.172l-.048-.047M6.268 38.125l-.095-.048M6.173 38.077l-.19-.048M5.982 38.03l-.095-.048M5.887 37.982l-.048-.048M5.84 37.934l-.048-.095M5.792 37.839v-.096M5.792 37.744l.047-.096M5.84 37.648l.047-.047M5.887 37.6l.095-.047M5.982 37.553h.238M6.22 37.553l.143.048M6.792 38.553v-1M6.792 37.553h.238M7.03 37.553l.143.048M7.173 37.6l.095.096M7.268 37.696l.048.095M7.316 37.791l.047.19M7.363 37.982v.142M7.363 38.125l-.048.19M7.316 38.315l-.048.095M7.268 38.41l-.095.095M7.173 38.505l-.143.048M7.03 38.553h-.238M8.316 38.553h-.572M8.03 38.553v-1M8.03 37.553l-.095.143M7.935 37.696l-.096.095M7.84 37.791l-.096.048M9.268 38.553h-.572M8.982 38.553v-1M8.982 37.553l-.095.143M8.887 37.696l-.095.095M8.792 37.791l-.096.048M9.887 37.553h.095M9.982 37.553l.095.048M10.077 37.6l.048.048M10.125 37.648l.048.095M10.173 37.744l.047.19M10.22 37.934v.238M10.22 38.172l-.047.19M10.173 38.363l-.048.095M10.125 38.458l-.048.047M10.077 38.505l-.095.048M9.982 38.553h-.095M9.887 38.553l-.095-.048M9.792 38.505l-.048-.047M9.744 38.458l-.048-.095M9.696 38.363l-.047-.19M9.649 38.172v-.238M9.649 37.934l.047-.19M9.696 37.744l.048-.096M9.744 37.648l.048-.047M9.792 37.6l.095-.047M10.554 37.553h.666M11.22 37.553l-.428 1M11.363 38.648h.762M12.792 37.553h-.19M12.601 37.553l-.095.048M12.506 37.6l-.048.048M12.458 37.648l-.095.143M12.363 37.791l-.047.19M12.316 37.982v.38M12.316 38.363l.047.095M12.363 38.458l.048.047M12.41 38.505l.096.048M12.506 38.553h.19M12.696 38.553l.096-.048M12.792 38.505l.047-.047M12.84 38.458l.047-.095M12.887 38.363v-.239M12.887 38.125l-.048-.096M12.84 38.03l-.048-.048M12.792 37.982l-.096-.048M12.696 37.934h-.19M12.506 37.934l-.095.048M12.41 37.982l-.047.047M12.363 38.03l-.047.094M13.744 37.886v.667M13.506 37.505l-.238.715M13.268 38.22h.619M14.173 38.553l.523-.667M14.173 37.886l.523.667M15.601 38.553h-.571M15.316 38.553v-1M15.316 37.553l-.096.143M15.22 37.696l-.095.095M15.125 37.791l-.095.048M15.982 37.648l.048-.047M16.03 37.6l.095-.047M16.125 37.553h.238M16.363 37.553l.095.048M16.458 37.6l.048.048M16.506 37.648l.048.095M16.554 37.744v.095M16.554 37.839l-.048.143M16.506 37.982l-.572.571M15.935 38.553h.619M17.125 37.982l-.095-.048M17.03 37.934l-.048-.048M16.982 37.886l-.047-.095M16.935 37.791v-.047M16.935 37.744l.047-.096M16.982 37.648l.048-.047M17.03 37.6l.095-.047M17.125 37.553h.19M17.316 37.553l.095.048M17.41 37.6l.048.048M17.458 37.648l.048.095M17.506 37.744v.047M17.506 37.791l-.048.095M17.458 37.886l-.047.048M17.41 37.934l-.095.048M17.316 37.982h-.191M17.125 37.982l-.095.047M17.03 38.03l-.048.047M16.982 38.077l-.047.095M16.935 38.172v.19M16.935 38.363l.047.095M16.982 38.458l.048.047M17.03 38.505l.095.048M17.125 38.553h.19M17.316 38.553l.095-.048M17.41 38.505l.048-.047M17.458 38.458l.048-.095M17.506 38.363v-.19M17.506 38.172l-.048-.095M17.458 38.077l-.047-.048M17.41 38.03l-.095-.048M17.696 38.648h.762M18.887 37.553h.095M18.982 37.553l.095.048M19.077 37.6l.048.048M19.125 37.648l.048.095M19.173 37.744l.047.19M19.22 37.934v.238M19.22 38.172l-.047.19M19.173 38.363l-.048.095M19.125 38.458l-.048.047M19.077 38.505l-.095.048M18.982 38.553h-.095M18.887 38.553l-.095-.048M18.792 38.505l-.048-.047M18.744 38.458l-.048-.095M18.696 38.363l-.047-.19M18.649 38.172v-.238M18.649 37.934l.047-.19M18.696 37.744l.048-.096M18.744 37.648l.048-.047M18.792 37.6l.095-.047M19.649 38.458l.047.047M19.696 38.505l-.047.048M19.649 38.553l-.048-.048M19.601 38.505l.048-.047M19.649 38.458v.095M20.173 38.553h.19M20.363 38.553l.095-.048M20.458 38.505l.048-.047M20.506 38.458l.095-.143M20.601 38.315l.048-.19M20.649 38.125v-.382M20.649 37.744l-.048-.096M20.601 37.648l-.047-.047M20.554 37.6l-.096-.047M20.458 37.553h-.19M20.268 37.553l-.095.048M20.173 37.6l-.048.048M20.125 37.648l-.048.095M20.077 37.744v.238M20.077 37.982l.048.095M20.125 38.077l.048.047M20.173 38.125l.095.047M20.268 38.172h.19M20.458 38.172l.096-.047M20.554 38.125l.047-.048M20.601 38.077l.048-.095M21.506 37.553h-.19M21.316 37.553l-.096.048M21.22 37.6l-.047.048M21.173 37.648l-.096.143M21.077 37.791l-.047.19M21.03 37.982v.38M21.03 38.363l.047.095M21.077 38.458l.048.047M21.125 38.505l.095.048M21.22 38.553h.19M21.41 38.553l.096-.048M21.506 38.505l.048-.047M21.554 38.458l.047-.095M21.601 38.363v-.239M21.601 38.125l-.047-.096M21.554 38.03l-.048-.048M21.506 37.982l-.095-.048M21.41 37.934h-.19M21.22 37.934l-.095.048M21.125 37.982l-.048.047M21.077 38.03l-.047.094M22.03 38.553v-.667M22.03 37.553l-.048.048M21.982 37.6l.048.048M22.03 37.648l.047-.047M22.077 37.6l-.047-.047M22.03 37.553v.095M22.506 37.886v.667M22.506 37.982l.048-.048M22.554 37.934l.095-.048M22.649 37.886h.143M22.792 37.886l.095.048M22.887 37.934l.047.095M22.935 38.03v.523M23.84 38.505l-.096.048M23.744 38.553h-.19M23.554 38.553l-.096-.048M23.458 38.505l-.047-.047M23.41 38.458l-.047-.095M23.363 38.363v-.286M23.363 38.077l.048-.095M23.41 37.982l.048-.048M23.458 37.934l.096-.048M23.554 37.886h.19M23.744 37.886l.095.048M24.268 38.553v-1M24.696 38.553v-.524M24.696 38.03l-.047-.096M24.649 37.934l-.095-.048M24.554 37.886h-.143M24.41 37.886l-.095.048M24.316 37.934l-.048.048M24.935 38.648h.761M25.935 38.553v-1M26.363 37.648l.048-.047M26.41 37.6l.096-.047M26.506 37.553h.238M26.744 37.553l.095.048M26.84 37.6l.047.048M26.887 37.648l.047.095M26.935 37.744v.095M26.935 37.839l-.048.143M26.887 37.982l-.572.571M26.316 38.553h.619M27.935 38.458l-.048.047M27.887 38.505l-.143.048M27.744 38.553h-.095M27.649 38.553l-.143-.048M27.506 38.505l-.095-.095M27.41 38.41l-.047-.095M27.363 38.315l-.047-.19M27.316 38.125v-.143M27.316 37.982l.047-.19M27.363 37.791l.048-.095M27.41 37.696l.096-.095M27.506 37.6l.143-.047M27.649 37.553h.095M27.744 37.553l.143.048M27.887 37.6l.047.048M28.125 38.648h.762M29.125 37.886v.667M29.125 37.982l.048-.048M29.173 37.934l.095-.048M29.268 37.886h.143M29.41 37.886l.096.048M29.506 37.934l.048.095M29.554 38.03v.523M29.982 38.505l.143.048M30.125 38.553h.238M30.363 38.553l.095-.048M30.458 38.505l.048-.047M30.506 38.458l.048-.095M30.554 38.363v-.096M30.554 38.267l-.048-.095M30.506 38.172l-.048-.047M30.458 38.125l-.095-.048M30.363 38.077l-.19-.048M30.173 38.03l-.096-.048M30.077 37.982l-.047-.048M30.03 37.934l-.048-.095M29.982 37.839v-.096M29.982 37.744l.048-.096M30.03 37.648l.047-.047M30.077 37.6l.096-.047M30.173 37.553h.238M30.41 37.553l.144.048M30.982 38.553v-.667M30.982 37.553l-.047.048M30.935 37.6l.047.048M30.982 37.648l.048-.047M31.03 37.6l-.048-.047M30.982 37.553v.095M31.601 38.553l-.095-.048M31.506 38.505l-.048-.095M31.458 38.41v-.857M31.982 38.553v-1M32.077 38.172l.286.381M32.363 37.886l-.38.381"/>
        </g>
        <g class="stroked-text">
            <path d="m15.006 40.053-.333-.476M14.435 40.053v-1M14.435 39.053h.38M14.816 39.053l.095.048M14.91 39.1l.048.048M14.958 39.148l.048.095M15.006 39.244v.142M15.006 39.386l-.048.096M14.958 39.482l-.047.047M14.91 39.53l-.095.047M14.816 39.577h-.382M15.435 39.53h.333M15.91 40.053h-.476M15.435 40.053v-1M15.435 39.053h.476M16.673 39.53h-.334M16.34 40.053v-1M16.34 39.053h.476M17.34 39.053v.238M17.101 39.196l.238.095M17.34 39.291l.237-.095M17.196 39.482l.143-.19M17.34 39.291l.142.19M18.101 39.053v.238M17.863 39.196l.238.095M18.101 39.291l.238-.095M17.958 39.482l.143-.19M18.101 39.291l.143.19"/>
        </g>
        <path d="M6.84 1.968h19v35h-19Z" style="stroke:#afafaf;stroke-width:.1;stroke-opacity:1;stroke-linecap:round;stroke-linejoin:round;fill:none"/>
        <path d="M9.34 7.428h14v28h-14Z" style="stroke:#afafaf;stroke-width:.1;stroke-opacity:1;stroke-linecap:round;stroke-linejoin:round;fill:none"/>
    </g>
    <g style="fill:none;stroke:#afafaf;stroke-width:.1;stroke-opacity:1;stroke-linecap:round;stroke-linejoin:round">
        <path d="M10.41 8.528h1.1M11.91 8.528h1.1M13.41 8.528h1.1M14.91 8.528h1.1M16.41 8.528h1.1M17.91 8.528h1.1M19.41 8.528h1.1M20.91 8.528h1.1M22.27 8.528v1.1M22.27 10.028v1.1M22.27 11.528v1.1M22.27 13.028v1.1M22.27 14.528v1.1M22.27 16.028v1.1M22.27 17.528v1.1M22.27 19.028v1.1M22.27 20.528v1.1M22.27 22.028v1.1M22.27 23.528v1.1M22.27 25.028v1.1M22.27 26.528v1.1M22.27 28.028v1.1M22.27 29.528v1.1M22.27 31.028v.24M22.27 31.268h-1.1M20.77 31.268h-1.1M19.27 31.268h-1.1M17.77 31.268h-1.1M16.27 31.268h-1.1M14.77 31.268h-1.1M13.27 31.268h-1.1M11.77 31.268h-1.1M10.41 31.268v-1.1M10.41 29.768v-1.1M10.41 28.268v-1.1M10.41 26.768v-1.1M10.41 25.268v-1.1M10.41 23.768v-1.1M10.41 22.268v-1.1M10.41 20.768v-1.1M10.41 19.268v-1.1M10.41 17.768v-1.1M10.41 16.268v-1.1M10.41 14.768v-1.1M10.41 13.268v-1.1M10.41 11.768v-1.1M10.41 10.268v-1.1M10.41 8.768v-.24"/>
        <circle cx="8.839" cy="3.968" r="1.1"/>
        <circle cx="23.839" cy="3.968" r="1.1"/>
    </g>
    <g class="stroked-text" style="fill:none;stroke:#afafaf;stroke-width:.0472;stroke-opacity:1;stroke-linecap:round;stroke-linejoin:round">
        <path d="M12.691 3.648h-.324M12.53 3.648V3.08M12.53 3.081l-.055.081M12.475 3.162l-.054.054M12.421 3.216l-.054.027"/>
    </g>
    <circle cx="12.529" cy="3.388" r=".85" style="fill:none;stroke:#afafaf;stroke-width:.0212;stroke-opacity:1;stroke-linecap:round;stroke-linejoin:round"/>
    <g class="stroked-text" style="fill:none;stroke:#afafaf;stroke-width:.0472;stroke-opacity:1;stroke-linecap:round;stroke-linejoin:round">
        <path d="m14.907 3.135.027-.027M14.934 3.108l.054-.027M14.988 3.081h.135M15.123 3.081l.054.027M15.177 3.108l.027.027M15.204 3.135l.027.054M15.231 3.19v.053M15.231 3.243l-.027.081M15.204 3.324l-.324.324M14.88 3.648h.351"/>
    </g>
    <circle cx="15.069" cy="3.388" r=".85" style="fill:none;stroke:#afafaf;stroke-width:.0212;stroke-opacity:1;stroke-linecap:round;stroke-linejoin:round"/>
    <g class="stroked-text" style="fill:none;stroke:#afafaf;stroke-width:.0472;stroke-opacity:1;stroke-linecap:round;stroke-linejoin:round">
        <path d="M17.42 3.081h.351M17.771 3.081l-.189.216M17.582 3.297h.081M17.663 3.297l.054.027M17.717 3.324l.027.027M17.744 3.351l.027.054M17.771 3.405v.135M17.771 3.54l-.027.054M17.744 3.594l-.027.027M17.717 3.621l-.054.027M17.663 3.648h-.162M17.501 3.648l-.054-.027M17.447 3.621l-.027-.027"/>
    </g>
    <circle cx="17.609" cy="3.388" r=".85" style="fill:none;stroke:#afafaf;stroke-width:.0212;stroke-opacity:1;stroke-linecap:round;stroke-linejoin:round"/>
    <g class="stroked-text" style="fill:none;stroke:#afafaf;stroke-width:.0472;stroke-opacity:1;stroke-linecap:round;stroke-linejoin:round">
        <path d="M20.257 3.27v.378M20.122 3.054l-.135.405M19.987 3.46h.351"/>
    </g>
    <g style="fill:none;stroke:#afafaf;stroke-width:.0212;stroke-opacity:1;stroke-linecap:round;stroke-linejoin:round">
        <circle cx="20.149" cy="3.388" r=".85"/>
        <path d="M10.41 8.528h11.86v22.74H10.41Z" style="stroke:#c2c2c2;stroke-width:.05;stroke-opacity:1;stroke-linecap:round;stroke-linejoin:round;fill:none"/>
    </g>
</svg>
