<?xml version="1.0" standalone="no"?>
 <!DOCTYPE svg PUBLIC "-//W3C//DTD SVG 1.1//EN" 
 "http://www.w3.org/Graphics/SVG/1.1/DTD/svg11.dtd"> 
<svg
  xmlns:svg="http://www.w3.org/2000/svg"
  xmlns="http://www.w3.org/2000/svg"
  xmlns:xlink="http://www.w3.org/1999/xlink"
  version="1.1"
  width="43.2562mm" height="22.4790mm" viewBox="0.0000 0.0000 43.2562 22.4790">
<title>SVG Image created as OLED_Generic_128x32_64x128_I2C.svg date 2025/04/12 02:58:45 </title>
  <desc>Image generated by PCBNEW </desc>
<g style="fill:#000000; fill-opacity:1.0000;stroke:#000000; stroke-opacity:1.0000;
stroke-linecap:round; stroke-linejoin:round;"
 transform="translate(0 0) scale(1 1)">
</g>
<g style="fill:none; 
stroke:#F2EDA1; stroke-width:0.1500; stroke-opacity:1; 
stroke-linecap:round; stroke-linejoin:round;">
<text x="3.3270" y="3.9500"
textLength="4.5357" font-size="1.3333" lengthAdjust="spacingAndGlyphs"
text-anchor="middle" opacity="0" stroke-opacity="0">REF**</text>
<g class="stroked-text"><desc>REF**</desc>
<path d="M1.9937 3.9048
L1.6603 3.4286
" />
<path d="M1.4222 3.9048
L1.4222 2.9048
" />
<path d="M1.4222 2.9048
L1.8032 2.9048
" />
<path d="M1.8032 2.9048
L1.8984 2.9524
" />
<path d="M1.8984 2.9524
L1.9460 3.0001
" />
<path d="M1.9460 3.0001
L1.9937 3.0953
" />
<path d="M1.9937 3.0953
L1.9937 3.2382
" />
<path d="M1.9937 3.2382
L1.9460 3.3334
" />
<path d="M1.9460 3.3334
L1.8984 3.3810
" />
<path d="M1.8984 3.3810
L1.8032 3.4286
" />
<path d="M1.8032 3.4286
L1.4222 3.4286
" />
<path d="M2.4222 3.3810
L2.7556 3.3810
" />
<path d="M2.8984 3.9048
L2.4222 3.9048
" />
<path d="M2.4222 3.9048
L2.4222 2.9048
" />
<path d="M2.4222 2.9048
L2.8984 2.9048
" />
<path d="M3.6603 3.3810
L3.3270 3.3810
" />
<path d="M3.3270 3.9048
L3.3270 2.9048
" />
<path d="M3.3270 2.9048
L3.8032 2.9048
" />
<path d="M4.3270 2.9048
L4.3270 3.1429
" />
<path d="M4.0889 3.0477
L4.3270 3.1429
" />
<path d="M4.3270 3.1429
L4.5651 3.0477
" />
<path d="M4.1841 3.3334
L4.3270 3.1429
" />
<path d="M4.3270 3.1429
L4.4699 3.3334
" />
<path d="M5.0889 2.9048
L5.0889 3.1429
" />
<path d="M4.8508 3.0477
L5.0889 3.1429
" />
<path d="M5.0889 3.1429
L5.3270 3.0477
" />
<path d="M4.9460 3.3334
L5.0889 3.1429
" />
<path d="M5.0889 3.1429
L5.2318 3.3334
" />
</g></g>
<g style="fill:none; 
stroke:#F2EDA1; stroke-width:0.1200; stroke-opacity:1; 
stroke-linecap:round; stroke-linejoin:round;">
<g transform="rotate(-90.000000 1.1134 13.3560)">
<text x="1.1134" y="13.3560"
textLength="2.0686" font-size="0.8000" lengthAdjust="spacingAndGlyphs"
text-anchor="middle" opacity="0" stroke-opacity="0">GND</text>
</g>
<g class="stroked-text"><desc>GND</desc>
<path d="M0.4623 13.8131
L0.4337 13.8703
" />
<path d="M0.4337 13.8703
L0.4337 13.9560
" />
<path d="M0.4337 13.9560
L0.4623 14.0417
" />
<path d="M0.4623 14.0417
L0.5194 14.0989
" />
<path d="M0.5194 14.0989
L0.5766 14.1274
" />
<path d="M0.5766 14.1274
L0.6909 14.1560
" />
<path d="M0.6909 14.1560
L0.7766 14.1560
" />
<path d="M0.7766 14.1560
L0.8909 14.1274
" />
<path d="M0.8909 14.1274
L0.9480 14.0989
" />
<path d="M0.9480 14.0989
L1.0052 14.0417
" />
<path d="M1.0052 14.0417
L1.0337 13.9560
" />
<path d="M1.0337 13.9560
L1.0337 13.8989
" />
<path d="M1.0337 13.8989
L1.0052 13.8131
" />
<path d="M1.0052 13.8131
L0.9766 13.7846
" />
<path d="M0.9766 13.7846
L0.7766 13.7846
" />
<path d="M0.7766 13.7846
L0.7766 13.8989
" />
<path d="M1.0337 13.5274
L0.4337 13.5274
" />
<path d="M0.4337 13.5274
L1.0337 13.1846
" />
<path d="M1.0337 13.1846
L0.4337 13.1846
" />
<path d="M1.0337 12.8989
L0.4337 12.8989
" />
<path d="M0.4337 12.8989
L0.4337 12.7560
" />
<path d="M0.4337 12.7560
L0.4623 12.6703
" />
<path d="M0.4623 12.6703
L0.5194 12.6131
" />
<path d="M0.5194 12.6131
L0.5766 12.5846
" />
<path d="M0.5766 12.5846
L0.6909 12.5560
" />
<path d="M0.6909 12.5560
L0.7766 12.5560
" />
<path d="M0.7766 12.5560
L0.8909 12.5846
" />
<path d="M0.8909 12.5846
L0.9480 12.6131
" />
<path d="M0.9480 12.6131
L1.0052 12.6703
" />
<path d="M1.0052 12.6703
L1.0337 12.7560
" />
<path d="M1.0337 12.7560
L1.0337 12.8989
" />
</g><g transform="rotate(-90.000000 1.1134 10.8160)">
<text x="1.1134" y="10.8160"
textLength="1.9543" font-size="0.8000" lengthAdjust="spacingAndGlyphs"
text-anchor="middle" opacity="0" stroke-opacity="0">VCC</text>
</g>
<g class="stroked-text"><desc>VCC</desc>
<path d="M0.4337 11.6160
L1.0337 11.4160
" />
<path d="M1.0337 11.4160
L0.4337 11.2160
" />
<path d="M0.9766 10.6731
L1.0052 10.7017
" />
<path d="M1.0052 10.7017
L1.0337 10.7874
" />
<path d="M1.0337 10.7874
L1.0337 10.8446
" />
<path d="M1.0337 10.8446
L1.0052 10.9303
" />
<path d="M1.0052 10.9303
L0.9480 10.9874
" />
<path d="M0.9480 10.9874
L0.8909 11.0160
" />
<path d="M0.8909 11.0160
L0.7766 11.0446
" />
<path d="M0.7766 11.0446
L0.6909 11.0446
" />
<path d="M0.6909 11.0446
L0.5766 11.0160
" />
<path d="M0.5766 11.0160
L0.5194 10.9874
" />
<path d="M0.5194 10.9874
L0.4623 10.9303
" />
<path d="M0.4623 10.9303
L0.4337 10.8446
" />
<path d="M0.4337 10.8446
L0.4337 10.7874
" />
<path d="M0.4337 10.7874
L0.4623 10.7017
" />
<path d="M0.4623 10.7017
L0.4909 10.6731
" />
<path d="M0.9766 10.0731
L1.0052 10.1017
" />
<path d="M1.0052 10.1017
L1.0337 10.1874
" />
<path d="M1.0337 10.1874
L1.0337 10.2446
" />
<path d="M1.0337 10.2446
L1.0052 10.3303
" />
<path d="M1.0052 10.3303
L0.9480 10.3874
" />
<path d="M0.9480 10.3874
L0.8909 10.4160
" />
<path d="M0.8909 10.4160
L0.7766 10.4446
" />
<path d="M0.7766 10.4446
L0.6909 10.4446
" />
<path d="M0.6909 10.4446
L0.5766 10.4160
" />
<path d="M0.5766 10.4160
L0.5194 10.3874
" />
<path d="M0.5194 10.3874
L0.4623 10.3303
" />
<path d="M0.4623 10.3303
L0.4337 10.2446
" />
<path d="M0.4337 10.2446
L0.4337 10.1874
" />
<path d="M0.4337 10.1874
L0.4623 10.1017
" />
<path d="M0.4623 10.1017
L0.4909 10.0731
" />
</g><g transform="rotate(-90.000000 1.1134 8.2760)">
<text x="1.1134" y="8.2760"
textLength="1.8971" font-size="0.8000" lengthAdjust="spacingAndGlyphs"
text-anchor="middle" opacity="0" stroke-opacity="0">SCL</text>
</g>
<g class="stroked-text"><desc>SCL</desc>
<path d="M1.0052 8.9903
L1.0337 8.9046
" />
<path d="M1.0337 8.9046
L1.0337 8.7617
" />
<path d="M1.0337 8.7617
L1.0052 8.7046
" />
<path d="M1.0052 8.7046
L0.9766 8.6760
" />
<path d="M0.9766 8.6760
L0.9194 8.6474
" />
<path d="M0.9194 8.6474
L0.8623 8.6474
" />
<path d="M0.8623 8.6474
L0.8052 8.6760
" />
<path d="M0.8052 8.6760
L0.7766 8.7046
" />
<path d="M0.7766 8.7046
L0.7480 8.7617
" />
<path d="M0.7480 8.7617
L0.7194 8.8760
" />
<path d="M0.7194 8.8760
L0.6909 8.9331
" />
<path d="M0.6909 8.9331
L0.6623 8.9617
" />
<path d="M0.6623 8.9617
L0.6052 8.9903
" />
<path d="M0.6052 8.9903
L0.5480 8.9903
" />
<path d="M0.5480 8.9903
L0.4909 8.9617
" />
<path d="M0.4909 8.9617
L0.4623 8.9331
" />
<path d="M0.4623 8.9331
L0.4337 8.8760
" />
<path d="M0.4337 8.8760
L0.4337 8.7331
" />
<path d="M0.4337 8.7331
L0.4623 8.6474
" />
<path d="M0.9766 8.0474
L1.0052 8.0760
" />
<path d="M1.0052 8.0760
L1.0337 8.1617
" />
<path d="M1.0337 8.1617
L1.0337 8.2189
" />
<path d="M1.0337 8.2189
L1.0052 8.3046
" />
<path d="M1.0052 8.3046
L0.9480 8.3617
" />
<path d="M0.9480 8.3617
L0.8909 8.3903
" />
<path d="M0.8909 8.3903
L0.7766 8.4189
" />
<path d="M0.7766 8.4189
L0.6909 8.4189
" />
<path d="M0.6909 8.4189
L0.5766 8.3903
" />
<path d="M0.5766 8.3903
L0.5194 8.3617
" />
<path d="M0.5194 8.3617
L0.4623 8.3046
" />
<path d="M0.4623 8.3046
L0.4337 8.2189
" />
<path d="M0.4337 8.2189
L0.4337 8.1617
" />
<path d="M0.4337 8.1617
L0.4623 8.0760
" />
<path d="M0.4623 8.0760
L0.4909 8.0474
" />
<path d="M1.0337 7.5046
L1.0337 7.7903
" />
<path d="M1.0337 7.7903
L0.4337 7.7903
" />
</g><g transform="rotate(-90.000000 1.1134 5.7360)">
<text x="1.1134" y="5.7360"
textLength="1.9257" font-size="0.8000" lengthAdjust="spacingAndGlyphs"
text-anchor="middle" opacity="0" stroke-opacity="0">SDA</text>
</g>
<g class="stroked-text"><desc>SDA</desc>
<path d="M1.0052 6.4646
L1.0337 6.3789
" />
<path d="M1.0337 6.3789
L1.0337 6.2360
" />
<path d="M1.0337 6.2360
L1.0052 6.1789
" />
<path d="M1.0052 6.1789
L0.9766 6.1503
" />
<path d="M0.9766 6.1503
L0.9194 6.1217
" />
<path d="M0.9194 6.1217
L0.8623 6.1217
" />
<path d="M0.8623 6.1217
L0.8052 6.1503
" />
<path d="M0.8052 6.1503
L0.7766 6.1789
" />
<path d="M0.7766 6.1789
L0.7480 6.2360
" />
<path d="M0.7480 6.2360
L0.7194 6.3503
" />
<path d="M0.7194 6.3503
L0.6909 6.4074
" />
<path d="M0.6909 6.4074
L0.6623 6.4360
" />
<path d="M0.6623 6.4360
L0.6052 6.4646
" />
<path d="M0.6052 6.4646
L0.5480 6.4646
" />
<path d="M0.5480 6.4646
L0.4909 6.4360
" />
<path d="M0.4909 6.4360
L0.4623 6.4074
" />
<path d="M0.4623 6.4074
L0.4337 6.3503
" />
<path d="M0.4337 6.3503
L0.4337 6.2074
" />
<path d="M0.4337 6.2074
L0.4623 6.1217
" />
<path d="M1.0337 5.8646
L0.4337 5.8646
" />
<path d="M0.4337 5.8646
L0.4337 5.7217
" />
<path d="M0.4337 5.7217
L0.4623 5.6360
" />
<path d="M0.4623 5.6360
L0.5194 5.5789
" />
<path d="M0.5194 5.5789
L0.5766 5.5503
" />
<path d="M0.5766 5.5503
L0.6909 5.5217
" />
<path d="M0.6909 5.5217
L0.7766 5.5217
" />
<path d="M0.7766 5.5217
L0.8909 5.5503
" />
<path d="M0.8909 5.5503
L0.9480 5.5789
" />
<path d="M0.9480 5.5789
L1.0052 5.6360
" />
<path d="M1.0052 5.6360
L1.0337 5.7217
" />
<path d="M1.0337 5.7217
L1.0337 5.8646
" />
<path d="M0.8623 5.2931
L0.8623 5.0074
" />
<path d="M1.0337 5.3503
L0.4337 5.1503
" />
<path d="M0.4337 5.1503
L1.0337 4.9503
" />
</g><path style="fill:none; 
stroke:#F2EDA1; stroke-width:0.1200; stroke-opacity:1; 
stroke-linecap:round; stroke-linejoin:round;fill:none"
d="M 0.0600,4.4700
6.1970,4.4700
6.1970,7.0100
0.0600,7.0100
Z" /> 
<path style="fill:none; 
stroke:#F2EDA1; stroke-width:0.1200; stroke-opacity:1; 
stroke-linecap:round; stroke-linejoin:round;fill:none"
d="M 0.0600,7.0100
6.1970,7.0100
6.1970,9.5500
0.0600,9.5500
Z" /> 
<path style="fill:none; 
stroke:#F2EDA1; stroke-width:0.1200; stroke-opacity:1; 
stroke-linecap:round; stroke-linejoin:round;fill:none"
d="M 0.0600,9.5500
6.1970,9.5500
6.1970,12.0900
0.0600,12.0900
Z" /> 
<path style="fill:none; 
stroke:#F2EDA1; stroke-width:0.1200; stroke-opacity:1; 
stroke-linecap:round; stroke-linejoin:round;fill:none"
d="M 0.0600,12.0900
6.1970,12.0900
6.1970,14.6300
0.0600,14.6300
Z" /> 
<path style="fill:none; 
stroke:#F2EDA1; stroke-width:0.1200; stroke-opacity:1; 
stroke-linecap:round; stroke-linejoin:round;fill:none"
d="M 1.4570,4.4700
6.1970,4.4700
6.1970,14.6300
1.4570,14.6300
Z" /> 
<path style="fill:#4D7FC4; fill-opacity:1.0000; stroke:none;fill-rule:evenodd;"
d="M 3.9270,4.8900
4.0417,4.8978
4.2201,4.9421
4.3848,5.0238
4.5280,5.1390
4.6432,5.2822
4.7249,5.4469
4.7692,5.6252
4.7770,5.7400
4.7692,5.8548
4.7249,6.0331
4.6432,6.1978
4.5280,6.3410
4.3848,6.4562
4.2201,6.5379
4.0417,6.5822
3.9270,6.5900
2.7270,6.5900
2.6122,6.5822
2.4339,6.5379
2.2692,6.4562
2.1260,6.3410
2.0108,6.1978
1.9291,6.0331
1.8848,5.8548
1.8770,5.7400
1.8848,5.6252
1.9291,5.4469
2.0108,5.2822
2.1260,5.1390
2.2692,5.0238
2.4339,4.9421
2.6122,4.8978
2.7270,4.8900
Z" /> 
<path style="fill:#4D7FC4; fill-opacity:1.0000; stroke:none;fill-rule:evenodd;"
d="M 4.9270,4.8900
5.0417,4.8978
5.2201,4.9421
5.3848,5.0238
5.5280,5.1390
5.6432,5.2822
5.7249,5.4469
5.7692,5.6252
5.7770,5.7400
5.7692,5.8548
5.7249,6.0331
5.6432,6.1978
5.5280,6.3410
5.3848,6.4562
5.2201,6.5379
5.0417,6.5822
4.9270,6.5900
3.7270,6.5900
3.6122,6.5822
3.4339,6.5379
3.2692,6.4562
3.1260,6.3410
3.0108,6.1978
2.9291,6.0331
2.8848,5.8548
2.8770,5.7400
2.8848,5.6252
2.9291,5.4469
3.0108,5.2822
3.1260,5.1390
3.2692,5.0238
3.4339,4.9421
3.6122,4.8978
3.7270,4.8900
Z" /> 
<path style="fill:#4D7FC4; fill-opacity:1.0000; stroke:none;fill-rule:evenodd;"
d="M 3.9270,7.4300
4.0417,7.4378
4.2201,7.4821
4.3848,7.5638
4.5280,7.6790
4.6432,7.8222
4.7249,7.9869
4.7692,8.1653
4.7770,8.2800
4.7692,8.3948
4.7249,8.5731
4.6432,8.7378
4.5280,8.8810
4.3848,8.9962
4.2201,9.0779
4.0417,9.1222
3.9270,9.1300
2.7270,9.1300
2.6122,9.1222
2.4339,9.0779
2.2692,8.9962
2.1260,8.8810
2.0108,8.7378
1.9291,8.5731
1.8848,8.3948
1.8770,8.2800
1.8848,8.1653
1.9291,7.9869
2.0108,7.8222
2.1260,7.6790
2.2692,7.5638
2.4339,7.4821
2.6122,7.4378
2.7270,7.4300
Z" /> 
<path style="fill:#4D7FC4; fill-opacity:1.0000; stroke:none;fill-rule:evenodd;"
d="M 4.9270,7.4300
5.0417,7.4378
5.2201,7.4821
5.3848,7.5638
5.5280,7.6790
5.6432,7.8222
5.7249,7.9869
5.7692,8.1653
5.7770,8.2800
5.7692,8.3948
5.7249,8.5731
5.6432,8.7378
5.5280,8.8810
5.3848,8.9962
5.2201,9.0779
5.0417,9.1222
4.9270,9.1300
3.7270,9.1300
3.6122,9.1222
3.4339,9.0779
3.2692,8.9962
3.1260,8.8810
3.0108,8.7378
2.9291,8.5731
2.8848,8.3948
2.8770,8.2800
2.8848,8.1653
2.9291,7.9869
3.0108,7.8222
3.1260,7.6790
3.2692,7.5638
3.4339,7.4821
3.6122,7.4378
3.7270,7.4300
Z" /> 
<path style="fill:#4D7FC4; fill-opacity:1.0000; stroke:none;fill-rule:evenodd;"
d="M 3.9270,9.9700
4.0417,9.9778
4.2201,10.0221
4.3848,10.1038
4.5280,10.2190
4.6432,10.3622
4.7249,10.5269
4.7692,10.7052
4.7770,10.8200
4.7692,10.9347
4.7249,11.1131
4.6432,11.2778
4.5280,11.4210
4.3848,11.5362
4.2201,11.6179
4.0417,11.6622
3.9270,11.6700
2.7270,11.6700
2.6122,11.6622
2.4339,11.6179
2.2692,11.5362
2.1260,11.4210
2.0108,11.2778
1.9291,11.1131
1.8848,10.9347
1.8770,10.8200
1.8848,10.7052
1.9291,10.5269
2.0108,10.3622
2.1260,10.2190
2.2692,10.1038
2.4339,10.0221
2.6122,9.9778
2.7270,9.9700
Z" /> 
<path style="fill:#4D7FC4; fill-opacity:1.0000; stroke:none;fill-rule:evenodd;"
d="M 4.9270,9.9700
5.0417,9.9778
5.2201,10.0221
5.3848,10.1038
5.5280,10.2190
5.6432,10.3622
5.7249,10.5269
5.7692,10.7052
5.7770,10.8200
5.7692,10.9347
5.7249,11.1131
5.6432,11.2778
5.5280,11.4210
5.3848,11.5362
5.2201,11.6179
5.0417,11.6622
4.9270,11.6700
3.7270,11.6700
3.6122,11.6622
3.4339,11.6179
3.2692,11.5362
3.1260,11.4210
3.0108,11.2778
2.9291,11.1131
2.8848,10.9347
2.8770,10.8200
2.8848,10.7052
2.9291,10.5269
3.0108,10.3622
3.1260,10.2190
3.2692,10.1038
3.4339,10.0221
3.6122,9.9778
3.7270,9.9700
Z" /> 
<path style="fill:#4D7FC4; fill-opacity:1.0000; stroke:none;fill-rule:evenodd;"
d="M 3.9270,12.5100
4.0417,12.5178
4.2201,12.5621
4.3848,12.6438
4.5280,12.7590
4.6432,12.9022
4.7249,13.0669
4.7692,13.2452
4.7770,13.3600
4.7692,13.4748
4.7249,13.6531
4.6432,13.8178
4.5280,13.9610
4.3848,14.0762
4.2201,14.1579
4.0417,14.2022
3.9270,14.2100
2.7270,14.2100
2.6122,14.2022
2.4339,14.1579
2.2692,14.0762
2.1260,13.9610
2.0108,13.8178
1.9291,13.6531
1.8848,13.4748
1.8770,13.3600
1.8848,13.2452
1.9291,13.0669
2.0108,12.9022
2.1260,12.7590
2.2692,12.6438
2.4339,12.5621
2.6122,12.5178
2.7270,12.5100
Z" /> 
<path style="fill:#4D7FC4; fill-opacity:1.0000; stroke:none;fill-rule:evenodd;"
d="M 4.9270,12.5100
5.0417,12.5178
5.2201,12.5621
5.3848,12.6438
5.5280,12.7590
5.6432,12.9022
5.7249,13.0669
5.7692,13.2452
5.7770,13.3600
5.7692,13.4748
5.7249,13.6531
5.6432,13.8178
5.5280,13.9610
5.3848,14.0762
5.2201,14.1579
5.0417,14.2022
4.9270,14.2100
3.7270,14.2100
3.6122,14.2022
3.4339,14.1579
3.2692,14.0762
3.1260,13.9610
3.0108,13.8178
2.9291,13.6531
2.8848,13.4748
2.8770,13.3600
2.8848,13.2452
2.9291,13.0669
3.0108,12.9022
3.1260,12.7590
3.2692,12.6438
3.4339,12.5621
3.6122,12.5178
3.7270,12.5100
Z" /> 
<path style="fill:#C83434; fill-opacity:1.0000; stroke:none;fill-rule:evenodd;"
d="M 3.9270,4.8900
4.0417,4.8978
4.2201,4.9421
4.3848,5.0238
4.5280,5.1390
4.6432,5.2822
4.7249,5.4469
4.7692,5.6252
4.7770,5.7400
4.7692,5.8548
4.7249,6.0331
4.6432,6.1978
4.5280,6.3410
4.3848,6.4562
4.2201,6.5379
4.0417,6.5822
3.9270,6.5900
2.7270,6.5900
2.6122,6.5822
2.4339,6.5379
2.2692,6.4562
2.1260,6.3410
2.0108,6.1978
1.9291,6.0331
1.8848,5.8548
1.8770,5.7400
1.8848,5.6252
1.9291,5.4469
2.0108,5.2822
2.1260,5.1390
2.2692,5.0238
2.4339,4.9421
2.6122,4.8978
2.7270,4.8900
Z" /> 
<path style="fill:#C83434; fill-opacity:1.0000; stroke:none;fill-rule:evenodd;"
d="M 4.9270,4.8900
5.0417,4.8978
5.2201,4.9421
5.3848,5.0238
5.5280,5.1390
5.6432,5.2822
5.7249,5.4469
5.7692,5.6252
5.7770,5.7400
5.7692,5.8548
5.7249,6.0331
5.6432,6.1978
5.5280,6.3410
5.3848,6.4562
5.2201,6.5379
5.0417,6.5822
4.9270,6.5900
3.7270,6.5900
3.6122,6.5822
3.4339,6.5379
3.2692,6.4562
3.1260,6.3410
3.0108,6.1978
2.9291,6.0331
2.8848,5.8548
2.8770,5.7400
2.8848,5.6252
2.9291,5.4469
3.0108,5.2822
3.1260,5.1390
3.2692,5.0238
3.4339,4.9421
3.6122,4.8978
3.7270,4.8900
Z" /> 
<path style="fill:#C83434; fill-opacity:1.0000; stroke:none;fill-rule:evenodd;"
d="M 3.9270,7.4300
4.0417,7.4378
4.2201,7.4821
4.3848,7.5638
4.5280,7.6790
4.6432,7.8222
4.7249,7.9869
4.7692,8.1653
4.7770,8.2800
4.7692,8.3948
4.7249,8.5731
4.6432,8.7378
4.5280,8.8810
4.3848,8.9962
4.2201,9.0779
4.0417,9.1222
3.9270,9.1300
2.7270,9.1300
2.6122,9.1222
2.4339,9.0779
2.2692,8.9962
2.1260,8.8810
2.0108,8.7378
1.9291,8.5731
1.8848,8.3948
1.8770,8.2800
1.8848,8.1653
1.9291,7.9869
2.0108,7.8222
2.1260,7.6790
2.2692,7.5638
2.4339,7.4821
2.6122,7.4378
2.7270,7.4300
Z" /> 
<path style="fill:#C83434; fill-opacity:1.0000; stroke:none;fill-rule:evenodd;"
d="M 4.9270,7.4300
5.0417,7.4378
5.2201,7.4821
5.3848,7.5638
5.5280,7.6790
5.6432,7.8222
5.7249,7.9869
5.7692,8.1653
5.7770,8.2800
5.7692,8.3948
5.7249,8.5731
5.6432,8.7378
5.5280,8.8810
5.3848,8.9962
5.2201,9.0779
5.0417,9.1222
4.9270,9.1300
3.7270,9.1300
3.6122,9.1222
3.4339,9.0779
3.2692,8.9962
3.1260,8.8810
3.0108,8.7378
2.9291,8.5731
2.8848,8.3948
2.8770,8.2800
2.8848,8.1653
2.9291,7.9869
3.0108,7.8222
3.1260,7.6790
3.2692,7.5638
3.4339,7.4821
3.6122,7.4378
3.7270,7.4300
Z" /> 
<path style="fill:#C83434; fill-opacity:1.0000; stroke:none;fill-rule:evenodd;"
d="M 3.9270,9.9700
4.0417,9.9778
4.2201,10.0221
4.3848,10.1038
4.5280,10.2190
4.6432,10.3622
4.7249,10.5269
4.7692,10.7052
4.7770,10.8200
4.7692,10.9347
4.7249,11.1131
4.6432,11.2778
4.5280,11.4210
4.3848,11.5362
4.2201,11.6179
4.0417,11.6622
3.9270,11.6700
2.7270,11.6700
2.6122,11.6622
2.4339,11.6179
2.2692,11.5362
2.1260,11.4210
2.0108,11.2778
1.9291,11.1131
1.8848,10.9347
1.8770,10.8200
1.8848,10.7052
1.9291,10.5269
2.0108,10.3622
2.1260,10.2190
2.2692,10.1038
2.4339,10.0221
2.6122,9.9778
2.7270,9.9700
Z" /> 
<path style="fill:#C83434; fill-opacity:1.0000; stroke:none;fill-rule:evenodd;"
d="M 4.9270,9.9700
5.0417,9.9778
5.2201,10.0221
5.3848,10.1038
5.5280,10.2190
5.6432,10.3622
5.7249,10.5269
5.7692,10.7052
5.7770,10.8200
5.7692,10.9347
5.7249,11.1131
5.6432,11.2778
5.5280,11.4210
5.3848,11.5362
5.2201,11.6179
5.0417,11.6622
4.9270,11.6700
3.7270,11.6700
3.6122,11.6622
3.4339,11.6179
3.2692,11.5362
3.1260,11.4210
3.0108,11.2778
2.9291,11.1131
2.8848,10.9347
2.8770,10.8200
2.8848,10.7052
2.9291,10.5269
3.0108,10.3622
3.1260,10.2190
3.2692,10.1038
3.4339,10.0221
3.6122,9.9778
3.7270,9.9700
Z" /> 
<path style="fill:#C83434; fill-opacity:1.0000; stroke:none;fill-rule:evenodd;"
d="M 3.9270,12.5100
4.0417,12.5178
4.2201,12.5621
4.3848,12.6438
4.5280,12.7590
4.6432,12.9022
4.7249,13.0669
4.7692,13.2452
4.7770,13.3600
4.7692,13.4748
4.7249,13.6531
4.6432,13.8178
4.5280,13.9610
4.3848,14.0762
4.2201,14.1579
4.0417,14.2022
3.9270,14.2100
2.7270,14.2100
2.6122,14.2022
2.4339,14.1579
2.2692,14.0762
2.1260,13.9610
2.0108,13.8178
1.9291,13.6531
1.8848,13.4748
1.8770,13.3600
1.8848,13.2452
1.9291,13.0669
2.0108,12.9022
2.1260,12.7590
2.2692,12.6438
2.4339,12.5621
2.6122,12.5178
2.7270,12.5100
Z" /> 
<path style="fill:#C83434; fill-opacity:1.0000; stroke:none;fill-rule:evenodd;"
d="M 4.9270,12.5100
5.0417,12.5178
5.2201,12.5621
5.3848,12.6438
5.5280,12.7590
5.6432,12.9022
5.7249,13.0669
5.7692,13.2452
5.7770,13.3600
5.7692,13.4748
5.7249,13.6531
5.6432,13.8178
5.5280,13.9610
5.3848,14.0762
5.2201,14.1579
5.0417,14.2022
4.9270,14.2100
3.7270,14.2100
3.6122,14.2022
3.4339,14.1579
3.2692,14.0762
3.1260,13.9610
3.0108,13.8178
2.9291,13.6531
2.8848,13.4748
2.8770,13.3600
2.8848,13.2452
2.9291,13.0669
3.0108,12.9022
3.1260,12.7590
3.2692,12.6438
3.4339,12.5621
3.6122,12.5178
3.7270,12.5100
Z" /> 
</g>
<g style="fill:none; 
stroke:#585D84; stroke-width:0.0806; stroke-opacity:1; 
stroke-linecap:round; stroke-linejoin:round;">
<text x="3.3270" y="6.2233"
textLength="0.9690" font-size="1.2889" lengthAdjust="spacingAndGlyphs"
text-anchor="middle" opacity="0" stroke-opacity="0">1</text>
<g class="stroked-text"><desc>1</desc>
<path d="M3.6032 6.1830
L3.0508 6.1830
" />
<path d="M3.3270 6.1830
L3.3270 5.2163
" />
<path d="M3.3270 5.2163
L3.2349 5.3544
" />
<path d="M3.2349 5.3544
L3.1429 5.4465
" />
<path d="M3.1429 5.4465
L3.0508 5.4925
" />
</g><path style="fill:none; 
stroke:#585D84; stroke-width:0.0212; stroke-opacity:1; 
stroke-linecap:round; stroke-linejoin:round;fill:none"
d="M 3.9270,4.8900
4.0417,4.8978
4.2201,4.9421
4.3848,5.0238
4.5280,5.1390
4.6432,5.2822
4.7249,5.4469
4.7692,5.6252
4.7770,5.7400
4.7692,5.8548
4.7249,6.0331
4.6432,6.1978
4.5280,6.3410
4.3848,6.4562
4.2201,6.5379
4.0417,6.5822
3.9270,6.5900
2.7270,6.5900
2.6122,6.5822
2.4339,6.5379
2.2692,6.4562
2.1260,6.3410
2.0108,6.1978
1.9291,6.0331
1.8848,5.8548
1.8770,5.7400
1.8848,5.6252
1.9291,5.4469
2.0108,5.2822
2.1260,5.1390
2.2692,5.0238
2.4339,4.9421
2.6122,4.8978
2.7270,4.8900
Z" /> 
</g>
<g style="fill:none; 
stroke:#585D84; stroke-width:0.0806; stroke-opacity:1; 
stroke-linecap:round; stroke-linejoin:round;">
<text x="4.3270" y="6.2233"
textLength="0.9690" font-size="1.2889" lengthAdjust="spacingAndGlyphs"
text-anchor="middle" opacity="0" stroke-opacity="0">1</text>
<g class="stroked-text"><desc>1</desc>
<path d="M4.6032 6.1830
L4.0508 6.1830
" />
<path d="M4.3270 6.1830
L4.3270 5.2163
" />
<path d="M4.3270 5.2163
L4.2349 5.3544
" />
<path d="M4.2349 5.3544
L4.1429 5.4465
" />
<path d="M4.1429 5.4465
L4.0508 5.4925
" />
</g><path style="fill:none; 
stroke:#585D84; stroke-width:0.0212; stroke-opacity:1; 
stroke-linecap:round; stroke-linejoin:round;fill:none"
d="M 4.9270,4.8900
5.0417,4.8978
5.2201,4.9421
5.3848,5.0238
5.5280,5.1390
5.6432,5.2822
5.7249,5.4469
5.7692,5.6252
5.7770,5.7400
5.7692,5.8548
5.7249,6.0331
5.6432,6.1978
5.5280,6.3410
5.3848,6.4562
5.2201,6.5379
5.0417,6.5822
4.9270,6.5900
3.7270,6.5900
3.6122,6.5822
3.4339,6.5379
3.2692,6.4562
3.1260,6.3410
3.0108,6.1978
2.9291,6.0331
2.8848,5.8548
2.8770,5.7400
2.8848,5.6252
2.9291,5.4469
3.0108,5.2822
3.1260,5.1390
3.2692,5.0238
3.4339,4.9421
3.6122,4.8978
3.7270,4.8900
Z" /> 
</g>
<g style="fill:none; 
stroke:#585D84; stroke-width:0.0806; stroke-opacity:1; 
stroke-linecap:round; stroke-linejoin:round;">
<text x="3.3270" y="8.7633"
textLength="0.9690" font-size="1.2889" lengthAdjust="spacingAndGlyphs"
text-anchor="middle" opacity="0" stroke-opacity="0">2</text>
<g class="stroked-text"><desc>2</desc>
<path d="M3.0508 7.8484
L3.0968 7.8024
" />
<path d="M3.0968 7.8024
L3.1889 7.7563
" />
<path d="M3.1889 7.7563
L3.4191 7.7563
" />
<path d="M3.4191 7.7563
L3.5111 7.8024
" />
<path d="M3.5111 7.8024
L3.5572 7.8484
" />
<path d="M3.5572 7.8484
L3.6032 7.9405
" />
<path d="M3.6032 7.9405
L3.6032 8.0325
" />
<path d="M3.6032 8.0325
L3.5572 8.1706
" />
<path d="M3.5572 8.1706
L3.0048 8.7230
" />
<path d="M3.0048 8.7230
L3.6032 8.7230
" />
</g><path style="fill:none; 
stroke:#585D84; stroke-width:0.0212; stroke-opacity:1; 
stroke-linecap:round; stroke-linejoin:round;fill:none"
d="M 3.9270,7.4300
4.0417,7.4378
4.2201,7.4821
4.3848,7.5638
4.5280,7.6790
4.6432,7.8222
4.7249,7.9869
4.7692,8.1653
4.7770,8.2800
4.7692,8.3948
4.7249,8.5731
4.6432,8.7378
4.5280,8.8810
4.3848,8.9962
4.2201,9.0779
4.0417,9.1222
3.9270,9.1300
2.7270,9.1300
2.6122,9.1222
2.4339,9.0779
2.2692,8.9962
2.1260,8.8810
2.0108,8.7378
1.9291,8.5731
1.8848,8.3948
1.8770,8.2800
1.8848,8.1653
1.9291,7.9869
2.0108,7.8222
2.1260,7.6790
2.2692,7.5638
2.4339,7.4821
2.6122,7.4378
2.7270,7.4300
Z" /> 
</g>
<g style="fill:none; 
stroke:#585D84; stroke-width:0.0806; stroke-opacity:1; 
stroke-linecap:round; stroke-linejoin:round;">
<text x="4.3270" y="8.7633"
textLength="0.9690" font-size="1.2889" lengthAdjust="spacingAndGlyphs"
text-anchor="middle" opacity="0" stroke-opacity="0">2</text>
<g class="stroked-text"><desc>2</desc>
<path d="M4.0508 7.8484
L4.0968 7.8024
" />
<path d="M4.0968 7.8024
L4.1889 7.7563
" />
<path d="M4.1889 7.7563
L4.4191 7.7563
" />
<path d="M4.4191 7.7563
L4.5111 7.8024
" />
<path d="M4.5111 7.8024
L4.5572 7.8484
" />
<path d="M4.5572 7.8484
L4.6032 7.9405
" />
<path d="M4.6032 7.9405
L4.6032 8.0325
" />
<path d="M4.6032 8.0325
L4.5572 8.1706
" />
<path d="M4.5572 8.1706
L4.0048 8.7230
" />
<path d="M4.0048 8.7230
L4.6032 8.7230
" />
</g><path style="fill:none; 
stroke:#585D84; stroke-width:0.0212; stroke-opacity:1; 
stroke-linecap:round; stroke-linejoin:round;fill:none"
d="M 4.9270,7.4300
5.0417,7.4378
5.2201,7.4821
5.3848,7.5638
5.5280,7.6790
5.6432,7.8222
5.7249,7.9869
5.7692,8.1653
5.7770,8.2800
5.7692,8.3948
5.7249,8.5731
5.6432,8.7378
5.5280,8.8810
5.3848,8.9962
5.2201,9.0779
5.0417,9.1222
4.9270,9.1300
3.7270,9.1300
3.6122,9.1222
3.4339,9.0779
3.2692,8.9962
3.1260,8.8810
3.0108,8.7378
2.9291,8.5731
2.8848,8.3948
2.8770,8.2800
2.8848,8.1653
2.9291,7.9869
3.0108,7.8222
3.1260,7.6790
3.2692,7.5638
3.4339,7.4821
3.6122,7.4378
3.7270,7.4300
Z" /> 
</g>
<g style="fill:none; 
stroke:#585D84; stroke-width:0.0806; stroke-opacity:1; 
stroke-linecap:round; stroke-linejoin:round;">
<text x="3.3270" y="11.3033"
textLength="0.9690" font-size="1.2889" lengthAdjust="spacingAndGlyphs"
text-anchor="middle" opacity="0" stroke-opacity="0">3</text>
<g class="stroked-text"><desc>3</desc>
<path d="M3.0048 10.2963
L3.6032 10.2963
" />
<path d="M3.6032 10.2963
L3.2810 10.6646
" />
<path d="M3.2810 10.6646
L3.4191 10.6646
" />
<path d="M3.4191 10.6646
L3.5111 10.7106
" />
<path d="M3.5111 10.7106
L3.5572 10.7567
" />
<path d="M3.5572 10.7567
L3.6032 10.8487
" />
<path d="M3.6032 10.8487
L3.6032 11.0789
" />
<path d="M3.6032 11.0789
L3.5572 11.1709
" />
<path d="M3.5572 11.1709
L3.5111 11.2170
" />
<path d="M3.5111 11.2170
L3.4191 11.2630
" />
<path d="M3.4191 11.2630
L3.1429 11.2630
" />
<path d="M3.1429 11.2630
L3.0508 11.2170
" />
<path d="M3.0508 11.2170
L3.0048 11.1709
" />
</g><path style="fill:none; 
stroke:#585D84; stroke-width:0.0212; stroke-opacity:1; 
stroke-linecap:round; stroke-linejoin:round;fill:none"
d="M 3.9270,9.9700
4.0417,9.9778
4.2201,10.0221
4.3848,10.1038
4.5280,10.2190
4.6432,10.3622
4.7249,10.5269
4.7692,10.7052
4.7770,10.8200
4.7692,10.9347
4.7249,11.1131
4.6432,11.2778
4.5280,11.4210
4.3848,11.5362
4.2201,11.6179
4.0417,11.6622
3.9270,11.6700
2.7270,11.6700
2.6122,11.6622
2.4339,11.6179
2.2692,11.5362
2.1260,11.4210
2.0108,11.2778
1.9291,11.1131
1.8848,10.9347
1.8770,10.8200
1.8848,10.7052
1.9291,10.5269
2.0108,10.3622
2.1260,10.2190
2.2692,10.1038
2.4339,10.0221
2.6122,9.9778
2.7270,9.9700
Z" /> 
</g>
<g style="fill:none; 
stroke:#585D84; stroke-width:0.0806; stroke-opacity:1; 
stroke-linecap:round; stroke-linejoin:round;">
<text x="4.3270" y="11.3033"
textLength="0.9690" font-size="1.2889" lengthAdjust="spacingAndGlyphs"
text-anchor="middle" opacity="0" stroke-opacity="0">3</text>
<g class="stroked-text"><desc>3</desc>
<path d="M4.0048 10.2963
L4.6032 10.2963
" />
<path d="M4.6032 10.2963
L4.2810 10.6646
" />
<path d="M4.2810 10.6646
L4.4191 10.6646
" />
<path d="M4.4191 10.6646
L4.5111 10.7106
" />
<path d="M4.5111 10.7106
L4.5572 10.7567
" />
<path d="M4.5572 10.7567
L4.6032 10.8487
" />
<path d="M4.6032 10.8487
L4.6032 11.0789
" />
<path d="M4.6032 11.0789
L4.5572 11.1709
" />
<path d="M4.5572 11.1709
L4.5111 11.2170
" />
<path d="M4.5111 11.2170
L4.4191 11.2630
" />
<path d="M4.4191 11.2630
L4.1429 11.2630
" />
<path d="M4.1429 11.2630
L4.0508 11.2170
" />
<path d="M4.0508 11.2170
L4.0048 11.1709
" />
</g><path style="fill:none; 
stroke:#585D84; stroke-width:0.0212; stroke-opacity:1; 
stroke-linecap:round; stroke-linejoin:round;fill:none"
d="M 4.9270,9.9700
5.0417,9.9778
5.2201,10.0221
5.3848,10.1038
5.5280,10.2190
5.6432,10.3622
5.7249,10.5269
5.7692,10.7052
5.7770,10.8200
5.7692,10.9347
5.7249,11.1131
5.6432,11.2778
5.5280,11.4210
5.3848,11.5362
5.2201,11.6179
5.0417,11.6622
4.9270,11.6700
3.7270,11.6700
3.6122,11.6622
3.4339,11.6179
3.2692,11.5362
3.1260,11.4210
3.0108,11.2778
2.9291,11.1131
2.8848,10.9347
2.8770,10.8200
2.8848,10.7052
2.9291,10.5269
3.0108,10.3622
3.1260,10.2190
3.2692,10.1038
3.4339,10.0221
3.6122,9.9778
3.7270,9.9700
Z" /> 
</g>
<g style="fill:none; 
stroke:#585D84; stroke-width:0.0806; stroke-opacity:1; 
stroke-linecap:round; stroke-linejoin:round;">
<text x="3.3270" y="13.8433"
textLength="0.9690" font-size="1.2889" lengthAdjust="spacingAndGlyphs"
text-anchor="middle" opacity="0" stroke-opacity="0">4</text>
<g class="stroked-text"><desc>4</desc>
<path d="M3.5111 13.1586
L3.5111 13.8030
" />
<path d="M3.2810 12.7903
L3.0508 13.4808
" />
<path d="M3.0508 13.4808
L3.6492 13.4808
" />
</g><path style="fill:none; 
stroke:#585D84; stroke-width:0.0212; stroke-opacity:1; 
stroke-linecap:round; stroke-linejoin:round;fill:none"
d="M 3.9270,12.5100
4.0417,12.5178
4.2201,12.5621
4.3848,12.6438
4.5280,12.7590
4.6432,12.9022
4.7249,13.0669
4.7692,13.2452
4.7770,13.3600
4.7692,13.4748
4.7249,13.6531
4.6432,13.8178
4.5280,13.9610
4.3848,14.0762
4.2201,14.1579
4.0417,14.2022
3.9270,14.2100
2.7270,14.2100
2.6122,14.2022
2.4339,14.1579
2.2692,14.0762
2.1260,13.9610
2.0108,13.8178
1.9291,13.6531
1.8848,13.4748
1.8770,13.3600
1.8848,13.2452
1.9291,13.0669
2.0108,12.9022
2.1260,12.7590
2.2692,12.6438
2.4339,12.5621
2.6122,12.5178
2.7270,12.5100
Z" /> 
</g>
<g style="fill:none; 
stroke:#585D84; stroke-width:0.0806; stroke-opacity:1; 
stroke-linecap:round; stroke-linejoin:round;">
<text x="4.3270" y="13.8433"
textLength="0.9690" font-size="1.2889" lengthAdjust="spacingAndGlyphs"
text-anchor="middle" opacity="0" stroke-opacity="0">4</text>
<g class="stroked-text"><desc>4</desc>
<path d="M4.5111 13.1586
L4.5111 13.8030
" />
<path d="M4.2810 12.7903
L4.0508 13.4808
" />
<path d="M4.0508 13.4808
L4.6492 13.4808
" />
</g><path style="fill:none; 
stroke:#585D84; stroke-width:0.0212; stroke-opacity:1; 
stroke-linecap:round; stroke-linejoin:round;fill:none"
d="M 4.9270,12.5100
5.0417,12.5178
5.2201,12.5621
5.3848,12.6438
5.5280,12.7590
5.6432,12.9022
5.7249,13.0669
5.7692,13.2452
5.7770,13.3600
5.7692,13.4748
5.7249,13.6531
5.6432,13.8178
5.5280,13.9610
5.3848,14.0762
5.2201,14.1579
5.0417,14.2022
4.9270,14.2100
3.7270,14.2100
3.6122,14.2022
3.4339,14.1579
3.2692,14.0762
3.1260,13.9610
3.0108,13.8178
2.9291,13.6531
2.8848,13.4748
2.8770,13.3600
2.8848,13.2452
2.9291,13.0669
3.0108,12.9022
3.1260,12.7590
3.2692,12.6438
3.4339,12.5621
3.6122,12.5178
3.7270,12.5100
Z" /> 
</g>
<g style="fill:none; 
stroke:#AFAFAF; stroke-width:0.1500; stroke-opacity:1; 
stroke-linecap:round; stroke-linejoin:round;">
<text x="21.9270" y="20.6500"
textLength="26.2024" font-size="1.3333" lengthAdjust="spacingAndGlyphs"
text-anchor="middle" opacity="0" stroke-opacity="0">OLED_Generic_128x32_64x128_I2C</text>
<g class="stroked-text"><desc>OLED_Generic_128x32_64x128_I2C</desc>
<path d="M9.3794 19.6048
L9.5699 19.6048
" />
<path d="M9.5699 19.6048
L9.6651 19.6524
" />
<path d="M9.6651 19.6524
L9.7603 19.7477
" />
<path d="M9.7603 19.7477
L9.8080 19.9382
" />
<path d="M9.8080 19.9382
L9.8080 20.2715
" />
<path d="M9.8080 20.2715
L9.7603 20.4620
" />
<path d="M9.7603 20.4620
L9.6651 20.5572
" />
<path d="M9.6651 20.5572
L9.5699 20.6048
" />
<path d="M9.5699 20.6048
L9.3794 20.6048
" />
<path d="M9.3794 20.6048
L9.2841 20.5572
" />
<path d="M9.2841 20.5572
L9.1889 20.4620
" />
<path d="M9.1889 20.4620
L9.1413 20.2715
" />
<path d="M9.1413 20.2715
L9.1413 19.9382
" />
<path d="M9.1413 19.9382
L9.1889 19.7477
" />
<path d="M9.1889 19.7477
L9.2841 19.6524
" />
<path d="M9.2841 19.6524
L9.3794 19.6048
" />
<path d="M10.7127 20.6048
L10.2365 20.6048
" />
<path d="M10.2365 20.6048
L10.2365 19.6048
" />
<path d="M11.0460 20.0810
L11.3794 20.0810
" />
<path d="M11.5222 20.6048
L11.0460 20.6048
" />
<path d="M11.0460 20.6048
L11.0460 19.6048
" />
<path d="M11.0460 19.6048
L11.5222 19.6048
" />
<path d="M11.9508 20.6048
L11.9508 19.6048
" />
<path d="M11.9508 19.6048
L12.1889 19.6048
" />
<path d="M12.1889 19.6048
L12.3318 19.6524
" />
<path d="M12.3318 19.6524
L12.4270 19.7477
" />
<path d="M12.4270 19.7477
L12.4746 19.8429
" />
<path d="M12.4746 19.8429
L12.5222 20.0334
" />
<path d="M12.5222 20.0334
L12.5222 20.1762
" />
<path d="M12.5222 20.1762
L12.4746 20.3667
" />
<path d="M12.4746 20.3667
L12.4270 20.4620
" />
<path d="M12.4270 20.4620
L12.3318 20.5572
" />
<path d="M12.3318 20.5572
L12.1889 20.6048
" />
<path d="M12.1889 20.6048
L11.9508 20.6048
" />
<path d="M12.7127 20.7001
L13.4746 20.7001
" />
<path d="M14.2365 19.6524
L14.1413 19.6048
" />
<path d="M14.1413 19.6048
L13.9984 19.6048
" />
<path d="M13.9984 19.6048
L13.8556 19.6524
" />
<path d="M13.8556 19.6524
L13.7603 19.7477
" />
<path d="M13.7603 19.7477
L13.7127 19.8429
" />
<path d="M13.7127 19.8429
L13.6651 20.0334
" />
<path d="M13.6651 20.0334
L13.6651 20.1762
" />
<path d="M13.6651 20.1762
L13.7127 20.3667
" />
<path d="M13.7127 20.3667
L13.7603 20.4620
" />
<path d="M13.7603 20.4620
L13.8556 20.5572
" />
<path d="M13.8556 20.5572
L13.9984 20.6048
" />
<path d="M13.9984 20.6048
L14.0937 20.6048
" />
<path d="M14.0937 20.6048
L14.2365 20.5572
" />
<path d="M14.2365 20.5572
L14.2841 20.5096
" />
<path d="M14.2841 20.5096
L14.2841 20.1762
" />
<path d="M14.2841 20.1762
L14.0937 20.1762
" />
<path d="M15.0937 20.5572
L14.9984 20.6048
" />
<path d="M14.9984 20.6048
L14.8080 20.6048
" />
<path d="M14.8080 20.6048
L14.7127 20.5572
" />
<path d="M14.7127 20.5572
L14.6651 20.4620
" />
<path d="M14.6651 20.4620
L14.6651 20.0810
" />
<path d="M14.6651 20.0810
L14.7127 19.9858
" />
<path d="M14.7127 19.9858
L14.8080 19.9382
" />
<path d="M14.8080 19.9382
L14.9984 19.9382
" />
<path d="M14.9984 19.9382
L15.0937 19.9858
" />
<path d="M15.0937 19.9858
L15.1413 20.0810
" />
<path d="M15.1413 20.0810
L15.1413 20.1762
" />
<path d="M15.1413 20.1762
L14.6651 20.2715
" />
<path d="M15.5699 19.9382
L15.5699 20.6048
" />
<path d="M15.5699 20.0334
L15.6175 19.9858
" />
<path d="M15.6175 19.9858
L15.7127 19.9382
" />
<path d="M15.7127 19.9382
L15.8556 19.9382
" />
<path d="M15.8556 19.9382
L15.9508 19.9858
" />
<path d="M15.9508 19.9858
L15.9984 20.0810
" />
<path d="M15.9984 20.0810
L15.9984 20.6048
" />
<path d="M16.8556 20.5572
L16.7603 20.6048
" />
<path d="M16.7603 20.6048
L16.5699 20.6048
" />
<path d="M16.5699 20.6048
L16.4746 20.5572
" />
<path d="M16.4746 20.5572
L16.4270 20.4620
" />
<path d="M16.4270 20.4620
L16.4270 20.0810
" />
<path d="M16.4270 20.0810
L16.4746 19.9858
" />
<path d="M16.4746 19.9858
L16.5699 19.9382
" />
<path d="M16.5699 19.9382
L16.7603 19.9382
" />
<path d="M16.7603 19.9382
L16.8556 19.9858
" />
<path d="M16.8556 19.9858
L16.9032 20.0810
" />
<path d="M16.9032 20.0810
L16.9032 20.1762
" />
<path d="M16.9032 20.1762
L16.4270 20.2715
" />
<path d="M17.3318 20.6048
L17.3318 19.9382
" />
<path d="M17.3318 20.1286
L17.3794 20.0334
" />
<path d="M17.3794 20.0334
L17.4270 19.9858
" />
<path d="M17.4270 19.9858
L17.5222 19.9382
" />
<path d="M17.5222 19.9382
L17.6175 19.9382
" />
<path d="M17.9508 20.6048
L17.9508 19.9382
" />
<path d="M17.9508 19.6048
L17.9032 19.6524
" />
<path d="M17.9032 19.6524
L17.9508 19.7001
" />
<path d="M17.9508 19.7001
L17.9984 19.6524
" />
<path d="M17.9984 19.6524
L17.9508 19.6048
" />
<path d="M17.9508 19.6048
L17.9508 19.7001
" />
<path d="M18.8556 20.5572
L18.7603 20.6048
" />
<path d="M18.7603 20.6048
L18.5699 20.6048
" />
<path d="M18.5699 20.6048
L18.4746 20.5572
" />
<path d="M18.4746 20.5572
L18.4270 20.5096
" />
<path d="M18.4270 20.5096
L18.3794 20.4143
" />
<path d="M18.3794 20.4143
L18.3794 20.1286
" />
<path d="M18.3794 20.1286
L18.4270 20.0334
" />
<path d="M18.4270 20.0334
L18.4746 19.9858
" />
<path d="M18.4746 19.9858
L18.5699 19.9382
" />
<path d="M18.5699 19.9382
L18.7603 19.9382
" />
<path d="M18.7603 19.9382
L18.8556 19.9858
" />
<path d="M19.0460 20.7001
L19.8080 20.7001
" />
<path d="M20.5699 20.6048
L19.9984 20.6048
" />
<path d="M20.2841 20.6048
L20.2841 19.6048
" />
<path d="M20.2841 19.6048
L20.1889 19.7477
" />
<path d="M20.1889 19.7477
L20.0937 19.8429
" />
<path d="M20.0937 19.8429
L19.9984 19.8905
" />
<path d="M20.9508 19.7001
L20.9984 19.6524
" />
<path d="M20.9984 19.6524
L21.0937 19.6048
" />
<path d="M21.0937 19.6048
L21.3318 19.6048
" />
<path d="M21.3318 19.6048
L21.4270 19.6524
" />
<path d="M21.4270 19.6524
L21.4746 19.7001
" />
<path d="M21.4746 19.7001
L21.5222 19.7953
" />
<path d="M21.5222 19.7953
L21.5222 19.8905
" />
<path d="M21.5222 19.8905
L21.4746 20.0334
" />
<path d="M21.4746 20.0334
L20.9032 20.6048
" />
<path d="M20.9032 20.6048
L21.5222 20.6048
" />
<path d="M22.0937 20.0334
L21.9984 19.9858
" />
<path d="M21.9984 19.9858
L21.9508 19.9382
" />
<path d="M21.9508 19.9382
L21.9032 19.8429
" />
<path d="M21.9032 19.8429
L21.9032 19.7953
" />
<path d="M21.9032 19.7953
L21.9508 19.7001
" />
<path d="M21.9508 19.7001
L21.9984 19.6524
" />
<path d="M21.9984 19.6524
L22.0937 19.6048
" />
<path d="M22.0937 19.6048
L22.2841 19.6048
" />
<path d="M22.2841 19.6048
L22.3794 19.6524
" />
<path d="M22.3794 19.6524
L22.4270 19.7001
" />
<path d="M22.4270 19.7001
L22.4746 19.7953
" />
<path d="M22.4746 19.7953
L22.4746 19.8429
" />
<path d="M22.4746 19.8429
L22.4270 19.9382
" />
<path d="M22.4270 19.9382
L22.3794 19.9858
" />
<path d="M22.3794 19.9858
L22.2841 20.0334
" />
<path d="M22.2841 20.0334
L22.0937 20.0334
" />
<path d="M22.0937 20.0334
L21.9984 20.0810
" />
<path d="M21.9984 20.0810
L21.9508 20.1286
" />
<path d="M21.9508 20.1286
L21.9032 20.2239
" />
<path d="M21.9032 20.2239
L21.9032 20.4143
" />
<path d="M21.9032 20.4143
L21.9508 20.5096
" />
<path d="M21.9508 20.5096
L21.9984 20.5572
" />
<path d="M21.9984 20.5572
L22.0937 20.6048
" />
<path d="M22.0937 20.6048
L22.2841 20.6048
" />
<path d="M22.2841 20.6048
L22.3794 20.5572
" />
<path d="M22.3794 20.5572
L22.4270 20.5096
" />
<path d="M22.4270 20.5096
L22.4746 20.4143
" />
<path d="M22.4746 20.4143
L22.4746 20.2239
" />
<path d="M22.4746 20.2239
L22.4270 20.1286
" />
<path d="M22.4270 20.1286
L22.3794 20.0810
" />
<path d="M22.3794 20.0810
L22.2841 20.0334
" />
<path d="M22.8080 20.6048
L23.3318 19.9382
" />
<path d="M22.8080 19.9382
L23.3318 20.6048
" />
<path d="M23.6175 19.6048
L24.2365 19.6048
" />
<path d="M24.2365 19.6048
L23.9032 19.9858
" />
<path d="M23.9032 19.9858
L24.0460 19.9858
" />
<path d="M24.0460 19.9858
L24.1413 20.0334
" />
<path d="M24.1413 20.0334
L24.1889 20.0810
" />
<path d="M24.1889 20.0810
L24.2365 20.1762
" />
<path d="M24.2365 20.1762
L24.2365 20.4143
" />
<path d="M24.2365 20.4143
L24.1889 20.5096
" />
<path d="M24.1889 20.5096
L24.1413 20.5572
" />
<path d="M24.1413 20.5572
L24.0460 20.6048
" />
<path d="M24.0460 20.6048
L23.7603 20.6048
" />
<path d="M23.7603 20.6048
L23.6651 20.5572
" />
<path d="M23.6651 20.5572
L23.6175 20.5096
" />
<path d="M24.6175 19.7001
L24.6651 19.6524
" />
<path d="M24.6651 19.6524
L24.7603 19.6048
" />
<path d="M24.7603 19.6048
L24.9984 19.6048
" />
<path d="M24.9984 19.6048
L25.0937 19.6524
" />
<path d="M25.0937 19.6524
L25.1413 19.7001
" />
<path d="M25.1413 19.7001
L25.1889 19.7953
" />
<path d="M25.1889 19.7953
L25.1889 19.8905
" />
<path d="M25.1889 19.8905
L25.1413 20.0334
" />
<path d="M25.1413 20.0334
L24.5699 20.6048
" />
<path d="M24.5699 20.6048
L25.1889 20.6048
" />
<path d="M25.3794 20.7001
L26.1413 20.7001
" />
<path d="M26.8080 19.6048
L26.6175 19.6048
" />
<path d="M26.6175 19.6048
L26.5222 19.6524
" />
<path d="M26.5222 19.6524
L26.4746 19.7001
" />
<path d="M26.4746 19.7001
L26.3794 19.8429
" />
<path d="M26.3794 19.8429
L26.3318 20.0334
" />
<path d="M26.3318 20.0334
L26.3318 20.4143
" />
<path d="M26.3318 20.4143
L26.3794 20.5096
" />
<path d="M26.3794 20.5096
L26.4270 20.5572
" />
<path d="M26.4270 20.5572
L26.5222 20.6048
" />
<path d="M26.5222 20.6048
L26.7127 20.6048
" />
<path d="M26.7127 20.6048
L26.8080 20.5572
" />
<path d="M26.8080 20.5572
L26.8556 20.5096
" />
<path d="M26.8556 20.5096
L26.9032 20.4143
" />
<path d="M26.9032 20.4143
L26.9032 20.1762
" />
<path d="M26.9032 20.1762
L26.8556 20.0810
" />
<path d="M26.8556 20.0810
L26.8080 20.0334
" />
<path d="M26.8080 20.0334
L26.7127 19.9858
" />
<path d="M26.7127 19.9858
L26.5222 19.9858
" />
<path d="M26.5222 19.9858
L26.4270 20.0334
" />
<path d="M26.4270 20.0334
L26.3794 20.0810
" />
<path d="M26.3794 20.0810
L26.3318 20.1762
" />
<path d="M27.7603 19.9382
L27.7603 20.6048
" />
<path d="M27.5222 19.5572
L27.2841 20.2715
" />
<path d="M27.2841 20.2715
L27.9032 20.2715
" />
<path d="M28.1889 20.6048
L28.7127 19.9382
" />
<path d="M28.1889 19.9382
L28.7127 20.6048
" />
<path d="M29.6175 20.6048
L29.0460 20.6048
" />
<path d="M29.3318 20.6048
L29.3318 19.6048
" />
<path d="M29.3318 19.6048
L29.2365 19.7477
" />
<path d="M29.2365 19.7477
L29.1413 19.8429
" />
<path d="M29.1413 19.8429
L29.0460 19.8905
" />
<path d="M29.9984 19.7001
L30.0460 19.6524
" />
<path d="M30.0460 19.6524
L30.1413 19.6048
" />
<path d="M30.1413 19.6048
L30.3794 19.6048
" />
<path d="M30.3794 19.6048
L30.4746 19.6524
" />
<path d="M30.4746 19.6524
L30.5222 19.7001
" />
<path d="M30.5222 19.7001
L30.5699 19.7953
" />
<path d="M30.5699 19.7953
L30.5699 19.8905
" />
<path d="M30.5699 19.8905
L30.5222 20.0334
" />
<path d="M30.5222 20.0334
L29.9508 20.6048
" />
<path d="M29.9508 20.6048
L30.5699 20.6048
" />
<path d="M31.1413 20.0334
L31.0460 19.9858
" />
<path d="M31.0460 19.9858
L30.9984 19.9382
" />
<path d="M30.9984 19.9382
L30.9508 19.8429
" />
<path d="M30.9508 19.8429
L30.9508 19.7953
" />
<path d="M30.9508 19.7953
L30.9984 19.7001
" />
<path d="M30.9984 19.7001
L31.0460 19.6524
" />
<path d="M31.0460 19.6524
L31.1413 19.6048
" />
<path d="M31.1413 19.6048
L31.3318 19.6048
" />
<path d="M31.3318 19.6048
L31.4270 19.6524
" />
<path d="M31.4270 19.6524
L31.4746 19.7001
" />
<path d="M31.4746 19.7001
L31.5222 19.7953
" />
<path d="M31.5222 19.7953
L31.5222 19.8429
" />
<path d="M31.5222 19.8429
L31.4746 19.9382
" />
<path d="M31.4746 19.9382
L31.4270 19.9858
" />
<path d="M31.4270 19.9858
L31.3318 20.0334
" />
<path d="M31.3318 20.0334
L31.1413 20.0334
" />
<path d="M31.1413 20.0334
L31.0460 20.0810
" />
<path d="M31.0460 20.0810
L30.9984 20.1286
" />
<path d="M30.9984 20.1286
L30.9508 20.2239
" />
<path d="M30.9508 20.2239
L30.9508 20.4143
" />
<path d="M30.9508 20.4143
L30.9984 20.5096
" />
<path d="M30.9984 20.5096
L31.0460 20.5572
" />
<path d="M31.0460 20.5572
L31.1413 20.6048
" />
<path d="M31.1413 20.6048
L31.3318 20.6048
" />
<path d="M31.3318 20.6048
L31.4270 20.5572
" />
<path d="M31.4270 20.5572
L31.4746 20.5096
" />
<path d="M31.4746 20.5096
L31.5222 20.4143
" />
<path d="M31.5222 20.4143
L31.5222 20.2239
" />
<path d="M31.5222 20.2239
L31.4746 20.1286
" />
<path d="M31.4746 20.1286
L31.4270 20.0810
" />
<path d="M31.4270 20.0810
L31.3318 20.0334
" />
<path d="M31.7127 20.7001
L32.4746 20.7001
" />
<path d="M32.7127 20.6048
L32.7127 19.6048
" />
<path d="M33.1413 19.7001
L33.1889 19.6524
" />
<path d="M33.1889 19.6524
L33.2841 19.6048
" />
<path d="M33.2841 19.6048
L33.5222 19.6048
" />
<path d="M33.5222 19.6048
L33.6175 19.6524
" />
<path d="M33.6175 19.6524
L33.6651 19.7001
" />
<path d="M33.6651 19.7001
L33.7127 19.7953
" />
<path d="M33.7127 19.7953
L33.7127 19.8905
" />
<path d="M33.7127 19.8905
L33.6651 20.0334
" />
<path d="M33.6651 20.0334
L33.0937 20.6048
" />
<path d="M33.0937 20.6048
L33.7127 20.6048
" />
<path d="M34.7127 20.5096
L34.6651 20.5572
" />
<path d="M34.6651 20.5572
L34.5222 20.6048
" />
<path d="M34.5222 20.6048
L34.4270 20.6048
" />
<path d="M34.4270 20.6048
L34.2841 20.5572
" />
<path d="M34.2841 20.5572
L34.1889 20.4620
" />
<path d="M34.1889 20.4620
L34.1413 20.3667
" />
<path d="M34.1413 20.3667
L34.0937 20.1762
" />
<path d="M34.0937 20.1762
L34.0937 20.0334
" />
<path d="M34.0937 20.0334
L34.1413 19.8429
" />
<path d="M34.1413 19.8429
L34.1889 19.7477
" />
<path d="M34.1889 19.7477
L34.2841 19.6524
" />
<path d="M34.2841 19.6524
L34.4270 19.6048
" />
<path d="M34.4270 19.6048
L34.5222 19.6048
" />
<path d="M34.5222 19.6048
L34.6651 19.6524
" />
<path d="M34.6651 19.6524
L34.7127 19.7001
" />
</g><text x="21.9270" y="22.1500"
textLength="4.5357" font-size="1.3333" lengthAdjust="spacingAndGlyphs"
text-anchor="middle" opacity="0" stroke-opacity="0">REF**</text>
<g class="stroked-text"><desc>REF**</desc>
<path d="M20.5937 22.1048
L20.2603 21.6286
" />
<path d="M20.0222 22.1048
L20.0222 21.1048
" />
<path d="M20.0222 21.1048
L20.4032 21.1048
" />
<path d="M20.4032 21.1048
L20.4984 21.1524
" />
<path d="M20.4984 21.1524
L20.5460 21.2001
" />
<path d="M20.5460 21.2001
L20.5937 21.2953
" />
<path d="M20.5937 21.2953
L20.5937 21.4382
" />
<path d="M20.5937 21.4382
L20.5460 21.5334
" />
<path d="M20.5460 21.5334
L20.4984 21.5810
" />
<path d="M20.4984 21.5810
L20.4032 21.6286
" />
<path d="M20.4032 21.6286
L20.0222 21.6286
" />
<path d="M21.0222 21.5810
L21.3556 21.5810
" />
<path d="M21.4984 22.1048
L21.0222 22.1048
" />
<path d="M21.0222 22.1048
L21.0222 21.1048
" />
<path d="M21.0222 21.1048
L21.4984 21.1048
" />
<path d="M22.2603 21.5810
L21.9270 21.5810
" />
<path d="M21.9270 22.1048
L21.9270 21.1048
" />
<path d="M21.9270 21.1048
L22.4032 21.1048
" />
<path d="M22.9270 21.1048
L22.9270 21.3429
" />
<path d="M22.6889 21.2477
L22.9270 21.3429
" />
<path d="M22.9270 21.3429
L23.1651 21.2477
" />
<path d="M22.7841 21.5334
L22.9270 21.3429
" />
<path d="M22.9270 21.3429
L23.0699 21.5334
" />
<path d="M23.6889 21.1048
L23.6889 21.3429
" />
<path d="M23.4508 21.2477
L23.6889 21.3429
" />
<path d="M23.6889 21.3429
L23.9270 21.2477
" />
<path d="M23.5460 21.5334
L23.6889 21.3429
" />
<path d="M23.6889 21.3429
L23.8318 21.5334
" />
</g><path style="fill:none; 
stroke:#AFAFAF; stroke-width:0.1000; stroke-opacity:1; 
stroke-linecap:round; stroke-linejoin:round;fill:none"
d="M 1.2270,0.0500
43.2270,0.0500
43.2270,19.0500
1.2270,19.0500
Z" /> 
<path style="fill:none; 
stroke:#AFAFAF; stroke-width:0.1000; stroke-opacity:1; 
stroke-linecap:round; stroke-linejoin:round;fill:none"
d="M 3.6270,3.5500
41.6270,3.5500
41.6270,15.5500
3.6270,15.5500
Z" /> 
<path style="fill:none; 
stroke:#AFAFAF; stroke-width:0.1000; stroke-opacity:1; 
stroke-linecap:round; stroke-linejoin:round;fill:none"
d="M 5.7270,1.0000
41.5270,1.0000
41.5270,18.1000
5.7270,18.1000
Z" /> 
</g>
<g style="fill:none; 
stroke:#AFAFAF; stroke-width:0.1000; stroke-opacity:1; 
stroke-linecap:round; stroke-linejoin:round;">
<path d="M6.9270 1.9000
L8.0270 1.9000
" />
<path d="M8.4270 1.9000
L9.5270 1.9000
" />
<path d="M9.9270 1.9000
L11.0270 1.9000
" />
<path d="M11.4270 1.9000
L12.5270 1.9000
" />
<path d="M12.9270 1.9000
L14.0270 1.9000
" />
<path d="M14.4270 1.9000
L15.5270 1.9000
" />
<path d="M15.9270 1.9000
L17.0270 1.9000
" />
<path d="M17.4270 1.9000
L18.5270 1.9000
" />
<path d="M18.9270 1.9000
L20.0270 1.9000
" />
<path d="M20.4270 1.9000
L21.5270 1.9000
" />
<path d="M21.9270 1.9000
L23.0270 1.9000
" />
<path d="M23.4270 1.9000
L24.5270 1.9000
" />
<path d="M24.9270 1.9000
L26.0270 1.9000
" />
<path d="M26.4270 1.9000
L27.5270 1.9000
" />
<path d="M27.9270 1.9000
L29.0270 1.9000
" />
<path d="M29.4270 1.9000
L30.5270 1.9000
" />
<path d="M30.9270 1.9000
L32.0270 1.9000
" />
<path d="M32.4270 1.9000
L33.5270 1.9000
" />
<path d="M33.9270 1.9000
L35.0270 1.9000
" />
<path d="M35.4270 1.9000
L36.5270 1.9000
" />
</g>
<g style="fill:#AFAFAF; fill-opacity:1.0000; stroke:none;">
<circle cx="36.9270" cy="1.9000" r="0.0500" /> 
</g>
<g style="fill:none; 
stroke:#AFAFAF; stroke-width:0.1000; stroke-opacity:1; 
stroke-linecap:round; stroke-linejoin:round;">
<path d="M36.9270 1.9000
L36.9270 3.0000
" />
<path d="M36.9270 3.4000
L36.9270 4.5000
" />
<path d="M36.9270 4.9000
L36.9270 6.0000
" />
<path d="M36.9270 6.4000
L36.9270 7.5000
" />
<path d="M36.9270 7.9000
L36.9270 9.0000
" />
<path d="M36.9270 9.4000
L36.9270 10.5000
" />
<path d="M36.9270 10.9000
L36.9270 12.0000
" />
<path d="M36.9270 12.4000
L36.9270 13.5000
" />
<path d="M36.9270 13.9000
L36.9270 15.0000
" />
<path d="M36.9270 15.4000
L36.9270 16.5000
" />
<path d="M36.9270 16.9000
L36.9270 17.2000
" />
<path d="M36.9270 17.2000
L35.8270 17.2000
" />
<path d="M35.4270 17.2000
L34.3270 17.2000
" />
<path d="M33.9270 17.2000
L32.8270 17.2000
" />
<path d="M32.4270 17.2000
L31.3270 17.2000
" />
<path d="M30.9270 17.2000
L29.8270 17.2000
" />
<path d="M29.4270 17.2000
L28.3270 17.2000
" />
<path d="M27.9270 17.2000
L26.8270 17.2000
" />
<path d="M26.4270 17.2000
L25.3270 17.2000
" />
<path d="M24.9270 17.2000
L23.8270 17.2000
" />
<path d="M23.4270 17.2000
L22.3270 17.2000
" />
<path d="M21.9270 17.2000
L20.8270 17.2000
" />
<path d="M20.4270 17.2000
L19.3270 17.2000
" />
<path d="M18.9270 17.2000
L17.8270 17.2000
" />
<path d="M17.4270 17.2000
L16.3270 17.2000
" />
<path d="M15.9270 17.2000
L14.8270 17.2000
" />
<path d="M14.4270 17.2000
L13.3270 17.2000
" />
<path d="M12.9270 17.2000
L11.8270 17.2000
" />
<path d="M11.4270 17.2000
L10.3270 17.2000
" />
<path d="M9.9270 17.2000
L8.8270 17.2000
" />
<path d="M8.4270 17.2000
L7.3270 17.2000
" />
</g>
<g style="fill:#AFAFAF; fill-opacity:1.0000; stroke:none;">
<circle cx="6.9270" cy="17.2000" r="0.0500" /> 
</g>
<g style="fill:none; 
stroke:#AFAFAF; stroke-width:0.1000; stroke-opacity:1; 
stroke-linecap:round; stroke-linejoin:round;">
<path d="M6.9270 17.2000
L6.9270 16.1000
" />
<path d="M6.9270 15.7000
L6.9270 14.6000
" />
<path d="M6.9270 14.2000
L6.9270 13.1000
" />
<path d="M6.9270 12.7000
L6.9270 11.6000
" />
<path d="M6.9270 11.2000
L6.9270 10.1000
" />
<path d="M6.9270 9.7000
L6.9270 8.6000
" />
<path d="M6.9270 8.2000
L6.9270 7.1000
" />
<path d="M6.9270 6.7000
L6.9270 5.6000
" />
<path d="M6.9270 5.2000
L6.9270 4.1000
" />
<path d="M6.9270 3.7000
L6.9270 2.6000
" />
<path d="M6.9270 2.2000
L6.9270 1.9000
" />
<path style="fill:none; 
stroke:#AFAFAF; stroke-width:0.1000; stroke-opacity:1; 
stroke-linecap:round; stroke-linejoin:round;fill:none"
d="M 8.6270,4.0500
38.6270,4.0500
38.6270,15.5500
8.6270,15.5500
Z" /> 
<path d="M9.7370 6.0100
L10.8370 6.0100
" />
<path d="M11.2370 6.0100
L12.3370 6.0100
" />
<path d="M12.7370 6.0100
L13.8370 6.0100
" />
<path d="M14.2370 6.0100
L15.3370 6.0100
" />
<path d="M15.7370 6.0100
L16.8370 6.0100
" />
<path d="M17.2370 6.0100
L18.3370 6.0100
" />
<path d="M18.7370 6.0100
L19.8370 6.0100
" />
<path d="M20.2370 6.0100
L21.3370 6.0100
" />
<path d="M21.7370 6.0100
L22.8370 6.0100
" />
<path d="M23.2370 6.0100
L24.3370 6.0100
" />
<path d="M24.7370 6.0100
L25.8370 6.0100
" />
<path d="M26.2370 6.0100
L27.3370 6.0100
" />
<path d="M27.7370 6.0100
L28.8370 6.0100
" />
<path d="M29.2370 6.0100
L30.3370 6.0100
" />
<path d="M30.7370 6.0100
L31.8370 6.0100
" />
<path d="M32.2370 6.0100
L33.3370 6.0100
" />
<path d="M33.7370 6.0100
L34.1170 6.0100
" />
<path d="M34.1170 6.0100
L34.1170 7.1100
" />
<path d="M34.1170 7.5100
L34.1170 8.6100
" />
<path d="M34.1170 9.0100
L34.1170 10.1100
" />
<path d="M34.1170 10.5100
L34.1170 11.6100
" />
<path d="M34.1170 12.0100
L34.1170 13.1100
" />
<path d="M34.1170 13.5100
L34.1170 13.5900
" />
<path d="M34.1170 13.5900
L33.0170 13.5900
" />
<path d="M32.6170 13.5900
L31.5170 13.5900
" />
<path d="M31.1170 13.5900
L30.0170 13.5900
" />
<path d="M29.6170 13.5900
L28.5170 13.5900
" />
<path d="M28.1170 13.5900
L27.0170 13.5900
" />
<path d="M26.6170 13.5900
L25.5170 13.5900
" />
<path d="M25.1170 13.5900
L24.0170 13.5900
" />
<path d="M23.6170 13.5900
L22.5170 13.5900
" />
<path d="M22.1170 13.5900
L21.0170 13.5900
" />
<path d="M20.6170 13.5900
L19.5170 13.5900
" />
<path d="M19.1170 13.5900
L18.0170 13.5900
" />
<path d="M17.6170 13.5900
L16.5170 13.5900
" />
<path d="M16.1170 13.5900
L15.0170 13.5900
" />
<path d="M14.6170 13.5900
L13.5170 13.5900
" />
<path d="M13.1170 13.5900
L12.0170 13.5900
" />
<path d="M11.6170 13.5900
L10.5170 13.5900
" />
<path d="M10.1170 13.5900
L9.7370 13.5900
" />
<path d="M9.7370 13.5900
L9.7370 12.4900
" />
<path d="M9.7370 12.0900
L9.7370 10.9900
" />
<path d="M9.7370 10.5900
L9.7370 9.4900
" />
<path d="M9.7370 9.0900
L9.7370 7.9900
" />
<path d="M9.7370 7.5900
L9.7370 6.4900
" />
<path d="M9.7370 6.0900
L9.7370 6.0100
" />
<circle cx="3.2270" cy="2.0500" r="1.1000" /> 
<circle cx="3.2270" cy="17.0500" r="1.1000" /> 
</g>
<g style="fill:none; 
stroke:#AFAFAF; stroke-width:0.0806; stroke-opacity:1; 
stroke-linecap:round; stroke-linejoin:round;">
<text x="3.3270" y="6.2233"
textLength="0.9690" font-size="1.2889" lengthAdjust="spacingAndGlyphs"
text-anchor="middle" opacity="0" stroke-opacity="0">1</text>
<g class="stroked-text"><desc>1</desc>
<path d="M3.6032 6.1830
L3.0508 6.1830
" />
<path d="M3.3270 6.1830
L3.3270 5.2163
" />
<path d="M3.3270 5.2163
L3.2349 5.3544
" />
<path d="M3.2349 5.3544
L3.1429 5.4465
" />
<path d="M3.1429 5.4465
L3.0508 5.4925
" />
</g><path style="fill:none; 
stroke:#AFAFAF; stroke-width:0.0212; stroke-opacity:1; 
stroke-linecap:round; stroke-linejoin:round;fill:none"
d="M 3.9270,4.8900
4.0417,4.8978
4.2201,4.9421
4.3848,5.0238
4.5280,5.1390
4.6432,5.2822
4.7249,5.4469
4.7692,5.6252
4.7770,5.7400
4.7692,5.8548
4.7249,6.0331
4.6432,6.1978
4.5280,6.3410
4.3848,6.4562
4.2201,6.5379
4.0417,6.5822
3.9270,6.5900
2.7270,6.5900
2.6122,6.5822
2.4339,6.5379
2.2692,6.4562
2.1260,6.3410
2.0108,6.1978
1.9291,6.0331
1.8848,5.8548
1.8770,5.7400
1.8848,5.6252
1.9291,5.4469
2.0108,5.2822
2.1260,5.1390
2.2692,5.0238
2.4339,4.9421
2.6122,4.8978
2.7270,4.8900
Z" /> 
</g>
<g style="fill:none; 
stroke:#AFAFAF; stroke-width:0.0806; stroke-opacity:1; 
stroke-linecap:round; stroke-linejoin:round;">
<text x="4.3270" y="6.2233"
textLength="0.9690" font-size="1.2889" lengthAdjust="spacingAndGlyphs"
text-anchor="middle" opacity="0" stroke-opacity="0">1</text>
<g class="stroked-text"><desc>1</desc>
<path d="M4.6032 6.1830
L4.0508 6.1830
" />
<path d="M4.3270 6.1830
L4.3270 5.2163
" />
<path d="M4.3270 5.2163
L4.2349 5.3544
" />
<path d="M4.2349 5.3544
L4.1429 5.4465
" />
<path d="M4.1429 5.4465
L4.0508 5.4925
" />
</g><path style="fill:none; 
stroke:#AFAFAF; stroke-width:0.0212; stroke-opacity:1; 
stroke-linecap:round; stroke-linejoin:round;fill:none"
d="M 4.9270,4.8900
5.0417,4.8978
5.2201,4.9421
5.3848,5.0238
5.5280,5.1390
5.6432,5.2822
5.7249,5.4469
5.7692,5.6252
5.7770,5.7400
5.7692,5.8548
5.7249,6.0331
5.6432,6.1978
5.5280,6.3410
5.3848,6.4562
5.2201,6.5379
5.0417,6.5822
4.9270,6.5900
3.7270,6.5900
3.6122,6.5822
3.4339,6.5379
3.2692,6.4562
3.1260,6.3410
3.0108,6.1978
2.9291,6.0331
2.8848,5.8548
2.8770,5.7400
2.8848,5.6252
2.9291,5.4469
3.0108,5.2822
3.1260,5.1390
3.2692,5.0238
3.4339,4.9421
3.6122,4.8978
3.7270,4.8900
Z" /> 
</g>
<g style="fill:none; 
stroke:#AFAFAF; stroke-width:0.0806; stroke-opacity:1; 
stroke-linecap:round; stroke-linejoin:round;">
<text x="3.3270" y="8.7633"
textLength="0.9690" font-size="1.2889" lengthAdjust="spacingAndGlyphs"
text-anchor="middle" opacity="0" stroke-opacity="0">2</text>
<g class="stroked-text"><desc>2</desc>
<path d="M3.0508 7.8484
L3.0968 7.8024
" />
<path d="M3.0968 7.8024
L3.1889 7.7563
" />
<path d="M3.1889 7.7563
L3.4191 7.7563
" />
<path d="M3.4191 7.7563
L3.5111 7.8024
" />
<path d="M3.5111 7.8024
L3.5572 7.8484
" />
<path d="M3.5572 7.8484
L3.6032 7.9405
" />
<path d="M3.6032 7.9405
L3.6032 8.0325
" />
<path d="M3.6032 8.0325
L3.5572 8.1706
" />
<path d="M3.5572 8.1706
L3.0048 8.7230
" />
<path d="M3.0048 8.7230
L3.6032 8.7230
" />
</g><path style="fill:none; 
stroke:#AFAFAF; stroke-width:0.0212; stroke-opacity:1; 
stroke-linecap:round; stroke-linejoin:round;fill:none"
d="M 3.9270,7.4300
4.0417,7.4378
4.2201,7.4821
4.3848,7.5638
4.5280,7.6790
4.6432,7.8222
4.7249,7.9869
4.7692,8.1653
4.7770,8.2800
4.7692,8.3948
4.7249,8.5731
4.6432,8.7378
4.5280,8.8810
4.3848,8.9962
4.2201,9.0779
4.0417,9.1222
3.9270,9.1300
2.7270,9.1300
2.6122,9.1222
2.4339,9.0779
2.2692,8.9962
2.1260,8.8810
2.0108,8.7378
1.9291,8.5731
1.8848,8.3948
1.8770,8.2800
1.8848,8.1653
1.9291,7.9869
2.0108,7.8222
2.1260,7.6790
2.2692,7.5638
2.4339,7.4821
2.6122,7.4378
2.7270,7.4300
Z" /> 
</g>
<g style="fill:none; 
stroke:#AFAFAF; stroke-width:0.0806; stroke-opacity:1; 
stroke-linecap:round; stroke-linejoin:round;">
<text x="4.3270" y="8.7633"
textLength="0.9690" font-size="1.2889" lengthAdjust="spacingAndGlyphs"
text-anchor="middle" opacity="0" stroke-opacity="0">2</text>
<g class="stroked-text"><desc>2</desc>
<path d="M4.0508 7.8484
L4.0968 7.8024
" />
<path d="M4.0968 7.8024
L4.1889 7.7563
" />
<path d="M4.1889 7.7563
L4.4191 7.7563
" />
<path d="M4.4191 7.7563
L4.5111 7.8024
" />
<path d="M4.5111 7.8024
L4.5572 7.8484
" />
<path d="M4.5572 7.8484
L4.6032 7.9405
" />
<path d="M4.6032 7.9405
L4.6032 8.0325
" />
<path d="M4.6032 8.0325
L4.5572 8.1706
" />
<path d="M4.5572 8.1706
L4.0048 8.7230
" />
<path d="M4.0048 8.7230
L4.6032 8.7230
" />
</g><path style="fill:none; 
stroke:#AFAFAF; stroke-width:0.0212; stroke-opacity:1; 
stroke-linecap:round; stroke-linejoin:round;fill:none"
d="M 4.9270,7.4300
5.0417,7.4378
5.2201,7.4821
5.3848,7.5638
5.5280,7.6790
5.6432,7.8222
5.7249,7.9869
5.7692,8.1653
5.7770,8.2800
5.7692,8.3948
5.7249,8.5731
5.6432,8.7378
5.5280,8.8810
5.3848,8.9962
5.2201,9.0779
5.0417,9.1222
4.9270,9.1300
3.7270,9.1300
3.6122,9.1222
3.4339,9.0779
3.2692,8.9962
3.1260,8.8810
3.0108,8.7378
2.9291,8.5731
2.8848,8.3948
2.8770,8.2800
2.8848,8.1653
2.9291,7.9869
3.0108,7.8222
3.1260,7.6790
3.2692,7.5638
3.4339,7.4821
3.6122,7.4378
3.7270,7.4300
Z" /> 
</g>
<g style="fill:none; 
stroke:#AFAFAF; stroke-width:0.0806; stroke-opacity:1; 
stroke-linecap:round; stroke-linejoin:round;">
<text x="3.3270" y="11.3033"
textLength="0.9690" font-size="1.2889" lengthAdjust="spacingAndGlyphs"
text-anchor="middle" opacity="0" stroke-opacity="0">3</text>
<g class="stroked-text"><desc>3</desc>
<path d="M3.0048 10.2963
L3.6032 10.2963
" />
<path d="M3.6032 10.2963
L3.2810 10.6646
" />
<path d="M3.2810 10.6646
L3.4191 10.6646
" />
<path d="M3.4191 10.6646
L3.5111 10.7106
" />
<path d="M3.5111 10.7106
L3.5572 10.7567
" />
<path d="M3.5572 10.7567
L3.6032 10.8487
" />
<path d="M3.6032 10.8487
L3.6032 11.0789
" />
<path d="M3.6032 11.0789
L3.5572 11.1709
" />
<path d="M3.5572 11.1709
L3.5111 11.2170
" />
<path d="M3.5111 11.2170
L3.4191 11.2630
" />
<path d="M3.4191 11.2630
L3.1429 11.2630
" />
<path d="M3.1429 11.2630
L3.0508 11.2170
" />
<path d="M3.0508 11.2170
L3.0048 11.1709
" />
</g><path style="fill:none; 
stroke:#AFAFAF; stroke-width:0.0212; stroke-opacity:1; 
stroke-linecap:round; stroke-linejoin:round;fill:none"
d="M 3.9270,9.9700
4.0417,9.9778
4.2201,10.0221
4.3848,10.1038
4.5280,10.2190
4.6432,10.3622
4.7249,10.5269
4.7692,10.7052
4.7770,10.8200
4.7692,10.9347
4.7249,11.1131
4.6432,11.2778
4.5280,11.4210
4.3848,11.5362
4.2201,11.6179
4.0417,11.6622
3.9270,11.6700
2.7270,11.6700
2.6122,11.6622
2.4339,11.6179
2.2692,11.5362
2.1260,11.4210
2.0108,11.2778
1.9291,11.1131
1.8848,10.9347
1.8770,10.8200
1.8848,10.7052
1.9291,10.5269
2.0108,10.3622
2.1260,10.2190
2.2692,10.1038
2.4339,10.0221
2.6122,9.9778
2.7270,9.9700
Z" /> 
</g>
<g style="fill:none; 
stroke:#AFAFAF; stroke-width:0.0806; stroke-opacity:1; 
stroke-linecap:round; stroke-linejoin:round;">
<text x="4.3270" y="11.3033"
textLength="0.9690" font-size="1.2889" lengthAdjust="spacingAndGlyphs"
text-anchor="middle" opacity="0" stroke-opacity="0">3</text>
<g class="stroked-text"><desc>3</desc>
<path d="M4.0048 10.2963
L4.6032 10.2963
" />
<path d="M4.6032 10.2963
L4.2810 10.6646
" />
<path d="M4.2810 10.6646
L4.4191 10.6646
" />
<path d="M4.4191 10.6646
L4.5111 10.7106
" />
<path d="M4.5111 10.7106
L4.5572 10.7567
" />
<path d="M4.5572 10.7567
L4.6032 10.8487
" />
<path d="M4.6032 10.8487
L4.6032 11.0789
" />
<path d="M4.6032 11.0789
L4.5572 11.1709
" />
<path d="M4.5572 11.1709
L4.5111 11.2170
" />
<path d="M4.5111 11.2170
L4.4191 11.2630
" />
<path d="M4.4191 11.2630
L4.1429 11.2630
" />
<path d="M4.1429 11.2630
L4.0508 11.2170
" />
<path d="M4.0508 11.2170
L4.0048 11.1709
" />
</g><path style="fill:none; 
stroke:#AFAFAF; stroke-width:0.0212; stroke-opacity:1; 
stroke-linecap:round; stroke-linejoin:round;fill:none"
d="M 4.9270,9.9700
5.0417,9.9778
5.2201,10.0221
5.3848,10.1038
5.5280,10.2190
5.6432,10.3622
5.7249,10.5269
5.7692,10.7052
5.7770,10.8200
5.7692,10.9347
5.7249,11.1131
5.6432,11.2778
5.5280,11.4210
5.3848,11.5362
5.2201,11.6179
5.0417,11.6622
4.9270,11.6700
3.7270,11.6700
3.6122,11.6622
3.4339,11.6179
3.2692,11.5362
3.1260,11.4210
3.0108,11.2778
2.9291,11.1131
2.8848,10.9347
2.8770,10.8200
2.8848,10.7052
2.9291,10.5269
3.0108,10.3622
3.1260,10.2190
3.2692,10.1038
3.4339,10.0221
3.6122,9.9778
3.7270,9.9700
Z" /> 
</g>
<g style="fill:none; 
stroke:#AFAFAF; stroke-width:0.0806; stroke-opacity:1; 
stroke-linecap:round; stroke-linejoin:round;">
<text x="3.3270" y="13.8433"
textLength="0.9690" font-size="1.2889" lengthAdjust="spacingAndGlyphs"
text-anchor="middle" opacity="0" stroke-opacity="0">4</text>
<g class="stroked-text"><desc>4</desc>
<path d="M3.5111 13.1586
L3.5111 13.8030
" />
<path d="M3.2810 12.7903
L3.0508 13.4808
" />
<path d="M3.0508 13.4808
L3.6492 13.4808
" />
</g><path style="fill:none; 
stroke:#AFAFAF; stroke-width:0.0212; stroke-opacity:1; 
stroke-linecap:round; stroke-linejoin:round;fill:none"
d="M 3.9270,12.5100
4.0417,12.5178
4.2201,12.5621
4.3848,12.6438
4.5280,12.7590
4.6432,12.9022
4.7249,13.0669
4.7692,13.2452
4.7770,13.3600
4.7692,13.4748
4.7249,13.6531
4.6432,13.8178
4.5280,13.9610
4.3848,14.0762
4.2201,14.1579
4.0417,14.2022
3.9270,14.2100
2.7270,14.2100
2.6122,14.2022
2.4339,14.1579
2.2692,14.0762
2.1260,13.9610
2.0108,13.8178
1.9291,13.6531
1.8848,13.4748
1.8770,13.3600
1.8848,13.2452
1.9291,13.0669
2.0108,12.9022
2.1260,12.7590
2.2692,12.6438
2.4339,12.5621
2.6122,12.5178
2.7270,12.5100
Z" /> 
</g>
<g style="fill:none; 
stroke:#AFAFAF; stroke-width:0.0806; stroke-opacity:1; 
stroke-linecap:round; stroke-linejoin:round;">
<text x="4.3270" y="13.8433"
textLength="0.9690" font-size="1.2889" lengthAdjust="spacingAndGlyphs"
text-anchor="middle" opacity="0" stroke-opacity="0">4</text>
<g class="stroked-text"><desc>4</desc>
<path d="M4.5111 13.1586
L4.5111 13.8030
" />
<path d="M4.2810 12.7903
L4.0508 13.4808
" />
<path d="M4.0508 13.4808
L4.6492 13.4808
" />
</g><path style="fill:none; 
stroke:#AFAFAF; stroke-width:0.0212; stroke-opacity:1; 
stroke-linecap:round; stroke-linejoin:round;fill:none"
d="M 4.9270,12.5100
5.0417,12.5178
5.2201,12.5621
5.3848,12.6438
5.5280,12.7590
5.6432,12.9022
5.7249,13.0669
5.7692,13.2452
5.7770,13.3600
5.7692,13.4748
5.7249,13.6531
5.6432,13.8178
5.5280,13.9610
5.3848,14.0762
5.2201,14.1579
5.0417,14.2022
4.9270,14.2100
3.7270,14.2100
3.6122,14.2022
3.4339,14.1579
3.2692,14.0762
3.1260,13.9610
3.0108,13.8178
2.9291,13.6531
2.8848,13.4748
2.8770,13.3600
2.8848,13.2452
2.9291,13.0669
3.0108,12.9022
3.1260,12.7590
3.2692,12.6438
3.4339,12.5621
3.6122,12.5178
3.7270,12.5100
Z" /> 
<path style="fill:none; 
stroke:#C2C2C2; stroke-width:0.0500; stroke-opacity:1; 
stroke-linecap:round; stroke-linejoin:round;fill:none"
d="M 6.9270,1.9000
36.9270,1.9000
36.9270,17.2000
6.9270,17.2000
Z" /> 
<path style="fill:none; 
stroke:#C2C2C2; stroke-width:0.0500; stroke-opacity:1; 
stroke-linecap:round; stroke-linejoin:round;fill:none"
d="M 9.7370,6.0100
34.1170,6.0100
34.1170,13.5900
9.7370,13.5900
Z" /> 
</g> 
</svg>
