<?xml version="1.0" standalone="no"?>
 <!DOCTYPE svg PUBLIC "-//W3C//DTD SVG 1.1//EN" 
 "http://www.w3.org/Graphics/SVG/1.1/DTD/svg11.dtd"> 
<svg
  xmlns:svg="http://www.w3.org/2000/svg"
  xmlns="http://www.w3.org/2000/svg"
  xmlns:xlink="http://www.w3.org/1999/xlink"
  version="1.1"
  width="18.9484mm" height="21.6662mm" viewBox="0.0000 0.0000 18.9484 21.6662">
<title>SVG Image created as PMW3360DM-T2QU.svg date 2025/04/10 11:36:12 </title>
  <desc>Image generated by PCBNEW </desc>
<g style="fill:#000000; fill-opacity:1.0000;stroke:#000000; stroke-opacity:1.0000;
stroke-linecap:round; stroke-linejoin:round;"
 transform="translate(0 0) scale(1 1)">
</g>
<g style="fill:none; 
stroke:#F2EDA1; stroke-width:0.1500; stroke-opacity:1; 
stroke-linecap:round; stroke-linejoin:round;">
<text x="9.4750" y="1.6550"
textLength="4.5357" font-size="1.3333" lengthAdjust="spacingAndGlyphs"
text-anchor="middle" opacity="0" stroke-opacity="0">REF**</text>
<g class="stroked-text"><desc>REF**</desc>
<path d="M8.1417 1.6098
L7.8083 1.1336
" />
<path d="M7.5702 1.6098
L7.5702 0.6098
" />
<path d="M7.5702 0.6098
L7.9512 0.6098
" />
<path d="M7.9512 0.6098
L8.0464 0.6574
" />
<path d="M8.0464 0.6574
L8.0940 0.7051
" />
<path d="M8.0940 0.7051
L8.1417 0.8003
" />
<path d="M8.1417 0.8003
L8.1417 0.9432
" />
<path d="M8.1417 0.9432
L8.0940 1.0384
" />
<path d="M8.0940 1.0384
L8.0464 1.0860
" />
<path d="M8.0464 1.0860
L7.9512 1.1336
" />
<path d="M7.9512 1.1336
L7.5702 1.1336
" />
<path d="M8.5702 1.0860
L8.9036 1.0860
" />
<path d="M9.0464 1.6098
L8.5702 1.6098
" />
<path d="M8.5702 1.6098
L8.5702 0.6098
" />
<path d="M8.5702 0.6098
L9.0464 0.6098
" />
<path d="M9.8083 1.0860
L9.4750 1.0860
" />
<path d="M9.4750 1.6098
L9.4750 0.6098
" />
<path d="M9.4750 0.6098
L9.9512 0.6098
" />
<path d="M10.4750 0.6098
L10.4750 0.8479
" />
<path d="M10.2369 0.7527
L10.4750 0.8479
" />
<path d="M10.4750 0.8479
L10.7131 0.7527
" />
<path d="M10.3321 1.0384
L10.4750 0.8479
" />
<path d="M10.4750 0.8479
L10.6179 1.0384
" />
<path d="M11.2369 0.6098
L11.2369 0.8479
" />
<path d="M10.9988 0.7527
L11.2369 0.8479
" />
<path d="M11.2369 0.8479
L11.4750 0.7527
" />
<path d="M11.0940 1.0384
L11.2369 0.8479
" />
<path d="M11.2369 0.8479
L11.3798 1.0384
" />
</g></g>
<g style="fill:none; 
stroke:#F2EDA1; stroke-width:0.1200; stroke-opacity:1; 
stroke-linecap:round; stroke-linejoin:round;">
<path d="M4.8250 3.7150
L3.4250 3.7150
" />
<path style="fill:#C83434; fill-opacity:1.0000; stroke:none;fill-rule:evenodd;"
d="M 3.4250,4.4050
3.4357,4.3514
3.4660,4.3060
3.5114,4.2757
3.5650,4.2650
4.6850,4.2650
4.7386,4.2757
4.7840,4.3060
4.8143,4.3514
4.8250,4.4050
4.8250,5.5250
4.8143,5.5786
4.7840,5.6240
4.7386,5.6543
4.6850,5.6650
3.5650,5.6650
3.5114,5.6543
3.4660,5.6240
3.4357,5.5786
3.4250,5.5250
Z" /> 
</g>
<g style="fill:#C83434; fill-opacity:1.0000; stroke:none;">
<circle cx="4.1250" cy="6.7450" r="0.7000" /> 
</g>
<g style="fill:#C83434; fill-opacity:1.0000; stroke:none;">
<circle cx="4.1250" cy="8.5250" r="0.7000" /> 
</g>
<g style="fill:#C83434; fill-opacity:1.0000; stroke:none;">
<circle cx="4.1250" cy="10.3050" r="0.7000" /> 
</g>
<g style="fill:#C83434; fill-opacity:1.0000; stroke:none;">
<circle cx="4.1250" cy="12.0850" r="0.7000" /> 
</g>
<g style="fill:#C83434; fill-opacity:1.0000; stroke:none;">
<circle cx="4.1250" cy="13.8650" r="0.7000" /> 
</g>
<g style="fill:#C83434; fill-opacity:1.0000; stroke:none;">
<circle cx="4.1250" cy="15.6450" r="0.7000" /> 
</g>
<g style="fill:#C83434; fill-opacity:1.0000; stroke:none;">
<circle cx="4.1250" cy="17.4250" r="0.7000" /> 
</g>
<g style="fill:#C83434; fill-opacity:1.0000; stroke:none;">
<circle cx="14.8250" cy="18.3150" r="0.7000" /> 
</g>
<g style="fill:#C83434; fill-opacity:1.0000; stroke:none;">
<circle cx="14.8250" cy="16.5350" r="0.7000" /> 
</g>
<g style="fill:#C83434; fill-opacity:1.0000; stroke:none;">
<circle cx="14.8250" cy="14.7550" r="0.7000" /> 
</g>
<g style="fill:#C83434; fill-opacity:1.0000; stroke:none;">
<circle cx="14.8250" cy="12.9750" r="0.7000" /> 
</g>
<g style="fill:#C83434; fill-opacity:1.0000; stroke:none;">
<circle cx="14.8250" cy="11.1950" r="0.7000" /> 
</g>
<g style="fill:#C83434; fill-opacity:1.0000; stroke:none;">
<circle cx="14.8250" cy="9.4150" r="0.7000" /> 
</g>
<g style="fill:#C83434; fill-opacity:1.0000; stroke:none;">
<circle cx="14.8250" cy="7.6350" r="0.7000" /> 
</g>
<g style="fill:#C83434; fill-opacity:1.0000; stroke:none;">
<circle cx="14.8250" cy="5.8550" r="0.7000" /> 
<path style="fill:#4D7FC4; fill-opacity:1.0000; stroke:none;fill-rule:evenodd;"
d="M 3.4250,4.4050
3.4357,4.3514
3.4660,4.3060
3.5114,4.2757
3.5650,4.2650
4.6850,4.2650
4.7386,4.2757
4.7840,4.3060
4.8143,4.3514
4.8250,4.4050
4.8250,5.5250
4.8143,5.5786
4.7840,5.6240
4.7386,5.6543
4.6850,5.6650
3.5650,5.6650
3.5114,5.6543
3.4660,5.6240
3.4357,5.5786
3.4250,5.5250
Z" /> 
</g>
<g style="fill:#4D7FC4; fill-opacity:1.0000; stroke:none;">
<circle cx="4.1250" cy="6.7450" r="0.7000" /> 
</g>
<g style="fill:#4D7FC4; fill-opacity:1.0000; stroke:none;">
<circle cx="4.1250" cy="8.5250" r="0.7000" /> 
</g>
<g style="fill:#4D7FC4; fill-opacity:1.0000; stroke:none;">
<circle cx="4.1250" cy="10.3050" r="0.7000" /> 
</g>
<g style="fill:#4D7FC4; fill-opacity:1.0000; stroke:none;">
<circle cx="4.1250" cy="12.0850" r="0.7000" /> 
</g>
<g style="fill:#4D7FC4; fill-opacity:1.0000; stroke:none;">
<circle cx="4.1250" cy="13.8650" r="0.7000" /> 
</g>
<g style="fill:#4D7FC4; fill-opacity:1.0000; stroke:none;">
<circle cx="4.1250" cy="15.6450" r="0.7000" /> 
</g>
<g style="fill:#4D7FC4; fill-opacity:1.0000; stroke:none;">
<circle cx="4.1250" cy="17.4250" r="0.7000" /> 
</g>
<g style="fill:#4D7FC4; fill-opacity:1.0000; stroke:none;">
<circle cx="14.8250" cy="18.3150" r="0.7000" /> 
</g>
<g style="fill:#4D7FC4; fill-opacity:1.0000; stroke:none;">
<circle cx="14.8250" cy="16.5350" r="0.7000" /> 
</g>
<g style="fill:#4D7FC4; fill-opacity:1.0000; stroke:none;">
<circle cx="14.8250" cy="14.7550" r="0.7000" /> 
</g>
<g style="fill:#4D7FC4; fill-opacity:1.0000; stroke:none;">
<circle cx="14.8250" cy="12.9750" r="0.7000" /> 
</g>
<g style="fill:#4D7FC4; fill-opacity:1.0000; stroke:none;">
<circle cx="14.8250" cy="11.1950" r="0.7000" /> 
</g>
<g style="fill:#4D7FC4; fill-opacity:1.0000; stroke:none;">
<circle cx="14.8250" cy="9.4150" r="0.7000" /> 
</g>
<g style="fill:#4D7FC4; fill-opacity:1.0000; stroke:none;">
<circle cx="14.8250" cy="7.6350" r="0.7000" /> 
</g>
<g style="fill:#4D7FC4; fill-opacity:1.0000; stroke:none;">
<circle cx="14.8250" cy="5.8550" r="0.7000" /> 
</g>
<g style="fill:none; 
stroke:#AFAFAF; stroke-width:0.1500; stroke-opacity:1; 
stroke-linecap:round; stroke-linejoin:round;">
<text x="9.4750" y="21.3400"
textLength="13.8690" font-size="1.3333" lengthAdjust="spacingAndGlyphs"
text-anchor="middle" opacity="0" stroke-opacity="0">PMW3360DM‐T2QU</text>
<g class="stroked-text"><desc>PMW3360DM‐T2QU</desc>
<path d="M2.9036 21.2948
L2.9036 20.2948
" />
<path d="M2.9036 20.2948
L3.2845 20.2948
" />
<path d="M3.2845 20.2948
L3.3798 20.3424
" />
<path d="M3.3798 20.3424
L3.4274 20.3901
" />
<path d="M3.4274 20.3901
L3.4750 20.4853
" />
<path d="M3.4750 20.4853
L3.4750 20.6282
" />
<path d="M3.4750 20.6282
L3.4274 20.7234
" />
<path d="M3.4274 20.7234
L3.3798 20.7710
" />
<path d="M3.3798 20.7710
L3.2845 20.8186
" />
<path d="M3.2845 20.8186
L2.9036 20.8186
" />
<path d="M3.9036 21.2948
L3.9036 20.2948
" />
<path d="M3.9036 20.2948
L4.2369 21.0091
" />
<path d="M4.2369 21.0091
L4.5702 20.2948
" />
<path d="M4.5702 20.2948
L4.5702 21.2948
" />
<path d="M4.9512 20.2948
L5.1893 21.2948
" />
<path d="M5.1893 21.2948
L5.3798 20.5805
" />
<path d="M5.3798 20.5805
L5.5702 21.2948
" />
<path d="M5.5702 21.2948
L5.8083 20.2948
" />
<path d="M6.0940 20.2948
L6.7131 20.2948
" />
<path d="M6.7131 20.2948
L6.3798 20.6758
" />
<path d="M6.3798 20.6758
L6.5226 20.6758
" />
<path d="M6.5226 20.6758
L6.6179 20.7234
" />
<path d="M6.6179 20.7234
L6.6655 20.7710
" />
<path d="M6.6655 20.7710
L6.7131 20.8662
" />
<path d="M6.7131 20.8662
L6.7131 21.1043
" />
<path d="M6.7131 21.1043
L6.6655 21.1996
" />
<path d="M6.6655 21.1996
L6.6179 21.2472
" />
<path d="M6.6179 21.2472
L6.5226 21.2948
" />
<path d="M6.5226 21.2948
L6.2369 21.2948
" />
<path d="M6.2369 21.2948
L6.1417 21.2472
" />
<path d="M6.1417 21.2472
L6.0940 21.1996
" />
<path d="M7.0464 20.2948
L7.6655 20.2948
" />
<path d="M7.6655 20.2948
L7.3321 20.6758
" />
<path d="M7.3321 20.6758
L7.4750 20.6758
" />
<path d="M7.4750 20.6758
L7.5702 20.7234
" />
<path d="M7.5702 20.7234
L7.6179 20.7710
" />
<path d="M7.6179 20.7710
L7.6655 20.8662
" />
<path d="M7.6655 20.8662
L7.6655 21.1043
" />
<path d="M7.6655 21.1043
L7.6179 21.1996
" />
<path d="M7.6179 21.1996
L7.5702 21.2472
" />
<path d="M7.5702 21.2472
L7.4750 21.2948
" />
<path d="M7.4750 21.2948
L7.1893 21.2948
" />
<path d="M7.1893 21.2948
L7.0940 21.2472
" />
<path d="M7.0940 21.2472
L7.0464 21.1996
" />
<path d="M8.5226 20.2948
L8.3321 20.2948
" />
<path d="M8.3321 20.2948
L8.2369 20.3424
" />
<path d="M8.2369 20.3424
L8.1893 20.3901
" />
<path d="M8.1893 20.3901
L8.0940 20.5329
" />
<path d="M8.0940 20.5329
L8.0464 20.7234
" />
<path d="M8.0464 20.7234
L8.0464 21.1043
" />
<path d="M8.0464 21.1043
L8.0940 21.1996
" />
<path d="M8.0940 21.1996
L8.1417 21.2472
" />
<path d="M8.1417 21.2472
L8.2369 21.2948
" />
<path d="M8.2369 21.2948
L8.4274 21.2948
" />
<path d="M8.4274 21.2948
L8.5226 21.2472
" />
<path d="M8.5226 21.2472
L8.5702 21.1996
" />
<path d="M8.5702 21.1996
L8.6179 21.1043
" />
<path d="M8.6179 21.1043
L8.6179 20.8662
" />
<path d="M8.6179 20.8662
L8.5702 20.7710
" />
<path d="M8.5702 20.7710
L8.5226 20.7234
" />
<path d="M8.5226 20.7234
L8.4274 20.6758
" />
<path d="M8.4274 20.6758
L8.2369 20.6758
" />
<path d="M8.2369 20.6758
L8.1417 20.7234
" />
<path d="M8.1417 20.7234
L8.0940 20.7710
" />
<path d="M8.0940 20.7710
L8.0464 20.8662
" />
<path d="M9.2369 20.2948
L9.3321 20.2948
" />
<path d="M9.3321 20.2948
L9.4274 20.3424
" />
<path d="M9.4274 20.3424
L9.4750 20.3901
" />
<path d="M9.4750 20.3901
L9.5226 20.4853
" />
<path d="M9.5226 20.4853
L9.5702 20.6758
" />
<path d="M9.5702 20.6758
L9.5702 20.9139
" />
<path d="M9.5702 20.9139
L9.5226 21.1043
" />
<path d="M9.5226 21.1043
L9.4750 21.1996
" />
<path d="M9.4750 21.1996
L9.4274 21.2472
" />
<path d="M9.4274 21.2472
L9.3321 21.2948
" />
<path d="M9.3321 21.2948
L9.2369 21.2948
" />
<path d="M9.2369 21.2948
L9.1417 21.2472
" />
<path d="M9.1417 21.2472
L9.0940 21.1996
" />
<path d="M9.0940 21.1996
L9.0464 21.1043
" />
<path d="M9.0464 21.1043
L8.9988 20.9139
" />
<path d="M8.9988 20.9139
L8.9988 20.6758
" />
<path d="M8.9988 20.6758
L9.0464 20.4853
" />
<path d="M9.0464 20.4853
L9.0940 20.3901
" />
<path d="M9.0940 20.3901
L9.1417 20.3424
" />
<path d="M9.1417 20.3424
L9.2369 20.2948
" />
<path d="M9.9988 21.2948
L9.9988 20.2948
" />
<path d="M9.9988 20.2948
L10.2369 20.2948
" />
<path d="M10.2369 20.2948
L10.3798 20.3424
" />
<path d="M10.3798 20.3424
L10.4750 20.4377
" />
<path d="M10.4750 20.4377
L10.5226 20.5329
" />
<path d="M10.5226 20.5329
L10.5702 20.7234
" />
<path d="M10.5702 20.7234
L10.5702 20.8662
" />
<path d="M10.5702 20.8662
L10.5226 21.0567
" />
<path d="M10.5226 21.0567
L10.4750 21.1520
" />
<path d="M10.4750 21.1520
L10.3798 21.2472
" />
<path d="M10.3798 21.2472
L10.2369 21.2948
" />
<path d="M10.2369 21.2948
L9.9988 21.2948
" />
<path d="M10.9988 21.2948
L10.9988 20.2948
" />
<path d="M10.9988 20.2948
L11.3321 21.0091
" />
<path d="M11.3321 21.0091
L11.6655 20.2948
" />
<path d="M11.6655 20.2948
L11.6655 21.2948
" />
<path d="M12.0464 20.9615
L12.3321 20.9615
" />
<path d="M12.5702 20.2948
L13.1417 20.2948
" />
<path d="M12.8560 21.2948
L12.8560 20.2948
" />
<path d="M13.4274 20.3901
L13.4750 20.3424
" />
<path d="M13.4750 20.3424
L13.5702 20.2948
" />
<path d="M13.5702 20.2948
L13.8083 20.2948
" />
<path d="M13.8083 20.2948
L13.9036 20.3424
" />
<path d="M13.9036 20.3424
L13.9512 20.3901
" />
<path d="M13.9512 20.3901
L13.9988 20.4853
" />
<path d="M13.9988 20.4853
L13.9988 20.5805
" />
<path d="M13.9988 20.5805
L13.9512 20.7234
" />
<path d="M13.9512 20.7234
L13.3798 21.2948
" />
<path d="M13.3798 21.2948
L13.9988 21.2948
" />
<path d="M15.0940 21.3901
L14.9988 21.3424
" />
<path d="M14.9988 21.3424
L14.9036 21.2472
" />
<path d="M14.9036 21.2472
L14.7607 21.1043
" />
<path d="M14.7607 21.1043
L14.6655 21.0567
" />
<path d="M14.6655 21.0567
L14.5702 21.0567
" />
<path d="M14.6179 21.2948
L14.5226 21.2472
" />
<path d="M14.5226 21.2472
L14.4274 21.1520
" />
<path d="M14.4274 21.1520
L14.3798 20.9615
" />
<path d="M14.3798 20.9615
L14.3798 20.6282
" />
<path d="M14.3798 20.6282
L14.4274 20.4377
" />
<path d="M14.4274 20.4377
L14.5226 20.3424
" />
<path d="M14.5226 20.3424
L14.6179 20.2948
" />
<path d="M14.6179 20.2948
L14.8083 20.2948
" />
<path d="M14.8083 20.2948
L14.9036 20.3424
" />
<path d="M14.9036 20.3424
L14.9988 20.4377
" />
<path d="M14.9988 20.4377
L15.0464 20.6282
" />
<path d="M15.0464 20.6282
L15.0464 20.9615
" />
<path d="M15.0464 20.9615
L14.9988 21.1520
" />
<path d="M14.9988 21.1520
L14.9036 21.2472
" />
<path d="M14.9036 21.2472
L14.8083 21.2948
" />
<path d="M14.8083 21.2948
L14.6179 21.2948
" />
<path d="M15.4750 20.2948
L15.4750 21.1043
" />
<path d="M15.4750 21.1043
L15.5226 21.1996
" />
<path d="M15.5226 21.1996
L15.5702 21.2472
" />
<path d="M15.5702 21.2472
L15.6655 21.2948
" />
<path d="M15.6655 21.2948
L15.8560 21.2948
" />
<path d="M15.8560 21.2948
L15.9512 21.2472
" />
<path d="M15.9512 21.2472
L15.9988 21.1996
" />
<path d="M15.9988 21.1996
L16.0464 21.1043
" />
<path d="M16.0464 21.1043
L16.0464 20.2948
" />
</g><text x="9.4750" y="12.3150"
textLength="4.5357" font-size="1.3333" lengthAdjust="spacingAndGlyphs"
text-anchor="middle" opacity="0" stroke-opacity="0">REF**</text>
<g class="stroked-text"><desc>REF**</desc>
<path d="M8.1417 12.2698
L7.8083 11.7936
" />
<path d="M7.5702 12.2698
L7.5702 11.2698
" />
<path d="M7.5702 11.2698
L7.9512 11.2698
" />
<path d="M7.9512 11.2698
L8.0464 11.3174
" />
<path d="M8.0464 11.3174
L8.0940 11.3651
" />
<path d="M8.0940 11.3651
L8.1417 11.4603
" />
<path d="M8.1417 11.4603
L8.1417 11.6032
" />
<path d="M8.1417 11.6032
L8.0940 11.6984
" />
<path d="M8.0940 11.6984
L8.0464 11.7460
" />
<path d="M8.0464 11.7460
L7.9512 11.7936
" />
<path d="M7.9512 11.7936
L7.5702 11.7936
" />
<path d="M8.5702 11.7460
L8.9036 11.7460
" />
<path d="M9.0464 12.2698
L8.5702 12.2698
" />
<path d="M8.5702 12.2698
L8.5702 11.2698
" />
<path d="M8.5702 11.2698
L9.0464 11.2698
" />
<path d="M9.8083 11.7460
L9.4750 11.7460
" />
<path d="M9.4750 12.2698
L9.4750 11.2698
" />
<path d="M9.4750 11.2698
L9.9512 11.2698
" />
<path d="M10.4750 11.2698
L10.4750 11.5079
" />
<path d="M10.2369 11.4127
L10.4750 11.5079
" />
<path d="M10.4750 11.5079
L10.7131 11.4127
" />
<path d="M10.3321 11.6984
L10.4750 11.5079
" />
<path d="M10.4750 11.5079
L10.6179 11.6984
" />
<path d="M11.2369 11.2698
L11.2369 11.5079
" />
<path d="M10.9988 11.4127
L11.2369 11.5079
" />
<path d="M11.2369 11.5079
L11.4750 11.4127
" />
<path d="M11.0940 11.6984
L11.2369 11.5079
" />
<path d="M11.2369 11.5079
L11.3798 11.6984
" />
</g><path style="fill:none; 
stroke:#AFAFAF; stroke-width:0.1000; stroke-opacity:1; 
stroke-linecap:round; stroke-linejoin:round;fill:none"
d="M 4.9250,3.7150
14.0250,3.7150
14.0250,19.9150
4.9250,19.9150
Z" /> 
</g>
<g style="fill:none; 
stroke:#AFAFAF; stroke-width:0.0389; stroke-opacity:1; 
stroke-linecap:round; stroke-linejoin:round;">
<text x="4.1250" y="5.1983"
textLength="0.4678" font-size="0.6222" lengthAdjust="spacingAndGlyphs"
text-anchor="middle" opacity="0" stroke-opacity="0">1</text>
<g class="stroked-text"><desc>1</desc>
<path d="M4.2583 5.1789
L3.9917 5.1789
" />
<path d="M4.1250 5.1789
L4.1250 4.7122
" />
<path d="M4.1250 4.7122
L4.0806 4.7789
" />
<path d="M4.0806 4.7789
L4.0361 4.8233
" />
<path d="M4.0361 4.8233
L3.9917 4.8455
" />
</g><path style="fill:none; 
stroke:#AFAFAF; stroke-width:0.0212; stroke-opacity:1; 
stroke-linecap:round; stroke-linejoin:round;fill:none"
d="M 3.4250,4.4050
3.4357,4.3514
3.4660,4.3060
3.5114,4.2757
3.5650,4.2650
4.6850,4.2650
4.7386,4.2757
4.7840,4.3060
4.8143,4.3514
4.8250,4.4050
4.8250,5.5250
4.8143,5.5786
4.7840,5.6240
4.7386,5.6543
4.6850,5.6650
3.5650,5.6650
3.5114,5.6543
3.4660,5.6240
3.4357,5.5786
3.4250,5.5250
Z" /> 
</g>
<g style="fill:none; 
stroke:#AFAFAF; stroke-width:0.0389; stroke-opacity:1; 
stroke-linecap:round; stroke-linejoin:round;">
<text x="4.1250" y="6.9783"
textLength="0.4678" font-size="0.6222" lengthAdjust="spacingAndGlyphs"
text-anchor="middle" opacity="0" stroke-opacity="0">2</text>
<g class="stroked-text"><desc>2</desc>
<path d="M3.9917 6.5366
L4.0139 6.5144
" />
<path d="M4.0139 6.5144
L4.0583 6.4922
" />
<path d="M4.0583 6.4922
L4.1694 6.4922
" />
<path d="M4.1694 6.4922
L4.2139 6.5144
" />
<path d="M4.2139 6.5144
L4.2361 6.5366
" />
<path d="M4.2361 6.5366
L4.2583 6.5811
" />
<path d="M4.2583 6.5811
L4.2583 6.6255
" />
<path d="M4.2583 6.6255
L4.2361 6.6922
" />
<path d="M4.2361 6.6922
L3.9694 6.9589
" />
<path d="M3.9694 6.9589
L4.2583 6.9589
" />
</g></g>
<g style="fill:none; 
stroke:#AFAFAF; stroke-width:0.0212; stroke-opacity:1; 
stroke-linecap:round; stroke-linejoin:round;">
<circle cx="4.1250" cy="6.7450" r="0.7000" /> 
</g>
<g style="fill:none; 
stroke:#AFAFAF; stroke-width:0.0389; stroke-opacity:1; 
stroke-linecap:round; stroke-linejoin:round;">
<text x="4.1250" y="8.7583"
textLength="0.4678" font-size="0.6222" lengthAdjust="spacingAndGlyphs"
text-anchor="middle" opacity="0" stroke-opacity="0">3</text>
<g class="stroked-text"><desc>3</desc>
<path d="M3.9694 8.2722
L4.2583 8.2722
" />
<path d="M4.2583 8.2722
L4.1028 8.4500
" />
<path d="M4.1028 8.4500
L4.1694 8.4500
" />
<path d="M4.1694 8.4500
L4.2139 8.4722
" />
<path d="M4.2139 8.4722
L4.2361 8.4944
" />
<path d="M4.2361 8.4944
L4.2583 8.5389
" />
<path d="M4.2583 8.5389
L4.2583 8.6500
" />
<path d="M4.2583 8.6500
L4.2361 8.6944
" />
<path d="M4.2361 8.6944
L4.2139 8.7166
" />
<path d="M4.2139 8.7166
L4.1694 8.7389
" />
<path d="M4.1694 8.7389
L4.0361 8.7389
" />
<path d="M4.0361 8.7389
L3.9917 8.7166
" />
<path d="M3.9917 8.7166
L3.9694 8.6944
" />
</g></g>
<g style="fill:none; 
stroke:#AFAFAF; stroke-width:0.0212; stroke-opacity:1; 
stroke-linecap:round; stroke-linejoin:round;">
<circle cx="4.1250" cy="8.5250" r="0.7000" /> 
</g>
<g style="fill:none; 
stroke:#AFAFAF; stroke-width:0.0389; stroke-opacity:1; 
stroke-linecap:round; stroke-linejoin:round;">
<text x="4.1250" y="10.5383"
textLength="0.4678" font-size="0.6222" lengthAdjust="spacingAndGlyphs"
text-anchor="middle" opacity="0" stroke-opacity="0">4</text>
<g class="stroked-text"><desc>4</desc>
<path d="M4.2139 10.2078
L4.2139 10.5189
" />
<path d="M4.1028 10.0300
L3.9917 10.3633
" />
<path d="M3.9917 10.3633
L4.2806 10.3633
" />
</g></g>
<g style="fill:none; 
stroke:#AFAFAF; stroke-width:0.0212; stroke-opacity:1; 
stroke-linecap:round; stroke-linejoin:round;">
<circle cx="4.1250" cy="10.3050" r="0.7000" /> 
</g>
<g style="fill:none; 
stroke:#AFAFAF; stroke-width:0.0389; stroke-opacity:1; 
stroke-linecap:round; stroke-linejoin:round;">
<text x="4.1250" y="12.3183"
textLength="0.4678" font-size="0.6222" lengthAdjust="spacingAndGlyphs"
text-anchor="middle" opacity="0" stroke-opacity="0">5</text>
<g class="stroked-text"><desc>5</desc>
<path d="M4.2361 11.8322
L4.0139 11.8322
" />
<path d="M4.0139 11.8322
L3.9917 12.0544
" />
<path d="M3.9917 12.0544
L4.0139 12.0322
" />
<path d="M4.0139 12.0322
L4.0583 12.0100
" />
<path d="M4.0583 12.0100
L4.1694 12.0100
" />
<path d="M4.1694 12.0100
L4.2139 12.0322
" />
<path d="M4.2139 12.0322
L4.2361 12.0544
" />
<path d="M4.2361 12.0544
L4.2583 12.0989
" />
<path d="M4.2583 12.0989
L4.2583 12.2100
" />
<path d="M4.2583 12.2100
L4.2361 12.2544
" />
<path d="M4.2361 12.2544
L4.2139 12.2766
" />
<path d="M4.2139 12.2766
L4.1694 12.2989
" />
<path d="M4.1694 12.2989
L4.0583 12.2989
" />
<path d="M4.0583 12.2989
L4.0139 12.2766
" />
<path d="M4.0139 12.2766
L3.9917 12.2544
" />
</g></g>
<g style="fill:none; 
stroke:#AFAFAF; stroke-width:0.0212; stroke-opacity:1; 
stroke-linecap:round; stroke-linejoin:round;">
<circle cx="4.1250" cy="12.0850" r="0.7000" /> 
</g>
<g style="fill:none; 
stroke:#AFAFAF; stroke-width:0.0389; stroke-opacity:1; 
stroke-linecap:round; stroke-linejoin:round;">
<text x="4.1250" y="14.0983"
textLength="0.4678" font-size="0.6222" lengthAdjust="spacingAndGlyphs"
text-anchor="middle" opacity="0" stroke-opacity="0">6</text>
<g class="stroked-text"><desc>6</desc>
<path d="M4.2139 13.6122
L4.1250 13.6122
" />
<path d="M4.1250 13.6122
L4.0806 13.6344
" />
<path d="M4.0806 13.6344
L4.0583 13.6566
" />
<path d="M4.0583 13.6566
L4.0139 13.7233
" />
<path d="M4.0139 13.7233
L3.9917 13.8122
" />
<path d="M3.9917 13.8122
L3.9917 13.9900
" />
<path d="M3.9917 13.9900
L4.0139 14.0344
" />
<path d="M4.0139 14.0344
L4.0361 14.0566
" />
<path d="M4.0361 14.0566
L4.0806 14.0789
" />
<path d="M4.0806 14.0789
L4.1694 14.0789
" />
<path d="M4.1694 14.0789
L4.2139 14.0566
" />
<path d="M4.2139 14.0566
L4.2361 14.0344
" />
<path d="M4.2361 14.0344
L4.2583 13.9900
" />
<path d="M4.2583 13.9900
L4.2583 13.8789
" />
<path d="M4.2583 13.8789
L4.2361 13.8344
" />
<path d="M4.2361 13.8344
L4.2139 13.8122
" />
<path d="M4.2139 13.8122
L4.1694 13.7900
" />
<path d="M4.1694 13.7900
L4.0806 13.7900
" />
<path d="M4.0806 13.7900
L4.0361 13.8122
" />
<path d="M4.0361 13.8122
L4.0139 13.8344
" />
<path d="M4.0139 13.8344
L3.9917 13.8789
" />
</g></g>
<g style="fill:none; 
stroke:#AFAFAF; stroke-width:0.0212; stroke-opacity:1; 
stroke-linecap:round; stroke-linejoin:round;">
<circle cx="4.1250" cy="13.8650" r="0.7000" /> 
</g>
<g style="fill:none; 
stroke:#AFAFAF; stroke-width:0.0389; stroke-opacity:1; 
stroke-linecap:round; stroke-linejoin:round;">
<text x="4.1250" y="15.8783"
textLength="0.4678" font-size="0.6222" lengthAdjust="spacingAndGlyphs"
text-anchor="middle" opacity="0" stroke-opacity="0">7</text>
<g class="stroked-text"><desc>7</desc>
<path d="M3.9694 15.3922
L4.2806 15.3922
" />
<path d="M4.2806 15.3922
L4.0806 15.8589
" />
</g></g>
<g style="fill:none; 
stroke:#AFAFAF; stroke-width:0.0212; stroke-opacity:1; 
stroke-linecap:round; stroke-linejoin:round;">
<circle cx="4.1250" cy="15.6450" r="0.7000" /> 
</g>
<g style="fill:none; 
stroke:#AFAFAF; stroke-width:0.0389; stroke-opacity:1; 
stroke-linecap:round; stroke-linejoin:round;">
<text x="4.1250" y="17.6583"
textLength="0.4678" font-size="0.6222" lengthAdjust="spacingAndGlyphs"
text-anchor="middle" opacity="0" stroke-opacity="0">8</text>
<g class="stroked-text"><desc>8</desc>
<path d="M4.0806 17.3722
L4.0361 17.3500
" />
<path d="M4.0361 17.3500
L4.0139 17.3278
" />
<path d="M4.0139 17.3278
L3.9917 17.2833
" />
<path d="M3.9917 17.2833
L3.9917 17.2611
" />
<path d="M3.9917 17.2611
L4.0139 17.2166
" />
<path d="M4.0139 17.2166
L4.0361 17.1944
" />
<path d="M4.0361 17.1944
L4.0806 17.1722
" />
<path d="M4.0806 17.1722
L4.1694 17.1722
" />
<path d="M4.1694 17.1722
L4.2139 17.1944
" />
<path d="M4.2139 17.1944
L4.2361 17.2166
" />
<path d="M4.2361 17.2166
L4.2583 17.2611
" />
<path d="M4.2583 17.2611
L4.2583 17.2833
" />
<path d="M4.2583 17.2833
L4.2361 17.3278
" />
<path d="M4.2361 17.3278
L4.2139 17.3500
" />
<path d="M4.2139 17.3500
L4.1694 17.3722
" />
<path d="M4.1694 17.3722
L4.0806 17.3722
" />
<path d="M4.0806 17.3722
L4.0361 17.3944
" />
<path d="M4.0361 17.3944
L4.0139 17.4166
" />
<path d="M4.0139 17.4166
L3.9917 17.4611
" />
<path d="M3.9917 17.4611
L3.9917 17.5500
" />
<path d="M3.9917 17.5500
L4.0139 17.5944
" />
<path d="M4.0139 17.5944
L4.0361 17.6166
" />
<path d="M4.0361 17.6166
L4.0806 17.6389
" />
<path d="M4.0806 17.6389
L4.1694 17.6389
" />
<path d="M4.1694 17.6389
L4.2139 17.6166
" />
<path d="M4.2139 17.6166
L4.2361 17.5944
" />
<path d="M4.2361 17.5944
L4.2583 17.5500
" />
<path d="M4.2583 17.5500
L4.2583 17.4611
" />
<path d="M4.2583 17.4611
L4.2361 17.4166
" />
<path d="M4.2361 17.4166
L4.2139 17.3944
" />
<path d="M4.2139 17.3944
L4.1694 17.3722
" />
</g></g>
<g style="fill:none; 
stroke:#AFAFAF; stroke-width:0.0212; stroke-opacity:1; 
stroke-linecap:round; stroke-linejoin:round;">
<circle cx="4.1250" cy="17.4250" r="0.7000" /> 
</g>
<g style="fill:none; 
stroke:#AFAFAF; stroke-width:0.0389; stroke-opacity:1; 
stroke-linecap:round; stroke-linejoin:round;">
<text x="14.8250" y="18.5483"
textLength="0.4678" font-size="0.6222" lengthAdjust="spacingAndGlyphs"
text-anchor="middle" opacity="0" stroke-opacity="0">9</text>
<g class="stroked-text"><desc>9</desc>
<path d="M14.7361 18.5289
L14.8250 18.5289
" />
<path d="M14.8250 18.5289
L14.8694 18.5066
" />
<path d="M14.8694 18.5066
L14.8917 18.4844
" />
<path d="M14.8917 18.4844
L14.9361 18.4178
" />
<path d="M14.9361 18.4178
L14.9583 18.3289
" />
<path d="M14.9583 18.3289
L14.9583 18.1511
" />
<path d="M14.9583 18.1511
L14.9361 18.1066
" />
<path d="M14.9361 18.1066
L14.9139 18.0844
" />
<path d="M14.9139 18.0844
L14.8694 18.0622
" />
<path d="M14.8694 18.0622
L14.7806 18.0622
" />
<path d="M14.7806 18.0622
L14.7361 18.0844
" />
<path d="M14.7361 18.0844
L14.7139 18.1066
" />
<path d="M14.7139 18.1066
L14.6917 18.1511
" />
<path d="M14.6917 18.1511
L14.6917 18.2622
" />
<path d="M14.6917 18.2622
L14.7139 18.3066
" />
<path d="M14.7139 18.3066
L14.7361 18.3289
" />
<path d="M14.7361 18.3289
L14.7806 18.3511
" />
<path d="M14.7806 18.3511
L14.8694 18.3511
" />
<path d="M14.8694 18.3511
L14.9139 18.3289
" />
<path d="M14.9139 18.3289
L14.9361 18.3066
" />
<path d="M14.9361 18.3066
L14.9583 18.2622
" />
</g></g>
<g style="fill:none; 
stroke:#AFAFAF; stroke-width:0.0212; stroke-opacity:1; 
stroke-linecap:round; stroke-linejoin:round;">
<circle cx="14.8250" cy="18.3150" r="0.7000" /> 
</g>
<g style="fill:none; 
stroke:#AFAFAF; stroke-width:0.0389; stroke-opacity:1; 
stroke-linecap:round; stroke-linejoin:round;">
<text x="14.8250" y="16.7683"
textLength="0.9122" font-size="0.6222" lengthAdjust="spacingAndGlyphs"
text-anchor="middle" opacity="0" stroke-opacity="0">10</text>
<g class="stroked-text"><desc>10</desc>
<path d="M14.7361 16.7489
L14.4694 16.7489
" />
<path d="M14.6028 16.7489
L14.6028 16.2822
" />
<path d="M14.6028 16.2822
L14.5583 16.3489
" />
<path d="M14.5583 16.3489
L14.5139 16.3933
" />
<path d="M14.5139 16.3933
L14.4694 16.4155
" />
<path d="M15.0250 16.2822
L15.0694 16.2822
" />
<path d="M15.0694 16.2822
L15.1139 16.3044
" />
<path d="M15.1139 16.3044
L15.1361 16.3266
" />
<path d="M15.1361 16.3266
L15.1583 16.3711
" />
<path d="M15.1583 16.3711
L15.1806 16.4600
" />
<path d="M15.1806 16.4600
L15.1806 16.5711
" />
<path d="M15.1806 16.5711
L15.1583 16.6600
" />
<path d="M15.1583 16.6600
L15.1361 16.7044
" />
<path d="M15.1361 16.7044
L15.1139 16.7266
" />
<path d="M15.1139 16.7266
L15.0694 16.7489
" />
<path d="M15.0694 16.7489
L15.0250 16.7489
" />
<path d="M15.0250 16.7489
L14.9806 16.7266
" />
<path d="M14.9806 16.7266
L14.9583 16.7044
" />
<path d="M14.9583 16.7044
L14.9361 16.6600
" />
<path d="M14.9361 16.6600
L14.9139 16.5711
" />
<path d="M14.9139 16.5711
L14.9139 16.4600
" />
<path d="M14.9139 16.4600
L14.9361 16.3711
" />
<path d="M14.9361 16.3711
L14.9583 16.3266
" />
<path d="M14.9583 16.3266
L14.9806 16.3044
" />
<path d="M14.9806 16.3044
L15.0250 16.2822
" />
</g></g>
<g style="fill:none; 
stroke:#AFAFAF; stroke-width:0.0212; stroke-opacity:1; 
stroke-linecap:round; stroke-linejoin:round;">
<circle cx="14.8250" cy="16.5350" r="0.7000" /> 
</g>
<g style="fill:none; 
stroke:#AFAFAF; stroke-width:0.0389; stroke-opacity:1; 
stroke-linecap:round; stroke-linejoin:round;">
<text x="14.8250" y="14.9883"
textLength="0.9122" font-size="0.6222" lengthAdjust="spacingAndGlyphs"
text-anchor="middle" opacity="0" stroke-opacity="0">11</text>
<g class="stroked-text"><desc>11</desc>
<path d="M14.7361 14.9689
L14.4694 14.9689
" />
<path d="M14.6028 14.9689
L14.6028 14.5022
" />
<path d="M14.6028 14.5022
L14.5583 14.5689
" />
<path d="M14.5583 14.5689
L14.5139 14.6133
" />
<path d="M14.5139 14.6133
L14.4694 14.6355
" />
<path d="M15.1806 14.9689
L14.9139 14.9689
" />
<path d="M15.0472 14.9689
L15.0472 14.5022
" />
<path d="M15.0472 14.5022
L15.0028 14.5689
" />
<path d="M15.0028 14.5689
L14.9583 14.6133
" />
<path d="M14.9583 14.6133
L14.9139 14.6355
" />
</g></g>
<g style="fill:none; 
stroke:#AFAFAF; stroke-width:0.0212; stroke-opacity:1; 
stroke-linecap:round; stroke-linejoin:round;">
<circle cx="14.8250" cy="14.7550" r="0.7000" /> 
</g>
<g style="fill:none; 
stroke:#AFAFAF; stroke-width:0.0389; stroke-opacity:1; 
stroke-linecap:round; stroke-linejoin:round;">
<text x="14.8250" y="13.2083"
textLength="0.9122" font-size="0.6222" lengthAdjust="spacingAndGlyphs"
text-anchor="middle" opacity="0" stroke-opacity="0">12</text>
<g class="stroked-text"><desc>12</desc>
<path d="M14.7361 13.1889
L14.4694 13.1889
" />
<path d="M14.6028 13.1889
L14.6028 12.7222
" />
<path d="M14.6028 12.7222
L14.5583 12.7889
" />
<path d="M14.5583 12.7889
L14.5139 12.8333
" />
<path d="M14.5139 12.8333
L14.4694 12.8555
" />
<path d="M14.9139 12.7666
L14.9361 12.7444
" />
<path d="M14.9361 12.7444
L14.9806 12.7222
" />
<path d="M14.9806 12.7222
L15.0917 12.7222
" />
<path d="M15.0917 12.7222
L15.1361 12.7444
" />
<path d="M15.1361 12.7444
L15.1583 12.7666
" />
<path d="M15.1583 12.7666
L15.1806 12.8111
" />
<path d="M15.1806 12.8111
L15.1806 12.8555
" />
<path d="M15.1806 12.8555
L15.1583 12.9222
" />
<path d="M15.1583 12.9222
L14.8917 13.1889
" />
<path d="M14.8917 13.1889
L15.1806 13.1889
" />
</g></g>
<g style="fill:none; 
stroke:#AFAFAF; stroke-width:0.0212; stroke-opacity:1; 
stroke-linecap:round; stroke-linejoin:round;">
<circle cx="14.8250" cy="12.9750" r="0.7000" /> 
</g>
<g style="fill:none; 
stroke:#AFAFAF; stroke-width:0.0389; stroke-opacity:1; 
stroke-linecap:round; stroke-linejoin:round;">
<text x="14.8250" y="11.4283"
textLength="0.9122" font-size="0.6222" lengthAdjust="spacingAndGlyphs"
text-anchor="middle" opacity="0" stroke-opacity="0">13</text>
<g class="stroked-text"><desc>13</desc>
<path d="M14.7361 11.4089
L14.4694 11.4089
" />
<path d="M14.6028 11.4089
L14.6028 10.9422
" />
<path d="M14.6028 10.9422
L14.5583 11.0089
" />
<path d="M14.5583 11.0089
L14.5139 11.0533
" />
<path d="M14.5139 11.0533
L14.4694 11.0755
" />
<path d="M14.8917 10.9422
L15.1806 10.9422
" />
<path d="M15.1806 10.9422
L15.0250 11.1200
" />
<path d="M15.0250 11.1200
L15.0917 11.1200
" />
<path d="M15.0917 11.1200
L15.1361 11.1422
" />
<path d="M15.1361 11.1422
L15.1583 11.1644
" />
<path d="M15.1583 11.1644
L15.1806 11.2089
" />
<path d="M15.1806 11.2089
L15.1806 11.3200
" />
<path d="M15.1806 11.3200
L15.1583 11.3644
" />
<path d="M15.1583 11.3644
L15.1361 11.3866
" />
<path d="M15.1361 11.3866
L15.0917 11.4089
" />
<path d="M15.0917 11.4089
L14.9583 11.4089
" />
<path d="M14.9583 11.4089
L14.9139 11.3866
" />
<path d="M14.9139 11.3866
L14.8917 11.3644
" />
</g></g>
<g style="fill:none; 
stroke:#AFAFAF; stroke-width:0.0212; stroke-opacity:1; 
stroke-linecap:round; stroke-linejoin:round;">
<circle cx="14.8250" cy="11.1950" r="0.7000" /> 
</g>
<g style="fill:none; 
stroke:#AFAFAF; stroke-width:0.0389; stroke-opacity:1; 
stroke-linecap:round; stroke-linejoin:round;">
<text x="14.8250" y="9.6483"
textLength="0.9122" font-size="0.6222" lengthAdjust="spacingAndGlyphs"
text-anchor="middle" opacity="0" stroke-opacity="0">14</text>
<g class="stroked-text"><desc>14</desc>
<path d="M14.7361 9.6289
L14.4694 9.6289
" />
<path d="M14.6028 9.6289
L14.6028 9.1622
" />
<path d="M14.6028 9.1622
L14.5583 9.2289
" />
<path d="M14.5583 9.2289
L14.5139 9.2733
" />
<path d="M14.5139 9.2733
L14.4694 9.2955
" />
<path d="M15.1361 9.3178
L15.1361 9.6289
" />
<path d="M15.0250 9.1400
L14.9139 9.4733
" />
<path d="M14.9139 9.4733
L15.2028 9.4733
" />
</g></g>
<g style="fill:none; 
stroke:#AFAFAF; stroke-width:0.0212; stroke-opacity:1; 
stroke-linecap:round; stroke-linejoin:round;">
<circle cx="14.8250" cy="9.4150" r="0.7000" /> 
</g>
<g style="fill:none; 
stroke:#AFAFAF; stroke-width:0.0389; stroke-opacity:1; 
stroke-linecap:round; stroke-linejoin:round;">
<text x="14.8250" y="7.8683"
textLength="0.9122" font-size="0.6222" lengthAdjust="spacingAndGlyphs"
text-anchor="middle" opacity="0" stroke-opacity="0">15</text>
<g class="stroked-text"><desc>15</desc>
<path d="M14.7361 7.8489
L14.4694 7.8489
" />
<path d="M14.6028 7.8489
L14.6028 7.3822
" />
<path d="M14.6028 7.3822
L14.5583 7.4489
" />
<path d="M14.5583 7.4489
L14.5139 7.4933
" />
<path d="M14.5139 7.4933
L14.4694 7.5155
" />
<path d="M15.1583 7.3822
L14.9361 7.3822
" />
<path d="M14.9361 7.3822
L14.9139 7.6044
" />
<path d="M14.9139 7.6044
L14.9361 7.5822
" />
<path d="M14.9361 7.5822
L14.9806 7.5600
" />
<path d="M14.9806 7.5600
L15.0917 7.5600
" />
<path d="M15.0917 7.5600
L15.1361 7.5822
" />
<path d="M15.1361 7.5822
L15.1583 7.6044
" />
<path d="M15.1583 7.6044
L15.1806 7.6489
" />
<path d="M15.1806 7.6489
L15.1806 7.7600
" />
<path d="M15.1806 7.7600
L15.1583 7.8044
" />
<path d="M15.1583 7.8044
L15.1361 7.8266
" />
<path d="M15.1361 7.8266
L15.0917 7.8489
" />
<path d="M15.0917 7.8489
L14.9806 7.8489
" />
<path d="M14.9806 7.8489
L14.9361 7.8266
" />
<path d="M14.9361 7.8266
L14.9139 7.8044
" />
</g></g>
<g style="fill:none; 
stroke:#AFAFAF; stroke-width:0.0212; stroke-opacity:1; 
stroke-linecap:round; stroke-linejoin:round;">
<circle cx="14.8250" cy="7.6350" r="0.7000" /> 
</g>
<g style="fill:none; 
stroke:#AFAFAF; stroke-width:0.0389; stroke-opacity:1; 
stroke-linecap:round; stroke-linejoin:round;">
<text x="14.8250" y="6.0883"
textLength="0.9122" font-size="0.6222" lengthAdjust="spacingAndGlyphs"
text-anchor="middle" opacity="0" stroke-opacity="0">16</text>
<g class="stroked-text"><desc>16</desc>
<path d="M14.7361 6.0689
L14.4694 6.0689
" />
<path d="M14.6028 6.0689
L14.6028 5.6022
" />
<path d="M14.6028 5.6022
L14.5583 5.6689
" />
<path d="M14.5583 5.6689
L14.5139 5.7133
" />
<path d="M14.5139 5.7133
L14.4694 5.7355
" />
<path d="M15.1361 5.6022
L15.0472 5.6022
" />
<path d="M15.0472 5.6022
L15.0028 5.6244
" />
<path d="M15.0028 5.6244
L14.9806 5.6466
" />
<path d="M14.9806 5.6466
L14.9361 5.7133
" />
<path d="M14.9361 5.7133
L14.9139 5.8022
" />
<path d="M14.9139 5.8022
L14.9139 5.9800
" />
<path d="M14.9139 5.9800
L14.9361 6.0244
" />
<path d="M14.9361 6.0244
L14.9583 6.0466
" />
<path d="M14.9583 6.0466
L15.0028 6.0689
" />
<path d="M15.0028 6.0689
L15.0917 6.0689
" />
<path d="M15.0917 6.0689
L15.1361 6.0466
" />
<path d="M15.1361 6.0466
L15.1583 6.0244
" />
<path d="M15.1583 6.0244
L15.1806 5.9800
" />
<path d="M15.1806 5.9800
L15.1806 5.8689
" />
<path d="M15.1806 5.8689
L15.1583 5.8244
" />
<path d="M15.1583 5.8244
L15.1361 5.8022
" />
<path d="M15.1361 5.8022
L15.0917 5.7800
" />
<path d="M15.0917 5.7800
L15.0028 5.7800
" />
<path d="M15.0028 5.7800
L14.9583 5.8022
" />
<path d="M14.9583 5.8022
L14.9361 5.8244
" />
<path d="M14.9361 5.8244
L14.9139 5.8689
" />
</g></g>
<g style="fill:none; 
stroke:#AFAFAF; stroke-width:0.0212; stroke-opacity:1; 
stroke-linecap:round; stroke-linejoin:round;">
<circle cx="14.8250" cy="5.8550" r="0.7000" /> 
</g>
<g style="fill:none; 
stroke:#585D84; stroke-width:0.1000; stroke-opacity:1; 
stroke-linecap:round; stroke-linejoin:round;">
<path d="M0.0500 14.1500
L0.0500 7.1000
" />
<path d="M7.9750 21.2000
L7.1000 21.2000
" />
<path d="M7.9750 21.4500
L7.9750 21.2000
" />
<path d="M10.9750 21.4500
L7.9750 21.4500
" />
<path d="M10.9750 21.4500
L10.9750 21.2000
" />
<path d="M11.8500 0.0500
L7.1000 0.0500
" />
<path d="M11.8500 21.2000
L10.9750 21.2000
" />
<path d="M18.9000 14.1500
L18.9000 7.1000
" />
<path d="M7.1000 0.0500 A7.0500 7.0500 0.0 0 0 0.0500 7.1000" />
<path d="M0.0500 14.1500 A7.0500 7.0500 0.0 0 0 7.1000 21.2000" />
<path d="M18.9000 7.1000 A7.0500 7.0500 0.0 0 0 11.8500 0.0500" />
<path d="M11.8500 21.2000 A7.0500 7.0500 0.0 0 0 18.9000 14.1500" />
</g>
<g style="fill:none; 
stroke:#585D84; stroke-width:0.0389; stroke-opacity:1; 
stroke-linecap:round; stroke-linejoin:round;">
<text x="4.1250" y="5.1983"
textLength="0.4678" font-size="0.6222" lengthAdjust="spacingAndGlyphs"
text-anchor="middle" opacity="0" stroke-opacity="0">1</text>
<g class="stroked-text"><desc>1</desc>
<path d="M4.2583 5.1789
L3.9917 5.1789
" />
<path d="M4.1250 5.1789
L4.1250 4.7122
" />
<path d="M4.1250 4.7122
L4.0806 4.7789
" />
<path d="M4.0806 4.7789
L4.0361 4.8233
" />
<path d="M4.0361 4.8233
L3.9917 4.8455
" />
</g><path style="fill:none; 
stroke:#585D84; stroke-width:0.0212; stroke-opacity:1; 
stroke-linecap:round; stroke-linejoin:round;fill:none"
d="M 3.4250,4.4050
3.4357,4.3514
3.4660,4.3060
3.5114,4.2757
3.5650,4.2650
4.6850,4.2650
4.7386,4.2757
4.7840,4.3060
4.8143,4.3514
4.8250,4.4050
4.8250,5.5250
4.8143,5.5786
4.7840,5.6240
4.7386,5.6543
4.6850,5.6650
3.5650,5.6650
3.5114,5.6543
3.4660,5.6240
3.4357,5.5786
3.4250,5.5250
Z" /> 
</g>
<g style="fill:none; 
stroke:#585D84; stroke-width:0.0389; stroke-opacity:1; 
stroke-linecap:round; stroke-linejoin:round;">
<text x="4.1250" y="6.9783"
textLength="0.4678" font-size="0.6222" lengthAdjust="spacingAndGlyphs"
text-anchor="middle" opacity="0" stroke-opacity="0">2</text>
<g class="stroked-text"><desc>2</desc>
<path d="M3.9917 6.5366
L4.0139 6.5144
" />
<path d="M4.0139 6.5144
L4.0583 6.4922
" />
<path d="M4.0583 6.4922
L4.1694 6.4922
" />
<path d="M4.1694 6.4922
L4.2139 6.5144
" />
<path d="M4.2139 6.5144
L4.2361 6.5366
" />
<path d="M4.2361 6.5366
L4.2583 6.5811
" />
<path d="M4.2583 6.5811
L4.2583 6.6255
" />
<path d="M4.2583 6.6255
L4.2361 6.6922
" />
<path d="M4.2361 6.6922
L3.9694 6.9589
" />
<path d="M3.9694 6.9589
L4.2583 6.9589
" />
</g></g>
<g style="fill:none; 
stroke:#585D84; stroke-width:0.0212; stroke-opacity:1; 
stroke-linecap:round; stroke-linejoin:round;">
<circle cx="4.1250" cy="6.7450" r="0.7000" /> 
</g>
<g style="fill:none; 
stroke:#585D84; stroke-width:0.0389; stroke-opacity:1; 
stroke-linecap:round; stroke-linejoin:round;">
<text x="4.1250" y="8.7583"
textLength="0.4678" font-size="0.6222" lengthAdjust="spacingAndGlyphs"
text-anchor="middle" opacity="0" stroke-opacity="0">3</text>
<g class="stroked-text"><desc>3</desc>
<path d="M3.9694 8.2722
L4.2583 8.2722
" />
<path d="M4.2583 8.2722
L4.1028 8.4500
" />
<path d="M4.1028 8.4500
L4.1694 8.4500
" />
<path d="M4.1694 8.4500
L4.2139 8.4722
" />
<path d="M4.2139 8.4722
L4.2361 8.4944
" />
<path d="M4.2361 8.4944
L4.2583 8.5389
" />
<path d="M4.2583 8.5389
L4.2583 8.6500
" />
<path d="M4.2583 8.6500
L4.2361 8.6944
" />
<path d="M4.2361 8.6944
L4.2139 8.7166
" />
<path d="M4.2139 8.7166
L4.1694 8.7389
" />
<path d="M4.1694 8.7389
L4.0361 8.7389
" />
<path d="M4.0361 8.7389
L3.9917 8.7166
" />
<path d="M3.9917 8.7166
L3.9694 8.6944
" />
</g></g>
<g style="fill:none; 
stroke:#585D84; stroke-width:0.0212; stroke-opacity:1; 
stroke-linecap:round; stroke-linejoin:round;">
<circle cx="4.1250" cy="8.5250" r="0.7000" /> 
</g>
<g style="fill:none; 
stroke:#585D84; stroke-width:0.0389; stroke-opacity:1; 
stroke-linecap:round; stroke-linejoin:round;">
<text x="4.1250" y="10.5383"
textLength="0.4678" font-size="0.6222" lengthAdjust="spacingAndGlyphs"
text-anchor="middle" opacity="0" stroke-opacity="0">4</text>
<g class="stroked-text"><desc>4</desc>
<path d="M4.2139 10.2078
L4.2139 10.5189
" />
<path d="M4.1028 10.0300
L3.9917 10.3633
" />
<path d="M3.9917 10.3633
L4.2806 10.3633
" />
</g></g>
<g style="fill:none; 
stroke:#585D84; stroke-width:0.0212; stroke-opacity:1; 
stroke-linecap:round; stroke-linejoin:round;">
<circle cx="4.1250" cy="10.3050" r="0.7000" /> 
</g>
<g style="fill:none; 
stroke:#585D84; stroke-width:0.0389; stroke-opacity:1; 
stroke-linecap:round; stroke-linejoin:round;">
<text x="4.1250" y="12.3183"
textLength="0.4678" font-size="0.6222" lengthAdjust="spacingAndGlyphs"
text-anchor="middle" opacity="0" stroke-opacity="0">5</text>
<g class="stroked-text"><desc>5</desc>
<path d="M4.2361 11.8322
L4.0139 11.8322
" />
<path d="M4.0139 11.8322
L3.9917 12.0544
" />
<path d="M3.9917 12.0544
L4.0139 12.0322
" />
<path d="M4.0139 12.0322
L4.0583 12.0100
" />
<path d="M4.0583 12.0100
L4.1694 12.0100
" />
<path d="M4.1694 12.0100
L4.2139 12.0322
" />
<path d="M4.2139 12.0322
L4.2361 12.0544
" />
<path d="M4.2361 12.0544
L4.2583 12.0989
" />
<path d="M4.2583 12.0989
L4.2583 12.2100
" />
<path d="M4.2583 12.2100
L4.2361 12.2544
" />
<path d="M4.2361 12.2544
L4.2139 12.2766
" />
<path d="M4.2139 12.2766
L4.1694 12.2989
" />
<path d="M4.1694 12.2989
L4.0583 12.2989
" />
<path d="M4.0583 12.2989
L4.0139 12.2766
" />
<path d="M4.0139 12.2766
L3.9917 12.2544
" />
</g></g>
<g style="fill:none; 
stroke:#585D84; stroke-width:0.0212; stroke-opacity:1; 
stroke-linecap:round; stroke-linejoin:round;">
<circle cx="4.1250" cy="12.0850" r="0.7000" /> 
</g>
<g style="fill:none; 
stroke:#585D84; stroke-width:0.0389; stroke-opacity:1; 
stroke-linecap:round; stroke-linejoin:round;">
<text x="4.1250" y="14.0983"
textLength="0.4678" font-size="0.6222" lengthAdjust="spacingAndGlyphs"
text-anchor="middle" opacity="0" stroke-opacity="0">6</text>
<g class="stroked-text"><desc>6</desc>
<path d="M4.2139 13.6122
L4.1250 13.6122
" />
<path d="M4.1250 13.6122
L4.0806 13.6344
" />
<path d="M4.0806 13.6344
L4.0583 13.6566
" />
<path d="M4.0583 13.6566
L4.0139 13.7233
" />
<path d="M4.0139 13.7233
L3.9917 13.8122
" />
<path d="M3.9917 13.8122
L3.9917 13.9900
" />
<path d="M3.9917 13.9900
L4.0139 14.0344
" />
<path d="M4.0139 14.0344
L4.0361 14.0566
" />
<path d="M4.0361 14.0566
L4.0806 14.0789
" />
<path d="M4.0806 14.0789
L4.1694 14.0789
" />
<path d="M4.1694 14.0789
L4.2139 14.0566
" />
<path d="M4.2139 14.0566
L4.2361 14.0344
" />
<path d="M4.2361 14.0344
L4.2583 13.9900
" />
<path d="M4.2583 13.9900
L4.2583 13.8789
" />
<path d="M4.2583 13.8789
L4.2361 13.8344
" />
<path d="M4.2361 13.8344
L4.2139 13.8122
" />
<path d="M4.2139 13.8122
L4.1694 13.7900
" />
<path d="M4.1694 13.7900
L4.0806 13.7900
" />
<path d="M4.0806 13.7900
L4.0361 13.8122
" />
<path d="M4.0361 13.8122
L4.0139 13.8344
" />
<path d="M4.0139 13.8344
L3.9917 13.8789
" />
</g></g>
<g style="fill:none; 
stroke:#585D84; stroke-width:0.0212; stroke-opacity:1; 
stroke-linecap:round; stroke-linejoin:round;">
<circle cx="4.1250" cy="13.8650" r="0.7000" /> 
</g>
<g style="fill:none; 
stroke:#585D84; stroke-width:0.0389; stroke-opacity:1; 
stroke-linecap:round; stroke-linejoin:round;">
<text x="4.1250" y="15.8783"
textLength="0.4678" font-size="0.6222" lengthAdjust="spacingAndGlyphs"
text-anchor="middle" opacity="0" stroke-opacity="0">7</text>
<g class="stroked-text"><desc>7</desc>
<path d="M3.9694 15.3922
L4.2806 15.3922
" />
<path d="M4.2806 15.3922
L4.0806 15.8589
" />
</g></g>
<g style="fill:none; 
stroke:#585D84; stroke-width:0.0212; stroke-opacity:1; 
stroke-linecap:round; stroke-linejoin:round;">
<circle cx="4.1250" cy="15.6450" r="0.7000" /> 
</g>
<g style="fill:none; 
stroke:#585D84; stroke-width:0.0389; stroke-opacity:1; 
stroke-linecap:round; stroke-linejoin:round;">
<text x="4.1250" y="17.6583"
textLength="0.4678" font-size="0.6222" lengthAdjust="spacingAndGlyphs"
text-anchor="middle" opacity="0" stroke-opacity="0">8</text>
<g class="stroked-text"><desc>8</desc>
<path d="M4.0806 17.3722
L4.0361 17.3500
" />
<path d="M4.0361 17.3500
L4.0139 17.3278
" />
<path d="M4.0139 17.3278
L3.9917 17.2833
" />
<path d="M3.9917 17.2833
L3.9917 17.2611
" />
<path d="M3.9917 17.2611
L4.0139 17.2166
" />
<path d="M4.0139 17.2166
L4.0361 17.1944
" />
<path d="M4.0361 17.1944
L4.0806 17.1722
" />
<path d="M4.0806 17.1722
L4.1694 17.1722
" />
<path d="M4.1694 17.1722
L4.2139 17.1944
" />
<path d="M4.2139 17.1944
L4.2361 17.2166
" />
<path d="M4.2361 17.2166
L4.2583 17.2611
" />
<path d="M4.2583 17.2611
L4.2583 17.2833
" />
<path d="M4.2583 17.2833
L4.2361 17.3278
" />
<path d="M4.2361 17.3278
L4.2139 17.3500
" />
<path d="M4.2139 17.3500
L4.1694 17.3722
" />
<path d="M4.1694 17.3722
L4.0806 17.3722
" />
<path d="M4.0806 17.3722
L4.0361 17.3944
" />
<path d="M4.0361 17.3944
L4.0139 17.4166
" />
<path d="M4.0139 17.4166
L3.9917 17.4611
" />
<path d="M3.9917 17.4611
L3.9917 17.5500
" />
<path d="M3.9917 17.5500
L4.0139 17.5944
" />
<path d="M4.0139 17.5944
L4.0361 17.6166
" />
<path d="M4.0361 17.6166
L4.0806 17.6389
" />
<path d="M4.0806 17.6389
L4.1694 17.6389
" />
<path d="M4.1694 17.6389
L4.2139 17.6166
" />
<path d="M4.2139 17.6166
L4.2361 17.5944
" />
<path d="M4.2361 17.5944
L4.2583 17.5500
" />
<path d="M4.2583 17.5500
L4.2583 17.4611
" />
<path d="M4.2583 17.4611
L4.2361 17.4166
" />
<path d="M4.2361 17.4166
L4.2139 17.3944
" />
<path d="M4.2139 17.3944
L4.1694 17.3722
" />
</g></g>
<g style="fill:none; 
stroke:#585D84; stroke-width:0.0212; stroke-opacity:1; 
stroke-linecap:round; stroke-linejoin:round;">
<circle cx="4.1250" cy="17.4250" r="0.7000" /> 
</g>
<g style="fill:none; 
stroke:#585D84; stroke-width:0.0389; stroke-opacity:1; 
stroke-linecap:round; stroke-linejoin:round;">
<text x="14.8250" y="18.5483"
textLength="0.4678" font-size="0.6222" lengthAdjust="spacingAndGlyphs"
text-anchor="middle" opacity="0" stroke-opacity="0">9</text>
<g class="stroked-text"><desc>9</desc>
<path d="M14.7361 18.5289
L14.8250 18.5289
" />
<path d="M14.8250 18.5289
L14.8694 18.5066
" />
<path d="M14.8694 18.5066
L14.8917 18.4844
" />
<path d="M14.8917 18.4844
L14.9361 18.4178
" />
<path d="M14.9361 18.4178
L14.9583 18.3289
" />
<path d="M14.9583 18.3289
L14.9583 18.1511
" />
<path d="M14.9583 18.1511
L14.9361 18.1066
" />
<path d="M14.9361 18.1066
L14.9139 18.0844
" />
<path d="M14.9139 18.0844
L14.8694 18.0622
" />
<path d="M14.8694 18.0622
L14.7806 18.0622
" />
<path d="M14.7806 18.0622
L14.7361 18.0844
" />
<path d="M14.7361 18.0844
L14.7139 18.1066
" />
<path d="M14.7139 18.1066
L14.6917 18.1511
" />
<path d="M14.6917 18.1511
L14.6917 18.2622
" />
<path d="M14.6917 18.2622
L14.7139 18.3066
" />
<path d="M14.7139 18.3066
L14.7361 18.3289
" />
<path d="M14.7361 18.3289
L14.7806 18.3511
" />
<path d="M14.7806 18.3511
L14.8694 18.3511
" />
<path d="M14.8694 18.3511
L14.9139 18.3289
" />
<path d="M14.9139 18.3289
L14.9361 18.3066
" />
<path d="M14.9361 18.3066
L14.9583 18.2622
" />
</g></g>
<g style="fill:none; 
stroke:#585D84; stroke-width:0.0212; stroke-opacity:1; 
stroke-linecap:round; stroke-linejoin:round;">
<circle cx="14.8250" cy="18.3150" r="0.7000" /> 
</g>
<g style="fill:none; 
stroke:#585D84; stroke-width:0.0389; stroke-opacity:1; 
stroke-linecap:round; stroke-linejoin:round;">
<text x="14.8250" y="16.7683"
textLength="0.9122" font-size="0.6222" lengthAdjust="spacingAndGlyphs"
text-anchor="middle" opacity="0" stroke-opacity="0">10</text>
<g class="stroked-text"><desc>10</desc>
<path d="M14.7361 16.7489
L14.4694 16.7489
" />
<path d="M14.6028 16.7489
L14.6028 16.2822
" />
<path d="M14.6028 16.2822
L14.5583 16.3489
" />
<path d="M14.5583 16.3489
L14.5139 16.3933
" />
<path d="M14.5139 16.3933
L14.4694 16.4155
" />
<path d="M15.0250 16.2822
L15.0694 16.2822
" />
<path d="M15.0694 16.2822
L15.1139 16.3044
" />
<path d="M15.1139 16.3044
L15.1361 16.3266
" />
<path d="M15.1361 16.3266
L15.1583 16.3711
" />
<path d="M15.1583 16.3711
L15.1806 16.4600
" />
<path d="M15.1806 16.4600
L15.1806 16.5711
" />
<path d="M15.1806 16.5711
L15.1583 16.6600
" />
<path d="M15.1583 16.6600
L15.1361 16.7044
" />
<path d="M15.1361 16.7044
L15.1139 16.7266
" />
<path d="M15.1139 16.7266
L15.0694 16.7489
" />
<path d="M15.0694 16.7489
L15.0250 16.7489
" />
<path d="M15.0250 16.7489
L14.9806 16.7266
" />
<path d="M14.9806 16.7266
L14.9583 16.7044
" />
<path d="M14.9583 16.7044
L14.9361 16.6600
" />
<path d="M14.9361 16.6600
L14.9139 16.5711
" />
<path d="M14.9139 16.5711
L14.9139 16.4600
" />
<path d="M14.9139 16.4600
L14.9361 16.3711
" />
<path d="M14.9361 16.3711
L14.9583 16.3266
" />
<path d="M14.9583 16.3266
L14.9806 16.3044
" />
<path d="M14.9806 16.3044
L15.0250 16.2822
" />
</g></g>
<g style="fill:none; 
stroke:#585D84; stroke-width:0.0212; stroke-opacity:1; 
stroke-linecap:round; stroke-linejoin:round;">
<circle cx="14.8250" cy="16.5350" r="0.7000" /> 
</g>
<g style="fill:none; 
stroke:#585D84; stroke-width:0.0389; stroke-opacity:1; 
stroke-linecap:round; stroke-linejoin:round;">
<text x="14.8250" y="14.9883"
textLength="0.9122" font-size="0.6222" lengthAdjust="spacingAndGlyphs"
text-anchor="middle" opacity="0" stroke-opacity="0">11</text>
<g class="stroked-text"><desc>11</desc>
<path d="M14.7361 14.9689
L14.4694 14.9689
" />
<path d="M14.6028 14.9689
L14.6028 14.5022
" />
<path d="M14.6028 14.5022
L14.5583 14.5689
" />
<path d="M14.5583 14.5689
L14.5139 14.6133
" />
<path d="M14.5139 14.6133
L14.4694 14.6355
" />
<path d="M15.1806 14.9689
L14.9139 14.9689
" />
<path d="M15.0472 14.9689
L15.0472 14.5022
" />
<path d="M15.0472 14.5022
L15.0028 14.5689
" />
<path d="M15.0028 14.5689
L14.9583 14.6133
" />
<path d="M14.9583 14.6133
L14.9139 14.6355
" />
</g></g>
<g style="fill:none; 
stroke:#585D84; stroke-width:0.0212; stroke-opacity:1; 
stroke-linecap:round; stroke-linejoin:round;">
<circle cx="14.8250" cy="14.7550" r="0.7000" /> 
</g>
<g style="fill:none; 
stroke:#585D84; stroke-width:0.0389; stroke-opacity:1; 
stroke-linecap:round; stroke-linejoin:round;">
<text x="14.8250" y="13.2083"
textLength="0.9122" font-size="0.6222" lengthAdjust="spacingAndGlyphs"
text-anchor="middle" opacity="0" stroke-opacity="0">12</text>
<g class="stroked-text"><desc>12</desc>
<path d="M14.7361 13.1889
L14.4694 13.1889
" />
<path d="M14.6028 13.1889
L14.6028 12.7222
" />
<path d="M14.6028 12.7222
L14.5583 12.7889
" />
<path d="M14.5583 12.7889
L14.5139 12.8333
" />
<path d="M14.5139 12.8333
L14.4694 12.8555
" />
<path d="M14.9139 12.7666
L14.9361 12.7444
" />
<path d="M14.9361 12.7444
L14.9806 12.7222
" />
<path d="M14.9806 12.7222
L15.0917 12.7222
" />
<path d="M15.0917 12.7222
L15.1361 12.7444
" />
<path d="M15.1361 12.7444
L15.1583 12.7666
" />
<path d="M15.1583 12.7666
L15.1806 12.8111
" />
<path d="M15.1806 12.8111
L15.1806 12.8555
" />
<path d="M15.1806 12.8555
L15.1583 12.9222
" />
<path d="M15.1583 12.9222
L14.8917 13.1889
" />
<path d="M14.8917 13.1889
L15.1806 13.1889
" />
</g></g>
<g style="fill:none; 
stroke:#585D84; stroke-width:0.0212; stroke-opacity:1; 
stroke-linecap:round; stroke-linejoin:round;">
<circle cx="14.8250" cy="12.9750" r="0.7000" /> 
</g>
<g style="fill:none; 
stroke:#585D84; stroke-width:0.0389; stroke-opacity:1; 
stroke-linecap:round; stroke-linejoin:round;">
<text x="14.8250" y="11.4283"
textLength="0.9122" font-size="0.6222" lengthAdjust="spacingAndGlyphs"
text-anchor="middle" opacity="0" stroke-opacity="0">13</text>
<g class="stroked-text"><desc>13</desc>
<path d="M14.7361 11.4089
L14.4694 11.4089
" />
<path d="M14.6028 11.4089
L14.6028 10.9422
" />
<path d="M14.6028 10.9422
L14.5583 11.0089
" />
<path d="M14.5583 11.0089
L14.5139 11.0533
" />
<path d="M14.5139 11.0533
L14.4694 11.0755
" />
<path d="M14.8917 10.9422
L15.1806 10.9422
" />
<path d="M15.1806 10.9422
L15.0250 11.1200
" />
<path d="M15.0250 11.1200
L15.0917 11.1200
" />
<path d="M15.0917 11.1200
L15.1361 11.1422
" />
<path d="M15.1361 11.1422
L15.1583 11.1644
" />
<path d="M15.1583 11.1644
L15.1806 11.2089
" />
<path d="M15.1806 11.2089
L15.1806 11.3200
" />
<path d="M15.1806 11.3200
L15.1583 11.3644
" />
<path d="M15.1583 11.3644
L15.1361 11.3866
" />
<path d="M15.1361 11.3866
L15.0917 11.4089
" />
<path d="M15.0917 11.4089
L14.9583 11.4089
" />
<path d="M14.9583 11.4089
L14.9139 11.3866
" />
<path d="M14.9139 11.3866
L14.8917 11.3644
" />
</g></g>
<g style="fill:none; 
stroke:#585D84; stroke-width:0.0212; stroke-opacity:1; 
stroke-linecap:round; stroke-linejoin:round;">
<circle cx="14.8250" cy="11.1950" r="0.7000" /> 
</g>
<g style="fill:none; 
stroke:#585D84; stroke-width:0.0389; stroke-opacity:1; 
stroke-linecap:round; stroke-linejoin:round;">
<text x="14.8250" y="9.6483"
textLength="0.9122" font-size="0.6222" lengthAdjust="spacingAndGlyphs"
text-anchor="middle" opacity="0" stroke-opacity="0">14</text>
<g class="stroked-text"><desc>14</desc>
<path d="M14.7361 9.6289
L14.4694 9.6289
" />
<path d="M14.6028 9.6289
L14.6028 9.1622
" />
<path d="M14.6028 9.1622
L14.5583 9.2289
" />
<path d="M14.5583 9.2289
L14.5139 9.2733
" />
<path d="M14.5139 9.2733
L14.4694 9.2955
" />
<path d="M15.1361 9.3178
L15.1361 9.6289
" />
<path d="M15.0250 9.1400
L14.9139 9.4733
" />
<path d="M14.9139 9.4733
L15.2028 9.4733
" />
</g></g>
<g style="fill:none; 
stroke:#585D84; stroke-width:0.0212; stroke-opacity:1; 
stroke-linecap:round; stroke-linejoin:round;">
<circle cx="14.8250" cy="9.4150" r="0.7000" /> 
</g>
<g style="fill:none; 
stroke:#585D84; stroke-width:0.0389; stroke-opacity:1; 
stroke-linecap:round; stroke-linejoin:round;">
<text x="14.8250" y="7.8683"
textLength="0.9122" font-size="0.6222" lengthAdjust="spacingAndGlyphs"
text-anchor="middle" opacity="0" stroke-opacity="0">15</text>
<g class="stroked-text"><desc>15</desc>
<path d="M14.7361 7.8489
L14.4694 7.8489
" />
<path d="M14.6028 7.8489
L14.6028 7.3822
" />
<path d="M14.6028 7.3822
L14.5583 7.4489
" />
<path d="M14.5583 7.4489
L14.5139 7.4933
" />
<path d="M14.5139 7.4933
L14.4694 7.5155
" />
<path d="M15.1583 7.3822
L14.9361 7.3822
" />
<path d="M14.9361 7.3822
L14.9139 7.6044
" />
<path d="M14.9139 7.6044
L14.9361 7.5822
" />
<path d="M14.9361 7.5822
L14.9806 7.5600
" />
<path d="M14.9806 7.5600
L15.0917 7.5600
" />
<path d="M15.0917 7.5600
L15.1361 7.5822
" />
<path d="M15.1361 7.5822
L15.1583 7.6044
" />
<path d="M15.1583 7.6044
L15.1806 7.6489
" />
<path d="M15.1806 7.6489
L15.1806 7.7600
" />
<path d="M15.1806 7.7600
L15.1583 7.8044
" />
<path d="M15.1583 7.8044
L15.1361 7.8266
" />
<path d="M15.1361 7.8266
L15.0917 7.8489
" />
<path d="M15.0917 7.8489
L14.9806 7.8489
" />
<path d="M14.9806 7.8489
L14.9361 7.8266
" />
<path d="M14.9361 7.8266
L14.9139 7.8044
" />
</g></g>
<g style="fill:none; 
stroke:#585D84; stroke-width:0.0212; stroke-opacity:1; 
stroke-linecap:round; stroke-linejoin:round;">
<circle cx="14.8250" cy="7.6350" r="0.7000" /> 
</g>
<g style="fill:none; 
stroke:#585D84; stroke-width:0.0389; stroke-opacity:1; 
stroke-linecap:round; stroke-linejoin:round;">
<text x="14.8250" y="6.0883"
textLength="0.9122" font-size="0.6222" lengthAdjust="spacingAndGlyphs"
text-anchor="middle" opacity="0" stroke-opacity="0">16</text>
<g class="stroked-text"><desc>16</desc>
<path d="M14.7361 6.0689
L14.4694 6.0689
" />
<path d="M14.6028 6.0689
L14.6028 5.6022
" />
<path d="M14.6028 5.6022
L14.5583 5.6689
" />
<path d="M14.5583 5.6689
L14.5139 5.7133
" />
<path d="M14.5139 5.7133
L14.4694 5.7355
" />
<path d="M15.1361 5.6022
L15.0472 5.6022
" />
<path d="M15.0472 5.6022
L15.0028 5.6244
" />
<path d="M15.0028 5.6244
L14.9806 5.6466
" />
<path d="M14.9806 5.6466
L14.9361 5.7133
" />
<path d="M14.9361 5.7133
L14.9139 5.8022
" />
<path d="M14.9139 5.8022
L14.9139 5.9800
" />
<path d="M14.9139 5.9800
L14.9361 6.0244
" />
<path d="M14.9361 6.0244
L14.9583 6.0466
" />
<path d="M14.9583 6.0466
L15.0028 6.0689
" />
<path d="M15.0028 6.0689
L15.0917 6.0689
" />
<path d="M15.0917 6.0689
L15.1361 6.0466
" />
<path d="M15.1361 6.0466
L15.1583 6.0244
" />
<path d="M15.1583 6.0244
L15.1806 5.9800
" />
<path d="M15.1806 5.9800
L15.1806 5.8689
" />
<path d="M15.1806 5.8689
L15.1583 5.8244
" />
<path d="M15.1583 5.8244
L15.1361 5.8022
" />
<path d="M15.1361 5.8022
L15.0917 5.7800
" />
<path d="M15.0917 5.7800
L15.0028 5.7800
" />
<path d="M15.0028 5.7800
L14.9583 5.8022
" />
<path d="M14.9583 5.8022
L14.9361 5.8244
" />
<path d="M14.9361 5.8244
L14.9139 5.8689
" />
</g></g>
<g style="fill:none; 
stroke:#585D84; stroke-width:0.0212; stroke-opacity:1; 
stroke-linecap:round; stroke-linejoin:round;">
<circle cx="14.8250" cy="5.8550" r="0.7000" /> 
<path style="fill:none; 
stroke:#D0D2CD; stroke-width:0.0500; stroke-opacity:1; 
stroke-linecap:round; stroke-linejoin:round;fill:none"
d="M 5.1750,2.1850
13.7750,2.1850
13.7750,19.4450
5.1750,19.4450
Z" /> 
</g>
<g style="fill:none; 
stroke:#C2C2C2; stroke-width:0.1200; stroke-opacity:1; 
stroke-linecap:round; stroke-linejoin:round;">
<path d="M7.4750 6.6250
L11.4750 6.6250
" />
<path d="M7.4750 10.6250
L7.4750 6.6250
" />
<path d="M11.4750 6.6250
L11.4750 10.6250
" />
<path d="M7.4750 10.6250 A2.0000 2.0000 0.0 0 0 11.4750 10.6250" />
<circle cx="9.4750" cy="10.6250" r="0.2500" /> 
</g> 
</svg>
