<svg xmlns="http://www.w3.org/2000/svg" width="71.616" height="81.888" viewBox="0 0 18.948 21.666">
    <g class="stroked-text" style="fill:none;stroke:#f2eda1;stroke-width:.15;stroke-opacity:1;stroke-linecap:round;stroke-linejoin:round">
        <path d="m8.142 1.61-.334-.476M7.57 1.61v-1M7.57.61h.381M7.951.61l.095.047M8.046.657l.048.048M8.094.705 8.142.8M8.142.8v.143M8.142.943l-.048.095M8.094 1.038l-.048.048M8.046 1.086l-.095.048M7.951 1.134h-.38M8.57 1.086h.334M9.046 1.61H8.57M8.57 1.61v-1M8.57.61h.476M9.808 1.086h-.333M9.475 1.61v-1M9.475.61h.476M10.475.61v.238M10.237.753l.238.095M10.475.848l.238-.095M10.332 1.038l.143-.19M10.475.848l.143.19M11.237.61v.238M10.999.753l.238.095M11.237.848l.238-.095M11.094 1.038l.143-.19M11.237.848l.143.19"/>
    </g>
    <g style="fill:none;stroke:#f2eda1;stroke-width:.12;stroke-opacity:1;stroke-linecap:round;stroke-linejoin:round">
        <path d="M4.825 3.715h-1.4"/>
        <path stroke="none" d="m3.425 4.405.01-.054.031-.045.045-.03.054-.011h1.12l.054.01.045.031.03.045.011.054v1.12l-.01.054-.031.045-.045.03-.054.011h-1.12l-.054-.01-.045-.031-.03-.045-.011-.054Z" style="fill:#4d7fc4;fill-opacity:1;stroke:none;fill-rule:evenodd"/>
    </g>
    <circle cx="4.125" cy="6.745" r=".7" style="fill:#4d7fc4;fill-opacity:1;stroke:none"/>
    <circle cx="4.125" cy="8.525" r=".7" style="fill:#4d7fc4;fill-opacity:1;stroke:none"/>
    <circle cx="4.125" cy="10.305" r=".7" style="fill:#4d7fc4;fill-opacity:1;stroke:none"/>
    <circle cx="4.125" cy="12.085" r=".7" style="fill:#4d7fc4;fill-opacity:1;stroke:none"/>
    <circle cx="4.125" cy="13.865" r=".7" style="fill:#4d7fc4;fill-opacity:1;stroke:none"/>
    <circle cx="4.125" cy="15.645" r=".7" style="fill:#4d7fc4;fill-opacity:1;stroke:none"/>
    <circle cx="4.125" cy="17.425" r=".7" style="fill:#4d7fc4;fill-opacity:1;stroke:none"/>
    <circle cx="14.825" cy="18.315" r=".7" style="fill:#4d7fc4;fill-opacity:1;stroke:none"/>
    <circle cx="14.825" cy="16.535" r=".7" style="fill:#4d7fc4;fill-opacity:1;stroke:none"/>
    <circle cx="14.825" cy="14.755" r=".7" style="fill:#4d7fc4;fill-opacity:1;stroke:none"/>
    <circle cx="14.825" cy="12.975" r=".7" style="fill:#4d7fc4;fill-opacity:1;stroke:none"/>
    <circle cx="14.825" cy="11.195" r=".7" style="fill:#4d7fc4;fill-opacity:1;stroke:none"/>
    <circle cx="14.825" cy="9.415" r=".7" style="fill:#4d7fc4;fill-opacity:1;stroke:none"/>
    <circle cx="14.825" cy="7.635" r=".7" style="fill:#4d7fc4;fill-opacity:1;stroke:none"/>
    <g style="fill:#4d7fc4;fill-opacity:1;stroke:none">
        <circle cx="14.825" cy="5.855" r=".7"/>
        <path d="m3.425 4.405.01-.054.031-.045.045-.03.054-.011h1.12l.054.01.045.031.03.045.011.054v1.12l-.01.054-.031.045-.045.03-.054.011h-1.12l-.054-.01-.045-.031-.03-.045-.011-.054Z" style="fill:#c83434;fill-opacity:1;stroke:none;fill-rule:evenodd"/>
    </g>
    <circle cx="4.125" cy="6.745" r=".7" style="fill:#c83434;fill-opacity:1;stroke:none"/>
    <circle cx="4.125" cy="8.525" r=".7" style="fill:#c83434;fill-opacity:1;stroke:none"/>
    <circle cx="4.125" cy="10.305" r=".7" style="fill:#c83434;fill-opacity:1;stroke:none"/>
    <circle cx="4.125" cy="12.085" r=".7" style="fill:#c83434;fill-opacity:1;stroke:none"/>
    <circle cx="4.125" cy="13.865" r=".7" style="fill:#c83434;fill-opacity:1;stroke:none"/>
    <circle cx="4.125" cy="15.645" r=".7" style="fill:#c83434;fill-opacity:1;stroke:none"/>
    <circle cx="4.125" cy="17.425" r=".7" style="fill:#c83434;fill-opacity:1;stroke:none"/>
    <circle cx="14.825" cy="18.315" r=".7" style="fill:#c83434;fill-opacity:1;stroke:none"/>
    <circle cx="14.825" cy="16.535" r=".7" style="fill:#c83434;fill-opacity:1;stroke:none"/>
    <circle cx="14.825" cy="14.755" r=".7" style="fill:#c83434;fill-opacity:1;stroke:none"/>
    <circle cx="14.825" cy="12.975" r=".7" style="fill:#c83434;fill-opacity:1;stroke:none"/>
    <circle cx="14.825" cy="11.195" r=".7" style="fill:#c83434;fill-opacity:1;stroke:none"/>
    <circle cx="14.825" cy="9.415" r=".7" style="fill:#c83434;fill-opacity:1;stroke:none"/>
    <circle cx="14.825" cy="7.635" r=".7" style="fill:#c83434;fill-opacity:1;stroke:none"/>
    <circle cx="14.825" cy="5.855" r=".7" style="fill:#c83434;fill-opacity:1;stroke:none"/>
    <g style="fill:none;stroke:#585d84;stroke-width:.1;stroke-opacity:1;stroke-linecap:round;stroke-linejoin:round">
        <path d="M.05 14.15V7.1M7.975 21.2H7.1M7.975 21.45v-.25M10.975 21.45h-3M10.975 21.45v-.25M11.85.05H7.1M11.85 21.2h-.875M18.9 14.15V7.1M7.1.05A7.05 7.05 0 0 0 .05 7.1M.05 14.15A7.05 7.05 0 0 0 7.1 21.2M18.9 7.1A7.05 7.05 0 0 0 11.85.05M11.85 21.2a7.05 7.05 0 0 0 7.05-7.05"/>
    </g>
    <g style="fill:none;stroke:#585d84;stroke-width:.0389;stroke-opacity:1;stroke-linecap:round;stroke-linejoin:round">
        <g class="stroked-text">
            <path d="M4.258 5.179h-.266M4.125 5.179v-.467M4.125 4.712l-.044.067M4.08 4.779l-.044.044M4.036 4.823l-.044.022"/>
        </g>
        <path d="m3.425 4.405.01-.054.031-.045.045-.03.054-.011h1.12l.054.01.045.031.03.045.011.054v1.12l-.01.054-.031.045-.045.03-.054.011h-1.12l-.054-.01-.045-.031-.03-.045-.011-.054Z" style="stroke:#585d84;stroke-width:.0212;stroke-opacity:1;stroke-linecap:round;stroke-linejoin:round;fill:none"/>
    </g>
    <g class="stroked-text" style="fill:none;stroke:#585d84;stroke-width:.0389;stroke-opacity:1;stroke-linecap:round;stroke-linejoin:round">
        <path d="m3.992 6.537.022-.023M4.014 6.514l.044-.022M4.058 6.492h.111M4.17 6.492l.044.022M4.214 6.514l.022.023M4.236 6.537l.022.044M4.258 6.581v.044M4.258 6.626l-.022.066M4.236 6.692l-.267.267M3.97 6.959h.288"/>
    </g>
    <circle cx="4.125" cy="6.745" r=".7" style="fill:none;stroke:#585d84;stroke-width:.0212;stroke-opacity:1;stroke-linecap:round;stroke-linejoin:round"/>
    <g class="stroked-text" style="fill:none;stroke:#585d84;stroke-width:.0389;stroke-opacity:1;stroke-linecap:round;stroke-linejoin:round">
        <path d="M3.97 8.272h.288M4.258 8.272l-.155.178M4.103 8.45h.066M4.17 8.45l.044.022M4.214 8.472l.022.022M4.236 8.494l.022.045M4.258 8.539v.111M4.258 8.65l-.022.044M4.236 8.694l-.022.023M4.214 8.717l-.045.022M4.17 8.739h-.134M4.036 8.739l-.044-.022M3.992 8.717l-.023-.023"/>
    </g>
    <circle cx="4.125" cy="8.525" r=".7" style="fill:none;stroke:#585d84;stroke-width:.0212;stroke-opacity:1;stroke-linecap:round;stroke-linejoin:round"/>
    <g class="stroked-text" style="fill:none;stroke:#585d84;stroke-width:.0389;stroke-opacity:1;stroke-linecap:round;stroke-linejoin:round">
        <path d="M4.214 10.208v.31M4.103 10.03l-.111.333M3.992 10.363h.289"/>
    </g>
    <circle cx="4.125" cy="10.305" r=".7" style="fill:none;stroke:#585d84;stroke-width:.0212;stroke-opacity:1;stroke-linecap:round;stroke-linejoin:round"/>
    <g class="stroked-text" style="fill:none;stroke:#585d84;stroke-width:.0389;stroke-opacity:1;stroke-linecap:round;stroke-linejoin:round">
        <path d="M4.236 11.832h-.222M4.014 11.832l-.022.222M3.992 12.054l.022-.022M4.014 12.032l.044-.022M4.058 12.01h.111M4.17 12.01l.044.022M4.214 12.032l.022.022M4.236 12.054l.022.045M4.258 12.099v.111M4.258 12.21l-.022.044M4.236 12.254l-.022.023M4.214 12.277l-.045.022M4.17 12.299h-.112M4.058 12.299l-.044-.022M4.014 12.277l-.022-.023"/>
    </g>
    <circle cx="4.125" cy="12.085" r=".7" style="fill:none;stroke:#585d84;stroke-width:.0212;stroke-opacity:1;stroke-linecap:round;stroke-linejoin:round"/>
    <g class="stroked-text" style="fill:none;stroke:#585d84;stroke-width:.0389;stroke-opacity:1;stroke-linecap:round;stroke-linejoin:round">
        <path d="M4.214 13.612h-.089M4.125 13.612l-.044.022M4.08 13.634l-.022.023M4.058 13.657l-.044.066M4.014 13.723l-.022.09M3.992 13.812v.178M3.992 13.99l.022.044M4.014 14.034l.022.023M4.036 14.057l.045.022M4.08 14.079h.09M4.17 14.079l.044-.022M4.214 14.057l.022-.023M4.236 14.034l.022-.044M4.258 13.99v-.111M4.258 13.879l-.022-.045M4.236 13.834l-.022-.022M4.214 13.812l-.045-.022M4.17 13.79h-.09M4.08 13.79l-.044.022M4.036 13.812l-.022.022M4.014 13.834l-.022.045"/>
    </g>
    <circle cx="4.125" cy="13.865" r=".7" style="fill:none;stroke:#585d84;stroke-width:.0212;stroke-opacity:1;stroke-linecap:round;stroke-linejoin:round"/>
    <g class="stroked-text" style="fill:none;stroke:#585d84;stroke-width:.0389;stroke-opacity:1;stroke-linecap:round;stroke-linejoin:round">
        <path d="M3.97 15.392h.31M4.28 15.392l-.2.467"/>
    </g>
    <circle cx="4.125" cy="15.645" r=".7" style="fill:none;stroke:#585d84;stroke-width:.0212;stroke-opacity:1;stroke-linecap:round;stroke-linejoin:round"/>
    <g class="stroked-text" style="fill:none;stroke:#585d84;stroke-width:.0389;stroke-opacity:1;stroke-linecap:round;stroke-linejoin:round">
        <path d="m4.08 17.372-.044-.022M4.036 17.35l-.022-.022M4.014 17.328l-.022-.045M3.992 17.283v-.022M3.992 17.261l.022-.044M4.014 17.217l.022-.023M4.036 17.194l.045-.022M4.08 17.172h.09M4.17 17.172l.044.022M4.214 17.194l.022.023M4.236 17.217l.022.044M4.258 17.261v.022M4.258 17.283l-.022.045M4.236 17.328l-.022.022M4.214 17.35l-.045.022M4.17 17.372h-.09M4.08 17.372l-.044.022M4.036 17.394l-.022.023M4.014 17.417l-.022.044M3.992 17.461v.089M3.992 17.55l.022.044M4.014 17.594l.022.023M4.036 17.617l.045.022M4.08 17.639h.09M4.17 17.639l.044-.022M4.214 17.617l.022-.023M4.236 17.594l.022-.044M4.258 17.55v-.089M4.258 17.461l-.022-.044M4.236 17.417l-.022-.023M4.214 17.394l-.045-.022"/>
    </g>
    <circle cx="4.125" cy="17.425" r=".7" style="fill:none;stroke:#585d84;stroke-width:.0212;stroke-opacity:1;stroke-linecap:round;stroke-linejoin:round"/>
    <g class="stroked-text" style="fill:none;stroke:#585d84;stroke-width:.0389;stroke-opacity:1;stroke-linecap:round;stroke-linejoin:round">
        <path d="M14.736 18.529h.089M14.825 18.529l.044-.022M14.87 18.507l.022-.023M14.892 18.484l.044-.066M14.936 18.418l.022-.09M14.958 18.329v-.178M14.958 18.151l-.022-.044M14.936 18.107l-.022-.023M14.914 18.084l-.045-.022M14.87 18.062h-.09M14.78 18.062l-.044.022M14.736 18.084l-.022.023M14.714 18.107l-.022.044M14.692 18.151v.111M14.692 18.262l.022.045M14.714 18.307l.022.022M14.736 18.329l.045.022M14.78 18.351h.09M14.87 18.351l.044-.022M14.914 18.329l.022-.022M14.936 18.307l.022-.045"/>
    </g>
    <circle cx="14.825" cy="18.315" r=".7" style="fill:none;stroke:#585d84;stroke-width:.0212;stroke-opacity:1;stroke-linecap:round;stroke-linejoin:round"/>
    <g class="stroked-text" style="fill:none;stroke:#585d84;stroke-width:.0389;stroke-opacity:1;stroke-linecap:round;stroke-linejoin:round">
        <path d="M14.736 16.749h-.267M14.603 16.749v-.467M14.603 16.282l-.045.067M14.558 16.349l-.044.044M14.514 16.393l-.045.023M15.025 16.282h.044M15.07 16.282l.044.022M15.114 16.304l.022.023M15.136 16.327l.022.044M15.158 16.371l.023.089M15.18 16.46v.111M15.18 16.571l-.022.089M15.158 16.66l-.022.044M15.136 16.704l-.022.023M15.114 16.727l-.045.022M15.07 16.749h-.045M15.025 16.749l-.044-.022M14.98 16.727l-.022-.023M14.958 16.704l-.022-.044M14.936 16.66l-.022-.089M14.914 16.571v-.111M14.914 16.46l.022-.089M14.936 16.371l.022-.044M14.958 16.327l.023-.023M14.98 16.304l.045-.022"/>
    </g>
    <circle cx="14.825" cy="16.535" r=".7" style="fill:none;stroke:#585d84;stroke-width:.0212;stroke-opacity:1;stroke-linecap:round;stroke-linejoin:round"/>
    <g class="stroked-text" style="fill:none;stroke:#585d84;stroke-width:.0389;stroke-opacity:1;stroke-linecap:round;stroke-linejoin:round">
        <path d="M14.736 14.969h-.267M14.603 14.969v-.467M14.603 14.502l-.045.067M14.558 14.569l-.044.044M14.514 14.613l-.045.023M15.18 14.969h-.266M15.047 14.969v-.467M15.047 14.502l-.044.067M15.003 14.569l-.045.044M14.958 14.613l-.044.023"/>
    </g>
    <circle cx="14.825" cy="14.755" r=".7" style="fill:none;stroke:#585d84;stroke-width:.0212;stroke-opacity:1;stroke-linecap:round;stroke-linejoin:round"/>
    <g class="stroked-text" style="fill:none;stroke:#585d84;stroke-width:.0389;stroke-opacity:1;stroke-linecap:round;stroke-linejoin:round">
        <path d="M14.736 13.189h-.267M14.603 13.189v-.467M14.603 12.722l-.045.067M14.558 12.789l-.044.044M14.514 12.833l-.045.022M14.914 12.767l.022-.023M14.936 12.744l.045-.022M14.98 12.722h.112M15.092 12.722l.044.022M15.136 12.744l.022.023M15.158 12.767l.023.044M15.18 12.811v.044M15.18 12.856l-.022.066M15.158 12.922l-.266.267M14.892 13.189h.289"/>
    </g>
    <circle cx="14.825" cy="12.975" r=".7" style="fill:none;stroke:#585d84;stroke-width:.0212;stroke-opacity:1;stroke-linecap:round;stroke-linejoin:round"/>
    <g class="stroked-text" style="fill:none;stroke:#585d84;stroke-width:.0389;stroke-opacity:1;stroke-linecap:round;stroke-linejoin:round">
        <path d="M14.736 11.409h-.267M14.603 11.409v-.467M14.603 10.942l-.045.067M14.558 11.009l-.044.044M14.514 11.053l-.045.022M14.892 10.942h.289M15.18 10.942l-.155.178M15.025 11.12h.067M15.092 11.12l.044.022M15.136 11.142l.022.022M15.158 11.164l.023.045M15.18 11.209v.111M15.18 11.32l-.022.044M15.158 11.364l-.022.023M15.136 11.387l-.044.022M15.092 11.409h-.134M14.958 11.409l-.044-.022M14.914 11.387l-.022-.023"/>
    </g>
    <circle cx="14.825" cy="11.195" r=".7" style="fill:none;stroke:#585d84;stroke-width:.0212;stroke-opacity:1;stroke-linecap:round;stroke-linejoin:round"/>
    <g class="stroked-text" style="fill:none;stroke:#585d84;stroke-width:.0389;stroke-opacity:1;stroke-linecap:round;stroke-linejoin:round">
        <path d="M14.736 9.629h-.267M14.603 9.629v-.467M14.603 9.162l-.045.067M14.558 9.229l-.044.044M14.514 9.273l-.045.023M15.136 9.318v.31M15.025 9.14l-.111.333M14.914 9.473h.289"/>
    </g>
    <circle cx="14.825" cy="9.415" r=".7" style="fill:none;stroke:#585d84;stroke-width:.0212;stroke-opacity:1;stroke-linecap:round;stroke-linejoin:round"/>
    <g class="stroked-text" style="fill:none;stroke:#585d84;stroke-width:.0389;stroke-opacity:1;stroke-linecap:round;stroke-linejoin:round">
        <path d="M14.736 7.849h-.267M14.603 7.849v-.467M14.603 7.382l-.045.067M14.558 7.449l-.044.044M14.514 7.493l-.045.022M15.158 7.382h-.222M14.936 7.382l-.022.222M14.914 7.604l.022-.022M14.936 7.582l.045-.022M14.98 7.56h.112M15.092 7.56l.044.022M15.136 7.582l.022.022M15.158 7.604l.023.045M15.18 7.649v.111M15.18 7.76l-.022.044M15.158 7.804l-.022.023M15.136 7.827l-.044.022M15.092 7.849h-.111M14.98 7.849l-.044-.022M14.936 7.827l-.022-.023"/>
    </g>
    <circle cx="14.825" cy="7.635" r=".7" style="fill:none;stroke:#585d84;stroke-width:.0212;stroke-opacity:1;stroke-linecap:round;stroke-linejoin:round"/>
    <g class="stroked-text" style="fill:none;stroke:#585d84;stroke-width:.0389;stroke-opacity:1;stroke-linecap:round;stroke-linejoin:round">
        <path d="M14.736 6.069h-.267M14.603 6.069v-.467M14.603 5.602l-.045.067M14.558 5.669l-.044.044M14.514 5.713l-.045.022M15.136 5.602h-.089M15.047 5.602l-.044.022M15.003 5.624l-.022.023M14.98 5.647l-.044.066M14.936 5.713l-.022.09M14.914 5.802v.178M14.914 5.98l.022.044M14.936 6.024l.022.023M14.958 6.047l.045.022M15.003 6.069h.089M15.092 6.069l.044-.022M15.136 6.047l.022-.023M15.158 6.024l.023-.044M15.18 5.98v-.111M15.18 5.869l-.022-.045M15.158 5.824l-.022-.022M15.136 5.802l-.044-.022M15.092 5.78h-.09M15.003 5.78l-.045.022M14.958 5.802l-.022.022M14.936 5.824l-.022.045"/>
    </g>
    <circle cx="14.825" cy="5.855" r=".7" style="fill:none;stroke:#585d84;stroke-width:.0212;stroke-opacity:1;stroke-linecap:round;stroke-linejoin:round"/>
    <g style="fill:none;stroke:#afafaf;stroke-width:.15;stroke-opacity:1;stroke-linecap:round;stroke-linejoin:round">
        <g class="stroked-text">
            <path d="M2.904 21.295v-1M2.904 20.295h.38M3.285 20.295l.095.047M3.38 20.342l.047.048M3.427 20.39l.048.095M3.475 20.485v.143M3.475 20.628l-.048.095M3.427 20.723l-.047.048M3.38 20.771l-.095.048M3.285 20.819h-.381M3.904 21.295v-1M3.904 20.295l.333.714M4.237 21.01l.333-.715M4.57 20.295v1M4.951 20.295l.238 1M5.19 21.295l.19-.715M5.38 20.58l.19.715M5.57 21.295l.238-1M6.094 20.295h.62M6.713 20.295l-.333.38M6.38 20.676h.143M6.523 20.676l.095.047M6.618 20.723l.047.048M6.666 20.771l.047.095M6.713 20.866v.238M6.713 21.104l-.048.096M6.666 21.2l-.048.047M6.618 21.247l-.095.048M6.523 21.295h-.286M6.237 21.295l-.095-.048M6.142 21.247l-.048-.047M7.046 20.295h.62M7.666 20.295l-.334.38M7.332 20.676h.143M7.475 20.676l.095.047M7.57 20.723l.048.048M7.618 20.771l.047.095M7.666 20.866v.238M7.666 21.104l-.048.096M7.618 21.2l-.048.047M7.57 21.247l-.095.048M7.475 21.295h-.286M7.19 21.295l-.096-.048M7.094 21.247l-.048-.047M8.523 20.295h-.19M8.332 20.295l-.095.047M8.237 20.342l-.048.048M8.19 20.39l-.096.143M8.094 20.533l-.048.19M8.046 20.723v.381M8.046 21.104l.048.096M8.094 21.2l.048.047M8.142 21.247l.095.048M8.237 21.295h.19M8.427 21.295l.096-.048M8.523 21.247l.047-.047M8.57 21.2l.048-.096M8.618 21.104v-.238M8.618 20.866l-.048-.095M8.57 20.771l-.047-.048M8.523 20.723l-.096-.047M8.427 20.676h-.19M8.237 20.676l-.095.047M8.142 20.723l-.048.048M8.094 20.771l-.048.095M9.237 20.295h.095M9.332 20.295l.095.047M9.427 20.342l.048.048M9.475 20.39l.048.095M9.523 20.485l.047.19M9.57 20.676v.238M9.57 20.914l-.047.19M9.523 21.104l-.048.096M9.475 21.2l-.048.047M9.427 21.247l-.095.048M9.332 21.295h-.095M9.237 21.295l-.095-.048M9.142 21.247l-.048-.047M9.094 21.2l-.048-.096M9.046 21.104 9 20.914M8.999 20.914v-.238M8.999 20.676l.047-.19M9.046 20.485l.048-.095M9.094 20.39l.048-.048M9.142 20.342l.095-.047M9.999 21.295v-1M9.999 20.295h.238M10.237 20.295l.143.047M10.38 20.342l.095.096M10.475 20.438l.048.095M10.523 20.533l.047.19M10.57 20.723v.143M10.57 20.866l-.047.19M10.523 21.057l-.048.095M10.475 21.152l-.095.095M10.38 21.247l-.143.048M10.237 21.295h-.238M10.999 21.295v-1M10.999 20.295l.333.714M11.332 21.01l.333-.715M11.666 20.295v1M12.046 20.962h.286M12.57 20.295h.572M12.856 21.295v-1M13.427 20.39l.048-.048M13.475 20.342l.095-.047M13.57 20.295h.238M13.808 20.295l.096.047M13.904 20.342l.047.048M13.951 20.39l.048.095M13.999 20.485v.096M13.999 20.58l-.048.143M13.951 20.723l-.571.572M13.38 21.295h.619M15.094 21.39l-.095-.048M14.999 21.342l-.095-.095M14.904 21.247l-.143-.143M14.76 21.104l-.095-.047M14.666 21.057h-.096M14.618 21.295l-.095-.048M14.523 21.247l-.096-.095M14.427 21.152l-.047-.19M14.38 20.962v-.334M14.38 20.628l.047-.19M14.427 20.438l.096-.096M14.523 20.342l.095-.047M14.618 20.295h.19M14.808 20.295l.096.047M14.904 20.342l.095.096M14.999 20.438l.047.19M15.046 20.628v.334M15.046 20.962l-.047.19M14.999 21.152l-.095.095M14.904 21.247l-.096.048M14.808 21.295h-.19M15.475 20.295v.81M15.475 21.104l.048.096M15.523 21.2l.047.047M15.57 21.247l.095.048M15.666 21.295h.19M15.856 21.295l.095-.048M15.951 21.247 16 21.2M15.999 21.2l.047-.096M16.046 21.104v-.81"/>
        </g>
        <g class="stroked-text">
            <path d="m8.142 12.27-.334-.476M7.57 12.27v-1M7.57 11.27h.381M7.951 11.27l.095.047M8.046 11.317l.048.048M8.094 11.365l.048.095M8.142 11.46v.143M8.142 11.603l-.048.095M8.094 11.698l-.048.048M8.046 11.746l-.095.048M7.951 11.794h-.38M8.57 11.746h.334M9.046 12.27H8.57M8.57 12.27v-1M8.57 11.27h.476M9.808 11.746h-.333M9.475 12.27v-1M9.475 11.27h.476M10.475 11.27v.238M10.237 11.413l.238.095M10.475 11.508l.238-.095M10.332 11.698l.143-.19M10.475 11.508l.143.19M11.237 11.27v.238M10.999 11.413l.238.095M11.237 11.508l.238-.095M11.094 11.698l.143-.19M11.237 11.508l.143.19"/>
        </g>
        <path d="M4.925 3.715h9.1v16.2h-9.1Z" style="stroke:#afafaf;stroke-width:.1;stroke-opacity:1;stroke-linecap:round;stroke-linejoin:round;fill:none"/>
    </g>
    <g style="fill:none;stroke:#afafaf;stroke-width:.0389;stroke-opacity:1;stroke-linecap:round;stroke-linejoin:round">
        <g class="stroked-text">
            <path d="M4.258 5.179h-.266M4.125 5.179v-.467M4.125 4.712l-.044.067M4.08 4.779l-.044.044M4.036 4.823l-.044.022"/>
        </g>
        <path d="m3.425 4.405.01-.054.031-.045.045-.03.054-.011h1.12l.054.01.045.031.03.045.011.054v1.12l-.01.054-.031.045-.045.03-.054.011h-1.12l-.054-.01-.045-.031-.03-.045-.011-.054Z" style="stroke:#afafaf;stroke-width:.0212;stroke-opacity:1;stroke-linecap:round;stroke-linejoin:round;fill:none"/>
    </g>
    <g class="stroked-text" style="fill:none;stroke:#afafaf;stroke-width:.0389;stroke-opacity:1;stroke-linecap:round;stroke-linejoin:round">
        <path d="m3.992 6.537.022-.023M4.014 6.514l.044-.022M4.058 6.492h.111M4.17 6.492l.044.022M4.214 6.514l.022.023M4.236 6.537l.022.044M4.258 6.581v.044M4.258 6.626l-.022.066M4.236 6.692l-.267.267M3.97 6.959h.288"/>
    </g>
    <circle cx="4.125" cy="6.745" r=".7" style="fill:none;stroke:#afafaf;stroke-width:.0212;stroke-opacity:1;stroke-linecap:round;stroke-linejoin:round"/>
    <g class="stroked-text" style="fill:none;stroke:#afafaf;stroke-width:.0389;stroke-opacity:1;stroke-linecap:round;stroke-linejoin:round">
        <path d="M3.97 8.272h.288M4.258 8.272l-.155.178M4.103 8.45h.066M4.17 8.45l.044.022M4.214 8.472l.022.022M4.236 8.494l.022.045M4.258 8.539v.111M4.258 8.65l-.022.044M4.236 8.694l-.022.023M4.214 8.717l-.045.022M4.17 8.739h-.134M4.036 8.739l-.044-.022M3.992 8.717l-.023-.023"/>
    </g>
    <circle cx="4.125" cy="8.525" r=".7" style="fill:none;stroke:#afafaf;stroke-width:.0212;stroke-opacity:1;stroke-linecap:round;stroke-linejoin:round"/>
    <g class="stroked-text" style="fill:none;stroke:#afafaf;stroke-width:.0389;stroke-opacity:1;stroke-linecap:round;stroke-linejoin:round">
        <path d="M4.214 10.208v.31M4.103 10.03l-.111.333M3.992 10.363h.289"/>
    </g>
    <circle cx="4.125" cy="10.305" r=".7" style="fill:none;stroke:#afafaf;stroke-width:.0212;stroke-opacity:1;stroke-linecap:round;stroke-linejoin:round"/>
    <g class="stroked-text" style="fill:none;stroke:#afafaf;stroke-width:.0389;stroke-opacity:1;stroke-linecap:round;stroke-linejoin:round">
        <path d="M4.236 11.832h-.222M4.014 11.832l-.022.222M3.992 12.054l.022-.022M4.014 12.032l.044-.022M4.058 12.01h.111M4.17 12.01l.044.022M4.214 12.032l.022.022M4.236 12.054l.022.045M4.258 12.099v.111M4.258 12.21l-.022.044M4.236 12.254l-.022.023M4.214 12.277l-.045.022M4.17 12.299h-.112M4.058 12.299l-.044-.022M4.014 12.277l-.022-.023"/>
    </g>
    <circle cx="4.125" cy="12.085" r=".7" style="fill:none;stroke:#afafaf;stroke-width:.0212;stroke-opacity:1;stroke-linecap:round;stroke-linejoin:round"/>
    <g class="stroked-text" style="fill:none;stroke:#afafaf;stroke-width:.0389;stroke-opacity:1;stroke-linecap:round;stroke-linejoin:round">
        <path d="M4.214 13.612h-.089M4.125 13.612l-.044.022M4.08 13.634l-.022.023M4.058 13.657l-.044.066M4.014 13.723l-.022.09M3.992 13.812v.178M3.992 13.99l.022.044M4.014 14.034l.022.023M4.036 14.057l.045.022M4.08 14.079h.09M4.17 14.079l.044-.022M4.214 14.057l.022-.023M4.236 14.034l.022-.044M4.258 13.99v-.111M4.258 13.879l-.022-.045M4.236 13.834l-.022-.022M4.214 13.812l-.045-.022M4.17 13.79h-.09M4.08 13.79l-.044.022M4.036 13.812l-.022.022M4.014 13.834l-.022.045"/>
    </g>
    <circle cx="4.125" cy="13.865" r=".7" style="fill:none;stroke:#afafaf;stroke-width:.0212;stroke-opacity:1;stroke-linecap:round;stroke-linejoin:round"/>
    <g class="stroked-text" style="fill:none;stroke:#afafaf;stroke-width:.0389;stroke-opacity:1;stroke-linecap:round;stroke-linejoin:round">
        <path d="M3.97 15.392h.31M4.28 15.392l-.2.467"/>
    </g>
    <circle cx="4.125" cy="15.645" r=".7" style="fill:none;stroke:#afafaf;stroke-width:.0212;stroke-opacity:1;stroke-linecap:round;stroke-linejoin:round"/>
    <g class="stroked-text" style="fill:none;stroke:#afafaf;stroke-width:.0389;stroke-opacity:1;stroke-linecap:round;stroke-linejoin:round">
        <path d="m4.08 17.372-.044-.022M4.036 17.35l-.022-.022M4.014 17.328l-.022-.045M3.992 17.283v-.022M3.992 17.261l.022-.044M4.014 17.217l.022-.023M4.036 17.194l.045-.022M4.08 17.172h.09M4.17 17.172l.044.022M4.214 17.194l.022.023M4.236 17.217l.022.044M4.258 17.261v.022M4.258 17.283l-.022.045M4.236 17.328l-.022.022M4.214 17.35l-.045.022M4.17 17.372h-.09M4.08 17.372l-.044.022M4.036 17.394l-.022.023M4.014 17.417l-.022.044M3.992 17.461v.089M3.992 17.55l.022.044M4.014 17.594l.022.023M4.036 17.617l.045.022M4.08 17.639h.09M4.17 17.639l.044-.022M4.214 17.617l.022-.023M4.236 17.594l.022-.044M4.258 17.55v-.089M4.258 17.461l-.022-.044M4.236 17.417l-.022-.023M4.214 17.394l-.045-.022"/>
    </g>
    <circle cx="4.125" cy="17.425" r=".7" style="fill:none;stroke:#afafaf;stroke-width:.0212;stroke-opacity:1;stroke-linecap:round;stroke-linejoin:round"/>
    <g class="stroked-text" style="fill:none;stroke:#afafaf;stroke-width:.0389;stroke-opacity:1;stroke-linecap:round;stroke-linejoin:round">
        <path d="M14.736 18.529h.089M14.825 18.529l.044-.022M14.87 18.507l.022-.023M14.892 18.484l.044-.066M14.936 18.418l.022-.09M14.958 18.329v-.178M14.958 18.151l-.022-.044M14.936 18.107l-.022-.023M14.914 18.084l-.045-.022M14.87 18.062h-.09M14.78 18.062l-.044.022M14.736 18.084l-.022.023M14.714 18.107l-.022.044M14.692 18.151v.111M14.692 18.262l.022.045M14.714 18.307l.022.022M14.736 18.329l.045.022M14.78 18.351h.09M14.87 18.351l.044-.022M14.914 18.329l.022-.022M14.936 18.307l.022-.045"/>
    </g>
    <circle cx="14.825" cy="18.315" r=".7" style="fill:none;stroke:#afafaf;stroke-width:.0212;stroke-opacity:1;stroke-linecap:round;stroke-linejoin:round"/>
    <g class="stroked-text" style="fill:none;stroke:#afafaf;stroke-width:.0389;stroke-opacity:1;stroke-linecap:round;stroke-linejoin:round">
        <path d="M14.736 16.749h-.267M14.603 16.749v-.467M14.603 16.282l-.045.067M14.558 16.349l-.044.044M14.514 16.393l-.045.023M15.025 16.282h.044M15.07 16.282l.044.022M15.114 16.304l.022.023M15.136 16.327l.022.044M15.158 16.371l.023.089M15.18 16.46v.111M15.18 16.571l-.022.089M15.158 16.66l-.022.044M15.136 16.704l-.022.023M15.114 16.727l-.045.022M15.07 16.749h-.045M15.025 16.749l-.044-.022M14.98 16.727l-.022-.023M14.958 16.704l-.022-.044M14.936 16.66l-.022-.089M14.914 16.571v-.111M14.914 16.46l.022-.089M14.936 16.371l.022-.044M14.958 16.327l.023-.023M14.98 16.304l.045-.022"/>
    </g>
    <circle cx="14.825" cy="16.535" r=".7" style="fill:none;stroke:#afafaf;stroke-width:.0212;stroke-opacity:1;stroke-linecap:round;stroke-linejoin:round"/>
    <g class="stroked-text" style="fill:none;stroke:#afafaf;stroke-width:.0389;stroke-opacity:1;stroke-linecap:round;stroke-linejoin:round">
        <path d="M14.736 14.969h-.267M14.603 14.969v-.467M14.603 14.502l-.045.067M14.558 14.569l-.044.044M14.514 14.613l-.045.023M15.18 14.969h-.266M15.047 14.969v-.467M15.047 14.502l-.044.067M15.003 14.569l-.045.044M14.958 14.613l-.044.023"/>
    </g>
    <circle cx="14.825" cy="14.755" r=".7" style="fill:none;stroke:#afafaf;stroke-width:.0212;stroke-opacity:1;stroke-linecap:round;stroke-linejoin:round"/>
    <g class="stroked-text" style="fill:none;stroke:#afafaf;stroke-width:.0389;stroke-opacity:1;stroke-linecap:round;stroke-linejoin:round">
        <path d="M14.736 13.189h-.267M14.603 13.189v-.467M14.603 12.722l-.045.067M14.558 12.789l-.044.044M14.514 12.833l-.045.022M14.914 12.767l.022-.023M14.936 12.744l.045-.022M14.98 12.722h.112M15.092 12.722l.044.022M15.136 12.744l.022.023M15.158 12.767l.023.044M15.18 12.811v.044M15.18 12.856l-.022.066M15.158 12.922l-.266.267M14.892 13.189h.289"/>
    </g>
    <circle cx="14.825" cy="12.975" r=".7" style="fill:none;stroke:#afafaf;stroke-width:.0212;stroke-opacity:1;stroke-linecap:round;stroke-linejoin:round"/>
    <g class="stroked-text" style="fill:none;stroke:#afafaf;stroke-width:.0389;stroke-opacity:1;stroke-linecap:round;stroke-linejoin:round">
        <path d="M14.736 11.409h-.267M14.603 11.409v-.467M14.603 10.942l-.045.067M14.558 11.009l-.044.044M14.514 11.053l-.045.022M14.892 10.942h.289M15.18 10.942l-.155.178M15.025 11.12h.067M15.092 11.12l.044.022M15.136 11.142l.022.022M15.158 11.164l.023.045M15.18 11.209v.111M15.18 11.32l-.022.044M15.158 11.364l-.022.023M15.136 11.387l-.044.022M15.092 11.409h-.134M14.958 11.409l-.044-.022M14.914 11.387l-.022-.023"/>
    </g>
    <circle cx="14.825" cy="11.195" r=".7" style="fill:none;stroke:#afafaf;stroke-width:.0212;stroke-opacity:1;stroke-linecap:round;stroke-linejoin:round"/>
    <g class="stroked-text" style="fill:none;stroke:#afafaf;stroke-width:.0389;stroke-opacity:1;stroke-linecap:round;stroke-linejoin:round">
        <path d="M14.736 9.629h-.267M14.603 9.629v-.467M14.603 9.162l-.045.067M14.558 9.229l-.044.044M14.514 9.273l-.045.023M15.136 9.318v.31M15.025 9.14l-.111.333M14.914 9.473h.289"/>
    </g>
    <circle cx="14.825" cy="9.415" r=".7" style="fill:none;stroke:#afafaf;stroke-width:.0212;stroke-opacity:1;stroke-linecap:round;stroke-linejoin:round"/>
    <g class="stroked-text" style="fill:none;stroke:#afafaf;stroke-width:.0389;stroke-opacity:1;stroke-linecap:round;stroke-linejoin:round">
        <path d="M14.736 7.849h-.267M14.603 7.849v-.467M14.603 7.382l-.045.067M14.558 7.449l-.044.044M14.514 7.493l-.045.022M15.158 7.382h-.222M14.936 7.382l-.022.222M14.914 7.604l.022-.022M14.936 7.582l.045-.022M14.98 7.56h.112M15.092 7.56l.044.022M15.136 7.582l.022.022M15.158 7.604l.023.045M15.18 7.649v.111M15.18 7.76l-.022.044M15.158 7.804l-.022.023M15.136 7.827l-.044.022M15.092 7.849h-.111M14.98 7.849l-.044-.022M14.936 7.827l-.022-.023"/>
    </g>
    <circle cx="14.825" cy="7.635" r=".7" style="fill:none;stroke:#afafaf;stroke-width:.0212;stroke-opacity:1;stroke-linecap:round;stroke-linejoin:round"/>
    <g class="stroked-text" style="fill:none;stroke:#afafaf;stroke-width:.0389;stroke-opacity:1;stroke-linecap:round;stroke-linejoin:round">
        <path d="M14.736 6.069h-.267M14.603 6.069v-.467M14.603 5.602l-.045.067M14.558 5.669l-.044.044M14.514 5.713l-.045.022M15.136 5.602h-.089M15.047 5.602l-.044.022M15.003 5.624l-.022.023M14.98 5.647l-.044.066M14.936 5.713l-.022.09M14.914 5.802v.178M14.914 5.98l.022.044M14.936 6.024l.022.023M14.958 6.047l.045.022M15.003 6.069h.089M15.092 6.069l.044-.022M15.136 6.047l.022-.023M15.158 6.024l.023-.044M15.18 5.98v-.111M15.18 5.869l-.022-.045M15.158 5.824l-.022-.022M15.136 5.802l-.044-.022M15.092 5.78h-.09M15.003 5.78l-.045.022M14.958 5.802l-.022.022M14.936 5.824l-.022.045"/>
    </g>
    <circle cx="14.825" cy="5.855" r=".7" style="fill:none;stroke:#afafaf;stroke-width:.0212;stroke-opacity:1;stroke-linecap:round;stroke-linejoin:round"/>
    <g style="fill:none;stroke:#d0d2cd;stroke-width:.05;stroke-opacity:1;stroke-linecap:round;stroke-linejoin:round">
        <path d="M5.175 19.045V2.585M5.575 2.185h7.8M13.375 19.445h-7.8M13.775 2.585v16.46M5.575 2.185a.4.4 0 0 0-.4.4M5.175 19.045a.4.4 0 0 0 .4.4M13.775 2.585a.4.4 0 0 0-.4-.4M13.375 19.445a.4.4 0 0 0 .4-.4"/>
    </g>
    <g style="fill:none;stroke:#c2c2c2;stroke-width:.12;stroke-opacity:1;stroke-linecap:round;stroke-linejoin:round">
        <path d="M7.475 6.625h4M7.475 10.625v-4M11.475 6.625v4M7.475 10.625a2 2 0 0 0 4 0"/>
        <circle cx="9.475" cy="10.625" r=".25"/>
    </g>
</svg>
