<svg xmlns="http://www.w3.org/2000/svg" width="50.4" height="38.112" viewBox="0 0 13.335 10.084">
    <g style="fill:none;stroke:#f2eda1;stroke-width:.15;stroke-opacity:1;stroke-linecap:round;stroke-linejoin:round">
        <g class="stroked-text">
            <path d="m9.53 6.382-.476.333M9.53 6.953h-1M8.53 6.953v-.38M8.53 6.572l.047-.095M8.577 6.477l.048-.048M8.625 6.43l.095-.048M8.72 6.382h.143M8.863 6.382l.095.047M8.958 6.43l.048.047M9.006 6.477l.048.095M9.054 6.572v.381M9.006 5.953V5.62M9.53 5.477v.476M9.53 5.953h-1M8.53 5.953v-.476M9.006 4.715v.333M9.53 5.048h-1M8.53 5.048v-.476M8.53 4.048h.238M8.673 4.286l.095-.238M8.768 4.048l-.095-.238M8.958 4.191l-.19-.143M8.768 4.048l.19-.143M8.53 3.286h.238M8.673 3.524l.095-.238M8.768 3.286l-.095-.238M8.958 3.43l-.19-.144M8.768 3.286l.19-.143"/>
        </g>
    </g>
    <g style="fill:none;stroke:#f2eda1;stroke-width:.12;stroke-opacity:1;stroke-linecap:round;stroke-linejoin:round">
        <path d="M.175 2.048v1M.175 2.048h1M.175 8.048v-1M.175 8.048h1M4.175 5.948v-1.8M5.275 5.948v-1.8M13.175 2.048h-1M13.175 2.048v1M13.175 8.048h-1M13.175 8.048v-1M5.275 4.148a.55.55 0 0 0-1.1 0M4.175 5.948a.55.55 0 0 0 1.1 0"/>
    </g>
    <circle cx="1.595" cy="5.048" r=".85" style="fill:#4d7fc4;fill-opacity:1;stroke:none"/>
    <circle cx="6.675" cy="5.048" r=".85" style="fill:#4d7fc4;fill-opacity:1;stroke:none"/>
    <circle cx="11.755" cy="5.048" r=".85" style="fill:#4d7fc4;fill-opacity:1;stroke:none"/>
    <circle cx="1.595" cy="5.048" r=".85" style="fill:#c83434;fill-opacity:1;stroke:none"/>
    <circle cx="6.675" cy="5.048" r=".85" style="fill:#c83434;fill-opacity:1;stroke:none"/>
    <circle cx="11.755" cy="5.048" r=".85" style="fill:#c83434;fill-opacity:1;stroke:none"/>
    <g class="stroked-text" style="fill:none;stroke:#585d84;stroke-width:.0472;stroke-opacity:1;stroke-linecap:round;stroke-linejoin:round">
        <path d="M1.757 5.308h-.324M1.595 5.308V4.74M1.595 4.741l-.054.081M1.541 4.822l-.054.054M1.487 4.876l-.054.027"/>
    </g>
    <circle cx="1.595" cy="5.048" r=".85" style="fill:none;stroke:#585d84;stroke-width:.0212;stroke-opacity:1;stroke-linecap:round;stroke-linejoin:round"/>
    <g class="stroked-text" style="fill:none;stroke:#585d84;stroke-width:.0472;stroke-opacity:1;stroke-linecap:round;stroke-linejoin:round">
        <path d="m6.513 4.795.027-.027M6.54 4.768l.054-.027M6.594 4.741h.135M6.729 4.741l.054.027M6.783 4.768l.027.027M6.81 4.795l.027.054M6.837 4.85v.053M6.837 4.903l-.027.081M6.81 4.984l-.324.324M6.486 5.308h.35"/>
    </g>
    <circle cx="6.675" cy="5.048" r=".85" style="fill:none;stroke:#585d84;stroke-width:.0212;stroke-opacity:1;stroke-linecap:round;stroke-linejoin:round"/>
    <g class="stroked-text" style="fill:none;stroke:#585d84;stroke-width:.0472;stroke-opacity:1;stroke-linecap:round;stroke-linejoin:round">
        <path d="M11.566 4.741h.35M11.917 4.741l-.189.216M11.728 4.957h.081M11.809 4.957l.054.027M11.863 4.984l.027.027M11.89 5.011l.027.054M11.917 5.065V5.2M11.917 5.2l-.027.054M11.89 5.254l-.027.027M11.863 5.281l-.054.027M11.809 5.308h-.162M11.647 5.308l-.054-.027M11.593 5.281l-.027-.027"/>
    </g>
    <circle cx="11.755" cy="5.048" r=".85" style="fill:none;stroke:#585d84;stroke-width:.0212;stroke-opacity:1;stroke-linecap:round;stroke-linejoin:round"/>
    <g style="fill:none;stroke:#afafaf;stroke-width:.15;stroke-opacity:1;stroke-linecap:round;stroke-linejoin:round">
        <g class="stroked-text">
            <path d="m1.556 1.255.143.048M1.699 1.303h.238M1.937 1.303l.095-.048M2.032 1.255l.048-.047M2.08 1.208l.047-.095M2.127 1.113v-.096M2.127 1.017 2.08.922M2.08.922 2.032.875M2.032.875 1.937.827M1.937.827l-.19-.048M1.746.78 1.651.731M1.651.732 1.604.684M1.604.684 1.556.589M1.556.589V.494M1.556.494l.048-.096M1.604.398 1.65.351M1.651.35l.095-.047M1.746.303h.238M1.985.303l.142.048M2.46.303l.239 1M2.699 1.303l.19-.714M2.89.589l.19.714M3.08 1.303l.238-1M3.46 1.398h.763M4.46 1.303v-1M4.46.303H4.7M4.699.303l.143.048M4.842.35l.095.096M4.937.446l.047.095M4.985.541l.047.19M5.032.732v.143M5.032.875l-.048.19M4.985 1.065l-.048.095M4.937 1.16l-.095.095M4.842 1.255l-.143.048M4.699 1.303H4.46M5.413.398l.048-.047M5.46.35l.096-.047M5.556.303h.238M5.794.303l.095.048M5.89.35l.047.048M5.937.398l.047.095M5.985.494v.095M5.985.589l-.048.143M5.937.732l-.572.571M5.366 1.303h.619M6.746.78h-.333M6.413 1.303v-1M6.413.303h.476M7.842 1.208l-.048.047M7.794 1.255l-.143.048M7.651 1.303h-.095M7.556 1.303l-.143-.048M7.413 1.255l-.095-.095M7.318 1.16l-.048-.095M7.27 1.065l-.047-.19M7.223.875V.732M7.223.732l.047-.19M7.27.541l.048-.095M7.318.446 7.413.35M7.413.35l.143-.047M7.556.303h.095M7.651.303l.143.048M7.794.35l.048.048M8.032 1.398h.762M9.223.303h.19M9.413.303l.095.048M9.508.35l.096.096M9.604.446l.047.19M9.651.636V.97M9.651.97l-.047.19M9.604 1.16l-.096.095M9.508 1.255l-.095.048M9.413 1.303h-.19M9.223 1.303l-.096-.048M9.127 1.255l-.095-.095M9.032 1.16 8.985.97M8.985.97V.636M8.985.636l.047-.19M9.032.446 9.127.35M9.127.35l.096-.047M10.08 1.303v-1M10.08.303l.333.714M10.413 1.017l.333-.714M10.746.303v1M11.794 1.303l-.333-.476M11.223 1.303v-1M11.223.303h.38M11.604.303l.095.048M11.699.35l.047.048M11.746.398l.048.095M11.794.494v.142M11.794.636l-.048.096M11.746.732 11.7.779M11.699.78l-.095.047M11.604.827h-.381"/>
        </g>
        <g class="stroked-text">
            <path d="m5.342 9.703-.334-.476M4.77 9.703v-1M4.77 8.703h.381M5.151 8.703l.095.048M5.246 8.75l.048.048M5.294 8.798l.048.095M5.342 8.894v.142M5.342 9.036l-.048.096M5.294 9.132l-.048.047M5.246 9.18l-.095.047M5.151 9.227h-.38M5.77 9.18h.334M6.246 9.703H5.77M5.77 9.703v-1M5.77 8.703h.476M7.008 9.18h-.333M6.675 9.703v-1M6.675 8.703h.476M7.675 8.703v.238M7.437 8.846l.238.095M7.675 8.941l.238-.095M7.532 9.132l.143-.19M7.675 8.941l.143.19M8.437 8.703v.238M8.199 8.846l.238.095M8.437 8.941l.238-.095M8.294 9.132l.143-.19M8.437 8.941l.143.19"/>
        </g>
        <path d="M.275 2.148h12.8v5.8H.275Z" style="stroke:#afafaf;stroke-width:.1;stroke-opacity:1;stroke-linecap:round;stroke-linejoin:round;fill:none"/>
    </g>
    <g class="stroked-text" style="fill:none;stroke:#afafaf;stroke-width:.0472;stroke-opacity:1;stroke-linecap:round;stroke-linejoin:round">
        <path d="M1.757 5.308h-.324M1.595 5.308V4.74M1.595 4.741l-.054.081M1.541 4.822l-.054.054M1.487 4.876l-.054.027"/>
    </g>
    <circle cx="1.595" cy="5.048" r=".85" style="fill:none;stroke:#afafaf;stroke-width:.0212;stroke-opacity:1;stroke-linecap:round;stroke-linejoin:round"/>
    <g class="stroked-text" style="fill:none;stroke:#afafaf;stroke-width:.0472;stroke-opacity:1;stroke-linecap:round;stroke-linejoin:round">
        <path d="m6.513 4.795.027-.027M6.54 4.768l.054-.027M6.594 4.741h.135M6.729 4.741l.054.027M6.783 4.768l.027.027M6.81 4.795l.027.054M6.837 4.85v.053M6.837 4.903l-.027.081M6.81 4.984l-.324.324M6.486 5.308h.35"/>
    </g>
    <circle cx="6.675" cy="5.048" r=".85" style="fill:none;stroke:#afafaf;stroke-width:.0212;stroke-opacity:1;stroke-linecap:round;stroke-linejoin:round"/>
    <g class="stroked-text" style="fill:none;stroke:#afafaf;stroke-width:.0472;stroke-opacity:1;stroke-linecap:round;stroke-linejoin:round">
        <path d="M11.566 4.741h.35M11.917 4.741l-.189.216M11.728 4.957h.081M11.809 4.957l.054.027M11.863 4.984l.027.027M11.89 5.011l.027.054M11.917 5.065V5.2M11.917 5.2l-.027.054M11.89 5.254l-.027.027M11.863 5.281l-.054.027M11.809 5.308h-.162M11.647 5.308l-.054-.027M11.593 5.281l-.027-.027"/>
    </g>
    <circle cx="11.755" cy="5.048" r=".85" style="fill:none;stroke:#afafaf;stroke-width:.0212;stroke-opacity:1;stroke-linecap:round;stroke-linejoin:round"/>
    <g style="fill:none;stroke:#c2c2c2;stroke-width:.12;stroke-opacity:1;stroke-linecap:round;stroke-linejoin:round">
        <path d="M4.725 6.498v-2.9M5.275 5.048h-1.1"/>
    </g>
</svg>
