<svg xmlns="http://www.w3.org/2000/svg" width="45.504" height="35.136" viewBox="0 0 12.04 9.296">
    <g style="fill:none;stroke:#f2eda1;stroke-width:.15;stroke-opacity:1;stroke-linecap:round;stroke-linejoin:round">
        <g class="stroked-text">
            <path d="m6.98 5.982-.476.333M6.98 6.553h-1M5.98 6.553v-.38M5.98 6.172l.047-.095M6.027 6.077l.048-.048M6.075 6.03l.095-.048M6.17 5.982h.143M6.313 5.982l.095.047M6.408 6.03l.048.047M6.456 6.077l.048.095M6.504 6.172v.381M6.456 5.553V5.22M6.98 5.077v.476M6.98 5.553h-1M5.98 5.553v-.476M6.456 4.315v.333M6.98 4.648h-1M5.98 4.648v-.476M5.98 3.648h.238M6.123 3.886l.095-.238M6.218 3.648l-.095-.238M6.408 3.791l-.19-.143M6.218 3.648l.19-.143M5.98 2.886h.238M6.123 3.124l.095-.238M6.218 2.886l-.095-.238M6.408 3.03l-.19-.144M6.218 2.886l.19-.143"/>
        </g>
    </g>
    <g style="fill:none;stroke:#f2eda1;stroke-width:.12;stroke-opacity:1;stroke-linecap:round;stroke-linejoin:round">
        <path d="M1.625 2.148v.74M1.625 7.148v-.74M1.625 7.148h8.8M5.435 5.448v-1.6M10.425 2.148h-8.8M10.425 2.148v.74M10.425 7.148v-.74M5.435 3.848a.55.55 0 0 0-1.1 0M4.335 5.448a.55.55 0 0 0 1.1 0"/>
        <path stroke="none" d="m.125 3.198.011-.057.033-.049.049-.032.057-.012h1.2l.057.012.05.032.032.049.011.057v2.9l-.011.058-.033.048-.049.033-.057.011h-1.2l-.057-.011-.05-.033-.032-.048-.011-.058ZM10.425 3.198l.011-.057.033-.049.049-.032.057-.012h1.2l.057.012.05.032.032.049.011.057v2.9l-.011.058-.033.048-.049.033-.057.011h-1.2l-.057-.011-.05-.033-.032-.048-.011-.058Z" style="fill:#b4a09a;fill-opacity:.9;stroke:none;fill-rule:evenodd"/>
        <path stroke="none" d="m.125 3.198.011-.057.033-.049.049-.032.057-.012h1.2l.057.012.05.032.032.049.011.057v2.9l-.011.058-.033.048-.049.033-.057.011h-1.2l-.057-.011-.05-.033-.032-.048-.011-.058ZM10.425 3.198l.011-.057.033-.049.049-.032.057-.012h1.2l.057.012.05.032.032.049.011.057v2.9l-.011.058-.033.048-.049.033-.057.011h-1.2l-.057-.011-.05-.033-.032-.048-.011-.058Z" style="fill:#c83434;fill-opacity:1;stroke:none;fill-rule:evenodd"/>
    </g>
    <circle cx="4.025" cy="4.648" r=".57" style="fill:none;stroke:#585d84;stroke-width:.0212;stroke-opacity:1;stroke-linecap:round;stroke-linejoin:round"/>
    <circle cx="8.025" cy="4.648" r=".57" style="fill:none;stroke:#585d84;stroke-width:.0212;stroke-opacity:1;stroke-linecap:round;stroke-linejoin:round"/>
    <g style="fill:none;stroke:#afafaf;stroke-width:.15;stroke-opacity:1;stroke-linecap:round;stroke-linejoin:round">
        <g class="stroked-text">
            <path d="m.954 1.255.142.048M1.096 1.303h.238M1.335 1.303l.095-.048M1.43 1.255l.047-.047M1.477 1.208l.048-.095M1.525 1.113v-.096M1.525 1.017 1.477.922M1.477.922 1.43.875M1.43.875 1.335.827M1.335.827 1.144.779M1.144.78 1.049.731M1.049.732 1 .684M1.001.684.954.589M.954.589V.494M.954.494 1 .397M1.001.398 1.05.351M1.049.35l.095-.047M1.144.303h.238M1.382.303l.143.048M1.858.303l.238 1M2.096 1.303l.19-.714M2.287.589l.19.714M2.477 1.303l.239-1M2.858 1.398h.762M3.858 1.303v-1M3.858.303h.238M4.096.303l.143.048M4.24.35l.095.096M4.335.446l.047.095M4.382.541l.048.19M4.43.732v.143M4.43.875l-.048.19M4.382 1.065l-.047.095M4.335 1.16l-.096.095M4.24 1.255l-.144.048M4.096 1.303h-.238M4.81.398l.048-.047M4.858.35l.096-.047M4.954.303h.238M5.192.303l.095.048M5.287.35l.048.048M5.335.398l.047.095M5.382.494v.095M5.382.589l-.047.143M5.335.732l-.572.571M4.763 1.303h.62M6.287 1.303H5.81M5.81 1.303v-1M6.573 1.255l.142.048M6.716 1.303h.238M6.954 1.303l.095-.048M7.049 1.255l.047-.047M7.096 1.208l.048-.095M7.144 1.113v-.096M7.144 1.017 7.096.922M7.096.922 7.05.875M7.049.875 6.954.827M6.954.827l-.19-.048M6.763.78 6.668.731M6.668.732 6.62.684M6.62.684 6.573.589M6.573.589V.494M6.573.494 6.62.397M6.62.398l.048-.047M6.668.35l.095-.047M6.763.303h.238M7.001.303l.143.048M7.335 1.398h.761M8.525.303h.19M8.716.303l.095.048M8.81.35l.096.096M8.906.446l.048.19M8.954.636V.97M8.954.97l-.048.19M8.906 1.16l-.095.095M8.81 1.255l-.095.048M8.716 1.303h-.191M8.525 1.303l-.095-.048M8.43 1.255l-.095-.095M8.335 1.16 8.287.97M8.287.97V.636M8.287.636l.047-.19M8.335.446 8.43.35M8.43.35l.095-.047M9.382 1.303v-1M9.382.303l.334.714M9.716 1.017l.333-.714M10.049.303v1M11.096 1.303l-.333-.476M10.525 1.303v-1M10.525.303h.381M10.906.303l.095.048M11.001.35l.048.048M11.049.398l.047.095M11.096.494v.142M11.096.636l-.047.096M11.049.732 11 .779M11.001.78l-.095.047M10.906.827h-.381"/>
        </g>
        <g class="stroked-text">
            <path d="m4.692 8.903-.334-.476M4.12 8.903v-1M4.12 7.903h.381M4.501 7.903l.095.048M4.596 7.95l.048.048M4.644 7.998l.048.096M4.692 8.094v.142M4.692 8.236l-.048.096M4.644 8.332l-.048.047M4.596 8.38l-.095.047M4.501 8.427h-.38M5.12 8.38h.334M5.596 8.903H5.12M5.12 8.903v-1M5.12 7.903h.476M6.358 8.38h-.333M6.025 8.903v-1M6.025 7.903h.476M7.025 7.903v.238M6.787 8.046l.238.095M7.025 8.141l.238-.095M6.882 8.332l.143-.19M7.025 8.141l.143.19M7.787 7.903v.238M7.549 8.046l.238.095M7.787 8.141l.238-.095M7.644 8.332l.143-.19M7.787 8.141l.143.19"/>
        </g>
        <path d="M1.725 2.248h8.6v4.8h-8.6Z" style="stroke:#afafaf;stroke-width:.1;stroke-opacity:1;stroke-linecap:round;stroke-linejoin:round;fill:none"/>
    </g>
    <circle cx="4.025" cy="4.648" r=".57" style="fill:none;stroke:#afafaf;stroke-width:.0212;stroke-opacity:1;stroke-linecap:round;stroke-linejoin:round"/>
    <circle cx="8.025" cy="4.648" r=".57" style="fill:none;stroke:#afafaf;stroke-width:.0212;stroke-opacity:1;stroke-linecap:round;stroke-linejoin:round"/>
    <g style="fill:none;stroke:#afafaf;stroke-width:.0889;stroke-opacity:1;stroke-linecap:round;stroke-linejoin:round">
        <g class="stroked-text">
            <path d="M1.364 4.344v.609M1.364 4.648H.297M.297 4.648l.153.102M.45 4.75l.101.101M.551 4.851l.05.102"/>
        </g>
        <path d="m.125 3.198.011-.057.033-.049.049-.032.057-.012h1.2l.057.012.05.032.032.049.011.057v2.9l-.011.058-.033.048-.049.033-.057.011h-1.2l-.057-.011-.05-.033-.032-.048-.011-.058Z" style="stroke:#afafaf;stroke-width:.0212;stroke-opacity:1;stroke-linecap:round;stroke-linejoin:round;fill:none"/>
    </g>
    <g style="fill:none;stroke:#afafaf;stroke-width:.0889;stroke-opacity:1;stroke-linecap:round;stroke-linejoin:round">
        <g class="stroked-text">
            <path d="m10.699 4.953-.051-.05M10.648 4.902l-.05-.101M10.597 4.8v-.253M10.597 4.547l.051-.102M10.648 4.445l.05-.05M10.699 4.394l.101-.05M10.8 4.344h.102M10.902 4.344l.152.05M11.054 4.394l.61.61M11.664 5.004v-.66"/>
        </g>
        <path d="m10.425 3.198.011-.057.033-.049.049-.032.057-.012h1.2l.057.012.05.032.032.049.011.057v2.9l-.011.058-.033.048-.049.033-.057.011h-1.2l-.057-.011-.05-.033-.032-.048-.011-.058Z" style="stroke:#afafaf;stroke-width:.0212;stroke-opacity:1;stroke-linecap:round;stroke-linejoin:round;fill:none"/>
    </g>
</svg>
