<svg xmlns="http://www.w3.org/2000/svg" width="576.288" height="77.952" viewBox="0 0 152.476 20.625">
    <circle cx="9.55" cy="2.59" r="1.525" style="fill:none;stroke:#585d84;stroke-width:.0212;stroke-opacity:1;stroke-linecap:round;stroke-linejoin:round"/>
    <circle cx="9.55" cy="17.99" r="1.994" style="fill:none;stroke:#585d84;stroke-width:.0212;stroke-opacity:1;stroke-linecap:round;stroke-linejoin:round"/>
    <circle cx="142.95" cy="2.59" r="1.525" style="fill:none;stroke:#585d84;stroke-width:.0212;stroke-opacity:1;stroke-linecap:round;stroke-linejoin:round"/>
    <circle cx="142.95" cy="17.99" r="1.994" style="fill:none;stroke:#585d84;stroke-width:.0212;stroke-opacity:1;stroke-linecap:round;stroke-linejoin:round"/>
    <g style="fill:none;stroke:#afafaf;stroke-width:.15;stroke-opacity:1;stroke-linecap:round;stroke-linejoin:round">
        <g class="stroked-text">
            <path d="m70.083 9.182.143.048M70.226 9.23h.238M70.464 9.23l.096-.048M70.56 9.182l.047-.047M70.607 9.135l.048-.096M70.655 9.04v-.096M70.655 8.944l-.048-.095M70.607 8.849 70.56 8.8M70.56 8.801l-.096-.047M70.464 8.754l-.19-.048M70.274 8.706l-.095-.048M70.179 8.658l-.048-.047M70.131 8.61l-.048-.095M70.083 8.516V8.42M70.083 8.42l.048-.095M70.131 8.325l.048-.048M70.179 8.277l.095-.047M70.274 8.23h.238M70.512 8.23l.143.047M70.94 8.563h.381M71.083 8.23v.857M71.083 9.087l.048.095M71.131 9.182l.095.048M71.226 9.23h.095M72.083 9.23v-.524M72.083 8.706l-.047-.095M72.036 8.61l-.096-.047M71.94 8.563h-.19M71.75 8.563l-.095.048M72.083 9.182l-.095.048M71.988 9.23h-.238M71.75 9.23l-.095-.048M71.655 9.182l-.048-.095M71.607 9.087v-.095M71.607 8.992l.048-.096M71.655 8.897l.095-.048M71.75 8.849h.238M71.988 8.849l.095-.048M72.56 9.23v-1M72.56 8.61l.095-.047M72.655 8.563h.19M72.845 8.563l.096.048M72.94 8.61l.048.048M72.988 8.658l.048.096M73.036 8.754v.285M73.036 9.04l-.048.095M72.988 9.135l-.047.047M72.94 9.182l-.095.048M72.845 9.23h-.19M72.655 9.23l-.096-.048M73.464 9.23v-.667M73.464 8.23l-.047.047M73.417 8.277l.047.048M73.464 8.325l.048-.048M73.512 8.277l-.048-.047M73.464 8.23v.095M74.083 9.23l-.095-.048M73.988 9.182l-.047-.095M73.94 9.087V8.23M74.464 9.23v-.667M74.464 8.23l-.047.047M74.417 8.277l.047.048M74.464 8.325l.048-.048M74.512 8.277l-.048-.047M74.464 8.23v.095M74.845 8.563h.524M75.369 8.563l-.524.667M74.845 9.23h.524M76.131 9.182l-.095.048M76.036 9.23h-.19M75.845 9.23l-.095-.048M75.75 9.182l-.048-.095M75.702 9.087v-.381M75.702 8.706l.048-.095M75.75 8.61l.095-.047M75.845 8.563h.19M76.036 8.563l.095.048M76.131 8.61l.048.096M76.179 8.706v.095M76.179 8.801l-.477.095M76.607 9.23v-.667M76.607 8.754l.048-.096M76.655 8.658l.047-.047M76.702 8.61l.096-.047M76.798 8.563h.095M76.988 9.325h.762M77.988 9.23v-1M77.988 8.23l.333.714M78.321 8.944l.334-.714M78.655 8.23v1M79.036 8.23l.666 1M79.702 8.23l-.666 1M79.845 9.325h.762M80.988 8.658l-.095-.047M80.893 8.61l-.048-.047M80.845 8.563l-.047-.095M80.798 8.468V8.42M80.798 8.42l.047-.095M80.845 8.325l.048-.048M80.893 8.277l.095-.047M80.988 8.23h.19M81.179 8.23l.095.047M81.274 8.277l.047.048M81.321 8.325l.048.095M81.369 8.42v.048M81.369 8.468l-.048.095M81.321 8.563l-.047.048M81.274 8.61l-.095.048M81.179 8.658h-.19M80.988 8.658l-.095.048M80.893 8.706l-.048.048M80.845 8.754l-.047.095M80.798 8.849v.19M80.798 9.04l.047.095M80.845 9.135l.048.047M80.893 9.182l.095.048M80.988 9.23h.19M81.179 9.23l.095-.048M81.274 9.182l.047-.047M81.321 9.135l.048-.096M81.369 9.04v-.191M81.369 8.849l-.048-.095M81.321 8.754l-.047-.048M81.274 8.706l-.095-.048M81.798 8.23v.81M81.798 9.04l.047.095M81.845 9.135l.048.047M81.893 9.182l.095.048M81.988 9.23h.19M82.179 9.23l.095-.048M82.274 9.182l.047-.047M82.321 9.135l.048-.096M82.369 9.04v-.81"/>
        </g>
        <g class="stroked-text">
            <path d="m74.917 10.83-.334-.476M74.345 10.83v-1M74.345 9.83h.381M74.726 9.83l.095.047M74.821 9.877l.048.048M74.869 9.925l.048.095M74.917 10.02v.143M74.917 10.163l-.048.095M74.869 10.258l-.048.048M74.821 10.306l-.095.048M74.726 10.354h-.38M75.345 10.306h.334M75.821 10.83h-.476M75.345 10.83v-1M75.345 9.83h.476M76.583 10.306h-.333M76.25 10.83v-1M76.25 9.83h.476M77.25 9.83v.238M77.012 9.973l.238.095M77.25 10.068l.238-.095M77.107 10.258l.143-.19M77.25 10.068l.143.19M78.012 9.83v.238M77.774 9.973l.238.095M78.012 10.068l.238-.095M77.869 10.258l.143-.19M78.012 10.068l.143.19"/>
        </g>
    </g>
    <g style="fill:none;stroke:#afafaf;stroke-width:.1;stroke-opacity:1;stroke-linecap:round;stroke-linejoin:round">
        <path d="M6.15 1.365V19.39M6.15 19.39h1.703M7.97 1.365H6.15M11.13 1.365h1.82M11.247 19.39h1.703M12.95 19.39V1.365M139.55 1.365V19.39M139.55 19.39h1.703M141.37 1.365h-1.82M144.53 1.365h1.82M144.647 19.39h1.703M146.35 19.39V1.365M11.13 1.365a2 2 0 0 0-3.16 0M7.853 19.39a2.2 2.2 0 0 0 3.394 0M144.53 1.365a2 2 0 0 0-3.16 0M141.253 19.39a2.2 2.2 0 0 0 3.394 0"/>
    </g>
    <circle cx="9.55" cy="2.59" r="1.525" style="fill:none;stroke:#afafaf;stroke-width:.0212;stroke-opacity:1;stroke-linecap:round;stroke-linejoin:round"/>
    <circle cx="9.55" cy="17.99" r="1.994" style="fill:none;stroke:#afafaf;stroke-width:.0212;stroke-opacity:1;stroke-linecap:round;stroke-linejoin:round"/>
    <circle cx="142.95" cy="2.59" r="1.525" style="fill:none;stroke:#afafaf;stroke-width:.0212;stroke-opacity:1;stroke-linecap:round;stroke-linejoin:round"/>
    <circle cx="142.95" cy="17.99" r="1.994" style="fill:none;stroke:#afafaf;stroke-width:.0212;stroke-opacity:1;stroke-linecap:round;stroke-linejoin:round"/>
    <g style="fill:none;stroke:#c2c2c2;stroke-width:.12;stroke-opacity:1;stroke-linecap:round;stroke-linejoin:round">
        <path d="M69.25 2.575v1M69.25 2.575h1M69.25 16.575v-1M70.25 16.575h-1M82.25 2.575h1M83.25 2.575v1M83.25 15.575v1M83.25 16.575h-1"/>
        <path d="M.05.05h152.4V19.1H.05Z" style="stroke:#c2c2c2;stroke-width:.1;stroke-opacity:1;stroke-linecap:round;stroke-linejoin:round;fill:none"/>
    </g>
</svg>
