<svg xmlns="http://www.w3.org/2000/svg" width="216.288" height="77.952" viewBox="0 0 57.226 20.625">
    <circle cx="9.625" cy="2.59" r="1.525" style="fill:none;stroke:#585d84;stroke-width:.0212;stroke-opacity:1;stroke-linecap:round;stroke-linejoin:round"/>
    <circle cx="9.625" cy="17.99" r="1.994" style="fill:none;stroke:#585d84;stroke-width:.0212;stroke-opacity:1;stroke-linecap:round;stroke-linejoin:round"/>
    <circle cx="47.625" cy="2.59" r="1.525" style="fill:none;stroke:#585d84;stroke-width:.0212;stroke-opacity:1;stroke-linecap:round;stroke-linejoin:round"/>
    <circle cx="47.625" cy="17.99" r="1.994" style="fill:none;stroke:#585d84;stroke-width:.0212;stroke-opacity:1;stroke-linecap:round;stroke-linejoin:round"/>
    <g style="fill:none;stroke:#afafaf;stroke-width:.15;stroke-opacity:1;stroke-linecap:round;stroke-linejoin:round">
        <g class="stroked-text">
            <path d="m22.458 9.182.143.048M22.601 9.23h.238M22.84 9.23l.095-.048M22.935 9.182l.047-.047M22.982 9.135l.048-.096M23.03 9.04v-.096M23.03 8.944l-.048-.095M22.982 8.849l-.047-.048M22.935 8.801l-.096-.047M22.84 8.754l-.191-.048M22.649 8.706l-.095-.048M22.554 8.658l-.048-.047M22.506 8.61l-.048-.095M22.458 8.516V8.42M22.458 8.42l.048-.095M22.506 8.325l.048-.048M22.554 8.277l.095-.047M22.649 8.23h.238M22.887 8.23l.143.047M23.316 8.563h.38M23.458 8.23v.857M23.458 9.087l.048.095M23.506 9.182l.095.048M23.601 9.23h.095M24.458 9.23v-.524M24.458 8.706l-.047-.095M24.41 8.61l-.095-.047M24.316 8.563h-.191M24.125 8.563l-.095.048M24.458 9.182l-.095.048M24.363 9.23h-.238M24.125 9.23l-.095-.048M24.03 9.182l-.048-.095M23.982 9.087v-.095M23.982 8.992l.048-.096M24.03 8.897l.095-.048M24.125 8.849h.238M24.363 8.849l.095-.048M24.935 9.23v-1M24.935 8.61l.095-.047M25.03 8.563h.19M25.22 8.563l.096.048M25.316 8.61l.047.048M25.363 8.658l.048.096M25.41 8.754v.285M25.41 9.04l-.047.095M25.363 9.135l-.047.047M25.316 9.182l-.096.048M25.22 9.23h-.19M25.03 9.23l-.096-.048M25.84 9.23v-.667M25.84 8.23l-.048.047M25.792 8.277l.047.048M25.84 8.325l.047-.048M25.887 8.277l-.048-.047M25.84 8.23v.095M26.458 9.23l-.095-.048M26.363 9.182l-.047-.095M26.316 9.087V8.23M26.84 9.23v-.667M26.84 8.23l-.048.047M26.792 8.277l.047.048M26.84 8.325l.047-.048M26.887 8.277l-.048-.047M26.84 8.23v.095M27.22 8.563h.524M27.744 8.563l-.524.667M27.22 9.23h.524M28.506 9.182l-.095.048M28.41 9.23h-.19M28.22 9.23l-.095-.048M28.125 9.182l-.048-.095M28.077 9.087v-.381M28.077 8.706l.048-.095M28.125 8.61l.095-.047M28.22 8.563h.19M28.41 8.563l.096.048M28.506 8.61l.048.096M28.554 8.706v.095M28.554 8.801l-.477.095M28.982 9.23v-.667M28.982 8.754l.048-.096M29.03 8.658l.047-.047M29.077 8.61l.096-.047M29.173 8.563h.095M29.363 9.325h.762M30.363 9.23v-1M30.363 8.23l.333.714M30.696 8.944l.334-.714M31.03 8.23v1M31.41 8.23l.667 1M32.077 8.23l-.666 1M32.22 9.325h.762M33.125 8.23h.619M33.744 8.23l-.333.38M33.41 8.61h.144M33.554 8.61l.095.048M33.649 8.658l.047.048M33.696 8.706l.048.095M33.744 8.801v.238M33.744 9.04l-.048.095M33.696 9.135l-.047.047M33.649 9.182l-.095.048M33.554 9.23h-.286M33.268 9.23l-.095-.048M33.173 9.182l-.048-.047M34.173 8.23v.81M34.173 9.04l.047.095M34.22 9.135l.048.047M34.268 9.182l.095.048M34.363 9.23h.19M34.554 9.23l.095-.048M34.649 9.182l.047-.047M34.696 9.135l.048-.096M34.744 9.04v-.81"/>
        </g>
        <g class="stroked-text">
            <path d="m27.292 10.83-.334-.476M26.72 10.83v-1M26.72 9.83h.381M27.101 9.83l.095.047M27.196 9.877l.048.048M27.244 9.925l.048.095M27.292 10.02v.143M27.292 10.163l-.048.095M27.244 10.258l-.048.048M27.196 10.306l-.095.048M27.101 10.354h-.38M27.72 10.306h.334M28.196 10.83h-.476M27.72 10.83v-1M27.72 9.83h.476M28.958 10.306h-.333M28.625 10.83v-1M28.625 9.83h.476M29.625 9.83v.238M29.387 9.973l.238.095M29.625 10.068l.238-.095M29.482 10.258l.143-.19M29.625 10.068l.143.19M30.387 9.83v.238M30.149 9.973l.238.095M30.387 10.068l.238-.095M30.244 10.258l.143-.19M30.387 10.068l.143.19"/>
        </g>
    </g>
    <g style="fill:none;stroke:#afafaf;stroke-width:.1;stroke-opacity:1;stroke-linecap:round;stroke-linejoin:round">
        <path d="M6.225 1.365V19.39M6.225 19.39h1.703M8.044 1.365H6.225M11.206 1.365h1.819M11.322 19.39h1.703M13.025 19.39V1.365M44.225 1.365V19.39M44.225 19.39h1.703M46.044 1.365h-1.819M49.206 1.365h1.819M49.322 19.39h1.703M51.025 19.39V1.365M11.206 1.365a2 2 0 0 0-3.162 0M7.928 19.39a2.2 2.2 0 0 0 3.394 0M49.206 1.365a2 2 0 0 0-3.162 0M45.928 19.39a2.2 2.2 0 0 0 3.394 0"/>
    </g>
    <circle cx="9.625" cy="2.59" r="1.525" style="fill:none;stroke:#afafaf;stroke-width:.0212;stroke-opacity:1;stroke-linecap:round;stroke-linejoin:round"/>
    <circle cx="9.625" cy="17.99" r="1.994" style="fill:none;stroke:#afafaf;stroke-width:.0212;stroke-opacity:1;stroke-linecap:round;stroke-linejoin:round"/>
    <circle cx="47.625" cy="2.59" r="1.525" style="fill:none;stroke:#afafaf;stroke-width:.0212;stroke-opacity:1;stroke-linecap:round;stroke-linejoin:round"/>
    <circle cx="47.625" cy="17.99" r="1.994" style="fill:none;stroke:#afafaf;stroke-width:.0212;stroke-opacity:1;stroke-linecap:round;stroke-linejoin:round"/>
    <g style="fill:none;stroke:#c2c2c2;stroke-width:.12;stroke-opacity:1;stroke-linecap:round;stroke-linejoin:round">
        <path d="M21.625 2.575v1M21.625 2.575h1M21.625 16.575v-1M22.625 16.575h-1M34.625 2.575h1M35.625 2.575v1M35.625 15.575v1M35.625 16.575h-1"/>
        <path d="M.05.05H57.2V19.1H.05Z" style="stroke:#c2c2c2;stroke-width:.1;stroke-opacity:1;stroke-linecap:round;stroke-linejoin:round;fill:none"/>
    </g>
</svg>
