<svg xmlns="http://www.w3.org/2000/svg" width="432.288" height="77.952" viewBox="0 0 114.376 20.625">
    <circle cx="9.6" cy="2.59" r="1.525" style="fill:none;stroke:#585d84;stroke-width:.0212;stroke-opacity:1;stroke-linecap:round;stroke-linejoin:round"/>
    <circle cx="9.6" cy="17.99" r="1.994" style="fill:none;stroke:#585d84;stroke-width:.0212;stroke-opacity:1;stroke-linecap:round;stroke-linejoin:round"/>
    <circle cx="104.8" cy="2.59" r="1.525" style="fill:none;stroke:#585d84;stroke-width:.0212;stroke-opacity:1;stroke-linecap:round;stroke-linejoin:round"/>
    <circle cx="104.8" cy="17.99" r="1.994" style="fill:none;stroke:#585d84;stroke-width:.0212;stroke-opacity:1;stroke-linecap:round;stroke-linejoin:round"/>
    <g style="fill:none;stroke:#afafaf;stroke-width:.15;stroke-opacity:1;stroke-linecap:round;stroke-linejoin:round">
        <g class="stroked-text">
            <path d="m51.033 9.182.143.048M51.176 9.23h.238M51.414 9.23l.096-.048M51.51 9.182l.047-.047M51.557 9.135l.048-.096M51.605 9.04v-.096M51.605 8.944l-.048-.095M51.557 8.849 51.51 8.8M51.51 8.801l-.096-.047M51.414 8.754l-.19-.048M51.224 8.706l-.095-.048M51.129 8.658l-.048-.047M51.081 8.61l-.048-.095M51.033 8.516V8.42M51.033 8.42l.048-.095M51.081 8.325l.048-.048M51.129 8.277l.095-.047M51.224 8.23h.238M51.462 8.23l.143.047M51.89 8.563h.381M52.033 8.23v.857M52.033 9.087l.048.095M52.081 9.182l.095.048M52.176 9.23h.095M53.033 9.23v-.524M53.033 8.706l-.047-.095M52.986 8.61l-.095-.047M52.89 8.563h-.19M52.7 8.563l-.095.048M53.033 9.182l-.095.048M52.938 9.23H52.7M52.7 9.23l-.095-.048M52.605 9.182l-.048-.095M52.557 9.087v-.095M52.557 8.992l.048-.096M52.605 8.897l.095-.048M52.7 8.849h.238M52.938 8.849l.095-.048M53.51 9.23v-1M53.51 8.61l.095-.047M53.605 8.563h.19M53.795 8.563l.096.048M53.89 8.61l.048.048M53.938 8.658l.048.096M53.986 8.754v.285M53.986 9.04l-.048.095M53.938 9.135l-.047.047M53.89 9.182l-.095.048M53.795 9.23h-.19M53.605 9.23l-.095-.048M54.414 9.23v-.667M54.414 8.23l-.047.047M54.367 8.277l.047.048M54.414 8.325l.048-.048M54.462 8.277l-.048-.047M54.414 8.23v.095M55.033 9.23l-.095-.048M54.938 9.182l-.047-.095M54.89 9.087V8.23M55.414 9.23v-.667M55.414 8.23l-.047.047M55.367 8.277l.047.048M55.414 8.325l.048-.048M55.462 8.277l-.048-.047M55.414 8.23v.095M55.795 8.563h.524M56.319 8.563l-.524.667M55.795 9.23h.524M57.081 9.182l-.095.048M56.986 9.23h-.19M56.795 9.23l-.095-.048M56.7 9.182l-.048-.095M56.652 9.087v-.381M56.652 8.706l.048-.095M56.7 8.61l.095-.047M56.795 8.563h.19M56.986 8.563l.095.048M57.081 8.61l.048.096M57.129 8.706v.095M57.129 8.801l-.477.095M57.557 9.23v-.667M57.557 8.754l.048-.096M57.605 8.658l.047-.047M57.652 8.61l.096-.047M57.748 8.563h.095M57.938 9.325h.762M58.938 9.23v-1M58.938 8.23l.333.714M59.271 8.944l.334-.714M59.605 8.23v1M59.986 8.23l.666 1M60.652 8.23l-.666 1M60.795 9.325h.762M62.224 8.23h-.19M62.033 8.23l-.095.047M61.938 8.277l-.047.048M61.89 8.325l-.095.143M61.795 8.468l-.047.19M61.748 8.658v.381M61.748 9.04l.047.095M61.795 9.135l.048.047M61.843 9.182l.095.048M61.938 9.23h.19M62.129 9.23l.095-.048M62.224 9.182l.047-.047M62.271 9.135l.048-.096M62.319 9.04V8.8M62.319 8.801l-.048-.095M62.271 8.706l-.047-.048M62.224 8.658l-.095-.047M62.129 8.61h-.19M61.938 8.61l-.095.048M61.843 8.658l-.048.048M61.795 8.706l-.047.095M62.748 8.23v.81M62.748 9.04l.047.095M62.795 9.135l.048.047M62.843 9.182l.095.048M62.938 9.23h.19M63.129 9.23l.095-.048M63.224 9.182l.047-.047M63.271 9.135l.048-.096M63.319 9.04v-.81"/>
        </g>
        <g class="stroked-text">
            <path d="m55.867 10.83-.334-.476M55.295 10.83v-1M55.295 9.83h.381M55.676 9.83l.095.047M55.771 9.877l.048.048M55.819 9.925l.048.095M55.867 10.02v.143M55.867 10.163l-.048.095M55.819 10.258l-.048.048M55.771 10.306l-.095.048M55.676 10.354h-.38M56.295 10.306h.334M56.771 10.83h-.476M56.295 10.83v-1M56.295 9.83h.476M57.533 10.306H57.2M57.2 10.83v-1M57.2 9.83h.476M58.2 9.83v.238M57.962 9.973l.238.095M58.2 10.068l.238-.095M58.057 10.258l.143-.19M58.2 10.068l.143.19M58.962 9.83v.238M58.724 9.973l.238.095M58.962 10.068l.238-.095M58.819 10.258l.143-.19M58.962 10.068l.143.19"/>
        </g>
    </g>
    <g style="fill:none;stroke:#afafaf;stroke-width:.1;stroke-opacity:1;stroke-linecap:round;stroke-linejoin:round">
        <path d="M6.2 1.365V19.39M6.2 19.39h1.703M8.02 1.365H6.2M11.18 1.365H13M11.297 19.39H13M13 19.39V1.365M101.4 1.365V19.39M101.4 19.39h1.703M103.22 1.365h-1.82M106.38 1.365h1.82M106.497 19.39h1.703M108.2 19.39V1.365M11.18 1.365a2 2 0 0 0-3.16 0M7.903 19.39a2.2 2.2 0 0 0 3.394 0M106.38 1.365a2 2 0 0 0-3.16 0M103.103 19.39a2.2 2.2 0 0 0 3.394 0"/>
    </g>
    <circle cx="9.6" cy="2.59" r="1.525" style="fill:none;stroke:#afafaf;stroke-width:.0212;stroke-opacity:1;stroke-linecap:round;stroke-linejoin:round"/>
    <circle cx="9.6" cy="17.99" r="1.994" style="fill:none;stroke:#afafaf;stroke-width:.0212;stroke-opacity:1;stroke-linecap:round;stroke-linejoin:round"/>
    <circle cx="104.8" cy="2.59" r="1.525" style="fill:none;stroke:#afafaf;stroke-width:.0212;stroke-opacity:1;stroke-linecap:round;stroke-linejoin:round"/>
    <circle cx="104.8" cy="17.99" r="1.994" style="fill:none;stroke:#afafaf;stroke-width:.0212;stroke-opacity:1;stroke-linecap:round;stroke-linejoin:round"/>
    <g style="fill:none;stroke:#c2c2c2;stroke-width:.12;stroke-opacity:1;stroke-linecap:round;stroke-linejoin:round">
        <path d="M50.2 2.575v1M50.2 2.575h1M50.2 16.575v-1M51.2 16.575h-1M63.2 2.575h1M64.2 2.575v1M64.2 15.575v1M64.2 16.575h-1"/>
        <path d="M.05.05h114.3V19.1H.05Z" style="stroke:#c2c2c2;stroke-width:.1;stroke-opacity:1;stroke-linecap:round;stroke-linejoin:round;fill:none"/>
    </g>
</svg>
