<?xml version="1.0" standalone="no"?>
 <!DOCTYPE svg PUBLIC "-//W3C//DTD SVG 1.1//EN" 
 "http://www.w3.org/Graphics/SVG/1.1/DTD/svg11.dtd"> 
<svg
  xmlns:svg="http://www.w3.org/2000/svg"
  xmlns="http://www.w3.org/2000/svg"
  xmlns:xlink="http://www.w3.org/1999/xlink"
  version="1.1"
  width="38.1762mm" height="20.4216mm" viewBox="0.0000 0.0000 38.1762 20.4216">
<title>SVG Image created as Stabilizer_MX_2U.svg date 2025/04/12 02:58:47 </title>
  <desc>Image generated by PCBNEW </desc>
<g style="fill:#000000; fill-opacity:1.0000;stroke:#000000; stroke-opacity:1.0000;
stroke-linecap:round; stroke-linejoin:round;"
 transform="translate(0 0) scale(1 1)">
</g>
<g style="fill:none; 
stroke:#585D84; stroke-width:0.0212; stroke-opacity:1; 
stroke-linecap:round; stroke-linejoin:round;">
<circle cx="7.1620" cy="2.5750" r="1.5250" /> 
</g>
<g style="fill:none; 
stroke:#585D84; stroke-width:0.0212; stroke-opacity:1; 
stroke-linecap:round; stroke-linejoin:round;">
<circle cx="7.1620" cy="17.8150" r="1.9939" /> 
</g>
<g style="fill:none; 
stroke:#585D84; stroke-width:0.0212; stroke-opacity:1; 
stroke-linecap:round; stroke-linejoin:round;">
<circle cx="31.0380" cy="2.5750" r="1.5250" /> 
</g>
<g style="fill:none; 
stroke:#585D84; stroke-width:0.0212; stroke-opacity:1; 
stroke-linecap:round; stroke-linejoin:round;">
<circle cx="31.0380" cy="17.8150" r="1.9939" /> 
</g>
<g style="fill:none; 
stroke:#AFAFAF; stroke-width:0.1500; stroke-opacity:1; 
stroke-linecap:round; stroke-linejoin:round;">
<text x="19.1000" y="9.2750"
textLength="12.9643" font-size="1.3333" lengthAdjust="spacingAndGlyphs"
text-anchor="middle" opacity="0" stroke-opacity="0">Stabilizer_MX_2U</text>
<g class="stroked-text"><desc>Stabilizer_MX_2U</desc>
<path d="M12.9333 9.1822
L13.0762 9.2298
" />
<path d="M13.0762 9.2298
L13.3143 9.2298
" />
<path d="M13.3143 9.2298
L13.4095 9.1822
" />
<path d="M13.4095 9.1822
L13.4571 9.1346
" />
<path d="M13.4571 9.1346
L13.5048 9.0393
" />
<path d="M13.5048 9.0393
L13.5048 8.9441
" />
<path d="M13.5048 8.9441
L13.4571 8.8489
" />
<path d="M13.4571 8.8489
L13.4095 8.8012
" />
<path d="M13.4095 8.8012
L13.3143 8.7536
" />
<path d="M13.3143 8.7536
L13.1238 8.7060
" />
<path d="M13.1238 8.7060
L13.0286 8.6584
" />
<path d="M13.0286 8.6584
L12.9810 8.6108
" />
<path d="M12.9810 8.6108
L12.9333 8.5155
" />
<path d="M12.9333 8.5155
L12.9333 8.4203
" />
<path d="M12.9333 8.4203
L12.9810 8.3251
" />
<path d="M12.9810 8.3251
L13.0286 8.2774
" />
<path d="M13.0286 8.2774
L13.1238 8.2298
" />
<path d="M13.1238 8.2298
L13.3619 8.2298
" />
<path d="M13.3619 8.2298
L13.5048 8.2774
" />
<path d="M13.7905 8.5632
L14.1714 8.5632
" />
<path d="M13.9333 8.2298
L13.9333 9.0870
" />
<path d="M13.9333 9.0870
L13.9810 9.1822
" />
<path d="M13.9810 9.1822
L14.0762 9.2298
" />
<path d="M14.0762 9.2298
L14.1714 9.2298
" />
<path d="M14.9333 9.2298
L14.9333 8.7060
" />
<path d="M14.9333 8.7060
L14.8857 8.6108
" />
<path d="M14.8857 8.6108
L14.7905 8.5632
" />
<path d="M14.7905 8.5632
L14.6000 8.5632
" />
<path d="M14.6000 8.5632
L14.5048 8.6108
" />
<path d="M14.9333 9.1822
L14.8381 9.2298
" />
<path d="M14.8381 9.2298
L14.6000 9.2298
" />
<path d="M14.6000 9.2298
L14.5048 9.1822
" />
<path d="M14.5048 9.1822
L14.4571 9.0870
" />
<path d="M14.4571 9.0870
L14.4571 8.9917
" />
<path d="M14.4571 8.9917
L14.5048 8.8965
" />
<path d="M14.5048 8.8965
L14.6000 8.8489
" />
<path d="M14.6000 8.8489
L14.8381 8.8489
" />
<path d="M14.8381 8.8489
L14.9333 8.8012
" />
<path d="M15.4095 9.2298
L15.4095 8.2298
" />
<path d="M15.4095 8.6108
L15.5048 8.5632
" />
<path d="M15.5048 8.5632
L15.6952 8.5632
" />
<path d="M15.6952 8.5632
L15.7905 8.6108
" />
<path d="M15.7905 8.6108
L15.8381 8.6584
" />
<path d="M15.8381 8.6584
L15.8857 8.7536
" />
<path d="M15.8857 8.7536
L15.8857 9.0393
" />
<path d="M15.8857 9.0393
L15.8381 9.1346
" />
<path d="M15.8381 9.1346
L15.7905 9.1822
" />
<path d="M15.7905 9.1822
L15.6952 9.2298
" />
<path d="M15.6952 9.2298
L15.5048 9.2298
" />
<path d="M15.5048 9.2298
L15.4095 9.1822
" />
<path d="M16.3143 9.2298
L16.3143 8.5632
" />
<path d="M16.3143 8.2298
L16.2667 8.2774
" />
<path d="M16.2667 8.2774
L16.3143 8.3251
" />
<path d="M16.3143 8.3251
L16.3619 8.2774
" />
<path d="M16.3619 8.2774
L16.3143 8.2298
" />
<path d="M16.3143 8.2298
L16.3143 8.3251
" />
<path d="M16.9333 9.2298
L16.8381 9.1822
" />
<path d="M16.8381 9.1822
L16.7905 9.0870
" />
<path d="M16.7905 9.0870
L16.7905 8.2298
" />
<path d="M17.3143 9.2298
L17.3143 8.5632
" />
<path d="M17.3143 8.2298
L17.2667 8.2774
" />
<path d="M17.2667 8.2774
L17.3143 8.3251
" />
<path d="M17.3143 8.3251
L17.3619 8.2774
" />
<path d="M17.3619 8.2774
L17.3143 8.2298
" />
<path d="M17.3143 8.2298
L17.3143 8.3251
" />
<path d="M17.6952 8.5632
L18.2190 8.5632
" />
<path d="M18.2190 8.5632
L17.6952 9.2298
" />
<path d="M17.6952 9.2298
L18.2190 9.2298
" />
<path d="M18.9810 9.1822
L18.8857 9.2298
" />
<path d="M18.8857 9.2298
L18.6952 9.2298
" />
<path d="M18.6952 9.2298
L18.6000 9.1822
" />
<path d="M18.6000 9.1822
L18.5524 9.0870
" />
<path d="M18.5524 9.0870
L18.5524 8.7060
" />
<path d="M18.5524 8.7060
L18.6000 8.6108
" />
<path d="M18.6000 8.6108
L18.6952 8.5632
" />
<path d="M18.6952 8.5632
L18.8857 8.5632
" />
<path d="M18.8857 8.5632
L18.9810 8.6108
" />
<path d="M18.9810 8.6108
L19.0286 8.7060
" />
<path d="M19.0286 8.7060
L19.0286 8.8012
" />
<path d="M19.0286 8.8012
L18.5524 8.8965
" />
<path d="M19.4571 9.2298
L19.4571 8.5632
" />
<path d="M19.4571 8.7536
L19.5048 8.6584
" />
<path d="M19.5048 8.6584
L19.5524 8.6108
" />
<path d="M19.5524 8.6108
L19.6476 8.5632
" />
<path d="M19.6476 8.5632
L19.7429 8.5632
" />
<path d="M19.8381 9.3251
L20.6000 9.3251
" />
<path d="M20.8381 9.2298
L20.8381 8.2298
" />
<path d="M20.8381 8.2298
L21.1714 8.9441
" />
<path d="M21.1714 8.9441
L21.5048 8.2298
" />
<path d="M21.5048 8.2298
L21.5048 9.2298
" />
<path d="M21.8857 8.2298
L22.5524 9.2298
" />
<path d="M22.5524 8.2298
L21.8857 9.2298
" />
<path d="M22.6952 9.3251
L23.4571 9.3251
" />
<path d="M23.6476 8.3251
L23.6952 8.2774
" />
<path d="M23.6952 8.2774
L23.7905 8.2298
" />
<path d="M23.7905 8.2298
L24.0286 8.2298
" />
<path d="M24.0286 8.2298
L24.1238 8.2774
" />
<path d="M24.1238 8.2774
L24.1714 8.3251
" />
<path d="M24.1714 8.3251
L24.2190 8.4203
" />
<path d="M24.2190 8.4203
L24.2190 8.5155
" />
<path d="M24.2190 8.5155
L24.1714 8.6584
" />
<path d="M24.1714 8.6584
L23.6000 9.2298
" />
<path d="M23.6000 9.2298
L24.2190 9.2298
" />
<path d="M24.6476 8.2298
L24.6476 9.0393
" />
<path d="M24.6476 9.0393
L24.6952 9.1346
" />
<path d="M24.6952 9.1346
L24.7429 9.1822
" />
<path d="M24.7429 9.1822
L24.8381 9.2298
" />
<path d="M24.8381 9.2298
L25.0286 9.2298
" />
<path d="M25.0286 9.2298
L25.1238 9.1822
" />
<path d="M25.1238 9.1822
L25.1714 9.1346
" />
<path d="M25.1714 9.1346
L25.2190 9.0393
" />
<path d="M25.2190 9.0393
L25.2190 8.2298
" />
</g><text x="19.1000" y="10.8750"
textLength="4.5357" font-size="1.3333" lengthAdjust="spacingAndGlyphs"
text-anchor="middle" opacity="0" stroke-opacity="0">REF**</text>
<g class="stroked-text"><desc>REF**</desc>
<path d="M17.7667 10.8298
L17.4333 10.3536
" />
<path d="M17.1952 10.8298
L17.1952 9.8298
" />
<path d="M17.1952 9.8298
L17.5762 9.8298
" />
<path d="M17.5762 9.8298
L17.6714 9.8774
" />
<path d="M17.6714 9.8774
L17.7190 9.9251
" />
<path d="M17.7190 9.9251
L17.7667 10.0203
" />
<path d="M17.7667 10.0203
L17.7667 10.1631
" />
<path d="M17.7667 10.1631
L17.7190 10.2584
" />
<path d="M17.7190 10.2584
L17.6714 10.3060
" />
<path d="M17.6714 10.3060
L17.5762 10.3536
" />
<path d="M17.5762 10.3536
L17.1952 10.3536
" />
<path d="M18.1952 10.3060
L18.5286 10.3060
" />
<path d="M18.6714 10.8298
L18.1952 10.8298
" />
<path d="M18.1952 10.8298
L18.1952 9.8298
" />
<path d="M18.1952 9.8298
L18.6714 9.8298
" />
<path d="M19.4333 10.3060
L19.1000 10.3060
" />
<path d="M19.1000 10.8298
L19.1000 9.8298
" />
<path d="M19.1000 9.8298
L19.5762 9.8298
" />
<path d="M20.1000 9.8298
L20.1000 10.0679
" />
<path d="M19.8619 9.9727
L20.1000 10.0679
" />
<path d="M20.1000 10.0679
L20.3381 9.9727
" />
<path d="M19.9571 10.2584
L20.1000 10.0679
" />
<path d="M20.1000 10.0679
L20.2429 10.2584
" />
<path d="M20.8619 9.8298
L20.8619 10.0679
" />
<path d="M20.6238 9.9727
L20.8619 10.0679
" />
<path d="M20.8619 10.0679
L21.1000 9.9727
" />
<path d="M20.7190 10.2584
L20.8619 10.0679
" />
<path d="M20.8619 10.0679
L21.0048 10.2584
" />
</g></g>
<g style="fill:none; 
stroke:#AFAFAF; stroke-width:0.0212; stroke-opacity:1; 
stroke-linecap:round; stroke-linejoin:round;">
<circle cx="7.1620" cy="2.5750" r="1.5250" /> 
</g>
<g style="fill:none; 
stroke:#AFAFAF; stroke-width:0.0212; stroke-opacity:1; 
stroke-linecap:round; stroke-linejoin:round;">
<circle cx="7.1620" cy="17.8150" r="1.9939" /> 
</g>
<g style="fill:none; 
stroke:#AFAFAF; stroke-width:0.0212; stroke-opacity:1; 
stroke-linecap:round; stroke-linejoin:round;">
<circle cx="31.0380" cy="2.5750" r="1.5250" /> 
</g>
<g style="fill:none; 
stroke:#AFAFAF; stroke-width:0.0212; stroke-opacity:1; 
stroke-linecap:round; stroke-linejoin:round;">
<circle cx="31.0380" cy="17.8150" r="1.9939" /> 
</g>
<g style="fill:none; 
stroke:#C2C2C2; stroke-width:0.1000; stroke-opacity:1; 
stroke-linecap:round; stroke-linejoin:round;">
<path d="M3.7870 17.0600
L3.7870 4.0600
" />
<path d="M4.2870 3.5600
L10.0370 3.5600
" />
<path d="M10.0370 17.5600
L4.2870 17.5600
" />
<path d="M10.5370 4.0600
L10.5370 17.0600
" />
</g>
<g style="fill:none; 
stroke:#C2C2C2; stroke-width:0.1200; stroke-opacity:1; 
stroke-linecap:round; stroke-linejoin:round;">
<path d="M12.1000 2.5750
L12.1000 3.5750
" />
<path d="M12.1000 2.5750
L13.1000 2.5750
" />
<path d="M12.1000 16.5750
L12.1000 15.5750
" />
<path d="M13.1000 16.5750
L12.1000 16.5750
" />
<path d="M25.1000 2.5750
L26.1000 2.5750
" />
<path d="M26.1000 2.5750
L26.1000 3.5750
" />
<path d="M26.1000 15.5750
L26.1000 16.5750
" />
<path d="M26.1000 16.5750
L25.1000 16.5750
" />
</g>
<g style="fill:none; 
stroke:#C2C2C2; stroke-width:0.1000; stroke-opacity:1; 
stroke-linecap:round; stroke-linejoin:round;">
<path d="M27.6630 17.0600
L27.6630 4.0600
" />
<path d="M28.1630 3.5600
L33.9130 3.5600
" />
<path d="M33.9130 17.5600
L28.1630 17.5600
" />
<path d="M34.4130 4.0600
L34.4130 17.0600
" />
<path style="fill:none; 
stroke:#C2C2C2; stroke-width:0.1000; stroke-opacity:1; 
stroke-linecap:round; stroke-linejoin:round;fill:none"
d="M 0.0500,0.0500
38.1500,0.0500
38.1500,19.1000
0.0500,19.1000
Z" /> 
<path d="M4.2870 3.5600 A0.5000 0.5000 0.0 0 0 3.7870 4.0600" />
<path d="M3.7870 17.0600 A0.5000 0.5000 0.0 0 0 4.2870 17.5600" />
<path d="M10.5370 4.0600 A0.5000 0.5000 0.0 0 0 10.0370 3.5600" />
<path d="M10.0370 17.5600 A0.5000 0.5000 0.0 0 0 10.5370 17.0600" />
<path d="M28.1630 3.5600 A0.5000 0.5000 0.0 0 0 27.6630 4.0600" />
<path d="M27.6630 17.0600 A0.5000 0.5000 0.0 0 0 28.1630 17.5600" />
<path d="M34.4130 4.0600 A0.5000 0.5000 0.0 0 0 33.9130 3.5600" />
<path d="M33.9130 17.5600 A0.5000 0.5000 0.0 0 0 34.4130 17.0600" />
</g> 
</svg>
