<svg xmlns="http://www.w3.org/2000/svg" width="504.288" height="77.952" viewBox="0 0 133.426 20.625">
    <circle cx="9.525" cy="2.59" r="1.525" style="fill:none;stroke:#585d84;stroke-width:.0212;stroke-opacity:1;stroke-linecap:round;stroke-linejoin:round"/>
    <circle cx="9.525" cy="17.99" r="1.994" style="fill:none;stroke:#585d84;stroke-width:.0212;stroke-opacity:1;stroke-linecap:round;stroke-linejoin:round"/>
    <circle cx="123.925" cy="2.59" r="1.525" style="fill:none;stroke:#585d84;stroke-width:.0212;stroke-opacity:1;stroke-linecap:round;stroke-linejoin:round"/>
    <circle cx="123.925" cy="17.99" r="1.994" style="fill:none;stroke:#585d84;stroke-width:.0212;stroke-opacity:1;stroke-linecap:round;stroke-linejoin:round"/>
    <g style="fill:none;stroke:#afafaf;stroke-width:.15;stroke-opacity:1;stroke-linecap:round;stroke-linejoin:round">
        <g class="stroked-text">
            <path d="m60.558 9.182.143.048M60.701 9.23h.238M60.94 9.23l.095-.048M61.035 9.182l.047-.047M61.082 9.135l.048-.096M61.13 9.04v-.096M61.13 8.944l-.048-.095M61.082 8.849l-.047-.048M61.035 8.801l-.096-.047M60.94 8.754l-.191-.048M60.749 8.706l-.095-.048M60.654 8.658l-.048-.047M60.606 8.61l-.048-.095M60.558 8.516V8.42M60.558 8.42l.048-.095M60.606 8.325l.048-.048M60.654 8.277l.095-.047M60.749 8.23h.238M60.987 8.23l.143.047M61.416 8.563h.38M61.558 8.23v.857M61.558 9.087l.048.095M61.606 9.182l.095.048M61.701 9.23h.095M62.558 9.23v-.524M62.558 8.706l-.047-.095M62.51 8.61l-.094-.047M62.416 8.563h-.191M62.225 8.563l-.095.048M62.558 9.182l-.095.048M62.463 9.23h-.238M62.225 9.23l-.095-.048M62.13 9.182l-.048-.095M62.082 9.087v-.095M62.082 8.992l.048-.096M62.13 8.897l.095-.048M62.225 8.849h.238M62.463 8.849l.095-.048M63.035 9.23v-1M63.035 8.61l.095-.047M63.13 8.563h.19M63.32 8.563l.096.048M63.416 8.61l.047.048M63.463 8.658l.048.096M63.51 8.754v.285M63.51 9.04l-.047.095M63.463 9.135l-.047.047M63.416 9.182l-.096.048M63.32 9.23h-.19M63.13 9.23l-.096-.048M63.94 9.23v-.667M63.94 8.23l-.048.047M63.892 8.277l.047.048M63.94 8.325l.047-.048M63.987 8.277l-.048-.047M63.94 8.23v.095M64.558 9.23l-.095-.048M64.463 9.182l-.047-.095M64.415 9.087V8.23M64.94 9.23v-.667M64.94 8.23l-.048.047M64.892 8.277l.047.048M64.94 8.325l.047-.048M64.987 8.277l-.048-.047M64.94 8.23v.095M65.32 8.563h.524M65.844 8.563l-.524.667M65.32 9.23h.524M66.606 9.182l-.095.048M66.51 9.23h-.19M66.32 9.23l-.095-.048M66.225 9.182l-.048-.095M66.177 9.087v-.381M66.177 8.706l.048-.095M66.225 8.61l.095-.047M66.32 8.563h.19M66.51 8.563l.096.048M66.606 8.61l.048.096M66.654 8.706v.095M66.654 8.801l-.477.095M67.082 9.23v-.667M67.082 8.754l.048-.096M67.13 8.658l.047-.047M67.177 8.61l.096-.047M67.273 8.563h.095M67.463 9.325h.762M68.463 9.23v-1M68.463 8.23l.333.714M68.796 8.944l.334-.714M69.13 8.23v1M69.51 8.23l.667 1M70.177 8.23l-.666 1M70.32 9.325h.762M71.225 8.23h.667M71.892 8.23l-.429 1M72.273 8.23v.81M72.273 9.04l.047.095M72.32 9.135l.048.047M72.368 9.182l.095.048M72.463 9.23h.19M72.654 9.23l.095-.048M72.749 9.182l.047-.047M72.796 9.135l.048-.096M72.844 9.04v-.81"/>
        </g>
        <g class="stroked-text">
            <path d="m65.392 10.83-.334-.476M64.82 10.83v-1M64.82 9.83h.381M65.201 9.83l.095.047M65.296 9.877l.048.048M65.344 9.925l.048.095M65.392 10.02v.143M65.392 10.163l-.048.095M65.344 10.258l-.048.048M65.296 10.306l-.095.048M65.201 10.354h-.38M65.82 10.306h.334M66.296 10.83h-.476M65.82 10.83v-1M65.82 9.83h.476M67.058 10.306h-.333M66.725 10.83v-1M66.725 9.83h.476M67.725 9.83v.238M67.487 9.973l.238.095M67.725 10.068l.238-.095M67.582 10.258l.143-.19M67.725 10.068l.143.19M68.487 9.83v.238M68.249 9.973l.238.095M68.487 10.068l.238-.095M68.344 10.258l.143-.19M68.487 10.068l.143.19"/>
        </g>
    </g>
    <g style="fill:none;stroke:#afafaf;stroke-width:.1;stroke-opacity:1;stroke-linecap:round;stroke-linejoin:round">
        <path d="M6.125 1.365V19.39M6.125 19.39h1.703M7.944 1.365H6.125M11.106 1.365h1.819M11.222 19.39h1.703M12.925 19.39V1.365M120.525 1.365V19.39M120.525 19.39h1.703M122.344 1.365h-1.819M125.506 1.365h1.819M125.622 19.39h1.703M127.325 19.39V1.365M11.106 1.365a2 2 0 0 0-3.162 0M7.828 19.39a2.2 2.2 0 0 0 3.394 0M125.506 1.365a2 2 0 0 0-3.162 0M122.228 19.39a2.2 2.2 0 0 0 3.394 0"/>
    </g>
    <circle cx="9.525" cy="2.59" r="1.525" style="fill:none;stroke:#afafaf;stroke-width:.0212;stroke-opacity:1;stroke-linecap:round;stroke-linejoin:round"/>
    <circle cx="9.525" cy="17.99" r="1.994" style="fill:none;stroke:#afafaf;stroke-width:.0212;stroke-opacity:1;stroke-linecap:round;stroke-linejoin:round"/>
    <circle cx="123.925" cy="2.59" r="1.525" style="fill:none;stroke:#afafaf;stroke-width:.0212;stroke-opacity:1;stroke-linecap:round;stroke-linejoin:round"/>
    <circle cx="123.925" cy="17.99" r="1.994" style="fill:none;stroke:#afafaf;stroke-width:.0212;stroke-opacity:1;stroke-linecap:round;stroke-linejoin:round"/>
    <g style="fill:none;stroke:#c2c2c2;stroke-width:.12;stroke-opacity:1;stroke-linecap:round;stroke-linejoin:round">
        <path d="M59.725 2.575v1M59.725 2.575h1M59.725 16.575v-1M60.725 16.575h-1M72.725 2.575h1M73.725 2.575v1M73.725 15.575v1M73.725 16.575h-1"/>
        <path d="M.05.05H133.4V19.1H.05Z" style="stroke:#c2c2c2;stroke-width:.1;stroke-opacity:1;stroke-linecap:round;stroke-linejoin:round;fill:none"/>
    </g>
</svg>
