<?xml version="1.0" standalone="no"?>
 <!DOCTYPE svg PUBLIC "-//W3C//DTD SVG 1.1//EN" 
 "http://www.w3.org/Graphics/SVG/1.1/DTD/svg11.dtd"> 
<svg
  xmlns:svg="http://www.w3.org/2000/svg"
  xmlns="http://www.w3.org/2000/svg"
  xmlns:xlink="http://www.w3.org/1999/xlink"
  version="1.1"
  width="19.2024mm" height="18.7452mm" viewBox="0.0000 0.0000 19.2024 18.7452">
<title>SVG Image created as SK6812MINI-E_unit1.svg date 2025/04/10 01:40:37 </title>
  <desc>Image generated by Eeschema-SVG </desc>
<g style="fill:#000000; fill-opacity:1.0000;stroke:#000000; stroke-opacity:1.0000;
stroke-linecap:round; stroke-linejoin:round;"
 transform="translate(0 0) scale(1 1)">
<path style="fill:#FFFFC2; fill-opacity:1.0000; stroke:none;fill-rule:evenodd;"
d="M 4.5212,1.6863
14.6812,1.6863
14.6812,9.9413
12.7762,11.8463
4.5212,11.8463
Z" /> 
<path style="fill:none; 
stroke:#840000; stroke-width:0.2540; stroke-opacity:1; 
stroke-linecap:round; stroke-linejoin:round;fill:none"
d="M 4.5212,1.6863
14.6812,1.6863
14.6812,9.9413
12.7762,11.8463
4.5212,11.8463
Z" /> 
<path style="fill:none; 
stroke:#840000; stroke-width:0.1524; stroke-opacity:1; 
stroke-linecap:round; stroke-linejoin:round;fill:none"
d="M 8.5852,6.0043
9.0932,6.0043
" /> 
<path style="fill:none; 
stroke:#840000; stroke-width:0.1524; stroke-opacity:1; 
stroke-linecap:round; stroke-linejoin:round;fill:none"
d="M 8.5852,7.0203
9.0932,7.0203
" /> 
<path style="fill:none; 
stroke:#840000; stroke-width:0.1524; stroke-opacity:1; 
stroke-linecap:round; stroke-linejoin:round;fill:none"
d="M 9.3472,5.2423
8.5852,6.0043
8.5852,5.4963
" /> 
<path style="fill:none; 
stroke:#840000; stroke-width:0.1524; stroke-opacity:1; 
stroke-linecap:round; stroke-linejoin:round;fill:none"
d="M 9.3472,6.2583
8.5852,7.0203
8.5852,6.5123
" /> 
<path style="fill:none; 
stroke:#840000; stroke-width:0.1524; stroke-opacity:1; 
stroke-linecap:round; stroke-linejoin:round;fill:none"
d="M 10.3632,4.9883
10.3632,7.5283
" /> 
<path style="fill:none; 
stroke:#840000; stroke-width:0.1524; stroke-opacity:1; 
stroke-linecap:round; stroke-linejoin:round;fill:none"
d="M 11.1252,5.4963
9.6012,5.4963
10.3632,7.0203
Z" /> 
<path style="fill:none; 
stroke:#840000; stroke-width:0.1524; stroke-opacity:1; 
stroke-linecap:round; stroke-linejoin:round;fill:none"
d="M 11.1252,7.0203
9.6012,7.0203
" /> 
</g>
<g style="fill:none; 
stroke:#840000; stroke-width:0.1524; stroke-opacity:1; 
stroke-linecap:round; stroke-linejoin:round;">
<text x="9.3472" y="7.9542"
textLength="2.2352" font-size="0.8466" lengthAdjust="spacingAndGlyphs"
text-anchor="middle" opacity="0" stroke-opacity="0">RGB</text>
<g class="stroked-text"><desc>RGB</desc>
<path d="M8.9087 7.9225
L8.6970 7.6201
" />
<path d="M8.5458 7.9225
L8.5458 7.2875
" />
<path d="M8.5458 7.2875
L8.7877 7.2875
" />
<path d="M8.7877 7.2875
L8.8482 7.3177
" />
<path d="M8.8482 7.3177
L8.8785 7.3480
" />
<path d="M8.8785 7.3480
L8.9087 7.4084
" />
<path d="M8.9087 7.4084
L8.9087 7.4992
" />
<path d="M8.9087 7.4992
L8.8785 7.5596
" />
<path d="M8.8785 7.5596
L8.8482 7.5899
" />
<path d="M8.8482 7.5899
L8.7877 7.6201
" />
<path d="M8.7877 7.6201
L8.5458 7.6201
" />
<path d="M9.5135 7.3177
L9.4530 7.2875
" />
<path d="M9.4530 7.2875
L9.3623 7.2875
" />
<path d="M9.3623 7.2875
L9.2716 7.3177
" />
<path d="M9.2716 7.3177
L9.2111 7.3782
" />
<path d="M9.2111 7.3782
L9.1808 7.4387
" />
<path d="M9.1808 7.4387
L9.1506 7.5596
" />
<path d="M9.1506 7.5596
L9.1506 7.6503
" />
<path d="M9.1506 7.6503
L9.1808 7.7713
" />
<path d="M9.1808 7.7713
L9.2111 7.8318
" />
<path d="M9.2111 7.8318
L9.2716 7.8923
" />
<path d="M9.2716 7.8923
L9.3623 7.9225
" />
<path d="M9.3623 7.9225
L9.4227 7.9225
" />
<path d="M9.4227 7.9225
L9.5135 7.8923
" />
<path d="M9.5135 7.8923
L9.5437 7.8620
" />
<path d="M9.5437 7.8620
L9.5437 7.6503
" />
<path d="M9.5437 7.6503
L9.4227 7.6503
" />
<path d="M10.0275 7.5899
L10.1182 7.6201
" />
<path d="M10.1182 7.6201
L10.1485 7.6503
" />
<path d="M10.1485 7.6503
L10.1787 7.7108
" />
<path d="M10.1787 7.7108
L10.1787 7.8015
" />
<path d="M10.1787 7.8015
L10.1485 7.8620
" />
<path d="M10.1485 7.8620
L10.1182 7.8923
" />
<path d="M10.1182 7.8923
L10.0577 7.9225
" />
<path d="M10.0577 7.9225
L9.8158 7.9225
" />
<path d="M9.8158 7.9225
L9.8158 7.2875
" />
<path d="M9.8158 7.2875
L10.0275 7.2875
" />
<path d="M10.0275 7.2875
L10.0880 7.3177
" />
<path d="M10.0880 7.3177
L10.1182 7.3480
" />
<path d="M10.1182 7.3480
L10.1485 7.4084
" />
<path d="M10.1485 7.4084
L10.1485 7.4689
" />
<path d="M10.1485 7.4689
L10.1182 7.5294
" />
<path d="M10.1182 7.5294
L10.0880 7.5596
" />
<path d="M10.0880 7.5596
L10.0275 7.5899
" />
<path d="M10.0275 7.5899
L9.8158 7.5899
" />
</g><path d="M4.5212 4.2263
L1.9812 4.2263
" />
</g>
<g style="fill:none; 
stroke:#006464; stroke-width:0.1524; stroke-opacity:1; 
stroke-linecap:round; stroke-linejoin:round;">
<text x="5.0292" y="4.7978"
textLength="3.4943" font-size="1.5240" lengthAdjust="spacingAndGlyphs"
text-anchor="start" opacity="0" stroke-opacity="0">VDD</text>
<g class="stroked-text"><desc>VDD</desc>
<path d="M5.2382 3.6041
L5.6192 4.7471
" />
<path d="M5.6192 4.7471
L6.0002 3.6041
" />
<path d="M6.3812 4.7471
L6.3812 3.6041
" />
<path d="M6.3812 3.6041
L6.6533 3.6041
" />
<path d="M6.6533 3.6041
L6.8166 3.6585
" />
<path d="M6.8166 3.6585
L6.9255 3.7674
" />
<path d="M6.9255 3.7674
L6.9799 3.8762
" />
<path d="M6.9799 3.8762
L7.0343 4.0939
" />
<path d="M7.0343 4.0939
L7.0343 4.2572
" />
<path d="M7.0343 4.2572
L6.9799 4.4749
" />
<path d="M6.9799 4.4749
L6.9255 4.5838
" />
<path d="M6.9255 4.5838
L6.8166 4.6927
" />
<path d="M6.8166 4.6927
L6.6533 4.7471
" />
<path d="M6.6533 4.7471
L6.3812 4.7471
" />
<path d="M7.5242 4.7471
L7.5242 3.6041
" />
<path d="M7.5242 3.6041
L7.7963 3.6041
" />
<path d="M7.7963 3.6041
L7.9596 3.6585
" />
<path d="M7.9596 3.6585
L8.0685 3.7674
" />
<path d="M8.0685 3.7674
L8.1229 3.8762
" />
<path d="M8.1229 3.8762
L8.1773 4.0939
" />
<path d="M8.1773 4.0939
L8.1773 4.2572
" />
<path d="M8.1773 4.2572
L8.1229 4.4749
" />
<path d="M8.1229 4.4749
L8.0685 4.5838
" />
<path d="M8.0685 4.5838
L7.9596 4.6927
" />
<path d="M7.9596 4.6927
L7.7963 4.7471
" />
<path d="M7.7963 4.7471
L7.5242 4.7471
" />
</g></g>
<g style="fill:none; 
stroke:#A90000; stroke-width:0.1524; stroke-opacity:1; 
stroke-linecap:round; stroke-linejoin:round;">
<text x="3.2512" y="3.9723"
textLength="1.4127" font-size="1.6933" lengthAdjust="spacingAndGlyphs"
text-anchor="middle" opacity="0" stroke-opacity="0">1</text>
<g class="stroked-text"><desc>1</desc>
<path d="M3.6141 3.8088
L2.8884 3.8088
" />
<path d="M3.2512 3.8088
L3.2512 2.5388
" />
<path d="M3.2512 2.5388
L3.1303 2.7203
" />
<path d="M3.1303 2.7203
L3.0093 2.8412
" />
<path d="M3.0093 2.8412
L2.8884 2.9017
" />
</g></g>
<g style="fill:none; 
stroke:#840000; stroke-width:0.1524; stroke-opacity:1; 
stroke-linecap:round; stroke-linejoin:round;">
<path d="M4.5212 9.3063
L1.9812 9.3063
" />
</g>
<g style="fill:none; 
stroke:#006464; stroke-width:0.1524; stroke-opacity:1; 
stroke-linecap:round; stroke-linejoin:round;">
<text x="5.0292" y="9.8778"
textLength="4.6373" font-size="1.5240" lengthAdjust="spacingAndGlyphs"
text-anchor="start" opacity="0" stroke-opacity="0">DOUT</text>
<g class="stroked-text"><desc>DOUT</desc>
<path d="M5.4015 9.8271
L5.4015 8.6841
" />
<path d="M5.4015 8.6841
L5.6736 8.6841
" />
<path d="M5.6736 8.6841
L5.8369 8.7385
" />
<path d="M5.8369 8.7385
L5.9458 8.8474
" />
<path d="M5.9458 8.8474
L6.0002 8.9562
" />
<path d="M6.0002 8.9562
L6.0546 9.1739
" />
<path d="M6.0546 9.1739
L6.0546 9.3372
" />
<path d="M6.0546 9.3372
L6.0002 9.5549
" />
<path d="M6.0002 9.5549
L5.9458 9.6638
" />
<path d="M5.9458 9.6638
L5.8369 9.7727
" />
<path d="M5.8369 9.7727
L5.6736 9.8271
" />
<path d="M5.6736 9.8271
L5.4015 9.8271
" />
<path d="M6.7622 8.6841
L6.9799 8.6841
" />
<path d="M6.9799 8.6841
L7.0888 8.7385
" />
<path d="M7.0888 8.7385
L7.1976 8.8474
" />
<path d="M7.1976 8.8474
L7.2521 9.0651
" />
<path d="M7.2521 9.0651
L7.2521 9.4461
" />
<path d="M7.2521 9.4461
L7.1976 9.6638
" />
<path d="M7.1976 9.6638
L7.0888 9.7727
" />
<path d="M7.0888 9.7727
L6.9799 9.8271
" />
<path d="M6.9799 9.8271
L6.7622 9.8271
" />
<path d="M6.7622 9.8271
L6.6534 9.7727
" />
<path d="M6.6534 9.7727
L6.5445 9.6638
" />
<path d="M6.5445 9.6638
L6.4901 9.4461
" />
<path d="M6.4901 9.4461
L6.4901 9.0651
" />
<path d="M6.4901 9.0651
L6.5445 8.8474
" />
<path d="M6.5445 8.8474
L6.6534 8.7385
" />
<path d="M6.6534 8.7385
L6.7622 8.6841
" />
<path d="M7.7419 8.6841
L7.7419 9.6094
" />
<path d="M7.7419 9.6094
L7.7963 9.7182
" />
<path d="M7.7963 9.7182
L7.8508 9.7727
" />
<path d="M7.8508 9.7727
L7.9596 9.8271
" />
<path d="M7.9596 9.8271
L8.1773 9.8271
" />
<path d="M8.1773 9.8271
L8.2862 9.7727
" />
<path d="M8.2862 9.7727
L8.3406 9.7182
" />
<path d="M8.3406 9.7182
L8.3950 9.6094
" />
<path d="M8.3950 9.6094
L8.3950 8.6841
" />
<path d="M8.7760 8.6841
L9.4292 8.6841
" />
<path d="M9.1026 9.8271
L9.1026 8.6841
" />
</g></g>
<g style="fill:none; 
stroke:#A90000; stroke-width:0.1524; stroke-opacity:1; 
stroke-linecap:round; stroke-linejoin:round;">
<text x="3.2512" y="9.0523"
textLength="1.4127" font-size="1.6933" lengthAdjust="spacingAndGlyphs"
text-anchor="middle" opacity="0" stroke-opacity="0">2</text>
<g class="stroked-text"><desc>2</desc>
<path d="M2.8884 7.7398
L2.9488 7.6793
" />
<path d="M2.9488 7.6793
L3.0698 7.6188
" />
<path d="M3.0698 7.6188
L3.3722 7.6188
" />
<path d="M3.3722 7.6188
L3.4931 7.6793
" />
<path d="M3.4931 7.6793
L3.5536 7.7398
" />
<path d="M3.5536 7.7398
L3.6141 7.8607
" />
<path d="M3.6141 7.8607
L3.6141 7.9817
" />
<path d="M3.6141 7.9817
L3.5536 8.1631
" />
<path d="M3.5536 8.1631
L2.8279 8.8888
" />
<path d="M2.8279 8.8888
L3.6141 8.8888
" />
</g></g>
<g style="fill:none; 
stroke:#840000; stroke-width:0.1524; stroke-opacity:1; 
stroke-linecap:round; stroke-linejoin:round;">
<path d="M14.6812 4.2263
L17.2212 4.2263
" />
</g>
<g style="fill:none; 
stroke:#006464; stroke-width:0.1524; stroke-opacity:1; 
stroke-linecap:round; stroke-linejoin:round;">
<text x="14.1732" y="4.7978"
textLength="3.1133" font-size="1.5240" lengthAdjust="spacingAndGlyphs"
text-anchor="end" opacity="0" stroke-opacity="0">DIN</text>
<g class="stroked-text"><desc>DIN</desc>
<path d="M11.4604 4.7471
L11.4604 3.6041
" />
<path d="M11.4604 3.6041
L11.7325 3.6041
" />
<path d="M11.7325 3.6041
L11.8958 3.6585
" />
<path d="M11.8958 3.6585
L12.0047 3.7674
" />
<path d="M12.0047 3.7674
L12.0591 3.8762
" />
<path d="M12.0591 3.8762
L12.1135 4.0939
" />
<path d="M12.1135 4.0939
L12.1135 4.2572
" />
<path d="M12.1135 4.2572
L12.0591 4.4749
" />
<path d="M12.0591 4.4749
L12.0047 4.5838
" />
<path d="M12.0047 4.5838
L11.8958 4.6927
" />
<path d="M11.8958 4.6927
L11.7325 4.7471
" />
<path d="M11.7325 4.7471
L11.4604 4.7471
" />
<path d="M12.6034 4.7471
L12.6034 3.6041
" />
<path d="M13.1477 4.7471
L13.1477 3.6041
" />
<path d="M13.1477 3.6041
L13.8008 4.7471
" />
<path d="M13.8008 4.7471
L13.8008 3.6041
" />
</g></g>
<g style="fill:none; 
stroke:#A90000; stroke-width:0.1524; stroke-opacity:1; 
stroke-linecap:round; stroke-linejoin:round;">
<text x="15.9512" y="3.9723"
textLength="1.4127" font-size="1.6933" lengthAdjust="spacingAndGlyphs"
text-anchor="middle" opacity="0" stroke-opacity="0">4</text>
<g class="stroked-text"><desc>4</desc>
<path d="M16.1931 2.9622
L16.1931 3.8088
" />
<path d="M15.8907 2.4784
L15.5884 3.3855
" />
<path d="M15.5884 3.3855
L16.3745 3.3855
" />
</g></g>
<g style="fill:none; 
stroke:#840000; stroke-width:0.1524; stroke-opacity:1; 
stroke-linecap:round; stroke-linejoin:round;">
<path d="M14.6812 9.3063
L17.2212 9.3063
" />
</g>
<g style="fill:none; 
stroke:#006464; stroke-width:0.1524; stroke-opacity:1; 
stroke-linecap:round; stroke-linejoin:round;">
<text x="14.1732" y="9.8778"
textLength="3.7120" font-size="1.5240" lengthAdjust="spacingAndGlyphs"
text-anchor="end" opacity="0" stroke-opacity="0">GND</text>
<g class="stroked-text"><desc>GND</desc>
<path d="M11.4604 8.7385
L11.3516 8.6841
" />
<path d="M11.3516 8.6841
L11.1883 8.6841
" />
<path d="M11.1883 8.6841
L11.0250 8.7385
" />
<path d="M11.0250 8.7385
L10.9161 8.8474
" />
<path d="M10.9161 8.8474
L10.8617 8.9562
" />
<path d="M10.8617 8.9562
L10.8073 9.1739
" />
<path d="M10.8073 9.1739
L10.8073 9.3372
" />
<path d="M10.8073 9.3372
L10.8617 9.5549
" />
<path d="M10.8617 9.5549
L10.9161 9.6638
" />
<path d="M10.9161 9.6638
L11.0250 9.7727
" />
<path d="M11.0250 9.7727
L11.1883 9.8271
" />
<path d="M11.1883 9.8271
L11.2971 9.8271
" />
<path d="M11.2971 9.8271
L11.4604 9.7727
" />
<path d="M11.4604 9.7727
L11.5148 9.7182
" />
<path d="M11.5148 9.7182
L11.5148 9.3372
" />
<path d="M11.5148 9.3372
L11.2971 9.3372
" />
<path d="M12.0047 9.8271
L12.0047 8.6841
" />
<path d="M12.0047 8.6841
L12.6578 9.8271
" />
<path d="M12.6578 9.8271
L12.6578 8.6841
" />
<path d="M13.2021 9.8271
L13.2021 8.6841
" />
<path d="M13.2021 8.6841
L13.4742 8.6841
" />
<path d="M13.4742 8.6841
L13.6375 8.7385
" />
<path d="M13.6375 8.7385
L13.7464 8.8474
" />
<path d="M13.7464 8.8474
L13.8008 8.9562
" />
<path d="M13.8008 8.9562
L13.8552 9.1739
" />
<path d="M13.8552 9.1739
L13.8552 9.3372
" />
<path d="M13.8552 9.3372
L13.8008 9.5549
" />
<path d="M13.8008 9.5549
L13.7464 9.6638
" />
<path d="M13.7464 9.6638
L13.6375 9.7727
" />
<path d="M13.6375 9.7727
L13.4742 9.8271
" />
<path d="M13.4742 9.8271
L13.2021 9.8271
" />
</g></g>
<g style="fill:none; 
stroke:#A90000; stroke-width:0.1524; stroke-opacity:1; 
stroke-linecap:round; stroke-linejoin:round;">
<text x="15.9512" y="9.0523"
textLength="1.4127" font-size="1.6933" lengthAdjust="spacingAndGlyphs"
text-anchor="middle" opacity="0" stroke-opacity="0">3</text>
<g class="stroked-text"><desc>3</desc>
<path d="M15.5279 7.6188
L16.3141 7.6188
" />
<path d="M16.3141 7.6188
L15.8907 8.1026
" />
<path d="M15.8907 8.1026
L16.0722 8.1026
" />
<path d="M16.0722 8.1026
L16.1931 8.1631
" />
<path d="M16.1931 8.1631
L16.2536 8.2236
" />
<path d="M16.2536 8.2236
L16.3141 8.3445
" />
<path d="M16.3141 8.3445
L16.3141 8.6469
" />
<path d="M16.3141 8.6469
L16.2536 8.7679
" />
<path d="M16.2536 8.7679
L16.1931 8.8284
" />
<path d="M16.1931 8.8284
L16.0722 8.8888
" />
<path d="M16.0722 8.8888
L15.7093 8.8888
" />
<path d="M15.7093 8.8888
L15.5884 8.8284
" />
<path d="M15.5884 8.8284
L15.5279 8.7679
" />
</g></g>
<g style="fill:none; 
stroke:#006464; stroke-width:0.1524; stroke-opacity:1; 
stroke-linecap:round; stroke-linejoin:round;">
<text x="0.0000" y="5.1407"
textLength="4.7389" font-size="1.6933" lengthAdjust="spacingAndGlyphs"
text-anchor="middle" opacity="0" stroke-opacity="0">LED?</text>
<g class="stroked-text"><desc>LED?</desc>
<path d="M-1.3606 5.0852
L-1.9654 5.0852
" />
<path d="M-1.9654 5.0852
L-1.9654 3.8152
" />
<path d="M-0.9373 4.4200
L-0.5139 4.4200
" />
<path d="M-0.3325 5.0852
L-0.9373 5.0852
" />
<path d="M-0.9373 5.0852
L-0.9373 3.8152
" />
<path d="M-0.9373 3.8152
L-0.3325 3.8152
" />
<path d="M0.2116 5.0852
L0.2116 3.8152
" />
<path d="M0.2116 3.8152
L0.5140 3.8152
" />
<path d="M0.5140 3.8152
L0.6954 3.8757
" />
<path d="M0.6954 3.8757
L0.8164 3.9967
" />
<path d="M0.8164 3.9967
L0.8769 4.1176
" />
<path d="M0.8769 4.1176
L0.9373 4.3595
" />
<path d="M0.9373 4.3595
L0.9373 4.5409
" />
<path d="M0.9373 4.5409
L0.8769 4.7828
" />
<path d="M0.8769 4.7828
L0.8164 4.9038
" />
<path d="M0.8164 4.9038
L0.6954 5.0248
" />
<path d="M0.6954 5.0248
L0.5140 5.0852
" />
<path d="M0.5140 5.0852
L0.2116 5.0852
" />
<path d="M1.6631 4.9643
L1.7235 5.0248
" />
<path d="M1.7235 5.0248
L1.6631 5.0852
" />
<path d="M1.6631 5.0852
L1.6026 5.0248
" />
<path d="M1.6026 5.0248
L1.6631 4.9643
" />
<path d="M1.6631 4.9643
L1.6631 5.0852
" />
<path d="M1.4212 3.8757
L1.5421 3.8152
" />
<path d="M1.5421 3.8152
L1.8445 3.8152
" />
<path d="M1.8445 3.8152
L1.9654 3.8757
" />
<path d="M1.9654 3.8757
L2.0259 3.9967
" />
<path d="M2.0259 3.9967
L2.0259 4.1176
" />
<path d="M2.0259 4.1176
L1.9654 4.2386
" />
<path d="M1.9654 4.2386
L1.9050 4.2990
" />
<path d="M1.9050 4.2990
L1.7840 4.3595
" />
<path d="M1.7840 4.3595
L1.7235 4.4200
" />
<path d="M1.7235 4.4200
L1.6631 4.5409
" />
<path d="M1.6631 4.5409
L1.6631 4.6014
" />
</g><text x="0.0000" y="7.4267"
textLength="14.2336" font-size="1.6933" lengthAdjust="spacingAndGlyphs"
text-anchor="middle" opacity="0" stroke-opacity="0">SK6812MINI-E</text>
<g class="stroked-text"><desc>SK6812MINI-E</desc>
<path d="M-6.7732 7.3108
L-6.5918 7.3712
" />
<path d="M-6.5918 7.3712
L-6.2894 7.3712
" />
<path d="M-6.2894 7.3712
L-6.1685 7.3108
" />
<path d="M-6.1685 7.3108
L-6.1080 7.2503
" />
<path d="M-6.1080 7.2503
L-6.0475 7.1293
" />
<path d="M-6.0475 7.1293
L-6.0475 7.0084
" />
<path d="M-6.0475 7.0084
L-6.1080 6.8874
" />
<path d="M-6.1080 6.8874
L-6.1685 6.8269
" />
<path d="M-6.1685 6.8269
L-6.2894 6.7665
" />
<path d="M-6.2894 6.7665
L-6.5313 6.7060
" />
<path d="M-6.5313 6.7060
L-6.6523 6.6455
" />
<path d="M-6.6523 6.6455
L-6.7128 6.5850
" />
<path d="M-6.7128 6.5850
L-6.7732 6.4641
" />
<path d="M-6.7732 6.4641
L-6.7732 6.3431
" />
<path d="M-6.7732 6.3431
L-6.7128 6.2222
" />
<path d="M-6.7128 6.2222
L-6.6523 6.1617
" />
<path d="M-6.6523 6.1617
L-6.5313 6.1012
" />
<path d="M-6.5313 6.1012
L-6.2290 6.1012
" />
<path d="M-6.2290 6.1012
L-6.0475 6.1617
" />
<path d="M-5.5033 7.3712
L-5.5033 6.1012
" />
<path d="M-4.7776 7.3712
L-5.3218 6.6455
" />
<path d="M-4.7776 6.1012
L-5.5033 6.8269
" />
<path d="M-3.6890 6.1012
L-3.9309 6.1012
" />
<path d="M-3.9309 6.1012
L-4.0518 6.1617
" />
<path d="M-4.0518 6.1617
L-4.1123 6.2222
" />
<path d="M-4.1123 6.2222
L-4.2333 6.4036
" />
<path d="M-4.2333 6.4036
L-4.2937 6.6455
" />
<path d="M-4.2937 6.6455
L-4.2937 7.1293
" />
<path d="M-4.2937 7.1293
L-4.2333 7.2503
" />
<path d="M-4.2333 7.2503
L-4.1728 7.3108
" />
<path d="M-4.1728 7.3108
L-4.0518 7.3712
" />
<path d="M-4.0518 7.3712
L-3.8099 7.3712
" />
<path d="M-3.8099 7.3712
L-3.6890 7.3108
" />
<path d="M-3.6890 7.3108
L-3.6285 7.2503
" />
<path d="M-3.6285 7.2503
L-3.5680 7.1293
" />
<path d="M-3.5680 7.1293
L-3.5680 6.8269
" />
<path d="M-3.5680 6.8269
L-3.6285 6.7060
" />
<path d="M-3.6285 6.7060
L-3.6890 6.6455
" />
<path d="M-3.6890 6.6455
L-3.8099 6.5850
" />
<path d="M-3.8099 6.5850
L-4.0518 6.5850
" />
<path d="M-4.0518 6.5850
L-4.1728 6.6455
" />
<path d="M-4.1728 6.6455
L-4.2333 6.7060
" />
<path d="M-4.2333 6.7060
L-4.2937 6.8269
" />
<path d="M-2.8423 6.6455
L-2.9633 6.5850
" />
<path d="M-2.9633 6.5850
L-3.0238 6.5246
" />
<path d="M-3.0238 6.5246
L-3.0842 6.4036
" />
<path d="M-3.0842 6.4036
L-3.0842 6.3431
" />
<path d="M-3.0842 6.3431
L-3.0238 6.2222
" />
<path d="M-3.0238 6.2222
L-2.9633 6.1617
" />
<path d="M-2.9633 6.1617
L-2.8423 6.1012
" />
<path d="M-2.8423 6.1012
L-2.6004 6.1012
" />
<path d="M-2.6004 6.1012
L-2.4795 6.1617
" />
<path d="M-2.4795 6.1617
L-2.4190 6.2222
" />
<path d="M-2.4190 6.2222
L-2.3585 6.3431
" />
<path d="M-2.3585 6.3431
L-2.3585 6.4036
" />
<path d="M-2.3585 6.4036
L-2.4190 6.5246
" />
<path d="M-2.4190 6.5246
L-2.4795 6.5850
" />
<path d="M-2.4795 6.5850
L-2.6004 6.6455
" />
<path d="M-2.6004 6.6455
L-2.8423 6.6455
" />
<path d="M-2.8423 6.6455
L-2.9633 6.7060
" />
<path d="M-2.9633 6.7060
L-3.0238 6.7665
" />
<path d="M-3.0238 6.7665
L-3.0842 6.8874
" />
<path d="M-3.0842 6.8874
L-3.0842 7.1293
" />
<path d="M-3.0842 7.1293
L-3.0238 7.2503
" />
<path d="M-3.0238 7.2503
L-2.9633 7.3108
" />
<path d="M-2.9633 7.3108
L-2.8423 7.3712
" />
<path d="M-2.8423 7.3712
L-2.6004 7.3712
" />
<path d="M-2.6004 7.3712
L-2.4795 7.3108
" />
<path d="M-2.4795 7.3108
L-2.4190 7.2503
" />
<path d="M-2.4190 7.2503
L-2.3585 7.1293
" />
<path d="M-2.3585 7.1293
L-2.3585 6.8874
" />
<path d="M-2.3585 6.8874
L-2.4190 6.7665
" />
<path d="M-2.4190 6.7665
L-2.4795 6.7060
" />
<path d="M-2.4795 6.7060
L-2.6004 6.6455
" />
<path d="M-1.1490 7.3712
L-1.8747 7.3712
" />
<path d="M-1.5119 7.3712
L-1.5119 6.1012
" />
<path d="M-1.5119 6.1012
L-1.6328 6.2827
" />
<path d="M-1.6328 6.2827
L-1.7538 6.4036
" />
<path d="M-1.7538 6.4036
L-1.8747 6.4641
" />
<path d="M-0.6652 6.2222
L-0.6048 6.1617
" />
<path d="M-0.6048 6.1617
L-0.4838 6.1012
" />
<path d="M-0.4838 6.1012
L-0.1814 6.1012
" />
<path d="M-0.1814 6.1012
L-0.0605 6.1617
" />
<path d="M-0.0605 6.1617
L0.0000 6.2222
" />
<path d="M0.0000 6.2222
L0.0604 6.3431
" />
<path d="M0.0604 6.3431
L0.0604 6.4641
" />
<path d="M0.0604 6.4641
L0.0000 6.6455
" />
<path d="M0.0000 6.6455
L-0.7257 7.3712
" />
<path d="M-0.7257 7.3712
L0.0604 7.3712
" />
<path d="M0.6046 7.3712
L0.6046 6.1012
" />
<path d="M0.6046 6.1012
L1.0280 7.0084
" />
<path d="M1.0280 7.0084
L1.4513 6.1012
" />
<path d="M1.4513 6.1012
L1.4513 7.3712
" />
<path d="M2.0560 7.3712
L2.0560 6.1012
" />
<path d="M2.6608 7.3712
L2.6608 6.1012
" />
<path d="M2.6608 6.1012
L3.3865 7.3712
" />
<path d="M3.3865 7.3712
L3.3865 6.1012
" />
<path d="M3.9913 7.3712
L3.9913 6.1012
" />
<path d="M4.5961 6.8874
L5.5638 6.8874
" />
<path d="M6.1685 6.7060
L6.5919 6.7060
" />
<path d="M6.7733 7.3712
L6.1685 7.3712
" />
<path d="M6.1685 7.3712
L6.1685 6.1012
" />
<path d="M6.1685 6.1012
L6.7733 6.1012
" />
</g></g> 
</svg>
