<svg xmlns="http://www.w3.org/2000/svg" width="72.576" height="70.848" viewBox="0 0 19.202 18.745">
    <g style="fill:#000;fill-opacity:1;stroke:#000;stroke-opacity:1;stroke-linecap:round;stroke-linejoin:round">
        <path stroke="none" d="M4.521 1.686h10.16v8.255l-1.905 1.905H4.521Z" style="fill:#ffffc2;fill-opacity:1;stroke:none;fill-rule:evenodd"/>
        <path d="M4.521 1.686h10.16v8.255l-1.905 1.905H4.521Z" style="stroke:#840000;stroke-width:.254;stroke-opacity:1;stroke-linecap:round;stroke-linejoin:round;fill:none"/>
        <path d="M8.585 6.004h.508M8.585 7.02h.508M9.347 5.242l-.762.762v-.508M9.347 6.258l-.762.762v-.508M10.363 4.988v2.54M11.125 5.496H9.601l.762 1.524ZM11.125 7.02H9.601" style="stroke:#840000;stroke-width:.1524;stroke-opacity:1;stroke-linecap:round;stroke-linejoin:round;fill:none"/>
    </g>
    <g style="fill:none;stroke:#840000;stroke-width:.1524;stroke-opacity:1;stroke-linecap:round;stroke-linejoin:round">
        <g class="stroked-text">
            <path d="m8.909 7.923-.212-.303M8.546 7.923v-.636M8.546 7.288h.242M8.788 7.288l.06.03M8.848 7.318l.03.03M8.879 7.348l.03.06M8.909 7.408V7.5M8.909 7.5l-.03.06M8.879 7.56l-.03.03M8.848 7.59l-.06.03M8.788 7.62h-.242M9.514 7.318l-.061-.03M9.453 7.288h-.09M9.362 7.288l-.09.03M9.272 7.318l-.06.06M9.211 7.378l-.03.06M9.18 7.439l-.03.12M9.15 7.56v.09M9.15 7.65l.03.121M9.18 7.771l.031.06M9.211 7.832l.06.06M9.272 7.892l.09.03M9.362 7.923h.06M9.423 7.923l.09-.03M9.514 7.892l.03-.03M9.544 7.862V7.65M9.544 7.65h-.121M10.028 7.59l.09.03M10.118 7.62l.03.03M10.149 7.65l.03.06M10.179 7.71v.091M10.179 7.802l-.03.06M10.149 7.862l-.03.03M10.118 7.892l-.06.03M10.058 7.923h-.242M9.816 7.923v-.636M9.816 7.288h.211M10.028 7.288l.06.03M10.088 7.318l.03.03M10.118 7.348l.03.06M10.149 7.408v.06M10.149 7.469l-.03.06M10.118 7.53l-.03.03M10.088 7.56l-.06.03M10.028 7.59h-.212"/>
        </g>
        <path d="M4.521 4.226h-2.54"/>
    </g>
    <g class="stroked-text" style="fill:none;stroke:#006464;stroke-width:.1524;stroke-opacity:1;stroke-linecap:round;stroke-linejoin:round">
        <path d="m5.238 3.604.381 1.143M5.62 4.747 6 3.604M6.381 4.747V3.604M6.381 3.604h.272M6.653 3.604l.164.054M6.817 3.659l.109.108M6.926 3.767l.054.11M6.98 3.876l.054.218M7.034 4.094v.163M7.034 4.257l-.054.218M6.98 4.475l-.054.109M6.926 4.584l-.11.109M6.817 4.693l-.164.054M6.653 4.747h-.272M7.524 4.747V3.604M7.524 3.604h.272M7.796 3.604l.164.054M7.96 3.659l.109.108M8.069 3.767l.054.11M8.123 3.876l.054.218M8.177 4.094v.163M8.177 4.257l-.054.218M8.123 4.475l-.054.109M8.069 4.584l-.11.109M7.96 4.693l-.164.054M7.796 4.747h-.272"/>
    </g>
    <g class="stroked-text" style="fill:none;stroke:#a90000;stroke-width:.1524;stroke-opacity:1;stroke-linecap:round;stroke-linejoin:round">
        <path d="M3.614 3.809h-.726M3.251 3.809v-1.27M3.251 2.539l-.12.181M3.13 2.72l-.12.121M3.01 2.841l-.122.06"/>
    </g>
    <path d="M4.521 9.306h-2.54" style="fill:none;stroke:#840000;stroke-width:.1524;stroke-opacity:1;stroke-linecap:round;stroke-linejoin:round"/>
    <g class="stroked-text" style="fill:none;stroke:#006464;stroke-width:.1524;stroke-opacity:1;stroke-linecap:round;stroke-linejoin:round">
        <path d="M5.402 9.827V8.684M5.402 8.684h.272M5.674 8.684l.163.055M5.837 8.739l.109.108M5.946 8.847l.054.11M6 8.956l.055.218M6.055 9.174v.163M6.055 9.337 6 9.555M6 9.555l-.054.109M5.946 9.664l-.11.109M5.837 9.773l-.163.054M5.674 9.827h-.272M6.762 8.684h.218M6.98 8.684l.109.055M7.089 8.739l.109.108M7.198 8.847l.054.218M7.252 9.065v.381M7.252 9.446l-.054.218M7.198 9.664l-.11.109M7.089 9.773l-.11.054M6.98 9.827h-.218M6.762 9.827l-.109-.054M6.653 9.773l-.108-.11M6.545 9.664l-.055-.218M6.49 9.446v-.38M6.49 9.065l.054-.218M6.545 8.847l.108-.108M6.653 8.739l.11-.055M7.742 8.684v.925M7.742 9.61l.054.108M7.796 9.718l.055.055M7.85 9.773l.11.054M7.96 9.827h.217M8.177 9.827l.11-.054M8.286 9.773l.055-.055M8.34 9.718l.055-.109M8.395 9.61v-.926M8.776 8.684h.653M9.103 9.827V8.684"/>
    </g>
    <g class="stroked-text" style="fill:none;stroke:#a90000;stroke-width:.1524;stroke-opacity:1;stroke-linecap:round;stroke-linejoin:round">
        <path d="m2.888 7.74.06-.06M2.949 7.68l.12-.061M3.07 7.619h.302M3.372 7.619l.121.06M3.493 7.68l.06.06M3.554 7.74l.06.12M3.614 7.86v.122M3.614 7.982l-.06.181M3.554 8.163l-.726.726M2.828 8.889h.786"/>
    </g>
    <path d="M14.681 4.226h2.54" style="fill:none;stroke:#840000;stroke-width:.1524;stroke-opacity:1;stroke-linecap:round;stroke-linejoin:round"/>
    <g class="stroked-text" style="fill:none;stroke:#006464;stroke-width:.1524;stroke-opacity:1;stroke-linecap:round;stroke-linejoin:round">
        <path d="M11.46 4.747V3.604M11.46 3.604h.272M11.733 3.604l.163.054M11.896 3.659l.109.108M12.005 3.767l.054.11M12.06 3.876l.053.218M12.114 4.094v.163M12.114 4.257l-.055.218M12.06 4.475l-.055.109M12.005 4.584l-.11.109M11.896 4.693l-.164.054M11.733 4.747h-.273M12.603 4.747V3.604M13.148 4.747V3.604M13.148 3.604l.653 1.143M13.8 4.747V3.604"/>
    </g>
    <g class="stroked-text" style="fill:none;stroke:#a90000;stroke-width:.1524;stroke-opacity:1;stroke-linecap:round;stroke-linejoin:round">
        <path d="M16.193 2.962v.847M15.89 2.478l-.302.907M15.588 3.386h.787"/>
    </g>
    <path d="M14.681 9.306h2.54" style="fill:none;stroke:#840000;stroke-width:.1524;stroke-opacity:1;stroke-linecap:round;stroke-linejoin:round"/>
    <g class="stroked-text" style="fill:none;stroke:#006464;stroke-width:.1524;stroke-opacity:1;stroke-linecap:round;stroke-linejoin:round">
        <path d="m11.46 8.739-.108-.055M11.352 8.684h-.164M11.188 8.684l-.163.055M11.025 8.739l-.109.108M10.916 8.847l-.054.11M10.862 8.956l-.055.218M10.807 9.174v.163M10.807 9.337l.055.218M10.862 9.555l.054.109M10.916 9.664l.109.109M11.025 9.773l.163.054M11.188 9.827h.11M11.297 9.827l.163-.054M11.46 9.773l.055-.055M11.515 9.718v-.38M11.515 9.337h-.218M12.005 9.827V8.684M12.005 8.684l.653 1.143M12.658 9.827V8.684M13.202 9.827V8.684M13.202 8.684h.272M13.474 8.684l.163.055M13.638 8.739l.108.108M13.746 8.847l.055.11M13.8 8.956l.055.218M13.855 9.174v.163M13.855 9.337l-.054.218M13.8 9.555l-.054.109M13.746 9.664l-.109.109M13.638 9.773l-.164.054M13.474 9.827h-.272"/>
    </g>
    <g class="stroked-text" style="fill:none;stroke:#a90000;stroke-width:.1524;stroke-opacity:1;stroke-linecap:round;stroke-linejoin:round">
        <path d="M15.528 7.619h.786M16.314 7.619l-.423.484M15.89 8.103h.182M16.072 8.103l.121.06M16.193 8.163l.06.06M16.254 8.224l.06.12M16.314 8.345v.302M16.314 8.647l-.06.12M16.254 8.768l-.06.06M16.193 8.828l-.12.06M16.072 8.889h-.363M15.71 8.889l-.122-.06M15.588 8.828l-.06-.06"/>
    </g>
    <g style="fill:none;stroke:#006464;stroke-width:.1524;stroke-opacity:1;stroke-linecap:round;stroke-linejoin:round">
        <g class="stroked-text">
            <path d="M-1.36 5.085h-.605M-1.965 5.085v-1.27M-.937 4.42h.423M-.332 5.085h-.605M-.937 5.085v-1.27M-.937 3.815h.605M.212 5.085v-1.27M.212 3.815h.302M.514 3.815l.181.06M.695 3.876l.121.12M.816 3.997l.06.12M.877 4.118l.06.241M.937 4.36v.18M.937 4.54l-.06.243M.877 4.783l-.06.12M.816 4.904l-.12.12M.695 5.025l-.181.06M.514 5.085H.212M1.663 4.964l.06.06M1.724 5.025l-.06.06M1.663 5.085l-.06-.06M1.603 5.025l.06-.06M1.663 4.964v.121M1.421 3.876l.121-.06M1.542 3.815h.303M1.845 3.815l.12.06M1.965 3.876l.06.12M2.026 3.997v.12M2.026 4.118l-.06.12M1.965 4.239l-.06.06M1.905 4.299l-.121.06M1.784 4.36l-.06.06M1.724 4.42l-.06.12M1.663 4.54v.061"/>
        </g>
        <g class="stroked-text">
            <path d="m-6.773 7.31.181.061M-6.592 7.371h.303M-6.29 7.371l.122-.06M-6.168 7.31l.06-.06M-6.108 7.25l.06-.12M-6.047 7.13v-.122M-6.047 7.008l-.061-.12M-6.108 6.887l-.06-.06M-6.168 6.827l-.121-.06M-6.29 6.767l-.241-.061M-6.531 6.706l-.121-.06M-6.652 6.646l-.06-.061M-6.713 6.585l-.06-.12M-6.773 6.464v-.12M-6.773 6.343l.06-.12M-6.713 6.222l.06-.06M-6.652 6.162l.12-.06M-6.531 6.101h.302M-6.229 6.101l.181.06M-5.503 7.371v-1.27M-4.778 7.371l-.544-.726M-4.778 6.101l-.725.726M-3.689 6.101h-.242M-3.93 6.101l-.122.06M-4.052 6.162l-.06.06M-4.112 6.222l-.121.182M-4.233 6.404l-.06.242M-4.294 6.646v.483M-4.294 7.13l.06.12M-4.233 7.25l.06.06M-4.173 7.31l.121.061M-4.052 7.371h.242M-3.81 7.371l.121-.06M-3.689 7.31l.06-.06M-3.628 7.25l.06-.12M-3.568 7.13v-.303M-3.568 6.827l-.06-.121M-3.628 6.706l-.061-.06M-3.689 6.646l-.12-.061M-3.81 6.585h-.242M-4.052 6.585l-.12.06M-4.173 6.646l-.06.06M-4.233 6.706l-.06.12M-2.842 6.646l-.121-.061M-2.963 6.585l-.06-.06M-3.024 6.525l-.06-.121M-3.084 6.404v-.06M-3.084 6.343l.06-.12M-3.024 6.222l.06-.06M-2.963 6.162l.12-.06M-2.842 6.101h.242M-2.6 6.101l.12.06M-2.48 6.162l.061.06M-2.419 6.222l.06.121M-2.358 6.343v.06M-2.358 6.404l-.061.12M-2.419 6.525l-.06.06M-2.48 6.585l-.12.06M-2.6 6.646h-.242M-2.842 6.646l-.121.06M-2.963 6.706l-.06.06M-3.024 6.767l-.06.12M-3.084 6.887v.242M-3.084 7.13l.06.12M-3.024 7.25l.06.06M-2.963 7.31l.12.061M-2.842 7.371h.242M-2.6 7.371l.12-.06M-2.48 7.31l.061-.06M-2.419 7.25l.06-.12M-2.358 7.13v-.243M-2.358 6.887l-.061-.12M-2.419 6.767l-.06-.061M-2.48 6.706l-.12-.06M-1.149 7.371h-.726M-1.512 7.371v-1.27M-1.512 6.101l-.12.182M-1.633 6.283l-.12.12M-1.754 6.404l-.12.06M-.665 6.222l.06-.06M-.605 6.162l.121-.06M-.484 6.101h.303M-.181 6.101l.12.06M-.06 6.162l.06.06M0 6.222l.06.121M.06 6.343v.121M.06 6.464 0 6.645M0 6.646l-.726.725M-.726 7.371H.06M.605 7.371v-1.27M.605 6.101l.423.907M1.028 7.008l.423-.907M1.451 6.101v1.27M2.056 7.371v-1.27M2.66 7.371v-1.27M2.66 6.101l.726 1.27M3.387 7.371v-1.27M3.991 7.371v-1.27M4.596 6.887h.968M6.169 6.706h.423M6.773 7.371H6.17M6.169 7.371v-1.27M6.169 6.101h.604"/>
        </g>
    </g>
</svg>
