<svg xmlns="http://www.w3.org/2000/svg" width="164.736" height="189.024" viewBox="0 0 43.586 50.013">
    <rect width="25.4" height="35.56" x="9.093" y="7.226" rx="0" style="fill:#ffffc2;fill-opacity:1;stroke:none"/>
    <g style="fill:none;stroke:#840000;stroke-width:.1524;stroke-opacity:1;stroke-linecap:round;stroke-linejoin:round">
        <rect width="25.4" height="35.56" x="9.093" y="7.226" rx="0"/>
        <path d="M9.093 9.766h-5.08"/>
    </g>
    <g class="stroked-text" style="fill:none;stroke:#006464;stroke-width:.1524;stroke-opacity:1;stroke-linecap:round;stroke-linejoin:round">
        <path d="M10.512 10.346v-1.27M10.512 9.076h.302M10.814 9.076l.181.06M10.996 9.136l.12.121M11.117 9.257l.06.121M11.177 9.378l.06.242M11.237 9.62v.182M11.237 9.802l-.06.241M11.177 10.043l-.06.121M11.117 10.164l-.122.121M10.996 10.285l-.182.06M10.814 10.346h-.302M11.782 9.862h.967M12.266 10.346v-.968"/>
    </g>
    <g class="stroked-text" style="fill:none;stroke:#a90000;stroke-width:.1524;stroke-opacity:1;stroke-linecap:round;stroke-linejoin:round">
        <path d="M6.493 8.079h.12M6.614 8.079l.12.06M6.735 8.14l.06.06M6.795 8.2l.06.12M6.856 8.32l.06.243M6.916 8.563v.302M6.916 8.865l-.06.242M6.856 9.107l-.06.12M6.795 9.228l-.06.06M6.735 9.288l-.121.06M6.614 9.349h-.121M6.493 9.349l-.121-.06M6.372 9.288l-.06-.06M6.311 9.228l-.06-.121M6.25 9.107l-.06-.242M6.19 8.865v-.302M6.19 8.563l.06-.242M6.25 8.32l.061-.12M6.311 8.2l.06-.06M6.372 8.14l.12-.061"/>
    </g>
    <path d="M9.093 12.306h-5.08" style="fill:none;stroke:#840000;stroke-width:.1524;stroke-opacity:1;stroke-linecap:round;stroke-linejoin:round"/>
    <g class="stroked-text" style="fill:none;stroke:#006464;stroke-width:.1524;stroke-opacity:1;stroke-linecap:round;stroke-linejoin:round">
        <path d="M10.33 11.616h.726M10.693 12.886v-1.27M11.358 11.616l.847 1.27M12.205 11.616l-.847 1.27"/>
    </g>
    <g class="stroked-text" style="fill:none;stroke:#a90000;stroke-width:.1524;stroke-opacity:1;stroke-linecap:round;stroke-linejoin:round">
        <path d="M6.916 11.889H6.19M6.553 11.889v-1.27M6.553 10.619l-.12.181M6.432 10.8l-.12.121M6.311 10.921l-.12.06"/>
    </g>
    <path d="M9.093 14.846h-5.08" style="fill:none;stroke:#840000;stroke-width:.1524;stroke-opacity:1;stroke-linecap:round;stroke-linejoin:round"/>
    <g class="stroked-text" style="fill:none;stroke:#006464;stroke-width:.1524;stroke-opacity:1;stroke-linecap:round;stroke-linejoin:round">
        <path d="m11.237 15.426-.423-.605M10.512 15.426v-1.27M10.512 14.156h.483M10.996 14.156l.12.06M11.117 14.216l.06.06M11.177 14.277l.06.12M11.237 14.398v.181M11.237 14.58l-.06.12M11.177 14.7l-.06.06M11.117 14.76l-.122.061M10.996 14.821h-.484M11.66 14.156l.847 1.27M12.507 14.156l-.846 1.27"/>
    </g>
    <g class="stroked-text" style="fill:none;stroke:#a90000;stroke-width:.1524;stroke-opacity:1;stroke-linecap:round;stroke-linejoin:round">
        <path d="m6.19 13.28.06-.06M6.25 13.22l.122-.061M6.372 13.159h.302M6.674 13.159l.121.06M6.795 13.22l.06.06M6.856 13.28l.06.12M6.916 13.4v.122M6.916 13.522l-.06.181M6.856 13.703l-.726.726M6.13 14.429h.786"/>
    </g>
    <path d="M9.093 17.386h-5.08" style="fill:none;stroke:#840000;stroke-width:.1524;stroke-opacity:1;stroke-linecap:round;stroke-linejoin:round"/>
    <g class="stroked-text" style="fill:none;stroke:#006464;stroke-width:.1524;stroke-opacity:1;stroke-linecap:round;stroke-linejoin:round">
        <path d="m11.177 16.756-.121-.06M11.056 16.696h-.181M10.875 16.696l-.182.06M10.693 16.756l-.12.121M10.572 16.877l-.06.121M10.512 16.998l-.06.242M10.451 17.24v.182M10.451 17.422l.06.241M10.512 17.663l.06.121M10.572 17.784l.121.121M10.693 17.905l.182.06M10.875 17.966h.12M10.996 17.966l.181-.06M11.177 17.905l.06-.06M11.237 17.845v-.423M11.237 17.422h-.242M11.782 17.966v-1.27M11.782 16.696l.725 1.27M12.507 17.966v-1.27M13.112 17.966v-1.27M13.112 16.696h.303M13.415 16.696l.181.06M13.596 16.756l.121.121M13.717 16.877l.06.121M13.778 16.998l.06.242M13.838 17.24v.182M13.838 17.422l-.06.241M13.778 17.663l-.061.121M13.717 17.784l-.121.121M13.596 17.905l-.181.06M13.415 17.966h-.303"/>
    </g>
    <g class="stroked-text" style="fill:none;stroke:#a90000;stroke-width:.1524;stroke-opacity:1;stroke-linecap:round;stroke-linejoin:round">
        <path d="M6.13 15.699h.786M6.916 15.699l-.423.484M6.493 16.183h.181M6.674 16.183l.121.06M6.795 16.243l.06.06M6.856 16.304l.06.12M6.916 16.425v.302M6.916 16.727l-.06.12M6.856 16.848l-.06.06M6.795 16.908l-.12.06M6.674 16.969h-.363M6.311 16.969l-.12-.06M6.19 16.908l-.06-.06"/>
    </g>
    <path d="M9.093 19.926h-5.08" style="fill:none;stroke:#840000;stroke-width:.1524;stroke-opacity:1;stroke-linecap:round;stroke-linejoin:round"/>
    <g class="stroked-text" style="fill:none;stroke:#006464;stroke-width:.1524;stroke-opacity:1;stroke-linecap:round;stroke-linejoin:round">
        <path d="m11.177 19.296-.121-.06M11.056 19.236h-.181M10.875 19.236l-.182.06M10.693 19.296l-.12.121M10.572 19.417l-.06.121M10.512 19.538l-.06.242M10.451 19.78v.181M10.451 19.962l.06.241M10.512 20.203l.06.121M10.572 20.324l.121.121M10.693 20.445l.182.06M10.875 20.506h.12M10.996 20.506l.181-.06M11.177 20.445l.06-.06M11.237 20.385v-.424M11.237 19.962h-.242M11.782 20.506v-1.27M11.782 19.236l.725 1.27M12.507 20.506v-1.27M13.112 20.506v-1.27M13.112 19.236h.303M13.415 19.236l.181.06M13.596 19.296l.121.121M13.717 19.417l.06.121M13.778 19.538l.06.242M13.838 19.78v.181M13.838 19.962l-.06.241M13.778 20.203l-.061.121M13.717 20.324l-.121.121M13.596 20.445l-.181.06M13.415 20.506h-.303"/>
    </g>
    <g class="stroked-text" style="fill:none;stroke:#a90000;stroke-width:.1524;stroke-opacity:1;stroke-linecap:round;stroke-linejoin:round">
        <path d="M6.795 18.662v.847M6.493 18.178l-.303.907M6.19 19.086h.786"/>
    </g>
    <path d="M9.093 22.466h-5.08" style="fill:none;stroke:#840000;stroke-width:.1524;stroke-opacity:1;stroke-linecap:round;stroke-linejoin:round"/>
    <g class="stroked-text" style="fill:none;stroke:#006464;stroke-width:.1524;stroke-opacity:1;stroke-linecap:round;stroke-linejoin:round">
        <path d="M10.512 23.046v-1.27M10.512 21.776h.302M10.814 21.776l.181.06M10.996 21.836l.12.121M11.117 21.957l.06.121M11.177 22.078l.06.242M11.237 22.32v.181M11.237 22.502l-.06.241M11.177 22.743l-.06.121M11.117 22.864l-.122.121M10.996 22.985l-.182.06M10.814 23.046h-.302M11.721 21.897l.06-.06M11.782 21.836l.12-.06M11.903 21.776h.302M12.205 21.776l.121.06M12.326 21.836l.06.06M12.387 21.897l.06.12M12.447 22.018v.12M12.447 22.139l-.06.181M12.387 22.32l-.726.726M11.66 23.046h.787M13.898 21.715l-1.088 1.633M14.261 22.985l.182.06M14.443 23.046h.302M14.745 23.046l.121-.06M14.866 22.985l.06-.06M14.927 22.925l.06-.121M14.987 22.804v-.121M14.987 22.683l-.06-.121M14.927 22.562l-.061-.06M14.866 22.502l-.12-.06M14.745 22.441l-.242-.06M14.503 22.38l-.12-.06M14.382 22.32l-.06-.06M14.322 22.26l-.06-.121M14.261 22.139v-.121M14.261 22.018l.06-.121M14.322 21.897l.06-.06M14.382 21.836l.121-.06M14.503 21.776h.303M14.806 21.776l.181.06M15.531 23.046v-1.27M15.531 21.776h.303M15.834 21.776l.181.06M16.015 21.836l.121.121M16.136 21.957l.06.121M16.197 22.078l.06.242M16.257 22.32v.181M16.257 22.502l-.06.241M16.197 22.743l-.061.121M16.136 22.864l-.121.121M16.015 22.985l-.181.06M15.834 23.046h-.303M16.74 22.683h.606M16.62 23.046l.423-1.27M17.043 21.776l.424 1.27"/>
    </g>
    <g class="stroked-text" style="fill:none;stroke:#a90000;stroke-width:.1524;stroke-opacity:1;stroke-linecap:round;stroke-linejoin:round">
        <path d="M6.856 20.779H6.25M6.25 20.779l-.06.605M6.19 21.384l.06-.06M6.25 21.323l.122-.06M6.372 21.263h.302M6.674 21.263l.121.06M6.795 21.323l.06.06M6.856 21.384l.06.12M6.916 21.505v.302M6.916 21.807l-.06.12M6.856 21.928l-.06.06M6.795 21.988l-.12.06M6.674 22.049h-.302M6.372 22.049l-.121-.06M6.25 21.988l-.06-.06"/>
    </g>
    <path d="M9.093 25.006h-5.08" style="fill:none;stroke:#840000;stroke-width:.1524;stroke-opacity:1;stroke-linecap:round;stroke-linejoin:round"/>
    <g class="stroked-text" style="fill:none;stroke:#006464;stroke-width:.1524;stroke-opacity:1;stroke-linecap:round;stroke-linejoin:round">
        <path d="M10.512 25.586v-1.27M10.512 24.316h.302M10.814 24.316l.181.06M10.996 24.376l.12.121M11.117 24.497l.06.121M11.177 24.618l.06.242M11.237 24.86v.181M11.237 25.042l-.06.241M11.177 25.283l-.06.121M11.117 25.404l-.122.121M10.996 25.525l-.182.06M10.814 25.586h-.302M11.66 24.316h.787M12.447 24.316l-.423.484M12.024 24.8h.181M12.205 24.8l.121.06M12.326 24.86l.06.06M12.387 24.92l.06.121M12.447 25.042v.302M12.447 25.344l-.06.12M12.387 25.465l-.061.06M12.326 25.525l-.12.06M12.205 25.586h-.363M11.842 25.586l-.12-.06M11.721 25.525l-.06-.06M13.898 24.255l-1.088 1.633M14.261 25.525l.182.06M14.443 25.586h.302M14.745 25.586l.121-.06M14.866 25.525l.06-.06M14.927 25.465l.06-.121M14.987 25.344v-.121M14.987 25.223l-.06-.121M14.927 25.102l-.061-.06M14.866 25.042l-.12-.06M14.745 24.981l-.242-.06M14.503 24.92l-.12-.06M14.382 24.86l-.06-.06M14.322 24.8l-.06-.121M14.261 24.679v-.121M14.261 24.558l.06-.121M14.322 24.437l.06-.06M14.382 24.376l.121-.06M14.503 24.316h.303M14.806 24.316l.181.06M16.257 25.465l-.06.06M16.197 25.525l-.182.06M16.015 25.586h-.12M15.894 25.586l-.181-.06M15.713 25.525l-.121-.12M15.592 25.404l-.06-.12M15.531 25.283l-.06-.242M15.47 25.042v-.182M15.47 24.86l.061-.242M15.531 24.618l.06-.12M15.592 24.497l.12-.12M15.713 24.376l.181-.06M15.894 24.316h.121M16.015 24.316l.181.06M16.197 24.376l.06.06M17.406 25.586h-.605M16.801 25.586v-1.27"/>
    </g>
    <g class="stroked-text" style="fill:none;stroke:#a90000;stroke-width:.1524;stroke-opacity:1;stroke-linecap:round;stroke-linejoin:round">
        <path d="M6.795 23.319h-.242M6.553 23.319l-.12.06M6.432 23.38l-.06.06M6.372 23.44l-.121.181M6.25 23.621l-.06.242M6.19 23.863v.484M6.19 24.347l.06.12M6.25 24.468l.061.06M6.311 24.528l.121.06M6.432 24.589h.242M6.674 24.589l.121-.06M6.795 24.528l.06-.06M6.856 24.468l.06-.121M6.916 24.347v-.303M6.916 24.045l-.06-.121M6.856 23.924l-.06-.06M6.795 23.863l-.12-.06M6.674 23.803h-.242M6.432 23.803l-.12.06M6.311 23.863l-.06.06M6.25 23.924l-.06.12"/>
    </g>
    <path d="M9.093 27.546h-5.08" style="fill:none;stroke:#840000;stroke-width:.1524;stroke-opacity:1;stroke-linecap:round;stroke-linejoin:round"/>
    <g class="stroked-text" style="fill:none;stroke:#006464;stroke-width:.1524;stroke-opacity:1;stroke-linecap:round;stroke-linejoin:round">
        <path d="M10.512 28.126v-1.27M10.512 26.856h.302M10.814 26.856l.181.06M10.996 26.916l.12.121M11.117 27.037l.06.121M11.177 27.158l.06.242M11.237 27.4v.181M11.237 27.582l-.06.241M11.177 27.823l-.06.121M11.117 27.944l-.122.121M10.996 28.065l-.182.06M10.814 28.126h-.302M12.326 27.28v.846M12.024 26.795l-.303.907M11.721 27.703h.786"/>
    </g>
    <g class="stroked-text" style="fill:none;stroke:#a90000;stroke-width:.1524;stroke-opacity:1;stroke-linecap:round;stroke-linejoin:round">
        <path d="M6.13 25.859h.846M6.977 25.859l-.545 1.27"/>
    </g>
    <path d="M9.093 30.086h-5.08" style="fill:none;stroke:#840000;stroke-width:.1524;stroke-opacity:1;stroke-linecap:round;stroke-linejoin:round"/>
    <g class="stroked-text" style="fill:none;stroke:#006464;stroke-width:.1524;stroke-opacity:1;stroke-linecap:round;stroke-linejoin:round">
        <path d="M10.512 30.666v-1.27M10.512 29.396h.302M10.814 29.396l.181.06M10.996 29.456l.12.121M11.117 29.577l.06.121M11.177 29.698l.06.242M11.237 29.94v.181M11.237 30.122l-.06.241M11.177 30.363l-.06.121M11.117 30.484l-.122.121M10.996 30.605l-.182.06M10.814 30.666h-.302M12.387 29.396h-.605M11.782 29.396l-.06.605M11.721 30l.06-.06M11.782 29.94l.12-.06M11.903 29.88h.302M12.205 29.88l.121.06M12.326 29.94l.06.06M12.387 30l.06.122M12.447 30.122v.302M12.447 30.424l-.06.12M12.387 30.545l-.061.06M12.326 30.605l-.12.06M12.205 30.666h-.302M11.903 30.666l-.121-.06M11.782 30.605l-.06-.06"/>
    </g>
    <g class="stroked-text" style="fill:none;stroke:#a90000;stroke-width:.1524;stroke-opacity:1;stroke-linecap:round;stroke-linejoin:round">
        <path d="m6.432 28.943-.12-.06M6.311 28.883l-.06-.06M6.25 28.822l-.06-.12M6.19 28.701v-.06M6.19 28.64l.06-.12M6.25 28.52l.061-.06M6.311 28.46l.121-.061M6.432 28.399h.242M6.674 28.399l.121.06M6.795 28.46l.06.06M6.856 28.52l.06.12M6.916 28.64v.061M6.916 28.701l-.06.121M6.856 28.822l-.06.06M6.795 28.883l-.12.06M6.674 28.943h-.242M6.432 28.943l-.12.06M6.311 29.004l-.06.06M6.25 29.064l-.06.121M6.19 29.185v.242M6.19 29.427l.06.12M6.25 29.548l.061.06M6.311 29.608l.121.06M6.432 29.669h.242M6.674 29.669l.121-.06M6.795 29.608l.06-.06M6.856 29.548l.06-.121M6.916 29.427v-.242M6.916 29.185l-.06-.12M6.856 29.064l-.06-.06M6.795 29.004l-.12-.06"/>
    </g>
    <path d="M9.093 32.626h-5.08" style="fill:none;stroke:#840000;stroke-width:.1524;stroke-opacity:1;stroke-linecap:round;stroke-linejoin:round"/>
    <g class="stroked-text" style="fill:none;stroke:#006464;stroke-width:.1524;stroke-opacity:1;stroke-linecap:round;stroke-linejoin:round">
        <path d="M10.512 33.206v-1.27M10.512 31.936h.302M10.814 31.936l.181.06M10.996 31.996l.12.121M11.117 32.117l.06.121M11.177 32.238l.06.242M11.237 32.48v.181M11.237 32.661l-.06.242M11.177 32.903l-.06.121M11.117 33.024l-.122.121M10.996 33.145l-.182.06M10.814 33.206h-.302M12.326 31.936h-.242M12.084 31.936l-.12.06M11.963 31.996l-.06.06M11.903 32.057l-.121.181M11.782 32.238l-.06.242M11.721 32.48v.484M11.721 32.964l.06.12M11.782 33.085l.06.06M11.842 33.145l.121.06M11.963 33.206h.242M12.205 33.206l.121-.06M12.326 33.145l.06-.06M12.387 33.085l.06-.121M12.447 32.964v-.303M12.447 32.661l-.06-.12M12.387 32.54l-.061-.06M12.326 32.48l-.12-.06M12.205 32.42h-.242M11.963 32.42l-.12.06M11.842 32.48l-.06.06M11.782 32.54l-.06.121"/>
    </g>
    <g class="stroked-text" style="fill:none;stroke:#a90000;stroke-width:.1524;stroke-opacity:1;stroke-linecap:round;stroke-linejoin:round">
        <path d="M6.311 32.209h.242M6.553 32.209l.121-.06M6.674 32.148l.06-.06M6.735 32.088l.12-.182M6.856 31.906l.06-.241M6.916 31.665v-.484M6.916 31.18l-.06-.12M6.856 31.06l-.06-.06M6.795 31l-.12-.061M6.674 30.939h-.242M6.432 30.939l-.12.06M6.311 31l-.06.06M6.25 31.06l-.06.12M6.19 31.18v.303M6.19 31.483l.06.121M6.25 31.604l.061.06M6.311 31.665l.121.06M6.432 31.725h.242M6.674 31.725l.121-.06M6.795 31.665l.06-.06M6.856 31.604l.06-.12"/>
    </g>
    <path d="M9.093 35.166h-5.08" style="fill:none;stroke:#840000;stroke-width:.1524;stroke-opacity:1;stroke-linecap:round;stroke-linejoin:round"/>
    <g class="stroked-text" style="fill:none;stroke:#006464;stroke-width:.1524;stroke-opacity:1;stroke-linecap:round;stroke-linejoin:round">
        <path d="M10.512 35.746v-1.27M10.512 34.476h.302M10.814 34.476l.181.06M10.996 34.536l.12.121M11.117 34.657l.06.121M11.177 34.778l.06.242M11.237 35.02v.181M11.237 35.202l-.06.241M11.177 35.443l-.06.121M11.117 35.564l-.122.121M10.996 35.685l-.182.06M10.814 35.746h-.302M11.66 34.476h.847M12.507 34.476l-.544 1.27"/>
    </g>
    <g class="stroked-text" style="fill:none;stroke:#a90000;stroke-width:.1524;stroke-opacity:1;stroke-linecap:round;stroke-linejoin:round">
        <path d="M6.311 34.749h-.725M5.948 34.749v-1.27M5.948 33.479l-.12.181M5.828 33.66l-.122.121M5.707 33.781l-.121.06M7.097 33.479h.121M7.218 33.479l.121.06M7.34 33.54l.06.06M7.4 33.6l.06.12M7.46 33.72l.06.243M7.52 33.963v.302M7.52 34.265l-.06.242M7.46 34.507l-.06.12M7.4 34.628l-.06.06M7.34 34.688l-.122.06M7.218 34.749h-.12M7.097 34.749l-.12-.06M6.977 34.688l-.061-.06M6.916 34.628l-.06-.121M6.856 34.507l-.06-.242M6.795 34.265v-.302M6.795 33.963l.06-.242M6.856 33.72l.06-.12M6.916 33.6l.06-.06M6.977 33.54l.12-.061"/>
    </g>
    <path d="M9.093 37.706h-5.08" style="fill:none;stroke:#840000;stroke-width:.1524;stroke-opacity:1;stroke-linecap:round;stroke-linejoin:round"/>
    <g class="stroked-text" style="fill:none;stroke:#006464;stroke-width:.1524;stroke-opacity:1;stroke-linecap:round;stroke-linejoin:round">
        <path d="M10.512 38.286v-1.27M10.512 37.016h.302M10.814 37.016l.181.06M10.996 37.076l.12.121M11.117 37.197l.06.121M11.177 37.318l.06.242M11.237 37.56v.181M11.237 37.742l-.06.241M11.177 37.983l-.06.121M11.117 38.104l-.122.121M10.996 38.225l-.182.06M10.814 38.286h-.302M11.963 37.56l-.12-.06M11.842 37.5l-.06-.06M11.782 37.44l-.06-.122M11.721 37.318v-.06M11.721 37.258l.06-.121M11.782 37.137l.06-.06M11.842 37.076l.121-.06M11.963 37.016h.242M12.205 37.016l.121.06M12.326 37.076l.06.06M12.387 37.137l.06.12M12.447 37.258v.06M12.447 37.318l-.06.121M12.387 37.44l-.061.06M12.326 37.5l-.12.06M12.205 37.56h-.242M11.963 37.56l-.12.06M11.842 37.62l-.06.061M11.782 37.681l-.06.121M11.721 37.802v.242M11.721 38.044l.06.12M11.782 38.165l.06.06M11.842 38.225l.121.06M11.963 38.286h.242M12.205 38.286l.121-.06M12.326 38.225l.06-.06M12.387 38.165l.06-.121M12.447 38.044v-.242M12.447 37.802l-.06-.12M12.387 37.681l-.061-.06M12.326 37.62l-.12-.06"/>
    </g>
    <g class="stroked-text" style="fill:none;stroke:#a90000;stroke-width:.1524;stroke-opacity:1;stroke-linecap:round;stroke-linejoin:round">
        <path d="M6.311 37.289h-.725M5.948 37.289v-1.27M5.948 36.019l-.12.181M5.828 36.2l-.122.121M5.707 36.321l-.121.06M7.52 37.289h-.725M7.158 37.289v-1.27M7.158 36.019l-.121.181M7.037 36.2l-.121.121M6.916 36.321l-.12.06"/>
    </g>
    <path d="M9.093 40.246h-5.08" style="fill:none;stroke:#840000;stroke-width:.1524;stroke-opacity:1;stroke-linecap:round;stroke-linejoin:round"/>
    <g class="stroked-text" style="fill:none;stroke:#006464;stroke-width:.1524;stroke-opacity:1;stroke-linecap:round;stroke-linejoin:round">
        <path d="M10.512 40.826v-1.27M10.512 39.556h.302M10.814 39.556l.181.06M10.996 39.616l.12.121M11.117 39.737l.06.121M11.177 39.858l.06.242M11.237 40.1v.181M11.237 40.282l-.06.241M11.177 40.523l-.06.121M11.117 40.644l-.122.121M10.996 40.765l-.182.06M10.814 40.826h-.302M11.842 40.826h.242M12.084 40.826l.121-.06M12.205 40.765l.06-.06M12.266 40.705l.12-.182M12.387 40.523l.06-.242M12.447 40.282v-.484M12.447 39.798l-.06-.121M12.387 39.677l-.061-.06M12.326 39.616l-.12-.06M12.205 39.556h-.242M11.963 39.556l-.12.06M11.842 39.616l-.06.06M11.782 39.677l-.06.12M11.721 39.798v.302M11.721 40.1l.06.121M11.782 40.221l.06.06M11.842 40.282l.121.06M11.963 40.342h.242M12.205 40.342l.121-.06M12.326 40.282l.06-.06M12.387 40.221l.06-.12"/>
    </g>
    <g class="stroked-text" style="fill:none;stroke:#a90000;stroke-width:.1524;stroke-opacity:1;stroke-linecap:round;stroke-linejoin:round">
        <path d="M6.311 39.829h-.725M5.948 39.829v-1.27M5.948 38.559l-.12.181M5.828 38.74l-.122.121M5.707 38.861l-.121.06M6.795 38.68l.06-.06M6.856 38.62l.12-.061M6.977 38.559h.302M7.279 38.559l.12.06M7.4 38.62l.06.06M7.46 38.68l.06.12M7.52 38.8v.122M7.52 38.922l-.06.181M7.46 39.103l-.725.726M6.735 39.829h.786"/>
    </g>
    <path d="M34.493 9.766h5.08" style="fill:none;stroke:#840000;stroke-width:.1524;stroke-opacity:1;stroke-linecap:round;stroke-linejoin:round"/>
    <g class="stroked-text" style="fill:none;stroke:#006464;stroke-width:.1524;stroke-opacity:1;stroke-linecap:round;stroke-linejoin:round">
        <path d="M30.837 10.346v-1.27M30.837 9.076h.302M31.14 9.076l.18.06M31.32 9.136l.122.121M31.442 9.257l.06.121M31.502 9.378l.06.242M31.563 9.62v.182M31.563 9.802l-.06.241M31.502 10.043l-.06.121M31.442 10.164l-.121.121M31.32 10.285l-.18.06M31.14 10.346h-.303M32.107 9.862h.968"/>
    </g>
    <g class="stroked-text" style="fill:none;stroke:#a90000;stroke-width:.1524;stroke-opacity:1;stroke-linecap:round;stroke-linejoin:round">
        <path d="m36.066 8.2.06-.06M36.126 8.14l.121-.061M36.247 8.079h.302M36.55 8.079l.12.06M36.67 8.14l.06.06M36.73 8.2l.061.12M36.791 8.32v.122M36.791 8.442l-.06.181M36.73 8.623l-.725.726M36.005 9.349h.786M37.94 8.079h-.604M37.336 8.079l-.06.605M37.275 8.684l.06-.06M37.336 8.623l.12-.06M37.457 8.563h.302M37.759 8.563l.12.06M37.88 8.623l.06.06M37.94 8.684l.06.12M38 8.805v.302M38 9.107l-.06.12M37.94 9.228l-.06.06M37.88 9.288l-.121.06M37.759 9.349h-.303M37.457 9.349l-.121-.06M37.336 9.288l-.06-.06"/>
    </g>
    <path d="M34.493 12.306h5.08" style="fill:none;stroke:#840000;stroke-width:.1524;stroke-opacity:1;stroke-linecap:round;stroke-linejoin:round"/>
    <g class="stroked-text" style="fill:none;stroke:#006464;stroke-width:.1524;stroke-opacity:1;stroke-linecap:round;stroke-linejoin:round">
        <path d="m30.595 12.886-.423-.605M29.87 12.886v-1.27M29.87 11.616h.483M30.353 11.616l.121.06M30.474 11.676l.06.06M30.535 11.737l.06.12M30.595 11.858v.181M30.595 12.04l-.06.12M30.535 12.16l-.06.06M30.474 12.22l-.12.061M30.353 12.281h-.484M31.079 12.523h.605M30.958 12.886l.423-1.27M31.381 11.616l.424 1.27M32.107 11.616l.302 1.27M32.41 12.886l.241-.907M32.651 11.979l.242.907M32.893 12.886l.303-1.27"/>
    </g>
    <g class="stroked-text" style="fill:none;stroke:#a90000;stroke-width:.1524;stroke-opacity:1;stroke-linecap:round;stroke-linejoin:round">
        <path d="m36.066 10.74.06-.06M36.126 10.68l.121-.061M36.247 10.619h.302M36.55 10.619l.12.06M36.67 10.68l.06.06M36.73 10.74l.061.12M36.791 10.86v.122M36.791 10.982l-.06.181M36.73 11.163l-.725.726M36.005 11.889h.786M37.88 11.042v.847M37.577 10.558l-.302.908M37.275 11.466h.786"/>
    </g>
    <path d="M34.493 14.846h5.08" style="fill:none;stroke:#840000;stroke-width:.1524;stroke-opacity:1;stroke-linecap:round;stroke-linejoin:round"/>
    <g class="stroked-text" style="fill:none;stroke:#006464;stroke-width:.1524;stroke-opacity:1;stroke-linecap:round;stroke-linejoin:round">
        <path d="m30.474 14.216-.12-.06M30.353 14.156h-.181M30.172 14.156l-.182.06M29.99 14.216l-.12.121M29.87 14.337l-.061.121M29.809 14.458l-.06.242M29.748 14.7v.182M29.748 14.882l.06.241M29.809 15.123l.06.121M29.87 15.244l.12.121M29.99 15.365l.182.06M30.172 15.426h.12M30.293 15.426l.181-.06M30.474 15.365l.06-.06M30.535 15.305v-.423M30.535 14.882h-.242M31.079 15.426v-1.27M31.079 14.156l.726 1.27M31.805 15.426v-1.27M32.41 15.426v-1.27M32.41 14.156h.302M32.712 14.156l.181.06M32.893 14.216l.121.121M33.014 14.337l.06.121M33.075 14.458l.06.242M33.135 14.7v.182M33.135 14.882l-.06.241M33.075 15.123l-.06.121M33.014 15.244l-.12.121M32.893 15.365l-.181.06M32.712 15.426h-.303"/>
    </g>
    <g class="stroked-text" style="fill:none;stroke:#a90000;stroke-width:.1524;stroke-opacity:1;stroke-linecap:round;stroke-linejoin:round">
        <path d="m36.066 13.28.06-.06M36.126 13.22l.121-.061M36.247 13.159h.302M36.55 13.159l.12.06M36.67 13.22l.06.06M36.73 13.28l.061.12M36.791 13.4v.122M36.791 13.522l-.06.181M36.73 13.703l-.725.726M36.005 14.429h.786M37.215 13.159H38M38 13.159l-.423.484M37.577 13.643h.182M37.759 13.643l.12.06M37.88 13.703l.06.06M37.94 13.764l.06.12M38 13.885v.302M38 14.187l-.06.12M37.94 14.308l-.06.06M37.88 14.368l-.121.06M37.759 14.429h-.363M37.396 14.429l-.12-.06M37.275 14.368l-.06-.06"/>
    </g>
    <path d="M34.493 17.386h5.08" style="fill:none;stroke:#840000;stroke-width:.1524;stroke-opacity:1;stroke-linecap:round;stroke-linejoin:round"/>
    <g class="stroked-text" style="fill:none;stroke:#006464;stroke-width:.1524;stroke-opacity:1;stroke-linecap:round;stroke-linejoin:round">
        <path d="m30.958 17.966-.423-.605M30.232 17.966v-1.27M30.232 16.696h.484M30.716 16.696l.121.06M30.837 16.756l.06.06M30.898 16.817l.06.12M30.958 16.938v.181M30.958 17.12l-.06.12M30.898 17.24l-.061.06M30.837 17.3l-.121.061M30.716 17.361h-.484M31.442 17.905l.181.06M31.623 17.966h.303M31.926 17.966l.12-.06M32.047 17.905l.06-.06M32.107 17.845l.06-.121M32.167 17.724v-.121M32.167 17.603l-.06-.121M32.107 17.482l-.06-.06M32.047 17.422l-.121-.06M31.926 17.361l-.242-.06M31.684 17.3l-.121-.06M31.563 17.24l-.06-.06M31.502 17.18l-.06-.121M31.442 17.059v-.121M31.442 16.938l.06-.121M31.502 16.817l.06-.06M31.563 16.756l.12-.06M31.684 16.696h.302M31.986 16.696l.181.06M32.53 16.696h.726M32.893 17.966v-1.27"/>
    </g>
    <g class="stroked-text" style="fill:none;stroke:#a90000;stroke-width:.1524;stroke-opacity:1;stroke-linecap:round;stroke-linejoin:round">
        <path d="m36.066 15.82.06-.06M36.126 15.76l.121-.061M36.247 15.699h.302M36.55 15.699l.12.06M36.67 15.76l.06.06M36.73 15.82l.061.12M36.791 15.94v.122M36.791 16.062l-.06.181M36.73 16.243l-.725.726M36.005 16.969h.786M37.275 15.82l.06-.06M37.336 15.76l.12-.061M37.457 15.699h.302M37.759 15.699l.12.06M37.88 15.76l.06.06M37.94 15.82l.06.12M38 15.94v.122M38 16.062l-.06.181M37.94 16.243l-.725.726M37.215 16.969H38"/>
    </g>
    <path d="M34.493 19.926h5.08" style="fill:none;stroke:#840000;stroke-width:.1524;stroke-opacity:1;stroke-linecap:round;stroke-linejoin:round"/>
    <g class="stroked-text" style="fill:none;stroke:#006464;stroke-width:.1524;stroke-opacity:1;stroke-linecap:round;stroke-linejoin:round">
        <path d="M30.05 19.236h.787M30.837 19.236l-.423.484M30.414 19.72h.181M30.595 19.72l.121.06M30.716 19.78l.06.06M30.777 19.84l.06.122M30.837 19.962v.302M30.837 20.264l-.06.12M30.777 20.385l-.061.06M30.716 20.445l-.12.06M30.595 20.506h-.363M30.232 20.506l-.12-.06M30.111 20.445l-.06-.06M31.2 19.236l.423 1.27M31.623 20.506l.424-1.27M32.349 19.236h.786M33.135 19.236l-.423.484M32.712 19.72h.181M32.893 19.72l.121.06M33.014 19.78l.06.06M33.075 19.84l.06.122M33.135 19.962v.302M33.135 20.264l-.06.12M33.075 20.385l-.06.06M33.014 20.445l-.12.06M32.893 20.506h-.363M32.53 20.506l-.12-.06M32.41 20.445l-.061-.06"/>
    </g>
    <g class="stroked-text" style="fill:none;stroke:#a90000;stroke-width:.1524;stroke-opacity:1;stroke-linecap:round;stroke-linejoin:round">
        <path d="m36.066 18.36.06-.06M36.126 18.3l.121-.061M36.247 18.239h.302M36.55 18.239l.12.06M36.67 18.3l.06.06M36.73 18.36l.061.12M36.791 18.48v.122M36.791 18.602l-.06.181M36.73 18.783l-.725.726M36.005 19.509h.786M38 19.509h-.725M37.638 19.509v-1.27M37.638 18.239l-.121.181M37.517 18.42l-.121.121M37.396 18.541l-.12.06"/>
    </g>
    <path d="M34.493 22.466h5.08" style="fill:none;stroke:#840000;stroke-width:.1524;stroke-opacity:1;stroke-linecap:round;stroke-linejoin:round"/>
    <g class="stroked-text" style="fill:none;stroke:#006464;stroke-width:.1524;stroke-opacity:1;stroke-linecap:round;stroke-linejoin:round">
        <path d="M31.32 22.683h.605M31.2 23.046l.423-1.27M31.623 21.776l.424 1.27M32.349 21.776h.786M33.135 21.776l-.423.484M32.712 22.26h.181M32.893 22.26l.121.06M33.014 22.32l.06.06M33.075 22.38l.06.122M33.135 22.502v.302M33.135 22.804l-.06.12M33.075 22.925l-.06.06M33.014 22.985l-.12.06M32.893 23.046h-.363M32.53 23.046l-.12-.06M32.41 22.985l-.061-.06"/>
    </g>
    <g class="stroked-text" style="fill:none;stroke:#a90000;stroke-width:.1524;stroke-opacity:1;stroke-linecap:round;stroke-linejoin:round">
        <path d="m36.066 20.9.06-.06M36.126 20.84l.121-.061M36.247 20.779h.302M36.55 20.779l.12.06M36.67 20.84l.06.06M36.73 20.9l.061.12M36.791 21.02v.122M36.791 21.142l-.06.181M36.73 21.323l-.725.726M36.005 22.049h.786M37.577 20.779h.121M37.698 20.779l.121.06M37.82 20.84l.06.06M37.88 20.9l.06.12M37.94 21.02l.06.243M38 21.263v.302M38 21.565l-.06.242M37.94 21.807l-.06.12M37.88 21.928l-.06.06M37.82 21.988l-.122.06M37.698 22.049h-.12M37.577 22.049l-.12-.06M37.457 21.988l-.061-.06M37.396 21.928l-.06-.121M37.336 21.807l-.06-.242M37.275 21.565v-.302M37.275 21.263l.06-.242M37.336 21.02l.06-.12M37.396 20.9l.06-.06M37.457 20.84l.12-.061"/>
    </g>
    <path d="M34.493 25.006h5.08" style="fill:none;stroke:#840000;stroke-width:.1524;stroke-opacity:1;stroke-linecap:round;stroke-linejoin:round"/>
    <g class="stroked-text" style="fill:none;stroke:#006464;stroke-width:.1524;stroke-opacity:1;stroke-linecap:round;stroke-linejoin:round">
        <path d="M31.32 25.223h.605M31.2 25.586l.423-1.27M31.623 24.316l.424 1.27M32.41 24.437l.06-.06M32.47 24.376l.12-.06M32.59 24.316h.303M32.893 24.316l.121.06M33.014 24.376l.06.06M33.075 24.437l.06.12M33.135 24.558v.12M33.135 24.679l-.06.181M33.075 24.86l-.726.726M32.349 25.586h.786"/>
    </g>
    <g class="stroked-text" style="fill:none;stroke:#a90000;stroke-width:.1524;stroke-opacity:1;stroke-linecap:round;stroke-linejoin:round">
        <path d="M36.791 24.589h-.725M36.428 24.589v-1.27M36.428 23.319l-.12.181M36.308 23.5l-.121.121M36.187 23.621l-.121.06M37.396 24.589h.242M37.638 24.589l.12-.06M37.759 24.528l.06-.06M37.82 24.468l.12-.182M37.94 24.286l.06-.242M38 24.045v-.484M38 23.56l-.06-.12M37.94 23.44l-.06-.06M37.88 23.38l-.121-.061M37.759 23.319h-.242M37.517 23.319l-.121.06M37.396 23.38l-.06.06M37.336 23.44l-.06.12M37.275 23.56v.303M37.275 23.863l.06.121M37.336 23.984l.06.06M37.396 24.045l.121.06M37.517 24.105h.242M37.759 24.105l.12-.06M37.88 24.045l.06-.06M37.94 23.984l.06-.12"/>
    </g>
    <path d="M34.493 27.546h5.08" style="fill:none;stroke:#840000;stroke-width:.1524;stroke-opacity:1;stroke-linecap:round;stroke-linejoin:round"/>
    <g class="stroked-text" style="fill:none;stroke:#006464;stroke-width:.1524;stroke-opacity:1;stroke-linecap:round;stroke-linejoin:round">
        <path d="M31.32 27.763h.605M31.2 28.126l.423-1.27M31.623 26.856l.424 1.27M33.135 28.126h-.726M32.772 28.126v-1.27M32.772 26.856l-.12.181M32.651 27.037l-.12.121M32.53 27.158l-.12.06"/>
    </g>
    <g class="stroked-text" style="fill:none;stroke:#a90000;stroke-width:.1524;stroke-opacity:1;stroke-linecap:round;stroke-linejoin:round">
        <path d="M36.791 27.129h-.725M36.428 27.129v-1.27M36.428 25.859l-.12.181M36.308 26.04l-.121.121M36.187 26.161l-.121.06M37.517 26.403l-.121-.06M37.396 26.343l-.06-.06M37.336 26.282l-.06-.12M37.275 26.161v-.06M37.275 26.1l.06-.12M37.336 25.98l.06-.06M37.396 25.92l.121-.061M37.517 25.859h.242M37.759 25.859l.12.06M37.88 25.92l.06.06M37.94 25.98l.06.12M38 26.1v.061M38 26.161l-.06.121M37.94 26.282l-.06.06M37.88 26.343l-.121.06M37.759 26.403h-.242M37.517 26.403l-.121.06M37.396 26.464l-.06.06M37.336 26.524l-.06.121M37.275 26.645v.242M37.275 26.887l.06.12M37.336 27.008l.06.06M37.396 27.068l.121.06M37.517 27.129h.242M37.759 27.129l.12-.06M37.88 27.068l.06-.06M37.94 27.008l.06-.121M38 26.887v-.242M38 26.645l-.06-.12M37.94 26.524l-.06-.06M37.88 26.464l-.121-.06"/>
    </g>
    <path d="M34.493 30.086h5.08" style="fill:none;stroke:#840000;stroke-width:.1524;stroke-opacity:1;stroke-linecap:round;stroke-linejoin:round"/>
    <g class="stroked-text" style="fill:none;stroke:#006464;stroke-width:.1524;stroke-opacity:1;stroke-linecap:round;stroke-linejoin:round">
        <path d="M31.32 30.303h.605M31.2 30.666l.423-1.27M31.623 29.396l.424 1.27M32.712 29.396h.12M32.833 29.396l.12.06M32.954 29.456l.06.06M33.014 29.517l.06.12M33.075 29.638l.06.242M33.135 29.88v.302M33.135 30.182l-.06.242M33.075 30.424l-.06.12M33.014 30.545l-.06.06M32.954 30.605l-.121.06M32.833 30.666h-.121M32.712 30.666l-.121-.06M32.59 30.605l-.06-.06M32.53 30.545l-.06-.121M32.47 30.424l-.06-.242M32.41 30.182v-.302M32.41 29.88l.06-.242M32.47 29.638l.06-.121M32.53 29.517l.06-.06M32.59 29.456l.122-.06"/>
    </g>
    <g class="stroked-text" style="fill:none;stroke:#a90000;stroke-width:.1524;stroke-opacity:1;stroke-linecap:round;stroke-linejoin:round">
        <path d="M36.791 29.669h-.725M36.428 29.669v-1.27M36.428 28.399l-.12.181M36.308 28.58l-.121.121M36.187 28.701l-.121.06M37.215 28.399h.846M38.061 28.399l-.544 1.27"/>
    </g>
    <path d="M34.493 32.626h5.08" style="fill:none;stroke:#840000;stroke-width:.1524;stroke-opacity:1;stroke-linecap:round;stroke-linejoin:round"/>
    <g class="stroked-text" style="fill:none;stroke:#006464;stroke-width:.1524;stroke-opacity:1;stroke-linecap:round;stroke-linejoin:round">
        <path d="m30.837 33.085-.06.06M30.777 33.145l-.182.06M30.595 33.206h-.12M30.474 33.206l-.181-.06M30.293 33.145l-.121-.12M30.172 33.024l-.06-.12M30.111 32.903l-.06-.242M30.05 32.661v-.18M30.05 32.48l.061-.242M30.111 32.238l.06-.12M30.172 32.117l.12-.12M30.293 31.996l.181-.06M30.474 31.936h.121M30.595 31.936l.181.06M30.777 31.996l.06.06M31.986 33.206h-.605M31.381 33.206v-1.27M32.41 33.206v-1.27M33.135 33.206l-.544-.726M33.135 31.936l-.726.725"/>
    </g>
    <g class="stroked-text" style="fill:none;stroke:#a90000;stroke-width:.1524;stroke-opacity:1;stroke-linecap:round;stroke-linejoin:round">
        <path d="M36.791 32.209h-.725M36.428 32.209v-1.27M36.428 30.939l-.12.181M36.308 31.12l-.121.121M36.187 31.241l-.121.06M37.88 30.939h-.242M37.638 30.939l-.121.06M37.517 31l-.06.06M37.457 31.06l-.121.181M37.336 31.241l-.06.242M37.275 31.483v.484M37.275 31.967l.06.12M37.336 32.088l.06.06M37.396 32.148l.121.06M37.517 32.209h.242M37.759 32.209l.12-.06M37.88 32.148l.06-.06M37.94 32.088l.06-.121M38 31.967v-.302M38 31.665l-.06-.121M37.94 31.544l-.06-.06M37.88 31.483l-.121-.06M37.759 31.423h-.242M37.517 31.423l-.121.06M37.396 31.483l-.06.06M37.336 31.544l-.06.12"/>
    </g>
    <path d="M34.493 35.166h5.08" style="fill:none;stroke:#840000;stroke-width:.1524;stroke-opacity:1;stroke-linecap:round;stroke-linejoin:round"/>
    <g class="stroked-text" style="fill:none;stroke:#006464;stroke-width:.1524;stroke-opacity:1;stroke-linecap:round;stroke-linejoin:round">
        <path d="M29.083 35.746v-1.27M29.083 34.476l.424.907M29.507 35.383l.423-.907M29.93 34.476v1.27M30.535 35.746v-1.27M31.079 35.685l.181.06M31.26 35.746h.303M31.563 35.746l.12-.06M31.684 35.685l.06-.06M31.744 35.625l.06-.121M31.805 35.504v-.121M31.805 35.383l-.06-.121M31.744 35.262l-.06-.06M31.684 35.202l-.121-.06M31.563 35.141l-.242-.06M31.32 35.08l-.12-.06M31.2 35.02l-.06-.06M31.14 34.96l-.061-.121M31.079 34.839v-.121M31.079 34.718l.06-.121M31.14 34.597l.06-.06M31.2 34.536l.12-.06M31.32 34.476h.303M31.623 34.476l.182.06M32.59 34.476h.243M32.833 34.476l.12.06M32.954 34.536l.12.121M33.075 34.657l.06.242M33.135 34.9v.422M33.135 35.323l-.06.241M33.075 35.564l-.121.121M32.954 35.685l-.121.06M32.833 35.746h-.242M32.59 35.746l-.12-.06M32.47 35.685l-.121-.12M32.349 35.564l-.06-.242M32.288 35.323v-.424M32.288 34.9l.06-.243M32.349 34.657l.12-.12M32.47 34.536l.12-.06"/>
    </g>
    <g class="stroked-text" style="fill:none;stroke:#a90000;stroke-width:.1524;stroke-opacity:1;stroke-linecap:round;stroke-linejoin:round">
        <path d="M36.791 34.749h-.725M36.428 34.749v-1.27M36.428 33.479l-.12.181M36.308 33.66l-.121.121M36.187 33.781l-.121.06M37.94 33.479h-.604M37.336 33.479l-.06.605M37.275 34.084l.06-.06M37.336 34.023l.12-.06M37.457 33.963h.302M37.759 33.963l.12.06M37.88 34.023l.06.06M37.94 34.084l.06.12M38 34.205v.302M38 34.507l-.06.12M37.94 34.628l-.06.06M37.88 34.688l-.121.06M37.759 34.749h-.303M37.457 34.749l-.121-.06M37.336 34.688l-.06-.06"/>
    </g>
    <path d="M34.493 37.706h5.08" style="fill:none;stroke:#840000;stroke-width:.1524;stroke-opacity:1;stroke-linecap:round;stroke-linejoin:round"/>
    <g class="stroked-text" style="fill:none;stroke:#006464;stroke-width:.1524;stroke-opacity:1;stroke-linecap:round;stroke-linejoin:round">
        <path d="M29.083 38.286v-1.27M29.083 37.016l.424.907M29.507 37.923l.423-.907M29.93 37.016v1.27M30.776 37.016h.242M31.018 37.016l.121.06M31.14 37.076l.12.121M31.26 37.197l.06.242M31.32 37.44v.422M31.32 37.863l-.06.241M31.26 38.104l-.12.121M31.14 38.225l-.122.06M31.018 38.286h-.242M30.776 38.286l-.12-.06M30.656 38.225l-.121-.12M30.535 38.104l-.06-.242M30.474 37.863v-.424M30.474 37.44l.06-.243M30.535 37.197l.12-.12M30.656 37.076l.12-.06M31.805 38.225l.181.06M31.986 38.286h.302M32.288 38.286l.121-.06M32.41 38.225l.06-.06M32.47 38.165l.06-.121M32.53 38.044v-.121M32.53 37.923l-.06-.121M32.47 37.802l-.06-.06M32.41 37.742l-.122-.06M32.288 37.681l-.241-.06M32.047 37.62l-.121-.06M31.926 37.56l-.061-.06M31.865 37.5l-.06-.121M31.805 37.379v-.121M31.805 37.258l.06-.121M31.865 37.137l.06-.06M31.926 37.076l.12-.06M32.047 37.016h.302M32.349 37.016l.181.06M33.075 38.286v-1.27"/>
    </g>
    <g class="stroked-text" style="fill:none;stroke:#a90000;stroke-width:.1524;stroke-opacity:1;stroke-linecap:round;stroke-linejoin:round">
        <path d="M36.791 37.289h-.725M36.428 37.289v-1.27M36.428 36.019l-.12.181M36.308 36.2l-.121.121M36.187 36.321l-.121.06M37.88 36.442v.847M37.577 35.958l-.302.907M37.275 36.866h.786"/>
    </g>
    <path d="M34.493 40.246h5.08" style="fill:none;stroke:#840000;stroke-width:.1524;stroke-opacity:1;stroke-linecap:round;stroke-linejoin:round"/>
    <g class="stroked-text" style="fill:none;stroke:#006464;stroke-width:.1524;stroke-opacity:1;stroke-linecap:round;stroke-linejoin:round">
        <path d="M29.99 40.826v-1.27M29.99 39.556h.303M30.293 39.556l.181.06M30.474 39.616l.121.121M30.595 39.737l.06.121M30.656 39.858l.06.242M30.716 40.1v.181M30.716 40.282l-.06.241M30.656 40.523l-.06.121M30.595 40.644l-.12.121M30.474 40.765l-.181.06M30.293 40.826h-.303M31.926 40.826H31.2M31.563 40.826v-1.27M31.563 39.556l-.121.181M31.442 39.737l-.121.121M31.32 39.858l-.12.06M32.712 39.556h.12M32.833 39.556l.12.06M32.954 39.616l.06.06M33.014 39.677l.06.12M33.075 39.798l.06.242M33.135 40.04v.302M33.135 40.342l-.06.242M33.075 40.584l-.06.12M33.014 40.705l-.06.06M32.954 40.765l-.121.06M32.833 40.826h-.121M32.712 40.826l-.121-.06M32.59 40.765l-.06-.06M32.53 40.705l-.06-.121M32.47 40.584l-.06-.242M32.41 40.342v-.302M32.41 40.04l.06-.242M32.47 39.798l.06-.121M32.53 39.677l.06-.06M32.59 39.616l.122-.06"/>
    </g>
    <g class="stroked-text" style="fill:none;stroke:#a90000;stroke-width:.1524;stroke-opacity:1;stroke-linecap:round;stroke-linejoin:round">
        <path d="M36.791 39.829h-.725M36.428 39.829v-1.27M36.428 38.559l-.12.181M36.308 38.74l-.121.121M36.187 38.861l-.121.06M37.215 38.559H38M38 38.559l-.423.484M37.577 39.043h.182M37.759 39.043l.12.06M37.88 39.103l.06.06M37.94 39.164l.06.12M38 39.285v.302M38 39.587l-.06.12M37.94 39.708l-.06.06M37.88 39.768l-.121.06M37.759 39.829h-.363M37.396 39.829l-.12-.06M37.275 39.768l-.06-.06"/>
    </g>
    <g style="fill:none;stroke:#006464;stroke-width:.1524;stroke-opacity:1;stroke-linecap:round;stroke-linejoin:round">
        <g class="stroked-text">
            <path d="M-.907-20.502v1.028M-.907-19.474l.06.12M-.847-19.353l.06.06M-.786-19.293l.12.06M-.665-19.232h.242M-.423-19.232l.12-.06M-.302-19.293l.06-.06M-.242-19.353l.06-.121M-.181-19.474v-1.028M.605-19.353l.06.06M.665-19.293l-.06.06M.605-19.232l-.06-.06M.544-19.293l.06-.06M.605-19.353v.12M.363-20.442l.12-.06M.484-20.502h.302M.786-20.502l.121.06M.907-20.442l.06.121M.968-20.32v.12M.968-20.2l-.06.121M.907-20.079l-.06.06M.847-20.019l-.121.06M.726-19.958l-.06.06M.665-19.898l-.06.121M.605-19.777v.06"/>
        </g>
        <g class="stroked-text">
            <path d="M-3.387 20.392v-1.27M-2.66 20.392l-.545-.726M-2.66 19.122l-.727.725M-1.693 19.726l.181.06M-1.512 19.787l.06.06M-1.451 19.847l.06.121M-1.39 19.968v.182M-1.39 20.15l-.061.12M-1.451 20.27l-.06.061M-1.512 20.331l-.12.06M-1.633 20.392h-.484M-2.117 20.392v-1.27M-2.117 19.122h.424M-1.693 19.122l.12.06M-1.572 19.182l.06.06M-1.512 19.243l.06.12M-1.451 19.363v.121M-1.451 19.484l-.06.121M-1.512 19.605l-.06.06M-1.572 19.666l-.121.06M-1.693 19.726h-.424M-.907 19.243l.06-.061M-.847 19.182l.121-.06M-.726 19.122h.303M-.423 19.122l.12.06M-.302 19.182l.06.06M-.242 19.243l.06.12M-.181 19.363v.121M-.181 19.484l-.06.182M-.242 19.666l-.725.726M-.967 20.392h.786M.605 19.122h.12M.726 19.122l.12.06M.847 19.182l.06.06M.907 19.243l.06.12M.968 19.363l.06.242M1.028 19.605v.303M1.028 19.908l-.06.242M.968 20.15l-.06.12M.907 20.27l-.06.061M.847 20.331l-.121.06M.726 20.392H.605M.605 20.392l-.121-.06M.484 20.331l-.06-.06M.423 20.27l-.06-.12M.363 20.15l-.06-.242M.302 19.908v-.303M.302 19.605l.06-.242M.363 19.363l.06-.12M.423 19.243l.06-.061M.484 19.182l.12-.06M2.117 19.545v.846M1.814 19.061l-.302.907M1.512 19.968h.786M3.024 19.122h.12M3.145 19.122l.12.06M3.266 19.182l.06.06M3.326 19.243l.06.12M3.387 19.363l.06.242M3.447 19.605v.303M3.447 19.908l-.06.242M3.387 20.15l-.06.12M3.326 20.27l-.06.061M3.266 20.331l-.121.06M3.145 20.392h-.121M3.024 20.392l-.121-.06M2.903 20.331l-.06-.06M2.842 20.27l-.06-.12M2.782 20.15l-.06-.242M2.721 19.908v-.303M2.721 19.605l.06-.242M2.782 19.363l.06-.12M2.842 19.243l.06-.061M2.903 19.182l.12-.06"/>
        </g>
    </g>
</svg>
