<?xml version="1.0" standalone="no"?>
 <!DOCTYPE svg PUBLIC "-//W3C//DTD SVG 1.1//EN" 
 "http://www.w3.org/Graphics/SVG/1.1/DTD/svg11.dtd"> 
<svg
  xmlns:svg="http://www.w3.org/2000/svg"
  xmlns="http://www.w3.org/2000/svg"
  xmlns:xlink="http://www.w3.org/1999/xlink"
  version="1.1"
  width="43.5864mm" height="51.7144mm" viewBox="0.0000 0.0000 43.5864 51.7144">
<title>SVG Image created as KB2040_unit1.svg date 2025/04/10 11:36:08 </title>
  <desc>Image generated by Eeschema-SVG </desc>
<g style="fill:#000000; fill-opacity:1.0000;stroke:#000000; stroke-opacity:1.0000;
stroke-linecap:round; stroke-linejoin:round;"
 transform="translate(0 0) scale(1 1)">
</g>
<g style="fill:#FFFFC2; fill-opacity:1.0000; stroke:none;">
<rect x="9.093200" y="8.077200" width="25.400000" height="35.560000" rx="0.000000" />
</g>
<g style="fill:none; 
stroke:#840000; stroke-width:0.1524; stroke-opacity:1; 
stroke-linecap:round; stroke-linejoin:round;">
<rect x="9.093200" y="8.077200" width="25.400000" height="35.560000" rx="0.000000" />
<path d="M9.0932 10.6172
L4.0132 10.6172
" />
</g>
<g style="fill:none; 
stroke:#006464; stroke-width:0.1524; stroke-opacity:1; 
stroke-linecap:round; stroke-linejoin:round;">
<text x="10.1092" y="11.2522"
textLength="3.0456" font-size="1.6933" lengthAdjust="spacingAndGlyphs"
text-anchor="start" opacity="0" stroke-opacity="0">D+</text>
<g class="stroked-text"><desc>D+</desc>
<path d="M10.5117 11.1967
L10.5117 9.9267
" />
<path d="M10.5117 9.9267
L10.8141 9.9267
" />
<path d="M10.8141 9.9267
L10.9955 9.9872
" />
<path d="M10.9955 9.9872
L11.1165 10.1082
" />
<path d="M11.1165 10.1082
L11.1770 10.2291
" />
<path d="M11.1770 10.2291
L11.2374 10.4710
" />
<path d="M11.2374 10.4710
L11.2374 10.6524
" />
<path d="M11.2374 10.6524
L11.1770 10.8943
" />
<path d="M11.1770 10.8943
L11.1165 11.0153
" />
<path d="M11.1165 11.0153
L10.9955 11.1363
" />
<path d="M10.9955 11.1363
L10.8141 11.1967
" />
<path d="M10.8141 11.1967
L10.5117 11.1967
" />
<path d="M11.7817 10.7129
L12.7494 10.7129
" />
<path d="M12.2655 11.1967
L12.2655 10.2291
" />
</g></g>
<g style="fill:none; 
stroke:#A90000; stroke-width:0.1524; stroke-opacity:1; 
stroke-linecap:round; stroke-linejoin:round;">
<text x="6.5532" y="10.3632"
textLength="1.4127" font-size="1.6933" lengthAdjust="spacingAndGlyphs"
text-anchor="middle" opacity="0" stroke-opacity="0">0</text>
<g class="stroked-text"><desc>0</desc>
<path d="M6.4927 8.9297
L6.6137 8.9297
" />
<path d="M6.6137 8.9297
L6.7346 8.9902
" />
<path d="M6.7346 8.9902
L6.7951 9.0507
" />
<path d="M6.7951 9.0507
L6.8556 9.1716
" />
<path d="M6.8556 9.1716
L6.9161 9.4135
" />
<path d="M6.9161 9.4135
L6.9161 9.7159
" />
<path d="M6.9161 9.7159
L6.8556 9.9578
" />
<path d="M6.8556 9.9578
L6.7951 10.0788
" />
<path d="M6.7951 10.0788
L6.7346 10.1393
" />
<path d="M6.7346 10.1393
L6.6137 10.1997
" />
<path d="M6.6137 10.1997
L6.4927 10.1997
" />
<path d="M6.4927 10.1997
L6.3718 10.1393
" />
<path d="M6.3718 10.1393
L6.3113 10.0788
" />
<path d="M6.3113 10.0788
L6.2508 9.9578
" />
<path d="M6.2508 9.9578
L6.1904 9.7159
" />
<path d="M6.1904 9.7159
L6.1904 9.4135
" />
<path d="M6.1904 9.4135
L6.2508 9.1716
" />
<path d="M6.2508 9.1716
L6.3113 9.0507
" />
<path d="M6.3113 9.0507
L6.3718 8.9902
" />
<path d="M6.3718 8.9902
L6.4927 8.9297
" />
</g></g>
<g style="fill:none; 
stroke:#840000; stroke-width:0.1524; stroke-opacity:1; 
stroke-linecap:round; stroke-linejoin:round;">
<path d="M9.0932 13.1572
L4.0132 13.1572
" />
</g>
<g style="fill:none; 
stroke:#006464; stroke-width:0.1524; stroke-opacity:1; 
stroke-linecap:round; stroke-linejoin:round;">
<text x="10.1092" y="13.7922"
textLength="2.3803" font-size="1.6933" lengthAdjust="spacingAndGlyphs"
text-anchor="start" opacity="0" stroke-opacity="0">TX</text>
<g class="stroked-text"><desc>TX</desc>
<path d="M10.3303 12.4667
L11.0560 12.4667
" />
<path d="M10.6932 13.7367
L10.6932 12.4667
" />
<path d="M11.3584 12.4667
L12.2050 13.7367
" />
<path d="M12.2050 12.4667
L11.3584 13.7367
" />
</g></g>
<g style="fill:none; 
stroke:#A90000; stroke-width:0.1524; stroke-opacity:1; 
stroke-linecap:round; stroke-linejoin:round;">
<text x="6.5532" y="12.9032"
textLength="1.4127" font-size="1.6933" lengthAdjust="spacingAndGlyphs"
text-anchor="middle" opacity="0" stroke-opacity="0">1</text>
<g class="stroked-text"><desc>1</desc>
<path d="M6.9161 12.7397
L6.1904 12.7397
" />
<path d="M6.5532 12.7397
L6.5532 11.4697
" />
<path d="M6.5532 11.4697
L6.4323 11.6512
" />
<path d="M6.4323 11.6512
L6.3113 11.7721
" />
<path d="M6.3113 11.7721
L6.1904 11.8326
" />
</g></g>
<g style="fill:none; 
stroke:#840000; stroke-width:0.1524; stroke-opacity:1; 
stroke-linecap:round; stroke-linejoin:round;">
<path d="M9.0932 15.6972
L4.0132 15.6972
" />
</g>
<g style="fill:none; 
stroke:#006464; stroke-width:0.1524; stroke-opacity:1; 
stroke-linecap:round; stroke-linejoin:round;">
<text x="10.1092" y="16.3322"
textLength="2.6827" font-size="1.6933" lengthAdjust="spacingAndGlyphs"
text-anchor="start" opacity="0" stroke-opacity="0">RX</text>
<g class="stroked-text"><desc>RX</desc>
<path d="M11.2374 16.2767
L10.8141 15.6720
" />
<path d="M10.5117 16.2767
L10.5117 15.0067
" />
<path d="M10.5117 15.0067
L10.9955 15.0067
" />
<path d="M10.9955 15.0067
L11.1165 15.0672
" />
<path d="M11.1165 15.0672
L11.1770 15.1277
" />
<path d="M11.1770 15.1277
L11.2374 15.2486
" />
<path d="M11.2374 15.2486
L11.2374 15.4301
" />
<path d="M11.2374 15.4301
L11.1770 15.5510
" />
<path d="M11.1770 15.5510
L11.1165 15.6115
" />
<path d="M11.1165 15.6115
L10.9955 15.6720
" />
<path d="M10.9955 15.6720
L10.5117 15.6720
" />
<path d="M11.6608 15.0067
L12.5074 16.2767
" />
<path d="M12.5074 15.0067
L11.6608 16.2767
" />
</g></g>
<g style="fill:none; 
stroke:#A90000; stroke-width:0.1524; stroke-opacity:1; 
stroke-linecap:round; stroke-linejoin:round;">
<text x="6.5532" y="15.4432"
textLength="1.4127" font-size="1.6933" lengthAdjust="spacingAndGlyphs"
text-anchor="middle" opacity="0" stroke-opacity="0">2</text>
<g class="stroked-text"><desc>2</desc>
<path d="M6.1904 14.1307
L6.2508 14.0702
" />
<path d="M6.2508 14.0702
L6.3718 14.0097
" />
<path d="M6.3718 14.0097
L6.6742 14.0097
" />
<path d="M6.6742 14.0097
L6.7951 14.0702
" />
<path d="M6.7951 14.0702
L6.8556 14.1307
" />
<path d="M6.8556 14.1307
L6.9161 14.2516
" />
<path d="M6.9161 14.2516
L6.9161 14.3726
" />
<path d="M6.9161 14.3726
L6.8556 14.5540
" />
<path d="M6.8556 14.5540
L6.1299 15.2797
" />
<path d="M6.1299 15.2797
L6.9161 15.2797
" />
</g></g>
<g style="fill:none; 
stroke:#840000; stroke-width:0.1524; stroke-opacity:1; 
stroke-linecap:round; stroke-linejoin:round;">
<path d="M9.0932 18.2372
L4.0132 18.2372
" />
</g>
<g style="fill:none; 
stroke:#006464; stroke-width:0.1524; stroke-opacity:1; 
stroke-linecap:round; stroke-linejoin:round;">
<text x="10.1092" y="18.8722"
textLength="4.0737" font-size="1.6933" lengthAdjust="spacingAndGlyphs"
text-anchor="start" opacity="0" stroke-opacity="0">GND</text>
<g class="stroked-text"><desc>GND</desc>
<path d="M11.1770 17.6072
L11.0560 17.5467
" />
<path d="M11.0560 17.5467
L10.8746 17.5467
" />
<path d="M10.8746 17.5467
L10.6932 17.6072
" />
<path d="M10.6932 17.6072
L10.5722 17.7282
" />
<path d="M10.5722 17.7282
L10.5117 17.8491
" />
<path d="M10.5117 17.8491
L10.4513 18.0910
" />
<path d="M10.4513 18.0910
L10.4513 18.2724
" />
<path d="M10.4513 18.2724
L10.5117 18.5143
" />
<path d="M10.5117 18.5143
L10.5722 18.6353
" />
<path d="M10.5722 18.6353
L10.6932 18.7563
" />
<path d="M10.6932 18.7563
L10.8746 18.8167
" />
<path d="M10.8746 18.8167
L10.9955 18.8167
" />
<path d="M10.9955 18.8167
L11.1770 18.7563
" />
<path d="M11.1770 18.7563
L11.2374 18.6958
" />
<path d="M11.2374 18.6958
L11.2374 18.2724
" />
<path d="M11.2374 18.2724
L10.9955 18.2724
" />
<path d="M11.7817 18.8167
L11.7817 17.5467
" />
<path d="M11.7817 17.5467
L12.5074 18.8167
" />
<path d="M12.5074 18.8167
L12.5074 17.5467
" />
<path d="M13.1122 18.8167
L13.1122 17.5467
" />
<path d="M13.1122 17.5467
L13.4146 17.5467
" />
<path d="M13.4146 17.5467
L13.5960 17.6072
" />
<path d="M13.5960 17.6072
L13.7170 17.7282
" />
<path d="M13.7170 17.7282
L13.7775 17.8491
" />
<path d="M13.7775 17.8491
L13.8379 18.0910
" />
<path d="M13.8379 18.0910
L13.8379 18.2724
" />
<path d="M13.8379 18.2724
L13.7775 18.5143
" />
<path d="M13.7775 18.5143
L13.7170 18.6353
" />
<path d="M13.7170 18.6353
L13.5960 18.7563
" />
<path d="M13.5960 18.7563
L13.4146 18.8167
" />
<path d="M13.4146 18.8167
L13.1122 18.8167
" />
</g></g>
<g style="fill:none; 
stroke:#A90000; stroke-width:0.1524; stroke-opacity:1; 
stroke-linecap:round; stroke-linejoin:round;">
<text x="6.5532" y="17.9832"
textLength="1.4127" font-size="1.6933" lengthAdjust="spacingAndGlyphs"
text-anchor="middle" opacity="0" stroke-opacity="0">3</text>
<g class="stroked-text"><desc>3</desc>
<path d="M6.1299 16.5497
L6.9161 16.5497
" />
<path d="M6.9161 16.5497
L6.4927 17.0335
" />
<path d="M6.4927 17.0335
L6.6742 17.0335
" />
<path d="M6.6742 17.0335
L6.7951 17.0940
" />
<path d="M6.7951 17.0940
L6.8556 17.1545
" />
<path d="M6.8556 17.1545
L6.9161 17.2754
" />
<path d="M6.9161 17.2754
L6.9161 17.5778
" />
<path d="M6.9161 17.5778
L6.8556 17.6988
" />
<path d="M6.8556 17.6988
L6.7951 17.7593
" />
<path d="M6.7951 17.7593
L6.6742 17.8197
" />
<path d="M6.6742 17.8197
L6.3113 17.8197
" />
<path d="M6.3113 17.8197
L6.1904 17.7593
" />
<path d="M6.1904 17.7593
L6.1299 17.6988
" />
</g></g>
<g style="fill:none; 
stroke:#840000; stroke-width:0.1524; stroke-opacity:1; 
stroke-linecap:round; stroke-linejoin:round;">
<path d="M9.0932 20.7772
L4.0132 20.7772
" />
</g>
<g style="fill:none; 
stroke:#006464; stroke-width:0.1524; stroke-opacity:1; 
stroke-linecap:round; stroke-linejoin:round;">
<text x="10.1092" y="21.4122"
textLength="4.0737" font-size="1.6933" lengthAdjust="spacingAndGlyphs"
text-anchor="start" opacity="0" stroke-opacity="0">GND</text>
<g class="stroked-text"><desc>GND</desc>
<path d="M11.1770 20.1472
L11.0560 20.0867
" />
<path d="M11.0560 20.0867
L10.8746 20.0867
" />
<path d="M10.8746 20.0867
L10.6932 20.1472
" />
<path d="M10.6932 20.1472
L10.5722 20.2682
" />
<path d="M10.5722 20.2682
L10.5117 20.3891
" />
<path d="M10.5117 20.3891
L10.4513 20.6310
" />
<path d="M10.4513 20.6310
L10.4513 20.8124
" />
<path d="M10.4513 20.8124
L10.5117 21.0543
" />
<path d="M10.5117 21.0543
L10.5722 21.1753
" />
<path d="M10.5722 21.1753
L10.6932 21.2963
" />
<path d="M10.6932 21.2963
L10.8746 21.3567
" />
<path d="M10.8746 21.3567
L10.9955 21.3567
" />
<path d="M10.9955 21.3567
L11.1770 21.2963
" />
<path d="M11.1770 21.2963
L11.2374 21.2358
" />
<path d="M11.2374 21.2358
L11.2374 20.8124
" />
<path d="M11.2374 20.8124
L10.9955 20.8124
" />
<path d="M11.7817 21.3567
L11.7817 20.0867
" />
<path d="M11.7817 20.0867
L12.5074 21.3567
" />
<path d="M12.5074 21.3567
L12.5074 20.0867
" />
<path d="M13.1122 21.3567
L13.1122 20.0867
" />
<path d="M13.1122 20.0867
L13.4146 20.0867
" />
<path d="M13.4146 20.0867
L13.5960 20.1472
" />
<path d="M13.5960 20.1472
L13.7170 20.2682
" />
<path d="M13.7170 20.2682
L13.7775 20.3891
" />
<path d="M13.7775 20.3891
L13.8379 20.6310
" />
<path d="M13.8379 20.6310
L13.8379 20.8124
" />
<path d="M13.8379 20.8124
L13.7775 21.0543
" />
<path d="M13.7775 21.0543
L13.7170 21.1753
" />
<path d="M13.7170 21.1753
L13.5960 21.2963
" />
<path d="M13.5960 21.2963
L13.4146 21.3567
" />
<path d="M13.4146 21.3567
L13.1122 21.3567
" />
</g></g>
<g style="fill:none; 
stroke:#A90000; stroke-width:0.1524; stroke-opacity:1; 
stroke-linecap:round; stroke-linejoin:round;">
<text x="6.5532" y="20.5232"
textLength="1.4127" font-size="1.6933" lengthAdjust="spacingAndGlyphs"
text-anchor="middle" opacity="0" stroke-opacity="0">4</text>
<g class="stroked-text"><desc>4</desc>
<path d="M6.7951 19.5131
L6.7951 20.3597
" />
<path d="M6.4927 19.0293
L6.1904 19.9364
" />
<path d="M6.1904 19.9364
L6.9765 19.9364
" />
</g></g>
<g style="fill:none; 
stroke:#840000; stroke-width:0.1524; stroke-opacity:1; 
stroke-linecap:round; stroke-linejoin:round;">
<path d="M9.0932 23.3172
L4.0132 23.3172
" />
</g>
<g style="fill:none; 
stroke:#006464; stroke-width:0.1524; stroke-opacity:1; 
stroke-linecap:round; stroke-linejoin:round;">
<text x="10.1092" y="23.9522"
textLength="7.5813" font-size="1.6933" lengthAdjust="spacingAndGlyphs"
text-anchor="start" opacity="0" stroke-opacity="0">D2/SDA</text>
<g class="stroked-text"><desc>D2/SDA</desc>
<path d="M10.5117 23.8967
L10.5117 22.6267
" />
<path d="M10.5117 22.6267
L10.8141 22.6267
" />
<path d="M10.8141 22.6267
L10.9955 22.6872
" />
<path d="M10.9955 22.6872
L11.1165 22.8082
" />
<path d="M11.1165 22.8082
L11.1770 22.9291
" />
<path d="M11.1770 22.9291
L11.2374 23.1710
" />
<path d="M11.2374 23.1710
L11.2374 23.3524
" />
<path d="M11.2374 23.3524
L11.1770 23.5943
" />
<path d="M11.1770 23.5943
L11.1165 23.7153
" />
<path d="M11.1165 23.7153
L10.9955 23.8363
" />
<path d="M10.9955 23.8363
L10.8141 23.8967
" />
<path d="M10.8141 23.8967
L10.5117 23.8967
" />
<path d="M11.7213 22.7477
L11.7817 22.6872
" />
<path d="M11.7817 22.6872
L11.9027 22.6267
" />
<path d="M11.9027 22.6267
L12.2051 22.6267
" />
<path d="M12.2051 22.6267
L12.3260 22.6872
" />
<path d="M12.3260 22.6872
L12.3865 22.7477
" />
<path d="M12.3865 22.7477
L12.4470 22.8686
" />
<path d="M12.4470 22.8686
L12.4470 22.9896
" />
<path d="M12.4470 22.9896
L12.3865 23.1710
" />
<path d="M12.3865 23.1710
L11.6608 23.8967
" />
<path d="M11.6608 23.8967
L12.4470 23.8967
" />
<path d="M13.8984 22.5663
L12.8098 24.1991
" />
<path d="M14.2613 23.8363
L14.4427 23.8967
" />
<path d="M14.4427 23.8967
L14.7451 23.8967
" />
<path d="M14.7451 23.8967
L14.8660 23.8363
" />
<path d="M14.8660 23.8363
L14.9265 23.7758
" />
<path d="M14.9265 23.7758
L14.9870 23.6548
" />
<path d="M14.9870 23.6548
L14.9870 23.5339
" />
<path d="M14.9870 23.5339
L14.9265 23.4129
" />
<path d="M14.9265 23.4129
L14.8660 23.3524
" />
<path d="M14.8660 23.3524
L14.7451 23.2920
" />
<path d="M14.7451 23.2920
L14.5032 23.2315
" />
<path d="M14.5032 23.2315
L14.3822 23.1710
" />
<path d="M14.3822 23.1710
L14.3217 23.1105
" />
<path d="M14.3217 23.1105
L14.2613 22.9896
" />
<path d="M14.2613 22.9896
L14.2613 22.8686
" />
<path d="M14.2613 22.8686
L14.3217 22.7477
" />
<path d="M14.3217 22.7477
L14.3822 22.6872
" />
<path d="M14.3822 22.6872
L14.5032 22.6267
" />
<path d="M14.5032 22.6267
L14.8055 22.6267
" />
<path d="M14.8055 22.6267
L14.9870 22.6872
" />
<path d="M15.5312 23.8967
L15.5312 22.6267
" />
<path d="M15.5312 22.6267
L15.8336 22.6267
" />
<path d="M15.8336 22.6267
L16.0150 22.6872
" />
<path d="M16.0150 22.6872
L16.1360 22.8082
" />
<path d="M16.1360 22.8082
L16.1965 22.9291
" />
<path d="M16.1965 22.9291
L16.2569 23.1710
" />
<path d="M16.2569 23.1710
L16.2569 23.3524
" />
<path d="M16.2569 23.3524
L16.1965 23.5943
" />
<path d="M16.1965 23.5943
L16.1360 23.7153
" />
<path d="M16.1360 23.7153
L16.0150 23.8363
" />
<path d="M16.0150 23.8363
L15.8336 23.8967
" />
<path d="M15.8336 23.8967
L15.5312 23.8967
" />
<path d="M16.7408 23.5339
L17.3455 23.5339
" />
<path d="M16.6198 23.8967
L17.0431 22.6267
" />
<path d="M17.0431 22.6267
L17.4665 23.8967
" />
</g></g>
<g style="fill:none; 
stroke:#A90000; stroke-width:0.1524; stroke-opacity:1; 
stroke-linecap:round; stroke-linejoin:round;">
<text x="6.5532" y="23.0632"
textLength="1.4127" font-size="1.6933" lengthAdjust="spacingAndGlyphs"
text-anchor="middle" opacity="0" stroke-opacity="0">5</text>
<g class="stroked-text"><desc>5</desc>
<path d="M6.8556 21.6297
L6.2508 21.6297
" />
<path d="M6.2508 21.6297
L6.1904 22.2345
" />
<path d="M6.1904 22.2345
L6.2508 22.1740
" />
<path d="M6.2508 22.1740
L6.3718 22.1135
" />
<path d="M6.3718 22.1135
L6.6742 22.1135
" />
<path d="M6.6742 22.1135
L6.7951 22.1740
" />
<path d="M6.7951 22.1740
L6.8556 22.2345
" />
<path d="M6.8556 22.2345
L6.9161 22.3554
" />
<path d="M6.9161 22.3554
L6.9161 22.6578
" />
<path d="M6.9161 22.6578
L6.8556 22.7788
" />
<path d="M6.8556 22.7788
L6.7951 22.8393
" />
<path d="M6.7951 22.8393
L6.6742 22.8997
" />
<path d="M6.6742 22.8997
L6.3718 22.8997
" />
<path d="M6.3718 22.8997
L6.2508 22.8393
" />
<path d="M6.2508 22.8393
L6.1904 22.7788
" />
</g></g>
<g style="fill:none; 
stroke:#840000; stroke-width:0.1524; stroke-opacity:1; 
stroke-linecap:round; stroke-linejoin:round;">
<path d="M9.0932 25.8572
L4.0132 25.8572
" />
</g>
<g style="fill:none; 
stroke:#006464; stroke-width:0.1524; stroke-opacity:1; 
stroke-linecap:round; stroke-linejoin:round;">
<text x="10.1092" y="26.4922"
textLength="7.5208" font-size="1.6933" lengthAdjust="spacingAndGlyphs"
text-anchor="start" opacity="0" stroke-opacity="0">D3/SCL</text>
<g class="stroked-text"><desc>D3/SCL</desc>
<path d="M10.5117 26.4367
L10.5117 25.1667
" />
<path d="M10.5117 25.1667
L10.8141 25.1667
" />
<path d="M10.8141 25.1667
L10.9955 25.2272
" />
<path d="M10.9955 25.2272
L11.1165 25.3482
" />
<path d="M11.1165 25.3482
L11.1770 25.4691
" />
<path d="M11.1770 25.4691
L11.2374 25.7110
" />
<path d="M11.2374 25.7110
L11.2374 25.8924
" />
<path d="M11.2374 25.8924
L11.1770 26.1343
" />
<path d="M11.1770 26.1343
L11.1165 26.2553
" />
<path d="M11.1165 26.2553
L10.9955 26.3763
" />
<path d="M10.9955 26.3763
L10.8141 26.4367
" />
<path d="M10.8141 26.4367
L10.5117 26.4367
" />
<path d="M11.6608 25.1667
L12.4470 25.1667
" />
<path d="M12.4470 25.1667
L12.0236 25.6505
" />
<path d="M12.0236 25.6505
L12.2051 25.6505
" />
<path d="M12.2051 25.6505
L12.3260 25.7110
" />
<path d="M12.3260 25.7110
L12.3865 25.7715
" />
<path d="M12.3865 25.7715
L12.4470 25.8924
" />
<path d="M12.4470 25.8924
L12.4470 26.1948
" />
<path d="M12.4470 26.1948
L12.3865 26.3158
" />
<path d="M12.3865 26.3158
L12.3260 26.3763
" />
<path d="M12.3260 26.3763
L12.2051 26.4367
" />
<path d="M12.2051 26.4367
L11.8422 26.4367
" />
<path d="M11.8422 26.4367
L11.7213 26.3763
" />
<path d="M11.7213 26.3763
L11.6608 26.3158
" />
<path d="M13.8984 25.1063
L12.8098 26.7391
" />
<path d="M14.2613 26.3763
L14.4427 26.4367
" />
<path d="M14.4427 26.4367
L14.7451 26.4367
" />
<path d="M14.7451 26.4367
L14.8660 26.3763
" />
<path d="M14.8660 26.3763
L14.9265 26.3158
" />
<path d="M14.9265 26.3158
L14.9870 26.1948
" />
<path d="M14.9870 26.1948
L14.9870 26.0739
" />
<path d="M14.9870 26.0739
L14.9265 25.9529
" />
<path d="M14.9265 25.9529
L14.8660 25.8924
" />
<path d="M14.8660 25.8924
L14.7451 25.8320
" />
<path d="M14.7451 25.8320
L14.5032 25.7715
" />
<path d="M14.5032 25.7715
L14.3822 25.7110
" />
<path d="M14.3822 25.7110
L14.3217 25.6505
" />
<path d="M14.3217 25.6505
L14.2613 25.5296
" />
<path d="M14.2613 25.5296
L14.2613 25.4086
" />
<path d="M14.2613 25.4086
L14.3217 25.2877
" />
<path d="M14.3217 25.2877
L14.3822 25.2272
" />
<path d="M14.3822 25.2272
L14.5032 25.1667
" />
<path d="M14.5032 25.1667
L14.8055 25.1667
" />
<path d="M14.8055 25.1667
L14.9870 25.2272
" />
<path d="M16.2569 26.3158
L16.1965 26.3763
" />
<path d="M16.1965 26.3763
L16.0150 26.4367
" />
<path d="M16.0150 26.4367
L15.8941 26.4367
" />
<path d="M15.8941 26.4367
L15.7127 26.3763
" />
<path d="M15.7127 26.3763
L15.5917 26.2553
" />
<path d="M15.5917 26.2553
L15.5312 26.1343
" />
<path d="M15.5312 26.1343
L15.4708 25.8924
" />
<path d="M15.4708 25.8924
L15.4708 25.7110
" />
<path d="M15.4708 25.7110
L15.5312 25.4691
" />
<path d="M15.5312 25.4691
L15.5917 25.3482
" />
<path d="M15.5917 25.3482
L15.7127 25.2272
" />
<path d="M15.7127 25.2272
L15.8941 25.1667
" />
<path d="M15.8941 25.1667
L16.0150 25.1667
" />
<path d="M16.0150 25.1667
L16.1965 25.2272
" />
<path d="M16.1965 25.2272
L16.2569 25.2877
" />
<path d="M17.4060 26.4367
L16.8012 26.4367
" />
<path d="M16.8012 26.4367
L16.8012 25.1667
" />
</g></g>
<g style="fill:none; 
stroke:#A90000; stroke-width:0.1524; stroke-opacity:1; 
stroke-linecap:round; stroke-linejoin:round;">
<text x="6.5532" y="25.6032"
textLength="1.4127" font-size="1.6933" lengthAdjust="spacingAndGlyphs"
text-anchor="middle" opacity="0" stroke-opacity="0">6</text>
<g class="stroked-text"><desc>6</desc>
<path d="M6.7951 24.1697
L6.5532 24.1697
" />
<path d="M6.5532 24.1697
L6.4323 24.2302
" />
<path d="M6.4323 24.2302
L6.3718 24.2907
" />
<path d="M6.3718 24.2907
L6.2508 24.4721
" />
<path d="M6.2508 24.4721
L6.1904 24.7140
" />
<path d="M6.1904 24.7140
L6.1904 25.1978
" />
<path d="M6.1904 25.1978
L6.2508 25.3188
" />
<path d="M6.2508 25.3188
L6.3113 25.3793
" />
<path d="M6.3113 25.3793
L6.4323 25.4397
" />
<path d="M6.4323 25.4397
L6.6742 25.4397
" />
<path d="M6.6742 25.4397
L6.7951 25.3793
" />
<path d="M6.7951 25.3793
L6.8556 25.3188
" />
<path d="M6.8556 25.3188
L6.9161 25.1978
" />
<path d="M6.9161 25.1978
L6.9161 24.8954
" />
<path d="M6.9161 24.8954
L6.8556 24.7745
" />
<path d="M6.8556 24.7745
L6.7951 24.7140
" />
<path d="M6.7951 24.7140
L6.6742 24.6535
" />
<path d="M6.6742 24.6535
L6.4323 24.6535
" />
<path d="M6.4323 24.6535
L6.3113 24.7140
" />
<path d="M6.3113 24.7140
L6.2508 24.7745
" />
<path d="M6.2508 24.7745
L6.1904 24.8954
" />
</g></g>
<g style="fill:none; 
stroke:#840000; stroke-width:0.1524; stroke-opacity:1; 
stroke-linecap:round; stroke-linejoin:round;">
<path d="M9.0932 28.3972
L4.0132 28.3972
" />
</g>
<g style="fill:none; 
stroke:#006464; stroke-width:0.1524; stroke-opacity:1; 
stroke-linecap:round; stroke-linejoin:round;">
<text x="10.1092" y="29.0322"
textLength="2.6827" font-size="1.6933" lengthAdjust="spacingAndGlyphs"
text-anchor="start" opacity="0" stroke-opacity="0">D4</text>
<g class="stroked-text"><desc>D4</desc>
<path d="M10.5117 28.9767
L10.5117 27.7067
" />
<path d="M10.5117 27.7067
L10.8141 27.7067
" />
<path d="M10.8141 27.7067
L10.9955 27.7672
" />
<path d="M10.9955 27.7672
L11.1165 27.8882
" />
<path d="M11.1165 27.8882
L11.1770 28.0091
" />
<path d="M11.1770 28.0091
L11.2374 28.2510
" />
<path d="M11.2374 28.2510
L11.2374 28.4324
" />
<path d="M11.2374 28.4324
L11.1770 28.6743
" />
<path d="M11.1770 28.6743
L11.1165 28.7953
" />
<path d="M11.1165 28.7953
L10.9955 28.9163
" />
<path d="M10.9955 28.9163
L10.8141 28.9767
" />
<path d="M10.8141 28.9767
L10.5117 28.9767
" />
<path d="M12.3260 28.1301
L12.3260 28.9767
" />
<path d="M12.0236 27.6463
L11.7213 28.5534
" />
<path d="M11.7213 28.5534
L12.5074 28.5534
" />
</g></g>
<g style="fill:none; 
stroke:#A90000; stroke-width:0.1524; stroke-opacity:1; 
stroke-linecap:round; stroke-linejoin:round;">
<text x="6.5532" y="28.1432"
textLength="1.4127" font-size="1.6933" lengthAdjust="spacingAndGlyphs"
text-anchor="middle" opacity="0" stroke-opacity="0">7</text>
<g class="stroked-text"><desc>7</desc>
<path d="M6.1299 26.7097
L6.9765 26.7097
" />
<path d="M6.9765 26.7097
L6.4323 27.9797
" />
</g></g>
<g style="fill:none; 
stroke:#840000; stroke-width:0.1524; stroke-opacity:1; 
stroke-linecap:round; stroke-linejoin:round;">
<path d="M9.0932 30.9372
L4.0132 30.9372
" />
</g>
<g style="fill:none; 
stroke:#006464; stroke-width:0.1524; stroke-opacity:1; 
stroke-linecap:round; stroke-linejoin:round;">
<text x="10.1092" y="31.5722"
textLength="2.6827" font-size="1.6933" lengthAdjust="spacingAndGlyphs"
text-anchor="start" opacity="0" stroke-opacity="0">D5</text>
<g class="stroked-text"><desc>D5</desc>
<path d="M10.5117 31.5167
L10.5117 30.2467
" />
<path d="M10.5117 30.2467
L10.8141 30.2467
" />
<path d="M10.8141 30.2467
L10.9955 30.3072
" />
<path d="M10.9955 30.3072
L11.1165 30.4282
" />
<path d="M11.1165 30.4282
L11.1770 30.5491
" />
<path d="M11.1770 30.5491
L11.2374 30.7910
" />
<path d="M11.2374 30.7910
L11.2374 30.9724
" />
<path d="M11.2374 30.9724
L11.1770 31.2143
" />
<path d="M11.1770 31.2143
L11.1165 31.3353
" />
<path d="M11.1165 31.3353
L10.9955 31.4563
" />
<path d="M10.9955 31.4563
L10.8141 31.5167
" />
<path d="M10.8141 31.5167
L10.5117 31.5167
" />
<path d="M12.3865 30.2467
L11.7817 30.2467
" />
<path d="M11.7817 30.2467
L11.7213 30.8515
" />
<path d="M11.7213 30.8515
L11.7817 30.7910
" />
<path d="M11.7817 30.7910
L11.9027 30.7305
" />
<path d="M11.9027 30.7305
L12.2051 30.7305
" />
<path d="M12.2051 30.7305
L12.3260 30.7910
" />
<path d="M12.3260 30.7910
L12.3865 30.8515
" />
<path d="M12.3865 30.8515
L12.4470 30.9724
" />
<path d="M12.4470 30.9724
L12.4470 31.2748
" />
<path d="M12.4470 31.2748
L12.3865 31.3958
" />
<path d="M12.3865 31.3958
L12.3260 31.4563
" />
<path d="M12.3260 31.4563
L12.2051 31.5167
" />
<path d="M12.2051 31.5167
L11.9027 31.5167
" />
<path d="M11.9027 31.5167
L11.7817 31.4563
" />
<path d="M11.7817 31.4563
L11.7213 31.3958
" />
</g></g>
<g style="fill:none; 
stroke:#A90000; stroke-width:0.1524; stroke-opacity:1; 
stroke-linecap:round; stroke-linejoin:round;">
<text x="6.5532" y="30.6832"
textLength="1.4127" font-size="1.6933" lengthAdjust="spacingAndGlyphs"
text-anchor="middle" opacity="0" stroke-opacity="0">8</text>
<g class="stroked-text"><desc>8</desc>
<path d="M6.4323 29.7940
L6.3113 29.7335
" />
<path d="M6.3113 29.7335
L6.2508 29.6731
" />
<path d="M6.2508 29.6731
L6.1904 29.5521
" />
<path d="M6.1904 29.5521
L6.1904 29.4916
" />
<path d="M6.1904 29.4916
L6.2508 29.3707
" />
<path d="M6.2508 29.3707
L6.3113 29.3102
" />
<path d="M6.3113 29.3102
L6.4323 29.2497
" />
<path d="M6.4323 29.2497
L6.6742 29.2497
" />
<path d="M6.6742 29.2497
L6.7951 29.3102
" />
<path d="M6.7951 29.3102
L6.8556 29.3707
" />
<path d="M6.8556 29.3707
L6.9161 29.4916
" />
<path d="M6.9161 29.4916
L6.9161 29.5521
" />
<path d="M6.9161 29.5521
L6.8556 29.6731
" />
<path d="M6.8556 29.6731
L6.7951 29.7335
" />
<path d="M6.7951 29.7335
L6.6742 29.7940
" />
<path d="M6.6742 29.7940
L6.4323 29.7940
" />
<path d="M6.4323 29.7940
L6.3113 29.8545
" />
<path d="M6.3113 29.8545
L6.2508 29.9150
" />
<path d="M6.2508 29.9150
L6.1904 30.0359
" />
<path d="M6.1904 30.0359
L6.1904 30.2778
" />
<path d="M6.1904 30.2778
L6.2508 30.3988
" />
<path d="M6.2508 30.3988
L6.3113 30.4593
" />
<path d="M6.3113 30.4593
L6.4323 30.5197
" />
<path d="M6.4323 30.5197
L6.6742 30.5197
" />
<path d="M6.6742 30.5197
L6.7951 30.4593
" />
<path d="M6.7951 30.4593
L6.8556 30.3988
" />
<path d="M6.8556 30.3988
L6.9161 30.2778
" />
<path d="M6.9161 30.2778
L6.9161 30.0359
" />
<path d="M6.9161 30.0359
L6.8556 29.9150
" />
<path d="M6.8556 29.9150
L6.7951 29.8545
" />
<path d="M6.7951 29.8545
L6.6742 29.7940
" />
</g></g>
<g style="fill:none; 
stroke:#840000; stroke-width:0.1524; stroke-opacity:1; 
stroke-linecap:round; stroke-linejoin:round;">
<path d="M9.0932 33.4772
L4.0132 33.4772
" />
</g>
<g style="fill:none; 
stroke:#006464; stroke-width:0.1524; stroke-opacity:1; 
stroke-linecap:round; stroke-linejoin:round;">
<text x="10.1092" y="34.1122"
textLength="2.6827" font-size="1.6933" lengthAdjust="spacingAndGlyphs"
text-anchor="start" opacity="0" stroke-opacity="0">D6</text>
<g class="stroked-text"><desc>D6</desc>
<path d="M10.5117 34.0567
L10.5117 32.7867
" />
<path d="M10.5117 32.7867
L10.8141 32.7867
" />
<path d="M10.8141 32.7867
L10.9955 32.8472
" />
<path d="M10.9955 32.8472
L11.1165 32.9682
" />
<path d="M11.1165 32.9682
L11.1770 33.0891
" />
<path d="M11.1770 33.0891
L11.2374 33.3310
" />
<path d="M11.2374 33.3310
L11.2374 33.5124
" />
<path d="M11.2374 33.5124
L11.1770 33.7543
" />
<path d="M11.1770 33.7543
L11.1165 33.8753
" />
<path d="M11.1165 33.8753
L10.9955 33.9963
" />
<path d="M10.9955 33.9963
L10.8141 34.0567
" />
<path d="M10.8141 34.0567
L10.5117 34.0567
" />
<path d="M12.3260 32.7867
L12.0841 32.7867
" />
<path d="M12.0841 32.7867
L11.9632 32.8472
" />
<path d="M11.9632 32.8472
L11.9027 32.9077
" />
<path d="M11.9027 32.9077
L11.7817 33.0891
" />
<path d="M11.7817 33.0891
L11.7213 33.3310
" />
<path d="M11.7213 33.3310
L11.7213 33.8148
" />
<path d="M11.7213 33.8148
L11.7817 33.9358
" />
<path d="M11.7817 33.9358
L11.8422 33.9963
" />
<path d="M11.8422 33.9963
L11.9632 34.0567
" />
<path d="M11.9632 34.0567
L12.2051 34.0567
" />
<path d="M12.2051 34.0567
L12.3260 33.9963
" />
<path d="M12.3260 33.9963
L12.3865 33.9358
" />
<path d="M12.3865 33.9358
L12.4470 33.8148
" />
<path d="M12.4470 33.8148
L12.4470 33.5124
" />
<path d="M12.4470 33.5124
L12.3865 33.3915
" />
<path d="M12.3865 33.3915
L12.3260 33.3310
" />
<path d="M12.3260 33.3310
L12.2051 33.2705
" />
<path d="M12.2051 33.2705
L11.9632 33.2705
" />
<path d="M11.9632 33.2705
L11.8422 33.3310
" />
<path d="M11.8422 33.3310
L11.7817 33.3915
" />
<path d="M11.7817 33.3915
L11.7213 33.5124
" />
</g></g>
<g style="fill:none; 
stroke:#A90000; stroke-width:0.1524; stroke-opacity:1; 
stroke-linecap:round; stroke-linejoin:round;">
<text x="6.5532" y="33.2232"
textLength="1.4127" font-size="1.6933" lengthAdjust="spacingAndGlyphs"
text-anchor="middle" opacity="0" stroke-opacity="0">9</text>
<g class="stroked-text"><desc>9</desc>
<path d="M6.3113 33.0597
L6.5532 33.0597
" />
<path d="M6.5532 33.0597
L6.6742 32.9993
" />
<path d="M6.6742 32.9993
L6.7346 32.9388
" />
<path d="M6.7346 32.9388
L6.8556 32.7573
" />
<path d="M6.8556 32.7573
L6.9161 32.5154
" />
<path d="M6.9161 32.5154
L6.9161 32.0316
" />
<path d="M6.9161 32.0316
L6.8556 31.9107
" />
<path d="M6.8556 31.9107
L6.7951 31.8502
" />
<path d="M6.7951 31.8502
L6.6742 31.7897
" />
<path d="M6.6742 31.7897
L6.4323 31.7897
" />
<path d="M6.4323 31.7897
L6.3113 31.8502
" />
<path d="M6.3113 31.8502
L6.2508 31.9107
" />
<path d="M6.2508 31.9107
L6.1904 32.0316
" />
<path d="M6.1904 32.0316
L6.1904 32.3340
" />
<path d="M6.1904 32.3340
L6.2508 32.4550
" />
<path d="M6.2508 32.4550
L6.3113 32.5154
" />
<path d="M6.3113 32.5154
L6.4323 32.5759
" />
<path d="M6.4323 32.5759
L6.6742 32.5759
" />
<path d="M6.6742 32.5759
L6.7951 32.5154
" />
<path d="M6.7951 32.5154
L6.8556 32.4550
" />
<path d="M6.8556 32.4550
L6.9161 32.3340
" />
</g></g>
<g style="fill:none; 
stroke:#840000; stroke-width:0.1524; stroke-opacity:1; 
stroke-linecap:round; stroke-linejoin:round;">
<path d="M9.0932 36.0172
L4.0132 36.0172
" />
</g>
<g style="fill:none; 
stroke:#006464; stroke-width:0.1524; stroke-opacity:1; 
stroke-linecap:round; stroke-linejoin:round;">
<text x="10.1092" y="36.6522"
textLength="2.6827" font-size="1.6933" lengthAdjust="spacingAndGlyphs"
text-anchor="start" opacity="0" stroke-opacity="0">D7</text>
<g class="stroked-text"><desc>D7</desc>
<path d="M10.5117 36.5967
L10.5117 35.3267
" />
<path d="M10.5117 35.3267
L10.8141 35.3267
" />
<path d="M10.8141 35.3267
L10.9955 35.3872
" />
<path d="M10.9955 35.3872
L11.1165 35.5082
" />
<path d="M11.1165 35.5082
L11.1770 35.6291
" />
<path d="M11.1770 35.6291
L11.2374 35.8710
" />
<path d="M11.2374 35.8710
L11.2374 36.0524
" />
<path d="M11.2374 36.0524
L11.1770 36.2943
" />
<path d="M11.1770 36.2943
L11.1165 36.4153
" />
<path d="M11.1165 36.4153
L10.9955 36.5363
" />
<path d="M10.9955 36.5363
L10.8141 36.5967
" />
<path d="M10.8141 36.5967
L10.5117 36.5967
" />
<path d="M11.6608 35.3267
L12.5074 35.3267
" />
<path d="M12.5074 35.3267
L11.9632 36.5967
" />
</g></g>
<g style="fill:none; 
stroke:#A90000; stroke-width:0.1524; stroke-opacity:1; 
stroke-linecap:round; stroke-linejoin:round;">
<text x="6.5532" y="35.7632"
textLength="2.6222" font-size="1.6933" lengthAdjust="spacingAndGlyphs"
text-anchor="middle" opacity="0" stroke-opacity="0">10</text>
<g class="stroked-text"><desc>10</desc>
<path d="M6.3113 35.5997
L5.5856 35.5997
" />
<path d="M5.9484 35.5997
L5.9484 34.3297
" />
<path d="M5.9484 34.3297
L5.8275 34.5112
" />
<path d="M5.8275 34.5112
L5.7065 34.6321
" />
<path d="M5.7065 34.6321
L5.5856 34.6926
" />
<path d="M7.0974 34.3297
L7.2184 34.3297
" />
<path d="M7.2184 34.3297
L7.3393 34.3902
" />
<path d="M7.3393 34.3902
L7.3998 34.4507
" />
<path d="M7.3998 34.4507
L7.4603 34.5716
" />
<path d="M7.4603 34.5716
L7.5208 34.8135
" />
<path d="M7.5208 34.8135
L7.5208 35.1159
" />
<path d="M7.5208 35.1159
L7.4603 35.3578
" />
<path d="M7.4603 35.3578
L7.3998 35.4788
" />
<path d="M7.3998 35.4788
L7.3393 35.5393
" />
<path d="M7.3393 35.5393
L7.2184 35.5997
" />
<path d="M7.2184 35.5997
L7.0974 35.5997
" />
<path d="M7.0974 35.5997
L6.9765 35.5393
" />
<path d="M6.9765 35.5393
L6.9160 35.4788
" />
<path d="M6.9160 35.4788
L6.8555 35.3578
" />
<path d="M6.8555 35.3578
L6.7951 35.1159
" />
<path d="M6.7951 35.1159
L6.7951 34.8135
" />
<path d="M6.7951 34.8135
L6.8555 34.5716
" />
<path d="M6.8555 34.5716
L6.9160 34.4507
" />
<path d="M6.9160 34.4507
L6.9765 34.3902
" />
<path d="M6.9765 34.3902
L7.0974 34.3297
" />
</g></g>
<g style="fill:none; 
stroke:#840000; stroke-width:0.1524; stroke-opacity:1; 
stroke-linecap:round; stroke-linejoin:round;">
<path d="M9.0932 38.5572
L4.0132 38.5572
" />
</g>
<g style="fill:none; 
stroke:#006464; stroke-width:0.1524; stroke-opacity:1; 
stroke-linecap:round; stroke-linejoin:round;">
<text x="10.1092" y="39.1922"
textLength="2.6827" font-size="1.6933" lengthAdjust="spacingAndGlyphs"
text-anchor="start" opacity="0" stroke-opacity="0">D8</text>
<g class="stroked-text"><desc>D8</desc>
<path d="M10.5117 39.1367
L10.5117 37.8667
" />
<path d="M10.5117 37.8667
L10.8141 37.8667
" />
<path d="M10.8141 37.8667
L10.9955 37.9272
" />
<path d="M10.9955 37.9272
L11.1165 38.0482
" />
<path d="M11.1165 38.0482
L11.1770 38.1691
" />
<path d="M11.1770 38.1691
L11.2374 38.4110
" />
<path d="M11.2374 38.4110
L11.2374 38.5924
" />
<path d="M11.2374 38.5924
L11.1770 38.8343
" />
<path d="M11.1770 38.8343
L11.1165 38.9553
" />
<path d="M11.1165 38.9553
L10.9955 39.0763
" />
<path d="M10.9955 39.0763
L10.8141 39.1367
" />
<path d="M10.8141 39.1367
L10.5117 39.1367
" />
<path d="M11.9632 38.4110
L11.8422 38.3505
" />
<path d="M11.8422 38.3505
L11.7817 38.2901
" />
<path d="M11.7817 38.2901
L11.7213 38.1691
" />
<path d="M11.7213 38.1691
L11.7213 38.1086
" />
<path d="M11.7213 38.1086
L11.7817 37.9877
" />
<path d="M11.7817 37.9877
L11.8422 37.9272
" />
<path d="M11.8422 37.9272
L11.9632 37.8667
" />
<path d="M11.9632 37.8667
L12.2051 37.8667
" />
<path d="M12.2051 37.8667
L12.3260 37.9272
" />
<path d="M12.3260 37.9272
L12.3865 37.9877
" />
<path d="M12.3865 37.9877
L12.4470 38.1086
" />
<path d="M12.4470 38.1086
L12.4470 38.1691
" />
<path d="M12.4470 38.1691
L12.3865 38.2901
" />
<path d="M12.3865 38.2901
L12.3260 38.3505
" />
<path d="M12.3260 38.3505
L12.2051 38.4110
" />
<path d="M12.2051 38.4110
L11.9632 38.4110
" />
<path d="M11.9632 38.4110
L11.8422 38.4715
" />
<path d="M11.8422 38.4715
L11.7817 38.5320
" />
<path d="M11.7817 38.5320
L11.7213 38.6529
" />
<path d="M11.7213 38.6529
L11.7213 38.8948
" />
<path d="M11.7213 38.8948
L11.7817 39.0158
" />
<path d="M11.7817 39.0158
L11.8422 39.0763
" />
<path d="M11.8422 39.0763
L11.9632 39.1367
" />
<path d="M11.9632 39.1367
L12.2051 39.1367
" />
<path d="M12.2051 39.1367
L12.3260 39.0763
" />
<path d="M12.3260 39.0763
L12.3865 39.0158
" />
<path d="M12.3865 39.0158
L12.4470 38.8948
" />
<path d="M12.4470 38.8948
L12.4470 38.6529
" />
<path d="M12.4470 38.6529
L12.3865 38.5320
" />
<path d="M12.3865 38.5320
L12.3260 38.4715
" />
<path d="M12.3260 38.4715
L12.2051 38.4110
" />
</g></g>
<g style="fill:none; 
stroke:#A90000; stroke-width:0.1524; stroke-opacity:1; 
stroke-linecap:round; stroke-linejoin:round;">
<text x="6.5532" y="38.3032"
textLength="2.6222" font-size="1.6933" lengthAdjust="spacingAndGlyphs"
text-anchor="middle" opacity="0" stroke-opacity="0">11</text>
<g class="stroked-text"><desc>11</desc>
<path d="M6.3113 38.1397
L5.5856 38.1397
" />
<path d="M5.9484 38.1397
L5.9484 36.8697
" />
<path d="M5.9484 36.8697
L5.8275 37.0512
" />
<path d="M5.8275 37.0512
L5.7065 37.1721
" />
<path d="M5.7065 37.1721
L5.5856 37.2326
" />
<path d="M7.5208 38.1397
L6.7951 38.1397
" />
<path d="M7.1579 38.1397
L7.1579 36.8697
" />
<path d="M7.1579 36.8697
L7.0370 37.0512
" />
<path d="M7.0370 37.0512
L6.9160 37.1721
" />
<path d="M6.9160 37.1721
L6.7951 37.2326
" />
</g></g>
<g style="fill:none; 
stroke:#840000; stroke-width:0.1524; stroke-opacity:1; 
stroke-linecap:round; stroke-linejoin:round;">
<path d="M9.0932 41.0972
L4.0132 41.0972
" />
</g>
<g style="fill:none; 
stroke:#006464; stroke-width:0.1524; stroke-opacity:1; 
stroke-linecap:round; stroke-linejoin:round;">
<text x="10.1092" y="41.7322"
textLength="2.6827" font-size="1.6933" lengthAdjust="spacingAndGlyphs"
text-anchor="start" opacity="0" stroke-opacity="0">D9</text>
<g class="stroked-text"><desc>D9</desc>
<path d="M10.5117 41.6767
L10.5117 40.4067
" />
<path d="M10.5117 40.4067
L10.8141 40.4067
" />
<path d="M10.8141 40.4067
L10.9955 40.4672
" />
<path d="M10.9955 40.4672
L11.1165 40.5882
" />
<path d="M11.1165 40.5882
L11.1770 40.7091
" />
<path d="M11.1770 40.7091
L11.2374 40.9510
" />
<path d="M11.2374 40.9510
L11.2374 41.1324
" />
<path d="M11.2374 41.1324
L11.1770 41.3743
" />
<path d="M11.1770 41.3743
L11.1165 41.4953
" />
<path d="M11.1165 41.4953
L10.9955 41.6163
" />
<path d="M10.9955 41.6163
L10.8141 41.6767
" />
<path d="M10.8141 41.6767
L10.5117 41.6767
" />
<path d="M11.8422 41.6767
L12.0841 41.6767
" />
<path d="M12.0841 41.6767
L12.2051 41.6163
" />
<path d="M12.2051 41.6163
L12.2655 41.5558
" />
<path d="M12.2655 41.5558
L12.3865 41.3743
" />
<path d="M12.3865 41.3743
L12.4470 41.1324
" />
<path d="M12.4470 41.1324
L12.4470 40.6486
" />
<path d="M12.4470 40.6486
L12.3865 40.5277
" />
<path d="M12.3865 40.5277
L12.3260 40.4672
" />
<path d="M12.3260 40.4672
L12.2051 40.4067
" />
<path d="M12.2051 40.4067
L11.9632 40.4067
" />
<path d="M11.9632 40.4067
L11.8422 40.4672
" />
<path d="M11.8422 40.4672
L11.7817 40.5277
" />
<path d="M11.7817 40.5277
L11.7213 40.6486
" />
<path d="M11.7213 40.6486
L11.7213 40.9510
" />
<path d="M11.7213 40.9510
L11.7817 41.0720
" />
<path d="M11.7817 41.0720
L11.8422 41.1324
" />
<path d="M11.8422 41.1324
L11.9632 41.1929
" />
<path d="M11.9632 41.1929
L12.2051 41.1929
" />
<path d="M12.2051 41.1929
L12.3260 41.1324
" />
<path d="M12.3260 41.1324
L12.3865 41.0720
" />
<path d="M12.3865 41.0720
L12.4470 40.9510
" />
</g></g>
<g style="fill:none; 
stroke:#A90000; stroke-width:0.1524; stroke-opacity:1; 
stroke-linecap:round; stroke-linejoin:round;">
<text x="6.5532" y="40.8432"
textLength="2.6222" font-size="1.6933" lengthAdjust="spacingAndGlyphs"
text-anchor="middle" opacity="0" stroke-opacity="0">12</text>
<g class="stroked-text"><desc>12</desc>
<path d="M6.3113 40.6797
L5.5856 40.6797
" />
<path d="M5.9484 40.6797
L5.9484 39.4097
" />
<path d="M5.9484 39.4097
L5.8275 39.5912
" />
<path d="M5.8275 39.5912
L5.7065 39.7121
" />
<path d="M5.7065 39.7121
L5.5856 39.7726
" />
<path d="M6.7951 39.5307
L6.8555 39.4702
" />
<path d="M6.8555 39.4702
L6.9765 39.4097
" />
<path d="M6.9765 39.4097
L7.2789 39.4097
" />
<path d="M7.2789 39.4097
L7.3998 39.4702
" />
<path d="M7.3998 39.4702
L7.4603 39.5307
" />
<path d="M7.4603 39.5307
L7.5208 39.6516
" />
<path d="M7.5208 39.6516
L7.5208 39.7726
" />
<path d="M7.5208 39.7726
L7.4603 39.9540
" />
<path d="M7.4603 39.9540
L6.7346 40.6797
" />
<path d="M6.7346 40.6797
L7.5208 40.6797
" />
</g></g>
<g style="fill:none; 
stroke:#840000; stroke-width:0.1524; stroke-opacity:1; 
stroke-linecap:round; stroke-linejoin:round;">
<path d="M34.4932 10.6172
L39.5732 10.6172
" />
</g>
<g style="fill:none; 
stroke:#006464; stroke-width:0.1524; stroke-opacity:1; 
stroke-linecap:round; stroke-linejoin:round;">
<text x="33.4772" y="11.2522"
textLength="3.0456" font-size="1.6933" lengthAdjust="spacingAndGlyphs"
text-anchor="end" opacity="0" stroke-opacity="0">D-</text>
<g class="stroked-text"><desc>D-</desc>
<path d="M30.8369 11.1967
L30.8369 9.9267
" />
<path d="M30.8369 9.9267
L31.1393 9.9267
" />
<path d="M31.1393 9.9267
L31.3207 9.9872
" />
<path d="M31.3207 9.9872
L31.4417 10.1082
" />
<path d="M31.4417 10.1082
L31.5022 10.2291
" />
<path d="M31.5022 10.2291
L31.5626 10.4710
" />
<path d="M31.5626 10.4710
L31.5626 10.6524
" />
<path d="M31.5626 10.6524
L31.5022 10.8943
" />
<path d="M31.5022 10.8943
L31.4417 11.0153
" />
<path d="M31.4417 11.0153
L31.3207 11.1363
" />
<path d="M31.3207 11.1363
L31.1393 11.1967
" />
<path d="M31.1393 11.1967
L30.8369 11.1967
" />
<path d="M32.1069 10.7129
L33.0746 10.7129
" />
</g></g>
<g style="fill:none; 
stroke:#A90000; stroke-width:0.1524; stroke-opacity:1; 
stroke-linecap:round; stroke-linejoin:round;">
<text x="37.0332" y="10.3632"
textLength="2.6222" font-size="1.6933" lengthAdjust="spacingAndGlyphs"
text-anchor="middle" opacity="0" stroke-opacity="0">25</text>
<g class="stroked-text"><desc>25</desc>
<path d="M36.0656 9.0507
L36.1260 8.9902
" />
<path d="M36.1260 8.9902
L36.2470 8.9297
" />
<path d="M36.2470 8.9297
L36.5494 8.9297
" />
<path d="M36.5494 8.9297
L36.6703 8.9902
" />
<path d="M36.6703 8.9902
L36.7308 9.0507
" />
<path d="M36.7308 9.0507
L36.7913 9.1716
" />
<path d="M36.7913 9.1716
L36.7913 9.2926
" />
<path d="M36.7913 9.2926
L36.7308 9.4740
" />
<path d="M36.7308 9.4740
L36.0051 10.1997
" />
<path d="M36.0051 10.1997
L36.7913 10.1997
" />
<path d="M37.9403 8.9297
L37.3355 8.9297
" />
<path d="M37.3355 8.9297
L37.2751 9.5345
" />
<path d="M37.2751 9.5345
L37.3355 9.4740
" />
<path d="M37.3355 9.4740
L37.4565 9.4135
" />
<path d="M37.4565 9.4135
L37.7589 9.4135
" />
<path d="M37.7589 9.4135
L37.8798 9.4740
" />
<path d="M37.8798 9.4740
L37.9403 9.5345
" />
<path d="M37.9403 9.5345
L38.0008 9.6554
" />
<path d="M38.0008 9.6554
L38.0008 9.9578
" />
<path d="M38.0008 9.9578
L37.9403 10.0788
" />
<path d="M37.9403 10.0788
L37.8798 10.1393
" />
<path d="M37.8798 10.1393
L37.7589 10.1997
" />
<path d="M37.7589 10.1997
L37.4565 10.1997
" />
<path d="M37.4565 10.1997
L37.3355 10.1393
" />
<path d="M37.3355 10.1393
L37.2751 10.0788
" />
</g></g>
<g style="fill:none; 
stroke:#840000; stroke-width:0.1524; stroke-opacity:1; 
stroke-linecap:round; stroke-linejoin:round;">
<path d="M34.4932 13.1572
L39.5732 13.1572
" />
</g>
<g style="fill:none; 
stroke:#006464; stroke-width:0.1524; stroke-opacity:1; 
stroke-linecap:round; stroke-linejoin:round;">
<text x="33.4772" y="13.7922"
textLength="4.0132" font-size="1.6933" lengthAdjust="spacingAndGlyphs"
text-anchor="end" opacity="0" stroke-opacity="0">RAW</text>
<g class="stroked-text"><desc>RAW</desc>
<path d="M30.5950 13.7367
L30.1717 13.1320
" />
<path d="M29.8693 13.7367
L29.8693 12.4667
" />
<path d="M29.8693 12.4667
L30.3531 12.4667
" />
<path d="M30.3531 12.4667
L30.4741 12.5272
" />
<path d="M30.4741 12.5272
L30.5346 12.5877
" />
<path d="M30.5346 12.5877
L30.5950 12.7086
" />
<path d="M30.5950 12.7086
L30.5950 12.8901
" />
<path d="M30.5950 12.8901
L30.5346 13.0110
" />
<path d="M30.5346 13.0110
L30.4741 13.0715
" />
<path d="M30.4741 13.0715
L30.3531 13.1320
" />
<path d="M30.3531 13.1320
L29.8693 13.1320
" />
<path d="M31.0789 13.3739
L31.6836 13.3739
" />
<path d="M30.9579 13.7367
L31.3812 12.4667
" />
<path d="M31.3812 12.4667
L31.8046 13.7367
" />
<path d="M32.1070 12.4667
L32.4094 13.7367
" />
<path d="M32.4094 13.7367
L32.6513 12.8296
" />
<path d="M32.6513 12.8296
L32.8932 13.7367
" />
<path d="M32.8932 13.7367
L33.1956 12.4667
" />
</g></g>
<g style="fill:none; 
stroke:#A90000; stroke-width:0.1524; stroke-opacity:1; 
stroke-linecap:round; stroke-linejoin:round;">
<text x="37.0332" y="12.9032"
textLength="2.6222" font-size="1.6933" lengthAdjust="spacingAndGlyphs"
text-anchor="middle" opacity="0" stroke-opacity="0">24</text>
<g class="stroked-text"><desc>24</desc>
<path d="M36.0656 11.5907
L36.1260 11.5302
" />
<path d="M36.1260 11.5302
L36.2470 11.4697
" />
<path d="M36.2470 11.4697
L36.5494 11.4697
" />
<path d="M36.5494 11.4697
L36.6703 11.5302
" />
<path d="M36.6703 11.5302
L36.7308 11.5907
" />
<path d="M36.7308 11.5907
L36.7913 11.7116
" />
<path d="M36.7913 11.7116
L36.7913 11.8326
" />
<path d="M36.7913 11.8326
L36.7308 12.0140
" />
<path d="M36.7308 12.0140
L36.0051 12.7397
" />
<path d="M36.0051 12.7397
L36.7913 12.7397
" />
<path d="M37.8798 11.8931
L37.8798 12.7397
" />
<path d="M37.5774 11.4093
L37.2751 12.3164
" />
<path d="M37.2751 12.3164
L38.0612 12.3164
" />
</g></g>
<g style="fill:none; 
stroke:#840000; stroke-width:0.1524; stroke-opacity:1; 
stroke-linecap:round; stroke-linejoin:round;">
<path d="M34.4932 15.6972
L39.5732 15.6972
" />
</g>
<g style="fill:none; 
stroke:#006464; stroke-width:0.1524; stroke-opacity:1; 
stroke-linecap:round; stroke-linejoin:round;">
<text x="33.4772" y="16.3322"
textLength="4.0737" font-size="1.6933" lengthAdjust="spacingAndGlyphs"
text-anchor="end" opacity="0" stroke-opacity="0">GND</text>
<g class="stroked-text"><desc>GND</desc>
<path d="M30.4741 15.0672
L30.3531 15.0067
" />
<path d="M30.3531 15.0067
L30.1717 15.0067
" />
<path d="M30.1717 15.0067
L29.9903 15.0672
" />
<path d="M29.9903 15.0672
L29.8693 15.1882
" />
<path d="M29.8693 15.1882
L29.8088 15.3091
" />
<path d="M29.8088 15.3091
L29.7484 15.5510
" />
<path d="M29.7484 15.5510
L29.7484 15.7324
" />
<path d="M29.7484 15.7324
L29.8088 15.9743
" />
<path d="M29.8088 15.9743
L29.8693 16.0953
" />
<path d="M29.8693 16.0953
L29.9903 16.2163
" />
<path d="M29.9903 16.2163
L30.1717 16.2767
" />
<path d="M30.1717 16.2767
L30.2926 16.2767
" />
<path d="M30.2926 16.2767
L30.4741 16.2163
" />
<path d="M30.4741 16.2163
L30.5345 16.1558
" />
<path d="M30.5345 16.1558
L30.5345 15.7324
" />
<path d="M30.5345 15.7324
L30.2926 15.7324
" />
<path d="M31.0788 16.2767
L31.0788 15.0067
" />
<path d="M31.0788 15.0067
L31.8045 16.2767
" />
<path d="M31.8045 16.2767
L31.8045 15.0067
" />
<path d="M32.4093 16.2767
L32.4093 15.0067
" />
<path d="M32.4093 15.0067
L32.7117 15.0067
" />
<path d="M32.7117 15.0067
L32.8931 15.0672
" />
<path d="M32.8931 15.0672
L33.0141 15.1882
" />
<path d="M33.0141 15.1882
L33.0746 15.3091
" />
<path d="M33.0746 15.3091
L33.1350 15.5510
" />
<path d="M33.1350 15.5510
L33.1350 15.7324
" />
<path d="M33.1350 15.7324
L33.0746 15.9743
" />
<path d="M33.0746 15.9743
L33.0141 16.0953
" />
<path d="M33.0141 16.0953
L32.8931 16.2163
" />
<path d="M32.8931 16.2163
L32.7117 16.2767
" />
<path d="M32.7117 16.2767
L32.4093 16.2767
" />
</g></g>
<g style="fill:none; 
stroke:#A90000; stroke-width:0.1524; stroke-opacity:1; 
stroke-linecap:round; stroke-linejoin:round;">
<text x="37.0332" y="15.4432"
textLength="2.6222" font-size="1.6933" lengthAdjust="spacingAndGlyphs"
text-anchor="middle" opacity="0" stroke-opacity="0">23</text>
<g class="stroked-text"><desc>23</desc>
<path d="M36.0656 14.1307
L36.1260 14.0702
" />
<path d="M36.1260 14.0702
L36.2470 14.0097
" />
<path d="M36.2470 14.0097
L36.5494 14.0097
" />
<path d="M36.5494 14.0097
L36.6703 14.0702
" />
<path d="M36.6703 14.0702
L36.7308 14.1307
" />
<path d="M36.7308 14.1307
L36.7913 14.2516
" />
<path d="M36.7913 14.2516
L36.7913 14.3726
" />
<path d="M36.7913 14.3726
L36.7308 14.5540
" />
<path d="M36.7308 14.5540
L36.0051 15.2797
" />
<path d="M36.0051 15.2797
L36.7913 15.2797
" />
<path d="M37.2146 14.0097
L38.0008 14.0097
" />
<path d="M38.0008 14.0097
L37.5774 14.4935
" />
<path d="M37.5774 14.4935
L37.7589 14.4935
" />
<path d="M37.7589 14.4935
L37.8798 14.5540
" />
<path d="M37.8798 14.5540
L37.9403 14.6145
" />
<path d="M37.9403 14.6145
L38.0008 14.7354
" />
<path d="M38.0008 14.7354
L38.0008 15.0378
" />
<path d="M38.0008 15.0378
L37.9403 15.1588
" />
<path d="M37.9403 15.1588
L37.8798 15.2193
" />
<path d="M37.8798 15.2193
L37.7589 15.2797
" />
<path d="M37.7589 15.2797
L37.3960 15.2797
" />
<path d="M37.3960 15.2797
L37.2751 15.2193
" />
<path d="M37.2751 15.2193
L37.2146 15.1588
" />
</g></g>
<g style="fill:none; 
stroke:#840000; stroke-width:0.1524; stroke-opacity:1; 
stroke-linecap:round; stroke-linejoin:round;">
<path d="M34.4932 18.2372
L39.5732 18.2372
" />
</g>
<g style="fill:none; 
stroke:#006464; stroke-width:0.1524; stroke-opacity:1; 
stroke-linecap:round; stroke-linejoin:round;">
<text x="33.4772" y="18.8722"
textLength="3.6503" font-size="1.6933" lengthAdjust="spacingAndGlyphs"
text-anchor="end" opacity="0" stroke-opacity="0">RST</text>
<g class="stroked-text"><desc>RST</desc>
<path d="M30.9579 18.8167
L30.5346 18.2120
" />
<path d="M30.2322 18.8167
L30.2322 17.5467
" />
<path d="M30.2322 17.5467
L30.7160 17.5467
" />
<path d="M30.7160 17.5467
L30.8370 17.6072
" />
<path d="M30.8370 17.6072
L30.8975 17.6677
" />
<path d="M30.8975 17.6677
L30.9579 17.7886
" />
<path d="M30.9579 17.7886
L30.9579 17.9701
" />
<path d="M30.9579 17.9701
L30.8975 18.0910
" />
<path d="M30.8975 18.0910
L30.8370 18.1515
" />
<path d="M30.8370 18.1515
L30.7160 18.2120
" />
<path d="M30.7160 18.2120
L30.2322 18.2120
" />
<path d="M31.4418 18.7563
L31.6232 18.8167
" />
<path d="M31.6232 18.8167
L31.9256 18.8167
" />
<path d="M31.9256 18.8167
L32.0465 18.7563
" />
<path d="M32.0465 18.7563
L32.1070 18.6958
" />
<path d="M32.1070 18.6958
L32.1675 18.5748
" />
<path d="M32.1675 18.5748
L32.1675 18.4539
" />
<path d="M32.1675 18.4539
L32.1070 18.3329
" />
<path d="M32.1070 18.3329
L32.0465 18.2724
" />
<path d="M32.0465 18.2724
L31.9256 18.2120
" />
<path d="M31.9256 18.2120
L31.6837 18.1515
" />
<path d="M31.6837 18.1515
L31.5627 18.0910
" />
<path d="M31.5627 18.0910
L31.5022 18.0305
" />
<path d="M31.5022 18.0305
L31.4418 17.9096
" />
<path d="M31.4418 17.9096
L31.4418 17.7886
" />
<path d="M31.4418 17.7886
L31.5022 17.6677
" />
<path d="M31.5022 17.6677
L31.5627 17.6072
" />
<path d="M31.5627 17.6072
L31.6837 17.5467
" />
<path d="M31.6837 17.5467
L31.9860 17.5467
" />
<path d="M31.9860 17.5467
L32.1675 17.6072
" />
<path d="M32.5303 17.5467
L33.2560 17.5467
" />
<path d="M32.8932 18.8167
L32.8932 17.5467
" />
</g></g>
<g style="fill:none; 
stroke:#A90000; stroke-width:0.1524; stroke-opacity:1; 
stroke-linecap:round; stroke-linejoin:round;">
<text x="37.0332" y="17.9832"
textLength="2.6222" font-size="1.6933" lengthAdjust="spacingAndGlyphs"
text-anchor="middle" opacity="0" stroke-opacity="0">22</text>
<g class="stroked-text"><desc>22</desc>
<path d="M36.0656 16.6707
L36.1260 16.6102
" />
<path d="M36.1260 16.6102
L36.2470 16.5497
" />
<path d="M36.2470 16.5497
L36.5494 16.5497
" />
<path d="M36.5494 16.5497
L36.6703 16.6102
" />
<path d="M36.6703 16.6102
L36.7308 16.6707
" />
<path d="M36.7308 16.6707
L36.7913 16.7916
" />
<path d="M36.7913 16.7916
L36.7913 16.9126
" />
<path d="M36.7913 16.9126
L36.7308 17.0940
" />
<path d="M36.7308 17.0940
L36.0051 17.8197
" />
<path d="M36.0051 17.8197
L36.7913 17.8197
" />
<path d="M37.2751 16.6707
L37.3355 16.6102
" />
<path d="M37.3355 16.6102
L37.4565 16.5497
" />
<path d="M37.4565 16.5497
L37.7589 16.5497
" />
<path d="M37.7589 16.5497
L37.8798 16.6102
" />
<path d="M37.8798 16.6102
L37.9403 16.6707
" />
<path d="M37.9403 16.6707
L38.0008 16.7916
" />
<path d="M38.0008 16.7916
L38.0008 16.9126
" />
<path d="M38.0008 16.9126
L37.9403 17.0940
" />
<path d="M37.9403 17.0940
L37.2146 17.8197
" />
<path d="M37.2146 17.8197
L38.0008 17.8197
" />
</g></g>
<g style="fill:none; 
stroke:#840000; stroke-width:0.1524; stroke-opacity:1; 
stroke-linecap:round; stroke-linejoin:round;">
<path d="M34.4932 20.7772
L39.5732 20.7772
" />
</g>
<g style="fill:none; 
stroke:#006464; stroke-width:0.1524; stroke-opacity:1; 
stroke-linecap:round; stroke-linejoin:round;">
<text x="33.4772" y="21.4122"
textLength="3.7108" font-size="1.6933" lengthAdjust="spacingAndGlyphs"
text-anchor="end" opacity="0" stroke-opacity="0">3V3</text>
<g class="stroked-text"><desc>3V3</desc>
<path d="M30.0508 20.0867
L30.8370 20.0867
" />
<path d="M30.8370 20.0867
L30.4136 20.5705
" />
<path d="M30.4136 20.5705
L30.5951 20.5705
" />
<path d="M30.5951 20.5705
L30.7160 20.6310
" />
<path d="M30.7160 20.6310
L30.7765 20.6915
" />
<path d="M30.7765 20.6915
L30.8370 20.8124
" />
<path d="M30.8370 20.8124
L30.8370 21.1148
" />
<path d="M30.8370 21.1148
L30.7765 21.2358
" />
<path d="M30.7765 21.2358
L30.7160 21.2963
" />
<path d="M30.7160 21.2963
L30.5951 21.3567
" />
<path d="M30.5951 21.3567
L30.2322 21.3567
" />
<path d="M30.2322 21.3567
L30.1113 21.2963
" />
<path d="M30.1113 21.2963
L30.0508 21.2358
" />
<path d="M31.1998 20.0867
L31.6231 21.3567
" />
<path d="M31.6231 21.3567
L32.0465 20.0867
" />
<path d="M32.3489 20.0867
L33.1351 20.0867
" />
<path d="M33.1351 20.0867
L32.7117 20.5705
" />
<path d="M32.7117 20.5705
L32.8932 20.5705
" />
<path d="M32.8932 20.5705
L33.0141 20.6310
" />
<path d="M33.0141 20.6310
L33.0746 20.6915
" />
<path d="M33.0746 20.6915
L33.1351 20.8124
" />
<path d="M33.1351 20.8124
L33.1351 21.1148
" />
<path d="M33.1351 21.1148
L33.0746 21.2358
" />
<path d="M33.0746 21.2358
L33.0141 21.2963
" />
<path d="M33.0141 21.2963
L32.8932 21.3567
" />
<path d="M32.8932 21.3567
L32.5303 21.3567
" />
<path d="M32.5303 21.3567
L32.4094 21.2963
" />
<path d="M32.4094 21.2963
L32.3489 21.2358
" />
</g></g>
<g style="fill:none; 
stroke:#A90000; stroke-width:0.1524; stroke-opacity:1; 
stroke-linecap:round; stroke-linejoin:round;">
<text x="37.0332" y="20.5232"
textLength="2.6222" font-size="1.6933" lengthAdjust="spacingAndGlyphs"
text-anchor="middle" opacity="0" stroke-opacity="0">21</text>
<g class="stroked-text"><desc>21</desc>
<path d="M36.0656 19.2107
L36.1260 19.1502
" />
<path d="M36.1260 19.1502
L36.2470 19.0897
" />
<path d="M36.2470 19.0897
L36.5494 19.0897
" />
<path d="M36.5494 19.0897
L36.6703 19.1502
" />
<path d="M36.6703 19.1502
L36.7308 19.2107
" />
<path d="M36.7308 19.2107
L36.7913 19.3316
" />
<path d="M36.7913 19.3316
L36.7913 19.4526
" />
<path d="M36.7913 19.4526
L36.7308 19.6340
" />
<path d="M36.7308 19.6340
L36.0051 20.3597
" />
<path d="M36.0051 20.3597
L36.7913 20.3597
" />
<path d="M38.0008 20.3597
L37.2751 20.3597
" />
<path d="M37.6379 20.3597
L37.6379 19.0897
" />
<path d="M37.6379 19.0897
L37.5170 19.2712
" />
<path d="M37.5170 19.2712
L37.3960 19.3921
" />
<path d="M37.3960 19.3921
L37.2751 19.4526
" />
</g></g>
<g style="fill:none; 
stroke:#840000; stroke-width:0.1524; stroke-opacity:1; 
stroke-linecap:round; stroke-linejoin:round;">
<path d="M34.4932 23.3172
L39.5732 23.3172
" />
</g>
<g style="fill:none; 
stroke:#006464; stroke-width:0.1524; stroke-opacity:1; 
stroke-linecap:round; stroke-linejoin:round;">
<text x="33.4772" y="23.9522"
textLength="2.5013" font-size="1.6933" lengthAdjust="spacingAndGlyphs"
text-anchor="end" opacity="0" stroke-opacity="0">A3</text>
<g class="stroked-text"><desc>A3</desc>
<path d="M31.3208 23.5339
L31.9255 23.5339
" />
<path d="M31.1998 23.8967
L31.6231 22.6267
" />
<path d="M31.6231 22.6267
L32.0465 23.8967
" />
<path d="M32.3489 22.6267
L33.1351 22.6267
" />
<path d="M33.1351 22.6267
L32.7117 23.1105
" />
<path d="M32.7117 23.1105
L32.8932 23.1105
" />
<path d="M32.8932 23.1105
L33.0141 23.1710
" />
<path d="M33.0141 23.1710
L33.0746 23.2315
" />
<path d="M33.0746 23.2315
L33.1351 23.3524
" />
<path d="M33.1351 23.3524
L33.1351 23.6548
" />
<path d="M33.1351 23.6548
L33.0746 23.7758
" />
<path d="M33.0746 23.7758
L33.0141 23.8363
" />
<path d="M33.0141 23.8363
L32.8932 23.8967
" />
<path d="M32.8932 23.8967
L32.5303 23.8967
" />
<path d="M32.5303 23.8967
L32.4094 23.8363
" />
<path d="M32.4094 23.8363
L32.3489 23.7758
" />
</g></g>
<g style="fill:none; 
stroke:#A90000; stroke-width:0.1524; stroke-opacity:1; 
stroke-linecap:round; stroke-linejoin:round;">
<text x="37.0332" y="23.0632"
textLength="2.6222" font-size="1.6933" lengthAdjust="spacingAndGlyphs"
text-anchor="middle" opacity="0" stroke-opacity="0">20</text>
<g class="stroked-text"><desc>20</desc>
<path d="M36.0656 21.7507
L36.1260 21.6902
" />
<path d="M36.1260 21.6902
L36.2470 21.6297
" />
<path d="M36.2470 21.6297
L36.5494 21.6297
" />
<path d="M36.5494 21.6297
L36.6703 21.6902
" />
<path d="M36.6703 21.6902
L36.7308 21.7507
" />
<path d="M36.7308 21.7507
L36.7913 21.8716
" />
<path d="M36.7913 21.8716
L36.7913 21.9926
" />
<path d="M36.7913 21.9926
L36.7308 22.1740
" />
<path d="M36.7308 22.1740
L36.0051 22.8997
" />
<path d="M36.0051 22.8997
L36.7913 22.8997
" />
<path d="M37.5774 21.6297
L37.6984 21.6297
" />
<path d="M37.6984 21.6297
L37.8193 21.6902
" />
<path d="M37.8193 21.6902
L37.8798 21.7507
" />
<path d="M37.8798 21.7507
L37.9403 21.8716
" />
<path d="M37.9403 21.8716
L38.0008 22.1135
" />
<path d="M38.0008 22.1135
L38.0008 22.4159
" />
<path d="M38.0008 22.4159
L37.9403 22.6578
" />
<path d="M37.9403 22.6578
L37.8798 22.7788
" />
<path d="M37.8798 22.7788
L37.8193 22.8393
" />
<path d="M37.8193 22.8393
L37.6984 22.8997
" />
<path d="M37.6984 22.8997
L37.5774 22.8997
" />
<path d="M37.5774 22.8997
L37.4565 22.8393
" />
<path d="M37.4565 22.8393
L37.3960 22.7788
" />
<path d="M37.3960 22.7788
L37.3355 22.6578
" />
<path d="M37.3355 22.6578
L37.2751 22.4159
" />
<path d="M37.2751 22.4159
L37.2751 22.1135
" />
<path d="M37.2751 22.1135
L37.3355 21.8716
" />
<path d="M37.3355 21.8716
L37.3960 21.7507
" />
<path d="M37.3960 21.7507
L37.4565 21.6902
" />
<path d="M37.4565 21.6902
L37.5774 21.6297
" />
</g></g>
<g style="fill:none; 
stroke:#840000; stroke-width:0.1524; stroke-opacity:1; 
stroke-linecap:round; stroke-linejoin:round;">
<path d="M34.4932 25.8572
L39.5732 25.8572
" />
</g>
<g style="fill:none; 
stroke:#006464; stroke-width:0.1524; stroke-opacity:1; 
stroke-linecap:round; stroke-linejoin:round;">
<text x="33.4772" y="26.4922"
textLength="2.5013" font-size="1.6933" lengthAdjust="spacingAndGlyphs"
text-anchor="end" opacity="0" stroke-opacity="0">A2</text>
<g class="stroked-text"><desc>A2</desc>
<path d="M31.3208 26.0739
L31.9255 26.0739
" />
<path d="M31.1998 26.4367
L31.6231 25.1667
" />
<path d="M31.6231 25.1667
L32.0465 26.4367
" />
<path d="M32.4094 25.2877
L32.4698 25.2272
" />
<path d="M32.4698 25.2272
L32.5908 25.1667
" />
<path d="M32.5908 25.1667
L32.8932 25.1667
" />
<path d="M32.8932 25.1667
L33.0141 25.2272
" />
<path d="M33.0141 25.2272
L33.0746 25.2877
" />
<path d="M33.0746 25.2877
L33.1351 25.4086
" />
<path d="M33.1351 25.4086
L33.1351 25.5296
" />
<path d="M33.1351 25.5296
L33.0746 25.7110
" />
<path d="M33.0746 25.7110
L32.3489 26.4367
" />
<path d="M32.3489 26.4367
L33.1351 26.4367
" />
</g></g>
<g style="fill:none; 
stroke:#A90000; stroke-width:0.1524; stroke-opacity:1; 
stroke-linecap:round; stroke-linejoin:round;">
<text x="37.0332" y="25.6032"
textLength="2.6222" font-size="1.6933" lengthAdjust="spacingAndGlyphs"
text-anchor="middle" opacity="0" stroke-opacity="0">19</text>
<g class="stroked-text"><desc>19</desc>
<path d="M36.7913 25.4397
L36.0656 25.4397
" />
<path d="M36.4284 25.4397
L36.4284 24.1697
" />
<path d="M36.4284 24.1697
L36.3075 24.3512
" />
<path d="M36.3075 24.3512
L36.1865 24.4721
" />
<path d="M36.1865 24.4721
L36.0656 24.5326
" />
<path d="M37.3960 25.4397
L37.6379 25.4397
" />
<path d="M37.6379 25.4397
L37.7589 25.3793
" />
<path d="M37.7589 25.3793
L37.8193 25.3188
" />
<path d="M37.8193 25.3188
L37.9403 25.1373
" />
<path d="M37.9403 25.1373
L38.0008 24.8954
" />
<path d="M38.0008 24.8954
L38.0008 24.4116
" />
<path d="M38.0008 24.4116
L37.9403 24.2907
" />
<path d="M37.9403 24.2907
L37.8798 24.2302
" />
<path d="M37.8798 24.2302
L37.7589 24.1697
" />
<path d="M37.7589 24.1697
L37.5170 24.1697
" />
<path d="M37.5170 24.1697
L37.3960 24.2302
" />
<path d="M37.3960 24.2302
L37.3355 24.2907
" />
<path d="M37.3355 24.2907
L37.2751 24.4116
" />
<path d="M37.2751 24.4116
L37.2751 24.7140
" />
<path d="M37.2751 24.7140
L37.3355 24.8350
" />
<path d="M37.3355 24.8350
L37.3960 24.8954
" />
<path d="M37.3960 24.8954
L37.5170 24.9559
" />
<path d="M37.5170 24.9559
L37.7589 24.9559
" />
<path d="M37.7589 24.9559
L37.8798 24.8954
" />
<path d="M37.8798 24.8954
L37.9403 24.8350
" />
<path d="M37.9403 24.8350
L38.0008 24.7140
" />
</g></g>
<g style="fill:none; 
stroke:#840000; stroke-width:0.1524; stroke-opacity:1; 
stroke-linecap:round; stroke-linejoin:round;">
<path d="M34.4932 28.3972
L39.5732 28.3972
" />
</g>
<g style="fill:none; 
stroke:#006464; stroke-width:0.1524; stroke-opacity:1; 
stroke-linecap:round; stroke-linejoin:round;">
<text x="33.4772" y="29.0322"
textLength="2.5013" font-size="1.6933" lengthAdjust="spacingAndGlyphs"
text-anchor="end" opacity="0" stroke-opacity="0">A1</text>
<g class="stroked-text"><desc>A1</desc>
<path d="M31.3208 28.6139
L31.9255 28.6139
" />
<path d="M31.1998 28.9767
L31.6231 27.7067
" />
<path d="M31.6231 27.7067
L32.0465 28.9767
" />
<path d="M33.1351 28.9767
L32.4094 28.9767
" />
<path d="M32.7722 28.9767
L32.7722 27.7067
" />
<path d="M32.7722 27.7067
L32.6513 27.8882
" />
<path d="M32.6513 27.8882
L32.5303 28.0091
" />
<path d="M32.5303 28.0091
L32.4094 28.0696
" />
</g></g>
<g style="fill:none; 
stroke:#A90000; stroke-width:0.1524; stroke-opacity:1; 
stroke-linecap:round; stroke-linejoin:round;">
<text x="37.0332" y="28.1432"
textLength="2.6222" font-size="1.6933" lengthAdjust="spacingAndGlyphs"
text-anchor="middle" opacity="0" stroke-opacity="0">18</text>
<g class="stroked-text"><desc>18</desc>
<path d="M36.7913 27.9797
L36.0656 27.9797
" />
<path d="M36.4284 27.9797
L36.4284 26.7097
" />
<path d="M36.4284 26.7097
L36.3075 26.8912
" />
<path d="M36.3075 26.8912
L36.1865 27.0121
" />
<path d="M36.1865 27.0121
L36.0656 27.0726
" />
<path d="M37.5170 27.2540
L37.3960 27.1935
" />
<path d="M37.3960 27.1935
L37.3355 27.1331
" />
<path d="M37.3355 27.1331
L37.2751 27.0121
" />
<path d="M37.2751 27.0121
L37.2751 26.9516
" />
<path d="M37.2751 26.9516
L37.3355 26.8307
" />
<path d="M37.3355 26.8307
L37.3960 26.7702
" />
<path d="M37.3960 26.7702
L37.5170 26.7097
" />
<path d="M37.5170 26.7097
L37.7589 26.7097
" />
<path d="M37.7589 26.7097
L37.8798 26.7702
" />
<path d="M37.8798 26.7702
L37.9403 26.8307
" />
<path d="M37.9403 26.8307
L38.0008 26.9516
" />
<path d="M38.0008 26.9516
L38.0008 27.0121
" />
<path d="M38.0008 27.0121
L37.9403 27.1331
" />
<path d="M37.9403 27.1331
L37.8798 27.1935
" />
<path d="M37.8798 27.1935
L37.7589 27.2540
" />
<path d="M37.7589 27.2540
L37.5170 27.2540
" />
<path d="M37.5170 27.2540
L37.3960 27.3145
" />
<path d="M37.3960 27.3145
L37.3355 27.3750
" />
<path d="M37.3355 27.3750
L37.2751 27.4959
" />
<path d="M37.2751 27.4959
L37.2751 27.7378
" />
<path d="M37.2751 27.7378
L37.3355 27.8588
" />
<path d="M37.3355 27.8588
L37.3960 27.9193
" />
<path d="M37.3960 27.9193
L37.5170 27.9797
" />
<path d="M37.5170 27.9797
L37.7589 27.9797
" />
<path d="M37.7589 27.9797
L37.8798 27.9193
" />
<path d="M37.8798 27.9193
L37.9403 27.8588
" />
<path d="M37.9403 27.8588
L38.0008 27.7378
" />
<path d="M38.0008 27.7378
L38.0008 27.4959
" />
<path d="M38.0008 27.4959
L37.9403 27.3750
" />
<path d="M37.9403 27.3750
L37.8798 27.3145
" />
<path d="M37.8798 27.3145
L37.7589 27.2540
" />
</g></g>
<g style="fill:none; 
stroke:#840000; stroke-width:0.1524; stroke-opacity:1; 
stroke-linecap:round; stroke-linejoin:round;">
<path d="M34.4932 30.9372
L39.5732 30.9372
" />
</g>
<g style="fill:none; 
stroke:#006464; stroke-width:0.1524; stroke-opacity:1; 
stroke-linecap:round; stroke-linejoin:round;">
<text x="33.4772" y="31.5722"
textLength="2.5013" font-size="1.6933" lengthAdjust="spacingAndGlyphs"
text-anchor="end" opacity="0" stroke-opacity="0">A0</text>
<g class="stroked-text"><desc>A0</desc>
<path d="M31.3208 31.1539
L31.9255 31.1539
" />
<path d="M31.1998 31.5167
L31.6231 30.2467
" />
<path d="M31.6231 30.2467
L32.0465 31.5167
" />
<path d="M32.7117 30.2467
L32.8327 30.2467
" />
<path d="M32.8327 30.2467
L32.9536 30.3072
" />
<path d="M32.9536 30.3072
L33.0141 30.3677
" />
<path d="M33.0141 30.3677
L33.0746 30.4886
" />
<path d="M33.0746 30.4886
L33.1351 30.7305
" />
<path d="M33.1351 30.7305
L33.1351 31.0329
" />
<path d="M33.1351 31.0329
L33.0746 31.2748
" />
<path d="M33.0746 31.2748
L33.0141 31.3958
" />
<path d="M33.0141 31.3958
L32.9536 31.4563
" />
<path d="M32.9536 31.4563
L32.8327 31.5167
" />
<path d="M32.8327 31.5167
L32.7117 31.5167
" />
<path d="M32.7117 31.5167
L32.5908 31.4563
" />
<path d="M32.5908 31.4563
L32.5303 31.3958
" />
<path d="M32.5303 31.3958
L32.4698 31.2748
" />
<path d="M32.4698 31.2748
L32.4094 31.0329
" />
<path d="M32.4094 31.0329
L32.4094 30.7305
" />
<path d="M32.4094 30.7305
L32.4698 30.4886
" />
<path d="M32.4698 30.4886
L32.5303 30.3677
" />
<path d="M32.5303 30.3677
L32.5908 30.3072
" />
<path d="M32.5908 30.3072
L32.7117 30.2467
" />
</g></g>
<g style="fill:none; 
stroke:#A90000; stroke-width:0.1524; stroke-opacity:1; 
stroke-linecap:round; stroke-linejoin:round;">
<text x="37.0332" y="30.6832"
textLength="2.6222" font-size="1.6933" lengthAdjust="spacingAndGlyphs"
text-anchor="middle" opacity="0" stroke-opacity="0">17</text>
<g class="stroked-text"><desc>17</desc>
<path d="M36.7913 30.5197
L36.0656 30.5197
" />
<path d="M36.4284 30.5197
L36.4284 29.2497
" />
<path d="M36.4284 29.2497
L36.3075 29.4312
" />
<path d="M36.3075 29.4312
L36.1865 29.5521
" />
<path d="M36.1865 29.5521
L36.0656 29.6126
" />
<path d="M37.2146 29.2497
L38.0612 29.2497
" />
<path d="M38.0612 29.2497
L37.5170 30.5197
" />
</g></g>
<g style="fill:none; 
stroke:#840000; stroke-width:0.1524; stroke-opacity:1; 
stroke-linecap:round; stroke-linejoin:round;">
<path d="M34.4932 33.4772
L39.5732 33.4772
" />
</g>
<g style="fill:none; 
stroke:#006464; stroke-width:0.1524; stroke-opacity:1; 
stroke-linecap:round; stroke-linejoin:round;">
<text x="33.4772" y="34.1122"
textLength="3.7713" font-size="1.6933" lengthAdjust="spacingAndGlyphs"
text-anchor="end" opacity="0" stroke-opacity="0">CLK</text>
<g class="stroked-text"><desc>CLK</desc>
<path d="M30.8369 33.9358
L30.7765 33.9963
" />
<path d="M30.7765 33.9963
L30.5950 34.0567
" />
<path d="M30.5950 34.0567
L30.4741 34.0567
" />
<path d="M30.4741 34.0567
L30.2927 33.9963
" />
<path d="M30.2927 33.9963
L30.1717 33.8753
" />
<path d="M30.1717 33.8753
L30.1112 33.7543
" />
<path d="M30.1112 33.7543
L30.0508 33.5124
" />
<path d="M30.0508 33.5124
L30.0508 33.3310
" />
<path d="M30.0508 33.3310
L30.1112 33.0891
" />
<path d="M30.1112 33.0891
L30.1717 32.9682
" />
<path d="M30.1717 32.9682
L30.2927 32.8472
" />
<path d="M30.2927 32.8472
L30.4741 32.7867
" />
<path d="M30.4741 32.7867
L30.5950 32.7867
" />
<path d="M30.5950 32.7867
L30.7765 32.8472
" />
<path d="M30.7765 32.8472
L30.8369 32.9077
" />
<path d="M31.9860 34.0567
L31.3812 34.0567
" />
<path d="M31.3812 34.0567
L31.3812 32.7867
" />
<path d="M32.4093 34.0567
L32.4093 32.7867
" />
<path d="M33.1350 34.0567
L32.5908 33.3310
" />
<path d="M33.1350 32.7867
L32.4093 33.5124
" />
</g></g>
<g style="fill:none; 
stroke:#A90000; stroke-width:0.1524; stroke-opacity:1; 
stroke-linecap:round; stroke-linejoin:round;">
<text x="37.0332" y="33.2232"
textLength="2.6222" font-size="1.6933" lengthAdjust="spacingAndGlyphs"
text-anchor="middle" opacity="0" stroke-opacity="0">16</text>
<g class="stroked-text"><desc>16</desc>
<path d="M36.7913 33.0597
L36.0656 33.0597
" />
<path d="M36.4284 33.0597
L36.4284 31.7897
" />
<path d="M36.4284 31.7897
L36.3075 31.9712
" />
<path d="M36.3075 31.9712
L36.1865 32.0921
" />
<path d="M36.1865 32.0921
L36.0656 32.1526
" />
<path d="M37.8798 31.7897
L37.6379 31.7897
" />
<path d="M37.6379 31.7897
L37.5170 31.8502
" />
<path d="M37.5170 31.8502
L37.4565 31.9107
" />
<path d="M37.4565 31.9107
L37.3355 32.0921
" />
<path d="M37.3355 32.0921
L37.2751 32.3340
" />
<path d="M37.2751 32.3340
L37.2751 32.8178
" />
<path d="M37.2751 32.8178
L37.3355 32.9388
" />
<path d="M37.3355 32.9388
L37.3960 32.9993
" />
<path d="M37.3960 32.9993
L37.5170 33.0597
" />
<path d="M37.5170 33.0597
L37.7589 33.0597
" />
<path d="M37.7589 33.0597
L37.8798 32.9993
" />
<path d="M37.8798 32.9993
L37.9403 32.9388
" />
<path d="M37.9403 32.9388
L38.0008 32.8178
" />
<path d="M38.0008 32.8178
L38.0008 32.5154
" />
<path d="M38.0008 32.5154
L37.9403 32.3945
" />
<path d="M37.9403 32.3945
L37.8798 32.3340
" />
<path d="M37.8798 32.3340
L37.7589 32.2735
" />
<path d="M37.7589 32.2735
L37.5170 32.2735
" />
<path d="M37.5170 32.2735
L37.3960 32.3340
" />
<path d="M37.3960 32.3340
L37.3355 32.3945
" />
<path d="M37.3355 32.3945
L37.2751 32.5154
" />
</g></g>
<g style="fill:none; 
stroke:#840000; stroke-width:0.1524; stroke-opacity:1; 
stroke-linecap:round; stroke-linejoin:round;">
<path d="M34.4932 36.0172
L39.5732 36.0172
" />
</g>
<g style="fill:none; 
stroke:#006464; stroke-width:0.1524; stroke-opacity:1; 
stroke-linecap:round; stroke-linejoin:round;">
<text x="33.4772" y="36.6522"
textLength="4.7994" font-size="1.6933" lengthAdjust="spacingAndGlyphs"
text-anchor="end" opacity="0" stroke-opacity="0">MISO</text>
<g class="stroked-text"><desc>MISO</desc>
<path d="M29.0831 36.5967
L29.0831 35.3267
" />
<path d="M29.0831 35.3267
L29.5065 36.2339
" />
<path d="M29.5065 36.2339
L29.9298 35.3267
" />
<path d="M29.9298 35.3267
L29.9298 36.5967
" />
<path d="M30.5345 36.5967
L30.5345 35.3267
" />
<path d="M31.0789 36.5363
L31.2603 36.5967
" />
<path d="M31.2603 36.5967
L31.5627 36.5967
" />
<path d="M31.5627 36.5967
L31.6836 36.5363
" />
<path d="M31.6836 36.5363
L31.7441 36.4758
" />
<path d="M31.7441 36.4758
L31.8046 36.3548
" />
<path d="M31.8046 36.3548
L31.8046 36.2339
" />
<path d="M31.8046 36.2339
L31.7441 36.1129
" />
<path d="M31.7441 36.1129
L31.6836 36.0524
" />
<path d="M31.6836 36.0524
L31.5627 35.9920
" />
<path d="M31.5627 35.9920
L31.3208 35.9315
" />
<path d="M31.3208 35.9315
L31.1998 35.8710
" />
<path d="M31.1998 35.8710
L31.1393 35.8105
" />
<path d="M31.1393 35.8105
L31.0789 35.6896
" />
<path d="M31.0789 35.6896
L31.0789 35.5686
" />
<path d="M31.0789 35.5686
L31.1393 35.4477
" />
<path d="M31.1393 35.4477
L31.1998 35.3872
" />
<path d="M31.1998 35.3872
L31.3208 35.3267
" />
<path d="M31.3208 35.3267
L31.6231 35.3267
" />
<path d="M31.6231 35.3267
L31.8046 35.3872
" />
<path d="M32.5907 35.3267
L32.8326 35.3267
" />
<path d="M32.8326 35.3267
L32.9536 35.3872
" />
<path d="M32.9536 35.3872
L33.0745 35.5082
" />
<path d="M33.0745 35.5082
L33.1350 35.7501
" />
<path d="M33.1350 35.7501
L33.1350 36.1734
" />
<path d="M33.1350 36.1734
L33.0745 36.4153
" />
<path d="M33.0745 36.4153
L32.9536 36.5363
" />
<path d="M32.9536 36.5363
L32.8326 36.5967
" />
<path d="M32.8326 36.5967
L32.5907 36.5967
" />
<path d="M32.5907 36.5967
L32.4698 36.5363
" />
<path d="M32.4698 36.5363
L32.3488 36.4153
" />
<path d="M32.3488 36.4153
L32.2884 36.1734
" />
<path d="M32.2884 36.1734
L32.2884 35.7501
" />
<path d="M32.2884 35.7501
L32.3488 35.5082
" />
<path d="M32.3488 35.5082
L32.4698 35.3872
" />
<path d="M32.4698 35.3872
L32.5907 35.3267
" />
</g></g>
<g style="fill:none; 
stroke:#A90000; stroke-width:0.1524; stroke-opacity:1; 
stroke-linecap:round; stroke-linejoin:round;">
<text x="37.0332" y="35.7632"
textLength="2.6222" font-size="1.6933" lengthAdjust="spacingAndGlyphs"
text-anchor="middle" opacity="0" stroke-opacity="0">15</text>
<g class="stroked-text"><desc>15</desc>
<path d="M36.7913 35.5997
L36.0656 35.5997
" />
<path d="M36.4284 35.5997
L36.4284 34.3297
" />
<path d="M36.4284 34.3297
L36.3075 34.5112
" />
<path d="M36.3075 34.5112
L36.1865 34.6321
" />
<path d="M36.1865 34.6321
L36.0656 34.6926
" />
<path d="M37.9403 34.3297
L37.3355 34.3297
" />
<path d="M37.3355 34.3297
L37.2751 34.9345
" />
<path d="M37.2751 34.9345
L37.3355 34.8740
" />
<path d="M37.3355 34.8740
L37.4565 34.8135
" />
<path d="M37.4565 34.8135
L37.7589 34.8135
" />
<path d="M37.7589 34.8135
L37.8798 34.8740
" />
<path d="M37.8798 34.8740
L37.9403 34.9345
" />
<path d="M37.9403 34.9345
L38.0008 35.0554
" />
<path d="M38.0008 35.0554
L38.0008 35.3578
" />
<path d="M38.0008 35.3578
L37.9403 35.4788
" />
<path d="M37.9403 35.4788
L37.8798 35.5393
" />
<path d="M37.8798 35.5393
L37.7589 35.5997
" />
<path d="M37.7589 35.5997
L37.4565 35.5997
" />
<path d="M37.4565 35.5997
L37.3355 35.5393
" />
<path d="M37.3355 35.5393
L37.2751 35.4788
" />
</g></g>
<g style="fill:none; 
stroke:#840000; stroke-width:0.1524; stroke-opacity:1; 
stroke-linecap:round; stroke-linejoin:round;">
<path d="M34.4932 38.5572
L39.5732 38.5572
" />
</g>
<g style="fill:none; 
stroke:#006464; stroke-width:0.1524; stroke-opacity:1; 
stroke-linecap:round; stroke-linejoin:round;">
<text x="33.4772" y="39.1922"
textLength="4.7994" font-size="1.6933" lengthAdjust="spacingAndGlyphs"
text-anchor="end" opacity="0" stroke-opacity="0">MOSI</text>
<g class="stroked-text"><desc>MOSI</desc>
<path d="M29.0831 39.1367
L29.0831 37.8667
" />
<path d="M29.0831 37.8667
L29.5065 38.7739
" />
<path d="M29.5065 38.7739
L29.9298 37.8667
" />
<path d="M29.9298 37.8667
L29.9298 39.1367
" />
<path d="M30.7764 37.8667
L31.0183 37.8667
" />
<path d="M31.0183 37.8667
L31.1393 37.9272
" />
<path d="M31.1393 37.9272
L31.2602 38.0482
" />
<path d="M31.2602 38.0482
L31.3207 38.2901
" />
<path d="M31.3207 38.2901
L31.3207 38.7134
" />
<path d="M31.3207 38.7134
L31.2602 38.9553
" />
<path d="M31.2602 38.9553
L31.1393 39.0763
" />
<path d="M31.1393 39.0763
L31.0183 39.1367
" />
<path d="M31.0183 39.1367
L30.7764 39.1367
" />
<path d="M30.7764 39.1367
L30.6555 39.0763
" />
<path d="M30.6555 39.0763
L30.5345 38.9553
" />
<path d="M30.5345 38.9553
L30.4741 38.7134
" />
<path d="M30.4741 38.7134
L30.4741 38.2901
" />
<path d="M30.4741 38.2901
L30.5345 38.0482
" />
<path d="M30.5345 38.0482
L30.6555 37.9272
" />
<path d="M30.6555 37.9272
L30.7764 37.8667
" />
<path d="M31.8046 39.0763
L31.9860 39.1367
" />
<path d="M31.9860 39.1367
L32.2884 39.1367
" />
<path d="M32.2884 39.1367
L32.4093 39.0763
" />
<path d="M32.4093 39.0763
L32.4698 39.0158
" />
<path d="M32.4698 39.0158
L32.5303 38.8948
" />
<path d="M32.5303 38.8948
L32.5303 38.7739
" />
<path d="M32.5303 38.7739
L32.4698 38.6529
" />
<path d="M32.4698 38.6529
L32.4093 38.5924
" />
<path d="M32.4093 38.5924
L32.2884 38.5320
" />
<path d="M32.2884 38.5320
L32.0465 38.4715
" />
<path d="M32.0465 38.4715
L31.9255 38.4110
" />
<path d="M31.9255 38.4110
L31.8650 38.3505
" />
<path d="M31.8650 38.3505
L31.8046 38.2296
" />
<path d="M31.8046 38.2296
L31.8046 38.1086
" />
<path d="M31.8046 38.1086
L31.8650 37.9877
" />
<path d="M31.8650 37.9877
L31.9255 37.9272
" />
<path d="M31.9255 37.9272
L32.0465 37.8667
" />
<path d="M32.0465 37.8667
L32.3488 37.8667
" />
<path d="M32.3488 37.8667
L32.5303 37.9272
" />
<path d="M33.0745 39.1367
L33.0745 37.8667
" />
</g></g>
<g style="fill:none; 
stroke:#A90000; stroke-width:0.1524; stroke-opacity:1; 
stroke-linecap:round; stroke-linejoin:round;">
<text x="37.0332" y="38.3032"
textLength="2.6222" font-size="1.6933" lengthAdjust="spacingAndGlyphs"
text-anchor="middle" opacity="0" stroke-opacity="0">14</text>
<g class="stroked-text"><desc>14</desc>
<path d="M36.7913 38.1397
L36.0656 38.1397
" />
<path d="M36.4284 38.1397
L36.4284 36.8697
" />
<path d="M36.4284 36.8697
L36.3075 37.0512
" />
<path d="M36.3075 37.0512
L36.1865 37.1721
" />
<path d="M36.1865 37.1721
L36.0656 37.2326
" />
<path d="M37.8798 37.2931
L37.8798 38.1397
" />
<path d="M37.5774 36.8093
L37.2751 37.7164
" />
<path d="M37.2751 37.7164
L38.0612 37.7164
" />
</g></g>
<g style="fill:none; 
stroke:#840000; stroke-width:0.1524; stroke-opacity:1; 
stroke-linecap:round; stroke-linejoin:round;">
<path d="M34.4932 41.0972
L39.5732 41.0972
" />
</g>
<g style="fill:none; 
stroke:#006464; stroke-width:0.1524; stroke-opacity:1; 
stroke-linecap:round; stroke-linejoin:round;">
<text x="33.4772" y="41.7322"
textLength="3.8922" font-size="1.6933" lengthAdjust="spacingAndGlyphs"
text-anchor="end" opacity="0" stroke-opacity="0">D10</text>
<g class="stroked-text"><desc>D10</desc>
<path d="M29.9903 41.6767
L29.9903 40.4067
" />
<path d="M29.9903 40.4067
L30.2927 40.4067
" />
<path d="M30.2927 40.4067
L30.4741 40.4672
" />
<path d="M30.4741 40.4672
L30.5951 40.5882
" />
<path d="M30.5951 40.5882
L30.6556 40.7091
" />
<path d="M30.6556 40.7091
L30.7160 40.9510
" />
<path d="M30.7160 40.9510
L30.7160 41.1324
" />
<path d="M30.7160 41.1324
L30.6556 41.3743
" />
<path d="M30.6556 41.3743
L30.5951 41.4953
" />
<path d="M30.5951 41.4953
L30.4741 41.6163
" />
<path d="M30.4741 41.6163
L30.2927 41.6767
" />
<path d="M30.2927 41.6767
L29.9903 41.6767
" />
<path d="M31.9256 41.6767
L31.1999 41.6767
" />
<path d="M31.5627 41.6767
L31.5627 40.4067
" />
<path d="M31.5627 40.4067
L31.4418 40.5882
" />
<path d="M31.4418 40.5882
L31.3208 40.7091
" />
<path d="M31.3208 40.7091
L31.1999 40.7696
" />
<path d="M32.7117 40.4067
L32.8327 40.4067
" />
<path d="M32.8327 40.4067
L32.9536 40.4672
" />
<path d="M32.9536 40.4672
L33.0141 40.5277
" />
<path d="M33.0141 40.5277
L33.0746 40.6486
" />
<path d="M33.0746 40.6486
L33.1351 40.8905
" />
<path d="M33.1351 40.8905
L33.1351 41.1929
" />
<path d="M33.1351 41.1929
L33.0746 41.4348
" />
<path d="M33.0746 41.4348
L33.0141 41.5558
" />
<path d="M33.0141 41.5558
L32.9536 41.6163
" />
<path d="M32.9536 41.6163
L32.8327 41.6767
" />
<path d="M32.8327 41.6767
L32.7117 41.6767
" />
<path d="M32.7117 41.6767
L32.5908 41.6163
" />
<path d="M32.5908 41.6163
L32.5303 41.5558
" />
<path d="M32.5303 41.5558
L32.4698 41.4348
" />
<path d="M32.4698 41.4348
L32.4094 41.1929
" />
<path d="M32.4094 41.1929
L32.4094 40.8905
" />
<path d="M32.4094 40.8905
L32.4698 40.6486
" />
<path d="M32.4698 40.6486
L32.5303 40.5277
" />
<path d="M32.5303 40.5277
L32.5908 40.4672
" />
<path d="M32.5908 40.4672
L32.7117 40.4067
" />
</g></g>
<g style="fill:none; 
stroke:#A90000; stroke-width:0.1524; stroke-opacity:1; 
stroke-linecap:round; stroke-linejoin:round;">
<text x="37.0332" y="40.8432"
textLength="2.6222" font-size="1.6933" lengthAdjust="spacingAndGlyphs"
text-anchor="middle" opacity="0" stroke-opacity="0">13</text>
<g class="stroked-text"><desc>13</desc>
<path d="M36.7913 40.6797
L36.0656 40.6797
" />
<path d="M36.4284 40.6797
L36.4284 39.4097
" />
<path d="M36.4284 39.4097
L36.3075 39.5912
" />
<path d="M36.3075 39.5912
L36.1865 39.7121
" />
<path d="M36.1865 39.7121
L36.0656 39.7726
" />
<path d="M37.2146 39.4097
L38.0008 39.4097
" />
<path d="M38.0008 39.4097
L37.5774 39.8935
" />
<path d="M37.5774 39.8935
L37.7589 39.8935
" />
<path d="M37.7589 39.8935
L37.8798 39.9540
" />
<path d="M37.8798 39.9540
L37.9403 40.0145
" />
<path d="M37.9403 40.0145
L38.0008 40.1354
" />
<path d="M38.0008 40.1354
L38.0008 40.4378
" />
<path d="M38.0008 40.4378
L37.9403 40.5588
" />
<path d="M37.9403 40.5588
L37.8798 40.6193
" />
<path d="M37.8798 40.6193
L37.7589 40.6797
" />
<path d="M37.7589 40.6797
L37.3960 40.6797
" />
<path d="M37.3960 40.6797
L37.2751 40.6193
" />
<path d="M37.2751 40.6193
L37.2146 40.5588
" />
</g></g>
<g style="fill:none; 
stroke:#006464; stroke-width:0.1524; stroke-opacity:1; 
stroke-linecap:round; stroke-linejoin:round;">
<text x="0.0000" y="-19.5580"
textLength="3.0553" font-size="2.0320" lengthAdjust="spacingAndGlyphs"
text-anchor="middle" opacity="0" stroke-opacity="0">U?</text>
<g class="stroked-text"><desc>U?</desc>
<path d="M-1.0885 -21.1469
L-1.0885 -19.9132
" />
<path d="M-1.0885 -19.9132
L-1.0159 -19.7680
" />
<path d="M-1.0159 -19.7680
L-0.9434 -19.6955
" />
<path d="M-0.9434 -19.6955
L-0.7982 -19.6229
" />
<path d="M-0.7982 -19.6229
L-0.5079 -19.6229
" />
<path d="M-0.5079 -19.6229
L-0.3628 -19.6955
" />
<path d="M-0.3628 -19.6955
L-0.2902 -19.7680
" />
<path d="M-0.2902 -19.7680
L-0.2176 -19.9132
" />
<path d="M-0.2176 -19.9132
L-0.2176 -21.1469
" />
<path d="M0.7257 -19.7680
L0.7983 -19.6955
" />
<path d="M0.7983 -19.6955
L0.7257 -19.6229
" />
<path d="M0.7257 -19.6229
L0.6532 -19.6955
" />
<path d="M0.6532 -19.6955
L0.7257 -19.7680
" />
<path d="M0.7257 -19.7680
L0.7257 -19.6229
" />
<path d="M0.4354 -21.0743
L0.5806 -21.1469
" />
<path d="M0.5806 -21.1469
L0.9434 -21.1469
" />
<path d="M0.9434 -21.1469
L1.0886 -21.0743
" />
<path d="M1.0886 -21.0743
L1.1612 -20.9292
" />
<path d="M1.1612 -20.9292
L1.1612 -20.7840
" />
<path d="M1.1612 -20.7840
L1.0886 -20.6389
" />
<path d="M1.0886 -20.6389
L1.0160 -20.5663
" />
<path d="M1.0160 -20.5663
L0.8709 -20.4937
" />
<path d="M0.8709 -20.4937
L0.7983 -20.4212
" />
<path d="M0.7983 -20.4212
L0.7257 -20.2760
" />
<path d="M0.7257 -20.2760
L0.7257 -20.2035
" />
</g><text x="0.0000" y="21.0820"
textLength="9.0060" font-size="2.0320" lengthAdjust="spacingAndGlyphs"
text-anchor="middle" opacity="0" stroke-opacity="0">KB2040</text>
<g class="stroked-text"><desc>KB2040</desc>
<path d="M-4.0639 21.0170
L-4.0639 19.4930
" />
<path d="M-3.1930 21.0170
L-3.8462 20.1462
" />
<path d="M-3.1930 19.4930
L-4.0639 20.3639
" />
<path d="M-2.0319 20.2187
L-1.8142 20.2913
" />
<path d="M-1.8142 20.2913
L-1.7416 20.3639
" />
<path d="M-1.7416 20.3639
L-1.6690 20.5090
" />
<path d="M-1.6690 20.5090
L-1.6690 20.7267
" />
<path d="M-1.6690 20.7267
L-1.7416 20.8719
" />
<path d="M-1.7416 20.8719
L-1.8142 20.9445
" />
<path d="M-1.8142 20.9445
L-1.9593 21.0170
" />
<path d="M-1.9593 21.0170
L-2.5399 21.0170
" />
<path d="M-2.5399 21.0170
L-2.5399 19.4930
" />
<path d="M-2.5399 19.4930
L-2.0319 19.4930
" />
<path d="M-2.0319 19.4930
L-1.8868 19.5656
" />
<path d="M-1.8868 19.5656
L-1.8142 19.6382
" />
<path d="M-1.8142 19.6382
L-1.7416 19.7833
" />
<path d="M-1.7416 19.7833
L-1.7416 19.9285
" />
<path d="M-1.7416 19.9285
L-1.8142 20.0736
" />
<path d="M-1.8142 20.0736
L-1.8868 20.1462
" />
<path d="M-1.8868 20.1462
L-2.0319 20.2187
" />
<path d="M-2.0319 20.2187
L-2.5399 20.2187
" />
<path d="M-1.0885 19.6382
L-1.0159 19.5656
" />
<path d="M-1.0159 19.5656
L-0.8708 19.4930
" />
<path d="M-0.8708 19.4930
L-0.5079 19.4930
" />
<path d="M-0.5079 19.4930
L-0.3628 19.5656
" />
<path d="M-0.3628 19.5656
L-0.2902 19.6382
" />
<path d="M-0.2902 19.6382
L-0.2176 19.7833
" />
<path d="M-0.2176 19.7833
L-0.2176 19.9285
" />
<path d="M-0.2176 19.9285
L-0.2902 20.1462
" />
<path d="M-0.2902 20.1462
L-1.1610 21.0170
" />
<path d="M-1.1610 21.0170
L-0.2176 21.0170
" />
<path d="M0.7257 19.4930
L0.8708 19.4930
" />
<path d="M0.8708 19.4930
L1.0160 19.5656
" />
<path d="M1.0160 19.5656
L1.0886 19.6382
" />
<path d="M1.0886 19.6382
L1.1611 19.7833
" />
<path d="M1.1611 19.7833
L1.2337 20.0736
" />
<path d="M1.2337 20.0736
L1.2337 20.4365
" />
<path d="M1.2337 20.4365
L1.1611 20.7267
" />
<path d="M1.1611 20.7267
L1.0886 20.8719
" />
<path d="M1.0886 20.8719
L1.0160 20.9445
" />
<path d="M1.0160 20.9445
L0.8708 21.0170
" />
<path d="M0.8708 21.0170
L0.7257 21.0170
" />
<path d="M0.7257 21.0170
L0.5806 20.9445
" />
<path d="M0.5806 20.9445
L0.5080 20.8719
" />
<path d="M0.5080 20.8719
L0.4354 20.7267
" />
<path d="M0.4354 20.7267
L0.3628 20.4365
" />
<path d="M0.3628 20.4365
L0.3628 20.0736
" />
<path d="M0.3628 20.0736
L0.4354 19.7833
" />
<path d="M0.4354 19.7833
L0.5080 19.6382
" />
<path d="M0.5080 19.6382
L0.5806 19.5656
" />
<path d="M0.5806 19.5656
L0.7257 19.4930
" />
<path d="M2.5400 20.0010
L2.5400 21.0170
" />
<path d="M2.1771 19.4205
L1.8142 20.5090
" />
<path d="M1.8142 20.5090
L2.7577 20.5090
" />
<path d="M3.6285 19.4930
L3.7736 19.4930
" />
<path d="M3.7736 19.4930
L3.9188 19.5656
" />
<path d="M3.9188 19.5656
L3.9914 19.6382
" />
<path d="M3.9914 19.6382
L4.0639 19.7833
" />
<path d="M4.0639 19.7833
L4.1365 20.0736
" />
<path d="M4.1365 20.0736
L4.1365 20.4365
" />
<path d="M4.1365 20.4365
L4.0639 20.7267
" />
<path d="M4.0639 20.7267
L3.9914 20.8719
" />
<path d="M3.9914 20.8719
L3.9188 20.9445
" />
<path d="M3.9188 20.9445
L3.7736 21.0170
" />
<path d="M3.7736 21.0170
L3.6285 21.0170
" />
<path d="M3.6285 21.0170
L3.4834 20.9445
" />
<path d="M3.4834 20.9445
L3.4108 20.8719
" />
<path d="M3.4108 20.8719
L3.3382 20.7267
" />
<path d="M3.3382 20.7267
L3.2656 20.4365
" />
<path d="M3.2656 20.4365
L3.2656 20.0736
" />
<path d="M3.2656 20.0736
L3.3382 19.7833
" />
<path d="M3.3382 19.7833
L3.4108 19.6382
" />
<path d="M3.4108 19.6382
L3.4834 19.5656
" />
<path d="M3.4834 19.5656
L3.6285 19.4930
" />
</g></g> 
</svg>
