<?xml version="1.0" standalone="no"?>
 <!DOCTYPE svg PUBLIC "-//W3C//DTD SVG 1.1//EN" 
 "http://www.w3.org/Graphics/SVG/1.1/DTD/svg11.dtd"> 
<svg
  xmlns:svg="http://www.w3.org/2000/svg"
  xmlns="http://www.w3.org/2000/svg"
  xmlns:xlink="http://www.w3.org/1999/xlink"
  version="1.1"
  width="43.5864mm" height="50.0126mm" viewBox="0.0000 0.0000 43.5864 50.0126">
<title>SVG Image created as KB2040_unit1.svg date 2025/05/12 02:45:48 </title>
  <desc>Image generated by Eeschema-SVG </desc>
<g style="fill:#000000; fill-opacity:1.0000;stroke:#000000; stroke-opacity:1.0000;
stroke-linecap:round; stroke-linejoin:round;"
 transform="translate(0 0) scale(1 1)">
</g>
<g style="fill:#FFFFC2; fill-opacity:1.0000; stroke:none;">
<rect x="9.093200" y="7.226300" width="25.400000" height="35.560000" rx="0.000000" />
</g>
<g style="fill:none; 
stroke:#840000; stroke-width:0.1524; stroke-opacity:1; 
stroke-linecap:round; stroke-linejoin:round;">
<rect x="9.093200" y="7.226300" width="25.400000" height="35.560000" rx="0.000000" />
<path d="M9.0932 9.7663
L4.0132 9.7663
" />
</g>
<g style="fill:none; 
stroke:#006464; stroke-width:0.1524; stroke-opacity:1; 
stroke-linecap:round; stroke-linejoin:round;">
<text x="10.1092" y="10.4013"
textLength="3.0456" font-size="1.6933" lengthAdjust="spacingAndGlyphs"
text-anchor="start" opacity="0" stroke-opacity="0">D+</text>
<g class="stroked-text"><desc>D+</desc>
<path d="M10.5117 10.3458
L10.5117 9.0758
" />
<path d="M10.5117 9.0758
L10.8141 9.0758
" />
<path d="M10.8141 9.0758
L10.9955 9.1363
" />
<path d="M10.9955 9.1363
L11.1165 9.2573
" />
<path d="M11.1165 9.2573
L11.1770 9.3782
" />
<path d="M11.1770 9.3782
L11.2374 9.6201
" />
<path d="M11.2374 9.6201
L11.2374 9.8015
" />
<path d="M11.2374 9.8015
L11.1770 10.0434
" />
<path d="M11.1770 10.0434
L11.1165 10.1644
" />
<path d="M11.1165 10.1644
L10.9955 10.2854
" />
<path d="M10.9955 10.2854
L10.8141 10.3458
" />
<path d="M10.8141 10.3458
L10.5117 10.3458
" />
<path d="M11.7817 9.8620
L12.7494 9.8620
" />
<path d="M12.2655 10.3458
L12.2655 9.3782
" />
</g></g>
<g style="fill:none; 
stroke:#A90000; stroke-width:0.1524; stroke-opacity:1; 
stroke-linecap:round; stroke-linejoin:round;">
<text x="6.5532" y="9.5123"
textLength="1.4127" font-size="1.6933" lengthAdjust="spacingAndGlyphs"
text-anchor="middle" opacity="0" stroke-opacity="0">0</text>
<g class="stroked-text"><desc>0</desc>
<path d="M6.4927 8.0788
L6.6137 8.0788
" />
<path d="M6.6137 8.0788
L6.7346 8.1393
" />
<path d="M6.7346 8.1393
L6.7951 8.1998
" />
<path d="M6.7951 8.1998
L6.8556 8.3207
" />
<path d="M6.8556 8.3207
L6.9161 8.5626
" />
<path d="M6.9161 8.5626
L6.9161 8.8650
" />
<path d="M6.9161 8.8650
L6.8556 9.1069
" />
<path d="M6.8556 9.1069
L6.7951 9.2279
" />
<path d="M6.7951 9.2279
L6.7346 9.2884
" />
<path d="M6.7346 9.2884
L6.6137 9.3488
" />
<path d="M6.6137 9.3488
L6.4927 9.3488
" />
<path d="M6.4927 9.3488
L6.3718 9.2884
" />
<path d="M6.3718 9.2884
L6.3113 9.2279
" />
<path d="M6.3113 9.2279
L6.2508 9.1069
" />
<path d="M6.2508 9.1069
L6.1904 8.8650
" />
<path d="M6.1904 8.8650
L6.1904 8.5626
" />
<path d="M6.1904 8.5626
L6.2508 8.3207
" />
<path d="M6.2508 8.3207
L6.3113 8.1998
" />
<path d="M6.3113 8.1998
L6.3718 8.1393
" />
<path d="M6.3718 8.1393
L6.4927 8.0788
" />
</g></g>
<g style="fill:none; 
stroke:#840000; stroke-width:0.1524; stroke-opacity:1; 
stroke-linecap:round; stroke-linejoin:round;">
<path d="M9.0932 12.3063
L4.0132 12.3063
" />
</g>
<g style="fill:none; 
stroke:#006464; stroke-width:0.1524; stroke-opacity:1; 
stroke-linecap:round; stroke-linejoin:round;">
<text x="10.1092" y="12.9413"
textLength="2.3803" font-size="1.6933" lengthAdjust="spacingAndGlyphs"
text-anchor="start" opacity="0" stroke-opacity="0">TX</text>
<g class="stroked-text"><desc>TX</desc>
<path d="M10.3303 11.6158
L11.0560 11.6158
" />
<path d="M10.6932 12.8858
L10.6932 11.6158
" />
<path d="M11.3584 11.6158
L12.2050 12.8858
" />
<path d="M12.2050 11.6158
L11.3584 12.8858
" />
</g></g>
<g style="fill:none; 
stroke:#A90000; stroke-width:0.1524; stroke-opacity:1; 
stroke-linecap:round; stroke-linejoin:round;">
<text x="6.5532" y="12.0523"
textLength="1.4127" font-size="1.6933" lengthAdjust="spacingAndGlyphs"
text-anchor="middle" opacity="0" stroke-opacity="0">1</text>
<g class="stroked-text"><desc>1</desc>
<path d="M6.9161 11.8888
L6.1904 11.8888
" />
<path d="M6.5532 11.8888
L6.5532 10.6188
" />
<path d="M6.5532 10.6188
L6.4323 10.8003
" />
<path d="M6.4323 10.8003
L6.3113 10.9212
" />
<path d="M6.3113 10.9212
L6.1904 10.9817
" />
</g></g>
<g style="fill:none; 
stroke:#840000; stroke-width:0.1524; stroke-opacity:1; 
stroke-linecap:round; stroke-linejoin:round;">
<path d="M9.0932 14.8463
L4.0132 14.8463
" />
</g>
<g style="fill:none; 
stroke:#006464; stroke-width:0.1524; stroke-opacity:1; 
stroke-linecap:round; stroke-linejoin:round;">
<text x="10.1092" y="15.4813"
textLength="2.6827" font-size="1.6933" lengthAdjust="spacingAndGlyphs"
text-anchor="start" opacity="0" stroke-opacity="0">RX</text>
<g class="stroked-text"><desc>RX</desc>
<path d="M11.2374 15.4258
L10.8141 14.8211
" />
<path d="M10.5117 15.4258
L10.5117 14.1558
" />
<path d="M10.5117 14.1558
L10.9955 14.1558
" />
<path d="M10.9955 14.1558
L11.1165 14.2163
" />
<path d="M11.1165 14.2163
L11.1770 14.2768
" />
<path d="M11.1770 14.2768
L11.2374 14.3977
" />
<path d="M11.2374 14.3977
L11.2374 14.5792
" />
<path d="M11.2374 14.5792
L11.1770 14.7001
" />
<path d="M11.1770 14.7001
L11.1165 14.7606
" />
<path d="M11.1165 14.7606
L10.9955 14.8211
" />
<path d="M10.9955 14.8211
L10.5117 14.8211
" />
<path d="M11.6608 14.1558
L12.5074 15.4258
" />
<path d="M12.5074 14.1558
L11.6608 15.4258
" />
</g></g>
<g style="fill:none; 
stroke:#A90000; stroke-width:0.1524; stroke-opacity:1; 
stroke-linecap:round; stroke-linejoin:round;">
<text x="6.5532" y="14.5923"
textLength="1.4127" font-size="1.6933" lengthAdjust="spacingAndGlyphs"
text-anchor="middle" opacity="0" stroke-opacity="0">2</text>
<g class="stroked-text"><desc>2</desc>
<path d="M6.1904 13.2798
L6.2508 13.2193
" />
<path d="M6.2508 13.2193
L6.3718 13.1588
" />
<path d="M6.3718 13.1588
L6.6742 13.1588
" />
<path d="M6.6742 13.1588
L6.7951 13.2193
" />
<path d="M6.7951 13.2193
L6.8556 13.2798
" />
<path d="M6.8556 13.2798
L6.9161 13.4007
" />
<path d="M6.9161 13.4007
L6.9161 13.5217
" />
<path d="M6.9161 13.5217
L6.8556 13.7031
" />
<path d="M6.8556 13.7031
L6.1299 14.4288
" />
<path d="M6.1299 14.4288
L6.9161 14.4288
" />
</g></g>
<g style="fill:none; 
stroke:#840000; stroke-width:0.1524; stroke-opacity:1; 
stroke-linecap:round; stroke-linejoin:round;">
<path d="M9.0932 17.3863
L4.0132 17.3863
" />
</g>
<g style="fill:none; 
stroke:#006464; stroke-width:0.1524; stroke-opacity:1; 
stroke-linecap:round; stroke-linejoin:round;">
<text x="10.1092" y="18.0213"
textLength="4.0737" font-size="1.6933" lengthAdjust="spacingAndGlyphs"
text-anchor="start" opacity="0" stroke-opacity="0">GND</text>
<g class="stroked-text"><desc>GND</desc>
<path d="M11.1770 16.7563
L11.0560 16.6958
" />
<path d="M11.0560 16.6958
L10.8746 16.6958
" />
<path d="M10.8746 16.6958
L10.6932 16.7563
" />
<path d="M10.6932 16.7563
L10.5722 16.8773
" />
<path d="M10.5722 16.8773
L10.5117 16.9982
" />
<path d="M10.5117 16.9982
L10.4513 17.2401
" />
<path d="M10.4513 17.2401
L10.4513 17.4215
" />
<path d="M10.4513 17.4215
L10.5117 17.6634
" />
<path d="M10.5117 17.6634
L10.5722 17.7844
" />
<path d="M10.5722 17.7844
L10.6932 17.9054
" />
<path d="M10.6932 17.9054
L10.8746 17.9658
" />
<path d="M10.8746 17.9658
L10.9955 17.9658
" />
<path d="M10.9955 17.9658
L11.1770 17.9054
" />
<path d="M11.1770 17.9054
L11.2374 17.8449
" />
<path d="M11.2374 17.8449
L11.2374 17.4215
" />
<path d="M11.2374 17.4215
L10.9955 17.4215
" />
<path d="M11.7817 17.9658
L11.7817 16.6958
" />
<path d="M11.7817 16.6958
L12.5074 17.9658
" />
<path d="M12.5074 17.9658
L12.5074 16.6958
" />
<path d="M13.1122 17.9658
L13.1122 16.6958
" />
<path d="M13.1122 16.6958
L13.4146 16.6958
" />
<path d="M13.4146 16.6958
L13.5960 16.7563
" />
<path d="M13.5960 16.7563
L13.7170 16.8773
" />
<path d="M13.7170 16.8773
L13.7775 16.9982
" />
<path d="M13.7775 16.9982
L13.8379 17.2401
" />
<path d="M13.8379 17.2401
L13.8379 17.4215
" />
<path d="M13.8379 17.4215
L13.7775 17.6634
" />
<path d="M13.7775 17.6634
L13.7170 17.7844
" />
<path d="M13.7170 17.7844
L13.5960 17.9054
" />
<path d="M13.5960 17.9054
L13.4146 17.9658
" />
<path d="M13.4146 17.9658
L13.1122 17.9658
" />
</g></g>
<g style="fill:none; 
stroke:#A90000; stroke-width:0.1524; stroke-opacity:1; 
stroke-linecap:round; stroke-linejoin:round;">
<text x="6.5532" y="17.1323"
textLength="1.4127" font-size="1.6933" lengthAdjust="spacingAndGlyphs"
text-anchor="middle" opacity="0" stroke-opacity="0">3</text>
<g class="stroked-text"><desc>3</desc>
<path d="M6.1299 15.6988
L6.9161 15.6988
" />
<path d="M6.9161 15.6988
L6.4927 16.1826
" />
<path d="M6.4927 16.1826
L6.6742 16.1826
" />
<path d="M6.6742 16.1826
L6.7951 16.2431
" />
<path d="M6.7951 16.2431
L6.8556 16.3036
" />
<path d="M6.8556 16.3036
L6.9161 16.4245
" />
<path d="M6.9161 16.4245
L6.9161 16.7269
" />
<path d="M6.9161 16.7269
L6.8556 16.8479
" />
<path d="M6.8556 16.8479
L6.7951 16.9084
" />
<path d="M6.7951 16.9084
L6.6742 16.9688
" />
<path d="M6.6742 16.9688
L6.3113 16.9688
" />
<path d="M6.3113 16.9688
L6.1904 16.9084
" />
<path d="M6.1904 16.9084
L6.1299 16.8479
" />
</g></g>
<g style="fill:none; 
stroke:#840000; stroke-width:0.1524; stroke-opacity:1; 
stroke-linecap:round; stroke-linejoin:round;">
<path d="M9.0932 19.9263
L4.0132 19.9263
" />
</g>
<g style="fill:none; 
stroke:#006464; stroke-width:0.1524; stroke-opacity:1; 
stroke-linecap:round; stroke-linejoin:round;">
<text x="10.1092" y="20.5613"
textLength="4.0737" font-size="1.6933" lengthAdjust="spacingAndGlyphs"
text-anchor="start" opacity="0" stroke-opacity="0">GND</text>
<g class="stroked-text"><desc>GND</desc>
<path d="M11.1770 19.2963
L11.0560 19.2358
" />
<path d="M11.0560 19.2358
L10.8746 19.2358
" />
<path d="M10.8746 19.2358
L10.6932 19.2963
" />
<path d="M10.6932 19.2963
L10.5722 19.4173
" />
<path d="M10.5722 19.4173
L10.5117 19.5382
" />
<path d="M10.5117 19.5382
L10.4513 19.7801
" />
<path d="M10.4513 19.7801
L10.4513 19.9615
" />
<path d="M10.4513 19.9615
L10.5117 20.2034
" />
<path d="M10.5117 20.2034
L10.5722 20.3244
" />
<path d="M10.5722 20.3244
L10.6932 20.4454
" />
<path d="M10.6932 20.4454
L10.8746 20.5058
" />
<path d="M10.8746 20.5058
L10.9955 20.5058
" />
<path d="M10.9955 20.5058
L11.1770 20.4454
" />
<path d="M11.1770 20.4454
L11.2374 20.3849
" />
<path d="M11.2374 20.3849
L11.2374 19.9615
" />
<path d="M11.2374 19.9615
L10.9955 19.9615
" />
<path d="M11.7817 20.5058
L11.7817 19.2358
" />
<path d="M11.7817 19.2358
L12.5074 20.5058
" />
<path d="M12.5074 20.5058
L12.5074 19.2358
" />
<path d="M13.1122 20.5058
L13.1122 19.2358
" />
<path d="M13.1122 19.2358
L13.4146 19.2358
" />
<path d="M13.4146 19.2358
L13.5960 19.2963
" />
<path d="M13.5960 19.2963
L13.7170 19.4173
" />
<path d="M13.7170 19.4173
L13.7775 19.5382
" />
<path d="M13.7775 19.5382
L13.8379 19.7801
" />
<path d="M13.8379 19.7801
L13.8379 19.9615
" />
<path d="M13.8379 19.9615
L13.7775 20.2034
" />
<path d="M13.7775 20.2034
L13.7170 20.3244
" />
<path d="M13.7170 20.3244
L13.5960 20.4454
" />
<path d="M13.5960 20.4454
L13.4146 20.5058
" />
<path d="M13.4146 20.5058
L13.1122 20.5058
" />
</g></g>
<g style="fill:none; 
stroke:#A90000; stroke-width:0.1524; stroke-opacity:1; 
stroke-linecap:round; stroke-linejoin:round;">
<text x="6.5532" y="19.6723"
textLength="1.4127" font-size="1.6933" lengthAdjust="spacingAndGlyphs"
text-anchor="middle" opacity="0" stroke-opacity="0">4</text>
<g class="stroked-text"><desc>4</desc>
<path d="M6.7951 18.6622
L6.7951 19.5088
" />
<path d="M6.4927 18.1784
L6.1904 19.0855
" />
<path d="M6.1904 19.0855
L6.9765 19.0855
" />
</g></g>
<g style="fill:none; 
stroke:#840000; stroke-width:0.1524; stroke-opacity:1; 
stroke-linecap:round; stroke-linejoin:round;">
<path d="M9.0932 22.4663
L4.0132 22.4663
" />
</g>
<g style="fill:none; 
stroke:#006464; stroke-width:0.1524; stroke-opacity:1; 
stroke-linecap:round; stroke-linejoin:round;">
<text x="10.1092" y="23.1013"
textLength="7.5813" font-size="1.6933" lengthAdjust="spacingAndGlyphs"
text-anchor="start" opacity="0" stroke-opacity="0">D2/SDA</text>
<g class="stroked-text"><desc>D2/SDA</desc>
<path d="M10.5117 23.0458
L10.5117 21.7758
" />
<path d="M10.5117 21.7758
L10.8141 21.7758
" />
<path d="M10.8141 21.7758
L10.9955 21.8363
" />
<path d="M10.9955 21.8363
L11.1165 21.9573
" />
<path d="M11.1165 21.9573
L11.1770 22.0782
" />
<path d="M11.1770 22.0782
L11.2374 22.3201
" />
<path d="M11.2374 22.3201
L11.2374 22.5015
" />
<path d="M11.2374 22.5015
L11.1770 22.7434
" />
<path d="M11.1770 22.7434
L11.1165 22.8644
" />
<path d="M11.1165 22.8644
L10.9955 22.9854
" />
<path d="M10.9955 22.9854
L10.8141 23.0458
" />
<path d="M10.8141 23.0458
L10.5117 23.0458
" />
<path d="M11.7213 21.8968
L11.7817 21.8363
" />
<path d="M11.7817 21.8363
L11.9027 21.7758
" />
<path d="M11.9027 21.7758
L12.2051 21.7758
" />
<path d="M12.2051 21.7758
L12.3260 21.8363
" />
<path d="M12.3260 21.8363
L12.3865 21.8968
" />
<path d="M12.3865 21.8968
L12.4470 22.0177
" />
<path d="M12.4470 22.0177
L12.4470 22.1387
" />
<path d="M12.4470 22.1387
L12.3865 22.3201
" />
<path d="M12.3865 22.3201
L11.6608 23.0458
" />
<path d="M11.6608 23.0458
L12.4470 23.0458
" />
<path d="M13.8984 21.7154
L12.8098 23.3482
" />
<path d="M14.2613 22.9854
L14.4427 23.0458
" />
<path d="M14.4427 23.0458
L14.7451 23.0458
" />
<path d="M14.7451 23.0458
L14.8660 22.9854
" />
<path d="M14.8660 22.9854
L14.9265 22.9249
" />
<path d="M14.9265 22.9249
L14.9870 22.8039
" />
<path d="M14.9870 22.8039
L14.9870 22.6830
" />
<path d="M14.9870 22.6830
L14.9265 22.5620
" />
<path d="M14.9265 22.5620
L14.8660 22.5015
" />
<path d="M14.8660 22.5015
L14.7451 22.4411
" />
<path d="M14.7451 22.4411
L14.5032 22.3806
" />
<path d="M14.5032 22.3806
L14.3822 22.3201
" />
<path d="M14.3822 22.3201
L14.3217 22.2596
" />
<path d="M14.3217 22.2596
L14.2613 22.1387
" />
<path d="M14.2613 22.1387
L14.2613 22.0177
" />
<path d="M14.2613 22.0177
L14.3217 21.8968
" />
<path d="M14.3217 21.8968
L14.3822 21.8363
" />
<path d="M14.3822 21.8363
L14.5032 21.7758
" />
<path d="M14.5032 21.7758
L14.8055 21.7758
" />
<path d="M14.8055 21.7758
L14.9870 21.8363
" />
<path d="M15.5312 23.0458
L15.5312 21.7758
" />
<path d="M15.5312 21.7758
L15.8336 21.7758
" />
<path d="M15.8336 21.7758
L16.0150 21.8363
" />
<path d="M16.0150 21.8363
L16.1360 21.9573
" />
<path d="M16.1360 21.9573
L16.1965 22.0782
" />
<path d="M16.1965 22.0782
L16.2569 22.3201
" />
<path d="M16.2569 22.3201
L16.2569 22.5015
" />
<path d="M16.2569 22.5015
L16.1965 22.7434
" />
<path d="M16.1965 22.7434
L16.1360 22.8644
" />
<path d="M16.1360 22.8644
L16.0150 22.9854
" />
<path d="M16.0150 22.9854
L15.8336 23.0458
" />
<path d="M15.8336 23.0458
L15.5312 23.0458
" />
<path d="M16.7408 22.6830
L17.3455 22.6830
" />
<path d="M16.6198 23.0458
L17.0431 21.7758
" />
<path d="M17.0431 21.7758
L17.4665 23.0458
" />
</g></g>
<g style="fill:none; 
stroke:#A90000; stroke-width:0.1524; stroke-opacity:1; 
stroke-linecap:round; stroke-linejoin:round;">
<text x="6.5532" y="22.2123"
textLength="1.4127" font-size="1.6933" lengthAdjust="spacingAndGlyphs"
text-anchor="middle" opacity="0" stroke-opacity="0">5</text>
<g class="stroked-text"><desc>5</desc>
<path d="M6.8556 20.7788
L6.2508 20.7788
" />
<path d="M6.2508 20.7788
L6.1904 21.3836
" />
<path d="M6.1904 21.3836
L6.2508 21.3231
" />
<path d="M6.2508 21.3231
L6.3718 21.2626
" />
<path d="M6.3718 21.2626
L6.6742 21.2626
" />
<path d="M6.6742 21.2626
L6.7951 21.3231
" />
<path d="M6.7951 21.3231
L6.8556 21.3836
" />
<path d="M6.8556 21.3836
L6.9161 21.5045
" />
<path d="M6.9161 21.5045
L6.9161 21.8069
" />
<path d="M6.9161 21.8069
L6.8556 21.9279
" />
<path d="M6.8556 21.9279
L6.7951 21.9884
" />
<path d="M6.7951 21.9884
L6.6742 22.0488
" />
<path d="M6.6742 22.0488
L6.3718 22.0488
" />
<path d="M6.3718 22.0488
L6.2508 21.9884
" />
<path d="M6.2508 21.9884
L6.1904 21.9279
" />
</g></g>
<g style="fill:none; 
stroke:#840000; stroke-width:0.1524; stroke-opacity:1; 
stroke-linecap:round; stroke-linejoin:round;">
<path d="M9.0932 25.0063
L4.0132 25.0063
" />
</g>
<g style="fill:none; 
stroke:#006464; stroke-width:0.1524; stroke-opacity:1; 
stroke-linecap:round; stroke-linejoin:round;">
<text x="10.1092" y="25.6413"
textLength="7.5208" font-size="1.6933" lengthAdjust="spacingAndGlyphs"
text-anchor="start" opacity="0" stroke-opacity="0">D3/SCL</text>
<g class="stroked-text"><desc>D3/SCL</desc>
<path d="M10.5117 25.5858
L10.5117 24.3158
" />
<path d="M10.5117 24.3158
L10.8141 24.3158
" />
<path d="M10.8141 24.3158
L10.9955 24.3763
" />
<path d="M10.9955 24.3763
L11.1165 24.4973
" />
<path d="M11.1165 24.4973
L11.1770 24.6182
" />
<path d="M11.1770 24.6182
L11.2374 24.8601
" />
<path d="M11.2374 24.8601
L11.2374 25.0415
" />
<path d="M11.2374 25.0415
L11.1770 25.2834
" />
<path d="M11.1770 25.2834
L11.1165 25.4044
" />
<path d="M11.1165 25.4044
L10.9955 25.5254
" />
<path d="M10.9955 25.5254
L10.8141 25.5858
" />
<path d="M10.8141 25.5858
L10.5117 25.5858
" />
<path d="M11.6608 24.3158
L12.4470 24.3158
" />
<path d="M12.4470 24.3158
L12.0236 24.7996
" />
<path d="M12.0236 24.7996
L12.2051 24.7996
" />
<path d="M12.2051 24.7996
L12.3260 24.8601
" />
<path d="M12.3260 24.8601
L12.3865 24.9206
" />
<path d="M12.3865 24.9206
L12.4470 25.0415
" />
<path d="M12.4470 25.0415
L12.4470 25.3439
" />
<path d="M12.4470 25.3439
L12.3865 25.4649
" />
<path d="M12.3865 25.4649
L12.3260 25.5254
" />
<path d="M12.3260 25.5254
L12.2051 25.5858
" />
<path d="M12.2051 25.5858
L11.8422 25.5858
" />
<path d="M11.8422 25.5858
L11.7213 25.5254
" />
<path d="M11.7213 25.5254
L11.6608 25.4649
" />
<path d="M13.8984 24.2554
L12.8098 25.8882
" />
<path d="M14.2613 25.5254
L14.4427 25.5858
" />
<path d="M14.4427 25.5858
L14.7451 25.5858
" />
<path d="M14.7451 25.5858
L14.8660 25.5254
" />
<path d="M14.8660 25.5254
L14.9265 25.4649
" />
<path d="M14.9265 25.4649
L14.9870 25.3439
" />
<path d="M14.9870 25.3439
L14.9870 25.2230
" />
<path d="M14.9870 25.2230
L14.9265 25.1020
" />
<path d="M14.9265 25.1020
L14.8660 25.0415
" />
<path d="M14.8660 25.0415
L14.7451 24.9811
" />
<path d="M14.7451 24.9811
L14.5032 24.9206
" />
<path d="M14.5032 24.9206
L14.3822 24.8601
" />
<path d="M14.3822 24.8601
L14.3217 24.7996
" />
<path d="M14.3217 24.7996
L14.2613 24.6787
" />
<path d="M14.2613 24.6787
L14.2613 24.5577
" />
<path d="M14.2613 24.5577
L14.3217 24.4368
" />
<path d="M14.3217 24.4368
L14.3822 24.3763
" />
<path d="M14.3822 24.3763
L14.5032 24.3158
" />
<path d="M14.5032 24.3158
L14.8055 24.3158
" />
<path d="M14.8055 24.3158
L14.9870 24.3763
" />
<path d="M16.2569 25.4649
L16.1965 25.5254
" />
<path d="M16.1965 25.5254
L16.0150 25.5858
" />
<path d="M16.0150 25.5858
L15.8941 25.5858
" />
<path d="M15.8941 25.5858
L15.7127 25.5254
" />
<path d="M15.7127 25.5254
L15.5917 25.4044
" />
<path d="M15.5917 25.4044
L15.5312 25.2834
" />
<path d="M15.5312 25.2834
L15.4708 25.0415
" />
<path d="M15.4708 25.0415
L15.4708 24.8601
" />
<path d="M15.4708 24.8601
L15.5312 24.6182
" />
<path d="M15.5312 24.6182
L15.5917 24.4973
" />
<path d="M15.5917 24.4973
L15.7127 24.3763
" />
<path d="M15.7127 24.3763
L15.8941 24.3158
" />
<path d="M15.8941 24.3158
L16.0150 24.3158
" />
<path d="M16.0150 24.3158
L16.1965 24.3763
" />
<path d="M16.1965 24.3763
L16.2569 24.4368
" />
<path d="M17.4060 25.5858
L16.8012 25.5858
" />
<path d="M16.8012 25.5858
L16.8012 24.3158
" />
</g></g>
<g style="fill:none; 
stroke:#A90000; stroke-width:0.1524; stroke-opacity:1; 
stroke-linecap:round; stroke-linejoin:round;">
<text x="6.5532" y="24.7523"
textLength="1.4127" font-size="1.6933" lengthAdjust="spacingAndGlyphs"
text-anchor="middle" opacity="0" stroke-opacity="0">6</text>
<g class="stroked-text"><desc>6</desc>
<path d="M6.7951 23.3188
L6.5532 23.3188
" />
<path d="M6.5532 23.3188
L6.4323 23.3793
" />
<path d="M6.4323 23.3793
L6.3718 23.4398
" />
<path d="M6.3718 23.4398
L6.2508 23.6212
" />
<path d="M6.2508 23.6212
L6.1904 23.8631
" />
<path d="M6.1904 23.8631
L6.1904 24.3469
" />
<path d="M6.1904 24.3469
L6.2508 24.4679
" />
<path d="M6.2508 24.4679
L6.3113 24.5284
" />
<path d="M6.3113 24.5284
L6.4323 24.5888
" />
<path d="M6.4323 24.5888
L6.6742 24.5888
" />
<path d="M6.6742 24.5888
L6.7951 24.5284
" />
<path d="M6.7951 24.5284
L6.8556 24.4679
" />
<path d="M6.8556 24.4679
L6.9161 24.3469
" />
<path d="M6.9161 24.3469
L6.9161 24.0445
" />
<path d="M6.9161 24.0445
L6.8556 23.9236
" />
<path d="M6.8556 23.9236
L6.7951 23.8631
" />
<path d="M6.7951 23.8631
L6.6742 23.8026
" />
<path d="M6.6742 23.8026
L6.4323 23.8026
" />
<path d="M6.4323 23.8026
L6.3113 23.8631
" />
<path d="M6.3113 23.8631
L6.2508 23.9236
" />
<path d="M6.2508 23.9236
L6.1904 24.0445
" />
</g></g>
<g style="fill:none; 
stroke:#840000; stroke-width:0.1524; stroke-opacity:1; 
stroke-linecap:round; stroke-linejoin:round;">
<path d="M9.0932 27.5463
L4.0132 27.5463
" />
</g>
<g style="fill:none; 
stroke:#006464; stroke-width:0.1524; stroke-opacity:1; 
stroke-linecap:round; stroke-linejoin:round;">
<text x="10.1092" y="28.1813"
textLength="2.6827" font-size="1.6933" lengthAdjust="spacingAndGlyphs"
text-anchor="start" opacity="0" stroke-opacity="0">D4</text>
<g class="stroked-text"><desc>D4</desc>
<path d="M10.5117 28.1258
L10.5117 26.8558
" />
<path d="M10.5117 26.8558
L10.8141 26.8558
" />
<path d="M10.8141 26.8558
L10.9955 26.9163
" />
<path d="M10.9955 26.9163
L11.1165 27.0373
" />
<path d="M11.1165 27.0373
L11.1770 27.1582
" />
<path d="M11.1770 27.1582
L11.2374 27.4001
" />
<path d="M11.2374 27.4001
L11.2374 27.5815
" />
<path d="M11.2374 27.5815
L11.1770 27.8234
" />
<path d="M11.1770 27.8234
L11.1165 27.9444
" />
<path d="M11.1165 27.9444
L10.9955 28.0654
" />
<path d="M10.9955 28.0654
L10.8141 28.1258
" />
<path d="M10.8141 28.1258
L10.5117 28.1258
" />
<path d="M12.3260 27.2792
L12.3260 28.1258
" />
<path d="M12.0236 26.7954
L11.7213 27.7025
" />
<path d="M11.7213 27.7025
L12.5074 27.7025
" />
</g></g>
<g style="fill:none; 
stroke:#A90000; stroke-width:0.1524; stroke-opacity:1; 
stroke-linecap:round; stroke-linejoin:round;">
<text x="6.5532" y="27.2923"
textLength="1.4127" font-size="1.6933" lengthAdjust="spacingAndGlyphs"
text-anchor="middle" opacity="0" stroke-opacity="0">7</text>
<g class="stroked-text"><desc>7</desc>
<path d="M6.1299 25.8588
L6.9765 25.8588
" />
<path d="M6.9765 25.8588
L6.4323 27.1288
" />
</g></g>
<g style="fill:none; 
stroke:#840000; stroke-width:0.1524; stroke-opacity:1; 
stroke-linecap:round; stroke-linejoin:round;">
<path d="M9.0932 30.0863
L4.0132 30.0863
" />
</g>
<g style="fill:none; 
stroke:#006464; stroke-width:0.1524; stroke-opacity:1; 
stroke-linecap:round; stroke-linejoin:round;">
<text x="10.1092" y="30.7213"
textLength="2.6827" font-size="1.6933" lengthAdjust="spacingAndGlyphs"
text-anchor="start" opacity="0" stroke-opacity="0">D5</text>
<g class="stroked-text"><desc>D5</desc>
<path d="M10.5117 30.6658
L10.5117 29.3958
" />
<path d="M10.5117 29.3958
L10.8141 29.3958
" />
<path d="M10.8141 29.3958
L10.9955 29.4563
" />
<path d="M10.9955 29.4563
L11.1165 29.5773
" />
<path d="M11.1165 29.5773
L11.1770 29.6982
" />
<path d="M11.1770 29.6982
L11.2374 29.9401
" />
<path d="M11.2374 29.9401
L11.2374 30.1215
" />
<path d="M11.2374 30.1215
L11.1770 30.3634
" />
<path d="M11.1770 30.3634
L11.1165 30.4844
" />
<path d="M11.1165 30.4844
L10.9955 30.6054
" />
<path d="M10.9955 30.6054
L10.8141 30.6658
" />
<path d="M10.8141 30.6658
L10.5117 30.6658
" />
<path d="M12.3865 29.3958
L11.7817 29.3958
" />
<path d="M11.7817 29.3958
L11.7213 30.0006
" />
<path d="M11.7213 30.0006
L11.7817 29.9401
" />
<path d="M11.7817 29.9401
L11.9027 29.8796
" />
<path d="M11.9027 29.8796
L12.2051 29.8796
" />
<path d="M12.2051 29.8796
L12.3260 29.9401
" />
<path d="M12.3260 29.9401
L12.3865 30.0006
" />
<path d="M12.3865 30.0006
L12.4470 30.1215
" />
<path d="M12.4470 30.1215
L12.4470 30.4239
" />
<path d="M12.4470 30.4239
L12.3865 30.5449
" />
<path d="M12.3865 30.5449
L12.3260 30.6054
" />
<path d="M12.3260 30.6054
L12.2051 30.6658
" />
<path d="M12.2051 30.6658
L11.9027 30.6658
" />
<path d="M11.9027 30.6658
L11.7817 30.6054
" />
<path d="M11.7817 30.6054
L11.7213 30.5449
" />
</g></g>
<g style="fill:none; 
stroke:#A90000; stroke-width:0.1524; stroke-opacity:1; 
stroke-linecap:round; stroke-linejoin:round;">
<text x="6.5532" y="29.8323"
textLength="1.4127" font-size="1.6933" lengthAdjust="spacingAndGlyphs"
text-anchor="middle" opacity="0" stroke-opacity="0">8</text>
<g class="stroked-text"><desc>8</desc>
<path d="M6.4323 28.9431
L6.3113 28.8826
" />
<path d="M6.3113 28.8826
L6.2508 28.8222
" />
<path d="M6.2508 28.8222
L6.1904 28.7012
" />
<path d="M6.1904 28.7012
L6.1904 28.6407
" />
<path d="M6.1904 28.6407
L6.2508 28.5198
" />
<path d="M6.2508 28.5198
L6.3113 28.4593
" />
<path d="M6.3113 28.4593
L6.4323 28.3988
" />
<path d="M6.4323 28.3988
L6.6742 28.3988
" />
<path d="M6.6742 28.3988
L6.7951 28.4593
" />
<path d="M6.7951 28.4593
L6.8556 28.5198
" />
<path d="M6.8556 28.5198
L6.9161 28.6407
" />
<path d="M6.9161 28.6407
L6.9161 28.7012
" />
<path d="M6.9161 28.7012
L6.8556 28.8222
" />
<path d="M6.8556 28.8222
L6.7951 28.8826
" />
<path d="M6.7951 28.8826
L6.6742 28.9431
" />
<path d="M6.6742 28.9431
L6.4323 28.9431
" />
<path d="M6.4323 28.9431
L6.3113 29.0036
" />
<path d="M6.3113 29.0036
L6.2508 29.0641
" />
<path d="M6.2508 29.0641
L6.1904 29.1850
" />
<path d="M6.1904 29.1850
L6.1904 29.4269
" />
<path d="M6.1904 29.4269
L6.2508 29.5479
" />
<path d="M6.2508 29.5479
L6.3113 29.6084
" />
<path d="M6.3113 29.6084
L6.4323 29.6688
" />
<path d="M6.4323 29.6688
L6.6742 29.6688
" />
<path d="M6.6742 29.6688
L6.7951 29.6084
" />
<path d="M6.7951 29.6084
L6.8556 29.5479
" />
<path d="M6.8556 29.5479
L6.9161 29.4269
" />
<path d="M6.9161 29.4269
L6.9161 29.1850
" />
<path d="M6.9161 29.1850
L6.8556 29.0641
" />
<path d="M6.8556 29.0641
L6.7951 29.0036
" />
<path d="M6.7951 29.0036
L6.6742 28.9431
" />
</g></g>
<g style="fill:none; 
stroke:#840000; stroke-width:0.1524; stroke-opacity:1; 
stroke-linecap:round; stroke-linejoin:round;">
<path d="M9.0932 32.6263
L4.0132 32.6263
" />
</g>
<g style="fill:none; 
stroke:#006464; stroke-width:0.1524; stroke-opacity:1; 
stroke-linecap:round; stroke-linejoin:round;">
<text x="10.1092" y="33.2613"
textLength="2.6827" font-size="1.6933" lengthAdjust="spacingAndGlyphs"
text-anchor="start" opacity="0" stroke-opacity="0">D6</text>
<g class="stroked-text"><desc>D6</desc>
<path d="M10.5117 33.2058
L10.5117 31.9358
" />
<path d="M10.5117 31.9358
L10.8141 31.9358
" />
<path d="M10.8141 31.9358
L10.9955 31.9963
" />
<path d="M10.9955 31.9963
L11.1165 32.1173
" />
<path d="M11.1165 32.1173
L11.1770 32.2382
" />
<path d="M11.1770 32.2382
L11.2374 32.4801
" />
<path d="M11.2374 32.4801
L11.2374 32.6615
" />
<path d="M11.2374 32.6615
L11.1770 32.9034
" />
<path d="M11.1770 32.9034
L11.1165 33.0244
" />
<path d="M11.1165 33.0244
L10.9955 33.1454
" />
<path d="M10.9955 33.1454
L10.8141 33.2058
" />
<path d="M10.8141 33.2058
L10.5117 33.2058
" />
<path d="M12.3260 31.9358
L12.0841 31.9358
" />
<path d="M12.0841 31.9358
L11.9632 31.9963
" />
<path d="M11.9632 31.9963
L11.9027 32.0568
" />
<path d="M11.9027 32.0568
L11.7817 32.2382
" />
<path d="M11.7817 32.2382
L11.7213 32.4801
" />
<path d="M11.7213 32.4801
L11.7213 32.9639
" />
<path d="M11.7213 32.9639
L11.7817 33.0849
" />
<path d="M11.7817 33.0849
L11.8422 33.1454
" />
<path d="M11.8422 33.1454
L11.9632 33.2058
" />
<path d="M11.9632 33.2058
L12.2051 33.2058
" />
<path d="M12.2051 33.2058
L12.3260 33.1454
" />
<path d="M12.3260 33.1454
L12.3865 33.0849
" />
<path d="M12.3865 33.0849
L12.4470 32.9639
" />
<path d="M12.4470 32.9639
L12.4470 32.6615
" />
<path d="M12.4470 32.6615
L12.3865 32.5406
" />
<path d="M12.3865 32.5406
L12.3260 32.4801
" />
<path d="M12.3260 32.4801
L12.2051 32.4196
" />
<path d="M12.2051 32.4196
L11.9632 32.4196
" />
<path d="M11.9632 32.4196
L11.8422 32.4801
" />
<path d="M11.8422 32.4801
L11.7817 32.5406
" />
<path d="M11.7817 32.5406
L11.7213 32.6615
" />
</g></g>
<g style="fill:none; 
stroke:#A90000; stroke-width:0.1524; stroke-opacity:1; 
stroke-linecap:round; stroke-linejoin:round;">
<text x="6.5532" y="32.3723"
textLength="1.4127" font-size="1.6933" lengthAdjust="spacingAndGlyphs"
text-anchor="middle" opacity="0" stroke-opacity="0">9</text>
<g class="stroked-text"><desc>9</desc>
<path d="M6.3113 32.2088
L6.5532 32.2088
" />
<path d="M6.5532 32.2088
L6.6742 32.1484
" />
<path d="M6.6742 32.1484
L6.7346 32.0879
" />
<path d="M6.7346 32.0879
L6.8556 31.9064
" />
<path d="M6.8556 31.9064
L6.9161 31.6645
" />
<path d="M6.9161 31.6645
L6.9161 31.1807
" />
<path d="M6.9161 31.1807
L6.8556 31.0598
" />
<path d="M6.8556 31.0598
L6.7951 30.9993
" />
<path d="M6.7951 30.9993
L6.6742 30.9388
" />
<path d="M6.6742 30.9388
L6.4323 30.9388
" />
<path d="M6.4323 30.9388
L6.3113 30.9993
" />
<path d="M6.3113 30.9993
L6.2508 31.0598
" />
<path d="M6.2508 31.0598
L6.1904 31.1807
" />
<path d="M6.1904 31.1807
L6.1904 31.4831
" />
<path d="M6.1904 31.4831
L6.2508 31.6041
" />
<path d="M6.2508 31.6041
L6.3113 31.6645
" />
<path d="M6.3113 31.6645
L6.4323 31.7250
" />
<path d="M6.4323 31.7250
L6.6742 31.7250
" />
<path d="M6.6742 31.7250
L6.7951 31.6645
" />
<path d="M6.7951 31.6645
L6.8556 31.6041
" />
<path d="M6.8556 31.6041
L6.9161 31.4831
" />
</g></g>
<g style="fill:none; 
stroke:#840000; stroke-width:0.1524; stroke-opacity:1; 
stroke-linecap:round; stroke-linejoin:round;">
<path d="M9.0932 35.1663
L4.0132 35.1663
" />
</g>
<g style="fill:none; 
stroke:#006464; stroke-width:0.1524; stroke-opacity:1; 
stroke-linecap:round; stroke-linejoin:round;">
<text x="10.1092" y="35.8013"
textLength="2.6827" font-size="1.6933" lengthAdjust="spacingAndGlyphs"
text-anchor="start" opacity="0" stroke-opacity="0">D7</text>
<g class="stroked-text"><desc>D7</desc>
<path d="M10.5117 35.7458
L10.5117 34.4758
" />
<path d="M10.5117 34.4758
L10.8141 34.4758
" />
<path d="M10.8141 34.4758
L10.9955 34.5363
" />
<path d="M10.9955 34.5363
L11.1165 34.6573
" />
<path d="M11.1165 34.6573
L11.1770 34.7782
" />
<path d="M11.1770 34.7782
L11.2374 35.0201
" />
<path d="M11.2374 35.0201
L11.2374 35.2015
" />
<path d="M11.2374 35.2015
L11.1770 35.4434
" />
<path d="M11.1770 35.4434
L11.1165 35.5644
" />
<path d="M11.1165 35.5644
L10.9955 35.6854
" />
<path d="M10.9955 35.6854
L10.8141 35.7458
" />
<path d="M10.8141 35.7458
L10.5117 35.7458
" />
<path d="M11.6608 34.4758
L12.5074 34.4758
" />
<path d="M12.5074 34.4758
L11.9632 35.7458
" />
</g></g>
<g style="fill:none; 
stroke:#A90000; stroke-width:0.1524; stroke-opacity:1; 
stroke-linecap:round; stroke-linejoin:round;">
<text x="6.5532" y="34.9123"
textLength="2.6222" font-size="1.6933" lengthAdjust="spacingAndGlyphs"
text-anchor="middle" opacity="0" stroke-opacity="0">10</text>
<g class="stroked-text"><desc>10</desc>
<path d="M6.3113 34.7488
L5.5856 34.7488
" />
<path d="M5.9484 34.7488
L5.9484 33.4788
" />
<path d="M5.9484 33.4788
L5.8275 33.6603
" />
<path d="M5.8275 33.6603
L5.7065 33.7812
" />
<path d="M5.7065 33.7812
L5.5856 33.8417
" />
<path d="M7.0974 33.4788
L7.2184 33.4788
" />
<path d="M7.2184 33.4788
L7.3393 33.5393
" />
<path d="M7.3393 33.5393
L7.3998 33.5998
" />
<path d="M7.3998 33.5998
L7.4603 33.7207
" />
<path d="M7.4603 33.7207
L7.5208 33.9626
" />
<path d="M7.5208 33.9626
L7.5208 34.2650
" />
<path d="M7.5208 34.2650
L7.4603 34.5069
" />
<path d="M7.4603 34.5069
L7.3998 34.6279
" />
<path d="M7.3998 34.6279
L7.3393 34.6884
" />
<path d="M7.3393 34.6884
L7.2184 34.7488
" />
<path d="M7.2184 34.7488
L7.0974 34.7488
" />
<path d="M7.0974 34.7488
L6.9765 34.6884
" />
<path d="M6.9765 34.6884
L6.9160 34.6279
" />
<path d="M6.9160 34.6279
L6.8555 34.5069
" />
<path d="M6.8555 34.5069
L6.7951 34.2650
" />
<path d="M6.7951 34.2650
L6.7951 33.9626
" />
<path d="M6.7951 33.9626
L6.8555 33.7207
" />
<path d="M6.8555 33.7207
L6.9160 33.5998
" />
<path d="M6.9160 33.5998
L6.9765 33.5393
" />
<path d="M6.9765 33.5393
L7.0974 33.4788
" />
</g></g>
<g style="fill:none; 
stroke:#840000; stroke-width:0.1524; stroke-opacity:1; 
stroke-linecap:round; stroke-linejoin:round;">
<path d="M9.0932 37.7063
L4.0132 37.7063
" />
</g>
<g style="fill:none; 
stroke:#006464; stroke-width:0.1524; stroke-opacity:1; 
stroke-linecap:round; stroke-linejoin:round;">
<text x="10.1092" y="38.3413"
textLength="2.6827" font-size="1.6933" lengthAdjust="spacingAndGlyphs"
text-anchor="start" opacity="0" stroke-opacity="0">D8</text>
<g class="stroked-text"><desc>D8</desc>
<path d="M10.5117 38.2858
L10.5117 37.0158
" />
<path d="M10.5117 37.0158
L10.8141 37.0158
" />
<path d="M10.8141 37.0158
L10.9955 37.0763
" />
<path d="M10.9955 37.0763
L11.1165 37.1973
" />
<path d="M11.1165 37.1973
L11.1770 37.3182
" />
<path d="M11.1770 37.3182
L11.2374 37.5601
" />
<path d="M11.2374 37.5601
L11.2374 37.7415
" />
<path d="M11.2374 37.7415
L11.1770 37.9834
" />
<path d="M11.1770 37.9834
L11.1165 38.1044
" />
<path d="M11.1165 38.1044
L10.9955 38.2254
" />
<path d="M10.9955 38.2254
L10.8141 38.2858
" />
<path d="M10.8141 38.2858
L10.5117 38.2858
" />
<path d="M11.9632 37.5601
L11.8422 37.4996
" />
<path d="M11.8422 37.4996
L11.7817 37.4392
" />
<path d="M11.7817 37.4392
L11.7213 37.3182
" />
<path d="M11.7213 37.3182
L11.7213 37.2577
" />
<path d="M11.7213 37.2577
L11.7817 37.1368
" />
<path d="M11.7817 37.1368
L11.8422 37.0763
" />
<path d="M11.8422 37.0763
L11.9632 37.0158
" />
<path d="M11.9632 37.0158
L12.2051 37.0158
" />
<path d="M12.2051 37.0158
L12.3260 37.0763
" />
<path d="M12.3260 37.0763
L12.3865 37.1368
" />
<path d="M12.3865 37.1368
L12.4470 37.2577
" />
<path d="M12.4470 37.2577
L12.4470 37.3182
" />
<path d="M12.4470 37.3182
L12.3865 37.4392
" />
<path d="M12.3865 37.4392
L12.3260 37.4996
" />
<path d="M12.3260 37.4996
L12.2051 37.5601
" />
<path d="M12.2051 37.5601
L11.9632 37.5601
" />
<path d="M11.9632 37.5601
L11.8422 37.6206
" />
<path d="M11.8422 37.6206
L11.7817 37.6811
" />
<path d="M11.7817 37.6811
L11.7213 37.8020
" />
<path d="M11.7213 37.8020
L11.7213 38.0439
" />
<path d="M11.7213 38.0439
L11.7817 38.1649
" />
<path d="M11.7817 38.1649
L11.8422 38.2254
" />
<path d="M11.8422 38.2254
L11.9632 38.2858
" />
<path d="M11.9632 38.2858
L12.2051 38.2858
" />
<path d="M12.2051 38.2858
L12.3260 38.2254
" />
<path d="M12.3260 38.2254
L12.3865 38.1649
" />
<path d="M12.3865 38.1649
L12.4470 38.0439
" />
<path d="M12.4470 38.0439
L12.4470 37.8020
" />
<path d="M12.4470 37.8020
L12.3865 37.6811
" />
<path d="M12.3865 37.6811
L12.3260 37.6206
" />
<path d="M12.3260 37.6206
L12.2051 37.5601
" />
</g></g>
<g style="fill:none; 
stroke:#A90000; stroke-width:0.1524; stroke-opacity:1; 
stroke-linecap:round; stroke-linejoin:round;">
<text x="6.5532" y="37.4523"
textLength="2.6222" font-size="1.6933" lengthAdjust="spacingAndGlyphs"
text-anchor="middle" opacity="0" stroke-opacity="0">11</text>
<g class="stroked-text"><desc>11</desc>
<path d="M6.3113 37.2888
L5.5856 37.2888
" />
<path d="M5.9484 37.2888
L5.9484 36.0188
" />
<path d="M5.9484 36.0188
L5.8275 36.2003
" />
<path d="M5.8275 36.2003
L5.7065 36.3212
" />
<path d="M5.7065 36.3212
L5.5856 36.3817
" />
<path d="M7.5208 37.2888
L6.7951 37.2888
" />
<path d="M7.1579 37.2888
L7.1579 36.0188
" />
<path d="M7.1579 36.0188
L7.0370 36.2003
" />
<path d="M7.0370 36.2003
L6.9160 36.3212
" />
<path d="M6.9160 36.3212
L6.7951 36.3817
" />
</g></g>
<g style="fill:none; 
stroke:#840000; stroke-width:0.1524; stroke-opacity:1; 
stroke-linecap:round; stroke-linejoin:round;">
<path d="M9.0932 40.2463
L4.0132 40.2463
" />
</g>
<g style="fill:none; 
stroke:#006464; stroke-width:0.1524; stroke-opacity:1; 
stroke-linecap:round; stroke-linejoin:round;">
<text x="10.1092" y="40.8813"
textLength="2.6827" font-size="1.6933" lengthAdjust="spacingAndGlyphs"
text-anchor="start" opacity="0" stroke-opacity="0">D9</text>
<g class="stroked-text"><desc>D9</desc>
<path d="M10.5117 40.8258
L10.5117 39.5558
" />
<path d="M10.5117 39.5558
L10.8141 39.5558
" />
<path d="M10.8141 39.5558
L10.9955 39.6163
" />
<path d="M10.9955 39.6163
L11.1165 39.7373
" />
<path d="M11.1165 39.7373
L11.1770 39.8582
" />
<path d="M11.1770 39.8582
L11.2374 40.1001
" />
<path d="M11.2374 40.1001
L11.2374 40.2815
" />
<path d="M11.2374 40.2815
L11.1770 40.5234
" />
<path d="M11.1770 40.5234
L11.1165 40.6444
" />
<path d="M11.1165 40.6444
L10.9955 40.7654
" />
<path d="M10.9955 40.7654
L10.8141 40.8258
" />
<path d="M10.8141 40.8258
L10.5117 40.8258
" />
<path d="M11.8422 40.8258
L12.0841 40.8258
" />
<path d="M12.0841 40.8258
L12.2051 40.7654
" />
<path d="M12.2051 40.7654
L12.2655 40.7049
" />
<path d="M12.2655 40.7049
L12.3865 40.5234
" />
<path d="M12.3865 40.5234
L12.4470 40.2815
" />
<path d="M12.4470 40.2815
L12.4470 39.7977
" />
<path d="M12.4470 39.7977
L12.3865 39.6768
" />
<path d="M12.3865 39.6768
L12.3260 39.6163
" />
<path d="M12.3260 39.6163
L12.2051 39.5558
" />
<path d="M12.2051 39.5558
L11.9632 39.5558
" />
<path d="M11.9632 39.5558
L11.8422 39.6163
" />
<path d="M11.8422 39.6163
L11.7817 39.6768
" />
<path d="M11.7817 39.6768
L11.7213 39.7977
" />
<path d="M11.7213 39.7977
L11.7213 40.1001
" />
<path d="M11.7213 40.1001
L11.7817 40.2211
" />
<path d="M11.7817 40.2211
L11.8422 40.2815
" />
<path d="M11.8422 40.2815
L11.9632 40.3420
" />
<path d="M11.9632 40.3420
L12.2051 40.3420
" />
<path d="M12.2051 40.3420
L12.3260 40.2815
" />
<path d="M12.3260 40.2815
L12.3865 40.2211
" />
<path d="M12.3865 40.2211
L12.4470 40.1001
" />
</g></g>
<g style="fill:none; 
stroke:#A90000; stroke-width:0.1524; stroke-opacity:1; 
stroke-linecap:round; stroke-linejoin:round;">
<text x="6.5532" y="39.9923"
textLength="2.6222" font-size="1.6933" lengthAdjust="spacingAndGlyphs"
text-anchor="middle" opacity="0" stroke-opacity="0">12</text>
<g class="stroked-text"><desc>12</desc>
<path d="M6.3113 39.8288
L5.5856 39.8288
" />
<path d="M5.9484 39.8288
L5.9484 38.5588
" />
<path d="M5.9484 38.5588
L5.8275 38.7403
" />
<path d="M5.8275 38.7403
L5.7065 38.8612
" />
<path d="M5.7065 38.8612
L5.5856 38.9217
" />
<path d="M6.7951 38.6798
L6.8555 38.6193
" />
<path d="M6.8555 38.6193
L6.9765 38.5588
" />
<path d="M6.9765 38.5588
L7.2789 38.5588
" />
<path d="M7.2789 38.5588
L7.3998 38.6193
" />
<path d="M7.3998 38.6193
L7.4603 38.6798
" />
<path d="M7.4603 38.6798
L7.5208 38.8007
" />
<path d="M7.5208 38.8007
L7.5208 38.9217
" />
<path d="M7.5208 38.9217
L7.4603 39.1031
" />
<path d="M7.4603 39.1031
L6.7346 39.8288
" />
<path d="M6.7346 39.8288
L7.5208 39.8288
" />
</g></g>
<g style="fill:none; 
stroke:#840000; stroke-width:0.1524; stroke-opacity:1; 
stroke-linecap:round; stroke-linejoin:round;">
<path d="M34.4932 9.7663
L39.5732 9.7663
" />
</g>
<g style="fill:none; 
stroke:#006464; stroke-width:0.1524; stroke-opacity:1; 
stroke-linecap:round; stroke-linejoin:round;">
<text x="33.4772" y="10.4013"
textLength="3.0456" font-size="1.6933" lengthAdjust="spacingAndGlyphs"
text-anchor="end" opacity="0" stroke-opacity="0">D-</text>
<g class="stroked-text"><desc>D-</desc>
<path d="M30.8369 10.3458
L30.8369 9.0758
" />
<path d="M30.8369 9.0758
L31.1393 9.0758
" />
<path d="M31.1393 9.0758
L31.3207 9.1363
" />
<path d="M31.3207 9.1363
L31.4417 9.2573
" />
<path d="M31.4417 9.2573
L31.5022 9.3782
" />
<path d="M31.5022 9.3782
L31.5626 9.6201
" />
<path d="M31.5626 9.6201
L31.5626 9.8015
" />
<path d="M31.5626 9.8015
L31.5022 10.0434
" />
<path d="M31.5022 10.0434
L31.4417 10.1644
" />
<path d="M31.4417 10.1644
L31.3207 10.2854
" />
<path d="M31.3207 10.2854
L31.1393 10.3458
" />
<path d="M31.1393 10.3458
L30.8369 10.3458
" />
<path d="M32.1069 9.8620
L33.0746 9.8620
" />
</g></g>
<g style="fill:none; 
stroke:#A90000; stroke-width:0.1524; stroke-opacity:1; 
stroke-linecap:round; stroke-linejoin:round;">
<text x="37.0332" y="9.5123"
textLength="2.6222" font-size="1.6933" lengthAdjust="spacingAndGlyphs"
text-anchor="middle" opacity="0" stroke-opacity="0">25</text>
<g class="stroked-text"><desc>25</desc>
<path d="M36.0656 8.1998
L36.1260 8.1393
" />
<path d="M36.1260 8.1393
L36.2470 8.0788
" />
<path d="M36.2470 8.0788
L36.5494 8.0788
" />
<path d="M36.5494 8.0788
L36.6703 8.1393
" />
<path d="M36.6703 8.1393
L36.7308 8.1998
" />
<path d="M36.7308 8.1998
L36.7913 8.3207
" />
<path d="M36.7913 8.3207
L36.7913 8.4417
" />
<path d="M36.7913 8.4417
L36.7308 8.6231
" />
<path d="M36.7308 8.6231
L36.0051 9.3488
" />
<path d="M36.0051 9.3488
L36.7913 9.3488
" />
<path d="M37.9403 8.0788
L37.3355 8.0788
" />
<path d="M37.3355 8.0788
L37.2751 8.6836
" />
<path d="M37.2751 8.6836
L37.3355 8.6231
" />
<path d="M37.3355 8.6231
L37.4565 8.5626
" />
<path d="M37.4565 8.5626
L37.7589 8.5626
" />
<path d="M37.7589 8.5626
L37.8798 8.6231
" />
<path d="M37.8798 8.6231
L37.9403 8.6836
" />
<path d="M37.9403 8.6836
L38.0008 8.8045
" />
<path d="M38.0008 8.8045
L38.0008 9.1069
" />
<path d="M38.0008 9.1069
L37.9403 9.2279
" />
<path d="M37.9403 9.2279
L37.8798 9.2884
" />
<path d="M37.8798 9.2884
L37.7589 9.3488
" />
<path d="M37.7589 9.3488
L37.4565 9.3488
" />
<path d="M37.4565 9.3488
L37.3355 9.2884
" />
<path d="M37.3355 9.2884
L37.2751 9.2279
" />
</g></g>
<g style="fill:none; 
stroke:#840000; stroke-width:0.1524; stroke-opacity:1; 
stroke-linecap:round; stroke-linejoin:round;">
<path d="M34.4932 12.3063
L39.5732 12.3063
" />
</g>
<g style="fill:none; 
stroke:#006464; stroke-width:0.1524; stroke-opacity:1; 
stroke-linecap:round; stroke-linejoin:round;">
<text x="33.4772" y="12.9413"
textLength="4.0132" font-size="1.6933" lengthAdjust="spacingAndGlyphs"
text-anchor="end" opacity="0" stroke-opacity="0">RAW</text>
<g class="stroked-text"><desc>RAW</desc>
<path d="M30.5950 12.8858
L30.1717 12.2811
" />
<path d="M29.8693 12.8858
L29.8693 11.6158
" />
<path d="M29.8693 11.6158
L30.3531 11.6158
" />
<path d="M30.3531 11.6158
L30.4741 11.6763
" />
<path d="M30.4741 11.6763
L30.5346 11.7368
" />
<path d="M30.5346 11.7368
L30.5950 11.8577
" />
<path d="M30.5950 11.8577
L30.5950 12.0392
" />
<path d="M30.5950 12.0392
L30.5346 12.1601
" />
<path d="M30.5346 12.1601
L30.4741 12.2206
" />
<path d="M30.4741 12.2206
L30.3531 12.2811
" />
<path d="M30.3531 12.2811
L29.8693 12.2811
" />
<path d="M31.0789 12.5230
L31.6836 12.5230
" />
<path d="M30.9579 12.8858
L31.3812 11.6158
" />
<path d="M31.3812 11.6158
L31.8046 12.8858
" />
<path d="M32.1070 11.6158
L32.4094 12.8858
" />
<path d="M32.4094 12.8858
L32.6513 11.9787
" />
<path d="M32.6513 11.9787
L32.8932 12.8858
" />
<path d="M32.8932 12.8858
L33.1956 11.6158
" />
</g></g>
<g style="fill:none; 
stroke:#A90000; stroke-width:0.1524; stroke-opacity:1; 
stroke-linecap:round; stroke-linejoin:round;">
<text x="37.0332" y="12.0523"
textLength="2.6222" font-size="1.6933" lengthAdjust="spacingAndGlyphs"
text-anchor="middle" opacity="0" stroke-opacity="0">24</text>
<g class="stroked-text"><desc>24</desc>
<path d="M36.0656 10.7398
L36.1260 10.6793
" />
<path d="M36.1260 10.6793
L36.2470 10.6188
" />
<path d="M36.2470 10.6188
L36.5494 10.6188
" />
<path d="M36.5494 10.6188
L36.6703 10.6793
" />
<path d="M36.6703 10.6793
L36.7308 10.7398
" />
<path d="M36.7308 10.7398
L36.7913 10.8607
" />
<path d="M36.7913 10.8607
L36.7913 10.9817
" />
<path d="M36.7913 10.9817
L36.7308 11.1631
" />
<path d="M36.7308 11.1631
L36.0051 11.8888
" />
<path d="M36.0051 11.8888
L36.7913 11.8888
" />
<path d="M37.8798 11.0422
L37.8798 11.8888
" />
<path d="M37.5774 10.5584
L37.2751 11.4655
" />
<path d="M37.2751 11.4655
L38.0612 11.4655
" />
</g></g>
<g style="fill:none; 
stroke:#840000; stroke-width:0.1524; stroke-opacity:1; 
stroke-linecap:round; stroke-linejoin:round;">
<path d="M34.4932 14.8463
L39.5732 14.8463
" />
</g>
<g style="fill:none; 
stroke:#006464; stroke-width:0.1524; stroke-opacity:1; 
stroke-linecap:round; stroke-linejoin:round;">
<text x="33.4772" y="15.4813"
textLength="4.0737" font-size="1.6933" lengthAdjust="spacingAndGlyphs"
text-anchor="end" opacity="0" stroke-opacity="0">GND</text>
<g class="stroked-text"><desc>GND</desc>
<path d="M30.4741 14.2163
L30.3531 14.1558
" />
<path d="M30.3531 14.1558
L30.1717 14.1558
" />
<path d="M30.1717 14.1558
L29.9903 14.2163
" />
<path d="M29.9903 14.2163
L29.8693 14.3373
" />
<path d="M29.8693 14.3373
L29.8088 14.4582
" />
<path d="M29.8088 14.4582
L29.7484 14.7001
" />
<path d="M29.7484 14.7001
L29.7484 14.8815
" />
<path d="M29.7484 14.8815
L29.8088 15.1234
" />
<path d="M29.8088 15.1234
L29.8693 15.2444
" />
<path d="M29.8693 15.2444
L29.9903 15.3654
" />
<path d="M29.9903 15.3654
L30.1717 15.4258
" />
<path d="M30.1717 15.4258
L30.2926 15.4258
" />
<path d="M30.2926 15.4258
L30.4741 15.3654
" />
<path d="M30.4741 15.3654
L30.5345 15.3049
" />
<path d="M30.5345 15.3049
L30.5345 14.8815
" />
<path d="M30.5345 14.8815
L30.2926 14.8815
" />
<path d="M31.0788 15.4258
L31.0788 14.1558
" />
<path d="M31.0788 14.1558
L31.8045 15.4258
" />
<path d="M31.8045 15.4258
L31.8045 14.1558
" />
<path d="M32.4093 15.4258
L32.4093 14.1558
" />
<path d="M32.4093 14.1558
L32.7117 14.1558
" />
<path d="M32.7117 14.1558
L32.8931 14.2163
" />
<path d="M32.8931 14.2163
L33.0141 14.3373
" />
<path d="M33.0141 14.3373
L33.0746 14.4582
" />
<path d="M33.0746 14.4582
L33.1350 14.7001
" />
<path d="M33.1350 14.7001
L33.1350 14.8815
" />
<path d="M33.1350 14.8815
L33.0746 15.1234
" />
<path d="M33.0746 15.1234
L33.0141 15.2444
" />
<path d="M33.0141 15.2444
L32.8931 15.3654
" />
<path d="M32.8931 15.3654
L32.7117 15.4258
" />
<path d="M32.7117 15.4258
L32.4093 15.4258
" />
</g></g>
<g style="fill:none; 
stroke:#A90000; stroke-width:0.1524; stroke-opacity:1; 
stroke-linecap:round; stroke-linejoin:round;">
<text x="37.0332" y="14.5923"
textLength="2.6222" font-size="1.6933" lengthAdjust="spacingAndGlyphs"
text-anchor="middle" opacity="0" stroke-opacity="0">23</text>
<g class="stroked-text"><desc>23</desc>
<path d="M36.0656 13.2798
L36.1260 13.2193
" />
<path d="M36.1260 13.2193
L36.2470 13.1588
" />
<path d="M36.2470 13.1588
L36.5494 13.1588
" />
<path d="M36.5494 13.1588
L36.6703 13.2193
" />
<path d="M36.6703 13.2193
L36.7308 13.2798
" />
<path d="M36.7308 13.2798
L36.7913 13.4007
" />
<path d="M36.7913 13.4007
L36.7913 13.5217
" />
<path d="M36.7913 13.5217
L36.7308 13.7031
" />
<path d="M36.7308 13.7031
L36.0051 14.4288
" />
<path d="M36.0051 14.4288
L36.7913 14.4288
" />
<path d="M37.2146 13.1588
L38.0008 13.1588
" />
<path d="M38.0008 13.1588
L37.5774 13.6426
" />
<path d="M37.5774 13.6426
L37.7589 13.6426
" />
<path d="M37.7589 13.6426
L37.8798 13.7031
" />
<path d="M37.8798 13.7031
L37.9403 13.7636
" />
<path d="M37.9403 13.7636
L38.0008 13.8845
" />
<path d="M38.0008 13.8845
L38.0008 14.1869
" />
<path d="M38.0008 14.1869
L37.9403 14.3079
" />
<path d="M37.9403 14.3079
L37.8798 14.3684
" />
<path d="M37.8798 14.3684
L37.7589 14.4288
" />
<path d="M37.7589 14.4288
L37.3960 14.4288
" />
<path d="M37.3960 14.4288
L37.2751 14.3684
" />
<path d="M37.2751 14.3684
L37.2146 14.3079
" />
</g></g>
<g style="fill:none; 
stroke:#840000; stroke-width:0.1524; stroke-opacity:1; 
stroke-linecap:round; stroke-linejoin:round;">
<path d="M34.4932 17.3863
L39.5732 17.3863
" />
</g>
<g style="fill:none; 
stroke:#006464; stroke-width:0.1524; stroke-opacity:1; 
stroke-linecap:round; stroke-linejoin:round;">
<text x="33.4772" y="18.0213"
textLength="3.6503" font-size="1.6933" lengthAdjust="spacingAndGlyphs"
text-anchor="end" opacity="0" stroke-opacity="0">RST</text>
<g class="stroked-text"><desc>RST</desc>
<path d="M30.9579 17.9658
L30.5346 17.3611
" />
<path d="M30.2322 17.9658
L30.2322 16.6958
" />
<path d="M30.2322 16.6958
L30.7160 16.6958
" />
<path d="M30.7160 16.6958
L30.8370 16.7563
" />
<path d="M30.8370 16.7563
L30.8975 16.8168
" />
<path d="M30.8975 16.8168
L30.9579 16.9377
" />
<path d="M30.9579 16.9377
L30.9579 17.1192
" />
<path d="M30.9579 17.1192
L30.8975 17.2401
" />
<path d="M30.8975 17.2401
L30.8370 17.3006
" />
<path d="M30.8370 17.3006
L30.7160 17.3611
" />
<path d="M30.7160 17.3611
L30.2322 17.3611
" />
<path d="M31.4418 17.9054
L31.6232 17.9658
" />
<path d="M31.6232 17.9658
L31.9256 17.9658
" />
<path d="M31.9256 17.9658
L32.0465 17.9054
" />
<path d="M32.0465 17.9054
L32.1070 17.8449
" />
<path d="M32.1070 17.8449
L32.1675 17.7239
" />
<path d="M32.1675 17.7239
L32.1675 17.6030
" />
<path d="M32.1675 17.6030
L32.1070 17.4820
" />
<path d="M32.1070 17.4820
L32.0465 17.4215
" />
<path d="M32.0465 17.4215
L31.9256 17.3611
" />
<path d="M31.9256 17.3611
L31.6837 17.3006
" />
<path d="M31.6837 17.3006
L31.5627 17.2401
" />
<path d="M31.5627 17.2401
L31.5022 17.1796
" />
<path d="M31.5022 17.1796
L31.4418 17.0587
" />
<path d="M31.4418 17.0587
L31.4418 16.9377
" />
<path d="M31.4418 16.9377
L31.5022 16.8168
" />
<path d="M31.5022 16.8168
L31.5627 16.7563
" />
<path d="M31.5627 16.7563
L31.6837 16.6958
" />
<path d="M31.6837 16.6958
L31.9860 16.6958
" />
<path d="M31.9860 16.6958
L32.1675 16.7563
" />
<path d="M32.5303 16.6958
L33.2560 16.6958
" />
<path d="M32.8932 17.9658
L32.8932 16.6958
" />
</g></g>
<g style="fill:none; 
stroke:#A90000; stroke-width:0.1524; stroke-opacity:1; 
stroke-linecap:round; stroke-linejoin:round;">
<text x="37.0332" y="17.1323"
textLength="2.6222" font-size="1.6933" lengthAdjust="spacingAndGlyphs"
text-anchor="middle" opacity="0" stroke-opacity="0">22</text>
<g class="stroked-text"><desc>22</desc>
<path d="M36.0656 15.8198
L36.1260 15.7593
" />
<path d="M36.1260 15.7593
L36.2470 15.6988
" />
<path d="M36.2470 15.6988
L36.5494 15.6988
" />
<path d="M36.5494 15.6988
L36.6703 15.7593
" />
<path d="M36.6703 15.7593
L36.7308 15.8198
" />
<path d="M36.7308 15.8198
L36.7913 15.9407
" />
<path d="M36.7913 15.9407
L36.7913 16.0617
" />
<path d="M36.7913 16.0617
L36.7308 16.2431
" />
<path d="M36.7308 16.2431
L36.0051 16.9688
" />
<path d="M36.0051 16.9688
L36.7913 16.9688
" />
<path d="M37.2751 15.8198
L37.3355 15.7593
" />
<path d="M37.3355 15.7593
L37.4565 15.6988
" />
<path d="M37.4565 15.6988
L37.7589 15.6988
" />
<path d="M37.7589 15.6988
L37.8798 15.7593
" />
<path d="M37.8798 15.7593
L37.9403 15.8198
" />
<path d="M37.9403 15.8198
L38.0008 15.9407
" />
<path d="M38.0008 15.9407
L38.0008 16.0617
" />
<path d="M38.0008 16.0617
L37.9403 16.2431
" />
<path d="M37.9403 16.2431
L37.2146 16.9688
" />
<path d="M37.2146 16.9688
L38.0008 16.9688
" />
</g></g>
<g style="fill:none; 
stroke:#840000; stroke-width:0.1524; stroke-opacity:1; 
stroke-linecap:round; stroke-linejoin:round;">
<path d="M34.4932 19.9263
L39.5732 19.9263
" />
</g>
<g style="fill:none; 
stroke:#006464; stroke-width:0.1524; stroke-opacity:1; 
stroke-linecap:round; stroke-linejoin:round;">
<text x="33.4772" y="20.5613"
textLength="3.7108" font-size="1.6933" lengthAdjust="spacingAndGlyphs"
text-anchor="end" opacity="0" stroke-opacity="0">3V3</text>
<g class="stroked-text"><desc>3V3</desc>
<path d="M30.0508 19.2358
L30.8370 19.2358
" />
<path d="M30.8370 19.2358
L30.4136 19.7196
" />
<path d="M30.4136 19.7196
L30.5951 19.7196
" />
<path d="M30.5951 19.7196
L30.7160 19.7801
" />
<path d="M30.7160 19.7801
L30.7765 19.8406
" />
<path d="M30.7765 19.8406
L30.8370 19.9615
" />
<path d="M30.8370 19.9615
L30.8370 20.2639
" />
<path d="M30.8370 20.2639
L30.7765 20.3849
" />
<path d="M30.7765 20.3849
L30.7160 20.4454
" />
<path d="M30.7160 20.4454
L30.5951 20.5058
" />
<path d="M30.5951 20.5058
L30.2322 20.5058
" />
<path d="M30.2322 20.5058
L30.1113 20.4454
" />
<path d="M30.1113 20.4454
L30.0508 20.3849
" />
<path d="M31.1998 19.2358
L31.6231 20.5058
" />
<path d="M31.6231 20.5058
L32.0465 19.2358
" />
<path d="M32.3489 19.2358
L33.1351 19.2358
" />
<path d="M33.1351 19.2358
L32.7117 19.7196
" />
<path d="M32.7117 19.7196
L32.8932 19.7196
" />
<path d="M32.8932 19.7196
L33.0141 19.7801
" />
<path d="M33.0141 19.7801
L33.0746 19.8406
" />
<path d="M33.0746 19.8406
L33.1351 19.9615
" />
<path d="M33.1351 19.9615
L33.1351 20.2639
" />
<path d="M33.1351 20.2639
L33.0746 20.3849
" />
<path d="M33.0746 20.3849
L33.0141 20.4454
" />
<path d="M33.0141 20.4454
L32.8932 20.5058
" />
<path d="M32.8932 20.5058
L32.5303 20.5058
" />
<path d="M32.5303 20.5058
L32.4094 20.4454
" />
<path d="M32.4094 20.4454
L32.3489 20.3849
" />
</g></g>
<g style="fill:none; 
stroke:#A90000; stroke-width:0.1524; stroke-opacity:1; 
stroke-linecap:round; stroke-linejoin:round;">
<text x="37.0332" y="19.6723"
textLength="2.6222" font-size="1.6933" lengthAdjust="spacingAndGlyphs"
text-anchor="middle" opacity="0" stroke-opacity="0">21</text>
<g class="stroked-text"><desc>21</desc>
<path d="M36.0656 18.3598
L36.1260 18.2993
" />
<path d="M36.1260 18.2993
L36.2470 18.2388
" />
<path d="M36.2470 18.2388
L36.5494 18.2388
" />
<path d="M36.5494 18.2388
L36.6703 18.2993
" />
<path d="M36.6703 18.2993
L36.7308 18.3598
" />
<path d="M36.7308 18.3598
L36.7913 18.4807
" />
<path d="M36.7913 18.4807
L36.7913 18.6017
" />
<path d="M36.7913 18.6017
L36.7308 18.7831
" />
<path d="M36.7308 18.7831
L36.0051 19.5088
" />
<path d="M36.0051 19.5088
L36.7913 19.5088
" />
<path d="M38.0008 19.5088
L37.2751 19.5088
" />
<path d="M37.6379 19.5088
L37.6379 18.2388
" />
<path d="M37.6379 18.2388
L37.5170 18.4203
" />
<path d="M37.5170 18.4203
L37.3960 18.5412
" />
<path d="M37.3960 18.5412
L37.2751 18.6017
" />
</g></g>
<g style="fill:none; 
stroke:#840000; stroke-width:0.1524; stroke-opacity:1; 
stroke-linecap:round; stroke-linejoin:round;">
<path d="M34.4932 22.4663
L39.5732 22.4663
" />
</g>
<g style="fill:none; 
stroke:#006464; stroke-width:0.1524; stroke-opacity:1; 
stroke-linecap:round; stroke-linejoin:round;">
<text x="33.4772" y="23.1013"
textLength="2.5013" font-size="1.6933" lengthAdjust="spacingAndGlyphs"
text-anchor="end" opacity="0" stroke-opacity="0">A3</text>
<g class="stroked-text"><desc>A3</desc>
<path d="M31.3208 22.6830
L31.9255 22.6830
" />
<path d="M31.1998 23.0458
L31.6231 21.7758
" />
<path d="M31.6231 21.7758
L32.0465 23.0458
" />
<path d="M32.3489 21.7758
L33.1351 21.7758
" />
<path d="M33.1351 21.7758
L32.7117 22.2596
" />
<path d="M32.7117 22.2596
L32.8932 22.2596
" />
<path d="M32.8932 22.2596
L33.0141 22.3201
" />
<path d="M33.0141 22.3201
L33.0746 22.3806
" />
<path d="M33.0746 22.3806
L33.1351 22.5015
" />
<path d="M33.1351 22.5015
L33.1351 22.8039
" />
<path d="M33.1351 22.8039
L33.0746 22.9249
" />
<path d="M33.0746 22.9249
L33.0141 22.9854
" />
<path d="M33.0141 22.9854
L32.8932 23.0458
" />
<path d="M32.8932 23.0458
L32.5303 23.0458
" />
<path d="M32.5303 23.0458
L32.4094 22.9854
" />
<path d="M32.4094 22.9854
L32.3489 22.9249
" />
</g></g>
<g style="fill:none; 
stroke:#A90000; stroke-width:0.1524; stroke-opacity:1; 
stroke-linecap:round; stroke-linejoin:round;">
<text x="37.0332" y="22.2123"
textLength="2.6222" font-size="1.6933" lengthAdjust="spacingAndGlyphs"
text-anchor="middle" opacity="0" stroke-opacity="0">20</text>
<g class="stroked-text"><desc>20</desc>
<path d="M36.0656 20.8998
L36.1260 20.8393
" />
<path d="M36.1260 20.8393
L36.2470 20.7788
" />
<path d="M36.2470 20.7788
L36.5494 20.7788
" />
<path d="M36.5494 20.7788
L36.6703 20.8393
" />
<path d="M36.6703 20.8393
L36.7308 20.8998
" />
<path d="M36.7308 20.8998
L36.7913 21.0207
" />
<path d="M36.7913 21.0207
L36.7913 21.1417
" />
<path d="M36.7913 21.1417
L36.7308 21.3231
" />
<path d="M36.7308 21.3231
L36.0051 22.0488
" />
<path d="M36.0051 22.0488
L36.7913 22.0488
" />
<path d="M37.5774 20.7788
L37.6984 20.7788
" />
<path d="M37.6984 20.7788
L37.8193 20.8393
" />
<path d="M37.8193 20.8393
L37.8798 20.8998
" />
<path d="M37.8798 20.8998
L37.9403 21.0207
" />
<path d="M37.9403 21.0207
L38.0008 21.2626
" />
<path d="M38.0008 21.2626
L38.0008 21.5650
" />
<path d="M38.0008 21.5650
L37.9403 21.8069
" />
<path d="M37.9403 21.8069
L37.8798 21.9279
" />
<path d="M37.8798 21.9279
L37.8193 21.9884
" />
<path d="M37.8193 21.9884
L37.6984 22.0488
" />
<path d="M37.6984 22.0488
L37.5774 22.0488
" />
<path d="M37.5774 22.0488
L37.4565 21.9884
" />
<path d="M37.4565 21.9884
L37.3960 21.9279
" />
<path d="M37.3960 21.9279
L37.3355 21.8069
" />
<path d="M37.3355 21.8069
L37.2751 21.5650
" />
<path d="M37.2751 21.5650
L37.2751 21.2626
" />
<path d="M37.2751 21.2626
L37.3355 21.0207
" />
<path d="M37.3355 21.0207
L37.3960 20.8998
" />
<path d="M37.3960 20.8998
L37.4565 20.8393
" />
<path d="M37.4565 20.8393
L37.5774 20.7788
" />
</g></g>
<g style="fill:none; 
stroke:#840000; stroke-width:0.1524; stroke-opacity:1; 
stroke-linecap:round; stroke-linejoin:round;">
<path d="M34.4932 25.0063
L39.5732 25.0063
" />
</g>
<g style="fill:none; 
stroke:#006464; stroke-width:0.1524; stroke-opacity:1; 
stroke-linecap:round; stroke-linejoin:round;">
<text x="33.4772" y="25.6413"
textLength="2.5013" font-size="1.6933" lengthAdjust="spacingAndGlyphs"
text-anchor="end" opacity="0" stroke-opacity="0">A2</text>
<g class="stroked-text"><desc>A2</desc>
<path d="M31.3208 25.2230
L31.9255 25.2230
" />
<path d="M31.1998 25.5858
L31.6231 24.3158
" />
<path d="M31.6231 24.3158
L32.0465 25.5858
" />
<path d="M32.4094 24.4368
L32.4698 24.3763
" />
<path d="M32.4698 24.3763
L32.5908 24.3158
" />
<path d="M32.5908 24.3158
L32.8932 24.3158
" />
<path d="M32.8932 24.3158
L33.0141 24.3763
" />
<path d="M33.0141 24.3763
L33.0746 24.4368
" />
<path d="M33.0746 24.4368
L33.1351 24.5577
" />
<path d="M33.1351 24.5577
L33.1351 24.6787
" />
<path d="M33.1351 24.6787
L33.0746 24.8601
" />
<path d="M33.0746 24.8601
L32.3489 25.5858
" />
<path d="M32.3489 25.5858
L33.1351 25.5858
" />
</g></g>
<g style="fill:none; 
stroke:#A90000; stroke-width:0.1524; stroke-opacity:1; 
stroke-linecap:round; stroke-linejoin:round;">
<text x="37.0332" y="24.7523"
textLength="2.6222" font-size="1.6933" lengthAdjust="spacingAndGlyphs"
text-anchor="middle" opacity="0" stroke-opacity="0">19</text>
<g class="stroked-text"><desc>19</desc>
<path d="M36.7913 24.5888
L36.0656 24.5888
" />
<path d="M36.4284 24.5888
L36.4284 23.3188
" />
<path d="M36.4284 23.3188
L36.3075 23.5003
" />
<path d="M36.3075 23.5003
L36.1865 23.6212
" />
<path d="M36.1865 23.6212
L36.0656 23.6817
" />
<path d="M37.3960 24.5888
L37.6379 24.5888
" />
<path d="M37.6379 24.5888
L37.7589 24.5284
" />
<path d="M37.7589 24.5284
L37.8193 24.4679
" />
<path d="M37.8193 24.4679
L37.9403 24.2864
" />
<path d="M37.9403 24.2864
L38.0008 24.0445
" />
<path d="M38.0008 24.0445
L38.0008 23.5607
" />
<path d="M38.0008 23.5607
L37.9403 23.4398
" />
<path d="M37.9403 23.4398
L37.8798 23.3793
" />
<path d="M37.8798 23.3793
L37.7589 23.3188
" />
<path d="M37.7589 23.3188
L37.5170 23.3188
" />
<path d="M37.5170 23.3188
L37.3960 23.3793
" />
<path d="M37.3960 23.3793
L37.3355 23.4398
" />
<path d="M37.3355 23.4398
L37.2751 23.5607
" />
<path d="M37.2751 23.5607
L37.2751 23.8631
" />
<path d="M37.2751 23.8631
L37.3355 23.9841
" />
<path d="M37.3355 23.9841
L37.3960 24.0445
" />
<path d="M37.3960 24.0445
L37.5170 24.1050
" />
<path d="M37.5170 24.1050
L37.7589 24.1050
" />
<path d="M37.7589 24.1050
L37.8798 24.0445
" />
<path d="M37.8798 24.0445
L37.9403 23.9841
" />
<path d="M37.9403 23.9841
L38.0008 23.8631
" />
</g></g>
<g style="fill:none; 
stroke:#840000; stroke-width:0.1524; stroke-opacity:1; 
stroke-linecap:round; stroke-linejoin:round;">
<path d="M34.4932 27.5463
L39.5732 27.5463
" />
</g>
<g style="fill:none; 
stroke:#006464; stroke-width:0.1524; stroke-opacity:1; 
stroke-linecap:round; stroke-linejoin:round;">
<text x="33.4772" y="28.1813"
textLength="2.5013" font-size="1.6933" lengthAdjust="spacingAndGlyphs"
text-anchor="end" opacity="0" stroke-opacity="0">A1</text>
<g class="stroked-text"><desc>A1</desc>
<path d="M31.3208 27.7630
L31.9255 27.7630
" />
<path d="M31.1998 28.1258
L31.6231 26.8558
" />
<path d="M31.6231 26.8558
L32.0465 28.1258
" />
<path d="M33.1351 28.1258
L32.4094 28.1258
" />
<path d="M32.7722 28.1258
L32.7722 26.8558
" />
<path d="M32.7722 26.8558
L32.6513 27.0373
" />
<path d="M32.6513 27.0373
L32.5303 27.1582
" />
<path d="M32.5303 27.1582
L32.4094 27.2187
" />
</g></g>
<g style="fill:none; 
stroke:#A90000; stroke-width:0.1524; stroke-opacity:1; 
stroke-linecap:round; stroke-linejoin:round;">
<text x="37.0332" y="27.2923"
textLength="2.6222" font-size="1.6933" lengthAdjust="spacingAndGlyphs"
text-anchor="middle" opacity="0" stroke-opacity="0">18</text>
<g class="stroked-text"><desc>18</desc>
<path d="M36.7913 27.1288
L36.0656 27.1288
" />
<path d="M36.4284 27.1288
L36.4284 25.8588
" />
<path d="M36.4284 25.8588
L36.3075 26.0403
" />
<path d="M36.3075 26.0403
L36.1865 26.1612
" />
<path d="M36.1865 26.1612
L36.0656 26.2217
" />
<path d="M37.5170 26.4031
L37.3960 26.3426
" />
<path d="M37.3960 26.3426
L37.3355 26.2822
" />
<path d="M37.3355 26.2822
L37.2751 26.1612
" />
<path d="M37.2751 26.1612
L37.2751 26.1007
" />
<path d="M37.2751 26.1007
L37.3355 25.9798
" />
<path d="M37.3355 25.9798
L37.3960 25.9193
" />
<path d="M37.3960 25.9193
L37.5170 25.8588
" />
<path d="M37.5170 25.8588
L37.7589 25.8588
" />
<path d="M37.7589 25.8588
L37.8798 25.9193
" />
<path d="M37.8798 25.9193
L37.9403 25.9798
" />
<path d="M37.9403 25.9798
L38.0008 26.1007
" />
<path d="M38.0008 26.1007
L38.0008 26.1612
" />
<path d="M38.0008 26.1612
L37.9403 26.2822
" />
<path d="M37.9403 26.2822
L37.8798 26.3426
" />
<path d="M37.8798 26.3426
L37.7589 26.4031
" />
<path d="M37.7589 26.4031
L37.5170 26.4031
" />
<path d="M37.5170 26.4031
L37.3960 26.4636
" />
<path d="M37.3960 26.4636
L37.3355 26.5241
" />
<path d="M37.3355 26.5241
L37.2751 26.6450
" />
<path d="M37.2751 26.6450
L37.2751 26.8869
" />
<path d="M37.2751 26.8869
L37.3355 27.0079
" />
<path d="M37.3355 27.0079
L37.3960 27.0684
" />
<path d="M37.3960 27.0684
L37.5170 27.1288
" />
<path d="M37.5170 27.1288
L37.7589 27.1288
" />
<path d="M37.7589 27.1288
L37.8798 27.0684
" />
<path d="M37.8798 27.0684
L37.9403 27.0079
" />
<path d="M37.9403 27.0079
L38.0008 26.8869
" />
<path d="M38.0008 26.8869
L38.0008 26.6450
" />
<path d="M38.0008 26.6450
L37.9403 26.5241
" />
<path d="M37.9403 26.5241
L37.8798 26.4636
" />
<path d="M37.8798 26.4636
L37.7589 26.4031
" />
</g></g>
<g style="fill:none; 
stroke:#840000; stroke-width:0.1524; stroke-opacity:1; 
stroke-linecap:round; stroke-linejoin:round;">
<path d="M34.4932 30.0863
L39.5732 30.0863
" />
</g>
<g style="fill:none; 
stroke:#006464; stroke-width:0.1524; stroke-opacity:1; 
stroke-linecap:round; stroke-linejoin:round;">
<text x="33.4772" y="30.7213"
textLength="2.5013" font-size="1.6933" lengthAdjust="spacingAndGlyphs"
text-anchor="end" opacity="0" stroke-opacity="0">A0</text>
<g class="stroked-text"><desc>A0</desc>
<path d="M31.3208 30.3030
L31.9255 30.3030
" />
<path d="M31.1998 30.6658
L31.6231 29.3958
" />
<path d="M31.6231 29.3958
L32.0465 30.6658
" />
<path d="M32.7117 29.3958
L32.8327 29.3958
" />
<path d="M32.8327 29.3958
L32.9536 29.4563
" />
<path d="M32.9536 29.4563
L33.0141 29.5168
" />
<path d="M33.0141 29.5168
L33.0746 29.6377
" />
<path d="M33.0746 29.6377
L33.1351 29.8796
" />
<path d="M33.1351 29.8796
L33.1351 30.1820
" />
<path d="M33.1351 30.1820
L33.0746 30.4239
" />
<path d="M33.0746 30.4239
L33.0141 30.5449
" />
<path d="M33.0141 30.5449
L32.9536 30.6054
" />
<path d="M32.9536 30.6054
L32.8327 30.6658
" />
<path d="M32.8327 30.6658
L32.7117 30.6658
" />
<path d="M32.7117 30.6658
L32.5908 30.6054
" />
<path d="M32.5908 30.6054
L32.5303 30.5449
" />
<path d="M32.5303 30.5449
L32.4698 30.4239
" />
<path d="M32.4698 30.4239
L32.4094 30.1820
" />
<path d="M32.4094 30.1820
L32.4094 29.8796
" />
<path d="M32.4094 29.8796
L32.4698 29.6377
" />
<path d="M32.4698 29.6377
L32.5303 29.5168
" />
<path d="M32.5303 29.5168
L32.5908 29.4563
" />
<path d="M32.5908 29.4563
L32.7117 29.3958
" />
</g></g>
<g style="fill:none; 
stroke:#A90000; stroke-width:0.1524; stroke-opacity:1; 
stroke-linecap:round; stroke-linejoin:round;">
<text x="37.0332" y="29.8323"
textLength="2.6222" font-size="1.6933" lengthAdjust="spacingAndGlyphs"
text-anchor="middle" opacity="0" stroke-opacity="0">17</text>
<g class="stroked-text"><desc>17</desc>
<path d="M36.7913 29.6688
L36.0656 29.6688
" />
<path d="M36.4284 29.6688
L36.4284 28.3988
" />
<path d="M36.4284 28.3988
L36.3075 28.5803
" />
<path d="M36.3075 28.5803
L36.1865 28.7012
" />
<path d="M36.1865 28.7012
L36.0656 28.7617
" />
<path d="M37.2146 28.3988
L38.0612 28.3988
" />
<path d="M38.0612 28.3988
L37.5170 29.6688
" />
</g></g>
<g style="fill:none; 
stroke:#840000; stroke-width:0.1524; stroke-opacity:1; 
stroke-linecap:round; stroke-linejoin:round;">
<path d="M34.4932 32.6263
L39.5732 32.6263
" />
</g>
<g style="fill:none; 
stroke:#006464; stroke-width:0.1524; stroke-opacity:1; 
stroke-linecap:round; stroke-linejoin:round;">
<text x="33.4772" y="33.2613"
textLength="3.7713" font-size="1.6933" lengthAdjust="spacingAndGlyphs"
text-anchor="end" opacity="0" stroke-opacity="0">CLK</text>
<g class="stroked-text"><desc>CLK</desc>
<path d="M30.8369 33.0849
L30.7765 33.1454
" />
<path d="M30.7765 33.1454
L30.5950 33.2058
" />
<path d="M30.5950 33.2058
L30.4741 33.2058
" />
<path d="M30.4741 33.2058
L30.2927 33.1454
" />
<path d="M30.2927 33.1454
L30.1717 33.0244
" />
<path d="M30.1717 33.0244
L30.1112 32.9034
" />
<path d="M30.1112 32.9034
L30.0508 32.6615
" />
<path d="M30.0508 32.6615
L30.0508 32.4801
" />
<path d="M30.0508 32.4801
L30.1112 32.2382
" />
<path d="M30.1112 32.2382
L30.1717 32.1173
" />
<path d="M30.1717 32.1173
L30.2927 31.9963
" />
<path d="M30.2927 31.9963
L30.4741 31.9358
" />
<path d="M30.4741 31.9358
L30.5950 31.9358
" />
<path d="M30.5950 31.9358
L30.7765 31.9963
" />
<path d="M30.7765 31.9963
L30.8369 32.0568
" />
<path d="M31.9860 33.2058
L31.3812 33.2058
" />
<path d="M31.3812 33.2058
L31.3812 31.9358
" />
<path d="M32.4093 33.2058
L32.4093 31.9358
" />
<path d="M33.1350 33.2058
L32.5908 32.4801
" />
<path d="M33.1350 31.9358
L32.4093 32.6615
" />
</g></g>
<g style="fill:none; 
stroke:#A90000; stroke-width:0.1524; stroke-opacity:1; 
stroke-linecap:round; stroke-linejoin:round;">
<text x="37.0332" y="32.3723"
textLength="2.6222" font-size="1.6933" lengthAdjust="spacingAndGlyphs"
text-anchor="middle" opacity="0" stroke-opacity="0">16</text>
<g class="stroked-text"><desc>16</desc>
<path d="M36.7913 32.2088
L36.0656 32.2088
" />
<path d="M36.4284 32.2088
L36.4284 30.9388
" />
<path d="M36.4284 30.9388
L36.3075 31.1203
" />
<path d="M36.3075 31.1203
L36.1865 31.2412
" />
<path d="M36.1865 31.2412
L36.0656 31.3017
" />
<path d="M37.8798 30.9388
L37.6379 30.9388
" />
<path d="M37.6379 30.9388
L37.5170 30.9993
" />
<path d="M37.5170 30.9993
L37.4565 31.0598
" />
<path d="M37.4565 31.0598
L37.3355 31.2412
" />
<path d="M37.3355 31.2412
L37.2751 31.4831
" />
<path d="M37.2751 31.4831
L37.2751 31.9669
" />
<path d="M37.2751 31.9669
L37.3355 32.0879
" />
<path d="M37.3355 32.0879
L37.3960 32.1484
" />
<path d="M37.3960 32.1484
L37.5170 32.2088
" />
<path d="M37.5170 32.2088
L37.7589 32.2088
" />
<path d="M37.7589 32.2088
L37.8798 32.1484
" />
<path d="M37.8798 32.1484
L37.9403 32.0879
" />
<path d="M37.9403 32.0879
L38.0008 31.9669
" />
<path d="M38.0008 31.9669
L38.0008 31.6645
" />
<path d="M38.0008 31.6645
L37.9403 31.5436
" />
<path d="M37.9403 31.5436
L37.8798 31.4831
" />
<path d="M37.8798 31.4831
L37.7589 31.4226
" />
<path d="M37.7589 31.4226
L37.5170 31.4226
" />
<path d="M37.5170 31.4226
L37.3960 31.4831
" />
<path d="M37.3960 31.4831
L37.3355 31.5436
" />
<path d="M37.3355 31.5436
L37.2751 31.6645
" />
</g></g>
<g style="fill:none; 
stroke:#840000; stroke-width:0.1524; stroke-opacity:1; 
stroke-linecap:round; stroke-linejoin:round;">
<path d="M34.4932 35.1663
L39.5732 35.1663
" />
</g>
<g style="fill:none; 
stroke:#006464; stroke-width:0.1524; stroke-opacity:1; 
stroke-linecap:round; stroke-linejoin:round;">
<text x="33.4772" y="35.8013"
textLength="4.7994" font-size="1.6933" lengthAdjust="spacingAndGlyphs"
text-anchor="end" opacity="0" stroke-opacity="0">MISO</text>
<g class="stroked-text"><desc>MISO</desc>
<path d="M29.0831 35.7458
L29.0831 34.4758
" />
<path d="M29.0831 34.4758
L29.5065 35.3830
" />
<path d="M29.5065 35.3830
L29.9298 34.4758
" />
<path d="M29.9298 34.4758
L29.9298 35.7458
" />
<path d="M30.5345 35.7458
L30.5345 34.4758
" />
<path d="M31.0789 35.6854
L31.2603 35.7458
" />
<path d="M31.2603 35.7458
L31.5627 35.7458
" />
<path d="M31.5627 35.7458
L31.6836 35.6854
" />
<path d="M31.6836 35.6854
L31.7441 35.6249
" />
<path d="M31.7441 35.6249
L31.8046 35.5039
" />
<path d="M31.8046 35.5039
L31.8046 35.3830
" />
<path d="M31.8046 35.3830
L31.7441 35.2620
" />
<path d="M31.7441 35.2620
L31.6836 35.2015
" />
<path d="M31.6836 35.2015
L31.5627 35.1411
" />
<path d="M31.5627 35.1411
L31.3208 35.0806
" />
<path d="M31.3208 35.0806
L31.1998 35.0201
" />
<path d="M31.1998 35.0201
L31.1393 34.9596
" />
<path d="M31.1393 34.9596
L31.0789 34.8387
" />
<path d="M31.0789 34.8387
L31.0789 34.7177
" />
<path d="M31.0789 34.7177
L31.1393 34.5968
" />
<path d="M31.1393 34.5968
L31.1998 34.5363
" />
<path d="M31.1998 34.5363
L31.3208 34.4758
" />
<path d="M31.3208 34.4758
L31.6231 34.4758
" />
<path d="M31.6231 34.4758
L31.8046 34.5363
" />
<path d="M32.5907 34.4758
L32.8326 34.4758
" />
<path d="M32.8326 34.4758
L32.9536 34.5363
" />
<path d="M32.9536 34.5363
L33.0745 34.6573
" />
<path d="M33.0745 34.6573
L33.1350 34.8992
" />
<path d="M33.1350 34.8992
L33.1350 35.3225
" />
<path d="M33.1350 35.3225
L33.0745 35.5644
" />
<path d="M33.0745 35.5644
L32.9536 35.6854
" />
<path d="M32.9536 35.6854
L32.8326 35.7458
" />
<path d="M32.8326 35.7458
L32.5907 35.7458
" />
<path d="M32.5907 35.7458
L32.4698 35.6854
" />
<path d="M32.4698 35.6854
L32.3488 35.5644
" />
<path d="M32.3488 35.5644
L32.2884 35.3225
" />
<path d="M32.2884 35.3225
L32.2884 34.8992
" />
<path d="M32.2884 34.8992
L32.3488 34.6573
" />
<path d="M32.3488 34.6573
L32.4698 34.5363
" />
<path d="M32.4698 34.5363
L32.5907 34.4758
" />
</g></g>
<g style="fill:none; 
stroke:#A90000; stroke-width:0.1524; stroke-opacity:1; 
stroke-linecap:round; stroke-linejoin:round;">
<text x="37.0332" y="34.9123"
textLength="2.6222" font-size="1.6933" lengthAdjust="spacingAndGlyphs"
text-anchor="middle" opacity="0" stroke-opacity="0">15</text>
<g class="stroked-text"><desc>15</desc>
<path d="M36.7913 34.7488
L36.0656 34.7488
" />
<path d="M36.4284 34.7488
L36.4284 33.4788
" />
<path d="M36.4284 33.4788
L36.3075 33.6603
" />
<path d="M36.3075 33.6603
L36.1865 33.7812
" />
<path d="M36.1865 33.7812
L36.0656 33.8417
" />
<path d="M37.9403 33.4788
L37.3355 33.4788
" />
<path d="M37.3355 33.4788
L37.2751 34.0836
" />
<path d="M37.2751 34.0836
L37.3355 34.0231
" />
<path d="M37.3355 34.0231
L37.4565 33.9626
" />
<path d="M37.4565 33.9626
L37.7589 33.9626
" />
<path d="M37.7589 33.9626
L37.8798 34.0231
" />
<path d="M37.8798 34.0231
L37.9403 34.0836
" />
<path d="M37.9403 34.0836
L38.0008 34.2045
" />
<path d="M38.0008 34.2045
L38.0008 34.5069
" />
<path d="M38.0008 34.5069
L37.9403 34.6279
" />
<path d="M37.9403 34.6279
L37.8798 34.6884
" />
<path d="M37.8798 34.6884
L37.7589 34.7488
" />
<path d="M37.7589 34.7488
L37.4565 34.7488
" />
<path d="M37.4565 34.7488
L37.3355 34.6884
" />
<path d="M37.3355 34.6884
L37.2751 34.6279
" />
</g></g>
<g style="fill:none; 
stroke:#840000; stroke-width:0.1524; stroke-opacity:1; 
stroke-linecap:round; stroke-linejoin:round;">
<path d="M34.4932 37.7063
L39.5732 37.7063
" />
</g>
<g style="fill:none; 
stroke:#006464; stroke-width:0.1524; stroke-opacity:1; 
stroke-linecap:round; stroke-linejoin:round;">
<text x="33.4772" y="38.3413"
textLength="4.7994" font-size="1.6933" lengthAdjust="spacingAndGlyphs"
text-anchor="end" opacity="0" stroke-opacity="0">MOSI</text>
<g class="stroked-text"><desc>MOSI</desc>
<path d="M29.0831 38.2858
L29.0831 37.0158
" />
<path d="M29.0831 37.0158
L29.5065 37.9230
" />
<path d="M29.5065 37.9230
L29.9298 37.0158
" />
<path d="M29.9298 37.0158
L29.9298 38.2858
" />
<path d="M30.7764 37.0158
L31.0183 37.0158
" />
<path d="M31.0183 37.0158
L31.1393 37.0763
" />
<path d="M31.1393 37.0763
L31.2602 37.1973
" />
<path d="M31.2602 37.1973
L31.3207 37.4392
" />
<path d="M31.3207 37.4392
L31.3207 37.8625
" />
<path d="M31.3207 37.8625
L31.2602 38.1044
" />
<path d="M31.2602 38.1044
L31.1393 38.2254
" />
<path d="M31.1393 38.2254
L31.0183 38.2858
" />
<path d="M31.0183 38.2858
L30.7764 38.2858
" />
<path d="M30.7764 38.2858
L30.6555 38.2254
" />
<path d="M30.6555 38.2254
L30.5345 38.1044
" />
<path d="M30.5345 38.1044
L30.4741 37.8625
" />
<path d="M30.4741 37.8625
L30.4741 37.4392
" />
<path d="M30.4741 37.4392
L30.5345 37.1973
" />
<path d="M30.5345 37.1973
L30.6555 37.0763
" />
<path d="M30.6555 37.0763
L30.7764 37.0158
" />
<path d="M31.8046 38.2254
L31.9860 38.2858
" />
<path d="M31.9860 38.2858
L32.2884 38.2858
" />
<path d="M32.2884 38.2858
L32.4093 38.2254
" />
<path d="M32.4093 38.2254
L32.4698 38.1649
" />
<path d="M32.4698 38.1649
L32.5303 38.0439
" />
<path d="M32.5303 38.0439
L32.5303 37.9230
" />
<path d="M32.5303 37.9230
L32.4698 37.8020
" />
<path d="M32.4698 37.8020
L32.4093 37.7415
" />
<path d="M32.4093 37.7415
L32.2884 37.6811
" />
<path d="M32.2884 37.6811
L32.0465 37.6206
" />
<path d="M32.0465 37.6206
L31.9255 37.5601
" />
<path d="M31.9255 37.5601
L31.8650 37.4996
" />
<path d="M31.8650 37.4996
L31.8046 37.3787
" />
<path d="M31.8046 37.3787
L31.8046 37.2577
" />
<path d="M31.8046 37.2577
L31.8650 37.1368
" />
<path d="M31.8650 37.1368
L31.9255 37.0763
" />
<path d="M31.9255 37.0763
L32.0465 37.0158
" />
<path d="M32.0465 37.0158
L32.3488 37.0158
" />
<path d="M32.3488 37.0158
L32.5303 37.0763
" />
<path d="M33.0745 38.2858
L33.0745 37.0158
" />
</g></g>
<g style="fill:none; 
stroke:#A90000; stroke-width:0.1524; stroke-opacity:1; 
stroke-linecap:round; stroke-linejoin:round;">
<text x="37.0332" y="37.4523"
textLength="2.6222" font-size="1.6933" lengthAdjust="spacingAndGlyphs"
text-anchor="middle" opacity="0" stroke-opacity="0">14</text>
<g class="stroked-text"><desc>14</desc>
<path d="M36.7913 37.2888
L36.0656 37.2888
" />
<path d="M36.4284 37.2888
L36.4284 36.0188
" />
<path d="M36.4284 36.0188
L36.3075 36.2003
" />
<path d="M36.3075 36.2003
L36.1865 36.3212
" />
<path d="M36.1865 36.3212
L36.0656 36.3817
" />
<path d="M37.8798 36.4422
L37.8798 37.2888
" />
<path d="M37.5774 35.9584
L37.2751 36.8655
" />
<path d="M37.2751 36.8655
L38.0612 36.8655
" />
</g></g>
<g style="fill:none; 
stroke:#840000; stroke-width:0.1524; stroke-opacity:1; 
stroke-linecap:round; stroke-linejoin:round;">
<path d="M34.4932 40.2463
L39.5732 40.2463
" />
</g>
<g style="fill:none; 
stroke:#006464; stroke-width:0.1524; stroke-opacity:1; 
stroke-linecap:round; stroke-linejoin:round;">
<text x="33.4772" y="40.8813"
textLength="3.8922" font-size="1.6933" lengthAdjust="spacingAndGlyphs"
text-anchor="end" opacity="0" stroke-opacity="0">D10</text>
<g class="stroked-text"><desc>D10</desc>
<path d="M29.9903 40.8258
L29.9903 39.5558
" />
<path d="M29.9903 39.5558
L30.2927 39.5558
" />
<path d="M30.2927 39.5558
L30.4741 39.6163
" />
<path d="M30.4741 39.6163
L30.5951 39.7373
" />
<path d="M30.5951 39.7373
L30.6556 39.8582
" />
<path d="M30.6556 39.8582
L30.7160 40.1001
" />
<path d="M30.7160 40.1001
L30.7160 40.2815
" />
<path d="M30.7160 40.2815
L30.6556 40.5234
" />
<path d="M30.6556 40.5234
L30.5951 40.6444
" />
<path d="M30.5951 40.6444
L30.4741 40.7654
" />
<path d="M30.4741 40.7654
L30.2927 40.8258
" />
<path d="M30.2927 40.8258
L29.9903 40.8258
" />
<path d="M31.9256 40.8258
L31.1999 40.8258
" />
<path d="M31.5627 40.8258
L31.5627 39.5558
" />
<path d="M31.5627 39.5558
L31.4418 39.7373
" />
<path d="M31.4418 39.7373
L31.3208 39.8582
" />
<path d="M31.3208 39.8582
L31.1999 39.9187
" />
<path d="M32.7117 39.5558
L32.8327 39.5558
" />
<path d="M32.8327 39.5558
L32.9536 39.6163
" />
<path d="M32.9536 39.6163
L33.0141 39.6768
" />
<path d="M33.0141 39.6768
L33.0746 39.7977
" />
<path d="M33.0746 39.7977
L33.1351 40.0396
" />
<path d="M33.1351 40.0396
L33.1351 40.3420
" />
<path d="M33.1351 40.3420
L33.0746 40.5839
" />
<path d="M33.0746 40.5839
L33.0141 40.7049
" />
<path d="M33.0141 40.7049
L32.9536 40.7654
" />
<path d="M32.9536 40.7654
L32.8327 40.8258
" />
<path d="M32.8327 40.8258
L32.7117 40.8258
" />
<path d="M32.7117 40.8258
L32.5908 40.7654
" />
<path d="M32.5908 40.7654
L32.5303 40.7049
" />
<path d="M32.5303 40.7049
L32.4698 40.5839
" />
<path d="M32.4698 40.5839
L32.4094 40.3420
" />
<path d="M32.4094 40.3420
L32.4094 40.0396
" />
<path d="M32.4094 40.0396
L32.4698 39.7977
" />
<path d="M32.4698 39.7977
L32.5303 39.6768
" />
<path d="M32.5303 39.6768
L32.5908 39.6163
" />
<path d="M32.5908 39.6163
L32.7117 39.5558
" />
</g></g>
<g style="fill:none; 
stroke:#A90000; stroke-width:0.1524; stroke-opacity:1; 
stroke-linecap:round; stroke-linejoin:round;">
<text x="37.0332" y="39.9923"
textLength="2.6222" font-size="1.6933" lengthAdjust="spacingAndGlyphs"
text-anchor="middle" opacity="0" stroke-opacity="0">13</text>
<g class="stroked-text"><desc>13</desc>
<path d="M36.7913 39.8288
L36.0656 39.8288
" />
<path d="M36.4284 39.8288
L36.4284 38.5588
" />
<path d="M36.4284 38.5588
L36.3075 38.7403
" />
<path d="M36.3075 38.7403
L36.1865 38.8612
" />
<path d="M36.1865 38.8612
L36.0656 38.9217
" />
<path d="M37.2146 38.5588
L38.0008 38.5588
" />
<path d="M38.0008 38.5588
L37.5774 39.0426
" />
<path d="M37.5774 39.0426
L37.7589 39.0426
" />
<path d="M37.7589 39.0426
L37.8798 39.1031
" />
<path d="M37.8798 39.1031
L37.9403 39.1636
" />
<path d="M37.9403 39.1636
L38.0008 39.2845
" />
<path d="M38.0008 39.2845
L38.0008 39.5869
" />
<path d="M38.0008 39.5869
L37.9403 39.7079
" />
<path d="M37.9403 39.7079
L37.8798 39.7684
" />
<path d="M37.8798 39.7684
L37.7589 39.8288
" />
<path d="M37.7589 39.8288
L37.3960 39.8288
" />
<path d="M37.3960 39.8288
L37.2751 39.7684
" />
<path d="M37.2751 39.7684
L37.2146 39.7079
" />
</g></g>
<g style="fill:none; 
stroke:#006464; stroke-width:0.1524; stroke-opacity:1; 
stroke-linecap:round; stroke-linejoin:round;">
<text x="0.0000" y="-19.1770"
textLength="2.6223" font-size="1.6933" lengthAdjust="spacingAndGlyphs"
text-anchor="middle" opacity="0" stroke-opacity="0">U?</text>
<g class="stroked-text"><desc>U?</desc>
<path d="M-0.9071 -20.5024
L-0.9071 -19.4743
" />
<path d="M-0.9071 -19.4743
L-0.8466 -19.3533
" />
<path d="M-0.8466 -19.3533
L-0.7861 -19.2929
" />
<path d="M-0.7861 -19.2929
L-0.6652 -19.2324
" />
<path d="M-0.6652 -19.2324
L-0.4233 -19.2324
" />
<path d="M-0.4233 -19.2324
L-0.3023 -19.2929
" />
<path d="M-0.3023 -19.2929
L-0.2418 -19.3533
" />
<path d="M-0.2418 -19.3533
L-0.1814 -19.4743
" />
<path d="M-0.1814 -19.4743
L-0.1814 -20.5024
" />
<path d="M0.6048 -19.3533
L0.6652 -19.2929
" />
<path d="M0.6652 -19.2929
L0.6048 -19.2324
" />
<path d="M0.6048 -19.2324
L0.5443 -19.2929
" />
<path d="M0.5443 -19.2929
L0.6048 -19.3533
" />
<path d="M0.6048 -19.3533
L0.6048 -19.2324
" />
<path d="M0.3629 -20.4419
L0.4838 -20.5024
" />
<path d="M0.4838 -20.5024
L0.7862 -20.5024
" />
<path d="M0.7862 -20.5024
L0.9071 -20.4419
" />
<path d="M0.9071 -20.4419
L0.9676 -20.3209
" />
<path d="M0.9676 -20.3209
L0.9676 -20.2000
" />
<path d="M0.9676 -20.2000
L0.9071 -20.0790
" />
<path d="M0.9071 -20.0790
L0.8467 -20.0186
" />
<path d="M0.8467 -20.0186
L0.7257 -19.9581
" />
<path d="M0.7257 -19.9581
L0.6652 -19.8976
" />
<path d="M0.6652 -19.8976
L0.6048 -19.7767
" />
<path d="M0.6048 -19.7767
L0.6048 -19.7162
" />
</g><text x="0.0000" y="20.4470"
textLength="7.5812" font-size="1.6933" lengthAdjust="spacingAndGlyphs"
text-anchor="middle" opacity="0" stroke-opacity="0">KB2040</text>
<g class="stroked-text"><desc>KB2040</desc>
<path d="M-3.3866 20.3915
L-3.3866 19.1215
" />
<path d="M-2.6609 20.3915
L-3.2051 19.6658
" />
<path d="M-2.6609 19.1215
L-3.3866 19.8472
" />
<path d="M-1.6932 19.7263
L-1.5118 19.7868
" />
<path d="M-1.5118 19.7868
L-1.4513 19.8472
" />
<path d="M-1.4513 19.8472
L-1.3909 19.9682
" />
<path d="M-1.3909 19.9682
L-1.3909 20.1496
" />
<path d="M-1.3909 20.1496
L-1.4513 20.2706
" />
<path d="M-1.4513 20.2706
L-1.5118 20.3311
" />
<path d="M-1.5118 20.3311
L-1.6328 20.3915
" />
<path d="M-1.6328 20.3915
L-2.1166 20.3915
" />
<path d="M-2.1166 20.3915
L-2.1166 19.1215
" />
<path d="M-2.1166 19.1215
L-1.6932 19.1215
" />
<path d="M-1.6932 19.1215
L-1.5723 19.1820
" />
<path d="M-1.5723 19.1820
L-1.5118 19.2425
" />
<path d="M-1.5118 19.2425
L-1.4513 19.3634
" />
<path d="M-1.4513 19.3634
L-1.4513 19.4844
" />
<path d="M-1.4513 19.4844
L-1.5118 19.6053
" />
<path d="M-1.5118 19.6053
L-1.5723 19.6658
" />
<path d="M-1.5723 19.6658
L-1.6932 19.7263
" />
<path d="M-1.6932 19.7263
L-2.1166 19.7263
" />
<path d="M-0.9070 19.2425
L-0.8466 19.1820
" />
<path d="M-0.8466 19.1820
L-0.7256 19.1215
" />
<path d="M-0.7256 19.1215
L-0.4232 19.1215
" />
<path d="M-0.4232 19.1215
L-0.3023 19.1820
" />
<path d="M-0.3023 19.1820
L-0.2418 19.2425
" />
<path d="M-0.2418 19.2425
L-0.1813 19.3634
" />
<path d="M-0.1813 19.3634
L-0.1813 19.4844
" />
<path d="M-0.1813 19.4844
L-0.2418 19.6658
" />
<path d="M-0.2418 19.6658
L-0.9675 20.3915
" />
<path d="M-0.9675 20.3915
L-0.1813 20.3915
" />
<path d="M0.6047 19.1215
L0.7257 19.1215
" />
<path d="M0.7257 19.1215
L0.8466 19.1820
" />
<path d="M0.8466 19.1820
L0.9071 19.2425
" />
<path d="M0.9071 19.2425
L0.9676 19.3634
" />
<path d="M0.9676 19.3634
L1.0281 19.6053
" />
<path d="M1.0281 19.6053
L1.0281 19.9077
" />
<path d="M1.0281 19.9077
L0.9676 20.1496
" />
<path d="M0.9676 20.1496
L0.9071 20.2706
" />
<path d="M0.9071 20.2706
L0.8466 20.3311
" />
<path d="M0.8466 20.3311
L0.7257 20.3915
" />
<path d="M0.7257 20.3915
L0.6047 20.3915
" />
<path d="M0.6047 20.3915
L0.4838 20.3311
" />
<path d="M0.4838 20.3311
L0.4233 20.2706
" />
<path d="M0.4233 20.2706
L0.3628 20.1496
" />
<path d="M0.3628 20.1496
L0.3024 19.9077
" />
<path d="M0.3024 19.9077
L0.3024 19.6053
" />
<path d="M0.3024 19.6053
L0.3628 19.3634
" />
<path d="M0.3628 19.3634
L0.4233 19.2425
" />
<path d="M0.4233 19.2425
L0.4838 19.1820
" />
<path d="M0.4838 19.1820
L0.6047 19.1215
" />
<path d="M2.1166 19.5449
L2.1166 20.3915
" />
<path d="M1.8142 19.0611
L1.5119 19.9682
" />
<path d="M1.5119 19.9682
L2.2980 19.9682
" />
<path d="M3.0237 19.1215
L3.1447 19.1215
" />
<path d="M3.1447 19.1215
L3.2656 19.1820
" />
<path d="M3.2656 19.1820
L3.3261 19.2425
" />
<path d="M3.3261 19.2425
L3.3866 19.3634
" />
<path d="M3.3866 19.3634
L3.4471 19.6053
" />
<path d="M3.4471 19.6053
L3.4471 19.9077
" />
<path d="M3.4471 19.9077
L3.3866 20.1496
" />
<path d="M3.3866 20.1496
L3.3261 20.2706
" />
<path d="M3.3261 20.2706
L3.2656 20.3311
" />
<path d="M3.2656 20.3311
L3.1447 20.3915
" />
<path d="M3.1447 20.3915
L3.0237 20.3915
" />
<path d="M3.0237 20.3915
L2.9028 20.3311
" />
<path d="M2.9028 20.3311
L2.8423 20.2706
" />
<path d="M2.8423 20.2706
L2.7818 20.1496
" />
<path d="M2.7818 20.1496
L2.7214 19.9077
" />
<path d="M2.7214 19.9077
L2.7214 19.6053
" />
<path d="M2.7214 19.6053
L2.7818 19.3634
" />
<path d="M2.7818 19.3634
L2.8423 19.2425
" />
<path d="M2.8423 19.2425
L2.9028 19.1820
" />
<path d="M2.9028 19.1820
L3.0237 19.1215
" />
</g></g> 
</svg>
