<?xml version="1.0" standalone="no"?>
 <!DOCTYPE svg PUBLIC "-//W3C//DTD SVG 1.1//EN" 
 "http://www.w3.org/Graphics/SVG/1.1/DTD/svg11.dtd"> 
<svg
  xmlns:svg="http://www.w3.org/2000/svg"
  xmlns="http://www.w3.org/2000/svg"
  xmlns:xlink="http://www.w3.org/1999/xlink"
  version="1.1"
  width="66.4464mm" height="51.7144mm" viewBox="0.0000 0.0000 66.4464 51.7144">
<title>SVG Image created as kb2040.svg date 2025/02/02 22:16:20 </title>
  <desc>Image generated by Eeschema-SVG </desc>
<g style="fill:#000000; fill-opacity:1.0000;stroke:#000000; stroke-opacity:1.0000;
stroke-linecap:round; stroke-linejoin:round;"
 transform="translate(0 0) scale(1 1)">
</g>
<g style="fill:#FFFFC2; fill-opacity:1.0000; stroke:none;">
<rect x="20.296400" y="8.077200" width="25.400000" height="35.560000" rx="0.000000" />
</g>
<g style="fill:none; 
stroke:#840000; stroke-width:0.1524; stroke-opacity:1; 
stroke-linecap:round; stroke-linejoin:round;">
<rect x="20.296400" y="8.077200" width="25.400000" height="35.560000" rx="0.000000" />
<path d="M20.2964 10.6172
L15.2164 10.6172
" />
</g>
<g style="fill:none; 
stroke:#006464; stroke-width:0.1524; stroke-opacity:1; 
stroke-linecap:round; stroke-linejoin:round;">
<text x="21.3124" y="11.2522"
textLength="3.0456" font-size="1.6933" lengthAdjust="spacingAndGlyphs"
text-anchor="start" opacity="0" stroke-opacity="0">D+</text>
<g class="stroked-text"><desc>D+</desc>
<path d="M21.7149 11.1967
L21.7149 9.9267
" />
<path d="M21.7149 9.9267
L22.0173 9.9267
" />
<path d="M22.0173 9.9267
L22.1987 9.9872
" />
<path d="M22.1987 9.9872
L22.3197 10.1082
" />
<path d="M22.3197 10.1082
L22.3802 10.2291
" />
<path d="M22.3802 10.2291
L22.4406 10.4710
" />
<path d="M22.4406 10.4710
L22.4406 10.6524
" />
<path d="M22.4406 10.6524
L22.3802 10.8943
" />
<path d="M22.3802 10.8943
L22.3197 11.0153
" />
<path d="M22.3197 11.0153
L22.1987 11.1363
" />
<path d="M22.1987 11.1363
L22.0173 11.1967
" />
<path d="M22.0173 11.1967
L21.7149 11.1967
" />
<path d="M22.9849 10.7129
L23.9526 10.7129
" />
<path d="M23.4687 11.1967
L23.4687 10.2291
" />
</g></g>
<g style="fill:none; 
stroke:#A90000; stroke-width:0.1524; stroke-opacity:1; 
stroke-linecap:round; stroke-linejoin:round;">
<text x="17.7564" y="10.3632"
textLength="1.4127" font-size="1.6933" lengthAdjust="spacingAndGlyphs"
text-anchor="middle" opacity="0" stroke-opacity="0">0</text>
<g class="stroked-text"><desc>0</desc>
<path d="M17.6959 8.9297
L17.8169 8.9297
" />
<path d="M17.8169 8.9297
L17.9378 8.9902
" />
<path d="M17.9378 8.9902
L17.9983 9.0507
" />
<path d="M17.9983 9.0507
L18.0588 9.1716
" />
<path d="M18.0588 9.1716
L18.1193 9.4135
" />
<path d="M18.1193 9.4135
L18.1193 9.7159
" />
<path d="M18.1193 9.7159
L18.0588 9.9578
" />
<path d="M18.0588 9.9578
L17.9983 10.0788
" />
<path d="M17.9983 10.0788
L17.9378 10.1393
" />
<path d="M17.9378 10.1393
L17.8169 10.1997
" />
<path d="M17.8169 10.1997
L17.6959 10.1997
" />
<path d="M17.6959 10.1997
L17.5750 10.1393
" />
<path d="M17.5750 10.1393
L17.5145 10.0788
" />
<path d="M17.5145 10.0788
L17.4540 9.9578
" />
<path d="M17.4540 9.9578
L17.3936 9.7159
" />
<path d="M17.3936 9.7159
L17.3936 9.4135
" />
<path d="M17.3936 9.4135
L17.4540 9.1716
" />
<path d="M17.4540 9.1716
L17.5145 9.0507
" />
<path d="M17.5145 9.0507
L17.5750 8.9902
" />
<path d="M17.5750 8.9902
L17.6959 8.9297
" />
</g></g>
<g style="fill:none; 
stroke:#840000; stroke-width:0.1524; stroke-opacity:1; 
stroke-linecap:round; stroke-linejoin:round;">
<path d="M20.2964 13.1572
L15.2164 13.1572
" />
</g>
<g style="fill:none; 
stroke:#006464; stroke-width:0.1524; stroke-opacity:1; 
stroke-linecap:round; stroke-linejoin:round;">
<text x="21.3124" y="13.7922"
textLength="2.3803" font-size="1.6933" lengthAdjust="spacingAndGlyphs"
text-anchor="start" opacity="0" stroke-opacity="0">TX</text>
<g class="stroked-text"><desc>TX</desc>
<path d="M21.5335 12.4667
L22.2592 12.4667
" />
<path d="M21.8964 13.7367
L21.8964 12.4667
" />
<path d="M22.5616 12.4667
L23.4082 13.7367
" />
<path d="M23.4082 12.4667
L22.5616 13.7367
" />
</g></g>
<g style="fill:none; 
stroke:#A90000; stroke-width:0.1524; stroke-opacity:1; 
stroke-linecap:round; stroke-linejoin:round;">
<text x="17.7564" y="12.9032"
textLength="1.4127" font-size="1.6933" lengthAdjust="spacingAndGlyphs"
text-anchor="middle" opacity="0" stroke-opacity="0">1</text>
<g class="stroked-text"><desc>1</desc>
<path d="M18.1193 12.7397
L17.3936 12.7397
" />
<path d="M17.7564 12.7397
L17.7564 11.4697
" />
<path d="M17.7564 11.4697
L17.6355 11.6512
" />
<path d="M17.6355 11.6512
L17.5145 11.7721
" />
<path d="M17.5145 11.7721
L17.3936 11.8326
" />
</g></g>
<g style="fill:none; 
stroke:#840000; stroke-width:0.1524; stroke-opacity:1; 
stroke-linecap:round; stroke-linejoin:round;">
<path d="M20.2964 36.0172
L15.2164 36.0172
" />
</g>
<g style="fill:none; 
stroke:#006464; stroke-width:0.1524; stroke-opacity:1; 
stroke-linecap:round; stroke-linejoin:round;">
<text x="21.3124" y="36.6522"
textLength="2.6827" font-size="1.6933" lengthAdjust="spacingAndGlyphs"
text-anchor="start" opacity="0" stroke-opacity="0">D7</text>
<g class="stroked-text"><desc>D7</desc>
<path d="M21.7149 36.5967
L21.7149 35.3267
" />
<path d="M21.7149 35.3267
L22.0173 35.3267
" />
<path d="M22.0173 35.3267
L22.1987 35.3872
" />
<path d="M22.1987 35.3872
L22.3197 35.5082
" />
<path d="M22.3197 35.5082
L22.3802 35.6291
" />
<path d="M22.3802 35.6291
L22.4406 35.8710
" />
<path d="M22.4406 35.8710
L22.4406 36.0524
" />
<path d="M22.4406 36.0524
L22.3802 36.2943
" />
<path d="M22.3802 36.2943
L22.3197 36.4153
" />
<path d="M22.3197 36.4153
L22.1987 36.5363
" />
<path d="M22.1987 36.5363
L22.0173 36.5967
" />
<path d="M22.0173 36.5967
L21.7149 36.5967
" />
<path d="M22.8640 35.3267
L23.7106 35.3267
" />
<path d="M23.7106 35.3267
L23.1664 36.5967
" />
</g></g>
<g style="fill:none; 
stroke:#A90000; stroke-width:0.1524; stroke-opacity:1; 
stroke-linecap:round; stroke-linejoin:round;">
<text x="17.7564" y="35.7632"
textLength="2.6222" font-size="1.6933" lengthAdjust="spacingAndGlyphs"
text-anchor="middle" opacity="0" stroke-opacity="0">10</text>
<g class="stroked-text"><desc>10</desc>
<path d="M17.5145 35.5997
L16.7888 35.5997
" />
<path d="M17.1516 35.5997
L17.1516 34.3297
" />
<path d="M17.1516 34.3297
L17.0307 34.5112
" />
<path d="M17.0307 34.5112
L16.9097 34.6321
" />
<path d="M16.9097 34.6321
L16.7888 34.6926
" />
<path d="M18.3006 34.3297
L18.4216 34.3297
" />
<path d="M18.4216 34.3297
L18.5425 34.3902
" />
<path d="M18.5425 34.3902
L18.6030 34.4507
" />
<path d="M18.6030 34.4507
L18.6635 34.5716
" />
<path d="M18.6635 34.5716
L18.7240 34.8135
" />
<path d="M18.7240 34.8135
L18.7240 35.1159
" />
<path d="M18.7240 35.1159
L18.6635 35.3578
" />
<path d="M18.6635 35.3578
L18.6030 35.4788
" />
<path d="M18.6030 35.4788
L18.5425 35.5393
" />
<path d="M18.5425 35.5393
L18.4216 35.5997
" />
<path d="M18.4216 35.5997
L18.3006 35.5997
" />
<path d="M18.3006 35.5997
L18.1797 35.5393
" />
<path d="M18.1797 35.5393
L18.1192 35.4788
" />
<path d="M18.1192 35.4788
L18.0587 35.3578
" />
<path d="M18.0587 35.3578
L17.9983 35.1159
" />
<path d="M17.9983 35.1159
L17.9983 34.8135
" />
<path d="M17.9983 34.8135
L18.0587 34.5716
" />
<path d="M18.0587 34.5716
L18.1192 34.4507
" />
<path d="M18.1192 34.4507
L18.1797 34.3902
" />
<path d="M18.1797 34.3902
L18.3006 34.3297
" />
</g></g>
<g style="fill:none; 
stroke:#840000; stroke-width:0.1524; stroke-opacity:1; 
stroke-linecap:round; stroke-linejoin:round;">
<path d="M20.2964 38.5572
L15.2164 38.5572
" />
</g>
<g style="fill:none; 
stroke:#006464; stroke-width:0.1524; stroke-opacity:1; 
stroke-linecap:round; stroke-linejoin:round;">
<text x="21.3124" y="39.1922"
textLength="2.6827" font-size="1.6933" lengthAdjust="spacingAndGlyphs"
text-anchor="start" opacity="0" stroke-opacity="0">D8</text>
<g class="stroked-text"><desc>D8</desc>
<path d="M21.7149 39.1367
L21.7149 37.8667
" />
<path d="M21.7149 37.8667
L22.0173 37.8667
" />
<path d="M22.0173 37.8667
L22.1987 37.9272
" />
<path d="M22.1987 37.9272
L22.3197 38.0482
" />
<path d="M22.3197 38.0482
L22.3802 38.1691
" />
<path d="M22.3802 38.1691
L22.4406 38.4110
" />
<path d="M22.4406 38.4110
L22.4406 38.5924
" />
<path d="M22.4406 38.5924
L22.3802 38.8343
" />
<path d="M22.3802 38.8343
L22.3197 38.9553
" />
<path d="M22.3197 38.9553
L22.1987 39.0763
" />
<path d="M22.1987 39.0763
L22.0173 39.1367
" />
<path d="M22.0173 39.1367
L21.7149 39.1367
" />
<path d="M23.1664 38.4110
L23.0454 38.3505
" />
<path d="M23.0454 38.3505
L22.9849 38.2901
" />
<path d="M22.9849 38.2901
L22.9245 38.1691
" />
<path d="M22.9245 38.1691
L22.9245 38.1086
" />
<path d="M22.9245 38.1086
L22.9849 37.9877
" />
<path d="M22.9849 37.9877
L23.0454 37.9272
" />
<path d="M23.0454 37.9272
L23.1664 37.8667
" />
<path d="M23.1664 37.8667
L23.4083 37.8667
" />
<path d="M23.4083 37.8667
L23.5292 37.9272
" />
<path d="M23.5292 37.9272
L23.5897 37.9877
" />
<path d="M23.5897 37.9877
L23.6502 38.1086
" />
<path d="M23.6502 38.1086
L23.6502 38.1691
" />
<path d="M23.6502 38.1691
L23.5897 38.2901
" />
<path d="M23.5897 38.2901
L23.5292 38.3505
" />
<path d="M23.5292 38.3505
L23.4083 38.4110
" />
<path d="M23.4083 38.4110
L23.1664 38.4110
" />
<path d="M23.1664 38.4110
L23.0454 38.4715
" />
<path d="M23.0454 38.4715
L22.9849 38.5320
" />
<path d="M22.9849 38.5320
L22.9245 38.6529
" />
<path d="M22.9245 38.6529
L22.9245 38.8948
" />
<path d="M22.9245 38.8948
L22.9849 39.0158
" />
<path d="M22.9849 39.0158
L23.0454 39.0763
" />
<path d="M23.0454 39.0763
L23.1664 39.1367
" />
<path d="M23.1664 39.1367
L23.4083 39.1367
" />
<path d="M23.4083 39.1367
L23.5292 39.0763
" />
<path d="M23.5292 39.0763
L23.5897 39.0158
" />
<path d="M23.5897 39.0158
L23.6502 38.8948
" />
<path d="M23.6502 38.8948
L23.6502 38.6529
" />
<path d="M23.6502 38.6529
L23.5897 38.5320
" />
<path d="M23.5897 38.5320
L23.5292 38.4715
" />
<path d="M23.5292 38.4715
L23.4083 38.4110
" />
</g></g>
<g style="fill:none; 
stroke:#A90000; stroke-width:0.1524; stroke-opacity:1; 
stroke-linecap:round; stroke-linejoin:round;">
<text x="17.7564" y="38.3032"
textLength="2.6222" font-size="1.6933" lengthAdjust="spacingAndGlyphs"
text-anchor="middle" opacity="0" stroke-opacity="0">11</text>
<g class="stroked-text"><desc>11</desc>
<path d="M17.5145 38.1397
L16.7888 38.1397
" />
<path d="M17.1516 38.1397
L17.1516 36.8697
" />
<path d="M17.1516 36.8697
L17.0307 37.0512
" />
<path d="M17.0307 37.0512
L16.9097 37.1721
" />
<path d="M16.9097 37.1721
L16.7888 37.2326
" />
<path d="M18.7240 38.1397
L17.9983 38.1397
" />
<path d="M18.3611 38.1397
L18.3611 36.8697
" />
<path d="M18.3611 36.8697
L18.2402 37.0512
" />
<path d="M18.2402 37.0512
L18.1192 37.1721
" />
<path d="M18.1192 37.1721
L17.9983 37.2326
" />
</g></g>
<g style="fill:none; 
stroke:#840000; stroke-width:0.1524; stroke-opacity:1; 
stroke-linecap:round; stroke-linejoin:round;">
<path d="M20.2964 41.0972
L15.2164 41.0972
" />
</g>
<g style="fill:none; 
stroke:#006464; stroke-width:0.1524; stroke-opacity:1; 
stroke-linecap:round; stroke-linejoin:round;">
<text x="21.3124" y="41.7322"
textLength="2.6827" font-size="1.6933" lengthAdjust="spacingAndGlyphs"
text-anchor="start" opacity="0" stroke-opacity="0">D9</text>
<g class="stroked-text"><desc>D9</desc>
<path d="M21.7149 41.6767
L21.7149 40.4067
" />
<path d="M21.7149 40.4067
L22.0173 40.4067
" />
<path d="M22.0173 40.4067
L22.1987 40.4672
" />
<path d="M22.1987 40.4672
L22.3197 40.5882
" />
<path d="M22.3197 40.5882
L22.3802 40.7091
" />
<path d="M22.3802 40.7091
L22.4406 40.9510
" />
<path d="M22.4406 40.9510
L22.4406 41.1324
" />
<path d="M22.4406 41.1324
L22.3802 41.3743
" />
<path d="M22.3802 41.3743
L22.3197 41.4953
" />
<path d="M22.3197 41.4953
L22.1987 41.6163
" />
<path d="M22.1987 41.6163
L22.0173 41.6767
" />
<path d="M22.0173 41.6767
L21.7149 41.6767
" />
<path d="M23.0454 41.6767
L23.2873 41.6767
" />
<path d="M23.2873 41.6767
L23.4083 41.6163
" />
<path d="M23.4083 41.6163
L23.4687 41.5558
" />
<path d="M23.4687 41.5558
L23.5897 41.3743
" />
<path d="M23.5897 41.3743
L23.6502 41.1324
" />
<path d="M23.6502 41.1324
L23.6502 40.6486
" />
<path d="M23.6502 40.6486
L23.5897 40.5277
" />
<path d="M23.5897 40.5277
L23.5292 40.4672
" />
<path d="M23.5292 40.4672
L23.4083 40.4067
" />
<path d="M23.4083 40.4067
L23.1664 40.4067
" />
<path d="M23.1664 40.4067
L23.0454 40.4672
" />
<path d="M23.0454 40.4672
L22.9849 40.5277
" />
<path d="M22.9849 40.5277
L22.9245 40.6486
" />
<path d="M22.9245 40.6486
L22.9245 40.9510
" />
<path d="M22.9245 40.9510
L22.9849 41.0720
" />
<path d="M22.9849 41.0720
L23.0454 41.1324
" />
<path d="M23.0454 41.1324
L23.1664 41.1929
" />
<path d="M23.1664 41.1929
L23.4083 41.1929
" />
<path d="M23.4083 41.1929
L23.5292 41.1324
" />
<path d="M23.5292 41.1324
L23.5897 41.0720
" />
<path d="M23.5897 41.0720
L23.6502 40.9510
" />
</g></g>
<g style="fill:none; 
stroke:#A90000; stroke-width:0.1524; stroke-opacity:1; 
stroke-linecap:round; stroke-linejoin:round;">
<text x="17.7564" y="40.8432"
textLength="2.6222" font-size="1.6933" lengthAdjust="spacingAndGlyphs"
text-anchor="middle" opacity="0" stroke-opacity="0">12</text>
<g class="stroked-text"><desc>12</desc>
<path d="M17.5145 40.6797
L16.7888 40.6797
" />
<path d="M17.1516 40.6797
L17.1516 39.4097
" />
<path d="M17.1516 39.4097
L17.0307 39.5912
" />
<path d="M17.0307 39.5912
L16.9097 39.7121
" />
<path d="M16.9097 39.7121
L16.7888 39.7726
" />
<path d="M17.9983 39.5307
L18.0587 39.4702
" />
<path d="M18.0587 39.4702
L18.1797 39.4097
" />
<path d="M18.1797 39.4097
L18.4821 39.4097
" />
<path d="M18.4821 39.4097
L18.6030 39.4702
" />
<path d="M18.6030 39.4702
L18.6635 39.5307
" />
<path d="M18.6635 39.5307
L18.7240 39.6516
" />
<path d="M18.7240 39.6516
L18.7240 39.7726
" />
<path d="M18.7240 39.7726
L18.6635 39.9540
" />
<path d="M18.6635 39.9540
L17.9378 40.6797
" />
<path d="M17.9378 40.6797
L18.7240 40.6797
" />
</g></g>
<g style="fill:none; 
stroke:#840000; stroke-width:0.1524; stroke-opacity:1; 
stroke-linecap:round; stroke-linejoin:round;">
<path d="M45.6964 41.0972
L50.7764 41.0972
" />
</g>
<g style="fill:none; 
stroke:#006464; stroke-width:0.1524; stroke-opacity:1; 
stroke-linecap:round; stroke-linejoin:round;">
<text x="44.6804" y="41.7322"
textLength="3.8922" font-size="1.6933" lengthAdjust="spacingAndGlyphs"
text-anchor="end" opacity="0" stroke-opacity="0">D10</text>
<g class="stroked-text"><desc>D10</desc>
<path d="M41.1935 41.6767
L41.1935 40.4067
" />
<path d="M41.1935 40.4067
L41.4959 40.4067
" />
<path d="M41.4959 40.4067
L41.6773 40.4672
" />
<path d="M41.6773 40.4672
L41.7983 40.5882
" />
<path d="M41.7983 40.5882
L41.8588 40.7091
" />
<path d="M41.8588 40.7091
L41.9192 40.9510
" />
<path d="M41.9192 40.9510
L41.9192 41.1324
" />
<path d="M41.9192 41.1324
L41.8588 41.3743
" />
<path d="M41.8588 41.3743
L41.7983 41.4953
" />
<path d="M41.7983 41.4953
L41.6773 41.6163
" />
<path d="M41.6773 41.6163
L41.4959 41.6767
" />
<path d="M41.4959 41.6767
L41.1935 41.6767
" />
<path d="M43.1288 41.6767
L42.4031 41.6767
" />
<path d="M42.7659 41.6767
L42.7659 40.4067
" />
<path d="M42.7659 40.4067
L42.6450 40.5882
" />
<path d="M42.6450 40.5882
L42.5240 40.7091
" />
<path d="M42.5240 40.7091
L42.4031 40.7696
" />
<path d="M43.9149 40.4067
L44.0359 40.4067
" />
<path d="M44.0359 40.4067
L44.1568 40.4672
" />
<path d="M44.1568 40.4672
L44.2173 40.5277
" />
<path d="M44.2173 40.5277
L44.2778 40.6486
" />
<path d="M44.2778 40.6486
L44.3383 40.8905
" />
<path d="M44.3383 40.8905
L44.3383 41.1929
" />
<path d="M44.3383 41.1929
L44.2778 41.4348
" />
<path d="M44.2778 41.4348
L44.2173 41.5558
" />
<path d="M44.2173 41.5558
L44.1568 41.6163
" />
<path d="M44.1568 41.6163
L44.0359 41.6767
" />
<path d="M44.0359 41.6767
L43.9149 41.6767
" />
<path d="M43.9149 41.6767
L43.7940 41.6163
" />
<path d="M43.7940 41.6163
L43.7335 41.5558
" />
<path d="M43.7335 41.5558
L43.6730 41.4348
" />
<path d="M43.6730 41.4348
L43.6126 41.1929
" />
<path d="M43.6126 41.1929
L43.6126 40.8905
" />
<path d="M43.6126 40.8905
L43.6730 40.6486
" />
<path d="M43.6730 40.6486
L43.7335 40.5277
" />
<path d="M43.7335 40.5277
L43.7940 40.4672
" />
<path d="M43.7940 40.4672
L43.9149 40.4067
" />
</g></g>
<g style="fill:none; 
stroke:#A90000; stroke-width:0.1524; stroke-opacity:1; 
stroke-linecap:round; stroke-linejoin:round;">
<text x="48.2364" y="40.8432"
textLength="2.6222" font-size="1.6933" lengthAdjust="spacingAndGlyphs"
text-anchor="middle" opacity="0" stroke-opacity="0">13</text>
<g class="stroked-text"><desc>13</desc>
<path d="M47.9945 40.6797
L47.2688 40.6797
" />
<path d="M47.6316 40.6797
L47.6316 39.4097
" />
<path d="M47.6316 39.4097
L47.5107 39.5912
" />
<path d="M47.5107 39.5912
L47.3897 39.7121
" />
<path d="M47.3897 39.7121
L47.2688 39.7726
" />
<path d="M48.4178 39.4097
L49.2040 39.4097
" />
<path d="M49.2040 39.4097
L48.7806 39.8935
" />
<path d="M48.7806 39.8935
L48.9621 39.8935
" />
<path d="M48.9621 39.8935
L49.0830 39.9540
" />
<path d="M49.0830 39.9540
L49.1435 40.0145
" />
<path d="M49.1435 40.0145
L49.2040 40.1354
" />
<path d="M49.2040 40.1354
L49.2040 40.4378
" />
<path d="M49.2040 40.4378
L49.1435 40.5588
" />
<path d="M49.1435 40.5588
L49.0830 40.6193
" />
<path d="M49.0830 40.6193
L48.9621 40.6797
" />
<path d="M48.9621 40.6797
L48.5992 40.6797
" />
<path d="M48.5992 40.6797
L48.4783 40.6193
" />
<path d="M48.4783 40.6193
L48.4178 40.5588
" />
</g></g>
<g style="fill:none; 
stroke:#840000; stroke-width:0.1524; stroke-opacity:1; 
stroke-linecap:round; stroke-linejoin:round;">
<path d="M45.6964 38.5572
L50.7764 38.5572
" />
</g>
<g style="fill:none; 
stroke:#006464; stroke-width:0.1524; stroke-opacity:1; 
stroke-linecap:round; stroke-linejoin:round;">
<text x="44.6804" y="39.1922"
textLength="4.7994" font-size="1.6933" lengthAdjust="spacingAndGlyphs"
text-anchor="end" opacity="0" stroke-opacity="0">MOSI</text>
<g class="stroked-text"><desc>MOSI</desc>
<path d="M40.2863 39.1367
L40.2863 37.8667
" />
<path d="M40.2863 37.8667
L40.7097 38.7739
" />
<path d="M40.7097 38.7739
L41.1330 37.8667
" />
<path d="M41.1330 37.8667
L41.1330 39.1367
" />
<path d="M41.9796 37.8667
L42.2215 37.8667
" />
<path d="M42.2215 37.8667
L42.3425 37.9272
" />
<path d="M42.3425 37.9272
L42.4634 38.0482
" />
<path d="M42.4634 38.0482
L42.5239 38.2901
" />
<path d="M42.5239 38.2901
L42.5239 38.7134
" />
<path d="M42.5239 38.7134
L42.4634 38.9553
" />
<path d="M42.4634 38.9553
L42.3425 39.0763
" />
<path d="M42.3425 39.0763
L42.2215 39.1367
" />
<path d="M42.2215 39.1367
L41.9796 39.1367
" />
<path d="M41.9796 39.1367
L41.8587 39.0763
" />
<path d="M41.8587 39.0763
L41.7377 38.9553
" />
<path d="M41.7377 38.9553
L41.6773 38.7134
" />
<path d="M41.6773 38.7134
L41.6773 38.2901
" />
<path d="M41.6773 38.2901
L41.7377 38.0482
" />
<path d="M41.7377 38.0482
L41.8587 37.9272
" />
<path d="M41.8587 37.9272
L41.9796 37.8667
" />
<path d="M43.0078 39.0763
L43.1892 39.1367
" />
<path d="M43.1892 39.1367
L43.4916 39.1367
" />
<path d="M43.4916 39.1367
L43.6125 39.0763
" />
<path d="M43.6125 39.0763
L43.6730 39.0158
" />
<path d="M43.6730 39.0158
L43.7335 38.8948
" />
<path d="M43.7335 38.8948
L43.7335 38.7739
" />
<path d="M43.7335 38.7739
L43.6730 38.6529
" />
<path d="M43.6730 38.6529
L43.6125 38.5924
" />
<path d="M43.6125 38.5924
L43.4916 38.5320
" />
<path d="M43.4916 38.5320
L43.2497 38.4715
" />
<path d="M43.2497 38.4715
L43.1287 38.4110
" />
<path d="M43.1287 38.4110
L43.0682 38.3505
" />
<path d="M43.0682 38.3505
L43.0078 38.2296
" />
<path d="M43.0078 38.2296
L43.0078 38.1086
" />
<path d="M43.0078 38.1086
L43.0682 37.9877
" />
<path d="M43.0682 37.9877
L43.1287 37.9272
" />
<path d="M43.1287 37.9272
L43.2497 37.8667
" />
<path d="M43.2497 37.8667
L43.5520 37.8667
" />
<path d="M43.5520 37.8667
L43.7335 37.9272
" />
<path d="M44.2777 39.1367
L44.2777 37.8667
" />
</g></g>
<g style="fill:none; 
stroke:#A90000; stroke-width:0.1524; stroke-opacity:1; 
stroke-linecap:round; stroke-linejoin:round;">
<text x="48.2364" y="38.3032"
textLength="2.6222" font-size="1.6933" lengthAdjust="spacingAndGlyphs"
text-anchor="middle" opacity="0" stroke-opacity="0">14</text>
<g class="stroked-text"><desc>14</desc>
<path d="M47.9945 38.1397
L47.2688 38.1397
" />
<path d="M47.6316 38.1397
L47.6316 36.8697
" />
<path d="M47.6316 36.8697
L47.5107 37.0512
" />
<path d="M47.5107 37.0512
L47.3897 37.1721
" />
<path d="M47.3897 37.1721
L47.2688 37.2326
" />
<path d="M49.0830 37.2931
L49.0830 38.1397
" />
<path d="M48.7806 36.8093
L48.4783 37.7164
" />
<path d="M48.4783 37.7164
L49.2644 37.7164
" />
</g></g>
<g style="fill:none; 
stroke:#840000; stroke-width:0.1524; stroke-opacity:1; 
stroke-linecap:round; stroke-linejoin:round;">
<path d="M45.6964 36.0172
L50.7764 36.0172
" />
</g>
<g style="fill:none; 
stroke:#006464; stroke-width:0.1524; stroke-opacity:1; 
stroke-linecap:round; stroke-linejoin:round;">
<text x="44.6804" y="36.6522"
textLength="4.7994" font-size="1.6933" lengthAdjust="spacingAndGlyphs"
text-anchor="end" opacity="0" stroke-opacity="0">MISO</text>
<g class="stroked-text"><desc>MISO</desc>
<path d="M40.2863 36.5967
L40.2863 35.3267
" />
<path d="M40.2863 35.3267
L40.7097 36.2339
" />
<path d="M40.7097 36.2339
L41.1330 35.3267
" />
<path d="M41.1330 35.3267
L41.1330 36.5967
" />
<path d="M41.7377 36.5967
L41.7377 35.3267
" />
<path d="M42.2821 36.5363
L42.4635 36.5967
" />
<path d="M42.4635 36.5967
L42.7659 36.5967
" />
<path d="M42.7659 36.5967
L42.8868 36.5363
" />
<path d="M42.8868 36.5363
L42.9473 36.4758
" />
<path d="M42.9473 36.4758
L43.0078 36.3548
" />
<path d="M43.0078 36.3548
L43.0078 36.2339
" />
<path d="M43.0078 36.2339
L42.9473 36.1129
" />
<path d="M42.9473 36.1129
L42.8868 36.0524
" />
<path d="M42.8868 36.0524
L42.7659 35.9920
" />
<path d="M42.7659 35.9920
L42.5240 35.9315
" />
<path d="M42.5240 35.9315
L42.4030 35.8710
" />
<path d="M42.4030 35.8710
L42.3425 35.8105
" />
<path d="M42.3425 35.8105
L42.2821 35.6896
" />
<path d="M42.2821 35.6896
L42.2821 35.5686
" />
<path d="M42.2821 35.5686
L42.3425 35.4477
" />
<path d="M42.3425 35.4477
L42.4030 35.3872
" />
<path d="M42.4030 35.3872
L42.5240 35.3267
" />
<path d="M42.5240 35.3267
L42.8263 35.3267
" />
<path d="M42.8263 35.3267
L43.0078 35.3872
" />
<path d="M43.7939 35.3267
L44.0358 35.3267
" />
<path d="M44.0358 35.3267
L44.1568 35.3872
" />
<path d="M44.1568 35.3872
L44.2777 35.5082
" />
<path d="M44.2777 35.5082
L44.3382 35.7501
" />
<path d="M44.3382 35.7501
L44.3382 36.1734
" />
<path d="M44.3382 36.1734
L44.2777 36.4153
" />
<path d="M44.2777 36.4153
L44.1568 36.5363
" />
<path d="M44.1568 36.5363
L44.0358 36.5967
" />
<path d="M44.0358 36.5967
L43.7939 36.5967
" />
<path d="M43.7939 36.5967
L43.6730 36.5363
" />
<path d="M43.6730 36.5363
L43.5520 36.4153
" />
<path d="M43.5520 36.4153
L43.4916 36.1734
" />
<path d="M43.4916 36.1734
L43.4916 35.7501
" />
<path d="M43.4916 35.7501
L43.5520 35.5082
" />
<path d="M43.5520 35.5082
L43.6730 35.3872
" />
<path d="M43.6730 35.3872
L43.7939 35.3267
" />
</g></g>
<g style="fill:none; 
stroke:#A90000; stroke-width:0.1524; stroke-opacity:1; 
stroke-linecap:round; stroke-linejoin:round;">
<text x="48.2364" y="35.7632"
textLength="2.6222" font-size="1.6933" lengthAdjust="spacingAndGlyphs"
text-anchor="middle" opacity="0" stroke-opacity="0">15</text>
<g class="stroked-text"><desc>15</desc>
<path d="M47.9945 35.5997
L47.2688 35.5997
" />
<path d="M47.6316 35.5997
L47.6316 34.3297
" />
<path d="M47.6316 34.3297
L47.5107 34.5112
" />
<path d="M47.5107 34.5112
L47.3897 34.6321
" />
<path d="M47.3897 34.6321
L47.2688 34.6926
" />
<path d="M49.1435 34.3297
L48.5387 34.3297
" />
<path d="M48.5387 34.3297
L48.4783 34.9345
" />
<path d="M48.4783 34.9345
L48.5387 34.8740
" />
<path d="M48.5387 34.8740
L48.6597 34.8135
" />
<path d="M48.6597 34.8135
L48.9621 34.8135
" />
<path d="M48.9621 34.8135
L49.0830 34.8740
" />
<path d="M49.0830 34.8740
L49.1435 34.9345
" />
<path d="M49.1435 34.9345
L49.2040 35.0554
" />
<path d="M49.2040 35.0554
L49.2040 35.3578
" />
<path d="M49.2040 35.3578
L49.1435 35.4788
" />
<path d="M49.1435 35.4788
L49.0830 35.5393
" />
<path d="M49.0830 35.5393
L48.9621 35.5997
" />
<path d="M48.9621 35.5997
L48.6597 35.5997
" />
<path d="M48.6597 35.5997
L48.5387 35.5393
" />
<path d="M48.5387 35.5393
L48.4783 35.4788
" />
</g></g>
<g style="fill:none; 
stroke:#840000; stroke-width:0.1524; stroke-opacity:1; 
stroke-linecap:round; stroke-linejoin:round;">
<path d="M45.6964 33.4772
L50.7764 33.4772
" />
</g>
<g style="fill:none; 
stroke:#006464; stroke-width:0.1524; stroke-opacity:1; 
stroke-linecap:round; stroke-linejoin:round;">
<text x="44.6804" y="34.1122"
textLength="3.7713" font-size="1.6933" lengthAdjust="spacingAndGlyphs"
text-anchor="end" opacity="0" stroke-opacity="0">CLK</text>
<g class="stroked-text"><desc>CLK</desc>
<path d="M42.0401 33.9358
L41.9797 33.9963
" />
<path d="M41.9797 33.9963
L41.7982 34.0567
" />
<path d="M41.7982 34.0567
L41.6773 34.0567
" />
<path d="M41.6773 34.0567
L41.4959 33.9963
" />
<path d="M41.4959 33.9963
L41.3749 33.8753
" />
<path d="M41.3749 33.8753
L41.3144 33.7543
" />
<path d="M41.3144 33.7543
L41.2540 33.5124
" />
<path d="M41.2540 33.5124
L41.2540 33.3310
" />
<path d="M41.2540 33.3310
L41.3144 33.0891
" />
<path d="M41.3144 33.0891
L41.3749 32.9682
" />
<path d="M41.3749 32.9682
L41.4959 32.8472
" />
<path d="M41.4959 32.8472
L41.6773 32.7867
" />
<path d="M41.6773 32.7867
L41.7982 32.7867
" />
<path d="M41.7982 32.7867
L41.9797 32.8472
" />
<path d="M41.9797 32.8472
L42.0401 32.9077
" />
<path d="M43.1892 34.0567
L42.5844 34.0567
" />
<path d="M42.5844 34.0567
L42.5844 32.7867
" />
<path d="M43.6125 34.0567
L43.6125 32.7867
" />
<path d="M44.3382 34.0567
L43.7940 33.3310
" />
<path d="M44.3382 32.7867
L43.6125 33.5124
" />
</g></g>
<g style="fill:none; 
stroke:#A90000; stroke-width:0.1524; stroke-opacity:1; 
stroke-linecap:round; stroke-linejoin:round;">
<text x="48.2364" y="33.2232"
textLength="2.6222" font-size="1.6933" lengthAdjust="spacingAndGlyphs"
text-anchor="middle" opacity="0" stroke-opacity="0">16</text>
<g class="stroked-text"><desc>16</desc>
<path d="M47.9945 33.0597
L47.2688 33.0597
" />
<path d="M47.6316 33.0597
L47.6316 31.7897
" />
<path d="M47.6316 31.7897
L47.5107 31.9712
" />
<path d="M47.5107 31.9712
L47.3897 32.0921
" />
<path d="M47.3897 32.0921
L47.2688 32.1526
" />
<path d="M49.0830 31.7897
L48.8411 31.7897
" />
<path d="M48.8411 31.7897
L48.7202 31.8502
" />
<path d="M48.7202 31.8502
L48.6597 31.9107
" />
<path d="M48.6597 31.9107
L48.5387 32.0921
" />
<path d="M48.5387 32.0921
L48.4783 32.3340
" />
<path d="M48.4783 32.3340
L48.4783 32.8178
" />
<path d="M48.4783 32.8178
L48.5387 32.9388
" />
<path d="M48.5387 32.9388
L48.5992 32.9993
" />
<path d="M48.5992 32.9993
L48.7202 33.0597
" />
<path d="M48.7202 33.0597
L48.9621 33.0597
" />
<path d="M48.9621 33.0597
L49.0830 32.9993
" />
<path d="M49.0830 32.9993
L49.1435 32.9388
" />
<path d="M49.1435 32.9388
L49.2040 32.8178
" />
<path d="M49.2040 32.8178
L49.2040 32.5154
" />
<path d="M49.2040 32.5154
L49.1435 32.3945
" />
<path d="M49.1435 32.3945
L49.0830 32.3340
" />
<path d="M49.0830 32.3340
L48.9621 32.2735
" />
<path d="M48.9621 32.2735
L48.7202 32.2735
" />
<path d="M48.7202 32.2735
L48.5992 32.3340
" />
<path d="M48.5992 32.3340
L48.5387 32.3945
" />
<path d="M48.5387 32.3945
L48.4783 32.5154
" />
</g></g>
<g style="fill:none; 
stroke:#840000; stroke-width:0.1524; stroke-opacity:1; 
stroke-linecap:round; stroke-linejoin:round;">
<path d="M45.6964 30.9372
L50.7764 30.9372
" />
</g>
<g style="fill:none; 
stroke:#006464; stroke-width:0.1524; stroke-opacity:1; 
stroke-linecap:round; stroke-linejoin:round;">
<text x="44.6804" y="31.5722"
textLength="2.5013" font-size="1.6933" lengthAdjust="spacingAndGlyphs"
text-anchor="end" opacity="0" stroke-opacity="0">A0</text>
<g class="stroked-text"><desc>A0</desc>
<path d="M42.5240 31.1539
L43.1287 31.1539
" />
<path d="M42.4030 31.5167
L42.8263 30.2467
" />
<path d="M42.8263 30.2467
L43.2497 31.5167
" />
<path d="M43.9149 30.2467
L44.0359 30.2467
" />
<path d="M44.0359 30.2467
L44.1568 30.3072
" />
<path d="M44.1568 30.3072
L44.2173 30.3677
" />
<path d="M44.2173 30.3677
L44.2778 30.4886
" />
<path d="M44.2778 30.4886
L44.3383 30.7305
" />
<path d="M44.3383 30.7305
L44.3383 31.0329
" />
<path d="M44.3383 31.0329
L44.2778 31.2748
" />
<path d="M44.2778 31.2748
L44.2173 31.3958
" />
<path d="M44.2173 31.3958
L44.1568 31.4563
" />
<path d="M44.1568 31.4563
L44.0359 31.5167
" />
<path d="M44.0359 31.5167
L43.9149 31.5167
" />
<path d="M43.9149 31.5167
L43.7940 31.4563
" />
<path d="M43.7940 31.4563
L43.7335 31.3958
" />
<path d="M43.7335 31.3958
L43.6730 31.2748
" />
<path d="M43.6730 31.2748
L43.6126 31.0329
" />
<path d="M43.6126 31.0329
L43.6126 30.7305
" />
<path d="M43.6126 30.7305
L43.6730 30.4886
" />
<path d="M43.6730 30.4886
L43.7335 30.3677
" />
<path d="M43.7335 30.3677
L43.7940 30.3072
" />
<path d="M43.7940 30.3072
L43.9149 30.2467
" />
</g></g>
<g style="fill:none; 
stroke:#A90000; stroke-width:0.1524; stroke-opacity:1; 
stroke-linecap:round; stroke-linejoin:round;">
<text x="48.2364" y="30.6832"
textLength="2.6222" font-size="1.6933" lengthAdjust="spacingAndGlyphs"
text-anchor="middle" opacity="0" stroke-opacity="0">17</text>
<g class="stroked-text"><desc>17</desc>
<path d="M47.9945 30.5197
L47.2688 30.5197
" />
<path d="M47.6316 30.5197
L47.6316 29.2497
" />
<path d="M47.6316 29.2497
L47.5107 29.4312
" />
<path d="M47.5107 29.4312
L47.3897 29.5521
" />
<path d="M47.3897 29.5521
L47.2688 29.6126
" />
<path d="M48.4178 29.2497
L49.2644 29.2497
" />
<path d="M49.2644 29.2497
L48.7202 30.5197
" />
</g></g>
<g style="fill:none; 
stroke:#840000; stroke-width:0.1524; stroke-opacity:1; 
stroke-linecap:round; stroke-linejoin:round;">
<path d="M45.6964 28.3972
L50.7764 28.3972
" />
</g>
<g style="fill:none; 
stroke:#006464; stroke-width:0.1524; stroke-opacity:1; 
stroke-linecap:round; stroke-linejoin:round;">
<text x="44.6804" y="29.0322"
textLength="2.5013" font-size="1.6933" lengthAdjust="spacingAndGlyphs"
text-anchor="end" opacity="0" stroke-opacity="0">A1</text>
<g class="stroked-text"><desc>A1</desc>
<path d="M42.5240 28.6139
L43.1287 28.6139
" />
<path d="M42.4030 28.9767
L42.8263 27.7067
" />
<path d="M42.8263 27.7067
L43.2497 28.9767
" />
<path d="M44.3383 28.9767
L43.6126 28.9767
" />
<path d="M43.9754 28.9767
L43.9754 27.7067
" />
<path d="M43.9754 27.7067
L43.8545 27.8882
" />
<path d="M43.8545 27.8882
L43.7335 28.0091
" />
<path d="M43.7335 28.0091
L43.6126 28.0696
" />
</g></g>
<g style="fill:none; 
stroke:#A90000; stroke-width:0.1524; stroke-opacity:1; 
stroke-linecap:round; stroke-linejoin:round;">
<text x="48.2364" y="28.1432"
textLength="2.6222" font-size="1.6933" lengthAdjust="spacingAndGlyphs"
text-anchor="middle" opacity="0" stroke-opacity="0">18</text>
<g class="stroked-text"><desc>18</desc>
<path d="M47.9945 27.9797
L47.2688 27.9797
" />
<path d="M47.6316 27.9797
L47.6316 26.7097
" />
<path d="M47.6316 26.7097
L47.5107 26.8912
" />
<path d="M47.5107 26.8912
L47.3897 27.0121
" />
<path d="M47.3897 27.0121
L47.2688 27.0726
" />
<path d="M48.7202 27.2540
L48.5992 27.1935
" />
<path d="M48.5992 27.1935
L48.5387 27.1331
" />
<path d="M48.5387 27.1331
L48.4783 27.0121
" />
<path d="M48.4783 27.0121
L48.4783 26.9516
" />
<path d="M48.4783 26.9516
L48.5387 26.8307
" />
<path d="M48.5387 26.8307
L48.5992 26.7702
" />
<path d="M48.5992 26.7702
L48.7202 26.7097
" />
<path d="M48.7202 26.7097
L48.9621 26.7097
" />
<path d="M48.9621 26.7097
L49.0830 26.7702
" />
<path d="M49.0830 26.7702
L49.1435 26.8307
" />
<path d="M49.1435 26.8307
L49.2040 26.9516
" />
<path d="M49.2040 26.9516
L49.2040 27.0121
" />
<path d="M49.2040 27.0121
L49.1435 27.1331
" />
<path d="M49.1435 27.1331
L49.0830 27.1935
" />
<path d="M49.0830 27.1935
L48.9621 27.2540
" />
<path d="M48.9621 27.2540
L48.7202 27.2540
" />
<path d="M48.7202 27.2540
L48.5992 27.3145
" />
<path d="M48.5992 27.3145
L48.5387 27.3750
" />
<path d="M48.5387 27.3750
L48.4783 27.4959
" />
<path d="M48.4783 27.4959
L48.4783 27.7378
" />
<path d="M48.4783 27.7378
L48.5387 27.8588
" />
<path d="M48.5387 27.8588
L48.5992 27.9193
" />
<path d="M48.5992 27.9193
L48.7202 27.9797
" />
<path d="M48.7202 27.9797
L48.9621 27.9797
" />
<path d="M48.9621 27.9797
L49.0830 27.9193
" />
<path d="M49.0830 27.9193
L49.1435 27.8588
" />
<path d="M49.1435 27.8588
L49.2040 27.7378
" />
<path d="M49.2040 27.7378
L49.2040 27.4959
" />
<path d="M49.2040 27.4959
L49.1435 27.3750
" />
<path d="M49.1435 27.3750
L49.0830 27.3145
" />
<path d="M49.0830 27.3145
L48.9621 27.2540
" />
</g></g>
<g style="fill:none; 
stroke:#840000; stroke-width:0.1524; stroke-opacity:1; 
stroke-linecap:round; stroke-linejoin:round;">
<path d="M45.6964 25.8572
L50.7764 25.8572
" />
</g>
<g style="fill:none; 
stroke:#006464; stroke-width:0.1524; stroke-opacity:1; 
stroke-linecap:round; stroke-linejoin:round;">
<text x="44.6804" y="26.4922"
textLength="2.5013" font-size="1.6933" lengthAdjust="spacingAndGlyphs"
text-anchor="end" opacity="0" stroke-opacity="0">A2</text>
<g class="stroked-text"><desc>A2</desc>
<path d="M42.5240 26.0739
L43.1287 26.0739
" />
<path d="M42.4030 26.4367
L42.8263 25.1667
" />
<path d="M42.8263 25.1667
L43.2497 26.4367
" />
<path d="M43.6126 25.2877
L43.6730 25.2272
" />
<path d="M43.6730 25.2272
L43.7940 25.1667
" />
<path d="M43.7940 25.1667
L44.0964 25.1667
" />
<path d="M44.0964 25.1667
L44.2173 25.2272
" />
<path d="M44.2173 25.2272
L44.2778 25.2877
" />
<path d="M44.2778 25.2877
L44.3383 25.4086
" />
<path d="M44.3383 25.4086
L44.3383 25.5296
" />
<path d="M44.3383 25.5296
L44.2778 25.7110
" />
<path d="M44.2778 25.7110
L43.5521 26.4367
" />
<path d="M43.5521 26.4367
L44.3383 26.4367
" />
</g></g>
<g style="fill:none; 
stroke:#A90000; stroke-width:0.1524; stroke-opacity:1; 
stroke-linecap:round; stroke-linejoin:round;">
<text x="48.2364" y="25.6032"
textLength="2.6222" font-size="1.6933" lengthAdjust="spacingAndGlyphs"
text-anchor="middle" opacity="0" stroke-opacity="0">19</text>
<g class="stroked-text"><desc>19</desc>
<path d="M47.9945 25.4397
L47.2688 25.4397
" />
<path d="M47.6316 25.4397
L47.6316 24.1697
" />
<path d="M47.6316 24.1697
L47.5107 24.3512
" />
<path d="M47.5107 24.3512
L47.3897 24.4721
" />
<path d="M47.3897 24.4721
L47.2688 24.5326
" />
<path d="M48.5992 25.4397
L48.8411 25.4397
" />
<path d="M48.8411 25.4397
L48.9621 25.3793
" />
<path d="M48.9621 25.3793
L49.0225 25.3188
" />
<path d="M49.0225 25.3188
L49.1435 25.1373
" />
<path d="M49.1435 25.1373
L49.2040 24.8954
" />
<path d="M49.2040 24.8954
L49.2040 24.4116
" />
<path d="M49.2040 24.4116
L49.1435 24.2907
" />
<path d="M49.1435 24.2907
L49.0830 24.2302
" />
<path d="M49.0830 24.2302
L48.9621 24.1697
" />
<path d="M48.9621 24.1697
L48.7202 24.1697
" />
<path d="M48.7202 24.1697
L48.5992 24.2302
" />
<path d="M48.5992 24.2302
L48.5387 24.2907
" />
<path d="M48.5387 24.2907
L48.4783 24.4116
" />
<path d="M48.4783 24.4116
L48.4783 24.7140
" />
<path d="M48.4783 24.7140
L48.5387 24.8350
" />
<path d="M48.5387 24.8350
L48.5992 24.8954
" />
<path d="M48.5992 24.8954
L48.7202 24.9559
" />
<path d="M48.7202 24.9559
L48.9621 24.9559
" />
<path d="M48.9621 24.9559
L49.0830 24.8954
" />
<path d="M49.0830 24.8954
L49.1435 24.8350
" />
<path d="M49.1435 24.8350
L49.2040 24.7140
" />
</g></g>
<g style="fill:none; 
stroke:#840000; stroke-width:0.1524; stroke-opacity:1; 
stroke-linecap:round; stroke-linejoin:round;">
<path d="M20.2964 15.6972
L15.2164 15.6972
" />
</g>
<g style="fill:none; 
stroke:#006464; stroke-width:0.1524; stroke-opacity:1; 
stroke-linecap:round; stroke-linejoin:round;">
<text x="21.3124" y="16.3322"
textLength="2.6827" font-size="1.6933" lengthAdjust="spacingAndGlyphs"
text-anchor="start" opacity="0" stroke-opacity="0">RX</text>
<g class="stroked-text"><desc>RX</desc>
<path d="M22.4406 16.2767
L22.0173 15.6720
" />
<path d="M21.7149 16.2767
L21.7149 15.0067
" />
<path d="M21.7149 15.0067
L22.1987 15.0067
" />
<path d="M22.1987 15.0067
L22.3197 15.0672
" />
<path d="M22.3197 15.0672
L22.3802 15.1277
" />
<path d="M22.3802 15.1277
L22.4406 15.2486
" />
<path d="M22.4406 15.2486
L22.4406 15.4301
" />
<path d="M22.4406 15.4301
L22.3802 15.5510
" />
<path d="M22.3802 15.5510
L22.3197 15.6115
" />
<path d="M22.3197 15.6115
L22.1987 15.6720
" />
<path d="M22.1987 15.6720
L21.7149 15.6720
" />
<path d="M22.8640 15.0067
L23.7106 16.2767
" />
<path d="M23.7106 15.0067
L22.8640 16.2767
" />
</g></g>
<g style="fill:none; 
stroke:#A90000; stroke-width:0.1524; stroke-opacity:1; 
stroke-linecap:round; stroke-linejoin:round;">
<text x="17.7564" y="15.4432"
textLength="1.4127" font-size="1.6933" lengthAdjust="spacingAndGlyphs"
text-anchor="middle" opacity="0" stroke-opacity="0">2</text>
<g class="stroked-text"><desc>2</desc>
<path d="M17.3936 14.1307
L17.4540 14.0702
" />
<path d="M17.4540 14.0702
L17.5750 14.0097
" />
<path d="M17.5750 14.0097
L17.8774 14.0097
" />
<path d="M17.8774 14.0097
L17.9983 14.0702
" />
<path d="M17.9983 14.0702
L18.0588 14.1307
" />
<path d="M18.0588 14.1307
L18.1193 14.2516
" />
<path d="M18.1193 14.2516
L18.1193 14.3726
" />
<path d="M18.1193 14.3726
L18.0588 14.5540
" />
<path d="M18.0588 14.5540
L17.3331 15.2797
" />
<path d="M17.3331 15.2797
L18.1193 15.2797
" />
</g></g>
<g style="fill:none; 
stroke:#840000; stroke-width:0.1524; stroke-opacity:1; 
stroke-linecap:round; stroke-linejoin:round;">
<path d="M45.6964 23.3172
L50.7764 23.3172
" />
</g>
<g style="fill:none; 
stroke:#006464; stroke-width:0.1524; stroke-opacity:1; 
stroke-linecap:round; stroke-linejoin:round;">
<text x="44.6804" y="23.9522"
textLength="2.5013" font-size="1.6933" lengthAdjust="spacingAndGlyphs"
text-anchor="end" opacity="0" stroke-opacity="0">A3</text>
<g class="stroked-text"><desc>A3</desc>
<path d="M42.5240 23.5339
L43.1287 23.5339
" />
<path d="M42.4030 23.8967
L42.8263 22.6267
" />
<path d="M42.8263 22.6267
L43.2497 23.8967
" />
<path d="M43.5521 22.6267
L44.3383 22.6267
" />
<path d="M44.3383 22.6267
L43.9149 23.1105
" />
<path d="M43.9149 23.1105
L44.0964 23.1105
" />
<path d="M44.0964 23.1105
L44.2173 23.1710
" />
<path d="M44.2173 23.1710
L44.2778 23.2315
" />
<path d="M44.2778 23.2315
L44.3383 23.3524
" />
<path d="M44.3383 23.3524
L44.3383 23.6548
" />
<path d="M44.3383 23.6548
L44.2778 23.7758
" />
<path d="M44.2778 23.7758
L44.2173 23.8363
" />
<path d="M44.2173 23.8363
L44.0964 23.8967
" />
<path d="M44.0964 23.8967
L43.7335 23.8967
" />
<path d="M43.7335 23.8967
L43.6126 23.8363
" />
<path d="M43.6126 23.8363
L43.5521 23.7758
" />
</g></g>
<g style="fill:none; 
stroke:#A90000; stroke-width:0.1524; stroke-opacity:1; 
stroke-linecap:round; stroke-linejoin:round;">
<text x="48.2364" y="23.0632"
textLength="2.6222" font-size="1.6933" lengthAdjust="spacingAndGlyphs"
text-anchor="middle" opacity="0" stroke-opacity="0">20</text>
<g class="stroked-text"><desc>20</desc>
<path d="M47.2688 21.7507
L47.3292 21.6902
" />
<path d="M47.3292 21.6902
L47.4502 21.6297
" />
<path d="M47.4502 21.6297
L47.7526 21.6297
" />
<path d="M47.7526 21.6297
L47.8735 21.6902
" />
<path d="M47.8735 21.6902
L47.9340 21.7507
" />
<path d="M47.9340 21.7507
L47.9945 21.8716
" />
<path d="M47.9945 21.8716
L47.9945 21.9926
" />
<path d="M47.9945 21.9926
L47.9340 22.1740
" />
<path d="M47.9340 22.1740
L47.2083 22.8997
" />
<path d="M47.2083 22.8997
L47.9945 22.8997
" />
<path d="M48.7806 21.6297
L48.9016 21.6297
" />
<path d="M48.9016 21.6297
L49.0225 21.6902
" />
<path d="M49.0225 21.6902
L49.0830 21.7507
" />
<path d="M49.0830 21.7507
L49.1435 21.8716
" />
<path d="M49.1435 21.8716
L49.2040 22.1135
" />
<path d="M49.2040 22.1135
L49.2040 22.4159
" />
<path d="M49.2040 22.4159
L49.1435 22.6578
" />
<path d="M49.1435 22.6578
L49.0830 22.7788
" />
<path d="M49.0830 22.7788
L49.0225 22.8393
" />
<path d="M49.0225 22.8393
L48.9016 22.8997
" />
<path d="M48.9016 22.8997
L48.7806 22.8997
" />
<path d="M48.7806 22.8997
L48.6597 22.8393
" />
<path d="M48.6597 22.8393
L48.5992 22.7788
" />
<path d="M48.5992 22.7788
L48.5387 22.6578
" />
<path d="M48.5387 22.6578
L48.4783 22.4159
" />
<path d="M48.4783 22.4159
L48.4783 22.1135
" />
<path d="M48.4783 22.1135
L48.5387 21.8716
" />
<path d="M48.5387 21.8716
L48.5992 21.7507
" />
<path d="M48.5992 21.7507
L48.6597 21.6902
" />
<path d="M48.6597 21.6902
L48.7806 21.6297
" />
</g></g>
<g style="fill:none; 
stroke:#840000; stroke-width:0.1524; stroke-opacity:1; 
stroke-linecap:round; stroke-linejoin:round;">
<path d="M45.6964 20.7772
L50.7764 20.7772
" />
</g>
<g style="fill:none; 
stroke:#006464; stroke-width:0.1524; stroke-opacity:1; 
stroke-linecap:round; stroke-linejoin:round;">
<text x="44.6804" y="21.4122"
textLength="3.7108" font-size="1.6933" lengthAdjust="spacingAndGlyphs"
text-anchor="end" opacity="0" stroke-opacity="0">3V3</text>
<g class="stroked-text"><desc>3V3</desc>
<path d="M41.2540 20.0867
L42.0402 20.0867
" />
<path d="M42.0402 20.0867
L41.6168 20.5705
" />
<path d="M41.6168 20.5705
L41.7983 20.5705
" />
<path d="M41.7983 20.5705
L41.9192 20.6310
" />
<path d="M41.9192 20.6310
L41.9797 20.6915
" />
<path d="M41.9797 20.6915
L42.0402 20.8124
" />
<path d="M42.0402 20.8124
L42.0402 21.1148
" />
<path d="M42.0402 21.1148
L41.9797 21.2358
" />
<path d="M41.9797 21.2358
L41.9192 21.2963
" />
<path d="M41.9192 21.2963
L41.7983 21.3567
" />
<path d="M41.7983 21.3567
L41.4354 21.3567
" />
<path d="M41.4354 21.3567
L41.3145 21.2963
" />
<path d="M41.3145 21.2963
L41.2540 21.2358
" />
<path d="M42.4030 20.0867
L42.8263 21.3567
" />
<path d="M42.8263 21.3567
L43.2497 20.0867
" />
<path d="M43.5521 20.0867
L44.3383 20.0867
" />
<path d="M44.3383 20.0867
L43.9149 20.5705
" />
<path d="M43.9149 20.5705
L44.0964 20.5705
" />
<path d="M44.0964 20.5705
L44.2173 20.6310
" />
<path d="M44.2173 20.6310
L44.2778 20.6915
" />
<path d="M44.2778 20.6915
L44.3383 20.8124
" />
<path d="M44.3383 20.8124
L44.3383 21.1148
" />
<path d="M44.3383 21.1148
L44.2778 21.2358
" />
<path d="M44.2778 21.2358
L44.2173 21.2963
" />
<path d="M44.2173 21.2963
L44.0964 21.3567
" />
<path d="M44.0964 21.3567
L43.7335 21.3567
" />
<path d="M43.7335 21.3567
L43.6126 21.2963
" />
<path d="M43.6126 21.2963
L43.5521 21.2358
" />
</g></g>
<g style="fill:none; 
stroke:#A90000; stroke-width:0.1524; stroke-opacity:1; 
stroke-linecap:round; stroke-linejoin:round;">
<text x="48.2364" y="20.5232"
textLength="2.6222" font-size="1.6933" lengthAdjust="spacingAndGlyphs"
text-anchor="middle" opacity="0" stroke-opacity="0">21</text>
<g class="stroked-text"><desc>21</desc>
<path d="M47.2688 19.2107
L47.3292 19.1502
" />
<path d="M47.3292 19.1502
L47.4502 19.0897
" />
<path d="M47.4502 19.0897
L47.7526 19.0897
" />
<path d="M47.7526 19.0897
L47.8735 19.1502
" />
<path d="M47.8735 19.1502
L47.9340 19.2107
" />
<path d="M47.9340 19.2107
L47.9945 19.3316
" />
<path d="M47.9945 19.3316
L47.9945 19.4526
" />
<path d="M47.9945 19.4526
L47.9340 19.6340
" />
<path d="M47.9340 19.6340
L47.2083 20.3597
" />
<path d="M47.2083 20.3597
L47.9945 20.3597
" />
<path d="M49.2040 20.3597
L48.4783 20.3597
" />
<path d="M48.8411 20.3597
L48.8411 19.0897
" />
<path d="M48.8411 19.0897
L48.7202 19.2712
" />
<path d="M48.7202 19.2712
L48.5992 19.3921
" />
<path d="M48.5992 19.3921
L48.4783 19.4526
" />
</g></g>
<g style="fill:none; 
stroke:#840000; stroke-width:0.1524; stroke-opacity:1; 
stroke-linecap:round; stroke-linejoin:round;">
<path d="M45.6964 18.2372
L50.7764 18.2372
" />
</g>
<g style="fill:none; 
stroke:#006464; stroke-width:0.1524; stroke-opacity:1; 
stroke-linecap:round; stroke-linejoin:round;">
<text x="44.6804" y="18.8722"
textLength="3.6503" font-size="1.6933" lengthAdjust="spacingAndGlyphs"
text-anchor="end" opacity="0" stroke-opacity="0">RST</text>
<g class="stroked-text"><desc>RST</desc>
<path d="M42.1611 18.8167
L41.7378 18.2120
" />
<path d="M41.4354 18.8167
L41.4354 17.5467
" />
<path d="M41.4354 17.5467
L41.9192 17.5467
" />
<path d="M41.9192 17.5467
L42.0402 17.6072
" />
<path d="M42.0402 17.6072
L42.1007 17.6677
" />
<path d="M42.1007 17.6677
L42.1611 17.7886
" />
<path d="M42.1611 17.7886
L42.1611 17.9701
" />
<path d="M42.1611 17.9701
L42.1007 18.0910
" />
<path d="M42.1007 18.0910
L42.0402 18.1515
" />
<path d="M42.0402 18.1515
L41.9192 18.2120
" />
<path d="M41.9192 18.2120
L41.4354 18.2120
" />
<path d="M42.6450 18.7563
L42.8264 18.8167
" />
<path d="M42.8264 18.8167
L43.1288 18.8167
" />
<path d="M43.1288 18.8167
L43.2497 18.7563
" />
<path d="M43.2497 18.7563
L43.3102 18.6958
" />
<path d="M43.3102 18.6958
L43.3707 18.5748
" />
<path d="M43.3707 18.5748
L43.3707 18.4539
" />
<path d="M43.3707 18.4539
L43.3102 18.3329
" />
<path d="M43.3102 18.3329
L43.2497 18.2724
" />
<path d="M43.2497 18.2724
L43.1288 18.2120
" />
<path d="M43.1288 18.2120
L42.8869 18.1515
" />
<path d="M42.8869 18.1515
L42.7659 18.0910
" />
<path d="M42.7659 18.0910
L42.7054 18.0305
" />
<path d="M42.7054 18.0305
L42.6450 17.9096
" />
<path d="M42.6450 17.9096
L42.6450 17.7886
" />
<path d="M42.6450 17.7886
L42.7054 17.6677
" />
<path d="M42.7054 17.6677
L42.7659 17.6072
" />
<path d="M42.7659 17.6072
L42.8869 17.5467
" />
<path d="M42.8869 17.5467
L43.1892 17.5467
" />
<path d="M43.1892 17.5467
L43.3707 17.6072
" />
<path d="M43.7335 17.5467
L44.4592 17.5467
" />
<path d="M44.0964 18.8167
L44.0964 17.5467
" />
</g></g>
<g style="fill:none; 
stroke:#A90000; stroke-width:0.1524; stroke-opacity:1; 
stroke-linecap:round; stroke-linejoin:round;">
<text x="48.2364" y="17.9832"
textLength="2.6222" font-size="1.6933" lengthAdjust="spacingAndGlyphs"
text-anchor="middle" opacity="0" stroke-opacity="0">22</text>
<g class="stroked-text"><desc>22</desc>
<path d="M47.2688 16.6707
L47.3292 16.6102
" />
<path d="M47.3292 16.6102
L47.4502 16.5497
" />
<path d="M47.4502 16.5497
L47.7526 16.5497
" />
<path d="M47.7526 16.5497
L47.8735 16.6102
" />
<path d="M47.8735 16.6102
L47.9340 16.6707
" />
<path d="M47.9340 16.6707
L47.9945 16.7916
" />
<path d="M47.9945 16.7916
L47.9945 16.9126
" />
<path d="M47.9945 16.9126
L47.9340 17.0940
" />
<path d="M47.9340 17.0940
L47.2083 17.8197
" />
<path d="M47.2083 17.8197
L47.9945 17.8197
" />
<path d="M48.4783 16.6707
L48.5387 16.6102
" />
<path d="M48.5387 16.6102
L48.6597 16.5497
" />
<path d="M48.6597 16.5497
L48.9621 16.5497
" />
<path d="M48.9621 16.5497
L49.0830 16.6102
" />
<path d="M49.0830 16.6102
L49.1435 16.6707
" />
<path d="M49.1435 16.6707
L49.2040 16.7916
" />
<path d="M49.2040 16.7916
L49.2040 16.9126
" />
<path d="M49.2040 16.9126
L49.1435 17.0940
" />
<path d="M49.1435 17.0940
L48.4178 17.8197
" />
<path d="M48.4178 17.8197
L49.2040 17.8197
" />
</g></g>
<g style="fill:none; 
stroke:#840000; stroke-width:0.1524; stroke-opacity:1; 
stroke-linecap:round; stroke-linejoin:round;">
<path d="M45.6964 15.6972
L50.7764 15.6972
" />
</g>
<g style="fill:none; 
stroke:#006464; stroke-width:0.1524; stroke-opacity:1; 
stroke-linecap:round; stroke-linejoin:round;">
<text x="44.6804" y="16.3322"
textLength="4.0737" font-size="1.6933" lengthAdjust="spacingAndGlyphs"
text-anchor="end" opacity="0" stroke-opacity="0">GND</text>
<g class="stroked-text"><desc>GND</desc>
<path d="M41.6773 15.0672
L41.5563 15.0067
" />
<path d="M41.5563 15.0067
L41.3749 15.0067
" />
<path d="M41.3749 15.0067
L41.1935 15.0672
" />
<path d="M41.1935 15.0672
L41.0725 15.1882
" />
<path d="M41.0725 15.1882
L41.0120 15.3091
" />
<path d="M41.0120 15.3091
L40.9516 15.5510
" />
<path d="M40.9516 15.5510
L40.9516 15.7324
" />
<path d="M40.9516 15.7324
L41.0120 15.9743
" />
<path d="M41.0120 15.9743
L41.0725 16.0953
" />
<path d="M41.0725 16.0953
L41.1935 16.2163
" />
<path d="M41.1935 16.2163
L41.3749 16.2767
" />
<path d="M41.3749 16.2767
L41.4958 16.2767
" />
<path d="M41.4958 16.2767
L41.6773 16.2163
" />
<path d="M41.6773 16.2163
L41.7377 16.1558
" />
<path d="M41.7377 16.1558
L41.7377 15.7324
" />
<path d="M41.7377 15.7324
L41.4958 15.7324
" />
<path d="M42.2820 16.2767
L42.2820 15.0067
" />
<path d="M42.2820 15.0067
L43.0077 16.2767
" />
<path d="M43.0077 16.2767
L43.0077 15.0067
" />
<path d="M43.6125 16.2767
L43.6125 15.0067
" />
<path d="M43.6125 15.0067
L43.9149 15.0067
" />
<path d="M43.9149 15.0067
L44.0963 15.0672
" />
<path d="M44.0963 15.0672
L44.2173 15.1882
" />
<path d="M44.2173 15.1882
L44.2778 15.3091
" />
<path d="M44.2778 15.3091
L44.3382 15.5510
" />
<path d="M44.3382 15.5510
L44.3382 15.7324
" />
<path d="M44.3382 15.7324
L44.2778 15.9743
" />
<path d="M44.2778 15.9743
L44.2173 16.0953
" />
<path d="M44.2173 16.0953
L44.0963 16.2163
" />
<path d="M44.0963 16.2163
L43.9149 16.2767
" />
<path d="M43.9149 16.2767
L43.6125 16.2767
" />
</g></g>
<g style="fill:none; 
stroke:#A90000; stroke-width:0.1524; stroke-opacity:1; 
stroke-linecap:round; stroke-linejoin:round;">
<text x="48.2364" y="15.4432"
textLength="2.6222" font-size="1.6933" lengthAdjust="spacingAndGlyphs"
text-anchor="middle" opacity="0" stroke-opacity="0">23</text>
<g class="stroked-text"><desc>23</desc>
<path d="M47.2688 14.1307
L47.3292 14.0702
" />
<path d="M47.3292 14.0702
L47.4502 14.0097
" />
<path d="M47.4502 14.0097
L47.7526 14.0097
" />
<path d="M47.7526 14.0097
L47.8735 14.0702
" />
<path d="M47.8735 14.0702
L47.9340 14.1307
" />
<path d="M47.9340 14.1307
L47.9945 14.2516
" />
<path d="M47.9945 14.2516
L47.9945 14.3726
" />
<path d="M47.9945 14.3726
L47.9340 14.5540
" />
<path d="M47.9340 14.5540
L47.2083 15.2797
" />
<path d="M47.2083 15.2797
L47.9945 15.2797
" />
<path d="M48.4178 14.0097
L49.2040 14.0097
" />
<path d="M49.2040 14.0097
L48.7806 14.4935
" />
<path d="M48.7806 14.4935
L48.9621 14.4935
" />
<path d="M48.9621 14.4935
L49.0830 14.5540
" />
<path d="M49.0830 14.5540
L49.1435 14.6145
" />
<path d="M49.1435 14.6145
L49.2040 14.7354
" />
<path d="M49.2040 14.7354
L49.2040 15.0378
" />
<path d="M49.2040 15.0378
L49.1435 15.1588
" />
<path d="M49.1435 15.1588
L49.0830 15.2193
" />
<path d="M49.0830 15.2193
L48.9621 15.2797
" />
<path d="M48.9621 15.2797
L48.5992 15.2797
" />
<path d="M48.5992 15.2797
L48.4783 15.2193
" />
<path d="M48.4783 15.2193
L48.4178 15.1588
" />
</g></g>
<g style="fill:none; 
stroke:#840000; stroke-width:0.1524; stroke-opacity:1; 
stroke-linecap:round; stroke-linejoin:round;">
<path d="M45.6964 13.1572
L50.7764 13.1572
" />
</g>
<g style="fill:none; 
stroke:#006464; stroke-width:0.1524; stroke-opacity:1; 
stroke-linecap:round; stroke-linejoin:round;">
<text x="44.6804" y="13.7922"
textLength="4.0132" font-size="1.6933" lengthAdjust="spacingAndGlyphs"
text-anchor="end" opacity="0" stroke-opacity="0">RAW</text>
<g class="stroked-text"><desc>RAW</desc>
<path d="M41.7982 13.7367
L41.3749 13.1320
" />
<path d="M41.0725 13.7367
L41.0725 12.4667
" />
<path d="M41.0725 12.4667
L41.5563 12.4667
" />
<path d="M41.5563 12.4667
L41.6773 12.5272
" />
<path d="M41.6773 12.5272
L41.7378 12.5877
" />
<path d="M41.7378 12.5877
L41.7982 12.7086
" />
<path d="M41.7982 12.7086
L41.7982 12.8901
" />
<path d="M41.7982 12.8901
L41.7378 13.0110
" />
<path d="M41.7378 13.0110
L41.6773 13.0715
" />
<path d="M41.6773 13.0715
L41.5563 13.1320
" />
<path d="M41.5563 13.1320
L41.0725 13.1320
" />
<path d="M42.2821 13.3739
L42.8868 13.3739
" />
<path d="M42.1611 13.7367
L42.5844 12.4667
" />
<path d="M42.5844 12.4667
L43.0078 13.7367
" />
<path d="M43.3102 12.4667
L43.6126 13.7367
" />
<path d="M43.6126 13.7367
L43.8545 12.8296
" />
<path d="M43.8545 12.8296
L44.0964 13.7367
" />
<path d="M44.0964 13.7367
L44.3988 12.4667
" />
</g></g>
<g style="fill:none; 
stroke:#A90000; stroke-width:0.1524; stroke-opacity:1; 
stroke-linecap:round; stroke-linejoin:round;">
<text x="48.2364" y="12.9032"
textLength="2.6222" font-size="1.6933" lengthAdjust="spacingAndGlyphs"
text-anchor="middle" opacity="0" stroke-opacity="0">24</text>
<g class="stroked-text"><desc>24</desc>
<path d="M47.2688 11.5907
L47.3292 11.5302
" />
<path d="M47.3292 11.5302
L47.4502 11.4697
" />
<path d="M47.4502 11.4697
L47.7526 11.4697
" />
<path d="M47.7526 11.4697
L47.8735 11.5302
" />
<path d="M47.8735 11.5302
L47.9340 11.5907
" />
<path d="M47.9340 11.5907
L47.9945 11.7116
" />
<path d="M47.9945 11.7116
L47.9945 11.8326
" />
<path d="M47.9945 11.8326
L47.9340 12.0140
" />
<path d="M47.9340 12.0140
L47.2083 12.7397
" />
<path d="M47.2083 12.7397
L47.9945 12.7397
" />
<path d="M49.0830 11.8931
L49.0830 12.7397
" />
<path d="M48.7806 11.4093
L48.4783 12.3164
" />
<path d="M48.4783 12.3164
L49.2644 12.3164
" />
</g></g>
<g style="fill:none; 
stroke:#840000; stroke-width:0.1524; stroke-opacity:1; 
stroke-linecap:round; stroke-linejoin:round;">
<path d="M45.6964 10.6172
L50.7764 10.6172
" />
</g>
<g style="fill:none; 
stroke:#006464; stroke-width:0.1524; stroke-opacity:1; 
stroke-linecap:round; stroke-linejoin:round;">
<text x="44.6804" y="11.2522"
textLength="3.0456" font-size="1.6933" lengthAdjust="spacingAndGlyphs"
text-anchor="end" opacity="0" stroke-opacity="0">D-</text>
<g class="stroked-text"><desc>D-</desc>
<path d="M42.0401 11.1967
L42.0401 9.9267
" />
<path d="M42.0401 9.9267
L42.3425 9.9267
" />
<path d="M42.3425 9.9267
L42.5239 9.9872
" />
<path d="M42.5239 9.9872
L42.6449 10.1082
" />
<path d="M42.6449 10.1082
L42.7054 10.2291
" />
<path d="M42.7054 10.2291
L42.7658 10.4710
" />
<path d="M42.7658 10.4710
L42.7658 10.6524
" />
<path d="M42.7658 10.6524
L42.7054 10.8943
" />
<path d="M42.7054 10.8943
L42.6449 11.0153
" />
<path d="M42.6449 11.0153
L42.5239 11.1363
" />
<path d="M42.5239 11.1363
L42.3425 11.1967
" />
<path d="M42.3425 11.1967
L42.0401 11.1967
" />
<path d="M43.3101 10.7129
L44.2778 10.7129
" />
</g></g>
<g style="fill:none; 
stroke:#A90000; stroke-width:0.1524; stroke-opacity:1; 
stroke-linecap:round; stroke-linejoin:round;">
<text x="48.2364" y="10.3632"
textLength="2.6222" font-size="1.6933" lengthAdjust="spacingAndGlyphs"
text-anchor="middle" opacity="0" stroke-opacity="0">25</text>
<g class="stroked-text"><desc>25</desc>
<path d="M47.2688 9.0507
L47.3292 8.9902
" />
<path d="M47.3292 8.9902
L47.4502 8.9297
" />
<path d="M47.4502 8.9297
L47.7526 8.9297
" />
<path d="M47.7526 8.9297
L47.8735 8.9902
" />
<path d="M47.8735 8.9902
L47.9340 9.0507
" />
<path d="M47.9340 9.0507
L47.9945 9.1716
" />
<path d="M47.9945 9.1716
L47.9945 9.2926
" />
<path d="M47.9945 9.2926
L47.9340 9.4740
" />
<path d="M47.9340 9.4740
L47.2083 10.1997
" />
<path d="M47.2083 10.1997
L47.9945 10.1997
" />
<path d="M49.1435 8.9297
L48.5387 8.9297
" />
<path d="M48.5387 8.9297
L48.4783 9.5345
" />
<path d="M48.4783 9.5345
L48.5387 9.4740
" />
<path d="M48.5387 9.4740
L48.6597 9.4135
" />
<path d="M48.6597 9.4135
L48.9621 9.4135
" />
<path d="M48.9621 9.4135
L49.0830 9.4740
" />
<path d="M49.0830 9.4740
L49.1435 9.5345
" />
<path d="M49.1435 9.5345
L49.2040 9.6554
" />
<path d="M49.2040 9.6554
L49.2040 9.9578
" />
<path d="M49.2040 9.9578
L49.1435 10.0788
" />
<path d="M49.1435 10.0788
L49.0830 10.1393
" />
<path d="M49.0830 10.1393
L48.9621 10.1997
" />
<path d="M48.9621 10.1997
L48.6597 10.1997
" />
<path d="M48.6597 10.1997
L48.5387 10.1393
" />
<path d="M48.5387 10.1393
L48.4783 10.0788
" />
</g></g>
<g style="fill:none; 
stroke:#840000; stroke-width:0.1524; stroke-opacity:1; 
stroke-linecap:round; stroke-linejoin:round;">
<path d="M20.2964 18.2372
L15.2164 18.2372
" />
</g>
<g style="fill:none; 
stroke:#006464; stroke-width:0.1524; stroke-opacity:1; 
stroke-linecap:round; stroke-linejoin:round;">
<text x="21.3124" y="18.8722"
textLength="4.0737" font-size="1.6933" lengthAdjust="spacingAndGlyphs"
text-anchor="start" opacity="0" stroke-opacity="0">GND</text>
<g class="stroked-text"><desc>GND</desc>
<path d="M22.3802 17.6072
L22.2592 17.5467
" />
<path d="M22.2592 17.5467
L22.0778 17.5467
" />
<path d="M22.0778 17.5467
L21.8964 17.6072
" />
<path d="M21.8964 17.6072
L21.7754 17.7282
" />
<path d="M21.7754 17.7282
L21.7149 17.8491
" />
<path d="M21.7149 17.8491
L21.6545 18.0910
" />
<path d="M21.6545 18.0910
L21.6545 18.2724
" />
<path d="M21.6545 18.2724
L21.7149 18.5143
" />
<path d="M21.7149 18.5143
L21.7754 18.6353
" />
<path d="M21.7754 18.6353
L21.8964 18.7563
" />
<path d="M21.8964 18.7563
L22.0778 18.8167
" />
<path d="M22.0778 18.8167
L22.1987 18.8167
" />
<path d="M22.1987 18.8167
L22.3802 18.7563
" />
<path d="M22.3802 18.7563
L22.4406 18.6958
" />
<path d="M22.4406 18.6958
L22.4406 18.2724
" />
<path d="M22.4406 18.2724
L22.1987 18.2724
" />
<path d="M22.9849 18.8167
L22.9849 17.5467
" />
<path d="M22.9849 17.5467
L23.7106 18.8167
" />
<path d="M23.7106 18.8167
L23.7106 17.5467
" />
<path d="M24.3154 18.8167
L24.3154 17.5467
" />
<path d="M24.3154 17.5467
L24.6178 17.5467
" />
<path d="M24.6178 17.5467
L24.7992 17.6072
" />
<path d="M24.7992 17.6072
L24.9202 17.7282
" />
<path d="M24.9202 17.7282
L24.9807 17.8491
" />
<path d="M24.9807 17.8491
L25.0411 18.0910
" />
<path d="M25.0411 18.0910
L25.0411 18.2724
" />
<path d="M25.0411 18.2724
L24.9807 18.5143
" />
<path d="M24.9807 18.5143
L24.9202 18.6353
" />
<path d="M24.9202 18.6353
L24.7992 18.7563
" />
<path d="M24.7992 18.7563
L24.6178 18.8167
" />
<path d="M24.6178 18.8167
L24.3154 18.8167
" />
</g></g>
<g style="fill:none; 
stroke:#A90000; stroke-width:0.1524; stroke-opacity:1; 
stroke-linecap:round; stroke-linejoin:round;">
<text x="17.7564" y="17.9832"
textLength="1.4127" font-size="1.6933" lengthAdjust="spacingAndGlyphs"
text-anchor="middle" opacity="0" stroke-opacity="0">3</text>
<g class="stroked-text"><desc>3</desc>
<path d="M17.3331 16.5497
L18.1193 16.5497
" />
<path d="M18.1193 16.5497
L17.6959 17.0335
" />
<path d="M17.6959 17.0335
L17.8774 17.0335
" />
<path d="M17.8774 17.0335
L17.9983 17.0940
" />
<path d="M17.9983 17.0940
L18.0588 17.1545
" />
<path d="M18.0588 17.1545
L18.1193 17.2754
" />
<path d="M18.1193 17.2754
L18.1193 17.5778
" />
<path d="M18.1193 17.5778
L18.0588 17.6988
" />
<path d="M18.0588 17.6988
L17.9983 17.7593
" />
<path d="M17.9983 17.7593
L17.8774 17.8197
" />
<path d="M17.8774 17.8197
L17.5145 17.8197
" />
<path d="M17.5145 17.8197
L17.3936 17.7593
" />
<path d="M17.3936 17.7593
L17.3331 17.6988
" />
</g></g>
<g style="fill:none; 
stroke:#840000; stroke-width:0.1524; stroke-opacity:1; 
stroke-linecap:round; stroke-linejoin:round;">
<path d="M20.2964 20.7772
L15.2164 20.7772
" />
</g>
<g style="fill:none; 
stroke:#006464; stroke-width:0.1524; stroke-opacity:1; 
stroke-linecap:round; stroke-linejoin:round;">
<text x="21.3124" y="21.4122"
textLength="4.0737" font-size="1.6933" lengthAdjust="spacingAndGlyphs"
text-anchor="start" opacity="0" stroke-opacity="0">GND</text>
<g class="stroked-text"><desc>GND</desc>
<path d="M22.3802 20.1472
L22.2592 20.0867
" />
<path d="M22.2592 20.0867
L22.0778 20.0867
" />
<path d="M22.0778 20.0867
L21.8964 20.1472
" />
<path d="M21.8964 20.1472
L21.7754 20.2682
" />
<path d="M21.7754 20.2682
L21.7149 20.3891
" />
<path d="M21.7149 20.3891
L21.6545 20.6310
" />
<path d="M21.6545 20.6310
L21.6545 20.8124
" />
<path d="M21.6545 20.8124
L21.7149 21.0543
" />
<path d="M21.7149 21.0543
L21.7754 21.1753
" />
<path d="M21.7754 21.1753
L21.8964 21.2963
" />
<path d="M21.8964 21.2963
L22.0778 21.3567
" />
<path d="M22.0778 21.3567
L22.1987 21.3567
" />
<path d="M22.1987 21.3567
L22.3802 21.2963
" />
<path d="M22.3802 21.2963
L22.4406 21.2358
" />
<path d="M22.4406 21.2358
L22.4406 20.8124
" />
<path d="M22.4406 20.8124
L22.1987 20.8124
" />
<path d="M22.9849 21.3567
L22.9849 20.0867
" />
<path d="M22.9849 20.0867
L23.7106 21.3567
" />
<path d="M23.7106 21.3567
L23.7106 20.0867
" />
<path d="M24.3154 21.3567
L24.3154 20.0867
" />
<path d="M24.3154 20.0867
L24.6178 20.0867
" />
<path d="M24.6178 20.0867
L24.7992 20.1472
" />
<path d="M24.7992 20.1472
L24.9202 20.2682
" />
<path d="M24.9202 20.2682
L24.9807 20.3891
" />
<path d="M24.9807 20.3891
L25.0411 20.6310
" />
<path d="M25.0411 20.6310
L25.0411 20.8124
" />
<path d="M25.0411 20.8124
L24.9807 21.0543
" />
<path d="M24.9807 21.0543
L24.9202 21.1753
" />
<path d="M24.9202 21.1753
L24.7992 21.2963
" />
<path d="M24.7992 21.2963
L24.6178 21.3567
" />
<path d="M24.6178 21.3567
L24.3154 21.3567
" />
</g></g>
<g style="fill:none; 
stroke:#A90000; stroke-width:0.1524; stroke-opacity:1; 
stroke-linecap:round; stroke-linejoin:round;">
<text x="17.7564" y="20.5232"
textLength="1.4127" font-size="1.6933" lengthAdjust="spacingAndGlyphs"
text-anchor="middle" opacity="0" stroke-opacity="0">4</text>
<g class="stroked-text"><desc>4</desc>
<path d="M17.9983 19.5131
L17.9983 20.3597
" />
<path d="M17.6959 19.0293
L17.3936 19.9364
" />
<path d="M17.3936 19.9364
L18.1797 19.9364
" />
</g></g>
<g style="fill:none; 
stroke:#840000; stroke-width:0.1524; stroke-opacity:1; 
stroke-linecap:round; stroke-linejoin:round;">
<path d="M20.2964 23.3172
L15.2164 23.3172
" />
</g>
<g style="fill:none; 
stroke:#006464; stroke-width:0.1524; stroke-opacity:1; 
stroke-linecap:round; stroke-linejoin:round;">
<text x="21.3124" y="23.9522"
textLength="7.5813" font-size="1.6933" lengthAdjust="spacingAndGlyphs"
text-anchor="start" opacity="0" stroke-opacity="0">D2/SDA</text>
<g class="stroked-text"><desc>D2/SDA</desc>
<path d="M21.7149 23.8967
L21.7149 22.6267
" />
<path d="M21.7149 22.6267
L22.0173 22.6267
" />
<path d="M22.0173 22.6267
L22.1987 22.6872
" />
<path d="M22.1987 22.6872
L22.3197 22.8082
" />
<path d="M22.3197 22.8082
L22.3802 22.9291
" />
<path d="M22.3802 22.9291
L22.4406 23.1710
" />
<path d="M22.4406 23.1710
L22.4406 23.3524
" />
<path d="M22.4406 23.3524
L22.3802 23.5943
" />
<path d="M22.3802 23.5943
L22.3197 23.7153
" />
<path d="M22.3197 23.7153
L22.1987 23.8363
" />
<path d="M22.1987 23.8363
L22.0173 23.8967
" />
<path d="M22.0173 23.8967
L21.7149 23.8967
" />
<path d="M22.9245 22.7477
L22.9849 22.6872
" />
<path d="M22.9849 22.6872
L23.1059 22.6267
" />
<path d="M23.1059 22.6267
L23.4083 22.6267
" />
<path d="M23.4083 22.6267
L23.5292 22.6872
" />
<path d="M23.5292 22.6872
L23.5897 22.7477
" />
<path d="M23.5897 22.7477
L23.6502 22.8686
" />
<path d="M23.6502 22.8686
L23.6502 22.9896
" />
<path d="M23.6502 22.9896
L23.5897 23.1710
" />
<path d="M23.5897 23.1710
L22.8640 23.8967
" />
<path d="M22.8640 23.8967
L23.6502 23.8967
" />
<path d="M25.1016 22.5663
L24.0130 24.1991
" />
<path d="M25.4645 23.8363
L25.6459 23.8967
" />
<path d="M25.6459 23.8967
L25.9483 23.8967
" />
<path d="M25.9483 23.8967
L26.0692 23.8363
" />
<path d="M26.0692 23.8363
L26.1297 23.7758
" />
<path d="M26.1297 23.7758
L26.1902 23.6548
" />
<path d="M26.1902 23.6548
L26.1902 23.5339
" />
<path d="M26.1902 23.5339
L26.1297 23.4129
" />
<path d="M26.1297 23.4129
L26.0692 23.3524
" />
<path d="M26.0692 23.3524
L25.9483 23.2920
" />
<path d="M25.9483 23.2920
L25.7064 23.2315
" />
<path d="M25.7064 23.2315
L25.5854 23.1710
" />
<path d="M25.5854 23.1710
L25.5249 23.1105
" />
<path d="M25.5249 23.1105
L25.4645 22.9896
" />
<path d="M25.4645 22.9896
L25.4645 22.8686
" />
<path d="M25.4645 22.8686
L25.5249 22.7477
" />
<path d="M25.5249 22.7477
L25.5854 22.6872
" />
<path d="M25.5854 22.6872
L25.7064 22.6267
" />
<path d="M25.7064 22.6267
L26.0087 22.6267
" />
<path d="M26.0087 22.6267
L26.1902 22.6872
" />
<path d="M26.7344 23.8967
L26.7344 22.6267
" />
<path d="M26.7344 22.6267
L27.0368 22.6267
" />
<path d="M27.0368 22.6267
L27.2182 22.6872
" />
<path d="M27.2182 22.6872
L27.3392 22.8082
" />
<path d="M27.3392 22.8082
L27.3997 22.9291
" />
<path d="M27.3997 22.9291
L27.4601 23.1710
" />
<path d="M27.4601 23.1710
L27.4601 23.3524
" />
<path d="M27.4601 23.3524
L27.3997 23.5943
" />
<path d="M27.3997 23.5943
L27.3392 23.7153
" />
<path d="M27.3392 23.7153
L27.2182 23.8363
" />
<path d="M27.2182 23.8363
L27.0368 23.8967
" />
<path d="M27.0368 23.8967
L26.7344 23.8967
" />
<path d="M27.9440 23.5339
L28.5487 23.5339
" />
<path d="M27.8230 23.8967
L28.2463 22.6267
" />
<path d="M28.2463 22.6267
L28.6697 23.8967
" />
</g></g>
<g style="fill:none; 
stroke:#A90000; stroke-width:0.1524; stroke-opacity:1; 
stroke-linecap:round; stroke-linejoin:round;">
<text x="17.7564" y="23.0632"
textLength="1.4127" font-size="1.6933" lengthAdjust="spacingAndGlyphs"
text-anchor="middle" opacity="0" stroke-opacity="0">5</text>
<g class="stroked-text"><desc>5</desc>
<path d="M18.0588 21.6297
L17.4540 21.6297
" />
<path d="M17.4540 21.6297
L17.3936 22.2345
" />
<path d="M17.3936 22.2345
L17.4540 22.1740
" />
<path d="M17.4540 22.1740
L17.5750 22.1135
" />
<path d="M17.5750 22.1135
L17.8774 22.1135
" />
<path d="M17.8774 22.1135
L17.9983 22.1740
" />
<path d="M17.9983 22.1740
L18.0588 22.2345
" />
<path d="M18.0588 22.2345
L18.1193 22.3554
" />
<path d="M18.1193 22.3554
L18.1193 22.6578
" />
<path d="M18.1193 22.6578
L18.0588 22.7788
" />
<path d="M18.0588 22.7788
L17.9983 22.8393
" />
<path d="M17.9983 22.8393
L17.8774 22.8997
" />
<path d="M17.8774 22.8997
L17.5750 22.8997
" />
<path d="M17.5750 22.8997
L17.4540 22.8393
" />
<path d="M17.4540 22.8393
L17.3936 22.7788
" />
</g></g>
<g style="fill:none; 
stroke:#840000; stroke-width:0.1524; stroke-opacity:1; 
stroke-linecap:round; stroke-linejoin:round;">
<path d="M20.2964 25.8572
L15.2164 25.8572
" />
</g>
<g style="fill:none; 
stroke:#006464; stroke-width:0.1524; stroke-opacity:1; 
stroke-linecap:round; stroke-linejoin:round;">
<text x="21.3124" y="26.4922"
textLength="7.5208" font-size="1.6933" lengthAdjust="spacingAndGlyphs"
text-anchor="start" opacity="0" stroke-opacity="0">D3/SCL</text>
<g class="stroked-text"><desc>D3/SCL</desc>
<path d="M21.7149 26.4367
L21.7149 25.1667
" />
<path d="M21.7149 25.1667
L22.0173 25.1667
" />
<path d="M22.0173 25.1667
L22.1987 25.2272
" />
<path d="M22.1987 25.2272
L22.3197 25.3482
" />
<path d="M22.3197 25.3482
L22.3802 25.4691
" />
<path d="M22.3802 25.4691
L22.4406 25.7110
" />
<path d="M22.4406 25.7110
L22.4406 25.8924
" />
<path d="M22.4406 25.8924
L22.3802 26.1343
" />
<path d="M22.3802 26.1343
L22.3197 26.2553
" />
<path d="M22.3197 26.2553
L22.1987 26.3763
" />
<path d="M22.1987 26.3763
L22.0173 26.4367
" />
<path d="M22.0173 26.4367
L21.7149 26.4367
" />
<path d="M22.8640 25.1667
L23.6502 25.1667
" />
<path d="M23.6502 25.1667
L23.2268 25.6505
" />
<path d="M23.2268 25.6505
L23.4083 25.6505
" />
<path d="M23.4083 25.6505
L23.5292 25.7110
" />
<path d="M23.5292 25.7110
L23.5897 25.7715
" />
<path d="M23.5897 25.7715
L23.6502 25.8924
" />
<path d="M23.6502 25.8924
L23.6502 26.1948
" />
<path d="M23.6502 26.1948
L23.5897 26.3158
" />
<path d="M23.5897 26.3158
L23.5292 26.3763
" />
<path d="M23.5292 26.3763
L23.4083 26.4367
" />
<path d="M23.4083 26.4367
L23.0454 26.4367
" />
<path d="M23.0454 26.4367
L22.9245 26.3763
" />
<path d="M22.9245 26.3763
L22.8640 26.3158
" />
<path d="M25.1016 25.1063
L24.0130 26.7391
" />
<path d="M25.4645 26.3763
L25.6459 26.4367
" />
<path d="M25.6459 26.4367
L25.9483 26.4367
" />
<path d="M25.9483 26.4367
L26.0692 26.3763
" />
<path d="M26.0692 26.3763
L26.1297 26.3158
" />
<path d="M26.1297 26.3158
L26.1902 26.1948
" />
<path d="M26.1902 26.1948
L26.1902 26.0739
" />
<path d="M26.1902 26.0739
L26.1297 25.9529
" />
<path d="M26.1297 25.9529
L26.0692 25.8924
" />
<path d="M26.0692 25.8924
L25.9483 25.8320
" />
<path d="M25.9483 25.8320
L25.7064 25.7715
" />
<path d="M25.7064 25.7715
L25.5854 25.7110
" />
<path d="M25.5854 25.7110
L25.5249 25.6505
" />
<path d="M25.5249 25.6505
L25.4645 25.5296
" />
<path d="M25.4645 25.5296
L25.4645 25.4086
" />
<path d="M25.4645 25.4086
L25.5249 25.2877
" />
<path d="M25.5249 25.2877
L25.5854 25.2272
" />
<path d="M25.5854 25.2272
L25.7064 25.1667
" />
<path d="M25.7064 25.1667
L26.0087 25.1667
" />
<path d="M26.0087 25.1667
L26.1902 25.2272
" />
<path d="M27.4601 26.3158
L27.3997 26.3763
" />
<path d="M27.3997 26.3763
L27.2182 26.4367
" />
<path d="M27.2182 26.4367
L27.0973 26.4367
" />
<path d="M27.0973 26.4367
L26.9159 26.3763
" />
<path d="M26.9159 26.3763
L26.7949 26.2553
" />
<path d="M26.7949 26.2553
L26.7344 26.1343
" />
<path d="M26.7344 26.1343
L26.6740 25.8924
" />
<path d="M26.6740 25.8924
L26.6740 25.7110
" />
<path d="M26.6740 25.7110
L26.7344 25.4691
" />
<path d="M26.7344 25.4691
L26.7949 25.3482
" />
<path d="M26.7949 25.3482
L26.9159 25.2272
" />
<path d="M26.9159 25.2272
L27.0973 25.1667
" />
<path d="M27.0973 25.1667
L27.2182 25.1667
" />
<path d="M27.2182 25.1667
L27.3997 25.2272
" />
<path d="M27.3997 25.2272
L27.4601 25.2877
" />
<path d="M28.6092 26.4367
L28.0044 26.4367
" />
<path d="M28.0044 26.4367
L28.0044 25.1667
" />
</g></g>
<g style="fill:none; 
stroke:#A90000; stroke-width:0.1524; stroke-opacity:1; 
stroke-linecap:round; stroke-linejoin:round;">
<text x="17.7564" y="25.6032"
textLength="1.4127" font-size="1.6933" lengthAdjust="spacingAndGlyphs"
text-anchor="middle" opacity="0" stroke-opacity="0">6</text>
<g class="stroked-text"><desc>6</desc>
<path d="M17.9983 24.1697
L17.7564 24.1697
" />
<path d="M17.7564 24.1697
L17.6355 24.2302
" />
<path d="M17.6355 24.2302
L17.5750 24.2907
" />
<path d="M17.5750 24.2907
L17.4540 24.4721
" />
<path d="M17.4540 24.4721
L17.3936 24.7140
" />
<path d="M17.3936 24.7140
L17.3936 25.1978
" />
<path d="M17.3936 25.1978
L17.4540 25.3188
" />
<path d="M17.4540 25.3188
L17.5145 25.3793
" />
<path d="M17.5145 25.3793
L17.6355 25.4397
" />
<path d="M17.6355 25.4397
L17.8774 25.4397
" />
<path d="M17.8774 25.4397
L17.9983 25.3793
" />
<path d="M17.9983 25.3793
L18.0588 25.3188
" />
<path d="M18.0588 25.3188
L18.1193 25.1978
" />
<path d="M18.1193 25.1978
L18.1193 24.8954
" />
<path d="M18.1193 24.8954
L18.0588 24.7745
" />
<path d="M18.0588 24.7745
L17.9983 24.7140
" />
<path d="M17.9983 24.7140
L17.8774 24.6535
" />
<path d="M17.8774 24.6535
L17.6355 24.6535
" />
<path d="M17.6355 24.6535
L17.5145 24.7140
" />
<path d="M17.5145 24.7140
L17.4540 24.7745
" />
<path d="M17.4540 24.7745
L17.3936 24.8954
" />
</g></g>
<g style="fill:none; 
stroke:#840000; stroke-width:0.1524; stroke-opacity:1; 
stroke-linecap:round; stroke-linejoin:round;">
<path d="M20.2964 28.3972
L15.2164 28.3972
" />
</g>
<g style="fill:none; 
stroke:#006464; stroke-width:0.1524; stroke-opacity:1; 
stroke-linecap:round; stroke-linejoin:round;">
<text x="21.3124" y="29.0322"
textLength="2.6827" font-size="1.6933" lengthAdjust="spacingAndGlyphs"
text-anchor="start" opacity="0" stroke-opacity="0">D4</text>
<g class="stroked-text"><desc>D4</desc>
<path d="M21.7149 28.9767
L21.7149 27.7067
" />
<path d="M21.7149 27.7067
L22.0173 27.7067
" />
<path d="M22.0173 27.7067
L22.1987 27.7672
" />
<path d="M22.1987 27.7672
L22.3197 27.8882
" />
<path d="M22.3197 27.8882
L22.3802 28.0091
" />
<path d="M22.3802 28.0091
L22.4406 28.2510
" />
<path d="M22.4406 28.2510
L22.4406 28.4324
" />
<path d="M22.4406 28.4324
L22.3802 28.6743
" />
<path d="M22.3802 28.6743
L22.3197 28.7953
" />
<path d="M22.3197 28.7953
L22.1987 28.9163
" />
<path d="M22.1987 28.9163
L22.0173 28.9767
" />
<path d="M22.0173 28.9767
L21.7149 28.9767
" />
<path d="M23.5292 28.1301
L23.5292 28.9767
" />
<path d="M23.2268 27.6463
L22.9245 28.5534
" />
<path d="M22.9245 28.5534
L23.7106 28.5534
" />
</g></g>
<g style="fill:none; 
stroke:#A90000; stroke-width:0.1524; stroke-opacity:1; 
stroke-linecap:round; stroke-linejoin:round;">
<text x="17.7564" y="28.1432"
textLength="1.4127" font-size="1.6933" lengthAdjust="spacingAndGlyphs"
text-anchor="middle" opacity="0" stroke-opacity="0">7</text>
<g class="stroked-text"><desc>7</desc>
<path d="M17.3331 26.7097
L18.1797 26.7097
" />
<path d="M18.1797 26.7097
L17.6355 27.9797
" />
</g></g>
<g style="fill:none; 
stroke:#840000; stroke-width:0.1524; stroke-opacity:1; 
stroke-linecap:round; stroke-linejoin:round;">
<path d="M20.2964 30.9372
L15.2164 30.9372
" />
</g>
<g style="fill:none; 
stroke:#006464; stroke-width:0.1524; stroke-opacity:1; 
stroke-linecap:round; stroke-linejoin:round;">
<text x="21.3124" y="31.5722"
textLength="2.6827" font-size="1.6933" lengthAdjust="spacingAndGlyphs"
text-anchor="start" opacity="0" stroke-opacity="0">D5</text>
<g class="stroked-text"><desc>D5</desc>
<path d="M21.7149 31.5167
L21.7149 30.2467
" />
<path d="M21.7149 30.2467
L22.0173 30.2467
" />
<path d="M22.0173 30.2467
L22.1987 30.3072
" />
<path d="M22.1987 30.3072
L22.3197 30.4282
" />
<path d="M22.3197 30.4282
L22.3802 30.5491
" />
<path d="M22.3802 30.5491
L22.4406 30.7910
" />
<path d="M22.4406 30.7910
L22.4406 30.9724
" />
<path d="M22.4406 30.9724
L22.3802 31.2143
" />
<path d="M22.3802 31.2143
L22.3197 31.3353
" />
<path d="M22.3197 31.3353
L22.1987 31.4563
" />
<path d="M22.1987 31.4563
L22.0173 31.5167
" />
<path d="M22.0173 31.5167
L21.7149 31.5167
" />
<path d="M23.5897 30.2467
L22.9849 30.2467
" />
<path d="M22.9849 30.2467
L22.9245 30.8515
" />
<path d="M22.9245 30.8515
L22.9849 30.7910
" />
<path d="M22.9849 30.7910
L23.1059 30.7305
" />
<path d="M23.1059 30.7305
L23.4083 30.7305
" />
<path d="M23.4083 30.7305
L23.5292 30.7910
" />
<path d="M23.5292 30.7910
L23.5897 30.8515
" />
<path d="M23.5897 30.8515
L23.6502 30.9724
" />
<path d="M23.6502 30.9724
L23.6502 31.2748
" />
<path d="M23.6502 31.2748
L23.5897 31.3958
" />
<path d="M23.5897 31.3958
L23.5292 31.4563
" />
<path d="M23.5292 31.4563
L23.4083 31.5167
" />
<path d="M23.4083 31.5167
L23.1059 31.5167
" />
<path d="M23.1059 31.5167
L22.9849 31.4563
" />
<path d="M22.9849 31.4563
L22.9245 31.3958
" />
</g></g>
<g style="fill:none; 
stroke:#A90000; stroke-width:0.1524; stroke-opacity:1; 
stroke-linecap:round; stroke-linejoin:round;">
<text x="17.7564" y="30.6832"
textLength="1.4127" font-size="1.6933" lengthAdjust="spacingAndGlyphs"
text-anchor="middle" opacity="0" stroke-opacity="0">8</text>
<g class="stroked-text"><desc>8</desc>
<path d="M17.6355 29.7940
L17.5145 29.7335
" />
<path d="M17.5145 29.7335
L17.4540 29.6731
" />
<path d="M17.4540 29.6731
L17.3936 29.5521
" />
<path d="M17.3936 29.5521
L17.3936 29.4916
" />
<path d="M17.3936 29.4916
L17.4540 29.3707
" />
<path d="M17.4540 29.3707
L17.5145 29.3102
" />
<path d="M17.5145 29.3102
L17.6355 29.2497
" />
<path d="M17.6355 29.2497
L17.8774 29.2497
" />
<path d="M17.8774 29.2497
L17.9983 29.3102
" />
<path d="M17.9983 29.3102
L18.0588 29.3707
" />
<path d="M18.0588 29.3707
L18.1193 29.4916
" />
<path d="M18.1193 29.4916
L18.1193 29.5521
" />
<path d="M18.1193 29.5521
L18.0588 29.6731
" />
<path d="M18.0588 29.6731
L17.9983 29.7335
" />
<path d="M17.9983 29.7335
L17.8774 29.7940
" />
<path d="M17.8774 29.7940
L17.6355 29.7940
" />
<path d="M17.6355 29.7940
L17.5145 29.8545
" />
<path d="M17.5145 29.8545
L17.4540 29.9150
" />
<path d="M17.4540 29.9150
L17.3936 30.0359
" />
<path d="M17.3936 30.0359
L17.3936 30.2778
" />
<path d="M17.3936 30.2778
L17.4540 30.3988
" />
<path d="M17.4540 30.3988
L17.5145 30.4593
" />
<path d="M17.5145 30.4593
L17.6355 30.5197
" />
<path d="M17.6355 30.5197
L17.8774 30.5197
" />
<path d="M17.8774 30.5197
L17.9983 30.4593
" />
<path d="M17.9983 30.4593
L18.0588 30.3988
" />
<path d="M18.0588 30.3988
L18.1193 30.2778
" />
<path d="M18.1193 30.2778
L18.1193 30.0359
" />
<path d="M18.1193 30.0359
L18.0588 29.9150
" />
<path d="M18.0588 29.9150
L17.9983 29.8545
" />
<path d="M17.9983 29.8545
L17.8774 29.7940
" />
</g></g>
<g style="fill:none; 
stroke:#840000; stroke-width:0.1524; stroke-opacity:1; 
stroke-linecap:round; stroke-linejoin:round;">
<path d="M20.2964 33.4772
L15.2164 33.4772
" />
</g>
<g style="fill:none; 
stroke:#006464; stroke-width:0.1524; stroke-opacity:1; 
stroke-linecap:round; stroke-linejoin:round;">
<text x="21.3124" y="34.1122"
textLength="2.6827" font-size="1.6933" lengthAdjust="spacingAndGlyphs"
text-anchor="start" opacity="0" stroke-opacity="0">D6</text>
<g class="stroked-text"><desc>D6</desc>
<path d="M21.7149 34.0567
L21.7149 32.7867
" />
<path d="M21.7149 32.7867
L22.0173 32.7867
" />
<path d="M22.0173 32.7867
L22.1987 32.8472
" />
<path d="M22.1987 32.8472
L22.3197 32.9682
" />
<path d="M22.3197 32.9682
L22.3802 33.0891
" />
<path d="M22.3802 33.0891
L22.4406 33.3310
" />
<path d="M22.4406 33.3310
L22.4406 33.5124
" />
<path d="M22.4406 33.5124
L22.3802 33.7543
" />
<path d="M22.3802 33.7543
L22.3197 33.8753
" />
<path d="M22.3197 33.8753
L22.1987 33.9963
" />
<path d="M22.1987 33.9963
L22.0173 34.0567
" />
<path d="M22.0173 34.0567
L21.7149 34.0567
" />
<path d="M23.5292 32.7867
L23.2873 32.7867
" />
<path d="M23.2873 32.7867
L23.1664 32.8472
" />
<path d="M23.1664 32.8472
L23.1059 32.9077
" />
<path d="M23.1059 32.9077
L22.9849 33.0891
" />
<path d="M22.9849 33.0891
L22.9245 33.3310
" />
<path d="M22.9245 33.3310
L22.9245 33.8148
" />
<path d="M22.9245 33.8148
L22.9849 33.9358
" />
<path d="M22.9849 33.9358
L23.0454 33.9963
" />
<path d="M23.0454 33.9963
L23.1664 34.0567
" />
<path d="M23.1664 34.0567
L23.4083 34.0567
" />
<path d="M23.4083 34.0567
L23.5292 33.9963
" />
<path d="M23.5292 33.9963
L23.5897 33.9358
" />
<path d="M23.5897 33.9358
L23.6502 33.8148
" />
<path d="M23.6502 33.8148
L23.6502 33.5124
" />
<path d="M23.6502 33.5124
L23.5897 33.3915
" />
<path d="M23.5897 33.3915
L23.5292 33.3310
" />
<path d="M23.5292 33.3310
L23.4083 33.2705
" />
<path d="M23.4083 33.2705
L23.1664 33.2705
" />
<path d="M23.1664 33.2705
L23.0454 33.3310
" />
<path d="M23.0454 33.3310
L22.9849 33.3915
" />
<path d="M22.9849 33.3915
L22.9245 33.5124
" />
</g></g>
<g style="fill:none; 
stroke:#A90000; stroke-width:0.1524; stroke-opacity:1; 
stroke-linecap:round; stroke-linejoin:round;">
<text x="17.7564" y="33.2232"
textLength="1.4127" font-size="1.6933" lengthAdjust="spacingAndGlyphs"
text-anchor="middle" opacity="0" stroke-opacity="0">9</text>
<g class="stroked-text"><desc>9</desc>
<path d="M17.5145 33.0597
L17.7564 33.0597
" />
<path d="M17.7564 33.0597
L17.8774 32.9993
" />
<path d="M17.8774 32.9993
L17.9378 32.9388
" />
<path d="M17.9378 32.9388
L18.0588 32.7573
" />
<path d="M18.0588 32.7573
L18.1193 32.5154
" />
<path d="M18.1193 32.5154
L18.1193 32.0316
" />
<path d="M18.1193 32.0316
L18.0588 31.9107
" />
<path d="M18.0588 31.9107
L17.9983 31.8502
" />
<path d="M17.9983 31.8502
L17.8774 31.7897
" />
<path d="M17.8774 31.7897
L17.6355 31.7897
" />
<path d="M17.6355 31.7897
L17.5145 31.8502
" />
<path d="M17.5145 31.8502
L17.4540 31.9107
" />
<path d="M17.4540 31.9107
L17.3936 32.0316
" />
<path d="M17.3936 32.0316
L17.3936 32.3340
" />
<path d="M17.3936 32.3340
L17.4540 32.4550
" />
<path d="M17.4540 32.4550
L17.5145 32.5154
" />
<path d="M17.5145 32.5154
L17.6355 32.5759
" />
<path d="M17.6355 32.5759
L17.8774 32.5759
" />
<path d="M17.8774 32.5759
L17.9983 32.5154
" />
<path d="M17.9983 32.5154
L18.0588 32.4550
" />
<path d="M18.0588 32.4550
L18.1193 32.3340
" />
</g></g>
<g style="fill:none; 
stroke:#006464; stroke-width:0.1905; stroke-opacity:1; 
stroke-linecap:round; stroke-linejoin:round;">
<text x="32.9964" y="6.2993"
textLength="3.1697" font-size="2.0320" lengthAdjust="spacingAndGlyphs"
text-anchor="middle" opacity="0" stroke-opacity="0">U?</text>
<g class="stroked-text"><desc>U?</desc>
<path d="M31.9078 4.7083
L31.9078 5.9420
" />
<path d="M31.9078 5.9420
L31.9804 6.0872
" />
<path d="M31.9804 6.0872
L32.0530 6.1598
" />
<path d="M32.0530 6.1598
L32.1981 6.2323
" />
<path d="M32.1981 6.2323
L32.4884 6.2323
" />
<path d="M32.4884 6.2323
L32.6335 6.1598
" />
<path d="M32.6335 6.1598
L32.7061 6.0872
" />
<path d="M32.7061 6.0872
L32.7787 5.9420
" />
<path d="M32.7787 5.9420
L32.7787 4.7083
" />
<path d="M33.7221 6.0872
L33.7947 6.1598
" />
<path d="M33.7947 6.1598
L33.7221 6.2323
" />
<path d="M33.7221 6.2323
L33.6496 6.1598
" />
<path d="M33.6496 6.1598
L33.7221 6.0872
" />
<path d="M33.7221 6.0872
L33.7221 6.2323
" />
<path d="M33.4318 4.7809
L33.5770 4.7083
" />
<path d="M33.5770 4.7083
L33.9398 4.7083
" />
<path d="M33.9398 4.7083
L34.0850 4.7809
" />
<path d="M34.0850 4.7809
L34.1576 4.9260
" />
<path d="M34.1576 4.9260
L34.1576 5.0712
" />
<path d="M34.1576 5.0712
L34.0850 5.2163
" />
<path d="M34.0850 5.2163
L34.0124 5.2889
" />
<path d="M34.0124 5.2889
L33.8673 5.3615
" />
<path d="M33.8673 5.3615
L33.7947 5.4340
" />
<path d="M33.7947 5.4340
L33.7221 5.5792
" />
<path d="M33.7221 5.5792
L33.7221 5.6518
" />
</g><text x="32.9964" y="46.9393"
textLength="9.1204" font-size="2.0320" lengthAdjust="spacingAndGlyphs"
text-anchor="middle" opacity="0" stroke-opacity="0">KB2040</text>
<g class="stroked-text"><desc>KB2040</desc>
<path d="M28.9324 46.8723
L28.9324 45.3483
" />
<path d="M29.8033 46.8723
L29.1501 46.0015
" />
<path d="M29.8033 45.3483
L28.9324 46.2192
" />
<path d="M30.9644 46.0740
L31.1821 46.1466
" />
<path d="M31.1821 46.1466
L31.2547 46.2192
" />
<path d="M31.2547 46.2192
L31.3273 46.3643
" />
<path d="M31.3273 46.3643
L31.3273 46.5820
" />
<path d="M31.3273 46.5820
L31.2547 46.7272
" />
<path d="M31.2547 46.7272
L31.1821 46.7998
" />
<path d="M31.1821 46.7998
L31.0370 46.8723
" />
<path d="M31.0370 46.8723
L30.4564 46.8723
" />
<path d="M30.4564 46.8723
L30.4564 45.3483
" />
<path d="M30.4564 45.3483
L30.9644 45.3483
" />
<path d="M30.9644 45.3483
L31.1096 45.4209
" />
<path d="M31.1096 45.4209
L31.1821 45.4935
" />
<path d="M31.1821 45.4935
L31.2547 45.6386
" />
<path d="M31.2547 45.6386
L31.2547 45.7838
" />
<path d="M31.2547 45.7838
L31.1821 45.9289
" />
<path d="M31.1821 45.9289
L31.1096 46.0015
" />
<path d="M31.1096 46.0015
L30.9644 46.0740
" />
<path d="M30.9644 46.0740
L30.4564 46.0740
" />
<path d="M31.9078 45.4935
L31.9804 45.4209
" />
<path d="M31.9804 45.4209
L32.1256 45.3483
" />
<path d="M32.1256 45.3483
L32.4884 45.3483
" />
<path d="M32.4884 45.3483
L32.6336 45.4209
" />
<path d="M32.6336 45.4209
L32.7061 45.4935
" />
<path d="M32.7061 45.4935
L32.7787 45.6386
" />
<path d="M32.7787 45.6386
L32.7787 45.7838
" />
<path d="M32.7787 45.7838
L32.7061 46.0015
" />
<path d="M32.7061 46.0015
L31.8353 46.8723
" />
<path d="M31.8353 46.8723
L32.7787 46.8723
" />
<path d="M33.7221 45.3483
L33.8672 45.3483
" />
<path d="M33.8672 45.3483
L34.0124 45.4209
" />
<path d="M34.0124 45.4209
L34.0850 45.4935
" />
<path d="M34.0850 45.4935
L34.1575 45.6386
" />
<path d="M34.1575 45.6386
L34.2301 45.9289
" />
<path d="M34.2301 45.9289
L34.2301 46.2918
" />
<path d="M34.2301 46.2918
L34.1575 46.5820
" />
<path d="M34.1575 46.5820
L34.0850 46.7272
" />
<path d="M34.0850 46.7272
L34.0124 46.7998
" />
<path d="M34.0124 46.7998
L33.8672 46.8723
" />
<path d="M33.8672 46.8723
L33.7221 46.8723
" />
<path d="M33.7221 46.8723
L33.5770 46.7998
" />
<path d="M33.5770 46.7998
L33.5044 46.7272
" />
<path d="M33.5044 46.7272
L33.4318 46.5820
" />
<path d="M33.4318 46.5820
L33.3592 46.2918
" />
<path d="M33.3592 46.2918
L33.3592 45.9289
" />
<path d="M33.3592 45.9289
L33.4318 45.6386
" />
<path d="M33.4318 45.6386
L33.5044 45.4935
" />
<path d="M33.5044 45.4935
L33.5770 45.4209
" />
<path d="M33.5770 45.4209
L33.7221 45.3483
" />
<path d="M35.5364 45.8563
L35.5364 46.8723
" />
<path d="M35.1735 45.2758
L34.8106 46.3643
" />
<path d="M34.8106 46.3643
L35.7541 46.3643
" />
<path d="M36.6249 45.3483
L36.7700 45.3483
" />
<path d="M36.7700 45.3483
L36.9152 45.4209
" />
<path d="M36.9152 45.4209
L36.9878 45.4935
" />
<path d="M36.9878 45.4935
L37.0603 45.6386
" />
<path d="M37.0603 45.6386
L37.1329 45.9289
" />
<path d="M37.1329 45.9289
L37.1329 46.2918
" />
<path d="M37.1329 46.2918
L37.0603 46.5820
" />
<path d="M37.0603 46.5820
L36.9878 46.7272
" />
<path d="M36.9878 46.7272
L36.9152 46.7998
" />
<path d="M36.9152 46.7998
L36.7700 46.8723
" />
<path d="M36.7700 46.8723
L36.6249 46.8723
" />
<path d="M36.6249 46.8723
L36.4798 46.7998
" />
<path d="M36.4798 46.7998
L36.4072 46.7272
" />
<path d="M36.4072 46.7272
L36.3346 46.5820
" />
<path d="M36.3346 46.5820
L36.2620 46.2918
" />
<path d="M36.2620 46.2918
L36.2620 45.9289
" />
<path d="M36.2620 45.9289
L36.3346 45.6386
" />
<path d="M36.3346 45.6386
L36.4072 45.4935
" />
<path d="M36.4072 45.4935
L36.4798 45.4209
" />
<path d="M36.4798 45.4209
L36.6249 45.3483
" />
</g></g> 
</svg>
