<?xml version="1.0" standalone="no"?>
 <!DOCTYPE svg PUBLIC "-//W3C//DTD SVG 1.1//EN" 
 "http://www.w3.org/Graphics/SVG/1.1/DTD/svg11.dtd"> 
<svg
  xmlns:svg="http://www.w3.org/2000/svg"
  xmlns="http://www.w3.org/2000/svg"
  xmlns:xlink="http://www.w3.org/1999/xlink"
  version="1.1"
  width="66.4464mm" height="48.6664mm" viewBox="0.0000 0.0000 66.4464 48.6664">
<title>SVG Image created as promicro_atmega32u4.svg date 2025/01/29 14:37:54 </title>
  <desc>Image generated by Eeschema-SVG </desc>
<g style="fill:#000000; fill-opacity:1.0000;stroke:#000000; stroke-opacity:1.0000;
stroke-linecap:round; stroke-linejoin:round;"
 transform="translate(0 0) scale(1 1)">
</g>
<g style="fill:#FFFFC2; fill-opacity:1.0000; stroke:none;">
<rect x="20.296400" y="7.823200" width="25.400000" height="33.020000" rx="0.000000" />
</g>
<g style="fill:none; 
stroke:#840000; stroke-width:0.1524; stroke-opacity:1; 
stroke-linecap:round; stroke-linejoin:round;">
<rect x="20.296400" y="7.823200" width="25.400000" height="33.020000" rx="0.000000" />
<path d="M20.2964 10.3632
L15.2164 10.3632
" />
</g>
<g style="fill:none; 
stroke:#006464; stroke-width:0.1524; stroke-opacity:1; 
stroke-linecap:round; stroke-linejoin:round;">
<text x="21.3124" y="10.9982"
textLength="7.3998" font-size="1.6933" lengthAdjust="spacingAndGlyphs"
text-anchor="start" opacity="0" stroke-opacity="0">TX0/D3</text>
<g class="stroked-text"><desc>TX0/D3</desc>
<path d="M21.5335 9.6727
L22.2592 9.6727
" />
<path d="M21.8964 10.9427
L21.8964 9.6727
" />
<path d="M22.5616 9.6727
L23.4082 10.9427
" />
<path d="M23.4082 9.6727
L22.5616 10.9427
" />
<path d="M24.1339 9.6727
L24.2549 9.6727
" />
<path d="M24.2549 9.6727
L24.3758 9.7332
" />
<path d="M24.3758 9.7332
L24.4363 9.7937
" />
<path d="M24.4363 9.7937
L24.4968 9.9146
" />
<path d="M24.4968 9.9146
L24.5573 10.1565
" />
<path d="M24.5573 10.1565
L24.5573 10.4589
" />
<path d="M24.5573 10.4589
L24.4968 10.7008
" />
<path d="M24.4968 10.7008
L24.4363 10.8218
" />
<path d="M24.4363 10.8218
L24.3758 10.8823
" />
<path d="M24.3758 10.8823
L24.2549 10.9427
" />
<path d="M24.2549 10.9427
L24.1339 10.9427
" />
<path d="M24.1339 10.9427
L24.0130 10.8823
" />
<path d="M24.0130 10.8823
L23.9525 10.8218
" />
<path d="M23.9525 10.8218
L23.8920 10.7008
" />
<path d="M23.8920 10.7008
L23.8316 10.4589
" />
<path d="M23.8316 10.4589
L23.8316 10.1565
" />
<path d="M23.8316 10.1565
L23.8920 9.9146
" />
<path d="M23.8920 9.9146
L23.9525 9.7937
" />
<path d="M23.9525 9.7937
L24.0130 9.7332
" />
<path d="M24.0130 9.7332
L24.1339 9.6727
" />
<path d="M26.0087 9.6123
L24.9201 11.2451
" />
<path d="M26.4320 10.9427
L26.4320 9.6727
" />
<path d="M26.4320 9.6727
L26.7344 9.6727
" />
<path d="M26.7344 9.6727
L26.9158 9.7332
" />
<path d="M26.9158 9.7332
L27.0368 9.8542
" />
<path d="M27.0368 9.8542
L27.0973 9.9751
" />
<path d="M27.0973 9.9751
L27.1577 10.2170
" />
<path d="M27.1577 10.2170
L27.1577 10.3984
" />
<path d="M27.1577 10.3984
L27.0973 10.6403
" />
<path d="M27.0973 10.6403
L27.0368 10.7613
" />
<path d="M27.0368 10.7613
L26.9158 10.8823
" />
<path d="M26.9158 10.8823
L26.7344 10.9427
" />
<path d="M26.7344 10.9427
L26.4320 10.9427
" />
<path d="M27.5811 9.6727
L28.3673 9.6727
" />
<path d="M28.3673 9.6727
L27.9439 10.1565
" />
<path d="M27.9439 10.1565
L28.1254 10.1565
" />
<path d="M28.1254 10.1565
L28.2463 10.2170
" />
<path d="M28.2463 10.2170
L28.3068 10.2775
" />
<path d="M28.3068 10.2775
L28.3673 10.3984
" />
<path d="M28.3673 10.3984
L28.3673 10.7008
" />
<path d="M28.3673 10.7008
L28.3068 10.8218
" />
<path d="M28.3068 10.8218
L28.2463 10.8823
" />
<path d="M28.2463 10.8823
L28.1254 10.9427
" />
<path d="M28.1254 10.9427
L27.7625 10.9427
" />
<path d="M27.7625 10.9427
L27.6416 10.8823
" />
<path d="M27.6416 10.8823
L27.5811 10.8218
" />
</g></g>
<g style="fill:none; 
stroke:#A90000; stroke-width:0.1524; stroke-opacity:1; 
stroke-linecap:round; stroke-linejoin:round;">
<text x="17.7564" y="10.1092"
textLength="1.4127" font-size="1.6933" lengthAdjust="spacingAndGlyphs"
text-anchor="middle" opacity="0" stroke-opacity="0">1</text>
<g class="stroked-text"><desc>1</desc>
<path d="M18.1193 9.9457
L17.3936 9.9457
" />
<path d="M17.7564 9.9457
L17.7564 8.6757
" />
<path d="M17.7564 8.6757
L17.6355 8.8572
" />
<path d="M17.6355 8.8572
L17.5145 8.9781
" />
<path d="M17.5145 8.9781
L17.3936 9.0386
" />
</g></g>
<g style="fill:none; 
stroke:#840000; stroke-width:0.1524; stroke-opacity:1; 
stroke-linecap:round; stroke-linejoin:round;">
<path d="M20.2964 33.2232
L15.2164 33.2232
" />
</g>
<g style="fill:none; 
stroke:#006464; stroke-width:0.1524; stroke-opacity:1; 
stroke-linecap:round; stroke-linejoin:round;">
<text x="21.3124" y="33.8582"
textLength="5.1017" font-size="1.6933" lengthAdjust="spacingAndGlyphs"
text-anchor="start" opacity="0" stroke-opacity="0">7/E6</text>
<g class="stroked-text"><desc>7/E6</desc>
<path d="M21.5940 32.5327
L22.4406 32.5327
" />
<path d="M22.4406 32.5327
L21.8964 33.8027
" />
<path d="M23.8316 32.4723
L22.7430 34.1051
" />
<path d="M24.2549 33.1375
L24.6783 33.1375
" />
<path d="M24.8597 33.8027
L24.2549 33.8027
" />
<path d="M24.2549 33.8027
L24.2549 32.5327
" />
<path d="M24.2549 32.5327
L24.8597 32.5327
" />
<path d="M25.9482 32.5327
L25.7063 32.5327
" />
<path d="M25.7063 32.5327
L25.5854 32.5932
" />
<path d="M25.5854 32.5932
L25.5249 32.6537
" />
<path d="M25.5249 32.6537
L25.4039 32.8351
" />
<path d="M25.4039 32.8351
L25.3435 33.0770
" />
<path d="M25.3435 33.0770
L25.3435 33.5608
" />
<path d="M25.3435 33.5608
L25.4039 33.6818
" />
<path d="M25.4039 33.6818
L25.4644 33.7423
" />
<path d="M25.4644 33.7423
L25.5854 33.8027
" />
<path d="M25.5854 33.8027
L25.8273 33.8027
" />
<path d="M25.8273 33.8027
L25.9482 33.7423
" />
<path d="M25.9482 33.7423
L26.0087 33.6818
" />
<path d="M26.0087 33.6818
L26.0692 33.5608
" />
<path d="M26.0692 33.5608
L26.0692 33.2584
" />
<path d="M26.0692 33.2584
L26.0087 33.1375
" />
<path d="M26.0087 33.1375
L25.9482 33.0770
" />
<path d="M25.9482 33.0770
L25.8273 33.0165
" />
<path d="M25.8273 33.0165
L25.5854 33.0165
" />
<path d="M25.5854 33.0165
L25.4644 33.0770
" />
<path d="M25.4644 33.0770
L25.4039 33.1375
" />
<path d="M25.4039 33.1375
L25.3435 33.2584
" />
</g></g>
<g style="fill:none; 
stroke:#A90000; stroke-width:0.1524; stroke-opacity:1; 
stroke-linecap:round; stroke-linejoin:round;">
<text x="17.7564" y="32.9692"
textLength="2.6222" font-size="1.6933" lengthAdjust="spacingAndGlyphs"
text-anchor="middle" opacity="0" stroke-opacity="0">10</text>
<g class="stroked-text"><desc>10</desc>
<path d="M17.5145 32.8057
L16.7888 32.8057
" />
<path d="M17.1516 32.8057
L17.1516 31.5357
" />
<path d="M17.1516 31.5357
L17.0307 31.7172
" />
<path d="M17.0307 31.7172
L16.9097 31.8381
" />
<path d="M16.9097 31.8381
L16.7888 31.8986
" />
<path d="M18.3006 31.5357
L18.4216 31.5357
" />
<path d="M18.4216 31.5357
L18.5425 31.5962
" />
<path d="M18.5425 31.5962
L18.6030 31.6567
" />
<path d="M18.6030 31.6567
L18.6635 31.7776
" />
<path d="M18.6635 31.7776
L18.7240 32.0195
" />
<path d="M18.7240 32.0195
L18.7240 32.3219
" />
<path d="M18.7240 32.3219
L18.6635 32.5638
" />
<path d="M18.6635 32.5638
L18.6030 32.6848
" />
<path d="M18.6030 32.6848
L18.5425 32.7453
" />
<path d="M18.5425 32.7453
L18.4216 32.8057
" />
<path d="M18.4216 32.8057
L18.3006 32.8057
" />
<path d="M18.3006 32.8057
L18.1797 32.7453
" />
<path d="M18.1797 32.7453
L18.1192 32.6848
" />
<path d="M18.1192 32.6848
L18.0587 32.5638
" />
<path d="M18.0587 32.5638
L17.9983 32.3219
" />
<path d="M17.9983 32.3219
L17.9983 32.0195
" />
<path d="M17.9983 32.0195
L18.0587 31.7776
" />
<path d="M18.0587 31.7776
L18.1192 31.6567
" />
<path d="M18.1192 31.6567
L18.1797 31.5962
" />
<path d="M18.1797 31.5962
L18.3006 31.5357
" />
</g></g>
<g style="fill:none; 
stroke:#840000; stroke-width:0.1524; stroke-opacity:1; 
stroke-linecap:round; stroke-linejoin:round;">
<path d="M20.2964 35.7632
L15.2164 35.7632
" />
</g>
<g style="fill:none; 
stroke:#006464; stroke-width:0.1524; stroke-opacity:1; 
stroke-linecap:round; stroke-linejoin:round;">
<text x="21.3124" y="36.3982"
textLength="5.2227" font-size="1.6933" lengthAdjust="spacingAndGlyphs"
text-anchor="start" opacity="0" stroke-opacity="0">8/B4</text>
<g class="stroked-text"><desc>8/B4</desc>
<path d="M21.8964 35.6170
L21.7754 35.5565
" />
<path d="M21.7754 35.5565
L21.7149 35.4961
" />
<path d="M21.7149 35.4961
L21.6545 35.3751
" />
<path d="M21.6545 35.3751
L21.6545 35.3146
" />
<path d="M21.6545 35.3146
L21.7149 35.1937
" />
<path d="M21.7149 35.1937
L21.7754 35.1332
" />
<path d="M21.7754 35.1332
L21.8964 35.0727
" />
<path d="M21.8964 35.0727
L22.1383 35.0727
" />
<path d="M22.1383 35.0727
L22.2592 35.1332
" />
<path d="M22.2592 35.1332
L22.3197 35.1937
" />
<path d="M22.3197 35.1937
L22.3802 35.3146
" />
<path d="M22.3802 35.3146
L22.3802 35.3751
" />
<path d="M22.3802 35.3751
L22.3197 35.4961
" />
<path d="M22.3197 35.4961
L22.2592 35.5565
" />
<path d="M22.2592 35.5565
L22.1383 35.6170
" />
<path d="M22.1383 35.6170
L21.8964 35.6170
" />
<path d="M21.8964 35.6170
L21.7754 35.6775
" />
<path d="M21.7754 35.6775
L21.7149 35.7380
" />
<path d="M21.7149 35.7380
L21.6545 35.8589
" />
<path d="M21.6545 35.8589
L21.6545 36.1008
" />
<path d="M21.6545 36.1008
L21.7149 36.2218
" />
<path d="M21.7149 36.2218
L21.7754 36.2823
" />
<path d="M21.7754 36.2823
L21.8964 36.3427
" />
<path d="M21.8964 36.3427
L22.1383 36.3427
" />
<path d="M22.1383 36.3427
L22.2592 36.2823
" />
<path d="M22.2592 36.2823
L22.3197 36.2218
" />
<path d="M22.3197 36.2218
L22.3802 36.1008
" />
<path d="M22.3802 36.1008
L22.3802 35.8589
" />
<path d="M22.3802 35.8589
L22.3197 35.7380
" />
<path d="M22.3197 35.7380
L22.2592 35.6775
" />
<path d="M22.2592 35.6775
L22.1383 35.6170
" />
<path d="M23.8316 35.0123
L22.7430 36.6451
" />
<path d="M24.6783 35.6775
L24.8597 35.7380
" />
<path d="M24.8597 35.7380
L24.9202 35.7984
" />
<path d="M24.9202 35.7984
L24.9806 35.9194
" />
<path d="M24.9806 35.9194
L24.9806 36.1008
" />
<path d="M24.9806 36.1008
L24.9202 36.2218
" />
<path d="M24.9202 36.2218
L24.8597 36.2823
" />
<path d="M24.8597 36.2823
L24.7387 36.3427
" />
<path d="M24.7387 36.3427
L24.2549 36.3427
" />
<path d="M24.2549 36.3427
L24.2549 35.0727
" />
<path d="M24.2549 35.0727
L24.6783 35.0727
" />
<path d="M24.6783 35.0727
L24.7992 35.1332
" />
<path d="M24.7992 35.1332
L24.8597 35.1937
" />
<path d="M24.8597 35.1937
L24.9202 35.3146
" />
<path d="M24.9202 35.3146
L24.9202 35.4356
" />
<path d="M24.9202 35.4356
L24.8597 35.5565
" />
<path d="M24.8597 35.5565
L24.7992 35.6170
" />
<path d="M24.7992 35.6170
L24.6783 35.6775
" />
<path d="M24.6783 35.6775
L24.2549 35.6775
" />
<path d="M26.0692 35.4961
L26.0692 36.3427
" />
<path d="M25.7668 35.0123
L25.4645 35.9194
" />
<path d="M25.4645 35.9194
L26.2506 35.9194
" />
</g></g>
<g style="fill:none; 
stroke:#A90000; stroke-width:0.1524; stroke-opacity:1; 
stroke-linecap:round; stroke-linejoin:round;">
<text x="17.7564" y="35.5092"
textLength="2.6222" font-size="1.6933" lengthAdjust="spacingAndGlyphs"
text-anchor="middle" opacity="0" stroke-opacity="0">11</text>
<g class="stroked-text"><desc>11</desc>
<path d="M17.5145 35.3457
L16.7888 35.3457
" />
<path d="M17.1516 35.3457
L17.1516 34.0757
" />
<path d="M17.1516 34.0757
L17.0307 34.2572
" />
<path d="M17.0307 34.2572
L16.9097 34.3781
" />
<path d="M16.9097 34.3781
L16.7888 34.4386
" />
<path d="M18.7240 35.3457
L17.9983 35.3457
" />
<path d="M18.3611 35.3457
L18.3611 34.0757
" />
<path d="M18.3611 34.0757
L18.2402 34.2572
" />
<path d="M18.2402 34.2572
L18.1192 34.3781
" />
<path d="M18.1192 34.3781
L17.9983 34.4386
" />
</g></g>
<g style="fill:none; 
stroke:#840000; stroke-width:0.1524; stroke-opacity:1; 
stroke-linecap:round; stroke-linejoin:round;">
<path d="M20.2964 38.3032
L15.2164 38.3032
" />
</g>
<g style="fill:none; 
stroke:#006464; stroke-width:0.1524; stroke-opacity:1; 
stroke-linecap:round; stroke-linejoin:round;">
<text x="21.3124" y="38.9382"
textLength="5.2227" font-size="1.6933" lengthAdjust="spacingAndGlyphs"
text-anchor="start" opacity="0" stroke-opacity="0">9/B5</text>
<g class="stroked-text"><desc>9/B5</desc>
<path d="M21.7754 38.8827
L22.0173 38.8827
" />
<path d="M22.0173 38.8827
L22.1383 38.8223
" />
<path d="M22.1383 38.8223
L22.1987 38.7618
" />
<path d="M22.1987 38.7618
L22.3197 38.5803
" />
<path d="M22.3197 38.5803
L22.3802 38.3384
" />
<path d="M22.3802 38.3384
L22.3802 37.8546
" />
<path d="M22.3802 37.8546
L22.3197 37.7337
" />
<path d="M22.3197 37.7337
L22.2592 37.6732
" />
<path d="M22.2592 37.6732
L22.1383 37.6127
" />
<path d="M22.1383 37.6127
L21.8964 37.6127
" />
<path d="M21.8964 37.6127
L21.7754 37.6732
" />
<path d="M21.7754 37.6732
L21.7149 37.7337
" />
<path d="M21.7149 37.7337
L21.6545 37.8546
" />
<path d="M21.6545 37.8546
L21.6545 38.1570
" />
<path d="M21.6545 38.1570
L21.7149 38.2780
" />
<path d="M21.7149 38.2780
L21.7754 38.3384
" />
<path d="M21.7754 38.3384
L21.8964 38.3989
" />
<path d="M21.8964 38.3989
L22.1383 38.3989
" />
<path d="M22.1383 38.3989
L22.2592 38.3384
" />
<path d="M22.2592 38.3384
L22.3197 38.2780
" />
<path d="M22.3197 38.2780
L22.3802 38.1570
" />
<path d="M23.8316 37.5523
L22.7430 39.1851
" />
<path d="M24.6783 38.2175
L24.8597 38.2780
" />
<path d="M24.8597 38.2780
L24.9202 38.3384
" />
<path d="M24.9202 38.3384
L24.9806 38.4594
" />
<path d="M24.9806 38.4594
L24.9806 38.6408
" />
<path d="M24.9806 38.6408
L24.9202 38.7618
" />
<path d="M24.9202 38.7618
L24.8597 38.8223
" />
<path d="M24.8597 38.8223
L24.7387 38.8827
" />
<path d="M24.7387 38.8827
L24.2549 38.8827
" />
<path d="M24.2549 38.8827
L24.2549 37.6127
" />
<path d="M24.2549 37.6127
L24.6783 37.6127
" />
<path d="M24.6783 37.6127
L24.7992 37.6732
" />
<path d="M24.7992 37.6732
L24.8597 37.7337
" />
<path d="M24.8597 37.7337
L24.9202 37.8546
" />
<path d="M24.9202 37.8546
L24.9202 37.9756
" />
<path d="M24.9202 37.9756
L24.8597 38.0965
" />
<path d="M24.8597 38.0965
L24.7992 38.1570
" />
<path d="M24.7992 38.1570
L24.6783 38.2175
" />
<path d="M24.6783 38.2175
L24.2549 38.2175
" />
<path d="M26.1297 37.6127
L25.5249 37.6127
" />
<path d="M25.5249 37.6127
L25.4645 38.2175
" />
<path d="M25.4645 38.2175
L25.5249 38.1570
" />
<path d="M25.5249 38.1570
L25.6459 38.0965
" />
<path d="M25.6459 38.0965
L25.9483 38.0965
" />
<path d="M25.9483 38.0965
L26.0692 38.1570
" />
<path d="M26.0692 38.1570
L26.1297 38.2175
" />
<path d="M26.1297 38.2175
L26.1902 38.3384
" />
<path d="M26.1902 38.3384
L26.1902 38.6408
" />
<path d="M26.1902 38.6408
L26.1297 38.7618
" />
<path d="M26.1297 38.7618
L26.0692 38.8223
" />
<path d="M26.0692 38.8223
L25.9483 38.8827
" />
<path d="M25.9483 38.8827
L25.6459 38.8827
" />
<path d="M25.6459 38.8827
L25.5249 38.8223
" />
<path d="M25.5249 38.8223
L25.4645 38.7618
" />
</g></g>
<g style="fill:none; 
stroke:#A90000; stroke-width:0.1524; stroke-opacity:1; 
stroke-linecap:round; stroke-linejoin:round;">
<text x="17.7564" y="38.0492"
textLength="2.6222" font-size="1.6933" lengthAdjust="spacingAndGlyphs"
text-anchor="middle" opacity="0" stroke-opacity="0">12</text>
<g class="stroked-text"><desc>12</desc>
<path d="M17.5145 37.8857
L16.7888 37.8857
" />
<path d="M17.1516 37.8857
L17.1516 36.6157
" />
<path d="M17.1516 36.6157
L17.0307 36.7972
" />
<path d="M17.0307 36.7972
L16.9097 36.9181
" />
<path d="M16.9097 36.9181
L16.7888 36.9786
" />
<path d="M17.9983 36.7367
L18.0587 36.6762
" />
<path d="M18.0587 36.6762
L18.1797 36.6157
" />
<path d="M18.1797 36.6157
L18.4821 36.6157
" />
<path d="M18.4821 36.6157
L18.6030 36.6762
" />
<path d="M18.6030 36.6762
L18.6635 36.7367
" />
<path d="M18.6635 36.7367
L18.7240 36.8576
" />
<path d="M18.7240 36.8576
L18.7240 36.9786
" />
<path d="M18.7240 36.9786
L18.6635 37.1600
" />
<path d="M18.6635 37.1600
L17.9378 37.8857
" />
<path d="M17.9378 37.8857
L18.7240 37.8857
" />
</g></g>
<g style="fill:none; 
stroke:#840000; stroke-width:0.1524; stroke-opacity:1; 
stroke-linecap:round; stroke-linejoin:round;">
<path d="M45.6964 38.3032
L50.7764 38.3032
" />
</g>
<g style="fill:none; 
stroke:#006464; stroke-width:0.1524; stroke-opacity:1; 
stroke-linecap:round; stroke-linejoin:round;">
<text x="44.6804" y="38.9382"
textLength="6.4322" font-size="1.6933" lengthAdjust="spacingAndGlyphs"
text-anchor="end" opacity="0" stroke-opacity="0">B6/10</text>
<g class="stroked-text"><desc>B6/10</desc>
<path d="M39.0769 38.2175
L39.2583 38.2780
" />
<path d="M39.2583 38.2780
L39.3188 38.3384
" />
<path d="M39.3188 38.3384
L39.3792 38.4594
" />
<path d="M39.3792 38.4594
L39.3792 38.6408
" />
<path d="M39.3792 38.6408
L39.3188 38.7618
" />
<path d="M39.3188 38.7618
L39.2583 38.8223
" />
<path d="M39.2583 38.8223
L39.1373 38.8827
" />
<path d="M39.1373 38.8827
L38.6535 38.8827
" />
<path d="M38.6535 38.8827
L38.6535 37.6127
" />
<path d="M38.6535 37.6127
L39.0769 37.6127
" />
<path d="M39.0769 37.6127
L39.1978 37.6732
" />
<path d="M39.1978 37.6732
L39.2583 37.7337
" />
<path d="M39.2583 37.7337
L39.3188 37.8546
" />
<path d="M39.3188 37.8546
L39.3188 37.9756
" />
<path d="M39.3188 37.9756
L39.2583 38.0965
" />
<path d="M39.2583 38.0965
L39.1978 38.1570
" />
<path d="M39.1978 38.1570
L39.0769 38.2175
" />
<path d="M39.0769 38.2175
L38.6535 38.2175
" />
<path d="M40.4678 37.6127
L40.2259 37.6127
" />
<path d="M40.2259 37.6127
L40.1050 37.6732
" />
<path d="M40.1050 37.6732
L40.0445 37.7337
" />
<path d="M40.0445 37.7337
L39.9235 37.9151
" />
<path d="M39.9235 37.9151
L39.8631 38.1570
" />
<path d="M39.8631 38.1570
L39.8631 38.6408
" />
<path d="M39.8631 38.6408
L39.9235 38.7618
" />
<path d="M39.9235 38.7618
L39.9840 38.8223
" />
<path d="M39.9840 38.8223
L40.1050 38.8827
" />
<path d="M40.1050 38.8827
L40.3469 38.8827
" />
<path d="M40.3469 38.8827
L40.4678 38.8223
" />
<path d="M40.4678 38.8223
L40.5283 38.7618
" />
<path d="M40.5283 38.7618
L40.5888 38.6408
" />
<path d="M40.5888 38.6408
L40.5888 38.3384
" />
<path d="M40.5888 38.3384
L40.5283 38.2175
" />
<path d="M40.5283 38.2175
L40.4678 38.1570
" />
<path d="M40.4678 38.1570
L40.3469 38.0965
" />
<path d="M40.3469 38.0965
L40.1050 38.0965
" />
<path d="M40.1050 38.0965
L39.9840 38.1570
" />
<path d="M39.9840 38.1570
L39.9235 38.2175
" />
<path d="M39.9235 38.2175
L39.8631 38.3384
" />
<path d="M42.0402 37.5523
L40.9516 39.1851
" />
<path d="M43.1288 38.8827
L42.4031 38.8827
" />
<path d="M42.7659 38.8827
L42.7659 37.6127
" />
<path d="M42.7659 37.6127
L42.6450 37.7942
" />
<path d="M42.6450 37.7942
L42.5240 37.9151
" />
<path d="M42.5240 37.9151
L42.4031 37.9756
" />
<path d="M43.9149 37.6127
L44.0359 37.6127
" />
<path d="M44.0359 37.6127
L44.1568 37.6732
" />
<path d="M44.1568 37.6732
L44.2173 37.7337
" />
<path d="M44.2173 37.7337
L44.2778 37.8546
" />
<path d="M44.2778 37.8546
L44.3383 38.0965
" />
<path d="M44.3383 38.0965
L44.3383 38.3989
" />
<path d="M44.3383 38.3989
L44.2778 38.6408
" />
<path d="M44.2778 38.6408
L44.2173 38.7618
" />
<path d="M44.2173 38.7618
L44.1568 38.8223
" />
<path d="M44.1568 38.8223
L44.0359 38.8827
" />
<path d="M44.0359 38.8827
L43.9149 38.8827
" />
<path d="M43.9149 38.8827
L43.7940 38.8223
" />
<path d="M43.7940 38.8223
L43.7335 38.7618
" />
<path d="M43.7335 38.7618
L43.6730 38.6408
" />
<path d="M43.6730 38.6408
L43.6126 38.3989
" />
<path d="M43.6126 38.3989
L43.6126 38.0965
" />
<path d="M43.6126 38.0965
L43.6730 37.8546
" />
<path d="M43.6730 37.8546
L43.7335 37.7337
" />
<path d="M43.7335 37.7337
L43.7940 37.6732
" />
<path d="M43.7940 37.6732
L43.9149 37.6127
" />
</g></g>
<g style="fill:none; 
stroke:#A90000; stroke-width:0.1524; stroke-opacity:1; 
stroke-linecap:round; stroke-linejoin:round;">
<text x="48.2364" y="38.0492"
textLength="2.6222" font-size="1.6933" lengthAdjust="spacingAndGlyphs"
text-anchor="middle" opacity="0" stroke-opacity="0">13</text>
<g class="stroked-text"><desc>13</desc>
<path d="M47.9945 37.8857
L47.2688 37.8857
" />
<path d="M47.6316 37.8857
L47.6316 36.6157
" />
<path d="M47.6316 36.6157
L47.5107 36.7972
" />
<path d="M47.5107 36.7972
L47.3897 36.9181
" />
<path d="M47.3897 36.9181
L47.2688 36.9786
" />
<path d="M48.4178 36.6157
L49.2040 36.6157
" />
<path d="M49.2040 36.6157
L48.7806 37.0995
" />
<path d="M48.7806 37.0995
L48.9621 37.0995
" />
<path d="M48.9621 37.0995
L49.0830 37.1600
" />
<path d="M49.0830 37.1600
L49.1435 37.2205
" />
<path d="M49.1435 37.2205
L49.2040 37.3414
" />
<path d="M49.2040 37.3414
L49.2040 37.6438
" />
<path d="M49.2040 37.6438
L49.1435 37.7648
" />
<path d="M49.1435 37.7648
L49.0830 37.8253
" />
<path d="M49.0830 37.8253
L48.9621 37.8857
" />
<path d="M48.9621 37.8857
L48.5992 37.8857
" />
<path d="M48.5992 37.8857
L48.4783 37.8253
" />
<path d="M48.4783 37.8253
L48.4178 37.7648
" />
</g></g>
<g style="fill:none; 
stroke:#840000; stroke-width:0.1524; stroke-opacity:1; 
stroke-linecap:round; stroke-linejoin:round;">
<path d="M45.6964 35.7632
L50.7764 35.7632
" />
</g>
<g style="fill:none; 
stroke:#006464; stroke-width:0.1524; stroke-opacity:1; 
stroke-linecap:round; stroke-linejoin:round;">
<text x="44.6804" y="36.3982"
textLength="6.4322" font-size="1.6933" lengthAdjust="spacingAndGlyphs"
text-anchor="end" opacity="0" stroke-opacity="0">B2/16</text>
<g class="stroked-text"><desc>B2/16</desc>
<path d="M39.0769 35.6775
L39.2583 35.7380
" />
<path d="M39.2583 35.7380
L39.3188 35.7984
" />
<path d="M39.3188 35.7984
L39.3792 35.9194
" />
<path d="M39.3792 35.9194
L39.3792 36.1008
" />
<path d="M39.3792 36.1008
L39.3188 36.2218
" />
<path d="M39.3188 36.2218
L39.2583 36.2823
" />
<path d="M39.2583 36.2823
L39.1373 36.3427
" />
<path d="M39.1373 36.3427
L38.6535 36.3427
" />
<path d="M38.6535 36.3427
L38.6535 35.0727
" />
<path d="M38.6535 35.0727
L39.0769 35.0727
" />
<path d="M39.0769 35.0727
L39.1978 35.1332
" />
<path d="M39.1978 35.1332
L39.2583 35.1937
" />
<path d="M39.2583 35.1937
L39.3188 35.3146
" />
<path d="M39.3188 35.3146
L39.3188 35.4356
" />
<path d="M39.3188 35.4356
L39.2583 35.5565
" />
<path d="M39.2583 35.5565
L39.1978 35.6170
" />
<path d="M39.1978 35.6170
L39.0769 35.6775
" />
<path d="M39.0769 35.6775
L38.6535 35.6775
" />
<path d="M39.8631 35.1937
L39.9235 35.1332
" />
<path d="M39.9235 35.1332
L40.0445 35.0727
" />
<path d="M40.0445 35.0727
L40.3469 35.0727
" />
<path d="M40.3469 35.0727
L40.4678 35.1332
" />
<path d="M40.4678 35.1332
L40.5283 35.1937
" />
<path d="M40.5283 35.1937
L40.5888 35.3146
" />
<path d="M40.5888 35.3146
L40.5888 35.4356
" />
<path d="M40.5888 35.4356
L40.5283 35.6170
" />
<path d="M40.5283 35.6170
L39.8026 36.3427
" />
<path d="M39.8026 36.3427
L40.5888 36.3427
" />
<path d="M42.0402 35.0123
L40.9516 36.6451
" />
<path d="M43.1288 36.3427
L42.4031 36.3427
" />
<path d="M42.7659 36.3427
L42.7659 35.0727
" />
<path d="M42.7659 35.0727
L42.6450 35.2542
" />
<path d="M42.6450 35.2542
L42.5240 35.3751
" />
<path d="M42.5240 35.3751
L42.4031 35.4356
" />
<path d="M44.2173 35.0727
L43.9754 35.0727
" />
<path d="M43.9754 35.0727
L43.8545 35.1332
" />
<path d="M43.8545 35.1332
L43.7940 35.1937
" />
<path d="M43.7940 35.1937
L43.6730 35.3751
" />
<path d="M43.6730 35.3751
L43.6126 35.6170
" />
<path d="M43.6126 35.6170
L43.6126 36.1008
" />
<path d="M43.6126 36.1008
L43.6730 36.2218
" />
<path d="M43.6730 36.2218
L43.7335 36.2823
" />
<path d="M43.7335 36.2823
L43.8545 36.3427
" />
<path d="M43.8545 36.3427
L44.0964 36.3427
" />
<path d="M44.0964 36.3427
L44.2173 36.2823
" />
<path d="M44.2173 36.2823
L44.2778 36.2218
" />
<path d="M44.2778 36.2218
L44.3383 36.1008
" />
<path d="M44.3383 36.1008
L44.3383 35.7984
" />
<path d="M44.3383 35.7984
L44.2778 35.6775
" />
<path d="M44.2778 35.6775
L44.2173 35.6170
" />
<path d="M44.2173 35.6170
L44.0964 35.5565
" />
<path d="M44.0964 35.5565
L43.8545 35.5565
" />
<path d="M43.8545 35.5565
L43.7335 35.6170
" />
<path d="M43.7335 35.6170
L43.6730 35.6775
" />
<path d="M43.6730 35.6775
L43.6126 35.7984
" />
</g></g>
<g style="fill:none; 
stroke:#A90000; stroke-width:0.1524; stroke-opacity:1; 
stroke-linecap:round; stroke-linejoin:round;">
<text x="48.2364" y="35.5092"
textLength="2.6222" font-size="1.6933" lengthAdjust="spacingAndGlyphs"
text-anchor="middle" opacity="0" stroke-opacity="0">14</text>
<g class="stroked-text"><desc>14</desc>
<path d="M47.9945 35.3457
L47.2688 35.3457
" />
<path d="M47.6316 35.3457
L47.6316 34.0757
" />
<path d="M47.6316 34.0757
L47.5107 34.2572
" />
<path d="M47.5107 34.2572
L47.3897 34.3781
" />
<path d="M47.3897 34.3781
L47.2688 34.4386
" />
<path d="M49.0830 34.4991
L49.0830 35.3457
" />
<path d="M48.7806 34.0153
L48.4783 34.9224
" />
<path d="M48.4783 34.9224
L49.2644 34.9224
" />
</g></g>
<g style="fill:none; 
stroke:#840000; stroke-width:0.1524; stroke-opacity:1; 
stroke-linecap:round; stroke-linejoin:round;">
<path d="M45.6964 33.2232
L50.7764 33.2232
" />
</g>
<g style="fill:none; 
stroke:#006464; stroke-width:0.1524; stroke-opacity:1; 
stroke-linecap:round; stroke-linejoin:round;">
<text x="44.6804" y="33.8582"
textLength="6.4322" font-size="1.6933" lengthAdjust="spacingAndGlyphs"
text-anchor="end" opacity="0" stroke-opacity="0">B3/14</text>
<g class="stroked-text"><desc>B3/14</desc>
<path d="M39.0769 33.1375
L39.2583 33.1980
" />
<path d="M39.2583 33.1980
L39.3188 33.2584
" />
<path d="M39.3188 33.2584
L39.3792 33.3794
" />
<path d="M39.3792 33.3794
L39.3792 33.5608
" />
<path d="M39.3792 33.5608
L39.3188 33.6818
" />
<path d="M39.3188 33.6818
L39.2583 33.7423
" />
<path d="M39.2583 33.7423
L39.1373 33.8027
" />
<path d="M39.1373 33.8027
L38.6535 33.8027
" />
<path d="M38.6535 33.8027
L38.6535 32.5327
" />
<path d="M38.6535 32.5327
L39.0769 32.5327
" />
<path d="M39.0769 32.5327
L39.1978 32.5932
" />
<path d="M39.1978 32.5932
L39.2583 32.6537
" />
<path d="M39.2583 32.6537
L39.3188 32.7746
" />
<path d="M39.3188 32.7746
L39.3188 32.8956
" />
<path d="M39.3188 32.8956
L39.2583 33.0165
" />
<path d="M39.2583 33.0165
L39.1978 33.0770
" />
<path d="M39.1978 33.0770
L39.0769 33.1375
" />
<path d="M39.0769 33.1375
L38.6535 33.1375
" />
<path d="M39.8026 32.5327
L40.5888 32.5327
" />
<path d="M40.5888 32.5327
L40.1654 33.0165
" />
<path d="M40.1654 33.0165
L40.3469 33.0165
" />
<path d="M40.3469 33.0165
L40.4678 33.0770
" />
<path d="M40.4678 33.0770
L40.5283 33.1375
" />
<path d="M40.5283 33.1375
L40.5888 33.2584
" />
<path d="M40.5888 33.2584
L40.5888 33.5608
" />
<path d="M40.5888 33.5608
L40.5283 33.6818
" />
<path d="M40.5283 33.6818
L40.4678 33.7423
" />
<path d="M40.4678 33.7423
L40.3469 33.8027
" />
<path d="M40.3469 33.8027
L39.9840 33.8027
" />
<path d="M39.9840 33.8027
L39.8631 33.7423
" />
<path d="M39.8631 33.7423
L39.8026 33.6818
" />
<path d="M42.0402 32.4723
L40.9516 34.1051
" />
<path d="M43.1288 33.8027
L42.4031 33.8027
" />
<path d="M42.7659 33.8027
L42.7659 32.5327
" />
<path d="M42.7659 32.5327
L42.6450 32.7142
" />
<path d="M42.6450 32.7142
L42.5240 32.8351
" />
<path d="M42.5240 32.8351
L42.4031 32.8956
" />
<path d="M44.2173 32.9561
L44.2173 33.8027
" />
<path d="M43.9149 32.4723
L43.6126 33.3794
" />
<path d="M43.6126 33.3794
L44.3987 33.3794
" />
</g></g>
<g style="fill:none; 
stroke:#A90000; stroke-width:0.1524; stroke-opacity:1; 
stroke-linecap:round; stroke-linejoin:round;">
<text x="48.2364" y="32.9692"
textLength="2.6222" font-size="1.6933" lengthAdjust="spacingAndGlyphs"
text-anchor="middle" opacity="0" stroke-opacity="0">15</text>
<g class="stroked-text"><desc>15</desc>
<path d="M47.9945 32.8057
L47.2688 32.8057
" />
<path d="M47.6316 32.8057
L47.6316 31.5357
" />
<path d="M47.6316 31.5357
L47.5107 31.7172
" />
<path d="M47.5107 31.7172
L47.3897 31.8381
" />
<path d="M47.3897 31.8381
L47.2688 31.8986
" />
<path d="M49.1435 31.5357
L48.5387 31.5357
" />
<path d="M48.5387 31.5357
L48.4783 32.1405
" />
<path d="M48.4783 32.1405
L48.5387 32.0800
" />
<path d="M48.5387 32.0800
L48.6597 32.0195
" />
<path d="M48.6597 32.0195
L48.9621 32.0195
" />
<path d="M48.9621 32.0195
L49.0830 32.0800
" />
<path d="M49.0830 32.0800
L49.1435 32.1405
" />
<path d="M49.1435 32.1405
L49.2040 32.2614
" />
<path d="M49.2040 32.2614
L49.2040 32.5638
" />
<path d="M49.2040 32.5638
L49.1435 32.6848
" />
<path d="M49.1435 32.6848
L49.0830 32.7453
" />
<path d="M49.0830 32.7453
L48.9621 32.8057
" />
<path d="M48.9621 32.8057
L48.6597 32.8057
" />
<path d="M48.6597 32.8057
L48.5387 32.7453
" />
<path d="M48.5387 32.7453
L48.4783 32.6848
" />
</g></g>
<g style="fill:none; 
stroke:#840000; stroke-width:0.1524; stroke-opacity:1; 
stroke-linecap:round; stroke-linejoin:round;">
<path d="M45.6964 30.6832
L50.7764 30.6832
" />
</g>
<g style="fill:none; 
stroke:#006464; stroke-width:0.1524; stroke-opacity:1; 
stroke-linecap:round; stroke-linejoin:round;">
<text x="44.6804" y="31.3182"
textLength="6.4322" font-size="1.6933" lengthAdjust="spacingAndGlyphs"
text-anchor="end" opacity="0" stroke-opacity="0">B1/15</text>
<g class="stroked-text"><desc>B1/15</desc>
<path d="M39.0769 30.5975
L39.2583 30.6580
" />
<path d="M39.2583 30.6580
L39.3188 30.7184
" />
<path d="M39.3188 30.7184
L39.3792 30.8394
" />
<path d="M39.3792 30.8394
L39.3792 31.0208
" />
<path d="M39.3792 31.0208
L39.3188 31.1418
" />
<path d="M39.3188 31.1418
L39.2583 31.2023
" />
<path d="M39.2583 31.2023
L39.1373 31.2627
" />
<path d="M39.1373 31.2627
L38.6535 31.2627
" />
<path d="M38.6535 31.2627
L38.6535 29.9927
" />
<path d="M38.6535 29.9927
L39.0769 29.9927
" />
<path d="M39.0769 29.9927
L39.1978 30.0532
" />
<path d="M39.1978 30.0532
L39.2583 30.1137
" />
<path d="M39.2583 30.1137
L39.3188 30.2346
" />
<path d="M39.3188 30.2346
L39.3188 30.3556
" />
<path d="M39.3188 30.3556
L39.2583 30.4765
" />
<path d="M39.2583 30.4765
L39.1978 30.5370
" />
<path d="M39.1978 30.5370
L39.0769 30.5975
" />
<path d="M39.0769 30.5975
L38.6535 30.5975
" />
<path d="M40.5888 31.2627
L39.8631 31.2627
" />
<path d="M40.2259 31.2627
L40.2259 29.9927
" />
<path d="M40.2259 29.9927
L40.1050 30.1742
" />
<path d="M40.1050 30.1742
L39.9840 30.2951
" />
<path d="M39.9840 30.2951
L39.8631 30.3556
" />
<path d="M42.0402 29.9323
L40.9516 31.5651
" />
<path d="M43.1288 31.2627
L42.4031 31.2627
" />
<path d="M42.7659 31.2627
L42.7659 29.9927
" />
<path d="M42.7659 29.9927
L42.6450 30.1742
" />
<path d="M42.6450 30.1742
L42.5240 30.2951
" />
<path d="M42.5240 30.2951
L42.4031 30.3556
" />
<path d="M44.2778 29.9927
L43.6730 29.9927
" />
<path d="M43.6730 29.9927
L43.6126 30.5975
" />
<path d="M43.6126 30.5975
L43.6730 30.5370
" />
<path d="M43.6730 30.5370
L43.7940 30.4765
" />
<path d="M43.7940 30.4765
L44.0964 30.4765
" />
<path d="M44.0964 30.4765
L44.2173 30.5370
" />
<path d="M44.2173 30.5370
L44.2778 30.5975
" />
<path d="M44.2778 30.5975
L44.3383 30.7184
" />
<path d="M44.3383 30.7184
L44.3383 31.0208
" />
<path d="M44.3383 31.0208
L44.2778 31.1418
" />
<path d="M44.2778 31.1418
L44.2173 31.2023
" />
<path d="M44.2173 31.2023
L44.0964 31.2627
" />
<path d="M44.0964 31.2627
L43.7940 31.2627
" />
<path d="M43.7940 31.2627
L43.6730 31.2023
" />
<path d="M43.6730 31.2023
L43.6126 31.1418
" />
</g></g>
<g style="fill:none; 
stroke:#A90000; stroke-width:0.1524; stroke-opacity:1; 
stroke-linecap:round; stroke-linejoin:round;">
<text x="48.2364" y="30.4292"
textLength="2.6222" font-size="1.6933" lengthAdjust="spacingAndGlyphs"
text-anchor="middle" opacity="0" stroke-opacity="0">16</text>
<g class="stroked-text"><desc>16</desc>
<path d="M47.9945 30.2657
L47.2688 30.2657
" />
<path d="M47.6316 30.2657
L47.6316 28.9957
" />
<path d="M47.6316 28.9957
L47.5107 29.1772
" />
<path d="M47.5107 29.1772
L47.3897 29.2981
" />
<path d="M47.3897 29.2981
L47.2688 29.3586
" />
<path d="M49.0830 28.9957
L48.8411 28.9957
" />
<path d="M48.8411 28.9957
L48.7202 29.0562
" />
<path d="M48.7202 29.0562
L48.6597 29.1167
" />
<path d="M48.6597 29.1167
L48.5387 29.2981
" />
<path d="M48.5387 29.2981
L48.4783 29.5400
" />
<path d="M48.4783 29.5400
L48.4783 30.0238
" />
<path d="M48.4783 30.0238
L48.5387 30.1448
" />
<path d="M48.5387 30.1448
L48.5992 30.2053
" />
<path d="M48.5992 30.2053
L48.7202 30.2657
" />
<path d="M48.7202 30.2657
L48.9621 30.2657
" />
<path d="M48.9621 30.2657
L49.0830 30.2053
" />
<path d="M49.0830 30.2053
L49.1435 30.1448
" />
<path d="M49.1435 30.1448
L49.2040 30.0238
" />
<path d="M49.2040 30.0238
L49.2040 29.7214
" />
<path d="M49.2040 29.7214
L49.1435 29.6005
" />
<path d="M49.1435 29.6005
L49.0830 29.5400
" />
<path d="M49.0830 29.5400
L48.9621 29.4795
" />
<path d="M48.9621 29.4795
L48.7202 29.4795
" />
<path d="M48.7202 29.4795
L48.5992 29.5400
" />
<path d="M48.5992 29.5400
L48.5387 29.6005
" />
<path d="M48.5387 29.6005
L48.4783 29.7214
" />
</g></g>
<g style="fill:none; 
stroke:#840000; stroke-width:0.1524; stroke-opacity:1; 
stroke-linecap:round; stroke-linejoin:round;">
<path d="M45.6964 28.1432
L50.7764 28.1432
" />
</g>
<g style="fill:none; 
stroke:#006464; stroke-width:0.1524; stroke-opacity:1; 
stroke-linecap:round; stroke-linejoin:round;">
<text x="44.6804" y="28.7782"
textLength="6.1299" font-size="1.6933" lengthAdjust="spacingAndGlyphs"
text-anchor="end" opacity="0" stroke-opacity="0">F7/A0</text>
<g class="stroked-text"><desc>F7/A0</desc>
<path d="M39.3792 28.0575
L38.9558 28.0575
" />
<path d="M38.9558 28.7227
L38.9558 27.4527
" />
<path d="M38.9558 27.4527
L39.5606 27.4527
" />
<path d="M39.9235 27.4527
L40.7701 27.4527
" />
<path d="M40.7701 27.4527
L40.2259 28.7227
" />
<path d="M42.1611 27.3923
L41.0725 29.0251
" />
<path d="M42.5240 28.3599
L43.1287 28.3599
" />
<path d="M42.4030 28.7227
L42.8263 27.4527
" />
<path d="M42.8263 27.4527
L43.2497 28.7227
" />
<path d="M43.9149 27.4527
L44.0359 27.4527
" />
<path d="M44.0359 27.4527
L44.1568 27.5132
" />
<path d="M44.1568 27.5132
L44.2173 27.5737
" />
<path d="M44.2173 27.5737
L44.2778 27.6946
" />
<path d="M44.2778 27.6946
L44.3383 27.9365
" />
<path d="M44.3383 27.9365
L44.3383 28.2389
" />
<path d="M44.3383 28.2389
L44.2778 28.4808
" />
<path d="M44.2778 28.4808
L44.2173 28.6018
" />
<path d="M44.2173 28.6018
L44.1568 28.6623
" />
<path d="M44.1568 28.6623
L44.0359 28.7227
" />
<path d="M44.0359 28.7227
L43.9149 28.7227
" />
<path d="M43.9149 28.7227
L43.7940 28.6623
" />
<path d="M43.7940 28.6623
L43.7335 28.6018
" />
<path d="M43.7335 28.6018
L43.6730 28.4808
" />
<path d="M43.6730 28.4808
L43.6126 28.2389
" />
<path d="M43.6126 28.2389
L43.6126 27.9365
" />
<path d="M43.6126 27.9365
L43.6730 27.6946
" />
<path d="M43.6730 27.6946
L43.7335 27.5737
" />
<path d="M43.7335 27.5737
L43.7940 27.5132
" />
<path d="M43.7940 27.5132
L43.9149 27.4527
" />
</g></g>
<g style="fill:none; 
stroke:#A90000; stroke-width:0.1524; stroke-opacity:1; 
stroke-linecap:round; stroke-linejoin:round;">
<text x="48.2364" y="27.8892"
textLength="2.6222" font-size="1.6933" lengthAdjust="spacingAndGlyphs"
text-anchor="middle" opacity="0" stroke-opacity="0">17</text>
<g class="stroked-text"><desc>17</desc>
<path d="M47.9945 27.7257
L47.2688 27.7257
" />
<path d="M47.6316 27.7257
L47.6316 26.4557
" />
<path d="M47.6316 26.4557
L47.5107 26.6372
" />
<path d="M47.5107 26.6372
L47.3897 26.7581
" />
<path d="M47.3897 26.7581
L47.2688 26.8186
" />
<path d="M48.4178 26.4557
L49.2644 26.4557
" />
<path d="M49.2644 26.4557
L48.7202 27.7257
" />
</g></g>
<g style="fill:none; 
stroke:#840000; stroke-width:0.1524; stroke-opacity:1; 
stroke-linecap:round; stroke-linejoin:round;">
<path d="M45.6964 25.6032
L50.7764 25.6032
" />
</g>
<g style="fill:none; 
stroke:#006464; stroke-width:0.1524; stroke-opacity:1; 
stroke-linecap:round; stroke-linejoin:round;">
<text x="44.6804" y="26.2382"
textLength="6.1299" font-size="1.6933" lengthAdjust="spacingAndGlyphs"
text-anchor="end" opacity="0" stroke-opacity="0">F6/A1</text>
<g class="stroked-text"><desc>F6/A1</desc>
<path d="M39.3792 25.5175
L38.9558 25.5175
" />
<path d="M38.9558 26.1827
L38.9558 24.9127
" />
<path d="M38.9558 24.9127
L39.5606 24.9127
" />
<path d="M40.5887 24.9127
L40.3468 24.9127
" />
<path d="M40.3468 24.9127
L40.2259 24.9732
" />
<path d="M40.2259 24.9732
L40.1654 25.0337
" />
<path d="M40.1654 25.0337
L40.0444 25.2151
" />
<path d="M40.0444 25.2151
L39.9840 25.4570
" />
<path d="M39.9840 25.4570
L39.9840 25.9408
" />
<path d="M39.9840 25.9408
L40.0444 26.0618
" />
<path d="M40.0444 26.0618
L40.1049 26.1223
" />
<path d="M40.1049 26.1223
L40.2259 26.1827
" />
<path d="M40.2259 26.1827
L40.4678 26.1827
" />
<path d="M40.4678 26.1827
L40.5887 26.1223
" />
<path d="M40.5887 26.1223
L40.6492 26.0618
" />
<path d="M40.6492 26.0618
L40.7097 25.9408
" />
<path d="M40.7097 25.9408
L40.7097 25.6384
" />
<path d="M40.7097 25.6384
L40.6492 25.5175
" />
<path d="M40.6492 25.5175
L40.5887 25.4570
" />
<path d="M40.5887 25.4570
L40.4678 25.3965
" />
<path d="M40.4678 25.3965
L40.2259 25.3965
" />
<path d="M40.2259 25.3965
L40.1049 25.4570
" />
<path d="M40.1049 25.4570
L40.0444 25.5175
" />
<path d="M40.0444 25.5175
L39.9840 25.6384
" />
<path d="M42.1611 24.8523
L41.0725 26.4851
" />
<path d="M42.5240 25.8199
L43.1287 25.8199
" />
<path d="M42.4030 26.1827
L42.8263 24.9127
" />
<path d="M42.8263 24.9127
L43.2497 26.1827
" />
<path d="M44.3383 26.1827
L43.6126 26.1827
" />
<path d="M43.9754 26.1827
L43.9754 24.9127
" />
<path d="M43.9754 24.9127
L43.8545 25.0942
" />
<path d="M43.8545 25.0942
L43.7335 25.2151
" />
<path d="M43.7335 25.2151
L43.6126 25.2756
" />
</g></g>
<g style="fill:none; 
stroke:#A90000; stroke-width:0.1524; stroke-opacity:1; 
stroke-linecap:round; stroke-linejoin:round;">
<text x="48.2364" y="25.3492"
textLength="2.6222" font-size="1.6933" lengthAdjust="spacingAndGlyphs"
text-anchor="middle" opacity="0" stroke-opacity="0">18</text>
<g class="stroked-text"><desc>18</desc>
<path d="M47.9945 25.1857
L47.2688 25.1857
" />
<path d="M47.6316 25.1857
L47.6316 23.9157
" />
<path d="M47.6316 23.9157
L47.5107 24.0972
" />
<path d="M47.5107 24.0972
L47.3897 24.2181
" />
<path d="M47.3897 24.2181
L47.2688 24.2786
" />
<path d="M48.7202 24.4600
L48.5992 24.3995
" />
<path d="M48.5992 24.3995
L48.5387 24.3391
" />
<path d="M48.5387 24.3391
L48.4783 24.2181
" />
<path d="M48.4783 24.2181
L48.4783 24.1576
" />
<path d="M48.4783 24.1576
L48.5387 24.0367
" />
<path d="M48.5387 24.0367
L48.5992 23.9762
" />
<path d="M48.5992 23.9762
L48.7202 23.9157
" />
<path d="M48.7202 23.9157
L48.9621 23.9157
" />
<path d="M48.9621 23.9157
L49.0830 23.9762
" />
<path d="M49.0830 23.9762
L49.1435 24.0367
" />
<path d="M49.1435 24.0367
L49.2040 24.1576
" />
<path d="M49.2040 24.1576
L49.2040 24.2181
" />
<path d="M49.2040 24.2181
L49.1435 24.3391
" />
<path d="M49.1435 24.3391
L49.0830 24.3995
" />
<path d="M49.0830 24.3995
L48.9621 24.4600
" />
<path d="M48.9621 24.4600
L48.7202 24.4600
" />
<path d="M48.7202 24.4600
L48.5992 24.5205
" />
<path d="M48.5992 24.5205
L48.5387 24.5810
" />
<path d="M48.5387 24.5810
L48.4783 24.7019
" />
<path d="M48.4783 24.7019
L48.4783 24.9438
" />
<path d="M48.4783 24.9438
L48.5387 25.0648
" />
<path d="M48.5387 25.0648
L48.5992 25.1253
" />
<path d="M48.5992 25.1253
L48.7202 25.1857
" />
<path d="M48.7202 25.1857
L48.9621 25.1857
" />
<path d="M48.9621 25.1857
L49.0830 25.1253
" />
<path d="M49.0830 25.1253
L49.1435 25.0648
" />
<path d="M49.1435 25.0648
L49.2040 24.9438
" />
<path d="M49.2040 24.9438
L49.2040 24.7019
" />
<path d="M49.2040 24.7019
L49.1435 24.5810
" />
<path d="M49.1435 24.5810
L49.0830 24.5205
" />
<path d="M49.0830 24.5205
L48.9621 24.4600
" />
</g></g>
<g style="fill:none; 
stroke:#840000; stroke-width:0.1524; stroke-opacity:1; 
stroke-linecap:round; stroke-linejoin:round;">
<path d="M45.6964 23.0632
L50.7764 23.0632
" />
</g>
<g style="fill:none; 
stroke:#006464; stroke-width:0.1524; stroke-opacity:1; 
stroke-linecap:round; stroke-linejoin:round;">
<text x="44.6804" y="23.6982"
textLength="6.1299" font-size="1.6933" lengthAdjust="spacingAndGlyphs"
text-anchor="end" opacity="0" stroke-opacity="0">F5/A2</text>
<g class="stroked-text"><desc>F5/A2</desc>
<path d="M39.3792 22.9775
L38.9558 22.9775
" />
<path d="M38.9558 23.6427
L38.9558 22.3727
" />
<path d="M38.9558 22.3727
L39.5606 22.3727
" />
<path d="M40.6492 22.3727
L40.0444 22.3727
" />
<path d="M40.0444 22.3727
L39.9840 22.9775
" />
<path d="M39.9840 22.9775
L40.0444 22.9170
" />
<path d="M40.0444 22.9170
L40.1654 22.8565
" />
<path d="M40.1654 22.8565
L40.4678 22.8565
" />
<path d="M40.4678 22.8565
L40.5887 22.9170
" />
<path d="M40.5887 22.9170
L40.6492 22.9775
" />
<path d="M40.6492 22.9775
L40.7097 23.0984
" />
<path d="M40.7097 23.0984
L40.7097 23.4008
" />
<path d="M40.7097 23.4008
L40.6492 23.5218
" />
<path d="M40.6492 23.5218
L40.5887 23.5823
" />
<path d="M40.5887 23.5823
L40.4678 23.6427
" />
<path d="M40.4678 23.6427
L40.1654 23.6427
" />
<path d="M40.1654 23.6427
L40.0444 23.5823
" />
<path d="M40.0444 23.5823
L39.9840 23.5218
" />
<path d="M42.1611 22.3123
L41.0725 23.9451
" />
<path d="M42.5240 23.2799
L43.1287 23.2799
" />
<path d="M42.4030 23.6427
L42.8263 22.3727
" />
<path d="M42.8263 22.3727
L43.2497 23.6427
" />
<path d="M43.6126 22.4937
L43.6730 22.4332
" />
<path d="M43.6730 22.4332
L43.7940 22.3727
" />
<path d="M43.7940 22.3727
L44.0964 22.3727
" />
<path d="M44.0964 22.3727
L44.2173 22.4332
" />
<path d="M44.2173 22.4332
L44.2778 22.4937
" />
<path d="M44.2778 22.4937
L44.3383 22.6146
" />
<path d="M44.3383 22.6146
L44.3383 22.7356
" />
<path d="M44.3383 22.7356
L44.2778 22.9170
" />
<path d="M44.2778 22.9170
L43.5521 23.6427
" />
<path d="M43.5521 23.6427
L44.3383 23.6427
" />
</g></g>
<g style="fill:none; 
stroke:#A90000; stroke-width:0.1524; stroke-opacity:1; 
stroke-linecap:round; stroke-linejoin:round;">
<text x="48.2364" y="22.8092"
textLength="2.6222" font-size="1.6933" lengthAdjust="spacingAndGlyphs"
text-anchor="middle" opacity="0" stroke-opacity="0">19</text>
<g class="stroked-text"><desc>19</desc>
<path d="M47.9945 22.6457
L47.2688 22.6457
" />
<path d="M47.6316 22.6457
L47.6316 21.3757
" />
<path d="M47.6316 21.3757
L47.5107 21.5572
" />
<path d="M47.5107 21.5572
L47.3897 21.6781
" />
<path d="M47.3897 21.6781
L47.2688 21.7386
" />
<path d="M48.5992 22.6457
L48.8411 22.6457
" />
<path d="M48.8411 22.6457
L48.9621 22.5853
" />
<path d="M48.9621 22.5853
L49.0225 22.5248
" />
<path d="M49.0225 22.5248
L49.1435 22.3433
" />
<path d="M49.1435 22.3433
L49.2040 22.1014
" />
<path d="M49.2040 22.1014
L49.2040 21.6176
" />
<path d="M49.2040 21.6176
L49.1435 21.4967
" />
<path d="M49.1435 21.4967
L49.0830 21.4362
" />
<path d="M49.0830 21.4362
L48.9621 21.3757
" />
<path d="M48.9621 21.3757
L48.7202 21.3757
" />
<path d="M48.7202 21.3757
L48.5992 21.4362
" />
<path d="M48.5992 21.4362
L48.5387 21.4967
" />
<path d="M48.5387 21.4967
L48.4783 21.6176
" />
<path d="M48.4783 21.6176
L48.4783 21.9200
" />
<path d="M48.4783 21.9200
L48.5387 22.0410
" />
<path d="M48.5387 22.0410
L48.5992 22.1014
" />
<path d="M48.5992 22.1014
L48.7202 22.1619
" />
<path d="M48.7202 22.1619
L48.9621 22.1619
" />
<path d="M48.9621 22.1619
L49.0830 22.1014
" />
<path d="M49.0830 22.1014
L49.1435 22.0410
" />
<path d="M49.1435 22.0410
L49.2040 21.9200
" />
</g></g>
<g style="fill:none; 
stroke:#840000; stroke-width:0.1524; stroke-opacity:1; 
stroke-linecap:round; stroke-linejoin:round;">
<path d="M20.2964 12.9032
L15.2164 12.9032
" />
</g>
<g style="fill:none; 
stroke:#006464; stroke-width:0.1524; stroke-opacity:1; 
stroke-linecap:round; stroke-linejoin:round;">
<text x="21.3124" y="13.5382"
textLength="7.7022" font-size="1.6933" lengthAdjust="spacingAndGlyphs"
text-anchor="start" opacity="0" stroke-opacity="0">RX1/D2</text>
<g class="stroked-text"><desc>RX1/D2</desc>
<path d="M22.4406 13.4827
L22.0173 12.8780
" />
<path d="M21.7149 13.4827
L21.7149 12.2127
" />
<path d="M21.7149 12.2127
L22.1987 12.2127
" />
<path d="M22.1987 12.2127
L22.3197 12.2732
" />
<path d="M22.3197 12.2732
L22.3802 12.3337
" />
<path d="M22.3802 12.3337
L22.4406 12.4546
" />
<path d="M22.4406 12.4546
L22.4406 12.6361
" />
<path d="M22.4406 12.6361
L22.3802 12.7570
" />
<path d="M22.3802 12.7570
L22.3197 12.8175
" />
<path d="M22.3197 12.8175
L22.1987 12.8780
" />
<path d="M22.1987 12.8780
L21.7149 12.8780
" />
<path d="M22.8640 12.2127
L23.7106 13.4827
" />
<path d="M23.7106 12.2127
L22.8640 13.4827
" />
<path d="M24.8597 13.4827
L24.1340 13.4827
" />
<path d="M24.4968 13.4827
L24.4968 12.2127
" />
<path d="M24.4968 12.2127
L24.3759 12.3942
" />
<path d="M24.3759 12.3942
L24.2549 12.5151
" />
<path d="M24.2549 12.5151
L24.1340 12.5756
" />
<path d="M26.3111 12.1523
L25.2225 13.7851
" />
<path d="M26.7344 13.4827
L26.7344 12.2127
" />
<path d="M26.7344 12.2127
L27.0368 12.2127
" />
<path d="M27.0368 12.2127
L27.2182 12.2732
" />
<path d="M27.2182 12.2732
L27.3392 12.3942
" />
<path d="M27.3392 12.3942
L27.3997 12.5151
" />
<path d="M27.3997 12.5151
L27.4601 12.7570
" />
<path d="M27.4601 12.7570
L27.4601 12.9384
" />
<path d="M27.4601 12.9384
L27.3997 13.1803
" />
<path d="M27.3997 13.1803
L27.3392 13.3013
" />
<path d="M27.3392 13.3013
L27.2182 13.4223
" />
<path d="M27.2182 13.4223
L27.0368 13.4827
" />
<path d="M27.0368 13.4827
L26.7344 13.4827
" />
<path d="M27.9440 12.3337
L28.0044 12.2732
" />
<path d="M28.0044 12.2732
L28.1254 12.2127
" />
<path d="M28.1254 12.2127
L28.4278 12.2127
" />
<path d="M28.4278 12.2127
L28.5487 12.2732
" />
<path d="M28.5487 12.2732
L28.6092 12.3337
" />
<path d="M28.6092 12.3337
L28.6697 12.4546
" />
<path d="M28.6697 12.4546
L28.6697 12.5756
" />
<path d="M28.6697 12.5756
L28.6092 12.7570
" />
<path d="M28.6092 12.7570
L27.8835 13.4827
" />
<path d="M27.8835 13.4827
L28.6697 13.4827
" />
</g></g>
<g style="fill:none; 
stroke:#A90000; stroke-width:0.1524; stroke-opacity:1; 
stroke-linecap:round; stroke-linejoin:round;">
<text x="17.7564" y="12.6492"
textLength="1.4127" font-size="1.6933" lengthAdjust="spacingAndGlyphs"
text-anchor="middle" opacity="0" stroke-opacity="0">2</text>
<g class="stroked-text"><desc>2</desc>
<path d="M17.3936 11.3367
L17.4540 11.2762
" />
<path d="M17.4540 11.2762
L17.5750 11.2157
" />
<path d="M17.5750 11.2157
L17.8774 11.2157
" />
<path d="M17.8774 11.2157
L17.9983 11.2762
" />
<path d="M17.9983 11.2762
L18.0588 11.3367
" />
<path d="M18.0588 11.3367
L18.1193 11.4576
" />
<path d="M18.1193 11.4576
L18.1193 11.5786
" />
<path d="M18.1193 11.5786
L18.0588 11.7600
" />
<path d="M18.0588 11.7600
L17.3331 12.4857
" />
<path d="M17.3331 12.4857
L18.1193 12.4857
" />
</g></g>
<g style="fill:none; 
stroke:#840000; stroke-width:0.1524; stroke-opacity:1; 
stroke-linecap:round; stroke-linejoin:round;">
<path d="M45.6964 20.5232
L50.7764 20.5232
" />
</g>
<g style="fill:none; 
stroke:#006464; stroke-width:0.1524; stroke-opacity:1; 
stroke-linecap:round; stroke-linejoin:round;">
<text x="44.6804" y="21.1582"
textLength="6.1299" font-size="1.6933" lengthAdjust="spacingAndGlyphs"
text-anchor="end" opacity="0" stroke-opacity="0">F4/A3</text>
<g class="stroked-text"><desc>F4/A3</desc>
<path d="M39.3792 20.4375
L38.9558 20.4375
" />
<path d="M38.9558 21.1027
L38.9558 19.8327
" />
<path d="M38.9558 19.8327
L39.5606 19.8327
" />
<path d="M40.5887 20.2561
L40.5887 21.1027
" />
<path d="M40.2863 19.7723
L39.9840 20.6794
" />
<path d="M39.9840 20.6794
L40.7701 20.6794
" />
<path d="M42.1611 19.7723
L41.0725 21.4051
" />
<path d="M42.5240 20.7399
L43.1287 20.7399
" />
<path d="M42.4030 21.1027
L42.8263 19.8327
" />
<path d="M42.8263 19.8327
L43.2497 21.1027
" />
<path d="M43.5521 19.8327
L44.3383 19.8327
" />
<path d="M44.3383 19.8327
L43.9149 20.3165
" />
<path d="M43.9149 20.3165
L44.0964 20.3165
" />
<path d="M44.0964 20.3165
L44.2173 20.3770
" />
<path d="M44.2173 20.3770
L44.2778 20.4375
" />
<path d="M44.2778 20.4375
L44.3383 20.5584
" />
<path d="M44.3383 20.5584
L44.3383 20.8608
" />
<path d="M44.3383 20.8608
L44.2778 20.9818
" />
<path d="M44.2778 20.9818
L44.2173 21.0423
" />
<path d="M44.2173 21.0423
L44.0964 21.1027
" />
<path d="M44.0964 21.1027
L43.7335 21.1027
" />
<path d="M43.7335 21.1027
L43.6126 21.0423
" />
<path d="M43.6126 21.0423
L43.5521 20.9818
" />
</g></g>
<g style="fill:none; 
stroke:#A90000; stroke-width:0.1524; stroke-opacity:1; 
stroke-linecap:round; stroke-linejoin:round;">
<text x="48.2364" y="20.2692"
textLength="2.6222" font-size="1.6933" lengthAdjust="spacingAndGlyphs"
text-anchor="middle" opacity="0" stroke-opacity="0">20</text>
<g class="stroked-text"><desc>20</desc>
<path d="M47.2688 18.9567
L47.3292 18.8962
" />
<path d="M47.3292 18.8962
L47.4502 18.8357
" />
<path d="M47.4502 18.8357
L47.7526 18.8357
" />
<path d="M47.7526 18.8357
L47.8735 18.8962
" />
<path d="M47.8735 18.8962
L47.9340 18.9567
" />
<path d="M47.9340 18.9567
L47.9945 19.0776
" />
<path d="M47.9945 19.0776
L47.9945 19.1986
" />
<path d="M47.9945 19.1986
L47.9340 19.3800
" />
<path d="M47.9340 19.3800
L47.2083 20.1057
" />
<path d="M47.2083 20.1057
L47.9945 20.1057
" />
<path d="M48.7806 18.8357
L48.9016 18.8357
" />
<path d="M48.9016 18.8357
L49.0225 18.8962
" />
<path d="M49.0225 18.8962
L49.0830 18.9567
" />
<path d="M49.0830 18.9567
L49.1435 19.0776
" />
<path d="M49.1435 19.0776
L49.2040 19.3195
" />
<path d="M49.2040 19.3195
L49.2040 19.6219
" />
<path d="M49.2040 19.6219
L49.1435 19.8638
" />
<path d="M49.1435 19.8638
L49.0830 19.9848
" />
<path d="M49.0830 19.9848
L49.0225 20.0453
" />
<path d="M49.0225 20.0453
L48.9016 20.1057
" />
<path d="M48.9016 20.1057
L48.7806 20.1057
" />
<path d="M48.7806 20.1057
L48.6597 20.0453
" />
<path d="M48.6597 20.0453
L48.5992 19.9848
" />
<path d="M48.5992 19.9848
L48.5387 19.8638
" />
<path d="M48.5387 19.8638
L48.4783 19.6219
" />
<path d="M48.4783 19.6219
L48.4783 19.3195
" />
<path d="M48.4783 19.3195
L48.5387 19.0776
" />
<path d="M48.5387 19.0776
L48.5992 18.9567
" />
<path d="M48.5992 18.9567
L48.6597 18.8962
" />
<path d="M48.6597 18.8962
L48.7806 18.8357
" />
</g></g>
<g style="fill:none; 
stroke:#840000; stroke-width:0.1524; stroke-opacity:1; 
stroke-linecap:round; stroke-linejoin:round;">
<path d="M45.6964 17.9832
L50.7764 17.9832
" />
</g>
<g style="fill:none; 
stroke:#006464; stroke-width:0.1524; stroke-opacity:1; 
stroke-linecap:round; stroke-linejoin:round;">
<text x="44.6804" y="18.6182"
textLength="3.8318" font-size="1.6933" lengthAdjust="spacingAndGlyphs"
text-anchor="end" opacity="0" stroke-opacity="0">VCC</text>
<g class="stroked-text"><desc>VCC</desc>
<path d="M41.0725 17.2927
L41.4958 18.5627
" />
<path d="M41.4958 18.5627
L41.9192 17.2927
" />
<path d="M43.0682 18.4418
L43.0078 18.5023
" />
<path d="M43.0078 18.5023
L42.8263 18.5627
" />
<path d="M42.8263 18.5627
L42.7054 18.5627
" />
<path d="M42.7054 18.5627
L42.5240 18.5023
" />
<path d="M42.5240 18.5023
L42.4030 18.3813
" />
<path d="M42.4030 18.3813
L42.3425 18.2603
" />
<path d="M42.3425 18.2603
L42.2821 18.0184
" />
<path d="M42.2821 18.0184
L42.2821 17.8370
" />
<path d="M42.2821 17.8370
L42.3425 17.5951
" />
<path d="M42.3425 17.5951
L42.4030 17.4742
" />
<path d="M42.4030 17.4742
L42.5240 17.3532
" />
<path d="M42.5240 17.3532
L42.7054 17.2927
" />
<path d="M42.7054 17.2927
L42.8263 17.2927
" />
<path d="M42.8263 17.2927
L43.0078 17.3532
" />
<path d="M43.0078 17.3532
L43.0682 17.4137
" />
<path d="M44.3382 18.4418
L44.2778 18.5023
" />
<path d="M44.2778 18.5023
L44.0963 18.5627
" />
<path d="M44.0963 18.5627
L43.9754 18.5627
" />
<path d="M43.9754 18.5627
L43.7940 18.5023
" />
<path d="M43.7940 18.5023
L43.6730 18.3813
" />
<path d="M43.6730 18.3813
L43.6125 18.2603
" />
<path d="M43.6125 18.2603
L43.5521 18.0184
" />
<path d="M43.5521 18.0184
L43.5521 17.8370
" />
<path d="M43.5521 17.8370
L43.6125 17.5951
" />
<path d="M43.6125 17.5951
L43.6730 17.4742
" />
<path d="M43.6730 17.4742
L43.7940 17.3532
" />
<path d="M43.7940 17.3532
L43.9754 17.2927
" />
<path d="M43.9754 17.2927
L44.0963 17.2927
" />
<path d="M44.0963 17.2927
L44.2778 17.3532
" />
<path d="M44.2778 17.3532
L44.3382 17.4137
" />
</g></g>
<g style="fill:none; 
stroke:#A90000; stroke-width:0.1524; stroke-opacity:1; 
stroke-linecap:round; stroke-linejoin:round;">
<text x="48.2364" y="17.7292"
textLength="2.6222" font-size="1.6933" lengthAdjust="spacingAndGlyphs"
text-anchor="middle" opacity="0" stroke-opacity="0">21</text>
<g class="stroked-text"><desc>21</desc>
<path d="M47.2688 16.4167
L47.3292 16.3562
" />
<path d="M47.3292 16.3562
L47.4502 16.2957
" />
<path d="M47.4502 16.2957
L47.7526 16.2957
" />
<path d="M47.7526 16.2957
L47.8735 16.3562
" />
<path d="M47.8735 16.3562
L47.9340 16.4167
" />
<path d="M47.9340 16.4167
L47.9945 16.5376
" />
<path d="M47.9945 16.5376
L47.9945 16.6586
" />
<path d="M47.9945 16.6586
L47.9340 16.8400
" />
<path d="M47.9340 16.8400
L47.2083 17.5657
" />
<path d="M47.2083 17.5657
L47.9945 17.5657
" />
<path d="M49.2040 17.5657
L48.4783 17.5657
" />
<path d="M48.8411 17.5657
L48.8411 16.2957
" />
<path d="M48.8411 16.2957
L48.7202 16.4772
" />
<path d="M48.7202 16.4772
L48.5992 16.5981
" />
<path d="M48.5992 16.5981
L48.4783 16.6586
" />
</g></g>
<g style="fill:none; 
stroke:#840000; stroke-width:0.1524; stroke-opacity:1; 
stroke-linecap:round; stroke-linejoin:round;">
<path d="M45.6964 15.4432
L50.7764 15.4432
" />
</g>
<g style="fill:none; 
stroke:#006464; stroke-width:0.1524; stroke-opacity:1; 
stroke-linecap:round; stroke-linejoin:round;">
<text x="44.6804" y="16.0782"
textLength="3.6503" font-size="1.6933" lengthAdjust="spacingAndGlyphs"
text-anchor="end" opacity="0" stroke-opacity="0">RST</text>
<g class="stroked-text"><desc>RST</desc>
<path d="M42.1611 16.0227
L41.7378 15.4180
" />
<path d="M41.4354 16.0227
L41.4354 14.7527
" />
<path d="M41.4354 14.7527
L41.9192 14.7527
" />
<path d="M41.9192 14.7527
L42.0402 14.8132
" />
<path d="M42.0402 14.8132
L42.1007 14.8737
" />
<path d="M42.1007 14.8737
L42.1611 14.9946
" />
<path d="M42.1611 14.9946
L42.1611 15.1761
" />
<path d="M42.1611 15.1761
L42.1007 15.2970
" />
<path d="M42.1007 15.2970
L42.0402 15.3575
" />
<path d="M42.0402 15.3575
L41.9192 15.4180
" />
<path d="M41.9192 15.4180
L41.4354 15.4180
" />
<path d="M42.6450 15.9623
L42.8264 16.0227
" />
<path d="M42.8264 16.0227
L43.1288 16.0227
" />
<path d="M43.1288 16.0227
L43.2497 15.9623
" />
<path d="M43.2497 15.9623
L43.3102 15.9018
" />
<path d="M43.3102 15.9018
L43.3707 15.7808
" />
<path d="M43.3707 15.7808
L43.3707 15.6599
" />
<path d="M43.3707 15.6599
L43.3102 15.5389
" />
<path d="M43.3102 15.5389
L43.2497 15.4784
" />
<path d="M43.2497 15.4784
L43.1288 15.4180
" />
<path d="M43.1288 15.4180
L42.8869 15.3575
" />
<path d="M42.8869 15.3575
L42.7659 15.2970
" />
<path d="M42.7659 15.2970
L42.7054 15.2365
" />
<path d="M42.7054 15.2365
L42.6450 15.1156
" />
<path d="M42.6450 15.1156
L42.6450 14.9946
" />
<path d="M42.6450 14.9946
L42.7054 14.8737
" />
<path d="M42.7054 14.8737
L42.7659 14.8132
" />
<path d="M42.7659 14.8132
L42.8869 14.7527
" />
<path d="M42.8869 14.7527
L43.1892 14.7527
" />
<path d="M43.1892 14.7527
L43.3707 14.8132
" />
<path d="M43.7335 14.7527
L44.4592 14.7527
" />
<path d="M44.0964 16.0227
L44.0964 14.7527
" />
</g></g>
<g style="fill:none; 
stroke:#A90000; stroke-width:0.1524; stroke-opacity:1; 
stroke-linecap:round; stroke-linejoin:round;">
<text x="48.2364" y="15.1892"
textLength="2.6222" font-size="1.6933" lengthAdjust="spacingAndGlyphs"
text-anchor="middle" opacity="0" stroke-opacity="0">22</text>
<g class="stroked-text"><desc>22</desc>
<path d="M47.2688 13.8767
L47.3292 13.8162
" />
<path d="M47.3292 13.8162
L47.4502 13.7557
" />
<path d="M47.4502 13.7557
L47.7526 13.7557
" />
<path d="M47.7526 13.7557
L47.8735 13.8162
" />
<path d="M47.8735 13.8162
L47.9340 13.8767
" />
<path d="M47.9340 13.8767
L47.9945 13.9976
" />
<path d="M47.9945 13.9976
L47.9945 14.1186
" />
<path d="M47.9945 14.1186
L47.9340 14.3000
" />
<path d="M47.9340 14.3000
L47.2083 15.0257
" />
<path d="M47.2083 15.0257
L47.9945 15.0257
" />
<path d="M48.4783 13.8767
L48.5387 13.8162
" />
<path d="M48.5387 13.8162
L48.6597 13.7557
" />
<path d="M48.6597 13.7557
L48.9621 13.7557
" />
<path d="M48.9621 13.7557
L49.0830 13.8162
" />
<path d="M49.0830 13.8162
L49.1435 13.8767
" />
<path d="M49.1435 13.8767
L49.2040 13.9976
" />
<path d="M49.2040 13.9976
L49.2040 14.1186
" />
<path d="M49.2040 14.1186
L49.1435 14.3000
" />
<path d="M49.1435 14.3000
L48.4178 15.0257
" />
<path d="M48.4178 15.0257
L49.2040 15.0257
" />
</g></g>
<g style="fill:none; 
stroke:#840000; stroke-width:0.1524; stroke-opacity:1; 
stroke-linecap:round; stroke-linejoin:round;">
<path d="M45.6964 12.9032
L50.7764 12.9032
" />
</g>
<g style="fill:none; 
stroke:#006464; stroke-width:0.1524; stroke-opacity:1; 
stroke-linecap:round; stroke-linejoin:round;">
<text x="44.6804" y="13.5382"
textLength="4.0737" font-size="1.6933" lengthAdjust="spacingAndGlyphs"
text-anchor="end" opacity="0" stroke-opacity="0">GND</text>
<g class="stroked-text"><desc>GND</desc>
<path d="M41.6773 12.2732
L41.5563 12.2127
" />
<path d="M41.5563 12.2127
L41.3749 12.2127
" />
<path d="M41.3749 12.2127
L41.1935 12.2732
" />
<path d="M41.1935 12.2732
L41.0725 12.3942
" />
<path d="M41.0725 12.3942
L41.0120 12.5151
" />
<path d="M41.0120 12.5151
L40.9516 12.7570
" />
<path d="M40.9516 12.7570
L40.9516 12.9384
" />
<path d="M40.9516 12.9384
L41.0120 13.1803
" />
<path d="M41.0120 13.1803
L41.0725 13.3013
" />
<path d="M41.0725 13.3013
L41.1935 13.4223
" />
<path d="M41.1935 13.4223
L41.3749 13.4827
" />
<path d="M41.3749 13.4827
L41.4958 13.4827
" />
<path d="M41.4958 13.4827
L41.6773 13.4223
" />
<path d="M41.6773 13.4223
L41.7377 13.3618
" />
<path d="M41.7377 13.3618
L41.7377 12.9384
" />
<path d="M41.7377 12.9384
L41.4958 12.9384
" />
<path d="M42.2820 13.4827
L42.2820 12.2127
" />
<path d="M42.2820 12.2127
L43.0077 13.4827
" />
<path d="M43.0077 13.4827
L43.0077 12.2127
" />
<path d="M43.6125 13.4827
L43.6125 12.2127
" />
<path d="M43.6125 12.2127
L43.9149 12.2127
" />
<path d="M43.9149 12.2127
L44.0963 12.2732
" />
<path d="M44.0963 12.2732
L44.2173 12.3942
" />
<path d="M44.2173 12.3942
L44.2778 12.5151
" />
<path d="M44.2778 12.5151
L44.3382 12.7570
" />
<path d="M44.3382 12.7570
L44.3382 12.9384
" />
<path d="M44.3382 12.9384
L44.2778 13.1803
" />
<path d="M44.2778 13.1803
L44.2173 13.3013
" />
<path d="M44.2173 13.3013
L44.0963 13.4223
" />
<path d="M44.0963 13.4223
L43.9149 13.4827
" />
<path d="M43.9149 13.4827
L43.6125 13.4827
" />
</g></g>
<g style="fill:none; 
stroke:#A90000; stroke-width:0.1524; stroke-opacity:1; 
stroke-linecap:round; stroke-linejoin:round;">
<text x="48.2364" y="12.6492"
textLength="2.6222" font-size="1.6933" lengthAdjust="spacingAndGlyphs"
text-anchor="middle" opacity="0" stroke-opacity="0">23</text>
<g class="stroked-text"><desc>23</desc>
<path d="M47.2688 11.3367
L47.3292 11.2762
" />
<path d="M47.3292 11.2762
L47.4502 11.2157
" />
<path d="M47.4502 11.2157
L47.7526 11.2157
" />
<path d="M47.7526 11.2157
L47.8735 11.2762
" />
<path d="M47.8735 11.2762
L47.9340 11.3367
" />
<path d="M47.9340 11.3367
L47.9945 11.4576
" />
<path d="M47.9945 11.4576
L47.9945 11.5786
" />
<path d="M47.9945 11.5786
L47.9340 11.7600
" />
<path d="M47.9340 11.7600
L47.2083 12.4857
" />
<path d="M47.2083 12.4857
L47.9945 12.4857
" />
<path d="M48.4178 11.2157
L49.2040 11.2157
" />
<path d="M49.2040 11.2157
L48.7806 11.6995
" />
<path d="M48.7806 11.6995
L48.9621 11.6995
" />
<path d="M48.9621 11.6995
L49.0830 11.7600
" />
<path d="M49.0830 11.7600
L49.1435 11.8205
" />
<path d="M49.1435 11.8205
L49.2040 11.9414
" />
<path d="M49.2040 11.9414
L49.2040 12.2438
" />
<path d="M49.2040 12.2438
L49.1435 12.3648
" />
<path d="M49.1435 12.3648
L49.0830 12.4253
" />
<path d="M49.0830 12.4253
L48.9621 12.4857
" />
<path d="M48.9621 12.4857
L48.5992 12.4857
" />
<path d="M48.5992 12.4857
L48.4783 12.4253
" />
<path d="M48.4783 12.4253
L48.4178 12.3648
" />
</g></g>
<g style="fill:none; 
stroke:#840000; stroke-width:0.1524; stroke-opacity:1; 
stroke-linecap:round; stroke-linejoin:round;">
<path d="M45.6964 10.3632
L50.7764 10.3632
" />
</g>
<g style="fill:none; 
stroke:#006464; stroke-width:0.1524; stroke-opacity:1; 
stroke-linecap:round; stroke-linejoin:round;">
<text x="44.6804" y="10.9982"
textLength="4.0132" font-size="1.6933" lengthAdjust="spacingAndGlyphs"
text-anchor="end" opacity="0" stroke-opacity="0">RAW</text>
<g class="stroked-text"><desc>RAW</desc>
<path d="M41.7982 10.9427
L41.3749 10.3380
" />
<path d="M41.0725 10.9427
L41.0725 9.6727
" />
<path d="M41.0725 9.6727
L41.5563 9.6727
" />
<path d="M41.5563 9.6727
L41.6773 9.7332
" />
<path d="M41.6773 9.7332
L41.7378 9.7937
" />
<path d="M41.7378 9.7937
L41.7982 9.9146
" />
<path d="M41.7982 9.9146
L41.7982 10.0961
" />
<path d="M41.7982 10.0961
L41.7378 10.2170
" />
<path d="M41.7378 10.2170
L41.6773 10.2775
" />
<path d="M41.6773 10.2775
L41.5563 10.3380
" />
<path d="M41.5563 10.3380
L41.0725 10.3380
" />
<path d="M42.2821 10.5799
L42.8868 10.5799
" />
<path d="M42.1611 10.9427
L42.5844 9.6727
" />
<path d="M42.5844 9.6727
L43.0078 10.9427
" />
<path d="M43.3102 9.6727
L43.6126 10.9427
" />
<path d="M43.6126 10.9427
L43.8545 10.0356
" />
<path d="M43.8545 10.0356
L44.0964 10.9427
" />
<path d="M44.0964 10.9427
L44.3988 9.6727
" />
</g></g>
<g style="fill:none; 
stroke:#A90000; stroke-width:0.1524; stroke-opacity:1; 
stroke-linecap:round; stroke-linejoin:round;">
<text x="48.2364" y="10.1092"
textLength="2.6222" font-size="1.6933" lengthAdjust="spacingAndGlyphs"
text-anchor="middle" opacity="0" stroke-opacity="0">24</text>
<g class="stroked-text"><desc>24</desc>
<path d="M47.2688 8.7967
L47.3292 8.7362
" />
<path d="M47.3292 8.7362
L47.4502 8.6757
" />
<path d="M47.4502 8.6757
L47.7526 8.6757
" />
<path d="M47.7526 8.6757
L47.8735 8.7362
" />
<path d="M47.8735 8.7362
L47.9340 8.7967
" />
<path d="M47.9340 8.7967
L47.9945 8.9176
" />
<path d="M47.9945 8.9176
L47.9945 9.0386
" />
<path d="M47.9945 9.0386
L47.9340 9.2200
" />
<path d="M47.9340 9.2200
L47.2083 9.9457
" />
<path d="M47.2083 9.9457
L47.9945 9.9457
" />
<path d="M49.0830 9.0991
L49.0830 9.9457
" />
<path d="M48.7806 8.6153
L48.4783 9.5224
" />
<path d="M48.4783 9.5224
L49.2644 9.5224
" />
</g></g>
<g style="fill:none; 
stroke:#840000; stroke-width:0.1524; stroke-opacity:1; 
stroke-linecap:round; stroke-linejoin:round;">
<path d="M20.2964 15.4432
L15.2164 15.4432
" />
</g>
<g style="fill:none; 
stroke:#006464; stroke-width:0.1524; stroke-opacity:1; 
stroke-linecap:round; stroke-linejoin:round;">
<text x="21.3124" y="16.0782"
textLength="4.0737" font-size="1.6933" lengthAdjust="spacingAndGlyphs"
text-anchor="start" opacity="0" stroke-opacity="0">GND</text>
<g class="stroked-text"><desc>GND</desc>
<path d="M22.3802 14.8132
L22.2592 14.7527
" />
<path d="M22.2592 14.7527
L22.0778 14.7527
" />
<path d="M22.0778 14.7527
L21.8964 14.8132
" />
<path d="M21.8964 14.8132
L21.7754 14.9342
" />
<path d="M21.7754 14.9342
L21.7149 15.0551
" />
<path d="M21.7149 15.0551
L21.6545 15.2970
" />
<path d="M21.6545 15.2970
L21.6545 15.4784
" />
<path d="M21.6545 15.4784
L21.7149 15.7203
" />
<path d="M21.7149 15.7203
L21.7754 15.8413
" />
<path d="M21.7754 15.8413
L21.8964 15.9623
" />
<path d="M21.8964 15.9623
L22.0778 16.0227
" />
<path d="M22.0778 16.0227
L22.1987 16.0227
" />
<path d="M22.1987 16.0227
L22.3802 15.9623
" />
<path d="M22.3802 15.9623
L22.4406 15.9018
" />
<path d="M22.4406 15.9018
L22.4406 15.4784
" />
<path d="M22.4406 15.4784
L22.1987 15.4784
" />
<path d="M22.9849 16.0227
L22.9849 14.7527
" />
<path d="M22.9849 14.7527
L23.7106 16.0227
" />
<path d="M23.7106 16.0227
L23.7106 14.7527
" />
<path d="M24.3154 16.0227
L24.3154 14.7527
" />
<path d="M24.3154 14.7527
L24.6178 14.7527
" />
<path d="M24.6178 14.7527
L24.7992 14.8132
" />
<path d="M24.7992 14.8132
L24.9202 14.9342
" />
<path d="M24.9202 14.9342
L24.9807 15.0551
" />
<path d="M24.9807 15.0551
L25.0411 15.2970
" />
<path d="M25.0411 15.2970
L25.0411 15.4784
" />
<path d="M25.0411 15.4784
L24.9807 15.7203
" />
<path d="M24.9807 15.7203
L24.9202 15.8413
" />
<path d="M24.9202 15.8413
L24.7992 15.9623
" />
<path d="M24.7992 15.9623
L24.6178 16.0227
" />
<path d="M24.6178 16.0227
L24.3154 16.0227
" />
</g></g>
<g style="fill:none; 
stroke:#A90000; stroke-width:0.1524; stroke-opacity:1; 
stroke-linecap:round; stroke-linejoin:round;">
<text x="17.7564" y="15.1892"
textLength="1.4127" font-size="1.6933" lengthAdjust="spacingAndGlyphs"
text-anchor="middle" opacity="0" stroke-opacity="0">3</text>
<g class="stroked-text"><desc>3</desc>
<path d="M17.3331 13.7557
L18.1193 13.7557
" />
<path d="M18.1193 13.7557
L17.6959 14.2395
" />
<path d="M17.6959 14.2395
L17.8774 14.2395
" />
<path d="M17.8774 14.2395
L17.9983 14.3000
" />
<path d="M17.9983 14.3000
L18.0588 14.3605
" />
<path d="M18.0588 14.3605
L18.1193 14.4814
" />
<path d="M18.1193 14.4814
L18.1193 14.7838
" />
<path d="M18.1193 14.7838
L18.0588 14.9048
" />
<path d="M18.0588 14.9048
L17.9983 14.9653
" />
<path d="M17.9983 14.9653
L17.8774 15.0257
" />
<path d="M17.8774 15.0257
L17.5145 15.0257
" />
<path d="M17.5145 15.0257
L17.3936 14.9653
" />
<path d="M17.3936 14.9653
L17.3331 14.9048
" />
</g></g>
<g style="fill:none; 
stroke:#840000; stroke-width:0.1524; stroke-opacity:1; 
stroke-linecap:round; stroke-linejoin:round;">
<path d="M20.2964 17.9832
L15.2164 17.9832
" />
</g>
<g style="fill:none; 
stroke:#006464; stroke-width:0.1524; stroke-opacity:1; 
stroke-linecap:round; stroke-linejoin:round;">
<text x="21.3124" y="18.6182"
textLength="4.0737" font-size="1.6933" lengthAdjust="spacingAndGlyphs"
text-anchor="start" opacity="0" stroke-opacity="0">GND</text>
<g class="stroked-text"><desc>GND</desc>
<path d="M22.3802 17.3532
L22.2592 17.2927
" />
<path d="M22.2592 17.2927
L22.0778 17.2927
" />
<path d="M22.0778 17.2927
L21.8964 17.3532
" />
<path d="M21.8964 17.3532
L21.7754 17.4742
" />
<path d="M21.7754 17.4742
L21.7149 17.5951
" />
<path d="M21.7149 17.5951
L21.6545 17.8370
" />
<path d="M21.6545 17.8370
L21.6545 18.0184
" />
<path d="M21.6545 18.0184
L21.7149 18.2603
" />
<path d="M21.7149 18.2603
L21.7754 18.3813
" />
<path d="M21.7754 18.3813
L21.8964 18.5023
" />
<path d="M21.8964 18.5023
L22.0778 18.5627
" />
<path d="M22.0778 18.5627
L22.1987 18.5627
" />
<path d="M22.1987 18.5627
L22.3802 18.5023
" />
<path d="M22.3802 18.5023
L22.4406 18.4418
" />
<path d="M22.4406 18.4418
L22.4406 18.0184
" />
<path d="M22.4406 18.0184
L22.1987 18.0184
" />
<path d="M22.9849 18.5627
L22.9849 17.2927
" />
<path d="M22.9849 17.2927
L23.7106 18.5627
" />
<path d="M23.7106 18.5627
L23.7106 17.2927
" />
<path d="M24.3154 18.5627
L24.3154 17.2927
" />
<path d="M24.3154 17.2927
L24.6178 17.2927
" />
<path d="M24.6178 17.2927
L24.7992 17.3532
" />
<path d="M24.7992 17.3532
L24.9202 17.4742
" />
<path d="M24.9202 17.4742
L24.9807 17.5951
" />
<path d="M24.9807 17.5951
L25.0411 17.8370
" />
<path d="M25.0411 17.8370
L25.0411 18.0184
" />
<path d="M25.0411 18.0184
L24.9807 18.2603
" />
<path d="M24.9807 18.2603
L24.9202 18.3813
" />
<path d="M24.9202 18.3813
L24.7992 18.5023
" />
<path d="M24.7992 18.5023
L24.6178 18.5627
" />
<path d="M24.6178 18.5627
L24.3154 18.5627
" />
</g></g>
<g style="fill:none; 
stroke:#A90000; stroke-width:0.1524; stroke-opacity:1; 
stroke-linecap:round; stroke-linejoin:round;">
<text x="17.7564" y="17.7292"
textLength="1.4127" font-size="1.6933" lengthAdjust="spacingAndGlyphs"
text-anchor="middle" opacity="0" stroke-opacity="0">4</text>
<g class="stroked-text"><desc>4</desc>
<path d="M17.9983 16.7191
L17.9983 17.5657
" />
<path d="M17.6959 16.2353
L17.3936 17.1424
" />
<path d="M17.3936 17.1424
L18.1797 17.1424
" />
</g></g>
<g style="fill:none; 
stroke:#840000; stroke-width:0.1524; stroke-opacity:1; 
stroke-linecap:round; stroke-linejoin:round;">
<path d="M20.2964 20.5232
L15.2164 20.5232
" />
</g>
<g style="fill:none; 
stroke:#006464; stroke-width:0.1524; stroke-opacity:1; 
stroke-linecap:round; stroke-linejoin:round;">
<text x="21.3124" y="21.1582"
textLength="10.1213" font-size="1.6933" lengthAdjust="spacingAndGlyphs"
text-anchor="start" opacity="0" stroke-opacity="0">2/D1/SDA</text>
<g class="stroked-text"><desc>2/D1/SDA</desc>
<path d="M21.6545 19.9537
L21.7149 19.8932
" />
<path d="M21.7149 19.8932
L21.8359 19.8327
" />
<path d="M21.8359 19.8327
L22.1383 19.8327
" />
<path d="M22.1383 19.8327
L22.2592 19.8932
" />
<path d="M22.2592 19.8932
L22.3197 19.9537
" />
<path d="M22.3197 19.9537
L22.3802 20.0746
" />
<path d="M22.3802 20.0746
L22.3802 20.1956
" />
<path d="M22.3802 20.1956
L22.3197 20.3770
" />
<path d="M22.3197 20.3770
L21.5940 21.1027
" />
<path d="M21.5940 21.1027
L22.3802 21.1027
" />
<path d="M23.8316 19.7723
L22.7430 21.4051
" />
<path d="M24.2549 21.1027
L24.2549 19.8327
" />
<path d="M24.2549 19.8327
L24.5573 19.8327
" />
<path d="M24.5573 19.8327
L24.7387 19.8932
" />
<path d="M24.7387 19.8932
L24.8597 20.0142
" />
<path d="M24.8597 20.0142
L24.9202 20.1351
" />
<path d="M24.9202 20.1351
L24.9806 20.3770
" />
<path d="M24.9806 20.3770
L24.9806 20.5584
" />
<path d="M24.9806 20.5584
L24.9202 20.8003
" />
<path d="M24.9202 20.8003
L24.8597 20.9213
" />
<path d="M24.8597 20.9213
L24.7387 21.0423
" />
<path d="M24.7387 21.0423
L24.5573 21.1027
" />
<path d="M24.5573 21.1027
L24.2549 21.1027
" />
<path d="M26.1902 21.1027
L25.4645 21.1027
" />
<path d="M25.8273 21.1027
L25.8273 19.8327
" />
<path d="M25.8273 19.8327
L25.7064 20.0142
" />
<path d="M25.7064 20.0142
L25.5854 20.1351
" />
<path d="M25.5854 20.1351
L25.4645 20.1956
" />
<path d="M27.6416 19.7723
L26.5530 21.4051
" />
<path d="M28.0045 21.0423
L28.1859 21.1027
" />
<path d="M28.1859 21.1027
L28.4883 21.1027
" />
<path d="M28.4883 21.1027
L28.6092 21.0423
" />
<path d="M28.6092 21.0423
L28.6697 20.9818
" />
<path d="M28.6697 20.9818
L28.7302 20.8608
" />
<path d="M28.7302 20.8608
L28.7302 20.7399
" />
<path d="M28.7302 20.7399
L28.6697 20.6189
" />
<path d="M28.6697 20.6189
L28.6092 20.5584
" />
<path d="M28.6092 20.5584
L28.4883 20.4980
" />
<path d="M28.4883 20.4980
L28.2464 20.4375
" />
<path d="M28.2464 20.4375
L28.1254 20.3770
" />
<path d="M28.1254 20.3770
L28.0649 20.3165
" />
<path d="M28.0649 20.3165
L28.0045 20.1956
" />
<path d="M28.0045 20.1956
L28.0045 20.0746
" />
<path d="M28.0045 20.0746
L28.0649 19.9537
" />
<path d="M28.0649 19.9537
L28.1254 19.8932
" />
<path d="M28.1254 19.8932
L28.2464 19.8327
" />
<path d="M28.2464 19.8327
L28.5487 19.8327
" />
<path d="M28.5487 19.8327
L28.7302 19.8932
" />
<path d="M29.2744 21.1027
L29.2744 19.8327
" />
<path d="M29.2744 19.8327
L29.5768 19.8327
" />
<path d="M29.5768 19.8327
L29.7582 19.8932
" />
<path d="M29.7582 19.8932
L29.8792 20.0142
" />
<path d="M29.8792 20.0142
L29.9397 20.1351
" />
<path d="M29.9397 20.1351
L30.0001 20.3770
" />
<path d="M30.0001 20.3770
L30.0001 20.5584
" />
<path d="M30.0001 20.5584
L29.9397 20.8003
" />
<path d="M29.9397 20.8003
L29.8792 20.9213
" />
<path d="M29.8792 20.9213
L29.7582 21.0423
" />
<path d="M29.7582 21.0423
L29.5768 21.1027
" />
<path d="M29.5768 21.1027
L29.2744 21.1027
" />
<path d="M30.4840 20.7399
L31.0887 20.7399
" />
<path d="M30.3630 21.1027
L30.7863 19.8327
" />
<path d="M30.7863 19.8327
L31.2097 21.1027
" />
</g></g>
<g style="fill:none; 
stroke:#A90000; stroke-width:0.1524; stroke-opacity:1; 
stroke-linecap:round; stroke-linejoin:round;">
<text x="17.7564" y="20.2692"
textLength="1.4127" font-size="1.6933" lengthAdjust="spacingAndGlyphs"
text-anchor="middle" opacity="0" stroke-opacity="0">5</text>
<g class="stroked-text"><desc>5</desc>
<path d="M18.0588 18.8357
L17.4540 18.8357
" />
<path d="M17.4540 18.8357
L17.3936 19.4405
" />
<path d="M17.3936 19.4405
L17.4540 19.3800
" />
<path d="M17.4540 19.3800
L17.5750 19.3195
" />
<path d="M17.5750 19.3195
L17.8774 19.3195
" />
<path d="M17.8774 19.3195
L17.9983 19.3800
" />
<path d="M17.9983 19.3800
L18.0588 19.4405
" />
<path d="M18.0588 19.4405
L18.1193 19.5614
" />
<path d="M18.1193 19.5614
L18.1193 19.8638
" />
<path d="M18.1193 19.8638
L18.0588 19.9848
" />
<path d="M18.0588 19.9848
L17.9983 20.0453
" />
<path d="M17.9983 20.0453
L17.8774 20.1057
" />
<path d="M17.8774 20.1057
L17.5750 20.1057
" />
<path d="M17.5750 20.1057
L17.4540 20.0453
" />
<path d="M17.4540 20.0453
L17.3936 19.9848
" />
</g></g>
<g style="fill:none; 
stroke:#840000; stroke-width:0.1524; stroke-opacity:1; 
stroke-linecap:round; stroke-linejoin:round;">
<path d="M20.2964 23.0632
L15.2164 23.0632
" />
</g>
<g style="fill:none; 
stroke:#006464; stroke-width:0.1524; stroke-opacity:1; 
stroke-linecap:round; stroke-linejoin:round;">
<text x="21.3124" y="23.6982"
textLength="10.0608" font-size="1.6933" lengthAdjust="spacingAndGlyphs"
text-anchor="start" opacity="0" stroke-opacity="0">3/D0/SCL</text>
<g class="stroked-text"><desc>3/D0/SCL</desc>
<path d="M21.5940 22.3727
L22.3802 22.3727
" />
<path d="M22.3802 22.3727
L21.9568 22.8565
" />
<path d="M21.9568 22.8565
L22.1383 22.8565
" />
<path d="M22.1383 22.8565
L22.2592 22.9170
" />
<path d="M22.2592 22.9170
L22.3197 22.9775
" />
<path d="M22.3197 22.9775
L22.3802 23.0984
" />
<path d="M22.3802 23.0984
L22.3802 23.4008
" />
<path d="M22.3802 23.4008
L22.3197 23.5218
" />
<path d="M22.3197 23.5218
L22.2592 23.5823
" />
<path d="M22.2592 23.5823
L22.1383 23.6427
" />
<path d="M22.1383 23.6427
L21.7754 23.6427
" />
<path d="M21.7754 23.6427
L21.6545 23.5823
" />
<path d="M21.6545 23.5823
L21.5940 23.5218
" />
<path d="M23.8316 22.3123
L22.7430 23.9451
" />
<path d="M24.2549 23.6427
L24.2549 22.3727
" />
<path d="M24.2549 22.3727
L24.5573 22.3727
" />
<path d="M24.5573 22.3727
L24.7387 22.4332
" />
<path d="M24.7387 22.4332
L24.8597 22.5542
" />
<path d="M24.8597 22.5542
L24.9202 22.6751
" />
<path d="M24.9202 22.6751
L24.9806 22.9170
" />
<path d="M24.9806 22.9170
L24.9806 23.0984
" />
<path d="M24.9806 23.0984
L24.9202 23.3403
" />
<path d="M24.9202 23.3403
L24.8597 23.4613
" />
<path d="M24.8597 23.4613
L24.7387 23.5823
" />
<path d="M24.7387 23.5823
L24.5573 23.6427
" />
<path d="M24.5573 23.6427
L24.2549 23.6427
" />
<path d="M25.7668 22.3727
L25.8878 22.3727
" />
<path d="M25.8878 22.3727
L26.0087 22.4332
" />
<path d="M26.0087 22.4332
L26.0692 22.4937
" />
<path d="M26.0692 22.4937
L26.1297 22.6146
" />
<path d="M26.1297 22.6146
L26.1902 22.8565
" />
<path d="M26.1902 22.8565
L26.1902 23.1589
" />
<path d="M26.1902 23.1589
L26.1297 23.4008
" />
<path d="M26.1297 23.4008
L26.0692 23.5218
" />
<path d="M26.0692 23.5218
L26.0087 23.5823
" />
<path d="M26.0087 23.5823
L25.8878 23.6427
" />
<path d="M25.8878 23.6427
L25.7668 23.6427
" />
<path d="M25.7668 23.6427
L25.6459 23.5823
" />
<path d="M25.6459 23.5823
L25.5854 23.5218
" />
<path d="M25.5854 23.5218
L25.5249 23.4008
" />
<path d="M25.5249 23.4008
L25.4645 23.1589
" />
<path d="M25.4645 23.1589
L25.4645 22.8565
" />
<path d="M25.4645 22.8565
L25.5249 22.6146
" />
<path d="M25.5249 22.6146
L25.5854 22.4937
" />
<path d="M25.5854 22.4937
L25.6459 22.4332
" />
<path d="M25.6459 22.4332
L25.7668 22.3727
" />
<path d="M27.6416 22.3123
L26.5530 23.9451
" />
<path d="M28.0045 23.5823
L28.1859 23.6427
" />
<path d="M28.1859 23.6427
L28.4883 23.6427
" />
<path d="M28.4883 23.6427
L28.6092 23.5823
" />
<path d="M28.6092 23.5823
L28.6697 23.5218
" />
<path d="M28.6697 23.5218
L28.7302 23.4008
" />
<path d="M28.7302 23.4008
L28.7302 23.2799
" />
<path d="M28.7302 23.2799
L28.6697 23.1589
" />
<path d="M28.6697 23.1589
L28.6092 23.0984
" />
<path d="M28.6092 23.0984
L28.4883 23.0380
" />
<path d="M28.4883 23.0380
L28.2464 22.9775
" />
<path d="M28.2464 22.9775
L28.1254 22.9170
" />
<path d="M28.1254 22.9170
L28.0649 22.8565
" />
<path d="M28.0649 22.8565
L28.0045 22.7356
" />
<path d="M28.0045 22.7356
L28.0045 22.6146
" />
<path d="M28.0045 22.6146
L28.0649 22.4937
" />
<path d="M28.0649 22.4937
L28.1254 22.4332
" />
<path d="M28.1254 22.4332
L28.2464 22.3727
" />
<path d="M28.2464 22.3727
L28.5487 22.3727
" />
<path d="M28.5487 22.3727
L28.7302 22.4332
" />
<path d="M30.0001 23.5218
L29.9397 23.5823
" />
<path d="M29.9397 23.5823
L29.7582 23.6427
" />
<path d="M29.7582 23.6427
L29.6373 23.6427
" />
<path d="M29.6373 23.6427
L29.4559 23.5823
" />
<path d="M29.4559 23.5823
L29.3349 23.4613
" />
<path d="M29.3349 23.4613
L29.2744 23.3403
" />
<path d="M29.2744 23.3403
L29.2140 23.0984
" />
<path d="M29.2140 23.0984
L29.2140 22.9170
" />
<path d="M29.2140 22.9170
L29.2744 22.6751
" />
<path d="M29.2744 22.6751
L29.3349 22.5542
" />
<path d="M29.3349 22.5542
L29.4559 22.4332
" />
<path d="M29.4559 22.4332
L29.6373 22.3727
" />
<path d="M29.6373 22.3727
L29.7582 22.3727
" />
<path d="M29.7582 22.3727
L29.9397 22.4332
" />
<path d="M29.9397 22.4332
L30.0001 22.4937
" />
<path d="M31.1492 23.6427
L30.5444 23.6427
" />
<path d="M30.5444 23.6427
L30.5444 22.3727
" />
</g></g>
<g style="fill:none; 
stroke:#A90000; stroke-width:0.1524; stroke-opacity:1; 
stroke-linecap:round; stroke-linejoin:round;">
<text x="17.7564" y="22.8092"
textLength="1.4127" font-size="1.6933" lengthAdjust="spacingAndGlyphs"
text-anchor="middle" opacity="0" stroke-opacity="0">6</text>
<g class="stroked-text"><desc>6</desc>
<path d="M17.9983 21.3757
L17.7564 21.3757
" />
<path d="M17.7564 21.3757
L17.6355 21.4362
" />
<path d="M17.6355 21.4362
L17.5750 21.4967
" />
<path d="M17.5750 21.4967
L17.4540 21.6781
" />
<path d="M17.4540 21.6781
L17.3936 21.9200
" />
<path d="M17.3936 21.9200
L17.3936 22.4038
" />
<path d="M17.3936 22.4038
L17.4540 22.5248
" />
<path d="M17.4540 22.5248
L17.5145 22.5853
" />
<path d="M17.5145 22.5853
L17.6355 22.6457
" />
<path d="M17.6355 22.6457
L17.8774 22.6457
" />
<path d="M17.8774 22.6457
L17.9983 22.5853
" />
<path d="M17.9983 22.5853
L18.0588 22.5248
" />
<path d="M18.0588 22.5248
L18.1193 22.4038
" />
<path d="M18.1193 22.4038
L18.1193 22.1014
" />
<path d="M18.1193 22.1014
L18.0588 21.9805
" />
<path d="M18.0588 21.9805
L17.9983 21.9200
" />
<path d="M17.9983 21.9200
L17.8774 21.8595
" />
<path d="M17.8774 21.8595
L17.6355 21.8595
" />
<path d="M17.6355 21.8595
L17.5145 21.9200
" />
<path d="M17.5145 21.9200
L17.4540 21.9805
" />
<path d="M17.4540 21.9805
L17.3936 22.1014
" />
</g></g>
<g style="fill:none; 
stroke:#840000; stroke-width:0.1524; stroke-opacity:1; 
stroke-linecap:round; stroke-linejoin:round;">
<path d="M20.2964 25.6032
L15.2164 25.6032
" />
</g>
<g style="fill:none; 
stroke:#006464; stroke-width:0.1524; stroke-opacity:1; 
stroke-linecap:round; stroke-linejoin:round;">
<text x="21.3124" y="26.2382"
textLength="5.2227" font-size="1.6933" lengthAdjust="spacingAndGlyphs"
text-anchor="start" opacity="0" stroke-opacity="0">4/D4</text>
<g class="stroked-text"><desc>4/D4</desc>
<path d="M22.2592 25.3361
L22.2592 26.1827
" />
<path d="M21.9568 24.8523
L21.6545 25.7594
" />
<path d="M21.6545 25.7594
L22.4406 25.7594
" />
<path d="M23.8316 24.8523
L22.7430 26.4851
" />
<path d="M24.2549 26.1827
L24.2549 24.9127
" />
<path d="M24.2549 24.9127
L24.5573 24.9127
" />
<path d="M24.5573 24.9127
L24.7387 24.9732
" />
<path d="M24.7387 24.9732
L24.8597 25.0942
" />
<path d="M24.8597 25.0942
L24.9202 25.2151
" />
<path d="M24.9202 25.2151
L24.9806 25.4570
" />
<path d="M24.9806 25.4570
L24.9806 25.6384
" />
<path d="M24.9806 25.6384
L24.9202 25.8803
" />
<path d="M24.9202 25.8803
L24.8597 26.0013
" />
<path d="M24.8597 26.0013
L24.7387 26.1223
" />
<path d="M24.7387 26.1223
L24.5573 26.1827
" />
<path d="M24.5573 26.1827
L24.2549 26.1827
" />
<path d="M26.0692 25.3361
L26.0692 26.1827
" />
<path d="M25.7668 24.8523
L25.4645 25.7594
" />
<path d="M25.4645 25.7594
L26.2506 25.7594
" />
</g></g>
<g style="fill:none; 
stroke:#A90000; stroke-width:0.1524; stroke-opacity:1; 
stroke-linecap:round; stroke-linejoin:round;">
<text x="17.7564" y="25.3492"
textLength="1.4127" font-size="1.6933" lengthAdjust="spacingAndGlyphs"
text-anchor="middle" opacity="0" stroke-opacity="0">7</text>
<g class="stroked-text"><desc>7</desc>
<path d="M17.3331 23.9157
L18.1797 23.9157
" />
<path d="M18.1797 23.9157
L17.6355 25.1857
" />
</g></g>
<g style="fill:none; 
stroke:#840000; stroke-width:0.1524; stroke-opacity:1; 
stroke-linecap:round; stroke-linejoin:round;">
<path d="M20.2964 28.1432
L15.2164 28.1432
" />
</g>
<g style="fill:none; 
stroke:#006464; stroke-width:0.1524; stroke-opacity:1; 
stroke-linecap:round; stroke-linejoin:round;">
<text x="21.3124" y="28.7782"
textLength="5.2227" font-size="1.6933" lengthAdjust="spacingAndGlyphs"
text-anchor="start" opacity="0" stroke-opacity="0">5/C6</text>
<g class="stroked-text"><desc>5/C6</desc>
<path d="M22.3197 27.4527
L21.7149 27.4527
" />
<path d="M21.7149 27.4527
L21.6545 28.0575
" />
<path d="M21.6545 28.0575
L21.7149 27.9970
" />
<path d="M21.7149 27.9970
L21.8359 27.9365
" />
<path d="M21.8359 27.9365
L22.1383 27.9365
" />
<path d="M22.1383 27.9365
L22.2592 27.9970
" />
<path d="M22.2592 27.9970
L22.3197 28.0575
" />
<path d="M22.3197 28.0575
L22.3802 28.1784
" />
<path d="M22.3802 28.1784
L22.3802 28.4808
" />
<path d="M22.3802 28.4808
L22.3197 28.6018
" />
<path d="M22.3197 28.6018
L22.2592 28.6623
" />
<path d="M22.2592 28.6623
L22.1383 28.7227
" />
<path d="M22.1383 28.7227
L21.8359 28.7227
" />
<path d="M21.8359 28.7227
L21.7149 28.6623
" />
<path d="M21.7149 28.6623
L21.6545 28.6018
" />
<path d="M23.8316 27.3923
L22.7430 29.0251
" />
<path d="M24.9806 28.6018
L24.9202 28.6623
" />
<path d="M24.9202 28.6623
L24.7387 28.7227
" />
<path d="M24.7387 28.7227
L24.6178 28.7227
" />
<path d="M24.6178 28.7227
L24.4364 28.6623
" />
<path d="M24.4364 28.6623
L24.3154 28.5413
" />
<path d="M24.3154 28.5413
L24.2549 28.4203
" />
<path d="M24.2549 28.4203
L24.1945 28.1784
" />
<path d="M24.1945 28.1784
L24.1945 27.9970
" />
<path d="M24.1945 27.9970
L24.2549 27.7551
" />
<path d="M24.2549 27.7551
L24.3154 27.6342
" />
<path d="M24.3154 27.6342
L24.4364 27.5132
" />
<path d="M24.4364 27.5132
L24.6178 27.4527
" />
<path d="M24.6178 27.4527
L24.7387 27.4527
" />
<path d="M24.7387 27.4527
L24.9202 27.5132
" />
<path d="M24.9202 27.5132
L24.9806 27.5737
" />
<path d="M26.0692 27.4527
L25.8273 27.4527
" />
<path d="M25.8273 27.4527
L25.7064 27.5132
" />
<path d="M25.7064 27.5132
L25.6459 27.5737
" />
<path d="M25.6459 27.5737
L25.5249 27.7551
" />
<path d="M25.5249 27.7551
L25.4645 27.9970
" />
<path d="M25.4645 27.9970
L25.4645 28.4808
" />
<path d="M25.4645 28.4808
L25.5249 28.6018
" />
<path d="M25.5249 28.6018
L25.5854 28.6623
" />
<path d="M25.5854 28.6623
L25.7064 28.7227
" />
<path d="M25.7064 28.7227
L25.9483 28.7227
" />
<path d="M25.9483 28.7227
L26.0692 28.6623
" />
<path d="M26.0692 28.6623
L26.1297 28.6018
" />
<path d="M26.1297 28.6018
L26.1902 28.4808
" />
<path d="M26.1902 28.4808
L26.1902 28.1784
" />
<path d="M26.1902 28.1784
L26.1297 28.0575
" />
<path d="M26.1297 28.0575
L26.0692 27.9970
" />
<path d="M26.0692 27.9970
L25.9483 27.9365
" />
<path d="M25.9483 27.9365
L25.7064 27.9365
" />
<path d="M25.7064 27.9365
L25.5854 27.9970
" />
<path d="M25.5854 27.9970
L25.5249 28.0575
" />
<path d="M25.5249 28.0575
L25.4645 28.1784
" />
</g></g>
<g style="fill:none; 
stroke:#A90000; stroke-width:0.1524; stroke-opacity:1; 
stroke-linecap:round; stroke-linejoin:round;">
<text x="17.7564" y="27.8892"
textLength="1.4127" font-size="1.6933" lengthAdjust="spacingAndGlyphs"
text-anchor="middle" opacity="0" stroke-opacity="0">8</text>
<g class="stroked-text"><desc>8</desc>
<path d="M17.6355 27.0000
L17.5145 26.9395
" />
<path d="M17.5145 26.9395
L17.4540 26.8791
" />
<path d="M17.4540 26.8791
L17.3936 26.7581
" />
<path d="M17.3936 26.7581
L17.3936 26.6976
" />
<path d="M17.3936 26.6976
L17.4540 26.5767
" />
<path d="M17.4540 26.5767
L17.5145 26.5162
" />
<path d="M17.5145 26.5162
L17.6355 26.4557
" />
<path d="M17.6355 26.4557
L17.8774 26.4557
" />
<path d="M17.8774 26.4557
L17.9983 26.5162
" />
<path d="M17.9983 26.5162
L18.0588 26.5767
" />
<path d="M18.0588 26.5767
L18.1193 26.6976
" />
<path d="M18.1193 26.6976
L18.1193 26.7581
" />
<path d="M18.1193 26.7581
L18.0588 26.8791
" />
<path d="M18.0588 26.8791
L17.9983 26.9395
" />
<path d="M17.9983 26.9395
L17.8774 27.0000
" />
<path d="M17.8774 27.0000
L17.6355 27.0000
" />
<path d="M17.6355 27.0000
L17.5145 27.0605
" />
<path d="M17.5145 27.0605
L17.4540 27.1210
" />
<path d="M17.4540 27.1210
L17.3936 27.2419
" />
<path d="M17.3936 27.2419
L17.3936 27.4838
" />
<path d="M17.3936 27.4838
L17.4540 27.6048
" />
<path d="M17.4540 27.6048
L17.5145 27.6653
" />
<path d="M17.5145 27.6653
L17.6355 27.7257
" />
<path d="M17.6355 27.7257
L17.8774 27.7257
" />
<path d="M17.8774 27.7257
L17.9983 27.6653
" />
<path d="M17.9983 27.6653
L18.0588 27.6048
" />
<path d="M18.0588 27.6048
L18.1193 27.4838
" />
<path d="M18.1193 27.4838
L18.1193 27.2419
" />
<path d="M18.1193 27.2419
L18.0588 27.1210
" />
<path d="M18.0588 27.1210
L17.9983 27.0605
" />
<path d="M17.9983 27.0605
L17.8774 27.0000
" />
</g></g>
<g style="fill:none; 
stroke:#840000; stroke-width:0.1524; stroke-opacity:1; 
stroke-linecap:round; stroke-linejoin:round;">
<path d="M20.2964 30.6832
L15.2164 30.6832
" />
</g>
<g style="fill:none; 
stroke:#006464; stroke-width:0.1524; stroke-opacity:1; 
stroke-linecap:round; stroke-linejoin:round;">
<text x="21.3124" y="31.3182"
textLength="5.2227" font-size="1.6933" lengthAdjust="spacingAndGlyphs"
text-anchor="start" opacity="0" stroke-opacity="0">6/D7</text>
<g class="stroked-text"><desc>6/D7</desc>
<path d="M22.2592 29.9927
L22.0173 29.9927
" />
<path d="M22.0173 29.9927
L21.8964 30.0532
" />
<path d="M21.8964 30.0532
L21.8359 30.1137
" />
<path d="M21.8359 30.1137
L21.7149 30.2951
" />
<path d="M21.7149 30.2951
L21.6545 30.5370
" />
<path d="M21.6545 30.5370
L21.6545 31.0208
" />
<path d="M21.6545 31.0208
L21.7149 31.1418
" />
<path d="M21.7149 31.1418
L21.7754 31.2023
" />
<path d="M21.7754 31.2023
L21.8964 31.2627
" />
<path d="M21.8964 31.2627
L22.1383 31.2627
" />
<path d="M22.1383 31.2627
L22.2592 31.2023
" />
<path d="M22.2592 31.2023
L22.3197 31.1418
" />
<path d="M22.3197 31.1418
L22.3802 31.0208
" />
<path d="M22.3802 31.0208
L22.3802 30.7184
" />
<path d="M22.3802 30.7184
L22.3197 30.5975
" />
<path d="M22.3197 30.5975
L22.2592 30.5370
" />
<path d="M22.2592 30.5370
L22.1383 30.4765
" />
<path d="M22.1383 30.4765
L21.8964 30.4765
" />
<path d="M21.8964 30.4765
L21.7754 30.5370
" />
<path d="M21.7754 30.5370
L21.7149 30.5975
" />
<path d="M21.7149 30.5975
L21.6545 30.7184
" />
<path d="M23.8316 29.9323
L22.7430 31.5651
" />
<path d="M24.2549 31.2627
L24.2549 29.9927
" />
<path d="M24.2549 29.9927
L24.5573 29.9927
" />
<path d="M24.5573 29.9927
L24.7387 30.0532
" />
<path d="M24.7387 30.0532
L24.8597 30.1742
" />
<path d="M24.8597 30.1742
L24.9202 30.2951
" />
<path d="M24.9202 30.2951
L24.9806 30.5370
" />
<path d="M24.9806 30.5370
L24.9806 30.7184
" />
<path d="M24.9806 30.7184
L24.9202 30.9603
" />
<path d="M24.9202 30.9603
L24.8597 31.0813
" />
<path d="M24.8597 31.0813
L24.7387 31.2023
" />
<path d="M24.7387 31.2023
L24.5573 31.2627
" />
<path d="M24.5573 31.2627
L24.2549 31.2627
" />
<path d="M25.4040 29.9927
L26.2506 29.9927
" />
<path d="M26.2506 29.9927
L25.7064 31.2627
" />
</g></g>
<g style="fill:none; 
stroke:#A90000; stroke-width:0.1524; stroke-opacity:1; 
stroke-linecap:round; stroke-linejoin:round;">
<text x="17.7564" y="30.4292"
textLength="1.4127" font-size="1.6933" lengthAdjust="spacingAndGlyphs"
text-anchor="middle" opacity="0" stroke-opacity="0">9</text>
<g class="stroked-text"><desc>9</desc>
<path d="M17.5145 30.2657
L17.7564 30.2657
" />
<path d="M17.7564 30.2657
L17.8774 30.2053
" />
<path d="M17.8774 30.2053
L17.9378 30.1448
" />
<path d="M17.9378 30.1448
L18.0588 29.9633
" />
<path d="M18.0588 29.9633
L18.1193 29.7214
" />
<path d="M18.1193 29.7214
L18.1193 29.2376
" />
<path d="M18.1193 29.2376
L18.0588 29.1167
" />
<path d="M18.0588 29.1167
L17.9983 29.0562
" />
<path d="M17.9983 29.0562
L17.8774 28.9957
" />
<path d="M17.8774 28.9957
L17.6355 28.9957
" />
<path d="M17.6355 28.9957
L17.5145 29.0562
" />
<path d="M17.5145 29.0562
L17.4540 29.1167
" />
<path d="M17.4540 29.1167
L17.3936 29.2376
" />
<path d="M17.3936 29.2376
L17.3936 29.5400
" />
<path d="M17.3936 29.5400
L17.4540 29.6610
" />
<path d="M17.4540 29.6610
L17.5145 29.7214
" />
<path d="M17.5145 29.7214
L17.6355 29.7819
" />
<path d="M17.6355 29.7819
L17.8774 29.7819
" />
<path d="M17.8774 29.7819
L17.9983 29.7214
" />
<path d="M17.9983 29.7214
L18.0588 29.6610
" />
<path d="M18.0588 29.6610
L18.1193 29.5400
" />
</g></g>
<g style="fill:none; 
stroke:#006464; stroke-width:0.1905; stroke-opacity:1; 
stroke-linecap:round; stroke-linejoin:round;">
<text x="32.9964" y="6.0453"
textLength="3.1697" font-size="2.0320" lengthAdjust="spacingAndGlyphs"
text-anchor="middle" opacity="0" stroke-opacity="0">U?</text>
<g class="stroked-text"><desc>U?</desc>
<path d="M31.9078 4.4543
L31.9078 5.6880
" />
<path d="M31.9078 5.6880
L31.9804 5.8332
" />
<path d="M31.9804 5.8332
L32.0530 5.9058
" />
<path d="M32.0530 5.9058
L32.1981 5.9783
" />
<path d="M32.1981 5.9783
L32.4884 5.9783
" />
<path d="M32.4884 5.9783
L32.6335 5.9058
" />
<path d="M32.6335 5.9058
L32.7061 5.8332
" />
<path d="M32.7061 5.8332
L32.7787 5.6880
" />
<path d="M32.7787 5.6880
L32.7787 4.4543
" />
<path d="M33.7221 5.8332
L33.7947 5.9058
" />
<path d="M33.7947 5.9058
L33.7221 5.9783
" />
<path d="M33.7221 5.9783
L33.6496 5.9058
" />
<path d="M33.6496 5.9058
L33.7221 5.8332
" />
<path d="M33.7221 5.8332
L33.7221 5.9783
" />
<path d="M33.4318 4.5269
L33.5770 4.4543
" />
<path d="M33.5770 4.4543
L33.9398 4.4543
" />
<path d="M33.9398 4.4543
L34.0850 4.5269
" />
<path d="M34.0850 4.5269
L34.1576 4.6720
" />
<path d="M34.1576 4.6720
L34.1576 4.8172
" />
<path d="M34.1576 4.8172
L34.0850 4.9623
" />
<path d="M34.0850 4.9623
L34.0124 5.0349
" />
<path d="M34.0124 5.0349
L33.8673 5.1075
" />
<path d="M33.8673 5.1075
L33.7947 5.1800
" />
<path d="M33.7947 5.1800
L33.7221 5.3252
" />
<path d="M33.7221 5.3252
L33.7221 5.3978
" />
</g><text x="32.9964" y="44.1453"
textLength="25.8845" font-size="2.0320" lengthAdjust="spacingAndGlyphs"
text-anchor="middle" opacity="0" stroke-opacity="0">ProMicro_ATmega32U4</text>
<g class="stroked-text"><desc>ProMicro_ATmega32U4</desc>
<path d="M20.5504 44.0783
L20.5504 42.5543
" />
<path d="M20.5504 42.5543
L21.1310 42.5543
" />
<path d="M21.1310 42.5543
L21.2761 42.6269
" />
<path d="M21.2761 42.6269
L21.3487 42.6995
" />
<path d="M21.3487 42.6995
L21.4213 42.8446
" />
<path d="M21.4213 42.8446
L21.4213 43.0623
" />
<path d="M21.4213 43.0623
L21.3487 43.2075
" />
<path d="M21.3487 43.2075
L21.2761 43.2800
" />
<path d="M21.2761 43.2800
L21.1310 43.3526
" />
<path d="M21.1310 43.3526
L20.5504 43.3526
" />
<path d="M22.0744 44.0783
L22.0744 43.0623
" />
<path d="M22.0744 43.3526
L22.1470 43.2075
" />
<path d="M22.1470 43.2075
L22.2196 43.1349
" />
<path d="M22.2196 43.1349
L22.3647 43.0623
" />
<path d="M22.3647 43.0623
L22.5098 43.0623
" />
<path d="M23.2355 44.0783
L23.0904 44.0058
" />
<path d="M23.0904 44.0058
L23.0178 43.9332
" />
<path d="M23.0178 43.9332
L22.9452 43.7880
" />
<path d="M22.9452 43.7880
L22.9452 43.3526
" />
<path d="M22.9452 43.3526
L23.0178 43.2075
" />
<path d="M23.0178 43.2075
L23.0904 43.1349
" />
<path d="M23.0904 43.1349
L23.2355 43.0623
" />
<path d="M23.2355 43.0623
L23.4532 43.0623
" />
<path d="M23.4532 43.0623
L23.5984 43.1349
" />
<path d="M23.5984 43.1349
L23.6710 43.2075
" />
<path d="M23.6710 43.2075
L23.7435 43.3526
" />
<path d="M23.7435 43.3526
L23.7435 43.7880
" />
<path d="M23.7435 43.7880
L23.6710 43.9332
" />
<path d="M23.6710 43.9332
L23.5984 44.0058
" />
<path d="M23.5984 44.0058
L23.4532 44.0783
" />
<path d="M23.4532 44.0783
L23.2355 44.0783
" />
<path d="M24.3967 44.0783
L24.3967 42.5543
" />
<path d="M24.3967 42.5543
L24.9047 43.6429
" />
<path d="M24.9047 43.6429
L25.4127 42.5543
" />
<path d="M25.4127 42.5543
L25.4127 44.0783
" />
<path d="M26.1384 44.0783
L26.1384 43.0623
" />
<path d="M26.1384 42.5543
L26.0658 42.6269
" />
<path d="M26.0658 42.6269
L26.1384 42.6995
" />
<path d="M26.1384 42.6995
L26.2110 42.6269
" />
<path d="M26.2110 42.6269
L26.1384 42.5543
" />
<path d="M26.1384 42.5543
L26.1384 42.6995
" />
<path d="M27.5173 44.0058
L27.3721 44.0783
" />
<path d="M27.3721 44.0783
L27.0818 44.0783
" />
<path d="M27.0818 44.0783
L26.9367 44.0058
" />
<path d="M26.9367 44.0058
L26.8641 43.9332
" />
<path d="M26.8641 43.9332
L26.7915 43.7880
" />
<path d="M26.7915 43.7880
L26.7915 43.3526
" />
<path d="M26.7915 43.3526
L26.8641 43.2075
" />
<path d="M26.8641 43.2075
L26.9367 43.1349
" />
<path d="M26.9367 43.1349
L27.0818 43.0623
" />
<path d="M27.0818 43.0623
L27.3721 43.0623
" />
<path d="M27.3721 43.0623
L27.5173 43.1349
" />
<path d="M28.1704 44.0783
L28.1704 43.0623
" />
<path d="M28.1704 43.3526
L28.2430 43.2075
" />
<path d="M28.2430 43.2075
L28.3156 43.1349
" />
<path d="M28.3156 43.1349
L28.4607 43.0623
" />
<path d="M28.4607 43.0623
L28.6058 43.0623
" />
<path d="M29.3315 44.0783
L29.1864 44.0058
" />
<path d="M29.1864 44.0058
L29.1138 43.9332
" />
<path d="M29.1138 43.9332
L29.0412 43.7880
" />
<path d="M29.0412 43.7880
L29.0412 43.3526
" />
<path d="M29.0412 43.3526
L29.1138 43.2075
" />
<path d="M29.1138 43.2075
L29.1864 43.1349
" />
<path d="M29.1864 43.1349
L29.3315 43.0623
" />
<path d="M29.3315 43.0623
L29.5492 43.0623
" />
<path d="M29.5492 43.0623
L29.6944 43.1349
" />
<path d="M29.6944 43.1349
L29.7670 43.2075
" />
<path d="M29.7670 43.2075
L29.8395 43.3526
" />
<path d="M29.8395 43.3526
L29.8395 43.7880
" />
<path d="M29.8395 43.7880
L29.7670 43.9332
" />
<path d="M29.7670 43.9332
L29.6944 44.0058
" />
<path d="M29.6944 44.0058
L29.5492 44.0783
" />
<path d="M29.5492 44.0783
L29.3315 44.0783
" />
<path d="M30.1299 44.2235
L31.2910 44.2235
" />
<path d="M31.5812 43.6429
L32.3070 43.6429
" />
<path d="M31.4361 44.0783
L31.9441 42.5543
" />
<path d="M31.9441 42.5543
L32.4521 44.0783
" />
<path d="M32.7424 42.5543
L33.6133 42.5543
" />
<path d="M33.1778 44.0783
L33.1778 42.5543
" />
<path d="M34.1212 44.0783
L34.1212 43.0623
" />
<path d="M34.1212 43.2075
L34.1938 43.1349
" />
<path d="M34.1938 43.1349
L34.3389 43.0623
" />
<path d="M34.3389 43.0623
L34.5566 43.0623
" />
<path d="M34.5566 43.0623
L34.7018 43.1349
" />
<path d="M34.7018 43.1349
L34.7744 43.2800
" />
<path d="M34.7744 43.2800
L34.7744 44.0783
" />
<path d="M34.7744 43.2800
L34.8469 43.1349
" />
<path d="M34.8469 43.1349
L34.9921 43.0623
" />
<path d="M34.9921 43.0623
L35.2098 43.0623
" />
<path d="M35.2098 43.0623
L35.3549 43.1349
" />
<path d="M35.3549 43.1349
L35.4275 43.2800
" />
<path d="M35.4275 43.2800
L35.4275 44.0783
" />
<path d="M36.7338 44.0058
L36.5886 44.0783
" />
<path d="M36.5886 44.0783
L36.2984 44.0783
" />
<path d="M36.2984 44.0783
L36.1532 44.0058
" />
<path d="M36.1532 44.0058
L36.0806 43.8606
" />
<path d="M36.0806 43.8606
L36.0806 43.2800
" />
<path d="M36.0806 43.2800
L36.1532 43.1349
" />
<path d="M36.1532 43.1349
L36.2984 43.0623
" />
<path d="M36.2984 43.0623
L36.5886 43.0623
" />
<path d="M36.5886 43.0623
L36.7338 43.1349
" />
<path d="M36.7338 43.1349
L36.8064 43.2800
" />
<path d="M36.8064 43.2800
L36.8064 43.4252
" />
<path d="M36.8064 43.4252
L36.0806 43.5703
" />
<path d="M38.1127 43.0623
L38.1127 44.2960
" />
<path d="M38.1127 44.2960
L38.0401 44.4412
" />
<path d="M38.0401 44.4412
L37.9675 44.5138
" />
<path d="M37.9675 44.5138
L37.8224 44.5863
" />
<path d="M37.8224 44.5863
L37.6047 44.5863
" />
<path d="M37.6047 44.5863
L37.4595 44.5138
" />
<path d="M38.1127 44.0058
L37.9675 44.0783
" />
<path d="M37.9675 44.0783
L37.6772 44.0783
" />
<path d="M37.6772 44.0783
L37.5321 44.0058
" />
<path d="M37.5321 44.0058
L37.4595 43.9332
" />
<path d="M37.4595 43.9332
L37.3869 43.7880
" />
<path d="M37.3869 43.7880
L37.3869 43.3526
" />
<path d="M37.3869 43.3526
L37.4595 43.2075
" />
<path d="M37.4595 43.2075
L37.5321 43.1349
" />
<path d="M37.5321 43.1349
L37.6772 43.0623
" />
<path d="M37.6772 43.0623
L37.9675 43.0623
" />
<path d="M37.9675 43.0623
L38.1127 43.1349
" />
<path d="M39.4916 44.0783
L39.4916 43.2800
" />
<path d="M39.4916 43.2800
L39.4190 43.1349
" />
<path d="M39.4190 43.1349
L39.2738 43.0623
" />
<path d="M39.2738 43.0623
L38.9836 43.0623
" />
<path d="M38.9836 43.0623
L38.8384 43.1349
" />
<path d="M39.4916 44.0058
L39.3464 44.0783
" />
<path d="M39.3464 44.0783
L38.9836 44.0783
" />
<path d="M38.9836 44.0783
L38.8384 44.0058
" />
<path d="M38.8384 44.0058
L38.7658 43.8606
" />
<path d="M38.7658 43.8606
L38.7658 43.7155
" />
<path d="M38.7658 43.7155
L38.8384 43.5703
" />
<path d="M38.8384 43.5703
L38.9836 43.4978
" />
<path d="M38.9836 43.4978
L39.3464 43.4978
" />
<path d="M39.3464 43.4978
L39.4916 43.4252
" />
<path d="M40.0722 42.5543
L41.0156 42.5543
" />
<path d="M41.0156 42.5543
L40.5076 43.1349
" />
<path d="M40.5076 43.1349
L40.7253 43.1349
" />
<path d="M40.7253 43.1349
L40.8705 43.2075
" />
<path d="M40.8705 43.2075
L40.9430 43.2800
" />
<path d="M40.9430 43.2800
L41.0156 43.4252
" />
<path d="M41.0156 43.4252
L41.0156 43.7880
" />
<path d="M41.0156 43.7880
L40.9430 43.9332
" />
<path d="M40.9430 43.9332
L40.8705 44.0058
" />
<path d="M40.8705 44.0058
L40.7253 44.0783
" />
<path d="M40.7253 44.0783
L40.2899 44.0783
" />
<path d="M40.2899 44.0783
L40.1447 44.0058
" />
<path d="M40.1447 44.0058
L40.0722 43.9332
" />
<path d="M41.5961 42.6995
L41.6687 42.6269
" />
<path d="M41.6687 42.6269
L41.8139 42.5543
" />
<path d="M41.8139 42.5543
L42.1767 42.5543
" />
<path d="M42.1767 42.5543
L42.3219 42.6269
" />
<path d="M42.3219 42.6269
L42.3944 42.6995
" />
<path d="M42.3944 42.6995
L42.4670 42.8446
" />
<path d="M42.4670 42.8446
L42.4670 42.9898
" />
<path d="M42.4670 42.9898
L42.3944 43.2075
" />
<path d="M42.3944 43.2075
L41.5236 44.0783
" />
<path d="M41.5236 44.0783
L42.4670 44.0783
" />
<path d="M43.1201 42.5543
L43.1201 43.7880
" />
<path d="M43.1201 43.7880
L43.1927 43.9332
" />
<path d="M43.1927 43.9332
L43.2653 44.0058
" />
<path d="M43.2653 44.0058
L43.4104 44.0783
" />
<path d="M43.4104 44.0783
L43.7007 44.0783
" />
<path d="M43.7007 44.0783
L43.8458 44.0058
" />
<path d="M43.8458 44.0058
L43.9184 43.9332
" />
<path d="M43.9184 43.9332
L43.9910 43.7880
" />
<path d="M43.9910 43.7880
L43.9910 42.5543
" />
<path d="M45.3699 43.0623
L45.3699 44.0783
" />
<path d="M45.0070 42.4818
L44.6441 43.5703
" />
<path d="M44.6441 43.5703
L45.5876 43.5703
" />
</g></g> 
</svg>
