<?xml version="1.0" standalone="no"?>
 <!DOCTYPE svg PUBLIC "-//W3C//DTD SVG 1.1//EN" 
 "http://www.w3.org/Graphics/SVG/1.1/DTD/svg11.dtd"> 
<svg
  xmlns:svg="http://www.w3.org/2000/svg"
  xmlns="http://www.w3.org/2000/svg"
  xmlns:xlink="http://www.w3.org/1999/xlink"
  version="1.1"
  width="43.5864mm" height="48.6664mm" viewBox="0.0000 0.0000 43.5864 48.6664">
<title>SVG Image created as ProMicro_RP2040_unit1.svg date 2025/04/10 01:40:37 </title>
  <desc>Image generated by Eeschema-SVG </desc>
<g style="fill:#000000; fill-opacity:1.0000;stroke:#000000; stroke-opacity:1.0000;
stroke-linecap:round; stroke-linejoin:round;"
 transform="translate(0 0) scale(1 1)">
</g>
<g style="fill:#FFFFC2; fill-opacity:1.0000; stroke:none;">
<rect x="9.093200" y="7.823200" width="25.400000" height="33.020000" rx="0.000000" />
</g>
<g style="fill:none; 
stroke:#840000; stroke-width:0.1524; stroke-opacity:1; 
stroke-linecap:round; stroke-linejoin:round;">
<rect x="9.093200" y="7.823200" width="25.400000" height="33.020000" rx="0.000000" />
<path d="M9.0932 10.3632
L4.0132 10.3632
" />
</g>
<g style="fill:none; 
stroke:#006464; stroke-width:0.1524; stroke-opacity:1; 
stroke-linecap:round; stroke-linejoin:round;">
<text x="10.1092" y="10.9982"
textLength="2.3803" font-size="1.6933" lengthAdjust="spacingAndGlyphs"
text-anchor="start" opacity="0" stroke-opacity="0">TX</text>
<g class="stroked-text"><desc>TX</desc>
<path d="M10.3303 9.6727
L11.0560 9.6727
" />
<path d="M10.6932 10.9427
L10.6932 9.6727
" />
<path d="M11.3584 9.6727
L12.2050 10.9427
" />
<path d="M12.2050 9.6727
L11.3584 10.9427
" />
</g></g>
<g style="fill:none; 
stroke:#A90000; stroke-width:0.1524; stroke-opacity:1; 
stroke-linecap:round; stroke-linejoin:round;">
<text x="6.5532" y="10.1092"
textLength="1.4127" font-size="1.6933" lengthAdjust="spacingAndGlyphs"
text-anchor="middle" opacity="0" stroke-opacity="0">1</text>
<g class="stroked-text"><desc>1</desc>
<path d="M6.9161 9.9457
L6.1904 9.9457
" />
<path d="M6.5532 9.9457
L6.5532 8.6757
" />
<path d="M6.5532 8.6757
L6.4323 8.8572
" />
<path d="M6.4323 8.8572
L6.3113 8.9781
" />
<path d="M6.3113 8.9781
L6.1904 9.0386
" />
</g></g>
<g style="fill:none; 
stroke:#840000; stroke-width:0.1524; stroke-opacity:1; 
stroke-linecap:round; stroke-linejoin:round;">
<path d="M9.0932 12.9032
L4.0132 12.9032
" />
</g>
<g style="fill:none; 
stroke:#006464; stroke-width:0.1524; stroke-opacity:1; 
stroke-linecap:round; stroke-linejoin:round;">
<text x="10.1092" y="13.5382"
textLength="2.6827" font-size="1.6933" lengthAdjust="spacingAndGlyphs"
text-anchor="start" opacity="0" stroke-opacity="0">RX</text>
<g class="stroked-text"><desc>RX</desc>
<path d="M11.2374 13.4827
L10.8141 12.8780
" />
<path d="M10.5117 13.4827
L10.5117 12.2127
" />
<path d="M10.5117 12.2127
L10.9955 12.2127
" />
<path d="M10.9955 12.2127
L11.1165 12.2732
" />
<path d="M11.1165 12.2732
L11.1770 12.3337
" />
<path d="M11.1770 12.3337
L11.2374 12.4546
" />
<path d="M11.2374 12.4546
L11.2374 12.6361
" />
<path d="M11.2374 12.6361
L11.1770 12.7570
" />
<path d="M11.1770 12.7570
L11.1165 12.8175
" />
<path d="M11.1165 12.8175
L10.9955 12.8780
" />
<path d="M10.9955 12.8780
L10.5117 12.8780
" />
<path d="M11.6608 12.2127
L12.5074 13.4827
" />
<path d="M12.5074 12.2127
L11.6608 13.4827
" />
</g></g>
<g style="fill:none; 
stroke:#A90000; stroke-width:0.1524; stroke-opacity:1; 
stroke-linecap:round; stroke-linejoin:round;">
<text x="6.5532" y="12.6492"
textLength="1.4127" font-size="1.6933" lengthAdjust="spacingAndGlyphs"
text-anchor="middle" opacity="0" stroke-opacity="0">2</text>
<g class="stroked-text"><desc>2</desc>
<path d="M6.1904 11.3367
L6.2508 11.2762
" />
<path d="M6.2508 11.2762
L6.3718 11.2157
" />
<path d="M6.3718 11.2157
L6.6742 11.2157
" />
<path d="M6.6742 11.2157
L6.7951 11.2762
" />
<path d="M6.7951 11.2762
L6.8556 11.3367
" />
<path d="M6.8556 11.3367
L6.9161 11.4576
" />
<path d="M6.9161 11.4576
L6.9161 11.5786
" />
<path d="M6.9161 11.5786
L6.8556 11.7600
" />
<path d="M6.8556 11.7600
L6.1299 12.4857
" />
<path d="M6.1299 12.4857
L6.9161 12.4857
" />
</g></g>
<g style="fill:none; 
stroke:#840000; stroke-width:0.1524; stroke-opacity:1; 
stroke-linecap:round; stroke-linejoin:round;">
<path d="M9.0932 15.4432
L4.0132 15.4432
" />
</g>
<g style="fill:none; 
stroke:#006464; stroke-width:0.1524; stroke-opacity:1; 
stroke-linecap:round; stroke-linejoin:round;">
<text x="10.1092" y="16.0782"
textLength="4.0737" font-size="1.6933" lengthAdjust="spacingAndGlyphs"
text-anchor="start" opacity="0" stroke-opacity="0">GND</text>
<g class="stroked-text"><desc>GND</desc>
<path d="M11.1770 14.8132
L11.0560 14.7527
" />
<path d="M11.0560 14.7527
L10.8746 14.7527
" />
<path d="M10.8746 14.7527
L10.6932 14.8132
" />
<path d="M10.6932 14.8132
L10.5722 14.9342
" />
<path d="M10.5722 14.9342
L10.5117 15.0551
" />
<path d="M10.5117 15.0551
L10.4513 15.2970
" />
<path d="M10.4513 15.2970
L10.4513 15.4784
" />
<path d="M10.4513 15.4784
L10.5117 15.7203
" />
<path d="M10.5117 15.7203
L10.5722 15.8413
" />
<path d="M10.5722 15.8413
L10.6932 15.9623
" />
<path d="M10.6932 15.9623
L10.8746 16.0227
" />
<path d="M10.8746 16.0227
L10.9955 16.0227
" />
<path d="M10.9955 16.0227
L11.1770 15.9623
" />
<path d="M11.1770 15.9623
L11.2374 15.9018
" />
<path d="M11.2374 15.9018
L11.2374 15.4784
" />
<path d="M11.2374 15.4784
L10.9955 15.4784
" />
<path d="M11.7817 16.0227
L11.7817 14.7527
" />
<path d="M11.7817 14.7527
L12.5074 16.0227
" />
<path d="M12.5074 16.0227
L12.5074 14.7527
" />
<path d="M13.1122 16.0227
L13.1122 14.7527
" />
<path d="M13.1122 14.7527
L13.4146 14.7527
" />
<path d="M13.4146 14.7527
L13.5960 14.8132
" />
<path d="M13.5960 14.8132
L13.7170 14.9342
" />
<path d="M13.7170 14.9342
L13.7775 15.0551
" />
<path d="M13.7775 15.0551
L13.8379 15.2970
" />
<path d="M13.8379 15.2970
L13.8379 15.4784
" />
<path d="M13.8379 15.4784
L13.7775 15.7203
" />
<path d="M13.7775 15.7203
L13.7170 15.8413
" />
<path d="M13.7170 15.8413
L13.5960 15.9623
" />
<path d="M13.5960 15.9623
L13.4146 16.0227
" />
<path d="M13.4146 16.0227
L13.1122 16.0227
" />
</g></g>
<g style="fill:none; 
stroke:#A90000; stroke-width:0.1524; stroke-opacity:1; 
stroke-linecap:round; stroke-linejoin:round;">
<text x="6.5532" y="15.1892"
textLength="1.4127" font-size="1.6933" lengthAdjust="spacingAndGlyphs"
text-anchor="middle" opacity="0" stroke-opacity="0">3</text>
<g class="stroked-text"><desc>3</desc>
<path d="M6.1299 13.7557
L6.9161 13.7557
" />
<path d="M6.9161 13.7557
L6.4927 14.2395
" />
<path d="M6.4927 14.2395
L6.6742 14.2395
" />
<path d="M6.6742 14.2395
L6.7951 14.3000
" />
<path d="M6.7951 14.3000
L6.8556 14.3605
" />
<path d="M6.8556 14.3605
L6.9161 14.4814
" />
<path d="M6.9161 14.4814
L6.9161 14.7838
" />
<path d="M6.9161 14.7838
L6.8556 14.9048
" />
<path d="M6.8556 14.9048
L6.7951 14.9653
" />
<path d="M6.7951 14.9653
L6.6742 15.0257
" />
<path d="M6.6742 15.0257
L6.3113 15.0257
" />
<path d="M6.3113 15.0257
L6.1904 14.9653
" />
<path d="M6.1904 14.9653
L6.1299 14.9048
" />
</g></g>
<g style="fill:none; 
stroke:#840000; stroke-width:0.1524; stroke-opacity:1; 
stroke-linecap:round; stroke-linejoin:round;">
<path d="M9.0932 17.9832
L4.0132 17.9832
" />
</g>
<g style="fill:none; 
stroke:#006464; stroke-width:0.1524; stroke-opacity:1; 
stroke-linecap:round; stroke-linejoin:round;">
<text x="10.1092" y="18.6182"
textLength="4.0737" font-size="1.6933" lengthAdjust="spacingAndGlyphs"
text-anchor="start" opacity="0" stroke-opacity="0">GND</text>
<g class="stroked-text"><desc>GND</desc>
<path d="M11.1770 17.3532
L11.0560 17.2927
" />
<path d="M11.0560 17.2927
L10.8746 17.2927
" />
<path d="M10.8746 17.2927
L10.6932 17.3532
" />
<path d="M10.6932 17.3532
L10.5722 17.4742
" />
<path d="M10.5722 17.4742
L10.5117 17.5951
" />
<path d="M10.5117 17.5951
L10.4513 17.8370
" />
<path d="M10.4513 17.8370
L10.4513 18.0184
" />
<path d="M10.4513 18.0184
L10.5117 18.2603
" />
<path d="M10.5117 18.2603
L10.5722 18.3813
" />
<path d="M10.5722 18.3813
L10.6932 18.5023
" />
<path d="M10.6932 18.5023
L10.8746 18.5627
" />
<path d="M10.8746 18.5627
L10.9955 18.5627
" />
<path d="M10.9955 18.5627
L11.1770 18.5023
" />
<path d="M11.1770 18.5023
L11.2374 18.4418
" />
<path d="M11.2374 18.4418
L11.2374 18.0184
" />
<path d="M11.2374 18.0184
L10.9955 18.0184
" />
<path d="M11.7817 18.5627
L11.7817 17.2927
" />
<path d="M11.7817 17.2927
L12.5074 18.5627
" />
<path d="M12.5074 18.5627
L12.5074 17.2927
" />
<path d="M13.1122 18.5627
L13.1122 17.2927
" />
<path d="M13.1122 17.2927
L13.4146 17.2927
" />
<path d="M13.4146 17.2927
L13.5960 17.3532
" />
<path d="M13.5960 17.3532
L13.7170 17.4742
" />
<path d="M13.7170 17.4742
L13.7775 17.5951
" />
<path d="M13.7775 17.5951
L13.8379 17.8370
" />
<path d="M13.8379 17.8370
L13.8379 18.0184
" />
<path d="M13.8379 18.0184
L13.7775 18.2603
" />
<path d="M13.7775 18.2603
L13.7170 18.3813
" />
<path d="M13.7170 18.3813
L13.5960 18.5023
" />
<path d="M13.5960 18.5023
L13.4146 18.5627
" />
<path d="M13.4146 18.5627
L13.1122 18.5627
" />
</g></g>
<g style="fill:none; 
stroke:#A90000; stroke-width:0.1524; stroke-opacity:1; 
stroke-linecap:round; stroke-linejoin:round;">
<text x="6.5532" y="17.7292"
textLength="1.4127" font-size="1.6933" lengthAdjust="spacingAndGlyphs"
text-anchor="middle" opacity="0" stroke-opacity="0">4</text>
<g class="stroked-text"><desc>4</desc>
<path d="M6.7951 16.7191
L6.7951 17.5657
" />
<path d="M6.4927 16.2353
L6.1904 17.1424
" />
<path d="M6.1904 17.1424
L6.9765 17.1424
" />
</g></g>
<g style="fill:none; 
stroke:#840000; stroke-width:0.1524; stroke-opacity:1; 
stroke-linecap:round; stroke-linejoin:round;">
<path d="M9.0932 20.5232
L4.0132 20.5232
" />
</g>
<g style="fill:none; 
stroke:#006464; stroke-width:0.1524; stroke-opacity:1; 
stroke-linecap:round; stroke-linejoin:round;">
<text x="10.1092" y="21.1582"
textLength="7.5813" font-size="1.6933" lengthAdjust="spacingAndGlyphs"
text-anchor="start" opacity="0" stroke-opacity="0">D2/SDA</text>
<g class="stroked-text"><desc>D2/SDA</desc>
<path d="M10.5117 21.1027
L10.5117 19.8327
" />
<path d="M10.5117 19.8327
L10.8141 19.8327
" />
<path d="M10.8141 19.8327
L10.9955 19.8932
" />
<path d="M10.9955 19.8932
L11.1165 20.0142
" />
<path d="M11.1165 20.0142
L11.1770 20.1351
" />
<path d="M11.1770 20.1351
L11.2374 20.3770
" />
<path d="M11.2374 20.3770
L11.2374 20.5584
" />
<path d="M11.2374 20.5584
L11.1770 20.8003
" />
<path d="M11.1770 20.8003
L11.1165 20.9213
" />
<path d="M11.1165 20.9213
L10.9955 21.0423
" />
<path d="M10.9955 21.0423
L10.8141 21.1027
" />
<path d="M10.8141 21.1027
L10.5117 21.1027
" />
<path d="M11.7213 19.9537
L11.7817 19.8932
" />
<path d="M11.7817 19.8932
L11.9027 19.8327
" />
<path d="M11.9027 19.8327
L12.2051 19.8327
" />
<path d="M12.2051 19.8327
L12.3260 19.8932
" />
<path d="M12.3260 19.8932
L12.3865 19.9537
" />
<path d="M12.3865 19.9537
L12.4470 20.0746
" />
<path d="M12.4470 20.0746
L12.4470 20.1956
" />
<path d="M12.4470 20.1956
L12.3865 20.3770
" />
<path d="M12.3865 20.3770
L11.6608 21.1027
" />
<path d="M11.6608 21.1027
L12.4470 21.1027
" />
<path d="M13.8984 19.7723
L12.8098 21.4051
" />
<path d="M14.2613 21.0423
L14.4427 21.1027
" />
<path d="M14.4427 21.1027
L14.7451 21.1027
" />
<path d="M14.7451 21.1027
L14.8660 21.0423
" />
<path d="M14.8660 21.0423
L14.9265 20.9818
" />
<path d="M14.9265 20.9818
L14.9870 20.8608
" />
<path d="M14.9870 20.8608
L14.9870 20.7399
" />
<path d="M14.9870 20.7399
L14.9265 20.6189
" />
<path d="M14.9265 20.6189
L14.8660 20.5584
" />
<path d="M14.8660 20.5584
L14.7451 20.4980
" />
<path d="M14.7451 20.4980
L14.5032 20.4375
" />
<path d="M14.5032 20.4375
L14.3822 20.3770
" />
<path d="M14.3822 20.3770
L14.3217 20.3165
" />
<path d="M14.3217 20.3165
L14.2613 20.1956
" />
<path d="M14.2613 20.1956
L14.2613 20.0746
" />
<path d="M14.2613 20.0746
L14.3217 19.9537
" />
<path d="M14.3217 19.9537
L14.3822 19.8932
" />
<path d="M14.3822 19.8932
L14.5032 19.8327
" />
<path d="M14.5032 19.8327
L14.8055 19.8327
" />
<path d="M14.8055 19.8327
L14.9870 19.8932
" />
<path d="M15.5312 21.1027
L15.5312 19.8327
" />
<path d="M15.5312 19.8327
L15.8336 19.8327
" />
<path d="M15.8336 19.8327
L16.0150 19.8932
" />
<path d="M16.0150 19.8932
L16.1360 20.0142
" />
<path d="M16.1360 20.0142
L16.1965 20.1351
" />
<path d="M16.1965 20.1351
L16.2569 20.3770
" />
<path d="M16.2569 20.3770
L16.2569 20.5584
" />
<path d="M16.2569 20.5584
L16.1965 20.8003
" />
<path d="M16.1965 20.8003
L16.1360 20.9213
" />
<path d="M16.1360 20.9213
L16.0150 21.0423
" />
<path d="M16.0150 21.0423
L15.8336 21.1027
" />
<path d="M15.8336 21.1027
L15.5312 21.1027
" />
<path d="M16.7408 20.7399
L17.3455 20.7399
" />
<path d="M16.6198 21.1027
L17.0431 19.8327
" />
<path d="M17.0431 19.8327
L17.4665 21.1027
" />
</g></g>
<g style="fill:none; 
stroke:#A90000; stroke-width:0.1524; stroke-opacity:1; 
stroke-linecap:round; stroke-linejoin:round;">
<text x="6.5532" y="20.2692"
textLength="1.4127" font-size="1.6933" lengthAdjust="spacingAndGlyphs"
text-anchor="middle" opacity="0" stroke-opacity="0">5</text>
<g class="stroked-text"><desc>5</desc>
<path d="M6.8556 18.8357
L6.2508 18.8357
" />
<path d="M6.2508 18.8357
L6.1904 19.4405
" />
<path d="M6.1904 19.4405
L6.2508 19.3800
" />
<path d="M6.2508 19.3800
L6.3718 19.3195
" />
<path d="M6.3718 19.3195
L6.6742 19.3195
" />
<path d="M6.6742 19.3195
L6.7951 19.3800
" />
<path d="M6.7951 19.3800
L6.8556 19.4405
" />
<path d="M6.8556 19.4405
L6.9161 19.5614
" />
<path d="M6.9161 19.5614
L6.9161 19.8638
" />
<path d="M6.9161 19.8638
L6.8556 19.9848
" />
<path d="M6.8556 19.9848
L6.7951 20.0453
" />
<path d="M6.7951 20.0453
L6.6742 20.1057
" />
<path d="M6.6742 20.1057
L6.3718 20.1057
" />
<path d="M6.3718 20.1057
L6.2508 20.0453
" />
<path d="M6.2508 20.0453
L6.1904 19.9848
" />
</g></g>
<g style="fill:none; 
stroke:#840000; stroke-width:0.1524; stroke-opacity:1; 
stroke-linecap:round; stroke-linejoin:round;">
<path d="M9.0932 23.0632
L4.0132 23.0632
" />
</g>
<g style="fill:none; 
stroke:#006464; stroke-width:0.1524; stroke-opacity:1; 
stroke-linecap:round; stroke-linejoin:round;">
<text x="10.1092" y="23.6982"
textLength="7.5208" font-size="1.6933" lengthAdjust="spacingAndGlyphs"
text-anchor="start" opacity="0" stroke-opacity="0">D3/SCL</text>
<g class="stroked-text"><desc>D3/SCL</desc>
<path d="M10.5117 23.6427
L10.5117 22.3727
" />
<path d="M10.5117 22.3727
L10.8141 22.3727
" />
<path d="M10.8141 22.3727
L10.9955 22.4332
" />
<path d="M10.9955 22.4332
L11.1165 22.5542
" />
<path d="M11.1165 22.5542
L11.1770 22.6751
" />
<path d="M11.1770 22.6751
L11.2374 22.9170
" />
<path d="M11.2374 22.9170
L11.2374 23.0984
" />
<path d="M11.2374 23.0984
L11.1770 23.3403
" />
<path d="M11.1770 23.3403
L11.1165 23.4613
" />
<path d="M11.1165 23.4613
L10.9955 23.5823
" />
<path d="M10.9955 23.5823
L10.8141 23.6427
" />
<path d="M10.8141 23.6427
L10.5117 23.6427
" />
<path d="M11.6608 22.3727
L12.4470 22.3727
" />
<path d="M12.4470 22.3727
L12.0236 22.8565
" />
<path d="M12.0236 22.8565
L12.2051 22.8565
" />
<path d="M12.2051 22.8565
L12.3260 22.9170
" />
<path d="M12.3260 22.9170
L12.3865 22.9775
" />
<path d="M12.3865 22.9775
L12.4470 23.0984
" />
<path d="M12.4470 23.0984
L12.4470 23.4008
" />
<path d="M12.4470 23.4008
L12.3865 23.5218
" />
<path d="M12.3865 23.5218
L12.3260 23.5823
" />
<path d="M12.3260 23.5823
L12.2051 23.6427
" />
<path d="M12.2051 23.6427
L11.8422 23.6427
" />
<path d="M11.8422 23.6427
L11.7213 23.5823
" />
<path d="M11.7213 23.5823
L11.6608 23.5218
" />
<path d="M13.8984 22.3123
L12.8098 23.9451
" />
<path d="M14.2613 23.5823
L14.4427 23.6427
" />
<path d="M14.4427 23.6427
L14.7451 23.6427
" />
<path d="M14.7451 23.6427
L14.8660 23.5823
" />
<path d="M14.8660 23.5823
L14.9265 23.5218
" />
<path d="M14.9265 23.5218
L14.9870 23.4008
" />
<path d="M14.9870 23.4008
L14.9870 23.2799
" />
<path d="M14.9870 23.2799
L14.9265 23.1589
" />
<path d="M14.9265 23.1589
L14.8660 23.0984
" />
<path d="M14.8660 23.0984
L14.7451 23.0380
" />
<path d="M14.7451 23.0380
L14.5032 22.9775
" />
<path d="M14.5032 22.9775
L14.3822 22.9170
" />
<path d="M14.3822 22.9170
L14.3217 22.8565
" />
<path d="M14.3217 22.8565
L14.2613 22.7356
" />
<path d="M14.2613 22.7356
L14.2613 22.6146
" />
<path d="M14.2613 22.6146
L14.3217 22.4937
" />
<path d="M14.3217 22.4937
L14.3822 22.4332
" />
<path d="M14.3822 22.4332
L14.5032 22.3727
" />
<path d="M14.5032 22.3727
L14.8055 22.3727
" />
<path d="M14.8055 22.3727
L14.9870 22.4332
" />
<path d="M16.2569 23.5218
L16.1965 23.5823
" />
<path d="M16.1965 23.5823
L16.0150 23.6427
" />
<path d="M16.0150 23.6427
L15.8941 23.6427
" />
<path d="M15.8941 23.6427
L15.7127 23.5823
" />
<path d="M15.7127 23.5823
L15.5917 23.4613
" />
<path d="M15.5917 23.4613
L15.5312 23.3403
" />
<path d="M15.5312 23.3403
L15.4708 23.0984
" />
<path d="M15.4708 23.0984
L15.4708 22.9170
" />
<path d="M15.4708 22.9170
L15.5312 22.6751
" />
<path d="M15.5312 22.6751
L15.5917 22.5542
" />
<path d="M15.5917 22.5542
L15.7127 22.4332
" />
<path d="M15.7127 22.4332
L15.8941 22.3727
" />
<path d="M15.8941 22.3727
L16.0150 22.3727
" />
<path d="M16.0150 22.3727
L16.1965 22.4332
" />
<path d="M16.1965 22.4332
L16.2569 22.4937
" />
<path d="M17.4060 23.6427
L16.8012 23.6427
" />
<path d="M16.8012 23.6427
L16.8012 22.3727
" />
</g></g>
<g style="fill:none; 
stroke:#A90000; stroke-width:0.1524; stroke-opacity:1; 
stroke-linecap:round; stroke-linejoin:round;">
<text x="6.5532" y="22.8092"
textLength="1.4127" font-size="1.6933" lengthAdjust="spacingAndGlyphs"
text-anchor="middle" opacity="0" stroke-opacity="0">6</text>
<g class="stroked-text"><desc>6</desc>
<path d="M6.7951 21.3757
L6.5532 21.3757
" />
<path d="M6.5532 21.3757
L6.4323 21.4362
" />
<path d="M6.4323 21.4362
L6.3718 21.4967
" />
<path d="M6.3718 21.4967
L6.2508 21.6781
" />
<path d="M6.2508 21.6781
L6.1904 21.9200
" />
<path d="M6.1904 21.9200
L6.1904 22.4038
" />
<path d="M6.1904 22.4038
L6.2508 22.5248
" />
<path d="M6.2508 22.5248
L6.3113 22.5853
" />
<path d="M6.3113 22.5853
L6.4323 22.6457
" />
<path d="M6.4323 22.6457
L6.6742 22.6457
" />
<path d="M6.6742 22.6457
L6.7951 22.5853
" />
<path d="M6.7951 22.5853
L6.8556 22.5248
" />
<path d="M6.8556 22.5248
L6.9161 22.4038
" />
<path d="M6.9161 22.4038
L6.9161 22.1014
" />
<path d="M6.9161 22.1014
L6.8556 21.9805
" />
<path d="M6.8556 21.9805
L6.7951 21.9200
" />
<path d="M6.7951 21.9200
L6.6742 21.8595
" />
<path d="M6.6742 21.8595
L6.4323 21.8595
" />
<path d="M6.4323 21.8595
L6.3113 21.9200
" />
<path d="M6.3113 21.9200
L6.2508 21.9805
" />
<path d="M6.2508 21.9805
L6.1904 22.1014
" />
</g></g>
<g style="fill:none; 
stroke:#840000; stroke-width:0.1524; stroke-opacity:1; 
stroke-linecap:round; stroke-linejoin:round;">
<path d="M9.0932 25.6032
L4.0132 25.6032
" />
</g>
<g style="fill:none; 
stroke:#006464; stroke-width:0.1524; stroke-opacity:1; 
stroke-linecap:round; stroke-linejoin:round;">
<text x="10.1092" y="26.2382"
textLength="2.6827" font-size="1.6933" lengthAdjust="spacingAndGlyphs"
text-anchor="start" opacity="0" stroke-opacity="0">D4</text>
<g class="stroked-text"><desc>D4</desc>
<path d="M10.5117 26.1827
L10.5117 24.9127
" />
<path d="M10.5117 24.9127
L10.8141 24.9127
" />
<path d="M10.8141 24.9127
L10.9955 24.9732
" />
<path d="M10.9955 24.9732
L11.1165 25.0942
" />
<path d="M11.1165 25.0942
L11.1770 25.2151
" />
<path d="M11.1770 25.2151
L11.2374 25.4570
" />
<path d="M11.2374 25.4570
L11.2374 25.6384
" />
<path d="M11.2374 25.6384
L11.1770 25.8803
" />
<path d="M11.1770 25.8803
L11.1165 26.0013
" />
<path d="M11.1165 26.0013
L10.9955 26.1223
" />
<path d="M10.9955 26.1223
L10.8141 26.1827
" />
<path d="M10.8141 26.1827
L10.5117 26.1827
" />
<path d="M12.3260 25.3361
L12.3260 26.1827
" />
<path d="M12.0236 24.8523
L11.7213 25.7594
" />
<path d="M11.7213 25.7594
L12.5074 25.7594
" />
</g></g>
<g style="fill:none; 
stroke:#A90000; stroke-width:0.1524; stroke-opacity:1; 
stroke-linecap:round; stroke-linejoin:round;">
<text x="6.5532" y="25.3492"
textLength="1.4127" font-size="1.6933" lengthAdjust="spacingAndGlyphs"
text-anchor="middle" opacity="0" stroke-opacity="0">7</text>
<g class="stroked-text"><desc>7</desc>
<path d="M6.1299 23.9157
L6.9765 23.9157
" />
<path d="M6.9765 23.9157
L6.4323 25.1857
" />
</g></g>
<g style="fill:none; 
stroke:#840000; stroke-width:0.1524; stroke-opacity:1; 
stroke-linecap:round; stroke-linejoin:round;">
<path d="M9.0932 28.1432
L4.0132 28.1432
" />
</g>
<g style="fill:none; 
stroke:#006464; stroke-width:0.1524; stroke-opacity:1; 
stroke-linecap:round; stroke-linejoin:round;">
<text x="10.1092" y="28.7782"
textLength="2.6827" font-size="1.6933" lengthAdjust="spacingAndGlyphs"
text-anchor="start" opacity="0" stroke-opacity="0">D5</text>
<g class="stroked-text"><desc>D5</desc>
<path d="M10.5117 28.7227
L10.5117 27.4527
" />
<path d="M10.5117 27.4527
L10.8141 27.4527
" />
<path d="M10.8141 27.4527
L10.9955 27.5132
" />
<path d="M10.9955 27.5132
L11.1165 27.6342
" />
<path d="M11.1165 27.6342
L11.1770 27.7551
" />
<path d="M11.1770 27.7551
L11.2374 27.9970
" />
<path d="M11.2374 27.9970
L11.2374 28.1784
" />
<path d="M11.2374 28.1784
L11.1770 28.4203
" />
<path d="M11.1770 28.4203
L11.1165 28.5413
" />
<path d="M11.1165 28.5413
L10.9955 28.6623
" />
<path d="M10.9955 28.6623
L10.8141 28.7227
" />
<path d="M10.8141 28.7227
L10.5117 28.7227
" />
<path d="M12.3865 27.4527
L11.7817 27.4527
" />
<path d="M11.7817 27.4527
L11.7213 28.0575
" />
<path d="M11.7213 28.0575
L11.7817 27.9970
" />
<path d="M11.7817 27.9970
L11.9027 27.9365
" />
<path d="M11.9027 27.9365
L12.2051 27.9365
" />
<path d="M12.2051 27.9365
L12.3260 27.9970
" />
<path d="M12.3260 27.9970
L12.3865 28.0575
" />
<path d="M12.3865 28.0575
L12.4470 28.1784
" />
<path d="M12.4470 28.1784
L12.4470 28.4808
" />
<path d="M12.4470 28.4808
L12.3865 28.6018
" />
<path d="M12.3865 28.6018
L12.3260 28.6623
" />
<path d="M12.3260 28.6623
L12.2051 28.7227
" />
<path d="M12.2051 28.7227
L11.9027 28.7227
" />
<path d="M11.9027 28.7227
L11.7817 28.6623
" />
<path d="M11.7817 28.6623
L11.7213 28.6018
" />
</g></g>
<g style="fill:none; 
stroke:#A90000; stroke-width:0.1524; stroke-opacity:1; 
stroke-linecap:round; stroke-linejoin:round;">
<text x="6.5532" y="27.8892"
textLength="1.4127" font-size="1.6933" lengthAdjust="spacingAndGlyphs"
text-anchor="middle" opacity="0" stroke-opacity="0">8</text>
<g class="stroked-text"><desc>8</desc>
<path d="M6.4323 27.0000
L6.3113 26.9395
" />
<path d="M6.3113 26.9395
L6.2508 26.8791
" />
<path d="M6.2508 26.8791
L6.1904 26.7581
" />
<path d="M6.1904 26.7581
L6.1904 26.6976
" />
<path d="M6.1904 26.6976
L6.2508 26.5767
" />
<path d="M6.2508 26.5767
L6.3113 26.5162
" />
<path d="M6.3113 26.5162
L6.4323 26.4557
" />
<path d="M6.4323 26.4557
L6.6742 26.4557
" />
<path d="M6.6742 26.4557
L6.7951 26.5162
" />
<path d="M6.7951 26.5162
L6.8556 26.5767
" />
<path d="M6.8556 26.5767
L6.9161 26.6976
" />
<path d="M6.9161 26.6976
L6.9161 26.7581
" />
<path d="M6.9161 26.7581
L6.8556 26.8791
" />
<path d="M6.8556 26.8791
L6.7951 26.9395
" />
<path d="M6.7951 26.9395
L6.6742 27.0000
" />
<path d="M6.6742 27.0000
L6.4323 27.0000
" />
<path d="M6.4323 27.0000
L6.3113 27.0605
" />
<path d="M6.3113 27.0605
L6.2508 27.1210
" />
<path d="M6.2508 27.1210
L6.1904 27.2419
" />
<path d="M6.1904 27.2419
L6.1904 27.4838
" />
<path d="M6.1904 27.4838
L6.2508 27.6048
" />
<path d="M6.2508 27.6048
L6.3113 27.6653
" />
<path d="M6.3113 27.6653
L6.4323 27.7257
" />
<path d="M6.4323 27.7257
L6.6742 27.7257
" />
<path d="M6.6742 27.7257
L6.7951 27.6653
" />
<path d="M6.7951 27.6653
L6.8556 27.6048
" />
<path d="M6.8556 27.6048
L6.9161 27.4838
" />
<path d="M6.9161 27.4838
L6.9161 27.2419
" />
<path d="M6.9161 27.2419
L6.8556 27.1210
" />
<path d="M6.8556 27.1210
L6.7951 27.0605
" />
<path d="M6.7951 27.0605
L6.6742 27.0000
" />
</g></g>
<g style="fill:none; 
stroke:#840000; stroke-width:0.1524; stroke-opacity:1; 
stroke-linecap:round; stroke-linejoin:round;">
<path d="M9.0932 30.6832
L4.0132 30.6832
" />
</g>
<g style="fill:none; 
stroke:#006464; stroke-width:0.1524; stroke-opacity:1; 
stroke-linecap:round; stroke-linejoin:round;">
<text x="10.1092" y="31.3182"
textLength="2.6827" font-size="1.6933" lengthAdjust="spacingAndGlyphs"
text-anchor="start" opacity="0" stroke-opacity="0">D6</text>
<g class="stroked-text"><desc>D6</desc>
<path d="M10.5117 31.2627
L10.5117 29.9927
" />
<path d="M10.5117 29.9927
L10.8141 29.9927
" />
<path d="M10.8141 29.9927
L10.9955 30.0532
" />
<path d="M10.9955 30.0532
L11.1165 30.1742
" />
<path d="M11.1165 30.1742
L11.1770 30.2951
" />
<path d="M11.1770 30.2951
L11.2374 30.5370
" />
<path d="M11.2374 30.5370
L11.2374 30.7184
" />
<path d="M11.2374 30.7184
L11.1770 30.9603
" />
<path d="M11.1770 30.9603
L11.1165 31.0813
" />
<path d="M11.1165 31.0813
L10.9955 31.2023
" />
<path d="M10.9955 31.2023
L10.8141 31.2627
" />
<path d="M10.8141 31.2627
L10.5117 31.2627
" />
<path d="M12.3260 29.9927
L12.0841 29.9927
" />
<path d="M12.0841 29.9927
L11.9632 30.0532
" />
<path d="M11.9632 30.0532
L11.9027 30.1137
" />
<path d="M11.9027 30.1137
L11.7817 30.2951
" />
<path d="M11.7817 30.2951
L11.7213 30.5370
" />
<path d="M11.7213 30.5370
L11.7213 31.0208
" />
<path d="M11.7213 31.0208
L11.7817 31.1418
" />
<path d="M11.7817 31.1418
L11.8422 31.2023
" />
<path d="M11.8422 31.2023
L11.9632 31.2627
" />
<path d="M11.9632 31.2627
L12.2051 31.2627
" />
<path d="M12.2051 31.2627
L12.3260 31.2023
" />
<path d="M12.3260 31.2023
L12.3865 31.1418
" />
<path d="M12.3865 31.1418
L12.4470 31.0208
" />
<path d="M12.4470 31.0208
L12.4470 30.7184
" />
<path d="M12.4470 30.7184
L12.3865 30.5975
" />
<path d="M12.3865 30.5975
L12.3260 30.5370
" />
<path d="M12.3260 30.5370
L12.2051 30.4765
" />
<path d="M12.2051 30.4765
L11.9632 30.4765
" />
<path d="M11.9632 30.4765
L11.8422 30.5370
" />
<path d="M11.8422 30.5370
L11.7817 30.5975
" />
<path d="M11.7817 30.5975
L11.7213 30.7184
" />
</g></g>
<g style="fill:none; 
stroke:#A90000; stroke-width:0.1524; stroke-opacity:1; 
stroke-linecap:round; stroke-linejoin:round;">
<text x="6.5532" y="30.4292"
textLength="1.4127" font-size="1.6933" lengthAdjust="spacingAndGlyphs"
text-anchor="middle" opacity="0" stroke-opacity="0">9</text>
<g class="stroked-text"><desc>9</desc>
<path d="M6.3113 30.2657
L6.5532 30.2657
" />
<path d="M6.5532 30.2657
L6.6742 30.2053
" />
<path d="M6.6742 30.2053
L6.7346 30.1448
" />
<path d="M6.7346 30.1448
L6.8556 29.9633
" />
<path d="M6.8556 29.9633
L6.9161 29.7214
" />
<path d="M6.9161 29.7214
L6.9161 29.2376
" />
<path d="M6.9161 29.2376
L6.8556 29.1167
" />
<path d="M6.8556 29.1167
L6.7951 29.0562
" />
<path d="M6.7951 29.0562
L6.6742 28.9957
" />
<path d="M6.6742 28.9957
L6.4323 28.9957
" />
<path d="M6.4323 28.9957
L6.3113 29.0562
" />
<path d="M6.3113 29.0562
L6.2508 29.1167
" />
<path d="M6.2508 29.1167
L6.1904 29.2376
" />
<path d="M6.1904 29.2376
L6.1904 29.5400
" />
<path d="M6.1904 29.5400
L6.2508 29.6610
" />
<path d="M6.2508 29.6610
L6.3113 29.7214
" />
<path d="M6.3113 29.7214
L6.4323 29.7819
" />
<path d="M6.4323 29.7819
L6.6742 29.7819
" />
<path d="M6.6742 29.7819
L6.7951 29.7214
" />
<path d="M6.7951 29.7214
L6.8556 29.6610
" />
<path d="M6.8556 29.6610
L6.9161 29.5400
" />
</g></g>
<g style="fill:none; 
stroke:#840000; stroke-width:0.1524; stroke-opacity:1; 
stroke-linecap:round; stroke-linejoin:round;">
<path d="M9.0932 33.2232
L4.0132 33.2232
" />
</g>
<g style="fill:none; 
stroke:#006464; stroke-width:0.1524; stroke-opacity:1; 
stroke-linecap:round; stroke-linejoin:round;">
<text x="10.1092" y="33.8582"
textLength="2.6827" font-size="1.6933" lengthAdjust="spacingAndGlyphs"
text-anchor="start" opacity="0" stroke-opacity="0">D7</text>
<g class="stroked-text"><desc>D7</desc>
<path d="M10.5117 33.8027
L10.5117 32.5327
" />
<path d="M10.5117 32.5327
L10.8141 32.5327
" />
<path d="M10.8141 32.5327
L10.9955 32.5932
" />
<path d="M10.9955 32.5932
L11.1165 32.7142
" />
<path d="M11.1165 32.7142
L11.1770 32.8351
" />
<path d="M11.1770 32.8351
L11.2374 33.0770
" />
<path d="M11.2374 33.0770
L11.2374 33.2584
" />
<path d="M11.2374 33.2584
L11.1770 33.5003
" />
<path d="M11.1770 33.5003
L11.1165 33.6213
" />
<path d="M11.1165 33.6213
L10.9955 33.7423
" />
<path d="M10.9955 33.7423
L10.8141 33.8027
" />
<path d="M10.8141 33.8027
L10.5117 33.8027
" />
<path d="M11.6608 32.5327
L12.5074 32.5327
" />
<path d="M12.5074 32.5327
L11.9632 33.8027
" />
</g></g>
<g style="fill:none; 
stroke:#A90000; stroke-width:0.1524; stroke-opacity:1; 
stroke-linecap:round; stroke-linejoin:round;">
<text x="6.5532" y="32.9692"
textLength="2.6222" font-size="1.6933" lengthAdjust="spacingAndGlyphs"
text-anchor="middle" opacity="0" stroke-opacity="0">10</text>
<g class="stroked-text"><desc>10</desc>
<path d="M6.3113 32.8057
L5.5856 32.8057
" />
<path d="M5.9484 32.8057
L5.9484 31.5357
" />
<path d="M5.9484 31.5357
L5.8275 31.7172
" />
<path d="M5.8275 31.7172
L5.7065 31.8381
" />
<path d="M5.7065 31.8381
L5.5856 31.8986
" />
<path d="M7.0974 31.5357
L7.2184 31.5357
" />
<path d="M7.2184 31.5357
L7.3393 31.5962
" />
<path d="M7.3393 31.5962
L7.3998 31.6567
" />
<path d="M7.3998 31.6567
L7.4603 31.7776
" />
<path d="M7.4603 31.7776
L7.5208 32.0195
" />
<path d="M7.5208 32.0195
L7.5208 32.3219
" />
<path d="M7.5208 32.3219
L7.4603 32.5638
" />
<path d="M7.4603 32.5638
L7.3998 32.6848
" />
<path d="M7.3998 32.6848
L7.3393 32.7453
" />
<path d="M7.3393 32.7453
L7.2184 32.8057
" />
<path d="M7.2184 32.8057
L7.0974 32.8057
" />
<path d="M7.0974 32.8057
L6.9765 32.7453
" />
<path d="M6.9765 32.7453
L6.9160 32.6848
" />
<path d="M6.9160 32.6848
L6.8555 32.5638
" />
<path d="M6.8555 32.5638
L6.7951 32.3219
" />
<path d="M6.7951 32.3219
L6.7951 32.0195
" />
<path d="M6.7951 32.0195
L6.8555 31.7776
" />
<path d="M6.8555 31.7776
L6.9160 31.6567
" />
<path d="M6.9160 31.6567
L6.9765 31.5962
" />
<path d="M6.9765 31.5962
L7.0974 31.5357
" />
</g></g>
<g style="fill:none; 
stroke:#840000; stroke-width:0.1524; stroke-opacity:1; 
stroke-linecap:round; stroke-linejoin:round;">
<path d="M9.0932 35.7632
L4.0132 35.7632
" />
</g>
<g style="fill:none; 
stroke:#006464; stroke-width:0.1524; stroke-opacity:1; 
stroke-linecap:round; stroke-linejoin:round;">
<text x="10.1092" y="36.3982"
textLength="2.6827" font-size="1.6933" lengthAdjust="spacingAndGlyphs"
text-anchor="start" opacity="0" stroke-opacity="0">D8</text>
<g class="stroked-text"><desc>D8</desc>
<path d="M10.5117 36.3427
L10.5117 35.0727
" />
<path d="M10.5117 35.0727
L10.8141 35.0727
" />
<path d="M10.8141 35.0727
L10.9955 35.1332
" />
<path d="M10.9955 35.1332
L11.1165 35.2542
" />
<path d="M11.1165 35.2542
L11.1770 35.3751
" />
<path d="M11.1770 35.3751
L11.2374 35.6170
" />
<path d="M11.2374 35.6170
L11.2374 35.7984
" />
<path d="M11.2374 35.7984
L11.1770 36.0403
" />
<path d="M11.1770 36.0403
L11.1165 36.1613
" />
<path d="M11.1165 36.1613
L10.9955 36.2823
" />
<path d="M10.9955 36.2823
L10.8141 36.3427
" />
<path d="M10.8141 36.3427
L10.5117 36.3427
" />
<path d="M11.9632 35.6170
L11.8422 35.5565
" />
<path d="M11.8422 35.5565
L11.7817 35.4961
" />
<path d="M11.7817 35.4961
L11.7213 35.3751
" />
<path d="M11.7213 35.3751
L11.7213 35.3146
" />
<path d="M11.7213 35.3146
L11.7817 35.1937
" />
<path d="M11.7817 35.1937
L11.8422 35.1332
" />
<path d="M11.8422 35.1332
L11.9632 35.0727
" />
<path d="M11.9632 35.0727
L12.2051 35.0727
" />
<path d="M12.2051 35.0727
L12.3260 35.1332
" />
<path d="M12.3260 35.1332
L12.3865 35.1937
" />
<path d="M12.3865 35.1937
L12.4470 35.3146
" />
<path d="M12.4470 35.3146
L12.4470 35.3751
" />
<path d="M12.4470 35.3751
L12.3865 35.4961
" />
<path d="M12.3865 35.4961
L12.3260 35.5565
" />
<path d="M12.3260 35.5565
L12.2051 35.6170
" />
<path d="M12.2051 35.6170
L11.9632 35.6170
" />
<path d="M11.9632 35.6170
L11.8422 35.6775
" />
<path d="M11.8422 35.6775
L11.7817 35.7380
" />
<path d="M11.7817 35.7380
L11.7213 35.8589
" />
<path d="M11.7213 35.8589
L11.7213 36.1008
" />
<path d="M11.7213 36.1008
L11.7817 36.2218
" />
<path d="M11.7817 36.2218
L11.8422 36.2823
" />
<path d="M11.8422 36.2823
L11.9632 36.3427
" />
<path d="M11.9632 36.3427
L12.2051 36.3427
" />
<path d="M12.2051 36.3427
L12.3260 36.2823
" />
<path d="M12.3260 36.2823
L12.3865 36.2218
" />
<path d="M12.3865 36.2218
L12.4470 36.1008
" />
<path d="M12.4470 36.1008
L12.4470 35.8589
" />
<path d="M12.4470 35.8589
L12.3865 35.7380
" />
<path d="M12.3865 35.7380
L12.3260 35.6775
" />
<path d="M12.3260 35.6775
L12.2051 35.6170
" />
</g></g>
<g style="fill:none; 
stroke:#A90000; stroke-width:0.1524; stroke-opacity:1; 
stroke-linecap:round; stroke-linejoin:round;">
<text x="6.5532" y="35.5092"
textLength="2.6222" font-size="1.6933" lengthAdjust="spacingAndGlyphs"
text-anchor="middle" opacity="0" stroke-opacity="0">11</text>
<g class="stroked-text"><desc>11</desc>
<path d="M6.3113 35.3457
L5.5856 35.3457
" />
<path d="M5.9484 35.3457
L5.9484 34.0757
" />
<path d="M5.9484 34.0757
L5.8275 34.2572
" />
<path d="M5.8275 34.2572
L5.7065 34.3781
" />
<path d="M5.7065 34.3781
L5.5856 34.4386
" />
<path d="M7.5208 35.3457
L6.7951 35.3457
" />
<path d="M7.1579 35.3457
L7.1579 34.0757
" />
<path d="M7.1579 34.0757
L7.0370 34.2572
" />
<path d="M7.0370 34.2572
L6.9160 34.3781
" />
<path d="M6.9160 34.3781
L6.7951 34.4386
" />
</g></g>
<g style="fill:none; 
stroke:#840000; stroke-width:0.1524; stroke-opacity:1; 
stroke-linecap:round; stroke-linejoin:round;">
<path d="M9.0932 38.3032
L4.0132 38.3032
" />
</g>
<g style="fill:none; 
stroke:#006464; stroke-width:0.1524; stroke-opacity:1; 
stroke-linecap:round; stroke-linejoin:round;">
<text x="10.1092" y="38.9382"
textLength="2.6827" font-size="1.6933" lengthAdjust="spacingAndGlyphs"
text-anchor="start" opacity="0" stroke-opacity="0">D9</text>
<g class="stroked-text"><desc>D9</desc>
<path d="M10.5117 38.8827
L10.5117 37.6127
" />
<path d="M10.5117 37.6127
L10.8141 37.6127
" />
<path d="M10.8141 37.6127
L10.9955 37.6732
" />
<path d="M10.9955 37.6732
L11.1165 37.7942
" />
<path d="M11.1165 37.7942
L11.1770 37.9151
" />
<path d="M11.1770 37.9151
L11.2374 38.1570
" />
<path d="M11.2374 38.1570
L11.2374 38.3384
" />
<path d="M11.2374 38.3384
L11.1770 38.5803
" />
<path d="M11.1770 38.5803
L11.1165 38.7013
" />
<path d="M11.1165 38.7013
L10.9955 38.8223
" />
<path d="M10.9955 38.8223
L10.8141 38.8827
" />
<path d="M10.8141 38.8827
L10.5117 38.8827
" />
<path d="M11.8422 38.8827
L12.0841 38.8827
" />
<path d="M12.0841 38.8827
L12.2051 38.8223
" />
<path d="M12.2051 38.8223
L12.2655 38.7618
" />
<path d="M12.2655 38.7618
L12.3865 38.5803
" />
<path d="M12.3865 38.5803
L12.4470 38.3384
" />
<path d="M12.4470 38.3384
L12.4470 37.8546
" />
<path d="M12.4470 37.8546
L12.3865 37.7337
" />
<path d="M12.3865 37.7337
L12.3260 37.6732
" />
<path d="M12.3260 37.6732
L12.2051 37.6127
" />
<path d="M12.2051 37.6127
L11.9632 37.6127
" />
<path d="M11.9632 37.6127
L11.8422 37.6732
" />
<path d="M11.8422 37.6732
L11.7817 37.7337
" />
<path d="M11.7817 37.7337
L11.7213 37.8546
" />
<path d="M11.7213 37.8546
L11.7213 38.1570
" />
<path d="M11.7213 38.1570
L11.7817 38.2780
" />
<path d="M11.7817 38.2780
L11.8422 38.3384
" />
<path d="M11.8422 38.3384
L11.9632 38.3989
" />
<path d="M11.9632 38.3989
L12.2051 38.3989
" />
<path d="M12.2051 38.3989
L12.3260 38.3384
" />
<path d="M12.3260 38.3384
L12.3865 38.2780
" />
<path d="M12.3865 38.2780
L12.4470 38.1570
" />
</g></g>
<g style="fill:none; 
stroke:#A90000; stroke-width:0.1524; stroke-opacity:1; 
stroke-linecap:round; stroke-linejoin:round;">
<text x="6.5532" y="38.0492"
textLength="2.6222" font-size="1.6933" lengthAdjust="spacingAndGlyphs"
text-anchor="middle" opacity="0" stroke-opacity="0">12</text>
<g class="stroked-text"><desc>12</desc>
<path d="M6.3113 37.8857
L5.5856 37.8857
" />
<path d="M5.9484 37.8857
L5.9484 36.6157
" />
<path d="M5.9484 36.6157
L5.8275 36.7972
" />
<path d="M5.8275 36.7972
L5.7065 36.9181
" />
<path d="M5.7065 36.9181
L5.5856 36.9786
" />
<path d="M6.7951 36.7367
L6.8555 36.6762
" />
<path d="M6.8555 36.6762
L6.9765 36.6157
" />
<path d="M6.9765 36.6157
L7.2789 36.6157
" />
<path d="M7.2789 36.6157
L7.3998 36.6762
" />
<path d="M7.3998 36.6762
L7.4603 36.7367
" />
<path d="M7.4603 36.7367
L7.5208 36.8576
" />
<path d="M7.5208 36.8576
L7.5208 36.9786
" />
<path d="M7.5208 36.9786
L7.4603 37.1600
" />
<path d="M7.4603 37.1600
L6.7346 37.8857
" />
<path d="M6.7346 37.8857
L7.5208 37.8857
" />
</g></g>
<g style="fill:none; 
stroke:#840000; stroke-width:0.1524; stroke-opacity:1; 
stroke-linecap:round; stroke-linejoin:round;">
<path d="M34.4932 10.3632
L39.5732 10.3632
" />
</g>
<g style="fill:none; 
stroke:#006464; stroke-width:0.1524; stroke-opacity:1; 
stroke-linecap:round; stroke-linejoin:round;">
<text x="33.4772" y="10.9982"
textLength="4.0132" font-size="1.6933" lengthAdjust="spacingAndGlyphs"
text-anchor="end" opacity="0" stroke-opacity="0">RAW</text>
<g class="stroked-text"><desc>RAW</desc>
<path d="M30.5950 10.9427
L30.1717 10.3380
" />
<path d="M29.8693 10.9427
L29.8693 9.6727
" />
<path d="M29.8693 9.6727
L30.3531 9.6727
" />
<path d="M30.3531 9.6727
L30.4741 9.7332
" />
<path d="M30.4741 9.7332
L30.5346 9.7937
" />
<path d="M30.5346 9.7937
L30.5950 9.9146
" />
<path d="M30.5950 9.9146
L30.5950 10.0961
" />
<path d="M30.5950 10.0961
L30.5346 10.2170
" />
<path d="M30.5346 10.2170
L30.4741 10.2775
" />
<path d="M30.4741 10.2775
L30.3531 10.3380
" />
<path d="M30.3531 10.3380
L29.8693 10.3380
" />
<path d="M31.0789 10.5799
L31.6836 10.5799
" />
<path d="M30.9579 10.9427
L31.3812 9.6727
" />
<path d="M31.3812 9.6727
L31.8046 10.9427
" />
<path d="M32.1070 9.6727
L32.4094 10.9427
" />
<path d="M32.4094 10.9427
L32.6513 10.0356
" />
<path d="M32.6513 10.0356
L32.8932 10.9427
" />
<path d="M32.8932 10.9427
L33.1956 9.6727
" />
</g></g>
<g style="fill:none; 
stroke:#A90000; stroke-width:0.1524; stroke-opacity:1; 
stroke-linecap:round; stroke-linejoin:round;">
<text x="37.0332" y="10.1092"
textLength="2.6222" font-size="1.6933" lengthAdjust="spacingAndGlyphs"
text-anchor="middle" opacity="0" stroke-opacity="0">24</text>
<g class="stroked-text"><desc>24</desc>
<path d="M36.0656 8.7967
L36.1260 8.7362
" />
<path d="M36.1260 8.7362
L36.2470 8.6757
" />
<path d="M36.2470 8.6757
L36.5494 8.6757
" />
<path d="M36.5494 8.6757
L36.6703 8.7362
" />
<path d="M36.6703 8.7362
L36.7308 8.7967
" />
<path d="M36.7308 8.7967
L36.7913 8.9176
" />
<path d="M36.7913 8.9176
L36.7913 9.0386
" />
<path d="M36.7913 9.0386
L36.7308 9.2200
" />
<path d="M36.7308 9.2200
L36.0051 9.9457
" />
<path d="M36.0051 9.9457
L36.7913 9.9457
" />
<path d="M37.8798 9.0991
L37.8798 9.9457
" />
<path d="M37.5774 8.6153
L37.2751 9.5224
" />
<path d="M37.2751 9.5224
L38.0612 9.5224
" />
</g></g>
<g style="fill:none; 
stroke:#840000; stroke-width:0.1524; stroke-opacity:1; 
stroke-linecap:round; stroke-linejoin:round;">
<path d="M34.4932 12.9032
L39.5732 12.9032
" />
</g>
<g style="fill:none; 
stroke:#006464; stroke-width:0.1524; stroke-opacity:1; 
stroke-linecap:round; stroke-linejoin:round;">
<text x="33.4772" y="13.5382"
textLength="4.0737" font-size="1.6933" lengthAdjust="spacingAndGlyphs"
text-anchor="end" opacity="0" stroke-opacity="0">GND</text>
<g class="stroked-text"><desc>GND</desc>
<path d="M30.4741 12.2732
L30.3531 12.2127
" />
<path d="M30.3531 12.2127
L30.1717 12.2127
" />
<path d="M30.1717 12.2127
L29.9903 12.2732
" />
<path d="M29.9903 12.2732
L29.8693 12.3942
" />
<path d="M29.8693 12.3942
L29.8088 12.5151
" />
<path d="M29.8088 12.5151
L29.7484 12.7570
" />
<path d="M29.7484 12.7570
L29.7484 12.9384
" />
<path d="M29.7484 12.9384
L29.8088 13.1803
" />
<path d="M29.8088 13.1803
L29.8693 13.3013
" />
<path d="M29.8693 13.3013
L29.9903 13.4223
" />
<path d="M29.9903 13.4223
L30.1717 13.4827
" />
<path d="M30.1717 13.4827
L30.2926 13.4827
" />
<path d="M30.2926 13.4827
L30.4741 13.4223
" />
<path d="M30.4741 13.4223
L30.5345 13.3618
" />
<path d="M30.5345 13.3618
L30.5345 12.9384
" />
<path d="M30.5345 12.9384
L30.2926 12.9384
" />
<path d="M31.0788 13.4827
L31.0788 12.2127
" />
<path d="M31.0788 12.2127
L31.8045 13.4827
" />
<path d="M31.8045 13.4827
L31.8045 12.2127
" />
<path d="M32.4093 13.4827
L32.4093 12.2127
" />
<path d="M32.4093 12.2127
L32.7117 12.2127
" />
<path d="M32.7117 12.2127
L32.8931 12.2732
" />
<path d="M32.8931 12.2732
L33.0141 12.3942
" />
<path d="M33.0141 12.3942
L33.0746 12.5151
" />
<path d="M33.0746 12.5151
L33.1350 12.7570
" />
<path d="M33.1350 12.7570
L33.1350 12.9384
" />
<path d="M33.1350 12.9384
L33.0746 13.1803
" />
<path d="M33.0746 13.1803
L33.0141 13.3013
" />
<path d="M33.0141 13.3013
L32.8931 13.4223
" />
<path d="M32.8931 13.4223
L32.7117 13.4827
" />
<path d="M32.7117 13.4827
L32.4093 13.4827
" />
</g></g>
<g style="fill:none; 
stroke:#A90000; stroke-width:0.1524; stroke-opacity:1; 
stroke-linecap:round; stroke-linejoin:round;">
<text x="37.0332" y="12.6492"
textLength="2.6222" font-size="1.6933" lengthAdjust="spacingAndGlyphs"
text-anchor="middle" opacity="0" stroke-opacity="0">23</text>
<g class="stroked-text"><desc>23</desc>
<path d="M36.0656 11.3367
L36.1260 11.2762
" />
<path d="M36.1260 11.2762
L36.2470 11.2157
" />
<path d="M36.2470 11.2157
L36.5494 11.2157
" />
<path d="M36.5494 11.2157
L36.6703 11.2762
" />
<path d="M36.6703 11.2762
L36.7308 11.3367
" />
<path d="M36.7308 11.3367
L36.7913 11.4576
" />
<path d="M36.7913 11.4576
L36.7913 11.5786
" />
<path d="M36.7913 11.5786
L36.7308 11.7600
" />
<path d="M36.7308 11.7600
L36.0051 12.4857
" />
<path d="M36.0051 12.4857
L36.7913 12.4857
" />
<path d="M37.2146 11.2157
L38.0008 11.2157
" />
<path d="M38.0008 11.2157
L37.5774 11.6995
" />
<path d="M37.5774 11.6995
L37.7589 11.6995
" />
<path d="M37.7589 11.6995
L37.8798 11.7600
" />
<path d="M37.8798 11.7600
L37.9403 11.8205
" />
<path d="M37.9403 11.8205
L38.0008 11.9414
" />
<path d="M38.0008 11.9414
L38.0008 12.2438
" />
<path d="M38.0008 12.2438
L37.9403 12.3648
" />
<path d="M37.9403 12.3648
L37.8798 12.4253
" />
<path d="M37.8798 12.4253
L37.7589 12.4857
" />
<path d="M37.7589 12.4857
L37.3960 12.4857
" />
<path d="M37.3960 12.4857
L37.2751 12.4253
" />
<path d="M37.2751 12.4253
L37.2146 12.3648
" />
</g></g>
<g style="fill:none; 
stroke:#840000; stroke-width:0.1524; stroke-opacity:1; 
stroke-linecap:round; stroke-linejoin:round;">
<path d="M34.4932 15.4432
L39.5732 15.4432
" />
</g>
<g style="fill:none; 
stroke:#006464; stroke-width:0.1524; stroke-opacity:1; 
stroke-linecap:round; stroke-linejoin:round;">
<text x="33.4772" y="16.0782"
textLength="3.6503" font-size="1.6933" lengthAdjust="spacingAndGlyphs"
text-anchor="end" opacity="0" stroke-opacity="0">~{RST}</text>
<g class="stroked-text"><desc>~{RST}</desc>
<path d="M30.9579 16.0227
L30.5346 15.4180
" />
<path d="M30.2322 16.0227
L30.2322 14.7527
" />
<path d="M30.2322 14.7527
L30.7160 14.7527
" />
<path d="M30.7160 14.7527
L30.8370 14.8132
" />
<path d="M30.8370 14.8132
L30.8975 14.8737
" />
<path d="M30.8975 14.8737
L30.9579 14.9946
" />
<path d="M30.9579 14.9946
L30.9579 15.1761
" />
<path d="M30.9579 15.1761
L30.8975 15.2970
" />
<path d="M30.8975 15.2970
L30.8370 15.3575
" />
<path d="M30.8370 15.3575
L30.7160 15.4180
" />
<path d="M30.7160 15.4180
L30.2322 15.4180
" />
<path d="M31.4418 15.9623
L31.6232 16.0227
" />
<path d="M31.6232 16.0227
L31.9256 16.0227
" />
<path d="M31.9256 16.0227
L32.0465 15.9623
" />
<path d="M32.0465 15.9623
L32.1070 15.9018
" />
<path d="M32.1070 15.9018
L32.1675 15.7808
" />
<path d="M32.1675 15.7808
L32.1675 15.6599
" />
<path d="M32.1675 15.6599
L32.1070 15.5389
" />
<path d="M32.1070 15.5389
L32.0465 15.4784
" />
<path d="M32.0465 15.4784
L31.9256 15.4180
" />
<path d="M31.9256 15.4180
L31.6837 15.3575
" />
<path d="M31.6837 15.3575
L31.5627 15.2970
" />
<path d="M31.5627 15.2970
L31.5022 15.2365
" />
<path d="M31.5022 15.2365
L31.4418 15.1156
" />
<path d="M31.4418 15.1156
L31.4418 14.9946
" />
<path d="M31.4418 14.9946
L31.5022 14.8737
" />
<path d="M31.5022 14.8737
L31.5627 14.8132
" />
<path d="M31.5627 14.8132
L31.6837 14.7527
" />
<path d="M31.6837 14.7527
L31.9860 14.7527
" />
<path d="M31.9860 14.7527
L32.1675 14.8132
" />
<path d="M32.5303 14.7527
L33.2560 14.7527
" />
<path d="M32.8932 16.0227
L32.8932 14.7527
" />
<path d="M30.0569 14.4002
L33.2500 14.4002
" />
</g></g>
<g style="fill:none; 
stroke:#A90000; stroke-width:0.1524; stroke-opacity:1; 
stroke-linecap:round; stroke-linejoin:round;">
<text x="37.0332" y="15.1892"
textLength="2.6222" font-size="1.6933" lengthAdjust="spacingAndGlyphs"
text-anchor="middle" opacity="0" stroke-opacity="0">22</text>
<g class="stroked-text"><desc>22</desc>
<path d="M36.0656 13.8767
L36.1260 13.8162
" />
<path d="M36.1260 13.8162
L36.2470 13.7557
" />
<path d="M36.2470 13.7557
L36.5494 13.7557
" />
<path d="M36.5494 13.7557
L36.6703 13.8162
" />
<path d="M36.6703 13.8162
L36.7308 13.8767
" />
<path d="M36.7308 13.8767
L36.7913 13.9976
" />
<path d="M36.7913 13.9976
L36.7913 14.1186
" />
<path d="M36.7913 14.1186
L36.7308 14.3000
" />
<path d="M36.7308 14.3000
L36.0051 15.0257
" />
<path d="M36.0051 15.0257
L36.7913 15.0257
" />
<path d="M37.2751 13.8767
L37.3355 13.8162
" />
<path d="M37.3355 13.8162
L37.4565 13.7557
" />
<path d="M37.4565 13.7557
L37.7589 13.7557
" />
<path d="M37.7589 13.7557
L37.8798 13.8162
" />
<path d="M37.8798 13.8162
L37.9403 13.8767
" />
<path d="M37.9403 13.8767
L38.0008 13.9976
" />
<path d="M38.0008 13.9976
L38.0008 14.1186
" />
<path d="M38.0008 14.1186
L37.9403 14.3000
" />
<path d="M37.9403 14.3000
L37.2146 15.0257
" />
<path d="M37.2146 15.0257
L38.0008 15.0257
" />
</g></g>
<g style="fill:none; 
stroke:#840000; stroke-width:0.1524; stroke-opacity:1; 
stroke-linecap:round; stroke-linejoin:round;">
<path d="M34.4932 17.9832
L39.5732 17.9832
" />
</g>
<g style="fill:none; 
stroke:#006464; stroke-width:0.1524; stroke-opacity:1; 
stroke-linecap:round; stroke-linejoin:round;">
<text x="33.4772" y="18.6182"
textLength="3.7108" font-size="1.6933" lengthAdjust="spacingAndGlyphs"
text-anchor="end" opacity="0" stroke-opacity="0">3V3</text>
<g class="stroked-text"><desc>3V3</desc>
<path d="M30.0508 17.2927
L30.8370 17.2927
" />
<path d="M30.8370 17.2927
L30.4136 17.7765
" />
<path d="M30.4136 17.7765
L30.5951 17.7765
" />
<path d="M30.5951 17.7765
L30.7160 17.8370
" />
<path d="M30.7160 17.8370
L30.7765 17.8975
" />
<path d="M30.7765 17.8975
L30.8370 18.0184
" />
<path d="M30.8370 18.0184
L30.8370 18.3208
" />
<path d="M30.8370 18.3208
L30.7765 18.4418
" />
<path d="M30.7765 18.4418
L30.7160 18.5023
" />
<path d="M30.7160 18.5023
L30.5951 18.5627
" />
<path d="M30.5951 18.5627
L30.2322 18.5627
" />
<path d="M30.2322 18.5627
L30.1113 18.5023
" />
<path d="M30.1113 18.5023
L30.0508 18.4418
" />
<path d="M31.1998 17.2927
L31.6231 18.5627
" />
<path d="M31.6231 18.5627
L32.0465 17.2927
" />
<path d="M32.3489 17.2927
L33.1351 17.2927
" />
<path d="M33.1351 17.2927
L32.7117 17.7765
" />
<path d="M32.7117 17.7765
L32.8932 17.7765
" />
<path d="M32.8932 17.7765
L33.0141 17.8370
" />
<path d="M33.0141 17.8370
L33.0746 17.8975
" />
<path d="M33.0746 17.8975
L33.1351 18.0184
" />
<path d="M33.1351 18.0184
L33.1351 18.3208
" />
<path d="M33.1351 18.3208
L33.0746 18.4418
" />
<path d="M33.0746 18.4418
L33.0141 18.5023
" />
<path d="M33.0141 18.5023
L32.8932 18.5627
" />
<path d="M32.8932 18.5627
L32.5303 18.5627
" />
<path d="M32.5303 18.5627
L32.4094 18.5023
" />
<path d="M32.4094 18.5023
L32.3489 18.4418
" />
</g></g>
<g style="fill:none; 
stroke:#A90000; stroke-width:0.1524; stroke-opacity:1; 
stroke-linecap:round; stroke-linejoin:round;">
<text x="37.0332" y="17.7292"
textLength="2.6222" font-size="1.6933" lengthAdjust="spacingAndGlyphs"
text-anchor="middle" opacity="0" stroke-opacity="0">21</text>
<g class="stroked-text"><desc>21</desc>
<path d="M36.0656 16.4167
L36.1260 16.3562
" />
<path d="M36.1260 16.3562
L36.2470 16.2957
" />
<path d="M36.2470 16.2957
L36.5494 16.2957
" />
<path d="M36.5494 16.2957
L36.6703 16.3562
" />
<path d="M36.6703 16.3562
L36.7308 16.4167
" />
<path d="M36.7308 16.4167
L36.7913 16.5376
" />
<path d="M36.7913 16.5376
L36.7913 16.6586
" />
<path d="M36.7913 16.6586
L36.7308 16.8400
" />
<path d="M36.7308 16.8400
L36.0051 17.5657
" />
<path d="M36.0051 17.5657
L36.7913 17.5657
" />
<path d="M38.0008 17.5657
L37.2751 17.5657
" />
<path d="M37.6379 17.5657
L37.6379 16.2957
" />
<path d="M37.6379 16.2957
L37.5170 16.4772
" />
<path d="M37.5170 16.4772
L37.3960 16.5981
" />
<path d="M37.3960 16.5981
L37.2751 16.6586
" />
</g></g>
<g style="fill:none; 
stroke:#840000; stroke-width:0.1524; stroke-opacity:1; 
stroke-linecap:round; stroke-linejoin:round;">
<path d="M34.4932 20.5232
L39.5732 20.5232
" />
</g>
<g style="fill:none; 
stroke:#006464; stroke-width:0.1524; stroke-opacity:1; 
stroke-linecap:round; stroke-linejoin:round;">
<text x="33.4772" y="21.1582"
textLength="2.5013" font-size="1.6933" lengthAdjust="spacingAndGlyphs"
text-anchor="end" opacity="0" stroke-opacity="0">A3</text>
<g class="stroked-text"><desc>A3</desc>
<path d="M31.3208 20.7399
L31.9255 20.7399
" />
<path d="M31.1998 21.1027
L31.6231 19.8327
" />
<path d="M31.6231 19.8327
L32.0465 21.1027
" />
<path d="M32.3489 19.8327
L33.1351 19.8327
" />
<path d="M33.1351 19.8327
L32.7117 20.3165
" />
<path d="M32.7117 20.3165
L32.8932 20.3165
" />
<path d="M32.8932 20.3165
L33.0141 20.3770
" />
<path d="M33.0141 20.3770
L33.0746 20.4375
" />
<path d="M33.0746 20.4375
L33.1351 20.5584
" />
<path d="M33.1351 20.5584
L33.1351 20.8608
" />
<path d="M33.1351 20.8608
L33.0746 20.9818
" />
<path d="M33.0746 20.9818
L33.0141 21.0423
" />
<path d="M33.0141 21.0423
L32.8932 21.1027
" />
<path d="M32.8932 21.1027
L32.5303 21.1027
" />
<path d="M32.5303 21.1027
L32.4094 21.0423
" />
<path d="M32.4094 21.0423
L32.3489 20.9818
" />
</g></g>
<g style="fill:none; 
stroke:#A90000; stroke-width:0.1524; stroke-opacity:1; 
stroke-linecap:round; stroke-linejoin:round;">
<text x="37.0332" y="20.2692"
textLength="2.6222" font-size="1.6933" lengthAdjust="spacingAndGlyphs"
text-anchor="middle" opacity="0" stroke-opacity="0">20</text>
<g class="stroked-text"><desc>20</desc>
<path d="M36.0656 18.9567
L36.1260 18.8962
" />
<path d="M36.1260 18.8962
L36.2470 18.8357
" />
<path d="M36.2470 18.8357
L36.5494 18.8357
" />
<path d="M36.5494 18.8357
L36.6703 18.8962
" />
<path d="M36.6703 18.8962
L36.7308 18.9567
" />
<path d="M36.7308 18.9567
L36.7913 19.0776
" />
<path d="M36.7913 19.0776
L36.7913 19.1986
" />
<path d="M36.7913 19.1986
L36.7308 19.3800
" />
<path d="M36.7308 19.3800
L36.0051 20.1057
" />
<path d="M36.0051 20.1057
L36.7913 20.1057
" />
<path d="M37.5774 18.8357
L37.6984 18.8357
" />
<path d="M37.6984 18.8357
L37.8193 18.8962
" />
<path d="M37.8193 18.8962
L37.8798 18.9567
" />
<path d="M37.8798 18.9567
L37.9403 19.0776
" />
<path d="M37.9403 19.0776
L38.0008 19.3195
" />
<path d="M38.0008 19.3195
L38.0008 19.6219
" />
<path d="M38.0008 19.6219
L37.9403 19.8638
" />
<path d="M37.9403 19.8638
L37.8798 19.9848
" />
<path d="M37.8798 19.9848
L37.8193 20.0453
" />
<path d="M37.8193 20.0453
L37.6984 20.1057
" />
<path d="M37.6984 20.1057
L37.5774 20.1057
" />
<path d="M37.5774 20.1057
L37.4565 20.0453
" />
<path d="M37.4565 20.0453
L37.3960 19.9848
" />
<path d="M37.3960 19.9848
L37.3355 19.8638
" />
<path d="M37.3355 19.8638
L37.2751 19.6219
" />
<path d="M37.2751 19.6219
L37.2751 19.3195
" />
<path d="M37.2751 19.3195
L37.3355 19.0776
" />
<path d="M37.3355 19.0776
L37.3960 18.9567
" />
<path d="M37.3960 18.9567
L37.4565 18.8962
" />
<path d="M37.4565 18.8962
L37.5774 18.8357
" />
</g></g>
<g style="fill:none; 
stroke:#840000; stroke-width:0.1524; stroke-opacity:1; 
stroke-linecap:round; stroke-linejoin:round;">
<path d="M34.4932 23.0632
L39.5732 23.0632
" />
</g>
<g style="fill:none; 
stroke:#006464; stroke-width:0.1524; stroke-opacity:1; 
stroke-linecap:round; stroke-linejoin:round;">
<text x="33.4772" y="23.6982"
textLength="2.5013" font-size="1.6933" lengthAdjust="spacingAndGlyphs"
text-anchor="end" opacity="0" stroke-opacity="0">A2</text>
<g class="stroked-text"><desc>A2</desc>
<path d="M31.3208 23.2799
L31.9255 23.2799
" />
<path d="M31.1998 23.6427
L31.6231 22.3727
" />
<path d="M31.6231 22.3727
L32.0465 23.6427
" />
<path d="M32.4094 22.4937
L32.4698 22.4332
" />
<path d="M32.4698 22.4332
L32.5908 22.3727
" />
<path d="M32.5908 22.3727
L32.8932 22.3727
" />
<path d="M32.8932 22.3727
L33.0141 22.4332
" />
<path d="M33.0141 22.4332
L33.0746 22.4937
" />
<path d="M33.0746 22.4937
L33.1351 22.6146
" />
<path d="M33.1351 22.6146
L33.1351 22.7356
" />
<path d="M33.1351 22.7356
L33.0746 22.9170
" />
<path d="M33.0746 22.9170
L32.3489 23.6427
" />
<path d="M32.3489 23.6427
L33.1351 23.6427
" />
</g></g>
<g style="fill:none; 
stroke:#A90000; stroke-width:0.1524; stroke-opacity:1; 
stroke-linecap:round; stroke-linejoin:round;">
<text x="37.0332" y="22.8092"
textLength="2.6222" font-size="1.6933" lengthAdjust="spacingAndGlyphs"
text-anchor="middle" opacity="0" stroke-opacity="0">19</text>
<g class="stroked-text"><desc>19</desc>
<path d="M36.7913 22.6457
L36.0656 22.6457
" />
<path d="M36.4284 22.6457
L36.4284 21.3757
" />
<path d="M36.4284 21.3757
L36.3075 21.5572
" />
<path d="M36.3075 21.5572
L36.1865 21.6781
" />
<path d="M36.1865 21.6781
L36.0656 21.7386
" />
<path d="M37.3960 22.6457
L37.6379 22.6457
" />
<path d="M37.6379 22.6457
L37.7589 22.5853
" />
<path d="M37.7589 22.5853
L37.8193 22.5248
" />
<path d="M37.8193 22.5248
L37.9403 22.3433
" />
<path d="M37.9403 22.3433
L38.0008 22.1014
" />
<path d="M38.0008 22.1014
L38.0008 21.6176
" />
<path d="M38.0008 21.6176
L37.9403 21.4967
" />
<path d="M37.9403 21.4967
L37.8798 21.4362
" />
<path d="M37.8798 21.4362
L37.7589 21.3757
" />
<path d="M37.7589 21.3757
L37.5170 21.3757
" />
<path d="M37.5170 21.3757
L37.3960 21.4362
" />
<path d="M37.3960 21.4362
L37.3355 21.4967
" />
<path d="M37.3355 21.4967
L37.2751 21.6176
" />
<path d="M37.2751 21.6176
L37.2751 21.9200
" />
<path d="M37.2751 21.9200
L37.3355 22.0410
" />
<path d="M37.3355 22.0410
L37.3960 22.1014
" />
<path d="M37.3960 22.1014
L37.5170 22.1619
" />
<path d="M37.5170 22.1619
L37.7589 22.1619
" />
<path d="M37.7589 22.1619
L37.8798 22.1014
" />
<path d="M37.8798 22.1014
L37.9403 22.0410
" />
<path d="M37.9403 22.0410
L38.0008 21.9200
" />
</g></g>
<g style="fill:none; 
stroke:#840000; stroke-width:0.1524; stroke-opacity:1; 
stroke-linecap:round; stroke-linejoin:round;">
<path d="M34.4932 25.6032
L39.5732 25.6032
" />
</g>
<g style="fill:none; 
stroke:#006464; stroke-width:0.1524; stroke-opacity:1; 
stroke-linecap:round; stroke-linejoin:round;">
<text x="33.4772" y="26.2382"
textLength="2.5013" font-size="1.6933" lengthAdjust="spacingAndGlyphs"
text-anchor="end" opacity="0" stroke-opacity="0">A1</text>
<g class="stroked-text"><desc>A1</desc>
<path d="M31.3208 25.8199
L31.9255 25.8199
" />
<path d="M31.1998 26.1827
L31.6231 24.9127
" />
<path d="M31.6231 24.9127
L32.0465 26.1827
" />
<path d="M33.1351 26.1827
L32.4094 26.1827
" />
<path d="M32.7722 26.1827
L32.7722 24.9127
" />
<path d="M32.7722 24.9127
L32.6513 25.0942
" />
<path d="M32.6513 25.0942
L32.5303 25.2151
" />
<path d="M32.5303 25.2151
L32.4094 25.2756
" />
</g></g>
<g style="fill:none; 
stroke:#A90000; stroke-width:0.1524; stroke-opacity:1; 
stroke-linecap:round; stroke-linejoin:round;">
<text x="37.0332" y="25.3492"
textLength="2.6222" font-size="1.6933" lengthAdjust="spacingAndGlyphs"
text-anchor="middle" opacity="0" stroke-opacity="0">18</text>
<g class="stroked-text"><desc>18</desc>
<path d="M36.7913 25.1857
L36.0656 25.1857
" />
<path d="M36.4284 25.1857
L36.4284 23.9157
" />
<path d="M36.4284 23.9157
L36.3075 24.0972
" />
<path d="M36.3075 24.0972
L36.1865 24.2181
" />
<path d="M36.1865 24.2181
L36.0656 24.2786
" />
<path d="M37.5170 24.4600
L37.3960 24.3995
" />
<path d="M37.3960 24.3995
L37.3355 24.3391
" />
<path d="M37.3355 24.3391
L37.2751 24.2181
" />
<path d="M37.2751 24.2181
L37.2751 24.1576
" />
<path d="M37.2751 24.1576
L37.3355 24.0367
" />
<path d="M37.3355 24.0367
L37.3960 23.9762
" />
<path d="M37.3960 23.9762
L37.5170 23.9157
" />
<path d="M37.5170 23.9157
L37.7589 23.9157
" />
<path d="M37.7589 23.9157
L37.8798 23.9762
" />
<path d="M37.8798 23.9762
L37.9403 24.0367
" />
<path d="M37.9403 24.0367
L38.0008 24.1576
" />
<path d="M38.0008 24.1576
L38.0008 24.2181
" />
<path d="M38.0008 24.2181
L37.9403 24.3391
" />
<path d="M37.9403 24.3391
L37.8798 24.3995
" />
<path d="M37.8798 24.3995
L37.7589 24.4600
" />
<path d="M37.7589 24.4600
L37.5170 24.4600
" />
<path d="M37.5170 24.4600
L37.3960 24.5205
" />
<path d="M37.3960 24.5205
L37.3355 24.5810
" />
<path d="M37.3355 24.5810
L37.2751 24.7019
" />
<path d="M37.2751 24.7019
L37.2751 24.9438
" />
<path d="M37.2751 24.9438
L37.3355 25.0648
" />
<path d="M37.3355 25.0648
L37.3960 25.1253
" />
<path d="M37.3960 25.1253
L37.5170 25.1857
" />
<path d="M37.5170 25.1857
L37.7589 25.1857
" />
<path d="M37.7589 25.1857
L37.8798 25.1253
" />
<path d="M37.8798 25.1253
L37.9403 25.0648
" />
<path d="M37.9403 25.0648
L38.0008 24.9438
" />
<path d="M38.0008 24.9438
L38.0008 24.7019
" />
<path d="M38.0008 24.7019
L37.9403 24.5810
" />
<path d="M37.9403 24.5810
L37.8798 24.5205
" />
<path d="M37.8798 24.5205
L37.7589 24.4600
" />
</g></g>
<g style="fill:none; 
stroke:#840000; stroke-width:0.1524; stroke-opacity:1; 
stroke-linecap:round; stroke-linejoin:round;">
<path d="M34.4932 28.1432
L39.5732 28.1432
" />
</g>
<g style="fill:none; 
stroke:#006464; stroke-width:0.1524; stroke-opacity:1; 
stroke-linecap:round; stroke-linejoin:round;">
<text x="33.4772" y="28.7782"
textLength="2.5013" font-size="1.6933" lengthAdjust="spacingAndGlyphs"
text-anchor="end" opacity="0" stroke-opacity="0">A0</text>
<g class="stroked-text"><desc>A0</desc>
<path d="M31.3208 28.3599
L31.9255 28.3599
" />
<path d="M31.1998 28.7227
L31.6231 27.4527
" />
<path d="M31.6231 27.4527
L32.0465 28.7227
" />
<path d="M32.7117 27.4527
L32.8327 27.4527
" />
<path d="M32.8327 27.4527
L32.9536 27.5132
" />
<path d="M32.9536 27.5132
L33.0141 27.5737
" />
<path d="M33.0141 27.5737
L33.0746 27.6946
" />
<path d="M33.0746 27.6946
L33.1351 27.9365
" />
<path d="M33.1351 27.9365
L33.1351 28.2389
" />
<path d="M33.1351 28.2389
L33.0746 28.4808
" />
<path d="M33.0746 28.4808
L33.0141 28.6018
" />
<path d="M33.0141 28.6018
L32.9536 28.6623
" />
<path d="M32.9536 28.6623
L32.8327 28.7227
" />
<path d="M32.8327 28.7227
L32.7117 28.7227
" />
<path d="M32.7117 28.7227
L32.5908 28.6623
" />
<path d="M32.5908 28.6623
L32.5303 28.6018
" />
<path d="M32.5303 28.6018
L32.4698 28.4808
" />
<path d="M32.4698 28.4808
L32.4094 28.2389
" />
<path d="M32.4094 28.2389
L32.4094 27.9365
" />
<path d="M32.4094 27.9365
L32.4698 27.6946
" />
<path d="M32.4698 27.6946
L32.5303 27.5737
" />
<path d="M32.5303 27.5737
L32.5908 27.5132
" />
<path d="M32.5908 27.5132
L32.7117 27.4527
" />
</g></g>
<g style="fill:none; 
stroke:#A90000; stroke-width:0.1524; stroke-opacity:1; 
stroke-linecap:round; stroke-linejoin:round;">
<text x="37.0332" y="27.8892"
textLength="2.6222" font-size="1.6933" lengthAdjust="spacingAndGlyphs"
text-anchor="middle" opacity="0" stroke-opacity="0">17</text>
<g class="stroked-text"><desc>17</desc>
<path d="M36.7913 27.7257
L36.0656 27.7257
" />
<path d="M36.4284 27.7257
L36.4284 26.4557
" />
<path d="M36.4284 26.4557
L36.3075 26.6372
" />
<path d="M36.3075 26.6372
L36.1865 26.7581
" />
<path d="M36.1865 26.7581
L36.0656 26.8186
" />
<path d="M37.2146 26.4557
L38.0612 26.4557
" />
<path d="M38.0612 26.4557
L37.5170 27.7257
" />
</g></g>
<g style="fill:none; 
stroke:#840000; stroke-width:0.1524; stroke-opacity:1; 
stroke-linecap:round; stroke-linejoin:round;">
<path d="M34.4932 30.6832
L39.5732 30.6832
" />
</g>
<g style="fill:none; 
stroke:#006464; stroke-width:0.1524; stroke-opacity:1; 
stroke-linecap:round; stroke-linejoin:round;">
<text x="33.4772" y="31.3182"
textLength="3.7713" font-size="1.6933" lengthAdjust="spacingAndGlyphs"
text-anchor="end" opacity="0" stroke-opacity="0">CLK</text>
<g class="stroked-text"><desc>CLK</desc>
<path d="M30.8369 31.1418
L30.7765 31.2023
" />
<path d="M30.7765 31.2023
L30.5950 31.2627
" />
<path d="M30.5950 31.2627
L30.4741 31.2627
" />
<path d="M30.4741 31.2627
L30.2927 31.2023
" />
<path d="M30.2927 31.2023
L30.1717 31.0813
" />
<path d="M30.1717 31.0813
L30.1112 30.9603
" />
<path d="M30.1112 30.9603
L30.0508 30.7184
" />
<path d="M30.0508 30.7184
L30.0508 30.5370
" />
<path d="M30.0508 30.5370
L30.1112 30.2951
" />
<path d="M30.1112 30.2951
L30.1717 30.1742
" />
<path d="M30.1717 30.1742
L30.2927 30.0532
" />
<path d="M30.2927 30.0532
L30.4741 29.9927
" />
<path d="M30.4741 29.9927
L30.5950 29.9927
" />
<path d="M30.5950 29.9927
L30.7765 30.0532
" />
<path d="M30.7765 30.0532
L30.8369 30.1137
" />
<path d="M31.9860 31.2627
L31.3812 31.2627
" />
<path d="M31.3812 31.2627
L31.3812 29.9927
" />
<path d="M32.4093 31.2627
L32.4093 29.9927
" />
<path d="M33.1350 31.2627
L32.5908 30.5370
" />
<path d="M33.1350 29.9927
L32.4093 30.7184
" />
</g></g>
<g style="fill:none; 
stroke:#A90000; stroke-width:0.1524; stroke-opacity:1; 
stroke-linecap:round; stroke-linejoin:round;">
<text x="37.0332" y="30.4292"
textLength="2.6222" font-size="1.6933" lengthAdjust="spacingAndGlyphs"
text-anchor="middle" opacity="0" stroke-opacity="0">16</text>
<g class="stroked-text"><desc>16</desc>
<path d="M36.7913 30.2657
L36.0656 30.2657
" />
<path d="M36.4284 30.2657
L36.4284 28.9957
" />
<path d="M36.4284 28.9957
L36.3075 29.1772
" />
<path d="M36.3075 29.1772
L36.1865 29.2981
" />
<path d="M36.1865 29.2981
L36.0656 29.3586
" />
<path d="M37.8798 28.9957
L37.6379 28.9957
" />
<path d="M37.6379 28.9957
L37.5170 29.0562
" />
<path d="M37.5170 29.0562
L37.4565 29.1167
" />
<path d="M37.4565 29.1167
L37.3355 29.2981
" />
<path d="M37.3355 29.2981
L37.2751 29.5400
" />
<path d="M37.2751 29.5400
L37.2751 30.0238
" />
<path d="M37.2751 30.0238
L37.3355 30.1448
" />
<path d="M37.3355 30.1448
L37.3960 30.2053
" />
<path d="M37.3960 30.2053
L37.5170 30.2657
" />
<path d="M37.5170 30.2657
L37.7589 30.2657
" />
<path d="M37.7589 30.2657
L37.8798 30.2053
" />
<path d="M37.8798 30.2053
L37.9403 30.1448
" />
<path d="M37.9403 30.1448
L38.0008 30.0238
" />
<path d="M38.0008 30.0238
L38.0008 29.7214
" />
<path d="M38.0008 29.7214
L37.9403 29.6005
" />
<path d="M37.9403 29.6005
L37.8798 29.5400
" />
<path d="M37.8798 29.5400
L37.7589 29.4795
" />
<path d="M37.7589 29.4795
L37.5170 29.4795
" />
<path d="M37.5170 29.4795
L37.3960 29.5400
" />
<path d="M37.3960 29.5400
L37.3355 29.6005
" />
<path d="M37.3355 29.6005
L37.2751 29.7214
" />
</g></g>
<g style="fill:none; 
stroke:#840000; stroke-width:0.1524; stroke-opacity:1; 
stroke-linecap:round; stroke-linejoin:round;">
<path d="M34.4932 33.2232
L39.5732 33.2232
" />
</g>
<g style="fill:none; 
stroke:#006464; stroke-width:0.1524; stroke-opacity:1; 
stroke-linecap:round; stroke-linejoin:round;">
<text x="33.4772" y="33.8582"
textLength="4.7994" font-size="1.6933" lengthAdjust="spacingAndGlyphs"
text-anchor="end" opacity="0" stroke-opacity="0">MISO</text>
<g class="stroked-text"><desc>MISO</desc>
<path d="M29.0831 33.8027
L29.0831 32.5327
" />
<path d="M29.0831 32.5327
L29.5065 33.4399
" />
<path d="M29.5065 33.4399
L29.9298 32.5327
" />
<path d="M29.9298 32.5327
L29.9298 33.8027
" />
<path d="M30.5345 33.8027
L30.5345 32.5327
" />
<path d="M31.0789 33.7423
L31.2603 33.8027
" />
<path d="M31.2603 33.8027
L31.5627 33.8027
" />
<path d="M31.5627 33.8027
L31.6836 33.7423
" />
<path d="M31.6836 33.7423
L31.7441 33.6818
" />
<path d="M31.7441 33.6818
L31.8046 33.5608
" />
<path d="M31.8046 33.5608
L31.8046 33.4399
" />
<path d="M31.8046 33.4399
L31.7441 33.3189
" />
<path d="M31.7441 33.3189
L31.6836 33.2584
" />
<path d="M31.6836 33.2584
L31.5627 33.1980
" />
<path d="M31.5627 33.1980
L31.3208 33.1375
" />
<path d="M31.3208 33.1375
L31.1998 33.0770
" />
<path d="M31.1998 33.0770
L31.1393 33.0165
" />
<path d="M31.1393 33.0165
L31.0789 32.8956
" />
<path d="M31.0789 32.8956
L31.0789 32.7746
" />
<path d="M31.0789 32.7746
L31.1393 32.6537
" />
<path d="M31.1393 32.6537
L31.1998 32.5932
" />
<path d="M31.1998 32.5932
L31.3208 32.5327
" />
<path d="M31.3208 32.5327
L31.6231 32.5327
" />
<path d="M31.6231 32.5327
L31.8046 32.5932
" />
<path d="M32.5907 32.5327
L32.8326 32.5327
" />
<path d="M32.8326 32.5327
L32.9536 32.5932
" />
<path d="M32.9536 32.5932
L33.0745 32.7142
" />
<path d="M33.0745 32.7142
L33.1350 32.9561
" />
<path d="M33.1350 32.9561
L33.1350 33.3794
" />
<path d="M33.1350 33.3794
L33.0745 33.6213
" />
<path d="M33.0745 33.6213
L32.9536 33.7423
" />
<path d="M32.9536 33.7423
L32.8326 33.8027
" />
<path d="M32.8326 33.8027
L32.5907 33.8027
" />
<path d="M32.5907 33.8027
L32.4698 33.7423
" />
<path d="M32.4698 33.7423
L32.3488 33.6213
" />
<path d="M32.3488 33.6213
L32.2884 33.3794
" />
<path d="M32.2884 33.3794
L32.2884 32.9561
" />
<path d="M32.2884 32.9561
L32.3488 32.7142
" />
<path d="M32.3488 32.7142
L32.4698 32.5932
" />
<path d="M32.4698 32.5932
L32.5907 32.5327
" />
</g></g>
<g style="fill:none; 
stroke:#A90000; stroke-width:0.1524; stroke-opacity:1; 
stroke-linecap:round; stroke-linejoin:round;">
<text x="37.0332" y="32.9692"
textLength="2.6222" font-size="1.6933" lengthAdjust="spacingAndGlyphs"
text-anchor="middle" opacity="0" stroke-opacity="0">15</text>
<g class="stroked-text"><desc>15</desc>
<path d="M36.7913 32.8057
L36.0656 32.8057
" />
<path d="M36.4284 32.8057
L36.4284 31.5357
" />
<path d="M36.4284 31.5357
L36.3075 31.7172
" />
<path d="M36.3075 31.7172
L36.1865 31.8381
" />
<path d="M36.1865 31.8381
L36.0656 31.8986
" />
<path d="M37.9403 31.5357
L37.3355 31.5357
" />
<path d="M37.3355 31.5357
L37.2751 32.1405
" />
<path d="M37.2751 32.1405
L37.3355 32.0800
" />
<path d="M37.3355 32.0800
L37.4565 32.0195
" />
<path d="M37.4565 32.0195
L37.7589 32.0195
" />
<path d="M37.7589 32.0195
L37.8798 32.0800
" />
<path d="M37.8798 32.0800
L37.9403 32.1405
" />
<path d="M37.9403 32.1405
L38.0008 32.2614
" />
<path d="M38.0008 32.2614
L38.0008 32.5638
" />
<path d="M38.0008 32.5638
L37.9403 32.6848
" />
<path d="M37.9403 32.6848
L37.8798 32.7453
" />
<path d="M37.8798 32.7453
L37.7589 32.8057
" />
<path d="M37.7589 32.8057
L37.4565 32.8057
" />
<path d="M37.4565 32.8057
L37.3355 32.7453
" />
<path d="M37.3355 32.7453
L37.2751 32.6848
" />
</g></g>
<g style="fill:none; 
stroke:#840000; stroke-width:0.1524; stroke-opacity:1; 
stroke-linecap:round; stroke-linejoin:round;">
<path d="M34.4932 35.7632
L39.5732 35.7632
" />
</g>
<g style="fill:none; 
stroke:#006464; stroke-width:0.1524; stroke-opacity:1; 
stroke-linecap:round; stroke-linejoin:round;">
<text x="33.4772" y="36.3982"
textLength="4.7994" font-size="1.6933" lengthAdjust="spacingAndGlyphs"
text-anchor="end" opacity="0" stroke-opacity="0">MOSI</text>
<g class="stroked-text"><desc>MOSI</desc>
<path d="M29.0831 36.3427
L29.0831 35.0727
" />
<path d="M29.0831 35.0727
L29.5065 35.9799
" />
<path d="M29.5065 35.9799
L29.9298 35.0727
" />
<path d="M29.9298 35.0727
L29.9298 36.3427
" />
<path d="M30.7764 35.0727
L31.0183 35.0727
" />
<path d="M31.0183 35.0727
L31.1393 35.1332
" />
<path d="M31.1393 35.1332
L31.2602 35.2542
" />
<path d="M31.2602 35.2542
L31.3207 35.4961
" />
<path d="M31.3207 35.4961
L31.3207 35.9194
" />
<path d="M31.3207 35.9194
L31.2602 36.1613
" />
<path d="M31.2602 36.1613
L31.1393 36.2823
" />
<path d="M31.1393 36.2823
L31.0183 36.3427
" />
<path d="M31.0183 36.3427
L30.7764 36.3427
" />
<path d="M30.7764 36.3427
L30.6555 36.2823
" />
<path d="M30.6555 36.2823
L30.5345 36.1613
" />
<path d="M30.5345 36.1613
L30.4741 35.9194
" />
<path d="M30.4741 35.9194
L30.4741 35.4961
" />
<path d="M30.4741 35.4961
L30.5345 35.2542
" />
<path d="M30.5345 35.2542
L30.6555 35.1332
" />
<path d="M30.6555 35.1332
L30.7764 35.0727
" />
<path d="M31.8046 36.2823
L31.9860 36.3427
" />
<path d="M31.9860 36.3427
L32.2884 36.3427
" />
<path d="M32.2884 36.3427
L32.4093 36.2823
" />
<path d="M32.4093 36.2823
L32.4698 36.2218
" />
<path d="M32.4698 36.2218
L32.5303 36.1008
" />
<path d="M32.5303 36.1008
L32.5303 35.9799
" />
<path d="M32.5303 35.9799
L32.4698 35.8589
" />
<path d="M32.4698 35.8589
L32.4093 35.7984
" />
<path d="M32.4093 35.7984
L32.2884 35.7380
" />
<path d="M32.2884 35.7380
L32.0465 35.6775
" />
<path d="M32.0465 35.6775
L31.9255 35.6170
" />
<path d="M31.9255 35.6170
L31.8650 35.5565
" />
<path d="M31.8650 35.5565
L31.8046 35.4356
" />
<path d="M31.8046 35.4356
L31.8046 35.3146
" />
<path d="M31.8046 35.3146
L31.8650 35.1937
" />
<path d="M31.8650 35.1937
L31.9255 35.1332
" />
<path d="M31.9255 35.1332
L32.0465 35.0727
" />
<path d="M32.0465 35.0727
L32.3488 35.0727
" />
<path d="M32.3488 35.0727
L32.5303 35.1332
" />
<path d="M33.0745 36.3427
L33.0745 35.0727
" />
</g></g>
<g style="fill:none; 
stroke:#A90000; stroke-width:0.1524; stroke-opacity:1; 
stroke-linecap:round; stroke-linejoin:round;">
<text x="37.0332" y="35.5092"
textLength="2.6222" font-size="1.6933" lengthAdjust="spacingAndGlyphs"
text-anchor="middle" opacity="0" stroke-opacity="0">14</text>
<g class="stroked-text"><desc>14</desc>
<path d="M36.7913 35.3457
L36.0656 35.3457
" />
<path d="M36.4284 35.3457
L36.4284 34.0757
" />
<path d="M36.4284 34.0757
L36.3075 34.2572
" />
<path d="M36.3075 34.2572
L36.1865 34.3781
" />
<path d="M36.1865 34.3781
L36.0656 34.4386
" />
<path d="M37.8798 34.4991
L37.8798 35.3457
" />
<path d="M37.5774 34.0153
L37.2751 34.9224
" />
<path d="M37.2751 34.9224
L38.0612 34.9224
" />
</g></g>
<g style="fill:none; 
stroke:#840000; stroke-width:0.1524; stroke-opacity:1; 
stroke-linecap:round; stroke-linejoin:round;">
<path d="M34.4932 38.3032
L39.5732 38.3032
" />
</g>
<g style="fill:none; 
stroke:#006464; stroke-width:0.1524; stroke-opacity:1; 
stroke-linecap:round; stroke-linejoin:round;">
<text x="33.4772" y="38.9382"
textLength="3.8922" font-size="1.6933" lengthAdjust="spacingAndGlyphs"
text-anchor="end" opacity="0" stroke-opacity="0">D10</text>
<g class="stroked-text"><desc>D10</desc>
<path d="M29.9903 38.8827
L29.9903 37.6127
" />
<path d="M29.9903 37.6127
L30.2927 37.6127
" />
<path d="M30.2927 37.6127
L30.4741 37.6732
" />
<path d="M30.4741 37.6732
L30.5951 37.7942
" />
<path d="M30.5951 37.7942
L30.6556 37.9151
" />
<path d="M30.6556 37.9151
L30.7160 38.1570
" />
<path d="M30.7160 38.1570
L30.7160 38.3384
" />
<path d="M30.7160 38.3384
L30.6556 38.5803
" />
<path d="M30.6556 38.5803
L30.5951 38.7013
" />
<path d="M30.5951 38.7013
L30.4741 38.8223
" />
<path d="M30.4741 38.8223
L30.2927 38.8827
" />
<path d="M30.2927 38.8827
L29.9903 38.8827
" />
<path d="M31.9256 38.8827
L31.1999 38.8827
" />
<path d="M31.5627 38.8827
L31.5627 37.6127
" />
<path d="M31.5627 37.6127
L31.4418 37.7942
" />
<path d="M31.4418 37.7942
L31.3208 37.9151
" />
<path d="M31.3208 37.9151
L31.1999 37.9756
" />
<path d="M32.7117 37.6127
L32.8327 37.6127
" />
<path d="M32.8327 37.6127
L32.9536 37.6732
" />
<path d="M32.9536 37.6732
L33.0141 37.7337
" />
<path d="M33.0141 37.7337
L33.0746 37.8546
" />
<path d="M33.0746 37.8546
L33.1351 38.0965
" />
<path d="M33.1351 38.0965
L33.1351 38.3989
" />
<path d="M33.1351 38.3989
L33.0746 38.6408
" />
<path d="M33.0746 38.6408
L33.0141 38.7618
" />
<path d="M33.0141 38.7618
L32.9536 38.8223
" />
<path d="M32.9536 38.8223
L32.8327 38.8827
" />
<path d="M32.8327 38.8827
L32.7117 38.8827
" />
<path d="M32.7117 38.8827
L32.5908 38.8223
" />
<path d="M32.5908 38.8223
L32.5303 38.7618
" />
<path d="M32.5303 38.7618
L32.4698 38.6408
" />
<path d="M32.4698 38.6408
L32.4094 38.3989
" />
<path d="M32.4094 38.3989
L32.4094 38.0965
" />
<path d="M32.4094 38.0965
L32.4698 37.8546
" />
<path d="M32.4698 37.8546
L32.5303 37.7337
" />
<path d="M32.5303 37.7337
L32.5908 37.6732
" />
<path d="M32.5908 37.6732
L32.7117 37.6127
" />
</g></g>
<g style="fill:none; 
stroke:#A90000; stroke-width:0.1524; stroke-opacity:1; 
stroke-linecap:round; stroke-linejoin:round;">
<text x="37.0332" y="38.0492"
textLength="2.6222" font-size="1.6933" lengthAdjust="spacingAndGlyphs"
text-anchor="middle" opacity="0" stroke-opacity="0">13</text>
<g class="stroked-text"><desc>13</desc>
<path d="M36.7913 37.8857
L36.0656 37.8857
" />
<path d="M36.4284 37.8857
L36.4284 36.6157
" />
<path d="M36.4284 36.6157
L36.3075 36.7972
" />
<path d="M36.3075 36.7972
L36.1865 36.9181
" />
<path d="M36.1865 36.9181
L36.0656 36.9786
" />
<path d="M37.2146 36.6157
L38.0008 36.6157
" />
<path d="M38.0008 36.6157
L37.5774 37.0995
" />
<path d="M37.5774 37.0995
L37.7589 37.0995
" />
<path d="M37.7589 37.0995
L37.8798 37.1600
" />
<path d="M37.8798 37.1600
L37.9403 37.2205
" />
<path d="M37.9403 37.2205
L38.0008 37.3414
" />
<path d="M38.0008 37.3414
L38.0008 37.6438
" />
<path d="M38.0008 37.6438
L37.9403 37.7648
" />
<path d="M37.9403 37.7648
L37.8798 37.8253
" />
<path d="M37.8798 37.8253
L37.7589 37.8857
" />
<path d="M37.7589 37.8857
L37.3960 37.8857
" />
<path d="M37.3960 37.8857
L37.2751 37.8253
" />
<path d="M37.2751 37.8253
L37.2146 37.7648
" />
</g></g>
<g style="fill:none; 
stroke:#006464; stroke-width:0.1524; stroke-opacity:1; 
stroke-linecap:round; stroke-linejoin:round;">
<text x="0.0000" y="-18.2880"
textLength="3.0553" font-size="2.0320" lengthAdjust="spacingAndGlyphs"
text-anchor="middle" opacity="0" stroke-opacity="0">U?</text>
<g class="stroked-text"><desc>U?</desc>
<path d="M-1.0885 -19.8769
L-1.0885 -18.6432
" />
<path d="M-1.0885 -18.6432
L-1.0159 -18.4980
" />
<path d="M-1.0159 -18.4980
L-0.9434 -18.4255
" />
<path d="M-0.9434 -18.4255
L-0.7982 -18.3529
" />
<path d="M-0.7982 -18.3529
L-0.5079 -18.3529
" />
<path d="M-0.5079 -18.3529
L-0.3628 -18.4255
" />
<path d="M-0.3628 -18.4255
L-0.2902 -18.4980
" />
<path d="M-0.2902 -18.4980
L-0.2176 -18.6432
" />
<path d="M-0.2176 -18.6432
L-0.2176 -19.8769
" />
<path d="M0.7257 -18.4980
L0.7983 -18.4255
" />
<path d="M0.7983 -18.4255
L0.7257 -18.3529
" />
<path d="M0.7257 -18.3529
L0.6532 -18.4255
" />
<path d="M0.6532 -18.4255
L0.7257 -18.4980
" />
<path d="M0.7257 -18.4980
L0.7257 -18.3529
" />
<path d="M0.4354 -19.8043
L0.5806 -19.8769
" />
<path d="M0.5806 -19.8769
L0.9434 -19.8769
" />
<path d="M0.9434 -19.8769
L1.0886 -19.8043
" />
<path d="M1.0886 -19.8043
L1.1612 -19.6592
" />
<path d="M1.1612 -19.6592
L1.1612 -19.5140
" />
<path d="M1.1612 -19.5140
L1.0886 -19.3689
" />
<path d="M1.0886 -19.3689
L1.0160 -19.2963
" />
<path d="M1.0160 -19.2963
L0.8709 -19.2237
" />
<path d="M0.8709 -19.2237
L0.7983 -19.1512
" />
<path d="M0.7983 -19.1512
L0.7257 -19.0060
" />
<path d="M0.7257 -19.0060
L0.7257 -18.9335
" />
</g><text x="0.0000" y="19.8120"
textLength="20.1094" font-size="2.0320" lengthAdjust="spacingAndGlyphs"
text-anchor="middle" opacity="0" stroke-opacity="0">ProMicro_RP2040</text>
<g class="stroked-text"><desc>ProMicro_RP2040</desc>
<path d="M-9.6156 19.7470
L-9.6156 18.2230
" />
<path d="M-9.6156 18.2230
L-9.0350 18.2230
" />
<path d="M-9.0350 18.2230
L-8.8899 18.2956
" />
<path d="M-8.8899 18.2956
L-8.8173 18.3682
" />
<path d="M-8.8173 18.3682
L-8.7447 18.5133
" />
<path d="M-8.7447 18.5133
L-8.7447 18.7310
" />
<path d="M-8.7447 18.7310
L-8.8173 18.8762
" />
<path d="M-8.8173 18.8762
L-8.8899 18.9487
" />
<path d="M-8.8899 18.9487
L-9.0350 19.0213
" />
<path d="M-9.0350 19.0213
L-9.6156 19.0213
" />
<path d="M-8.0916 19.7470
L-8.0916 18.7310
" />
<path d="M-8.0916 19.0213
L-8.0190 18.8762
" />
<path d="M-8.0190 18.8762
L-7.9465 18.8036
" />
<path d="M-7.9465 18.8036
L-7.8013 18.7310
" />
<path d="M-7.8013 18.7310
L-7.6562 18.7310
" />
<path d="M-6.9305 19.7470
L-7.0756 19.6745
" />
<path d="M-7.0756 19.6745
L-7.1482 19.6019
" />
<path d="M-7.1482 19.6019
L-7.2208 19.4567
" />
<path d="M-7.2208 19.4567
L-7.2208 19.0213
" />
<path d="M-7.2208 19.0213
L-7.1482 18.8762
" />
<path d="M-7.1482 18.8762
L-7.0756 18.8036
" />
<path d="M-7.0756 18.8036
L-6.9305 18.7310
" />
<path d="M-6.9305 18.7310
L-6.7128 18.7310
" />
<path d="M-6.7128 18.7310
L-6.5676 18.8036
" />
<path d="M-6.5676 18.8036
L-6.4951 18.8762
" />
<path d="M-6.4951 18.8762
L-6.4225 19.0213
" />
<path d="M-6.4225 19.0213
L-6.4225 19.4567
" />
<path d="M-6.4225 19.4567
L-6.4951 19.6019
" />
<path d="M-6.4951 19.6019
L-6.5676 19.6745
" />
<path d="M-6.5676 19.6745
L-6.7128 19.7470
" />
<path d="M-6.7128 19.7470
L-6.9305 19.7470
" />
<path d="M-5.7693 19.7470
L-5.7693 18.2230
" />
<path d="M-5.7693 18.2230
L-5.2613 19.3116
" />
<path d="M-5.2613 19.3116
L-4.7533 18.2230
" />
<path d="M-4.7533 18.2230
L-4.7533 19.7470
" />
<path d="M-4.0276 19.7470
L-4.0276 18.7310
" />
<path d="M-4.0276 18.2230
L-4.1002 18.2956
" />
<path d="M-4.1002 18.2956
L-4.0276 18.3682
" />
<path d="M-4.0276 18.3682
L-3.9550 18.2956
" />
<path d="M-3.9550 18.2956
L-4.0276 18.2230
" />
<path d="M-4.0276 18.2230
L-4.0276 18.3682
" />
<path d="M-2.6488 19.6745
L-2.7939 19.7470
" />
<path d="M-2.7939 19.7470
L-3.0842 19.7470
" />
<path d="M-3.0842 19.7470
L-3.2293 19.6745
" />
<path d="M-3.2293 19.6745
L-3.3019 19.6019
" />
<path d="M-3.3019 19.6019
L-3.3745 19.4567
" />
<path d="M-3.3745 19.4567
L-3.3745 19.0213
" />
<path d="M-3.3745 19.0213
L-3.3019 18.8762
" />
<path d="M-3.3019 18.8762
L-3.2293 18.8036
" />
<path d="M-3.2293 18.8036
L-3.0842 18.7310
" />
<path d="M-3.0842 18.7310
L-2.7939 18.7310
" />
<path d="M-2.7939 18.7310
L-2.6488 18.8036
" />
<path d="M-1.9956 19.7470
L-1.9956 18.7310
" />
<path d="M-1.9956 19.0213
L-1.9230 18.8762
" />
<path d="M-1.9230 18.8762
L-1.8505 18.8036
" />
<path d="M-1.8505 18.8036
L-1.7053 18.7310
" />
<path d="M-1.7053 18.7310
L-1.5602 18.7310
" />
<path d="M-0.8345 19.7470
L-0.9796 19.6745
" />
<path d="M-0.9796 19.6745
L-1.0522 19.6019
" />
<path d="M-1.0522 19.6019
L-1.1248 19.4567
" />
<path d="M-1.1248 19.4567
L-1.1248 19.0213
" />
<path d="M-1.1248 19.0213
L-1.0522 18.8762
" />
<path d="M-1.0522 18.8762
L-0.9796 18.8036
" />
<path d="M-0.9796 18.8036
L-0.8345 18.7310
" />
<path d="M-0.8345 18.7310
L-0.6168 18.7310
" />
<path d="M-0.6168 18.7310
L-0.4716 18.8036
" />
<path d="M-0.4716 18.8036
L-0.3991 18.8762
" />
<path d="M-0.3991 18.8762
L-0.3265 19.0213
" />
<path d="M-0.3265 19.0213
L-0.3265 19.4567
" />
<path d="M-0.3265 19.4567
L-0.3991 19.6019
" />
<path d="M-0.3991 19.6019
L-0.4716 19.6745
" />
<path d="M-0.4716 19.6745
L-0.6168 19.7470
" />
<path d="M-0.6168 19.7470
L-0.8345 19.7470
" />
<path d="M-0.0362 19.8922
L1.1249 19.8922
" />
<path d="M2.3586 19.7470
L1.8506 19.0213
" />
<path d="M1.4877 19.7470
L1.4877 18.2230
" />
<path d="M1.4877 18.2230
L2.0683 18.2230
" />
<path d="M2.0683 18.2230
L2.2134 18.2956
" />
<path d="M2.2134 18.2956
L2.2860 18.3682
" />
<path d="M2.2860 18.3682
L2.3586 18.5133
" />
<path d="M2.3586 18.5133
L2.3586 18.7310
" />
<path d="M2.3586 18.7310
L2.2860 18.8762
" />
<path d="M2.2860 18.8762
L2.2134 18.9487
" />
<path d="M2.2134 18.9487
L2.0683 19.0213
" />
<path d="M2.0683 19.0213
L1.4877 19.0213
" />
<path d="M3.0117 19.7470
L3.0117 18.2230
" />
<path d="M3.0117 18.2230
L3.5923 18.2230
" />
<path d="M3.5923 18.2230
L3.7374 18.2956
" />
<path d="M3.7374 18.2956
L3.8100 18.3682
" />
<path d="M3.8100 18.3682
L3.8826 18.5133
" />
<path d="M3.8826 18.5133
L3.8826 18.7310
" />
<path d="M3.8826 18.7310
L3.8100 18.8762
" />
<path d="M3.8100 18.8762
L3.7374 18.9487
" />
<path d="M3.7374 18.9487
L3.5923 19.0213
" />
<path d="M3.5923 19.0213
L3.0117 19.0213
" />
<path d="M4.4631 18.3682
L4.5357 18.2956
" />
<path d="M4.5357 18.2956
L4.6809 18.2230
" />
<path d="M4.6809 18.2230
L5.0437 18.2230
" />
<path d="M5.0437 18.2230
L5.1889 18.2956
" />
<path d="M5.1889 18.2956
L5.2614 18.3682
" />
<path d="M5.2614 18.3682
L5.3340 18.5133
" />
<path d="M5.3340 18.5133
L5.3340 18.6585
" />
<path d="M5.3340 18.6585
L5.2614 18.8762
" />
<path d="M5.2614 18.8762
L4.3906 19.7470
" />
<path d="M4.3906 19.7470
L5.3340 19.7470
" />
<path d="M6.2774 18.2230
L6.4225 18.2230
" />
<path d="M6.4225 18.2230
L6.5677 18.2956
" />
<path d="M6.5677 18.2956
L6.6403 18.3682
" />
<path d="M6.6403 18.3682
L6.7128 18.5133
" />
<path d="M6.7128 18.5133
L6.7854 18.8036
" />
<path d="M6.7854 18.8036
L6.7854 19.1665
" />
<path d="M6.7854 19.1665
L6.7128 19.4567
" />
<path d="M6.7128 19.4567
L6.6403 19.6019
" />
<path d="M6.6403 19.6019
L6.5677 19.6745
" />
<path d="M6.5677 19.6745
L6.4225 19.7470
" />
<path d="M6.4225 19.7470
L6.2774 19.7470
" />
<path d="M6.2774 19.7470
L6.1323 19.6745
" />
<path d="M6.1323 19.6745
L6.0597 19.6019
" />
<path d="M6.0597 19.6019
L5.9871 19.4567
" />
<path d="M5.9871 19.4567
L5.9145 19.1665
" />
<path d="M5.9145 19.1665
L5.9145 18.8036
" />
<path d="M5.9145 18.8036
L5.9871 18.5133
" />
<path d="M5.9871 18.5133
L6.0597 18.3682
" />
<path d="M6.0597 18.3682
L6.1323 18.2956
" />
<path d="M6.1323 18.2956
L6.2774 18.2230
" />
<path d="M8.0917 18.7310
L8.0917 19.7470
" />
<path d="M7.7288 18.1505
L7.3659 19.2390
" />
<path d="M7.3659 19.2390
L8.3094 19.2390
" />
<path d="M9.1802 18.2230
L9.3253 18.2230
" />
<path d="M9.3253 18.2230
L9.4705 18.2956
" />
<path d="M9.4705 18.2956
L9.5431 18.3682
" />
<path d="M9.5431 18.3682
L9.6156 18.5133
" />
<path d="M9.6156 18.5133
L9.6882 18.8036
" />
<path d="M9.6882 18.8036
L9.6882 19.1665
" />
<path d="M9.6882 19.1665
L9.6156 19.4567
" />
<path d="M9.6156 19.4567
L9.5431 19.6019
" />
<path d="M9.5431 19.6019
L9.4705 19.6745
" />
<path d="M9.4705 19.6745
L9.3253 19.7470
" />
<path d="M9.3253 19.7470
L9.1802 19.7470
" />
<path d="M9.1802 19.7470
L9.0351 19.6745
" />
<path d="M9.0351 19.6745
L8.9625 19.6019
" />
<path d="M8.9625 19.6019
L8.8899 19.4567
" />
<path d="M8.8899 19.4567
L8.8173 19.1665
" />
<path d="M8.8173 19.1665
L8.8173 18.8036
" />
<path d="M8.8173 18.8036
L8.8899 18.5133
" />
<path d="M8.8899 18.5133
L8.9625 18.3682
" />
<path d="M8.9625 18.3682
L9.0351 18.2956
" />
<path d="M9.0351 18.2956
L9.1802 18.2230
" />
</g></g> 
</svg>
