<svg xmlns="http://www.w3.org/2000/svg" width="164.736" height="177.504" viewBox="0 0 43.586 46.965">
    <rect width="25.4" height="33.02" x="9.093" y="6.972" rx="0" style="fill:#ffffc2;fill-opacity:1;stroke:none"/>
    <g style="fill:none;stroke:#840000;stroke-width:.1524;stroke-opacity:1;stroke-linecap:round;stroke-linejoin:round">
        <rect width="25.4" height="33.02" x="9.093" y="6.972" rx="0"/>
        <path d="M9.093 9.512h-5.08"/>
    </g>
    <g class="stroked-text" style="fill:none;stroke:#006464;stroke-width:.1524;stroke-opacity:1;stroke-linecap:round;stroke-linejoin:round">
        <path d="M10.33 8.822h.726M10.693 10.092v-1.27M11.358 8.822l.847 1.27M12.205 8.822l-.847 1.27"/>
    </g>
    <g class="stroked-text" style="fill:none;stroke:#a90000;stroke-width:.1524;stroke-opacity:1;stroke-linecap:round;stroke-linejoin:round">
        <path d="M6.916 9.095H6.19M6.553 9.095v-1.27M6.553 7.825l-.12.181M6.432 8.006l-.12.121M6.311 8.127l-.12.06"/>
    </g>
    <path d="M9.093 12.052h-5.08" style="fill:none;stroke:#840000;stroke-width:.1524;stroke-opacity:1;stroke-linecap:round;stroke-linejoin:round"/>
    <g class="stroked-text" style="fill:none;stroke:#006464;stroke-width:.1524;stroke-opacity:1;stroke-linecap:round;stroke-linejoin:round">
        <path d="m11.237 12.632-.423-.605M10.512 12.632v-1.27M10.512 11.362h.483M10.996 11.362l.12.06M11.117 11.422l.06.06M11.177 11.483l.06.12M11.237 11.604v.181M11.237 11.785l-.06.121M11.177 11.906l-.06.06M11.117 11.967l-.122.06M10.996 12.027h-.484M11.66 11.362l.847 1.27M12.507 11.362l-.846 1.27"/>
    </g>
    <g class="stroked-text" style="fill:none;stroke:#a90000;stroke-width:.1524;stroke-opacity:1;stroke-linecap:round;stroke-linejoin:round">
        <path d="m6.19 10.486.06-.06M6.25 10.425l.122-.06M6.372 10.365h.302M6.674 10.365l.121.06M6.795 10.425l.06.06M6.856 10.486l.06.12M6.916 10.607v.12M6.916 10.728l-.06.181M6.856 10.91l-.726.725M6.13 11.635h.786"/>
    </g>
    <path d="M9.093 14.592h-5.08" style="fill:none;stroke:#840000;stroke-width:.1524;stroke-opacity:1;stroke-linecap:round;stroke-linejoin:round"/>
    <g class="stroked-text" style="fill:none;stroke:#006464;stroke-width:.1524;stroke-opacity:1;stroke-linecap:round;stroke-linejoin:round">
        <path d="m11.177 13.962-.121-.06M11.056 13.902h-.181M10.875 13.902l-.182.06M10.693 13.962l-.12.121M10.572 14.083l-.06.121M10.512 14.204l-.06.242M10.451 14.446v.181M10.451 14.628l.06.241M10.512 14.87l.06.12M10.572 14.99l.121.121M10.693 15.111l.182.06M10.875 15.172h.12M10.996 15.172l.181-.06M11.177 15.111l.06-.06M11.237 15.05v-.423M11.237 14.628h-.242M11.782 15.172v-1.27M11.782 13.902l.725 1.27M12.507 15.172v-1.27M13.112 15.172v-1.27M13.112 13.902h.303M13.415 13.902l.181.06M13.596 13.962l.121.121M13.717 14.083l.06.121M13.778 14.204l.06.242M13.838 14.446v.181M13.838 14.628l-.06.241M13.778 14.87l-.061.12M13.717 14.99l-.121.121M13.596 15.111l-.181.06M13.415 15.172h-.303"/>
    </g>
    <g class="stroked-text" style="fill:none;stroke:#a90000;stroke-width:.1524;stroke-opacity:1;stroke-linecap:round;stroke-linejoin:round">
        <path d="M6.13 12.905h.786M6.916 12.905l-.423.484M6.493 13.389h.181M6.674 13.389l.121.06M6.795 13.45l.06.06M6.856 13.51l.06.12M6.916 13.63v.303M6.916 13.933l-.06.12M6.856 14.054l-.06.06M6.795 14.114l-.12.06M6.674 14.175h-.363M6.311 14.175l-.12-.06M6.19 14.114l-.06-.06"/>
    </g>
    <path d="M9.093 17.132h-5.08" style="fill:none;stroke:#840000;stroke-width:.1524;stroke-opacity:1;stroke-linecap:round;stroke-linejoin:round"/>
    <g class="stroked-text" style="fill:none;stroke:#006464;stroke-width:.1524;stroke-opacity:1;stroke-linecap:round;stroke-linejoin:round">
        <path d="m11.177 16.502-.121-.06M11.056 16.442h-.181M10.875 16.442l-.182.06M10.693 16.502l-.12.121M10.572 16.623l-.06.121M10.512 16.744l-.06.242M10.451 16.986v.181M10.451 17.168l.06.241M10.512 17.41l.06.12M10.572 17.53l.121.121M10.693 17.651l.182.06M10.875 17.712h.12M10.996 17.712l.181-.06M11.177 17.651l.06-.06M11.237 17.59v-.422M11.237 17.168h-.242M11.782 17.712v-1.27M11.782 16.442l.725 1.27M12.507 17.712v-1.27M13.112 17.712v-1.27M13.112 16.442h.303M13.415 16.442l.181.06M13.596 16.502l.121.121M13.717 16.623l.06.121M13.778 16.744l.06.242M13.838 16.986v.181M13.838 17.168l-.06.241M13.778 17.41l-.061.12M13.717 17.53l-.121.121M13.596 17.651l-.181.06M13.415 17.712h-.303"/>
    </g>
    <g class="stroked-text" style="fill:none;stroke:#a90000;stroke-width:.1524;stroke-opacity:1;stroke-linecap:round;stroke-linejoin:round">
        <path d="M6.795 15.868v.847M6.493 15.384l-.303.907M6.19 16.292h.786"/>
    </g>
    <path d="M9.093 19.672h-5.08" style="fill:none;stroke:#840000;stroke-width:.1524;stroke-opacity:1;stroke-linecap:round;stroke-linejoin:round"/>
    <g class="stroked-text" style="fill:none;stroke:#006464;stroke-width:.1524;stroke-opacity:1;stroke-linecap:round;stroke-linejoin:round">
        <path d="M10.512 20.252v-1.27M10.512 18.982h.302M10.814 18.982l.181.06M10.996 19.042l.12.121M11.117 19.163l.06.121M11.177 19.284l.06.242M11.237 19.526v.181M11.237 19.708l-.06.241M11.177 19.95l-.06.12M11.117 20.07l-.122.121M10.996 20.191l-.182.06M10.814 20.252h-.302M11.721 19.103l.06-.06M11.782 19.042l.12-.06M11.903 18.982h.302M12.205 18.982l.121.06M12.326 19.042l.06.06M12.387 19.103l.06.12M12.447 19.224v.12M12.447 19.345l-.06.181M12.387 19.526l-.726.726M11.66 20.252h.787M13.898 18.921l-1.088 1.633M14.261 20.191l.182.06M14.443 20.252h.302M14.745 20.252l.121-.06M14.866 20.191l.06-.06M14.927 20.13l.06-.12M14.987 20.01v-.121M14.987 19.889l-.06-.121M14.927 19.768l-.061-.06M14.866 19.708l-.12-.06M14.745 19.647l-.242-.06M14.503 19.587l-.12-.06M14.382 19.526l-.06-.06M14.322 19.466l-.06-.121M14.261 19.345v-.121M14.261 19.224l.06-.121M14.322 19.103l.06-.06M14.382 19.042l.121-.06M14.503 18.982h.303M14.806 18.982l.181.06M15.531 20.252v-1.27M15.531 18.982h.303M15.834 18.982l.181.06M16.015 19.042l.121.121M16.136 19.163l.06.121M16.197 19.284l.06.242M16.257 19.526v.181M16.257 19.708l-.06.241M16.197 19.95l-.061.12M16.136 20.07l-.121.121M16.015 20.191l-.181.06M15.834 20.252h-.303M16.74 19.889h.606M16.62 20.252l.423-1.27M17.043 18.982l.424 1.27"/>
    </g>
    <g class="stroked-text" style="fill:none;stroke:#a90000;stroke-width:.1524;stroke-opacity:1;stroke-linecap:round;stroke-linejoin:round">
        <path d="M6.856 17.985H6.25M6.25 17.985l-.06.605M6.19 18.59l.06-.06M6.25 18.53l.122-.061M6.372 18.469h.302M6.674 18.469l.121.06M6.795 18.53l.06.06M6.856 18.59l.06.12M6.916 18.71v.303M6.916 19.013l-.06.12M6.856 19.134l-.06.06M6.795 19.194l-.12.06M6.674 19.255h-.302M6.372 19.255l-.121-.06M6.25 19.194l-.06-.06"/>
    </g>
    <path d="M9.093 22.212h-5.08" style="fill:none;stroke:#840000;stroke-width:.1524;stroke-opacity:1;stroke-linecap:round;stroke-linejoin:round"/>
    <g class="stroked-text" style="fill:none;stroke:#006464;stroke-width:.1524;stroke-opacity:1;stroke-linecap:round;stroke-linejoin:round">
        <path d="M10.512 22.792v-1.27M10.512 21.522h.302M10.814 21.522l.181.06M10.996 21.582l.12.121M11.117 21.703l.06.121M11.177 21.824l.06.242M11.237 22.066v.181M11.237 22.248l-.06.241M11.177 22.49l-.06.12M11.117 22.61l-.122.121M10.996 22.731l-.182.06M10.814 22.792h-.302M11.66 21.522h.787M12.447 21.522l-.423.484M12.024 22.006h.181M12.205 22.006l.121.06M12.326 22.066l.06.06M12.387 22.127l.06.12M12.447 22.248v.302M12.447 22.55l-.06.12M12.387 22.67l-.061.061M12.326 22.731l-.12.06M12.205 22.792h-.363M11.842 22.792l-.12-.06M11.721 22.731l-.06-.06M13.898 21.461l-1.088 1.633M14.261 22.731l.182.06M14.443 22.792h.302M14.745 22.792l.121-.06M14.866 22.731l.06-.06M14.927 22.67l.06-.12M14.987 22.55v-.121M14.987 22.429l-.06-.121M14.927 22.308l-.061-.06M14.866 22.248l-.12-.06M14.745 22.187l-.242-.06M14.503 22.127l-.12-.06M14.382 22.066l-.06-.06M14.322 22.006l-.06-.121M14.261 21.885v-.121M14.261 21.764l.06-.121M14.322 21.643l.06-.06M14.382 21.582l.121-.06M14.503 21.522h.303M14.806 21.522l.181.06M16.257 22.67l-.06.061M16.197 22.731l-.182.06M16.015 22.792h-.12M15.894 22.792l-.181-.06M15.713 22.731l-.121-.12M15.592 22.61l-.06-.12M15.531 22.49l-.06-.242M15.47 22.248v-.182M15.47 22.066l.061-.242M15.531 21.824l.06-.12M15.592 21.703l.12-.12M15.713 21.582l.181-.06M15.894 21.522h.121M16.015 21.522l.181.06M16.197 21.582l.06.06M17.406 22.792h-.605M16.801 22.792v-1.27"/>
    </g>
    <g class="stroked-text" style="fill:none;stroke:#a90000;stroke-width:.1524;stroke-opacity:1;stroke-linecap:round;stroke-linejoin:round">
        <path d="M6.795 20.525h-.242M6.553 20.525l-.12.06M6.432 20.585l-.06.06M6.372 20.646l-.121.181M6.25 20.827l-.06.242M6.19 21.07v.483M6.19 21.553l.06.12M6.25 21.674l.061.06M6.311 21.734l.121.06M6.432 21.795h.242M6.674 21.795l.121-.06M6.795 21.734l.06-.06M6.856 21.674l.06-.121M6.916 21.553v-.303M6.916 21.25l-.06-.12M6.856 21.13l-.06-.06M6.795 21.07l-.12-.061M6.674 21.009h-.242M6.432 21.009l-.12.06M6.311 21.07l-.06.06M6.25 21.13l-.06.12"/>
    </g>
    <path d="M9.093 24.752h-5.08" style="fill:none;stroke:#840000;stroke-width:.1524;stroke-opacity:1;stroke-linecap:round;stroke-linejoin:round"/>
    <g class="stroked-text" style="fill:none;stroke:#006464;stroke-width:.1524;stroke-opacity:1;stroke-linecap:round;stroke-linejoin:round">
        <path d="M10.512 25.332v-1.27M10.512 24.062h.302M10.814 24.062l.181.06M10.996 24.122l.12.121M11.117 24.243l.06.121M11.177 24.364l.06.242M11.237 24.606v.181M11.237 24.788l-.06.241M11.177 25.03l-.06.12M11.117 25.15l-.122.121M10.996 25.271l-.182.06M10.814 25.332h-.302M12.326 24.485v.847M12.024 24.001l-.303.907M11.721 24.909h.786"/>
    </g>
    <g class="stroked-text" style="fill:none;stroke:#a90000;stroke-width:.1524;stroke-opacity:1;stroke-linecap:round;stroke-linejoin:round">
        <path d="M6.13 23.065h.846M6.977 23.065l-.545 1.27"/>
    </g>
    <path d="M9.093 27.292h-5.08" style="fill:none;stroke:#840000;stroke-width:.1524;stroke-opacity:1;stroke-linecap:round;stroke-linejoin:round"/>
    <g class="stroked-text" style="fill:none;stroke:#006464;stroke-width:.1524;stroke-opacity:1;stroke-linecap:round;stroke-linejoin:round">
        <path d="M10.512 27.872v-1.27M10.512 26.602h.302M10.814 26.602l.181.06M10.996 26.662l.12.121M11.117 26.783l.06.121M11.177 26.904l.06.242M11.237 27.146v.181M11.237 27.328l-.06.241M11.177 27.57l-.06.12M11.117 27.69l-.122.121M10.996 27.811l-.182.06M10.814 27.872h-.302M12.387 26.602h-.605M11.782 26.602l-.06.605M11.721 27.207l.06-.06M11.782 27.146l.12-.06M11.903 27.086h.302M12.205 27.086l.121.06M12.326 27.146l.06.06M12.387 27.207l.06.12M12.447 27.328v.302M12.447 27.63l-.06.12M12.387 27.75l-.061.061M12.326 27.811l-.12.06M12.205 27.872h-.302M11.903 27.872l-.121-.06M11.782 27.811l-.06-.06"/>
    </g>
    <g class="stroked-text" style="fill:none;stroke:#a90000;stroke-width:.1524;stroke-opacity:1;stroke-linecap:round;stroke-linejoin:round">
        <path d="m6.432 26.15-.12-.061M6.311 26.089l-.06-.06M6.25 26.028l-.06-.12M6.19 25.907v-.06M6.19 25.847l.06-.121M6.25 25.726l.061-.06M6.311 25.665l.121-.06M6.432 25.605h.242M6.674 25.605l.121.06M6.795 25.665l.06.06M6.856 25.726l.06.12M6.916 25.847v.06M6.916 25.907l-.06.121M6.856 26.028l-.06.06M6.795 26.089l-.12.06M6.674 26.15h-.242M6.432 26.15l-.12.06M6.311 26.21l-.06.06M6.25 26.27l-.06.121M6.19 26.391v.242M6.19 26.633l.06.12M6.25 26.754l.061.06M6.311 26.814l.121.06M6.432 26.875h.242M6.674 26.875l.121-.06M6.795 26.814l.06-.06M6.856 26.754l.06-.121M6.916 26.633v-.242M6.916 26.391l-.06-.12M6.856 26.27l-.06-.06M6.795 26.21l-.12-.06"/>
    </g>
    <path d="M9.093 29.832h-5.08" style="fill:none;stroke:#840000;stroke-width:.1524;stroke-opacity:1;stroke-linecap:round;stroke-linejoin:round"/>
    <g class="stroked-text" style="fill:none;stroke:#006464;stroke-width:.1524;stroke-opacity:1;stroke-linecap:round;stroke-linejoin:round">
        <path d="M10.512 30.412v-1.27M10.512 29.142h.302M10.814 29.142l.181.06M10.996 29.202l.12.121M11.117 29.323l.06.121M11.177 29.444l.06.242M11.237 29.686v.181M11.237 29.868l-.06.241M11.177 30.11l-.06.12M11.117 30.23l-.122.121M10.996 30.351l-.182.06M10.814 30.412h-.302M12.326 29.142h-.242M12.084 29.142l-.12.06M11.963 29.202l-.06.06M11.903 29.263l-.121.181M11.782 29.444l-.06.242M11.721 29.686v.484M11.721 30.17l.06.12M11.782 30.29l.06.061M11.842 30.351l.121.06M11.963 30.412h.242M12.205 30.412l.121-.06M12.326 30.351l.06-.06M12.387 30.29l.06-.12M12.447 30.17v-.303M12.447 29.868l-.06-.121M12.387 29.747l-.061-.06M12.326 29.686l-.12-.06M12.205 29.626h-.242M11.963 29.626l-.12.06M11.842 29.686l-.06.06M11.782 29.747l-.06.12"/>
    </g>
    <g class="stroked-text" style="fill:none;stroke:#a90000;stroke-width:.1524;stroke-opacity:1;stroke-linecap:round;stroke-linejoin:round">
        <path d="M6.311 29.415h.242M6.553 29.415l.121-.06M6.674 29.354l.06-.06M6.735 29.294l.12-.182M6.856 29.112l.06-.241M6.916 28.87v-.483M6.916 28.387l-.06-.121M6.856 28.266l-.06-.06M6.795 28.205l-.12-.06M6.674 28.145h-.242M6.432 28.145l-.12.06M6.311 28.205l-.06.06M6.25 28.266l-.06.12M6.19 28.387v.302M6.19 28.69l.06.12M6.25 28.81l.061.06M6.311 28.87l.121.061M6.432 28.931h.242M6.674 28.931l.121-.06M6.795 28.87l.06-.06M6.856 28.81l.06-.12"/>
    </g>
    <path d="M9.093 32.372h-5.08" style="fill:none;stroke:#840000;stroke-width:.1524;stroke-opacity:1;stroke-linecap:round;stroke-linejoin:round"/>
    <g class="stroked-text" style="fill:none;stroke:#006464;stroke-width:.1524;stroke-opacity:1;stroke-linecap:round;stroke-linejoin:round">
        <path d="M10.512 32.952v-1.27M10.512 31.682h.302M10.814 31.682l.181.06M10.996 31.742l.12.121M11.117 31.863l.06.121M11.177 31.984l.06.242M11.237 32.226v.181M11.237 32.408l-.06.241M11.177 32.65l-.06.12M11.117 32.77l-.122.121M10.996 32.891l-.182.06M10.814 32.952h-.302M11.66 31.682h.847M12.507 31.682l-.544 1.27"/>
    </g>
    <g class="stroked-text" style="fill:none;stroke:#a90000;stroke-width:.1524;stroke-opacity:1;stroke-linecap:round;stroke-linejoin:round">
        <path d="M6.311 31.955h-.725M5.948 31.955v-1.27M5.948 30.685l-.12.181M5.828 30.866l-.122.121M5.707 30.987l-.121.06M7.097 30.685h.121M7.218 30.685l.121.06M7.34 30.745l.06.06M7.4 30.806l.06.12M7.46 30.927l.06.242M7.52 31.169v.302M7.52 31.471l-.06.242M7.46 31.713l-.06.12M7.4 31.834l-.06.06M7.34 31.894l-.122.06M7.218 31.955h-.12M7.097 31.955l-.12-.06M6.977 31.894l-.061-.06M6.916 31.834l-.06-.121M6.856 31.713l-.06-.242M6.795 31.471v-.302M6.795 31.169l.06-.242M6.856 30.927l.06-.121M6.916 30.806l.06-.06M6.977 30.745l.12-.06"/>
    </g>
    <path d="M9.093 34.912h-5.08" style="fill:none;stroke:#840000;stroke-width:.1524;stroke-opacity:1;stroke-linecap:round;stroke-linejoin:round"/>
    <g class="stroked-text" style="fill:none;stroke:#006464;stroke-width:.1524;stroke-opacity:1;stroke-linecap:round;stroke-linejoin:round">
        <path d="M10.512 35.492v-1.27M10.512 34.222h.302M10.814 34.222l.181.06M10.996 34.282l.12.121M11.117 34.403l.06.121M11.177 34.524l.06.242M11.237 34.766v.181M11.237 34.948l-.06.241M11.177 35.19l-.06.12M11.117 35.31l-.122.121M10.996 35.431l-.182.06M10.814 35.492h-.302M11.963 34.766l-.12-.06M11.842 34.706l-.06-.06M11.782 34.645l-.06-.12M11.721 34.524v-.06M11.721 34.464l.06-.121M11.782 34.343l.06-.06M11.842 34.282l.121-.06M11.963 34.222h.242M12.205 34.222l.121.06M12.326 34.282l.06.06M12.387 34.343l.06.12M12.447 34.464v.06M12.447 34.524l-.06.121M12.387 34.645l-.061.06M12.326 34.706l-.12.06M12.205 34.766h-.242M11.963 34.766l-.12.06M11.842 34.827l-.06.06M11.782 34.887l-.06.121M11.721 35.008v.242M11.721 35.25l.06.12M11.782 35.37l.06.061M11.842 35.431l.121.06M11.963 35.492h.242M12.205 35.492l.121-.06M12.326 35.431l.06-.06M12.387 35.37l.06-.12M12.447 35.25v-.242M12.447 35.008l-.06-.12M12.387 34.887l-.061-.06M12.326 34.827l-.12-.06"/>
    </g>
    <g class="stroked-text" style="fill:none;stroke:#a90000;stroke-width:.1524;stroke-opacity:1;stroke-linecap:round;stroke-linejoin:round">
        <path d="M6.311 34.495h-.725M5.948 34.495v-1.27M5.948 33.225l-.12.181M5.828 33.406l-.122.121M5.707 33.527l-.121.06M7.52 34.495h-.725M7.158 34.495v-1.27M7.158 33.225l-.121.181M7.037 33.406l-.121.121M6.916 33.527l-.12.06"/>
    </g>
    <path d="M9.093 37.452h-5.08" style="fill:none;stroke:#840000;stroke-width:.1524;stroke-opacity:1;stroke-linecap:round;stroke-linejoin:round"/>
    <g class="stroked-text" style="fill:none;stroke:#006464;stroke-width:.1524;stroke-opacity:1;stroke-linecap:round;stroke-linejoin:round">
        <path d="M10.512 38.032v-1.27M10.512 36.762h.302M10.814 36.762l.181.06M10.996 36.822l.12.121M11.117 36.943l.06.121M11.177 37.064l.06.242M11.237 37.306v.181M11.237 37.488l-.06.241M11.177 37.73l-.06.12M11.117 37.85l-.122.121M10.996 37.971l-.182.06M10.814 38.032h-.302M11.842 38.032h.242M12.084 38.032l.121-.06M12.205 37.971l.06-.06M12.266 37.91l.12-.18M12.387 37.73l.06-.242M12.447 37.488v-.484M12.447 37.004l-.06-.121M12.387 36.883l-.061-.06M12.326 36.822l-.12-.06M12.205 36.762h-.242M11.963 36.762l-.12.06M11.842 36.822l-.06.06M11.782 36.883l-.06.12M11.721 37.004v.302M11.721 37.306l.06.121M11.782 37.427l.06.06M11.842 37.488l.121.06M11.963 37.548h.242M12.205 37.548l.121-.06M12.326 37.488l.06-.06M12.387 37.427l.06-.12"/>
    </g>
    <g class="stroked-text" style="fill:none;stroke:#a90000;stroke-width:.1524;stroke-opacity:1;stroke-linecap:round;stroke-linejoin:round">
        <path d="M6.311 37.035h-.725M5.948 37.035v-1.27M5.948 35.765l-.12.181M5.828 35.946l-.122.121M5.707 36.067l-.121.06M6.795 35.886l.06-.06M6.856 35.825l.12-.06M6.977 35.765h.302M7.279 35.765l.12.06M7.4 35.825l.06.06M7.46 35.886l.06.12M7.52 36.007v.12M7.52 36.128l-.06.181M7.46 36.31l-.725.725M6.735 37.035h.786"/>
    </g>
    <path d="M34.493 9.512h5.08" style="fill:none;stroke:#840000;stroke-width:.1524;stroke-opacity:1;stroke-linecap:round;stroke-linejoin:round"/>
    <g class="stroked-text" style="fill:none;stroke:#006464;stroke-width:.1524;stroke-opacity:1;stroke-linecap:round;stroke-linejoin:round">
        <path d="m30.595 10.092-.423-.605M29.87 10.092v-1.27M29.87 8.822h.483M30.353 8.822l.121.06M30.474 8.882l.06.06M30.535 8.943l.06.12M30.595 9.064v.181M30.595 9.245l-.06.121M30.535 9.366l-.06.06M30.474 9.427l-.12.06M30.353 9.487h-.484M31.079 9.729h.605M30.958 10.092l.423-1.27M31.381 8.822l.424 1.27M32.107 8.822l.302 1.27M32.41 10.092l.241-.907M32.651 9.185l.242.907M32.893 10.092l.303-1.27"/>
    </g>
    <g class="stroked-text" style="fill:none;stroke:#a90000;stroke-width:.1524;stroke-opacity:1;stroke-linecap:round;stroke-linejoin:round">
        <path d="m36.066 7.946.06-.06M36.126 7.885l.121-.06M36.247 7.825h.302M36.55 7.825l.12.06M36.67 7.885l.06.06M36.73 7.946l.061.12M36.791 8.067v.12M36.791 8.188l-.06.181M36.73 8.37l-.725.725M36.005 9.095h.786M37.88 8.248v.847M37.577 7.764l-.302.907M37.275 8.672h.786"/>
    </g>
    <path d="M34.493 12.052h5.08" style="fill:none;stroke:#840000;stroke-width:.1524;stroke-opacity:1;stroke-linecap:round;stroke-linejoin:round"/>
    <g class="stroked-text" style="fill:none;stroke:#006464;stroke-width:.1524;stroke-opacity:1;stroke-linecap:round;stroke-linejoin:round">
        <path d="m30.474 11.422-.12-.06M30.353 11.362h-.181M30.172 11.362l-.182.06M29.99 11.422l-.12.121M29.87 11.543l-.061.121M29.809 11.664l-.06.242M29.748 11.906v.181M29.748 12.088l.06.241M29.809 12.33l.06.12M29.87 12.45l.12.121M29.99 12.571l.182.06M30.172 12.632h.12M30.293 12.632l.181-.06M30.474 12.571l.06-.06M30.535 12.51v-.422M30.535 12.088h-.242M31.079 12.632v-1.27M31.079 11.362l.726 1.27M31.805 12.632v-1.27M32.41 12.632v-1.27M32.41 11.362h.302M32.712 11.362l.181.06M32.893 11.422l.121.121M33.014 11.543l.06.121M33.075 11.664l.06.242M33.135 11.906v.181M33.135 12.088l-.06.241M33.075 12.33l-.06.12M33.014 12.45l-.12.121M32.893 12.571l-.181.06M32.712 12.632h-.303"/>
    </g>
    <g class="stroked-text" style="fill:none;stroke:#a90000;stroke-width:.1524;stroke-opacity:1;stroke-linecap:round;stroke-linejoin:round">
        <path d="m36.066 10.486.06-.06M36.126 10.425l.121-.06M36.247 10.365h.302M36.55 10.365l.12.06M36.67 10.425l.06.06M36.73 10.486l.061.12M36.791 10.607v.12M36.791 10.728l-.06.181M36.73 10.91l-.725.725M36.005 11.635h.786M37.215 10.365H38M38 10.365l-.423.484M37.577 10.849h.182M37.759 10.849l.12.06M37.88 10.91l.06.06M37.94 10.97l.06.12M38 11.09v.303M38 11.393l-.06.12M37.94 11.514l-.06.06M37.88 11.574l-.121.06M37.759 11.635h-.363M37.396 11.635l-.12-.06M37.275 11.574l-.06-.06"/>
    </g>
    <path d="M34.493 14.592h5.08" style="fill:none;stroke:#840000;stroke-width:.1524;stroke-opacity:1;stroke-linecap:round;stroke-linejoin:round"/>
    <g class="stroked-text" style="fill:none;stroke:#006464;stroke-width:.1524;stroke-opacity:1;stroke-linecap:round;stroke-linejoin:round">
        <path d="m30.958 15.172-.423-.605M30.232 15.172v-1.27M30.232 13.902h.484M30.716 13.902l.121.06M30.837 13.962l.06.06M30.898 14.023l.06.12M30.958 14.144v.181M30.958 14.325l-.06.121M30.898 14.446l-.061.06M30.837 14.507l-.121.06M30.716 14.567h-.484M31.442 15.111l.181.06M31.623 15.172h.303M31.926 15.172l.12-.06M32.047 15.111l.06-.06M32.107 15.05l.06-.12M32.167 14.93v-.121M32.167 14.809l-.06-.121M32.107 14.688l-.06-.06M32.047 14.628l-.121-.06M31.926 14.567l-.242-.06M31.684 14.507l-.121-.06M31.563 14.446l-.06-.06M31.502 14.386l-.06-.121M31.442 14.265v-.121M31.442 14.144l.06-.121M31.502 14.023l.06-.06M31.563 13.962l.12-.06M31.684 13.902h.302M31.986 13.902l.181.06M32.53 13.902h.726M32.893 15.172v-1.27M30.057 13.55h3.193"/>
    </g>
    <g class="stroked-text" style="fill:none;stroke:#a90000;stroke-width:.1524;stroke-opacity:1;stroke-linecap:round;stroke-linejoin:round">
        <path d="m36.066 13.026.06-.06M36.126 12.965l.121-.06M36.247 12.905h.302M36.55 12.905l.12.06M36.67 12.965l.06.06M36.73 13.026l.061.12M36.791 13.147v.12M36.791 13.268l-.06.181M36.73 13.45l-.725.725M36.005 14.175h.786M37.275 13.026l.06-.06M37.336 12.965l.12-.06M37.457 12.905h.302M37.759 12.905l.12.06M37.88 12.965l.06.06M37.94 13.026l.06.12M38 13.147v.12M38 13.268l-.06.181M37.94 13.45l-.725.725M37.215 14.175H38"/>
    </g>
    <path d="M34.493 17.132h5.08" style="fill:none;stroke:#840000;stroke-width:.1524;stroke-opacity:1;stroke-linecap:round;stroke-linejoin:round"/>
    <g class="stroked-text" style="fill:none;stroke:#006464;stroke-width:.1524;stroke-opacity:1;stroke-linecap:round;stroke-linejoin:round">
        <path d="M30.05 16.442h.787M30.837 16.442l-.423.484M30.414 16.926h.181M30.595 16.926l.121.06M30.716 16.986l.06.06M30.777 17.047l.06.12M30.837 17.168v.302M30.837 17.47l-.06.12M30.777 17.59l-.061.061M30.716 17.651l-.12.06M30.595 17.712h-.363M30.232 17.712l-.12-.06M30.111 17.651l-.06-.06M31.2 16.442l.423 1.27M31.623 17.712l.424-1.27M32.349 16.442h.786M33.135 16.442l-.423.484M32.712 16.926h.181M32.893 16.926l.121.06M33.014 16.986l.06.06M33.075 17.047l.06.12M33.135 17.168v.302M33.135 17.47l-.06.12M33.075 17.59l-.06.061M33.014 17.651l-.12.06M32.893 17.712h-.363M32.53 17.712l-.12-.06M32.41 17.651l-.061-.06"/>
    </g>
    <g class="stroked-text" style="fill:none;stroke:#a90000;stroke-width:.1524;stroke-opacity:1;stroke-linecap:round;stroke-linejoin:round">
        <path d="m36.066 15.566.06-.06M36.126 15.505l.121-.06M36.247 15.445h.302M36.55 15.445l.12.06M36.67 15.505l.06.06M36.73 15.566l.061.12M36.791 15.687v.12M36.791 15.808l-.06.181M36.73 15.99l-.725.725M36.005 16.715h.786M38 16.715h-.725M37.638 16.715v-1.27M37.638 15.445l-.121.181M37.517 15.626l-.121.121M37.396 15.747l-.12.06"/>
    </g>
    <path d="M34.493 19.672h5.08" style="fill:none;stroke:#840000;stroke-width:.1524;stroke-opacity:1;stroke-linecap:round;stroke-linejoin:round"/>
    <g class="stroked-text" style="fill:none;stroke:#006464;stroke-width:.1524;stroke-opacity:1;stroke-linecap:round;stroke-linejoin:round">
        <path d="M31.32 19.889h.605M31.2 20.252l.423-1.27M31.623 18.982l.424 1.27M32.349 18.982h.786M33.135 18.982l-.423.484M32.712 19.466h.181M32.893 19.466l.121.06M33.014 19.526l.06.06M33.075 19.587l.06.12M33.135 19.708v.302M33.135 20.01l-.06.12M33.075 20.13l-.06.061M33.014 20.191l-.12.06M32.893 20.252h-.363M32.53 20.252l-.12-.06M32.41 20.191l-.061-.06"/>
    </g>
    <g class="stroked-text" style="fill:none;stroke:#a90000;stroke-width:.1524;stroke-opacity:1;stroke-linecap:round;stroke-linejoin:round">
        <path d="m36.066 18.106.06-.06M36.126 18.045l.121-.06M36.247 17.985h.302M36.55 17.985l.12.06M36.67 18.045l.06.06M36.73 18.106l.061.12M36.791 18.227v.12M36.791 18.348l-.06.181M36.73 18.53l-.725.725M36.005 19.255h.786M37.577 17.985h.121M37.698 17.985l.121.06M37.82 18.045l.06.06M37.88 18.106l.06.12M37.94 18.227l.06.242M38 18.469v.302M38 18.771l-.06.242M37.94 19.013l-.06.12M37.88 19.134l-.06.06M37.82 19.194l-.122.06M37.698 19.255h-.12M37.577 19.255l-.12-.06M37.457 19.194l-.061-.06M37.396 19.134l-.06-.121M37.336 19.013l-.06-.242M37.275 18.771v-.302M37.275 18.469l.06-.242M37.336 18.227l.06-.121M37.396 18.106l.06-.06M37.457 18.045l.12-.06"/>
    </g>
    <path d="M34.493 22.212h5.08" style="fill:none;stroke:#840000;stroke-width:.1524;stroke-opacity:1;stroke-linecap:round;stroke-linejoin:round"/>
    <g class="stroked-text" style="fill:none;stroke:#006464;stroke-width:.1524;stroke-opacity:1;stroke-linecap:round;stroke-linejoin:round">
        <path d="M31.32 22.429h.605M31.2 22.792l.423-1.27M31.623 21.522l.424 1.27M32.41 21.643l.06-.06M32.47 21.582l.12-.06M32.59 21.522h.303M32.893 21.522l.121.06M33.014 21.582l.06.06M33.075 21.643l.06.12M33.135 21.764v.12M33.135 21.885l-.06.181M33.075 22.066l-.726.726M32.349 22.792h.786"/>
    </g>
    <g class="stroked-text" style="fill:none;stroke:#a90000;stroke-width:.1524;stroke-opacity:1;stroke-linecap:round;stroke-linejoin:round">
        <path d="M36.791 21.795h-.725M36.428 21.795v-1.27M36.428 20.525l-.12.181M36.308 20.706l-.121.121M36.187 20.827l-.121.06M37.396 21.795h.242M37.638 21.795l.12-.06M37.759 21.734l.06-.06M37.82 21.674l.12-.182M37.94 21.492l.06-.242M38 21.25v-.483M38 20.767l-.06-.121M37.94 20.646l-.06-.06M37.88 20.585l-.121-.06M37.759 20.525h-.242M37.517 20.525l-.121.06M37.396 20.585l-.06.06M37.336 20.646l-.06.12M37.275 20.767v.302M37.275 21.07l.06.12M37.336 21.19l.06.06M37.396 21.25l.121.061M37.517 21.311h.242M37.759 21.311l.12-.06M37.88 21.25l.06-.06M37.94 21.19l.06-.12"/>
    </g>
    <path d="M34.493 24.752h5.08" style="fill:none;stroke:#840000;stroke-width:.1524;stroke-opacity:1;stroke-linecap:round;stroke-linejoin:round"/>
    <g class="stroked-text" style="fill:none;stroke:#006464;stroke-width:.1524;stroke-opacity:1;stroke-linecap:round;stroke-linejoin:round">
        <path d="M31.32 24.969h.605M31.2 25.332l.423-1.27M31.623 24.062l.424 1.27M33.135 25.332h-.726M32.772 25.332v-1.27M32.772 24.062l-.12.181M32.651 24.243l-.12.121M32.53 24.364l-.12.06"/>
    </g>
    <g class="stroked-text" style="fill:none;stroke:#a90000;stroke-width:.1524;stroke-opacity:1;stroke-linecap:round;stroke-linejoin:round">
        <path d="M36.791 24.335h-.725M36.428 24.335v-1.27M36.428 23.065l-.12.181M36.308 23.246l-.121.121M36.187 23.367l-.121.06M37.517 23.61l-.121-.061M37.396 23.549l-.06-.06M37.336 23.488l-.06-.12M37.275 23.367v-.06M37.275 23.307l.06-.121M37.336 23.186l.06-.06M37.396 23.125l.121-.06M37.517 23.065h.242M37.759 23.065l.12.06M37.88 23.125l.06.06M37.94 23.186l.06.12M38 23.307v.06M38 23.367l-.06.121M37.94 23.488l-.06.06M37.88 23.549l-.121.06M37.759 23.61h-.242M37.517 23.61l-.121.06M37.396 23.67l-.06.06M37.336 23.73l-.06.121M37.275 23.851v.242M37.275 24.093l.06.12M37.336 24.214l.06.06M37.396 24.274l.121.06M37.517 24.335h.242M37.759 24.335l.12-.06M37.88 24.274l.06-.06M37.94 24.214l.06-.121M38 24.093v-.242M38 23.851l-.06-.12M37.94 23.73l-.06-.06M37.88 23.67l-.121-.06"/>
    </g>
    <path d="M34.493 27.292h5.08" style="fill:none;stroke:#840000;stroke-width:.1524;stroke-opacity:1;stroke-linecap:round;stroke-linejoin:round"/>
    <g class="stroked-text" style="fill:none;stroke:#006464;stroke-width:.1524;stroke-opacity:1;stroke-linecap:round;stroke-linejoin:round">
        <path d="M31.32 27.509h.605M31.2 27.872l.423-1.27M31.623 26.602l.424 1.27M32.712 26.602h.12M32.833 26.602l.12.06M32.954 26.662l.06.06M33.014 26.723l.06.12M33.075 26.844l.06.242M33.135 27.086v.302M33.135 27.388l-.06.242M33.075 27.63l-.06.12M33.014 27.75l-.06.061M32.954 27.811l-.121.06M32.833 27.872h-.121M32.712 27.872l-.121-.06M32.59 27.811l-.06-.06M32.53 27.75l-.06-.12M32.47 27.63l-.06-.242M32.41 27.388v-.302M32.41 27.086l.06-.242M32.47 26.844l.06-.121M32.53 26.723l.06-.06M32.59 26.662l.122-.06"/>
    </g>
    <g class="stroked-text" style="fill:none;stroke:#a90000;stroke-width:.1524;stroke-opacity:1;stroke-linecap:round;stroke-linejoin:round">
        <path d="M36.791 26.875h-.725M36.428 26.875v-1.27M36.428 25.605l-.12.181M36.308 25.786l-.121.121M36.187 25.907l-.121.06M37.215 25.605h.846M38.061 25.605l-.544 1.27"/>
    </g>
    <path d="M34.493 29.832h5.08" style="fill:none;stroke:#840000;stroke-width:.1524;stroke-opacity:1;stroke-linecap:round;stroke-linejoin:round"/>
    <g class="stroked-text" style="fill:none;stroke:#006464;stroke-width:.1524;stroke-opacity:1;stroke-linecap:round;stroke-linejoin:round">
        <path d="m30.837 30.29-.06.061M30.777 30.351l-.182.06M30.595 30.412h-.12M30.474 30.412l-.181-.06M30.293 30.351l-.121-.12M30.172 30.23l-.06-.12M30.111 30.11l-.06-.242M30.05 29.868v-.182M30.05 29.686l.061-.242M30.111 29.444l.06-.12M30.172 29.323l.12-.12M30.293 29.202l.181-.06M30.474 29.142h.121M30.595 29.142l.181.06M30.777 29.202l.06.06M31.986 30.412h-.605M31.381 30.412v-1.27M32.41 30.412v-1.27M33.135 30.412l-.544-.726M33.135 29.142l-.726.726"/>
    </g>
    <g class="stroked-text" style="fill:none;stroke:#a90000;stroke-width:.1524;stroke-opacity:1;stroke-linecap:round;stroke-linejoin:round">
        <path d="M36.791 29.415h-.725M36.428 29.415v-1.27M36.428 28.145l-.12.181M36.308 28.326l-.121.121M36.187 28.447l-.121.06M37.88 28.145h-.242M37.638 28.145l-.121.06M37.517 28.205l-.06.06M37.457 28.266l-.121.181M37.336 28.447l-.06.242M37.275 28.69v.483M37.275 29.173l.06.12M37.336 29.294l.06.06M37.396 29.354l.121.06M37.517 29.415h.242M37.759 29.415l.12-.06M37.88 29.354l.06-.06M37.94 29.294l.06-.121M38 29.173v-.302M38 28.87l-.06-.12M37.94 28.75l-.06-.06M37.88 28.69l-.121-.061M37.759 28.629h-.242M37.517 28.629l-.121.06M37.396 28.69l-.06.06M37.336 28.75l-.06.12"/>
    </g>
    <path d="M34.493 32.372h5.08" style="fill:none;stroke:#840000;stroke-width:.1524;stroke-opacity:1;stroke-linecap:round;stroke-linejoin:round"/>
    <g class="stroked-text" style="fill:none;stroke:#006464;stroke-width:.1524;stroke-opacity:1;stroke-linecap:round;stroke-linejoin:round">
        <path d="M29.083 32.952v-1.27M29.083 31.682l.424.907M29.507 32.589l.423-.907M29.93 31.682v1.27M30.535 32.952v-1.27M31.079 32.891l.181.06M31.26 32.952h.303M31.563 32.952l.12-.06M31.684 32.891l.06-.06M31.744 32.83l.06-.12M31.805 32.71v-.121M31.805 32.589l-.06-.121M31.744 32.468l-.06-.06M31.684 32.408l-.121-.06M31.563 32.347l-.242-.06M31.32 32.287l-.12-.06M31.2 32.226l-.06-.06M31.14 32.166l-.061-.121M31.079 32.045v-.121M31.079 31.924l.06-.121M31.14 31.803l.06-.06M31.2 31.742l.12-.06M31.32 31.682h.303M31.623 31.682l.182.06M32.59 31.682h.243M32.833 31.682l.12.06M32.954 31.742l.12.121M33.075 31.863l.06.242M33.135 32.105v.424M33.135 32.529l-.06.241M33.075 32.77l-.121.121M32.954 32.891l-.121.06M32.833 32.952h-.242M32.59 32.952l-.12-.06M32.47 32.891l-.121-.12M32.349 32.77l-.06-.242M32.288 32.529v-.424M32.288 32.105l.06-.242M32.349 31.863l.12-.12M32.47 31.742l.12-.06"/>
    </g>
    <g class="stroked-text" style="fill:none;stroke:#a90000;stroke-width:.1524;stroke-opacity:1;stroke-linecap:round;stroke-linejoin:round">
        <path d="M36.791 31.955h-.725M36.428 31.955v-1.27M36.428 30.685l-.12.181M36.308 30.866l-.121.121M36.187 30.987l-.121.06M37.94 30.685h-.604M37.336 30.685l-.06.605M37.275 31.29l.06-.06M37.336 31.23l.12-.061M37.457 31.169h.302M37.759 31.169l.12.06M37.88 31.23l.06.06M37.94 31.29l.06.12M38 31.41v.303M38 31.713l-.06.12M37.94 31.834l-.06.06M37.88 31.894l-.121.06M37.759 31.955h-.303M37.457 31.955l-.121-.06M37.336 31.894l-.06-.06"/>
    </g>
    <path d="M34.493 34.912h5.08" style="fill:none;stroke:#840000;stroke-width:.1524;stroke-opacity:1;stroke-linecap:round;stroke-linejoin:round"/>
    <g class="stroked-text" style="fill:none;stroke:#006464;stroke-width:.1524;stroke-opacity:1;stroke-linecap:round;stroke-linejoin:round">
        <path d="M29.083 35.492v-1.27M29.083 34.222l.424.907M29.507 35.129l.423-.907M29.93 34.222v1.27M30.776 34.222h.242M31.018 34.222l.121.06M31.14 34.282l.12.121M31.26 34.403l.06.242M31.32 34.645v.423M31.32 35.069l-.06.241M31.26 35.31l-.12.121M31.14 35.431l-.122.06M31.018 35.492h-.242M30.776 35.492l-.12-.06M30.656 35.431l-.121-.12M30.535 35.31l-.06-.242M30.474 35.069v-.424M30.474 34.645l.06-.242M30.535 34.403l.12-.12M30.656 34.282l.12-.06M31.805 35.431l.181.06M31.986 35.492h.302M32.288 35.492l.121-.06M32.41 35.431l.06-.06M32.47 35.37l.06-.12M32.53 35.25v-.121M32.53 35.129l-.06-.121M32.47 35.008l-.06-.06M32.41 34.948l-.122-.06M32.288 34.887l-.241-.06M32.047 34.827l-.121-.06M31.926 34.766l-.061-.06M31.865 34.706l-.06-.121M31.805 34.585v-.121M31.805 34.464l.06-.121M31.865 34.343l.06-.06M31.926 34.282l.12-.06M32.047 34.222h.302M32.349 34.222l.181.06M33.075 35.492v-1.27"/>
    </g>
    <g class="stroked-text" style="fill:none;stroke:#a90000;stroke-width:.1524;stroke-opacity:1;stroke-linecap:round;stroke-linejoin:round">
        <path d="M36.791 34.495h-.725M36.428 34.495v-1.27M36.428 33.225l-.12.181M36.308 33.406l-.121.121M36.187 33.527l-.121.06M37.88 33.648v.847M37.577 33.164l-.302.907M37.275 34.072h.786"/>
    </g>
    <path d="M34.493 37.452h5.08" style="fill:none;stroke:#840000;stroke-width:.1524;stroke-opacity:1;stroke-linecap:round;stroke-linejoin:round"/>
    <g class="stroked-text" style="fill:none;stroke:#006464;stroke-width:.1524;stroke-opacity:1;stroke-linecap:round;stroke-linejoin:round">
        <path d="M29.99 38.032v-1.27M29.99 36.762h.303M30.293 36.762l.181.06M30.474 36.822l.121.121M30.595 36.943l.06.121M30.656 37.064l.06.242M30.716 37.306v.181M30.716 37.488l-.06.241M30.656 37.73l-.06.12M30.595 37.85l-.12.121M30.474 37.971l-.181.06M30.293 38.032h-.303M31.926 38.032H31.2M31.563 38.032v-1.27M31.563 36.762l-.121.181M31.442 36.943l-.121.121M31.32 37.064l-.12.06M32.712 36.762h.12M32.833 36.762l.12.06M32.954 36.822l.06.06M33.014 36.883l.06.12M33.075 37.004l.06.242M33.135 37.246v.302M33.135 37.548l-.06.242M33.075 37.79l-.06.12M33.014 37.91l-.06.061M32.954 37.971l-.121.06M32.833 38.032h-.121M32.712 38.032l-.121-.06M32.59 37.971l-.06-.06M32.53 37.91l-.06-.12M32.47 37.79l-.06-.242M32.41 37.548v-.302M32.41 37.246l.06-.242M32.47 37.004l.06-.121M32.53 36.883l.06-.06M32.59 36.822l.122-.06"/>
    </g>
    <g class="stroked-text" style="fill:none;stroke:#a90000;stroke-width:.1524;stroke-opacity:1;stroke-linecap:round;stroke-linejoin:round">
        <path d="M36.791 37.035h-.725M36.428 37.035v-1.27M36.428 35.765l-.12.181M36.308 35.946l-.121.121M36.187 36.067l-.121.06M37.215 35.765H38M38 35.765l-.423.484M37.577 36.249h.182M37.759 36.249l.12.06M37.88 36.31l.06.06M37.94 36.37l.06.12M38 36.49v.303M38 36.793l-.06.12M37.94 36.914l-.06.06M37.88 36.974l-.121.06M37.759 37.035h-.363M37.396 37.035l-.12-.06M37.275 36.974l-.06-.06"/>
    </g>
    <g style="fill:none;stroke:#006464;stroke-width:.1524;stroke-opacity:1;stroke-linecap:round;stroke-linejoin:round">
        <g class="stroked-text">
            <path d="M-.907-19.232v1.028M-.907-18.204l.06.12M-.847-18.083l.06.06M-.786-18.023l.12.06M-.665-17.962h.242M-.423-17.962l.12-.06M-.302-18.023l.06-.06M-.242-18.083l.06-.121M-.181-18.204v-1.028M.605-18.083l.06.06M.665-18.023l-.06.06M.605-17.962l-.06-.06M.544-18.023l.06-.06M.605-18.083v.12M.363-19.172l.12-.06M.484-19.232h.302M.786-19.232l.121.06M.907-19.172l.06.121M.968-19.05v.12M.968-18.93l-.06.121M.907-18.809l-.06.06M.847-18.749l-.121.06M.726-18.688l-.06.06M.665-18.628l-.06.121M.605-18.507v.06"/>
        </g>
        <g class="stroked-text">
            <path d="M-8.013 19.122v-1.27M-8.013 17.852h.484M-7.53 17.852l.122.06M-7.408 17.912l.06.06M-7.348 17.973l.06.12M-7.287 18.093v.182M-7.287 18.275l-.06.12M-7.348 18.396l-.06.06M-7.408 18.456l-.121.06M-7.53 18.517h-.483M-6.743 19.122v-.847M-6.743 18.517l.06-.121M-6.682 18.396l.06-.06M-6.622 18.335l.12-.06M-6.501 18.275h.12M-5.775 19.122l-.121-.06M-5.896 19.061l-.06-.06M-5.957 19l-.06-.12M-6.017 18.88v-.363M-6.017 18.517l.06-.121M-5.957 18.396l.06-.06M-5.896 18.335l.12-.06M-5.775 18.275h.181M-5.594 18.275l.121.06M-5.473 18.335l.06.06M-5.412 18.396l.06.12M-5.352 18.517v.363M-5.352 18.88l-.06.12M-5.412 19l-.061.061M-5.473 19.061l-.12.06M-5.594 19.122h-.181M-4.808 19.122v-1.27M-4.808 17.852l.424.907M-4.384 18.759l.423-.907M-3.961 17.852v1.27M-3.356 19.122v-.847M-3.356 17.852l-.06.06M-3.417 17.912l.06.06M-3.356 17.973l.06-.061M-3.296 17.912l-.06-.06M-3.356 17.852v.12M-2.207 19.061l-.121.06M-2.328 19.122h-.242M-2.57 19.122l-.121-.06M-2.691 19.061l-.06-.06M-2.752 19l-.06-.12M-2.812 18.88v-.363M-2.812 18.517l.06-.121M-2.752 18.396l.06-.06M-2.691 18.335l.12-.06M-2.57 18.275h.242M-2.328 18.275l.12.06M-1.663 19.122v-.847M-1.663 18.517l.06-.121M-1.602 18.396l.06-.06M-1.542 18.335l.12-.06M-1.421 18.275h.12M-.695 19.122l-.121-.06M-.816 19.061l-.06-.06M-.877 19l-.06-.12M-.937 18.88v-.363M-.937 18.517l.06-.121M-.877 18.396l.06-.06M-.816 18.335l.12-.06M-.695 18.275h.181M-.514 18.275l.121.06M-.393 18.335l.06.06M-.332 18.396l.06.12M-.272 18.517v.363M-.272 18.88l-.06.12M-.332 19l-.061.061M-.393 19.061l-.12.06M-.514 19.122h-.181M-.03 19.243h.967M1.965 19.122l-.423-.605M1.24 19.122v-1.27M1.24 17.852h.484M1.724 17.852l.12.06M1.845 17.912l.06.06M1.905 17.973l.06.12M1.965 18.093v.182M1.965 18.275l-.06.12M1.905 18.396l-.06.06M1.845 18.456l-.121.06M1.724 18.517H1.24M2.51 19.122v-1.27M2.51 17.852h.484M2.994 17.852l.12.06M3.115 17.912l.06.06M3.175 17.973l.06.12M3.235 18.093v.182M3.235 18.275l-.06.12M3.175 18.396l-.06.06M3.115 18.456l-.122.06M2.994 18.517H2.51M3.72 17.973l.06-.061M3.78 17.912l.12-.06M3.9 17.852h.303M4.203 17.852l.121.06M4.324 17.912l.06.06M4.385 17.973l.06.12M4.445 18.093v.121M4.445 18.214l-.06.182M4.385 18.396l-.726.726M3.659 19.122h.786M5.231 17.852h.121M5.352 17.852l.121.06M5.473 17.912l.06.06M5.534 17.973l.06.12M5.594 18.093l.06.242M5.655 18.335v.303M5.655 18.638l-.061.242M5.594 18.88l-.06.12M5.534 19l-.061.061M5.473 19.061l-.12.06M5.352 19.122h-.12M5.231 19.122l-.12-.06M5.11 19.061l-.06-.06M5.05 19l-.06-.12M4.99 18.88l-.061-.242M4.929 18.638v-.303M4.929 18.335l.06-.242M4.99 18.093l.06-.12M5.05 17.973l.06-.061M5.11 17.912l.121-.06M6.743 18.275v.847M6.44 17.791l-.302.907M6.138 18.698h.786M7.65 17.852h.121M7.771 17.852l.121.06M7.892 17.912l.06.06M7.953 17.973l.06.12M8.013 18.093l.06.242M8.073 18.335v.303M8.073 18.638l-.06.242M8.013 18.88l-.06.12M7.953 19l-.061.061M7.892 19.061l-.12.06M7.771 19.122h-.12M7.65 19.122l-.12-.06M7.53 19.061l-.061-.06M7.469 19l-.06-.12M7.408 18.88l-.06-.242M7.348 18.638v-.303M7.348 18.335l.06-.242M7.408 18.093l.06-.12M7.469 17.973l.06-.061M7.53 17.912l.12-.06"/>
        </g>
    </g>
</svg>
