<?xml version="1.0" standalone="no"?>
 <!DOCTYPE svg PUBLIC "-//W3C//DTD SVG 1.1//EN" 
 "http://www.w3.org/Graphics/SVG/1.1/DTD/svg11.dtd"> 
<svg
  xmlns:svg="http://www.w3.org/2000/svg"
  xmlns="http://www.w3.org/2000/svg"
  xmlns:xlink="http://www.w3.org/1999/xlink"
  version="1.1"
  width="43.5864mm" height="48.6664mm" viewBox="0.0000 0.0000 43.5864 48.6664">
<title>SVG Image created as ProMicro_ATmega32U4_unit1.svg date 2025/04/10 11:36:08 </title>
  <desc>Image generated by Eeschema-SVG </desc>
<g style="fill:#000000; fill-opacity:1.0000;stroke:#000000; stroke-opacity:1.0000;
stroke-linecap:round; stroke-linejoin:round;"
 transform="translate(0 0) scale(1 1)">
</g>
<g style="fill:#FFFFC2; fill-opacity:1.0000; stroke:none;">
<rect x="9.093200" y="7.823200" width="25.400000" height="33.020000" rx="0.000000" />
</g>
<g style="fill:none; 
stroke:#840000; stroke-width:0.1524; stroke-opacity:1; 
stroke-linecap:round; stroke-linejoin:round;">
<rect x="9.093200" y="7.823200" width="25.400000" height="33.020000" rx="0.000000" />
<path d="M9.0932 10.3632
L4.0132 10.3632
" />
</g>
<g style="fill:none; 
stroke:#006464; stroke-width:0.1524; stroke-opacity:1; 
stroke-linecap:round; stroke-linejoin:round;">
<text x="10.1092" y="10.9982"
textLength="7.3998" font-size="1.6933" lengthAdjust="spacingAndGlyphs"
text-anchor="start" opacity="0" stroke-opacity="0">TX0/D3</text>
<g class="stroked-text"><desc>TX0/D3</desc>
<path d="M10.3303 9.6727
L11.0560 9.6727
" />
<path d="M10.6932 10.9427
L10.6932 9.6727
" />
<path d="M11.3584 9.6727
L12.2050 10.9427
" />
<path d="M12.2050 9.6727
L11.3584 10.9427
" />
<path d="M12.9307 9.6727
L13.0517 9.6727
" />
<path d="M13.0517 9.6727
L13.1726 9.7332
" />
<path d="M13.1726 9.7332
L13.2331 9.7937
" />
<path d="M13.2331 9.7937
L13.2936 9.9146
" />
<path d="M13.2936 9.9146
L13.3541 10.1565
" />
<path d="M13.3541 10.1565
L13.3541 10.4589
" />
<path d="M13.3541 10.4589
L13.2936 10.7008
" />
<path d="M13.2936 10.7008
L13.2331 10.8218
" />
<path d="M13.2331 10.8218
L13.1726 10.8823
" />
<path d="M13.1726 10.8823
L13.0517 10.9427
" />
<path d="M13.0517 10.9427
L12.9307 10.9427
" />
<path d="M12.9307 10.9427
L12.8098 10.8823
" />
<path d="M12.8098 10.8823
L12.7493 10.8218
" />
<path d="M12.7493 10.8218
L12.6888 10.7008
" />
<path d="M12.6888 10.7008
L12.6284 10.4589
" />
<path d="M12.6284 10.4589
L12.6284 10.1565
" />
<path d="M12.6284 10.1565
L12.6888 9.9146
" />
<path d="M12.6888 9.9146
L12.7493 9.7937
" />
<path d="M12.7493 9.7937
L12.8098 9.7332
" />
<path d="M12.8098 9.7332
L12.9307 9.6727
" />
<path d="M14.8055 9.6123
L13.7169 11.2451
" />
<path d="M15.2288 10.9427
L15.2288 9.6727
" />
<path d="M15.2288 9.6727
L15.5312 9.6727
" />
<path d="M15.5312 9.6727
L15.7126 9.7332
" />
<path d="M15.7126 9.7332
L15.8336 9.8542
" />
<path d="M15.8336 9.8542
L15.8941 9.9751
" />
<path d="M15.8941 9.9751
L15.9545 10.2170
" />
<path d="M15.9545 10.2170
L15.9545 10.3984
" />
<path d="M15.9545 10.3984
L15.8941 10.6403
" />
<path d="M15.8941 10.6403
L15.8336 10.7613
" />
<path d="M15.8336 10.7613
L15.7126 10.8823
" />
<path d="M15.7126 10.8823
L15.5312 10.9427
" />
<path d="M15.5312 10.9427
L15.2288 10.9427
" />
<path d="M16.3779 9.6727
L17.1641 9.6727
" />
<path d="M17.1641 9.6727
L16.7407 10.1565
" />
<path d="M16.7407 10.1565
L16.9222 10.1565
" />
<path d="M16.9222 10.1565
L17.0431 10.2170
" />
<path d="M17.0431 10.2170
L17.1036 10.2775
" />
<path d="M17.1036 10.2775
L17.1641 10.3984
" />
<path d="M17.1641 10.3984
L17.1641 10.7008
" />
<path d="M17.1641 10.7008
L17.1036 10.8218
" />
<path d="M17.1036 10.8218
L17.0431 10.8823
" />
<path d="M17.0431 10.8823
L16.9222 10.9427
" />
<path d="M16.9222 10.9427
L16.5593 10.9427
" />
<path d="M16.5593 10.9427
L16.4384 10.8823
" />
<path d="M16.4384 10.8823
L16.3779 10.8218
" />
</g></g>
<g style="fill:none; 
stroke:#A90000; stroke-width:0.1524; stroke-opacity:1; 
stroke-linecap:round; stroke-linejoin:round;">
<text x="6.5532" y="10.1092"
textLength="1.4127" font-size="1.6933" lengthAdjust="spacingAndGlyphs"
text-anchor="middle" opacity="0" stroke-opacity="0">1</text>
<g class="stroked-text"><desc>1</desc>
<path d="M6.9161 9.9457
L6.1904 9.9457
" />
<path d="M6.5532 9.9457
L6.5532 8.6757
" />
<path d="M6.5532 8.6757
L6.4323 8.8572
" />
<path d="M6.4323 8.8572
L6.3113 8.9781
" />
<path d="M6.3113 8.9781
L6.1904 9.0386
" />
</g></g>
<g style="fill:none; 
stroke:#840000; stroke-width:0.1524; stroke-opacity:1; 
stroke-linecap:round; stroke-linejoin:round;">
<path d="M9.0932 12.9032
L4.0132 12.9032
" />
</g>
<g style="fill:none; 
stroke:#006464; stroke-width:0.1524; stroke-opacity:1; 
stroke-linecap:round; stroke-linejoin:round;">
<text x="10.1092" y="13.5382"
textLength="7.7022" font-size="1.6933" lengthAdjust="spacingAndGlyphs"
text-anchor="start" opacity="0" stroke-opacity="0">RX1/D2</text>
<g class="stroked-text"><desc>RX1/D2</desc>
<path d="M11.2374 13.4827
L10.8141 12.8780
" />
<path d="M10.5117 13.4827
L10.5117 12.2127
" />
<path d="M10.5117 12.2127
L10.9955 12.2127
" />
<path d="M10.9955 12.2127
L11.1165 12.2732
" />
<path d="M11.1165 12.2732
L11.1770 12.3337
" />
<path d="M11.1770 12.3337
L11.2374 12.4546
" />
<path d="M11.2374 12.4546
L11.2374 12.6361
" />
<path d="M11.2374 12.6361
L11.1770 12.7570
" />
<path d="M11.1770 12.7570
L11.1165 12.8175
" />
<path d="M11.1165 12.8175
L10.9955 12.8780
" />
<path d="M10.9955 12.8780
L10.5117 12.8780
" />
<path d="M11.6608 12.2127
L12.5074 13.4827
" />
<path d="M12.5074 12.2127
L11.6608 13.4827
" />
<path d="M13.6565 13.4827
L12.9308 13.4827
" />
<path d="M13.2936 13.4827
L13.2936 12.2127
" />
<path d="M13.2936 12.2127
L13.1727 12.3942
" />
<path d="M13.1727 12.3942
L13.0517 12.5151
" />
<path d="M13.0517 12.5151
L12.9308 12.5756
" />
<path d="M15.1079 12.1523
L14.0193 13.7851
" />
<path d="M15.5312 13.4827
L15.5312 12.2127
" />
<path d="M15.5312 12.2127
L15.8336 12.2127
" />
<path d="M15.8336 12.2127
L16.0150 12.2732
" />
<path d="M16.0150 12.2732
L16.1360 12.3942
" />
<path d="M16.1360 12.3942
L16.1965 12.5151
" />
<path d="M16.1965 12.5151
L16.2569 12.7570
" />
<path d="M16.2569 12.7570
L16.2569 12.9384
" />
<path d="M16.2569 12.9384
L16.1965 13.1803
" />
<path d="M16.1965 13.1803
L16.1360 13.3013
" />
<path d="M16.1360 13.3013
L16.0150 13.4223
" />
<path d="M16.0150 13.4223
L15.8336 13.4827
" />
<path d="M15.8336 13.4827
L15.5312 13.4827
" />
<path d="M16.7408 12.3337
L16.8012 12.2732
" />
<path d="M16.8012 12.2732
L16.9222 12.2127
" />
<path d="M16.9222 12.2127
L17.2246 12.2127
" />
<path d="M17.2246 12.2127
L17.3455 12.2732
" />
<path d="M17.3455 12.2732
L17.4060 12.3337
" />
<path d="M17.4060 12.3337
L17.4665 12.4546
" />
<path d="M17.4665 12.4546
L17.4665 12.5756
" />
<path d="M17.4665 12.5756
L17.4060 12.7570
" />
<path d="M17.4060 12.7570
L16.6803 13.4827
" />
<path d="M16.6803 13.4827
L17.4665 13.4827
" />
</g></g>
<g style="fill:none; 
stroke:#A90000; stroke-width:0.1524; stroke-opacity:1; 
stroke-linecap:round; stroke-linejoin:round;">
<text x="6.5532" y="12.6492"
textLength="1.4127" font-size="1.6933" lengthAdjust="spacingAndGlyphs"
text-anchor="middle" opacity="0" stroke-opacity="0">2</text>
<g class="stroked-text"><desc>2</desc>
<path d="M6.1904 11.3367
L6.2508 11.2762
" />
<path d="M6.2508 11.2762
L6.3718 11.2157
" />
<path d="M6.3718 11.2157
L6.6742 11.2157
" />
<path d="M6.6742 11.2157
L6.7951 11.2762
" />
<path d="M6.7951 11.2762
L6.8556 11.3367
" />
<path d="M6.8556 11.3367
L6.9161 11.4576
" />
<path d="M6.9161 11.4576
L6.9161 11.5786
" />
<path d="M6.9161 11.5786
L6.8556 11.7600
" />
<path d="M6.8556 11.7600
L6.1299 12.4857
" />
<path d="M6.1299 12.4857
L6.9161 12.4857
" />
</g></g>
<g style="fill:none; 
stroke:#840000; stroke-width:0.1524; stroke-opacity:1; 
stroke-linecap:round; stroke-linejoin:round;">
<path d="M9.0932 15.4432
L4.0132 15.4432
" />
</g>
<g style="fill:none; 
stroke:#006464; stroke-width:0.1524; stroke-opacity:1; 
stroke-linecap:round; stroke-linejoin:round;">
<text x="10.1092" y="16.0782"
textLength="4.0737" font-size="1.6933" lengthAdjust="spacingAndGlyphs"
text-anchor="start" opacity="0" stroke-opacity="0">GND</text>
<g class="stroked-text"><desc>GND</desc>
<path d="M11.1770 14.8132
L11.0560 14.7527
" />
<path d="M11.0560 14.7527
L10.8746 14.7527
" />
<path d="M10.8746 14.7527
L10.6932 14.8132
" />
<path d="M10.6932 14.8132
L10.5722 14.9342
" />
<path d="M10.5722 14.9342
L10.5117 15.0551
" />
<path d="M10.5117 15.0551
L10.4513 15.2970
" />
<path d="M10.4513 15.2970
L10.4513 15.4784
" />
<path d="M10.4513 15.4784
L10.5117 15.7203
" />
<path d="M10.5117 15.7203
L10.5722 15.8413
" />
<path d="M10.5722 15.8413
L10.6932 15.9623
" />
<path d="M10.6932 15.9623
L10.8746 16.0227
" />
<path d="M10.8746 16.0227
L10.9955 16.0227
" />
<path d="M10.9955 16.0227
L11.1770 15.9623
" />
<path d="M11.1770 15.9623
L11.2374 15.9018
" />
<path d="M11.2374 15.9018
L11.2374 15.4784
" />
<path d="M11.2374 15.4784
L10.9955 15.4784
" />
<path d="M11.7817 16.0227
L11.7817 14.7527
" />
<path d="M11.7817 14.7527
L12.5074 16.0227
" />
<path d="M12.5074 16.0227
L12.5074 14.7527
" />
<path d="M13.1122 16.0227
L13.1122 14.7527
" />
<path d="M13.1122 14.7527
L13.4146 14.7527
" />
<path d="M13.4146 14.7527
L13.5960 14.8132
" />
<path d="M13.5960 14.8132
L13.7170 14.9342
" />
<path d="M13.7170 14.9342
L13.7775 15.0551
" />
<path d="M13.7775 15.0551
L13.8379 15.2970
" />
<path d="M13.8379 15.2970
L13.8379 15.4784
" />
<path d="M13.8379 15.4784
L13.7775 15.7203
" />
<path d="M13.7775 15.7203
L13.7170 15.8413
" />
<path d="M13.7170 15.8413
L13.5960 15.9623
" />
<path d="M13.5960 15.9623
L13.4146 16.0227
" />
<path d="M13.4146 16.0227
L13.1122 16.0227
" />
</g></g>
<g style="fill:none; 
stroke:#A90000; stroke-width:0.1524; stroke-opacity:1; 
stroke-linecap:round; stroke-linejoin:round;">
<text x="6.5532" y="15.1892"
textLength="1.4127" font-size="1.6933" lengthAdjust="spacingAndGlyphs"
text-anchor="middle" opacity="0" stroke-opacity="0">3</text>
<g class="stroked-text"><desc>3</desc>
<path d="M6.1299 13.7557
L6.9161 13.7557
" />
<path d="M6.9161 13.7557
L6.4927 14.2395
" />
<path d="M6.4927 14.2395
L6.6742 14.2395
" />
<path d="M6.6742 14.2395
L6.7951 14.3000
" />
<path d="M6.7951 14.3000
L6.8556 14.3605
" />
<path d="M6.8556 14.3605
L6.9161 14.4814
" />
<path d="M6.9161 14.4814
L6.9161 14.7838
" />
<path d="M6.9161 14.7838
L6.8556 14.9048
" />
<path d="M6.8556 14.9048
L6.7951 14.9653
" />
<path d="M6.7951 14.9653
L6.6742 15.0257
" />
<path d="M6.6742 15.0257
L6.3113 15.0257
" />
<path d="M6.3113 15.0257
L6.1904 14.9653
" />
<path d="M6.1904 14.9653
L6.1299 14.9048
" />
</g></g>
<g style="fill:none; 
stroke:#840000; stroke-width:0.1524; stroke-opacity:1; 
stroke-linecap:round; stroke-linejoin:round;">
<path d="M9.0932 17.9832
L4.0132 17.9832
" />
</g>
<g style="fill:none; 
stroke:#006464; stroke-width:0.1524; stroke-opacity:1; 
stroke-linecap:round; stroke-linejoin:round;">
<text x="10.1092" y="18.6182"
textLength="4.0737" font-size="1.6933" lengthAdjust="spacingAndGlyphs"
text-anchor="start" opacity="0" stroke-opacity="0">GND</text>
<g class="stroked-text"><desc>GND</desc>
<path d="M11.1770 17.3532
L11.0560 17.2927
" />
<path d="M11.0560 17.2927
L10.8746 17.2927
" />
<path d="M10.8746 17.2927
L10.6932 17.3532
" />
<path d="M10.6932 17.3532
L10.5722 17.4742
" />
<path d="M10.5722 17.4742
L10.5117 17.5951
" />
<path d="M10.5117 17.5951
L10.4513 17.8370
" />
<path d="M10.4513 17.8370
L10.4513 18.0184
" />
<path d="M10.4513 18.0184
L10.5117 18.2603
" />
<path d="M10.5117 18.2603
L10.5722 18.3813
" />
<path d="M10.5722 18.3813
L10.6932 18.5023
" />
<path d="M10.6932 18.5023
L10.8746 18.5627
" />
<path d="M10.8746 18.5627
L10.9955 18.5627
" />
<path d="M10.9955 18.5627
L11.1770 18.5023
" />
<path d="M11.1770 18.5023
L11.2374 18.4418
" />
<path d="M11.2374 18.4418
L11.2374 18.0184
" />
<path d="M11.2374 18.0184
L10.9955 18.0184
" />
<path d="M11.7817 18.5627
L11.7817 17.2927
" />
<path d="M11.7817 17.2927
L12.5074 18.5627
" />
<path d="M12.5074 18.5627
L12.5074 17.2927
" />
<path d="M13.1122 18.5627
L13.1122 17.2927
" />
<path d="M13.1122 17.2927
L13.4146 17.2927
" />
<path d="M13.4146 17.2927
L13.5960 17.3532
" />
<path d="M13.5960 17.3532
L13.7170 17.4742
" />
<path d="M13.7170 17.4742
L13.7775 17.5951
" />
<path d="M13.7775 17.5951
L13.8379 17.8370
" />
<path d="M13.8379 17.8370
L13.8379 18.0184
" />
<path d="M13.8379 18.0184
L13.7775 18.2603
" />
<path d="M13.7775 18.2603
L13.7170 18.3813
" />
<path d="M13.7170 18.3813
L13.5960 18.5023
" />
<path d="M13.5960 18.5023
L13.4146 18.5627
" />
<path d="M13.4146 18.5627
L13.1122 18.5627
" />
</g></g>
<g style="fill:none; 
stroke:#A90000; stroke-width:0.1524; stroke-opacity:1; 
stroke-linecap:round; stroke-linejoin:round;">
<text x="6.5532" y="17.7292"
textLength="1.4127" font-size="1.6933" lengthAdjust="spacingAndGlyphs"
text-anchor="middle" opacity="0" stroke-opacity="0">4</text>
<g class="stroked-text"><desc>4</desc>
<path d="M6.7951 16.7191
L6.7951 17.5657
" />
<path d="M6.4927 16.2353
L6.1904 17.1424
" />
<path d="M6.1904 17.1424
L6.9765 17.1424
" />
</g></g>
<g style="fill:none; 
stroke:#840000; stroke-width:0.1524; stroke-opacity:1; 
stroke-linecap:round; stroke-linejoin:round;">
<path d="M9.0932 20.5232
L4.0132 20.5232
" />
</g>
<g style="fill:none; 
stroke:#006464; stroke-width:0.1524; stroke-opacity:1; 
stroke-linecap:round; stroke-linejoin:round;">
<text x="10.1092" y="21.1582"
textLength="10.1213" font-size="1.6933" lengthAdjust="spacingAndGlyphs"
text-anchor="start" opacity="0" stroke-opacity="0">2/D1/SDA</text>
<g class="stroked-text"><desc>2/D1/SDA</desc>
<path d="M10.4513 19.9537
L10.5117 19.8932
" />
<path d="M10.5117 19.8932
L10.6327 19.8327
" />
<path d="M10.6327 19.8327
L10.9351 19.8327
" />
<path d="M10.9351 19.8327
L11.0560 19.8932
" />
<path d="M11.0560 19.8932
L11.1165 19.9537
" />
<path d="M11.1165 19.9537
L11.1770 20.0746
" />
<path d="M11.1770 20.0746
L11.1770 20.1956
" />
<path d="M11.1770 20.1956
L11.1165 20.3770
" />
<path d="M11.1165 20.3770
L10.3908 21.1027
" />
<path d="M10.3908 21.1027
L11.1770 21.1027
" />
<path d="M12.6284 19.7723
L11.5398 21.4051
" />
<path d="M13.0517 21.1027
L13.0517 19.8327
" />
<path d="M13.0517 19.8327
L13.3541 19.8327
" />
<path d="M13.3541 19.8327
L13.5355 19.8932
" />
<path d="M13.5355 19.8932
L13.6565 20.0142
" />
<path d="M13.6565 20.0142
L13.7170 20.1351
" />
<path d="M13.7170 20.1351
L13.7774 20.3770
" />
<path d="M13.7774 20.3770
L13.7774 20.5584
" />
<path d="M13.7774 20.5584
L13.7170 20.8003
" />
<path d="M13.7170 20.8003
L13.6565 20.9213
" />
<path d="M13.6565 20.9213
L13.5355 21.0423
" />
<path d="M13.5355 21.0423
L13.3541 21.1027
" />
<path d="M13.3541 21.1027
L13.0517 21.1027
" />
<path d="M14.9870 21.1027
L14.2613 21.1027
" />
<path d="M14.6241 21.1027
L14.6241 19.8327
" />
<path d="M14.6241 19.8327
L14.5032 20.0142
" />
<path d="M14.5032 20.0142
L14.3822 20.1351
" />
<path d="M14.3822 20.1351
L14.2613 20.1956
" />
<path d="M16.4384 19.7723
L15.3498 21.4051
" />
<path d="M16.8013 21.0423
L16.9827 21.1027
" />
<path d="M16.9827 21.1027
L17.2851 21.1027
" />
<path d="M17.2851 21.1027
L17.4060 21.0423
" />
<path d="M17.4060 21.0423
L17.4665 20.9818
" />
<path d="M17.4665 20.9818
L17.5270 20.8608
" />
<path d="M17.5270 20.8608
L17.5270 20.7399
" />
<path d="M17.5270 20.7399
L17.4665 20.6189
" />
<path d="M17.4665 20.6189
L17.4060 20.5584
" />
<path d="M17.4060 20.5584
L17.2851 20.4980
" />
<path d="M17.2851 20.4980
L17.0432 20.4375
" />
<path d="M17.0432 20.4375
L16.9222 20.3770
" />
<path d="M16.9222 20.3770
L16.8617 20.3165
" />
<path d="M16.8617 20.3165
L16.8013 20.1956
" />
<path d="M16.8013 20.1956
L16.8013 20.0746
" />
<path d="M16.8013 20.0746
L16.8617 19.9537
" />
<path d="M16.8617 19.9537
L16.9222 19.8932
" />
<path d="M16.9222 19.8932
L17.0432 19.8327
" />
<path d="M17.0432 19.8327
L17.3455 19.8327
" />
<path d="M17.3455 19.8327
L17.5270 19.8932
" />
<path d="M18.0712 21.1027
L18.0712 19.8327
" />
<path d="M18.0712 19.8327
L18.3736 19.8327
" />
<path d="M18.3736 19.8327
L18.5550 19.8932
" />
<path d="M18.5550 19.8932
L18.6760 20.0142
" />
<path d="M18.6760 20.0142
L18.7365 20.1351
" />
<path d="M18.7365 20.1351
L18.7969 20.3770
" />
<path d="M18.7969 20.3770
L18.7969 20.5584
" />
<path d="M18.7969 20.5584
L18.7365 20.8003
" />
<path d="M18.7365 20.8003
L18.6760 20.9213
" />
<path d="M18.6760 20.9213
L18.5550 21.0423
" />
<path d="M18.5550 21.0423
L18.3736 21.1027
" />
<path d="M18.3736 21.1027
L18.0712 21.1027
" />
<path d="M19.2808 20.7399
L19.8855 20.7399
" />
<path d="M19.1598 21.1027
L19.5831 19.8327
" />
<path d="M19.5831 19.8327
L20.0065 21.1027
" />
</g></g>
<g style="fill:none; 
stroke:#A90000; stroke-width:0.1524; stroke-opacity:1; 
stroke-linecap:round; stroke-linejoin:round;">
<text x="6.5532" y="20.2692"
textLength="1.4127" font-size="1.6933" lengthAdjust="spacingAndGlyphs"
text-anchor="middle" opacity="0" stroke-opacity="0">5</text>
<g class="stroked-text"><desc>5</desc>
<path d="M6.8556 18.8357
L6.2508 18.8357
" />
<path d="M6.2508 18.8357
L6.1904 19.4405
" />
<path d="M6.1904 19.4405
L6.2508 19.3800
" />
<path d="M6.2508 19.3800
L6.3718 19.3195
" />
<path d="M6.3718 19.3195
L6.6742 19.3195
" />
<path d="M6.6742 19.3195
L6.7951 19.3800
" />
<path d="M6.7951 19.3800
L6.8556 19.4405
" />
<path d="M6.8556 19.4405
L6.9161 19.5614
" />
<path d="M6.9161 19.5614
L6.9161 19.8638
" />
<path d="M6.9161 19.8638
L6.8556 19.9848
" />
<path d="M6.8556 19.9848
L6.7951 20.0453
" />
<path d="M6.7951 20.0453
L6.6742 20.1057
" />
<path d="M6.6742 20.1057
L6.3718 20.1057
" />
<path d="M6.3718 20.1057
L6.2508 20.0453
" />
<path d="M6.2508 20.0453
L6.1904 19.9848
" />
</g></g>
<g style="fill:none; 
stroke:#840000; stroke-width:0.1524; stroke-opacity:1; 
stroke-linecap:round; stroke-linejoin:round;">
<path d="M9.0932 23.0632
L4.0132 23.0632
" />
</g>
<g style="fill:none; 
stroke:#006464; stroke-width:0.1524; stroke-opacity:1; 
stroke-linecap:round; stroke-linejoin:round;">
<text x="10.1092" y="23.6982"
textLength="10.0608" font-size="1.6933" lengthAdjust="spacingAndGlyphs"
text-anchor="start" opacity="0" stroke-opacity="0">3/D0/SCL</text>
<g class="stroked-text"><desc>3/D0/SCL</desc>
<path d="M10.3908 22.3727
L11.1770 22.3727
" />
<path d="M11.1770 22.3727
L10.7536 22.8565
" />
<path d="M10.7536 22.8565
L10.9351 22.8565
" />
<path d="M10.9351 22.8565
L11.0560 22.9170
" />
<path d="M11.0560 22.9170
L11.1165 22.9775
" />
<path d="M11.1165 22.9775
L11.1770 23.0984
" />
<path d="M11.1770 23.0984
L11.1770 23.4008
" />
<path d="M11.1770 23.4008
L11.1165 23.5218
" />
<path d="M11.1165 23.5218
L11.0560 23.5823
" />
<path d="M11.0560 23.5823
L10.9351 23.6427
" />
<path d="M10.9351 23.6427
L10.5722 23.6427
" />
<path d="M10.5722 23.6427
L10.4513 23.5823
" />
<path d="M10.4513 23.5823
L10.3908 23.5218
" />
<path d="M12.6284 22.3123
L11.5398 23.9451
" />
<path d="M13.0517 23.6427
L13.0517 22.3727
" />
<path d="M13.0517 22.3727
L13.3541 22.3727
" />
<path d="M13.3541 22.3727
L13.5355 22.4332
" />
<path d="M13.5355 22.4332
L13.6565 22.5542
" />
<path d="M13.6565 22.5542
L13.7170 22.6751
" />
<path d="M13.7170 22.6751
L13.7774 22.9170
" />
<path d="M13.7774 22.9170
L13.7774 23.0984
" />
<path d="M13.7774 23.0984
L13.7170 23.3403
" />
<path d="M13.7170 23.3403
L13.6565 23.4613
" />
<path d="M13.6565 23.4613
L13.5355 23.5823
" />
<path d="M13.5355 23.5823
L13.3541 23.6427
" />
<path d="M13.3541 23.6427
L13.0517 23.6427
" />
<path d="M14.5636 22.3727
L14.6846 22.3727
" />
<path d="M14.6846 22.3727
L14.8055 22.4332
" />
<path d="M14.8055 22.4332
L14.8660 22.4937
" />
<path d="M14.8660 22.4937
L14.9265 22.6146
" />
<path d="M14.9265 22.6146
L14.9870 22.8565
" />
<path d="M14.9870 22.8565
L14.9870 23.1589
" />
<path d="M14.9870 23.1589
L14.9265 23.4008
" />
<path d="M14.9265 23.4008
L14.8660 23.5218
" />
<path d="M14.8660 23.5218
L14.8055 23.5823
" />
<path d="M14.8055 23.5823
L14.6846 23.6427
" />
<path d="M14.6846 23.6427
L14.5636 23.6427
" />
<path d="M14.5636 23.6427
L14.4427 23.5823
" />
<path d="M14.4427 23.5823
L14.3822 23.5218
" />
<path d="M14.3822 23.5218
L14.3217 23.4008
" />
<path d="M14.3217 23.4008
L14.2613 23.1589
" />
<path d="M14.2613 23.1589
L14.2613 22.8565
" />
<path d="M14.2613 22.8565
L14.3217 22.6146
" />
<path d="M14.3217 22.6146
L14.3822 22.4937
" />
<path d="M14.3822 22.4937
L14.4427 22.4332
" />
<path d="M14.4427 22.4332
L14.5636 22.3727
" />
<path d="M16.4384 22.3123
L15.3498 23.9451
" />
<path d="M16.8013 23.5823
L16.9827 23.6427
" />
<path d="M16.9827 23.6427
L17.2851 23.6427
" />
<path d="M17.2851 23.6427
L17.4060 23.5823
" />
<path d="M17.4060 23.5823
L17.4665 23.5218
" />
<path d="M17.4665 23.5218
L17.5270 23.4008
" />
<path d="M17.5270 23.4008
L17.5270 23.2799
" />
<path d="M17.5270 23.2799
L17.4665 23.1589
" />
<path d="M17.4665 23.1589
L17.4060 23.0984
" />
<path d="M17.4060 23.0984
L17.2851 23.0380
" />
<path d="M17.2851 23.0380
L17.0432 22.9775
" />
<path d="M17.0432 22.9775
L16.9222 22.9170
" />
<path d="M16.9222 22.9170
L16.8617 22.8565
" />
<path d="M16.8617 22.8565
L16.8013 22.7356
" />
<path d="M16.8013 22.7356
L16.8013 22.6146
" />
<path d="M16.8013 22.6146
L16.8617 22.4937
" />
<path d="M16.8617 22.4937
L16.9222 22.4332
" />
<path d="M16.9222 22.4332
L17.0432 22.3727
" />
<path d="M17.0432 22.3727
L17.3455 22.3727
" />
<path d="M17.3455 22.3727
L17.5270 22.4332
" />
<path d="M18.7969 23.5218
L18.7365 23.5823
" />
<path d="M18.7365 23.5823
L18.5550 23.6427
" />
<path d="M18.5550 23.6427
L18.4341 23.6427
" />
<path d="M18.4341 23.6427
L18.2527 23.5823
" />
<path d="M18.2527 23.5823
L18.1317 23.4613
" />
<path d="M18.1317 23.4613
L18.0712 23.3403
" />
<path d="M18.0712 23.3403
L18.0108 23.0984
" />
<path d="M18.0108 23.0984
L18.0108 22.9170
" />
<path d="M18.0108 22.9170
L18.0712 22.6751
" />
<path d="M18.0712 22.6751
L18.1317 22.5542
" />
<path d="M18.1317 22.5542
L18.2527 22.4332
" />
<path d="M18.2527 22.4332
L18.4341 22.3727
" />
<path d="M18.4341 22.3727
L18.5550 22.3727
" />
<path d="M18.5550 22.3727
L18.7365 22.4332
" />
<path d="M18.7365 22.4332
L18.7969 22.4937
" />
<path d="M19.9460 23.6427
L19.3412 23.6427
" />
<path d="M19.3412 23.6427
L19.3412 22.3727
" />
</g></g>
<g style="fill:none; 
stroke:#A90000; stroke-width:0.1524; stroke-opacity:1; 
stroke-linecap:round; stroke-linejoin:round;">
<text x="6.5532" y="22.8092"
textLength="1.4127" font-size="1.6933" lengthAdjust="spacingAndGlyphs"
text-anchor="middle" opacity="0" stroke-opacity="0">6</text>
<g class="stroked-text"><desc>6</desc>
<path d="M6.7951 21.3757
L6.5532 21.3757
" />
<path d="M6.5532 21.3757
L6.4323 21.4362
" />
<path d="M6.4323 21.4362
L6.3718 21.4967
" />
<path d="M6.3718 21.4967
L6.2508 21.6781
" />
<path d="M6.2508 21.6781
L6.1904 21.9200
" />
<path d="M6.1904 21.9200
L6.1904 22.4038
" />
<path d="M6.1904 22.4038
L6.2508 22.5248
" />
<path d="M6.2508 22.5248
L6.3113 22.5853
" />
<path d="M6.3113 22.5853
L6.4323 22.6457
" />
<path d="M6.4323 22.6457
L6.6742 22.6457
" />
<path d="M6.6742 22.6457
L6.7951 22.5853
" />
<path d="M6.7951 22.5853
L6.8556 22.5248
" />
<path d="M6.8556 22.5248
L6.9161 22.4038
" />
<path d="M6.9161 22.4038
L6.9161 22.1014
" />
<path d="M6.9161 22.1014
L6.8556 21.9805
" />
<path d="M6.8556 21.9805
L6.7951 21.9200
" />
<path d="M6.7951 21.9200
L6.6742 21.8595
" />
<path d="M6.6742 21.8595
L6.4323 21.8595
" />
<path d="M6.4323 21.8595
L6.3113 21.9200
" />
<path d="M6.3113 21.9200
L6.2508 21.9805
" />
<path d="M6.2508 21.9805
L6.1904 22.1014
" />
</g></g>
<g style="fill:none; 
stroke:#840000; stroke-width:0.1524; stroke-opacity:1; 
stroke-linecap:round; stroke-linejoin:round;">
<path d="M9.0932 25.6032
L4.0132 25.6032
" />
</g>
<g style="fill:none; 
stroke:#006464; stroke-width:0.1524; stroke-opacity:1; 
stroke-linecap:round; stroke-linejoin:round;">
<text x="10.1092" y="26.2382"
textLength="5.2227" font-size="1.6933" lengthAdjust="spacingAndGlyphs"
text-anchor="start" opacity="0" stroke-opacity="0">4/D4</text>
<g class="stroked-text"><desc>4/D4</desc>
<path d="M11.0560 25.3361
L11.0560 26.1827
" />
<path d="M10.7536 24.8523
L10.4513 25.7594
" />
<path d="M10.4513 25.7594
L11.2374 25.7594
" />
<path d="M12.6284 24.8523
L11.5398 26.4851
" />
<path d="M13.0517 26.1827
L13.0517 24.9127
" />
<path d="M13.0517 24.9127
L13.3541 24.9127
" />
<path d="M13.3541 24.9127
L13.5355 24.9732
" />
<path d="M13.5355 24.9732
L13.6565 25.0942
" />
<path d="M13.6565 25.0942
L13.7170 25.2151
" />
<path d="M13.7170 25.2151
L13.7774 25.4570
" />
<path d="M13.7774 25.4570
L13.7774 25.6384
" />
<path d="M13.7774 25.6384
L13.7170 25.8803
" />
<path d="M13.7170 25.8803
L13.6565 26.0013
" />
<path d="M13.6565 26.0013
L13.5355 26.1223
" />
<path d="M13.5355 26.1223
L13.3541 26.1827
" />
<path d="M13.3541 26.1827
L13.0517 26.1827
" />
<path d="M14.8660 25.3361
L14.8660 26.1827
" />
<path d="M14.5636 24.8523
L14.2613 25.7594
" />
<path d="M14.2613 25.7594
L15.0474 25.7594
" />
</g></g>
<g style="fill:none; 
stroke:#A90000; stroke-width:0.1524; stroke-opacity:1; 
stroke-linecap:round; stroke-linejoin:round;">
<text x="6.5532" y="25.3492"
textLength="1.4127" font-size="1.6933" lengthAdjust="spacingAndGlyphs"
text-anchor="middle" opacity="0" stroke-opacity="0">7</text>
<g class="stroked-text"><desc>7</desc>
<path d="M6.1299 23.9157
L6.9765 23.9157
" />
<path d="M6.9765 23.9157
L6.4323 25.1857
" />
</g></g>
<g style="fill:none; 
stroke:#840000; stroke-width:0.1524; stroke-opacity:1; 
stroke-linecap:round; stroke-linejoin:round;">
<path d="M9.0932 28.1432
L4.0132 28.1432
" />
</g>
<g style="fill:none; 
stroke:#006464; stroke-width:0.1524; stroke-opacity:1; 
stroke-linecap:round; stroke-linejoin:round;">
<text x="10.1092" y="28.7782"
textLength="5.2227" font-size="1.6933" lengthAdjust="spacingAndGlyphs"
text-anchor="start" opacity="0" stroke-opacity="0">5/C6</text>
<g class="stroked-text"><desc>5/C6</desc>
<path d="M11.1165 27.4527
L10.5117 27.4527
" />
<path d="M10.5117 27.4527
L10.4513 28.0575
" />
<path d="M10.4513 28.0575
L10.5117 27.9970
" />
<path d="M10.5117 27.9970
L10.6327 27.9365
" />
<path d="M10.6327 27.9365
L10.9351 27.9365
" />
<path d="M10.9351 27.9365
L11.0560 27.9970
" />
<path d="M11.0560 27.9970
L11.1165 28.0575
" />
<path d="M11.1165 28.0575
L11.1770 28.1784
" />
<path d="M11.1770 28.1784
L11.1770 28.4808
" />
<path d="M11.1770 28.4808
L11.1165 28.6018
" />
<path d="M11.1165 28.6018
L11.0560 28.6623
" />
<path d="M11.0560 28.6623
L10.9351 28.7227
" />
<path d="M10.9351 28.7227
L10.6327 28.7227
" />
<path d="M10.6327 28.7227
L10.5117 28.6623
" />
<path d="M10.5117 28.6623
L10.4513 28.6018
" />
<path d="M12.6284 27.3923
L11.5398 29.0251
" />
<path d="M13.7774 28.6018
L13.7170 28.6623
" />
<path d="M13.7170 28.6623
L13.5355 28.7227
" />
<path d="M13.5355 28.7227
L13.4146 28.7227
" />
<path d="M13.4146 28.7227
L13.2332 28.6623
" />
<path d="M13.2332 28.6623
L13.1122 28.5413
" />
<path d="M13.1122 28.5413
L13.0517 28.4203
" />
<path d="M13.0517 28.4203
L12.9913 28.1784
" />
<path d="M12.9913 28.1784
L12.9913 27.9970
" />
<path d="M12.9913 27.9970
L13.0517 27.7551
" />
<path d="M13.0517 27.7551
L13.1122 27.6342
" />
<path d="M13.1122 27.6342
L13.2332 27.5132
" />
<path d="M13.2332 27.5132
L13.4146 27.4527
" />
<path d="M13.4146 27.4527
L13.5355 27.4527
" />
<path d="M13.5355 27.4527
L13.7170 27.5132
" />
<path d="M13.7170 27.5132
L13.7774 27.5737
" />
<path d="M14.8660 27.4527
L14.6241 27.4527
" />
<path d="M14.6241 27.4527
L14.5032 27.5132
" />
<path d="M14.5032 27.5132
L14.4427 27.5737
" />
<path d="M14.4427 27.5737
L14.3217 27.7551
" />
<path d="M14.3217 27.7551
L14.2613 27.9970
" />
<path d="M14.2613 27.9970
L14.2613 28.4808
" />
<path d="M14.2613 28.4808
L14.3217 28.6018
" />
<path d="M14.3217 28.6018
L14.3822 28.6623
" />
<path d="M14.3822 28.6623
L14.5032 28.7227
" />
<path d="M14.5032 28.7227
L14.7451 28.7227
" />
<path d="M14.7451 28.7227
L14.8660 28.6623
" />
<path d="M14.8660 28.6623
L14.9265 28.6018
" />
<path d="M14.9265 28.6018
L14.9870 28.4808
" />
<path d="M14.9870 28.4808
L14.9870 28.1784
" />
<path d="M14.9870 28.1784
L14.9265 28.0575
" />
<path d="M14.9265 28.0575
L14.8660 27.9970
" />
<path d="M14.8660 27.9970
L14.7451 27.9365
" />
<path d="M14.7451 27.9365
L14.5032 27.9365
" />
<path d="M14.5032 27.9365
L14.3822 27.9970
" />
<path d="M14.3822 27.9970
L14.3217 28.0575
" />
<path d="M14.3217 28.0575
L14.2613 28.1784
" />
</g></g>
<g style="fill:none; 
stroke:#A90000; stroke-width:0.1524; stroke-opacity:1; 
stroke-linecap:round; stroke-linejoin:round;">
<text x="6.5532" y="27.8892"
textLength="1.4127" font-size="1.6933" lengthAdjust="spacingAndGlyphs"
text-anchor="middle" opacity="0" stroke-opacity="0">8</text>
<g class="stroked-text"><desc>8</desc>
<path d="M6.4323 27.0000
L6.3113 26.9395
" />
<path d="M6.3113 26.9395
L6.2508 26.8791
" />
<path d="M6.2508 26.8791
L6.1904 26.7581
" />
<path d="M6.1904 26.7581
L6.1904 26.6976
" />
<path d="M6.1904 26.6976
L6.2508 26.5767
" />
<path d="M6.2508 26.5767
L6.3113 26.5162
" />
<path d="M6.3113 26.5162
L6.4323 26.4557
" />
<path d="M6.4323 26.4557
L6.6742 26.4557
" />
<path d="M6.6742 26.4557
L6.7951 26.5162
" />
<path d="M6.7951 26.5162
L6.8556 26.5767
" />
<path d="M6.8556 26.5767
L6.9161 26.6976
" />
<path d="M6.9161 26.6976
L6.9161 26.7581
" />
<path d="M6.9161 26.7581
L6.8556 26.8791
" />
<path d="M6.8556 26.8791
L6.7951 26.9395
" />
<path d="M6.7951 26.9395
L6.6742 27.0000
" />
<path d="M6.6742 27.0000
L6.4323 27.0000
" />
<path d="M6.4323 27.0000
L6.3113 27.0605
" />
<path d="M6.3113 27.0605
L6.2508 27.1210
" />
<path d="M6.2508 27.1210
L6.1904 27.2419
" />
<path d="M6.1904 27.2419
L6.1904 27.4838
" />
<path d="M6.1904 27.4838
L6.2508 27.6048
" />
<path d="M6.2508 27.6048
L6.3113 27.6653
" />
<path d="M6.3113 27.6653
L6.4323 27.7257
" />
<path d="M6.4323 27.7257
L6.6742 27.7257
" />
<path d="M6.6742 27.7257
L6.7951 27.6653
" />
<path d="M6.7951 27.6653
L6.8556 27.6048
" />
<path d="M6.8556 27.6048
L6.9161 27.4838
" />
<path d="M6.9161 27.4838
L6.9161 27.2419
" />
<path d="M6.9161 27.2419
L6.8556 27.1210
" />
<path d="M6.8556 27.1210
L6.7951 27.0605
" />
<path d="M6.7951 27.0605
L6.6742 27.0000
" />
</g></g>
<g style="fill:none; 
stroke:#840000; stroke-width:0.1524; stroke-opacity:1; 
stroke-linecap:round; stroke-linejoin:round;">
<path d="M9.0932 30.6832
L4.0132 30.6832
" />
</g>
<g style="fill:none; 
stroke:#006464; stroke-width:0.1524; stroke-opacity:1; 
stroke-linecap:round; stroke-linejoin:round;">
<text x="10.1092" y="31.3182"
textLength="5.2227" font-size="1.6933" lengthAdjust="spacingAndGlyphs"
text-anchor="start" opacity="0" stroke-opacity="0">6/D7</text>
<g class="stroked-text"><desc>6/D7</desc>
<path d="M11.0560 29.9927
L10.8141 29.9927
" />
<path d="M10.8141 29.9927
L10.6932 30.0532
" />
<path d="M10.6932 30.0532
L10.6327 30.1137
" />
<path d="M10.6327 30.1137
L10.5117 30.2951
" />
<path d="M10.5117 30.2951
L10.4513 30.5370
" />
<path d="M10.4513 30.5370
L10.4513 31.0208
" />
<path d="M10.4513 31.0208
L10.5117 31.1418
" />
<path d="M10.5117 31.1418
L10.5722 31.2023
" />
<path d="M10.5722 31.2023
L10.6932 31.2627
" />
<path d="M10.6932 31.2627
L10.9351 31.2627
" />
<path d="M10.9351 31.2627
L11.0560 31.2023
" />
<path d="M11.0560 31.2023
L11.1165 31.1418
" />
<path d="M11.1165 31.1418
L11.1770 31.0208
" />
<path d="M11.1770 31.0208
L11.1770 30.7184
" />
<path d="M11.1770 30.7184
L11.1165 30.5975
" />
<path d="M11.1165 30.5975
L11.0560 30.5370
" />
<path d="M11.0560 30.5370
L10.9351 30.4765
" />
<path d="M10.9351 30.4765
L10.6932 30.4765
" />
<path d="M10.6932 30.4765
L10.5722 30.5370
" />
<path d="M10.5722 30.5370
L10.5117 30.5975
" />
<path d="M10.5117 30.5975
L10.4513 30.7184
" />
<path d="M12.6284 29.9323
L11.5398 31.5651
" />
<path d="M13.0517 31.2627
L13.0517 29.9927
" />
<path d="M13.0517 29.9927
L13.3541 29.9927
" />
<path d="M13.3541 29.9927
L13.5355 30.0532
" />
<path d="M13.5355 30.0532
L13.6565 30.1742
" />
<path d="M13.6565 30.1742
L13.7170 30.2951
" />
<path d="M13.7170 30.2951
L13.7774 30.5370
" />
<path d="M13.7774 30.5370
L13.7774 30.7184
" />
<path d="M13.7774 30.7184
L13.7170 30.9603
" />
<path d="M13.7170 30.9603
L13.6565 31.0813
" />
<path d="M13.6565 31.0813
L13.5355 31.2023
" />
<path d="M13.5355 31.2023
L13.3541 31.2627
" />
<path d="M13.3541 31.2627
L13.0517 31.2627
" />
<path d="M14.2008 29.9927
L15.0474 29.9927
" />
<path d="M15.0474 29.9927
L14.5032 31.2627
" />
</g></g>
<g style="fill:none; 
stroke:#A90000; stroke-width:0.1524; stroke-opacity:1; 
stroke-linecap:round; stroke-linejoin:round;">
<text x="6.5532" y="30.4292"
textLength="1.4127" font-size="1.6933" lengthAdjust="spacingAndGlyphs"
text-anchor="middle" opacity="0" stroke-opacity="0">9</text>
<g class="stroked-text"><desc>9</desc>
<path d="M6.3113 30.2657
L6.5532 30.2657
" />
<path d="M6.5532 30.2657
L6.6742 30.2053
" />
<path d="M6.6742 30.2053
L6.7346 30.1448
" />
<path d="M6.7346 30.1448
L6.8556 29.9633
" />
<path d="M6.8556 29.9633
L6.9161 29.7214
" />
<path d="M6.9161 29.7214
L6.9161 29.2376
" />
<path d="M6.9161 29.2376
L6.8556 29.1167
" />
<path d="M6.8556 29.1167
L6.7951 29.0562
" />
<path d="M6.7951 29.0562
L6.6742 28.9957
" />
<path d="M6.6742 28.9957
L6.4323 28.9957
" />
<path d="M6.4323 28.9957
L6.3113 29.0562
" />
<path d="M6.3113 29.0562
L6.2508 29.1167
" />
<path d="M6.2508 29.1167
L6.1904 29.2376
" />
<path d="M6.1904 29.2376
L6.1904 29.5400
" />
<path d="M6.1904 29.5400
L6.2508 29.6610
" />
<path d="M6.2508 29.6610
L6.3113 29.7214
" />
<path d="M6.3113 29.7214
L6.4323 29.7819
" />
<path d="M6.4323 29.7819
L6.6742 29.7819
" />
<path d="M6.6742 29.7819
L6.7951 29.7214
" />
<path d="M6.7951 29.7214
L6.8556 29.6610
" />
<path d="M6.8556 29.6610
L6.9161 29.5400
" />
</g></g>
<g style="fill:none; 
stroke:#840000; stroke-width:0.1524; stroke-opacity:1; 
stroke-linecap:round; stroke-linejoin:round;">
<path d="M9.0932 33.2232
L4.0132 33.2232
" />
</g>
<g style="fill:none; 
stroke:#006464; stroke-width:0.1524; stroke-opacity:1; 
stroke-linecap:round; stroke-linejoin:round;">
<text x="10.1092" y="33.8582"
textLength="5.1017" font-size="1.6933" lengthAdjust="spacingAndGlyphs"
text-anchor="start" opacity="0" stroke-opacity="0">7/E6</text>
<g class="stroked-text"><desc>7/E6</desc>
<path d="M10.3908 32.5327
L11.2374 32.5327
" />
<path d="M11.2374 32.5327
L10.6932 33.8027
" />
<path d="M12.6284 32.4723
L11.5398 34.1051
" />
<path d="M13.0517 33.1375
L13.4751 33.1375
" />
<path d="M13.6565 33.8027
L13.0517 33.8027
" />
<path d="M13.0517 33.8027
L13.0517 32.5327
" />
<path d="M13.0517 32.5327
L13.6565 32.5327
" />
<path d="M14.7450 32.5327
L14.5031 32.5327
" />
<path d="M14.5031 32.5327
L14.3822 32.5932
" />
<path d="M14.3822 32.5932
L14.3217 32.6537
" />
<path d="M14.3217 32.6537
L14.2007 32.8351
" />
<path d="M14.2007 32.8351
L14.1403 33.0770
" />
<path d="M14.1403 33.0770
L14.1403 33.5608
" />
<path d="M14.1403 33.5608
L14.2007 33.6818
" />
<path d="M14.2007 33.6818
L14.2612 33.7423
" />
<path d="M14.2612 33.7423
L14.3822 33.8027
" />
<path d="M14.3822 33.8027
L14.6241 33.8027
" />
<path d="M14.6241 33.8027
L14.7450 33.7423
" />
<path d="M14.7450 33.7423
L14.8055 33.6818
" />
<path d="M14.8055 33.6818
L14.8660 33.5608
" />
<path d="M14.8660 33.5608
L14.8660 33.2584
" />
<path d="M14.8660 33.2584
L14.8055 33.1375
" />
<path d="M14.8055 33.1375
L14.7450 33.0770
" />
<path d="M14.7450 33.0770
L14.6241 33.0165
" />
<path d="M14.6241 33.0165
L14.3822 33.0165
" />
<path d="M14.3822 33.0165
L14.2612 33.0770
" />
<path d="M14.2612 33.0770
L14.2007 33.1375
" />
<path d="M14.2007 33.1375
L14.1403 33.2584
" />
</g></g>
<g style="fill:none; 
stroke:#A90000; stroke-width:0.1524; stroke-opacity:1; 
stroke-linecap:round; stroke-linejoin:round;">
<text x="6.5532" y="32.9692"
textLength="2.6222" font-size="1.6933" lengthAdjust="spacingAndGlyphs"
text-anchor="middle" opacity="0" stroke-opacity="0">10</text>
<g class="stroked-text"><desc>10</desc>
<path d="M6.3113 32.8057
L5.5856 32.8057
" />
<path d="M5.9484 32.8057
L5.9484 31.5357
" />
<path d="M5.9484 31.5357
L5.8275 31.7172
" />
<path d="M5.8275 31.7172
L5.7065 31.8381
" />
<path d="M5.7065 31.8381
L5.5856 31.8986
" />
<path d="M7.0974 31.5357
L7.2184 31.5357
" />
<path d="M7.2184 31.5357
L7.3393 31.5962
" />
<path d="M7.3393 31.5962
L7.3998 31.6567
" />
<path d="M7.3998 31.6567
L7.4603 31.7776
" />
<path d="M7.4603 31.7776
L7.5208 32.0195
" />
<path d="M7.5208 32.0195
L7.5208 32.3219
" />
<path d="M7.5208 32.3219
L7.4603 32.5638
" />
<path d="M7.4603 32.5638
L7.3998 32.6848
" />
<path d="M7.3998 32.6848
L7.3393 32.7453
" />
<path d="M7.3393 32.7453
L7.2184 32.8057
" />
<path d="M7.2184 32.8057
L7.0974 32.8057
" />
<path d="M7.0974 32.8057
L6.9765 32.7453
" />
<path d="M6.9765 32.7453
L6.9160 32.6848
" />
<path d="M6.9160 32.6848
L6.8555 32.5638
" />
<path d="M6.8555 32.5638
L6.7951 32.3219
" />
<path d="M6.7951 32.3219
L6.7951 32.0195
" />
<path d="M6.7951 32.0195
L6.8555 31.7776
" />
<path d="M6.8555 31.7776
L6.9160 31.6567
" />
<path d="M6.9160 31.6567
L6.9765 31.5962
" />
<path d="M6.9765 31.5962
L7.0974 31.5357
" />
</g></g>
<g style="fill:none; 
stroke:#840000; stroke-width:0.1524; stroke-opacity:1; 
stroke-linecap:round; stroke-linejoin:round;">
<path d="M9.0932 35.7632
L4.0132 35.7632
" />
</g>
<g style="fill:none; 
stroke:#006464; stroke-width:0.1524; stroke-opacity:1; 
stroke-linecap:round; stroke-linejoin:round;">
<text x="10.1092" y="36.3982"
textLength="5.2227" font-size="1.6933" lengthAdjust="spacingAndGlyphs"
text-anchor="start" opacity="0" stroke-opacity="0">8/B4</text>
<g class="stroked-text"><desc>8/B4</desc>
<path d="M10.6932 35.6170
L10.5722 35.5565
" />
<path d="M10.5722 35.5565
L10.5117 35.4961
" />
<path d="M10.5117 35.4961
L10.4513 35.3751
" />
<path d="M10.4513 35.3751
L10.4513 35.3146
" />
<path d="M10.4513 35.3146
L10.5117 35.1937
" />
<path d="M10.5117 35.1937
L10.5722 35.1332
" />
<path d="M10.5722 35.1332
L10.6932 35.0727
" />
<path d="M10.6932 35.0727
L10.9351 35.0727
" />
<path d="M10.9351 35.0727
L11.0560 35.1332
" />
<path d="M11.0560 35.1332
L11.1165 35.1937
" />
<path d="M11.1165 35.1937
L11.1770 35.3146
" />
<path d="M11.1770 35.3146
L11.1770 35.3751
" />
<path d="M11.1770 35.3751
L11.1165 35.4961
" />
<path d="M11.1165 35.4961
L11.0560 35.5565
" />
<path d="M11.0560 35.5565
L10.9351 35.6170
" />
<path d="M10.9351 35.6170
L10.6932 35.6170
" />
<path d="M10.6932 35.6170
L10.5722 35.6775
" />
<path d="M10.5722 35.6775
L10.5117 35.7380
" />
<path d="M10.5117 35.7380
L10.4513 35.8589
" />
<path d="M10.4513 35.8589
L10.4513 36.1008
" />
<path d="M10.4513 36.1008
L10.5117 36.2218
" />
<path d="M10.5117 36.2218
L10.5722 36.2823
" />
<path d="M10.5722 36.2823
L10.6932 36.3427
" />
<path d="M10.6932 36.3427
L10.9351 36.3427
" />
<path d="M10.9351 36.3427
L11.0560 36.2823
" />
<path d="M11.0560 36.2823
L11.1165 36.2218
" />
<path d="M11.1165 36.2218
L11.1770 36.1008
" />
<path d="M11.1770 36.1008
L11.1770 35.8589
" />
<path d="M11.1770 35.8589
L11.1165 35.7380
" />
<path d="M11.1165 35.7380
L11.0560 35.6775
" />
<path d="M11.0560 35.6775
L10.9351 35.6170
" />
<path d="M12.6284 35.0123
L11.5398 36.6451
" />
<path d="M13.4751 35.6775
L13.6565 35.7380
" />
<path d="M13.6565 35.7380
L13.7170 35.7984
" />
<path d="M13.7170 35.7984
L13.7774 35.9194
" />
<path d="M13.7774 35.9194
L13.7774 36.1008
" />
<path d="M13.7774 36.1008
L13.7170 36.2218
" />
<path d="M13.7170 36.2218
L13.6565 36.2823
" />
<path d="M13.6565 36.2823
L13.5355 36.3427
" />
<path d="M13.5355 36.3427
L13.0517 36.3427
" />
<path d="M13.0517 36.3427
L13.0517 35.0727
" />
<path d="M13.0517 35.0727
L13.4751 35.0727
" />
<path d="M13.4751 35.0727
L13.5960 35.1332
" />
<path d="M13.5960 35.1332
L13.6565 35.1937
" />
<path d="M13.6565 35.1937
L13.7170 35.3146
" />
<path d="M13.7170 35.3146
L13.7170 35.4356
" />
<path d="M13.7170 35.4356
L13.6565 35.5565
" />
<path d="M13.6565 35.5565
L13.5960 35.6170
" />
<path d="M13.5960 35.6170
L13.4751 35.6775
" />
<path d="M13.4751 35.6775
L13.0517 35.6775
" />
<path d="M14.8660 35.4961
L14.8660 36.3427
" />
<path d="M14.5636 35.0123
L14.2613 35.9194
" />
<path d="M14.2613 35.9194
L15.0474 35.9194
" />
</g></g>
<g style="fill:none; 
stroke:#A90000; stroke-width:0.1524; stroke-opacity:1; 
stroke-linecap:round; stroke-linejoin:round;">
<text x="6.5532" y="35.5092"
textLength="2.6222" font-size="1.6933" lengthAdjust="spacingAndGlyphs"
text-anchor="middle" opacity="0" stroke-opacity="0">11</text>
<g class="stroked-text"><desc>11</desc>
<path d="M6.3113 35.3457
L5.5856 35.3457
" />
<path d="M5.9484 35.3457
L5.9484 34.0757
" />
<path d="M5.9484 34.0757
L5.8275 34.2572
" />
<path d="M5.8275 34.2572
L5.7065 34.3781
" />
<path d="M5.7065 34.3781
L5.5856 34.4386
" />
<path d="M7.5208 35.3457
L6.7951 35.3457
" />
<path d="M7.1579 35.3457
L7.1579 34.0757
" />
<path d="M7.1579 34.0757
L7.0370 34.2572
" />
<path d="M7.0370 34.2572
L6.9160 34.3781
" />
<path d="M6.9160 34.3781
L6.7951 34.4386
" />
</g></g>
<g style="fill:none; 
stroke:#840000; stroke-width:0.1524; stroke-opacity:1; 
stroke-linecap:round; stroke-linejoin:round;">
<path d="M9.0932 38.3032
L4.0132 38.3032
" />
</g>
<g style="fill:none; 
stroke:#006464; stroke-width:0.1524; stroke-opacity:1; 
stroke-linecap:round; stroke-linejoin:round;">
<text x="10.1092" y="38.9382"
textLength="5.2227" font-size="1.6933" lengthAdjust="spacingAndGlyphs"
text-anchor="start" opacity="0" stroke-opacity="0">9/B5</text>
<g class="stroked-text"><desc>9/B5</desc>
<path d="M10.5722 38.8827
L10.8141 38.8827
" />
<path d="M10.8141 38.8827
L10.9351 38.8223
" />
<path d="M10.9351 38.8223
L10.9955 38.7618
" />
<path d="M10.9955 38.7618
L11.1165 38.5803
" />
<path d="M11.1165 38.5803
L11.1770 38.3384
" />
<path d="M11.1770 38.3384
L11.1770 37.8546
" />
<path d="M11.1770 37.8546
L11.1165 37.7337
" />
<path d="M11.1165 37.7337
L11.0560 37.6732
" />
<path d="M11.0560 37.6732
L10.9351 37.6127
" />
<path d="M10.9351 37.6127
L10.6932 37.6127
" />
<path d="M10.6932 37.6127
L10.5722 37.6732
" />
<path d="M10.5722 37.6732
L10.5117 37.7337
" />
<path d="M10.5117 37.7337
L10.4513 37.8546
" />
<path d="M10.4513 37.8546
L10.4513 38.1570
" />
<path d="M10.4513 38.1570
L10.5117 38.2780
" />
<path d="M10.5117 38.2780
L10.5722 38.3384
" />
<path d="M10.5722 38.3384
L10.6932 38.3989
" />
<path d="M10.6932 38.3989
L10.9351 38.3989
" />
<path d="M10.9351 38.3989
L11.0560 38.3384
" />
<path d="M11.0560 38.3384
L11.1165 38.2780
" />
<path d="M11.1165 38.2780
L11.1770 38.1570
" />
<path d="M12.6284 37.5523
L11.5398 39.1851
" />
<path d="M13.4751 38.2175
L13.6565 38.2780
" />
<path d="M13.6565 38.2780
L13.7170 38.3384
" />
<path d="M13.7170 38.3384
L13.7774 38.4594
" />
<path d="M13.7774 38.4594
L13.7774 38.6408
" />
<path d="M13.7774 38.6408
L13.7170 38.7618
" />
<path d="M13.7170 38.7618
L13.6565 38.8223
" />
<path d="M13.6565 38.8223
L13.5355 38.8827
" />
<path d="M13.5355 38.8827
L13.0517 38.8827
" />
<path d="M13.0517 38.8827
L13.0517 37.6127
" />
<path d="M13.0517 37.6127
L13.4751 37.6127
" />
<path d="M13.4751 37.6127
L13.5960 37.6732
" />
<path d="M13.5960 37.6732
L13.6565 37.7337
" />
<path d="M13.6565 37.7337
L13.7170 37.8546
" />
<path d="M13.7170 37.8546
L13.7170 37.9756
" />
<path d="M13.7170 37.9756
L13.6565 38.0965
" />
<path d="M13.6565 38.0965
L13.5960 38.1570
" />
<path d="M13.5960 38.1570
L13.4751 38.2175
" />
<path d="M13.4751 38.2175
L13.0517 38.2175
" />
<path d="M14.9265 37.6127
L14.3217 37.6127
" />
<path d="M14.3217 37.6127
L14.2613 38.2175
" />
<path d="M14.2613 38.2175
L14.3217 38.1570
" />
<path d="M14.3217 38.1570
L14.4427 38.0965
" />
<path d="M14.4427 38.0965
L14.7451 38.0965
" />
<path d="M14.7451 38.0965
L14.8660 38.1570
" />
<path d="M14.8660 38.1570
L14.9265 38.2175
" />
<path d="M14.9265 38.2175
L14.9870 38.3384
" />
<path d="M14.9870 38.3384
L14.9870 38.6408
" />
<path d="M14.9870 38.6408
L14.9265 38.7618
" />
<path d="M14.9265 38.7618
L14.8660 38.8223
" />
<path d="M14.8660 38.8223
L14.7451 38.8827
" />
<path d="M14.7451 38.8827
L14.4427 38.8827
" />
<path d="M14.4427 38.8827
L14.3217 38.8223
" />
<path d="M14.3217 38.8223
L14.2613 38.7618
" />
</g></g>
<g style="fill:none; 
stroke:#A90000; stroke-width:0.1524; stroke-opacity:1; 
stroke-linecap:round; stroke-linejoin:round;">
<text x="6.5532" y="38.0492"
textLength="2.6222" font-size="1.6933" lengthAdjust="spacingAndGlyphs"
text-anchor="middle" opacity="0" stroke-opacity="0">12</text>
<g class="stroked-text"><desc>12</desc>
<path d="M6.3113 37.8857
L5.5856 37.8857
" />
<path d="M5.9484 37.8857
L5.9484 36.6157
" />
<path d="M5.9484 36.6157
L5.8275 36.7972
" />
<path d="M5.8275 36.7972
L5.7065 36.9181
" />
<path d="M5.7065 36.9181
L5.5856 36.9786
" />
<path d="M6.7951 36.7367
L6.8555 36.6762
" />
<path d="M6.8555 36.6762
L6.9765 36.6157
" />
<path d="M6.9765 36.6157
L7.2789 36.6157
" />
<path d="M7.2789 36.6157
L7.3998 36.6762
" />
<path d="M7.3998 36.6762
L7.4603 36.7367
" />
<path d="M7.4603 36.7367
L7.5208 36.8576
" />
<path d="M7.5208 36.8576
L7.5208 36.9786
" />
<path d="M7.5208 36.9786
L7.4603 37.1600
" />
<path d="M7.4603 37.1600
L6.7346 37.8857
" />
<path d="M6.7346 37.8857
L7.5208 37.8857
" />
</g></g>
<g style="fill:none; 
stroke:#840000; stroke-width:0.1524; stroke-opacity:1; 
stroke-linecap:round; stroke-linejoin:round;">
<path d="M34.4932 10.3632
L39.5732 10.3632
" />
</g>
<g style="fill:none; 
stroke:#006464; stroke-width:0.1524; stroke-opacity:1; 
stroke-linecap:round; stroke-linejoin:round;">
<text x="33.4772" y="10.9982"
textLength="4.0132" font-size="1.6933" lengthAdjust="spacingAndGlyphs"
text-anchor="end" opacity="0" stroke-opacity="0">RAW</text>
<g class="stroked-text"><desc>RAW</desc>
<path d="M30.5950 10.9427
L30.1717 10.3380
" />
<path d="M29.8693 10.9427
L29.8693 9.6727
" />
<path d="M29.8693 9.6727
L30.3531 9.6727
" />
<path d="M30.3531 9.6727
L30.4741 9.7332
" />
<path d="M30.4741 9.7332
L30.5346 9.7937
" />
<path d="M30.5346 9.7937
L30.5950 9.9146
" />
<path d="M30.5950 9.9146
L30.5950 10.0961
" />
<path d="M30.5950 10.0961
L30.5346 10.2170
" />
<path d="M30.5346 10.2170
L30.4741 10.2775
" />
<path d="M30.4741 10.2775
L30.3531 10.3380
" />
<path d="M30.3531 10.3380
L29.8693 10.3380
" />
<path d="M31.0789 10.5799
L31.6836 10.5799
" />
<path d="M30.9579 10.9427
L31.3812 9.6727
" />
<path d="M31.3812 9.6727
L31.8046 10.9427
" />
<path d="M32.1070 9.6727
L32.4094 10.9427
" />
<path d="M32.4094 10.9427
L32.6513 10.0356
" />
<path d="M32.6513 10.0356
L32.8932 10.9427
" />
<path d="M32.8932 10.9427
L33.1956 9.6727
" />
</g></g>
<g style="fill:none; 
stroke:#A90000; stroke-width:0.1524; stroke-opacity:1; 
stroke-linecap:round; stroke-linejoin:round;">
<text x="37.0332" y="10.1092"
textLength="2.6222" font-size="1.6933" lengthAdjust="spacingAndGlyphs"
text-anchor="middle" opacity="0" stroke-opacity="0">24</text>
<g class="stroked-text"><desc>24</desc>
<path d="M36.0656 8.7967
L36.1260 8.7362
" />
<path d="M36.1260 8.7362
L36.2470 8.6757
" />
<path d="M36.2470 8.6757
L36.5494 8.6757
" />
<path d="M36.5494 8.6757
L36.6703 8.7362
" />
<path d="M36.6703 8.7362
L36.7308 8.7967
" />
<path d="M36.7308 8.7967
L36.7913 8.9176
" />
<path d="M36.7913 8.9176
L36.7913 9.0386
" />
<path d="M36.7913 9.0386
L36.7308 9.2200
" />
<path d="M36.7308 9.2200
L36.0051 9.9457
" />
<path d="M36.0051 9.9457
L36.7913 9.9457
" />
<path d="M37.8798 9.0991
L37.8798 9.9457
" />
<path d="M37.5774 8.6153
L37.2751 9.5224
" />
<path d="M37.2751 9.5224
L38.0612 9.5224
" />
</g></g>
<g style="fill:none; 
stroke:#840000; stroke-width:0.1524; stroke-opacity:1; 
stroke-linecap:round; stroke-linejoin:round;">
<path d="M34.4932 12.9032
L39.5732 12.9032
" />
</g>
<g style="fill:none; 
stroke:#006464; stroke-width:0.1524; stroke-opacity:1; 
stroke-linecap:round; stroke-linejoin:round;">
<text x="33.4772" y="13.5382"
textLength="4.0737" font-size="1.6933" lengthAdjust="spacingAndGlyphs"
text-anchor="end" opacity="0" stroke-opacity="0">GND</text>
<g class="stroked-text"><desc>GND</desc>
<path d="M30.4741 12.2732
L30.3531 12.2127
" />
<path d="M30.3531 12.2127
L30.1717 12.2127
" />
<path d="M30.1717 12.2127
L29.9903 12.2732
" />
<path d="M29.9903 12.2732
L29.8693 12.3942
" />
<path d="M29.8693 12.3942
L29.8088 12.5151
" />
<path d="M29.8088 12.5151
L29.7484 12.7570
" />
<path d="M29.7484 12.7570
L29.7484 12.9384
" />
<path d="M29.7484 12.9384
L29.8088 13.1803
" />
<path d="M29.8088 13.1803
L29.8693 13.3013
" />
<path d="M29.8693 13.3013
L29.9903 13.4223
" />
<path d="M29.9903 13.4223
L30.1717 13.4827
" />
<path d="M30.1717 13.4827
L30.2926 13.4827
" />
<path d="M30.2926 13.4827
L30.4741 13.4223
" />
<path d="M30.4741 13.4223
L30.5345 13.3618
" />
<path d="M30.5345 13.3618
L30.5345 12.9384
" />
<path d="M30.5345 12.9384
L30.2926 12.9384
" />
<path d="M31.0788 13.4827
L31.0788 12.2127
" />
<path d="M31.0788 12.2127
L31.8045 13.4827
" />
<path d="M31.8045 13.4827
L31.8045 12.2127
" />
<path d="M32.4093 13.4827
L32.4093 12.2127
" />
<path d="M32.4093 12.2127
L32.7117 12.2127
" />
<path d="M32.7117 12.2127
L32.8931 12.2732
" />
<path d="M32.8931 12.2732
L33.0141 12.3942
" />
<path d="M33.0141 12.3942
L33.0746 12.5151
" />
<path d="M33.0746 12.5151
L33.1350 12.7570
" />
<path d="M33.1350 12.7570
L33.1350 12.9384
" />
<path d="M33.1350 12.9384
L33.0746 13.1803
" />
<path d="M33.0746 13.1803
L33.0141 13.3013
" />
<path d="M33.0141 13.3013
L32.8931 13.4223
" />
<path d="M32.8931 13.4223
L32.7117 13.4827
" />
<path d="M32.7117 13.4827
L32.4093 13.4827
" />
</g></g>
<g style="fill:none; 
stroke:#A90000; stroke-width:0.1524; stroke-opacity:1; 
stroke-linecap:round; stroke-linejoin:round;">
<text x="37.0332" y="12.6492"
textLength="2.6222" font-size="1.6933" lengthAdjust="spacingAndGlyphs"
text-anchor="middle" opacity="0" stroke-opacity="0">23</text>
<g class="stroked-text"><desc>23</desc>
<path d="M36.0656 11.3367
L36.1260 11.2762
" />
<path d="M36.1260 11.2762
L36.2470 11.2157
" />
<path d="M36.2470 11.2157
L36.5494 11.2157
" />
<path d="M36.5494 11.2157
L36.6703 11.2762
" />
<path d="M36.6703 11.2762
L36.7308 11.3367
" />
<path d="M36.7308 11.3367
L36.7913 11.4576
" />
<path d="M36.7913 11.4576
L36.7913 11.5786
" />
<path d="M36.7913 11.5786
L36.7308 11.7600
" />
<path d="M36.7308 11.7600
L36.0051 12.4857
" />
<path d="M36.0051 12.4857
L36.7913 12.4857
" />
<path d="M37.2146 11.2157
L38.0008 11.2157
" />
<path d="M38.0008 11.2157
L37.5774 11.6995
" />
<path d="M37.5774 11.6995
L37.7589 11.6995
" />
<path d="M37.7589 11.6995
L37.8798 11.7600
" />
<path d="M37.8798 11.7600
L37.9403 11.8205
" />
<path d="M37.9403 11.8205
L38.0008 11.9414
" />
<path d="M38.0008 11.9414
L38.0008 12.2438
" />
<path d="M38.0008 12.2438
L37.9403 12.3648
" />
<path d="M37.9403 12.3648
L37.8798 12.4253
" />
<path d="M37.8798 12.4253
L37.7589 12.4857
" />
<path d="M37.7589 12.4857
L37.3960 12.4857
" />
<path d="M37.3960 12.4857
L37.2751 12.4253
" />
<path d="M37.2751 12.4253
L37.2146 12.3648
" />
</g></g>
<g style="fill:none; 
stroke:#840000; stroke-width:0.1524; stroke-opacity:1; 
stroke-linecap:round; stroke-linejoin:round;">
<path d="M34.4932 15.4432
L39.5732 15.4432
" />
</g>
<g style="fill:none; 
stroke:#006464; stroke-width:0.1524; stroke-opacity:1; 
stroke-linecap:round; stroke-linejoin:round;">
<text x="33.4772" y="16.0782"
textLength="3.6503" font-size="1.6933" lengthAdjust="spacingAndGlyphs"
text-anchor="end" opacity="0" stroke-opacity="0">RST</text>
<g class="stroked-text"><desc>RST</desc>
<path d="M30.9579 16.0227
L30.5346 15.4180
" />
<path d="M30.2322 16.0227
L30.2322 14.7527
" />
<path d="M30.2322 14.7527
L30.7160 14.7527
" />
<path d="M30.7160 14.7527
L30.8370 14.8132
" />
<path d="M30.8370 14.8132
L30.8975 14.8737
" />
<path d="M30.8975 14.8737
L30.9579 14.9946
" />
<path d="M30.9579 14.9946
L30.9579 15.1761
" />
<path d="M30.9579 15.1761
L30.8975 15.2970
" />
<path d="M30.8975 15.2970
L30.8370 15.3575
" />
<path d="M30.8370 15.3575
L30.7160 15.4180
" />
<path d="M30.7160 15.4180
L30.2322 15.4180
" />
<path d="M31.4418 15.9623
L31.6232 16.0227
" />
<path d="M31.6232 16.0227
L31.9256 16.0227
" />
<path d="M31.9256 16.0227
L32.0465 15.9623
" />
<path d="M32.0465 15.9623
L32.1070 15.9018
" />
<path d="M32.1070 15.9018
L32.1675 15.7808
" />
<path d="M32.1675 15.7808
L32.1675 15.6599
" />
<path d="M32.1675 15.6599
L32.1070 15.5389
" />
<path d="M32.1070 15.5389
L32.0465 15.4784
" />
<path d="M32.0465 15.4784
L31.9256 15.4180
" />
<path d="M31.9256 15.4180
L31.6837 15.3575
" />
<path d="M31.6837 15.3575
L31.5627 15.2970
" />
<path d="M31.5627 15.2970
L31.5022 15.2365
" />
<path d="M31.5022 15.2365
L31.4418 15.1156
" />
<path d="M31.4418 15.1156
L31.4418 14.9946
" />
<path d="M31.4418 14.9946
L31.5022 14.8737
" />
<path d="M31.5022 14.8737
L31.5627 14.8132
" />
<path d="M31.5627 14.8132
L31.6837 14.7527
" />
<path d="M31.6837 14.7527
L31.9860 14.7527
" />
<path d="M31.9860 14.7527
L32.1675 14.8132
" />
<path d="M32.5303 14.7527
L33.2560 14.7527
" />
<path d="M32.8932 16.0227
L32.8932 14.7527
" />
</g></g>
<g style="fill:none; 
stroke:#A90000; stroke-width:0.1524; stroke-opacity:1; 
stroke-linecap:round; stroke-linejoin:round;">
<text x="37.0332" y="15.1892"
textLength="2.6222" font-size="1.6933" lengthAdjust="spacingAndGlyphs"
text-anchor="middle" opacity="0" stroke-opacity="0">22</text>
<g class="stroked-text"><desc>22</desc>
<path d="M36.0656 13.8767
L36.1260 13.8162
" />
<path d="M36.1260 13.8162
L36.2470 13.7557
" />
<path d="M36.2470 13.7557
L36.5494 13.7557
" />
<path d="M36.5494 13.7557
L36.6703 13.8162
" />
<path d="M36.6703 13.8162
L36.7308 13.8767
" />
<path d="M36.7308 13.8767
L36.7913 13.9976
" />
<path d="M36.7913 13.9976
L36.7913 14.1186
" />
<path d="M36.7913 14.1186
L36.7308 14.3000
" />
<path d="M36.7308 14.3000
L36.0051 15.0257
" />
<path d="M36.0051 15.0257
L36.7913 15.0257
" />
<path d="M37.2751 13.8767
L37.3355 13.8162
" />
<path d="M37.3355 13.8162
L37.4565 13.7557
" />
<path d="M37.4565 13.7557
L37.7589 13.7557
" />
<path d="M37.7589 13.7557
L37.8798 13.8162
" />
<path d="M37.8798 13.8162
L37.9403 13.8767
" />
<path d="M37.9403 13.8767
L38.0008 13.9976
" />
<path d="M38.0008 13.9976
L38.0008 14.1186
" />
<path d="M38.0008 14.1186
L37.9403 14.3000
" />
<path d="M37.9403 14.3000
L37.2146 15.0257
" />
<path d="M37.2146 15.0257
L38.0008 15.0257
" />
</g></g>
<g style="fill:none; 
stroke:#840000; stroke-width:0.1524; stroke-opacity:1; 
stroke-linecap:round; stroke-linejoin:round;">
<path d="M34.4932 17.9832
L39.5732 17.9832
" />
</g>
<g style="fill:none; 
stroke:#006464; stroke-width:0.1524; stroke-opacity:1; 
stroke-linecap:round; stroke-linejoin:round;">
<text x="33.4772" y="18.6182"
textLength="3.8318" font-size="1.6933" lengthAdjust="spacingAndGlyphs"
text-anchor="end" opacity="0" stroke-opacity="0">VCC</text>
<g class="stroked-text"><desc>VCC</desc>
<path d="M29.8693 17.2927
L30.2926 18.5627
" />
<path d="M30.2926 18.5627
L30.7160 17.2927
" />
<path d="M31.8650 18.4418
L31.8046 18.5023
" />
<path d="M31.8046 18.5023
L31.6231 18.5627
" />
<path d="M31.6231 18.5627
L31.5022 18.5627
" />
<path d="M31.5022 18.5627
L31.3208 18.5023
" />
<path d="M31.3208 18.5023
L31.1998 18.3813
" />
<path d="M31.1998 18.3813
L31.1393 18.2603
" />
<path d="M31.1393 18.2603
L31.0789 18.0184
" />
<path d="M31.0789 18.0184
L31.0789 17.8370
" />
<path d="M31.0789 17.8370
L31.1393 17.5951
" />
<path d="M31.1393 17.5951
L31.1998 17.4742
" />
<path d="M31.1998 17.4742
L31.3208 17.3532
" />
<path d="M31.3208 17.3532
L31.5022 17.2927
" />
<path d="M31.5022 17.2927
L31.6231 17.2927
" />
<path d="M31.6231 17.2927
L31.8046 17.3532
" />
<path d="M31.8046 17.3532
L31.8650 17.4137
" />
<path d="M33.1350 18.4418
L33.0746 18.5023
" />
<path d="M33.0746 18.5023
L32.8931 18.5627
" />
<path d="M32.8931 18.5627
L32.7722 18.5627
" />
<path d="M32.7722 18.5627
L32.5908 18.5023
" />
<path d="M32.5908 18.5023
L32.4698 18.3813
" />
<path d="M32.4698 18.3813
L32.4093 18.2603
" />
<path d="M32.4093 18.2603
L32.3489 18.0184
" />
<path d="M32.3489 18.0184
L32.3489 17.8370
" />
<path d="M32.3489 17.8370
L32.4093 17.5951
" />
<path d="M32.4093 17.5951
L32.4698 17.4742
" />
<path d="M32.4698 17.4742
L32.5908 17.3532
" />
<path d="M32.5908 17.3532
L32.7722 17.2927
" />
<path d="M32.7722 17.2927
L32.8931 17.2927
" />
<path d="M32.8931 17.2927
L33.0746 17.3532
" />
<path d="M33.0746 17.3532
L33.1350 17.4137
" />
</g></g>
<g style="fill:none; 
stroke:#A90000; stroke-width:0.1524; stroke-opacity:1; 
stroke-linecap:round; stroke-linejoin:round;">
<text x="37.0332" y="17.7292"
textLength="2.6222" font-size="1.6933" lengthAdjust="spacingAndGlyphs"
text-anchor="middle" opacity="0" stroke-opacity="0">21</text>
<g class="stroked-text"><desc>21</desc>
<path d="M36.0656 16.4167
L36.1260 16.3562
" />
<path d="M36.1260 16.3562
L36.2470 16.2957
" />
<path d="M36.2470 16.2957
L36.5494 16.2957
" />
<path d="M36.5494 16.2957
L36.6703 16.3562
" />
<path d="M36.6703 16.3562
L36.7308 16.4167
" />
<path d="M36.7308 16.4167
L36.7913 16.5376
" />
<path d="M36.7913 16.5376
L36.7913 16.6586
" />
<path d="M36.7913 16.6586
L36.7308 16.8400
" />
<path d="M36.7308 16.8400
L36.0051 17.5657
" />
<path d="M36.0051 17.5657
L36.7913 17.5657
" />
<path d="M38.0008 17.5657
L37.2751 17.5657
" />
<path d="M37.6379 17.5657
L37.6379 16.2957
" />
<path d="M37.6379 16.2957
L37.5170 16.4772
" />
<path d="M37.5170 16.4772
L37.3960 16.5981
" />
<path d="M37.3960 16.5981
L37.2751 16.6586
" />
</g></g>
<g style="fill:none; 
stroke:#840000; stroke-width:0.1524; stroke-opacity:1; 
stroke-linecap:round; stroke-linejoin:round;">
<path d="M34.4932 20.5232
L39.5732 20.5232
" />
</g>
<g style="fill:none; 
stroke:#006464; stroke-width:0.1524; stroke-opacity:1; 
stroke-linecap:round; stroke-linejoin:round;">
<text x="33.4772" y="21.1582"
textLength="6.1299" font-size="1.6933" lengthAdjust="spacingAndGlyphs"
text-anchor="end" opacity="0" stroke-opacity="0">F4/A3</text>
<g class="stroked-text"><desc>F4/A3</desc>
<path d="M28.1760 20.4375
L27.7526 20.4375
" />
<path d="M27.7526 21.1027
L27.7526 19.8327
" />
<path d="M27.7526 19.8327
L28.3574 19.8327
" />
<path d="M29.3855 20.2561
L29.3855 21.1027
" />
<path d="M29.0831 19.7723
L28.7808 20.6794
" />
<path d="M28.7808 20.6794
L29.5669 20.6794
" />
<path d="M30.9579 19.7723
L29.8693 21.4051
" />
<path d="M31.3208 20.7399
L31.9255 20.7399
" />
<path d="M31.1998 21.1027
L31.6231 19.8327
" />
<path d="M31.6231 19.8327
L32.0465 21.1027
" />
<path d="M32.3489 19.8327
L33.1351 19.8327
" />
<path d="M33.1351 19.8327
L32.7117 20.3165
" />
<path d="M32.7117 20.3165
L32.8932 20.3165
" />
<path d="M32.8932 20.3165
L33.0141 20.3770
" />
<path d="M33.0141 20.3770
L33.0746 20.4375
" />
<path d="M33.0746 20.4375
L33.1351 20.5584
" />
<path d="M33.1351 20.5584
L33.1351 20.8608
" />
<path d="M33.1351 20.8608
L33.0746 20.9818
" />
<path d="M33.0746 20.9818
L33.0141 21.0423
" />
<path d="M33.0141 21.0423
L32.8932 21.1027
" />
<path d="M32.8932 21.1027
L32.5303 21.1027
" />
<path d="M32.5303 21.1027
L32.4094 21.0423
" />
<path d="M32.4094 21.0423
L32.3489 20.9818
" />
</g></g>
<g style="fill:none; 
stroke:#A90000; stroke-width:0.1524; stroke-opacity:1; 
stroke-linecap:round; stroke-linejoin:round;">
<text x="37.0332" y="20.2692"
textLength="2.6222" font-size="1.6933" lengthAdjust="spacingAndGlyphs"
text-anchor="middle" opacity="0" stroke-opacity="0">20</text>
<g class="stroked-text"><desc>20</desc>
<path d="M36.0656 18.9567
L36.1260 18.8962
" />
<path d="M36.1260 18.8962
L36.2470 18.8357
" />
<path d="M36.2470 18.8357
L36.5494 18.8357
" />
<path d="M36.5494 18.8357
L36.6703 18.8962
" />
<path d="M36.6703 18.8962
L36.7308 18.9567
" />
<path d="M36.7308 18.9567
L36.7913 19.0776
" />
<path d="M36.7913 19.0776
L36.7913 19.1986
" />
<path d="M36.7913 19.1986
L36.7308 19.3800
" />
<path d="M36.7308 19.3800
L36.0051 20.1057
" />
<path d="M36.0051 20.1057
L36.7913 20.1057
" />
<path d="M37.5774 18.8357
L37.6984 18.8357
" />
<path d="M37.6984 18.8357
L37.8193 18.8962
" />
<path d="M37.8193 18.8962
L37.8798 18.9567
" />
<path d="M37.8798 18.9567
L37.9403 19.0776
" />
<path d="M37.9403 19.0776
L38.0008 19.3195
" />
<path d="M38.0008 19.3195
L38.0008 19.6219
" />
<path d="M38.0008 19.6219
L37.9403 19.8638
" />
<path d="M37.9403 19.8638
L37.8798 19.9848
" />
<path d="M37.8798 19.9848
L37.8193 20.0453
" />
<path d="M37.8193 20.0453
L37.6984 20.1057
" />
<path d="M37.6984 20.1057
L37.5774 20.1057
" />
<path d="M37.5774 20.1057
L37.4565 20.0453
" />
<path d="M37.4565 20.0453
L37.3960 19.9848
" />
<path d="M37.3960 19.9848
L37.3355 19.8638
" />
<path d="M37.3355 19.8638
L37.2751 19.6219
" />
<path d="M37.2751 19.6219
L37.2751 19.3195
" />
<path d="M37.2751 19.3195
L37.3355 19.0776
" />
<path d="M37.3355 19.0776
L37.3960 18.9567
" />
<path d="M37.3960 18.9567
L37.4565 18.8962
" />
<path d="M37.4565 18.8962
L37.5774 18.8357
" />
</g></g>
<g style="fill:none; 
stroke:#840000; stroke-width:0.1524; stroke-opacity:1; 
stroke-linecap:round; stroke-linejoin:round;">
<path d="M34.4932 23.0632
L39.5732 23.0632
" />
</g>
<g style="fill:none; 
stroke:#006464; stroke-width:0.1524; stroke-opacity:1; 
stroke-linecap:round; stroke-linejoin:round;">
<text x="33.4772" y="23.6982"
textLength="6.1299" font-size="1.6933" lengthAdjust="spacingAndGlyphs"
text-anchor="end" opacity="0" stroke-opacity="0">F5/A2</text>
<g class="stroked-text"><desc>F5/A2</desc>
<path d="M28.1760 22.9775
L27.7526 22.9775
" />
<path d="M27.7526 23.6427
L27.7526 22.3727
" />
<path d="M27.7526 22.3727
L28.3574 22.3727
" />
<path d="M29.4460 22.3727
L28.8412 22.3727
" />
<path d="M28.8412 22.3727
L28.7808 22.9775
" />
<path d="M28.7808 22.9775
L28.8412 22.9170
" />
<path d="M28.8412 22.9170
L28.9622 22.8565
" />
<path d="M28.9622 22.8565
L29.2646 22.8565
" />
<path d="M29.2646 22.8565
L29.3855 22.9170
" />
<path d="M29.3855 22.9170
L29.4460 22.9775
" />
<path d="M29.4460 22.9775
L29.5065 23.0984
" />
<path d="M29.5065 23.0984
L29.5065 23.4008
" />
<path d="M29.5065 23.4008
L29.4460 23.5218
" />
<path d="M29.4460 23.5218
L29.3855 23.5823
" />
<path d="M29.3855 23.5823
L29.2646 23.6427
" />
<path d="M29.2646 23.6427
L28.9622 23.6427
" />
<path d="M28.9622 23.6427
L28.8412 23.5823
" />
<path d="M28.8412 23.5823
L28.7808 23.5218
" />
<path d="M30.9579 22.3123
L29.8693 23.9451
" />
<path d="M31.3208 23.2799
L31.9255 23.2799
" />
<path d="M31.1998 23.6427
L31.6231 22.3727
" />
<path d="M31.6231 22.3727
L32.0465 23.6427
" />
<path d="M32.4094 22.4937
L32.4698 22.4332
" />
<path d="M32.4698 22.4332
L32.5908 22.3727
" />
<path d="M32.5908 22.3727
L32.8932 22.3727
" />
<path d="M32.8932 22.3727
L33.0141 22.4332
" />
<path d="M33.0141 22.4332
L33.0746 22.4937
" />
<path d="M33.0746 22.4937
L33.1351 22.6146
" />
<path d="M33.1351 22.6146
L33.1351 22.7356
" />
<path d="M33.1351 22.7356
L33.0746 22.9170
" />
<path d="M33.0746 22.9170
L32.3489 23.6427
" />
<path d="M32.3489 23.6427
L33.1351 23.6427
" />
</g></g>
<g style="fill:none; 
stroke:#A90000; stroke-width:0.1524; stroke-opacity:1; 
stroke-linecap:round; stroke-linejoin:round;">
<text x="37.0332" y="22.8092"
textLength="2.6222" font-size="1.6933" lengthAdjust="spacingAndGlyphs"
text-anchor="middle" opacity="0" stroke-opacity="0">19</text>
<g class="stroked-text"><desc>19</desc>
<path d="M36.7913 22.6457
L36.0656 22.6457
" />
<path d="M36.4284 22.6457
L36.4284 21.3757
" />
<path d="M36.4284 21.3757
L36.3075 21.5572
" />
<path d="M36.3075 21.5572
L36.1865 21.6781
" />
<path d="M36.1865 21.6781
L36.0656 21.7386
" />
<path d="M37.3960 22.6457
L37.6379 22.6457
" />
<path d="M37.6379 22.6457
L37.7589 22.5853
" />
<path d="M37.7589 22.5853
L37.8193 22.5248
" />
<path d="M37.8193 22.5248
L37.9403 22.3433
" />
<path d="M37.9403 22.3433
L38.0008 22.1014
" />
<path d="M38.0008 22.1014
L38.0008 21.6176
" />
<path d="M38.0008 21.6176
L37.9403 21.4967
" />
<path d="M37.9403 21.4967
L37.8798 21.4362
" />
<path d="M37.8798 21.4362
L37.7589 21.3757
" />
<path d="M37.7589 21.3757
L37.5170 21.3757
" />
<path d="M37.5170 21.3757
L37.3960 21.4362
" />
<path d="M37.3960 21.4362
L37.3355 21.4967
" />
<path d="M37.3355 21.4967
L37.2751 21.6176
" />
<path d="M37.2751 21.6176
L37.2751 21.9200
" />
<path d="M37.2751 21.9200
L37.3355 22.0410
" />
<path d="M37.3355 22.0410
L37.3960 22.1014
" />
<path d="M37.3960 22.1014
L37.5170 22.1619
" />
<path d="M37.5170 22.1619
L37.7589 22.1619
" />
<path d="M37.7589 22.1619
L37.8798 22.1014
" />
<path d="M37.8798 22.1014
L37.9403 22.0410
" />
<path d="M37.9403 22.0410
L38.0008 21.9200
" />
</g></g>
<g style="fill:none; 
stroke:#840000; stroke-width:0.1524; stroke-opacity:1; 
stroke-linecap:round; stroke-linejoin:round;">
<path d="M34.4932 25.6032
L39.5732 25.6032
" />
</g>
<g style="fill:none; 
stroke:#006464; stroke-width:0.1524; stroke-opacity:1; 
stroke-linecap:round; stroke-linejoin:round;">
<text x="33.4772" y="26.2382"
textLength="6.1299" font-size="1.6933" lengthAdjust="spacingAndGlyphs"
text-anchor="end" opacity="0" stroke-opacity="0">F6/A1</text>
<g class="stroked-text"><desc>F6/A1</desc>
<path d="M28.1760 25.5175
L27.7526 25.5175
" />
<path d="M27.7526 26.1827
L27.7526 24.9127
" />
<path d="M27.7526 24.9127
L28.3574 24.9127
" />
<path d="M29.3855 24.9127
L29.1436 24.9127
" />
<path d="M29.1436 24.9127
L29.0227 24.9732
" />
<path d="M29.0227 24.9732
L28.9622 25.0337
" />
<path d="M28.9622 25.0337
L28.8412 25.2151
" />
<path d="M28.8412 25.2151
L28.7808 25.4570
" />
<path d="M28.7808 25.4570
L28.7808 25.9408
" />
<path d="M28.7808 25.9408
L28.8412 26.0618
" />
<path d="M28.8412 26.0618
L28.9017 26.1223
" />
<path d="M28.9017 26.1223
L29.0227 26.1827
" />
<path d="M29.0227 26.1827
L29.2646 26.1827
" />
<path d="M29.2646 26.1827
L29.3855 26.1223
" />
<path d="M29.3855 26.1223
L29.4460 26.0618
" />
<path d="M29.4460 26.0618
L29.5065 25.9408
" />
<path d="M29.5065 25.9408
L29.5065 25.6384
" />
<path d="M29.5065 25.6384
L29.4460 25.5175
" />
<path d="M29.4460 25.5175
L29.3855 25.4570
" />
<path d="M29.3855 25.4570
L29.2646 25.3965
" />
<path d="M29.2646 25.3965
L29.0227 25.3965
" />
<path d="M29.0227 25.3965
L28.9017 25.4570
" />
<path d="M28.9017 25.4570
L28.8412 25.5175
" />
<path d="M28.8412 25.5175
L28.7808 25.6384
" />
<path d="M30.9579 24.8523
L29.8693 26.4851
" />
<path d="M31.3208 25.8199
L31.9255 25.8199
" />
<path d="M31.1998 26.1827
L31.6231 24.9127
" />
<path d="M31.6231 24.9127
L32.0465 26.1827
" />
<path d="M33.1351 26.1827
L32.4094 26.1827
" />
<path d="M32.7722 26.1827
L32.7722 24.9127
" />
<path d="M32.7722 24.9127
L32.6513 25.0942
" />
<path d="M32.6513 25.0942
L32.5303 25.2151
" />
<path d="M32.5303 25.2151
L32.4094 25.2756
" />
</g></g>
<g style="fill:none; 
stroke:#A90000; stroke-width:0.1524; stroke-opacity:1; 
stroke-linecap:round; stroke-linejoin:round;">
<text x="37.0332" y="25.3492"
textLength="2.6222" font-size="1.6933" lengthAdjust="spacingAndGlyphs"
text-anchor="middle" opacity="0" stroke-opacity="0">18</text>
<g class="stroked-text"><desc>18</desc>
<path d="M36.7913 25.1857
L36.0656 25.1857
" />
<path d="M36.4284 25.1857
L36.4284 23.9157
" />
<path d="M36.4284 23.9157
L36.3075 24.0972
" />
<path d="M36.3075 24.0972
L36.1865 24.2181
" />
<path d="M36.1865 24.2181
L36.0656 24.2786
" />
<path d="M37.5170 24.4600
L37.3960 24.3995
" />
<path d="M37.3960 24.3995
L37.3355 24.3391
" />
<path d="M37.3355 24.3391
L37.2751 24.2181
" />
<path d="M37.2751 24.2181
L37.2751 24.1576
" />
<path d="M37.2751 24.1576
L37.3355 24.0367
" />
<path d="M37.3355 24.0367
L37.3960 23.9762
" />
<path d="M37.3960 23.9762
L37.5170 23.9157
" />
<path d="M37.5170 23.9157
L37.7589 23.9157
" />
<path d="M37.7589 23.9157
L37.8798 23.9762
" />
<path d="M37.8798 23.9762
L37.9403 24.0367
" />
<path d="M37.9403 24.0367
L38.0008 24.1576
" />
<path d="M38.0008 24.1576
L38.0008 24.2181
" />
<path d="M38.0008 24.2181
L37.9403 24.3391
" />
<path d="M37.9403 24.3391
L37.8798 24.3995
" />
<path d="M37.8798 24.3995
L37.7589 24.4600
" />
<path d="M37.7589 24.4600
L37.5170 24.4600
" />
<path d="M37.5170 24.4600
L37.3960 24.5205
" />
<path d="M37.3960 24.5205
L37.3355 24.5810
" />
<path d="M37.3355 24.5810
L37.2751 24.7019
" />
<path d="M37.2751 24.7019
L37.2751 24.9438
" />
<path d="M37.2751 24.9438
L37.3355 25.0648
" />
<path d="M37.3355 25.0648
L37.3960 25.1253
" />
<path d="M37.3960 25.1253
L37.5170 25.1857
" />
<path d="M37.5170 25.1857
L37.7589 25.1857
" />
<path d="M37.7589 25.1857
L37.8798 25.1253
" />
<path d="M37.8798 25.1253
L37.9403 25.0648
" />
<path d="M37.9403 25.0648
L38.0008 24.9438
" />
<path d="M38.0008 24.9438
L38.0008 24.7019
" />
<path d="M38.0008 24.7019
L37.9403 24.5810
" />
<path d="M37.9403 24.5810
L37.8798 24.5205
" />
<path d="M37.8798 24.5205
L37.7589 24.4600
" />
</g></g>
<g style="fill:none; 
stroke:#840000; stroke-width:0.1524; stroke-opacity:1; 
stroke-linecap:round; stroke-linejoin:round;">
<path d="M34.4932 28.1432
L39.5732 28.1432
" />
</g>
<g style="fill:none; 
stroke:#006464; stroke-width:0.1524; stroke-opacity:1; 
stroke-linecap:round; stroke-linejoin:round;">
<text x="33.4772" y="28.7782"
textLength="6.1299" font-size="1.6933" lengthAdjust="spacingAndGlyphs"
text-anchor="end" opacity="0" stroke-opacity="0">F7/A0</text>
<g class="stroked-text"><desc>F7/A0</desc>
<path d="M28.1760 28.0575
L27.7526 28.0575
" />
<path d="M27.7526 28.7227
L27.7526 27.4527
" />
<path d="M27.7526 27.4527
L28.3574 27.4527
" />
<path d="M28.7203 27.4527
L29.5669 27.4527
" />
<path d="M29.5669 27.4527
L29.0227 28.7227
" />
<path d="M30.9579 27.3923
L29.8693 29.0251
" />
<path d="M31.3208 28.3599
L31.9255 28.3599
" />
<path d="M31.1998 28.7227
L31.6231 27.4527
" />
<path d="M31.6231 27.4527
L32.0465 28.7227
" />
<path d="M32.7117 27.4527
L32.8327 27.4527
" />
<path d="M32.8327 27.4527
L32.9536 27.5132
" />
<path d="M32.9536 27.5132
L33.0141 27.5737
" />
<path d="M33.0141 27.5737
L33.0746 27.6946
" />
<path d="M33.0746 27.6946
L33.1351 27.9365
" />
<path d="M33.1351 27.9365
L33.1351 28.2389
" />
<path d="M33.1351 28.2389
L33.0746 28.4808
" />
<path d="M33.0746 28.4808
L33.0141 28.6018
" />
<path d="M33.0141 28.6018
L32.9536 28.6623
" />
<path d="M32.9536 28.6623
L32.8327 28.7227
" />
<path d="M32.8327 28.7227
L32.7117 28.7227
" />
<path d="M32.7117 28.7227
L32.5908 28.6623
" />
<path d="M32.5908 28.6623
L32.5303 28.6018
" />
<path d="M32.5303 28.6018
L32.4698 28.4808
" />
<path d="M32.4698 28.4808
L32.4094 28.2389
" />
<path d="M32.4094 28.2389
L32.4094 27.9365
" />
<path d="M32.4094 27.9365
L32.4698 27.6946
" />
<path d="M32.4698 27.6946
L32.5303 27.5737
" />
<path d="M32.5303 27.5737
L32.5908 27.5132
" />
<path d="M32.5908 27.5132
L32.7117 27.4527
" />
</g></g>
<g style="fill:none; 
stroke:#A90000; stroke-width:0.1524; stroke-opacity:1; 
stroke-linecap:round; stroke-linejoin:round;">
<text x="37.0332" y="27.8892"
textLength="2.6222" font-size="1.6933" lengthAdjust="spacingAndGlyphs"
text-anchor="middle" opacity="0" stroke-opacity="0">17</text>
<g class="stroked-text"><desc>17</desc>
<path d="M36.7913 27.7257
L36.0656 27.7257
" />
<path d="M36.4284 27.7257
L36.4284 26.4557
" />
<path d="M36.4284 26.4557
L36.3075 26.6372
" />
<path d="M36.3075 26.6372
L36.1865 26.7581
" />
<path d="M36.1865 26.7581
L36.0656 26.8186
" />
<path d="M37.2146 26.4557
L38.0612 26.4557
" />
<path d="M38.0612 26.4557
L37.5170 27.7257
" />
</g></g>
<g style="fill:none; 
stroke:#840000; stroke-width:0.1524; stroke-opacity:1; 
stroke-linecap:round; stroke-linejoin:round;">
<path d="M34.4932 30.6832
L39.5732 30.6832
" />
</g>
<g style="fill:none; 
stroke:#006464; stroke-width:0.1524; stroke-opacity:1; 
stroke-linecap:round; stroke-linejoin:round;">
<text x="33.4772" y="31.3182"
textLength="6.4322" font-size="1.6933" lengthAdjust="spacingAndGlyphs"
text-anchor="end" opacity="0" stroke-opacity="0">B1/15</text>
<g class="stroked-text"><desc>B1/15</desc>
<path d="M27.8737 30.5975
L28.0551 30.6580
" />
<path d="M28.0551 30.6580
L28.1156 30.7184
" />
<path d="M28.1156 30.7184
L28.1760 30.8394
" />
<path d="M28.1760 30.8394
L28.1760 31.0208
" />
<path d="M28.1760 31.0208
L28.1156 31.1418
" />
<path d="M28.1156 31.1418
L28.0551 31.2023
" />
<path d="M28.0551 31.2023
L27.9341 31.2627
" />
<path d="M27.9341 31.2627
L27.4503 31.2627
" />
<path d="M27.4503 31.2627
L27.4503 29.9927
" />
<path d="M27.4503 29.9927
L27.8737 29.9927
" />
<path d="M27.8737 29.9927
L27.9946 30.0532
" />
<path d="M27.9946 30.0532
L28.0551 30.1137
" />
<path d="M28.0551 30.1137
L28.1156 30.2346
" />
<path d="M28.1156 30.2346
L28.1156 30.3556
" />
<path d="M28.1156 30.3556
L28.0551 30.4765
" />
<path d="M28.0551 30.4765
L27.9946 30.5370
" />
<path d="M27.9946 30.5370
L27.8737 30.5975
" />
<path d="M27.8737 30.5975
L27.4503 30.5975
" />
<path d="M29.3856 31.2627
L28.6599 31.2627
" />
<path d="M29.0227 31.2627
L29.0227 29.9927
" />
<path d="M29.0227 29.9927
L28.9018 30.1742
" />
<path d="M28.9018 30.1742
L28.7808 30.2951
" />
<path d="M28.7808 30.2951
L28.6599 30.3556
" />
<path d="M30.8370 29.9323
L29.7484 31.5651
" />
<path d="M31.9256 31.2627
L31.1999 31.2627
" />
<path d="M31.5627 31.2627
L31.5627 29.9927
" />
<path d="M31.5627 29.9927
L31.4418 30.1742
" />
<path d="M31.4418 30.1742
L31.3208 30.2951
" />
<path d="M31.3208 30.2951
L31.1999 30.3556
" />
<path d="M33.0746 29.9927
L32.4698 29.9927
" />
<path d="M32.4698 29.9927
L32.4094 30.5975
" />
<path d="M32.4094 30.5975
L32.4698 30.5370
" />
<path d="M32.4698 30.5370
L32.5908 30.4765
" />
<path d="M32.5908 30.4765
L32.8932 30.4765
" />
<path d="M32.8932 30.4765
L33.0141 30.5370
" />
<path d="M33.0141 30.5370
L33.0746 30.5975
" />
<path d="M33.0746 30.5975
L33.1351 30.7184
" />
<path d="M33.1351 30.7184
L33.1351 31.0208
" />
<path d="M33.1351 31.0208
L33.0746 31.1418
" />
<path d="M33.0746 31.1418
L33.0141 31.2023
" />
<path d="M33.0141 31.2023
L32.8932 31.2627
" />
<path d="M32.8932 31.2627
L32.5908 31.2627
" />
<path d="M32.5908 31.2627
L32.4698 31.2023
" />
<path d="M32.4698 31.2023
L32.4094 31.1418
" />
</g></g>
<g style="fill:none; 
stroke:#A90000; stroke-width:0.1524; stroke-opacity:1; 
stroke-linecap:round; stroke-linejoin:round;">
<text x="37.0332" y="30.4292"
textLength="2.6222" font-size="1.6933" lengthAdjust="spacingAndGlyphs"
text-anchor="middle" opacity="0" stroke-opacity="0">16</text>
<g class="stroked-text"><desc>16</desc>
<path d="M36.7913 30.2657
L36.0656 30.2657
" />
<path d="M36.4284 30.2657
L36.4284 28.9957
" />
<path d="M36.4284 28.9957
L36.3075 29.1772
" />
<path d="M36.3075 29.1772
L36.1865 29.2981
" />
<path d="M36.1865 29.2981
L36.0656 29.3586
" />
<path d="M37.8798 28.9957
L37.6379 28.9957
" />
<path d="M37.6379 28.9957
L37.5170 29.0562
" />
<path d="M37.5170 29.0562
L37.4565 29.1167
" />
<path d="M37.4565 29.1167
L37.3355 29.2981
" />
<path d="M37.3355 29.2981
L37.2751 29.5400
" />
<path d="M37.2751 29.5400
L37.2751 30.0238
" />
<path d="M37.2751 30.0238
L37.3355 30.1448
" />
<path d="M37.3355 30.1448
L37.3960 30.2053
" />
<path d="M37.3960 30.2053
L37.5170 30.2657
" />
<path d="M37.5170 30.2657
L37.7589 30.2657
" />
<path d="M37.7589 30.2657
L37.8798 30.2053
" />
<path d="M37.8798 30.2053
L37.9403 30.1448
" />
<path d="M37.9403 30.1448
L38.0008 30.0238
" />
<path d="M38.0008 30.0238
L38.0008 29.7214
" />
<path d="M38.0008 29.7214
L37.9403 29.6005
" />
<path d="M37.9403 29.6005
L37.8798 29.5400
" />
<path d="M37.8798 29.5400
L37.7589 29.4795
" />
<path d="M37.7589 29.4795
L37.5170 29.4795
" />
<path d="M37.5170 29.4795
L37.3960 29.5400
" />
<path d="M37.3960 29.5400
L37.3355 29.6005
" />
<path d="M37.3355 29.6005
L37.2751 29.7214
" />
</g></g>
<g style="fill:none; 
stroke:#840000; stroke-width:0.1524; stroke-opacity:1; 
stroke-linecap:round; stroke-linejoin:round;">
<path d="M34.4932 33.2232
L39.5732 33.2232
" />
</g>
<g style="fill:none; 
stroke:#006464; stroke-width:0.1524; stroke-opacity:1; 
stroke-linecap:round; stroke-linejoin:round;">
<text x="33.4772" y="33.8582"
textLength="6.4322" font-size="1.6933" lengthAdjust="spacingAndGlyphs"
text-anchor="end" opacity="0" stroke-opacity="0">B3/14</text>
<g class="stroked-text"><desc>B3/14</desc>
<path d="M27.8737 33.1375
L28.0551 33.1980
" />
<path d="M28.0551 33.1980
L28.1156 33.2584
" />
<path d="M28.1156 33.2584
L28.1760 33.3794
" />
<path d="M28.1760 33.3794
L28.1760 33.5608
" />
<path d="M28.1760 33.5608
L28.1156 33.6818
" />
<path d="M28.1156 33.6818
L28.0551 33.7423
" />
<path d="M28.0551 33.7423
L27.9341 33.8027
" />
<path d="M27.9341 33.8027
L27.4503 33.8027
" />
<path d="M27.4503 33.8027
L27.4503 32.5327
" />
<path d="M27.4503 32.5327
L27.8737 32.5327
" />
<path d="M27.8737 32.5327
L27.9946 32.5932
" />
<path d="M27.9946 32.5932
L28.0551 32.6537
" />
<path d="M28.0551 32.6537
L28.1156 32.7746
" />
<path d="M28.1156 32.7746
L28.1156 32.8956
" />
<path d="M28.1156 32.8956
L28.0551 33.0165
" />
<path d="M28.0551 33.0165
L27.9946 33.0770
" />
<path d="M27.9946 33.0770
L27.8737 33.1375
" />
<path d="M27.8737 33.1375
L27.4503 33.1375
" />
<path d="M28.5994 32.5327
L29.3856 32.5327
" />
<path d="M29.3856 32.5327
L28.9622 33.0165
" />
<path d="M28.9622 33.0165
L29.1437 33.0165
" />
<path d="M29.1437 33.0165
L29.2646 33.0770
" />
<path d="M29.2646 33.0770
L29.3251 33.1375
" />
<path d="M29.3251 33.1375
L29.3856 33.2584
" />
<path d="M29.3856 33.2584
L29.3856 33.5608
" />
<path d="M29.3856 33.5608
L29.3251 33.6818
" />
<path d="M29.3251 33.6818
L29.2646 33.7423
" />
<path d="M29.2646 33.7423
L29.1437 33.8027
" />
<path d="M29.1437 33.8027
L28.7808 33.8027
" />
<path d="M28.7808 33.8027
L28.6599 33.7423
" />
<path d="M28.6599 33.7423
L28.5994 33.6818
" />
<path d="M30.8370 32.4723
L29.7484 34.1051
" />
<path d="M31.9256 33.8027
L31.1999 33.8027
" />
<path d="M31.5627 33.8027
L31.5627 32.5327
" />
<path d="M31.5627 32.5327
L31.4418 32.7142
" />
<path d="M31.4418 32.7142
L31.3208 32.8351
" />
<path d="M31.3208 32.8351
L31.1999 32.8956
" />
<path d="M33.0141 32.9561
L33.0141 33.8027
" />
<path d="M32.7117 32.4723
L32.4094 33.3794
" />
<path d="M32.4094 33.3794
L33.1955 33.3794
" />
</g></g>
<g style="fill:none; 
stroke:#A90000; stroke-width:0.1524; stroke-opacity:1; 
stroke-linecap:round; stroke-linejoin:round;">
<text x="37.0332" y="32.9692"
textLength="2.6222" font-size="1.6933" lengthAdjust="spacingAndGlyphs"
text-anchor="middle" opacity="0" stroke-opacity="0">15</text>
<g class="stroked-text"><desc>15</desc>
<path d="M36.7913 32.8057
L36.0656 32.8057
" />
<path d="M36.4284 32.8057
L36.4284 31.5357
" />
<path d="M36.4284 31.5357
L36.3075 31.7172
" />
<path d="M36.3075 31.7172
L36.1865 31.8381
" />
<path d="M36.1865 31.8381
L36.0656 31.8986
" />
<path d="M37.9403 31.5357
L37.3355 31.5357
" />
<path d="M37.3355 31.5357
L37.2751 32.1405
" />
<path d="M37.2751 32.1405
L37.3355 32.0800
" />
<path d="M37.3355 32.0800
L37.4565 32.0195
" />
<path d="M37.4565 32.0195
L37.7589 32.0195
" />
<path d="M37.7589 32.0195
L37.8798 32.0800
" />
<path d="M37.8798 32.0800
L37.9403 32.1405
" />
<path d="M37.9403 32.1405
L38.0008 32.2614
" />
<path d="M38.0008 32.2614
L38.0008 32.5638
" />
<path d="M38.0008 32.5638
L37.9403 32.6848
" />
<path d="M37.9403 32.6848
L37.8798 32.7453
" />
<path d="M37.8798 32.7453
L37.7589 32.8057
" />
<path d="M37.7589 32.8057
L37.4565 32.8057
" />
<path d="M37.4565 32.8057
L37.3355 32.7453
" />
<path d="M37.3355 32.7453
L37.2751 32.6848
" />
</g></g>
<g style="fill:none; 
stroke:#840000; stroke-width:0.1524; stroke-opacity:1; 
stroke-linecap:round; stroke-linejoin:round;">
<path d="M34.4932 35.7632
L39.5732 35.7632
" />
</g>
<g style="fill:none; 
stroke:#006464; stroke-width:0.1524; stroke-opacity:1; 
stroke-linecap:round; stroke-linejoin:round;">
<text x="33.4772" y="36.3982"
textLength="6.4322" font-size="1.6933" lengthAdjust="spacingAndGlyphs"
text-anchor="end" opacity="0" stroke-opacity="0">B2/16</text>
<g class="stroked-text"><desc>B2/16</desc>
<path d="M27.8737 35.6775
L28.0551 35.7380
" />
<path d="M28.0551 35.7380
L28.1156 35.7984
" />
<path d="M28.1156 35.7984
L28.1760 35.9194
" />
<path d="M28.1760 35.9194
L28.1760 36.1008
" />
<path d="M28.1760 36.1008
L28.1156 36.2218
" />
<path d="M28.1156 36.2218
L28.0551 36.2823
" />
<path d="M28.0551 36.2823
L27.9341 36.3427
" />
<path d="M27.9341 36.3427
L27.4503 36.3427
" />
<path d="M27.4503 36.3427
L27.4503 35.0727
" />
<path d="M27.4503 35.0727
L27.8737 35.0727
" />
<path d="M27.8737 35.0727
L27.9946 35.1332
" />
<path d="M27.9946 35.1332
L28.0551 35.1937
" />
<path d="M28.0551 35.1937
L28.1156 35.3146
" />
<path d="M28.1156 35.3146
L28.1156 35.4356
" />
<path d="M28.1156 35.4356
L28.0551 35.5565
" />
<path d="M28.0551 35.5565
L27.9946 35.6170
" />
<path d="M27.9946 35.6170
L27.8737 35.6775
" />
<path d="M27.8737 35.6775
L27.4503 35.6775
" />
<path d="M28.6599 35.1937
L28.7203 35.1332
" />
<path d="M28.7203 35.1332
L28.8413 35.0727
" />
<path d="M28.8413 35.0727
L29.1437 35.0727
" />
<path d="M29.1437 35.0727
L29.2646 35.1332
" />
<path d="M29.2646 35.1332
L29.3251 35.1937
" />
<path d="M29.3251 35.1937
L29.3856 35.3146
" />
<path d="M29.3856 35.3146
L29.3856 35.4356
" />
<path d="M29.3856 35.4356
L29.3251 35.6170
" />
<path d="M29.3251 35.6170
L28.5994 36.3427
" />
<path d="M28.5994 36.3427
L29.3856 36.3427
" />
<path d="M30.8370 35.0123
L29.7484 36.6451
" />
<path d="M31.9256 36.3427
L31.1999 36.3427
" />
<path d="M31.5627 36.3427
L31.5627 35.0727
" />
<path d="M31.5627 35.0727
L31.4418 35.2542
" />
<path d="M31.4418 35.2542
L31.3208 35.3751
" />
<path d="M31.3208 35.3751
L31.1999 35.4356
" />
<path d="M33.0141 35.0727
L32.7722 35.0727
" />
<path d="M32.7722 35.0727
L32.6513 35.1332
" />
<path d="M32.6513 35.1332
L32.5908 35.1937
" />
<path d="M32.5908 35.1937
L32.4698 35.3751
" />
<path d="M32.4698 35.3751
L32.4094 35.6170
" />
<path d="M32.4094 35.6170
L32.4094 36.1008
" />
<path d="M32.4094 36.1008
L32.4698 36.2218
" />
<path d="M32.4698 36.2218
L32.5303 36.2823
" />
<path d="M32.5303 36.2823
L32.6513 36.3427
" />
<path d="M32.6513 36.3427
L32.8932 36.3427
" />
<path d="M32.8932 36.3427
L33.0141 36.2823
" />
<path d="M33.0141 36.2823
L33.0746 36.2218
" />
<path d="M33.0746 36.2218
L33.1351 36.1008
" />
<path d="M33.1351 36.1008
L33.1351 35.7984
" />
<path d="M33.1351 35.7984
L33.0746 35.6775
" />
<path d="M33.0746 35.6775
L33.0141 35.6170
" />
<path d="M33.0141 35.6170
L32.8932 35.5565
" />
<path d="M32.8932 35.5565
L32.6513 35.5565
" />
<path d="M32.6513 35.5565
L32.5303 35.6170
" />
<path d="M32.5303 35.6170
L32.4698 35.6775
" />
<path d="M32.4698 35.6775
L32.4094 35.7984
" />
</g></g>
<g style="fill:none; 
stroke:#A90000; stroke-width:0.1524; stroke-opacity:1; 
stroke-linecap:round; stroke-linejoin:round;">
<text x="37.0332" y="35.5092"
textLength="2.6222" font-size="1.6933" lengthAdjust="spacingAndGlyphs"
text-anchor="middle" opacity="0" stroke-opacity="0">14</text>
<g class="stroked-text"><desc>14</desc>
<path d="M36.7913 35.3457
L36.0656 35.3457
" />
<path d="M36.4284 35.3457
L36.4284 34.0757
" />
<path d="M36.4284 34.0757
L36.3075 34.2572
" />
<path d="M36.3075 34.2572
L36.1865 34.3781
" />
<path d="M36.1865 34.3781
L36.0656 34.4386
" />
<path d="M37.8798 34.4991
L37.8798 35.3457
" />
<path d="M37.5774 34.0153
L37.2751 34.9224
" />
<path d="M37.2751 34.9224
L38.0612 34.9224
" />
</g></g>
<g style="fill:none; 
stroke:#840000; stroke-width:0.1524; stroke-opacity:1; 
stroke-linecap:round; stroke-linejoin:round;">
<path d="M34.4932 38.3032
L39.5732 38.3032
" />
</g>
<g style="fill:none; 
stroke:#006464; stroke-width:0.1524; stroke-opacity:1; 
stroke-linecap:round; stroke-linejoin:round;">
<text x="33.4772" y="38.9382"
textLength="6.4322" font-size="1.6933" lengthAdjust="spacingAndGlyphs"
text-anchor="end" opacity="0" stroke-opacity="0">B6/10</text>
<g class="stroked-text"><desc>B6/10</desc>
<path d="M27.8737 38.2175
L28.0551 38.2780
" />
<path d="M28.0551 38.2780
L28.1156 38.3384
" />
<path d="M28.1156 38.3384
L28.1760 38.4594
" />
<path d="M28.1760 38.4594
L28.1760 38.6408
" />
<path d="M28.1760 38.6408
L28.1156 38.7618
" />
<path d="M28.1156 38.7618
L28.0551 38.8223
" />
<path d="M28.0551 38.8223
L27.9341 38.8827
" />
<path d="M27.9341 38.8827
L27.4503 38.8827
" />
<path d="M27.4503 38.8827
L27.4503 37.6127
" />
<path d="M27.4503 37.6127
L27.8737 37.6127
" />
<path d="M27.8737 37.6127
L27.9946 37.6732
" />
<path d="M27.9946 37.6732
L28.0551 37.7337
" />
<path d="M28.0551 37.7337
L28.1156 37.8546
" />
<path d="M28.1156 37.8546
L28.1156 37.9756
" />
<path d="M28.1156 37.9756
L28.0551 38.0965
" />
<path d="M28.0551 38.0965
L27.9946 38.1570
" />
<path d="M27.9946 38.1570
L27.8737 38.2175
" />
<path d="M27.8737 38.2175
L27.4503 38.2175
" />
<path d="M29.2646 37.6127
L29.0227 37.6127
" />
<path d="M29.0227 37.6127
L28.9018 37.6732
" />
<path d="M28.9018 37.6732
L28.8413 37.7337
" />
<path d="M28.8413 37.7337
L28.7203 37.9151
" />
<path d="M28.7203 37.9151
L28.6599 38.1570
" />
<path d="M28.6599 38.1570
L28.6599 38.6408
" />
<path d="M28.6599 38.6408
L28.7203 38.7618
" />
<path d="M28.7203 38.7618
L28.7808 38.8223
" />
<path d="M28.7808 38.8223
L28.9018 38.8827
" />
<path d="M28.9018 38.8827
L29.1437 38.8827
" />
<path d="M29.1437 38.8827
L29.2646 38.8223
" />
<path d="M29.2646 38.8223
L29.3251 38.7618
" />
<path d="M29.3251 38.7618
L29.3856 38.6408
" />
<path d="M29.3856 38.6408
L29.3856 38.3384
" />
<path d="M29.3856 38.3384
L29.3251 38.2175
" />
<path d="M29.3251 38.2175
L29.2646 38.1570
" />
<path d="M29.2646 38.1570
L29.1437 38.0965
" />
<path d="M29.1437 38.0965
L28.9018 38.0965
" />
<path d="M28.9018 38.0965
L28.7808 38.1570
" />
<path d="M28.7808 38.1570
L28.7203 38.2175
" />
<path d="M28.7203 38.2175
L28.6599 38.3384
" />
<path d="M30.8370 37.5523
L29.7484 39.1851
" />
<path d="M31.9256 38.8827
L31.1999 38.8827
" />
<path d="M31.5627 38.8827
L31.5627 37.6127
" />
<path d="M31.5627 37.6127
L31.4418 37.7942
" />
<path d="M31.4418 37.7942
L31.3208 37.9151
" />
<path d="M31.3208 37.9151
L31.1999 37.9756
" />
<path d="M32.7117 37.6127
L32.8327 37.6127
" />
<path d="M32.8327 37.6127
L32.9536 37.6732
" />
<path d="M32.9536 37.6732
L33.0141 37.7337
" />
<path d="M33.0141 37.7337
L33.0746 37.8546
" />
<path d="M33.0746 37.8546
L33.1351 38.0965
" />
<path d="M33.1351 38.0965
L33.1351 38.3989
" />
<path d="M33.1351 38.3989
L33.0746 38.6408
" />
<path d="M33.0746 38.6408
L33.0141 38.7618
" />
<path d="M33.0141 38.7618
L32.9536 38.8223
" />
<path d="M32.9536 38.8223
L32.8327 38.8827
" />
<path d="M32.8327 38.8827
L32.7117 38.8827
" />
<path d="M32.7117 38.8827
L32.5908 38.8223
" />
<path d="M32.5908 38.8223
L32.5303 38.7618
" />
<path d="M32.5303 38.7618
L32.4698 38.6408
" />
<path d="M32.4698 38.6408
L32.4094 38.3989
" />
<path d="M32.4094 38.3989
L32.4094 38.0965
" />
<path d="M32.4094 38.0965
L32.4698 37.8546
" />
<path d="M32.4698 37.8546
L32.5303 37.7337
" />
<path d="M32.5303 37.7337
L32.5908 37.6732
" />
<path d="M32.5908 37.6732
L32.7117 37.6127
" />
</g></g>
<g style="fill:none; 
stroke:#A90000; stroke-width:0.1524; stroke-opacity:1; 
stroke-linecap:round; stroke-linejoin:round;">
<text x="37.0332" y="38.0492"
textLength="2.6222" font-size="1.6933" lengthAdjust="spacingAndGlyphs"
text-anchor="middle" opacity="0" stroke-opacity="0">13</text>
<g class="stroked-text"><desc>13</desc>
<path d="M36.7913 37.8857
L36.0656 37.8857
" />
<path d="M36.4284 37.8857
L36.4284 36.6157
" />
<path d="M36.4284 36.6157
L36.3075 36.7972
" />
<path d="M36.3075 36.7972
L36.1865 36.9181
" />
<path d="M36.1865 36.9181
L36.0656 36.9786
" />
<path d="M37.2146 36.6157
L38.0008 36.6157
" />
<path d="M38.0008 36.6157
L37.5774 37.0995
" />
<path d="M37.5774 37.0995
L37.7589 37.0995
" />
<path d="M37.7589 37.0995
L37.8798 37.1600
" />
<path d="M37.8798 37.1600
L37.9403 37.2205
" />
<path d="M37.9403 37.2205
L38.0008 37.3414
" />
<path d="M38.0008 37.3414
L38.0008 37.6438
" />
<path d="M38.0008 37.6438
L37.9403 37.7648
" />
<path d="M37.9403 37.7648
L37.8798 37.8253
" />
<path d="M37.8798 37.8253
L37.7589 37.8857
" />
<path d="M37.7589 37.8857
L37.3960 37.8857
" />
<path d="M37.3960 37.8857
L37.2751 37.8253
" />
<path d="M37.2751 37.8253
L37.2146 37.7648
" />
</g></g>
<g style="fill:none; 
stroke:#006464; stroke-width:0.1524; stroke-opacity:1; 
stroke-linecap:round; stroke-linejoin:round;">
<text x="0.0000" y="-18.2880"
textLength="3.0553" font-size="2.0320" lengthAdjust="spacingAndGlyphs"
text-anchor="middle" opacity="0" stroke-opacity="0">U?</text>
<g class="stroked-text"><desc>U?</desc>
<path d="M-1.0885 -19.8769
L-1.0885 -18.6432
" />
<path d="M-1.0885 -18.6432
L-1.0159 -18.4980
" />
<path d="M-1.0159 -18.4980
L-0.9434 -18.4255
" />
<path d="M-0.9434 -18.4255
L-0.7982 -18.3529
" />
<path d="M-0.7982 -18.3529
L-0.5079 -18.3529
" />
<path d="M-0.5079 -18.3529
L-0.3628 -18.4255
" />
<path d="M-0.3628 -18.4255
L-0.2902 -18.4980
" />
<path d="M-0.2902 -18.4980
L-0.2176 -18.6432
" />
<path d="M-0.2176 -18.6432
L-0.2176 -19.8769
" />
<path d="M0.7257 -18.4980
L0.7983 -18.4255
" />
<path d="M0.7983 -18.4255
L0.7257 -18.3529
" />
<path d="M0.7257 -18.3529
L0.6532 -18.4255
" />
<path d="M0.6532 -18.4255
L0.7257 -18.4980
" />
<path d="M0.7257 -18.4980
L0.7257 -18.3529
" />
<path d="M0.4354 -19.8043
L0.5806 -19.8769
" />
<path d="M0.5806 -19.8769
L0.9434 -19.8769
" />
<path d="M0.9434 -19.8769
L1.0886 -19.8043
" />
<path d="M1.0886 -19.8043
L1.1612 -19.6592
" />
<path d="M1.1612 -19.6592
L1.1612 -19.5140
" />
<path d="M1.1612 -19.5140
L1.0886 -19.3689
" />
<path d="M1.0886 -19.3689
L1.0160 -19.2963
" />
<path d="M1.0160 -19.2963
L0.8709 -19.2237
" />
<path d="M0.8709 -19.2237
L0.7983 -19.1512
" />
<path d="M0.7983 -19.1512
L0.7257 -19.0060
" />
<path d="M0.7257 -19.0060
L0.7257 -18.9335
" />
</g><text x="0.0000" y="19.8120"
textLength="25.7701" font-size="2.0320" lengthAdjust="spacingAndGlyphs"
text-anchor="middle" opacity="0" stroke-opacity="0">ProMicro_ATmega32U4</text>
<g class="stroked-text"><desc>ProMicro_ATmega32U4</desc>
<path d="M-12.4459 19.7470
L-12.4459 18.2230
" />
<path d="M-12.4459 18.2230
L-11.8653 18.2230
" />
<path d="M-11.8653 18.2230
L-11.7202 18.2956
" />
<path d="M-11.7202 18.2956
L-11.6476 18.3682
" />
<path d="M-11.6476 18.3682
L-11.5750 18.5133
" />
<path d="M-11.5750 18.5133
L-11.5750 18.7310
" />
<path d="M-11.5750 18.7310
L-11.6476 18.8762
" />
<path d="M-11.6476 18.8762
L-11.7202 18.9487
" />
<path d="M-11.7202 18.9487
L-11.8653 19.0213
" />
<path d="M-11.8653 19.0213
L-12.4459 19.0213
" />
<path d="M-10.9219 19.7470
L-10.9219 18.7310
" />
<path d="M-10.9219 19.0213
L-10.8493 18.8762
" />
<path d="M-10.8493 18.8762
L-10.7768 18.8036
" />
<path d="M-10.7768 18.8036
L-10.6316 18.7310
" />
<path d="M-10.6316 18.7310
L-10.4865 18.7310
" />
<path d="M-9.7608 19.7470
L-9.9059 19.6745
" />
<path d="M-9.9059 19.6745
L-9.9785 19.6019
" />
<path d="M-9.9785 19.6019
L-10.0511 19.4567
" />
<path d="M-10.0511 19.4567
L-10.0511 19.0213
" />
<path d="M-10.0511 19.0213
L-9.9785 18.8762
" />
<path d="M-9.9785 18.8762
L-9.9059 18.8036
" />
<path d="M-9.9059 18.8036
L-9.7608 18.7310
" />
<path d="M-9.7608 18.7310
L-9.5431 18.7310
" />
<path d="M-9.5431 18.7310
L-9.3979 18.8036
" />
<path d="M-9.3979 18.8036
L-9.3254 18.8762
" />
<path d="M-9.3254 18.8762
L-9.2528 19.0213
" />
<path d="M-9.2528 19.0213
L-9.2528 19.4567
" />
<path d="M-9.2528 19.4567
L-9.3254 19.6019
" />
<path d="M-9.3254 19.6019
L-9.3979 19.6745
" />
<path d="M-9.3979 19.6745
L-9.5431 19.7470
" />
<path d="M-9.5431 19.7470
L-9.7608 19.7470
" />
<path d="M-8.5996 19.7470
L-8.5996 18.2230
" />
<path d="M-8.5996 18.2230
L-8.0916 19.3116
" />
<path d="M-8.0916 19.3116
L-7.5836 18.2230
" />
<path d="M-7.5836 18.2230
L-7.5836 19.7470
" />
<path d="M-6.8579 19.7470
L-6.8579 18.7310
" />
<path d="M-6.8579 18.2230
L-6.9305 18.2956
" />
<path d="M-6.9305 18.2956
L-6.8579 18.3682
" />
<path d="M-6.8579 18.3682
L-6.7853 18.2956
" />
<path d="M-6.7853 18.2956
L-6.8579 18.2230
" />
<path d="M-6.8579 18.2230
L-6.8579 18.3682
" />
<path d="M-5.4791 19.6745
L-5.6242 19.7470
" />
<path d="M-5.6242 19.7470
L-5.9145 19.7470
" />
<path d="M-5.9145 19.7470
L-6.0596 19.6745
" />
<path d="M-6.0596 19.6745
L-6.1322 19.6019
" />
<path d="M-6.1322 19.6019
L-6.2048 19.4567
" />
<path d="M-6.2048 19.4567
L-6.2048 19.0213
" />
<path d="M-6.2048 19.0213
L-6.1322 18.8762
" />
<path d="M-6.1322 18.8762
L-6.0596 18.8036
" />
<path d="M-6.0596 18.8036
L-5.9145 18.7310
" />
<path d="M-5.9145 18.7310
L-5.6242 18.7310
" />
<path d="M-5.6242 18.7310
L-5.4791 18.8036
" />
<path d="M-4.8259 19.7470
L-4.8259 18.7310
" />
<path d="M-4.8259 19.0213
L-4.7533 18.8762
" />
<path d="M-4.7533 18.8762
L-4.6808 18.8036
" />
<path d="M-4.6808 18.8036
L-4.5356 18.7310
" />
<path d="M-4.5356 18.7310
L-4.3905 18.7310
" />
<path d="M-3.6648 19.7470
L-3.8099 19.6745
" />
<path d="M-3.8099 19.6745
L-3.8825 19.6019
" />
<path d="M-3.8825 19.6019
L-3.9551 19.4567
" />
<path d="M-3.9551 19.4567
L-3.9551 19.0213
" />
<path d="M-3.9551 19.0213
L-3.8825 18.8762
" />
<path d="M-3.8825 18.8762
L-3.8099 18.8036
" />
<path d="M-3.8099 18.8036
L-3.6648 18.7310
" />
<path d="M-3.6648 18.7310
L-3.4471 18.7310
" />
<path d="M-3.4471 18.7310
L-3.3019 18.8036
" />
<path d="M-3.3019 18.8036
L-3.2294 18.8762
" />
<path d="M-3.2294 18.8762
L-3.1568 19.0213
" />
<path d="M-3.1568 19.0213
L-3.1568 19.4567
" />
<path d="M-3.1568 19.4567
L-3.2294 19.6019
" />
<path d="M-3.2294 19.6019
L-3.3019 19.6745
" />
<path d="M-3.3019 19.6745
L-3.4471 19.7470
" />
<path d="M-3.4471 19.7470
L-3.6648 19.7470
" />
<path d="M-2.8665 19.8922
L-1.7053 19.8922
" />
<path d="M-1.4151 19.3116
L-0.6894 19.3116
" />
<path d="M-1.5602 19.7470
L-1.0522 18.2230
" />
<path d="M-1.0522 18.2230
L-0.5442 19.7470
" />
<path d="M-0.2539 18.2230
L0.6169 18.2230
" />
<path d="M0.1814 19.7470
L0.1814 18.2230
" />
<path d="M1.1248 19.7470
L1.1248 18.7310
" />
<path d="M1.1248 18.8762
L1.1974 18.8036
" />
<path d="M1.1974 18.8036
L1.3425 18.7310
" />
<path d="M1.3425 18.7310
L1.5602 18.7310
" />
<path d="M1.5602 18.7310
L1.7054 18.8036
" />
<path d="M1.7054 18.8036
L1.7780 18.9487
" />
<path d="M1.7780 18.9487
L1.7780 19.7470
" />
<path d="M1.7780 18.9487
L1.8505 18.8036
" />
<path d="M1.8505 18.8036
L1.9957 18.7310
" />
<path d="M1.9957 18.7310
L2.2134 18.7310
" />
<path d="M2.2134 18.7310
L2.3585 18.8036
" />
<path d="M2.3585 18.8036
L2.4311 18.9487
" />
<path d="M2.4311 18.9487
L2.4311 19.7470
" />
<path d="M3.7374 19.6745
L3.5922 19.7470
" />
<path d="M3.5922 19.7470
L3.3020 19.7470
" />
<path d="M3.3020 19.7470
L3.1568 19.6745
" />
<path d="M3.1568 19.6745
L3.0842 19.5293
" />
<path d="M3.0842 19.5293
L3.0842 18.9487
" />
<path d="M3.0842 18.9487
L3.1568 18.8036
" />
<path d="M3.1568 18.8036
L3.3020 18.7310
" />
<path d="M3.3020 18.7310
L3.5922 18.7310
" />
<path d="M3.5922 18.7310
L3.7374 18.8036
" />
<path d="M3.7374 18.8036
L3.8100 18.9487
" />
<path d="M3.8100 18.9487
L3.8100 19.0939
" />
<path d="M3.8100 19.0939
L3.0842 19.2390
" />
<path d="M5.1163 18.7310
L5.1163 19.9647
" />
<path d="M5.1163 19.9647
L5.0437 20.1099
" />
<path d="M5.0437 20.1099
L4.9711 20.1825
" />
<path d="M4.9711 20.1825
L4.8260 20.2550
" />
<path d="M4.8260 20.2550
L4.6083 20.2550
" />
<path d="M4.6083 20.2550
L4.4631 20.1825
" />
<path d="M5.1163 19.6745
L4.9711 19.7470
" />
<path d="M4.9711 19.7470
L4.6808 19.7470
" />
<path d="M4.6808 19.7470
L4.5357 19.6745
" />
<path d="M4.5357 19.6745
L4.4631 19.6019
" />
<path d="M4.4631 19.6019
L4.3905 19.4567
" />
<path d="M4.3905 19.4567
L4.3905 19.0213
" />
<path d="M4.3905 19.0213
L4.4631 18.8762
" />
<path d="M4.4631 18.8762
L4.5357 18.8036
" />
<path d="M4.5357 18.8036
L4.6808 18.7310
" />
<path d="M4.6808 18.7310
L4.9711 18.7310
" />
<path d="M4.9711 18.7310
L5.1163 18.8036
" />
<path d="M6.4952 19.7470
L6.4952 18.9487
" />
<path d="M6.4952 18.9487
L6.4226 18.8036
" />
<path d="M6.4226 18.8036
L6.2774 18.7310
" />
<path d="M6.2774 18.7310
L5.9872 18.7310
" />
<path d="M5.9872 18.7310
L5.8420 18.8036
" />
<path d="M6.4952 19.6745
L6.3500 19.7470
" />
<path d="M6.3500 19.7470
L5.9872 19.7470
" />
<path d="M5.9872 19.7470
L5.8420 19.6745
" />
<path d="M5.8420 19.6745
L5.7694 19.5293
" />
<path d="M5.7694 19.5293
L5.7694 19.3842
" />
<path d="M5.7694 19.3842
L5.8420 19.2390
" />
<path d="M5.8420 19.2390
L5.9872 19.1665
" />
<path d="M5.9872 19.1665
L6.3500 19.1665
" />
<path d="M6.3500 19.1665
L6.4952 19.0939
" />
<path d="M7.0758 18.2230
L8.0192 18.2230
" />
<path d="M8.0192 18.2230
L7.5112 18.8036
" />
<path d="M7.5112 18.8036
L7.7289 18.8036
" />
<path d="M7.7289 18.8036
L7.8741 18.8762
" />
<path d="M7.8741 18.8762
L7.9466 18.9487
" />
<path d="M7.9466 18.9487
L8.0192 19.0939
" />
<path d="M8.0192 19.0939
L8.0192 19.4567
" />
<path d="M8.0192 19.4567
L7.9466 19.6019
" />
<path d="M7.9466 19.6019
L7.8741 19.6745
" />
<path d="M7.8741 19.6745
L7.7289 19.7470
" />
<path d="M7.7289 19.7470
L7.2935 19.7470
" />
<path d="M7.2935 19.7470
L7.1483 19.6745
" />
<path d="M7.1483 19.6745
L7.0758 19.6019
" />
<path d="M8.5997 18.3682
L8.6723 18.2956
" />
<path d="M8.6723 18.2956
L8.8175 18.2230
" />
<path d="M8.8175 18.2230
L9.1803 18.2230
" />
<path d="M9.1803 18.2230
L9.3255 18.2956
" />
<path d="M9.3255 18.2956
L9.3980 18.3682
" />
<path d="M9.3980 18.3682
L9.4706 18.5133
" />
<path d="M9.4706 18.5133
L9.4706 18.6585
" />
<path d="M9.4706 18.6585
L9.3980 18.8762
" />
<path d="M9.3980 18.8762
L8.5272 19.7470
" />
<path d="M8.5272 19.7470
L9.4706 19.7470
" />
<path d="M10.1237 18.2230
L10.1237 19.4567
" />
<path d="M10.1237 19.4567
L10.1963 19.6019
" />
<path d="M10.1963 19.6019
L10.2689 19.6745
" />
<path d="M10.2689 19.6745
L10.4140 19.7470
" />
<path d="M10.4140 19.7470
L10.7043 19.7470
" />
<path d="M10.7043 19.7470
L10.8494 19.6745
" />
<path d="M10.8494 19.6745
L10.9220 19.6019
" />
<path d="M10.9220 19.6019
L10.9946 19.4567
" />
<path d="M10.9946 19.4567
L10.9946 18.2230
" />
<path d="M12.3735 18.7310
L12.3735 19.7470
" />
<path d="M12.0106 18.1505
L11.6477 19.2390
" />
<path d="M11.6477 19.2390
L12.5912 19.2390
" />
</g></g> 
</svg>
