<?xml version="1.0" standalone="no"?>
 <!DOCTYPE svg PUBLIC "-//W3C//DTD SVG 1.1//EN" 
 "http://www.w3.org/Graphics/SVG/1.1/DTD/svg11.dtd"> 
<svg
  xmlns:svg="http://www.w3.org/2000/svg"
  xmlns="http://www.w3.org/2000/svg"
  xmlns:xlink="http://www.w3.org/1999/xlink"
  version="1.1"
  width="43.5864mm" height="46.9646mm" viewBox="0.0000 0.0000 43.5864 46.9646">
<title>SVG Image created as ProMicro_ATmega32U4_unit1.svg date 2025/05/12 02:45:48 </title>
  <desc>Image generated by Eeschema-SVG </desc>
<g style="fill:#000000; fill-opacity:1.0000;stroke:#000000; stroke-opacity:1.0000;
stroke-linecap:round; stroke-linejoin:round;"
 transform="translate(0 0) scale(1 1)">
</g>
<g style="fill:#FFFFC2; fill-opacity:1.0000; stroke:none;">
<rect x="9.093200" y="6.972300" width="25.400000" height="33.020000" rx="0.000000" />
</g>
<g style="fill:none; 
stroke:#840000; stroke-width:0.1524; stroke-opacity:1; 
stroke-linecap:round; stroke-linejoin:round;">
<rect x="9.093200" y="6.972300" width="25.400000" height="33.020000" rx="0.000000" />
<path d="M9.0932 9.5123
L4.0132 9.5123
" />
</g>
<g style="fill:none; 
stroke:#006464; stroke-width:0.1524; stroke-opacity:1; 
stroke-linecap:round; stroke-linejoin:round;">
<text x="10.1092" y="10.1473"
textLength="7.3998" font-size="1.6933" lengthAdjust="spacingAndGlyphs"
text-anchor="start" opacity="0" stroke-opacity="0">TX0/D3</text>
<g class="stroked-text"><desc>TX0/D3</desc>
<path d="M10.3303 8.8218
L11.0560 8.8218
" />
<path d="M10.6932 10.0918
L10.6932 8.8218
" />
<path d="M11.3584 8.8218
L12.2050 10.0918
" />
<path d="M12.2050 8.8218
L11.3584 10.0918
" />
<path d="M12.9307 8.8218
L13.0517 8.8218
" />
<path d="M13.0517 8.8218
L13.1726 8.8823
" />
<path d="M13.1726 8.8823
L13.2331 8.9428
" />
<path d="M13.2331 8.9428
L13.2936 9.0637
" />
<path d="M13.2936 9.0637
L13.3541 9.3056
" />
<path d="M13.3541 9.3056
L13.3541 9.6080
" />
<path d="M13.3541 9.6080
L13.2936 9.8499
" />
<path d="M13.2936 9.8499
L13.2331 9.9709
" />
<path d="M13.2331 9.9709
L13.1726 10.0314
" />
<path d="M13.1726 10.0314
L13.0517 10.0918
" />
<path d="M13.0517 10.0918
L12.9307 10.0918
" />
<path d="M12.9307 10.0918
L12.8098 10.0314
" />
<path d="M12.8098 10.0314
L12.7493 9.9709
" />
<path d="M12.7493 9.9709
L12.6888 9.8499
" />
<path d="M12.6888 9.8499
L12.6284 9.6080
" />
<path d="M12.6284 9.6080
L12.6284 9.3056
" />
<path d="M12.6284 9.3056
L12.6888 9.0637
" />
<path d="M12.6888 9.0637
L12.7493 8.9428
" />
<path d="M12.7493 8.9428
L12.8098 8.8823
" />
<path d="M12.8098 8.8823
L12.9307 8.8218
" />
<path d="M14.8055 8.7614
L13.7169 10.3942
" />
<path d="M15.2288 10.0918
L15.2288 8.8218
" />
<path d="M15.2288 8.8218
L15.5312 8.8218
" />
<path d="M15.5312 8.8218
L15.7126 8.8823
" />
<path d="M15.7126 8.8823
L15.8336 9.0033
" />
<path d="M15.8336 9.0033
L15.8941 9.1242
" />
<path d="M15.8941 9.1242
L15.9545 9.3661
" />
<path d="M15.9545 9.3661
L15.9545 9.5475
" />
<path d="M15.9545 9.5475
L15.8941 9.7894
" />
<path d="M15.8941 9.7894
L15.8336 9.9104
" />
<path d="M15.8336 9.9104
L15.7126 10.0314
" />
<path d="M15.7126 10.0314
L15.5312 10.0918
" />
<path d="M15.5312 10.0918
L15.2288 10.0918
" />
<path d="M16.3779 8.8218
L17.1641 8.8218
" />
<path d="M17.1641 8.8218
L16.7407 9.3056
" />
<path d="M16.7407 9.3056
L16.9222 9.3056
" />
<path d="M16.9222 9.3056
L17.0431 9.3661
" />
<path d="M17.0431 9.3661
L17.1036 9.4266
" />
<path d="M17.1036 9.4266
L17.1641 9.5475
" />
<path d="M17.1641 9.5475
L17.1641 9.8499
" />
<path d="M17.1641 9.8499
L17.1036 9.9709
" />
<path d="M17.1036 9.9709
L17.0431 10.0314
" />
<path d="M17.0431 10.0314
L16.9222 10.0918
" />
<path d="M16.9222 10.0918
L16.5593 10.0918
" />
<path d="M16.5593 10.0918
L16.4384 10.0314
" />
<path d="M16.4384 10.0314
L16.3779 9.9709
" />
</g></g>
<g style="fill:none; 
stroke:#A90000; stroke-width:0.1524; stroke-opacity:1; 
stroke-linecap:round; stroke-linejoin:round;">
<text x="6.5532" y="9.2583"
textLength="1.4127" font-size="1.6933" lengthAdjust="spacingAndGlyphs"
text-anchor="middle" opacity="0" stroke-opacity="0">1</text>
<g class="stroked-text"><desc>1</desc>
<path d="M6.9161 9.0948
L6.1904 9.0948
" />
<path d="M6.5532 9.0948
L6.5532 7.8248
" />
<path d="M6.5532 7.8248
L6.4323 8.0063
" />
<path d="M6.4323 8.0063
L6.3113 8.1272
" />
<path d="M6.3113 8.1272
L6.1904 8.1877
" />
</g></g>
<g style="fill:none; 
stroke:#840000; stroke-width:0.1524; stroke-opacity:1; 
stroke-linecap:round; stroke-linejoin:round;">
<path d="M9.0932 12.0523
L4.0132 12.0523
" />
</g>
<g style="fill:none; 
stroke:#006464; stroke-width:0.1524; stroke-opacity:1; 
stroke-linecap:round; stroke-linejoin:round;">
<text x="10.1092" y="12.6873"
textLength="7.7022" font-size="1.6933" lengthAdjust="spacingAndGlyphs"
text-anchor="start" opacity="0" stroke-opacity="0">RX1/D2</text>
<g class="stroked-text"><desc>RX1/D2</desc>
<path d="M11.2374 12.6318
L10.8141 12.0271
" />
<path d="M10.5117 12.6318
L10.5117 11.3618
" />
<path d="M10.5117 11.3618
L10.9955 11.3618
" />
<path d="M10.9955 11.3618
L11.1165 11.4223
" />
<path d="M11.1165 11.4223
L11.1770 11.4828
" />
<path d="M11.1770 11.4828
L11.2374 11.6037
" />
<path d="M11.2374 11.6037
L11.2374 11.7852
" />
<path d="M11.2374 11.7852
L11.1770 11.9061
" />
<path d="M11.1770 11.9061
L11.1165 11.9666
" />
<path d="M11.1165 11.9666
L10.9955 12.0271
" />
<path d="M10.9955 12.0271
L10.5117 12.0271
" />
<path d="M11.6608 11.3618
L12.5074 12.6318
" />
<path d="M12.5074 11.3618
L11.6608 12.6318
" />
<path d="M13.6565 12.6318
L12.9308 12.6318
" />
<path d="M13.2936 12.6318
L13.2936 11.3618
" />
<path d="M13.2936 11.3618
L13.1727 11.5433
" />
<path d="M13.1727 11.5433
L13.0517 11.6642
" />
<path d="M13.0517 11.6642
L12.9308 11.7247
" />
<path d="M15.1079 11.3014
L14.0193 12.9342
" />
<path d="M15.5312 12.6318
L15.5312 11.3618
" />
<path d="M15.5312 11.3618
L15.8336 11.3618
" />
<path d="M15.8336 11.3618
L16.0150 11.4223
" />
<path d="M16.0150 11.4223
L16.1360 11.5433
" />
<path d="M16.1360 11.5433
L16.1965 11.6642
" />
<path d="M16.1965 11.6642
L16.2569 11.9061
" />
<path d="M16.2569 11.9061
L16.2569 12.0875
" />
<path d="M16.2569 12.0875
L16.1965 12.3294
" />
<path d="M16.1965 12.3294
L16.1360 12.4504
" />
<path d="M16.1360 12.4504
L16.0150 12.5714
" />
<path d="M16.0150 12.5714
L15.8336 12.6318
" />
<path d="M15.8336 12.6318
L15.5312 12.6318
" />
<path d="M16.7408 11.4828
L16.8012 11.4223
" />
<path d="M16.8012 11.4223
L16.9222 11.3618
" />
<path d="M16.9222 11.3618
L17.2246 11.3618
" />
<path d="M17.2246 11.3618
L17.3455 11.4223
" />
<path d="M17.3455 11.4223
L17.4060 11.4828
" />
<path d="M17.4060 11.4828
L17.4665 11.6037
" />
<path d="M17.4665 11.6037
L17.4665 11.7247
" />
<path d="M17.4665 11.7247
L17.4060 11.9061
" />
<path d="M17.4060 11.9061
L16.6803 12.6318
" />
<path d="M16.6803 12.6318
L17.4665 12.6318
" />
</g></g>
<g style="fill:none; 
stroke:#A90000; stroke-width:0.1524; stroke-opacity:1; 
stroke-linecap:round; stroke-linejoin:round;">
<text x="6.5532" y="11.7983"
textLength="1.4127" font-size="1.6933" lengthAdjust="spacingAndGlyphs"
text-anchor="middle" opacity="0" stroke-opacity="0">2</text>
<g class="stroked-text"><desc>2</desc>
<path d="M6.1904 10.4858
L6.2508 10.4253
" />
<path d="M6.2508 10.4253
L6.3718 10.3648
" />
<path d="M6.3718 10.3648
L6.6742 10.3648
" />
<path d="M6.6742 10.3648
L6.7951 10.4253
" />
<path d="M6.7951 10.4253
L6.8556 10.4858
" />
<path d="M6.8556 10.4858
L6.9161 10.6067
" />
<path d="M6.9161 10.6067
L6.9161 10.7277
" />
<path d="M6.9161 10.7277
L6.8556 10.9091
" />
<path d="M6.8556 10.9091
L6.1299 11.6348
" />
<path d="M6.1299 11.6348
L6.9161 11.6348
" />
</g></g>
<g style="fill:none; 
stroke:#840000; stroke-width:0.1524; stroke-opacity:1; 
stroke-linecap:round; stroke-linejoin:round;">
<path d="M9.0932 14.5923
L4.0132 14.5923
" />
</g>
<g style="fill:none; 
stroke:#006464; stroke-width:0.1524; stroke-opacity:1; 
stroke-linecap:round; stroke-linejoin:round;">
<text x="10.1092" y="15.2273"
textLength="4.0737" font-size="1.6933" lengthAdjust="spacingAndGlyphs"
text-anchor="start" opacity="0" stroke-opacity="0">GND</text>
<g class="stroked-text"><desc>GND</desc>
<path d="M11.1770 13.9623
L11.0560 13.9018
" />
<path d="M11.0560 13.9018
L10.8746 13.9018
" />
<path d="M10.8746 13.9018
L10.6932 13.9623
" />
<path d="M10.6932 13.9623
L10.5722 14.0833
" />
<path d="M10.5722 14.0833
L10.5117 14.2042
" />
<path d="M10.5117 14.2042
L10.4513 14.4461
" />
<path d="M10.4513 14.4461
L10.4513 14.6275
" />
<path d="M10.4513 14.6275
L10.5117 14.8694
" />
<path d="M10.5117 14.8694
L10.5722 14.9904
" />
<path d="M10.5722 14.9904
L10.6932 15.1114
" />
<path d="M10.6932 15.1114
L10.8746 15.1718
" />
<path d="M10.8746 15.1718
L10.9955 15.1718
" />
<path d="M10.9955 15.1718
L11.1770 15.1114
" />
<path d="M11.1770 15.1114
L11.2374 15.0509
" />
<path d="M11.2374 15.0509
L11.2374 14.6275
" />
<path d="M11.2374 14.6275
L10.9955 14.6275
" />
<path d="M11.7817 15.1718
L11.7817 13.9018
" />
<path d="M11.7817 13.9018
L12.5074 15.1718
" />
<path d="M12.5074 15.1718
L12.5074 13.9018
" />
<path d="M13.1122 15.1718
L13.1122 13.9018
" />
<path d="M13.1122 13.9018
L13.4146 13.9018
" />
<path d="M13.4146 13.9018
L13.5960 13.9623
" />
<path d="M13.5960 13.9623
L13.7170 14.0833
" />
<path d="M13.7170 14.0833
L13.7775 14.2042
" />
<path d="M13.7775 14.2042
L13.8379 14.4461
" />
<path d="M13.8379 14.4461
L13.8379 14.6275
" />
<path d="M13.8379 14.6275
L13.7775 14.8694
" />
<path d="M13.7775 14.8694
L13.7170 14.9904
" />
<path d="M13.7170 14.9904
L13.5960 15.1114
" />
<path d="M13.5960 15.1114
L13.4146 15.1718
" />
<path d="M13.4146 15.1718
L13.1122 15.1718
" />
</g></g>
<g style="fill:none; 
stroke:#A90000; stroke-width:0.1524; stroke-opacity:1; 
stroke-linecap:round; stroke-linejoin:round;">
<text x="6.5532" y="14.3383"
textLength="1.4127" font-size="1.6933" lengthAdjust="spacingAndGlyphs"
text-anchor="middle" opacity="0" stroke-opacity="0">3</text>
<g class="stroked-text"><desc>3</desc>
<path d="M6.1299 12.9048
L6.9161 12.9048
" />
<path d="M6.9161 12.9048
L6.4927 13.3886
" />
<path d="M6.4927 13.3886
L6.6742 13.3886
" />
<path d="M6.6742 13.3886
L6.7951 13.4491
" />
<path d="M6.7951 13.4491
L6.8556 13.5096
" />
<path d="M6.8556 13.5096
L6.9161 13.6305
" />
<path d="M6.9161 13.6305
L6.9161 13.9329
" />
<path d="M6.9161 13.9329
L6.8556 14.0539
" />
<path d="M6.8556 14.0539
L6.7951 14.1144
" />
<path d="M6.7951 14.1144
L6.6742 14.1748
" />
<path d="M6.6742 14.1748
L6.3113 14.1748
" />
<path d="M6.3113 14.1748
L6.1904 14.1144
" />
<path d="M6.1904 14.1144
L6.1299 14.0539
" />
</g></g>
<g style="fill:none; 
stroke:#840000; stroke-width:0.1524; stroke-opacity:1; 
stroke-linecap:round; stroke-linejoin:round;">
<path d="M9.0932 17.1323
L4.0132 17.1323
" />
</g>
<g style="fill:none; 
stroke:#006464; stroke-width:0.1524; stroke-opacity:1; 
stroke-linecap:round; stroke-linejoin:round;">
<text x="10.1092" y="17.7673"
textLength="4.0737" font-size="1.6933" lengthAdjust="spacingAndGlyphs"
text-anchor="start" opacity="0" stroke-opacity="0">GND</text>
<g class="stroked-text"><desc>GND</desc>
<path d="M11.1770 16.5023
L11.0560 16.4418
" />
<path d="M11.0560 16.4418
L10.8746 16.4418
" />
<path d="M10.8746 16.4418
L10.6932 16.5023
" />
<path d="M10.6932 16.5023
L10.5722 16.6233
" />
<path d="M10.5722 16.6233
L10.5117 16.7442
" />
<path d="M10.5117 16.7442
L10.4513 16.9861
" />
<path d="M10.4513 16.9861
L10.4513 17.1675
" />
<path d="M10.4513 17.1675
L10.5117 17.4094
" />
<path d="M10.5117 17.4094
L10.5722 17.5304
" />
<path d="M10.5722 17.5304
L10.6932 17.6514
" />
<path d="M10.6932 17.6514
L10.8746 17.7118
" />
<path d="M10.8746 17.7118
L10.9955 17.7118
" />
<path d="M10.9955 17.7118
L11.1770 17.6514
" />
<path d="M11.1770 17.6514
L11.2374 17.5909
" />
<path d="M11.2374 17.5909
L11.2374 17.1675
" />
<path d="M11.2374 17.1675
L10.9955 17.1675
" />
<path d="M11.7817 17.7118
L11.7817 16.4418
" />
<path d="M11.7817 16.4418
L12.5074 17.7118
" />
<path d="M12.5074 17.7118
L12.5074 16.4418
" />
<path d="M13.1122 17.7118
L13.1122 16.4418
" />
<path d="M13.1122 16.4418
L13.4146 16.4418
" />
<path d="M13.4146 16.4418
L13.5960 16.5023
" />
<path d="M13.5960 16.5023
L13.7170 16.6233
" />
<path d="M13.7170 16.6233
L13.7775 16.7442
" />
<path d="M13.7775 16.7442
L13.8379 16.9861
" />
<path d="M13.8379 16.9861
L13.8379 17.1675
" />
<path d="M13.8379 17.1675
L13.7775 17.4094
" />
<path d="M13.7775 17.4094
L13.7170 17.5304
" />
<path d="M13.7170 17.5304
L13.5960 17.6514
" />
<path d="M13.5960 17.6514
L13.4146 17.7118
" />
<path d="M13.4146 17.7118
L13.1122 17.7118
" />
</g></g>
<g style="fill:none; 
stroke:#A90000; stroke-width:0.1524; stroke-opacity:1; 
stroke-linecap:round; stroke-linejoin:round;">
<text x="6.5532" y="16.8783"
textLength="1.4127" font-size="1.6933" lengthAdjust="spacingAndGlyphs"
text-anchor="middle" opacity="0" stroke-opacity="0">4</text>
<g class="stroked-text"><desc>4</desc>
<path d="M6.7951 15.8682
L6.7951 16.7148
" />
<path d="M6.4927 15.3844
L6.1904 16.2915
" />
<path d="M6.1904 16.2915
L6.9765 16.2915
" />
</g></g>
<g style="fill:none; 
stroke:#840000; stroke-width:0.1524; stroke-opacity:1; 
stroke-linecap:round; stroke-linejoin:round;">
<path d="M9.0932 19.6723
L4.0132 19.6723
" />
</g>
<g style="fill:none; 
stroke:#006464; stroke-width:0.1524; stroke-opacity:1; 
stroke-linecap:round; stroke-linejoin:round;">
<text x="10.1092" y="20.3073"
textLength="10.1213" font-size="1.6933" lengthAdjust="spacingAndGlyphs"
text-anchor="start" opacity="0" stroke-opacity="0">2/D1/SDA</text>
<g class="stroked-text"><desc>2/D1/SDA</desc>
<path d="M10.4513 19.1028
L10.5117 19.0423
" />
<path d="M10.5117 19.0423
L10.6327 18.9818
" />
<path d="M10.6327 18.9818
L10.9351 18.9818
" />
<path d="M10.9351 18.9818
L11.0560 19.0423
" />
<path d="M11.0560 19.0423
L11.1165 19.1028
" />
<path d="M11.1165 19.1028
L11.1770 19.2237
" />
<path d="M11.1770 19.2237
L11.1770 19.3447
" />
<path d="M11.1770 19.3447
L11.1165 19.5261
" />
<path d="M11.1165 19.5261
L10.3908 20.2518
" />
<path d="M10.3908 20.2518
L11.1770 20.2518
" />
<path d="M12.6284 18.9214
L11.5398 20.5542
" />
<path d="M13.0517 20.2518
L13.0517 18.9818
" />
<path d="M13.0517 18.9818
L13.3541 18.9818
" />
<path d="M13.3541 18.9818
L13.5355 19.0423
" />
<path d="M13.5355 19.0423
L13.6565 19.1633
" />
<path d="M13.6565 19.1633
L13.7170 19.2842
" />
<path d="M13.7170 19.2842
L13.7774 19.5261
" />
<path d="M13.7774 19.5261
L13.7774 19.7075
" />
<path d="M13.7774 19.7075
L13.7170 19.9494
" />
<path d="M13.7170 19.9494
L13.6565 20.0704
" />
<path d="M13.6565 20.0704
L13.5355 20.1914
" />
<path d="M13.5355 20.1914
L13.3541 20.2518
" />
<path d="M13.3541 20.2518
L13.0517 20.2518
" />
<path d="M14.9870 20.2518
L14.2613 20.2518
" />
<path d="M14.6241 20.2518
L14.6241 18.9818
" />
<path d="M14.6241 18.9818
L14.5032 19.1633
" />
<path d="M14.5032 19.1633
L14.3822 19.2842
" />
<path d="M14.3822 19.2842
L14.2613 19.3447
" />
<path d="M16.4384 18.9214
L15.3498 20.5542
" />
<path d="M16.8013 20.1914
L16.9827 20.2518
" />
<path d="M16.9827 20.2518
L17.2851 20.2518
" />
<path d="M17.2851 20.2518
L17.4060 20.1914
" />
<path d="M17.4060 20.1914
L17.4665 20.1309
" />
<path d="M17.4665 20.1309
L17.5270 20.0099
" />
<path d="M17.5270 20.0099
L17.5270 19.8890
" />
<path d="M17.5270 19.8890
L17.4665 19.7680
" />
<path d="M17.4665 19.7680
L17.4060 19.7075
" />
<path d="M17.4060 19.7075
L17.2851 19.6471
" />
<path d="M17.2851 19.6471
L17.0432 19.5866
" />
<path d="M17.0432 19.5866
L16.9222 19.5261
" />
<path d="M16.9222 19.5261
L16.8617 19.4656
" />
<path d="M16.8617 19.4656
L16.8013 19.3447
" />
<path d="M16.8013 19.3447
L16.8013 19.2237
" />
<path d="M16.8013 19.2237
L16.8617 19.1028
" />
<path d="M16.8617 19.1028
L16.9222 19.0423
" />
<path d="M16.9222 19.0423
L17.0432 18.9818
" />
<path d="M17.0432 18.9818
L17.3455 18.9818
" />
<path d="M17.3455 18.9818
L17.5270 19.0423
" />
<path d="M18.0712 20.2518
L18.0712 18.9818
" />
<path d="M18.0712 18.9818
L18.3736 18.9818
" />
<path d="M18.3736 18.9818
L18.5550 19.0423
" />
<path d="M18.5550 19.0423
L18.6760 19.1633
" />
<path d="M18.6760 19.1633
L18.7365 19.2842
" />
<path d="M18.7365 19.2842
L18.7969 19.5261
" />
<path d="M18.7969 19.5261
L18.7969 19.7075
" />
<path d="M18.7969 19.7075
L18.7365 19.9494
" />
<path d="M18.7365 19.9494
L18.6760 20.0704
" />
<path d="M18.6760 20.0704
L18.5550 20.1914
" />
<path d="M18.5550 20.1914
L18.3736 20.2518
" />
<path d="M18.3736 20.2518
L18.0712 20.2518
" />
<path d="M19.2808 19.8890
L19.8855 19.8890
" />
<path d="M19.1598 20.2518
L19.5831 18.9818
" />
<path d="M19.5831 18.9818
L20.0065 20.2518
" />
</g></g>
<g style="fill:none; 
stroke:#A90000; stroke-width:0.1524; stroke-opacity:1; 
stroke-linecap:round; stroke-linejoin:round;">
<text x="6.5532" y="19.4183"
textLength="1.4127" font-size="1.6933" lengthAdjust="spacingAndGlyphs"
text-anchor="middle" opacity="0" stroke-opacity="0">5</text>
<g class="stroked-text"><desc>5</desc>
<path d="M6.8556 17.9848
L6.2508 17.9848
" />
<path d="M6.2508 17.9848
L6.1904 18.5896
" />
<path d="M6.1904 18.5896
L6.2508 18.5291
" />
<path d="M6.2508 18.5291
L6.3718 18.4686
" />
<path d="M6.3718 18.4686
L6.6742 18.4686
" />
<path d="M6.6742 18.4686
L6.7951 18.5291
" />
<path d="M6.7951 18.5291
L6.8556 18.5896
" />
<path d="M6.8556 18.5896
L6.9161 18.7105
" />
<path d="M6.9161 18.7105
L6.9161 19.0129
" />
<path d="M6.9161 19.0129
L6.8556 19.1339
" />
<path d="M6.8556 19.1339
L6.7951 19.1944
" />
<path d="M6.7951 19.1944
L6.6742 19.2548
" />
<path d="M6.6742 19.2548
L6.3718 19.2548
" />
<path d="M6.3718 19.2548
L6.2508 19.1944
" />
<path d="M6.2508 19.1944
L6.1904 19.1339
" />
</g></g>
<g style="fill:none; 
stroke:#840000; stroke-width:0.1524; stroke-opacity:1; 
stroke-linecap:round; stroke-linejoin:round;">
<path d="M9.0932 22.2123
L4.0132 22.2123
" />
</g>
<g style="fill:none; 
stroke:#006464; stroke-width:0.1524; stroke-opacity:1; 
stroke-linecap:round; stroke-linejoin:round;">
<text x="10.1092" y="22.8473"
textLength="10.0608" font-size="1.6933" lengthAdjust="spacingAndGlyphs"
text-anchor="start" opacity="0" stroke-opacity="0">3/D0/SCL</text>
<g class="stroked-text"><desc>3/D0/SCL</desc>
<path d="M10.3908 21.5218
L11.1770 21.5218
" />
<path d="M11.1770 21.5218
L10.7536 22.0056
" />
<path d="M10.7536 22.0056
L10.9351 22.0056
" />
<path d="M10.9351 22.0056
L11.0560 22.0661
" />
<path d="M11.0560 22.0661
L11.1165 22.1266
" />
<path d="M11.1165 22.1266
L11.1770 22.2475
" />
<path d="M11.1770 22.2475
L11.1770 22.5499
" />
<path d="M11.1770 22.5499
L11.1165 22.6709
" />
<path d="M11.1165 22.6709
L11.0560 22.7314
" />
<path d="M11.0560 22.7314
L10.9351 22.7918
" />
<path d="M10.9351 22.7918
L10.5722 22.7918
" />
<path d="M10.5722 22.7918
L10.4513 22.7314
" />
<path d="M10.4513 22.7314
L10.3908 22.6709
" />
<path d="M12.6284 21.4614
L11.5398 23.0942
" />
<path d="M13.0517 22.7918
L13.0517 21.5218
" />
<path d="M13.0517 21.5218
L13.3541 21.5218
" />
<path d="M13.3541 21.5218
L13.5355 21.5823
" />
<path d="M13.5355 21.5823
L13.6565 21.7033
" />
<path d="M13.6565 21.7033
L13.7170 21.8242
" />
<path d="M13.7170 21.8242
L13.7774 22.0661
" />
<path d="M13.7774 22.0661
L13.7774 22.2475
" />
<path d="M13.7774 22.2475
L13.7170 22.4894
" />
<path d="M13.7170 22.4894
L13.6565 22.6104
" />
<path d="M13.6565 22.6104
L13.5355 22.7314
" />
<path d="M13.5355 22.7314
L13.3541 22.7918
" />
<path d="M13.3541 22.7918
L13.0517 22.7918
" />
<path d="M14.5636 21.5218
L14.6846 21.5218
" />
<path d="M14.6846 21.5218
L14.8055 21.5823
" />
<path d="M14.8055 21.5823
L14.8660 21.6428
" />
<path d="M14.8660 21.6428
L14.9265 21.7637
" />
<path d="M14.9265 21.7637
L14.9870 22.0056
" />
<path d="M14.9870 22.0056
L14.9870 22.3080
" />
<path d="M14.9870 22.3080
L14.9265 22.5499
" />
<path d="M14.9265 22.5499
L14.8660 22.6709
" />
<path d="M14.8660 22.6709
L14.8055 22.7314
" />
<path d="M14.8055 22.7314
L14.6846 22.7918
" />
<path d="M14.6846 22.7918
L14.5636 22.7918
" />
<path d="M14.5636 22.7918
L14.4427 22.7314
" />
<path d="M14.4427 22.7314
L14.3822 22.6709
" />
<path d="M14.3822 22.6709
L14.3217 22.5499
" />
<path d="M14.3217 22.5499
L14.2613 22.3080
" />
<path d="M14.2613 22.3080
L14.2613 22.0056
" />
<path d="M14.2613 22.0056
L14.3217 21.7637
" />
<path d="M14.3217 21.7637
L14.3822 21.6428
" />
<path d="M14.3822 21.6428
L14.4427 21.5823
" />
<path d="M14.4427 21.5823
L14.5636 21.5218
" />
<path d="M16.4384 21.4614
L15.3498 23.0942
" />
<path d="M16.8013 22.7314
L16.9827 22.7918
" />
<path d="M16.9827 22.7918
L17.2851 22.7918
" />
<path d="M17.2851 22.7918
L17.4060 22.7314
" />
<path d="M17.4060 22.7314
L17.4665 22.6709
" />
<path d="M17.4665 22.6709
L17.5270 22.5499
" />
<path d="M17.5270 22.5499
L17.5270 22.4290
" />
<path d="M17.5270 22.4290
L17.4665 22.3080
" />
<path d="M17.4665 22.3080
L17.4060 22.2475
" />
<path d="M17.4060 22.2475
L17.2851 22.1871
" />
<path d="M17.2851 22.1871
L17.0432 22.1266
" />
<path d="M17.0432 22.1266
L16.9222 22.0661
" />
<path d="M16.9222 22.0661
L16.8617 22.0056
" />
<path d="M16.8617 22.0056
L16.8013 21.8847
" />
<path d="M16.8013 21.8847
L16.8013 21.7637
" />
<path d="M16.8013 21.7637
L16.8617 21.6428
" />
<path d="M16.8617 21.6428
L16.9222 21.5823
" />
<path d="M16.9222 21.5823
L17.0432 21.5218
" />
<path d="M17.0432 21.5218
L17.3455 21.5218
" />
<path d="M17.3455 21.5218
L17.5270 21.5823
" />
<path d="M18.7969 22.6709
L18.7365 22.7314
" />
<path d="M18.7365 22.7314
L18.5550 22.7918
" />
<path d="M18.5550 22.7918
L18.4341 22.7918
" />
<path d="M18.4341 22.7918
L18.2527 22.7314
" />
<path d="M18.2527 22.7314
L18.1317 22.6104
" />
<path d="M18.1317 22.6104
L18.0712 22.4894
" />
<path d="M18.0712 22.4894
L18.0108 22.2475
" />
<path d="M18.0108 22.2475
L18.0108 22.0661
" />
<path d="M18.0108 22.0661
L18.0712 21.8242
" />
<path d="M18.0712 21.8242
L18.1317 21.7033
" />
<path d="M18.1317 21.7033
L18.2527 21.5823
" />
<path d="M18.2527 21.5823
L18.4341 21.5218
" />
<path d="M18.4341 21.5218
L18.5550 21.5218
" />
<path d="M18.5550 21.5218
L18.7365 21.5823
" />
<path d="M18.7365 21.5823
L18.7969 21.6428
" />
<path d="M19.9460 22.7918
L19.3412 22.7918
" />
<path d="M19.3412 22.7918
L19.3412 21.5218
" />
</g></g>
<g style="fill:none; 
stroke:#A90000; stroke-width:0.1524; stroke-opacity:1; 
stroke-linecap:round; stroke-linejoin:round;">
<text x="6.5532" y="21.9583"
textLength="1.4127" font-size="1.6933" lengthAdjust="spacingAndGlyphs"
text-anchor="middle" opacity="0" stroke-opacity="0">6</text>
<g class="stroked-text"><desc>6</desc>
<path d="M6.7951 20.5248
L6.5532 20.5248
" />
<path d="M6.5532 20.5248
L6.4323 20.5853
" />
<path d="M6.4323 20.5853
L6.3718 20.6458
" />
<path d="M6.3718 20.6458
L6.2508 20.8272
" />
<path d="M6.2508 20.8272
L6.1904 21.0691
" />
<path d="M6.1904 21.0691
L6.1904 21.5529
" />
<path d="M6.1904 21.5529
L6.2508 21.6739
" />
<path d="M6.2508 21.6739
L6.3113 21.7344
" />
<path d="M6.3113 21.7344
L6.4323 21.7948
" />
<path d="M6.4323 21.7948
L6.6742 21.7948
" />
<path d="M6.6742 21.7948
L6.7951 21.7344
" />
<path d="M6.7951 21.7344
L6.8556 21.6739
" />
<path d="M6.8556 21.6739
L6.9161 21.5529
" />
<path d="M6.9161 21.5529
L6.9161 21.2505
" />
<path d="M6.9161 21.2505
L6.8556 21.1296
" />
<path d="M6.8556 21.1296
L6.7951 21.0691
" />
<path d="M6.7951 21.0691
L6.6742 21.0086
" />
<path d="M6.6742 21.0086
L6.4323 21.0086
" />
<path d="M6.4323 21.0086
L6.3113 21.0691
" />
<path d="M6.3113 21.0691
L6.2508 21.1296
" />
<path d="M6.2508 21.1296
L6.1904 21.2505
" />
</g></g>
<g style="fill:none; 
stroke:#840000; stroke-width:0.1524; stroke-opacity:1; 
stroke-linecap:round; stroke-linejoin:round;">
<path d="M9.0932 24.7523
L4.0132 24.7523
" />
</g>
<g style="fill:none; 
stroke:#006464; stroke-width:0.1524; stroke-opacity:1; 
stroke-linecap:round; stroke-linejoin:round;">
<text x="10.1092" y="25.3873"
textLength="5.2227" font-size="1.6933" lengthAdjust="spacingAndGlyphs"
text-anchor="start" opacity="0" stroke-opacity="0">4/D4</text>
<g class="stroked-text"><desc>4/D4</desc>
<path d="M11.0560 24.4852
L11.0560 25.3318
" />
<path d="M10.7536 24.0014
L10.4513 24.9085
" />
<path d="M10.4513 24.9085
L11.2374 24.9085
" />
<path d="M12.6284 24.0014
L11.5398 25.6342
" />
<path d="M13.0517 25.3318
L13.0517 24.0618
" />
<path d="M13.0517 24.0618
L13.3541 24.0618
" />
<path d="M13.3541 24.0618
L13.5355 24.1223
" />
<path d="M13.5355 24.1223
L13.6565 24.2433
" />
<path d="M13.6565 24.2433
L13.7170 24.3642
" />
<path d="M13.7170 24.3642
L13.7774 24.6061
" />
<path d="M13.7774 24.6061
L13.7774 24.7875
" />
<path d="M13.7774 24.7875
L13.7170 25.0294
" />
<path d="M13.7170 25.0294
L13.6565 25.1504
" />
<path d="M13.6565 25.1504
L13.5355 25.2714
" />
<path d="M13.5355 25.2714
L13.3541 25.3318
" />
<path d="M13.3541 25.3318
L13.0517 25.3318
" />
<path d="M14.8660 24.4852
L14.8660 25.3318
" />
<path d="M14.5636 24.0014
L14.2613 24.9085
" />
<path d="M14.2613 24.9085
L15.0474 24.9085
" />
</g></g>
<g style="fill:none; 
stroke:#A90000; stroke-width:0.1524; stroke-opacity:1; 
stroke-linecap:round; stroke-linejoin:round;">
<text x="6.5532" y="24.4983"
textLength="1.4127" font-size="1.6933" lengthAdjust="spacingAndGlyphs"
text-anchor="middle" opacity="0" stroke-opacity="0">7</text>
<g class="stroked-text"><desc>7</desc>
<path d="M6.1299 23.0648
L6.9765 23.0648
" />
<path d="M6.9765 23.0648
L6.4323 24.3348
" />
</g></g>
<g style="fill:none; 
stroke:#840000; stroke-width:0.1524; stroke-opacity:1; 
stroke-linecap:round; stroke-linejoin:round;">
<path d="M9.0932 27.2923
L4.0132 27.2923
" />
</g>
<g style="fill:none; 
stroke:#006464; stroke-width:0.1524; stroke-opacity:1; 
stroke-linecap:round; stroke-linejoin:round;">
<text x="10.1092" y="27.9273"
textLength="5.2227" font-size="1.6933" lengthAdjust="spacingAndGlyphs"
text-anchor="start" opacity="0" stroke-opacity="0">5/C6</text>
<g class="stroked-text"><desc>5/C6</desc>
<path d="M11.1165 26.6018
L10.5117 26.6018
" />
<path d="M10.5117 26.6018
L10.4513 27.2066
" />
<path d="M10.4513 27.2066
L10.5117 27.1461
" />
<path d="M10.5117 27.1461
L10.6327 27.0856
" />
<path d="M10.6327 27.0856
L10.9351 27.0856
" />
<path d="M10.9351 27.0856
L11.0560 27.1461
" />
<path d="M11.0560 27.1461
L11.1165 27.2066
" />
<path d="M11.1165 27.2066
L11.1770 27.3275
" />
<path d="M11.1770 27.3275
L11.1770 27.6299
" />
<path d="M11.1770 27.6299
L11.1165 27.7509
" />
<path d="M11.1165 27.7509
L11.0560 27.8114
" />
<path d="M11.0560 27.8114
L10.9351 27.8718
" />
<path d="M10.9351 27.8718
L10.6327 27.8718
" />
<path d="M10.6327 27.8718
L10.5117 27.8114
" />
<path d="M10.5117 27.8114
L10.4513 27.7509
" />
<path d="M12.6284 26.5414
L11.5398 28.1742
" />
<path d="M13.7774 27.7509
L13.7170 27.8114
" />
<path d="M13.7170 27.8114
L13.5355 27.8718
" />
<path d="M13.5355 27.8718
L13.4146 27.8718
" />
<path d="M13.4146 27.8718
L13.2332 27.8114
" />
<path d="M13.2332 27.8114
L13.1122 27.6904
" />
<path d="M13.1122 27.6904
L13.0517 27.5694
" />
<path d="M13.0517 27.5694
L12.9913 27.3275
" />
<path d="M12.9913 27.3275
L12.9913 27.1461
" />
<path d="M12.9913 27.1461
L13.0517 26.9042
" />
<path d="M13.0517 26.9042
L13.1122 26.7833
" />
<path d="M13.1122 26.7833
L13.2332 26.6623
" />
<path d="M13.2332 26.6623
L13.4146 26.6018
" />
<path d="M13.4146 26.6018
L13.5355 26.6018
" />
<path d="M13.5355 26.6018
L13.7170 26.6623
" />
<path d="M13.7170 26.6623
L13.7774 26.7228
" />
<path d="M14.8660 26.6018
L14.6241 26.6018
" />
<path d="M14.6241 26.6018
L14.5032 26.6623
" />
<path d="M14.5032 26.6623
L14.4427 26.7228
" />
<path d="M14.4427 26.7228
L14.3217 26.9042
" />
<path d="M14.3217 26.9042
L14.2613 27.1461
" />
<path d="M14.2613 27.1461
L14.2613 27.6299
" />
<path d="M14.2613 27.6299
L14.3217 27.7509
" />
<path d="M14.3217 27.7509
L14.3822 27.8114
" />
<path d="M14.3822 27.8114
L14.5032 27.8718
" />
<path d="M14.5032 27.8718
L14.7451 27.8718
" />
<path d="M14.7451 27.8718
L14.8660 27.8114
" />
<path d="M14.8660 27.8114
L14.9265 27.7509
" />
<path d="M14.9265 27.7509
L14.9870 27.6299
" />
<path d="M14.9870 27.6299
L14.9870 27.3275
" />
<path d="M14.9870 27.3275
L14.9265 27.2066
" />
<path d="M14.9265 27.2066
L14.8660 27.1461
" />
<path d="M14.8660 27.1461
L14.7451 27.0856
" />
<path d="M14.7451 27.0856
L14.5032 27.0856
" />
<path d="M14.5032 27.0856
L14.3822 27.1461
" />
<path d="M14.3822 27.1461
L14.3217 27.2066
" />
<path d="M14.3217 27.2066
L14.2613 27.3275
" />
</g></g>
<g style="fill:none; 
stroke:#A90000; stroke-width:0.1524; stroke-opacity:1; 
stroke-linecap:round; stroke-linejoin:round;">
<text x="6.5532" y="27.0383"
textLength="1.4127" font-size="1.6933" lengthAdjust="spacingAndGlyphs"
text-anchor="middle" opacity="0" stroke-opacity="0">8</text>
<g class="stroked-text"><desc>8</desc>
<path d="M6.4323 26.1491
L6.3113 26.0886
" />
<path d="M6.3113 26.0886
L6.2508 26.0282
" />
<path d="M6.2508 26.0282
L6.1904 25.9072
" />
<path d="M6.1904 25.9072
L6.1904 25.8467
" />
<path d="M6.1904 25.8467
L6.2508 25.7258
" />
<path d="M6.2508 25.7258
L6.3113 25.6653
" />
<path d="M6.3113 25.6653
L6.4323 25.6048
" />
<path d="M6.4323 25.6048
L6.6742 25.6048
" />
<path d="M6.6742 25.6048
L6.7951 25.6653
" />
<path d="M6.7951 25.6653
L6.8556 25.7258
" />
<path d="M6.8556 25.7258
L6.9161 25.8467
" />
<path d="M6.9161 25.8467
L6.9161 25.9072
" />
<path d="M6.9161 25.9072
L6.8556 26.0282
" />
<path d="M6.8556 26.0282
L6.7951 26.0886
" />
<path d="M6.7951 26.0886
L6.6742 26.1491
" />
<path d="M6.6742 26.1491
L6.4323 26.1491
" />
<path d="M6.4323 26.1491
L6.3113 26.2096
" />
<path d="M6.3113 26.2096
L6.2508 26.2701
" />
<path d="M6.2508 26.2701
L6.1904 26.3910
" />
<path d="M6.1904 26.3910
L6.1904 26.6329
" />
<path d="M6.1904 26.6329
L6.2508 26.7539
" />
<path d="M6.2508 26.7539
L6.3113 26.8144
" />
<path d="M6.3113 26.8144
L6.4323 26.8748
" />
<path d="M6.4323 26.8748
L6.6742 26.8748
" />
<path d="M6.6742 26.8748
L6.7951 26.8144
" />
<path d="M6.7951 26.8144
L6.8556 26.7539
" />
<path d="M6.8556 26.7539
L6.9161 26.6329
" />
<path d="M6.9161 26.6329
L6.9161 26.3910
" />
<path d="M6.9161 26.3910
L6.8556 26.2701
" />
<path d="M6.8556 26.2701
L6.7951 26.2096
" />
<path d="M6.7951 26.2096
L6.6742 26.1491
" />
</g></g>
<g style="fill:none; 
stroke:#840000; stroke-width:0.1524; stroke-opacity:1; 
stroke-linecap:round; stroke-linejoin:round;">
<path d="M9.0932 29.8323
L4.0132 29.8323
" />
</g>
<g style="fill:none; 
stroke:#006464; stroke-width:0.1524; stroke-opacity:1; 
stroke-linecap:round; stroke-linejoin:round;">
<text x="10.1092" y="30.4673"
textLength="5.2227" font-size="1.6933" lengthAdjust="spacingAndGlyphs"
text-anchor="start" opacity="0" stroke-opacity="0">6/D7</text>
<g class="stroked-text"><desc>6/D7</desc>
<path d="M11.0560 29.1418
L10.8141 29.1418
" />
<path d="M10.8141 29.1418
L10.6932 29.2023
" />
<path d="M10.6932 29.2023
L10.6327 29.2628
" />
<path d="M10.6327 29.2628
L10.5117 29.4442
" />
<path d="M10.5117 29.4442
L10.4513 29.6861
" />
<path d="M10.4513 29.6861
L10.4513 30.1699
" />
<path d="M10.4513 30.1699
L10.5117 30.2909
" />
<path d="M10.5117 30.2909
L10.5722 30.3514
" />
<path d="M10.5722 30.3514
L10.6932 30.4118
" />
<path d="M10.6932 30.4118
L10.9351 30.4118
" />
<path d="M10.9351 30.4118
L11.0560 30.3514
" />
<path d="M11.0560 30.3514
L11.1165 30.2909
" />
<path d="M11.1165 30.2909
L11.1770 30.1699
" />
<path d="M11.1770 30.1699
L11.1770 29.8675
" />
<path d="M11.1770 29.8675
L11.1165 29.7466
" />
<path d="M11.1165 29.7466
L11.0560 29.6861
" />
<path d="M11.0560 29.6861
L10.9351 29.6256
" />
<path d="M10.9351 29.6256
L10.6932 29.6256
" />
<path d="M10.6932 29.6256
L10.5722 29.6861
" />
<path d="M10.5722 29.6861
L10.5117 29.7466
" />
<path d="M10.5117 29.7466
L10.4513 29.8675
" />
<path d="M12.6284 29.0814
L11.5398 30.7142
" />
<path d="M13.0517 30.4118
L13.0517 29.1418
" />
<path d="M13.0517 29.1418
L13.3541 29.1418
" />
<path d="M13.3541 29.1418
L13.5355 29.2023
" />
<path d="M13.5355 29.2023
L13.6565 29.3233
" />
<path d="M13.6565 29.3233
L13.7170 29.4442
" />
<path d="M13.7170 29.4442
L13.7774 29.6861
" />
<path d="M13.7774 29.6861
L13.7774 29.8675
" />
<path d="M13.7774 29.8675
L13.7170 30.1094
" />
<path d="M13.7170 30.1094
L13.6565 30.2304
" />
<path d="M13.6565 30.2304
L13.5355 30.3514
" />
<path d="M13.5355 30.3514
L13.3541 30.4118
" />
<path d="M13.3541 30.4118
L13.0517 30.4118
" />
<path d="M14.2008 29.1418
L15.0474 29.1418
" />
<path d="M15.0474 29.1418
L14.5032 30.4118
" />
</g></g>
<g style="fill:none; 
stroke:#A90000; stroke-width:0.1524; stroke-opacity:1; 
stroke-linecap:round; stroke-linejoin:round;">
<text x="6.5532" y="29.5783"
textLength="1.4127" font-size="1.6933" lengthAdjust="spacingAndGlyphs"
text-anchor="middle" opacity="0" stroke-opacity="0">9</text>
<g class="stroked-text"><desc>9</desc>
<path d="M6.3113 29.4148
L6.5532 29.4148
" />
<path d="M6.5532 29.4148
L6.6742 29.3544
" />
<path d="M6.6742 29.3544
L6.7346 29.2939
" />
<path d="M6.7346 29.2939
L6.8556 29.1124
" />
<path d="M6.8556 29.1124
L6.9161 28.8705
" />
<path d="M6.9161 28.8705
L6.9161 28.3867
" />
<path d="M6.9161 28.3867
L6.8556 28.2658
" />
<path d="M6.8556 28.2658
L6.7951 28.2053
" />
<path d="M6.7951 28.2053
L6.6742 28.1448
" />
<path d="M6.6742 28.1448
L6.4323 28.1448
" />
<path d="M6.4323 28.1448
L6.3113 28.2053
" />
<path d="M6.3113 28.2053
L6.2508 28.2658
" />
<path d="M6.2508 28.2658
L6.1904 28.3867
" />
<path d="M6.1904 28.3867
L6.1904 28.6891
" />
<path d="M6.1904 28.6891
L6.2508 28.8101
" />
<path d="M6.2508 28.8101
L6.3113 28.8705
" />
<path d="M6.3113 28.8705
L6.4323 28.9310
" />
<path d="M6.4323 28.9310
L6.6742 28.9310
" />
<path d="M6.6742 28.9310
L6.7951 28.8705
" />
<path d="M6.7951 28.8705
L6.8556 28.8101
" />
<path d="M6.8556 28.8101
L6.9161 28.6891
" />
</g></g>
<g style="fill:none; 
stroke:#840000; stroke-width:0.1524; stroke-opacity:1; 
stroke-linecap:round; stroke-linejoin:round;">
<path d="M9.0932 32.3723
L4.0132 32.3723
" />
</g>
<g style="fill:none; 
stroke:#006464; stroke-width:0.1524; stroke-opacity:1; 
stroke-linecap:round; stroke-linejoin:round;">
<text x="10.1092" y="33.0073"
textLength="5.1017" font-size="1.6933" lengthAdjust="spacingAndGlyphs"
text-anchor="start" opacity="0" stroke-opacity="0">7/E6</text>
<g class="stroked-text"><desc>7/E6</desc>
<path d="M10.3908 31.6818
L11.2374 31.6818
" />
<path d="M11.2374 31.6818
L10.6932 32.9518
" />
<path d="M12.6284 31.6214
L11.5398 33.2542
" />
<path d="M13.0517 32.2866
L13.4751 32.2866
" />
<path d="M13.6565 32.9518
L13.0517 32.9518
" />
<path d="M13.0517 32.9518
L13.0517 31.6818
" />
<path d="M13.0517 31.6818
L13.6565 31.6818
" />
<path d="M14.7450 31.6818
L14.5031 31.6818
" />
<path d="M14.5031 31.6818
L14.3822 31.7423
" />
<path d="M14.3822 31.7423
L14.3217 31.8028
" />
<path d="M14.3217 31.8028
L14.2007 31.9842
" />
<path d="M14.2007 31.9842
L14.1403 32.2261
" />
<path d="M14.1403 32.2261
L14.1403 32.7099
" />
<path d="M14.1403 32.7099
L14.2007 32.8309
" />
<path d="M14.2007 32.8309
L14.2612 32.8914
" />
<path d="M14.2612 32.8914
L14.3822 32.9518
" />
<path d="M14.3822 32.9518
L14.6241 32.9518
" />
<path d="M14.6241 32.9518
L14.7450 32.8914
" />
<path d="M14.7450 32.8914
L14.8055 32.8309
" />
<path d="M14.8055 32.8309
L14.8660 32.7099
" />
<path d="M14.8660 32.7099
L14.8660 32.4075
" />
<path d="M14.8660 32.4075
L14.8055 32.2866
" />
<path d="M14.8055 32.2866
L14.7450 32.2261
" />
<path d="M14.7450 32.2261
L14.6241 32.1656
" />
<path d="M14.6241 32.1656
L14.3822 32.1656
" />
<path d="M14.3822 32.1656
L14.2612 32.2261
" />
<path d="M14.2612 32.2261
L14.2007 32.2866
" />
<path d="M14.2007 32.2866
L14.1403 32.4075
" />
</g></g>
<g style="fill:none; 
stroke:#A90000; stroke-width:0.1524; stroke-opacity:1; 
stroke-linecap:round; stroke-linejoin:round;">
<text x="6.5532" y="32.1183"
textLength="2.6222" font-size="1.6933" lengthAdjust="spacingAndGlyphs"
text-anchor="middle" opacity="0" stroke-opacity="0">10</text>
<g class="stroked-text"><desc>10</desc>
<path d="M6.3113 31.9548
L5.5856 31.9548
" />
<path d="M5.9484 31.9548
L5.9484 30.6848
" />
<path d="M5.9484 30.6848
L5.8275 30.8663
" />
<path d="M5.8275 30.8663
L5.7065 30.9872
" />
<path d="M5.7065 30.9872
L5.5856 31.0477
" />
<path d="M7.0974 30.6848
L7.2184 30.6848
" />
<path d="M7.2184 30.6848
L7.3393 30.7453
" />
<path d="M7.3393 30.7453
L7.3998 30.8058
" />
<path d="M7.3998 30.8058
L7.4603 30.9267
" />
<path d="M7.4603 30.9267
L7.5208 31.1686
" />
<path d="M7.5208 31.1686
L7.5208 31.4710
" />
<path d="M7.5208 31.4710
L7.4603 31.7129
" />
<path d="M7.4603 31.7129
L7.3998 31.8339
" />
<path d="M7.3998 31.8339
L7.3393 31.8944
" />
<path d="M7.3393 31.8944
L7.2184 31.9548
" />
<path d="M7.2184 31.9548
L7.0974 31.9548
" />
<path d="M7.0974 31.9548
L6.9765 31.8944
" />
<path d="M6.9765 31.8944
L6.9160 31.8339
" />
<path d="M6.9160 31.8339
L6.8555 31.7129
" />
<path d="M6.8555 31.7129
L6.7951 31.4710
" />
<path d="M6.7951 31.4710
L6.7951 31.1686
" />
<path d="M6.7951 31.1686
L6.8555 30.9267
" />
<path d="M6.8555 30.9267
L6.9160 30.8058
" />
<path d="M6.9160 30.8058
L6.9765 30.7453
" />
<path d="M6.9765 30.7453
L7.0974 30.6848
" />
</g></g>
<g style="fill:none; 
stroke:#840000; stroke-width:0.1524; stroke-opacity:1; 
stroke-linecap:round; stroke-linejoin:round;">
<path d="M9.0932 34.9123
L4.0132 34.9123
" />
</g>
<g style="fill:none; 
stroke:#006464; stroke-width:0.1524; stroke-opacity:1; 
stroke-linecap:round; stroke-linejoin:round;">
<text x="10.1092" y="35.5473"
textLength="5.2227" font-size="1.6933" lengthAdjust="spacingAndGlyphs"
text-anchor="start" opacity="0" stroke-opacity="0">8/B4</text>
<g class="stroked-text"><desc>8/B4</desc>
<path d="M10.6932 34.7661
L10.5722 34.7056
" />
<path d="M10.5722 34.7056
L10.5117 34.6452
" />
<path d="M10.5117 34.6452
L10.4513 34.5242
" />
<path d="M10.4513 34.5242
L10.4513 34.4637
" />
<path d="M10.4513 34.4637
L10.5117 34.3428
" />
<path d="M10.5117 34.3428
L10.5722 34.2823
" />
<path d="M10.5722 34.2823
L10.6932 34.2218
" />
<path d="M10.6932 34.2218
L10.9351 34.2218
" />
<path d="M10.9351 34.2218
L11.0560 34.2823
" />
<path d="M11.0560 34.2823
L11.1165 34.3428
" />
<path d="M11.1165 34.3428
L11.1770 34.4637
" />
<path d="M11.1770 34.4637
L11.1770 34.5242
" />
<path d="M11.1770 34.5242
L11.1165 34.6452
" />
<path d="M11.1165 34.6452
L11.0560 34.7056
" />
<path d="M11.0560 34.7056
L10.9351 34.7661
" />
<path d="M10.9351 34.7661
L10.6932 34.7661
" />
<path d="M10.6932 34.7661
L10.5722 34.8266
" />
<path d="M10.5722 34.8266
L10.5117 34.8871
" />
<path d="M10.5117 34.8871
L10.4513 35.0080
" />
<path d="M10.4513 35.0080
L10.4513 35.2499
" />
<path d="M10.4513 35.2499
L10.5117 35.3709
" />
<path d="M10.5117 35.3709
L10.5722 35.4314
" />
<path d="M10.5722 35.4314
L10.6932 35.4918
" />
<path d="M10.6932 35.4918
L10.9351 35.4918
" />
<path d="M10.9351 35.4918
L11.0560 35.4314
" />
<path d="M11.0560 35.4314
L11.1165 35.3709
" />
<path d="M11.1165 35.3709
L11.1770 35.2499
" />
<path d="M11.1770 35.2499
L11.1770 35.0080
" />
<path d="M11.1770 35.0080
L11.1165 34.8871
" />
<path d="M11.1165 34.8871
L11.0560 34.8266
" />
<path d="M11.0560 34.8266
L10.9351 34.7661
" />
<path d="M12.6284 34.1614
L11.5398 35.7942
" />
<path d="M13.4751 34.8266
L13.6565 34.8871
" />
<path d="M13.6565 34.8871
L13.7170 34.9475
" />
<path d="M13.7170 34.9475
L13.7774 35.0685
" />
<path d="M13.7774 35.0685
L13.7774 35.2499
" />
<path d="M13.7774 35.2499
L13.7170 35.3709
" />
<path d="M13.7170 35.3709
L13.6565 35.4314
" />
<path d="M13.6565 35.4314
L13.5355 35.4918
" />
<path d="M13.5355 35.4918
L13.0517 35.4918
" />
<path d="M13.0517 35.4918
L13.0517 34.2218
" />
<path d="M13.0517 34.2218
L13.4751 34.2218
" />
<path d="M13.4751 34.2218
L13.5960 34.2823
" />
<path d="M13.5960 34.2823
L13.6565 34.3428
" />
<path d="M13.6565 34.3428
L13.7170 34.4637
" />
<path d="M13.7170 34.4637
L13.7170 34.5847
" />
<path d="M13.7170 34.5847
L13.6565 34.7056
" />
<path d="M13.6565 34.7056
L13.5960 34.7661
" />
<path d="M13.5960 34.7661
L13.4751 34.8266
" />
<path d="M13.4751 34.8266
L13.0517 34.8266
" />
<path d="M14.8660 34.6452
L14.8660 35.4918
" />
<path d="M14.5636 34.1614
L14.2613 35.0685
" />
<path d="M14.2613 35.0685
L15.0474 35.0685
" />
</g></g>
<g style="fill:none; 
stroke:#A90000; stroke-width:0.1524; stroke-opacity:1; 
stroke-linecap:round; stroke-linejoin:round;">
<text x="6.5532" y="34.6583"
textLength="2.6222" font-size="1.6933" lengthAdjust="spacingAndGlyphs"
text-anchor="middle" opacity="0" stroke-opacity="0">11</text>
<g class="stroked-text"><desc>11</desc>
<path d="M6.3113 34.4948
L5.5856 34.4948
" />
<path d="M5.9484 34.4948
L5.9484 33.2248
" />
<path d="M5.9484 33.2248
L5.8275 33.4063
" />
<path d="M5.8275 33.4063
L5.7065 33.5272
" />
<path d="M5.7065 33.5272
L5.5856 33.5877
" />
<path d="M7.5208 34.4948
L6.7951 34.4948
" />
<path d="M7.1579 34.4948
L7.1579 33.2248
" />
<path d="M7.1579 33.2248
L7.0370 33.4063
" />
<path d="M7.0370 33.4063
L6.9160 33.5272
" />
<path d="M6.9160 33.5272
L6.7951 33.5877
" />
</g></g>
<g style="fill:none; 
stroke:#840000; stroke-width:0.1524; stroke-opacity:1; 
stroke-linecap:round; stroke-linejoin:round;">
<path d="M9.0932 37.4523
L4.0132 37.4523
" />
</g>
<g style="fill:none; 
stroke:#006464; stroke-width:0.1524; stroke-opacity:1; 
stroke-linecap:round; stroke-linejoin:round;">
<text x="10.1092" y="38.0873"
textLength="5.2227" font-size="1.6933" lengthAdjust="spacingAndGlyphs"
text-anchor="start" opacity="0" stroke-opacity="0">9/B5</text>
<g class="stroked-text"><desc>9/B5</desc>
<path d="M10.5722 38.0318
L10.8141 38.0318
" />
<path d="M10.8141 38.0318
L10.9351 37.9714
" />
<path d="M10.9351 37.9714
L10.9955 37.9109
" />
<path d="M10.9955 37.9109
L11.1165 37.7294
" />
<path d="M11.1165 37.7294
L11.1770 37.4875
" />
<path d="M11.1770 37.4875
L11.1770 37.0037
" />
<path d="M11.1770 37.0037
L11.1165 36.8828
" />
<path d="M11.1165 36.8828
L11.0560 36.8223
" />
<path d="M11.0560 36.8223
L10.9351 36.7618
" />
<path d="M10.9351 36.7618
L10.6932 36.7618
" />
<path d="M10.6932 36.7618
L10.5722 36.8223
" />
<path d="M10.5722 36.8223
L10.5117 36.8828
" />
<path d="M10.5117 36.8828
L10.4513 37.0037
" />
<path d="M10.4513 37.0037
L10.4513 37.3061
" />
<path d="M10.4513 37.3061
L10.5117 37.4271
" />
<path d="M10.5117 37.4271
L10.5722 37.4875
" />
<path d="M10.5722 37.4875
L10.6932 37.5480
" />
<path d="M10.6932 37.5480
L10.9351 37.5480
" />
<path d="M10.9351 37.5480
L11.0560 37.4875
" />
<path d="M11.0560 37.4875
L11.1165 37.4271
" />
<path d="M11.1165 37.4271
L11.1770 37.3061
" />
<path d="M12.6284 36.7014
L11.5398 38.3342
" />
<path d="M13.4751 37.3666
L13.6565 37.4271
" />
<path d="M13.6565 37.4271
L13.7170 37.4875
" />
<path d="M13.7170 37.4875
L13.7774 37.6085
" />
<path d="M13.7774 37.6085
L13.7774 37.7899
" />
<path d="M13.7774 37.7899
L13.7170 37.9109
" />
<path d="M13.7170 37.9109
L13.6565 37.9714
" />
<path d="M13.6565 37.9714
L13.5355 38.0318
" />
<path d="M13.5355 38.0318
L13.0517 38.0318
" />
<path d="M13.0517 38.0318
L13.0517 36.7618
" />
<path d="M13.0517 36.7618
L13.4751 36.7618
" />
<path d="M13.4751 36.7618
L13.5960 36.8223
" />
<path d="M13.5960 36.8223
L13.6565 36.8828
" />
<path d="M13.6565 36.8828
L13.7170 37.0037
" />
<path d="M13.7170 37.0037
L13.7170 37.1247
" />
<path d="M13.7170 37.1247
L13.6565 37.2456
" />
<path d="M13.6565 37.2456
L13.5960 37.3061
" />
<path d="M13.5960 37.3061
L13.4751 37.3666
" />
<path d="M13.4751 37.3666
L13.0517 37.3666
" />
<path d="M14.9265 36.7618
L14.3217 36.7618
" />
<path d="M14.3217 36.7618
L14.2613 37.3666
" />
<path d="M14.2613 37.3666
L14.3217 37.3061
" />
<path d="M14.3217 37.3061
L14.4427 37.2456
" />
<path d="M14.4427 37.2456
L14.7451 37.2456
" />
<path d="M14.7451 37.2456
L14.8660 37.3061
" />
<path d="M14.8660 37.3061
L14.9265 37.3666
" />
<path d="M14.9265 37.3666
L14.9870 37.4875
" />
<path d="M14.9870 37.4875
L14.9870 37.7899
" />
<path d="M14.9870 37.7899
L14.9265 37.9109
" />
<path d="M14.9265 37.9109
L14.8660 37.9714
" />
<path d="M14.8660 37.9714
L14.7451 38.0318
" />
<path d="M14.7451 38.0318
L14.4427 38.0318
" />
<path d="M14.4427 38.0318
L14.3217 37.9714
" />
<path d="M14.3217 37.9714
L14.2613 37.9109
" />
</g></g>
<g style="fill:none; 
stroke:#A90000; stroke-width:0.1524; stroke-opacity:1; 
stroke-linecap:round; stroke-linejoin:round;">
<text x="6.5532" y="37.1983"
textLength="2.6222" font-size="1.6933" lengthAdjust="spacingAndGlyphs"
text-anchor="middle" opacity="0" stroke-opacity="0">12</text>
<g class="stroked-text"><desc>12</desc>
<path d="M6.3113 37.0348
L5.5856 37.0348
" />
<path d="M5.9484 37.0348
L5.9484 35.7648
" />
<path d="M5.9484 35.7648
L5.8275 35.9463
" />
<path d="M5.8275 35.9463
L5.7065 36.0672
" />
<path d="M5.7065 36.0672
L5.5856 36.1277
" />
<path d="M6.7951 35.8858
L6.8555 35.8253
" />
<path d="M6.8555 35.8253
L6.9765 35.7648
" />
<path d="M6.9765 35.7648
L7.2789 35.7648
" />
<path d="M7.2789 35.7648
L7.3998 35.8253
" />
<path d="M7.3998 35.8253
L7.4603 35.8858
" />
<path d="M7.4603 35.8858
L7.5208 36.0067
" />
<path d="M7.5208 36.0067
L7.5208 36.1277
" />
<path d="M7.5208 36.1277
L7.4603 36.3091
" />
<path d="M7.4603 36.3091
L6.7346 37.0348
" />
<path d="M6.7346 37.0348
L7.5208 37.0348
" />
</g></g>
<g style="fill:none; 
stroke:#840000; stroke-width:0.1524; stroke-opacity:1; 
stroke-linecap:round; stroke-linejoin:round;">
<path d="M34.4932 9.5123
L39.5732 9.5123
" />
</g>
<g style="fill:none; 
stroke:#006464; stroke-width:0.1524; stroke-opacity:1; 
stroke-linecap:round; stroke-linejoin:round;">
<text x="33.4772" y="10.1473"
textLength="4.0132" font-size="1.6933" lengthAdjust="spacingAndGlyphs"
text-anchor="end" opacity="0" stroke-opacity="0">RAW</text>
<g class="stroked-text"><desc>RAW</desc>
<path d="M30.5950 10.0918
L30.1717 9.4871
" />
<path d="M29.8693 10.0918
L29.8693 8.8218
" />
<path d="M29.8693 8.8218
L30.3531 8.8218
" />
<path d="M30.3531 8.8218
L30.4741 8.8823
" />
<path d="M30.4741 8.8823
L30.5346 8.9428
" />
<path d="M30.5346 8.9428
L30.5950 9.0637
" />
<path d="M30.5950 9.0637
L30.5950 9.2452
" />
<path d="M30.5950 9.2452
L30.5346 9.3661
" />
<path d="M30.5346 9.3661
L30.4741 9.4266
" />
<path d="M30.4741 9.4266
L30.3531 9.4871
" />
<path d="M30.3531 9.4871
L29.8693 9.4871
" />
<path d="M31.0789 9.7290
L31.6836 9.7290
" />
<path d="M30.9579 10.0918
L31.3812 8.8218
" />
<path d="M31.3812 8.8218
L31.8046 10.0918
" />
<path d="M32.1070 8.8218
L32.4094 10.0918
" />
<path d="M32.4094 10.0918
L32.6513 9.1847
" />
<path d="M32.6513 9.1847
L32.8932 10.0918
" />
<path d="M32.8932 10.0918
L33.1956 8.8218
" />
</g></g>
<g style="fill:none; 
stroke:#A90000; stroke-width:0.1524; stroke-opacity:1; 
stroke-linecap:round; stroke-linejoin:round;">
<text x="37.0332" y="9.2583"
textLength="2.6222" font-size="1.6933" lengthAdjust="spacingAndGlyphs"
text-anchor="middle" opacity="0" stroke-opacity="0">24</text>
<g class="stroked-text"><desc>24</desc>
<path d="M36.0656 7.9458
L36.1260 7.8853
" />
<path d="M36.1260 7.8853
L36.2470 7.8248
" />
<path d="M36.2470 7.8248
L36.5494 7.8248
" />
<path d="M36.5494 7.8248
L36.6703 7.8853
" />
<path d="M36.6703 7.8853
L36.7308 7.9458
" />
<path d="M36.7308 7.9458
L36.7913 8.0667
" />
<path d="M36.7913 8.0667
L36.7913 8.1877
" />
<path d="M36.7913 8.1877
L36.7308 8.3691
" />
<path d="M36.7308 8.3691
L36.0051 9.0948
" />
<path d="M36.0051 9.0948
L36.7913 9.0948
" />
<path d="M37.8798 8.2482
L37.8798 9.0948
" />
<path d="M37.5774 7.7644
L37.2751 8.6715
" />
<path d="M37.2751 8.6715
L38.0612 8.6715
" />
</g></g>
<g style="fill:none; 
stroke:#840000; stroke-width:0.1524; stroke-opacity:1; 
stroke-linecap:round; stroke-linejoin:round;">
<path d="M34.4932 12.0523
L39.5732 12.0523
" />
</g>
<g style="fill:none; 
stroke:#006464; stroke-width:0.1524; stroke-opacity:1; 
stroke-linecap:round; stroke-linejoin:round;">
<text x="33.4772" y="12.6873"
textLength="4.0737" font-size="1.6933" lengthAdjust="spacingAndGlyphs"
text-anchor="end" opacity="0" stroke-opacity="0">GND</text>
<g class="stroked-text"><desc>GND</desc>
<path d="M30.4741 11.4223
L30.3531 11.3618
" />
<path d="M30.3531 11.3618
L30.1717 11.3618
" />
<path d="M30.1717 11.3618
L29.9903 11.4223
" />
<path d="M29.9903 11.4223
L29.8693 11.5433
" />
<path d="M29.8693 11.5433
L29.8088 11.6642
" />
<path d="M29.8088 11.6642
L29.7484 11.9061
" />
<path d="M29.7484 11.9061
L29.7484 12.0875
" />
<path d="M29.7484 12.0875
L29.8088 12.3294
" />
<path d="M29.8088 12.3294
L29.8693 12.4504
" />
<path d="M29.8693 12.4504
L29.9903 12.5714
" />
<path d="M29.9903 12.5714
L30.1717 12.6318
" />
<path d="M30.1717 12.6318
L30.2926 12.6318
" />
<path d="M30.2926 12.6318
L30.4741 12.5714
" />
<path d="M30.4741 12.5714
L30.5345 12.5109
" />
<path d="M30.5345 12.5109
L30.5345 12.0875
" />
<path d="M30.5345 12.0875
L30.2926 12.0875
" />
<path d="M31.0788 12.6318
L31.0788 11.3618
" />
<path d="M31.0788 11.3618
L31.8045 12.6318
" />
<path d="M31.8045 12.6318
L31.8045 11.3618
" />
<path d="M32.4093 12.6318
L32.4093 11.3618
" />
<path d="M32.4093 11.3618
L32.7117 11.3618
" />
<path d="M32.7117 11.3618
L32.8931 11.4223
" />
<path d="M32.8931 11.4223
L33.0141 11.5433
" />
<path d="M33.0141 11.5433
L33.0746 11.6642
" />
<path d="M33.0746 11.6642
L33.1350 11.9061
" />
<path d="M33.1350 11.9061
L33.1350 12.0875
" />
<path d="M33.1350 12.0875
L33.0746 12.3294
" />
<path d="M33.0746 12.3294
L33.0141 12.4504
" />
<path d="M33.0141 12.4504
L32.8931 12.5714
" />
<path d="M32.8931 12.5714
L32.7117 12.6318
" />
<path d="M32.7117 12.6318
L32.4093 12.6318
" />
</g></g>
<g style="fill:none; 
stroke:#A90000; stroke-width:0.1524; stroke-opacity:1; 
stroke-linecap:round; stroke-linejoin:round;">
<text x="37.0332" y="11.7983"
textLength="2.6222" font-size="1.6933" lengthAdjust="spacingAndGlyphs"
text-anchor="middle" opacity="0" stroke-opacity="0">23</text>
<g class="stroked-text"><desc>23</desc>
<path d="M36.0656 10.4858
L36.1260 10.4253
" />
<path d="M36.1260 10.4253
L36.2470 10.3648
" />
<path d="M36.2470 10.3648
L36.5494 10.3648
" />
<path d="M36.5494 10.3648
L36.6703 10.4253
" />
<path d="M36.6703 10.4253
L36.7308 10.4858
" />
<path d="M36.7308 10.4858
L36.7913 10.6067
" />
<path d="M36.7913 10.6067
L36.7913 10.7277
" />
<path d="M36.7913 10.7277
L36.7308 10.9091
" />
<path d="M36.7308 10.9091
L36.0051 11.6348
" />
<path d="M36.0051 11.6348
L36.7913 11.6348
" />
<path d="M37.2146 10.3648
L38.0008 10.3648
" />
<path d="M38.0008 10.3648
L37.5774 10.8486
" />
<path d="M37.5774 10.8486
L37.7589 10.8486
" />
<path d="M37.7589 10.8486
L37.8798 10.9091
" />
<path d="M37.8798 10.9091
L37.9403 10.9696
" />
<path d="M37.9403 10.9696
L38.0008 11.0905
" />
<path d="M38.0008 11.0905
L38.0008 11.3929
" />
<path d="M38.0008 11.3929
L37.9403 11.5139
" />
<path d="M37.9403 11.5139
L37.8798 11.5744
" />
<path d="M37.8798 11.5744
L37.7589 11.6348
" />
<path d="M37.7589 11.6348
L37.3960 11.6348
" />
<path d="M37.3960 11.6348
L37.2751 11.5744
" />
<path d="M37.2751 11.5744
L37.2146 11.5139
" />
</g></g>
<g style="fill:none; 
stroke:#840000; stroke-width:0.1524; stroke-opacity:1; 
stroke-linecap:round; stroke-linejoin:round;">
<path d="M34.4932 14.5923
L39.5732 14.5923
" />
</g>
<g style="fill:none; 
stroke:#006464; stroke-width:0.1524; stroke-opacity:1; 
stroke-linecap:round; stroke-linejoin:round;">
<text x="33.4772" y="15.2273"
textLength="3.6503" font-size="1.6933" lengthAdjust="spacingAndGlyphs"
text-anchor="end" opacity="0" stroke-opacity="0">RST</text>
<g class="stroked-text"><desc>RST</desc>
<path d="M30.9579 15.1718
L30.5346 14.5671
" />
<path d="M30.2322 15.1718
L30.2322 13.9018
" />
<path d="M30.2322 13.9018
L30.7160 13.9018
" />
<path d="M30.7160 13.9018
L30.8370 13.9623
" />
<path d="M30.8370 13.9623
L30.8975 14.0228
" />
<path d="M30.8975 14.0228
L30.9579 14.1437
" />
<path d="M30.9579 14.1437
L30.9579 14.3252
" />
<path d="M30.9579 14.3252
L30.8975 14.4461
" />
<path d="M30.8975 14.4461
L30.8370 14.5066
" />
<path d="M30.8370 14.5066
L30.7160 14.5671
" />
<path d="M30.7160 14.5671
L30.2322 14.5671
" />
<path d="M31.4418 15.1114
L31.6232 15.1718
" />
<path d="M31.6232 15.1718
L31.9256 15.1718
" />
<path d="M31.9256 15.1718
L32.0465 15.1114
" />
<path d="M32.0465 15.1114
L32.1070 15.0509
" />
<path d="M32.1070 15.0509
L32.1675 14.9299
" />
<path d="M32.1675 14.9299
L32.1675 14.8090
" />
<path d="M32.1675 14.8090
L32.1070 14.6880
" />
<path d="M32.1070 14.6880
L32.0465 14.6275
" />
<path d="M32.0465 14.6275
L31.9256 14.5671
" />
<path d="M31.9256 14.5671
L31.6837 14.5066
" />
<path d="M31.6837 14.5066
L31.5627 14.4461
" />
<path d="M31.5627 14.4461
L31.5022 14.3856
" />
<path d="M31.5022 14.3856
L31.4418 14.2647
" />
<path d="M31.4418 14.2647
L31.4418 14.1437
" />
<path d="M31.4418 14.1437
L31.5022 14.0228
" />
<path d="M31.5022 14.0228
L31.5627 13.9623
" />
<path d="M31.5627 13.9623
L31.6837 13.9018
" />
<path d="M31.6837 13.9018
L31.9860 13.9018
" />
<path d="M31.9860 13.9018
L32.1675 13.9623
" />
<path d="M32.5303 13.9018
L33.2560 13.9018
" />
<path d="M32.8932 15.1718
L32.8932 13.9018
" />
</g></g>
<g style="fill:none; 
stroke:#A90000; stroke-width:0.1524; stroke-opacity:1; 
stroke-linecap:round; stroke-linejoin:round;">
<text x="37.0332" y="14.3383"
textLength="2.6222" font-size="1.6933" lengthAdjust="spacingAndGlyphs"
text-anchor="middle" opacity="0" stroke-opacity="0">22</text>
<g class="stroked-text"><desc>22</desc>
<path d="M36.0656 13.0258
L36.1260 12.9653
" />
<path d="M36.1260 12.9653
L36.2470 12.9048
" />
<path d="M36.2470 12.9048
L36.5494 12.9048
" />
<path d="M36.5494 12.9048
L36.6703 12.9653
" />
<path d="M36.6703 12.9653
L36.7308 13.0258
" />
<path d="M36.7308 13.0258
L36.7913 13.1467
" />
<path d="M36.7913 13.1467
L36.7913 13.2677
" />
<path d="M36.7913 13.2677
L36.7308 13.4491
" />
<path d="M36.7308 13.4491
L36.0051 14.1748
" />
<path d="M36.0051 14.1748
L36.7913 14.1748
" />
<path d="M37.2751 13.0258
L37.3355 12.9653
" />
<path d="M37.3355 12.9653
L37.4565 12.9048
" />
<path d="M37.4565 12.9048
L37.7589 12.9048
" />
<path d="M37.7589 12.9048
L37.8798 12.9653
" />
<path d="M37.8798 12.9653
L37.9403 13.0258
" />
<path d="M37.9403 13.0258
L38.0008 13.1467
" />
<path d="M38.0008 13.1467
L38.0008 13.2677
" />
<path d="M38.0008 13.2677
L37.9403 13.4491
" />
<path d="M37.9403 13.4491
L37.2146 14.1748
" />
<path d="M37.2146 14.1748
L38.0008 14.1748
" />
</g></g>
<g style="fill:none; 
stroke:#840000; stroke-width:0.1524; stroke-opacity:1; 
stroke-linecap:round; stroke-linejoin:round;">
<path d="M34.4932 17.1323
L39.5732 17.1323
" />
</g>
<g style="fill:none; 
stroke:#006464; stroke-width:0.1524; stroke-opacity:1; 
stroke-linecap:round; stroke-linejoin:round;">
<text x="33.4772" y="17.7673"
textLength="3.8318" font-size="1.6933" lengthAdjust="spacingAndGlyphs"
text-anchor="end" opacity="0" stroke-opacity="0">VCC</text>
<g class="stroked-text"><desc>VCC</desc>
<path d="M29.8693 16.4418
L30.2926 17.7118
" />
<path d="M30.2926 17.7118
L30.7160 16.4418
" />
<path d="M31.8650 17.5909
L31.8046 17.6514
" />
<path d="M31.8046 17.6514
L31.6231 17.7118
" />
<path d="M31.6231 17.7118
L31.5022 17.7118
" />
<path d="M31.5022 17.7118
L31.3208 17.6514
" />
<path d="M31.3208 17.6514
L31.1998 17.5304
" />
<path d="M31.1998 17.5304
L31.1393 17.4094
" />
<path d="M31.1393 17.4094
L31.0789 17.1675
" />
<path d="M31.0789 17.1675
L31.0789 16.9861
" />
<path d="M31.0789 16.9861
L31.1393 16.7442
" />
<path d="M31.1393 16.7442
L31.1998 16.6233
" />
<path d="M31.1998 16.6233
L31.3208 16.5023
" />
<path d="M31.3208 16.5023
L31.5022 16.4418
" />
<path d="M31.5022 16.4418
L31.6231 16.4418
" />
<path d="M31.6231 16.4418
L31.8046 16.5023
" />
<path d="M31.8046 16.5023
L31.8650 16.5628
" />
<path d="M33.1350 17.5909
L33.0746 17.6514
" />
<path d="M33.0746 17.6514
L32.8931 17.7118
" />
<path d="M32.8931 17.7118
L32.7722 17.7118
" />
<path d="M32.7722 17.7118
L32.5908 17.6514
" />
<path d="M32.5908 17.6514
L32.4698 17.5304
" />
<path d="M32.4698 17.5304
L32.4093 17.4094
" />
<path d="M32.4093 17.4094
L32.3489 17.1675
" />
<path d="M32.3489 17.1675
L32.3489 16.9861
" />
<path d="M32.3489 16.9861
L32.4093 16.7442
" />
<path d="M32.4093 16.7442
L32.4698 16.6233
" />
<path d="M32.4698 16.6233
L32.5908 16.5023
" />
<path d="M32.5908 16.5023
L32.7722 16.4418
" />
<path d="M32.7722 16.4418
L32.8931 16.4418
" />
<path d="M32.8931 16.4418
L33.0746 16.5023
" />
<path d="M33.0746 16.5023
L33.1350 16.5628
" />
</g></g>
<g style="fill:none; 
stroke:#A90000; stroke-width:0.1524; stroke-opacity:1; 
stroke-linecap:round; stroke-linejoin:round;">
<text x="37.0332" y="16.8783"
textLength="2.6222" font-size="1.6933" lengthAdjust="spacingAndGlyphs"
text-anchor="middle" opacity="0" stroke-opacity="0">21</text>
<g class="stroked-text"><desc>21</desc>
<path d="M36.0656 15.5658
L36.1260 15.5053
" />
<path d="M36.1260 15.5053
L36.2470 15.4448
" />
<path d="M36.2470 15.4448
L36.5494 15.4448
" />
<path d="M36.5494 15.4448
L36.6703 15.5053
" />
<path d="M36.6703 15.5053
L36.7308 15.5658
" />
<path d="M36.7308 15.5658
L36.7913 15.6867
" />
<path d="M36.7913 15.6867
L36.7913 15.8077
" />
<path d="M36.7913 15.8077
L36.7308 15.9891
" />
<path d="M36.7308 15.9891
L36.0051 16.7148
" />
<path d="M36.0051 16.7148
L36.7913 16.7148
" />
<path d="M38.0008 16.7148
L37.2751 16.7148
" />
<path d="M37.6379 16.7148
L37.6379 15.4448
" />
<path d="M37.6379 15.4448
L37.5170 15.6263
" />
<path d="M37.5170 15.6263
L37.3960 15.7472
" />
<path d="M37.3960 15.7472
L37.2751 15.8077
" />
</g></g>
<g style="fill:none; 
stroke:#840000; stroke-width:0.1524; stroke-opacity:1; 
stroke-linecap:round; stroke-linejoin:round;">
<path d="M34.4932 19.6723
L39.5732 19.6723
" />
</g>
<g style="fill:none; 
stroke:#006464; stroke-width:0.1524; stroke-opacity:1; 
stroke-linecap:round; stroke-linejoin:round;">
<text x="33.4772" y="20.3073"
textLength="6.1299" font-size="1.6933" lengthAdjust="spacingAndGlyphs"
text-anchor="end" opacity="0" stroke-opacity="0">F4/A3</text>
<g class="stroked-text"><desc>F4/A3</desc>
<path d="M28.1760 19.5866
L27.7526 19.5866
" />
<path d="M27.7526 20.2518
L27.7526 18.9818
" />
<path d="M27.7526 18.9818
L28.3574 18.9818
" />
<path d="M29.3855 19.4052
L29.3855 20.2518
" />
<path d="M29.0831 18.9214
L28.7808 19.8285
" />
<path d="M28.7808 19.8285
L29.5669 19.8285
" />
<path d="M30.9579 18.9214
L29.8693 20.5542
" />
<path d="M31.3208 19.8890
L31.9255 19.8890
" />
<path d="M31.1998 20.2518
L31.6231 18.9818
" />
<path d="M31.6231 18.9818
L32.0465 20.2518
" />
<path d="M32.3489 18.9818
L33.1351 18.9818
" />
<path d="M33.1351 18.9818
L32.7117 19.4656
" />
<path d="M32.7117 19.4656
L32.8932 19.4656
" />
<path d="M32.8932 19.4656
L33.0141 19.5261
" />
<path d="M33.0141 19.5261
L33.0746 19.5866
" />
<path d="M33.0746 19.5866
L33.1351 19.7075
" />
<path d="M33.1351 19.7075
L33.1351 20.0099
" />
<path d="M33.1351 20.0099
L33.0746 20.1309
" />
<path d="M33.0746 20.1309
L33.0141 20.1914
" />
<path d="M33.0141 20.1914
L32.8932 20.2518
" />
<path d="M32.8932 20.2518
L32.5303 20.2518
" />
<path d="M32.5303 20.2518
L32.4094 20.1914
" />
<path d="M32.4094 20.1914
L32.3489 20.1309
" />
</g></g>
<g style="fill:none; 
stroke:#A90000; stroke-width:0.1524; stroke-opacity:1; 
stroke-linecap:round; stroke-linejoin:round;">
<text x="37.0332" y="19.4183"
textLength="2.6222" font-size="1.6933" lengthAdjust="spacingAndGlyphs"
text-anchor="middle" opacity="0" stroke-opacity="0">20</text>
<g class="stroked-text"><desc>20</desc>
<path d="M36.0656 18.1058
L36.1260 18.0453
" />
<path d="M36.1260 18.0453
L36.2470 17.9848
" />
<path d="M36.2470 17.9848
L36.5494 17.9848
" />
<path d="M36.5494 17.9848
L36.6703 18.0453
" />
<path d="M36.6703 18.0453
L36.7308 18.1058
" />
<path d="M36.7308 18.1058
L36.7913 18.2267
" />
<path d="M36.7913 18.2267
L36.7913 18.3477
" />
<path d="M36.7913 18.3477
L36.7308 18.5291
" />
<path d="M36.7308 18.5291
L36.0051 19.2548
" />
<path d="M36.0051 19.2548
L36.7913 19.2548
" />
<path d="M37.5774 17.9848
L37.6984 17.9848
" />
<path d="M37.6984 17.9848
L37.8193 18.0453
" />
<path d="M37.8193 18.0453
L37.8798 18.1058
" />
<path d="M37.8798 18.1058
L37.9403 18.2267
" />
<path d="M37.9403 18.2267
L38.0008 18.4686
" />
<path d="M38.0008 18.4686
L38.0008 18.7710
" />
<path d="M38.0008 18.7710
L37.9403 19.0129
" />
<path d="M37.9403 19.0129
L37.8798 19.1339
" />
<path d="M37.8798 19.1339
L37.8193 19.1944
" />
<path d="M37.8193 19.1944
L37.6984 19.2548
" />
<path d="M37.6984 19.2548
L37.5774 19.2548
" />
<path d="M37.5774 19.2548
L37.4565 19.1944
" />
<path d="M37.4565 19.1944
L37.3960 19.1339
" />
<path d="M37.3960 19.1339
L37.3355 19.0129
" />
<path d="M37.3355 19.0129
L37.2751 18.7710
" />
<path d="M37.2751 18.7710
L37.2751 18.4686
" />
<path d="M37.2751 18.4686
L37.3355 18.2267
" />
<path d="M37.3355 18.2267
L37.3960 18.1058
" />
<path d="M37.3960 18.1058
L37.4565 18.0453
" />
<path d="M37.4565 18.0453
L37.5774 17.9848
" />
</g></g>
<g style="fill:none; 
stroke:#840000; stroke-width:0.1524; stroke-opacity:1; 
stroke-linecap:round; stroke-linejoin:round;">
<path d="M34.4932 22.2123
L39.5732 22.2123
" />
</g>
<g style="fill:none; 
stroke:#006464; stroke-width:0.1524; stroke-opacity:1; 
stroke-linecap:round; stroke-linejoin:round;">
<text x="33.4772" y="22.8473"
textLength="6.1299" font-size="1.6933" lengthAdjust="spacingAndGlyphs"
text-anchor="end" opacity="0" stroke-opacity="0">F5/A2</text>
<g class="stroked-text"><desc>F5/A2</desc>
<path d="M28.1760 22.1266
L27.7526 22.1266
" />
<path d="M27.7526 22.7918
L27.7526 21.5218
" />
<path d="M27.7526 21.5218
L28.3574 21.5218
" />
<path d="M29.4460 21.5218
L28.8412 21.5218
" />
<path d="M28.8412 21.5218
L28.7808 22.1266
" />
<path d="M28.7808 22.1266
L28.8412 22.0661
" />
<path d="M28.8412 22.0661
L28.9622 22.0056
" />
<path d="M28.9622 22.0056
L29.2646 22.0056
" />
<path d="M29.2646 22.0056
L29.3855 22.0661
" />
<path d="M29.3855 22.0661
L29.4460 22.1266
" />
<path d="M29.4460 22.1266
L29.5065 22.2475
" />
<path d="M29.5065 22.2475
L29.5065 22.5499
" />
<path d="M29.5065 22.5499
L29.4460 22.6709
" />
<path d="M29.4460 22.6709
L29.3855 22.7314
" />
<path d="M29.3855 22.7314
L29.2646 22.7918
" />
<path d="M29.2646 22.7918
L28.9622 22.7918
" />
<path d="M28.9622 22.7918
L28.8412 22.7314
" />
<path d="M28.8412 22.7314
L28.7808 22.6709
" />
<path d="M30.9579 21.4614
L29.8693 23.0942
" />
<path d="M31.3208 22.4290
L31.9255 22.4290
" />
<path d="M31.1998 22.7918
L31.6231 21.5218
" />
<path d="M31.6231 21.5218
L32.0465 22.7918
" />
<path d="M32.4094 21.6428
L32.4698 21.5823
" />
<path d="M32.4698 21.5823
L32.5908 21.5218
" />
<path d="M32.5908 21.5218
L32.8932 21.5218
" />
<path d="M32.8932 21.5218
L33.0141 21.5823
" />
<path d="M33.0141 21.5823
L33.0746 21.6428
" />
<path d="M33.0746 21.6428
L33.1351 21.7637
" />
<path d="M33.1351 21.7637
L33.1351 21.8847
" />
<path d="M33.1351 21.8847
L33.0746 22.0661
" />
<path d="M33.0746 22.0661
L32.3489 22.7918
" />
<path d="M32.3489 22.7918
L33.1351 22.7918
" />
</g></g>
<g style="fill:none; 
stroke:#A90000; stroke-width:0.1524; stroke-opacity:1; 
stroke-linecap:round; stroke-linejoin:round;">
<text x="37.0332" y="21.9583"
textLength="2.6222" font-size="1.6933" lengthAdjust="spacingAndGlyphs"
text-anchor="middle" opacity="0" stroke-opacity="0">19</text>
<g class="stroked-text"><desc>19</desc>
<path d="M36.7913 21.7948
L36.0656 21.7948
" />
<path d="M36.4284 21.7948
L36.4284 20.5248
" />
<path d="M36.4284 20.5248
L36.3075 20.7063
" />
<path d="M36.3075 20.7063
L36.1865 20.8272
" />
<path d="M36.1865 20.8272
L36.0656 20.8877
" />
<path d="M37.3960 21.7948
L37.6379 21.7948
" />
<path d="M37.6379 21.7948
L37.7589 21.7344
" />
<path d="M37.7589 21.7344
L37.8193 21.6739
" />
<path d="M37.8193 21.6739
L37.9403 21.4924
" />
<path d="M37.9403 21.4924
L38.0008 21.2505
" />
<path d="M38.0008 21.2505
L38.0008 20.7667
" />
<path d="M38.0008 20.7667
L37.9403 20.6458
" />
<path d="M37.9403 20.6458
L37.8798 20.5853
" />
<path d="M37.8798 20.5853
L37.7589 20.5248
" />
<path d="M37.7589 20.5248
L37.5170 20.5248
" />
<path d="M37.5170 20.5248
L37.3960 20.5853
" />
<path d="M37.3960 20.5853
L37.3355 20.6458
" />
<path d="M37.3355 20.6458
L37.2751 20.7667
" />
<path d="M37.2751 20.7667
L37.2751 21.0691
" />
<path d="M37.2751 21.0691
L37.3355 21.1901
" />
<path d="M37.3355 21.1901
L37.3960 21.2505
" />
<path d="M37.3960 21.2505
L37.5170 21.3110
" />
<path d="M37.5170 21.3110
L37.7589 21.3110
" />
<path d="M37.7589 21.3110
L37.8798 21.2505
" />
<path d="M37.8798 21.2505
L37.9403 21.1901
" />
<path d="M37.9403 21.1901
L38.0008 21.0691
" />
</g></g>
<g style="fill:none; 
stroke:#840000; stroke-width:0.1524; stroke-opacity:1; 
stroke-linecap:round; stroke-linejoin:round;">
<path d="M34.4932 24.7523
L39.5732 24.7523
" />
</g>
<g style="fill:none; 
stroke:#006464; stroke-width:0.1524; stroke-opacity:1; 
stroke-linecap:round; stroke-linejoin:round;">
<text x="33.4772" y="25.3873"
textLength="6.1299" font-size="1.6933" lengthAdjust="spacingAndGlyphs"
text-anchor="end" opacity="0" stroke-opacity="0">F6/A1</text>
<g class="stroked-text"><desc>F6/A1</desc>
<path d="M28.1760 24.6666
L27.7526 24.6666
" />
<path d="M27.7526 25.3318
L27.7526 24.0618
" />
<path d="M27.7526 24.0618
L28.3574 24.0618
" />
<path d="M29.3855 24.0618
L29.1436 24.0618
" />
<path d="M29.1436 24.0618
L29.0227 24.1223
" />
<path d="M29.0227 24.1223
L28.9622 24.1828
" />
<path d="M28.9622 24.1828
L28.8412 24.3642
" />
<path d="M28.8412 24.3642
L28.7808 24.6061
" />
<path d="M28.7808 24.6061
L28.7808 25.0899
" />
<path d="M28.7808 25.0899
L28.8412 25.2109
" />
<path d="M28.8412 25.2109
L28.9017 25.2714
" />
<path d="M28.9017 25.2714
L29.0227 25.3318
" />
<path d="M29.0227 25.3318
L29.2646 25.3318
" />
<path d="M29.2646 25.3318
L29.3855 25.2714
" />
<path d="M29.3855 25.2714
L29.4460 25.2109
" />
<path d="M29.4460 25.2109
L29.5065 25.0899
" />
<path d="M29.5065 25.0899
L29.5065 24.7875
" />
<path d="M29.5065 24.7875
L29.4460 24.6666
" />
<path d="M29.4460 24.6666
L29.3855 24.6061
" />
<path d="M29.3855 24.6061
L29.2646 24.5456
" />
<path d="M29.2646 24.5456
L29.0227 24.5456
" />
<path d="M29.0227 24.5456
L28.9017 24.6061
" />
<path d="M28.9017 24.6061
L28.8412 24.6666
" />
<path d="M28.8412 24.6666
L28.7808 24.7875
" />
<path d="M30.9579 24.0014
L29.8693 25.6342
" />
<path d="M31.3208 24.9690
L31.9255 24.9690
" />
<path d="M31.1998 25.3318
L31.6231 24.0618
" />
<path d="M31.6231 24.0618
L32.0465 25.3318
" />
<path d="M33.1351 25.3318
L32.4094 25.3318
" />
<path d="M32.7722 25.3318
L32.7722 24.0618
" />
<path d="M32.7722 24.0618
L32.6513 24.2433
" />
<path d="M32.6513 24.2433
L32.5303 24.3642
" />
<path d="M32.5303 24.3642
L32.4094 24.4247
" />
</g></g>
<g style="fill:none; 
stroke:#A90000; stroke-width:0.1524; stroke-opacity:1; 
stroke-linecap:round; stroke-linejoin:round;">
<text x="37.0332" y="24.4983"
textLength="2.6222" font-size="1.6933" lengthAdjust="spacingAndGlyphs"
text-anchor="middle" opacity="0" stroke-opacity="0">18</text>
<g class="stroked-text"><desc>18</desc>
<path d="M36.7913 24.3348
L36.0656 24.3348
" />
<path d="M36.4284 24.3348
L36.4284 23.0648
" />
<path d="M36.4284 23.0648
L36.3075 23.2463
" />
<path d="M36.3075 23.2463
L36.1865 23.3672
" />
<path d="M36.1865 23.3672
L36.0656 23.4277
" />
<path d="M37.5170 23.6091
L37.3960 23.5486
" />
<path d="M37.3960 23.5486
L37.3355 23.4882
" />
<path d="M37.3355 23.4882
L37.2751 23.3672
" />
<path d="M37.2751 23.3672
L37.2751 23.3067
" />
<path d="M37.2751 23.3067
L37.3355 23.1858
" />
<path d="M37.3355 23.1858
L37.3960 23.1253
" />
<path d="M37.3960 23.1253
L37.5170 23.0648
" />
<path d="M37.5170 23.0648
L37.7589 23.0648
" />
<path d="M37.7589 23.0648
L37.8798 23.1253
" />
<path d="M37.8798 23.1253
L37.9403 23.1858
" />
<path d="M37.9403 23.1858
L38.0008 23.3067
" />
<path d="M38.0008 23.3067
L38.0008 23.3672
" />
<path d="M38.0008 23.3672
L37.9403 23.4882
" />
<path d="M37.9403 23.4882
L37.8798 23.5486
" />
<path d="M37.8798 23.5486
L37.7589 23.6091
" />
<path d="M37.7589 23.6091
L37.5170 23.6091
" />
<path d="M37.5170 23.6091
L37.3960 23.6696
" />
<path d="M37.3960 23.6696
L37.3355 23.7301
" />
<path d="M37.3355 23.7301
L37.2751 23.8510
" />
<path d="M37.2751 23.8510
L37.2751 24.0929
" />
<path d="M37.2751 24.0929
L37.3355 24.2139
" />
<path d="M37.3355 24.2139
L37.3960 24.2744
" />
<path d="M37.3960 24.2744
L37.5170 24.3348
" />
<path d="M37.5170 24.3348
L37.7589 24.3348
" />
<path d="M37.7589 24.3348
L37.8798 24.2744
" />
<path d="M37.8798 24.2744
L37.9403 24.2139
" />
<path d="M37.9403 24.2139
L38.0008 24.0929
" />
<path d="M38.0008 24.0929
L38.0008 23.8510
" />
<path d="M38.0008 23.8510
L37.9403 23.7301
" />
<path d="M37.9403 23.7301
L37.8798 23.6696
" />
<path d="M37.8798 23.6696
L37.7589 23.6091
" />
</g></g>
<g style="fill:none; 
stroke:#840000; stroke-width:0.1524; stroke-opacity:1; 
stroke-linecap:round; stroke-linejoin:round;">
<path d="M34.4932 27.2923
L39.5732 27.2923
" />
</g>
<g style="fill:none; 
stroke:#006464; stroke-width:0.1524; stroke-opacity:1; 
stroke-linecap:round; stroke-linejoin:round;">
<text x="33.4772" y="27.9273"
textLength="6.1299" font-size="1.6933" lengthAdjust="spacingAndGlyphs"
text-anchor="end" opacity="0" stroke-opacity="0">F7/A0</text>
<g class="stroked-text"><desc>F7/A0</desc>
<path d="M28.1760 27.2066
L27.7526 27.2066
" />
<path d="M27.7526 27.8718
L27.7526 26.6018
" />
<path d="M27.7526 26.6018
L28.3574 26.6018
" />
<path d="M28.7203 26.6018
L29.5669 26.6018
" />
<path d="M29.5669 26.6018
L29.0227 27.8718
" />
<path d="M30.9579 26.5414
L29.8693 28.1742
" />
<path d="M31.3208 27.5090
L31.9255 27.5090
" />
<path d="M31.1998 27.8718
L31.6231 26.6018
" />
<path d="M31.6231 26.6018
L32.0465 27.8718
" />
<path d="M32.7117 26.6018
L32.8327 26.6018
" />
<path d="M32.8327 26.6018
L32.9536 26.6623
" />
<path d="M32.9536 26.6623
L33.0141 26.7228
" />
<path d="M33.0141 26.7228
L33.0746 26.8437
" />
<path d="M33.0746 26.8437
L33.1351 27.0856
" />
<path d="M33.1351 27.0856
L33.1351 27.3880
" />
<path d="M33.1351 27.3880
L33.0746 27.6299
" />
<path d="M33.0746 27.6299
L33.0141 27.7509
" />
<path d="M33.0141 27.7509
L32.9536 27.8114
" />
<path d="M32.9536 27.8114
L32.8327 27.8718
" />
<path d="M32.8327 27.8718
L32.7117 27.8718
" />
<path d="M32.7117 27.8718
L32.5908 27.8114
" />
<path d="M32.5908 27.8114
L32.5303 27.7509
" />
<path d="M32.5303 27.7509
L32.4698 27.6299
" />
<path d="M32.4698 27.6299
L32.4094 27.3880
" />
<path d="M32.4094 27.3880
L32.4094 27.0856
" />
<path d="M32.4094 27.0856
L32.4698 26.8437
" />
<path d="M32.4698 26.8437
L32.5303 26.7228
" />
<path d="M32.5303 26.7228
L32.5908 26.6623
" />
<path d="M32.5908 26.6623
L32.7117 26.6018
" />
</g></g>
<g style="fill:none; 
stroke:#A90000; stroke-width:0.1524; stroke-opacity:1; 
stroke-linecap:round; stroke-linejoin:round;">
<text x="37.0332" y="27.0383"
textLength="2.6222" font-size="1.6933" lengthAdjust="spacingAndGlyphs"
text-anchor="middle" opacity="0" stroke-opacity="0">17</text>
<g class="stroked-text"><desc>17</desc>
<path d="M36.7913 26.8748
L36.0656 26.8748
" />
<path d="M36.4284 26.8748
L36.4284 25.6048
" />
<path d="M36.4284 25.6048
L36.3075 25.7863
" />
<path d="M36.3075 25.7863
L36.1865 25.9072
" />
<path d="M36.1865 25.9072
L36.0656 25.9677
" />
<path d="M37.2146 25.6048
L38.0612 25.6048
" />
<path d="M38.0612 25.6048
L37.5170 26.8748
" />
</g></g>
<g style="fill:none; 
stroke:#840000; stroke-width:0.1524; stroke-opacity:1; 
stroke-linecap:round; stroke-linejoin:round;">
<path d="M34.4932 29.8323
L39.5732 29.8323
" />
</g>
<g style="fill:none; 
stroke:#006464; stroke-width:0.1524; stroke-opacity:1; 
stroke-linecap:round; stroke-linejoin:round;">
<text x="33.4772" y="30.4673"
textLength="6.4322" font-size="1.6933" lengthAdjust="spacingAndGlyphs"
text-anchor="end" opacity="0" stroke-opacity="0">B1/15</text>
<g class="stroked-text"><desc>B1/15</desc>
<path d="M27.8737 29.7466
L28.0551 29.8071
" />
<path d="M28.0551 29.8071
L28.1156 29.8675
" />
<path d="M28.1156 29.8675
L28.1760 29.9885
" />
<path d="M28.1760 29.9885
L28.1760 30.1699
" />
<path d="M28.1760 30.1699
L28.1156 30.2909
" />
<path d="M28.1156 30.2909
L28.0551 30.3514
" />
<path d="M28.0551 30.3514
L27.9341 30.4118
" />
<path d="M27.9341 30.4118
L27.4503 30.4118
" />
<path d="M27.4503 30.4118
L27.4503 29.1418
" />
<path d="M27.4503 29.1418
L27.8737 29.1418
" />
<path d="M27.8737 29.1418
L27.9946 29.2023
" />
<path d="M27.9946 29.2023
L28.0551 29.2628
" />
<path d="M28.0551 29.2628
L28.1156 29.3837
" />
<path d="M28.1156 29.3837
L28.1156 29.5047
" />
<path d="M28.1156 29.5047
L28.0551 29.6256
" />
<path d="M28.0551 29.6256
L27.9946 29.6861
" />
<path d="M27.9946 29.6861
L27.8737 29.7466
" />
<path d="M27.8737 29.7466
L27.4503 29.7466
" />
<path d="M29.3856 30.4118
L28.6599 30.4118
" />
<path d="M29.0227 30.4118
L29.0227 29.1418
" />
<path d="M29.0227 29.1418
L28.9018 29.3233
" />
<path d="M28.9018 29.3233
L28.7808 29.4442
" />
<path d="M28.7808 29.4442
L28.6599 29.5047
" />
<path d="M30.8370 29.0814
L29.7484 30.7142
" />
<path d="M31.9256 30.4118
L31.1999 30.4118
" />
<path d="M31.5627 30.4118
L31.5627 29.1418
" />
<path d="M31.5627 29.1418
L31.4418 29.3233
" />
<path d="M31.4418 29.3233
L31.3208 29.4442
" />
<path d="M31.3208 29.4442
L31.1999 29.5047
" />
<path d="M33.0746 29.1418
L32.4698 29.1418
" />
<path d="M32.4698 29.1418
L32.4094 29.7466
" />
<path d="M32.4094 29.7466
L32.4698 29.6861
" />
<path d="M32.4698 29.6861
L32.5908 29.6256
" />
<path d="M32.5908 29.6256
L32.8932 29.6256
" />
<path d="M32.8932 29.6256
L33.0141 29.6861
" />
<path d="M33.0141 29.6861
L33.0746 29.7466
" />
<path d="M33.0746 29.7466
L33.1351 29.8675
" />
<path d="M33.1351 29.8675
L33.1351 30.1699
" />
<path d="M33.1351 30.1699
L33.0746 30.2909
" />
<path d="M33.0746 30.2909
L33.0141 30.3514
" />
<path d="M33.0141 30.3514
L32.8932 30.4118
" />
<path d="M32.8932 30.4118
L32.5908 30.4118
" />
<path d="M32.5908 30.4118
L32.4698 30.3514
" />
<path d="M32.4698 30.3514
L32.4094 30.2909
" />
</g></g>
<g style="fill:none; 
stroke:#A90000; stroke-width:0.1524; stroke-opacity:1; 
stroke-linecap:round; stroke-linejoin:round;">
<text x="37.0332" y="29.5783"
textLength="2.6222" font-size="1.6933" lengthAdjust="spacingAndGlyphs"
text-anchor="middle" opacity="0" stroke-opacity="0">16</text>
<g class="stroked-text"><desc>16</desc>
<path d="M36.7913 29.4148
L36.0656 29.4148
" />
<path d="M36.4284 29.4148
L36.4284 28.1448
" />
<path d="M36.4284 28.1448
L36.3075 28.3263
" />
<path d="M36.3075 28.3263
L36.1865 28.4472
" />
<path d="M36.1865 28.4472
L36.0656 28.5077
" />
<path d="M37.8798 28.1448
L37.6379 28.1448
" />
<path d="M37.6379 28.1448
L37.5170 28.2053
" />
<path d="M37.5170 28.2053
L37.4565 28.2658
" />
<path d="M37.4565 28.2658
L37.3355 28.4472
" />
<path d="M37.3355 28.4472
L37.2751 28.6891
" />
<path d="M37.2751 28.6891
L37.2751 29.1729
" />
<path d="M37.2751 29.1729
L37.3355 29.2939
" />
<path d="M37.3355 29.2939
L37.3960 29.3544
" />
<path d="M37.3960 29.3544
L37.5170 29.4148
" />
<path d="M37.5170 29.4148
L37.7589 29.4148
" />
<path d="M37.7589 29.4148
L37.8798 29.3544
" />
<path d="M37.8798 29.3544
L37.9403 29.2939
" />
<path d="M37.9403 29.2939
L38.0008 29.1729
" />
<path d="M38.0008 29.1729
L38.0008 28.8705
" />
<path d="M38.0008 28.8705
L37.9403 28.7496
" />
<path d="M37.9403 28.7496
L37.8798 28.6891
" />
<path d="M37.8798 28.6891
L37.7589 28.6286
" />
<path d="M37.7589 28.6286
L37.5170 28.6286
" />
<path d="M37.5170 28.6286
L37.3960 28.6891
" />
<path d="M37.3960 28.6891
L37.3355 28.7496
" />
<path d="M37.3355 28.7496
L37.2751 28.8705
" />
</g></g>
<g style="fill:none; 
stroke:#840000; stroke-width:0.1524; stroke-opacity:1; 
stroke-linecap:round; stroke-linejoin:round;">
<path d="M34.4932 32.3723
L39.5732 32.3723
" />
</g>
<g style="fill:none; 
stroke:#006464; stroke-width:0.1524; stroke-opacity:1; 
stroke-linecap:round; stroke-linejoin:round;">
<text x="33.4772" y="33.0073"
textLength="6.4322" font-size="1.6933" lengthAdjust="spacingAndGlyphs"
text-anchor="end" opacity="0" stroke-opacity="0">B3/14</text>
<g class="stroked-text"><desc>B3/14</desc>
<path d="M27.8737 32.2866
L28.0551 32.3471
" />
<path d="M28.0551 32.3471
L28.1156 32.4075
" />
<path d="M28.1156 32.4075
L28.1760 32.5285
" />
<path d="M28.1760 32.5285
L28.1760 32.7099
" />
<path d="M28.1760 32.7099
L28.1156 32.8309
" />
<path d="M28.1156 32.8309
L28.0551 32.8914
" />
<path d="M28.0551 32.8914
L27.9341 32.9518
" />
<path d="M27.9341 32.9518
L27.4503 32.9518
" />
<path d="M27.4503 32.9518
L27.4503 31.6818
" />
<path d="M27.4503 31.6818
L27.8737 31.6818
" />
<path d="M27.8737 31.6818
L27.9946 31.7423
" />
<path d="M27.9946 31.7423
L28.0551 31.8028
" />
<path d="M28.0551 31.8028
L28.1156 31.9237
" />
<path d="M28.1156 31.9237
L28.1156 32.0447
" />
<path d="M28.1156 32.0447
L28.0551 32.1656
" />
<path d="M28.0551 32.1656
L27.9946 32.2261
" />
<path d="M27.9946 32.2261
L27.8737 32.2866
" />
<path d="M27.8737 32.2866
L27.4503 32.2866
" />
<path d="M28.5994 31.6818
L29.3856 31.6818
" />
<path d="M29.3856 31.6818
L28.9622 32.1656
" />
<path d="M28.9622 32.1656
L29.1437 32.1656
" />
<path d="M29.1437 32.1656
L29.2646 32.2261
" />
<path d="M29.2646 32.2261
L29.3251 32.2866
" />
<path d="M29.3251 32.2866
L29.3856 32.4075
" />
<path d="M29.3856 32.4075
L29.3856 32.7099
" />
<path d="M29.3856 32.7099
L29.3251 32.8309
" />
<path d="M29.3251 32.8309
L29.2646 32.8914
" />
<path d="M29.2646 32.8914
L29.1437 32.9518
" />
<path d="M29.1437 32.9518
L28.7808 32.9518
" />
<path d="M28.7808 32.9518
L28.6599 32.8914
" />
<path d="M28.6599 32.8914
L28.5994 32.8309
" />
<path d="M30.8370 31.6214
L29.7484 33.2542
" />
<path d="M31.9256 32.9518
L31.1999 32.9518
" />
<path d="M31.5627 32.9518
L31.5627 31.6818
" />
<path d="M31.5627 31.6818
L31.4418 31.8633
" />
<path d="M31.4418 31.8633
L31.3208 31.9842
" />
<path d="M31.3208 31.9842
L31.1999 32.0447
" />
<path d="M33.0141 32.1052
L33.0141 32.9518
" />
<path d="M32.7117 31.6214
L32.4094 32.5285
" />
<path d="M32.4094 32.5285
L33.1955 32.5285
" />
</g></g>
<g style="fill:none; 
stroke:#A90000; stroke-width:0.1524; stroke-opacity:1; 
stroke-linecap:round; stroke-linejoin:round;">
<text x="37.0332" y="32.1183"
textLength="2.6222" font-size="1.6933" lengthAdjust="spacingAndGlyphs"
text-anchor="middle" opacity="0" stroke-opacity="0">15</text>
<g class="stroked-text"><desc>15</desc>
<path d="M36.7913 31.9548
L36.0656 31.9548
" />
<path d="M36.4284 31.9548
L36.4284 30.6848
" />
<path d="M36.4284 30.6848
L36.3075 30.8663
" />
<path d="M36.3075 30.8663
L36.1865 30.9872
" />
<path d="M36.1865 30.9872
L36.0656 31.0477
" />
<path d="M37.9403 30.6848
L37.3355 30.6848
" />
<path d="M37.3355 30.6848
L37.2751 31.2896
" />
<path d="M37.2751 31.2896
L37.3355 31.2291
" />
<path d="M37.3355 31.2291
L37.4565 31.1686
" />
<path d="M37.4565 31.1686
L37.7589 31.1686
" />
<path d="M37.7589 31.1686
L37.8798 31.2291
" />
<path d="M37.8798 31.2291
L37.9403 31.2896
" />
<path d="M37.9403 31.2896
L38.0008 31.4105
" />
<path d="M38.0008 31.4105
L38.0008 31.7129
" />
<path d="M38.0008 31.7129
L37.9403 31.8339
" />
<path d="M37.9403 31.8339
L37.8798 31.8944
" />
<path d="M37.8798 31.8944
L37.7589 31.9548
" />
<path d="M37.7589 31.9548
L37.4565 31.9548
" />
<path d="M37.4565 31.9548
L37.3355 31.8944
" />
<path d="M37.3355 31.8944
L37.2751 31.8339
" />
</g></g>
<g style="fill:none; 
stroke:#840000; stroke-width:0.1524; stroke-opacity:1; 
stroke-linecap:round; stroke-linejoin:round;">
<path d="M34.4932 34.9123
L39.5732 34.9123
" />
</g>
<g style="fill:none; 
stroke:#006464; stroke-width:0.1524; stroke-opacity:1; 
stroke-linecap:round; stroke-linejoin:round;">
<text x="33.4772" y="35.5473"
textLength="6.4322" font-size="1.6933" lengthAdjust="spacingAndGlyphs"
text-anchor="end" opacity="0" stroke-opacity="0">B2/16</text>
<g class="stroked-text"><desc>B2/16</desc>
<path d="M27.8737 34.8266
L28.0551 34.8871
" />
<path d="M28.0551 34.8871
L28.1156 34.9475
" />
<path d="M28.1156 34.9475
L28.1760 35.0685
" />
<path d="M28.1760 35.0685
L28.1760 35.2499
" />
<path d="M28.1760 35.2499
L28.1156 35.3709
" />
<path d="M28.1156 35.3709
L28.0551 35.4314
" />
<path d="M28.0551 35.4314
L27.9341 35.4918
" />
<path d="M27.9341 35.4918
L27.4503 35.4918
" />
<path d="M27.4503 35.4918
L27.4503 34.2218
" />
<path d="M27.4503 34.2218
L27.8737 34.2218
" />
<path d="M27.8737 34.2218
L27.9946 34.2823
" />
<path d="M27.9946 34.2823
L28.0551 34.3428
" />
<path d="M28.0551 34.3428
L28.1156 34.4637
" />
<path d="M28.1156 34.4637
L28.1156 34.5847
" />
<path d="M28.1156 34.5847
L28.0551 34.7056
" />
<path d="M28.0551 34.7056
L27.9946 34.7661
" />
<path d="M27.9946 34.7661
L27.8737 34.8266
" />
<path d="M27.8737 34.8266
L27.4503 34.8266
" />
<path d="M28.6599 34.3428
L28.7203 34.2823
" />
<path d="M28.7203 34.2823
L28.8413 34.2218
" />
<path d="M28.8413 34.2218
L29.1437 34.2218
" />
<path d="M29.1437 34.2218
L29.2646 34.2823
" />
<path d="M29.2646 34.2823
L29.3251 34.3428
" />
<path d="M29.3251 34.3428
L29.3856 34.4637
" />
<path d="M29.3856 34.4637
L29.3856 34.5847
" />
<path d="M29.3856 34.5847
L29.3251 34.7661
" />
<path d="M29.3251 34.7661
L28.5994 35.4918
" />
<path d="M28.5994 35.4918
L29.3856 35.4918
" />
<path d="M30.8370 34.1614
L29.7484 35.7942
" />
<path d="M31.9256 35.4918
L31.1999 35.4918
" />
<path d="M31.5627 35.4918
L31.5627 34.2218
" />
<path d="M31.5627 34.2218
L31.4418 34.4033
" />
<path d="M31.4418 34.4033
L31.3208 34.5242
" />
<path d="M31.3208 34.5242
L31.1999 34.5847
" />
<path d="M33.0141 34.2218
L32.7722 34.2218
" />
<path d="M32.7722 34.2218
L32.6513 34.2823
" />
<path d="M32.6513 34.2823
L32.5908 34.3428
" />
<path d="M32.5908 34.3428
L32.4698 34.5242
" />
<path d="M32.4698 34.5242
L32.4094 34.7661
" />
<path d="M32.4094 34.7661
L32.4094 35.2499
" />
<path d="M32.4094 35.2499
L32.4698 35.3709
" />
<path d="M32.4698 35.3709
L32.5303 35.4314
" />
<path d="M32.5303 35.4314
L32.6513 35.4918
" />
<path d="M32.6513 35.4918
L32.8932 35.4918
" />
<path d="M32.8932 35.4918
L33.0141 35.4314
" />
<path d="M33.0141 35.4314
L33.0746 35.3709
" />
<path d="M33.0746 35.3709
L33.1351 35.2499
" />
<path d="M33.1351 35.2499
L33.1351 34.9475
" />
<path d="M33.1351 34.9475
L33.0746 34.8266
" />
<path d="M33.0746 34.8266
L33.0141 34.7661
" />
<path d="M33.0141 34.7661
L32.8932 34.7056
" />
<path d="M32.8932 34.7056
L32.6513 34.7056
" />
<path d="M32.6513 34.7056
L32.5303 34.7661
" />
<path d="M32.5303 34.7661
L32.4698 34.8266
" />
<path d="M32.4698 34.8266
L32.4094 34.9475
" />
</g></g>
<g style="fill:none; 
stroke:#A90000; stroke-width:0.1524; stroke-opacity:1; 
stroke-linecap:round; stroke-linejoin:round;">
<text x="37.0332" y="34.6583"
textLength="2.6222" font-size="1.6933" lengthAdjust="spacingAndGlyphs"
text-anchor="middle" opacity="0" stroke-opacity="0">14</text>
<g class="stroked-text"><desc>14</desc>
<path d="M36.7913 34.4948
L36.0656 34.4948
" />
<path d="M36.4284 34.4948
L36.4284 33.2248
" />
<path d="M36.4284 33.2248
L36.3075 33.4063
" />
<path d="M36.3075 33.4063
L36.1865 33.5272
" />
<path d="M36.1865 33.5272
L36.0656 33.5877
" />
<path d="M37.8798 33.6482
L37.8798 34.4948
" />
<path d="M37.5774 33.1644
L37.2751 34.0715
" />
<path d="M37.2751 34.0715
L38.0612 34.0715
" />
</g></g>
<g style="fill:none; 
stroke:#840000; stroke-width:0.1524; stroke-opacity:1; 
stroke-linecap:round; stroke-linejoin:round;">
<path d="M34.4932 37.4523
L39.5732 37.4523
" />
</g>
<g style="fill:none; 
stroke:#006464; stroke-width:0.1524; stroke-opacity:1; 
stroke-linecap:round; stroke-linejoin:round;">
<text x="33.4772" y="38.0873"
textLength="6.4322" font-size="1.6933" lengthAdjust="spacingAndGlyphs"
text-anchor="end" opacity="0" stroke-opacity="0">B6/10</text>
<g class="stroked-text"><desc>B6/10</desc>
<path d="M27.8737 37.3666
L28.0551 37.4271
" />
<path d="M28.0551 37.4271
L28.1156 37.4875
" />
<path d="M28.1156 37.4875
L28.1760 37.6085
" />
<path d="M28.1760 37.6085
L28.1760 37.7899
" />
<path d="M28.1760 37.7899
L28.1156 37.9109
" />
<path d="M28.1156 37.9109
L28.0551 37.9714
" />
<path d="M28.0551 37.9714
L27.9341 38.0318
" />
<path d="M27.9341 38.0318
L27.4503 38.0318
" />
<path d="M27.4503 38.0318
L27.4503 36.7618
" />
<path d="M27.4503 36.7618
L27.8737 36.7618
" />
<path d="M27.8737 36.7618
L27.9946 36.8223
" />
<path d="M27.9946 36.8223
L28.0551 36.8828
" />
<path d="M28.0551 36.8828
L28.1156 37.0037
" />
<path d="M28.1156 37.0037
L28.1156 37.1247
" />
<path d="M28.1156 37.1247
L28.0551 37.2456
" />
<path d="M28.0551 37.2456
L27.9946 37.3061
" />
<path d="M27.9946 37.3061
L27.8737 37.3666
" />
<path d="M27.8737 37.3666
L27.4503 37.3666
" />
<path d="M29.2646 36.7618
L29.0227 36.7618
" />
<path d="M29.0227 36.7618
L28.9018 36.8223
" />
<path d="M28.9018 36.8223
L28.8413 36.8828
" />
<path d="M28.8413 36.8828
L28.7203 37.0642
" />
<path d="M28.7203 37.0642
L28.6599 37.3061
" />
<path d="M28.6599 37.3061
L28.6599 37.7899
" />
<path d="M28.6599 37.7899
L28.7203 37.9109
" />
<path d="M28.7203 37.9109
L28.7808 37.9714
" />
<path d="M28.7808 37.9714
L28.9018 38.0318
" />
<path d="M28.9018 38.0318
L29.1437 38.0318
" />
<path d="M29.1437 38.0318
L29.2646 37.9714
" />
<path d="M29.2646 37.9714
L29.3251 37.9109
" />
<path d="M29.3251 37.9109
L29.3856 37.7899
" />
<path d="M29.3856 37.7899
L29.3856 37.4875
" />
<path d="M29.3856 37.4875
L29.3251 37.3666
" />
<path d="M29.3251 37.3666
L29.2646 37.3061
" />
<path d="M29.2646 37.3061
L29.1437 37.2456
" />
<path d="M29.1437 37.2456
L28.9018 37.2456
" />
<path d="M28.9018 37.2456
L28.7808 37.3061
" />
<path d="M28.7808 37.3061
L28.7203 37.3666
" />
<path d="M28.7203 37.3666
L28.6599 37.4875
" />
<path d="M30.8370 36.7014
L29.7484 38.3342
" />
<path d="M31.9256 38.0318
L31.1999 38.0318
" />
<path d="M31.5627 38.0318
L31.5627 36.7618
" />
<path d="M31.5627 36.7618
L31.4418 36.9433
" />
<path d="M31.4418 36.9433
L31.3208 37.0642
" />
<path d="M31.3208 37.0642
L31.1999 37.1247
" />
<path d="M32.7117 36.7618
L32.8327 36.7618
" />
<path d="M32.8327 36.7618
L32.9536 36.8223
" />
<path d="M32.9536 36.8223
L33.0141 36.8828
" />
<path d="M33.0141 36.8828
L33.0746 37.0037
" />
<path d="M33.0746 37.0037
L33.1351 37.2456
" />
<path d="M33.1351 37.2456
L33.1351 37.5480
" />
<path d="M33.1351 37.5480
L33.0746 37.7899
" />
<path d="M33.0746 37.7899
L33.0141 37.9109
" />
<path d="M33.0141 37.9109
L32.9536 37.9714
" />
<path d="M32.9536 37.9714
L32.8327 38.0318
" />
<path d="M32.8327 38.0318
L32.7117 38.0318
" />
<path d="M32.7117 38.0318
L32.5908 37.9714
" />
<path d="M32.5908 37.9714
L32.5303 37.9109
" />
<path d="M32.5303 37.9109
L32.4698 37.7899
" />
<path d="M32.4698 37.7899
L32.4094 37.5480
" />
<path d="M32.4094 37.5480
L32.4094 37.2456
" />
<path d="M32.4094 37.2456
L32.4698 37.0037
" />
<path d="M32.4698 37.0037
L32.5303 36.8828
" />
<path d="M32.5303 36.8828
L32.5908 36.8223
" />
<path d="M32.5908 36.8223
L32.7117 36.7618
" />
</g></g>
<g style="fill:none; 
stroke:#A90000; stroke-width:0.1524; stroke-opacity:1; 
stroke-linecap:round; stroke-linejoin:round;">
<text x="37.0332" y="37.1983"
textLength="2.6222" font-size="1.6933" lengthAdjust="spacingAndGlyphs"
text-anchor="middle" opacity="0" stroke-opacity="0">13</text>
<g class="stroked-text"><desc>13</desc>
<path d="M36.7913 37.0348
L36.0656 37.0348
" />
<path d="M36.4284 37.0348
L36.4284 35.7648
" />
<path d="M36.4284 35.7648
L36.3075 35.9463
" />
<path d="M36.3075 35.9463
L36.1865 36.0672
" />
<path d="M36.1865 36.0672
L36.0656 36.1277
" />
<path d="M37.2146 35.7648
L38.0008 35.7648
" />
<path d="M38.0008 35.7648
L37.5774 36.2486
" />
<path d="M37.5774 36.2486
L37.7589 36.2486
" />
<path d="M37.7589 36.2486
L37.8798 36.3091
" />
<path d="M37.8798 36.3091
L37.9403 36.3696
" />
<path d="M37.9403 36.3696
L38.0008 36.4905
" />
<path d="M38.0008 36.4905
L38.0008 36.7929
" />
<path d="M38.0008 36.7929
L37.9403 36.9139
" />
<path d="M37.9403 36.9139
L37.8798 36.9744
" />
<path d="M37.8798 36.9744
L37.7589 37.0348
" />
<path d="M37.7589 37.0348
L37.3960 37.0348
" />
<path d="M37.3960 37.0348
L37.2751 36.9744
" />
<path d="M37.2751 36.9744
L37.2146 36.9139
" />
</g></g>
<g style="fill:none; 
stroke:#006464; stroke-width:0.1524; stroke-opacity:1; 
stroke-linecap:round; stroke-linejoin:round;">
<text x="0.0000" y="-17.9070"
textLength="2.6223" font-size="1.6933" lengthAdjust="spacingAndGlyphs"
text-anchor="middle" opacity="0" stroke-opacity="0">U?</text>
<g class="stroked-text"><desc>U?</desc>
<path d="M-0.9071 -19.2324
L-0.9071 -18.2043
" />
<path d="M-0.9071 -18.2043
L-0.8466 -18.0833
" />
<path d="M-0.8466 -18.0833
L-0.7861 -18.0229
" />
<path d="M-0.7861 -18.0229
L-0.6652 -17.9624
" />
<path d="M-0.6652 -17.9624
L-0.4233 -17.9624
" />
<path d="M-0.4233 -17.9624
L-0.3023 -18.0229
" />
<path d="M-0.3023 -18.0229
L-0.2418 -18.0833
" />
<path d="M-0.2418 -18.0833
L-0.1814 -18.2043
" />
<path d="M-0.1814 -18.2043
L-0.1814 -19.2324
" />
<path d="M0.6048 -18.0833
L0.6652 -18.0229
" />
<path d="M0.6652 -18.0229
L0.6048 -17.9624
" />
<path d="M0.6048 -17.9624
L0.5443 -18.0229
" />
<path d="M0.5443 -18.0229
L0.6048 -18.0833
" />
<path d="M0.6048 -18.0833
L0.6048 -17.9624
" />
<path d="M0.3629 -19.1719
L0.4838 -19.2324
" />
<path d="M0.4838 -19.2324
L0.7862 -19.2324
" />
<path d="M0.7862 -19.2324
L0.9071 -19.1719
" />
<path d="M0.9071 -19.1719
L0.9676 -19.0509
" />
<path d="M0.9676 -19.0509
L0.9676 -18.9300
" />
<path d="M0.9676 -18.9300
L0.9071 -18.8090
" />
<path d="M0.9071 -18.8090
L0.8467 -18.7486
" />
<path d="M0.8467 -18.7486
L0.7257 -18.6881
" />
<path d="M0.7257 -18.6881
L0.6652 -18.6276
" />
<path d="M0.6652 -18.6276
L0.6048 -18.5067
" />
<path d="M0.6048 -18.5067
L0.6048 -18.4462
" />
</g><text x="0.0000" y="19.1770"
textLength="21.5511" font-size="1.6933" lengthAdjust="spacingAndGlyphs"
text-anchor="middle" opacity="0" stroke-opacity="0">ProMicro_ATmega32U4</text>
<g class="stroked-text"><desc>ProMicro_ATmega32U4</desc>
<path d="M-10.3715 19.1215
L-10.3715 17.8515
" />
<path d="M-10.3715 17.8515
L-9.8877 17.8515
" />
<path d="M-9.8877 17.8515
L-9.7667 17.9120
" />
<path d="M-9.7667 17.9120
L-9.7062 17.9725
" />
<path d="M-9.7062 17.9725
L-9.6458 18.0934
" />
<path d="M-9.6458 18.0934
L-9.6458 18.2749
" />
<path d="M-9.6458 18.2749
L-9.7062 18.3958
" />
<path d="M-9.7062 18.3958
L-9.7667 18.4563
" />
<path d="M-9.7667 18.4563
L-9.8877 18.5168
" />
<path d="M-9.8877 18.5168
L-10.3715 18.5168
" />
<path d="M-9.1015 19.1215
L-9.1015 18.2749
" />
<path d="M-9.1015 18.5168
L-9.0410 18.3958
" />
<path d="M-9.0410 18.3958
L-8.9805 18.3353
" />
<path d="M-8.9805 18.3353
L-8.8596 18.2749
" />
<path d="M-8.8596 18.2749
L-8.7386 18.2749
" />
<path d="M-8.1338 19.1215
L-8.2548 19.0611
" />
<path d="M-8.2548 19.0611
L-8.3153 19.0006
" />
<path d="M-8.3153 19.0006
L-8.3757 18.8796
" />
<path d="M-8.3757 18.8796
L-8.3757 18.5168
" />
<path d="M-8.3757 18.5168
L-8.3153 18.3958
" />
<path d="M-8.3153 18.3958
L-8.2548 18.3353
" />
<path d="M-8.2548 18.3353
L-8.1338 18.2749
" />
<path d="M-8.1338 18.2749
L-7.9524 18.2749
" />
<path d="M-7.9524 18.2749
L-7.8315 18.3353
" />
<path d="M-7.8315 18.3353
L-7.7710 18.3958
" />
<path d="M-7.7710 18.3958
L-7.7105 18.5168
" />
<path d="M-7.7105 18.5168
L-7.7105 18.8796
" />
<path d="M-7.7105 18.8796
L-7.7710 19.0006
" />
<path d="M-7.7710 19.0006
L-7.8315 19.0611
" />
<path d="M-7.8315 19.0611
L-7.9524 19.1215
" />
<path d="M-7.9524 19.1215
L-8.1338 19.1215
" />
<path d="M-7.1663 19.1215
L-7.1663 17.8515
" />
<path d="M-7.1663 17.8515
L-6.7429 18.7587
" />
<path d="M-6.7429 18.7587
L-6.3196 17.8515
" />
<path d="M-6.3196 17.8515
L-6.3196 19.1215
" />
<path d="M-5.7149 19.1215
L-5.7149 18.2749
" />
<path d="M-5.7149 17.8515
L-5.7753 17.9120
" />
<path d="M-5.7753 17.9120
L-5.7149 17.9725
" />
<path d="M-5.7149 17.9725
L-5.6544 17.9120
" />
<path d="M-5.6544 17.9120
L-5.7149 17.8515
" />
<path d="M-5.7149 17.8515
L-5.7149 17.9725
" />
<path d="M-4.5658 19.0611
L-4.6867 19.1215
" />
<path d="M-4.6867 19.1215
L-4.9286 19.1215
" />
<path d="M-4.9286 19.1215
L-5.0496 19.0611
" />
<path d="M-5.0496 19.0611
L-5.1101 19.0006
" />
<path d="M-5.1101 19.0006
L-5.1705 18.8796
" />
<path d="M-5.1705 18.8796
L-5.1705 18.5168
" />
<path d="M-5.1705 18.5168
L-5.1101 18.3958
" />
<path d="M-5.1101 18.3958
L-5.0496 18.3353
" />
<path d="M-5.0496 18.3353
L-4.9286 18.2749
" />
<path d="M-4.9286 18.2749
L-4.6867 18.2749
" />
<path d="M-4.6867 18.2749
L-4.5658 18.3353
" />
<path d="M-4.0215 19.1215
L-4.0215 18.2749
" />
<path d="M-4.0215 18.5168
L-3.9610 18.3958
" />
<path d="M-3.9610 18.3958
L-3.9005 18.3353
" />
<path d="M-3.9005 18.3353
L-3.7796 18.2749
" />
<path d="M-3.7796 18.2749
L-3.6586 18.2749
" />
<path d="M-3.0538 19.1215
L-3.1748 19.0611
" />
<path d="M-3.1748 19.0611
L-3.2353 19.0006
" />
<path d="M-3.2353 19.0006
L-3.2957 18.8796
" />
<path d="M-3.2957 18.8796
L-3.2957 18.5168
" />
<path d="M-3.2957 18.5168
L-3.2353 18.3958
" />
<path d="M-3.2353 18.3958
L-3.1748 18.3353
" />
<path d="M-3.1748 18.3353
L-3.0538 18.2749
" />
<path d="M-3.0538 18.2749
L-2.8724 18.2749
" />
<path d="M-2.8724 18.2749
L-2.7515 18.3353
" />
<path d="M-2.7515 18.3353
L-2.6910 18.3958
" />
<path d="M-2.6910 18.3958
L-2.6305 18.5168
" />
<path d="M-2.6305 18.5168
L-2.6305 18.8796
" />
<path d="M-2.6305 18.8796
L-2.6910 19.0006
" />
<path d="M-2.6910 19.0006
L-2.7515 19.0611
" />
<path d="M-2.7515 19.0611
L-2.8724 19.1215
" />
<path d="M-2.8724 19.1215
L-3.0538 19.1215
" />
<path d="M-2.3887 19.2425
L-1.4210 19.2425
" />
<path d="M-1.1791 18.7587
L-0.5744 18.7587
" />
<path d="M-1.3001 19.1215
L-0.8768 17.8515
" />
<path d="M-0.8768 17.8515
L-0.4534 19.1215
" />
<path d="M-0.2115 17.8515
L0.5141 17.8515
" />
<path d="M0.1513 19.1215
L0.1513 17.8515
" />
<path d="M0.9374 19.1215
L0.9374 18.2749
" />
<path d="M0.9374 18.3958
L0.9979 18.3353
" />
<path d="M0.9979 18.3353
L1.1189 18.2749
" />
<path d="M1.1189 18.2749
L1.3003 18.2749
" />
<path d="M1.3003 18.2749
L1.4212 18.3353
" />
<path d="M1.4212 18.3353
L1.4817 18.4563
" />
<path d="M1.4817 18.4563
L1.4817 19.1215
" />
<path d="M1.4817 18.4563
L1.5422 18.3353
" />
<path d="M1.5422 18.3353
L1.6631 18.2749
" />
<path d="M1.6631 18.2749
L1.8446 18.2749
" />
<path d="M1.8446 18.2749
L1.9655 18.3353
" />
<path d="M1.9655 18.3353
L2.0260 18.4563
" />
<path d="M2.0260 18.4563
L2.0260 19.1215
" />
<path d="M3.1145 19.0611
L2.9936 19.1215
" />
<path d="M2.9936 19.1215
L2.7517 19.1215
" />
<path d="M2.7517 19.1215
L2.6307 19.0611
" />
<path d="M2.6307 19.0611
L2.5703 18.9401
" />
<path d="M2.5703 18.9401
L2.5703 18.4563
" />
<path d="M2.5703 18.4563
L2.6307 18.3353
" />
<path d="M2.6307 18.3353
L2.7517 18.2749
" />
<path d="M2.7517 18.2749
L2.9936 18.2749
" />
<path d="M2.9936 18.2749
L3.1145 18.3353
" />
<path d="M3.1145 18.3353
L3.1750 18.4563
" />
<path d="M3.1750 18.4563
L3.1750 18.5772
" />
<path d="M3.1750 18.5772
L2.5703 18.6982
" />
<path d="M4.2636 18.2749
L4.2636 19.3030
" />
<path d="M4.2636 19.3030
L4.2031 19.4239
" />
<path d="M4.2031 19.4239
L4.1427 19.4844
" />
<path d="M4.1427 19.4844
L4.0217 19.5449
" />
<path d="M4.0217 19.5449
L3.8403 19.5449
" />
<path d="M3.8403 19.5449
L3.7193 19.4844
" />
<path d="M4.2636 19.0611
L4.1427 19.1215
" />
<path d="M4.1427 19.1215
L3.9008 19.1215
" />
<path d="M3.9008 19.1215
L3.7798 19.0611
" />
<path d="M3.7798 19.0611
L3.7193 19.0006
" />
<path d="M3.7193 19.0006
L3.6589 18.8796
" />
<path d="M3.6589 18.8796
L3.6589 18.5168
" />
<path d="M3.6589 18.5168
L3.7193 18.3958
" />
<path d="M3.7193 18.3958
L3.7798 18.3353
" />
<path d="M3.7798 18.3353
L3.9008 18.2749
" />
<path d="M3.9008 18.2749
L4.1427 18.2749
" />
<path d="M4.1427 18.2749
L4.2636 18.3353
" />
<path d="M5.4126 19.1215
L5.4126 18.4563
" />
<path d="M5.4126 18.4563
L5.3521 18.3353
" />
<path d="M5.3521 18.3353
L5.2312 18.2749
" />
<path d="M5.2312 18.2749
L4.9893 18.2749
" />
<path d="M4.9893 18.2749
L4.8683 18.3353
" />
<path d="M5.4126 19.0611
L5.2917 19.1215
" />
<path d="M5.2917 19.1215
L4.9893 19.1215
" />
<path d="M4.9893 19.1215
L4.8683 19.0611
" />
<path d="M4.8683 19.0611
L4.8079 18.9401
" />
<path d="M4.8079 18.9401
L4.8079 18.8191
" />
<path d="M4.8079 18.8191
L4.8683 18.6982
" />
<path d="M4.8683 18.6982
L4.9893 18.6377
" />
<path d="M4.9893 18.6377
L5.2917 18.6377
" />
<path d="M5.2917 18.6377
L5.4126 18.5772
" />
<path d="M5.8964 17.8515
L6.6826 17.8515
" />
<path d="M6.6826 17.8515
L6.2592 18.3353
" />
<path d="M6.2592 18.3353
L6.4407 18.3353
" />
<path d="M6.4407 18.3353
L6.5616 18.3958
" />
<path d="M6.5616 18.3958
L6.6221 18.4563
" />
<path d="M6.6221 18.4563
L6.6826 18.5772
" />
<path d="M6.6826 18.5772
L6.6826 18.8796
" />
<path d="M6.6826 18.8796
L6.6221 19.0006
" />
<path d="M6.6221 19.0006
L6.5616 19.0611
" />
<path d="M6.5616 19.0611
L6.4407 19.1215
" />
<path d="M6.4407 19.1215
L6.0778 19.1215
" />
<path d="M6.0778 19.1215
L5.9569 19.0611
" />
<path d="M5.9569 19.0611
L5.8964 19.0006
" />
<path d="M7.1664 17.9725
L7.2268 17.9120
" />
<path d="M7.2268 17.9120
L7.3478 17.8515
" />
<path d="M7.3478 17.8515
L7.6502 17.8515
" />
<path d="M7.6502 17.8515
L7.7711 17.9120
" />
<path d="M7.7711 17.9120
L7.8316 17.9725
" />
<path d="M7.8316 17.9725
L7.8921 18.0934
" />
<path d="M7.8921 18.0934
L7.8921 18.2144
" />
<path d="M7.8921 18.2144
L7.8316 18.3958
" />
<path d="M7.8316 18.3958
L7.1059 19.1215
" />
<path d="M7.1059 19.1215
L7.8921 19.1215
" />
<path d="M8.4363 17.8515
L8.4363 18.8796
" />
<path d="M8.4363 18.8796
L8.4968 19.0006
" />
<path d="M8.4968 19.0006
L8.5573 19.0611
" />
<path d="M8.5573 19.0611
L8.6782 19.1215
" />
<path d="M8.6782 19.1215
L8.9201 19.1215
" />
<path d="M8.9201 19.1215
L9.0411 19.0611
" />
<path d="M9.0411 19.0611
L9.1016 19.0006
" />
<path d="M9.1016 19.0006
L9.1620 18.8796
" />
<path d="M9.1620 18.8796
L9.1620 17.8515
" />
<path d="M10.3111 18.2749
L10.3111 19.1215
" />
<path d="M10.0087 17.7911
L9.7064 18.6982
" />
<path d="M9.7064 18.6982
L10.4925 18.6982
" />
</g></g> 
</svg>
