<?xml version="1.0" standalone="no"?>
 <!DOCTYPE svg PUBLIC "-//W3C//DTD SVG 1.1//EN" 
 "http://www.w3.org/Graphics/SVG/1.1/DTD/svg11.dtd"> 
<svg
  xmlns:svg="http://www.w3.org/2000/svg"
  xmlns="http://www.w3.org/2000/svg"
  xmlns:xlink="http://www.w3.org/1999/xlink"
  version="1.1"
  width="66.4464mm" height="48.6664mm" viewBox="0.0000 0.0000 66.4464 48.6664">
<title>SVG Image created as promicro_rp2040.svg date 2025/02/02 22:16:20 </title>
  <desc>Image generated by Eeschema-SVG </desc>
<g style="fill:#000000; fill-opacity:1.0000;stroke:#000000; stroke-opacity:1.0000;
stroke-linecap:round; stroke-linejoin:round;"
 transform="translate(0 0) scale(1 1)">
</g>
<g style="fill:#FFFFC2; fill-opacity:1.0000; stroke:none;">
<rect x="20.296400" y="7.823200" width="25.400000" height="33.020000" rx="0.000000" />
</g>
<g style="fill:none; 
stroke:#840000; stroke-width:0.1524; stroke-opacity:1; 
stroke-linecap:round; stroke-linejoin:round;">
<rect x="20.296400" y="7.823200" width="25.400000" height="33.020000" rx="0.000000" />
<path d="M20.2964 10.3632
L15.2164 10.3632
" />
</g>
<g style="fill:none; 
stroke:#006464; stroke-width:0.1524; stroke-opacity:1; 
stroke-linecap:round; stroke-linejoin:round;">
<text x="21.3124" y="10.9982"
textLength="2.3803" font-size="1.6933" lengthAdjust="spacingAndGlyphs"
text-anchor="start" opacity="0" stroke-opacity="0">TX</text>
<g class="stroked-text"><desc>TX</desc>
<path d="M21.5335 9.6727
L22.2592 9.6727
" />
<path d="M21.8964 10.9427
L21.8964 9.6727
" />
<path d="M22.5616 9.6727
L23.4082 10.9427
" />
<path d="M23.4082 9.6727
L22.5616 10.9427
" />
</g></g>
<g style="fill:none; 
stroke:#A90000; stroke-width:0.1524; stroke-opacity:1; 
stroke-linecap:round; stroke-linejoin:round;">
<text x="17.7564" y="10.1092"
textLength="1.4127" font-size="1.6933" lengthAdjust="spacingAndGlyphs"
text-anchor="middle" opacity="0" stroke-opacity="0">1</text>
<g class="stroked-text"><desc>1</desc>
<path d="M18.1193 9.9457
L17.3936 9.9457
" />
<path d="M17.7564 9.9457
L17.7564 8.6757
" />
<path d="M17.7564 8.6757
L17.6355 8.8572
" />
<path d="M17.6355 8.8572
L17.5145 8.9781
" />
<path d="M17.5145 8.9781
L17.3936 9.0386
" />
</g></g>
<g style="fill:none; 
stroke:#840000; stroke-width:0.1524; stroke-opacity:1; 
stroke-linecap:round; stroke-linejoin:round;">
<path d="M20.2964 33.2232
L15.2164 33.2232
" />
</g>
<g style="fill:none; 
stroke:#006464; stroke-width:0.1524; stroke-opacity:1; 
stroke-linecap:round; stroke-linejoin:round;">
<text x="21.3124" y="33.8582"
textLength="2.6827" font-size="1.6933" lengthAdjust="spacingAndGlyphs"
text-anchor="start" opacity="0" stroke-opacity="0">D7</text>
<g class="stroked-text"><desc>D7</desc>
<path d="M21.7149 33.8027
L21.7149 32.5327
" />
<path d="M21.7149 32.5327
L22.0173 32.5327
" />
<path d="M22.0173 32.5327
L22.1987 32.5932
" />
<path d="M22.1987 32.5932
L22.3197 32.7142
" />
<path d="M22.3197 32.7142
L22.3802 32.8351
" />
<path d="M22.3802 32.8351
L22.4406 33.0770
" />
<path d="M22.4406 33.0770
L22.4406 33.2584
" />
<path d="M22.4406 33.2584
L22.3802 33.5003
" />
<path d="M22.3802 33.5003
L22.3197 33.6213
" />
<path d="M22.3197 33.6213
L22.1987 33.7423
" />
<path d="M22.1987 33.7423
L22.0173 33.8027
" />
<path d="M22.0173 33.8027
L21.7149 33.8027
" />
<path d="M22.8640 32.5327
L23.7106 32.5327
" />
<path d="M23.7106 32.5327
L23.1664 33.8027
" />
</g></g>
<g style="fill:none; 
stroke:#A90000; stroke-width:0.1524; stroke-opacity:1; 
stroke-linecap:round; stroke-linejoin:round;">
<text x="17.7564" y="32.9692"
textLength="2.6222" font-size="1.6933" lengthAdjust="spacingAndGlyphs"
text-anchor="middle" opacity="0" stroke-opacity="0">10</text>
<g class="stroked-text"><desc>10</desc>
<path d="M17.5145 32.8057
L16.7888 32.8057
" />
<path d="M17.1516 32.8057
L17.1516 31.5357
" />
<path d="M17.1516 31.5357
L17.0307 31.7172
" />
<path d="M17.0307 31.7172
L16.9097 31.8381
" />
<path d="M16.9097 31.8381
L16.7888 31.8986
" />
<path d="M18.3006 31.5357
L18.4216 31.5357
" />
<path d="M18.4216 31.5357
L18.5425 31.5962
" />
<path d="M18.5425 31.5962
L18.6030 31.6567
" />
<path d="M18.6030 31.6567
L18.6635 31.7776
" />
<path d="M18.6635 31.7776
L18.7240 32.0195
" />
<path d="M18.7240 32.0195
L18.7240 32.3219
" />
<path d="M18.7240 32.3219
L18.6635 32.5638
" />
<path d="M18.6635 32.5638
L18.6030 32.6848
" />
<path d="M18.6030 32.6848
L18.5425 32.7453
" />
<path d="M18.5425 32.7453
L18.4216 32.8057
" />
<path d="M18.4216 32.8057
L18.3006 32.8057
" />
<path d="M18.3006 32.8057
L18.1797 32.7453
" />
<path d="M18.1797 32.7453
L18.1192 32.6848
" />
<path d="M18.1192 32.6848
L18.0587 32.5638
" />
<path d="M18.0587 32.5638
L17.9983 32.3219
" />
<path d="M17.9983 32.3219
L17.9983 32.0195
" />
<path d="M17.9983 32.0195
L18.0587 31.7776
" />
<path d="M18.0587 31.7776
L18.1192 31.6567
" />
<path d="M18.1192 31.6567
L18.1797 31.5962
" />
<path d="M18.1797 31.5962
L18.3006 31.5357
" />
</g></g>
<g style="fill:none; 
stroke:#840000; stroke-width:0.1524; stroke-opacity:1; 
stroke-linecap:round; stroke-linejoin:round;">
<path d="M20.2964 35.7632
L15.2164 35.7632
" />
</g>
<g style="fill:none; 
stroke:#006464; stroke-width:0.1524; stroke-opacity:1; 
stroke-linecap:round; stroke-linejoin:round;">
<text x="21.3124" y="36.3982"
textLength="2.6827" font-size="1.6933" lengthAdjust="spacingAndGlyphs"
text-anchor="start" opacity="0" stroke-opacity="0">D8</text>
<g class="stroked-text"><desc>D8</desc>
<path d="M21.7149 36.3427
L21.7149 35.0727
" />
<path d="M21.7149 35.0727
L22.0173 35.0727
" />
<path d="M22.0173 35.0727
L22.1987 35.1332
" />
<path d="M22.1987 35.1332
L22.3197 35.2542
" />
<path d="M22.3197 35.2542
L22.3802 35.3751
" />
<path d="M22.3802 35.3751
L22.4406 35.6170
" />
<path d="M22.4406 35.6170
L22.4406 35.7984
" />
<path d="M22.4406 35.7984
L22.3802 36.0403
" />
<path d="M22.3802 36.0403
L22.3197 36.1613
" />
<path d="M22.3197 36.1613
L22.1987 36.2823
" />
<path d="M22.1987 36.2823
L22.0173 36.3427
" />
<path d="M22.0173 36.3427
L21.7149 36.3427
" />
<path d="M23.1664 35.6170
L23.0454 35.5565
" />
<path d="M23.0454 35.5565
L22.9849 35.4961
" />
<path d="M22.9849 35.4961
L22.9245 35.3751
" />
<path d="M22.9245 35.3751
L22.9245 35.3146
" />
<path d="M22.9245 35.3146
L22.9849 35.1937
" />
<path d="M22.9849 35.1937
L23.0454 35.1332
" />
<path d="M23.0454 35.1332
L23.1664 35.0727
" />
<path d="M23.1664 35.0727
L23.4083 35.0727
" />
<path d="M23.4083 35.0727
L23.5292 35.1332
" />
<path d="M23.5292 35.1332
L23.5897 35.1937
" />
<path d="M23.5897 35.1937
L23.6502 35.3146
" />
<path d="M23.6502 35.3146
L23.6502 35.3751
" />
<path d="M23.6502 35.3751
L23.5897 35.4961
" />
<path d="M23.5897 35.4961
L23.5292 35.5565
" />
<path d="M23.5292 35.5565
L23.4083 35.6170
" />
<path d="M23.4083 35.6170
L23.1664 35.6170
" />
<path d="M23.1664 35.6170
L23.0454 35.6775
" />
<path d="M23.0454 35.6775
L22.9849 35.7380
" />
<path d="M22.9849 35.7380
L22.9245 35.8589
" />
<path d="M22.9245 35.8589
L22.9245 36.1008
" />
<path d="M22.9245 36.1008
L22.9849 36.2218
" />
<path d="M22.9849 36.2218
L23.0454 36.2823
" />
<path d="M23.0454 36.2823
L23.1664 36.3427
" />
<path d="M23.1664 36.3427
L23.4083 36.3427
" />
<path d="M23.4083 36.3427
L23.5292 36.2823
" />
<path d="M23.5292 36.2823
L23.5897 36.2218
" />
<path d="M23.5897 36.2218
L23.6502 36.1008
" />
<path d="M23.6502 36.1008
L23.6502 35.8589
" />
<path d="M23.6502 35.8589
L23.5897 35.7380
" />
<path d="M23.5897 35.7380
L23.5292 35.6775
" />
<path d="M23.5292 35.6775
L23.4083 35.6170
" />
</g></g>
<g style="fill:none; 
stroke:#A90000; stroke-width:0.1524; stroke-opacity:1; 
stroke-linecap:round; stroke-linejoin:round;">
<text x="17.7564" y="35.5092"
textLength="2.6222" font-size="1.6933" lengthAdjust="spacingAndGlyphs"
text-anchor="middle" opacity="0" stroke-opacity="0">11</text>
<g class="stroked-text"><desc>11</desc>
<path d="M17.5145 35.3457
L16.7888 35.3457
" />
<path d="M17.1516 35.3457
L17.1516 34.0757
" />
<path d="M17.1516 34.0757
L17.0307 34.2572
" />
<path d="M17.0307 34.2572
L16.9097 34.3781
" />
<path d="M16.9097 34.3781
L16.7888 34.4386
" />
<path d="M18.7240 35.3457
L17.9983 35.3457
" />
<path d="M18.3611 35.3457
L18.3611 34.0757
" />
<path d="M18.3611 34.0757
L18.2402 34.2572
" />
<path d="M18.2402 34.2572
L18.1192 34.3781
" />
<path d="M18.1192 34.3781
L17.9983 34.4386
" />
</g></g>
<g style="fill:none; 
stroke:#840000; stroke-width:0.1524; stroke-opacity:1; 
stroke-linecap:round; stroke-linejoin:round;">
<path d="M20.2964 38.3032
L15.2164 38.3032
" />
</g>
<g style="fill:none; 
stroke:#006464; stroke-width:0.1524; stroke-opacity:1; 
stroke-linecap:round; stroke-linejoin:round;">
<text x="21.3124" y="38.9382"
textLength="2.6827" font-size="1.6933" lengthAdjust="spacingAndGlyphs"
text-anchor="start" opacity="0" stroke-opacity="0">D9</text>
<g class="stroked-text"><desc>D9</desc>
<path d="M21.7149 38.8827
L21.7149 37.6127
" />
<path d="M21.7149 37.6127
L22.0173 37.6127
" />
<path d="M22.0173 37.6127
L22.1987 37.6732
" />
<path d="M22.1987 37.6732
L22.3197 37.7942
" />
<path d="M22.3197 37.7942
L22.3802 37.9151
" />
<path d="M22.3802 37.9151
L22.4406 38.1570
" />
<path d="M22.4406 38.1570
L22.4406 38.3384
" />
<path d="M22.4406 38.3384
L22.3802 38.5803
" />
<path d="M22.3802 38.5803
L22.3197 38.7013
" />
<path d="M22.3197 38.7013
L22.1987 38.8223
" />
<path d="M22.1987 38.8223
L22.0173 38.8827
" />
<path d="M22.0173 38.8827
L21.7149 38.8827
" />
<path d="M23.0454 38.8827
L23.2873 38.8827
" />
<path d="M23.2873 38.8827
L23.4083 38.8223
" />
<path d="M23.4083 38.8223
L23.4687 38.7618
" />
<path d="M23.4687 38.7618
L23.5897 38.5803
" />
<path d="M23.5897 38.5803
L23.6502 38.3384
" />
<path d="M23.6502 38.3384
L23.6502 37.8546
" />
<path d="M23.6502 37.8546
L23.5897 37.7337
" />
<path d="M23.5897 37.7337
L23.5292 37.6732
" />
<path d="M23.5292 37.6732
L23.4083 37.6127
" />
<path d="M23.4083 37.6127
L23.1664 37.6127
" />
<path d="M23.1664 37.6127
L23.0454 37.6732
" />
<path d="M23.0454 37.6732
L22.9849 37.7337
" />
<path d="M22.9849 37.7337
L22.9245 37.8546
" />
<path d="M22.9245 37.8546
L22.9245 38.1570
" />
<path d="M22.9245 38.1570
L22.9849 38.2780
" />
<path d="M22.9849 38.2780
L23.0454 38.3384
" />
<path d="M23.0454 38.3384
L23.1664 38.3989
" />
<path d="M23.1664 38.3989
L23.4083 38.3989
" />
<path d="M23.4083 38.3989
L23.5292 38.3384
" />
<path d="M23.5292 38.3384
L23.5897 38.2780
" />
<path d="M23.5897 38.2780
L23.6502 38.1570
" />
</g></g>
<g style="fill:none; 
stroke:#A90000; stroke-width:0.1524; stroke-opacity:1; 
stroke-linecap:round; stroke-linejoin:round;">
<text x="17.7564" y="38.0492"
textLength="2.6222" font-size="1.6933" lengthAdjust="spacingAndGlyphs"
text-anchor="middle" opacity="0" stroke-opacity="0">12</text>
<g class="stroked-text"><desc>12</desc>
<path d="M17.5145 37.8857
L16.7888 37.8857
" />
<path d="M17.1516 37.8857
L17.1516 36.6157
" />
<path d="M17.1516 36.6157
L17.0307 36.7972
" />
<path d="M17.0307 36.7972
L16.9097 36.9181
" />
<path d="M16.9097 36.9181
L16.7888 36.9786
" />
<path d="M17.9983 36.7367
L18.0587 36.6762
" />
<path d="M18.0587 36.6762
L18.1797 36.6157
" />
<path d="M18.1797 36.6157
L18.4821 36.6157
" />
<path d="M18.4821 36.6157
L18.6030 36.6762
" />
<path d="M18.6030 36.6762
L18.6635 36.7367
" />
<path d="M18.6635 36.7367
L18.7240 36.8576
" />
<path d="M18.7240 36.8576
L18.7240 36.9786
" />
<path d="M18.7240 36.9786
L18.6635 37.1600
" />
<path d="M18.6635 37.1600
L17.9378 37.8857
" />
<path d="M17.9378 37.8857
L18.7240 37.8857
" />
</g></g>
<g style="fill:none; 
stroke:#840000; stroke-width:0.1524; stroke-opacity:1; 
stroke-linecap:round; stroke-linejoin:round;">
<path d="M45.6964 38.3032
L50.7764 38.3032
" />
</g>
<g style="fill:none; 
stroke:#006464; stroke-width:0.1524; stroke-opacity:1; 
stroke-linecap:round; stroke-linejoin:round;">
<text x="44.6804" y="38.9382"
textLength="3.8922" font-size="1.6933" lengthAdjust="spacingAndGlyphs"
text-anchor="end" opacity="0" stroke-opacity="0">D10</text>
<g class="stroked-text"><desc>D10</desc>
<path d="M41.1935 38.8827
L41.1935 37.6127
" />
<path d="M41.1935 37.6127
L41.4959 37.6127
" />
<path d="M41.4959 37.6127
L41.6773 37.6732
" />
<path d="M41.6773 37.6732
L41.7983 37.7942
" />
<path d="M41.7983 37.7942
L41.8588 37.9151
" />
<path d="M41.8588 37.9151
L41.9192 38.1570
" />
<path d="M41.9192 38.1570
L41.9192 38.3384
" />
<path d="M41.9192 38.3384
L41.8588 38.5803
" />
<path d="M41.8588 38.5803
L41.7983 38.7013
" />
<path d="M41.7983 38.7013
L41.6773 38.8223
" />
<path d="M41.6773 38.8223
L41.4959 38.8827
" />
<path d="M41.4959 38.8827
L41.1935 38.8827
" />
<path d="M43.1288 38.8827
L42.4031 38.8827
" />
<path d="M42.7659 38.8827
L42.7659 37.6127
" />
<path d="M42.7659 37.6127
L42.6450 37.7942
" />
<path d="M42.6450 37.7942
L42.5240 37.9151
" />
<path d="M42.5240 37.9151
L42.4031 37.9756
" />
<path d="M43.9149 37.6127
L44.0359 37.6127
" />
<path d="M44.0359 37.6127
L44.1568 37.6732
" />
<path d="M44.1568 37.6732
L44.2173 37.7337
" />
<path d="M44.2173 37.7337
L44.2778 37.8546
" />
<path d="M44.2778 37.8546
L44.3383 38.0965
" />
<path d="M44.3383 38.0965
L44.3383 38.3989
" />
<path d="M44.3383 38.3989
L44.2778 38.6408
" />
<path d="M44.2778 38.6408
L44.2173 38.7618
" />
<path d="M44.2173 38.7618
L44.1568 38.8223
" />
<path d="M44.1568 38.8223
L44.0359 38.8827
" />
<path d="M44.0359 38.8827
L43.9149 38.8827
" />
<path d="M43.9149 38.8827
L43.7940 38.8223
" />
<path d="M43.7940 38.8223
L43.7335 38.7618
" />
<path d="M43.7335 38.7618
L43.6730 38.6408
" />
<path d="M43.6730 38.6408
L43.6126 38.3989
" />
<path d="M43.6126 38.3989
L43.6126 38.0965
" />
<path d="M43.6126 38.0965
L43.6730 37.8546
" />
<path d="M43.6730 37.8546
L43.7335 37.7337
" />
<path d="M43.7335 37.7337
L43.7940 37.6732
" />
<path d="M43.7940 37.6732
L43.9149 37.6127
" />
</g></g>
<g style="fill:none; 
stroke:#A90000; stroke-width:0.1524; stroke-opacity:1; 
stroke-linecap:round; stroke-linejoin:round;">
<text x="48.2364" y="38.0492"
textLength="2.6222" font-size="1.6933" lengthAdjust="spacingAndGlyphs"
text-anchor="middle" opacity="0" stroke-opacity="0">13</text>
<g class="stroked-text"><desc>13</desc>
<path d="M47.9945 37.8857
L47.2688 37.8857
" />
<path d="M47.6316 37.8857
L47.6316 36.6157
" />
<path d="M47.6316 36.6157
L47.5107 36.7972
" />
<path d="M47.5107 36.7972
L47.3897 36.9181
" />
<path d="M47.3897 36.9181
L47.2688 36.9786
" />
<path d="M48.4178 36.6157
L49.2040 36.6157
" />
<path d="M49.2040 36.6157
L48.7806 37.0995
" />
<path d="M48.7806 37.0995
L48.9621 37.0995
" />
<path d="M48.9621 37.0995
L49.0830 37.1600
" />
<path d="M49.0830 37.1600
L49.1435 37.2205
" />
<path d="M49.1435 37.2205
L49.2040 37.3414
" />
<path d="M49.2040 37.3414
L49.2040 37.6438
" />
<path d="M49.2040 37.6438
L49.1435 37.7648
" />
<path d="M49.1435 37.7648
L49.0830 37.8253
" />
<path d="M49.0830 37.8253
L48.9621 37.8857
" />
<path d="M48.9621 37.8857
L48.5992 37.8857
" />
<path d="M48.5992 37.8857
L48.4783 37.8253
" />
<path d="M48.4783 37.8253
L48.4178 37.7648
" />
</g></g>
<g style="fill:none; 
stroke:#840000; stroke-width:0.1524; stroke-opacity:1; 
stroke-linecap:round; stroke-linejoin:round;">
<path d="M45.6964 35.7632
L50.7764 35.7632
" />
</g>
<g style="fill:none; 
stroke:#006464; stroke-width:0.1524; stroke-opacity:1; 
stroke-linecap:round; stroke-linejoin:round;">
<text x="44.6804" y="36.3982"
textLength="4.7994" font-size="1.6933" lengthAdjust="spacingAndGlyphs"
text-anchor="end" opacity="0" stroke-opacity="0">MOSI</text>
<g class="stroked-text"><desc>MOSI</desc>
<path d="M40.2863 36.3427
L40.2863 35.0727
" />
<path d="M40.2863 35.0727
L40.7097 35.9799
" />
<path d="M40.7097 35.9799
L41.1330 35.0727
" />
<path d="M41.1330 35.0727
L41.1330 36.3427
" />
<path d="M41.9796 35.0727
L42.2215 35.0727
" />
<path d="M42.2215 35.0727
L42.3425 35.1332
" />
<path d="M42.3425 35.1332
L42.4634 35.2542
" />
<path d="M42.4634 35.2542
L42.5239 35.4961
" />
<path d="M42.5239 35.4961
L42.5239 35.9194
" />
<path d="M42.5239 35.9194
L42.4634 36.1613
" />
<path d="M42.4634 36.1613
L42.3425 36.2823
" />
<path d="M42.3425 36.2823
L42.2215 36.3427
" />
<path d="M42.2215 36.3427
L41.9796 36.3427
" />
<path d="M41.9796 36.3427
L41.8587 36.2823
" />
<path d="M41.8587 36.2823
L41.7377 36.1613
" />
<path d="M41.7377 36.1613
L41.6773 35.9194
" />
<path d="M41.6773 35.9194
L41.6773 35.4961
" />
<path d="M41.6773 35.4961
L41.7377 35.2542
" />
<path d="M41.7377 35.2542
L41.8587 35.1332
" />
<path d="M41.8587 35.1332
L41.9796 35.0727
" />
<path d="M43.0078 36.2823
L43.1892 36.3427
" />
<path d="M43.1892 36.3427
L43.4916 36.3427
" />
<path d="M43.4916 36.3427
L43.6125 36.2823
" />
<path d="M43.6125 36.2823
L43.6730 36.2218
" />
<path d="M43.6730 36.2218
L43.7335 36.1008
" />
<path d="M43.7335 36.1008
L43.7335 35.9799
" />
<path d="M43.7335 35.9799
L43.6730 35.8589
" />
<path d="M43.6730 35.8589
L43.6125 35.7984
" />
<path d="M43.6125 35.7984
L43.4916 35.7380
" />
<path d="M43.4916 35.7380
L43.2497 35.6775
" />
<path d="M43.2497 35.6775
L43.1287 35.6170
" />
<path d="M43.1287 35.6170
L43.0682 35.5565
" />
<path d="M43.0682 35.5565
L43.0078 35.4356
" />
<path d="M43.0078 35.4356
L43.0078 35.3146
" />
<path d="M43.0078 35.3146
L43.0682 35.1937
" />
<path d="M43.0682 35.1937
L43.1287 35.1332
" />
<path d="M43.1287 35.1332
L43.2497 35.0727
" />
<path d="M43.2497 35.0727
L43.5520 35.0727
" />
<path d="M43.5520 35.0727
L43.7335 35.1332
" />
<path d="M44.2777 36.3427
L44.2777 35.0727
" />
</g></g>
<g style="fill:none; 
stroke:#A90000; stroke-width:0.1524; stroke-opacity:1; 
stroke-linecap:round; stroke-linejoin:round;">
<text x="48.2364" y="35.5092"
textLength="2.6222" font-size="1.6933" lengthAdjust="spacingAndGlyphs"
text-anchor="middle" opacity="0" stroke-opacity="0">14</text>
<g class="stroked-text"><desc>14</desc>
<path d="M47.9945 35.3457
L47.2688 35.3457
" />
<path d="M47.6316 35.3457
L47.6316 34.0757
" />
<path d="M47.6316 34.0757
L47.5107 34.2572
" />
<path d="M47.5107 34.2572
L47.3897 34.3781
" />
<path d="M47.3897 34.3781
L47.2688 34.4386
" />
<path d="M49.0830 34.4991
L49.0830 35.3457
" />
<path d="M48.7806 34.0153
L48.4783 34.9224
" />
<path d="M48.4783 34.9224
L49.2644 34.9224
" />
</g></g>
<g style="fill:none; 
stroke:#840000; stroke-width:0.1524; stroke-opacity:1; 
stroke-linecap:round; stroke-linejoin:round;">
<path d="M45.6964 33.2232
L50.7764 33.2232
" />
</g>
<g style="fill:none; 
stroke:#006464; stroke-width:0.1524; stroke-opacity:1; 
stroke-linecap:round; stroke-linejoin:round;">
<text x="44.6804" y="33.8582"
textLength="4.7994" font-size="1.6933" lengthAdjust="spacingAndGlyphs"
text-anchor="end" opacity="0" stroke-opacity="0">MISO</text>
<g class="stroked-text"><desc>MISO</desc>
<path d="M40.2863 33.8027
L40.2863 32.5327
" />
<path d="M40.2863 32.5327
L40.7097 33.4399
" />
<path d="M40.7097 33.4399
L41.1330 32.5327
" />
<path d="M41.1330 32.5327
L41.1330 33.8027
" />
<path d="M41.7377 33.8027
L41.7377 32.5327
" />
<path d="M42.2821 33.7423
L42.4635 33.8027
" />
<path d="M42.4635 33.8027
L42.7659 33.8027
" />
<path d="M42.7659 33.8027
L42.8868 33.7423
" />
<path d="M42.8868 33.7423
L42.9473 33.6818
" />
<path d="M42.9473 33.6818
L43.0078 33.5608
" />
<path d="M43.0078 33.5608
L43.0078 33.4399
" />
<path d="M43.0078 33.4399
L42.9473 33.3189
" />
<path d="M42.9473 33.3189
L42.8868 33.2584
" />
<path d="M42.8868 33.2584
L42.7659 33.1980
" />
<path d="M42.7659 33.1980
L42.5240 33.1375
" />
<path d="M42.5240 33.1375
L42.4030 33.0770
" />
<path d="M42.4030 33.0770
L42.3425 33.0165
" />
<path d="M42.3425 33.0165
L42.2821 32.8956
" />
<path d="M42.2821 32.8956
L42.2821 32.7746
" />
<path d="M42.2821 32.7746
L42.3425 32.6537
" />
<path d="M42.3425 32.6537
L42.4030 32.5932
" />
<path d="M42.4030 32.5932
L42.5240 32.5327
" />
<path d="M42.5240 32.5327
L42.8263 32.5327
" />
<path d="M42.8263 32.5327
L43.0078 32.5932
" />
<path d="M43.7939 32.5327
L44.0358 32.5327
" />
<path d="M44.0358 32.5327
L44.1568 32.5932
" />
<path d="M44.1568 32.5932
L44.2777 32.7142
" />
<path d="M44.2777 32.7142
L44.3382 32.9561
" />
<path d="M44.3382 32.9561
L44.3382 33.3794
" />
<path d="M44.3382 33.3794
L44.2777 33.6213
" />
<path d="M44.2777 33.6213
L44.1568 33.7423
" />
<path d="M44.1568 33.7423
L44.0358 33.8027
" />
<path d="M44.0358 33.8027
L43.7939 33.8027
" />
<path d="M43.7939 33.8027
L43.6730 33.7423
" />
<path d="M43.6730 33.7423
L43.5520 33.6213
" />
<path d="M43.5520 33.6213
L43.4916 33.3794
" />
<path d="M43.4916 33.3794
L43.4916 32.9561
" />
<path d="M43.4916 32.9561
L43.5520 32.7142
" />
<path d="M43.5520 32.7142
L43.6730 32.5932
" />
<path d="M43.6730 32.5932
L43.7939 32.5327
" />
</g></g>
<g style="fill:none; 
stroke:#A90000; stroke-width:0.1524; stroke-opacity:1; 
stroke-linecap:round; stroke-linejoin:round;">
<text x="48.2364" y="32.9692"
textLength="2.6222" font-size="1.6933" lengthAdjust="spacingAndGlyphs"
text-anchor="middle" opacity="0" stroke-opacity="0">15</text>
<g class="stroked-text"><desc>15</desc>
<path d="M47.9945 32.8057
L47.2688 32.8057
" />
<path d="M47.6316 32.8057
L47.6316 31.5357
" />
<path d="M47.6316 31.5357
L47.5107 31.7172
" />
<path d="M47.5107 31.7172
L47.3897 31.8381
" />
<path d="M47.3897 31.8381
L47.2688 31.8986
" />
<path d="M49.1435 31.5357
L48.5387 31.5357
" />
<path d="M48.5387 31.5357
L48.4783 32.1405
" />
<path d="M48.4783 32.1405
L48.5387 32.0800
" />
<path d="M48.5387 32.0800
L48.6597 32.0195
" />
<path d="M48.6597 32.0195
L48.9621 32.0195
" />
<path d="M48.9621 32.0195
L49.0830 32.0800
" />
<path d="M49.0830 32.0800
L49.1435 32.1405
" />
<path d="M49.1435 32.1405
L49.2040 32.2614
" />
<path d="M49.2040 32.2614
L49.2040 32.5638
" />
<path d="M49.2040 32.5638
L49.1435 32.6848
" />
<path d="M49.1435 32.6848
L49.0830 32.7453
" />
<path d="M49.0830 32.7453
L48.9621 32.8057
" />
<path d="M48.9621 32.8057
L48.6597 32.8057
" />
<path d="M48.6597 32.8057
L48.5387 32.7453
" />
<path d="M48.5387 32.7453
L48.4783 32.6848
" />
</g></g>
<g style="fill:none; 
stroke:#840000; stroke-width:0.1524; stroke-opacity:1; 
stroke-linecap:round; stroke-linejoin:round;">
<path d="M45.6964 30.6832
L50.7764 30.6832
" />
</g>
<g style="fill:none; 
stroke:#006464; stroke-width:0.1524; stroke-opacity:1; 
stroke-linecap:round; stroke-linejoin:round;">
<text x="44.6804" y="31.3182"
textLength="3.7713" font-size="1.6933" lengthAdjust="spacingAndGlyphs"
text-anchor="end" opacity="0" stroke-opacity="0">CLK</text>
<g class="stroked-text"><desc>CLK</desc>
<path d="M42.0401 31.1418
L41.9797 31.2023
" />
<path d="M41.9797 31.2023
L41.7982 31.2627
" />
<path d="M41.7982 31.2627
L41.6773 31.2627
" />
<path d="M41.6773 31.2627
L41.4959 31.2023
" />
<path d="M41.4959 31.2023
L41.3749 31.0813
" />
<path d="M41.3749 31.0813
L41.3144 30.9603
" />
<path d="M41.3144 30.9603
L41.2540 30.7184
" />
<path d="M41.2540 30.7184
L41.2540 30.5370
" />
<path d="M41.2540 30.5370
L41.3144 30.2951
" />
<path d="M41.3144 30.2951
L41.3749 30.1742
" />
<path d="M41.3749 30.1742
L41.4959 30.0532
" />
<path d="M41.4959 30.0532
L41.6773 29.9927
" />
<path d="M41.6773 29.9927
L41.7982 29.9927
" />
<path d="M41.7982 29.9927
L41.9797 30.0532
" />
<path d="M41.9797 30.0532
L42.0401 30.1137
" />
<path d="M43.1892 31.2627
L42.5844 31.2627
" />
<path d="M42.5844 31.2627
L42.5844 29.9927
" />
<path d="M43.6125 31.2627
L43.6125 29.9927
" />
<path d="M44.3382 31.2627
L43.7940 30.5370
" />
<path d="M44.3382 29.9927
L43.6125 30.7184
" />
</g></g>
<g style="fill:none; 
stroke:#A90000; stroke-width:0.1524; stroke-opacity:1; 
stroke-linecap:round; stroke-linejoin:round;">
<text x="48.2364" y="30.4292"
textLength="2.6222" font-size="1.6933" lengthAdjust="spacingAndGlyphs"
text-anchor="middle" opacity="0" stroke-opacity="0">16</text>
<g class="stroked-text"><desc>16</desc>
<path d="M47.9945 30.2657
L47.2688 30.2657
" />
<path d="M47.6316 30.2657
L47.6316 28.9957
" />
<path d="M47.6316 28.9957
L47.5107 29.1772
" />
<path d="M47.5107 29.1772
L47.3897 29.2981
" />
<path d="M47.3897 29.2981
L47.2688 29.3586
" />
<path d="M49.0830 28.9957
L48.8411 28.9957
" />
<path d="M48.8411 28.9957
L48.7202 29.0562
" />
<path d="M48.7202 29.0562
L48.6597 29.1167
" />
<path d="M48.6597 29.1167
L48.5387 29.2981
" />
<path d="M48.5387 29.2981
L48.4783 29.5400
" />
<path d="M48.4783 29.5400
L48.4783 30.0238
" />
<path d="M48.4783 30.0238
L48.5387 30.1448
" />
<path d="M48.5387 30.1448
L48.5992 30.2053
" />
<path d="M48.5992 30.2053
L48.7202 30.2657
" />
<path d="M48.7202 30.2657
L48.9621 30.2657
" />
<path d="M48.9621 30.2657
L49.0830 30.2053
" />
<path d="M49.0830 30.2053
L49.1435 30.1448
" />
<path d="M49.1435 30.1448
L49.2040 30.0238
" />
<path d="M49.2040 30.0238
L49.2040 29.7214
" />
<path d="M49.2040 29.7214
L49.1435 29.6005
" />
<path d="M49.1435 29.6005
L49.0830 29.5400
" />
<path d="M49.0830 29.5400
L48.9621 29.4795
" />
<path d="M48.9621 29.4795
L48.7202 29.4795
" />
<path d="M48.7202 29.4795
L48.5992 29.5400
" />
<path d="M48.5992 29.5400
L48.5387 29.6005
" />
<path d="M48.5387 29.6005
L48.4783 29.7214
" />
</g></g>
<g style="fill:none; 
stroke:#840000; stroke-width:0.1524; stroke-opacity:1; 
stroke-linecap:round; stroke-linejoin:round;">
<path d="M45.6964 28.1432
L50.7764 28.1432
" />
</g>
<g style="fill:none; 
stroke:#006464; stroke-width:0.1524; stroke-opacity:1; 
stroke-linecap:round; stroke-linejoin:round;">
<text x="44.6804" y="28.7782"
textLength="2.5013" font-size="1.6933" lengthAdjust="spacingAndGlyphs"
text-anchor="end" opacity="0" stroke-opacity="0">A0</text>
<g class="stroked-text"><desc>A0</desc>
<path d="M42.5240 28.3599
L43.1287 28.3599
" />
<path d="M42.4030 28.7227
L42.8263 27.4527
" />
<path d="M42.8263 27.4527
L43.2497 28.7227
" />
<path d="M43.9149 27.4527
L44.0359 27.4527
" />
<path d="M44.0359 27.4527
L44.1568 27.5132
" />
<path d="M44.1568 27.5132
L44.2173 27.5737
" />
<path d="M44.2173 27.5737
L44.2778 27.6946
" />
<path d="M44.2778 27.6946
L44.3383 27.9365
" />
<path d="M44.3383 27.9365
L44.3383 28.2389
" />
<path d="M44.3383 28.2389
L44.2778 28.4808
" />
<path d="M44.2778 28.4808
L44.2173 28.6018
" />
<path d="M44.2173 28.6018
L44.1568 28.6623
" />
<path d="M44.1568 28.6623
L44.0359 28.7227
" />
<path d="M44.0359 28.7227
L43.9149 28.7227
" />
<path d="M43.9149 28.7227
L43.7940 28.6623
" />
<path d="M43.7940 28.6623
L43.7335 28.6018
" />
<path d="M43.7335 28.6018
L43.6730 28.4808
" />
<path d="M43.6730 28.4808
L43.6126 28.2389
" />
<path d="M43.6126 28.2389
L43.6126 27.9365
" />
<path d="M43.6126 27.9365
L43.6730 27.6946
" />
<path d="M43.6730 27.6946
L43.7335 27.5737
" />
<path d="M43.7335 27.5737
L43.7940 27.5132
" />
<path d="M43.7940 27.5132
L43.9149 27.4527
" />
</g></g>
<g style="fill:none; 
stroke:#A90000; stroke-width:0.1524; stroke-opacity:1; 
stroke-linecap:round; stroke-linejoin:round;">
<text x="48.2364" y="27.8892"
textLength="2.6222" font-size="1.6933" lengthAdjust="spacingAndGlyphs"
text-anchor="middle" opacity="0" stroke-opacity="0">17</text>
<g class="stroked-text"><desc>17</desc>
<path d="M47.9945 27.7257
L47.2688 27.7257
" />
<path d="M47.6316 27.7257
L47.6316 26.4557
" />
<path d="M47.6316 26.4557
L47.5107 26.6372
" />
<path d="M47.5107 26.6372
L47.3897 26.7581
" />
<path d="M47.3897 26.7581
L47.2688 26.8186
" />
<path d="M48.4178 26.4557
L49.2644 26.4557
" />
<path d="M49.2644 26.4557
L48.7202 27.7257
" />
</g></g>
<g style="fill:none; 
stroke:#840000; stroke-width:0.1524; stroke-opacity:1; 
stroke-linecap:round; stroke-linejoin:round;">
<path d="M45.6964 25.6032
L50.7764 25.6032
" />
</g>
<g style="fill:none; 
stroke:#006464; stroke-width:0.1524; stroke-opacity:1; 
stroke-linecap:round; stroke-linejoin:round;">
<text x="44.6804" y="26.2382"
textLength="2.5013" font-size="1.6933" lengthAdjust="spacingAndGlyphs"
text-anchor="end" opacity="0" stroke-opacity="0">A1</text>
<g class="stroked-text"><desc>A1</desc>
<path d="M42.5240 25.8199
L43.1287 25.8199
" />
<path d="M42.4030 26.1827
L42.8263 24.9127
" />
<path d="M42.8263 24.9127
L43.2497 26.1827
" />
<path d="M44.3383 26.1827
L43.6126 26.1827
" />
<path d="M43.9754 26.1827
L43.9754 24.9127
" />
<path d="M43.9754 24.9127
L43.8545 25.0942
" />
<path d="M43.8545 25.0942
L43.7335 25.2151
" />
<path d="M43.7335 25.2151
L43.6126 25.2756
" />
</g></g>
<g style="fill:none; 
stroke:#A90000; stroke-width:0.1524; stroke-opacity:1; 
stroke-linecap:round; stroke-linejoin:round;">
<text x="48.2364" y="25.3492"
textLength="2.6222" font-size="1.6933" lengthAdjust="spacingAndGlyphs"
text-anchor="middle" opacity="0" stroke-opacity="0">18</text>
<g class="stroked-text"><desc>18</desc>
<path d="M47.9945 25.1857
L47.2688 25.1857
" />
<path d="M47.6316 25.1857
L47.6316 23.9157
" />
<path d="M47.6316 23.9157
L47.5107 24.0972
" />
<path d="M47.5107 24.0972
L47.3897 24.2181
" />
<path d="M47.3897 24.2181
L47.2688 24.2786
" />
<path d="M48.7202 24.4600
L48.5992 24.3995
" />
<path d="M48.5992 24.3995
L48.5387 24.3391
" />
<path d="M48.5387 24.3391
L48.4783 24.2181
" />
<path d="M48.4783 24.2181
L48.4783 24.1576
" />
<path d="M48.4783 24.1576
L48.5387 24.0367
" />
<path d="M48.5387 24.0367
L48.5992 23.9762
" />
<path d="M48.5992 23.9762
L48.7202 23.9157
" />
<path d="M48.7202 23.9157
L48.9621 23.9157
" />
<path d="M48.9621 23.9157
L49.0830 23.9762
" />
<path d="M49.0830 23.9762
L49.1435 24.0367
" />
<path d="M49.1435 24.0367
L49.2040 24.1576
" />
<path d="M49.2040 24.1576
L49.2040 24.2181
" />
<path d="M49.2040 24.2181
L49.1435 24.3391
" />
<path d="M49.1435 24.3391
L49.0830 24.3995
" />
<path d="M49.0830 24.3995
L48.9621 24.4600
" />
<path d="M48.9621 24.4600
L48.7202 24.4600
" />
<path d="M48.7202 24.4600
L48.5992 24.5205
" />
<path d="M48.5992 24.5205
L48.5387 24.5810
" />
<path d="M48.5387 24.5810
L48.4783 24.7019
" />
<path d="M48.4783 24.7019
L48.4783 24.9438
" />
<path d="M48.4783 24.9438
L48.5387 25.0648
" />
<path d="M48.5387 25.0648
L48.5992 25.1253
" />
<path d="M48.5992 25.1253
L48.7202 25.1857
" />
<path d="M48.7202 25.1857
L48.9621 25.1857
" />
<path d="M48.9621 25.1857
L49.0830 25.1253
" />
<path d="M49.0830 25.1253
L49.1435 25.0648
" />
<path d="M49.1435 25.0648
L49.2040 24.9438
" />
<path d="M49.2040 24.9438
L49.2040 24.7019
" />
<path d="M49.2040 24.7019
L49.1435 24.5810
" />
<path d="M49.1435 24.5810
L49.0830 24.5205
" />
<path d="M49.0830 24.5205
L48.9621 24.4600
" />
</g></g>
<g style="fill:none; 
stroke:#840000; stroke-width:0.1524; stroke-opacity:1; 
stroke-linecap:round; stroke-linejoin:round;">
<path d="M45.6964 23.0632
L50.7764 23.0632
" />
</g>
<g style="fill:none; 
stroke:#006464; stroke-width:0.1524; stroke-opacity:1; 
stroke-linecap:round; stroke-linejoin:round;">
<text x="44.6804" y="23.6982"
textLength="2.5013" font-size="1.6933" lengthAdjust="spacingAndGlyphs"
text-anchor="end" opacity="0" stroke-opacity="0">A2</text>
<g class="stroked-text"><desc>A2</desc>
<path d="M42.5240 23.2799
L43.1287 23.2799
" />
<path d="M42.4030 23.6427
L42.8263 22.3727
" />
<path d="M42.8263 22.3727
L43.2497 23.6427
" />
<path d="M43.6126 22.4937
L43.6730 22.4332
" />
<path d="M43.6730 22.4332
L43.7940 22.3727
" />
<path d="M43.7940 22.3727
L44.0964 22.3727
" />
<path d="M44.0964 22.3727
L44.2173 22.4332
" />
<path d="M44.2173 22.4332
L44.2778 22.4937
" />
<path d="M44.2778 22.4937
L44.3383 22.6146
" />
<path d="M44.3383 22.6146
L44.3383 22.7356
" />
<path d="M44.3383 22.7356
L44.2778 22.9170
" />
<path d="M44.2778 22.9170
L43.5521 23.6427
" />
<path d="M43.5521 23.6427
L44.3383 23.6427
" />
</g></g>
<g style="fill:none; 
stroke:#A90000; stroke-width:0.1524; stroke-opacity:1; 
stroke-linecap:round; stroke-linejoin:round;">
<text x="48.2364" y="22.8092"
textLength="2.6222" font-size="1.6933" lengthAdjust="spacingAndGlyphs"
text-anchor="middle" opacity="0" stroke-opacity="0">19</text>
<g class="stroked-text"><desc>19</desc>
<path d="M47.9945 22.6457
L47.2688 22.6457
" />
<path d="M47.6316 22.6457
L47.6316 21.3757
" />
<path d="M47.6316 21.3757
L47.5107 21.5572
" />
<path d="M47.5107 21.5572
L47.3897 21.6781
" />
<path d="M47.3897 21.6781
L47.2688 21.7386
" />
<path d="M48.5992 22.6457
L48.8411 22.6457
" />
<path d="M48.8411 22.6457
L48.9621 22.5853
" />
<path d="M48.9621 22.5853
L49.0225 22.5248
" />
<path d="M49.0225 22.5248
L49.1435 22.3433
" />
<path d="M49.1435 22.3433
L49.2040 22.1014
" />
<path d="M49.2040 22.1014
L49.2040 21.6176
" />
<path d="M49.2040 21.6176
L49.1435 21.4967
" />
<path d="M49.1435 21.4967
L49.0830 21.4362
" />
<path d="M49.0830 21.4362
L48.9621 21.3757
" />
<path d="M48.9621 21.3757
L48.7202 21.3757
" />
<path d="M48.7202 21.3757
L48.5992 21.4362
" />
<path d="M48.5992 21.4362
L48.5387 21.4967
" />
<path d="M48.5387 21.4967
L48.4783 21.6176
" />
<path d="M48.4783 21.6176
L48.4783 21.9200
" />
<path d="M48.4783 21.9200
L48.5387 22.0410
" />
<path d="M48.5387 22.0410
L48.5992 22.1014
" />
<path d="M48.5992 22.1014
L48.7202 22.1619
" />
<path d="M48.7202 22.1619
L48.9621 22.1619
" />
<path d="M48.9621 22.1619
L49.0830 22.1014
" />
<path d="M49.0830 22.1014
L49.1435 22.0410
" />
<path d="M49.1435 22.0410
L49.2040 21.9200
" />
</g></g>
<g style="fill:none; 
stroke:#840000; stroke-width:0.1524; stroke-opacity:1; 
stroke-linecap:round; stroke-linejoin:round;">
<path d="M20.2964 12.9032
L15.2164 12.9032
" />
</g>
<g style="fill:none; 
stroke:#006464; stroke-width:0.1524; stroke-opacity:1; 
stroke-linecap:round; stroke-linejoin:round;">
<text x="21.3124" y="13.5382"
textLength="2.6827" font-size="1.6933" lengthAdjust="spacingAndGlyphs"
text-anchor="start" opacity="0" stroke-opacity="0">RX</text>
<g class="stroked-text"><desc>RX</desc>
<path d="M22.4406 13.4827
L22.0173 12.8780
" />
<path d="M21.7149 13.4827
L21.7149 12.2127
" />
<path d="M21.7149 12.2127
L22.1987 12.2127
" />
<path d="M22.1987 12.2127
L22.3197 12.2732
" />
<path d="M22.3197 12.2732
L22.3802 12.3337
" />
<path d="M22.3802 12.3337
L22.4406 12.4546
" />
<path d="M22.4406 12.4546
L22.4406 12.6361
" />
<path d="M22.4406 12.6361
L22.3802 12.7570
" />
<path d="M22.3802 12.7570
L22.3197 12.8175
" />
<path d="M22.3197 12.8175
L22.1987 12.8780
" />
<path d="M22.1987 12.8780
L21.7149 12.8780
" />
<path d="M22.8640 12.2127
L23.7106 13.4827
" />
<path d="M23.7106 12.2127
L22.8640 13.4827
" />
</g></g>
<g style="fill:none; 
stroke:#A90000; stroke-width:0.1524; stroke-opacity:1; 
stroke-linecap:round; stroke-linejoin:round;">
<text x="17.7564" y="12.6492"
textLength="1.4127" font-size="1.6933" lengthAdjust="spacingAndGlyphs"
text-anchor="middle" opacity="0" stroke-opacity="0">2</text>
<g class="stroked-text"><desc>2</desc>
<path d="M17.3936 11.3367
L17.4540 11.2762
" />
<path d="M17.4540 11.2762
L17.5750 11.2157
" />
<path d="M17.5750 11.2157
L17.8774 11.2157
" />
<path d="M17.8774 11.2157
L17.9983 11.2762
" />
<path d="M17.9983 11.2762
L18.0588 11.3367
" />
<path d="M18.0588 11.3367
L18.1193 11.4576
" />
<path d="M18.1193 11.4576
L18.1193 11.5786
" />
<path d="M18.1193 11.5786
L18.0588 11.7600
" />
<path d="M18.0588 11.7600
L17.3331 12.4857
" />
<path d="M17.3331 12.4857
L18.1193 12.4857
" />
</g></g>
<g style="fill:none; 
stroke:#840000; stroke-width:0.1524; stroke-opacity:1; 
stroke-linecap:round; stroke-linejoin:round;">
<path d="M45.6964 20.5232
L50.7764 20.5232
" />
</g>
<g style="fill:none; 
stroke:#006464; stroke-width:0.1524; stroke-opacity:1; 
stroke-linecap:round; stroke-linejoin:round;">
<text x="44.6804" y="21.1582"
textLength="2.5013" font-size="1.6933" lengthAdjust="spacingAndGlyphs"
text-anchor="end" opacity="0" stroke-opacity="0">A3</text>
<g class="stroked-text"><desc>A3</desc>
<path d="M42.5240 20.7399
L43.1287 20.7399
" />
<path d="M42.4030 21.1027
L42.8263 19.8327
" />
<path d="M42.8263 19.8327
L43.2497 21.1027
" />
<path d="M43.5521 19.8327
L44.3383 19.8327
" />
<path d="M44.3383 19.8327
L43.9149 20.3165
" />
<path d="M43.9149 20.3165
L44.0964 20.3165
" />
<path d="M44.0964 20.3165
L44.2173 20.3770
" />
<path d="M44.2173 20.3770
L44.2778 20.4375
" />
<path d="M44.2778 20.4375
L44.3383 20.5584
" />
<path d="M44.3383 20.5584
L44.3383 20.8608
" />
<path d="M44.3383 20.8608
L44.2778 20.9818
" />
<path d="M44.2778 20.9818
L44.2173 21.0423
" />
<path d="M44.2173 21.0423
L44.0964 21.1027
" />
<path d="M44.0964 21.1027
L43.7335 21.1027
" />
<path d="M43.7335 21.1027
L43.6126 21.0423
" />
<path d="M43.6126 21.0423
L43.5521 20.9818
" />
</g></g>
<g style="fill:none; 
stroke:#A90000; stroke-width:0.1524; stroke-opacity:1; 
stroke-linecap:round; stroke-linejoin:round;">
<text x="48.2364" y="20.2692"
textLength="2.6222" font-size="1.6933" lengthAdjust="spacingAndGlyphs"
text-anchor="middle" opacity="0" stroke-opacity="0">20</text>
<g class="stroked-text"><desc>20</desc>
<path d="M47.2688 18.9567
L47.3292 18.8962
" />
<path d="M47.3292 18.8962
L47.4502 18.8357
" />
<path d="M47.4502 18.8357
L47.7526 18.8357
" />
<path d="M47.7526 18.8357
L47.8735 18.8962
" />
<path d="M47.8735 18.8962
L47.9340 18.9567
" />
<path d="M47.9340 18.9567
L47.9945 19.0776
" />
<path d="M47.9945 19.0776
L47.9945 19.1986
" />
<path d="M47.9945 19.1986
L47.9340 19.3800
" />
<path d="M47.9340 19.3800
L47.2083 20.1057
" />
<path d="M47.2083 20.1057
L47.9945 20.1057
" />
<path d="M48.7806 18.8357
L48.9016 18.8357
" />
<path d="M48.9016 18.8357
L49.0225 18.8962
" />
<path d="M49.0225 18.8962
L49.0830 18.9567
" />
<path d="M49.0830 18.9567
L49.1435 19.0776
" />
<path d="M49.1435 19.0776
L49.2040 19.3195
" />
<path d="M49.2040 19.3195
L49.2040 19.6219
" />
<path d="M49.2040 19.6219
L49.1435 19.8638
" />
<path d="M49.1435 19.8638
L49.0830 19.9848
" />
<path d="M49.0830 19.9848
L49.0225 20.0453
" />
<path d="M49.0225 20.0453
L48.9016 20.1057
" />
<path d="M48.9016 20.1057
L48.7806 20.1057
" />
<path d="M48.7806 20.1057
L48.6597 20.0453
" />
<path d="M48.6597 20.0453
L48.5992 19.9848
" />
<path d="M48.5992 19.9848
L48.5387 19.8638
" />
<path d="M48.5387 19.8638
L48.4783 19.6219
" />
<path d="M48.4783 19.6219
L48.4783 19.3195
" />
<path d="M48.4783 19.3195
L48.5387 19.0776
" />
<path d="M48.5387 19.0776
L48.5992 18.9567
" />
<path d="M48.5992 18.9567
L48.6597 18.8962
" />
<path d="M48.6597 18.8962
L48.7806 18.8357
" />
</g></g>
<g style="fill:none; 
stroke:#840000; stroke-width:0.1524; stroke-opacity:1; 
stroke-linecap:round; stroke-linejoin:round;">
<path d="M45.6964 17.9832
L50.7764 17.9832
" />
</g>
<g style="fill:none; 
stroke:#006464; stroke-width:0.1524; stroke-opacity:1; 
stroke-linecap:round; stroke-linejoin:round;">
<text x="44.6804" y="18.6182"
textLength="3.7108" font-size="1.6933" lengthAdjust="spacingAndGlyphs"
text-anchor="end" opacity="0" stroke-opacity="0">3V3</text>
<g class="stroked-text"><desc>3V3</desc>
<path d="M41.2540 17.2927
L42.0402 17.2927
" />
<path d="M42.0402 17.2927
L41.6168 17.7765
" />
<path d="M41.6168 17.7765
L41.7983 17.7765
" />
<path d="M41.7983 17.7765
L41.9192 17.8370
" />
<path d="M41.9192 17.8370
L41.9797 17.8975
" />
<path d="M41.9797 17.8975
L42.0402 18.0184
" />
<path d="M42.0402 18.0184
L42.0402 18.3208
" />
<path d="M42.0402 18.3208
L41.9797 18.4418
" />
<path d="M41.9797 18.4418
L41.9192 18.5023
" />
<path d="M41.9192 18.5023
L41.7983 18.5627
" />
<path d="M41.7983 18.5627
L41.4354 18.5627
" />
<path d="M41.4354 18.5627
L41.3145 18.5023
" />
<path d="M41.3145 18.5023
L41.2540 18.4418
" />
<path d="M42.4030 17.2927
L42.8263 18.5627
" />
<path d="M42.8263 18.5627
L43.2497 17.2927
" />
<path d="M43.5521 17.2927
L44.3383 17.2927
" />
<path d="M44.3383 17.2927
L43.9149 17.7765
" />
<path d="M43.9149 17.7765
L44.0964 17.7765
" />
<path d="M44.0964 17.7765
L44.2173 17.8370
" />
<path d="M44.2173 17.8370
L44.2778 17.8975
" />
<path d="M44.2778 17.8975
L44.3383 18.0184
" />
<path d="M44.3383 18.0184
L44.3383 18.3208
" />
<path d="M44.3383 18.3208
L44.2778 18.4418
" />
<path d="M44.2778 18.4418
L44.2173 18.5023
" />
<path d="M44.2173 18.5023
L44.0964 18.5627
" />
<path d="M44.0964 18.5627
L43.7335 18.5627
" />
<path d="M43.7335 18.5627
L43.6126 18.5023
" />
<path d="M43.6126 18.5023
L43.5521 18.4418
" />
</g></g>
<g style="fill:none; 
stroke:#A90000; stroke-width:0.1524; stroke-opacity:1; 
stroke-linecap:round; stroke-linejoin:round;">
<text x="48.2364" y="17.7292"
textLength="2.6222" font-size="1.6933" lengthAdjust="spacingAndGlyphs"
text-anchor="middle" opacity="0" stroke-opacity="0">21</text>
<g class="stroked-text"><desc>21</desc>
<path d="M47.2688 16.4167
L47.3292 16.3562
" />
<path d="M47.3292 16.3562
L47.4502 16.2957
" />
<path d="M47.4502 16.2957
L47.7526 16.2957
" />
<path d="M47.7526 16.2957
L47.8735 16.3562
" />
<path d="M47.8735 16.3562
L47.9340 16.4167
" />
<path d="M47.9340 16.4167
L47.9945 16.5376
" />
<path d="M47.9945 16.5376
L47.9945 16.6586
" />
<path d="M47.9945 16.6586
L47.9340 16.8400
" />
<path d="M47.9340 16.8400
L47.2083 17.5657
" />
<path d="M47.2083 17.5657
L47.9945 17.5657
" />
<path d="M49.2040 17.5657
L48.4783 17.5657
" />
<path d="M48.8411 17.5657
L48.8411 16.2957
" />
<path d="M48.8411 16.2957
L48.7202 16.4772
" />
<path d="M48.7202 16.4772
L48.5992 16.5981
" />
<path d="M48.5992 16.5981
L48.4783 16.6586
" />
</g></g>
<g style="fill:none; 
stroke:#840000; stroke-width:0.1524; stroke-opacity:1; 
stroke-linecap:round; stroke-linejoin:round;">
<path d="M45.6964 15.4432
L50.7764 15.4432
" />
</g>
<g style="fill:none; 
stroke:#006464; stroke-width:0.1524; stroke-opacity:1; 
stroke-linecap:round; stroke-linejoin:round;">
<text x="44.6804" y="16.0782"
textLength="3.6503" font-size="1.6933" lengthAdjust="spacingAndGlyphs"
text-anchor="end" opacity="0" stroke-opacity="0">~{RST}</text>
<g class="stroked-text"><desc>~{RST}</desc>
<path d="M42.1611 16.0227
L41.7378 15.4180
" />
<path d="M41.4354 16.0227
L41.4354 14.7527
" />
<path d="M41.4354 14.7527
L41.9192 14.7527
" />
<path d="M41.9192 14.7527
L42.0402 14.8132
" />
<path d="M42.0402 14.8132
L42.1007 14.8737
" />
<path d="M42.1007 14.8737
L42.1611 14.9946
" />
<path d="M42.1611 14.9946
L42.1611 15.1761
" />
<path d="M42.1611 15.1761
L42.1007 15.2970
" />
<path d="M42.1007 15.2970
L42.0402 15.3575
" />
<path d="M42.0402 15.3575
L41.9192 15.4180
" />
<path d="M41.9192 15.4180
L41.4354 15.4180
" />
<path d="M42.6450 15.9623
L42.8264 16.0227
" />
<path d="M42.8264 16.0227
L43.1288 16.0227
" />
<path d="M43.1288 16.0227
L43.2497 15.9623
" />
<path d="M43.2497 15.9623
L43.3102 15.9018
" />
<path d="M43.3102 15.9018
L43.3707 15.7808
" />
<path d="M43.3707 15.7808
L43.3707 15.6599
" />
<path d="M43.3707 15.6599
L43.3102 15.5389
" />
<path d="M43.3102 15.5389
L43.2497 15.4784
" />
<path d="M43.2497 15.4784
L43.1288 15.4180
" />
<path d="M43.1288 15.4180
L42.8869 15.3575
" />
<path d="M42.8869 15.3575
L42.7659 15.2970
" />
<path d="M42.7659 15.2970
L42.7054 15.2365
" />
<path d="M42.7054 15.2365
L42.6450 15.1156
" />
<path d="M42.6450 15.1156
L42.6450 14.9946
" />
<path d="M42.6450 14.9946
L42.7054 14.8737
" />
<path d="M42.7054 14.8737
L42.7659 14.8132
" />
<path d="M42.7659 14.8132
L42.8869 14.7527
" />
<path d="M42.8869 14.7527
L43.1892 14.7527
" />
<path d="M43.1892 14.7527
L43.3707 14.8132
" />
<path d="M43.7335 14.7527
L44.4592 14.7527
" />
<path d="M44.0964 16.0227
L44.0964 14.7527
" />
<path d="M41.2601 14.4002
L44.4532 14.4002
" />
</g></g>
<g style="fill:none; 
stroke:#A90000; stroke-width:0.1524; stroke-opacity:1; 
stroke-linecap:round; stroke-linejoin:round;">
<text x="48.2364" y="15.1892"
textLength="2.6222" font-size="1.6933" lengthAdjust="spacingAndGlyphs"
text-anchor="middle" opacity="0" stroke-opacity="0">22</text>
<g class="stroked-text"><desc>22</desc>
<path d="M47.2688 13.8767
L47.3292 13.8162
" />
<path d="M47.3292 13.8162
L47.4502 13.7557
" />
<path d="M47.4502 13.7557
L47.7526 13.7557
" />
<path d="M47.7526 13.7557
L47.8735 13.8162
" />
<path d="M47.8735 13.8162
L47.9340 13.8767
" />
<path d="M47.9340 13.8767
L47.9945 13.9976
" />
<path d="M47.9945 13.9976
L47.9945 14.1186
" />
<path d="M47.9945 14.1186
L47.9340 14.3000
" />
<path d="M47.9340 14.3000
L47.2083 15.0257
" />
<path d="M47.2083 15.0257
L47.9945 15.0257
" />
<path d="M48.4783 13.8767
L48.5387 13.8162
" />
<path d="M48.5387 13.8162
L48.6597 13.7557
" />
<path d="M48.6597 13.7557
L48.9621 13.7557
" />
<path d="M48.9621 13.7557
L49.0830 13.8162
" />
<path d="M49.0830 13.8162
L49.1435 13.8767
" />
<path d="M49.1435 13.8767
L49.2040 13.9976
" />
<path d="M49.2040 13.9976
L49.2040 14.1186
" />
<path d="M49.2040 14.1186
L49.1435 14.3000
" />
<path d="M49.1435 14.3000
L48.4178 15.0257
" />
<path d="M48.4178 15.0257
L49.2040 15.0257
" />
</g></g>
<g style="fill:none; 
stroke:#840000; stroke-width:0.1524; stroke-opacity:1; 
stroke-linecap:round; stroke-linejoin:round;">
<path d="M45.6964 12.9032
L50.7764 12.9032
" />
</g>
<g style="fill:none; 
stroke:#006464; stroke-width:0.1524; stroke-opacity:1; 
stroke-linecap:round; stroke-linejoin:round;">
<text x="44.6804" y="13.5382"
textLength="4.0737" font-size="1.6933" lengthAdjust="spacingAndGlyphs"
text-anchor="end" opacity="0" stroke-opacity="0">GND</text>
<g class="stroked-text"><desc>GND</desc>
<path d="M41.6773 12.2732
L41.5563 12.2127
" />
<path d="M41.5563 12.2127
L41.3749 12.2127
" />
<path d="M41.3749 12.2127
L41.1935 12.2732
" />
<path d="M41.1935 12.2732
L41.0725 12.3942
" />
<path d="M41.0725 12.3942
L41.0120 12.5151
" />
<path d="M41.0120 12.5151
L40.9516 12.7570
" />
<path d="M40.9516 12.7570
L40.9516 12.9384
" />
<path d="M40.9516 12.9384
L41.0120 13.1803
" />
<path d="M41.0120 13.1803
L41.0725 13.3013
" />
<path d="M41.0725 13.3013
L41.1935 13.4223
" />
<path d="M41.1935 13.4223
L41.3749 13.4827
" />
<path d="M41.3749 13.4827
L41.4958 13.4827
" />
<path d="M41.4958 13.4827
L41.6773 13.4223
" />
<path d="M41.6773 13.4223
L41.7377 13.3618
" />
<path d="M41.7377 13.3618
L41.7377 12.9384
" />
<path d="M41.7377 12.9384
L41.4958 12.9384
" />
<path d="M42.2820 13.4827
L42.2820 12.2127
" />
<path d="M42.2820 12.2127
L43.0077 13.4827
" />
<path d="M43.0077 13.4827
L43.0077 12.2127
" />
<path d="M43.6125 13.4827
L43.6125 12.2127
" />
<path d="M43.6125 12.2127
L43.9149 12.2127
" />
<path d="M43.9149 12.2127
L44.0963 12.2732
" />
<path d="M44.0963 12.2732
L44.2173 12.3942
" />
<path d="M44.2173 12.3942
L44.2778 12.5151
" />
<path d="M44.2778 12.5151
L44.3382 12.7570
" />
<path d="M44.3382 12.7570
L44.3382 12.9384
" />
<path d="M44.3382 12.9384
L44.2778 13.1803
" />
<path d="M44.2778 13.1803
L44.2173 13.3013
" />
<path d="M44.2173 13.3013
L44.0963 13.4223
" />
<path d="M44.0963 13.4223
L43.9149 13.4827
" />
<path d="M43.9149 13.4827
L43.6125 13.4827
" />
</g></g>
<g style="fill:none; 
stroke:#A90000; stroke-width:0.1524; stroke-opacity:1; 
stroke-linecap:round; stroke-linejoin:round;">
<text x="48.2364" y="12.6492"
textLength="2.6222" font-size="1.6933" lengthAdjust="spacingAndGlyphs"
text-anchor="middle" opacity="0" stroke-opacity="0">23</text>
<g class="stroked-text"><desc>23</desc>
<path d="M47.2688 11.3367
L47.3292 11.2762
" />
<path d="M47.3292 11.2762
L47.4502 11.2157
" />
<path d="M47.4502 11.2157
L47.7526 11.2157
" />
<path d="M47.7526 11.2157
L47.8735 11.2762
" />
<path d="M47.8735 11.2762
L47.9340 11.3367
" />
<path d="M47.9340 11.3367
L47.9945 11.4576
" />
<path d="M47.9945 11.4576
L47.9945 11.5786
" />
<path d="M47.9945 11.5786
L47.9340 11.7600
" />
<path d="M47.9340 11.7600
L47.2083 12.4857
" />
<path d="M47.2083 12.4857
L47.9945 12.4857
" />
<path d="M48.4178 11.2157
L49.2040 11.2157
" />
<path d="M49.2040 11.2157
L48.7806 11.6995
" />
<path d="M48.7806 11.6995
L48.9621 11.6995
" />
<path d="M48.9621 11.6995
L49.0830 11.7600
" />
<path d="M49.0830 11.7600
L49.1435 11.8205
" />
<path d="M49.1435 11.8205
L49.2040 11.9414
" />
<path d="M49.2040 11.9414
L49.2040 12.2438
" />
<path d="M49.2040 12.2438
L49.1435 12.3648
" />
<path d="M49.1435 12.3648
L49.0830 12.4253
" />
<path d="M49.0830 12.4253
L48.9621 12.4857
" />
<path d="M48.9621 12.4857
L48.5992 12.4857
" />
<path d="M48.5992 12.4857
L48.4783 12.4253
" />
<path d="M48.4783 12.4253
L48.4178 12.3648
" />
</g></g>
<g style="fill:none; 
stroke:#840000; stroke-width:0.1524; stroke-opacity:1; 
stroke-linecap:round; stroke-linejoin:round;">
<path d="M45.6964 10.3632
L50.7764 10.3632
" />
</g>
<g style="fill:none; 
stroke:#006464; stroke-width:0.1524; stroke-opacity:1; 
stroke-linecap:round; stroke-linejoin:round;">
<text x="44.6804" y="10.9982"
textLength="4.0132" font-size="1.6933" lengthAdjust="spacingAndGlyphs"
text-anchor="end" opacity="0" stroke-opacity="0">RAW</text>
<g class="stroked-text"><desc>RAW</desc>
<path d="M41.7982 10.9427
L41.3749 10.3380
" />
<path d="M41.0725 10.9427
L41.0725 9.6727
" />
<path d="M41.0725 9.6727
L41.5563 9.6727
" />
<path d="M41.5563 9.6727
L41.6773 9.7332
" />
<path d="M41.6773 9.7332
L41.7378 9.7937
" />
<path d="M41.7378 9.7937
L41.7982 9.9146
" />
<path d="M41.7982 9.9146
L41.7982 10.0961
" />
<path d="M41.7982 10.0961
L41.7378 10.2170
" />
<path d="M41.7378 10.2170
L41.6773 10.2775
" />
<path d="M41.6773 10.2775
L41.5563 10.3380
" />
<path d="M41.5563 10.3380
L41.0725 10.3380
" />
<path d="M42.2821 10.5799
L42.8868 10.5799
" />
<path d="M42.1611 10.9427
L42.5844 9.6727
" />
<path d="M42.5844 9.6727
L43.0078 10.9427
" />
<path d="M43.3102 9.6727
L43.6126 10.9427
" />
<path d="M43.6126 10.9427
L43.8545 10.0356
" />
<path d="M43.8545 10.0356
L44.0964 10.9427
" />
<path d="M44.0964 10.9427
L44.3988 9.6727
" />
</g></g>
<g style="fill:none; 
stroke:#A90000; stroke-width:0.1524; stroke-opacity:1; 
stroke-linecap:round; stroke-linejoin:round;">
<text x="48.2364" y="10.1092"
textLength="2.6222" font-size="1.6933" lengthAdjust="spacingAndGlyphs"
text-anchor="middle" opacity="0" stroke-opacity="0">24</text>
<g class="stroked-text"><desc>24</desc>
<path d="M47.2688 8.7967
L47.3292 8.7362
" />
<path d="M47.3292 8.7362
L47.4502 8.6757
" />
<path d="M47.4502 8.6757
L47.7526 8.6757
" />
<path d="M47.7526 8.6757
L47.8735 8.7362
" />
<path d="M47.8735 8.7362
L47.9340 8.7967
" />
<path d="M47.9340 8.7967
L47.9945 8.9176
" />
<path d="M47.9945 8.9176
L47.9945 9.0386
" />
<path d="M47.9945 9.0386
L47.9340 9.2200
" />
<path d="M47.9340 9.2200
L47.2083 9.9457
" />
<path d="M47.2083 9.9457
L47.9945 9.9457
" />
<path d="M49.0830 9.0991
L49.0830 9.9457
" />
<path d="M48.7806 8.6153
L48.4783 9.5224
" />
<path d="M48.4783 9.5224
L49.2644 9.5224
" />
</g></g>
<g style="fill:none; 
stroke:#840000; stroke-width:0.1524; stroke-opacity:1; 
stroke-linecap:round; stroke-linejoin:round;">
<path d="M20.2964 15.4432
L15.2164 15.4432
" />
</g>
<g style="fill:none; 
stroke:#006464; stroke-width:0.1524; stroke-opacity:1; 
stroke-linecap:round; stroke-linejoin:round;">
<text x="21.3124" y="16.0782"
textLength="4.0737" font-size="1.6933" lengthAdjust="spacingAndGlyphs"
text-anchor="start" opacity="0" stroke-opacity="0">GND</text>
<g class="stroked-text"><desc>GND</desc>
<path d="M22.3802 14.8132
L22.2592 14.7527
" />
<path d="M22.2592 14.7527
L22.0778 14.7527
" />
<path d="M22.0778 14.7527
L21.8964 14.8132
" />
<path d="M21.8964 14.8132
L21.7754 14.9342
" />
<path d="M21.7754 14.9342
L21.7149 15.0551
" />
<path d="M21.7149 15.0551
L21.6545 15.2970
" />
<path d="M21.6545 15.2970
L21.6545 15.4784
" />
<path d="M21.6545 15.4784
L21.7149 15.7203
" />
<path d="M21.7149 15.7203
L21.7754 15.8413
" />
<path d="M21.7754 15.8413
L21.8964 15.9623
" />
<path d="M21.8964 15.9623
L22.0778 16.0227
" />
<path d="M22.0778 16.0227
L22.1987 16.0227
" />
<path d="M22.1987 16.0227
L22.3802 15.9623
" />
<path d="M22.3802 15.9623
L22.4406 15.9018
" />
<path d="M22.4406 15.9018
L22.4406 15.4784
" />
<path d="M22.4406 15.4784
L22.1987 15.4784
" />
<path d="M22.9849 16.0227
L22.9849 14.7527
" />
<path d="M22.9849 14.7527
L23.7106 16.0227
" />
<path d="M23.7106 16.0227
L23.7106 14.7527
" />
<path d="M24.3154 16.0227
L24.3154 14.7527
" />
<path d="M24.3154 14.7527
L24.6178 14.7527
" />
<path d="M24.6178 14.7527
L24.7992 14.8132
" />
<path d="M24.7992 14.8132
L24.9202 14.9342
" />
<path d="M24.9202 14.9342
L24.9807 15.0551
" />
<path d="M24.9807 15.0551
L25.0411 15.2970
" />
<path d="M25.0411 15.2970
L25.0411 15.4784
" />
<path d="M25.0411 15.4784
L24.9807 15.7203
" />
<path d="M24.9807 15.7203
L24.9202 15.8413
" />
<path d="M24.9202 15.8413
L24.7992 15.9623
" />
<path d="M24.7992 15.9623
L24.6178 16.0227
" />
<path d="M24.6178 16.0227
L24.3154 16.0227
" />
</g></g>
<g style="fill:none; 
stroke:#A90000; stroke-width:0.1524; stroke-opacity:1; 
stroke-linecap:round; stroke-linejoin:round;">
<text x="17.7564" y="15.1892"
textLength="1.4127" font-size="1.6933" lengthAdjust="spacingAndGlyphs"
text-anchor="middle" opacity="0" stroke-opacity="0">3</text>
<g class="stroked-text"><desc>3</desc>
<path d="M17.3331 13.7557
L18.1193 13.7557
" />
<path d="M18.1193 13.7557
L17.6959 14.2395
" />
<path d="M17.6959 14.2395
L17.8774 14.2395
" />
<path d="M17.8774 14.2395
L17.9983 14.3000
" />
<path d="M17.9983 14.3000
L18.0588 14.3605
" />
<path d="M18.0588 14.3605
L18.1193 14.4814
" />
<path d="M18.1193 14.4814
L18.1193 14.7838
" />
<path d="M18.1193 14.7838
L18.0588 14.9048
" />
<path d="M18.0588 14.9048
L17.9983 14.9653
" />
<path d="M17.9983 14.9653
L17.8774 15.0257
" />
<path d="M17.8774 15.0257
L17.5145 15.0257
" />
<path d="M17.5145 15.0257
L17.3936 14.9653
" />
<path d="M17.3936 14.9653
L17.3331 14.9048
" />
</g></g>
<g style="fill:none; 
stroke:#840000; stroke-width:0.1524; stroke-opacity:1; 
stroke-linecap:round; stroke-linejoin:round;">
<path d="M20.2964 17.9832
L15.2164 17.9832
" />
</g>
<g style="fill:none; 
stroke:#006464; stroke-width:0.1524; stroke-opacity:1; 
stroke-linecap:round; stroke-linejoin:round;">
<text x="21.3124" y="18.6182"
textLength="4.0737" font-size="1.6933" lengthAdjust="spacingAndGlyphs"
text-anchor="start" opacity="0" stroke-opacity="0">GND</text>
<g class="stroked-text"><desc>GND</desc>
<path d="M22.3802 17.3532
L22.2592 17.2927
" />
<path d="M22.2592 17.2927
L22.0778 17.2927
" />
<path d="M22.0778 17.2927
L21.8964 17.3532
" />
<path d="M21.8964 17.3532
L21.7754 17.4742
" />
<path d="M21.7754 17.4742
L21.7149 17.5951
" />
<path d="M21.7149 17.5951
L21.6545 17.8370
" />
<path d="M21.6545 17.8370
L21.6545 18.0184
" />
<path d="M21.6545 18.0184
L21.7149 18.2603
" />
<path d="M21.7149 18.2603
L21.7754 18.3813
" />
<path d="M21.7754 18.3813
L21.8964 18.5023
" />
<path d="M21.8964 18.5023
L22.0778 18.5627
" />
<path d="M22.0778 18.5627
L22.1987 18.5627
" />
<path d="M22.1987 18.5627
L22.3802 18.5023
" />
<path d="M22.3802 18.5023
L22.4406 18.4418
" />
<path d="M22.4406 18.4418
L22.4406 18.0184
" />
<path d="M22.4406 18.0184
L22.1987 18.0184
" />
<path d="M22.9849 18.5627
L22.9849 17.2927
" />
<path d="M22.9849 17.2927
L23.7106 18.5627
" />
<path d="M23.7106 18.5627
L23.7106 17.2927
" />
<path d="M24.3154 18.5627
L24.3154 17.2927
" />
<path d="M24.3154 17.2927
L24.6178 17.2927
" />
<path d="M24.6178 17.2927
L24.7992 17.3532
" />
<path d="M24.7992 17.3532
L24.9202 17.4742
" />
<path d="M24.9202 17.4742
L24.9807 17.5951
" />
<path d="M24.9807 17.5951
L25.0411 17.8370
" />
<path d="M25.0411 17.8370
L25.0411 18.0184
" />
<path d="M25.0411 18.0184
L24.9807 18.2603
" />
<path d="M24.9807 18.2603
L24.9202 18.3813
" />
<path d="M24.9202 18.3813
L24.7992 18.5023
" />
<path d="M24.7992 18.5023
L24.6178 18.5627
" />
<path d="M24.6178 18.5627
L24.3154 18.5627
" />
</g></g>
<g style="fill:none; 
stroke:#A90000; stroke-width:0.1524; stroke-opacity:1; 
stroke-linecap:round; stroke-linejoin:round;">
<text x="17.7564" y="17.7292"
textLength="1.4127" font-size="1.6933" lengthAdjust="spacingAndGlyphs"
text-anchor="middle" opacity="0" stroke-opacity="0">4</text>
<g class="stroked-text"><desc>4</desc>
<path d="M17.9983 16.7191
L17.9983 17.5657
" />
<path d="M17.6959 16.2353
L17.3936 17.1424
" />
<path d="M17.3936 17.1424
L18.1797 17.1424
" />
</g></g>
<g style="fill:none; 
stroke:#840000; stroke-width:0.1524; stroke-opacity:1; 
stroke-linecap:round; stroke-linejoin:round;">
<path d="M20.2964 20.5232
L15.2164 20.5232
" />
</g>
<g style="fill:none; 
stroke:#006464; stroke-width:0.1524; stroke-opacity:1; 
stroke-linecap:round; stroke-linejoin:round;">
<text x="21.3124" y="21.1582"
textLength="7.5813" font-size="1.6933" lengthAdjust="spacingAndGlyphs"
text-anchor="start" opacity="0" stroke-opacity="0">D2/SDA</text>
<g class="stroked-text"><desc>D2/SDA</desc>
<path d="M21.7149 21.1027
L21.7149 19.8327
" />
<path d="M21.7149 19.8327
L22.0173 19.8327
" />
<path d="M22.0173 19.8327
L22.1987 19.8932
" />
<path d="M22.1987 19.8932
L22.3197 20.0142
" />
<path d="M22.3197 20.0142
L22.3802 20.1351
" />
<path d="M22.3802 20.1351
L22.4406 20.3770
" />
<path d="M22.4406 20.3770
L22.4406 20.5584
" />
<path d="M22.4406 20.5584
L22.3802 20.8003
" />
<path d="M22.3802 20.8003
L22.3197 20.9213
" />
<path d="M22.3197 20.9213
L22.1987 21.0423
" />
<path d="M22.1987 21.0423
L22.0173 21.1027
" />
<path d="M22.0173 21.1027
L21.7149 21.1027
" />
<path d="M22.9245 19.9537
L22.9849 19.8932
" />
<path d="M22.9849 19.8932
L23.1059 19.8327
" />
<path d="M23.1059 19.8327
L23.4083 19.8327
" />
<path d="M23.4083 19.8327
L23.5292 19.8932
" />
<path d="M23.5292 19.8932
L23.5897 19.9537
" />
<path d="M23.5897 19.9537
L23.6502 20.0746
" />
<path d="M23.6502 20.0746
L23.6502 20.1956
" />
<path d="M23.6502 20.1956
L23.5897 20.3770
" />
<path d="M23.5897 20.3770
L22.8640 21.1027
" />
<path d="M22.8640 21.1027
L23.6502 21.1027
" />
<path d="M25.1016 19.7723
L24.0130 21.4051
" />
<path d="M25.4645 21.0423
L25.6459 21.1027
" />
<path d="M25.6459 21.1027
L25.9483 21.1027
" />
<path d="M25.9483 21.1027
L26.0692 21.0423
" />
<path d="M26.0692 21.0423
L26.1297 20.9818
" />
<path d="M26.1297 20.9818
L26.1902 20.8608
" />
<path d="M26.1902 20.8608
L26.1902 20.7399
" />
<path d="M26.1902 20.7399
L26.1297 20.6189
" />
<path d="M26.1297 20.6189
L26.0692 20.5584
" />
<path d="M26.0692 20.5584
L25.9483 20.4980
" />
<path d="M25.9483 20.4980
L25.7064 20.4375
" />
<path d="M25.7064 20.4375
L25.5854 20.3770
" />
<path d="M25.5854 20.3770
L25.5249 20.3165
" />
<path d="M25.5249 20.3165
L25.4645 20.1956
" />
<path d="M25.4645 20.1956
L25.4645 20.0746
" />
<path d="M25.4645 20.0746
L25.5249 19.9537
" />
<path d="M25.5249 19.9537
L25.5854 19.8932
" />
<path d="M25.5854 19.8932
L25.7064 19.8327
" />
<path d="M25.7064 19.8327
L26.0087 19.8327
" />
<path d="M26.0087 19.8327
L26.1902 19.8932
" />
<path d="M26.7344 21.1027
L26.7344 19.8327
" />
<path d="M26.7344 19.8327
L27.0368 19.8327
" />
<path d="M27.0368 19.8327
L27.2182 19.8932
" />
<path d="M27.2182 19.8932
L27.3392 20.0142
" />
<path d="M27.3392 20.0142
L27.3997 20.1351
" />
<path d="M27.3997 20.1351
L27.4601 20.3770
" />
<path d="M27.4601 20.3770
L27.4601 20.5584
" />
<path d="M27.4601 20.5584
L27.3997 20.8003
" />
<path d="M27.3997 20.8003
L27.3392 20.9213
" />
<path d="M27.3392 20.9213
L27.2182 21.0423
" />
<path d="M27.2182 21.0423
L27.0368 21.1027
" />
<path d="M27.0368 21.1027
L26.7344 21.1027
" />
<path d="M27.9440 20.7399
L28.5487 20.7399
" />
<path d="M27.8230 21.1027
L28.2463 19.8327
" />
<path d="M28.2463 19.8327
L28.6697 21.1027
" />
</g></g>
<g style="fill:none; 
stroke:#A90000; stroke-width:0.1524; stroke-opacity:1; 
stroke-linecap:round; stroke-linejoin:round;">
<text x="17.7564" y="20.2692"
textLength="1.4127" font-size="1.6933" lengthAdjust="spacingAndGlyphs"
text-anchor="middle" opacity="0" stroke-opacity="0">5</text>
<g class="stroked-text"><desc>5</desc>
<path d="M18.0588 18.8357
L17.4540 18.8357
" />
<path d="M17.4540 18.8357
L17.3936 19.4405
" />
<path d="M17.3936 19.4405
L17.4540 19.3800
" />
<path d="M17.4540 19.3800
L17.5750 19.3195
" />
<path d="M17.5750 19.3195
L17.8774 19.3195
" />
<path d="M17.8774 19.3195
L17.9983 19.3800
" />
<path d="M17.9983 19.3800
L18.0588 19.4405
" />
<path d="M18.0588 19.4405
L18.1193 19.5614
" />
<path d="M18.1193 19.5614
L18.1193 19.8638
" />
<path d="M18.1193 19.8638
L18.0588 19.9848
" />
<path d="M18.0588 19.9848
L17.9983 20.0453
" />
<path d="M17.9983 20.0453
L17.8774 20.1057
" />
<path d="M17.8774 20.1057
L17.5750 20.1057
" />
<path d="M17.5750 20.1057
L17.4540 20.0453
" />
<path d="M17.4540 20.0453
L17.3936 19.9848
" />
</g></g>
<g style="fill:none; 
stroke:#840000; stroke-width:0.1524; stroke-opacity:1; 
stroke-linecap:round; stroke-linejoin:round;">
<path d="M20.2964 23.0632
L15.2164 23.0632
" />
</g>
<g style="fill:none; 
stroke:#006464; stroke-width:0.1524; stroke-opacity:1; 
stroke-linecap:round; stroke-linejoin:round;">
<text x="21.3124" y="23.6982"
textLength="7.5208" font-size="1.6933" lengthAdjust="spacingAndGlyphs"
text-anchor="start" opacity="0" stroke-opacity="0">D3/SCL</text>
<g class="stroked-text"><desc>D3/SCL</desc>
<path d="M21.7149 23.6427
L21.7149 22.3727
" />
<path d="M21.7149 22.3727
L22.0173 22.3727
" />
<path d="M22.0173 22.3727
L22.1987 22.4332
" />
<path d="M22.1987 22.4332
L22.3197 22.5542
" />
<path d="M22.3197 22.5542
L22.3802 22.6751
" />
<path d="M22.3802 22.6751
L22.4406 22.9170
" />
<path d="M22.4406 22.9170
L22.4406 23.0984
" />
<path d="M22.4406 23.0984
L22.3802 23.3403
" />
<path d="M22.3802 23.3403
L22.3197 23.4613
" />
<path d="M22.3197 23.4613
L22.1987 23.5823
" />
<path d="M22.1987 23.5823
L22.0173 23.6427
" />
<path d="M22.0173 23.6427
L21.7149 23.6427
" />
<path d="M22.8640 22.3727
L23.6502 22.3727
" />
<path d="M23.6502 22.3727
L23.2268 22.8565
" />
<path d="M23.2268 22.8565
L23.4083 22.8565
" />
<path d="M23.4083 22.8565
L23.5292 22.9170
" />
<path d="M23.5292 22.9170
L23.5897 22.9775
" />
<path d="M23.5897 22.9775
L23.6502 23.0984
" />
<path d="M23.6502 23.0984
L23.6502 23.4008
" />
<path d="M23.6502 23.4008
L23.5897 23.5218
" />
<path d="M23.5897 23.5218
L23.5292 23.5823
" />
<path d="M23.5292 23.5823
L23.4083 23.6427
" />
<path d="M23.4083 23.6427
L23.0454 23.6427
" />
<path d="M23.0454 23.6427
L22.9245 23.5823
" />
<path d="M22.9245 23.5823
L22.8640 23.5218
" />
<path d="M25.1016 22.3123
L24.0130 23.9451
" />
<path d="M25.4645 23.5823
L25.6459 23.6427
" />
<path d="M25.6459 23.6427
L25.9483 23.6427
" />
<path d="M25.9483 23.6427
L26.0692 23.5823
" />
<path d="M26.0692 23.5823
L26.1297 23.5218
" />
<path d="M26.1297 23.5218
L26.1902 23.4008
" />
<path d="M26.1902 23.4008
L26.1902 23.2799
" />
<path d="M26.1902 23.2799
L26.1297 23.1589
" />
<path d="M26.1297 23.1589
L26.0692 23.0984
" />
<path d="M26.0692 23.0984
L25.9483 23.0380
" />
<path d="M25.9483 23.0380
L25.7064 22.9775
" />
<path d="M25.7064 22.9775
L25.5854 22.9170
" />
<path d="M25.5854 22.9170
L25.5249 22.8565
" />
<path d="M25.5249 22.8565
L25.4645 22.7356
" />
<path d="M25.4645 22.7356
L25.4645 22.6146
" />
<path d="M25.4645 22.6146
L25.5249 22.4937
" />
<path d="M25.5249 22.4937
L25.5854 22.4332
" />
<path d="M25.5854 22.4332
L25.7064 22.3727
" />
<path d="M25.7064 22.3727
L26.0087 22.3727
" />
<path d="M26.0087 22.3727
L26.1902 22.4332
" />
<path d="M27.4601 23.5218
L27.3997 23.5823
" />
<path d="M27.3997 23.5823
L27.2182 23.6427
" />
<path d="M27.2182 23.6427
L27.0973 23.6427
" />
<path d="M27.0973 23.6427
L26.9159 23.5823
" />
<path d="M26.9159 23.5823
L26.7949 23.4613
" />
<path d="M26.7949 23.4613
L26.7344 23.3403
" />
<path d="M26.7344 23.3403
L26.6740 23.0984
" />
<path d="M26.6740 23.0984
L26.6740 22.9170
" />
<path d="M26.6740 22.9170
L26.7344 22.6751
" />
<path d="M26.7344 22.6751
L26.7949 22.5542
" />
<path d="M26.7949 22.5542
L26.9159 22.4332
" />
<path d="M26.9159 22.4332
L27.0973 22.3727
" />
<path d="M27.0973 22.3727
L27.2182 22.3727
" />
<path d="M27.2182 22.3727
L27.3997 22.4332
" />
<path d="M27.3997 22.4332
L27.4601 22.4937
" />
<path d="M28.6092 23.6427
L28.0044 23.6427
" />
<path d="M28.0044 23.6427
L28.0044 22.3727
" />
</g></g>
<g style="fill:none; 
stroke:#A90000; stroke-width:0.1524; stroke-opacity:1; 
stroke-linecap:round; stroke-linejoin:round;">
<text x="17.7564" y="22.8092"
textLength="1.4127" font-size="1.6933" lengthAdjust="spacingAndGlyphs"
text-anchor="middle" opacity="0" stroke-opacity="0">6</text>
<g class="stroked-text"><desc>6</desc>
<path d="M17.9983 21.3757
L17.7564 21.3757
" />
<path d="M17.7564 21.3757
L17.6355 21.4362
" />
<path d="M17.6355 21.4362
L17.5750 21.4967
" />
<path d="M17.5750 21.4967
L17.4540 21.6781
" />
<path d="M17.4540 21.6781
L17.3936 21.9200
" />
<path d="M17.3936 21.9200
L17.3936 22.4038
" />
<path d="M17.3936 22.4038
L17.4540 22.5248
" />
<path d="M17.4540 22.5248
L17.5145 22.5853
" />
<path d="M17.5145 22.5853
L17.6355 22.6457
" />
<path d="M17.6355 22.6457
L17.8774 22.6457
" />
<path d="M17.8774 22.6457
L17.9983 22.5853
" />
<path d="M17.9983 22.5853
L18.0588 22.5248
" />
<path d="M18.0588 22.5248
L18.1193 22.4038
" />
<path d="M18.1193 22.4038
L18.1193 22.1014
" />
<path d="M18.1193 22.1014
L18.0588 21.9805
" />
<path d="M18.0588 21.9805
L17.9983 21.9200
" />
<path d="M17.9983 21.9200
L17.8774 21.8595
" />
<path d="M17.8774 21.8595
L17.6355 21.8595
" />
<path d="M17.6355 21.8595
L17.5145 21.9200
" />
<path d="M17.5145 21.9200
L17.4540 21.9805
" />
<path d="M17.4540 21.9805
L17.3936 22.1014
" />
</g></g>
<g style="fill:none; 
stroke:#840000; stroke-width:0.1524; stroke-opacity:1; 
stroke-linecap:round; stroke-linejoin:round;">
<path d="M20.2964 25.6032
L15.2164 25.6032
" />
</g>
<g style="fill:none; 
stroke:#006464; stroke-width:0.1524; stroke-opacity:1; 
stroke-linecap:round; stroke-linejoin:round;">
<text x="21.3124" y="26.2382"
textLength="2.6827" font-size="1.6933" lengthAdjust="spacingAndGlyphs"
text-anchor="start" opacity="0" stroke-opacity="0">D4</text>
<g class="stroked-text"><desc>D4</desc>
<path d="M21.7149 26.1827
L21.7149 24.9127
" />
<path d="M21.7149 24.9127
L22.0173 24.9127
" />
<path d="M22.0173 24.9127
L22.1987 24.9732
" />
<path d="M22.1987 24.9732
L22.3197 25.0942
" />
<path d="M22.3197 25.0942
L22.3802 25.2151
" />
<path d="M22.3802 25.2151
L22.4406 25.4570
" />
<path d="M22.4406 25.4570
L22.4406 25.6384
" />
<path d="M22.4406 25.6384
L22.3802 25.8803
" />
<path d="M22.3802 25.8803
L22.3197 26.0013
" />
<path d="M22.3197 26.0013
L22.1987 26.1223
" />
<path d="M22.1987 26.1223
L22.0173 26.1827
" />
<path d="M22.0173 26.1827
L21.7149 26.1827
" />
<path d="M23.5292 25.3361
L23.5292 26.1827
" />
<path d="M23.2268 24.8523
L22.9245 25.7594
" />
<path d="M22.9245 25.7594
L23.7106 25.7594
" />
</g></g>
<g style="fill:none; 
stroke:#A90000; stroke-width:0.1524; stroke-opacity:1; 
stroke-linecap:round; stroke-linejoin:round;">
<text x="17.7564" y="25.3492"
textLength="1.4127" font-size="1.6933" lengthAdjust="spacingAndGlyphs"
text-anchor="middle" opacity="0" stroke-opacity="0">7</text>
<g class="stroked-text"><desc>7</desc>
<path d="M17.3331 23.9157
L18.1797 23.9157
" />
<path d="M18.1797 23.9157
L17.6355 25.1857
" />
</g></g>
<g style="fill:none; 
stroke:#840000; stroke-width:0.1524; stroke-opacity:1; 
stroke-linecap:round; stroke-linejoin:round;">
<path d="M20.2964 28.1432
L15.2164 28.1432
" />
</g>
<g style="fill:none; 
stroke:#006464; stroke-width:0.1524; stroke-opacity:1; 
stroke-linecap:round; stroke-linejoin:round;">
<text x="21.3124" y="28.7782"
textLength="2.6827" font-size="1.6933" lengthAdjust="spacingAndGlyphs"
text-anchor="start" opacity="0" stroke-opacity="0">D5</text>
<g class="stroked-text"><desc>D5</desc>
<path d="M21.7149 28.7227
L21.7149 27.4527
" />
<path d="M21.7149 27.4527
L22.0173 27.4527
" />
<path d="M22.0173 27.4527
L22.1987 27.5132
" />
<path d="M22.1987 27.5132
L22.3197 27.6342
" />
<path d="M22.3197 27.6342
L22.3802 27.7551
" />
<path d="M22.3802 27.7551
L22.4406 27.9970
" />
<path d="M22.4406 27.9970
L22.4406 28.1784
" />
<path d="M22.4406 28.1784
L22.3802 28.4203
" />
<path d="M22.3802 28.4203
L22.3197 28.5413
" />
<path d="M22.3197 28.5413
L22.1987 28.6623
" />
<path d="M22.1987 28.6623
L22.0173 28.7227
" />
<path d="M22.0173 28.7227
L21.7149 28.7227
" />
<path d="M23.5897 27.4527
L22.9849 27.4527
" />
<path d="M22.9849 27.4527
L22.9245 28.0575
" />
<path d="M22.9245 28.0575
L22.9849 27.9970
" />
<path d="M22.9849 27.9970
L23.1059 27.9365
" />
<path d="M23.1059 27.9365
L23.4083 27.9365
" />
<path d="M23.4083 27.9365
L23.5292 27.9970
" />
<path d="M23.5292 27.9970
L23.5897 28.0575
" />
<path d="M23.5897 28.0575
L23.6502 28.1784
" />
<path d="M23.6502 28.1784
L23.6502 28.4808
" />
<path d="M23.6502 28.4808
L23.5897 28.6018
" />
<path d="M23.5897 28.6018
L23.5292 28.6623
" />
<path d="M23.5292 28.6623
L23.4083 28.7227
" />
<path d="M23.4083 28.7227
L23.1059 28.7227
" />
<path d="M23.1059 28.7227
L22.9849 28.6623
" />
<path d="M22.9849 28.6623
L22.9245 28.6018
" />
</g></g>
<g style="fill:none; 
stroke:#A90000; stroke-width:0.1524; stroke-opacity:1; 
stroke-linecap:round; stroke-linejoin:round;">
<text x="17.7564" y="27.8892"
textLength="1.4127" font-size="1.6933" lengthAdjust="spacingAndGlyphs"
text-anchor="middle" opacity="0" stroke-opacity="0">8</text>
<g class="stroked-text"><desc>8</desc>
<path d="M17.6355 27.0000
L17.5145 26.9395
" />
<path d="M17.5145 26.9395
L17.4540 26.8791
" />
<path d="M17.4540 26.8791
L17.3936 26.7581
" />
<path d="M17.3936 26.7581
L17.3936 26.6976
" />
<path d="M17.3936 26.6976
L17.4540 26.5767
" />
<path d="M17.4540 26.5767
L17.5145 26.5162
" />
<path d="M17.5145 26.5162
L17.6355 26.4557
" />
<path d="M17.6355 26.4557
L17.8774 26.4557
" />
<path d="M17.8774 26.4557
L17.9983 26.5162
" />
<path d="M17.9983 26.5162
L18.0588 26.5767
" />
<path d="M18.0588 26.5767
L18.1193 26.6976
" />
<path d="M18.1193 26.6976
L18.1193 26.7581
" />
<path d="M18.1193 26.7581
L18.0588 26.8791
" />
<path d="M18.0588 26.8791
L17.9983 26.9395
" />
<path d="M17.9983 26.9395
L17.8774 27.0000
" />
<path d="M17.8774 27.0000
L17.6355 27.0000
" />
<path d="M17.6355 27.0000
L17.5145 27.0605
" />
<path d="M17.5145 27.0605
L17.4540 27.1210
" />
<path d="M17.4540 27.1210
L17.3936 27.2419
" />
<path d="M17.3936 27.2419
L17.3936 27.4838
" />
<path d="M17.3936 27.4838
L17.4540 27.6048
" />
<path d="M17.4540 27.6048
L17.5145 27.6653
" />
<path d="M17.5145 27.6653
L17.6355 27.7257
" />
<path d="M17.6355 27.7257
L17.8774 27.7257
" />
<path d="M17.8774 27.7257
L17.9983 27.6653
" />
<path d="M17.9983 27.6653
L18.0588 27.6048
" />
<path d="M18.0588 27.6048
L18.1193 27.4838
" />
<path d="M18.1193 27.4838
L18.1193 27.2419
" />
<path d="M18.1193 27.2419
L18.0588 27.1210
" />
<path d="M18.0588 27.1210
L17.9983 27.0605
" />
<path d="M17.9983 27.0605
L17.8774 27.0000
" />
</g></g>
<g style="fill:none; 
stroke:#840000; stroke-width:0.1524; stroke-opacity:1; 
stroke-linecap:round; stroke-linejoin:round;">
<path d="M20.2964 30.6832
L15.2164 30.6832
" />
</g>
<g style="fill:none; 
stroke:#006464; stroke-width:0.1524; stroke-opacity:1; 
stroke-linecap:round; stroke-linejoin:round;">
<text x="21.3124" y="31.3182"
textLength="2.6827" font-size="1.6933" lengthAdjust="spacingAndGlyphs"
text-anchor="start" opacity="0" stroke-opacity="0">D6</text>
<g class="stroked-text"><desc>D6</desc>
<path d="M21.7149 31.2627
L21.7149 29.9927
" />
<path d="M21.7149 29.9927
L22.0173 29.9927
" />
<path d="M22.0173 29.9927
L22.1987 30.0532
" />
<path d="M22.1987 30.0532
L22.3197 30.1742
" />
<path d="M22.3197 30.1742
L22.3802 30.2951
" />
<path d="M22.3802 30.2951
L22.4406 30.5370
" />
<path d="M22.4406 30.5370
L22.4406 30.7184
" />
<path d="M22.4406 30.7184
L22.3802 30.9603
" />
<path d="M22.3802 30.9603
L22.3197 31.0813
" />
<path d="M22.3197 31.0813
L22.1987 31.2023
" />
<path d="M22.1987 31.2023
L22.0173 31.2627
" />
<path d="M22.0173 31.2627
L21.7149 31.2627
" />
<path d="M23.5292 29.9927
L23.2873 29.9927
" />
<path d="M23.2873 29.9927
L23.1664 30.0532
" />
<path d="M23.1664 30.0532
L23.1059 30.1137
" />
<path d="M23.1059 30.1137
L22.9849 30.2951
" />
<path d="M22.9849 30.2951
L22.9245 30.5370
" />
<path d="M22.9245 30.5370
L22.9245 31.0208
" />
<path d="M22.9245 31.0208
L22.9849 31.1418
" />
<path d="M22.9849 31.1418
L23.0454 31.2023
" />
<path d="M23.0454 31.2023
L23.1664 31.2627
" />
<path d="M23.1664 31.2627
L23.4083 31.2627
" />
<path d="M23.4083 31.2627
L23.5292 31.2023
" />
<path d="M23.5292 31.2023
L23.5897 31.1418
" />
<path d="M23.5897 31.1418
L23.6502 31.0208
" />
<path d="M23.6502 31.0208
L23.6502 30.7184
" />
<path d="M23.6502 30.7184
L23.5897 30.5975
" />
<path d="M23.5897 30.5975
L23.5292 30.5370
" />
<path d="M23.5292 30.5370
L23.4083 30.4765
" />
<path d="M23.4083 30.4765
L23.1664 30.4765
" />
<path d="M23.1664 30.4765
L23.0454 30.5370
" />
<path d="M23.0454 30.5370
L22.9849 30.5975
" />
<path d="M22.9849 30.5975
L22.9245 30.7184
" />
</g></g>
<g style="fill:none; 
stroke:#A90000; stroke-width:0.1524; stroke-opacity:1; 
stroke-linecap:round; stroke-linejoin:round;">
<text x="17.7564" y="30.4292"
textLength="1.4127" font-size="1.6933" lengthAdjust="spacingAndGlyphs"
text-anchor="middle" opacity="0" stroke-opacity="0">9</text>
<g class="stroked-text"><desc>9</desc>
<path d="M17.5145 30.2657
L17.7564 30.2657
" />
<path d="M17.7564 30.2657
L17.8774 30.2053
" />
<path d="M17.8774 30.2053
L17.9378 30.1448
" />
<path d="M17.9378 30.1448
L18.0588 29.9633
" />
<path d="M18.0588 29.9633
L18.1193 29.7214
" />
<path d="M18.1193 29.7214
L18.1193 29.2376
" />
<path d="M18.1193 29.2376
L18.0588 29.1167
" />
<path d="M18.0588 29.1167
L17.9983 29.0562
" />
<path d="M17.9983 29.0562
L17.8774 28.9957
" />
<path d="M17.8774 28.9957
L17.6355 28.9957
" />
<path d="M17.6355 28.9957
L17.5145 29.0562
" />
<path d="M17.5145 29.0562
L17.4540 29.1167
" />
<path d="M17.4540 29.1167
L17.3936 29.2376
" />
<path d="M17.3936 29.2376
L17.3936 29.5400
" />
<path d="M17.3936 29.5400
L17.4540 29.6610
" />
<path d="M17.4540 29.6610
L17.5145 29.7214
" />
<path d="M17.5145 29.7214
L17.6355 29.7819
" />
<path d="M17.6355 29.7819
L17.8774 29.7819
" />
<path d="M17.8774 29.7819
L17.9983 29.7214
" />
<path d="M17.9983 29.7214
L18.0588 29.6610
" />
<path d="M18.0588 29.6610
L18.1193 29.5400
" />
</g></g>
<g style="fill:none; 
stroke:#006464; stroke-width:0.1905; stroke-opacity:1; 
stroke-linecap:round; stroke-linejoin:round;">
<text x="32.9964" y="6.0453"
textLength="3.1697" font-size="2.0320" lengthAdjust="spacingAndGlyphs"
text-anchor="middle" opacity="0" stroke-opacity="0">U?</text>
<g class="stroked-text"><desc>U?</desc>
<path d="M31.9078 4.4543
L31.9078 5.6880
" />
<path d="M31.9078 5.6880
L31.9804 5.8332
" />
<path d="M31.9804 5.8332
L32.0530 5.9058
" />
<path d="M32.0530 5.9058
L32.1981 5.9783
" />
<path d="M32.1981 5.9783
L32.4884 5.9783
" />
<path d="M32.4884 5.9783
L32.6335 5.9058
" />
<path d="M32.6335 5.9058
L32.7061 5.8332
" />
<path d="M32.7061 5.8332
L32.7787 5.6880
" />
<path d="M32.7787 5.6880
L32.7787 4.4543
" />
<path d="M33.7221 5.8332
L33.7947 5.9058
" />
<path d="M33.7947 5.9058
L33.7221 5.9783
" />
<path d="M33.7221 5.9783
L33.6496 5.9058
" />
<path d="M33.6496 5.9058
L33.7221 5.8332
" />
<path d="M33.7221 5.8332
L33.7221 5.9783
" />
<path d="M33.4318 4.5269
L33.5770 4.4543
" />
<path d="M33.5770 4.4543
L33.9398 4.4543
" />
<path d="M33.9398 4.4543
L34.0850 4.5269
" />
<path d="M34.0850 4.5269
L34.1576 4.6720
" />
<path d="M34.1576 4.6720
L34.1576 4.8172
" />
<path d="M34.1576 4.8172
L34.0850 4.9623
" />
<path d="M34.0850 4.9623
L34.0124 5.0349
" />
<path d="M34.0124 5.0349
L33.8673 5.1075
" />
<path d="M33.8673 5.1075
L33.7947 5.1800
" />
<path d="M33.7947 5.1800
L33.7221 5.3252
" />
<path d="M33.7221 5.3252
L33.7221 5.3978
" />
</g><text x="32.9964" y="44.1453"
textLength="20.2238" font-size="2.0320" lengthAdjust="spacingAndGlyphs"
text-anchor="middle" opacity="0" stroke-opacity="0">ProMicro_RP2040</text>
<g class="stroked-text"><desc>ProMicro_RP2040</desc>
<path d="M23.3807 44.0783
L23.3807 42.5543
" />
<path d="M23.3807 42.5543
L23.9613 42.5543
" />
<path d="M23.9613 42.5543
L24.1064 42.6269
" />
<path d="M24.1064 42.6269
L24.1790 42.6995
" />
<path d="M24.1790 42.6995
L24.2516 42.8446
" />
<path d="M24.2516 42.8446
L24.2516 43.0623
" />
<path d="M24.2516 43.0623
L24.1790 43.2075
" />
<path d="M24.1790 43.2075
L24.1064 43.2800
" />
<path d="M24.1064 43.2800
L23.9613 43.3526
" />
<path d="M23.9613 43.3526
L23.3807 43.3526
" />
<path d="M24.9047 44.0783
L24.9047 43.0623
" />
<path d="M24.9047 43.3526
L24.9773 43.2075
" />
<path d="M24.9773 43.2075
L25.0499 43.1349
" />
<path d="M25.0499 43.1349
L25.1950 43.0623
" />
<path d="M25.1950 43.0623
L25.3401 43.0623
" />
<path d="M26.0658 44.0783
L25.9207 44.0058
" />
<path d="M25.9207 44.0058
L25.8481 43.9332
" />
<path d="M25.8481 43.9332
L25.7755 43.7880
" />
<path d="M25.7755 43.7880
L25.7755 43.3526
" />
<path d="M25.7755 43.3526
L25.8481 43.2075
" />
<path d="M25.8481 43.2075
L25.9207 43.1349
" />
<path d="M25.9207 43.1349
L26.0658 43.0623
" />
<path d="M26.0658 43.0623
L26.2835 43.0623
" />
<path d="M26.2835 43.0623
L26.4287 43.1349
" />
<path d="M26.4287 43.1349
L26.5013 43.2075
" />
<path d="M26.5013 43.2075
L26.5738 43.3526
" />
<path d="M26.5738 43.3526
L26.5738 43.7880
" />
<path d="M26.5738 43.7880
L26.5013 43.9332
" />
<path d="M26.5013 43.9332
L26.4287 44.0058
" />
<path d="M26.4287 44.0058
L26.2835 44.0783
" />
<path d="M26.2835 44.0783
L26.0658 44.0783
" />
<path d="M27.2270 44.0783
L27.2270 42.5543
" />
<path d="M27.2270 42.5543
L27.7350 43.6429
" />
<path d="M27.7350 43.6429
L28.2430 42.5543
" />
<path d="M28.2430 42.5543
L28.2430 44.0783
" />
<path d="M28.9687 44.0783
L28.9687 43.0623
" />
<path d="M28.9687 42.5543
L28.8961 42.6269
" />
<path d="M28.8961 42.6269
L28.9687 42.6995
" />
<path d="M28.9687 42.6995
L29.0413 42.6269
" />
<path d="M29.0413 42.6269
L28.9687 42.5543
" />
<path d="M28.9687 42.5543
L28.9687 42.6995
" />
<path d="M30.3476 44.0058
L30.2024 44.0783
" />
<path d="M30.2024 44.0783
L29.9121 44.0783
" />
<path d="M29.9121 44.0783
L29.7670 44.0058
" />
<path d="M29.7670 44.0058
L29.6944 43.9332
" />
<path d="M29.6944 43.9332
L29.6218 43.7880
" />
<path d="M29.6218 43.7880
L29.6218 43.3526
" />
<path d="M29.6218 43.3526
L29.6944 43.2075
" />
<path d="M29.6944 43.2075
L29.7670 43.1349
" />
<path d="M29.7670 43.1349
L29.9121 43.0623
" />
<path d="M29.9121 43.0623
L30.2024 43.0623
" />
<path d="M30.2024 43.0623
L30.3476 43.1349
" />
<path d="M31.0007 44.0783
L31.0007 43.0623
" />
<path d="M31.0007 43.3526
L31.0733 43.2075
" />
<path d="M31.0733 43.2075
L31.1459 43.1349
" />
<path d="M31.1459 43.1349
L31.2910 43.0623
" />
<path d="M31.2910 43.0623
L31.4361 43.0623
" />
<path d="M32.1618 44.0783
L32.0167 44.0058
" />
<path d="M32.0167 44.0058
L31.9441 43.9332
" />
<path d="M31.9441 43.9332
L31.8715 43.7880
" />
<path d="M31.8715 43.7880
L31.8715 43.3526
" />
<path d="M31.8715 43.3526
L31.9441 43.2075
" />
<path d="M31.9441 43.2075
L32.0167 43.1349
" />
<path d="M32.0167 43.1349
L32.1618 43.0623
" />
<path d="M32.1618 43.0623
L32.3795 43.0623
" />
<path d="M32.3795 43.0623
L32.5247 43.1349
" />
<path d="M32.5247 43.1349
L32.5973 43.2075
" />
<path d="M32.5973 43.2075
L32.6698 43.3526
" />
<path d="M32.6698 43.3526
L32.6698 43.7880
" />
<path d="M32.6698 43.7880
L32.5973 43.9332
" />
<path d="M32.5973 43.9332
L32.5247 44.0058
" />
<path d="M32.5247 44.0058
L32.3795 44.0783
" />
<path d="M32.3795 44.0783
L32.1618 44.0783
" />
<path d="M32.9602 44.2235
L34.1213 44.2235
" />
<path d="M35.3550 44.0783
L34.8470 43.3526
" />
<path d="M34.4841 44.0783
L34.4841 42.5543
" />
<path d="M34.4841 42.5543
L35.0647 42.5543
" />
<path d="M35.0647 42.5543
L35.2098 42.6269
" />
<path d="M35.2098 42.6269
L35.2824 42.6995
" />
<path d="M35.2824 42.6995
L35.3550 42.8446
" />
<path d="M35.3550 42.8446
L35.3550 43.0623
" />
<path d="M35.3550 43.0623
L35.2824 43.2075
" />
<path d="M35.2824 43.2075
L35.2098 43.2800
" />
<path d="M35.2098 43.2800
L35.0647 43.3526
" />
<path d="M35.0647 43.3526
L34.4841 43.3526
" />
<path d="M36.0081 44.0783
L36.0081 42.5543
" />
<path d="M36.0081 42.5543
L36.5887 42.5543
" />
<path d="M36.5887 42.5543
L36.7338 42.6269
" />
<path d="M36.7338 42.6269
L36.8064 42.6995
" />
<path d="M36.8064 42.6995
L36.8790 42.8446
" />
<path d="M36.8790 42.8446
L36.8790 43.0623
" />
<path d="M36.8790 43.0623
L36.8064 43.2075
" />
<path d="M36.8064 43.2075
L36.7338 43.2800
" />
<path d="M36.7338 43.2800
L36.5887 43.3526
" />
<path d="M36.5887 43.3526
L36.0081 43.3526
" />
<path d="M37.4595 42.6995
L37.5321 42.6269
" />
<path d="M37.5321 42.6269
L37.6773 42.5543
" />
<path d="M37.6773 42.5543
L38.0401 42.5543
" />
<path d="M38.0401 42.5543
L38.1853 42.6269
" />
<path d="M38.1853 42.6269
L38.2578 42.6995
" />
<path d="M38.2578 42.6995
L38.3304 42.8446
" />
<path d="M38.3304 42.8446
L38.3304 42.9898
" />
<path d="M38.3304 42.9898
L38.2578 43.2075
" />
<path d="M38.2578 43.2075
L37.3870 44.0783
" />
<path d="M37.3870 44.0783
L38.3304 44.0783
" />
<path d="M39.2738 42.5543
L39.4189 42.5543
" />
<path d="M39.4189 42.5543
L39.5641 42.6269
" />
<path d="M39.5641 42.6269
L39.6367 42.6995
" />
<path d="M39.6367 42.6995
L39.7092 42.8446
" />
<path d="M39.7092 42.8446
L39.7818 43.1349
" />
<path d="M39.7818 43.1349
L39.7818 43.4978
" />
<path d="M39.7818 43.4978
L39.7092 43.7880
" />
<path d="M39.7092 43.7880
L39.6367 43.9332
" />
<path d="M39.6367 43.9332
L39.5641 44.0058
" />
<path d="M39.5641 44.0058
L39.4189 44.0783
" />
<path d="M39.4189 44.0783
L39.2738 44.0783
" />
<path d="M39.2738 44.0783
L39.1287 44.0058
" />
<path d="M39.1287 44.0058
L39.0561 43.9332
" />
<path d="M39.0561 43.9332
L38.9835 43.7880
" />
<path d="M38.9835 43.7880
L38.9109 43.4978
" />
<path d="M38.9109 43.4978
L38.9109 43.1349
" />
<path d="M38.9109 43.1349
L38.9835 42.8446
" />
<path d="M38.9835 42.8446
L39.0561 42.6995
" />
<path d="M39.0561 42.6995
L39.1287 42.6269
" />
<path d="M39.1287 42.6269
L39.2738 42.5543
" />
<path d="M41.0881 43.0623
L41.0881 44.0783
" />
<path d="M40.7252 42.4818
L40.3623 43.5703
" />
<path d="M40.3623 43.5703
L41.3058 43.5703
" />
<path d="M42.1766 42.5543
L42.3217 42.5543
" />
<path d="M42.3217 42.5543
L42.4669 42.6269
" />
<path d="M42.4669 42.6269
L42.5395 42.6995
" />
<path d="M42.5395 42.6995
L42.6120 42.8446
" />
<path d="M42.6120 42.8446
L42.6846 43.1349
" />
<path d="M42.6846 43.1349
L42.6846 43.4978
" />
<path d="M42.6846 43.4978
L42.6120 43.7880
" />
<path d="M42.6120 43.7880
L42.5395 43.9332
" />
<path d="M42.5395 43.9332
L42.4669 44.0058
" />
<path d="M42.4669 44.0058
L42.3217 44.0783
" />
<path d="M42.3217 44.0783
L42.1766 44.0783
" />
<path d="M42.1766 44.0783
L42.0315 44.0058
" />
<path d="M42.0315 44.0058
L41.9589 43.9332
" />
<path d="M41.9589 43.9332
L41.8863 43.7880
" />
<path d="M41.8863 43.7880
L41.8137 43.4978
" />
<path d="M41.8137 43.4978
L41.8137 43.1349
" />
<path d="M41.8137 43.1349
L41.8863 42.8446
" />
<path d="M41.8863 42.8446
L41.9589 42.6995
" />
<path d="M41.9589 42.6995
L42.0315 42.6269
" />
<path d="M42.0315 42.6269
L42.1766 42.5543
" />
</g></g> 
</svg>
