<svg xmlns="http://www.w3.org/2000/svg" width="164.736" height="177.504" viewBox="0 0 43.586 46.965">
    <rect width="25.4" height="33.02" x="9.093" y="6.972" rx="0" style="fill:#ffffc2;fill-opacity:1;stroke:none"/>
    <g style="fill:none;stroke:#840000;stroke-width:.1524;stroke-opacity:1;stroke-linecap:round;stroke-linejoin:round">
        <rect width="25.4" height="33.02" x="9.093" y="6.972" rx="0"/>
        <path d="M9.093 9.512h-5.08"/>
    </g>
    <g class="stroked-text" style="fill:none;stroke:#006464;stroke-width:.1524;stroke-opacity:1;stroke-linecap:round;stroke-linejoin:round">
        <path d="M10.33 8.822h.726M10.693 10.092v-1.27M11.358 8.822l.847 1.27M12.205 8.822l-.847 1.27M12.93 8.822h.122M13.052 8.822l.12.06M13.173 8.882l.06.06M13.233 8.943l.06.12M13.294 9.064l.06.242M13.354 9.306v.302M13.354 9.608l-.06.242M13.294 9.85l-.06.12M13.233 9.97l-.06.061M13.173 10.031l-.121.06M13.052 10.092h-.121M12.93 10.092l-.12-.06M12.81 10.031l-.06-.06M12.75 9.97l-.061-.12M12.689 9.85l-.06-.242M12.628 9.608v-.302M12.628 9.306l.06-.242M12.689 9.064l.06-.121M12.75 8.943l.06-.06M12.81 8.882l.12-.06M14.806 8.761l-1.09 1.633M15.229 10.092v-1.27M15.229 8.822h.302M15.531 8.822l.182.06M15.713 8.882l.12.121M15.834 9.003l.06.121M15.894 9.124l.06.242M15.955 9.366v.181M15.955 9.548l-.06.241M15.894 9.79l-.06.12M15.834 9.91l-.121.121M15.713 10.031l-.182.06M15.531 10.092h-.302M16.378 8.822h.786M17.164 8.822l-.423.484M16.74 9.306h.182M16.922 9.306l.121.06M17.043 9.366l.06.06M17.104 9.427l.06.12M17.164 9.548v.302M17.164 9.85l-.06.12M17.104 9.97l-.06.061M17.043 10.031l-.12.06M16.922 10.092h-.363M16.56 10.092l-.122-.06M16.438 10.031l-.06-.06"/>
    </g>
    <g class="stroked-text" style="fill:none;stroke:#a90000;stroke-width:.1524;stroke-opacity:1;stroke-linecap:round;stroke-linejoin:round">
        <path d="M6.916 9.095H6.19M6.553 9.095v-1.27M6.553 7.825l-.12.181M6.432 8.006l-.12.121M6.311 8.127l-.12.06"/>
    </g>
    <path d="M9.093 12.052h-5.08" style="fill:none;stroke:#840000;stroke-width:.1524;stroke-opacity:1;stroke-linecap:round;stroke-linejoin:round"/>
    <g class="stroked-text" style="fill:none;stroke:#006464;stroke-width:.1524;stroke-opacity:1;stroke-linecap:round;stroke-linejoin:round">
        <path d="m11.237 12.632-.423-.605M10.512 12.632v-1.27M10.512 11.362h.483M10.996 11.362l.12.06M11.117 11.422l.06.06M11.177 11.483l.06.12M11.237 11.604v.181M11.237 11.785l-.06.121M11.177 11.906l-.06.06M11.117 11.967l-.122.06M10.996 12.027h-.484M11.66 11.362l.847 1.27M12.507 11.362l-.846 1.27M13.657 12.632h-.726M13.294 12.632v-1.27M13.294 11.362l-.121.181M13.173 11.543l-.121.121M13.052 11.664l-.121.06M15.108 11.301l-1.089 1.633M15.531 12.632v-1.27M15.531 11.362h.303M15.834 11.362l.181.06M16.015 11.422l.121.121M16.136 11.543l.06.121M16.197 11.664l.06.242M16.257 11.906v.181M16.257 12.088l-.06.241M16.197 12.33l-.061.12M16.136 12.45l-.121.121M16.015 12.571l-.181.06M15.834 12.632h-.303M16.74 11.483l.061-.06M16.801 11.422l.121-.06M16.922 11.362h.303M17.225 11.362l.12.06M17.346 11.422l.06.06M17.406 11.483l.06.12M17.467 11.604v.12M17.467 11.725l-.061.181M17.406 11.906l-.726.726M16.68 12.632h.787"/>
    </g>
    <g class="stroked-text" style="fill:none;stroke:#a90000;stroke-width:.1524;stroke-opacity:1;stroke-linecap:round;stroke-linejoin:round">
        <path d="m6.19 10.486.06-.06M6.25 10.425l.122-.06M6.372 10.365h.302M6.674 10.365l.121.06M6.795 10.425l.06.06M6.856 10.486l.06.12M6.916 10.607v.12M6.916 10.728l-.06.181M6.856 10.91l-.726.725M6.13 11.635h.786"/>
    </g>
    <path d="M9.093 14.592h-5.08" style="fill:none;stroke:#840000;stroke-width:.1524;stroke-opacity:1;stroke-linecap:round;stroke-linejoin:round"/>
    <g class="stroked-text" style="fill:none;stroke:#006464;stroke-width:.1524;stroke-opacity:1;stroke-linecap:round;stroke-linejoin:round">
        <path d="m11.177 13.962-.121-.06M11.056 13.902h-.181M10.875 13.902l-.182.06M10.693 13.962l-.12.121M10.572 14.083l-.06.121M10.512 14.204l-.06.242M10.451 14.446v.181M10.451 14.628l.06.241M10.512 14.87l.06.12M10.572 14.99l.121.121M10.693 15.111l.182.06M10.875 15.172h.12M10.996 15.172l.181-.06M11.177 15.111l.06-.06M11.237 15.05v-.423M11.237 14.628h-.242M11.782 15.172v-1.27M11.782 13.902l.725 1.27M12.507 15.172v-1.27M13.112 15.172v-1.27M13.112 13.902h.303M13.415 13.902l.181.06M13.596 13.962l.121.121M13.717 14.083l.06.121M13.778 14.204l.06.242M13.838 14.446v.181M13.838 14.628l-.06.241M13.778 14.87l-.061.12M13.717 14.99l-.121.121M13.596 15.111l-.181.06M13.415 15.172h-.303"/>
    </g>
    <g class="stroked-text" style="fill:none;stroke:#a90000;stroke-width:.1524;stroke-opacity:1;stroke-linecap:round;stroke-linejoin:round">
        <path d="M6.13 12.905h.786M6.916 12.905l-.423.484M6.493 13.389h.181M6.674 13.389l.121.06M6.795 13.45l.06.06M6.856 13.51l.06.12M6.916 13.63v.303M6.916 13.933l-.06.12M6.856 14.054l-.06.06M6.795 14.114l-.12.06M6.674 14.175h-.363M6.311 14.175l-.12-.06M6.19 14.114l-.06-.06"/>
    </g>
    <path d="M9.093 17.132h-5.08" style="fill:none;stroke:#840000;stroke-width:.1524;stroke-opacity:1;stroke-linecap:round;stroke-linejoin:round"/>
    <g class="stroked-text" style="fill:none;stroke:#006464;stroke-width:.1524;stroke-opacity:1;stroke-linecap:round;stroke-linejoin:round">
        <path d="m11.177 16.502-.121-.06M11.056 16.442h-.181M10.875 16.442l-.182.06M10.693 16.502l-.12.121M10.572 16.623l-.06.121M10.512 16.744l-.06.242M10.451 16.986v.181M10.451 17.168l.06.241M10.512 17.41l.06.12M10.572 17.53l.121.121M10.693 17.651l.182.06M10.875 17.712h.12M10.996 17.712l.181-.06M11.177 17.651l.06-.06M11.237 17.59v-.422M11.237 17.168h-.242M11.782 17.712v-1.27M11.782 16.442l.725 1.27M12.507 17.712v-1.27M13.112 17.712v-1.27M13.112 16.442h.303M13.415 16.442l.181.06M13.596 16.502l.121.121M13.717 16.623l.06.121M13.778 16.744l.06.242M13.838 16.986v.181M13.838 17.168l-.06.241M13.778 17.41l-.061.12M13.717 17.53l-.121.121M13.596 17.651l-.181.06M13.415 17.712h-.303"/>
    </g>
    <g class="stroked-text" style="fill:none;stroke:#a90000;stroke-width:.1524;stroke-opacity:1;stroke-linecap:round;stroke-linejoin:round">
        <path d="M6.795 15.868v.847M6.493 15.384l-.303.907M6.19 16.292h.786"/>
    </g>
    <path d="M9.093 19.672h-5.08" style="fill:none;stroke:#840000;stroke-width:.1524;stroke-opacity:1;stroke-linecap:round;stroke-linejoin:round"/>
    <g class="stroked-text" style="fill:none;stroke:#006464;stroke-width:.1524;stroke-opacity:1;stroke-linecap:round;stroke-linejoin:round">
        <path d="m10.451 19.103.06-.06M10.512 19.042l.12-.06M10.633 18.982h.302M10.935 18.982l.121.06M11.056 19.042l.06.06M11.117 19.103l.06.12M11.177 19.224v.12M11.177 19.345l-.06.181M11.117 19.526l-.726.726M10.39 20.252h.787M12.628 18.921l-1.088 1.633M13.052 20.252v-1.27M13.052 18.982h.302M13.354 18.982l.182.06M13.536 19.042l.12.121M13.657 19.163l.06.121M13.717 19.284l.06.242M13.777 19.526v.181M13.777 19.708l-.06.241M13.717 19.95l-.06.12M13.657 20.07l-.121.121M13.536 20.191l-.182.06M13.354 20.252h-.302M14.987 20.252h-.726M14.624 20.252v-1.27M14.624 18.982l-.12.181M14.503 19.163l-.12.121M14.382 19.284l-.12.06M16.438 18.921l-1.088 1.633M16.801 20.191l.182.06M16.983 20.252h.302M17.285 20.252l.121-.06M17.406 20.191l.06-.06M17.467 20.13l.06-.12M17.527 20.01v-.121M17.527 19.889l-.06-.121M17.467 19.768l-.061-.06M17.406 19.708l-.12-.06M17.285 19.647l-.242-.06M17.043 19.587l-.12-.06M16.922 19.526l-.06-.06M16.862 19.466l-.06-.121M16.801 19.345v-.121M16.801 19.224l.06-.121M16.862 19.103l.06-.06M16.922 19.042l.121-.06M17.043 18.982h.303M17.346 18.982l.181.06M18.071 20.252v-1.27M18.071 18.982h.303M18.374 18.982l.181.06M18.555 19.042l.121.121M18.676 19.163l.06.121M18.737 19.284l.06.242M18.797 19.526v.181M18.797 19.708l-.06.241M18.737 19.95l-.061.12M18.676 20.07l-.121.121M18.555 20.191l-.181.06M18.374 20.252h-.303M19.28 19.889h.605M19.16 20.252l.423-1.27M19.583 18.982l.424 1.27"/>
    </g>
    <g class="stroked-text" style="fill:none;stroke:#a90000;stroke-width:.1524;stroke-opacity:1;stroke-linecap:round;stroke-linejoin:round">
        <path d="M6.856 17.985H6.25M6.25 17.985l-.06.605M6.19 18.59l.06-.06M6.25 18.53l.122-.061M6.372 18.469h.302M6.674 18.469l.121.06M6.795 18.53l.06.06M6.856 18.59l.06.12M6.916 18.71v.303M6.916 19.013l-.06.12M6.856 19.134l-.06.06M6.795 19.194l-.12.06M6.674 19.255h-.302M6.372 19.255l-.121-.06M6.25 19.194l-.06-.06"/>
    </g>
    <path d="M9.093 22.212h-5.08" style="fill:none;stroke:#840000;stroke-width:.1524;stroke-opacity:1;stroke-linecap:round;stroke-linejoin:round"/>
    <g class="stroked-text" style="fill:none;stroke:#006464;stroke-width:.1524;stroke-opacity:1;stroke-linecap:round;stroke-linejoin:round">
        <path d="M10.39 21.522h.787M11.177 21.522l-.423.484M10.754 22.006h.181M10.935 22.006l.121.06M11.056 22.066l.06.06M11.117 22.127l.06.12M11.177 22.248v.302M11.177 22.55l-.06.12M11.117 22.67l-.061.061M11.056 22.731l-.12.06M10.935 22.792h-.363M10.572 22.792l-.12-.06M10.451 22.731l-.06-.06M12.628 21.461l-1.088 1.633M13.052 22.792v-1.27M13.052 21.522h.302M13.354 21.522l.182.06M13.536 21.582l.12.121M13.657 21.703l.06.121M13.717 21.824l.06.242M13.777 22.066v.181M13.777 22.248l-.06.241M13.717 22.49l-.06.12M13.657 22.61l-.121.121M13.536 22.731l-.182.06M13.354 22.792h-.302M14.564 21.522h.12M14.685 21.522l.12.06M14.806 21.582l.06.06M14.866 21.643l.06.12M14.927 21.764l.06.242M14.987 22.006v.302M14.987 22.308l-.06.242M14.927 22.55l-.061.12M14.866 22.67l-.06.061M14.806 22.731l-.121.06M14.685 22.792h-.121M14.564 22.792l-.121-.06M14.443 22.731l-.06-.06M14.382 22.67l-.06-.12M14.322 22.55l-.06-.242M14.261 22.308v-.302M14.261 22.006l.06-.242M14.322 21.764l.06-.121M14.382 21.643l.06-.06M14.443 21.582l.12-.06M16.438 21.461l-1.088 1.633M16.801 22.731l.182.06M16.983 22.792h.302M17.285 22.792l.121-.06M17.406 22.731l.06-.06M17.467 22.67l.06-.12M17.527 22.55v-.121M17.527 22.429l-.06-.121M17.467 22.308l-.061-.06M17.406 22.248l-.12-.06M17.285 22.187l-.242-.06M17.043 22.127l-.12-.06M16.922 22.066l-.06-.06M16.862 22.006l-.06-.121M16.801 21.885v-.121M16.801 21.764l.06-.121M16.862 21.643l.06-.06M16.922 21.582l.121-.06M17.043 21.522h.303M17.346 21.522l.181.06M18.797 22.67l-.06.061M18.737 22.731l-.182.06M18.555 22.792h-.12M18.434 22.792l-.181-.06M18.253 22.731l-.121-.12M18.132 22.61l-.06-.12M18.071 22.49l-.06-.242M18.01 22.248v-.182M18.01 22.066l.061-.242M18.071 21.824l.06-.12M18.132 21.703l.12-.12M18.253 21.582l.181-.06M18.434 21.522h.121M18.555 21.522l.181.06M18.737 21.582l.06.06M19.946 22.792h-.605M19.341 22.792v-1.27"/>
    </g>
    <g class="stroked-text" style="fill:none;stroke:#a90000;stroke-width:.1524;stroke-opacity:1;stroke-linecap:round;stroke-linejoin:round">
        <path d="M6.795 20.525h-.242M6.553 20.525l-.12.06M6.432 20.585l-.06.06M6.372 20.646l-.121.181M6.25 20.827l-.06.242M6.19 21.07v.483M6.19 21.553l.06.12M6.25 21.674l.061.06M6.311 21.734l.121.06M6.432 21.795h.242M6.674 21.795l.121-.06M6.795 21.734l.06-.06M6.856 21.674l.06-.121M6.916 21.553v-.303M6.916 21.25l-.06-.12M6.856 21.13l-.06-.06M6.795 21.07l-.12-.061M6.674 21.009h-.242M6.432 21.009l-.12.06M6.311 21.07l-.06.06M6.25 21.13l-.06.12"/>
    </g>
    <path d="M9.093 24.752h-5.08" style="fill:none;stroke:#840000;stroke-width:.1524;stroke-opacity:1;stroke-linecap:round;stroke-linejoin:round"/>
    <g class="stroked-text" style="fill:none;stroke:#006464;stroke-width:.1524;stroke-opacity:1;stroke-linecap:round;stroke-linejoin:round">
        <path d="M11.056 24.485v.847M10.754 24.001l-.303.907M10.451 24.909h.786M12.628 24.001l-1.088 1.633M13.052 25.332v-1.27M13.052 24.062h.302M13.354 24.062l.182.06M13.536 24.122l.12.121M13.657 24.243l.06.121M13.717 24.364l.06.242M13.777 24.606v.181M13.777 24.788l-.06.241M13.717 25.03l-.06.12M13.657 25.15l-.121.121M13.536 25.271l-.182.06M13.354 25.332h-.302M14.866 24.485v.847M14.564 24.001l-.303.907M14.261 24.909h.786"/>
    </g>
    <g class="stroked-text" style="fill:none;stroke:#a90000;stroke-width:.1524;stroke-opacity:1;stroke-linecap:round;stroke-linejoin:round">
        <path d="M6.13 23.065h.846M6.977 23.065l-.545 1.27"/>
    </g>
    <path d="M9.093 27.292h-5.08" style="fill:none;stroke:#840000;stroke-width:.1524;stroke-opacity:1;stroke-linecap:round;stroke-linejoin:round"/>
    <g class="stroked-text" style="fill:none;stroke:#006464;stroke-width:.1524;stroke-opacity:1;stroke-linecap:round;stroke-linejoin:round">
        <path d="M11.117 26.602h-.605M10.512 26.602l-.06.605M10.451 27.207l.06-.06M10.512 27.146l.12-.06M10.633 27.086h.302M10.935 27.086l.121.06M11.056 27.146l.06.06M11.117 27.207l.06.12M11.177 27.328v.302M11.177 27.63l-.06.12M11.117 27.75l-.061.061M11.056 27.811l-.12.06M10.935 27.872h-.302M10.633 27.872l-.121-.06M10.512 27.811l-.06-.06M12.628 26.541l-1.088 1.633M13.777 27.75l-.06.061M13.717 27.811l-.181.06M13.536 27.872h-.121M13.415 27.872l-.182-.06M13.233 27.811l-.12-.12M13.112 27.69l-.06-.12M13.052 27.57l-.06-.242M12.991 27.328v-.182M12.991 27.146l.06-.242M13.052 26.904l.06-.12M13.112 26.783l.121-.12M13.233 26.662l.182-.06M13.415 26.602h.12M13.536 26.602l.181.06M13.717 26.662l.06.06M14.866 26.602h-.242M14.624 26.602l-.12.06M14.503 26.662l-.06.06M14.443 26.723l-.121.181M14.322 26.904l-.06.242M14.261 27.146v.484M14.261 27.63l.06.12M14.322 27.75l.06.061M14.382 27.811l.121.06M14.503 27.872h.242M14.745 27.872l.121-.06M14.866 27.811l.06-.06M14.927 27.75l.06-.12M14.987 27.63v-.302M14.987 27.328l-.06-.121M14.927 27.207l-.061-.06M14.866 27.146l-.12-.06M14.745 27.086h-.242M14.503 27.086l-.12.06M14.382 27.146l-.06.06M14.322 27.207l-.06.12"/>
    </g>
    <g class="stroked-text" style="fill:none;stroke:#a90000;stroke-width:.1524;stroke-opacity:1;stroke-linecap:round;stroke-linejoin:round">
        <path d="m6.432 26.15-.12-.061M6.311 26.089l-.06-.06M6.25 26.028l-.06-.12M6.19 25.907v-.06M6.19 25.847l.06-.121M6.25 25.726l.061-.06M6.311 25.665l.121-.06M6.432 25.605h.242M6.674 25.605l.121.06M6.795 25.665l.06.06M6.856 25.726l.06.12M6.916 25.847v.06M6.916 25.907l-.06.121M6.856 26.028l-.06.06M6.795 26.089l-.12.06M6.674 26.15h-.242M6.432 26.15l-.12.06M6.311 26.21l-.06.06M6.25 26.27l-.06.121M6.19 26.391v.242M6.19 26.633l.06.12M6.25 26.754l.061.06M6.311 26.814l.121.06M6.432 26.875h.242M6.674 26.875l.121-.06M6.795 26.814l.06-.06M6.856 26.754l.06-.121M6.916 26.633v-.242M6.916 26.391l-.06-.12M6.856 26.27l-.06-.06M6.795 26.21l-.12-.06"/>
    </g>
    <path d="M9.093 29.832h-5.08" style="fill:none;stroke:#840000;stroke-width:.1524;stroke-opacity:1;stroke-linecap:round;stroke-linejoin:round"/>
    <g class="stroked-text" style="fill:none;stroke:#006464;stroke-width:.1524;stroke-opacity:1;stroke-linecap:round;stroke-linejoin:round">
        <path d="M11.056 29.142h-.242M10.814 29.142l-.12.06M10.693 29.202l-.06.06M10.633 29.263l-.121.181M10.512 29.444l-.06.242M10.451 29.686v.484M10.451 30.17l.06.12M10.512 30.29l.06.061M10.572 30.351l.121.06M10.693 30.412h.242M10.935 30.412l.121-.06M11.056 30.351l.06-.06M11.117 30.29l.06-.12M11.177 30.17v-.303M11.177 29.868l-.06-.121M11.117 29.747l-.061-.06M11.056 29.686l-.12-.06M10.935 29.626h-.242M10.693 29.626l-.12.06M10.572 29.686l-.06.06M10.512 29.747l-.06.12M12.628 29.081l-1.088 1.633M13.052 30.412v-1.27M13.052 29.142h.302M13.354 29.142l.182.06M13.536 29.202l.12.121M13.657 29.323l.06.121M13.717 29.444l.06.242M13.777 29.686v.181M13.777 29.868l-.06.241M13.717 30.11l-.06.12M13.657 30.23l-.121.121M13.536 30.351l-.182.06M13.354 30.412h-.302M14.2 29.142h.847M15.047 29.142l-.544 1.27"/>
    </g>
    <g class="stroked-text" style="fill:none;stroke:#a90000;stroke-width:.1524;stroke-opacity:1;stroke-linecap:round;stroke-linejoin:round">
        <path d="M6.311 29.415h.242M6.553 29.415l.121-.06M6.674 29.354l.06-.06M6.735 29.294l.12-.182M6.856 29.112l.06-.241M6.916 28.87v-.483M6.916 28.387l-.06-.121M6.856 28.266l-.06-.06M6.795 28.205l-.12-.06M6.674 28.145h-.242M6.432 28.145l-.12.06M6.311 28.205l-.06.06M6.25 28.266l-.06.12M6.19 28.387v.302M6.19 28.69l.06.12M6.25 28.81l.061.06M6.311 28.87l.121.061M6.432 28.931h.242M6.674 28.931l.121-.06M6.795 28.87l.06-.06M6.856 28.81l.06-.12"/>
    </g>
    <path d="M9.093 32.372h-5.08" style="fill:none;stroke:#840000;stroke-width:.1524;stroke-opacity:1;stroke-linecap:round;stroke-linejoin:round"/>
    <g class="stroked-text" style="fill:none;stroke:#006464;stroke-width:.1524;stroke-opacity:1;stroke-linecap:round;stroke-linejoin:round">
        <path d="M10.39 31.682h.847M11.237 31.682l-.544 1.27M12.628 31.621l-1.088 1.633M13.052 32.287h.423M13.657 32.952h-.605M13.052 32.952v-1.27M13.052 31.682h.604M14.745 31.682h-.242M14.503 31.682l-.12.06M14.382 31.742l-.06.06M14.322 31.803l-.121.181M14.2 31.984l-.06.242M14.14 32.226v.484M14.14 32.71l.06.12M14.2 32.83l.061.061M14.261 32.891l.121.06M14.382 32.952h.242M14.624 32.952l.121-.06M14.745 32.891l.06-.06M14.806 32.83l.06-.12M14.866 32.71v-.303M14.866 32.408l-.06-.121M14.806 32.287l-.061-.06M14.745 32.226l-.12-.06M14.624 32.166h-.242M14.382 32.166l-.12.06M14.261 32.226l-.06.06M14.2 32.287l-.06.12"/>
    </g>
    <g class="stroked-text" style="fill:none;stroke:#a90000;stroke-width:.1524;stroke-opacity:1;stroke-linecap:round;stroke-linejoin:round">
        <path d="M6.311 31.955h-.725M5.948 31.955v-1.27M5.948 30.685l-.12.181M5.828 30.866l-.122.121M5.707 30.987l-.121.06M7.097 30.685h.121M7.218 30.685l.121.06M7.34 30.745l.06.06M7.4 30.806l.06.12M7.46 30.927l.06.242M7.52 31.169v.302M7.52 31.471l-.06.242M7.46 31.713l-.06.12M7.4 31.834l-.06.06M7.34 31.894l-.122.06M7.218 31.955h-.12M7.097 31.955l-.12-.06M6.977 31.894l-.061-.06M6.916 31.834l-.06-.121M6.856 31.713l-.06-.242M6.795 31.471v-.302M6.795 31.169l.06-.242M6.856 30.927l.06-.121M6.916 30.806l.06-.06M6.977 30.745l.12-.06"/>
    </g>
    <path d="M9.093 34.912h-5.08" style="fill:none;stroke:#840000;stroke-width:.1524;stroke-opacity:1;stroke-linecap:round;stroke-linejoin:round"/>
    <g class="stroked-text" style="fill:none;stroke:#006464;stroke-width:.1524;stroke-opacity:1;stroke-linecap:round;stroke-linejoin:round">
        <path d="m10.693 34.766-.12-.06M10.572 34.706l-.06-.06M10.512 34.645l-.06-.12M10.451 34.524v-.06M10.451 34.464l.06-.121M10.512 34.343l.06-.06M10.572 34.282l.121-.06M10.693 34.222h.242M10.935 34.222l.121.06M11.056 34.282l.06.06M11.117 34.343l.06.12M11.177 34.464v.06M11.177 34.524l-.06.121M11.117 34.645l-.061.06M11.056 34.706l-.12.06M10.935 34.766h-.242M10.693 34.766l-.12.06M10.572 34.827l-.06.06M10.512 34.887l-.06.121M10.451 35.008v.242M10.451 35.25l.06.12M10.512 35.37l.06.061M10.572 35.431l.121.06M10.693 35.492h.242M10.935 35.492l.121-.06M11.056 35.431l.06-.06M11.117 35.37l.06-.12M11.177 35.25v-.242M11.177 35.008l-.06-.12M11.117 34.887l-.061-.06M11.056 34.827l-.12-.06M12.628 34.161l-1.088 1.633M13.475 34.827l.181.06M13.657 34.887l.06.06M13.717 34.948l.06.12M13.777 35.069v.18M13.777 35.25l-.06.12M13.717 35.37l-.06.061M13.657 35.431l-.121.06M13.536 35.492h-.484M13.052 35.492v-1.27M13.052 34.222h.423M13.475 34.222l.121.06M13.596 34.282l.06.06M13.657 34.343l.06.12M13.717 34.464v.12M13.717 34.585l-.06.12M13.657 34.706l-.061.06M13.596 34.766l-.12.06M13.475 34.827h-.423M14.866 34.645v.847M14.564 34.161l-.303.907M14.261 35.069h.786"/>
    </g>
    <g class="stroked-text" style="fill:none;stroke:#a90000;stroke-width:.1524;stroke-opacity:1;stroke-linecap:round;stroke-linejoin:round">
        <path d="M6.311 34.495h-.725M5.948 34.495v-1.27M5.948 33.225l-.12.181M5.828 33.406l-.122.121M5.707 33.527l-.121.06M7.52 34.495h-.725M7.158 34.495v-1.27M7.158 33.225l-.121.181M7.037 33.406l-.121.121M6.916 33.527l-.12.06"/>
    </g>
    <path d="M9.093 37.452h-5.08" style="fill:none;stroke:#840000;stroke-width:.1524;stroke-opacity:1;stroke-linecap:round;stroke-linejoin:round"/>
    <g class="stroked-text" style="fill:none;stroke:#006464;stroke-width:.1524;stroke-opacity:1;stroke-linecap:round;stroke-linejoin:round">
        <path d="M10.572 38.032h.242M10.814 38.032l.121-.06M10.935 37.971l.06-.06M10.996 37.91l.12-.18M11.117 37.73l.06-.242M11.177 37.488v-.484M11.177 37.004l-.06-.121M11.117 36.883l-.061-.06M11.056 36.822l-.12-.06M10.935 36.762h-.242M10.693 36.762l-.12.06M10.572 36.822l-.06.06M10.512 36.883l-.06.12M10.451 37.004v.302M10.451 37.306l.06.121M10.512 37.427l.06.06M10.572 37.488l.121.06M10.693 37.548h.242M10.935 37.548l.121-.06M11.056 37.488l.06-.06M11.117 37.427l.06-.12M12.628 36.701l-1.088 1.633M13.475 37.367l.181.06M13.657 37.427l.06.06M13.717 37.488l.06.12M13.777 37.609v.18M13.777 37.79l-.06.12M13.717 37.91l-.06.061M13.657 37.971l-.121.06M13.536 38.032h-.484M13.052 38.032v-1.27M13.052 36.762h.423M13.475 36.762l.121.06M13.596 36.822l.06.06M13.657 36.883l.06.12M13.717 37.004v.12M13.717 37.125l-.06.12M13.657 37.246l-.061.06M13.596 37.306l-.12.06M13.475 37.367h-.423M14.927 36.762h-.605M14.322 36.762l-.06.605M14.261 37.367l.06-.06M14.322 37.306l.12-.06M14.443 37.246h.302M14.745 37.246l.121.06M14.866 37.306l.06.06M14.927 37.367l.06.12M14.987 37.488v.302M14.987 37.79l-.06.12M14.927 37.91l-.061.061M14.866 37.971l-.12.06M14.745 38.032h-.302M14.443 38.032l-.121-.06M14.322 37.971l-.06-.06"/>
    </g>
    <g class="stroked-text" style="fill:none;stroke:#a90000;stroke-width:.1524;stroke-opacity:1;stroke-linecap:round;stroke-linejoin:round">
        <path d="M6.311 37.035h-.725M5.948 37.035v-1.27M5.948 35.765l-.12.181M5.828 35.946l-.122.121M5.707 36.067l-.121.06M6.795 35.886l.06-.06M6.856 35.825l.12-.06M6.977 35.765h.302M7.279 35.765l.12.06M7.4 35.825l.06.06M7.46 35.886l.06.12M7.52 36.007v.12M7.52 36.128l-.06.181M7.46 36.31l-.725.725M6.735 37.035h.786"/>
    </g>
    <path d="M34.493 9.512h5.08" style="fill:none;stroke:#840000;stroke-width:.1524;stroke-opacity:1;stroke-linecap:round;stroke-linejoin:round"/>
    <g class="stroked-text" style="fill:none;stroke:#006464;stroke-width:.1524;stroke-opacity:1;stroke-linecap:round;stroke-linejoin:round">
        <path d="m30.595 10.092-.423-.605M29.87 10.092v-1.27M29.87 8.822h.483M30.353 8.822l.121.06M30.474 8.882l.06.06M30.535 8.943l.06.12M30.595 9.064v.181M30.595 9.245l-.06.121M30.535 9.366l-.06.06M30.474 9.427l-.12.06M30.353 9.487h-.484M31.079 9.729h.605M30.958 10.092l.423-1.27M31.381 8.822l.424 1.27M32.107 8.822l.302 1.27M32.41 10.092l.241-.907M32.651 9.185l.242.907M32.893 10.092l.303-1.27"/>
    </g>
    <g class="stroked-text" style="fill:none;stroke:#a90000;stroke-width:.1524;stroke-opacity:1;stroke-linecap:round;stroke-linejoin:round">
        <path d="m36.066 7.946.06-.06M36.126 7.885l.121-.06M36.247 7.825h.302M36.55 7.825l.12.06M36.67 7.885l.06.06M36.73 7.946l.061.12M36.791 8.067v.12M36.791 8.188l-.06.181M36.73 8.37l-.725.725M36.005 9.095h.786M37.88 8.248v.847M37.577 7.764l-.302.907M37.275 8.672h.786"/>
    </g>
    <path d="M34.493 12.052h5.08" style="fill:none;stroke:#840000;stroke-width:.1524;stroke-opacity:1;stroke-linecap:round;stroke-linejoin:round"/>
    <g class="stroked-text" style="fill:none;stroke:#006464;stroke-width:.1524;stroke-opacity:1;stroke-linecap:round;stroke-linejoin:round">
        <path d="m30.474 11.422-.12-.06M30.353 11.362h-.181M30.172 11.362l-.182.06M29.99 11.422l-.12.121M29.87 11.543l-.061.121M29.809 11.664l-.06.242M29.748 11.906v.181M29.748 12.088l.06.241M29.809 12.33l.06.12M29.87 12.45l.12.121M29.99 12.571l.182.06M30.172 12.632h.12M30.293 12.632l.181-.06M30.474 12.571l.06-.06M30.535 12.51v-.422M30.535 12.088h-.242M31.079 12.632v-1.27M31.079 11.362l.726 1.27M31.805 12.632v-1.27M32.41 12.632v-1.27M32.41 11.362h.302M32.712 11.362l.181.06M32.893 11.422l.121.121M33.014 11.543l.06.121M33.075 11.664l.06.242M33.135 11.906v.181M33.135 12.088l-.06.241M33.075 12.33l-.06.12M33.014 12.45l-.12.121M32.893 12.571l-.181.06M32.712 12.632h-.303"/>
    </g>
    <g class="stroked-text" style="fill:none;stroke:#a90000;stroke-width:.1524;stroke-opacity:1;stroke-linecap:round;stroke-linejoin:round">
        <path d="m36.066 10.486.06-.06M36.126 10.425l.121-.06M36.247 10.365h.302M36.55 10.365l.12.06M36.67 10.425l.06.06M36.73 10.486l.061.12M36.791 10.607v.12M36.791 10.728l-.06.181M36.73 10.91l-.725.725M36.005 11.635h.786M37.215 10.365H38M38 10.365l-.423.484M37.577 10.849h.182M37.759 10.849l.12.06M37.88 10.91l.06.06M37.94 10.97l.06.12M38 11.09v.303M38 11.393l-.06.12M37.94 11.514l-.06.06M37.88 11.574l-.121.06M37.759 11.635h-.363M37.396 11.635l-.12-.06M37.275 11.574l-.06-.06"/>
    </g>
    <path d="M34.493 14.592h5.08" style="fill:none;stroke:#840000;stroke-width:.1524;stroke-opacity:1;stroke-linecap:round;stroke-linejoin:round"/>
    <g class="stroked-text" style="fill:none;stroke:#006464;stroke-width:.1524;stroke-opacity:1;stroke-linecap:round;stroke-linejoin:round">
        <path d="m30.958 15.172-.423-.605M30.232 15.172v-1.27M30.232 13.902h.484M30.716 13.902l.121.06M30.837 13.962l.06.06M30.898 14.023l.06.12M30.958 14.144v.181M30.958 14.325l-.06.121M30.898 14.446l-.061.06M30.837 14.507l-.121.06M30.716 14.567h-.484M31.442 15.111l.181.06M31.623 15.172h.303M31.926 15.172l.12-.06M32.047 15.111l.06-.06M32.107 15.05l.06-.12M32.167 14.93v-.121M32.167 14.809l-.06-.121M32.107 14.688l-.06-.06M32.047 14.628l-.121-.06M31.926 14.567l-.242-.06M31.684 14.507l-.121-.06M31.563 14.446l-.06-.06M31.502 14.386l-.06-.121M31.442 14.265v-.121M31.442 14.144l.06-.121M31.502 14.023l.06-.06M31.563 13.962l.12-.06M31.684 13.902h.302M31.986 13.902l.181.06M32.53 13.902h.726M32.893 15.172v-1.27"/>
    </g>
    <g class="stroked-text" style="fill:none;stroke:#a90000;stroke-width:.1524;stroke-opacity:1;stroke-linecap:round;stroke-linejoin:round">
        <path d="m36.066 13.026.06-.06M36.126 12.965l.121-.06M36.247 12.905h.302M36.55 12.905l.12.06M36.67 12.965l.06.06M36.73 13.026l.061.12M36.791 13.147v.12M36.791 13.268l-.06.181M36.73 13.45l-.725.725M36.005 14.175h.786M37.275 13.026l.06-.06M37.336 12.965l.12-.06M37.457 12.905h.302M37.759 12.905l.12.06M37.88 12.965l.06.06M37.94 13.026l.06.12M38 13.147v.12M38 13.268l-.06.181M37.94 13.45l-.725.725M37.215 14.175H38"/>
    </g>
    <path d="M34.493 17.132h5.08" style="fill:none;stroke:#840000;stroke-width:.1524;stroke-opacity:1;stroke-linecap:round;stroke-linejoin:round"/>
    <g class="stroked-text" style="fill:none;stroke:#006464;stroke-width:.1524;stroke-opacity:1;stroke-linecap:round;stroke-linejoin:round">
        <path d="m29.87 16.442.423 1.27M30.293 17.712l.423-1.27M31.865 17.59l-.06.061M31.805 17.651l-.182.06M31.623 17.712h-.12M31.502 17.712l-.181-.06M31.32 17.651l-.12-.12M31.2 17.53l-.06-.12M31.14 17.41l-.061-.242M31.079 17.168v-.182M31.079 16.986l.06-.242M31.14 16.744l.06-.12M31.2 16.623l.12-.12M31.32 16.502l.182-.06M31.502 16.442h.121M31.623 16.442l.182.06M31.805 16.502l.06.06M33.135 17.59l-.06.061M33.075 17.651l-.182.06M32.893 17.712h-.12M32.772 17.712l-.181-.06M32.59 17.651l-.12-.12M32.47 17.53l-.06-.12M32.41 17.41l-.061-.242M32.349 17.168v-.182M32.349 16.986l.06-.242M32.41 16.744l.06-.12M32.47 16.623l.12-.12M32.59 16.502l.182-.06M32.772 16.442h.121M32.893 16.442l.182.06M33.075 16.502l.06.06"/>
    </g>
    <g class="stroked-text" style="fill:none;stroke:#a90000;stroke-width:.1524;stroke-opacity:1;stroke-linecap:round;stroke-linejoin:round">
        <path d="m36.066 15.566.06-.06M36.126 15.505l.121-.06M36.247 15.445h.302M36.55 15.445l.12.06M36.67 15.505l.06.06M36.73 15.566l.061.12M36.791 15.687v.12M36.791 15.808l-.06.181M36.73 15.99l-.725.725M36.005 16.715h.786M38 16.715h-.725M37.638 16.715v-1.27M37.638 15.445l-.121.181M37.517 15.626l-.121.121M37.396 15.747l-.12.06"/>
    </g>
    <path d="M34.493 19.672h5.08" style="fill:none;stroke:#840000;stroke-width:.1524;stroke-opacity:1;stroke-linecap:round;stroke-linejoin:round"/>
    <g class="stroked-text" style="fill:none;stroke:#006464;stroke-width:.1524;stroke-opacity:1;stroke-linecap:round;stroke-linejoin:round">
        <path d="M28.176 19.587h-.423M27.753 20.252v-1.27M27.753 18.982h.604M29.386 19.405v.847M29.083 18.921l-.302.907M28.78 19.829h.787M30.958 18.921l-1.089 1.633M31.32 19.889h.605M31.2 20.252l.423-1.27M31.623 18.982l.424 1.27M32.349 18.982h.786M33.135 18.982l-.423.484M32.712 19.466h.181M32.893 19.466l.121.06M33.014 19.526l.06.06M33.075 19.587l.06.12M33.135 19.708v.302M33.135 20.01l-.06.12M33.075 20.13l-.06.061M33.014 20.191l-.12.06M32.893 20.252h-.363M32.53 20.252l-.12-.06M32.41 20.191l-.061-.06"/>
    </g>
    <g class="stroked-text" style="fill:none;stroke:#a90000;stroke-width:.1524;stroke-opacity:1;stroke-linecap:round;stroke-linejoin:round">
        <path d="m36.066 18.106.06-.06M36.126 18.045l.121-.06M36.247 17.985h.302M36.55 17.985l.12.06M36.67 18.045l.06.06M36.73 18.106l.061.12M36.791 18.227v.12M36.791 18.348l-.06.181M36.73 18.53l-.725.725M36.005 19.255h.786M37.577 17.985h.121M37.698 17.985l.121.06M37.82 18.045l.06.06M37.88 18.106l.06.12M37.94 18.227l.06.242M38 18.469v.302M38 18.771l-.06.242M37.94 19.013l-.06.12M37.88 19.134l-.06.06M37.82 19.194l-.122.06M37.698 19.255h-.12M37.577 19.255l-.12-.06M37.457 19.194l-.061-.06M37.396 19.134l-.06-.121M37.336 19.013l-.06-.242M37.275 18.771v-.302M37.275 18.469l.06-.242M37.336 18.227l.06-.121M37.396 18.106l.06-.06M37.457 18.045l.12-.06"/>
    </g>
    <path d="M34.493 22.212h5.08" style="fill:none;stroke:#840000;stroke-width:.1524;stroke-opacity:1;stroke-linecap:round;stroke-linejoin:round"/>
    <g class="stroked-text" style="fill:none;stroke:#006464;stroke-width:.1524;stroke-opacity:1;stroke-linecap:round;stroke-linejoin:round">
        <path d="M28.176 22.127h-.423M27.753 22.792v-1.27M27.753 21.522h.604M29.446 21.522h-.605M28.841 21.522l-.06.605M28.78 22.127l.061-.06M28.841 22.066l.121-.06M28.962 22.006h.303M29.265 22.006l.12.06M29.386 22.066l.06.06M29.446 22.127l.06.12M29.507 22.248v.302M29.507 22.55l-.061.12M29.446 22.67l-.06.061M29.386 22.731l-.121.06M29.265 22.792h-.303M28.962 22.792l-.12-.06M28.841 22.731l-.06-.06M30.958 21.461l-1.089 1.633M31.32 22.429h.605M31.2 22.792l.423-1.27M31.623 21.522l.424 1.27M32.41 21.643l.06-.06M32.47 21.582l.12-.06M32.59 21.522h.303M32.893 21.522l.121.06M33.014 21.582l.06.06M33.075 21.643l.06.12M33.135 21.764v.12M33.135 21.885l-.06.181M33.075 22.066l-.726.726M32.349 22.792h.786"/>
    </g>
    <g class="stroked-text" style="fill:none;stroke:#a90000;stroke-width:.1524;stroke-opacity:1;stroke-linecap:round;stroke-linejoin:round">
        <path d="M36.791 21.795h-.725M36.428 21.795v-1.27M36.428 20.525l-.12.181M36.308 20.706l-.121.121M36.187 20.827l-.121.06M37.396 21.795h.242M37.638 21.795l.12-.06M37.759 21.734l.06-.06M37.82 21.674l.12-.182M37.94 21.492l.06-.242M38 21.25v-.483M38 20.767l-.06-.121M37.94 20.646l-.06-.06M37.88 20.585l-.121-.06M37.759 20.525h-.242M37.517 20.525l-.121.06M37.396 20.585l-.06.06M37.336 20.646l-.06.12M37.275 20.767v.302M37.275 21.07l.06.12M37.336 21.19l.06.06M37.396 21.25l.121.061M37.517 21.311h.242M37.759 21.311l.12-.06M37.88 21.25l.06-.06M37.94 21.19l.06-.12"/>
    </g>
    <path d="M34.493 24.752h5.08" style="fill:none;stroke:#840000;stroke-width:.1524;stroke-opacity:1;stroke-linecap:round;stroke-linejoin:round"/>
    <g class="stroked-text" style="fill:none;stroke:#006464;stroke-width:.1524;stroke-opacity:1;stroke-linecap:round;stroke-linejoin:round">
        <path d="M28.176 24.667h-.423M27.753 25.332v-1.27M27.753 24.062h.604M29.386 24.062h-.242M29.144 24.062l-.121.06M29.023 24.122l-.06.06M28.962 24.183l-.12.181M28.841 24.364l-.06.242M28.78 24.606v.484M28.78 25.09l.061.12M28.841 25.21l.06.061M28.902 25.271l.12.06M29.023 25.332h.242M29.265 25.332l.12-.06M29.386 25.271l.06-.06M29.446 25.21l.06-.12M29.507 25.09v-.302M29.507 24.788l-.061-.121M29.446 24.667l-.06-.06M29.386 24.606l-.121-.06M29.265 24.546h-.242M29.023 24.546l-.121.06M28.902 24.606l-.06.06M28.841 24.667l-.06.12M30.958 24.001l-1.089 1.633M31.32 24.969h.605M31.2 25.332l.423-1.27M31.623 24.062l.424 1.27M33.135 25.332h-.726M32.772 25.332v-1.27M32.772 24.062l-.12.181M32.651 24.243l-.12.121M32.53 24.364l-.12.06"/>
    </g>
    <g class="stroked-text" style="fill:none;stroke:#a90000;stroke-width:.1524;stroke-opacity:1;stroke-linecap:round;stroke-linejoin:round">
        <path d="M36.791 24.335h-.725M36.428 24.335v-1.27M36.428 23.065l-.12.181M36.308 23.246l-.121.121M36.187 23.367l-.121.06M37.517 23.61l-.121-.061M37.396 23.549l-.06-.06M37.336 23.488l-.06-.12M37.275 23.367v-.06M37.275 23.307l.06-.121M37.336 23.186l.06-.06M37.396 23.125l.121-.06M37.517 23.065h.242M37.759 23.065l.12.06M37.88 23.125l.06.06M37.94 23.186l.06.12M38 23.307v.06M38 23.367l-.06.121M37.94 23.488l-.06.06M37.88 23.549l-.121.06M37.759 23.61h-.242M37.517 23.61l-.121.06M37.396 23.67l-.06.06M37.336 23.73l-.06.121M37.275 23.851v.242M37.275 24.093l.06.12M37.336 24.214l.06.06M37.396 24.274l.121.06M37.517 24.335h.242M37.759 24.335l.12-.06M37.88 24.274l.06-.06M37.94 24.214l.06-.121M38 24.093v-.242M38 23.851l-.06-.12M37.94 23.73l-.06-.06M37.88 23.67l-.121-.06"/>
    </g>
    <path d="M34.493 27.292h5.08" style="fill:none;stroke:#840000;stroke-width:.1524;stroke-opacity:1;stroke-linecap:round;stroke-linejoin:round"/>
    <g class="stroked-text" style="fill:none;stroke:#006464;stroke-width:.1524;stroke-opacity:1;stroke-linecap:round;stroke-linejoin:round">
        <path d="M28.176 27.207h-.423M27.753 27.872v-1.27M27.753 26.602h.604M28.72 26.602h.847M29.567 26.602l-.544 1.27M30.958 26.541l-1.089 1.633M31.32 27.509h.605M31.2 27.872l.423-1.27M31.623 26.602l.424 1.27M32.712 26.602h.12M32.833 26.602l.12.06M32.954 26.662l.06.06M33.014 26.723l.06.12M33.075 26.844l.06.242M33.135 27.086v.302M33.135 27.388l-.06.242M33.075 27.63l-.06.12M33.014 27.75l-.06.061M32.954 27.811l-.121.06M32.833 27.872h-.121M32.712 27.872l-.121-.06M32.59 27.811l-.06-.06M32.53 27.75l-.06-.12M32.47 27.63l-.06-.242M32.41 27.388v-.302M32.41 27.086l.06-.242M32.47 26.844l.06-.121M32.53 26.723l.06-.06M32.59 26.662l.122-.06"/>
    </g>
    <g class="stroked-text" style="fill:none;stroke:#a90000;stroke-width:.1524;stroke-opacity:1;stroke-linecap:round;stroke-linejoin:round">
        <path d="M36.791 26.875h-.725M36.428 26.875v-1.27M36.428 25.605l-.12.181M36.308 25.786l-.121.121M36.187 25.907l-.121.06M37.215 25.605h.846M38.061 25.605l-.544 1.27"/>
    </g>
    <path d="M34.493 29.832h5.08" style="fill:none;stroke:#840000;stroke-width:.1524;stroke-opacity:1;stroke-linecap:round;stroke-linejoin:round"/>
    <g class="stroked-text" style="fill:none;stroke:#006464;stroke-width:.1524;stroke-opacity:1;stroke-linecap:round;stroke-linejoin:round">
        <path d="m27.874 29.747.181.06M28.055 29.807l.06.06M28.116 29.868l.06.12M28.176 29.989v.18M28.176 30.17l-.06.12M28.116 30.29l-.06.061M28.055 30.351l-.12.06M27.934 30.412h-.484M27.45 30.412v-1.27M27.45 29.142h.424M27.874 29.142l.12.06M27.995 29.202l.06.06M28.055 29.263l.06.12M28.116 29.384v.12M28.116 29.505l-.06.12M28.055 29.626l-.06.06M27.995 29.686l-.121.06M27.874 29.747h-.424M29.386 30.412h-.726M29.023 30.412v-1.27M29.023 29.142l-.121.181M28.902 29.323l-.121.121M28.78 29.444l-.12.06M30.837 29.081l-1.089 1.633M31.926 30.412H31.2M31.563 30.412v-1.27M31.563 29.142l-.121.181M31.442 29.323l-.121.121M31.32 29.444l-.12.06M33.075 29.142h-.605M32.47 29.142l-.06.605M32.41 29.747l.06-.06M32.47 29.686l.12-.06M32.59 29.626h.303M32.893 29.626l.121.06M33.014 29.686l.06.06M33.075 29.747l.06.12M33.135 29.868v.302M33.135 30.17l-.06.12M33.075 30.29l-.06.061M33.014 30.351l-.12.06M32.893 30.412h-.302M32.59 30.412l-.12-.06M32.47 30.351l-.06-.06"/>
    </g>
    <g class="stroked-text" style="fill:none;stroke:#a90000;stroke-width:.1524;stroke-opacity:1;stroke-linecap:round;stroke-linejoin:round">
        <path d="M36.791 29.415h-.725M36.428 29.415v-1.27M36.428 28.145l-.12.181M36.308 28.326l-.121.121M36.187 28.447l-.121.06M37.88 28.145h-.242M37.638 28.145l-.121.06M37.517 28.205l-.06.06M37.457 28.266l-.121.181M37.336 28.447l-.06.242M37.275 28.69v.483M37.275 29.173l.06.12M37.336 29.294l.06.06M37.396 29.354l.121.06M37.517 29.415h.242M37.759 29.415l.12-.06M37.88 29.354l.06-.06M37.94 29.294l.06-.121M38 29.173v-.302M38 28.87l-.06-.12M37.94 28.75l-.06-.06M37.88 28.69l-.121-.061M37.759 28.629h-.242M37.517 28.629l-.121.06M37.396 28.69l-.06.06M37.336 28.75l-.06.12"/>
    </g>
    <path d="M34.493 32.372h5.08" style="fill:none;stroke:#840000;stroke-width:.1524;stroke-opacity:1;stroke-linecap:round;stroke-linejoin:round"/>
    <g class="stroked-text" style="fill:none;stroke:#006464;stroke-width:.1524;stroke-opacity:1;stroke-linecap:round;stroke-linejoin:round">
        <path d="m27.874 32.287.181.06M28.055 32.347l.06.06M28.116 32.408l.06.12M28.176 32.529v.18M28.176 32.71l-.06.12M28.116 32.83l-.06.061M28.055 32.891l-.12.06M27.934 32.952h-.484M27.45 32.952v-1.27M27.45 31.682h.424M27.874 31.682l.12.06M27.995 31.742l.06.06M28.055 31.803l.06.12M28.116 31.924v.12M28.116 32.045l-.06.12M28.055 32.166l-.06.06M27.995 32.226l-.121.06M27.874 32.287h-.424M28.6 31.682h.786M29.386 31.682l-.424.484M28.962 32.166h.182M29.144 32.166l.12.06M29.265 32.226l.06.06M29.325 32.287l.06.12M29.386 32.408v.302M29.386 32.71l-.06.12M29.325 32.83l-.06.061M29.265 32.891l-.121.06M29.144 32.952h-.363M28.78 32.952l-.12-.06M28.66 32.891l-.06-.06M30.837 31.621l-1.089 1.633M31.926 32.952H31.2M31.563 32.952v-1.27M31.563 31.682l-.121.181M31.442 31.863l-.121.121M31.32 31.984l-.12.06M33.014 32.105v.847M32.712 31.621l-.303.908M32.41 32.529h.786"/>
    </g>
    <g class="stroked-text" style="fill:none;stroke:#a90000;stroke-width:.1524;stroke-opacity:1;stroke-linecap:round;stroke-linejoin:round">
        <path d="M36.791 31.955h-.725M36.428 31.955v-1.27M36.428 30.685l-.12.181M36.308 30.866l-.121.121M36.187 30.987l-.121.06M37.94 30.685h-.604M37.336 30.685l-.06.605M37.275 31.29l.06-.06M37.336 31.23l.12-.061M37.457 31.169h.302M37.759 31.169l.12.06M37.88 31.23l.06.06M37.94 31.29l.06.12M38 31.41v.303M38 31.713l-.06.12M37.94 31.834l-.06.06M37.88 31.894l-.121.06M37.759 31.955h-.303M37.457 31.955l-.121-.06M37.336 31.894l-.06-.06"/>
    </g>
    <path d="M34.493 34.912h5.08" style="fill:none;stroke:#840000;stroke-width:.1524;stroke-opacity:1;stroke-linecap:round;stroke-linejoin:round"/>
    <g class="stroked-text" style="fill:none;stroke:#006464;stroke-width:.1524;stroke-opacity:1;stroke-linecap:round;stroke-linejoin:round">
        <path d="m27.874 34.827.181.06M28.055 34.887l.06.06M28.116 34.948l.06.12M28.176 35.069v.18M28.176 35.25l-.06.12M28.116 35.37l-.06.061M28.055 35.431l-.12.06M27.934 35.492h-.484M27.45 35.492v-1.27M27.45 34.222h.424M27.874 34.222l.12.06M27.995 34.282l.06.06M28.055 34.343l.06.12M28.116 34.464v.12M28.116 34.585l-.06.12M28.055 34.706l-.06.06M27.995 34.766l-.121.06M27.874 34.827h-.424M28.66 34.343l.06-.06M28.72 34.282l.121-.06M28.841 34.222h.303M29.144 34.222l.12.06M29.265 34.282l.06.06M29.325 34.343l.06.12M29.386 34.464v.12M29.386 34.585l-.06.181M29.325 34.766l-.726.726M28.6 35.492h.786M30.837 34.161l-1.089 1.633M31.926 35.492H31.2M31.563 35.492v-1.27M31.563 34.222l-.121.181M31.442 34.403l-.121.121M31.32 34.524l-.12.06M33.014 34.222h-.242M32.772 34.222l-.12.06M32.651 34.282l-.06.06M32.59 34.343l-.12.181M32.47 34.524l-.06.242M32.41 34.766v.484M32.41 35.25l.06.12M32.47 35.37l.06.061M32.53 35.431l.121.06M32.651 35.492h.242M32.893 35.492l.121-.06M33.014 35.431l.06-.06M33.075 35.37l.06-.12M33.135 35.25v-.303M33.135 34.948l-.06-.121M33.075 34.827l-.06-.06M33.014 34.766l-.12-.06M32.893 34.706h-.242M32.651 34.706l-.12.06M32.53 34.766l-.06.06M32.47 34.827l-.06.12"/>
    </g>
    <g class="stroked-text" style="fill:none;stroke:#a90000;stroke-width:.1524;stroke-opacity:1;stroke-linecap:round;stroke-linejoin:round">
        <path d="M36.791 34.495h-.725M36.428 34.495v-1.27M36.428 33.225l-.12.181M36.308 33.406l-.121.121M36.187 33.527l-.121.06M37.88 33.648v.847M37.577 33.164l-.302.907M37.275 34.072h.786"/>
    </g>
    <path d="M34.493 37.452h5.08" style="fill:none;stroke:#840000;stroke-width:.1524;stroke-opacity:1;stroke-linecap:round;stroke-linejoin:round"/>
    <g class="stroked-text" style="fill:none;stroke:#006464;stroke-width:.1524;stroke-opacity:1;stroke-linecap:round;stroke-linejoin:round">
        <path d="m27.874 37.367.181.06M28.055 37.427l.06.06M28.116 37.488l.06.12M28.176 37.609v.18M28.176 37.79l-.06.12M28.116 37.91l-.06.061M28.055 37.971l-.12.06M27.934 38.032h-.484M27.45 38.032v-1.27M27.45 36.762h.424M27.874 36.762l.12.06M27.995 36.822l.06.06M28.055 36.883l.06.12M28.116 37.004v.12M28.116 37.125l-.06.12M28.055 37.246l-.06.06M27.995 37.306l-.121.06M27.874 37.367h-.424M29.265 36.762h-.242M29.023 36.762l-.121.06M28.902 36.822l-.06.06M28.841 36.883l-.12.181M28.72 37.064l-.06.242M28.66 37.306v.484M28.66 37.79l.06.12M28.72 37.91l.06.061M28.78 37.971l.122.06M28.902 38.032h.242M29.144 38.032l.12-.06M29.265 37.971l.06-.06M29.325 37.91l.06-.12M29.386 37.79v-.303M29.386 37.488l-.06-.121M29.325 37.367l-.06-.06M29.265 37.306l-.121-.06M29.144 37.246h-.242M28.902 37.246l-.121.06M28.78 37.306l-.06.06M28.72 37.367l-.06.12M30.837 36.701l-1.089 1.633M31.926 38.032H31.2M31.563 38.032v-1.27M31.563 36.762l-.121.181M31.442 36.943l-.121.121M31.32 37.064l-.12.06M32.712 36.762h.12M32.833 36.762l.12.06M32.954 36.822l.06.06M33.014 36.883l.06.12M33.075 37.004l.06.242M33.135 37.246v.302M33.135 37.548l-.06.242M33.075 37.79l-.06.12M33.014 37.91l-.06.061M32.954 37.971l-.121.06M32.833 38.032h-.121M32.712 38.032l-.121-.06M32.59 37.971l-.06-.06M32.53 37.91l-.06-.12M32.47 37.79l-.06-.242M32.41 37.548v-.302M32.41 37.246l.06-.242M32.47 37.004l.06-.121M32.53 36.883l.06-.06M32.59 36.822l.122-.06"/>
    </g>
    <g class="stroked-text" style="fill:none;stroke:#a90000;stroke-width:.1524;stroke-opacity:1;stroke-linecap:round;stroke-linejoin:round">
        <path d="M36.791 37.035h-.725M36.428 37.035v-1.27M36.428 35.765l-.12.181M36.308 35.946l-.121.121M36.187 36.067l-.121.06M37.215 35.765H38M38 35.765l-.423.484M37.577 36.249h.182M37.759 36.249l.12.06M37.88 36.31l.06.06M37.94 36.37l.06.12M38 36.49v.303M38 36.793l-.06.12M37.94 36.914l-.06.06M37.88 36.974l-.121.06M37.759 37.035h-.363M37.396 37.035l-.12-.06M37.275 36.974l-.06-.06"/>
    </g>
    <g style="fill:none;stroke:#006464;stroke-width:.1524;stroke-opacity:1;stroke-linecap:round;stroke-linejoin:round">
        <g class="stroked-text">
            <path d="M-.907-19.232v1.028M-.907-18.204l.06.12M-.847-18.083l.06.06M-.786-18.023l.12.06M-.665-17.962h.242M-.423-17.962l.12-.06M-.302-18.023l.06-.06M-.242-18.083l.06-.121M-.181-18.204v-1.028M.605-18.083l.06.06M.665-18.023l-.06.06M.605-17.962l-.06-.06M.544-18.023l.06-.06M.605-18.083v.12M.363-19.172l.12-.06M.484-19.232h.302M.786-19.232l.121.06M.907-19.172l.06.121M.968-19.05v.12M.968-18.93l-.06.121M.907-18.809l-.06.06M.847-18.749l-.121.06M.726-18.688l-.06.06M.665-18.628l-.06.121M.605-18.507v.06"/>
        </g>
        <g class="stroked-text">
            <path d="M-10.371 19.122v-1.27M-10.371 17.852h.483M-9.888 17.852l.121.06M-9.767 17.912l.06.06M-9.706 17.973l.06.12M-9.646 18.093v.182M-9.646 18.275l-.06.12M-9.706 18.396l-.06.06M-9.767 18.456l-.12.06M-9.888 18.517h-.483M-9.101 19.122v-.847M-9.101 18.517l.06-.121M-9.041 18.396l.06-.06M-8.98 18.335l.12-.06M-8.86 18.275h.121M-8.134 19.122l-.12-.06M-8.255 19.061l-.06-.06M-8.315 19l-.06-.12M-8.376 18.88v-.363M-8.376 18.517l.06-.121M-8.315 18.396l.06-.06M-8.255 18.335l.121-.06M-8.134 18.275h.182M-7.952 18.275l.12.06M-7.831 18.335l.06.06M-7.771 18.396l.06.12M-7.71 18.517v.363M-7.71 18.88l-.061.12M-7.771 19l-.06.061M-7.831 19.061l-.121.06M-7.952 19.122h-.182M-7.166 19.122v-1.27M-7.166 17.852l.423.907M-6.743 18.759l.423-.907M-6.32 17.852v1.27M-5.715 19.122v-.847M-5.715 17.852l-.06.06M-5.775 17.912l.06.06M-5.715 17.973l.06-.061M-5.654 17.912l-.06-.06M-5.715 17.852v.12M-4.566 19.061l-.12.06M-4.687 19.122h-.242M-4.929 19.122l-.12-.06M-5.05 19.061l-.06-.06M-5.11 19l-.06-.12M-5.17 18.88v-.363M-5.17 18.517l.06-.121M-5.11 18.396l.06-.06M-5.05 18.335l.121-.06M-4.929 18.275h.242M-4.687 18.275l.121.06M-4.021 19.122v-.847M-4.021 18.517l.06-.121M-3.961 18.396l.06-.06M-3.9 18.335l.12-.06M-3.78 18.275h.121M-3.054 19.122l-.12-.06M-3.175 19.061l-.06-.06M-3.235 19l-.06-.12M-3.296 18.88v-.363M-3.296 18.517l.06-.121M-3.235 18.396l.06-.06M-3.175 18.335l.121-.06M-3.054 18.275h.182M-2.872 18.275l.12.06M-2.751 18.335l.06.06M-2.691 18.396l.06.12M-2.63 18.517v.363M-2.63 18.88l-.061.12M-2.691 19l-.06.061M-2.751 19.061l-.121.06M-2.872 19.122h-.182M-2.389 19.243h.968M-1.18 18.759h.606M-1.3 19.122l.423-1.27M-.877 17.852l.424 1.27M-.211 17.852h.725M.151 19.122v-1.27M.937 19.122v-.847M.937 18.396l.06-.06M.998 18.335l.12-.06M1.119 18.275H1.3M1.3 18.275l.121.06M1.421 18.335l.06.121M1.482 18.456v.666M1.482 18.456l.06-.12M1.542 18.335l.121-.06M1.663 18.275h.182M1.845 18.275l.12.06M1.966 18.335l.06.121M2.026 18.456v.666M3.115 19.061l-.121.06M2.994 19.122h-.242M2.752 19.122l-.121-.06M2.63 19.061l-.06-.12M2.57 18.94v-.484M2.57 18.456l.06-.12M2.63 18.335l.122-.06M2.752 18.275h.242M2.994 18.275l.12.06M3.115 18.335l.06.121M3.175 18.456v.121M3.175 18.577l-.605.121M4.264 18.275v1.028M4.264 19.303l-.06.12M4.203 19.424l-.06.06M4.143 19.484l-.121.06M4.022 19.545H3.84M3.84 19.545l-.12-.06M4.264 19.061l-.121.06M4.143 19.122H3.9M3.9 19.122l-.12-.06M3.78 19.061l-.06-.06M3.72 19l-.061-.12M3.659 18.88v-.363M3.659 18.517l.06-.121M3.72 18.396l.06-.06M3.78 18.335l.12-.06M3.9 18.275h.243M4.143 18.275l.12.06M5.413 19.122v-.666M5.413 18.456l-.06-.12M5.352 18.335l-.12-.06M5.231 18.275H4.99M4.99 18.275l-.122.06M5.413 19.061l-.121.06M5.292 19.122h-.303M4.99 19.122l-.122-.06M4.868 19.061l-.06-.12M4.808 18.94v-.12M4.808 18.82l.06-.122M4.868 18.698l.121-.06M4.99 18.638h.302M5.292 18.638l.12-.06M5.896 17.852h.787M6.683 17.852l-.424.483M6.26 18.335h.18M6.44 18.335l.122.06M6.562 18.396l.06.06M6.622 18.456l.06.121M6.683 18.577v.303M6.683 18.88l-.06.12M6.622 19l-.06.061M6.562 19.061l-.121.06M6.44 19.122h-.362M6.078 19.122l-.121-.06M5.957 19.061l-.06-.06M7.166 17.973l.06-.061M7.227 17.912l.12-.06M7.348 17.852h.302M7.65 17.852l.121.06M7.771 17.912l.06.06M7.832 17.973l.06.12M7.892 18.093v.121M7.892 18.214l-.06.182M7.832 18.396l-.726.726M7.106 19.122h.786M8.436 17.852v1.028M8.436 18.88l.06.12M8.497 19l.06.061M8.557 19.061l.121.06M8.678 19.122h.242M8.92 19.122l.121-.06M9.041 19.061l.06-.06M9.102 19l.06-.12M9.162 18.88v-1.028M10.311 18.275v.847M10.009 17.791l-.303.907M9.706 18.698h.787"/>
        </g>
    </g>
</svg>
