<?xml version="1.0" standalone="no"?>
 <!DOCTYPE svg PUBLIC "-//W3C//DTD SVG 1.1//EN" 
 "http://www.w3.org/Graphics/SVG/1.1/DTD/svg11.dtd"> 
<svg
  xmlns:svg="http://www.w3.org/2000/svg"
  xmlns="http://www.w3.org/2000/svg"
  xmlns:xlink="http://www.w3.org/1999/xlink"
  version="1.1"
  width="34.4424mm" height="38.7350mm" viewBox="0.0000 0.0000 34.4424 38.7350">
<title>SVG Image created as XIAO_nRF52840_BAT_unit1.svg date 2025/05/12 03:05:49 </title>
  <desc>Image generated by Eeschema-SVG </desc>
<g style="fill:#000000; fill-opacity:1.0000;stroke:#000000; stroke-opacity:1.0000;
stroke-linecap:round; stroke-linejoin:round;"
 transform="translate(0 0) scale(1 1)">
</g>
<g style="fill:#FFFFC2; fill-opacity:1.0000; stroke:none;">
<rect x="5.791200" y="6.921500" width="22.860000" height="25.400000" rx="0.000000" />
</g>
<g style="fill:none; 
stroke:#840000; stroke-width:0.1524; stroke-opacity:1; 
stroke-linecap:round; stroke-linejoin:round;">
<rect x="5.791200" y="6.921500" width="22.860000" height="25.400000" rx="0.000000" />
<path d="M5.7912 27.8765
L3.2512 27.8765
" />
</g>
<g style="fill:none; 
stroke:#006464; stroke-width:0.1524; stroke-opacity:1; 
stroke-linecap:round; stroke-linejoin:round;">
<text x="6.2992" y="28.5115"
textLength="5.1018" font-size="1.6933" lengthAdjust="spacingAndGlyphs"
text-anchor="start" opacity="0" stroke-opacity="0">BAT-</text>
<g class="stroked-text"><desc>BAT-</desc>
<path d="M7.1251 27.7908
L7.3065 27.8513
" />
<path d="M7.3065 27.8513
L7.3670 27.9117
" />
<path d="M7.3670 27.9117
L7.4274 28.0327
" />
<path d="M7.4274 28.0327
L7.4274 28.2141
" />
<path d="M7.4274 28.2141
L7.3670 28.3351
" />
<path d="M7.3670 28.3351
L7.3065 28.3956
" />
<path d="M7.3065 28.3956
L7.1855 28.4560
" />
<path d="M7.1855 28.4560
L6.7017 28.4560
" />
<path d="M6.7017 28.4560
L6.7017 27.1860
" />
<path d="M6.7017 27.1860
L7.1251 27.1860
" />
<path d="M7.1251 27.1860
L7.2460 27.2465
" />
<path d="M7.2460 27.2465
L7.3065 27.3070
" />
<path d="M7.3065 27.3070
L7.3670 27.4279
" />
<path d="M7.3670 27.4279
L7.3670 27.5489
" />
<path d="M7.3670 27.5489
L7.3065 27.6698
" />
<path d="M7.3065 27.6698
L7.2460 27.7303
" />
<path d="M7.2460 27.7303
L7.1251 27.7908
" />
<path d="M7.1251 27.7908
L6.7017 27.7908
" />
<path d="M7.9113 28.0932
L8.5160 28.0932
" />
<path d="M7.7903 28.4560
L8.2136 27.1860
" />
<path d="M8.2136 27.1860
L8.6370 28.4560
" />
<path d="M8.8789 27.1860
L9.6046 27.1860
" />
<path d="M9.2418 28.4560
L9.2418 27.1860
" />
<path d="M10.0279 27.9722
L10.9956 27.9722
" />
</g></g>
<g style="fill:none; 
stroke:#A90000; stroke-width:0.1524; stroke-opacity:1; 
stroke-linecap:round; stroke-linejoin:round;">
<text x="4.5212" y="27.6225"
textLength="2.6827" font-size="1.6933" lengthAdjust="spacingAndGlyphs"
text-anchor="middle" opacity="0" stroke-opacity="0">B1</text>
<g class="stroked-text"><desc>B1</desc>
<path d="M4.0072 26.7938
L4.1886 26.8543
" />
<path d="M4.1886 26.8543
L4.2491 26.9147
" />
<path d="M4.2491 26.9147
L4.3095 27.0357
" />
<path d="M4.3095 27.0357
L4.3095 27.2171
" />
<path d="M4.3095 27.2171
L4.2491 27.3381
" />
<path d="M4.2491 27.3381
L4.1886 27.3986
" />
<path d="M4.1886 27.3986
L4.0676 27.4590
" />
<path d="M4.0676 27.4590
L3.5838 27.4590
" />
<path d="M3.5838 27.4590
L3.5838 26.1890
" />
<path d="M3.5838 26.1890
L4.0072 26.1890
" />
<path d="M4.0072 26.1890
L4.1281 26.2495
" />
<path d="M4.1281 26.2495
L4.1886 26.3100
" />
<path d="M4.1886 26.3100
L4.2491 26.4309
" />
<path d="M4.2491 26.4309
L4.2491 26.5519
" />
<path d="M4.2491 26.5519
L4.1886 26.6728
" />
<path d="M4.1886 26.6728
L4.1281 26.7333
" />
<path d="M4.1281 26.7333
L4.0072 26.7938
" />
<path d="M4.0072 26.7938
L3.5838 26.7938
" />
<path d="M5.5191 27.4590
L4.7934 27.4590
" />
<path d="M5.1562 27.4590
L5.1562 26.1890
" />
<path d="M5.1562 26.1890
L5.0353 26.3705
" />
<path d="M5.0353 26.3705
L4.9143 26.4914
" />
<path d="M4.9143 26.4914
L4.7934 26.5519
" />
</g></g>
<g style="fill:none; 
stroke:#840000; stroke-width:0.1524; stroke-opacity:1; 
stroke-linecap:round; stroke-linejoin:round;">
<path d="M5.7912 30.4165
L3.2512 30.4165
" />
</g>
<g style="fill:none; 
stroke:#006464; stroke-width:0.1524; stroke-opacity:1; 
stroke-linecap:round; stroke-linejoin:round;">
<text x="6.2992" y="31.0515"
textLength="5.1018" font-size="1.6933" lengthAdjust="spacingAndGlyphs"
text-anchor="start" opacity="0" stroke-opacity="0">BAT+</text>
<g class="stroked-text"><desc>BAT+</desc>
<path d="M7.1251 30.3308
L7.3065 30.3913
" />
<path d="M7.3065 30.3913
L7.3670 30.4517
" />
<path d="M7.3670 30.4517
L7.4274 30.5727
" />
<path d="M7.4274 30.5727
L7.4274 30.7541
" />
<path d="M7.4274 30.7541
L7.3670 30.8751
" />
<path d="M7.3670 30.8751
L7.3065 30.9356
" />
<path d="M7.3065 30.9356
L7.1855 30.9960
" />
<path d="M7.1855 30.9960
L6.7017 30.9960
" />
<path d="M6.7017 30.9960
L6.7017 29.7260
" />
<path d="M6.7017 29.7260
L7.1251 29.7260
" />
<path d="M7.1251 29.7260
L7.2460 29.7865
" />
<path d="M7.2460 29.7865
L7.3065 29.8470
" />
<path d="M7.3065 29.8470
L7.3670 29.9679
" />
<path d="M7.3670 29.9679
L7.3670 30.0889
" />
<path d="M7.3670 30.0889
L7.3065 30.2098
" />
<path d="M7.3065 30.2098
L7.2460 30.2703
" />
<path d="M7.2460 30.2703
L7.1251 30.3308
" />
<path d="M7.1251 30.3308
L6.7017 30.3308
" />
<path d="M7.9113 30.6332
L8.5160 30.6332
" />
<path d="M7.7903 30.9960
L8.2136 29.7260
" />
<path d="M8.2136 29.7260
L8.6370 30.9960
" />
<path d="M8.8789 29.7260
L9.6046 29.7260
" />
<path d="M9.2418 30.9960
L9.2418 29.7260
" />
<path d="M10.0279 30.5122
L10.9956 30.5122
" />
<path d="M10.5117 30.9960
L10.5117 30.0284
" />
</g></g>
<g style="fill:none; 
stroke:#A90000; stroke-width:0.1524; stroke-opacity:1; 
stroke-linecap:round; stroke-linejoin:round;">
<text x="4.5212" y="30.1625"
textLength="2.6827" font-size="1.6933" lengthAdjust="spacingAndGlyphs"
text-anchor="middle" opacity="0" stroke-opacity="0">B2</text>
<g class="stroked-text"><desc>B2</desc>
<path d="M4.0072 29.3338
L4.1886 29.3943
" />
<path d="M4.1886 29.3943
L4.2491 29.4547
" />
<path d="M4.2491 29.4547
L4.3095 29.5757
" />
<path d="M4.3095 29.5757
L4.3095 29.7571
" />
<path d="M4.3095 29.7571
L4.2491 29.8781
" />
<path d="M4.2491 29.8781
L4.1886 29.9386
" />
<path d="M4.1886 29.9386
L4.0676 29.9990
" />
<path d="M4.0676 29.9990
L3.5838 29.9990
" />
<path d="M3.5838 29.9990
L3.5838 28.7290
" />
<path d="M3.5838 28.7290
L4.0072 28.7290
" />
<path d="M4.0072 28.7290
L4.1281 28.7895
" />
<path d="M4.1281 28.7895
L4.1886 28.8500
" />
<path d="M4.1886 28.8500
L4.2491 28.9709
" />
<path d="M4.2491 28.9709
L4.2491 29.0919
" />
<path d="M4.2491 29.0919
L4.1886 29.2128
" />
<path d="M4.1886 29.2128
L4.1281 29.2733
" />
<path d="M4.1281 29.2733
L4.0072 29.3338
" />
<path d="M4.0072 29.3338
L3.5838 29.3338
" />
<path d="M4.7934 28.8500
L4.8538 28.7895
" />
<path d="M4.8538 28.7895
L4.9748 28.7290
" />
<path d="M4.9748 28.7290
L5.2772 28.7290
" />
<path d="M5.2772 28.7290
L5.3981 28.7895
" />
<path d="M5.3981 28.7895
L5.4586 28.8500
" />
<path d="M5.4586 28.8500
L5.5191 28.9709
" />
<path d="M5.5191 28.9709
L5.5191 29.0919
" />
<path d="M5.5191 29.0919
L5.4586 29.2733
" />
<path d="M5.4586 29.2733
L4.7329 29.9990
" />
<path d="M4.7329 29.9990
L5.5191 29.9990
" />
</g></g>
<g style="fill:none; 
stroke:#840000; stroke-width:0.1524; stroke-opacity:1; 
stroke-linecap:round; stroke-linejoin:round;">
<path d="M5.7912 8.8265
L3.2512 8.8265
" />
</g>
<g style="fill:none; 
stroke:#006464; stroke-width:0.1524; stroke-opacity:1; 
stroke-linecap:round; stroke-linejoin:round;">
<text x="6.2992" y="9.4615"
textLength="6.3113" font-size="1.6933" lengthAdjust="spacingAndGlyphs"
text-anchor="start" opacity="0" stroke-opacity="0">D0/A0</text>
<g class="stroked-text"><desc>D0/A0</desc>
<path d="M6.7017 9.4060
L6.7017 8.1360
" />
<path d="M6.7017 8.1360
L7.0041 8.1360
" />
<path d="M7.0041 8.1360
L7.1855 8.1965
" />
<path d="M7.1855 8.1965
L7.3065 8.3175
" />
<path d="M7.3065 8.3175
L7.3670 8.4384
" />
<path d="M7.3670 8.4384
L7.4274 8.6803
" />
<path d="M7.4274 8.6803
L7.4274 8.8617
" />
<path d="M7.4274 8.8617
L7.3670 9.1036
" />
<path d="M7.3670 9.1036
L7.3065 9.2246
" />
<path d="M7.3065 9.2246
L7.1855 9.3456
" />
<path d="M7.1855 9.3456
L7.0041 9.4060
" />
<path d="M7.0041 9.4060
L6.7017 9.4060
" />
<path d="M8.2136 8.1360
L8.3346 8.1360
" />
<path d="M8.3346 8.1360
L8.4555 8.1965
" />
<path d="M8.4555 8.1965
L8.5160 8.2570
" />
<path d="M8.5160 8.2570
L8.5765 8.3779
" />
<path d="M8.5765 8.3779
L8.6370 8.6198
" />
<path d="M8.6370 8.6198
L8.6370 8.9222
" />
<path d="M8.6370 8.9222
L8.5765 9.1641
" />
<path d="M8.5765 9.1641
L8.5160 9.2851
" />
<path d="M8.5160 9.2851
L8.4555 9.3456
" />
<path d="M8.4555 9.3456
L8.3346 9.4060
" />
<path d="M8.3346 9.4060
L8.2136 9.4060
" />
<path d="M8.2136 9.4060
L8.0927 9.3456
" />
<path d="M8.0927 9.3456
L8.0322 9.2851
" />
<path d="M8.0322 9.2851
L7.9717 9.1641
" />
<path d="M7.9717 9.1641
L7.9113 8.9222
" />
<path d="M7.9113 8.9222
L7.9113 8.6198
" />
<path d="M7.9113 8.6198
L7.9717 8.3779
" />
<path d="M7.9717 8.3779
L8.0322 8.2570
" />
<path d="M8.0322 8.2570
L8.0927 8.1965
" />
<path d="M8.0927 8.1965
L8.2136 8.1360
" />
<path d="M10.0884 8.0756
L8.9998 9.7084
" />
<path d="M10.4513 9.0432
L11.0560 9.0432
" />
<path d="M10.3303 9.4060
L10.7536 8.1360
" />
<path d="M10.7536 8.1360
L11.1770 9.4060
" />
<path d="M11.8422 8.1360
L11.9632 8.1360
" />
<path d="M11.9632 8.1360
L12.0841 8.1965
" />
<path d="M12.0841 8.1965
L12.1446 8.2570
" />
<path d="M12.1446 8.2570
L12.2051 8.3779
" />
<path d="M12.2051 8.3779
L12.2656 8.6198
" />
<path d="M12.2656 8.6198
L12.2656 8.9222
" />
<path d="M12.2656 8.9222
L12.2051 9.1641
" />
<path d="M12.2051 9.1641
L12.1446 9.2851
" />
<path d="M12.1446 9.2851
L12.0841 9.3456
" />
<path d="M12.0841 9.3456
L11.9632 9.4060
" />
<path d="M11.9632 9.4060
L11.8422 9.4060
" />
<path d="M11.8422 9.4060
L11.7213 9.3456
" />
<path d="M11.7213 9.3456
L11.6608 9.2851
" />
<path d="M11.6608 9.2851
L11.6003 9.1641
" />
<path d="M11.6003 9.1641
L11.5399 8.9222
" />
<path d="M11.5399 8.9222
L11.5399 8.6198
" />
<path d="M11.5399 8.6198
L11.6003 8.3779
" />
<path d="M11.6003 8.3779
L11.6608 8.2570
" />
<path d="M11.6608 8.2570
L11.7213 8.1965
" />
<path d="M11.7213 8.1965
L11.8422 8.1360
" />
</g></g>
<g style="fill:none; 
stroke:#A90000; stroke-width:0.1524; stroke-opacity:1; 
stroke-linecap:round; stroke-linejoin:round;">
<text x="4.5212" y="8.5725"
textLength="1.4127" font-size="1.6933" lengthAdjust="spacingAndGlyphs"
text-anchor="middle" opacity="0" stroke-opacity="0">1</text>
<g class="stroked-text"><desc>1</desc>
<path d="M4.8841 8.4090
L4.1584 8.4090
" />
<path d="M4.5212 8.4090
L4.5212 7.1390
" />
<path d="M4.5212 7.1390
L4.4003 7.3205
" />
<path d="M4.4003 7.3205
L4.2793 7.4414
" />
<path d="M4.2793 7.4414
L4.1584 7.5019
" />
</g></g>
<g style="fill:none; 
stroke:#840000; stroke-width:0.1524; stroke-opacity:1; 
stroke-linecap:round; stroke-linejoin:round;">
<path d="M5.7912 11.3665
L3.2512 11.3665
" />
</g>
<g style="fill:none; 
stroke:#006464; stroke-width:0.1524; stroke-opacity:1; 
stroke-linecap:round; stroke-linejoin:round;">
<text x="6.2992" y="12.0015"
textLength="6.3113" font-size="1.6933" lengthAdjust="spacingAndGlyphs"
text-anchor="start" opacity="0" stroke-opacity="0">D1/A1</text>
<g class="stroked-text"><desc>D1/A1</desc>
<path d="M6.7017 11.9460
L6.7017 10.6760
" />
<path d="M6.7017 10.6760
L7.0041 10.6760
" />
<path d="M7.0041 10.6760
L7.1855 10.7365
" />
<path d="M7.1855 10.7365
L7.3065 10.8575
" />
<path d="M7.3065 10.8575
L7.3670 10.9784
" />
<path d="M7.3670 10.9784
L7.4274 11.2203
" />
<path d="M7.4274 11.2203
L7.4274 11.4017
" />
<path d="M7.4274 11.4017
L7.3670 11.6436
" />
<path d="M7.3670 11.6436
L7.3065 11.7646
" />
<path d="M7.3065 11.7646
L7.1855 11.8856
" />
<path d="M7.1855 11.8856
L7.0041 11.9460
" />
<path d="M7.0041 11.9460
L6.7017 11.9460
" />
<path d="M8.6370 11.9460
L7.9113 11.9460
" />
<path d="M8.2741 11.9460
L8.2741 10.6760
" />
<path d="M8.2741 10.6760
L8.1532 10.8575
" />
<path d="M8.1532 10.8575
L8.0322 10.9784
" />
<path d="M8.0322 10.9784
L7.9113 11.0389
" />
<path d="M10.0884 10.6156
L8.9998 12.2484
" />
<path d="M10.4513 11.5832
L11.0560 11.5832
" />
<path d="M10.3303 11.9460
L10.7536 10.6760
" />
<path d="M10.7536 10.6760
L11.1770 11.9460
" />
<path d="M12.2656 11.9460
L11.5399 11.9460
" />
<path d="M11.9027 11.9460
L11.9027 10.6760
" />
<path d="M11.9027 10.6760
L11.7818 10.8575
" />
<path d="M11.7818 10.8575
L11.6608 10.9784
" />
<path d="M11.6608 10.9784
L11.5399 11.0389
" />
</g></g>
<g style="fill:none; 
stroke:#A90000; stroke-width:0.1524; stroke-opacity:1; 
stroke-linecap:round; stroke-linejoin:round;">
<text x="4.5212" y="11.1125"
textLength="1.4127" font-size="1.6933" lengthAdjust="spacingAndGlyphs"
text-anchor="middle" opacity="0" stroke-opacity="0">2</text>
<g class="stroked-text"><desc>2</desc>
<path d="M4.1584 9.8000
L4.2188 9.7395
" />
<path d="M4.2188 9.7395
L4.3398 9.6790
" />
<path d="M4.3398 9.6790
L4.6422 9.6790
" />
<path d="M4.6422 9.6790
L4.7631 9.7395
" />
<path d="M4.7631 9.7395
L4.8236 9.8000
" />
<path d="M4.8236 9.8000
L4.8841 9.9209
" />
<path d="M4.8841 9.9209
L4.8841 10.0419
" />
<path d="M4.8841 10.0419
L4.8236 10.2233
" />
<path d="M4.8236 10.2233
L4.0979 10.9490
" />
<path d="M4.0979 10.9490
L4.8841 10.9490
" />
</g></g>
<g style="fill:none; 
stroke:#840000; stroke-width:0.1524; stroke-opacity:1; 
stroke-linecap:round; stroke-linejoin:round;">
<path d="M5.7912 13.9065
L3.2512 13.9065
" />
</g>
<g style="fill:none; 
stroke:#006464; stroke-width:0.1524; stroke-opacity:1; 
stroke-linecap:round; stroke-linejoin:round;">
<text x="6.2992" y="14.5415"
textLength="6.3113" font-size="1.6933" lengthAdjust="spacingAndGlyphs"
text-anchor="start" opacity="0" stroke-opacity="0">D2/A2</text>
<g class="stroked-text"><desc>D2/A2</desc>
<path d="M6.7017 14.4860
L6.7017 13.2160
" />
<path d="M6.7017 13.2160
L7.0041 13.2160
" />
<path d="M7.0041 13.2160
L7.1855 13.2765
" />
<path d="M7.1855 13.2765
L7.3065 13.3975
" />
<path d="M7.3065 13.3975
L7.3670 13.5184
" />
<path d="M7.3670 13.5184
L7.4274 13.7603
" />
<path d="M7.4274 13.7603
L7.4274 13.9417
" />
<path d="M7.4274 13.9417
L7.3670 14.1836
" />
<path d="M7.3670 14.1836
L7.3065 14.3046
" />
<path d="M7.3065 14.3046
L7.1855 14.4256
" />
<path d="M7.1855 14.4256
L7.0041 14.4860
" />
<path d="M7.0041 14.4860
L6.7017 14.4860
" />
<path d="M7.9113 13.3370
L7.9717 13.2765
" />
<path d="M7.9717 13.2765
L8.0927 13.2160
" />
<path d="M8.0927 13.2160
L8.3951 13.2160
" />
<path d="M8.3951 13.2160
L8.5160 13.2765
" />
<path d="M8.5160 13.2765
L8.5765 13.3370
" />
<path d="M8.5765 13.3370
L8.6370 13.4579
" />
<path d="M8.6370 13.4579
L8.6370 13.5789
" />
<path d="M8.6370 13.5789
L8.5765 13.7603
" />
<path d="M8.5765 13.7603
L7.8508 14.4860
" />
<path d="M7.8508 14.4860
L8.6370 14.4860
" />
<path d="M10.0884 13.1556
L8.9998 14.7884
" />
<path d="M10.4513 14.1232
L11.0560 14.1232
" />
<path d="M10.3303 14.4860
L10.7536 13.2160
" />
<path d="M10.7536 13.2160
L11.1770 14.4860
" />
<path d="M11.5399 13.3370
L11.6003 13.2765
" />
<path d="M11.6003 13.2765
L11.7213 13.2160
" />
<path d="M11.7213 13.2160
L12.0237 13.2160
" />
<path d="M12.0237 13.2160
L12.1446 13.2765
" />
<path d="M12.1446 13.2765
L12.2051 13.3370
" />
<path d="M12.2051 13.3370
L12.2656 13.4579
" />
<path d="M12.2656 13.4579
L12.2656 13.5789
" />
<path d="M12.2656 13.5789
L12.2051 13.7603
" />
<path d="M12.2051 13.7603
L11.4794 14.4860
" />
<path d="M11.4794 14.4860
L12.2656 14.4860
" />
</g></g>
<g style="fill:none; 
stroke:#A90000; stroke-width:0.1524; stroke-opacity:1; 
stroke-linecap:round; stroke-linejoin:round;">
<text x="4.5212" y="13.6525"
textLength="1.4127" font-size="1.6933" lengthAdjust="spacingAndGlyphs"
text-anchor="middle" opacity="0" stroke-opacity="0">3</text>
<g class="stroked-text"><desc>3</desc>
<path d="M4.0979 12.2190
L4.8841 12.2190
" />
<path d="M4.8841 12.2190
L4.4607 12.7028
" />
<path d="M4.4607 12.7028
L4.6422 12.7028
" />
<path d="M4.6422 12.7028
L4.7631 12.7633
" />
<path d="M4.7631 12.7633
L4.8236 12.8238
" />
<path d="M4.8236 12.8238
L4.8841 12.9447
" />
<path d="M4.8841 12.9447
L4.8841 13.2471
" />
<path d="M4.8841 13.2471
L4.8236 13.3681
" />
<path d="M4.8236 13.3681
L4.7631 13.4286
" />
<path d="M4.7631 13.4286
L4.6422 13.4890
" />
<path d="M4.6422 13.4890
L4.2793 13.4890
" />
<path d="M4.2793 13.4890
L4.1584 13.4286
" />
<path d="M4.1584 13.4286
L4.0979 13.3681
" />
</g></g>
<g style="fill:none; 
stroke:#840000; stroke-width:0.1524; stroke-opacity:1; 
stroke-linecap:round; stroke-linejoin:round;">
<path d="M5.7912 16.4465
L3.2512 16.4465
" />
</g>
<g style="fill:none; 
stroke:#006464; stroke-width:0.1524; stroke-opacity:1; 
stroke-linecap:round; stroke-linejoin:round;">
<text x="6.2992" y="17.0815"
textLength="6.3113" font-size="1.6933" lengthAdjust="spacingAndGlyphs"
text-anchor="start" opacity="0" stroke-opacity="0">D3/A3</text>
<g class="stroked-text"><desc>D3/A3</desc>
<path d="M6.7017 17.0260
L6.7017 15.7560
" />
<path d="M6.7017 15.7560
L7.0041 15.7560
" />
<path d="M7.0041 15.7560
L7.1855 15.8165
" />
<path d="M7.1855 15.8165
L7.3065 15.9375
" />
<path d="M7.3065 15.9375
L7.3670 16.0584
" />
<path d="M7.3670 16.0584
L7.4274 16.3003
" />
<path d="M7.4274 16.3003
L7.4274 16.4817
" />
<path d="M7.4274 16.4817
L7.3670 16.7236
" />
<path d="M7.3670 16.7236
L7.3065 16.8446
" />
<path d="M7.3065 16.8446
L7.1855 16.9656
" />
<path d="M7.1855 16.9656
L7.0041 17.0260
" />
<path d="M7.0041 17.0260
L6.7017 17.0260
" />
<path d="M7.8508 15.7560
L8.6370 15.7560
" />
<path d="M8.6370 15.7560
L8.2136 16.2398
" />
<path d="M8.2136 16.2398
L8.3951 16.2398
" />
<path d="M8.3951 16.2398
L8.5160 16.3003
" />
<path d="M8.5160 16.3003
L8.5765 16.3608
" />
<path d="M8.5765 16.3608
L8.6370 16.4817
" />
<path d="M8.6370 16.4817
L8.6370 16.7841
" />
<path d="M8.6370 16.7841
L8.5765 16.9051
" />
<path d="M8.5765 16.9051
L8.5160 16.9656
" />
<path d="M8.5160 16.9656
L8.3951 17.0260
" />
<path d="M8.3951 17.0260
L8.0322 17.0260
" />
<path d="M8.0322 17.0260
L7.9113 16.9656
" />
<path d="M7.9113 16.9656
L7.8508 16.9051
" />
<path d="M10.0884 15.6956
L8.9998 17.3284
" />
<path d="M10.4513 16.6632
L11.0560 16.6632
" />
<path d="M10.3303 17.0260
L10.7536 15.7560
" />
<path d="M10.7536 15.7560
L11.1770 17.0260
" />
<path d="M11.4794 15.7560
L12.2656 15.7560
" />
<path d="M12.2656 15.7560
L11.8422 16.2398
" />
<path d="M11.8422 16.2398
L12.0237 16.2398
" />
<path d="M12.0237 16.2398
L12.1446 16.3003
" />
<path d="M12.1446 16.3003
L12.2051 16.3608
" />
<path d="M12.2051 16.3608
L12.2656 16.4817
" />
<path d="M12.2656 16.4817
L12.2656 16.7841
" />
<path d="M12.2656 16.7841
L12.2051 16.9051
" />
<path d="M12.2051 16.9051
L12.1446 16.9656
" />
<path d="M12.1446 16.9656
L12.0237 17.0260
" />
<path d="M12.0237 17.0260
L11.6608 17.0260
" />
<path d="M11.6608 17.0260
L11.5399 16.9656
" />
<path d="M11.5399 16.9656
L11.4794 16.9051
" />
</g></g>
<g style="fill:none; 
stroke:#A90000; stroke-width:0.1524; stroke-opacity:1; 
stroke-linecap:round; stroke-linejoin:round;">
<text x="4.5212" y="16.1925"
textLength="1.4127" font-size="1.6933" lengthAdjust="spacingAndGlyphs"
text-anchor="middle" opacity="0" stroke-opacity="0">4</text>
<g class="stroked-text"><desc>4</desc>
<path d="M4.7631 15.1824
L4.7631 16.0290
" />
<path d="M4.4607 14.6986
L4.1584 15.6057
" />
<path d="M4.1584 15.6057
L4.9445 15.6057
" />
</g></g>
<g style="fill:none; 
stroke:#840000; stroke-width:0.1524; stroke-opacity:1; 
stroke-linecap:round; stroke-linejoin:round;">
<path d="M5.7912 18.9865
L3.2512 18.9865
" />
</g>
<g style="fill:none; 
stroke:#006464; stroke-width:0.1524; stroke-opacity:1; 
stroke-linecap:round; stroke-linejoin:round;">
<text x="6.2992" y="19.6215"
textLength="7.5813" font-size="1.6933" lengthAdjust="spacingAndGlyphs"
text-anchor="start" opacity="0" stroke-opacity="0">D4/SDA</text>
<g class="stroked-text"><desc>D4/SDA</desc>
<path d="M6.7017 19.5660
L6.7017 18.2960
" />
<path d="M6.7017 18.2960
L7.0041 18.2960
" />
<path d="M7.0041 18.2960
L7.1855 18.3565
" />
<path d="M7.1855 18.3565
L7.3065 18.4775
" />
<path d="M7.3065 18.4775
L7.3670 18.5984
" />
<path d="M7.3670 18.5984
L7.4274 18.8403
" />
<path d="M7.4274 18.8403
L7.4274 19.0217
" />
<path d="M7.4274 19.0217
L7.3670 19.2636
" />
<path d="M7.3670 19.2636
L7.3065 19.3846
" />
<path d="M7.3065 19.3846
L7.1855 19.5056
" />
<path d="M7.1855 19.5056
L7.0041 19.5660
" />
<path d="M7.0041 19.5660
L6.7017 19.5660
" />
<path d="M8.5160 18.7194
L8.5160 19.5660
" />
<path d="M8.2136 18.2356
L7.9113 19.1427
" />
<path d="M7.9113 19.1427
L8.6974 19.1427
" />
<path d="M10.0884 18.2356
L8.9998 19.8684
" />
<path d="M10.4513 19.5056
L10.6327 19.5660
" />
<path d="M10.6327 19.5660
L10.9351 19.5660
" />
<path d="M10.9351 19.5660
L11.0560 19.5056
" />
<path d="M11.0560 19.5056
L11.1165 19.4451
" />
<path d="M11.1165 19.4451
L11.1770 19.3241
" />
<path d="M11.1770 19.3241
L11.1770 19.2032
" />
<path d="M11.1770 19.2032
L11.1165 19.0822
" />
<path d="M11.1165 19.0822
L11.0560 19.0217
" />
<path d="M11.0560 19.0217
L10.9351 18.9613
" />
<path d="M10.9351 18.9613
L10.6932 18.9008
" />
<path d="M10.6932 18.9008
L10.5722 18.8403
" />
<path d="M10.5722 18.8403
L10.5117 18.7798
" />
<path d="M10.5117 18.7798
L10.4513 18.6589
" />
<path d="M10.4513 18.6589
L10.4513 18.5379
" />
<path d="M10.4513 18.5379
L10.5117 18.4170
" />
<path d="M10.5117 18.4170
L10.5722 18.3565
" />
<path d="M10.5722 18.3565
L10.6932 18.2960
" />
<path d="M10.6932 18.2960
L10.9955 18.2960
" />
<path d="M10.9955 18.2960
L11.1770 18.3565
" />
<path d="M11.7212 19.5660
L11.7212 18.2960
" />
<path d="M11.7212 18.2960
L12.0236 18.2960
" />
<path d="M12.0236 18.2960
L12.2050 18.3565
" />
<path d="M12.2050 18.3565
L12.3260 18.4775
" />
<path d="M12.3260 18.4775
L12.3865 18.5984
" />
<path d="M12.3865 18.5984
L12.4469 18.8403
" />
<path d="M12.4469 18.8403
L12.4469 19.0217
" />
<path d="M12.4469 19.0217
L12.3865 19.2636
" />
<path d="M12.3865 19.2636
L12.3260 19.3846
" />
<path d="M12.3260 19.3846
L12.2050 19.5056
" />
<path d="M12.2050 19.5056
L12.0236 19.5660
" />
<path d="M12.0236 19.5660
L11.7212 19.5660
" />
<path d="M12.9308 19.2032
L13.5355 19.2032
" />
<path d="M12.8098 19.5660
L13.2331 18.2960
" />
<path d="M13.2331 18.2960
L13.6565 19.5660
" />
</g></g>
<g style="fill:none; 
stroke:#A90000; stroke-width:0.1524; stroke-opacity:1; 
stroke-linecap:round; stroke-linejoin:round;">
<text x="4.5212" y="18.7325"
textLength="1.4127" font-size="1.6933" lengthAdjust="spacingAndGlyphs"
text-anchor="middle" opacity="0" stroke-opacity="0">5</text>
<g class="stroked-text"><desc>5</desc>
<path d="M4.8236 17.2990
L4.2188 17.2990
" />
<path d="M4.2188 17.2990
L4.1584 17.9038
" />
<path d="M4.1584 17.9038
L4.2188 17.8433
" />
<path d="M4.2188 17.8433
L4.3398 17.7828
" />
<path d="M4.3398 17.7828
L4.6422 17.7828
" />
<path d="M4.6422 17.7828
L4.7631 17.8433
" />
<path d="M4.7631 17.8433
L4.8236 17.9038
" />
<path d="M4.8236 17.9038
L4.8841 18.0247
" />
<path d="M4.8841 18.0247
L4.8841 18.3271
" />
<path d="M4.8841 18.3271
L4.8236 18.4481
" />
<path d="M4.8236 18.4481
L4.7631 18.5086
" />
<path d="M4.7631 18.5086
L4.6422 18.5690
" />
<path d="M4.6422 18.5690
L4.3398 18.5690
" />
<path d="M4.3398 18.5690
L4.2188 18.5086
" />
<path d="M4.2188 18.5086
L4.1584 18.4481
" />
</g></g>
<g style="fill:none; 
stroke:#840000; stroke-width:0.1524; stroke-opacity:1; 
stroke-linecap:round; stroke-linejoin:round;">
<path d="M5.7912 21.5265
L3.2512 21.5265
" />
</g>
<g style="fill:none; 
stroke:#006464; stroke-width:0.1524; stroke-opacity:1; 
stroke-linecap:round; stroke-linejoin:round;">
<text x="6.2992" y="22.1615"
textLength="7.5208" font-size="1.6933" lengthAdjust="spacingAndGlyphs"
text-anchor="start" opacity="0" stroke-opacity="0">D5/SCL</text>
<g class="stroked-text"><desc>D5/SCL</desc>
<path d="M6.7017 22.1060
L6.7017 20.8360
" />
<path d="M6.7017 20.8360
L7.0041 20.8360
" />
<path d="M7.0041 20.8360
L7.1855 20.8965
" />
<path d="M7.1855 20.8965
L7.3065 21.0175
" />
<path d="M7.3065 21.0175
L7.3670 21.1384
" />
<path d="M7.3670 21.1384
L7.4274 21.3803
" />
<path d="M7.4274 21.3803
L7.4274 21.5617
" />
<path d="M7.4274 21.5617
L7.3670 21.8036
" />
<path d="M7.3670 21.8036
L7.3065 21.9246
" />
<path d="M7.3065 21.9246
L7.1855 22.0456
" />
<path d="M7.1855 22.0456
L7.0041 22.1060
" />
<path d="M7.0041 22.1060
L6.7017 22.1060
" />
<path d="M8.5765 20.8360
L7.9717 20.8360
" />
<path d="M7.9717 20.8360
L7.9113 21.4408
" />
<path d="M7.9113 21.4408
L7.9717 21.3803
" />
<path d="M7.9717 21.3803
L8.0927 21.3198
" />
<path d="M8.0927 21.3198
L8.3951 21.3198
" />
<path d="M8.3951 21.3198
L8.5160 21.3803
" />
<path d="M8.5160 21.3803
L8.5765 21.4408
" />
<path d="M8.5765 21.4408
L8.6370 21.5617
" />
<path d="M8.6370 21.5617
L8.6370 21.8641
" />
<path d="M8.6370 21.8641
L8.5765 21.9851
" />
<path d="M8.5765 21.9851
L8.5160 22.0456
" />
<path d="M8.5160 22.0456
L8.3951 22.1060
" />
<path d="M8.3951 22.1060
L8.0927 22.1060
" />
<path d="M8.0927 22.1060
L7.9717 22.0456
" />
<path d="M7.9717 22.0456
L7.9113 21.9851
" />
<path d="M10.0884 20.7756
L8.9998 22.4084
" />
<path d="M10.4513 22.0456
L10.6327 22.1060
" />
<path d="M10.6327 22.1060
L10.9351 22.1060
" />
<path d="M10.9351 22.1060
L11.0560 22.0456
" />
<path d="M11.0560 22.0456
L11.1165 21.9851
" />
<path d="M11.1165 21.9851
L11.1770 21.8641
" />
<path d="M11.1770 21.8641
L11.1770 21.7432
" />
<path d="M11.1770 21.7432
L11.1165 21.6222
" />
<path d="M11.1165 21.6222
L11.0560 21.5617
" />
<path d="M11.0560 21.5617
L10.9351 21.5013
" />
<path d="M10.9351 21.5013
L10.6932 21.4408
" />
<path d="M10.6932 21.4408
L10.5722 21.3803
" />
<path d="M10.5722 21.3803
L10.5117 21.3198
" />
<path d="M10.5117 21.3198
L10.4513 21.1989
" />
<path d="M10.4513 21.1989
L10.4513 21.0779
" />
<path d="M10.4513 21.0779
L10.5117 20.9570
" />
<path d="M10.5117 20.9570
L10.5722 20.8965
" />
<path d="M10.5722 20.8965
L10.6932 20.8360
" />
<path d="M10.6932 20.8360
L10.9955 20.8360
" />
<path d="M10.9955 20.8360
L11.1770 20.8965
" />
<path d="M12.4469 21.9851
L12.3865 22.0456
" />
<path d="M12.3865 22.0456
L12.2050 22.1060
" />
<path d="M12.2050 22.1060
L12.0841 22.1060
" />
<path d="M12.0841 22.1060
L11.9027 22.0456
" />
<path d="M11.9027 22.0456
L11.7817 21.9246
" />
<path d="M11.7817 21.9246
L11.7212 21.8036
" />
<path d="M11.7212 21.8036
L11.6608 21.5617
" />
<path d="M11.6608 21.5617
L11.6608 21.3803
" />
<path d="M11.6608 21.3803
L11.7212 21.1384
" />
<path d="M11.7212 21.1384
L11.7817 21.0175
" />
<path d="M11.7817 21.0175
L11.9027 20.8965
" />
<path d="M11.9027 20.8965
L12.0841 20.8360
" />
<path d="M12.0841 20.8360
L12.2050 20.8360
" />
<path d="M12.2050 20.8360
L12.3865 20.8965
" />
<path d="M12.3865 20.8965
L12.4469 20.9570
" />
<path d="M13.5960 22.1060
L12.9912 22.1060
" />
<path d="M12.9912 22.1060
L12.9912 20.8360
" />
</g></g>
<g style="fill:none; 
stroke:#A90000; stroke-width:0.1524; stroke-opacity:1; 
stroke-linecap:round; stroke-linejoin:round;">
<text x="4.5212" y="21.2725"
textLength="1.4127" font-size="1.6933" lengthAdjust="spacingAndGlyphs"
text-anchor="middle" opacity="0" stroke-opacity="0">6</text>
<g class="stroked-text"><desc>6</desc>
<path d="M4.7631 19.8390
L4.5212 19.8390
" />
<path d="M4.5212 19.8390
L4.4003 19.8995
" />
<path d="M4.4003 19.8995
L4.3398 19.9600
" />
<path d="M4.3398 19.9600
L4.2188 20.1414
" />
<path d="M4.2188 20.1414
L4.1584 20.3833
" />
<path d="M4.1584 20.3833
L4.1584 20.8671
" />
<path d="M4.1584 20.8671
L4.2188 20.9881
" />
<path d="M4.2188 20.9881
L4.2793 21.0486
" />
<path d="M4.2793 21.0486
L4.4003 21.1090
" />
<path d="M4.4003 21.1090
L4.6422 21.1090
" />
<path d="M4.6422 21.1090
L4.7631 21.0486
" />
<path d="M4.7631 21.0486
L4.8236 20.9881
" />
<path d="M4.8236 20.9881
L4.8841 20.8671
" />
<path d="M4.8841 20.8671
L4.8841 20.5647
" />
<path d="M4.8841 20.5647
L4.8236 20.4438
" />
<path d="M4.8236 20.4438
L4.7631 20.3833
" />
<path d="M4.7631 20.3833
L4.6422 20.3228
" />
<path d="M4.6422 20.3228
L4.4003 20.3228
" />
<path d="M4.4003 20.3228
L4.2793 20.3833
" />
<path d="M4.2793 20.3833
L4.2188 20.4438
" />
<path d="M4.2188 20.4438
L4.1584 20.5647
" />
</g></g>
<g style="fill:none; 
stroke:#840000; stroke-width:0.1524; stroke-opacity:1; 
stroke-linecap:round; stroke-linejoin:round;">
<path d="M5.7912 24.0665
L3.2512 24.0665
" />
</g>
<g style="fill:none; 
stroke:#006464; stroke-width:0.1524; stroke-opacity:1; 
stroke-linecap:round; stroke-linejoin:round;">
<text x="6.2992" y="24.7015"
textLength="6.1903" font-size="1.6933" lengthAdjust="spacingAndGlyphs"
text-anchor="start" opacity="0" stroke-opacity="0">D6/TX</text>
<g class="stroked-text"><desc>D6/TX</desc>
<path d="M6.7017 24.6460
L6.7017 23.3760
" />
<path d="M6.7017 23.3760
L7.0041 23.3760
" />
<path d="M7.0041 23.3760
L7.1855 23.4365
" />
<path d="M7.1855 23.4365
L7.3065 23.5575
" />
<path d="M7.3065 23.5575
L7.3670 23.6784
" />
<path d="M7.3670 23.6784
L7.4274 23.9203
" />
<path d="M7.4274 23.9203
L7.4274 24.1017
" />
<path d="M7.4274 24.1017
L7.3670 24.3436
" />
<path d="M7.3670 24.3436
L7.3065 24.4646
" />
<path d="M7.3065 24.4646
L7.1855 24.5856
" />
<path d="M7.1855 24.5856
L7.0041 24.6460
" />
<path d="M7.0041 24.6460
L6.7017 24.6460
" />
<path d="M8.5160 23.3760
L8.2741 23.3760
" />
<path d="M8.2741 23.3760
L8.1532 23.4365
" />
<path d="M8.1532 23.4365
L8.0927 23.4970
" />
<path d="M8.0927 23.4970
L7.9717 23.6784
" />
<path d="M7.9717 23.6784
L7.9113 23.9203
" />
<path d="M7.9113 23.9203
L7.9113 24.4041
" />
<path d="M7.9113 24.4041
L7.9717 24.5251
" />
<path d="M7.9717 24.5251
L8.0322 24.5856
" />
<path d="M8.0322 24.5856
L8.1532 24.6460
" />
<path d="M8.1532 24.6460
L8.3951 24.6460
" />
<path d="M8.3951 24.6460
L8.5160 24.5856
" />
<path d="M8.5160 24.5856
L8.5765 24.5251
" />
<path d="M8.5765 24.5251
L8.6370 24.4041
" />
<path d="M8.6370 24.4041
L8.6370 24.1017
" />
<path d="M8.6370 24.1017
L8.5765 23.9808
" />
<path d="M8.5765 23.9808
L8.5160 23.9203
" />
<path d="M8.5160 23.9203
L8.3951 23.8598
" />
<path d="M8.3951 23.8598
L8.1532 23.8598
" />
<path d="M8.1532 23.8598
L8.0322 23.9203
" />
<path d="M8.0322 23.9203
L7.9717 23.9808
" />
<path d="M7.9717 23.9808
L7.9113 24.1017
" />
<path d="M10.0884 23.3156
L8.9998 24.9484
" />
<path d="M10.3303 23.3760
L11.0560 23.3760
" />
<path d="M10.6932 24.6460
L10.6932 23.3760
" />
<path d="M11.3584 23.3760
L12.2050 24.6460
" />
<path d="M12.2050 23.3760
L11.3584 24.6460
" />
</g></g>
<g style="fill:none; 
stroke:#A90000; stroke-width:0.1524; stroke-opacity:1; 
stroke-linecap:round; stroke-linejoin:round;">
<text x="4.5212" y="23.8125"
textLength="1.4127" font-size="1.6933" lengthAdjust="spacingAndGlyphs"
text-anchor="middle" opacity="0" stroke-opacity="0">7</text>
<g class="stroked-text"><desc>7</desc>
<path d="M4.0979 22.3790
L4.9445 22.3790
" />
<path d="M4.9445 22.3790
L4.4003 23.6490
" />
</g></g>
<g style="fill:none; 
stroke:#840000; stroke-width:0.1524; stroke-opacity:1; 
stroke-linecap:round; stroke-linejoin:round;">
<path d="M28.6512 8.8265
L31.1912 8.8265
" />
</g>
<g style="fill:none; 
stroke:#006464; stroke-width:0.1524; stroke-opacity:1; 
stroke-linecap:round; stroke-linejoin:round;">
<text x="28.1432" y="9.4615"
textLength="2.5013" font-size="1.6933" lengthAdjust="spacingAndGlyphs"
text-anchor="end" opacity="0" stroke-opacity="0">5V</text>
<g class="stroked-text"><desc>5V</desc>
<path d="M26.6520 8.1360
L26.0472 8.1360
" />
<path d="M26.0472 8.1360
L25.9868 8.7408
" />
<path d="M25.9868 8.7408
L26.0472 8.6803
" />
<path d="M26.0472 8.6803
L26.1682 8.6198
" />
<path d="M26.1682 8.6198
L26.4706 8.6198
" />
<path d="M26.4706 8.6198
L26.5915 8.6803
" />
<path d="M26.5915 8.6803
L26.6520 8.7408
" />
<path d="M26.6520 8.7408
L26.7125 8.8617
" />
<path d="M26.7125 8.8617
L26.7125 9.1641
" />
<path d="M26.7125 9.1641
L26.6520 9.2851
" />
<path d="M26.6520 9.2851
L26.5915 9.3456
" />
<path d="M26.5915 9.3456
L26.4706 9.4060
" />
<path d="M26.4706 9.4060
L26.1682 9.4060
" />
<path d="M26.1682 9.4060
L26.0472 9.3456
" />
<path d="M26.0472 9.3456
L25.9868 9.2851
" />
<path d="M27.0753 8.1360
L27.4986 9.4060
" />
<path d="M27.4986 9.4060
L27.9220 8.1360
" />
</g></g>
<g style="fill:none; 
stroke:#A90000; stroke-width:0.1524; stroke-opacity:1; 
stroke-linecap:round; stroke-linejoin:round;">
<text x="29.9212" y="8.5725"
textLength="2.6222" font-size="1.6933" lengthAdjust="spacingAndGlyphs"
text-anchor="middle" opacity="0" stroke-opacity="0">14</text>
<g class="stroked-text"><desc>14</desc>
<path d="M29.6793 8.4090
L28.9536 8.4090
" />
<path d="M29.3164 8.4090
L29.3164 7.1390
" />
<path d="M29.3164 7.1390
L29.1955 7.3205
" />
<path d="M29.1955 7.3205
L29.0745 7.4414
" />
<path d="M29.0745 7.4414
L28.9536 7.5019
" />
<path d="M30.7678 7.5624
L30.7678 8.4090
" />
<path d="M30.4654 7.0786
L30.1631 7.9857
" />
<path d="M30.1631 7.9857
L30.9492 7.9857
" />
</g></g>
<g style="fill:none; 
stroke:#840000; stroke-width:0.1524; stroke-opacity:1; 
stroke-linecap:round; stroke-linejoin:round;">
<path d="M28.6512 11.3665
L31.1912 11.3665
" />
</g>
<g style="fill:none; 
stroke:#006464; stroke-width:0.1524; stroke-opacity:1; 
stroke-linecap:round; stroke-linejoin:round;">
<text x="28.1432" y="12.0015"
textLength="4.0737" font-size="1.6933" lengthAdjust="spacingAndGlyphs"
text-anchor="end" opacity="0" stroke-opacity="0">GND</text>
<g class="stroked-text"><desc>GND</desc>
<path d="M25.1401 10.7365
L25.0191 10.6760
" />
<path d="M25.0191 10.6760
L24.8377 10.6760
" />
<path d="M24.8377 10.6760
L24.6563 10.7365
" />
<path d="M24.6563 10.7365
L24.5353 10.8575
" />
<path d="M24.5353 10.8575
L24.4748 10.9784
" />
<path d="M24.4748 10.9784
L24.4144 11.2203
" />
<path d="M24.4144 11.2203
L24.4144 11.4017
" />
<path d="M24.4144 11.4017
L24.4748 11.6436
" />
<path d="M24.4748 11.6436
L24.5353 11.7646
" />
<path d="M24.5353 11.7646
L24.6563 11.8856
" />
<path d="M24.6563 11.8856
L24.8377 11.9460
" />
<path d="M24.8377 11.9460
L24.9586 11.9460
" />
<path d="M24.9586 11.9460
L25.1401 11.8856
" />
<path d="M25.1401 11.8856
L25.2005 11.8251
" />
<path d="M25.2005 11.8251
L25.2005 11.4017
" />
<path d="M25.2005 11.4017
L24.9586 11.4017
" />
<path d="M25.7448 11.9460
L25.7448 10.6760
" />
<path d="M25.7448 10.6760
L26.4705 11.9460
" />
<path d="M26.4705 11.9460
L26.4705 10.6760
" />
<path d="M27.0753 11.9460
L27.0753 10.6760
" />
<path d="M27.0753 10.6760
L27.3777 10.6760
" />
<path d="M27.3777 10.6760
L27.5591 10.7365
" />
<path d="M27.5591 10.7365
L27.6801 10.8575
" />
<path d="M27.6801 10.8575
L27.7406 10.9784
" />
<path d="M27.7406 10.9784
L27.8010 11.2203
" />
<path d="M27.8010 11.2203
L27.8010 11.4017
" />
<path d="M27.8010 11.4017
L27.7406 11.6436
" />
<path d="M27.7406 11.6436
L27.6801 11.7646
" />
<path d="M27.6801 11.7646
L27.5591 11.8856
" />
<path d="M27.5591 11.8856
L27.3777 11.9460
" />
<path d="M27.3777 11.9460
L27.0753 11.9460
" />
</g></g>
<g style="fill:none; 
stroke:#A90000; stroke-width:0.1524; stroke-opacity:1; 
stroke-linecap:round; stroke-linejoin:round;">
<text x="29.9212" y="11.1125"
textLength="2.6222" font-size="1.6933" lengthAdjust="spacingAndGlyphs"
text-anchor="middle" opacity="0" stroke-opacity="0">13</text>
<g class="stroked-text"><desc>13</desc>
<path d="M29.6793 10.9490
L28.9536 10.9490
" />
<path d="M29.3164 10.9490
L29.3164 9.6790
" />
<path d="M29.3164 9.6790
L29.1955 9.8605
" />
<path d="M29.1955 9.8605
L29.0745 9.9814
" />
<path d="M29.0745 9.9814
L28.9536 10.0419
" />
<path d="M30.1026 9.6790
L30.8888 9.6790
" />
<path d="M30.8888 9.6790
L30.4654 10.1628
" />
<path d="M30.4654 10.1628
L30.6469 10.1628
" />
<path d="M30.6469 10.1628
L30.7678 10.2233
" />
<path d="M30.7678 10.2233
L30.8283 10.2838
" />
<path d="M30.8283 10.2838
L30.8888 10.4047
" />
<path d="M30.8888 10.4047
L30.8888 10.7071
" />
<path d="M30.8888 10.7071
L30.8283 10.8281
" />
<path d="M30.8283 10.8281
L30.7678 10.8886
" />
<path d="M30.7678 10.8886
L30.6469 10.9490
" />
<path d="M30.6469 10.9490
L30.2840 10.9490
" />
<path d="M30.2840 10.9490
L30.1631 10.8886
" />
<path d="M30.1631 10.8886
L30.1026 10.8281
" />
</g></g>
<g style="fill:none; 
stroke:#840000; stroke-width:0.1524; stroke-opacity:1; 
stroke-linecap:round; stroke-linejoin:round;">
<path d="M28.6512 13.9065
L31.1912 13.9065
" />
</g>
<g style="fill:none; 
stroke:#006464; stroke-width:0.1524; stroke-opacity:1; 
stroke-linecap:round; stroke-linejoin:round;">
<text x="28.1432" y="14.5415"
textLength="3.7108" font-size="1.6933" lengthAdjust="spacingAndGlyphs"
text-anchor="end" opacity="0" stroke-opacity="0">3V3</text>
<g class="stroked-text"><desc>3V3</desc>
<path d="M24.7168 13.2160
L25.5030 13.2160
" />
<path d="M25.5030 13.2160
L25.0796 13.6998
" />
<path d="M25.0796 13.6998
L25.2611 13.6998
" />
<path d="M25.2611 13.6998
L25.3820 13.7603
" />
<path d="M25.3820 13.7603
L25.4425 13.8208
" />
<path d="M25.4425 13.8208
L25.5030 13.9417
" />
<path d="M25.5030 13.9417
L25.5030 14.2441
" />
<path d="M25.5030 14.2441
L25.4425 14.3651
" />
<path d="M25.4425 14.3651
L25.3820 14.4256
" />
<path d="M25.3820 14.4256
L25.2611 14.4860
" />
<path d="M25.2611 14.4860
L24.8982 14.4860
" />
<path d="M24.8982 14.4860
L24.7773 14.4256
" />
<path d="M24.7773 14.4256
L24.7168 14.3651
" />
<path d="M25.8658 13.2160
L26.2891 14.4860
" />
<path d="M26.2891 14.4860
L26.7125 13.2160
" />
<path d="M27.0149 13.2160
L27.8011 13.2160
" />
<path d="M27.8011 13.2160
L27.3777 13.6998
" />
<path d="M27.3777 13.6998
L27.5592 13.6998
" />
<path d="M27.5592 13.6998
L27.6801 13.7603
" />
<path d="M27.6801 13.7603
L27.7406 13.8208
" />
<path d="M27.7406 13.8208
L27.8011 13.9417
" />
<path d="M27.8011 13.9417
L27.8011 14.2441
" />
<path d="M27.8011 14.2441
L27.7406 14.3651
" />
<path d="M27.7406 14.3651
L27.6801 14.4256
" />
<path d="M27.6801 14.4256
L27.5592 14.4860
" />
<path d="M27.5592 14.4860
L27.1963 14.4860
" />
<path d="M27.1963 14.4860
L27.0754 14.4256
" />
<path d="M27.0754 14.4256
L27.0149 14.3651
" />
</g></g>
<g style="fill:none; 
stroke:#A90000; stroke-width:0.1524; stroke-opacity:1; 
stroke-linecap:round; stroke-linejoin:round;">
<text x="29.9212" y="13.6525"
textLength="2.6222" font-size="1.6933" lengthAdjust="spacingAndGlyphs"
text-anchor="middle" opacity="0" stroke-opacity="0">12</text>
<g class="stroked-text"><desc>12</desc>
<path d="M29.6793 13.4890
L28.9536 13.4890
" />
<path d="M29.3164 13.4890
L29.3164 12.2190
" />
<path d="M29.3164 12.2190
L29.1955 12.4005
" />
<path d="M29.1955 12.4005
L29.0745 12.5214
" />
<path d="M29.0745 12.5214
L28.9536 12.5819
" />
<path d="M30.1631 12.3400
L30.2235 12.2795
" />
<path d="M30.2235 12.2795
L30.3445 12.2190
" />
<path d="M30.3445 12.2190
L30.6469 12.2190
" />
<path d="M30.6469 12.2190
L30.7678 12.2795
" />
<path d="M30.7678 12.2795
L30.8283 12.3400
" />
<path d="M30.8283 12.3400
L30.8888 12.4609
" />
<path d="M30.8888 12.4609
L30.8888 12.5819
" />
<path d="M30.8888 12.5819
L30.8283 12.7633
" />
<path d="M30.8283 12.7633
L30.1026 13.4890
" />
<path d="M30.1026 13.4890
L30.8888 13.4890
" />
</g></g>
<g style="fill:none; 
stroke:#840000; stroke-width:0.1524; stroke-opacity:1; 
stroke-linecap:round; stroke-linejoin:round;">
<path d="M28.6512 16.4465
L31.1912 16.4465
" />
</g>
<g style="fill:none; 
stroke:#006464; stroke-width:0.1524; stroke-opacity:1; 
stroke-linecap:round; stroke-linejoin:round;">
<text x="28.1432" y="17.0815"
textLength="9.8189" font-size="1.6933" lengthAdjust="spacingAndGlyphs"
text-anchor="end" opacity="0" stroke-opacity="0">MOSI/D10</text>
<g class="stroked-text"><desc>MOSI/D10</desc>
<path d="M18.7296 17.0260
L18.7296 15.7560
" />
<path d="M18.7296 15.7560
L19.1530 16.6632
" />
<path d="M19.1530 16.6632
L19.5763 15.7560
" />
<path d="M19.5763 15.7560
L19.5763 17.0260
" />
<path d="M20.4229 15.7560
L20.6648 15.7560
" />
<path d="M20.6648 15.7560
L20.7858 15.8165
" />
<path d="M20.7858 15.8165
L20.9067 15.9375
" />
<path d="M20.9067 15.9375
L20.9672 16.1794
" />
<path d="M20.9672 16.1794
L20.9672 16.6027
" />
<path d="M20.9672 16.6027
L20.9067 16.8446
" />
<path d="M20.9067 16.8446
L20.7858 16.9656
" />
<path d="M20.7858 16.9656
L20.6648 17.0260
" />
<path d="M20.6648 17.0260
L20.4229 17.0260
" />
<path d="M20.4229 17.0260
L20.3020 16.9656
" />
<path d="M20.3020 16.9656
L20.1810 16.8446
" />
<path d="M20.1810 16.8446
L20.1206 16.6027
" />
<path d="M20.1206 16.6027
L20.1206 16.1794
" />
<path d="M20.1206 16.1794
L20.1810 15.9375
" />
<path d="M20.1810 15.9375
L20.3020 15.8165
" />
<path d="M20.3020 15.8165
L20.4229 15.7560
" />
<path d="M21.4511 16.9656
L21.6325 17.0260
" />
<path d="M21.6325 17.0260
L21.9349 17.0260
" />
<path d="M21.9349 17.0260
L22.0558 16.9656
" />
<path d="M22.0558 16.9656
L22.1163 16.9051
" />
<path d="M22.1163 16.9051
L22.1768 16.7841
" />
<path d="M22.1768 16.7841
L22.1768 16.6632
" />
<path d="M22.1768 16.6632
L22.1163 16.5422
" />
<path d="M22.1163 16.5422
L22.0558 16.4817
" />
<path d="M22.0558 16.4817
L21.9349 16.4213
" />
<path d="M21.9349 16.4213
L21.6930 16.3608
" />
<path d="M21.6930 16.3608
L21.5720 16.3003
" />
<path d="M21.5720 16.3003
L21.5115 16.2398
" />
<path d="M21.5115 16.2398
L21.4511 16.1189
" />
<path d="M21.4511 16.1189
L21.4511 15.9979
" />
<path d="M21.4511 15.9979
L21.5115 15.8770
" />
<path d="M21.5115 15.8770
L21.5720 15.8165
" />
<path d="M21.5720 15.8165
L21.6930 15.7560
" />
<path d="M21.6930 15.7560
L21.9953 15.7560
" />
<path d="M21.9953 15.7560
L22.1768 15.8165
" />
<path d="M22.7210 17.0260
L22.7210 15.7560
" />
<path d="M24.2330 15.6956
L23.1444 17.3284
" />
<path d="M24.6563 17.0260
L24.6563 15.7560
" />
<path d="M24.6563 15.7560
L24.9587 15.7560
" />
<path d="M24.9587 15.7560
L25.1401 15.8165
" />
<path d="M25.1401 15.8165
L25.2611 15.9375
" />
<path d="M25.2611 15.9375
L25.3216 16.0584
" />
<path d="M25.3216 16.0584
L25.3820 16.3003
" />
<path d="M25.3820 16.3003
L25.3820 16.4817
" />
<path d="M25.3820 16.4817
L25.3216 16.7236
" />
<path d="M25.3216 16.7236
L25.2611 16.8446
" />
<path d="M25.2611 16.8446
L25.1401 16.9656
" />
<path d="M25.1401 16.9656
L24.9587 17.0260
" />
<path d="M24.9587 17.0260
L24.6563 17.0260
" />
<path d="M26.5916 17.0260
L25.8659 17.0260
" />
<path d="M26.2287 17.0260
L26.2287 15.7560
" />
<path d="M26.2287 15.7560
L26.1078 15.9375
" />
<path d="M26.1078 15.9375
L25.9868 16.0584
" />
<path d="M25.9868 16.0584
L25.8659 16.1189
" />
<path d="M27.3777 15.7560
L27.4987 15.7560
" />
<path d="M27.4987 15.7560
L27.6196 15.8165
" />
<path d="M27.6196 15.8165
L27.6801 15.8770
" />
<path d="M27.6801 15.8770
L27.7406 15.9979
" />
<path d="M27.7406 15.9979
L27.8011 16.2398
" />
<path d="M27.8011 16.2398
L27.8011 16.5422
" />
<path d="M27.8011 16.5422
L27.7406 16.7841
" />
<path d="M27.7406 16.7841
L27.6801 16.9051
" />
<path d="M27.6801 16.9051
L27.6196 16.9656
" />
<path d="M27.6196 16.9656
L27.4987 17.0260
" />
<path d="M27.4987 17.0260
L27.3777 17.0260
" />
<path d="M27.3777 17.0260
L27.2568 16.9656
" />
<path d="M27.2568 16.9656
L27.1963 16.9051
" />
<path d="M27.1963 16.9051
L27.1358 16.7841
" />
<path d="M27.1358 16.7841
L27.0754 16.5422
" />
<path d="M27.0754 16.5422
L27.0754 16.2398
" />
<path d="M27.0754 16.2398
L27.1358 15.9979
" />
<path d="M27.1358 15.9979
L27.1963 15.8770
" />
<path d="M27.1963 15.8770
L27.2568 15.8165
" />
<path d="M27.2568 15.8165
L27.3777 15.7560
" />
</g></g>
<g style="fill:none; 
stroke:#A90000; stroke-width:0.1524; stroke-opacity:1; 
stroke-linecap:round; stroke-linejoin:round;">
<text x="29.9212" y="16.1925"
textLength="2.6222" font-size="1.6933" lengthAdjust="spacingAndGlyphs"
text-anchor="middle" opacity="0" stroke-opacity="0">11</text>
<g class="stroked-text"><desc>11</desc>
<path d="M29.6793 16.0290
L28.9536 16.0290
" />
<path d="M29.3164 16.0290
L29.3164 14.7590
" />
<path d="M29.3164 14.7590
L29.1955 14.9405
" />
<path d="M29.1955 14.9405
L29.0745 15.0614
" />
<path d="M29.0745 15.0614
L28.9536 15.1219
" />
<path d="M30.8888 16.0290
L30.1631 16.0290
" />
<path d="M30.5259 16.0290
L30.5259 14.7590
" />
<path d="M30.5259 14.7590
L30.4050 14.9405
" />
<path d="M30.4050 14.9405
L30.2840 15.0614
" />
<path d="M30.2840 15.0614
L30.1631 15.1219
" />
</g></g>
<g style="fill:none; 
stroke:#840000; stroke-width:0.1524; stroke-opacity:1; 
stroke-linecap:round; stroke-linejoin:round;">
<path d="M28.6512 18.9865
L31.1912 18.9865
" />
</g>
<g style="fill:none; 
stroke:#006464; stroke-width:0.1524; stroke-opacity:1; 
stroke-linecap:round; stroke-linejoin:round;">
<text x="28.1432" y="19.6215"
textLength="8.6094" font-size="1.6933" lengthAdjust="spacingAndGlyphs"
text-anchor="end" opacity="0" stroke-opacity="0">MISO/D9</text>
<g class="stroked-text"><desc>MISO/D9</desc>
<path d="M19.9391 19.5660
L19.9391 18.2960
" />
<path d="M19.9391 18.2960
L20.3625 19.2032
" />
<path d="M20.3625 19.2032
L20.7858 18.2960
" />
<path d="M20.7858 18.2960
L20.7858 19.5660
" />
<path d="M21.3905 19.5660
L21.3905 18.2960
" />
<path d="M21.9349 19.5056
L22.1163 19.5660
" />
<path d="M22.1163 19.5660
L22.4187 19.5660
" />
<path d="M22.4187 19.5660
L22.5396 19.5056
" />
<path d="M22.5396 19.5056
L22.6001 19.4451
" />
<path d="M22.6001 19.4451
L22.6606 19.3241
" />
<path d="M22.6606 19.3241
L22.6606 19.2032
" />
<path d="M22.6606 19.2032
L22.6001 19.0822
" />
<path d="M22.6001 19.0822
L22.5396 19.0217
" />
<path d="M22.5396 19.0217
L22.4187 18.9613
" />
<path d="M22.4187 18.9613
L22.1768 18.9008
" />
<path d="M22.1768 18.9008
L22.0558 18.8403
" />
<path d="M22.0558 18.8403
L21.9953 18.7798
" />
<path d="M21.9953 18.7798
L21.9349 18.6589
" />
<path d="M21.9349 18.6589
L21.9349 18.5379
" />
<path d="M21.9349 18.5379
L21.9953 18.4170
" />
<path d="M21.9953 18.4170
L22.0558 18.3565
" />
<path d="M22.0558 18.3565
L22.1768 18.2960
" />
<path d="M22.1768 18.2960
L22.4791 18.2960
" />
<path d="M22.4791 18.2960
L22.6606 18.3565
" />
<path d="M23.4467 18.2960
L23.6886 18.2960
" />
<path d="M23.6886 18.2960
L23.8096 18.3565
" />
<path d="M23.8096 18.3565
L23.9305 18.4775
" />
<path d="M23.9305 18.4775
L23.9910 18.7194
" />
<path d="M23.9910 18.7194
L23.9910 19.1427
" />
<path d="M23.9910 19.1427
L23.9305 19.3846
" />
<path d="M23.9305 19.3846
L23.8096 19.5056
" />
<path d="M23.8096 19.5056
L23.6886 19.5660
" />
<path d="M23.6886 19.5660
L23.4467 19.5660
" />
<path d="M23.4467 19.5660
L23.3258 19.5056
" />
<path d="M23.3258 19.5056
L23.2048 19.3846
" />
<path d="M23.2048 19.3846
L23.1444 19.1427
" />
<path d="M23.1444 19.1427
L23.1444 18.7194
" />
<path d="M23.1444 18.7194
L23.2048 18.4775
" />
<path d="M23.2048 18.4775
L23.3258 18.3565
" />
<path d="M23.3258 18.3565
L23.4467 18.2960
" />
<path d="M25.4425 18.2356
L24.3539 19.8684
" />
<path d="M25.8658 19.5660
L25.8658 18.2960
" />
<path d="M25.8658 18.2960
L26.1682 18.2960
" />
<path d="M26.1682 18.2960
L26.3496 18.3565
" />
<path d="M26.3496 18.3565
L26.4706 18.4775
" />
<path d="M26.4706 18.4775
L26.5311 18.5984
" />
<path d="M26.5311 18.5984
L26.5915 18.8403
" />
<path d="M26.5915 18.8403
L26.5915 19.0217
" />
<path d="M26.5915 19.0217
L26.5311 19.2636
" />
<path d="M26.5311 19.2636
L26.4706 19.3846
" />
<path d="M26.4706 19.3846
L26.3496 19.5056
" />
<path d="M26.3496 19.5056
L26.1682 19.5660
" />
<path d="M26.1682 19.5660
L25.8658 19.5660
" />
<path d="M27.1963 19.5660
L27.4382 19.5660
" />
<path d="M27.4382 19.5660
L27.5592 19.5056
" />
<path d="M27.5592 19.5056
L27.6196 19.4451
" />
<path d="M27.6196 19.4451
L27.7406 19.2636
" />
<path d="M27.7406 19.2636
L27.8011 19.0217
" />
<path d="M27.8011 19.0217
L27.8011 18.5379
" />
<path d="M27.8011 18.5379
L27.7406 18.4170
" />
<path d="M27.7406 18.4170
L27.6801 18.3565
" />
<path d="M27.6801 18.3565
L27.5592 18.2960
" />
<path d="M27.5592 18.2960
L27.3173 18.2960
" />
<path d="M27.3173 18.2960
L27.1963 18.3565
" />
<path d="M27.1963 18.3565
L27.1358 18.4170
" />
<path d="M27.1358 18.4170
L27.0754 18.5379
" />
<path d="M27.0754 18.5379
L27.0754 18.8403
" />
<path d="M27.0754 18.8403
L27.1358 18.9613
" />
<path d="M27.1358 18.9613
L27.1963 19.0217
" />
<path d="M27.1963 19.0217
L27.3173 19.0822
" />
<path d="M27.3173 19.0822
L27.5592 19.0822
" />
<path d="M27.5592 19.0822
L27.6801 19.0217
" />
<path d="M27.6801 19.0217
L27.7406 18.9613
" />
<path d="M27.7406 18.9613
L27.8011 18.8403
" />
</g></g>
<g style="fill:none; 
stroke:#A90000; stroke-width:0.1524; stroke-opacity:1; 
stroke-linecap:round; stroke-linejoin:round;">
<text x="29.9212" y="18.7325"
textLength="2.6222" font-size="1.6933" lengthAdjust="spacingAndGlyphs"
text-anchor="middle" opacity="0" stroke-opacity="0">10</text>
<g class="stroked-text"><desc>10</desc>
<path d="M29.6793 18.5690
L28.9536 18.5690
" />
<path d="M29.3164 18.5690
L29.3164 17.2990
" />
<path d="M29.3164 17.2990
L29.1955 17.4805
" />
<path d="M29.1955 17.4805
L29.0745 17.6014
" />
<path d="M29.0745 17.6014
L28.9536 17.6619
" />
<path d="M30.4654 17.2990
L30.5864 17.2990
" />
<path d="M30.5864 17.2990
L30.7073 17.3595
" />
<path d="M30.7073 17.3595
L30.7678 17.4200
" />
<path d="M30.7678 17.4200
L30.8283 17.5409
" />
<path d="M30.8283 17.5409
L30.8888 17.7828
" />
<path d="M30.8888 17.7828
L30.8888 18.0852
" />
<path d="M30.8888 18.0852
L30.8283 18.3271
" />
<path d="M30.8283 18.3271
L30.7678 18.4481
" />
<path d="M30.7678 18.4481
L30.7073 18.5086
" />
<path d="M30.7073 18.5086
L30.5864 18.5690
" />
<path d="M30.5864 18.5690
L30.4654 18.5690
" />
<path d="M30.4654 18.5690
L30.3445 18.5086
" />
<path d="M30.3445 18.5086
L30.2840 18.4481
" />
<path d="M30.2840 18.4481
L30.2235 18.3271
" />
<path d="M30.2235 18.3271
L30.1631 18.0852
" />
<path d="M30.1631 18.0852
L30.1631 17.7828
" />
<path d="M30.1631 17.7828
L30.2235 17.5409
" />
<path d="M30.2235 17.5409
L30.2840 17.4200
" />
<path d="M30.2840 17.4200
L30.3445 17.3595
" />
<path d="M30.3445 17.3595
L30.4654 17.2990
" />
</g></g>
<g style="fill:none; 
stroke:#840000; stroke-width:0.1524; stroke-opacity:1; 
stroke-linecap:round; stroke-linejoin:round;">
<path d="M28.6512 21.5265
L31.1912 21.5265
" />
</g>
<g style="fill:none; 
stroke:#006464; stroke-width:0.1524; stroke-opacity:1; 
stroke-linecap:round; stroke-linejoin:round;">
<text x="28.1432" y="22.1615"
textLength="7.7627" font-size="1.6933" lengthAdjust="spacingAndGlyphs"
text-anchor="end" opacity="0" stroke-opacity="0">SCK/D8</text>
<g class="stroked-text"><desc>SCK/D8</desc>
<path d="M20.7254 22.0456
L20.9068 22.1060
" />
<path d="M20.9068 22.1060
L21.2092 22.1060
" />
<path d="M21.2092 22.1060
L21.3301 22.0456
" />
<path d="M21.3301 22.0456
L21.3906 21.9851
" />
<path d="M21.3906 21.9851
L21.4511 21.8641
" />
<path d="M21.4511 21.8641
L21.4511 21.7432
" />
<path d="M21.4511 21.7432
L21.3906 21.6222
" />
<path d="M21.3906 21.6222
L21.3301 21.5617
" />
<path d="M21.3301 21.5617
L21.2092 21.5013
" />
<path d="M21.2092 21.5013
L20.9673 21.4408
" />
<path d="M20.9673 21.4408
L20.8463 21.3803
" />
<path d="M20.8463 21.3803
L20.7858 21.3198
" />
<path d="M20.7858 21.3198
L20.7254 21.1989
" />
<path d="M20.7254 21.1989
L20.7254 21.0779
" />
<path d="M20.7254 21.0779
L20.7858 20.9570
" />
<path d="M20.7858 20.9570
L20.8463 20.8965
" />
<path d="M20.8463 20.8965
L20.9673 20.8360
" />
<path d="M20.9673 20.8360
L21.2696 20.8360
" />
<path d="M21.2696 20.8360
L21.4511 20.8965
" />
<path d="M22.7210 21.9851
L22.6606 22.0456
" />
<path d="M22.6606 22.0456
L22.4791 22.1060
" />
<path d="M22.4791 22.1060
L22.3582 22.1060
" />
<path d="M22.3582 22.1060
L22.1768 22.0456
" />
<path d="M22.1768 22.0456
L22.0558 21.9246
" />
<path d="M22.0558 21.9246
L21.9953 21.8036
" />
<path d="M21.9953 21.8036
L21.9349 21.5617
" />
<path d="M21.9349 21.5617
L21.9349 21.3803
" />
<path d="M21.9349 21.3803
L21.9953 21.1384
" />
<path d="M21.9953 21.1384
L22.0558 21.0175
" />
<path d="M22.0558 21.0175
L22.1768 20.8965
" />
<path d="M22.1768 20.8965
L22.3582 20.8360
" />
<path d="M22.3582 20.8360
L22.4791 20.8360
" />
<path d="M22.4791 20.8360
L22.6606 20.8965
" />
<path d="M22.6606 20.8965
L22.7210 20.9570
" />
<path d="M23.2653 22.1060
L23.2653 20.8360
" />
<path d="M23.9910 22.1060
L23.4468 21.3803
" />
<path d="M23.9910 20.8360
L23.2653 21.5617
" />
<path d="M25.4425 20.7756
L24.3539 22.4084
" />
<path d="M25.8658 22.1060
L25.8658 20.8360
" />
<path d="M25.8658 20.8360
L26.1682 20.8360
" />
<path d="M26.1682 20.8360
L26.3496 20.8965
" />
<path d="M26.3496 20.8965
L26.4706 21.0175
" />
<path d="M26.4706 21.0175
L26.5311 21.1384
" />
<path d="M26.5311 21.1384
L26.5915 21.3803
" />
<path d="M26.5915 21.3803
L26.5915 21.5617
" />
<path d="M26.5915 21.5617
L26.5311 21.8036
" />
<path d="M26.5311 21.8036
L26.4706 21.9246
" />
<path d="M26.4706 21.9246
L26.3496 22.0456
" />
<path d="M26.3496 22.0456
L26.1682 22.1060
" />
<path d="M26.1682 22.1060
L25.8658 22.1060
" />
<path d="M27.3173 21.3803
L27.1963 21.3198
" />
<path d="M27.1963 21.3198
L27.1358 21.2594
" />
<path d="M27.1358 21.2594
L27.0754 21.1384
" />
<path d="M27.0754 21.1384
L27.0754 21.0779
" />
<path d="M27.0754 21.0779
L27.1358 20.9570
" />
<path d="M27.1358 20.9570
L27.1963 20.8965
" />
<path d="M27.1963 20.8965
L27.3173 20.8360
" />
<path d="M27.3173 20.8360
L27.5592 20.8360
" />
<path d="M27.5592 20.8360
L27.6801 20.8965
" />
<path d="M27.6801 20.8965
L27.7406 20.9570
" />
<path d="M27.7406 20.9570
L27.8011 21.0779
" />
<path d="M27.8011 21.0779
L27.8011 21.1384
" />
<path d="M27.8011 21.1384
L27.7406 21.2594
" />
<path d="M27.7406 21.2594
L27.6801 21.3198
" />
<path d="M27.6801 21.3198
L27.5592 21.3803
" />
<path d="M27.5592 21.3803
L27.3173 21.3803
" />
<path d="M27.3173 21.3803
L27.1963 21.4408
" />
<path d="M27.1963 21.4408
L27.1358 21.5013
" />
<path d="M27.1358 21.5013
L27.0754 21.6222
" />
<path d="M27.0754 21.6222
L27.0754 21.8641
" />
<path d="M27.0754 21.8641
L27.1358 21.9851
" />
<path d="M27.1358 21.9851
L27.1963 22.0456
" />
<path d="M27.1963 22.0456
L27.3173 22.1060
" />
<path d="M27.3173 22.1060
L27.5592 22.1060
" />
<path d="M27.5592 22.1060
L27.6801 22.0456
" />
<path d="M27.6801 22.0456
L27.7406 21.9851
" />
<path d="M27.7406 21.9851
L27.8011 21.8641
" />
<path d="M27.8011 21.8641
L27.8011 21.6222
" />
<path d="M27.8011 21.6222
L27.7406 21.5013
" />
<path d="M27.7406 21.5013
L27.6801 21.4408
" />
<path d="M27.6801 21.4408
L27.5592 21.3803
" />
</g></g>
<g style="fill:none; 
stroke:#A90000; stroke-width:0.1524; stroke-opacity:1; 
stroke-linecap:round; stroke-linejoin:round;">
<text x="29.9212" y="21.2725"
textLength="1.4127" font-size="1.6933" lengthAdjust="spacingAndGlyphs"
text-anchor="middle" opacity="0" stroke-opacity="0">9</text>
<g class="stroked-text"><desc>9</desc>
<path d="M29.6793 21.1090
L29.9212 21.1090
" />
<path d="M29.9212 21.1090
L30.0422 21.0486
" />
<path d="M30.0422 21.0486
L30.1026 20.9881
" />
<path d="M30.1026 20.9881
L30.2236 20.8066
" />
<path d="M30.2236 20.8066
L30.2841 20.5647
" />
<path d="M30.2841 20.5647
L30.2841 20.0809
" />
<path d="M30.2841 20.0809
L30.2236 19.9600
" />
<path d="M30.2236 19.9600
L30.1631 19.8995
" />
<path d="M30.1631 19.8995
L30.0422 19.8390
" />
<path d="M30.0422 19.8390
L29.8003 19.8390
" />
<path d="M29.8003 19.8390
L29.6793 19.8995
" />
<path d="M29.6793 19.8995
L29.6188 19.9600
" />
<path d="M29.6188 19.9600
L29.5584 20.0809
" />
<path d="M29.5584 20.0809
L29.5584 20.3833
" />
<path d="M29.5584 20.3833
L29.6188 20.5043
" />
<path d="M29.6188 20.5043
L29.6793 20.5647
" />
<path d="M29.6793 20.5647
L29.8003 20.6252
" />
<path d="M29.8003 20.6252
L30.0422 20.6252
" />
<path d="M30.0422 20.6252
L30.1631 20.5647
" />
<path d="M30.1631 20.5647
L30.2236 20.5043
" />
<path d="M30.2236 20.5043
L30.2841 20.3833
" />
</g></g>
<g style="fill:none; 
stroke:#840000; stroke-width:0.1524; stroke-opacity:1; 
stroke-linecap:round; stroke-linejoin:round;">
<path d="M28.6512 24.0665
L31.1912 24.0665
" />
</g>
<g style="fill:none; 
stroke:#006464; stroke-width:0.1524; stroke-opacity:1; 
stroke-linecap:round; stroke-linejoin:round;">
<text x="28.1432" y="24.7015"
textLength="6.4927" font-size="1.6933" lengthAdjust="spacingAndGlyphs"
text-anchor="end" opacity="0" stroke-opacity="0">RX/D7</text>
<g class="stroked-text"><desc>RX/D7</desc>
<path d="M22.7815 24.6460
L22.3582 24.0413
" />
<path d="M22.0558 24.6460
L22.0558 23.3760
" />
<path d="M22.0558 23.3760
L22.5396 23.3760
" />
<path d="M22.5396 23.3760
L22.6606 23.4365
" />
<path d="M22.6606 23.4365
L22.7211 23.4970
" />
<path d="M22.7211 23.4970
L22.7815 23.6179
" />
<path d="M22.7815 23.6179
L22.7815 23.7994
" />
<path d="M22.7815 23.7994
L22.7211 23.9203
" />
<path d="M22.7211 23.9203
L22.6606 23.9808
" />
<path d="M22.6606 23.9808
L22.5396 24.0413
" />
<path d="M22.5396 24.0413
L22.0558 24.0413
" />
<path d="M23.2049 23.3760
L24.0515 24.6460
" />
<path d="M24.0515 23.3760
L23.2049 24.6460
" />
<path d="M25.4425 23.3156
L24.3539 24.9484
" />
<path d="M25.8658 24.6460
L25.8658 23.3760
" />
<path d="M25.8658 23.3760
L26.1682 23.3760
" />
<path d="M26.1682 23.3760
L26.3496 23.4365
" />
<path d="M26.3496 23.4365
L26.4706 23.5575
" />
<path d="M26.4706 23.5575
L26.5311 23.6784
" />
<path d="M26.5311 23.6784
L26.5915 23.9203
" />
<path d="M26.5915 23.9203
L26.5915 24.1017
" />
<path d="M26.5915 24.1017
L26.5311 24.3436
" />
<path d="M26.5311 24.3436
L26.4706 24.4646
" />
<path d="M26.4706 24.4646
L26.3496 24.5856
" />
<path d="M26.3496 24.5856
L26.1682 24.6460
" />
<path d="M26.1682 24.6460
L25.8658 24.6460
" />
<path d="M27.0149 23.3760
L27.8615 23.3760
" />
<path d="M27.8615 23.3760
L27.3173 24.6460
" />
</g></g>
<g style="fill:none; 
stroke:#A90000; stroke-width:0.1524; stroke-opacity:1; 
stroke-linecap:round; stroke-linejoin:round;">
<text x="29.9212" y="23.8125"
textLength="1.4127" font-size="1.6933" lengthAdjust="spacingAndGlyphs"
text-anchor="middle" opacity="0" stroke-opacity="0">8</text>
<g class="stroked-text"><desc>8</desc>
<path d="M29.8003 22.9233
L29.6793 22.8628
" />
<path d="M29.6793 22.8628
L29.6188 22.8024
" />
<path d="M29.6188 22.8024
L29.5584 22.6814
" />
<path d="M29.5584 22.6814
L29.5584 22.6209
" />
<path d="M29.5584 22.6209
L29.6188 22.5000
" />
<path d="M29.6188 22.5000
L29.6793 22.4395
" />
<path d="M29.6793 22.4395
L29.8003 22.3790
" />
<path d="M29.8003 22.3790
L30.0422 22.3790
" />
<path d="M30.0422 22.3790
L30.1631 22.4395
" />
<path d="M30.1631 22.4395
L30.2236 22.5000
" />
<path d="M30.2236 22.5000
L30.2841 22.6209
" />
<path d="M30.2841 22.6209
L30.2841 22.6814
" />
<path d="M30.2841 22.6814
L30.2236 22.8024
" />
<path d="M30.2236 22.8024
L30.1631 22.8628
" />
<path d="M30.1631 22.8628
L30.0422 22.9233
" />
<path d="M30.0422 22.9233
L29.8003 22.9233
" />
<path d="M29.8003 22.9233
L29.6793 22.9838
" />
<path d="M29.6793 22.9838
L29.6188 23.0443
" />
<path d="M29.6188 23.0443
L29.5584 23.1652
" />
<path d="M29.5584 23.1652
L29.5584 23.4071
" />
<path d="M29.5584 23.4071
L29.6188 23.5281
" />
<path d="M29.6188 23.5281
L29.6793 23.5886
" />
<path d="M29.6793 23.5886
L29.8003 23.6490
" />
<path d="M29.8003 23.6490
L30.0422 23.6490
" />
<path d="M30.0422 23.6490
L30.1631 23.5886
" />
<path d="M30.1631 23.5886
L30.2236 23.5281
" />
<path d="M30.2236 23.5281
L30.2841 23.4071
" />
<path d="M30.2841 23.4071
L30.2841 23.1652
" />
<path d="M30.2841 23.1652
L30.2236 23.0443
" />
<path d="M30.2236 23.0443
L30.1631 22.9838
" />
<path d="M30.1631 22.9838
L30.0422 22.9233
" />
</g></g>
<g style="fill:none; 
stroke:#006464; stroke-width:0.1524; stroke-opacity:1; 
stroke-linecap:round; stroke-linejoin:round;">
<text x="0.0000" y="-14.4780"
textLength="2.6223" font-size="1.6933" lengthAdjust="spacingAndGlyphs"
text-anchor="middle" opacity="0" stroke-opacity="0">U?</text>
<g class="stroked-text"><desc>U?</desc>
<path d="M-0.9071 -15.8034
L-0.9071 -14.7753
" />
<path d="M-0.9071 -14.7753
L-0.8466 -14.6543
" />
<path d="M-0.8466 -14.6543
L-0.7861 -14.5939
" />
<path d="M-0.7861 -14.5939
L-0.6652 -14.5334
" />
<path d="M-0.6652 -14.5334
L-0.4233 -14.5334
" />
<path d="M-0.4233 -14.5334
L-0.3023 -14.5939
" />
<path d="M-0.3023 -14.5939
L-0.2418 -14.6543
" />
<path d="M-0.2418 -14.6543
L-0.1814 -14.7753
" />
<path d="M-0.1814 -14.7753
L-0.1814 -15.8034
" />
<path d="M0.6048 -14.6543
L0.6652 -14.5939
" />
<path d="M0.6652 -14.5939
L0.6048 -14.5334
" />
<path d="M0.6048 -14.5334
L0.5443 -14.5939
" />
<path d="M0.5443 -14.5939
L0.6048 -14.6543
" />
<path d="M0.6048 -14.6543
L0.6048 -14.5334
" />
<path d="M0.3629 -15.7429
L0.4838 -15.8034
" />
<path d="M0.4838 -15.8034
L0.7862 -15.8034
" />
<path d="M0.7862 -15.8034
L0.9071 -15.7429
" />
<path d="M0.9071 -15.7429
L0.9676 -15.6219
" />
<path d="M0.9676 -15.6219
L0.9676 -15.5010
" />
<path d="M0.9676 -15.5010
L0.9071 -15.3800
" />
<path d="M0.9071 -15.3800
L0.8467 -15.3196
" />
<path d="M0.8467 -15.3196
L0.7257 -15.2591
" />
<path d="M0.7257 -15.2591
L0.6652 -15.1986
" />
<path d="M0.6652 -15.1986
L0.6048 -15.0777
" />
<path d="M0.6048 -15.0777
L0.6048 -15.0172
" />
</g><text x="0.0000" y="15.7480"
textLength="19.2531" font-size="1.6933" lengthAdjust="spacingAndGlyphs"
text-anchor="middle" opacity="0" stroke-opacity="0">XIAO_nRF52840_BAT</text>
<g class="stroked-text"><desc>XIAO_nRF52840_BAT</desc>
<path d="M-9.3434 14.4225
L-8.4968 15.6925
" />
<path d="M-8.4968 14.4225
L-9.3434 15.6925
" />
<path d="M-8.0130 15.6925
L-8.0130 14.4225
" />
<path d="M-7.4686 15.3297
L-6.8639 15.3297
" />
<path d="M-7.5896 15.6925
L-7.1663 14.4225
" />
<path d="M-7.1663 14.4225
L-6.7429 15.6925
" />
<path d="M-6.0777 14.4225
L-5.8358 14.4225
" />
<path d="M-5.8358 14.4225
L-5.7148 14.4830
" />
<path d="M-5.7148 14.4830
L-5.5939 14.6040
" />
<path d="M-5.5939 14.6040
L-5.5334 14.8459
" />
<path d="M-5.5334 14.8459
L-5.5334 15.2692
" />
<path d="M-5.5334 15.2692
L-5.5939 15.5111
" />
<path d="M-5.5939 15.5111
L-5.7148 15.6321
" />
<path d="M-5.7148 15.6321
L-5.8358 15.6925
" />
<path d="M-5.8358 15.6925
L-6.0777 15.6925
" />
<path d="M-6.0777 15.6925
L-6.1986 15.6321
" />
<path d="M-6.1986 15.6321
L-6.3196 15.5111
" />
<path d="M-6.3196 15.5111
L-6.3800 15.2692
" />
<path d="M-6.3800 15.2692
L-6.3800 14.8459
" />
<path d="M-6.3800 14.8459
L-6.3196 14.6040
" />
<path d="M-6.3196 14.6040
L-6.1986 14.4830
" />
<path d="M-6.1986 14.4830
L-6.0777 14.4225
" />
<path d="M-5.2915 15.8135
L-4.3238 15.8135
" />
<path d="M-4.0215 14.8459
L-4.0215 15.6925
" />
<path d="M-4.0215 14.9668
L-3.9610 14.9063
" />
<path d="M-3.9610 14.9063
L-3.8400 14.8459
" />
<path d="M-3.8400 14.8459
L-3.6586 14.8459
" />
<path d="M-3.6586 14.8459
L-3.5377 14.9063
" />
<path d="M-3.5377 14.9063
L-3.4772 15.0273
" />
<path d="M-3.4772 15.0273
L-3.4772 15.6925
" />
<path d="M-2.1468 15.6925
L-2.5701 15.0878
" />
<path d="M-2.8725 15.6925
L-2.8725 14.4225
" />
<path d="M-2.8725 14.4225
L-2.3887 14.4225
" />
<path d="M-2.3887 14.4225
L-2.2677 14.4830
" />
<path d="M-2.2677 14.4830
L-2.2072 14.5435
" />
<path d="M-2.2072 14.5435
L-2.1468 14.6644
" />
<path d="M-2.1468 14.6644
L-2.1468 14.8459
" />
<path d="M-2.1468 14.8459
L-2.2072 14.9668
" />
<path d="M-2.2072 14.9668
L-2.2677 15.0273
" />
<path d="M-2.2677 15.0273
L-2.3887 15.0878
" />
<path d="M-2.3887 15.0878
L-2.8725 15.0878
" />
<path d="M-1.1791 15.0273
L-1.6025 15.0273
" />
<path d="M-1.6025 15.6925
L-1.6025 14.4225
" />
<path d="M-1.6025 14.4225
L-0.9977 14.4225
" />
<path d="M0.0908 14.4225
L-0.5139 14.4225
" />
<path d="M-0.5139 14.4225
L-0.5743 15.0273
" />
<path d="M-0.5743 15.0273
L-0.5139 14.9668
" />
<path d="M-0.5139 14.9668
L-0.3929 14.9063
" />
<path d="M-0.3929 14.9063
L-0.0905 14.9063
" />
<path d="M-0.0905 14.9063
L0.0303 14.9668
" />
<path d="M0.0303 14.9668
L0.0908 15.0273
" />
<path d="M0.0908 15.0273
L0.1513 15.1482
" />
<path d="M0.1513 15.1482
L0.1513 15.4506
" />
<path d="M0.1513 15.4506
L0.0908 15.5716
" />
<path d="M0.0908 15.5716
L0.0303 15.6321
" />
<path d="M0.0303 15.6321
L-0.0905 15.6925
" />
<path d="M-0.0905 15.6925
L-0.3929 15.6925
" />
<path d="M-0.3929 15.6925
L-0.5139 15.6321
" />
<path d="M-0.5139 15.6321
L-0.5743 15.5716
" />
<path d="M0.6351 14.5435
L0.6955 14.4830
" />
<path d="M0.6955 14.4830
L0.8165 14.4225
" />
<path d="M0.8165 14.4225
L1.1189 14.4225
" />
<path d="M1.1189 14.4225
L1.2398 14.4830
" />
<path d="M1.2398 14.4830
L1.3003 14.5435
" />
<path d="M1.3003 14.5435
L1.3608 14.6644
" />
<path d="M1.3608 14.6644
L1.3608 14.7854
" />
<path d="M1.3608 14.7854
L1.3003 14.9668
" />
<path d="M1.3003 14.9668
L0.5746 15.6925
" />
<path d="M0.5746 15.6925
L1.3608 15.6925
" />
<path d="M2.0865 14.9668
L1.9655 14.9063
" />
<path d="M1.9655 14.9063
L1.9050 14.8459
" />
<path d="M1.9050 14.8459
L1.8446 14.7249
" />
<path d="M1.8446 14.7249
L1.8446 14.6644
" />
<path d="M1.8446 14.6644
L1.9050 14.5435
" />
<path d="M1.9050 14.5435
L1.9655 14.4830
" />
<path d="M1.9655 14.4830
L2.0865 14.4225
" />
<path d="M2.0865 14.4225
L2.3284 14.4225
" />
<path d="M2.3284 14.4225
L2.4493 14.4830
" />
<path d="M2.4493 14.4830
L2.5098 14.5435
" />
<path d="M2.5098 14.5435
L2.5703 14.6644
" />
<path d="M2.5703 14.6644
L2.5703 14.7249
" />
<path d="M2.5703 14.7249
L2.5098 14.8459
" />
<path d="M2.5098 14.8459
L2.4493 14.9063
" />
<path d="M2.4493 14.9063
L2.3284 14.9668
" />
<path d="M2.3284 14.9668
L2.0865 14.9668
" />
<path d="M2.0865 14.9668
L1.9655 15.0273
" />
<path d="M1.9655 15.0273
L1.9050 15.0878
" />
<path d="M1.9050 15.0878
L1.8446 15.2087
" />
<path d="M1.8446 15.2087
L1.8446 15.4506
" />
<path d="M1.8446 15.4506
L1.9050 15.5716
" />
<path d="M1.9050 15.5716
L1.9655 15.6321
" />
<path d="M1.9655 15.6321
L2.0865 15.6925
" />
<path d="M2.0865 15.6925
L2.3284 15.6925
" />
<path d="M2.3284 15.6925
L2.4493 15.6321
" />
<path d="M2.4493 15.6321
L2.5098 15.5716
" />
<path d="M2.5098 15.5716
L2.5703 15.4506
" />
<path d="M2.5703 15.4506
L2.5703 15.2087
" />
<path d="M2.5703 15.2087
L2.5098 15.0878
" />
<path d="M2.5098 15.0878
L2.4493 15.0273
" />
<path d="M2.4493 15.0273
L2.3284 14.9668
" />
<path d="M3.6588 14.8459
L3.6588 15.6925
" />
<path d="M3.3564 14.3621
L3.0541 15.2692
" />
<path d="M3.0541 15.2692
L3.8402 15.2692
" />
<path d="M4.5659 14.4225
L4.6869 14.4225
" />
<path d="M4.6869 14.4225
L4.8078 14.4830
" />
<path d="M4.8078 14.4830
L4.8683 14.5435
" />
<path d="M4.8683 14.5435
L4.9288 14.6644
" />
<path d="M4.9288 14.6644
L4.9893 14.9063
" />
<path d="M4.9893 14.9063
L4.9893 15.2087
" />
<path d="M4.9893 15.2087
L4.9288 15.4506
" />
<path d="M4.9288 15.4506
L4.8683 15.5716
" />
<path d="M4.8683 15.5716
L4.8078 15.6321
" />
<path d="M4.8078 15.6321
L4.6869 15.6925
" />
<path d="M4.6869 15.6925
L4.5659 15.6925
" />
<path d="M4.5659 15.6925
L4.4450 15.6321
" />
<path d="M4.4450 15.6321
L4.3845 15.5716
" />
<path d="M4.3845 15.5716
L4.3240 15.4506
" />
<path d="M4.3240 15.4506
L4.2636 15.2087
" />
<path d="M4.2636 15.2087
L4.2636 14.9063
" />
<path d="M4.2636 14.9063
L4.3240 14.6644
" />
<path d="M4.3240 14.6644
L4.3845 14.5435
" />
<path d="M4.3845 14.5435
L4.4450 14.4830
" />
<path d="M4.4450 14.4830
L4.5659 14.4225
" />
<path d="M5.2312 15.8135
L6.1988 15.8135
" />
<path d="M6.9245 15.0273
L7.1059 15.0878
" />
<path d="M7.1059 15.0878
L7.1664 15.1482
" />
<path d="M7.1664 15.1482
L7.2268 15.2692
" />
<path d="M7.2268 15.2692
L7.2268 15.4506
" />
<path d="M7.2268 15.4506
L7.1664 15.5716
" />
<path d="M7.1664 15.5716
L7.1059 15.6321
" />
<path d="M7.1059 15.6321
L6.9849 15.6925
" />
<path d="M6.9849 15.6925
L6.5011 15.6925
" />
<path d="M6.5011 15.6925
L6.5011 14.4225
" />
<path d="M6.5011 14.4225
L6.9245 14.4225
" />
<path d="M6.9245 14.4225
L7.0454 14.4830
" />
<path d="M7.0454 14.4830
L7.1059 14.5435
" />
<path d="M7.1059 14.5435
L7.1664 14.6644
" />
<path d="M7.1664 14.6644
L7.1664 14.7854
" />
<path d="M7.1664 14.7854
L7.1059 14.9063
" />
<path d="M7.1059 14.9063
L7.0454 14.9668
" />
<path d="M7.0454 14.9668
L6.9245 15.0273
" />
<path d="M6.9245 15.0273
L6.5011 15.0273
" />
<path d="M7.7107 15.3297
L8.3154 15.3297
" />
<path d="M7.5897 15.6925
L8.0130 14.4225
" />
<path d="M8.0130 14.4225
L8.4364 15.6925
" />
<path d="M8.6783 14.4225
L9.4040 14.4225
" />
<path d="M9.0412 15.6925
L9.0412 14.4225
" />
</g></g> 
</svg>
