<?xml version="1.0" standalone="no"?>
 <!DOCTYPE svg PUBLIC "-//W3C//DTD SVG 1.1//EN" 
 "http://www.w3.org/Graphics/SVG/1.1/DTD/svg11.dtd"> 
<svg
  xmlns:svg="http://www.w3.org/2000/svg"
  xmlns="http://www.w3.org/2000/svg"
  xmlns:xlink="http://www.w3.org/1999/xlink"
  version="1.1"
  width="34.4424mm" height="31.4198mm" viewBox="0.0000 0.0000 34.4424 31.4198">
<title>SVG Image created as XIAO_nRF52840_unit1.svg date 2025/05/12 22:52:33 </title>
  <desc>Image generated by Eeschema-SVG </desc>
<g style="fill:#000000; fill-opacity:1.0000;stroke:#000000; stroke-opacity:1.0000;
stroke-linecap:round; stroke-linejoin:round;"
 transform="translate(0 0) scale(1 1)">
</g>
<g style="fill:#FFFFC2; fill-opacity:1.0000; stroke:none;">
<rect x="5.791200" y="6.311900" width="22.860000" height="19.050000" rx="0.000000" />
</g>
<g style="fill:none; 
stroke:#840000; stroke-width:0.1524; stroke-opacity:1; 
stroke-linecap:round; stroke-linejoin:round;">
<rect x="5.791200" y="6.311900" width="22.860000" height="19.050000" rx="0.000000" />
<path d="M5.7912 8.2169
L3.2512 8.2169
" />
</g>
<g style="fill:none; 
stroke:#006464; stroke-width:0.1524; stroke-opacity:1; 
stroke-linecap:round; stroke-linejoin:round;">
<text x="6.2992" y="8.8519"
textLength="6.3113" font-size="1.6933" lengthAdjust="spacingAndGlyphs"
text-anchor="start" opacity="0" stroke-opacity="0">D0/A0</text>
<g class="stroked-text"><desc>D0/A0</desc>
<path d="M6.7017 8.7964
L6.7017 7.5264
" />
<path d="M6.7017 7.5264
L7.0041 7.5264
" />
<path d="M7.0041 7.5264
L7.1855 7.5869
" />
<path d="M7.1855 7.5869
L7.3065 7.7079
" />
<path d="M7.3065 7.7079
L7.3670 7.8288
" />
<path d="M7.3670 7.8288
L7.4274 8.0707
" />
<path d="M7.4274 8.0707
L7.4274 8.2521
" />
<path d="M7.4274 8.2521
L7.3670 8.4940
" />
<path d="M7.3670 8.4940
L7.3065 8.6150
" />
<path d="M7.3065 8.6150
L7.1855 8.7360
" />
<path d="M7.1855 8.7360
L7.0041 8.7964
" />
<path d="M7.0041 8.7964
L6.7017 8.7964
" />
<path d="M8.2136 7.5264
L8.3346 7.5264
" />
<path d="M8.3346 7.5264
L8.4555 7.5869
" />
<path d="M8.4555 7.5869
L8.5160 7.6474
" />
<path d="M8.5160 7.6474
L8.5765 7.7683
" />
<path d="M8.5765 7.7683
L8.6370 8.0102
" />
<path d="M8.6370 8.0102
L8.6370 8.3126
" />
<path d="M8.6370 8.3126
L8.5765 8.5545
" />
<path d="M8.5765 8.5545
L8.5160 8.6755
" />
<path d="M8.5160 8.6755
L8.4555 8.7360
" />
<path d="M8.4555 8.7360
L8.3346 8.7964
" />
<path d="M8.3346 8.7964
L8.2136 8.7964
" />
<path d="M8.2136 8.7964
L8.0927 8.7360
" />
<path d="M8.0927 8.7360
L8.0322 8.6755
" />
<path d="M8.0322 8.6755
L7.9717 8.5545
" />
<path d="M7.9717 8.5545
L7.9113 8.3126
" />
<path d="M7.9113 8.3126
L7.9113 8.0102
" />
<path d="M7.9113 8.0102
L7.9717 7.7683
" />
<path d="M7.9717 7.7683
L8.0322 7.6474
" />
<path d="M8.0322 7.6474
L8.0927 7.5869
" />
<path d="M8.0927 7.5869
L8.2136 7.5264
" />
<path d="M10.0884 7.4660
L8.9998 9.0988
" />
<path d="M10.4513 8.4336
L11.0560 8.4336
" />
<path d="M10.3303 8.7964
L10.7536 7.5264
" />
<path d="M10.7536 7.5264
L11.1770 8.7964
" />
<path d="M11.8422 7.5264
L11.9632 7.5264
" />
<path d="M11.9632 7.5264
L12.0841 7.5869
" />
<path d="M12.0841 7.5869
L12.1446 7.6474
" />
<path d="M12.1446 7.6474
L12.2051 7.7683
" />
<path d="M12.2051 7.7683
L12.2656 8.0102
" />
<path d="M12.2656 8.0102
L12.2656 8.3126
" />
<path d="M12.2656 8.3126
L12.2051 8.5545
" />
<path d="M12.2051 8.5545
L12.1446 8.6755
" />
<path d="M12.1446 8.6755
L12.0841 8.7360
" />
<path d="M12.0841 8.7360
L11.9632 8.7964
" />
<path d="M11.9632 8.7964
L11.8422 8.7964
" />
<path d="M11.8422 8.7964
L11.7213 8.7360
" />
<path d="M11.7213 8.7360
L11.6608 8.6755
" />
<path d="M11.6608 8.6755
L11.6003 8.5545
" />
<path d="M11.6003 8.5545
L11.5399 8.3126
" />
<path d="M11.5399 8.3126
L11.5399 8.0102
" />
<path d="M11.5399 8.0102
L11.6003 7.7683
" />
<path d="M11.6003 7.7683
L11.6608 7.6474
" />
<path d="M11.6608 7.6474
L11.7213 7.5869
" />
<path d="M11.7213 7.5869
L11.8422 7.5264
" />
</g></g>
<g style="fill:none; 
stroke:#A90000; stroke-width:0.1524; stroke-opacity:1; 
stroke-linecap:round; stroke-linejoin:round;">
<text x="4.5212" y="7.9629"
textLength="1.4127" font-size="1.6933" lengthAdjust="spacingAndGlyphs"
text-anchor="middle" opacity="0" stroke-opacity="0">1</text>
<g class="stroked-text"><desc>1</desc>
<path d="M4.8841 7.7994
L4.1584 7.7994
" />
<path d="M4.5212 7.7994
L4.5212 6.5294
" />
<path d="M4.5212 6.5294
L4.4003 6.7109
" />
<path d="M4.4003 6.7109
L4.2793 6.8318
" />
<path d="M4.2793 6.8318
L4.1584 6.8923
" />
</g></g>
<g style="fill:none; 
stroke:#840000; stroke-width:0.1524; stroke-opacity:1; 
stroke-linecap:round; stroke-linejoin:round;">
<path d="M5.7912 10.7569
L3.2512 10.7569
" />
</g>
<g style="fill:none; 
stroke:#006464; stroke-width:0.1524; stroke-opacity:1; 
stroke-linecap:round; stroke-linejoin:round;">
<text x="6.2992" y="11.3919"
textLength="6.3113" font-size="1.6933" lengthAdjust="spacingAndGlyphs"
text-anchor="start" opacity="0" stroke-opacity="0">D1/A1</text>
<g class="stroked-text"><desc>D1/A1</desc>
<path d="M6.7017 11.3364
L6.7017 10.0664
" />
<path d="M6.7017 10.0664
L7.0041 10.0664
" />
<path d="M7.0041 10.0664
L7.1855 10.1269
" />
<path d="M7.1855 10.1269
L7.3065 10.2479
" />
<path d="M7.3065 10.2479
L7.3670 10.3688
" />
<path d="M7.3670 10.3688
L7.4274 10.6107
" />
<path d="M7.4274 10.6107
L7.4274 10.7921
" />
<path d="M7.4274 10.7921
L7.3670 11.0340
" />
<path d="M7.3670 11.0340
L7.3065 11.1550
" />
<path d="M7.3065 11.1550
L7.1855 11.2760
" />
<path d="M7.1855 11.2760
L7.0041 11.3364
" />
<path d="M7.0041 11.3364
L6.7017 11.3364
" />
<path d="M8.6370 11.3364
L7.9113 11.3364
" />
<path d="M8.2741 11.3364
L8.2741 10.0664
" />
<path d="M8.2741 10.0664
L8.1532 10.2479
" />
<path d="M8.1532 10.2479
L8.0322 10.3688
" />
<path d="M8.0322 10.3688
L7.9113 10.4293
" />
<path d="M10.0884 10.0060
L8.9998 11.6388
" />
<path d="M10.4513 10.9736
L11.0560 10.9736
" />
<path d="M10.3303 11.3364
L10.7536 10.0664
" />
<path d="M10.7536 10.0664
L11.1770 11.3364
" />
<path d="M12.2656 11.3364
L11.5399 11.3364
" />
<path d="M11.9027 11.3364
L11.9027 10.0664
" />
<path d="M11.9027 10.0664
L11.7818 10.2479
" />
<path d="M11.7818 10.2479
L11.6608 10.3688
" />
<path d="M11.6608 10.3688
L11.5399 10.4293
" />
</g></g>
<g style="fill:none; 
stroke:#A90000; stroke-width:0.1524; stroke-opacity:1; 
stroke-linecap:round; stroke-linejoin:round;">
<text x="4.5212" y="10.5029"
textLength="1.4127" font-size="1.6933" lengthAdjust="spacingAndGlyphs"
text-anchor="middle" opacity="0" stroke-opacity="0">2</text>
<g class="stroked-text"><desc>2</desc>
<path d="M4.1584 9.1904
L4.2188 9.1299
" />
<path d="M4.2188 9.1299
L4.3398 9.0694
" />
<path d="M4.3398 9.0694
L4.6422 9.0694
" />
<path d="M4.6422 9.0694
L4.7631 9.1299
" />
<path d="M4.7631 9.1299
L4.8236 9.1904
" />
<path d="M4.8236 9.1904
L4.8841 9.3113
" />
<path d="M4.8841 9.3113
L4.8841 9.4323
" />
<path d="M4.8841 9.4323
L4.8236 9.6137
" />
<path d="M4.8236 9.6137
L4.0979 10.3394
" />
<path d="M4.0979 10.3394
L4.8841 10.3394
" />
</g></g>
<g style="fill:none; 
stroke:#840000; stroke-width:0.1524; stroke-opacity:1; 
stroke-linecap:round; stroke-linejoin:round;">
<path d="M5.7912 13.2969
L3.2512 13.2969
" />
</g>
<g style="fill:none; 
stroke:#006464; stroke-width:0.1524; stroke-opacity:1; 
stroke-linecap:round; stroke-linejoin:round;">
<text x="6.2992" y="13.9319"
textLength="6.3113" font-size="1.6933" lengthAdjust="spacingAndGlyphs"
text-anchor="start" opacity="0" stroke-opacity="0">D2/A2</text>
<g class="stroked-text"><desc>D2/A2</desc>
<path d="M6.7017 13.8764
L6.7017 12.6064
" />
<path d="M6.7017 12.6064
L7.0041 12.6064
" />
<path d="M7.0041 12.6064
L7.1855 12.6669
" />
<path d="M7.1855 12.6669
L7.3065 12.7879
" />
<path d="M7.3065 12.7879
L7.3670 12.9088
" />
<path d="M7.3670 12.9088
L7.4274 13.1507
" />
<path d="M7.4274 13.1507
L7.4274 13.3321
" />
<path d="M7.4274 13.3321
L7.3670 13.5740
" />
<path d="M7.3670 13.5740
L7.3065 13.6950
" />
<path d="M7.3065 13.6950
L7.1855 13.8160
" />
<path d="M7.1855 13.8160
L7.0041 13.8764
" />
<path d="M7.0041 13.8764
L6.7017 13.8764
" />
<path d="M7.9113 12.7274
L7.9717 12.6669
" />
<path d="M7.9717 12.6669
L8.0927 12.6064
" />
<path d="M8.0927 12.6064
L8.3951 12.6064
" />
<path d="M8.3951 12.6064
L8.5160 12.6669
" />
<path d="M8.5160 12.6669
L8.5765 12.7274
" />
<path d="M8.5765 12.7274
L8.6370 12.8483
" />
<path d="M8.6370 12.8483
L8.6370 12.9693
" />
<path d="M8.6370 12.9693
L8.5765 13.1507
" />
<path d="M8.5765 13.1507
L7.8508 13.8764
" />
<path d="M7.8508 13.8764
L8.6370 13.8764
" />
<path d="M10.0884 12.5460
L8.9998 14.1788
" />
<path d="M10.4513 13.5136
L11.0560 13.5136
" />
<path d="M10.3303 13.8764
L10.7536 12.6064
" />
<path d="M10.7536 12.6064
L11.1770 13.8764
" />
<path d="M11.5399 12.7274
L11.6003 12.6669
" />
<path d="M11.6003 12.6669
L11.7213 12.6064
" />
<path d="M11.7213 12.6064
L12.0237 12.6064
" />
<path d="M12.0237 12.6064
L12.1446 12.6669
" />
<path d="M12.1446 12.6669
L12.2051 12.7274
" />
<path d="M12.2051 12.7274
L12.2656 12.8483
" />
<path d="M12.2656 12.8483
L12.2656 12.9693
" />
<path d="M12.2656 12.9693
L12.2051 13.1507
" />
<path d="M12.2051 13.1507
L11.4794 13.8764
" />
<path d="M11.4794 13.8764
L12.2656 13.8764
" />
</g></g>
<g style="fill:none; 
stroke:#A90000; stroke-width:0.1524; stroke-opacity:1; 
stroke-linecap:round; stroke-linejoin:round;">
<text x="4.5212" y="13.0429"
textLength="1.4127" font-size="1.6933" lengthAdjust="spacingAndGlyphs"
text-anchor="middle" opacity="0" stroke-opacity="0">3</text>
<g class="stroked-text"><desc>3</desc>
<path d="M4.0979 11.6094
L4.8841 11.6094
" />
<path d="M4.8841 11.6094
L4.4607 12.0932
" />
<path d="M4.4607 12.0932
L4.6422 12.0932
" />
<path d="M4.6422 12.0932
L4.7631 12.1537
" />
<path d="M4.7631 12.1537
L4.8236 12.2142
" />
<path d="M4.8236 12.2142
L4.8841 12.3351
" />
<path d="M4.8841 12.3351
L4.8841 12.6375
" />
<path d="M4.8841 12.6375
L4.8236 12.7585
" />
<path d="M4.8236 12.7585
L4.7631 12.8190
" />
<path d="M4.7631 12.8190
L4.6422 12.8794
" />
<path d="M4.6422 12.8794
L4.2793 12.8794
" />
<path d="M4.2793 12.8794
L4.1584 12.8190
" />
<path d="M4.1584 12.8190
L4.0979 12.7585
" />
</g></g>
<g style="fill:none; 
stroke:#840000; stroke-width:0.1524; stroke-opacity:1; 
stroke-linecap:round; stroke-linejoin:round;">
<path d="M5.7912 15.8369
L3.2512 15.8369
" />
</g>
<g style="fill:none; 
stroke:#006464; stroke-width:0.1524; stroke-opacity:1; 
stroke-linecap:round; stroke-linejoin:round;">
<text x="6.2992" y="16.4719"
textLength="6.3113" font-size="1.6933" lengthAdjust="spacingAndGlyphs"
text-anchor="start" opacity="0" stroke-opacity="0">D3/A3</text>
<g class="stroked-text"><desc>D3/A3</desc>
<path d="M6.7017 16.4164
L6.7017 15.1464
" />
<path d="M6.7017 15.1464
L7.0041 15.1464
" />
<path d="M7.0041 15.1464
L7.1855 15.2069
" />
<path d="M7.1855 15.2069
L7.3065 15.3279
" />
<path d="M7.3065 15.3279
L7.3670 15.4488
" />
<path d="M7.3670 15.4488
L7.4274 15.6907
" />
<path d="M7.4274 15.6907
L7.4274 15.8721
" />
<path d="M7.4274 15.8721
L7.3670 16.1140
" />
<path d="M7.3670 16.1140
L7.3065 16.2350
" />
<path d="M7.3065 16.2350
L7.1855 16.3560
" />
<path d="M7.1855 16.3560
L7.0041 16.4164
" />
<path d="M7.0041 16.4164
L6.7017 16.4164
" />
<path d="M7.8508 15.1464
L8.6370 15.1464
" />
<path d="M8.6370 15.1464
L8.2136 15.6302
" />
<path d="M8.2136 15.6302
L8.3951 15.6302
" />
<path d="M8.3951 15.6302
L8.5160 15.6907
" />
<path d="M8.5160 15.6907
L8.5765 15.7512
" />
<path d="M8.5765 15.7512
L8.6370 15.8721
" />
<path d="M8.6370 15.8721
L8.6370 16.1745
" />
<path d="M8.6370 16.1745
L8.5765 16.2955
" />
<path d="M8.5765 16.2955
L8.5160 16.3560
" />
<path d="M8.5160 16.3560
L8.3951 16.4164
" />
<path d="M8.3951 16.4164
L8.0322 16.4164
" />
<path d="M8.0322 16.4164
L7.9113 16.3560
" />
<path d="M7.9113 16.3560
L7.8508 16.2955
" />
<path d="M10.0884 15.0860
L8.9998 16.7188
" />
<path d="M10.4513 16.0536
L11.0560 16.0536
" />
<path d="M10.3303 16.4164
L10.7536 15.1464
" />
<path d="M10.7536 15.1464
L11.1770 16.4164
" />
<path d="M11.4794 15.1464
L12.2656 15.1464
" />
<path d="M12.2656 15.1464
L11.8422 15.6302
" />
<path d="M11.8422 15.6302
L12.0237 15.6302
" />
<path d="M12.0237 15.6302
L12.1446 15.6907
" />
<path d="M12.1446 15.6907
L12.2051 15.7512
" />
<path d="M12.2051 15.7512
L12.2656 15.8721
" />
<path d="M12.2656 15.8721
L12.2656 16.1745
" />
<path d="M12.2656 16.1745
L12.2051 16.2955
" />
<path d="M12.2051 16.2955
L12.1446 16.3560
" />
<path d="M12.1446 16.3560
L12.0237 16.4164
" />
<path d="M12.0237 16.4164
L11.6608 16.4164
" />
<path d="M11.6608 16.4164
L11.5399 16.3560
" />
<path d="M11.5399 16.3560
L11.4794 16.2955
" />
</g></g>
<g style="fill:none; 
stroke:#A90000; stroke-width:0.1524; stroke-opacity:1; 
stroke-linecap:round; stroke-linejoin:round;">
<text x="4.5212" y="15.5829"
textLength="1.4127" font-size="1.6933" lengthAdjust="spacingAndGlyphs"
text-anchor="middle" opacity="0" stroke-opacity="0">4</text>
<g class="stroked-text"><desc>4</desc>
<path d="M4.7631 14.5728
L4.7631 15.4194
" />
<path d="M4.4607 14.0890
L4.1584 14.9961
" />
<path d="M4.1584 14.9961
L4.9445 14.9961
" />
</g></g>
<g style="fill:none; 
stroke:#840000; stroke-width:0.1524; stroke-opacity:1; 
stroke-linecap:round; stroke-linejoin:round;">
<path d="M5.7912 18.3769
L3.2512 18.3769
" />
</g>
<g style="fill:none; 
stroke:#006464; stroke-width:0.1524; stroke-opacity:1; 
stroke-linecap:round; stroke-linejoin:round;">
<text x="6.2992" y="19.0119"
textLength="7.5813" font-size="1.6933" lengthAdjust="spacingAndGlyphs"
text-anchor="start" opacity="0" stroke-opacity="0">D4/SDA</text>
<g class="stroked-text"><desc>D4/SDA</desc>
<path d="M6.7017 18.9564
L6.7017 17.6864
" />
<path d="M6.7017 17.6864
L7.0041 17.6864
" />
<path d="M7.0041 17.6864
L7.1855 17.7469
" />
<path d="M7.1855 17.7469
L7.3065 17.8679
" />
<path d="M7.3065 17.8679
L7.3670 17.9888
" />
<path d="M7.3670 17.9888
L7.4274 18.2307
" />
<path d="M7.4274 18.2307
L7.4274 18.4121
" />
<path d="M7.4274 18.4121
L7.3670 18.6540
" />
<path d="M7.3670 18.6540
L7.3065 18.7750
" />
<path d="M7.3065 18.7750
L7.1855 18.8960
" />
<path d="M7.1855 18.8960
L7.0041 18.9564
" />
<path d="M7.0041 18.9564
L6.7017 18.9564
" />
<path d="M8.5160 18.1098
L8.5160 18.9564
" />
<path d="M8.2136 17.6260
L7.9113 18.5331
" />
<path d="M7.9113 18.5331
L8.6974 18.5331
" />
<path d="M10.0884 17.6260
L8.9998 19.2588
" />
<path d="M10.4513 18.8960
L10.6327 18.9564
" />
<path d="M10.6327 18.9564
L10.9351 18.9564
" />
<path d="M10.9351 18.9564
L11.0560 18.8960
" />
<path d="M11.0560 18.8960
L11.1165 18.8355
" />
<path d="M11.1165 18.8355
L11.1770 18.7145
" />
<path d="M11.1770 18.7145
L11.1770 18.5936
" />
<path d="M11.1770 18.5936
L11.1165 18.4726
" />
<path d="M11.1165 18.4726
L11.0560 18.4121
" />
<path d="M11.0560 18.4121
L10.9351 18.3517
" />
<path d="M10.9351 18.3517
L10.6932 18.2912
" />
<path d="M10.6932 18.2912
L10.5722 18.2307
" />
<path d="M10.5722 18.2307
L10.5117 18.1702
" />
<path d="M10.5117 18.1702
L10.4513 18.0493
" />
<path d="M10.4513 18.0493
L10.4513 17.9283
" />
<path d="M10.4513 17.9283
L10.5117 17.8074
" />
<path d="M10.5117 17.8074
L10.5722 17.7469
" />
<path d="M10.5722 17.7469
L10.6932 17.6864
" />
<path d="M10.6932 17.6864
L10.9955 17.6864
" />
<path d="M10.9955 17.6864
L11.1770 17.7469
" />
<path d="M11.7212 18.9564
L11.7212 17.6864
" />
<path d="M11.7212 17.6864
L12.0236 17.6864
" />
<path d="M12.0236 17.6864
L12.2050 17.7469
" />
<path d="M12.2050 17.7469
L12.3260 17.8679
" />
<path d="M12.3260 17.8679
L12.3865 17.9888
" />
<path d="M12.3865 17.9888
L12.4469 18.2307
" />
<path d="M12.4469 18.2307
L12.4469 18.4121
" />
<path d="M12.4469 18.4121
L12.3865 18.6540
" />
<path d="M12.3865 18.6540
L12.3260 18.7750
" />
<path d="M12.3260 18.7750
L12.2050 18.8960
" />
<path d="M12.2050 18.8960
L12.0236 18.9564
" />
<path d="M12.0236 18.9564
L11.7212 18.9564
" />
<path d="M12.9308 18.5936
L13.5355 18.5936
" />
<path d="M12.8098 18.9564
L13.2331 17.6864
" />
<path d="M13.2331 17.6864
L13.6565 18.9564
" />
</g></g>
<g style="fill:none; 
stroke:#A90000; stroke-width:0.1524; stroke-opacity:1; 
stroke-linecap:round; stroke-linejoin:round;">
<text x="4.5212" y="18.1229"
textLength="1.4127" font-size="1.6933" lengthAdjust="spacingAndGlyphs"
text-anchor="middle" opacity="0" stroke-opacity="0">5</text>
<g class="stroked-text"><desc>5</desc>
<path d="M4.8236 16.6894
L4.2188 16.6894
" />
<path d="M4.2188 16.6894
L4.1584 17.2942
" />
<path d="M4.1584 17.2942
L4.2188 17.2337
" />
<path d="M4.2188 17.2337
L4.3398 17.1732
" />
<path d="M4.3398 17.1732
L4.6422 17.1732
" />
<path d="M4.6422 17.1732
L4.7631 17.2337
" />
<path d="M4.7631 17.2337
L4.8236 17.2942
" />
<path d="M4.8236 17.2942
L4.8841 17.4151
" />
<path d="M4.8841 17.4151
L4.8841 17.7175
" />
<path d="M4.8841 17.7175
L4.8236 17.8385
" />
<path d="M4.8236 17.8385
L4.7631 17.8990
" />
<path d="M4.7631 17.8990
L4.6422 17.9594
" />
<path d="M4.6422 17.9594
L4.3398 17.9594
" />
<path d="M4.3398 17.9594
L4.2188 17.8990
" />
<path d="M4.2188 17.8990
L4.1584 17.8385
" />
</g></g>
<g style="fill:none; 
stroke:#840000; stroke-width:0.1524; stroke-opacity:1; 
stroke-linecap:round; stroke-linejoin:round;">
<path d="M5.7912 20.9169
L3.2512 20.9169
" />
</g>
<g style="fill:none; 
stroke:#006464; stroke-width:0.1524; stroke-opacity:1; 
stroke-linecap:round; stroke-linejoin:round;">
<text x="6.2992" y="21.5519"
textLength="7.5208" font-size="1.6933" lengthAdjust="spacingAndGlyphs"
text-anchor="start" opacity="0" stroke-opacity="0">D5/SCL</text>
<g class="stroked-text"><desc>D5/SCL</desc>
<path d="M6.7017 21.4964
L6.7017 20.2264
" />
<path d="M6.7017 20.2264
L7.0041 20.2264
" />
<path d="M7.0041 20.2264
L7.1855 20.2869
" />
<path d="M7.1855 20.2869
L7.3065 20.4079
" />
<path d="M7.3065 20.4079
L7.3670 20.5288
" />
<path d="M7.3670 20.5288
L7.4274 20.7707
" />
<path d="M7.4274 20.7707
L7.4274 20.9521
" />
<path d="M7.4274 20.9521
L7.3670 21.1940
" />
<path d="M7.3670 21.1940
L7.3065 21.3150
" />
<path d="M7.3065 21.3150
L7.1855 21.4360
" />
<path d="M7.1855 21.4360
L7.0041 21.4964
" />
<path d="M7.0041 21.4964
L6.7017 21.4964
" />
<path d="M8.5765 20.2264
L7.9717 20.2264
" />
<path d="M7.9717 20.2264
L7.9113 20.8312
" />
<path d="M7.9113 20.8312
L7.9717 20.7707
" />
<path d="M7.9717 20.7707
L8.0927 20.7102
" />
<path d="M8.0927 20.7102
L8.3951 20.7102
" />
<path d="M8.3951 20.7102
L8.5160 20.7707
" />
<path d="M8.5160 20.7707
L8.5765 20.8312
" />
<path d="M8.5765 20.8312
L8.6370 20.9521
" />
<path d="M8.6370 20.9521
L8.6370 21.2545
" />
<path d="M8.6370 21.2545
L8.5765 21.3755
" />
<path d="M8.5765 21.3755
L8.5160 21.4360
" />
<path d="M8.5160 21.4360
L8.3951 21.4964
" />
<path d="M8.3951 21.4964
L8.0927 21.4964
" />
<path d="M8.0927 21.4964
L7.9717 21.4360
" />
<path d="M7.9717 21.4360
L7.9113 21.3755
" />
<path d="M10.0884 20.1660
L8.9998 21.7988
" />
<path d="M10.4513 21.4360
L10.6327 21.4964
" />
<path d="M10.6327 21.4964
L10.9351 21.4964
" />
<path d="M10.9351 21.4964
L11.0560 21.4360
" />
<path d="M11.0560 21.4360
L11.1165 21.3755
" />
<path d="M11.1165 21.3755
L11.1770 21.2545
" />
<path d="M11.1770 21.2545
L11.1770 21.1336
" />
<path d="M11.1770 21.1336
L11.1165 21.0126
" />
<path d="M11.1165 21.0126
L11.0560 20.9521
" />
<path d="M11.0560 20.9521
L10.9351 20.8917
" />
<path d="M10.9351 20.8917
L10.6932 20.8312
" />
<path d="M10.6932 20.8312
L10.5722 20.7707
" />
<path d="M10.5722 20.7707
L10.5117 20.7102
" />
<path d="M10.5117 20.7102
L10.4513 20.5893
" />
<path d="M10.4513 20.5893
L10.4513 20.4683
" />
<path d="M10.4513 20.4683
L10.5117 20.3474
" />
<path d="M10.5117 20.3474
L10.5722 20.2869
" />
<path d="M10.5722 20.2869
L10.6932 20.2264
" />
<path d="M10.6932 20.2264
L10.9955 20.2264
" />
<path d="M10.9955 20.2264
L11.1770 20.2869
" />
<path d="M12.4469 21.3755
L12.3865 21.4360
" />
<path d="M12.3865 21.4360
L12.2050 21.4964
" />
<path d="M12.2050 21.4964
L12.0841 21.4964
" />
<path d="M12.0841 21.4964
L11.9027 21.4360
" />
<path d="M11.9027 21.4360
L11.7817 21.3150
" />
<path d="M11.7817 21.3150
L11.7212 21.1940
" />
<path d="M11.7212 21.1940
L11.6608 20.9521
" />
<path d="M11.6608 20.9521
L11.6608 20.7707
" />
<path d="M11.6608 20.7707
L11.7212 20.5288
" />
<path d="M11.7212 20.5288
L11.7817 20.4079
" />
<path d="M11.7817 20.4079
L11.9027 20.2869
" />
<path d="M11.9027 20.2869
L12.0841 20.2264
" />
<path d="M12.0841 20.2264
L12.2050 20.2264
" />
<path d="M12.2050 20.2264
L12.3865 20.2869
" />
<path d="M12.3865 20.2869
L12.4469 20.3474
" />
<path d="M13.5960 21.4964
L12.9912 21.4964
" />
<path d="M12.9912 21.4964
L12.9912 20.2264
" />
</g></g>
<g style="fill:none; 
stroke:#A90000; stroke-width:0.1524; stroke-opacity:1; 
stroke-linecap:round; stroke-linejoin:round;">
<text x="4.5212" y="20.6629"
textLength="1.4127" font-size="1.6933" lengthAdjust="spacingAndGlyphs"
text-anchor="middle" opacity="0" stroke-opacity="0">6</text>
<g class="stroked-text"><desc>6</desc>
<path d="M4.7631 19.2294
L4.5212 19.2294
" />
<path d="M4.5212 19.2294
L4.4003 19.2899
" />
<path d="M4.4003 19.2899
L4.3398 19.3504
" />
<path d="M4.3398 19.3504
L4.2188 19.5318
" />
<path d="M4.2188 19.5318
L4.1584 19.7737
" />
<path d="M4.1584 19.7737
L4.1584 20.2575
" />
<path d="M4.1584 20.2575
L4.2188 20.3785
" />
<path d="M4.2188 20.3785
L4.2793 20.4390
" />
<path d="M4.2793 20.4390
L4.4003 20.4994
" />
<path d="M4.4003 20.4994
L4.6422 20.4994
" />
<path d="M4.6422 20.4994
L4.7631 20.4390
" />
<path d="M4.7631 20.4390
L4.8236 20.3785
" />
<path d="M4.8236 20.3785
L4.8841 20.2575
" />
<path d="M4.8841 20.2575
L4.8841 19.9551
" />
<path d="M4.8841 19.9551
L4.8236 19.8342
" />
<path d="M4.8236 19.8342
L4.7631 19.7737
" />
<path d="M4.7631 19.7737
L4.6422 19.7132
" />
<path d="M4.6422 19.7132
L4.4003 19.7132
" />
<path d="M4.4003 19.7132
L4.2793 19.7737
" />
<path d="M4.2793 19.7737
L4.2188 19.8342
" />
<path d="M4.2188 19.8342
L4.1584 19.9551
" />
</g></g>
<g style="fill:none; 
stroke:#840000; stroke-width:0.1524; stroke-opacity:1; 
stroke-linecap:round; stroke-linejoin:round;">
<path d="M5.7912 23.4569
L3.2512 23.4569
" />
</g>
<g style="fill:none; 
stroke:#006464; stroke-width:0.1524; stroke-opacity:1; 
stroke-linecap:round; stroke-linejoin:round;">
<text x="6.2992" y="24.0919"
textLength="6.1903" font-size="1.6933" lengthAdjust="spacingAndGlyphs"
text-anchor="start" opacity="0" stroke-opacity="0">D6/TX</text>
<g class="stroked-text"><desc>D6/TX</desc>
<path d="M6.7017 24.0364
L6.7017 22.7664
" />
<path d="M6.7017 22.7664
L7.0041 22.7664
" />
<path d="M7.0041 22.7664
L7.1855 22.8269
" />
<path d="M7.1855 22.8269
L7.3065 22.9479
" />
<path d="M7.3065 22.9479
L7.3670 23.0688
" />
<path d="M7.3670 23.0688
L7.4274 23.3107
" />
<path d="M7.4274 23.3107
L7.4274 23.4921
" />
<path d="M7.4274 23.4921
L7.3670 23.7340
" />
<path d="M7.3670 23.7340
L7.3065 23.8550
" />
<path d="M7.3065 23.8550
L7.1855 23.9760
" />
<path d="M7.1855 23.9760
L7.0041 24.0364
" />
<path d="M7.0041 24.0364
L6.7017 24.0364
" />
<path d="M8.5160 22.7664
L8.2741 22.7664
" />
<path d="M8.2741 22.7664
L8.1532 22.8269
" />
<path d="M8.1532 22.8269
L8.0927 22.8874
" />
<path d="M8.0927 22.8874
L7.9717 23.0688
" />
<path d="M7.9717 23.0688
L7.9113 23.3107
" />
<path d="M7.9113 23.3107
L7.9113 23.7945
" />
<path d="M7.9113 23.7945
L7.9717 23.9155
" />
<path d="M7.9717 23.9155
L8.0322 23.9760
" />
<path d="M8.0322 23.9760
L8.1532 24.0364
" />
<path d="M8.1532 24.0364
L8.3951 24.0364
" />
<path d="M8.3951 24.0364
L8.5160 23.9760
" />
<path d="M8.5160 23.9760
L8.5765 23.9155
" />
<path d="M8.5765 23.9155
L8.6370 23.7945
" />
<path d="M8.6370 23.7945
L8.6370 23.4921
" />
<path d="M8.6370 23.4921
L8.5765 23.3712
" />
<path d="M8.5765 23.3712
L8.5160 23.3107
" />
<path d="M8.5160 23.3107
L8.3951 23.2502
" />
<path d="M8.3951 23.2502
L8.1532 23.2502
" />
<path d="M8.1532 23.2502
L8.0322 23.3107
" />
<path d="M8.0322 23.3107
L7.9717 23.3712
" />
<path d="M7.9717 23.3712
L7.9113 23.4921
" />
<path d="M10.0884 22.7060
L8.9998 24.3388
" />
<path d="M10.3303 22.7664
L11.0560 22.7664
" />
<path d="M10.6932 24.0364
L10.6932 22.7664
" />
<path d="M11.3584 22.7664
L12.2050 24.0364
" />
<path d="M12.2050 22.7664
L11.3584 24.0364
" />
</g></g>
<g style="fill:none; 
stroke:#A90000; stroke-width:0.1524; stroke-opacity:1; 
stroke-linecap:round; stroke-linejoin:round;">
<text x="4.5212" y="23.2029"
textLength="1.4127" font-size="1.6933" lengthAdjust="spacingAndGlyphs"
text-anchor="middle" opacity="0" stroke-opacity="0">7</text>
<g class="stroked-text"><desc>7</desc>
<path d="M4.0979 21.7694
L4.9445 21.7694
" />
<path d="M4.9445 21.7694
L4.4003 23.0394
" />
</g></g>
<g style="fill:none; 
stroke:#840000; stroke-width:0.1524; stroke-opacity:1; 
stroke-linecap:round; stroke-linejoin:round;">
<path d="M28.6512 8.2169
L31.1912 8.2169
" />
</g>
<g style="fill:none; 
stroke:#006464; stroke-width:0.1524; stroke-opacity:1; 
stroke-linecap:round; stroke-linejoin:round;">
<text x="28.1432" y="8.8519"
textLength="2.5013" font-size="1.6933" lengthAdjust="spacingAndGlyphs"
text-anchor="end" opacity="0" stroke-opacity="0">5V</text>
<g class="stroked-text"><desc>5V</desc>
<path d="M26.6520 7.5264
L26.0472 7.5264
" />
<path d="M26.0472 7.5264
L25.9868 8.1312
" />
<path d="M25.9868 8.1312
L26.0472 8.0707
" />
<path d="M26.0472 8.0707
L26.1682 8.0102
" />
<path d="M26.1682 8.0102
L26.4706 8.0102
" />
<path d="M26.4706 8.0102
L26.5915 8.0707
" />
<path d="M26.5915 8.0707
L26.6520 8.1312
" />
<path d="M26.6520 8.1312
L26.7125 8.2521
" />
<path d="M26.7125 8.2521
L26.7125 8.5545
" />
<path d="M26.7125 8.5545
L26.6520 8.6755
" />
<path d="M26.6520 8.6755
L26.5915 8.7360
" />
<path d="M26.5915 8.7360
L26.4706 8.7964
" />
<path d="M26.4706 8.7964
L26.1682 8.7964
" />
<path d="M26.1682 8.7964
L26.0472 8.7360
" />
<path d="M26.0472 8.7360
L25.9868 8.6755
" />
<path d="M27.0753 7.5264
L27.4986 8.7964
" />
<path d="M27.4986 8.7964
L27.9220 7.5264
" />
</g></g>
<g style="fill:none; 
stroke:#A90000; stroke-width:0.1524; stroke-opacity:1; 
stroke-linecap:round; stroke-linejoin:round;">
<text x="29.9212" y="7.9629"
textLength="2.6222" font-size="1.6933" lengthAdjust="spacingAndGlyphs"
text-anchor="middle" opacity="0" stroke-opacity="0">14</text>
<g class="stroked-text"><desc>14</desc>
<path d="M29.6793 7.7994
L28.9536 7.7994
" />
<path d="M29.3164 7.7994
L29.3164 6.5294
" />
<path d="M29.3164 6.5294
L29.1955 6.7109
" />
<path d="M29.1955 6.7109
L29.0745 6.8318
" />
<path d="M29.0745 6.8318
L28.9536 6.8923
" />
<path d="M30.7678 6.9528
L30.7678 7.7994
" />
<path d="M30.4654 6.4690
L30.1631 7.3761
" />
<path d="M30.1631 7.3761
L30.9492 7.3761
" />
</g></g>
<g style="fill:none; 
stroke:#840000; stroke-width:0.1524; stroke-opacity:1; 
stroke-linecap:round; stroke-linejoin:round;">
<path d="M28.6512 10.7569
L31.1912 10.7569
" />
</g>
<g style="fill:none; 
stroke:#006464; stroke-width:0.1524; stroke-opacity:1; 
stroke-linecap:round; stroke-linejoin:round;">
<text x="28.1432" y="11.3919"
textLength="4.0737" font-size="1.6933" lengthAdjust="spacingAndGlyphs"
text-anchor="end" opacity="0" stroke-opacity="0">GND</text>
<g class="stroked-text"><desc>GND</desc>
<path d="M25.1401 10.1269
L25.0191 10.0664
" />
<path d="M25.0191 10.0664
L24.8377 10.0664
" />
<path d="M24.8377 10.0664
L24.6563 10.1269
" />
<path d="M24.6563 10.1269
L24.5353 10.2479
" />
<path d="M24.5353 10.2479
L24.4748 10.3688
" />
<path d="M24.4748 10.3688
L24.4144 10.6107
" />
<path d="M24.4144 10.6107
L24.4144 10.7921
" />
<path d="M24.4144 10.7921
L24.4748 11.0340
" />
<path d="M24.4748 11.0340
L24.5353 11.1550
" />
<path d="M24.5353 11.1550
L24.6563 11.2760
" />
<path d="M24.6563 11.2760
L24.8377 11.3364
" />
<path d="M24.8377 11.3364
L24.9586 11.3364
" />
<path d="M24.9586 11.3364
L25.1401 11.2760
" />
<path d="M25.1401 11.2760
L25.2005 11.2155
" />
<path d="M25.2005 11.2155
L25.2005 10.7921
" />
<path d="M25.2005 10.7921
L24.9586 10.7921
" />
<path d="M25.7448 11.3364
L25.7448 10.0664
" />
<path d="M25.7448 10.0664
L26.4705 11.3364
" />
<path d="M26.4705 11.3364
L26.4705 10.0664
" />
<path d="M27.0753 11.3364
L27.0753 10.0664
" />
<path d="M27.0753 10.0664
L27.3777 10.0664
" />
<path d="M27.3777 10.0664
L27.5591 10.1269
" />
<path d="M27.5591 10.1269
L27.6801 10.2479
" />
<path d="M27.6801 10.2479
L27.7406 10.3688
" />
<path d="M27.7406 10.3688
L27.8010 10.6107
" />
<path d="M27.8010 10.6107
L27.8010 10.7921
" />
<path d="M27.8010 10.7921
L27.7406 11.0340
" />
<path d="M27.7406 11.0340
L27.6801 11.1550
" />
<path d="M27.6801 11.1550
L27.5591 11.2760
" />
<path d="M27.5591 11.2760
L27.3777 11.3364
" />
<path d="M27.3777 11.3364
L27.0753 11.3364
" />
</g></g>
<g style="fill:none; 
stroke:#A90000; stroke-width:0.1524; stroke-opacity:1; 
stroke-linecap:round; stroke-linejoin:round;">
<text x="29.9212" y="10.5029"
textLength="2.6222" font-size="1.6933" lengthAdjust="spacingAndGlyphs"
text-anchor="middle" opacity="0" stroke-opacity="0">13</text>
<g class="stroked-text"><desc>13</desc>
<path d="M29.6793 10.3394
L28.9536 10.3394
" />
<path d="M29.3164 10.3394
L29.3164 9.0694
" />
<path d="M29.3164 9.0694
L29.1955 9.2509
" />
<path d="M29.1955 9.2509
L29.0745 9.3718
" />
<path d="M29.0745 9.3718
L28.9536 9.4323
" />
<path d="M30.1026 9.0694
L30.8888 9.0694
" />
<path d="M30.8888 9.0694
L30.4654 9.5532
" />
<path d="M30.4654 9.5532
L30.6469 9.5532
" />
<path d="M30.6469 9.5532
L30.7678 9.6137
" />
<path d="M30.7678 9.6137
L30.8283 9.6742
" />
<path d="M30.8283 9.6742
L30.8888 9.7951
" />
<path d="M30.8888 9.7951
L30.8888 10.0975
" />
<path d="M30.8888 10.0975
L30.8283 10.2185
" />
<path d="M30.8283 10.2185
L30.7678 10.2790
" />
<path d="M30.7678 10.2790
L30.6469 10.3394
" />
<path d="M30.6469 10.3394
L30.2840 10.3394
" />
<path d="M30.2840 10.3394
L30.1631 10.2790
" />
<path d="M30.1631 10.2790
L30.1026 10.2185
" />
</g></g>
<g style="fill:none; 
stroke:#840000; stroke-width:0.1524; stroke-opacity:1; 
stroke-linecap:round; stroke-linejoin:round;">
<path d="M28.6512 13.2969
L31.1912 13.2969
" />
</g>
<g style="fill:none; 
stroke:#006464; stroke-width:0.1524; stroke-opacity:1; 
stroke-linecap:round; stroke-linejoin:round;">
<text x="28.1432" y="13.9319"
textLength="3.7108" font-size="1.6933" lengthAdjust="spacingAndGlyphs"
text-anchor="end" opacity="0" stroke-opacity="0">3V3</text>
<g class="stroked-text"><desc>3V3</desc>
<path d="M24.7168 12.6064
L25.5030 12.6064
" />
<path d="M25.5030 12.6064
L25.0796 13.0902
" />
<path d="M25.0796 13.0902
L25.2611 13.0902
" />
<path d="M25.2611 13.0902
L25.3820 13.1507
" />
<path d="M25.3820 13.1507
L25.4425 13.2112
" />
<path d="M25.4425 13.2112
L25.5030 13.3321
" />
<path d="M25.5030 13.3321
L25.5030 13.6345
" />
<path d="M25.5030 13.6345
L25.4425 13.7555
" />
<path d="M25.4425 13.7555
L25.3820 13.8160
" />
<path d="M25.3820 13.8160
L25.2611 13.8764
" />
<path d="M25.2611 13.8764
L24.8982 13.8764
" />
<path d="M24.8982 13.8764
L24.7773 13.8160
" />
<path d="M24.7773 13.8160
L24.7168 13.7555
" />
<path d="M25.8658 12.6064
L26.2891 13.8764
" />
<path d="M26.2891 13.8764
L26.7125 12.6064
" />
<path d="M27.0149 12.6064
L27.8011 12.6064
" />
<path d="M27.8011 12.6064
L27.3777 13.0902
" />
<path d="M27.3777 13.0902
L27.5592 13.0902
" />
<path d="M27.5592 13.0902
L27.6801 13.1507
" />
<path d="M27.6801 13.1507
L27.7406 13.2112
" />
<path d="M27.7406 13.2112
L27.8011 13.3321
" />
<path d="M27.8011 13.3321
L27.8011 13.6345
" />
<path d="M27.8011 13.6345
L27.7406 13.7555
" />
<path d="M27.7406 13.7555
L27.6801 13.8160
" />
<path d="M27.6801 13.8160
L27.5592 13.8764
" />
<path d="M27.5592 13.8764
L27.1963 13.8764
" />
<path d="M27.1963 13.8764
L27.0754 13.8160
" />
<path d="M27.0754 13.8160
L27.0149 13.7555
" />
</g></g>
<g style="fill:none; 
stroke:#A90000; stroke-width:0.1524; stroke-opacity:1; 
stroke-linecap:round; stroke-linejoin:round;">
<text x="29.9212" y="13.0429"
textLength="2.6222" font-size="1.6933" lengthAdjust="spacingAndGlyphs"
text-anchor="middle" opacity="0" stroke-opacity="0">12</text>
<g class="stroked-text"><desc>12</desc>
<path d="M29.6793 12.8794
L28.9536 12.8794
" />
<path d="M29.3164 12.8794
L29.3164 11.6094
" />
<path d="M29.3164 11.6094
L29.1955 11.7909
" />
<path d="M29.1955 11.7909
L29.0745 11.9118
" />
<path d="M29.0745 11.9118
L28.9536 11.9723
" />
<path d="M30.1631 11.7304
L30.2235 11.6699
" />
<path d="M30.2235 11.6699
L30.3445 11.6094
" />
<path d="M30.3445 11.6094
L30.6469 11.6094
" />
<path d="M30.6469 11.6094
L30.7678 11.6699
" />
<path d="M30.7678 11.6699
L30.8283 11.7304
" />
<path d="M30.8283 11.7304
L30.8888 11.8513
" />
<path d="M30.8888 11.8513
L30.8888 11.9723
" />
<path d="M30.8888 11.9723
L30.8283 12.1537
" />
<path d="M30.8283 12.1537
L30.1026 12.8794
" />
<path d="M30.1026 12.8794
L30.8888 12.8794
" />
</g></g>
<g style="fill:none; 
stroke:#840000; stroke-width:0.1524; stroke-opacity:1; 
stroke-linecap:round; stroke-linejoin:round;">
<path d="M28.6512 15.8369
L31.1912 15.8369
" />
</g>
<g style="fill:none; 
stroke:#006464; stroke-width:0.1524; stroke-opacity:1; 
stroke-linecap:round; stroke-linejoin:round;">
<text x="28.1432" y="16.4719"
textLength="9.8189" font-size="1.6933" lengthAdjust="spacingAndGlyphs"
text-anchor="end" opacity="0" stroke-opacity="0">MOSI/D10</text>
<g class="stroked-text"><desc>MOSI/D10</desc>
<path d="M18.7296 16.4164
L18.7296 15.1464
" />
<path d="M18.7296 15.1464
L19.1530 16.0536
" />
<path d="M19.1530 16.0536
L19.5763 15.1464
" />
<path d="M19.5763 15.1464
L19.5763 16.4164
" />
<path d="M20.4229 15.1464
L20.6648 15.1464
" />
<path d="M20.6648 15.1464
L20.7858 15.2069
" />
<path d="M20.7858 15.2069
L20.9067 15.3279
" />
<path d="M20.9067 15.3279
L20.9672 15.5698
" />
<path d="M20.9672 15.5698
L20.9672 15.9931
" />
<path d="M20.9672 15.9931
L20.9067 16.2350
" />
<path d="M20.9067 16.2350
L20.7858 16.3560
" />
<path d="M20.7858 16.3560
L20.6648 16.4164
" />
<path d="M20.6648 16.4164
L20.4229 16.4164
" />
<path d="M20.4229 16.4164
L20.3020 16.3560
" />
<path d="M20.3020 16.3560
L20.1810 16.2350
" />
<path d="M20.1810 16.2350
L20.1206 15.9931
" />
<path d="M20.1206 15.9931
L20.1206 15.5698
" />
<path d="M20.1206 15.5698
L20.1810 15.3279
" />
<path d="M20.1810 15.3279
L20.3020 15.2069
" />
<path d="M20.3020 15.2069
L20.4229 15.1464
" />
<path d="M21.4511 16.3560
L21.6325 16.4164
" />
<path d="M21.6325 16.4164
L21.9349 16.4164
" />
<path d="M21.9349 16.4164
L22.0558 16.3560
" />
<path d="M22.0558 16.3560
L22.1163 16.2955
" />
<path d="M22.1163 16.2955
L22.1768 16.1745
" />
<path d="M22.1768 16.1745
L22.1768 16.0536
" />
<path d="M22.1768 16.0536
L22.1163 15.9326
" />
<path d="M22.1163 15.9326
L22.0558 15.8721
" />
<path d="M22.0558 15.8721
L21.9349 15.8117
" />
<path d="M21.9349 15.8117
L21.6930 15.7512
" />
<path d="M21.6930 15.7512
L21.5720 15.6907
" />
<path d="M21.5720 15.6907
L21.5115 15.6302
" />
<path d="M21.5115 15.6302
L21.4511 15.5093
" />
<path d="M21.4511 15.5093
L21.4511 15.3883
" />
<path d="M21.4511 15.3883
L21.5115 15.2674
" />
<path d="M21.5115 15.2674
L21.5720 15.2069
" />
<path d="M21.5720 15.2069
L21.6930 15.1464
" />
<path d="M21.6930 15.1464
L21.9953 15.1464
" />
<path d="M21.9953 15.1464
L22.1768 15.2069
" />
<path d="M22.7210 16.4164
L22.7210 15.1464
" />
<path d="M24.2330 15.0860
L23.1444 16.7188
" />
<path d="M24.6563 16.4164
L24.6563 15.1464
" />
<path d="M24.6563 15.1464
L24.9587 15.1464
" />
<path d="M24.9587 15.1464
L25.1401 15.2069
" />
<path d="M25.1401 15.2069
L25.2611 15.3279
" />
<path d="M25.2611 15.3279
L25.3216 15.4488
" />
<path d="M25.3216 15.4488
L25.3820 15.6907
" />
<path d="M25.3820 15.6907
L25.3820 15.8721
" />
<path d="M25.3820 15.8721
L25.3216 16.1140
" />
<path d="M25.3216 16.1140
L25.2611 16.2350
" />
<path d="M25.2611 16.2350
L25.1401 16.3560
" />
<path d="M25.1401 16.3560
L24.9587 16.4164
" />
<path d="M24.9587 16.4164
L24.6563 16.4164
" />
<path d="M26.5916 16.4164
L25.8659 16.4164
" />
<path d="M26.2287 16.4164
L26.2287 15.1464
" />
<path d="M26.2287 15.1464
L26.1078 15.3279
" />
<path d="M26.1078 15.3279
L25.9868 15.4488
" />
<path d="M25.9868 15.4488
L25.8659 15.5093
" />
<path d="M27.3777 15.1464
L27.4987 15.1464
" />
<path d="M27.4987 15.1464
L27.6196 15.2069
" />
<path d="M27.6196 15.2069
L27.6801 15.2674
" />
<path d="M27.6801 15.2674
L27.7406 15.3883
" />
<path d="M27.7406 15.3883
L27.8011 15.6302
" />
<path d="M27.8011 15.6302
L27.8011 15.9326
" />
<path d="M27.8011 15.9326
L27.7406 16.1745
" />
<path d="M27.7406 16.1745
L27.6801 16.2955
" />
<path d="M27.6801 16.2955
L27.6196 16.3560
" />
<path d="M27.6196 16.3560
L27.4987 16.4164
" />
<path d="M27.4987 16.4164
L27.3777 16.4164
" />
<path d="M27.3777 16.4164
L27.2568 16.3560
" />
<path d="M27.2568 16.3560
L27.1963 16.2955
" />
<path d="M27.1963 16.2955
L27.1358 16.1745
" />
<path d="M27.1358 16.1745
L27.0754 15.9326
" />
<path d="M27.0754 15.9326
L27.0754 15.6302
" />
<path d="M27.0754 15.6302
L27.1358 15.3883
" />
<path d="M27.1358 15.3883
L27.1963 15.2674
" />
<path d="M27.1963 15.2674
L27.2568 15.2069
" />
<path d="M27.2568 15.2069
L27.3777 15.1464
" />
</g></g>
<g style="fill:none; 
stroke:#A90000; stroke-width:0.1524; stroke-opacity:1; 
stroke-linecap:round; stroke-linejoin:round;">
<text x="29.9212" y="15.5829"
textLength="2.6222" font-size="1.6933" lengthAdjust="spacingAndGlyphs"
text-anchor="middle" opacity="0" stroke-opacity="0">11</text>
<g class="stroked-text"><desc>11</desc>
<path d="M29.6793 15.4194
L28.9536 15.4194
" />
<path d="M29.3164 15.4194
L29.3164 14.1494
" />
<path d="M29.3164 14.1494
L29.1955 14.3309
" />
<path d="M29.1955 14.3309
L29.0745 14.4518
" />
<path d="M29.0745 14.4518
L28.9536 14.5123
" />
<path d="M30.8888 15.4194
L30.1631 15.4194
" />
<path d="M30.5259 15.4194
L30.5259 14.1494
" />
<path d="M30.5259 14.1494
L30.4050 14.3309
" />
<path d="M30.4050 14.3309
L30.2840 14.4518
" />
<path d="M30.2840 14.4518
L30.1631 14.5123
" />
</g></g>
<g style="fill:none; 
stroke:#840000; stroke-width:0.1524; stroke-opacity:1; 
stroke-linecap:round; stroke-linejoin:round;">
<path d="M28.6512 18.3769
L31.1912 18.3769
" />
</g>
<g style="fill:none; 
stroke:#006464; stroke-width:0.1524; stroke-opacity:1; 
stroke-linecap:round; stroke-linejoin:round;">
<text x="28.1432" y="19.0119"
textLength="8.6094" font-size="1.6933" lengthAdjust="spacingAndGlyphs"
text-anchor="end" opacity="0" stroke-opacity="0">MISO/D9</text>
<g class="stroked-text"><desc>MISO/D9</desc>
<path d="M19.9391 18.9564
L19.9391 17.6864
" />
<path d="M19.9391 17.6864
L20.3625 18.5936
" />
<path d="M20.3625 18.5936
L20.7858 17.6864
" />
<path d="M20.7858 17.6864
L20.7858 18.9564
" />
<path d="M21.3905 18.9564
L21.3905 17.6864
" />
<path d="M21.9349 18.8960
L22.1163 18.9564
" />
<path d="M22.1163 18.9564
L22.4187 18.9564
" />
<path d="M22.4187 18.9564
L22.5396 18.8960
" />
<path d="M22.5396 18.8960
L22.6001 18.8355
" />
<path d="M22.6001 18.8355
L22.6606 18.7145
" />
<path d="M22.6606 18.7145
L22.6606 18.5936
" />
<path d="M22.6606 18.5936
L22.6001 18.4726
" />
<path d="M22.6001 18.4726
L22.5396 18.4121
" />
<path d="M22.5396 18.4121
L22.4187 18.3517
" />
<path d="M22.4187 18.3517
L22.1768 18.2912
" />
<path d="M22.1768 18.2912
L22.0558 18.2307
" />
<path d="M22.0558 18.2307
L21.9953 18.1702
" />
<path d="M21.9953 18.1702
L21.9349 18.0493
" />
<path d="M21.9349 18.0493
L21.9349 17.9283
" />
<path d="M21.9349 17.9283
L21.9953 17.8074
" />
<path d="M21.9953 17.8074
L22.0558 17.7469
" />
<path d="M22.0558 17.7469
L22.1768 17.6864
" />
<path d="M22.1768 17.6864
L22.4791 17.6864
" />
<path d="M22.4791 17.6864
L22.6606 17.7469
" />
<path d="M23.4467 17.6864
L23.6886 17.6864
" />
<path d="M23.6886 17.6864
L23.8096 17.7469
" />
<path d="M23.8096 17.7469
L23.9305 17.8679
" />
<path d="M23.9305 17.8679
L23.9910 18.1098
" />
<path d="M23.9910 18.1098
L23.9910 18.5331
" />
<path d="M23.9910 18.5331
L23.9305 18.7750
" />
<path d="M23.9305 18.7750
L23.8096 18.8960
" />
<path d="M23.8096 18.8960
L23.6886 18.9564
" />
<path d="M23.6886 18.9564
L23.4467 18.9564
" />
<path d="M23.4467 18.9564
L23.3258 18.8960
" />
<path d="M23.3258 18.8960
L23.2048 18.7750
" />
<path d="M23.2048 18.7750
L23.1444 18.5331
" />
<path d="M23.1444 18.5331
L23.1444 18.1098
" />
<path d="M23.1444 18.1098
L23.2048 17.8679
" />
<path d="M23.2048 17.8679
L23.3258 17.7469
" />
<path d="M23.3258 17.7469
L23.4467 17.6864
" />
<path d="M25.4425 17.6260
L24.3539 19.2588
" />
<path d="M25.8658 18.9564
L25.8658 17.6864
" />
<path d="M25.8658 17.6864
L26.1682 17.6864
" />
<path d="M26.1682 17.6864
L26.3496 17.7469
" />
<path d="M26.3496 17.7469
L26.4706 17.8679
" />
<path d="M26.4706 17.8679
L26.5311 17.9888
" />
<path d="M26.5311 17.9888
L26.5915 18.2307
" />
<path d="M26.5915 18.2307
L26.5915 18.4121
" />
<path d="M26.5915 18.4121
L26.5311 18.6540
" />
<path d="M26.5311 18.6540
L26.4706 18.7750
" />
<path d="M26.4706 18.7750
L26.3496 18.8960
" />
<path d="M26.3496 18.8960
L26.1682 18.9564
" />
<path d="M26.1682 18.9564
L25.8658 18.9564
" />
<path d="M27.1963 18.9564
L27.4382 18.9564
" />
<path d="M27.4382 18.9564
L27.5592 18.8960
" />
<path d="M27.5592 18.8960
L27.6196 18.8355
" />
<path d="M27.6196 18.8355
L27.7406 18.6540
" />
<path d="M27.7406 18.6540
L27.8011 18.4121
" />
<path d="M27.8011 18.4121
L27.8011 17.9283
" />
<path d="M27.8011 17.9283
L27.7406 17.8074
" />
<path d="M27.7406 17.8074
L27.6801 17.7469
" />
<path d="M27.6801 17.7469
L27.5592 17.6864
" />
<path d="M27.5592 17.6864
L27.3173 17.6864
" />
<path d="M27.3173 17.6864
L27.1963 17.7469
" />
<path d="M27.1963 17.7469
L27.1358 17.8074
" />
<path d="M27.1358 17.8074
L27.0754 17.9283
" />
<path d="M27.0754 17.9283
L27.0754 18.2307
" />
<path d="M27.0754 18.2307
L27.1358 18.3517
" />
<path d="M27.1358 18.3517
L27.1963 18.4121
" />
<path d="M27.1963 18.4121
L27.3173 18.4726
" />
<path d="M27.3173 18.4726
L27.5592 18.4726
" />
<path d="M27.5592 18.4726
L27.6801 18.4121
" />
<path d="M27.6801 18.4121
L27.7406 18.3517
" />
<path d="M27.7406 18.3517
L27.8011 18.2307
" />
</g></g>
<g style="fill:none; 
stroke:#A90000; stroke-width:0.1524; stroke-opacity:1; 
stroke-linecap:round; stroke-linejoin:round;">
<text x="29.9212" y="18.1229"
textLength="2.6222" font-size="1.6933" lengthAdjust="spacingAndGlyphs"
text-anchor="middle" opacity="0" stroke-opacity="0">10</text>
<g class="stroked-text"><desc>10</desc>
<path d="M29.6793 17.9594
L28.9536 17.9594
" />
<path d="M29.3164 17.9594
L29.3164 16.6894
" />
<path d="M29.3164 16.6894
L29.1955 16.8709
" />
<path d="M29.1955 16.8709
L29.0745 16.9918
" />
<path d="M29.0745 16.9918
L28.9536 17.0523
" />
<path d="M30.4654 16.6894
L30.5864 16.6894
" />
<path d="M30.5864 16.6894
L30.7073 16.7499
" />
<path d="M30.7073 16.7499
L30.7678 16.8104
" />
<path d="M30.7678 16.8104
L30.8283 16.9313
" />
<path d="M30.8283 16.9313
L30.8888 17.1732
" />
<path d="M30.8888 17.1732
L30.8888 17.4756
" />
<path d="M30.8888 17.4756
L30.8283 17.7175
" />
<path d="M30.8283 17.7175
L30.7678 17.8385
" />
<path d="M30.7678 17.8385
L30.7073 17.8990
" />
<path d="M30.7073 17.8990
L30.5864 17.9594
" />
<path d="M30.5864 17.9594
L30.4654 17.9594
" />
<path d="M30.4654 17.9594
L30.3445 17.8990
" />
<path d="M30.3445 17.8990
L30.2840 17.8385
" />
<path d="M30.2840 17.8385
L30.2235 17.7175
" />
<path d="M30.2235 17.7175
L30.1631 17.4756
" />
<path d="M30.1631 17.4756
L30.1631 17.1732
" />
<path d="M30.1631 17.1732
L30.2235 16.9313
" />
<path d="M30.2235 16.9313
L30.2840 16.8104
" />
<path d="M30.2840 16.8104
L30.3445 16.7499
" />
<path d="M30.3445 16.7499
L30.4654 16.6894
" />
</g></g>
<g style="fill:none; 
stroke:#840000; stroke-width:0.1524; stroke-opacity:1; 
stroke-linecap:round; stroke-linejoin:round;">
<path d="M28.6512 20.9169
L31.1912 20.9169
" />
</g>
<g style="fill:none; 
stroke:#006464; stroke-width:0.1524; stroke-opacity:1; 
stroke-linecap:round; stroke-linejoin:round;">
<text x="28.1432" y="21.5519"
textLength="7.7627" font-size="1.6933" lengthAdjust="spacingAndGlyphs"
text-anchor="end" opacity="0" stroke-opacity="0">SCK/D8</text>
<g class="stroked-text"><desc>SCK/D8</desc>
<path d="M20.7254 21.4360
L20.9068 21.4964
" />
<path d="M20.9068 21.4964
L21.2092 21.4964
" />
<path d="M21.2092 21.4964
L21.3301 21.4360
" />
<path d="M21.3301 21.4360
L21.3906 21.3755
" />
<path d="M21.3906 21.3755
L21.4511 21.2545
" />
<path d="M21.4511 21.2545
L21.4511 21.1336
" />
<path d="M21.4511 21.1336
L21.3906 21.0126
" />
<path d="M21.3906 21.0126
L21.3301 20.9521
" />
<path d="M21.3301 20.9521
L21.2092 20.8917
" />
<path d="M21.2092 20.8917
L20.9673 20.8312
" />
<path d="M20.9673 20.8312
L20.8463 20.7707
" />
<path d="M20.8463 20.7707
L20.7858 20.7102
" />
<path d="M20.7858 20.7102
L20.7254 20.5893
" />
<path d="M20.7254 20.5893
L20.7254 20.4683
" />
<path d="M20.7254 20.4683
L20.7858 20.3474
" />
<path d="M20.7858 20.3474
L20.8463 20.2869
" />
<path d="M20.8463 20.2869
L20.9673 20.2264
" />
<path d="M20.9673 20.2264
L21.2696 20.2264
" />
<path d="M21.2696 20.2264
L21.4511 20.2869
" />
<path d="M22.7210 21.3755
L22.6606 21.4360
" />
<path d="M22.6606 21.4360
L22.4791 21.4964
" />
<path d="M22.4791 21.4964
L22.3582 21.4964
" />
<path d="M22.3582 21.4964
L22.1768 21.4360
" />
<path d="M22.1768 21.4360
L22.0558 21.3150
" />
<path d="M22.0558 21.3150
L21.9953 21.1940
" />
<path d="M21.9953 21.1940
L21.9349 20.9521
" />
<path d="M21.9349 20.9521
L21.9349 20.7707
" />
<path d="M21.9349 20.7707
L21.9953 20.5288
" />
<path d="M21.9953 20.5288
L22.0558 20.4079
" />
<path d="M22.0558 20.4079
L22.1768 20.2869
" />
<path d="M22.1768 20.2869
L22.3582 20.2264
" />
<path d="M22.3582 20.2264
L22.4791 20.2264
" />
<path d="M22.4791 20.2264
L22.6606 20.2869
" />
<path d="M22.6606 20.2869
L22.7210 20.3474
" />
<path d="M23.2653 21.4964
L23.2653 20.2264
" />
<path d="M23.9910 21.4964
L23.4468 20.7707
" />
<path d="M23.9910 20.2264
L23.2653 20.9521
" />
<path d="M25.4425 20.1660
L24.3539 21.7988
" />
<path d="M25.8658 21.4964
L25.8658 20.2264
" />
<path d="M25.8658 20.2264
L26.1682 20.2264
" />
<path d="M26.1682 20.2264
L26.3496 20.2869
" />
<path d="M26.3496 20.2869
L26.4706 20.4079
" />
<path d="M26.4706 20.4079
L26.5311 20.5288
" />
<path d="M26.5311 20.5288
L26.5915 20.7707
" />
<path d="M26.5915 20.7707
L26.5915 20.9521
" />
<path d="M26.5915 20.9521
L26.5311 21.1940
" />
<path d="M26.5311 21.1940
L26.4706 21.3150
" />
<path d="M26.4706 21.3150
L26.3496 21.4360
" />
<path d="M26.3496 21.4360
L26.1682 21.4964
" />
<path d="M26.1682 21.4964
L25.8658 21.4964
" />
<path d="M27.3173 20.7707
L27.1963 20.7102
" />
<path d="M27.1963 20.7102
L27.1358 20.6498
" />
<path d="M27.1358 20.6498
L27.0754 20.5288
" />
<path d="M27.0754 20.5288
L27.0754 20.4683
" />
<path d="M27.0754 20.4683
L27.1358 20.3474
" />
<path d="M27.1358 20.3474
L27.1963 20.2869
" />
<path d="M27.1963 20.2869
L27.3173 20.2264
" />
<path d="M27.3173 20.2264
L27.5592 20.2264
" />
<path d="M27.5592 20.2264
L27.6801 20.2869
" />
<path d="M27.6801 20.2869
L27.7406 20.3474
" />
<path d="M27.7406 20.3474
L27.8011 20.4683
" />
<path d="M27.8011 20.4683
L27.8011 20.5288
" />
<path d="M27.8011 20.5288
L27.7406 20.6498
" />
<path d="M27.7406 20.6498
L27.6801 20.7102
" />
<path d="M27.6801 20.7102
L27.5592 20.7707
" />
<path d="M27.5592 20.7707
L27.3173 20.7707
" />
<path d="M27.3173 20.7707
L27.1963 20.8312
" />
<path d="M27.1963 20.8312
L27.1358 20.8917
" />
<path d="M27.1358 20.8917
L27.0754 21.0126
" />
<path d="M27.0754 21.0126
L27.0754 21.2545
" />
<path d="M27.0754 21.2545
L27.1358 21.3755
" />
<path d="M27.1358 21.3755
L27.1963 21.4360
" />
<path d="M27.1963 21.4360
L27.3173 21.4964
" />
<path d="M27.3173 21.4964
L27.5592 21.4964
" />
<path d="M27.5592 21.4964
L27.6801 21.4360
" />
<path d="M27.6801 21.4360
L27.7406 21.3755
" />
<path d="M27.7406 21.3755
L27.8011 21.2545
" />
<path d="M27.8011 21.2545
L27.8011 21.0126
" />
<path d="M27.8011 21.0126
L27.7406 20.8917
" />
<path d="M27.7406 20.8917
L27.6801 20.8312
" />
<path d="M27.6801 20.8312
L27.5592 20.7707
" />
</g></g>
<g style="fill:none; 
stroke:#A90000; stroke-width:0.1524; stroke-opacity:1; 
stroke-linecap:round; stroke-linejoin:round;">
<text x="29.9212" y="20.6629"
textLength="1.4127" font-size="1.6933" lengthAdjust="spacingAndGlyphs"
text-anchor="middle" opacity="0" stroke-opacity="0">9</text>
<g class="stroked-text"><desc>9</desc>
<path d="M29.6793 20.4994
L29.9212 20.4994
" />
<path d="M29.9212 20.4994
L30.0422 20.4390
" />
<path d="M30.0422 20.4390
L30.1026 20.3785
" />
<path d="M30.1026 20.3785
L30.2236 20.1970
" />
<path d="M30.2236 20.1970
L30.2841 19.9551
" />
<path d="M30.2841 19.9551
L30.2841 19.4713
" />
<path d="M30.2841 19.4713
L30.2236 19.3504
" />
<path d="M30.2236 19.3504
L30.1631 19.2899
" />
<path d="M30.1631 19.2899
L30.0422 19.2294
" />
<path d="M30.0422 19.2294
L29.8003 19.2294
" />
<path d="M29.8003 19.2294
L29.6793 19.2899
" />
<path d="M29.6793 19.2899
L29.6188 19.3504
" />
<path d="M29.6188 19.3504
L29.5584 19.4713
" />
<path d="M29.5584 19.4713
L29.5584 19.7737
" />
<path d="M29.5584 19.7737
L29.6188 19.8947
" />
<path d="M29.6188 19.8947
L29.6793 19.9551
" />
<path d="M29.6793 19.9551
L29.8003 20.0156
" />
<path d="M29.8003 20.0156
L30.0422 20.0156
" />
<path d="M30.0422 20.0156
L30.1631 19.9551
" />
<path d="M30.1631 19.9551
L30.2236 19.8947
" />
<path d="M30.2236 19.8947
L30.2841 19.7737
" />
</g></g>
<g style="fill:none; 
stroke:#840000; stroke-width:0.1524; stroke-opacity:1; 
stroke-linecap:round; stroke-linejoin:round;">
<path d="M28.6512 23.4569
L31.1912 23.4569
" />
</g>
<g style="fill:none; 
stroke:#006464; stroke-width:0.1524; stroke-opacity:1; 
stroke-linecap:round; stroke-linejoin:round;">
<text x="28.1432" y="24.0919"
textLength="6.4927" font-size="1.6933" lengthAdjust="spacingAndGlyphs"
text-anchor="end" opacity="0" stroke-opacity="0">RX/D7</text>
<g class="stroked-text"><desc>RX/D7</desc>
<path d="M22.7815 24.0364
L22.3582 23.4317
" />
<path d="M22.0558 24.0364
L22.0558 22.7664
" />
<path d="M22.0558 22.7664
L22.5396 22.7664
" />
<path d="M22.5396 22.7664
L22.6606 22.8269
" />
<path d="M22.6606 22.8269
L22.7211 22.8874
" />
<path d="M22.7211 22.8874
L22.7815 23.0083
" />
<path d="M22.7815 23.0083
L22.7815 23.1898
" />
<path d="M22.7815 23.1898
L22.7211 23.3107
" />
<path d="M22.7211 23.3107
L22.6606 23.3712
" />
<path d="M22.6606 23.3712
L22.5396 23.4317
" />
<path d="M22.5396 23.4317
L22.0558 23.4317
" />
<path d="M23.2049 22.7664
L24.0515 24.0364
" />
<path d="M24.0515 22.7664
L23.2049 24.0364
" />
<path d="M25.4425 22.7060
L24.3539 24.3388
" />
<path d="M25.8658 24.0364
L25.8658 22.7664
" />
<path d="M25.8658 22.7664
L26.1682 22.7664
" />
<path d="M26.1682 22.7664
L26.3496 22.8269
" />
<path d="M26.3496 22.8269
L26.4706 22.9479
" />
<path d="M26.4706 22.9479
L26.5311 23.0688
" />
<path d="M26.5311 23.0688
L26.5915 23.3107
" />
<path d="M26.5915 23.3107
L26.5915 23.4921
" />
<path d="M26.5915 23.4921
L26.5311 23.7340
" />
<path d="M26.5311 23.7340
L26.4706 23.8550
" />
<path d="M26.4706 23.8550
L26.3496 23.9760
" />
<path d="M26.3496 23.9760
L26.1682 24.0364
" />
<path d="M26.1682 24.0364
L25.8658 24.0364
" />
<path d="M27.0149 22.7664
L27.8615 22.7664
" />
<path d="M27.8615 22.7664
L27.3173 24.0364
" />
</g></g>
<g style="fill:none; 
stroke:#A90000; stroke-width:0.1524; stroke-opacity:1; 
stroke-linecap:round; stroke-linejoin:round;">
<text x="29.9212" y="23.2029"
textLength="1.4127" font-size="1.6933" lengthAdjust="spacingAndGlyphs"
text-anchor="middle" opacity="0" stroke-opacity="0">8</text>
<g class="stroked-text"><desc>8</desc>
<path d="M29.8003 22.3137
L29.6793 22.2532
" />
<path d="M29.6793 22.2532
L29.6188 22.1928
" />
<path d="M29.6188 22.1928
L29.5584 22.0718
" />
<path d="M29.5584 22.0718
L29.5584 22.0113
" />
<path d="M29.5584 22.0113
L29.6188 21.8904
" />
<path d="M29.6188 21.8904
L29.6793 21.8299
" />
<path d="M29.6793 21.8299
L29.8003 21.7694
" />
<path d="M29.8003 21.7694
L30.0422 21.7694
" />
<path d="M30.0422 21.7694
L30.1631 21.8299
" />
<path d="M30.1631 21.8299
L30.2236 21.8904
" />
<path d="M30.2236 21.8904
L30.2841 22.0113
" />
<path d="M30.2841 22.0113
L30.2841 22.0718
" />
<path d="M30.2841 22.0718
L30.2236 22.1928
" />
<path d="M30.2236 22.1928
L30.1631 22.2532
" />
<path d="M30.1631 22.2532
L30.0422 22.3137
" />
<path d="M30.0422 22.3137
L29.8003 22.3137
" />
<path d="M29.8003 22.3137
L29.6793 22.3742
" />
<path d="M29.6793 22.3742
L29.6188 22.4347
" />
<path d="M29.6188 22.4347
L29.5584 22.5556
" />
<path d="M29.5584 22.5556
L29.5584 22.7975
" />
<path d="M29.5584 22.7975
L29.6188 22.9185
" />
<path d="M29.6188 22.9185
L29.6793 22.9790
" />
<path d="M29.6793 22.9790
L29.8003 23.0394
" />
<path d="M29.8003 23.0394
L30.0422 23.0394
" />
<path d="M30.0422 23.0394
L30.1631 22.9790
" />
<path d="M30.1631 22.9790
L30.2236 22.9185
" />
<path d="M30.2236 22.9185
L30.2841 22.7975
" />
<path d="M30.2841 22.7975
L30.2841 22.5556
" />
<path d="M30.2841 22.5556
L30.2236 22.4347
" />
<path d="M30.2236 22.4347
L30.1631 22.3742
" />
<path d="M30.1631 22.3742
L30.0422 22.3137
" />
</g></g>
<g style="fill:none; 
stroke:#006464; stroke-width:0.1524; stroke-opacity:1; 
stroke-linecap:round; stroke-linejoin:round;">
<text x="0.0000" y="-11.4300"
textLength="2.6223" font-size="1.6933" lengthAdjust="spacingAndGlyphs"
text-anchor="middle" opacity="0" stroke-opacity="0">U?</text>
<g class="stroked-text"><desc>U?</desc>
<path d="M-0.9071 -12.7554
L-0.9071 -11.7273
" />
<path d="M-0.9071 -11.7273
L-0.8466 -11.6063
" />
<path d="M-0.8466 -11.6063
L-0.7861 -11.5459
" />
<path d="M-0.7861 -11.5459
L-0.6652 -11.4854
" />
<path d="M-0.6652 -11.4854
L-0.4233 -11.4854
" />
<path d="M-0.4233 -11.4854
L-0.3023 -11.5459
" />
<path d="M-0.3023 -11.5459
L-0.2418 -11.6063
" />
<path d="M-0.2418 -11.6063
L-0.1814 -11.7273
" />
<path d="M-0.1814 -11.7273
L-0.1814 -12.7554
" />
<path d="M0.6048 -11.6063
L0.6652 -11.5459
" />
<path d="M0.6652 -11.5459
L0.6048 -11.4854
" />
<path d="M0.6048 -11.4854
L0.5443 -11.5459
" />
<path d="M0.5443 -11.5459
L0.6048 -11.6063
" />
<path d="M0.6048 -11.6063
L0.6048 -11.4854
" />
<path d="M0.3629 -12.6949
L0.4838 -12.7554
" />
<path d="M0.4838 -12.7554
L0.7862 -12.7554
" />
<path d="M0.7862 -12.7554
L0.9071 -12.6949
" />
<path d="M0.9071 -12.6949
L0.9676 -12.5739
" />
<path d="M0.9676 -12.5739
L0.9676 -12.4530
" />
<path d="M0.9676 -12.4530
L0.9071 -12.3320
" />
<path d="M0.9071 -12.3320
L0.8467 -12.2716
" />
<path d="M0.8467 -12.2716
L0.7257 -12.2111
" />
<path d="M0.7257 -12.2111
L0.6652 -12.1506
" />
<path d="M0.6652 -12.1506
L0.6048 -12.0297
" />
<path d="M0.6048 -12.0297
L0.6048 -11.9692
" />
</g><text x="0.0000" y="12.7000"
textLength="14.9593" font-size="1.6933" lengthAdjust="spacingAndGlyphs"
text-anchor="middle" opacity="0" stroke-opacity="0">XIAO_nRF52840</text>
<g class="stroked-text"><desc>XIAO_nRF52840</desc>
<path d="M-7.1965 11.3745
L-6.3499 12.6445
" />
<path d="M-6.3499 11.3745
L-7.1965 12.6445
" />
<path d="M-5.8661 12.6445
L-5.8661 11.3745
" />
<path d="M-5.3217 12.2817
L-4.7170 12.2817
" />
<path d="M-5.4427 12.6445
L-5.0194 11.3745
" />
<path d="M-5.0194 11.3745
L-4.5960 12.6445
" />
<path d="M-3.9308 11.3745
L-3.6889 11.3745
" />
<path d="M-3.6889 11.3745
L-3.5679 11.4350
" />
<path d="M-3.5679 11.4350
L-3.4470 11.5560
" />
<path d="M-3.4470 11.5560
L-3.3865 11.7979
" />
<path d="M-3.3865 11.7979
L-3.3865 12.2212
" />
<path d="M-3.3865 12.2212
L-3.4470 12.4631
" />
<path d="M-3.4470 12.4631
L-3.5679 12.5841
" />
<path d="M-3.5679 12.5841
L-3.6889 12.6445
" />
<path d="M-3.6889 12.6445
L-3.9308 12.6445
" />
<path d="M-3.9308 12.6445
L-4.0517 12.5841
" />
<path d="M-4.0517 12.5841
L-4.1727 12.4631
" />
<path d="M-4.1727 12.4631
L-4.2331 12.2212
" />
<path d="M-4.2331 12.2212
L-4.2331 11.7979
" />
<path d="M-4.2331 11.7979
L-4.1727 11.5560
" />
<path d="M-4.1727 11.5560
L-4.0517 11.4350
" />
<path d="M-4.0517 11.4350
L-3.9308 11.3745
" />
<path d="M-3.1446 12.7655
L-2.1769 12.7655
" />
<path d="M-1.8746 11.7979
L-1.8746 12.6445
" />
<path d="M-1.8746 11.9188
L-1.8141 11.8583
" />
<path d="M-1.8141 11.8583
L-1.6931 11.7979
" />
<path d="M-1.6931 11.7979
L-1.5117 11.7979
" />
<path d="M-1.5117 11.7979
L-1.3908 11.8583
" />
<path d="M-1.3908 11.8583
L-1.3303 11.9793
" />
<path d="M-1.3303 11.9793
L-1.3303 12.6445
" />
<path d="M0.0000 12.6445
L-0.4232 12.0398
" />
<path d="M-0.7256 12.6445
L-0.7256 11.3745
" />
<path d="M-0.7256 11.3745
L-0.2418 11.3745
" />
<path d="M-0.2418 11.3745
L-0.1208 11.4350
" />
<path d="M-0.1208 11.4350
L-0.0603 11.4955
" />
<path d="M-0.0603 11.4955
L0.0000 11.6164
" />
<path d="M0.0000 11.6164
L0.0000 11.7979
" />
<path d="M0.0000 11.7979
L-0.0603 11.9188
" />
<path d="M-0.0603 11.9188
L-0.1208 11.9793
" />
<path d="M-0.1208 11.9793
L-0.2418 12.0398
" />
<path d="M-0.2418 12.0398
L-0.7256 12.0398
" />
<path d="M0.9677 11.9793
L0.5443 11.9793
" />
<path d="M0.5443 12.6445
L0.5443 11.3745
" />
<path d="M0.5443 11.3745
L1.1491 11.3745
" />
<path d="M2.2377 11.3745
L1.6329 11.3745
" />
<path d="M1.6329 11.3745
L1.5725 11.9793
" />
<path d="M1.5725 11.9793
L1.6329 11.9188
" />
<path d="M1.6329 11.9188
L1.7539 11.8583
" />
<path d="M1.7539 11.8583
L2.0563 11.8583
" />
<path d="M2.0563 11.8583
L2.1772 11.9188
" />
<path d="M2.1772 11.9188
L2.2377 11.9793
" />
<path d="M2.2377 11.9793
L2.2982 12.1002
" />
<path d="M2.2982 12.1002
L2.2982 12.4026
" />
<path d="M2.2982 12.4026
L2.2377 12.5236
" />
<path d="M2.2377 12.5236
L2.1772 12.5841
" />
<path d="M2.1772 12.5841
L2.0563 12.6445
" />
<path d="M2.0563 12.6445
L1.7539 12.6445
" />
<path d="M1.7539 12.6445
L1.6329 12.5841
" />
<path d="M1.6329 12.5841
L1.5725 12.5236
" />
<path d="M2.7820 11.4955
L2.8424 11.4350
" />
<path d="M2.8424 11.4350
L2.9634 11.3745
" />
<path d="M2.9634 11.3745
L3.2658 11.3745
" />
<path d="M3.2658 11.3745
L3.3867 11.4350
" />
<path d="M3.3867 11.4350
L3.4472 11.4955
" />
<path d="M3.4472 11.4955
L3.5077 11.6164
" />
<path d="M3.5077 11.6164
L3.5077 11.7374
" />
<path d="M3.5077 11.7374
L3.4472 11.9188
" />
<path d="M3.4472 11.9188
L2.7215 12.6445
" />
<path d="M2.7215 12.6445
L3.5077 12.6445
" />
<path d="M4.2334 11.9188
L4.1124 11.8583
" />
<path d="M4.1124 11.8583
L4.0519 11.7979
" />
<path d="M4.0519 11.7979
L3.9915 11.6769
" />
<path d="M3.9915 11.6769
L3.9915 11.6164
" />
<path d="M3.9915 11.6164
L4.0519 11.4955
" />
<path d="M4.0519 11.4955
L4.1124 11.4350
" />
<path d="M4.1124 11.4350
L4.2334 11.3745
" />
<path d="M4.2334 11.3745
L4.4753 11.3745
" />
<path d="M4.4753 11.3745
L4.5962 11.4350
" />
<path d="M4.5962 11.4350
L4.6567 11.4955
" />
<path d="M4.6567 11.4955
L4.7172 11.6164
" />
<path d="M4.7172 11.6164
L4.7172 11.6769
" />
<path d="M4.7172 11.6769
L4.6567 11.7979
" />
<path d="M4.6567 11.7979
L4.5962 11.8583
" />
<path d="M4.5962 11.8583
L4.4753 11.9188
" />
<path d="M4.4753 11.9188
L4.2334 11.9188
" />
<path d="M4.2334 11.9188
L4.1124 11.9793
" />
<path d="M4.1124 11.9793
L4.0519 12.0398
" />
<path d="M4.0519 12.0398
L3.9915 12.1607
" />
<path d="M3.9915 12.1607
L3.9915 12.4026
" />
<path d="M3.9915 12.4026
L4.0519 12.5236
" />
<path d="M4.0519 12.5236
L4.1124 12.5841
" />
<path d="M4.1124 12.5841
L4.2334 12.6445
" />
<path d="M4.2334 12.6445
L4.4753 12.6445
" />
<path d="M4.4753 12.6445
L4.5962 12.5841
" />
<path d="M4.5962 12.5841
L4.6567 12.5236
" />
<path d="M4.6567 12.5236
L4.7172 12.4026
" />
<path d="M4.7172 12.4026
L4.7172 12.1607
" />
<path d="M4.7172 12.1607
L4.6567 12.0398
" />
<path d="M4.6567 12.0398
L4.5962 11.9793
" />
<path d="M4.5962 11.9793
L4.4753 11.9188
" />
<path d="M5.8057 11.7979
L5.8057 12.6445
" />
<path d="M5.5033 11.3141
L5.2010 12.2212
" />
<path d="M5.2010 12.2212
L5.9871 12.2212
" />
<path d="M6.7128 11.3745
L6.8338 11.3745
" />
<path d="M6.8338 11.3745
L6.9547 11.4350
" />
<path d="M6.9547 11.4350
L7.0152 11.4955
" />
<path d="M7.0152 11.4955
L7.0757 11.6164
" />
<path d="M7.0757 11.6164
L7.1362 11.8583
" />
<path d="M7.1362 11.8583
L7.1362 12.1607
" />
<path d="M7.1362 12.1607
L7.0757 12.4026
" />
<path d="M7.0757 12.4026
L7.0152 12.5236
" />
<path d="M7.0152 12.5236
L6.9547 12.5841
" />
<path d="M6.9547 12.5841
L6.8338 12.6445
" />
<path d="M6.8338 12.6445
L6.7128 12.6445
" />
<path d="M6.7128 12.6445
L6.5919 12.5841
" />
<path d="M6.5919 12.5841
L6.5314 12.5236
" />
<path d="M6.5314 12.5236
L6.4709 12.4026
" />
<path d="M6.4709 12.4026
L6.4105 12.1607
" />
<path d="M6.4105 12.1607
L6.4105 11.8583
" />
<path d="M6.4105 11.8583
L6.4709 11.6164
" />
<path d="M6.4709 11.6164
L6.5314 11.4955
" />
<path d="M6.5314 11.4955
L6.5919 11.4350
" />
<path d="M6.5919 11.4350
L6.7128 11.3745
" />
</g></g> 
</svg>
