<svg xmlns="http://www.w3.org/2000/svg" width="130.176" height="118.752" viewBox="0 0 34.442 31.42">
    <rect width="22.86" height="19.05" x="5.791" y="6.312" rx="0" style="fill:#ffffc2;fill-opacity:1;stroke:none"/>
    <g style="fill:none;stroke:#840000;stroke-width:.1524;stroke-opacity:1;stroke-linecap:round;stroke-linejoin:round">
        <rect width="22.86" height="19.05" x="5.791" y="6.312" rx="0"/>
        <path d="M5.791 8.217h-2.54"/>
    </g>
    <g class="stroked-text" style="fill:none;stroke:#006464;stroke-width:.1524;stroke-opacity:1;stroke-linecap:round;stroke-linejoin:round">
        <path d="M6.702 8.796v-1.27M6.702 7.526h.302M7.004 7.526l.182.06M7.186 7.587l.12.12M7.307 7.708l.06.12M7.367 7.829l.06.242M7.427 8.07v.182M7.427 8.252l-.06.242M7.367 8.494l-.06.121M7.307 8.615l-.122.121M7.186 8.736l-.182.06M7.004 8.796h-.302M8.214 7.526h.12M8.335 7.526l.12.06M8.456 7.587l.06.06M8.516 7.647l.06.121M8.577 7.768l.06.242M8.637 8.01v.303M8.637 8.313l-.06.242M8.577 8.555l-.061.12M8.516 8.676l-.06.06M8.456 8.736l-.121.06M8.335 8.796h-.121M8.214 8.796l-.121-.06M8.093 8.736l-.06-.06M8.032 8.676l-.06-.121M7.972 8.555l-.06-.242M7.911 8.313V8.01M7.911 8.01l.06-.242M7.972 7.768l.06-.12M8.032 7.647l.06-.06M8.093 7.587l.12-.06M10.088 7.466 9 9.099M10.451 8.434h.605M10.33 8.796l.424-1.27M10.754 7.526l.423 1.27M11.842 7.526h.121M11.963 7.526l.121.06M12.084 7.587l.06.06M12.145 7.647l.06.121M12.205 7.768l.06.242M12.266 8.01v.303M12.266 8.313l-.06.242M12.205 8.555l-.06.12M12.145 8.676l-.06.06M12.084 8.736l-.12.06M11.963 8.796h-.12M11.842 8.796l-.12-.06M11.721 8.736l-.06-.06M11.66 8.676l-.06-.121M11.6 8.555l-.06-.242M11.54 8.313V8.01M11.54 8.01l.06-.242M11.6 7.768l.06-.12M11.66 7.647l.061-.06M11.721 7.587l.121-.06"/>
    </g>
    <g class="stroked-text" style="fill:none;stroke:#a90000;stroke-width:.1524;stroke-opacity:1;stroke-linecap:round;stroke-linejoin:round">
        <path d="M4.884 7.8h-.726M4.521 7.8V6.53M4.521 6.53l-.12.18M4.4 6.71l-.12.122M4.28 6.832l-.122.06"/>
    </g>
    <path d="M5.791 10.757h-2.54" style="fill:none;stroke:#840000;stroke-width:.1524;stroke-opacity:1;stroke-linecap:round;stroke-linejoin:round"/>
    <g class="stroked-text" style="fill:none;stroke:#006464;stroke-width:.1524;stroke-opacity:1;stroke-linecap:round;stroke-linejoin:round">
        <path d="M6.702 11.336v-1.27M6.702 10.066h.302M7.004 10.066l.182.06M7.186 10.127l.12.12M7.307 10.248l.06.12M7.367 10.369l.06.242M7.427 10.61v.182M7.427 10.792l-.06.242M7.367 11.034l-.06.121M7.307 11.155l-.122.121M7.186 11.276l-.182.06M7.004 11.336h-.302M8.637 11.336h-.726M8.274 11.336v-1.27M8.274 10.066l-.12.182M8.153 10.248l-.12.12M8.032 10.369l-.12.06M10.088 10.006 9 11.639M10.451 10.974h.605M10.33 11.336l.424-1.27M10.754 10.066l.423 1.27M12.266 11.336h-.726M11.903 11.336v-1.27M11.903 10.066l-.121.182M11.782 10.248l-.121.12M11.66 10.369l-.12.06"/>
    </g>
    <g class="stroked-text" style="fill:none;stroke:#a90000;stroke-width:.1524;stroke-opacity:1;stroke-linecap:round;stroke-linejoin:round">
        <path d="m4.158 9.19.06-.06M4.219 9.13l.12-.06M4.34 9.07h.302M4.642 9.07l.121.06M4.763 9.13l.06.06M4.824 9.19l.06.121M4.884 9.311v.121M4.884 9.432l-.06.182M4.824 9.614l-.726.725M4.098 10.34h.786"/>
    </g>
    <path d="M5.791 13.297h-2.54" style="fill:none;stroke:#840000;stroke-width:.1524;stroke-opacity:1;stroke-linecap:round;stroke-linejoin:round"/>
    <g class="stroked-text" style="fill:none;stroke:#006464;stroke-width:.1524;stroke-opacity:1;stroke-linecap:round;stroke-linejoin:round">
        <path d="M6.702 13.876v-1.27M6.702 12.606h.302M7.004 12.606l.182.06M7.186 12.667l.12.12M7.307 12.788l.06.12M7.367 12.909l.06.242M7.427 13.15v.182M7.427 13.332l-.06.242M7.367 13.574l-.06.121M7.307 13.695l-.122.121M7.186 13.816l-.182.06M7.004 13.876h-.302M7.911 12.727l.06-.06M7.972 12.667l.12-.06M8.093 12.606h.302M8.395 12.606l.121.06M8.516 12.667l.06.06M8.577 12.727l.06.121M8.637 12.848v.121M8.637 12.97l-.06.18M8.577 13.15l-.726.726M7.85 13.876h.787M10.088 12.546 9 14.179M10.451 13.514h.605M10.33 13.876l.424-1.27M10.754 12.606l.423 1.27M11.54 12.727l.06-.06M11.6 12.667l.121-.06M11.721 12.606h.303M12.024 12.606l.12.06M12.145 12.667l.06.06M12.205 12.727l.06.121M12.266 12.848v.121M12.266 12.97l-.06.18M12.205 13.15l-.726.726M11.48 13.876h.786"/>
    </g>
    <g class="stroked-text" style="fill:none;stroke:#a90000;stroke-width:.1524;stroke-opacity:1;stroke-linecap:round;stroke-linejoin:round">
        <path d="M4.098 11.61h.786M4.884 11.61l-.423.483M4.46 12.093h.182M4.642 12.093l.121.06M4.763 12.154l.06.06M4.824 12.214l.06.121M4.884 12.335v.302M4.884 12.638l-.06.12M4.824 12.759l-.06.06M4.763 12.819l-.12.06M4.642 12.88H4.28M4.28 12.88l-.122-.061M4.158 12.819l-.06-.06"/>
    </g>
    <path d="M5.791 15.837h-2.54" style="fill:none;stroke:#840000;stroke-width:.1524;stroke-opacity:1;stroke-linecap:round;stroke-linejoin:round"/>
    <g class="stroked-text" style="fill:none;stroke:#006464;stroke-width:.1524;stroke-opacity:1;stroke-linecap:round;stroke-linejoin:round">
        <path d="M6.702 16.416v-1.27M6.702 15.146h.302M7.004 15.146l.182.06M7.186 15.207l.12.12M7.307 15.328l.06.12M7.367 15.449l.06.242M7.427 15.69v.182M7.427 15.872l-.06.242M7.367 16.114l-.06.121M7.307 16.235l-.122.121M7.186 16.356l-.182.06M7.004 16.416h-.302M7.85 15.146h.787M8.637 15.146l-.423.484M8.214 15.63h.181M8.395 15.63l.121.06M8.516 15.69l.06.061M8.577 15.751l.06.121M8.637 15.872v.302M8.637 16.174l-.06.122M8.577 16.296l-.061.06M8.516 16.356l-.12.06M8.395 16.416h-.363M8.032 16.416l-.12-.06M7.911 16.356l-.06-.06M10.088 15.086 9 16.719M10.451 16.054h.605M10.33 16.416l.424-1.27M10.754 15.146l.423 1.27M11.48 15.146h.786M12.266 15.146l-.424.484M11.842 15.63h.182M12.024 15.63l.12.06M12.145 15.69l.06.061M12.205 15.751l.06.121M12.266 15.872v.302M12.266 16.174l-.06.122M12.205 16.296l-.06.06M12.145 16.356l-.121.06M12.024 16.416h-.363M11.66 16.416l-.12-.06M11.54 16.356l-.06-.06"/>
    </g>
    <g class="stroked-text" style="fill:none;stroke:#a90000;stroke-width:.1524;stroke-opacity:1;stroke-linecap:round;stroke-linejoin:round">
        <path d="M4.763 14.573v.846M4.46 14.089l-.302.907M4.158 14.996h.786"/>
    </g>
    <path d="M5.791 18.377h-2.54" style="fill:none;stroke:#840000;stroke-width:.1524;stroke-opacity:1;stroke-linecap:round;stroke-linejoin:round"/>
    <g class="stroked-text" style="fill:none;stroke:#006464;stroke-width:.1524;stroke-opacity:1;stroke-linecap:round;stroke-linejoin:round">
        <path d="M6.702 18.956v-1.27M6.702 17.686h.302M7.004 17.686l.182.06M7.186 17.747l.12.12M7.307 17.868l.06.12M7.367 17.989l.06.242M7.427 18.23v.182M7.427 18.412l-.06.242M7.367 18.654l-.06.121M7.307 18.775l-.122.121M7.186 18.896l-.182.06M7.004 18.956h-.302M8.516 18.11v.846M8.214 17.626l-.303.907M7.911 18.533h.786M10.088 17.626 9 19.259M10.451 18.896l.182.06M10.633 18.956h.302M10.935 18.956l.121-.06M11.056 18.896l.06-.06M11.117 18.836l.06-.121M11.177 18.715v-.121M11.177 18.594l-.06-.121M11.117 18.473l-.061-.06M11.056 18.412l-.12-.06M10.935 18.352l-.242-.06M10.693 18.291l-.12-.06M10.572 18.23l-.06-.06M10.512 18.17l-.06-.12M10.451 18.05v-.122M10.451 17.928l.06-.12M10.512 17.807l.06-.06M10.572 17.747l.121-.06M10.693 17.686h.303M10.996 17.686l.181.06M11.721 18.956v-1.27M11.721 17.686h.303M12.024 17.686l.181.06M12.205 17.747l.121.12M12.326 17.868l.06.12M12.387 17.989l.06.242M12.447 18.23v.182M12.447 18.412l-.06.242M12.387 18.654l-.061.121M12.326 18.775l-.121.121M12.205 18.896l-.181.06M12.024 18.956h-.303M12.93 18.594h.606M12.81 18.956l.423-1.27M13.233 17.686l.423 1.27"/>
    </g>
    <g class="stroked-text" style="fill:none;stroke:#a90000;stroke-width:.1524;stroke-opacity:1;stroke-linecap:round;stroke-linejoin:round">
        <path d="M4.824 16.69h-.605M4.219 16.69l-.06.604M4.158 17.294l.06-.06M4.219 17.234l.12-.06M4.34 17.173h.302M4.642 17.173l.121.06M4.763 17.234l.06.06M4.824 17.294l.06.121M4.884 17.415v.303M4.884 17.718l-.06.12M4.824 17.839l-.06.06M4.763 17.899l-.12.06M4.642 17.96H4.34M4.34 17.96l-.121-.061M4.219 17.899l-.06-.06"/>
    </g>
    <path d="M5.791 20.917h-2.54" style="fill:none;stroke:#840000;stroke-width:.1524;stroke-opacity:1;stroke-linecap:round;stroke-linejoin:round"/>
    <g class="stroked-text" style="fill:none;stroke:#006464;stroke-width:.1524;stroke-opacity:1;stroke-linecap:round;stroke-linejoin:round">
        <path d="M6.702 21.496v-1.27M6.702 20.226h.302M7.004 20.226l.182.06M7.186 20.287l.12.12M7.307 20.408l.06.12M7.367 20.529l.06.242M7.427 20.77v.182M7.427 20.952l-.06.242M7.367 21.194l-.06.121M7.307 21.315l-.122.121M7.186 21.436l-.182.06M7.004 21.496h-.302M8.577 20.226h-.605M7.972 20.226l-.06.605M7.911 20.831l.06-.06M7.972 20.77l.12-.06M8.093 20.71h.302M8.395 20.71l.121.06M8.516 20.77l.06.061M8.577 20.831l.06.121M8.637 20.952v.302M8.637 21.255l-.06.12M8.577 21.376l-.061.06M8.516 21.436l-.12.06M8.395 21.496h-.302M8.093 21.496l-.121-.06M7.972 21.436l-.06-.06M10.088 20.166 9 21.799M10.451 21.436l.182.06M10.633 21.496h.302M10.935 21.496l.121-.06M11.056 21.436l.06-.06M11.117 21.376l.06-.122M11.177 21.255v-.121M11.177 21.134l-.06-.121M11.117 21.013l-.061-.06M11.056 20.952l-.12-.06M10.935 20.892l-.242-.06M10.693 20.831l-.12-.06M10.572 20.77l-.06-.06M10.512 20.71l-.06-.12M10.451 20.59v-.122M10.451 20.468l.06-.12M10.512 20.347l.06-.06M10.572 20.287l.121-.06M10.693 20.226h.303M10.996 20.226l.181.06M12.447 21.376l-.06.06M12.387 21.436l-.182.06M12.205 21.496h-.12M12.084 21.496l-.181-.06M11.903 21.436l-.121-.121M11.782 21.315l-.06-.121M11.721 21.194l-.06-.242M11.66 20.952v-.181M11.66 20.77l.061-.241M11.721 20.529l.06-.121M11.782 20.408l.12-.121M11.903 20.287l.181-.06M12.084 20.226h.121M12.205 20.226l.181.06M12.387 20.287l.06.06M13.596 21.496h-.605M12.991 21.496v-1.27"/>
    </g>
    <g class="stroked-text" style="fill:none;stroke:#a90000;stroke-width:.1524;stroke-opacity:1;stroke-linecap:round;stroke-linejoin:round">
        <path d="M4.763 19.23h-.242M4.521 19.23l-.12.06M4.4 19.29l-.06.06M4.34 19.35l-.121.182M4.219 19.532l-.06.242M4.158 19.774v.483M4.158 20.258l.06.12M4.219 20.379l.06.06M4.28 20.439l.12.06M4.4 20.5h.242M4.642 20.5l.121-.061M4.763 20.439l.06-.06M4.824 20.379l.06-.122M4.884 20.258v-.303M4.884 19.955l-.06-.12M4.824 19.834l-.06-.06M4.763 19.774l-.12-.06M4.642 19.713H4.4M4.4 19.713l-.12.06M4.28 19.774l-.061.06M4.219 19.834l-.06.121"/>
    </g>
    <path d="M5.791 23.457h-2.54" style="fill:none;stroke:#840000;stroke-width:.1524;stroke-opacity:1;stroke-linecap:round;stroke-linejoin:round"/>
    <g class="stroked-text" style="fill:none;stroke:#006464;stroke-width:.1524;stroke-opacity:1;stroke-linecap:round;stroke-linejoin:round">
        <path d="M6.702 24.036v-1.27M6.702 22.766h.302M7.004 22.766l.182.06M7.186 22.827l.12.12M7.307 22.948l.06.12M7.367 23.069l.06.242M7.427 23.31v.182M7.427 23.492l-.06.242M7.367 23.734l-.06.121M7.307 23.855l-.122.121M7.186 23.976l-.182.06M7.004 24.036h-.302M8.516 22.766h-.242M8.274 22.766l-.12.06M8.153 22.827l-.06.06M8.093 22.887l-.121.182M7.972 23.069l-.06.242M7.911 23.31v.485M7.911 23.795l.06.12M7.972 23.916l.06.06M8.032 23.976l.121.06M8.153 24.036h.242M8.395 24.036l.121-.06M8.516 23.976l.06-.06M8.577 23.916l.06-.122M8.637 23.795v-.303M8.637 23.492l-.06-.12M8.577 23.371l-.061-.06M8.516 23.31l-.12-.06M8.395 23.25h-.242M8.153 23.25l-.12.06M8.032 23.31l-.06.061M7.972 23.371l-.06.121M10.088 22.706 9 24.339M10.33 22.766h.726M10.693 24.036v-1.27M11.358 22.766l.847 1.27M12.205 22.766l-.847 1.27"/>
    </g>
    <g class="stroked-text" style="fill:none;stroke:#a90000;stroke-width:.1524;stroke-opacity:1;stroke-linecap:round;stroke-linejoin:round">
        <path d="M4.098 21.77h.846M4.945 21.77 4.4 23.04"/>
    </g>
    <path d="M28.651 8.217h2.54" style="fill:none;stroke:#840000;stroke-width:.1524;stroke-opacity:1;stroke-linecap:round;stroke-linejoin:round"/>
    <g class="stroked-text" style="fill:none;stroke:#006464;stroke-width:.1524;stroke-opacity:1;stroke-linecap:round;stroke-linejoin:round">
        <path d="M26.652 7.526h-.605M26.047 7.526l-.06.605M25.987 8.131l.06-.06M26.047 8.07l.121-.06M26.168 8.01h.303M26.47 8.01l.122.06M26.592 8.07l.06.061M26.652 8.131l.06.121M26.713 8.252v.303M26.713 8.555l-.061.12M26.652 8.676l-.06.06M26.592 8.736l-.121.06M26.47 8.796h-.302M26.168 8.796l-.12-.06M26.047 8.736l-.06-.06M27.075 7.526l.424 1.27M27.499 8.796l.423-1.27"/>
    </g>
    <g class="stroked-text" style="fill:none;stroke:#a90000;stroke-width:.1524;stroke-opacity:1;stroke-linecap:round;stroke-linejoin:round">
        <path d="M29.68 7.8h-.726M29.316 7.8V6.53M29.316 6.53l-.12.18M29.196 6.71l-.122.122M29.075 6.832l-.121.06M30.768 6.953v.846M30.465 6.469l-.302.907M30.163 7.376h.786"/>
    </g>
    <path d="M28.651 10.757h2.54" style="fill:none;stroke:#840000;stroke-width:.1524;stroke-opacity:1;stroke-linecap:round;stroke-linejoin:round"/>
    <g class="stroked-text" style="fill:none;stroke:#006464;stroke-width:.1524;stroke-opacity:1;stroke-linecap:round;stroke-linejoin:round">
        <path d="m25.14 10.127-.12-.06M25.02 10.066h-.182M24.838 10.066l-.182.06M24.656 10.127l-.12.12M24.535 10.248l-.06.12M24.475 10.369l-.06.242M24.414 10.61v.182M24.414 10.792l.06.242M24.475 11.034l.06.121M24.535 11.155l.121.121M24.656 11.276l.182.06M24.838 11.336h.12M24.959 11.336l.181-.06M25.14 11.276l.06-.06M25.2 11.216v-.424M25.2 10.792h-.241M25.745 11.336v-1.27M25.745 10.066l.726 1.27M26.47 11.336v-1.27M27.075 11.336v-1.27M27.075 10.066h.303M27.378 10.066l.181.06M27.56 10.127l.12.12M27.68 10.248l.06.12M27.74 10.369l.061.242M27.801 10.61v.182M27.801 10.792l-.06.242M27.74 11.034l-.06.121M27.68 11.155l-.12.121M27.56 11.276l-.182.06M27.378 11.336h-.303"/>
    </g>
    <g class="stroked-text" style="fill:none;stroke:#a90000;stroke-width:.1524;stroke-opacity:1;stroke-linecap:round;stroke-linejoin:round">
        <path d="M29.68 10.34h-.726M29.316 10.34V9.07M29.316 9.07l-.12.18M29.196 9.25l-.122.122M29.075 9.372l-.121.06M30.103 9.07h.786M30.889 9.07l-.424.483M30.465 9.553h.182M30.647 9.553l.12.06M30.768 9.614l.06.06M30.828 9.674l.06.121M30.889 9.795v.303M30.889 10.098l-.06.12M30.828 10.219l-.06.06M30.768 10.279l-.121.06M30.647 10.34h-.363M30.284 10.34l-.12-.061M30.163 10.279l-.06-.06"/>
    </g>
    <path d="M28.651 13.297h2.54" style="fill:none;stroke:#840000;stroke-width:.1524;stroke-opacity:1;stroke-linecap:round;stroke-linejoin:round"/>
    <g class="stroked-text" style="fill:none;stroke:#006464;stroke-width:.1524;stroke-opacity:1;stroke-linecap:round;stroke-linejoin:round">
        <path d="M24.717 12.606h.786M25.503 12.606l-.423.484M25.08 13.09h.181M25.261 13.09l.121.06M25.382 13.15l.06.061M25.443 13.211l.06.121M25.503 13.332v.302M25.503 13.635l-.06.12M25.443 13.756l-.061.06M25.382 13.816l-.12.06M25.261 13.876h-.363M24.898 13.876l-.12-.06M24.777 13.816l-.06-.06M25.866 12.606l.423 1.27M26.29 13.876l.422-1.27M27.015 12.606h.786M27.801 12.606l-.423.484M27.378 13.09h.181M27.56 13.09l.12.06M27.68 13.15l.06.061M27.74 13.211l.061.121M27.801 13.332v.302M27.801 13.635l-.06.12M27.74 13.756l-.06.06M27.68 13.816l-.12.06M27.56 13.876h-.364M27.196 13.876l-.12-.06M27.075 13.816l-.06-.06"/>
    </g>
    <g class="stroked-text" style="fill:none;stroke:#a90000;stroke-width:.1524;stroke-opacity:1;stroke-linecap:round;stroke-linejoin:round">
        <path d="M29.68 12.88h-.726M29.316 12.88v-1.27M29.316 11.61l-.12.18M29.196 11.79l-.122.122M29.075 11.912l-.121.06M30.163 11.73l.06-.06M30.224 11.67l.12-.06M30.345 11.61h.302M30.647 11.61l.12.06M30.768 11.67l.06.06M30.828 11.73l.06.121M30.889 11.851v.121M30.889 11.972l-.06.182M30.828 12.154l-.725.725M30.103 12.88h.786"/>
    </g>
    <path d="M28.651 15.837h2.54" style="fill:none;stroke:#840000;stroke-width:.1524;stroke-opacity:1;stroke-linecap:round;stroke-linejoin:round"/>
    <g class="stroked-text" style="fill:none;stroke:#006464;stroke-width:.1524;stroke-opacity:1;stroke-linecap:round;stroke-linejoin:round">
        <path d="M18.73 16.416v-1.27M18.73 15.146l.423.908M19.153 16.054l.423-.908M19.576 15.146v1.27M20.423 15.146h.242M20.665 15.146l.12.06M20.786 15.207l.12.12M20.907 15.328l.06.242M20.967 15.57v.423M20.967 15.993l-.06.242M20.907 16.235l-.121.121M20.786 16.356l-.121.06M20.665 16.416h-.242M20.423 16.416l-.121-.06M20.302 16.356l-.121-.121M20.181 16.235l-.06-.242M20.12 15.993v-.423M20.12 15.57l.061-.242M20.181 15.328l.121-.121M20.302 15.207l.12-.06M21.451 16.356l.181.06M21.633 16.416h.302M21.935 16.416l.12-.06M22.056 16.356l.06-.06M22.116 16.296l.06-.122M22.177 16.174v-.12M22.177 16.054l-.06-.121M22.116 15.933l-.06-.06M22.056 15.872l-.121-.06M21.935 15.812l-.242-.06M21.693 15.751l-.121-.06M21.572 15.69l-.06-.06M21.512 15.63l-.06-.12M21.451 15.51v-.122M21.451 15.388l.06-.12M21.512 15.267l.06-.06M21.572 15.207l.121-.06M21.693 15.146h.302M21.995 15.146l.182.06M22.721 16.416v-1.27M24.233 15.086l-1.089 1.633M24.656 16.416v-1.27M24.656 15.146h.303M24.959 15.146l.181.06M25.14 15.207l.121.12M25.261 15.328l.06.12M25.322 15.449l.06.242M25.382 15.69v.182M25.382 15.872l-.06.242M25.322 16.114l-.06.121M25.261 16.235l-.12.121M25.14 16.356l-.181.06M24.959 16.416h-.303M26.592 16.416h-.726M26.229 16.416v-1.27M26.229 15.146l-.121.182M26.108 15.328l-.121.12M25.987 15.449l-.121.06M27.378 15.146h.12M27.499 15.146l.12.06M27.62 15.207l.06.06M27.68 15.267l.06.121M27.74 15.388l.061.242M27.801 15.63v.303M27.801 15.933l-.06.241M27.74 16.174l-.06.122M27.68 16.296l-.06.06M27.62 16.356l-.121.06M27.499 16.416h-.121M27.378 16.416l-.121-.06M27.257 16.356l-.06-.06M27.196 16.296l-.06-.122M27.136 16.174l-.06-.241M27.075 15.933v-.303M27.075 15.63l.06-.242M27.136 15.388l.06-.12M27.196 15.267l.06-.06M27.257 15.207l.12-.06"/>
    </g>
    <g class="stroked-text" style="fill:none;stroke:#a90000;stroke-width:.1524;stroke-opacity:1;stroke-linecap:round;stroke-linejoin:round">
        <path d="M29.68 15.42h-.726M29.316 15.42v-1.27M29.316 14.15l-.12.18M29.196 14.33l-.122.122M29.075 14.452l-.121.06M30.889 15.42h-.726M30.526 15.42v-1.27M30.526 14.15l-.121.18M30.405 14.33l-.121.122M30.284 14.452l-.12.06"/>
    </g>
    <path d="M28.651 18.377h2.54" style="fill:none;stroke:#840000;stroke-width:.1524;stroke-opacity:1;stroke-linecap:round;stroke-linejoin:round"/>
    <g class="stroked-text" style="fill:none;stroke:#006464;stroke-width:.1524;stroke-opacity:1;stroke-linecap:round;stroke-linejoin:round">
        <path d="M19.94 18.956v-1.27M19.94 17.686l.422.908M20.363 18.594l.423-.908M20.786 17.686v1.27M21.39 18.956v-1.27M21.935 18.896l.181.06M22.116 18.956h.303M22.419 18.956l.12-.06M22.54 18.896l.06-.06M22.6 18.836l.06-.121M22.66 18.715v-.121M22.66 18.594l-.06-.121M22.6 18.473l-.06-.06M22.54 18.412l-.121-.06M22.419 18.352l-.242-.06M22.177 18.291l-.121-.06M22.056 18.23l-.06-.06M21.995 18.17l-.06-.12M21.935 18.05v-.122M21.935 17.928l.06-.12M21.995 17.807l.06-.06M22.056 17.747l.12-.06M22.177 17.686h.302M22.48 17.686l.18.06M23.447 17.686h.242M23.689 17.686l.12.06M23.81 17.747l.12.12M23.93 17.868l.061.242M23.991 18.11v.423M23.991 18.533l-.06.242M23.93 18.775l-.12.121M23.81 18.896l-.121.06M23.689 18.956h-.242M23.447 18.956l-.121-.06M23.326 18.896l-.121-.121M23.205 18.775l-.06-.242M23.144 18.533v-.423M23.144 18.11l.06-.242M23.205 17.868l.12-.121M23.326 17.747l.12-.06M25.443 17.626l-1.09 1.633M25.866 18.956v-1.27M25.866 17.686h.302M26.168 17.686l.182.06M26.35 17.747l.12.12M26.47 17.868l.061.12M26.531 17.989l.06.242M26.592 18.23v.182M26.592 18.412l-.06.242M26.531 18.654l-.06.121M26.47 18.775l-.12.121M26.35 18.896l-.182.06M26.168 18.956h-.302M27.196 18.956h.242M27.438 18.956l.121-.06M27.56 18.896l.06-.06M27.62 18.836l.12-.182M27.74 18.654l.061-.242M27.801 18.412v-.484M27.801 17.928l-.06-.12M27.74 17.807l-.06-.06M27.68 17.747l-.12-.06M27.56 17.686h-.243M27.317 17.686l-.12.06M27.196 17.747l-.06.06M27.136 17.807l-.06.121M27.075 17.928v.303M27.075 18.23l.06.122M27.136 18.352l.06.06M27.196 18.412l.121.06M27.317 18.473h.242M27.56 18.473l.12-.06M27.68 18.412l.06-.06M27.74 18.352l.061-.121"/>
    </g>
    <g class="stroked-text" style="fill:none;stroke:#a90000;stroke-width:.1524;stroke-opacity:1;stroke-linecap:round;stroke-linejoin:round">
        <path d="M29.68 17.96h-.726M29.316 17.96v-1.27M29.316 16.69l-.12.18M29.196 16.87l-.122.122M29.075 16.992l-.121.06M30.465 16.69h.121M30.586 16.69l.121.06M30.707 16.75l.06.06M30.768 16.81l.06.121M30.828 16.931l.06.242M30.889 17.173v.303M30.889 17.476l-.06.242M30.828 17.718l-.06.12M30.768 17.839l-.06.06M30.707 17.899l-.12.06M30.586 17.96h-.12M30.465 17.96l-.12-.061M30.345 17.899l-.061-.06M30.284 17.839l-.06-.121M30.224 17.718l-.06-.242M30.163 17.476v-.303M30.163 17.173l.06-.242M30.224 16.931l.06-.12M30.284 16.81l.06-.06M30.345 16.75l.12-.06"/>
    </g>
    <path d="M28.651 20.917h2.54" style="fill:none;stroke:#840000;stroke-width:.1524;stroke-opacity:1;stroke-linecap:round;stroke-linejoin:round"/>
    <g class="stroked-text" style="fill:none;stroke:#006464;stroke-width:.1524;stroke-opacity:1;stroke-linecap:round;stroke-linejoin:round">
        <path d="m20.725 21.436.182.06M20.907 21.496h.302M21.21 21.496l.12-.06M21.33 21.436l.06-.06M21.39 21.376l.061-.122M21.451 21.255v-.121M21.451 21.134l-.06-.121M21.39 21.013l-.06-.06M21.33 20.952l-.12-.06M21.21 20.892l-.243-.06M20.967 20.831l-.12-.06M20.846 20.77l-.06-.06M20.786 20.71l-.06-.12M20.725 20.59v-.122M20.725 20.468l.06-.12M20.786 20.347l.06-.06M20.846 20.287l.121-.06M20.967 20.226h.303M21.27 20.226l.181.06M22.721 21.376l-.06.06M22.66 21.436l-.18.06M22.48 21.496h-.122M22.358 21.496l-.181-.06M22.177 21.436l-.121-.121M22.056 21.315l-.06-.121M21.995 21.194l-.06-.242M21.935 20.952v-.181M21.935 20.77l.06-.241M21.995 20.529l.06-.121M22.056 20.408l.12-.121M22.177 20.287l.181-.06M22.358 20.226h.121M22.48 20.226l.18.06M22.66 20.287l.061.06M23.265 21.496v-1.27M23.991 21.496l-.544-.725M23.991 20.226l-.726.726M25.443 20.166l-1.09 1.633M25.866 21.496v-1.27M25.866 20.226h.302M26.168 20.226l.182.06M26.35 20.287l.12.12M26.47 20.408l.061.12M26.531 20.529l.06.242M26.592 20.77v.182M26.592 20.952l-.06.242M26.531 21.194l-.06.121M26.47 21.315l-.12.121M26.35 21.436l-.182.06M26.168 21.496h-.302M27.317 20.77l-.12-.06M27.196 20.71l-.06-.06M27.136 20.65l-.06-.121M27.075 20.529v-.06M27.075 20.468l.06-.12M27.136 20.347l.06-.06M27.196 20.287l.121-.06M27.317 20.226h.242M27.56 20.226l.12.06M27.68 20.287l.06.06M27.74 20.347l.061.121M27.801 20.468v.06M27.801 20.529l-.06.12M27.74 20.65l-.06.06M27.68 20.71l-.12.06M27.56 20.77h-.243M27.317 20.77l-.12.061M27.196 20.831l-.06.06M27.136 20.892l-.06.12M27.075 21.013v.241M27.075 21.255l.06.12M27.136 21.376l.06.06M27.196 21.436l.121.06M27.317 21.496h.242M27.56 21.496l.12-.06M27.68 21.436l.06-.06M27.74 21.376l.061-.122M27.801 21.255v-.242M27.801 21.013l-.06-.121M27.74 20.892l-.06-.06M27.68 20.831l-.12-.06"/>
    </g>
    <g class="stroked-text" style="fill:none;stroke:#a90000;stroke-width:.1524;stroke-opacity:1;stroke-linecap:round;stroke-linejoin:round">
        <path d="M29.68 20.5h.241M29.921 20.5l.121-.061M30.042 20.439l.06-.06M30.103 20.379l.12-.182M30.224 20.197l.06-.242M30.284 19.955v-.484M30.284 19.471l-.06-.12M30.224 19.35l-.06-.06M30.163 19.29l-.12-.06M30.042 19.23H29.8M29.8 19.23l-.12.06M29.68 19.29l-.061.06M29.619 19.35l-.06.121M29.558 19.471v.303M29.558 19.774l.06.12M29.619 19.895l.06.06M29.68 19.955l.12.06M29.8 20.016h.242M30.042 20.016l.121-.06M30.163 19.955l.06-.06M30.224 19.895l.06-.121"/>
    </g>
    <path d="M28.651 23.457h2.54" style="fill:none;stroke:#840000;stroke-width:.1524;stroke-opacity:1;stroke-linecap:round;stroke-linejoin:round"/>
    <g class="stroked-text" style="fill:none;stroke:#006464;stroke-width:.1524;stroke-opacity:1;stroke-linecap:round;stroke-linejoin:round">
        <path d="m22.782 24.036-.424-.604M22.056 24.036v-1.27M22.056 22.766h.484M22.54 22.766l.12.06M22.66 22.827l.061.06M22.721 22.887l.06.121M22.782 23.008v.182M22.782 23.19l-.06.12M22.721 23.31l-.06.061M22.66 23.371l-.12.06M22.54 23.432h-.484M23.205 22.766l.847 1.27M24.052 22.766l-.847 1.27M25.443 22.706l-1.09 1.633M25.866 24.036v-1.27M25.866 22.766h.302M26.168 22.766l.182.06M26.35 22.827l.12.12M26.47 22.948l.061.12M26.531 23.069l.06.242M26.592 23.31v.182M26.592 23.492l-.06.242M26.531 23.734l-.06.121M26.47 23.855l-.12.121M26.35 23.976l-.182.06M26.168 24.036h-.302M27.015 22.766h.846M27.862 22.766l-.545 1.27"/>
    </g>
    <g class="stroked-text" style="fill:none;stroke:#a90000;stroke-width:.1524;stroke-opacity:1;stroke-linecap:round;stroke-linejoin:round">
        <path d="m29.8 22.314-.12-.06M29.68 22.253l-.061-.06M29.619 22.193l-.06-.121M29.558 22.072v-.06M29.558 22.011l.06-.12M29.619 21.89l.06-.06M29.68 21.83l.12-.06M29.8 21.77h.242M30.042 21.77l.121.06M30.163 21.83l.06.06M30.224 21.89l.06.121M30.284 22.011v.06M30.284 22.072l-.06.12M30.224 22.193l-.06.06M30.163 22.253l-.12.06M30.042 22.314H29.8M29.8 22.314l-.12.06M29.68 22.374l-.061.06M29.619 22.435l-.06.12M29.558 22.556v.241M29.558 22.798l.06.12M29.619 22.919l.06.06M29.68 22.979l.12.06M29.8 23.04h.242M30.042 23.04l.121-.061M30.163 22.979l.06-.06M30.224 22.919l.06-.122M30.284 22.798v-.242M30.284 22.556l-.06-.121M30.224 22.435l-.06-.06M30.163 22.374l-.12-.06"/>
    </g>
    <g style="fill:none;stroke:#006464;stroke-width:.1524;stroke-opacity:1;stroke-linecap:round;stroke-linejoin:round">
        <g class="stroked-text">
            <path d="M-.907-12.755v1.028M-.907-11.727l.06.12M-.847-11.606l.06.06M-.786-11.546l.12.06M-.665-11.485h.242M-.423-11.485l.12-.06M-.302-11.546l.06-.06M-.242-11.606l.06-.121M-.181-11.727v-1.028M.605-11.606l.06.06M.665-11.546l-.06.06M.605-11.485l-.06-.06M.544-11.546l.06-.06M.605-11.606v.12M.363-12.695l.12-.06M.484-12.755h.302M.786-12.755l.121.06M.907-12.695l.06.121M.968-12.574v.121M.968-12.453l-.06.121M.907-12.332l-.06.06M.847-12.272l-.121.06M.726-12.211l-.06.06M.665-12.15l-.06.12M.605-12.03v.06"/>
        </g>
        <g class="stroked-text">
            <path d="m-7.196 11.375.846 1.27M-6.35 11.375l-.847 1.27M-5.866 12.645v-1.27M-5.322 12.282h.605M-5.443 12.645l.424-1.27M-5.02 11.375l.424 1.27M-3.93 11.375h.241M-3.689 11.375l.121.06M-3.568 11.435l.121.121M-3.447 11.556l.06.242M-3.386 11.798v.423M-3.386 12.221l-.061.242M-3.447 12.463l-.12.121M-3.568 12.584l-.12.06M-3.689 12.645h-.242M-3.93 12.645l-.122-.06M-4.052 12.584l-.12-.12M-4.173 12.463l-.06-.242M-4.233 12.221v-.423M-4.233 11.798l.06-.242M-4.173 11.556l.121-.121M-4.052 11.435l.121-.06M-3.145 12.766h.968M-1.875 11.798v.847M-1.875 11.919l.06-.06M-1.814 11.858l.12-.06M-1.693 11.798h.181M-1.512 11.798l.121.06M-1.39 11.858l.06.121M-1.33 11.98v.665M0 12.645l-.423-.605M-.726 12.645v-1.27M-.726 11.375h.484M-.242 11.375l.121.06M-.12 11.435l.06.06M-.06 11.496l.06.12M0 11.616v.182M0 11.798l-.06.12M-.06 11.919l-.06.06M-.12 11.98l-.122.06M-.242 12.04h-.484M.968 11.98H.544M.544 12.645v-1.27M.544 11.375h.605M2.238 11.375h-.605M1.633 11.375l-.06.604M1.573 11.98l.06-.061M1.633 11.919l.12-.06M1.754 11.858h.302M2.056 11.858l.121.06M2.177 11.919l.06.06M2.238 11.98l.06.12M2.298 12.1v.303M2.298 12.403l-.06.12M2.238 12.524l-.06.06M2.177 12.584l-.12.06M2.056 12.645h-.302M1.754 12.645l-.121-.06M1.633 12.584l-.06-.06M2.782 11.496l.06-.061M2.842 11.435l.121-.06M2.963 11.375h.303M3.266 11.375l.12.06M3.387 11.435l.06.06M3.447 11.496l.06.12M3.508 11.616v.121M3.508 11.737l-.06.182M3.447 11.919l-.726.726M2.722 12.645h.786M4.233 11.919l-.12-.06M4.112 11.858l-.06-.06M4.052 11.798l-.06-.121M3.992 11.677v-.06M3.992 11.616l.06-.12M4.052 11.496l.06-.061M4.112 11.435l.121-.06M4.233 11.375h.242M4.475 11.375l.121.06M4.596 11.435l.06.06M4.657 11.496l.06.12M4.717 11.616v.06M4.717 11.677l-.06.12M4.657 11.798l-.06.06M4.596 11.858l-.12.06M4.475 11.919h-.242M4.233 11.919l-.12.06M4.112 11.98l-.06.06M4.052 12.04l-.06.12M3.992 12.16v.243M3.992 12.403l.06.12M4.052 12.524l.06.06M4.112 12.584l.121.06M4.233 12.645h.242M4.475 12.645l.121-.06M4.596 12.584l.06-.06M4.657 12.524l.06-.121M4.717 12.403v-.242M4.717 12.16l-.06-.12M4.657 12.04l-.06-.06M4.596 11.98l-.12-.061M5.806 11.798v.847M5.503 11.314l-.302.907M5.201 12.221h.786M6.713 11.375h.12M6.834 11.375l.12.06M6.955 11.435l.06.06M7.015 11.496l.06.12M7.076 11.616l.06.242M7.136 11.858v.303M7.136 12.16l-.06.243M7.076 12.403l-.06.12M7.015 12.524l-.06.06M6.955 12.584l-.121.06M6.834 12.645h-.121M6.713 12.645l-.121-.06M6.592 12.584l-.06-.06M6.531 12.524l-.06-.121M6.47 12.403l-.06-.242M6.41 12.16v-.302M6.41 11.858l.06-.242M6.47 11.616l.061-.12M6.531 11.496l.06-.061M6.592 11.435l.12-.06"/>
        </g>
    </g>
</svg>
