<?xml version="1.0" standalone="no"?>
 <!DOCTYPE svg PUBLIC "-//W3C//DTD SVG 1.1//EN" 
 "http://www.w3.org/Graphics/SVG/1.1/DTD/svg11.dtd"> 
<svg
  xmlns:svg="http://www.w3.org/2000/svg"
  xmlns="http://www.w3.org/2000/svg"
  xmlns:xlink="http://www.w3.org/1999/xlink"
  version="1.1"
  width="34.4424mm" height="32.3342mm" viewBox="0.0000 0.0000 34.4424 32.3342">
<title>SVG Image created as XIAO-RP2040_unit1.svg date 2025/04/10 11:36:08 </title>
  <desc>Image generated by Eeschema-SVG </desc>
<g style="fill:#000000; fill-opacity:1.0000;stroke:#000000; stroke-opacity:1.0000;
stroke-linecap:round; stroke-linejoin:round;"
 transform="translate(0 0) scale(1 1)">
</g>
<g style="fill:#FFFFC2; fill-opacity:1.0000; stroke:none;">
<rect x="5.791200" y="6.007100" width="22.860000" height="20.320000" rx="0.000000" />
</g>
<g style="fill:none; 
stroke:#840000; stroke-width:0.1524; stroke-opacity:1; 
stroke-linecap:round; stroke-linejoin:round;">
<rect x="5.791200" y="6.007100" width="22.860000" height="20.320000" rx="0.000000" />
<path d="M5.7912 8.5471
L3.2512 8.5471
" />
</g>
<g style="fill:none; 
stroke:#006464; stroke-width:0.1524; stroke-opacity:1; 
stroke-linecap:round; stroke-linejoin:round;">
<text x="6.2992" y="9.1821"
textLength="6.3113" font-size="1.6933" lengthAdjust="spacingAndGlyphs"
text-anchor="start" opacity="0" stroke-opacity="0">D0/A0</text>
<g class="stroked-text"><desc>D0/A0</desc>
<path d="M6.7017 9.1266
L6.7017 7.8566
" />
<path d="M6.7017 7.8566
L7.0041 7.8566
" />
<path d="M7.0041 7.8566
L7.1855 7.9171
" />
<path d="M7.1855 7.9171
L7.3065 8.0381
" />
<path d="M7.3065 8.0381
L7.3670 8.1590
" />
<path d="M7.3670 8.1590
L7.4274 8.4009
" />
<path d="M7.4274 8.4009
L7.4274 8.5823
" />
<path d="M7.4274 8.5823
L7.3670 8.8242
" />
<path d="M7.3670 8.8242
L7.3065 8.9452
" />
<path d="M7.3065 8.9452
L7.1855 9.0662
" />
<path d="M7.1855 9.0662
L7.0041 9.1266
" />
<path d="M7.0041 9.1266
L6.7017 9.1266
" />
<path d="M8.2136 7.8566
L8.3346 7.8566
" />
<path d="M8.3346 7.8566
L8.4555 7.9171
" />
<path d="M8.4555 7.9171
L8.5160 7.9776
" />
<path d="M8.5160 7.9776
L8.5765 8.0985
" />
<path d="M8.5765 8.0985
L8.6370 8.3404
" />
<path d="M8.6370 8.3404
L8.6370 8.6428
" />
<path d="M8.6370 8.6428
L8.5765 8.8847
" />
<path d="M8.5765 8.8847
L8.5160 9.0057
" />
<path d="M8.5160 9.0057
L8.4555 9.0662
" />
<path d="M8.4555 9.0662
L8.3346 9.1266
" />
<path d="M8.3346 9.1266
L8.2136 9.1266
" />
<path d="M8.2136 9.1266
L8.0927 9.0662
" />
<path d="M8.0927 9.0662
L8.0322 9.0057
" />
<path d="M8.0322 9.0057
L7.9717 8.8847
" />
<path d="M7.9717 8.8847
L7.9113 8.6428
" />
<path d="M7.9113 8.6428
L7.9113 8.3404
" />
<path d="M7.9113 8.3404
L7.9717 8.0985
" />
<path d="M7.9717 8.0985
L8.0322 7.9776
" />
<path d="M8.0322 7.9776
L8.0927 7.9171
" />
<path d="M8.0927 7.9171
L8.2136 7.8566
" />
<path d="M10.0884 7.7962
L8.9998 9.4290
" />
<path d="M10.4513 8.7638
L11.0560 8.7638
" />
<path d="M10.3303 9.1266
L10.7536 7.8566
" />
<path d="M10.7536 7.8566
L11.1770 9.1266
" />
<path d="M11.8422 7.8566
L11.9632 7.8566
" />
<path d="M11.9632 7.8566
L12.0841 7.9171
" />
<path d="M12.0841 7.9171
L12.1446 7.9776
" />
<path d="M12.1446 7.9776
L12.2051 8.0985
" />
<path d="M12.2051 8.0985
L12.2656 8.3404
" />
<path d="M12.2656 8.3404
L12.2656 8.6428
" />
<path d="M12.2656 8.6428
L12.2051 8.8847
" />
<path d="M12.2051 8.8847
L12.1446 9.0057
" />
<path d="M12.1446 9.0057
L12.0841 9.0662
" />
<path d="M12.0841 9.0662
L11.9632 9.1266
" />
<path d="M11.9632 9.1266
L11.8422 9.1266
" />
<path d="M11.8422 9.1266
L11.7213 9.0662
" />
<path d="M11.7213 9.0662
L11.6608 9.0057
" />
<path d="M11.6608 9.0057
L11.6003 8.8847
" />
<path d="M11.6003 8.8847
L11.5399 8.6428
" />
<path d="M11.5399 8.6428
L11.5399 8.3404
" />
<path d="M11.5399 8.3404
L11.6003 8.0985
" />
<path d="M11.6003 8.0985
L11.6608 7.9776
" />
<path d="M11.6608 7.9776
L11.7213 7.9171
" />
<path d="M11.7213 7.9171
L11.8422 7.8566
" />
</g></g>
<g style="fill:none; 
stroke:#A90000; stroke-width:0.1524; stroke-opacity:1; 
stroke-linecap:round; stroke-linejoin:round;">
<text x="4.5212" y="8.2931"
textLength="1.4127" font-size="1.6933" lengthAdjust="spacingAndGlyphs"
text-anchor="middle" opacity="0" stroke-opacity="0">1</text>
<g class="stroked-text"><desc>1</desc>
<path d="M4.8841 8.1296
L4.1584 8.1296
" />
<path d="M4.5212 8.1296
L4.5212 6.8596
" />
<path d="M4.5212 6.8596
L4.4003 7.0411
" />
<path d="M4.4003 7.0411
L4.2793 7.1620
" />
<path d="M4.2793 7.1620
L4.1584 7.2225
" />
</g></g>
<g style="fill:none; 
stroke:#840000; stroke-width:0.1524; stroke-opacity:1; 
stroke-linecap:round; stroke-linejoin:round;">
<path d="M5.7912 11.0871
L3.2512 11.0871
" />
</g>
<g style="fill:none; 
stroke:#006464; stroke-width:0.1524; stroke-opacity:1; 
stroke-linecap:round; stroke-linejoin:round;">
<text x="6.2992" y="11.7221"
textLength="6.3113" font-size="1.6933" lengthAdjust="spacingAndGlyphs"
text-anchor="start" opacity="0" stroke-opacity="0">D1/A1</text>
<g class="stroked-text"><desc>D1/A1</desc>
<path d="M6.7017 11.6666
L6.7017 10.3966
" />
<path d="M6.7017 10.3966
L7.0041 10.3966
" />
<path d="M7.0041 10.3966
L7.1855 10.4571
" />
<path d="M7.1855 10.4571
L7.3065 10.5781
" />
<path d="M7.3065 10.5781
L7.3670 10.6990
" />
<path d="M7.3670 10.6990
L7.4274 10.9409
" />
<path d="M7.4274 10.9409
L7.4274 11.1223
" />
<path d="M7.4274 11.1223
L7.3670 11.3642
" />
<path d="M7.3670 11.3642
L7.3065 11.4852
" />
<path d="M7.3065 11.4852
L7.1855 11.6062
" />
<path d="M7.1855 11.6062
L7.0041 11.6666
" />
<path d="M7.0041 11.6666
L6.7017 11.6666
" />
<path d="M8.6370 11.6666
L7.9113 11.6666
" />
<path d="M8.2741 11.6666
L8.2741 10.3966
" />
<path d="M8.2741 10.3966
L8.1532 10.5781
" />
<path d="M8.1532 10.5781
L8.0322 10.6990
" />
<path d="M8.0322 10.6990
L7.9113 10.7595
" />
<path d="M10.0884 10.3362
L8.9998 11.9690
" />
<path d="M10.4513 11.3038
L11.0560 11.3038
" />
<path d="M10.3303 11.6666
L10.7536 10.3966
" />
<path d="M10.7536 10.3966
L11.1770 11.6666
" />
<path d="M12.2656 11.6666
L11.5399 11.6666
" />
<path d="M11.9027 11.6666
L11.9027 10.3966
" />
<path d="M11.9027 10.3966
L11.7818 10.5781
" />
<path d="M11.7818 10.5781
L11.6608 10.6990
" />
<path d="M11.6608 10.6990
L11.5399 10.7595
" />
</g></g>
<g style="fill:none; 
stroke:#A90000; stroke-width:0.1524; stroke-opacity:1; 
stroke-linecap:round; stroke-linejoin:round;">
<text x="4.5212" y="10.8331"
textLength="1.4127" font-size="1.6933" lengthAdjust="spacingAndGlyphs"
text-anchor="middle" opacity="0" stroke-opacity="0">2</text>
<g class="stroked-text"><desc>2</desc>
<path d="M4.1584 9.5206
L4.2188 9.4601
" />
<path d="M4.2188 9.4601
L4.3398 9.3996
" />
<path d="M4.3398 9.3996
L4.6422 9.3996
" />
<path d="M4.6422 9.3996
L4.7631 9.4601
" />
<path d="M4.7631 9.4601
L4.8236 9.5206
" />
<path d="M4.8236 9.5206
L4.8841 9.6415
" />
<path d="M4.8841 9.6415
L4.8841 9.7625
" />
<path d="M4.8841 9.7625
L4.8236 9.9439
" />
<path d="M4.8236 9.9439
L4.0979 10.6696
" />
<path d="M4.0979 10.6696
L4.8841 10.6696
" />
</g></g>
<g style="fill:none; 
stroke:#840000; stroke-width:0.1524; stroke-opacity:1; 
stroke-linecap:round; stroke-linejoin:round;">
<path d="M5.7912 13.6271
L3.2512 13.6271
" />
</g>
<g style="fill:none; 
stroke:#006464; stroke-width:0.1524; stroke-opacity:1; 
stroke-linecap:round; stroke-linejoin:round;">
<text x="6.2992" y="14.2621"
textLength="6.3113" font-size="1.6933" lengthAdjust="spacingAndGlyphs"
text-anchor="start" opacity="0" stroke-opacity="0">D2/A2</text>
<g class="stroked-text"><desc>D2/A2</desc>
<path d="M6.7017 14.2066
L6.7017 12.9366
" />
<path d="M6.7017 12.9366
L7.0041 12.9366
" />
<path d="M7.0041 12.9366
L7.1855 12.9971
" />
<path d="M7.1855 12.9971
L7.3065 13.1181
" />
<path d="M7.3065 13.1181
L7.3670 13.2390
" />
<path d="M7.3670 13.2390
L7.4274 13.4809
" />
<path d="M7.4274 13.4809
L7.4274 13.6623
" />
<path d="M7.4274 13.6623
L7.3670 13.9042
" />
<path d="M7.3670 13.9042
L7.3065 14.0252
" />
<path d="M7.3065 14.0252
L7.1855 14.1462
" />
<path d="M7.1855 14.1462
L7.0041 14.2066
" />
<path d="M7.0041 14.2066
L6.7017 14.2066
" />
<path d="M7.9113 13.0576
L7.9717 12.9971
" />
<path d="M7.9717 12.9971
L8.0927 12.9366
" />
<path d="M8.0927 12.9366
L8.3951 12.9366
" />
<path d="M8.3951 12.9366
L8.5160 12.9971
" />
<path d="M8.5160 12.9971
L8.5765 13.0576
" />
<path d="M8.5765 13.0576
L8.6370 13.1785
" />
<path d="M8.6370 13.1785
L8.6370 13.2995
" />
<path d="M8.6370 13.2995
L8.5765 13.4809
" />
<path d="M8.5765 13.4809
L7.8508 14.2066
" />
<path d="M7.8508 14.2066
L8.6370 14.2066
" />
<path d="M10.0884 12.8762
L8.9998 14.5090
" />
<path d="M10.4513 13.8438
L11.0560 13.8438
" />
<path d="M10.3303 14.2066
L10.7536 12.9366
" />
<path d="M10.7536 12.9366
L11.1770 14.2066
" />
<path d="M11.5399 13.0576
L11.6003 12.9971
" />
<path d="M11.6003 12.9971
L11.7213 12.9366
" />
<path d="M11.7213 12.9366
L12.0237 12.9366
" />
<path d="M12.0237 12.9366
L12.1446 12.9971
" />
<path d="M12.1446 12.9971
L12.2051 13.0576
" />
<path d="M12.2051 13.0576
L12.2656 13.1785
" />
<path d="M12.2656 13.1785
L12.2656 13.2995
" />
<path d="M12.2656 13.2995
L12.2051 13.4809
" />
<path d="M12.2051 13.4809
L11.4794 14.2066
" />
<path d="M11.4794 14.2066
L12.2656 14.2066
" />
</g></g>
<g style="fill:none; 
stroke:#A90000; stroke-width:0.1524; stroke-opacity:1; 
stroke-linecap:round; stroke-linejoin:round;">
<text x="4.5212" y="13.3731"
textLength="1.4127" font-size="1.6933" lengthAdjust="spacingAndGlyphs"
text-anchor="middle" opacity="0" stroke-opacity="0">3</text>
<g class="stroked-text"><desc>3</desc>
<path d="M4.0979 11.9396
L4.8841 11.9396
" />
<path d="M4.8841 11.9396
L4.4607 12.4234
" />
<path d="M4.4607 12.4234
L4.6422 12.4234
" />
<path d="M4.6422 12.4234
L4.7631 12.4839
" />
<path d="M4.7631 12.4839
L4.8236 12.5444
" />
<path d="M4.8236 12.5444
L4.8841 12.6653
" />
<path d="M4.8841 12.6653
L4.8841 12.9677
" />
<path d="M4.8841 12.9677
L4.8236 13.0887
" />
<path d="M4.8236 13.0887
L4.7631 13.1492
" />
<path d="M4.7631 13.1492
L4.6422 13.2096
" />
<path d="M4.6422 13.2096
L4.2793 13.2096
" />
<path d="M4.2793 13.2096
L4.1584 13.1492
" />
<path d="M4.1584 13.1492
L4.0979 13.0887
" />
</g></g>
<g style="fill:none; 
stroke:#840000; stroke-width:0.1524; stroke-opacity:1; 
stroke-linecap:round; stroke-linejoin:round;">
<path d="M5.7912 16.1671
L3.2512 16.1671
" />
</g>
<g style="fill:none; 
stroke:#006464; stroke-width:0.1524; stroke-opacity:1; 
stroke-linecap:round; stroke-linejoin:round;">
<text x="6.2992" y="16.8021"
textLength="6.3113" font-size="1.6933" lengthAdjust="spacingAndGlyphs"
text-anchor="start" opacity="0" stroke-opacity="0">D3/A3</text>
<g class="stroked-text"><desc>D3/A3</desc>
<path d="M6.7017 16.7466
L6.7017 15.4766
" />
<path d="M6.7017 15.4766
L7.0041 15.4766
" />
<path d="M7.0041 15.4766
L7.1855 15.5371
" />
<path d="M7.1855 15.5371
L7.3065 15.6581
" />
<path d="M7.3065 15.6581
L7.3670 15.7790
" />
<path d="M7.3670 15.7790
L7.4274 16.0209
" />
<path d="M7.4274 16.0209
L7.4274 16.2023
" />
<path d="M7.4274 16.2023
L7.3670 16.4442
" />
<path d="M7.3670 16.4442
L7.3065 16.5652
" />
<path d="M7.3065 16.5652
L7.1855 16.6862
" />
<path d="M7.1855 16.6862
L7.0041 16.7466
" />
<path d="M7.0041 16.7466
L6.7017 16.7466
" />
<path d="M7.8508 15.4766
L8.6370 15.4766
" />
<path d="M8.6370 15.4766
L8.2136 15.9604
" />
<path d="M8.2136 15.9604
L8.3951 15.9604
" />
<path d="M8.3951 15.9604
L8.5160 16.0209
" />
<path d="M8.5160 16.0209
L8.5765 16.0814
" />
<path d="M8.5765 16.0814
L8.6370 16.2023
" />
<path d="M8.6370 16.2023
L8.6370 16.5047
" />
<path d="M8.6370 16.5047
L8.5765 16.6257
" />
<path d="M8.5765 16.6257
L8.5160 16.6862
" />
<path d="M8.5160 16.6862
L8.3951 16.7466
" />
<path d="M8.3951 16.7466
L8.0322 16.7466
" />
<path d="M8.0322 16.7466
L7.9113 16.6862
" />
<path d="M7.9113 16.6862
L7.8508 16.6257
" />
<path d="M10.0884 15.4162
L8.9998 17.0490
" />
<path d="M10.4513 16.3838
L11.0560 16.3838
" />
<path d="M10.3303 16.7466
L10.7536 15.4766
" />
<path d="M10.7536 15.4766
L11.1770 16.7466
" />
<path d="M11.4794 15.4766
L12.2656 15.4766
" />
<path d="M12.2656 15.4766
L11.8422 15.9604
" />
<path d="M11.8422 15.9604
L12.0237 15.9604
" />
<path d="M12.0237 15.9604
L12.1446 16.0209
" />
<path d="M12.1446 16.0209
L12.2051 16.0814
" />
<path d="M12.2051 16.0814
L12.2656 16.2023
" />
<path d="M12.2656 16.2023
L12.2656 16.5047
" />
<path d="M12.2656 16.5047
L12.2051 16.6257
" />
<path d="M12.2051 16.6257
L12.1446 16.6862
" />
<path d="M12.1446 16.6862
L12.0237 16.7466
" />
<path d="M12.0237 16.7466
L11.6608 16.7466
" />
<path d="M11.6608 16.7466
L11.5399 16.6862
" />
<path d="M11.5399 16.6862
L11.4794 16.6257
" />
</g></g>
<g style="fill:none; 
stroke:#A90000; stroke-width:0.1524; stroke-opacity:1; 
stroke-linecap:round; stroke-linejoin:round;">
<text x="4.5212" y="15.9131"
textLength="1.4127" font-size="1.6933" lengthAdjust="spacingAndGlyphs"
text-anchor="middle" opacity="0" stroke-opacity="0">4</text>
<g class="stroked-text"><desc>4</desc>
<path d="M4.7631 14.9030
L4.7631 15.7496
" />
<path d="M4.4607 14.4192
L4.1584 15.3263
" />
<path d="M4.1584 15.3263
L4.9445 15.3263
" />
</g></g>
<g style="fill:none; 
stroke:#840000; stroke-width:0.1524; stroke-opacity:1; 
stroke-linecap:round; stroke-linejoin:round;">
<path d="M5.7912 18.7071
L3.2512 18.7071
" />
</g>
<g style="fill:none; 
stroke:#006464; stroke-width:0.1524; stroke-opacity:1; 
stroke-linecap:round; stroke-linejoin:round;">
<text x="6.2992" y="19.3421"
textLength="7.5813" font-size="1.6933" lengthAdjust="spacingAndGlyphs"
text-anchor="start" opacity="0" stroke-opacity="0">D4/SDA</text>
<g class="stroked-text"><desc>D4/SDA</desc>
<path d="M6.7017 19.2866
L6.7017 18.0166
" />
<path d="M6.7017 18.0166
L7.0041 18.0166
" />
<path d="M7.0041 18.0166
L7.1855 18.0771
" />
<path d="M7.1855 18.0771
L7.3065 18.1981
" />
<path d="M7.3065 18.1981
L7.3670 18.3190
" />
<path d="M7.3670 18.3190
L7.4274 18.5609
" />
<path d="M7.4274 18.5609
L7.4274 18.7423
" />
<path d="M7.4274 18.7423
L7.3670 18.9842
" />
<path d="M7.3670 18.9842
L7.3065 19.1052
" />
<path d="M7.3065 19.1052
L7.1855 19.2262
" />
<path d="M7.1855 19.2262
L7.0041 19.2866
" />
<path d="M7.0041 19.2866
L6.7017 19.2866
" />
<path d="M8.5160 18.4400
L8.5160 19.2866
" />
<path d="M8.2136 17.9562
L7.9113 18.8633
" />
<path d="M7.9113 18.8633
L8.6974 18.8633
" />
<path d="M10.0884 17.9562
L8.9998 19.5890
" />
<path d="M10.4513 19.2262
L10.6327 19.2866
" />
<path d="M10.6327 19.2866
L10.9351 19.2866
" />
<path d="M10.9351 19.2866
L11.0560 19.2262
" />
<path d="M11.0560 19.2262
L11.1165 19.1657
" />
<path d="M11.1165 19.1657
L11.1770 19.0447
" />
<path d="M11.1770 19.0447
L11.1770 18.9238
" />
<path d="M11.1770 18.9238
L11.1165 18.8028
" />
<path d="M11.1165 18.8028
L11.0560 18.7423
" />
<path d="M11.0560 18.7423
L10.9351 18.6819
" />
<path d="M10.9351 18.6819
L10.6932 18.6214
" />
<path d="M10.6932 18.6214
L10.5722 18.5609
" />
<path d="M10.5722 18.5609
L10.5117 18.5004
" />
<path d="M10.5117 18.5004
L10.4513 18.3795
" />
<path d="M10.4513 18.3795
L10.4513 18.2585
" />
<path d="M10.4513 18.2585
L10.5117 18.1376
" />
<path d="M10.5117 18.1376
L10.5722 18.0771
" />
<path d="M10.5722 18.0771
L10.6932 18.0166
" />
<path d="M10.6932 18.0166
L10.9955 18.0166
" />
<path d="M10.9955 18.0166
L11.1770 18.0771
" />
<path d="M11.7212 19.2866
L11.7212 18.0166
" />
<path d="M11.7212 18.0166
L12.0236 18.0166
" />
<path d="M12.0236 18.0166
L12.2050 18.0771
" />
<path d="M12.2050 18.0771
L12.3260 18.1981
" />
<path d="M12.3260 18.1981
L12.3865 18.3190
" />
<path d="M12.3865 18.3190
L12.4469 18.5609
" />
<path d="M12.4469 18.5609
L12.4469 18.7423
" />
<path d="M12.4469 18.7423
L12.3865 18.9842
" />
<path d="M12.3865 18.9842
L12.3260 19.1052
" />
<path d="M12.3260 19.1052
L12.2050 19.2262
" />
<path d="M12.2050 19.2262
L12.0236 19.2866
" />
<path d="M12.0236 19.2866
L11.7212 19.2866
" />
<path d="M12.9308 18.9238
L13.5355 18.9238
" />
<path d="M12.8098 19.2866
L13.2331 18.0166
" />
<path d="M13.2331 18.0166
L13.6565 19.2866
" />
</g></g>
<g style="fill:none; 
stroke:#A90000; stroke-width:0.1524; stroke-opacity:1; 
stroke-linecap:round; stroke-linejoin:round;">
<text x="4.5212" y="18.4531"
textLength="1.4127" font-size="1.6933" lengthAdjust="spacingAndGlyphs"
text-anchor="middle" opacity="0" stroke-opacity="0">5</text>
<g class="stroked-text"><desc>5</desc>
<path d="M4.8236 17.0196
L4.2188 17.0196
" />
<path d="M4.2188 17.0196
L4.1584 17.6244
" />
<path d="M4.1584 17.6244
L4.2188 17.5639
" />
<path d="M4.2188 17.5639
L4.3398 17.5034
" />
<path d="M4.3398 17.5034
L4.6422 17.5034
" />
<path d="M4.6422 17.5034
L4.7631 17.5639
" />
<path d="M4.7631 17.5639
L4.8236 17.6244
" />
<path d="M4.8236 17.6244
L4.8841 17.7453
" />
<path d="M4.8841 17.7453
L4.8841 18.0477
" />
<path d="M4.8841 18.0477
L4.8236 18.1687
" />
<path d="M4.8236 18.1687
L4.7631 18.2292
" />
<path d="M4.7631 18.2292
L4.6422 18.2896
" />
<path d="M4.6422 18.2896
L4.3398 18.2896
" />
<path d="M4.3398 18.2896
L4.2188 18.2292
" />
<path d="M4.2188 18.2292
L4.1584 18.1687
" />
</g></g>
<g style="fill:none; 
stroke:#840000; stroke-width:0.1524; stroke-opacity:1; 
stroke-linecap:round; stroke-linejoin:round;">
<path d="M5.7912 21.2471
L3.2512 21.2471
" />
</g>
<g style="fill:none; 
stroke:#006464; stroke-width:0.1524; stroke-opacity:1; 
stroke-linecap:round; stroke-linejoin:round;">
<text x="6.2992" y="21.8821"
textLength="7.5208" font-size="1.6933" lengthAdjust="spacingAndGlyphs"
text-anchor="start" opacity="0" stroke-opacity="0">D5/SCL</text>
<g class="stroked-text"><desc>D5/SCL</desc>
<path d="M6.7017 21.8266
L6.7017 20.5566
" />
<path d="M6.7017 20.5566
L7.0041 20.5566
" />
<path d="M7.0041 20.5566
L7.1855 20.6171
" />
<path d="M7.1855 20.6171
L7.3065 20.7381
" />
<path d="M7.3065 20.7381
L7.3670 20.8590
" />
<path d="M7.3670 20.8590
L7.4274 21.1009
" />
<path d="M7.4274 21.1009
L7.4274 21.2823
" />
<path d="M7.4274 21.2823
L7.3670 21.5242
" />
<path d="M7.3670 21.5242
L7.3065 21.6452
" />
<path d="M7.3065 21.6452
L7.1855 21.7662
" />
<path d="M7.1855 21.7662
L7.0041 21.8266
" />
<path d="M7.0041 21.8266
L6.7017 21.8266
" />
<path d="M8.5765 20.5566
L7.9717 20.5566
" />
<path d="M7.9717 20.5566
L7.9113 21.1614
" />
<path d="M7.9113 21.1614
L7.9717 21.1009
" />
<path d="M7.9717 21.1009
L8.0927 21.0404
" />
<path d="M8.0927 21.0404
L8.3951 21.0404
" />
<path d="M8.3951 21.0404
L8.5160 21.1009
" />
<path d="M8.5160 21.1009
L8.5765 21.1614
" />
<path d="M8.5765 21.1614
L8.6370 21.2823
" />
<path d="M8.6370 21.2823
L8.6370 21.5847
" />
<path d="M8.6370 21.5847
L8.5765 21.7057
" />
<path d="M8.5765 21.7057
L8.5160 21.7662
" />
<path d="M8.5160 21.7662
L8.3951 21.8266
" />
<path d="M8.3951 21.8266
L8.0927 21.8266
" />
<path d="M8.0927 21.8266
L7.9717 21.7662
" />
<path d="M7.9717 21.7662
L7.9113 21.7057
" />
<path d="M10.0884 20.4962
L8.9998 22.1290
" />
<path d="M10.4513 21.7662
L10.6327 21.8266
" />
<path d="M10.6327 21.8266
L10.9351 21.8266
" />
<path d="M10.9351 21.8266
L11.0560 21.7662
" />
<path d="M11.0560 21.7662
L11.1165 21.7057
" />
<path d="M11.1165 21.7057
L11.1770 21.5847
" />
<path d="M11.1770 21.5847
L11.1770 21.4638
" />
<path d="M11.1770 21.4638
L11.1165 21.3428
" />
<path d="M11.1165 21.3428
L11.0560 21.2823
" />
<path d="M11.0560 21.2823
L10.9351 21.2219
" />
<path d="M10.9351 21.2219
L10.6932 21.1614
" />
<path d="M10.6932 21.1614
L10.5722 21.1009
" />
<path d="M10.5722 21.1009
L10.5117 21.0404
" />
<path d="M10.5117 21.0404
L10.4513 20.9195
" />
<path d="M10.4513 20.9195
L10.4513 20.7985
" />
<path d="M10.4513 20.7985
L10.5117 20.6776
" />
<path d="M10.5117 20.6776
L10.5722 20.6171
" />
<path d="M10.5722 20.6171
L10.6932 20.5566
" />
<path d="M10.6932 20.5566
L10.9955 20.5566
" />
<path d="M10.9955 20.5566
L11.1770 20.6171
" />
<path d="M12.4469 21.7057
L12.3865 21.7662
" />
<path d="M12.3865 21.7662
L12.2050 21.8266
" />
<path d="M12.2050 21.8266
L12.0841 21.8266
" />
<path d="M12.0841 21.8266
L11.9027 21.7662
" />
<path d="M11.9027 21.7662
L11.7817 21.6452
" />
<path d="M11.7817 21.6452
L11.7212 21.5242
" />
<path d="M11.7212 21.5242
L11.6608 21.2823
" />
<path d="M11.6608 21.2823
L11.6608 21.1009
" />
<path d="M11.6608 21.1009
L11.7212 20.8590
" />
<path d="M11.7212 20.8590
L11.7817 20.7381
" />
<path d="M11.7817 20.7381
L11.9027 20.6171
" />
<path d="M11.9027 20.6171
L12.0841 20.5566
" />
<path d="M12.0841 20.5566
L12.2050 20.5566
" />
<path d="M12.2050 20.5566
L12.3865 20.6171
" />
<path d="M12.3865 20.6171
L12.4469 20.6776
" />
<path d="M13.5960 21.8266
L12.9912 21.8266
" />
<path d="M12.9912 21.8266
L12.9912 20.5566
" />
</g></g>
<g style="fill:none; 
stroke:#A90000; stroke-width:0.1524; stroke-opacity:1; 
stroke-linecap:round; stroke-linejoin:round;">
<text x="4.5212" y="20.9931"
textLength="1.4127" font-size="1.6933" lengthAdjust="spacingAndGlyphs"
text-anchor="middle" opacity="0" stroke-opacity="0">6</text>
<g class="stroked-text"><desc>6</desc>
<path d="M4.7631 19.5596
L4.5212 19.5596
" />
<path d="M4.5212 19.5596
L4.4003 19.6201
" />
<path d="M4.4003 19.6201
L4.3398 19.6806
" />
<path d="M4.3398 19.6806
L4.2188 19.8620
" />
<path d="M4.2188 19.8620
L4.1584 20.1039
" />
<path d="M4.1584 20.1039
L4.1584 20.5877
" />
<path d="M4.1584 20.5877
L4.2188 20.7087
" />
<path d="M4.2188 20.7087
L4.2793 20.7692
" />
<path d="M4.2793 20.7692
L4.4003 20.8296
" />
<path d="M4.4003 20.8296
L4.6422 20.8296
" />
<path d="M4.6422 20.8296
L4.7631 20.7692
" />
<path d="M4.7631 20.7692
L4.8236 20.7087
" />
<path d="M4.8236 20.7087
L4.8841 20.5877
" />
<path d="M4.8841 20.5877
L4.8841 20.2853
" />
<path d="M4.8841 20.2853
L4.8236 20.1644
" />
<path d="M4.8236 20.1644
L4.7631 20.1039
" />
<path d="M4.7631 20.1039
L4.6422 20.0434
" />
<path d="M4.6422 20.0434
L4.4003 20.0434
" />
<path d="M4.4003 20.0434
L4.2793 20.1039
" />
<path d="M4.2793 20.1039
L4.2188 20.1644
" />
<path d="M4.2188 20.1644
L4.1584 20.2853
" />
</g></g>
<g style="fill:none; 
stroke:#840000; stroke-width:0.1524; stroke-opacity:1; 
stroke-linecap:round; stroke-linejoin:round;">
<path d="M5.7912 23.7871
L3.2512 23.7871
" />
</g>
<g style="fill:none; 
stroke:#006464; stroke-width:0.1524; stroke-opacity:1; 
stroke-linecap:round; stroke-linejoin:round;">
<text x="6.2992" y="24.4221"
textLength="6.1903" font-size="1.6933" lengthAdjust="spacingAndGlyphs"
text-anchor="start" opacity="0" stroke-opacity="0">D6/TX</text>
<g class="stroked-text"><desc>D6/TX</desc>
<path d="M6.7017 24.3666
L6.7017 23.0966
" />
<path d="M6.7017 23.0966
L7.0041 23.0966
" />
<path d="M7.0041 23.0966
L7.1855 23.1571
" />
<path d="M7.1855 23.1571
L7.3065 23.2781
" />
<path d="M7.3065 23.2781
L7.3670 23.3990
" />
<path d="M7.3670 23.3990
L7.4274 23.6409
" />
<path d="M7.4274 23.6409
L7.4274 23.8223
" />
<path d="M7.4274 23.8223
L7.3670 24.0642
" />
<path d="M7.3670 24.0642
L7.3065 24.1852
" />
<path d="M7.3065 24.1852
L7.1855 24.3062
" />
<path d="M7.1855 24.3062
L7.0041 24.3666
" />
<path d="M7.0041 24.3666
L6.7017 24.3666
" />
<path d="M8.5160 23.0966
L8.2741 23.0966
" />
<path d="M8.2741 23.0966
L8.1532 23.1571
" />
<path d="M8.1532 23.1571
L8.0927 23.2176
" />
<path d="M8.0927 23.2176
L7.9717 23.3990
" />
<path d="M7.9717 23.3990
L7.9113 23.6409
" />
<path d="M7.9113 23.6409
L7.9113 24.1247
" />
<path d="M7.9113 24.1247
L7.9717 24.2457
" />
<path d="M7.9717 24.2457
L8.0322 24.3062
" />
<path d="M8.0322 24.3062
L8.1532 24.3666
" />
<path d="M8.1532 24.3666
L8.3951 24.3666
" />
<path d="M8.3951 24.3666
L8.5160 24.3062
" />
<path d="M8.5160 24.3062
L8.5765 24.2457
" />
<path d="M8.5765 24.2457
L8.6370 24.1247
" />
<path d="M8.6370 24.1247
L8.6370 23.8223
" />
<path d="M8.6370 23.8223
L8.5765 23.7014
" />
<path d="M8.5765 23.7014
L8.5160 23.6409
" />
<path d="M8.5160 23.6409
L8.3951 23.5804
" />
<path d="M8.3951 23.5804
L8.1532 23.5804
" />
<path d="M8.1532 23.5804
L8.0322 23.6409
" />
<path d="M8.0322 23.6409
L7.9717 23.7014
" />
<path d="M7.9717 23.7014
L7.9113 23.8223
" />
<path d="M10.0884 23.0362
L8.9998 24.6690
" />
<path d="M10.3303 23.0966
L11.0560 23.0966
" />
<path d="M10.6932 24.3666
L10.6932 23.0966
" />
<path d="M11.3584 23.0966
L12.2050 24.3666
" />
<path d="M12.2050 23.0966
L11.3584 24.3666
" />
</g></g>
<g style="fill:none; 
stroke:#A90000; stroke-width:0.1524; stroke-opacity:1; 
stroke-linecap:round; stroke-linejoin:round;">
<text x="4.5212" y="23.5331"
textLength="1.4127" font-size="1.6933" lengthAdjust="spacingAndGlyphs"
text-anchor="middle" opacity="0" stroke-opacity="0">7</text>
<g class="stroked-text"><desc>7</desc>
<path d="M4.0979 22.0996
L4.9445 22.0996
" />
<path d="M4.9445 22.0996
L4.4003 23.3696
" />
</g></g>
<g style="fill:none; 
stroke:#840000; stroke-width:0.1524; stroke-opacity:1; 
stroke-linecap:round; stroke-linejoin:round;">
<path d="M28.6512 8.5471
L31.1912 8.5471
" />
</g>
<g style="fill:none; 
stroke:#006464; stroke-width:0.1524; stroke-opacity:1; 
stroke-linecap:round; stroke-linejoin:round;">
<text x="28.1432" y="9.1821"
textLength="2.5013" font-size="1.6933" lengthAdjust="spacingAndGlyphs"
text-anchor="end" opacity="0" stroke-opacity="0">5V</text>
<g class="stroked-text"><desc>5V</desc>
<path d="M26.6520 7.8566
L26.0472 7.8566
" />
<path d="M26.0472 7.8566
L25.9868 8.4614
" />
<path d="M25.9868 8.4614
L26.0472 8.4009
" />
<path d="M26.0472 8.4009
L26.1682 8.3404
" />
<path d="M26.1682 8.3404
L26.4706 8.3404
" />
<path d="M26.4706 8.3404
L26.5915 8.4009
" />
<path d="M26.5915 8.4009
L26.6520 8.4614
" />
<path d="M26.6520 8.4614
L26.7125 8.5823
" />
<path d="M26.7125 8.5823
L26.7125 8.8847
" />
<path d="M26.7125 8.8847
L26.6520 9.0057
" />
<path d="M26.6520 9.0057
L26.5915 9.0662
" />
<path d="M26.5915 9.0662
L26.4706 9.1266
" />
<path d="M26.4706 9.1266
L26.1682 9.1266
" />
<path d="M26.1682 9.1266
L26.0472 9.0662
" />
<path d="M26.0472 9.0662
L25.9868 9.0057
" />
<path d="M27.0753 7.8566
L27.4986 9.1266
" />
<path d="M27.4986 9.1266
L27.9220 7.8566
" />
</g></g>
<g style="fill:none; 
stroke:#A90000; stroke-width:0.1524; stroke-opacity:1; 
stroke-linecap:round; stroke-linejoin:round;">
<text x="29.9212" y="8.2931"
textLength="2.6222" font-size="1.6933" lengthAdjust="spacingAndGlyphs"
text-anchor="middle" opacity="0" stroke-opacity="0">14</text>
<g class="stroked-text"><desc>14</desc>
<path d="M29.6793 8.1296
L28.9536 8.1296
" />
<path d="M29.3164 8.1296
L29.3164 6.8596
" />
<path d="M29.3164 6.8596
L29.1955 7.0411
" />
<path d="M29.1955 7.0411
L29.0745 7.1620
" />
<path d="M29.0745 7.1620
L28.9536 7.2225
" />
<path d="M30.7678 7.2830
L30.7678 8.1296
" />
<path d="M30.4654 6.7992
L30.1631 7.7063
" />
<path d="M30.1631 7.7063
L30.9492 7.7063
" />
</g></g>
<g style="fill:none; 
stroke:#840000; stroke-width:0.1524; stroke-opacity:1; 
stroke-linecap:round; stroke-linejoin:round;">
<path d="M28.6512 11.0871
L31.1912 11.0871
" />
</g>
<g style="fill:none; 
stroke:#006464; stroke-width:0.1524; stroke-opacity:1; 
stroke-linecap:round; stroke-linejoin:round;">
<text x="28.1432" y="11.7221"
textLength="4.0737" font-size="1.6933" lengthAdjust="spacingAndGlyphs"
text-anchor="end" opacity="0" stroke-opacity="0">GND</text>
<g class="stroked-text"><desc>GND</desc>
<path d="M25.1401 10.4571
L25.0191 10.3966
" />
<path d="M25.0191 10.3966
L24.8377 10.3966
" />
<path d="M24.8377 10.3966
L24.6563 10.4571
" />
<path d="M24.6563 10.4571
L24.5353 10.5781
" />
<path d="M24.5353 10.5781
L24.4748 10.6990
" />
<path d="M24.4748 10.6990
L24.4144 10.9409
" />
<path d="M24.4144 10.9409
L24.4144 11.1223
" />
<path d="M24.4144 11.1223
L24.4748 11.3642
" />
<path d="M24.4748 11.3642
L24.5353 11.4852
" />
<path d="M24.5353 11.4852
L24.6563 11.6062
" />
<path d="M24.6563 11.6062
L24.8377 11.6666
" />
<path d="M24.8377 11.6666
L24.9586 11.6666
" />
<path d="M24.9586 11.6666
L25.1401 11.6062
" />
<path d="M25.1401 11.6062
L25.2005 11.5457
" />
<path d="M25.2005 11.5457
L25.2005 11.1223
" />
<path d="M25.2005 11.1223
L24.9586 11.1223
" />
<path d="M25.7448 11.6666
L25.7448 10.3966
" />
<path d="M25.7448 10.3966
L26.4705 11.6666
" />
<path d="M26.4705 11.6666
L26.4705 10.3966
" />
<path d="M27.0753 11.6666
L27.0753 10.3966
" />
<path d="M27.0753 10.3966
L27.3777 10.3966
" />
<path d="M27.3777 10.3966
L27.5591 10.4571
" />
<path d="M27.5591 10.4571
L27.6801 10.5781
" />
<path d="M27.6801 10.5781
L27.7406 10.6990
" />
<path d="M27.7406 10.6990
L27.8010 10.9409
" />
<path d="M27.8010 10.9409
L27.8010 11.1223
" />
<path d="M27.8010 11.1223
L27.7406 11.3642
" />
<path d="M27.7406 11.3642
L27.6801 11.4852
" />
<path d="M27.6801 11.4852
L27.5591 11.6062
" />
<path d="M27.5591 11.6062
L27.3777 11.6666
" />
<path d="M27.3777 11.6666
L27.0753 11.6666
" />
</g></g>
<g style="fill:none; 
stroke:#A90000; stroke-width:0.1524; stroke-opacity:1; 
stroke-linecap:round; stroke-linejoin:round;">
<text x="29.9212" y="10.8331"
textLength="2.6222" font-size="1.6933" lengthAdjust="spacingAndGlyphs"
text-anchor="middle" opacity="0" stroke-opacity="0">13</text>
<g class="stroked-text"><desc>13</desc>
<path d="M29.6793 10.6696
L28.9536 10.6696
" />
<path d="M29.3164 10.6696
L29.3164 9.3996
" />
<path d="M29.3164 9.3996
L29.1955 9.5811
" />
<path d="M29.1955 9.5811
L29.0745 9.7020
" />
<path d="M29.0745 9.7020
L28.9536 9.7625
" />
<path d="M30.1026 9.3996
L30.8888 9.3996
" />
<path d="M30.8888 9.3996
L30.4654 9.8834
" />
<path d="M30.4654 9.8834
L30.6469 9.8834
" />
<path d="M30.6469 9.8834
L30.7678 9.9439
" />
<path d="M30.7678 9.9439
L30.8283 10.0044
" />
<path d="M30.8283 10.0044
L30.8888 10.1253
" />
<path d="M30.8888 10.1253
L30.8888 10.4277
" />
<path d="M30.8888 10.4277
L30.8283 10.5487
" />
<path d="M30.8283 10.5487
L30.7678 10.6092
" />
<path d="M30.7678 10.6092
L30.6469 10.6696
" />
<path d="M30.6469 10.6696
L30.2840 10.6696
" />
<path d="M30.2840 10.6696
L30.1631 10.6092
" />
<path d="M30.1631 10.6092
L30.1026 10.5487
" />
</g></g>
<g style="fill:none; 
stroke:#840000; stroke-width:0.1524; stroke-opacity:1; 
stroke-linecap:round; stroke-linejoin:round;">
<path d="M28.6512 13.6271
L31.1912 13.6271
" />
</g>
<g style="fill:none; 
stroke:#006464; stroke-width:0.1524; stroke-opacity:1; 
stroke-linecap:round; stroke-linejoin:round;">
<text x="28.1432" y="14.2621"
textLength="3.7108" font-size="1.6933" lengthAdjust="spacingAndGlyphs"
text-anchor="end" opacity="0" stroke-opacity="0">3V3</text>
<g class="stroked-text"><desc>3V3</desc>
<path d="M24.7168 12.9366
L25.5030 12.9366
" />
<path d="M25.5030 12.9366
L25.0796 13.4204
" />
<path d="M25.0796 13.4204
L25.2611 13.4204
" />
<path d="M25.2611 13.4204
L25.3820 13.4809
" />
<path d="M25.3820 13.4809
L25.4425 13.5414
" />
<path d="M25.4425 13.5414
L25.5030 13.6623
" />
<path d="M25.5030 13.6623
L25.5030 13.9647
" />
<path d="M25.5030 13.9647
L25.4425 14.0857
" />
<path d="M25.4425 14.0857
L25.3820 14.1462
" />
<path d="M25.3820 14.1462
L25.2611 14.2066
" />
<path d="M25.2611 14.2066
L24.8982 14.2066
" />
<path d="M24.8982 14.2066
L24.7773 14.1462
" />
<path d="M24.7773 14.1462
L24.7168 14.0857
" />
<path d="M25.8658 12.9366
L26.2891 14.2066
" />
<path d="M26.2891 14.2066
L26.7125 12.9366
" />
<path d="M27.0149 12.9366
L27.8011 12.9366
" />
<path d="M27.8011 12.9366
L27.3777 13.4204
" />
<path d="M27.3777 13.4204
L27.5592 13.4204
" />
<path d="M27.5592 13.4204
L27.6801 13.4809
" />
<path d="M27.6801 13.4809
L27.7406 13.5414
" />
<path d="M27.7406 13.5414
L27.8011 13.6623
" />
<path d="M27.8011 13.6623
L27.8011 13.9647
" />
<path d="M27.8011 13.9647
L27.7406 14.0857
" />
<path d="M27.7406 14.0857
L27.6801 14.1462
" />
<path d="M27.6801 14.1462
L27.5592 14.2066
" />
<path d="M27.5592 14.2066
L27.1963 14.2066
" />
<path d="M27.1963 14.2066
L27.0754 14.1462
" />
<path d="M27.0754 14.1462
L27.0149 14.0857
" />
</g></g>
<g style="fill:none; 
stroke:#A90000; stroke-width:0.1524; stroke-opacity:1; 
stroke-linecap:round; stroke-linejoin:round;">
<text x="29.9212" y="13.3731"
textLength="2.6222" font-size="1.6933" lengthAdjust="spacingAndGlyphs"
text-anchor="middle" opacity="0" stroke-opacity="0">12</text>
<g class="stroked-text"><desc>12</desc>
<path d="M29.6793 13.2096
L28.9536 13.2096
" />
<path d="M29.3164 13.2096
L29.3164 11.9396
" />
<path d="M29.3164 11.9396
L29.1955 12.1211
" />
<path d="M29.1955 12.1211
L29.0745 12.2420
" />
<path d="M29.0745 12.2420
L28.9536 12.3025
" />
<path d="M30.1631 12.0606
L30.2235 12.0001
" />
<path d="M30.2235 12.0001
L30.3445 11.9396
" />
<path d="M30.3445 11.9396
L30.6469 11.9396
" />
<path d="M30.6469 11.9396
L30.7678 12.0001
" />
<path d="M30.7678 12.0001
L30.8283 12.0606
" />
<path d="M30.8283 12.0606
L30.8888 12.1815
" />
<path d="M30.8888 12.1815
L30.8888 12.3025
" />
<path d="M30.8888 12.3025
L30.8283 12.4839
" />
<path d="M30.8283 12.4839
L30.1026 13.2096
" />
<path d="M30.1026 13.2096
L30.8888 13.2096
" />
</g></g>
<g style="fill:none; 
stroke:#840000; stroke-width:0.1524; stroke-opacity:1; 
stroke-linecap:round; stroke-linejoin:round;">
<path d="M28.6512 16.1671
L31.1912 16.1671
" />
</g>
<g style="fill:none; 
stroke:#006464; stroke-width:0.1524; stroke-opacity:1; 
stroke-linecap:round; stroke-linejoin:round;">
<text x="28.1432" y="16.8021"
textLength="9.8189" font-size="1.6933" lengthAdjust="spacingAndGlyphs"
text-anchor="end" opacity="0" stroke-opacity="0">MOSI/D10</text>
<g class="stroked-text"><desc>MOSI/D10</desc>
<path d="M18.7296 16.7466
L18.7296 15.4766
" />
<path d="M18.7296 15.4766
L19.1530 16.3838
" />
<path d="M19.1530 16.3838
L19.5763 15.4766
" />
<path d="M19.5763 15.4766
L19.5763 16.7466
" />
<path d="M20.4229 15.4766
L20.6648 15.4766
" />
<path d="M20.6648 15.4766
L20.7858 15.5371
" />
<path d="M20.7858 15.5371
L20.9067 15.6581
" />
<path d="M20.9067 15.6581
L20.9672 15.9000
" />
<path d="M20.9672 15.9000
L20.9672 16.3233
" />
<path d="M20.9672 16.3233
L20.9067 16.5652
" />
<path d="M20.9067 16.5652
L20.7858 16.6862
" />
<path d="M20.7858 16.6862
L20.6648 16.7466
" />
<path d="M20.6648 16.7466
L20.4229 16.7466
" />
<path d="M20.4229 16.7466
L20.3020 16.6862
" />
<path d="M20.3020 16.6862
L20.1810 16.5652
" />
<path d="M20.1810 16.5652
L20.1206 16.3233
" />
<path d="M20.1206 16.3233
L20.1206 15.9000
" />
<path d="M20.1206 15.9000
L20.1810 15.6581
" />
<path d="M20.1810 15.6581
L20.3020 15.5371
" />
<path d="M20.3020 15.5371
L20.4229 15.4766
" />
<path d="M21.4511 16.6862
L21.6325 16.7466
" />
<path d="M21.6325 16.7466
L21.9349 16.7466
" />
<path d="M21.9349 16.7466
L22.0558 16.6862
" />
<path d="M22.0558 16.6862
L22.1163 16.6257
" />
<path d="M22.1163 16.6257
L22.1768 16.5047
" />
<path d="M22.1768 16.5047
L22.1768 16.3838
" />
<path d="M22.1768 16.3838
L22.1163 16.2628
" />
<path d="M22.1163 16.2628
L22.0558 16.2023
" />
<path d="M22.0558 16.2023
L21.9349 16.1419
" />
<path d="M21.9349 16.1419
L21.6930 16.0814
" />
<path d="M21.6930 16.0814
L21.5720 16.0209
" />
<path d="M21.5720 16.0209
L21.5115 15.9604
" />
<path d="M21.5115 15.9604
L21.4511 15.8395
" />
<path d="M21.4511 15.8395
L21.4511 15.7185
" />
<path d="M21.4511 15.7185
L21.5115 15.5976
" />
<path d="M21.5115 15.5976
L21.5720 15.5371
" />
<path d="M21.5720 15.5371
L21.6930 15.4766
" />
<path d="M21.6930 15.4766
L21.9953 15.4766
" />
<path d="M21.9953 15.4766
L22.1768 15.5371
" />
<path d="M22.7210 16.7466
L22.7210 15.4766
" />
<path d="M24.2330 15.4162
L23.1444 17.0490
" />
<path d="M24.6563 16.7466
L24.6563 15.4766
" />
<path d="M24.6563 15.4766
L24.9587 15.4766
" />
<path d="M24.9587 15.4766
L25.1401 15.5371
" />
<path d="M25.1401 15.5371
L25.2611 15.6581
" />
<path d="M25.2611 15.6581
L25.3216 15.7790
" />
<path d="M25.3216 15.7790
L25.3820 16.0209
" />
<path d="M25.3820 16.0209
L25.3820 16.2023
" />
<path d="M25.3820 16.2023
L25.3216 16.4442
" />
<path d="M25.3216 16.4442
L25.2611 16.5652
" />
<path d="M25.2611 16.5652
L25.1401 16.6862
" />
<path d="M25.1401 16.6862
L24.9587 16.7466
" />
<path d="M24.9587 16.7466
L24.6563 16.7466
" />
<path d="M26.5916 16.7466
L25.8659 16.7466
" />
<path d="M26.2287 16.7466
L26.2287 15.4766
" />
<path d="M26.2287 15.4766
L26.1078 15.6581
" />
<path d="M26.1078 15.6581
L25.9868 15.7790
" />
<path d="M25.9868 15.7790
L25.8659 15.8395
" />
<path d="M27.3777 15.4766
L27.4987 15.4766
" />
<path d="M27.4987 15.4766
L27.6196 15.5371
" />
<path d="M27.6196 15.5371
L27.6801 15.5976
" />
<path d="M27.6801 15.5976
L27.7406 15.7185
" />
<path d="M27.7406 15.7185
L27.8011 15.9604
" />
<path d="M27.8011 15.9604
L27.8011 16.2628
" />
<path d="M27.8011 16.2628
L27.7406 16.5047
" />
<path d="M27.7406 16.5047
L27.6801 16.6257
" />
<path d="M27.6801 16.6257
L27.6196 16.6862
" />
<path d="M27.6196 16.6862
L27.4987 16.7466
" />
<path d="M27.4987 16.7466
L27.3777 16.7466
" />
<path d="M27.3777 16.7466
L27.2568 16.6862
" />
<path d="M27.2568 16.6862
L27.1963 16.6257
" />
<path d="M27.1963 16.6257
L27.1358 16.5047
" />
<path d="M27.1358 16.5047
L27.0754 16.2628
" />
<path d="M27.0754 16.2628
L27.0754 15.9604
" />
<path d="M27.0754 15.9604
L27.1358 15.7185
" />
<path d="M27.1358 15.7185
L27.1963 15.5976
" />
<path d="M27.1963 15.5976
L27.2568 15.5371
" />
<path d="M27.2568 15.5371
L27.3777 15.4766
" />
</g></g>
<g style="fill:none; 
stroke:#A90000; stroke-width:0.1524; stroke-opacity:1; 
stroke-linecap:round; stroke-linejoin:round;">
<text x="29.9212" y="15.9131"
textLength="2.6222" font-size="1.6933" lengthAdjust="spacingAndGlyphs"
text-anchor="middle" opacity="0" stroke-opacity="0">11</text>
<g class="stroked-text"><desc>11</desc>
<path d="M29.6793 15.7496
L28.9536 15.7496
" />
<path d="M29.3164 15.7496
L29.3164 14.4796
" />
<path d="M29.3164 14.4796
L29.1955 14.6611
" />
<path d="M29.1955 14.6611
L29.0745 14.7820
" />
<path d="M29.0745 14.7820
L28.9536 14.8425
" />
<path d="M30.8888 15.7496
L30.1631 15.7496
" />
<path d="M30.5259 15.7496
L30.5259 14.4796
" />
<path d="M30.5259 14.4796
L30.4050 14.6611
" />
<path d="M30.4050 14.6611
L30.2840 14.7820
" />
<path d="M30.2840 14.7820
L30.1631 14.8425
" />
</g></g>
<g style="fill:none; 
stroke:#840000; stroke-width:0.1524; stroke-opacity:1; 
stroke-linecap:round; stroke-linejoin:round;">
<path d="M28.6512 18.7071
L31.1912 18.7071
" />
</g>
<g style="fill:none; 
stroke:#006464; stroke-width:0.1524; stroke-opacity:1; 
stroke-linecap:round; stroke-linejoin:round;">
<text x="28.1432" y="19.3421"
textLength="8.6094" font-size="1.6933" lengthAdjust="spacingAndGlyphs"
text-anchor="end" opacity="0" stroke-opacity="0">MISO/D9</text>
<g class="stroked-text"><desc>MISO/D9</desc>
<path d="M19.9391 19.2866
L19.9391 18.0166
" />
<path d="M19.9391 18.0166
L20.3625 18.9238
" />
<path d="M20.3625 18.9238
L20.7858 18.0166
" />
<path d="M20.7858 18.0166
L20.7858 19.2866
" />
<path d="M21.3905 19.2866
L21.3905 18.0166
" />
<path d="M21.9349 19.2262
L22.1163 19.2866
" />
<path d="M22.1163 19.2866
L22.4187 19.2866
" />
<path d="M22.4187 19.2866
L22.5396 19.2262
" />
<path d="M22.5396 19.2262
L22.6001 19.1657
" />
<path d="M22.6001 19.1657
L22.6606 19.0447
" />
<path d="M22.6606 19.0447
L22.6606 18.9238
" />
<path d="M22.6606 18.9238
L22.6001 18.8028
" />
<path d="M22.6001 18.8028
L22.5396 18.7423
" />
<path d="M22.5396 18.7423
L22.4187 18.6819
" />
<path d="M22.4187 18.6819
L22.1768 18.6214
" />
<path d="M22.1768 18.6214
L22.0558 18.5609
" />
<path d="M22.0558 18.5609
L21.9953 18.5004
" />
<path d="M21.9953 18.5004
L21.9349 18.3795
" />
<path d="M21.9349 18.3795
L21.9349 18.2585
" />
<path d="M21.9349 18.2585
L21.9953 18.1376
" />
<path d="M21.9953 18.1376
L22.0558 18.0771
" />
<path d="M22.0558 18.0771
L22.1768 18.0166
" />
<path d="M22.1768 18.0166
L22.4791 18.0166
" />
<path d="M22.4791 18.0166
L22.6606 18.0771
" />
<path d="M23.4467 18.0166
L23.6886 18.0166
" />
<path d="M23.6886 18.0166
L23.8096 18.0771
" />
<path d="M23.8096 18.0771
L23.9305 18.1981
" />
<path d="M23.9305 18.1981
L23.9910 18.4400
" />
<path d="M23.9910 18.4400
L23.9910 18.8633
" />
<path d="M23.9910 18.8633
L23.9305 19.1052
" />
<path d="M23.9305 19.1052
L23.8096 19.2262
" />
<path d="M23.8096 19.2262
L23.6886 19.2866
" />
<path d="M23.6886 19.2866
L23.4467 19.2866
" />
<path d="M23.4467 19.2866
L23.3258 19.2262
" />
<path d="M23.3258 19.2262
L23.2048 19.1052
" />
<path d="M23.2048 19.1052
L23.1444 18.8633
" />
<path d="M23.1444 18.8633
L23.1444 18.4400
" />
<path d="M23.1444 18.4400
L23.2048 18.1981
" />
<path d="M23.2048 18.1981
L23.3258 18.0771
" />
<path d="M23.3258 18.0771
L23.4467 18.0166
" />
<path d="M25.4425 17.9562
L24.3539 19.5890
" />
<path d="M25.8658 19.2866
L25.8658 18.0166
" />
<path d="M25.8658 18.0166
L26.1682 18.0166
" />
<path d="M26.1682 18.0166
L26.3496 18.0771
" />
<path d="M26.3496 18.0771
L26.4706 18.1981
" />
<path d="M26.4706 18.1981
L26.5311 18.3190
" />
<path d="M26.5311 18.3190
L26.5915 18.5609
" />
<path d="M26.5915 18.5609
L26.5915 18.7423
" />
<path d="M26.5915 18.7423
L26.5311 18.9842
" />
<path d="M26.5311 18.9842
L26.4706 19.1052
" />
<path d="M26.4706 19.1052
L26.3496 19.2262
" />
<path d="M26.3496 19.2262
L26.1682 19.2866
" />
<path d="M26.1682 19.2866
L25.8658 19.2866
" />
<path d="M27.1963 19.2866
L27.4382 19.2866
" />
<path d="M27.4382 19.2866
L27.5592 19.2262
" />
<path d="M27.5592 19.2262
L27.6196 19.1657
" />
<path d="M27.6196 19.1657
L27.7406 18.9842
" />
<path d="M27.7406 18.9842
L27.8011 18.7423
" />
<path d="M27.8011 18.7423
L27.8011 18.2585
" />
<path d="M27.8011 18.2585
L27.7406 18.1376
" />
<path d="M27.7406 18.1376
L27.6801 18.0771
" />
<path d="M27.6801 18.0771
L27.5592 18.0166
" />
<path d="M27.5592 18.0166
L27.3173 18.0166
" />
<path d="M27.3173 18.0166
L27.1963 18.0771
" />
<path d="M27.1963 18.0771
L27.1358 18.1376
" />
<path d="M27.1358 18.1376
L27.0754 18.2585
" />
<path d="M27.0754 18.2585
L27.0754 18.5609
" />
<path d="M27.0754 18.5609
L27.1358 18.6819
" />
<path d="M27.1358 18.6819
L27.1963 18.7423
" />
<path d="M27.1963 18.7423
L27.3173 18.8028
" />
<path d="M27.3173 18.8028
L27.5592 18.8028
" />
<path d="M27.5592 18.8028
L27.6801 18.7423
" />
<path d="M27.6801 18.7423
L27.7406 18.6819
" />
<path d="M27.7406 18.6819
L27.8011 18.5609
" />
</g></g>
<g style="fill:none; 
stroke:#A90000; stroke-width:0.1524; stroke-opacity:1; 
stroke-linecap:round; stroke-linejoin:round;">
<text x="29.9212" y="18.4531"
textLength="2.6222" font-size="1.6933" lengthAdjust="spacingAndGlyphs"
text-anchor="middle" opacity="0" stroke-opacity="0">10</text>
<g class="stroked-text"><desc>10</desc>
<path d="M29.6793 18.2896
L28.9536 18.2896
" />
<path d="M29.3164 18.2896
L29.3164 17.0196
" />
<path d="M29.3164 17.0196
L29.1955 17.2011
" />
<path d="M29.1955 17.2011
L29.0745 17.3220
" />
<path d="M29.0745 17.3220
L28.9536 17.3825
" />
<path d="M30.4654 17.0196
L30.5864 17.0196
" />
<path d="M30.5864 17.0196
L30.7073 17.0801
" />
<path d="M30.7073 17.0801
L30.7678 17.1406
" />
<path d="M30.7678 17.1406
L30.8283 17.2615
" />
<path d="M30.8283 17.2615
L30.8888 17.5034
" />
<path d="M30.8888 17.5034
L30.8888 17.8058
" />
<path d="M30.8888 17.8058
L30.8283 18.0477
" />
<path d="M30.8283 18.0477
L30.7678 18.1687
" />
<path d="M30.7678 18.1687
L30.7073 18.2292
" />
<path d="M30.7073 18.2292
L30.5864 18.2896
" />
<path d="M30.5864 18.2896
L30.4654 18.2896
" />
<path d="M30.4654 18.2896
L30.3445 18.2292
" />
<path d="M30.3445 18.2292
L30.2840 18.1687
" />
<path d="M30.2840 18.1687
L30.2235 18.0477
" />
<path d="M30.2235 18.0477
L30.1631 17.8058
" />
<path d="M30.1631 17.8058
L30.1631 17.5034
" />
<path d="M30.1631 17.5034
L30.2235 17.2615
" />
<path d="M30.2235 17.2615
L30.2840 17.1406
" />
<path d="M30.2840 17.1406
L30.3445 17.0801
" />
<path d="M30.3445 17.0801
L30.4654 17.0196
" />
</g></g>
<g style="fill:none; 
stroke:#840000; stroke-width:0.1524; stroke-opacity:1; 
stroke-linecap:round; stroke-linejoin:round;">
<path d="M28.6512 21.2471
L31.1912 21.2471
" />
</g>
<g style="fill:none; 
stroke:#006464; stroke-width:0.1524; stroke-opacity:1; 
stroke-linecap:round; stroke-linejoin:round;">
<text x="28.1432" y="21.8821"
textLength="7.7627" font-size="1.6933" lengthAdjust="spacingAndGlyphs"
text-anchor="end" opacity="0" stroke-opacity="0">SCK/D8</text>
<g class="stroked-text"><desc>SCK/D8</desc>
<path d="M20.7254 21.7662
L20.9068 21.8266
" />
<path d="M20.9068 21.8266
L21.2092 21.8266
" />
<path d="M21.2092 21.8266
L21.3301 21.7662
" />
<path d="M21.3301 21.7662
L21.3906 21.7057
" />
<path d="M21.3906 21.7057
L21.4511 21.5847
" />
<path d="M21.4511 21.5847
L21.4511 21.4638
" />
<path d="M21.4511 21.4638
L21.3906 21.3428
" />
<path d="M21.3906 21.3428
L21.3301 21.2823
" />
<path d="M21.3301 21.2823
L21.2092 21.2219
" />
<path d="M21.2092 21.2219
L20.9673 21.1614
" />
<path d="M20.9673 21.1614
L20.8463 21.1009
" />
<path d="M20.8463 21.1009
L20.7858 21.0404
" />
<path d="M20.7858 21.0404
L20.7254 20.9195
" />
<path d="M20.7254 20.9195
L20.7254 20.7985
" />
<path d="M20.7254 20.7985
L20.7858 20.6776
" />
<path d="M20.7858 20.6776
L20.8463 20.6171
" />
<path d="M20.8463 20.6171
L20.9673 20.5566
" />
<path d="M20.9673 20.5566
L21.2696 20.5566
" />
<path d="M21.2696 20.5566
L21.4511 20.6171
" />
<path d="M22.7210 21.7057
L22.6606 21.7662
" />
<path d="M22.6606 21.7662
L22.4791 21.8266
" />
<path d="M22.4791 21.8266
L22.3582 21.8266
" />
<path d="M22.3582 21.8266
L22.1768 21.7662
" />
<path d="M22.1768 21.7662
L22.0558 21.6452
" />
<path d="M22.0558 21.6452
L21.9953 21.5242
" />
<path d="M21.9953 21.5242
L21.9349 21.2823
" />
<path d="M21.9349 21.2823
L21.9349 21.1009
" />
<path d="M21.9349 21.1009
L21.9953 20.8590
" />
<path d="M21.9953 20.8590
L22.0558 20.7381
" />
<path d="M22.0558 20.7381
L22.1768 20.6171
" />
<path d="M22.1768 20.6171
L22.3582 20.5566
" />
<path d="M22.3582 20.5566
L22.4791 20.5566
" />
<path d="M22.4791 20.5566
L22.6606 20.6171
" />
<path d="M22.6606 20.6171
L22.7210 20.6776
" />
<path d="M23.2653 21.8266
L23.2653 20.5566
" />
<path d="M23.9910 21.8266
L23.4468 21.1009
" />
<path d="M23.9910 20.5566
L23.2653 21.2823
" />
<path d="M25.4425 20.4962
L24.3539 22.1290
" />
<path d="M25.8658 21.8266
L25.8658 20.5566
" />
<path d="M25.8658 20.5566
L26.1682 20.5566
" />
<path d="M26.1682 20.5566
L26.3496 20.6171
" />
<path d="M26.3496 20.6171
L26.4706 20.7381
" />
<path d="M26.4706 20.7381
L26.5311 20.8590
" />
<path d="M26.5311 20.8590
L26.5915 21.1009
" />
<path d="M26.5915 21.1009
L26.5915 21.2823
" />
<path d="M26.5915 21.2823
L26.5311 21.5242
" />
<path d="M26.5311 21.5242
L26.4706 21.6452
" />
<path d="M26.4706 21.6452
L26.3496 21.7662
" />
<path d="M26.3496 21.7662
L26.1682 21.8266
" />
<path d="M26.1682 21.8266
L25.8658 21.8266
" />
<path d="M27.3173 21.1009
L27.1963 21.0404
" />
<path d="M27.1963 21.0404
L27.1358 20.9800
" />
<path d="M27.1358 20.9800
L27.0754 20.8590
" />
<path d="M27.0754 20.8590
L27.0754 20.7985
" />
<path d="M27.0754 20.7985
L27.1358 20.6776
" />
<path d="M27.1358 20.6776
L27.1963 20.6171
" />
<path d="M27.1963 20.6171
L27.3173 20.5566
" />
<path d="M27.3173 20.5566
L27.5592 20.5566
" />
<path d="M27.5592 20.5566
L27.6801 20.6171
" />
<path d="M27.6801 20.6171
L27.7406 20.6776
" />
<path d="M27.7406 20.6776
L27.8011 20.7985
" />
<path d="M27.8011 20.7985
L27.8011 20.8590
" />
<path d="M27.8011 20.8590
L27.7406 20.9800
" />
<path d="M27.7406 20.9800
L27.6801 21.0404
" />
<path d="M27.6801 21.0404
L27.5592 21.1009
" />
<path d="M27.5592 21.1009
L27.3173 21.1009
" />
<path d="M27.3173 21.1009
L27.1963 21.1614
" />
<path d="M27.1963 21.1614
L27.1358 21.2219
" />
<path d="M27.1358 21.2219
L27.0754 21.3428
" />
<path d="M27.0754 21.3428
L27.0754 21.5847
" />
<path d="M27.0754 21.5847
L27.1358 21.7057
" />
<path d="M27.1358 21.7057
L27.1963 21.7662
" />
<path d="M27.1963 21.7662
L27.3173 21.8266
" />
<path d="M27.3173 21.8266
L27.5592 21.8266
" />
<path d="M27.5592 21.8266
L27.6801 21.7662
" />
<path d="M27.6801 21.7662
L27.7406 21.7057
" />
<path d="M27.7406 21.7057
L27.8011 21.5847
" />
<path d="M27.8011 21.5847
L27.8011 21.3428
" />
<path d="M27.8011 21.3428
L27.7406 21.2219
" />
<path d="M27.7406 21.2219
L27.6801 21.1614
" />
<path d="M27.6801 21.1614
L27.5592 21.1009
" />
</g></g>
<g style="fill:none; 
stroke:#A90000; stroke-width:0.1524; stroke-opacity:1; 
stroke-linecap:round; stroke-linejoin:round;">
<text x="29.9212" y="20.9931"
textLength="1.4127" font-size="1.6933" lengthAdjust="spacingAndGlyphs"
text-anchor="middle" opacity="0" stroke-opacity="0">9</text>
<g class="stroked-text"><desc>9</desc>
<path d="M29.6793 20.8296
L29.9212 20.8296
" />
<path d="M29.9212 20.8296
L30.0422 20.7692
" />
<path d="M30.0422 20.7692
L30.1026 20.7087
" />
<path d="M30.1026 20.7087
L30.2236 20.5272
" />
<path d="M30.2236 20.5272
L30.2841 20.2853
" />
<path d="M30.2841 20.2853
L30.2841 19.8015
" />
<path d="M30.2841 19.8015
L30.2236 19.6806
" />
<path d="M30.2236 19.6806
L30.1631 19.6201
" />
<path d="M30.1631 19.6201
L30.0422 19.5596
" />
<path d="M30.0422 19.5596
L29.8003 19.5596
" />
<path d="M29.8003 19.5596
L29.6793 19.6201
" />
<path d="M29.6793 19.6201
L29.6188 19.6806
" />
<path d="M29.6188 19.6806
L29.5584 19.8015
" />
<path d="M29.5584 19.8015
L29.5584 20.1039
" />
<path d="M29.5584 20.1039
L29.6188 20.2249
" />
<path d="M29.6188 20.2249
L29.6793 20.2853
" />
<path d="M29.6793 20.2853
L29.8003 20.3458
" />
<path d="M29.8003 20.3458
L30.0422 20.3458
" />
<path d="M30.0422 20.3458
L30.1631 20.2853
" />
<path d="M30.1631 20.2853
L30.2236 20.2249
" />
<path d="M30.2236 20.2249
L30.2841 20.1039
" />
</g></g>
<g style="fill:none; 
stroke:#840000; stroke-width:0.1524; stroke-opacity:1; 
stroke-linecap:round; stroke-linejoin:round;">
<path d="M28.6512 23.7871
L31.1912 23.7871
" />
</g>
<g style="fill:none; 
stroke:#006464; stroke-width:0.1524; stroke-opacity:1; 
stroke-linecap:round; stroke-linejoin:round;">
<text x="28.1432" y="24.4221"
textLength="6.4927" font-size="1.6933" lengthAdjust="spacingAndGlyphs"
text-anchor="end" opacity="0" stroke-opacity="0">RX/D7</text>
<g class="stroked-text"><desc>RX/D7</desc>
<path d="M22.7815 24.3666
L22.3582 23.7619
" />
<path d="M22.0558 24.3666
L22.0558 23.0966
" />
<path d="M22.0558 23.0966
L22.5396 23.0966
" />
<path d="M22.5396 23.0966
L22.6606 23.1571
" />
<path d="M22.6606 23.1571
L22.7211 23.2176
" />
<path d="M22.7211 23.2176
L22.7815 23.3385
" />
<path d="M22.7815 23.3385
L22.7815 23.5200
" />
<path d="M22.7815 23.5200
L22.7211 23.6409
" />
<path d="M22.7211 23.6409
L22.6606 23.7014
" />
<path d="M22.6606 23.7014
L22.5396 23.7619
" />
<path d="M22.5396 23.7619
L22.0558 23.7619
" />
<path d="M23.2049 23.0966
L24.0515 24.3666
" />
<path d="M24.0515 23.0966
L23.2049 24.3666
" />
<path d="M25.4425 23.0362
L24.3539 24.6690
" />
<path d="M25.8658 24.3666
L25.8658 23.0966
" />
<path d="M25.8658 23.0966
L26.1682 23.0966
" />
<path d="M26.1682 23.0966
L26.3496 23.1571
" />
<path d="M26.3496 23.1571
L26.4706 23.2781
" />
<path d="M26.4706 23.2781
L26.5311 23.3990
" />
<path d="M26.5311 23.3990
L26.5915 23.6409
" />
<path d="M26.5915 23.6409
L26.5915 23.8223
" />
<path d="M26.5915 23.8223
L26.5311 24.0642
" />
<path d="M26.5311 24.0642
L26.4706 24.1852
" />
<path d="M26.4706 24.1852
L26.3496 24.3062
" />
<path d="M26.3496 24.3062
L26.1682 24.3666
" />
<path d="M26.1682 24.3666
L25.8658 24.3666
" />
<path d="M27.0149 23.0966
L27.8615 23.0966
" />
<path d="M27.8615 23.0966
L27.3173 24.3666
" />
</g></g>
<g style="fill:none; 
stroke:#A90000; stroke-width:0.1524; stroke-opacity:1; 
stroke-linecap:round; stroke-linejoin:round;">
<text x="29.9212" y="23.5331"
textLength="1.4127" font-size="1.6933" lengthAdjust="spacingAndGlyphs"
text-anchor="middle" opacity="0" stroke-opacity="0">8</text>
<g class="stroked-text"><desc>8</desc>
<path d="M29.8003 22.6439
L29.6793 22.5834
" />
<path d="M29.6793 22.5834
L29.6188 22.5230
" />
<path d="M29.6188 22.5230
L29.5584 22.4020
" />
<path d="M29.5584 22.4020
L29.5584 22.3415
" />
<path d="M29.5584 22.3415
L29.6188 22.2206
" />
<path d="M29.6188 22.2206
L29.6793 22.1601
" />
<path d="M29.6793 22.1601
L29.8003 22.0996
" />
<path d="M29.8003 22.0996
L30.0422 22.0996
" />
<path d="M30.0422 22.0996
L30.1631 22.1601
" />
<path d="M30.1631 22.1601
L30.2236 22.2206
" />
<path d="M30.2236 22.2206
L30.2841 22.3415
" />
<path d="M30.2841 22.3415
L30.2841 22.4020
" />
<path d="M30.2841 22.4020
L30.2236 22.5230
" />
<path d="M30.2236 22.5230
L30.1631 22.5834
" />
<path d="M30.1631 22.5834
L30.0422 22.6439
" />
<path d="M30.0422 22.6439
L29.8003 22.6439
" />
<path d="M29.8003 22.6439
L29.6793 22.7044
" />
<path d="M29.6793 22.7044
L29.6188 22.7649
" />
<path d="M29.6188 22.7649
L29.5584 22.8858
" />
<path d="M29.5584 22.8858
L29.5584 23.1277
" />
<path d="M29.5584 23.1277
L29.6188 23.2487
" />
<path d="M29.6188 23.2487
L29.6793 23.3092
" />
<path d="M29.6793 23.3092
L29.8003 23.3696
" />
<path d="M29.8003 23.3696
L30.0422 23.3696
" />
<path d="M30.0422 23.3696
L30.1631 23.3092
" />
<path d="M30.1631 23.3092
L30.2236 23.2487
" />
<path d="M30.2236 23.2487
L30.2841 23.1277
" />
<path d="M30.2841 23.1277
L30.2841 22.8858
" />
<path d="M30.2841 22.8858
L30.2236 22.7649
" />
<path d="M30.2236 22.7649
L30.1631 22.7044
" />
<path d="M30.1631 22.7044
L30.0422 22.6439
" />
</g></g>
<g style="fill:none; 
stroke:#006464; stroke-width:0.1524; stroke-opacity:1; 
stroke-linecap:round; stroke-linejoin:round;">
<text x="0.0000" y="-11.8110"
textLength="2.6223" font-size="1.6933" lengthAdjust="spacingAndGlyphs"
text-anchor="middle" opacity="0" stroke-opacity="0">U?</text>
<g class="stroked-text"><desc>U?</desc>
<path d="M-0.9071 -13.1364
L-0.9071 -12.1083
" />
<path d="M-0.9071 -12.1083
L-0.8466 -11.9873
" />
<path d="M-0.8466 -11.9873
L-0.7861 -11.9269
" />
<path d="M-0.7861 -11.9269
L-0.6652 -11.8664
" />
<path d="M-0.6652 -11.8664
L-0.4233 -11.8664
" />
<path d="M-0.4233 -11.8664
L-0.3023 -11.9269
" />
<path d="M-0.3023 -11.9269
L-0.2418 -11.9873
" />
<path d="M-0.2418 -11.9873
L-0.1814 -12.1083
" />
<path d="M-0.1814 -12.1083
L-0.1814 -13.1364
" />
<path d="M0.6048 -11.9873
L0.6652 -11.9269
" />
<path d="M0.6652 -11.9269
L0.6048 -11.8664
" />
<path d="M0.6048 -11.8664
L0.5443 -11.9269
" />
<path d="M0.5443 -11.9269
L0.6048 -11.9873
" />
<path d="M0.6048 -11.9873
L0.6048 -11.8664
" />
<path d="M0.3629 -13.0759
L0.4838 -13.1364
" />
<path d="M0.4838 -13.1364
L0.7862 -13.1364
" />
<path d="M0.7862 -13.1364
L0.9071 -13.0759
" />
<path d="M0.9071 -13.0759
L0.9676 -12.9549
" />
<path d="M0.9676 -12.9549
L0.9676 -12.8340
" />
<path d="M0.9676 -12.8340
L0.9071 -12.7130
" />
<path d="M0.9071 -12.7130
L0.8467 -12.6526
" />
<path d="M0.8467 -12.6526
L0.7257 -12.5921
" />
<path d="M0.7257 -12.5921
L0.6652 -12.5316
" />
<path d="M0.6652 -12.5316
L0.6048 -12.4107
" />
<path d="M0.6048 -12.4107
L0.6048 -12.3502
" />
</g><text x="0.0000" y="13.0810"
textLength="13.3870" font-size="1.6933" lengthAdjust="spacingAndGlyphs"
text-anchor="middle" opacity="0" stroke-opacity="0">XIAO-RP2040</text>
<g class="stroked-text"><desc>XIAO-RP2040</desc>
<path d="M-6.4104 11.7555
L-5.5638 13.0255
" />
<path d="M-5.5638 11.7555
L-6.4104 13.0255
" />
<path d="M-5.0800 13.0255
L-5.0800 11.7555
" />
<path d="M-4.5356 12.6627
L-3.9309 12.6627
" />
<path d="M-4.6566 13.0255
L-4.2333 11.7555
" />
<path d="M-4.2333 11.7555
L-3.8099 13.0255
" />
<path d="M-3.1447 11.7555
L-2.9028 11.7555
" />
<path d="M-2.9028 11.7555
L-2.7818 11.8160
" />
<path d="M-2.7818 11.8160
L-2.6609 11.9370
" />
<path d="M-2.6609 11.9370
L-2.6004 12.1789
" />
<path d="M-2.6004 12.1789
L-2.6004 12.6022
" />
<path d="M-2.6004 12.6022
L-2.6609 12.8441
" />
<path d="M-2.6609 12.8441
L-2.7818 12.9651
" />
<path d="M-2.7818 12.9651
L-2.9028 13.0255
" />
<path d="M-2.9028 13.0255
L-3.1447 13.0255
" />
<path d="M-3.1447 13.0255
L-3.2656 12.9651
" />
<path d="M-3.2656 12.9651
L-3.3866 12.8441
" />
<path d="M-3.3866 12.8441
L-3.4470 12.6022
" />
<path d="M-3.4470 12.6022
L-3.4470 12.1789
" />
<path d="M-3.4470 12.1789
L-3.3866 11.9370
" />
<path d="M-3.3866 11.9370
L-3.2656 11.8160
" />
<path d="M-3.2656 11.8160
L-3.1447 11.7555
" />
<path d="M-2.0561 12.5417
L-1.0885 12.5417
" />
<path d="M0.2419 13.0255
L-0.1813 12.4208
" />
<path d="M-0.4837 13.0255
L-0.4837 11.7555
" />
<path d="M-0.4837 11.7555
L0.0000 11.7555
" />
<path d="M0.0000 11.7555
L0.1210 11.8160
" />
<path d="M0.1210 11.8160
L0.1815 11.8765
" />
<path d="M0.1815 11.8765
L0.2419 11.9974
" />
<path d="M0.2419 11.9974
L0.2419 12.1789
" />
<path d="M0.2419 12.1789
L0.1815 12.2998
" />
<path d="M0.1815 12.2998
L0.1210 12.3603
" />
<path d="M0.1210 12.3603
L0.0000 12.4208
" />
<path d="M0.0000 12.4208
L-0.4837 12.4208
" />
<path d="M0.7862 13.0255
L0.7862 11.7555
" />
<path d="M0.7862 11.7555
L1.2700 11.7555
" />
<path d="M1.2700 11.7555
L1.3910 11.8160
" />
<path d="M1.3910 11.8160
L1.4515 11.8765
" />
<path d="M1.4515 11.8765
L1.5119 11.9974
" />
<path d="M1.5119 11.9974
L1.5119 12.1789
" />
<path d="M1.5119 12.1789
L1.4515 12.2998
" />
<path d="M1.4515 12.2998
L1.3910 12.3603
" />
<path d="M1.3910 12.3603
L1.2700 12.4208
" />
<path d="M1.2700 12.4208
L0.7862 12.4208
" />
<path d="M1.9958 11.8765
L2.0562 11.8160
" />
<path d="M2.0562 11.8160
L2.1772 11.7555
" />
<path d="M2.1772 11.7555
L2.4796 11.7555
" />
<path d="M2.4796 11.7555
L2.6005 11.8160
" />
<path d="M2.6005 11.8160
L2.6610 11.8765
" />
<path d="M2.6610 11.8765
L2.7215 11.9974
" />
<path d="M2.7215 11.9974
L2.7215 12.1184
" />
<path d="M2.7215 12.1184
L2.6610 12.2998
" />
<path d="M2.6610 12.2998
L1.9353 13.0255
" />
<path d="M1.9353 13.0255
L2.7215 13.0255
" />
<path d="M3.5076 11.7555
L3.6286 11.7555
" />
<path d="M3.6286 11.7555
L3.7495 11.8160
" />
<path d="M3.7495 11.8160
L3.8100 11.8765
" />
<path d="M3.8100 11.8765
L3.8705 11.9974
" />
<path d="M3.8705 11.9974
L3.9310 12.2393
" />
<path d="M3.9310 12.2393
L3.9310 12.5417
" />
<path d="M3.9310 12.5417
L3.8705 12.7836
" />
<path d="M3.8705 12.7836
L3.8100 12.9046
" />
<path d="M3.8100 12.9046
L3.7495 12.9651
" />
<path d="M3.7495 12.9651
L3.6286 13.0255
" />
<path d="M3.6286 13.0255
L3.5076 13.0255
" />
<path d="M3.5076 13.0255
L3.3867 12.9651
" />
<path d="M3.3867 12.9651
L3.3262 12.9046
" />
<path d="M3.3262 12.9046
L3.2657 12.7836
" />
<path d="M3.2657 12.7836
L3.2053 12.5417
" />
<path d="M3.2053 12.5417
L3.2053 12.2393
" />
<path d="M3.2053 12.2393
L3.2657 11.9974
" />
<path d="M3.2657 11.9974
L3.3262 11.8765
" />
<path d="M3.3262 11.8765
L3.3867 11.8160
" />
<path d="M3.3867 11.8160
L3.5076 11.7555
" />
<path d="M5.0195 12.1789
L5.0195 13.0255
" />
<path d="M4.7171 11.6951
L4.4148 12.6022
" />
<path d="M4.4148 12.6022
L5.2009 12.6022
" />
<path d="M5.9266 11.7555
L6.0476 11.7555
" />
<path d="M6.0476 11.7555
L6.1685 11.8160
" />
<path d="M6.1685 11.8160
L6.2290 11.8765
" />
<path d="M6.2290 11.8765
L6.2895 11.9974
" />
<path d="M6.2895 11.9974
L6.3500 12.2393
" />
<path d="M6.3500 12.2393
L6.3500 12.5417
" />
<path d="M6.3500 12.5417
L6.2895 12.7836
" />
<path d="M6.2895 12.7836
L6.2290 12.9046
" />
<path d="M6.2290 12.9046
L6.1685 12.9651
" />
<path d="M6.1685 12.9651
L6.0476 13.0255
" />
<path d="M6.0476 13.0255
L5.9266 13.0255
" />
<path d="M5.9266 13.0255
L5.8057 12.9651
" />
<path d="M5.8057 12.9651
L5.7452 12.9046
" />
<path d="M5.7452 12.9046
L5.6847 12.7836
" />
<path d="M5.6847 12.7836
L5.6243 12.5417
" />
<path d="M5.6243 12.5417
L5.6243 12.2393
" />
<path d="M5.6243 12.2393
L5.6847 11.9974
" />
<path d="M5.6847 11.9974
L5.7452 11.8765
" />
<path d="M5.7452 11.8765
L5.8057 11.8160
" />
<path d="M5.8057 11.8160
L5.9266 11.7555
" />
</g></g> 
</svg>
