<?xml version="1.0" standalone="no"?>
 <!DOCTYPE svg PUBLIC "-//W3C//DTD SVG 1.1//EN" 
 "http://www.w3.org/Graphics/SVG/1.1/DTD/svg11.dtd"> 
<svg
  xmlns:svg="http://www.w3.org/2000/svg"
  xmlns="http://www.w3.org/2000/svg"
  xmlns:xlink="http://www.w3.org/1999/xlink"
  version="1.1"
  width="34.4424mm" height="31.7246mm" viewBox="0.0000 0.0000 34.4424 31.7246">
<title>SVG Image created as XIAO-RP2040_unit1.svg date 2025/04/11 03:39:51 </title>
  <desc>Image generated by Eeschema-SVG </desc>
<g style="fill:#000000; fill-opacity:1.0000;stroke:#000000; stroke-opacity:1.0000;
stroke-linecap:round; stroke-linejoin:round;"
 transform="translate(0 0) scale(1 1)">
</g>
<g style="fill:#FFFFC2; fill-opacity:1.0000; stroke:none;">
<rect x="5.791200" y="5.702300" width="22.860000" height="20.320000" rx="0.000000" />
</g>
<g style="fill:none; 
stroke:#840000; stroke-width:0.1524; stroke-opacity:1; 
stroke-linecap:round; stroke-linejoin:round;">
<rect x="5.791200" y="5.702300" width="22.860000" height="20.320000" rx="0.000000" />
<path d="M5.7912 8.2423
L3.2512 8.2423
" />
</g>
<g style="fill:none; 
stroke:#006464; stroke-width:0.1524; stroke-opacity:1; 
stroke-linecap:round; stroke-linejoin:round;">
<text x="6.2992" y="8.8773"
textLength="6.3113" font-size="1.6933" lengthAdjust="spacingAndGlyphs"
text-anchor="start" opacity="0" stroke-opacity="0">D0/A0</text>
<g class="stroked-text"><desc>D0/A0</desc>
<path d="M6.7017 8.8218
L6.7017 7.5518
" />
<path d="M6.7017 7.5518
L7.0041 7.5518
" />
<path d="M7.0041 7.5518
L7.1855 7.6123
" />
<path d="M7.1855 7.6123
L7.3065 7.7333
" />
<path d="M7.3065 7.7333
L7.3670 7.8542
" />
<path d="M7.3670 7.8542
L7.4274 8.0961
" />
<path d="M7.4274 8.0961
L7.4274 8.2775
" />
<path d="M7.4274 8.2775
L7.3670 8.5194
" />
<path d="M7.3670 8.5194
L7.3065 8.6404
" />
<path d="M7.3065 8.6404
L7.1855 8.7614
" />
<path d="M7.1855 8.7614
L7.0041 8.8218
" />
<path d="M7.0041 8.8218
L6.7017 8.8218
" />
<path d="M8.2136 7.5518
L8.3346 7.5518
" />
<path d="M8.3346 7.5518
L8.4555 7.6123
" />
<path d="M8.4555 7.6123
L8.5160 7.6728
" />
<path d="M8.5160 7.6728
L8.5765 7.7937
" />
<path d="M8.5765 7.7937
L8.6370 8.0356
" />
<path d="M8.6370 8.0356
L8.6370 8.3380
" />
<path d="M8.6370 8.3380
L8.5765 8.5799
" />
<path d="M8.5765 8.5799
L8.5160 8.7009
" />
<path d="M8.5160 8.7009
L8.4555 8.7614
" />
<path d="M8.4555 8.7614
L8.3346 8.8218
" />
<path d="M8.3346 8.8218
L8.2136 8.8218
" />
<path d="M8.2136 8.8218
L8.0927 8.7614
" />
<path d="M8.0927 8.7614
L8.0322 8.7009
" />
<path d="M8.0322 8.7009
L7.9717 8.5799
" />
<path d="M7.9717 8.5799
L7.9113 8.3380
" />
<path d="M7.9113 8.3380
L7.9113 8.0356
" />
<path d="M7.9113 8.0356
L7.9717 7.7937
" />
<path d="M7.9717 7.7937
L8.0322 7.6728
" />
<path d="M8.0322 7.6728
L8.0927 7.6123
" />
<path d="M8.0927 7.6123
L8.2136 7.5518
" />
<path d="M10.0884 7.4914
L8.9998 9.1242
" />
<path d="M10.4513 8.4590
L11.0560 8.4590
" />
<path d="M10.3303 8.8218
L10.7536 7.5518
" />
<path d="M10.7536 7.5518
L11.1770 8.8218
" />
<path d="M11.8422 7.5518
L11.9632 7.5518
" />
<path d="M11.9632 7.5518
L12.0841 7.6123
" />
<path d="M12.0841 7.6123
L12.1446 7.6728
" />
<path d="M12.1446 7.6728
L12.2051 7.7937
" />
<path d="M12.2051 7.7937
L12.2656 8.0356
" />
<path d="M12.2656 8.0356
L12.2656 8.3380
" />
<path d="M12.2656 8.3380
L12.2051 8.5799
" />
<path d="M12.2051 8.5799
L12.1446 8.7009
" />
<path d="M12.1446 8.7009
L12.0841 8.7614
" />
<path d="M12.0841 8.7614
L11.9632 8.8218
" />
<path d="M11.9632 8.8218
L11.8422 8.8218
" />
<path d="M11.8422 8.8218
L11.7213 8.7614
" />
<path d="M11.7213 8.7614
L11.6608 8.7009
" />
<path d="M11.6608 8.7009
L11.6003 8.5799
" />
<path d="M11.6003 8.5799
L11.5399 8.3380
" />
<path d="M11.5399 8.3380
L11.5399 8.0356
" />
<path d="M11.5399 8.0356
L11.6003 7.7937
" />
<path d="M11.6003 7.7937
L11.6608 7.6728
" />
<path d="M11.6608 7.6728
L11.7213 7.6123
" />
<path d="M11.7213 7.6123
L11.8422 7.5518
" />
</g></g>
<g style="fill:none; 
stroke:#A90000; stroke-width:0.1524; stroke-opacity:1; 
stroke-linecap:round; stroke-linejoin:round;">
<text x="4.5212" y="7.9883"
textLength="1.4127" font-size="1.6933" lengthAdjust="spacingAndGlyphs"
text-anchor="middle" opacity="0" stroke-opacity="0">1</text>
<g class="stroked-text"><desc>1</desc>
<path d="M4.8841 7.8248
L4.1584 7.8248
" />
<path d="M4.5212 7.8248
L4.5212 6.5548
" />
<path d="M4.5212 6.5548
L4.4003 6.7363
" />
<path d="M4.4003 6.7363
L4.2793 6.8572
" />
<path d="M4.2793 6.8572
L4.1584 6.9177
" />
</g></g>
<g style="fill:none; 
stroke:#840000; stroke-width:0.1524; stroke-opacity:1; 
stroke-linecap:round; stroke-linejoin:round;">
<path d="M5.7912 10.7823
L3.2512 10.7823
" />
</g>
<g style="fill:none; 
stroke:#006464; stroke-width:0.1524; stroke-opacity:1; 
stroke-linecap:round; stroke-linejoin:round;">
<text x="6.2992" y="11.4173"
textLength="6.3113" font-size="1.6933" lengthAdjust="spacingAndGlyphs"
text-anchor="start" opacity="0" stroke-opacity="0">D1/A1</text>
<g class="stroked-text"><desc>D1/A1</desc>
<path d="M6.7017 11.3618
L6.7017 10.0918
" />
<path d="M6.7017 10.0918
L7.0041 10.0918
" />
<path d="M7.0041 10.0918
L7.1855 10.1523
" />
<path d="M7.1855 10.1523
L7.3065 10.2733
" />
<path d="M7.3065 10.2733
L7.3670 10.3942
" />
<path d="M7.3670 10.3942
L7.4274 10.6361
" />
<path d="M7.4274 10.6361
L7.4274 10.8175
" />
<path d="M7.4274 10.8175
L7.3670 11.0594
" />
<path d="M7.3670 11.0594
L7.3065 11.1804
" />
<path d="M7.3065 11.1804
L7.1855 11.3014
" />
<path d="M7.1855 11.3014
L7.0041 11.3618
" />
<path d="M7.0041 11.3618
L6.7017 11.3618
" />
<path d="M8.6370 11.3618
L7.9113 11.3618
" />
<path d="M8.2741 11.3618
L8.2741 10.0918
" />
<path d="M8.2741 10.0918
L8.1532 10.2733
" />
<path d="M8.1532 10.2733
L8.0322 10.3942
" />
<path d="M8.0322 10.3942
L7.9113 10.4547
" />
<path d="M10.0884 10.0314
L8.9998 11.6642
" />
<path d="M10.4513 10.9990
L11.0560 10.9990
" />
<path d="M10.3303 11.3618
L10.7536 10.0918
" />
<path d="M10.7536 10.0918
L11.1770 11.3618
" />
<path d="M12.2656 11.3618
L11.5399 11.3618
" />
<path d="M11.9027 11.3618
L11.9027 10.0918
" />
<path d="M11.9027 10.0918
L11.7818 10.2733
" />
<path d="M11.7818 10.2733
L11.6608 10.3942
" />
<path d="M11.6608 10.3942
L11.5399 10.4547
" />
</g></g>
<g style="fill:none; 
stroke:#A90000; stroke-width:0.1524; stroke-opacity:1; 
stroke-linecap:round; stroke-linejoin:round;">
<text x="4.5212" y="10.5283"
textLength="1.4127" font-size="1.6933" lengthAdjust="spacingAndGlyphs"
text-anchor="middle" opacity="0" stroke-opacity="0">2</text>
<g class="stroked-text"><desc>2</desc>
<path d="M4.1584 9.2158
L4.2188 9.1553
" />
<path d="M4.2188 9.1553
L4.3398 9.0948
" />
<path d="M4.3398 9.0948
L4.6422 9.0948
" />
<path d="M4.6422 9.0948
L4.7631 9.1553
" />
<path d="M4.7631 9.1553
L4.8236 9.2158
" />
<path d="M4.8236 9.2158
L4.8841 9.3367
" />
<path d="M4.8841 9.3367
L4.8841 9.4577
" />
<path d="M4.8841 9.4577
L4.8236 9.6391
" />
<path d="M4.8236 9.6391
L4.0979 10.3648
" />
<path d="M4.0979 10.3648
L4.8841 10.3648
" />
</g></g>
<g style="fill:none; 
stroke:#840000; stroke-width:0.1524; stroke-opacity:1; 
stroke-linecap:round; stroke-linejoin:round;">
<path d="M5.7912 13.3223
L3.2512 13.3223
" />
</g>
<g style="fill:none; 
stroke:#006464; stroke-width:0.1524; stroke-opacity:1; 
stroke-linecap:round; stroke-linejoin:round;">
<text x="6.2992" y="13.9573"
textLength="6.3113" font-size="1.6933" lengthAdjust="spacingAndGlyphs"
text-anchor="start" opacity="0" stroke-opacity="0">D2/A2</text>
<g class="stroked-text"><desc>D2/A2</desc>
<path d="M6.7017 13.9018
L6.7017 12.6318
" />
<path d="M6.7017 12.6318
L7.0041 12.6318
" />
<path d="M7.0041 12.6318
L7.1855 12.6923
" />
<path d="M7.1855 12.6923
L7.3065 12.8133
" />
<path d="M7.3065 12.8133
L7.3670 12.9342
" />
<path d="M7.3670 12.9342
L7.4274 13.1761
" />
<path d="M7.4274 13.1761
L7.4274 13.3575
" />
<path d="M7.4274 13.3575
L7.3670 13.5994
" />
<path d="M7.3670 13.5994
L7.3065 13.7204
" />
<path d="M7.3065 13.7204
L7.1855 13.8414
" />
<path d="M7.1855 13.8414
L7.0041 13.9018
" />
<path d="M7.0041 13.9018
L6.7017 13.9018
" />
<path d="M7.9113 12.7528
L7.9717 12.6923
" />
<path d="M7.9717 12.6923
L8.0927 12.6318
" />
<path d="M8.0927 12.6318
L8.3951 12.6318
" />
<path d="M8.3951 12.6318
L8.5160 12.6923
" />
<path d="M8.5160 12.6923
L8.5765 12.7528
" />
<path d="M8.5765 12.7528
L8.6370 12.8737
" />
<path d="M8.6370 12.8737
L8.6370 12.9947
" />
<path d="M8.6370 12.9947
L8.5765 13.1761
" />
<path d="M8.5765 13.1761
L7.8508 13.9018
" />
<path d="M7.8508 13.9018
L8.6370 13.9018
" />
<path d="M10.0884 12.5714
L8.9998 14.2042
" />
<path d="M10.4513 13.5390
L11.0560 13.5390
" />
<path d="M10.3303 13.9018
L10.7536 12.6318
" />
<path d="M10.7536 12.6318
L11.1770 13.9018
" />
<path d="M11.5399 12.7528
L11.6003 12.6923
" />
<path d="M11.6003 12.6923
L11.7213 12.6318
" />
<path d="M11.7213 12.6318
L12.0237 12.6318
" />
<path d="M12.0237 12.6318
L12.1446 12.6923
" />
<path d="M12.1446 12.6923
L12.2051 12.7528
" />
<path d="M12.2051 12.7528
L12.2656 12.8737
" />
<path d="M12.2656 12.8737
L12.2656 12.9947
" />
<path d="M12.2656 12.9947
L12.2051 13.1761
" />
<path d="M12.2051 13.1761
L11.4794 13.9018
" />
<path d="M11.4794 13.9018
L12.2656 13.9018
" />
</g></g>
<g style="fill:none; 
stroke:#A90000; stroke-width:0.1524; stroke-opacity:1; 
stroke-linecap:round; stroke-linejoin:round;">
<text x="4.5212" y="13.0683"
textLength="1.4127" font-size="1.6933" lengthAdjust="spacingAndGlyphs"
text-anchor="middle" opacity="0" stroke-opacity="0">3</text>
<g class="stroked-text"><desc>3</desc>
<path d="M4.0979 11.6348
L4.8841 11.6348
" />
<path d="M4.8841 11.6348
L4.4607 12.1186
" />
<path d="M4.4607 12.1186
L4.6422 12.1186
" />
<path d="M4.6422 12.1186
L4.7631 12.1791
" />
<path d="M4.7631 12.1791
L4.8236 12.2396
" />
<path d="M4.8236 12.2396
L4.8841 12.3605
" />
<path d="M4.8841 12.3605
L4.8841 12.6629
" />
<path d="M4.8841 12.6629
L4.8236 12.7839
" />
<path d="M4.8236 12.7839
L4.7631 12.8444
" />
<path d="M4.7631 12.8444
L4.6422 12.9048
" />
<path d="M4.6422 12.9048
L4.2793 12.9048
" />
<path d="M4.2793 12.9048
L4.1584 12.8444
" />
<path d="M4.1584 12.8444
L4.0979 12.7839
" />
</g></g>
<g style="fill:none; 
stroke:#840000; stroke-width:0.1524; stroke-opacity:1; 
stroke-linecap:round; stroke-linejoin:round;">
<path d="M5.7912 15.8623
L3.2512 15.8623
" />
</g>
<g style="fill:none; 
stroke:#006464; stroke-width:0.1524; stroke-opacity:1; 
stroke-linecap:round; stroke-linejoin:round;">
<text x="6.2992" y="16.4973"
textLength="6.3113" font-size="1.6933" lengthAdjust="spacingAndGlyphs"
text-anchor="start" opacity="0" stroke-opacity="0">D3/A3</text>
<g class="stroked-text"><desc>D3/A3</desc>
<path d="M6.7017 16.4418
L6.7017 15.1718
" />
<path d="M6.7017 15.1718
L7.0041 15.1718
" />
<path d="M7.0041 15.1718
L7.1855 15.2323
" />
<path d="M7.1855 15.2323
L7.3065 15.3533
" />
<path d="M7.3065 15.3533
L7.3670 15.4742
" />
<path d="M7.3670 15.4742
L7.4274 15.7161
" />
<path d="M7.4274 15.7161
L7.4274 15.8975
" />
<path d="M7.4274 15.8975
L7.3670 16.1394
" />
<path d="M7.3670 16.1394
L7.3065 16.2604
" />
<path d="M7.3065 16.2604
L7.1855 16.3814
" />
<path d="M7.1855 16.3814
L7.0041 16.4418
" />
<path d="M7.0041 16.4418
L6.7017 16.4418
" />
<path d="M7.8508 15.1718
L8.6370 15.1718
" />
<path d="M8.6370 15.1718
L8.2136 15.6556
" />
<path d="M8.2136 15.6556
L8.3951 15.6556
" />
<path d="M8.3951 15.6556
L8.5160 15.7161
" />
<path d="M8.5160 15.7161
L8.5765 15.7766
" />
<path d="M8.5765 15.7766
L8.6370 15.8975
" />
<path d="M8.6370 15.8975
L8.6370 16.1999
" />
<path d="M8.6370 16.1999
L8.5765 16.3209
" />
<path d="M8.5765 16.3209
L8.5160 16.3814
" />
<path d="M8.5160 16.3814
L8.3951 16.4418
" />
<path d="M8.3951 16.4418
L8.0322 16.4418
" />
<path d="M8.0322 16.4418
L7.9113 16.3814
" />
<path d="M7.9113 16.3814
L7.8508 16.3209
" />
<path d="M10.0884 15.1114
L8.9998 16.7442
" />
<path d="M10.4513 16.0790
L11.0560 16.0790
" />
<path d="M10.3303 16.4418
L10.7536 15.1718
" />
<path d="M10.7536 15.1718
L11.1770 16.4418
" />
<path d="M11.4794 15.1718
L12.2656 15.1718
" />
<path d="M12.2656 15.1718
L11.8422 15.6556
" />
<path d="M11.8422 15.6556
L12.0237 15.6556
" />
<path d="M12.0237 15.6556
L12.1446 15.7161
" />
<path d="M12.1446 15.7161
L12.2051 15.7766
" />
<path d="M12.2051 15.7766
L12.2656 15.8975
" />
<path d="M12.2656 15.8975
L12.2656 16.1999
" />
<path d="M12.2656 16.1999
L12.2051 16.3209
" />
<path d="M12.2051 16.3209
L12.1446 16.3814
" />
<path d="M12.1446 16.3814
L12.0237 16.4418
" />
<path d="M12.0237 16.4418
L11.6608 16.4418
" />
<path d="M11.6608 16.4418
L11.5399 16.3814
" />
<path d="M11.5399 16.3814
L11.4794 16.3209
" />
</g></g>
<g style="fill:none; 
stroke:#A90000; stroke-width:0.1524; stroke-opacity:1; 
stroke-linecap:round; stroke-linejoin:round;">
<text x="4.5212" y="15.6083"
textLength="1.4127" font-size="1.6933" lengthAdjust="spacingAndGlyphs"
text-anchor="middle" opacity="0" stroke-opacity="0">4</text>
<g class="stroked-text"><desc>4</desc>
<path d="M4.7631 14.5982
L4.7631 15.4448
" />
<path d="M4.4607 14.1144
L4.1584 15.0215
" />
<path d="M4.1584 15.0215
L4.9445 15.0215
" />
</g></g>
<g style="fill:none; 
stroke:#840000; stroke-width:0.1524; stroke-opacity:1; 
stroke-linecap:round; stroke-linejoin:round;">
<path d="M5.7912 18.4023
L3.2512 18.4023
" />
</g>
<g style="fill:none; 
stroke:#006464; stroke-width:0.1524; stroke-opacity:1; 
stroke-linecap:round; stroke-linejoin:round;">
<text x="6.2992" y="19.0373"
textLength="7.5813" font-size="1.6933" lengthAdjust="spacingAndGlyphs"
text-anchor="start" opacity="0" stroke-opacity="0">D4/SDA</text>
<g class="stroked-text"><desc>D4/SDA</desc>
<path d="M6.7017 18.9818
L6.7017 17.7118
" />
<path d="M6.7017 17.7118
L7.0041 17.7118
" />
<path d="M7.0041 17.7118
L7.1855 17.7723
" />
<path d="M7.1855 17.7723
L7.3065 17.8933
" />
<path d="M7.3065 17.8933
L7.3670 18.0142
" />
<path d="M7.3670 18.0142
L7.4274 18.2561
" />
<path d="M7.4274 18.2561
L7.4274 18.4375
" />
<path d="M7.4274 18.4375
L7.3670 18.6794
" />
<path d="M7.3670 18.6794
L7.3065 18.8004
" />
<path d="M7.3065 18.8004
L7.1855 18.9214
" />
<path d="M7.1855 18.9214
L7.0041 18.9818
" />
<path d="M7.0041 18.9818
L6.7017 18.9818
" />
<path d="M8.5160 18.1352
L8.5160 18.9818
" />
<path d="M8.2136 17.6514
L7.9113 18.5585
" />
<path d="M7.9113 18.5585
L8.6974 18.5585
" />
<path d="M10.0884 17.6514
L8.9998 19.2842
" />
<path d="M10.4513 18.9214
L10.6327 18.9818
" />
<path d="M10.6327 18.9818
L10.9351 18.9818
" />
<path d="M10.9351 18.9818
L11.0560 18.9214
" />
<path d="M11.0560 18.9214
L11.1165 18.8609
" />
<path d="M11.1165 18.8609
L11.1770 18.7399
" />
<path d="M11.1770 18.7399
L11.1770 18.6190
" />
<path d="M11.1770 18.6190
L11.1165 18.4980
" />
<path d="M11.1165 18.4980
L11.0560 18.4375
" />
<path d="M11.0560 18.4375
L10.9351 18.3771
" />
<path d="M10.9351 18.3771
L10.6932 18.3166
" />
<path d="M10.6932 18.3166
L10.5722 18.2561
" />
<path d="M10.5722 18.2561
L10.5117 18.1956
" />
<path d="M10.5117 18.1956
L10.4513 18.0747
" />
<path d="M10.4513 18.0747
L10.4513 17.9537
" />
<path d="M10.4513 17.9537
L10.5117 17.8328
" />
<path d="M10.5117 17.8328
L10.5722 17.7723
" />
<path d="M10.5722 17.7723
L10.6932 17.7118
" />
<path d="M10.6932 17.7118
L10.9955 17.7118
" />
<path d="M10.9955 17.7118
L11.1770 17.7723
" />
<path d="M11.7212 18.9818
L11.7212 17.7118
" />
<path d="M11.7212 17.7118
L12.0236 17.7118
" />
<path d="M12.0236 17.7118
L12.2050 17.7723
" />
<path d="M12.2050 17.7723
L12.3260 17.8933
" />
<path d="M12.3260 17.8933
L12.3865 18.0142
" />
<path d="M12.3865 18.0142
L12.4469 18.2561
" />
<path d="M12.4469 18.2561
L12.4469 18.4375
" />
<path d="M12.4469 18.4375
L12.3865 18.6794
" />
<path d="M12.3865 18.6794
L12.3260 18.8004
" />
<path d="M12.3260 18.8004
L12.2050 18.9214
" />
<path d="M12.2050 18.9214
L12.0236 18.9818
" />
<path d="M12.0236 18.9818
L11.7212 18.9818
" />
<path d="M12.9308 18.6190
L13.5355 18.6190
" />
<path d="M12.8098 18.9818
L13.2331 17.7118
" />
<path d="M13.2331 17.7118
L13.6565 18.9818
" />
</g></g>
<g style="fill:none; 
stroke:#A90000; stroke-width:0.1524; stroke-opacity:1; 
stroke-linecap:round; stroke-linejoin:round;">
<text x="4.5212" y="18.1483"
textLength="1.4127" font-size="1.6933" lengthAdjust="spacingAndGlyphs"
text-anchor="middle" opacity="0" stroke-opacity="0">5</text>
<g class="stroked-text"><desc>5</desc>
<path d="M4.8236 16.7148
L4.2188 16.7148
" />
<path d="M4.2188 16.7148
L4.1584 17.3196
" />
<path d="M4.1584 17.3196
L4.2188 17.2591
" />
<path d="M4.2188 17.2591
L4.3398 17.1986
" />
<path d="M4.3398 17.1986
L4.6422 17.1986
" />
<path d="M4.6422 17.1986
L4.7631 17.2591
" />
<path d="M4.7631 17.2591
L4.8236 17.3196
" />
<path d="M4.8236 17.3196
L4.8841 17.4405
" />
<path d="M4.8841 17.4405
L4.8841 17.7429
" />
<path d="M4.8841 17.7429
L4.8236 17.8639
" />
<path d="M4.8236 17.8639
L4.7631 17.9244
" />
<path d="M4.7631 17.9244
L4.6422 17.9848
" />
<path d="M4.6422 17.9848
L4.3398 17.9848
" />
<path d="M4.3398 17.9848
L4.2188 17.9244
" />
<path d="M4.2188 17.9244
L4.1584 17.8639
" />
</g></g>
<g style="fill:none; 
stroke:#840000; stroke-width:0.1524; stroke-opacity:1; 
stroke-linecap:round; stroke-linejoin:round;">
<path d="M5.7912 20.9423
L3.2512 20.9423
" />
</g>
<g style="fill:none; 
stroke:#006464; stroke-width:0.1524; stroke-opacity:1; 
stroke-linecap:round; stroke-linejoin:round;">
<text x="6.2992" y="21.5773"
textLength="7.5208" font-size="1.6933" lengthAdjust="spacingAndGlyphs"
text-anchor="start" opacity="0" stroke-opacity="0">D5/SCL</text>
<g class="stroked-text"><desc>D5/SCL</desc>
<path d="M6.7017 21.5218
L6.7017 20.2518
" />
<path d="M6.7017 20.2518
L7.0041 20.2518
" />
<path d="M7.0041 20.2518
L7.1855 20.3123
" />
<path d="M7.1855 20.3123
L7.3065 20.4333
" />
<path d="M7.3065 20.4333
L7.3670 20.5542
" />
<path d="M7.3670 20.5542
L7.4274 20.7961
" />
<path d="M7.4274 20.7961
L7.4274 20.9775
" />
<path d="M7.4274 20.9775
L7.3670 21.2194
" />
<path d="M7.3670 21.2194
L7.3065 21.3404
" />
<path d="M7.3065 21.3404
L7.1855 21.4614
" />
<path d="M7.1855 21.4614
L7.0041 21.5218
" />
<path d="M7.0041 21.5218
L6.7017 21.5218
" />
<path d="M8.5765 20.2518
L7.9717 20.2518
" />
<path d="M7.9717 20.2518
L7.9113 20.8566
" />
<path d="M7.9113 20.8566
L7.9717 20.7961
" />
<path d="M7.9717 20.7961
L8.0927 20.7356
" />
<path d="M8.0927 20.7356
L8.3951 20.7356
" />
<path d="M8.3951 20.7356
L8.5160 20.7961
" />
<path d="M8.5160 20.7961
L8.5765 20.8566
" />
<path d="M8.5765 20.8566
L8.6370 20.9775
" />
<path d="M8.6370 20.9775
L8.6370 21.2799
" />
<path d="M8.6370 21.2799
L8.5765 21.4009
" />
<path d="M8.5765 21.4009
L8.5160 21.4614
" />
<path d="M8.5160 21.4614
L8.3951 21.5218
" />
<path d="M8.3951 21.5218
L8.0927 21.5218
" />
<path d="M8.0927 21.5218
L7.9717 21.4614
" />
<path d="M7.9717 21.4614
L7.9113 21.4009
" />
<path d="M10.0884 20.1914
L8.9998 21.8242
" />
<path d="M10.4513 21.4614
L10.6327 21.5218
" />
<path d="M10.6327 21.5218
L10.9351 21.5218
" />
<path d="M10.9351 21.5218
L11.0560 21.4614
" />
<path d="M11.0560 21.4614
L11.1165 21.4009
" />
<path d="M11.1165 21.4009
L11.1770 21.2799
" />
<path d="M11.1770 21.2799
L11.1770 21.1590
" />
<path d="M11.1770 21.1590
L11.1165 21.0380
" />
<path d="M11.1165 21.0380
L11.0560 20.9775
" />
<path d="M11.0560 20.9775
L10.9351 20.9171
" />
<path d="M10.9351 20.9171
L10.6932 20.8566
" />
<path d="M10.6932 20.8566
L10.5722 20.7961
" />
<path d="M10.5722 20.7961
L10.5117 20.7356
" />
<path d="M10.5117 20.7356
L10.4513 20.6147
" />
<path d="M10.4513 20.6147
L10.4513 20.4937
" />
<path d="M10.4513 20.4937
L10.5117 20.3728
" />
<path d="M10.5117 20.3728
L10.5722 20.3123
" />
<path d="M10.5722 20.3123
L10.6932 20.2518
" />
<path d="M10.6932 20.2518
L10.9955 20.2518
" />
<path d="M10.9955 20.2518
L11.1770 20.3123
" />
<path d="M12.4469 21.4009
L12.3865 21.4614
" />
<path d="M12.3865 21.4614
L12.2050 21.5218
" />
<path d="M12.2050 21.5218
L12.0841 21.5218
" />
<path d="M12.0841 21.5218
L11.9027 21.4614
" />
<path d="M11.9027 21.4614
L11.7817 21.3404
" />
<path d="M11.7817 21.3404
L11.7212 21.2194
" />
<path d="M11.7212 21.2194
L11.6608 20.9775
" />
<path d="M11.6608 20.9775
L11.6608 20.7961
" />
<path d="M11.6608 20.7961
L11.7212 20.5542
" />
<path d="M11.7212 20.5542
L11.7817 20.4333
" />
<path d="M11.7817 20.4333
L11.9027 20.3123
" />
<path d="M11.9027 20.3123
L12.0841 20.2518
" />
<path d="M12.0841 20.2518
L12.2050 20.2518
" />
<path d="M12.2050 20.2518
L12.3865 20.3123
" />
<path d="M12.3865 20.3123
L12.4469 20.3728
" />
<path d="M13.5960 21.5218
L12.9912 21.5218
" />
<path d="M12.9912 21.5218
L12.9912 20.2518
" />
</g></g>
<g style="fill:none; 
stroke:#A90000; stroke-width:0.1524; stroke-opacity:1; 
stroke-linecap:round; stroke-linejoin:round;">
<text x="4.5212" y="20.6883"
textLength="1.4127" font-size="1.6933" lengthAdjust="spacingAndGlyphs"
text-anchor="middle" opacity="0" stroke-opacity="0">6</text>
<g class="stroked-text"><desc>6</desc>
<path d="M4.7631 19.2548
L4.5212 19.2548
" />
<path d="M4.5212 19.2548
L4.4003 19.3153
" />
<path d="M4.4003 19.3153
L4.3398 19.3758
" />
<path d="M4.3398 19.3758
L4.2188 19.5572
" />
<path d="M4.2188 19.5572
L4.1584 19.7991
" />
<path d="M4.1584 19.7991
L4.1584 20.2829
" />
<path d="M4.1584 20.2829
L4.2188 20.4039
" />
<path d="M4.2188 20.4039
L4.2793 20.4644
" />
<path d="M4.2793 20.4644
L4.4003 20.5248
" />
<path d="M4.4003 20.5248
L4.6422 20.5248
" />
<path d="M4.6422 20.5248
L4.7631 20.4644
" />
<path d="M4.7631 20.4644
L4.8236 20.4039
" />
<path d="M4.8236 20.4039
L4.8841 20.2829
" />
<path d="M4.8841 20.2829
L4.8841 19.9805
" />
<path d="M4.8841 19.9805
L4.8236 19.8596
" />
<path d="M4.8236 19.8596
L4.7631 19.7991
" />
<path d="M4.7631 19.7991
L4.6422 19.7386
" />
<path d="M4.6422 19.7386
L4.4003 19.7386
" />
<path d="M4.4003 19.7386
L4.2793 19.7991
" />
<path d="M4.2793 19.7991
L4.2188 19.8596
" />
<path d="M4.2188 19.8596
L4.1584 19.9805
" />
</g></g>
<g style="fill:none; 
stroke:#840000; stroke-width:0.1524; stroke-opacity:1; 
stroke-linecap:round; stroke-linejoin:round;">
<path d="M5.7912 23.4823
L3.2512 23.4823
" />
</g>
<g style="fill:none; 
stroke:#006464; stroke-width:0.1524; stroke-opacity:1; 
stroke-linecap:round; stroke-linejoin:round;">
<text x="6.2992" y="24.1173"
textLength="6.1903" font-size="1.6933" lengthAdjust="spacingAndGlyphs"
text-anchor="start" opacity="0" stroke-opacity="0">D6/TX</text>
<g class="stroked-text"><desc>D6/TX</desc>
<path d="M6.7017 24.0618
L6.7017 22.7918
" />
<path d="M6.7017 22.7918
L7.0041 22.7918
" />
<path d="M7.0041 22.7918
L7.1855 22.8523
" />
<path d="M7.1855 22.8523
L7.3065 22.9733
" />
<path d="M7.3065 22.9733
L7.3670 23.0942
" />
<path d="M7.3670 23.0942
L7.4274 23.3361
" />
<path d="M7.4274 23.3361
L7.4274 23.5175
" />
<path d="M7.4274 23.5175
L7.3670 23.7594
" />
<path d="M7.3670 23.7594
L7.3065 23.8804
" />
<path d="M7.3065 23.8804
L7.1855 24.0014
" />
<path d="M7.1855 24.0014
L7.0041 24.0618
" />
<path d="M7.0041 24.0618
L6.7017 24.0618
" />
<path d="M8.5160 22.7918
L8.2741 22.7918
" />
<path d="M8.2741 22.7918
L8.1532 22.8523
" />
<path d="M8.1532 22.8523
L8.0927 22.9128
" />
<path d="M8.0927 22.9128
L7.9717 23.0942
" />
<path d="M7.9717 23.0942
L7.9113 23.3361
" />
<path d="M7.9113 23.3361
L7.9113 23.8199
" />
<path d="M7.9113 23.8199
L7.9717 23.9409
" />
<path d="M7.9717 23.9409
L8.0322 24.0014
" />
<path d="M8.0322 24.0014
L8.1532 24.0618
" />
<path d="M8.1532 24.0618
L8.3951 24.0618
" />
<path d="M8.3951 24.0618
L8.5160 24.0014
" />
<path d="M8.5160 24.0014
L8.5765 23.9409
" />
<path d="M8.5765 23.9409
L8.6370 23.8199
" />
<path d="M8.6370 23.8199
L8.6370 23.5175
" />
<path d="M8.6370 23.5175
L8.5765 23.3966
" />
<path d="M8.5765 23.3966
L8.5160 23.3361
" />
<path d="M8.5160 23.3361
L8.3951 23.2756
" />
<path d="M8.3951 23.2756
L8.1532 23.2756
" />
<path d="M8.1532 23.2756
L8.0322 23.3361
" />
<path d="M8.0322 23.3361
L7.9717 23.3966
" />
<path d="M7.9717 23.3966
L7.9113 23.5175
" />
<path d="M10.0884 22.7314
L8.9998 24.3642
" />
<path d="M10.3303 22.7918
L11.0560 22.7918
" />
<path d="M10.6932 24.0618
L10.6932 22.7918
" />
<path d="M11.3584 22.7918
L12.2050 24.0618
" />
<path d="M12.2050 22.7918
L11.3584 24.0618
" />
</g></g>
<g style="fill:none; 
stroke:#A90000; stroke-width:0.1524; stroke-opacity:1; 
stroke-linecap:round; stroke-linejoin:round;">
<text x="4.5212" y="23.2283"
textLength="1.4127" font-size="1.6933" lengthAdjust="spacingAndGlyphs"
text-anchor="middle" opacity="0" stroke-opacity="0">7</text>
<g class="stroked-text"><desc>7</desc>
<path d="M4.0979 21.7948
L4.9445 21.7948
" />
<path d="M4.9445 21.7948
L4.4003 23.0648
" />
</g></g>
<g style="fill:none; 
stroke:#840000; stroke-width:0.1524; stroke-opacity:1; 
stroke-linecap:round; stroke-linejoin:round;">
<path d="M28.6512 8.2423
L31.1912 8.2423
" />
</g>
<g style="fill:none; 
stroke:#006464; stroke-width:0.1524; stroke-opacity:1; 
stroke-linecap:round; stroke-linejoin:round;">
<text x="28.1432" y="8.8773"
textLength="2.5013" font-size="1.6933" lengthAdjust="spacingAndGlyphs"
text-anchor="end" opacity="0" stroke-opacity="0">5V</text>
<g class="stroked-text"><desc>5V</desc>
<path d="M26.6520 7.5518
L26.0472 7.5518
" />
<path d="M26.0472 7.5518
L25.9868 8.1566
" />
<path d="M25.9868 8.1566
L26.0472 8.0961
" />
<path d="M26.0472 8.0961
L26.1682 8.0356
" />
<path d="M26.1682 8.0356
L26.4706 8.0356
" />
<path d="M26.4706 8.0356
L26.5915 8.0961
" />
<path d="M26.5915 8.0961
L26.6520 8.1566
" />
<path d="M26.6520 8.1566
L26.7125 8.2775
" />
<path d="M26.7125 8.2775
L26.7125 8.5799
" />
<path d="M26.7125 8.5799
L26.6520 8.7009
" />
<path d="M26.6520 8.7009
L26.5915 8.7614
" />
<path d="M26.5915 8.7614
L26.4706 8.8218
" />
<path d="M26.4706 8.8218
L26.1682 8.8218
" />
<path d="M26.1682 8.8218
L26.0472 8.7614
" />
<path d="M26.0472 8.7614
L25.9868 8.7009
" />
<path d="M27.0753 7.5518
L27.4986 8.8218
" />
<path d="M27.4986 8.8218
L27.9220 7.5518
" />
</g></g>
<g style="fill:none; 
stroke:#A90000; stroke-width:0.1524; stroke-opacity:1; 
stroke-linecap:round; stroke-linejoin:round;">
<text x="29.9212" y="7.9883"
textLength="2.6222" font-size="1.6933" lengthAdjust="spacingAndGlyphs"
text-anchor="middle" opacity="0" stroke-opacity="0">14</text>
<g class="stroked-text"><desc>14</desc>
<path d="M29.6793 7.8248
L28.9536 7.8248
" />
<path d="M29.3164 7.8248
L29.3164 6.5548
" />
<path d="M29.3164 6.5548
L29.1955 6.7363
" />
<path d="M29.1955 6.7363
L29.0745 6.8572
" />
<path d="M29.0745 6.8572
L28.9536 6.9177
" />
<path d="M30.7678 6.9782
L30.7678 7.8248
" />
<path d="M30.4654 6.4944
L30.1631 7.4015
" />
<path d="M30.1631 7.4015
L30.9492 7.4015
" />
</g></g>
<g style="fill:none; 
stroke:#840000; stroke-width:0.1524; stroke-opacity:1; 
stroke-linecap:round; stroke-linejoin:round;">
<path d="M28.6512 10.7823
L31.1912 10.7823
" />
</g>
<g style="fill:none; 
stroke:#006464; stroke-width:0.1524; stroke-opacity:1; 
stroke-linecap:round; stroke-linejoin:round;">
<text x="28.1432" y="11.4173"
textLength="4.0737" font-size="1.6933" lengthAdjust="spacingAndGlyphs"
text-anchor="end" opacity="0" stroke-opacity="0">GND</text>
<g class="stroked-text"><desc>GND</desc>
<path d="M25.1401 10.1523
L25.0191 10.0918
" />
<path d="M25.0191 10.0918
L24.8377 10.0918
" />
<path d="M24.8377 10.0918
L24.6563 10.1523
" />
<path d="M24.6563 10.1523
L24.5353 10.2733
" />
<path d="M24.5353 10.2733
L24.4748 10.3942
" />
<path d="M24.4748 10.3942
L24.4144 10.6361
" />
<path d="M24.4144 10.6361
L24.4144 10.8175
" />
<path d="M24.4144 10.8175
L24.4748 11.0594
" />
<path d="M24.4748 11.0594
L24.5353 11.1804
" />
<path d="M24.5353 11.1804
L24.6563 11.3014
" />
<path d="M24.6563 11.3014
L24.8377 11.3618
" />
<path d="M24.8377 11.3618
L24.9586 11.3618
" />
<path d="M24.9586 11.3618
L25.1401 11.3014
" />
<path d="M25.1401 11.3014
L25.2005 11.2409
" />
<path d="M25.2005 11.2409
L25.2005 10.8175
" />
<path d="M25.2005 10.8175
L24.9586 10.8175
" />
<path d="M25.7448 11.3618
L25.7448 10.0918
" />
<path d="M25.7448 10.0918
L26.4705 11.3618
" />
<path d="M26.4705 11.3618
L26.4705 10.0918
" />
<path d="M27.0753 11.3618
L27.0753 10.0918
" />
<path d="M27.0753 10.0918
L27.3777 10.0918
" />
<path d="M27.3777 10.0918
L27.5591 10.1523
" />
<path d="M27.5591 10.1523
L27.6801 10.2733
" />
<path d="M27.6801 10.2733
L27.7406 10.3942
" />
<path d="M27.7406 10.3942
L27.8010 10.6361
" />
<path d="M27.8010 10.6361
L27.8010 10.8175
" />
<path d="M27.8010 10.8175
L27.7406 11.0594
" />
<path d="M27.7406 11.0594
L27.6801 11.1804
" />
<path d="M27.6801 11.1804
L27.5591 11.3014
" />
<path d="M27.5591 11.3014
L27.3777 11.3618
" />
<path d="M27.3777 11.3618
L27.0753 11.3618
" />
</g></g>
<g style="fill:none; 
stroke:#A90000; stroke-width:0.1524; stroke-opacity:1; 
stroke-linecap:round; stroke-linejoin:round;">
<text x="29.9212" y="10.5283"
textLength="2.6222" font-size="1.6933" lengthAdjust="spacingAndGlyphs"
text-anchor="middle" opacity="0" stroke-opacity="0">13</text>
<g class="stroked-text"><desc>13</desc>
<path d="M29.6793 10.3648
L28.9536 10.3648
" />
<path d="M29.3164 10.3648
L29.3164 9.0948
" />
<path d="M29.3164 9.0948
L29.1955 9.2763
" />
<path d="M29.1955 9.2763
L29.0745 9.3972
" />
<path d="M29.0745 9.3972
L28.9536 9.4577
" />
<path d="M30.1026 9.0948
L30.8888 9.0948
" />
<path d="M30.8888 9.0948
L30.4654 9.5786
" />
<path d="M30.4654 9.5786
L30.6469 9.5786
" />
<path d="M30.6469 9.5786
L30.7678 9.6391
" />
<path d="M30.7678 9.6391
L30.8283 9.6996
" />
<path d="M30.8283 9.6996
L30.8888 9.8205
" />
<path d="M30.8888 9.8205
L30.8888 10.1229
" />
<path d="M30.8888 10.1229
L30.8283 10.2439
" />
<path d="M30.8283 10.2439
L30.7678 10.3044
" />
<path d="M30.7678 10.3044
L30.6469 10.3648
" />
<path d="M30.6469 10.3648
L30.2840 10.3648
" />
<path d="M30.2840 10.3648
L30.1631 10.3044
" />
<path d="M30.1631 10.3044
L30.1026 10.2439
" />
</g></g>
<g style="fill:none; 
stroke:#840000; stroke-width:0.1524; stroke-opacity:1; 
stroke-linecap:round; stroke-linejoin:round;">
<path d="M28.6512 13.3223
L31.1912 13.3223
" />
</g>
<g style="fill:none; 
stroke:#006464; stroke-width:0.1524; stroke-opacity:1; 
stroke-linecap:round; stroke-linejoin:round;">
<text x="28.1432" y="13.9573"
textLength="3.7108" font-size="1.6933" lengthAdjust="spacingAndGlyphs"
text-anchor="end" opacity="0" stroke-opacity="0">3V3</text>
<g class="stroked-text"><desc>3V3</desc>
<path d="M24.7168 12.6318
L25.5030 12.6318
" />
<path d="M25.5030 12.6318
L25.0796 13.1156
" />
<path d="M25.0796 13.1156
L25.2611 13.1156
" />
<path d="M25.2611 13.1156
L25.3820 13.1761
" />
<path d="M25.3820 13.1761
L25.4425 13.2366
" />
<path d="M25.4425 13.2366
L25.5030 13.3575
" />
<path d="M25.5030 13.3575
L25.5030 13.6599
" />
<path d="M25.5030 13.6599
L25.4425 13.7809
" />
<path d="M25.4425 13.7809
L25.3820 13.8414
" />
<path d="M25.3820 13.8414
L25.2611 13.9018
" />
<path d="M25.2611 13.9018
L24.8982 13.9018
" />
<path d="M24.8982 13.9018
L24.7773 13.8414
" />
<path d="M24.7773 13.8414
L24.7168 13.7809
" />
<path d="M25.8658 12.6318
L26.2891 13.9018
" />
<path d="M26.2891 13.9018
L26.7125 12.6318
" />
<path d="M27.0149 12.6318
L27.8011 12.6318
" />
<path d="M27.8011 12.6318
L27.3777 13.1156
" />
<path d="M27.3777 13.1156
L27.5592 13.1156
" />
<path d="M27.5592 13.1156
L27.6801 13.1761
" />
<path d="M27.6801 13.1761
L27.7406 13.2366
" />
<path d="M27.7406 13.2366
L27.8011 13.3575
" />
<path d="M27.8011 13.3575
L27.8011 13.6599
" />
<path d="M27.8011 13.6599
L27.7406 13.7809
" />
<path d="M27.7406 13.7809
L27.6801 13.8414
" />
<path d="M27.6801 13.8414
L27.5592 13.9018
" />
<path d="M27.5592 13.9018
L27.1963 13.9018
" />
<path d="M27.1963 13.9018
L27.0754 13.8414
" />
<path d="M27.0754 13.8414
L27.0149 13.7809
" />
</g></g>
<g style="fill:none; 
stroke:#A90000; stroke-width:0.1524; stroke-opacity:1; 
stroke-linecap:round; stroke-linejoin:round;">
<text x="29.9212" y="13.0683"
textLength="2.6222" font-size="1.6933" lengthAdjust="spacingAndGlyphs"
text-anchor="middle" opacity="0" stroke-opacity="0">12</text>
<g class="stroked-text"><desc>12</desc>
<path d="M29.6793 12.9048
L28.9536 12.9048
" />
<path d="M29.3164 12.9048
L29.3164 11.6348
" />
<path d="M29.3164 11.6348
L29.1955 11.8163
" />
<path d="M29.1955 11.8163
L29.0745 11.9372
" />
<path d="M29.0745 11.9372
L28.9536 11.9977
" />
<path d="M30.1631 11.7558
L30.2235 11.6953
" />
<path d="M30.2235 11.6953
L30.3445 11.6348
" />
<path d="M30.3445 11.6348
L30.6469 11.6348
" />
<path d="M30.6469 11.6348
L30.7678 11.6953
" />
<path d="M30.7678 11.6953
L30.8283 11.7558
" />
<path d="M30.8283 11.7558
L30.8888 11.8767
" />
<path d="M30.8888 11.8767
L30.8888 11.9977
" />
<path d="M30.8888 11.9977
L30.8283 12.1791
" />
<path d="M30.8283 12.1791
L30.1026 12.9048
" />
<path d="M30.1026 12.9048
L30.8888 12.9048
" />
</g></g>
<g style="fill:none; 
stroke:#840000; stroke-width:0.1524; stroke-opacity:1; 
stroke-linecap:round; stroke-linejoin:round;">
<path d="M28.6512 15.8623
L31.1912 15.8623
" />
</g>
<g style="fill:none; 
stroke:#006464; stroke-width:0.1524; stroke-opacity:1; 
stroke-linecap:round; stroke-linejoin:round;">
<text x="28.1432" y="16.4973"
textLength="9.8189" font-size="1.6933" lengthAdjust="spacingAndGlyphs"
text-anchor="end" opacity="0" stroke-opacity="0">MOSI/D10</text>
<g class="stroked-text"><desc>MOSI/D10</desc>
<path d="M18.7296 16.4418
L18.7296 15.1718
" />
<path d="M18.7296 15.1718
L19.1530 16.0790
" />
<path d="M19.1530 16.0790
L19.5763 15.1718
" />
<path d="M19.5763 15.1718
L19.5763 16.4418
" />
<path d="M20.4229 15.1718
L20.6648 15.1718
" />
<path d="M20.6648 15.1718
L20.7858 15.2323
" />
<path d="M20.7858 15.2323
L20.9067 15.3533
" />
<path d="M20.9067 15.3533
L20.9672 15.5952
" />
<path d="M20.9672 15.5952
L20.9672 16.0185
" />
<path d="M20.9672 16.0185
L20.9067 16.2604
" />
<path d="M20.9067 16.2604
L20.7858 16.3814
" />
<path d="M20.7858 16.3814
L20.6648 16.4418
" />
<path d="M20.6648 16.4418
L20.4229 16.4418
" />
<path d="M20.4229 16.4418
L20.3020 16.3814
" />
<path d="M20.3020 16.3814
L20.1810 16.2604
" />
<path d="M20.1810 16.2604
L20.1206 16.0185
" />
<path d="M20.1206 16.0185
L20.1206 15.5952
" />
<path d="M20.1206 15.5952
L20.1810 15.3533
" />
<path d="M20.1810 15.3533
L20.3020 15.2323
" />
<path d="M20.3020 15.2323
L20.4229 15.1718
" />
<path d="M21.4511 16.3814
L21.6325 16.4418
" />
<path d="M21.6325 16.4418
L21.9349 16.4418
" />
<path d="M21.9349 16.4418
L22.0558 16.3814
" />
<path d="M22.0558 16.3814
L22.1163 16.3209
" />
<path d="M22.1163 16.3209
L22.1768 16.1999
" />
<path d="M22.1768 16.1999
L22.1768 16.0790
" />
<path d="M22.1768 16.0790
L22.1163 15.9580
" />
<path d="M22.1163 15.9580
L22.0558 15.8975
" />
<path d="M22.0558 15.8975
L21.9349 15.8371
" />
<path d="M21.9349 15.8371
L21.6930 15.7766
" />
<path d="M21.6930 15.7766
L21.5720 15.7161
" />
<path d="M21.5720 15.7161
L21.5115 15.6556
" />
<path d="M21.5115 15.6556
L21.4511 15.5347
" />
<path d="M21.4511 15.5347
L21.4511 15.4137
" />
<path d="M21.4511 15.4137
L21.5115 15.2928
" />
<path d="M21.5115 15.2928
L21.5720 15.2323
" />
<path d="M21.5720 15.2323
L21.6930 15.1718
" />
<path d="M21.6930 15.1718
L21.9953 15.1718
" />
<path d="M21.9953 15.1718
L22.1768 15.2323
" />
<path d="M22.7210 16.4418
L22.7210 15.1718
" />
<path d="M24.2330 15.1114
L23.1444 16.7442
" />
<path d="M24.6563 16.4418
L24.6563 15.1718
" />
<path d="M24.6563 15.1718
L24.9587 15.1718
" />
<path d="M24.9587 15.1718
L25.1401 15.2323
" />
<path d="M25.1401 15.2323
L25.2611 15.3533
" />
<path d="M25.2611 15.3533
L25.3216 15.4742
" />
<path d="M25.3216 15.4742
L25.3820 15.7161
" />
<path d="M25.3820 15.7161
L25.3820 15.8975
" />
<path d="M25.3820 15.8975
L25.3216 16.1394
" />
<path d="M25.3216 16.1394
L25.2611 16.2604
" />
<path d="M25.2611 16.2604
L25.1401 16.3814
" />
<path d="M25.1401 16.3814
L24.9587 16.4418
" />
<path d="M24.9587 16.4418
L24.6563 16.4418
" />
<path d="M26.5916 16.4418
L25.8659 16.4418
" />
<path d="M26.2287 16.4418
L26.2287 15.1718
" />
<path d="M26.2287 15.1718
L26.1078 15.3533
" />
<path d="M26.1078 15.3533
L25.9868 15.4742
" />
<path d="M25.9868 15.4742
L25.8659 15.5347
" />
<path d="M27.3777 15.1718
L27.4987 15.1718
" />
<path d="M27.4987 15.1718
L27.6196 15.2323
" />
<path d="M27.6196 15.2323
L27.6801 15.2928
" />
<path d="M27.6801 15.2928
L27.7406 15.4137
" />
<path d="M27.7406 15.4137
L27.8011 15.6556
" />
<path d="M27.8011 15.6556
L27.8011 15.9580
" />
<path d="M27.8011 15.9580
L27.7406 16.1999
" />
<path d="M27.7406 16.1999
L27.6801 16.3209
" />
<path d="M27.6801 16.3209
L27.6196 16.3814
" />
<path d="M27.6196 16.3814
L27.4987 16.4418
" />
<path d="M27.4987 16.4418
L27.3777 16.4418
" />
<path d="M27.3777 16.4418
L27.2568 16.3814
" />
<path d="M27.2568 16.3814
L27.1963 16.3209
" />
<path d="M27.1963 16.3209
L27.1358 16.1999
" />
<path d="M27.1358 16.1999
L27.0754 15.9580
" />
<path d="M27.0754 15.9580
L27.0754 15.6556
" />
<path d="M27.0754 15.6556
L27.1358 15.4137
" />
<path d="M27.1358 15.4137
L27.1963 15.2928
" />
<path d="M27.1963 15.2928
L27.2568 15.2323
" />
<path d="M27.2568 15.2323
L27.3777 15.1718
" />
</g></g>
<g style="fill:none; 
stroke:#A90000; stroke-width:0.1524; stroke-opacity:1; 
stroke-linecap:round; stroke-linejoin:round;">
<text x="29.9212" y="15.6083"
textLength="2.6222" font-size="1.6933" lengthAdjust="spacingAndGlyphs"
text-anchor="middle" opacity="0" stroke-opacity="0">11</text>
<g class="stroked-text"><desc>11</desc>
<path d="M29.6793 15.4448
L28.9536 15.4448
" />
<path d="M29.3164 15.4448
L29.3164 14.1748
" />
<path d="M29.3164 14.1748
L29.1955 14.3563
" />
<path d="M29.1955 14.3563
L29.0745 14.4772
" />
<path d="M29.0745 14.4772
L28.9536 14.5377
" />
<path d="M30.8888 15.4448
L30.1631 15.4448
" />
<path d="M30.5259 15.4448
L30.5259 14.1748
" />
<path d="M30.5259 14.1748
L30.4050 14.3563
" />
<path d="M30.4050 14.3563
L30.2840 14.4772
" />
<path d="M30.2840 14.4772
L30.1631 14.5377
" />
</g></g>
<g style="fill:none; 
stroke:#840000; stroke-width:0.1524; stroke-opacity:1; 
stroke-linecap:round; stroke-linejoin:round;">
<path d="M28.6512 18.4023
L31.1912 18.4023
" />
</g>
<g style="fill:none; 
stroke:#006464; stroke-width:0.1524; stroke-opacity:1; 
stroke-linecap:round; stroke-linejoin:round;">
<text x="28.1432" y="19.0373"
textLength="8.6094" font-size="1.6933" lengthAdjust="spacingAndGlyphs"
text-anchor="end" opacity="0" stroke-opacity="0">MISO/D9</text>
<g class="stroked-text"><desc>MISO/D9</desc>
<path d="M19.9391 18.9818
L19.9391 17.7118
" />
<path d="M19.9391 17.7118
L20.3625 18.6190
" />
<path d="M20.3625 18.6190
L20.7858 17.7118
" />
<path d="M20.7858 17.7118
L20.7858 18.9818
" />
<path d="M21.3905 18.9818
L21.3905 17.7118
" />
<path d="M21.9349 18.9214
L22.1163 18.9818
" />
<path d="M22.1163 18.9818
L22.4187 18.9818
" />
<path d="M22.4187 18.9818
L22.5396 18.9214
" />
<path d="M22.5396 18.9214
L22.6001 18.8609
" />
<path d="M22.6001 18.8609
L22.6606 18.7399
" />
<path d="M22.6606 18.7399
L22.6606 18.6190
" />
<path d="M22.6606 18.6190
L22.6001 18.4980
" />
<path d="M22.6001 18.4980
L22.5396 18.4375
" />
<path d="M22.5396 18.4375
L22.4187 18.3771
" />
<path d="M22.4187 18.3771
L22.1768 18.3166
" />
<path d="M22.1768 18.3166
L22.0558 18.2561
" />
<path d="M22.0558 18.2561
L21.9953 18.1956
" />
<path d="M21.9953 18.1956
L21.9349 18.0747
" />
<path d="M21.9349 18.0747
L21.9349 17.9537
" />
<path d="M21.9349 17.9537
L21.9953 17.8328
" />
<path d="M21.9953 17.8328
L22.0558 17.7723
" />
<path d="M22.0558 17.7723
L22.1768 17.7118
" />
<path d="M22.1768 17.7118
L22.4791 17.7118
" />
<path d="M22.4791 17.7118
L22.6606 17.7723
" />
<path d="M23.4467 17.7118
L23.6886 17.7118
" />
<path d="M23.6886 17.7118
L23.8096 17.7723
" />
<path d="M23.8096 17.7723
L23.9305 17.8933
" />
<path d="M23.9305 17.8933
L23.9910 18.1352
" />
<path d="M23.9910 18.1352
L23.9910 18.5585
" />
<path d="M23.9910 18.5585
L23.9305 18.8004
" />
<path d="M23.9305 18.8004
L23.8096 18.9214
" />
<path d="M23.8096 18.9214
L23.6886 18.9818
" />
<path d="M23.6886 18.9818
L23.4467 18.9818
" />
<path d="M23.4467 18.9818
L23.3258 18.9214
" />
<path d="M23.3258 18.9214
L23.2048 18.8004
" />
<path d="M23.2048 18.8004
L23.1444 18.5585
" />
<path d="M23.1444 18.5585
L23.1444 18.1352
" />
<path d="M23.1444 18.1352
L23.2048 17.8933
" />
<path d="M23.2048 17.8933
L23.3258 17.7723
" />
<path d="M23.3258 17.7723
L23.4467 17.7118
" />
<path d="M25.4425 17.6514
L24.3539 19.2842
" />
<path d="M25.8658 18.9818
L25.8658 17.7118
" />
<path d="M25.8658 17.7118
L26.1682 17.7118
" />
<path d="M26.1682 17.7118
L26.3496 17.7723
" />
<path d="M26.3496 17.7723
L26.4706 17.8933
" />
<path d="M26.4706 17.8933
L26.5311 18.0142
" />
<path d="M26.5311 18.0142
L26.5915 18.2561
" />
<path d="M26.5915 18.2561
L26.5915 18.4375
" />
<path d="M26.5915 18.4375
L26.5311 18.6794
" />
<path d="M26.5311 18.6794
L26.4706 18.8004
" />
<path d="M26.4706 18.8004
L26.3496 18.9214
" />
<path d="M26.3496 18.9214
L26.1682 18.9818
" />
<path d="M26.1682 18.9818
L25.8658 18.9818
" />
<path d="M27.1963 18.9818
L27.4382 18.9818
" />
<path d="M27.4382 18.9818
L27.5592 18.9214
" />
<path d="M27.5592 18.9214
L27.6196 18.8609
" />
<path d="M27.6196 18.8609
L27.7406 18.6794
" />
<path d="M27.7406 18.6794
L27.8011 18.4375
" />
<path d="M27.8011 18.4375
L27.8011 17.9537
" />
<path d="M27.8011 17.9537
L27.7406 17.8328
" />
<path d="M27.7406 17.8328
L27.6801 17.7723
" />
<path d="M27.6801 17.7723
L27.5592 17.7118
" />
<path d="M27.5592 17.7118
L27.3173 17.7118
" />
<path d="M27.3173 17.7118
L27.1963 17.7723
" />
<path d="M27.1963 17.7723
L27.1358 17.8328
" />
<path d="M27.1358 17.8328
L27.0754 17.9537
" />
<path d="M27.0754 17.9537
L27.0754 18.2561
" />
<path d="M27.0754 18.2561
L27.1358 18.3771
" />
<path d="M27.1358 18.3771
L27.1963 18.4375
" />
<path d="M27.1963 18.4375
L27.3173 18.4980
" />
<path d="M27.3173 18.4980
L27.5592 18.4980
" />
<path d="M27.5592 18.4980
L27.6801 18.4375
" />
<path d="M27.6801 18.4375
L27.7406 18.3771
" />
<path d="M27.7406 18.3771
L27.8011 18.2561
" />
</g></g>
<g style="fill:none; 
stroke:#A90000; stroke-width:0.1524; stroke-opacity:1; 
stroke-linecap:round; stroke-linejoin:round;">
<text x="29.9212" y="18.1483"
textLength="2.6222" font-size="1.6933" lengthAdjust="spacingAndGlyphs"
text-anchor="middle" opacity="0" stroke-opacity="0">10</text>
<g class="stroked-text"><desc>10</desc>
<path d="M29.6793 17.9848
L28.9536 17.9848
" />
<path d="M29.3164 17.9848
L29.3164 16.7148
" />
<path d="M29.3164 16.7148
L29.1955 16.8963
" />
<path d="M29.1955 16.8963
L29.0745 17.0172
" />
<path d="M29.0745 17.0172
L28.9536 17.0777
" />
<path d="M30.4654 16.7148
L30.5864 16.7148
" />
<path d="M30.5864 16.7148
L30.7073 16.7753
" />
<path d="M30.7073 16.7753
L30.7678 16.8358
" />
<path d="M30.7678 16.8358
L30.8283 16.9567
" />
<path d="M30.8283 16.9567
L30.8888 17.1986
" />
<path d="M30.8888 17.1986
L30.8888 17.5010
" />
<path d="M30.8888 17.5010
L30.8283 17.7429
" />
<path d="M30.8283 17.7429
L30.7678 17.8639
" />
<path d="M30.7678 17.8639
L30.7073 17.9244
" />
<path d="M30.7073 17.9244
L30.5864 17.9848
" />
<path d="M30.5864 17.9848
L30.4654 17.9848
" />
<path d="M30.4654 17.9848
L30.3445 17.9244
" />
<path d="M30.3445 17.9244
L30.2840 17.8639
" />
<path d="M30.2840 17.8639
L30.2235 17.7429
" />
<path d="M30.2235 17.7429
L30.1631 17.5010
" />
<path d="M30.1631 17.5010
L30.1631 17.1986
" />
<path d="M30.1631 17.1986
L30.2235 16.9567
" />
<path d="M30.2235 16.9567
L30.2840 16.8358
" />
<path d="M30.2840 16.8358
L30.3445 16.7753
" />
<path d="M30.3445 16.7753
L30.4654 16.7148
" />
</g></g>
<g style="fill:none; 
stroke:#840000; stroke-width:0.1524; stroke-opacity:1; 
stroke-linecap:round; stroke-linejoin:round;">
<path d="M28.6512 20.9423
L31.1912 20.9423
" />
</g>
<g style="fill:none; 
stroke:#006464; stroke-width:0.1524; stroke-opacity:1; 
stroke-linecap:round; stroke-linejoin:round;">
<text x="28.1432" y="21.5773"
textLength="7.7627" font-size="1.6933" lengthAdjust="spacingAndGlyphs"
text-anchor="end" opacity="0" stroke-opacity="0">SCK/D8</text>
<g class="stroked-text"><desc>SCK/D8</desc>
<path d="M20.7254 21.4614
L20.9068 21.5218
" />
<path d="M20.9068 21.5218
L21.2092 21.5218
" />
<path d="M21.2092 21.5218
L21.3301 21.4614
" />
<path d="M21.3301 21.4614
L21.3906 21.4009
" />
<path d="M21.3906 21.4009
L21.4511 21.2799
" />
<path d="M21.4511 21.2799
L21.4511 21.1590
" />
<path d="M21.4511 21.1590
L21.3906 21.0380
" />
<path d="M21.3906 21.0380
L21.3301 20.9775
" />
<path d="M21.3301 20.9775
L21.2092 20.9171
" />
<path d="M21.2092 20.9171
L20.9673 20.8566
" />
<path d="M20.9673 20.8566
L20.8463 20.7961
" />
<path d="M20.8463 20.7961
L20.7858 20.7356
" />
<path d="M20.7858 20.7356
L20.7254 20.6147
" />
<path d="M20.7254 20.6147
L20.7254 20.4937
" />
<path d="M20.7254 20.4937
L20.7858 20.3728
" />
<path d="M20.7858 20.3728
L20.8463 20.3123
" />
<path d="M20.8463 20.3123
L20.9673 20.2518
" />
<path d="M20.9673 20.2518
L21.2696 20.2518
" />
<path d="M21.2696 20.2518
L21.4511 20.3123
" />
<path d="M22.7210 21.4009
L22.6606 21.4614
" />
<path d="M22.6606 21.4614
L22.4791 21.5218
" />
<path d="M22.4791 21.5218
L22.3582 21.5218
" />
<path d="M22.3582 21.5218
L22.1768 21.4614
" />
<path d="M22.1768 21.4614
L22.0558 21.3404
" />
<path d="M22.0558 21.3404
L21.9953 21.2194
" />
<path d="M21.9953 21.2194
L21.9349 20.9775
" />
<path d="M21.9349 20.9775
L21.9349 20.7961
" />
<path d="M21.9349 20.7961
L21.9953 20.5542
" />
<path d="M21.9953 20.5542
L22.0558 20.4333
" />
<path d="M22.0558 20.4333
L22.1768 20.3123
" />
<path d="M22.1768 20.3123
L22.3582 20.2518
" />
<path d="M22.3582 20.2518
L22.4791 20.2518
" />
<path d="M22.4791 20.2518
L22.6606 20.3123
" />
<path d="M22.6606 20.3123
L22.7210 20.3728
" />
<path d="M23.2653 21.5218
L23.2653 20.2518
" />
<path d="M23.9910 21.5218
L23.4468 20.7961
" />
<path d="M23.9910 20.2518
L23.2653 20.9775
" />
<path d="M25.4425 20.1914
L24.3539 21.8242
" />
<path d="M25.8658 21.5218
L25.8658 20.2518
" />
<path d="M25.8658 20.2518
L26.1682 20.2518
" />
<path d="M26.1682 20.2518
L26.3496 20.3123
" />
<path d="M26.3496 20.3123
L26.4706 20.4333
" />
<path d="M26.4706 20.4333
L26.5311 20.5542
" />
<path d="M26.5311 20.5542
L26.5915 20.7961
" />
<path d="M26.5915 20.7961
L26.5915 20.9775
" />
<path d="M26.5915 20.9775
L26.5311 21.2194
" />
<path d="M26.5311 21.2194
L26.4706 21.3404
" />
<path d="M26.4706 21.3404
L26.3496 21.4614
" />
<path d="M26.3496 21.4614
L26.1682 21.5218
" />
<path d="M26.1682 21.5218
L25.8658 21.5218
" />
<path d="M27.3173 20.7961
L27.1963 20.7356
" />
<path d="M27.1963 20.7356
L27.1358 20.6752
" />
<path d="M27.1358 20.6752
L27.0754 20.5542
" />
<path d="M27.0754 20.5542
L27.0754 20.4937
" />
<path d="M27.0754 20.4937
L27.1358 20.3728
" />
<path d="M27.1358 20.3728
L27.1963 20.3123
" />
<path d="M27.1963 20.3123
L27.3173 20.2518
" />
<path d="M27.3173 20.2518
L27.5592 20.2518
" />
<path d="M27.5592 20.2518
L27.6801 20.3123
" />
<path d="M27.6801 20.3123
L27.7406 20.3728
" />
<path d="M27.7406 20.3728
L27.8011 20.4937
" />
<path d="M27.8011 20.4937
L27.8011 20.5542
" />
<path d="M27.8011 20.5542
L27.7406 20.6752
" />
<path d="M27.7406 20.6752
L27.6801 20.7356
" />
<path d="M27.6801 20.7356
L27.5592 20.7961
" />
<path d="M27.5592 20.7961
L27.3173 20.7961
" />
<path d="M27.3173 20.7961
L27.1963 20.8566
" />
<path d="M27.1963 20.8566
L27.1358 20.9171
" />
<path d="M27.1358 20.9171
L27.0754 21.0380
" />
<path d="M27.0754 21.0380
L27.0754 21.2799
" />
<path d="M27.0754 21.2799
L27.1358 21.4009
" />
<path d="M27.1358 21.4009
L27.1963 21.4614
" />
<path d="M27.1963 21.4614
L27.3173 21.5218
" />
<path d="M27.3173 21.5218
L27.5592 21.5218
" />
<path d="M27.5592 21.5218
L27.6801 21.4614
" />
<path d="M27.6801 21.4614
L27.7406 21.4009
" />
<path d="M27.7406 21.4009
L27.8011 21.2799
" />
<path d="M27.8011 21.2799
L27.8011 21.0380
" />
<path d="M27.8011 21.0380
L27.7406 20.9171
" />
<path d="M27.7406 20.9171
L27.6801 20.8566
" />
<path d="M27.6801 20.8566
L27.5592 20.7961
" />
</g></g>
<g style="fill:none; 
stroke:#A90000; stroke-width:0.1524; stroke-opacity:1; 
stroke-linecap:round; stroke-linejoin:round;">
<text x="29.9212" y="20.6883"
textLength="1.4127" font-size="1.6933" lengthAdjust="spacingAndGlyphs"
text-anchor="middle" opacity="0" stroke-opacity="0">9</text>
<g class="stroked-text"><desc>9</desc>
<path d="M29.6793 20.5248
L29.9212 20.5248
" />
<path d="M29.9212 20.5248
L30.0422 20.4644
" />
<path d="M30.0422 20.4644
L30.1026 20.4039
" />
<path d="M30.1026 20.4039
L30.2236 20.2224
" />
<path d="M30.2236 20.2224
L30.2841 19.9805
" />
<path d="M30.2841 19.9805
L30.2841 19.4967
" />
<path d="M30.2841 19.4967
L30.2236 19.3758
" />
<path d="M30.2236 19.3758
L30.1631 19.3153
" />
<path d="M30.1631 19.3153
L30.0422 19.2548
" />
<path d="M30.0422 19.2548
L29.8003 19.2548
" />
<path d="M29.8003 19.2548
L29.6793 19.3153
" />
<path d="M29.6793 19.3153
L29.6188 19.3758
" />
<path d="M29.6188 19.3758
L29.5584 19.4967
" />
<path d="M29.5584 19.4967
L29.5584 19.7991
" />
<path d="M29.5584 19.7991
L29.6188 19.9201
" />
<path d="M29.6188 19.9201
L29.6793 19.9805
" />
<path d="M29.6793 19.9805
L29.8003 20.0410
" />
<path d="M29.8003 20.0410
L30.0422 20.0410
" />
<path d="M30.0422 20.0410
L30.1631 19.9805
" />
<path d="M30.1631 19.9805
L30.2236 19.9201
" />
<path d="M30.2236 19.9201
L30.2841 19.7991
" />
</g></g>
<g style="fill:none; 
stroke:#840000; stroke-width:0.1524; stroke-opacity:1; 
stroke-linecap:round; stroke-linejoin:round;">
<path d="M28.6512 23.4823
L31.1912 23.4823
" />
</g>
<g style="fill:none; 
stroke:#006464; stroke-width:0.1524; stroke-opacity:1; 
stroke-linecap:round; stroke-linejoin:round;">
<text x="28.1432" y="24.1173"
textLength="6.4927" font-size="1.6933" lengthAdjust="spacingAndGlyphs"
text-anchor="end" opacity="0" stroke-opacity="0">RX/D7</text>
<g class="stroked-text"><desc>RX/D7</desc>
<path d="M22.7815 24.0618
L22.3582 23.4571
" />
<path d="M22.0558 24.0618
L22.0558 22.7918
" />
<path d="M22.0558 22.7918
L22.5396 22.7918
" />
<path d="M22.5396 22.7918
L22.6606 22.8523
" />
<path d="M22.6606 22.8523
L22.7211 22.9128
" />
<path d="M22.7211 22.9128
L22.7815 23.0337
" />
<path d="M22.7815 23.0337
L22.7815 23.2152
" />
<path d="M22.7815 23.2152
L22.7211 23.3361
" />
<path d="M22.7211 23.3361
L22.6606 23.3966
" />
<path d="M22.6606 23.3966
L22.5396 23.4571
" />
<path d="M22.5396 23.4571
L22.0558 23.4571
" />
<path d="M23.2049 22.7918
L24.0515 24.0618
" />
<path d="M24.0515 22.7918
L23.2049 24.0618
" />
<path d="M25.4425 22.7314
L24.3539 24.3642
" />
<path d="M25.8658 24.0618
L25.8658 22.7918
" />
<path d="M25.8658 22.7918
L26.1682 22.7918
" />
<path d="M26.1682 22.7918
L26.3496 22.8523
" />
<path d="M26.3496 22.8523
L26.4706 22.9733
" />
<path d="M26.4706 22.9733
L26.5311 23.0942
" />
<path d="M26.5311 23.0942
L26.5915 23.3361
" />
<path d="M26.5915 23.3361
L26.5915 23.5175
" />
<path d="M26.5915 23.5175
L26.5311 23.7594
" />
<path d="M26.5311 23.7594
L26.4706 23.8804
" />
<path d="M26.4706 23.8804
L26.3496 24.0014
" />
<path d="M26.3496 24.0014
L26.1682 24.0618
" />
<path d="M26.1682 24.0618
L25.8658 24.0618
" />
<path d="M27.0149 22.7918
L27.8615 22.7918
" />
<path d="M27.8615 22.7918
L27.3173 24.0618
" />
</g></g>
<g style="fill:none; 
stroke:#A90000; stroke-width:0.1524; stroke-opacity:1; 
stroke-linecap:round; stroke-linejoin:round;">
<text x="29.9212" y="23.2283"
textLength="1.4127" font-size="1.6933" lengthAdjust="spacingAndGlyphs"
text-anchor="middle" opacity="0" stroke-opacity="0">8</text>
<g class="stroked-text"><desc>8</desc>
<path d="M29.8003 22.3391
L29.6793 22.2786
" />
<path d="M29.6793 22.2786
L29.6188 22.2182
" />
<path d="M29.6188 22.2182
L29.5584 22.0972
" />
<path d="M29.5584 22.0972
L29.5584 22.0367
" />
<path d="M29.5584 22.0367
L29.6188 21.9158
" />
<path d="M29.6188 21.9158
L29.6793 21.8553
" />
<path d="M29.6793 21.8553
L29.8003 21.7948
" />
<path d="M29.8003 21.7948
L30.0422 21.7948
" />
<path d="M30.0422 21.7948
L30.1631 21.8553
" />
<path d="M30.1631 21.8553
L30.2236 21.9158
" />
<path d="M30.2236 21.9158
L30.2841 22.0367
" />
<path d="M30.2841 22.0367
L30.2841 22.0972
" />
<path d="M30.2841 22.0972
L30.2236 22.2182
" />
<path d="M30.2236 22.2182
L30.1631 22.2786
" />
<path d="M30.1631 22.2786
L30.0422 22.3391
" />
<path d="M30.0422 22.3391
L29.8003 22.3391
" />
<path d="M29.8003 22.3391
L29.6793 22.3996
" />
<path d="M29.6793 22.3996
L29.6188 22.4601
" />
<path d="M29.6188 22.4601
L29.5584 22.5810
" />
<path d="M29.5584 22.5810
L29.5584 22.8229
" />
<path d="M29.5584 22.8229
L29.6188 22.9439
" />
<path d="M29.6188 22.9439
L29.6793 23.0044
" />
<path d="M29.6793 23.0044
L29.8003 23.0648
" />
<path d="M29.8003 23.0648
L30.0422 23.0648
" />
<path d="M30.0422 23.0648
L30.1631 23.0044
" />
<path d="M30.1631 23.0044
L30.2236 22.9439
" />
<path d="M30.2236 22.9439
L30.2841 22.8229
" />
<path d="M30.2841 22.8229
L30.2841 22.5810
" />
<path d="M30.2841 22.5810
L30.2236 22.4601
" />
<path d="M30.2236 22.4601
L30.1631 22.3996
" />
<path d="M30.1631 22.3996
L30.0422 22.3391
" />
</g></g>
<g style="fill:none; 
stroke:#006464; stroke-width:0.1524; stroke-opacity:1; 
stroke-linecap:round; stroke-linejoin:round;">
<text x="0.0000" y="-11.5570"
textLength="2.6223" font-size="1.6933" lengthAdjust="spacingAndGlyphs"
text-anchor="middle" opacity="0" stroke-opacity="0">U?</text>
<g class="stroked-text"><desc>U?</desc>
<path d="M-0.9071 -12.8824
L-0.9071 -11.8543
" />
<path d="M-0.9071 -11.8543
L-0.8466 -11.7333
" />
<path d="M-0.8466 -11.7333
L-0.7861 -11.6729
" />
<path d="M-0.7861 -11.6729
L-0.6652 -11.6124
" />
<path d="M-0.6652 -11.6124
L-0.4233 -11.6124
" />
<path d="M-0.4233 -11.6124
L-0.3023 -11.6729
" />
<path d="M-0.3023 -11.6729
L-0.2418 -11.7333
" />
<path d="M-0.2418 -11.7333
L-0.1814 -11.8543
" />
<path d="M-0.1814 -11.8543
L-0.1814 -12.8824
" />
<path d="M0.6048 -11.7333
L0.6652 -11.6729
" />
<path d="M0.6652 -11.6729
L0.6048 -11.6124
" />
<path d="M0.6048 -11.6124
L0.5443 -11.6729
" />
<path d="M0.5443 -11.6729
L0.6048 -11.7333
" />
<path d="M0.6048 -11.7333
L0.6048 -11.6124
" />
<path d="M0.3629 -12.8219
L0.4838 -12.8824
" />
<path d="M0.4838 -12.8824
L0.7862 -12.8824
" />
<path d="M0.7862 -12.8824
L0.9071 -12.8219
" />
<path d="M0.9071 -12.8219
L0.9676 -12.7009
" />
<path d="M0.9676 -12.7009
L0.9676 -12.5800
" />
<path d="M0.9676 -12.5800
L0.9071 -12.4590
" />
<path d="M0.9071 -12.4590
L0.8467 -12.3986
" />
<path d="M0.8467 -12.3986
L0.7257 -12.3381
" />
<path d="M0.7257 -12.3381
L0.6652 -12.2776
" />
<path d="M0.6652 -12.2776
L0.6048 -12.1567
" />
<path d="M0.6048 -12.1567
L0.6048 -12.0962
" />
</g><text x="0.0000" y="12.8270"
textLength="13.3870" font-size="1.6933" lengthAdjust="spacingAndGlyphs"
text-anchor="middle" opacity="0" stroke-opacity="0">XIAO-RP2040</text>
<g class="stroked-text"><desc>XIAO-RP2040</desc>
<path d="M-6.4104 11.5015
L-5.5638 12.7715
" />
<path d="M-5.5638 11.5015
L-6.4104 12.7715
" />
<path d="M-5.0800 12.7715
L-5.0800 11.5015
" />
<path d="M-4.5356 12.4087
L-3.9309 12.4087
" />
<path d="M-4.6566 12.7715
L-4.2333 11.5015
" />
<path d="M-4.2333 11.5015
L-3.8099 12.7715
" />
<path d="M-3.1447 11.5015
L-2.9028 11.5015
" />
<path d="M-2.9028 11.5015
L-2.7818 11.5620
" />
<path d="M-2.7818 11.5620
L-2.6609 11.6830
" />
<path d="M-2.6609 11.6830
L-2.6004 11.9249
" />
<path d="M-2.6004 11.9249
L-2.6004 12.3482
" />
<path d="M-2.6004 12.3482
L-2.6609 12.5901
" />
<path d="M-2.6609 12.5901
L-2.7818 12.7111
" />
<path d="M-2.7818 12.7111
L-2.9028 12.7715
" />
<path d="M-2.9028 12.7715
L-3.1447 12.7715
" />
<path d="M-3.1447 12.7715
L-3.2656 12.7111
" />
<path d="M-3.2656 12.7111
L-3.3866 12.5901
" />
<path d="M-3.3866 12.5901
L-3.4470 12.3482
" />
<path d="M-3.4470 12.3482
L-3.4470 11.9249
" />
<path d="M-3.4470 11.9249
L-3.3866 11.6830
" />
<path d="M-3.3866 11.6830
L-3.2656 11.5620
" />
<path d="M-3.2656 11.5620
L-3.1447 11.5015
" />
<path d="M-2.0561 12.2877
L-1.0885 12.2877
" />
<path d="M0.2419 12.7715
L-0.1813 12.1668
" />
<path d="M-0.4837 12.7715
L-0.4837 11.5015
" />
<path d="M-0.4837 11.5015
L0.0000 11.5015
" />
<path d="M0.0000 11.5015
L0.1210 11.5620
" />
<path d="M0.1210 11.5620
L0.1815 11.6225
" />
<path d="M0.1815 11.6225
L0.2419 11.7434
" />
<path d="M0.2419 11.7434
L0.2419 11.9249
" />
<path d="M0.2419 11.9249
L0.1815 12.0458
" />
<path d="M0.1815 12.0458
L0.1210 12.1063
" />
<path d="M0.1210 12.1063
L0.0000 12.1668
" />
<path d="M0.0000 12.1668
L-0.4837 12.1668
" />
<path d="M0.7862 12.7715
L0.7862 11.5015
" />
<path d="M0.7862 11.5015
L1.2700 11.5015
" />
<path d="M1.2700 11.5015
L1.3910 11.5620
" />
<path d="M1.3910 11.5620
L1.4515 11.6225
" />
<path d="M1.4515 11.6225
L1.5119 11.7434
" />
<path d="M1.5119 11.7434
L1.5119 11.9249
" />
<path d="M1.5119 11.9249
L1.4515 12.0458
" />
<path d="M1.4515 12.0458
L1.3910 12.1063
" />
<path d="M1.3910 12.1063
L1.2700 12.1668
" />
<path d="M1.2700 12.1668
L0.7862 12.1668
" />
<path d="M1.9958 11.6225
L2.0562 11.5620
" />
<path d="M2.0562 11.5620
L2.1772 11.5015
" />
<path d="M2.1772 11.5015
L2.4796 11.5015
" />
<path d="M2.4796 11.5015
L2.6005 11.5620
" />
<path d="M2.6005 11.5620
L2.6610 11.6225
" />
<path d="M2.6610 11.6225
L2.7215 11.7434
" />
<path d="M2.7215 11.7434
L2.7215 11.8644
" />
<path d="M2.7215 11.8644
L2.6610 12.0458
" />
<path d="M2.6610 12.0458
L1.9353 12.7715
" />
<path d="M1.9353 12.7715
L2.7215 12.7715
" />
<path d="M3.5076 11.5015
L3.6286 11.5015
" />
<path d="M3.6286 11.5015
L3.7495 11.5620
" />
<path d="M3.7495 11.5620
L3.8100 11.6225
" />
<path d="M3.8100 11.6225
L3.8705 11.7434
" />
<path d="M3.8705 11.7434
L3.9310 11.9853
" />
<path d="M3.9310 11.9853
L3.9310 12.2877
" />
<path d="M3.9310 12.2877
L3.8705 12.5296
" />
<path d="M3.8705 12.5296
L3.8100 12.6506
" />
<path d="M3.8100 12.6506
L3.7495 12.7111
" />
<path d="M3.7495 12.7111
L3.6286 12.7715
" />
<path d="M3.6286 12.7715
L3.5076 12.7715
" />
<path d="M3.5076 12.7715
L3.3867 12.7111
" />
<path d="M3.3867 12.7111
L3.3262 12.6506
" />
<path d="M3.3262 12.6506
L3.2657 12.5296
" />
<path d="M3.2657 12.5296
L3.2053 12.2877
" />
<path d="M3.2053 12.2877
L3.2053 11.9853
" />
<path d="M3.2053 11.9853
L3.2657 11.7434
" />
<path d="M3.2657 11.7434
L3.3262 11.6225
" />
<path d="M3.3262 11.6225
L3.3867 11.5620
" />
<path d="M3.3867 11.5620
L3.5076 11.5015
" />
<path d="M5.0195 11.9249
L5.0195 12.7715
" />
<path d="M4.7171 11.4411
L4.4148 12.3482
" />
<path d="M4.4148 12.3482
L5.2009 12.3482
" />
<path d="M5.9266 11.5015
L6.0476 11.5015
" />
<path d="M6.0476 11.5015
L6.1685 11.5620
" />
<path d="M6.1685 11.5620
L6.2290 11.6225
" />
<path d="M6.2290 11.6225
L6.2895 11.7434
" />
<path d="M6.2895 11.7434
L6.3500 11.9853
" />
<path d="M6.3500 11.9853
L6.3500 12.2877
" />
<path d="M6.3500 12.2877
L6.2895 12.5296
" />
<path d="M6.2895 12.5296
L6.2290 12.6506
" />
<path d="M6.2290 12.6506
L6.1685 12.7111
" />
<path d="M6.1685 12.7111
L6.0476 12.7715
" />
<path d="M6.0476 12.7715
L5.9266 12.7715
" />
<path d="M5.9266 12.7715
L5.8057 12.7111
" />
<path d="M5.8057 12.7111
L5.7452 12.6506
" />
<path d="M5.7452 12.6506
L5.6847 12.5296
" />
<path d="M5.6847 12.5296
L5.6243 12.2877
" />
<path d="M5.6243 12.2877
L5.6243 11.9853
" />
<path d="M5.6243 11.9853
L5.6847 11.7434
" />
<path d="M5.6847 11.7434
L5.7452 11.6225
" />
<path d="M5.7452 11.6225
L5.8057 11.5620
" />
<path d="M5.8057 11.5620
L5.9266 11.5015
" />
</g></g> 
</svg>
