<?xml version="1.0" standalone="no"?>
 <!DOCTYPE svg PUBLIC "-//W3C//DTD SVG 1.1//EN" 
 "http://www.w3.org/Graphics/SVG/1.1/DTD/svg11.dtd"> 
<svg
  xmlns:svg="http://www.w3.org/2000/svg"
  xmlns="http://www.w3.org/2000/svg"
  xmlns:xlink="http://www.w3.org/1999/xlink"
  version="1.1"
  width="34.4424mm" height="30.5054mm" viewBox="0.0000 0.0000 34.4424 30.5054">
<title>SVG Image created as XIAO_Generic_unit1.svg date 2025/05/12 22:52:33 </title>
  <desc>Image generated by Eeschema-SVG </desc>
<g style="fill:#000000; fill-opacity:1.0000;stroke:#000000; stroke-opacity:1.0000;
stroke-linecap:round; stroke-linejoin:round;"
 transform="translate(0 0) scale(1 1)">
</g>
<g style="fill:#FFFFC2; fill-opacity:1.0000; stroke:none;">
<rect x="5.791200" y="6.235700" width="22.860000" height="19.050000" rx="0.000000" />
</g>
<g style="fill:none; 
stroke:#840000; stroke-width:0.1524; stroke-opacity:1; 
stroke-linecap:round; stroke-linejoin:round;">
<rect x="5.791200" y="6.235700" width="22.860000" height="19.050000" rx="0.000000" />
<path d="M5.7912 8.1407
L3.2512 8.1407
" />
</g>
<g style="fill:none; 
stroke:#006464; stroke-width:0.1524; stroke-opacity:1; 
stroke-linecap:round; stroke-linejoin:round;">
<text x="6.2992" y="8.7757"
textLength="6.3113" font-size="1.6933" lengthAdjust="spacingAndGlyphs"
text-anchor="start" opacity="0" stroke-opacity="0">D0/A0</text>
<g class="stroked-text"><desc>D0/A0</desc>
<path d="M6.7017 8.7202
L6.7017 7.4502
" />
<path d="M6.7017 7.4502
L7.0041 7.4502
" />
<path d="M7.0041 7.4502
L7.1855 7.5107
" />
<path d="M7.1855 7.5107
L7.3065 7.6317
" />
<path d="M7.3065 7.6317
L7.3670 7.7526
" />
<path d="M7.3670 7.7526
L7.4274 7.9945
" />
<path d="M7.4274 7.9945
L7.4274 8.1759
" />
<path d="M7.4274 8.1759
L7.3670 8.4178
" />
<path d="M7.3670 8.4178
L7.3065 8.5388
" />
<path d="M7.3065 8.5388
L7.1855 8.6598
" />
<path d="M7.1855 8.6598
L7.0041 8.7202
" />
<path d="M7.0041 8.7202
L6.7017 8.7202
" />
<path d="M8.2136 7.4502
L8.3346 7.4502
" />
<path d="M8.3346 7.4502
L8.4555 7.5107
" />
<path d="M8.4555 7.5107
L8.5160 7.5712
" />
<path d="M8.5160 7.5712
L8.5765 7.6921
" />
<path d="M8.5765 7.6921
L8.6370 7.9340
" />
<path d="M8.6370 7.9340
L8.6370 8.2364
" />
<path d="M8.6370 8.2364
L8.5765 8.4783
" />
<path d="M8.5765 8.4783
L8.5160 8.5993
" />
<path d="M8.5160 8.5993
L8.4555 8.6598
" />
<path d="M8.4555 8.6598
L8.3346 8.7202
" />
<path d="M8.3346 8.7202
L8.2136 8.7202
" />
<path d="M8.2136 8.7202
L8.0927 8.6598
" />
<path d="M8.0927 8.6598
L8.0322 8.5993
" />
<path d="M8.0322 8.5993
L7.9717 8.4783
" />
<path d="M7.9717 8.4783
L7.9113 8.2364
" />
<path d="M7.9113 8.2364
L7.9113 7.9340
" />
<path d="M7.9113 7.9340
L7.9717 7.6921
" />
<path d="M7.9717 7.6921
L8.0322 7.5712
" />
<path d="M8.0322 7.5712
L8.0927 7.5107
" />
<path d="M8.0927 7.5107
L8.2136 7.4502
" />
<path d="M10.0884 7.3898
L8.9998 9.0226
" />
<path d="M10.4513 8.3574
L11.0560 8.3574
" />
<path d="M10.3303 8.7202
L10.7536 7.4502
" />
<path d="M10.7536 7.4502
L11.1770 8.7202
" />
<path d="M11.8422 7.4502
L11.9632 7.4502
" />
<path d="M11.9632 7.4502
L12.0841 7.5107
" />
<path d="M12.0841 7.5107
L12.1446 7.5712
" />
<path d="M12.1446 7.5712
L12.2051 7.6921
" />
<path d="M12.2051 7.6921
L12.2656 7.9340
" />
<path d="M12.2656 7.9340
L12.2656 8.2364
" />
<path d="M12.2656 8.2364
L12.2051 8.4783
" />
<path d="M12.2051 8.4783
L12.1446 8.5993
" />
<path d="M12.1446 8.5993
L12.0841 8.6598
" />
<path d="M12.0841 8.6598
L11.9632 8.7202
" />
<path d="M11.9632 8.7202
L11.8422 8.7202
" />
<path d="M11.8422 8.7202
L11.7213 8.6598
" />
<path d="M11.7213 8.6598
L11.6608 8.5993
" />
<path d="M11.6608 8.5993
L11.6003 8.4783
" />
<path d="M11.6003 8.4783
L11.5399 8.2364
" />
<path d="M11.5399 8.2364
L11.5399 7.9340
" />
<path d="M11.5399 7.9340
L11.6003 7.6921
" />
<path d="M11.6003 7.6921
L11.6608 7.5712
" />
<path d="M11.6608 7.5712
L11.7213 7.5107
" />
<path d="M11.7213 7.5107
L11.8422 7.4502
" />
</g></g>
<g style="fill:none; 
stroke:#A90000; stroke-width:0.1524; stroke-opacity:1; 
stroke-linecap:round; stroke-linejoin:round;">
<text x="4.5212" y="7.8867"
textLength="1.4127" font-size="1.6933" lengthAdjust="spacingAndGlyphs"
text-anchor="middle" opacity="0" stroke-opacity="0">1</text>
<g class="stroked-text"><desc>1</desc>
<path d="M4.8841 7.7232
L4.1584 7.7232
" />
<path d="M4.5212 7.7232
L4.5212 6.4532
" />
<path d="M4.5212 6.4532
L4.4003 6.6347
" />
<path d="M4.4003 6.6347
L4.2793 6.7556
" />
<path d="M4.2793 6.7556
L4.1584 6.8161
" />
</g></g>
<g style="fill:none; 
stroke:#840000; stroke-width:0.1524; stroke-opacity:1; 
stroke-linecap:round; stroke-linejoin:round;">
<path d="M5.7912 10.6807
L3.2512 10.6807
" />
</g>
<g style="fill:none; 
stroke:#006464; stroke-width:0.1524; stroke-opacity:1; 
stroke-linecap:round; stroke-linejoin:round;">
<text x="6.2992" y="11.3157"
textLength="6.3113" font-size="1.6933" lengthAdjust="spacingAndGlyphs"
text-anchor="start" opacity="0" stroke-opacity="0">D1/A1</text>
<g class="stroked-text"><desc>D1/A1</desc>
<path d="M6.7017 11.2602
L6.7017 9.9902
" />
<path d="M6.7017 9.9902
L7.0041 9.9902
" />
<path d="M7.0041 9.9902
L7.1855 10.0507
" />
<path d="M7.1855 10.0507
L7.3065 10.1717
" />
<path d="M7.3065 10.1717
L7.3670 10.2926
" />
<path d="M7.3670 10.2926
L7.4274 10.5345
" />
<path d="M7.4274 10.5345
L7.4274 10.7159
" />
<path d="M7.4274 10.7159
L7.3670 10.9578
" />
<path d="M7.3670 10.9578
L7.3065 11.0788
" />
<path d="M7.3065 11.0788
L7.1855 11.1998
" />
<path d="M7.1855 11.1998
L7.0041 11.2602
" />
<path d="M7.0041 11.2602
L6.7017 11.2602
" />
<path d="M8.6370 11.2602
L7.9113 11.2602
" />
<path d="M8.2741 11.2602
L8.2741 9.9902
" />
<path d="M8.2741 9.9902
L8.1532 10.1717
" />
<path d="M8.1532 10.1717
L8.0322 10.2926
" />
<path d="M8.0322 10.2926
L7.9113 10.3531
" />
<path d="M10.0884 9.9298
L8.9998 11.5626
" />
<path d="M10.4513 10.8974
L11.0560 10.8974
" />
<path d="M10.3303 11.2602
L10.7536 9.9902
" />
<path d="M10.7536 9.9902
L11.1770 11.2602
" />
<path d="M12.2656 11.2602
L11.5399 11.2602
" />
<path d="M11.9027 11.2602
L11.9027 9.9902
" />
<path d="M11.9027 9.9902
L11.7818 10.1717
" />
<path d="M11.7818 10.1717
L11.6608 10.2926
" />
<path d="M11.6608 10.2926
L11.5399 10.3531
" />
</g></g>
<g style="fill:none; 
stroke:#A90000; stroke-width:0.1524; stroke-opacity:1; 
stroke-linecap:round; stroke-linejoin:round;">
<text x="4.5212" y="10.4267"
textLength="1.4127" font-size="1.6933" lengthAdjust="spacingAndGlyphs"
text-anchor="middle" opacity="0" stroke-opacity="0">2</text>
<g class="stroked-text"><desc>2</desc>
<path d="M4.1584 9.1142
L4.2188 9.0537
" />
<path d="M4.2188 9.0537
L4.3398 8.9932
" />
<path d="M4.3398 8.9932
L4.6422 8.9932
" />
<path d="M4.6422 8.9932
L4.7631 9.0537
" />
<path d="M4.7631 9.0537
L4.8236 9.1142
" />
<path d="M4.8236 9.1142
L4.8841 9.2351
" />
<path d="M4.8841 9.2351
L4.8841 9.3561
" />
<path d="M4.8841 9.3561
L4.8236 9.5375
" />
<path d="M4.8236 9.5375
L4.0979 10.2632
" />
<path d="M4.0979 10.2632
L4.8841 10.2632
" />
</g></g>
<g style="fill:none; 
stroke:#840000; stroke-width:0.1524; stroke-opacity:1; 
stroke-linecap:round; stroke-linejoin:round;">
<path d="M5.7912 13.2207
L3.2512 13.2207
" />
</g>
<g style="fill:none; 
stroke:#006464; stroke-width:0.1524; stroke-opacity:1; 
stroke-linecap:round; stroke-linejoin:round;">
<text x="6.2992" y="13.8557"
textLength="6.3113" font-size="1.6933" lengthAdjust="spacingAndGlyphs"
text-anchor="start" opacity="0" stroke-opacity="0">D2/A2</text>
<g class="stroked-text"><desc>D2/A2</desc>
<path d="M6.7017 13.8002
L6.7017 12.5302
" />
<path d="M6.7017 12.5302
L7.0041 12.5302
" />
<path d="M7.0041 12.5302
L7.1855 12.5907
" />
<path d="M7.1855 12.5907
L7.3065 12.7117
" />
<path d="M7.3065 12.7117
L7.3670 12.8326
" />
<path d="M7.3670 12.8326
L7.4274 13.0745
" />
<path d="M7.4274 13.0745
L7.4274 13.2559
" />
<path d="M7.4274 13.2559
L7.3670 13.4978
" />
<path d="M7.3670 13.4978
L7.3065 13.6188
" />
<path d="M7.3065 13.6188
L7.1855 13.7398
" />
<path d="M7.1855 13.7398
L7.0041 13.8002
" />
<path d="M7.0041 13.8002
L6.7017 13.8002
" />
<path d="M7.9113 12.6512
L7.9717 12.5907
" />
<path d="M7.9717 12.5907
L8.0927 12.5302
" />
<path d="M8.0927 12.5302
L8.3951 12.5302
" />
<path d="M8.3951 12.5302
L8.5160 12.5907
" />
<path d="M8.5160 12.5907
L8.5765 12.6512
" />
<path d="M8.5765 12.6512
L8.6370 12.7721
" />
<path d="M8.6370 12.7721
L8.6370 12.8931
" />
<path d="M8.6370 12.8931
L8.5765 13.0745
" />
<path d="M8.5765 13.0745
L7.8508 13.8002
" />
<path d="M7.8508 13.8002
L8.6370 13.8002
" />
<path d="M10.0884 12.4698
L8.9998 14.1026
" />
<path d="M10.4513 13.4374
L11.0560 13.4374
" />
<path d="M10.3303 13.8002
L10.7536 12.5302
" />
<path d="M10.7536 12.5302
L11.1770 13.8002
" />
<path d="M11.5399 12.6512
L11.6003 12.5907
" />
<path d="M11.6003 12.5907
L11.7213 12.5302
" />
<path d="M11.7213 12.5302
L12.0237 12.5302
" />
<path d="M12.0237 12.5302
L12.1446 12.5907
" />
<path d="M12.1446 12.5907
L12.2051 12.6512
" />
<path d="M12.2051 12.6512
L12.2656 12.7721
" />
<path d="M12.2656 12.7721
L12.2656 12.8931
" />
<path d="M12.2656 12.8931
L12.2051 13.0745
" />
<path d="M12.2051 13.0745
L11.4794 13.8002
" />
<path d="M11.4794 13.8002
L12.2656 13.8002
" />
</g></g>
<g style="fill:none; 
stroke:#A90000; stroke-width:0.1524; stroke-opacity:1; 
stroke-linecap:round; stroke-linejoin:round;">
<text x="4.5212" y="12.9667"
textLength="1.4127" font-size="1.6933" lengthAdjust="spacingAndGlyphs"
text-anchor="middle" opacity="0" stroke-opacity="0">3</text>
<g class="stroked-text"><desc>3</desc>
<path d="M4.0979 11.5332
L4.8841 11.5332
" />
<path d="M4.8841 11.5332
L4.4607 12.0170
" />
<path d="M4.4607 12.0170
L4.6422 12.0170
" />
<path d="M4.6422 12.0170
L4.7631 12.0775
" />
<path d="M4.7631 12.0775
L4.8236 12.1380
" />
<path d="M4.8236 12.1380
L4.8841 12.2589
" />
<path d="M4.8841 12.2589
L4.8841 12.5613
" />
<path d="M4.8841 12.5613
L4.8236 12.6823
" />
<path d="M4.8236 12.6823
L4.7631 12.7428
" />
<path d="M4.7631 12.7428
L4.6422 12.8032
" />
<path d="M4.6422 12.8032
L4.2793 12.8032
" />
<path d="M4.2793 12.8032
L4.1584 12.7428
" />
<path d="M4.1584 12.7428
L4.0979 12.6823
" />
</g></g>
<g style="fill:none; 
stroke:#840000; stroke-width:0.1524; stroke-opacity:1; 
stroke-linecap:round; stroke-linejoin:round;">
<path d="M5.7912 15.7607
L3.2512 15.7607
" />
</g>
<g style="fill:none; 
stroke:#006464; stroke-width:0.1524; stroke-opacity:1; 
stroke-linecap:round; stroke-linejoin:round;">
<text x="6.2992" y="16.3957"
textLength="6.3113" font-size="1.6933" lengthAdjust="spacingAndGlyphs"
text-anchor="start" opacity="0" stroke-opacity="0">D3/A3</text>
<g class="stroked-text"><desc>D3/A3</desc>
<path d="M6.7017 16.3402
L6.7017 15.0702
" />
<path d="M6.7017 15.0702
L7.0041 15.0702
" />
<path d="M7.0041 15.0702
L7.1855 15.1307
" />
<path d="M7.1855 15.1307
L7.3065 15.2517
" />
<path d="M7.3065 15.2517
L7.3670 15.3726
" />
<path d="M7.3670 15.3726
L7.4274 15.6145
" />
<path d="M7.4274 15.6145
L7.4274 15.7959
" />
<path d="M7.4274 15.7959
L7.3670 16.0378
" />
<path d="M7.3670 16.0378
L7.3065 16.1588
" />
<path d="M7.3065 16.1588
L7.1855 16.2798
" />
<path d="M7.1855 16.2798
L7.0041 16.3402
" />
<path d="M7.0041 16.3402
L6.7017 16.3402
" />
<path d="M7.8508 15.0702
L8.6370 15.0702
" />
<path d="M8.6370 15.0702
L8.2136 15.5540
" />
<path d="M8.2136 15.5540
L8.3951 15.5540
" />
<path d="M8.3951 15.5540
L8.5160 15.6145
" />
<path d="M8.5160 15.6145
L8.5765 15.6750
" />
<path d="M8.5765 15.6750
L8.6370 15.7959
" />
<path d="M8.6370 15.7959
L8.6370 16.0983
" />
<path d="M8.6370 16.0983
L8.5765 16.2193
" />
<path d="M8.5765 16.2193
L8.5160 16.2798
" />
<path d="M8.5160 16.2798
L8.3951 16.3402
" />
<path d="M8.3951 16.3402
L8.0322 16.3402
" />
<path d="M8.0322 16.3402
L7.9113 16.2798
" />
<path d="M7.9113 16.2798
L7.8508 16.2193
" />
<path d="M10.0884 15.0098
L8.9998 16.6426
" />
<path d="M10.4513 15.9774
L11.0560 15.9774
" />
<path d="M10.3303 16.3402
L10.7536 15.0702
" />
<path d="M10.7536 15.0702
L11.1770 16.3402
" />
<path d="M11.4794 15.0702
L12.2656 15.0702
" />
<path d="M12.2656 15.0702
L11.8422 15.5540
" />
<path d="M11.8422 15.5540
L12.0237 15.5540
" />
<path d="M12.0237 15.5540
L12.1446 15.6145
" />
<path d="M12.1446 15.6145
L12.2051 15.6750
" />
<path d="M12.2051 15.6750
L12.2656 15.7959
" />
<path d="M12.2656 15.7959
L12.2656 16.0983
" />
<path d="M12.2656 16.0983
L12.2051 16.2193
" />
<path d="M12.2051 16.2193
L12.1446 16.2798
" />
<path d="M12.1446 16.2798
L12.0237 16.3402
" />
<path d="M12.0237 16.3402
L11.6608 16.3402
" />
<path d="M11.6608 16.3402
L11.5399 16.2798
" />
<path d="M11.5399 16.2798
L11.4794 16.2193
" />
</g></g>
<g style="fill:none; 
stroke:#A90000; stroke-width:0.1524; stroke-opacity:1; 
stroke-linecap:round; stroke-linejoin:round;">
<text x="4.5212" y="15.5067"
textLength="1.4127" font-size="1.6933" lengthAdjust="spacingAndGlyphs"
text-anchor="middle" opacity="0" stroke-opacity="0">4</text>
<g class="stroked-text"><desc>4</desc>
<path d="M4.7631 14.4966
L4.7631 15.3432
" />
<path d="M4.4607 14.0128
L4.1584 14.9199
" />
<path d="M4.1584 14.9199
L4.9445 14.9199
" />
</g></g>
<g style="fill:none; 
stroke:#840000; stroke-width:0.1524; stroke-opacity:1; 
stroke-linecap:round; stroke-linejoin:round;">
<path d="M5.7912 18.3007
L3.2512 18.3007
" />
</g>
<g style="fill:none; 
stroke:#006464; stroke-width:0.1524; stroke-opacity:1; 
stroke-linecap:round; stroke-linejoin:round;">
<text x="6.2992" y="18.9357"
textLength="7.5813" font-size="1.6933" lengthAdjust="spacingAndGlyphs"
text-anchor="start" opacity="0" stroke-opacity="0">D4/SDA</text>
<g class="stroked-text"><desc>D4/SDA</desc>
<path d="M6.7017 18.8802
L6.7017 17.6102
" />
<path d="M6.7017 17.6102
L7.0041 17.6102
" />
<path d="M7.0041 17.6102
L7.1855 17.6707
" />
<path d="M7.1855 17.6707
L7.3065 17.7917
" />
<path d="M7.3065 17.7917
L7.3670 17.9126
" />
<path d="M7.3670 17.9126
L7.4274 18.1545
" />
<path d="M7.4274 18.1545
L7.4274 18.3359
" />
<path d="M7.4274 18.3359
L7.3670 18.5778
" />
<path d="M7.3670 18.5778
L7.3065 18.6988
" />
<path d="M7.3065 18.6988
L7.1855 18.8198
" />
<path d="M7.1855 18.8198
L7.0041 18.8802
" />
<path d="M7.0041 18.8802
L6.7017 18.8802
" />
<path d="M8.5160 18.0336
L8.5160 18.8802
" />
<path d="M8.2136 17.5498
L7.9113 18.4569
" />
<path d="M7.9113 18.4569
L8.6974 18.4569
" />
<path d="M10.0884 17.5498
L8.9998 19.1826
" />
<path d="M10.4513 18.8198
L10.6327 18.8802
" />
<path d="M10.6327 18.8802
L10.9351 18.8802
" />
<path d="M10.9351 18.8802
L11.0560 18.8198
" />
<path d="M11.0560 18.8198
L11.1165 18.7593
" />
<path d="M11.1165 18.7593
L11.1770 18.6383
" />
<path d="M11.1770 18.6383
L11.1770 18.5174
" />
<path d="M11.1770 18.5174
L11.1165 18.3964
" />
<path d="M11.1165 18.3964
L11.0560 18.3359
" />
<path d="M11.0560 18.3359
L10.9351 18.2755
" />
<path d="M10.9351 18.2755
L10.6932 18.2150
" />
<path d="M10.6932 18.2150
L10.5722 18.1545
" />
<path d="M10.5722 18.1545
L10.5117 18.0940
" />
<path d="M10.5117 18.0940
L10.4513 17.9731
" />
<path d="M10.4513 17.9731
L10.4513 17.8521
" />
<path d="M10.4513 17.8521
L10.5117 17.7312
" />
<path d="M10.5117 17.7312
L10.5722 17.6707
" />
<path d="M10.5722 17.6707
L10.6932 17.6102
" />
<path d="M10.6932 17.6102
L10.9955 17.6102
" />
<path d="M10.9955 17.6102
L11.1770 17.6707
" />
<path d="M11.7212 18.8802
L11.7212 17.6102
" />
<path d="M11.7212 17.6102
L12.0236 17.6102
" />
<path d="M12.0236 17.6102
L12.2050 17.6707
" />
<path d="M12.2050 17.6707
L12.3260 17.7917
" />
<path d="M12.3260 17.7917
L12.3865 17.9126
" />
<path d="M12.3865 17.9126
L12.4469 18.1545
" />
<path d="M12.4469 18.1545
L12.4469 18.3359
" />
<path d="M12.4469 18.3359
L12.3865 18.5778
" />
<path d="M12.3865 18.5778
L12.3260 18.6988
" />
<path d="M12.3260 18.6988
L12.2050 18.8198
" />
<path d="M12.2050 18.8198
L12.0236 18.8802
" />
<path d="M12.0236 18.8802
L11.7212 18.8802
" />
<path d="M12.9308 18.5174
L13.5355 18.5174
" />
<path d="M12.8098 18.8802
L13.2331 17.6102
" />
<path d="M13.2331 17.6102
L13.6565 18.8802
" />
</g></g>
<g style="fill:none; 
stroke:#A90000; stroke-width:0.1524; stroke-opacity:1; 
stroke-linecap:round; stroke-linejoin:round;">
<text x="4.5212" y="18.0467"
textLength="1.4127" font-size="1.6933" lengthAdjust="spacingAndGlyphs"
text-anchor="middle" opacity="0" stroke-opacity="0">5</text>
<g class="stroked-text"><desc>5</desc>
<path d="M4.8236 16.6132
L4.2188 16.6132
" />
<path d="M4.2188 16.6132
L4.1584 17.2180
" />
<path d="M4.1584 17.2180
L4.2188 17.1575
" />
<path d="M4.2188 17.1575
L4.3398 17.0970
" />
<path d="M4.3398 17.0970
L4.6422 17.0970
" />
<path d="M4.6422 17.0970
L4.7631 17.1575
" />
<path d="M4.7631 17.1575
L4.8236 17.2180
" />
<path d="M4.8236 17.2180
L4.8841 17.3389
" />
<path d="M4.8841 17.3389
L4.8841 17.6413
" />
<path d="M4.8841 17.6413
L4.8236 17.7623
" />
<path d="M4.8236 17.7623
L4.7631 17.8228
" />
<path d="M4.7631 17.8228
L4.6422 17.8832
" />
<path d="M4.6422 17.8832
L4.3398 17.8832
" />
<path d="M4.3398 17.8832
L4.2188 17.8228
" />
<path d="M4.2188 17.8228
L4.1584 17.7623
" />
</g></g>
<g style="fill:none; 
stroke:#840000; stroke-width:0.1524; stroke-opacity:1; 
stroke-linecap:round; stroke-linejoin:round;">
<path d="M5.7912 20.8407
L3.2512 20.8407
" />
</g>
<g style="fill:none; 
stroke:#006464; stroke-width:0.1524; stroke-opacity:1; 
stroke-linecap:round; stroke-linejoin:round;">
<text x="6.2992" y="21.4757"
textLength="7.5208" font-size="1.6933" lengthAdjust="spacingAndGlyphs"
text-anchor="start" opacity="0" stroke-opacity="0">D5/SCL</text>
<g class="stroked-text"><desc>D5/SCL</desc>
<path d="M6.7017 21.4202
L6.7017 20.1502
" />
<path d="M6.7017 20.1502
L7.0041 20.1502
" />
<path d="M7.0041 20.1502
L7.1855 20.2107
" />
<path d="M7.1855 20.2107
L7.3065 20.3317
" />
<path d="M7.3065 20.3317
L7.3670 20.4526
" />
<path d="M7.3670 20.4526
L7.4274 20.6945
" />
<path d="M7.4274 20.6945
L7.4274 20.8759
" />
<path d="M7.4274 20.8759
L7.3670 21.1178
" />
<path d="M7.3670 21.1178
L7.3065 21.2388
" />
<path d="M7.3065 21.2388
L7.1855 21.3598
" />
<path d="M7.1855 21.3598
L7.0041 21.4202
" />
<path d="M7.0041 21.4202
L6.7017 21.4202
" />
<path d="M8.5765 20.1502
L7.9717 20.1502
" />
<path d="M7.9717 20.1502
L7.9113 20.7550
" />
<path d="M7.9113 20.7550
L7.9717 20.6945
" />
<path d="M7.9717 20.6945
L8.0927 20.6340
" />
<path d="M8.0927 20.6340
L8.3951 20.6340
" />
<path d="M8.3951 20.6340
L8.5160 20.6945
" />
<path d="M8.5160 20.6945
L8.5765 20.7550
" />
<path d="M8.5765 20.7550
L8.6370 20.8759
" />
<path d="M8.6370 20.8759
L8.6370 21.1783
" />
<path d="M8.6370 21.1783
L8.5765 21.2993
" />
<path d="M8.5765 21.2993
L8.5160 21.3598
" />
<path d="M8.5160 21.3598
L8.3951 21.4202
" />
<path d="M8.3951 21.4202
L8.0927 21.4202
" />
<path d="M8.0927 21.4202
L7.9717 21.3598
" />
<path d="M7.9717 21.3598
L7.9113 21.2993
" />
<path d="M10.0884 20.0898
L8.9998 21.7226
" />
<path d="M10.4513 21.3598
L10.6327 21.4202
" />
<path d="M10.6327 21.4202
L10.9351 21.4202
" />
<path d="M10.9351 21.4202
L11.0560 21.3598
" />
<path d="M11.0560 21.3598
L11.1165 21.2993
" />
<path d="M11.1165 21.2993
L11.1770 21.1783
" />
<path d="M11.1770 21.1783
L11.1770 21.0574
" />
<path d="M11.1770 21.0574
L11.1165 20.9364
" />
<path d="M11.1165 20.9364
L11.0560 20.8759
" />
<path d="M11.0560 20.8759
L10.9351 20.8155
" />
<path d="M10.9351 20.8155
L10.6932 20.7550
" />
<path d="M10.6932 20.7550
L10.5722 20.6945
" />
<path d="M10.5722 20.6945
L10.5117 20.6340
" />
<path d="M10.5117 20.6340
L10.4513 20.5131
" />
<path d="M10.4513 20.5131
L10.4513 20.3921
" />
<path d="M10.4513 20.3921
L10.5117 20.2712
" />
<path d="M10.5117 20.2712
L10.5722 20.2107
" />
<path d="M10.5722 20.2107
L10.6932 20.1502
" />
<path d="M10.6932 20.1502
L10.9955 20.1502
" />
<path d="M10.9955 20.1502
L11.1770 20.2107
" />
<path d="M12.4469 21.2993
L12.3865 21.3598
" />
<path d="M12.3865 21.3598
L12.2050 21.4202
" />
<path d="M12.2050 21.4202
L12.0841 21.4202
" />
<path d="M12.0841 21.4202
L11.9027 21.3598
" />
<path d="M11.9027 21.3598
L11.7817 21.2388
" />
<path d="M11.7817 21.2388
L11.7212 21.1178
" />
<path d="M11.7212 21.1178
L11.6608 20.8759
" />
<path d="M11.6608 20.8759
L11.6608 20.6945
" />
<path d="M11.6608 20.6945
L11.7212 20.4526
" />
<path d="M11.7212 20.4526
L11.7817 20.3317
" />
<path d="M11.7817 20.3317
L11.9027 20.2107
" />
<path d="M11.9027 20.2107
L12.0841 20.1502
" />
<path d="M12.0841 20.1502
L12.2050 20.1502
" />
<path d="M12.2050 20.1502
L12.3865 20.2107
" />
<path d="M12.3865 20.2107
L12.4469 20.2712
" />
<path d="M13.5960 21.4202
L12.9912 21.4202
" />
<path d="M12.9912 21.4202
L12.9912 20.1502
" />
</g></g>
<g style="fill:none; 
stroke:#A90000; stroke-width:0.1524; stroke-opacity:1; 
stroke-linecap:round; stroke-linejoin:round;">
<text x="4.5212" y="20.5867"
textLength="1.4127" font-size="1.6933" lengthAdjust="spacingAndGlyphs"
text-anchor="middle" opacity="0" stroke-opacity="0">6</text>
<g class="stroked-text"><desc>6</desc>
<path d="M4.7631 19.1532
L4.5212 19.1532
" />
<path d="M4.5212 19.1532
L4.4003 19.2137
" />
<path d="M4.4003 19.2137
L4.3398 19.2742
" />
<path d="M4.3398 19.2742
L4.2188 19.4556
" />
<path d="M4.2188 19.4556
L4.1584 19.6975
" />
<path d="M4.1584 19.6975
L4.1584 20.1813
" />
<path d="M4.1584 20.1813
L4.2188 20.3023
" />
<path d="M4.2188 20.3023
L4.2793 20.3628
" />
<path d="M4.2793 20.3628
L4.4003 20.4232
" />
<path d="M4.4003 20.4232
L4.6422 20.4232
" />
<path d="M4.6422 20.4232
L4.7631 20.3628
" />
<path d="M4.7631 20.3628
L4.8236 20.3023
" />
<path d="M4.8236 20.3023
L4.8841 20.1813
" />
<path d="M4.8841 20.1813
L4.8841 19.8789
" />
<path d="M4.8841 19.8789
L4.8236 19.7580
" />
<path d="M4.8236 19.7580
L4.7631 19.6975
" />
<path d="M4.7631 19.6975
L4.6422 19.6370
" />
<path d="M4.6422 19.6370
L4.4003 19.6370
" />
<path d="M4.4003 19.6370
L4.2793 19.6975
" />
<path d="M4.2793 19.6975
L4.2188 19.7580
" />
<path d="M4.2188 19.7580
L4.1584 19.8789
" />
</g></g>
<g style="fill:none; 
stroke:#840000; stroke-width:0.1524; stroke-opacity:1; 
stroke-linecap:round; stroke-linejoin:round;">
<path d="M5.7912 23.3807
L3.2512 23.3807
" />
</g>
<g style="fill:none; 
stroke:#006464; stroke-width:0.1524; stroke-opacity:1; 
stroke-linecap:round; stroke-linejoin:round;">
<text x="6.2992" y="24.0157"
textLength="6.1903" font-size="1.6933" lengthAdjust="spacingAndGlyphs"
text-anchor="start" opacity="0" stroke-opacity="0">D6/TX</text>
<g class="stroked-text"><desc>D6/TX</desc>
<path d="M6.7017 23.9602
L6.7017 22.6902
" />
<path d="M6.7017 22.6902
L7.0041 22.6902
" />
<path d="M7.0041 22.6902
L7.1855 22.7507
" />
<path d="M7.1855 22.7507
L7.3065 22.8717
" />
<path d="M7.3065 22.8717
L7.3670 22.9926
" />
<path d="M7.3670 22.9926
L7.4274 23.2345
" />
<path d="M7.4274 23.2345
L7.4274 23.4159
" />
<path d="M7.4274 23.4159
L7.3670 23.6578
" />
<path d="M7.3670 23.6578
L7.3065 23.7788
" />
<path d="M7.3065 23.7788
L7.1855 23.8998
" />
<path d="M7.1855 23.8998
L7.0041 23.9602
" />
<path d="M7.0041 23.9602
L6.7017 23.9602
" />
<path d="M8.5160 22.6902
L8.2741 22.6902
" />
<path d="M8.2741 22.6902
L8.1532 22.7507
" />
<path d="M8.1532 22.7507
L8.0927 22.8112
" />
<path d="M8.0927 22.8112
L7.9717 22.9926
" />
<path d="M7.9717 22.9926
L7.9113 23.2345
" />
<path d="M7.9113 23.2345
L7.9113 23.7183
" />
<path d="M7.9113 23.7183
L7.9717 23.8393
" />
<path d="M7.9717 23.8393
L8.0322 23.8998
" />
<path d="M8.0322 23.8998
L8.1532 23.9602
" />
<path d="M8.1532 23.9602
L8.3951 23.9602
" />
<path d="M8.3951 23.9602
L8.5160 23.8998
" />
<path d="M8.5160 23.8998
L8.5765 23.8393
" />
<path d="M8.5765 23.8393
L8.6370 23.7183
" />
<path d="M8.6370 23.7183
L8.6370 23.4159
" />
<path d="M8.6370 23.4159
L8.5765 23.2950
" />
<path d="M8.5765 23.2950
L8.5160 23.2345
" />
<path d="M8.5160 23.2345
L8.3951 23.1740
" />
<path d="M8.3951 23.1740
L8.1532 23.1740
" />
<path d="M8.1532 23.1740
L8.0322 23.2345
" />
<path d="M8.0322 23.2345
L7.9717 23.2950
" />
<path d="M7.9717 23.2950
L7.9113 23.4159
" />
<path d="M10.0884 22.6298
L8.9998 24.2626
" />
<path d="M10.3303 22.6902
L11.0560 22.6902
" />
<path d="M10.6932 23.9602
L10.6932 22.6902
" />
<path d="M11.3584 22.6902
L12.2050 23.9602
" />
<path d="M12.2050 22.6902
L11.3584 23.9602
" />
</g></g>
<g style="fill:none; 
stroke:#A90000; stroke-width:0.1524; stroke-opacity:1; 
stroke-linecap:round; stroke-linejoin:round;">
<text x="4.5212" y="23.1267"
textLength="1.4127" font-size="1.6933" lengthAdjust="spacingAndGlyphs"
text-anchor="middle" opacity="0" stroke-opacity="0">7</text>
<g class="stroked-text"><desc>7</desc>
<path d="M4.0979 21.6932
L4.9445 21.6932
" />
<path d="M4.9445 21.6932
L4.4003 22.9632
" />
</g></g>
<g style="fill:none; 
stroke:#840000; stroke-width:0.1524; stroke-opacity:1; 
stroke-linecap:round; stroke-linejoin:round;">
<path d="M28.6512 8.1407
L31.1912 8.1407
" />
</g>
<g style="fill:none; 
stroke:#006464; stroke-width:0.1524; stroke-opacity:1; 
stroke-linecap:round; stroke-linejoin:round;">
<text x="28.1432" y="8.7757"
textLength="2.5013" font-size="1.6933" lengthAdjust="spacingAndGlyphs"
text-anchor="end" opacity="0" stroke-opacity="0">5V</text>
<g class="stroked-text"><desc>5V</desc>
<path d="M26.6520 7.4502
L26.0472 7.4502
" />
<path d="M26.0472 7.4502
L25.9868 8.0550
" />
<path d="M25.9868 8.0550
L26.0472 7.9945
" />
<path d="M26.0472 7.9945
L26.1682 7.9340
" />
<path d="M26.1682 7.9340
L26.4706 7.9340
" />
<path d="M26.4706 7.9340
L26.5915 7.9945
" />
<path d="M26.5915 7.9945
L26.6520 8.0550
" />
<path d="M26.6520 8.0550
L26.7125 8.1759
" />
<path d="M26.7125 8.1759
L26.7125 8.4783
" />
<path d="M26.7125 8.4783
L26.6520 8.5993
" />
<path d="M26.6520 8.5993
L26.5915 8.6598
" />
<path d="M26.5915 8.6598
L26.4706 8.7202
" />
<path d="M26.4706 8.7202
L26.1682 8.7202
" />
<path d="M26.1682 8.7202
L26.0472 8.6598
" />
<path d="M26.0472 8.6598
L25.9868 8.5993
" />
<path d="M27.0753 7.4502
L27.4986 8.7202
" />
<path d="M27.4986 8.7202
L27.9220 7.4502
" />
</g></g>
<g style="fill:none; 
stroke:#A90000; stroke-width:0.1524; stroke-opacity:1; 
stroke-linecap:round; stroke-linejoin:round;">
<text x="29.9212" y="7.8867"
textLength="2.6222" font-size="1.6933" lengthAdjust="spacingAndGlyphs"
text-anchor="middle" opacity="0" stroke-opacity="0">14</text>
<g class="stroked-text"><desc>14</desc>
<path d="M29.6793 7.7232
L28.9536 7.7232
" />
<path d="M29.3164 7.7232
L29.3164 6.4532
" />
<path d="M29.3164 6.4532
L29.1955 6.6347
" />
<path d="M29.1955 6.6347
L29.0745 6.7556
" />
<path d="M29.0745 6.7556
L28.9536 6.8161
" />
<path d="M30.7678 6.8766
L30.7678 7.7232
" />
<path d="M30.4654 6.3928
L30.1631 7.2999
" />
<path d="M30.1631 7.2999
L30.9492 7.2999
" />
</g></g>
<g style="fill:none; 
stroke:#840000; stroke-width:0.1524; stroke-opacity:1; 
stroke-linecap:round; stroke-linejoin:round;">
<path d="M28.6512 10.6807
L31.1912 10.6807
" />
</g>
<g style="fill:none; 
stroke:#006464; stroke-width:0.1524; stroke-opacity:1; 
stroke-linecap:round; stroke-linejoin:round;">
<text x="28.1432" y="11.3157"
textLength="4.0737" font-size="1.6933" lengthAdjust="spacingAndGlyphs"
text-anchor="end" opacity="0" stroke-opacity="0">GND</text>
<g class="stroked-text"><desc>GND</desc>
<path d="M25.1401 10.0507
L25.0191 9.9902
" />
<path d="M25.0191 9.9902
L24.8377 9.9902
" />
<path d="M24.8377 9.9902
L24.6563 10.0507
" />
<path d="M24.6563 10.0507
L24.5353 10.1717
" />
<path d="M24.5353 10.1717
L24.4748 10.2926
" />
<path d="M24.4748 10.2926
L24.4144 10.5345
" />
<path d="M24.4144 10.5345
L24.4144 10.7159
" />
<path d="M24.4144 10.7159
L24.4748 10.9578
" />
<path d="M24.4748 10.9578
L24.5353 11.0788
" />
<path d="M24.5353 11.0788
L24.6563 11.1998
" />
<path d="M24.6563 11.1998
L24.8377 11.2602
" />
<path d="M24.8377 11.2602
L24.9586 11.2602
" />
<path d="M24.9586 11.2602
L25.1401 11.1998
" />
<path d="M25.1401 11.1998
L25.2005 11.1393
" />
<path d="M25.2005 11.1393
L25.2005 10.7159
" />
<path d="M25.2005 10.7159
L24.9586 10.7159
" />
<path d="M25.7448 11.2602
L25.7448 9.9902
" />
<path d="M25.7448 9.9902
L26.4705 11.2602
" />
<path d="M26.4705 11.2602
L26.4705 9.9902
" />
<path d="M27.0753 11.2602
L27.0753 9.9902
" />
<path d="M27.0753 9.9902
L27.3777 9.9902
" />
<path d="M27.3777 9.9902
L27.5591 10.0507
" />
<path d="M27.5591 10.0507
L27.6801 10.1717
" />
<path d="M27.6801 10.1717
L27.7406 10.2926
" />
<path d="M27.7406 10.2926
L27.8010 10.5345
" />
<path d="M27.8010 10.5345
L27.8010 10.7159
" />
<path d="M27.8010 10.7159
L27.7406 10.9578
" />
<path d="M27.7406 10.9578
L27.6801 11.0788
" />
<path d="M27.6801 11.0788
L27.5591 11.1998
" />
<path d="M27.5591 11.1998
L27.3777 11.2602
" />
<path d="M27.3777 11.2602
L27.0753 11.2602
" />
</g></g>
<g style="fill:none; 
stroke:#A90000; stroke-width:0.1524; stroke-opacity:1; 
stroke-linecap:round; stroke-linejoin:round;">
<text x="29.9212" y="10.4267"
textLength="2.6222" font-size="1.6933" lengthAdjust="spacingAndGlyphs"
text-anchor="middle" opacity="0" stroke-opacity="0">13</text>
<g class="stroked-text"><desc>13</desc>
<path d="M29.6793 10.2632
L28.9536 10.2632
" />
<path d="M29.3164 10.2632
L29.3164 8.9932
" />
<path d="M29.3164 8.9932
L29.1955 9.1747
" />
<path d="M29.1955 9.1747
L29.0745 9.2956
" />
<path d="M29.0745 9.2956
L28.9536 9.3561
" />
<path d="M30.1026 8.9932
L30.8888 8.9932
" />
<path d="M30.8888 8.9932
L30.4654 9.4770
" />
<path d="M30.4654 9.4770
L30.6469 9.4770
" />
<path d="M30.6469 9.4770
L30.7678 9.5375
" />
<path d="M30.7678 9.5375
L30.8283 9.5980
" />
<path d="M30.8283 9.5980
L30.8888 9.7189
" />
<path d="M30.8888 9.7189
L30.8888 10.0213
" />
<path d="M30.8888 10.0213
L30.8283 10.1423
" />
<path d="M30.8283 10.1423
L30.7678 10.2028
" />
<path d="M30.7678 10.2028
L30.6469 10.2632
" />
<path d="M30.6469 10.2632
L30.2840 10.2632
" />
<path d="M30.2840 10.2632
L30.1631 10.2028
" />
<path d="M30.1631 10.2028
L30.1026 10.1423
" />
</g></g>
<g style="fill:none; 
stroke:#840000; stroke-width:0.1524; stroke-opacity:1; 
stroke-linecap:round; stroke-linejoin:round;">
<path d="M28.6512 13.2207
L31.1912 13.2207
" />
</g>
<g style="fill:none; 
stroke:#006464; stroke-width:0.1524; stroke-opacity:1; 
stroke-linecap:round; stroke-linejoin:round;">
<text x="28.1432" y="13.8557"
textLength="3.7108" font-size="1.6933" lengthAdjust="spacingAndGlyphs"
text-anchor="end" opacity="0" stroke-opacity="0">3V3</text>
<g class="stroked-text"><desc>3V3</desc>
<path d="M24.7168 12.5302
L25.5030 12.5302
" />
<path d="M25.5030 12.5302
L25.0796 13.0140
" />
<path d="M25.0796 13.0140
L25.2611 13.0140
" />
<path d="M25.2611 13.0140
L25.3820 13.0745
" />
<path d="M25.3820 13.0745
L25.4425 13.1350
" />
<path d="M25.4425 13.1350
L25.5030 13.2559
" />
<path d="M25.5030 13.2559
L25.5030 13.5583
" />
<path d="M25.5030 13.5583
L25.4425 13.6793
" />
<path d="M25.4425 13.6793
L25.3820 13.7398
" />
<path d="M25.3820 13.7398
L25.2611 13.8002
" />
<path d="M25.2611 13.8002
L24.8982 13.8002
" />
<path d="M24.8982 13.8002
L24.7773 13.7398
" />
<path d="M24.7773 13.7398
L24.7168 13.6793
" />
<path d="M25.8658 12.5302
L26.2891 13.8002
" />
<path d="M26.2891 13.8002
L26.7125 12.5302
" />
<path d="M27.0149 12.5302
L27.8011 12.5302
" />
<path d="M27.8011 12.5302
L27.3777 13.0140
" />
<path d="M27.3777 13.0140
L27.5592 13.0140
" />
<path d="M27.5592 13.0140
L27.6801 13.0745
" />
<path d="M27.6801 13.0745
L27.7406 13.1350
" />
<path d="M27.7406 13.1350
L27.8011 13.2559
" />
<path d="M27.8011 13.2559
L27.8011 13.5583
" />
<path d="M27.8011 13.5583
L27.7406 13.6793
" />
<path d="M27.7406 13.6793
L27.6801 13.7398
" />
<path d="M27.6801 13.7398
L27.5592 13.8002
" />
<path d="M27.5592 13.8002
L27.1963 13.8002
" />
<path d="M27.1963 13.8002
L27.0754 13.7398
" />
<path d="M27.0754 13.7398
L27.0149 13.6793
" />
</g></g>
<g style="fill:none; 
stroke:#A90000; stroke-width:0.1524; stroke-opacity:1; 
stroke-linecap:round; stroke-linejoin:round;">
<text x="29.9212" y="12.9667"
textLength="2.6222" font-size="1.6933" lengthAdjust="spacingAndGlyphs"
text-anchor="middle" opacity="0" stroke-opacity="0">12</text>
<g class="stroked-text"><desc>12</desc>
<path d="M29.6793 12.8032
L28.9536 12.8032
" />
<path d="M29.3164 12.8032
L29.3164 11.5332
" />
<path d="M29.3164 11.5332
L29.1955 11.7147
" />
<path d="M29.1955 11.7147
L29.0745 11.8356
" />
<path d="M29.0745 11.8356
L28.9536 11.8961
" />
<path d="M30.1631 11.6542
L30.2235 11.5937
" />
<path d="M30.2235 11.5937
L30.3445 11.5332
" />
<path d="M30.3445 11.5332
L30.6469 11.5332
" />
<path d="M30.6469 11.5332
L30.7678 11.5937
" />
<path d="M30.7678 11.5937
L30.8283 11.6542
" />
<path d="M30.8283 11.6542
L30.8888 11.7751
" />
<path d="M30.8888 11.7751
L30.8888 11.8961
" />
<path d="M30.8888 11.8961
L30.8283 12.0775
" />
<path d="M30.8283 12.0775
L30.1026 12.8032
" />
<path d="M30.1026 12.8032
L30.8888 12.8032
" />
</g></g>
<g style="fill:none; 
stroke:#840000; stroke-width:0.1524; stroke-opacity:1; 
stroke-linecap:round; stroke-linejoin:round;">
<path d="M28.6512 15.7607
L31.1912 15.7607
" />
</g>
<g style="fill:none; 
stroke:#006464; stroke-width:0.1524; stroke-opacity:1; 
stroke-linecap:round; stroke-linejoin:round;">
<text x="28.1432" y="16.3957"
textLength="9.8189" font-size="1.6933" lengthAdjust="spacingAndGlyphs"
text-anchor="end" opacity="0" stroke-opacity="0">MOSI/D10</text>
<g class="stroked-text"><desc>MOSI/D10</desc>
<path d="M18.7296 16.3402
L18.7296 15.0702
" />
<path d="M18.7296 15.0702
L19.1530 15.9774
" />
<path d="M19.1530 15.9774
L19.5763 15.0702
" />
<path d="M19.5763 15.0702
L19.5763 16.3402
" />
<path d="M20.4229 15.0702
L20.6648 15.0702
" />
<path d="M20.6648 15.0702
L20.7858 15.1307
" />
<path d="M20.7858 15.1307
L20.9067 15.2517
" />
<path d="M20.9067 15.2517
L20.9672 15.4936
" />
<path d="M20.9672 15.4936
L20.9672 15.9169
" />
<path d="M20.9672 15.9169
L20.9067 16.1588
" />
<path d="M20.9067 16.1588
L20.7858 16.2798
" />
<path d="M20.7858 16.2798
L20.6648 16.3402
" />
<path d="M20.6648 16.3402
L20.4229 16.3402
" />
<path d="M20.4229 16.3402
L20.3020 16.2798
" />
<path d="M20.3020 16.2798
L20.1810 16.1588
" />
<path d="M20.1810 16.1588
L20.1206 15.9169
" />
<path d="M20.1206 15.9169
L20.1206 15.4936
" />
<path d="M20.1206 15.4936
L20.1810 15.2517
" />
<path d="M20.1810 15.2517
L20.3020 15.1307
" />
<path d="M20.3020 15.1307
L20.4229 15.0702
" />
<path d="M21.4511 16.2798
L21.6325 16.3402
" />
<path d="M21.6325 16.3402
L21.9349 16.3402
" />
<path d="M21.9349 16.3402
L22.0558 16.2798
" />
<path d="M22.0558 16.2798
L22.1163 16.2193
" />
<path d="M22.1163 16.2193
L22.1768 16.0983
" />
<path d="M22.1768 16.0983
L22.1768 15.9774
" />
<path d="M22.1768 15.9774
L22.1163 15.8564
" />
<path d="M22.1163 15.8564
L22.0558 15.7959
" />
<path d="M22.0558 15.7959
L21.9349 15.7355
" />
<path d="M21.9349 15.7355
L21.6930 15.6750
" />
<path d="M21.6930 15.6750
L21.5720 15.6145
" />
<path d="M21.5720 15.6145
L21.5115 15.5540
" />
<path d="M21.5115 15.5540
L21.4511 15.4331
" />
<path d="M21.4511 15.4331
L21.4511 15.3121
" />
<path d="M21.4511 15.3121
L21.5115 15.1912
" />
<path d="M21.5115 15.1912
L21.5720 15.1307
" />
<path d="M21.5720 15.1307
L21.6930 15.0702
" />
<path d="M21.6930 15.0702
L21.9953 15.0702
" />
<path d="M21.9953 15.0702
L22.1768 15.1307
" />
<path d="M22.7210 16.3402
L22.7210 15.0702
" />
<path d="M24.2330 15.0098
L23.1444 16.6426
" />
<path d="M24.6563 16.3402
L24.6563 15.0702
" />
<path d="M24.6563 15.0702
L24.9587 15.0702
" />
<path d="M24.9587 15.0702
L25.1401 15.1307
" />
<path d="M25.1401 15.1307
L25.2611 15.2517
" />
<path d="M25.2611 15.2517
L25.3216 15.3726
" />
<path d="M25.3216 15.3726
L25.3820 15.6145
" />
<path d="M25.3820 15.6145
L25.3820 15.7959
" />
<path d="M25.3820 15.7959
L25.3216 16.0378
" />
<path d="M25.3216 16.0378
L25.2611 16.1588
" />
<path d="M25.2611 16.1588
L25.1401 16.2798
" />
<path d="M25.1401 16.2798
L24.9587 16.3402
" />
<path d="M24.9587 16.3402
L24.6563 16.3402
" />
<path d="M26.5916 16.3402
L25.8659 16.3402
" />
<path d="M26.2287 16.3402
L26.2287 15.0702
" />
<path d="M26.2287 15.0702
L26.1078 15.2517
" />
<path d="M26.1078 15.2517
L25.9868 15.3726
" />
<path d="M25.9868 15.3726
L25.8659 15.4331
" />
<path d="M27.3777 15.0702
L27.4987 15.0702
" />
<path d="M27.4987 15.0702
L27.6196 15.1307
" />
<path d="M27.6196 15.1307
L27.6801 15.1912
" />
<path d="M27.6801 15.1912
L27.7406 15.3121
" />
<path d="M27.7406 15.3121
L27.8011 15.5540
" />
<path d="M27.8011 15.5540
L27.8011 15.8564
" />
<path d="M27.8011 15.8564
L27.7406 16.0983
" />
<path d="M27.7406 16.0983
L27.6801 16.2193
" />
<path d="M27.6801 16.2193
L27.6196 16.2798
" />
<path d="M27.6196 16.2798
L27.4987 16.3402
" />
<path d="M27.4987 16.3402
L27.3777 16.3402
" />
<path d="M27.3777 16.3402
L27.2568 16.2798
" />
<path d="M27.2568 16.2798
L27.1963 16.2193
" />
<path d="M27.1963 16.2193
L27.1358 16.0983
" />
<path d="M27.1358 16.0983
L27.0754 15.8564
" />
<path d="M27.0754 15.8564
L27.0754 15.5540
" />
<path d="M27.0754 15.5540
L27.1358 15.3121
" />
<path d="M27.1358 15.3121
L27.1963 15.1912
" />
<path d="M27.1963 15.1912
L27.2568 15.1307
" />
<path d="M27.2568 15.1307
L27.3777 15.0702
" />
</g></g>
<g style="fill:none; 
stroke:#A90000; stroke-width:0.1524; stroke-opacity:1; 
stroke-linecap:round; stroke-linejoin:round;">
<text x="29.9212" y="15.5067"
textLength="2.6222" font-size="1.6933" lengthAdjust="spacingAndGlyphs"
text-anchor="middle" opacity="0" stroke-opacity="0">11</text>
<g class="stroked-text"><desc>11</desc>
<path d="M29.6793 15.3432
L28.9536 15.3432
" />
<path d="M29.3164 15.3432
L29.3164 14.0732
" />
<path d="M29.3164 14.0732
L29.1955 14.2547
" />
<path d="M29.1955 14.2547
L29.0745 14.3756
" />
<path d="M29.0745 14.3756
L28.9536 14.4361
" />
<path d="M30.8888 15.3432
L30.1631 15.3432
" />
<path d="M30.5259 15.3432
L30.5259 14.0732
" />
<path d="M30.5259 14.0732
L30.4050 14.2547
" />
<path d="M30.4050 14.2547
L30.2840 14.3756
" />
<path d="M30.2840 14.3756
L30.1631 14.4361
" />
</g></g>
<g style="fill:none; 
stroke:#840000; stroke-width:0.1524; stroke-opacity:1; 
stroke-linecap:round; stroke-linejoin:round;">
<path d="M28.6512 18.3007
L31.1912 18.3007
" />
</g>
<g style="fill:none; 
stroke:#006464; stroke-width:0.1524; stroke-opacity:1; 
stroke-linecap:round; stroke-linejoin:round;">
<text x="28.1432" y="18.9357"
textLength="8.6094" font-size="1.6933" lengthAdjust="spacingAndGlyphs"
text-anchor="end" opacity="0" stroke-opacity="0">MISO/D9</text>
<g class="stroked-text"><desc>MISO/D9</desc>
<path d="M19.9391 18.8802
L19.9391 17.6102
" />
<path d="M19.9391 17.6102
L20.3625 18.5174
" />
<path d="M20.3625 18.5174
L20.7858 17.6102
" />
<path d="M20.7858 17.6102
L20.7858 18.8802
" />
<path d="M21.3905 18.8802
L21.3905 17.6102
" />
<path d="M21.9349 18.8198
L22.1163 18.8802
" />
<path d="M22.1163 18.8802
L22.4187 18.8802
" />
<path d="M22.4187 18.8802
L22.5396 18.8198
" />
<path d="M22.5396 18.8198
L22.6001 18.7593
" />
<path d="M22.6001 18.7593
L22.6606 18.6383
" />
<path d="M22.6606 18.6383
L22.6606 18.5174
" />
<path d="M22.6606 18.5174
L22.6001 18.3964
" />
<path d="M22.6001 18.3964
L22.5396 18.3359
" />
<path d="M22.5396 18.3359
L22.4187 18.2755
" />
<path d="M22.4187 18.2755
L22.1768 18.2150
" />
<path d="M22.1768 18.2150
L22.0558 18.1545
" />
<path d="M22.0558 18.1545
L21.9953 18.0940
" />
<path d="M21.9953 18.0940
L21.9349 17.9731
" />
<path d="M21.9349 17.9731
L21.9349 17.8521
" />
<path d="M21.9349 17.8521
L21.9953 17.7312
" />
<path d="M21.9953 17.7312
L22.0558 17.6707
" />
<path d="M22.0558 17.6707
L22.1768 17.6102
" />
<path d="M22.1768 17.6102
L22.4791 17.6102
" />
<path d="M22.4791 17.6102
L22.6606 17.6707
" />
<path d="M23.4467 17.6102
L23.6886 17.6102
" />
<path d="M23.6886 17.6102
L23.8096 17.6707
" />
<path d="M23.8096 17.6707
L23.9305 17.7917
" />
<path d="M23.9305 17.7917
L23.9910 18.0336
" />
<path d="M23.9910 18.0336
L23.9910 18.4569
" />
<path d="M23.9910 18.4569
L23.9305 18.6988
" />
<path d="M23.9305 18.6988
L23.8096 18.8198
" />
<path d="M23.8096 18.8198
L23.6886 18.8802
" />
<path d="M23.6886 18.8802
L23.4467 18.8802
" />
<path d="M23.4467 18.8802
L23.3258 18.8198
" />
<path d="M23.3258 18.8198
L23.2048 18.6988
" />
<path d="M23.2048 18.6988
L23.1444 18.4569
" />
<path d="M23.1444 18.4569
L23.1444 18.0336
" />
<path d="M23.1444 18.0336
L23.2048 17.7917
" />
<path d="M23.2048 17.7917
L23.3258 17.6707
" />
<path d="M23.3258 17.6707
L23.4467 17.6102
" />
<path d="M25.4425 17.5498
L24.3539 19.1826
" />
<path d="M25.8658 18.8802
L25.8658 17.6102
" />
<path d="M25.8658 17.6102
L26.1682 17.6102
" />
<path d="M26.1682 17.6102
L26.3496 17.6707
" />
<path d="M26.3496 17.6707
L26.4706 17.7917
" />
<path d="M26.4706 17.7917
L26.5311 17.9126
" />
<path d="M26.5311 17.9126
L26.5915 18.1545
" />
<path d="M26.5915 18.1545
L26.5915 18.3359
" />
<path d="M26.5915 18.3359
L26.5311 18.5778
" />
<path d="M26.5311 18.5778
L26.4706 18.6988
" />
<path d="M26.4706 18.6988
L26.3496 18.8198
" />
<path d="M26.3496 18.8198
L26.1682 18.8802
" />
<path d="M26.1682 18.8802
L25.8658 18.8802
" />
<path d="M27.1963 18.8802
L27.4382 18.8802
" />
<path d="M27.4382 18.8802
L27.5592 18.8198
" />
<path d="M27.5592 18.8198
L27.6196 18.7593
" />
<path d="M27.6196 18.7593
L27.7406 18.5778
" />
<path d="M27.7406 18.5778
L27.8011 18.3359
" />
<path d="M27.8011 18.3359
L27.8011 17.8521
" />
<path d="M27.8011 17.8521
L27.7406 17.7312
" />
<path d="M27.7406 17.7312
L27.6801 17.6707
" />
<path d="M27.6801 17.6707
L27.5592 17.6102
" />
<path d="M27.5592 17.6102
L27.3173 17.6102
" />
<path d="M27.3173 17.6102
L27.1963 17.6707
" />
<path d="M27.1963 17.6707
L27.1358 17.7312
" />
<path d="M27.1358 17.7312
L27.0754 17.8521
" />
<path d="M27.0754 17.8521
L27.0754 18.1545
" />
<path d="M27.0754 18.1545
L27.1358 18.2755
" />
<path d="M27.1358 18.2755
L27.1963 18.3359
" />
<path d="M27.1963 18.3359
L27.3173 18.3964
" />
<path d="M27.3173 18.3964
L27.5592 18.3964
" />
<path d="M27.5592 18.3964
L27.6801 18.3359
" />
<path d="M27.6801 18.3359
L27.7406 18.2755
" />
<path d="M27.7406 18.2755
L27.8011 18.1545
" />
</g></g>
<g style="fill:none; 
stroke:#A90000; stroke-width:0.1524; stroke-opacity:1; 
stroke-linecap:round; stroke-linejoin:round;">
<text x="29.9212" y="18.0467"
textLength="2.6222" font-size="1.6933" lengthAdjust="spacingAndGlyphs"
text-anchor="middle" opacity="0" stroke-opacity="0">10</text>
<g class="stroked-text"><desc>10</desc>
<path d="M29.6793 17.8832
L28.9536 17.8832
" />
<path d="M29.3164 17.8832
L29.3164 16.6132
" />
<path d="M29.3164 16.6132
L29.1955 16.7947
" />
<path d="M29.1955 16.7947
L29.0745 16.9156
" />
<path d="M29.0745 16.9156
L28.9536 16.9761
" />
<path d="M30.4654 16.6132
L30.5864 16.6132
" />
<path d="M30.5864 16.6132
L30.7073 16.6737
" />
<path d="M30.7073 16.6737
L30.7678 16.7342
" />
<path d="M30.7678 16.7342
L30.8283 16.8551
" />
<path d="M30.8283 16.8551
L30.8888 17.0970
" />
<path d="M30.8888 17.0970
L30.8888 17.3994
" />
<path d="M30.8888 17.3994
L30.8283 17.6413
" />
<path d="M30.8283 17.6413
L30.7678 17.7623
" />
<path d="M30.7678 17.7623
L30.7073 17.8228
" />
<path d="M30.7073 17.8228
L30.5864 17.8832
" />
<path d="M30.5864 17.8832
L30.4654 17.8832
" />
<path d="M30.4654 17.8832
L30.3445 17.8228
" />
<path d="M30.3445 17.8228
L30.2840 17.7623
" />
<path d="M30.2840 17.7623
L30.2235 17.6413
" />
<path d="M30.2235 17.6413
L30.1631 17.3994
" />
<path d="M30.1631 17.3994
L30.1631 17.0970
" />
<path d="M30.1631 17.0970
L30.2235 16.8551
" />
<path d="M30.2235 16.8551
L30.2840 16.7342
" />
<path d="M30.2840 16.7342
L30.3445 16.6737
" />
<path d="M30.3445 16.6737
L30.4654 16.6132
" />
</g></g>
<g style="fill:none; 
stroke:#840000; stroke-width:0.1524; stroke-opacity:1; 
stroke-linecap:round; stroke-linejoin:round;">
<path d="M28.6512 20.8407
L31.1912 20.8407
" />
</g>
<g style="fill:none; 
stroke:#006464; stroke-width:0.1524; stroke-opacity:1; 
stroke-linecap:round; stroke-linejoin:round;">
<text x="28.1432" y="21.4757"
textLength="7.7627" font-size="1.6933" lengthAdjust="spacingAndGlyphs"
text-anchor="end" opacity="0" stroke-opacity="0">SCK/D8</text>
<g class="stroked-text"><desc>SCK/D8</desc>
<path d="M20.7254 21.3598
L20.9068 21.4202
" />
<path d="M20.9068 21.4202
L21.2092 21.4202
" />
<path d="M21.2092 21.4202
L21.3301 21.3598
" />
<path d="M21.3301 21.3598
L21.3906 21.2993
" />
<path d="M21.3906 21.2993
L21.4511 21.1783
" />
<path d="M21.4511 21.1783
L21.4511 21.0574
" />
<path d="M21.4511 21.0574
L21.3906 20.9364
" />
<path d="M21.3906 20.9364
L21.3301 20.8759
" />
<path d="M21.3301 20.8759
L21.2092 20.8155
" />
<path d="M21.2092 20.8155
L20.9673 20.7550
" />
<path d="M20.9673 20.7550
L20.8463 20.6945
" />
<path d="M20.8463 20.6945
L20.7858 20.6340
" />
<path d="M20.7858 20.6340
L20.7254 20.5131
" />
<path d="M20.7254 20.5131
L20.7254 20.3921
" />
<path d="M20.7254 20.3921
L20.7858 20.2712
" />
<path d="M20.7858 20.2712
L20.8463 20.2107
" />
<path d="M20.8463 20.2107
L20.9673 20.1502
" />
<path d="M20.9673 20.1502
L21.2696 20.1502
" />
<path d="M21.2696 20.1502
L21.4511 20.2107
" />
<path d="M22.7210 21.2993
L22.6606 21.3598
" />
<path d="M22.6606 21.3598
L22.4791 21.4202
" />
<path d="M22.4791 21.4202
L22.3582 21.4202
" />
<path d="M22.3582 21.4202
L22.1768 21.3598
" />
<path d="M22.1768 21.3598
L22.0558 21.2388
" />
<path d="M22.0558 21.2388
L21.9953 21.1178
" />
<path d="M21.9953 21.1178
L21.9349 20.8759
" />
<path d="M21.9349 20.8759
L21.9349 20.6945
" />
<path d="M21.9349 20.6945
L21.9953 20.4526
" />
<path d="M21.9953 20.4526
L22.0558 20.3317
" />
<path d="M22.0558 20.3317
L22.1768 20.2107
" />
<path d="M22.1768 20.2107
L22.3582 20.1502
" />
<path d="M22.3582 20.1502
L22.4791 20.1502
" />
<path d="M22.4791 20.1502
L22.6606 20.2107
" />
<path d="M22.6606 20.2107
L22.7210 20.2712
" />
<path d="M23.2653 21.4202
L23.2653 20.1502
" />
<path d="M23.9910 21.4202
L23.4468 20.6945
" />
<path d="M23.9910 20.1502
L23.2653 20.8759
" />
<path d="M25.4425 20.0898
L24.3539 21.7226
" />
<path d="M25.8658 21.4202
L25.8658 20.1502
" />
<path d="M25.8658 20.1502
L26.1682 20.1502
" />
<path d="M26.1682 20.1502
L26.3496 20.2107
" />
<path d="M26.3496 20.2107
L26.4706 20.3317
" />
<path d="M26.4706 20.3317
L26.5311 20.4526
" />
<path d="M26.5311 20.4526
L26.5915 20.6945
" />
<path d="M26.5915 20.6945
L26.5915 20.8759
" />
<path d="M26.5915 20.8759
L26.5311 21.1178
" />
<path d="M26.5311 21.1178
L26.4706 21.2388
" />
<path d="M26.4706 21.2388
L26.3496 21.3598
" />
<path d="M26.3496 21.3598
L26.1682 21.4202
" />
<path d="M26.1682 21.4202
L25.8658 21.4202
" />
<path d="M27.3173 20.6945
L27.1963 20.6340
" />
<path d="M27.1963 20.6340
L27.1358 20.5736
" />
<path d="M27.1358 20.5736
L27.0754 20.4526
" />
<path d="M27.0754 20.4526
L27.0754 20.3921
" />
<path d="M27.0754 20.3921
L27.1358 20.2712
" />
<path d="M27.1358 20.2712
L27.1963 20.2107
" />
<path d="M27.1963 20.2107
L27.3173 20.1502
" />
<path d="M27.3173 20.1502
L27.5592 20.1502
" />
<path d="M27.5592 20.1502
L27.6801 20.2107
" />
<path d="M27.6801 20.2107
L27.7406 20.2712
" />
<path d="M27.7406 20.2712
L27.8011 20.3921
" />
<path d="M27.8011 20.3921
L27.8011 20.4526
" />
<path d="M27.8011 20.4526
L27.7406 20.5736
" />
<path d="M27.7406 20.5736
L27.6801 20.6340
" />
<path d="M27.6801 20.6340
L27.5592 20.6945
" />
<path d="M27.5592 20.6945
L27.3173 20.6945
" />
<path d="M27.3173 20.6945
L27.1963 20.7550
" />
<path d="M27.1963 20.7550
L27.1358 20.8155
" />
<path d="M27.1358 20.8155
L27.0754 20.9364
" />
<path d="M27.0754 20.9364
L27.0754 21.1783
" />
<path d="M27.0754 21.1783
L27.1358 21.2993
" />
<path d="M27.1358 21.2993
L27.1963 21.3598
" />
<path d="M27.1963 21.3598
L27.3173 21.4202
" />
<path d="M27.3173 21.4202
L27.5592 21.4202
" />
<path d="M27.5592 21.4202
L27.6801 21.3598
" />
<path d="M27.6801 21.3598
L27.7406 21.2993
" />
<path d="M27.7406 21.2993
L27.8011 21.1783
" />
<path d="M27.8011 21.1783
L27.8011 20.9364
" />
<path d="M27.8011 20.9364
L27.7406 20.8155
" />
<path d="M27.7406 20.8155
L27.6801 20.7550
" />
<path d="M27.6801 20.7550
L27.5592 20.6945
" />
</g></g>
<g style="fill:none; 
stroke:#A90000; stroke-width:0.1524; stroke-opacity:1; 
stroke-linecap:round; stroke-linejoin:round;">
<text x="29.9212" y="20.5867"
textLength="1.4127" font-size="1.6933" lengthAdjust="spacingAndGlyphs"
text-anchor="middle" opacity="0" stroke-opacity="0">9</text>
<g class="stroked-text"><desc>9</desc>
<path d="M29.6793 20.4232
L29.9212 20.4232
" />
<path d="M29.9212 20.4232
L30.0422 20.3628
" />
<path d="M30.0422 20.3628
L30.1026 20.3023
" />
<path d="M30.1026 20.3023
L30.2236 20.1208
" />
<path d="M30.2236 20.1208
L30.2841 19.8789
" />
<path d="M30.2841 19.8789
L30.2841 19.3951
" />
<path d="M30.2841 19.3951
L30.2236 19.2742
" />
<path d="M30.2236 19.2742
L30.1631 19.2137
" />
<path d="M30.1631 19.2137
L30.0422 19.1532
" />
<path d="M30.0422 19.1532
L29.8003 19.1532
" />
<path d="M29.8003 19.1532
L29.6793 19.2137
" />
<path d="M29.6793 19.2137
L29.6188 19.2742
" />
<path d="M29.6188 19.2742
L29.5584 19.3951
" />
<path d="M29.5584 19.3951
L29.5584 19.6975
" />
<path d="M29.5584 19.6975
L29.6188 19.8185
" />
<path d="M29.6188 19.8185
L29.6793 19.8789
" />
<path d="M29.6793 19.8789
L29.8003 19.9394
" />
<path d="M29.8003 19.9394
L30.0422 19.9394
" />
<path d="M30.0422 19.9394
L30.1631 19.8789
" />
<path d="M30.1631 19.8789
L30.2236 19.8185
" />
<path d="M30.2236 19.8185
L30.2841 19.6975
" />
</g></g>
<g style="fill:none; 
stroke:#840000; stroke-width:0.1524; stroke-opacity:1; 
stroke-linecap:round; stroke-linejoin:round;">
<path d="M28.6512 23.3807
L31.1912 23.3807
" />
</g>
<g style="fill:none; 
stroke:#006464; stroke-width:0.1524; stroke-opacity:1; 
stroke-linecap:round; stroke-linejoin:round;">
<text x="28.1432" y="24.0157"
textLength="6.4927" font-size="1.6933" lengthAdjust="spacingAndGlyphs"
text-anchor="end" opacity="0" stroke-opacity="0">RX/D7</text>
<g class="stroked-text"><desc>RX/D7</desc>
<path d="M22.7815 23.9602
L22.3582 23.3555
" />
<path d="M22.0558 23.9602
L22.0558 22.6902
" />
<path d="M22.0558 22.6902
L22.5396 22.6902
" />
<path d="M22.5396 22.6902
L22.6606 22.7507
" />
<path d="M22.6606 22.7507
L22.7211 22.8112
" />
<path d="M22.7211 22.8112
L22.7815 22.9321
" />
<path d="M22.7815 22.9321
L22.7815 23.1136
" />
<path d="M22.7815 23.1136
L22.7211 23.2345
" />
<path d="M22.7211 23.2345
L22.6606 23.2950
" />
<path d="M22.6606 23.2950
L22.5396 23.3555
" />
<path d="M22.5396 23.3555
L22.0558 23.3555
" />
<path d="M23.2049 22.6902
L24.0515 23.9602
" />
<path d="M24.0515 22.6902
L23.2049 23.9602
" />
<path d="M25.4425 22.6298
L24.3539 24.2626
" />
<path d="M25.8658 23.9602
L25.8658 22.6902
" />
<path d="M25.8658 22.6902
L26.1682 22.6902
" />
<path d="M26.1682 22.6902
L26.3496 22.7507
" />
<path d="M26.3496 22.7507
L26.4706 22.8717
" />
<path d="M26.4706 22.8717
L26.5311 22.9926
" />
<path d="M26.5311 22.9926
L26.5915 23.2345
" />
<path d="M26.5915 23.2345
L26.5915 23.4159
" />
<path d="M26.5915 23.4159
L26.5311 23.6578
" />
<path d="M26.5311 23.6578
L26.4706 23.7788
" />
<path d="M26.4706 23.7788
L26.3496 23.8998
" />
<path d="M26.3496 23.8998
L26.1682 23.9602
" />
<path d="M26.1682 23.9602
L25.8658 23.9602
" />
<path d="M27.0149 22.6902
L27.8615 22.6902
" />
<path d="M27.8615 22.6902
L27.3173 23.9602
" />
</g></g>
<g style="fill:none; 
stroke:#A90000; stroke-width:0.1524; stroke-opacity:1; 
stroke-linecap:round; stroke-linejoin:round;">
<text x="29.9212" y="23.1267"
textLength="1.4127" font-size="1.6933" lengthAdjust="spacingAndGlyphs"
text-anchor="middle" opacity="0" stroke-opacity="0">8</text>
<g class="stroked-text"><desc>8</desc>
<path d="M29.8003 22.2375
L29.6793 22.1770
" />
<path d="M29.6793 22.1770
L29.6188 22.1166
" />
<path d="M29.6188 22.1166
L29.5584 21.9956
" />
<path d="M29.5584 21.9956
L29.5584 21.9351
" />
<path d="M29.5584 21.9351
L29.6188 21.8142
" />
<path d="M29.6188 21.8142
L29.6793 21.7537
" />
<path d="M29.6793 21.7537
L29.8003 21.6932
" />
<path d="M29.8003 21.6932
L30.0422 21.6932
" />
<path d="M30.0422 21.6932
L30.1631 21.7537
" />
<path d="M30.1631 21.7537
L30.2236 21.8142
" />
<path d="M30.2236 21.8142
L30.2841 21.9351
" />
<path d="M30.2841 21.9351
L30.2841 21.9956
" />
<path d="M30.2841 21.9956
L30.2236 22.1166
" />
<path d="M30.2236 22.1166
L30.1631 22.1770
" />
<path d="M30.1631 22.1770
L30.0422 22.2375
" />
<path d="M30.0422 22.2375
L29.8003 22.2375
" />
<path d="M29.8003 22.2375
L29.6793 22.2980
" />
<path d="M29.6793 22.2980
L29.6188 22.3585
" />
<path d="M29.6188 22.3585
L29.5584 22.4794
" />
<path d="M29.5584 22.4794
L29.5584 22.7213
" />
<path d="M29.5584 22.7213
L29.6188 22.8423
" />
<path d="M29.6188 22.8423
L29.6793 22.9028
" />
<path d="M29.6793 22.9028
L29.8003 22.9632
" />
<path d="M29.8003 22.9632
L30.0422 22.9632
" />
<path d="M30.0422 22.9632
L30.1631 22.9028
" />
<path d="M30.1631 22.9028
L30.2236 22.8423
" />
<path d="M30.2236 22.8423
L30.2841 22.7213
" />
<path d="M30.2841 22.7213
L30.2841 22.4794
" />
<path d="M30.2841 22.4794
L30.2236 22.3585
" />
<path d="M30.2236 22.3585
L30.1631 22.2980
" />
<path d="M30.1631 22.2980
L30.0422 22.2375
" />
</g></g>
<g style="fill:none; 
stroke:#006464; stroke-width:0.1524; stroke-opacity:1; 
stroke-linecap:round; stroke-linejoin:round;">
<text x="0.0000" y="-11.0490"
textLength="2.6223" font-size="1.6933" lengthAdjust="spacingAndGlyphs"
text-anchor="middle" opacity="0" stroke-opacity="0">U?</text>
<g class="stroked-text"><desc>U?</desc>
<path d="M-0.9071 -12.3744
L-0.9071 -11.3463
" />
<path d="M-0.9071 -11.3463
L-0.8466 -11.2253
" />
<path d="M-0.8466 -11.2253
L-0.7861 -11.1649
" />
<path d="M-0.7861 -11.1649
L-0.6652 -11.1044
" />
<path d="M-0.6652 -11.1044
L-0.4233 -11.1044
" />
<path d="M-0.4233 -11.1044
L-0.3023 -11.1649
" />
<path d="M-0.3023 -11.1649
L-0.2418 -11.2253
" />
<path d="M-0.2418 -11.2253
L-0.1814 -11.3463
" />
<path d="M-0.1814 -11.3463
L-0.1814 -12.3744
" />
<path d="M0.6048 -11.2253
L0.6652 -11.1649
" />
<path d="M0.6652 -11.1649
L0.6048 -11.1044
" />
<path d="M0.6048 -11.1044
L0.5443 -11.1649
" />
<path d="M0.5443 -11.1649
L0.6048 -11.2253
" />
<path d="M0.6048 -11.2253
L0.6048 -11.1044
" />
<path d="M0.3629 -12.3139
L0.4838 -12.3744
" />
<path d="M0.4838 -12.3744
L0.7862 -12.3744
" />
<path d="M0.7862 -12.3744
L0.9071 -12.3139
" />
<path d="M0.9071 -12.3139
L0.9676 -12.1929
" />
<path d="M0.9676 -12.1929
L0.9676 -12.0720
" />
<path d="M0.9676 -12.0720
L0.9071 -11.9510
" />
<path d="M0.9071 -11.9510
L0.8467 -11.8906
" />
<path d="M0.8467 -11.8906
L0.7257 -11.8301
" />
<path d="M0.7257 -11.8301
L0.6652 -11.7696
" />
<path d="M0.6652 -11.7696
L0.6048 -11.6487
" />
<path d="M0.6048 -11.6487
L0.6048 -11.5882
" />
</g><text x="0.0000" y="12.3190"
textLength="12.4800" font-size="1.6933" lengthAdjust="spacingAndGlyphs"
text-anchor="middle" opacity="0" stroke-opacity="0">XIAO_Generic</text>
<g class="stroked-text"><desc>XIAO_Generic</desc>
<path d="M-5.9569 10.9935
L-5.1103 12.2635
" />
<path d="M-5.1103 10.9935
L-5.9569 12.2635
" />
<path d="M-4.6265 12.2635
L-4.6265 10.9935
" />
<path d="M-4.0821 11.9007
L-3.4774 11.9007
" />
<path d="M-4.2031 12.2635
L-3.7798 10.9935
" />
<path d="M-3.7798 10.9935
L-3.3564 12.2635
" />
<path d="M-2.6912 10.9935
L-2.4493 10.9935
" />
<path d="M-2.4493 10.9935
L-2.3283 11.0540
" />
<path d="M-2.3283 11.0540
L-2.2074 11.1750
" />
<path d="M-2.2074 11.1750
L-2.1469 11.4169
" />
<path d="M-2.1469 11.4169
L-2.1469 11.8402
" />
<path d="M-2.1469 11.8402
L-2.2074 12.0821
" />
<path d="M-2.2074 12.0821
L-2.3283 12.2031
" />
<path d="M-2.3283 12.2031
L-2.4493 12.2635
" />
<path d="M-2.4493 12.2635
L-2.6912 12.2635
" />
<path d="M-2.6912 12.2635
L-2.8121 12.2031
" />
<path d="M-2.8121 12.2031
L-2.9331 12.0821
" />
<path d="M-2.9331 12.0821
L-2.9935 11.8402
" />
<path d="M-2.9935 11.8402
L-2.9935 11.4169
" />
<path d="M-2.9935 11.4169
L-2.9331 11.1750
" />
<path d="M-2.9331 11.1750
L-2.8121 11.0540
" />
<path d="M-2.8121 11.0540
L-2.6912 10.9935
" />
<path d="M-1.9050 12.3845
L-0.9373 12.3845
" />
<path d="M0.0302 11.0540
L-0.0907 10.9935
" />
<path d="M-0.0907 10.9935
L-0.2721 10.9935
" />
<path d="M-0.2721 10.9935
L-0.4535 11.0540
" />
<path d="M-0.4535 11.0540
L-0.5745 11.1750
" />
<path d="M-0.5745 11.1750
L-0.6350 11.2959
" />
<path d="M-0.6350 11.2959
L-0.6954 11.5378
" />
<path d="M-0.6954 11.5378
L-0.6954 11.7192
" />
<path d="M-0.6954 11.7192
L-0.6350 11.9611
" />
<path d="M-0.6350 11.9611
L-0.5745 12.0821
" />
<path d="M-0.5745 12.0821
L-0.4535 12.2031
" />
<path d="M-0.4535 12.2031
L-0.2721 12.2635
" />
<path d="M-0.2721 12.2635
L-0.1512 12.2635
" />
<path d="M-0.1512 12.2635
L0.0302 12.2031
" />
<path d="M0.0302 12.2031
L0.0906 12.1426
" />
<path d="M0.0906 12.1426
L0.0906 11.7192
" />
<path d="M0.0906 11.7192
L-0.1512 11.7192
" />
<path d="M1.1187 12.2031
L0.9978 12.2635
" />
<path d="M0.9978 12.2635
L0.7559 12.2635
" />
<path d="M0.7559 12.2635
L0.6349 12.2031
" />
<path d="M0.6349 12.2031
L0.5745 12.0821
" />
<path d="M0.5745 12.0821
L0.5745 11.5983
" />
<path d="M0.5745 11.5983
L0.6349 11.4773
" />
<path d="M0.6349 11.4773
L0.7559 11.4169
" />
<path d="M0.7559 11.4169
L0.9978 11.4169
" />
<path d="M0.9978 11.4169
L1.1187 11.4773
" />
<path d="M1.1187 11.4773
L1.1792 11.5983
" />
<path d="M1.1792 11.5983
L1.1792 11.7192
" />
<path d="M1.1792 11.7192
L0.5745 11.8402
" />
<path d="M1.7235 11.4169
L1.7235 12.2635
" />
<path d="M1.7235 11.5378
L1.7840 11.4773
" />
<path d="M1.7840 11.4773
L1.9050 11.4169
" />
<path d="M1.9050 11.4169
L2.0864 11.4169
" />
<path d="M2.0864 11.4169
L2.2073 11.4773
" />
<path d="M2.2073 11.4773
L2.2678 11.5983
" />
<path d="M2.2678 11.5983
L2.2678 12.2635
" />
<path d="M3.3563 12.2031
L3.2354 12.2635
" />
<path d="M3.2354 12.2635
L2.9935 12.2635
" />
<path d="M2.9935 12.2635
L2.8725 12.2031
" />
<path d="M2.8725 12.2031
L2.8121 12.0821
" />
<path d="M2.8121 12.0821
L2.8121 11.5983
" />
<path d="M2.8121 11.5983
L2.8725 11.4773
" />
<path d="M2.8725 11.4773
L2.9935 11.4169
" />
<path d="M2.9935 11.4169
L3.2354 11.4169
" />
<path d="M3.2354 11.4169
L3.3563 11.4773
" />
<path d="M3.3563 11.4773
L3.4168 11.5983
" />
<path d="M3.4168 11.5983
L3.4168 11.7192
" />
<path d="M3.4168 11.7192
L2.8121 11.8402
" />
<path d="M3.9611 12.2635
L3.9611 11.4169
" />
<path d="M3.9611 11.6588
L4.0216 11.5378
" />
<path d="M4.0216 11.5378
L4.0821 11.4773
" />
<path d="M4.0821 11.4773
L4.2030 11.4169
" />
<path d="M4.2030 11.4169
L4.3240 11.4169
" />
<path d="M4.7473 12.2635
L4.7473 11.4169
" />
<path d="M4.7473 10.9935
L4.6869 11.0540
" />
<path d="M4.6869 11.0540
L4.7473 11.1145
" />
<path d="M4.7473 11.1145
L4.8078 11.0540
" />
<path d="M4.8078 11.0540
L4.7473 10.9935
" />
<path d="M4.7473 10.9935
L4.7473 11.1145
" />
<path d="M5.8964 12.2031
L5.7755 12.2635
" />
<path d="M5.7755 12.2635
L5.5336 12.2635
" />
<path d="M5.5336 12.2635
L5.4126 12.2031
" />
<path d="M5.4126 12.2031
L5.3521 12.1426
" />
<path d="M5.3521 12.1426
L5.2917 12.0216
" />
<path d="M5.2917 12.0216
L5.2917 11.6588
" />
<path d="M5.2917 11.6588
L5.3521 11.5378
" />
<path d="M5.3521 11.5378
L5.4126 11.4773
" />
<path d="M5.4126 11.4773
L5.5336 11.4169
" />
<path d="M5.5336 11.4169
L5.7755 11.4169
" />
<path d="M5.7755 11.4169
L5.8964 11.4773
" />
</g></g> 
</svg>
