<?xml version="1.0" standalone="no"?>
 <!DOCTYPE svg PUBLIC "-//W3C//DTD SVG 1.1//EN" 
 "http://www.w3.org/Graphics/SVG/1.1/DTD/svg11.dtd"> 
<svg
  xmlns:svg="http://www.w3.org/2000/svg"
  xmlns="http://www.w3.org/2000/svg"
  xmlns:xlink="http://www.w3.org/1999/xlink"
  version="1.1"
  width="56.7436mm" height="32.3342mm" viewBox="0.0000 0.0000 56.7436 32.3342">
<title>SVG Image created as xiao-rp2040.svg date 2025/02/02 22:16:20 </title>
  <desc>Image generated by Eeschema-SVG </desc>
<g style="fill:#000000; fill-opacity:1.0000;stroke:#000000; stroke-opacity:1.0000;
stroke-linecap:round; stroke-linejoin:round;"
 transform="translate(0 0) scale(1 1)">
</g>
<g style="fill:#FFFFC2; fill-opacity:1.0000; stroke:none;">
<rect x="16.941800" y="6.007100" width="22.860000" height="20.320000" rx="0.000000" />
</g>
<g style="fill:none; 
stroke:#840000; stroke-width:0.1524; stroke-opacity:1; 
stroke-linecap:round; stroke-linejoin:round;">
<rect x="16.941800" y="6.007100" width="22.860000" height="20.320000" rx="0.000000" />
<path d="M16.9418 8.5471
L14.4018 8.5471
" />
</g>
<g style="fill:none; 
stroke:#006464; stroke-width:0.1524; stroke-opacity:1; 
stroke-linecap:round; stroke-linejoin:round;">
<text x="17.4498" y="9.1821"
textLength="6.3113" font-size="1.6933" lengthAdjust="spacingAndGlyphs"
text-anchor="start" opacity="0" stroke-opacity="0">D0/A0</text>
<g class="stroked-text"><desc>D0/A0</desc>
<path d="M17.8523 9.1266
L17.8523 7.8566
" />
<path d="M17.8523 7.8566
L18.1547 7.8566
" />
<path d="M18.1547 7.8566
L18.3361 7.9171
" />
<path d="M18.3361 7.9171
L18.4571 8.0381
" />
<path d="M18.4571 8.0381
L18.5176 8.1590
" />
<path d="M18.5176 8.1590
L18.5780 8.4009
" />
<path d="M18.5780 8.4009
L18.5780 8.5823
" />
<path d="M18.5780 8.5823
L18.5176 8.8242
" />
<path d="M18.5176 8.8242
L18.4571 8.9452
" />
<path d="M18.4571 8.9452
L18.3361 9.0662
" />
<path d="M18.3361 9.0662
L18.1547 9.1266
" />
<path d="M18.1547 9.1266
L17.8523 9.1266
" />
<path d="M19.3642 7.8566
L19.4852 7.8566
" />
<path d="M19.4852 7.8566
L19.6061 7.9171
" />
<path d="M19.6061 7.9171
L19.6666 7.9776
" />
<path d="M19.6666 7.9776
L19.7271 8.0985
" />
<path d="M19.7271 8.0985
L19.7876 8.3404
" />
<path d="M19.7876 8.3404
L19.7876 8.6428
" />
<path d="M19.7876 8.6428
L19.7271 8.8847
" />
<path d="M19.7271 8.8847
L19.6666 9.0057
" />
<path d="M19.6666 9.0057
L19.6061 9.0662
" />
<path d="M19.6061 9.0662
L19.4852 9.1266
" />
<path d="M19.4852 9.1266
L19.3642 9.1266
" />
<path d="M19.3642 9.1266
L19.2433 9.0662
" />
<path d="M19.2433 9.0662
L19.1828 9.0057
" />
<path d="M19.1828 9.0057
L19.1223 8.8847
" />
<path d="M19.1223 8.8847
L19.0619 8.6428
" />
<path d="M19.0619 8.6428
L19.0619 8.3404
" />
<path d="M19.0619 8.3404
L19.1223 8.0985
" />
<path d="M19.1223 8.0985
L19.1828 7.9776
" />
<path d="M19.1828 7.9776
L19.2433 7.9171
" />
<path d="M19.2433 7.9171
L19.3642 7.8566
" />
<path d="M21.2390 7.7962
L20.1504 9.4290
" />
<path d="M21.6019 8.7638
L22.2066 8.7638
" />
<path d="M21.4809 9.1266
L21.9042 7.8566
" />
<path d="M21.9042 7.8566
L22.3276 9.1266
" />
<path d="M22.9928 7.8566
L23.1138 7.8566
" />
<path d="M23.1138 7.8566
L23.2347 7.9171
" />
<path d="M23.2347 7.9171
L23.2952 7.9776
" />
<path d="M23.2952 7.9776
L23.3557 8.0985
" />
<path d="M23.3557 8.0985
L23.4162 8.3404
" />
<path d="M23.4162 8.3404
L23.4162 8.6428
" />
<path d="M23.4162 8.6428
L23.3557 8.8847
" />
<path d="M23.3557 8.8847
L23.2952 9.0057
" />
<path d="M23.2952 9.0057
L23.2347 9.0662
" />
<path d="M23.2347 9.0662
L23.1138 9.1266
" />
<path d="M23.1138 9.1266
L22.9928 9.1266
" />
<path d="M22.9928 9.1266
L22.8719 9.0662
" />
<path d="M22.8719 9.0662
L22.8114 9.0057
" />
<path d="M22.8114 9.0057
L22.7509 8.8847
" />
<path d="M22.7509 8.8847
L22.6905 8.6428
" />
<path d="M22.6905 8.6428
L22.6905 8.3404
" />
<path d="M22.6905 8.3404
L22.7509 8.0985
" />
<path d="M22.7509 8.0985
L22.8114 7.9776
" />
<path d="M22.8114 7.9776
L22.8719 7.9171
" />
<path d="M22.8719 7.9171
L22.9928 7.8566
" />
</g></g>
<g style="fill:none; 
stroke:#A90000; stroke-width:0.1524; stroke-opacity:1; 
stroke-linecap:round; stroke-linejoin:round;">
<text x="15.6718" y="8.2931"
textLength="1.4127" font-size="1.6933" lengthAdjust="spacingAndGlyphs"
text-anchor="middle" opacity="0" stroke-opacity="0">1</text>
<g class="stroked-text"><desc>1</desc>
<path d="M16.0347 8.1296
L15.3090 8.1296
" />
<path d="M15.6718 8.1296
L15.6718 6.8596
" />
<path d="M15.6718 6.8596
L15.5509 7.0411
" />
<path d="M15.5509 7.0411
L15.4299 7.1620
" />
<path d="M15.4299 7.1620
L15.3090 7.2225
" />
</g></g>
<g style="fill:none; 
stroke:#840000; stroke-width:0.1524; stroke-opacity:1; 
stroke-linecap:round; stroke-linejoin:round;">
<path d="M39.8018 18.7071
L42.3418 18.7071
" />
</g>
<g style="fill:none; 
stroke:#006464; stroke-width:0.1524; stroke-opacity:1; 
stroke-linecap:round; stroke-linejoin:round;">
<text x="39.2938" y="19.3421"
textLength="8.6094" font-size="1.6933" lengthAdjust="spacingAndGlyphs"
text-anchor="end" opacity="0" stroke-opacity="0">MISO/D9</text>
<g class="stroked-text"><desc>MISO/D9</desc>
<path d="M31.0897 19.2866
L31.0897 18.0166
" />
<path d="M31.0897 18.0166
L31.5131 18.9238
" />
<path d="M31.5131 18.9238
L31.9364 18.0166
" />
<path d="M31.9364 18.0166
L31.9364 19.2866
" />
<path d="M32.5411 19.2866
L32.5411 18.0166
" />
<path d="M33.0855 19.2262
L33.2669 19.2866
" />
<path d="M33.2669 19.2866
L33.5693 19.2866
" />
<path d="M33.5693 19.2866
L33.6902 19.2262
" />
<path d="M33.6902 19.2262
L33.7507 19.1657
" />
<path d="M33.7507 19.1657
L33.8112 19.0447
" />
<path d="M33.8112 19.0447
L33.8112 18.9238
" />
<path d="M33.8112 18.9238
L33.7507 18.8028
" />
<path d="M33.7507 18.8028
L33.6902 18.7423
" />
<path d="M33.6902 18.7423
L33.5693 18.6819
" />
<path d="M33.5693 18.6819
L33.3274 18.6214
" />
<path d="M33.3274 18.6214
L33.2064 18.5609
" />
<path d="M33.2064 18.5609
L33.1459 18.5004
" />
<path d="M33.1459 18.5004
L33.0855 18.3795
" />
<path d="M33.0855 18.3795
L33.0855 18.2585
" />
<path d="M33.0855 18.2585
L33.1459 18.1376
" />
<path d="M33.1459 18.1376
L33.2064 18.0771
" />
<path d="M33.2064 18.0771
L33.3274 18.0166
" />
<path d="M33.3274 18.0166
L33.6297 18.0166
" />
<path d="M33.6297 18.0166
L33.8112 18.0771
" />
<path d="M34.5973 18.0166
L34.8392 18.0166
" />
<path d="M34.8392 18.0166
L34.9602 18.0771
" />
<path d="M34.9602 18.0771
L35.0811 18.1981
" />
<path d="M35.0811 18.1981
L35.1416 18.4400
" />
<path d="M35.1416 18.4400
L35.1416 18.8633
" />
<path d="M35.1416 18.8633
L35.0811 19.1052
" />
<path d="M35.0811 19.1052
L34.9602 19.2262
" />
<path d="M34.9602 19.2262
L34.8392 19.2866
" />
<path d="M34.8392 19.2866
L34.5973 19.2866
" />
<path d="M34.5973 19.2866
L34.4764 19.2262
" />
<path d="M34.4764 19.2262
L34.3554 19.1052
" />
<path d="M34.3554 19.1052
L34.2950 18.8633
" />
<path d="M34.2950 18.8633
L34.2950 18.4400
" />
<path d="M34.2950 18.4400
L34.3554 18.1981
" />
<path d="M34.3554 18.1981
L34.4764 18.0771
" />
<path d="M34.4764 18.0771
L34.5973 18.0166
" />
<path d="M36.5931 17.9562
L35.5045 19.5890
" />
<path d="M37.0164 19.2866
L37.0164 18.0166
" />
<path d="M37.0164 18.0166
L37.3188 18.0166
" />
<path d="M37.3188 18.0166
L37.5002 18.0771
" />
<path d="M37.5002 18.0771
L37.6212 18.1981
" />
<path d="M37.6212 18.1981
L37.6817 18.3190
" />
<path d="M37.6817 18.3190
L37.7421 18.5609
" />
<path d="M37.7421 18.5609
L37.7421 18.7423
" />
<path d="M37.7421 18.7423
L37.6817 18.9842
" />
<path d="M37.6817 18.9842
L37.6212 19.1052
" />
<path d="M37.6212 19.1052
L37.5002 19.2262
" />
<path d="M37.5002 19.2262
L37.3188 19.2866
" />
<path d="M37.3188 19.2866
L37.0164 19.2866
" />
<path d="M38.3469 19.2866
L38.5888 19.2866
" />
<path d="M38.5888 19.2866
L38.7098 19.2262
" />
<path d="M38.7098 19.2262
L38.7702 19.1657
" />
<path d="M38.7702 19.1657
L38.8912 18.9842
" />
<path d="M38.8912 18.9842
L38.9517 18.7423
" />
<path d="M38.9517 18.7423
L38.9517 18.2585
" />
<path d="M38.9517 18.2585
L38.8912 18.1376
" />
<path d="M38.8912 18.1376
L38.8307 18.0771
" />
<path d="M38.8307 18.0771
L38.7098 18.0166
" />
<path d="M38.7098 18.0166
L38.4679 18.0166
" />
<path d="M38.4679 18.0166
L38.3469 18.0771
" />
<path d="M38.3469 18.0771
L38.2864 18.1376
" />
<path d="M38.2864 18.1376
L38.2260 18.2585
" />
<path d="M38.2260 18.2585
L38.2260 18.5609
" />
<path d="M38.2260 18.5609
L38.2864 18.6819
" />
<path d="M38.2864 18.6819
L38.3469 18.7423
" />
<path d="M38.3469 18.7423
L38.4679 18.8028
" />
<path d="M38.4679 18.8028
L38.7098 18.8028
" />
<path d="M38.7098 18.8028
L38.8307 18.7423
" />
<path d="M38.8307 18.7423
L38.8912 18.6819
" />
<path d="M38.8912 18.6819
L38.9517 18.5609
" />
</g></g>
<g style="fill:none; 
stroke:#A90000; stroke-width:0.1524; stroke-opacity:1; 
stroke-linecap:round; stroke-linejoin:round;">
<text x="41.0718" y="18.4531"
textLength="2.6222" font-size="1.6933" lengthAdjust="spacingAndGlyphs"
text-anchor="middle" opacity="0" stroke-opacity="0">10</text>
<g class="stroked-text"><desc>10</desc>
<path d="M40.8299 18.2896
L40.1042 18.2896
" />
<path d="M40.4670 18.2896
L40.4670 17.0196
" />
<path d="M40.4670 17.0196
L40.3461 17.2011
" />
<path d="M40.3461 17.2011
L40.2251 17.3220
" />
<path d="M40.2251 17.3220
L40.1042 17.3825
" />
<path d="M41.6160 17.0196
L41.7370 17.0196
" />
<path d="M41.7370 17.0196
L41.8579 17.0801
" />
<path d="M41.8579 17.0801
L41.9184 17.1406
" />
<path d="M41.9184 17.1406
L41.9789 17.2615
" />
<path d="M41.9789 17.2615
L42.0394 17.5034
" />
<path d="M42.0394 17.5034
L42.0394 17.8058
" />
<path d="M42.0394 17.8058
L41.9789 18.0477
" />
<path d="M41.9789 18.0477
L41.9184 18.1687
" />
<path d="M41.9184 18.1687
L41.8579 18.2292
" />
<path d="M41.8579 18.2292
L41.7370 18.2896
" />
<path d="M41.7370 18.2896
L41.6160 18.2896
" />
<path d="M41.6160 18.2896
L41.4951 18.2292
" />
<path d="M41.4951 18.2292
L41.4346 18.1687
" />
<path d="M41.4346 18.1687
L41.3741 18.0477
" />
<path d="M41.3741 18.0477
L41.3137 17.8058
" />
<path d="M41.3137 17.8058
L41.3137 17.5034
" />
<path d="M41.3137 17.5034
L41.3741 17.2615
" />
<path d="M41.3741 17.2615
L41.4346 17.1406
" />
<path d="M41.4346 17.1406
L41.4951 17.0801
" />
<path d="M41.4951 17.0801
L41.6160 17.0196
" />
</g></g>
<g style="fill:none; 
stroke:#840000; stroke-width:0.1524; stroke-opacity:1; 
stroke-linecap:round; stroke-linejoin:round;">
<path d="M39.8018 16.1671
L42.3418 16.1671
" />
</g>
<g style="fill:none; 
stroke:#006464; stroke-width:0.1524; stroke-opacity:1; 
stroke-linecap:round; stroke-linejoin:round;">
<text x="39.2938" y="16.8021"
textLength="9.8189" font-size="1.6933" lengthAdjust="spacingAndGlyphs"
text-anchor="end" opacity="0" stroke-opacity="0">MOSI/D10</text>
<g class="stroked-text"><desc>MOSI/D10</desc>
<path d="M29.8802 16.7466
L29.8802 15.4766
" />
<path d="M29.8802 15.4766
L30.3036 16.3838
" />
<path d="M30.3036 16.3838
L30.7269 15.4766
" />
<path d="M30.7269 15.4766
L30.7269 16.7466
" />
<path d="M31.5735 15.4766
L31.8154 15.4766
" />
<path d="M31.8154 15.4766
L31.9364 15.5371
" />
<path d="M31.9364 15.5371
L32.0573 15.6581
" />
<path d="M32.0573 15.6581
L32.1178 15.9000
" />
<path d="M32.1178 15.9000
L32.1178 16.3233
" />
<path d="M32.1178 16.3233
L32.0573 16.5652
" />
<path d="M32.0573 16.5652
L31.9364 16.6862
" />
<path d="M31.9364 16.6862
L31.8154 16.7466
" />
<path d="M31.8154 16.7466
L31.5735 16.7466
" />
<path d="M31.5735 16.7466
L31.4526 16.6862
" />
<path d="M31.4526 16.6862
L31.3316 16.5652
" />
<path d="M31.3316 16.5652
L31.2712 16.3233
" />
<path d="M31.2712 16.3233
L31.2712 15.9000
" />
<path d="M31.2712 15.9000
L31.3316 15.6581
" />
<path d="M31.3316 15.6581
L31.4526 15.5371
" />
<path d="M31.4526 15.5371
L31.5735 15.4766
" />
<path d="M32.6017 16.6862
L32.7831 16.7466
" />
<path d="M32.7831 16.7466
L33.0855 16.7466
" />
<path d="M33.0855 16.7466
L33.2064 16.6862
" />
<path d="M33.2064 16.6862
L33.2669 16.6257
" />
<path d="M33.2669 16.6257
L33.3274 16.5047
" />
<path d="M33.3274 16.5047
L33.3274 16.3838
" />
<path d="M33.3274 16.3838
L33.2669 16.2628
" />
<path d="M33.2669 16.2628
L33.2064 16.2023
" />
<path d="M33.2064 16.2023
L33.0855 16.1419
" />
<path d="M33.0855 16.1419
L32.8436 16.0814
" />
<path d="M32.8436 16.0814
L32.7226 16.0209
" />
<path d="M32.7226 16.0209
L32.6621 15.9604
" />
<path d="M32.6621 15.9604
L32.6017 15.8395
" />
<path d="M32.6017 15.8395
L32.6017 15.7185
" />
<path d="M32.6017 15.7185
L32.6621 15.5976
" />
<path d="M32.6621 15.5976
L32.7226 15.5371
" />
<path d="M32.7226 15.5371
L32.8436 15.4766
" />
<path d="M32.8436 15.4766
L33.1459 15.4766
" />
<path d="M33.1459 15.4766
L33.3274 15.5371
" />
<path d="M33.8716 16.7466
L33.8716 15.4766
" />
<path d="M35.3836 15.4162
L34.2950 17.0490
" />
<path d="M35.8069 16.7466
L35.8069 15.4766
" />
<path d="M35.8069 15.4766
L36.1093 15.4766
" />
<path d="M36.1093 15.4766
L36.2907 15.5371
" />
<path d="M36.2907 15.5371
L36.4117 15.6581
" />
<path d="M36.4117 15.6581
L36.4722 15.7790
" />
<path d="M36.4722 15.7790
L36.5326 16.0209
" />
<path d="M36.5326 16.0209
L36.5326 16.2023
" />
<path d="M36.5326 16.2023
L36.4722 16.4442
" />
<path d="M36.4722 16.4442
L36.4117 16.5652
" />
<path d="M36.4117 16.5652
L36.2907 16.6862
" />
<path d="M36.2907 16.6862
L36.1093 16.7466
" />
<path d="M36.1093 16.7466
L35.8069 16.7466
" />
<path d="M37.7422 16.7466
L37.0165 16.7466
" />
<path d="M37.3793 16.7466
L37.3793 15.4766
" />
<path d="M37.3793 15.4766
L37.2584 15.6581
" />
<path d="M37.2584 15.6581
L37.1374 15.7790
" />
<path d="M37.1374 15.7790
L37.0165 15.8395
" />
<path d="M38.5283 15.4766
L38.6493 15.4766
" />
<path d="M38.6493 15.4766
L38.7702 15.5371
" />
<path d="M38.7702 15.5371
L38.8307 15.5976
" />
<path d="M38.8307 15.5976
L38.8912 15.7185
" />
<path d="M38.8912 15.7185
L38.9517 15.9604
" />
<path d="M38.9517 15.9604
L38.9517 16.2628
" />
<path d="M38.9517 16.2628
L38.8912 16.5047
" />
<path d="M38.8912 16.5047
L38.8307 16.6257
" />
<path d="M38.8307 16.6257
L38.7702 16.6862
" />
<path d="M38.7702 16.6862
L38.6493 16.7466
" />
<path d="M38.6493 16.7466
L38.5283 16.7466
" />
<path d="M38.5283 16.7466
L38.4074 16.6862
" />
<path d="M38.4074 16.6862
L38.3469 16.6257
" />
<path d="M38.3469 16.6257
L38.2864 16.5047
" />
<path d="M38.2864 16.5047
L38.2260 16.2628
" />
<path d="M38.2260 16.2628
L38.2260 15.9604
" />
<path d="M38.2260 15.9604
L38.2864 15.7185
" />
<path d="M38.2864 15.7185
L38.3469 15.5976
" />
<path d="M38.3469 15.5976
L38.4074 15.5371
" />
<path d="M38.4074 15.5371
L38.5283 15.4766
" />
</g></g>
<g style="fill:none; 
stroke:#A90000; stroke-width:0.1524; stroke-opacity:1; 
stroke-linecap:round; stroke-linejoin:round;">
<text x="41.0718" y="15.9131"
textLength="2.6222" font-size="1.6933" lengthAdjust="spacingAndGlyphs"
text-anchor="middle" opacity="0" stroke-opacity="0">11</text>
<g class="stroked-text"><desc>11</desc>
<path d="M40.8299 15.7496
L40.1042 15.7496
" />
<path d="M40.4670 15.7496
L40.4670 14.4796
" />
<path d="M40.4670 14.4796
L40.3461 14.6611
" />
<path d="M40.3461 14.6611
L40.2251 14.7820
" />
<path d="M40.2251 14.7820
L40.1042 14.8425
" />
<path d="M42.0394 15.7496
L41.3137 15.7496
" />
<path d="M41.6765 15.7496
L41.6765 14.4796
" />
<path d="M41.6765 14.4796
L41.5556 14.6611
" />
<path d="M41.5556 14.6611
L41.4346 14.7820
" />
<path d="M41.4346 14.7820
L41.3137 14.8425
" />
</g></g>
<g style="fill:none; 
stroke:#840000; stroke-width:0.1524; stroke-opacity:1; 
stroke-linecap:round; stroke-linejoin:round;">
<path d="M39.8018 13.6271
L42.3418 13.6271
" />
</g>
<g style="fill:none; 
stroke:#006464; stroke-width:0.1524; stroke-opacity:1; 
stroke-linecap:round; stroke-linejoin:round;">
<text x="39.2938" y="14.2621"
textLength="3.7108" font-size="1.6933" lengthAdjust="spacingAndGlyphs"
text-anchor="end" opacity="0" stroke-opacity="0">3V3</text>
<g class="stroked-text"><desc>3V3</desc>
<path d="M35.8674 12.9366
L36.6536 12.9366
" />
<path d="M36.6536 12.9366
L36.2302 13.4204
" />
<path d="M36.2302 13.4204
L36.4117 13.4204
" />
<path d="M36.4117 13.4204
L36.5326 13.4809
" />
<path d="M36.5326 13.4809
L36.5931 13.5414
" />
<path d="M36.5931 13.5414
L36.6536 13.6623
" />
<path d="M36.6536 13.6623
L36.6536 13.9647
" />
<path d="M36.6536 13.9647
L36.5931 14.0857
" />
<path d="M36.5931 14.0857
L36.5326 14.1462
" />
<path d="M36.5326 14.1462
L36.4117 14.2066
" />
<path d="M36.4117 14.2066
L36.0488 14.2066
" />
<path d="M36.0488 14.2066
L35.9279 14.1462
" />
<path d="M35.9279 14.1462
L35.8674 14.0857
" />
<path d="M37.0164 12.9366
L37.4397 14.2066
" />
<path d="M37.4397 14.2066
L37.8631 12.9366
" />
<path d="M38.1655 12.9366
L38.9517 12.9366
" />
<path d="M38.9517 12.9366
L38.5283 13.4204
" />
<path d="M38.5283 13.4204
L38.7098 13.4204
" />
<path d="M38.7098 13.4204
L38.8307 13.4809
" />
<path d="M38.8307 13.4809
L38.8912 13.5414
" />
<path d="M38.8912 13.5414
L38.9517 13.6623
" />
<path d="M38.9517 13.6623
L38.9517 13.9647
" />
<path d="M38.9517 13.9647
L38.8912 14.0857
" />
<path d="M38.8912 14.0857
L38.8307 14.1462
" />
<path d="M38.8307 14.1462
L38.7098 14.2066
" />
<path d="M38.7098 14.2066
L38.3469 14.2066
" />
<path d="M38.3469 14.2066
L38.2260 14.1462
" />
<path d="M38.2260 14.1462
L38.1655 14.0857
" />
</g></g>
<g style="fill:none; 
stroke:#A90000; stroke-width:0.1524; stroke-opacity:1; 
stroke-linecap:round; stroke-linejoin:round;">
<text x="41.0718" y="13.3731"
textLength="2.6222" font-size="1.6933" lengthAdjust="spacingAndGlyphs"
text-anchor="middle" opacity="0" stroke-opacity="0">12</text>
<g class="stroked-text"><desc>12</desc>
<path d="M40.8299 13.2096
L40.1042 13.2096
" />
<path d="M40.4670 13.2096
L40.4670 11.9396
" />
<path d="M40.4670 11.9396
L40.3461 12.1211
" />
<path d="M40.3461 12.1211
L40.2251 12.2420
" />
<path d="M40.2251 12.2420
L40.1042 12.3025
" />
<path d="M41.3137 12.0606
L41.3741 12.0001
" />
<path d="M41.3741 12.0001
L41.4951 11.9396
" />
<path d="M41.4951 11.9396
L41.7975 11.9396
" />
<path d="M41.7975 11.9396
L41.9184 12.0001
" />
<path d="M41.9184 12.0001
L41.9789 12.0606
" />
<path d="M41.9789 12.0606
L42.0394 12.1815
" />
<path d="M42.0394 12.1815
L42.0394 12.3025
" />
<path d="M42.0394 12.3025
L41.9789 12.4839
" />
<path d="M41.9789 12.4839
L41.2532 13.2096
" />
<path d="M41.2532 13.2096
L42.0394 13.2096
" />
</g></g>
<g style="fill:none; 
stroke:#840000; stroke-width:0.1524; stroke-opacity:1; 
stroke-linecap:round; stroke-linejoin:round;">
<path d="M39.8018 11.0871
L42.3418 11.0871
" />
</g>
<g style="fill:none; 
stroke:#006464; stroke-width:0.1524; stroke-opacity:1; 
stroke-linecap:round; stroke-linejoin:round;">
<text x="39.2938" y="11.7221"
textLength="4.0737" font-size="1.6933" lengthAdjust="spacingAndGlyphs"
text-anchor="end" opacity="0" stroke-opacity="0">GND</text>
<g class="stroked-text"><desc>GND</desc>
<path d="M36.2907 10.4571
L36.1697 10.3966
" />
<path d="M36.1697 10.3966
L35.9883 10.3966
" />
<path d="M35.9883 10.3966
L35.8069 10.4571
" />
<path d="M35.8069 10.4571
L35.6859 10.5781
" />
<path d="M35.6859 10.5781
L35.6254 10.6990
" />
<path d="M35.6254 10.6990
L35.5650 10.9409
" />
<path d="M35.5650 10.9409
L35.5650 11.1223
" />
<path d="M35.5650 11.1223
L35.6254 11.3642
" />
<path d="M35.6254 11.3642
L35.6859 11.4852
" />
<path d="M35.6859 11.4852
L35.8069 11.6062
" />
<path d="M35.8069 11.6062
L35.9883 11.6666
" />
<path d="M35.9883 11.6666
L36.1092 11.6666
" />
<path d="M36.1092 11.6666
L36.2907 11.6062
" />
<path d="M36.2907 11.6062
L36.3511 11.5457
" />
<path d="M36.3511 11.5457
L36.3511 11.1223
" />
<path d="M36.3511 11.1223
L36.1092 11.1223
" />
<path d="M36.8954 11.6666
L36.8954 10.3966
" />
<path d="M36.8954 10.3966
L37.6211 11.6666
" />
<path d="M37.6211 11.6666
L37.6211 10.3966
" />
<path d="M38.2259 11.6666
L38.2259 10.3966
" />
<path d="M38.2259 10.3966
L38.5283 10.3966
" />
<path d="M38.5283 10.3966
L38.7097 10.4571
" />
<path d="M38.7097 10.4571
L38.8307 10.5781
" />
<path d="M38.8307 10.5781
L38.8912 10.6990
" />
<path d="M38.8912 10.6990
L38.9516 10.9409
" />
<path d="M38.9516 10.9409
L38.9516 11.1223
" />
<path d="M38.9516 11.1223
L38.8912 11.3642
" />
<path d="M38.8912 11.3642
L38.8307 11.4852
" />
<path d="M38.8307 11.4852
L38.7097 11.6062
" />
<path d="M38.7097 11.6062
L38.5283 11.6666
" />
<path d="M38.5283 11.6666
L38.2259 11.6666
" />
</g></g>
<g style="fill:none; 
stroke:#A90000; stroke-width:0.1524; stroke-opacity:1; 
stroke-linecap:round; stroke-linejoin:round;">
<text x="41.0718" y="10.8331"
textLength="2.6222" font-size="1.6933" lengthAdjust="spacingAndGlyphs"
text-anchor="middle" opacity="0" stroke-opacity="0">13</text>
<g class="stroked-text"><desc>13</desc>
<path d="M40.8299 10.6696
L40.1042 10.6696
" />
<path d="M40.4670 10.6696
L40.4670 9.3996
" />
<path d="M40.4670 9.3996
L40.3461 9.5811
" />
<path d="M40.3461 9.5811
L40.2251 9.7020
" />
<path d="M40.2251 9.7020
L40.1042 9.7625
" />
<path d="M41.2532 9.3996
L42.0394 9.3996
" />
<path d="M42.0394 9.3996
L41.6160 9.8834
" />
<path d="M41.6160 9.8834
L41.7975 9.8834
" />
<path d="M41.7975 9.8834
L41.9184 9.9439
" />
<path d="M41.9184 9.9439
L41.9789 10.0044
" />
<path d="M41.9789 10.0044
L42.0394 10.1253
" />
<path d="M42.0394 10.1253
L42.0394 10.4277
" />
<path d="M42.0394 10.4277
L41.9789 10.5487
" />
<path d="M41.9789 10.5487
L41.9184 10.6092
" />
<path d="M41.9184 10.6092
L41.7975 10.6696
" />
<path d="M41.7975 10.6696
L41.4346 10.6696
" />
<path d="M41.4346 10.6696
L41.3137 10.6092
" />
<path d="M41.3137 10.6092
L41.2532 10.5487
" />
</g></g>
<g style="fill:none; 
stroke:#840000; stroke-width:0.1524; stroke-opacity:1; 
stroke-linecap:round; stroke-linejoin:round;">
<path d="M39.8018 8.5471
L42.3418 8.5471
" />
</g>
<g style="fill:none; 
stroke:#006464; stroke-width:0.1524; stroke-opacity:1; 
stroke-linecap:round; stroke-linejoin:round;">
<text x="39.2938" y="9.1821"
textLength="2.5013" font-size="1.6933" lengthAdjust="spacingAndGlyphs"
text-anchor="end" opacity="0" stroke-opacity="0">5V</text>
<g class="stroked-text"><desc>5V</desc>
<path d="M37.8026 7.8566
L37.1978 7.8566
" />
<path d="M37.1978 7.8566
L37.1374 8.4614
" />
<path d="M37.1374 8.4614
L37.1978 8.4009
" />
<path d="M37.1978 8.4009
L37.3188 8.3404
" />
<path d="M37.3188 8.3404
L37.6212 8.3404
" />
<path d="M37.6212 8.3404
L37.7421 8.4009
" />
<path d="M37.7421 8.4009
L37.8026 8.4614
" />
<path d="M37.8026 8.4614
L37.8631 8.5823
" />
<path d="M37.8631 8.5823
L37.8631 8.8847
" />
<path d="M37.8631 8.8847
L37.8026 9.0057
" />
<path d="M37.8026 9.0057
L37.7421 9.0662
" />
<path d="M37.7421 9.0662
L37.6212 9.1266
" />
<path d="M37.6212 9.1266
L37.3188 9.1266
" />
<path d="M37.3188 9.1266
L37.1978 9.0662
" />
<path d="M37.1978 9.0662
L37.1374 9.0057
" />
<path d="M38.2259 7.8566
L38.6492 9.1266
" />
<path d="M38.6492 9.1266
L39.0726 7.8566
" />
</g></g>
<g style="fill:none; 
stroke:#A90000; stroke-width:0.1524; stroke-opacity:1; 
stroke-linecap:round; stroke-linejoin:round;">
<text x="41.0718" y="8.2931"
textLength="2.6222" font-size="1.6933" lengthAdjust="spacingAndGlyphs"
text-anchor="middle" opacity="0" stroke-opacity="0">14</text>
<g class="stroked-text"><desc>14</desc>
<path d="M40.8299 8.1296
L40.1042 8.1296
" />
<path d="M40.4670 8.1296
L40.4670 6.8596
" />
<path d="M40.4670 6.8596
L40.3461 7.0411
" />
<path d="M40.3461 7.0411
L40.2251 7.1620
" />
<path d="M40.2251 7.1620
L40.1042 7.2225
" />
<path d="M41.9184 7.2830
L41.9184 8.1296
" />
<path d="M41.6160 6.7992
L41.3137 7.7063
" />
<path d="M41.3137 7.7063
L42.0998 7.7063
" />
</g></g>
<g style="fill:none; 
stroke:#840000; stroke-width:0.1524; stroke-opacity:1; 
stroke-linecap:round; stroke-linejoin:round;">
<path d="M16.9418 11.0871
L14.4018 11.0871
" />
</g>
<g style="fill:none; 
stroke:#006464; stroke-width:0.1524; stroke-opacity:1; 
stroke-linecap:round; stroke-linejoin:round;">
<text x="17.4498" y="11.7221"
textLength="6.3113" font-size="1.6933" lengthAdjust="spacingAndGlyphs"
text-anchor="start" opacity="0" stroke-opacity="0">D1/A1</text>
<g class="stroked-text"><desc>D1/A1</desc>
<path d="M17.8523 11.6666
L17.8523 10.3966
" />
<path d="M17.8523 10.3966
L18.1547 10.3966
" />
<path d="M18.1547 10.3966
L18.3361 10.4571
" />
<path d="M18.3361 10.4571
L18.4571 10.5781
" />
<path d="M18.4571 10.5781
L18.5176 10.6990
" />
<path d="M18.5176 10.6990
L18.5780 10.9409
" />
<path d="M18.5780 10.9409
L18.5780 11.1223
" />
<path d="M18.5780 11.1223
L18.5176 11.3642
" />
<path d="M18.5176 11.3642
L18.4571 11.4852
" />
<path d="M18.4571 11.4852
L18.3361 11.6062
" />
<path d="M18.3361 11.6062
L18.1547 11.6666
" />
<path d="M18.1547 11.6666
L17.8523 11.6666
" />
<path d="M19.7876 11.6666
L19.0619 11.6666
" />
<path d="M19.4247 11.6666
L19.4247 10.3966
" />
<path d="M19.4247 10.3966
L19.3038 10.5781
" />
<path d="M19.3038 10.5781
L19.1828 10.6990
" />
<path d="M19.1828 10.6990
L19.0619 10.7595
" />
<path d="M21.2390 10.3362
L20.1504 11.9690
" />
<path d="M21.6019 11.3038
L22.2066 11.3038
" />
<path d="M21.4809 11.6666
L21.9042 10.3966
" />
<path d="M21.9042 10.3966
L22.3276 11.6666
" />
<path d="M23.4162 11.6666
L22.6905 11.6666
" />
<path d="M23.0533 11.6666
L23.0533 10.3966
" />
<path d="M23.0533 10.3966
L22.9324 10.5781
" />
<path d="M22.9324 10.5781
L22.8114 10.6990
" />
<path d="M22.8114 10.6990
L22.6905 10.7595
" />
</g></g>
<g style="fill:none; 
stroke:#A90000; stroke-width:0.1524; stroke-opacity:1; 
stroke-linecap:round; stroke-linejoin:round;">
<text x="15.6718" y="10.8331"
textLength="1.4127" font-size="1.6933" lengthAdjust="spacingAndGlyphs"
text-anchor="middle" opacity="0" stroke-opacity="0">2</text>
<g class="stroked-text"><desc>2</desc>
<path d="M15.3090 9.5206
L15.3694 9.4601
" />
<path d="M15.3694 9.4601
L15.4904 9.3996
" />
<path d="M15.4904 9.3996
L15.7928 9.3996
" />
<path d="M15.7928 9.3996
L15.9137 9.4601
" />
<path d="M15.9137 9.4601
L15.9742 9.5206
" />
<path d="M15.9742 9.5206
L16.0347 9.6415
" />
<path d="M16.0347 9.6415
L16.0347 9.7625
" />
<path d="M16.0347 9.7625
L15.9742 9.9439
" />
<path d="M15.9742 9.9439
L15.2485 10.6696
" />
<path d="M15.2485 10.6696
L16.0347 10.6696
" />
</g></g>
<g style="fill:none; 
stroke:#840000; stroke-width:0.1524; stroke-opacity:1; 
stroke-linecap:round; stroke-linejoin:round;">
<path d="M16.9418 13.6271
L14.4018 13.6271
" />
</g>
<g style="fill:none; 
stroke:#006464; stroke-width:0.1524; stroke-opacity:1; 
stroke-linecap:round; stroke-linejoin:round;">
<text x="17.4498" y="14.2621"
textLength="6.3113" font-size="1.6933" lengthAdjust="spacingAndGlyphs"
text-anchor="start" opacity="0" stroke-opacity="0">D2/A2</text>
<g class="stroked-text"><desc>D2/A2</desc>
<path d="M17.8523 14.2066
L17.8523 12.9366
" />
<path d="M17.8523 12.9366
L18.1547 12.9366
" />
<path d="M18.1547 12.9366
L18.3361 12.9971
" />
<path d="M18.3361 12.9971
L18.4571 13.1181
" />
<path d="M18.4571 13.1181
L18.5176 13.2390
" />
<path d="M18.5176 13.2390
L18.5780 13.4809
" />
<path d="M18.5780 13.4809
L18.5780 13.6623
" />
<path d="M18.5780 13.6623
L18.5176 13.9042
" />
<path d="M18.5176 13.9042
L18.4571 14.0252
" />
<path d="M18.4571 14.0252
L18.3361 14.1462
" />
<path d="M18.3361 14.1462
L18.1547 14.2066
" />
<path d="M18.1547 14.2066
L17.8523 14.2066
" />
<path d="M19.0619 13.0576
L19.1223 12.9971
" />
<path d="M19.1223 12.9971
L19.2433 12.9366
" />
<path d="M19.2433 12.9366
L19.5457 12.9366
" />
<path d="M19.5457 12.9366
L19.6666 12.9971
" />
<path d="M19.6666 12.9971
L19.7271 13.0576
" />
<path d="M19.7271 13.0576
L19.7876 13.1785
" />
<path d="M19.7876 13.1785
L19.7876 13.2995
" />
<path d="M19.7876 13.2995
L19.7271 13.4809
" />
<path d="M19.7271 13.4809
L19.0014 14.2066
" />
<path d="M19.0014 14.2066
L19.7876 14.2066
" />
<path d="M21.2390 12.8762
L20.1504 14.5090
" />
<path d="M21.6019 13.8438
L22.2066 13.8438
" />
<path d="M21.4809 14.2066
L21.9042 12.9366
" />
<path d="M21.9042 12.9366
L22.3276 14.2066
" />
<path d="M22.6905 13.0576
L22.7509 12.9971
" />
<path d="M22.7509 12.9971
L22.8719 12.9366
" />
<path d="M22.8719 12.9366
L23.1743 12.9366
" />
<path d="M23.1743 12.9366
L23.2952 12.9971
" />
<path d="M23.2952 12.9971
L23.3557 13.0576
" />
<path d="M23.3557 13.0576
L23.4162 13.1785
" />
<path d="M23.4162 13.1785
L23.4162 13.2995
" />
<path d="M23.4162 13.2995
L23.3557 13.4809
" />
<path d="M23.3557 13.4809
L22.6300 14.2066
" />
<path d="M22.6300 14.2066
L23.4162 14.2066
" />
</g></g>
<g style="fill:none; 
stroke:#A90000; stroke-width:0.1524; stroke-opacity:1; 
stroke-linecap:round; stroke-linejoin:round;">
<text x="15.6718" y="13.3731"
textLength="1.4127" font-size="1.6933" lengthAdjust="spacingAndGlyphs"
text-anchor="middle" opacity="0" stroke-opacity="0">3</text>
<g class="stroked-text"><desc>3</desc>
<path d="M15.2485 11.9396
L16.0347 11.9396
" />
<path d="M16.0347 11.9396
L15.6113 12.4234
" />
<path d="M15.6113 12.4234
L15.7928 12.4234
" />
<path d="M15.7928 12.4234
L15.9137 12.4839
" />
<path d="M15.9137 12.4839
L15.9742 12.5444
" />
<path d="M15.9742 12.5444
L16.0347 12.6653
" />
<path d="M16.0347 12.6653
L16.0347 12.9677
" />
<path d="M16.0347 12.9677
L15.9742 13.0887
" />
<path d="M15.9742 13.0887
L15.9137 13.1492
" />
<path d="M15.9137 13.1492
L15.7928 13.2096
" />
<path d="M15.7928 13.2096
L15.4299 13.2096
" />
<path d="M15.4299 13.2096
L15.3090 13.1492
" />
<path d="M15.3090 13.1492
L15.2485 13.0887
" />
</g></g>
<g style="fill:none; 
stroke:#840000; stroke-width:0.1524; stroke-opacity:1; 
stroke-linecap:round; stroke-linejoin:round;">
<path d="M16.9418 16.1671
L14.4018 16.1671
" />
</g>
<g style="fill:none; 
stroke:#006464; stroke-width:0.1524; stroke-opacity:1; 
stroke-linecap:round; stroke-linejoin:round;">
<text x="17.4498" y="16.8021"
textLength="6.3113" font-size="1.6933" lengthAdjust="spacingAndGlyphs"
text-anchor="start" opacity="0" stroke-opacity="0">D3/A3</text>
<g class="stroked-text"><desc>D3/A3</desc>
<path d="M17.8523 16.7466
L17.8523 15.4766
" />
<path d="M17.8523 15.4766
L18.1547 15.4766
" />
<path d="M18.1547 15.4766
L18.3361 15.5371
" />
<path d="M18.3361 15.5371
L18.4571 15.6581
" />
<path d="M18.4571 15.6581
L18.5176 15.7790
" />
<path d="M18.5176 15.7790
L18.5780 16.0209
" />
<path d="M18.5780 16.0209
L18.5780 16.2023
" />
<path d="M18.5780 16.2023
L18.5176 16.4442
" />
<path d="M18.5176 16.4442
L18.4571 16.5652
" />
<path d="M18.4571 16.5652
L18.3361 16.6862
" />
<path d="M18.3361 16.6862
L18.1547 16.7466
" />
<path d="M18.1547 16.7466
L17.8523 16.7466
" />
<path d="M19.0014 15.4766
L19.7876 15.4766
" />
<path d="M19.7876 15.4766
L19.3642 15.9604
" />
<path d="M19.3642 15.9604
L19.5457 15.9604
" />
<path d="M19.5457 15.9604
L19.6666 16.0209
" />
<path d="M19.6666 16.0209
L19.7271 16.0814
" />
<path d="M19.7271 16.0814
L19.7876 16.2023
" />
<path d="M19.7876 16.2023
L19.7876 16.5047
" />
<path d="M19.7876 16.5047
L19.7271 16.6257
" />
<path d="M19.7271 16.6257
L19.6666 16.6862
" />
<path d="M19.6666 16.6862
L19.5457 16.7466
" />
<path d="M19.5457 16.7466
L19.1828 16.7466
" />
<path d="M19.1828 16.7466
L19.0619 16.6862
" />
<path d="M19.0619 16.6862
L19.0014 16.6257
" />
<path d="M21.2390 15.4162
L20.1504 17.0490
" />
<path d="M21.6019 16.3838
L22.2066 16.3838
" />
<path d="M21.4809 16.7466
L21.9042 15.4766
" />
<path d="M21.9042 15.4766
L22.3276 16.7466
" />
<path d="M22.6300 15.4766
L23.4162 15.4766
" />
<path d="M23.4162 15.4766
L22.9928 15.9604
" />
<path d="M22.9928 15.9604
L23.1743 15.9604
" />
<path d="M23.1743 15.9604
L23.2952 16.0209
" />
<path d="M23.2952 16.0209
L23.3557 16.0814
" />
<path d="M23.3557 16.0814
L23.4162 16.2023
" />
<path d="M23.4162 16.2023
L23.4162 16.5047
" />
<path d="M23.4162 16.5047
L23.3557 16.6257
" />
<path d="M23.3557 16.6257
L23.2952 16.6862
" />
<path d="M23.2952 16.6862
L23.1743 16.7466
" />
<path d="M23.1743 16.7466
L22.8114 16.7466
" />
<path d="M22.8114 16.7466
L22.6905 16.6862
" />
<path d="M22.6905 16.6862
L22.6300 16.6257
" />
</g></g>
<g style="fill:none; 
stroke:#A90000; stroke-width:0.1524; stroke-opacity:1; 
stroke-linecap:round; stroke-linejoin:round;">
<text x="15.6718" y="15.9131"
textLength="1.4127" font-size="1.6933" lengthAdjust="spacingAndGlyphs"
text-anchor="middle" opacity="0" stroke-opacity="0">4</text>
<g class="stroked-text"><desc>4</desc>
<path d="M15.9137 14.9030
L15.9137 15.7496
" />
<path d="M15.6113 14.4192
L15.3090 15.3263
" />
<path d="M15.3090 15.3263
L16.0951 15.3263
" />
</g></g>
<g style="fill:none; 
stroke:#840000; stroke-width:0.1524; stroke-opacity:1; 
stroke-linecap:round; stroke-linejoin:round;">
<path d="M16.9418 18.7071
L14.4018 18.7071
" />
</g>
<g style="fill:none; 
stroke:#006464; stroke-width:0.1524; stroke-opacity:1; 
stroke-linecap:round; stroke-linejoin:round;">
<text x="17.4498" y="19.3421"
textLength="7.5813" font-size="1.6933" lengthAdjust="spacingAndGlyphs"
text-anchor="start" opacity="0" stroke-opacity="0">D4/SDA</text>
<g class="stroked-text"><desc>D4/SDA</desc>
<path d="M17.8523 19.2866
L17.8523 18.0166
" />
<path d="M17.8523 18.0166
L18.1547 18.0166
" />
<path d="M18.1547 18.0166
L18.3361 18.0771
" />
<path d="M18.3361 18.0771
L18.4571 18.1981
" />
<path d="M18.4571 18.1981
L18.5176 18.3190
" />
<path d="M18.5176 18.3190
L18.5780 18.5609
" />
<path d="M18.5780 18.5609
L18.5780 18.7423
" />
<path d="M18.5780 18.7423
L18.5176 18.9842
" />
<path d="M18.5176 18.9842
L18.4571 19.1052
" />
<path d="M18.4571 19.1052
L18.3361 19.2262
" />
<path d="M18.3361 19.2262
L18.1547 19.2866
" />
<path d="M18.1547 19.2866
L17.8523 19.2866
" />
<path d="M19.6666 18.4400
L19.6666 19.2866
" />
<path d="M19.3642 17.9562
L19.0619 18.8633
" />
<path d="M19.0619 18.8633
L19.8480 18.8633
" />
<path d="M21.2390 17.9562
L20.1504 19.5890
" />
<path d="M21.6019 19.2262
L21.7833 19.2866
" />
<path d="M21.7833 19.2866
L22.0857 19.2866
" />
<path d="M22.0857 19.2866
L22.2066 19.2262
" />
<path d="M22.2066 19.2262
L22.2671 19.1657
" />
<path d="M22.2671 19.1657
L22.3276 19.0447
" />
<path d="M22.3276 19.0447
L22.3276 18.9238
" />
<path d="M22.3276 18.9238
L22.2671 18.8028
" />
<path d="M22.2671 18.8028
L22.2066 18.7423
" />
<path d="M22.2066 18.7423
L22.0857 18.6819
" />
<path d="M22.0857 18.6819
L21.8438 18.6214
" />
<path d="M21.8438 18.6214
L21.7228 18.5609
" />
<path d="M21.7228 18.5609
L21.6623 18.5004
" />
<path d="M21.6623 18.5004
L21.6019 18.3795
" />
<path d="M21.6019 18.3795
L21.6019 18.2585
" />
<path d="M21.6019 18.2585
L21.6623 18.1376
" />
<path d="M21.6623 18.1376
L21.7228 18.0771
" />
<path d="M21.7228 18.0771
L21.8438 18.0166
" />
<path d="M21.8438 18.0166
L22.1461 18.0166
" />
<path d="M22.1461 18.0166
L22.3276 18.0771
" />
<path d="M22.8718 19.2866
L22.8718 18.0166
" />
<path d="M22.8718 18.0166
L23.1742 18.0166
" />
<path d="M23.1742 18.0166
L23.3556 18.0771
" />
<path d="M23.3556 18.0771
L23.4766 18.1981
" />
<path d="M23.4766 18.1981
L23.5371 18.3190
" />
<path d="M23.5371 18.3190
L23.5975 18.5609
" />
<path d="M23.5975 18.5609
L23.5975 18.7423
" />
<path d="M23.5975 18.7423
L23.5371 18.9842
" />
<path d="M23.5371 18.9842
L23.4766 19.1052
" />
<path d="M23.4766 19.1052
L23.3556 19.2262
" />
<path d="M23.3556 19.2262
L23.1742 19.2866
" />
<path d="M23.1742 19.2866
L22.8718 19.2866
" />
<path d="M24.0814 18.9238
L24.6861 18.9238
" />
<path d="M23.9604 19.2866
L24.3837 18.0166
" />
<path d="M24.3837 18.0166
L24.8071 19.2866
" />
</g></g>
<g style="fill:none; 
stroke:#A90000; stroke-width:0.1524; stroke-opacity:1; 
stroke-linecap:round; stroke-linejoin:round;">
<text x="15.6718" y="18.4531"
textLength="1.4127" font-size="1.6933" lengthAdjust="spacingAndGlyphs"
text-anchor="middle" opacity="0" stroke-opacity="0">5</text>
<g class="stroked-text"><desc>5</desc>
<path d="M15.9742 17.0196
L15.3694 17.0196
" />
<path d="M15.3694 17.0196
L15.3090 17.6244
" />
<path d="M15.3090 17.6244
L15.3694 17.5639
" />
<path d="M15.3694 17.5639
L15.4904 17.5034
" />
<path d="M15.4904 17.5034
L15.7928 17.5034
" />
<path d="M15.7928 17.5034
L15.9137 17.5639
" />
<path d="M15.9137 17.5639
L15.9742 17.6244
" />
<path d="M15.9742 17.6244
L16.0347 17.7453
" />
<path d="M16.0347 17.7453
L16.0347 18.0477
" />
<path d="M16.0347 18.0477
L15.9742 18.1687
" />
<path d="M15.9742 18.1687
L15.9137 18.2292
" />
<path d="M15.9137 18.2292
L15.7928 18.2896
" />
<path d="M15.7928 18.2896
L15.4904 18.2896
" />
<path d="M15.4904 18.2896
L15.3694 18.2292
" />
<path d="M15.3694 18.2292
L15.3090 18.1687
" />
</g></g>
<g style="fill:none; 
stroke:#840000; stroke-width:0.1524; stroke-opacity:1; 
stroke-linecap:round; stroke-linejoin:round;">
<path d="M16.9418 21.2471
L14.4018 21.2471
" />
</g>
<g style="fill:none; 
stroke:#006464; stroke-width:0.1524; stroke-opacity:1; 
stroke-linecap:round; stroke-linejoin:round;">
<text x="17.4498" y="21.8821"
textLength="7.5208" font-size="1.6933" lengthAdjust="spacingAndGlyphs"
text-anchor="start" opacity="0" stroke-opacity="0">D5/SCL</text>
<g class="stroked-text"><desc>D5/SCL</desc>
<path d="M17.8523 21.8266
L17.8523 20.5566
" />
<path d="M17.8523 20.5566
L18.1547 20.5566
" />
<path d="M18.1547 20.5566
L18.3361 20.6171
" />
<path d="M18.3361 20.6171
L18.4571 20.7381
" />
<path d="M18.4571 20.7381
L18.5176 20.8590
" />
<path d="M18.5176 20.8590
L18.5780 21.1009
" />
<path d="M18.5780 21.1009
L18.5780 21.2823
" />
<path d="M18.5780 21.2823
L18.5176 21.5242
" />
<path d="M18.5176 21.5242
L18.4571 21.6452
" />
<path d="M18.4571 21.6452
L18.3361 21.7662
" />
<path d="M18.3361 21.7662
L18.1547 21.8266
" />
<path d="M18.1547 21.8266
L17.8523 21.8266
" />
<path d="M19.7271 20.5566
L19.1223 20.5566
" />
<path d="M19.1223 20.5566
L19.0619 21.1614
" />
<path d="M19.0619 21.1614
L19.1223 21.1009
" />
<path d="M19.1223 21.1009
L19.2433 21.0404
" />
<path d="M19.2433 21.0404
L19.5457 21.0404
" />
<path d="M19.5457 21.0404
L19.6666 21.1009
" />
<path d="M19.6666 21.1009
L19.7271 21.1614
" />
<path d="M19.7271 21.1614
L19.7876 21.2823
" />
<path d="M19.7876 21.2823
L19.7876 21.5847
" />
<path d="M19.7876 21.5847
L19.7271 21.7057
" />
<path d="M19.7271 21.7057
L19.6666 21.7662
" />
<path d="M19.6666 21.7662
L19.5457 21.8266
" />
<path d="M19.5457 21.8266
L19.2433 21.8266
" />
<path d="M19.2433 21.8266
L19.1223 21.7662
" />
<path d="M19.1223 21.7662
L19.0619 21.7057
" />
<path d="M21.2390 20.4962
L20.1504 22.1290
" />
<path d="M21.6019 21.7662
L21.7833 21.8266
" />
<path d="M21.7833 21.8266
L22.0857 21.8266
" />
<path d="M22.0857 21.8266
L22.2066 21.7662
" />
<path d="M22.2066 21.7662
L22.2671 21.7057
" />
<path d="M22.2671 21.7057
L22.3276 21.5847
" />
<path d="M22.3276 21.5847
L22.3276 21.4638
" />
<path d="M22.3276 21.4638
L22.2671 21.3428
" />
<path d="M22.2671 21.3428
L22.2066 21.2823
" />
<path d="M22.2066 21.2823
L22.0857 21.2219
" />
<path d="M22.0857 21.2219
L21.8438 21.1614
" />
<path d="M21.8438 21.1614
L21.7228 21.1009
" />
<path d="M21.7228 21.1009
L21.6623 21.0404
" />
<path d="M21.6623 21.0404
L21.6019 20.9195
" />
<path d="M21.6019 20.9195
L21.6019 20.7985
" />
<path d="M21.6019 20.7985
L21.6623 20.6776
" />
<path d="M21.6623 20.6776
L21.7228 20.6171
" />
<path d="M21.7228 20.6171
L21.8438 20.5566
" />
<path d="M21.8438 20.5566
L22.1461 20.5566
" />
<path d="M22.1461 20.5566
L22.3276 20.6171
" />
<path d="M23.5975 21.7057
L23.5371 21.7662
" />
<path d="M23.5371 21.7662
L23.3556 21.8266
" />
<path d="M23.3556 21.8266
L23.2347 21.8266
" />
<path d="M23.2347 21.8266
L23.0533 21.7662
" />
<path d="M23.0533 21.7662
L22.9323 21.6452
" />
<path d="M22.9323 21.6452
L22.8718 21.5242
" />
<path d="M22.8718 21.5242
L22.8114 21.2823
" />
<path d="M22.8114 21.2823
L22.8114 21.1009
" />
<path d="M22.8114 21.1009
L22.8718 20.8590
" />
<path d="M22.8718 20.8590
L22.9323 20.7381
" />
<path d="M22.9323 20.7381
L23.0533 20.6171
" />
<path d="M23.0533 20.6171
L23.2347 20.5566
" />
<path d="M23.2347 20.5566
L23.3556 20.5566
" />
<path d="M23.3556 20.5566
L23.5371 20.6171
" />
<path d="M23.5371 20.6171
L23.5975 20.6776
" />
<path d="M24.7466 21.8266
L24.1418 21.8266
" />
<path d="M24.1418 21.8266
L24.1418 20.5566
" />
</g></g>
<g style="fill:none; 
stroke:#A90000; stroke-width:0.1524; stroke-opacity:1; 
stroke-linecap:round; stroke-linejoin:round;">
<text x="15.6718" y="20.9931"
textLength="1.4127" font-size="1.6933" lengthAdjust="spacingAndGlyphs"
text-anchor="middle" opacity="0" stroke-opacity="0">6</text>
<g class="stroked-text"><desc>6</desc>
<path d="M15.9137 19.5596
L15.6718 19.5596
" />
<path d="M15.6718 19.5596
L15.5509 19.6201
" />
<path d="M15.5509 19.6201
L15.4904 19.6806
" />
<path d="M15.4904 19.6806
L15.3694 19.8620
" />
<path d="M15.3694 19.8620
L15.3090 20.1039
" />
<path d="M15.3090 20.1039
L15.3090 20.5877
" />
<path d="M15.3090 20.5877
L15.3694 20.7087
" />
<path d="M15.3694 20.7087
L15.4299 20.7692
" />
<path d="M15.4299 20.7692
L15.5509 20.8296
" />
<path d="M15.5509 20.8296
L15.7928 20.8296
" />
<path d="M15.7928 20.8296
L15.9137 20.7692
" />
<path d="M15.9137 20.7692
L15.9742 20.7087
" />
<path d="M15.9742 20.7087
L16.0347 20.5877
" />
<path d="M16.0347 20.5877
L16.0347 20.2853
" />
<path d="M16.0347 20.2853
L15.9742 20.1644
" />
<path d="M15.9742 20.1644
L15.9137 20.1039
" />
<path d="M15.9137 20.1039
L15.7928 20.0434
" />
<path d="M15.7928 20.0434
L15.5509 20.0434
" />
<path d="M15.5509 20.0434
L15.4299 20.1039
" />
<path d="M15.4299 20.1039
L15.3694 20.1644
" />
<path d="M15.3694 20.1644
L15.3090 20.2853
" />
</g></g>
<g style="fill:none; 
stroke:#840000; stroke-width:0.1524; stroke-opacity:1; 
stroke-linecap:round; stroke-linejoin:round;">
<path d="M16.9418 23.7871
L14.4018 23.7871
" />
</g>
<g style="fill:none; 
stroke:#006464; stroke-width:0.1524; stroke-opacity:1; 
stroke-linecap:round; stroke-linejoin:round;">
<text x="17.4498" y="24.4221"
textLength="6.1903" font-size="1.6933" lengthAdjust="spacingAndGlyphs"
text-anchor="start" opacity="0" stroke-opacity="0">D6/TX</text>
<g class="stroked-text"><desc>D6/TX</desc>
<path d="M17.8523 24.3666
L17.8523 23.0966
" />
<path d="M17.8523 23.0966
L18.1547 23.0966
" />
<path d="M18.1547 23.0966
L18.3361 23.1571
" />
<path d="M18.3361 23.1571
L18.4571 23.2781
" />
<path d="M18.4571 23.2781
L18.5176 23.3990
" />
<path d="M18.5176 23.3990
L18.5780 23.6409
" />
<path d="M18.5780 23.6409
L18.5780 23.8223
" />
<path d="M18.5780 23.8223
L18.5176 24.0642
" />
<path d="M18.5176 24.0642
L18.4571 24.1852
" />
<path d="M18.4571 24.1852
L18.3361 24.3062
" />
<path d="M18.3361 24.3062
L18.1547 24.3666
" />
<path d="M18.1547 24.3666
L17.8523 24.3666
" />
<path d="M19.6666 23.0966
L19.4247 23.0966
" />
<path d="M19.4247 23.0966
L19.3038 23.1571
" />
<path d="M19.3038 23.1571
L19.2433 23.2176
" />
<path d="M19.2433 23.2176
L19.1223 23.3990
" />
<path d="M19.1223 23.3990
L19.0619 23.6409
" />
<path d="M19.0619 23.6409
L19.0619 24.1247
" />
<path d="M19.0619 24.1247
L19.1223 24.2457
" />
<path d="M19.1223 24.2457
L19.1828 24.3062
" />
<path d="M19.1828 24.3062
L19.3038 24.3666
" />
<path d="M19.3038 24.3666
L19.5457 24.3666
" />
<path d="M19.5457 24.3666
L19.6666 24.3062
" />
<path d="M19.6666 24.3062
L19.7271 24.2457
" />
<path d="M19.7271 24.2457
L19.7876 24.1247
" />
<path d="M19.7876 24.1247
L19.7876 23.8223
" />
<path d="M19.7876 23.8223
L19.7271 23.7014
" />
<path d="M19.7271 23.7014
L19.6666 23.6409
" />
<path d="M19.6666 23.6409
L19.5457 23.5804
" />
<path d="M19.5457 23.5804
L19.3038 23.5804
" />
<path d="M19.3038 23.5804
L19.1828 23.6409
" />
<path d="M19.1828 23.6409
L19.1223 23.7014
" />
<path d="M19.1223 23.7014
L19.0619 23.8223
" />
<path d="M21.2390 23.0362
L20.1504 24.6690
" />
<path d="M21.4809 23.0966
L22.2066 23.0966
" />
<path d="M21.8438 24.3666
L21.8438 23.0966
" />
<path d="M22.5090 23.0966
L23.3556 24.3666
" />
<path d="M23.3556 23.0966
L22.5090 24.3666
" />
</g></g>
<g style="fill:none; 
stroke:#A90000; stroke-width:0.1524; stroke-opacity:1; 
stroke-linecap:round; stroke-linejoin:round;">
<text x="15.6718" y="23.5331"
textLength="1.4127" font-size="1.6933" lengthAdjust="spacingAndGlyphs"
text-anchor="middle" opacity="0" stroke-opacity="0">7</text>
<g class="stroked-text"><desc>7</desc>
<path d="M15.2485 22.0996
L16.0951 22.0996
" />
<path d="M16.0951 22.0996
L15.5509 23.3696
" />
</g></g>
<g style="fill:none; 
stroke:#840000; stroke-width:0.1524; stroke-opacity:1; 
stroke-linecap:round; stroke-linejoin:round;">
<path d="M39.8018 23.7871
L42.3418 23.7871
" />
</g>
<g style="fill:none; 
stroke:#006464; stroke-width:0.1524; stroke-opacity:1; 
stroke-linecap:round; stroke-linejoin:round;">
<text x="39.2938" y="24.4221"
textLength="6.4927" font-size="1.6933" lengthAdjust="spacingAndGlyphs"
text-anchor="end" opacity="0" stroke-opacity="0">RX/D7</text>
<g class="stroked-text"><desc>RX/D7</desc>
<path d="M33.9321 24.3666
L33.5088 23.7619
" />
<path d="M33.2064 24.3666
L33.2064 23.0966
" />
<path d="M33.2064 23.0966
L33.6902 23.0966
" />
<path d="M33.6902 23.0966
L33.8112 23.1571
" />
<path d="M33.8112 23.1571
L33.8717 23.2176
" />
<path d="M33.8717 23.2176
L33.9321 23.3385
" />
<path d="M33.9321 23.3385
L33.9321 23.5200
" />
<path d="M33.9321 23.5200
L33.8717 23.6409
" />
<path d="M33.8717 23.6409
L33.8112 23.7014
" />
<path d="M33.8112 23.7014
L33.6902 23.7619
" />
<path d="M33.6902 23.7619
L33.2064 23.7619
" />
<path d="M34.3555 23.0966
L35.2021 24.3666
" />
<path d="M35.2021 23.0966
L34.3555 24.3666
" />
<path d="M36.5931 23.0362
L35.5045 24.6690
" />
<path d="M37.0164 24.3666
L37.0164 23.0966
" />
<path d="M37.0164 23.0966
L37.3188 23.0966
" />
<path d="M37.3188 23.0966
L37.5002 23.1571
" />
<path d="M37.5002 23.1571
L37.6212 23.2781
" />
<path d="M37.6212 23.2781
L37.6817 23.3990
" />
<path d="M37.6817 23.3990
L37.7421 23.6409
" />
<path d="M37.7421 23.6409
L37.7421 23.8223
" />
<path d="M37.7421 23.8223
L37.6817 24.0642
" />
<path d="M37.6817 24.0642
L37.6212 24.1852
" />
<path d="M37.6212 24.1852
L37.5002 24.3062
" />
<path d="M37.5002 24.3062
L37.3188 24.3666
" />
<path d="M37.3188 24.3666
L37.0164 24.3666
" />
<path d="M38.1655 23.0966
L39.0121 23.0966
" />
<path d="M39.0121 23.0966
L38.4679 24.3666
" />
</g></g>
<g style="fill:none; 
stroke:#A90000; stroke-width:0.1524; stroke-opacity:1; 
stroke-linecap:round; stroke-linejoin:round;">
<text x="41.0718" y="23.5331"
textLength="1.4127" font-size="1.6933" lengthAdjust="spacingAndGlyphs"
text-anchor="middle" opacity="0" stroke-opacity="0">8</text>
<g class="stroked-text"><desc>8</desc>
<path d="M40.9509 22.6439
L40.8299 22.5834
" />
<path d="M40.8299 22.5834
L40.7694 22.5230
" />
<path d="M40.7694 22.5230
L40.7090 22.4020
" />
<path d="M40.7090 22.4020
L40.7090 22.3415
" />
<path d="M40.7090 22.3415
L40.7694 22.2206
" />
<path d="M40.7694 22.2206
L40.8299 22.1601
" />
<path d="M40.8299 22.1601
L40.9509 22.0996
" />
<path d="M40.9509 22.0996
L41.1928 22.0996
" />
<path d="M41.1928 22.0996
L41.3137 22.1601
" />
<path d="M41.3137 22.1601
L41.3742 22.2206
" />
<path d="M41.3742 22.2206
L41.4347 22.3415
" />
<path d="M41.4347 22.3415
L41.4347 22.4020
" />
<path d="M41.4347 22.4020
L41.3742 22.5230
" />
<path d="M41.3742 22.5230
L41.3137 22.5834
" />
<path d="M41.3137 22.5834
L41.1928 22.6439
" />
<path d="M41.1928 22.6439
L40.9509 22.6439
" />
<path d="M40.9509 22.6439
L40.8299 22.7044
" />
<path d="M40.8299 22.7044
L40.7694 22.7649
" />
<path d="M40.7694 22.7649
L40.7090 22.8858
" />
<path d="M40.7090 22.8858
L40.7090 23.1277
" />
<path d="M40.7090 23.1277
L40.7694 23.2487
" />
<path d="M40.7694 23.2487
L40.8299 23.3092
" />
<path d="M40.8299 23.3092
L40.9509 23.3696
" />
<path d="M40.9509 23.3696
L41.1928 23.3696
" />
<path d="M41.1928 23.3696
L41.3137 23.3092
" />
<path d="M41.3137 23.3092
L41.3742 23.2487
" />
<path d="M41.3742 23.2487
L41.4347 23.1277
" />
<path d="M41.4347 23.1277
L41.4347 22.8858
" />
<path d="M41.4347 22.8858
L41.3742 22.7649
" />
<path d="M41.3742 22.7649
L41.3137 22.7044
" />
<path d="M41.3137 22.7044
L41.1928 22.6439
" />
</g></g>
<g style="fill:none; 
stroke:#840000; stroke-width:0.1524; stroke-opacity:1; 
stroke-linecap:round; stroke-linejoin:round;">
<path d="M39.8018 21.2471
L42.3418 21.2471
" />
</g>
<g style="fill:none; 
stroke:#006464; stroke-width:0.1524; stroke-opacity:1; 
stroke-linecap:round; stroke-linejoin:round;">
<text x="39.2938" y="21.8821"
textLength="7.7627" font-size="1.6933" lengthAdjust="spacingAndGlyphs"
text-anchor="end" opacity="0" stroke-opacity="0">SCK/D8</text>
<g class="stroked-text"><desc>SCK/D8</desc>
<path d="M31.8760 21.7662
L32.0574 21.8266
" />
<path d="M32.0574 21.8266
L32.3598 21.8266
" />
<path d="M32.3598 21.8266
L32.4807 21.7662
" />
<path d="M32.4807 21.7662
L32.5412 21.7057
" />
<path d="M32.5412 21.7057
L32.6017 21.5847
" />
<path d="M32.6017 21.5847
L32.6017 21.4638
" />
<path d="M32.6017 21.4638
L32.5412 21.3428
" />
<path d="M32.5412 21.3428
L32.4807 21.2823
" />
<path d="M32.4807 21.2823
L32.3598 21.2219
" />
<path d="M32.3598 21.2219
L32.1179 21.1614
" />
<path d="M32.1179 21.1614
L31.9969 21.1009
" />
<path d="M31.9969 21.1009
L31.9364 21.0404
" />
<path d="M31.9364 21.0404
L31.8760 20.9195
" />
<path d="M31.8760 20.9195
L31.8760 20.7985
" />
<path d="M31.8760 20.7985
L31.9364 20.6776
" />
<path d="M31.9364 20.6776
L31.9969 20.6171
" />
<path d="M31.9969 20.6171
L32.1179 20.5566
" />
<path d="M32.1179 20.5566
L32.4202 20.5566
" />
<path d="M32.4202 20.5566
L32.6017 20.6171
" />
<path d="M33.8716 21.7057
L33.8112 21.7662
" />
<path d="M33.8112 21.7662
L33.6297 21.8266
" />
<path d="M33.6297 21.8266
L33.5088 21.8266
" />
<path d="M33.5088 21.8266
L33.3274 21.7662
" />
<path d="M33.3274 21.7662
L33.2064 21.6452
" />
<path d="M33.2064 21.6452
L33.1459 21.5242
" />
<path d="M33.1459 21.5242
L33.0855 21.2823
" />
<path d="M33.0855 21.2823
L33.0855 21.1009
" />
<path d="M33.0855 21.1009
L33.1459 20.8590
" />
<path d="M33.1459 20.8590
L33.2064 20.7381
" />
<path d="M33.2064 20.7381
L33.3274 20.6171
" />
<path d="M33.3274 20.6171
L33.5088 20.5566
" />
<path d="M33.5088 20.5566
L33.6297 20.5566
" />
<path d="M33.6297 20.5566
L33.8112 20.6171
" />
<path d="M33.8112 20.6171
L33.8716 20.6776
" />
<path d="M34.4159 21.8266
L34.4159 20.5566
" />
<path d="M35.1416 21.8266
L34.5974 21.1009
" />
<path d="M35.1416 20.5566
L34.4159 21.2823
" />
<path d="M36.5931 20.4962
L35.5045 22.1290
" />
<path d="M37.0164 21.8266
L37.0164 20.5566
" />
<path d="M37.0164 20.5566
L37.3188 20.5566
" />
<path d="M37.3188 20.5566
L37.5002 20.6171
" />
<path d="M37.5002 20.6171
L37.6212 20.7381
" />
<path d="M37.6212 20.7381
L37.6817 20.8590
" />
<path d="M37.6817 20.8590
L37.7421 21.1009
" />
<path d="M37.7421 21.1009
L37.7421 21.2823
" />
<path d="M37.7421 21.2823
L37.6817 21.5242
" />
<path d="M37.6817 21.5242
L37.6212 21.6452
" />
<path d="M37.6212 21.6452
L37.5002 21.7662
" />
<path d="M37.5002 21.7662
L37.3188 21.8266
" />
<path d="M37.3188 21.8266
L37.0164 21.8266
" />
<path d="M38.4679 21.1009
L38.3469 21.0404
" />
<path d="M38.3469 21.0404
L38.2864 20.9800
" />
<path d="M38.2864 20.9800
L38.2260 20.8590
" />
<path d="M38.2260 20.8590
L38.2260 20.7985
" />
<path d="M38.2260 20.7985
L38.2864 20.6776
" />
<path d="M38.2864 20.6776
L38.3469 20.6171
" />
<path d="M38.3469 20.6171
L38.4679 20.5566
" />
<path d="M38.4679 20.5566
L38.7098 20.5566
" />
<path d="M38.7098 20.5566
L38.8307 20.6171
" />
<path d="M38.8307 20.6171
L38.8912 20.6776
" />
<path d="M38.8912 20.6776
L38.9517 20.7985
" />
<path d="M38.9517 20.7985
L38.9517 20.8590
" />
<path d="M38.9517 20.8590
L38.8912 20.9800
" />
<path d="M38.8912 20.9800
L38.8307 21.0404
" />
<path d="M38.8307 21.0404
L38.7098 21.1009
" />
<path d="M38.7098 21.1009
L38.4679 21.1009
" />
<path d="M38.4679 21.1009
L38.3469 21.1614
" />
<path d="M38.3469 21.1614
L38.2864 21.2219
" />
<path d="M38.2864 21.2219
L38.2260 21.3428
" />
<path d="M38.2260 21.3428
L38.2260 21.5847
" />
<path d="M38.2260 21.5847
L38.2864 21.7057
" />
<path d="M38.2864 21.7057
L38.3469 21.7662
" />
<path d="M38.3469 21.7662
L38.4679 21.8266
" />
<path d="M38.4679 21.8266
L38.7098 21.8266
" />
<path d="M38.7098 21.8266
L38.8307 21.7662
" />
<path d="M38.8307 21.7662
L38.8912 21.7057
" />
<path d="M38.8912 21.7057
L38.9517 21.5847
" />
<path d="M38.9517 21.5847
L38.9517 21.3428
" />
<path d="M38.9517 21.3428
L38.8912 21.2219
" />
<path d="M38.8912 21.2219
L38.8307 21.1614
" />
<path d="M38.8307 21.1614
L38.7098 21.1009
" />
</g></g>
<g style="fill:none; 
stroke:#A90000; stroke-width:0.1524; stroke-opacity:1; 
stroke-linecap:round; stroke-linejoin:round;">
<text x="41.0718" y="20.9931"
textLength="1.4127" font-size="1.6933" lengthAdjust="spacingAndGlyphs"
text-anchor="middle" opacity="0" stroke-opacity="0">9</text>
<g class="stroked-text"><desc>9</desc>
<path d="M40.8299 20.8296
L41.0718 20.8296
" />
<path d="M41.0718 20.8296
L41.1928 20.7692
" />
<path d="M41.1928 20.7692
L41.2532 20.7087
" />
<path d="M41.2532 20.7087
L41.3742 20.5272
" />
<path d="M41.3742 20.5272
L41.4347 20.2853
" />
<path d="M41.4347 20.2853
L41.4347 19.8015
" />
<path d="M41.4347 19.8015
L41.3742 19.6806
" />
<path d="M41.3742 19.6806
L41.3137 19.6201
" />
<path d="M41.3137 19.6201
L41.1928 19.5596
" />
<path d="M41.1928 19.5596
L40.9509 19.5596
" />
<path d="M40.9509 19.5596
L40.8299 19.6201
" />
<path d="M40.8299 19.6201
L40.7694 19.6806
" />
<path d="M40.7694 19.6806
L40.7090 19.8015
" />
<path d="M40.7090 19.8015
L40.7090 20.1039
" />
<path d="M40.7090 20.1039
L40.7694 20.2249
" />
<path d="M40.7694 20.2249
L40.8299 20.2853
" />
<path d="M40.8299 20.2853
L40.9509 20.3458
" />
<path d="M40.9509 20.3458
L41.1928 20.3458
" />
<path d="M41.1928 20.3458
L41.3137 20.2853
" />
<path d="M41.3137 20.2853
L41.3742 20.2249
" />
<path d="M41.3742 20.2249
L41.4347 20.1039
" />
</g></g>
<g style="fill:none; 
stroke:#006464; stroke-width:0.1588; stroke-opacity:1; 
stroke-linecap:round; stroke-linejoin:round;">
<text x="28.3718" y="4.3562"
textLength="2.6415" font-size="1.6933" lengthAdjust="spacingAndGlyphs"
text-anchor="middle" opacity="0" stroke-opacity="0">U?</text>
<g class="stroked-text"><desc>U?</desc>
<path d="M27.4646 3.0304
L27.4646 4.0585
" />
<path d="M27.4646 4.0585
L27.5251 4.1795
" />
<path d="M27.5251 4.1795
L27.5856 4.2400
" />
<path d="M27.5856 4.2400
L27.7065 4.3004
" />
<path d="M27.7065 4.3004
L27.9484 4.3004
" />
<path d="M27.9484 4.3004
L28.0694 4.2400
" />
<path d="M28.0694 4.2400
L28.1299 4.1795
" />
<path d="M28.1299 4.1795
L28.1903 4.0585
" />
<path d="M28.1903 4.0585
L28.1903 3.0304
" />
<path d="M28.9766 4.1795
L29.0370 4.2400
" />
<path d="M29.0370 4.2400
L28.9766 4.3004
" />
<path d="M28.9766 4.3004
L28.9161 4.2400
" />
<path d="M28.9161 4.2400
L28.9766 4.1795
" />
<path d="M28.9766 4.1795
L28.9766 4.3004
" />
<path d="M28.7347 3.0909
L28.8556 3.0304
" />
<path d="M28.8556 3.0304
L29.1580 3.0304
" />
<path d="M29.1580 3.0304
L29.2789 3.0909
" />
<path d="M29.2789 3.0909
L29.3394 3.2119
" />
<path d="M29.3394 3.2119
L29.3394 3.3328
" />
<path d="M29.3394 3.3328
L29.2789 3.4538
" />
<path d="M29.2789 3.4538
L29.2185 3.5142
" />
<path d="M29.2185 3.5142
L29.0975 3.5747
" />
<path d="M29.0975 3.5747
L29.0370 3.6352
" />
<path d="M29.0370 3.6352
L28.9766 3.7561
" />
<path d="M28.9766 3.7561
L28.9766 3.8166
" />
</g><text x="28.3718" y="29.2482"
textLength="13.4062" font-size="1.6933" lengthAdjust="spacingAndGlyphs"
text-anchor="middle" opacity="0" stroke-opacity="0">XIAO-RP2040</text>
<g class="stroked-text"><desc>XIAO-RP2040</desc>
<path d="M21.9613 27.9224
L22.8079 29.1924
" />
<path d="M22.8079 27.9224
L21.9613 29.1924
" />
<path d="M23.2917 29.1924
L23.2917 27.9224
" />
<path d="M23.8361 28.8296
L24.4408 28.8296
" />
<path d="M23.7151 29.1924
L24.1384 27.9224
" />
<path d="M24.1384 27.9224
L24.5618 29.1924
" />
<path d="M25.2270 27.9224
L25.4689 27.9224
" />
<path d="M25.4689 27.9224
L25.5899 27.9829
" />
<path d="M25.5899 27.9829
L25.7108 28.1039
" />
<path d="M25.7108 28.1039
L25.7713 28.3458
" />
<path d="M25.7713 28.3458
L25.7713 28.7691
" />
<path d="M25.7713 28.7691
L25.7108 29.0110
" />
<path d="M25.7108 29.0110
L25.5899 29.1320
" />
<path d="M25.5899 29.1320
L25.4689 29.1924
" />
<path d="M25.4689 29.1924
L25.2270 29.1924
" />
<path d="M25.2270 29.1924
L25.1061 29.1320
" />
<path d="M25.1061 29.1320
L24.9851 29.0110
" />
<path d="M24.9851 29.0110
L24.9247 28.7691
" />
<path d="M24.9247 28.7691
L24.9247 28.3458
" />
<path d="M24.9247 28.3458
L24.9851 28.1039
" />
<path d="M24.9851 28.1039
L25.1061 27.9829
" />
<path d="M25.1061 27.9829
L25.2270 27.9224
" />
<path d="M26.3156 28.7086
L27.2833 28.7086
" />
<path d="M28.6137 29.1924
L28.1904 28.5877
" />
<path d="M27.8880 29.1924
L27.8880 27.9224
" />
<path d="M27.8880 27.9224
L28.3718 27.9224
" />
<path d="M28.3718 27.9224
L28.4928 27.9829
" />
<path d="M28.4928 27.9829
L28.5533 28.0434
" />
<path d="M28.5533 28.0434
L28.6137 28.1643
" />
<path d="M28.6137 28.1643
L28.6137 28.3458
" />
<path d="M28.6137 28.3458
L28.5533 28.4667
" />
<path d="M28.5533 28.4667
L28.4928 28.5272
" />
<path d="M28.4928 28.5272
L28.3718 28.5877
" />
<path d="M28.3718 28.5877
L27.8880 28.5877
" />
<path d="M29.1580 29.1924
L29.1580 27.9224
" />
<path d="M29.1580 27.9224
L29.6418 27.9224
" />
<path d="M29.6418 27.9224
L29.7628 27.9829
" />
<path d="M29.7628 27.9829
L29.8233 28.0434
" />
<path d="M29.8233 28.0434
L29.8837 28.1643
" />
<path d="M29.8837 28.1643
L29.8837 28.3458
" />
<path d="M29.8837 28.3458
L29.8233 28.4667
" />
<path d="M29.8233 28.4667
L29.7628 28.5272
" />
<path d="M29.7628 28.5272
L29.6418 28.5877
" />
<path d="M29.6418 28.5877
L29.1580 28.5877
" />
<path d="M30.3676 28.0434
L30.4280 27.9829
" />
<path d="M30.4280 27.9829
L30.5490 27.9224
" />
<path d="M30.5490 27.9224
L30.8514 27.9224
" />
<path d="M30.8514 27.9224
L30.9723 27.9829
" />
<path d="M30.9723 27.9829
L31.0328 28.0434
" />
<path d="M31.0328 28.0434
L31.0933 28.1643
" />
<path d="M31.0933 28.1643
L31.0933 28.2853
" />
<path d="M31.0933 28.2853
L31.0328 28.4667
" />
<path d="M31.0328 28.4667
L30.3071 29.1924
" />
<path d="M30.3071 29.1924
L31.0933 29.1924
" />
<path d="M31.8794 27.9224
L32.0004 27.9224
" />
<path d="M32.0004 27.9224
L32.1213 27.9829
" />
<path d="M32.1213 27.9829
L32.1818 28.0434
" />
<path d="M32.1818 28.0434
L32.2423 28.1643
" />
<path d="M32.2423 28.1643
L32.3028 28.4062
" />
<path d="M32.3028 28.4062
L32.3028 28.7086
" />
<path d="M32.3028 28.7086
L32.2423 28.9505
" />
<path d="M32.2423 28.9505
L32.1818 29.0715
" />
<path d="M32.1818 29.0715
L32.1213 29.1320
" />
<path d="M32.1213 29.1320
L32.0004 29.1924
" />
<path d="M32.0004 29.1924
L31.8794 29.1924
" />
<path d="M31.8794 29.1924
L31.7585 29.1320
" />
<path d="M31.7585 29.1320
L31.6980 29.0715
" />
<path d="M31.6980 29.0715
L31.6375 28.9505
" />
<path d="M31.6375 28.9505
L31.5771 28.7086
" />
<path d="M31.5771 28.7086
L31.5771 28.4062
" />
<path d="M31.5771 28.4062
L31.6375 28.1643
" />
<path d="M31.6375 28.1643
L31.6980 28.0434
" />
<path d="M31.6980 28.0434
L31.7585 27.9829
" />
<path d="M31.7585 27.9829
L31.8794 27.9224
" />
<path d="M33.3913 28.3458
L33.3913 29.1924
" />
<path d="M33.0889 27.8620
L32.7866 28.7691
" />
<path d="M32.7866 28.7691
L33.5727 28.7691
" />
<path d="M34.2984 27.9224
L34.4194 27.9224
" />
<path d="M34.4194 27.9224
L34.5403 27.9829
" />
<path d="M34.5403 27.9829
L34.6008 28.0434
" />
<path d="M34.6008 28.0434
L34.6613 28.1643
" />
<path d="M34.6613 28.1643
L34.7218 28.4062
" />
<path d="M34.7218 28.4062
L34.7218 28.7086
" />
<path d="M34.7218 28.7086
L34.6613 28.9505
" />
<path d="M34.6613 28.9505
L34.6008 29.0715
" />
<path d="M34.6008 29.0715
L34.5403 29.1320
" />
<path d="M34.5403 29.1320
L34.4194 29.1924
" />
<path d="M34.4194 29.1924
L34.2984 29.1924
" />
<path d="M34.2984 29.1924
L34.1775 29.1320
" />
<path d="M34.1775 29.1320
L34.1170 29.0715
" />
<path d="M34.1170 29.0715
L34.0565 28.9505
" />
<path d="M34.0565 28.9505
L33.9961 28.7086
" />
<path d="M33.9961 28.7086
L33.9961 28.4062
" />
<path d="M33.9961 28.4062
L34.0565 28.1643
" />
<path d="M34.0565 28.1643
L34.1170 28.0434
" />
<path d="M34.1170 28.0434
L34.1775 27.9829
" />
<path d="M34.1775 27.9829
L34.2984 27.9224
" />
</g></g> 
</svg>
