<svg xmlns="http://www.w3.org/2000/svg" width="130.176" height="146.4" viewBox="0 0 34.442 38.735">
    <rect width="22.86" height="25.4" x="5.791" y="6.921" rx="0" style="fill:#ffffc2;fill-opacity:1;stroke:none"/>
    <g style="fill:none;stroke:#840000;stroke-width:.1524;stroke-opacity:1;stroke-linecap:round;stroke-linejoin:round">
        <rect width="22.86" height="25.4" x="5.791" y="6.921" rx="0"/>
        <path d="M5.791 27.877h-2.54"/>
    </g>
    <g class="stroked-text" style="fill:none;stroke:#006464;stroke-width:.1524;stroke-opacity:1;stroke-linecap:round;stroke-linejoin:round">
        <path d="m7.125 27.79.181.061M7.307 27.851l.06.06M7.367 27.912l.06.12M7.427 28.033v.181M7.427 28.214l-.06.121M7.367 28.335l-.06.06M7.307 28.396l-.122.06M7.186 28.456h-.484M6.702 28.456v-1.27M6.702 27.186h.423M7.125 27.186l.121.06M7.246 27.247l.06.06M7.307 27.307l.06.12M7.367 27.428v.12M7.367 27.549l-.06.12M7.307 27.67l-.061.06M7.246 27.73l-.12.06M7.125 27.79h-.423M7.911 28.093h.605M7.79 28.456l.424-1.27M8.214 27.186l.423 1.27M8.879 27.186h.726M9.242 28.456v-1.27M10.028 27.972h.968"/>
    </g>
    <g class="stroked-text" style="fill:none;stroke:#a90000;stroke-width:.1524;stroke-opacity:1;stroke-linecap:round;stroke-linejoin:round">
        <path d="m4.007 26.794.182.06M4.189 26.854l.06.06M4.25 26.915l.06.12M4.31 27.036v.181M4.31 27.217l-.06.121M4.25 27.338l-.061.06M4.189 27.399l-.121.06M4.068 27.459h-.484M3.584 27.459v-1.27M3.584 26.189h.423M4.007 26.189l.121.06M4.128 26.25l.06.06M4.189 26.31l.06.12M4.25 26.43v.122M4.25 26.552l-.061.12M4.189 26.673l-.06.06M4.128 26.733l-.12.06M4.007 26.794h-.423M5.52 27.459h-.727M5.156 27.459v-1.27M5.156 26.189l-.12.181M5.035 26.37l-.12.121M4.914 26.491l-.12.06"/>
    </g>
    <path d="M5.791 30.417h-2.54" style="fill:none;stroke:#840000;stroke-width:.1524;stroke-opacity:1;stroke-linecap:round;stroke-linejoin:round"/>
    <g class="stroked-text" style="fill:none;stroke:#006464;stroke-width:.1524;stroke-opacity:1;stroke-linecap:round;stroke-linejoin:round">
        <path d="m7.125 30.33.181.061M7.307 30.391l.06.06M7.367 30.452l.06.12M7.427 30.573v.181M7.427 30.754l-.06.121M7.367 30.875l-.06.06M7.307 30.936l-.122.06M7.186 30.996h-.484M6.702 30.996v-1.27M6.702 29.726h.423M7.125 29.726l.121.06M7.246 29.787l.06.06M7.307 29.847l.06.12M7.367 29.968v.12M7.367 30.089l-.06.12M7.307 30.21l-.061.06M7.246 30.27l-.12.06M7.125 30.33h-.423M7.911 30.633h.605M7.79 30.996l.424-1.27M8.214 29.726l.423 1.27M8.879 29.726h.726M9.242 30.996v-1.27M10.028 30.512h.968M10.512 30.996v-.968"/>
    </g>
    <g class="stroked-text" style="fill:none;stroke:#a90000;stroke-width:.1524;stroke-opacity:1;stroke-linecap:round;stroke-linejoin:round">
        <path d="m4.007 29.334.182.06M4.189 29.394l.06.06M4.25 29.455l.06.12M4.31 29.576v.181M4.31 29.757l-.06.121M4.25 29.878l-.061.06M4.189 29.939l-.121.06M4.068 29.999h-.484M3.584 29.999v-1.27M3.584 28.729h.423M4.007 28.729l.121.06M4.128 28.79l.06.06M4.189 28.85l.06.12M4.25 28.97v.122M4.25 29.092l-.061.12M4.189 29.213l-.06.06M4.128 29.273l-.12.06M4.007 29.334h-.423M4.793 28.85l.06-.06M4.854 28.79l.12-.061M4.975 28.729h.302M5.277 28.729l.121.06M5.398 28.79l.06.06M5.459 28.85l.06.12M5.52 28.97v.122M5.52 29.092l-.061.181M5.459 29.273 4.733 30M4.733 29.999h.786"/>
    </g>
    <path d="M5.791 8.827h-2.54" style="fill:none;stroke:#840000;stroke-width:.1524;stroke-opacity:1;stroke-linecap:round;stroke-linejoin:round"/>
    <g class="stroked-text" style="fill:none;stroke:#006464;stroke-width:.1524;stroke-opacity:1;stroke-linecap:round;stroke-linejoin:round">
        <path d="M6.702 9.406v-1.27M6.702 8.136h.302M7.004 8.136l.182.06M7.186 8.197l.12.12M7.307 8.318l.06.12M7.367 8.438l.06.242M7.427 8.68v.182M7.427 8.862l-.06.242M7.367 9.104l-.06.12M7.307 9.225l-.122.12M7.186 9.346l-.182.06M7.004 9.406h-.302M8.214 8.136h.12M8.335 8.136l.12.06M8.456 8.197l.06.06M8.516 8.257l.06.12M8.577 8.378l.06.242M8.637 8.62v.302M8.637 8.922l-.06.242M8.577 9.164l-.061.121M8.516 9.285l-.06.06M8.456 9.346l-.121.06M8.335 9.406h-.121M8.214 9.406l-.121-.06M8.093 9.346l-.06-.06M8.032 9.285l-.06-.12M7.972 9.164l-.06-.242M7.911 8.922V8.62M7.911 8.62l.06-.242M7.972 8.378l.06-.121M8.032 8.257l.06-.06M8.093 8.197l.12-.061M10.088 8.076 9 9.708M10.451 9.043h.605M10.33 9.406l.424-1.27M10.754 8.136l.423 1.27M11.842 8.136h.121M11.963 8.136l.121.06M12.084 8.197l.06.06M12.145 8.257l.06.12M12.205 8.378l.06.242M12.266 8.62v.302M12.266 8.922l-.06.242M12.205 9.164l-.06.121M12.145 9.285l-.06.06M12.084 9.346l-.12.06M11.963 9.406h-.12M11.842 9.406l-.12-.06M11.721 9.346l-.06-.06M11.66 9.285l-.06-.12M11.6 9.164l-.06-.242M11.54 8.922V8.62M11.54 8.62l.06-.242M11.6 8.378l.06-.121M11.66 8.257l.061-.06M11.721 8.197l.121-.061"/>
    </g>
    <g class="stroked-text" style="fill:none;stroke:#a90000;stroke-width:.1524;stroke-opacity:1;stroke-linecap:round;stroke-linejoin:round">
        <path d="M4.884 8.409h-.726M4.521 8.409v-1.27M4.521 7.139l-.12.181M4.4 7.32l-.12.121M4.28 7.441l-.122.06"/>
    </g>
    <path d="M5.791 11.367h-2.54" style="fill:none;stroke:#840000;stroke-width:.1524;stroke-opacity:1;stroke-linecap:round;stroke-linejoin:round"/>
    <g class="stroked-text" style="fill:none;stroke:#006464;stroke-width:.1524;stroke-opacity:1;stroke-linecap:round;stroke-linejoin:round">
        <path d="M6.702 11.946v-1.27M6.702 10.676h.302M7.004 10.676l.182.06M7.186 10.737l.12.12M7.307 10.858l.06.12M7.367 10.978l.06.242M7.427 11.22v.182M7.427 11.402l-.06.242M7.367 11.644l-.06.12M7.307 11.765l-.122.12M7.186 11.886l-.182.06M7.004 11.946h-.302M8.637 11.946h-.726M8.274 11.946v-1.27M8.274 10.676l-.12.181M8.153 10.858l-.12.12M8.032 10.978l-.12.06M10.088 10.616 9 12.248M10.451 11.583h.605M10.33 11.946l.424-1.27M10.754 10.676l.423 1.27M12.266 11.946h-.726M11.903 11.946v-1.27M11.903 10.676l-.121.181M11.782 10.858l-.121.12M11.66 10.978l-.12.06"/>
    </g>
    <g class="stroked-text" style="fill:none;stroke:#a90000;stroke-width:.1524;stroke-opacity:1;stroke-linecap:round;stroke-linejoin:round">
        <path d="m4.158 9.8.06-.06M4.219 9.74l.12-.061M4.34 9.679h.302M4.642 9.679l.121.06M4.763 9.74l.06.06M4.824 9.8l.06.12M4.884 9.92v.122M4.884 10.042l-.06.181M4.824 10.223l-.726.726M4.098 10.949h.786"/>
    </g>
    <path d="M5.791 13.907h-2.54" style="fill:none;stroke:#840000;stroke-width:.1524;stroke-opacity:1;stroke-linecap:round;stroke-linejoin:round"/>
    <g class="stroked-text" style="fill:none;stroke:#006464;stroke-width:.1524;stroke-opacity:1;stroke-linecap:round;stroke-linejoin:round">
        <path d="M6.702 14.486v-1.27M6.702 13.216h.302M7.004 13.216l.182.06M7.186 13.277l.12.12M7.307 13.398l.06.12M7.367 13.518l.06.242M7.427 13.76v.182M7.427 13.942l-.06.242M7.367 14.184l-.06.12M7.307 14.305l-.122.12M7.186 14.426l-.182.06M7.004 14.486h-.302M7.911 13.337l.06-.06M7.972 13.277l.12-.061M8.093 13.216h.302M8.395 13.216l.121.06M8.516 13.277l.06.06M8.577 13.337l.06.12M8.637 13.458v.12M8.637 13.579l-.06.181M8.577 13.76l-.726.726M7.85 14.486h.787M10.088 13.156 9 14.788M10.451 14.123h.605M10.33 14.486l.424-1.27M10.754 13.216l.423 1.27M11.54 13.337l.06-.06M11.6 13.277l.121-.061M11.721 13.216h.303M12.024 13.216l.12.06M12.145 13.277l.06.06M12.205 13.337l.06.12M12.266 13.458v.12M12.266 13.579l-.06.181M12.205 13.76l-.726.726M11.48 14.486h.786"/>
    </g>
    <g class="stroked-text" style="fill:none;stroke:#a90000;stroke-width:.1524;stroke-opacity:1;stroke-linecap:round;stroke-linejoin:round">
        <path d="M4.098 12.219h.786M4.884 12.219l-.423.484M4.46 12.703h.182M4.642 12.703l.121.06M4.763 12.763l.06.06M4.824 12.824l.06.12M4.884 12.945v.302M4.884 13.247l-.06.121M4.824 13.368l-.06.06M4.763 13.429l-.12.06M4.642 13.489H4.28M4.28 13.489l-.122-.06M4.158 13.429l-.06-.06"/>
    </g>
    <path d="M5.791 16.447h-2.54" style="fill:none;stroke:#840000;stroke-width:.1524;stroke-opacity:1;stroke-linecap:round;stroke-linejoin:round"/>
    <g class="stroked-text" style="fill:none;stroke:#006464;stroke-width:.1524;stroke-opacity:1;stroke-linecap:round;stroke-linejoin:round">
        <path d="M6.702 17.026v-1.27M6.702 15.756h.302M7.004 15.756l.182.06M7.186 15.817l.12.12M7.307 15.938l.06.12M7.367 16.058l.06.242M7.427 16.3v.182M7.427 16.482l-.06.242M7.367 16.724l-.06.12M7.307 16.845l-.122.12M7.186 16.966l-.182.06M7.004 17.026h-.302M7.85 15.756h.787M8.637 15.756l-.423.484M8.214 16.24h.181M8.395 16.24l.121.06M8.516 16.3l.06.06M8.577 16.36l.06.122M8.637 16.482v.302M8.637 16.784l-.06.121M8.577 16.905l-.061.06M8.516 16.966l-.12.06M8.395 17.026h-.363M8.032 17.026l-.12-.06M7.911 16.966l-.06-.06M10.088 15.696 9 17.328M10.451 16.663h.605M10.33 17.026l.424-1.27M10.754 15.756l.423 1.27M11.48 15.756h.786M12.266 15.756l-.424.484M11.842 16.24h.182M12.024 16.24l.12.06M12.145 16.3l.06.06M12.205 16.36l.06.122M12.266 16.482v.302M12.266 16.784l-.06.121M12.205 16.905l-.06.06M12.145 16.966l-.121.06M12.024 17.026h-.363M11.66 17.026l-.12-.06M11.54 16.966l-.06-.06"/>
    </g>
    <g class="stroked-text" style="fill:none;stroke:#a90000;stroke-width:.1524;stroke-opacity:1;stroke-linecap:round;stroke-linejoin:round">
        <path d="M4.763 15.182v.847M4.46 14.699l-.302.907M4.158 15.606h.786"/>
    </g>
    <path d="M5.791 18.987h-2.54" style="fill:none;stroke:#840000;stroke-width:.1524;stroke-opacity:1;stroke-linecap:round;stroke-linejoin:round"/>
    <g class="stroked-text" style="fill:none;stroke:#006464;stroke-width:.1524;stroke-opacity:1;stroke-linecap:round;stroke-linejoin:round">
        <path d="M6.702 19.566v-1.27M6.702 18.296h.302M7.004 18.296l.182.06M7.186 18.357l.12.12M7.307 18.478l.06.12M7.367 18.598l.06.242M7.427 18.84v.182M7.427 19.022l-.06.242M7.367 19.264l-.06.12M7.307 19.385l-.122.12M7.186 19.506l-.182.06M7.004 19.566h-.302M8.516 18.72v.846M8.214 18.236l-.303.907M7.911 19.143h.786M10.088 18.236 9 19.868M10.451 19.506l.182.06M10.633 19.566h.302M10.935 19.566l.121-.06M11.056 19.506l.06-.06M11.117 19.445l.06-.12M11.177 19.324v-.12M11.177 19.203l-.06-.12M11.117 19.082l-.061-.06M11.056 19.022l-.12-.06M10.935 18.961l-.242-.06M10.693 18.9l-.12-.06M10.572 18.84l-.06-.06M10.512 18.78l-.06-.121M10.451 18.659v-.121M10.451 18.538l.06-.121M10.512 18.417l.06-.06M10.572 18.357l.121-.061M10.693 18.296h.303M10.996 18.296l.181.06M11.721 19.566v-1.27M11.721 18.296h.303M12.024 18.296l.181.06M12.205 18.357l.121.12M12.326 18.478l.06.12M12.387 18.598l.06.242M12.447 18.84v.182M12.447 19.022l-.06.242M12.387 19.264l-.061.12M12.326 19.385l-.121.12M12.205 19.506l-.181.06M12.024 19.566h-.303M12.93 19.203h.606M12.81 19.566l.423-1.27M13.233 18.296l.423 1.27"/>
    </g>
    <g class="stroked-text" style="fill:none;stroke:#a90000;stroke-width:.1524;stroke-opacity:1;stroke-linecap:round;stroke-linejoin:round">
        <path d="M4.824 17.299h-.605M4.219 17.299l-.06.605M4.158 17.904l.06-.06M4.219 17.843l.12-.06M4.34 17.783h.302M4.642 17.783l.121.06M4.763 17.843l.06.06M4.824 17.904l.06.12M4.884 18.025v.302M4.884 18.327l-.06.121M4.824 18.448l-.06.06M4.763 18.509l-.12.06M4.642 18.569H4.34M4.34 18.569l-.121-.06M4.219 18.509l-.06-.06"/>
    </g>
    <path d="M5.791 21.527h-2.54" style="fill:none;stroke:#840000;stroke-width:.1524;stroke-opacity:1;stroke-linecap:round;stroke-linejoin:round"/>
    <g class="stroked-text" style="fill:none;stroke:#006464;stroke-width:.1524;stroke-opacity:1;stroke-linecap:round;stroke-linejoin:round">
        <path d="M6.702 22.106v-1.27M6.702 20.836h.302M7.004 20.836l.182.06M7.186 20.897l.12.12M7.307 21.018l.06.12M7.367 21.138l.06.242M7.427 21.38v.182M7.427 21.562l-.06.242M7.367 21.804l-.06.12M7.307 21.925l-.122.12M7.186 22.046l-.182.06M7.004 22.106h-.302M8.577 20.836h-.605M7.972 20.836l-.06.605M7.911 21.44l.06-.06M7.972 21.38l.12-.06M8.093 21.32h.302M8.395 21.32l.121.06M8.516 21.38l.06.06M8.577 21.44l.06.122M8.637 21.562v.302M8.637 21.864l-.06.121M8.577 21.985l-.061.06M8.516 22.046l-.12.06M8.395 22.106h-.302M8.093 22.106l-.121-.06M7.972 22.046l-.06-.06M10.088 20.776 9 22.408M10.451 22.046l.182.06M10.633 22.106h.302M10.935 22.106l.121-.06M11.056 22.046l.06-.06M11.117 21.985l.06-.12M11.177 21.864v-.12M11.177 21.743l-.06-.12M11.117 21.622l-.061-.06M11.056 21.562l-.12-.06M10.935 21.501l-.242-.06M10.693 21.44l-.12-.06M10.572 21.38l-.06-.06M10.512 21.32l-.06-.121M10.451 21.199v-.121M10.451 21.078l.06-.121M10.512 20.957l.06-.06M10.572 20.897l.121-.061M10.693 20.836h.303M10.996 20.836l.181.06M12.447 21.985l-.06.06M12.387 22.046l-.182.06M12.205 22.106h-.12M12.084 22.106l-.181-.06M11.903 22.046l-.121-.121M11.782 21.925l-.06-.121M11.721 21.804l-.06-.242M11.66 21.562v-.182M11.66 21.38l.061-.242M11.721 21.138l.06-.12M11.782 21.018l.12-.122M11.903 20.897l.181-.061M12.084 20.836h.121M12.205 20.836l.181.06M12.387 20.897l.06.06M13.596 22.106h-.605M12.991 22.106v-1.27"/>
    </g>
    <g class="stroked-text" style="fill:none;stroke:#a90000;stroke-width:.1524;stroke-opacity:1;stroke-linecap:round;stroke-linejoin:round">
        <path d="M4.763 19.839h-.242M4.521 19.839l-.12.06M4.4 19.9l-.06.06M4.34 19.96l-.121.181M4.219 20.141l-.06.242M4.158 20.383v.484M4.158 20.867l.06.121M4.219 20.988l.06.06M4.28 21.049l.12.06M4.4 21.109h.242M4.642 21.109l.121-.06M4.763 21.049l.06-.06M4.824 20.988l.06-.12M4.884 20.867v-.302M4.884 20.565l-.06-.121M4.824 20.444l-.06-.06M4.763 20.383l-.12-.06M4.642 20.323H4.4M4.4 20.323l-.12.06M4.28 20.383l-.061.06M4.219 20.444l-.06.12"/>
    </g>
    <path d="M5.791 24.067h-2.54" style="fill:none;stroke:#840000;stroke-width:.1524;stroke-opacity:1;stroke-linecap:round;stroke-linejoin:round"/>
    <g class="stroked-text" style="fill:none;stroke:#006464;stroke-width:.1524;stroke-opacity:1;stroke-linecap:round;stroke-linejoin:round">
        <path d="M6.702 24.646v-1.27M6.702 23.376h.302M7.004 23.376l.182.06M7.186 23.437l.12.12M7.307 23.558l.06.12M7.367 23.678l.06.242M7.427 23.92v.182M7.427 24.102l-.06.242M7.367 24.344l-.06.12M7.307 24.465l-.122.12M7.186 24.586l-.182.06M7.004 24.646h-.302M8.516 23.376h-.242M8.274 23.376l-.12.06M8.153 23.437l-.06.06M8.093 23.497l-.121.181M7.972 23.678l-.06.242M7.911 23.92v.484M7.911 24.404l.06.121M7.972 24.525l.06.06M8.032 24.586l.121.06M8.153 24.646h.242M8.395 24.646l.121-.06M8.516 24.586l.06-.06M8.577 24.525l.06-.12M8.637 24.404v-.302M8.637 24.102l-.06-.121M8.577 23.98l-.061-.06M8.516 23.92l-.12-.06M8.395 23.86h-.242M8.153 23.86l-.12.06M8.032 23.92l-.06.06M7.972 23.98l-.06.122M10.088 23.316 9 24.948M10.33 23.376h.726M10.693 24.646v-1.27M11.358 23.376l.847 1.27M12.205 23.376l-.847 1.27"/>
    </g>
    <g class="stroked-text" style="fill:none;stroke:#a90000;stroke-width:.1524;stroke-opacity:1;stroke-linecap:round;stroke-linejoin:round">
        <path d="M4.098 22.379h.846M4.945 22.379l-.545 1.27"/>
    </g>
    <path d="M28.651 8.827h2.54" style="fill:none;stroke:#840000;stroke-width:.1524;stroke-opacity:1;stroke-linecap:round;stroke-linejoin:round"/>
    <g class="stroked-text" style="fill:none;stroke:#006464;stroke-width:.1524;stroke-opacity:1;stroke-linecap:round;stroke-linejoin:round">
        <path d="M26.652 8.136h-.605M26.047 8.136l-.06.605M25.987 8.74l.06-.06M26.047 8.68l.121-.06M26.168 8.62h.303M26.47 8.62l.122.06M26.592 8.68l.06.06M26.652 8.74l.06.122M26.713 8.862v.302M26.713 9.164l-.061.121M26.652 9.285l-.06.06M26.592 9.346l-.121.06M26.47 9.406h-.302M26.168 9.406l-.12-.06M26.047 9.346l-.06-.06M27.075 8.136l.424 1.27M27.499 9.406l.423-1.27"/>
    </g>
    <g class="stroked-text" style="fill:none;stroke:#a90000;stroke-width:.1524;stroke-opacity:1;stroke-linecap:round;stroke-linejoin:round">
        <path d="M29.68 8.409h-.726M29.316 8.409v-1.27M29.316 7.139l-.12.181M29.196 7.32l-.122.121M29.075 7.441l-.121.06M30.768 7.562v.847M30.465 7.079l-.302.907M30.163 7.986h.786"/>
    </g>
    <path d="M28.651 11.367h2.54" style="fill:none;stroke:#840000;stroke-width:.1524;stroke-opacity:1;stroke-linecap:round;stroke-linejoin:round"/>
    <g class="stroked-text" style="fill:none;stroke:#006464;stroke-width:.1524;stroke-opacity:1;stroke-linecap:round;stroke-linejoin:round">
        <path d="m25.14 10.737-.12-.061M25.02 10.676h-.182M24.838 10.676l-.182.06M24.656 10.737l-.12.12M24.535 10.858l-.06.12M24.475 10.978l-.06.242M24.414 11.22v.182M24.414 11.402l.06.242M24.475 11.644l.06.12M24.535 11.765l.121.12M24.656 11.886l.182.06M24.838 11.946h.12M24.959 11.946l.181-.06M25.14 11.886l.06-.06M25.2 11.825v-.423M25.2 11.402h-.241M25.745 11.946v-1.27M25.745 10.676l.726 1.27M26.47 11.946v-1.27M27.075 11.946v-1.27M27.075 10.676h.303M27.378 10.676l.181.06M27.56 10.737l.12.12M27.68 10.858l.06.12M27.74 10.978l.061.242M27.801 11.22v.182M27.801 11.402l-.06.242M27.74 11.644l-.06.12M27.68 11.765l-.12.12M27.56 11.886l-.182.06M27.378 11.946h-.303"/>
    </g>
    <g class="stroked-text" style="fill:none;stroke:#a90000;stroke-width:.1524;stroke-opacity:1;stroke-linecap:round;stroke-linejoin:round">
        <path d="M29.68 10.949h-.726M29.316 10.949v-1.27M29.316 9.679l-.12.181M29.196 9.86l-.122.121M29.075 9.981l-.121.06M30.103 9.679h.786M30.889 9.679l-.424.484M30.465 10.163h.182M30.647 10.163l.12.06M30.768 10.223l.06.06M30.828 10.284l.06.12M30.889 10.405v.302M30.889 10.707l-.06.121M30.828 10.828l-.06.06M30.768 10.889l-.121.06M30.647 10.949h-.363M30.284 10.949l-.12-.06M30.163 10.889l-.06-.06"/>
    </g>
    <path d="M28.651 13.907h2.54" style="fill:none;stroke:#840000;stroke-width:.1524;stroke-opacity:1;stroke-linecap:round;stroke-linejoin:round"/>
    <g class="stroked-text" style="fill:none;stroke:#006464;stroke-width:.1524;stroke-opacity:1;stroke-linecap:round;stroke-linejoin:round">
        <path d="M24.717 13.216h.786M25.503 13.216l-.423.484M25.08 13.7h.181M25.261 13.7l.121.06M25.382 13.76l.06.06M25.443 13.82l.06.122M25.503 13.942v.302M25.503 14.244l-.06.121M25.443 14.365l-.061.06M25.382 14.426l-.12.06M25.261 14.486h-.363M24.898 14.486l-.12-.06M24.777 14.426l-.06-.06M25.866 13.216l.423 1.27M26.29 14.486l.422-1.27M27.015 13.216h.786M27.801 13.216l-.423.484M27.378 13.7h.181M27.56 13.7l.12.06M27.68 13.76l.06.06M27.74 13.82l.061.122M27.801 13.942v.302M27.801 14.244l-.06.121M27.74 14.365l-.06.06M27.68 14.426l-.12.06M27.56 14.486h-.364M27.196 14.486l-.12-.06M27.075 14.426l-.06-.06"/>
    </g>
    <g class="stroked-text" style="fill:none;stroke:#a90000;stroke-width:.1524;stroke-opacity:1;stroke-linecap:round;stroke-linejoin:round">
        <path d="M29.68 13.489h-.726M29.316 13.489v-1.27M29.316 12.219l-.12.181M29.196 12.4l-.122.121M29.075 12.521l-.121.06M30.163 12.34l.06-.06M30.224 12.28l.12-.061M30.345 12.219h.302M30.647 12.219l.12.06M30.768 12.28l.06.06M30.828 12.34l.06.12M30.889 12.46v.122M30.889 12.582l-.06.181M30.828 12.763l-.725.726M30.103 13.489h.786"/>
    </g>
    <path d="M28.651 16.447h2.54" style="fill:none;stroke:#840000;stroke-width:.1524;stroke-opacity:1;stroke-linecap:round;stroke-linejoin:round"/>
    <g class="stroked-text" style="fill:none;stroke:#006464;stroke-width:.1524;stroke-opacity:1;stroke-linecap:round;stroke-linejoin:round">
        <path d="M18.73 17.026v-1.27M18.73 15.756l.423.907M19.153 16.663l.423-.907M19.576 15.756v1.27M20.423 15.756h.242M20.665 15.756l.12.06M20.786 15.817l.12.12M20.907 15.938l.06.241M20.967 16.18v.423M20.967 16.603l-.06.242M20.907 16.845l-.121.12M20.786 16.966l-.121.06M20.665 17.026h-.242M20.423 17.026l-.121-.06M20.302 16.966l-.121-.121M20.181 16.845l-.06-.242M20.12 16.603v-.424M20.12 16.18l.061-.242M20.181 15.938l.121-.122M20.302 15.817l.12-.061M21.451 16.966l.181.06M21.633 17.026h.302M21.935 17.026l.12-.06M22.056 16.966l.06-.06M22.116 16.905l.06-.12M22.177 16.784v-.12M22.177 16.663l-.06-.12M22.116 16.542l-.06-.06M22.056 16.482l-.121-.06M21.935 16.421l-.242-.06M21.693 16.36l-.121-.06M21.572 16.3l-.06-.06M21.512 16.24l-.06-.121M21.451 16.119v-.121M21.451 15.998l.06-.121M21.512 15.877l.06-.06M21.572 15.817l.121-.061M21.693 15.756h.302M21.995 15.756l.182.06M22.721 17.026v-1.27M24.233 15.696l-1.089 1.632M24.656 17.026v-1.27M24.656 15.756h.303M24.959 15.756l.181.06M25.14 15.817l.121.12M25.261 15.938l.06.12M25.322 16.058l.06.242M25.382 16.3v.182M25.382 16.482l-.06.242M25.322 16.724l-.06.12M25.261 16.845l-.12.12M25.14 16.966l-.181.06M24.959 17.026h-.303M26.592 17.026h-.726M26.229 17.026v-1.27M26.229 15.756l-.121.181M26.108 15.938l-.121.12M25.987 16.058l-.121.06M27.378 15.756h.12M27.499 15.756l.12.06M27.62 15.817l.06.06M27.68 15.877l.06.12M27.74 15.998l.061.242M27.801 16.24v.302M27.801 16.542l-.06.242M27.74 16.784l-.06.121M27.68 16.905l-.06.06M27.62 16.966l-.121.06M27.499 17.026h-.121M27.378 17.026l-.121-.06M27.257 16.966l-.06-.06M27.196 16.905l-.06-.12M27.136 16.784l-.06-.242M27.075 16.542v-.302M27.075 16.24l.06-.242M27.136 15.998l.06-.121M27.196 15.877l.06-.06M27.257 15.817l.12-.061"/>
    </g>
    <g class="stroked-text" style="fill:none;stroke:#a90000;stroke-width:.1524;stroke-opacity:1;stroke-linecap:round;stroke-linejoin:round">
        <path d="M29.68 16.029h-.726M29.316 16.029v-1.27M29.316 14.759l-.12.181M29.196 14.94l-.122.121M29.075 15.061l-.121.06M30.889 16.029h-.726M30.526 16.029v-1.27M30.526 14.759l-.121.181M30.405 14.94l-.121.121M30.284 15.061l-.12.06"/>
    </g>
    <path d="M28.651 18.987h2.54" style="fill:none;stroke:#840000;stroke-width:.1524;stroke-opacity:1;stroke-linecap:round;stroke-linejoin:round"/>
    <g class="stroked-text" style="fill:none;stroke:#006464;stroke-width:.1524;stroke-opacity:1;stroke-linecap:round;stroke-linejoin:round">
        <path d="M19.94 19.566v-1.27M19.94 18.296l.422.907M20.363 19.203l.423-.907M20.786 18.296v1.27M21.39 19.566v-1.27M21.935 19.506l.181.06M22.116 19.566h.303M22.419 19.566l.12-.06M22.54 19.506l.06-.06M22.6 19.445l.06-.12M22.66 19.324v-.12M22.66 19.203l-.06-.12M22.6 19.082l-.06-.06M22.54 19.022l-.121-.06M22.419 18.961l-.242-.06M22.177 18.9l-.121-.06M22.056 18.84l-.06-.06M21.995 18.78l-.06-.121M21.935 18.659v-.121M21.935 18.538l.06-.121M21.995 18.417l.06-.06M22.056 18.357l.12-.061M22.177 18.296h.302M22.48 18.296l.18.06M23.447 18.296h.242M23.689 18.296l.12.06M23.81 18.357l.12.12M23.93 18.478l.061.241M23.991 18.72v.423M23.991 19.143l-.06.242M23.93 19.385l-.12.12M23.81 19.506l-.121.06M23.689 19.566h-.242M23.447 19.566l-.121-.06M23.326 19.506l-.121-.121M23.205 19.385l-.06-.242M23.144 19.143v-.424M23.144 18.72l.06-.242M23.205 18.478l.12-.122M23.326 18.357l.12-.061M25.443 18.236l-1.09 1.632M25.866 19.566v-1.27M25.866 18.296h.302M26.168 18.296l.182.06M26.35 18.357l.12.12M26.47 18.478l.061.12M26.531 18.598l.06.242M26.592 18.84v.182M26.592 19.022l-.06.242M26.531 19.264l-.06.12M26.47 19.385l-.12.12M26.35 19.506l-.182.06M26.168 19.566h-.302M27.196 19.566h.242M27.438 19.566l.121-.06M27.56 19.506l.06-.06M27.62 19.445l.12-.181M27.74 19.264l.061-.242M27.801 19.022v-.484M27.801 18.538l-.06-.121M27.74 18.417l-.06-.06M27.68 18.357l-.12-.061M27.56 18.296h-.243M27.317 18.296l-.12.06M27.196 18.357l-.06.06M27.136 18.417l-.06.12M27.075 18.538v.302M27.075 18.84l.06.121M27.136 18.961l.06.06M27.196 19.022l.121.06M27.317 19.082h.242M27.56 19.082l.12-.06M27.68 19.022l.06-.06M27.74 18.961l.061-.12"/>
    </g>
    <g class="stroked-text" style="fill:none;stroke:#a90000;stroke-width:.1524;stroke-opacity:1;stroke-linecap:round;stroke-linejoin:round">
        <path d="M29.68 18.569h-.726M29.316 18.569v-1.27M29.316 17.299l-.12.181M29.196 17.48l-.122.121M29.075 17.601l-.121.06M30.465 17.299h.121M30.586 17.299l.121.06M30.707 17.36l.06.06M30.768 17.42l.06.12M30.828 17.54l.06.243M30.889 17.783v.302M30.889 18.085l-.06.242M30.828 18.327l-.06.121M30.768 18.448l-.06.06M30.707 18.509l-.12.06M30.586 18.569h-.12M30.465 18.569l-.12-.06M30.345 18.509l-.061-.06M30.284 18.448l-.06-.12M30.224 18.327l-.06-.242M30.163 18.085v-.302M30.163 17.783l.06-.242M30.224 17.54l.06-.12M30.284 17.42l.06-.06M30.345 17.36l.12-.061"/>
    </g>
    <path d="M28.651 21.527h2.54" style="fill:none;stroke:#840000;stroke-width:.1524;stroke-opacity:1;stroke-linecap:round;stroke-linejoin:round"/>
    <g class="stroked-text" style="fill:none;stroke:#006464;stroke-width:.1524;stroke-opacity:1;stroke-linecap:round;stroke-linejoin:round">
        <path d="m20.725 22.046.182.06M20.907 22.106h.302M21.21 22.106l.12-.06M21.33 22.046l.06-.06M21.39 21.985l.061-.12M21.451 21.864v-.12M21.451 21.743l-.06-.12M21.39 21.622l-.06-.06M21.33 21.562l-.12-.06M21.21 21.501l-.243-.06M20.967 21.44l-.12-.06M20.846 21.38l-.06-.06M20.786 21.32l-.06-.121M20.725 21.199v-.121M20.725 21.078l.06-.121M20.786 20.957l.06-.06M20.846 20.897l.121-.061M20.967 20.836h.303M21.27 20.836l.181.06M22.721 21.985l-.06.06M22.66 22.046l-.18.06M22.48 22.106h-.122M22.358 22.106l-.181-.06M22.177 22.046l-.121-.121M22.056 21.925l-.06-.121M21.995 21.804l-.06-.242M21.935 21.562v-.182M21.935 21.38l.06-.242M21.995 21.138l.06-.12M22.056 21.018l.12-.122M22.177 20.897l.181-.061M22.358 20.836h.121M22.48 20.836l.18.06M22.66 20.897l.061.06M23.265 22.106v-1.27M23.991 22.106l-.544-.726M23.991 20.836l-.726.726M25.443 20.776l-1.09 1.632M25.866 22.106v-1.27M25.866 20.836h.302M26.168 20.836l.182.06M26.35 20.897l.12.12M26.47 21.018l.061.12M26.531 21.138l.06.242M26.592 21.38v.182M26.592 21.562l-.06.242M26.531 21.804l-.06.12M26.47 21.925l-.12.12M26.35 22.046l-.182.06M26.168 22.106h-.302M27.317 21.38l-.12-.06M27.196 21.32l-.06-.06M27.136 21.26l-.06-.122M27.075 21.138v-.06M27.075 21.078l.06-.121M27.136 20.957l.06-.06M27.196 20.897l.121-.061M27.317 20.836h.242M27.56 20.836l.12.06M27.68 20.897l.06.06M27.74 20.957l.061.12M27.801 21.078v.06M27.801 21.138l-.06.121M27.74 21.26l-.06.06M27.68 21.32l-.12.06M27.56 21.38h-.243M27.317 21.38l-.12.06M27.196 21.44l-.06.061M27.136 21.501l-.06.121M27.075 21.622v.242M27.075 21.864l.06.121M27.136 21.985l.06.06M27.196 22.046l.121.06M27.317 22.106h.242M27.56 22.106l.12-.06M27.68 22.046l.06-.06M27.74 21.985l.061-.12M27.801 21.864v-.242M27.801 21.622l-.06-.12M27.74 21.501l-.06-.06M27.68 21.44l-.12-.06"/>
    </g>
    <g class="stroked-text" style="fill:none;stroke:#a90000;stroke-width:.1524;stroke-opacity:1;stroke-linecap:round;stroke-linejoin:round">
        <path d="M29.68 21.109h.241M29.921 21.109l.121-.06M30.042 21.049l.06-.06M30.103 20.988l.12-.181M30.224 20.807l.06-.242M30.284 20.565v-.484M30.284 20.08l-.06-.12M30.224 19.96l-.06-.06M30.163 19.9l-.12-.061M30.042 19.839H29.8M29.8 19.839l-.12.06M29.68 19.9l-.061.06M29.619 19.96l-.06.12M29.558 20.08v.303M29.558 20.383l.06.121M29.619 20.504l.06.06M29.68 20.565l.12.06M29.8 20.625h.242M30.042 20.625l.121-.06M30.163 20.565l.06-.06M30.224 20.504l.06-.12"/>
    </g>
    <path d="M28.651 24.067h2.54" style="fill:none;stroke:#840000;stroke-width:.1524;stroke-opacity:1;stroke-linecap:round;stroke-linejoin:round"/>
    <g class="stroked-text" style="fill:none;stroke:#006464;stroke-width:.1524;stroke-opacity:1;stroke-linecap:round;stroke-linejoin:round">
        <path d="m22.782 24.646-.424-.605M22.056 24.646v-1.27M22.056 23.376h.484M22.54 23.376l.12.06M22.66 23.437l.061.06M22.721 23.497l.06.12M22.782 23.618v.181M22.782 23.8l-.06.12M22.721 23.92l-.06.06M22.66 23.98l-.12.061M22.54 24.041h-.484M23.205 23.376l.847 1.27M24.052 23.376l-.847 1.27M25.443 23.316l-1.09 1.632M25.866 24.646v-1.27M25.866 23.376h.302M26.168 23.376l.182.06M26.35 23.437l.12.12M26.47 23.558l.061.12M26.531 23.678l.06.242M26.592 23.92v.182M26.592 24.102l-.06.242M26.531 24.344l-.06.12M26.47 24.465l-.12.12M26.35 24.586l-.182.06M26.168 24.646h-.302M27.015 23.376h.846M27.862 23.376l-.545 1.27"/>
    </g>
    <g class="stroked-text" style="fill:none;stroke:#a90000;stroke-width:.1524;stroke-opacity:1;stroke-linecap:round;stroke-linejoin:round">
        <path d="m29.8 22.923-.12-.06M29.68 22.863l-.061-.06M29.619 22.802l-.06-.12M29.558 22.681v-.06M29.558 22.62l.06-.12M29.619 22.5l.06-.06M29.68 22.44l.12-.061M29.8 22.379h.242M30.042 22.379l.121.06M30.163 22.44l.06.06M30.224 22.5l.06.12M30.284 22.62v.061M30.284 22.681l-.06.121M30.224 22.802l-.06.06M30.163 22.863l-.12.06M30.042 22.923H29.8M29.8 22.923l-.12.06M29.68 22.984l-.061.06M29.619 23.044l-.06.121M29.558 23.165v.242M29.558 23.407l.06.121M29.619 23.528l.06.06M29.68 23.589l.12.06M29.8 23.649h.242M30.042 23.649l.121-.06M30.163 23.589l.06-.06M30.224 23.528l.06-.12M30.284 23.407v-.242M30.284 23.165l-.06-.12M30.224 23.044l-.06-.06M30.163 22.984l-.12-.06"/>
    </g>
    <g style="fill:none;stroke:#006464;stroke-width:.1524;stroke-opacity:1;stroke-linecap:round;stroke-linejoin:round">
        <g class="stroked-text">
            <path d="M-.907-15.803v1.028M-.907-14.775l.06.12M-.847-14.654l.06.06M-.786-14.594l.12.06M-.665-14.533h.242M-.423-14.533l.12-.06M-.302-14.594l.06-.06M-.242-14.654l.06-.121M-.181-14.775v-1.028M.605-14.654l.06.06M.665-14.594l-.06.06M.605-14.533l-.06-.06M.544-14.594l.06-.06M.605-14.654v.12M.363-15.743l.12-.06M.484-15.803h.302M.786-15.803l.121.06M.907-15.743l.06.121M.968-15.622v.121M.968-15.501l-.06.121M.907-15.38l-.06.06M.847-15.32l-.121.06M.726-15.26l-.06.061M.665-15.199l-.06.121M.605-15.078v.06"/>
        </g>
        <g class="stroked-text">
            <path d="m-9.343 14.423.846 1.27M-8.497 14.423l-.846 1.27M-8.013 15.693v-1.27M-7.469 15.33h.605M-7.59 15.693l.424-1.27M-7.166 14.423l.423 1.27M-6.078 14.423h.242M-5.836 14.423l.121.06M-5.715 14.483l.121.121M-5.594 14.604l.06.242M-5.533 14.846v.423M-5.533 15.27l-.06.241M-5.594 15.511l-.12.121M-5.715 15.632l-.12.06M-5.836 15.693h-.242M-6.078 15.693l-.12-.06M-6.199 15.632l-.12-.12M-6.32 15.511l-.06-.242M-6.38 15.27v-.424M-6.38 14.846l.06-.242M-6.32 14.604l.121-.121M-6.199 14.483l.121-.06M-5.291 15.814h.967M-4.021 14.846v.847M-4.021 14.967l.06-.06M-3.961 14.906l.121-.06M-3.84 14.846h.181M-3.659 14.846l.121.06M-3.538 14.906l.06.121M-3.477 15.027v.666M-2.147 15.693l-.423-.605M-2.872 15.693v-1.27M-2.872 14.423h.483M-2.389 14.423l.121.06M-2.268 14.483l.06.06M-2.207 14.544l.06.12M-2.147 14.664v.182M-2.147 14.846l-.06.12M-2.207 14.967l-.06.06M-2.268 15.027l-.12.06M-2.389 15.088h-.484M-1.18 15.027h-.423M-1.602 15.693v-1.27M-1.602 14.423h.604M.09 14.423h-.604M-.514 14.423l-.06.604M-.574 15.027l.06-.06M-.514 14.967l.121-.06M-.393 14.906h.303M-.09 14.906l.12.06M.03 14.967l.06.06M.09 15.027l.061.121M.151 15.148v.303M.151 15.45l-.06.122M.09 15.572l-.06.06M.03 15.632l-.12.06M-.09 15.693h-.303M-.393 15.693l-.12-.06M-.514 15.632l-.06-.06M.635 14.544l.06-.061M.696 14.483l.12-.06M.817 14.423h.302M1.119 14.423l.12.06M1.24 14.483l.06.06M1.3 14.544l.06.12M1.36 14.664v.121M1.36 14.785l-.06.182M1.3 14.967l-.725.726M.575 15.693h.786M2.087 14.967l-.122-.06M1.966 14.906l-.061-.06M1.905 14.846l-.06-.121M1.845 14.725v-.06M1.845 14.664l.06-.12M1.905 14.544l.06-.061M1.966 14.483l.12-.06M2.087 14.423h.241M2.328 14.423l.121.06M2.45 14.483l.06.06M2.51 14.544l.06.12M2.57 14.664v.06M2.57 14.725l-.06.12M2.51 14.846l-.06.06M2.45 14.906l-.122.06M2.328 14.967h-.241M2.087 14.967l-.122.06M1.966 15.027l-.061.06M1.905 15.088l-.06.12M1.845 15.209v.242M1.845 15.45l.06.122M1.905 15.572l.06.06M1.966 15.632l.12.06M2.087 15.693h.241M2.328 15.693l.121-.06M2.45 15.632l.06-.06M2.51 15.572l.06-.121M2.57 15.45v-.241M2.57 15.209l-.06-.121M2.51 15.088l-.06-.06M2.45 15.027l-.122-.06M3.659 14.846v.847M3.356 14.362l-.302.907M3.054 15.27h.786M4.566 14.423h.12M4.687 14.423l.12.06M4.808 14.483l.06.06M4.868 14.544l.06.12M4.929 14.664l.06.242M4.99 14.906v.303M4.99 15.209l-.061.242M4.929 15.45l-.06.122M4.868 15.572l-.06.06M4.808 15.632l-.121.06M4.687 15.693h-.121M4.566 15.693l-.121-.06M4.445 15.632l-.06-.06M4.385 15.572l-.061-.121M4.324 15.45l-.06-.241M4.264 15.209v-.303M4.264 14.906l.06-.242M4.324 14.664l.06-.12M4.385 14.544l.06-.061M4.445 14.483l.12-.06M5.231 15.814H6.2M6.925 15.027l.18.06M7.106 15.088l.06.06M7.166 15.148l.06.121M7.227 15.27v.18M7.227 15.45l-.06.122M7.166 15.572l-.06.06M7.106 15.632l-.121.06M6.985 15.693H6.5M6.501 15.693v-1.27M6.501 14.423h.423M6.925 14.423l.12.06M7.045 14.483l.06.06M7.106 14.544l.06.12M7.166 14.664v.121M7.166 14.785l-.06.121M7.106 14.906l-.06.06M7.045 14.967l-.12.06M6.925 15.027H6.5M7.71 15.33h.605M7.59 15.693l.423-1.27M8.013 14.423l.423 1.27M8.678 14.423h.726M9.041 15.693v-1.27"/>
        </g>
    </g>
</svg>
