<svg xmlns="http://www.w3.org/2000/svg" width="130.176" height="115.296" viewBox="0 0 34.442 30.505">
    <rect width="22.86" height="19.05" x="5.791" y="6.236" rx="0" style="fill:#ffffc2;fill-opacity:1;stroke:none"/>
    <g style="fill:none;stroke:#840000;stroke-width:.1524;stroke-opacity:1;stroke-linecap:round;stroke-linejoin:round">
        <rect width="22.86" height="19.05" x="5.791" y="6.236" rx="0"/>
        <path d="M5.791 8.14h-2.54"/>
    </g>
    <g class="stroked-text" style="fill:none;stroke:#006464;stroke-width:.1524;stroke-opacity:1;stroke-linecap:round;stroke-linejoin:round">
        <path d="M6.702 8.72V7.45M6.702 7.45h.302M7.004 7.45l.182.06M7.186 7.51l.12.122M7.307 7.632l.06.12M7.367 7.753l.06.242M7.427 7.995v.18M7.427 8.176l-.06.242M7.367 8.418l-.06.12M7.307 8.539l-.122.12M7.186 8.66l-.182.06M7.004 8.72h-.302M8.214 7.45h.12M8.335 7.45l.12.06M8.456 7.51l.06.061M8.516 7.571l.06.121M8.577 7.692l.06.242M8.637 7.934v.302M8.637 8.236l-.06.242M8.577 8.478l-.061.121M8.516 8.6l-.06.06M8.456 8.66l-.121.06M8.335 8.72h-.121M8.214 8.72l-.121-.06M8.093 8.66l-.06-.06M8.032 8.6l-.06-.122M7.972 8.478l-.06-.242M7.911 8.236v-.302M7.911 7.934l.06-.242M7.972 7.692l.06-.12M8.032 7.571l.06-.06M8.093 7.51l.12-.06M10.088 7.39 9 9.023M10.451 8.357h.605M10.33 8.72l.424-1.27M10.754 7.45l.423 1.27M11.842 7.45h.121M11.963 7.45l.121.06M12.084 7.51l.06.061M12.145 7.571l.06.121M12.205 7.692l.06.242M12.266 7.934v.302M12.266 8.236l-.06.242M12.205 8.478l-.06.121M12.145 8.6l-.06.06M12.084 8.66l-.12.06M11.963 8.72h-.12M11.842 8.72l-.12-.06M11.721 8.66l-.06-.06M11.66 8.6l-.06-.122M11.6 8.478l-.06-.242M11.54 8.236v-.302M11.54 7.934l.06-.242M11.6 7.692l.06-.12M11.66 7.571l.061-.06M11.721 7.51l.121-.06"/>
    </g>
    <g class="stroked-text" style="fill:none;stroke:#a90000;stroke-width:.1524;stroke-opacity:1;stroke-linecap:round;stroke-linejoin:round">
        <path d="M4.884 7.723h-.726M4.521 7.723v-1.27M4.521 6.453l-.12.182M4.4 6.635l-.12.12M4.28 6.756l-.122.06"/>
    </g>
    <path d="M5.791 10.68h-2.54" style="fill:none;stroke:#840000;stroke-width:.1524;stroke-opacity:1;stroke-linecap:round;stroke-linejoin:round"/>
    <g class="stroked-text" style="fill:none;stroke:#006464;stroke-width:.1524;stroke-opacity:1;stroke-linecap:round;stroke-linejoin:round">
        <path d="M6.702 11.26V9.99M6.702 9.99h.302M7.004 9.99l.182.06M7.186 10.05l.12.122M7.307 10.172l.06.12M7.367 10.293l.06.242M7.427 10.535v.18M7.427 10.716l-.06.242M7.367 10.958l-.06.12M7.307 11.079l-.122.12M7.186 11.2l-.182.06M7.004 11.26h-.302M8.637 11.26h-.726M8.274 11.26V9.99M8.274 9.99l-.12.182M8.153 10.172l-.12.12M8.032 10.293l-.12.06M10.088 9.93 9 11.563M10.451 10.897h.605M10.33 11.26l.424-1.27M10.754 9.99l.423 1.27M12.266 11.26h-.726M11.903 11.26V9.99M11.903 9.99l-.121.182M11.782 10.172l-.121.12M11.66 10.293l-.12.06"/>
    </g>
    <g class="stroked-text" style="fill:none;stroke:#a90000;stroke-width:.1524;stroke-opacity:1;stroke-linecap:round;stroke-linejoin:round">
        <path d="m4.158 9.114.06-.06M4.219 9.054l.12-.06M4.34 8.993h.302M4.642 8.993l.121.06M4.763 9.054l.06.06M4.824 9.114l.06.121M4.884 9.235v.121M4.884 9.356l-.06.181M4.824 9.538l-.726.725M4.098 10.263h.786"/>
    </g>
    <path d="M5.791 13.22h-2.54" style="fill:none;stroke:#840000;stroke-width:.1524;stroke-opacity:1;stroke-linecap:round;stroke-linejoin:round"/>
    <g class="stroked-text" style="fill:none;stroke:#006464;stroke-width:.1524;stroke-opacity:1;stroke-linecap:round;stroke-linejoin:round">
        <path d="M6.702 13.8v-1.27M6.702 12.53h.302M7.004 12.53l.182.06M7.186 12.59l.12.122M7.307 12.712l.06.12M7.367 12.833l.06.242M7.427 13.075v.18M7.427 13.256l-.06.242M7.367 13.498l-.06.12M7.307 13.619l-.122.12M7.186 13.74l-.182.06M7.004 13.8h-.302M7.911 12.651l.06-.06M7.972 12.59l.12-.06M8.093 12.53h.302M8.395 12.53l.121.06M8.516 12.59l.06.061M8.577 12.651l.06.121M8.637 12.772v.121M8.637 12.893l-.06.181M8.577 13.075l-.726.725M7.85 13.8h.787M10.088 12.47 9 14.103M10.451 13.437h.605M10.33 13.8l.424-1.27M10.754 12.53l.423 1.27M11.54 12.651l.06-.06M11.6 12.59l.121-.06M11.721 12.53h.303M12.024 12.53l.12.06M12.145 12.59l.06.061M12.205 12.651l.06.121M12.266 12.772v.121M12.266 12.893l-.06.181M12.205 13.075l-.726.725M11.48 13.8h.786"/>
    </g>
    <g class="stroked-text" style="fill:none;stroke:#a90000;stroke-width:.1524;stroke-opacity:1;stroke-linecap:round;stroke-linejoin:round">
        <path d="M4.098 11.533h.786M4.884 11.533l-.423.484M4.46 12.017h.182M4.642 12.017l.121.06M4.763 12.078l.06.06M4.824 12.138l.06.12M4.884 12.259v.302M4.884 12.561l-.06.121M4.824 12.682l-.06.06M4.763 12.743l-.12.06M4.642 12.803H4.28M4.28 12.803l-.122-.06M4.158 12.743l-.06-.06"/>
    </g>
    <path d="M5.791 15.76h-2.54" style="fill:none;stroke:#840000;stroke-width:.1524;stroke-opacity:1;stroke-linecap:round;stroke-linejoin:round"/>
    <g class="stroked-text" style="fill:none;stroke:#006464;stroke-width:.1524;stroke-opacity:1;stroke-linecap:round;stroke-linejoin:round">
        <path d="M6.702 16.34v-1.27M6.702 15.07h.302M7.004 15.07l.182.06M7.186 15.13l.12.122M7.307 15.252l.06.12M7.367 15.373l.06.242M7.427 15.615v.18M7.427 15.796l-.06.242M7.367 16.038l-.06.12M7.307 16.159l-.122.12M7.186 16.28l-.182.06M7.004 16.34h-.302M7.85 15.07h.787M8.637 15.07l-.423.484M8.214 15.554h.181M8.395 15.554l.121.06M8.516 15.615l.06.06M8.577 15.675l.06.12M8.637 15.796v.302M8.637 16.098l-.06.121M8.577 16.22l-.061.06M8.516 16.28l-.12.06M8.395 16.34h-.363M8.032 16.34l-.12-.06M7.911 16.28l-.06-.06M10.088 15.01 9 16.643M10.451 15.977h.605M10.33 16.34l.424-1.27M10.754 15.07l.423 1.27M11.48 15.07h.786M12.266 15.07l-.424.484M11.842 15.554h.182M12.024 15.554l.12.06M12.145 15.615l.06.06M12.205 15.675l.06.12M12.266 15.796v.302M12.266 16.098l-.06.121M12.205 16.22l-.06.06M12.145 16.28l-.121.06M12.024 16.34h-.363M11.66 16.34l-.12-.06M11.54 16.28l-.06-.06"/>
    </g>
    <g class="stroked-text" style="fill:none;stroke:#a90000;stroke-width:.1524;stroke-opacity:1;stroke-linecap:round;stroke-linejoin:round">
        <path d="M4.763 14.497v.846M4.46 14.013l-.302.907M4.158 14.92h.786"/>
    </g>
    <path d="M5.791 18.3h-2.54" style="fill:none;stroke:#840000;stroke-width:.1524;stroke-opacity:1;stroke-linecap:round;stroke-linejoin:round"/>
    <g class="stroked-text" style="fill:none;stroke:#006464;stroke-width:.1524;stroke-opacity:1;stroke-linecap:round;stroke-linejoin:round">
        <path d="M6.702 18.88v-1.27M6.702 17.61h.302M7.004 17.61l.182.06M7.186 17.67l.12.122M7.307 17.792l.06.12M7.367 17.913l.06.241M7.427 18.155v.18M7.427 18.336l-.06.242M7.367 18.578l-.06.12M7.307 18.699l-.122.12M7.186 18.82l-.182.06M7.004 18.88h-.302M8.516 18.034v.846M8.214 17.55l-.303.907M7.911 18.457h.786M10.088 17.55 9 19.183M10.451 18.82l.182.06M10.633 18.88h.302M10.935 18.88l.121-.06M11.056 18.82l.06-.06M11.117 18.76l.06-.122M11.177 18.638v-.12M11.177 18.517l-.06-.12M11.117 18.396l-.061-.06M11.056 18.336l-.12-.06M10.935 18.276l-.242-.061M10.693 18.215l-.12-.06M10.572 18.155l-.06-.061M10.512 18.094l-.06-.12M10.451 17.973v-.12M10.451 17.852l.06-.12M10.512 17.731l.06-.06M10.572 17.67l.121-.06M10.693 17.61h.303M10.996 17.61l.181.06M11.721 18.88v-1.27M11.721 17.61h.303M12.024 17.61l.181.06M12.205 17.67l.121.122M12.326 17.792l.06.12M12.387 17.913l.06.241M12.447 18.155v.18M12.447 18.336l-.06.242M12.387 18.578l-.061.12M12.326 18.699l-.121.12M12.205 18.82l-.181.06M12.024 18.88h-.303M12.93 18.517h.606M12.81 18.88l.423-1.27M13.233 17.61l.423 1.27"/>
    </g>
    <g class="stroked-text" style="fill:none;stroke:#a90000;stroke-width:.1524;stroke-opacity:1;stroke-linecap:round;stroke-linejoin:round">
        <path d="M4.824 16.613h-.605M4.219 16.613l-.06.605M4.158 17.218l.06-.06M4.219 17.158l.12-.061M4.34 17.097h.302M4.642 17.097l.121.06M4.763 17.158l.06.06M4.824 17.218l.06.12M4.884 17.339v.302M4.884 17.641l-.06.121M4.824 17.762l-.06.06M4.763 17.823l-.12.06M4.642 17.883H4.34M4.34 17.883l-.121-.06M4.219 17.823l-.06-.06"/>
    </g>
    <path d="M5.791 20.84h-2.54" style="fill:none;stroke:#840000;stroke-width:.1524;stroke-opacity:1;stroke-linecap:round;stroke-linejoin:round"/>
    <g class="stroked-text" style="fill:none;stroke:#006464;stroke-width:.1524;stroke-opacity:1;stroke-linecap:round;stroke-linejoin:round">
        <path d="M6.702 21.42v-1.27M6.702 20.15h.302M7.004 20.15l.182.06M7.186 20.21l.12.122M7.307 20.332l.06.12M7.367 20.453l.06.242M7.427 20.695v.18M7.427 20.876l-.06.242M7.367 21.118l-.06.12M7.307 21.239l-.122.12M7.186 21.36l-.182.06M7.004 21.42h-.302M8.577 20.15h-.605M7.972 20.15l-.06.605M7.911 20.755l.06-.06M7.972 20.695l.12-.061M8.093 20.634h.302M8.395 20.634l.121.06M8.516 20.695l.06.06M8.577 20.755l.06.12M8.637 20.876v.302M8.637 21.178l-.06.121M8.577 21.3l-.061.06M8.516 21.36l-.12.06M8.395 21.42h-.302M8.093 21.42l-.121-.06M7.972 21.36l-.06-.06M10.088 20.09 9 21.723M10.451 21.36l.182.06M10.633 21.42h.302M10.935 21.42l.121-.06M11.056 21.36l.06-.06M11.117 21.3l.06-.122M11.177 21.178v-.12M11.177 21.057l-.06-.12M11.117 20.936l-.061-.06M11.056 20.876l-.12-.06M10.935 20.816l-.242-.061M10.693 20.755l-.12-.06M10.572 20.695l-.06-.061M10.512 20.634l-.06-.12M10.451 20.513v-.12M10.451 20.392l.06-.12M10.512 20.271l.06-.06M10.572 20.21l.121-.06M10.693 20.15h.303M10.996 20.15l.181.06M12.447 21.3l-.06.06M12.387 21.36l-.182.06M12.205 21.42h-.12M12.084 21.42l-.181-.06M11.903 21.36l-.121-.121M11.782 21.239l-.06-.121M11.721 21.118l-.06-.242M11.66 20.876v-.181M11.66 20.695l.061-.242M11.721 20.453l.06-.121M11.782 20.332l.12-.121M11.903 20.21l.181-.06M12.084 20.15h.121M12.205 20.15l.181.06M12.387 20.21l.06.061M13.596 21.42h-.605M12.991 21.42v-1.27"/>
    </g>
    <g class="stroked-text" style="fill:none;stroke:#a90000;stroke-width:.1524;stroke-opacity:1;stroke-linecap:round;stroke-linejoin:round">
        <path d="M4.763 19.153h-.242M4.521 19.153l-.12.06M4.4 19.214l-.06.06M4.34 19.274l-.121.182M4.219 19.456l-.06.242M4.158 19.698v.483M4.158 20.181l.06.121M4.219 20.302l.06.06M4.28 20.363l.12.06M4.4 20.423h.242M4.642 20.423l.121-.06M4.763 20.363l.06-.06M4.824 20.302l.06-.12M4.884 20.181v-.302M4.884 19.879l-.06-.121M4.824 19.758l-.06-.06M4.763 19.698l-.12-.061M4.642 19.637H4.4M4.4 19.637l-.12.06M4.28 19.698l-.061.06M4.219 19.758l-.06.12"/>
    </g>
    <path d="M5.791 23.38h-2.54" style="fill:none;stroke:#840000;stroke-width:.1524;stroke-opacity:1;stroke-linecap:round;stroke-linejoin:round"/>
    <g class="stroked-text" style="fill:none;stroke:#006464;stroke-width:.1524;stroke-opacity:1;stroke-linecap:round;stroke-linejoin:round">
        <path d="M6.702 23.96v-1.27M6.702 22.69h.302M7.004 22.69l.182.06M7.186 22.75l.12.122M7.307 22.872l.06.12M7.367 22.993l.06.242M7.427 23.235v.18M7.427 23.416l-.06.242M7.367 23.658l-.06.12M7.307 23.779l-.122.12M7.186 23.9l-.182.06M7.004 23.96h-.302M8.516 22.69h-.242M8.274 22.69l-.12.06M8.153 22.75l-.06.061M8.093 22.811l-.121.182M7.972 22.993l-.06.242M7.911 23.235v.483M7.911 23.718l.06.121M7.972 23.84l.06.06M8.032 23.9l.121.06M8.153 23.96h.242M8.395 23.96l.121-.06M8.516 23.9l.06-.06M8.577 23.84l.06-.122M8.637 23.718v-.302M8.637 23.416l-.06-.121M8.577 23.295l-.061-.06M8.516 23.235l-.12-.061M8.395 23.174h-.242M8.153 23.174l-.12.06M8.032 23.235l-.06.06M7.972 23.295l-.06.12M10.088 22.63 9 24.263M10.33 22.69h.726M10.693 23.96v-1.27M11.358 22.69l.847 1.27M12.205 22.69l-.847 1.27"/>
    </g>
    <g class="stroked-text" style="fill:none;stroke:#a90000;stroke-width:.1524;stroke-opacity:1;stroke-linecap:round;stroke-linejoin:round">
        <path d="M4.098 21.693h.846M4.945 21.693l-.545 1.27"/>
    </g>
    <path d="M28.651 8.14h2.54" style="fill:none;stroke:#840000;stroke-width:.1524;stroke-opacity:1;stroke-linecap:round;stroke-linejoin:round"/>
    <g class="stroked-text" style="fill:none;stroke:#006464;stroke-width:.1524;stroke-opacity:1;stroke-linecap:round;stroke-linejoin:round">
        <path d="M26.652 7.45h-.605M26.047 7.45l-.06.605M25.987 8.055l.06-.06M26.047 7.995l.121-.061M26.168 7.934h.303M26.47 7.934l.122.06M26.592 7.995l.06.06M26.652 8.055l.06.12M26.713 8.176v.302M26.713 8.478l-.061.121M26.652 8.6l-.06.06M26.592 8.66l-.121.06M26.47 8.72h-.302M26.168 8.72l-.12-.06M26.047 8.66l-.06-.06M27.075 7.45l.424 1.27M27.499 8.72l.423-1.27"/>
    </g>
    <g class="stroked-text" style="fill:none;stroke:#a90000;stroke-width:.1524;stroke-opacity:1;stroke-linecap:round;stroke-linejoin:round">
        <path d="M29.68 7.723h-.726M29.316 7.723v-1.27M29.316 6.453l-.12.182M29.196 6.635l-.122.12M29.075 6.756l-.121.06M30.768 6.877v.846M30.465 6.393l-.302.907M30.163 7.3h.786"/>
    </g>
    <path d="M28.651 10.68h2.54" style="fill:none;stroke:#840000;stroke-width:.1524;stroke-opacity:1;stroke-linecap:round;stroke-linejoin:round"/>
    <g class="stroked-text" style="fill:none;stroke:#006464;stroke-width:.1524;stroke-opacity:1;stroke-linecap:round;stroke-linejoin:round">
        <path d="m25.14 10.05-.12-.06M25.02 9.99h-.182M24.838 9.99l-.182.06M24.656 10.05l-.12.122M24.535 10.172l-.06.12M24.475 10.293l-.06.242M24.414 10.535v.18M24.414 10.716l.06.242M24.475 10.958l.06.12M24.535 11.079l.121.12M24.656 11.2l.182.06M24.838 11.26h.12M24.959 11.26l.181-.06M25.14 11.2l.06-.06M25.2 11.14v-.424M25.2 10.716h-.241M25.745 11.26V9.99M25.745 9.99l.726 1.27M26.47 11.26V9.99M27.075 11.26V9.99M27.075 9.99h.303M27.378 9.99l.181.06M27.56 10.05l.12.122M27.68 10.172l.06.12M27.74 10.293l.061.242M27.801 10.535v.18M27.801 10.716l-.06.242M27.74 10.958l-.06.12M27.68 11.079l-.12.12M27.56 11.2l-.182.06M27.378 11.26h-.303"/>
    </g>
    <g class="stroked-text" style="fill:none;stroke:#a90000;stroke-width:.1524;stroke-opacity:1;stroke-linecap:round;stroke-linejoin:round">
        <path d="M29.68 10.263h-.726M29.316 10.263v-1.27M29.316 8.993l-.12.182M29.196 9.175l-.122.12M29.075 9.296l-.121.06M30.103 8.993h.786M30.889 8.993l-.424.484M30.465 9.477h.182M30.647 9.477l.12.06M30.768 9.538l.06.06M30.828 9.598l.06.12M30.889 9.719v.302M30.889 10.021l-.06.121M30.828 10.142l-.06.06M30.768 10.203l-.121.06M30.647 10.263h-.363M30.284 10.263l-.12-.06M30.163 10.203l-.06-.06"/>
    </g>
    <path d="M28.651 13.22h2.54" style="fill:none;stroke:#840000;stroke-width:.1524;stroke-opacity:1;stroke-linecap:round;stroke-linejoin:round"/>
    <g class="stroked-text" style="fill:none;stroke:#006464;stroke-width:.1524;stroke-opacity:1;stroke-linecap:round;stroke-linejoin:round">
        <path d="M24.717 12.53h.786M25.503 12.53l-.423.484M25.08 13.014h.181M25.261 13.014l.121.06M25.382 13.075l.06.06M25.443 13.135l.06.12M25.503 13.256v.302M25.503 13.558l-.06.121M25.443 13.68l-.061.06M25.382 13.74l-.12.06M25.261 13.8h-.363M24.898 13.8l-.12-.06M24.777 13.74l-.06-.06M25.866 12.53l.423 1.27M26.29 13.8l.422-1.27M27.015 12.53h.786M27.801 12.53l-.423.484M27.378 13.014h.181M27.56 13.014l.12.06M27.68 13.075l.06.06M27.74 13.135l.061.12M27.801 13.256v.302M27.801 13.558l-.06.121M27.74 13.68l-.06.06M27.68 13.74l-.12.06M27.56 13.8h-.364M27.196 13.8l-.12-.06M27.075 13.74l-.06-.06"/>
    </g>
    <g class="stroked-text" style="fill:none;stroke:#a90000;stroke-width:.1524;stroke-opacity:1;stroke-linecap:round;stroke-linejoin:round">
        <path d="M29.68 12.803h-.726M29.316 12.803v-1.27M29.316 11.533l-.12.182M29.196 11.715l-.122.12M29.075 11.836l-.121.06M30.163 11.654l.06-.06M30.224 11.594l.12-.06M30.345 11.533h.302M30.647 11.533l.12.06M30.768 11.594l.06.06M30.828 11.654l.06.121M30.889 11.775v.121M30.889 11.896l-.06.181M30.828 12.078l-.725.725M30.103 12.803h.786"/>
    </g>
    <path d="M28.651 15.76h2.54" style="fill:none;stroke:#840000;stroke-width:.1524;stroke-opacity:1;stroke-linecap:round;stroke-linejoin:round"/>
    <g class="stroked-text" style="fill:none;stroke:#006464;stroke-width:.1524;stroke-opacity:1;stroke-linecap:round;stroke-linejoin:round">
        <path d="M18.73 16.34v-1.27M18.73 15.07l.423.907M19.153 15.977l.423-.907M19.576 15.07v1.27M20.423 15.07h.242M20.665 15.07l.12.06M20.786 15.13l.12.122M20.907 15.252l.06.242M20.967 15.494v.423M20.967 15.917l-.06.242M20.907 16.159l-.121.12M20.786 16.28l-.121.06M20.665 16.34h-.242M20.423 16.34l-.121-.06M20.302 16.28l-.121-.121M20.181 16.159l-.06-.242M20.12 15.917v-.423M20.12 15.494l.061-.242M20.181 15.252l.121-.121M20.302 15.13l.12-.06M21.451 16.28l.181.06M21.633 16.34h.302M21.935 16.34l.12-.06M22.056 16.28l.06-.06M22.116 16.22l.06-.122M22.177 16.098v-.12M22.177 15.977l-.06-.12M22.116 15.856l-.06-.06M22.056 15.796l-.121-.06M21.935 15.736l-.242-.061M21.693 15.675l-.121-.06M21.572 15.615l-.06-.061M21.512 15.554l-.06-.12M21.451 15.433v-.12M21.451 15.312l.06-.12M21.512 15.191l.06-.06M21.572 15.13l.121-.06M21.693 15.07h.302M21.995 15.07l.182.06M22.721 16.34v-1.27M24.233 15.01l-1.089 1.633M24.656 16.34v-1.27M24.656 15.07h.303M24.959 15.07l.181.06M25.14 15.13l.121.122M25.261 15.252l.06.12M25.322 15.373l.06.242M25.382 15.615v.18M25.382 15.796l-.06.242M25.322 16.038l-.06.12M25.261 16.159l-.12.12M25.14 16.28l-.181.06M24.959 16.34h-.303M26.592 16.34h-.726M26.229 16.34v-1.27M26.229 15.07l-.121.182M26.108 15.252l-.121.12M25.987 15.373l-.121.06M27.378 15.07h.12M27.499 15.07l.12.06M27.62 15.13l.06.061M27.68 15.191l.06.121M27.74 15.312l.061.242M27.801 15.554v.302M27.801 15.856l-.06.242M27.74 16.098l-.06.121M27.68 16.22l-.06.06M27.62 16.28l-.121.06M27.499 16.34h-.121M27.378 16.34l-.121-.06M27.257 16.28l-.06-.06M27.196 16.22l-.06-.122M27.136 16.098l-.06-.242M27.075 15.856v-.302M27.075 15.554l.06-.242M27.136 15.312l.06-.12M27.196 15.191l.06-.06M27.257 15.13l.12-.06"/>
    </g>
    <g class="stroked-text" style="fill:none;stroke:#a90000;stroke-width:.1524;stroke-opacity:1;stroke-linecap:round;stroke-linejoin:round">
        <path d="M29.68 15.343h-.726M29.316 15.343v-1.27M29.316 14.073l-.12.182M29.196 14.255l-.122.12M29.075 14.376l-.121.06M30.889 15.343h-.726M30.526 15.343v-1.27M30.526 14.073l-.121.182M30.405 14.255l-.121.12M30.284 14.376l-.12.06"/>
    </g>
    <path d="M28.651 18.3h2.54" style="fill:none;stroke:#840000;stroke-width:.1524;stroke-opacity:1;stroke-linecap:round;stroke-linejoin:round"/>
    <g class="stroked-text" style="fill:none;stroke:#006464;stroke-width:.1524;stroke-opacity:1;stroke-linecap:round;stroke-linejoin:round">
        <path d="M19.94 18.88v-1.27M19.94 17.61l.422.907M20.363 18.517l.423-.907M20.786 17.61v1.27M21.39 18.88v-1.27M21.935 18.82l.181.06M22.116 18.88h.303M22.419 18.88l.12-.06M22.54 18.82l.06-.06M22.6 18.76l.06-.122M22.66 18.638v-.12M22.66 18.517l-.06-.12M22.6 18.396l-.06-.06M22.54 18.336l-.121-.06M22.419 18.276l-.242-.061M22.177 18.215l-.121-.06M22.056 18.155l-.06-.061M21.995 18.094l-.06-.12M21.935 17.973v-.12M21.935 17.852l.06-.12M21.995 17.731l.06-.06M22.056 17.67l.12-.06M22.177 17.61h.302M22.48 17.61l.18.06M23.447 17.61h.242M23.689 17.61l.12.06M23.81 17.67l.12.122M23.93 17.792l.061.242M23.991 18.034v.423M23.991 18.457l-.06.242M23.93 18.699l-.12.12M23.81 18.82l-.121.06M23.689 18.88h-.242M23.447 18.88l-.121-.06M23.326 18.82l-.121-.121M23.205 18.699l-.06-.242M23.144 18.457v-.423M23.144 18.034l.06-.242M23.205 17.792l.12-.121M23.326 17.67l.12-.06M25.443 17.55l-1.09 1.633M25.866 18.88v-1.27M25.866 17.61h.302M26.168 17.61l.182.06M26.35 17.67l.12.122M26.47 17.792l.061.12M26.531 17.913l.06.241M26.592 18.155v.18M26.592 18.336l-.06.242M26.531 18.578l-.06.12M26.47 18.699l-.12.12M26.35 18.82l-.182.06M26.168 18.88h-.302M27.196 18.88h.242M27.438 18.88l.121-.06M27.56 18.82l.06-.06M27.62 18.76l.12-.182M27.74 18.578l.061-.242M27.801 18.336v-.484M27.801 17.852l-.06-.12M27.74 17.731l-.06-.06M27.68 17.67l-.12-.06M27.56 17.61h-.243M27.317 17.61l-.12.06M27.196 17.67l-.06.061M27.136 17.731l-.06.121M27.075 17.852v.302M27.075 18.155l.06.12M27.136 18.276l.06.06M27.196 18.336l.121.06M27.317 18.396h.242M27.56 18.396l.12-.06M27.68 18.336l.06-.06M27.74 18.276l.061-.122"/>
    </g>
    <g class="stroked-text" style="fill:none;stroke:#a90000;stroke-width:.1524;stroke-opacity:1;stroke-linecap:round;stroke-linejoin:round">
        <path d="M29.68 17.883h-.726M29.316 17.883v-1.27M29.316 16.613l-.12.182M29.196 16.795l-.122.12M29.075 16.916l-.121.06M30.465 16.613h.121M30.586 16.613l.121.06M30.707 16.674l.06.06M30.768 16.734l.06.121M30.828 16.855l.06.242M30.889 17.097v.302M30.889 17.4l-.06.241M30.828 17.641l-.06.121M30.768 17.762l-.06.06M30.707 17.823l-.12.06M30.586 17.883h-.12M30.465 17.883l-.12-.06M30.345 17.823l-.061-.06M30.284 17.762l-.06-.12M30.224 17.641l-.06-.242M30.163 17.4v-.303M30.163 17.097l.06-.242M30.224 16.855l.06-.12M30.284 16.734l.06-.06M30.345 16.674l.12-.06"/>
    </g>
    <path d="M28.651 20.84h2.54" style="fill:none;stroke:#840000;stroke-width:.1524;stroke-opacity:1;stroke-linecap:round;stroke-linejoin:round"/>
    <g class="stroked-text" style="fill:none;stroke:#006464;stroke-width:.1524;stroke-opacity:1;stroke-linecap:round;stroke-linejoin:round">
        <path d="m20.725 21.36.182.06M20.907 21.42h.302M21.21 21.42l.12-.06M21.33 21.36l.06-.06M21.39 21.3l.061-.122M21.451 21.178v-.12M21.451 21.057l-.06-.12M21.39 20.936l-.06-.06M21.33 20.876l-.12-.06M21.21 20.816l-.243-.061M20.967 20.755l-.12-.06M20.846 20.695l-.06-.061M20.786 20.634l-.06-.12M20.725 20.513v-.12M20.725 20.392l.06-.12M20.786 20.271l.06-.06M20.846 20.21l.121-.06M20.967 20.15h.303M21.27 20.15l.181.06M22.721 21.3l-.06.06M22.66 21.36l-.18.06M22.48 21.42h-.122M22.358 21.42l-.181-.06M22.177 21.36l-.121-.121M22.056 21.239l-.06-.121M21.995 21.118l-.06-.242M21.935 20.876v-.181M21.935 20.695l.06-.242M21.995 20.453l.06-.121M22.056 20.332l.12-.121M22.177 20.21l.181-.06M22.358 20.15h.121M22.48 20.15l.18.06M22.66 20.21l.061.061M23.265 21.42v-1.27M23.991 21.42l-.544-.726M23.991 20.15l-.726.726M25.443 20.09l-1.09 1.633M25.866 21.42v-1.27M25.866 20.15h.302M26.168 20.15l.182.06M26.35 20.21l.12.122M26.47 20.332l.061.12M26.531 20.453l.06.242M26.592 20.695v.18M26.592 20.876l-.06.242M26.531 21.118l-.06.12M26.47 21.239l-.12.12M26.35 21.36l-.182.06M26.168 21.42h-.302M27.317 20.695l-.12-.061M27.196 20.634l-.06-.06M27.136 20.574l-.06-.121M27.075 20.453v-.06M27.075 20.392l.06-.12M27.136 20.271l.06-.06M27.196 20.21l.121-.06M27.317 20.15h.242M27.56 20.15l.12.06M27.68 20.21l.06.061M27.74 20.271l.061.121M27.801 20.392v.06M27.801 20.453l-.06.12M27.74 20.574l-.06.06M27.68 20.634l-.12.06M27.56 20.695h-.243M27.317 20.695l-.12.06M27.196 20.755l-.06.06M27.136 20.816l-.06.12M27.075 20.936v.242M27.075 21.178l.06.121M27.136 21.3l.06.06M27.196 21.36l.121.06M27.317 21.42h.242M27.56 21.42l.12-.06M27.68 21.36l.06-.06M27.74 21.3l.061-.122M27.801 21.178v-.242M27.801 20.936l-.06-.12M27.74 20.816l-.06-.061M27.68 20.755l-.12-.06"/>
    </g>
    <g class="stroked-text" style="fill:none;stroke:#a90000;stroke-width:.1524;stroke-opacity:1;stroke-linecap:round;stroke-linejoin:round">
        <path d="M29.68 20.423h.241M29.921 20.423l.121-.06M30.042 20.363l.06-.06M30.103 20.302l.12-.181M30.224 20.12l.06-.241M30.284 19.879v-.484M30.284 19.395l-.06-.12M30.224 19.274l-.06-.06M30.163 19.214l-.12-.06M30.042 19.153H29.8M29.8 19.153l-.12.06M29.68 19.214l-.061.06M29.619 19.274l-.06.121M29.558 19.395v.303M29.558 19.698l.06.12M29.619 19.819l.06.06M29.68 19.879l.12.06M29.8 19.94h.242M30.042 19.94l.121-.061M30.163 19.879l.06-.06M30.224 19.819l.06-.121"/>
    </g>
    <path d="M28.651 23.38h2.54" style="fill:none;stroke:#840000;stroke-width:.1524;stroke-opacity:1;stroke-linecap:round;stroke-linejoin:round"/>
    <g class="stroked-text" style="fill:none;stroke:#006464;stroke-width:.1524;stroke-opacity:1;stroke-linecap:round;stroke-linejoin:round">
        <path d="m22.782 23.96-.424-.605M22.056 23.96v-1.27M22.056 22.69h.484M22.54 22.69l.12.06M22.66 22.75l.061.061M22.721 22.811l.06.121M22.782 22.932v.182M22.782 23.114l-.06.12M22.721 23.235l-.06.06M22.66 23.295l-.12.06M22.54 23.356h-.484M23.205 22.69l.847 1.27M24.052 22.69l-.847 1.27M25.443 22.63l-1.09 1.633M25.866 23.96v-1.27M25.866 22.69h.302M26.168 22.69l.182.06M26.35 22.75l.12.122M26.47 22.872l.061.12M26.531 22.993l.06.242M26.592 23.235v.18M26.592 23.416l-.06.242M26.531 23.658l-.06.12M26.47 23.779l-.12.12M26.35 23.9l-.182.06M26.168 23.96h-.302M27.015 22.69h.846M27.862 22.69l-.545 1.27"/>
    </g>
    <g class="stroked-text" style="fill:none;stroke:#a90000;stroke-width:.1524;stroke-opacity:1;stroke-linecap:round;stroke-linejoin:round">
        <path d="m29.8 22.238-.12-.061M29.68 22.177l-.061-.06M29.619 22.117l-.06-.121M29.558 21.996v-.06M29.558 21.935l.06-.12M29.619 21.814l.06-.06M29.68 21.754l.12-.06M29.8 21.693h.242M30.042 21.693l.121.06M30.163 21.754l.06.06M30.224 21.814l.06.121M30.284 21.935v.06M30.284 21.996l-.06.12M30.224 22.117l-.06.06M30.163 22.177l-.12.06M30.042 22.238H29.8M29.8 22.238l-.12.06M29.68 22.298l-.061.06M29.619 22.359l-.06.12M29.558 22.48v.241M29.558 22.721l.06.121M29.619 22.842l.06.06M29.68 22.903l.12.06M29.8 22.963h.242M30.042 22.963l.121-.06M30.163 22.903l.06-.06M30.224 22.842l.06-.12M30.284 22.721v-.242M30.284 22.48l-.06-.122M30.224 22.359l-.06-.061M30.163 22.298l-.12-.06"/>
    </g>
    <g style="fill:none;stroke:#006464;stroke-width:.1524;stroke-opacity:1;stroke-linecap:round;stroke-linejoin:round">
        <g class="stroked-text">
            <path d="M-.907-12.374v1.028M-.907-11.346l.06.12M-.847-11.225l.06.06M-.786-11.165l.12.06M-.665-11.104h.242M-.423-11.104l.12-.06M-.302-11.165l.06-.06M-.242-11.225l.06-.121M-.181-11.346v-1.028M.605-11.225l.06.06M.665-11.165l-.06.06M.605-11.104l-.06-.06M.544-11.165l.06-.06M.605-11.225v.12M.363-12.314l.12-.06M.484-12.374h.302M.786-12.374l.121.06M.907-12.314l.06.121M.968-12.193v.121M.968-12.072l-.06.121M.907-11.951l-.06.06M.847-11.89l-.121.06M.726-11.83l-.06.06M.665-11.77l-.06.121M.605-11.649v.06"/>
        </g>
        <g class="stroked-text">
            <path d="m-5.957 10.994.847 1.27M-5.11 10.994l-.847 1.27M-4.626 12.264v-1.27M-4.082 11.9h.605M-4.203 12.264l.423-1.27M-3.78 10.994l.424 1.27M-2.691 10.994h.242M-2.45 10.994l.122.06M-2.328 11.054l.12.121M-2.207 11.175l.06.242M-2.147 11.417v.423M-2.147 11.84l-.06.242M-2.207 12.082l-.121.121M-2.328 12.203l-.121.06M-2.45 12.264h-.241M-2.691 12.264l-.121-.06M-2.812 12.203l-.121-.12M-2.933 12.082l-.06-.242M-2.993 11.84v-.423M-2.993 11.417l.06-.242M-2.933 11.175l.12-.121M-2.812 11.054l.12-.06M-1.905 12.385h.968M.03 11.054l-.12-.06M-.09 10.994h-.182M-.272 10.994l-.181.06M-.453 11.054l-.121.121M-.574 11.175l-.061.12M-.635 11.296l-.06.242M-.695 11.538v.181M-.695 11.72l.06.241M-.635 11.961l.06.121M-.574 12.082l.12.121M-.453 12.203l.18.06M-.272 12.264h.12M-.151 12.264l.181-.06M.03 12.203l.06-.06M.09 12.143v-.424M.09 11.72H-.15M1.119 12.203l-.121.06M.998 12.264H.756M.756 12.264l-.121-.06M.635 12.203l-.06-.12M.575 12.082v-.484M.575 11.598l.06-.12M.635 11.477l.12-.06M.756 11.417h.242M.998 11.417l.12.06M1.119 11.477l.06.121M1.18 11.598v.121M1.18 11.72l-.605.12M1.724 11.417v.847M1.724 11.538l.06-.06M1.784 11.477l.121-.06M1.905 11.417h.181M2.086 11.417l.121.06M2.207 11.477l.06.121M2.268 11.598v.665M3.356 12.203l-.12.06M3.235 12.264h-.241M2.994 12.264l-.122-.06M2.873 12.203l-.06-.12M2.812 12.082v-.484M2.812 11.598l.06-.12M2.873 11.477l.12-.06M2.994 11.417h.241M3.235 11.417l.121.06M3.356 11.477l.06.121M3.417 11.598v.121M3.417 11.72l-.605.12M3.961 12.264v-.847M3.961 11.659l.06-.121M4.022 11.538l.06-.06M4.082 11.477l.121-.06M4.203 11.417h.121M4.747 12.264v-.847M4.747 10.994l-.06.06M4.687 11.054l.06.06M4.747 11.115l.06-.061M4.808 11.054l-.06-.06M4.747 10.994v.12M5.896 12.203l-.12.06M5.776 12.264h-.242M5.534 12.264l-.121-.06M5.413 12.203l-.06-.06M5.352 12.143l-.06-.121M5.292 12.022v-.363M5.292 11.659l.06-.121M5.352 11.538l.06-.06M5.413 11.477l.12-.06M5.534 11.417h.242M5.776 11.417l.12.06"/>
        </g>
    </g>
</svg>
