<svg xmlns="http://www.w3.org/2000/svg" width="104.928" height="36.384" viewBox="0 0 27.762 9.627">
    <g style="fill:#000;fill-opacity:1;stroke:#000;stroke-opacity:1;stroke-linecap:round;stroke-linejoin:round">
        <path stroke="none" d="m13.037.725.02-.098.055-.082.082-.056.098-.019h1.19l.098.02.082.055.055.082.02.098v1.19l-.02.098-.055.082-.083.056-.097.019h-1.19l-.098-.02-.082-.055-.056-.082-.02-.098Z" style="fill:#4d7fc4;fill-opacity:1;stroke:none;fill-rule:evenodd"/>
    </g>
    <circle cx="13.887" cy="3.86" r=".85" style="fill:#4d7fc4;fill-opacity:1;stroke:none"/>
    <g style="fill:#4d7fc4;fill-opacity:1;stroke:none">
        <circle cx="13.887" cy="6.4" r=".85"/>
        <path d="m13.037.725.02-.098.055-.082.082-.056.098-.019h1.19l.098.02.082.055.055.082.02.098v1.19l-.02.098-.055.082-.083.056-.097.019h-1.19l-.098-.02-.082-.055-.056-.082-.02-.098Z" style="fill:#c83434;fill-opacity:1;stroke:none;fill-rule:evenodd"/>
    </g>
    <circle cx="13.887" cy="3.86" r=".85" style="fill:#c83434;fill-opacity:1;stroke:none"/>
    <circle cx="13.887" cy="6.4" r=".85" style="fill:#c83434;fill-opacity:1;stroke:none"/>
    <g style="fill:none;stroke:#585d84;stroke-width:.0472;stroke-opacity:1;stroke-linecap:round;stroke-linejoin:round">
        <g class="stroked-text">
            <path d="M14.049 1.58h-.324M13.887 1.58v-.567M13.887 1.013l-.054.081M13.833 1.094l-.054.054M13.779 1.148l-.054.027"/>
        </g>
        <path d="m13.037.725.02-.098.055-.082.082-.056.098-.019h1.19l.098.02.082.055.055.082.02.098v1.19l-.02.098-.055.082-.083.056-.097.019h-1.19l-.098-.02-.082-.055-.056-.082-.02-.098Z" style="stroke:#585d84;stroke-width:.0212;stroke-opacity:1;stroke-linecap:round;stroke-linejoin:round;fill:none"/>
    </g>
    <g class="stroked-text" style="fill:none;stroke:#585d84;stroke-width:.0472;stroke-opacity:1;stroke-linecap:round;stroke-linejoin:round">
        <path d="m13.725 3.607.027-.027M13.752 3.58l.054-.027M13.806 3.553h.135M13.94 3.553l.055.027M13.995 3.58l.027.027M14.022 3.607l.027.054M14.049 3.661v.054M14.049 3.715l-.027.08M14.022 3.796l-.324.324M13.698 4.12h.35"/>
    </g>
    <circle cx="13.887" cy="3.86" r=".85" style="fill:none;stroke:#585d84;stroke-width:.0212;stroke-opacity:1;stroke-linecap:round;stroke-linejoin:round"/>
    <g class="stroked-text" style="fill:none;stroke:#585d84;stroke-width:.0472;stroke-opacity:1;stroke-linecap:round;stroke-linejoin:round">
        <path d="M13.698 6.093h.35M14.049 6.093l-.19.216M13.86 6.309h.08M13.94 6.309l.055.027M13.995 6.336l.027.027M14.022 6.363l.027.054M14.049 6.417v.135M14.049 6.552l-.027.054M14.022 6.606l-.027.027M13.995 6.633l-.054.027M13.94 6.66h-.161M13.779 6.66l-.054-.027M13.725 6.633l-.027-.027"/>
    </g>
    <circle cx="13.887" cy="6.4" r=".85" style="fill:none;stroke:#585d84;stroke-width:.0212;stroke-opacity:1;stroke-linecap:round;stroke-linejoin:round"/>
    <g style="fill:none;stroke:#afafaf;stroke-width:.15;stroke-opacity:1;stroke-linecap:round;stroke-linejoin:round">
        <g class="stroked-text">
            <path d="M.363 9.235v-1M.363 8.235h.381M.744 8.235l.095.047M.84 8.282l.047.048M.887 8.33l.047.095M.935 8.425v.143M.935 8.568l-.048.095M.887 8.663l-.048.048M.84 8.711l-.096.048M.744 8.759h-.38M1.363 9.235v-.667M1.363 8.235l-.048.047M1.316 8.282l.047.048M1.363 8.33l.048-.048M1.41 8.282l-.047-.047M1.363 8.235v.095M1.84 8.568v.667M1.84 8.663l.047-.047M1.887 8.616l.095-.048M1.982 8.568h.143M2.125 8.568l.095.048M2.22 8.616l.048.095M2.268 8.711v.524M2.744 9.235v-1M2.744 8.711h.571M3.316 9.235v-1M4.173 9.187l-.096.048M4.077 9.235h-.19M3.887 9.235l-.095-.048M3.792 9.187l-.048-.095M3.744 9.092v-.381M3.744 8.711l.048-.095M3.792 8.616l.095-.048M3.887 8.568h.19M4.077 8.568l.096.048M4.173 8.616l.047.095M4.22 8.711v.095M4.22 8.806l-.476.096M5.077 9.235V8.71M5.077 8.711l-.047-.095M5.03 8.616l-.096-.048M4.935 8.568h-.191M4.744 8.568l-.095.048M5.077 9.187l-.095.048M4.982 9.235h-.238M4.744 9.235l-.095-.048M4.649 9.187 4.6 9.092M4.601 9.092v-.095M4.601 8.997l.048-.095M4.649 8.902l.095-.048M4.744 8.854h.238M4.982 8.854l.095-.048M5.982 9.235v-1M5.982 9.187l-.095.048M5.887 9.235h-.19M5.696 9.235l-.095-.048M5.601 9.187l-.047-.047M5.554 9.14l-.048-.096M5.506 9.044V8.76M5.506 8.759l.048-.096M5.554 8.663l.047-.047M5.601 8.616l.095-.048M5.696 8.568h.19M5.887 8.568l.095.048M6.84 9.187l-.096.048M6.744 9.235h-.19M6.554 9.235l-.096-.048M6.458 9.187l-.047-.095M6.41 9.092v-.381M6.41 8.711l.048-.095M6.458 8.616l.096-.048M6.554 8.568h.19M6.744 8.568l.095.048M6.84 8.616l.047.095M6.887 8.711v.095M6.887 8.806l-.476.096M7.316 9.235v-.667M7.316 8.759l.047-.096M7.363 8.663l.048-.047M7.41 8.616l.096-.048M7.506 8.568h.095M7.696 9.33h.762M9.22 9.235H8.65M8.935 9.235v-1M8.935 8.235l-.096.143M8.84 8.378l-.096.095M8.744 8.473l-.095.047M9.554 9.235l.523-.667M9.554 8.568l.523.667M10.649 8.235h.095M10.744 8.235l.095.047M10.84 8.282l.047.048M10.887 8.33l.047.095M10.935 8.425l.047.19M10.982 8.616v.238M10.982 8.854l-.047.19M10.935 9.044l-.048.096M10.887 9.14l-.048.047M10.84 9.187l-.096.048M10.744 9.235h-.095M10.649 9.235l-.095-.048M10.554 9.187l-.048-.047M10.506 9.14l-.048-.096M10.458 9.044l-.047-.19M10.41 8.854v-.238M10.41 8.616l.048-.19M10.458 8.425l.048-.095M10.506 8.33l.048-.048M10.554 8.282l.095-.047M11.316 8.235h.618M11.935 8.235l-.334.38M11.601 8.616h.143M11.744 8.616l.095.047M11.84 8.663l.047.048M11.887 8.711l.047.095M11.935 8.806v.238M11.935 9.044l-.048.096M11.887 9.14l-.048.047M11.84 9.187l-.096.048M11.744 9.235h-.286M11.458 9.235l-.095-.048M11.363 9.187l-.047-.047M12.125 9.33h.762M12.982 8.235h.572M13.268 9.235v-1M13.887 9.235v-1M13.887 8.711h.571M14.458 9.235v-1M14.792 8.235h.571M15.077 9.235v-1M15.458 9.33h.762M16.458 9.235v-1M16.458 8.235h.381M16.84 8.235l.095.047M16.935 8.282l.047.048M16.982 8.33l.048.095M17.03 8.425v.143M17.03 8.568l-.048.095M16.982 8.663l-.047.048M16.935 8.711l-.096.048M16.84 8.759h-.382M17.41 8.33l.048-.048M17.458 8.282l.096-.047M17.554 8.235h.238M17.792 8.235l.095.047M17.887 8.282l.047.048M17.935 8.33l.047.095M17.982 8.425v.095M17.982 8.52l-.047.143M17.935 8.663l-.572.572M17.363 9.235h.62M18.41 9.14l.048.047M18.458 9.187l-.047.048M18.41 9.235l-.047-.048M18.363 9.187l.048-.047M18.41 9.14v.095M19.363 8.235h-.476M18.887 8.235l-.048.476M18.84 8.711l.047-.048M18.887 8.663l.095-.047M18.982 8.616h.238M19.22 8.616l.096.047M19.316 8.663l.047.048M19.363 8.711l.048.095M19.41 8.806v.238M19.41 9.044l-.047.096M19.363 9.14l-.047.047M19.316 9.187l-.096.048M19.22 9.235h-.238M18.982 9.235l-.095-.048M18.887 9.187l-.048-.047M20.268 8.568v.667M20.03 8.187l-.238.715M19.792 8.902h.619M20.792 9.235v-.667M20.792 8.663l.047-.047M20.84 8.616l.095-.048M20.935 8.568h.142M21.077 8.568l.096.048M21.173 8.616l.047.095M21.22 8.711v.524M21.22 8.711l.048-.095M21.268 8.616l.095-.048M21.363 8.568h.143M21.506 8.568l.095.048M21.601 8.616l.048.095M21.649 8.711v.524M22.125 9.235v-.667M22.125 8.663l.048-.047M22.173 8.616l.095-.048M22.268 8.568h.143M22.41 8.568l.096.048M22.506 8.616l.048.095M22.554 8.711v.524M22.554 8.711l.047-.095M22.601 8.616l.095-.048M22.696 8.568h.143M22.84 8.568l.095.048M22.935 8.616l.047.095M22.982 8.711v.524M23.22 9.33h.762M24.22 8.568v.667M24.22 8.663l.048-.047M24.268 8.616l.095-.048M24.363 8.568h.143M24.506 8.568l.095.048M24.601 8.616l.048.095M24.649 8.711v.524M25.077 9.187l.143.048M25.22 9.235h.238M25.458 9.235l.096-.048M25.554 9.187l.047-.047M25.601 9.14l.048-.096M25.649 9.044V8.95M25.649 8.95l-.048-.096M25.601 8.854l-.047-.048M25.554 8.806l-.096-.047M25.458 8.759l-.19-.048M25.268 8.711l-.095-.048M25.173 8.663l-.048-.047M25.125 8.616l-.048-.095M25.077 8.52v-.095M25.077 8.425l.048-.095M25.125 8.33l.048-.048M25.173 8.282l.095-.047M25.268 8.235h.238M25.506 8.235l.143.047M26.077 9.235v-.667M26.077 8.235l-.047.047M26.03 8.282l.047.048M26.077 8.33l.048-.048M26.125 8.282l-.048-.047M26.077 8.235v.095M26.696 9.235l-.095-.048M26.601 9.187l-.047-.095M26.554 9.092v-.857M27.077 9.235v-1M27.173 8.854l.285.38M27.458 8.568l-.38.381"/>
        </g>
        <g class="stroked-text">
            <path d="M13.342 4.193h.714M14.056 4.193l.143.048M14.199 4.241l.095.095M14.294 4.336l.048.143M14.342 4.479v.095M14.342 3.193v.572M14.342 3.479h-1M13.342 3.479l.143.095M13.485 3.574l.095.096M13.58 3.67l.047.095"/>
        </g>
    </g>
    <g style="fill:none;stroke:#afafaf;stroke-width:.1;stroke-opacity:1;stroke-linecap:round;stroke-linejoin:round">
        <path d="m12.617.685.635-.635M12.617 7.67V.685M13.252.05h1.905M15.157.05v7.62M15.157 7.67h-2.54"/>
    </g>
    <g style="fill:none;stroke:#afafaf;stroke-width:.0472;stroke-opacity:1;stroke-linecap:round;stroke-linejoin:round">
        <g class="stroked-text">
            <path d="M14.049 1.58h-.324M13.887 1.58v-.567M13.887 1.013l-.054.081M13.833 1.094l-.054.054M13.779 1.148l-.054.027"/>
        </g>
        <path d="m13.037.725.02-.098.055-.082.082-.056.098-.019h1.19l.098.02.082.055.055.082.02.098v1.19l-.02.098-.055.082-.083.056-.097.019h-1.19l-.098-.02-.082-.055-.056-.082-.02-.098Z" style="stroke:#afafaf;stroke-width:.0212;stroke-opacity:1;stroke-linecap:round;stroke-linejoin:round;fill:none"/>
    </g>
    <g class="stroked-text" style="fill:none;stroke:#afafaf;stroke-width:.0472;stroke-opacity:1;stroke-linecap:round;stroke-linejoin:round">
        <path d="m13.725 3.607.027-.027M13.752 3.58l.054-.027M13.806 3.553h.135M13.94 3.553l.055.027M13.995 3.58l.027.027M14.022 3.607l.027.054M14.049 3.661v.054M14.049 3.715l-.027.08M14.022 3.796l-.324.324M13.698 4.12h.35"/>
    </g>
    <circle cx="13.887" cy="3.86" r=".85" style="fill:none;stroke:#afafaf;stroke-width:.0212;stroke-opacity:1;stroke-linecap:round;stroke-linejoin:round"/>
    <g class="stroked-text" style="fill:none;stroke:#afafaf;stroke-width:.0472;stroke-opacity:1;stroke-linecap:round;stroke-linejoin:round">
        <path d="M13.698 6.093h.35M14.049 6.093l-.19.216M13.86 6.309h.08M13.94 6.309l.055.027M13.995 6.336l.027.027M14.022 6.363l.027.054M14.049 6.417v.135M14.049 6.552l-.027.054M14.022 6.606l-.027.027M13.995 6.633l-.054.027M13.94 6.66h-.161M13.779 6.66l-.054-.027M13.725 6.633l-.027-.027"/>
    </g>
    <circle cx="13.887" cy="6.4" r=".85" style="fill:none;stroke:#afafaf;stroke-width:.0212;stroke-opacity:1;stroke-linecap:round;stroke-linejoin:round"/>
</svg>
