<svg xmlns="http://www.w3.org/2000/svg" width="104.928" height="84.384" viewBox="0 0 27.762 22.327">
    <g style="fill:#000;fill-opacity:1;stroke:#000;stroke-opacity:1;stroke-linecap:round;stroke-linejoin:round">
        <path stroke="none" d="m13.037.725.02-.098.055-.082.082-.056.098-.019h1.19l.098.02.082.055.055.082.02.098v1.19l-.02.098-.055.082-.083.056-.097.019h-1.19l-.098-.02-.082-.055-.056-.082-.02-.098Z" style="fill:#4d7fc4;fill-opacity:1;stroke:none;fill-rule:evenodd"/>
    </g>
    <circle cx="13.887" cy="3.86" r=".85" style="fill:#4d7fc4;fill-opacity:1;stroke:none"/>
    <circle cx="13.887" cy="6.4" r=".85" style="fill:#4d7fc4;fill-opacity:1;stroke:none"/>
    <circle cx="13.887" cy="8.94" r=".85" style="fill:#4d7fc4;fill-opacity:1;stroke:none"/>
    <circle cx="13.887" cy="11.48" r=".85" style="fill:#4d7fc4;fill-opacity:1;stroke:none"/>
    <circle cx="13.887" cy="14.02" r=".85" style="fill:#4d7fc4;fill-opacity:1;stroke:none"/>
    <circle cx="13.887" cy="16.56" r=".85" style="fill:#4d7fc4;fill-opacity:1;stroke:none"/>
    <g style="fill:#4d7fc4;fill-opacity:1;stroke:none">
        <circle cx="13.887" cy="19.1" r=".85"/>
        <path d="m13.037.725.02-.098.055-.082.082-.056.098-.019h1.19l.098.02.082.055.055.082.02.098v1.19l-.02.098-.055.082-.083.056-.097.019h-1.19l-.098-.02-.082-.055-.056-.082-.02-.098Z" style="fill:#c83434;fill-opacity:1;stroke:none;fill-rule:evenodd"/>
    </g>
    <circle cx="13.887" cy="3.86" r=".85" style="fill:#c83434;fill-opacity:1;stroke:none"/>
    <circle cx="13.887" cy="6.4" r=".85" style="fill:#c83434;fill-opacity:1;stroke:none"/>
    <circle cx="13.887" cy="8.94" r=".85" style="fill:#c83434;fill-opacity:1;stroke:none"/>
    <circle cx="13.887" cy="11.48" r=".85" style="fill:#c83434;fill-opacity:1;stroke:none"/>
    <circle cx="13.887" cy="14.02" r=".85" style="fill:#c83434;fill-opacity:1;stroke:none"/>
    <circle cx="13.887" cy="16.56" r=".85" style="fill:#c83434;fill-opacity:1;stroke:none"/>
    <circle cx="13.887" cy="19.1" r=".85" style="fill:#c83434;fill-opacity:1;stroke:none"/>
    <g style="fill:none;stroke:#585d84;stroke-width:.0472;stroke-opacity:1;stroke-linecap:round;stroke-linejoin:round">
        <g class="stroked-text">
            <path d="M14.049 1.58h-.324M13.887 1.58v-.567M13.887 1.013l-.054.081M13.833 1.094l-.054.054M13.779 1.148l-.054.027"/>
        </g>
        <path d="m13.037.725.02-.098.055-.082.082-.056.098-.019h1.19l.098.02.082.055.055.082.02.098v1.19l-.02.098-.055.082-.083.056-.097.019h-1.19l-.098-.02-.082-.055-.056-.082-.02-.098Z" style="stroke:#585d84;stroke-width:.0212;stroke-opacity:1;stroke-linecap:round;stroke-linejoin:round;fill:none"/>
    </g>
    <g class="stroked-text" style="fill:none;stroke:#585d84;stroke-width:.0472;stroke-opacity:1;stroke-linecap:round;stroke-linejoin:round">
        <path d="m13.725 3.607.027-.027M13.752 3.58l.054-.027M13.806 3.553h.135M13.94 3.553l.055.027M13.995 3.58l.027.027M14.022 3.607l.027.054M14.049 3.661v.054M14.049 3.715l-.027.08M14.022 3.796l-.324.324M13.698 4.12h.35"/>
    </g>
    <circle cx="13.887" cy="3.86" r=".85" style="fill:none;stroke:#585d84;stroke-width:.0212;stroke-opacity:1;stroke-linecap:round;stroke-linejoin:round"/>
    <g class="stroked-text" style="fill:none;stroke:#585d84;stroke-width:.0472;stroke-opacity:1;stroke-linecap:round;stroke-linejoin:round">
        <path d="M13.698 6.093h.35M14.049 6.093l-.19.216M13.86 6.309h.08M13.94 6.309l.055.027M13.995 6.336l.027.027M14.022 6.363l.027.054M14.049 6.417v.135M14.049 6.552l-.027.054M14.022 6.606l-.027.027M13.995 6.633l-.054.027M13.94 6.66h-.161M13.779 6.66l-.054-.027M13.725 6.633l-.027-.027"/>
    </g>
    <circle cx="13.887" cy="6.4" r=".85" style="fill:none;stroke:#585d84;stroke-width:.0212;stroke-opacity:1;stroke-linecap:round;stroke-linejoin:round"/>
    <g class="stroked-text" style="fill:none;stroke:#585d84;stroke-width:.0472;stroke-opacity:1;stroke-linecap:round;stroke-linejoin:round">
        <path d="M13.995 8.822V9.2M13.86 8.606l-.135.405M13.725 9.01h.35"/>
    </g>
    <circle cx="13.887" cy="8.94" r=".85" style="fill:none;stroke:#585d84;stroke-width:.0212;stroke-opacity:1;stroke-linecap:round;stroke-linejoin:round"/>
    <g class="stroked-text" style="fill:none;stroke:#585d84;stroke-width:.0472;stroke-opacity:1;stroke-linecap:round;stroke-linejoin:round">
        <path d="M14.022 11.173h-.27M13.752 11.173l-.027.27M13.725 11.443l.027-.027M13.752 11.416l.054-.027M13.806 11.389h.135M13.94 11.389l.055.027M13.995 11.416l.027.027M14.022 11.443l.027.054M14.049 11.497v.135M14.049 11.632l-.027.054M14.022 11.686l-.027.027M13.995 11.713l-.054.027M13.94 11.74h-.134M13.806 11.74l-.054-.027M13.752 11.713l-.027-.027"/>
    </g>
    <circle cx="13.887" cy="11.48" r=".85" style="fill:none;stroke:#585d84;stroke-width:.0212;stroke-opacity:1;stroke-linecap:round;stroke-linejoin:round"/>
    <g class="stroked-text" style="fill:none;stroke:#585d84;stroke-width:.0472;stroke-opacity:1;stroke-linecap:round;stroke-linejoin:round">
        <path d="M13.995 13.713h-.108M13.887 13.713l-.054.027M13.833 13.74l-.027.027M13.806 13.767l-.054.08M13.752 13.848l-.027.108M13.725 13.956v.216M13.725 14.172l.027.054M13.752 14.226l.027.027M13.779 14.253l.054.027M13.833 14.28h.108M13.94 14.28l.055-.027M13.995 14.253l.027-.027M14.022 14.226l.027-.054M14.049 14.172v-.135M14.049 14.037l-.027-.054M14.022 13.983l-.027-.027M13.995 13.956l-.054-.027M13.94 13.929h-.107M13.833 13.929l-.054.027M13.779 13.956l-.027.027M13.752 13.983l-.027.054"/>
    </g>
    <circle cx="13.887" cy="14.02" r=".85" style="fill:none;stroke:#585d84;stroke-width:.0212;stroke-opacity:1;stroke-linecap:round;stroke-linejoin:round"/>
    <g class="stroked-text" style="fill:none;stroke:#585d84;stroke-width:.0472;stroke-opacity:1;stroke-linecap:round;stroke-linejoin:round">
        <path d="M13.698 16.253h.378M14.076 16.253l-.243.567"/>
    </g>
    <circle cx="13.887" cy="16.56" r=".85" style="fill:none;stroke:#585d84;stroke-width:.0212;stroke-opacity:1;stroke-linecap:round;stroke-linejoin:round"/>
    <g class="stroked-text" style="fill:none;stroke:#585d84;stroke-width:.0472;stroke-opacity:1;stroke-linecap:round;stroke-linejoin:round">
        <path d="m13.833 19.036-.054-.027M13.779 19.009l-.027-.027M13.752 18.982l-.027-.054M13.725 18.928V18.9M13.725 18.901l.027-.054M13.752 18.847l.027-.027M13.779 18.82l.054-.027M13.833 18.793h.108M13.94 18.793l.055.027M13.995 18.82l.027.027M14.022 18.847l.027.054M14.049 18.901v.027M14.049 18.928l-.027.054M14.022 18.982l-.027.027M13.995 19.009l-.054.027M13.94 19.036h-.107M13.833 19.036l-.054.027M13.779 19.063l-.027.027M13.752 19.09l-.027.054M13.725 19.144v.108M13.725 19.252l.027.054M13.752 19.306l.027.027M13.779 19.333l.054.027M13.833 19.36h.108M13.94 19.36l.055-.027M13.995 19.333l.027-.027M14.022 19.306l.027-.054M14.049 19.252v-.108M14.049 19.144l-.027-.054M14.022 19.09l-.027-.027M13.995 19.063l-.054-.027"/>
    </g>
    <circle cx="13.887" cy="19.1" r=".85" style="fill:none;stroke:#585d84;stroke-width:.0212;stroke-opacity:1;stroke-linecap:round;stroke-linejoin:round"/>
    <g style="fill:none;stroke:#afafaf;stroke-width:.15;stroke-opacity:1;stroke-linecap:round;stroke-linejoin:round">
        <g class="stroked-text">
            <path d="M.363 21.935v-1M.363 20.935h.381M.744 20.935l.095.047M.84 20.982l.047.048M.887 21.03l.047.095M.935 21.125v.143M.935 21.268l-.048.095M.887 21.363l-.048.048M.84 21.411l-.096.048M.744 21.459h-.38M1.363 21.935v-.667M1.363 20.935l-.048.047M1.316 20.982l.047.048M1.363 21.03l.048-.048M1.41 20.982l-.047-.047M1.363 20.935v.095M1.84 21.268v.667M1.84 21.363l.047-.047M1.887 21.316l.095-.048M1.982 21.268h.143M2.125 21.268l.095.048M2.22 21.316l.048.095M2.268 21.411v.524M2.744 21.935v-1M2.744 21.411h.571M3.316 21.935v-1M4.173 21.887l-.096.048M4.077 21.935h-.19M3.887 21.935l-.095-.048M3.792 21.887l-.048-.095M3.744 21.792v-.381M3.744 21.411l.048-.095M3.792 21.316l.095-.048M3.887 21.268h.19M4.077 21.268l.096.048M4.173 21.316l.047.095M4.22 21.411v.095M4.22 21.506l-.476.096M5.077 21.935v-.524M5.077 21.411l-.047-.095M5.03 21.316l-.096-.048M4.935 21.268h-.191M4.744 21.268l-.095.048M5.077 21.887l-.095.048M4.982 21.935h-.238M4.744 21.935l-.095-.048M4.649 21.887l-.048-.095M4.601 21.792v-.095M4.601 21.697l.048-.095M4.649 21.602l.095-.048M4.744 21.554h.238M4.982 21.554l.095-.048M5.982 21.935v-1M5.982 21.887l-.095.048M5.887 21.935h-.19M5.696 21.935l-.095-.048M5.601 21.887l-.047-.047M5.554 21.84l-.048-.096M5.506 21.744v-.285M5.506 21.459l.048-.096M5.554 21.363l.047-.047M5.601 21.316l.095-.048M5.696 21.268h.19M5.887 21.268l.095.048M6.84 21.887l-.096.048M6.744 21.935h-.19M6.554 21.935l-.096-.048M6.458 21.887l-.047-.095M6.41 21.792v-.381M6.41 21.411l.048-.095M6.458 21.316l.096-.048M6.554 21.268h.19M6.744 21.268l.095.048M6.84 21.316l.047.095M6.887 21.411v.095M6.887 21.506l-.476.096M7.316 21.935v-.667M7.316 21.459l.047-.096M7.363 21.363l.048-.047M7.41 21.316l.096-.048M7.506 21.268h.095M7.696 22.03h.762M9.22 21.935H8.65M8.935 21.935v-1M8.935 20.935l-.096.143M8.84 21.078l-.096.095M8.744 21.173l-.095.048M9.554 21.935l.523-.667M9.554 21.268l.523.667M10.649 20.935h.095M10.744 20.935l.095.047M10.84 20.982l.047.048M10.887 21.03l.047.095M10.935 21.125l.047.19M10.982 21.316v.238M10.982 21.554l-.047.19M10.935 21.744l-.048.096M10.887 21.84l-.048.047M10.84 21.887l-.096.048M10.744 21.935h-.095M10.649 21.935l-.095-.048M10.554 21.887l-.048-.047M10.506 21.84l-.048-.096M10.458 21.744l-.047-.19M10.41 21.554v-.238M10.41 21.316l.048-.19M10.458 21.125l.048-.095M10.506 21.03l.048-.048M10.554 20.982l.095-.047M11.554 21.363l-.096-.047M11.458 21.316l-.047-.048M11.41 21.268l-.047-.095M11.363 21.173v-.048M11.363 21.125l.048-.095M11.41 21.03l.048-.048M11.458 20.982l.096-.047M11.554 20.935h.19M11.744 20.935l.095.047M11.84 20.982l.047.048M11.887 21.03l.047.095M11.935 21.125v.048M11.935 21.173l-.048.095M11.887 21.268l-.048.048M11.84 21.316l-.096.047M11.744 21.363h-.19M11.554 21.363l-.096.048M11.458 21.411l-.047.048M11.41 21.459l-.047.095M11.363 21.554v.19M11.363 21.744l.048.096M11.41 21.84l.048.047M11.458 21.887l.096.048M11.554 21.935h.19M11.744 21.935l.095-.048M11.84 21.887l.047-.047M11.887 21.84l.047-.096M11.935 21.744v-.19M11.935 21.554l-.048-.095M11.887 21.459l-.048-.048M11.84 21.411l-.096-.048M12.125 22.03h.762M12.982 20.935h.572M13.268 21.935v-1M13.887 21.935v-1M13.887 21.411h.571M14.458 21.935v-1M14.792 20.935h.571M15.077 21.935v-1M15.458 22.03h.762M16.458 21.935v-1M16.458 20.935h.381M16.84 20.935l.095.047M16.935 20.982l.047.048M16.982 21.03l.048.095M17.03 21.125v.143M17.03 21.268l-.048.095M16.982 21.363l-.047.048M16.935 21.411l-.096.048M16.84 21.459h-.382M17.41 21.03l.048-.048M17.458 20.982l.096-.047M17.554 20.935h.238M17.792 20.935l.095.047M17.887 20.982l.047.048M17.935 21.03l.047.095M17.982 21.125v.096M17.982 21.22l-.047.143M17.935 21.363l-.572.572M17.363 21.935h.62M18.41 21.84l.048.047M18.458 21.887l-.047.048M18.41 21.935l-.047-.048M18.363 21.887l.048-.047M18.41 21.84v.095M19.363 20.935h-.476M18.887 20.935l-.048.476M18.84 21.411l.047-.048M18.887 21.363l.095-.047M18.982 21.316h.238M19.22 21.316l.096.047M19.316 21.363l.047.048M19.363 21.411l.048.095M19.41 21.506v.238M19.41 21.744l-.047.096M19.363 21.84l-.047.047M19.316 21.887l-.096.048M19.22 21.935h-.238M18.982 21.935l-.095-.048M18.887 21.887l-.048-.047M20.268 21.268v.667M20.03 20.887l-.238.715M19.792 21.602h.619M20.792 21.935v-.667M20.792 21.363l.047-.047M20.84 21.316l.095-.048M20.935 21.268h.142M21.077 21.268l.096.048M21.173 21.316l.047.095M21.22 21.411v.524M21.22 21.411l.048-.095M21.268 21.316l.095-.048M21.363 21.268h.143M21.506 21.268l.095.048M21.601 21.316l.048.095M21.649 21.411v.524M22.125 21.935v-.667M22.125 21.363l.048-.047M22.173 21.316l.095-.048M22.268 21.268h.143M22.41 21.268l.096.048M22.506 21.316l.048.095M22.554 21.411v.524M22.554 21.411l.047-.095M22.601 21.316l.095-.048M22.696 21.268h.143M22.84 21.268l.095.048M22.935 21.316l.047.095M22.982 21.411v.524M23.22 22.03h.762M24.22 21.268v.667M24.22 21.363l.048-.047M24.268 21.316l.095-.048M24.363 21.268h.143M24.506 21.268l.095.048M24.601 21.316l.048.095M24.649 21.411v.524M25.077 21.887l.143.048M25.22 21.935h.238M25.458 21.935l.096-.048M25.554 21.887l.047-.047M25.601 21.84l.048-.096M25.649 21.744v-.095M25.649 21.65l-.048-.096M25.601 21.554l-.047-.048M25.554 21.506l-.096-.047M25.458 21.459l-.19-.048M25.268 21.411l-.095-.048M25.173 21.363l-.048-.047M25.125 21.316l-.048-.095M25.077 21.22v-.095M25.077 21.125l.048-.095M25.125 21.03l.048-.048M25.173 20.982l.095-.047M25.268 20.935h.238M25.506 20.935l.143.047M26.077 21.935v-.667M26.077 20.935l-.047.047M26.03 20.982l.047.048M26.077 21.03l.048-.048M26.125 20.982l-.048-.047M26.077 20.935v.095M26.696 21.935l-.095-.048M26.601 21.887l-.047-.095M26.554 21.792v-.857M27.077 21.935v-1M27.173 21.554l.285.38M27.458 21.268l-.38.381"/>
        </g>
        <g class="stroked-text">
            <path d="m14.342 11.543-.476.334M14.342 12.115h-1M13.342 12.115v-.381M13.342 11.734l.047-.095M13.39 11.639l.047-.048M13.437 11.591l.095-.048M13.532 11.543h.143M13.675 11.543l.095.048M13.77 11.591l.048.048M13.818 11.639l.048.095M13.866 11.734v.38M13.818 11.115v-.334M14.342 10.639v.476M14.342 11.115h-1M13.342 11.115v-.476M13.818 9.877v.333M14.342 10.21h-1M13.342 10.21v-.476M13.342 9.21h.238M13.485 9.448l.095-.238M13.58 9.21l-.095-.238M13.77 9.353l-.19-.143M13.58 9.21l.19-.143M13.342 8.448h.238M13.485 8.686l.095-.238M13.58 8.448l-.095-.238M13.77 8.591l-.19-.143M13.58 8.448l.19-.143"/>
        </g>
    </g>
    <g style="fill:none;stroke:#afafaf;stroke-width:.1;stroke-opacity:1;stroke-linecap:round;stroke-linejoin:round">
        <path d="m12.617.685.635-.635M12.617 20.37V.685M13.252.05h1.905M15.157.05v20.32M15.157 20.37h-2.54"/>
    </g>
    <g style="fill:none;stroke:#afafaf;stroke-width:.0472;stroke-opacity:1;stroke-linecap:round;stroke-linejoin:round">
        <g class="stroked-text">
            <path d="M14.049 1.58h-.324M13.887 1.58v-.567M13.887 1.013l-.054.081M13.833 1.094l-.054.054M13.779 1.148l-.054.027"/>
        </g>
        <path d="m13.037.725.02-.098.055-.082.082-.056.098-.019h1.19l.098.02.082.055.055.082.02.098v1.19l-.02.098-.055.082-.083.056-.097.019h-1.19l-.098-.02-.082-.055-.056-.082-.02-.098Z" style="stroke:#afafaf;stroke-width:.0212;stroke-opacity:1;stroke-linecap:round;stroke-linejoin:round;fill:none"/>
    </g>
    <g class="stroked-text" style="fill:none;stroke:#afafaf;stroke-width:.0472;stroke-opacity:1;stroke-linecap:round;stroke-linejoin:round">
        <path d="m13.725 3.607.027-.027M13.752 3.58l.054-.027M13.806 3.553h.135M13.94 3.553l.055.027M13.995 3.58l.027.027M14.022 3.607l.027.054M14.049 3.661v.054M14.049 3.715l-.027.08M14.022 3.796l-.324.324M13.698 4.12h.35"/>
    </g>
    <circle cx="13.887" cy="3.86" r=".85" style="fill:none;stroke:#afafaf;stroke-width:.0212;stroke-opacity:1;stroke-linecap:round;stroke-linejoin:round"/>
    <g class="stroked-text" style="fill:none;stroke:#afafaf;stroke-width:.0472;stroke-opacity:1;stroke-linecap:round;stroke-linejoin:round">
        <path d="M13.698 6.093h.35M14.049 6.093l-.19.216M13.86 6.309h.08M13.94 6.309l.055.027M13.995 6.336l.027.027M14.022 6.363l.027.054M14.049 6.417v.135M14.049 6.552l-.027.054M14.022 6.606l-.027.027M13.995 6.633l-.054.027M13.94 6.66h-.161M13.779 6.66l-.054-.027M13.725 6.633l-.027-.027"/>
    </g>
    <circle cx="13.887" cy="6.4" r=".85" style="fill:none;stroke:#afafaf;stroke-width:.0212;stroke-opacity:1;stroke-linecap:round;stroke-linejoin:round"/>
    <g class="stroked-text" style="fill:none;stroke:#afafaf;stroke-width:.0472;stroke-opacity:1;stroke-linecap:round;stroke-linejoin:round">
        <path d="M13.995 8.822V9.2M13.86 8.606l-.135.405M13.725 9.01h.35"/>
    </g>
    <circle cx="13.887" cy="8.94" r=".85" style="fill:none;stroke:#afafaf;stroke-width:.0212;stroke-opacity:1;stroke-linecap:round;stroke-linejoin:round"/>
    <g class="stroked-text" style="fill:none;stroke:#afafaf;stroke-width:.0472;stroke-opacity:1;stroke-linecap:round;stroke-linejoin:round">
        <path d="M14.022 11.173h-.27M13.752 11.173l-.027.27M13.725 11.443l.027-.027M13.752 11.416l.054-.027M13.806 11.389h.135M13.94 11.389l.055.027M13.995 11.416l.027.027M14.022 11.443l.027.054M14.049 11.497v.135M14.049 11.632l-.027.054M14.022 11.686l-.027.027M13.995 11.713l-.054.027M13.94 11.74h-.134M13.806 11.74l-.054-.027M13.752 11.713l-.027-.027"/>
    </g>
    <circle cx="13.887" cy="11.48" r=".85" style="fill:none;stroke:#afafaf;stroke-width:.0212;stroke-opacity:1;stroke-linecap:round;stroke-linejoin:round"/>
    <g class="stroked-text" style="fill:none;stroke:#afafaf;stroke-width:.0472;stroke-opacity:1;stroke-linecap:round;stroke-linejoin:round">
        <path d="M13.995 13.713h-.108M13.887 13.713l-.054.027M13.833 13.74l-.027.027M13.806 13.767l-.054.08M13.752 13.848l-.027.108M13.725 13.956v.216M13.725 14.172l.027.054M13.752 14.226l.027.027M13.779 14.253l.054.027M13.833 14.28h.108M13.94 14.28l.055-.027M13.995 14.253l.027-.027M14.022 14.226l.027-.054M14.049 14.172v-.135M14.049 14.037l-.027-.054M14.022 13.983l-.027-.027M13.995 13.956l-.054-.027M13.94 13.929h-.107M13.833 13.929l-.054.027M13.779 13.956l-.027.027M13.752 13.983l-.027.054"/>
    </g>
    <circle cx="13.887" cy="14.02" r=".85" style="fill:none;stroke:#afafaf;stroke-width:.0212;stroke-opacity:1;stroke-linecap:round;stroke-linejoin:round"/>
    <g class="stroked-text" style="fill:none;stroke:#afafaf;stroke-width:.0472;stroke-opacity:1;stroke-linecap:round;stroke-linejoin:round">
        <path d="M13.698 16.253h.378M14.076 16.253l-.243.567"/>
    </g>
    <circle cx="13.887" cy="16.56" r=".85" style="fill:none;stroke:#afafaf;stroke-width:.0212;stroke-opacity:1;stroke-linecap:round;stroke-linejoin:round"/>
    <g class="stroked-text" style="fill:none;stroke:#afafaf;stroke-width:.0472;stroke-opacity:1;stroke-linecap:round;stroke-linejoin:round">
        <path d="m13.833 19.036-.054-.027M13.779 19.009l-.027-.027M13.752 18.982l-.027-.054M13.725 18.928V18.9M13.725 18.901l.027-.054M13.752 18.847l.027-.027M13.779 18.82l.054-.027M13.833 18.793h.108M13.94 18.793l.055.027M13.995 18.82l.027.027M14.022 18.847l.027.054M14.049 18.901v.027M14.049 18.928l-.027.054M14.022 18.982l-.027.027M13.995 19.009l-.054.027M13.94 19.036h-.107M13.833 19.036l-.054.027M13.779 19.063l-.027.027M13.752 19.09l-.027.054M13.725 19.144v.108M13.725 19.252l.027.054M13.752 19.306l.027.027M13.779 19.333l.054.027M13.833 19.36h.108M13.94 19.36l.055-.027M13.995 19.333l.027-.027M14.022 19.306l.027-.054M14.049 19.252v-.108M14.049 19.144l-.027-.054M14.022 19.09l-.027-.027M13.995 19.063l-.054-.027"/>
    </g>
    <circle cx="13.887" cy="19.1" r=".85" style="fill:none;stroke:#afafaf;stroke-width:.0212;stroke-opacity:1;stroke-linecap:round;stroke-linejoin:round"/>
</svg>
