<svg xmlns="http://www.w3.org/2000/svg" width="104.928" height="45.984" viewBox="0 0 27.762 12.167">
    <g style="fill:#000;fill-opacity:1;stroke:#000;stroke-opacity:1;stroke-linecap:round;stroke-linejoin:round">
        <path stroke="none" d="m13.037.725.02-.098.055-.082.082-.056.098-.019h1.19l.098.02.082.055.055.082.02.098v1.19l-.02.098-.055.082-.083.056-.097.019h-1.19l-.098-.02-.082-.055-.056-.082-.02-.098Z" style="fill:#4d7fc4;fill-opacity:1;stroke:none;fill-rule:evenodd"/>
    </g>
    <circle cx="13.887" cy="3.86" r=".85" style="fill:#4d7fc4;fill-opacity:1;stroke:none"/>
    <circle cx="13.887" cy="6.4" r=".85" style="fill:#4d7fc4;fill-opacity:1;stroke:none"/>
    <g style="fill:#4d7fc4;fill-opacity:1;stroke:none">
        <circle cx="13.887" cy="8.94" r=".85"/>
        <path d="m13.037.725.02-.098.055-.082.082-.056.098-.019h1.19l.098.02.082.055.055.082.02.098v1.19l-.02.098-.055.082-.083.056-.097.019h-1.19l-.098-.02-.082-.055-.056-.082-.02-.098Z" style="fill:#c83434;fill-opacity:1;stroke:none;fill-rule:evenodd"/>
    </g>
    <circle cx="13.887" cy="3.86" r=".85" style="fill:#c83434;fill-opacity:1;stroke:none"/>
    <circle cx="13.887" cy="6.4" r=".85" style="fill:#c83434;fill-opacity:1;stroke:none"/>
    <circle cx="13.887" cy="8.94" r=".85" style="fill:#c83434;fill-opacity:1;stroke:none"/>
    <g style="fill:none;stroke:#585d84;stroke-width:.0472;stroke-opacity:1;stroke-linecap:round;stroke-linejoin:round">
        <g class="stroked-text">
            <path d="M14.049 1.58h-.324M13.887 1.58v-.567M13.887 1.013l-.054.081M13.833 1.094l-.054.054M13.779 1.148l-.054.027"/>
        </g>
        <path d="m13.037.725.02-.098.055-.082.082-.056.098-.019h1.19l.098.02.082.055.055.082.02.098v1.19l-.02.098-.055.082-.083.056-.097.019h-1.19l-.098-.02-.082-.055-.056-.082-.02-.098Z" style="stroke:#585d84;stroke-width:.0212;stroke-opacity:1;stroke-linecap:round;stroke-linejoin:round;fill:none"/>
    </g>
    <g class="stroked-text" style="fill:none;stroke:#585d84;stroke-width:.0472;stroke-opacity:1;stroke-linecap:round;stroke-linejoin:round">
        <path d="m13.725 3.607.027-.027M13.752 3.58l.054-.027M13.806 3.553h.135M13.94 3.553l.055.027M13.995 3.58l.027.027M14.022 3.607l.027.054M14.049 3.661v.054M14.049 3.715l-.027.08M14.022 3.796l-.324.324M13.698 4.12h.35"/>
    </g>
    <circle cx="13.887" cy="3.86" r=".85" style="fill:none;stroke:#585d84;stroke-width:.0212;stroke-opacity:1;stroke-linecap:round;stroke-linejoin:round"/>
    <g class="stroked-text" style="fill:none;stroke:#585d84;stroke-width:.0472;stroke-opacity:1;stroke-linecap:round;stroke-linejoin:round">
        <path d="M13.698 6.093h.35M14.049 6.093l-.19.216M13.86 6.309h.08M13.94 6.309l.055.027M13.995 6.336l.027.027M14.022 6.363l.027.054M14.049 6.417v.135M14.049 6.552l-.027.054M14.022 6.606l-.027.027M13.995 6.633l-.054.027M13.94 6.66h-.161M13.779 6.66l-.054-.027M13.725 6.633l-.027-.027"/>
    </g>
    <circle cx="13.887" cy="6.4" r=".85" style="fill:none;stroke:#585d84;stroke-width:.0212;stroke-opacity:1;stroke-linecap:round;stroke-linejoin:round"/>
    <g class="stroked-text" style="fill:none;stroke:#585d84;stroke-width:.0472;stroke-opacity:1;stroke-linecap:round;stroke-linejoin:round">
        <path d="M13.995 8.822V9.2M13.86 8.606l-.135.405M13.725 9.01h.35"/>
    </g>
    <circle cx="13.887" cy="8.94" r=".85" style="fill:none;stroke:#585d84;stroke-width:.0212;stroke-opacity:1;stroke-linecap:round;stroke-linejoin:round"/>
    <g style="fill:none;stroke:#afafaf;stroke-width:.15;stroke-opacity:1;stroke-linecap:round;stroke-linejoin:round">
        <g class="stroked-text">
            <path d="M.363 11.775v-1M.363 10.775h.381M.744 10.775l.095.047M.84 10.822l.047.048M.887 10.87l.047.095M.935 10.965v.143M.935 11.108l-.048.095M.887 11.203l-.048.048M.84 11.251l-.096.048M.744 11.299h-.38M1.363 11.775v-.667M1.363 10.775l-.048.047M1.316 10.822l.047.048M1.363 10.87l.048-.048M1.41 10.822l-.047-.047M1.363 10.775v.095M1.84 11.108v.667M1.84 11.203l.047-.047M1.887 11.156l.095-.048M1.982 11.108h.143M2.125 11.108l.095.048M2.22 11.156l.048.095M2.268 11.251v.524M2.744 11.775v-1M2.744 11.251h.571M3.316 11.775v-1M4.173 11.727l-.096.048M4.077 11.775h-.19M3.887 11.775l-.095-.048M3.792 11.727l-.048-.095M3.744 11.632v-.381M3.744 11.251l.048-.095M3.792 11.156l.095-.048M3.887 11.108h.19M4.077 11.108l.096.048M4.173 11.156l.047.095M4.22 11.251v.095M4.22 11.346l-.476.095M5.077 11.775v-.524M5.077 11.251l-.047-.095M5.03 11.156l-.096-.048M4.935 11.108h-.191M4.744 11.108l-.095.048M5.077 11.727l-.095.048M4.982 11.775h-.238M4.744 11.775l-.095-.048M4.649 11.727l-.048-.095M4.601 11.632v-.095M4.601 11.537l.048-.096M4.649 11.442l.095-.048M4.744 11.394h.238M4.982 11.394l.095-.048M5.982 11.775v-1M5.982 11.727l-.095.048M5.887 11.775h-.19M5.696 11.775l-.095-.048M5.601 11.727l-.047-.047M5.554 11.68l-.048-.096M5.506 11.584V11.3M5.506 11.299l.048-.096M5.554 11.203l.047-.047M5.601 11.156l.095-.048M5.696 11.108h.19M5.887 11.108l.095.048M6.84 11.727l-.096.048M6.744 11.775h-.19M6.554 11.775l-.096-.048M6.458 11.727l-.047-.095M6.41 11.632v-.381M6.41 11.251l.048-.095M6.458 11.156l.096-.048M6.554 11.108h.19M6.744 11.108l.095.048M6.84 11.156l.047.095M6.887 11.251v.095M6.887 11.346l-.476.095M7.316 11.775v-.667M7.316 11.299l.047-.096M7.363 11.203l.048-.047M7.41 11.156l.096-.048M7.506 11.108h.095M7.696 11.87h.762M9.22 11.775H8.65M8.935 11.775v-1M8.935 10.775l-.096.143M8.84 10.918l-.096.095M8.744 11.013l-.095.047M9.554 11.775l.523-.667M9.554 11.108l.523.667M10.649 10.775h.095M10.744 10.775l.095.047M10.84 10.822l.047.048M10.887 10.87l.047.095M10.935 10.965l.047.19M10.982 11.156v.238M10.982 11.394l-.047.19M10.935 11.584l-.048.096M10.887 11.68l-.048.047M10.84 11.727l-.096.048M10.744 11.775h-.095M10.649 11.775l-.095-.048M10.554 11.727l-.048-.047M10.506 11.68l-.048-.096M10.458 11.584l-.047-.19M10.41 11.394v-.238M10.41 11.156l.048-.19M10.458 10.965l.048-.095M10.506 10.87l.048-.048M10.554 10.822l.095-.047M11.84 11.108v.667M11.601 10.727l-.238.714M11.363 11.442h.62M12.125 11.87h.762M12.982 10.775h.572M13.268 11.775v-1M13.887 11.775v-1M13.887 11.251h.571M14.458 11.775v-1M14.792 10.775h.571M15.077 11.775v-1M15.458 11.87h.762M16.458 11.775v-1M16.458 10.775h.381M16.84 10.775l.095.047M16.935 10.822l.047.048M16.982 10.87l.048.095M17.03 10.965v.143M17.03 11.108l-.048.095M16.982 11.203l-.047.048M16.935 11.251l-.096.048M16.84 11.299h-.382M17.41 10.87l.048-.048M17.458 10.822l.096-.047M17.554 10.775h.238M17.792 10.775l.095.047M17.887 10.822l.047.048M17.935 10.87l.047.095M17.982 10.965v.095M17.982 11.06l-.047.143M17.935 11.203l-.572.572M17.363 11.775h.62M18.41 11.68l.048.047M18.458 11.727l-.047.048M18.41 11.775l-.047-.048M18.363 11.727l.048-.047M18.41 11.68v.095M19.363 10.775h-.476M18.887 10.775l-.048.476M18.84 11.251l.047-.048M18.887 11.203l.095-.047M18.982 11.156h.238M19.22 11.156l.096.047M19.316 11.203l.047.048M19.363 11.251l.048.095M19.41 11.346v.238M19.41 11.584l-.047.096M19.363 11.68l-.047.047M19.316 11.727l-.096.048M19.22 11.775h-.238M18.982 11.775l-.095-.048M18.887 11.727l-.048-.047M20.268 11.108v.667M20.03 10.727l-.238.714M19.792 11.442h.619M20.792 11.775v-.667M20.792 11.203l.047-.047M20.84 11.156l.095-.048M20.935 11.108h.142M21.077 11.108l.096.048M21.173 11.156l.047.095M21.22 11.251v.524M21.22 11.251l.048-.095M21.268 11.156l.095-.048M21.363 11.108h.143M21.506 11.108l.095.048M21.601 11.156l.048.095M21.649 11.251v.524M22.125 11.775v-.667M22.125 11.203l.048-.047M22.173 11.156l.095-.048M22.268 11.108h.143M22.41 11.108l.096.048M22.506 11.156l.048.095M22.554 11.251v.524M22.554 11.251l.047-.095M22.601 11.156l.095-.048M22.696 11.108h.143M22.84 11.108l.095.048M22.935 11.156l.047.095M22.982 11.251v.524M23.22 11.87h.762M24.22 11.108v.667M24.22 11.203l.048-.047M24.268 11.156l.095-.048M24.363 11.108h.143M24.506 11.108l.095.048M24.601 11.156l.048.095M24.649 11.251v.524M25.077 11.727l.143.048M25.22 11.775h.238M25.458 11.775l.096-.048M25.554 11.727l.047-.047M25.601 11.68l.048-.096M25.649 11.584v-.095M25.649 11.49l-.048-.096M25.601 11.394l-.047-.048M25.554 11.346l-.096-.047M25.458 11.299l-.19-.048M25.268 11.251l-.095-.048M25.173 11.203l-.048-.047M25.125 11.156l-.048-.096M25.077 11.06v-.095M25.077 10.965l.048-.095M25.125 10.87l.048-.048M25.173 10.822l.095-.047M25.268 10.775h.238M25.506 10.775l.143.047M26.077 11.775v-.667M26.077 10.775l-.047.047M26.03 10.822l.047.048M26.077 10.87l.048-.048M26.125 10.822l-.048-.047M26.077 10.775v.095M26.696 11.775l-.095-.048M26.601 11.727l-.047-.095M26.554 11.632v-.857M27.077 11.775v-1M27.173 11.394l.285.38M27.458 11.108l-.38.381"/>
        </g>
        <g class="stroked-text">
            <path d="M13.342 5.463h.714M14.056 5.463l.143.048M14.199 5.511l.095.095M14.294 5.606l.048.143M14.342 5.749v.095M13.342 5.082v-.619M13.342 4.463l.38.334M13.723 4.797v-.143M13.723 4.654l.047-.095M13.77 4.559l.048-.048M13.818 4.511l.095-.048M13.913 4.463h.238M14.151 4.463l.095.048M14.247 4.511l.047.048M14.294 4.559l.048.095M14.342 4.654v.285M14.342 4.94l-.048.095M14.294 5.035l-.048.047"/>
        </g>
    </g>
    <g style="fill:none;stroke:#afafaf;stroke-width:.1;stroke-opacity:1;stroke-linecap:round;stroke-linejoin:round">
        <path d="m12.617.685.635-.635M12.617 10.21V.685M13.252.05h1.905M15.157.05v10.16M15.157 10.21h-2.54"/>
    </g>
    <g style="fill:none;stroke:#afafaf;stroke-width:.0472;stroke-opacity:1;stroke-linecap:round;stroke-linejoin:round">
        <g class="stroked-text">
            <path d="M14.049 1.58h-.324M13.887 1.58v-.567M13.887 1.013l-.054.081M13.833 1.094l-.054.054M13.779 1.148l-.054.027"/>
        </g>
        <path d="m13.037.725.02-.098.055-.082.082-.056.098-.019h1.19l.098.02.082.055.055.082.02.098v1.19l-.02.098-.055.082-.083.056-.097.019h-1.19l-.098-.02-.082-.055-.056-.082-.02-.098Z" style="stroke:#afafaf;stroke-width:.0212;stroke-opacity:1;stroke-linecap:round;stroke-linejoin:round;fill:none"/>
    </g>
    <g class="stroked-text" style="fill:none;stroke:#afafaf;stroke-width:.0472;stroke-opacity:1;stroke-linecap:round;stroke-linejoin:round">
        <path d="m13.725 3.607.027-.027M13.752 3.58l.054-.027M13.806 3.553h.135M13.94 3.553l.055.027M13.995 3.58l.027.027M14.022 3.607l.027.054M14.049 3.661v.054M14.049 3.715l-.027.08M14.022 3.796l-.324.324M13.698 4.12h.35"/>
    </g>
    <circle cx="13.887" cy="3.86" r=".85" style="fill:none;stroke:#afafaf;stroke-width:.0212;stroke-opacity:1;stroke-linecap:round;stroke-linejoin:round"/>
    <g class="stroked-text" style="fill:none;stroke:#afafaf;stroke-width:.0472;stroke-opacity:1;stroke-linecap:round;stroke-linejoin:round">
        <path d="M13.698 6.093h.35M14.049 6.093l-.19.216M13.86 6.309h.08M13.94 6.309l.055.027M13.995 6.336l.027.027M14.022 6.363l.027.054M14.049 6.417v.135M14.049 6.552l-.027.054M14.022 6.606l-.027.027M13.995 6.633l-.054.027M13.94 6.66h-.161M13.779 6.66l-.054-.027M13.725 6.633l-.027-.027"/>
    </g>
    <circle cx="13.887" cy="6.4" r=".85" style="fill:none;stroke:#afafaf;stroke-width:.0212;stroke-opacity:1;stroke-linecap:round;stroke-linejoin:round"/>
    <g class="stroked-text" style="fill:none;stroke:#afafaf;stroke-width:.0472;stroke-opacity:1;stroke-linecap:round;stroke-linejoin:round">
        <path d="M13.995 8.822V9.2M13.86 8.606l-.135.405M13.725 9.01h.35"/>
    </g>
    <circle cx="13.887" cy="8.94" r=".85" style="fill:none;stroke:#afafaf;stroke-width:.0212;stroke-opacity:1;stroke-linecap:round;stroke-linejoin:round"/>
</svg>
