<?xml version="1.0" standalone="no"?>
 <!DOCTYPE svg PUBLIC "-//W3C//DTD SVG 1.1//EN" 
 "http://www.w3.org/Graphics/SVG/1.1/DTD/svg11.dtd"> 
<svg
  xmlns:svg="http://www.w3.org/2000/svg"
  xmlns="http://www.w3.org/2000/svg"
  xmlns:xlink="http://www.w3.org/1999/xlink"
  version="1.1"
  width="27.7622mm" height="14.7066mm" viewBox="0.0000 0.0000 27.7622 14.7066">
<title>SVG Image created as PinHeader_1x05_THT_P2.54mm_nSilk.svg date 2025/05/12 22:52:34 </title>
  <desc>Image generated by PCBNEW </desc>
<g style="fill:#000000; fill-opacity:1.0000;stroke:#000000; stroke-opacity:1.0000;
stroke-linecap:round; stroke-linejoin:round;"
 transform="translate(0 0) scale(1 1)">
<path style="fill:#4D7FC4; fill-opacity:1.0000; stroke:none;fill-rule:evenodd;"
d="M 13.0369,0.7250
13.0563,0.6274
13.1116,0.5447
13.1943,0.4894
13.2919,0.4700
14.4819,0.4700
14.5795,0.4894
14.6622,0.5447
14.7175,0.6274
14.7369,0.7250
14.7369,1.9150
14.7175,2.0126
14.6622,2.0953
14.5795,2.1506
14.4819,2.1700
13.2919,2.1700
13.1943,2.1506
13.1116,2.0953
13.0563,2.0126
13.0369,1.9150
Z" /> 
</g>
<g style="fill:#4D7FC4; fill-opacity:1.0000; stroke:none;">
<circle cx="13.8869" cy="3.8600" r="0.8500" /> 
</g>
<g style="fill:#4D7FC4; fill-opacity:1.0000; stroke:none;">
<circle cx="13.8869" cy="6.4000" r="0.8500" /> 
</g>
<g style="fill:#4D7FC4; fill-opacity:1.0000; stroke:none;">
<circle cx="13.8869" cy="8.9400" r="0.8500" /> 
</g>
<g style="fill:#4D7FC4; fill-opacity:1.0000; stroke:none;">
<circle cx="13.8869" cy="11.4800" r="0.8500" /> 
<path style="fill:#C83434; fill-opacity:1.0000; stroke:none;fill-rule:evenodd;"
d="M 13.0369,0.7250
13.0563,0.6274
13.1116,0.5447
13.1943,0.4894
13.2919,0.4700
14.4819,0.4700
14.5795,0.4894
14.6622,0.5447
14.7175,0.6274
14.7369,0.7250
14.7369,1.9150
14.7175,2.0126
14.6622,2.0953
14.5795,2.1506
14.4819,2.1700
13.2919,2.1700
13.1943,2.1506
13.1116,2.0953
13.0563,2.0126
13.0369,1.9150
Z" /> 
</g>
<g style="fill:#C83434; fill-opacity:1.0000; stroke:none;">
<circle cx="13.8869" cy="3.8600" r="0.8500" /> 
</g>
<g style="fill:#C83434; fill-opacity:1.0000; stroke:none;">
<circle cx="13.8869" cy="6.4000" r="0.8500" /> 
</g>
<g style="fill:#C83434; fill-opacity:1.0000; stroke:none;">
<circle cx="13.8869" cy="8.9400" r="0.8500" /> 
</g>
<g style="fill:#C83434; fill-opacity:1.0000; stroke:none;">
<circle cx="13.8869" cy="11.4800" r="0.8500" /> 
</g>
<g style="fill:none; 
stroke:#585D84; stroke-width:0.0472; stroke-opacity:1; 
stroke-linecap:round; stroke-linejoin:round;">
<text x="13.8869" y="1.6033"
textLength="0.5680" font-size="0.7556" lengthAdjust="spacingAndGlyphs"
text-anchor="middle" opacity="0" stroke-opacity="0">1</text>
<g class="stroked-text"><desc>1</desc>
<path d="M14.0488 1.5797
L13.7250 1.5797
" />
<path d="M13.8869 1.5797
L13.8869 1.0130
" />
<path d="M13.8869 1.0130
L13.8329 1.0940
" />
<path d="M13.8329 1.0940
L13.7790 1.1480
" />
<path d="M13.7790 1.1480
L13.7250 1.1749
" />
</g><path style="fill:none; 
stroke:#585D84; stroke-width:0.0212; stroke-opacity:1; 
stroke-linecap:round; stroke-linejoin:round;fill:none"
d="M 13.0369,0.7250
13.0563,0.6274
13.1116,0.5447
13.1943,0.4894
13.2919,0.4700
14.4819,0.4700
14.5795,0.4894
14.6622,0.5447
14.7175,0.6274
14.7369,0.7250
14.7369,1.9150
14.7175,2.0126
14.6622,2.0953
14.5795,2.1506
14.4819,2.1700
13.2919,2.1700
13.1943,2.1506
13.1116,2.0953
13.0563,2.0126
13.0369,1.9150
Z" /> 
</g>
<g style="fill:none; 
stroke:#585D84; stroke-width:0.0472; stroke-opacity:1; 
stroke-linecap:round; stroke-linejoin:round;">
<text x="13.8869" y="4.1433"
textLength="0.5680" font-size="0.7556" lengthAdjust="spacingAndGlyphs"
text-anchor="middle" opacity="0" stroke-opacity="0">2</text>
<g class="stroked-text"><desc>2</desc>
<path d="M13.7250 3.6070
L13.7520 3.5800
" />
<path d="M13.7520 3.5800
L13.8060 3.5530
" />
<path d="M13.8060 3.5530
L13.9409 3.5530
" />
<path d="M13.9409 3.5530
L13.9948 3.5800
" />
<path d="M13.9948 3.5800
L14.0218 3.6070
" />
<path d="M14.0218 3.6070
L14.0488 3.6610
" />
<path d="M14.0488 3.6610
L14.0488 3.7149
" />
<path d="M14.0488 3.7149
L14.0218 3.7959
" />
<path d="M14.0218 3.7959
L13.6980 4.1197
" />
<path d="M13.6980 4.1197
L14.0488 4.1197
" />
</g></g>
<g style="fill:none; 
stroke:#585D84; stroke-width:0.0212; stroke-opacity:1; 
stroke-linecap:round; stroke-linejoin:round;">
<circle cx="13.8869" cy="3.8600" r="0.8500" /> 
</g>
<g style="fill:none; 
stroke:#585D84; stroke-width:0.0472; stroke-opacity:1; 
stroke-linecap:round; stroke-linejoin:round;">
<text x="13.8869" y="6.6833"
textLength="0.5680" font-size="0.7556" lengthAdjust="spacingAndGlyphs"
text-anchor="middle" opacity="0" stroke-opacity="0">3</text>
<g class="stroked-text"><desc>3</desc>
<path d="M13.6980 6.0930
L14.0488 6.0930
" />
<path d="M14.0488 6.0930
L13.8599 6.3089
" />
<path d="M13.8599 6.3089
L13.9409 6.3089
" />
<path d="M13.9409 6.3089
L13.9948 6.3359
" />
<path d="M13.9948 6.3359
L14.0218 6.3629
" />
<path d="M14.0218 6.3629
L14.0488 6.4168
" />
<path d="M14.0488 6.4168
L14.0488 6.5518
" />
<path d="M14.0488 6.5518
L14.0218 6.6057
" />
<path d="M14.0218 6.6057
L13.9948 6.6327
" />
<path d="M13.9948 6.6327
L13.9409 6.6597
" />
<path d="M13.9409 6.6597
L13.7790 6.6597
" />
<path d="M13.7790 6.6597
L13.7250 6.6327
" />
<path d="M13.7250 6.6327
L13.6980 6.6057
" />
</g></g>
<g style="fill:none; 
stroke:#585D84; stroke-width:0.0212; stroke-opacity:1; 
stroke-linecap:round; stroke-linejoin:round;">
<circle cx="13.8869" cy="6.4000" r="0.8500" /> 
</g>
<g style="fill:none; 
stroke:#585D84; stroke-width:0.0472; stroke-opacity:1; 
stroke-linecap:round; stroke-linejoin:round;">
<text x="13.8869" y="9.2233"
textLength="0.5680" font-size="0.7556" lengthAdjust="spacingAndGlyphs"
text-anchor="middle" opacity="0" stroke-opacity="0">4</text>
<g class="stroked-text"><desc>4</desc>
<path d="M13.9948 8.8219
L13.9948 9.1997
" />
<path d="M13.8599 8.6060
L13.7250 9.0108
" />
<path d="M13.7250 9.0108
L14.0758 9.0108
" />
</g></g>
<g style="fill:none; 
stroke:#585D84; stroke-width:0.0212; stroke-opacity:1; 
stroke-linecap:round; stroke-linejoin:round;">
<circle cx="13.8869" cy="8.9400" r="0.8500" /> 
</g>
<g style="fill:none; 
stroke:#585D84; stroke-width:0.0472; stroke-opacity:1; 
stroke-linecap:round; stroke-linejoin:round;">
<text x="13.8869" y="11.7633"
textLength="0.5680" font-size="0.7556" lengthAdjust="spacingAndGlyphs"
text-anchor="middle" opacity="0" stroke-opacity="0">5</text>
<g class="stroked-text"><desc>5</desc>
<path d="M14.0218 11.1730
L13.7520 11.1730
" />
<path d="M13.7520 11.1730
L13.7250 11.4429
" />
<path d="M13.7250 11.4429
L13.7520 11.4159
" />
<path d="M13.7520 11.4159
L13.8060 11.3889
" />
<path d="M13.8060 11.3889
L13.9409 11.3889
" />
<path d="M13.9409 11.3889
L13.9948 11.4159
" />
<path d="M13.9948 11.4159
L14.0218 11.4429
" />
<path d="M14.0218 11.4429
L14.0488 11.4968
" />
<path d="M14.0488 11.4968
L14.0488 11.6318
" />
<path d="M14.0488 11.6318
L14.0218 11.6857
" />
<path d="M14.0218 11.6857
L13.9948 11.7127
" />
<path d="M13.9948 11.7127
L13.9409 11.7397
" />
<path d="M13.9409 11.7397
L13.8060 11.7397
" />
<path d="M13.8060 11.7397
L13.7520 11.7127
" />
<path d="M13.7520 11.7127
L13.7250 11.6857
" />
</g></g>
<g style="fill:none; 
stroke:#585D84; stroke-width:0.0212; stroke-opacity:1; 
stroke-linecap:round; stroke-linejoin:round;">
<circle cx="13.8869" cy="11.4800" r="0.8500" /> 
</g>
<g style="fill:none; 
stroke:#AFAFAF; stroke-width:0.1500; stroke-opacity:1; 
stroke-linecap:round; stroke-linejoin:round;">
<text x="13.8869" y="14.3600"
textLength="27.7738" font-size="1.3333" lengthAdjust="spacingAndGlyphs"
text-anchor="middle" opacity="0" stroke-opacity="0">PinHeader_1x05_THT_P2.54mm_nSilk</text>
<g class="stroked-text"><desc>PinHeader_1x05_THT_P2.54mm_nSilk</desc>
<path d="M0.3631 14.3148
L0.3631 13.3148
" />
<path d="M0.3631 13.3148
L0.7440 13.3148
" />
<path d="M0.7440 13.3148
L0.8393 13.3624
" />
<path d="M0.8393 13.3624
L0.8869 13.4101
" />
<path d="M0.8869 13.4101
L0.9345 13.5053
" />
<path d="M0.9345 13.5053
L0.9345 13.6482
" />
<path d="M0.9345 13.6482
L0.8869 13.7434
" />
<path d="M0.8869 13.7434
L0.8393 13.7910
" />
<path d="M0.8393 13.7910
L0.7440 13.8386
" />
<path d="M0.7440 13.8386
L0.3631 13.8386
" />
<path d="M1.3631 14.3148
L1.3631 13.6482
" />
<path d="M1.3631 13.3148
L1.3155 13.3624
" />
<path d="M1.3155 13.3624
L1.3631 13.4101
" />
<path d="M1.3631 13.4101
L1.4107 13.3624
" />
<path d="M1.4107 13.3624
L1.3631 13.3148
" />
<path d="M1.3631 13.3148
L1.3631 13.4101
" />
<path d="M1.8393 13.6482
L1.8393 14.3148
" />
<path d="M1.8393 13.7434
L1.8869 13.6958
" />
<path d="M1.8869 13.6958
L1.9821 13.6482
" />
<path d="M1.9821 13.6482
L2.1250 13.6482
" />
<path d="M2.1250 13.6482
L2.2202 13.6958
" />
<path d="M2.2202 13.6958
L2.2679 13.7910
" />
<path d="M2.2679 13.7910
L2.2679 14.3148
" />
<path d="M2.7440 14.3148
L2.7440 13.3148
" />
<path d="M2.7440 13.7910
L3.3155 13.7910
" />
<path d="M3.3155 14.3148
L3.3155 13.3148
" />
<path d="M4.1726 14.2672
L4.0774 14.3148
" />
<path d="M4.0774 14.3148
L3.8869 14.3148
" />
<path d="M3.8869 14.3148
L3.7917 14.2672
" />
<path d="M3.7917 14.2672
L3.7440 14.1720
" />
<path d="M3.7440 14.1720
L3.7440 13.7910
" />
<path d="M3.7440 13.7910
L3.7917 13.6958
" />
<path d="M3.7917 13.6958
L3.8869 13.6482
" />
<path d="M3.8869 13.6482
L4.0774 13.6482
" />
<path d="M4.0774 13.6482
L4.1726 13.6958
" />
<path d="M4.1726 13.6958
L4.2202 13.7910
" />
<path d="M4.2202 13.7910
L4.2202 13.8862
" />
<path d="M4.2202 13.8862
L3.7440 13.9815
" />
<path d="M5.0774 14.3148
L5.0774 13.7910
" />
<path d="M5.0774 13.7910
L5.0298 13.6958
" />
<path d="M5.0298 13.6958
L4.9345 13.6482
" />
<path d="M4.9345 13.6482
L4.7440 13.6482
" />
<path d="M4.7440 13.6482
L4.6488 13.6958
" />
<path d="M5.0774 14.2672
L4.9821 14.3148
" />
<path d="M4.9821 14.3148
L4.7440 14.3148
" />
<path d="M4.7440 14.3148
L4.6488 14.2672
" />
<path d="M4.6488 14.2672
L4.6012 14.1720
" />
<path d="M4.6012 14.1720
L4.6012 14.0767
" />
<path d="M4.6012 14.0767
L4.6488 13.9815
" />
<path d="M4.6488 13.9815
L4.7440 13.9339
" />
<path d="M4.7440 13.9339
L4.9821 13.9339
" />
<path d="M4.9821 13.9339
L5.0774 13.8862
" />
<path d="M5.9821 14.3148
L5.9821 13.3148
" />
<path d="M5.9821 14.2672
L5.8869 14.3148
" />
<path d="M5.8869 14.3148
L5.6964 14.3148
" />
<path d="M5.6964 14.3148
L5.6012 14.2672
" />
<path d="M5.6012 14.2672
L5.5536 14.2196
" />
<path d="M5.5536 14.2196
L5.5060 14.1243
" />
<path d="M5.5060 14.1243
L5.5060 13.8386
" />
<path d="M5.5060 13.8386
L5.5536 13.7434
" />
<path d="M5.5536 13.7434
L5.6012 13.6958
" />
<path d="M5.6012 13.6958
L5.6964 13.6482
" />
<path d="M5.6964 13.6482
L5.8869 13.6482
" />
<path d="M5.8869 13.6482
L5.9821 13.6958
" />
<path d="M6.8393 14.2672
L6.7440 14.3148
" />
<path d="M6.7440 14.3148
L6.5536 14.3148
" />
<path d="M6.5536 14.3148
L6.4583 14.2672
" />
<path d="M6.4583 14.2672
L6.4107 14.1720
" />
<path d="M6.4107 14.1720
L6.4107 13.7910
" />
<path d="M6.4107 13.7910
L6.4583 13.6958
" />
<path d="M6.4583 13.6958
L6.5536 13.6482
" />
<path d="M6.5536 13.6482
L6.7440 13.6482
" />
<path d="M6.7440 13.6482
L6.8393 13.6958
" />
<path d="M6.8393 13.6958
L6.8869 13.7910
" />
<path d="M6.8869 13.7910
L6.8869 13.8862
" />
<path d="M6.8869 13.8862
L6.4107 13.9815
" />
<path d="M7.3155 14.3148
L7.3155 13.6482
" />
<path d="M7.3155 13.8386
L7.3631 13.7434
" />
<path d="M7.3631 13.7434
L7.4107 13.6958
" />
<path d="M7.4107 13.6958
L7.5060 13.6482
" />
<path d="M7.5060 13.6482
L7.6012 13.6482
" />
<path d="M7.6964 14.4101
L8.4583 14.4101
" />
<path d="M9.2202 14.3148
L8.6488 14.3148
" />
<path d="M8.9345 14.3148
L8.9345 13.3148
" />
<path d="M8.9345 13.3148
L8.8393 13.4577
" />
<path d="M8.8393 13.4577
L8.7440 13.5529
" />
<path d="M8.7440 13.5529
L8.6488 13.6005
" />
<path d="M9.5536 14.3148
L10.0774 13.6482
" />
<path d="M9.5536 13.6482
L10.0774 14.3148
" />
<path d="M10.6488 13.3148
L10.7440 13.3148
" />
<path d="M10.7440 13.3148
L10.8393 13.3624
" />
<path d="M10.8393 13.3624
L10.8869 13.4101
" />
<path d="M10.8869 13.4101
L10.9345 13.5053
" />
<path d="M10.9345 13.5053
L10.9821 13.6958
" />
<path d="M10.9821 13.6958
L10.9821 13.9339
" />
<path d="M10.9821 13.9339
L10.9345 14.1243
" />
<path d="M10.9345 14.1243
L10.8869 14.2196
" />
<path d="M10.8869 14.2196
L10.8393 14.2672
" />
<path d="M10.8393 14.2672
L10.7440 14.3148
" />
<path d="M10.7440 14.3148
L10.6488 14.3148
" />
<path d="M10.6488 14.3148
L10.5536 14.2672
" />
<path d="M10.5536 14.2672
L10.5060 14.2196
" />
<path d="M10.5060 14.2196
L10.4583 14.1243
" />
<path d="M10.4583 14.1243
L10.4107 13.9339
" />
<path d="M10.4107 13.9339
L10.4107 13.6958
" />
<path d="M10.4107 13.6958
L10.4583 13.5053
" />
<path d="M10.4583 13.5053
L10.5060 13.4101
" />
<path d="M10.5060 13.4101
L10.5536 13.3624
" />
<path d="M10.5536 13.3624
L10.6488 13.3148
" />
<path d="M11.8869 13.3148
L11.4107 13.3148
" />
<path d="M11.4107 13.3148
L11.3631 13.7910
" />
<path d="M11.3631 13.7910
L11.4107 13.7434
" />
<path d="M11.4107 13.7434
L11.5060 13.6958
" />
<path d="M11.5060 13.6958
L11.7440 13.6958
" />
<path d="M11.7440 13.6958
L11.8393 13.7434
" />
<path d="M11.8393 13.7434
L11.8869 13.7910
" />
<path d="M11.8869 13.7910
L11.9345 13.8862
" />
<path d="M11.9345 13.8862
L11.9345 14.1243
" />
<path d="M11.9345 14.1243
L11.8869 14.2196
" />
<path d="M11.8869 14.2196
L11.8393 14.2672
" />
<path d="M11.8393 14.2672
L11.7440 14.3148
" />
<path d="M11.7440 14.3148
L11.5060 14.3148
" />
<path d="M11.5060 14.3148
L11.4107 14.2672
" />
<path d="M11.4107 14.2672
L11.3631 14.2196
" />
<path d="M12.1250 14.4101
L12.8869 14.4101
" />
<path d="M12.9821 13.3148
L13.5536 13.3148
" />
<path d="M13.2679 14.3148
L13.2679 13.3148
" />
<path d="M13.8869 14.3148
L13.8869 13.3148
" />
<path d="M13.8869 13.7910
L14.4583 13.7910
" />
<path d="M14.4583 14.3148
L14.4583 13.3148
" />
<path d="M14.7917 13.3148
L15.3631 13.3148
" />
<path d="M15.0774 14.3148
L15.0774 13.3148
" />
<path d="M15.4583 14.4101
L16.2202 14.4101
" />
<path d="M16.4583 14.3148
L16.4583 13.3148
" />
<path d="M16.4583 13.3148
L16.8393 13.3148
" />
<path d="M16.8393 13.3148
L16.9345 13.3624
" />
<path d="M16.9345 13.3624
L16.9821 13.4101
" />
<path d="M16.9821 13.4101
L17.0298 13.5053
" />
<path d="M17.0298 13.5053
L17.0298 13.6482
" />
<path d="M17.0298 13.6482
L16.9821 13.7434
" />
<path d="M16.9821 13.7434
L16.9345 13.7910
" />
<path d="M16.9345 13.7910
L16.8393 13.8386
" />
<path d="M16.8393 13.8386
L16.4583 13.8386
" />
<path d="M17.4107 13.4101
L17.4583 13.3624
" />
<path d="M17.4583 13.3624
L17.5536 13.3148
" />
<path d="M17.5536 13.3148
L17.7917 13.3148
" />
<path d="M17.7917 13.3148
L17.8869 13.3624
" />
<path d="M17.8869 13.3624
L17.9345 13.4101
" />
<path d="M17.9345 13.4101
L17.9821 13.5053
" />
<path d="M17.9821 13.5053
L17.9821 13.6005
" />
<path d="M17.9821 13.6005
L17.9345 13.7434
" />
<path d="M17.9345 13.7434
L17.3631 14.3148
" />
<path d="M17.3631 14.3148
L17.9821 14.3148
" />
<path d="M18.4107 14.2196
L18.4583 14.2672
" />
<path d="M18.4583 14.2672
L18.4107 14.3148
" />
<path d="M18.4107 14.3148
L18.3631 14.2672
" />
<path d="M18.3631 14.2672
L18.4107 14.2196
" />
<path d="M18.4107 14.2196
L18.4107 14.3148
" />
<path d="M19.3631 13.3148
L18.8869 13.3148
" />
<path d="M18.8869 13.3148
L18.8393 13.7910
" />
<path d="M18.8393 13.7910
L18.8869 13.7434
" />
<path d="M18.8869 13.7434
L18.9821 13.6958
" />
<path d="M18.9821 13.6958
L19.2202 13.6958
" />
<path d="M19.2202 13.6958
L19.3155 13.7434
" />
<path d="M19.3155 13.7434
L19.3631 13.7910
" />
<path d="M19.3631 13.7910
L19.4107 13.8862
" />
<path d="M19.4107 13.8862
L19.4107 14.1243
" />
<path d="M19.4107 14.1243
L19.3631 14.2196
" />
<path d="M19.3631 14.2196
L19.3155 14.2672
" />
<path d="M19.3155 14.2672
L19.2202 14.3148
" />
<path d="M19.2202 14.3148
L18.9821 14.3148
" />
<path d="M18.9821 14.3148
L18.8869 14.2672
" />
<path d="M18.8869 14.2672
L18.8393 14.2196
" />
<path d="M20.2679 13.6482
L20.2679 14.3148
" />
<path d="M20.0298 13.2672
L19.7917 13.9815
" />
<path d="M19.7917 13.9815
L20.4107 13.9815
" />
<path d="M20.7917 14.3148
L20.7917 13.6482
" />
<path d="M20.7917 13.7434
L20.8393 13.6958
" />
<path d="M20.8393 13.6958
L20.9345 13.6482
" />
<path d="M20.9345 13.6482
L21.0774 13.6482
" />
<path d="M21.0774 13.6482
L21.1726 13.6958
" />
<path d="M21.1726 13.6958
L21.2202 13.7910
" />
<path d="M21.2202 13.7910
L21.2202 14.3148
" />
<path d="M21.2202 13.7910
L21.2679 13.6958
" />
<path d="M21.2679 13.6958
L21.3631 13.6482
" />
<path d="M21.3631 13.6482
L21.5060 13.6482
" />
<path d="M21.5060 13.6482
L21.6012 13.6958
" />
<path d="M21.6012 13.6958
L21.6488 13.7910
" />
<path d="M21.6488 13.7910
L21.6488 14.3148
" />
<path d="M22.1250 14.3148
L22.1250 13.6482
" />
<path d="M22.1250 13.7434
L22.1726 13.6958
" />
<path d="M22.1726 13.6958
L22.2679 13.6482
" />
<path d="M22.2679 13.6482
L22.4107 13.6482
" />
<path d="M22.4107 13.6482
L22.5060 13.6958
" />
<path d="M22.5060 13.6958
L22.5536 13.7910
" />
<path d="M22.5536 13.7910
L22.5536 14.3148
" />
<path d="M22.5536 13.7910
L22.6012 13.6958
" />
<path d="M22.6012 13.6958
L22.6964 13.6482
" />
<path d="M22.6964 13.6482
L22.8393 13.6482
" />
<path d="M22.8393 13.6482
L22.9345 13.6958
" />
<path d="M22.9345 13.6958
L22.9821 13.7910
" />
<path d="M22.9821 13.7910
L22.9821 14.3148
" />
<path d="M23.2202 14.4101
L23.9821 14.4101
" />
<path d="M24.2202 13.6482
L24.2202 14.3148
" />
<path d="M24.2202 13.7434
L24.2679 13.6958
" />
<path d="M24.2679 13.6958
L24.3631 13.6482
" />
<path d="M24.3631 13.6482
L24.5060 13.6482
" />
<path d="M24.5060 13.6482
L24.6012 13.6958
" />
<path d="M24.6012 13.6958
L24.6488 13.7910
" />
<path d="M24.6488 13.7910
L24.6488 14.3148
" />
<path d="M25.0774 14.2672
L25.2202 14.3148
" />
<path d="M25.2202 14.3148
L25.4583 14.3148
" />
<path d="M25.4583 14.3148
L25.5536 14.2672
" />
<path d="M25.5536 14.2672
L25.6012 14.2196
" />
<path d="M25.6012 14.2196
L25.6488 14.1243
" />
<path d="M25.6488 14.1243
L25.6488 14.0291
" />
<path d="M25.6488 14.0291
L25.6012 13.9339
" />
<path d="M25.6012 13.9339
L25.5536 13.8862
" />
<path d="M25.5536 13.8862
L25.4583 13.8386
" />
<path d="M25.4583 13.8386
L25.2679 13.7910
" />
<path d="M25.2679 13.7910
L25.1726 13.7434
" />
<path d="M25.1726 13.7434
L25.1250 13.6958
" />
<path d="M25.1250 13.6958
L25.0774 13.6005
" />
<path d="M25.0774 13.6005
L25.0774 13.5053
" />
<path d="M25.0774 13.5053
L25.1250 13.4101
" />
<path d="M25.1250 13.4101
L25.1726 13.3624
" />
<path d="M25.1726 13.3624
L25.2679 13.3148
" />
<path d="M25.2679 13.3148
L25.5060 13.3148
" />
<path d="M25.5060 13.3148
L25.6488 13.3624
" />
<path d="M26.0774 14.3148
L26.0774 13.6482
" />
<path d="M26.0774 13.3148
L26.0298 13.3624
" />
<path d="M26.0298 13.3624
L26.0774 13.4101
" />
<path d="M26.0774 13.4101
L26.1250 13.3624
" />
<path d="M26.1250 13.3624
L26.0774 13.3148
" />
<path d="M26.0774 13.3148
L26.0774 13.4101
" />
<path d="M26.6964 14.3148
L26.6012 14.2672
" />
<path d="M26.6012 14.2672
L26.5536 14.1720
" />
<path d="M26.5536 14.1720
L26.5536 13.3148
" />
<path d="M27.0774 14.3148
L27.0774 13.3148
" />
<path d="M27.1726 13.9339
L27.4583 14.3148
" />
<path d="M27.4583 13.6482
L27.0774 14.0291
" />
</g><g transform="rotate(-90.000000 13.8869 6.4000)">
<text x="13.8869" y="6.9000"
textLength="4.5357" font-size="1.3333" lengthAdjust="spacingAndGlyphs"
text-anchor="middle" opacity="0" stroke-opacity="0">REF**</text>
</g>
<g class="stroked-text"><desc>REF**</desc>
<path d="M14.3417 7.7333
L13.8655 8.0667
" />
<path d="M14.3417 8.3048
L13.3417 8.3048
" />
<path d="M13.3417 8.3048
L13.3417 7.9238
" />
<path d="M13.3417 7.9238
L13.3893 7.8286
" />
<path d="M13.3893 7.8286
L13.4370 7.7810
" />
<path d="M13.4370 7.7810
L13.5322 7.7333
" />
<path d="M13.5322 7.7333
L13.6751 7.7333
" />
<path d="M13.6751 7.7333
L13.7703 7.7810
" />
<path d="M13.7703 7.7810
L13.8179 7.8286
" />
<path d="M13.8179 7.8286
L13.8655 7.9238
" />
<path d="M13.8655 7.9238
L13.8655 8.3048
" />
<path d="M13.8179 7.3048
L13.8179 6.9714
" />
<path d="M14.3417 6.8286
L14.3417 7.3048
" />
<path d="M14.3417 7.3048
L13.3417 7.3048
" />
<path d="M13.3417 7.3048
L13.3417 6.8286
" />
<path d="M13.8179 6.0667
L13.8179 6.4000
" />
<path d="M14.3417 6.4000
L13.3417 6.4000
" />
<path d="M13.3417 6.4000
L13.3417 5.9238
" />
<path d="M13.3417 5.4000
L13.5798 5.4000
" />
<path d="M13.4846 5.6381
L13.5798 5.4000
" />
<path d="M13.5798 5.4000
L13.4846 5.1619
" />
<path d="M13.7703 5.5429
L13.5798 5.4000
" />
<path d="M13.5798 5.4000
L13.7703 5.2571
" />
<path d="M13.3417 4.6381
L13.5798 4.6381
" />
<path d="M13.4846 4.8762
L13.5798 4.6381
" />
<path d="M13.5798 4.6381
L13.4846 4.4000
" />
<path d="M13.7703 4.7810
L13.5798 4.6381
" />
<path d="M13.5798 4.6381
L13.7703 4.4952
" />
</g></g>
<g style="fill:none; 
stroke:#AFAFAF; stroke-width:0.1000; stroke-opacity:1; 
stroke-linecap:round; stroke-linejoin:round;">
<path d="M12.6169 0.6850
L13.2519 0.0500
" />
<path d="M12.6169 12.7500
L12.6169 0.6850
" />
<path d="M13.2519 0.0500
L15.1569 0.0500
" />
<path d="M15.1569 0.0500
L15.1569 12.7500
" />
<path d="M15.1569 12.7500
L12.6169 12.7500
" />
</g>
<g style="fill:none; 
stroke:#AFAFAF; stroke-width:0.0472; stroke-opacity:1; 
stroke-linecap:round; stroke-linejoin:round;">
<text x="13.8869" y="1.6033"
textLength="0.5680" font-size="0.7556" lengthAdjust="spacingAndGlyphs"
text-anchor="middle" opacity="0" stroke-opacity="0">1</text>
<g class="stroked-text"><desc>1</desc>
<path d="M14.0488 1.5797
L13.7250 1.5797
" />
<path d="M13.8869 1.5797
L13.8869 1.0130
" />
<path d="M13.8869 1.0130
L13.8329 1.0940
" />
<path d="M13.8329 1.0940
L13.7790 1.1480
" />
<path d="M13.7790 1.1480
L13.7250 1.1749
" />
</g><path style="fill:none; 
stroke:#AFAFAF; stroke-width:0.0212; stroke-opacity:1; 
stroke-linecap:round; stroke-linejoin:round;fill:none"
d="M 13.0369,0.7250
13.0563,0.6274
13.1116,0.5447
13.1943,0.4894
13.2919,0.4700
14.4819,0.4700
14.5795,0.4894
14.6622,0.5447
14.7175,0.6274
14.7369,0.7250
14.7369,1.9150
14.7175,2.0126
14.6622,2.0953
14.5795,2.1506
14.4819,2.1700
13.2919,2.1700
13.1943,2.1506
13.1116,2.0953
13.0563,2.0126
13.0369,1.9150
Z" /> 
</g>
<g style="fill:none; 
stroke:#AFAFAF; stroke-width:0.0472; stroke-opacity:1; 
stroke-linecap:round; stroke-linejoin:round;">
<text x="13.8869" y="4.1433"
textLength="0.5680" font-size="0.7556" lengthAdjust="spacingAndGlyphs"
text-anchor="middle" opacity="0" stroke-opacity="0">2</text>
<g class="stroked-text"><desc>2</desc>
<path d="M13.7250 3.6070
L13.7520 3.5800
" />
<path d="M13.7520 3.5800
L13.8060 3.5530
" />
<path d="M13.8060 3.5530
L13.9409 3.5530
" />
<path d="M13.9409 3.5530
L13.9948 3.5800
" />
<path d="M13.9948 3.5800
L14.0218 3.6070
" />
<path d="M14.0218 3.6070
L14.0488 3.6610
" />
<path d="M14.0488 3.6610
L14.0488 3.7149
" />
<path d="M14.0488 3.7149
L14.0218 3.7959
" />
<path d="M14.0218 3.7959
L13.6980 4.1197
" />
<path d="M13.6980 4.1197
L14.0488 4.1197
" />
</g></g>
<g style="fill:none; 
stroke:#AFAFAF; stroke-width:0.0212; stroke-opacity:1; 
stroke-linecap:round; stroke-linejoin:round;">
<circle cx="13.8869" cy="3.8600" r="0.8500" /> 
</g>
<g style="fill:none; 
stroke:#AFAFAF; stroke-width:0.0472; stroke-opacity:1; 
stroke-linecap:round; stroke-linejoin:round;">
<text x="13.8869" y="6.6833"
textLength="0.5680" font-size="0.7556" lengthAdjust="spacingAndGlyphs"
text-anchor="middle" opacity="0" stroke-opacity="0">3</text>
<g class="stroked-text"><desc>3</desc>
<path d="M13.6980 6.0930
L14.0488 6.0930
" />
<path d="M14.0488 6.0930
L13.8599 6.3089
" />
<path d="M13.8599 6.3089
L13.9409 6.3089
" />
<path d="M13.9409 6.3089
L13.9948 6.3359
" />
<path d="M13.9948 6.3359
L14.0218 6.3629
" />
<path d="M14.0218 6.3629
L14.0488 6.4168
" />
<path d="M14.0488 6.4168
L14.0488 6.5518
" />
<path d="M14.0488 6.5518
L14.0218 6.6057
" />
<path d="M14.0218 6.6057
L13.9948 6.6327
" />
<path d="M13.9948 6.6327
L13.9409 6.6597
" />
<path d="M13.9409 6.6597
L13.7790 6.6597
" />
<path d="M13.7790 6.6597
L13.7250 6.6327
" />
<path d="M13.7250 6.6327
L13.6980 6.6057
" />
</g></g>
<g style="fill:none; 
stroke:#AFAFAF; stroke-width:0.0212; stroke-opacity:1; 
stroke-linecap:round; stroke-linejoin:round;">
<circle cx="13.8869" cy="6.4000" r="0.8500" /> 
</g>
<g style="fill:none; 
stroke:#AFAFAF; stroke-width:0.0472; stroke-opacity:1; 
stroke-linecap:round; stroke-linejoin:round;">
<text x="13.8869" y="9.2233"
textLength="0.5680" font-size="0.7556" lengthAdjust="spacingAndGlyphs"
text-anchor="middle" opacity="0" stroke-opacity="0">4</text>
<g class="stroked-text"><desc>4</desc>
<path d="M13.9948 8.8219
L13.9948 9.1997
" />
<path d="M13.8599 8.6060
L13.7250 9.0108
" />
<path d="M13.7250 9.0108
L14.0758 9.0108
" />
</g></g>
<g style="fill:none; 
stroke:#AFAFAF; stroke-width:0.0212; stroke-opacity:1; 
stroke-linecap:round; stroke-linejoin:round;">
<circle cx="13.8869" cy="8.9400" r="0.8500" /> 
</g>
<g style="fill:none; 
stroke:#AFAFAF; stroke-width:0.0472; stroke-opacity:1; 
stroke-linecap:round; stroke-linejoin:round;">
<text x="13.8869" y="11.7633"
textLength="0.5680" font-size="0.7556" lengthAdjust="spacingAndGlyphs"
text-anchor="middle" opacity="0" stroke-opacity="0">5</text>
<g class="stroked-text"><desc>5</desc>
<path d="M14.0218 11.1730
L13.7520 11.1730
" />
<path d="M13.7520 11.1730
L13.7250 11.4429
" />
<path d="M13.7250 11.4429
L13.7520 11.4159
" />
<path d="M13.7520 11.4159
L13.8060 11.3889
" />
<path d="M13.8060 11.3889
L13.9409 11.3889
" />
<path d="M13.9409 11.3889
L13.9948 11.4159
" />
<path d="M13.9948 11.4159
L14.0218 11.4429
" />
<path d="M14.0218 11.4429
L14.0488 11.4968
" />
<path d="M14.0488 11.4968
L14.0488 11.6318
" />
<path d="M14.0488 11.6318
L14.0218 11.6857
" />
<path d="M14.0218 11.6857
L13.9948 11.7127
" />
<path d="M13.9948 11.7127
L13.9409 11.7397
" />
<path d="M13.9409 11.7397
L13.8060 11.7397
" />
<path d="M13.8060 11.7397
L13.7520 11.7127
" />
<path d="M13.7520 11.7127
L13.7250 11.6857
" />
</g></g>
<g style="fill:none; 
stroke:#AFAFAF; stroke-width:0.0212; stroke-opacity:1; 
stroke-linecap:round; stroke-linejoin:round;">
<circle cx="13.8869" cy="11.4800" r="0.8500" /> 
</g> 
</svg>
