<svg xmlns="http://www.w3.org/2000/svg" width="104.928" height="26.784" viewBox="0 0 27.762 7.087">
    <g style="fill:#000;fill-opacity:1;stroke:#000;stroke-opacity:1;stroke-linecap:round;stroke-linejoin:round">
        <path stroke="none" d="m13.037.725.02-.098.055-.082.082-.056.098-.019h1.19l.098.02.082.055.055.082.02.098v1.19l-.02.098-.055.082-.083.056-.097.019h-1.19l-.098-.02-.082-.055-.056-.082-.02-.098Z" style="fill:#4d7fc4;fill-opacity:1;stroke:none;fill-rule:evenodd"/>
    </g>
    <g style="fill:#4d7fc4;fill-opacity:1;stroke:none">
        <circle cx="13.887" cy="3.86" r=".85"/>
        <path d="m13.037.725.02-.098.055-.082.082-.056.098-.019h1.19l.098.02.082.055.055.082.02.098v1.19l-.02.098-.055.082-.083.056-.097.019h-1.19l-.098-.02-.082-.055-.056-.082-.02-.098Z" style="fill:#c83434;fill-opacity:1;stroke:none;fill-rule:evenodd"/>
    </g>
    <circle cx="13.887" cy="3.86" r=".85" style="fill:#c83434;fill-opacity:1;stroke:none"/>
    <g style="fill:none;stroke:#585d84;stroke-width:.0472;stroke-opacity:1;stroke-linecap:round;stroke-linejoin:round">
        <g class="stroked-text">
            <path d="M14.049 1.58h-.324M13.887 1.58v-.567M13.887 1.013l-.054.081M13.833 1.094l-.054.054M13.779 1.148l-.054.027"/>
        </g>
        <path d="m13.037.725.02-.098.055-.082.082-.056.098-.019h1.19l.098.02.082.055.055.082.02.098v1.19l-.02.098-.055.082-.083.056-.097.019h-1.19l-.098-.02-.082-.055-.056-.082-.02-.098Z" style="stroke:#585d84;stroke-width:.0212;stroke-opacity:1;stroke-linecap:round;stroke-linejoin:round;fill:none"/>
    </g>
    <g class="stroked-text" style="fill:none;stroke:#585d84;stroke-width:.0472;stroke-opacity:1;stroke-linecap:round;stroke-linejoin:round">
        <path d="m13.725 3.607.027-.027M13.752 3.58l.054-.027M13.806 3.553h.135M13.94 3.553l.055.027M13.995 3.58l.027.027M14.022 3.607l.027.054M14.049 3.661v.054M14.049 3.715l-.027.08M14.022 3.796l-.324.324M13.698 4.12h.35"/>
    </g>
    <circle cx="13.887" cy="3.86" r=".85" style="fill:none;stroke:#585d84;stroke-width:.0212;stroke-opacity:1;stroke-linecap:round;stroke-linejoin:round"/>
    <g style="fill:none;stroke:#afafaf;stroke-width:.15;stroke-opacity:1;stroke-linecap:round;stroke-linejoin:round">
        <g class="stroked-text">
            <path d="M.363 6.695v-1M.363 5.695h.381M.744 5.695l.095.047M.84 5.742l.047.048M.887 5.79l.047.095M.935 5.885v.143M.935 6.028l-.048.095M.887 6.123l-.048.048M.84 6.171l-.096.048M.744 6.219h-.38M1.363 6.695v-.667M1.363 5.695l-.048.047M1.316 5.742l.047.048M1.363 5.79l.048-.048M1.41 5.742l-.047-.047M1.363 5.695v.095M1.84 6.028v.667M1.84 6.123l.047-.047M1.887 6.076l.095-.048M1.982 6.028h.143M2.125 6.028l.095.048M2.22 6.076l.048.095M2.268 6.171v.524M2.744 6.695v-1M2.744 6.171h.571M3.316 6.695v-1M4.173 6.647l-.096.048M4.077 6.695h-.19M3.887 6.695l-.095-.048M3.792 6.647l-.048-.095M3.744 6.552v-.381M3.744 6.171l.048-.095M3.792 6.076l.095-.048M3.887 6.028h.19M4.077 6.028l.096.048M4.173 6.076l.047.095M4.22 6.171v.095M4.22 6.266l-.476.096M5.077 6.695V6.17M5.077 6.171l-.047-.095M5.03 6.076l-.096-.048M4.935 6.028h-.191M4.744 6.028l-.095.048M5.077 6.647l-.095.048M4.982 6.695h-.238M4.744 6.695l-.095-.048M4.649 6.647 4.6 6.552M4.601 6.552v-.095M4.601 6.457l.048-.095M4.649 6.362l.095-.048M4.744 6.314h.238M4.982 6.314l.095-.048M5.982 6.695v-1M5.982 6.647l-.095.048M5.887 6.695h-.19M5.696 6.695l-.095-.048M5.601 6.647 5.554 6.6M5.554 6.6l-.048-.096M5.506 6.504V6.22M5.506 6.219l.048-.096M5.554 6.123l.047-.047M5.601 6.076l.095-.048M5.696 6.028h.19M5.887 6.028l.095.048M6.84 6.647l-.096.048M6.744 6.695h-.19M6.554 6.695l-.096-.048M6.458 6.647l-.047-.095M6.41 6.552v-.381M6.41 6.171l.048-.095M6.458 6.076l.096-.048M6.554 6.028h.19M6.744 6.028l.095.048M6.84 6.076l.047.095M6.887 6.171v.095M6.887 6.266l-.476.096M7.316 6.695v-.667M7.316 6.219l.047-.096M7.363 6.123l.048-.047M7.41 6.076l.096-.048M7.506 6.028h.095M7.696 6.79h.762M9.22 6.695H8.65M8.935 6.695v-1M8.935 5.695l-.096.143M8.84 5.838l-.096.095M8.744 5.933l-.095.048M9.554 6.695l.523-.667M9.554 6.028l.523.667M10.649 5.695h.095M10.744 5.695l.095.047M10.84 5.742l.047.048M10.887 5.79l.047.095M10.935 5.885l.047.19M10.982 6.076v.238M10.982 6.314l-.047.19M10.935 6.504l-.048.096M10.887 6.6l-.048.047M10.84 6.647l-.096.048M10.744 6.695h-.095M10.649 6.695l-.095-.048M10.554 6.647l-.048-.047M10.506 6.6l-.048-.096M10.458 6.504l-.047-.19M10.41 6.314v-.238M10.41 6.076l.048-.19M10.458 5.885l.048-.095M10.506 5.79l.048-.048M10.554 5.742l.095-.047M11.363 5.79l.048-.048M11.41 5.742l.096-.047M11.506 5.695h.238M11.744 5.695l.095.047M11.84 5.742l.047.048M11.887 5.79l.047.095M11.935 5.885v.096M11.935 5.98l-.048.143M11.887 6.123l-.572.572M11.316 6.695h.618M12.125 6.79h.762M12.982 5.695h.572M13.268 6.695v-1M13.887 6.695v-1M13.887 6.171h.571M14.458 6.695v-1M14.792 5.695h.571M15.077 6.695v-1M15.458 6.79h.762M16.458 6.695v-1M16.458 5.695h.381M16.84 5.695l.095.047M16.935 5.742l.047.048M16.982 5.79l.048.095M17.03 5.885v.143M17.03 6.028l-.048.095M16.982 6.123l-.047.048M16.935 6.171l-.096.048M16.84 6.219h-.382M17.41 5.79l.048-.048M17.458 5.742l.096-.047M17.554 5.695h.238M17.792 5.695l.095.047M17.887 5.742l.047.048M17.935 5.79l.047.095M17.982 5.885v.096M17.982 5.98l-.047.143M17.935 6.123l-.572.572M17.363 6.695h.62M18.41 6.6l.048.047M18.458 6.647l-.047.048M18.41 6.695l-.047-.048M18.363 6.647l.048-.047M18.41 6.6v.095M19.363 5.695h-.476M18.887 5.695l-.048.476M18.84 6.171l.047-.048M18.887 6.123l.095-.047M18.982 6.076h.238M19.22 6.076l.096.047M19.316 6.123l.047.048M19.363 6.171l.048.095M19.41 6.266v.238M19.41 6.504l-.047.096M19.363 6.6l-.047.047M19.316 6.647l-.096.048M19.22 6.695h-.238M18.982 6.695l-.095-.048M18.887 6.647l-.048-.047M20.268 6.028v.667M20.03 5.647l-.238.715M19.792 6.362h.619M20.792 6.695v-.667M20.792 6.123l.047-.047M20.84 6.076l.095-.048M20.935 6.028h.142M21.077 6.028l.096.048M21.173 6.076l.047.095M21.22 6.171v.524M21.22 6.171l.048-.095M21.268 6.076l.095-.048M21.363 6.028h.143M21.506 6.028l.095.048M21.601 6.076l.048.095M21.649 6.171v.524M22.125 6.695v-.667M22.125 6.123l.048-.047M22.173 6.076l.095-.048M22.268 6.028h.143M22.41 6.028l.096.048M22.506 6.076l.048.095M22.554 6.171v.524M22.554 6.171l.047-.095M22.601 6.076l.095-.048M22.696 6.028h.143M22.84 6.028l.095.048M22.935 6.076l.047.095M22.982 6.171v.524M23.22 6.79h.762M24.22 6.028v.667M24.22 6.123l.048-.047M24.268 6.076l.095-.048M24.363 6.028h.143M24.506 6.028l.095.048M24.601 6.076l.048.095M24.649 6.171v.524M25.077 6.647l.143.048M25.22 6.695h.238M25.458 6.695l.096-.048M25.554 6.647 25.6 6.6M25.601 6.6l.048-.096M25.649 6.504V6.41M25.649 6.41l-.048-.096M25.601 6.314l-.047-.048M25.554 6.266l-.096-.047M25.458 6.219l-.19-.048M25.268 6.171l-.095-.048M25.173 6.123l-.048-.047M25.125 6.076l-.048-.095M25.077 5.98v-.095M25.077 5.885l.048-.095M25.125 5.79l.048-.048M25.173 5.742l.095-.047M25.268 5.695h.238M25.506 5.695l.143.047M26.077 6.695v-.667M26.077 5.695l-.047.047M26.03 5.742l.047.048M26.077 5.79l.048-.048M26.125 5.742l-.048-.047M26.077 5.695v.095M26.696 6.695l-.095-.048M26.601 6.647l-.047-.095M26.554 6.552v-.857M27.077 6.695v-1M27.173 6.314l.285.38M27.458 6.028l-.38.381"/>
        </g>
        <g class="stroked-text">
            <path d="m14.342 3.923-.476.334M14.342 4.495h-1M13.342 4.495v-.381M13.342 4.114l.047-.095M13.39 4.019l.047-.048M13.437 3.971l.095-.048M13.532 3.923h.143M13.675 3.923l.095.048M13.77 3.971l.048.048M13.818 4.019l.048.095M13.866 4.114v.38M13.818 3.495V3.16M14.342 3.019v.476M14.342 3.495h-1M13.342 3.495v-.476M13.818 2.257v.333M14.342 2.59h-1M13.342 2.59v-.476M13.342 1.59h.238M13.485 1.828l.095-.238M13.58 1.59l-.095-.238M13.77 1.733l-.19-.143M13.58 1.59l.19-.143M13.342.828h.238M13.485 1.066l.095-.238M13.58.828 13.485.59M13.77.971l-.19-.143M13.58.828l.19-.143"/>
        </g>
    </g>
    <g style="fill:none;stroke:#afafaf;stroke-width:.1;stroke-opacity:1;stroke-linecap:round;stroke-linejoin:round">
        <path d="m12.617.685.635-.635M12.617 5.13V.685M13.252.05h1.905M15.157.05v5.08M15.157 5.13h-2.54"/>
    </g>
    <g style="fill:none;stroke:#afafaf;stroke-width:.0472;stroke-opacity:1;stroke-linecap:round;stroke-linejoin:round">
        <g class="stroked-text">
            <path d="M14.049 1.58h-.324M13.887 1.58v-.567M13.887 1.013l-.054.081M13.833 1.094l-.054.054M13.779 1.148l-.054.027"/>
        </g>
        <path d="m13.037.725.02-.098.055-.082.082-.056.098-.019h1.19l.098.02.082.055.055.082.02.098v1.19l-.02.098-.055.082-.083.056-.097.019h-1.19l-.098-.02-.082-.055-.056-.082-.02-.098Z" style="stroke:#afafaf;stroke-width:.0212;stroke-opacity:1;stroke-linecap:round;stroke-linejoin:round;fill:none"/>
    </g>
    <g class="stroked-text" style="fill:none;stroke:#afafaf;stroke-width:.0472;stroke-opacity:1;stroke-linecap:round;stroke-linejoin:round">
        <path d="m13.725 3.607.027-.027M13.752 3.58l.054-.027M13.806 3.553h.135M13.94 3.553l.055.027M13.995 3.58l.027.027M14.022 3.607l.027.054M14.049 3.661v.054M14.049 3.715l-.027.08M14.022 3.796l-.324.324M13.698 4.12h.35"/>
    </g>
    <circle cx="13.887" cy="3.86" r=".85" style="fill:none;stroke:#afafaf;stroke-width:.0212;stroke-opacity:1;stroke-linecap:round;stroke-linejoin:round"/>
</svg>
