<svg xmlns="http://www.w3.org/2000/svg" width="104.928" height="74.784" viewBox="0 0 27.762 19.787">
    <g style="fill:#000;fill-opacity:1;stroke:#000;stroke-opacity:1;stroke-linecap:round;stroke-linejoin:round">
        <path stroke="none" d="m13.037.725.02-.098.055-.082.082-.056.098-.019h1.19l.098.02.082.055.055.082.02.098v1.19l-.02.098-.055.082-.083.056-.097.019h-1.19l-.098-.02-.082-.055-.056-.082-.02-.098Z" style="fill:#4d7fc4;fill-opacity:1;stroke:none;fill-rule:evenodd"/>
    </g>
    <circle cx="13.887" cy="3.86" r=".85" style="fill:#4d7fc4;fill-opacity:1;stroke:none"/>
    <circle cx="13.887" cy="6.4" r=".85" style="fill:#4d7fc4;fill-opacity:1;stroke:none"/>
    <circle cx="13.887" cy="8.94" r=".85" style="fill:#4d7fc4;fill-opacity:1;stroke:none"/>
    <circle cx="13.887" cy="11.48" r=".85" style="fill:#4d7fc4;fill-opacity:1;stroke:none"/>
    <circle cx="13.887" cy="14.02" r=".85" style="fill:#4d7fc4;fill-opacity:1;stroke:none"/>
    <g style="fill:#4d7fc4;fill-opacity:1;stroke:none">
        <circle cx="13.887" cy="16.56" r=".85"/>
        <path d="m13.037.725.02-.098.055-.082.082-.056.098-.019h1.19l.098.02.082.055.055.082.02.098v1.19l-.02.098-.055.082-.083.056-.097.019h-1.19l-.098-.02-.082-.055-.056-.082-.02-.098Z" style="fill:#c83434;fill-opacity:1;stroke:none;fill-rule:evenodd"/>
    </g>
    <circle cx="13.887" cy="3.86" r=".85" style="fill:#c83434;fill-opacity:1;stroke:none"/>
    <circle cx="13.887" cy="6.4" r=".85" style="fill:#c83434;fill-opacity:1;stroke:none"/>
    <circle cx="13.887" cy="8.94" r=".85" style="fill:#c83434;fill-opacity:1;stroke:none"/>
    <circle cx="13.887" cy="11.48" r=".85" style="fill:#c83434;fill-opacity:1;stroke:none"/>
    <circle cx="13.887" cy="14.02" r=".85" style="fill:#c83434;fill-opacity:1;stroke:none"/>
    <circle cx="13.887" cy="16.56" r=".85" style="fill:#c83434;fill-opacity:1;stroke:none"/>
    <g style="fill:none;stroke:#585d84;stroke-width:.0472;stroke-opacity:1;stroke-linecap:round;stroke-linejoin:round">
        <g class="stroked-text">
            <path d="M14.049 1.58h-.324M13.887 1.58v-.567M13.887 1.013l-.054.081M13.833 1.094l-.054.054M13.779 1.148l-.054.027"/>
        </g>
        <path d="m13.037.725.02-.098.055-.082.082-.056.098-.019h1.19l.098.02.082.055.055.082.02.098v1.19l-.02.098-.055.082-.083.056-.097.019h-1.19l-.098-.02-.082-.055-.056-.082-.02-.098Z" style="stroke:#585d84;stroke-width:.0212;stroke-opacity:1;stroke-linecap:round;stroke-linejoin:round;fill:none"/>
    </g>
    <g class="stroked-text" style="fill:none;stroke:#585d84;stroke-width:.0472;stroke-opacity:1;stroke-linecap:round;stroke-linejoin:round">
        <path d="m13.725 3.607.027-.027M13.752 3.58l.054-.027M13.806 3.553h.135M13.94 3.553l.055.027M13.995 3.58l.027.027M14.022 3.607l.027.054M14.049 3.661v.054M14.049 3.715l-.027.08M14.022 3.796l-.324.324M13.698 4.12h.35"/>
    </g>
    <circle cx="13.887" cy="3.86" r=".85" style="fill:none;stroke:#585d84;stroke-width:.0212;stroke-opacity:1;stroke-linecap:round;stroke-linejoin:round"/>
    <g class="stroked-text" style="fill:none;stroke:#585d84;stroke-width:.0472;stroke-opacity:1;stroke-linecap:round;stroke-linejoin:round">
        <path d="M13.698 6.093h.35M14.049 6.093l-.19.216M13.86 6.309h.08M13.94 6.309l.055.027M13.995 6.336l.027.027M14.022 6.363l.027.054M14.049 6.417v.135M14.049 6.552l-.027.054M14.022 6.606l-.027.027M13.995 6.633l-.054.027M13.94 6.66h-.161M13.779 6.66l-.054-.027M13.725 6.633l-.027-.027"/>
    </g>
    <circle cx="13.887" cy="6.4" r=".85" style="fill:none;stroke:#585d84;stroke-width:.0212;stroke-opacity:1;stroke-linecap:round;stroke-linejoin:round"/>
    <g class="stroked-text" style="fill:none;stroke:#585d84;stroke-width:.0472;stroke-opacity:1;stroke-linecap:round;stroke-linejoin:round">
        <path d="M13.995 8.822V9.2M13.86 8.606l-.135.405M13.725 9.01h.35"/>
    </g>
    <circle cx="13.887" cy="8.94" r=".85" style="fill:none;stroke:#585d84;stroke-width:.0212;stroke-opacity:1;stroke-linecap:round;stroke-linejoin:round"/>
    <g class="stroked-text" style="fill:none;stroke:#585d84;stroke-width:.0472;stroke-opacity:1;stroke-linecap:round;stroke-linejoin:round">
        <path d="M14.022 11.173h-.27M13.752 11.173l-.027.27M13.725 11.443l.027-.027M13.752 11.416l.054-.027M13.806 11.389h.135M13.94 11.389l.055.027M13.995 11.416l.027.027M14.022 11.443l.027.054M14.049 11.497v.135M14.049 11.632l-.027.054M14.022 11.686l-.027.027M13.995 11.713l-.054.027M13.94 11.74h-.134M13.806 11.74l-.054-.027M13.752 11.713l-.027-.027"/>
    </g>
    <circle cx="13.887" cy="11.48" r=".85" style="fill:none;stroke:#585d84;stroke-width:.0212;stroke-opacity:1;stroke-linecap:round;stroke-linejoin:round"/>
    <g class="stroked-text" style="fill:none;stroke:#585d84;stroke-width:.0472;stroke-opacity:1;stroke-linecap:round;stroke-linejoin:round">
        <path d="M13.995 13.713h-.108M13.887 13.713l-.054.027M13.833 13.74l-.027.027M13.806 13.767l-.054.08M13.752 13.848l-.027.108M13.725 13.956v.216M13.725 14.172l.027.054M13.752 14.226l.027.027M13.779 14.253l.054.027M13.833 14.28h.108M13.94 14.28l.055-.027M13.995 14.253l.027-.027M14.022 14.226l.027-.054M14.049 14.172v-.135M14.049 14.037l-.027-.054M14.022 13.983l-.027-.027M13.995 13.956l-.054-.027M13.94 13.929h-.107M13.833 13.929l-.054.027M13.779 13.956l-.027.027M13.752 13.983l-.027.054"/>
    </g>
    <circle cx="13.887" cy="14.02" r=".85" style="fill:none;stroke:#585d84;stroke-width:.0212;stroke-opacity:1;stroke-linecap:round;stroke-linejoin:round"/>
    <g class="stroked-text" style="fill:none;stroke:#585d84;stroke-width:.0472;stroke-opacity:1;stroke-linecap:round;stroke-linejoin:round">
        <path d="M13.698 16.253h.378M14.076 16.253l-.243.567"/>
    </g>
    <circle cx="13.887" cy="16.56" r=".85" style="fill:none;stroke:#585d84;stroke-width:.0212;stroke-opacity:1;stroke-linecap:round;stroke-linejoin:round"/>
    <g style="fill:none;stroke:#afafaf;stroke-width:.15;stroke-opacity:1;stroke-linecap:round;stroke-linejoin:round">
        <g class="stroked-text">
            <path d="M.363 19.395v-1M.363 18.395h.381M.744 18.395l.095.047M.84 18.442l.047.048M.887 18.49l.047.095M.935 18.585v.143M.935 18.728l-.048.095M.887 18.823l-.048.048M.84 18.871l-.096.048M.744 18.919h-.38M1.363 19.395v-.667M1.363 18.395l-.048.047M1.316 18.442l.047.048M1.363 18.49l.048-.048M1.41 18.442l-.047-.047M1.363 18.395v.095M1.84 18.728v.667M1.84 18.823l.047-.047M1.887 18.776l.095-.048M1.982 18.728h.143M2.125 18.728l.095.048M2.22 18.776l.048.095M2.268 18.871v.524M2.744 19.395v-1M2.744 18.871h.571M3.316 19.395v-1M4.173 19.347l-.096.048M4.077 19.395h-.19M3.887 19.395l-.095-.048M3.792 19.347l-.048-.095M3.744 19.252v-.381M3.744 18.871l.048-.095M3.792 18.776l.095-.048M3.887 18.728h.19M4.077 18.728l.096.048M4.173 18.776l.047.095M4.22 18.871v.095M4.22 18.966l-.476.095M5.077 19.395v-.524M5.077 18.871l-.047-.095M5.03 18.776l-.096-.048M4.935 18.728h-.191M4.744 18.728l-.095.048M5.077 19.347l-.095.048M4.982 19.395h-.238M4.744 19.395l-.095-.048M4.649 19.347l-.048-.095M4.601 19.252v-.095M4.601 19.157l.048-.096M4.649 19.062l.095-.048M4.744 19.014h.238M4.982 19.014l.095-.048M5.982 19.395v-1M5.982 19.347l-.095.048M5.887 19.395h-.19M5.696 19.395l-.095-.048M5.601 19.347l-.047-.047M5.554 19.3l-.048-.096M5.506 19.204v-.285M5.506 18.919l.048-.096M5.554 18.823l.047-.047M5.601 18.776l.095-.048M5.696 18.728h.19M5.887 18.728l.095.048M6.84 19.347l-.096.048M6.744 19.395h-.19M6.554 19.395l-.096-.048M6.458 19.347l-.047-.095M6.41 19.252v-.381M6.41 18.871l.048-.095M6.458 18.776l.096-.048M6.554 18.728h.19M6.744 18.728l.095.048M6.84 18.776l.047.095M6.887 18.871v.095M6.887 18.966l-.476.095M7.316 19.395v-.667M7.316 18.919l.047-.096M7.363 18.823l.048-.047M7.41 18.776l.096-.048M7.506 18.728h.095M7.696 19.49h.762M9.22 19.395H8.65M8.935 19.395v-1M8.935 18.395l-.096.143M8.84 18.538l-.096.095M8.744 18.633l-.095.047M9.554 19.395l.523-.667M9.554 18.728l.523.667M10.649 18.395h.095M10.744 18.395l.095.047M10.84 18.442l.047.048M10.887 18.49l.047.095M10.935 18.585l.047.19M10.982 18.776v.238M10.982 19.014l-.047.19M10.935 19.204l-.048.096M10.887 19.3l-.048.047M10.84 19.347l-.096.048M10.744 19.395h-.095M10.649 19.395l-.095-.048M10.554 19.347l-.048-.047M10.506 19.3l-.048-.096M10.458 19.204l-.047-.19M10.41 19.014v-.238M10.41 18.776l.048-.19M10.458 18.585l.048-.095M10.506 18.49l.048-.048M10.554 18.442l.095-.047M11.316 18.395h.666M11.982 18.395l-.428 1M12.125 19.49h.762M12.982 18.395h.572M13.268 19.395v-1M13.887 19.395v-1M13.887 18.871h.571M14.458 19.395v-1M14.792 18.395h.571M15.077 19.395v-1M15.458 19.49h.762M16.458 19.395v-1M16.458 18.395h.381M16.84 18.395l.095.047M16.935 18.442l.047.048M16.982 18.49l.048.095M17.03 18.585v.143M17.03 18.728l-.048.095M16.982 18.823l-.047.048M16.935 18.871l-.096.048M16.84 18.919h-.382M17.41 18.49l.048-.048M17.458 18.442l.096-.047M17.554 18.395h.238M17.792 18.395l.095.047M17.887 18.442l.047.048M17.935 18.49l.047.095M17.982 18.585v.095M17.982 18.68l-.047.143M17.935 18.823l-.572.572M17.363 19.395h.62M18.41 19.3l.048.047M18.458 19.347l-.047.048M18.41 19.395l-.047-.048M18.363 19.347l.048-.047M18.41 19.3v.095M19.363 18.395h-.476M18.887 18.395l-.048.476M18.84 18.871l.047-.048M18.887 18.823l.095-.047M18.982 18.776h.238M19.22 18.776l.096.047M19.316 18.823l.047.048M19.363 18.871l.048.095M19.41 18.966v.238M19.41 19.204l-.047.096M19.363 19.3l-.047.047M19.316 19.347l-.096.048M19.22 19.395h-.238M18.982 19.395l-.095-.048M18.887 19.347l-.048-.047M20.268 18.728v.667M20.03 18.347l-.238.714M19.792 19.062h.619M20.792 19.395v-.667M20.792 18.823l.047-.047M20.84 18.776l.095-.048M20.935 18.728h.142M21.077 18.728l.096.048M21.173 18.776l.047.095M21.22 18.871v.524M21.22 18.871l.048-.095M21.268 18.776l.095-.048M21.363 18.728h.143M21.506 18.728l.095.048M21.601 18.776l.048.095M21.649 18.871v.524M22.125 19.395v-.667M22.125 18.823l.048-.047M22.173 18.776l.095-.048M22.268 18.728h.143M22.41 18.728l.096.048M22.506 18.776l.048.095M22.554 18.871v.524M22.554 18.871l.047-.095M22.601 18.776l.095-.048M22.696 18.728h.143M22.84 18.728l.095.048M22.935 18.776l.047.095M22.982 18.871v.524M23.22 19.49h.762M24.22 18.728v.667M24.22 18.823l.048-.047M24.268 18.776l.095-.048M24.363 18.728h.143M24.506 18.728l.095.048M24.601 18.776l.048.095M24.649 18.871v.524M25.077 19.347l.143.048M25.22 19.395h.238M25.458 19.395l.096-.048M25.554 19.347l.047-.047M25.601 19.3l.048-.096M25.649 19.204v-.095M25.649 19.11l-.048-.096M25.601 19.014l-.047-.048M25.554 18.966l-.096-.047M25.458 18.919l-.19-.048M25.268 18.871l-.095-.048M25.173 18.823l-.048-.047M25.125 18.776l-.048-.096M25.077 18.68v-.095M25.077 18.585l.048-.095M25.125 18.49l.048-.048M25.173 18.442l.095-.047M25.268 18.395h.238M25.506 18.395l.143.047M26.077 19.395v-.667M26.077 18.395l-.047.047M26.03 18.442l.047.048M26.077 18.49l.048-.048M26.125 18.442l-.048-.047M26.077 18.395v.095M26.696 19.395l-.095-.048M26.601 19.347l-.047-.095M26.554 19.252v-.857M27.077 19.395v-1M27.173 19.014l.285.38M27.458 18.728l-.38.381"/>
        </g>
        <g class="stroked-text">
            <path d="m14.342 10.273-.476.334M14.342 10.845h-1M13.342 10.845v-.381M13.342 10.464l.047-.095M13.39 10.369l.047-.048M13.437 10.321l.095-.048M13.532 10.273h.143M13.675 10.273l.095.048M13.77 10.321l.048.048M13.818 10.369l.048.095M13.866 10.464v.38M13.818 9.845V9.51M14.342 9.369v.476M14.342 9.845h-1M13.342 9.845v-.476M13.818 8.607v.333M14.342 8.94h-1M13.342 8.94v-.476M13.342 7.94h.238M13.485 8.178l.095-.238M13.58 7.94l-.095-.238M13.77 8.083l-.19-.143M13.58 7.94l.19-.143M13.342 7.178h.238M13.485 7.416l.095-.238M13.58 7.178l-.095-.238M13.77 7.321l-.19-.143M13.58 7.178l.19-.143"/>
        </g>
    </g>
    <g style="fill:none;stroke:#afafaf;stroke-width:.1;stroke-opacity:1;stroke-linecap:round;stroke-linejoin:round">
        <path d="m12.617.685.635-.635M12.617 17.83V.685M13.252.05h1.905M15.157.05v17.78M15.157 17.83h-2.54"/>
    </g>
    <g style="fill:none;stroke:#afafaf;stroke-width:.0472;stroke-opacity:1;stroke-linecap:round;stroke-linejoin:round">
        <g class="stroked-text">
            <path d="M14.049 1.58h-.324M13.887 1.58v-.567M13.887 1.013l-.054.081M13.833 1.094l-.054.054M13.779 1.148l-.054.027"/>
        </g>
        <path d="m13.037.725.02-.098.055-.082.082-.056.098-.019h1.19l.098.02.082.055.055.082.02.098v1.19l-.02.098-.055.082-.083.056-.097.019h-1.19l-.098-.02-.082-.055-.056-.082-.02-.098Z" style="stroke:#afafaf;stroke-width:.0212;stroke-opacity:1;stroke-linecap:round;stroke-linejoin:round;fill:none"/>
    </g>
    <g class="stroked-text" style="fill:none;stroke:#afafaf;stroke-width:.0472;stroke-opacity:1;stroke-linecap:round;stroke-linejoin:round">
        <path d="m13.725 3.607.027-.027M13.752 3.58l.054-.027M13.806 3.553h.135M13.94 3.553l.055.027M13.995 3.58l.027.027M14.022 3.607l.027.054M14.049 3.661v.054M14.049 3.715l-.027.08M14.022 3.796l-.324.324M13.698 4.12h.35"/>
    </g>
    <circle cx="13.887" cy="3.86" r=".85" style="fill:none;stroke:#afafaf;stroke-width:.0212;stroke-opacity:1;stroke-linecap:round;stroke-linejoin:round"/>
    <g class="stroked-text" style="fill:none;stroke:#afafaf;stroke-width:.0472;stroke-opacity:1;stroke-linecap:round;stroke-linejoin:round">
        <path d="M13.698 6.093h.35M14.049 6.093l-.19.216M13.86 6.309h.08M13.94 6.309l.055.027M13.995 6.336l.027.027M14.022 6.363l.027.054M14.049 6.417v.135M14.049 6.552l-.027.054M14.022 6.606l-.027.027M13.995 6.633l-.054.027M13.94 6.66h-.161M13.779 6.66l-.054-.027M13.725 6.633l-.027-.027"/>
    </g>
    <circle cx="13.887" cy="6.4" r=".85" style="fill:none;stroke:#afafaf;stroke-width:.0212;stroke-opacity:1;stroke-linecap:round;stroke-linejoin:round"/>
    <g class="stroked-text" style="fill:none;stroke:#afafaf;stroke-width:.0472;stroke-opacity:1;stroke-linecap:round;stroke-linejoin:round">
        <path d="M13.995 8.822V9.2M13.86 8.606l-.135.405M13.725 9.01h.35"/>
    </g>
    <circle cx="13.887" cy="8.94" r=".85" style="fill:none;stroke:#afafaf;stroke-width:.0212;stroke-opacity:1;stroke-linecap:round;stroke-linejoin:round"/>
    <g class="stroked-text" style="fill:none;stroke:#afafaf;stroke-width:.0472;stroke-opacity:1;stroke-linecap:round;stroke-linejoin:round">
        <path d="M14.022 11.173h-.27M13.752 11.173l-.027.27M13.725 11.443l.027-.027M13.752 11.416l.054-.027M13.806 11.389h.135M13.94 11.389l.055.027M13.995 11.416l.027.027M14.022 11.443l.027.054M14.049 11.497v.135M14.049 11.632l-.027.054M14.022 11.686l-.027.027M13.995 11.713l-.054.027M13.94 11.74h-.134M13.806 11.74l-.054-.027M13.752 11.713l-.027-.027"/>
    </g>
    <circle cx="13.887" cy="11.48" r=".85" style="fill:none;stroke:#afafaf;stroke-width:.0212;stroke-opacity:1;stroke-linecap:round;stroke-linejoin:round"/>
    <g class="stroked-text" style="fill:none;stroke:#afafaf;stroke-width:.0472;stroke-opacity:1;stroke-linecap:round;stroke-linejoin:round">
        <path d="M13.995 13.713h-.108M13.887 13.713l-.054.027M13.833 13.74l-.027.027M13.806 13.767l-.054.08M13.752 13.848l-.027.108M13.725 13.956v.216M13.725 14.172l.027.054M13.752 14.226l.027.027M13.779 14.253l.054.027M13.833 14.28h.108M13.94 14.28l.055-.027M13.995 14.253l.027-.027M14.022 14.226l.027-.054M14.049 14.172v-.135M14.049 14.037l-.027-.054M14.022 13.983l-.027-.027M13.995 13.956l-.054-.027M13.94 13.929h-.107M13.833 13.929l-.054.027M13.779 13.956l-.027.027M13.752 13.983l-.027.054"/>
    </g>
    <circle cx="13.887" cy="14.02" r=".85" style="fill:none;stroke:#afafaf;stroke-width:.0212;stroke-opacity:1;stroke-linecap:round;stroke-linejoin:round"/>
    <g class="stroked-text" style="fill:none;stroke:#afafaf;stroke-width:.0472;stroke-opacity:1;stroke-linecap:round;stroke-linejoin:round">
        <path d="M13.698 16.253h.378M14.076 16.253l-.243.567"/>
    </g>
    <circle cx="13.887" cy="16.56" r=".85" style="fill:none;stroke:#afafaf;stroke-width:.0212;stroke-opacity:1;stroke-linecap:round;stroke-linejoin:round"/>
</svg>
