<?xml version="1.0" standalone="no"?>
 <!DOCTYPE svg PUBLIC "-//W3C//DTD SVG 1.1//EN" 
 "http://www.w3.org/Graphics/SVG/1.1/DTD/svg11.dtd"> 
<svg
  xmlns:svg="http://www.w3.org/2000/svg"
  xmlns="http://www.w3.org/2000/svg"
  xmlns:xlink="http://www.w3.org/1999/xlink"
  version="1.1"
  width="27.7622mm" height="7.0866mm" viewBox="0.0000 0.0000 27.7622 7.0866">
<title>SVG Image created as PinHeader_1x02_THT_P2.54mm_nSilk.svg date 2025/05/12 22:52:34 </title>
  <desc>Image generated by PCBNEW </desc>
<g style="fill:#000000; fill-opacity:1.0000;stroke:#000000; stroke-opacity:1.0000;
stroke-linecap:round; stroke-linejoin:round;"
 transform="translate(0 0) scale(1 1)">
<path style="fill:#4D7FC4; fill-opacity:1.0000; stroke:none;fill-rule:evenodd;"
d="M 13.0369,0.7250
13.0563,0.6274
13.1116,0.5447
13.1943,0.4894
13.2919,0.4700
14.4819,0.4700
14.5795,0.4894
14.6622,0.5447
14.7175,0.6274
14.7369,0.7250
14.7369,1.9150
14.7175,2.0126
14.6622,2.0953
14.5795,2.1506
14.4819,2.1700
13.2919,2.1700
13.1943,2.1506
13.1116,2.0953
13.0563,2.0126
13.0369,1.9150
Z" /> 
</g>
<g style="fill:#4D7FC4; fill-opacity:1.0000; stroke:none;">
<circle cx="13.8869" cy="3.8600" r="0.8500" /> 
<path style="fill:#C83434; fill-opacity:1.0000; stroke:none;fill-rule:evenodd;"
d="M 13.0369,0.7250
13.0563,0.6274
13.1116,0.5447
13.1943,0.4894
13.2919,0.4700
14.4819,0.4700
14.5795,0.4894
14.6622,0.5447
14.7175,0.6274
14.7369,0.7250
14.7369,1.9150
14.7175,2.0126
14.6622,2.0953
14.5795,2.1506
14.4819,2.1700
13.2919,2.1700
13.1943,2.1506
13.1116,2.0953
13.0563,2.0126
13.0369,1.9150
Z" /> 
</g>
<g style="fill:#C83434; fill-opacity:1.0000; stroke:none;">
<circle cx="13.8869" cy="3.8600" r="0.8500" /> 
</g>
<g style="fill:none; 
stroke:#585D84; stroke-width:0.0472; stroke-opacity:1; 
stroke-linecap:round; stroke-linejoin:round;">
<text x="13.8869" y="1.6033"
textLength="0.5680" font-size="0.7556" lengthAdjust="spacingAndGlyphs"
text-anchor="middle" opacity="0" stroke-opacity="0">1</text>
<g class="stroked-text"><desc>1</desc>
<path d="M14.0488 1.5797
L13.7250 1.5797
" />
<path d="M13.8869 1.5797
L13.8869 1.0130
" />
<path d="M13.8869 1.0130
L13.8329 1.0940
" />
<path d="M13.8329 1.0940
L13.7790 1.1480
" />
<path d="M13.7790 1.1480
L13.7250 1.1749
" />
</g><path style="fill:none; 
stroke:#585D84; stroke-width:0.0212; stroke-opacity:1; 
stroke-linecap:round; stroke-linejoin:round;fill:none"
d="M 13.0369,0.7250
13.0563,0.6274
13.1116,0.5447
13.1943,0.4894
13.2919,0.4700
14.4819,0.4700
14.5795,0.4894
14.6622,0.5447
14.7175,0.6274
14.7369,0.7250
14.7369,1.9150
14.7175,2.0126
14.6622,2.0953
14.5795,2.1506
14.4819,2.1700
13.2919,2.1700
13.1943,2.1506
13.1116,2.0953
13.0563,2.0126
13.0369,1.9150
Z" /> 
</g>
<g style="fill:none; 
stroke:#585D84; stroke-width:0.0472; stroke-opacity:1; 
stroke-linecap:round; stroke-linejoin:round;">
<text x="13.8869" y="4.1433"
textLength="0.5680" font-size="0.7556" lengthAdjust="spacingAndGlyphs"
text-anchor="middle" opacity="0" stroke-opacity="0">2</text>
<g class="stroked-text"><desc>2</desc>
<path d="M13.7250 3.6070
L13.7520 3.5800
" />
<path d="M13.7520 3.5800
L13.8060 3.5530
" />
<path d="M13.8060 3.5530
L13.9409 3.5530
" />
<path d="M13.9409 3.5530
L13.9948 3.5800
" />
<path d="M13.9948 3.5800
L14.0218 3.6070
" />
<path d="M14.0218 3.6070
L14.0488 3.6610
" />
<path d="M14.0488 3.6610
L14.0488 3.7149
" />
<path d="M14.0488 3.7149
L14.0218 3.7959
" />
<path d="M14.0218 3.7959
L13.6980 4.1197
" />
<path d="M13.6980 4.1197
L14.0488 4.1197
" />
</g></g>
<g style="fill:none; 
stroke:#585D84; stroke-width:0.0212; stroke-opacity:1; 
stroke-linecap:round; stroke-linejoin:round;">
<circle cx="13.8869" cy="3.8600" r="0.8500" /> 
</g>
<g style="fill:none; 
stroke:#AFAFAF; stroke-width:0.1500; stroke-opacity:1; 
stroke-linecap:round; stroke-linejoin:round;">
<text x="13.8869" y="6.7400"
textLength="27.7738" font-size="1.3333" lengthAdjust="spacingAndGlyphs"
text-anchor="middle" opacity="0" stroke-opacity="0">PinHeader_1x02_THT_P2.54mm_nSilk</text>
<g class="stroked-text"><desc>PinHeader_1x02_THT_P2.54mm_nSilk</desc>
<path d="M0.3631 6.6948
L0.3631 5.6948
" />
<path d="M0.3631 5.6948
L0.7440 5.6948
" />
<path d="M0.7440 5.6948
L0.8393 5.7424
" />
<path d="M0.8393 5.7424
L0.8869 5.7901
" />
<path d="M0.8869 5.7901
L0.9345 5.8853
" />
<path d="M0.9345 5.8853
L0.9345 6.0282
" />
<path d="M0.9345 6.0282
L0.8869 6.1234
" />
<path d="M0.8869 6.1234
L0.8393 6.1710
" />
<path d="M0.8393 6.1710
L0.7440 6.2186
" />
<path d="M0.7440 6.2186
L0.3631 6.2186
" />
<path d="M1.3631 6.6948
L1.3631 6.0282
" />
<path d="M1.3631 5.6948
L1.3155 5.7424
" />
<path d="M1.3155 5.7424
L1.3631 5.7901
" />
<path d="M1.3631 5.7901
L1.4107 5.7424
" />
<path d="M1.4107 5.7424
L1.3631 5.6948
" />
<path d="M1.3631 5.6948
L1.3631 5.7901
" />
<path d="M1.8393 6.0282
L1.8393 6.6948
" />
<path d="M1.8393 6.1234
L1.8869 6.0758
" />
<path d="M1.8869 6.0758
L1.9821 6.0282
" />
<path d="M1.9821 6.0282
L2.1250 6.0282
" />
<path d="M2.1250 6.0282
L2.2202 6.0758
" />
<path d="M2.2202 6.0758
L2.2679 6.1710
" />
<path d="M2.2679 6.1710
L2.2679 6.6948
" />
<path d="M2.7440 6.6948
L2.7440 5.6948
" />
<path d="M2.7440 6.1710
L3.3155 6.1710
" />
<path d="M3.3155 6.6948
L3.3155 5.6948
" />
<path d="M4.1726 6.6472
L4.0774 6.6948
" />
<path d="M4.0774 6.6948
L3.8869 6.6948
" />
<path d="M3.8869 6.6948
L3.7917 6.6472
" />
<path d="M3.7917 6.6472
L3.7440 6.5520
" />
<path d="M3.7440 6.5520
L3.7440 6.1710
" />
<path d="M3.7440 6.1710
L3.7917 6.0758
" />
<path d="M3.7917 6.0758
L3.8869 6.0282
" />
<path d="M3.8869 6.0282
L4.0774 6.0282
" />
<path d="M4.0774 6.0282
L4.1726 6.0758
" />
<path d="M4.1726 6.0758
L4.2202 6.1710
" />
<path d="M4.2202 6.1710
L4.2202 6.2662
" />
<path d="M4.2202 6.2662
L3.7440 6.3615
" />
<path d="M5.0774 6.6948
L5.0774 6.1710
" />
<path d="M5.0774 6.1710
L5.0298 6.0758
" />
<path d="M5.0298 6.0758
L4.9345 6.0282
" />
<path d="M4.9345 6.0282
L4.7440 6.0282
" />
<path d="M4.7440 6.0282
L4.6488 6.0758
" />
<path d="M5.0774 6.6472
L4.9821 6.6948
" />
<path d="M4.9821 6.6948
L4.7440 6.6948
" />
<path d="M4.7440 6.6948
L4.6488 6.6472
" />
<path d="M4.6488 6.6472
L4.6012 6.5520
" />
<path d="M4.6012 6.5520
L4.6012 6.4567
" />
<path d="M4.6012 6.4567
L4.6488 6.3615
" />
<path d="M4.6488 6.3615
L4.7440 6.3139
" />
<path d="M4.7440 6.3139
L4.9821 6.3139
" />
<path d="M4.9821 6.3139
L5.0774 6.2662
" />
<path d="M5.9821 6.6948
L5.9821 5.6948
" />
<path d="M5.9821 6.6472
L5.8869 6.6948
" />
<path d="M5.8869 6.6948
L5.6964 6.6948
" />
<path d="M5.6964 6.6948
L5.6012 6.6472
" />
<path d="M5.6012 6.6472
L5.5536 6.5996
" />
<path d="M5.5536 6.5996
L5.5060 6.5043
" />
<path d="M5.5060 6.5043
L5.5060 6.2186
" />
<path d="M5.5060 6.2186
L5.5536 6.1234
" />
<path d="M5.5536 6.1234
L5.6012 6.0758
" />
<path d="M5.6012 6.0758
L5.6964 6.0282
" />
<path d="M5.6964 6.0282
L5.8869 6.0282
" />
<path d="M5.8869 6.0282
L5.9821 6.0758
" />
<path d="M6.8393 6.6472
L6.7440 6.6948
" />
<path d="M6.7440 6.6948
L6.5536 6.6948
" />
<path d="M6.5536 6.6948
L6.4583 6.6472
" />
<path d="M6.4583 6.6472
L6.4107 6.5520
" />
<path d="M6.4107 6.5520
L6.4107 6.1710
" />
<path d="M6.4107 6.1710
L6.4583 6.0758
" />
<path d="M6.4583 6.0758
L6.5536 6.0282
" />
<path d="M6.5536 6.0282
L6.7440 6.0282
" />
<path d="M6.7440 6.0282
L6.8393 6.0758
" />
<path d="M6.8393 6.0758
L6.8869 6.1710
" />
<path d="M6.8869 6.1710
L6.8869 6.2662
" />
<path d="M6.8869 6.2662
L6.4107 6.3615
" />
<path d="M7.3155 6.6948
L7.3155 6.0282
" />
<path d="M7.3155 6.2186
L7.3631 6.1234
" />
<path d="M7.3631 6.1234
L7.4107 6.0758
" />
<path d="M7.4107 6.0758
L7.5060 6.0282
" />
<path d="M7.5060 6.0282
L7.6012 6.0282
" />
<path d="M7.6964 6.7901
L8.4583 6.7901
" />
<path d="M9.2202 6.6948
L8.6488 6.6948
" />
<path d="M8.9345 6.6948
L8.9345 5.6948
" />
<path d="M8.9345 5.6948
L8.8393 5.8377
" />
<path d="M8.8393 5.8377
L8.7440 5.9329
" />
<path d="M8.7440 5.9329
L8.6488 5.9805
" />
<path d="M9.5536 6.6948
L10.0774 6.0282
" />
<path d="M9.5536 6.0282
L10.0774 6.6948
" />
<path d="M10.6488 5.6948
L10.7440 5.6948
" />
<path d="M10.7440 5.6948
L10.8393 5.7424
" />
<path d="M10.8393 5.7424
L10.8869 5.7901
" />
<path d="M10.8869 5.7901
L10.9345 5.8853
" />
<path d="M10.9345 5.8853
L10.9821 6.0758
" />
<path d="M10.9821 6.0758
L10.9821 6.3139
" />
<path d="M10.9821 6.3139
L10.9345 6.5043
" />
<path d="M10.9345 6.5043
L10.8869 6.5996
" />
<path d="M10.8869 6.5996
L10.8393 6.6472
" />
<path d="M10.8393 6.6472
L10.7440 6.6948
" />
<path d="M10.7440 6.6948
L10.6488 6.6948
" />
<path d="M10.6488 6.6948
L10.5536 6.6472
" />
<path d="M10.5536 6.6472
L10.5060 6.5996
" />
<path d="M10.5060 6.5996
L10.4583 6.5043
" />
<path d="M10.4583 6.5043
L10.4107 6.3139
" />
<path d="M10.4107 6.3139
L10.4107 6.0758
" />
<path d="M10.4107 6.0758
L10.4583 5.8853
" />
<path d="M10.4583 5.8853
L10.5060 5.7901
" />
<path d="M10.5060 5.7901
L10.5536 5.7424
" />
<path d="M10.5536 5.7424
L10.6488 5.6948
" />
<path d="M11.3631 5.7901
L11.4107 5.7424
" />
<path d="M11.4107 5.7424
L11.5060 5.6948
" />
<path d="M11.5060 5.6948
L11.7440 5.6948
" />
<path d="M11.7440 5.6948
L11.8393 5.7424
" />
<path d="M11.8393 5.7424
L11.8869 5.7901
" />
<path d="M11.8869 5.7901
L11.9345 5.8853
" />
<path d="M11.9345 5.8853
L11.9345 5.9805
" />
<path d="M11.9345 5.9805
L11.8869 6.1234
" />
<path d="M11.8869 6.1234
L11.3155 6.6948
" />
<path d="M11.3155 6.6948
L11.9345 6.6948
" />
<path d="M12.1250 6.7901
L12.8869 6.7901
" />
<path d="M12.9821 5.6948
L13.5536 5.6948
" />
<path d="M13.2679 6.6948
L13.2679 5.6948
" />
<path d="M13.8869 6.6948
L13.8869 5.6948
" />
<path d="M13.8869 6.1710
L14.4583 6.1710
" />
<path d="M14.4583 6.6948
L14.4583 5.6948
" />
<path d="M14.7917 5.6948
L15.3631 5.6948
" />
<path d="M15.0774 6.6948
L15.0774 5.6948
" />
<path d="M15.4583 6.7901
L16.2202 6.7901
" />
<path d="M16.4583 6.6948
L16.4583 5.6948
" />
<path d="M16.4583 5.6948
L16.8393 5.6948
" />
<path d="M16.8393 5.6948
L16.9345 5.7424
" />
<path d="M16.9345 5.7424
L16.9821 5.7901
" />
<path d="M16.9821 5.7901
L17.0298 5.8853
" />
<path d="M17.0298 5.8853
L17.0298 6.0282
" />
<path d="M17.0298 6.0282
L16.9821 6.1234
" />
<path d="M16.9821 6.1234
L16.9345 6.1710
" />
<path d="M16.9345 6.1710
L16.8393 6.2186
" />
<path d="M16.8393 6.2186
L16.4583 6.2186
" />
<path d="M17.4107 5.7901
L17.4583 5.7424
" />
<path d="M17.4583 5.7424
L17.5536 5.6948
" />
<path d="M17.5536 5.6948
L17.7917 5.6948
" />
<path d="M17.7917 5.6948
L17.8869 5.7424
" />
<path d="M17.8869 5.7424
L17.9345 5.7901
" />
<path d="M17.9345 5.7901
L17.9821 5.8853
" />
<path d="M17.9821 5.8853
L17.9821 5.9805
" />
<path d="M17.9821 5.9805
L17.9345 6.1234
" />
<path d="M17.9345 6.1234
L17.3631 6.6948
" />
<path d="M17.3631 6.6948
L17.9821 6.6948
" />
<path d="M18.4107 6.5996
L18.4583 6.6472
" />
<path d="M18.4583 6.6472
L18.4107 6.6948
" />
<path d="M18.4107 6.6948
L18.3631 6.6472
" />
<path d="M18.3631 6.6472
L18.4107 6.5996
" />
<path d="M18.4107 6.5996
L18.4107 6.6948
" />
<path d="M19.3631 5.6948
L18.8869 5.6948
" />
<path d="M18.8869 5.6948
L18.8393 6.1710
" />
<path d="M18.8393 6.1710
L18.8869 6.1234
" />
<path d="M18.8869 6.1234
L18.9821 6.0758
" />
<path d="M18.9821 6.0758
L19.2202 6.0758
" />
<path d="M19.2202 6.0758
L19.3155 6.1234
" />
<path d="M19.3155 6.1234
L19.3631 6.1710
" />
<path d="M19.3631 6.1710
L19.4107 6.2662
" />
<path d="M19.4107 6.2662
L19.4107 6.5043
" />
<path d="M19.4107 6.5043
L19.3631 6.5996
" />
<path d="M19.3631 6.5996
L19.3155 6.6472
" />
<path d="M19.3155 6.6472
L19.2202 6.6948
" />
<path d="M19.2202 6.6948
L18.9821 6.6948
" />
<path d="M18.9821 6.6948
L18.8869 6.6472
" />
<path d="M18.8869 6.6472
L18.8393 6.5996
" />
<path d="M20.2679 6.0282
L20.2679 6.6948
" />
<path d="M20.0298 5.6472
L19.7917 6.3615
" />
<path d="M19.7917 6.3615
L20.4107 6.3615
" />
<path d="M20.7917 6.6948
L20.7917 6.0282
" />
<path d="M20.7917 6.1234
L20.8393 6.0758
" />
<path d="M20.8393 6.0758
L20.9345 6.0282
" />
<path d="M20.9345 6.0282
L21.0774 6.0282
" />
<path d="M21.0774 6.0282
L21.1726 6.0758
" />
<path d="M21.1726 6.0758
L21.2202 6.1710
" />
<path d="M21.2202 6.1710
L21.2202 6.6948
" />
<path d="M21.2202 6.1710
L21.2679 6.0758
" />
<path d="M21.2679 6.0758
L21.3631 6.0282
" />
<path d="M21.3631 6.0282
L21.5060 6.0282
" />
<path d="M21.5060 6.0282
L21.6012 6.0758
" />
<path d="M21.6012 6.0758
L21.6488 6.1710
" />
<path d="M21.6488 6.1710
L21.6488 6.6948
" />
<path d="M22.1250 6.6948
L22.1250 6.0282
" />
<path d="M22.1250 6.1234
L22.1726 6.0758
" />
<path d="M22.1726 6.0758
L22.2679 6.0282
" />
<path d="M22.2679 6.0282
L22.4107 6.0282
" />
<path d="M22.4107 6.0282
L22.5060 6.0758
" />
<path d="M22.5060 6.0758
L22.5536 6.1710
" />
<path d="M22.5536 6.1710
L22.5536 6.6948
" />
<path d="M22.5536 6.1710
L22.6012 6.0758
" />
<path d="M22.6012 6.0758
L22.6964 6.0282
" />
<path d="M22.6964 6.0282
L22.8393 6.0282
" />
<path d="M22.8393 6.0282
L22.9345 6.0758
" />
<path d="M22.9345 6.0758
L22.9821 6.1710
" />
<path d="M22.9821 6.1710
L22.9821 6.6948
" />
<path d="M23.2202 6.7901
L23.9821 6.7901
" />
<path d="M24.2202 6.0282
L24.2202 6.6948
" />
<path d="M24.2202 6.1234
L24.2679 6.0758
" />
<path d="M24.2679 6.0758
L24.3631 6.0282
" />
<path d="M24.3631 6.0282
L24.5060 6.0282
" />
<path d="M24.5060 6.0282
L24.6012 6.0758
" />
<path d="M24.6012 6.0758
L24.6488 6.1710
" />
<path d="M24.6488 6.1710
L24.6488 6.6948
" />
<path d="M25.0774 6.6472
L25.2202 6.6948
" />
<path d="M25.2202 6.6948
L25.4583 6.6948
" />
<path d="M25.4583 6.6948
L25.5536 6.6472
" />
<path d="M25.5536 6.6472
L25.6012 6.5996
" />
<path d="M25.6012 6.5996
L25.6488 6.5043
" />
<path d="M25.6488 6.5043
L25.6488 6.4091
" />
<path d="M25.6488 6.4091
L25.6012 6.3139
" />
<path d="M25.6012 6.3139
L25.5536 6.2662
" />
<path d="M25.5536 6.2662
L25.4583 6.2186
" />
<path d="M25.4583 6.2186
L25.2679 6.1710
" />
<path d="M25.2679 6.1710
L25.1726 6.1234
" />
<path d="M25.1726 6.1234
L25.1250 6.0758
" />
<path d="M25.1250 6.0758
L25.0774 5.9805
" />
<path d="M25.0774 5.9805
L25.0774 5.8853
" />
<path d="M25.0774 5.8853
L25.1250 5.7901
" />
<path d="M25.1250 5.7901
L25.1726 5.7424
" />
<path d="M25.1726 5.7424
L25.2679 5.6948
" />
<path d="M25.2679 5.6948
L25.5060 5.6948
" />
<path d="M25.5060 5.6948
L25.6488 5.7424
" />
<path d="M26.0774 6.6948
L26.0774 6.0282
" />
<path d="M26.0774 5.6948
L26.0298 5.7424
" />
<path d="M26.0298 5.7424
L26.0774 5.7901
" />
<path d="M26.0774 5.7901
L26.1250 5.7424
" />
<path d="M26.1250 5.7424
L26.0774 5.6948
" />
<path d="M26.0774 5.6948
L26.0774 5.7901
" />
<path d="M26.6964 6.6948
L26.6012 6.6472
" />
<path d="M26.6012 6.6472
L26.5536 6.5520
" />
<path d="M26.5536 6.5520
L26.5536 5.6948
" />
<path d="M27.0774 6.6948
L27.0774 5.6948
" />
<path d="M27.1726 6.3139
L27.4583 6.6948
" />
<path d="M27.4583 6.0282
L27.0774 6.4091
" />
</g><g transform="rotate(-90.000000 13.8869 2.5900)">
<text x="13.8869" y="3.0900"
textLength="4.5357" font-size="1.3333" lengthAdjust="spacingAndGlyphs"
text-anchor="middle" opacity="0" stroke-opacity="0">REF**</text>
</g>
<g class="stroked-text"><desc>REF**</desc>
<path d="M14.3417 3.9233
L13.8655 4.2567
" />
<path d="M14.3417 4.4948
L13.3417 4.4948
" />
<path d="M13.3417 4.4948
L13.3417 4.1138
" />
<path d="M13.3417 4.1138
L13.3893 4.0186
" />
<path d="M13.3893 4.0186
L13.4370 3.9710
" />
<path d="M13.4370 3.9710
L13.5322 3.9233
" />
<path d="M13.5322 3.9233
L13.6751 3.9233
" />
<path d="M13.6751 3.9233
L13.7703 3.9710
" />
<path d="M13.7703 3.9710
L13.8179 4.0186
" />
<path d="M13.8179 4.0186
L13.8655 4.1138
" />
<path d="M13.8655 4.1138
L13.8655 4.4948
" />
<path d="M13.8179 3.4948
L13.8179 3.1614
" />
<path d="M14.3417 3.0186
L14.3417 3.4948
" />
<path d="M14.3417 3.4948
L13.3417 3.4948
" />
<path d="M13.3417 3.4948
L13.3417 3.0186
" />
<path d="M13.8179 2.2567
L13.8179 2.5900
" />
<path d="M14.3417 2.5900
L13.3417 2.5900
" />
<path d="M13.3417 2.5900
L13.3417 2.1138
" />
<path d="M13.3417 1.5900
L13.5798 1.5900
" />
<path d="M13.4846 1.8281
L13.5798 1.5900
" />
<path d="M13.5798 1.5900
L13.4846 1.3519
" />
<path d="M13.7703 1.7329
L13.5798 1.5900
" />
<path d="M13.5798 1.5900
L13.7703 1.4471
" />
<path d="M13.3417 0.8281
L13.5798 0.8281
" />
<path d="M13.4846 1.0662
L13.5798 0.8281
" />
<path d="M13.5798 0.8281
L13.4846 0.5900
" />
<path d="M13.7703 0.9710
L13.5798 0.8281
" />
<path d="M13.5798 0.8281
L13.7703 0.6852
" />
</g></g>
<g style="fill:none; 
stroke:#AFAFAF; stroke-width:0.1000; stroke-opacity:1; 
stroke-linecap:round; stroke-linejoin:round;">
<path d="M12.6169 0.6850
L13.2519 0.0500
" />
<path d="M12.6169 5.1300
L12.6169 0.6850
" />
<path d="M13.2519 0.0500
L15.1569 0.0500
" />
<path d="M15.1569 0.0500
L15.1569 5.1300
" />
<path d="M15.1569 5.1300
L12.6169 5.1300
" />
</g>
<g style="fill:none; 
stroke:#AFAFAF; stroke-width:0.0472; stroke-opacity:1; 
stroke-linecap:round; stroke-linejoin:round;">
<text x="13.8869" y="1.6033"
textLength="0.5680" font-size="0.7556" lengthAdjust="spacingAndGlyphs"
text-anchor="middle" opacity="0" stroke-opacity="0">1</text>
<g class="stroked-text"><desc>1</desc>
<path d="M14.0488 1.5797
L13.7250 1.5797
" />
<path d="M13.8869 1.5797
L13.8869 1.0130
" />
<path d="M13.8869 1.0130
L13.8329 1.0940
" />
<path d="M13.8329 1.0940
L13.7790 1.1480
" />
<path d="M13.7790 1.1480
L13.7250 1.1749
" />
</g><path style="fill:none; 
stroke:#AFAFAF; stroke-width:0.0212; stroke-opacity:1; 
stroke-linecap:round; stroke-linejoin:round;fill:none"
d="M 13.0369,0.7250
13.0563,0.6274
13.1116,0.5447
13.1943,0.4894
13.2919,0.4700
14.4819,0.4700
14.5795,0.4894
14.6622,0.5447
14.7175,0.6274
14.7369,0.7250
14.7369,1.9150
14.7175,2.0126
14.6622,2.0953
14.5795,2.1506
14.4819,2.1700
13.2919,2.1700
13.1943,2.1506
13.1116,2.0953
13.0563,2.0126
13.0369,1.9150
Z" /> 
</g>
<g style="fill:none; 
stroke:#AFAFAF; stroke-width:0.0472; stroke-opacity:1; 
stroke-linecap:round; stroke-linejoin:round;">
<text x="13.8869" y="4.1433"
textLength="0.5680" font-size="0.7556" lengthAdjust="spacingAndGlyphs"
text-anchor="middle" opacity="0" stroke-opacity="0">2</text>
<g class="stroked-text"><desc>2</desc>
<path d="M13.7250 3.6070
L13.7520 3.5800
" />
<path d="M13.7520 3.5800
L13.8060 3.5530
" />
<path d="M13.8060 3.5530
L13.9409 3.5530
" />
<path d="M13.9409 3.5530
L13.9948 3.5800
" />
<path d="M13.9948 3.5800
L14.0218 3.6070
" />
<path d="M14.0218 3.6070
L14.0488 3.6610
" />
<path d="M14.0488 3.6610
L14.0488 3.7149
" />
<path d="M14.0488 3.7149
L14.0218 3.7959
" />
<path d="M14.0218 3.7959
L13.6980 4.1197
" />
<path d="M13.6980 4.1197
L14.0488 4.1197
" />
</g></g>
<g style="fill:none; 
stroke:#AFAFAF; stroke-width:0.0212; stroke-opacity:1; 
stroke-linecap:round; stroke-linejoin:round;">
<circle cx="13.8869" cy="3.8600" r="0.8500" /> 
</g> 
</svg>
