<svg xmlns="http://www.w3.org/2000/svg" width="104.928" height="65.184" viewBox="0 0 27.762 17.247">
    <g style="fill:#000;fill-opacity:1;stroke:#000;stroke-opacity:1;stroke-linecap:round;stroke-linejoin:round">
        <path stroke="none" d="m13.037.725.02-.098.055-.082.082-.056.098-.019h1.19l.098.02.082.055.055.082.02.098v1.19l-.02.098-.055.082-.083.056-.097.019h-1.19l-.098-.02-.082-.055-.056-.082-.02-.098Z" style="fill:#4d7fc4;fill-opacity:1;stroke:none;fill-rule:evenodd"/>
    </g>
    <circle cx="13.887" cy="3.86" r=".85" style="fill:#4d7fc4;fill-opacity:1;stroke:none"/>
    <circle cx="13.887" cy="6.4" r=".85" style="fill:#4d7fc4;fill-opacity:1;stroke:none"/>
    <circle cx="13.887" cy="8.94" r=".85" style="fill:#4d7fc4;fill-opacity:1;stroke:none"/>
    <circle cx="13.887" cy="11.48" r=".85" style="fill:#4d7fc4;fill-opacity:1;stroke:none"/>
    <g style="fill:#4d7fc4;fill-opacity:1;stroke:none">
        <circle cx="13.887" cy="14.02" r=".85"/>
        <path d="m13.037.725.02-.098.055-.082.082-.056.098-.019h1.19l.098.02.082.055.055.082.02.098v1.19l-.02.098-.055.082-.083.056-.097.019h-1.19l-.098-.02-.082-.055-.056-.082-.02-.098Z" style="fill:#c83434;fill-opacity:1;stroke:none;fill-rule:evenodd"/>
    </g>
    <circle cx="13.887" cy="3.86" r=".85" style="fill:#c83434;fill-opacity:1;stroke:none"/>
    <circle cx="13.887" cy="6.4" r=".85" style="fill:#c83434;fill-opacity:1;stroke:none"/>
    <circle cx="13.887" cy="8.94" r=".85" style="fill:#c83434;fill-opacity:1;stroke:none"/>
    <circle cx="13.887" cy="11.48" r=".85" style="fill:#c83434;fill-opacity:1;stroke:none"/>
    <circle cx="13.887" cy="14.02" r=".85" style="fill:#c83434;fill-opacity:1;stroke:none"/>
    <g style="fill:none;stroke:#585d84;stroke-width:.0472;stroke-opacity:1;stroke-linecap:round;stroke-linejoin:round">
        <g class="stroked-text">
            <path d="M14.049 1.58h-.324M13.887 1.58v-.567M13.887 1.013l-.054.081M13.833 1.094l-.054.054M13.779 1.148l-.054.027"/>
        </g>
        <path d="m13.037.725.02-.098.055-.082.082-.056.098-.019h1.19l.098.02.082.055.055.082.02.098v1.19l-.02.098-.055.082-.083.056-.097.019h-1.19l-.098-.02-.082-.055-.056-.082-.02-.098Z" style="stroke:#585d84;stroke-width:.0212;stroke-opacity:1;stroke-linecap:round;stroke-linejoin:round;fill:none"/>
    </g>
    <g class="stroked-text" style="fill:none;stroke:#585d84;stroke-width:.0472;stroke-opacity:1;stroke-linecap:round;stroke-linejoin:round">
        <path d="m13.725 3.607.027-.027M13.752 3.58l.054-.027M13.806 3.553h.135M13.94 3.553l.055.027M13.995 3.58l.027.027M14.022 3.607l.027.054M14.049 3.661v.054M14.049 3.715l-.027.08M14.022 3.796l-.324.324M13.698 4.12h.35"/>
    </g>
    <circle cx="13.887" cy="3.86" r=".85" style="fill:none;stroke:#585d84;stroke-width:.0212;stroke-opacity:1;stroke-linecap:round;stroke-linejoin:round"/>
    <g class="stroked-text" style="fill:none;stroke:#585d84;stroke-width:.0472;stroke-opacity:1;stroke-linecap:round;stroke-linejoin:round">
        <path d="M13.698 6.093h.35M14.049 6.093l-.19.216M13.86 6.309h.08M13.94 6.309l.055.027M13.995 6.336l.027.027M14.022 6.363l.027.054M14.049 6.417v.135M14.049 6.552l-.027.054M14.022 6.606l-.027.027M13.995 6.633l-.054.027M13.94 6.66h-.161M13.779 6.66l-.054-.027M13.725 6.633l-.027-.027"/>
    </g>
    <circle cx="13.887" cy="6.4" r=".85" style="fill:none;stroke:#585d84;stroke-width:.0212;stroke-opacity:1;stroke-linecap:round;stroke-linejoin:round"/>
    <g class="stroked-text" style="fill:none;stroke:#585d84;stroke-width:.0472;stroke-opacity:1;stroke-linecap:round;stroke-linejoin:round">
        <path d="M13.995 8.822V9.2M13.86 8.606l-.135.405M13.725 9.01h.35"/>
    </g>
    <circle cx="13.887" cy="8.94" r=".85" style="fill:none;stroke:#585d84;stroke-width:.0212;stroke-opacity:1;stroke-linecap:round;stroke-linejoin:round"/>
    <g class="stroked-text" style="fill:none;stroke:#585d84;stroke-width:.0472;stroke-opacity:1;stroke-linecap:round;stroke-linejoin:round">
        <path d="M14.022 11.173h-.27M13.752 11.173l-.027.27M13.725 11.443l.027-.027M13.752 11.416l.054-.027M13.806 11.389h.135M13.94 11.389l.055.027M13.995 11.416l.027.027M14.022 11.443l.027.054M14.049 11.497v.135M14.049 11.632l-.027.054M14.022 11.686l-.027.027M13.995 11.713l-.054.027M13.94 11.74h-.134M13.806 11.74l-.054-.027M13.752 11.713l-.027-.027"/>
    </g>
    <circle cx="13.887" cy="11.48" r=".85" style="fill:none;stroke:#585d84;stroke-width:.0212;stroke-opacity:1;stroke-linecap:round;stroke-linejoin:round"/>
    <g class="stroked-text" style="fill:none;stroke:#585d84;stroke-width:.0472;stroke-opacity:1;stroke-linecap:round;stroke-linejoin:round">
        <path d="M13.995 13.713h-.108M13.887 13.713l-.054.027M13.833 13.74l-.027.027M13.806 13.767l-.054.08M13.752 13.848l-.027.108M13.725 13.956v.216M13.725 14.172l.027.054M13.752 14.226l.027.027M13.779 14.253l.054.027M13.833 14.28h.108M13.94 14.28l.055-.027M13.995 14.253l.027-.027M14.022 14.226l.027-.054M14.049 14.172v-.135M14.049 14.037l-.027-.054M14.022 13.983l-.027-.027M13.995 13.956l-.054-.027M13.94 13.929h-.107M13.833 13.929l-.054.027M13.779 13.956l-.027.027M13.752 13.983l-.027.054"/>
    </g>
    <circle cx="13.887" cy="14.02" r=".85" style="fill:none;stroke:#585d84;stroke-width:.0212;stroke-opacity:1;stroke-linecap:round;stroke-linejoin:round"/>
    <g style="fill:none;stroke:#afafaf;stroke-width:.15;stroke-opacity:1;stroke-linecap:round;stroke-linejoin:round">
        <g class="stroked-text">
            <path d="M.363 16.855v-1M.363 15.855h.381M.744 15.855l.095.047M.84 15.902l.047.048M.887 15.95l.047.095M.935 16.045v.143M.935 16.188l-.048.095M.887 16.283l-.048.048M.84 16.331l-.096.048M.744 16.379h-.38M1.363 16.855v-.667M1.363 15.855l-.048.047M1.316 15.902l.047.048M1.363 15.95l.048-.048M1.41 15.902l-.047-.047M1.363 15.855v.095M1.84 16.188v.667M1.84 16.283l.047-.047M1.887 16.236l.095-.048M1.982 16.188h.143M2.125 16.188l.095.048M2.22 16.236l.048.095M2.268 16.331v.524M2.744 16.855v-1M2.744 16.331h.571M3.316 16.855v-1M4.173 16.807l-.096.048M4.077 16.855h-.19M3.887 16.855l-.095-.048M3.792 16.807l-.048-.095M3.744 16.712v-.381M3.744 16.331l.048-.095M3.792 16.236l.095-.048M3.887 16.188h.19M4.077 16.188l.096.048M4.173 16.236l.047.095M4.22 16.331v.095M4.22 16.426l-.476.096M5.077 16.855v-.524M5.077 16.331l-.047-.095M5.03 16.236l-.096-.048M4.935 16.188h-.191M4.744 16.188l-.095.048M5.077 16.807l-.095.048M4.982 16.855h-.238M4.744 16.855l-.095-.048M4.649 16.807l-.048-.095M4.601 16.712v-.095M4.601 16.617l.048-.096M4.649 16.522l.095-.048M4.744 16.474h.238M4.982 16.474l.095-.048M5.982 16.855v-1M5.982 16.807l-.095.048M5.887 16.855h-.19M5.696 16.855l-.095-.048M5.601 16.807l-.047-.047M5.554 16.76l-.048-.096M5.506 16.664v-.285M5.506 16.379l.048-.096M5.554 16.283l.047-.047M5.601 16.236l.095-.048M5.696 16.188h.19M5.887 16.188l.095.048M6.84 16.807l-.096.048M6.744 16.855h-.19M6.554 16.855l-.096-.048M6.458 16.807l-.047-.095M6.41 16.712v-.381M6.41 16.331l.048-.095M6.458 16.236l.096-.048M6.554 16.188h.19M6.744 16.188l.095.048M6.84 16.236l.047.095M6.887 16.331v.095M6.887 16.426l-.476.096M7.316 16.855v-.667M7.316 16.379l.047-.096M7.363 16.283l.048-.047M7.41 16.236l.096-.048M7.506 16.188h.095M7.696 16.95h.762M9.22 16.855H8.65M8.935 16.855v-1M8.935 15.855l-.096.143M8.84 15.998l-.096.095M8.744 16.093l-.095.047M9.554 16.855l.523-.667M9.554 16.188l.523.667M10.649 15.855h.095M10.744 15.855l.095.047M10.84 15.902l.047.048M10.887 15.95l.047.095M10.935 16.045l.047.19M10.982 16.236v.238M10.982 16.474l-.047.19M10.935 16.664l-.048.096M10.887 16.76l-.048.047M10.84 16.807l-.096.048M10.744 16.855h-.095M10.649 16.855l-.095-.048M10.554 16.807l-.048-.047M10.506 16.76l-.048-.096M10.458 16.664l-.047-.19M10.41 16.474v-.238M10.41 16.236l.048-.19M10.458 16.045l.048-.095M10.506 15.95l.048-.048M10.554 15.902l.095-.047M11.84 15.855h-.191M11.649 15.855l-.095.047M11.554 15.902l-.048.048M11.506 15.95l-.095.143M11.41 16.093l-.047.19M11.363 16.283v.381M11.363 16.664l.048.096M11.41 16.76l.048.047M11.458 16.807l.096.048M11.554 16.855h.19M11.744 16.855l.095-.048M11.84 16.807l.047-.047M11.887 16.76l.047-.096M11.935 16.664v-.238M11.935 16.426l-.048-.095M11.887 16.331l-.048-.048M11.84 16.283l-.096-.047M11.744 16.236h-.19M11.554 16.236l-.096.047M11.458 16.283l-.047.048M11.41 16.331l-.047.095M12.125 16.95h.762M12.982 15.855h.572M13.268 16.855v-1M13.887 16.855v-1M13.887 16.331h.571M14.458 16.855v-1M14.792 15.855h.571M15.077 16.855v-1M15.458 16.95h.762M16.458 16.855v-1M16.458 15.855h.381M16.84 15.855l.095.047M16.935 15.902l.047.048M16.982 15.95l.048.095M17.03 16.045v.143M17.03 16.188l-.048.095M16.982 16.283l-.047.048M16.935 16.331l-.096.048M16.84 16.379h-.382M17.41 15.95l.048-.048M17.458 15.902l.096-.047M17.554 15.855h.238M17.792 15.855l.095.047M17.887 15.902l.047.048M17.935 15.95l.047.095M17.982 16.045v.095M17.982 16.14l-.047.143M17.935 16.283l-.572.572M17.363 16.855h.62M18.41 16.76l.048.047M18.458 16.807l-.047.048M18.41 16.855l-.047-.048M18.363 16.807l.048-.047M18.41 16.76v.095M19.363 15.855h-.476M18.887 15.855l-.048.476M18.84 16.331l.047-.048M18.887 16.283l.095-.047M18.982 16.236h.238M19.22 16.236l.096.047M19.316 16.283l.047.048M19.363 16.331l.048.095M19.41 16.426v.238M19.41 16.664l-.047.096M19.363 16.76l-.047.047M19.316 16.807l-.096.048M19.22 16.855h-.238M18.982 16.855l-.095-.048M18.887 16.807l-.048-.047M20.268 16.188v.667M20.03 15.807l-.238.714M19.792 16.522h.619M20.792 16.855v-.667M20.792 16.283l.047-.047M20.84 16.236l.095-.048M20.935 16.188h.142M21.077 16.188l.096.048M21.173 16.236l.047.095M21.22 16.331v.524M21.22 16.331l.048-.095M21.268 16.236l.095-.048M21.363 16.188h.143M21.506 16.188l.095.048M21.601 16.236l.048.095M21.649 16.331v.524M22.125 16.855v-.667M22.125 16.283l.048-.047M22.173 16.236l.095-.048M22.268 16.188h.143M22.41 16.188l.096.048M22.506 16.236l.048.095M22.554 16.331v.524M22.554 16.331l.047-.095M22.601 16.236l.095-.048M22.696 16.188h.143M22.84 16.188l.095.048M22.935 16.236l.047.095M22.982 16.331v.524M23.22 16.95h.762M24.22 16.188v.667M24.22 16.283l.048-.047M24.268 16.236l.095-.048M24.363 16.188h.143M24.506 16.188l.095.048M24.601 16.236l.048.095M24.649 16.331v.524M25.077 16.807l.143.048M25.22 16.855h.238M25.458 16.855l.096-.048M25.554 16.807l.047-.047M25.601 16.76l.048-.096M25.649 16.664v-.095M25.649 16.57l-.048-.096M25.601 16.474l-.047-.048M25.554 16.426l-.096-.047M25.458 16.379l-.19-.048M25.268 16.331l-.095-.048M25.173 16.283l-.048-.047M25.125 16.236l-.048-.096M25.077 16.14v-.095M25.077 16.045l.048-.095M25.125 15.95l.048-.048M25.173 15.902l.095-.047M25.268 15.855h.238M25.506 15.855l.143.047M26.077 16.855v-.667M26.077 15.855l-.047.047M26.03 15.902l.047.048M26.077 15.95l.048-.048M26.125 15.902l-.048-.047M26.077 15.855v.095M26.696 16.855l-.095-.048M26.601 16.807l-.047-.095M26.554 16.712v-.857M27.077 16.855v-1M27.173 16.474l.285.38M27.458 16.188l-.38.381"/>
        </g>
        <g class="stroked-text">
            <path d="m14.342 9.003-.476.334M14.342 9.575h-1M13.342 9.575v-.381M13.342 9.194l.047-.095M13.39 9.099l.047-.048M13.437 9.051l.095-.048M13.532 9.003h.143M13.675 9.003l.095.048M13.77 9.051l.048.048M13.818 9.099l.048.095M13.866 9.194v.38M13.818 8.575V8.24M14.342 8.099v.476M14.342 8.575h-1M13.342 8.575v-.476M13.818 7.337v.333M14.342 7.67h-1M13.342 7.67v-.476M13.342 6.67h.238M13.485 6.908l.095-.238M13.58 6.67l-.095-.238M13.77 6.813l-.19-.143M13.58 6.67l.19-.143M13.342 5.908h.238M13.485 6.146l.095-.238M13.58 5.908l-.095-.238M13.77 6.051l-.19-.143M13.58 5.908l.19-.143"/>
        </g>
    </g>
    <g style="fill:none;stroke:#afafaf;stroke-width:.1;stroke-opacity:1;stroke-linecap:round;stroke-linejoin:round">
        <path d="m12.617.685.635-.635M12.617 15.29V.685M13.252.05h1.905M15.157.05v15.24M15.157 15.29h-2.54"/>
    </g>
    <g style="fill:none;stroke:#afafaf;stroke-width:.0472;stroke-opacity:1;stroke-linecap:round;stroke-linejoin:round">
        <g class="stroked-text">
            <path d="M14.049 1.58h-.324M13.887 1.58v-.567M13.887 1.013l-.054.081M13.833 1.094l-.054.054M13.779 1.148l-.054.027"/>
        </g>
        <path d="m13.037.725.02-.098.055-.082.082-.056.098-.019h1.19l.098.02.082.055.055.082.02.098v1.19l-.02.098-.055.082-.083.056-.097.019h-1.19l-.098-.02-.082-.055-.056-.082-.02-.098Z" style="stroke:#afafaf;stroke-width:.0212;stroke-opacity:1;stroke-linecap:round;stroke-linejoin:round;fill:none"/>
    </g>
    <g class="stroked-text" style="fill:none;stroke:#afafaf;stroke-width:.0472;stroke-opacity:1;stroke-linecap:round;stroke-linejoin:round">
        <path d="m13.725 3.607.027-.027M13.752 3.58l.054-.027M13.806 3.553h.135M13.94 3.553l.055.027M13.995 3.58l.027.027M14.022 3.607l.027.054M14.049 3.661v.054M14.049 3.715l-.027.08M14.022 3.796l-.324.324M13.698 4.12h.35"/>
    </g>
    <circle cx="13.887" cy="3.86" r=".85" style="fill:none;stroke:#afafaf;stroke-width:.0212;stroke-opacity:1;stroke-linecap:round;stroke-linejoin:round"/>
    <g class="stroked-text" style="fill:none;stroke:#afafaf;stroke-width:.0472;stroke-opacity:1;stroke-linecap:round;stroke-linejoin:round">
        <path d="M13.698 6.093h.35M14.049 6.093l-.19.216M13.86 6.309h.08M13.94 6.309l.055.027M13.995 6.336l.027.027M14.022 6.363l.027.054M14.049 6.417v.135M14.049 6.552l-.027.054M14.022 6.606l-.027.027M13.995 6.633l-.054.027M13.94 6.66h-.161M13.779 6.66l-.054-.027M13.725 6.633l-.027-.027"/>
    </g>
    <circle cx="13.887" cy="6.4" r=".85" style="fill:none;stroke:#afafaf;stroke-width:.0212;stroke-opacity:1;stroke-linecap:round;stroke-linejoin:round"/>
    <g class="stroked-text" style="fill:none;stroke:#afafaf;stroke-width:.0472;stroke-opacity:1;stroke-linecap:round;stroke-linejoin:round">
        <path d="M13.995 8.822V9.2M13.86 8.606l-.135.405M13.725 9.01h.35"/>
    </g>
    <circle cx="13.887" cy="8.94" r=".85" style="fill:none;stroke:#afafaf;stroke-width:.0212;stroke-opacity:1;stroke-linecap:round;stroke-linejoin:round"/>
    <g class="stroked-text" style="fill:none;stroke:#afafaf;stroke-width:.0472;stroke-opacity:1;stroke-linecap:round;stroke-linejoin:round">
        <path d="M14.022 11.173h-.27M13.752 11.173l-.027.27M13.725 11.443l.027-.027M13.752 11.416l.054-.027M13.806 11.389h.135M13.94 11.389l.055.027M13.995 11.416l.027.027M14.022 11.443l.027.054M14.049 11.497v.135M14.049 11.632l-.027.054M14.022 11.686l-.027.027M13.995 11.713l-.054.027M13.94 11.74h-.134M13.806 11.74l-.054-.027M13.752 11.713l-.027-.027"/>
    </g>
    <circle cx="13.887" cy="11.48" r=".85" style="fill:none;stroke:#afafaf;stroke-width:.0212;stroke-opacity:1;stroke-linecap:round;stroke-linejoin:round"/>
    <g class="stroked-text" style="fill:none;stroke:#afafaf;stroke-width:.0472;stroke-opacity:1;stroke-linecap:round;stroke-linejoin:round">
        <path d="M13.995 13.713h-.108M13.887 13.713l-.054.027M13.833 13.74l-.027.027M13.806 13.767l-.054.08M13.752 13.848l-.027.108M13.725 13.956v.216M13.725 14.172l.027.054M13.752 14.226l.027.027M13.779 14.253l.054.027M13.833 14.28h.108M13.94 14.28l.055-.027M13.995 14.253l.027-.027M14.022 14.226l.027-.054M14.049 14.172v-.135M14.049 14.037l-.027-.054M14.022 13.983l-.027-.027M13.995 13.956l-.054-.027M13.94 13.929h-.107M13.833 13.929l-.054.027M13.779 13.956l-.027.027M13.752 13.983l-.027.054"/>
    </g>
    <circle cx="13.887" cy="14.02" r=".85" style="fill:none;stroke:#afafaf;stroke-width:.0212;stroke-opacity:1;stroke-linecap:round;stroke-linejoin:round"/>
</svg>
