<svg xmlns="http://www.w3.org/2000/svg" width="104.928" height="55.584" viewBox="0 0 27.762 14.707">
    <g style="fill:#000;fill-opacity:1;stroke:#000;stroke-opacity:1;stroke-linecap:round;stroke-linejoin:round">
        <path stroke="none" d="m13.037.725.02-.098.055-.082.082-.056.098-.019h1.19l.098.02.082.055.055.082.02.098v1.19l-.02.098-.055.082-.083.056-.097.019h-1.19l-.098-.02-.082-.055-.056-.082-.02-.098Z" style="fill:#4d7fc4;fill-opacity:1;stroke:none;fill-rule:evenodd"/>
    </g>
    <circle cx="13.887" cy="3.86" r=".85" style="fill:#4d7fc4;fill-opacity:1;stroke:none"/>
    <circle cx="13.887" cy="6.4" r=".85" style="fill:#4d7fc4;fill-opacity:1;stroke:none"/>
    <circle cx="13.887" cy="8.94" r=".85" style="fill:#4d7fc4;fill-opacity:1;stroke:none"/>
    <g style="fill:#4d7fc4;fill-opacity:1;stroke:none">
        <circle cx="13.887" cy="11.48" r=".85"/>
        <path d="m13.037.725.02-.098.055-.082.082-.056.098-.019h1.19l.098.02.082.055.055.082.02.098v1.19l-.02.098-.055.082-.083.056-.097.019h-1.19l-.098-.02-.082-.055-.056-.082-.02-.098Z" style="fill:#c83434;fill-opacity:1;stroke:none;fill-rule:evenodd"/>
    </g>
    <circle cx="13.887" cy="3.86" r=".85" style="fill:#c83434;fill-opacity:1;stroke:none"/>
    <circle cx="13.887" cy="6.4" r=".85" style="fill:#c83434;fill-opacity:1;stroke:none"/>
    <circle cx="13.887" cy="8.94" r=".85" style="fill:#c83434;fill-opacity:1;stroke:none"/>
    <circle cx="13.887" cy="11.48" r=".85" style="fill:#c83434;fill-opacity:1;stroke:none"/>
    <g style="fill:none;stroke:#585d84;stroke-width:.0472;stroke-opacity:1;stroke-linecap:round;stroke-linejoin:round">
        <g class="stroked-text">
            <path d="M14.049 1.58h-.324M13.887 1.58v-.567M13.887 1.013l-.054.081M13.833 1.094l-.054.054M13.779 1.148l-.054.027"/>
        </g>
        <path d="m13.037.725.02-.098.055-.082.082-.056.098-.019h1.19l.098.02.082.055.055.082.02.098v1.19l-.02.098-.055.082-.083.056-.097.019h-1.19l-.098-.02-.082-.055-.056-.082-.02-.098Z" style="stroke:#585d84;stroke-width:.0212;stroke-opacity:1;stroke-linecap:round;stroke-linejoin:round;fill:none"/>
    </g>
    <g class="stroked-text" style="fill:none;stroke:#585d84;stroke-width:.0472;stroke-opacity:1;stroke-linecap:round;stroke-linejoin:round">
        <path d="m13.725 3.607.027-.027M13.752 3.58l.054-.027M13.806 3.553h.135M13.94 3.553l.055.027M13.995 3.58l.027.027M14.022 3.607l.027.054M14.049 3.661v.054M14.049 3.715l-.027.08M14.022 3.796l-.324.324M13.698 4.12h.35"/>
    </g>
    <circle cx="13.887" cy="3.86" r=".85" style="fill:none;stroke:#585d84;stroke-width:.0212;stroke-opacity:1;stroke-linecap:round;stroke-linejoin:round"/>
    <g class="stroked-text" style="fill:none;stroke:#585d84;stroke-width:.0472;stroke-opacity:1;stroke-linecap:round;stroke-linejoin:round">
        <path d="M13.698 6.093h.35M14.049 6.093l-.19.216M13.86 6.309h.08M13.94 6.309l.055.027M13.995 6.336l.027.027M14.022 6.363l.027.054M14.049 6.417v.135M14.049 6.552l-.027.054M14.022 6.606l-.027.027M13.995 6.633l-.054.027M13.94 6.66h-.161M13.779 6.66l-.054-.027M13.725 6.633l-.027-.027"/>
    </g>
    <circle cx="13.887" cy="6.4" r=".85" style="fill:none;stroke:#585d84;stroke-width:.0212;stroke-opacity:1;stroke-linecap:round;stroke-linejoin:round"/>
    <g class="stroked-text" style="fill:none;stroke:#585d84;stroke-width:.0472;stroke-opacity:1;stroke-linecap:round;stroke-linejoin:round">
        <path d="M13.995 8.822V9.2M13.86 8.606l-.135.405M13.725 9.01h.35"/>
    </g>
    <circle cx="13.887" cy="8.94" r=".85" style="fill:none;stroke:#585d84;stroke-width:.0212;stroke-opacity:1;stroke-linecap:round;stroke-linejoin:round"/>
    <g class="stroked-text" style="fill:none;stroke:#585d84;stroke-width:.0472;stroke-opacity:1;stroke-linecap:round;stroke-linejoin:round">
        <path d="M14.022 11.173h-.27M13.752 11.173l-.027.27M13.725 11.443l.027-.027M13.752 11.416l.054-.027M13.806 11.389h.135M13.94 11.389l.055.027M13.995 11.416l.027.027M14.022 11.443l.027.054M14.049 11.497v.135M14.049 11.632l-.027.054M14.022 11.686l-.027.027M13.995 11.713l-.054.027M13.94 11.74h-.134M13.806 11.74l-.054-.027M13.752 11.713l-.027-.027"/>
    </g>
    <circle cx="13.887" cy="11.48" r=".85" style="fill:none;stroke:#585d84;stroke-width:.0212;stroke-opacity:1;stroke-linecap:round;stroke-linejoin:round"/>
    <g style="fill:none;stroke:#afafaf;stroke-width:.15;stroke-opacity:1;stroke-linecap:round;stroke-linejoin:round">
        <g class="stroked-text">
            <path d="M.363 14.315v-1M.363 13.315h.381M.744 13.315l.095.047M.84 13.362l.047.048M.887 13.41l.047.095M.935 13.505v.143M.935 13.648l-.048.095M.887 13.743l-.048.048M.84 13.791l-.096.048M.744 13.839h-.38M1.363 14.315v-.667M1.363 13.315l-.048.047M1.316 13.362l.047.048M1.363 13.41l.048-.048M1.41 13.362l-.047-.047M1.363 13.315v.095M1.84 13.648v.667M1.84 13.743l.047-.047M1.887 13.696l.095-.048M1.982 13.648h.143M2.125 13.648l.095.048M2.22 13.696l.048.095M2.268 13.791v.524M2.744 14.315v-1M2.744 13.791h.571M3.316 14.315v-1M4.173 14.267l-.096.048M4.077 14.315h-.19M3.887 14.315l-.095-.048M3.792 14.267l-.048-.095M3.744 14.172v-.381M3.744 13.791l.048-.095M3.792 13.696l.095-.048M3.887 13.648h.19M4.077 13.648l.096.048M4.173 13.696l.047.095M4.22 13.791v.095M4.22 13.886l-.476.096M5.077 14.315v-.524M5.077 13.791l-.047-.095M5.03 13.696l-.096-.048M4.935 13.648h-.191M4.744 13.648l-.095.048M5.077 14.267l-.095.048M4.982 14.315h-.238M4.744 14.315l-.095-.048M4.649 14.267l-.048-.095M4.601 14.172v-.095M4.601 14.077l.048-.095M4.649 13.982l.095-.048M4.744 13.934h.238M4.982 13.934l.095-.048M5.982 14.315v-1M5.982 14.267l-.095.048M5.887 14.315h-.19M5.696 14.315l-.095-.048M5.601 14.267l-.047-.047M5.554 14.22l-.048-.096M5.506 14.124v-.285M5.506 13.839l.048-.096M5.554 13.743l.047-.047M5.601 13.696l.095-.048M5.696 13.648h.19M5.887 13.648l.095.048M6.84 14.267l-.096.048M6.744 14.315h-.19M6.554 14.315l-.096-.048M6.458 14.267l-.047-.095M6.41 14.172v-.381M6.41 13.791l.048-.095M6.458 13.696l.096-.048M6.554 13.648h.19M6.744 13.648l.095.048M6.84 13.696l.047.095M6.887 13.791v.095M6.887 13.886l-.476.096M7.316 14.315v-.667M7.316 13.839l.047-.096M7.363 13.743l.048-.047M7.41 13.696l.096-.048M7.506 13.648h.095M7.696 14.41h.762M9.22 14.315H8.65M8.935 14.315v-1M8.935 13.315l-.096.143M8.84 13.458l-.096.095M8.744 13.553l-.095.047M9.554 14.315l.523-.667M9.554 13.648l.523.667M10.649 13.315h.095M10.744 13.315l.095.047M10.84 13.362l.047.048M10.887 13.41l.047.095M10.935 13.505l.047.19M10.982 13.696v.238M10.982 13.934l-.047.19M10.935 14.124l-.048.096M10.887 14.22l-.048.047M10.84 14.267l-.096.048M10.744 14.315h-.095M10.649 14.315l-.095-.048M10.554 14.267l-.048-.047M10.506 14.22l-.048-.096M10.458 14.124l-.047-.19M10.41 13.934v-.238M10.41 13.696l.048-.19M10.458 13.505l.048-.095M10.506 13.41l.048-.048M10.554 13.362l.095-.047M11.887 13.315h-.476M11.41 13.315l-.047.476M11.363 13.791l.048-.048M11.41 13.743l.096-.047M11.506 13.696h.238M11.744 13.696l.095.047M11.84 13.743l.047.048M11.887 13.791l.047.095M11.935 13.886v.238M11.935 14.124l-.048.096M11.887 14.22l-.048.047M11.84 14.267l-.096.048M11.744 14.315h-.238M11.506 14.315l-.095-.048M11.41 14.267l-.047-.047M12.125 14.41h.762M12.982 13.315h.572M13.268 14.315v-1M13.887 14.315v-1M13.887 13.791h.571M14.458 14.315v-1M14.792 13.315h.571M15.077 14.315v-1M15.458 14.41h.762M16.458 14.315v-1M16.458 13.315h.381M16.84 13.315l.095.047M16.935 13.362l.047.048M16.982 13.41l.048.095M17.03 13.505v.143M17.03 13.648l-.048.095M16.982 13.743l-.047.048M16.935 13.791l-.096.048M16.84 13.839h-.382M17.41 13.41l.048-.048M17.458 13.362l.096-.047M17.554 13.315h.238M17.792 13.315l.095.047M17.887 13.362l.047.048M17.935 13.41l.047.095M17.982 13.505v.095M17.982 13.6l-.047.143M17.935 13.743l-.572.572M17.363 14.315h.62M18.41 14.22l.048.047M18.458 14.267l-.047.048M18.41 14.315l-.047-.048M18.363 14.267l.048-.047M18.41 14.22v.095M19.363 13.315h-.476M18.887 13.315l-.048.476M18.84 13.791l.047-.048M18.887 13.743l.095-.047M18.982 13.696h.238M19.22 13.696l.096.047M19.316 13.743l.047.048M19.363 13.791l.048.095M19.41 13.886v.238M19.41 14.124l-.047.096M19.363 14.22l-.047.047M19.316 14.267l-.096.048M19.22 14.315h-.238M18.982 14.315l-.095-.048M18.887 14.267l-.048-.047M20.268 13.648v.667M20.03 13.267l-.238.715M19.792 13.982h.619M20.792 14.315v-.667M20.792 13.743l.047-.047M20.84 13.696l.095-.048M20.935 13.648h.142M21.077 13.648l.096.048M21.173 13.696l.047.095M21.22 13.791v.524M21.22 13.791l.048-.095M21.268 13.696l.095-.048M21.363 13.648h.143M21.506 13.648l.095.048M21.601 13.696l.048.095M21.649 13.791v.524M22.125 14.315v-.667M22.125 13.743l.048-.047M22.173 13.696l.095-.048M22.268 13.648h.143M22.41 13.648l.096.048M22.506 13.696l.048.095M22.554 13.791v.524M22.554 13.791l.047-.095M22.601 13.696l.095-.048M22.696 13.648h.143M22.84 13.648l.095.048M22.935 13.696l.047.095M22.982 13.791v.524M23.22 14.41h.762M24.22 13.648v.667M24.22 13.743l.048-.047M24.268 13.696l.095-.048M24.363 13.648h.143M24.506 13.648l.095.048M24.601 13.696l.048.095M24.649 13.791v.524M25.077 14.267l.143.048M25.22 14.315h.238M25.458 14.315l.096-.048M25.554 14.267l.047-.047M25.601 14.22l.048-.096M25.649 14.124v-.095M25.649 14.03l-.048-.096M25.601 13.934l-.047-.048M25.554 13.886l-.096-.047M25.458 13.839l-.19-.048M25.268 13.791l-.095-.048M25.173 13.743l-.048-.047M25.125 13.696l-.048-.095M25.077 13.6v-.095M25.077 13.505l.048-.095M25.125 13.41l.048-.048M25.173 13.362l.095-.047M25.268 13.315h.238M25.506 13.315l.143.047M26.077 14.315v-.667M26.077 13.315l-.047.047M26.03 13.362l.047.048M26.077 13.41l.048-.048M26.125 13.362l-.048-.047M26.077 13.315v.095M26.696 14.315l-.095-.048M26.601 14.267l-.047-.095M26.554 14.172v-.857M27.077 14.315v-1M27.173 13.934l.285.38M27.458 13.648l-.38.381"/>
        </g>
        <g class="stroked-text">
            <path d="m14.342 7.733-.476.334M14.342 8.305h-1M13.342 8.305v-.381M13.342 7.924l.047-.095M13.39 7.829l.047-.048M13.437 7.781l.095-.048M13.532 7.733h.143M13.675 7.733l.095.048M13.77 7.781l.048.048M13.818 7.829l.048.095M13.866 7.924v.38M13.818 7.305V6.97M14.342 6.829v.476M14.342 7.305h-1M13.342 7.305v-.476M13.818 6.067V6.4M14.342 6.4h-1M13.342 6.4v-.476M13.342 5.4h.238M13.485 5.638l.095-.238M13.58 5.4l-.095-.238M13.77 5.543l-.19-.143M13.58 5.4l.19-.143M13.342 4.638h.238M13.485 4.876l.095-.238M13.58 4.638l-.095-.238M13.77 4.781l-.19-.143M13.58 4.638l.19-.143"/>
        </g>
    </g>
    <g style="fill:none;stroke:#afafaf;stroke-width:.1;stroke-opacity:1;stroke-linecap:round;stroke-linejoin:round">
        <path d="m12.617.685.635-.635M12.617 12.75V.685M13.252.05h1.905M15.157.05v12.7M15.157 12.75h-2.54"/>
    </g>
    <g style="fill:none;stroke:#afafaf;stroke-width:.0472;stroke-opacity:1;stroke-linecap:round;stroke-linejoin:round">
        <g class="stroked-text">
            <path d="M14.049 1.58h-.324M13.887 1.58v-.567M13.887 1.013l-.054.081M13.833 1.094l-.054.054M13.779 1.148l-.054.027"/>
        </g>
        <path d="m13.037.725.02-.098.055-.082.082-.056.098-.019h1.19l.098.02.082.055.055.082.02.098v1.19l-.02.098-.055.082-.083.056-.097.019h-1.19l-.098-.02-.082-.055-.056-.082-.02-.098Z" style="stroke:#afafaf;stroke-width:.0212;stroke-opacity:1;stroke-linecap:round;stroke-linejoin:round;fill:none"/>
    </g>
    <g class="stroked-text" style="fill:none;stroke:#afafaf;stroke-width:.0472;stroke-opacity:1;stroke-linecap:round;stroke-linejoin:round">
        <path d="m13.725 3.607.027-.027M13.752 3.58l.054-.027M13.806 3.553h.135M13.94 3.553l.055.027M13.995 3.58l.027.027M14.022 3.607l.027.054M14.049 3.661v.054M14.049 3.715l-.027.08M14.022 3.796l-.324.324M13.698 4.12h.35"/>
    </g>
    <circle cx="13.887" cy="3.86" r=".85" style="fill:none;stroke:#afafaf;stroke-width:.0212;stroke-opacity:1;stroke-linecap:round;stroke-linejoin:round"/>
    <g class="stroked-text" style="fill:none;stroke:#afafaf;stroke-width:.0472;stroke-opacity:1;stroke-linecap:round;stroke-linejoin:round">
        <path d="M13.698 6.093h.35M14.049 6.093l-.19.216M13.86 6.309h.08M13.94 6.309l.055.027M13.995 6.336l.027.027M14.022 6.363l.027.054M14.049 6.417v.135M14.049 6.552l-.027.054M14.022 6.606l-.027.027M13.995 6.633l-.054.027M13.94 6.66h-.161M13.779 6.66l-.054-.027M13.725 6.633l-.027-.027"/>
    </g>
    <circle cx="13.887" cy="6.4" r=".85" style="fill:none;stroke:#afafaf;stroke-width:.0212;stroke-opacity:1;stroke-linecap:round;stroke-linejoin:round"/>
    <g class="stroked-text" style="fill:none;stroke:#afafaf;stroke-width:.0472;stroke-opacity:1;stroke-linecap:round;stroke-linejoin:round">
        <path d="M13.995 8.822V9.2M13.86 8.606l-.135.405M13.725 9.01h.35"/>
    </g>
    <circle cx="13.887" cy="8.94" r=".85" style="fill:none;stroke:#afafaf;stroke-width:.0212;stroke-opacity:1;stroke-linecap:round;stroke-linejoin:round"/>
    <g class="stroked-text" style="fill:none;stroke:#afafaf;stroke-width:.0472;stroke-opacity:1;stroke-linecap:round;stroke-linejoin:round">
        <path d="M14.022 11.173h-.27M13.752 11.173l-.027.27M13.725 11.443l.027-.027M13.752 11.416l.054-.027M13.806 11.389h.135M13.94 11.389l.055.027M13.995 11.416l.027.027M14.022 11.443l.027.054M14.049 11.497v.135M14.049 11.632l-.027.054M14.022 11.686l-.027.027M13.995 11.713l-.054.027M13.94 11.74h-.134M13.806 11.74l-.054-.027M13.752 11.713l-.027-.027"/>
    </g>
    <circle cx="13.887" cy="11.48" r=".85" style="fill:none;stroke:#afafaf;stroke-width:.0212;stroke-opacity:1;stroke-linecap:round;stroke-linejoin:round"/>
</svg>
