<?xml version="1.0" standalone="no"?>
 <!DOCTYPE svg PUBLIC "-//W3C//DTD SVG 1.1//EN" 
 "http://www.w3.org/Graphics/SVG/1.1/DTD/svg11.dtd"> 
<svg
  xmlns:svg="http://www.w3.org/2000/svg"
  xmlns="http://www.w3.org/2000/svg"
  xmlns:xlink="http://www.w3.org/1999/xlink"
  version="1.1"
  width="27.7622mm" height="19.7866mm" viewBox="0.0000 0.0000 27.7622 19.7866">
<title>SVG Image created as PinHeader_1x07_THT_P2.54mm_nSilk.svg date 2025/05/12 22:52:34 </title>
  <desc>Image generated by PCBNEW </desc>
<g style="fill:#000000; fill-opacity:1.0000;stroke:#000000; stroke-opacity:1.0000;
stroke-linecap:round; stroke-linejoin:round;"
 transform="translate(0 0) scale(1 1)">
<path style="fill:#4D7FC4; fill-opacity:1.0000; stroke:none;fill-rule:evenodd;"
d="M 13.0369,0.7250
13.0563,0.6274
13.1116,0.5447
13.1943,0.4894
13.2919,0.4700
14.4819,0.4700
14.5795,0.4894
14.6622,0.5447
14.7175,0.6274
14.7369,0.7250
14.7369,1.9150
14.7175,2.0126
14.6622,2.0953
14.5795,2.1506
14.4819,2.1700
13.2919,2.1700
13.1943,2.1506
13.1116,2.0953
13.0563,2.0126
13.0369,1.9150
Z" /> 
</g>
<g style="fill:#4D7FC4; fill-opacity:1.0000; stroke:none;">
<circle cx="13.8869" cy="3.8600" r="0.8500" /> 
</g>
<g style="fill:#4D7FC4; fill-opacity:1.0000; stroke:none;">
<circle cx="13.8869" cy="6.4000" r="0.8500" /> 
</g>
<g style="fill:#4D7FC4; fill-opacity:1.0000; stroke:none;">
<circle cx="13.8869" cy="8.9400" r="0.8500" /> 
</g>
<g style="fill:#4D7FC4; fill-opacity:1.0000; stroke:none;">
<circle cx="13.8869" cy="11.4800" r="0.8500" /> 
</g>
<g style="fill:#4D7FC4; fill-opacity:1.0000; stroke:none;">
<circle cx="13.8869" cy="14.0200" r="0.8500" /> 
</g>
<g style="fill:#4D7FC4; fill-opacity:1.0000; stroke:none;">
<circle cx="13.8869" cy="16.5600" r="0.8500" /> 
<path style="fill:#C83434; fill-opacity:1.0000; stroke:none;fill-rule:evenodd;"
d="M 13.0369,0.7250
13.0563,0.6274
13.1116,0.5447
13.1943,0.4894
13.2919,0.4700
14.4819,0.4700
14.5795,0.4894
14.6622,0.5447
14.7175,0.6274
14.7369,0.7250
14.7369,1.9150
14.7175,2.0126
14.6622,2.0953
14.5795,2.1506
14.4819,2.1700
13.2919,2.1700
13.1943,2.1506
13.1116,2.0953
13.0563,2.0126
13.0369,1.9150
Z" /> 
</g>
<g style="fill:#C83434; fill-opacity:1.0000; stroke:none;">
<circle cx="13.8869" cy="3.8600" r="0.8500" /> 
</g>
<g style="fill:#C83434; fill-opacity:1.0000; stroke:none;">
<circle cx="13.8869" cy="6.4000" r="0.8500" /> 
</g>
<g style="fill:#C83434; fill-opacity:1.0000; stroke:none;">
<circle cx="13.8869" cy="8.9400" r="0.8500" /> 
</g>
<g style="fill:#C83434; fill-opacity:1.0000; stroke:none;">
<circle cx="13.8869" cy="11.4800" r="0.8500" /> 
</g>
<g style="fill:#C83434; fill-opacity:1.0000; stroke:none;">
<circle cx="13.8869" cy="14.0200" r="0.8500" /> 
</g>
<g style="fill:#C83434; fill-opacity:1.0000; stroke:none;">
<circle cx="13.8869" cy="16.5600" r="0.8500" /> 
</g>
<g style="fill:none; 
stroke:#585D84; stroke-width:0.0472; stroke-opacity:1; 
stroke-linecap:round; stroke-linejoin:round;">
<text x="13.8869" y="1.6033"
textLength="0.5680" font-size="0.7556" lengthAdjust="spacingAndGlyphs"
text-anchor="middle" opacity="0" stroke-opacity="0">1</text>
<g class="stroked-text"><desc>1</desc>
<path d="M14.0488 1.5797
L13.7250 1.5797
" />
<path d="M13.8869 1.5797
L13.8869 1.0130
" />
<path d="M13.8869 1.0130
L13.8329 1.0940
" />
<path d="M13.8329 1.0940
L13.7790 1.1480
" />
<path d="M13.7790 1.1480
L13.7250 1.1749
" />
</g><path style="fill:none; 
stroke:#585D84; stroke-width:0.0212; stroke-opacity:1; 
stroke-linecap:round; stroke-linejoin:round;fill:none"
d="M 13.0369,0.7250
13.0563,0.6274
13.1116,0.5447
13.1943,0.4894
13.2919,0.4700
14.4819,0.4700
14.5795,0.4894
14.6622,0.5447
14.7175,0.6274
14.7369,0.7250
14.7369,1.9150
14.7175,2.0126
14.6622,2.0953
14.5795,2.1506
14.4819,2.1700
13.2919,2.1700
13.1943,2.1506
13.1116,2.0953
13.0563,2.0126
13.0369,1.9150
Z" /> 
</g>
<g style="fill:none; 
stroke:#585D84; stroke-width:0.0472; stroke-opacity:1; 
stroke-linecap:round; stroke-linejoin:round;">
<text x="13.8869" y="4.1433"
textLength="0.5680" font-size="0.7556" lengthAdjust="spacingAndGlyphs"
text-anchor="middle" opacity="0" stroke-opacity="0">2</text>
<g class="stroked-text"><desc>2</desc>
<path d="M13.7250 3.6070
L13.7520 3.5800
" />
<path d="M13.7520 3.5800
L13.8060 3.5530
" />
<path d="M13.8060 3.5530
L13.9409 3.5530
" />
<path d="M13.9409 3.5530
L13.9948 3.5800
" />
<path d="M13.9948 3.5800
L14.0218 3.6070
" />
<path d="M14.0218 3.6070
L14.0488 3.6610
" />
<path d="M14.0488 3.6610
L14.0488 3.7149
" />
<path d="M14.0488 3.7149
L14.0218 3.7959
" />
<path d="M14.0218 3.7959
L13.6980 4.1197
" />
<path d="M13.6980 4.1197
L14.0488 4.1197
" />
</g></g>
<g style="fill:none; 
stroke:#585D84; stroke-width:0.0212; stroke-opacity:1; 
stroke-linecap:round; stroke-linejoin:round;">
<circle cx="13.8869" cy="3.8600" r="0.8500" /> 
</g>
<g style="fill:none; 
stroke:#585D84; stroke-width:0.0472; stroke-opacity:1; 
stroke-linecap:round; stroke-linejoin:round;">
<text x="13.8869" y="6.6833"
textLength="0.5680" font-size="0.7556" lengthAdjust="spacingAndGlyphs"
text-anchor="middle" opacity="0" stroke-opacity="0">3</text>
<g class="stroked-text"><desc>3</desc>
<path d="M13.6980 6.0930
L14.0488 6.0930
" />
<path d="M14.0488 6.0930
L13.8599 6.3089
" />
<path d="M13.8599 6.3089
L13.9409 6.3089
" />
<path d="M13.9409 6.3089
L13.9948 6.3359
" />
<path d="M13.9948 6.3359
L14.0218 6.3629
" />
<path d="M14.0218 6.3629
L14.0488 6.4168
" />
<path d="M14.0488 6.4168
L14.0488 6.5518
" />
<path d="M14.0488 6.5518
L14.0218 6.6057
" />
<path d="M14.0218 6.6057
L13.9948 6.6327
" />
<path d="M13.9948 6.6327
L13.9409 6.6597
" />
<path d="M13.9409 6.6597
L13.7790 6.6597
" />
<path d="M13.7790 6.6597
L13.7250 6.6327
" />
<path d="M13.7250 6.6327
L13.6980 6.6057
" />
</g></g>
<g style="fill:none; 
stroke:#585D84; stroke-width:0.0212; stroke-opacity:1; 
stroke-linecap:round; stroke-linejoin:round;">
<circle cx="13.8869" cy="6.4000" r="0.8500" /> 
</g>
<g style="fill:none; 
stroke:#585D84; stroke-width:0.0472; stroke-opacity:1; 
stroke-linecap:round; stroke-linejoin:round;">
<text x="13.8869" y="9.2233"
textLength="0.5680" font-size="0.7556" lengthAdjust="spacingAndGlyphs"
text-anchor="middle" opacity="0" stroke-opacity="0">4</text>
<g class="stroked-text"><desc>4</desc>
<path d="M13.9948 8.8219
L13.9948 9.1997
" />
<path d="M13.8599 8.6060
L13.7250 9.0108
" />
<path d="M13.7250 9.0108
L14.0758 9.0108
" />
</g></g>
<g style="fill:none; 
stroke:#585D84; stroke-width:0.0212; stroke-opacity:1; 
stroke-linecap:round; stroke-linejoin:round;">
<circle cx="13.8869" cy="8.9400" r="0.8500" /> 
</g>
<g style="fill:none; 
stroke:#585D84; stroke-width:0.0472; stroke-opacity:1; 
stroke-linecap:round; stroke-linejoin:round;">
<text x="13.8869" y="11.7633"
textLength="0.5680" font-size="0.7556" lengthAdjust="spacingAndGlyphs"
text-anchor="middle" opacity="0" stroke-opacity="0">5</text>
<g class="stroked-text"><desc>5</desc>
<path d="M14.0218 11.1730
L13.7520 11.1730
" />
<path d="M13.7520 11.1730
L13.7250 11.4429
" />
<path d="M13.7250 11.4429
L13.7520 11.4159
" />
<path d="M13.7520 11.4159
L13.8060 11.3889
" />
<path d="M13.8060 11.3889
L13.9409 11.3889
" />
<path d="M13.9409 11.3889
L13.9948 11.4159
" />
<path d="M13.9948 11.4159
L14.0218 11.4429
" />
<path d="M14.0218 11.4429
L14.0488 11.4968
" />
<path d="M14.0488 11.4968
L14.0488 11.6318
" />
<path d="M14.0488 11.6318
L14.0218 11.6857
" />
<path d="M14.0218 11.6857
L13.9948 11.7127
" />
<path d="M13.9948 11.7127
L13.9409 11.7397
" />
<path d="M13.9409 11.7397
L13.8060 11.7397
" />
<path d="M13.8060 11.7397
L13.7520 11.7127
" />
<path d="M13.7520 11.7127
L13.7250 11.6857
" />
</g></g>
<g style="fill:none; 
stroke:#585D84; stroke-width:0.0212; stroke-opacity:1; 
stroke-linecap:round; stroke-linejoin:round;">
<circle cx="13.8869" cy="11.4800" r="0.8500" /> 
</g>
<g style="fill:none; 
stroke:#585D84; stroke-width:0.0472; stroke-opacity:1; 
stroke-linecap:round; stroke-linejoin:round;">
<text x="13.8869" y="14.3033"
textLength="0.5680" font-size="0.7556" lengthAdjust="spacingAndGlyphs"
text-anchor="middle" opacity="0" stroke-opacity="0">6</text>
<g class="stroked-text"><desc>6</desc>
<path d="M13.9948 13.7130
L13.8869 13.7130
" />
<path d="M13.8869 13.7130
L13.8329 13.7400
" />
<path d="M13.8329 13.7400
L13.8060 13.7670
" />
<path d="M13.8060 13.7670
L13.7520 13.8479
" />
<path d="M13.7520 13.8479
L13.7250 13.9559
" />
<path d="M13.7250 13.9559
L13.7250 14.1718
" />
<path d="M13.7250 14.1718
L13.7520 14.2257
" />
<path d="M13.7520 14.2257
L13.7790 14.2527
" />
<path d="M13.7790 14.2527
L13.8329 14.2797
" />
<path d="M13.8329 14.2797
L13.9409 14.2797
" />
<path d="M13.9409 14.2797
L13.9948 14.2527
" />
<path d="M13.9948 14.2527
L14.0218 14.2257
" />
<path d="M14.0218 14.2257
L14.0488 14.1718
" />
<path d="M14.0488 14.1718
L14.0488 14.0368
" />
<path d="M14.0488 14.0368
L14.0218 13.9829
" />
<path d="M14.0218 13.9829
L13.9948 13.9559
" />
<path d="M13.9948 13.9559
L13.9409 13.9289
" />
<path d="M13.9409 13.9289
L13.8329 13.9289
" />
<path d="M13.8329 13.9289
L13.7790 13.9559
" />
<path d="M13.7790 13.9559
L13.7520 13.9829
" />
<path d="M13.7520 13.9829
L13.7250 14.0368
" />
</g></g>
<g style="fill:none; 
stroke:#585D84; stroke-width:0.0212; stroke-opacity:1; 
stroke-linecap:round; stroke-linejoin:round;">
<circle cx="13.8869" cy="14.0200" r="0.8500" /> 
</g>
<g style="fill:none; 
stroke:#585D84; stroke-width:0.0472; stroke-opacity:1; 
stroke-linecap:round; stroke-linejoin:round;">
<text x="13.8869" y="16.8433"
textLength="0.5680" font-size="0.7556" lengthAdjust="spacingAndGlyphs"
text-anchor="middle" opacity="0" stroke-opacity="0">7</text>
<g class="stroked-text"><desc>7</desc>
<path d="M13.6980 16.2530
L14.0758 16.2530
" />
<path d="M14.0758 16.2530
L13.8329 16.8197
" />
</g></g>
<g style="fill:none; 
stroke:#585D84; stroke-width:0.0212; stroke-opacity:1; 
stroke-linecap:round; stroke-linejoin:round;">
<circle cx="13.8869" cy="16.5600" r="0.8500" /> 
</g>
<g style="fill:none; 
stroke:#AFAFAF; stroke-width:0.1500; stroke-opacity:1; 
stroke-linecap:round; stroke-linejoin:round;">
<text x="13.8869" y="19.4400"
textLength="27.7738" font-size="1.3333" lengthAdjust="spacingAndGlyphs"
text-anchor="middle" opacity="0" stroke-opacity="0">PinHeader_1x07_THT_P2.54mm_nSilk</text>
<g class="stroked-text"><desc>PinHeader_1x07_THT_P2.54mm_nSilk</desc>
<path d="M0.3631 19.3948
L0.3631 18.3948
" />
<path d="M0.3631 18.3948
L0.7440 18.3948
" />
<path d="M0.7440 18.3948
L0.8393 18.4424
" />
<path d="M0.8393 18.4424
L0.8869 18.4901
" />
<path d="M0.8869 18.4901
L0.9345 18.5853
" />
<path d="M0.9345 18.5853
L0.9345 18.7282
" />
<path d="M0.9345 18.7282
L0.8869 18.8234
" />
<path d="M0.8869 18.8234
L0.8393 18.8710
" />
<path d="M0.8393 18.8710
L0.7440 18.9186
" />
<path d="M0.7440 18.9186
L0.3631 18.9186
" />
<path d="M1.3631 19.3948
L1.3631 18.7282
" />
<path d="M1.3631 18.3948
L1.3155 18.4424
" />
<path d="M1.3155 18.4424
L1.3631 18.4901
" />
<path d="M1.3631 18.4901
L1.4107 18.4424
" />
<path d="M1.4107 18.4424
L1.3631 18.3948
" />
<path d="M1.3631 18.3948
L1.3631 18.4901
" />
<path d="M1.8393 18.7282
L1.8393 19.3948
" />
<path d="M1.8393 18.8234
L1.8869 18.7758
" />
<path d="M1.8869 18.7758
L1.9821 18.7282
" />
<path d="M1.9821 18.7282
L2.1250 18.7282
" />
<path d="M2.1250 18.7282
L2.2202 18.7758
" />
<path d="M2.2202 18.7758
L2.2679 18.8710
" />
<path d="M2.2679 18.8710
L2.2679 19.3948
" />
<path d="M2.7440 19.3948
L2.7440 18.3948
" />
<path d="M2.7440 18.8710
L3.3155 18.8710
" />
<path d="M3.3155 19.3948
L3.3155 18.3948
" />
<path d="M4.1726 19.3472
L4.0774 19.3948
" />
<path d="M4.0774 19.3948
L3.8869 19.3948
" />
<path d="M3.8869 19.3948
L3.7917 19.3472
" />
<path d="M3.7917 19.3472
L3.7440 19.2520
" />
<path d="M3.7440 19.2520
L3.7440 18.8710
" />
<path d="M3.7440 18.8710
L3.7917 18.7758
" />
<path d="M3.7917 18.7758
L3.8869 18.7282
" />
<path d="M3.8869 18.7282
L4.0774 18.7282
" />
<path d="M4.0774 18.7282
L4.1726 18.7758
" />
<path d="M4.1726 18.7758
L4.2202 18.8710
" />
<path d="M4.2202 18.8710
L4.2202 18.9662
" />
<path d="M4.2202 18.9662
L3.7440 19.0615
" />
<path d="M5.0774 19.3948
L5.0774 18.8710
" />
<path d="M5.0774 18.8710
L5.0298 18.7758
" />
<path d="M5.0298 18.7758
L4.9345 18.7282
" />
<path d="M4.9345 18.7282
L4.7440 18.7282
" />
<path d="M4.7440 18.7282
L4.6488 18.7758
" />
<path d="M5.0774 19.3472
L4.9821 19.3948
" />
<path d="M4.9821 19.3948
L4.7440 19.3948
" />
<path d="M4.7440 19.3948
L4.6488 19.3472
" />
<path d="M4.6488 19.3472
L4.6012 19.2520
" />
<path d="M4.6012 19.2520
L4.6012 19.1567
" />
<path d="M4.6012 19.1567
L4.6488 19.0615
" />
<path d="M4.6488 19.0615
L4.7440 19.0139
" />
<path d="M4.7440 19.0139
L4.9821 19.0139
" />
<path d="M4.9821 19.0139
L5.0774 18.9662
" />
<path d="M5.9821 19.3948
L5.9821 18.3948
" />
<path d="M5.9821 19.3472
L5.8869 19.3948
" />
<path d="M5.8869 19.3948
L5.6964 19.3948
" />
<path d="M5.6964 19.3948
L5.6012 19.3472
" />
<path d="M5.6012 19.3472
L5.5536 19.2996
" />
<path d="M5.5536 19.2996
L5.5060 19.2043
" />
<path d="M5.5060 19.2043
L5.5060 18.9186
" />
<path d="M5.5060 18.9186
L5.5536 18.8234
" />
<path d="M5.5536 18.8234
L5.6012 18.7758
" />
<path d="M5.6012 18.7758
L5.6964 18.7282
" />
<path d="M5.6964 18.7282
L5.8869 18.7282
" />
<path d="M5.8869 18.7282
L5.9821 18.7758
" />
<path d="M6.8393 19.3472
L6.7440 19.3948
" />
<path d="M6.7440 19.3948
L6.5536 19.3948
" />
<path d="M6.5536 19.3948
L6.4583 19.3472
" />
<path d="M6.4583 19.3472
L6.4107 19.2520
" />
<path d="M6.4107 19.2520
L6.4107 18.8710
" />
<path d="M6.4107 18.8710
L6.4583 18.7758
" />
<path d="M6.4583 18.7758
L6.5536 18.7282
" />
<path d="M6.5536 18.7282
L6.7440 18.7282
" />
<path d="M6.7440 18.7282
L6.8393 18.7758
" />
<path d="M6.8393 18.7758
L6.8869 18.8710
" />
<path d="M6.8869 18.8710
L6.8869 18.9662
" />
<path d="M6.8869 18.9662
L6.4107 19.0615
" />
<path d="M7.3155 19.3948
L7.3155 18.7282
" />
<path d="M7.3155 18.9186
L7.3631 18.8234
" />
<path d="M7.3631 18.8234
L7.4107 18.7758
" />
<path d="M7.4107 18.7758
L7.5060 18.7282
" />
<path d="M7.5060 18.7282
L7.6012 18.7282
" />
<path d="M7.6964 19.4901
L8.4583 19.4901
" />
<path d="M9.2202 19.3948
L8.6488 19.3948
" />
<path d="M8.9345 19.3948
L8.9345 18.3948
" />
<path d="M8.9345 18.3948
L8.8393 18.5377
" />
<path d="M8.8393 18.5377
L8.7440 18.6329
" />
<path d="M8.7440 18.6329
L8.6488 18.6805
" />
<path d="M9.5536 19.3948
L10.0774 18.7282
" />
<path d="M9.5536 18.7282
L10.0774 19.3948
" />
<path d="M10.6488 18.3948
L10.7440 18.3948
" />
<path d="M10.7440 18.3948
L10.8393 18.4424
" />
<path d="M10.8393 18.4424
L10.8869 18.4901
" />
<path d="M10.8869 18.4901
L10.9345 18.5853
" />
<path d="M10.9345 18.5853
L10.9821 18.7758
" />
<path d="M10.9821 18.7758
L10.9821 19.0139
" />
<path d="M10.9821 19.0139
L10.9345 19.2043
" />
<path d="M10.9345 19.2043
L10.8869 19.2996
" />
<path d="M10.8869 19.2996
L10.8393 19.3472
" />
<path d="M10.8393 19.3472
L10.7440 19.3948
" />
<path d="M10.7440 19.3948
L10.6488 19.3948
" />
<path d="M10.6488 19.3948
L10.5536 19.3472
" />
<path d="M10.5536 19.3472
L10.5060 19.2996
" />
<path d="M10.5060 19.2996
L10.4583 19.2043
" />
<path d="M10.4583 19.2043
L10.4107 19.0139
" />
<path d="M10.4107 19.0139
L10.4107 18.7758
" />
<path d="M10.4107 18.7758
L10.4583 18.5853
" />
<path d="M10.4583 18.5853
L10.5060 18.4901
" />
<path d="M10.5060 18.4901
L10.5536 18.4424
" />
<path d="M10.5536 18.4424
L10.6488 18.3948
" />
<path d="M11.3155 18.3948
L11.9821 18.3948
" />
<path d="M11.9821 18.3948
L11.5536 19.3948
" />
<path d="M12.1250 19.4901
L12.8869 19.4901
" />
<path d="M12.9821 18.3948
L13.5536 18.3948
" />
<path d="M13.2679 19.3948
L13.2679 18.3948
" />
<path d="M13.8869 19.3948
L13.8869 18.3948
" />
<path d="M13.8869 18.8710
L14.4583 18.8710
" />
<path d="M14.4583 19.3948
L14.4583 18.3948
" />
<path d="M14.7917 18.3948
L15.3631 18.3948
" />
<path d="M15.0774 19.3948
L15.0774 18.3948
" />
<path d="M15.4583 19.4901
L16.2202 19.4901
" />
<path d="M16.4583 19.3948
L16.4583 18.3948
" />
<path d="M16.4583 18.3948
L16.8393 18.3948
" />
<path d="M16.8393 18.3948
L16.9345 18.4424
" />
<path d="M16.9345 18.4424
L16.9821 18.4901
" />
<path d="M16.9821 18.4901
L17.0298 18.5853
" />
<path d="M17.0298 18.5853
L17.0298 18.7282
" />
<path d="M17.0298 18.7282
L16.9821 18.8234
" />
<path d="M16.9821 18.8234
L16.9345 18.8710
" />
<path d="M16.9345 18.8710
L16.8393 18.9186
" />
<path d="M16.8393 18.9186
L16.4583 18.9186
" />
<path d="M17.4107 18.4901
L17.4583 18.4424
" />
<path d="M17.4583 18.4424
L17.5536 18.3948
" />
<path d="M17.5536 18.3948
L17.7917 18.3948
" />
<path d="M17.7917 18.3948
L17.8869 18.4424
" />
<path d="M17.8869 18.4424
L17.9345 18.4901
" />
<path d="M17.9345 18.4901
L17.9821 18.5853
" />
<path d="M17.9821 18.5853
L17.9821 18.6805
" />
<path d="M17.9821 18.6805
L17.9345 18.8234
" />
<path d="M17.9345 18.8234
L17.3631 19.3948
" />
<path d="M17.3631 19.3948
L17.9821 19.3948
" />
<path d="M18.4107 19.2996
L18.4583 19.3472
" />
<path d="M18.4583 19.3472
L18.4107 19.3948
" />
<path d="M18.4107 19.3948
L18.3631 19.3472
" />
<path d="M18.3631 19.3472
L18.4107 19.2996
" />
<path d="M18.4107 19.2996
L18.4107 19.3948
" />
<path d="M19.3631 18.3948
L18.8869 18.3948
" />
<path d="M18.8869 18.3948
L18.8393 18.8710
" />
<path d="M18.8393 18.8710
L18.8869 18.8234
" />
<path d="M18.8869 18.8234
L18.9821 18.7758
" />
<path d="M18.9821 18.7758
L19.2202 18.7758
" />
<path d="M19.2202 18.7758
L19.3155 18.8234
" />
<path d="M19.3155 18.8234
L19.3631 18.8710
" />
<path d="M19.3631 18.8710
L19.4107 18.9662
" />
<path d="M19.4107 18.9662
L19.4107 19.2043
" />
<path d="M19.4107 19.2043
L19.3631 19.2996
" />
<path d="M19.3631 19.2996
L19.3155 19.3472
" />
<path d="M19.3155 19.3472
L19.2202 19.3948
" />
<path d="M19.2202 19.3948
L18.9821 19.3948
" />
<path d="M18.9821 19.3948
L18.8869 19.3472
" />
<path d="M18.8869 19.3472
L18.8393 19.2996
" />
<path d="M20.2679 18.7282
L20.2679 19.3948
" />
<path d="M20.0298 18.3472
L19.7917 19.0615
" />
<path d="M19.7917 19.0615
L20.4107 19.0615
" />
<path d="M20.7917 19.3948
L20.7917 18.7282
" />
<path d="M20.7917 18.8234
L20.8393 18.7758
" />
<path d="M20.8393 18.7758
L20.9345 18.7282
" />
<path d="M20.9345 18.7282
L21.0774 18.7282
" />
<path d="M21.0774 18.7282
L21.1726 18.7758
" />
<path d="M21.1726 18.7758
L21.2202 18.8710
" />
<path d="M21.2202 18.8710
L21.2202 19.3948
" />
<path d="M21.2202 18.8710
L21.2679 18.7758
" />
<path d="M21.2679 18.7758
L21.3631 18.7282
" />
<path d="M21.3631 18.7282
L21.5060 18.7282
" />
<path d="M21.5060 18.7282
L21.6012 18.7758
" />
<path d="M21.6012 18.7758
L21.6488 18.8710
" />
<path d="M21.6488 18.8710
L21.6488 19.3948
" />
<path d="M22.1250 19.3948
L22.1250 18.7282
" />
<path d="M22.1250 18.8234
L22.1726 18.7758
" />
<path d="M22.1726 18.7758
L22.2679 18.7282
" />
<path d="M22.2679 18.7282
L22.4107 18.7282
" />
<path d="M22.4107 18.7282
L22.5060 18.7758
" />
<path d="M22.5060 18.7758
L22.5536 18.8710
" />
<path d="M22.5536 18.8710
L22.5536 19.3948
" />
<path d="M22.5536 18.8710
L22.6012 18.7758
" />
<path d="M22.6012 18.7758
L22.6964 18.7282
" />
<path d="M22.6964 18.7282
L22.8393 18.7282
" />
<path d="M22.8393 18.7282
L22.9345 18.7758
" />
<path d="M22.9345 18.7758
L22.9821 18.8710
" />
<path d="M22.9821 18.8710
L22.9821 19.3948
" />
<path d="M23.2202 19.4901
L23.9821 19.4901
" />
<path d="M24.2202 18.7282
L24.2202 19.3948
" />
<path d="M24.2202 18.8234
L24.2679 18.7758
" />
<path d="M24.2679 18.7758
L24.3631 18.7282
" />
<path d="M24.3631 18.7282
L24.5060 18.7282
" />
<path d="M24.5060 18.7282
L24.6012 18.7758
" />
<path d="M24.6012 18.7758
L24.6488 18.8710
" />
<path d="M24.6488 18.8710
L24.6488 19.3948
" />
<path d="M25.0774 19.3472
L25.2202 19.3948
" />
<path d="M25.2202 19.3948
L25.4583 19.3948
" />
<path d="M25.4583 19.3948
L25.5536 19.3472
" />
<path d="M25.5536 19.3472
L25.6012 19.2996
" />
<path d="M25.6012 19.2996
L25.6488 19.2043
" />
<path d="M25.6488 19.2043
L25.6488 19.1091
" />
<path d="M25.6488 19.1091
L25.6012 19.0139
" />
<path d="M25.6012 19.0139
L25.5536 18.9662
" />
<path d="M25.5536 18.9662
L25.4583 18.9186
" />
<path d="M25.4583 18.9186
L25.2679 18.8710
" />
<path d="M25.2679 18.8710
L25.1726 18.8234
" />
<path d="M25.1726 18.8234
L25.1250 18.7758
" />
<path d="M25.1250 18.7758
L25.0774 18.6805
" />
<path d="M25.0774 18.6805
L25.0774 18.5853
" />
<path d="M25.0774 18.5853
L25.1250 18.4901
" />
<path d="M25.1250 18.4901
L25.1726 18.4424
" />
<path d="M25.1726 18.4424
L25.2679 18.3948
" />
<path d="M25.2679 18.3948
L25.5060 18.3948
" />
<path d="M25.5060 18.3948
L25.6488 18.4424
" />
<path d="M26.0774 19.3948
L26.0774 18.7282
" />
<path d="M26.0774 18.3948
L26.0298 18.4424
" />
<path d="M26.0298 18.4424
L26.0774 18.4901
" />
<path d="M26.0774 18.4901
L26.1250 18.4424
" />
<path d="M26.1250 18.4424
L26.0774 18.3948
" />
<path d="M26.0774 18.3948
L26.0774 18.4901
" />
<path d="M26.6964 19.3948
L26.6012 19.3472
" />
<path d="M26.6012 19.3472
L26.5536 19.2520
" />
<path d="M26.5536 19.2520
L26.5536 18.3948
" />
<path d="M27.0774 19.3948
L27.0774 18.3948
" />
<path d="M27.1726 19.0139
L27.4583 19.3948
" />
<path d="M27.4583 18.7282
L27.0774 19.1091
" />
</g><g transform="rotate(-90.000000 13.8869 8.9400)">
<text x="13.8869" y="9.4400"
textLength="4.5357" font-size="1.3333" lengthAdjust="spacingAndGlyphs"
text-anchor="middle" opacity="0" stroke-opacity="0">REF**</text>
</g>
<g class="stroked-text"><desc>REF**</desc>
<path d="M14.3417 10.2733
L13.8655 10.6067
" />
<path d="M14.3417 10.8448
L13.3417 10.8448
" />
<path d="M13.3417 10.8448
L13.3417 10.4638
" />
<path d="M13.3417 10.4638
L13.3893 10.3686
" />
<path d="M13.3893 10.3686
L13.4370 10.3210
" />
<path d="M13.4370 10.3210
L13.5322 10.2733
" />
<path d="M13.5322 10.2733
L13.6751 10.2733
" />
<path d="M13.6751 10.2733
L13.7703 10.3210
" />
<path d="M13.7703 10.3210
L13.8179 10.3686
" />
<path d="M13.8179 10.3686
L13.8655 10.4638
" />
<path d="M13.8655 10.4638
L13.8655 10.8448
" />
<path d="M13.8179 9.8448
L13.8179 9.5114
" />
<path d="M14.3417 9.3686
L14.3417 9.8448
" />
<path d="M14.3417 9.8448
L13.3417 9.8448
" />
<path d="M13.3417 9.8448
L13.3417 9.3686
" />
<path d="M13.8179 8.6067
L13.8179 8.9400
" />
<path d="M14.3417 8.9400
L13.3417 8.9400
" />
<path d="M13.3417 8.9400
L13.3417 8.4638
" />
<path d="M13.3417 7.9400
L13.5798 7.9400
" />
<path d="M13.4846 8.1781
L13.5798 7.9400
" />
<path d="M13.5798 7.9400
L13.4846 7.7019
" />
<path d="M13.7703 8.0829
L13.5798 7.9400
" />
<path d="M13.5798 7.9400
L13.7703 7.7971
" />
<path d="M13.3417 7.1781
L13.5798 7.1781
" />
<path d="M13.4846 7.4162
L13.5798 7.1781
" />
<path d="M13.5798 7.1781
L13.4846 6.9400
" />
<path d="M13.7703 7.3210
L13.5798 7.1781
" />
<path d="M13.5798 7.1781
L13.7703 7.0352
" />
</g></g>
<g style="fill:none; 
stroke:#AFAFAF; stroke-width:0.1000; stroke-opacity:1; 
stroke-linecap:round; stroke-linejoin:round;">
<path d="M12.6169 0.6850
L13.2519 0.0500
" />
<path d="M12.6169 17.8300
L12.6169 0.6850
" />
<path d="M13.2519 0.0500
L15.1569 0.0500
" />
<path d="M15.1569 0.0500
L15.1569 17.8300
" />
<path d="M15.1569 17.8300
L12.6169 17.8300
" />
</g>
<g style="fill:none; 
stroke:#AFAFAF; stroke-width:0.0472; stroke-opacity:1; 
stroke-linecap:round; stroke-linejoin:round;">
<text x="13.8869" y="1.6033"
textLength="0.5680" font-size="0.7556" lengthAdjust="spacingAndGlyphs"
text-anchor="middle" opacity="0" stroke-opacity="0">1</text>
<g class="stroked-text"><desc>1</desc>
<path d="M14.0488 1.5797
L13.7250 1.5797
" />
<path d="M13.8869 1.5797
L13.8869 1.0130
" />
<path d="M13.8869 1.0130
L13.8329 1.0940
" />
<path d="M13.8329 1.0940
L13.7790 1.1480
" />
<path d="M13.7790 1.1480
L13.7250 1.1749
" />
</g><path style="fill:none; 
stroke:#AFAFAF; stroke-width:0.0212; stroke-opacity:1; 
stroke-linecap:round; stroke-linejoin:round;fill:none"
d="M 13.0369,0.7250
13.0563,0.6274
13.1116,0.5447
13.1943,0.4894
13.2919,0.4700
14.4819,0.4700
14.5795,0.4894
14.6622,0.5447
14.7175,0.6274
14.7369,0.7250
14.7369,1.9150
14.7175,2.0126
14.6622,2.0953
14.5795,2.1506
14.4819,2.1700
13.2919,2.1700
13.1943,2.1506
13.1116,2.0953
13.0563,2.0126
13.0369,1.9150
Z" /> 
</g>
<g style="fill:none; 
stroke:#AFAFAF; stroke-width:0.0472; stroke-opacity:1; 
stroke-linecap:round; stroke-linejoin:round;">
<text x="13.8869" y="4.1433"
textLength="0.5680" font-size="0.7556" lengthAdjust="spacingAndGlyphs"
text-anchor="middle" opacity="0" stroke-opacity="0">2</text>
<g class="stroked-text"><desc>2</desc>
<path d="M13.7250 3.6070
L13.7520 3.5800
" />
<path d="M13.7520 3.5800
L13.8060 3.5530
" />
<path d="M13.8060 3.5530
L13.9409 3.5530
" />
<path d="M13.9409 3.5530
L13.9948 3.5800
" />
<path d="M13.9948 3.5800
L14.0218 3.6070
" />
<path d="M14.0218 3.6070
L14.0488 3.6610
" />
<path d="M14.0488 3.6610
L14.0488 3.7149
" />
<path d="M14.0488 3.7149
L14.0218 3.7959
" />
<path d="M14.0218 3.7959
L13.6980 4.1197
" />
<path d="M13.6980 4.1197
L14.0488 4.1197
" />
</g></g>
<g style="fill:none; 
stroke:#AFAFAF; stroke-width:0.0212; stroke-opacity:1; 
stroke-linecap:round; stroke-linejoin:round;">
<circle cx="13.8869" cy="3.8600" r="0.8500" /> 
</g>
<g style="fill:none; 
stroke:#AFAFAF; stroke-width:0.0472; stroke-opacity:1; 
stroke-linecap:round; stroke-linejoin:round;">
<text x="13.8869" y="6.6833"
textLength="0.5680" font-size="0.7556" lengthAdjust="spacingAndGlyphs"
text-anchor="middle" opacity="0" stroke-opacity="0">3</text>
<g class="stroked-text"><desc>3</desc>
<path d="M13.6980 6.0930
L14.0488 6.0930
" />
<path d="M14.0488 6.0930
L13.8599 6.3089
" />
<path d="M13.8599 6.3089
L13.9409 6.3089
" />
<path d="M13.9409 6.3089
L13.9948 6.3359
" />
<path d="M13.9948 6.3359
L14.0218 6.3629
" />
<path d="M14.0218 6.3629
L14.0488 6.4168
" />
<path d="M14.0488 6.4168
L14.0488 6.5518
" />
<path d="M14.0488 6.5518
L14.0218 6.6057
" />
<path d="M14.0218 6.6057
L13.9948 6.6327
" />
<path d="M13.9948 6.6327
L13.9409 6.6597
" />
<path d="M13.9409 6.6597
L13.7790 6.6597
" />
<path d="M13.7790 6.6597
L13.7250 6.6327
" />
<path d="M13.7250 6.6327
L13.6980 6.6057
" />
</g></g>
<g style="fill:none; 
stroke:#AFAFAF; stroke-width:0.0212; stroke-opacity:1; 
stroke-linecap:round; stroke-linejoin:round;">
<circle cx="13.8869" cy="6.4000" r="0.8500" /> 
</g>
<g style="fill:none; 
stroke:#AFAFAF; stroke-width:0.0472; stroke-opacity:1; 
stroke-linecap:round; stroke-linejoin:round;">
<text x="13.8869" y="9.2233"
textLength="0.5680" font-size="0.7556" lengthAdjust="spacingAndGlyphs"
text-anchor="middle" opacity="0" stroke-opacity="0">4</text>
<g class="stroked-text"><desc>4</desc>
<path d="M13.9948 8.8219
L13.9948 9.1997
" />
<path d="M13.8599 8.6060
L13.7250 9.0108
" />
<path d="M13.7250 9.0108
L14.0758 9.0108
" />
</g></g>
<g style="fill:none; 
stroke:#AFAFAF; stroke-width:0.0212; stroke-opacity:1; 
stroke-linecap:round; stroke-linejoin:round;">
<circle cx="13.8869" cy="8.9400" r="0.8500" /> 
</g>
<g style="fill:none; 
stroke:#AFAFAF; stroke-width:0.0472; stroke-opacity:1; 
stroke-linecap:round; stroke-linejoin:round;">
<text x="13.8869" y="11.7633"
textLength="0.5680" font-size="0.7556" lengthAdjust="spacingAndGlyphs"
text-anchor="middle" opacity="0" stroke-opacity="0">5</text>
<g class="stroked-text"><desc>5</desc>
<path d="M14.0218 11.1730
L13.7520 11.1730
" />
<path d="M13.7520 11.1730
L13.7250 11.4429
" />
<path d="M13.7250 11.4429
L13.7520 11.4159
" />
<path d="M13.7520 11.4159
L13.8060 11.3889
" />
<path d="M13.8060 11.3889
L13.9409 11.3889
" />
<path d="M13.9409 11.3889
L13.9948 11.4159
" />
<path d="M13.9948 11.4159
L14.0218 11.4429
" />
<path d="M14.0218 11.4429
L14.0488 11.4968
" />
<path d="M14.0488 11.4968
L14.0488 11.6318
" />
<path d="M14.0488 11.6318
L14.0218 11.6857
" />
<path d="M14.0218 11.6857
L13.9948 11.7127
" />
<path d="M13.9948 11.7127
L13.9409 11.7397
" />
<path d="M13.9409 11.7397
L13.8060 11.7397
" />
<path d="M13.8060 11.7397
L13.7520 11.7127
" />
<path d="M13.7520 11.7127
L13.7250 11.6857
" />
</g></g>
<g style="fill:none; 
stroke:#AFAFAF; stroke-width:0.0212; stroke-opacity:1; 
stroke-linecap:round; stroke-linejoin:round;">
<circle cx="13.8869" cy="11.4800" r="0.8500" /> 
</g>
<g style="fill:none; 
stroke:#AFAFAF; stroke-width:0.0472; stroke-opacity:1; 
stroke-linecap:round; stroke-linejoin:round;">
<text x="13.8869" y="14.3033"
textLength="0.5680" font-size="0.7556" lengthAdjust="spacingAndGlyphs"
text-anchor="middle" opacity="0" stroke-opacity="0">6</text>
<g class="stroked-text"><desc>6</desc>
<path d="M13.9948 13.7130
L13.8869 13.7130
" />
<path d="M13.8869 13.7130
L13.8329 13.7400
" />
<path d="M13.8329 13.7400
L13.8060 13.7670
" />
<path d="M13.8060 13.7670
L13.7520 13.8479
" />
<path d="M13.7520 13.8479
L13.7250 13.9559
" />
<path d="M13.7250 13.9559
L13.7250 14.1718
" />
<path d="M13.7250 14.1718
L13.7520 14.2257
" />
<path d="M13.7520 14.2257
L13.7790 14.2527
" />
<path d="M13.7790 14.2527
L13.8329 14.2797
" />
<path d="M13.8329 14.2797
L13.9409 14.2797
" />
<path d="M13.9409 14.2797
L13.9948 14.2527
" />
<path d="M13.9948 14.2527
L14.0218 14.2257
" />
<path d="M14.0218 14.2257
L14.0488 14.1718
" />
<path d="M14.0488 14.1718
L14.0488 14.0368
" />
<path d="M14.0488 14.0368
L14.0218 13.9829
" />
<path d="M14.0218 13.9829
L13.9948 13.9559
" />
<path d="M13.9948 13.9559
L13.9409 13.9289
" />
<path d="M13.9409 13.9289
L13.8329 13.9289
" />
<path d="M13.8329 13.9289
L13.7790 13.9559
" />
<path d="M13.7790 13.9559
L13.7520 13.9829
" />
<path d="M13.7520 13.9829
L13.7250 14.0368
" />
</g></g>
<g style="fill:none; 
stroke:#AFAFAF; stroke-width:0.0212; stroke-opacity:1; 
stroke-linecap:round; stroke-linejoin:round;">
<circle cx="13.8869" cy="14.0200" r="0.8500" /> 
</g>
<g style="fill:none; 
stroke:#AFAFAF; stroke-width:0.0472; stroke-opacity:1; 
stroke-linecap:round; stroke-linejoin:round;">
<text x="13.8869" y="16.8433"
textLength="0.5680" font-size="0.7556" lengthAdjust="spacingAndGlyphs"
text-anchor="middle" opacity="0" stroke-opacity="0">7</text>
<g class="stroked-text"><desc>7</desc>
<path d="M13.6980 16.2530
L14.0758 16.2530
" />
<path d="M14.0758 16.2530
L13.8329 16.8197
" />
</g></g>
<g style="fill:none; 
stroke:#AFAFAF; stroke-width:0.0212; stroke-opacity:1; 
stroke-linecap:round; stroke-linejoin:round;">
<circle cx="13.8869" cy="16.5600" r="0.8500" /> 
</g> 
</svg>
