<svg xmlns="http://www.w3.org/2000/svg" width="118.656" height="131.424" viewBox="0 0 31.394 34.773">
    <rect width="20.32" height="22.86" x="5.537" y="5.956" rx="0" style="fill:#ffffc2;fill-opacity:1;stroke:none"/>
    <g style="fill:none;stroke:#840000;stroke-width:.1524;stroke-opacity:1;stroke-linecap:round;stroke-linejoin:round">
        <rect width="20.32" height="22.86" x="5.537" y="5.956" rx="0"/>
        <path d="M5.537 8.496h-2.54M2.616 8.115l.762.762M3.378 8.115l-.762.762"/>
    </g>
    <g class="stroked-text" style="fill:none;stroke:#006464;stroke-width:.1524;stroke-opacity:1;stroke-linecap:round;stroke-linejoin:round">
        <path d="M6.956 9.076v-1.27M6.956 7.806l.725 1.27M7.681 9.076v-1.27M9.012 8.955l-.06.06M8.952 9.015l-.182.06M8.77 9.076h-.12M8.65 9.076l-.182-.06M8.468 9.015l-.121-.12M8.347 8.894l-.06-.12M8.286 8.773l-.06-.242M8.226 8.532V8.35M8.226 8.35l.06-.242M8.286 8.108l.06-.12M8.347 7.987l.12-.12M8.468 7.866l.181-.06M8.65 7.806h.12M8.77 7.806l.181.06M8.952 7.866l.06.06"/>
    </g>
    <g class="stroked-text" style="fill:none;stroke:#a90000;stroke-width:.1524;stroke-opacity:1;stroke-linecap:round;stroke-linejoin:round">
        <path d="M4.63 8.079h-.726M4.267 8.079v-1.27M4.267 6.809l-.12.181M4.146 6.99l-.12.121M4.025 7.111l-.12.06"/>
    </g>
    <g style="fill:none;stroke:#840000;stroke-width:.1524;stroke-opacity:1;stroke-linecap:round;stroke-linejoin:round">
        <path d="M5.537 11.036h-2.54M2.616 10.655l.762.762M3.378 10.655l-.762.762"/>
    </g>
    <g class="stroked-text" style="fill:none;stroke:#006464;stroke-width:.1524;stroke-opacity:1;stroke-linecap:round;stroke-linejoin:round">
        <path d="M6.956 11.616v-1.27M6.956 10.346l.725 1.27M7.681 11.616v-1.27M9.012 11.495l-.06.06M8.952 11.555l-.182.06M8.77 11.616h-.12M8.65 11.616l-.182-.06M8.468 11.555l-.121-.12M8.347 11.434l-.06-.12M8.286 11.313l-.06-.242M8.226 11.072v-.182M8.226 10.89l.06-.242M8.286 10.648l.06-.12M8.347 10.527l.12-.12M8.468 10.406l.181-.06M8.65 10.346h.12M8.77 10.346l.181.06M8.952 10.406l.06.06"/>
    </g>
    <g class="stroked-text" style="fill:none;stroke:#a90000;stroke-width:.1524;stroke-opacity:1;stroke-linecap:round;stroke-linejoin:round">
        <path d="m3.904 9.47.06-.06M3.965 9.41l.12-.061M4.086 9.349h.302M4.388 9.349l.121.06M4.51 9.41l.06.06M4.57 9.47l.06.12M4.63 9.59v.122M4.63 9.712l-.06.181M4.57 9.893l-.726.726M3.844 10.619h.786"/>
    </g>
    <path d="M5.537 13.576h-2.54" style="fill:none;stroke:#840000;stroke-width:.1524;stroke-opacity:1;stroke-linecap:round;stroke-linejoin:round"/>
    <g class="stroked-text" style="fill:none;stroke:#006464;stroke-width:.1524;stroke-opacity:1;stroke-linecap:round;stroke-linejoin:round">
        <path d="m6.774 12.886.424 1.27M7.198 14.156l.423-1.27M8.044 14.156v-1.27M8.044 12.886h.303M8.347 12.886l.181.06M8.528 12.946l.121.121M8.65 13.067l.06.121M8.71 13.188l.06.242M8.77 13.43v.181M8.77 13.612l-.06.241M8.71 13.853l-.06.121M8.65 13.974l-.122.121M8.528 14.095l-.181.06M8.347 14.156h-.303M9.314 14.156v-1.27M9.314 12.886h.303M9.617 12.886l.181.06M9.798 12.946l.121.121M9.92 13.067l.06.121M9.98 13.188l.06.242M10.04 13.43v.181M10.04 13.612l-.06.241M9.98 13.853l-.06.121M9.92 13.974l-.122.121M9.798 14.095l-.181.06M9.617 14.156h-.303M10.584 14.156v-1.27M10.584 12.886h.484M11.068 12.886l.121.06M11.19 12.946l.06.06M11.25 13.007l.06.12M11.31 13.128v.181M11.31 13.31l-.06.12M11.25 13.43l-.06.06M11.19 13.49l-.122.061M11.068 13.551h-.484M11.854 14.156v-1.27M12.338 12.886l.847 1.27M13.185 12.886l-.847 1.27"/>
    </g>
    <g class="stroked-text" style="fill:none;stroke:#a90000;stroke-width:.1524;stroke-opacity:1;stroke-linecap:round;stroke-linejoin:round">
        <path d="M3.844 11.889h.786M4.63 11.889l-.423.484M4.207 12.373h.181M4.388 12.373l.121.06M4.51 12.433l.06.06M4.57 12.494l.06.12M4.63 12.615v.302M4.63 12.917l-.06.12M4.57 13.038l-.06.06M4.51 13.098l-.122.06M4.388 13.159h-.363M4.025 13.159l-.12-.06M3.904 13.098l-.06-.06"/>
    </g>
    <path d="M5.537 16.116h-2.54" style="fill:none;stroke:#840000;stroke-width:.1524;stroke-opacity:1;stroke-linecap:round;stroke-linejoin:round"/>
    <g class="stroked-text" style="fill:none;stroke:#006464;stroke-width:.1524;stroke-opacity:1;stroke-linecap:round;stroke-linejoin:round">
        <path d="m6.774 15.426.424 1.27M7.198 16.696l.423-1.27M8.044 16.696v-1.27M8.044 15.426h.303M8.347 15.426l.181.06M8.528 15.486l.121.121M8.65 15.607l.06.121M8.71 15.728l.06.242M8.77 15.97v.181M8.77 16.151l-.06.242M8.71 16.393l-.06.121M8.65 16.514l-.122.121M8.528 16.635l-.181.06M8.347 16.696h-.303M9.314 16.696v-1.27M9.314 15.426h.303M9.617 15.426l.181.06M9.798 15.486l.121.121M9.92 15.607l.06.121M9.98 15.728l.06.242M10.04 15.97v.181M10.04 16.151l-.06.242M9.98 16.393l-.06.121M9.92 16.514l-.122.121M9.798 16.635l-.181.06M9.617 16.696h-.303"/>
    </g>
    <g class="stroked-text" style="fill:none;stroke:#a90000;stroke-width:.1524;stroke-opacity:1;stroke-linecap:round;stroke-linejoin:round">
        <path d="M4.51 14.852v.847M4.207 14.368l-.303.907M3.904 15.276h.787"/>
    </g>
    <path d="M5.537 18.656h-2.54" style="fill:none;stroke:#840000;stroke-width:.1524;stroke-opacity:1;stroke-linecap:round;stroke-linejoin:round"/>
    <g class="stroked-text" style="fill:none;stroke:#006464;stroke-width:.1524;stroke-opacity:1;stroke-linecap:round;stroke-linejoin:round">
        <path d="m6.774 17.966.424 1.27M7.198 19.236l.423-1.27M8.044 19.236v-1.27M8.044 17.966h.303M8.347 17.966l.181.06M8.528 18.026l.121.121M8.65 18.147l.06.121M8.71 18.268l.06.242M8.77 18.51v.181M8.77 18.692l-.06.241M8.71 18.933l-.06.121M8.65 19.054l-.122.121M8.528 19.175l-.181.06M8.347 19.236h-.303M9.314 19.236v-1.27M9.314 17.966h.303M9.617 17.966l.181.06M9.798 18.026l.121.121M9.92 18.147l.06.121M9.98 18.268l.06.242M10.04 18.51v.181M10.04 18.692l-.06.241M9.98 18.933l-.06.121M9.92 19.054l-.122.121M9.798 19.175l-.181.06M9.617 19.236h-.303M10.584 19.236v-1.27M11.431 17.966h.242M11.673 17.966l.12.06M11.794 18.026l.12.121M11.915 18.147l.06.242M11.975 18.39v.422M11.975 18.813l-.06.241M11.915 19.054l-.121.121M11.794 19.175l-.121.06M11.673 19.236h-.242M11.431 19.236l-.12-.06M11.31 19.175l-.12-.12M11.19 19.054l-.061-.241M11.129 18.813v-.424M11.129 18.39l.06-.243M11.19 18.147l.12-.12M11.31 18.026l.121-.06"/>
    </g>
    <g class="stroked-text" style="fill:none;stroke:#a90000;stroke-width:.1524;stroke-opacity:1;stroke-linecap:round;stroke-linejoin:round">
        <path d="M4.57 16.969h-.605M3.965 16.969l-.06.605M3.904 17.574l.06-.06M3.965 17.513l.12-.06M4.086 17.453h.302M4.388 17.453l.121.06M4.51 17.513l.06.06M4.57 17.574l.06.12M4.63 17.695v.302M4.63 17.997l-.06.12M4.57 18.118l-.06.06M4.51 18.178l-.122.06M4.388 18.239h-.302M4.086 18.239l-.121-.06M3.965 18.178l-.06-.06"/>
    </g>
    <g style="fill:none;stroke:#840000;stroke-width:.1524;stroke-opacity:1;stroke-linecap:round;stroke-linejoin:round">
        <path d="M5.537 21.196h-2.54M2.616 20.815l.762.762M3.378 20.815l-.762.762"/>
    </g>
    <g class="stroked-text" style="fill:none;stroke:#006464;stroke-width:.1524;stroke-opacity:1;stroke-linecap:round;stroke-linejoin:round">
        <path d="M6.956 21.776v-1.27M6.956 20.506l.725 1.27M7.681 21.776v-1.27M9.012 21.655l-.06.06M8.952 21.715l-.182.06M8.77 21.776h-.12M8.65 21.776l-.182-.06M8.468 21.715l-.121-.12M8.347 21.594l-.06-.12M8.286 21.473l-.06-.241M8.226 21.232v-.182M8.226 21.05l.06-.242M8.286 20.808l.06-.12M8.347 20.687l.12-.12M8.468 20.566l.181-.06M8.65 20.506h.12M8.77 20.506l.181.06M8.952 20.566l.06.06"/>
    </g>
    <g class="stroked-text" style="fill:none;stroke:#a90000;stroke-width:.1524;stroke-opacity:1;stroke-linecap:round;stroke-linejoin:round">
        <path d="M4.51 19.509h-.243M4.267 19.509l-.12.06M4.146 19.57l-.06.06M4.086 19.63l-.121.181M3.965 19.811l-.06.242M3.904 20.053v.484M3.904 20.537l.06.12M3.965 20.658l.06.06M4.025 20.718l.121.06M4.146 20.779h.242M4.388 20.779l.121-.06M4.51 20.718l.06-.06M4.57 20.658l.06-.121M4.63 20.537v-.302M4.63 20.235l-.06-.121M4.57 20.114l-.06-.06M4.51 20.053l-.122-.06M4.388 19.993h-.242M4.146 19.993l-.12.06M4.025 20.053l-.06.06M3.965 20.114l-.06.12"/>
    </g>
    <path d="M5.537 23.736h-2.54" style="fill:none;stroke:#840000;stroke-width:.1524;stroke-opacity:1;stroke-linecap:round;stroke-linejoin:round"/>
    <g class="stroked-text" style="fill:none;stroke:#006464;stroke-width:.1524;stroke-opacity:1;stroke-linecap:round;stroke-linejoin:round">
        <path d="m7.681 24.316-.423-.605M6.956 24.316v-1.27M6.956 23.046h.483M7.44 23.046l.12.06M7.56 23.106l.061.06M7.621 23.167l.06.12M7.681 23.288v.181M7.681 23.47l-.06.12M7.621 23.59l-.06.06M7.56 23.65l-.12.061M7.44 23.711h-.484M8.226 23.65h.423M8.83 24.316h-.604M8.226 24.316v-1.27M8.226 23.046h.604M9.314 24.255l.182.06M9.496 24.316h.302M9.798 24.316l.121-.06M9.919 24.255l.06-.06M9.98 24.195l.06-.121M10.04 24.074v-.121M10.04 23.953l-.06-.121M9.98 23.832l-.061-.06M9.919 23.772l-.12-.06M9.798 23.711l-.242-.06M9.556 23.65l-.12-.06M9.435 23.59l-.06-.06M9.375 23.53l-.06-.121M9.314 23.409v-.121M9.314 23.288l.06-.121M9.375 23.167l.06-.06M9.435 23.106l.121-.06M9.556 23.046h.303M9.859 23.046l.181.06M10.584 23.65h.424M11.189 24.316h-.605M10.584 24.316v-1.27M10.584 23.046h.605M11.552 23.046h.726M11.915 24.316v-1.27M6.78 22.693h5.491"/>
    </g>
    <g class="stroked-text" style="fill:none;stroke:#a90000;stroke-width:.1524;stroke-opacity:1;stroke-linecap:round;stroke-linejoin:round">
        <path d="M3.844 22.049h.847M4.69 22.049l-.544 1.27"/>
    </g>
    <path d="M5.537 26.276h-2.54" style="fill:none;stroke:#840000;stroke-width:.1524;stroke-opacity:1;stroke-linecap:round;stroke-linejoin:round"/>
    <g class="stroked-text" style="fill:none;stroke:#006464;stroke-width:.1524;stroke-opacity:1;stroke-linecap:round;stroke-linejoin:round">
        <path d="m7.621 25.646-.121-.06M7.5 25.586h-.181M7.319 25.586l-.182.06M7.137 25.646l-.12.121M7.016 25.767l-.06.121M6.956 25.888l-.06.242M6.895 26.13v.181M6.895 26.312l.06.241M6.956 26.553l.06.121M7.016 26.674l.121.121M7.137 26.795l.182.06M7.319 26.856h.12M7.44 26.856l.181-.06M7.621 26.795l.06-.06M7.681 26.735v-.424M7.681 26.312H7.44M8.226 26.856v-1.27M8.226 25.586l.725 1.27M8.951 26.856v-1.27M9.556 26.856v-1.27M9.556 25.586h.303M9.859 25.586l.181.06M10.04 25.646l.121.121M10.161 25.767l.06.121M10.222 25.888l.06.242M10.282 26.13v.181M10.282 26.312l-.06.241M10.222 26.553l-.061.121M10.161 26.674l-.121.121M10.04 26.795l-.181.06M9.859 26.856h-.303"/>
    </g>
    <g class="stroked-text" style="fill:none;stroke:#a90000;stroke-width:.1524;stroke-opacity:1;stroke-linecap:round;stroke-linejoin:round">
        <path d="m4.146 25.133-.12-.06M4.025 25.073l-.06-.06M3.965 25.012l-.06-.12M3.904 24.891v-.06M3.904 24.83l.06-.12M3.965 24.71l.06-.06M4.025 24.65l.121-.061M4.146 24.589h.242M4.388 24.589l.121.06M4.51 24.65l.06.06M4.57 24.71l.06.12M4.63 24.83v.061M4.63 24.891l-.06.121M4.57 25.012l-.06.06M4.51 25.073l-.122.06M4.388 25.133h-.242M4.146 25.133l-.12.06M4.025 25.194l-.06.06M3.965 25.254l-.06.121M3.904 25.375v.242M3.904 25.617l.06.12M3.965 25.738l.06.06M4.025 25.798l.121.06M4.146 25.859h.242M4.388 25.859l.121-.06M4.51 25.798l.06-.06M4.57 25.738l.06-.121M4.63 25.617v-.242M4.63 25.375l-.06-.12M4.57 25.254l-.06-.06M4.51 25.194l-.122-.06"/>
    </g>
    <g style="fill:none;stroke:#840000;stroke-width:.1524;stroke-opacity:1;stroke-linecap:round;stroke-linejoin:round">
        <path d="M25.857 8.496h2.54M28.016 8.115l.762.762M28.778 8.115l-.762.762"/>
    </g>
    <g class="stroked-text" style="fill:none;stroke:#006464;stroke-width:.1524;stroke-opacity:1;stroke-linecap:round;stroke-linejoin:round">
        <path d="M22.443 9.076v-1.27M22.443 7.806l.726 1.27M23.169 9.076v-1.27M24.499 8.955l-.06.06M24.439 9.015l-.182.06M24.257 9.076h-.12M24.136 9.076l-.181-.06M23.955 9.015l-.121-.12M23.834 8.894l-.06-.12M23.773 8.773l-.06-.242M23.713 8.532V8.35M23.713 8.35l.06-.242M23.773 8.108l.06-.12M23.834 7.987l.12-.12M23.955 7.866l.181-.06M24.136 7.806h.121M24.257 7.806l.182.06M24.439 7.866l.06.06"/>
    </g>
    <g class="stroked-text" style="fill:none;stroke:#a90000;stroke-width:.1524;stroke-opacity:1;stroke-linecap:round;stroke-linejoin:round">
        <path d="M26.885 8.079h-.725M26.522 8.079v-1.27M26.522 6.809l-.12.181M26.402 6.99l-.122.121M26.28 7.111l-.12.06M27.974 6.809h-.242M27.732 6.809l-.121.06M27.611 6.87l-.06.06M27.55 6.93l-.12.181M27.43 7.111l-.06.242M27.37 7.353v.484M27.37 7.837l.06.12M27.43 7.958l.06.06M27.49 8.018l.121.06M27.611 8.079h.242M27.853 8.079l.12-.06M27.974 8.018l.06-.06M28.034 7.958l.06-.121M28.095 7.837v-.302M28.095 7.535l-.06-.121M28.034 7.414l-.06-.06M27.974 7.353l-.121-.06M27.853 7.293h-.242M27.611 7.293l-.121.06M27.49 7.353l-.06.06M27.43 7.414l-.06.12"/>
    </g>
    <path d="M25.857 11.036h2.54" style="fill:none;stroke:#840000;stroke-width:.1524;stroke-opacity:1;stroke-linecap:round;stroke-linejoin:round"/>
    <g class="stroked-text" style="fill:none;stroke:#006464;stroke-width:.1524;stroke-opacity:1;stroke-linecap:round;stroke-linejoin:round">
        <path d="M19.963 11.616h-.604M19.359 11.616v-1.27M20.387 10.95h.423M20.992 11.616h-.605M20.387 11.616v-1.27M20.387 10.346h.604M21.536 11.616v-1.27M21.536 10.346h.302M21.838 10.346l.181.06M22.02 10.406l.12.121M22.14 10.527l.061.121M22.201 10.648l.06.242M22.261 10.89v.181M22.261 11.072l-.06.241M22.201 11.313l-.06.121M22.14 11.434l-.12.121M22.02 11.555l-.182.06M21.838 11.616h-.302M22.503 11.737h.968M23.773 11.616v-1.27M23.773 10.346h.484M24.257 10.346l.121.06M24.378 10.406l.06.06M24.439 10.467l.06.12M24.499 10.588v.181M24.499 10.77l-.06.12M24.439 10.89l-.06.06M24.378 10.95l-.12.061M24.257 11.011h-.484"/>
    </g>
    <g class="stroked-text" style="fill:none;stroke:#a90000;stroke-width:.1524;stroke-opacity:1;stroke-linecap:round;stroke-linejoin:round">
        <path d="M26.885 10.619h-.725M26.522 10.619v-1.27M26.522 9.349l-.12.181M26.402 9.53l-.122.121M26.28 9.651l-.12.06M28.034 9.349h-.604M27.43 9.349l-.06.605M27.37 9.954l.06-.06M27.43 9.893l.12-.06M27.55 9.833h.303M27.853 9.833l.12.06M27.974 9.893l.06.06M28.034 9.954l.06.12M28.095 10.075v.302M28.095 10.377l-.06.12M28.034 10.498l-.06.06M27.974 10.558l-.121.06M27.853 10.619h-.303M27.55 10.619l-.12-.06M27.43 10.558l-.06-.06"/>
    </g>
    <g style="fill:none;stroke:#840000;stroke-width:.1524;stroke-opacity:1;stroke-linecap:round;stroke-linejoin:round">
        <path d="M25.857 13.576h2.54M28.016 13.195l.762.762M28.778 13.195l-.762.762"/>
    </g>
    <g class="stroked-text" style="fill:none;stroke:#006464;stroke-width:.1524;stroke-opacity:1;stroke-linecap:round;stroke-linejoin:round">
        <path d="M22.443 14.156v-1.27M22.443 12.886l.726 1.27M23.169 14.156v-1.27M24.499 14.035l-.06.06M24.439 14.095l-.182.06M24.257 14.156h-.12M24.136 14.156l-.181-.06M23.955 14.095l-.121-.12M23.834 13.974l-.06-.12M23.773 13.853l-.06-.242M23.713 13.612v-.182M23.713 13.43l.06-.242M23.773 13.188l.06-.12M23.834 13.067l.12-.12M23.955 12.946l.181-.06M24.136 12.886h.121M24.257 12.886l.182.06M24.439 12.946l.06.06"/>
    </g>
    <g class="stroked-text" style="fill:none;stroke:#a90000;stroke-width:.1524;stroke-opacity:1;stroke-linecap:round;stroke-linejoin:round">
        <path d="M26.885 13.159h-.725M26.522 13.159v-1.27M26.522 11.889l-.12.181M26.402 12.07l-.122.121M26.28 12.191l-.12.06M27.974 12.312v.847M27.671 11.828l-.302.908M27.37 12.736h.785"/>
    </g>
    <path d="M25.857 16.116h2.54" style="fill:none;stroke:#840000;stroke-width:.1524;stroke-opacity:1;stroke-linecap:round;stroke-linejoin:round"/>
    <g class="stroked-text" style="fill:none;stroke:#006464;stroke-width:.1524;stroke-opacity:1;stroke-linecap:round;stroke-linejoin:round">
        <path d="m23.29 16.575-.06.06M23.23 16.635l-.182.06M23.048 16.696h-.121M22.927 16.696l-.182-.06M22.745 16.635l-.12-.12M22.624 16.514l-.06-.12M22.564 16.393l-.06-.242M22.503 16.151v-.18M22.503 15.97l.06-.242M22.564 15.728l.06-.12M22.624 15.607l.121-.12M22.745 15.486l.182-.06M22.927 15.426h.12M23.048 15.426l.181.06M23.23 15.486l.06.06M23.773 16.635l.182.06M23.955 16.696h.302M24.257 16.696l.121-.06M24.378 16.635l.06-.06M24.439 16.575l.06-.121M24.5 16.454v-.121M24.5 16.333l-.061-.121M24.439 16.212l-.06-.06M24.378 16.151l-.12-.06M24.257 16.091l-.242-.06M24.015 16.03l-.12-.06M23.894 15.97l-.06-.06M23.834 15.91l-.06-.121M23.773 15.789v-.121M23.773 15.668l.06-.121M23.834 15.547l.06-.06M23.894 15.486l.121-.06M24.015 15.426h.303M24.318 15.426l.181.06M22.389 15.073h2.225"/>
    </g>
    <g class="stroked-text" style="fill:none;stroke:#a90000;stroke-width:.1524;stroke-opacity:1;stroke-linecap:round;stroke-linejoin:round">
        <path d="M26.885 15.699h-.725M26.522 15.699v-1.27M26.522 14.429l-.12.181M26.402 14.61l-.122.121M26.28 14.731l-.12.06M27.309 14.429h.786M28.095 14.429l-.424.484M27.671 14.913h.182M27.853 14.913l.12.06M27.974 14.973l.06.06M28.034 15.034l.06.12M28.095 15.155v.302M28.095 15.457l-.06.12M28.034 15.578l-.06.06M27.974 15.638l-.121.06M27.853 15.699h-.363M27.49 15.699l-.12-.06M27.37 15.638l-.061-.06"/>
    </g>
    <path d="M25.857 18.656h2.54" style="fill:none;stroke:#840000;stroke-width:.1524;stroke-opacity:1;stroke-linecap:round;stroke-linejoin:round"/>
    <g class="stroked-text" style="fill:none;stroke:#006464;stroke-width:.1524;stroke-opacity:1;stroke-linecap:round;stroke-linejoin:round">
        <path d="M20.447 19.236v-1.27M20.447 17.966l.424.907M20.87 18.873l.424-.907M21.294 17.966v1.27M21.899 19.236v-1.27M22.443 19.175l.181.06M22.624 19.236h.303M22.927 19.236l.12-.06M23.048 19.175l.06-.06M23.108 19.115l.06-.121M23.169 18.994v-.121M23.169 18.873l-.06-.121M23.108 18.752l-.06-.06M23.048 18.692l-.121-.06M22.927 18.631l-.242-.06M22.685 18.57l-.121-.06M22.564 18.51l-.06-.06M22.503 18.45l-.06-.121M22.443 18.329v-.121M22.443 18.208l.06-.121M22.503 18.087l.06-.06M22.564 18.026l.12-.06M22.685 17.966h.302M22.987 17.966l.182.06M23.955 17.966h.242M24.197 17.966l.12.06M24.318 18.026l.12.121M24.439 18.147l.06.242M24.499 18.39v.422M24.499 18.813l-.06.241M24.439 19.054l-.121.121M24.318 19.175l-.121.06M24.197 19.236h-.242M23.955 19.236l-.121-.06M23.834 19.175l-.121-.12M23.713 19.054l-.06-.241M23.652 18.813v-.424M23.652 18.39l.06-.243M23.713 18.147l.12-.12M23.834 18.026l.12-.06"/>
    </g>
    <g class="stroked-text" style="fill:none;stroke:#a90000;stroke-width:.1524;stroke-opacity:1;stroke-linecap:round;stroke-linejoin:round">
        <path d="M26.885 18.239h-.725M26.522 18.239v-1.27M26.522 16.969l-.12.181M26.402 17.15l-.122.121M26.28 17.271l-.12.06M27.37 17.09l.06-.06M27.43 17.03l.12-.061M27.55 16.969h.303M27.853 16.969l.12.06M27.974 17.03l.06.06M28.034 17.09l.06.12M28.095 17.21v.122M28.095 17.332l-.06.181M28.034 17.513l-.725.726M27.309 18.239h.786"/>
    </g>
    <path d="M25.857 21.196h2.54" style="fill:none;stroke:#840000;stroke-width:.1524;stroke-opacity:1;stroke-linecap:round;stroke-linejoin:round"/>
    <g class="stroked-text" style="fill:none;stroke:#006464;stroke-width:.1524;stroke-opacity:1;stroke-linecap:round;stroke-linejoin:round">
        <path d="M20.447 21.776v-1.27M20.447 20.506l.424.907M20.87 21.413l.424-.907M21.294 20.506v1.27M22.14 20.506h.242M22.382 20.506l.121.06M22.503 20.566l.121.121M22.624 20.687l.06.242M22.685 20.93v.422M22.685 21.353l-.06.241M22.624 21.594l-.12.121M22.503 21.715l-.12.06M22.382 21.776h-.242M22.14 21.776l-.12-.06M22.02 21.715l-.122-.12M21.899 21.594l-.06-.242M21.838 21.353v-.424M21.838 20.93l.06-.243M21.899 20.687l.12-.12M22.02 20.566l.12-.06M23.169 21.715l.181.06M23.35 21.776h.302M23.652 21.776l.121-.06M23.773 21.715l.06-.06M23.834 21.655l.06-.121M23.894 21.534v-.121M23.894 21.413l-.06-.121M23.834 21.292l-.06-.06M23.773 21.232l-.12-.06M23.652 21.171l-.242-.06M23.41 21.11l-.12-.06M23.29 21.05l-.061-.06M23.229 20.99l-.06-.121M23.169 20.869v-.121M23.169 20.748l.06-.121M23.229 20.627l.06-.06M23.29 20.566l.12-.06M23.41 20.506h.303M23.713 20.506l.181.06M24.439 21.776v-1.27"/>
    </g>
    <g class="stroked-text" style="fill:none;stroke:#a90000;stroke-width:.1524;stroke-opacity:1;stroke-linecap:round;stroke-linejoin:round">
        <path d="M26.885 20.779h-.725M26.522 20.779v-1.27M26.522 19.509l-.12.181M26.402 19.69l-.122.121M26.28 19.811l-.12.06M28.095 20.779h-.726M27.732 20.779v-1.27M27.732 19.509l-.121.181M27.611 19.69l-.121.121M27.49 19.811l-.12.06"/>
    </g>
    <path d="M25.857 23.736h2.54" style="fill:none;stroke:#840000;stroke-width:.1524;stroke-opacity:1;stroke-linecap:round;stroke-linejoin:round"/>
    <g class="stroked-text" style="fill:none;stroke:#006464;stroke-width:.1524;stroke-opacity:1;stroke-linecap:round;stroke-linejoin:round">
        <path d="m20.205 24.255.182.06M20.387 24.316h.302M20.69 24.316l.12-.06M20.81 24.255l.06-.06M20.87 24.195l.061-.121M20.931 24.074v-.121M20.931 23.953l-.06-.121M20.87 23.832l-.06-.06M20.81 23.772l-.12-.06M20.69 23.711l-.243-.06M20.447 23.65l-.12-.06M20.326 23.59l-.06-.06M20.266 23.53l-.06-.121M20.205 23.409v-.121M20.205 23.288l.06-.121M20.266 23.167l.06-.06M20.326 23.106l.121-.06M20.447 23.046h.303M20.75 23.046l.181.06M22.2 24.195l-.06.06M22.14 24.255l-.181.06M21.959 24.316h-.12M21.838 24.316l-.181-.06M21.657 24.255l-.121-.12M21.536 24.134l-.06-.12M21.475 24.013l-.06-.242M21.415 23.772v-.182M21.415 23.59l.06-.242M21.475 23.348l.06-.12M21.536 23.227l.12-.12M21.657 23.106l.181-.06M21.838 23.046h.121M21.959 23.046l.181.06M22.14 23.106l.06.06M23.35 24.316h-.605M22.745 24.316v-1.27M23.773 24.316v-1.27M24.499 24.316l-.544-.726M24.499 23.046l-.726.726"/>
    </g>
    <g class="stroked-text" style="fill:none;stroke:#a90000;stroke-width:.1524;stroke-opacity:1;stroke-linecap:round;stroke-linejoin:round">
        <path d="M26.885 23.319h-.725M26.522 23.319v-1.27M26.522 22.049l-.12.181M26.402 22.23l-.122.121M26.28 22.351l-.12.06M27.671 22.049h.121M27.792 22.049l.121.06M27.913 22.11l.06.06M27.974 22.17l.06.12M28.034 22.29l.06.243M28.095 22.533v.302M28.095 22.835l-.06.242M28.034 23.077l-.06.12M27.974 23.198l-.06.06M27.913 23.258l-.12.06M27.792 23.319h-.12M27.671 23.319l-.12-.06M27.55 23.258l-.06-.06M27.49 23.198l-.06-.121M27.43 23.077l-.06-.242M27.37 22.835v-.302M27.37 22.533l.06-.242M27.43 22.29l.06-.12M27.49 22.17l.06-.06M27.55 22.11l.121-.061"/>
    </g>
    <path d="M25.857 26.276h2.54" style="fill:none;stroke:#840000;stroke-width:.1524;stroke-opacity:1;stroke-linecap:round;stroke-linejoin:round"/>
    <g class="stroked-text" style="fill:none;stroke:#006464;stroke-width:.1524;stroke-opacity:1;stroke-linecap:round;stroke-linejoin:round">
        <path d="M18.028 26.856v-1.27M18.028 25.586l.423.907M18.451 26.493l.424-.907M18.875 25.586v1.27M19.721 25.586h.242M19.963 25.586l.121.06M20.084 25.646l.121.121M20.205 25.767l.06.242M20.266 26.01v.422M20.266 26.433l-.06.241M20.205 26.674l-.12.121M20.084 26.795l-.12.06M19.963 26.856h-.242M19.721 26.856l-.12-.06M19.6 26.795l-.12-.12M19.48 26.674l-.061-.241M19.419 26.433v-.424M19.419 26.01l.06-.243M19.48 25.767l.12-.12M19.6 25.646l.121-.06M20.629 25.586h.725M20.991 26.856v-1.27M21.778 26.856v-1.27M22.624 25.586h.242M22.866 25.586l.121.06M22.987 25.646l.121.121M23.108 25.767l.06.242M23.169 26.01v.422M23.169 26.433l-.061.241M23.108 26.674l-.12.121M22.987 26.795l-.12.06M22.866 26.856h-.242M22.624 26.856l-.12-.06M22.503 26.795l-.12-.12M22.382 26.674l-.06-.241M22.322 26.433v-.424M22.322 26.01l.06-.243M22.382 25.767l.121-.12M22.503 25.646l.121-.06M23.713 26.856v-1.27M23.713 25.586l.726 1.27M24.439 26.856v-1.27"/>
    </g>
    <g class="stroked-text" style="fill:none;stroke:#a90000;stroke-width:.1524;stroke-opacity:1;stroke-linecap:round;stroke-linejoin:round">
        <path d="M26.885 25.859h.242M27.127 25.859l.121-.06M27.248 25.798l.06-.06M27.309 25.738l.12-.182M27.43 25.556l.06-.242M27.49 25.315v-.484M27.49 24.83l-.06-.12M27.43 24.71l-.06-.06M27.37 24.65l-.122-.061M27.248 24.589h-.242M27.006 24.589l-.12.06M26.885 24.65l-.06.06M26.825 24.71l-.06.12M26.764 24.83v.303M26.764 25.133l.06.121M26.825 25.254l.06.06M26.885 25.315l.121.06M27.006 25.375h.242M27.248 25.375l.121-.06M27.37 25.315l.06-.06M27.43 25.254l.06-.12"/>
    </g>
    <g style="fill:none;stroke:#006464;stroke-width:.1524;stroke-opacity:1;stroke-linecap:round;stroke-linejoin:round">
        <g class="stroked-text">
            <path d="M-.907-14.152v1.028M-.907-13.124l.06.12M-.847-13.003l.06.06M-.786-12.943l.12.06M-.665-12.882h.242M-.423-12.882l.12-.06M-.302-12.943l.06-.06M-.242-13.003l.06-.121M-.181-13.124v-1.028M.605-13.003l.06.06M.665-12.943l-.06.06M.605-12.882l-.06-.06M.544-12.943l.06-.06M.605-13.003v.12M.363-14.092l.12-.06M.484-14.152h.302M.786-14.152l.121.06M.907-14.092l.06.121M.968-13.97v.12M.968-13.85l-.06.121M.907-13.729l-.06.06M.847-13.669l-.121.06M.726-13.608l-.06.06M.665-13.548l-.06.121M.605-13.427v.06"/>
        </g>
        <g class="stroked-text">
            <path d="M-8.769 14.042v-1.27M-8.769 12.772h.484M-8.285 12.772l.12.06M-8.164 12.832l.06.06M-8.104 12.893l.06.12M-8.043 13.013v.182M-8.043 13.195l-.06.12M-8.104 13.316l-.06.06M-8.164 13.376l-.121.06M-8.285 13.437h-.484M-7.499 14.042v-1.27M-7.499 12.772l.423.907M-7.075 13.679l.423-.908M-6.652 12.772v1.27M-6.168 12.772l.302 1.27M-5.866 14.042l.242-.908M-5.624 13.134l.242.907M-5.382 14.042l.302-1.27M-4.717 12.772h.786M-3.93 12.772l-.424.483M-4.354 13.255h.181M-4.173 13.255l.121.06M-4.052 13.316l.06.06M-3.991 13.376l.06.121M-3.93 13.497v.303M-3.93 13.8l-.061.12M-3.991 13.92l-.06.061M-4.052 13.981l-.12.06M-4.173 14.042h-.363M-4.536 14.042l-.12-.06M-4.656 13.981l-.061-.06M-3.507 12.772h.786M-2.721 12.772l-.424.483M-3.145 13.255h.182M-2.963 13.255l.12.06M-2.842 13.316l.06.06M-2.782 13.376l.06.121M-2.721 13.497v.303M-2.721 13.8l-.06.12M-2.782 13.92l-.06.061M-2.842 13.981l-.121.06M-2.963 14.042h-.363M-3.326 14.042l-.121-.06M-3.447 13.981l-.06-.06M-1.633 12.772h-.242M-1.875 12.772l-.12.06M-1.996 12.832l-.06.06M-2.056 12.893l-.121.18M-2.177 13.074l-.06.242M-2.237 13.316v.484M-2.237 13.8l.06.12M-2.177 13.92l.06.061M-2.117 13.981l.121.06M-1.996 14.042h.242M-1.754 14.042l.121-.06M-1.633 13.981l.06-.06M-1.572 13.92l.06-.12M-1.512 13.8v-.303M-1.512 13.497l-.06-.12M-1.572 13.376l-.06-.06M-1.633 13.316l-.12-.06M-1.754 13.255h-.242M-1.996 13.255l-.12.06M-2.117 13.316l-.06.06M-2.177 13.376l-.06.121M-.726 12.772h.121M-.605 12.772l.121.06M-.484 12.832l.06.06M-.423 12.893l.06.12M-.363 13.013l.06.242M-.302 13.255v.303M-.302 13.558l-.06.242M-.363 13.8l-.06.12M-.423 13.92l-.06.061M-.484 13.981l-.12.06M-.605 14.042h-.12M-.726 14.042l-.12-.06M-.847 13.981l-.06-.06M-.907 13.92l-.06-.12M-.968 13.8l-.06-.242M-1.028 13.558v-.303M-1.028 13.255l.06-.242M-.968 13.013l.06-.12M-.907 12.893l.06-.061M-.847 12.832l.121-.06M.242 14.042v-1.27M.242 12.772h.302M.544 12.772l.182.06M.726 12.832l.12.121M.847 12.953l.06.12M.907 13.074l.06.242M.968 13.316v.181M.968 13.497l-.06.242M.907 13.74l-.06.12M.847 13.86l-.121.121M.726 13.981l-.182.06M.544 14.042H.242M1.512 14.042v-1.27M1.512 12.772l.423.907M1.935 13.679l.423-.908M2.359 12.772v1.27M2.963 13.558h.968M4.354 12.772h.726M4.717 14.042v-1.27M5.443 12.893l.06-.061M5.503 12.832l.121-.06M5.624 12.772h.303M5.927 12.772l.12.06M6.048 12.832l.06.06M6.108 12.893l.06.12M6.169 13.013v.121M6.169 13.134l-.061.182M6.108 13.316l-.726.725M5.382 14.042h.787M7.56 14.163l-.122-.061M7.438 14.102l-.12-.12M7.318 13.981l-.182-.181M7.136 13.8l-.12-.06M7.015 13.74h-.12M6.955 14.042l-.121-.06M6.834 13.981l-.121-.12M6.713 13.86l-.06-.242M6.652 13.618v-.423M6.652 13.195l.06-.242M6.713 12.953l.12-.121M6.834 12.832l.12-.06M6.955 12.772h.242M7.197 12.772l.12.06M7.318 12.832l.12.121M7.438 12.953l.06.242M7.499 13.195v.423M7.499 13.618l-.06.242M7.438 13.86l-.12.121M7.318 13.981l-.121.06M7.197 14.042h-.242M8.043 12.772V13.8M8.043 13.8l.06.12M8.104 13.92l.06.061M8.164 13.981l.121.06M8.285 14.042h.242M8.527 14.042l.121-.06M8.648 13.981l.06-.06M8.709 13.92l.06-.12M8.769 13.8V12.77"/>
        </g>
    </g>
</svg>
