<?xml version="1.0" standalone="no"?>
 <!DOCTYPE svg PUBLIC "-//W3C//DTD SVG 1.1//EN" 
 "http://www.w3.org/Graphics/SVG/1.1/DTD/svg11.dtd"> 
<svg
  xmlns:svg="http://www.w3.org/2000/svg"
  xmlns="http://www.w3.org/2000/svg"
  xmlns:xlink="http://www.w3.org/1999/xlink"
  version="1.1"
  width="31.3944mm" height="34.7726mm" viewBox="0.0000 0.0000 31.3944 34.7726">
<title>SVG Image created as PMW3360DM-T2QU_unit1.svg date 2025/04/11 03:39:52 </title>
  <desc>Image generated by Eeschema-SVG </desc>
<g style="fill:#000000; fill-opacity:1.0000;stroke:#000000; stroke-opacity:1.0000;
stroke-linecap:round; stroke-linejoin:round;"
 transform="translate(0 0) scale(1 1)">
</g>
<g style="fill:#FFFFC2; fill-opacity:1.0000; stroke:none;">
<rect x="5.537200" y="5.956300" width="20.320000" height="22.860000" rx="0.000000" />
</g>
<g style="fill:none; 
stroke:#840000; stroke-width:0.1524; stroke-opacity:1; 
stroke-linecap:round; stroke-linejoin:round;">
<rect x="5.537200" y="5.956300" width="20.320000" height="22.860000" rx="0.000000" />
<path d="M5.5372 8.4963
L2.9972 8.4963
" />
<path d="M2.6162 8.1153
L3.3782 8.8773
" />
<path d="M3.3782 8.1153
L2.6162 8.8773
" />
</g>
<g style="fill:none; 
stroke:#006464; stroke-width:0.1524; stroke-opacity:1; 
stroke-linecap:round; stroke-linejoin:round;">
<text x="6.5532" y="9.1313"
textLength="2.8037" font-size="1.6933" lengthAdjust="spacingAndGlyphs"
text-anchor="start" opacity="0" stroke-opacity="0">NC</text>
<g class="stroked-text"><desc>NC</desc>
<path d="M6.9557 9.0758
L6.9557 7.8058
" />
<path d="M6.9557 7.8058
L7.6814 9.0758
" />
<path d="M7.6814 9.0758
L7.6814 7.8058
" />
<path d="M9.0119 8.9549
L8.9515 9.0154
" />
<path d="M8.9515 9.0154
L8.7700 9.0758
" />
<path d="M8.7700 9.0758
L8.6491 9.0758
" />
<path d="M8.6491 9.0758
L8.4677 9.0154
" />
<path d="M8.4677 9.0154
L8.3467 8.8944
" />
<path d="M8.3467 8.8944
L8.2862 8.7734
" />
<path d="M8.2862 8.7734
L8.2258 8.5315
" />
<path d="M8.2258 8.5315
L8.2258 8.3501
" />
<path d="M8.2258 8.3501
L8.2862 8.1082
" />
<path d="M8.2862 8.1082
L8.3467 7.9873
" />
<path d="M8.3467 7.9873
L8.4677 7.8663
" />
<path d="M8.4677 7.8663
L8.6491 7.8058
" />
<path d="M8.6491 7.8058
L8.7700 7.8058
" />
<path d="M8.7700 7.8058
L8.9515 7.8663
" />
<path d="M8.9515 7.8663
L9.0119 7.9268
" />
</g></g>
<g style="fill:none; 
stroke:#A90000; stroke-width:0.1524; stroke-opacity:1; 
stroke-linecap:round; stroke-linejoin:round;">
<text x="4.2672" y="8.2423"
textLength="1.4127" font-size="1.6933" lengthAdjust="spacingAndGlyphs"
text-anchor="middle" opacity="0" stroke-opacity="0">1</text>
<g class="stroked-text"><desc>1</desc>
<path d="M4.6301 8.0788
L3.9044 8.0788
" />
<path d="M4.2672 8.0788
L4.2672 6.8088
" />
<path d="M4.2672 6.8088
L4.1463 6.9903
" />
<path d="M4.1463 6.9903
L4.0253 7.1112
" />
<path d="M4.0253 7.1112
L3.9044 7.1717
" />
</g></g>
<g style="fill:none; 
stroke:#840000; stroke-width:0.1524; stroke-opacity:1; 
stroke-linecap:round; stroke-linejoin:round;">
<path d="M5.5372 11.0363
L2.9972 11.0363
" />
<path d="M2.6162 10.6553
L3.3782 11.4173
" />
<path d="M3.3782 10.6553
L2.6162 11.4173
" />
</g>
<g style="fill:none; 
stroke:#006464; stroke-width:0.1524; stroke-opacity:1; 
stroke-linecap:round; stroke-linejoin:round;">
<text x="6.5532" y="11.6713"
textLength="2.8037" font-size="1.6933" lengthAdjust="spacingAndGlyphs"
text-anchor="start" opacity="0" stroke-opacity="0">NC</text>
<g class="stroked-text"><desc>NC</desc>
<path d="M6.9557 11.6158
L6.9557 10.3458
" />
<path d="M6.9557 10.3458
L7.6814 11.6158
" />
<path d="M7.6814 11.6158
L7.6814 10.3458
" />
<path d="M9.0119 11.4949
L8.9515 11.5554
" />
<path d="M8.9515 11.5554
L8.7700 11.6158
" />
<path d="M8.7700 11.6158
L8.6491 11.6158
" />
<path d="M8.6491 11.6158
L8.4677 11.5554
" />
<path d="M8.4677 11.5554
L8.3467 11.4344
" />
<path d="M8.3467 11.4344
L8.2862 11.3134
" />
<path d="M8.2862 11.3134
L8.2258 11.0715
" />
<path d="M8.2258 11.0715
L8.2258 10.8901
" />
<path d="M8.2258 10.8901
L8.2862 10.6482
" />
<path d="M8.2862 10.6482
L8.3467 10.5273
" />
<path d="M8.3467 10.5273
L8.4677 10.4063
" />
<path d="M8.4677 10.4063
L8.6491 10.3458
" />
<path d="M8.6491 10.3458
L8.7700 10.3458
" />
<path d="M8.7700 10.3458
L8.9515 10.4063
" />
<path d="M8.9515 10.4063
L9.0119 10.4668
" />
</g></g>
<g style="fill:none; 
stroke:#A90000; stroke-width:0.1524; stroke-opacity:1; 
stroke-linecap:round; stroke-linejoin:round;">
<text x="4.2672" y="10.7823"
textLength="1.4127" font-size="1.6933" lengthAdjust="spacingAndGlyphs"
text-anchor="middle" opacity="0" stroke-opacity="0">2</text>
<g class="stroked-text"><desc>2</desc>
<path d="M3.9044 9.4698
L3.9648 9.4093
" />
<path d="M3.9648 9.4093
L4.0858 9.3488
" />
<path d="M4.0858 9.3488
L4.3882 9.3488
" />
<path d="M4.3882 9.3488
L4.5091 9.4093
" />
<path d="M4.5091 9.4093
L4.5696 9.4698
" />
<path d="M4.5696 9.4698
L4.6301 9.5907
" />
<path d="M4.6301 9.5907
L4.6301 9.7117
" />
<path d="M4.6301 9.7117
L4.5696 9.8931
" />
<path d="M4.5696 9.8931
L3.8439 10.6188
" />
<path d="M3.8439 10.6188
L4.6301 10.6188
" />
</g></g>
<g style="fill:none; 
stroke:#840000; stroke-width:0.1524; stroke-opacity:1; 
stroke-linecap:round; stroke-linejoin:round;">
<path d="M5.5372 13.5763
L2.9972 13.5763
" />
</g>
<g style="fill:none; 
stroke:#006464; stroke-width:0.1524; stroke-opacity:1; 
stroke-linecap:round; stroke-linejoin:round;">
<text x="6.5532" y="14.2113"
textLength="6.9161" font-size="1.6933" lengthAdjust="spacingAndGlyphs"
text-anchor="start" opacity="0" stroke-opacity="0">VDDPIX</text>
<g class="stroked-text"><desc>VDDPIX</desc>
<path d="M6.7743 12.8858
L7.1976 14.1558
" />
<path d="M7.1976 14.1558
L7.6210 12.8858
" />
<path d="M8.0443 14.1558
L8.0443 12.8858
" />
<path d="M8.0443 12.8858
L8.3467 12.8858
" />
<path d="M8.3467 12.8858
L8.5281 12.9463
" />
<path d="M8.5281 12.9463
L8.6491 13.0673
" />
<path d="M8.6491 13.0673
L8.7096 13.1882
" />
<path d="M8.7096 13.1882
L8.7700 13.4301
" />
<path d="M8.7700 13.4301
L8.7700 13.6115
" />
<path d="M8.7700 13.6115
L8.7096 13.8534
" />
<path d="M8.7096 13.8534
L8.6491 13.9744
" />
<path d="M8.6491 13.9744
L8.5281 14.0954
" />
<path d="M8.5281 14.0954
L8.3467 14.1558
" />
<path d="M8.3467 14.1558
L8.0443 14.1558
" />
<path d="M9.3143 14.1558
L9.3143 12.8858
" />
<path d="M9.3143 12.8858
L9.6167 12.8858
" />
<path d="M9.6167 12.8858
L9.7981 12.9463
" />
<path d="M9.7981 12.9463
L9.9191 13.0673
" />
<path d="M9.9191 13.0673
L9.9796 13.1882
" />
<path d="M9.9796 13.1882
L10.0400 13.4301
" />
<path d="M10.0400 13.4301
L10.0400 13.6115
" />
<path d="M10.0400 13.6115
L9.9796 13.8534
" />
<path d="M9.9796 13.8534
L9.9191 13.9744
" />
<path d="M9.9191 13.9744
L9.7981 14.0954
" />
<path d="M9.7981 14.0954
L9.6167 14.1558
" />
<path d="M9.6167 14.1558
L9.3143 14.1558
" />
<path d="M10.5843 14.1558
L10.5843 12.8858
" />
<path d="M10.5843 12.8858
L11.0681 12.8858
" />
<path d="M11.0681 12.8858
L11.1891 12.9463
" />
<path d="M11.1891 12.9463
L11.2496 13.0068
" />
<path d="M11.2496 13.0068
L11.3100 13.1277
" />
<path d="M11.3100 13.1277
L11.3100 13.3092
" />
<path d="M11.3100 13.3092
L11.2496 13.4301
" />
<path d="M11.2496 13.4301
L11.1891 13.4906
" />
<path d="M11.1891 13.4906
L11.0681 13.5511
" />
<path d="M11.0681 13.5511
L10.5843 13.5511
" />
<path d="M11.8543 14.1558
L11.8543 12.8858
" />
<path d="M12.3382 12.8858
L13.1848 14.1558
" />
<path d="M13.1848 12.8858
L12.3382 14.1558
" />
</g></g>
<g style="fill:none; 
stroke:#A90000; stroke-width:0.1524; stroke-opacity:1; 
stroke-linecap:round; stroke-linejoin:round;">
<text x="4.2672" y="13.3223"
textLength="1.4127" font-size="1.6933" lengthAdjust="spacingAndGlyphs"
text-anchor="middle" opacity="0" stroke-opacity="0">3</text>
<g class="stroked-text"><desc>3</desc>
<path d="M3.8439 11.8888
L4.6301 11.8888
" />
<path d="M4.6301 11.8888
L4.2067 12.3726
" />
<path d="M4.2067 12.3726
L4.3882 12.3726
" />
<path d="M4.3882 12.3726
L4.5091 12.4331
" />
<path d="M4.5091 12.4331
L4.5696 12.4936
" />
<path d="M4.5696 12.4936
L4.6301 12.6145
" />
<path d="M4.6301 12.6145
L4.6301 12.9169
" />
<path d="M4.6301 12.9169
L4.5696 13.0379
" />
<path d="M4.5696 13.0379
L4.5091 13.0984
" />
<path d="M4.5091 13.0984
L4.3882 13.1588
" />
<path d="M4.3882 13.1588
L4.0253 13.1588
" />
<path d="M4.0253 13.1588
L3.9044 13.0984
" />
<path d="M3.9044 13.0984
L3.8439 13.0379
" />
</g></g>
<g style="fill:none; 
stroke:#840000; stroke-width:0.1524; stroke-opacity:1; 
stroke-linecap:round; stroke-linejoin:round;">
<path d="M5.5372 16.1163
L2.9972 16.1163
" />
</g>
<g style="fill:none; 
stroke:#006464; stroke-width:0.1524; stroke-opacity:1; 
stroke-linecap:round; stroke-linejoin:round;">
<text x="6.5532" y="16.7513"
textLength="3.8318" font-size="1.6933" lengthAdjust="spacingAndGlyphs"
text-anchor="start" opacity="0" stroke-opacity="0">VDD</text>
<g class="stroked-text"><desc>VDD</desc>
<path d="M6.7743 15.4258
L7.1976 16.6958
" />
<path d="M7.1976 16.6958
L7.6210 15.4258
" />
<path d="M8.0443 16.6958
L8.0443 15.4258
" />
<path d="M8.0443 15.4258
L8.3467 15.4258
" />
<path d="M8.3467 15.4258
L8.5281 15.4863
" />
<path d="M8.5281 15.4863
L8.6491 15.6073
" />
<path d="M8.6491 15.6073
L8.7096 15.7282
" />
<path d="M8.7096 15.7282
L8.7700 15.9701
" />
<path d="M8.7700 15.9701
L8.7700 16.1515
" />
<path d="M8.7700 16.1515
L8.7096 16.3934
" />
<path d="M8.7096 16.3934
L8.6491 16.5144
" />
<path d="M8.6491 16.5144
L8.5281 16.6354
" />
<path d="M8.5281 16.6354
L8.3467 16.6958
" />
<path d="M8.3467 16.6958
L8.0443 16.6958
" />
<path d="M9.3143 16.6958
L9.3143 15.4258
" />
<path d="M9.3143 15.4258
L9.6167 15.4258
" />
<path d="M9.6167 15.4258
L9.7981 15.4863
" />
<path d="M9.7981 15.4863
L9.9191 15.6073
" />
<path d="M9.9191 15.6073
L9.9796 15.7282
" />
<path d="M9.9796 15.7282
L10.0400 15.9701
" />
<path d="M10.0400 15.9701
L10.0400 16.1515
" />
<path d="M10.0400 16.1515
L9.9796 16.3934
" />
<path d="M9.9796 16.3934
L9.9191 16.5144
" />
<path d="M9.9191 16.5144
L9.7981 16.6354
" />
<path d="M9.7981 16.6354
L9.6167 16.6958
" />
<path d="M9.6167 16.6958
L9.3143 16.6958
" />
</g></g>
<g style="fill:none; 
stroke:#A90000; stroke-width:0.1524; stroke-opacity:1; 
stroke-linecap:round; stroke-linejoin:round;">
<text x="4.2672" y="15.8623"
textLength="1.4127" font-size="1.6933" lengthAdjust="spacingAndGlyphs"
text-anchor="middle" opacity="0" stroke-opacity="0">4</text>
<g class="stroked-text"><desc>4</desc>
<path d="M4.5091 14.8522
L4.5091 15.6988
" />
<path d="M4.2067 14.3684
L3.9044 15.2755
" />
<path d="M3.9044 15.2755
L4.6905 15.2755
" />
</g></g>
<g style="fill:none; 
stroke:#840000; stroke-width:0.1524; stroke-opacity:1; 
stroke-linecap:round; stroke-linejoin:round;">
<path d="M5.5372 18.6563
L2.9972 18.6563
" />
</g>
<g style="fill:none; 
stroke:#006464; stroke-width:0.1524; stroke-opacity:1; 
stroke-linecap:round; stroke-linejoin:round;">
<text x="6.5532" y="19.2913"
textLength="5.7671" font-size="1.6933" lengthAdjust="spacingAndGlyphs"
text-anchor="start" opacity="0" stroke-opacity="0">VDDIO</text>
<g class="stroked-text"><desc>VDDIO</desc>
<path d="M6.7743 17.9658
L7.1976 19.2358
" />
<path d="M7.1976 19.2358
L7.6210 17.9658
" />
<path d="M8.0443 19.2358
L8.0443 17.9658
" />
<path d="M8.0443 17.9658
L8.3467 17.9658
" />
<path d="M8.3467 17.9658
L8.5281 18.0263
" />
<path d="M8.5281 18.0263
L8.6491 18.1473
" />
<path d="M8.6491 18.1473
L8.7096 18.2682
" />
<path d="M8.7096 18.2682
L8.7700 18.5101
" />
<path d="M8.7700 18.5101
L8.7700 18.6915
" />
<path d="M8.7700 18.6915
L8.7096 18.9334
" />
<path d="M8.7096 18.9334
L8.6491 19.0544
" />
<path d="M8.6491 19.0544
L8.5281 19.1754
" />
<path d="M8.5281 19.1754
L8.3467 19.2358
" />
<path d="M8.3467 19.2358
L8.0443 19.2358
" />
<path d="M9.3143 19.2358
L9.3143 17.9658
" />
<path d="M9.3143 17.9658
L9.6167 17.9658
" />
<path d="M9.6167 17.9658
L9.7981 18.0263
" />
<path d="M9.7981 18.0263
L9.9191 18.1473
" />
<path d="M9.9191 18.1473
L9.9796 18.2682
" />
<path d="M9.9796 18.2682
L10.0400 18.5101
" />
<path d="M10.0400 18.5101
L10.0400 18.6915
" />
<path d="M10.0400 18.6915
L9.9796 18.9334
" />
<path d="M9.9796 18.9334
L9.9191 19.0544
" />
<path d="M9.9191 19.0544
L9.7981 19.1754
" />
<path d="M9.7981 19.1754
L9.6167 19.2358
" />
<path d="M9.6167 19.2358
L9.3143 19.2358
" />
<path d="M10.5843 19.2358
L10.5843 17.9658
" />
<path d="M11.4310 17.9658
L11.6729 17.9658
" />
<path d="M11.6729 17.9658
L11.7939 18.0263
" />
<path d="M11.7939 18.0263
L11.9148 18.1473
" />
<path d="M11.9148 18.1473
L11.9753 18.3892
" />
<path d="M11.9753 18.3892
L11.9753 18.8125
" />
<path d="M11.9753 18.8125
L11.9148 19.0544
" />
<path d="M11.9148 19.0544
L11.7939 19.1754
" />
<path d="M11.7939 19.1754
L11.6729 19.2358
" />
<path d="M11.6729 19.2358
L11.4310 19.2358
" />
<path d="M11.4310 19.2358
L11.3101 19.1754
" />
<path d="M11.3101 19.1754
L11.1891 19.0544
" />
<path d="M11.1891 19.0544
L11.1287 18.8125
" />
<path d="M11.1287 18.8125
L11.1287 18.3892
" />
<path d="M11.1287 18.3892
L11.1891 18.1473
" />
<path d="M11.1891 18.1473
L11.3101 18.0263
" />
<path d="M11.3101 18.0263
L11.4310 17.9658
" />
</g></g>
<g style="fill:none; 
stroke:#A90000; stroke-width:0.1524; stroke-opacity:1; 
stroke-linecap:round; stroke-linejoin:round;">
<text x="4.2672" y="18.4023"
textLength="1.4127" font-size="1.6933" lengthAdjust="spacingAndGlyphs"
text-anchor="middle" opacity="0" stroke-opacity="0">5</text>
<g class="stroked-text"><desc>5</desc>
<path d="M4.5696 16.9688
L3.9648 16.9688
" />
<path d="M3.9648 16.9688
L3.9044 17.5736
" />
<path d="M3.9044 17.5736
L3.9648 17.5131
" />
<path d="M3.9648 17.5131
L4.0858 17.4526
" />
<path d="M4.0858 17.4526
L4.3882 17.4526
" />
<path d="M4.3882 17.4526
L4.5091 17.5131
" />
<path d="M4.5091 17.5131
L4.5696 17.5736
" />
<path d="M4.5696 17.5736
L4.6301 17.6945
" />
<path d="M4.6301 17.6945
L4.6301 17.9969
" />
<path d="M4.6301 17.9969
L4.5696 18.1179
" />
<path d="M4.5696 18.1179
L4.5091 18.1784
" />
<path d="M4.5091 18.1784
L4.3882 18.2388
" />
<path d="M4.3882 18.2388
L4.0858 18.2388
" />
<path d="M4.0858 18.2388
L3.9648 18.1784
" />
<path d="M3.9648 18.1784
L3.9044 18.1179
" />
</g></g>
<g style="fill:none; 
stroke:#840000; stroke-width:0.1524; stroke-opacity:1; 
stroke-linecap:round; stroke-linejoin:round;">
<path d="M5.5372 21.1963
L2.9972 21.1963
" />
<path d="M2.6162 20.8153
L3.3782 21.5773
" />
<path d="M3.3782 20.8153
L2.6162 21.5773
" />
</g>
<g style="fill:none; 
stroke:#006464; stroke-width:0.1524; stroke-opacity:1; 
stroke-linecap:round; stroke-linejoin:round;">
<text x="6.5532" y="21.8313"
textLength="2.8037" font-size="1.6933" lengthAdjust="spacingAndGlyphs"
text-anchor="start" opacity="0" stroke-opacity="0">NC</text>
<g class="stroked-text"><desc>NC</desc>
<path d="M6.9557 21.7758
L6.9557 20.5058
" />
<path d="M6.9557 20.5058
L7.6814 21.7758
" />
<path d="M7.6814 21.7758
L7.6814 20.5058
" />
<path d="M9.0119 21.6549
L8.9515 21.7154
" />
<path d="M8.9515 21.7154
L8.7700 21.7758
" />
<path d="M8.7700 21.7758
L8.6491 21.7758
" />
<path d="M8.6491 21.7758
L8.4677 21.7154
" />
<path d="M8.4677 21.7154
L8.3467 21.5944
" />
<path d="M8.3467 21.5944
L8.2862 21.4734
" />
<path d="M8.2862 21.4734
L8.2258 21.2315
" />
<path d="M8.2258 21.2315
L8.2258 21.0501
" />
<path d="M8.2258 21.0501
L8.2862 20.8082
" />
<path d="M8.2862 20.8082
L8.3467 20.6873
" />
<path d="M8.3467 20.6873
L8.4677 20.5663
" />
<path d="M8.4677 20.5663
L8.6491 20.5058
" />
<path d="M8.6491 20.5058
L8.7700 20.5058
" />
<path d="M8.7700 20.5058
L8.9515 20.5663
" />
<path d="M8.9515 20.5663
L9.0119 20.6268
" />
</g></g>
<g style="fill:none; 
stroke:#A90000; stroke-width:0.1524; stroke-opacity:1; 
stroke-linecap:round; stroke-linejoin:round;">
<text x="4.2672" y="20.9423"
textLength="1.4127" font-size="1.6933" lengthAdjust="spacingAndGlyphs"
text-anchor="middle" opacity="0" stroke-opacity="0">6</text>
<g class="stroked-text"><desc>6</desc>
<path d="M4.5091 19.5088
L4.2672 19.5088
" />
<path d="M4.2672 19.5088
L4.1463 19.5693
" />
<path d="M4.1463 19.5693
L4.0858 19.6298
" />
<path d="M4.0858 19.6298
L3.9648 19.8112
" />
<path d="M3.9648 19.8112
L3.9044 20.0531
" />
<path d="M3.9044 20.0531
L3.9044 20.5369
" />
<path d="M3.9044 20.5369
L3.9648 20.6579
" />
<path d="M3.9648 20.6579
L4.0253 20.7184
" />
<path d="M4.0253 20.7184
L4.1463 20.7788
" />
<path d="M4.1463 20.7788
L4.3882 20.7788
" />
<path d="M4.3882 20.7788
L4.5091 20.7184
" />
<path d="M4.5091 20.7184
L4.5696 20.6579
" />
<path d="M4.5696 20.6579
L4.6301 20.5369
" />
<path d="M4.6301 20.5369
L4.6301 20.2345
" />
<path d="M4.6301 20.2345
L4.5696 20.1136
" />
<path d="M4.5696 20.1136
L4.5091 20.0531
" />
<path d="M4.5091 20.0531
L4.3882 19.9926
" />
<path d="M4.3882 19.9926
L4.1463 19.9926
" />
<path d="M4.1463 19.9926
L4.0253 20.0531
" />
<path d="M4.0253 20.0531
L3.9648 20.1136
" />
<path d="M3.9648 20.1136
L3.9044 20.2345
" />
</g></g>
<g style="fill:none; 
stroke:#840000; stroke-width:0.1524; stroke-opacity:1; 
stroke-linecap:round; stroke-linejoin:round;">
<path d="M5.5372 23.7363
L2.9972 23.7363
" />
</g>
<g style="fill:none; 
stroke:#006464; stroke-width:0.1524; stroke-opacity:1; 
stroke-linecap:round; stroke-linejoin:round;">
<text x="6.5532" y="24.3713"
textLength="5.9483" font-size="1.6933" lengthAdjust="spacingAndGlyphs"
text-anchor="start" opacity="0" stroke-opacity="0">~{RESET}</text>
<g class="stroked-text"><desc>~{RESET}</desc>
<path d="M7.6814 24.3158
L7.2581 23.7111
" />
<path d="M6.9557 24.3158
L6.9557 23.0458
" />
<path d="M6.9557 23.0458
L7.4395 23.0458
" />
<path d="M7.4395 23.0458
L7.5605 23.1063
" />
<path d="M7.5605 23.1063
L7.6210 23.1668
" />
<path d="M7.6210 23.1668
L7.6814 23.2877
" />
<path d="M7.6814 23.2877
L7.6814 23.4692
" />
<path d="M7.6814 23.4692
L7.6210 23.5901
" />
<path d="M7.6210 23.5901
L7.5605 23.6506
" />
<path d="M7.5605 23.6506
L7.4395 23.7111
" />
<path d="M7.4395 23.7111
L6.9557 23.7111
" />
<path d="M8.2257 23.6506
L8.6491 23.6506
" />
<path d="M8.8305 24.3158
L8.2257 24.3158
" />
<path d="M8.2257 24.3158
L8.2257 23.0458
" />
<path d="M8.2257 23.0458
L8.8305 23.0458
" />
<path d="M9.3143 24.2554
L9.4957 24.3158
" />
<path d="M9.4957 24.3158
L9.7981 24.3158
" />
<path d="M9.7981 24.3158
L9.9190 24.2554
" />
<path d="M9.9190 24.2554
L9.9795 24.1949
" />
<path d="M9.9795 24.1949
L10.0400 24.0739
" />
<path d="M10.0400 24.0739
L10.0400 23.9530
" />
<path d="M10.0400 23.9530
L9.9795 23.8320
" />
<path d="M9.9795 23.8320
L9.9190 23.7715
" />
<path d="M9.9190 23.7715
L9.7981 23.7111
" />
<path d="M9.7981 23.7111
L9.5562 23.6506
" />
<path d="M9.5562 23.6506
L9.4352 23.5901
" />
<path d="M9.4352 23.5901
L9.3747 23.5296
" />
<path d="M9.3747 23.5296
L9.3143 23.4087
" />
<path d="M9.3143 23.4087
L9.3143 23.2877
" />
<path d="M9.3143 23.2877
L9.3747 23.1668
" />
<path d="M9.3747 23.1668
L9.4352 23.1063
" />
<path d="M9.4352 23.1063
L9.5562 23.0458
" />
<path d="M9.5562 23.0458
L9.8585 23.0458
" />
<path d="M9.8585 23.0458
L10.0400 23.1063
" />
<path d="M10.5842 23.6506
L11.0076 23.6506
" />
<path d="M11.1890 24.3158
L10.5842 24.3158
" />
<path d="M10.5842 24.3158
L10.5842 23.0458
" />
<path d="M10.5842 23.0458
L11.1890 23.0458
" />
<path d="M11.5518 23.0458
L12.2775 23.0458
" />
<path d="M11.9147 24.3158
L11.9147 23.0458
" />
<path d="M6.7804 22.6933
L12.2715 22.6933
" />
</g></g>
<g style="fill:none; 
stroke:#A90000; stroke-width:0.1524; stroke-opacity:1; 
stroke-linecap:round; stroke-linejoin:round;">
<text x="4.2672" y="23.4823"
textLength="1.4127" font-size="1.6933" lengthAdjust="spacingAndGlyphs"
text-anchor="middle" opacity="0" stroke-opacity="0">7</text>
<g class="stroked-text"><desc>7</desc>
<path d="M3.8439 22.0488
L4.6905 22.0488
" />
<path d="M4.6905 22.0488
L4.1463 23.3188
" />
</g></g>
<g style="fill:none; 
stroke:#840000; stroke-width:0.1524; stroke-opacity:1; 
stroke-linecap:round; stroke-linejoin:round;">
<path d="M5.5372 26.2763
L2.9972 26.2763
" />
</g>
<g style="fill:none; 
stroke:#006464; stroke-width:0.1524; stroke-opacity:1; 
stroke-linecap:round; stroke-linejoin:round;">
<text x="6.5532" y="26.9113"
textLength="4.0737" font-size="1.6933" lengthAdjust="spacingAndGlyphs"
text-anchor="start" opacity="0" stroke-opacity="0">GND</text>
<g class="stroked-text"><desc>GND</desc>
<path d="M7.6210 25.6463
L7.5000 25.5858
" />
<path d="M7.5000 25.5858
L7.3186 25.5858
" />
<path d="M7.3186 25.5858
L7.1372 25.6463
" />
<path d="M7.1372 25.6463
L7.0162 25.7673
" />
<path d="M7.0162 25.7673
L6.9557 25.8882
" />
<path d="M6.9557 25.8882
L6.8953 26.1301
" />
<path d="M6.8953 26.1301
L6.8953 26.3115
" />
<path d="M6.8953 26.3115
L6.9557 26.5534
" />
<path d="M6.9557 26.5534
L7.0162 26.6744
" />
<path d="M7.0162 26.6744
L7.1372 26.7954
" />
<path d="M7.1372 26.7954
L7.3186 26.8558
" />
<path d="M7.3186 26.8558
L7.4395 26.8558
" />
<path d="M7.4395 26.8558
L7.6210 26.7954
" />
<path d="M7.6210 26.7954
L7.6814 26.7349
" />
<path d="M7.6814 26.7349
L7.6814 26.3115
" />
<path d="M7.6814 26.3115
L7.4395 26.3115
" />
<path d="M8.2257 26.8558
L8.2257 25.5858
" />
<path d="M8.2257 25.5858
L8.9514 26.8558
" />
<path d="M8.9514 26.8558
L8.9514 25.5858
" />
<path d="M9.5562 26.8558
L9.5562 25.5858
" />
<path d="M9.5562 25.5858
L9.8586 25.5858
" />
<path d="M9.8586 25.5858
L10.0400 25.6463
" />
<path d="M10.0400 25.6463
L10.1610 25.7673
" />
<path d="M10.1610 25.7673
L10.2215 25.8882
" />
<path d="M10.2215 25.8882
L10.2819 26.1301
" />
<path d="M10.2819 26.1301
L10.2819 26.3115
" />
<path d="M10.2819 26.3115
L10.2215 26.5534
" />
<path d="M10.2215 26.5534
L10.1610 26.6744
" />
<path d="M10.1610 26.6744
L10.0400 26.7954
" />
<path d="M10.0400 26.7954
L9.8586 26.8558
" />
<path d="M9.8586 26.8558
L9.5562 26.8558
" />
</g></g>
<g style="fill:none; 
stroke:#A90000; stroke-width:0.1524; stroke-opacity:1; 
stroke-linecap:round; stroke-linejoin:round;">
<text x="4.2672" y="26.0223"
textLength="1.4127" font-size="1.6933" lengthAdjust="spacingAndGlyphs"
text-anchor="middle" opacity="0" stroke-opacity="0">8</text>
<g class="stroked-text"><desc>8</desc>
<path d="M4.1463 25.1331
L4.0253 25.0726
" />
<path d="M4.0253 25.0726
L3.9648 25.0122
" />
<path d="M3.9648 25.0122
L3.9044 24.8912
" />
<path d="M3.9044 24.8912
L3.9044 24.8307
" />
<path d="M3.9044 24.8307
L3.9648 24.7098
" />
<path d="M3.9648 24.7098
L4.0253 24.6493
" />
<path d="M4.0253 24.6493
L4.1463 24.5888
" />
<path d="M4.1463 24.5888
L4.3882 24.5888
" />
<path d="M4.3882 24.5888
L4.5091 24.6493
" />
<path d="M4.5091 24.6493
L4.5696 24.7098
" />
<path d="M4.5696 24.7098
L4.6301 24.8307
" />
<path d="M4.6301 24.8307
L4.6301 24.8912
" />
<path d="M4.6301 24.8912
L4.5696 25.0122
" />
<path d="M4.5696 25.0122
L4.5091 25.0726
" />
<path d="M4.5091 25.0726
L4.3882 25.1331
" />
<path d="M4.3882 25.1331
L4.1463 25.1331
" />
<path d="M4.1463 25.1331
L4.0253 25.1936
" />
<path d="M4.0253 25.1936
L3.9648 25.2541
" />
<path d="M3.9648 25.2541
L3.9044 25.3750
" />
<path d="M3.9044 25.3750
L3.9044 25.6169
" />
<path d="M3.9044 25.6169
L3.9648 25.7379
" />
<path d="M3.9648 25.7379
L4.0253 25.7984
" />
<path d="M4.0253 25.7984
L4.1463 25.8588
" />
<path d="M4.1463 25.8588
L4.3882 25.8588
" />
<path d="M4.3882 25.8588
L4.5091 25.7984
" />
<path d="M4.5091 25.7984
L4.5696 25.7379
" />
<path d="M4.5696 25.7379
L4.6301 25.6169
" />
<path d="M4.6301 25.6169
L4.6301 25.3750
" />
<path d="M4.6301 25.3750
L4.5696 25.2541
" />
<path d="M4.5696 25.2541
L4.5091 25.1936
" />
<path d="M4.5091 25.1936
L4.3882 25.1331
" />
</g></g>
<g style="fill:none; 
stroke:#840000; stroke-width:0.1524; stroke-opacity:1; 
stroke-linecap:round; stroke-linejoin:round;">
<path d="M25.8572 8.4963
L28.3972 8.4963
" />
<path d="M28.0162 8.1153
L28.7782 8.8773
" />
<path d="M28.7782 8.1153
L28.0162 8.8773
" />
</g>
<g style="fill:none; 
stroke:#006464; stroke-width:0.1524; stroke-opacity:1; 
stroke-linecap:round; stroke-linejoin:round;">
<text x="24.8412" y="9.1313"
textLength="2.8037" font-size="1.6933" lengthAdjust="spacingAndGlyphs"
text-anchor="end" opacity="0" stroke-opacity="0">NC</text>
<g class="stroked-text"><desc>NC</desc>
<path d="M22.4428 9.0758
L22.4428 7.8058
" />
<path d="M22.4428 7.8058
L23.1685 9.0758
" />
<path d="M23.1685 9.0758
L23.1685 7.8058
" />
<path d="M24.4990 8.9549
L24.4386 9.0154
" />
<path d="M24.4386 9.0154
L24.2571 9.0758
" />
<path d="M24.2571 9.0758
L24.1362 9.0758
" />
<path d="M24.1362 9.0758
L23.9548 9.0154
" />
<path d="M23.9548 9.0154
L23.8338 8.8944
" />
<path d="M23.8338 8.8944
L23.7733 8.7734
" />
<path d="M23.7733 8.7734
L23.7129 8.5315
" />
<path d="M23.7129 8.5315
L23.7129 8.3501
" />
<path d="M23.7129 8.3501
L23.7733 8.1082
" />
<path d="M23.7733 8.1082
L23.8338 7.9873
" />
<path d="M23.8338 7.9873
L23.9548 7.8663
" />
<path d="M23.9548 7.8663
L24.1362 7.8058
" />
<path d="M24.1362 7.8058
L24.2571 7.8058
" />
<path d="M24.2571 7.8058
L24.4386 7.8663
" />
<path d="M24.4386 7.8663
L24.4990 7.9268
" />
</g></g>
<g style="fill:none; 
stroke:#A90000; stroke-width:0.1524; stroke-opacity:1; 
stroke-linecap:round; stroke-linejoin:round;">
<text x="27.1272" y="8.2423"
textLength="2.6222" font-size="1.6933" lengthAdjust="spacingAndGlyphs"
text-anchor="middle" opacity="0" stroke-opacity="0">16</text>
<g class="stroked-text"><desc>16</desc>
<path d="M26.8853 8.0788
L26.1596 8.0788
" />
<path d="M26.5224 8.0788
L26.5224 6.8088
" />
<path d="M26.5224 6.8088
L26.4015 6.9903
" />
<path d="M26.4015 6.9903
L26.2805 7.1112
" />
<path d="M26.2805 7.1112
L26.1596 7.1717
" />
<path d="M27.9738 6.8088
L27.7319 6.8088
" />
<path d="M27.7319 6.8088
L27.6110 6.8693
" />
<path d="M27.6110 6.8693
L27.5505 6.9298
" />
<path d="M27.5505 6.9298
L27.4295 7.1112
" />
<path d="M27.4295 7.1112
L27.3691 7.3531
" />
<path d="M27.3691 7.3531
L27.3691 7.8369
" />
<path d="M27.3691 7.8369
L27.4295 7.9579
" />
<path d="M27.4295 7.9579
L27.4900 8.0184
" />
<path d="M27.4900 8.0184
L27.6110 8.0788
" />
<path d="M27.6110 8.0788
L27.8529 8.0788
" />
<path d="M27.8529 8.0788
L27.9738 8.0184
" />
<path d="M27.9738 8.0184
L28.0343 7.9579
" />
<path d="M28.0343 7.9579
L28.0948 7.8369
" />
<path d="M28.0948 7.8369
L28.0948 7.5345
" />
<path d="M28.0948 7.5345
L28.0343 7.4136
" />
<path d="M28.0343 7.4136
L27.9738 7.3531
" />
<path d="M27.9738 7.3531
L27.8529 7.2926
" />
<path d="M27.8529 7.2926
L27.6110 7.2926
" />
<path d="M27.6110 7.2926
L27.4900 7.3531
" />
<path d="M27.4900 7.3531
L27.4295 7.4136
" />
<path d="M27.4295 7.4136
L27.3691 7.5345
" />
</g></g>
<g style="fill:none; 
stroke:#840000; stroke-width:0.1524; stroke-opacity:1; 
stroke-linecap:round; stroke-linejoin:round;">
<path d="M25.8572 11.0363
L28.3972 11.0363
" />
</g>
<g style="fill:none; 
stroke:#006464; stroke-width:0.1524; stroke-opacity:1; 
stroke-linecap:round; stroke-linejoin:round;">
<text x="24.8412" y="11.6713"
textLength="5.8879" font-size="1.6933" lengthAdjust="spacingAndGlyphs"
text-anchor="end" opacity="0" stroke-opacity="0">LED_P</text>
<g class="stroked-text"><desc>LED_P</desc>
<path d="M19.9634 11.6158
L19.3586 11.6158
" />
<path d="M19.3586 11.6158
L19.3586 10.3458
" />
<path d="M20.3867 10.9506
L20.8101 10.9506
" />
<path d="M20.9915 11.6158
L20.3867 11.6158
" />
<path d="M20.3867 11.6158
L20.3867 10.3458
" />
<path d="M20.3867 10.3458
L20.9915 10.3458
" />
<path d="M21.5357 11.6158
L21.5357 10.3458
" />
<path d="M21.5357 10.3458
L21.8381 10.3458
" />
<path d="M21.8381 10.3458
L22.0195 10.4063
" />
<path d="M22.0195 10.4063
L22.1405 10.5273
" />
<path d="M22.1405 10.5273
L22.2010 10.6482
" />
<path d="M22.2010 10.6482
L22.2614 10.8901
" />
<path d="M22.2614 10.8901
L22.2614 11.0715
" />
<path d="M22.2614 11.0715
L22.2010 11.3134
" />
<path d="M22.2010 11.3134
L22.1405 11.4344
" />
<path d="M22.1405 11.4344
L22.0195 11.5554
" />
<path d="M22.0195 11.5554
L21.8381 11.6158
" />
<path d="M21.8381 11.6158
L21.5357 11.6158
" />
<path d="M22.5034 11.7368
L23.4710 11.7368
" />
<path d="M23.7733 11.6158
L23.7733 10.3458
" />
<path d="M23.7733 10.3458
L24.2571 10.3458
" />
<path d="M24.2571 10.3458
L24.3781 10.4063
" />
<path d="M24.3781 10.4063
L24.4386 10.4668
" />
<path d="M24.4386 10.4668
L24.4990 10.5877
" />
<path d="M24.4990 10.5877
L24.4990 10.7692
" />
<path d="M24.4990 10.7692
L24.4386 10.8901
" />
<path d="M24.4386 10.8901
L24.3781 10.9506
" />
<path d="M24.3781 10.9506
L24.2571 11.0111
" />
<path d="M24.2571 11.0111
L23.7733 11.0111
" />
</g></g>
<g style="fill:none; 
stroke:#A90000; stroke-width:0.1524; stroke-opacity:1; 
stroke-linecap:round; stroke-linejoin:round;">
<text x="27.1272" y="10.7823"
textLength="2.6222" font-size="1.6933" lengthAdjust="spacingAndGlyphs"
text-anchor="middle" opacity="0" stroke-opacity="0">15</text>
<g class="stroked-text"><desc>15</desc>
<path d="M26.8853 10.6188
L26.1596 10.6188
" />
<path d="M26.5224 10.6188
L26.5224 9.3488
" />
<path d="M26.5224 9.3488
L26.4015 9.5303
" />
<path d="M26.4015 9.5303
L26.2805 9.6512
" />
<path d="M26.2805 9.6512
L26.1596 9.7117
" />
<path d="M28.0343 9.3488
L27.4295 9.3488
" />
<path d="M27.4295 9.3488
L27.3691 9.9536
" />
<path d="M27.3691 9.9536
L27.4295 9.8931
" />
<path d="M27.4295 9.8931
L27.5505 9.8326
" />
<path d="M27.5505 9.8326
L27.8529 9.8326
" />
<path d="M27.8529 9.8326
L27.9738 9.8931
" />
<path d="M27.9738 9.8931
L28.0343 9.9536
" />
<path d="M28.0343 9.9536
L28.0948 10.0745
" />
<path d="M28.0948 10.0745
L28.0948 10.3769
" />
<path d="M28.0948 10.3769
L28.0343 10.4979
" />
<path d="M28.0343 10.4979
L27.9738 10.5584
" />
<path d="M27.9738 10.5584
L27.8529 10.6188
" />
<path d="M27.8529 10.6188
L27.5505 10.6188
" />
<path d="M27.5505 10.6188
L27.4295 10.5584
" />
<path d="M27.4295 10.5584
L27.3691 10.4979
" />
</g></g>
<g style="fill:none; 
stroke:#840000; stroke-width:0.1524; stroke-opacity:1; 
stroke-linecap:round; stroke-linejoin:round;">
<path d="M25.8572 13.5763
L28.3972 13.5763
" />
<path d="M28.0162 13.1953
L28.7782 13.9573
" />
<path d="M28.7782 13.1953
L28.0162 13.9573
" />
</g>
<g style="fill:none; 
stroke:#006464; stroke-width:0.1524; stroke-opacity:1; 
stroke-linecap:round; stroke-linejoin:round;">
<text x="24.8412" y="14.2113"
textLength="2.8037" font-size="1.6933" lengthAdjust="spacingAndGlyphs"
text-anchor="end" opacity="0" stroke-opacity="0">NC</text>
<g class="stroked-text"><desc>NC</desc>
<path d="M22.4428 14.1558
L22.4428 12.8858
" />
<path d="M22.4428 12.8858
L23.1685 14.1558
" />
<path d="M23.1685 14.1558
L23.1685 12.8858
" />
<path d="M24.4990 14.0349
L24.4386 14.0954
" />
<path d="M24.4386 14.0954
L24.2571 14.1558
" />
<path d="M24.2571 14.1558
L24.1362 14.1558
" />
<path d="M24.1362 14.1558
L23.9548 14.0954
" />
<path d="M23.9548 14.0954
L23.8338 13.9744
" />
<path d="M23.8338 13.9744
L23.7733 13.8534
" />
<path d="M23.7733 13.8534
L23.7129 13.6115
" />
<path d="M23.7129 13.6115
L23.7129 13.4301
" />
<path d="M23.7129 13.4301
L23.7733 13.1882
" />
<path d="M23.7733 13.1882
L23.8338 13.0673
" />
<path d="M23.8338 13.0673
L23.9548 12.9463
" />
<path d="M23.9548 12.9463
L24.1362 12.8858
" />
<path d="M24.1362 12.8858
L24.2571 12.8858
" />
<path d="M24.2571 12.8858
L24.4386 12.9463
" />
<path d="M24.4386 12.9463
L24.4990 13.0068
" />
</g></g>
<g style="fill:none; 
stroke:#A90000; stroke-width:0.1524; stroke-opacity:1; 
stroke-linecap:round; stroke-linejoin:round;">
<text x="27.1272" y="13.3223"
textLength="2.6222" font-size="1.6933" lengthAdjust="spacingAndGlyphs"
text-anchor="middle" opacity="0" stroke-opacity="0">14</text>
<g class="stroked-text"><desc>14</desc>
<path d="M26.8853 13.1588
L26.1596 13.1588
" />
<path d="M26.5224 13.1588
L26.5224 11.8888
" />
<path d="M26.5224 11.8888
L26.4015 12.0703
" />
<path d="M26.4015 12.0703
L26.2805 12.1912
" />
<path d="M26.2805 12.1912
L26.1596 12.2517
" />
<path d="M27.9738 12.3122
L27.9738 13.1588
" />
<path d="M27.6714 11.8284
L27.3691 12.7355
" />
<path d="M27.3691 12.7355
L28.1552 12.7355
" />
</g></g>
<g style="fill:none; 
stroke:#840000; stroke-width:0.1524; stroke-opacity:1; 
stroke-linecap:round; stroke-linejoin:round;">
<path d="M25.8572 16.1163
L28.3972 16.1163
" />
</g>
<g style="fill:none; 
stroke:#006464; stroke-width:0.1524; stroke-opacity:1; 
stroke-linecap:round; stroke-linejoin:round;">
<text x="24.8412" y="16.7513"
textLength="2.6827" font-size="1.6933" lengthAdjust="spacingAndGlyphs"
text-anchor="end" opacity="0" stroke-opacity="0">~{CS}</text>
<g class="stroked-text"><desc>~{CS}</desc>
<path d="M23.2895 16.5749
L23.2291 16.6354
" />
<path d="M23.2291 16.6354
L23.0476 16.6958
" />
<path d="M23.0476 16.6958
L22.9267 16.6958
" />
<path d="M22.9267 16.6958
L22.7453 16.6354
" />
<path d="M22.7453 16.6354
L22.6243 16.5144
" />
<path d="M22.6243 16.5144
L22.5638 16.3934
" />
<path d="M22.5638 16.3934
L22.5034 16.1515
" />
<path d="M22.5034 16.1515
L22.5034 15.9701
" />
<path d="M22.5034 15.9701
L22.5638 15.7282
" />
<path d="M22.5638 15.7282
L22.6243 15.6073
" />
<path d="M22.6243 15.6073
L22.7453 15.4863
" />
<path d="M22.7453 15.4863
L22.9267 15.4258
" />
<path d="M22.9267 15.4258
L23.0476 15.4258
" />
<path d="M23.0476 15.4258
L23.2291 15.4863
" />
<path d="M23.2291 15.4863
L23.2895 15.5468
" />
<path d="M23.7734 16.6354
L23.9548 16.6958
" />
<path d="M23.9548 16.6958
L24.2572 16.6958
" />
<path d="M24.2572 16.6958
L24.3781 16.6354
" />
<path d="M24.3781 16.6354
L24.4386 16.5749
" />
<path d="M24.4386 16.5749
L24.4991 16.4539
" />
<path d="M24.4991 16.4539
L24.4991 16.3330
" />
<path d="M24.4991 16.3330
L24.4386 16.2120
" />
<path d="M24.4386 16.2120
L24.3781 16.1515
" />
<path d="M24.3781 16.1515
L24.2572 16.0911
" />
<path d="M24.2572 16.0911
L24.0153 16.0306
" />
<path d="M24.0153 16.0306
L23.8943 15.9701
" />
<path d="M23.8943 15.9701
L23.8338 15.9096
" />
<path d="M23.8338 15.9096
L23.7734 15.7887
" />
<path d="M23.7734 15.7887
L23.7734 15.6677
" />
<path d="M23.7734 15.6677
L23.8338 15.5468
" />
<path d="M23.8338 15.5468
L23.8943 15.4863
" />
<path d="M23.8943 15.4863
L24.0153 15.4258
" />
<path d="M24.0153 15.4258
L24.3176 15.4258
" />
<path d="M24.3176 15.4258
L24.4991 15.4863
" />
<path d="M22.3885 15.0733
L24.6140 15.0733
" />
</g></g>
<g style="fill:none; 
stroke:#A90000; stroke-width:0.1524; stroke-opacity:1; 
stroke-linecap:round; stroke-linejoin:round;">
<text x="27.1272" y="15.8623"
textLength="2.6222" font-size="1.6933" lengthAdjust="spacingAndGlyphs"
text-anchor="middle" opacity="0" stroke-opacity="0">13</text>
<g class="stroked-text"><desc>13</desc>
<path d="M26.8853 15.6988
L26.1596 15.6988
" />
<path d="M26.5224 15.6988
L26.5224 14.4288
" />
<path d="M26.5224 14.4288
L26.4015 14.6103
" />
<path d="M26.4015 14.6103
L26.2805 14.7312
" />
<path d="M26.2805 14.7312
L26.1596 14.7917
" />
<path d="M27.3086 14.4288
L28.0948 14.4288
" />
<path d="M28.0948 14.4288
L27.6714 14.9126
" />
<path d="M27.6714 14.9126
L27.8529 14.9126
" />
<path d="M27.8529 14.9126
L27.9738 14.9731
" />
<path d="M27.9738 14.9731
L28.0343 15.0336
" />
<path d="M28.0343 15.0336
L28.0948 15.1545
" />
<path d="M28.0948 15.1545
L28.0948 15.4569
" />
<path d="M28.0948 15.4569
L28.0343 15.5779
" />
<path d="M28.0343 15.5779
L27.9738 15.6384
" />
<path d="M27.9738 15.6384
L27.8529 15.6988
" />
<path d="M27.8529 15.6988
L27.4900 15.6988
" />
<path d="M27.4900 15.6988
L27.3691 15.6384
" />
<path d="M27.3691 15.6384
L27.3086 15.5779
" />
</g></g>
<g style="fill:none; 
stroke:#840000; stroke-width:0.1524; stroke-opacity:1; 
stroke-linecap:round; stroke-linejoin:round;">
<path d="M25.8572 18.6563
L28.3972 18.6563
" />
</g>
<g style="fill:none; 
stroke:#006464; stroke-width:0.1524; stroke-opacity:1; 
stroke-linecap:round; stroke-linejoin:round;">
<text x="24.8412" y="19.2913"
textLength="4.7994" font-size="1.6933" lengthAdjust="spacingAndGlyphs"
text-anchor="end" opacity="0" stroke-opacity="0">MISO</text>
<g class="stroked-text"><desc>MISO</desc>
<path d="M20.4471 19.2358
L20.4471 17.9658
" />
<path d="M20.4471 17.9658
L20.8705 18.8730
" />
<path d="M20.8705 18.8730
L21.2938 17.9658
" />
<path d="M21.2938 17.9658
L21.2938 19.2358
" />
<path d="M21.8985 19.2358
L21.8985 17.9658
" />
<path d="M22.4429 19.1754
L22.6243 19.2358
" />
<path d="M22.6243 19.2358
L22.9267 19.2358
" />
<path d="M22.9267 19.2358
L23.0476 19.1754
" />
<path d="M23.0476 19.1754
L23.1081 19.1149
" />
<path d="M23.1081 19.1149
L23.1686 18.9939
" />
<path d="M23.1686 18.9939
L23.1686 18.8730
" />
<path d="M23.1686 18.8730
L23.1081 18.7520
" />
<path d="M23.1081 18.7520
L23.0476 18.6915
" />
<path d="M23.0476 18.6915
L22.9267 18.6311
" />
<path d="M22.9267 18.6311
L22.6848 18.5706
" />
<path d="M22.6848 18.5706
L22.5638 18.5101
" />
<path d="M22.5638 18.5101
L22.5033 18.4496
" />
<path d="M22.5033 18.4496
L22.4429 18.3287
" />
<path d="M22.4429 18.3287
L22.4429 18.2077
" />
<path d="M22.4429 18.2077
L22.5033 18.0868
" />
<path d="M22.5033 18.0868
L22.5638 18.0263
" />
<path d="M22.5638 18.0263
L22.6848 17.9658
" />
<path d="M22.6848 17.9658
L22.9871 17.9658
" />
<path d="M22.9871 17.9658
L23.1686 18.0263
" />
<path d="M23.9547 17.9658
L24.1966 17.9658
" />
<path d="M24.1966 17.9658
L24.3176 18.0263
" />
<path d="M24.3176 18.0263
L24.4385 18.1473
" />
<path d="M24.4385 18.1473
L24.4990 18.3892
" />
<path d="M24.4990 18.3892
L24.4990 18.8125
" />
<path d="M24.4990 18.8125
L24.4385 19.0544
" />
<path d="M24.4385 19.0544
L24.3176 19.1754
" />
<path d="M24.3176 19.1754
L24.1966 19.2358
" />
<path d="M24.1966 19.2358
L23.9547 19.2358
" />
<path d="M23.9547 19.2358
L23.8338 19.1754
" />
<path d="M23.8338 19.1754
L23.7128 19.0544
" />
<path d="M23.7128 19.0544
L23.6524 18.8125
" />
<path d="M23.6524 18.8125
L23.6524 18.3892
" />
<path d="M23.6524 18.3892
L23.7128 18.1473
" />
<path d="M23.7128 18.1473
L23.8338 18.0263
" />
<path d="M23.8338 18.0263
L23.9547 17.9658
" />
</g></g>
<g style="fill:none; 
stroke:#A90000; stroke-width:0.1524; stroke-opacity:1; 
stroke-linecap:round; stroke-linejoin:round;">
<text x="27.1272" y="18.4023"
textLength="2.6222" font-size="1.6933" lengthAdjust="spacingAndGlyphs"
text-anchor="middle" opacity="0" stroke-opacity="0">12</text>
<g class="stroked-text"><desc>12</desc>
<path d="M26.8853 18.2388
L26.1596 18.2388
" />
<path d="M26.5224 18.2388
L26.5224 16.9688
" />
<path d="M26.5224 16.9688
L26.4015 17.1503
" />
<path d="M26.4015 17.1503
L26.2805 17.2712
" />
<path d="M26.2805 17.2712
L26.1596 17.3317
" />
<path d="M27.3691 17.0898
L27.4295 17.0293
" />
<path d="M27.4295 17.0293
L27.5505 16.9688
" />
<path d="M27.5505 16.9688
L27.8529 16.9688
" />
<path d="M27.8529 16.9688
L27.9738 17.0293
" />
<path d="M27.9738 17.0293
L28.0343 17.0898
" />
<path d="M28.0343 17.0898
L28.0948 17.2107
" />
<path d="M28.0948 17.2107
L28.0948 17.3317
" />
<path d="M28.0948 17.3317
L28.0343 17.5131
" />
<path d="M28.0343 17.5131
L27.3086 18.2388
" />
<path d="M27.3086 18.2388
L28.0948 18.2388
" />
</g></g>
<g style="fill:none; 
stroke:#840000; stroke-width:0.1524; stroke-opacity:1; 
stroke-linecap:round; stroke-linejoin:round;">
<path d="M25.8572 21.1963
L28.3972 21.1963
" />
</g>
<g style="fill:none; 
stroke:#006464; stroke-width:0.1524; stroke-opacity:1; 
stroke-linecap:round; stroke-linejoin:round;">
<text x="24.8412" y="21.8313"
textLength="4.7994" font-size="1.6933" lengthAdjust="spacingAndGlyphs"
text-anchor="end" opacity="0" stroke-opacity="0">MOSI</text>
<g class="stroked-text"><desc>MOSI</desc>
<path d="M20.4471 21.7758
L20.4471 20.5058
" />
<path d="M20.4471 20.5058
L20.8705 21.4130
" />
<path d="M20.8705 21.4130
L21.2938 20.5058
" />
<path d="M21.2938 20.5058
L21.2938 21.7758
" />
<path d="M22.1404 20.5058
L22.3823 20.5058
" />
<path d="M22.3823 20.5058
L22.5033 20.5663
" />
<path d="M22.5033 20.5663
L22.6242 20.6873
" />
<path d="M22.6242 20.6873
L22.6847 20.9292
" />
<path d="M22.6847 20.9292
L22.6847 21.3525
" />
<path d="M22.6847 21.3525
L22.6242 21.5944
" />
<path d="M22.6242 21.5944
L22.5033 21.7154
" />
<path d="M22.5033 21.7154
L22.3823 21.7758
" />
<path d="M22.3823 21.7758
L22.1404 21.7758
" />
<path d="M22.1404 21.7758
L22.0195 21.7154
" />
<path d="M22.0195 21.7154
L21.8985 21.5944
" />
<path d="M21.8985 21.5944
L21.8381 21.3525
" />
<path d="M21.8381 21.3525
L21.8381 20.9292
" />
<path d="M21.8381 20.9292
L21.8985 20.6873
" />
<path d="M21.8985 20.6873
L22.0195 20.5663
" />
<path d="M22.0195 20.5663
L22.1404 20.5058
" />
<path d="M23.1686 21.7154
L23.3500 21.7758
" />
<path d="M23.3500 21.7758
L23.6524 21.7758
" />
<path d="M23.6524 21.7758
L23.7733 21.7154
" />
<path d="M23.7733 21.7154
L23.8338 21.6549
" />
<path d="M23.8338 21.6549
L23.8943 21.5339
" />
<path d="M23.8943 21.5339
L23.8943 21.4130
" />
<path d="M23.8943 21.4130
L23.8338 21.2920
" />
<path d="M23.8338 21.2920
L23.7733 21.2315
" />
<path d="M23.7733 21.2315
L23.6524 21.1711
" />
<path d="M23.6524 21.1711
L23.4105 21.1106
" />
<path d="M23.4105 21.1106
L23.2895 21.0501
" />
<path d="M23.2895 21.0501
L23.2290 20.9896
" />
<path d="M23.2290 20.9896
L23.1686 20.8687
" />
<path d="M23.1686 20.8687
L23.1686 20.7477
" />
<path d="M23.1686 20.7477
L23.2290 20.6268
" />
<path d="M23.2290 20.6268
L23.2895 20.5663
" />
<path d="M23.2895 20.5663
L23.4105 20.5058
" />
<path d="M23.4105 20.5058
L23.7128 20.5058
" />
<path d="M23.7128 20.5058
L23.8943 20.5663
" />
<path d="M24.4385 21.7758
L24.4385 20.5058
" />
</g></g>
<g style="fill:none; 
stroke:#A90000; stroke-width:0.1524; stroke-opacity:1; 
stroke-linecap:round; stroke-linejoin:round;">
<text x="27.1272" y="20.9423"
textLength="2.6222" font-size="1.6933" lengthAdjust="spacingAndGlyphs"
text-anchor="middle" opacity="0" stroke-opacity="0">11</text>
<g class="stroked-text"><desc>11</desc>
<path d="M26.8853 20.7788
L26.1596 20.7788
" />
<path d="M26.5224 20.7788
L26.5224 19.5088
" />
<path d="M26.5224 19.5088
L26.4015 19.6903
" />
<path d="M26.4015 19.6903
L26.2805 19.8112
" />
<path d="M26.2805 19.8112
L26.1596 19.8717
" />
<path d="M28.0948 20.7788
L27.3691 20.7788
" />
<path d="M27.7319 20.7788
L27.7319 19.5088
" />
<path d="M27.7319 19.5088
L27.6110 19.6903
" />
<path d="M27.6110 19.6903
L27.4900 19.8112
" />
<path d="M27.4900 19.8112
L27.3691 19.8717
" />
</g></g>
<g style="fill:none; 
stroke:#840000; stroke-width:0.1524; stroke-opacity:1; 
stroke-linecap:round; stroke-linejoin:round;">
<path d="M25.8572 23.7363
L28.3972 23.7363
" />
</g>
<g style="fill:none; 
stroke:#006464; stroke-width:0.1524; stroke-opacity:1; 
stroke-linecap:round; stroke-linejoin:round;">
<text x="24.8412" y="24.3713"
textLength="4.9808" font-size="1.6933" lengthAdjust="spacingAndGlyphs"
text-anchor="end" opacity="0" stroke-opacity="0">SCLK</text>
<g class="stroked-text"><desc>SCLK</desc>
<path d="M20.2053 24.2554
L20.3867 24.3158
" />
<path d="M20.3867 24.3158
L20.6891 24.3158
" />
<path d="M20.6891 24.3158
L20.8100 24.2554
" />
<path d="M20.8100 24.2554
L20.8705 24.1949
" />
<path d="M20.8705 24.1949
L20.9310 24.0739
" />
<path d="M20.9310 24.0739
L20.9310 23.9530
" />
<path d="M20.9310 23.9530
L20.8705 23.8320
" />
<path d="M20.8705 23.8320
L20.8100 23.7715
" />
<path d="M20.8100 23.7715
L20.6891 23.7111
" />
<path d="M20.6891 23.7111
L20.4472 23.6506
" />
<path d="M20.4472 23.6506
L20.3262 23.5901
" />
<path d="M20.3262 23.5901
L20.2657 23.5296
" />
<path d="M20.2657 23.5296
L20.2053 23.4087
" />
<path d="M20.2053 23.4087
L20.2053 23.2877
" />
<path d="M20.2053 23.2877
L20.2657 23.1668
" />
<path d="M20.2657 23.1668
L20.3262 23.1063
" />
<path d="M20.3262 23.1063
L20.4472 23.0458
" />
<path d="M20.4472 23.0458
L20.7495 23.0458
" />
<path d="M20.7495 23.0458
L20.9310 23.1063
" />
<path d="M22.2009 24.1949
L22.1405 24.2554
" />
<path d="M22.1405 24.2554
L21.9590 24.3158
" />
<path d="M21.9590 24.3158
L21.8381 24.3158
" />
<path d="M21.8381 24.3158
L21.6567 24.2554
" />
<path d="M21.6567 24.2554
L21.5357 24.1344
" />
<path d="M21.5357 24.1344
L21.4752 24.0134
" />
<path d="M21.4752 24.0134
L21.4148 23.7715
" />
<path d="M21.4148 23.7715
L21.4148 23.5901
" />
<path d="M21.4148 23.5901
L21.4752 23.3482
" />
<path d="M21.4752 23.3482
L21.5357 23.2273
" />
<path d="M21.5357 23.2273
L21.6567 23.1063
" />
<path d="M21.6567 23.1063
L21.8381 23.0458
" />
<path d="M21.8381 23.0458
L21.9590 23.0458
" />
<path d="M21.9590 23.0458
L22.1405 23.1063
" />
<path d="M22.1405 23.1063
L22.2009 23.1668
" />
<path d="M23.3500 24.3158
L22.7452 24.3158
" />
<path d="M22.7452 24.3158
L22.7452 23.0458
" />
<path d="M23.7733 24.3158
L23.7733 23.0458
" />
<path d="M24.4990 24.3158
L23.9548 23.5901
" />
<path d="M24.4990 23.0458
L23.7733 23.7715
" />
</g></g>
<g style="fill:none; 
stroke:#A90000; stroke-width:0.1524; stroke-opacity:1; 
stroke-linecap:round; stroke-linejoin:round;">
<text x="27.1272" y="23.4823"
textLength="2.6222" font-size="1.6933" lengthAdjust="spacingAndGlyphs"
text-anchor="middle" opacity="0" stroke-opacity="0">10</text>
<g class="stroked-text"><desc>10</desc>
<path d="M26.8853 23.3188
L26.1596 23.3188
" />
<path d="M26.5224 23.3188
L26.5224 22.0488
" />
<path d="M26.5224 22.0488
L26.4015 22.2303
" />
<path d="M26.4015 22.2303
L26.2805 22.3512
" />
<path d="M26.2805 22.3512
L26.1596 22.4117
" />
<path d="M27.6714 22.0488
L27.7924 22.0488
" />
<path d="M27.7924 22.0488
L27.9133 22.1093
" />
<path d="M27.9133 22.1093
L27.9738 22.1698
" />
<path d="M27.9738 22.1698
L28.0343 22.2907
" />
<path d="M28.0343 22.2907
L28.0948 22.5326
" />
<path d="M28.0948 22.5326
L28.0948 22.8350
" />
<path d="M28.0948 22.8350
L28.0343 23.0769
" />
<path d="M28.0343 23.0769
L27.9738 23.1979
" />
<path d="M27.9738 23.1979
L27.9133 23.2584
" />
<path d="M27.9133 23.2584
L27.7924 23.3188
" />
<path d="M27.7924 23.3188
L27.6714 23.3188
" />
<path d="M27.6714 23.3188
L27.5505 23.2584
" />
<path d="M27.5505 23.2584
L27.4900 23.1979
" />
<path d="M27.4900 23.1979
L27.4295 23.0769
" />
<path d="M27.4295 23.0769
L27.3691 22.8350
" />
<path d="M27.3691 22.8350
L27.3691 22.5326
" />
<path d="M27.3691 22.5326
L27.4295 22.2907
" />
<path d="M27.4295 22.2907
L27.4900 22.1698
" />
<path d="M27.4900 22.1698
L27.5505 22.1093
" />
<path d="M27.5505 22.1093
L27.6714 22.0488
" />
</g></g>
<g style="fill:none; 
stroke:#840000; stroke-width:0.1524; stroke-opacity:1; 
stroke-linecap:round; stroke-linejoin:round;">
<path d="M25.8572 26.2763
L28.3972 26.2763
" />
</g>
<g style="fill:none; 
stroke:#006464; stroke-width:0.1524; stroke-opacity:1; 
stroke-linecap:round; stroke-linejoin:round;">
<text x="24.8412" y="26.9113"
textLength="7.2185" font-size="1.6933" lengthAdjust="spacingAndGlyphs"
text-anchor="end" opacity="0" stroke-opacity="0">MOTION</text>
<g class="stroked-text"><desc>MOTION</desc>
<path d="M18.0280 26.8558
L18.0280 25.5858
" />
<path d="M18.0280 25.5858
L18.4514 26.4930
" />
<path d="M18.4514 26.4930
L18.8747 25.5858
" />
<path d="M18.8747 25.5858
L18.8747 26.8558
" />
<path d="M19.7213 25.5858
L19.9632 25.5858
" />
<path d="M19.9632 25.5858
L20.0842 25.6463
" />
<path d="M20.0842 25.6463
L20.2051 25.7673
" />
<path d="M20.2051 25.7673
L20.2656 26.0092
" />
<path d="M20.2656 26.0092
L20.2656 26.4325
" />
<path d="M20.2656 26.4325
L20.2051 26.6744
" />
<path d="M20.2051 26.6744
L20.0842 26.7954
" />
<path d="M20.0842 26.7954
L19.9632 26.8558
" />
<path d="M19.9632 26.8558
L19.7213 26.8558
" />
<path d="M19.7213 26.8558
L19.6004 26.7954
" />
<path d="M19.6004 26.7954
L19.4794 26.6744
" />
<path d="M19.4794 26.6744
L19.4190 26.4325
" />
<path d="M19.4190 26.4325
L19.4190 26.0092
" />
<path d="M19.4190 26.0092
L19.4794 25.7673
" />
<path d="M19.4794 25.7673
L19.6004 25.6463
" />
<path d="M19.6004 25.6463
L19.7213 25.5858
" />
<path d="M20.6285 25.5858
L21.3542 25.5858
" />
<path d="M20.9914 26.8558
L20.9914 25.5858
" />
<path d="M21.7775 26.8558
L21.7775 25.5858
" />
<path d="M22.6242 25.5858
L22.8661 25.5858
" />
<path d="M22.8661 25.5858
L22.9871 25.6463
" />
<path d="M22.9871 25.6463
L23.1080 25.7673
" />
<path d="M23.1080 25.7673
L23.1685 26.0092
" />
<path d="M23.1685 26.0092
L23.1685 26.4325
" />
<path d="M23.1685 26.4325
L23.1080 26.6744
" />
<path d="M23.1080 26.6744
L22.9871 26.7954
" />
<path d="M22.9871 26.7954
L22.8661 26.8558
" />
<path d="M22.8661 26.8558
L22.6242 26.8558
" />
<path d="M22.6242 26.8558
L22.5033 26.7954
" />
<path d="M22.5033 26.7954
L22.3823 26.6744
" />
<path d="M22.3823 26.6744
L22.3219 26.4325
" />
<path d="M22.3219 26.4325
L22.3219 26.0092
" />
<path d="M22.3219 26.0092
L22.3823 25.7673
" />
<path d="M22.3823 25.7673
L22.5033 25.6463
" />
<path d="M22.5033 25.6463
L22.6242 25.5858
" />
<path d="M23.7128 26.8558
L23.7128 25.5858
" />
<path d="M23.7128 25.5858
L24.4385 26.8558
" />
<path d="M24.4385 26.8558
L24.4385 25.5858
" />
</g></g>
<g style="fill:none; 
stroke:#A90000; stroke-width:0.1524; stroke-opacity:1; 
stroke-linecap:round; stroke-linejoin:round;">
<text x="27.1272" y="26.0223"
textLength="1.4127" font-size="1.6933" lengthAdjust="spacingAndGlyphs"
text-anchor="middle" opacity="0" stroke-opacity="0">9</text>
<g class="stroked-text"><desc>9</desc>
<path d="M26.8853 25.8588
L27.1272 25.8588
" />
<path d="M27.1272 25.8588
L27.2482 25.7984
" />
<path d="M27.2482 25.7984
L27.3086 25.7379
" />
<path d="M27.3086 25.7379
L27.4296 25.5564
" />
<path d="M27.4296 25.5564
L27.4901 25.3145
" />
<path d="M27.4901 25.3145
L27.4901 24.8307
" />
<path d="M27.4901 24.8307
L27.4296 24.7098
" />
<path d="M27.4296 24.7098
L27.3691 24.6493
" />
<path d="M27.3691 24.6493
L27.2482 24.5888
" />
<path d="M27.2482 24.5888
L27.0063 24.5888
" />
<path d="M27.0063 24.5888
L26.8853 24.6493
" />
<path d="M26.8853 24.6493
L26.8248 24.7098
" />
<path d="M26.8248 24.7098
L26.7644 24.8307
" />
<path d="M26.7644 24.8307
L26.7644 25.1331
" />
<path d="M26.7644 25.1331
L26.8248 25.2541
" />
<path d="M26.8248 25.2541
L26.8853 25.3145
" />
<path d="M26.8853 25.3145
L27.0063 25.3750
" />
<path d="M27.0063 25.3750
L27.2482 25.3750
" />
<path d="M27.2482 25.3750
L27.3691 25.3145
" />
<path d="M27.3691 25.3145
L27.4296 25.2541
" />
<path d="M27.4296 25.2541
L27.4901 25.1331
" />
</g></g>
<g style="fill:none; 
stroke:#006464; stroke-width:0.1524; stroke-opacity:1; 
stroke-linecap:round; stroke-linejoin:round;">
<text x="0.0000" y="-12.8270"
textLength="2.6223" font-size="1.6933" lengthAdjust="spacingAndGlyphs"
text-anchor="middle" opacity="0" stroke-opacity="0">U?</text>
<g class="stroked-text"><desc>U?</desc>
<path d="M-0.9071 -14.1524
L-0.9071 -13.1243
" />
<path d="M-0.9071 -13.1243
L-0.8466 -13.0033
" />
<path d="M-0.8466 -13.0033
L-0.7861 -12.9429
" />
<path d="M-0.7861 -12.9429
L-0.6652 -12.8824
" />
<path d="M-0.6652 -12.8824
L-0.4233 -12.8824
" />
<path d="M-0.4233 -12.8824
L-0.3023 -12.9429
" />
<path d="M-0.3023 -12.9429
L-0.2418 -13.0033
" />
<path d="M-0.2418 -13.0033
L-0.1814 -13.1243
" />
<path d="M-0.1814 -13.1243
L-0.1814 -14.1524
" />
<path d="M0.6048 -13.0033
L0.6652 -12.9429
" />
<path d="M0.6652 -12.9429
L0.6048 -12.8824
" />
<path d="M0.6048 -12.8824
L0.5443 -12.9429
" />
<path d="M0.5443 -12.9429
L0.6048 -13.0033
" />
<path d="M0.6048 -13.0033
L0.6048 -12.8824
" />
<path d="M0.3629 -14.0919
L0.4838 -14.1524
" />
<path d="M0.4838 -14.1524
L0.7862 -14.1524
" />
<path d="M0.7862 -14.1524
L0.9071 -14.0919
" />
<path d="M0.9071 -14.0919
L0.9676 -13.9709
" />
<path d="M0.9676 -13.9709
L0.9676 -13.8500
" />
<path d="M0.9676 -13.8500
L0.9071 -13.7290
" />
<path d="M0.9071 -13.7290
L0.8467 -13.6686
" />
<path d="M0.8467 -13.6686
L0.7257 -13.6081
" />
<path d="M0.7257 -13.6081
L0.6652 -13.5476
" />
<path d="M0.6652 -13.5476
L0.6048 -13.4267
" />
<path d="M0.6048 -13.4267
L0.6048 -13.3662
" />
</g><text x="0.0000" y="14.0970"
textLength="18.3459" font-size="1.6933" lengthAdjust="spacingAndGlyphs"
text-anchor="middle" opacity="0" stroke-opacity="0">PMW3360DM-T2QU</text>
<g class="stroked-text"><desc>PMW3360DM-T2QU</desc>
<path d="M-8.7689 14.0415
L-8.7689 12.7715
" />
<path d="M-8.7689 12.7715
L-8.2851 12.7715
" />
<path d="M-8.2851 12.7715
L-8.1641 12.8320
" />
<path d="M-8.1641 12.8320
L-8.1036 12.8925
" />
<path d="M-8.1036 12.8925
L-8.0432 13.0134
" />
<path d="M-8.0432 13.0134
L-8.0432 13.1949
" />
<path d="M-8.0432 13.1949
L-8.1036 13.3158
" />
<path d="M-8.1036 13.3158
L-8.1641 13.3763
" />
<path d="M-8.1641 13.3763
L-8.2851 13.4368
" />
<path d="M-8.2851 13.4368
L-8.7689 13.4368
" />
<path d="M-7.4989 14.0415
L-7.4989 12.7715
" />
<path d="M-7.4989 12.7715
L-7.0755 13.6787
" />
<path d="M-7.0755 13.6787
L-6.6522 12.7715
" />
<path d="M-6.6522 12.7715
L-6.6522 14.0415
" />
<path d="M-6.1684 12.7715
L-5.8660 14.0415
" />
<path d="M-5.8660 14.0415
L-5.6241 13.1344
" />
<path d="M-5.6241 13.1344
L-5.3822 14.0415
" />
<path d="M-5.3822 14.0415
L-5.0799 12.7715
" />
<path d="M-4.7170 12.7715
L-3.9308 12.7715
" />
<path d="M-3.9308 12.7715
L-4.3542 13.2553
" />
<path d="M-4.3542 13.2553
L-4.1727 13.2553
" />
<path d="M-4.1727 13.2553
L-4.0518 13.3158
" />
<path d="M-4.0518 13.3158
L-3.9913 13.3763
" />
<path d="M-3.9913 13.3763
L-3.9308 13.4972
" />
<path d="M-3.9308 13.4972
L-3.9308 13.7996
" />
<path d="M-3.9308 13.7996
L-3.9913 13.9206
" />
<path d="M-3.9913 13.9206
L-4.0518 13.9811
" />
<path d="M-4.0518 13.9811
L-4.1727 14.0415
" />
<path d="M-4.1727 14.0415
L-4.5356 14.0415
" />
<path d="M-4.5356 14.0415
L-4.6565 13.9811
" />
<path d="M-4.6565 13.9811
L-4.7170 13.9206
" />
<path d="M-3.5075 12.7715
L-2.7213 12.7715
" />
<path d="M-2.7213 12.7715
L-3.1447 13.2553
" />
<path d="M-3.1447 13.2553
L-2.9632 13.2553
" />
<path d="M-2.9632 13.2553
L-2.8423 13.3158
" />
<path d="M-2.8423 13.3158
L-2.7818 13.3763
" />
<path d="M-2.7818 13.3763
L-2.7213 13.4972
" />
<path d="M-2.7213 13.4972
L-2.7213 13.7996
" />
<path d="M-2.7213 13.7996
L-2.7818 13.9206
" />
<path d="M-2.7818 13.9206
L-2.8423 13.9811
" />
<path d="M-2.8423 13.9811
L-2.9632 14.0415
" />
<path d="M-2.9632 14.0415
L-3.3261 14.0415
" />
<path d="M-3.3261 14.0415
L-3.4470 13.9811
" />
<path d="M-3.4470 13.9811
L-3.5075 13.9206
" />
<path d="M-1.6328 12.7715
L-1.8747 12.7715
" />
<path d="M-1.8747 12.7715
L-1.9956 12.8320
" />
<path d="M-1.9956 12.8320
L-2.0561 12.8925
" />
<path d="M-2.0561 12.8925
L-2.1771 13.0739
" />
<path d="M-2.1771 13.0739
L-2.2375 13.3158
" />
<path d="M-2.2375 13.3158
L-2.2375 13.7996
" />
<path d="M-2.2375 13.7996
L-2.1771 13.9206
" />
<path d="M-2.1771 13.9206
L-2.1166 13.9811
" />
<path d="M-2.1166 13.9811
L-1.9956 14.0415
" />
<path d="M-1.9956 14.0415
L-1.7537 14.0415
" />
<path d="M-1.7537 14.0415
L-1.6328 13.9811
" />
<path d="M-1.6328 13.9811
L-1.5723 13.9206
" />
<path d="M-1.5723 13.9206
L-1.5118 13.7996
" />
<path d="M-1.5118 13.7996
L-1.5118 13.4972
" />
<path d="M-1.5118 13.4972
L-1.5723 13.3763
" />
<path d="M-1.5723 13.3763
L-1.6328 13.3158
" />
<path d="M-1.6328 13.3158
L-1.7537 13.2553
" />
<path d="M-1.7537 13.2553
L-1.9956 13.2553
" />
<path d="M-1.9956 13.2553
L-2.1166 13.3158
" />
<path d="M-2.1166 13.3158
L-2.1771 13.3763
" />
<path d="M-2.1771 13.3763
L-2.2375 13.4972
" />
<path d="M-0.7257 12.7715
L-0.6047 12.7715
" />
<path d="M-0.6047 12.7715
L-0.4838 12.8320
" />
<path d="M-0.4838 12.8320
L-0.4233 12.8925
" />
<path d="M-0.4233 12.8925
L-0.3628 13.0134
" />
<path d="M-0.3628 13.0134
L-0.3023 13.2553
" />
<path d="M-0.3023 13.2553
L-0.3023 13.5577
" />
<path d="M-0.3023 13.5577
L-0.3628 13.7996
" />
<path d="M-0.3628 13.7996
L-0.4233 13.9206
" />
<path d="M-0.4233 13.9206
L-0.4838 13.9811
" />
<path d="M-0.4838 13.9811
L-0.6047 14.0415
" />
<path d="M-0.6047 14.0415
L-0.7257 14.0415
" />
<path d="M-0.7257 14.0415
L-0.8466 13.9811
" />
<path d="M-0.8466 13.9811
L-0.9071 13.9206
" />
<path d="M-0.9071 13.9206
L-0.9676 13.7996
" />
<path d="M-0.9676 13.7996
L-1.0280 13.5577
" />
<path d="M-1.0280 13.5577
L-1.0280 13.2553
" />
<path d="M-1.0280 13.2553
L-0.9676 13.0134
" />
<path d="M-0.9676 13.0134
L-0.9071 12.8925
" />
<path d="M-0.9071 12.8925
L-0.8466 12.8320
" />
<path d="M-0.8466 12.8320
L-0.7257 12.7715
" />
<path d="M0.2418 14.0415
L0.2418 12.7715
" />
<path d="M0.2418 12.7715
L0.5442 12.7715
" />
<path d="M0.5442 12.7715
L0.7256 12.8320
" />
<path d="M0.7256 12.8320
L0.8466 12.9530
" />
<path d="M0.8466 12.9530
L0.9071 13.0739
" />
<path d="M0.9071 13.0739
L0.9675 13.3158
" />
<path d="M0.9675 13.3158
L0.9675 13.4972
" />
<path d="M0.9675 13.4972
L0.9071 13.7391
" />
<path d="M0.9071 13.7391
L0.8466 13.8601
" />
<path d="M0.8466 13.8601
L0.7256 13.9811
" />
<path d="M0.7256 13.9811
L0.5442 14.0415
" />
<path d="M0.5442 14.0415
L0.2418 14.0415
" />
<path d="M1.5118 14.0415
L1.5118 12.7715
" />
<path d="M1.5118 12.7715
L1.9352 13.6787
" />
<path d="M1.9352 13.6787
L2.3585 12.7715
" />
<path d="M2.3585 12.7715
L2.3585 14.0415
" />
<path d="M2.9632 13.5577
L3.9309 13.5577
" />
<path d="M4.3542 12.7715
L5.0799 12.7715
" />
<path d="M4.7171 14.0415
L4.7171 12.7715
" />
<path d="M5.4428 12.8925
L5.5032 12.8320
" />
<path d="M5.5032 12.8320
L5.6242 12.7715
" />
<path d="M5.6242 12.7715
L5.9266 12.7715
" />
<path d="M5.9266 12.7715
L6.0475 12.8320
" />
<path d="M6.0475 12.8320
L6.1080 12.8925
" />
<path d="M6.1080 12.8925
L6.1685 13.0134
" />
<path d="M6.1685 13.0134
L6.1685 13.1344
" />
<path d="M6.1685 13.1344
L6.1080 13.3158
" />
<path d="M6.1080 13.3158
L5.3823 14.0415
" />
<path d="M5.3823 14.0415
L6.1685 14.0415
" />
<path d="M7.5594 14.1625
L7.4384 14.1020
" />
<path d="M7.4384 14.1020
L7.3175 13.9811
" />
<path d="M7.3175 13.9811
L7.1361 13.7996
" />
<path d="M7.1361 13.7996
L7.0151 13.7391
" />
<path d="M7.0151 13.7391
L6.8942 13.7391
" />
<path d="M6.9546 14.0415
L6.8337 13.9811
" />
<path d="M6.8337 13.9811
L6.7127 13.8601
" />
<path d="M6.7127 13.8601
L6.6523 13.6182
" />
<path d="M6.6523 13.6182
L6.6523 13.1949
" />
<path d="M6.6523 13.1949
L6.7127 12.9530
" />
<path d="M6.7127 12.9530
L6.8337 12.8320
" />
<path d="M6.8337 12.8320
L6.9546 12.7715
" />
<path d="M6.9546 12.7715
L7.1965 12.7715
" />
<path d="M7.1965 12.7715
L7.3175 12.8320
" />
<path d="M7.3175 12.8320
L7.4384 12.9530
" />
<path d="M7.4384 12.9530
L7.4989 13.1949
" />
<path d="M7.4989 13.1949
L7.4989 13.6182
" />
<path d="M7.4989 13.6182
L7.4384 13.8601
" />
<path d="M7.4384 13.8601
L7.3175 13.9811
" />
<path d="M7.3175 13.9811
L7.1965 14.0415
" />
<path d="M7.1965 14.0415
L6.9546 14.0415
" />
<path d="M8.0432 12.7715
L8.0432 13.7996
" />
<path d="M8.0432 13.7996
L8.1037 13.9206
" />
<path d="M8.1037 13.9206
L8.1642 13.9811
" />
<path d="M8.1642 13.9811
L8.2851 14.0415
" />
<path d="M8.2851 14.0415
L8.5270 14.0415
" />
<path d="M8.5270 14.0415
L8.6480 13.9811
" />
<path d="M8.6480 13.9811
L8.7085 13.9206
" />
<path d="M8.7085 13.9206
L8.7689 13.7996
" />
<path d="M8.7689 13.7996
L8.7689 12.7715
" />
</g></g> 
</svg>
