<?xml version="1.0" standalone="no"?>
 <!DOCTYPE svg PUBLIC "-//W3C//DTD SVG 1.1//EN" 
 "http://www.w3.org/Graphics/SVG/1.1/DTD/svg11.dtd"> 
<svg
  xmlns:svg="http://www.w3.org/2000/svg"
  xmlns="http://www.w3.org/2000/svg"
  xmlns:xlink="http://www.w3.org/1999/xlink"
  version="1.1"
  width="31.3944mm" height="35.6870mm" viewBox="0.0000 0.0000 31.3944 35.6870">
<title>SVG Image created as PMW3360DM-T2QU_unit1.svg date 2025/04/10 01:40:37 </title>
  <desc>Image generated by Eeschema-SVG </desc>
<g style="fill:#000000; fill-opacity:1.0000;stroke:#000000; stroke-opacity:1.0000;
stroke-linecap:round; stroke-linejoin:round;"
 transform="translate(0 0) scale(1 1)">
</g>
<g style="fill:#FFFFC2; fill-opacity:1.0000; stroke:none;">
<rect x="5.537200" y="6.540500" width="20.320000" height="22.860000" rx="0.000000" />
</g>
<g style="fill:none; 
stroke:#840000; stroke-width:0.1524; stroke-opacity:1; 
stroke-linecap:round; stroke-linejoin:round;">
<rect x="5.537200" y="6.540500" width="20.320000" height="22.860000" rx="0.000000" />
<path d="M5.5372 9.0805
L2.9972 9.0805
" />
<path d="M2.6162 8.6995
L3.3782 9.4615
" />
<path d="M3.3782 8.6995
L2.6162 9.4615
" />
</g>
<g style="fill:none; 
stroke:#006464; stroke-width:0.1524; stroke-opacity:1; 
stroke-linecap:round; stroke-linejoin:round;">
<text x="6.5532" y="9.7155"
textLength="2.8037" font-size="1.6933" lengthAdjust="spacingAndGlyphs"
text-anchor="start" opacity="0" stroke-opacity="0">NC</text>
<g class="stroked-text"><desc>NC</desc>
<path d="M6.9557 9.6600
L6.9557 8.3900
" />
<path d="M6.9557 8.3900
L7.6814 9.6600
" />
<path d="M7.6814 9.6600
L7.6814 8.3900
" />
<path d="M9.0119 9.5391
L8.9515 9.5996
" />
<path d="M8.9515 9.5996
L8.7700 9.6600
" />
<path d="M8.7700 9.6600
L8.6491 9.6600
" />
<path d="M8.6491 9.6600
L8.4677 9.5996
" />
<path d="M8.4677 9.5996
L8.3467 9.4786
" />
<path d="M8.3467 9.4786
L8.2862 9.3576
" />
<path d="M8.2862 9.3576
L8.2258 9.1157
" />
<path d="M8.2258 9.1157
L8.2258 8.9343
" />
<path d="M8.2258 8.9343
L8.2862 8.6924
" />
<path d="M8.2862 8.6924
L8.3467 8.5715
" />
<path d="M8.3467 8.5715
L8.4677 8.4505
" />
<path d="M8.4677 8.4505
L8.6491 8.3900
" />
<path d="M8.6491 8.3900
L8.7700 8.3900
" />
<path d="M8.7700 8.3900
L8.9515 8.4505
" />
<path d="M8.9515 8.4505
L9.0119 8.5110
" />
</g></g>
<g style="fill:none; 
stroke:#A90000; stroke-width:0.1524; stroke-opacity:1; 
stroke-linecap:round; stroke-linejoin:round;">
<text x="4.2672" y="8.8265"
textLength="1.4127" font-size="1.6933" lengthAdjust="spacingAndGlyphs"
text-anchor="middle" opacity="0" stroke-opacity="0">1</text>
<g class="stroked-text"><desc>1</desc>
<path d="M4.6301 8.6630
L3.9044 8.6630
" />
<path d="M4.2672 8.6630
L4.2672 7.3930
" />
<path d="M4.2672 7.3930
L4.1463 7.5745
" />
<path d="M4.1463 7.5745
L4.0253 7.6954
" />
<path d="M4.0253 7.6954
L3.9044 7.7559
" />
</g></g>
<g style="fill:none; 
stroke:#840000; stroke-width:0.1524; stroke-opacity:1; 
stroke-linecap:round; stroke-linejoin:round;">
<path d="M5.5372 11.6205
L2.9972 11.6205
" />
<path d="M2.6162 11.2395
L3.3782 12.0015
" />
<path d="M3.3782 11.2395
L2.6162 12.0015
" />
</g>
<g style="fill:none; 
stroke:#006464; stroke-width:0.1524; stroke-opacity:1; 
stroke-linecap:round; stroke-linejoin:round;">
<text x="6.5532" y="12.2555"
textLength="2.8037" font-size="1.6933" lengthAdjust="spacingAndGlyphs"
text-anchor="start" opacity="0" stroke-opacity="0">NC</text>
<g class="stroked-text"><desc>NC</desc>
<path d="M6.9557 12.2000
L6.9557 10.9300
" />
<path d="M6.9557 10.9300
L7.6814 12.2000
" />
<path d="M7.6814 12.2000
L7.6814 10.9300
" />
<path d="M9.0119 12.0791
L8.9515 12.1396
" />
<path d="M8.9515 12.1396
L8.7700 12.2000
" />
<path d="M8.7700 12.2000
L8.6491 12.2000
" />
<path d="M8.6491 12.2000
L8.4677 12.1396
" />
<path d="M8.4677 12.1396
L8.3467 12.0186
" />
<path d="M8.3467 12.0186
L8.2862 11.8976
" />
<path d="M8.2862 11.8976
L8.2258 11.6557
" />
<path d="M8.2258 11.6557
L8.2258 11.4743
" />
<path d="M8.2258 11.4743
L8.2862 11.2324
" />
<path d="M8.2862 11.2324
L8.3467 11.1115
" />
<path d="M8.3467 11.1115
L8.4677 10.9905
" />
<path d="M8.4677 10.9905
L8.6491 10.9300
" />
<path d="M8.6491 10.9300
L8.7700 10.9300
" />
<path d="M8.7700 10.9300
L8.9515 10.9905
" />
<path d="M8.9515 10.9905
L9.0119 11.0510
" />
</g></g>
<g style="fill:none; 
stroke:#A90000; stroke-width:0.1524; stroke-opacity:1; 
stroke-linecap:round; stroke-linejoin:round;">
<text x="4.2672" y="11.3665"
textLength="1.4127" font-size="1.6933" lengthAdjust="spacingAndGlyphs"
text-anchor="middle" opacity="0" stroke-opacity="0">2</text>
<g class="stroked-text"><desc>2</desc>
<path d="M3.9044 10.0540
L3.9648 9.9935
" />
<path d="M3.9648 9.9935
L4.0858 9.9330
" />
<path d="M4.0858 9.9330
L4.3882 9.9330
" />
<path d="M4.3882 9.9330
L4.5091 9.9935
" />
<path d="M4.5091 9.9935
L4.5696 10.0540
" />
<path d="M4.5696 10.0540
L4.6301 10.1749
" />
<path d="M4.6301 10.1749
L4.6301 10.2959
" />
<path d="M4.6301 10.2959
L4.5696 10.4773
" />
<path d="M4.5696 10.4773
L3.8439 11.2030
" />
<path d="M3.8439 11.2030
L4.6301 11.2030
" />
</g></g>
<g style="fill:none; 
stroke:#840000; stroke-width:0.1524; stroke-opacity:1; 
stroke-linecap:round; stroke-linejoin:round;">
<path d="M5.5372 14.1605
L2.9972 14.1605
" />
</g>
<g style="fill:none; 
stroke:#006464; stroke-width:0.1524; stroke-opacity:1; 
stroke-linecap:round; stroke-linejoin:round;">
<text x="6.5532" y="14.7955"
textLength="6.9161" font-size="1.6933" lengthAdjust="spacingAndGlyphs"
text-anchor="start" opacity="0" stroke-opacity="0">VDDPIX</text>
<g class="stroked-text"><desc>VDDPIX</desc>
<path d="M6.7743 13.4700
L7.1976 14.7400
" />
<path d="M7.1976 14.7400
L7.6210 13.4700
" />
<path d="M8.0443 14.7400
L8.0443 13.4700
" />
<path d="M8.0443 13.4700
L8.3467 13.4700
" />
<path d="M8.3467 13.4700
L8.5281 13.5305
" />
<path d="M8.5281 13.5305
L8.6491 13.6515
" />
<path d="M8.6491 13.6515
L8.7096 13.7724
" />
<path d="M8.7096 13.7724
L8.7700 14.0143
" />
<path d="M8.7700 14.0143
L8.7700 14.1957
" />
<path d="M8.7700 14.1957
L8.7096 14.4376
" />
<path d="M8.7096 14.4376
L8.6491 14.5586
" />
<path d="M8.6491 14.5586
L8.5281 14.6796
" />
<path d="M8.5281 14.6796
L8.3467 14.7400
" />
<path d="M8.3467 14.7400
L8.0443 14.7400
" />
<path d="M9.3143 14.7400
L9.3143 13.4700
" />
<path d="M9.3143 13.4700
L9.6167 13.4700
" />
<path d="M9.6167 13.4700
L9.7981 13.5305
" />
<path d="M9.7981 13.5305
L9.9191 13.6515
" />
<path d="M9.9191 13.6515
L9.9796 13.7724
" />
<path d="M9.9796 13.7724
L10.0400 14.0143
" />
<path d="M10.0400 14.0143
L10.0400 14.1957
" />
<path d="M10.0400 14.1957
L9.9796 14.4376
" />
<path d="M9.9796 14.4376
L9.9191 14.5586
" />
<path d="M9.9191 14.5586
L9.7981 14.6796
" />
<path d="M9.7981 14.6796
L9.6167 14.7400
" />
<path d="M9.6167 14.7400
L9.3143 14.7400
" />
<path d="M10.5843 14.7400
L10.5843 13.4700
" />
<path d="M10.5843 13.4700
L11.0681 13.4700
" />
<path d="M11.0681 13.4700
L11.1891 13.5305
" />
<path d="M11.1891 13.5305
L11.2496 13.5910
" />
<path d="M11.2496 13.5910
L11.3100 13.7119
" />
<path d="M11.3100 13.7119
L11.3100 13.8934
" />
<path d="M11.3100 13.8934
L11.2496 14.0143
" />
<path d="M11.2496 14.0143
L11.1891 14.0748
" />
<path d="M11.1891 14.0748
L11.0681 14.1353
" />
<path d="M11.0681 14.1353
L10.5843 14.1353
" />
<path d="M11.8543 14.7400
L11.8543 13.4700
" />
<path d="M12.3382 13.4700
L13.1848 14.7400
" />
<path d="M13.1848 13.4700
L12.3382 14.7400
" />
</g></g>
<g style="fill:none; 
stroke:#A90000; stroke-width:0.1524; stroke-opacity:1; 
stroke-linecap:round; stroke-linejoin:round;">
<text x="4.2672" y="13.9065"
textLength="1.4127" font-size="1.6933" lengthAdjust="spacingAndGlyphs"
text-anchor="middle" opacity="0" stroke-opacity="0">3</text>
<g class="stroked-text"><desc>3</desc>
<path d="M3.8439 12.4730
L4.6301 12.4730
" />
<path d="M4.6301 12.4730
L4.2067 12.9568
" />
<path d="M4.2067 12.9568
L4.3882 12.9568
" />
<path d="M4.3882 12.9568
L4.5091 13.0173
" />
<path d="M4.5091 13.0173
L4.5696 13.0778
" />
<path d="M4.5696 13.0778
L4.6301 13.1987
" />
<path d="M4.6301 13.1987
L4.6301 13.5011
" />
<path d="M4.6301 13.5011
L4.5696 13.6221
" />
<path d="M4.5696 13.6221
L4.5091 13.6826
" />
<path d="M4.5091 13.6826
L4.3882 13.7430
" />
<path d="M4.3882 13.7430
L4.0253 13.7430
" />
<path d="M4.0253 13.7430
L3.9044 13.6826
" />
<path d="M3.9044 13.6826
L3.8439 13.6221
" />
</g></g>
<g style="fill:none; 
stroke:#840000; stroke-width:0.1524; stroke-opacity:1; 
stroke-linecap:round; stroke-linejoin:round;">
<path d="M5.5372 16.7005
L2.9972 16.7005
" />
</g>
<g style="fill:none; 
stroke:#006464; stroke-width:0.1524; stroke-opacity:1; 
stroke-linecap:round; stroke-linejoin:round;">
<text x="6.5532" y="17.3355"
textLength="3.8318" font-size="1.6933" lengthAdjust="spacingAndGlyphs"
text-anchor="start" opacity="0" stroke-opacity="0">VDD</text>
<g class="stroked-text"><desc>VDD</desc>
<path d="M6.7743 16.0100
L7.1976 17.2800
" />
<path d="M7.1976 17.2800
L7.6210 16.0100
" />
<path d="M8.0443 17.2800
L8.0443 16.0100
" />
<path d="M8.0443 16.0100
L8.3467 16.0100
" />
<path d="M8.3467 16.0100
L8.5281 16.0705
" />
<path d="M8.5281 16.0705
L8.6491 16.1915
" />
<path d="M8.6491 16.1915
L8.7096 16.3124
" />
<path d="M8.7096 16.3124
L8.7700 16.5543
" />
<path d="M8.7700 16.5543
L8.7700 16.7357
" />
<path d="M8.7700 16.7357
L8.7096 16.9776
" />
<path d="M8.7096 16.9776
L8.6491 17.0986
" />
<path d="M8.6491 17.0986
L8.5281 17.2196
" />
<path d="M8.5281 17.2196
L8.3467 17.2800
" />
<path d="M8.3467 17.2800
L8.0443 17.2800
" />
<path d="M9.3143 17.2800
L9.3143 16.0100
" />
<path d="M9.3143 16.0100
L9.6167 16.0100
" />
<path d="M9.6167 16.0100
L9.7981 16.0705
" />
<path d="M9.7981 16.0705
L9.9191 16.1915
" />
<path d="M9.9191 16.1915
L9.9796 16.3124
" />
<path d="M9.9796 16.3124
L10.0400 16.5543
" />
<path d="M10.0400 16.5543
L10.0400 16.7357
" />
<path d="M10.0400 16.7357
L9.9796 16.9776
" />
<path d="M9.9796 16.9776
L9.9191 17.0986
" />
<path d="M9.9191 17.0986
L9.7981 17.2196
" />
<path d="M9.7981 17.2196
L9.6167 17.2800
" />
<path d="M9.6167 17.2800
L9.3143 17.2800
" />
</g></g>
<g style="fill:none; 
stroke:#A90000; stroke-width:0.1524; stroke-opacity:1; 
stroke-linecap:round; stroke-linejoin:round;">
<text x="4.2672" y="16.4465"
textLength="1.4127" font-size="1.6933" lengthAdjust="spacingAndGlyphs"
text-anchor="middle" opacity="0" stroke-opacity="0">4</text>
<g class="stroked-text"><desc>4</desc>
<path d="M4.5091 15.4364
L4.5091 16.2830
" />
<path d="M4.2067 14.9526
L3.9044 15.8597
" />
<path d="M3.9044 15.8597
L4.6905 15.8597
" />
</g></g>
<g style="fill:none; 
stroke:#840000; stroke-width:0.1524; stroke-opacity:1; 
stroke-linecap:round; stroke-linejoin:round;">
<path d="M5.5372 19.2405
L2.9972 19.2405
" />
</g>
<g style="fill:none; 
stroke:#006464; stroke-width:0.1524; stroke-opacity:1; 
stroke-linecap:round; stroke-linejoin:round;">
<text x="6.5532" y="19.8755"
textLength="5.7671" font-size="1.6933" lengthAdjust="spacingAndGlyphs"
text-anchor="start" opacity="0" stroke-opacity="0">VDDIO</text>
<g class="stroked-text"><desc>VDDIO</desc>
<path d="M6.7743 18.5500
L7.1976 19.8200
" />
<path d="M7.1976 19.8200
L7.6210 18.5500
" />
<path d="M8.0443 19.8200
L8.0443 18.5500
" />
<path d="M8.0443 18.5500
L8.3467 18.5500
" />
<path d="M8.3467 18.5500
L8.5281 18.6105
" />
<path d="M8.5281 18.6105
L8.6491 18.7315
" />
<path d="M8.6491 18.7315
L8.7096 18.8524
" />
<path d="M8.7096 18.8524
L8.7700 19.0943
" />
<path d="M8.7700 19.0943
L8.7700 19.2757
" />
<path d="M8.7700 19.2757
L8.7096 19.5176
" />
<path d="M8.7096 19.5176
L8.6491 19.6386
" />
<path d="M8.6491 19.6386
L8.5281 19.7596
" />
<path d="M8.5281 19.7596
L8.3467 19.8200
" />
<path d="M8.3467 19.8200
L8.0443 19.8200
" />
<path d="M9.3143 19.8200
L9.3143 18.5500
" />
<path d="M9.3143 18.5500
L9.6167 18.5500
" />
<path d="M9.6167 18.5500
L9.7981 18.6105
" />
<path d="M9.7981 18.6105
L9.9191 18.7315
" />
<path d="M9.9191 18.7315
L9.9796 18.8524
" />
<path d="M9.9796 18.8524
L10.0400 19.0943
" />
<path d="M10.0400 19.0943
L10.0400 19.2757
" />
<path d="M10.0400 19.2757
L9.9796 19.5176
" />
<path d="M9.9796 19.5176
L9.9191 19.6386
" />
<path d="M9.9191 19.6386
L9.7981 19.7596
" />
<path d="M9.7981 19.7596
L9.6167 19.8200
" />
<path d="M9.6167 19.8200
L9.3143 19.8200
" />
<path d="M10.5843 19.8200
L10.5843 18.5500
" />
<path d="M11.4310 18.5500
L11.6729 18.5500
" />
<path d="M11.6729 18.5500
L11.7939 18.6105
" />
<path d="M11.7939 18.6105
L11.9148 18.7315
" />
<path d="M11.9148 18.7315
L11.9753 18.9734
" />
<path d="M11.9753 18.9734
L11.9753 19.3967
" />
<path d="M11.9753 19.3967
L11.9148 19.6386
" />
<path d="M11.9148 19.6386
L11.7939 19.7596
" />
<path d="M11.7939 19.7596
L11.6729 19.8200
" />
<path d="M11.6729 19.8200
L11.4310 19.8200
" />
<path d="M11.4310 19.8200
L11.3101 19.7596
" />
<path d="M11.3101 19.7596
L11.1891 19.6386
" />
<path d="M11.1891 19.6386
L11.1287 19.3967
" />
<path d="M11.1287 19.3967
L11.1287 18.9734
" />
<path d="M11.1287 18.9734
L11.1891 18.7315
" />
<path d="M11.1891 18.7315
L11.3101 18.6105
" />
<path d="M11.3101 18.6105
L11.4310 18.5500
" />
</g></g>
<g style="fill:none; 
stroke:#A90000; stroke-width:0.1524; stroke-opacity:1; 
stroke-linecap:round; stroke-linejoin:round;">
<text x="4.2672" y="18.9865"
textLength="1.4127" font-size="1.6933" lengthAdjust="spacingAndGlyphs"
text-anchor="middle" opacity="0" stroke-opacity="0">5</text>
<g class="stroked-text"><desc>5</desc>
<path d="M4.5696 17.5530
L3.9648 17.5530
" />
<path d="M3.9648 17.5530
L3.9044 18.1578
" />
<path d="M3.9044 18.1578
L3.9648 18.0973
" />
<path d="M3.9648 18.0973
L4.0858 18.0368
" />
<path d="M4.0858 18.0368
L4.3882 18.0368
" />
<path d="M4.3882 18.0368
L4.5091 18.0973
" />
<path d="M4.5091 18.0973
L4.5696 18.1578
" />
<path d="M4.5696 18.1578
L4.6301 18.2787
" />
<path d="M4.6301 18.2787
L4.6301 18.5811
" />
<path d="M4.6301 18.5811
L4.5696 18.7021
" />
<path d="M4.5696 18.7021
L4.5091 18.7626
" />
<path d="M4.5091 18.7626
L4.3882 18.8230
" />
<path d="M4.3882 18.8230
L4.0858 18.8230
" />
<path d="M4.0858 18.8230
L3.9648 18.7626
" />
<path d="M3.9648 18.7626
L3.9044 18.7021
" />
</g></g>
<g style="fill:none; 
stroke:#840000; stroke-width:0.1524; stroke-opacity:1; 
stroke-linecap:round; stroke-linejoin:round;">
<path d="M5.5372 21.7805
L2.9972 21.7805
" />
<path d="M2.6162 21.3995
L3.3782 22.1615
" />
<path d="M3.3782 21.3995
L2.6162 22.1615
" />
</g>
<g style="fill:none; 
stroke:#006464; stroke-width:0.1524; stroke-opacity:1; 
stroke-linecap:round; stroke-linejoin:round;">
<text x="6.5532" y="22.4155"
textLength="2.8037" font-size="1.6933" lengthAdjust="spacingAndGlyphs"
text-anchor="start" opacity="0" stroke-opacity="0">NC</text>
<g class="stroked-text"><desc>NC</desc>
<path d="M6.9557 22.3600
L6.9557 21.0900
" />
<path d="M6.9557 21.0900
L7.6814 22.3600
" />
<path d="M7.6814 22.3600
L7.6814 21.0900
" />
<path d="M9.0119 22.2391
L8.9515 22.2996
" />
<path d="M8.9515 22.2996
L8.7700 22.3600
" />
<path d="M8.7700 22.3600
L8.6491 22.3600
" />
<path d="M8.6491 22.3600
L8.4677 22.2996
" />
<path d="M8.4677 22.2996
L8.3467 22.1786
" />
<path d="M8.3467 22.1786
L8.2862 22.0576
" />
<path d="M8.2862 22.0576
L8.2258 21.8157
" />
<path d="M8.2258 21.8157
L8.2258 21.6343
" />
<path d="M8.2258 21.6343
L8.2862 21.3924
" />
<path d="M8.2862 21.3924
L8.3467 21.2715
" />
<path d="M8.3467 21.2715
L8.4677 21.1505
" />
<path d="M8.4677 21.1505
L8.6491 21.0900
" />
<path d="M8.6491 21.0900
L8.7700 21.0900
" />
<path d="M8.7700 21.0900
L8.9515 21.1505
" />
<path d="M8.9515 21.1505
L9.0119 21.2110
" />
</g></g>
<g style="fill:none; 
stroke:#A90000; stroke-width:0.1524; stroke-opacity:1; 
stroke-linecap:round; stroke-linejoin:round;">
<text x="4.2672" y="21.5265"
textLength="1.4127" font-size="1.6933" lengthAdjust="spacingAndGlyphs"
text-anchor="middle" opacity="0" stroke-opacity="0">6</text>
<g class="stroked-text"><desc>6</desc>
<path d="M4.5091 20.0930
L4.2672 20.0930
" />
<path d="M4.2672 20.0930
L4.1463 20.1535
" />
<path d="M4.1463 20.1535
L4.0858 20.2140
" />
<path d="M4.0858 20.2140
L3.9648 20.3954
" />
<path d="M3.9648 20.3954
L3.9044 20.6373
" />
<path d="M3.9044 20.6373
L3.9044 21.1211
" />
<path d="M3.9044 21.1211
L3.9648 21.2421
" />
<path d="M3.9648 21.2421
L4.0253 21.3026
" />
<path d="M4.0253 21.3026
L4.1463 21.3630
" />
<path d="M4.1463 21.3630
L4.3882 21.3630
" />
<path d="M4.3882 21.3630
L4.5091 21.3026
" />
<path d="M4.5091 21.3026
L4.5696 21.2421
" />
<path d="M4.5696 21.2421
L4.6301 21.1211
" />
<path d="M4.6301 21.1211
L4.6301 20.8187
" />
<path d="M4.6301 20.8187
L4.5696 20.6978
" />
<path d="M4.5696 20.6978
L4.5091 20.6373
" />
<path d="M4.5091 20.6373
L4.3882 20.5768
" />
<path d="M4.3882 20.5768
L4.1463 20.5768
" />
<path d="M4.1463 20.5768
L4.0253 20.6373
" />
<path d="M4.0253 20.6373
L3.9648 20.6978
" />
<path d="M3.9648 20.6978
L3.9044 20.8187
" />
</g></g>
<g style="fill:none; 
stroke:#840000; stroke-width:0.1524; stroke-opacity:1; 
stroke-linecap:round; stroke-linejoin:round;">
<path d="M5.5372 24.3205
L2.9972 24.3205
" />
</g>
<g style="fill:none; 
stroke:#006464; stroke-width:0.1524; stroke-opacity:1; 
stroke-linecap:round; stroke-linejoin:round;">
<text x="6.5532" y="24.9555"
textLength="5.9483" font-size="1.6933" lengthAdjust="spacingAndGlyphs"
text-anchor="start" opacity="0" stroke-opacity="0">~{RESET}</text>
<g class="stroked-text"><desc>~{RESET}</desc>
<path d="M7.6814 24.9000
L7.2581 24.2953
" />
<path d="M6.9557 24.9000
L6.9557 23.6300
" />
<path d="M6.9557 23.6300
L7.4395 23.6300
" />
<path d="M7.4395 23.6300
L7.5605 23.6905
" />
<path d="M7.5605 23.6905
L7.6210 23.7510
" />
<path d="M7.6210 23.7510
L7.6814 23.8719
" />
<path d="M7.6814 23.8719
L7.6814 24.0534
" />
<path d="M7.6814 24.0534
L7.6210 24.1743
" />
<path d="M7.6210 24.1743
L7.5605 24.2348
" />
<path d="M7.5605 24.2348
L7.4395 24.2953
" />
<path d="M7.4395 24.2953
L6.9557 24.2953
" />
<path d="M8.2257 24.2348
L8.6491 24.2348
" />
<path d="M8.8305 24.9000
L8.2257 24.9000
" />
<path d="M8.2257 24.9000
L8.2257 23.6300
" />
<path d="M8.2257 23.6300
L8.8305 23.6300
" />
<path d="M9.3143 24.8396
L9.4957 24.9000
" />
<path d="M9.4957 24.9000
L9.7981 24.9000
" />
<path d="M9.7981 24.9000
L9.9190 24.8396
" />
<path d="M9.9190 24.8396
L9.9795 24.7791
" />
<path d="M9.9795 24.7791
L10.0400 24.6581
" />
<path d="M10.0400 24.6581
L10.0400 24.5372
" />
<path d="M10.0400 24.5372
L9.9795 24.4162
" />
<path d="M9.9795 24.4162
L9.9190 24.3557
" />
<path d="M9.9190 24.3557
L9.7981 24.2953
" />
<path d="M9.7981 24.2953
L9.5562 24.2348
" />
<path d="M9.5562 24.2348
L9.4352 24.1743
" />
<path d="M9.4352 24.1743
L9.3747 24.1138
" />
<path d="M9.3747 24.1138
L9.3143 23.9929
" />
<path d="M9.3143 23.9929
L9.3143 23.8719
" />
<path d="M9.3143 23.8719
L9.3747 23.7510
" />
<path d="M9.3747 23.7510
L9.4352 23.6905
" />
<path d="M9.4352 23.6905
L9.5562 23.6300
" />
<path d="M9.5562 23.6300
L9.8585 23.6300
" />
<path d="M9.8585 23.6300
L10.0400 23.6905
" />
<path d="M10.5842 24.2348
L11.0076 24.2348
" />
<path d="M11.1890 24.9000
L10.5842 24.9000
" />
<path d="M10.5842 24.9000
L10.5842 23.6300
" />
<path d="M10.5842 23.6300
L11.1890 23.6300
" />
<path d="M11.5518 23.6300
L12.2775 23.6300
" />
<path d="M11.9147 24.9000
L11.9147 23.6300
" />
<path d="M6.7804 23.2775
L12.2715 23.2775
" />
</g></g>
<g style="fill:none; 
stroke:#A90000; stroke-width:0.1524; stroke-opacity:1; 
stroke-linecap:round; stroke-linejoin:round;">
<text x="4.2672" y="24.0665"
textLength="1.4127" font-size="1.6933" lengthAdjust="spacingAndGlyphs"
text-anchor="middle" opacity="0" stroke-opacity="0">7</text>
<g class="stroked-text"><desc>7</desc>
<path d="M3.8439 22.6330
L4.6905 22.6330
" />
<path d="M4.6905 22.6330
L4.1463 23.9030
" />
</g></g>
<g style="fill:none; 
stroke:#840000; stroke-width:0.1524; stroke-opacity:1; 
stroke-linecap:round; stroke-linejoin:round;">
<path d="M5.5372 26.8605
L2.9972 26.8605
" />
</g>
<g style="fill:none; 
stroke:#006464; stroke-width:0.1524; stroke-opacity:1; 
stroke-linecap:round; stroke-linejoin:round;">
<text x="6.5532" y="27.4955"
textLength="4.0737" font-size="1.6933" lengthAdjust="spacingAndGlyphs"
text-anchor="start" opacity="0" stroke-opacity="0">GND</text>
<g class="stroked-text"><desc>GND</desc>
<path d="M7.6210 26.2305
L7.5000 26.1700
" />
<path d="M7.5000 26.1700
L7.3186 26.1700
" />
<path d="M7.3186 26.1700
L7.1372 26.2305
" />
<path d="M7.1372 26.2305
L7.0162 26.3515
" />
<path d="M7.0162 26.3515
L6.9557 26.4724
" />
<path d="M6.9557 26.4724
L6.8953 26.7143
" />
<path d="M6.8953 26.7143
L6.8953 26.8957
" />
<path d="M6.8953 26.8957
L6.9557 27.1376
" />
<path d="M6.9557 27.1376
L7.0162 27.2586
" />
<path d="M7.0162 27.2586
L7.1372 27.3796
" />
<path d="M7.1372 27.3796
L7.3186 27.4400
" />
<path d="M7.3186 27.4400
L7.4395 27.4400
" />
<path d="M7.4395 27.4400
L7.6210 27.3796
" />
<path d="M7.6210 27.3796
L7.6814 27.3191
" />
<path d="M7.6814 27.3191
L7.6814 26.8957
" />
<path d="M7.6814 26.8957
L7.4395 26.8957
" />
<path d="M8.2257 27.4400
L8.2257 26.1700
" />
<path d="M8.2257 26.1700
L8.9514 27.4400
" />
<path d="M8.9514 27.4400
L8.9514 26.1700
" />
<path d="M9.5562 27.4400
L9.5562 26.1700
" />
<path d="M9.5562 26.1700
L9.8586 26.1700
" />
<path d="M9.8586 26.1700
L10.0400 26.2305
" />
<path d="M10.0400 26.2305
L10.1610 26.3515
" />
<path d="M10.1610 26.3515
L10.2215 26.4724
" />
<path d="M10.2215 26.4724
L10.2819 26.7143
" />
<path d="M10.2819 26.7143
L10.2819 26.8957
" />
<path d="M10.2819 26.8957
L10.2215 27.1376
" />
<path d="M10.2215 27.1376
L10.1610 27.2586
" />
<path d="M10.1610 27.2586
L10.0400 27.3796
" />
<path d="M10.0400 27.3796
L9.8586 27.4400
" />
<path d="M9.8586 27.4400
L9.5562 27.4400
" />
</g></g>
<g style="fill:none; 
stroke:#A90000; stroke-width:0.1524; stroke-opacity:1; 
stroke-linecap:round; stroke-linejoin:round;">
<text x="4.2672" y="26.6065"
textLength="1.4127" font-size="1.6933" lengthAdjust="spacingAndGlyphs"
text-anchor="middle" opacity="0" stroke-opacity="0">8</text>
<g class="stroked-text"><desc>8</desc>
<path d="M4.1463 25.7173
L4.0253 25.6568
" />
<path d="M4.0253 25.6568
L3.9648 25.5964
" />
<path d="M3.9648 25.5964
L3.9044 25.4754
" />
<path d="M3.9044 25.4754
L3.9044 25.4149
" />
<path d="M3.9044 25.4149
L3.9648 25.2940
" />
<path d="M3.9648 25.2940
L4.0253 25.2335
" />
<path d="M4.0253 25.2335
L4.1463 25.1730
" />
<path d="M4.1463 25.1730
L4.3882 25.1730
" />
<path d="M4.3882 25.1730
L4.5091 25.2335
" />
<path d="M4.5091 25.2335
L4.5696 25.2940
" />
<path d="M4.5696 25.2940
L4.6301 25.4149
" />
<path d="M4.6301 25.4149
L4.6301 25.4754
" />
<path d="M4.6301 25.4754
L4.5696 25.5964
" />
<path d="M4.5696 25.5964
L4.5091 25.6568
" />
<path d="M4.5091 25.6568
L4.3882 25.7173
" />
<path d="M4.3882 25.7173
L4.1463 25.7173
" />
<path d="M4.1463 25.7173
L4.0253 25.7778
" />
<path d="M4.0253 25.7778
L3.9648 25.8383
" />
<path d="M3.9648 25.8383
L3.9044 25.9592
" />
<path d="M3.9044 25.9592
L3.9044 26.2011
" />
<path d="M3.9044 26.2011
L3.9648 26.3221
" />
<path d="M3.9648 26.3221
L4.0253 26.3826
" />
<path d="M4.0253 26.3826
L4.1463 26.4430
" />
<path d="M4.1463 26.4430
L4.3882 26.4430
" />
<path d="M4.3882 26.4430
L4.5091 26.3826
" />
<path d="M4.5091 26.3826
L4.5696 26.3221
" />
<path d="M4.5696 26.3221
L4.6301 26.2011
" />
<path d="M4.6301 26.2011
L4.6301 25.9592
" />
<path d="M4.6301 25.9592
L4.5696 25.8383
" />
<path d="M4.5696 25.8383
L4.5091 25.7778
" />
<path d="M4.5091 25.7778
L4.3882 25.7173
" />
</g></g>
<g style="fill:none; 
stroke:#840000; stroke-width:0.1524; stroke-opacity:1; 
stroke-linecap:round; stroke-linejoin:round;">
<path d="M25.8572 9.0805
L28.3972 9.0805
" />
<path d="M28.0162 8.6995
L28.7782 9.4615
" />
<path d="M28.7782 8.6995
L28.0162 9.4615
" />
</g>
<g style="fill:none; 
stroke:#006464; stroke-width:0.1524; stroke-opacity:1; 
stroke-linecap:round; stroke-linejoin:round;">
<text x="24.8412" y="9.7155"
textLength="2.8037" font-size="1.6933" lengthAdjust="spacingAndGlyphs"
text-anchor="end" opacity="0" stroke-opacity="0">NC</text>
<g class="stroked-text"><desc>NC</desc>
<path d="M22.4428 9.6600
L22.4428 8.3900
" />
<path d="M22.4428 8.3900
L23.1685 9.6600
" />
<path d="M23.1685 9.6600
L23.1685 8.3900
" />
<path d="M24.4990 9.5391
L24.4386 9.5996
" />
<path d="M24.4386 9.5996
L24.2571 9.6600
" />
<path d="M24.2571 9.6600
L24.1362 9.6600
" />
<path d="M24.1362 9.6600
L23.9548 9.5996
" />
<path d="M23.9548 9.5996
L23.8338 9.4786
" />
<path d="M23.8338 9.4786
L23.7733 9.3576
" />
<path d="M23.7733 9.3576
L23.7129 9.1157
" />
<path d="M23.7129 9.1157
L23.7129 8.9343
" />
<path d="M23.7129 8.9343
L23.7733 8.6924
" />
<path d="M23.7733 8.6924
L23.8338 8.5715
" />
<path d="M23.8338 8.5715
L23.9548 8.4505
" />
<path d="M23.9548 8.4505
L24.1362 8.3900
" />
<path d="M24.1362 8.3900
L24.2571 8.3900
" />
<path d="M24.2571 8.3900
L24.4386 8.4505
" />
<path d="M24.4386 8.4505
L24.4990 8.5110
" />
</g></g>
<g style="fill:none; 
stroke:#A90000; stroke-width:0.1524; stroke-opacity:1; 
stroke-linecap:round; stroke-linejoin:round;">
<text x="27.1272" y="8.8265"
textLength="2.6222" font-size="1.6933" lengthAdjust="spacingAndGlyphs"
text-anchor="middle" opacity="0" stroke-opacity="0">16</text>
<g class="stroked-text"><desc>16</desc>
<path d="M26.8853 8.6630
L26.1596 8.6630
" />
<path d="M26.5224 8.6630
L26.5224 7.3930
" />
<path d="M26.5224 7.3930
L26.4015 7.5745
" />
<path d="M26.4015 7.5745
L26.2805 7.6954
" />
<path d="M26.2805 7.6954
L26.1596 7.7559
" />
<path d="M27.9738 7.3930
L27.7319 7.3930
" />
<path d="M27.7319 7.3930
L27.6110 7.4535
" />
<path d="M27.6110 7.4535
L27.5505 7.5140
" />
<path d="M27.5505 7.5140
L27.4295 7.6954
" />
<path d="M27.4295 7.6954
L27.3691 7.9373
" />
<path d="M27.3691 7.9373
L27.3691 8.4211
" />
<path d="M27.3691 8.4211
L27.4295 8.5421
" />
<path d="M27.4295 8.5421
L27.4900 8.6026
" />
<path d="M27.4900 8.6026
L27.6110 8.6630
" />
<path d="M27.6110 8.6630
L27.8529 8.6630
" />
<path d="M27.8529 8.6630
L27.9738 8.6026
" />
<path d="M27.9738 8.6026
L28.0343 8.5421
" />
<path d="M28.0343 8.5421
L28.0948 8.4211
" />
<path d="M28.0948 8.4211
L28.0948 8.1187
" />
<path d="M28.0948 8.1187
L28.0343 7.9978
" />
<path d="M28.0343 7.9978
L27.9738 7.9373
" />
<path d="M27.9738 7.9373
L27.8529 7.8768
" />
<path d="M27.8529 7.8768
L27.6110 7.8768
" />
<path d="M27.6110 7.8768
L27.4900 7.9373
" />
<path d="M27.4900 7.9373
L27.4295 7.9978
" />
<path d="M27.4295 7.9978
L27.3691 8.1187
" />
</g></g>
<g style="fill:none; 
stroke:#840000; stroke-width:0.1524; stroke-opacity:1; 
stroke-linecap:round; stroke-linejoin:round;">
<path d="M25.8572 11.6205
L28.3972 11.6205
" />
</g>
<g style="fill:none; 
stroke:#006464; stroke-width:0.1524; stroke-opacity:1; 
stroke-linecap:round; stroke-linejoin:round;">
<text x="24.8412" y="12.2555"
textLength="5.8879" font-size="1.6933" lengthAdjust="spacingAndGlyphs"
text-anchor="end" opacity="0" stroke-opacity="0">LED_P</text>
<g class="stroked-text"><desc>LED_P</desc>
<path d="M19.9634 12.2000
L19.3586 12.2000
" />
<path d="M19.3586 12.2000
L19.3586 10.9300
" />
<path d="M20.3867 11.5348
L20.8101 11.5348
" />
<path d="M20.9915 12.2000
L20.3867 12.2000
" />
<path d="M20.3867 12.2000
L20.3867 10.9300
" />
<path d="M20.3867 10.9300
L20.9915 10.9300
" />
<path d="M21.5357 12.2000
L21.5357 10.9300
" />
<path d="M21.5357 10.9300
L21.8381 10.9300
" />
<path d="M21.8381 10.9300
L22.0195 10.9905
" />
<path d="M22.0195 10.9905
L22.1405 11.1115
" />
<path d="M22.1405 11.1115
L22.2010 11.2324
" />
<path d="M22.2010 11.2324
L22.2614 11.4743
" />
<path d="M22.2614 11.4743
L22.2614 11.6557
" />
<path d="M22.2614 11.6557
L22.2010 11.8976
" />
<path d="M22.2010 11.8976
L22.1405 12.0186
" />
<path d="M22.1405 12.0186
L22.0195 12.1396
" />
<path d="M22.0195 12.1396
L21.8381 12.2000
" />
<path d="M21.8381 12.2000
L21.5357 12.2000
" />
<path d="M22.5034 12.3210
L23.4710 12.3210
" />
<path d="M23.7733 12.2000
L23.7733 10.9300
" />
<path d="M23.7733 10.9300
L24.2571 10.9300
" />
<path d="M24.2571 10.9300
L24.3781 10.9905
" />
<path d="M24.3781 10.9905
L24.4386 11.0510
" />
<path d="M24.4386 11.0510
L24.4990 11.1719
" />
<path d="M24.4990 11.1719
L24.4990 11.3534
" />
<path d="M24.4990 11.3534
L24.4386 11.4743
" />
<path d="M24.4386 11.4743
L24.3781 11.5348
" />
<path d="M24.3781 11.5348
L24.2571 11.5953
" />
<path d="M24.2571 11.5953
L23.7733 11.5953
" />
</g></g>
<g style="fill:none; 
stroke:#A90000; stroke-width:0.1524; stroke-opacity:1; 
stroke-linecap:round; stroke-linejoin:round;">
<text x="27.1272" y="11.3665"
textLength="2.6222" font-size="1.6933" lengthAdjust="spacingAndGlyphs"
text-anchor="middle" opacity="0" stroke-opacity="0">15</text>
<g class="stroked-text"><desc>15</desc>
<path d="M26.8853 11.2030
L26.1596 11.2030
" />
<path d="M26.5224 11.2030
L26.5224 9.9330
" />
<path d="M26.5224 9.9330
L26.4015 10.1145
" />
<path d="M26.4015 10.1145
L26.2805 10.2354
" />
<path d="M26.2805 10.2354
L26.1596 10.2959
" />
<path d="M28.0343 9.9330
L27.4295 9.9330
" />
<path d="M27.4295 9.9330
L27.3691 10.5378
" />
<path d="M27.3691 10.5378
L27.4295 10.4773
" />
<path d="M27.4295 10.4773
L27.5505 10.4168
" />
<path d="M27.5505 10.4168
L27.8529 10.4168
" />
<path d="M27.8529 10.4168
L27.9738 10.4773
" />
<path d="M27.9738 10.4773
L28.0343 10.5378
" />
<path d="M28.0343 10.5378
L28.0948 10.6587
" />
<path d="M28.0948 10.6587
L28.0948 10.9611
" />
<path d="M28.0948 10.9611
L28.0343 11.0821
" />
<path d="M28.0343 11.0821
L27.9738 11.1426
" />
<path d="M27.9738 11.1426
L27.8529 11.2030
" />
<path d="M27.8529 11.2030
L27.5505 11.2030
" />
<path d="M27.5505 11.2030
L27.4295 11.1426
" />
<path d="M27.4295 11.1426
L27.3691 11.0821
" />
</g></g>
<g style="fill:none; 
stroke:#840000; stroke-width:0.1524; stroke-opacity:1; 
stroke-linecap:round; stroke-linejoin:round;">
<path d="M25.8572 14.1605
L28.3972 14.1605
" />
<path d="M28.0162 13.7795
L28.7782 14.5415
" />
<path d="M28.7782 13.7795
L28.0162 14.5415
" />
</g>
<g style="fill:none; 
stroke:#006464; stroke-width:0.1524; stroke-opacity:1; 
stroke-linecap:round; stroke-linejoin:round;">
<text x="24.8412" y="14.7955"
textLength="2.8037" font-size="1.6933" lengthAdjust="spacingAndGlyphs"
text-anchor="end" opacity="0" stroke-opacity="0">NC</text>
<g class="stroked-text"><desc>NC</desc>
<path d="M22.4428 14.7400
L22.4428 13.4700
" />
<path d="M22.4428 13.4700
L23.1685 14.7400
" />
<path d="M23.1685 14.7400
L23.1685 13.4700
" />
<path d="M24.4990 14.6191
L24.4386 14.6796
" />
<path d="M24.4386 14.6796
L24.2571 14.7400
" />
<path d="M24.2571 14.7400
L24.1362 14.7400
" />
<path d="M24.1362 14.7400
L23.9548 14.6796
" />
<path d="M23.9548 14.6796
L23.8338 14.5586
" />
<path d="M23.8338 14.5586
L23.7733 14.4376
" />
<path d="M23.7733 14.4376
L23.7129 14.1957
" />
<path d="M23.7129 14.1957
L23.7129 14.0143
" />
<path d="M23.7129 14.0143
L23.7733 13.7724
" />
<path d="M23.7733 13.7724
L23.8338 13.6515
" />
<path d="M23.8338 13.6515
L23.9548 13.5305
" />
<path d="M23.9548 13.5305
L24.1362 13.4700
" />
<path d="M24.1362 13.4700
L24.2571 13.4700
" />
<path d="M24.2571 13.4700
L24.4386 13.5305
" />
<path d="M24.4386 13.5305
L24.4990 13.5910
" />
</g></g>
<g style="fill:none; 
stroke:#A90000; stroke-width:0.1524; stroke-opacity:1; 
stroke-linecap:round; stroke-linejoin:round;">
<text x="27.1272" y="13.9065"
textLength="2.6222" font-size="1.6933" lengthAdjust="spacingAndGlyphs"
text-anchor="middle" opacity="0" stroke-opacity="0">14</text>
<g class="stroked-text"><desc>14</desc>
<path d="M26.8853 13.7430
L26.1596 13.7430
" />
<path d="M26.5224 13.7430
L26.5224 12.4730
" />
<path d="M26.5224 12.4730
L26.4015 12.6545
" />
<path d="M26.4015 12.6545
L26.2805 12.7754
" />
<path d="M26.2805 12.7754
L26.1596 12.8359
" />
<path d="M27.9738 12.8964
L27.9738 13.7430
" />
<path d="M27.6714 12.4126
L27.3691 13.3197
" />
<path d="M27.3691 13.3197
L28.1552 13.3197
" />
</g></g>
<g style="fill:none; 
stroke:#840000; stroke-width:0.1524; stroke-opacity:1; 
stroke-linecap:round; stroke-linejoin:round;">
<path d="M25.8572 16.7005
L28.3972 16.7005
" />
</g>
<g style="fill:none; 
stroke:#006464; stroke-width:0.1524; stroke-opacity:1; 
stroke-linecap:round; stroke-linejoin:round;">
<text x="24.8412" y="17.3355"
textLength="2.6827" font-size="1.6933" lengthAdjust="spacingAndGlyphs"
text-anchor="end" opacity="0" stroke-opacity="0">~{CS}</text>
<g class="stroked-text"><desc>~{CS}</desc>
<path d="M23.2895 17.1591
L23.2291 17.2196
" />
<path d="M23.2291 17.2196
L23.0476 17.2800
" />
<path d="M23.0476 17.2800
L22.9267 17.2800
" />
<path d="M22.9267 17.2800
L22.7453 17.2196
" />
<path d="M22.7453 17.2196
L22.6243 17.0986
" />
<path d="M22.6243 17.0986
L22.5638 16.9776
" />
<path d="M22.5638 16.9776
L22.5034 16.7357
" />
<path d="M22.5034 16.7357
L22.5034 16.5543
" />
<path d="M22.5034 16.5543
L22.5638 16.3124
" />
<path d="M22.5638 16.3124
L22.6243 16.1915
" />
<path d="M22.6243 16.1915
L22.7453 16.0705
" />
<path d="M22.7453 16.0705
L22.9267 16.0100
" />
<path d="M22.9267 16.0100
L23.0476 16.0100
" />
<path d="M23.0476 16.0100
L23.2291 16.0705
" />
<path d="M23.2291 16.0705
L23.2895 16.1310
" />
<path d="M23.7734 17.2196
L23.9548 17.2800
" />
<path d="M23.9548 17.2800
L24.2572 17.2800
" />
<path d="M24.2572 17.2800
L24.3781 17.2196
" />
<path d="M24.3781 17.2196
L24.4386 17.1591
" />
<path d="M24.4386 17.1591
L24.4991 17.0381
" />
<path d="M24.4991 17.0381
L24.4991 16.9172
" />
<path d="M24.4991 16.9172
L24.4386 16.7962
" />
<path d="M24.4386 16.7962
L24.3781 16.7357
" />
<path d="M24.3781 16.7357
L24.2572 16.6753
" />
<path d="M24.2572 16.6753
L24.0153 16.6148
" />
<path d="M24.0153 16.6148
L23.8943 16.5543
" />
<path d="M23.8943 16.5543
L23.8338 16.4938
" />
<path d="M23.8338 16.4938
L23.7734 16.3729
" />
<path d="M23.7734 16.3729
L23.7734 16.2519
" />
<path d="M23.7734 16.2519
L23.8338 16.1310
" />
<path d="M23.8338 16.1310
L23.8943 16.0705
" />
<path d="M23.8943 16.0705
L24.0153 16.0100
" />
<path d="M24.0153 16.0100
L24.3176 16.0100
" />
<path d="M24.3176 16.0100
L24.4991 16.0705
" />
<path d="M22.3885 15.6575
L24.6140 15.6575
" />
</g></g>
<g style="fill:none; 
stroke:#A90000; stroke-width:0.1524; stroke-opacity:1; 
stroke-linecap:round; stroke-linejoin:round;">
<text x="27.1272" y="16.4465"
textLength="2.6222" font-size="1.6933" lengthAdjust="spacingAndGlyphs"
text-anchor="middle" opacity="0" stroke-opacity="0">13</text>
<g class="stroked-text"><desc>13</desc>
<path d="M26.8853 16.2830
L26.1596 16.2830
" />
<path d="M26.5224 16.2830
L26.5224 15.0130
" />
<path d="M26.5224 15.0130
L26.4015 15.1945
" />
<path d="M26.4015 15.1945
L26.2805 15.3154
" />
<path d="M26.2805 15.3154
L26.1596 15.3759
" />
<path d="M27.3086 15.0130
L28.0948 15.0130
" />
<path d="M28.0948 15.0130
L27.6714 15.4968
" />
<path d="M27.6714 15.4968
L27.8529 15.4968
" />
<path d="M27.8529 15.4968
L27.9738 15.5573
" />
<path d="M27.9738 15.5573
L28.0343 15.6178
" />
<path d="M28.0343 15.6178
L28.0948 15.7387
" />
<path d="M28.0948 15.7387
L28.0948 16.0411
" />
<path d="M28.0948 16.0411
L28.0343 16.1621
" />
<path d="M28.0343 16.1621
L27.9738 16.2226
" />
<path d="M27.9738 16.2226
L27.8529 16.2830
" />
<path d="M27.8529 16.2830
L27.4900 16.2830
" />
<path d="M27.4900 16.2830
L27.3691 16.2226
" />
<path d="M27.3691 16.2226
L27.3086 16.1621
" />
</g></g>
<g style="fill:none; 
stroke:#840000; stroke-width:0.1524; stroke-opacity:1; 
stroke-linecap:round; stroke-linejoin:round;">
<path d="M25.8572 19.2405
L28.3972 19.2405
" />
</g>
<g style="fill:none; 
stroke:#006464; stroke-width:0.1524; stroke-opacity:1; 
stroke-linecap:round; stroke-linejoin:round;">
<text x="24.8412" y="19.8755"
textLength="4.7994" font-size="1.6933" lengthAdjust="spacingAndGlyphs"
text-anchor="end" opacity="0" stroke-opacity="0">MISO</text>
<g class="stroked-text"><desc>MISO</desc>
<path d="M20.4471 19.8200
L20.4471 18.5500
" />
<path d="M20.4471 18.5500
L20.8705 19.4572
" />
<path d="M20.8705 19.4572
L21.2938 18.5500
" />
<path d="M21.2938 18.5500
L21.2938 19.8200
" />
<path d="M21.8985 19.8200
L21.8985 18.5500
" />
<path d="M22.4429 19.7596
L22.6243 19.8200
" />
<path d="M22.6243 19.8200
L22.9267 19.8200
" />
<path d="M22.9267 19.8200
L23.0476 19.7596
" />
<path d="M23.0476 19.7596
L23.1081 19.6991
" />
<path d="M23.1081 19.6991
L23.1686 19.5781
" />
<path d="M23.1686 19.5781
L23.1686 19.4572
" />
<path d="M23.1686 19.4572
L23.1081 19.3362
" />
<path d="M23.1081 19.3362
L23.0476 19.2757
" />
<path d="M23.0476 19.2757
L22.9267 19.2153
" />
<path d="M22.9267 19.2153
L22.6848 19.1548
" />
<path d="M22.6848 19.1548
L22.5638 19.0943
" />
<path d="M22.5638 19.0943
L22.5033 19.0338
" />
<path d="M22.5033 19.0338
L22.4429 18.9129
" />
<path d="M22.4429 18.9129
L22.4429 18.7919
" />
<path d="M22.4429 18.7919
L22.5033 18.6710
" />
<path d="M22.5033 18.6710
L22.5638 18.6105
" />
<path d="M22.5638 18.6105
L22.6848 18.5500
" />
<path d="M22.6848 18.5500
L22.9871 18.5500
" />
<path d="M22.9871 18.5500
L23.1686 18.6105
" />
<path d="M23.9547 18.5500
L24.1966 18.5500
" />
<path d="M24.1966 18.5500
L24.3176 18.6105
" />
<path d="M24.3176 18.6105
L24.4385 18.7315
" />
<path d="M24.4385 18.7315
L24.4990 18.9734
" />
<path d="M24.4990 18.9734
L24.4990 19.3967
" />
<path d="M24.4990 19.3967
L24.4385 19.6386
" />
<path d="M24.4385 19.6386
L24.3176 19.7596
" />
<path d="M24.3176 19.7596
L24.1966 19.8200
" />
<path d="M24.1966 19.8200
L23.9547 19.8200
" />
<path d="M23.9547 19.8200
L23.8338 19.7596
" />
<path d="M23.8338 19.7596
L23.7128 19.6386
" />
<path d="M23.7128 19.6386
L23.6524 19.3967
" />
<path d="M23.6524 19.3967
L23.6524 18.9734
" />
<path d="M23.6524 18.9734
L23.7128 18.7315
" />
<path d="M23.7128 18.7315
L23.8338 18.6105
" />
<path d="M23.8338 18.6105
L23.9547 18.5500
" />
</g></g>
<g style="fill:none; 
stroke:#A90000; stroke-width:0.1524; stroke-opacity:1; 
stroke-linecap:round; stroke-linejoin:round;">
<text x="27.1272" y="18.9865"
textLength="2.6222" font-size="1.6933" lengthAdjust="spacingAndGlyphs"
text-anchor="middle" opacity="0" stroke-opacity="0">12</text>
<g class="stroked-text"><desc>12</desc>
<path d="M26.8853 18.8230
L26.1596 18.8230
" />
<path d="M26.5224 18.8230
L26.5224 17.5530
" />
<path d="M26.5224 17.5530
L26.4015 17.7345
" />
<path d="M26.4015 17.7345
L26.2805 17.8554
" />
<path d="M26.2805 17.8554
L26.1596 17.9159
" />
<path d="M27.3691 17.6740
L27.4295 17.6135
" />
<path d="M27.4295 17.6135
L27.5505 17.5530
" />
<path d="M27.5505 17.5530
L27.8529 17.5530
" />
<path d="M27.8529 17.5530
L27.9738 17.6135
" />
<path d="M27.9738 17.6135
L28.0343 17.6740
" />
<path d="M28.0343 17.6740
L28.0948 17.7949
" />
<path d="M28.0948 17.7949
L28.0948 17.9159
" />
<path d="M28.0948 17.9159
L28.0343 18.0973
" />
<path d="M28.0343 18.0973
L27.3086 18.8230
" />
<path d="M27.3086 18.8230
L28.0948 18.8230
" />
</g></g>
<g style="fill:none; 
stroke:#840000; stroke-width:0.1524; stroke-opacity:1; 
stroke-linecap:round; stroke-linejoin:round;">
<path d="M25.8572 21.7805
L28.3972 21.7805
" />
</g>
<g style="fill:none; 
stroke:#006464; stroke-width:0.1524; stroke-opacity:1; 
stroke-linecap:round; stroke-linejoin:round;">
<text x="24.8412" y="22.4155"
textLength="4.7994" font-size="1.6933" lengthAdjust="spacingAndGlyphs"
text-anchor="end" opacity="0" stroke-opacity="0">MOSI</text>
<g class="stroked-text"><desc>MOSI</desc>
<path d="M20.4471 22.3600
L20.4471 21.0900
" />
<path d="M20.4471 21.0900
L20.8705 21.9972
" />
<path d="M20.8705 21.9972
L21.2938 21.0900
" />
<path d="M21.2938 21.0900
L21.2938 22.3600
" />
<path d="M22.1404 21.0900
L22.3823 21.0900
" />
<path d="M22.3823 21.0900
L22.5033 21.1505
" />
<path d="M22.5033 21.1505
L22.6242 21.2715
" />
<path d="M22.6242 21.2715
L22.6847 21.5134
" />
<path d="M22.6847 21.5134
L22.6847 21.9367
" />
<path d="M22.6847 21.9367
L22.6242 22.1786
" />
<path d="M22.6242 22.1786
L22.5033 22.2996
" />
<path d="M22.5033 22.2996
L22.3823 22.3600
" />
<path d="M22.3823 22.3600
L22.1404 22.3600
" />
<path d="M22.1404 22.3600
L22.0195 22.2996
" />
<path d="M22.0195 22.2996
L21.8985 22.1786
" />
<path d="M21.8985 22.1786
L21.8381 21.9367
" />
<path d="M21.8381 21.9367
L21.8381 21.5134
" />
<path d="M21.8381 21.5134
L21.8985 21.2715
" />
<path d="M21.8985 21.2715
L22.0195 21.1505
" />
<path d="M22.0195 21.1505
L22.1404 21.0900
" />
<path d="M23.1686 22.2996
L23.3500 22.3600
" />
<path d="M23.3500 22.3600
L23.6524 22.3600
" />
<path d="M23.6524 22.3600
L23.7733 22.2996
" />
<path d="M23.7733 22.2996
L23.8338 22.2391
" />
<path d="M23.8338 22.2391
L23.8943 22.1181
" />
<path d="M23.8943 22.1181
L23.8943 21.9972
" />
<path d="M23.8943 21.9972
L23.8338 21.8762
" />
<path d="M23.8338 21.8762
L23.7733 21.8157
" />
<path d="M23.7733 21.8157
L23.6524 21.7553
" />
<path d="M23.6524 21.7553
L23.4105 21.6948
" />
<path d="M23.4105 21.6948
L23.2895 21.6343
" />
<path d="M23.2895 21.6343
L23.2290 21.5738
" />
<path d="M23.2290 21.5738
L23.1686 21.4529
" />
<path d="M23.1686 21.4529
L23.1686 21.3319
" />
<path d="M23.1686 21.3319
L23.2290 21.2110
" />
<path d="M23.2290 21.2110
L23.2895 21.1505
" />
<path d="M23.2895 21.1505
L23.4105 21.0900
" />
<path d="M23.4105 21.0900
L23.7128 21.0900
" />
<path d="M23.7128 21.0900
L23.8943 21.1505
" />
<path d="M24.4385 22.3600
L24.4385 21.0900
" />
</g></g>
<g style="fill:none; 
stroke:#A90000; stroke-width:0.1524; stroke-opacity:1; 
stroke-linecap:round; stroke-linejoin:round;">
<text x="27.1272" y="21.5265"
textLength="2.6222" font-size="1.6933" lengthAdjust="spacingAndGlyphs"
text-anchor="middle" opacity="0" stroke-opacity="0">11</text>
<g class="stroked-text"><desc>11</desc>
<path d="M26.8853 21.3630
L26.1596 21.3630
" />
<path d="M26.5224 21.3630
L26.5224 20.0930
" />
<path d="M26.5224 20.0930
L26.4015 20.2745
" />
<path d="M26.4015 20.2745
L26.2805 20.3954
" />
<path d="M26.2805 20.3954
L26.1596 20.4559
" />
<path d="M28.0948 21.3630
L27.3691 21.3630
" />
<path d="M27.7319 21.3630
L27.7319 20.0930
" />
<path d="M27.7319 20.0930
L27.6110 20.2745
" />
<path d="M27.6110 20.2745
L27.4900 20.3954
" />
<path d="M27.4900 20.3954
L27.3691 20.4559
" />
</g></g>
<g style="fill:none; 
stroke:#840000; stroke-width:0.1524; stroke-opacity:1; 
stroke-linecap:round; stroke-linejoin:round;">
<path d="M25.8572 24.3205
L28.3972 24.3205
" />
</g>
<g style="fill:none; 
stroke:#006464; stroke-width:0.1524; stroke-opacity:1; 
stroke-linecap:round; stroke-linejoin:round;">
<text x="24.8412" y="24.9555"
textLength="4.9808" font-size="1.6933" lengthAdjust="spacingAndGlyphs"
text-anchor="end" opacity="0" stroke-opacity="0">SCLK</text>
<g class="stroked-text"><desc>SCLK</desc>
<path d="M20.2053 24.8396
L20.3867 24.9000
" />
<path d="M20.3867 24.9000
L20.6891 24.9000
" />
<path d="M20.6891 24.9000
L20.8100 24.8396
" />
<path d="M20.8100 24.8396
L20.8705 24.7791
" />
<path d="M20.8705 24.7791
L20.9310 24.6581
" />
<path d="M20.9310 24.6581
L20.9310 24.5372
" />
<path d="M20.9310 24.5372
L20.8705 24.4162
" />
<path d="M20.8705 24.4162
L20.8100 24.3557
" />
<path d="M20.8100 24.3557
L20.6891 24.2953
" />
<path d="M20.6891 24.2953
L20.4472 24.2348
" />
<path d="M20.4472 24.2348
L20.3262 24.1743
" />
<path d="M20.3262 24.1743
L20.2657 24.1138
" />
<path d="M20.2657 24.1138
L20.2053 23.9929
" />
<path d="M20.2053 23.9929
L20.2053 23.8719
" />
<path d="M20.2053 23.8719
L20.2657 23.7510
" />
<path d="M20.2657 23.7510
L20.3262 23.6905
" />
<path d="M20.3262 23.6905
L20.4472 23.6300
" />
<path d="M20.4472 23.6300
L20.7495 23.6300
" />
<path d="M20.7495 23.6300
L20.9310 23.6905
" />
<path d="M22.2009 24.7791
L22.1405 24.8396
" />
<path d="M22.1405 24.8396
L21.9590 24.9000
" />
<path d="M21.9590 24.9000
L21.8381 24.9000
" />
<path d="M21.8381 24.9000
L21.6567 24.8396
" />
<path d="M21.6567 24.8396
L21.5357 24.7186
" />
<path d="M21.5357 24.7186
L21.4752 24.5976
" />
<path d="M21.4752 24.5976
L21.4148 24.3557
" />
<path d="M21.4148 24.3557
L21.4148 24.1743
" />
<path d="M21.4148 24.1743
L21.4752 23.9324
" />
<path d="M21.4752 23.9324
L21.5357 23.8115
" />
<path d="M21.5357 23.8115
L21.6567 23.6905
" />
<path d="M21.6567 23.6905
L21.8381 23.6300
" />
<path d="M21.8381 23.6300
L21.9590 23.6300
" />
<path d="M21.9590 23.6300
L22.1405 23.6905
" />
<path d="M22.1405 23.6905
L22.2009 23.7510
" />
<path d="M23.3500 24.9000
L22.7452 24.9000
" />
<path d="M22.7452 24.9000
L22.7452 23.6300
" />
<path d="M23.7733 24.9000
L23.7733 23.6300
" />
<path d="M24.4990 24.9000
L23.9548 24.1743
" />
<path d="M24.4990 23.6300
L23.7733 24.3557
" />
</g></g>
<g style="fill:none; 
stroke:#A90000; stroke-width:0.1524; stroke-opacity:1; 
stroke-linecap:round; stroke-linejoin:round;">
<text x="27.1272" y="24.0665"
textLength="2.6222" font-size="1.6933" lengthAdjust="spacingAndGlyphs"
text-anchor="middle" opacity="0" stroke-opacity="0">10</text>
<g class="stroked-text"><desc>10</desc>
<path d="M26.8853 23.9030
L26.1596 23.9030
" />
<path d="M26.5224 23.9030
L26.5224 22.6330
" />
<path d="M26.5224 22.6330
L26.4015 22.8145
" />
<path d="M26.4015 22.8145
L26.2805 22.9354
" />
<path d="M26.2805 22.9354
L26.1596 22.9959
" />
<path d="M27.6714 22.6330
L27.7924 22.6330
" />
<path d="M27.7924 22.6330
L27.9133 22.6935
" />
<path d="M27.9133 22.6935
L27.9738 22.7540
" />
<path d="M27.9738 22.7540
L28.0343 22.8749
" />
<path d="M28.0343 22.8749
L28.0948 23.1168
" />
<path d="M28.0948 23.1168
L28.0948 23.4192
" />
<path d="M28.0948 23.4192
L28.0343 23.6611
" />
<path d="M28.0343 23.6611
L27.9738 23.7821
" />
<path d="M27.9738 23.7821
L27.9133 23.8426
" />
<path d="M27.9133 23.8426
L27.7924 23.9030
" />
<path d="M27.7924 23.9030
L27.6714 23.9030
" />
<path d="M27.6714 23.9030
L27.5505 23.8426
" />
<path d="M27.5505 23.8426
L27.4900 23.7821
" />
<path d="M27.4900 23.7821
L27.4295 23.6611
" />
<path d="M27.4295 23.6611
L27.3691 23.4192
" />
<path d="M27.3691 23.4192
L27.3691 23.1168
" />
<path d="M27.3691 23.1168
L27.4295 22.8749
" />
<path d="M27.4295 22.8749
L27.4900 22.7540
" />
<path d="M27.4900 22.7540
L27.5505 22.6935
" />
<path d="M27.5505 22.6935
L27.6714 22.6330
" />
</g></g>
<g style="fill:none; 
stroke:#840000; stroke-width:0.1524; stroke-opacity:1; 
stroke-linecap:round; stroke-linejoin:round;">
<path d="M25.8572 26.8605
L28.3972 26.8605
" />
</g>
<g style="fill:none; 
stroke:#006464; stroke-width:0.1524; stroke-opacity:1; 
stroke-linecap:round; stroke-linejoin:round;">
<text x="24.8412" y="27.4955"
textLength="7.2185" font-size="1.6933" lengthAdjust="spacingAndGlyphs"
text-anchor="end" opacity="0" stroke-opacity="0">MOTION</text>
<g class="stroked-text"><desc>MOTION</desc>
<path d="M18.0280 27.4400
L18.0280 26.1700
" />
<path d="M18.0280 26.1700
L18.4514 27.0772
" />
<path d="M18.4514 27.0772
L18.8747 26.1700
" />
<path d="M18.8747 26.1700
L18.8747 27.4400
" />
<path d="M19.7213 26.1700
L19.9632 26.1700
" />
<path d="M19.9632 26.1700
L20.0842 26.2305
" />
<path d="M20.0842 26.2305
L20.2051 26.3515
" />
<path d="M20.2051 26.3515
L20.2656 26.5934
" />
<path d="M20.2656 26.5934
L20.2656 27.0167
" />
<path d="M20.2656 27.0167
L20.2051 27.2586
" />
<path d="M20.2051 27.2586
L20.0842 27.3796
" />
<path d="M20.0842 27.3796
L19.9632 27.4400
" />
<path d="M19.9632 27.4400
L19.7213 27.4400
" />
<path d="M19.7213 27.4400
L19.6004 27.3796
" />
<path d="M19.6004 27.3796
L19.4794 27.2586
" />
<path d="M19.4794 27.2586
L19.4190 27.0167
" />
<path d="M19.4190 27.0167
L19.4190 26.5934
" />
<path d="M19.4190 26.5934
L19.4794 26.3515
" />
<path d="M19.4794 26.3515
L19.6004 26.2305
" />
<path d="M19.6004 26.2305
L19.7213 26.1700
" />
<path d="M20.6285 26.1700
L21.3542 26.1700
" />
<path d="M20.9914 27.4400
L20.9914 26.1700
" />
<path d="M21.7775 27.4400
L21.7775 26.1700
" />
<path d="M22.6242 26.1700
L22.8661 26.1700
" />
<path d="M22.8661 26.1700
L22.9871 26.2305
" />
<path d="M22.9871 26.2305
L23.1080 26.3515
" />
<path d="M23.1080 26.3515
L23.1685 26.5934
" />
<path d="M23.1685 26.5934
L23.1685 27.0167
" />
<path d="M23.1685 27.0167
L23.1080 27.2586
" />
<path d="M23.1080 27.2586
L22.9871 27.3796
" />
<path d="M22.9871 27.3796
L22.8661 27.4400
" />
<path d="M22.8661 27.4400
L22.6242 27.4400
" />
<path d="M22.6242 27.4400
L22.5033 27.3796
" />
<path d="M22.5033 27.3796
L22.3823 27.2586
" />
<path d="M22.3823 27.2586
L22.3219 27.0167
" />
<path d="M22.3219 27.0167
L22.3219 26.5934
" />
<path d="M22.3219 26.5934
L22.3823 26.3515
" />
<path d="M22.3823 26.3515
L22.5033 26.2305
" />
<path d="M22.5033 26.2305
L22.6242 26.1700
" />
<path d="M23.7128 27.4400
L23.7128 26.1700
" />
<path d="M23.7128 26.1700
L24.4385 27.4400
" />
<path d="M24.4385 27.4400
L24.4385 26.1700
" />
</g></g>
<g style="fill:none; 
stroke:#A90000; stroke-width:0.1524; stroke-opacity:1; 
stroke-linecap:round; stroke-linejoin:round;">
<text x="27.1272" y="26.6065"
textLength="1.4127" font-size="1.6933" lengthAdjust="spacingAndGlyphs"
text-anchor="middle" opacity="0" stroke-opacity="0">9</text>
<g class="stroked-text"><desc>9</desc>
<path d="M26.8853 26.4430
L27.1272 26.4430
" />
<path d="M27.1272 26.4430
L27.2482 26.3826
" />
<path d="M27.2482 26.3826
L27.3086 26.3221
" />
<path d="M27.3086 26.3221
L27.4296 26.1406
" />
<path d="M27.4296 26.1406
L27.4901 25.8987
" />
<path d="M27.4901 25.8987
L27.4901 25.4149
" />
<path d="M27.4901 25.4149
L27.4296 25.2940
" />
<path d="M27.4296 25.2940
L27.3691 25.2335
" />
<path d="M27.3691 25.2335
L27.2482 25.1730
" />
<path d="M27.2482 25.1730
L27.0063 25.1730
" />
<path d="M27.0063 25.1730
L26.8853 25.2335
" />
<path d="M26.8853 25.2335
L26.8248 25.2940
" />
<path d="M26.8248 25.2940
L26.7644 25.4149
" />
<path d="M26.7644 25.4149
L26.7644 25.7173
" />
<path d="M26.7644 25.7173
L26.8248 25.8383
" />
<path d="M26.8248 25.8383
L26.8853 25.8987
" />
<path d="M26.8853 25.8987
L27.0063 25.9592
" />
<path d="M27.0063 25.9592
L27.2482 25.9592
" />
<path d="M27.2482 25.9592
L27.3691 25.8987
" />
<path d="M27.3691 25.8987
L27.4296 25.8383
" />
<path d="M27.4296 25.8383
L27.4901 25.7173
" />
</g></g>
<g style="fill:none; 
stroke:#006464; stroke-width:0.1524; stroke-opacity:1; 
stroke-linecap:round; stroke-linejoin:round;">
<text x="0.0000" y="-13.2080"
textLength="2.6223" font-size="1.6933" lengthAdjust="spacingAndGlyphs"
text-anchor="middle" opacity="0" stroke-opacity="0">U?</text>
<g class="stroked-text"><desc>U?</desc>
<path d="M-0.9071 -14.5334
L-0.9071 -13.5053
" />
<path d="M-0.9071 -13.5053
L-0.8466 -13.3843
" />
<path d="M-0.8466 -13.3843
L-0.7861 -13.3239
" />
<path d="M-0.7861 -13.3239
L-0.6652 -13.2634
" />
<path d="M-0.6652 -13.2634
L-0.4233 -13.2634
" />
<path d="M-0.4233 -13.2634
L-0.3023 -13.3239
" />
<path d="M-0.3023 -13.3239
L-0.2418 -13.3843
" />
<path d="M-0.2418 -13.3843
L-0.1814 -13.5053
" />
<path d="M-0.1814 -13.5053
L-0.1814 -14.5334
" />
<path d="M0.6048 -13.3843
L0.6652 -13.3239
" />
<path d="M0.6652 -13.3239
L0.6048 -13.2634
" />
<path d="M0.6048 -13.2634
L0.5443 -13.3239
" />
<path d="M0.5443 -13.3239
L0.6048 -13.3843
" />
<path d="M0.6048 -13.3843
L0.6048 -13.2634
" />
<path d="M0.3629 -14.4729
L0.4838 -14.5334
" />
<path d="M0.4838 -14.5334
L0.7862 -14.5334
" />
<path d="M0.7862 -14.5334
L0.9071 -14.4729
" />
<path d="M0.9071 -14.4729
L0.9676 -14.3519
" />
<path d="M0.9676 -14.3519
L0.9676 -14.2310
" />
<path d="M0.9676 -14.2310
L0.9071 -14.1100
" />
<path d="M0.9071 -14.1100
L0.8467 -14.0496
" />
<path d="M0.8467 -14.0496
L0.7257 -13.9891
" />
<path d="M0.7257 -13.9891
L0.6652 -13.9286
" />
<path d="M0.6652 -13.9286
L0.6048 -13.8077
" />
<path d="M0.6048 -13.8077
L0.6048 -13.7472
" />
</g><text x="0.0000" y="14.4780"
textLength="18.3459" font-size="1.6933" lengthAdjust="spacingAndGlyphs"
text-anchor="middle" opacity="0" stroke-opacity="0">PMW3360DM-T2QU</text>
<g class="stroked-text"><desc>PMW3360DM-T2QU</desc>
<path d="M-8.7689 14.4225
L-8.7689 13.1525
" />
<path d="M-8.7689 13.1525
L-8.2851 13.1525
" />
<path d="M-8.2851 13.1525
L-8.1641 13.2130
" />
<path d="M-8.1641 13.2130
L-8.1036 13.2735
" />
<path d="M-8.1036 13.2735
L-8.0432 13.3944
" />
<path d="M-8.0432 13.3944
L-8.0432 13.5759
" />
<path d="M-8.0432 13.5759
L-8.1036 13.6968
" />
<path d="M-8.1036 13.6968
L-8.1641 13.7573
" />
<path d="M-8.1641 13.7573
L-8.2851 13.8178
" />
<path d="M-8.2851 13.8178
L-8.7689 13.8178
" />
<path d="M-7.4989 14.4225
L-7.4989 13.1525
" />
<path d="M-7.4989 13.1525
L-7.0755 14.0597
" />
<path d="M-7.0755 14.0597
L-6.6522 13.1525
" />
<path d="M-6.6522 13.1525
L-6.6522 14.4225
" />
<path d="M-6.1684 13.1525
L-5.8660 14.4225
" />
<path d="M-5.8660 14.4225
L-5.6241 13.5154
" />
<path d="M-5.6241 13.5154
L-5.3822 14.4225
" />
<path d="M-5.3822 14.4225
L-5.0799 13.1525
" />
<path d="M-4.7170 13.1525
L-3.9308 13.1525
" />
<path d="M-3.9308 13.1525
L-4.3542 13.6363
" />
<path d="M-4.3542 13.6363
L-4.1727 13.6363
" />
<path d="M-4.1727 13.6363
L-4.0518 13.6968
" />
<path d="M-4.0518 13.6968
L-3.9913 13.7573
" />
<path d="M-3.9913 13.7573
L-3.9308 13.8782
" />
<path d="M-3.9308 13.8782
L-3.9308 14.1806
" />
<path d="M-3.9308 14.1806
L-3.9913 14.3016
" />
<path d="M-3.9913 14.3016
L-4.0518 14.3621
" />
<path d="M-4.0518 14.3621
L-4.1727 14.4225
" />
<path d="M-4.1727 14.4225
L-4.5356 14.4225
" />
<path d="M-4.5356 14.4225
L-4.6565 14.3621
" />
<path d="M-4.6565 14.3621
L-4.7170 14.3016
" />
<path d="M-3.5075 13.1525
L-2.7213 13.1525
" />
<path d="M-2.7213 13.1525
L-3.1447 13.6363
" />
<path d="M-3.1447 13.6363
L-2.9632 13.6363
" />
<path d="M-2.9632 13.6363
L-2.8423 13.6968
" />
<path d="M-2.8423 13.6968
L-2.7818 13.7573
" />
<path d="M-2.7818 13.7573
L-2.7213 13.8782
" />
<path d="M-2.7213 13.8782
L-2.7213 14.1806
" />
<path d="M-2.7213 14.1806
L-2.7818 14.3016
" />
<path d="M-2.7818 14.3016
L-2.8423 14.3621
" />
<path d="M-2.8423 14.3621
L-2.9632 14.4225
" />
<path d="M-2.9632 14.4225
L-3.3261 14.4225
" />
<path d="M-3.3261 14.4225
L-3.4470 14.3621
" />
<path d="M-3.4470 14.3621
L-3.5075 14.3016
" />
<path d="M-1.6328 13.1525
L-1.8747 13.1525
" />
<path d="M-1.8747 13.1525
L-1.9956 13.2130
" />
<path d="M-1.9956 13.2130
L-2.0561 13.2735
" />
<path d="M-2.0561 13.2735
L-2.1771 13.4549
" />
<path d="M-2.1771 13.4549
L-2.2375 13.6968
" />
<path d="M-2.2375 13.6968
L-2.2375 14.1806
" />
<path d="M-2.2375 14.1806
L-2.1771 14.3016
" />
<path d="M-2.1771 14.3016
L-2.1166 14.3621
" />
<path d="M-2.1166 14.3621
L-1.9956 14.4225
" />
<path d="M-1.9956 14.4225
L-1.7537 14.4225
" />
<path d="M-1.7537 14.4225
L-1.6328 14.3621
" />
<path d="M-1.6328 14.3621
L-1.5723 14.3016
" />
<path d="M-1.5723 14.3016
L-1.5118 14.1806
" />
<path d="M-1.5118 14.1806
L-1.5118 13.8782
" />
<path d="M-1.5118 13.8782
L-1.5723 13.7573
" />
<path d="M-1.5723 13.7573
L-1.6328 13.6968
" />
<path d="M-1.6328 13.6968
L-1.7537 13.6363
" />
<path d="M-1.7537 13.6363
L-1.9956 13.6363
" />
<path d="M-1.9956 13.6363
L-2.1166 13.6968
" />
<path d="M-2.1166 13.6968
L-2.1771 13.7573
" />
<path d="M-2.1771 13.7573
L-2.2375 13.8782
" />
<path d="M-0.7257 13.1525
L-0.6047 13.1525
" />
<path d="M-0.6047 13.1525
L-0.4838 13.2130
" />
<path d="M-0.4838 13.2130
L-0.4233 13.2735
" />
<path d="M-0.4233 13.2735
L-0.3628 13.3944
" />
<path d="M-0.3628 13.3944
L-0.3023 13.6363
" />
<path d="M-0.3023 13.6363
L-0.3023 13.9387
" />
<path d="M-0.3023 13.9387
L-0.3628 14.1806
" />
<path d="M-0.3628 14.1806
L-0.4233 14.3016
" />
<path d="M-0.4233 14.3016
L-0.4838 14.3621
" />
<path d="M-0.4838 14.3621
L-0.6047 14.4225
" />
<path d="M-0.6047 14.4225
L-0.7257 14.4225
" />
<path d="M-0.7257 14.4225
L-0.8466 14.3621
" />
<path d="M-0.8466 14.3621
L-0.9071 14.3016
" />
<path d="M-0.9071 14.3016
L-0.9676 14.1806
" />
<path d="M-0.9676 14.1806
L-1.0280 13.9387
" />
<path d="M-1.0280 13.9387
L-1.0280 13.6363
" />
<path d="M-1.0280 13.6363
L-0.9676 13.3944
" />
<path d="M-0.9676 13.3944
L-0.9071 13.2735
" />
<path d="M-0.9071 13.2735
L-0.8466 13.2130
" />
<path d="M-0.8466 13.2130
L-0.7257 13.1525
" />
<path d="M0.2418 14.4225
L0.2418 13.1525
" />
<path d="M0.2418 13.1525
L0.5442 13.1525
" />
<path d="M0.5442 13.1525
L0.7256 13.2130
" />
<path d="M0.7256 13.2130
L0.8466 13.3340
" />
<path d="M0.8466 13.3340
L0.9071 13.4549
" />
<path d="M0.9071 13.4549
L0.9675 13.6968
" />
<path d="M0.9675 13.6968
L0.9675 13.8782
" />
<path d="M0.9675 13.8782
L0.9071 14.1201
" />
<path d="M0.9071 14.1201
L0.8466 14.2411
" />
<path d="M0.8466 14.2411
L0.7256 14.3621
" />
<path d="M0.7256 14.3621
L0.5442 14.4225
" />
<path d="M0.5442 14.4225
L0.2418 14.4225
" />
<path d="M1.5118 14.4225
L1.5118 13.1525
" />
<path d="M1.5118 13.1525
L1.9352 14.0597
" />
<path d="M1.9352 14.0597
L2.3585 13.1525
" />
<path d="M2.3585 13.1525
L2.3585 14.4225
" />
<path d="M2.9632 13.9387
L3.9309 13.9387
" />
<path d="M4.3542 13.1525
L5.0799 13.1525
" />
<path d="M4.7171 14.4225
L4.7171 13.1525
" />
<path d="M5.4428 13.2735
L5.5032 13.2130
" />
<path d="M5.5032 13.2130
L5.6242 13.1525
" />
<path d="M5.6242 13.1525
L5.9266 13.1525
" />
<path d="M5.9266 13.1525
L6.0475 13.2130
" />
<path d="M6.0475 13.2130
L6.1080 13.2735
" />
<path d="M6.1080 13.2735
L6.1685 13.3944
" />
<path d="M6.1685 13.3944
L6.1685 13.5154
" />
<path d="M6.1685 13.5154
L6.1080 13.6968
" />
<path d="M6.1080 13.6968
L5.3823 14.4225
" />
<path d="M5.3823 14.4225
L6.1685 14.4225
" />
<path d="M7.5594 14.5435
L7.4384 14.4830
" />
<path d="M7.4384 14.4830
L7.3175 14.3621
" />
<path d="M7.3175 14.3621
L7.1361 14.1806
" />
<path d="M7.1361 14.1806
L7.0151 14.1201
" />
<path d="M7.0151 14.1201
L6.8942 14.1201
" />
<path d="M6.9546 14.4225
L6.8337 14.3621
" />
<path d="M6.8337 14.3621
L6.7127 14.2411
" />
<path d="M6.7127 14.2411
L6.6523 13.9992
" />
<path d="M6.6523 13.9992
L6.6523 13.5759
" />
<path d="M6.6523 13.5759
L6.7127 13.3340
" />
<path d="M6.7127 13.3340
L6.8337 13.2130
" />
<path d="M6.8337 13.2130
L6.9546 13.1525
" />
<path d="M6.9546 13.1525
L7.1965 13.1525
" />
<path d="M7.1965 13.1525
L7.3175 13.2130
" />
<path d="M7.3175 13.2130
L7.4384 13.3340
" />
<path d="M7.4384 13.3340
L7.4989 13.5759
" />
<path d="M7.4989 13.5759
L7.4989 13.9992
" />
<path d="M7.4989 13.9992
L7.4384 14.2411
" />
<path d="M7.4384 14.2411
L7.3175 14.3621
" />
<path d="M7.3175 14.3621
L7.1965 14.4225
" />
<path d="M7.1965 14.4225
L6.9546 14.4225
" />
<path d="M8.0432 13.1525
L8.0432 14.1806
" />
<path d="M8.0432 14.1806
L8.1037 14.3016
" />
<path d="M8.1037 14.3016
L8.1642 14.3621
" />
<path d="M8.1642 14.3621
L8.2851 14.4225
" />
<path d="M8.2851 14.4225
L8.5270 14.4225
" />
<path d="M8.5270 14.4225
L8.6480 14.3621
" />
<path d="M8.6480 14.3621
L8.7085 14.3016
" />
<path d="M8.7085 14.3016
L8.7689 14.1806
" />
<path d="M8.7689 14.1806
L8.7689 13.1525
" />
</g></g> 
</svg>
