<?xml version="1.0" standalone="no"?>
 <!DOCTYPE svg PUBLIC "-//W3C//DTD SVG 1.1//EN" 
 "http://www.w3.org/Graphics/SVG/1.1/DTD/svg11.dtd"> 
<svg
  xmlns:svg="http://www.w3.org/2000/svg"
  xmlns="http://www.w3.org/2000/svg"
  xmlns:xlink="http://www.w3.org/1999/xlink"
  version="1.1"
  width="54.3560mm" height="35.6870mm" viewBox="0.0000 0.0000 54.3560 35.6870">
<title>SVG Image created as pmw3360dm-t2qu.svg date 2025/01/29 14:37:55 </title>
  <desc>Image generated by Eeschema-SVG </desc>
<g style="fill:#000000; fill-opacity:1.0000;stroke:#000000; stroke-opacity:1.0000;
stroke-linecap:round; stroke-linejoin:round;"
 transform="translate(0 0) scale(1 1)">
</g>
<g style="fill:#FFFFC2; fill-opacity:1.0000; stroke:none;">
<rect x="17.199500" y="6.540500" width="20.320000" height="22.860000" rx="0.000000" />
</g>
<g style="fill:none; 
stroke:#840000; stroke-width:0.1524; stroke-opacity:1; 
stroke-linecap:round; stroke-linejoin:round;">
<rect x="17.199500" y="6.540500" width="20.320000" height="22.860000" rx="0.000000" />
<path d="M17.1995 9.0805
L14.6595 9.0805
" />
<path d="M14.2785 8.6995
L15.0405 9.4615
" />
<path d="M15.0405 8.6995
L14.2785 9.4615
" />
</g>
<g style="fill:none; 
stroke:#006464; stroke-width:0.1524; stroke-opacity:1; 
stroke-linecap:round; stroke-linejoin:round;">
<text x="18.2155" y="9.7155"
textLength="2.8037" font-size="1.6933" lengthAdjust="spacingAndGlyphs"
text-anchor="start" opacity="0" stroke-opacity="0">NC</text>
<g class="stroked-text"><desc>NC</desc>
<path d="M18.6180 9.6600
L18.6180 8.3900
" />
<path d="M18.6180 8.3900
L19.3437 9.6600
" />
<path d="M19.3437 9.6600
L19.3437 8.3900
" />
<path d="M20.6742 9.5391
L20.6138 9.5996
" />
<path d="M20.6138 9.5996
L20.4323 9.6600
" />
<path d="M20.4323 9.6600
L20.3114 9.6600
" />
<path d="M20.3114 9.6600
L20.1300 9.5996
" />
<path d="M20.1300 9.5996
L20.0090 9.4786
" />
<path d="M20.0090 9.4786
L19.9485 9.3576
" />
<path d="M19.9485 9.3576
L19.8881 9.1157
" />
<path d="M19.8881 9.1157
L19.8881 8.9343
" />
<path d="M19.8881 8.9343
L19.9485 8.6924
" />
<path d="M19.9485 8.6924
L20.0090 8.5715
" />
<path d="M20.0090 8.5715
L20.1300 8.4505
" />
<path d="M20.1300 8.4505
L20.3114 8.3900
" />
<path d="M20.3114 8.3900
L20.4323 8.3900
" />
<path d="M20.4323 8.3900
L20.6138 8.4505
" />
<path d="M20.6138 8.4505
L20.6742 8.5110
" />
</g></g>
<g style="fill:none; 
stroke:#A90000; stroke-width:0.1524; stroke-opacity:1; 
stroke-linecap:round; stroke-linejoin:round;">
<text x="15.9295" y="8.8265"
textLength="1.4127" font-size="1.6933" lengthAdjust="spacingAndGlyphs"
text-anchor="middle" opacity="0" stroke-opacity="0">1</text>
<g class="stroked-text"><desc>1</desc>
<path d="M16.2924 8.6630
L15.5667 8.6630
" />
<path d="M15.9295 8.6630
L15.9295 7.3930
" />
<path d="M15.9295 7.3930
L15.8086 7.5745
" />
<path d="M15.8086 7.5745
L15.6876 7.6954
" />
<path d="M15.6876 7.6954
L15.5667 7.7559
" />
</g></g>
<g style="fill:none; 
stroke:#840000; stroke-width:0.1524; stroke-opacity:1; 
stroke-linecap:round; stroke-linejoin:round;">
<path d="M37.5195 24.3205
L40.0595 24.3205
" />
</g>
<g style="fill:none; 
stroke:#006464; stroke-width:0.1524; stroke-opacity:1; 
stroke-linecap:round; stroke-linejoin:round;">
<text x="36.5035" y="24.9555"
textLength="4.9808" font-size="1.6933" lengthAdjust="spacingAndGlyphs"
text-anchor="end" opacity="0" stroke-opacity="0">SCLK</text>
<g class="stroked-text"><desc>SCLK</desc>
<path d="M31.8676 24.8396
L32.0490 24.9000
" />
<path d="M32.0490 24.9000
L32.3514 24.9000
" />
<path d="M32.3514 24.9000
L32.4723 24.8396
" />
<path d="M32.4723 24.8396
L32.5328 24.7791
" />
<path d="M32.5328 24.7791
L32.5933 24.6581
" />
<path d="M32.5933 24.6581
L32.5933 24.5372
" />
<path d="M32.5933 24.5372
L32.5328 24.4162
" />
<path d="M32.5328 24.4162
L32.4723 24.3557
" />
<path d="M32.4723 24.3557
L32.3514 24.2953
" />
<path d="M32.3514 24.2953
L32.1095 24.2348
" />
<path d="M32.1095 24.2348
L31.9885 24.1743
" />
<path d="M31.9885 24.1743
L31.9280 24.1138
" />
<path d="M31.9280 24.1138
L31.8676 23.9929
" />
<path d="M31.8676 23.9929
L31.8676 23.8719
" />
<path d="M31.8676 23.8719
L31.9280 23.7510
" />
<path d="M31.9280 23.7510
L31.9885 23.6905
" />
<path d="M31.9885 23.6905
L32.1095 23.6300
" />
<path d="M32.1095 23.6300
L32.4118 23.6300
" />
<path d="M32.4118 23.6300
L32.5933 23.6905
" />
<path d="M33.8632 24.7791
L33.8028 24.8396
" />
<path d="M33.8028 24.8396
L33.6213 24.9000
" />
<path d="M33.6213 24.9000
L33.5004 24.9000
" />
<path d="M33.5004 24.9000
L33.3190 24.8396
" />
<path d="M33.3190 24.8396
L33.1980 24.7186
" />
<path d="M33.1980 24.7186
L33.1375 24.5976
" />
<path d="M33.1375 24.5976
L33.0771 24.3557
" />
<path d="M33.0771 24.3557
L33.0771 24.1743
" />
<path d="M33.0771 24.1743
L33.1375 23.9324
" />
<path d="M33.1375 23.9324
L33.1980 23.8115
" />
<path d="M33.1980 23.8115
L33.3190 23.6905
" />
<path d="M33.3190 23.6905
L33.5004 23.6300
" />
<path d="M33.5004 23.6300
L33.6213 23.6300
" />
<path d="M33.6213 23.6300
L33.8028 23.6905
" />
<path d="M33.8028 23.6905
L33.8632 23.7510
" />
<path d="M35.0123 24.9000
L34.4075 24.9000
" />
<path d="M34.4075 24.9000
L34.4075 23.6300
" />
<path d="M35.4356 24.9000
L35.4356 23.6300
" />
<path d="M36.1613 24.9000
L35.6171 24.1743
" />
<path d="M36.1613 23.6300
L35.4356 24.3557
" />
</g></g>
<g style="fill:none; 
stroke:#A90000; stroke-width:0.1524; stroke-opacity:1; 
stroke-linecap:round; stroke-linejoin:round;">
<text x="38.7895" y="24.0665"
textLength="2.6222" font-size="1.6933" lengthAdjust="spacingAndGlyphs"
text-anchor="middle" opacity="0" stroke-opacity="0">10</text>
<g class="stroked-text"><desc>10</desc>
<path d="M38.5476 23.9030
L37.8219 23.9030
" />
<path d="M38.1847 23.9030
L38.1847 22.6330
" />
<path d="M38.1847 22.6330
L38.0638 22.8145
" />
<path d="M38.0638 22.8145
L37.9428 22.9354
" />
<path d="M37.9428 22.9354
L37.8219 22.9959
" />
<path d="M39.3337 22.6330
L39.4547 22.6330
" />
<path d="M39.4547 22.6330
L39.5756 22.6935
" />
<path d="M39.5756 22.6935
L39.6361 22.7540
" />
<path d="M39.6361 22.7540
L39.6966 22.8749
" />
<path d="M39.6966 22.8749
L39.7571 23.1168
" />
<path d="M39.7571 23.1168
L39.7571 23.4192
" />
<path d="M39.7571 23.4192
L39.6966 23.6611
" />
<path d="M39.6966 23.6611
L39.6361 23.7821
" />
<path d="M39.6361 23.7821
L39.5756 23.8426
" />
<path d="M39.5756 23.8426
L39.4547 23.9030
" />
<path d="M39.4547 23.9030
L39.3337 23.9030
" />
<path d="M39.3337 23.9030
L39.2128 23.8426
" />
<path d="M39.2128 23.8426
L39.1523 23.7821
" />
<path d="M39.1523 23.7821
L39.0918 23.6611
" />
<path d="M39.0918 23.6611
L39.0314 23.4192
" />
<path d="M39.0314 23.4192
L39.0314 23.1168
" />
<path d="M39.0314 23.1168
L39.0918 22.8749
" />
<path d="M39.0918 22.8749
L39.1523 22.7540
" />
<path d="M39.1523 22.7540
L39.2128 22.6935
" />
<path d="M39.2128 22.6935
L39.3337 22.6330
" />
</g></g>
<g style="fill:none; 
stroke:#840000; stroke-width:0.1524; stroke-opacity:1; 
stroke-linecap:round; stroke-linejoin:round;">
<path d="M37.5195 21.7805
L40.0595 21.7805
" />
</g>
<g style="fill:none; 
stroke:#006464; stroke-width:0.1524; stroke-opacity:1; 
stroke-linecap:round; stroke-linejoin:round;">
<text x="36.5035" y="22.4155"
textLength="4.7994" font-size="1.6933" lengthAdjust="spacingAndGlyphs"
text-anchor="end" opacity="0" stroke-opacity="0">MOSI</text>
<g class="stroked-text"><desc>MOSI</desc>
<path d="M32.1094 22.3600
L32.1094 21.0900
" />
<path d="M32.1094 21.0900
L32.5328 21.9972
" />
<path d="M32.5328 21.9972
L32.9561 21.0900
" />
<path d="M32.9561 21.0900
L32.9561 22.3600
" />
<path d="M33.8027 21.0900
L34.0446 21.0900
" />
<path d="M34.0446 21.0900
L34.1656 21.1505
" />
<path d="M34.1656 21.1505
L34.2865 21.2715
" />
<path d="M34.2865 21.2715
L34.3470 21.5134
" />
<path d="M34.3470 21.5134
L34.3470 21.9367
" />
<path d="M34.3470 21.9367
L34.2865 22.1786
" />
<path d="M34.2865 22.1786
L34.1656 22.2996
" />
<path d="M34.1656 22.2996
L34.0446 22.3600
" />
<path d="M34.0446 22.3600
L33.8027 22.3600
" />
<path d="M33.8027 22.3600
L33.6818 22.2996
" />
<path d="M33.6818 22.2996
L33.5608 22.1786
" />
<path d="M33.5608 22.1786
L33.5004 21.9367
" />
<path d="M33.5004 21.9367
L33.5004 21.5134
" />
<path d="M33.5004 21.5134
L33.5608 21.2715
" />
<path d="M33.5608 21.2715
L33.6818 21.1505
" />
<path d="M33.6818 21.1505
L33.8027 21.0900
" />
<path d="M34.8309 22.2996
L35.0123 22.3600
" />
<path d="M35.0123 22.3600
L35.3147 22.3600
" />
<path d="M35.3147 22.3600
L35.4356 22.2996
" />
<path d="M35.4356 22.2996
L35.4961 22.2391
" />
<path d="M35.4961 22.2391
L35.5566 22.1181
" />
<path d="M35.5566 22.1181
L35.5566 21.9972
" />
<path d="M35.5566 21.9972
L35.4961 21.8762
" />
<path d="M35.4961 21.8762
L35.4356 21.8157
" />
<path d="M35.4356 21.8157
L35.3147 21.7553
" />
<path d="M35.3147 21.7553
L35.0728 21.6948
" />
<path d="M35.0728 21.6948
L34.9518 21.6343
" />
<path d="M34.9518 21.6343
L34.8913 21.5738
" />
<path d="M34.8913 21.5738
L34.8309 21.4529
" />
<path d="M34.8309 21.4529
L34.8309 21.3319
" />
<path d="M34.8309 21.3319
L34.8913 21.2110
" />
<path d="M34.8913 21.2110
L34.9518 21.1505
" />
<path d="M34.9518 21.1505
L35.0728 21.0900
" />
<path d="M35.0728 21.0900
L35.3751 21.0900
" />
<path d="M35.3751 21.0900
L35.5566 21.1505
" />
<path d="M36.1008 22.3600
L36.1008 21.0900
" />
</g></g>
<g style="fill:none; 
stroke:#A90000; stroke-width:0.1524; stroke-opacity:1; 
stroke-linecap:round; stroke-linejoin:round;">
<text x="38.7895" y="21.5265"
textLength="2.6222" font-size="1.6933" lengthAdjust="spacingAndGlyphs"
text-anchor="middle" opacity="0" stroke-opacity="0">11</text>
<g class="stroked-text"><desc>11</desc>
<path d="M38.5476 21.3630
L37.8219 21.3630
" />
<path d="M38.1847 21.3630
L38.1847 20.0930
" />
<path d="M38.1847 20.0930
L38.0638 20.2745
" />
<path d="M38.0638 20.2745
L37.9428 20.3954
" />
<path d="M37.9428 20.3954
L37.8219 20.4559
" />
<path d="M39.7571 21.3630
L39.0314 21.3630
" />
<path d="M39.3942 21.3630
L39.3942 20.0930
" />
<path d="M39.3942 20.0930
L39.2733 20.2745
" />
<path d="M39.2733 20.2745
L39.1523 20.3954
" />
<path d="M39.1523 20.3954
L39.0314 20.4559
" />
</g></g>
<g style="fill:none; 
stroke:#840000; stroke-width:0.1524; stroke-opacity:1; 
stroke-linecap:round; stroke-linejoin:round;">
<path d="M37.5195 19.2405
L40.0595 19.2405
" />
</g>
<g style="fill:none; 
stroke:#006464; stroke-width:0.1524; stroke-opacity:1; 
stroke-linecap:round; stroke-linejoin:round;">
<text x="36.5035" y="19.8755"
textLength="4.7994" font-size="1.6933" lengthAdjust="spacingAndGlyphs"
text-anchor="end" opacity="0" stroke-opacity="0">MISO</text>
<g class="stroked-text"><desc>MISO</desc>
<path d="M32.1094 19.8200
L32.1094 18.5500
" />
<path d="M32.1094 18.5500
L32.5328 19.4572
" />
<path d="M32.5328 19.4572
L32.9561 18.5500
" />
<path d="M32.9561 18.5500
L32.9561 19.8200
" />
<path d="M33.5608 19.8200
L33.5608 18.5500
" />
<path d="M34.1052 19.7596
L34.2866 19.8200
" />
<path d="M34.2866 19.8200
L34.5890 19.8200
" />
<path d="M34.5890 19.8200
L34.7099 19.7596
" />
<path d="M34.7099 19.7596
L34.7704 19.6991
" />
<path d="M34.7704 19.6991
L34.8309 19.5781
" />
<path d="M34.8309 19.5781
L34.8309 19.4572
" />
<path d="M34.8309 19.4572
L34.7704 19.3362
" />
<path d="M34.7704 19.3362
L34.7099 19.2757
" />
<path d="M34.7099 19.2757
L34.5890 19.2153
" />
<path d="M34.5890 19.2153
L34.3471 19.1548
" />
<path d="M34.3471 19.1548
L34.2261 19.0943
" />
<path d="M34.2261 19.0943
L34.1656 19.0338
" />
<path d="M34.1656 19.0338
L34.1052 18.9129
" />
<path d="M34.1052 18.9129
L34.1052 18.7919
" />
<path d="M34.1052 18.7919
L34.1656 18.6710
" />
<path d="M34.1656 18.6710
L34.2261 18.6105
" />
<path d="M34.2261 18.6105
L34.3471 18.5500
" />
<path d="M34.3471 18.5500
L34.6494 18.5500
" />
<path d="M34.6494 18.5500
L34.8309 18.6105
" />
<path d="M35.6170 18.5500
L35.8589 18.5500
" />
<path d="M35.8589 18.5500
L35.9799 18.6105
" />
<path d="M35.9799 18.6105
L36.1008 18.7315
" />
<path d="M36.1008 18.7315
L36.1613 18.9734
" />
<path d="M36.1613 18.9734
L36.1613 19.3967
" />
<path d="M36.1613 19.3967
L36.1008 19.6386
" />
<path d="M36.1008 19.6386
L35.9799 19.7596
" />
<path d="M35.9799 19.7596
L35.8589 19.8200
" />
<path d="M35.8589 19.8200
L35.6170 19.8200
" />
<path d="M35.6170 19.8200
L35.4961 19.7596
" />
<path d="M35.4961 19.7596
L35.3751 19.6386
" />
<path d="M35.3751 19.6386
L35.3147 19.3967
" />
<path d="M35.3147 19.3967
L35.3147 18.9734
" />
<path d="M35.3147 18.9734
L35.3751 18.7315
" />
<path d="M35.3751 18.7315
L35.4961 18.6105
" />
<path d="M35.4961 18.6105
L35.6170 18.5500
" />
</g></g>
<g style="fill:none; 
stroke:#A90000; stroke-width:0.1524; stroke-opacity:1; 
stroke-linecap:round; stroke-linejoin:round;">
<text x="38.7895" y="18.9865"
textLength="2.6222" font-size="1.6933" lengthAdjust="spacingAndGlyphs"
text-anchor="middle" opacity="0" stroke-opacity="0">12</text>
<g class="stroked-text"><desc>12</desc>
<path d="M38.5476 18.8230
L37.8219 18.8230
" />
<path d="M38.1847 18.8230
L38.1847 17.5530
" />
<path d="M38.1847 17.5530
L38.0638 17.7345
" />
<path d="M38.0638 17.7345
L37.9428 17.8554
" />
<path d="M37.9428 17.8554
L37.8219 17.9159
" />
<path d="M39.0314 17.6740
L39.0918 17.6135
" />
<path d="M39.0918 17.6135
L39.2128 17.5530
" />
<path d="M39.2128 17.5530
L39.5152 17.5530
" />
<path d="M39.5152 17.5530
L39.6361 17.6135
" />
<path d="M39.6361 17.6135
L39.6966 17.6740
" />
<path d="M39.6966 17.6740
L39.7571 17.7949
" />
<path d="M39.7571 17.7949
L39.7571 17.9159
" />
<path d="M39.7571 17.9159
L39.6966 18.0973
" />
<path d="M39.6966 18.0973
L38.9709 18.8230
" />
<path d="M38.9709 18.8230
L39.7571 18.8230
" />
</g></g>
<g style="fill:none; 
stroke:#840000; stroke-width:0.1524; stroke-opacity:1; 
stroke-linecap:round; stroke-linejoin:round;">
<path d="M37.5195 16.7005
L40.0595 16.7005
" />
</g>
<g style="fill:none; 
stroke:#006464; stroke-width:0.1524; stroke-opacity:1; 
stroke-linecap:round; stroke-linejoin:round;">
<text x="36.5035" y="17.3355"
textLength="2.6827" font-size="1.6933" lengthAdjust="spacingAndGlyphs"
text-anchor="end" opacity="0" stroke-opacity="0">~{CS}</text>
<g class="stroked-text"><desc>~{CS}</desc>
<path d="M34.9518 17.1591
L34.8914 17.2196
" />
<path d="M34.8914 17.2196
L34.7099 17.2800
" />
<path d="M34.7099 17.2800
L34.5890 17.2800
" />
<path d="M34.5890 17.2800
L34.4076 17.2196
" />
<path d="M34.4076 17.2196
L34.2866 17.0986
" />
<path d="M34.2866 17.0986
L34.2261 16.9776
" />
<path d="M34.2261 16.9776
L34.1657 16.7357
" />
<path d="M34.1657 16.7357
L34.1657 16.5543
" />
<path d="M34.1657 16.5543
L34.2261 16.3124
" />
<path d="M34.2261 16.3124
L34.2866 16.1915
" />
<path d="M34.2866 16.1915
L34.4076 16.0705
" />
<path d="M34.4076 16.0705
L34.5890 16.0100
" />
<path d="M34.5890 16.0100
L34.7099 16.0100
" />
<path d="M34.7099 16.0100
L34.8914 16.0705
" />
<path d="M34.8914 16.0705
L34.9518 16.1310
" />
<path d="M35.4357 17.2196
L35.6171 17.2800
" />
<path d="M35.6171 17.2800
L35.9195 17.2800
" />
<path d="M35.9195 17.2800
L36.0404 17.2196
" />
<path d="M36.0404 17.2196
L36.1009 17.1591
" />
<path d="M36.1009 17.1591
L36.1614 17.0381
" />
<path d="M36.1614 17.0381
L36.1614 16.9172
" />
<path d="M36.1614 16.9172
L36.1009 16.7962
" />
<path d="M36.1009 16.7962
L36.0404 16.7357
" />
<path d="M36.0404 16.7357
L35.9195 16.6753
" />
<path d="M35.9195 16.6753
L35.6776 16.6148
" />
<path d="M35.6776 16.6148
L35.5566 16.5543
" />
<path d="M35.5566 16.5543
L35.4961 16.4938
" />
<path d="M35.4961 16.4938
L35.4357 16.3729
" />
<path d="M35.4357 16.3729
L35.4357 16.2519
" />
<path d="M35.4357 16.2519
L35.4961 16.1310
" />
<path d="M35.4961 16.1310
L35.5566 16.0705
" />
<path d="M35.5566 16.0705
L35.6776 16.0100
" />
<path d="M35.6776 16.0100
L35.9799 16.0100
" />
<path d="M35.9799 16.0100
L36.1614 16.0705
" />
<path d="M34.0508 15.6575
L36.2763 15.6575
" />
</g></g>
<g style="fill:none; 
stroke:#A90000; stroke-width:0.1524; stroke-opacity:1; 
stroke-linecap:round; stroke-linejoin:round;">
<text x="38.7895" y="16.4465"
textLength="2.6222" font-size="1.6933" lengthAdjust="spacingAndGlyphs"
text-anchor="middle" opacity="0" stroke-opacity="0">13</text>
<g class="stroked-text"><desc>13</desc>
<path d="M38.5476 16.2830
L37.8219 16.2830
" />
<path d="M38.1847 16.2830
L38.1847 15.0130
" />
<path d="M38.1847 15.0130
L38.0638 15.1945
" />
<path d="M38.0638 15.1945
L37.9428 15.3154
" />
<path d="M37.9428 15.3154
L37.8219 15.3759
" />
<path d="M38.9709 15.0130
L39.7571 15.0130
" />
<path d="M39.7571 15.0130
L39.3337 15.4968
" />
<path d="M39.3337 15.4968
L39.5152 15.4968
" />
<path d="M39.5152 15.4968
L39.6361 15.5573
" />
<path d="M39.6361 15.5573
L39.6966 15.6178
" />
<path d="M39.6966 15.6178
L39.7571 15.7387
" />
<path d="M39.7571 15.7387
L39.7571 16.0411
" />
<path d="M39.7571 16.0411
L39.6966 16.1621
" />
<path d="M39.6966 16.1621
L39.6361 16.2226
" />
<path d="M39.6361 16.2226
L39.5152 16.2830
" />
<path d="M39.5152 16.2830
L39.1523 16.2830
" />
<path d="M39.1523 16.2830
L39.0314 16.2226
" />
<path d="M39.0314 16.2226
L38.9709 16.1621
" />
</g></g>
<g style="fill:none; 
stroke:#840000; stroke-width:0.1524; stroke-opacity:1; 
stroke-linecap:round; stroke-linejoin:round;">
<path d="M37.5195 14.1605
L40.0595 14.1605
" />
<path d="M39.6785 13.7795
L40.4405 14.5415
" />
<path d="M40.4405 13.7795
L39.6785 14.5415
" />
</g>
<g style="fill:none; 
stroke:#006464; stroke-width:0.1524; stroke-opacity:1; 
stroke-linecap:round; stroke-linejoin:round;">
<text x="36.5035" y="14.7955"
textLength="2.8037" font-size="1.6933" lengthAdjust="spacingAndGlyphs"
text-anchor="end" opacity="0" stroke-opacity="0">NC</text>
<g class="stroked-text"><desc>NC</desc>
<path d="M34.1051 14.7400
L34.1051 13.4700
" />
<path d="M34.1051 13.4700
L34.8308 14.7400
" />
<path d="M34.8308 14.7400
L34.8308 13.4700
" />
<path d="M36.1613 14.6191
L36.1009 14.6796
" />
<path d="M36.1009 14.6796
L35.9194 14.7400
" />
<path d="M35.9194 14.7400
L35.7985 14.7400
" />
<path d="M35.7985 14.7400
L35.6171 14.6796
" />
<path d="M35.6171 14.6796
L35.4961 14.5586
" />
<path d="M35.4961 14.5586
L35.4356 14.4376
" />
<path d="M35.4356 14.4376
L35.3752 14.1957
" />
<path d="M35.3752 14.1957
L35.3752 14.0143
" />
<path d="M35.3752 14.0143
L35.4356 13.7724
" />
<path d="M35.4356 13.7724
L35.4961 13.6515
" />
<path d="M35.4961 13.6515
L35.6171 13.5305
" />
<path d="M35.6171 13.5305
L35.7985 13.4700
" />
<path d="M35.7985 13.4700
L35.9194 13.4700
" />
<path d="M35.9194 13.4700
L36.1009 13.5305
" />
<path d="M36.1009 13.5305
L36.1613 13.5910
" />
</g></g>
<g style="fill:none; 
stroke:#A90000; stroke-width:0.1524; stroke-opacity:1; 
stroke-linecap:round; stroke-linejoin:round;">
<text x="38.7895" y="13.9065"
textLength="2.6222" font-size="1.6933" lengthAdjust="spacingAndGlyphs"
text-anchor="middle" opacity="0" stroke-opacity="0">14</text>
<g class="stroked-text"><desc>14</desc>
<path d="M38.5476 13.7430
L37.8219 13.7430
" />
<path d="M38.1847 13.7430
L38.1847 12.4730
" />
<path d="M38.1847 12.4730
L38.0638 12.6545
" />
<path d="M38.0638 12.6545
L37.9428 12.7754
" />
<path d="M37.9428 12.7754
L37.8219 12.8359
" />
<path d="M39.6361 12.8964
L39.6361 13.7430
" />
<path d="M39.3337 12.4126
L39.0314 13.3197
" />
<path d="M39.0314 13.3197
L39.8175 13.3197
" />
</g></g>
<g style="fill:none; 
stroke:#840000; stroke-width:0.1524; stroke-opacity:1; 
stroke-linecap:round; stroke-linejoin:round;">
<path d="M37.5195 11.6205
L40.0595 11.6205
" />
</g>
<g style="fill:none; 
stroke:#006464; stroke-width:0.1524; stroke-opacity:1; 
stroke-linecap:round; stroke-linejoin:round;">
<text x="36.5035" y="12.2555"
textLength="5.8879" font-size="1.6933" lengthAdjust="spacingAndGlyphs"
text-anchor="end" opacity="0" stroke-opacity="0">LED_P</text>
<g class="stroked-text"><desc>LED_P</desc>
<path d="M31.6257 12.2000
L31.0209 12.2000
" />
<path d="M31.0209 12.2000
L31.0209 10.9300
" />
<path d="M32.0490 11.5348
L32.4724 11.5348
" />
<path d="M32.6538 12.2000
L32.0490 12.2000
" />
<path d="M32.0490 12.2000
L32.0490 10.9300
" />
<path d="M32.0490 10.9300
L32.6538 10.9300
" />
<path d="M33.1980 12.2000
L33.1980 10.9300
" />
<path d="M33.1980 10.9300
L33.5004 10.9300
" />
<path d="M33.5004 10.9300
L33.6818 10.9905
" />
<path d="M33.6818 10.9905
L33.8028 11.1115
" />
<path d="M33.8028 11.1115
L33.8633 11.2324
" />
<path d="M33.8633 11.2324
L33.9237 11.4743
" />
<path d="M33.9237 11.4743
L33.9237 11.6557
" />
<path d="M33.9237 11.6557
L33.8633 11.8976
" />
<path d="M33.8633 11.8976
L33.8028 12.0186
" />
<path d="M33.8028 12.0186
L33.6818 12.1396
" />
<path d="M33.6818 12.1396
L33.5004 12.2000
" />
<path d="M33.5004 12.2000
L33.1980 12.2000
" />
<path d="M34.1657 12.3210
L35.1333 12.3210
" />
<path d="M35.4356 12.2000
L35.4356 10.9300
" />
<path d="M35.4356 10.9300
L35.9194 10.9300
" />
<path d="M35.9194 10.9300
L36.0404 10.9905
" />
<path d="M36.0404 10.9905
L36.1009 11.0510
" />
<path d="M36.1009 11.0510
L36.1613 11.1719
" />
<path d="M36.1613 11.1719
L36.1613 11.3534
" />
<path d="M36.1613 11.3534
L36.1009 11.4743
" />
<path d="M36.1009 11.4743
L36.0404 11.5348
" />
<path d="M36.0404 11.5348
L35.9194 11.5953
" />
<path d="M35.9194 11.5953
L35.4356 11.5953
" />
</g></g>
<g style="fill:none; 
stroke:#A90000; stroke-width:0.1524; stroke-opacity:1; 
stroke-linecap:round; stroke-linejoin:round;">
<text x="38.7895" y="11.3665"
textLength="2.6222" font-size="1.6933" lengthAdjust="spacingAndGlyphs"
text-anchor="middle" opacity="0" stroke-opacity="0">15</text>
<g class="stroked-text"><desc>15</desc>
<path d="M38.5476 11.2030
L37.8219 11.2030
" />
<path d="M38.1847 11.2030
L38.1847 9.9330
" />
<path d="M38.1847 9.9330
L38.0638 10.1145
" />
<path d="M38.0638 10.1145
L37.9428 10.2354
" />
<path d="M37.9428 10.2354
L37.8219 10.2959
" />
<path d="M39.6966 9.9330
L39.0918 9.9330
" />
<path d="M39.0918 9.9330
L39.0314 10.5378
" />
<path d="M39.0314 10.5378
L39.0918 10.4773
" />
<path d="M39.0918 10.4773
L39.2128 10.4168
" />
<path d="M39.2128 10.4168
L39.5152 10.4168
" />
<path d="M39.5152 10.4168
L39.6361 10.4773
" />
<path d="M39.6361 10.4773
L39.6966 10.5378
" />
<path d="M39.6966 10.5378
L39.7571 10.6587
" />
<path d="M39.7571 10.6587
L39.7571 10.9611
" />
<path d="M39.7571 10.9611
L39.6966 11.0821
" />
<path d="M39.6966 11.0821
L39.6361 11.1426
" />
<path d="M39.6361 11.1426
L39.5152 11.2030
" />
<path d="M39.5152 11.2030
L39.2128 11.2030
" />
<path d="M39.2128 11.2030
L39.0918 11.1426
" />
<path d="M39.0918 11.1426
L39.0314 11.0821
" />
</g></g>
<g style="fill:none; 
stroke:#840000; stroke-width:0.1524; stroke-opacity:1; 
stroke-linecap:round; stroke-linejoin:round;">
<path d="M37.5195 9.0805
L40.0595 9.0805
" />
<path d="M39.6785 8.6995
L40.4405 9.4615
" />
<path d="M40.4405 8.6995
L39.6785 9.4615
" />
</g>
<g style="fill:none; 
stroke:#006464; stroke-width:0.1524; stroke-opacity:1; 
stroke-linecap:round; stroke-linejoin:round;">
<text x="36.5035" y="9.7155"
textLength="2.8037" font-size="1.6933" lengthAdjust="spacingAndGlyphs"
text-anchor="end" opacity="0" stroke-opacity="0">NC</text>
<g class="stroked-text"><desc>NC</desc>
<path d="M34.1051 9.6600
L34.1051 8.3900
" />
<path d="M34.1051 8.3900
L34.8308 9.6600
" />
<path d="M34.8308 9.6600
L34.8308 8.3900
" />
<path d="M36.1613 9.5391
L36.1009 9.5996
" />
<path d="M36.1009 9.5996
L35.9194 9.6600
" />
<path d="M35.9194 9.6600
L35.7985 9.6600
" />
<path d="M35.7985 9.6600
L35.6171 9.5996
" />
<path d="M35.6171 9.5996
L35.4961 9.4786
" />
<path d="M35.4961 9.4786
L35.4356 9.3576
" />
<path d="M35.4356 9.3576
L35.3752 9.1157
" />
<path d="M35.3752 9.1157
L35.3752 8.9343
" />
<path d="M35.3752 8.9343
L35.4356 8.6924
" />
<path d="M35.4356 8.6924
L35.4961 8.5715
" />
<path d="M35.4961 8.5715
L35.6171 8.4505
" />
<path d="M35.6171 8.4505
L35.7985 8.3900
" />
<path d="M35.7985 8.3900
L35.9194 8.3900
" />
<path d="M35.9194 8.3900
L36.1009 8.4505
" />
<path d="M36.1009 8.4505
L36.1613 8.5110
" />
</g></g>
<g style="fill:none; 
stroke:#A90000; stroke-width:0.1524; stroke-opacity:1; 
stroke-linecap:round; stroke-linejoin:round;">
<text x="38.7895" y="8.8265"
textLength="2.6222" font-size="1.6933" lengthAdjust="spacingAndGlyphs"
text-anchor="middle" opacity="0" stroke-opacity="0">16</text>
<g class="stroked-text"><desc>16</desc>
<path d="M38.5476 8.6630
L37.8219 8.6630
" />
<path d="M38.1847 8.6630
L38.1847 7.3930
" />
<path d="M38.1847 7.3930
L38.0638 7.5745
" />
<path d="M38.0638 7.5745
L37.9428 7.6954
" />
<path d="M37.9428 7.6954
L37.8219 7.7559
" />
<path d="M39.6361 7.3930
L39.3942 7.3930
" />
<path d="M39.3942 7.3930
L39.2733 7.4535
" />
<path d="M39.2733 7.4535
L39.2128 7.5140
" />
<path d="M39.2128 7.5140
L39.0918 7.6954
" />
<path d="M39.0918 7.6954
L39.0314 7.9373
" />
<path d="M39.0314 7.9373
L39.0314 8.4211
" />
<path d="M39.0314 8.4211
L39.0918 8.5421
" />
<path d="M39.0918 8.5421
L39.1523 8.6026
" />
<path d="M39.1523 8.6026
L39.2733 8.6630
" />
<path d="M39.2733 8.6630
L39.5152 8.6630
" />
<path d="M39.5152 8.6630
L39.6361 8.6026
" />
<path d="M39.6361 8.6026
L39.6966 8.5421
" />
<path d="M39.6966 8.5421
L39.7571 8.4211
" />
<path d="M39.7571 8.4211
L39.7571 8.1187
" />
<path d="M39.7571 8.1187
L39.6966 7.9978
" />
<path d="M39.6966 7.9978
L39.6361 7.9373
" />
<path d="M39.6361 7.9373
L39.5152 7.8768
" />
<path d="M39.5152 7.8768
L39.2733 7.8768
" />
<path d="M39.2733 7.8768
L39.1523 7.9373
" />
<path d="M39.1523 7.9373
L39.0918 7.9978
" />
<path d="M39.0918 7.9978
L39.0314 8.1187
" />
</g></g>
<g style="fill:none; 
stroke:#840000; stroke-width:0.1524; stroke-opacity:1; 
stroke-linecap:round; stroke-linejoin:round;">
<path d="M17.1995 11.6205
L14.6595 11.6205
" />
<path d="M14.2785 11.2395
L15.0405 12.0015
" />
<path d="M15.0405 11.2395
L14.2785 12.0015
" />
</g>
<g style="fill:none; 
stroke:#006464; stroke-width:0.1524; stroke-opacity:1; 
stroke-linecap:round; stroke-linejoin:round;">
<text x="18.2155" y="12.2555"
textLength="2.8037" font-size="1.6933" lengthAdjust="spacingAndGlyphs"
text-anchor="start" opacity="0" stroke-opacity="0">NC</text>
<g class="stroked-text"><desc>NC</desc>
<path d="M18.6180 12.2000
L18.6180 10.9300
" />
<path d="M18.6180 10.9300
L19.3437 12.2000
" />
<path d="M19.3437 12.2000
L19.3437 10.9300
" />
<path d="M20.6742 12.0791
L20.6138 12.1396
" />
<path d="M20.6138 12.1396
L20.4323 12.2000
" />
<path d="M20.4323 12.2000
L20.3114 12.2000
" />
<path d="M20.3114 12.2000
L20.1300 12.1396
" />
<path d="M20.1300 12.1396
L20.0090 12.0186
" />
<path d="M20.0090 12.0186
L19.9485 11.8976
" />
<path d="M19.9485 11.8976
L19.8881 11.6557
" />
<path d="M19.8881 11.6557
L19.8881 11.4743
" />
<path d="M19.8881 11.4743
L19.9485 11.2324
" />
<path d="M19.9485 11.2324
L20.0090 11.1115
" />
<path d="M20.0090 11.1115
L20.1300 10.9905
" />
<path d="M20.1300 10.9905
L20.3114 10.9300
" />
<path d="M20.3114 10.9300
L20.4323 10.9300
" />
<path d="M20.4323 10.9300
L20.6138 10.9905
" />
<path d="M20.6138 10.9905
L20.6742 11.0510
" />
</g></g>
<g style="fill:none; 
stroke:#A90000; stroke-width:0.1524; stroke-opacity:1; 
stroke-linecap:round; stroke-linejoin:round;">
<text x="15.9295" y="11.3665"
textLength="1.4127" font-size="1.6933" lengthAdjust="spacingAndGlyphs"
text-anchor="middle" opacity="0" stroke-opacity="0">2</text>
<g class="stroked-text"><desc>2</desc>
<path d="M15.5667 10.0540
L15.6271 9.9935
" />
<path d="M15.6271 9.9935
L15.7481 9.9330
" />
<path d="M15.7481 9.9330
L16.0505 9.9330
" />
<path d="M16.0505 9.9330
L16.1714 9.9935
" />
<path d="M16.1714 9.9935
L16.2319 10.0540
" />
<path d="M16.2319 10.0540
L16.2924 10.1749
" />
<path d="M16.2924 10.1749
L16.2924 10.2959
" />
<path d="M16.2924 10.2959
L16.2319 10.4773
" />
<path d="M16.2319 10.4773
L15.5062 11.2030
" />
<path d="M15.5062 11.2030
L16.2924 11.2030
" />
</g></g>
<g style="fill:none; 
stroke:#840000; stroke-width:0.1524; stroke-opacity:1; 
stroke-linecap:round; stroke-linejoin:round;">
<path d="M17.1995 14.1605
L14.6595 14.1605
" />
</g>
<g style="fill:none; 
stroke:#006464; stroke-width:0.1524; stroke-opacity:1; 
stroke-linecap:round; stroke-linejoin:round;">
<text x="18.2155" y="14.7955"
textLength="6.9161" font-size="1.6933" lengthAdjust="spacingAndGlyphs"
text-anchor="start" opacity="0" stroke-opacity="0">VDDPIX</text>
<g class="stroked-text"><desc>VDDPIX</desc>
<path d="M18.4366 13.4700
L18.8599 14.7400
" />
<path d="M18.8599 14.7400
L19.2833 13.4700
" />
<path d="M19.7066 14.7400
L19.7066 13.4700
" />
<path d="M19.7066 13.4700
L20.0090 13.4700
" />
<path d="M20.0090 13.4700
L20.1904 13.5305
" />
<path d="M20.1904 13.5305
L20.3114 13.6515
" />
<path d="M20.3114 13.6515
L20.3719 13.7724
" />
<path d="M20.3719 13.7724
L20.4323 14.0143
" />
<path d="M20.4323 14.0143
L20.4323 14.1957
" />
<path d="M20.4323 14.1957
L20.3719 14.4376
" />
<path d="M20.3719 14.4376
L20.3114 14.5586
" />
<path d="M20.3114 14.5586
L20.1904 14.6796
" />
<path d="M20.1904 14.6796
L20.0090 14.7400
" />
<path d="M20.0090 14.7400
L19.7066 14.7400
" />
<path d="M20.9766 14.7400
L20.9766 13.4700
" />
<path d="M20.9766 13.4700
L21.2790 13.4700
" />
<path d="M21.2790 13.4700
L21.4604 13.5305
" />
<path d="M21.4604 13.5305
L21.5814 13.6515
" />
<path d="M21.5814 13.6515
L21.6419 13.7724
" />
<path d="M21.6419 13.7724
L21.7023 14.0143
" />
<path d="M21.7023 14.0143
L21.7023 14.1957
" />
<path d="M21.7023 14.1957
L21.6419 14.4376
" />
<path d="M21.6419 14.4376
L21.5814 14.5586
" />
<path d="M21.5814 14.5586
L21.4604 14.6796
" />
<path d="M21.4604 14.6796
L21.2790 14.7400
" />
<path d="M21.2790 14.7400
L20.9766 14.7400
" />
<path d="M22.2466 14.7400
L22.2466 13.4700
" />
<path d="M22.2466 13.4700
L22.7304 13.4700
" />
<path d="M22.7304 13.4700
L22.8514 13.5305
" />
<path d="M22.8514 13.5305
L22.9119 13.5910
" />
<path d="M22.9119 13.5910
L22.9723 13.7119
" />
<path d="M22.9723 13.7119
L22.9723 13.8934
" />
<path d="M22.9723 13.8934
L22.9119 14.0143
" />
<path d="M22.9119 14.0143
L22.8514 14.0748
" />
<path d="M22.8514 14.0748
L22.7304 14.1353
" />
<path d="M22.7304 14.1353
L22.2466 14.1353
" />
<path d="M23.5166 14.7400
L23.5166 13.4700
" />
<path d="M24.0005 13.4700
L24.8471 14.7400
" />
<path d="M24.8471 13.4700
L24.0005 14.7400
" />
</g></g>
<g style="fill:none; 
stroke:#A90000; stroke-width:0.1524; stroke-opacity:1; 
stroke-linecap:round; stroke-linejoin:round;">
<text x="15.9295" y="13.9065"
textLength="1.4127" font-size="1.6933" lengthAdjust="spacingAndGlyphs"
text-anchor="middle" opacity="0" stroke-opacity="0">3</text>
<g class="stroked-text"><desc>3</desc>
<path d="M15.5062 12.4730
L16.2924 12.4730
" />
<path d="M16.2924 12.4730
L15.8690 12.9568
" />
<path d="M15.8690 12.9568
L16.0505 12.9568
" />
<path d="M16.0505 12.9568
L16.1714 13.0173
" />
<path d="M16.1714 13.0173
L16.2319 13.0778
" />
<path d="M16.2319 13.0778
L16.2924 13.1987
" />
<path d="M16.2924 13.1987
L16.2924 13.5011
" />
<path d="M16.2924 13.5011
L16.2319 13.6221
" />
<path d="M16.2319 13.6221
L16.1714 13.6826
" />
<path d="M16.1714 13.6826
L16.0505 13.7430
" />
<path d="M16.0505 13.7430
L15.6876 13.7430
" />
<path d="M15.6876 13.7430
L15.5667 13.6826
" />
<path d="M15.5667 13.6826
L15.5062 13.6221
" />
</g></g>
<g style="fill:none; 
stroke:#840000; stroke-width:0.1524; stroke-opacity:1; 
stroke-linecap:round; stroke-linejoin:round;">
<path d="M17.1995 16.7005
L14.6595 16.7005
" />
</g>
<g style="fill:none; 
stroke:#006464; stroke-width:0.1524; stroke-opacity:1; 
stroke-linecap:round; stroke-linejoin:round;">
<text x="18.2155" y="17.3355"
textLength="3.8318" font-size="1.6933" lengthAdjust="spacingAndGlyphs"
text-anchor="start" opacity="0" stroke-opacity="0">VDD</text>
<g class="stroked-text"><desc>VDD</desc>
<path d="M18.4366 16.0100
L18.8599 17.2800
" />
<path d="M18.8599 17.2800
L19.2833 16.0100
" />
<path d="M19.7066 17.2800
L19.7066 16.0100
" />
<path d="M19.7066 16.0100
L20.0090 16.0100
" />
<path d="M20.0090 16.0100
L20.1904 16.0705
" />
<path d="M20.1904 16.0705
L20.3114 16.1915
" />
<path d="M20.3114 16.1915
L20.3719 16.3124
" />
<path d="M20.3719 16.3124
L20.4323 16.5543
" />
<path d="M20.4323 16.5543
L20.4323 16.7357
" />
<path d="M20.4323 16.7357
L20.3719 16.9776
" />
<path d="M20.3719 16.9776
L20.3114 17.0986
" />
<path d="M20.3114 17.0986
L20.1904 17.2196
" />
<path d="M20.1904 17.2196
L20.0090 17.2800
" />
<path d="M20.0090 17.2800
L19.7066 17.2800
" />
<path d="M20.9766 17.2800
L20.9766 16.0100
" />
<path d="M20.9766 16.0100
L21.2790 16.0100
" />
<path d="M21.2790 16.0100
L21.4604 16.0705
" />
<path d="M21.4604 16.0705
L21.5814 16.1915
" />
<path d="M21.5814 16.1915
L21.6419 16.3124
" />
<path d="M21.6419 16.3124
L21.7023 16.5543
" />
<path d="M21.7023 16.5543
L21.7023 16.7357
" />
<path d="M21.7023 16.7357
L21.6419 16.9776
" />
<path d="M21.6419 16.9776
L21.5814 17.0986
" />
<path d="M21.5814 17.0986
L21.4604 17.2196
" />
<path d="M21.4604 17.2196
L21.2790 17.2800
" />
<path d="M21.2790 17.2800
L20.9766 17.2800
" />
</g></g>
<g style="fill:none; 
stroke:#A90000; stroke-width:0.1524; stroke-opacity:1; 
stroke-linecap:round; stroke-linejoin:round;">
<text x="15.9295" y="16.4465"
textLength="1.4127" font-size="1.6933" lengthAdjust="spacingAndGlyphs"
text-anchor="middle" opacity="0" stroke-opacity="0">4</text>
<g class="stroked-text"><desc>4</desc>
<path d="M16.1714 15.4364
L16.1714 16.2830
" />
<path d="M15.8690 14.9526
L15.5667 15.8597
" />
<path d="M15.5667 15.8597
L16.3528 15.8597
" />
</g></g>
<g style="fill:none; 
stroke:#840000; stroke-width:0.1524; stroke-opacity:1; 
stroke-linecap:round; stroke-linejoin:round;">
<path d="M17.1995 19.2405
L14.6595 19.2405
" />
</g>
<g style="fill:none; 
stroke:#006464; stroke-width:0.1524; stroke-opacity:1; 
stroke-linecap:round; stroke-linejoin:round;">
<text x="18.2155" y="19.8755"
textLength="5.7671" font-size="1.6933" lengthAdjust="spacingAndGlyphs"
text-anchor="start" opacity="0" stroke-opacity="0">VDDIO</text>
<g class="stroked-text"><desc>VDDIO</desc>
<path d="M18.4366 18.5500
L18.8599 19.8200
" />
<path d="M18.8599 19.8200
L19.2833 18.5500
" />
<path d="M19.7066 19.8200
L19.7066 18.5500
" />
<path d="M19.7066 18.5500
L20.0090 18.5500
" />
<path d="M20.0090 18.5500
L20.1904 18.6105
" />
<path d="M20.1904 18.6105
L20.3114 18.7315
" />
<path d="M20.3114 18.7315
L20.3719 18.8524
" />
<path d="M20.3719 18.8524
L20.4323 19.0943
" />
<path d="M20.4323 19.0943
L20.4323 19.2757
" />
<path d="M20.4323 19.2757
L20.3719 19.5176
" />
<path d="M20.3719 19.5176
L20.3114 19.6386
" />
<path d="M20.3114 19.6386
L20.1904 19.7596
" />
<path d="M20.1904 19.7596
L20.0090 19.8200
" />
<path d="M20.0090 19.8200
L19.7066 19.8200
" />
<path d="M20.9766 19.8200
L20.9766 18.5500
" />
<path d="M20.9766 18.5500
L21.2790 18.5500
" />
<path d="M21.2790 18.5500
L21.4604 18.6105
" />
<path d="M21.4604 18.6105
L21.5814 18.7315
" />
<path d="M21.5814 18.7315
L21.6419 18.8524
" />
<path d="M21.6419 18.8524
L21.7023 19.0943
" />
<path d="M21.7023 19.0943
L21.7023 19.2757
" />
<path d="M21.7023 19.2757
L21.6419 19.5176
" />
<path d="M21.6419 19.5176
L21.5814 19.6386
" />
<path d="M21.5814 19.6386
L21.4604 19.7596
" />
<path d="M21.4604 19.7596
L21.2790 19.8200
" />
<path d="M21.2790 19.8200
L20.9766 19.8200
" />
<path d="M22.2466 19.8200
L22.2466 18.5500
" />
<path d="M23.0933 18.5500
L23.3352 18.5500
" />
<path d="M23.3352 18.5500
L23.4562 18.6105
" />
<path d="M23.4562 18.6105
L23.5771 18.7315
" />
<path d="M23.5771 18.7315
L23.6376 18.9734
" />
<path d="M23.6376 18.9734
L23.6376 19.3967
" />
<path d="M23.6376 19.3967
L23.5771 19.6386
" />
<path d="M23.5771 19.6386
L23.4562 19.7596
" />
<path d="M23.4562 19.7596
L23.3352 19.8200
" />
<path d="M23.3352 19.8200
L23.0933 19.8200
" />
<path d="M23.0933 19.8200
L22.9724 19.7596
" />
<path d="M22.9724 19.7596
L22.8514 19.6386
" />
<path d="M22.8514 19.6386
L22.7910 19.3967
" />
<path d="M22.7910 19.3967
L22.7910 18.9734
" />
<path d="M22.7910 18.9734
L22.8514 18.7315
" />
<path d="M22.8514 18.7315
L22.9724 18.6105
" />
<path d="M22.9724 18.6105
L23.0933 18.5500
" />
</g></g>
<g style="fill:none; 
stroke:#A90000; stroke-width:0.1524; stroke-opacity:1; 
stroke-linecap:round; stroke-linejoin:round;">
<text x="15.9295" y="18.9865"
textLength="1.4127" font-size="1.6933" lengthAdjust="spacingAndGlyphs"
text-anchor="middle" opacity="0" stroke-opacity="0">5</text>
<g class="stroked-text"><desc>5</desc>
<path d="M16.2319 17.5530
L15.6271 17.5530
" />
<path d="M15.6271 17.5530
L15.5667 18.1578
" />
<path d="M15.5667 18.1578
L15.6271 18.0973
" />
<path d="M15.6271 18.0973
L15.7481 18.0368
" />
<path d="M15.7481 18.0368
L16.0505 18.0368
" />
<path d="M16.0505 18.0368
L16.1714 18.0973
" />
<path d="M16.1714 18.0973
L16.2319 18.1578
" />
<path d="M16.2319 18.1578
L16.2924 18.2787
" />
<path d="M16.2924 18.2787
L16.2924 18.5811
" />
<path d="M16.2924 18.5811
L16.2319 18.7021
" />
<path d="M16.2319 18.7021
L16.1714 18.7626
" />
<path d="M16.1714 18.7626
L16.0505 18.8230
" />
<path d="M16.0505 18.8230
L15.7481 18.8230
" />
<path d="M15.7481 18.8230
L15.6271 18.7626
" />
<path d="M15.6271 18.7626
L15.5667 18.7021
" />
</g></g>
<g style="fill:none; 
stroke:#840000; stroke-width:0.1524; stroke-opacity:1; 
stroke-linecap:round; stroke-linejoin:round;">
<path d="M17.1995 21.7805
L14.6595 21.7805
" />
<path d="M14.2785 21.3995
L15.0405 22.1615
" />
<path d="M15.0405 21.3995
L14.2785 22.1615
" />
</g>
<g style="fill:none; 
stroke:#006464; stroke-width:0.1524; stroke-opacity:1; 
stroke-linecap:round; stroke-linejoin:round;">
<text x="18.2155" y="22.4155"
textLength="2.8037" font-size="1.6933" lengthAdjust="spacingAndGlyphs"
text-anchor="start" opacity="0" stroke-opacity="0">NC</text>
<g class="stroked-text"><desc>NC</desc>
<path d="M18.6180 22.3600
L18.6180 21.0900
" />
<path d="M18.6180 21.0900
L19.3437 22.3600
" />
<path d="M19.3437 22.3600
L19.3437 21.0900
" />
<path d="M20.6742 22.2391
L20.6138 22.2996
" />
<path d="M20.6138 22.2996
L20.4323 22.3600
" />
<path d="M20.4323 22.3600
L20.3114 22.3600
" />
<path d="M20.3114 22.3600
L20.1300 22.2996
" />
<path d="M20.1300 22.2996
L20.0090 22.1786
" />
<path d="M20.0090 22.1786
L19.9485 22.0576
" />
<path d="M19.9485 22.0576
L19.8881 21.8157
" />
<path d="M19.8881 21.8157
L19.8881 21.6343
" />
<path d="M19.8881 21.6343
L19.9485 21.3924
" />
<path d="M19.9485 21.3924
L20.0090 21.2715
" />
<path d="M20.0090 21.2715
L20.1300 21.1505
" />
<path d="M20.1300 21.1505
L20.3114 21.0900
" />
<path d="M20.3114 21.0900
L20.4323 21.0900
" />
<path d="M20.4323 21.0900
L20.6138 21.1505
" />
<path d="M20.6138 21.1505
L20.6742 21.2110
" />
</g></g>
<g style="fill:none; 
stroke:#A90000; stroke-width:0.1524; stroke-opacity:1; 
stroke-linecap:round; stroke-linejoin:round;">
<text x="15.9295" y="21.5265"
textLength="1.4127" font-size="1.6933" lengthAdjust="spacingAndGlyphs"
text-anchor="middle" opacity="0" stroke-opacity="0">6</text>
<g class="stroked-text"><desc>6</desc>
<path d="M16.1714 20.0930
L15.9295 20.0930
" />
<path d="M15.9295 20.0930
L15.8086 20.1535
" />
<path d="M15.8086 20.1535
L15.7481 20.2140
" />
<path d="M15.7481 20.2140
L15.6271 20.3954
" />
<path d="M15.6271 20.3954
L15.5667 20.6373
" />
<path d="M15.5667 20.6373
L15.5667 21.1211
" />
<path d="M15.5667 21.1211
L15.6271 21.2421
" />
<path d="M15.6271 21.2421
L15.6876 21.3026
" />
<path d="M15.6876 21.3026
L15.8086 21.3630
" />
<path d="M15.8086 21.3630
L16.0505 21.3630
" />
<path d="M16.0505 21.3630
L16.1714 21.3026
" />
<path d="M16.1714 21.3026
L16.2319 21.2421
" />
<path d="M16.2319 21.2421
L16.2924 21.1211
" />
<path d="M16.2924 21.1211
L16.2924 20.8187
" />
<path d="M16.2924 20.8187
L16.2319 20.6978
" />
<path d="M16.2319 20.6978
L16.1714 20.6373
" />
<path d="M16.1714 20.6373
L16.0505 20.5768
" />
<path d="M16.0505 20.5768
L15.8086 20.5768
" />
<path d="M15.8086 20.5768
L15.6876 20.6373
" />
<path d="M15.6876 20.6373
L15.6271 20.6978
" />
<path d="M15.6271 20.6978
L15.5667 20.8187
" />
</g></g>
<g style="fill:none; 
stroke:#840000; stroke-width:0.1524; stroke-opacity:1; 
stroke-linecap:round; stroke-linejoin:round;">
<path d="M17.1995 24.3205
L14.6595 24.3205
" />
</g>
<g style="fill:none; 
stroke:#006464; stroke-width:0.1524; stroke-opacity:1; 
stroke-linecap:round; stroke-linejoin:round;">
<text x="18.2155" y="24.9555"
textLength="5.9483" font-size="1.6933" lengthAdjust="spacingAndGlyphs"
text-anchor="start" opacity="0" stroke-opacity="0">~{RESET}</text>
<g class="stroked-text"><desc>~{RESET}</desc>
<path d="M19.3437 24.9000
L18.9204 24.2953
" />
<path d="M18.6180 24.9000
L18.6180 23.6300
" />
<path d="M18.6180 23.6300
L19.1018 23.6300
" />
<path d="M19.1018 23.6300
L19.2228 23.6905
" />
<path d="M19.2228 23.6905
L19.2833 23.7510
" />
<path d="M19.2833 23.7510
L19.3437 23.8719
" />
<path d="M19.3437 23.8719
L19.3437 24.0534
" />
<path d="M19.3437 24.0534
L19.2833 24.1743
" />
<path d="M19.2833 24.1743
L19.2228 24.2348
" />
<path d="M19.2228 24.2348
L19.1018 24.2953
" />
<path d="M19.1018 24.2953
L18.6180 24.2953
" />
<path d="M19.8880 24.2348
L20.3114 24.2348
" />
<path d="M20.4928 24.9000
L19.8880 24.9000
" />
<path d="M19.8880 24.9000
L19.8880 23.6300
" />
<path d="M19.8880 23.6300
L20.4928 23.6300
" />
<path d="M20.9766 24.8396
L21.1580 24.9000
" />
<path d="M21.1580 24.9000
L21.4604 24.9000
" />
<path d="M21.4604 24.9000
L21.5813 24.8396
" />
<path d="M21.5813 24.8396
L21.6418 24.7791
" />
<path d="M21.6418 24.7791
L21.7023 24.6581
" />
<path d="M21.7023 24.6581
L21.7023 24.5372
" />
<path d="M21.7023 24.5372
L21.6418 24.4162
" />
<path d="M21.6418 24.4162
L21.5813 24.3557
" />
<path d="M21.5813 24.3557
L21.4604 24.2953
" />
<path d="M21.4604 24.2953
L21.2185 24.2348
" />
<path d="M21.2185 24.2348
L21.0975 24.1743
" />
<path d="M21.0975 24.1743
L21.0370 24.1138
" />
<path d="M21.0370 24.1138
L20.9766 23.9929
" />
<path d="M20.9766 23.9929
L20.9766 23.8719
" />
<path d="M20.9766 23.8719
L21.0370 23.7510
" />
<path d="M21.0370 23.7510
L21.0975 23.6905
" />
<path d="M21.0975 23.6905
L21.2185 23.6300
" />
<path d="M21.2185 23.6300
L21.5208 23.6300
" />
<path d="M21.5208 23.6300
L21.7023 23.6905
" />
<path d="M22.2465 24.2348
L22.6699 24.2348
" />
<path d="M22.8513 24.9000
L22.2465 24.9000
" />
<path d="M22.2465 24.9000
L22.2465 23.6300
" />
<path d="M22.2465 23.6300
L22.8513 23.6300
" />
<path d="M23.2141 23.6300
L23.9398 23.6300
" />
<path d="M23.5770 24.9000
L23.5770 23.6300
" />
<path d="M18.4427 23.2775
L23.9338 23.2775
" />
</g></g>
<g style="fill:none; 
stroke:#A90000; stroke-width:0.1524; stroke-opacity:1; 
stroke-linecap:round; stroke-linejoin:round;">
<text x="15.9295" y="24.0665"
textLength="1.4127" font-size="1.6933" lengthAdjust="spacingAndGlyphs"
text-anchor="middle" opacity="0" stroke-opacity="0">7</text>
<g class="stroked-text"><desc>7</desc>
<path d="M15.5062 22.6330
L16.3528 22.6330
" />
<path d="M16.3528 22.6330
L15.8086 23.9030
" />
</g></g>
<g style="fill:none; 
stroke:#840000; stroke-width:0.1524; stroke-opacity:1; 
stroke-linecap:round; stroke-linejoin:round;">
<path d="M17.1995 26.8605
L14.6595 26.8605
" />
</g>
<g style="fill:none; 
stroke:#006464; stroke-width:0.1524; stroke-opacity:1; 
stroke-linecap:round; stroke-linejoin:round;">
<text x="18.2155" y="27.4955"
textLength="4.0737" font-size="1.6933" lengthAdjust="spacingAndGlyphs"
text-anchor="start" opacity="0" stroke-opacity="0">GND</text>
<g class="stroked-text"><desc>GND</desc>
<path d="M19.2833 26.2305
L19.1623 26.1700
" />
<path d="M19.1623 26.1700
L18.9809 26.1700
" />
<path d="M18.9809 26.1700
L18.7995 26.2305
" />
<path d="M18.7995 26.2305
L18.6785 26.3515
" />
<path d="M18.6785 26.3515
L18.6180 26.4724
" />
<path d="M18.6180 26.4724
L18.5576 26.7143
" />
<path d="M18.5576 26.7143
L18.5576 26.8957
" />
<path d="M18.5576 26.8957
L18.6180 27.1376
" />
<path d="M18.6180 27.1376
L18.6785 27.2586
" />
<path d="M18.6785 27.2586
L18.7995 27.3796
" />
<path d="M18.7995 27.3796
L18.9809 27.4400
" />
<path d="M18.9809 27.4400
L19.1018 27.4400
" />
<path d="M19.1018 27.4400
L19.2833 27.3796
" />
<path d="M19.2833 27.3796
L19.3437 27.3191
" />
<path d="M19.3437 27.3191
L19.3437 26.8957
" />
<path d="M19.3437 26.8957
L19.1018 26.8957
" />
<path d="M19.8880 27.4400
L19.8880 26.1700
" />
<path d="M19.8880 26.1700
L20.6137 27.4400
" />
<path d="M20.6137 27.4400
L20.6137 26.1700
" />
<path d="M21.2185 27.4400
L21.2185 26.1700
" />
<path d="M21.2185 26.1700
L21.5209 26.1700
" />
<path d="M21.5209 26.1700
L21.7023 26.2305
" />
<path d="M21.7023 26.2305
L21.8233 26.3515
" />
<path d="M21.8233 26.3515
L21.8838 26.4724
" />
<path d="M21.8838 26.4724
L21.9442 26.7143
" />
<path d="M21.9442 26.7143
L21.9442 26.8957
" />
<path d="M21.9442 26.8957
L21.8838 27.1376
" />
<path d="M21.8838 27.1376
L21.8233 27.2586
" />
<path d="M21.8233 27.2586
L21.7023 27.3796
" />
<path d="M21.7023 27.3796
L21.5209 27.4400
" />
<path d="M21.5209 27.4400
L21.2185 27.4400
" />
</g></g>
<g style="fill:none; 
stroke:#A90000; stroke-width:0.1524; stroke-opacity:1; 
stroke-linecap:round; stroke-linejoin:round;">
<text x="15.9295" y="26.6065"
textLength="1.4127" font-size="1.6933" lengthAdjust="spacingAndGlyphs"
text-anchor="middle" opacity="0" stroke-opacity="0">8</text>
<g class="stroked-text"><desc>8</desc>
<path d="M15.8086 25.7173
L15.6876 25.6568
" />
<path d="M15.6876 25.6568
L15.6271 25.5964
" />
<path d="M15.6271 25.5964
L15.5667 25.4754
" />
<path d="M15.5667 25.4754
L15.5667 25.4149
" />
<path d="M15.5667 25.4149
L15.6271 25.2940
" />
<path d="M15.6271 25.2940
L15.6876 25.2335
" />
<path d="M15.6876 25.2335
L15.8086 25.1730
" />
<path d="M15.8086 25.1730
L16.0505 25.1730
" />
<path d="M16.0505 25.1730
L16.1714 25.2335
" />
<path d="M16.1714 25.2335
L16.2319 25.2940
" />
<path d="M16.2319 25.2940
L16.2924 25.4149
" />
<path d="M16.2924 25.4149
L16.2924 25.4754
" />
<path d="M16.2924 25.4754
L16.2319 25.5964
" />
<path d="M16.2319 25.5964
L16.1714 25.6568
" />
<path d="M16.1714 25.6568
L16.0505 25.7173
" />
<path d="M16.0505 25.7173
L15.8086 25.7173
" />
<path d="M15.8086 25.7173
L15.6876 25.7778
" />
<path d="M15.6876 25.7778
L15.6271 25.8383
" />
<path d="M15.6271 25.8383
L15.5667 25.9592
" />
<path d="M15.5667 25.9592
L15.5667 26.2011
" />
<path d="M15.5667 26.2011
L15.6271 26.3221
" />
<path d="M15.6271 26.3221
L15.6876 26.3826
" />
<path d="M15.6876 26.3826
L15.8086 26.4430
" />
<path d="M15.8086 26.4430
L16.0505 26.4430
" />
<path d="M16.0505 26.4430
L16.1714 26.3826
" />
<path d="M16.1714 26.3826
L16.2319 26.3221
" />
<path d="M16.2319 26.3221
L16.2924 26.2011
" />
<path d="M16.2924 26.2011
L16.2924 25.9592
" />
<path d="M16.2924 25.9592
L16.2319 25.8383
" />
<path d="M16.2319 25.8383
L16.1714 25.7778
" />
<path d="M16.1714 25.7778
L16.0505 25.7173
" />
</g></g>
<g style="fill:none; 
stroke:#840000; stroke-width:0.1524; stroke-opacity:1; 
stroke-linecap:round; stroke-linejoin:round;">
<path d="M37.5195 26.8605
L40.0595 26.8605
" />
</g>
<g style="fill:none; 
stroke:#006464; stroke-width:0.1524; stroke-opacity:1; 
stroke-linecap:round; stroke-linejoin:round;">
<text x="36.5035" y="27.4955"
textLength="7.2185" font-size="1.6933" lengthAdjust="spacingAndGlyphs"
text-anchor="end" opacity="0" stroke-opacity="0">MOTION</text>
<g class="stroked-text"><desc>MOTION</desc>
<path d="M29.6903 27.4400
L29.6903 26.1700
" />
<path d="M29.6903 26.1700
L30.1137 27.0772
" />
<path d="M30.1137 27.0772
L30.5370 26.1700
" />
<path d="M30.5370 26.1700
L30.5370 27.4400
" />
<path d="M31.3836 26.1700
L31.6255 26.1700
" />
<path d="M31.6255 26.1700
L31.7465 26.2305
" />
<path d="M31.7465 26.2305
L31.8674 26.3515
" />
<path d="M31.8674 26.3515
L31.9279 26.5934
" />
<path d="M31.9279 26.5934
L31.9279 27.0167
" />
<path d="M31.9279 27.0167
L31.8674 27.2586
" />
<path d="M31.8674 27.2586
L31.7465 27.3796
" />
<path d="M31.7465 27.3796
L31.6255 27.4400
" />
<path d="M31.6255 27.4400
L31.3836 27.4400
" />
<path d="M31.3836 27.4400
L31.2627 27.3796
" />
<path d="M31.2627 27.3796
L31.1417 27.2586
" />
<path d="M31.1417 27.2586
L31.0813 27.0167
" />
<path d="M31.0813 27.0167
L31.0813 26.5934
" />
<path d="M31.0813 26.5934
L31.1417 26.3515
" />
<path d="M31.1417 26.3515
L31.2627 26.2305
" />
<path d="M31.2627 26.2305
L31.3836 26.1700
" />
<path d="M32.2908 26.1700
L33.0165 26.1700
" />
<path d="M32.6537 27.4400
L32.6537 26.1700
" />
<path d="M33.4398 27.4400
L33.4398 26.1700
" />
<path d="M34.2865 26.1700
L34.5284 26.1700
" />
<path d="M34.5284 26.1700
L34.6494 26.2305
" />
<path d="M34.6494 26.2305
L34.7703 26.3515
" />
<path d="M34.7703 26.3515
L34.8308 26.5934
" />
<path d="M34.8308 26.5934
L34.8308 27.0167
" />
<path d="M34.8308 27.0167
L34.7703 27.2586
" />
<path d="M34.7703 27.2586
L34.6494 27.3796
" />
<path d="M34.6494 27.3796
L34.5284 27.4400
" />
<path d="M34.5284 27.4400
L34.2865 27.4400
" />
<path d="M34.2865 27.4400
L34.1656 27.3796
" />
<path d="M34.1656 27.3796
L34.0446 27.2586
" />
<path d="M34.0446 27.2586
L33.9842 27.0167
" />
<path d="M33.9842 27.0167
L33.9842 26.5934
" />
<path d="M33.9842 26.5934
L34.0446 26.3515
" />
<path d="M34.0446 26.3515
L34.1656 26.2305
" />
<path d="M34.1656 26.2305
L34.2865 26.1700
" />
<path d="M35.3751 27.4400
L35.3751 26.1700
" />
<path d="M35.3751 26.1700
L36.1008 27.4400
" />
<path d="M36.1008 27.4400
L36.1008 26.1700
" />
</g></g>
<g style="fill:none; 
stroke:#A90000; stroke-width:0.1524; stroke-opacity:1; 
stroke-linecap:round; stroke-linejoin:round;">
<text x="38.7895" y="26.6065"
textLength="1.4127" font-size="1.6933" lengthAdjust="spacingAndGlyphs"
text-anchor="middle" opacity="0" stroke-opacity="0">9</text>
<g class="stroked-text"><desc>9</desc>
<path d="M38.5476 26.4430
L38.7895 26.4430
" />
<path d="M38.7895 26.4430
L38.9105 26.3826
" />
<path d="M38.9105 26.3826
L38.9709 26.3221
" />
<path d="M38.9709 26.3221
L39.0919 26.1406
" />
<path d="M39.0919 26.1406
L39.1524 25.8987
" />
<path d="M39.1524 25.8987
L39.1524 25.4149
" />
<path d="M39.1524 25.4149
L39.0919 25.2940
" />
<path d="M39.0919 25.2940
L39.0314 25.2335
" />
<path d="M39.0314 25.2335
L38.9105 25.1730
" />
<path d="M38.9105 25.1730
L38.6686 25.1730
" />
<path d="M38.6686 25.1730
L38.5476 25.2335
" />
<path d="M38.5476 25.2335
L38.4871 25.2940
" />
<path d="M38.4871 25.2940
L38.4267 25.4149
" />
<path d="M38.4267 25.4149
L38.4267 25.7173
" />
<path d="M38.4267 25.7173
L38.4871 25.8383
" />
<path d="M38.4871 25.8383
L38.5476 25.8987
" />
<path d="M38.5476 25.8987
L38.6686 25.9592
" />
<path d="M38.6686 25.9592
L38.9105 25.9592
" />
<path d="M38.9105 25.9592
L39.0314 25.8987
" />
<path d="M39.0314 25.8987
L39.0919 25.8383
" />
<path d="M39.0919 25.8383
L39.1524 25.7173
" />
</g></g>
<g style="fill:none; 
stroke:#006464; stroke-width:0.1588; stroke-opacity:1; 
stroke-linecap:round; stroke-linejoin:round;">
<text x="27.3595" y="4.6356"
textLength="2.6415" font-size="1.6933" lengthAdjust="spacingAndGlyphs"
text-anchor="middle" opacity="0" stroke-opacity="0">U?</text>
<g class="stroked-text"><desc>U?</desc>
<path d="M26.4523 3.3098
L26.4523 4.3379
" />
<path d="M26.4523 4.3379
L26.5128 4.4589
" />
<path d="M26.5128 4.4589
L26.5733 4.5194
" />
<path d="M26.5733 4.5194
L26.6942 4.5798
" />
<path d="M26.6942 4.5798
L26.9361 4.5798
" />
<path d="M26.9361 4.5798
L27.0571 4.5194
" />
<path d="M27.0571 4.5194
L27.1176 4.4589
" />
<path d="M27.1176 4.4589
L27.1780 4.3379
" />
<path d="M27.1780 4.3379
L27.1780 3.3098
" />
<path d="M27.9643 4.4589
L28.0247 4.5194
" />
<path d="M28.0247 4.5194
L27.9643 4.5798
" />
<path d="M27.9643 4.5798
L27.9038 4.5194
" />
<path d="M27.9038 4.5194
L27.9643 4.4589
" />
<path d="M27.9643 4.4589
L27.9643 4.5798
" />
<path d="M27.7224 3.3703
L27.8433 3.3098
" />
<path d="M27.8433 3.3098
L28.1457 3.3098
" />
<path d="M28.1457 3.3098
L28.2666 3.3703
" />
<path d="M28.2666 3.3703
L28.3271 3.4913
" />
<path d="M28.3271 3.4913
L28.3271 3.6122
" />
<path d="M28.3271 3.6122
L28.2666 3.7332
" />
<path d="M28.2666 3.7332
L28.2062 3.7936
" />
<path d="M28.2062 3.7936
L28.0852 3.8541
" />
<path d="M28.0852 3.8541
L28.0247 3.9146
" />
<path d="M28.0247 3.9146
L27.9643 4.0355
" />
<path d="M27.9643 4.0355
L27.9643 4.0960
" />
</g><text x="27.3595" y="32.3216"
textLength="18.3651" font-size="1.6933" lengthAdjust="spacingAndGlyphs"
text-anchor="middle" opacity="0" stroke-opacity="0">PMW3360DM-T2QU</text>
<g class="stroked-text"><desc>PMW3360DM-T2QU</desc>
<path d="M18.5905 32.2658
L18.5905 30.9958
" />
<path d="M18.5905 30.9958
L19.0743 30.9958
" />
<path d="M19.0743 30.9958
L19.1953 31.0563
" />
<path d="M19.1953 31.0563
L19.2558 31.1168
" />
<path d="M19.2558 31.1168
L19.3162 31.2377
" />
<path d="M19.3162 31.2377
L19.3162 31.4192
" />
<path d="M19.3162 31.4192
L19.2558 31.5401
" />
<path d="M19.2558 31.5401
L19.1953 31.6006
" />
<path d="M19.1953 31.6006
L19.0743 31.6611
" />
<path d="M19.0743 31.6611
L18.5905 31.6611
" />
<path d="M19.8605 32.2658
L19.8605 30.9958
" />
<path d="M19.8605 30.9958
L20.2839 31.9030
" />
<path d="M20.2839 31.9030
L20.7072 30.9958
" />
<path d="M20.7072 30.9958
L20.7072 32.2658
" />
<path d="M21.1910 30.9958
L21.4934 32.2658
" />
<path d="M21.4934 32.2658
L21.7353 31.3587
" />
<path d="M21.7353 31.3587
L21.9772 32.2658
" />
<path d="M21.9772 32.2658
L22.2796 30.9958
" />
<path d="M22.6424 30.9958
L23.4286 30.9958
" />
<path d="M23.4286 30.9958
L23.0052 31.4796
" />
<path d="M23.0052 31.4796
L23.1867 31.4796
" />
<path d="M23.1867 31.4796
L23.3076 31.5401
" />
<path d="M23.3076 31.5401
L23.3681 31.6006
" />
<path d="M23.3681 31.6006
L23.4286 31.7215
" />
<path d="M23.4286 31.7215
L23.4286 32.0239
" />
<path d="M23.4286 32.0239
L23.3681 32.1449
" />
<path d="M23.3681 32.1449
L23.3076 32.2054
" />
<path d="M23.3076 32.2054
L23.1867 32.2658
" />
<path d="M23.1867 32.2658
L22.8238 32.2658
" />
<path d="M22.8238 32.2658
L22.7029 32.2054
" />
<path d="M22.7029 32.2054
L22.6424 32.1449
" />
<path d="M23.8519 30.9958
L24.6381 30.9958
" />
<path d="M24.6381 30.9958
L24.2147 31.4796
" />
<path d="M24.2147 31.4796
L24.3962 31.4796
" />
<path d="M24.3962 31.4796
L24.5171 31.5401
" />
<path d="M24.5171 31.5401
L24.5776 31.6006
" />
<path d="M24.5776 31.6006
L24.6381 31.7215
" />
<path d="M24.6381 31.7215
L24.6381 32.0239
" />
<path d="M24.6381 32.0239
L24.5776 32.1449
" />
<path d="M24.5776 32.1449
L24.5171 32.2054
" />
<path d="M24.5171 32.2054
L24.3962 32.2658
" />
<path d="M24.3962 32.2658
L24.0333 32.2658
" />
<path d="M24.0333 32.2658
L23.9124 32.2054
" />
<path d="M23.9124 32.2054
L23.8519 32.1449
" />
<path d="M25.7266 30.9958
L25.4847 30.9958
" />
<path d="M25.4847 30.9958
L25.3638 31.0563
" />
<path d="M25.3638 31.0563
L25.3033 31.1168
" />
<path d="M25.3033 31.1168
L25.1823 31.2982
" />
<path d="M25.1823 31.2982
L25.1219 31.5401
" />
<path d="M25.1219 31.5401
L25.1219 32.0239
" />
<path d="M25.1219 32.0239
L25.1823 32.1449
" />
<path d="M25.1823 32.1449
L25.2428 32.2054
" />
<path d="M25.2428 32.2054
L25.3638 32.2658
" />
<path d="M25.3638 32.2658
L25.6057 32.2658
" />
<path d="M25.6057 32.2658
L25.7266 32.2054
" />
<path d="M25.7266 32.2054
L25.7871 32.1449
" />
<path d="M25.7871 32.1449
L25.8476 32.0239
" />
<path d="M25.8476 32.0239
L25.8476 31.7215
" />
<path d="M25.8476 31.7215
L25.7871 31.6006
" />
<path d="M25.7871 31.6006
L25.7266 31.5401
" />
<path d="M25.7266 31.5401
L25.6057 31.4796
" />
<path d="M25.6057 31.4796
L25.3638 31.4796
" />
<path d="M25.3638 31.4796
L25.2428 31.5401
" />
<path d="M25.2428 31.5401
L25.1823 31.6006
" />
<path d="M25.1823 31.6006
L25.1219 31.7215
" />
<path d="M26.6337 30.9958
L26.7547 30.9958
" />
<path d="M26.7547 30.9958
L26.8756 31.0563
" />
<path d="M26.8756 31.0563
L26.9361 31.1168
" />
<path d="M26.9361 31.1168
L26.9966 31.2377
" />
<path d="M26.9966 31.2377
L27.0571 31.4796
" />
<path d="M27.0571 31.4796
L27.0571 31.7820
" />
<path d="M27.0571 31.7820
L26.9966 32.0239
" />
<path d="M26.9966 32.0239
L26.9361 32.1449
" />
<path d="M26.9361 32.1449
L26.8756 32.2054
" />
<path d="M26.8756 32.2054
L26.7547 32.2658
" />
<path d="M26.7547 32.2658
L26.6337 32.2658
" />
<path d="M26.6337 32.2658
L26.5128 32.2054
" />
<path d="M26.5128 32.2054
L26.4523 32.1449
" />
<path d="M26.4523 32.1449
L26.3918 32.0239
" />
<path d="M26.3918 32.0239
L26.3314 31.7820
" />
<path d="M26.3314 31.7820
L26.3314 31.4796
" />
<path d="M26.3314 31.4796
L26.3918 31.2377
" />
<path d="M26.3918 31.2377
L26.4523 31.1168
" />
<path d="M26.4523 31.1168
L26.5128 31.0563
" />
<path d="M26.5128 31.0563
L26.6337 30.9958
" />
<path d="M27.6013 32.2658
L27.6013 30.9958
" />
<path d="M27.6013 30.9958
L27.9037 30.9958
" />
<path d="M27.9037 30.9958
L28.0851 31.0563
" />
<path d="M28.0851 31.0563
L28.2061 31.1773
" />
<path d="M28.2061 31.1773
L28.2666 31.2982
" />
<path d="M28.2666 31.2982
L28.3270 31.5401
" />
<path d="M28.3270 31.5401
L28.3270 31.7215
" />
<path d="M28.3270 31.7215
L28.2666 31.9634
" />
<path d="M28.2666 31.9634
L28.2061 32.0844
" />
<path d="M28.2061 32.0844
L28.0851 32.2054
" />
<path d="M28.0851 32.2054
L27.9037 32.2658
" />
<path d="M27.9037 32.2658
L27.6013 32.2658
" />
<path d="M28.8713 32.2658
L28.8713 30.9958
" />
<path d="M28.8713 30.9958
L29.2947 31.9030
" />
<path d="M29.2947 31.9030
L29.7180 30.9958
" />
<path d="M29.7180 30.9958
L29.7180 32.2658
" />
<path d="M30.3227 31.7820
L31.2904 31.7820
" />
<path d="M31.7137 30.9958
L32.4394 30.9958
" />
<path d="M32.0766 32.2658
L32.0766 30.9958
" />
<path d="M32.8023 31.1168
L32.8627 31.0563
" />
<path d="M32.8627 31.0563
L32.9837 30.9958
" />
<path d="M32.9837 30.9958
L33.2861 30.9958
" />
<path d="M33.2861 30.9958
L33.4070 31.0563
" />
<path d="M33.4070 31.0563
L33.4675 31.1168
" />
<path d="M33.4675 31.1168
L33.5280 31.2377
" />
<path d="M33.5280 31.2377
L33.5280 31.3587
" />
<path d="M33.5280 31.3587
L33.4675 31.5401
" />
<path d="M33.4675 31.5401
L32.7418 32.2658
" />
<path d="M32.7418 32.2658
L33.5280 32.2658
" />
<path d="M34.9189 32.3868
L34.7979 32.3263
" />
<path d="M34.7979 32.3263
L34.6770 32.2054
" />
<path d="M34.6770 32.2054
L34.4956 32.0239
" />
<path d="M34.4956 32.0239
L34.3746 31.9634
" />
<path d="M34.3746 31.9634
L34.2537 31.9634
" />
<path d="M34.3141 32.2658
L34.1932 32.2054
" />
<path d="M34.1932 32.2054
L34.0722 32.0844
" />
<path d="M34.0722 32.0844
L34.0118 31.8425
" />
<path d="M34.0118 31.8425
L34.0118 31.4192
" />
<path d="M34.0118 31.4192
L34.0722 31.1773
" />
<path d="M34.0722 31.1773
L34.1932 31.0563
" />
<path d="M34.1932 31.0563
L34.3141 30.9958
" />
<path d="M34.3141 30.9958
L34.5560 30.9958
" />
<path d="M34.5560 30.9958
L34.6770 31.0563
" />
<path d="M34.6770 31.0563
L34.7979 31.1773
" />
<path d="M34.7979 31.1773
L34.8584 31.4192
" />
<path d="M34.8584 31.4192
L34.8584 31.8425
" />
<path d="M34.8584 31.8425
L34.7979 32.0844
" />
<path d="M34.7979 32.0844
L34.6770 32.2054
" />
<path d="M34.6770 32.2054
L34.5560 32.2658
" />
<path d="M34.5560 32.2658
L34.3141 32.2658
" />
<path d="M35.4027 30.9958
L35.4027 32.0239
" />
<path d="M35.4027 32.0239
L35.4632 32.1449
" />
<path d="M35.4632 32.1449
L35.5237 32.2054
" />
<path d="M35.5237 32.2054
L35.6446 32.2658
" />
<path d="M35.6446 32.2658
L35.8865 32.2658
" />
<path d="M35.8865 32.2658
L36.0075 32.2054
" />
<path d="M36.0075 32.2054
L36.0680 32.1449
" />
<path d="M36.0680 32.1449
L36.1284 32.0239
" />
<path d="M36.1284 32.0239
L36.1284 30.9958
" />
</g></g> 
</svg>
