<svg xmlns="http://www.w3.org/2000/svg" width="78.24" height="14.592" viewBox="0 0 20.701 3.861">
    <g style="fill:none;stroke:#f2eda1;stroke-width:.12;stroke-opacity:1;stroke-linecap:round;stroke-linejoin:round">
        <g class="stroked-text">
            <path d="m9.296 1.539-.266-.381M8.84 1.539v-.8M8.84.739h.304M9.144.739l.076.038M9.22.777l.038.038M9.258.815l.038.076M9.296.891v.115M9.296 1.006l-.038.076M9.258 1.082l-.038.038M9.22 1.12l-.076.038M9.144 1.158h-.305M9.64 1.12h.266M10.02 1.539h-.38M9.64 1.539v-.8M9.64.739h.38M10.63 1.12h-.267M10.363 1.539v-.8M10.363.739h.381M11.163.739v.19M10.973.853l.19.076M11.163.93l.19-.077M11.049 1.082l.114-.153M11.163.93l.114.152M11.773.739v.19M11.582.853l.19.076M11.773.93l.19-.077M11.658 1.082l.115-.153M11.773.93l.114.152"/>
        </g>
        <path d="M9.663.275h1.4M9.663 2.075h1.4"/>
        <path stroke="none" d="m8.138.525.02-.096.053-.08.081-.055.096-.019h.825l.096.019.08.054.055.081.02.096v1.3l-.02.096L9.39 2l-.081.055-.096.019h-.825l-.096-.019-.08-.054-.055-.081-.019-.096ZM11.263.525l.02-.096.053-.08.081-.055.096-.019h.825l.096.019.08.054.055.081.02.096v1.3l-.02.096-.054.08-.081.055-.096.019h-.825l-.096-.019-.08-.054-.055-.081-.019-.096Z" style="fill:#b4a09a;fill-opacity:.9;stroke:none;fill-rule:evenodd"/>
        <path stroke="none" d="m8.138.525.02-.096.053-.08.081-.055.096-.019h.825l.096.019.08.054.055.081.02.096v1.3l-.02.096L9.39 2l-.081.055-.096.019h-.825l-.096-.019-.08-.054-.055-.081-.019-.096ZM11.263.525l.02-.096.053-.08.081-.055.096-.019h.825l.096.019.08.054.055.081.02.096v1.3l-.02.096-.054.08-.081.055-.096.019h-.825l-.096-.019-.08-.054-.055-.081-.019-.096Z" style="fill:#c83434;fill-opacity:1;stroke:none;fill-rule:evenodd"/>
    </g>
    <g class="stroked-text" style="fill:none;stroke:#afafaf;stroke-width:.15;stroke-opacity:1;stroke-linecap:round;stroke-linejoin:round">
        <path d="m.935 3.385-.048.047M.887 3.432l-.143.048M.744 3.48H.649M.649 3.48l-.143-.048M.506 3.432l-.095-.095M.41 3.337l-.047-.095M.363 3.242l-.047-.19M.316 3.051v-.143M.316 2.908l.047-.19M.363 2.718l.048-.095M.41 2.623l.096-.096M.506 2.527l.143-.047M.649 2.48h.095M.744 2.48l.143.047M.887 2.527l.047.048M1.792 3.48v-.524M1.792 2.956l-.048-.095M1.744 2.86l-.095-.047M1.649 2.813h-.19M1.458 2.813l-.095.048M1.792 3.432l-.096.048M1.696 3.48h-.238M1.458 3.48l-.095-.048M1.363 3.432l-.048-.095M1.316 3.337v-.095M1.316 3.242l.047-.095M1.363 3.147l.095-.048M1.458 3.099h.238M1.696 3.099l.096-.048M2.268 2.813v1M2.268 2.86l.095-.047M2.363 2.813h.19M2.554 2.813l.095.048M2.649 2.86l.047.048M2.696 2.908l.048.096M2.744 3.004v.285M2.744 3.29l-.048.095M2.696 3.385l-.047.047M2.649 3.432l-.095.048M2.554 3.48h-.19M2.363 3.48l-.095-.048M3.601 3.48v-.524M3.601 2.956l-.047-.095M3.554 2.86l-.096-.047M3.458 2.813h-.19M3.268 2.813l-.095.048M3.601 3.432l-.095.048M3.506 3.48h-.238M3.268 3.48l-.095-.048M3.173 3.432l-.048-.095M3.125 3.337v-.095M3.125 3.242l.048-.095M3.173 3.147l.095-.048M3.268 3.099h.238M3.506 3.099l.095-.048M4.506 3.432l-.095.048M4.41 3.48h-.19M4.22 3.48l-.095-.048M4.125 3.432l-.048-.047M4.077 3.385l-.047-.096M4.03 3.29v-.286M4.03 3.004l.047-.096M4.077 2.908l.048-.047M4.125 2.86l.095-.047M4.22 2.813h.19M4.41 2.813l.096.048M4.935 3.48v-.667M4.935 2.48l-.048.047M4.887 2.527l.048.048M4.935 2.575l.047-.048M4.982 2.527l-.048-.047M4.935 2.48v.095M5.268 2.813h.38M5.41 2.48v.857M5.41 3.337l.048.095M5.458 3.432l.096.048M5.554 3.48h.095M6.125 3.48l-.095-.048M6.03 3.432l-.048-.047M5.982 3.385l-.048-.096M5.935 3.29v-.286M5.935 3.004l.047-.096M5.982 2.908l.048-.047M6.03 2.86l.095-.047M6.125 2.813h.143M6.268 2.813l.095.048M6.363 2.86l.048.048M6.41 2.908l.048.096M6.458 3.004v.285M6.458 3.29l-.047.095M6.41 3.385l-.047.047M6.363 3.432l-.095.048M6.268 3.48h-.143M6.887 3.48v-.667M6.887 3.004l.048-.096M6.935 2.908l.047-.047M6.982 2.86l.095-.047M7.077 2.813h.096M7.268 3.575h.762M8.22 3.432l.143.048M8.363 3.48h.238M8.601 3.48l.095-.048M8.696 3.432l.048-.047M8.744 3.385l.048-.096M8.792 3.29v-.096M8.792 3.194 8.744 3.1M8.744 3.099l-.048-.048M8.696 3.051l-.095-.047M8.601 3.004l-.19-.048M8.41 2.956l-.095-.048M8.316 2.908l-.048-.047M8.268 2.86l-.048-.095M8.22 2.766V2.67M8.22 2.67l.048-.095M8.268 2.575l.047-.048M8.316 2.527l.095-.047M8.41 2.48h.239M8.649 2.48l.143.047M9.22 3.48v-1M9.22 2.48l.334.714M9.554 3.194l.333-.714M9.887 2.48v1M10.363 3.48v-1M10.363 2.48h.238M10.601 2.48l.143.047M10.744 2.527l.095.096M10.84 2.623l.047.095M10.887 2.718l.047.19M10.935 2.908v.143M10.935 3.051l-.048.19M10.887 3.242l-.048.095M10.84 3.337l-.096.095M10.744 3.432l-.143.048M10.601 3.48h-.238M11.125 3.575h.762M12.649 3.48h-.572M12.363 3.48v-1M12.363 2.48l-.095.143M12.268 2.623l-.095.095M12.173 2.718l-.096.047M13.03 2.575l.047-.048M13.077 2.527l.096-.047M13.173 2.48h.238M13.41 2.48l.096.047M13.506 2.527l.048.048M13.554 2.575l.047.095M13.601 2.67v.095M13.601 2.766l-.047.142M13.554 2.908l-.572.572M12.982 3.48h.62M14.22 2.48h.095M14.316 2.48l.095.047M14.41 2.527l.048.048M14.458 2.575l.048.095M14.506 2.67l.048.19M14.554 2.86V3.1M14.554 3.099l-.048.19M14.506 3.29l-.048.095M14.458 3.385l-.047.047M14.41 3.432l-.095.048M14.316 3.48h-.096M14.22 3.48l-.095-.048M14.125 3.432l-.048-.047M14.077 3.385l-.047-.096M14.03 3.29l-.048-.191M13.982 3.099V2.86M13.982 2.86l.048-.19M14.03 2.67l.047-.095M14.077 2.575l.048-.048M14.125 2.527l.095-.047M15.41 2.48h-.19M15.22 2.48l-.095.047M15.125 2.527l-.048.048M15.077 2.575l-.095.143M14.982 2.718l-.047.19M14.935 2.908v.381M14.935 3.29l.047.095M14.982 3.385l.048.047M15.03 3.432l.095.048M15.125 3.48h.19M15.316 3.48l.095-.048M15.41 3.432l.048-.047M15.458 3.385l.048-.096M15.506 3.29V3.05M15.506 3.051l-.048-.095M15.458 2.956l-.047-.048M15.41 2.908l-.095-.047M15.316 2.86h-.191M15.125 2.86l-.095.048M15.03 2.908l-.048.048M14.982 2.956l-.047.095M15.696 3.575h.762M16.696 3.48v-.667M16.696 2.48l-.047.047M16.649 2.527l.047.048M16.696 2.575l.048-.048M16.744 2.527l-.048-.047M16.696 2.48v.095M17.173 2.813v.667M17.173 2.908l.047-.047M17.22 2.86l.096-.047M17.316 2.813h.142M17.458 2.813l.096.048M17.554 2.86l.047.096M17.601 2.956v.524M18.03 3.432l.143.048M18.173 3.48h.238M18.41 3.48l.096-.048M18.506 3.432l.048-.047M18.554 3.385l.047-.096M18.601 3.29v-.096M18.601 3.194l-.047-.095M18.554 3.099l-.048-.048M18.506 3.051l-.095-.047M18.41 3.004l-.19-.048M18.22 2.956l-.095-.048M18.125 2.908l-.048-.047M18.077 2.86l-.047-.095M18.03 2.766V2.67M18.03 2.67l.047-.095M18.077 2.575l.048-.048M18.125 2.527l.095-.047M18.22 2.48h.238M18.458 2.48l.143.047M19.03 3.48v-.667M19.03 2.48l-.048.047M18.982 2.527l.048.048M19.03 2.575l.047-.048M19.077 2.527l-.047-.047M19.03 2.48v.095M19.649 3.48l-.095-.048M19.554 3.432l-.048-.095M19.506 3.337V2.48M20.03 3.48v-1M20.125 3.099l.286.38M20.41 2.813l-.38.381"/>
    </g>
    <g class="stroked-text" style="fill:none;stroke:#afafaf;stroke-width:.12;stroke-opacity:1;stroke-linecap:round;stroke-linejoin:round">
        <path d="m9.296 1.539-.266-.381M8.84 1.539v-.8M8.84.739h.304M9.144.739l.076.038M9.22.777l.038.038M9.258.815l.038.076M9.296.891v.115M9.296 1.006l-.038.076M9.258 1.082l-.038.038M9.22 1.12l-.076.038M9.144 1.158h-.305M9.64 1.12h.266M10.02 1.539h-.38M9.64 1.539v-.8M9.64.739h.38M10.63 1.12h-.267M10.363 1.539v-.8M10.363.739h.381M11.163.739v.19M10.973.853l.19.076M11.163.93l.19-.077M11.049 1.082l.114-.153M11.163.93l.114.152M11.773.739v.19M11.582.853l.19.076M11.773.93l.19-.077M11.658 1.082l.115-.153M11.773.93l.114.152"/>
    </g>
    <g style="fill:none;stroke:#afafaf;stroke-width:.1;stroke-opacity:1;stroke-linecap:round;stroke-linejoin:round">
        <path d="M8.763.375h3.2M8.763 1.975v-1.6M11.963.375v1.6M11.963 1.975h-3.2"/>
    </g>
    <g style="fill:none;stroke:#afafaf;stroke-width:.05;stroke-opacity:1;stroke-linecap:round;stroke-linejoin:round">
        <g class="stroked-text">
            <path d="M9.076 1.004v.342M9.076 1.175h-.6M8.476 1.175l.085.057M8.561 1.232l.057.057M8.618 1.29l.029.056"/>
        </g>
        <path d="m8.138.525.02-.096.053-.08.081-.055.096-.019h.825l.096.019.08.054.055.081.02.096v1.3l-.02.096L9.39 2l-.081.055-.096.019h-.825l-.096-.019-.08-.054-.055-.081-.019-.096Z" style="stroke:#afafaf;stroke-width:.0212;stroke-opacity:1;stroke-linecap:round;stroke-linejoin:round;fill:none"/>
    </g>
    <g style="fill:none;stroke:#afafaf;stroke-width:.05;stroke-opacity:1;stroke-linecap:round;stroke-linejoin:round">
        <g class="stroked-text">
            <path d="m11.658 1.346-.029-.028M11.63 1.318l-.03-.057M11.6 1.26v-.142M11.6 1.118l.03-.057M11.63 1.06l.028-.028M11.658 1.032l.057-.028M11.715 1.004h.057M11.772 1.004l.086.028M11.858 1.032l.343.343M12.2 1.375v-.371"/>
        </g>
        <path d="m11.263.525.02-.096.053-.08.081-.055.096-.019h.825l.096.019.08.054.055.081.02.096v1.3l-.02.096-.054.08-.081.055-.096.019h-.825l-.096-.019-.08-.054-.055-.081-.019-.096Z" style="stroke:#afafaf;stroke-width:.0212;stroke-opacity:1;stroke-linecap:round;stroke-linejoin:round;fill:none"/>
    </g>
</svg>
