<?xml version="1.0" standalone="no"?>
 <!DOCTYPE svg PUBLIC "-//W3C//DTD SVG 1.1//EN" 
 "http://www.w3.org/Graphics/SVG/1.1/DTD/svg11.dtd"> 
<svg
  xmlns:svg="http://www.w3.org/2000/svg"
  xmlns="http://www.w3.org/2000/svg"
  xmlns:xlink="http://www.w3.org/1999/xlink"
  version="1.1"
  width="20.7010mm" height="3.8608mm" viewBox="0.0000 0.0000 20.7010 3.8608">
<title>SVG Image created as Capacitor_SMD_1206_inSilk.svg date 2025/05/12 02:45:49 </title>
  <desc>Image generated by PCBNEW </desc>
<g style="fill:#000000; fill-opacity:1.0000;stroke:#000000; stroke-opacity:1.0000;
stroke-linecap:round; stroke-linejoin:round;"
 transform="translate(0 0) scale(1 1)">
</g>
<g style="fill:none; 
stroke:#F2EDA1; stroke-width:0.1200; stroke-opacity:1; 
stroke-linecap:round; stroke-linejoin:round;">
<text x="10.3631" y="1.5750"
textLength="3.6286" font-size="1.0667" lengthAdjust="spacingAndGlyphs"
text-anchor="middle" opacity="0" stroke-opacity="0">REF**</text>
<g class="stroked-text"><desc>REF**</desc>
<path d="M9.2964 1.5389
L9.0298 1.1579
" />
<path d="M8.8393 1.5389
L8.8393 0.7389
" />
<path d="M8.8393 0.7389
L9.1440 0.7389
" />
<path d="M9.1440 0.7389
L9.2202 0.7770
" />
<path d="M9.2202 0.7770
L9.2583 0.8150
" />
<path d="M9.2583 0.8150
L9.2964 0.8912
" />
<path d="M9.2964 0.8912
L9.2964 1.0055
" />
<path d="M9.2964 1.0055
L9.2583 1.0817
" />
<path d="M9.2583 1.0817
L9.2202 1.1198
" />
<path d="M9.2202 1.1198
L9.1440 1.1579
" />
<path d="M9.1440 1.1579
L8.8393 1.1579
" />
<path d="M9.6393 1.1198
L9.9060 1.1198
" />
<path d="M10.0202 1.5389
L9.6393 1.5389
" />
<path d="M9.6393 1.5389
L9.6393 0.7389
" />
<path d="M9.6393 0.7389
L10.0202 0.7389
" />
<path d="M10.6298 1.1198
L10.3631 1.1198
" />
<path d="M10.3631 1.5389
L10.3631 0.7389
" />
<path d="M10.3631 0.7389
L10.7440 0.7389
" />
<path d="M11.1631 0.7389
L11.1631 0.9293
" />
<path d="M10.9726 0.8531
L11.1631 0.9293
" />
<path d="M11.1631 0.9293
L11.3536 0.8531
" />
<path d="M11.0488 1.0817
L11.1631 0.9293
" />
<path d="M11.1631 0.9293
L11.2774 1.0817
" />
<path d="M11.7726 0.7389
L11.7726 0.9293
" />
<path d="M11.5821 0.8531
L11.7726 0.9293
" />
<path d="M11.7726 0.9293
L11.9631 0.8531
" />
<path d="M11.6583 1.0817
L11.7726 0.9293
" />
<path d="M11.7726 0.9293
L11.8869 1.0817
" />
</g><path d="M9.6631 0.2750
L11.0631 0.2750
" />
<path d="M9.6631 2.0750
L11.0631 2.0750
" />
<path style="fill:#B4A09A; fill-opacity:0.9000; stroke:none;fill-rule:evenodd;"
d="M 8.1381,0.5250
8.1571,0.4293
8.2113,0.3482
8.2924,0.2940
8.3881,0.2750
9.2131,0.2750
9.3088,0.2940
9.3899,0.3482
9.4441,0.4293
9.4631,0.5250
9.4631,1.8250
9.4441,1.9207
9.3899,2.0018
9.3088,2.0560
9.2131,2.0750
8.3881,2.0750
8.2924,2.0560
8.2113,2.0018
8.1571,1.9207
8.1381,1.8250
Z" /> 
<path style="fill:#B4A09A; fill-opacity:0.9000; stroke:none;fill-rule:evenodd;"
d="M 11.2631,0.5250
11.2821,0.4293
11.3363,0.3482
11.4174,0.2940
11.5131,0.2750
12.3381,0.2750
12.4338,0.2940
12.5149,0.3482
12.5691,0.4293
12.5881,0.5250
12.5881,1.8250
12.5691,1.9207
12.5149,2.0018
12.4338,2.0560
12.3381,2.0750
11.5131,2.0750
11.4174,2.0560
11.3363,2.0018
11.2821,1.9207
11.2631,1.8250
Z" /> 
<path style="fill:#C83434; fill-opacity:1.0000; stroke:none;fill-rule:evenodd;"
d="M 8.1381,0.5250
8.1571,0.4293
8.2113,0.3482
8.2924,0.2940
8.3881,0.2750
9.2131,0.2750
9.3088,0.2940
9.3899,0.3482
9.4441,0.4293
9.4631,0.5250
9.4631,1.8250
9.4441,1.9207
9.3899,2.0018
9.3088,2.0560
9.2131,2.0750
8.3881,2.0750
8.2924,2.0560
8.2113,2.0018
8.1571,1.9207
8.1381,1.8250
Z" /> 
<path style="fill:#C83434; fill-opacity:1.0000; stroke:none;fill-rule:evenodd;"
d="M 11.2631,0.5250
11.2821,0.4293
11.3363,0.3482
11.4174,0.2940
11.5131,0.2750
12.3381,0.2750
12.4338,0.2940
12.5149,0.3482
12.5691,0.4293
12.5881,0.5250
12.5881,1.8250
12.5691,1.9207
12.5149,2.0018
12.4338,2.0560
12.3381,2.0750
11.5131,2.0750
11.4174,2.0560
11.3363,2.0018
11.2821,1.9207
11.2631,1.8250
Z" /> 
</g>
<g style="fill:none; 
stroke:#AFAFAF; stroke-width:0.1500; stroke-opacity:1; 
stroke-linecap:round; stroke-linejoin:round;">
<text x="10.3631" y="3.5250"
textLength="20.7262" font-size="1.3333" lengthAdjust="spacingAndGlyphs"
text-anchor="middle" opacity="0" stroke-opacity="0">Capacitor_SMD_1206_inSilk</text>
<g class="stroked-text"><desc>Capacitor_SMD_1206_inSilk</desc>
<path d="M0.9345 3.3846
L0.8869 3.4322
" />
<path d="M0.8869 3.4322
L0.7440 3.4798
" />
<path d="M0.7440 3.4798
L0.6488 3.4798
" />
<path d="M0.6488 3.4798
L0.5060 3.4322
" />
<path d="M0.5060 3.4322
L0.4107 3.3370
" />
<path d="M0.4107 3.3370
L0.3631 3.2417
" />
<path d="M0.3631 3.2417
L0.3155 3.0512
" />
<path d="M0.3155 3.0512
L0.3155 2.9084
" />
<path d="M0.3155 2.9084
L0.3631 2.7179
" />
<path d="M0.3631 2.7179
L0.4107 2.6227
" />
<path d="M0.4107 2.6227
L0.5060 2.5274
" />
<path d="M0.5060 2.5274
L0.6488 2.4798
" />
<path d="M0.6488 2.4798
L0.7440 2.4798
" />
<path d="M0.7440 2.4798
L0.8869 2.5274
" />
<path d="M0.8869 2.5274
L0.9345 2.5751
" />
<path d="M1.7917 3.4798
L1.7917 2.9560
" />
<path d="M1.7917 2.9560
L1.7440 2.8608
" />
<path d="M1.7440 2.8608
L1.6488 2.8132
" />
<path d="M1.6488 2.8132
L1.4583 2.8132
" />
<path d="M1.4583 2.8132
L1.3631 2.8608
" />
<path d="M1.7917 3.4322
L1.6964 3.4798
" />
<path d="M1.6964 3.4798
L1.4583 3.4798
" />
<path d="M1.4583 3.4798
L1.3631 3.4322
" />
<path d="M1.3631 3.4322
L1.3155 3.3370
" />
<path d="M1.3155 3.3370
L1.3155 3.2417
" />
<path d="M1.3155 3.2417
L1.3631 3.1465
" />
<path d="M1.3631 3.1465
L1.4583 3.0989
" />
<path d="M1.4583 3.0989
L1.6964 3.0989
" />
<path d="M1.6964 3.0989
L1.7917 3.0512
" />
<path d="M2.2679 2.8132
L2.2679 3.8132
" />
<path d="M2.2679 2.8608
L2.3631 2.8132
" />
<path d="M2.3631 2.8132
L2.5536 2.8132
" />
<path d="M2.5536 2.8132
L2.6488 2.8608
" />
<path d="M2.6488 2.8608
L2.6964 2.9084
" />
<path d="M2.6964 2.9084
L2.7440 3.0036
" />
<path d="M2.7440 3.0036
L2.7440 3.2893
" />
<path d="M2.7440 3.2893
L2.6964 3.3846
" />
<path d="M2.6964 3.3846
L2.6488 3.4322
" />
<path d="M2.6488 3.4322
L2.5536 3.4798
" />
<path d="M2.5536 3.4798
L2.3631 3.4798
" />
<path d="M2.3631 3.4798
L2.2679 3.4322
" />
<path d="M3.6012 3.4798
L3.6012 2.9560
" />
<path d="M3.6012 2.9560
L3.5536 2.8608
" />
<path d="M3.5536 2.8608
L3.4583 2.8132
" />
<path d="M3.4583 2.8132
L3.2679 2.8132
" />
<path d="M3.2679 2.8132
L3.1726 2.8608
" />
<path d="M3.6012 3.4322
L3.5060 3.4798
" />
<path d="M3.5060 3.4798
L3.2679 3.4798
" />
<path d="M3.2679 3.4798
L3.1726 3.4322
" />
<path d="M3.1726 3.4322
L3.1250 3.3370
" />
<path d="M3.1250 3.3370
L3.1250 3.2417
" />
<path d="M3.1250 3.2417
L3.1726 3.1465
" />
<path d="M3.1726 3.1465
L3.2679 3.0989
" />
<path d="M3.2679 3.0989
L3.5060 3.0989
" />
<path d="M3.5060 3.0989
L3.6012 3.0512
" />
<path d="M4.5060 3.4322
L4.4107 3.4798
" />
<path d="M4.4107 3.4798
L4.2202 3.4798
" />
<path d="M4.2202 3.4798
L4.1250 3.4322
" />
<path d="M4.1250 3.4322
L4.0774 3.3846
" />
<path d="M4.0774 3.3846
L4.0298 3.2893
" />
<path d="M4.0298 3.2893
L4.0298 3.0036
" />
<path d="M4.0298 3.0036
L4.0774 2.9084
" />
<path d="M4.0774 2.9084
L4.1250 2.8608
" />
<path d="M4.1250 2.8608
L4.2202 2.8132
" />
<path d="M4.2202 2.8132
L4.4107 2.8132
" />
<path d="M4.4107 2.8132
L4.5060 2.8608
" />
<path d="M4.9345 3.4798
L4.9345 2.8132
" />
<path d="M4.9345 2.4798
L4.8869 2.5274
" />
<path d="M4.8869 2.5274
L4.9345 2.5751
" />
<path d="M4.9345 2.5751
L4.9821 2.5274
" />
<path d="M4.9821 2.5274
L4.9345 2.4798
" />
<path d="M4.9345 2.4798
L4.9345 2.5751
" />
<path d="M5.2679 2.8132
L5.6488 2.8132
" />
<path d="M5.4107 2.4798
L5.4107 3.3370
" />
<path d="M5.4107 3.3370
L5.4583 3.4322
" />
<path d="M5.4583 3.4322
L5.5536 3.4798
" />
<path d="M5.5536 3.4798
L5.6488 3.4798
" />
<path d="M6.1250 3.4798
L6.0298 3.4322
" />
<path d="M6.0298 3.4322
L5.9821 3.3846
" />
<path d="M5.9821 3.3846
L5.9345 3.2893
" />
<path d="M5.9345 3.2893
L5.9345 3.0036
" />
<path d="M5.9345 3.0036
L5.9821 2.9084
" />
<path d="M5.9821 2.9084
L6.0298 2.8608
" />
<path d="M6.0298 2.8608
L6.1250 2.8132
" />
<path d="M6.1250 2.8132
L6.2679 2.8132
" />
<path d="M6.2679 2.8132
L6.3631 2.8608
" />
<path d="M6.3631 2.8608
L6.4107 2.9084
" />
<path d="M6.4107 2.9084
L6.4583 3.0036
" />
<path d="M6.4583 3.0036
L6.4583 3.2893
" />
<path d="M6.4583 3.2893
L6.4107 3.3846
" />
<path d="M6.4107 3.3846
L6.3631 3.4322
" />
<path d="M6.3631 3.4322
L6.2679 3.4798
" />
<path d="M6.2679 3.4798
L6.1250 3.4798
" />
<path d="M6.8869 3.4798
L6.8869 2.8132
" />
<path d="M6.8869 3.0036
L6.9345 2.9084
" />
<path d="M6.9345 2.9084
L6.9821 2.8608
" />
<path d="M6.9821 2.8608
L7.0774 2.8132
" />
<path d="M7.0774 2.8132
L7.1726 2.8132
" />
<path d="M7.2679 3.5751
L8.0298 3.5751
" />
<path d="M8.2202 3.4322
L8.3631 3.4798
" />
<path d="M8.3631 3.4798
L8.6012 3.4798
" />
<path d="M8.6012 3.4798
L8.6964 3.4322
" />
<path d="M8.6964 3.4322
L8.7440 3.3846
" />
<path d="M8.7440 3.3846
L8.7917 3.2893
" />
<path d="M8.7917 3.2893
L8.7917 3.1941
" />
<path d="M8.7917 3.1941
L8.7440 3.0989
" />
<path d="M8.7440 3.0989
L8.6964 3.0512
" />
<path d="M8.6964 3.0512
L8.6012 3.0036
" />
<path d="M8.6012 3.0036
L8.4107 2.9560
" />
<path d="M8.4107 2.9560
L8.3155 2.9084
" />
<path d="M8.3155 2.9084
L8.2679 2.8608
" />
<path d="M8.2679 2.8608
L8.2202 2.7655
" />
<path d="M8.2202 2.7655
L8.2202 2.6703
" />
<path d="M8.2202 2.6703
L8.2679 2.5751
" />
<path d="M8.2679 2.5751
L8.3155 2.5274
" />
<path d="M8.3155 2.5274
L8.4107 2.4798
" />
<path d="M8.4107 2.4798
L8.6488 2.4798
" />
<path d="M8.6488 2.4798
L8.7917 2.5274
" />
<path d="M9.2202 3.4798
L9.2202 2.4798
" />
<path d="M9.2202 2.4798
L9.5536 3.1941
" />
<path d="M9.5536 3.1941
L9.8869 2.4798
" />
<path d="M9.8869 2.4798
L9.8869 3.4798
" />
<path d="M10.3631 3.4798
L10.3631 2.4798
" />
<path d="M10.3631 2.4798
L10.6012 2.4798
" />
<path d="M10.6012 2.4798
L10.7440 2.5274
" />
<path d="M10.7440 2.5274
L10.8393 2.6227
" />
<path d="M10.8393 2.6227
L10.8869 2.7179
" />
<path d="M10.8869 2.7179
L10.9345 2.9084
" />
<path d="M10.9345 2.9084
L10.9345 3.0512
" />
<path d="M10.9345 3.0512
L10.8869 3.2417
" />
<path d="M10.8869 3.2417
L10.8393 3.3370
" />
<path d="M10.8393 3.3370
L10.7440 3.4322
" />
<path d="M10.7440 3.4322
L10.6012 3.4798
" />
<path d="M10.6012 3.4798
L10.3631 3.4798
" />
<path d="M11.1250 3.5751
L11.8869 3.5751
" />
<path d="M12.6488 3.4798
L12.0774 3.4798
" />
<path d="M12.3631 3.4798
L12.3631 2.4798
" />
<path d="M12.3631 2.4798
L12.2679 2.6227
" />
<path d="M12.2679 2.6227
L12.1726 2.7179
" />
<path d="M12.1726 2.7179
L12.0774 2.7655
" />
<path d="M13.0298 2.5751
L13.0774 2.5274
" />
<path d="M13.0774 2.5274
L13.1726 2.4798
" />
<path d="M13.1726 2.4798
L13.4107 2.4798
" />
<path d="M13.4107 2.4798
L13.5060 2.5274
" />
<path d="M13.5060 2.5274
L13.5536 2.5751
" />
<path d="M13.5536 2.5751
L13.6012 2.6703
" />
<path d="M13.6012 2.6703
L13.6012 2.7655
" />
<path d="M13.6012 2.7655
L13.5536 2.9084
" />
<path d="M13.5536 2.9084
L12.9821 3.4798
" />
<path d="M12.9821 3.4798
L13.6012 3.4798
" />
<path d="M14.2202 2.4798
L14.3155 2.4798
" />
<path d="M14.3155 2.4798
L14.4107 2.5274
" />
<path d="M14.4107 2.5274
L14.4583 2.5751
" />
<path d="M14.4583 2.5751
L14.5060 2.6703
" />
<path d="M14.5060 2.6703
L14.5536 2.8608
" />
<path d="M14.5536 2.8608
L14.5536 3.0989
" />
<path d="M14.5536 3.0989
L14.5060 3.2893
" />
<path d="M14.5060 3.2893
L14.4583 3.3846
" />
<path d="M14.4583 3.3846
L14.4107 3.4322
" />
<path d="M14.4107 3.4322
L14.3155 3.4798
" />
<path d="M14.3155 3.4798
L14.2202 3.4798
" />
<path d="M14.2202 3.4798
L14.1250 3.4322
" />
<path d="M14.1250 3.4322
L14.0774 3.3846
" />
<path d="M14.0774 3.3846
L14.0298 3.2893
" />
<path d="M14.0298 3.2893
L13.9821 3.0989
" />
<path d="M13.9821 3.0989
L13.9821 2.8608
" />
<path d="M13.9821 2.8608
L14.0298 2.6703
" />
<path d="M14.0298 2.6703
L14.0774 2.5751
" />
<path d="M14.0774 2.5751
L14.1250 2.5274
" />
<path d="M14.1250 2.5274
L14.2202 2.4798
" />
<path d="M15.4107 2.4798
L15.2202 2.4798
" />
<path d="M15.2202 2.4798
L15.1250 2.5274
" />
<path d="M15.1250 2.5274
L15.0774 2.5751
" />
<path d="M15.0774 2.5751
L14.9821 2.7179
" />
<path d="M14.9821 2.7179
L14.9345 2.9084
" />
<path d="M14.9345 2.9084
L14.9345 3.2893
" />
<path d="M14.9345 3.2893
L14.9821 3.3846
" />
<path d="M14.9821 3.3846
L15.0298 3.4322
" />
<path d="M15.0298 3.4322
L15.1250 3.4798
" />
<path d="M15.1250 3.4798
L15.3155 3.4798
" />
<path d="M15.3155 3.4798
L15.4107 3.4322
" />
<path d="M15.4107 3.4322
L15.4583 3.3846
" />
<path d="M15.4583 3.3846
L15.5060 3.2893
" />
<path d="M15.5060 3.2893
L15.5060 3.0512
" />
<path d="M15.5060 3.0512
L15.4583 2.9560
" />
<path d="M15.4583 2.9560
L15.4107 2.9084
" />
<path d="M15.4107 2.9084
L15.3155 2.8608
" />
<path d="M15.3155 2.8608
L15.1250 2.8608
" />
<path d="M15.1250 2.8608
L15.0298 2.9084
" />
<path d="M15.0298 2.9084
L14.9821 2.9560
" />
<path d="M14.9821 2.9560
L14.9345 3.0512
" />
<path d="M15.6964 3.5751
L16.4583 3.5751
" />
<path d="M16.6964 3.4798
L16.6964 2.8132
" />
<path d="M16.6964 2.4798
L16.6488 2.5274
" />
<path d="M16.6488 2.5274
L16.6964 2.5751
" />
<path d="M16.6964 2.5751
L16.7440 2.5274
" />
<path d="M16.7440 2.5274
L16.6964 2.4798
" />
<path d="M16.6964 2.4798
L16.6964 2.5751
" />
<path d="M17.1726 2.8132
L17.1726 3.4798
" />
<path d="M17.1726 2.9084
L17.2202 2.8608
" />
<path d="M17.2202 2.8608
L17.3155 2.8132
" />
<path d="M17.3155 2.8132
L17.4583 2.8132
" />
<path d="M17.4583 2.8132
L17.5536 2.8608
" />
<path d="M17.5536 2.8608
L17.6012 2.9560
" />
<path d="M17.6012 2.9560
L17.6012 3.4798
" />
<path d="M18.0298 3.4322
L18.1726 3.4798
" />
<path d="M18.1726 3.4798
L18.4107 3.4798
" />
<path d="M18.4107 3.4798
L18.5060 3.4322
" />
<path d="M18.5060 3.4322
L18.5536 3.3846
" />
<path d="M18.5536 3.3846
L18.6012 3.2893
" />
<path d="M18.6012 3.2893
L18.6012 3.1941
" />
<path d="M18.6012 3.1941
L18.5536 3.0989
" />
<path d="M18.5536 3.0989
L18.5060 3.0512
" />
<path d="M18.5060 3.0512
L18.4107 3.0036
" />
<path d="M18.4107 3.0036
L18.2202 2.9560
" />
<path d="M18.2202 2.9560
L18.1250 2.9084
" />
<path d="M18.1250 2.9084
L18.0774 2.8608
" />
<path d="M18.0774 2.8608
L18.0298 2.7655
" />
<path d="M18.0298 2.7655
L18.0298 2.6703
" />
<path d="M18.0298 2.6703
L18.0774 2.5751
" />
<path d="M18.0774 2.5751
L18.1250 2.5274
" />
<path d="M18.1250 2.5274
L18.2202 2.4798
" />
<path d="M18.2202 2.4798
L18.4583 2.4798
" />
<path d="M18.4583 2.4798
L18.6012 2.5274
" />
<path d="M19.0298 3.4798
L19.0298 2.8132
" />
<path d="M19.0298 2.4798
L18.9821 2.5274
" />
<path d="M18.9821 2.5274
L19.0298 2.5751
" />
<path d="M19.0298 2.5751
L19.0774 2.5274
" />
<path d="M19.0774 2.5274
L19.0298 2.4798
" />
<path d="M19.0298 2.4798
L19.0298 2.5751
" />
<path d="M19.6488 3.4798
L19.5536 3.4322
" />
<path d="M19.5536 3.4322
L19.5060 3.3370
" />
<path d="M19.5060 3.3370
L19.5060 2.4798
" />
<path d="M20.0298 3.4798
L20.0298 2.4798
" />
<path d="M20.1250 3.0989
L20.4107 3.4798
" />
<path d="M20.4107 2.8132
L20.0298 3.1941
" />
</g></g>
<g style="fill:none; 
stroke:#AFAFAF; stroke-width:0.1200; stroke-opacity:1; 
stroke-linecap:round; stroke-linejoin:round;">
<text x="10.3631" y="1.5750"
textLength="3.6286" font-size="1.0667" lengthAdjust="spacingAndGlyphs"
text-anchor="middle" opacity="0" stroke-opacity="0">REF**</text>
<g class="stroked-text"><desc>REF**</desc>
<path d="M9.2964 1.5389
L9.0298 1.1579
" />
<path d="M8.8393 1.5389
L8.8393 0.7389
" />
<path d="M8.8393 0.7389
L9.1440 0.7389
" />
<path d="M9.1440 0.7389
L9.2202 0.7770
" />
<path d="M9.2202 0.7770
L9.2583 0.8150
" />
<path d="M9.2583 0.8150
L9.2964 0.8912
" />
<path d="M9.2964 0.8912
L9.2964 1.0055
" />
<path d="M9.2964 1.0055
L9.2583 1.0817
" />
<path d="M9.2583 1.0817
L9.2202 1.1198
" />
<path d="M9.2202 1.1198
L9.1440 1.1579
" />
<path d="M9.1440 1.1579
L8.8393 1.1579
" />
<path d="M9.6393 1.1198
L9.9060 1.1198
" />
<path d="M10.0202 1.5389
L9.6393 1.5389
" />
<path d="M9.6393 1.5389
L9.6393 0.7389
" />
<path d="M9.6393 0.7389
L10.0202 0.7389
" />
<path d="M10.6298 1.1198
L10.3631 1.1198
" />
<path d="M10.3631 1.5389
L10.3631 0.7389
" />
<path d="M10.3631 0.7389
L10.7440 0.7389
" />
<path d="M11.1631 0.7389
L11.1631 0.9293
" />
<path d="M10.9726 0.8531
L11.1631 0.9293
" />
<path d="M11.1631 0.9293
L11.3536 0.8531
" />
<path d="M11.0488 1.0817
L11.1631 0.9293
" />
<path d="M11.1631 0.9293
L11.2774 1.0817
" />
<path d="M11.7726 0.7389
L11.7726 0.9293
" />
<path d="M11.5821 0.8531
L11.7726 0.9293
" />
<path d="M11.7726 0.9293
L11.9631 0.8531
" />
<path d="M11.6583 1.0817
L11.7726 0.9293
" />
<path d="M11.7726 0.9293
L11.8869 1.0817
" />
</g></g>
<g style="fill:none; 
stroke:#AFAFAF; stroke-width:0.1000; stroke-opacity:1; 
stroke-linecap:round; stroke-linejoin:round;">
<path d="M8.7631 0.3750
L11.9631 0.3750
" />
<path d="M8.7631 1.9750
L8.7631 0.3750
" />
<path d="M11.9631 0.3750
L11.9631 1.9750
" />
<path d="M11.9631 1.9750
L8.7631 1.9750
" />
</g>
<g style="fill:none; 
stroke:#AFAFAF; stroke-width:0.0500; stroke-opacity:1; 
stroke-linecap:round; stroke-linejoin:round;">
<g transform="rotate(-90.000000 8.8006 1.1750)">
<text x="8.8006" y="1.4750"
textLength="0.6014" font-size="0.8000" lengthAdjust="spacingAndGlyphs"
text-anchor="middle" opacity="0" stroke-opacity="0">1</text>
</g>
<g class="stroked-text"><desc>1</desc>
<path d="M9.0756 1.0036
L9.0756 1.3464
" />
<path d="M9.0756 1.1750
L8.4756 1.1750
" />
<path d="M8.4756 1.1750
L8.5613 1.2321
" />
<path d="M8.5613 1.2321
L8.6184 1.2893
" />
<path d="M8.6184 1.2893
L8.6470 1.3464
" />
</g><path style="fill:none; 
stroke:#AFAFAF; stroke-width:0.0212; stroke-opacity:1; 
stroke-linecap:round; stroke-linejoin:round;fill:none"
d="M 8.1381,0.5250
8.1571,0.4293
8.2113,0.3482
8.2924,0.2940
8.3881,0.2750
9.2131,0.2750
9.3088,0.2940
9.3899,0.3482
9.4441,0.4293
9.4631,0.5250
9.4631,1.8250
9.4441,1.9207
9.3899,2.0018
9.3088,2.0560
9.2131,2.0750
8.3881,2.0750
8.2924,2.0560
8.2113,2.0018
8.1571,1.9207
8.1381,1.8250
Z" /> 
</g>
<g style="fill:none; 
stroke:#AFAFAF; stroke-width:0.0500; stroke-opacity:1; 
stroke-linecap:round; stroke-linejoin:round;">
<g transform="rotate(-90.000000 11.9256 1.1750)">
<text x="11.9256" y="1.4750"
textLength="0.6014" font-size="0.8000" lengthAdjust="spacingAndGlyphs"
text-anchor="middle" opacity="0" stroke-opacity="0">2</text>
</g>
<g class="stroked-text"><desc>2</desc>
<path d="M11.6577 1.3464
L11.6291 1.3179
" />
<path d="M11.6291 1.3179
L11.6006 1.2607
" />
<path d="M11.6006 1.2607
L11.6006 1.1179
" />
<path d="M11.6006 1.1179
L11.6291 1.0607
" />
<path d="M11.6291 1.0607
L11.6577 1.0321
" />
<path d="M11.6577 1.0321
L11.7149 1.0036
" />
<path d="M11.7149 1.0036
L11.7720 1.0036
" />
<path d="M11.7720 1.0036
L11.8577 1.0321
" />
<path d="M11.8577 1.0321
L12.2006 1.3750
" />
<path d="M12.2006 1.3750
L12.2006 1.0036
" />
</g><path style="fill:none; 
stroke:#AFAFAF; stroke-width:0.0212; stroke-opacity:1; 
stroke-linecap:round; stroke-linejoin:round;fill:none"
d="M 11.2631,0.5250
11.2821,0.4293
11.3363,0.3482
11.4174,0.2940
11.5131,0.2750
12.3381,0.2750
12.4338,0.2940
12.5149,0.3482
12.5691,0.4293
12.5881,0.5250
12.5881,1.8250
12.5691,1.9207
12.5149,2.0018
12.4338,2.0560
12.3381,2.0750
11.5131,2.0750
11.4174,2.0560
11.3363,2.0018
11.2821,1.9207
11.2631,1.8250
Z" /> 
</g> 
</svg>
