<?xml version="1.0" standalone="no"?>
 <!DOCTYPE svg PUBLIC "-//W3C//DTD SVG 1.1//EN" 
 "http://www.w3.org/Graphics/SVG/1.1/DTD/svg11.dtd"> 
<svg
  xmlns:svg="http://www.w3.org/2000/svg"
  xmlns="http://www.w3.org/2000/svg"
  xmlns:xlink="http://www.w3.org/1999/xlink"
  version="1.1"
  width="36.3728mm" height="6.3754mm" viewBox="0.0000 0.0000 36.3728 6.3754">
<title>SVG Image created as Capacitor_SMD+THT_1206_5.0x2.5mm_P5.00mm.svg date 2025/04/12 02:50:50 </title>
  <desc>Image generated by PCBNEW </desc>
<g style="fill:#000000; fill-opacity:1.0000;stroke:#000000; stroke-opacity:1.0000;
stroke-linecap:round; stroke-linejoin:round;"
 transform="translate(0 0) scale(1 1)">
</g>
<g style="fill:none; 
stroke:#F2EDA1; stroke-width:0.1500; stroke-opacity:1; 
stroke-linecap:round; stroke-linejoin:round;">
<text x="18.1964" y="6.0482"
textLength="4.5357" font-size="1.3333" lengthAdjust="spacingAndGlyphs"
text-anchor="middle" opacity="0" stroke-opacity="0">REF**</text>
<g class="stroked-text"><desc>REF**</desc>
<path d="M16.8631 6.0031
L16.5298 5.5269
" />
<path d="M16.2917 6.0031
L16.2917 5.0031
" />
<path d="M16.2917 5.0031
L16.6726 5.0031
" />
<path d="M16.6726 5.0031
L16.7679 5.0507
" />
<path d="M16.7679 5.0507
L16.8155 5.0983
" />
<path d="M16.8155 5.0983
L16.8631 5.1935
" />
<path d="M16.8631 5.1935
L16.8631 5.3364
" />
<path d="M16.8631 5.3364
L16.8155 5.4316
" />
<path d="M16.8155 5.4316
L16.7679 5.4793
" />
<path d="M16.7679 5.4793
L16.6726 5.5269
" />
<path d="M16.6726 5.5269
L16.2917 5.5269
" />
<path d="M17.2917 5.4793
L17.6250 5.4793
" />
<path d="M17.7679 6.0031
L17.2917 6.0031
" />
<path d="M17.2917 6.0031
L17.2917 5.0031
" />
<path d="M17.2917 5.0031
L17.7679 5.0031
" />
<path d="M18.5298 5.4793
L18.1964 5.4793
" />
<path d="M18.1964 6.0031
L18.1964 5.0031
" />
<path d="M18.1964 5.0031
L18.6726 5.0031
" />
<path d="M19.1964 5.0031
L19.1964 5.2412
" />
<path d="M18.9583 5.1459
L19.1964 5.2412
" />
<path d="M19.1964 5.2412
L19.4345 5.1459
" />
<path d="M19.0536 5.4316
L19.1964 5.2412
" />
<path d="M19.1964 5.2412
L19.3393 5.4316
" />
<path d="M19.9583 5.0031
L19.9583 5.2412
" />
<path d="M19.7202 5.1459
L19.9583 5.2412
" />
<path d="M19.9583 5.2412
L20.1964 5.1459
" />
<path d="M19.8155 5.4316
L19.9583 5.2412
" />
<path d="M19.9583 5.2412
L20.1012 5.4316
" />
</g><text x="18.1964" y="3.6982"
textLength="1.2500" font-size="1.3333" lengthAdjust="spacingAndGlyphs"
text-anchor="middle" opacity="0" stroke-opacity="0">C</text>
<g class="stroked-text"><desc>C</desc>
<path d="M18.5060 3.5578
L18.4583 3.6054
" />
<path d="M18.4583 3.6054
L18.3155 3.6531
" />
<path d="M18.3155 3.6531
L18.2202 3.6531
" />
<path d="M18.2202 3.6531
L18.0774 3.6054
" />
<path d="M18.0774 3.6054
L17.9821 3.5102
" />
<path d="M17.9821 3.5102
L17.9345 3.4150
" />
<path d="M17.9345 3.4150
L17.8869 3.2245
" />
<path d="M17.8869 3.2245
L17.8869 3.0816
" />
<path d="M17.8869 3.0816
L17.9345 2.8912
" />
<path d="M17.9345 2.8912
L17.9821 2.7959
" />
<path d="M17.9821 2.7959
L18.0774 2.7007
" />
<path d="M18.0774 2.7007
L18.2202 2.6531
" />
<path d="M18.2202 2.6531
L18.3155 2.6531
" />
<path d="M18.3155 2.6531
L18.4583 2.7007
" />
<path d="M18.4583 2.7007
L18.5060 2.7483
" />
</g></g>
<g style="fill:none; 
stroke:#F2EDA1; stroke-width:0.1200; stroke-opacity:1; 
stroke-linecap:round; stroke-linejoin:round;">
<path d="M15.5264 1.8282
L15.5264 2.0782
" />
<path d="M15.5264 1.8282
L20.7664 1.8282
" />
<path d="M15.5264 4.3182
L15.5264 4.5682
" />
<path d="M15.5264 4.5682
L20.7664 4.5682
" />
<path d="M17.4964 2.2883
L18.8964 2.2883
" />
<path d="M17.4964 4.1082
L18.8964 4.1082
" />
<path d="M20.7664 1.8282
L20.7664 2.0782
" />
<path d="M20.7664 4.3182
L20.7664 4.5682
" />
<path style="fill:#B4A09A; fill-opacity:0.9000; stroke:none;fill-rule:evenodd;"
d="M 14.8964,2.4783
14.9101,2.4094
14.9491,2.3510
15.0075,2.3120
15.0764,2.2982
17.1164,2.2982
17.1853,2.3120
17.2437,2.3510
17.2827,2.4094
17.2964,2.4783
17.2964,3.9183
17.2827,3.9871
17.2437,4.0455
17.1853,4.0845
17.1164,4.0983
15.0764,4.0983
15.0075,4.0845
14.9491,4.0455
14.9101,3.9871
14.8964,3.9183
Z" /> 
<path style="fill:#B4A09A; fill-opacity:0.9000; stroke:none;fill-rule:evenodd;"
d="M 19.0964,2.4783
19.1101,2.4094
19.1491,2.3510
19.2075,2.3120
19.2764,2.2982
21.3164,2.2982
21.3853,2.3120
21.4437,2.3510
21.4827,2.4094
21.4964,2.4783
21.4964,3.9183
21.4827,3.9871
21.4437,4.0455
21.3853,4.0845
21.3164,4.0983
19.2764,4.0983
19.2075,4.0845
19.1491,4.0455
19.1101,3.9871
19.0964,3.9183
Z" /> 
</g>
<g style="fill:#C83434; fill-opacity:1.0000; stroke:none;">
<circle cx="15.6964" cy="3.1982" r="0.8000" /> 
<path style="fill:#C83434; fill-opacity:1.0000; stroke:none;fill-rule:evenodd;"
d="M 14.8964,2.4783
14.9101,2.4094
14.9491,2.3510
15.0075,2.3120
15.0764,2.2982
17.1164,2.2982
17.1853,2.3120
17.2437,2.3510
17.2827,2.4094
17.2964,2.4783
17.2964,3.9183
17.2827,3.9871
17.2437,4.0455
17.1853,4.0845
17.1164,4.0983
15.0764,4.0983
15.0075,4.0845
14.9491,4.0455
14.9101,3.9871
14.8964,3.9183
Z" /> 
</g>
<g style="fill:#C83434; fill-opacity:1.0000; stroke:none;">
<circle cx="20.6964" cy="3.1982" r="0.8000" /> 
<path style="fill:#C83434; fill-opacity:1.0000; stroke:none;fill-rule:evenodd;"
d="M 19.0964,2.4783
19.1101,2.4094
19.1491,2.3510
19.2075,2.3120
19.2764,2.2982
21.3164,2.2982
21.3853,2.3120
21.4437,2.3510
21.4827,2.4094
21.4964,2.4783
21.4964,3.9183
21.4827,3.9871
21.4437,4.0455
21.3853,4.0845
21.3164,4.0983
19.2764,4.0983
19.2075,4.0845
19.1491,4.0455
19.1101,3.9871
19.0964,3.9183
Z" /> 
</g>
<g style="fill:#4D7FC4; fill-opacity:1.0000; stroke:none;">
<circle cx="15.6964" cy="3.1982" r="0.8000" /> 
</g>
<g style="fill:#4D7FC4; fill-opacity:1.0000; stroke:none;">
<circle cx="20.6964" cy="3.1982" r="0.8000" /> 
</g>
<g style="fill:none; 
stroke:#AFAFAF; stroke-width:0.1500; stroke-opacity:1; 
stroke-linecap:round; stroke-linejoin:round;">
<text x="18.1964" y="1.3482"
textLength="36.3929" font-size="1.3333" lengthAdjust="spacingAndGlyphs"
text-anchor="middle" opacity="0" stroke-opacity="0">Capacitor_SMD+THT_1206_5.0x2.5mm_P5.00mm</text>
<g class="stroked-text"><desc>Capacitor_SMD+THT_1206_5.0x2.5mm_P5.00mm</desc>
<path d="M0.9345 1.2078
L0.8869 1.2554
" />
<path d="M0.8869 1.2554
L0.7440 1.3031
" />
<path d="M0.7440 1.3031
L0.6488 1.3031
" />
<path d="M0.6488 1.3031
L0.5060 1.2554
" />
<path d="M0.5060 1.2554
L0.4107 1.1602
" />
<path d="M0.4107 1.1602
L0.3631 1.0650
" />
<path d="M0.3631 1.0650
L0.3155 0.8745
" />
<path d="M0.3155 0.8745
L0.3155 0.7316
" />
<path d="M0.3155 0.7316
L0.3631 0.5412
" />
<path d="M0.3631 0.5412
L0.4107 0.4459
" />
<path d="M0.4107 0.4459
L0.5060 0.3507
" />
<path d="M0.5060 0.3507
L0.6488 0.3031
" />
<path d="M0.6488 0.3031
L0.7440 0.3031
" />
<path d="M0.7440 0.3031
L0.8869 0.3507
" />
<path d="M0.8869 0.3507
L0.9345 0.3983
" />
<path d="M1.7917 1.3031
L1.7917 0.7793
" />
<path d="M1.7917 0.7793
L1.7440 0.6840
" />
<path d="M1.7440 0.6840
L1.6488 0.6364
" />
<path d="M1.6488 0.6364
L1.4583 0.6364
" />
<path d="M1.4583 0.6364
L1.3631 0.6840
" />
<path d="M1.7917 1.2554
L1.6964 1.3031
" />
<path d="M1.6964 1.3031
L1.4583 1.3031
" />
<path d="M1.4583 1.3031
L1.3631 1.2554
" />
<path d="M1.3631 1.2554
L1.3155 1.1602
" />
<path d="M1.3155 1.1602
L1.3155 1.0650
" />
<path d="M1.3155 1.0650
L1.3631 0.9697
" />
<path d="M1.3631 0.9697
L1.4583 0.9221
" />
<path d="M1.4583 0.9221
L1.6964 0.9221
" />
<path d="M1.6964 0.9221
L1.7917 0.8745
" />
<path d="M2.2679 0.6364
L2.2679 1.6364
" />
<path d="M2.2679 0.6840
L2.3631 0.6364
" />
<path d="M2.3631 0.6364
L2.5536 0.6364
" />
<path d="M2.5536 0.6364
L2.6488 0.6840
" />
<path d="M2.6488 0.6840
L2.6964 0.7316
" />
<path d="M2.6964 0.7316
L2.7440 0.8269
" />
<path d="M2.7440 0.8269
L2.7440 1.1126
" />
<path d="M2.7440 1.1126
L2.6964 1.2078
" />
<path d="M2.6964 1.2078
L2.6488 1.2554
" />
<path d="M2.6488 1.2554
L2.5536 1.3031
" />
<path d="M2.5536 1.3031
L2.3631 1.3031
" />
<path d="M2.3631 1.3031
L2.2679 1.2554
" />
<path d="M3.6012 1.3031
L3.6012 0.7793
" />
<path d="M3.6012 0.7793
L3.5536 0.6840
" />
<path d="M3.5536 0.6840
L3.4583 0.6364
" />
<path d="M3.4583 0.6364
L3.2679 0.6364
" />
<path d="M3.2679 0.6364
L3.1726 0.6840
" />
<path d="M3.6012 1.2554
L3.5060 1.3031
" />
<path d="M3.5060 1.3031
L3.2679 1.3031
" />
<path d="M3.2679 1.3031
L3.1726 1.2554
" />
<path d="M3.1726 1.2554
L3.1250 1.1602
" />
<path d="M3.1250 1.1602
L3.1250 1.0650
" />
<path d="M3.1250 1.0650
L3.1726 0.9697
" />
<path d="M3.1726 0.9697
L3.2679 0.9221
" />
<path d="M3.2679 0.9221
L3.5060 0.9221
" />
<path d="M3.5060 0.9221
L3.6012 0.8745
" />
<path d="M4.5060 1.2554
L4.4107 1.3031
" />
<path d="M4.4107 1.3031
L4.2202 1.3031
" />
<path d="M4.2202 1.3031
L4.1250 1.2554
" />
<path d="M4.1250 1.2554
L4.0774 1.2078
" />
<path d="M4.0774 1.2078
L4.0298 1.1126
" />
<path d="M4.0298 1.1126
L4.0298 0.8269
" />
<path d="M4.0298 0.8269
L4.0774 0.7316
" />
<path d="M4.0774 0.7316
L4.1250 0.6840
" />
<path d="M4.1250 0.6840
L4.2202 0.6364
" />
<path d="M4.2202 0.6364
L4.4107 0.6364
" />
<path d="M4.4107 0.6364
L4.5060 0.6840
" />
<path d="M4.9345 1.3031
L4.9345 0.6364
" />
<path d="M4.9345 0.3031
L4.8869 0.3507
" />
<path d="M4.8869 0.3507
L4.9345 0.3983
" />
<path d="M4.9345 0.3983
L4.9821 0.3507
" />
<path d="M4.9821 0.3507
L4.9345 0.3031
" />
<path d="M4.9345 0.3031
L4.9345 0.3983
" />
<path d="M5.2679 0.6364
L5.6488 0.6364
" />
<path d="M5.4107 0.3031
L5.4107 1.1602
" />
<path d="M5.4107 1.1602
L5.4583 1.2554
" />
<path d="M5.4583 1.2554
L5.5536 1.3031
" />
<path d="M5.5536 1.3031
L5.6488 1.3031
" />
<path d="M6.1250 1.3031
L6.0298 1.2554
" />
<path d="M6.0298 1.2554
L5.9821 1.2078
" />
<path d="M5.9821 1.2078
L5.9345 1.1126
" />
<path d="M5.9345 1.1126
L5.9345 0.8269
" />
<path d="M5.9345 0.8269
L5.9821 0.7316
" />
<path d="M5.9821 0.7316
L6.0298 0.6840
" />
<path d="M6.0298 0.6840
L6.1250 0.6364
" />
<path d="M6.1250 0.6364
L6.2679 0.6364
" />
<path d="M6.2679 0.6364
L6.3631 0.6840
" />
<path d="M6.3631 0.6840
L6.4107 0.7316
" />
<path d="M6.4107 0.7316
L6.4583 0.8269
" />
<path d="M6.4583 0.8269
L6.4583 1.1126
" />
<path d="M6.4583 1.1126
L6.4107 1.2078
" />
<path d="M6.4107 1.2078
L6.3631 1.2554
" />
<path d="M6.3631 1.2554
L6.2679 1.3031
" />
<path d="M6.2679 1.3031
L6.1250 1.3031
" />
<path d="M6.8869 1.3031
L6.8869 0.6364
" />
<path d="M6.8869 0.8269
L6.9345 0.7316
" />
<path d="M6.9345 0.7316
L6.9821 0.6840
" />
<path d="M6.9821 0.6840
L7.0774 0.6364
" />
<path d="M7.0774 0.6364
L7.1726 0.6364
" />
<path d="M7.2679 1.3983
L8.0298 1.3983
" />
<path d="M8.2202 1.2554
L8.3631 1.3031
" />
<path d="M8.3631 1.3031
L8.6012 1.3031
" />
<path d="M8.6012 1.3031
L8.6964 1.2554
" />
<path d="M8.6964 1.2554
L8.7440 1.2078
" />
<path d="M8.7440 1.2078
L8.7917 1.1126
" />
<path d="M8.7917 1.1126
L8.7917 1.0174
" />
<path d="M8.7917 1.0174
L8.7440 0.9221
" />
<path d="M8.7440 0.9221
L8.6964 0.8745
" />
<path d="M8.6964 0.8745
L8.6012 0.8269
" />
<path d="M8.6012 0.8269
L8.4107 0.7793
" />
<path d="M8.4107 0.7793
L8.3155 0.7316
" />
<path d="M8.3155 0.7316
L8.2679 0.6840
" />
<path d="M8.2679 0.6840
L8.2202 0.5888
" />
<path d="M8.2202 0.5888
L8.2202 0.4935
" />
<path d="M8.2202 0.4935
L8.2679 0.3983
" />
<path d="M8.2679 0.3983
L8.3155 0.3507
" />
<path d="M8.3155 0.3507
L8.4107 0.3031
" />
<path d="M8.4107 0.3031
L8.6488 0.3031
" />
<path d="M8.6488 0.3031
L8.7917 0.3507
" />
<path d="M9.2202 1.3031
L9.2202 0.3031
" />
<path d="M9.2202 0.3031
L9.5536 1.0174
" />
<path d="M9.5536 1.0174
L9.8869 0.3031
" />
<path d="M9.8869 0.3031
L9.8869 1.3031
" />
<path d="M10.3631 1.3031
L10.3631 0.3031
" />
<path d="M10.3631 0.3031
L10.6012 0.3031
" />
<path d="M10.6012 0.3031
L10.7440 0.3507
" />
<path d="M10.7440 0.3507
L10.8393 0.4459
" />
<path d="M10.8393 0.4459
L10.8869 0.5412
" />
<path d="M10.8869 0.5412
L10.9345 0.7316
" />
<path d="M10.9345 0.7316
L10.9345 0.8745
" />
<path d="M10.9345 0.8745
L10.8869 1.0650
" />
<path d="M10.8869 1.0650
L10.8393 1.1602
" />
<path d="M10.8393 1.1602
L10.7440 1.2554
" />
<path d="M10.7440 1.2554
L10.6012 1.3031
" />
<path d="M10.6012 1.3031
L10.3631 1.3031
" />
<path d="M11.3631 0.9221
L12.1250 0.9221
" />
<path d="M11.7440 1.3031
L11.7440 0.5412
" />
<path d="M12.4583 0.3031
L13.0298 0.3031
" />
<path d="M12.7440 1.3031
L12.7440 0.3031
" />
<path d="M13.3631 1.3031
L13.3631 0.3031
" />
<path d="M13.3631 0.7793
L13.9345 0.7793
" />
<path d="M13.9345 1.3031
L13.9345 0.3031
" />
<path d="M14.2679 0.3031
L14.8393 0.3031
" />
<path d="M14.5536 1.3031
L14.5536 0.3031
" />
<path d="M14.9345 1.3983
L15.6964 1.3983
" />
<path d="M16.4583 1.3031
L15.8869 1.3031
" />
<path d="M16.1726 1.3031
L16.1726 0.3031
" />
<path d="M16.1726 0.3031
L16.0774 0.4459
" />
<path d="M16.0774 0.4459
L15.9821 0.5412
" />
<path d="M15.9821 0.5412
L15.8869 0.5888
" />
<path d="M16.8393 0.3983
L16.8869 0.3507
" />
<path d="M16.8869 0.3507
L16.9821 0.3031
" />
<path d="M16.9821 0.3031
L17.2202 0.3031
" />
<path d="M17.2202 0.3031
L17.3155 0.3507
" />
<path d="M17.3155 0.3507
L17.3631 0.3983
" />
<path d="M17.3631 0.3983
L17.4107 0.4935
" />
<path d="M17.4107 0.4935
L17.4107 0.5888
" />
<path d="M17.4107 0.5888
L17.3631 0.7316
" />
<path d="M17.3631 0.7316
L16.7917 1.3031
" />
<path d="M16.7917 1.3031
L17.4107 1.3031
" />
<path d="M18.0298 0.3031
L18.1250 0.3031
" />
<path d="M18.1250 0.3031
L18.2202 0.3507
" />
<path d="M18.2202 0.3507
L18.2679 0.3983
" />
<path d="M18.2679 0.3983
L18.3155 0.4935
" />
<path d="M18.3155 0.4935
L18.3631 0.6840
" />
<path d="M18.3631 0.6840
L18.3631 0.9221
" />
<path d="M18.3631 0.9221
L18.3155 1.1126
" />
<path d="M18.3155 1.1126
L18.2679 1.2078
" />
<path d="M18.2679 1.2078
L18.2202 1.2554
" />
<path d="M18.2202 1.2554
L18.1250 1.3031
" />
<path d="M18.1250 1.3031
L18.0298 1.3031
" />
<path d="M18.0298 1.3031
L17.9345 1.2554
" />
<path d="M17.9345 1.2554
L17.8869 1.2078
" />
<path d="M17.8869 1.2078
L17.8393 1.1126
" />
<path d="M17.8393 1.1126
L17.7917 0.9221
" />
<path d="M17.7917 0.9221
L17.7917 0.6840
" />
<path d="M17.7917 0.6840
L17.8393 0.4935
" />
<path d="M17.8393 0.4935
L17.8869 0.3983
" />
<path d="M17.8869 0.3983
L17.9345 0.3507
" />
<path d="M17.9345 0.3507
L18.0298 0.3031
" />
<path d="M19.2202 0.3031
L19.0298 0.3031
" />
<path d="M19.0298 0.3031
L18.9345 0.3507
" />
<path d="M18.9345 0.3507
L18.8869 0.3983
" />
<path d="M18.8869 0.3983
L18.7917 0.5412
" />
<path d="M18.7917 0.5412
L18.7440 0.7316
" />
<path d="M18.7440 0.7316
L18.7440 1.1126
" />
<path d="M18.7440 1.1126
L18.7917 1.2078
" />
<path d="M18.7917 1.2078
L18.8393 1.2554
" />
<path d="M18.8393 1.2554
L18.9345 1.3031
" />
<path d="M18.9345 1.3031
L19.1250 1.3031
" />
<path d="M19.1250 1.3031
L19.2202 1.2554
" />
<path d="M19.2202 1.2554
L19.2679 1.2078
" />
<path d="M19.2679 1.2078
L19.3155 1.1126
" />
<path d="M19.3155 1.1126
L19.3155 0.8745
" />
<path d="M19.3155 0.8745
L19.2679 0.7793
" />
<path d="M19.2679 0.7793
L19.2202 0.7316
" />
<path d="M19.2202 0.7316
L19.1250 0.6840
" />
<path d="M19.1250 0.6840
L18.9345 0.6840
" />
<path d="M18.9345 0.6840
L18.8393 0.7316
" />
<path d="M18.8393 0.7316
L18.7917 0.7793
" />
<path d="M18.7917 0.7793
L18.7440 0.8745
" />
<path d="M19.5060 1.3983
L20.2679 1.3983
" />
<path d="M20.9821 0.3031
L20.5060 0.3031
" />
<path d="M20.5060 0.3031
L20.4583 0.7793
" />
<path d="M20.4583 0.7793
L20.5060 0.7316
" />
<path d="M20.5060 0.7316
L20.6012 0.6840
" />
<path d="M20.6012 0.6840
L20.8393 0.6840
" />
<path d="M20.8393 0.6840
L20.9345 0.7316
" />
<path d="M20.9345 0.7316
L20.9821 0.7793
" />
<path d="M20.9821 0.7793
L21.0298 0.8745
" />
<path d="M21.0298 0.8745
L21.0298 1.1126
" />
<path d="M21.0298 1.1126
L20.9821 1.2078
" />
<path d="M20.9821 1.2078
L20.9345 1.2554
" />
<path d="M20.9345 1.2554
L20.8393 1.3031
" />
<path d="M20.8393 1.3031
L20.6012 1.3031
" />
<path d="M20.6012 1.3031
L20.5060 1.2554
" />
<path d="M20.5060 1.2554
L20.4583 1.2078
" />
<path d="M21.4583 1.2078
L21.5060 1.2554
" />
<path d="M21.5060 1.2554
L21.4583 1.3031
" />
<path d="M21.4583 1.3031
L21.4107 1.2554
" />
<path d="M21.4107 1.2554
L21.4583 1.2078
" />
<path d="M21.4583 1.2078
L21.4583 1.3031
" />
<path d="M22.1250 0.3031
L22.2202 0.3031
" />
<path d="M22.2202 0.3031
L22.3155 0.3507
" />
<path d="M22.3155 0.3507
L22.3631 0.3983
" />
<path d="M22.3631 0.3983
L22.4107 0.4935
" />
<path d="M22.4107 0.4935
L22.4583 0.6840
" />
<path d="M22.4583 0.6840
L22.4583 0.9221
" />
<path d="M22.4583 0.9221
L22.4107 1.1126
" />
<path d="M22.4107 1.1126
L22.3631 1.2078
" />
<path d="M22.3631 1.2078
L22.3155 1.2554
" />
<path d="M22.3155 1.2554
L22.2202 1.3031
" />
<path d="M22.2202 1.3031
L22.1250 1.3031
" />
<path d="M22.1250 1.3031
L22.0298 1.2554
" />
<path d="M22.0298 1.2554
L21.9821 1.2078
" />
<path d="M21.9821 1.2078
L21.9345 1.1126
" />
<path d="M21.9345 1.1126
L21.8869 0.9221
" />
<path d="M21.8869 0.9221
L21.8869 0.6840
" />
<path d="M21.8869 0.6840
L21.9345 0.4935
" />
<path d="M21.9345 0.4935
L21.9821 0.3983
" />
<path d="M21.9821 0.3983
L22.0298 0.3507
" />
<path d="M22.0298 0.3507
L22.1250 0.3031
" />
<path d="M22.7917 1.3031
L23.3155 0.6364
" />
<path d="M22.7917 0.6364
L23.3155 1.3031
" />
<path d="M23.6488 0.3983
L23.6964 0.3507
" />
<path d="M23.6964 0.3507
L23.7917 0.3031
" />
<path d="M23.7917 0.3031
L24.0298 0.3031
" />
<path d="M24.0298 0.3031
L24.1250 0.3507
" />
<path d="M24.1250 0.3507
L24.1726 0.3983
" />
<path d="M24.1726 0.3983
L24.2202 0.4935
" />
<path d="M24.2202 0.4935
L24.2202 0.5888
" />
<path d="M24.2202 0.5888
L24.1726 0.7316
" />
<path d="M24.1726 0.7316
L23.6012 1.3031
" />
<path d="M23.6012 1.3031
L24.2202 1.3031
" />
<path d="M24.6488 1.2078
L24.6964 1.2554
" />
<path d="M24.6964 1.2554
L24.6488 1.3031
" />
<path d="M24.6488 1.3031
L24.6012 1.2554
" />
<path d="M24.6012 1.2554
L24.6488 1.2078
" />
<path d="M24.6488 1.2078
L24.6488 1.3031
" />
<path d="M25.6012 0.3031
L25.1250 0.3031
" />
<path d="M25.1250 0.3031
L25.0774 0.7793
" />
<path d="M25.0774 0.7793
L25.1250 0.7316
" />
<path d="M25.1250 0.7316
L25.2202 0.6840
" />
<path d="M25.2202 0.6840
L25.4583 0.6840
" />
<path d="M25.4583 0.6840
L25.5536 0.7316
" />
<path d="M25.5536 0.7316
L25.6012 0.7793
" />
<path d="M25.6012 0.7793
L25.6488 0.8745
" />
<path d="M25.6488 0.8745
L25.6488 1.1126
" />
<path d="M25.6488 1.1126
L25.6012 1.2078
" />
<path d="M25.6012 1.2078
L25.5536 1.2554
" />
<path d="M25.5536 1.2554
L25.4583 1.3031
" />
<path d="M25.4583 1.3031
L25.2202 1.3031
" />
<path d="M25.2202 1.3031
L25.1250 1.2554
" />
<path d="M25.1250 1.2554
L25.0774 1.2078
" />
<path d="M26.0774 1.3031
L26.0774 0.6364
" />
<path d="M26.0774 0.7316
L26.1250 0.6840
" />
<path d="M26.1250 0.6840
L26.2202 0.6364
" />
<path d="M26.2202 0.6364
L26.3631 0.6364
" />
<path d="M26.3631 0.6364
L26.4583 0.6840
" />
<path d="M26.4583 0.6840
L26.5060 0.7793
" />
<path d="M26.5060 0.7793
L26.5060 1.3031
" />
<path d="M26.5060 0.7793
L26.5536 0.6840
" />
<path d="M26.5536 0.6840
L26.6488 0.6364
" />
<path d="M26.6488 0.6364
L26.7917 0.6364
" />
<path d="M26.7917 0.6364
L26.8869 0.6840
" />
<path d="M26.8869 0.6840
L26.9345 0.7793
" />
<path d="M26.9345 0.7793
L26.9345 1.3031
" />
<path d="M27.4107 1.3031
L27.4107 0.6364
" />
<path d="M27.4107 0.7316
L27.4583 0.6840
" />
<path d="M27.4583 0.6840
L27.5536 0.6364
" />
<path d="M27.5536 0.6364
L27.6964 0.6364
" />
<path d="M27.6964 0.6364
L27.7917 0.6840
" />
<path d="M27.7917 0.6840
L27.8393 0.7793
" />
<path d="M27.8393 0.7793
L27.8393 1.3031
" />
<path d="M27.8393 0.7793
L27.8869 0.6840
" />
<path d="M27.8869 0.6840
L27.9821 0.6364
" />
<path d="M27.9821 0.6364
L28.1250 0.6364
" />
<path d="M28.1250 0.6364
L28.2202 0.6840
" />
<path d="M28.2202 0.6840
L28.2679 0.7793
" />
<path d="M28.2679 0.7793
L28.2679 1.3031
" />
<path d="M28.5060 1.3983
L29.2679 1.3983
" />
<path d="M29.5060 1.3031
L29.5060 0.3031
" />
<path d="M29.5060 0.3031
L29.8869 0.3031
" />
<path d="M29.8869 0.3031
L29.9821 0.3507
" />
<path d="M29.9821 0.3507
L30.0298 0.3983
" />
<path d="M30.0298 0.3983
L30.0774 0.4935
" />
<path d="M30.0774 0.4935
L30.0774 0.6364
" />
<path d="M30.0774 0.6364
L30.0298 0.7316
" />
<path d="M30.0298 0.7316
L29.9821 0.7793
" />
<path d="M29.9821 0.7793
L29.8869 0.8269
" />
<path d="M29.8869 0.8269
L29.5060 0.8269
" />
<path d="M30.9821 0.3031
L30.5060 0.3031
" />
<path d="M30.5060 0.3031
L30.4583 0.7793
" />
<path d="M30.4583 0.7793
L30.5060 0.7316
" />
<path d="M30.5060 0.7316
L30.6012 0.6840
" />
<path d="M30.6012 0.6840
L30.8393 0.6840
" />
<path d="M30.8393 0.6840
L30.9345 0.7316
" />
<path d="M30.9345 0.7316
L30.9821 0.7793
" />
<path d="M30.9821 0.7793
L31.0298 0.8745
" />
<path d="M31.0298 0.8745
L31.0298 1.1126
" />
<path d="M31.0298 1.1126
L30.9821 1.2078
" />
<path d="M30.9821 1.2078
L30.9345 1.2554
" />
<path d="M30.9345 1.2554
L30.8393 1.3031
" />
<path d="M30.8393 1.3031
L30.6012 1.3031
" />
<path d="M30.6012 1.3031
L30.5060 1.2554
" />
<path d="M30.5060 1.2554
L30.4583 1.2078
" />
<path d="M31.4583 1.2078
L31.5060 1.2554
" />
<path d="M31.5060 1.2554
L31.4583 1.3031
" />
<path d="M31.4583 1.3031
L31.4107 1.2554
" />
<path d="M31.4107 1.2554
L31.4583 1.2078
" />
<path d="M31.4583 1.2078
L31.4583 1.3031
" />
<path d="M32.1250 0.3031
L32.2202 0.3031
" />
<path d="M32.2202 0.3031
L32.3155 0.3507
" />
<path d="M32.3155 0.3507
L32.3631 0.3983
" />
<path d="M32.3631 0.3983
L32.4107 0.4935
" />
<path d="M32.4107 0.4935
L32.4583 0.6840
" />
<path d="M32.4583 0.6840
L32.4583 0.9221
" />
<path d="M32.4583 0.9221
L32.4107 1.1126
" />
<path d="M32.4107 1.1126
L32.3631 1.2078
" />
<path d="M32.3631 1.2078
L32.3155 1.2554
" />
<path d="M32.3155 1.2554
L32.2202 1.3031
" />
<path d="M32.2202 1.3031
L32.1250 1.3031
" />
<path d="M32.1250 1.3031
L32.0298 1.2554
" />
<path d="M32.0298 1.2554
L31.9821 1.2078
" />
<path d="M31.9821 1.2078
L31.9345 1.1126
" />
<path d="M31.9345 1.1126
L31.8869 0.9221
" />
<path d="M31.8869 0.9221
L31.8869 0.6840
" />
<path d="M31.8869 0.6840
L31.9345 0.4935
" />
<path d="M31.9345 0.4935
L31.9821 0.3983
" />
<path d="M31.9821 0.3983
L32.0298 0.3507
" />
<path d="M32.0298 0.3507
L32.1250 0.3031
" />
<path d="M33.0774 0.3031
L33.1726 0.3031
" />
<path d="M33.1726 0.3031
L33.2679 0.3507
" />
<path d="M33.2679 0.3507
L33.3155 0.3983
" />
<path d="M33.3155 0.3983
L33.3631 0.4935
" />
<path d="M33.3631 0.4935
L33.4107 0.6840
" />
<path d="M33.4107 0.6840
L33.4107 0.9221
" />
<path d="M33.4107 0.9221
L33.3631 1.1126
" />
<path d="M33.3631 1.1126
L33.3155 1.2078
" />
<path d="M33.3155 1.2078
L33.2679 1.2554
" />
<path d="M33.2679 1.2554
L33.1726 1.3031
" />
<path d="M33.1726 1.3031
L33.0774 1.3031
" />
<path d="M33.0774 1.3031
L32.9821 1.2554
" />
<path d="M32.9821 1.2554
L32.9345 1.2078
" />
<path d="M32.9345 1.2078
L32.8869 1.1126
" />
<path d="M32.8869 1.1126
L32.8393 0.9221
" />
<path d="M32.8393 0.9221
L32.8393 0.6840
" />
<path d="M32.8393 0.6840
L32.8869 0.4935
" />
<path d="M32.8869 0.4935
L32.9345 0.3983
" />
<path d="M32.9345 0.3983
L32.9821 0.3507
" />
<path d="M32.9821 0.3507
L33.0774 0.3031
" />
<path d="M33.8393 1.3031
L33.8393 0.6364
" />
<path d="M33.8393 0.7316
L33.8869 0.6840
" />
<path d="M33.8869 0.6840
L33.9821 0.6364
" />
<path d="M33.9821 0.6364
L34.1250 0.6364
" />
<path d="M34.1250 0.6364
L34.2202 0.6840
" />
<path d="M34.2202 0.6840
L34.2679 0.7793
" />
<path d="M34.2679 0.7793
L34.2679 1.3031
" />
<path d="M34.2679 0.7793
L34.3155 0.6840
" />
<path d="M34.3155 0.6840
L34.4107 0.6364
" />
<path d="M34.4107 0.6364
L34.5536 0.6364
" />
<path d="M34.5536 0.6364
L34.6488 0.6840
" />
<path d="M34.6488 0.6840
L34.6964 0.7793
" />
<path d="M34.6964 0.7793
L34.6964 1.3031
" />
<path d="M35.1726 1.3031
L35.1726 0.6364
" />
<path d="M35.1726 0.7316
L35.2202 0.6840
" />
<path d="M35.2202 0.6840
L35.3155 0.6364
" />
<path d="M35.3155 0.6364
L35.4583 0.6364
" />
<path d="M35.4583 0.6364
L35.5536 0.6840
" />
<path d="M35.5536 0.6840
L35.6012 0.7793
" />
<path d="M35.6012 0.7793
L35.6012 1.3031
" />
<path d="M35.6012 0.7793
L35.6488 0.6840
" />
<path d="M35.6488 0.6840
L35.7440 0.6364
" />
<path d="M35.7440 0.6364
L35.8869 0.6364
" />
<path d="M35.8869 0.6364
L35.9821 0.6840
" />
<path d="M35.9821 0.6840
L36.0298 0.7793
" />
<path d="M36.0298 0.7793
L36.0298 1.3031
" />
</g><text x="18.1964" y="6.0482"
textLength="4.5357" font-size="1.3333" lengthAdjust="spacingAndGlyphs"
text-anchor="middle" opacity="0" stroke-opacity="0">REF**</text>
<g class="stroked-text"><desc>REF**</desc>
<path d="M16.8631 6.0031
L16.5298 5.5269
" />
<path d="M16.2917 6.0031
L16.2917 5.0031
" />
<path d="M16.2917 5.0031
L16.6726 5.0031
" />
<path d="M16.6726 5.0031
L16.7679 5.0507
" />
<path d="M16.7679 5.0507
L16.8155 5.0983
" />
<path d="M16.8155 5.0983
L16.8631 5.1935
" />
<path d="M16.8631 5.1935
L16.8631 5.3364
" />
<path d="M16.8631 5.3364
L16.8155 5.4316
" />
<path d="M16.8155 5.4316
L16.7679 5.4793
" />
<path d="M16.7679 5.4793
L16.6726 5.5269
" />
<path d="M16.6726 5.5269
L16.2917 5.5269
" />
<path d="M17.2917 5.4793
L17.6250 5.4793
" />
<path d="M17.7679 6.0031
L17.2917 6.0031
" />
<path d="M17.2917 6.0031
L17.2917 5.0031
" />
<path d="M17.2917 5.0031
L17.7679 5.0031
" />
<path d="M18.5298 5.4793
L18.1964 5.4793
" />
<path d="M18.1964 6.0031
L18.1964 5.0031
" />
<path d="M18.1964 5.0031
L18.6726 5.0031
" />
<path d="M19.1964 5.0031
L19.1964 5.2412
" />
<path d="M18.9583 5.1459
L19.1964 5.2412
" />
<path d="M19.1964 5.2412
L19.4345 5.1459
" />
<path d="M19.0536 5.4316
L19.1964 5.2412
" />
<path d="M19.1964 5.2412
L19.3393 5.4316
" />
<path d="M19.9583 5.0031
L19.9583 5.2412
" />
<path d="M19.7202 5.1459
L19.9583 5.2412
" />
<path d="M19.9583 5.2412
L20.1964 5.1459
" />
<path d="M19.8155 5.4316
L19.9583 5.2412
" />
<path d="M19.9583 5.2412
L20.1012 5.4316
" />
</g><path style="fill:none; 
stroke:#AFAFAF; stroke-width:0.1000; stroke-opacity:1; 
stroke-linecap:round; stroke-linejoin:round;fill:none"
d="M 15.6464,1.9482
20.6464,1.9482
20.6464,4.4482
15.6464,4.4482
Z" /> 
<path style="fill:none; 
stroke:#AFAFAF; stroke-width:0.1000; stroke-opacity:1; 
stroke-linecap:round; stroke-linejoin:round;fill:none"
d="M 16.5964,2.3982
19.7964,2.3982
19.7964,3.9982
16.5964,3.9982
Z" /> 
</g>
<g style="fill:none; 
stroke:#AFAFAF; stroke-width:0.0444; stroke-opacity:1; 
stroke-linecap:round; stroke-linejoin:round;">
<text x="15.6964" y="3.4649"
textLength="0.5346" font-size="0.7111" lengthAdjust="spacingAndGlyphs"
text-anchor="middle" opacity="0" stroke-opacity="0">1</text>
<g class="stroked-text"><desc>1</desc>
<path d="M15.8488 3.4427
L15.5440 3.4427
" />
<path d="M15.6964 3.4427
L15.6964 2.9093
" />
<path d="M15.6964 2.9093
L15.6456 2.9855
" />
<path d="M15.6456 2.9855
L15.5948 3.0363
" />
<path d="M15.5948 3.0363
L15.5440 3.0617
" />
</g></g>
<g style="fill:none; 
stroke:#AFAFAF; stroke-width:0.0212; stroke-opacity:1; 
stroke-linecap:round; stroke-linejoin:round;">
<circle cx="15.6964" cy="3.1982" r="0.8000" /> 
</g>
<g style="fill:none; 
stroke:#AFAFAF; stroke-width:0.0667; stroke-opacity:1; 
stroke-linecap:round; stroke-linejoin:round;">
<text x="16.0964" y="3.5982"
textLength="0.8019" font-size="1.0667" lengthAdjust="spacingAndGlyphs"
text-anchor="middle" opacity="0" stroke-opacity="0">1</text>
<g class="stroked-text"><desc>1</desc>
<path d="M16.3250 3.5649
L15.8679 3.5649
" />
<path d="M16.0964 3.5649
L16.0964 2.7649
" />
<path d="M16.0964 2.7649
L16.0202 2.8792
" />
<path d="M16.0202 2.8792
L15.9440 2.9554
" />
<path d="M15.9440 2.9554
L15.8679 2.9934
" />
</g><path style="fill:none; 
stroke:#AFAFAF; stroke-width:0.0212; stroke-opacity:1; 
stroke-linecap:round; stroke-linejoin:round;fill:none"
d="M 14.8964,2.4783
14.9101,2.4094
14.9491,2.3510
15.0075,2.3120
15.0764,2.2982
17.1164,2.2982
17.1853,2.3120
17.2437,2.3510
17.2827,2.4094
17.2964,2.4783
17.2964,3.9183
17.2827,3.9871
17.2437,4.0455
17.1853,4.0845
17.1164,4.0983
15.0764,4.0983
15.0075,4.0845
14.9491,4.0455
14.9101,3.9871
14.8964,3.9183
Z" /> 
</g>
<g style="fill:none; 
stroke:#AFAFAF; stroke-width:0.0444; stroke-opacity:1; 
stroke-linecap:round; stroke-linejoin:round;">
<text x="20.6964" y="3.4649"
textLength="0.5346" font-size="0.7111" lengthAdjust="spacingAndGlyphs"
text-anchor="middle" opacity="0" stroke-opacity="0">2</text>
<g class="stroked-text"><desc>2</desc>
<path d="M20.5440 2.9601
L20.5694 2.9347
" />
<path d="M20.5694 2.9347
L20.6202 2.9093
" />
<path d="M20.6202 2.9093
L20.7472 2.9093
" />
<path d="M20.7472 2.9093
L20.7980 2.9347
" />
<path d="M20.7980 2.9347
L20.8234 2.9601
" />
<path d="M20.8234 2.9601
L20.8488 3.0109
" />
<path d="M20.8488 3.0109
L20.8488 3.0617
" />
<path d="M20.8488 3.0617
L20.8234 3.1379
" />
<path d="M20.8234 3.1379
L20.5186 3.4427
" />
<path d="M20.5186 3.4427
L20.8488 3.4427
" />
</g></g>
<g style="fill:none; 
stroke:#AFAFAF; stroke-width:0.0212; stroke-opacity:1; 
stroke-linecap:round; stroke-linejoin:round;">
<circle cx="20.6964" cy="3.1982" r="0.8000" /> 
</g>
<g style="fill:none; 
stroke:#AFAFAF; stroke-width:0.0667; stroke-opacity:1; 
stroke-linecap:round; stroke-linejoin:round;">
<text x="20.2964" y="3.5982"
textLength="0.8019" font-size="1.0667" lengthAdjust="spacingAndGlyphs"
text-anchor="middle" opacity="0" stroke-opacity="0">2</text>
<g class="stroked-text"><desc>2</desc>
<path d="M20.0679 2.8411
L20.1060 2.8030
" />
<path d="M20.1060 2.8030
L20.1821 2.7649
" />
<path d="M20.1821 2.7649
L20.3726 2.7649
" />
<path d="M20.3726 2.7649
L20.4488 2.8030
" />
<path d="M20.4488 2.8030
L20.4869 2.8411
" />
<path d="M20.4869 2.8411
L20.5250 2.9173
" />
<path d="M20.5250 2.9173
L20.5250 2.9934
" />
<path d="M20.5250 2.9934
L20.4869 3.1077
" />
<path d="M20.4869 3.1077
L20.0298 3.5649
" />
<path d="M20.0298 3.5649
L20.5250 3.5649
" />
</g><path style="fill:none; 
stroke:#AFAFAF; stroke-width:0.0212; stroke-opacity:1; 
stroke-linecap:round; stroke-linejoin:round;fill:none"
d="M 19.0964,2.4783
19.1101,2.4094
19.1491,2.3510
19.2075,2.3120
19.2764,2.2982
21.3164,2.2982
21.3853,2.3120
21.4437,2.3510
21.4827,2.4094
21.4964,2.4783
21.4964,3.9183
21.4827,3.9871
21.4437,4.0455
21.3853,4.0845
21.3164,4.0983
19.2764,4.0983
19.2075,4.0845
19.1491,4.0455
19.1101,3.9871
19.0964,3.9183
Z" /> 
</g>
<g style="fill:none; 
stroke:#585D84; stroke-width:0.0444; stroke-opacity:1; 
stroke-linecap:round; stroke-linejoin:round;">
<text x="15.6964" y="3.4649"
textLength="0.5346" font-size="0.7111" lengthAdjust="spacingAndGlyphs"
text-anchor="middle" opacity="0" stroke-opacity="0">1</text>
<g class="stroked-text"><desc>1</desc>
<path d="M15.8488 3.4427
L15.5440 3.4427
" />
<path d="M15.6964 3.4427
L15.6964 2.9093
" />
<path d="M15.6964 2.9093
L15.6456 2.9855
" />
<path d="M15.6456 2.9855
L15.5948 3.0363
" />
<path d="M15.5948 3.0363
L15.5440 3.0617
" />
</g></g>
<g style="fill:none; 
stroke:#585D84; stroke-width:0.0212; stroke-opacity:1; 
stroke-linecap:round; stroke-linejoin:round;">
<circle cx="15.6964" cy="3.1982" r="0.8000" /> 
</g>
<g style="fill:none; 
stroke:#585D84; stroke-width:0.0444; stroke-opacity:1; 
stroke-linecap:round; stroke-linejoin:round;">
<text x="20.6964" y="3.4649"
textLength="0.5346" font-size="0.7111" lengthAdjust="spacingAndGlyphs"
text-anchor="middle" opacity="0" stroke-opacity="0">2</text>
<g class="stroked-text"><desc>2</desc>
<path d="M20.5440 2.9601
L20.5694 2.9347
" />
<path d="M20.5694 2.9347
L20.6202 2.9093
" />
<path d="M20.6202 2.9093
L20.7472 2.9093
" />
<path d="M20.7472 2.9093
L20.7980 2.9347
" />
<path d="M20.7980 2.9347
L20.8234 2.9601
" />
<path d="M20.8234 2.9601
L20.8488 3.0109
" />
<path d="M20.8488 3.0109
L20.8488 3.0617
" />
<path d="M20.8488 3.0617
L20.8234 3.1379
" />
<path d="M20.8234 3.1379
L20.5186 3.4427
" />
<path d="M20.5186 3.4427
L20.8488 3.4427
" />
</g></g>
<g style="fill:none; 
stroke:#585D84; stroke-width:0.0212; stroke-opacity:1; 
stroke-linecap:round; stroke-linejoin:round;">
<circle cx="20.6964" cy="3.1982" r="0.8000" /> 
</g> 
</svg>
