<svg xmlns="http://www.w3.org/2000/svg" width="79.392" height="21.888" viewBox="0 0 21.006 5.791">
    <g style="fill:none;stroke:#f2eda1;stroke-width:.12;stroke-opacity:1;stroke-linecap:round;stroke-linejoin:round">
        <g class="stroked-text">
            <path d="m9.44 3.212-.267-.38M8.982 3.212v-.8M8.982 2.412h.305M9.287 2.412l.076.038M9.363 2.45l.038.038M9.401 2.488l.038.076M9.44 2.565v.114M9.44 2.679l-.039.076M9.401 2.755l-.038.038M9.363 2.793l-.076.038M9.287 2.831h-.305M9.782 2.793h.267M10.163 3.212h-.38M9.782 3.212v-.8M9.782 2.412h.381M10.773 2.793h-.267M10.506 3.212v-.8M10.506 2.412h.38M11.306 2.412v.19M11.116 2.526l.19.077M11.306 2.603l.19-.077M11.192 2.755l.114-.152M11.306 2.603l.114.152M11.916 2.412v.19M11.725 2.526l.19.077M11.916 2.603l.19-.077M11.801 2.755l.114-.152M11.916 2.603l.114.152"/>
        </g>
        <path d="M8.146 1.848v2M8.146 1.848h4.01M8.146 3.848h4.01"/>
        <path stroke="none" d="m8.406 2.473.017-.086.049-.073.073-.049.086-.017h.45l.086.017.073.05.049.072.017.086v.75l-.017.086-.049.073-.073.05-.086.016h-.45l-.086-.017-.073-.049-.049-.073-.017-.086ZM11.706 2.473l.017-.086.049-.073.073-.049.086-.017h.45l.086.017.073.05.049.072.017.086v.75l-.017.086-.049.073-.073.05-.086.016h-.45l-.086-.017-.073-.049-.049-.073-.017-.086Z" style="fill:#b4a09a;fill-opacity:.9;stroke:none;fill-rule:evenodd"/>
        <path stroke="none" d="m8.406 2.473.017-.086.049-.073.073-.049.086-.017h.45l.086.017.073.05.049.072.017.086v.75l-.017.086-.049.073-.073.05-.086.016h-.45l-.086-.017-.073-.049-.049-.073-.017-.086ZM11.706 2.473l.017-.086.049-.073.073-.049.086-.017h.45l.086.017.073.05.049.072.017.086v.75l-.017.086-.049.073-.073.05-.086.016h-.45l-.086-.017-.073-.049-.049-.073-.017-.086Z" style="fill:#c83434;fill-opacity:1;stroke:none;fill-rule:evenodd"/>
    </g>
    <g style="fill:none;stroke:#afafaf;stroke-width:.15;stroke-opacity:1;stroke-linecap:round;stroke-linejoin:round">
        <g class="stroked-text">
            <path d="M.363 5.403v-1M.363 4.403h.238M.601 4.403l.143.048M.744 4.45l.095.096M.84 4.546l.047.095M.887 4.641l.047.19M.935 4.832v.143M.935 4.975l-.048.19M.887 5.165l-.048.095M.84 5.26l-.096.095M.744 5.355l-.143.048M.601 5.403H.363M1.363 5.403v-.667M1.363 4.403l-.048.048M1.316 4.45l.047.048M1.363 4.498l.048-.047M1.41 4.45l-.047-.047M1.363 4.403v.095M1.982 5.403l-.095-.048M1.887 5.355l-.048-.047M1.84 5.308l-.048-.095M1.792 5.213v-.286M1.792 4.927l.047-.095M1.84 4.832l.047-.048M1.887 4.784l.095-.048M1.982 4.736h.143M2.125 4.736l.095.048M2.22 4.784l.048.048M2.268 4.832l.048.095M2.316 4.927v.286M2.316 5.213l-.048.095M2.268 5.308l-.048.047M2.22 5.355l-.095.048M2.125 5.403h-.143M3.173 5.403v-1M3.173 5.355l-.096.048M3.077 5.403h-.19M2.887 5.403l-.095-.048M2.792 5.355l-.048-.047M2.744 5.308l-.048-.095M2.696 5.213v-.286M2.696 4.927l.048-.095M2.744 4.832l.048-.048M2.792 4.784l.095-.048M2.887 4.736h.19M3.077 4.736l.096.048M4.03 5.355l-.096.048M3.935 5.403h-.191M3.744 5.403l-.095-.048M3.649 5.355 3.6 5.26M3.601 5.26v-.38M3.601 4.88l.048-.096M3.649 4.784l.095-.048M3.744 4.736h.19M3.935 4.736l.095.048M4.03 4.784l.047.095M4.077 4.88v.095M4.077 4.975l-.476.095M4.268 5.498h.762M5.22 5.355l.143.048M5.363 5.403h.238M5.601 5.403l.095-.048M5.696 5.355l.048-.047M5.744 5.308l.048-.095M5.792 5.213v-.096M5.792 5.117l-.048-.095M5.744 5.022l-.048-.048M5.696 4.975l-.095-.048M5.601 4.927l-.19-.048M5.41 4.88l-.095-.048M5.316 4.832l-.048-.048M5.268 4.784l-.048-.095M5.22 4.689v-.096M5.22 4.594l.048-.096M5.268 4.498l.048-.047M5.316 4.45l.095-.047M5.41 4.403h.239M5.649 4.403l.143.048M6.22 5.403v-1M6.22 4.403l.334.714M6.554 5.117l.333-.714M6.887 4.403v1M7.363 5.403v-1M7.363 4.403h.238M7.601 4.403l.143.048M7.744 4.45l.095.096M7.84 4.546l.047.095M7.887 4.641l.048.19M7.935 4.832v.143M7.935 4.975l-.048.19M7.887 5.165l-.048.095M7.84 5.26l-.096.095M7.744 5.355l-.143.048M7.601 5.403h-.238M8.125 5.498h.762M9.077 5.355l.143.048M9.22 5.403h.238M9.458 5.403l.096-.048M9.554 5.355l.047-.047M9.601 5.308l.048-.095M9.649 5.213v-.096M9.649 5.117 9.6 5.022M9.601 5.022l-.047-.048M9.554 4.975l-.096-.048M9.458 4.927l-.19-.048M9.268 4.88l-.095-.048M9.173 4.832l-.048-.048M9.125 4.784l-.048-.095M9.077 4.689v-.096M9.077 4.594l.048-.096M9.125 4.498l.048-.047M9.173 4.45l.095-.047M9.268 4.403h.238M9.506 4.403l.143.048M10.268 4.403h.19M10.458 4.403l.096.048M10.554 4.45l.095.096M10.649 4.546l.047.19M10.696 4.736v.334M10.696 5.07l-.047.19M10.649 5.26l-.095.095M10.554 5.355l-.096.048M10.458 5.403h-.19M10.268 5.403l-.095-.048M10.173 5.355l-.096-.095M10.077 5.26l-.047-.19M10.03 5.07v-.334M10.03 4.736l.047-.19M10.077 4.546l.096-.095M10.173 4.45l.095-.047M11.125 5.403v-1M11.125 4.403h.238M11.363 4.403l.143.048M11.506 4.45l.095.096M11.601 4.546l.048.095M11.649 4.641l.047.19M11.696 4.832v.143M11.696 4.975l-.047.19M11.649 5.165l-.048.095M11.601 5.26l-.095.095M11.506 5.355l-.143.048M11.363 5.403h-.238M12.125 5.022h.762M13.887 5.403h-.572M13.601 5.403v-1M13.601 4.403l-.095.143M13.506 4.546l-.095.095M13.41 4.641l-.095.048M14.268 4.498l.047-.047M14.316 4.45l.095-.047M14.41 4.403h.239M14.649 4.403l.095.048M14.744 4.45l.048.048M14.792 4.498l.047.095M14.84 4.594v.095M14.84 4.689l-.048.143M14.792 4.832l-.572.571M14.22 5.403h.62M15.173 4.403h.619M15.792 4.403l-.334.381M15.458 4.784h.143M15.601 4.784l.095.048M15.696 4.832l.048.047M15.744 4.88l.048.095M15.792 4.975v.238M15.792 5.213l-.048.095M15.744 5.308l-.048.047M15.696 5.355l-.095.048M15.601 5.403h-.286M15.316 5.403l-.096-.048M15.22 5.355l-.047-.047M15.982 5.498h.762M16.982 5.403v-.667M16.982 4.403l-.047.048M16.935 4.45l.047.048M16.982 4.498l.048-.047M17.03 4.45l-.048-.047M16.982 4.403v.095M17.458 4.736v.667M17.458 4.832l.048-.048M17.506 4.784l.095-.048M17.601 4.736h.143M17.744 4.736l.095.048M17.84 4.784l.047.095M17.887 4.88v.523M18.316 5.355l.142.048M18.458 5.403h.238M18.696 5.403l.096-.048M18.792 5.355l.047-.047M18.84 5.308l.047-.095M18.887 5.213v-.096M18.887 5.117l-.048-.095M18.84 5.022l-.048-.048M18.792 4.975l-.096-.048M18.696 4.927l-.19-.048M18.506 4.88l-.095-.048M18.41 4.832l-.047-.048M18.363 4.784l-.047-.095M18.316 4.689v-.096M18.316 4.594l.047-.096M18.363 4.498l.048-.047M18.41 4.45l.096-.047M18.506 4.403h.238M18.744 4.403l.143.048M19.316 5.403v-.667M19.316 4.403l-.048.048M19.268 4.45l.047.048M19.316 4.498l.047-.047M19.363 4.45l-.047-.047M19.316 4.403v.095M19.935 5.403l-.096-.048M19.84 5.355l-.048-.095M19.792 5.26v-.857M20.316 5.403v-1M20.41 5.022l.286.381M20.696 4.736l-.38.381"/>
        </g>
        <g class="stroked-text">
            <path d="M9.173 1.303 8.839.827M8.601 1.303v-1M8.601.303h.381M8.982.303l.095.048M9.077.35l.048.048M9.125.398l.048.095M9.173.494v.142M9.173.636l-.048.096M9.125.732l-.048.047M9.077.78l-.095.047M8.982.827h-.38M9.601.78h.333M10.077 1.303h-.476M9.601 1.303v-1M9.601.303h.476M10.84.78h-.334M10.506 1.303v-1M10.506.303h.476M11.506.303v.238M11.268.446l.238.095M11.506.541l.238-.095M11.363.732l.143-.19M11.506.541l.143.19M12.268.303v.238M12.03.446l.238.095M12.268.541l.238-.095M12.125.732l.143-.19M12.268.541l.143.19"/>
        </g>
    </g>
    <g style="fill:none;stroke:#afafaf;stroke-width:.1;stroke-opacity:1;stroke-linecap:round;stroke-linejoin:round">
        <path d="M9.106 1.948h2.8M9.106 3.748v-1.8M9.756 2.848h.4M10.156 2.848v-.55M10.156 2.848v.55M10.156 2.848l.6-.4M10.756 2.448v.8M10.756 2.848h.5M10.756 3.248l-.6-.4M11.906 1.948v1.8M11.906 3.748h-2.8"/>
    </g>
    <g style="fill:none;stroke:#afafaf;stroke-width:.0333;stroke-opacity:1;stroke-linecap:round;stroke-linejoin:round">
        <g class="stroked-text">
            <path d="M9.04 2.734v.228M9.04 2.848h-.4M8.64 2.848l.056.038M8.696 2.886l.039.038M8.735 2.924l.019.038"/>
        </g>
        <path d="m8.406 2.473.017-.086.049-.073.073-.049.086-.017h.45l.086.017.073.05.049.072.017.086v.75l-.017.086-.049.073-.073.05-.086.016h-.45l-.086-.017-.073-.049-.049-.073-.017-.086Z" style="stroke:#afafaf;stroke-width:.0212;stroke-opacity:1;stroke-linecap:round;stroke-linejoin:round;fill:none"/>
    </g>
    <g style="fill:none;stroke:#afafaf;stroke-width:.0333;stroke-opacity:1;stroke-linecap:round;stroke-linejoin:round">
        <g class="stroked-text">
            <path d="m11.977 2.963-.019-.02M11.958 2.944l-.019-.039M11.94 2.905V2.81M11.94 2.81l.018-.038M11.958 2.772l.02-.019M11.977 2.753l.038-.019M12.016 2.734h.038M12.054 2.734l.057.019M12.11 2.753l.23.229M12.34 2.982v-.248"/>
        </g>
        <path d="m11.706 2.473.017-.086.049-.073.073-.049.086-.017h.45l.086.017.073.05.049.072.017.086v.75l-.017.086-.049.073-.073.05-.086.016h-.45l-.086-.017-.073-.049-.049-.073-.017-.086Z" style="stroke:#afafaf;stroke-width:.0212;stroke-opacity:1;stroke-linecap:round;stroke-linejoin:round;fill:none"/>
    </g>
</svg>
