<svg xmlns="http://www.w3.org/2000/svg" width="114.144" height="22.656" viewBox="0 0 30.201 5.994">
    <g class="stroked-text" style="fill:none;stroke:#f2eda1;stroke-width:.15;stroke-opacity:1;stroke-linecap:round;stroke-linejoin:round">
        <path d="m13.768 5.603-.334-.476M13.196 5.603v-1M13.196 4.603h.381M13.577 4.603l.096.048M13.673 4.65l.047.048M13.72 4.698l.048.095M13.768 4.794v.142M13.768 4.936l-.048.096M13.72 5.032l-.047.047M13.673 5.08l-.096.047M13.577 5.127h-.38M14.196 5.08h.334M14.673 5.603h-.477M14.196 5.603v-1M14.196 4.603h.477M15.435 5.08H15.1M15.101 5.603v-1M15.101 4.603h.476M16.101 4.603v.238M15.863 4.746l.238.095M16.101 4.841l.238-.095M15.958 5.032l.143-.19M16.101 4.841l.143.19M16.863 4.603v.238M16.625 4.746l.238.095M16.863 4.841l.238-.095M16.72 5.032l.143-.19M16.863 4.841l.143.19"/>
    </g>
    <g style="fill:none;stroke:#f2eda1;stroke-width:.12;stroke-opacity:1;stroke-linecap:round;stroke-linejoin:round">
        <path d="M13.701 1.998h2.8M13.701 3.998h2.8"/>
    </g>
    <g style="fill:none;stroke:#f2eda1;stroke-width:.15;stroke-opacity:1;stroke-linecap:round;stroke-linejoin:round">
        <path d="m14.651 2.998.9.7M14.651 3.698v-1.4M15.551 2.298l-.9.7M15.551 3.698v-1.4"/>
        <path stroke="none" d="m14.301 3.638-.012.062-.035.051-.052.035-.06.012h-2.98l-.062-.012-.052-.035-.035-.051-.012-.062v-1.28l.012-.061.035-.052.052-.035.061-.012h2.98l.061.012.052.035.035.052.012.061ZM15.901 2.358l.012-.061.035-.052L16 2.21l.061-.012h2.98l.061.012.052.035.035.052.012.061v1.28l-.012.062-.035.051-.052.035-.06.012h-2.98L16 3.786l-.052-.035-.035-.051-.012-.062Z" style="fill:#b4a09a;fill-opacity:.9;stroke:none;fill-rule:evenodd"/>
    </g>
    <circle cx="11.851" cy="2.998" r=".8" style="fill:#4d7fc4;fill-opacity:1;stroke:none"/>
    <circle cx="18.351" cy="2.998" r=".8" style="fill:#4d7fc4;fill-opacity:1;stroke:none"/>
    <g style="fill:#c83434;fill-opacity:1;stroke:none">
        <circle cx="11.851" cy="2.998" r=".8"/>
        <path d="m14.301 3.638-.012.062-.035.051-.052.035-.06.012h-2.98l-.062-.012-.052-.035-.035-.051-.012-.062v-1.28l.012-.061.035-.052.052-.035.061-.012h2.98l.061.012.052.035.035.052.012.061Z" style="fill:#c83434;fill-opacity:1;stroke:none;fill-rule:evenodd"/>
    </g>
    <g style="fill:#c83434;fill-opacity:1;stroke:none">
        <circle cx="18.351" cy="2.998" r=".8"/>
        <path d="m15.901 2.358.012-.061.035-.052L16 2.21l.061-.012h2.98l.061.012.052.035.035.052.012.061v1.28l-.012.062-.035.051-.052.035-.06.012h-2.98L16 3.786l-.052-.035-.035-.051-.012-.062Z" style="fill:#c83434;fill-opacity:1;stroke:none;fill-rule:evenodd"/>
    </g>
    <g class="stroked-text" style="fill:none;stroke:#585d84;stroke-width:.0444;stroke-opacity:1;stroke-linecap:round;stroke-linejoin:round">
        <path d="M12.004 3.243h-.305M11.851 3.243v-.534M11.851 2.71l-.05.075M11.8 2.786l-.05.05M11.75 2.836l-.051.026"/>
    </g>
    <circle cx="11.851" cy="2.998" r=".8" style="fill:none;stroke:#585d84;stroke-width:.0212;stroke-opacity:1;stroke-linecap:round;stroke-linejoin:round"/>
    <g class="stroked-text" style="fill:none;stroke:#585d84;stroke-width:.0444;stroke-opacity:1;stroke-linecap:round;stroke-linejoin:round">
        <path d="m18.199 2.76.025-.025M18.224 2.735l.051-.026M18.275 2.71h.127M18.402 2.71l.05.025M18.453 2.735l.025.025M18.478 2.76l.026.05M18.504 2.81v.052M18.504 2.862l-.026.076M18.478 2.938l-.305.305M18.173 3.243h.33"/>
    </g>
    <circle cx="18.351" cy="2.998" r=".8" style="fill:none;stroke:#585d84;stroke-width:.0212;stroke-opacity:1;stroke-linecap:round;stroke-linejoin:round"/>
    <g style="fill:none;stroke:#afafaf;stroke-width:.15;stroke-opacity:1;stroke-linecap:round;stroke-linejoin:round">
        <g class="stroked-text">
            <path d="M.363 1.303v-1M.363.303h.238M.601.303l.143.048M.744.35l.095.096M.84.446.886.54M.887.541l.047.19M.935.732v.143M.935.875l-.048.19M.887 1.065l-.048.095M.84 1.16l-.096.095M.744 1.255l-.143.048M.601 1.303H.363M1.363 1.303V.636M1.363.303l-.048.048M1.316.35l.047.048M1.363.398l.048-.047M1.41.35 1.364.304M1.363.303v.095M1.982 1.303l-.095-.048M1.887 1.255l-.048-.047M1.84 1.208l-.048-.095M1.792 1.113V.827M1.792.827l.047-.095M1.84.732l.047-.048M1.887.684l.095-.048M1.982.636h.143M2.125.636l.095.048M2.22.684l.048.048M2.268.732l.048.095M2.316.827v.286M2.316 1.113l-.048.095M2.268 1.208l-.048.047M2.22 1.255l-.095.048M2.125 1.303h-.143M3.173 1.303v-1M3.173 1.255l-.096.048M3.077 1.303h-.19M2.887 1.303l-.095-.048M2.792 1.255l-.048-.047M2.744 1.208l-.048-.095M2.696 1.113V.827M2.696.827l.048-.095M2.744.732l.048-.048M2.792.684l.095-.048M2.887.636h.19M3.077.636l.096.048M4.03 1.255l-.096.048M3.935 1.303h-.191M3.744 1.303l-.095-.048M3.649 1.255 3.6 1.16M3.601 1.16V.78M3.601.78 3.65.683M3.649.684l.095-.048M3.744.636h.19M3.935.636l.095.048M4.03.684l.047.095M4.077.78v.095M4.077.875 3.601.97M4.268 1.398h.762M5.22 1.255l.143.048M5.363 1.303h.238M5.601 1.303l.095-.048M5.696 1.255l.048-.047M5.744 1.208l.048-.095M5.792 1.113v-.096M5.792 1.017 5.744.922M5.744.922 5.696.875M5.696.875 5.601.827M5.601.827l-.19-.048M5.41.78 5.316.731M5.316.732 5.268.684M5.268.684 5.22.589M5.22.589V.494M5.22.494l.048-.096M5.268.398l.048-.047M5.316.35 5.41.304M5.41.303h.239M5.649.303l.143.048M6.22 1.303v-1M6.22.303l.334.714M6.554 1.017l.333-.714M6.887.303v1M7.363 1.303v-1M7.363.303h.238M7.601.303l.143.048M7.744.35l.095.096M7.84.446l.047.095M7.887.541l.048.19M7.935.732v.143M7.935.875l-.048.19M7.887 1.065l-.048.095M7.84 1.16l-.096.095M7.744 1.255l-.143.048M7.601 1.303h-.238M8.363.922h.762M8.744 1.303V.541M9.458.303h.572M9.744 1.303v-1M10.363 1.303v-1M10.363.78h.572M10.935 1.303v-1M11.268.303h.571M11.554 1.303v-1M11.935 1.398h.761M12.887 1.255l.143.048M13.03 1.303h.238M13.268 1.303l.095-.048M13.363 1.255l.048-.047M13.41 1.208l.048-.095M13.458 1.113v-.096M13.458 1.017l-.047-.095M13.41.922l-.047-.047M13.363.875l-.095-.048M13.268.827l-.19-.048M13.077.78l-.095-.048M12.982.732l-.047-.048M12.935.684l-.048-.095M12.887.589V.494M12.887.494l.047-.096M12.935.398l.047-.047M12.982.35l.095-.047M13.077.303h.239M13.316.303l.142.048M14.077.303h.19M14.268.303l.095.048M14.363.35l.095.096M14.458.446l.048.19M14.506.636V.97M14.506.97l-.048.19M14.458 1.16l-.095.095M14.363 1.255l-.095.048M14.268 1.303h-.19M14.077 1.303l-.095-.048M13.982 1.255l-.095-.095M13.887 1.16l-.048-.19M13.84.97V.636M13.84.636l.047-.19M13.887.446l.095-.095M13.982.35l.095-.047M14.935 1.303v-1M14.935.303h.238M15.173.303l.143.048M15.316.35l.095.096M15.41.446l.048.095M15.458.541l.048.19M15.506.732v.143M15.506.875l-.048.19M15.458 1.065l-.047.095M15.41 1.16l-.095.095M15.316 1.255l-.143.048M15.173 1.303h-.239M16.458 1.303h-.571M16.173 1.303v-1M16.173.303l-.096.143M16.077.446l-.095.095M15.982.541l-.095.048M16.84.398l.047-.047M16.887.35l.095-.047M16.982.303h.238M17.22.303l.096.048M17.316.35l.047.048M17.363.398l.048.095M17.41.494v.095M17.41.589l-.047.143M17.363.732l-.571.571M16.792 1.303h.619M17.744.303h.62M18.363.303l-.333.381M18.03.684h.143M18.173.684l.095.048M18.268.732l.047.047M18.316.78l.047.095M18.363.875v.238M18.363 1.113l-.047.095M18.316 1.208l-.048.047M18.268 1.255l-.095.048M18.173 1.303h-.286M17.887 1.303l-.095-.048M17.792 1.255l-.048-.047M18.554 1.398h.762M19.554 1.303v-1M19.554.303h.238M19.792.303l.142.048M19.935.35l.095.096M20.03.446l.047.095M20.077.541l.048.19M20.125.732v.143M20.125.875l-.048.19M20.077 1.065l-.047.095M20.03 1.16l-.096.095M19.935 1.255l-.143.048M19.792 1.303h-.238M20.744.303h.19M20.935.303l.095.048M21.03.35l.095.096M21.125.446l.048.19M21.173.636V.97M21.173.97l-.048.19M21.125 1.16l-.095.095M21.03 1.255l-.096.048M20.935 1.303h-.191M20.744 1.303l-.095-.048M20.649 1.255l-.095-.095M20.554 1.16l-.048-.19M20.506.97V.636M20.506.636l.048-.19M20.554.446l.095-.095M20.649.35l.095-.047M21.506.303h.619M22.125.303l-.333.381M21.792.684h.142M21.935.684l.095.048M22.03.732l.047.047M22.077.78l.048.095M22.125.875v.238M22.125 1.113l-.048.095M22.077 1.208l-.047.047M22.03 1.255l-.096.048M21.935 1.303h-.286M21.649 1.303l-.095-.048M21.554 1.255l-.048-.047M23.03.303h-.476M22.554.303l-.048.476M22.506.78l.048-.048M22.554.732l.095-.048M22.649.684h.238M22.887.684l.095.048M22.982.732l.048.047M23.03.78l.047.095M23.077.875v.238M23.077 1.113l-.047.095M23.03 1.208l-.048.047M22.982 1.255l-.095.048M22.887 1.303h-.238M22.649 1.303l-.095-.048M22.554 1.255l-.048-.047M23.268 1.398h.762M24.268 1.303v-1M24.268.303h.38M24.649.303l.095.048M24.744.35l.048.048M24.792.398l.047.095M24.84.494v.142M24.84.636l-.048.096M24.792.732l-.048.047M24.744.78l-.095.047M24.649.827h-.381M25.696.303h-.19M25.506.303l-.095.048M25.41.35l-.047.048M25.363.398l-.095.143M25.268.541l-.048.19M25.22.732v.38M25.22 1.113l.048.095M25.268 1.208l.047.047M25.316 1.255l.095.048M25.41 1.303h.191M25.601 1.303l.095-.048M25.696 1.255l.048-.047M25.744 1.208l.048-.095M25.792 1.113V.875M25.792.875l-.048-.096M25.744.78l-.048-.048M25.696.732l-.095-.048M25.601.684h-.19M25.41.684l-.095.048M25.316.732l-.048.047M25.268.78l-.048.095M26.22 1.208l.048.047M26.268 1.255l-.048.048M26.22 1.303l-.047-.048M26.173 1.255l.047-.047M26.22 1.208v.095M27.173.303h-.477M26.696.303 26.65.78M26.649.78l.047-.048M26.696.732l.096-.048M26.792.684h.238M27.03.684l.095.048M27.125.732l.048.047M27.173.78l.047.095M27.22.875v.238M27.22 1.113l-.047.095M27.173 1.208l-.048.047M27.125 1.255l-.095.048M27.03 1.303h-.238M26.792 1.303l-.096-.048M26.696 1.255l-.047-.047M27.649 1.303V.636M27.649.732l.047-.048M27.696.684l.096-.048M27.792.636h.142M27.935.636l.095.048M28.03.684l.047.095M28.077.78v.523M28.077.78l.048-.096M28.125.684l.095-.048M28.22.636h.143M28.363.636l.095.048M28.458.684l.048.095M28.506.78v.523M28.982 1.303V.636M28.982.732l.048-.048M29.03.684l.095-.048M29.125.636h.143M29.268.636l.095.048M29.363.684l.048.095M29.41.78v.523M29.41.78l.048-.096M29.458.684l.096-.048M29.554.636h.142M29.696.636l.096.048M29.792.684l.047.095M29.84.78v.523"/>
        </g>
        <g class="stroked-text">
            <path d="m13.768 5.603-.334-.476M13.196 5.603v-1M13.196 4.603h.381M13.577 4.603l.096.048M13.673 4.65l.047.048M13.72 4.698l.048.095M13.768 4.794v.142M13.768 4.936l-.048.096M13.72 5.032l-.047.047M13.673 5.08l-.096.047M13.577 5.127h-.38M14.196 5.08h.334M14.673 5.603h-.477M14.196 5.603v-1M14.196 4.603h.477M15.435 5.08H15.1M15.101 5.603v-1M15.101 4.603h.476M16.101 4.603v.238M15.863 4.746l.238.095M16.101 4.841l.238-.095M15.958 5.032l.143-.19M16.101 4.841l.143.19M16.863 4.603v.238M16.625 4.746l.238.095M16.863 4.841l.238-.095M16.72 5.032l.143-.19M16.863 4.841l.143.19"/>
        </g>
        <path d="M13.801 2.148h2.6v1.7h-2.6Z" style="stroke:#afafaf;stroke-width:.1;stroke-opacity:1;stroke-linecap:round;stroke-linejoin:round;fill:none"/>
    </g>
    <g class="stroked-text" style="fill:none;stroke:#afafaf;stroke-width:.0444;stroke-opacity:1;stroke-linecap:round;stroke-linejoin:round">
        <path d="M12.004 3.243h-.305M11.851 3.243v-.534M11.851 2.71l-.05.075M11.8 2.786l-.05.05M11.75 2.836l-.051.026"/>
    </g>
    <circle cx="11.851" cy="2.998" r=".8" style="fill:none;stroke:#afafaf;stroke-width:.0212;stroke-opacity:1;stroke-linecap:round;stroke-linejoin:round"/>
    <g style="fill:none;stroke:#afafaf;stroke-width:.0917;stroke-opacity:1;stroke-linecap:round;stroke-linejoin:round">
        <g class="stroked-text">
            <path d="M12.966 3.502h-.63M12.651 3.502v-1.1M12.651 2.402l-.105.157M12.546 2.56l-.104.104M12.442 2.664l-.105.053"/>
        </g>
        <path d="m14.301 3.638-.012.062-.035.051-.052.035-.06.012h-2.98l-.062-.012-.052-.035-.035-.051-.012-.062v-1.28l.012-.061.035-.052.052-.035.061-.012h2.98l.061.012.052.035.035.052.012.061Z" style="stroke:#afafaf;stroke-width:.0212;stroke-opacity:1;stroke-linecap:round;stroke-linejoin:round;fill:none"/>
    </g>
    <g class="stroked-text" style="fill:none;stroke:#afafaf;stroke-width:.0444;stroke-opacity:1;stroke-linecap:round;stroke-linejoin:round">
        <path d="m18.199 2.76.025-.025M18.224 2.735l.051-.026M18.275 2.71h.127M18.402 2.71l.05.025M18.453 2.735l.025.025M18.478 2.76l.026.05M18.504 2.81v.052M18.504 2.862l-.026.076M18.478 2.938l-.305.305M18.173 3.243h.33"/>
    </g>
    <circle cx="18.351" cy="2.998" r=".8" style="fill:none;stroke:#afafaf;stroke-width:.0212;stroke-opacity:1;stroke-linecap:round;stroke-linejoin:round"/>
    <g style="fill:none;stroke:#afafaf;stroke-width:.0917;stroke-opacity:1;stroke-linecap:round;stroke-linejoin:round">
        <g class="stroked-text">
            <path d="m17.237 2.507.052-.052M17.29 2.455l.104-.053M17.394 2.402h.262M17.656 2.402l.105.053M17.76 2.455l.053.052M17.813 2.507l.053.105M17.866 2.612v.105M17.866 2.717l-.053.157M17.813 2.874l-.628.628M17.185 3.502h.68"/>
        </g>
        <path d="m15.901 2.358.012-.061.035-.052L16 2.21l.061-.012h2.98l.061.012.052.035.035.052.012.061v1.28l-.012.062-.035.051-.052.035-.06.012h-2.98L16 3.786l-.052-.035-.035-.051-.012-.062Z" style="stroke:#afafaf;stroke-width:.0212;stroke-opacity:1;stroke-linecap:round;stroke-linejoin:round;fill:none"/>
    </g>
</svg>
