<?xml version="1.0" standalone="no"?>
 <!DOCTYPE svg PUBLIC "-//W3C//DTD SVG 1.1//EN" 
 "http://www.w3.org/Graphics/SVG/1.1/DTD/svg11.dtd"> 
<svg
  xmlns:svg="http://www.w3.org/2000/svg"
  xmlns="http://www.w3.org/2000/svg"
  xmlns:xlink="http://www.w3.org/1999/xlink"
  version="1.1"
  width="30.2006mm" height="5.9944mm" viewBox="0.0000 0.0000 30.2006 5.9944">
<title>SVG Image created as Diode_SMD+THT_SOD123_DO35_P6.5mm.svg date 2025/05/12 22:52:33 </title>
  <desc>Image generated by PCBNEW </desc>
<g style="fill:#000000; fill-opacity:1.0000;stroke:#000000; stroke-opacity:1.0000;
stroke-linecap:round; stroke-linejoin:round;"
 transform="translate(0 0) scale(1 1)">
</g>
<g style="fill:none; 
stroke:#F2EDA1; stroke-width:0.1500; stroke-opacity:1; 
stroke-linecap:round; stroke-linejoin:round;">
<text x="15.1012" y="5.6482"
textLength="4.5357" font-size="1.3333" lengthAdjust="spacingAndGlyphs"
text-anchor="middle" opacity="0" stroke-opacity="0">REF**</text>
<g class="stroked-text"><desc>REF**</desc>
<path d="M13.7679 5.6031
L13.4345 5.1269
" />
<path d="M13.1964 5.6031
L13.1964 4.6031
" />
<path d="M13.1964 4.6031
L13.5774 4.6031
" />
<path d="M13.5774 4.6031
L13.6726 4.6507
" />
<path d="M13.6726 4.6507
L13.7202 4.6983
" />
<path d="M13.7202 4.6983
L13.7679 4.7935
" />
<path d="M13.7679 4.7935
L13.7679 4.9364
" />
<path d="M13.7679 4.9364
L13.7202 5.0316
" />
<path d="M13.7202 5.0316
L13.6726 5.0793
" />
<path d="M13.6726 5.0793
L13.5774 5.1269
" />
<path d="M13.5774 5.1269
L13.1964 5.1269
" />
<path d="M14.1964 5.0793
L14.5298 5.0793
" />
<path d="M14.6726 5.6031
L14.1964 5.6031
" />
<path d="M14.1964 5.6031
L14.1964 4.6031
" />
<path d="M14.1964 4.6031
L14.6726 4.6031
" />
<path d="M15.4345 5.0793
L15.1012 5.0793
" />
<path d="M15.1012 5.6031
L15.1012 4.6031
" />
<path d="M15.1012 4.6031
L15.5774 4.6031
" />
<path d="M16.1012 4.6031
L16.1012 4.8412
" />
<path d="M15.8631 4.7459
L16.1012 4.8412
" />
<path d="M16.1012 4.8412
L16.3393 4.7459
" />
<path d="M15.9583 5.0316
L16.1012 4.8412
" />
<path d="M16.1012 4.8412
L16.2440 5.0316
" />
<path d="M16.8631 4.6031
L16.8631 4.8412
" />
<path d="M16.6250 4.7459
L16.8631 4.8412
" />
<path d="M16.8631 4.8412
L17.1012 4.7459
" />
<path d="M16.7202 5.0316
L16.8631 4.8412
" />
<path d="M16.8631 4.8412
L17.0060 5.0316
" />
</g></g>
<g style="fill:none; 
stroke:#F2EDA1; stroke-width:0.1200; stroke-opacity:1; 
stroke-linecap:round; stroke-linejoin:round;">
<path d="M13.7012 1.9982
L16.5012 1.9982
" />
<path d="M13.7012 3.9982
L16.5012 3.9982
" />
</g>
<g style="fill:none; 
stroke:#F2EDA1; stroke-width:0.1500; stroke-opacity:1; 
stroke-linecap:round; stroke-linejoin:round;">
<path d="M14.6512 2.9983
L15.5512 3.6982
" />
<path d="M14.6512 3.6982
L14.6512 2.2982
" />
<path d="M15.5512 2.2982
L14.6512 2.9983
" />
<path d="M15.5512 3.6982
L15.5512 2.2982
" />
<path style="fill:#B4A09A; fill-opacity:0.9000; stroke:none;fill-rule:evenodd;"
d="M 14.3012,3.6382
14.2890,3.6995
14.2543,3.7514
14.2024,3.7861
14.1412,3.7982
11.1612,3.7982
11.1000,3.7861
11.0481,3.7514
11.0134,3.6995
11.0012,3.6382
11.0012,2.3582
11.0134,2.2970
11.0481,2.2451
11.1000,2.2104
11.1612,2.1982
14.1412,2.1982
14.2024,2.2104
14.2543,2.2451
14.2890,2.2970
14.3012,2.3582
Z" /> 
<path style="fill:#B4A09A; fill-opacity:0.9000; stroke:none;fill-rule:evenodd;"
d="M 15.9012,2.3582
15.9134,2.2970
15.9481,2.2451
16.0000,2.2104
16.0612,2.1982
19.0412,2.1982
19.1024,2.2104
19.1543,2.2451
19.1890,2.2970
19.2012,2.3582
19.2012,3.6382
19.1890,3.6995
19.1543,3.7514
19.1024,3.7861
19.0412,3.7982
16.0612,3.7982
16.0000,3.7861
15.9481,3.7514
15.9134,3.6995
15.9012,3.6382
Z" /> 
</g>
<g style="fill:#4D7FC4; fill-opacity:1.0000; stroke:none;">
<circle cx="11.8512" cy="2.9983" r="0.8000" /> 
</g>
<g style="fill:#4D7FC4; fill-opacity:1.0000; stroke:none;">
<circle cx="18.3512" cy="2.9983" r="0.8000" /> 
</g>
<g style="fill:#C83434; fill-opacity:1.0000; stroke:none;">
<circle cx="11.8512" cy="2.9983" r="0.8000" /> 
<path style="fill:#C83434; fill-opacity:1.0000; stroke:none;fill-rule:evenodd;"
d="M 14.3012,3.6382
14.2890,3.6995
14.2543,3.7514
14.2024,3.7861
14.1412,3.7982
11.1612,3.7982
11.1000,3.7861
11.0481,3.7514
11.0134,3.6995
11.0012,3.6382
11.0012,2.3582
11.0134,2.2970
11.0481,2.2451
11.1000,2.2104
11.1612,2.1982
14.1412,2.1982
14.2024,2.2104
14.2543,2.2451
14.2890,2.2970
14.3012,2.3582
Z" /> 
</g>
<g style="fill:#C83434; fill-opacity:1.0000; stroke:none;">
<circle cx="18.3512" cy="2.9983" r="0.8000" /> 
<path style="fill:#C83434; fill-opacity:1.0000; stroke:none;fill-rule:evenodd;"
d="M 15.9012,2.3582
15.9134,2.2970
15.9481,2.2451
16.0000,2.2104
16.0612,2.1982
19.0412,2.1982
19.1024,2.2104
19.1543,2.2451
19.1890,2.2970
19.2012,2.3582
19.2012,3.6382
19.1890,3.6995
19.1543,3.7514
19.1024,3.7861
19.0412,3.7982
16.0612,3.7982
16.0000,3.7861
15.9481,3.7514
15.9134,3.6995
15.9012,3.6382
Z" /> 
</g>
<g style="fill:none; 
stroke:#585D84; stroke-width:0.0444; stroke-opacity:1; 
stroke-linecap:round; stroke-linejoin:round;">
<text x="11.8512" y="3.2649"
textLength="0.5346" font-size="0.7111" lengthAdjust="spacingAndGlyphs"
text-anchor="middle" opacity="0" stroke-opacity="0">1</text>
<g class="stroked-text"><desc>1</desc>
<path d="M12.0036 3.2427
L11.6988 3.2427
" />
<path d="M11.8512 3.2427
L11.8512 2.7093
" />
<path d="M11.8512 2.7093
L11.8004 2.7855
" />
<path d="M11.8004 2.7855
L11.7496 2.8363
" />
<path d="M11.7496 2.8363
L11.6988 2.8617
" />
</g></g>
<g style="fill:none; 
stroke:#585D84; stroke-width:0.0212; stroke-opacity:1; 
stroke-linecap:round; stroke-linejoin:round;">
<circle cx="11.8512" cy="2.9983" r="0.8000" /> 
</g>
<g style="fill:none; 
stroke:#585D84; stroke-width:0.0444; stroke-opacity:1; 
stroke-linecap:round; stroke-linejoin:round;">
<text x="18.3512" y="3.2649"
textLength="0.5346" font-size="0.7111" lengthAdjust="spacingAndGlyphs"
text-anchor="middle" opacity="0" stroke-opacity="0">2</text>
<g class="stroked-text"><desc>2</desc>
<path d="M18.1988 2.7601
L18.2242 2.7347
" />
<path d="M18.2242 2.7347
L18.2750 2.7093
" />
<path d="M18.2750 2.7093
L18.4020 2.7093
" />
<path d="M18.4020 2.7093
L18.4528 2.7347
" />
<path d="M18.4528 2.7347
L18.4782 2.7601
" />
<path d="M18.4782 2.7601
L18.5036 2.8109
" />
<path d="M18.5036 2.8109
L18.5036 2.8617
" />
<path d="M18.5036 2.8617
L18.4782 2.9379
" />
<path d="M18.4782 2.9379
L18.1734 3.2427
" />
<path d="M18.1734 3.2427
L18.5036 3.2427
" />
</g></g>
<g style="fill:none; 
stroke:#585D84; stroke-width:0.0212; stroke-opacity:1; 
stroke-linecap:round; stroke-linejoin:round;">
<circle cx="18.3512" cy="2.9983" r="0.8000" /> 
</g>
<g style="fill:none; 
stroke:#AFAFAF; stroke-width:0.1500; stroke-opacity:1; 
stroke-linecap:round; stroke-linejoin:round;">
<text x="15.1012" y="1.3482"
textLength="30.2024" font-size="1.3333" lengthAdjust="spacingAndGlyphs"
text-anchor="middle" opacity="0" stroke-opacity="0">Diode_SMD+THT_SOD123_DO35_P6.5mm</text>
<g class="stroked-text"><desc>Diode_SMD+THT_SOD123_DO35_P6.5mm</desc>
<path d="M0.3631 1.3031
L0.3631 0.3031
" />
<path d="M0.3631 0.3031
L0.6012 0.3031
" />
<path d="M0.6012 0.3031
L0.7440 0.3507
" />
<path d="M0.7440 0.3507
L0.8393 0.4459
" />
<path d="M0.8393 0.4459
L0.8869 0.5412
" />
<path d="M0.8869 0.5412
L0.9345 0.7316
" />
<path d="M0.9345 0.7316
L0.9345 0.8745
" />
<path d="M0.9345 0.8745
L0.8869 1.0650
" />
<path d="M0.8869 1.0650
L0.8393 1.1602
" />
<path d="M0.8393 1.1602
L0.7440 1.2554
" />
<path d="M0.7440 1.2554
L0.6012 1.3031
" />
<path d="M0.6012 1.3031
L0.3631 1.3031
" />
<path d="M1.3631 1.3031
L1.3631 0.6364
" />
<path d="M1.3631 0.3031
L1.3155 0.3507
" />
<path d="M1.3155 0.3507
L1.3631 0.3983
" />
<path d="M1.3631 0.3983
L1.4107 0.3507
" />
<path d="M1.4107 0.3507
L1.3631 0.3031
" />
<path d="M1.3631 0.3031
L1.3631 0.3983
" />
<path d="M1.9821 1.3031
L1.8869 1.2554
" />
<path d="M1.8869 1.2554
L1.8393 1.2078
" />
<path d="M1.8393 1.2078
L1.7917 1.1126
" />
<path d="M1.7917 1.1126
L1.7917 0.8269
" />
<path d="M1.7917 0.8269
L1.8393 0.7316
" />
<path d="M1.8393 0.7316
L1.8869 0.6840
" />
<path d="M1.8869 0.6840
L1.9821 0.6364
" />
<path d="M1.9821 0.6364
L2.1250 0.6364
" />
<path d="M2.1250 0.6364
L2.2202 0.6840
" />
<path d="M2.2202 0.6840
L2.2679 0.7316
" />
<path d="M2.2679 0.7316
L2.3155 0.8269
" />
<path d="M2.3155 0.8269
L2.3155 1.1126
" />
<path d="M2.3155 1.1126
L2.2679 1.2078
" />
<path d="M2.2679 1.2078
L2.2202 1.2554
" />
<path d="M2.2202 1.2554
L2.1250 1.3031
" />
<path d="M2.1250 1.3031
L1.9821 1.3031
" />
<path d="M3.1726 1.3031
L3.1726 0.3031
" />
<path d="M3.1726 1.2554
L3.0774 1.3031
" />
<path d="M3.0774 1.3031
L2.8869 1.3031
" />
<path d="M2.8869 1.3031
L2.7917 1.2554
" />
<path d="M2.7917 1.2554
L2.7440 1.2078
" />
<path d="M2.7440 1.2078
L2.6964 1.1126
" />
<path d="M2.6964 1.1126
L2.6964 0.8269
" />
<path d="M2.6964 0.8269
L2.7440 0.7316
" />
<path d="M2.7440 0.7316
L2.7917 0.6840
" />
<path d="M2.7917 0.6840
L2.8869 0.6364
" />
<path d="M2.8869 0.6364
L3.0774 0.6364
" />
<path d="M3.0774 0.6364
L3.1726 0.6840
" />
<path d="M4.0298 1.2554
L3.9345 1.3031
" />
<path d="M3.9345 1.3031
L3.7440 1.3031
" />
<path d="M3.7440 1.3031
L3.6488 1.2554
" />
<path d="M3.6488 1.2554
L3.6012 1.1602
" />
<path d="M3.6012 1.1602
L3.6012 0.7793
" />
<path d="M3.6012 0.7793
L3.6488 0.6840
" />
<path d="M3.6488 0.6840
L3.7440 0.6364
" />
<path d="M3.7440 0.6364
L3.9345 0.6364
" />
<path d="M3.9345 0.6364
L4.0298 0.6840
" />
<path d="M4.0298 0.6840
L4.0774 0.7793
" />
<path d="M4.0774 0.7793
L4.0774 0.8745
" />
<path d="M4.0774 0.8745
L3.6012 0.9697
" />
<path d="M4.2679 1.3983
L5.0298 1.3983
" />
<path d="M5.2202 1.2554
L5.3631 1.3031
" />
<path d="M5.3631 1.3031
L5.6012 1.3031
" />
<path d="M5.6012 1.3031
L5.6964 1.2554
" />
<path d="M5.6964 1.2554
L5.7440 1.2078
" />
<path d="M5.7440 1.2078
L5.7917 1.1126
" />
<path d="M5.7917 1.1126
L5.7917 1.0174
" />
<path d="M5.7917 1.0174
L5.7440 0.9221
" />
<path d="M5.7440 0.9221
L5.6964 0.8745
" />
<path d="M5.6964 0.8745
L5.6012 0.8269
" />
<path d="M5.6012 0.8269
L5.4107 0.7793
" />
<path d="M5.4107 0.7793
L5.3155 0.7316
" />
<path d="M5.3155 0.7316
L5.2679 0.6840
" />
<path d="M5.2679 0.6840
L5.2202 0.5888
" />
<path d="M5.2202 0.5888
L5.2202 0.4935
" />
<path d="M5.2202 0.4935
L5.2679 0.3983
" />
<path d="M5.2679 0.3983
L5.3155 0.3507
" />
<path d="M5.3155 0.3507
L5.4107 0.3031
" />
<path d="M5.4107 0.3031
L5.6488 0.3031
" />
<path d="M5.6488 0.3031
L5.7917 0.3507
" />
<path d="M6.2202 1.3031
L6.2202 0.3031
" />
<path d="M6.2202 0.3031
L6.5536 1.0174
" />
<path d="M6.5536 1.0174
L6.8869 0.3031
" />
<path d="M6.8869 0.3031
L6.8869 1.3031
" />
<path d="M7.3631 1.3031
L7.3631 0.3031
" />
<path d="M7.3631 0.3031
L7.6012 0.3031
" />
<path d="M7.6012 0.3031
L7.7440 0.3507
" />
<path d="M7.7440 0.3507
L7.8393 0.4459
" />
<path d="M7.8393 0.4459
L7.8869 0.5412
" />
<path d="M7.8869 0.5412
L7.9345 0.7316
" />
<path d="M7.9345 0.7316
L7.9345 0.8745
" />
<path d="M7.9345 0.8745
L7.8869 1.0650
" />
<path d="M7.8869 1.0650
L7.8393 1.1602
" />
<path d="M7.8393 1.1602
L7.7440 1.2554
" />
<path d="M7.7440 1.2554
L7.6012 1.3031
" />
<path d="M7.6012 1.3031
L7.3631 1.3031
" />
<path d="M8.3631 0.9221
L9.1250 0.9221
" />
<path d="M8.7440 1.3031
L8.7440 0.5412
" />
<path d="M9.4583 0.3031
L10.0298 0.3031
" />
<path d="M9.7440 1.3031
L9.7440 0.3031
" />
<path d="M10.3631 1.3031
L10.3631 0.3031
" />
<path d="M10.3631 0.7793
L10.9345 0.7793
" />
<path d="M10.9345 1.3031
L10.9345 0.3031
" />
<path d="M11.2679 0.3031
L11.8393 0.3031
" />
<path d="M11.5536 1.3031
L11.5536 0.3031
" />
<path d="M11.9345 1.3983
L12.6964 1.3983
" />
<path d="M12.8869 1.2554
L13.0298 1.3031
" />
<path d="M13.0298 1.3031
L13.2679 1.3031
" />
<path d="M13.2679 1.3031
L13.3631 1.2554
" />
<path d="M13.3631 1.2554
L13.4107 1.2078
" />
<path d="M13.4107 1.2078
L13.4583 1.1126
" />
<path d="M13.4583 1.1126
L13.4583 1.0174
" />
<path d="M13.4583 1.0174
L13.4107 0.9221
" />
<path d="M13.4107 0.9221
L13.3631 0.8745
" />
<path d="M13.3631 0.8745
L13.2679 0.8269
" />
<path d="M13.2679 0.8269
L13.0774 0.7793
" />
<path d="M13.0774 0.7793
L12.9821 0.7316
" />
<path d="M12.9821 0.7316
L12.9345 0.6840
" />
<path d="M12.9345 0.6840
L12.8869 0.5888
" />
<path d="M12.8869 0.5888
L12.8869 0.4935
" />
<path d="M12.8869 0.4935
L12.9345 0.3983
" />
<path d="M12.9345 0.3983
L12.9821 0.3507
" />
<path d="M12.9821 0.3507
L13.0774 0.3031
" />
<path d="M13.0774 0.3031
L13.3155 0.3031
" />
<path d="M13.3155 0.3031
L13.4583 0.3507
" />
<path d="M14.0774 0.3031
L14.2679 0.3031
" />
<path d="M14.2679 0.3031
L14.3631 0.3507
" />
<path d="M14.3631 0.3507
L14.4583 0.4459
" />
<path d="M14.4583 0.4459
L14.5060 0.6364
" />
<path d="M14.5060 0.6364
L14.5060 0.9697
" />
<path d="M14.5060 0.9697
L14.4583 1.1602
" />
<path d="M14.4583 1.1602
L14.3631 1.2554
" />
<path d="M14.3631 1.2554
L14.2679 1.3031
" />
<path d="M14.2679 1.3031
L14.0774 1.3031
" />
<path d="M14.0774 1.3031
L13.9821 1.2554
" />
<path d="M13.9821 1.2554
L13.8869 1.1602
" />
<path d="M13.8869 1.1602
L13.8393 0.9697
" />
<path d="M13.8393 0.9697
L13.8393 0.6364
" />
<path d="M13.8393 0.6364
L13.8869 0.4459
" />
<path d="M13.8869 0.4459
L13.9821 0.3507
" />
<path d="M13.9821 0.3507
L14.0774 0.3031
" />
<path d="M14.9345 1.3031
L14.9345 0.3031
" />
<path d="M14.9345 0.3031
L15.1726 0.3031
" />
<path d="M15.1726 0.3031
L15.3155 0.3507
" />
<path d="M15.3155 0.3507
L15.4107 0.4459
" />
<path d="M15.4107 0.4459
L15.4583 0.5412
" />
<path d="M15.4583 0.5412
L15.5060 0.7316
" />
<path d="M15.5060 0.7316
L15.5060 0.8745
" />
<path d="M15.5060 0.8745
L15.4583 1.0650
" />
<path d="M15.4583 1.0650
L15.4107 1.1602
" />
<path d="M15.4107 1.1602
L15.3155 1.2554
" />
<path d="M15.3155 1.2554
L15.1726 1.3031
" />
<path d="M15.1726 1.3031
L14.9345 1.3031
" />
<path d="M16.4583 1.3031
L15.8869 1.3031
" />
<path d="M16.1726 1.3031
L16.1726 0.3031
" />
<path d="M16.1726 0.3031
L16.0774 0.4459
" />
<path d="M16.0774 0.4459
L15.9821 0.5412
" />
<path d="M15.9821 0.5412
L15.8869 0.5888
" />
<path d="M16.8393 0.3983
L16.8869 0.3507
" />
<path d="M16.8869 0.3507
L16.9821 0.3031
" />
<path d="M16.9821 0.3031
L17.2202 0.3031
" />
<path d="M17.2202 0.3031
L17.3155 0.3507
" />
<path d="M17.3155 0.3507
L17.3631 0.3983
" />
<path d="M17.3631 0.3983
L17.4107 0.4935
" />
<path d="M17.4107 0.4935
L17.4107 0.5888
" />
<path d="M17.4107 0.5888
L17.3631 0.7316
" />
<path d="M17.3631 0.7316
L16.7917 1.3031
" />
<path d="M16.7917 1.3031
L17.4107 1.3031
" />
<path d="M17.7440 0.3031
L18.3631 0.3031
" />
<path d="M18.3631 0.3031
L18.0298 0.6840
" />
<path d="M18.0298 0.6840
L18.1726 0.6840
" />
<path d="M18.1726 0.6840
L18.2679 0.7316
" />
<path d="M18.2679 0.7316
L18.3155 0.7793
" />
<path d="M18.3155 0.7793
L18.3631 0.8745
" />
<path d="M18.3631 0.8745
L18.3631 1.1126
" />
<path d="M18.3631 1.1126
L18.3155 1.2078
" />
<path d="M18.3155 1.2078
L18.2679 1.2554
" />
<path d="M18.2679 1.2554
L18.1726 1.3031
" />
<path d="M18.1726 1.3031
L17.8869 1.3031
" />
<path d="M17.8869 1.3031
L17.7917 1.2554
" />
<path d="M17.7917 1.2554
L17.7440 1.2078
" />
<path d="M18.5536 1.3983
L19.3155 1.3983
" />
<path d="M19.5536 1.3031
L19.5536 0.3031
" />
<path d="M19.5536 0.3031
L19.7917 0.3031
" />
<path d="M19.7917 0.3031
L19.9345 0.3507
" />
<path d="M19.9345 0.3507
L20.0298 0.4459
" />
<path d="M20.0298 0.4459
L20.0774 0.5412
" />
<path d="M20.0774 0.5412
L20.1250 0.7316
" />
<path d="M20.1250 0.7316
L20.1250 0.8745
" />
<path d="M20.1250 0.8745
L20.0774 1.0650
" />
<path d="M20.0774 1.0650
L20.0298 1.1602
" />
<path d="M20.0298 1.1602
L19.9345 1.2554
" />
<path d="M19.9345 1.2554
L19.7917 1.3031
" />
<path d="M19.7917 1.3031
L19.5536 1.3031
" />
<path d="M20.7440 0.3031
L20.9345 0.3031
" />
<path d="M20.9345 0.3031
L21.0298 0.3507
" />
<path d="M21.0298 0.3507
L21.1250 0.4459
" />
<path d="M21.1250 0.4459
L21.1726 0.6364
" />
<path d="M21.1726 0.6364
L21.1726 0.9697
" />
<path d="M21.1726 0.9697
L21.1250 1.1602
" />
<path d="M21.1250 1.1602
L21.0298 1.2554
" />
<path d="M21.0298 1.2554
L20.9345 1.3031
" />
<path d="M20.9345 1.3031
L20.7440 1.3031
" />
<path d="M20.7440 1.3031
L20.6488 1.2554
" />
<path d="M20.6488 1.2554
L20.5536 1.1602
" />
<path d="M20.5536 1.1602
L20.5060 0.9697
" />
<path d="M20.5060 0.9697
L20.5060 0.6364
" />
<path d="M20.5060 0.6364
L20.5536 0.4459
" />
<path d="M20.5536 0.4459
L20.6488 0.3507
" />
<path d="M20.6488 0.3507
L20.7440 0.3031
" />
<path d="M21.5060 0.3031
L22.1250 0.3031
" />
<path d="M22.1250 0.3031
L21.7917 0.6840
" />
<path d="M21.7917 0.6840
L21.9345 0.6840
" />
<path d="M21.9345 0.6840
L22.0298 0.7316
" />
<path d="M22.0298 0.7316
L22.0774 0.7793
" />
<path d="M22.0774 0.7793
L22.1250 0.8745
" />
<path d="M22.1250 0.8745
L22.1250 1.1126
" />
<path d="M22.1250 1.1126
L22.0774 1.2078
" />
<path d="M22.0774 1.2078
L22.0298 1.2554
" />
<path d="M22.0298 1.2554
L21.9345 1.3031
" />
<path d="M21.9345 1.3031
L21.6488 1.3031
" />
<path d="M21.6488 1.3031
L21.5536 1.2554
" />
<path d="M21.5536 1.2554
L21.5060 1.2078
" />
<path d="M23.0298 0.3031
L22.5536 0.3031
" />
<path d="M22.5536 0.3031
L22.5060 0.7793
" />
<path d="M22.5060 0.7793
L22.5536 0.7316
" />
<path d="M22.5536 0.7316
L22.6488 0.6840
" />
<path d="M22.6488 0.6840
L22.8869 0.6840
" />
<path d="M22.8869 0.6840
L22.9821 0.7316
" />
<path d="M22.9821 0.7316
L23.0298 0.7793
" />
<path d="M23.0298 0.7793
L23.0774 0.8745
" />
<path d="M23.0774 0.8745
L23.0774 1.1126
" />
<path d="M23.0774 1.1126
L23.0298 1.2078
" />
<path d="M23.0298 1.2078
L22.9821 1.2554
" />
<path d="M22.9821 1.2554
L22.8869 1.3031
" />
<path d="M22.8869 1.3031
L22.6488 1.3031
" />
<path d="M22.6488 1.3031
L22.5536 1.2554
" />
<path d="M22.5536 1.2554
L22.5060 1.2078
" />
<path d="M23.2679 1.3983
L24.0298 1.3983
" />
<path d="M24.2679 1.3031
L24.2679 0.3031
" />
<path d="M24.2679 0.3031
L24.6488 0.3031
" />
<path d="M24.6488 0.3031
L24.7440 0.3507
" />
<path d="M24.7440 0.3507
L24.7917 0.3983
" />
<path d="M24.7917 0.3983
L24.8393 0.4935
" />
<path d="M24.8393 0.4935
L24.8393 0.6364
" />
<path d="M24.8393 0.6364
L24.7917 0.7316
" />
<path d="M24.7917 0.7316
L24.7440 0.7793
" />
<path d="M24.7440 0.7793
L24.6488 0.8269
" />
<path d="M24.6488 0.8269
L24.2679 0.8269
" />
<path d="M25.6964 0.3031
L25.5060 0.3031
" />
<path d="M25.5060 0.3031
L25.4107 0.3507
" />
<path d="M25.4107 0.3507
L25.3631 0.3983
" />
<path d="M25.3631 0.3983
L25.2679 0.5412
" />
<path d="M25.2679 0.5412
L25.2202 0.7316
" />
<path d="M25.2202 0.7316
L25.2202 1.1126
" />
<path d="M25.2202 1.1126
L25.2679 1.2078
" />
<path d="M25.2679 1.2078
L25.3155 1.2554
" />
<path d="M25.3155 1.2554
L25.4107 1.3031
" />
<path d="M25.4107 1.3031
L25.6012 1.3031
" />
<path d="M25.6012 1.3031
L25.6964 1.2554
" />
<path d="M25.6964 1.2554
L25.7440 1.2078
" />
<path d="M25.7440 1.2078
L25.7917 1.1126
" />
<path d="M25.7917 1.1126
L25.7917 0.8745
" />
<path d="M25.7917 0.8745
L25.7440 0.7793
" />
<path d="M25.7440 0.7793
L25.6964 0.7316
" />
<path d="M25.6964 0.7316
L25.6012 0.6840
" />
<path d="M25.6012 0.6840
L25.4107 0.6840
" />
<path d="M25.4107 0.6840
L25.3155 0.7316
" />
<path d="M25.3155 0.7316
L25.2679 0.7793
" />
<path d="M25.2679 0.7793
L25.2202 0.8745
" />
<path d="M26.2202 1.2078
L26.2679 1.2554
" />
<path d="M26.2679 1.2554
L26.2202 1.3031
" />
<path d="M26.2202 1.3031
L26.1726 1.2554
" />
<path d="M26.1726 1.2554
L26.2202 1.2078
" />
<path d="M26.2202 1.2078
L26.2202 1.3031
" />
<path d="M27.1726 0.3031
L26.6964 0.3031
" />
<path d="M26.6964 0.3031
L26.6488 0.7793
" />
<path d="M26.6488 0.7793
L26.6964 0.7316
" />
<path d="M26.6964 0.7316
L26.7917 0.6840
" />
<path d="M26.7917 0.6840
L27.0298 0.6840
" />
<path d="M27.0298 0.6840
L27.1250 0.7316
" />
<path d="M27.1250 0.7316
L27.1726 0.7793
" />
<path d="M27.1726 0.7793
L27.2202 0.8745
" />
<path d="M27.2202 0.8745
L27.2202 1.1126
" />
<path d="M27.2202 1.1126
L27.1726 1.2078
" />
<path d="M27.1726 1.2078
L27.1250 1.2554
" />
<path d="M27.1250 1.2554
L27.0298 1.3031
" />
<path d="M27.0298 1.3031
L26.7917 1.3031
" />
<path d="M26.7917 1.3031
L26.6964 1.2554
" />
<path d="M26.6964 1.2554
L26.6488 1.2078
" />
<path d="M27.6488 1.3031
L27.6488 0.6364
" />
<path d="M27.6488 0.7316
L27.6964 0.6840
" />
<path d="M27.6964 0.6840
L27.7917 0.6364
" />
<path d="M27.7917 0.6364
L27.9345 0.6364
" />
<path d="M27.9345 0.6364
L28.0298 0.6840
" />
<path d="M28.0298 0.6840
L28.0774 0.7793
" />
<path d="M28.0774 0.7793
L28.0774 1.3031
" />
<path d="M28.0774 0.7793
L28.1250 0.6840
" />
<path d="M28.1250 0.6840
L28.2202 0.6364
" />
<path d="M28.2202 0.6364
L28.3631 0.6364
" />
<path d="M28.3631 0.6364
L28.4583 0.6840
" />
<path d="M28.4583 0.6840
L28.5060 0.7793
" />
<path d="M28.5060 0.7793
L28.5060 1.3031
" />
<path d="M28.9821 1.3031
L28.9821 0.6364
" />
<path d="M28.9821 0.7316
L29.0298 0.6840
" />
<path d="M29.0298 0.6840
L29.1250 0.6364
" />
<path d="M29.1250 0.6364
L29.2679 0.6364
" />
<path d="M29.2679 0.6364
L29.3631 0.6840
" />
<path d="M29.3631 0.6840
L29.4107 0.7793
" />
<path d="M29.4107 0.7793
L29.4107 1.3031
" />
<path d="M29.4107 0.7793
L29.4583 0.6840
" />
<path d="M29.4583 0.6840
L29.5536 0.6364
" />
<path d="M29.5536 0.6364
L29.6964 0.6364
" />
<path d="M29.6964 0.6364
L29.7917 0.6840
" />
<path d="M29.7917 0.6840
L29.8393 0.7793
" />
<path d="M29.8393 0.7793
L29.8393 1.3031
" />
</g><text x="15.1012" y="5.6482"
textLength="4.5357" font-size="1.3333" lengthAdjust="spacingAndGlyphs"
text-anchor="middle" opacity="0" stroke-opacity="0">REF**</text>
<g class="stroked-text"><desc>REF**</desc>
<path d="M13.7679 5.6031
L13.4345 5.1269
" />
<path d="M13.1964 5.6031
L13.1964 4.6031
" />
<path d="M13.1964 4.6031
L13.5774 4.6031
" />
<path d="M13.5774 4.6031
L13.6726 4.6507
" />
<path d="M13.6726 4.6507
L13.7202 4.6983
" />
<path d="M13.7202 4.6983
L13.7679 4.7935
" />
<path d="M13.7679 4.7935
L13.7679 4.9364
" />
<path d="M13.7679 4.9364
L13.7202 5.0316
" />
<path d="M13.7202 5.0316
L13.6726 5.0793
" />
<path d="M13.6726 5.0793
L13.5774 5.1269
" />
<path d="M13.5774 5.1269
L13.1964 5.1269
" />
<path d="M14.1964 5.0793
L14.5298 5.0793
" />
<path d="M14.6726 5.6031
L14.1964 5.6031
" />
<path d="M14.1964 5.6031
L14.1964 4.6031
" />
<path d="M14.1964 4.6031
L14.6726 4.6031
" />
<path d="M15.4345 5.0793
L15.1012 5.0793
" />
<path d="M15.1012 5.6031
L15.1012 4.6031
" />
<path d="M15.1012 4.6031
L15.5774 4.6031
" />
<path d="M16.1012 4.6031
L16.1012 4.8412
" />
<path d="M15.8631 4.7459
L16.1012 4.8412
" />
<path d="M16.1012 4.8412
L16.3393 4.7459
" />
<path d="M15.9583 5.0316
L16.1012 4.8412
" />
<path d="M16.1012 4.8412
L16.2440 5.0316
" />
<path d="M16.8631 4.6031
L16.8631 4.8412
" />
<path d="M16.6250 4.7459
L16.8631 4.8412
" />
<path d="M16.8631 4.8412
L17.1012 4.7459
" />
<path d="M16.7202 5.0316
L16.8631 4.8412
" />
<path d="M16.8631 4.8412
L17.0060 5.0316
" />
</g><path style="fill:none; 
stroke:#AFAFAF; stroke-width:0.1000; stroke-opacity:1; 
stroke-linecap:round; stroke-linejoin:round;fill:none"
d="M 13.8012,2.1482
16.4012,2.1482
16.4012,3.8482
13.8012,3.8482
Z" /> 
</g>
<g style="fill:none; 
stroke:#AFAFAF; stroke-width:0.0444; stroke-opacity:1; 
stroke-linecap:round; stroke-linejoin:round;">
<text x="11.8512" y="3.2649"
textLength="0.5346" font-size="0.7111" lengthAdjust="spacingAndGlyphs"
text-anchor="middle" opacity="0" stroke-opacity="0">1</text>
<g class="stroked-text"><desc>1</desc>
<path d="M12.0036 3.2427
L11.6988 3.2427
" />
<path d="M11.8512 3.2427
L11.8512 2.7093
" />
<path d="M11.8512 2.7093
L11.8004 2.7855
" />
<path d="M11.8004 2.7855
L11.7496 2.8363
" />
<path d="M11.7496 2.8363
L11.6988 2.8617
" />
</g></g>
<g style="fill:none; 
stroke:#AFAFAF; stroke-width:0.0212; stroke-opacity:1; 
stroke-linecap:round; stroke-linejoin:round;">
<circle cx="11.8512" cy="2.9983" r="0.8000" /> 
</g>
<g style="fill:none; 
stroke:#AFAFAF; stroke-width:0.0917; stroke-opacity:1; 
stroke-linecap:round; stroke-linejoin:round;">
<text x="12.6512" y="3.5482"
textLength="1.1026" font-size="1.4667" lengthAdjust="spacingAndGlyphs"
text-anchor="middle" opacity="0" stroke-opacity="0">1</text>
<g class="stroked-text"><desc>1</desc>
<path d="M12.9655 3.5024
L12.3369 3.5024
" />
<path d="M12.6512 3.5024
L12.6512 2.4024
" />
<path d="M12.6512 2.4024
L12.5464 2.5595
" />
<path d="M12.5464 2.5595
L12.4417 2.6643
" />
<path d="M12.4417 2.6643
L12.3369 2.7167
" />
</g><path style="fill:none; 
stroke:#AFAFAF; stroke-width:0.0212; stroke-opacity:1; 
stroke-linecap:round; stroke-linejoin:round;fill:none"
d="M 14.3012,3.6382
14.2890,3.6995
14.2543,3.7514
14.2024,3.7861
14.1412,3.7982
11.1612,3.7982
11.1000,3.7861
11.0481,3.7514
11.0134,3.6995
11.0012,3.6382
11.0012,2.3582
11.0134,2.2970
11.0481,2.2451
11.1000,2.2104
11.1612,2.1982
14.1412,2.1982
14.2024,2.2104
14.2543,2.2451
14.2890,2.2970
14.3012,2.3582
Z" /> 
</g>
<g style="fill:none; 
stroke:#AFAFAF; stroke-width:0.0444; stroke-opacity:1; 
stroke-linecap:round; stroke-linejoin:round;">
<text x="18.3512" y="3.2649"
textLength="0.5346" font-size="0.7111" lengthAdjust="spacingAndGlyphs"
text-anchor="middle" opacity="0" stroke-opacity="0">2</text>
<g class="stroked-text"><desc>2</desc>
<path d="M18.1988 2.7601
L18.2242 2.7347
" />
<path d="M18.2242 2.7347
L18.2750 2.7093
" />
<path d="M18.2750 2.7093
L18.4020 2.7093
" />
<path d="M18.4020 2.7093
L18.4528 2.7347
" />
<path d="M18.4528 2.7347
L18.4782 2.7601
" />
<path d="M18.4782 2.7601
L18.5036 2.8109
" />
<path d="M18.5036 2.8109
L18.5036 2.8617
" />
<path d="M18.5036 2.8617
L18.4782 2.9379
" />
<path d="M18.4782 2.9379
L18.1734 3.2427
" />
<path d="M18.1734 3.2427
L18.5036 3.2427
" />
</g></g>
<g style="fill:none; 
stroke:#AFAFAF; stroke-width:0.0212; stroke-opacity:1; 
stroke-linecap:round; stroke-linejoin:round;">
<circle cx="18.3512" cy="2.9983" r="0.8000" /> 
</g>
<g style="fill:none; 
stroke:#AFAFAF; stroke-width:0.0917; stroke-opacity:1; 
stroke-linecap:round; stroke-linejoin:round;">
<text x="17.5512" y="3.5482"
textLength="1.1026" font-size="1.4667" lengthAdjust="spacingAndGlyphs"
text-anchor="middle" opacity="0" stroke-opacity="0">2</text>
<g class="stroked-text"><desc>2</desc>
<path d="M17.2369 2.5071
L17.2893 2.4547
" />
<path d="M17.2893 2.4547
L17.3940 2.4024
" />
<path d="M17.3940 2.4024
L17.6560 2.4024
" />
<path d="M17.6560 2.4024
L17.7607 2.4547
" />
<path d="M17.7607 2.4547
L17.8131 2.5071
" />
<path d="M17.8131 2.5071
L17.8655 2.6119
" />
<path d="M17.8655 2.6119
L17.8655 2.7167
" />
<path d="M17.8655 2.7167
L17.8131 2.8738
" />
<path d="M17.8131 2.8738
L17.1845 3.5024
" />
<path d="M17.1845 3.5024
L17.8655 3.5024
" />
</g><path style="fill:none; 
stroke:#AFAFAF; stroke-width:0.0212; stroke-opacity:1; 
stroke-linecap:round; stroke-linejoin:round;fill:none"
d="M 15.9012,2.3582
15.9134,2.2970
15.9481,2.2451
16.0000,2.2104
16.0612,2.1982
19.0412,2.1982
19.1024,2.2104
19.1543,2.2451
19.1890,2.2970
19.2012,2.3582
19.2012,3.6382
19.1890,3.6995
19.1543,3.7514
19.1024,3.7861
19.0412,3.7982
16.0612,3.7982
16.0000,3.7861
15.9481,3.7514
15.9134,3.6995
15.9012,3.6382
Z" /> 
</g> 
</svg>
