<?xml version="1.0" standalone="no"?>
 <!DOCTYPE svg PUBLIC "-//W3C//DTD SVG 1.1//EN" 
 "http://www.w3.org/Graphics/SVG/1.1/DTD/svg11.dtd"> 
<svg
  xmlns:svg="http://www.w3.org/2000/svg"
  xmlns="http://www.w3.org/2000/svg"
  xmlns:xlink="http://www.w3.org/1999/xlink"
  version="1.1"
  width="21.0058mm" height="5.7912mm" viewBox="0.0000 0.0000 21.0058 5.7912">
<title>SVG Image created as Diode_SMD_SOD-123_inSilk.svg date 2025/05/12 03:05:50 </title>
  <desc>Image generated by PCBNEW </desc>
<g style="fill:#000000; fill-opacity:1.0000;stroke:#000000; stroke-opacity:1.0000;
stroke-linecap:round; stroke-linejoin:round;"
 transform="translate(0 0) scale(1 1)">
</g>
<g style="fill:none; 
stroke:#F2EDA1; stroke-width:0.1200; stroke-opacity:1; 
stroke-linecap:round; stroke-linejoin:round;">
<text x="10.5060" y="3.2482"
textLength="3.6286" font-size="1.0667" lengthAdjust="spacingAndGlyphs"
text-anchor="middle" opacity="0" stroke-opacity="0">REF**</text>
<g class="stroked-text"><desc>REF**</desc>
<path d="M9.4393 3.2121
L9.1726 2.8312
" />
<path d="M8.9821 3.2121
L8.9821 2.4121
" />
<path d="M8.9821 2.4121
L9.2869 2.4121
" />
<path d="M9.2869 2.4121
L9.3631 2.4502
" />
<path d="M9.3631 2.4502
L9.4012 2.4883
" />
<path d="M9.4012 2.4883
L9.4393 2.5645
" />
<path d="M9.4393 2.5645
L9.4393 2.6788
" />
<path d="M9.4393 2.6788
L9.4012 2.7550
" />
<path d="M9.4012 2.7550
L9.3631 2.7931
" />
<path d="M9.3631 2.7931
L9.2869 2.8312
" />
<path d="M9.2869 2.8312
L8.9821 2.8312
" />
<path d="M9.7821 2.7931
L10.0488 2.7931
" />
<path d="M10.1631 3.2121
L9.7821 3.2121
" />
<path d="M9.7821 3.2121
L9.7821 2.4121
" />
<path d="M9.7821 2.4121
L10.1631 2.4121
" />
<path d="M10.7726 2.7931
L10.5060 2.7931
" />
<path d="M10.5060 3.2121
L10.5060 2.4121
" />
<path d="M10.5060 2.4121
L10.8869 2.4121
" />
<path d="M11.3060 2.4121
L11.3060 2.6026
" />
<path d="M11.1155 2.5264
L11.3060 2.6026
" />
<path d="M11.3060 2.6026
L11.4964 2.5264
" />
<path d="M11.1917 2.7550
L11.3060 2.6026
" />
<path d="M11.3060 2.6026
L11.4202 2.7550
" />
<path d="M11.9155 2.4121
L11.9155 2.6026
" />
<path d="M11.7250 2.5264
L11.9155 2.6026
" />
<path d="M11.9155 2.6026
L12.1060 2.5264
" />
<path d="M11.8012 2.7550
L11.9155 2.6026
" />
<path d="M11.9155 2.6026
L12.0298 2.7550
" />
</g><path d="M8.1460 1.8482
L8.1460 3.8482
" />
<path d="M8.1460 1.8482
L12.1560 1.8482
" />
<path d="M8.1460 3.8482
L12.1560 3.8482
" />
<path style="fill:#B4A09A; fill-opacity:0.9000; stroke:none;fill-rule:evenodd;"
d="M 8.4060,2.4732
8.4231,2.3871
8.4719,2.3142
8.5448,2.2654
8.6310,2.2483
9.0810,2.2483
9.1671,2.2654
9.2401,2.3142
9.2888,2.3871
9.3060,2.4732
9.3060,3.2232
9.2888,3.3094
9.2401,3.3823
9.1671,3.4311
9.0810,3.4482
8.6310,3.4482
8.5448,3.4311
8.4719,3.3823
8.4231,3.3094
8.4060,3.2232
Z" /> 
<path style="fill:#B4A09A; fill-opacity:0.9000; stroke:none;fill-rule:evenodd;"
d="M 11.7060,2.4732
11.7231,2.3871
11.7719,2.3142
11.8448,2.2654
11.9310,2.2483
12.3810,2.2483
12.4671,2.2654
12.5401,2.3142
12.5888,2.3871
12.6060,2.4732
12.6060,3.2232
12.5888,3.3094
12.5401,3.3823
12.4671,3.4311
12.3810,3.4482
11.9310,3.4482
11.8448,3.4311
11.7719,3.3823
11.7231,3.3094
11.7060,3.2232
Z" /> 
<path style="fill:#C83434; fill-opacity:1.0000; stroke:none;fill-rule:evenodd;"
d="M 8.4060,2.4732
8.4231,2.3871
8.4719,2.3142
8.5448,2.2654
8.6310,2.2483
9.0810,2.2483
9.1671,2.2654
9.2401,2.3142
9.2888,2.3871
9.3060,2.4732
9.3060,3.2232
9.2888,3.3094
9.2401,3.3823
9.1671,3.4311
9.0810,3.4482
8.6310,3.4482
8.5448,3.4311
8.4719,3.3823
8.4231,3.3094
8.4060,3.2232
Z" /> 
<path style="fill:#C83434; fill-opacity:1.0000; stroke:none;fill-rule:evenodd;"
d="M 11.7060,2.4732
11.7231,2.3871
11.7719,2.3142
11.8448,2.2654
11.9310,2.2483
12.3810,2.2483
12.4671,2.2654
12.5401,2.3142
12.5888,2.3871
12.6060,2.4732
12.6060,3.2232
12.5888,3.3094
12.5401,3.3823
12.4671,3.4311
12.3810,3.4482
11.9310,3.4482
11.8448,3.4311
11.7719,3.3823
11.7231,3.3094
11.7060,3.2232
Z" /> 
</g>
<g style="fill:none; 
stroke:#AFAFAF; stroke-width:0.1500; stroke-opacity:1; 
stroke-linecap:round; stroke-linejoin:round;">
<text x="10.5060" y="5.4482"
textLength="21.0119" font-size="1.3333" lengthAdjust="spacingAndGlyphs"
text-anchor="middle" opacity="0" stroke-opacity="0">Diode_SMD_SOD-123_inSilk</text>
<g class="stroked-text"><desc>Diode_SMD_SOD-123_inSilk</desc>
<path d="M0.3631 5.4031
L0.3631 4.4031
" />
<path d="M0.3631 4.4031
L0.6012 4.4031
" />
<path d="M0.6012 4.4031
L0.7440 4.4507
" />
<path d="M0.7440 4.4507
L0.8393 4.5459
" />
<path d="M0.8393 4.5459
L0.8869 4.6412
" />
<path d="M0.8869 4.6412
L0.9345 4.8316
" />
<path d="M0.9345 4.8316
L0.9345 4.9745
" />
<path d="M0.9345 4.9745
L0.8869 5.1650
" />
<path d="M0.8869 5.1650
L0.8393 5.2602
" />
<path d="M0.8393 5.2602
L0.7440 5.3554
" />
<path d="M0.7440 5.3554
L0.6012 5.4031
" />
<path d="M0.6012 5.4031
L0.3631 5.4031
" />
<path d="M1.3631 5.4031
L1.3631 4.7364
" />
<path d="M1.3631 4.4031
L1.3155 4.4507
" />
<path d="M1.3155 4.4507
L1.3631 4.4983
" />
<path d="M1.3631 4.4983
L1.4107 4.4507
" />
<path d="M1.4107 4.4507
L1.3631 4.4031
" />
<path d="M1.3631 4.4031
L1.3631 4.4983
" />
<path d="M1.9821 5.4031
L1.8869 5.3554
" />
<path d="M1.8869 5.3554
L1.8393 5.3078
" />
<path d="M1.8393 5.3078
L1.7917 5.2126
" />
<path d="M1.7917 5.2126
L1.7917 4.9269
" />
<path d="M1.7917 4.9269
L1.8393 4.8316
" />
<path d="M1.8393 4.8316
L1.8869 4.7840
" />
<path d="M1.8869 4.7840
L1.9821 4.7364
" />
<path d="M1.9821 4.7364
L2.1250 4.7364
" />
<path d="M2.1250 4.7364
L2.2202 4.7840
" />
<path d="M2.2202 4.7840
L2.2679 4.8316
" />
<path d="M2.2679 4.8316
L2.3155 4.9269
" />
<path d="M2.3155 4.9269
L2.3155 5.2126
" />
<path d="M2.3155 5.2126
L2.2679 5.3078
" />
<path d="M2.2679 5.3078
L2.2202 5.3554
" />
<path d="M2.2202 5.3554
L2.1250 5.4031
" />
<path d="M2.1250 5.4031
L1.9821 5.4031
" />
<path d="M3.1726 5.4031
L3.1726 4.4031
" />
<path d="M3.1726 5.3554
L3.0774 5.4031
" />
<path d="M3.0774 5.4031
L2.8869 5.4031
" />
<path d="M2.8869 5.4031
L2.7917 5.3554
" />
<path d="M2.7917 5.3554
L2.7440 5.3078
" />
<path d="M2.7440 5.3078
L2.6964 5.2126
" />
<path d="M2.6964 5.2126
L2.6964 4.9269
" />
<path d="M2.6964 4.9269
L2.7440 4.8316
" />
<path d="M2.7440 4.8316
L2.7917 4.7840
" />
<path d="M2.7917 4.7840
L2.8869 4.7364
" />
<path d="M2.8869 4.7364
L3.0774 4.7364
" />
<path d="M3.0774 4.7364
L3.1726 4.7840
" />
<path d="M4.0298 5.3554
L3.9345 5.4031
" />
<path d="M3.9345 5.4031
L3.7440 5.4031
" />
<path d="M3.7440 5.4031
L3.6488 5.3554
" />
<path d="M3.6488 5.3554
L3.6012 5.2602
" />
<path d="M3.6012 5.2602
L3.6012 4.8793
" />
<path d="M3.6012 4.8793
L3.6488 4.7840
" />
<path d="M3.6488 4.7840
L3.7440 4.7364
" />
<path d="M3.7440 4.7364
L3.9345 4.7364
" />
<path d="M3.9345 4.7364
L4.0298 4.7840
" />
<path d="M4.0298 4.7840
L4.0774 4.8793
" />
<path d="M4.0774 4.8793
L4.0774 4.9745
" />
<path d="M4.0774 4.9745
L3.6012 5.0697
" />
<path d="M4.2679 5.4983
L5.0298 5.4983
" />
<path d="M5.2202 5.3554
L5.3631 5.4031
" />
<path d="M5.3631 5.4031
L5.6012 5.4031
" />
<path d="M5.6012 5.4031
L5.6964 5.3554
" />
<path d="M5.6964 5.3554
L5.7440 5.3078
" />
<path d="M5.7440 5.3078
L5.7917 5.2126
" />
<path d="M5.7917 5.2126
L5.7917 5.1174
" />
<path d="M5.7917 5.1174
L5.7440 5.0221
" />
<path d="M5.7440 5.0221
L5.6964 4.9745
" />
<path d="M5.6964 4.9745
L5.6012 4.9269
" />
<path d="M5.6012 4.9269
L5.4107 4.8793
" />
<path d="M5.4107 4.8793
L5.3155 4.8316
" />
<path d="M5.3155 4.8316
L5.2679 4.7840
" />
<path d="M5.2679 4.7840
L5.2202 4.6888
" />
<path d="M5.2202 4.6888
L5.2202 4.5935
" />
<path d="M5.2202 4.5935
L5.2679 4.4983
" />
<path d="M5.2679 4.4983
L5.3155 4.4507
" />
<path d="M5.3155 4.4507
L5.4107 4.4031
" />
<path d="M5.4107 4.4031
L5.6488 4.4031
" />
<path d="M5.6488 4.4031
L5.7917 4.4507
" />
<path d="M6.2202 5.4031
L6.2202 4.4031
" />
<path d="M6.2202 4.4031
L6.5536 5.1174
" />
<path d="M6.5536 5.1174
L6.8869 4.4031
" />
<path d="M6.8869 4.4031
L6.8869 5.4031
" />
<path d="M7.3631 5.4031
L7.3631 4.4031
" />
<path d="M7.3631 4.4031
L7.6012 4.4031
" />
<path d="M7.6012 4.4031
L7.7440 4.4507
" />
<path d="M7.7440 4.4507
L7.8393 4.5459
" />
<path d="M7.8393 4.5459
L7.8869 4.6412
" />
<path d="M7.8869 4.6412
L7.9345 4.8316
" />
<path d="M7.9345 4.8316
L7.9345 4.9745
" />
<path d="M7.9345 4.9745
L7.8869 5.1650
" />
<path d="M7.8869 5.1650
L7.8393 5.2602
" />
<path d="M7.8393 5.2602
L7.7440 5.3554
" />
<path d="M7.7440 5.3554
L7.6012 5.4031
" />
<path d="M7.6012 5.4031
L7.3631 5.4031
" />
<path d="M8.1250 5.4983
L8.8869 5.4983
" />
<path d="M9.0774 5.3554
L9.2202 5.4031
" />
<path d="M9.2202 5.4031
L9.4583 5.4031
" />
<path d="M9.4583 5.4031
L9.5536 5.3554
" />
<path d="M9.5536 5.3554
L9.6012 5.3078
" />
<path d="M9.6012 5.3078
L9.6488 5.2126
" />
<path d="M9.6488 5.2126
L9.6488 5.1174
" />
<path d="M9.6488 5.1174
L9.6012 5.0221
" />
<path d="M9.6012 5.0221
L9.5536 4.9745
" />
<path d="M9.5536 4.9745
L9.4583 4.9269
" />
<path d="M9.4583 4.9269
L9.2679 4.8793
" />
<path d="M9.2679 4.8793
L9.1726 4.8316
" />
<path d="M9.1726 4.8316
L9.1250 4.7840
" />
<path d="M9.1250 4.7840
L9.0774 4.6888
" />
<path d="M9.0774 4.6888
L9.0774 4.5935
" />
<path d="M9.0774 4.5935
L9.1250 4.4983
" />
<path d="M9.1250 4.4983
L9.1726 4.4507
" />
<path d="M9.1726 4.4507
L9.2679 4.4031
" />
<path d="M9.2679 4.4031
L9.5060 4.4031
" />
<path d="M9.5060 4.4031
L9.6488 4.4507
" />
<path d="M10.2679 4.4031
L10.4583 4.4031
" />
<path d="M10.4583 4.4031
L10.5536 4.4507
" />
<path d="M10.5536 4.4507
L10.6488 4.5459
" />
<path d="M10.6488 4.5459
L10.6964 4.7364
" />
<path d="M10.6964 4.7364
L10.6964 5.0697
" />
<path d="M10.6964 5.0697
L10.6488 5.2602
" />
<path d="M10.6488 5.2602
L10.5536 5.3554
" />
<path d="M10.5536 5.3554
L10.4583 5.4031
" />
<path d="M10.4583 5.4031
L10.2679 5.4031
" />
<path d="M10.2679 5.4031
L10.1726 5.3554
" />
<path d="M10.1726 5.3554
L10.0774 5.2602
" />
<path d="M10.0774 5.2602
L10.0298 5.0697
" />
<path d="M10.0298 5.0697
L10.0298 4.7364
" />
<path d="M10.0298 4.7364
L10.0774 4.5459
" />
<path d="M10.0774 4.5459
L10.1726 4.4507
" />
<path d="M10.1726 4.4507
L10.2679 4.4031
" />
<path d="M11.1250 5.4031
L11.1250 4.4031
" />
<path d="M11.1250 4.4031
L11.3631 4.4031
" />
<path d="M11.3631 4.4031
L11.5060 4.4507
" />
<path d="M11.5060 4.4507
L11.6012 4.5459
" />
<path d="M11.6012 4.5459
L11.6488 4.6412
" />
<path d="M11.6488 4.6412
L11.6964 4.8316
" />
<path d="M11.6964 4.8316
L11.6964 4.9745
" />
<path d="M11.6964 4.9745
L11.6488 5.1650
" />
<path d="M11.6488 5.1650
L11.6012 5.2602
" />
<path d="M11.6012 5.2602
L11.5060 5.3554
" />
<path d="M11.5060 5.3554
L11.3631 5.4031
" />
<path d="M11.3631 5.4031
L11.1250 5.4031
" />
<path d="M12.1250 5.0221
L12.8869 5.0221
" />
<path d="M13.8869 5.4031
L13.3155 5.4031
" />
<path d="M13.6012 5.4031
L13.6012 4.4031
" />
<path d="M13.6012 4.4031
L13.5060 4.5459
" />
<path d="M13.5060 4.5459
L13.4107 4.6412
" />
<path d="M13.4107 4.6412
L13.3155 4.6888
" />
<path d="M14.2679 4.4983
L14.3155 4.4507
" />
<path d="M14.3155 4.4507
L14.4107 4.4031
" />
<path d="M14.4107 4.4031
L14.6488 4.4031
" />
<path d="M14.6488 4.4031
L14.7440 4.4507
" />
<path d="M14.7440 4.4507
L14.7917 4.4983
" />
<path d="M14.7917 4.4983
L14.8393 4.5935
" />
<path d="M14.8393 4.5935
L14.8393 4.6888
" />
<path d="M14.8393 4.6888
L14.7917 4.8316
" />
<path d="M14.7917 4.8316
L14.2202 5.4031
" />
<path d="M14.2202 5.4031
L14.8393 5.4031
" />
<path d="M15.1726 4.4031
L15.7917 4.4031
" />
<path d="M15.7917 4.4031
L15.4583 4.7840
" />
<path d="M15.4583 4.7840
L15.6012 4.7840
" />
<path d="M15.6012 4.7840
L15.6964 4.8316
" />
<path d="M15.6964 4.8316
L15.7440 4.8793
" />
<path d="M15.7440 4.8793
L15.7917 4.9745
" />
<path d="M15.7917 4.9745
L15.7917 5.2126
" />
<path d="M15.7917 5.2126
L15.7440 5.3078
" />
<path d="M15.7440 5.3078
L15.6964 5.3554
" />
<path d="M15.6964 5.3554
L15.6012 5.4031
" />
<path d="M15.6012 5.4031
L15.3155 5.4031
" />
<path d="M15.3155 5.4031
L15.2202 5.3554
" />
<path d="M15.2202 5.3554
L15.1726 5.3078
" />
<path d="M15.9821 5.4983
L16.7440 5.4983
" />
<path d="M16.9821 5.4031
L16.9821 4.7364
" />
<path d="M16.9821 4.4031
L16.9345 4.4507
" />
<path d="M16.9345 4.4507
L16.9821 4.4983
" />
<path d="M16.9821 4.4983
L17.0298 4.4507
" />
<path d="M17.0298 4.4507
L16.9821 4.4031
" />
<path d="M16.9821 4.4031
L16.9821 4.4983
" />
<path d="M17.4583 4.7364
L17.4583 5.4031
" />
<path d="M17.4583 4.8316
L17.5060 4.7840
" />
<path d="M17.5060 4.7840
L17.6012 4.7364
" />
<path d="M17.6012 4.7364
L17.7440 4.7364
" />
<path d="M17.7440 4.7364
L17.8393 4.7840
" />
<path d="M17.8393 4.7840
L17.8869 4.8793
" />
<path d="M17.8869 4.8793
L17.8869 5.4031
" />
<path d="M18.3155 5.3554
L18.4583 5.4031
" />
<path d="M18.4583 5.4031
L18.6964 5.4031
" />
<path d="M18.6964 5.4031
L18.7917 5.3554
" />
<path d="M18.7917 5.3554
L18.8393 5.3078
" />
<path d="M18.8393 5.3078
L18.8869 5.2126
" />
<path d="M18.8869 5.2126
L18.8869 5.1174
" />
<path d="M18.8869 5.1174
L18.8393 5.0221
" />
<path d="M18.8393 5.0221
L18.7917 4.9745
" />
<path d="M18.7917 4.9745
L18.6964 4.9269
" />
<path d="M18.6964 4.9269
L18.5060 4.8793
" />
<path d="M18.5060 4.8793
L18.4107 4.8316
" />
<path d="M18.4107 4.8316
L18.3631 4.7840
" />
<path d="M18.3631 4.7840
L18.3155 4.6888
" />
<path d="M18.3155 4.6888
L18.3155 4.5935
" />
<path d="M18.3155 4.5935
L18.3631 4.4983
" />
<path d="M18.3631 4.4983
L18.4107 4.4507
" />
<path d="M18.4107 4.4507
L18.5060 4.4031
" />
<path d="M18.5060 4.4031
L18.7440 4.4031
" />
<path d="M18.7440 4.4031
L18.8869 4.4507
" />
<path d="M19.3155 5.4031
L19.3155 4.7364
" />
<path d="M19.3155 4.4031
L19.2679 4.4507
" />
<path d="M19.2679 4.4507
L19.3155 4.4983
" />
<path d="M19.3155 4.4983
L19.3631 4.4507
" />
<path d="M19.3631 4.4507
L19.3155 4.4031
" />
<path d="M19.3155 4.4031
L19.3155 4.4983
" />
<path d="M19.9345 5.4031
L19.8393 5.3554
" />
<path d="M19.8393 5.3554
L19.7917 5.2602
" />
<path d="M19.7917 5.2602
L19.7917 4.4031
" />
<path d="M20.3155 5.4031
L20.3155 4.4031
" />
<path d="M20.4107 5.0221
L20.6964 5.4031
" />
<path d="M20.6964 4.7364
L20.3155 5.1174
" />
</g><text x="10.5060" y="1.3482"
textLength="4.5357" font-size="1.3333" lengthAdjust="spacingAndGlyphs"
text-anchor="middle" opacity="0" stroke-opacity="0">REF**</text>
<g class="stroked-text"><desc>REF**</desc>
<path d="M9.1726 1.3031
L8.8393 0.8269
" />
<path d="M8.6012 1.3031
L8.6012 0.3031
" />
<path d="M8.6012 0.3031
L8.9821 0.3031
" />
<path d="M8.9821 0.3031
L9.0774 0.3507
" />
<path d="M9.0774 0.3507
L9.1250 0.3983
" />
<path d="M9.1250 0.3983
L9.1726 0.4935
" />
<path d="M9.1726 0.4935
L9.1726 0.6364
" />
<path d="M9.1726 0.6364
L9.1250 0.7316
" />
<path d="M9.1250 0.7316
L9.0774 0.7793
" />
<path d="M9.0774 0.7793
L8.9821 0.8269
" />
<path d="M8.9821 0.8269
L8.6012 0.8269
" />
<path d="M9.6012 0.7793
L9.9345 0.7793
" />
<path d="M10.0774 1.3031
L9.6012 1.3031
" />
<path d="M9.6012 1.3031
L9.6012 0.3031
" />
<path d="M9.6012 0.3031
L10.0774 0.3031
" />
<path d="M10.8393 0.7793
L10.5060 0.7793
" />
<path d="M10.5060 1.3031
L10.5060 0.3031
" />
<path d="M10.5060 0.3031
L10.9821 0.3031
" />
<path d="M11.5060 0.3031
L11.5060 0.5412
" />
<path d="M11.2679 0.4459
L11.5060 0.5412
" />
<path d="M11.5060 0.5412
L11.7440 0.4459
" />
<path d="M11.3631 0.7316
L11.5060 0.5412
" />
<path d="M11.5060 0.5412
L11.6488 0.7316
" />
<path d="M12.2679 0.3031
L12.2679 0.5412
" />
<path d="M12.0298 0.4459
L12.2679 0.5412
" />
<path d="M12.2679 0.5412
L12.5060 0.4459
" />
<path d="M12.1250 0.7316
L12.2679 0.5412
" />
<path d="M12.2679 0.5412
L12.4107 0.7316
" />
</g></g>
<g style="fill:none; 
stroke:#AFAFAF; stroke-width:0.1000; stroke-opacity:1; 
stroke-linecap:round; stroke-linejoin:round;">
<path d="M9.1060 1.9482
L11.9060 1.9482
" />
<path d="M9.1060 3.7482
L9.1060 1.9482
" />
<path d="M9.7560 2.8482
L10.1560 2.8482
" />
<path d="M10.1560 2.8482
L10.1560 2.2982
" />
<path d="M10.1560 2.8482
L10.1560 3.3982
" />
<path d="M10.1560 2.8482
L10.7560 2.4482
" />
<path d="M10.7560 2.4482
L10.7560 3.2482
" />
<path d="M10.7560 2.8482
L11.2560 2.8482
" />
<path d="M10.7560 3.2482
L10.1560 2.8482
" />
<path d="M11.9060 1.9482
L11.9060 3.7482
" />
<path d="M11.9060 3.7482
L9.1060 3.7482
" />
</g>
<g style="fill:none; 
stroke:#AFAFAF; stroke-width:0.0333; stroke-opacity:1; 
stroke-linecap:round; stroke-linejoin:round;">
<g transform="rotate(-90.000000 8.8560 2.8482)">
<text x="8.8560" y="3.0482"
textLength="0.4010" font-size="0.5333" lengthAdjust="spacingAndGlyphs"
text-anchor="middle" opacity="0" stroke-opacity="0">1</text>
</g>
<g class="stroked-text"><desc>1</desc>
<path d="M9.0393 2.7340
L9.0393 2.9625
" />
<path d="M9.0393 2.8482
L8.6393 2.8482
" />
<path d="M8.6393 2.8482
L8.6964 2.8863
" />
<path d="M8.6964 2.8863
L8.7345 2.9244
" />
<path d="M8.7345 2.9244
L8.7536 2.9625
" />
</g><path style="fill:none; 
stroke:#AFAFAF; stroke-width:0.0212; stroke-opacity:1; 
stroke-linecap:round; stroke-linejoin:round;fill:none"
d="M 8.4060,2.4732
8.4231,2.3871
8.4719,2.3142
8.5448,2.2654
8.6310,2.2483
9.0810,2.2483
9.1671,2.2654
9.2401,2.3142
9.2888,2.3871
9.3060,2.4732
9.3060,3.2232
9.2888,3.3094
9.2401,3.3823
9.1671,3.4311
9.0810,3.4482
8.6310,3.4482
8.5448,3.4311
8.4719,3.3823
8.4231,3.3094
8.4060,3.2232
Z" /> 
</g>
<g style="fill:none; 
stroke:#AFAFAF; stroke-width:0.0333; stroke-opacity:1; 
stroke-linecap:round; stroke-linejoin:round;">
<g transform="rotate(-90.000000 12.1560 2.8482)">
<text x="12.1560" y="3.0482"
textLength="0.4010" font-size="0.5333" lengthAdjust="spacingAndGlyphs"
text-anchor="middle" opacity="0" stroke-opacity="0">2</text>
</g>
<g class="stroked-text"><desc>2</desc>
<path d="M11.9774 2.9625
L11.9583 2.9435
" />
<path d="M11.9583 2.9435
L11.9393 2.9054
" />
<path d="M11.9393 2.9054
L11.9393 2.8102
" />
<path d="M11.9393 2.8102
L11.9583 2.7721
" />
<path d="M11.9583 2.7721
L11.9774 2.7530
" />
<path d="M11.9774 2.7530
L12.0155 2.7340
" />
<path d="M12.0155 2.7340
L12.0536 2.7340
" />
<path d="M12.0536 2.7340
L12.1107 2.7530
" />
<path d="M12.1107 2.7530
L12.3393 2.9816
" />
<path d="M12.3393 2.9816
L12.3393 2.7340
" />
</g><path style="fill:none; 
stroke:#AFAFAF; stroke-width:0.0212; stroke-opacity:1; 
stroke-linecap:round; stroke-linejoin:round;fill:none"
d="M 11.7060,2.4732
11.7231,2.3871
11.7719,2.3142
11.8448,2.2654
11.9310,2.2483
12.3810,2.2483
12.4671,2.2654
12.5401,2.3142
12.5888,2.3871
12.6060,2.4732
12.6060,3.2232
12.5888,3.3094
12.5401,3.3823
12.4671,3.4311
12.3810,3.4482
11.9310,3.4482
11.8448,3.4311
11.7719,3.3823
11.7231,3.3094
11.7060,3.2232
Z" /> 
</g> 
</svg>
