<?xml version="1.0" standalone="no"?>
 <!DOCTYPE svg PUBLIC "-//W3C//DTD SVG 1.1//EN" 
 "http://www.w3.org/Graphics/SVG/1.1/DTD/svg11.dtd"> 
<svg
  xmlns:svg="http://www.w3.org/2000/svg"
  xmlns="http://www.w3.org/2000/svg"
  xmlns:xlink="http://www.w3.org/1999/xlink"
  version="1.1"
  width="21.2344mm" height="7.6962mm" viewBox="0.0000 0.0000 21.2344 7.6962">
<title>SVG Image created as LED_SK6812MINI-E_Rotated.svg date 2025/04/12 02:58:43 </title>
  <desc>Image generated by PCBNEW </desc>
<g style="fill:#000000; fill-opacity:1.0000;stroke:#000000; stroke-opacity:1.0000;
stroke-linecap:round; stroke-linejoin:round;"
 transform="translate(0 0) scale(1 1)">
</g>
<g style="fill:none; 
stroke:#F2EDA1; stroke-width:0.1500; stroke-opacity:1; 
stroke-linecap:round; stroke-linejoin:round;">
<text x="10.6250" y="7.3482"
textLength="4.5357" font-size="1.3333" lengthAdjust="spacingAndGlyphs"
text-anchor="middle" opacity="0" stroke-opacity="0">REF**</text>
<g class="stroked-text"><desc>REF**</desc>
<path d="M9.2917 7.3031
L8.9583 6.8269
" />
<path d="M8.7202 7.3031
L8.7202 6.3031
" />
<path d="M8.7202 6.3031
L9.1012 6.3031
" />
<path d="M9.1012 6.3031
L9.1964 6.3507
" />
<path d="M9.1964 6.3507
L9.2440 6.3983
" />
<path d="M9.2440 6.3983
L9.2917 6.4935
" />
<path d="M9.2917 6.4935
L9.2917 6.6364
" />
<path d="M9.2917 6.6364
L9.2440 6.7316
" />
<path d="M9.2440 6.7316
L9.1964 6.7793
" />
<path d="M9.1964 6.7793
L9.1012 6.8269
" />
<path d="M9.1012 6.8269
L8.7202 6.8269
" />
<path d="M9.7202 6.7793
L10.0536 6.7793
" />
<path d="M10.1964 7.3031
L9.7202 7.3031
" />
<path d="M9.7202 7.3031
L9.7202 6.3031
" />
<path d="M9.7202 6.3031
L10.1964 6.3031
" />
<path d="M10.9583 6.7793
L10.6250 6.7793
" />
<path d="M10.6250 7.3031
L10.6250 6.3031
" />
<path d="M10.6250 6.3031
L11.1012 6.3031
" />
<path d="M11.6250 6.3031
L11.6250 6.5412
" />
<path d="M11.3869 6.4459
L11.6250 6.5412
" />
<path d="M11.6250 6.5412
L11.8631 6.4459
" />
<path d="M11.4821 6.7316
L11.6250 6.5412
" />
<path d="M11.6250 6.5412
L11.7679 6.7316
" />
<path d="M12.3869 6.3031
L12.3869 6.5412
" />
<path d="M12.1488 6.4459
L12.3869 6.5412
" />
<path d="M12.3869 6.5412
L12.6250 6.4459
" />
<path d="M12.2440 6.7316
L12.3869 6.5412
" />
<path d="M12.3869 6.5412
L12.5298 6.7316
" />
</g><path style="fill:#F2EDA1; fill-opacity:1.0000; 
stroke:#F2EDA1; stroke-width:0.1000; stroke-opacity:1; 
stroke-linecap:round; stroke-linejoin:round;fill-rule:evenodd;"
d="M 7.3900,5.2132
6.9100,5.2132
6.9100,4.7332
Z" /> 
<path style="fill:#B4A09A; fill-opacity:0.9000; stroke:none;fill-rule:evenodd;"
d="M 12.8070,3.5082
12.7756,3.5020
12.7490,3.4842
12.7312,3.4576
12.7250,3.4263
12.7250,2.7702
12.7312,2.7389
12.7490,2.7123
12.7756,2.6945
12.8070,2.6883
14.0430,2.6883
14.0744,2.6945
14.1010,2.7123
14.1188,2.7389
14.1250,2.7702
14.1250,3.4263
14.1188,3.4576
14.1010,3.4842
14.0744,3.5020
14.0430,3.5082
Z" /> 
<path style="fill:#B4A09A; fill-opacity:0.9000; stroke:none;fill-rule:evenodd;"
d="M 12.8070,5.0082
12.7756,5.0020
12.7490,4.9842
12.7312,4.9576
12.7250,4.9262
12.7250,4.2702
12.7312,4.2389
12.7490,4.2123
12.7756,4.1945
12.8070,4.1883
14.0430,4.1883
14.0744,4.1945
14.1010,4.2123
14.1188,4.2389
14.1250,4.2702
14.1250,4.9262
14.1188,4.9576
14.1010,4.9842
14.0744,5.0020
14.0430,5.0082
Z" /> 
<path style="fill:#B4A09A; fill-opacity:0.9000; stroke:none;fill-rule:evenodd;"
d="M 7.5350,5.0082
7.1250,4.5983
7.1250,4.2702
7.1312,4.2389
7.1490,4.2123
7.1756,4.1945
7.2070,4.1883
8.4430,4.1883
8.4744,4.1945
8.5010,4.2123
8.5188,4.2389
8.5250,4.2702
8.5250,4.9262
8.5188,4.9576
8.5010,4.9842
8.4744,5.0020
8.4430,5.0082
Z" /> 
<path style="fill:#B4A09A; fill-opacity:0.9000; stroke:none;fill-rule:evenodd;"
d="M 7.2070,3.5082
7.1756,3.5020
7.1490,3.4842
7.1312,3.4576
7.1250,3.4263
7.1250,2.7702
7.1312,2.7389
7.1490,2.7123
7.1756,2.6945
7.2070,2.6883
8.4430,2.6883
8.4744,2.6945
8.5010,2.7123
8.5188,2.7389
8.5250,2.7702
8.5250,3.4263
8.5188,3.4576
8.5010,3.4842
8.4744,3.5020
8.4430,3.5082
Z" /> 
<path style="fill:#C83434; fill-opacity:1.0000; stroke:none;fill-rule:evenodd;"
d="M 12.8070,3.5082
12.7756,3.5020
12.7490,3.4842
12.7312,3.4576
12.7250,3.4263
12.7250,2.7702
12.7312,2.7389
12.7490,2.7123
12.7756,2.6945
12.8070,2.6883
14.0430,2.6883
14.0744,2.6945
14.1010,2.7123
14.1188,2.7389
14.1250,2.7702
14.1250,3.4263
14.1188,3.4576
14.1010,3.4842
14.0744,3.5020
14.0430,3.5082
Z" /> 
<path style="fill:#C83434; fill-opacity:1.0000; stroke:none;fill-rule:evenodd;"
d="M 12.8070,5.0082
12.7756,5.0020
12.7490,4.9842
12.7312,4.9576
12.7250,4.9262
12.7250,4.2702
12.7312,4.2389
12.7490,4.2123
12.7756,4.1945
12.8070,4.1883
14.0430,4.1883
14.0744,4.1945
14.1010,4.2123
14.1188,4.2389
14.1250,4.2702
14.1250,4.9262
14.1188,4.9576
14.1010,4.9842
14.0744,5.0020
14.0430,5.0082
Z" /> 
<path style="fill:#C83434; fill-opacity:1.0000; stroke:none;fill-rule:evenodd;"
d="M 7.5350,5.0082
7.1250,4.5983
7.1250,4.2702
7.1312,4.2389
7.1490,4.2123
7.1756,4.1945
7.2070,4.1883
8.4430,4.1883
8.4744,4.1945
8.5010,4.2123
8.5188,4.2389
8.5250,4.2702
8.5250,4.9262
8.5188,4.9576
8.5010,4.9842
8.4744,5.0020
8.4430,5.0082
Z" /> 
<path style="fill:#C83434; fill-opacity:1.0000; stroke:none;fill-rule:evenodd;"
d="M 7.2070,3.5082
7.1756,3.5020
7.1490,3.4842
7.1312,3.4576
7.1250,3.4263
7.1250,2.7702
7.1312,2.7389
7.1490,2.7123
7.1756,2.6945
7.2070,2.6883
8.4430,2.6883
8.4744,2.6945
8.5010,2.7123
8.5188,2.7389
8.5250,2.7702
8.5250,3.4263
8.5188,3.4576
8.5010,3.4842
8.4744,3.5020
8.4430,3.5082
Z" /> 
</g>
<g style="fill:none; 
stroke:#AFAFAF; stroke-width:0.1500; stroke-opacity:1; 
stroke-linecap:round; stroke-linejoin:round;">
<text x="10.6250" y="1.3482"
textLength="21.2500" font-size="1.3333" lengthAdjust="spacingAndGlyphs"
text-anchor="middle" opacity="0" stroke-opacity="0">LED_SK6812MINI-E_Rotated</text>
<g class="stroked-text"><desc>LED_SK6812MINI-E_Rotated</desc>
<path d="M0.8393 1.3031
L0.3631 1.3031
" />
<path d="M0.3631 1.3031
L0.3631 0.3031
" />
<path d="M1.1726 0.7793
L1.5060 0.7793
" />
<path d="M1.6488 1.3031
L1.1726 1.3031
" />
<path d="M1.1726 1.3031
L1.1726 0.3031
" />
<path d="M1.1726 0.3031
L1.6488 0.3031
" />
<path d="M2.0774 1.3031
L2.0774 0.3031
" />
<path d="M2.0774 0.3031
L2.3155 0.3031
" />
<path d="M2.3155 0.3031
L2.4583 0.3507
" />
<path d="M2.4583 0.3507
L2.5536 0.4459
" />
<path d="M2.5536 0.4459
L2.6012 0.5412
" />
<path d="M2.6012 0.5412
L2.6488 0.7316
" />
<path d="M2.6488 0.7316
L2.6488 0.8745
" />
<path d="M2.6488 0.8745
L2.6012 1.0650
" />
<path d="M2.6012 1.0650
L2.5536 1.1602
" />
<path d="M2.5536 1.1602
L2.4583 1.2554
" />
<path d="M2.4583 1.2554
L2.3155 1.3031
" />
<path d="M2.3155 1.3031
L2.0774 1.3031
" />
<path d="M2.8393 1.3983
L3.6012 1.3983
" />
<path d="M3.7917 1.2554
L3.9345 1.3031
" />
<path d="M3.9345 1.3031
L4.1726 1.3031
" />
<path d="M4.1726 1.3031
L4.2679 1.2554
" />
<path d="M4.2679 1.2554
L4.3155 1.2078
" />
<path d="M4.3155 1.2078
L4.3631 1.1126
" />
<path d="M4.3631 1.1126
L4.3631 1.0174
" />
<path d="M4.3631 1.0174
L4.3155 0.9221
" />
<path d="M4.3155 0.9221
L4.2679 0.8745
" />
<path d="M4.2679 0.8745
L4.1726 0.8269
" />
<path d="M4.1726 0.8269
L3.9821 0.7793
" />
<path d="M3.9821 0.7793
L3.8869 0.7316
" />
<path d="M3.8869 0.7316
L3.8393 0.6840
" />
<path d="M3.8393 0.6840
L3.7917 0.5888
" />
<path d="M3.7917 0.5888
L3.7917 0.4935
" />
<path d="M3.7917 0.4935
L3.8393 0.3983
" />
<path d="M3.8393 0.3983
L3.8869 0.3507
" />
<path d="M3.8869 0.3507
L3.9821 0.3031
" />
<path d="M3.9821 0.3031
L4.2202 0.3031
" />
<path d="M4.2202 0.3031
L4.3631 0.3507
" />
<path d="M4.7917 1.3031
L4.7917 0.3031
" />
<path d="M5.3631 1.3031
L4.9345 0.7316
" />
<path d="M5.3631 0.3031
L4.7917 0.8745
" />
<path d="M6.2202 0.3031
L6.0298 0.3031
" />
<path d="M6.0298 0.3031
L5.9345 0.3507
" />
<path d="M5.9345 0.3507
L5.8869 0.3983
" />
<path d="M5.8869 0.3983
L5.7917 0.5412
" />
<path d="M5.7917 0.5412
L5.7440 0.7316
" />
<path d="M5.7440 0.7316
L5.7440 1.1126
" />
<path d="M5.7440 1.1126
L5.7917 1.2078
" />
<path d="M5.7917 1.2078
L5.8393 1.2554
" />
<path d="M5.8393 1.2554
L5.9345 1.3031
" />
<path d="M5.9345 1.3031
L6.1250 1.3031
" />
<path d="M6.1250 1.3031
L6.2202 1.2554
" />
<path d="M6.2202 1.2554
L6.2679 1.2078
" />
<path d="M6.2679 1.2078
L6.3155 1.1126
" />
<path d="M6.3155 1.1126
L6.3155 0.8745
" />
<path d="M6.3155 0.8745
L6.2679 0.7793
" />
<path d="M6.2679 0.7793
L6.2202 0.7316
" />
<path d="M6.2202 0.7316
L6.1250 0.6840
" />
<path d="M6.1250 0.6840
L5.9345 0.6840
" />
<path d="M5.9345 0.6840
L5.8393 0.7316
" />
<path d="M5.8393 0.7316
L5.7917 0.7793
" />
<path d="M5.7917 0.7793
L5.7440 0.8745
" />
<path d="M6.8869 0.7316
L6.7917 0.6840
" />
<path d="M6.7917 0.6840
L6.7440 0.6364
" />
<path d="M6.7440 0.6364
L6.6964 0.5412
" />
<path d="M6.6964 0.5412
L6.6964 0.4935
" />
<path d="M6.6964 0.4935
L6.7440 0.3983
" />
<path d="M6.7440 0.3983
L6.7917 0.3507
" />
<path d="M6.7917 0.3507
L6.8869 0.3031
" />
<path d="M6.8869 0.3031
L7.0774 0.3031
" />
<path d="M7.0774 0.3031
L7.1726 0.3507
" />
<path d="M7.1726 0.3507
L7.2202 0.3983
" />
<path d="M7.2202 0.3983
L7.2679 0.4935
" />
<path d="M7.2679 0.4935
L7.2679 0.5412
" />
<path d="M7.2679 0.5412
L7.2202 0.6364
" />
<path d="M7.2202 0.6364
L7.1726 0.6840
" />
<path d="M7.1726 0.6840
L7.0774 0.7316
" />
<path d="M7.0774 0.7316
L6.8869 0.7316
" />
<path d="M6.8869 0.7316
L6.7917 0.7793
" />
<path d="M6.7917 0.7793
L6.7440 0.8269
" />
<path d="M6.7440 0.8269
L6.6964 0.9221
" />
<path d="M6.6964 0.9221
L6.6964 1.1126
" />
<path d="M6.6964 1.1126
L6.7440 1.2078
" />
<path d="M6.7440 1.2078
L6.7917 1.2554
" />
<path d="M6.7917 1.2554
L6.8869 1.3031
" />
<path d="M6.8869 1.3031
L7.0774 1.3031
" />
<path d="M7.0774 1.3031
L7.1726 1.2554
" />
<path d="M7.1726 1.2554
L7.2202 1.2078
" />
<path d="M7.2202 1.2078
L7.2679 1.1126
" />
<path d="M7.2679 1.1126
L7.2679 0.9221
" />
<path d="M7.2679 0.9221
L7.2202 0.8269
" />
<path d="M7.2202 0.8269
L7.1726 0.7793
" />
<path d="M7.1726 0.7793
L7.0774 0.7316
" />
<path d="M8.2202 1.3031
L7.6488 1.3031
" />
<path d="M7.9345 1.3031
L7.9345 0.3031
" />
<path d="M7.9345 0.3031
L7.8393 0.4459
" />
<path d="M7.8393 0.4459
L7.7440 0.5412
" />
<path d="M7.7440 0.5412
L7.6488 0.5888
" />
<path d="M8.6012 0.3983
L8.6488 0.3507
" />
<path d="M8.6488 0.3507
L8.7440 0.3031
" />
<path d="M8.7440 0.3031
L8.9821 0.3031
" />
<path d="M8.9821 0.3031
L9.0774 0.3507
" />
<path d="M9.0774 0.3507
L9.1250 0.3983
" />
<path d="M9.1250 0.3983
L9.1726 0.4935
" />
<path d="M9.1726 0.4935
L9.1726 0.5888
" />
<path d="M9.1726 0.5888
L9.1250 0.7316
" />
<path d="M9.1250 0.7316
L8.5536 1.3031
" />
<path d="M8.5536 1.3031
L9.1726 1.3031
" />
<path d="M9.6012 1.3031
L9.6012 0.3031
" />
<path d="M9.6012 0.3031
L9.9345 1.0174
" />
<path d="M9.9345 1.0174
L10.2679 0.3031
" />
<path d="M10.2679 0.3031
L10.2679 1.3031
" />
<path d="M10.7440 1.3031
L10.7440 0.3031
" />
<path d="M11.2202 1.3031
L11.2202 0.3031
" />
<path d="M11.2202 0.3031
L11.7917 1.3031
" />
<path d="M11.7917 1.3031
L11.7917 0.3031
" />
<path d="M12.2679 1.3031
L12.2679 0.3031
" />
<path d="M12.7440 0.9221
L13.5060 0.9221
" />
<path d="M13.9821 0.7793
L14.3155 0.7793
" />
<path d="M14.4583 1.3031
L13.9821 1.3031
" />
<path d="M13.9821 1.3031
L13.9821 0.3031
" />
<path d="M13.9821 0.3031
L14.4583 0.3031
" />
<path d="M14.6488 1.3983
L15.4107 1.3983
" />
<path d="M16.2202 1.3031
L15.8869 0.8269
" />
<path d="M15.6488 1.3031
L15.6488 0.3031
" />
<path d="M15.6488 0.3031
L16.0298 0.3031
" />
<path d="M16.0298 0.3031
L16.1250 0.3507
" />
<path d="M16.1250 0.3507
L16.1726 0.3983
" />
<path d="M16.1726 0.3983
L16.2202 0.4935
" />
<path d="M16.2202 0.4935
L16.2202 0.6364
" />
<path d="M16.2202 0.6364
L16.1726 0.7316
" />
<path d="M16.1726 0.7316
L16.1250 0.7793
" />
<path d="M16.1250 0.7793
L16.0298 0.8269
" />
<path d="M16.0298 0.8269
L15.6488 0.8269
" />
<path d="M16.7917 1.3031
L16.6964 1.2554
" />
<path d="M16.6964 1.2554
L16.6488 1.2078
" />
<path d="M16.6488 1.2078
L16.6012 1.1126
" />
<path d="M16.6012 1.1126
L16.6012 0.8269
" />
<path d="M16.6012 0.8269
L16.6488 0.7316
" />
<path d="M16.6488 0.7316
L16.6964 0.6840
" />
<path d="M16.6964 0.6840
L16.7917 0.6364
" />
<path d="M16.7917 0.6364
L16.9345 0.6364
" />
<path d="M16.9345 0.6364
L17.0298 0.6840
" />
<path d="M17.0298 0.6840
L17.0774 0.7316
" />
<path d="M17.0774 0.7316
L17.1250 0.8269
" />
<path d="M17.1250 0.8269
L17.1250 1.1126
" />
<path d="M17.1250 1.1126
L17.0774 1.2078
" />
<path d="M17.0774 1.2078
L17.0298 1.2554
" />
<path d="M17.0298 1.2554
L16.9345 1.3031
" />
<path d="M16.9345 1.3031
L16.7917 1.3031
" />
<path d="M17.4107 0.6364
L17.7917 0.6364
" />
<path d="M17.5536 0.3031
L17.5536 1.1602
" />
<path d="M17.5536 1.1602
L17.6012 1.2554
" />
<path d="M17.6012 1.2554
L17.6964 1.3031
" />
<path d="M17.6964 1.3031
L17.7917 1.3031
" />
<path d="M18.5536 1.3031
L18.5536 0.7793
" />
<path d="M18.5536 0.7793
L18.5060 0.6840
" />
<path d="M18.5060 0.6840
L18.4107 0.6364
" />
<path d="M18.4107 0.6364
L18.2202 0.6364
" />
<path d="M18.2202 0.6364
L18.1250 0.6840
" />
<path d="M18.5536 1.2554
L18.4583 1.3031
" />
<path d="M18.4583 1.3031
L18.2202 1.3031
" />
<path d="M18.2202 1.3031
L18.1250 1.2554
" />
<path d="M18.1250 1.2554
L18.0774 1.1602
" />
<path d="M18.0774 1.1602
L18.0774 1.0650
" />
<path d="M18.0774 1.0650
L18.1250 0.9697
" />
<path d="M18.1250 0.9697
L18.2202 0.9221
" />
<path d="M18.2202 0.9221
L18.4583 0.9221
" />
<path d="M18.4583 0.9221
L18.5536 0.8745
" />
<path d="M18.8869 0.6364
L19.2679 0.6364
" />
<path d="M19.0298 0.3031
L19.0298 1.1602
" />
<path d="M19.0298 1.1602
L19.0774 1.2554
" />
<path d="M19.0774 1.2554
L19.1726 1.3031
" />
<path d="M19.1726 1.3031
L19.2679 1.3031
" />
<path d="M19.9821 1.2554
L19.8869 1.3031
" />
<path d="M19.8869 1.3031
L19.6964 1.3031
" />
<path d="M19.6964 1.3031
L19.6012 1.2554
" />
<path d="M19.6012 1.2554
L19.5536 1.1602
" />
<path d="M19.5536 1.1602
L19.5536 0.7793
" />
<path d="M19.5536 0.7793
L19.6012 0.6840
" />
<path d="M19.6012 0.6840
L19.6964 0.6364
" />
<path d="M19.6964 0.6364
L19.8869 0.6364
" />
<path d="M19.8869 0.6364
L19.9821 0.6840
" />
<path d="M19.9821 0.6840
L20.0298 0.7793
" />
<path d="M20.0298 0.7793
L20.0298 0.8745
" />
<path d="M20.0298 0.8745
L19.5536 0.9697
" />
<path d="M20.8869 1.3031
L20.8869 0.3031
" />
<path d="M20.8869 1.2554
L20.7917 1.3031
" />
<path d="M20.7917 1.3031
L20.6012 1.3031
" />
<path d="M20.6012 1.3031
L20.5060 1.2554
" />
<path d="M20.5060 1.2554
L20.4583 1.2078
" />
<path d="M20.4583 1.2078
L20.4107 1.1126
" />
<path d="M20.4107 1.1126
L20.4107 0.8269
" />
<path d="M20.4107 0.8269
L20.4583 0.7316
" />
<path d="M20.4583 0.7316
L20.5060 0.6840
" />
<path d="M20.5060 0.6840
L20.6012 0.6364
" />
<path d="M20.6012 0.6364
L20.7917 0.6364
" />
<path d="M20.7917 0.6364
L20.8869 0.6840
" />
</g><text x="10.6250" y="7.3482"
textLength="4.5357" font-size="1.3333" lengthAdjust="spacingAndGlyphs"
text-anchor="middle" opacity="0" stroke-opacity="0">REF**</text>
<g class="stroked-text"><desc>REF**</desc>
<path d="M9.2917 7.3031
L8.9583 6.8269
" />
<path d="M8.7202 7.3031
L8.7202 6.3031
" />
<path d="M8.7202 6.3031
L9.1012 6.3031
" />
<path d="M9.1012 6.3031
L9.1964 6.3507
" />
<path d="M9.1964 6.3507
L9.2440 6.3983
" />
<path d="M9.2440 6.3983
L9.2917 6.4935
" />
<path d="M9.2917 6.4935
L9.2917 6.6364
" />
<path d="M9.2917 6.6364
L9.2440 6.7316
" />
<path d="M9.2440 6.7316
L9.1964 6.7793
" />
<path d="M9.1964 6.7793
L9.1012 6.8269
" />
<path d="M9.1012 6.8269
L8.7202 6.8269
" />
<path d="M9.7202 6.7793
L10.0536 6.7793
" />
<path d="M10.1964 7.3031
L9.7202 7.3031
" />
<path d="M9.7202 7.3031
L9.7202 6.3031
" />
<path d="M9.7202 6.3031
L10.1964 6.3031
" />
<path d="M10.9583 6.7793
L10.6250 6.7793
" />
<path d="M10.6250 7.3031
L10.6250 6.3031
" />
<path d="M10.6250 6.3031
L11.1012 6.3031
" />
<path d="M11.6250 6.3031
L11.6250 6.5412
" />
<path d="M11.3869 6.4459
L11.6250 6.5412
" />
<path d="M11.6250 6.5412
L11.8631 6.4459
" />
<path d="M11.4821 6.7316
L11.6250 6.5412
" />
<path d="M11.6250 6.5412
L11.7679 6.7316
" />
<path d="M12.3869 6.3031
L12.3869 6.5412
" />
<path d="M12.1488 6.4459
L12.3869 6.5412
" />
<path d="M12.3869 6.5412
L12.6250 6.4459
" />
<path d="M12.2440 6.7316
L12.3869 6.5412
" />
<path d="M12.3869 6.5412
L12.5298 6.7316
" />
</g></g>
<g style="fill:none; 
stroke:#AFAFAF; stroke-width:0.1200; stroke-opacity:1; 
stroke-linecap:round; stroke-linejoin:round;">
<path d="M9.0250 2.4482
L12.2250 2.4482
" />
<path d="M9.0250 4.7482
L9.0250 2.4482
" />
<path d="M9.0250 4.7482
L9.5250 5.2482
" />
<path d="M12.2250 2.4482
L12.2250 5.2482
" />
<path d="M12.2250 5.2482
L9.5250 5.2482
" />
</g>
<g style="fill:none; 
stroke:#AFAFAF; stroke-width:0.0389; stroke-opacity:1; 
stroke-linecap:round; stroke-linejoin:round;">
<text x="13.4250" y="3.3316"
textLength="0.4678" font-size="0.6222" lengthAdjust="spacingAndGlyphs"
text-anchor="middle" opacity="0" stroke-opacity="0">1</text>
<g class="stroked-text"><desc>1</desc>
<path d="M13.5583 3.3121
L13.2917 3.3121
" />
<path d="M13.4250 3.3121
L13.4250 2.8455
" />
<path d="M13.4250 2.8455
L13.3806 2.9121
" />
<path d="M13.3806 2.9121
L13.3361 2.9566
" />
<path d="M13.3361 2.9566
L13.2917 2.9788
" />
</g><path style="fill:none; 
stroke:#AFAFAF; stroke-width:0.0212; stroke-opacity:1; 
stroke-linecap:round; stroke-linejoin:round;fill:none"
d="M 12.8070,3.5082
12.7756,3.5020
12.7490,3.4842
12.7312,3.4576
12.7250,3.4263
12.7250,2.7702
12.7312,2.7389
12.7490,2.7123
12.7756,2.6945
12.8070,2.6883
14.0430,2.6883
14.0744,2.6945
14.1010,2.7123
14.1188,2.7389
14.1250,2.7702
14.1250,3.4263
14.1188,3.4576
14.1010,3.4842
14.0744,3.5020
14.0430,3.5082
Z" /> 
</g>
<g style="fill:none; 
stroke:#AFAFAF; stroke-width:0.0389; stroke-opacity:1; 
stroke-linecap:round; stroke-linejoin:round;">
<text x="13.4250" y="4.8316"
textLength="0.4678" font-size="0.6222" lengthAdjust="spacingAndGlyphs"
text-anchor="middle" opacity="0" stroke-opacity="0">2</text>
<g class="stroked-text"><desc>2</desc>
<path d="M13.2917 4.3899
L13.3139 4.3677
" />
<path d="M13.3139 4.3677
L13.3583 4.3454
" />
<path d="M13.3583 4.3454
L13.4694 4.3454
" />
<path d="M13.4694 4.3454
L13.5139 4.3677
" />
<path d="M13.5139 4.3677
L13.5361 4.3899
" />
<path d="M13.5361 4.3899
L13.5583 4.4343
" />
<path d="M13.5583 4.4343
L13.5583 4.4788
" />
<path d="M13.5583 4.4788
L13.5361 4.5454
" />
<path d="M13.5361 4.5454
L13.2694 4.8121
" />
<path d="M13.2694 4.8121
L13.5583 4.8121
" />
</g><path style="fill:none; 
stroke:#AFAFAF; stroke-width:0.0212; stroke-opacity:1; 
stroke-linecap:round; stroke-linejoin:round;fill:none"
d="M 12.8070,5.0082
12.7756,5.0020
12.7490,4.9842
12.7312,4.9576
12.7250,4.9262
12.7250,4.2702
12.7312,4.2389
12.7490,4.2123
12.7756,4.1945
12.8070,4.1883
14.0430,4.1883
14.0744,4.1945
14.1010,4.2123
14.1188,4.2389
14.1250,4.2702
14.1250,4.9262
14.1188,4.9576
14.1010,4.9842
14.0744,5.0020
14.0430,5.0082
Z" /> 
</g>
<g style="fill:none; 
stroke:#AFAFAF; stroke-width:0.0389; stroke-opacity:1; 
stroke-linecap:round; stroke-linejoin:round;">
<text x="7.8250" y="4.8316"
textLength="0.4678" font-size="0.6222" lengthAdjust="spacingAndGlyphs"
text-anchor="middle" opacity="0" stroke-opacity="0">3</text>
<g class="stroked-text"><desc>3</desc>
<path d="M7.6694 4.3454
L7.9583 4.3454
" />
<path d="M7.9583 4.3454
L7.8028 4.5232
" />
<path d="M7.8028 4.5232
L7.8694 4.5232
" />
<path d="M7.8694 4.5232
L7.9139 4.5454
" />
<path d="M7.9139 4.5454
L7.9361 4.5677
" />
<path d="M7.9361 4.5677
L7.9583 4.6121
" />
<path d="M7.9583 4.6121
L7.9583 4.7232
" />
<path d="M7.9583 4.7232
L7.9361 4.7677
" />
<path d="M7.9361 4.7677
L7.9139 4.7899
" />
<path d="M7.9139 4.7899
L7.8694 4.8121
" />
<path d="M7.8694 4.8121
L7.7361 4.8121
" />
<path d="M7.7361 4.8121
L7.6917 4.7899
" />
<path d="M7.6917 4.7899
L7.6694 4.7677
" />
</g><path style="fill:none; 
stroke:#AFAFAF; stroke-width:0.0212; stroke-opacity:1; 
stroke-linecap:round; stroke-linejoin:round;fill:none"
d="M 7.5350,5.0082
7.1250,4.5983
7.1250,4.2702
7.1312,4.2389
7.1490,4.2123
7.1756,4.1945
7.2070,4.1883
8.4430,4.1883
8.4744,4.1945
8.5010,4.2123
8.5188,4.2389
8.5250,4.2702
8.5250,4.9262
8.5188,4.9576
8.5010,4.9842
8.4744,5.0020
8.4430,5.0082
Z" /> 
</g>
<g style="fill:none; 
stroke:#AFAFAF; stroke-width:0.0389; stroke-opacity:1; 
stroke-linecap:round; stroke-linejoin:round;">
<text x="7.8250" y="3.3316"
textLength="0.4678" font-size="0.6222" lengthAdjust="spacingAndGlyphs"
text-anchor="middle" opacity="0" stroke-opacity="0">4</text>
<g class="stroked-text"><desc>4</desc>
<path d="M7.9139 3.0010
L7.9139 3.3121
" />
<path d="M7.8028 2.8232
L7.6917 3.1566
" />
<path d="M7.6917 3.1566
L7.9806 3.1566
" />
</g><path style="fill:none; 
stroke:#AFAFAF; stroke-width:0.0212; stroke-opacity:1; 
stroke-linecap:round; stroke-linejoin:round;fill:none"
d="M 7.2070,3.5082
7.1756,3.5020
7.1490,3.4842
7.1312,3.4576
7.1250,3.4263
7.1250,2.7702
7.1312,2.7389
7.1490,2.7123
7.1756,2.6945
7.2070,2.6883
8.4430,2.6883
8.4744,2.6945
8.5010,2.7123
8.5188,2.7389
8.5250,2.7702
8.5250,3.4263
8.5188,3.4576
8.5010,3.4842
8.4744,3.5020
8.4430,3.5082
Z" /> 
</g>
<g style="fill:none; 
stroke:#D0D2CD; stroke-width:0.0500; stroke-opacity:1; 
stroke-linecap:round; stroke-linejoin:round;">
<path d="M8.8250 5.1482
L8.8250 2.5482
" />
<path d="M9.0250 2.3482
L12.2250 2.3482
" />
<path d="M12.2250 5.3483
L9.0250 5.3483
" />
<path d="M12.4250 2.5482
L12.4250 5.1482
" />
<path d="M9.0250 2.3483 A0.2000 0.2000 0.0 0 0 8.8250 2.5482" />
<path d="M8.8250 5.1482 A0.2000 0.2000 0.0 0 0 9.0250 5.3483" />
<path d="M12.4250 2.5482 A0.2000 0.2000 0.0 0 0 12.2250 2.3482" />
<path d="M12.2250 5.3483 A0.2000 0.2000 0.0 0 0 12.4250 5.1482" />
</g> 
</svg>
