<svg xmlns="http://www.w3.org/2000/svg" width="80.256" height="29.088" viewBox="0 0 21.234 7.696">
    <g style="fill:none;stroke:#f2eda1;stroke-width:.15;stroke-opacity:1;stroke-linecap:round;stroke-linejoin:round">
        <g class="stroked-text">
            <path d="m9.292 7.303-.334-.476M8.72 7.303v-1M8.72 6.303h.381M9.101 6.303l.095.048M9.196 6.35l.048.048M9.244 6.398l.048.096M9.292 6.494v.142M9.292 6.636l-.048.096M9.244 6.732l-.048.047M9.196 6.78l-.095.047M9.101 6.827h-.38M9.72 6.78h.334M10.196 7.303H9.72M9.72 7.303v-1M9.72 6.303h.476M10.958 6.78h-.333M10.625 7.303v-1M10.625 6.303h.476M11.625 6.303v.238M11.387 6.446l.238.095M11.625 6.541l.238-.095M11.482 6.732l.143-.19M11.625 6.541l.143.19M12.387 6.303v.238M12.149 6.446l.238.095M12.387 6.541l.238-.095M12.244 6.732l.143-.19M12.387 6.541l.143.19"/>
        </g>
        <path d="M7.39 5.213h-.48v-.48Z" style="fill:#f2eda1;fill-opacity:1;stroke:#f2eda1;stroke-width:.1;stroke-opacity:1;stroke-linecap:round;stroke-linejoin:round;fill-rule:evenodd"/>
        <path stroke="none" d="m12.807 3.508-.031-.006-.027-.018-.018-.026-.006-.032V2.77l.006-.031.018-.027.027-.018.031-.006h1.236l.031.006.027.018.018.027.006.031v.656l-.006.032-.018.026-.027.018-.031.006ZM12.807 5.008l-.031-.006-.027-.018-.018-.026-.006-.032V4.27l.006-.031.018-.027.027-.018.031-.006h1.236l.031.006.027.018.018.027.006.031v.656l-.006.032-.018.026-.027.018-.031.006ZM7.535 5.008l-.41-.41V4.27l.006-.031.018-.027.027-.018.031-.006h1.236l.031.006.027.018.018.027.006.031v.656l-.006.032-.018.026-.027.018-.031.006ZM7.207 3.508l-.031-.006-.027-.018-.018-.026-.006-.032V2.77l.006-.031.018-.027.027-.018.031-.006h1.236l.031.006.027.018.018.027.006.031v.656l-.006.032-.018.026-.027.018-.031.006Z" style="fill:#b4a09a;fill-opacity:.9;stroke:none;fill-rule:evenodd"/>
        <path stroke="none" d="m12.807 3.508-.031-.006-.027-.018-.018-.026-.006-.032V2.77l.006-.031.018-.027.027-.018.031-.006h1.236l.031.006.027.018.018.027.006.031v.656l-.006.032-.018.026-.027.018-.031.006ZM12.807 5.008l-.031-.006-.027-.018-.018-.026-.006-.032V4.27l.006-.031.018-.027.027-.018.031-.006h1.236l.031.006.027.018.018.027.006.031v.656l-.006.032-.018.026-.027.018-.031.006ZM7.535 5.008l-.41-.41V4.27l.006-.031.018-.027.027-.018.031-.006h1.236l.031.006.027.018.018.027.006.031v.656l-.006.032-.018.026-.027.018-.031.006ZM7.207 3.508l-.031-.006-.027-.018-.018-.026-.006-.032V2.77l.006-.031.018-.027.027-.018.031-.006h1.236l.031.006.027.018.018.027.006.031v.656l-.006.032-.018.026-.027.018-.031.006Z" style="fill:#c83434;fill-opacity:1;stroke:none;fill-rule:evenodd"/>
    </g>
    <g style="fill:none;stroke:#afafaf;stroke-width:.15;stroke-opacity:1;stroke-linecap:round;stroke-linejoin:round">
        <g class="stroked-text">
            <path d="M.84 1.303H.362M.363 1.303v-1M1.173.78h.333M1.649 1.303h-.476M1.173 1.303v-1M1.173.303h.476M2.077 1.303v-1M2.077.303h.239M2.316.303l.142.048M2.458.35l.096.096M2.554.446 2.6.54M2.601.541l.048.19M2.649.732v.143M2.649.875l-.048.19M2.601 1.065l-.047.095M2.554 1.16l-.096.095M2.458 1.255l-.143.048M2.316 1.303h-.239M2.84 1.398H3.6M3.792 1.255l.143.048M3.935 1.303h.238M4.173 1.303l.095-.048M4.268 1.255l.048-.047M4.316 1.208l.047-.095M4.363 1.113v-.096M4.363 1.017 4.315.922M4.316.922 4.268.875M4.268.875 4.173.827M4.173.827l-.19-.048M3.982.78 3.887.731M3.887.732 3.839.684M3.84.684 3.791.589M3.792.589V.494M3.792.494l.047-.096M3.84.398l.047-.047M3.887.35l.095-.047M3.982.303h.238M4.22.303l.143.048M4.792 1.303v-1M5.363 1.303 4.934.732M5.363.303l-.571.572M6.22.303h-.19M6.03.303l-.096.048M5.935.35l-.048.048M5.887.398l-.095.143M5.792.541l-.048.19M5.744.732v.38M5.744 1.113l.048.095M5.792 1.208l.047.047M5.84 1.255l.095.048M5.935 1.303h.19M6.125 1.303l.095-.048M6.22 1.255l.048-.047M6.268 1.208l.048-.095M6.316 1.113V.875M6.316.875 6.268.779M6.268.78 6.22.731M6.22.732 6.125.684M6.125.684h-.19M5.935.684l-.096.048M5.84.732l-.048.047M5.792.78l-.048.095M6.887.732 6.792.684M6.792.684 6.744.636M6.744.636 6.696.541M6.696.541V.493M6.696.494l.048-.096M6.744.398l.048-.047M6.792.35l.095-.047M6.887.303h.19M7.077.303l.096.048M7.173.35l.047.048M7.22.398l.048.095M7.268.494V.54M7.268.541 7.22.636M7.22.636l-.047.048M7.173.684l-.096.048M7.077.732h-.19M6.887.732l-.095.047M6.792.78l-.048.047M6.744.827l-.048.095M6.696.922v.19M6.696 1.113l.048.095M6.744 1.208l.048.047M6.792 1.255l.095.048M6.887 1.303h.19M7.077 1.303l.096-.048M7.173 1.255l.047-.047M7.22 1.208l.048-.095M7.268 1.113v-.19M7.268.922 7.22.827M7.22.827 7.173.779M7.173.78 7.077.731M8.22 1.303H7.65M7.935 1.303v-1M7.935.303l-.096.143M7.84.446 7.743.54M7.744.541 7.649.59M8.601.398 8.65.351M8.649.35l.095-.047M8.744.303h.238M8.982.303l.095.048M9.077.35l.048.048M9.125.398l.048.095M9.173.494v.095M9.173.589l-.048.143M9.125.732l-.571.571M8.554 1.303h.619M9.601 1.303v-1M9.601.303l.333.714M9.935 1.017l.333-.714M10.268.303v1M10.744 1.303v-1M11.22 1.303v-1M11.22.303l.572 1M11.792 1.303v-1M12.268 1.303v-1M12.744.922h.762M13.982.78h.334M14.458 1.303h-.476M13.982 1.303v-1M13.982.303h.476M14.649 1.398h.762M16.22 1.303l-.333-.476M15.649 1.303v-1M15.649.303h.38M16.03.303l.095.048M16.125.35l.048.048M16.173.398l.047.095M16.22.494v.142M16.22.636l-.047.096M16.173.732l-.048.047M16.125.78l-.095.047M16.03.827h-.381M16.792 1.303l-.096-.048M16.696 1.255l-.047-.047M16.649 1.208l-.048-.095M16.601 1.113V.827M16.601.827l.048-.095M16.649.732l.047-.048M16.696.684l.096-.048M16.792.636h.142M16.935.636l.095.048M17.03.684l.047.048M17.077.732l.048.095M17.125.827v.286M17.125 1.113l-.048.095M17.077 1.208l-.047.047M17.03 1.255l-.096.048M16.935 1.303h-.143M17.41.636h.382M17.554.303v.857M17.554 1.16l.047.095M17.601 1.255l.095.048M17.696 1.303h.096M18.554 1.303V.78M18.554.78l-.048-.096M18.506.684l-.095-.048M18.41.636h-.19M18.22.636l-.095.048M18.554 1.255l-.096.048M18.458 1.303h-.238M18.22 1.303l-.095-.048M18.125 1.255l-.048-.095M18.077 1.16v-.095M18.077 1.065l.048-.095M18.125.97l.095-.048M18.22.922h.238M18.458.922l.096-.047M18.887.636h.38M19.03.303v.857M19.03 1.16l.047.095M19.077 1.255l.096.048M19.173 1.303h.095M19.982 1.255l-.095.048M19.887 1.303h-.19M19.696 1.303l-.095-.048M19.601 1.255l-.047-.095M19.554 1.16V.78M19.554.78 19.6.683M19.601.684l.095-.048M19.696.636h.19M19.887.636l.095.048M19.982.684l.048.095M20.03.78v.095M20.03.875l-.476.095M20.887 1.303v-1M20.887 1.255l-.095.048M20.792 1.303h-.19M20.601 1.303l-.095-.048M20.506 1.255l-.048-.047M20.458 1.208l-.047-.095M20.41 1.113V.827M20.41.827l.048-.095M20.458.732l.048-.048M20.506.684l.095-.048M20.601.636h.19M20.792.636l.095.048"/>
        </g>
        <g class="stroked-text">
            <path d="m9.292 7.303-.334-.476M8.72 7.303v-1M8.72 6.303h.381M9.101 6.303l.095.048M9.196 6.35l.048.048M9.244 6.398l.048.096M9.292 6.494v.142M9.292 6.636l-.048.096M9.244 6.732l-.048.047M9.196 6.78l-.095.047M9.101 6.827h-.38M9.72 6.78h.334M10.196 7.303H9.72M9.72 7.303v-1M9.72 6.303h.476M10.958 6.78h-.333M10.625 7.303v-1M10.625 6.303h.476M11.625 6.303v.238M11.387 6.446l.238.095M11.625 6.541l.238-.095M11.482 6.732l.143-.19M11.625 6.541l.143.19M12.387 6.303v.238M12.149 6.446l.238.095M12.387 6.541l.238-.095M12.244 6.732l.143-.19M12.387 6.541l.143.19"/>
        </g>
    </g>
    <g style="fill:none;stroke:#afafaf;stroke-width:.12;stroke-opacity:1;stroke-linecap:round;stroke-linejoin:round">
        <path d="M9.025 2.448h3.2M9.025 4.748v-2.3M9.025 4.748l.5.5M12.225 2.448v2.8M12.225 5.248h-2.7"/>
    </g>
    <g style="fill:none;stroke:#afafaf;stroke-width:.0389;stroke-opacity:1;stroke-linecap:round;stroke-linejoin:round">
        <g class="stroked-text">
            <path d="M13.558 3.312h-.266M13.425 3.312v-.466M13.425 2.846l-.044.066M13.38 2.912l-.044.045M13.336 2.957l-.044.022"/>
        </g>
        <path d="m12.807 3.508-.031-.006-.027-.018-.018-.026-.006-.032V2.77l.006-.031.018-.027.027-.018.031-.006h1.236l.031.006.027.018.018.027.006.031v.656l-.006.032-.018.026-.027.018-.031.006Z" style="stroke:#afafaf;stroke-width:.0212;stroke-opacity:1;stroke-linecap:round;stroke-linejoin:round;fill:none"/>
    </g>
    <g style="fill:none;stroke:#afafaf;stroke-width:.0389;stroke-opacity:1;stroke-linecap:round;stroke-linejoin:round">
        <g class="stroked-text">
            <path d="m13.292 4.39.022-.022M13.314 4.368l.044-.023M13.358 4.345h.111M13.47 4.345l.044.023M13.514 4.368l.022.022M13.536 4.39l.022.044M13.558 4.434v.045M13.558 4.479l-.022.066M13.536 4.545l-.267.267M13.27 4.812h.288"/>
        </g>
        <path d="m12.807 5.008-.031-.006-.027-.018-.018-.026-.006-.032V4.27l.006-.031.018-.027.027-.018.031-.006h1.236l.031.006.027.018.018.027.006.031v.656l-.006.032-.018.026-.027.018-.031.006Z" style="stroke:#afafaf;stroke-width:.0212;stroke-opacity:1;stroke-linecap:round;stroke-linejoin:round;fill:none"/>
    </g>
    <g style="fill:none;stroke:#afafaf;stroke-width:.0389;stroke-opacity:1;stroke-linecap:round;stroke-linejoin:round">
        <g class="stroked-text">
            <path d="M7.67 4.345h.288M7.958 4.345l-.155.178M7.803 4.523h.066M7.87 4.523l.044.022M7.914 4.545l.022.023M7.936 4.568l.022.044M7.958 4.612v.111M7.958 4.723l-.022.045M7.936 4.768l-.022.022M7.914 4.79l-.045.022M7.87 4.812h-.134M7.736 4.812l-.044-.022M7.692 4.79l-.023-.022"/>
        </g>
        <path d="m7.535 5.008-.41-.41V4.27l.006-.031.018-.027.027-.018.031-.006h1.236l.031.006.027.018.018.027.006.031v.656l-.006.032-.018.026-.027.018-.031.006Z" style="stroke:#afafaf;stroke-width:.0212;stroke-opacity:1;stroke-linecap:round;stroke-linejoin:round;fill:none"/>
    </g>
    <g style="fill:none;stroke:#afafaf;stroke-width:.0389;stroke-opacity:1;stroke-linecap:round;stroke-linejoin:round">
        <g class="stroked-text">
            <path d="M7.914 3.001v.311M7.803 2.823l-.111.334M7.692 3.157h.289"/>
        </g>
        <path d="m7.207 3.508-.031-.006-.027-.018-.018-.026-.006-.032V2.77l.006-.031.018-.027.027-.018.031-.006h1.236l.031.006.027.018.018.027.006.031v.656l-.006.032-.018.026-.027.018-.031.006Z" style="stroke:#afafaf;stroke-width:.0212;stroke-opacity:1;stroke-linecap:round;stroke-linejoin:round;fill:none"/>
    </g>
    <g style="fill:none;stroke:#d0d2cd;stroke-width:.05;stroke-opacity:1;stroke-linecap:round;stroke-linejoin:round">
        <path d="M8.825 5.148v-2.6M9.025 2.348h3.2M12.225 5.348h-3.2M12.425 2.548v2.6M9.025 2.348a.2.2 0 0 0-.2.2M8.825 5.148a.2.2 0 0 0 .2.2M12.425 2.548a.2.2 0 0 0-.2-.2M12.225 5.348a.2.2 0 0 0 .2-.2"/>
    </g>
</svg>
