<?xml version="1.0" standalone="no"?>
 <!DOCTYPE svg PUBLIC "-//W3C//DTD SVG 1.1//EN" 
 "http://www.w3.org/Graphics/SVG/1.1/DTD/svg11.dtd"> 
<svg
  xmlns:svg="http://www.w3.org/2000/svg"
  xmlns="http://www.w3.org/2000/svg"
  xmlns:xlink="http://www.w3.org/1999/xlink"
  version="1.1"
  width="14.7574mm" height="7.6962mm" viewBox="0.0000 0.0000 14.7574 7.6962">
<title>SVG Image created as LED_SK6812MINI-E.svg date 2025/04/12 02:58:43 </title>
  <desc>Image generated by PCBNEW </desc>
<g style="fill:#000000; fill-opacity:1.0000;stroke:#000000; stroke-opacity:1.0000;
stroke-linecap:round; stroke-linejoin:round;"
 transform="translate(0 0) scale(1 1)">
</g>
<g style="fill:none; 
stroke:#F2EDA1; stroke-width:0.1500; stroke-opacity:1; 
stroke-linecap:round; stroke-linejoin:round;">
<text x="7.3869" y="7.3482"
textLength="4.5357" font-size="1.3333" lengthAdjust="spacingAndGlyphs"
text-anchor="middle" opacity="0" stroke-opacity="0">REF**</text>
<g class="stroked-text"><desc>REF**</desc>
<path d="M6.0536 7.3031
L5.7202 6.8269
" />
<path d="M5.4821 7.3031
L5.4821 6.3031
" />
<path d="M5.4821 6.3031
L5.8631 6.3031
" />
<path d="M5.8631 6.3031
L5.9583 6.3507
" />
<path d="M5.9583 6.3507
L6.0060 6.3983
" />
<path d="M6.0060 6.3983
L6.0536 6.4935
" />
<path d="M6.0536 6.4935
L6.0536 6.6364
" />
<path d="M6.0536 6.6364
L6.0060 6.7316
" />
<path d="M6.0060 6.7316
L5.9583 6.7793
" />
<path d="M5.9583 6.7793
L5.8631 6.8269
" />
<path d="M5.8631 6.8269
L5.4821 6.8269
" />
<path d="M6.4821 6.7793
L6.8155 6.7793
" />
<path d="M6.9583 7.3031
L6.4821 7.3031
" />
<path d="M6.4821 7.3031
L6.4821 6.3031
" />
<path d="M6.4821 6.3031
L6.9583 6.3031
" />
<path d="M7.7202 6.7793
L7.3869 6.7793
" />
<path d="M7.3869 7.3031
L7.3869 6.3031
" />
<path d="M7.3869 6.3031
L7.8631 6.3031
" />
<path d="M8.3869 6.3031
L8.3869 6.5412
" />
<path d="M8.1488 6.4459
L8.3869 6.5412
" />
<path d="M8.3869 6.5412
L8.6250 6.4459
" />
<path d="M8.2440 6.7316
L8.3869 6.5412
" />
<path d="M8.3869 6.5412
L8.5298 6.7316
" />
<path d="M9.1488 6.3031
L9.1488 6.5412
" />
<path d="M8.9107 6.4459
L9.1488 6.5412
" />
<path d="M9.1488 6.5412
L9.3869 6.4459
" />
<path d="M9.0060 6.7316
L9.1488 6.5412
" />
<path d="M9.1488 6.5412
L9.2917 6.7316
" />
</g><path style="fill:#F2EDA1; fill-opacity:1.0000; 
stroke:#F2EDA1; stroke-width:0.1000; stroke-opacity:1; 
stroke-linecap:round; stroke-linejoin:round;fill-rule:evenodd;"
d="M 11.1019,2.9632
10.6219,2.4832
11.1019,2.4832
Z" /> 
<path style="fill:#B4A09A; fill-opacity:0.9000; stroke:none;fill-rule:evenodd;"
d="M 5.2049,4.1883
5.2363,4.1945
5.2629,4.2123
5.2807,4.2389
5.2869,4.2702
5.2869,4.9262
5.2807,4.9576
5.2629,4.9842
5.2363,5.0020
5.2049,5.0082
3.9689,5.0082
3.9375,5.0020
3.9109,4.9842
3.8931,4.9576
3.8869,4.9262
3.8869,4.2702
3.8931,4.2389
3.9109,4.2123
3.9375,4.1945
3.9689,4.1883
Z" /> 
<path style="fill:#B4A09A; fill-opacity:0.9000; stroke:none;fill-rule:evenodd;"
d="M 5.2049,2.6883
5.2363,2.6945
5.2629,2.7123
5.2807,2.7389
5.2869,2.7702
5.2869,3.4263
5.2807,3.4576
5.2629,3.4842
5.2363,3.5020
5.2049,3.5082
3.9689,3.5082
3.9375,3.5020
3.9109,3.4842
3.8931,3.4576
3.8869,3.4263
3.8869,2.7702
3.8931,2.7389
3.9109,2.7123
3.9375,2.6945
3.9689,2.6883
Z" /> 
<path style="fill:#B4A09A; fill-opacity:0.9000; stroke:none;fill-rule:evenodd;"
d="M 10.4769,2.6883
10.8869,3.0982
10.8869,3.4263
10.8807,3.4576
10.8629,3.4842
10.8363,3.5020
10.8049,3.5082
9.5689,3.5082
9.5375,3.5020
9.5109,3.4842
9.4931,3.4576
9.4869,3.4263
9.4869,2.7702
9.4931,2.7389
9.5109,2.7123
9.5375,2.6945
9.5689,2.6883
Z" /> 
<path style="fill:#B4A09A; fill-opacity:0.9000; stroke:none;fill-rule:evenodd;"
d="M 10.8049,4.1883
10.8363,4.1945
10.8629,4.2123
10.8807,4.2389
10.8869,4.2702
10.8869,4.9262
10.8807,4.9576
10.8629,4.9842
10.8363,5.0020
10.8049,5.0082
9.5689,5.0082
9.5375,5.0020
9.5109,4.9842
9.4931,4.9576
9.4869,4.9262
9.4869,4.2702
9.4931,4.2389
9.5109,4.2123
9.5375,4.1945
9.5689,4.1883
Z" /> 
<path style="fill:#C83434; fill-opacity:1.0000; stroke:none;fill-rule:evenodd;"
d="M 5.2049,4.1883
5.2363,4.1945
5.2629,4.2123
5.2807,4.2389
5.2869,4.2702
5.2869,4.9262
5.2807,4.9576
5.2629,4.9842
5.2363,5.0020
5.2049,5.0082
3.9689,5.0082
3.9375,5.0020
3.9109,4.9842
3.8931,4.9576
3.8869,4.9262
3.8869,4.2702
3.8931,4.2389
3.9109,4.2123
3.9375,4.1945
3.9689,4.1883
Z" /> 
<path style="fill:#C83434; fill-opacity:1.0000; stroke:none;fill-rule:evenodd;"
d="M 5.2049,2.6883
5.2363,2.6945
5.2629,2.7123
5.2807,2.7389
5.2869,2.7702
5.2869,3.4263
5.2807,3.4576
5.2629,3.4842
5.2363,3.5020
5.2049,3.5082
3.9689,3.5082
3.9375,3.5020
3.9109,3.4842
3.8931,3.4576
3.8869,3.4263
3.8869,2.7702
3.8931,2.7389
3.9109,2.7123
3.9375,2.6945
3.9689,2.6883
Z" /> 
<path style="fill:#C83434; fill-opacity:1.0000; stroke:none;fill-rule:evenodd;"
d="M 10.4769,2.6883
10.8869,3.0982
10.8869,3.4263
10.8807,3.4576
10.8629,3.4842
10.8363,3.5020
10.8049,3.5082
9.5689,3.5082
9.5375,3.5020
9.5109,3.4842
9.4931,3.4576
9.4869,3.4263
9.4869,2.7702
9.4931,2.7389
9.5109,2.7123
9.5375,2.6945
9.5689,2.6883
Z" /> 
<path style="fill:#C83434; fill-opacity:1.0000; stroke:none;fill-rule:evenodd;"
d="M 10.8049,4.1883
10.8363,4.1945
10.8629,4.2123
10.8807,4.2389
10.8869,4.2702
10.8869,4.9262
10.8807,4.9576
10.8629,4.9842
10.8363,5.0020
10.8049,5.0082
9.5689,5.0082
9.5375,5.0020
9.5109,4.9842
9.4931,4.9576
9.4869,4.9262
9.4869,4.2702
9.4931,4.2389
9.5109,4.2123
9.5375,4.1945
9.5689,4.1883
Z" /> 
</g>
<g style="fill:none; 
stroke:#AFAFAF; stroke-width:0.1500; stroke-opacity:1; 
stroke-linecap:round; stroke-linejoin:round;">
<text x="7.3869" y="1.3482"
textLength="14.7738" font-size="1.3333" lengthAdjust="spacingAndGlyphs"
text-anchor="middle" opacity="0" stroke-opacity="0">LED_SK6812MINI-E</text>
<g class="stroked-text"><desc>LED_SK6812MINI-E</desc>
<path d="M0.8393 1.3031
L0.3631 1.3031
" />
<path d="M0.3631 1.3031
L0.3631 0.3031
" />
<path d="M1.1726 0.7793
L1.5060 0.7793
" />
<path d="M1.6488 1.3031
L1.1726 1.3031
" />
<path d="M1.1726 1.3031
L1.1726 0.3031
" />
<path d="M1.1726 0.3031
L1.6488 0.3031
" />
<path d="M2.0774 1.3031
L2.0774 0.3031
" />
<path d="M2.0774 0.3031
L2.3155 0.3031
" />
<path d="M2.3155 0.3031
L2.4583 0.3507
" />
<path d="M2.4583 0.3507
L2.5536 0.4459
" />
<path d="M2.5536 0.4459
L2.6012 0.5412
" />
<path d="M2.6012 0.5412
L2.6488 0.7316
" />
<path d="M2.6488 0.7316
L2.6488 0.8745
" />
<path d="M2.6488 0.8745
L2.6012 1.0650
" />
<path d="M2.6012 1.0650
L2.5536 1.1602
" />
<path d="M2.5536 1.1602
L2.4583 1.2554
" />
<path d="M2.4583 1.2554
L2.3155 1.3031
" />
<path d="M2.3155 1.3031
L2.0774 1.3031
" />
<path d="M2.8393 1.3983
L3.6012 1.3983
" />
<path d="M3.7917 1.2554
L3.9345 1.3031
" />
<path d="M3.9345 1.3031
L4.1726 1.3031
" />
<path d="M4.1726 1.3031
L4.2679 1.2554
" />
<path d="M4.2679 1.2554
L4.3155 1.2078
" />
<path d="M4.3155 1.2078
L4.3631 1.1126
" />
<path d="M4.3631 1.1126
L4.3631 1.0174
" />
<path d="M4.3631 1.0174
L4.3155 0.9221
" />
<path d="M4.3155 0.9221
L4.2679 0.8745
" />
<path d="M4.2679 0.8745
L4.1726 0.8269
" />
<path d="M4.1726 0.8269
L3.9821 0.7793
" />
<path d="M3.9821 0.7793
L3.8869 0.7316
" />
<path d="M3.8869 0.7316
L3.8393 0.6840
" />
<path d="M3.8393 0.6840
L3.7917 0.5888
" />
<path d="M3.7917 0.5888
L3.7917 0.4935
" />
<path d="M3.7917 0.4935
L3.8393 0.3983
" />
<path d="M3.8393 0.3983
L3.8869 0.3507
" />
<path d="M3.8869 0.3507
L3.9821 0.3031
" />
<path d="M3.9821 0.3031
L4.2202 0.3031
" />
<path d="M4.2202 0.3031
L4.3631 0.3507
" />
<path d="M4.7917 1.3031
L4.7917 0.3031
" />
<path d="M5.3631 1.3031
L4.9345 0.7316
" />
<path d="M5.3631 0.3031
L4.7917 0.8745
" />
<path d="M6.2202 0.3031
L6.0298 0.3031
" />
<path d="M6.0298 0.3031
L5.9345 0.3507
" />
<path d="M5.9345 0.3507
L5.8869 0.3983
" />
<path d="M5.8869 0.3983
L5.7917 0.5412
" />
<path d="M5.7917 0.5412
L5.7440 0.7316
" />
<path d="M5.7440 0.7316
L5.7440 1.1126
" />
<path d="M5.7440 1.1126
L5.7917 1.2078
" />
<path d="M5.7917 1.2078
L5.8393 1.2554
" />
<path d="M5.8393 1.2554
L5.9345 1.3031
" />
<path d="M5.9345 1.3031
L6.1250 1.3031
" />
<path d="M6.1250 1.3031
L6.2202 1.2554
" />
<path d="M6.2202 1.2554
L6.2679 1.2078
" />
<path d="M6.2679 1.2078
L6.3155 1.1126
" />
<path d="M6.3155 1.1126
L6.3155 0.8745
" />
<path d="M6.3155 0.8745
L6.2679 0.7793
" />
<path d="M6.2679 0.7793
L6.2202 0.7316
" />
<path d="M6.2202 0.7316
L6.1250 0.6840
" />
<path d="M6.1250 0.6840
L5.9345 0.6840
" />
<path d="M5.9345 0.6840
L5.8393 0.7316
" />
<path d="M5.8393 0.7316
L5.7917 0.7793
" />
<path d="M5.7917 0.7793
L5.7440 0.8745
" />
<path d="M6.8869 0.7316
L6.7917 0.6840
" />
<path d="M6.7917 0.6840
L6.7440 0.6364
" />
<path d="M6.7440 0.6364
L6.6964 0.5412
" />
<path d="M6.6964 0.5412
L6.6964 0.4935
" />
<path d="M6.6964 0.4935
L6.7440 0.3983
" />
<path d="M6.7440 0.3983
L6.7917 0.3507
" />
<path d="M6.7917 0.3507
L6.8869 0.3031
" />
<path d="M6.8869 0.3031
L7.0774 0.3031
" />
<path d="M7.0774 0.3031
L7.1726 0.3507
" />
<path d="M7.1726 0.3507
L7.2202 0.3983
" />
<path d="M7.2202 0.3983
L7.2679 0.4935
" />
<path d="M7.2679 0.4935
L7.2679 0.5412
" />
<path d="M7.2679 0.5412
L7.2202 0.6364
" />
<path d="M7.2202 0.6364
L7.1726 0.6840
" />
<path d="M7.1726 0.6840
L7.0774 0.7316
" />
<path d="M7.0774 0.7316
L6.8869 0.7316
" />
<path d="M6.8869 0.7316
L6.7917 0.7793
" />
<path d="M6.7917 0.7793
L6.7440 0.8269
" />
<path d="M6.7440 0.8269
L6.6964 0.9221
" />
<path d="M6.6964 0.9221
L6.6964 1.1126
" />
<path d="M6.6964 1.1126
L6.7440 1.2078
" />
<path d="M6.7440 1.2078
L6.7917 1.2554
" />
<path d="M6.7917 1.2554
L6.8869 1.3031
" />
<path d="M6.8869 1.3031
L7.0774 1.3031
" />
<path d="M7.0774 1.3031
L7.1726 1.2554
" />
<path d="M7.1726 1.2554
L7.2202 1.2078
" />
<path d="M7.2202 1.2078
L7.2679 1.1126
" />
<path d="M7.2679 1.1126
L7.2679 0.9221
" />
<path d="M7.2679 0.9221
L7.2202 0.8269
" />
<path d="M7.2202 0.8269
L7.1726 0.7793
" />
<path d="M7.1726 0.7793
L7.0774 0.7316
" />
<path d="M8.2202 1.3031
L7.6488 1.3031
" />
<path d="M7.9345 1.3031
L7.9345 0.3031
" />
<path d="M7.9345 0.3031
L7.8393 0.4459
" />
<path d="M7.8393 0.4459
L7.7440 0.5412
" />
<path d="M7.7440 0.5412
L7.6488 0.5888
" />
<path d="M8.6012 0.3983
L8.6488 0.3507
" />
<path d="M8.6488 0.3507
L8.7440 0.3031
" />
<path d="M8.7440 0.3031
L8.9821 0.3031
" />
<path d="M8.9821 0.3031
L9.0774 0.3507
" />
<path d="M9.0774 0.3507
L9.1250 0.3983
" />
<path d="M9.1250 0.3983
L9.1726 0.4935
" />
<path d="M9.1726 0.4935
L9.1726 0.5888
" />
<path d="M9.1726 0.5888
L9.1250 0.7316
" />
<path d="M9.1250 0.7316
L8.5536 1.3031
" />
<path d="M8.5536 1.3031
L9.1726 1.3031
" />
<path d="M9.6012 1.3031
L9.6012 0.3031
" />
<path d="M9.6012 0.3031
L9.9345 1.0174
" />
<path d="M9.9345 1.0174
L10.2679 0.3031
" />
<path d="M10.2679 0.3031
L10.2679 1.3031
" />
<path d="M10.7440 1.3031
L10.7440 0.3031
" />
<path d="M11.2202 1.3031
L11.2202 0.3031
" />
<path d="M11.2202 0.3031
L11.7917 1.3031
" />
<path d="M11.7917 1.3031
L11.7917 0.3031
" />
<path d="M12.2679 1.3031
L12.2679 0.3031
" />
<path d="M12.7440 0.9221
L13.5060 0.9221
" />
<path d="M13.9821 0.7793
L14.3155 0.7793
" />
<path d="M14.4583 1.3031
L13.9821 1.3031
" />
<path d="M13.9821 1.3031
L13.9821 0.3031
" />
<path d="M13.9821 0.3031
L14.4583 0.3031
" />
</g><text x="7.3869" y="7.3482"
textLength="4.5357" font-size="1.3333" lengthAdjust="spacingAndGlyphs"
text-anchor="middle" opacity="0" stroke-opacity="0">REF**</text>
<g class="stroked-text"><desc>REF**</desc>
<path d="M6.0536 7.3031
L5.7202 6.8269
" />
<path d="M5.4821 7.3031
L5.4821 6.3031
" />
<path d="M5.4821 6.3031
L5.8631 6.3031
" />
<path d="M5.8631 6.3031
L5.9583 6.3507
" />
<path d="M5.9583 6.3507
L6.0060 6.3983
" />
<path d="M6.0060 6.3983
L6.0536 6.4935
" />
<path d="M6.0536 6.4935
L6.0536 6.6364
" />
<path d="M6.0536 6.6364
L6.0060 6.7316
" />
<path d="M6.0060 6.7316
L5.9583 6.7793
" />
<path d="M5.9583 6.7793
L5.8631 6.8269
" />
<path d="M5.8631 6.8269
L5.4821 6.8269
" />
<path d="M6.4821 6.7793
L6.8155 6.7793
" />
<path d="M6.9583 7.3031
L6.4821 7.3031
" />
<path d="M6.4821 7.3031
L6.4821 6.3031
" />
<path d="M6.4821 6.3031
L6.9583 6.3031
" />
<path d="M7.7202 6.7793
L7.3869 6.7793
" />
<path d="M7.3869 7.3031
L7.3869 6.3031
" />
<path d="M7.3869 6.3031
L7.8631 6.3031
" />
<path d="M8.3869 6.3031
L8.3869 6.5412
" />
<path d="M8.1488 6.4459
L8.3869 6.5412
" />
<path d="M8.3869 6.5412
L8.6250 6.4459
" />
<path d="M8.2440 6.7316
L8.3869 6.5412
" />
<path d="M8.3869 6.5412
L8.5298 6.7316
" />
<path d="M9.1488 6.3031
L9.1488 6.5412
" />
<path d="M8.9107 6.4459
L9.1488 6.5412
" />
<path d="M9.1488 6.5412
L9.3869 6.4459
" />
<path d="M9.0060 6.7316
L9.1488 6.5412
" />
<path d="M9.1488 6.5412
L9.2917 6.7316
" />
</g></g>
<g style="fill:none; 
stroke:#AFAFAF; stroke-width:0.1200; stroke-opacity:1; 
stroke-linecap:round; stroke-linejoin:round;">
<path d="M5.7869 2.4483
L8.4869 2.4483
" />
<path d="M5.7869 5.2483
L5.7869 2.4483
" />
<path d="M8.9869 2.9483
L8.4869 2.4483
" />
<path d="M8.9869 2.9483
L8.9869 5.2483
" />
<path d="M8.9869 5.2483
L5.7869 5.2483
" />
</g>
<g style="fill:none; 
stroke:#AFAFAF; stroke-width:0.0389; stroke-opacity:1; 
stroke-linecap:round; stroke-linejoin:round;">
<text x="4.5869" y="4.8316"
textLength="0.4678" font-size="0.6222" lengthAdjust="spacingAndGlyphs"
text-anchor="middle" opacity="0" stroke-opacity="0">1</text>
<g class="stroked-text"><desc>1</desc>
<path d="M4.7202 4.8121
L4.4536 4.8121
" />
<path d="M4.5869 4.8121
L4.5869 4.3454
" />
<path d="M4.5869 4.3454
L4.5425 4.4121
" />
<path d="M4.5425 4.4121
L4.4980 4.4566
" />
<path d="M4.4980 4.4566
L4.4536 4.4788
" />
</g><path style="fill:none; 
stroke:#AFAFAF; stroke-width:0.0212; stroke-opacity:1; 
stroke-linecap:round; stroke-linejoin:round;fill:none"
d="M 5.2049,4.1883
5.2363,4.1945
5.2629,4.2123
5.2807,4.2389
5.2869,4.2702
5.2869,4.9262
5.2807,4.9576
5.2629,4.9842
5.2363,5.0020
5.2049,5.0082
3.9689,5.0082
3.9375,5.0020
3.9109,4.9842
3.8931,4.9576
3.8869,4.9262
3.8869,4.2702
3.8931,4.2389
3.9109,4.2123
3.9375,4.1945
3.9689,4.1883
Z" /> 
</g>
<g style="fill:none; 
stroke:#AFAFAF; stroke-width:0.0389; stroke-opacity:1; 
stroke-linecap:round; stroke-linejoin:round;">
<text x="4.5869" y="3.3316"
textLength="0.4678" font-size="0.6222" lengthAdjust="spacingAndGlyphs"
text-anchor="middle" opacity="0" stroke-opacity="0">2</text>
<g class="stroked-text"><desc>2</desc>
<path d="M4.4536 2.8899
L4.4758 2.8677
" />
<path d="M4.4758 2.8677
L4.5202 2.8455
" />
<path d="M4.5202 2.8455
L4.6313 2.8455
" />
<path d="M4.6313 2.8455
L4.6758 2.8677
" />
<path d="M4.6758 2.8677
L4.6980 2.8899
" />
<path d="M4.6980 2.8899
L4.7202 2.9343
" />
<path d="M4.7202 2.9343
L4.7202 2.9788
" />
<path d="M4.7202 2.9788
L4.6980 3.0454
" />
<path d="M4.6980 3.0454
L4.4313 3.3121
" />
<path d="M4.4313 3.3121
L4.7202 3.3121
" />
</g><path style="fill:none; 
stroke:#AFAFAF; stroke-width:0.0212; stroke-opacity:1; 
stroke-linecap:round; stroke-linejoin:round;fill:none"
d="M 5.2049,2.6883
5.2363,2.6945
5.2629,2.7123
5.2807,2.7389
5.2869,2.7702
5.2869,3.4263
5.2807,3.4576
5.2629,3.4842
5.2363,3.5020
5.2049,3.5082
3.9689,3.5082
3.9375,3.5020
3.9109,3.4842
3.8931,3.4576
3.8869,3.4263
3.8869,2.7702
3.8931,2.7389
3.9109,2.7123
3.9375,2.6945
3.9689,2.6883
Z" /> 
</g>
<g style="fill:none; 
stroke:#AFAFAF; stroke-width:0.0389; stroke-opacity:1; 
stroke-linecap:round; stroke-linejoin:round;">
<text x="10.1869" y="3.3316"
textLength="0.4678" font-size="0.6222" lengthAdjust="spacingAndGlyphs"
text-anchor="middle" opacity="0" stroke-opacity="0">3</text>
<g class="stroked-text"><desc>3</desc>
<path d="M10.0313 2.8455
L10.3202 2.8455
" />
<path d="M10.3202 2.8455
L10.1647 3.0232
" />
<path d="M10.1647 3.0232
L10.2313 3.0232
" />
<path d="M10.2313 3.0232
L10.2758 3.0454
" />
<path d="M10.2758 3.0454
L10.2980 3.0677
" />
<path d="M10.2980 3.0677
L10.3202 3.1121
" />
<path d="M10.3202 3.1121
L10.3202 3.2232
" />
<path d="M10.3202 3.2232
L10.2980 3.2677
" />
<path d="M10.2980 3.2677
L10.2758 3.2899
" />
<path d="M10.2758 3.2899
L10.2313 3.3121
" />
<path d="M10.2313 3.3121
L10.0980 3.3121
" />
<path d="M10.0980 3.3121
L10.0536 3.2899
" />
<path d="M10.0536 3.2899
L10.0313 3.2677
" />
</g><path style="fill:none; 
stroke:#AFAFAF; stroke-width:0.0212; stroke-opacity:1; 
stroke-linecap:round; stroke-linejoin:round;fill:none"
d="M 10.4769,2.6883
10.8869,3.0982
10.8869,3.4263
10.8807,3.4576
10.8629,3.4842
10.8363,3.5020
10.8049,3.5082
9.5689,3.5082
9.5375,3.5020
9.5109,3.4842
9.4931,3.4576
9.4869,3.4263
9.4869,2.7702
9.4931,2.7389
9.5109,2.7123
9.5375,2.6945
9.5689,2.6883
Z" /> 
</g>
<g style="fill:none; 
stroke:#AFAFAF; stroke-width:0.0389; stroke-opacity:1; 
stroke-linecap:round; stroke-linejoin:round;">
<text x="10.1869" y="4.8316"
textLength="0.4678" font-size="0.6222" lengthAdjust="spacingAndGlyphs"
text-anchor="middle" opacity="0" stroke-opacity="0">4</text>
<g class="stroked-text"><desc>4</desc>
<path d="M10.2758 4.5010
L10.2758 4.8121
" />
<path d="M10.1647 4.3232
L10.0536 4.6566
" />
<path d="M10.0536 4.6566
L10.3425 4.6566
" />
</g><path style="fill:none; 
stroke:#AFAFAF; stroke-width:0.0212; stroke-opacity:1; 
stroke-linecap:round; stroke-linejoin:round;fill:none"
d="M 10.8049,4.1883
10.8363,4.1945
10.8629,4.2123
10.8807,4.2389
10.8869,4.2702
10.8869,4.9262
10.8807,4.9576
10.8629,4.9842
10.8363,5.0020
10.8049,5.0082
9.5689,5.0082
9.5375,5.0020
9.5109,4.9842
9.4931,4.9576
9.4869,4.9262
9.4869,4.2702
9.4931,4.2389
9.5109,4.2123
9.5375,4.1945
9.5689,4.1883
Z" /> 
</g>
<g style="fill:none; 
stroke:#D0D2CD; stroke-width:0.0500; stroke-opacity:1; 
stroke-linecap:round; stroke-linejoin:round;">
<path d="M5.5869 5.1482
L5.5869 2.5482
" />
<path d="M5.7869 2.3482
L8.9869 2.3482
" />
<path d="M8.9869 5.3483
L5.7869 5.3483
" />
<path d="M9.1869 2.5482
L9.1869 5.1482
" />
<path d="M5.7869 2.3483 A0.2000 0.2000 0.0 0 0 5.5869 2.5482" />
<path d="M5.5869 5.1482 A0.2000 0.2000 0.0 0 0 5.7869 5.3483" />
<path d="M9.1869 2.5482 A0.2000 0.2000 0.0 0 0 8.9869 2.3482" />
<path d="M8.9869 5.3483 A0.2000 0.2000 0.0 0 0 9.1869 5.1482" />
</g> 
</svg>
