<svg xmlns="http://www.w3.org/2000/svg" width="55.776" height="29.088" viewBox="0 0 14.757 7.696">
    <g style="fill:none;stroke:#f2eda1;stroke-width:.15;stroke-opacity:1;stroke-linecap:round;stroke-linejoin:round">
        <g class="stroked-text">
            <path d="m6.054 7.303-.334-.476M5.482 7.303v-1M5.482 6.303h.381M5.863 6.303l.095.048M5.958 6.35l.048.048M6.006 6.398l.048.096M6.054 6.494v.142M6.054 6.636l-.048.096M6.006 6.732l-.048.047M5.958 6.78l-.095.047M5.863 6.827h-.38M6.482 6.78h.333M6.958 7.303h-.476M6.482 7.303v-1M6.482 6.303h.476M7.72 6.78h-.333M7.387 7.303v-1M7.387 6.303h.476M8.387 6.303v.238M8.149 6.446l.238.095M8.387 6.541l.238-.095M8.244 6.732l.143-.19M8.387 6.541l.143.19M9.149 6.303v.238M8.91 6.446l.239.095M9.149 6.541l.238-.095M9.006 6.732l.143-.19M9.149 6.541l.143.19"/>
        </g>
        <path d="m11.102 2.963-.48-.48h.48Z" style="fill:#f2eda1;fill-opacity:1;stroke:#f2eda1;stroke-width:.1;stroke-opacity:1;stroke-linecap:round;stroke-linejoin:round;fill-rule:evenodd"/>
        <path stroke="none" d="m5.205 4.188.031.006.027.018.018.027.006.031v.656l-.006.032-.018.026-.027.018-.031.006H3.969l-.031-.006-.027-.018-.018-.026-.006-.032V4.27l.006-.031.018-.027.026-.018.032-.006ZM5.205 2.688l.031.006.027.018.018.027.006.031v.656l-.006.032-.018.026-.027.018-.031.006H3.969l-.031-.006-.027-.018-.018-.026-.006-.032V2.77l.006-.031.018-.027.026-.018.032-.006ZM10.477 2.688l.41.41v.328l-.006.032-.018.026-.027.018-.031.006H9.569l-.032-.006-.026-.018-.018-.026-.006-.032V2.77l.006-.031.018-.027.027-.018.03-.006ZM10.805 4.188l.031.006.027.018.018.027.006.031v.656l-.006.032-.018.026-.027.018-.031.006H9.569l-.032-.006-.026-.018-.018-.026-.006-.032V4.27l.006-.031.018-.027.027-.018.03-.006Z" style="fill:#b4a09a;fill-opacity:.9;stroke:none;fill-rule:evenodd"/>
        <path stroke="none" d="m5.205 4.188.031.006.027.018.018.027.006.031v.656l-.006.032-.018.026-.027.018-.031.006H3.969l-.031-.006-.027-.018-.018-.026-.006-.032V4.27l.006-.031.018-.027.026-.018.032-.006ZM5.205 2.688l.031.006.027.018.018.027.006.031v.656l-.006.032-.018.026-.027.018-.031.006H3.969l-.031-.006-.027-.018-.018-.026-.006-.032V2.77l.006-.031.018-.027.026-.018.032-.006ZM10.477 2.688l.41.41v.328l-.006.032-.018.026-.027.018-.031.006H9.569l-.032-.006-.026-.018-.018-.026-.006-.032V2.77l.006-.031.018-.027.027-.018.03-.006ZM10.805 4.188l.031.006.027.018.018.027.006.031v.656l-.006.032-.018.026-.027.018-.031.006H9.569l-.032-.006-.026-.018-.018-.026-.006-.032V4.27l.006-.031.018-.027.027-.018.03-.006Z" style="fill:#c83434;fill-opacity:1;stroke:none;fill-rule:evenodd"/>
    </g>
    <g style="fill:none;stroke:#afafaf;stroke-width:.15;stroke-opacity:1;stroke-linecap:round;stroke-linejoin:round">
        <g class="stroked-text">
            <path d="M.84 1.303H.362M.363 1.303v-1M1.173.78h.333M1.649 1.303h-.476M1.173 1.303v-1M1.173.303h.476M2.077 1.303v-1M2.077.303h.239M2.316.303l.142.048M2.458.35l.096.096M2.554.446 2.6.54M2.601.541l.048.19M2.649.732v.143M2.649.875l-.048.19M2.601 1.065l-.047.095M2.554 1.16l-.096.095M2.458 1.255l-.143.048M2.316 1.303h-.239M2.84 1.398H3.6M3.792 1.255l.143.048M3.935 1.303h.238M4.173 1.303l.095-.048M4.268 1.255l.048-.047M4.316 1.208l.047-.095M4.363 1.113v-.096M4.363 1.017 4.315.922M4.316.922 4.268.875M4.268.875 4.173.827M4.173.827l-.19-.048M3.982.78 3.887.731M3.887.732 3.839.684M3.84.684 3.791.589M3.792.589V.494M3.792.494l.047-.096M3.84.398l.047-.047M3.887.35l.095-.047M3.982.303h.238M4.22.303l.143.048M4.792 1.303v-1M5.363 1.303 4.934.732M5.363.303l-.571.572M6.22.303h-.19M6.03.303l-.096.048M5.935.35l-.048.048M5.887.398l-.095.143M5.792.541l-.048.19M5.744.732v.38M5.744 1.113l.048.095M5.792 1.208l.047.047M5.84 1.255l.095.048M5.935 1.303h.19M6.125 1.303l.095-.048M6.22 1.255l.048-.047M6.268 1.208l.048-.095M6.316 1.113V.875M6.316.875 6.268.779M6.268.78 6.22.731M6.22.732 6.125.684M6.125.684h-.19M5.935.684l-.096.048M5.84.732l-.048.047M5.792.78l-.048.095M6.887.732 6.792.684M6.792.684 6.744.636M6.744.636 6.696.541M6.696.541V.493M6.696.494l.048-.096M6.744.398l.048-.047M6.792.35l.095-.047M6.887.303h.19M7.077.303l.096.048M7.173.35l.047.048M7.22.398l.048.095M7.268.494V.54M7.268.541 7.22.636M7.22.636l-.047.048M7.173.684l-.096.048M7.077.732h-.19M6.887.732l-.095.047M6.792.78l-.048.047M6.744.827l-.048.095M6.696.922v.19M6.696 1.113l.048.095M6.744 1.208l.048.047M6.792 1.255l.095.048M6.887 1.303h.19M7.077 1.303l.096-.048M7.173 1.255l.047-.047M7.22 1.208l.048-.095M7.268 1.113v-.19M7.268.922 7.22.827M7.22.827 7.173.779M7.173.78 7.077.731M8.22 1.303H7.65M7.935 1.303v-1M7.935.303l-.096.143M7.84.446 7.743.54M7.744.541 7.649.59M8.601.398 8.65.351M8.649.35l.095-.047M8.744.303h.238M8.982.303l.095.048M9.077.35l.048.048M9.125.398l.048.095M9.173.494v.095M9.173.589l-.048.143M9.125.732l-.571.571M8.554 1.303h.619M9.601 1.303v-1M9.601.303l.333.714M9.935 1.017l.333-.714M10.268.303v1M10.744 1.303v-1M11.22 1.303v-1M11.22.303l.572 1M11.792 1.303v-1M12.268 1.303v-1M12.744.922h.762M13.982.78h.334M14.458 1.303h-.476M13.982 1.303v-1M13.982.303h.476"/>
        </g>
        <g class="stroked-text">
            <path d="m6.054 7.303-.334-.476M5.482 7.303v-1M5.482 6.303h.381M5.863 6.303l.095.048M5.958 6.35l.048.048M6.006 6.398l.048.096M6.054 6.494v.142M6.054 6.636l-.048.096M6.006 6.732l-.048.047M5.958 6.78l-.095.047M5.863 6.827h-.38M6.482 6.78h.333M6.958 7.303h-.476M6.482 7.303v-1M6.482 6.303h.476M7.72 6.78h-.333M7.387 7.303v-1M7.387 6.303h.476M8.387 6.303v.238M8.149 6.446l.238.095M8.387 6.541l.238-.095M8.244 6.732l.143-.19M8.387 6.541l.143.19M9.149 6.303v.238M8.91 6.446l.239.095M9.149 6.541l.238-.095M9.006 6.732l.143-.19M9.149 6.541l.143.19"/>
        </g>
    </g>
    <g style="fill:none;stroke:#afafaf;stroke-width:.12;stroke-opacity:1;stroke-linecap:round;stroke-linejoin:round">
        <path d="M5.787 2.448h2.7M5.787 5.248v-2.8M8.987 2.948l-.5-.5M8.987 2.948v2.3M8.987 5.248h-3.2"/>
    </g>
    <g style="fill:none;stroke:#afafaf;stroke-width:.0389;stroke-opacity:1;stroke-linecap:round;stroke-linejoin:round">
        <g class="stroked-text">
            <path d="M4.72 4.812h-.266M4.587 4.812v-.467M4.587 4.345l-.044.067M4.543 4.412l-.045.045M4.498 4.457l-.044.022"/>
        </g>
        <path d="m5.205 4.188.031.006.027.018.018.027.006.031v.656l-.006.032-.018.026-.027.018-.031.006H3.969l-.031-.006-.027-.018-.018-.026-.006-.032V4.27l.006-.031.018-.027.026-.018.032-.006Z" style="stroke:#afafaf;stroke-width:.0212;stroke-opacity:1;stroke-linecap:round;stroke-linejoin:round;fill:none"/>
    </g>
    <g style="fill:none;stroke:#afafaf;stroke-width:.0389;stroke-opacity:1;stroke-linecap:round;stroke-linejoin:round">
        <g class="stroked-text">
            <path d="m4.454 2.89.022-.022M4.476 2.868l.044-.022M4.52 2.846h.111M4.631 2.846l.045.022M4.676 2.868l.022.022M4.698 2.89l.022.044M4.72 2.934v.045M4.72 2.979l-.022.066M4.698 3.045l-.267.267M4.431 3.312h.29"/>
        </g>
        <path d="m5.205 2.688.031.006.027.018.018.027.006.031v.656l-.006.032-.018.026-.027.018-.031.006H3.969l-.031-.006-.027-.018-.018-.026-.006-.032V2.77l.006-.031.018-.027.026-.018.032-.006Z" style="stroke:#afafaf;stroke-width:.0212;stroke-opacity:1;stroke-linecap:round;stroke-linejoin:round;fill:none"/>
    </g>
    <g style="fill:none;stroke:#afafaf;stroke-width:.0389;stroke-opacity:1;stroke-linecap:round;stroke-linejoin:round">
        <g class="stroked-text">
            <path d="M10.031 2.846h.29M10.32 2.846l-.155.177M10.165 3.023h.066M10.231 3.023l.045.022M10.276 3.045l.022.023M10.298 3.068l.022.044M10.32 3.112v.111M10.32 3.223l-.022.045M10.298 3.268l-.022.022M10.276 3.29l-.045.022M10.231 3.312h-.133M10.098 3.312l-.044-.022M10.054 3.29l-.023-.022"/>
        </g>
        <path d="m10.477 2.688.41.41v.328l-.006.032-.018.026-.027.018-.031.006H9.569l-.032-.006-.026-.018-.018-.026-.006-.032V2.77l.006-.031.018-.027.027-.018.03-.006Z" style="stroke:#afafaf;stroke-width:.0212;stroke-opacity:1;stroke-linecap:round;stroke-linejoin:round;fill:none"/>
    </g>
    <g style="fill:none;stroke:#afafaf;stroke-width:.0389;stroke-opacity:1;stroke-linecap:round;stroke-linejoin:round">
        <g class="stroked-text">
            <path d="M10.276 4.501v.311M10.165 4.323l-.111.334M10.054 4.657h.288"/>
        </g>
        <path d="m10.805 4.188.031.006.027.018.018.027.006.031v.656l-.006.032-.018.026-.027.018-.031.006H9.569l-.032-.006-.026-.018-.018-.026-.006-.032V4.27l.006-.031.018-.027.027-.018.03-.006Z" style="stroke:#afafaf;stroke-width:.0212;stroke-opacity:1;stroke-linecap:round;stroke-linejoin:round;fill:none"/>
    </g>
    <g style="fill:none;stroke:#d0d2cd;stroke-width:.05;stroke-opacity:1;stroke-linecap:round;stroke-linejoin:round">
        <path d="M5.587 5.148v-2.6M5.787 2.348h3.2M8.987 5.348h-3.2M9.187 2.548v2.6M5.787 2.348a.2.2 0 0 0-.2.2M5.587 5.148a.2.2 0 0 0 .2.2M9.187 2.548a.2.2 0 0 0-.2-.2M8.987 5.348a.2.2 0 0 0 .2-.2"/>
    </g>
</svg>
