<?xml version="1.0" standalone="no"?>
 <!DOCTYPE svg PUBLIC "-//W3C//DTD SVG 1.1//EN" 
 "http://www.w3.org/Graphics/SVG/1.1/DTD/svg11.dtd"> 
<svg
  xmlns:svg="http://www.w3.org/2000/svg"
  xmlns="http://www.w3.org/2000/svg"
  xmlns:xlink="http://www.w3.org/1999/xlink"
  version="1.1"
  width="16.7640mm" height="3.9878mm" viewBox="0.0000 0.0000 16.7640 3.9878">
<title>SVG Image created as MouseBite_2.0x3.2mm.svg date 2025/05/12 02:45:49 </title>
  <desc>Image generated by PCBNEW </desc>
<g style="fill:#000000; fill-opacity:1.0000;stroke:#000000; stroke-opacity:1.0000;
stroke-linecap:round; stroke-linejoin:round;"
 transform="translate(0 0) scale(1 1)">
</g>
<g style="fill:none; 
stroke:#585D84; stroke-width:0.0212; stroke-opacity:1; 
stroke-linecap:round; stroke-linejoin:round;">
<circle cx="7.1869" cy="0.2500" r="0.2500" /> 
</g>
<g style="fill:none; 
stroke:#585D84; stroke-width:0.0212; stroke-opacity:1; 
stroke-linecap:round; stroke-linejoin:round;">
<circle cx="7.1869" cy="1.8500" r="0.2500" /> 
</g>
<g style="fill:none; 
stroke:#585D84; stroke-width:0.0212; stroke-opacity:1; 
stroke-linecap:round; stroke-linejoin:round;">
<circle cx="7.9869" cy="0.2500" r="0.2500" /> 
</g>
<g style="fill:none; 
stroke:#585D84; stroke-width:0.0212; stroke-opacity:1; 
stroke-linecap:round; stroke-linejoin:round;">
<circle cx="7.9869" cy="1.8500" r="0.2500" /> 
</g>
<g style="fill:none; 
stroke:#585D84; stroke-width:0.0212; stroke-opacity:1; 
stroke-linecap:round; stroke-linejoin:round;">
<circle cx="8.7869" cy="0.2500" r="0.2500" /> 
</g>
<g style="fill:none; 
stroke:#585D84; stroke-width:0.0212; stroke-opacity:1; 
stroke-linecap:round; stroke-linejoin:round;">
<circle cx="8.7869" cy="1.8500" r="0.2500" /> 
</g>
<g style="fill:none; 
stroke:#585D84; stroke-width:0.0212; stroke-opacity:1; 
stroke-linecap:round; stroke-linejoin:round;">
<circle cx="9.5869" cy="0.2500" r="0.2500" /> 
</g>
<g style="fill:none; 
stroke:#585D84; stroke-width:0.0212; stroke-opacity:1; 
stroke-linecap:round; stroke-linejoin:round;">
<circle cx="9.5869" cy="1.8500" r="0.2500" /> 
</g>
<g style="fill:none; 
stroke:#AFAFAF; stroke-width:0.1500; stroke-opacity:1; 
stroke-linecap:round; stroke-linejoin:round;">
<text x="8.3869" y="3.6500"
textLength="16.7738" font-size="1.3333" lengthAdjust="spacingAndGlyphs"
text-anchor="middle" opacity="0" stroke-opacity="0">MouseBite_2.0x3.2mm</text>
<g class="stroked-text"><desc>MouseBite_2.0x3.2mm</desc>
<path d="M0.3631 3.6048
L0.3631 2.6048
" />
<path d="M0.3631 2.6048
L0.6964 3.3191
" />
<path d="M0.6964 3.3191
L1.0298 2.6048
" />
<path d="M1.0298 2.6048
L1.0298 3.6048
" />
<path d="M1.6488 3.6048
L1.5536 3.5572
" />
<path d="M1.5536 3.5572
L1.5060 3.5096
" />
<path d="M1.5060 3.5096
L1.4583 3.4143
" />
<path d="M1.4583 3.4143
L1.4583 3.1286
" />
<path d="M1.4583 3.1286
L1.5060 3.0334
" />
<path d="M1.5060 3.0334
L1.5536 2.9858
" />
<path d="M1.5536 2.9858
L1.6488 2.9382
" />
<path d="M1.6488 2.9382
L1.7917 2.9382
" />
<path d="M1.7917 2.9382
L1.8869 2.9858
" />
<path d="M1.8869 2.9858
L1.9345 3.0334
" />
<path d="M1.9345 3.0334
L1.9821 3.1286
" />
<path d="M1.9821 3.1286
L1.9821 3.4143
" />
<path d="M1.9821 3.4143
L1.9345 3.5096
" />
<path d="M1.9345 3.5096
L1.8869 3.5572
" />
<path d="M1.8869 3.5572
L1.7917 3.6048
" />
<path d="M1.7917 3.6048
L1.6488 3.6048
" />
<path d="M2.8393 2.9382
L2.8393 3.6048
" />
<path d="M2.4107 2.9382
L2.4107 3.4620
" />
<path d="M2.4107 3.4620
L2.4583 3.5572
" />
<path d="M2.4583 3.5572
L2.5536 3.6048
" />
<path d="M2.5536 3.6048
L2.6964 3.6048
" />
<path d="M2.6964 3.6048
L2.7917 3.5572
" />
<path d="M2.7917 3.5572
L2.8393 3.5096
" />
<path d="M3.2679 3.5572
L3.3631 3.6048
" />
<path d="M3.3631 3.6048
L3.5536 3.6048
" />
<path d="M3.5536 3.6048
L3.6488 3.5572
" />
<path d="M3.6488 3.5572
L3.6964 3.4620
" />
<path d="M3.6964 3.4620
L3.6964 3.4143
" />
<path d="M3.6964 3.4143
L3.6488 3.3191
" />
<path d="M3.6488 3.3191
L3.5536 3.2715
" />
<path d="M3.5536 3.2715
L3.4107 3.2715
" />
<path d="M3.4107 3.2715
L3.3155 3.2239
" />
<path d="M3.3155 3.2239
L3.2679 3.1286
" />
<path d="M3.2679 3.1286
L3.2679 3.0810
" />
<path d="M3.2679 3.0810
L3.3155 2.9858
" />
<path d="M3.3155 2.9858
L3.4107 2.9382
" />
<path d="M3.4107 2.9382
L3.5536 2.9382
" />
<path d="M3.5536 2.9382
L3.6488 2.9858
" />
<path d="M4.5060 3.5572
L4.4107 3.6048
" />
<path d="M4.4107 3.6048
L4.2202 3.6048
" />
<path d="M4.2202 3.6048
L4.1250 3.5572
" />
<path d="M4.1250 3.5572
L4.0774 3.4620
" />
<path d="M4.0774 3.4620
L4.0774 3.0810
" />
<path d="M4.0774 3.0810
L4.1250 2.9858
" />
<path d="M4.1250 2.9858
L4.2202 2.9382
" />
<path d="M4.2202 2.9382
L4.4107 2.9382
" />
<path d="M4.4107 2.9382
L4.5060 2.9858
" />
<path d="M4.5060 2.9858
L4.5536 3.0810
" />
<path d="M4.5536 3.0810
L4.5536 3.1762
" />
<path d="M4.5536 3.1762
L4.0774 3.2715
" />
<path d="M5.3155 3.0810
L5.4583 3.1286
" />
<path d="M5.4583 3.1286
L5.5060 3.1762
" />
<path d="M5.5060 3.1762
L5.5536 3.2715
" />
<path d="M5.5536 3.2715
L5.5536 3.4143
" />
<path d="M5.5536 3.4143
L5.5060 3.5096
" />
<path d="M5.5060 3.5096
L5.4583 3.5572
" />
<path d="M5.4583 3.5572
L5.3631 3.6048
" />
<path d="M5.3631 3.6048
L4.9821 3.6048
" />
<path d="M4.9821 3.6048
L4.9821 2.6048
" />
<path d="M4.9821 2.6048
L5.3155 2.6048
" />
<path d="M5.3155 2.6048
L5.4107 2.6524
" />
<path d="M5.4107 2.6524
L5.4583 2.7001
" />
<path d="M5.4583 2.7001
L5.5060 2.7953
" />
<path d="M5.5060 2.7953
L5.5060 2.8905
" />
<path d="M5.5060 2.8905
L5.4583 2.9858
" />
<path d="M5.4583 2.9858
L5.4107 3.0334
" />
<path d="M5.4107 3.0334
L5.3155 3.0810
" />
<path d="M5.3155 3.0810
L4.9821 3.0810
" />
<path d="M5.9821 3.6048
L5.9821 2.9382
" />
<path d="M5.9821 2.6048
L5.9345 2.6524
" />
<path d="M5.9345 2.6524
L5.9821 2.7001
" />
<path d="M5.9821 2.7001
L6.0298 2.6524
" />
<path d="M6.0298 2.6524
L5.9821 2.6048
" />
<path d="M5.9821 2.6048
L5.9821 2.7001
" />
<path d="M6.3155 2.9382
L6.6964 2.9382
" />
<path d="M6.4583 2.6048
L6.4583 3.4620
" />
<path d="M6.4583 3.4620
L6.5060 3.5572
" />
<path d="M6.5060 3.5572
L6.6012 3.6048
" />
<path d="M6.6012 3.6048
L6.6964 3.6048
" />
<path d="M7.4107 3.5572
L7.3155 3.6048
" />
<path d="M7.3155 3.6048
L7.1250 3.6048
" />
<path d="M7.1250 3.6048
L7.0298 3.5572
" />
<path d="M7.0298 3.5572
L6.9821 3.4620
" />
<path d="M6.9821 3.4620
L6.9821 3.0810
" />
<path d="M6.9821 3.0810
L7.0298 2.9858
" />
<path d="M7.0298 2.9858
L7.1250 2.9382
" />
<path d="M7.1250 2.9382
L7.3155 2.9382
" />
<path d="M7.3155 2.9382
L7.4107 2.9858
" />
<path d="M7.4107 2.9858
L7.4583 3.0810
" />
<path d="M7.4583 3.0810
L7.4583 3.1762
" />
<path d="M7.4583 3.1762
L6.9821 3.2715
" />
<path d="M7.6488 3.7001
L8.4107 3.7001
" />
<path d="M8.6012 2.7001
L8.6488 2.6524
" />
<path d="M8.6488 2.6524
L8.7440 2.6048
" />
<path d="M8.7440 2.6048
L8.9821 2.6048
" />
<path d="M8.9821 2.6048
L9.0774 2.6524
" />
<path d="M9.0774 2.6524
L9.1250 2.7001
" />
<path d="M9.1250 2.7001
L9.1726 2.7953
" />
<path d="M9.1726 2.7953
L9.1726 2.8905
" />
<path d="M9.1726 2.8905
L9.1250 3.0334
" />
<path d="M9.1250 3.0334
L8.5536 3.6048
" />
<path d="M8.5536 3.6048
L9.1726 3.6048
" />
<path d="M9.6012 3.5096
L9.6488 3.5572
" />
<path d="M9.6488 3.5572
L9.6012 3.6048
" />
<path d="M9.6012 3.6048
L9.5536 3.5572
" />
<path d="M9.5536 3.5572
L9.6012 3.5096
" />
<path d="M9.6012 3.5096
L9.6012 3.6048
" />
<path d="M10.2679 2.6048
L10.3631 2.6048
" />
<path d="M10.3631 2.6048
L10.4583 2.6524
" />
<path d="M10.4583 2.6524
L10.5060 2.7001
" />
<path d="M10.5060 2.7001
L10.5536 2.7953
" />
<path d="M10.5536 2.7953
L10.6012 2.9858
" />
<path d="M10.6012 2.9858
L10.6012 3.2239
" />
<path d="M10.6012 3.2239
L10.5536 3.4143
" />
<path d="M10.5536 3.4143
L10.5060 3.5096
" />
<path d="M10.5060 3.5096
L10.4583 3.5572
" />
<path d="M10.4583 3.5572
L10.3631 3.6048
" />
<path d="M10.3631 3.6048
L10.2679 3.6048
" />
<path d="M10.2679 3.6048
L10.1726 3.5572
" />
<path d="M10.1726 3.5572
L10.1250 3.5096
" />
<path d="M10.1250 3.5096
L10.0774 3.4143
" />
<path d="M10.0774 3.4143
L10.0298 3.2239
" />
<path d="M10.0298 3.2239
L10.0298 2.9858
" />
<path d="M10.0298 2.9858
L10.0774 2.7953
" />
<path d="M10.0774 2.7953
L10.1250 2.7001
" />
<path d="M10.1250 2.7001
L10.1726 2.6524
" />
<path d="M10.1726 2.6524
L10.2679 2.6048
" />
<path d="M10.9345 3.6048
L11.4583 2.9382
" />
<path d="M10.9345 2.9382
L11.4583 3.6048
" />
<path d="M11.7440 2.6048
L12.3631 2.6048
" />
<path d="M12.3631 2.6048
L12.0298 2.9858
" />
<path d="M12.0298 2.9858
L12.1726 2.9858
" />
<path d="M12.1726 2.9858
L12.2679 3.0334
" />
<path d="M12.2679 3.0334
L12.3155 3.0810
" />
<path d="M12.3155 3.0810
L12.3631 3.1762
" />
<path d="M12.3631 3.1762
L12.3631 3.4143
" />
<path d="M12.3631 3.4143
L12.3155 3.5096
" />
<path d="M12.3155 3.5096
L12.2679 3.5572
" />
<path d="M12.2679 3.5572
L12.1726 3.6048
" />
<path d="M12.1726 3.6048
L11.8869 3.6048
" />
<path d="M11.8869 3.6048
L11.7917 3.5572
" />
<path d="M11.7917 3.5572
L11.7440 3.5096
" />
<path d="M12.7917 3.5096
L12.8393 3.5572
" />
<path d="M12.8393 3.5572
L12.7917 3.6048
" />
<path d="M12.7917 3.6048
L12.7440 3.5572
" />
<path d="M12.7440 3.5572
L12.7917 3.5096
" />
<path d="M12.7917 3.5096
L12.7917 3.6048
" />
<path d="M13.2202 2.7001
L13.2679 2.6524
" />
<path d="M13.2679 2.6524
L13.3631 2.6048
" />
<path d="M13.3631 2.6048
L13.6012 2.6048
" />
<path d="M13.6012 2.6048
L13.6964 2.6524
" />
<path d="M13.6964 2.6524
L13.7440 2.7001
" />
<path d="M13.7440 2.7001
L13.7917 2.7953
" />
<path d="M13.7917 2.7953
L13.7917 2.8905
" />
<path d="M13.7917 2.8905
L13.7440 3.0334
" />
<path d="M13.7440 3.0334
L13.1726 3.6048
" />
<path d="M13.1726 3.6048
L13.7917 3.6048
" />
<path d="M14.2202 3.6048
L14.2202 2.9382
" />
<path d="M14.2202 3.0334
L14.2679 2.9858
" />
<path d="M14.2679 2.9858
L14.3631 2.9382
" />
<path d="M14.3631 2.9382
L14.5060 2.9382
" />
<path d="M14.5060 2.9382
L14.6012 2.9858
" />
<path d="M14.6012 2.9858
L14.6488 3.0810
" />
<path d="M14.6488 3.0810
L14.6488 3.6048
" />
<path d="M14.6488 3.0810
L14.6964 2.9858
" />
<path d="M14.6964 2.9858
L14.7917 2.9382
" />
<path d="M14.7917 2.9382
L14.9345 2.9382
" />
<path d="M14.9345 2.9382
L15.0298 2.9858
" />
<path d="M15.0298 2.9858
L15.0774 3.0810
" />
<path d="M15.0774 3.0810
L15.0774 3.6048
" />
<path d="M15.5536 3.6048
L15.5536 2.9382
" />
<path d="M15.5536 3.0334
L15.6012 2.9858
" />
<path d="M15.6012 2.9858
L15.6964 2.9382
" />
<path d="M15.6964 2.9382
L15.8393 2.9382
" />
<path d="M15.8393 2.9382
L15.9345 2.9858
" />
<path d="M15.9345 2.9858
L15.9821 3.0810
" />
<path d="M15.9821 3.0810
L15.9821 3.6048
" />
<path d="M15.9821 3.0810
L16.0298 2.9858
" />
<path d="M16.0298 2.9858
L16.1250 2.9382
" />
<path d="M16.1250 2.9382
L16.2679 2.9382
" />
<path d="M16.2679 2.9382
L16.3631 2.9858
" />
<path d="M16.3631 2.9858
L16.4107 3.0810
" />
<path d="M16.4107 3.0810
L16.4107 3.6048
" />
</g></g>
<g style="fill:none; 
stroke:#AFAFAF; stroke-width:0.0212; stroke-opacity:1; 
stroke-linecap:round; stroke-linejoin:round;">
<circle cx="7.1869" cy="0.2500" r="0.2500" /> 
</g>
<g style="fill:none; 
stroke:#AFAFAF; stroke-width:0.0212; stroke-opacity:1; 
stroke-linecap:round; stroke-linejoin:round;">
<circle cx="7.1869" cy="1.8500" r="0.2500" /> 
</g>
<g style="fill:none; 
stroke:#AFAFAF; stroke-width:0.0212; stroke-opacity:1; 
stroke-linecap:round; stroke-linejoin:round;">
<circle cx="7.9869" cy="0.2500" r="0.2500" /> 
</g>
<g style="fill:none; 
stroke:#AFAFAF; stroke-width:0.0212; stroke-opacity:1; 
stroke-linecap:round; stroke-linejoin:round;">
<circle cx="7.9869" cy="1.8500" r="0.2500" /> 
</g>
<g style="fill:none; 
stroke:#AFAFAF; stroke-width:0.0212; stroke-opacity:1; 
stroke-linecap:round; stroke-linejoin:round;">
<circle cx="8.7869" cy="0.2500" r="0.2500" /> 
</g>
<g style="fill:none; 
stroke:#AFAFAF; stroke-width:0.0212; stroke-opacity:1; 
stroke-linecap:round; stroke-linejoin:round;">
<circle cx="8.7869" cy="1.8500" r="0.2500" /> 
</g>
<g style="fill:none; 
stroke:#AFAFAF; stroke-width:0.0212; stroke-opacity:1; 
stroke-linecap:round; stroke-linejoin:round;">
<circle cx="9.5869" cy="0.2500" r="0.2500" /> 
</g>
<g style="fill:none; 
stroke:#AFAFAF; stroke-width:0.0212; stroke-opacity:1; 
stroke-linecap:round; stroke-linejoin:round;">
<circle cx="9.5869" cy="1.8500" r="0.2500" /> 
</g>
<g style="fill:none; 
stroke:#C2C2C2; stroke-width:0.1000; stroke-opacity:1; 
stroke-linecap:round; stroke-linejoin:round;">
<path d="M5.7869 2.0500 A1.0000 1.0000 0.0 0 0 5.7869 0.0500" />
<path d="M10.9869 0.0500 A1.0000 1.0000 0.0 0 0 10.9869 2.0500" />
</g>
<g style="fill:none; 
stroke:#C2C2C2; stroke-width:0.0500; stroke-opacity:1; 
stroke-linecap:round; stroke-linejoin:round;">
<circle cx="5.7869" cy="1.0500" r="0.0600" /> 
<circle cx="10.9869" cy="1.0500" r="0.0600" /> 
</g> 
</svg>
