<?xml version="1.0" standalone="no"?>
 <!DOCTYPE svg PUBLIC "-//W3C//DTD SVG 1.1//EN" 
 "http://www.w3.org/Graphics/SVG/1.1/DTD/svg11.dtd"> 
<svg
  xmlns:svg="http://www.w3.org/2000/svg"
  xmlns="http://www.w3.org/2000/svg"
  xmlns:xlink="http://www.w3.org/1999/xlink"
  version="1.1"
  width="19.6088mm" height="3.8100mm" viewBox="0.0000 0.0000 19.6088 3.8100">
<title>SVG Image created as Resistor_SMD_1206_inSilk.svg date 2025/04/12 02:58:43 </title>
  <desc>Image generated by PCBNEW </desc>
<g style="fill:#000000; fill-opacity:1.0000;stroke:#000000; stroke-opacity:1.0000;
stroke-linecap:round; stroke-linejoin:round;"
 transform="translate(0 0) scale(1 1)">
</g>
<g style="fill:none; 
stroke:#F2EDA1; stroke-width:0.1200; stroke-opacity:1; 
stroke-linecap:round; stroke-linejoin:round;">
<text x="9.8155" y="1.5550"
textLength="3.6286" font-size="1.0667" lengthAdjust="spacingAndGlyphs"
text-anchor="middle" opacity="0" stroke-opacity="0">REF**</text>
<g class="stroked-text"><desc>REF**</desc>
<path d="M8.7488 1.5189
L8.4821 1.1379
" />
<path d="M8.2917 1.5189
L8.2917 0.7189
" />
<path d="M8.2917 0.7189
L8.5964 0.7189
" />
<path d="M8.5964 0.7189
L8.6726 0.7570
" />
<path d="M8.6726 0.7570
L8.7107 0.7950
" />
<path d="M8.7107 0.7950
L8.7488 0.8712
" />
<path d="M8.7488 0.8712
L8.7488 0.9855
" />
<path d="M8.7488 0.9855
L8.7107 1.0617
" />
<path d="M8.7107 1.0617
L8.6726 1.0998
" />
<path d="M8.6726 1.0998
L8.5964 1.1379
" />
<path d="M8.5964 1.1379
L8.2917 1.1379
" />
<path d="M9.0917 1.0998
L9.3583 1.0998
" />
<path d="M9.4726 1.5189
L9.0917 1.5189
" />
<path d="M9.0917 1.5189
L9.0917 0.7189
" />
<path d="M9.0917 0.7189
L9.4726 0.7189
" />
<path d="M10.0821 1.0998
L9.8155 1.0998
" />
<path d="M9.8155 1.5189
L9.8155 0.7189
" />
<path d="M9.8155 0.7189
L10.1964 0.7189
" />
<path d="M10.6155 0.7189
L10.6155 0.9093
" />
<path d="M10.4250 0.8331
L10.6155 0.9093
" />
<path d="M10.6155 0.9093
L10.8060 0.8331
" />
<path d="M10.5012 1.0617
L10.6155 0.9093
" />
<path d="M10.6155 0.9093
L10.7298 1.0617
" />
<path d="M11.2250 0.7189
L11.2250 0.9093
" />
<path d="M11.0345 0.8331
L11.2250 0.9093
" />
<path d="M11.2250 0.9093
L11.4155 0.8331
" />
<path d="M11.1107 1.0617
L11.2250 0.9093
" />
<path d="M11.2250 0.9093
L11.3393 1.0617
" />
</g><path d="M9.0884 0.2450
L10.5425 0.2450
" />
<path d="M9.0884 2.0650
L10.5425 2.0650
" />
<path style="fill:#B4A09A; fill-opacity:0.9000; stroke:none;fill-rule:evenodd;"
d="M 7.6155,0.5300
7.6345,0.4343
7.6887,0.3532
7.7698,0.2990
7.8655,0.2800
8.6655,0.2800
8.7611,0.2990
8.8423,0.3532
8.8964,0.4343
8.9155,0.5300
8.9155,1.7800
8.8964,1.8757
8.8423,1.9568
8.7611,2.0110
8.6655,2.0300
7.8655,2.0300
7.7698,2.0110
7.6887,1.9568
7.6345,1.8757
7.6155,1.7800
Z" /> 
<path style="fill:#B4A09A; fill-opacity:0.9000; stroke:none;fill-rule:evenodd;"
d="M 10.7155,0.5300
10.7345,0.4343
10.7887,0.3532
10.8698,0.2990
10.9655,0.2800
11.7655,0.2800
11.8611,0.2990
11.9423,0.3532
11.9964,0.4343
12.0155,0.5300
12.0155,1.7800
11.9964,1.8757
11.9423,1.9568
11.8611,2.0110
11.7655,2.0300
10.9655,2.0300
10.8698,2.0110
10.7887,1.9568
10.7345,1.8757
10.7155,1.7800
Z" /> 
<path style="fill:#C83434; fill-opacity:1.0000; stroke:none;fill-rule:evenodd;"
d="M 7.6155,0.5300
7.6345,0.4343
7.6887,0.3532
7.7698,0.2990
7.8655,0.2800
8.6655,0.2800
8.7611,0.2990
8.8423,0.3532
8.8964,0.4343
8.9155,0.5300
8.9155,1.7800
8.8964,1.8757
8.8423,1.9568
8.7611,2.0110
8.6655,2.0300
7.8655,2.0300
7.7698,2.0110
7.6887,1.9568
7.6345,1.8757
7.6155,1.7800
Z" /> 
<path style="fill:#C83434; fill-opacity:1.0000; stroke:none;fill-rule:evenodd;"
d="M 10.7155,0.5300
10.7345,0.4343
10.7887,0.3532
10.8698,0.2990
10.9655,0.2800
11.7655,0.2800
11.8611,0.2990
11.9423,0.3532
11.9964,0.4343
12.0155,0.5300
12.0155,1.7800
11.9964,1.8757
11.9423,1.9568
11.8611,2.0110
11.7655,2.0300
10.9655,2.0300
10.8698,2.0110
10.7887,1.9568
10.7345,1.8757
10.7155,1.7800
Z" /> 
</g>
<g style="fill:none; 
stroke:#AFAFAF; stroke-width:0.1500; stroke-opacity:1; 
stroke-linecap:round; stroke-linejoin:round;">
<text x="9.8155" y="3.4850"
textLength="19.6310" font-size="1.3333" lengthAdjust="spacingAndGlyphs"
text-anchor="middle" opacity="0" stroke-opacity="0">Resistor_SMD_1206_inSilk</text>
<g class="stroked-text"><desc>Resistor_SMD_1206_inSilk</desc>
<path d="M0.9345 3.4398
L0.6012 2.9636
" />
<path d="M0.3631 3.4398
L0.3631 2.4398
" />
<path d="M0.3631 2.4398
L0.7440 2.4398
" />
<path d="M0.7440 2.4398
L0.8393 2.4874
" />
<path d="M0.8393 2.4874
L0.8869 2.5351
" />
<path d="M0.8869 2.5351
L0.9345 2.6303
" />
<path d="M0.9345 2.6303
L0.9345 2.7732
" />
<path d="M0.9345 2.7732
L0.8869 2.8684
" />
<path d="M0.8869 2.8684
L0.8393 2.9160
" />
<path d="M0.8393 2.9160
L0.7440 2.9636
" />
<path d="M0.7440 2.9636
L0.3631 2.9636
" />
<path d="M1.7440 3.3922
L1.6488 3.4398
" />
<path d="M1.6488 3.4398
L1.4583 3.4398
" />
<path d="M1.4583 3.4398
L1.3631 3.3922
" />
<path d="M1.3631 3.3922
L1.3155 3.2970
" />
<path d="M1.3155 3.2970
L1.3155 2.9160
" />
<path d="M1.3155 2.9160
L1.3631 2.8208
" />
<path d="M1.3631 2.8208
L1.4583 2.7732
" />
<path d="M1.4583 2.7732
L1.6488 2.7732
" />
<path d="M1.6488 2.7732
L1.7440 2.8208
" />
<path d="M1.7440 2.8208
L1.7917 2.9160
" />
<path d="M1.7917 2.9160
L1.7917 3.0112
" />
<path d="M1.7917 3.0112
L1.3155 3.1065
" />
<path d="M2.1726 3.3922
L2.2679 3.4398
" />
<path d="M2.2679 3.4398
L2.4583 3.4398
" />
<path d="M2.4583 3.4398
L2.5536 3.3922
" />
<path d="M2.5536 3.3922
L2.6012 3.2970
" />
<path d="M2.6012 3.2970
L2.6012 3.2493
" />
<path d="M2.6012 3.2493
L2.5536 3.1541
" />
<path d="M2.5536 3.1541
L2.4583 3.1065
" />
<path d="M2.4583 3.1065
L2.3155 3.1065
" />
<path d="M2.3155 3.1065
L2.2202 3.0589
" />
<path d="M2.2202 3.0589
L2.1726 2.9636
" />
<path d="M2.1726 2.9636
L2.1726 2.9160
" />
<path d="M2.1726 2.9160
L2.2202 2.8208
" />
<path d="M2.2202 2.8208
L2.3155 2.7732
" />
<path d="M2.3155 2.7732
L2.4583 2.7732
" />
<path d="M2.4583 2.7732
L2.5536 2.8208
" />
<path d="M3.0298 3.4398
L3.0298 2.7732
" />
<path d="M3.0298 2.4398
L2.9821 2.4874
" />
<path d="M2.9821 2.4874
L3.0298 2.5351
" />
<path d="M3.0298 2.5351
L3.0774 2.4874
" />
<path d="M3.0774 2.4874
L3.0298 2.4398
" />
<path d="M3.0298 2.4398
L3.0298 2.5351
" />
<path d="M3.4583 3.3922
L3.5536 3.4398
" />
<path d="M3.5536 3.4398
L3.7440 3.4398
" />
<path d="M3.7440 3.4398
L3.8393 3.3922
" />
<path d="M3.8393 3.3922
L3.8869 3.2970
" />
<path d="M3.8869 3.2970
L3.8869 3.2493
" />
<path d="M3.8869 3.2493
L3.8393 3.1541
" />
<path d="M3.8393 3.1541
L3.7440 3.1065
" />
<path d="M3.7440 3.1065
L3.6012 3.1065
" />
<path d="M3.6012 3.1065
L3.5060 3.0589
" />
<path d="M3.5060 3.0589
L3.4583 2.9636
" />
<path d="M3.4583 2.9636
L3.4583 2.9160
" />
<path d="M3.4583 2.9160
L3.5060 2.8208
" />
<path d="M3.5060 2.8208
L3.6012 2.7732
" />
<path d="M3.6012 2.7732
L3.7440 2.7732
" />
<path d="M3.7440 2.7732
L3.8393 2.8208
" />
<path d="M4.1726 2.7732
L4.5536 2.7732
" />
<path d="M4.3155 2.4398
L4.3155 3.2970
" />
<path d="M4.3155 3.2970
L4.3631 3.3922
" />
<path d="M4.3631 3.3922
L4.4583 3.4398
" />
<path d="M4.4583 3.4398
L4.5536 3.4398
" />
<path d="M5.0298 3.4398
L4.9345 3.3922
" />
<path d="M4.9345 3.3922
L4.8869 3.3446
" />
<path d="M4.8869 3.3446
L4.8393 3.2493
" />
<path d="M4.8393 3.2493
L4.8393 2.9636
" />
<path d="M4.8393 2.9636
L4.8869 2.8684
" />
<path d="M4.8869 2.8684
L4.9345 2.8208
" />
<path d="M4.9345 2.8208
L5.0298 2.7732
" />
<path d="M5.0298 2.7732
L5.1726 2.7732
" />
<path d="M5.1726 2.7732
L5.2679 2.8208
" />
<path d="M5.2679 2.8208
L5.3155 2.8684
" />
<path d="M5.3155 2.8684
L5.3631 2.9636
" />
<path d="M5.3631 2.9636
L5.3631 3.2493
" />
<path d="M5.3631 3.2493
L5.3155 3.3446
" />
<path d="M5.3155 3.3446
L5.2679 3.3922
" />
<path d="M5.2679 3.3922
L5.1726 3.4398
" />
<path d="M5.1726 3.4398
L5.0298 3.4398
" />
<path d="M5.7917 3.4398
L5.7917 2.7732
" />
<path d="M5.7917 2.9636
L5.8393 2.8684
" />
<path d="M5.8393 2.8684
L5.8869 2.8208
" />
<path d="M5.8869 2.8208
L5.9821 2.7732
" />
<path d="M5.9821 2.7732
L6.0774 2.7732
" />
<path d="M6.1726 3.5351
L6.9345 3.5351
" />
<path d="M7.1250 3.3922
L7.2679 3.4398
" />
<path d="M7.2679 3.4398
L7.5060 3.4398
" />
<path d="M7.5060 3.4398
L7.6012 3.3922
" />
<path d="M7.6012 3.3922
L7.6488 3.3446
" />
<path d="M7.6488 3.3446
L7.6964 3.2493
" />
<path d="M7.6964 3.2493
L7.6964 3.1541
" />
<path d="M7.6964 3.1541
L7.6488 3.0589
" />
<path d="M7.6488 3.0589
L7.6012 3.0112
" />
<path d="M7.6012 3.0112
L7.5060 2.9636
" />
<path d="M7.5060 2.9636
L7.3155 2.9160
" />
<path d="M7.3155 2.9160
L7.2202 2.8684
" />
<path d="M7.2202 2.8684
L7.1726 2.8208
" />
<path d="M7.1726 2.8208
L7.1250 2.7255
" />
<path d="M7.1250 2.7255
L7.1250 2.6303
" />
<path d="M7.1250 2.6303
L7.1726 2.5351
" />
<path d="M7.1726 2.5351
L7.2202 2.4874
" />
<path d="M7.2202 2.4874
L7.3155 2.4398
" />
<path d="M7.3155 2.4398
L7.5536 2.4398
" />
<path d="M7.5536 2.4398
L7.6964 2.4874
" />
<path d="M8.1250 3.4398
L8.1250 2.4398
" />
<path d="M8.1250 2.4398
L8.4583 3.1541
" />
<path d="M8.4583 3.1541
L8.7917 2.4398
" />
<path d="M8.7917 2.4398
L8.7917 3.4398
" />
<path d="M9.2679 3.4398
L9.2679 2.4398
" />
<path d="M9.2679 2.4398
L9.5060 2.4398
" />
<path d="M9.5060 2.4398
L9.6488 2.4874
" />
<path d="M9.6488 2.4874
L9.7440 2.5827
" />
<path d="M9.7440 2.5827
L9.7917 2.6779
" />
<path d="M9.7917 2.6779
L9.8393 2.8684
" />
<path d="M9.8393 2.8684
L9.8393 3.0112
" />
<path d="M9.8393 3.0112
L9.7917 3.2017
" />
<path d="M9.7917 3.2017
L9.7440 3.2970
" />
<path d="M9.7440 3.2970
L9.6488 3.3922
" />
<path d="M9.6488 3.3922
L9.5060 3.4398
" />
<path d="M9.5060 3.4398
L9.2679 3.4398
" />
<path d="M10.0298 3.5351
L10.7917 3.5351
" />
<path d="M11.5536 3.4398
L10.9821 3.4398
" />
<path d="M11.2679 3.4398
L11.2679 2.4398
" />
<path d="M11.2679 2.4398
L11.1726 2.5827
" />
<path d="M11.1726 2.5827
L11.0774 2.6779
" />
<path d="M11.0774 2.6779
L10.9821 2.7255
" />
<path d="M11.9345 2.5351
L11.9821 2.4874
" />
<path d="M11.9821 2.4874
L12.0774 2.4398
" />
<path d="M12.0774 2.4398
L12.3155 2.4398
" />
<path d="M12.3155 2.4398
L12.4107 2.4874
" />
<path d="M12.4107 2.4874
L12.4583 2.5351
" />
<path d="M12.4583 2.5351
L12.5060 2.6303
" />
<path d="M12.5060 2.6303
L12.5060 2.7255
" />
<path d="M12.5060 2.7255
L12.4583 2.8684
" />
<path d="M12.4583 2.8684
L11.8869 3.4398
" />
<path d="M11.8869 3.4398
L12.5060 3.4398
" />
<path d="M13.1250 2.4398
L13.2202 2.4398
" />
<path d="M13.2202 2.4398
L13.3155 2.4874
" />
<path d="M13.3155 2.4874
L13.3631 2.5351
" />
<path d="M13.3631 2.5351
L13.4107 2.6303
" />
<path d="M13.4107 2.6303
L13.4583 2.8208
" />
<path d="M13.4583 2.8208
L13.4583 3.0589
" />
<path d="M13.4583 3.0589
L13.4107 3.2493
" />
<path d="M13.4107 3.2493
L13.3631 3.3446
" />
<path d="M13.3631 3.3446
L13.3155 3.3922
" />
<path d="M13.3155 3.3922
L13.2202 3.4398
" />
<path d="M13.2202 3.4398
L13.1250 3.4398
" />
<path d="M13.1250 3.4398
L13.0298 3.3922
" />
<path d="M13.0298 3.3922
L12.9821 3.3446
" />
<path d="M12.9821 3.3446
L12.9345 3.2493
" />
<path d="M12.9345 3.2493
L12.8869 3.0589
" />
<path d="M12.8869 3.0589
L12.8869 2.8208
" />
<path d="M12.8869 2.8208
L12.9345 2.6303
" />
<path d="M12.9345 2.6303
L12.9821 2.5351
" />
<path d="M12.9821 2.5351
L13.0298 2.4874
" />
<path d="M13.0298 2.4874
L13.1250 2.4398
" />
<path d="M14.3155 2.4398
L14.1250 2.4398
" />
<path d="M14.1250 2.4398
L14.0298 2.4874
" />
<path d="M14.0298 2.4874
L13.9821 2.5351
" />
<path d="M13.9821 2.5351
L13.8869 2.6779
" />
<path d="M13.8869 2.6779
L13.8393 2.8684
" />
<path d="M13.8393 2.8684
L13.8393 3.2493
" />
<path d="M13.8393 3.2493
L13.8869 3.3446
" />
<path d="M13.8869 3.3446
L13.9345 3.3922
" />
<path d="M13.9345 3.3922
L14.0298 3.4398
" />
<path d="M14.0298 3.4398
L14.2202 3.4398
" />
<path d="M14.2202 3.4398
L14.3155 3.3922
" />
<path d="M14.3155 3.3922
L14.3631 3.3446
" />
<path d="M14.3631 3.3446
L14.4107 3.2493
" />
<path d="M14.4107 3.2493
L14.4107 3.0112
" />
<path d="M14.4107 3.0112
L14.3631 2.9160
" />
<path d="M14.3631 2.9160
L14.3155 2.8684
" />
<path d="M14.3155 2.8684
L14.2202 2.8208
" />
<path d="M14.2202 2.8208
L14.0298 2.8208
" />
<path d="M14.0298 2.8208
L13.9345 2.8684
" />
<path d="M13.9345 2.8684
L13.8869 2.9160
" />
<path d="M13.8869 2.9160
L13.8393 3.0112
" />
<path d="M14.6012 3.5351
L15.3631 3.5351
" />
<path d="M15.6012 3.4398
L15.6012 2.7732
" />
<path d="M15.6012 2.4398
L15.5536 2.4874
" />
<path d="M15.5536 2.4874
L15.6012 2.5351
" />
<path d="M15.6012 2.5351
L15.6488 2.4874
" />
<path d="M15.6488 2.4874
L15.6012 2.4398
" />
<path d="M15.6012 2.4398
L15.6012 2.5351
" />
<path d="M16.0774 2.7732
L16.0774 3.4398
" />
<path d="M16.0774 2.8684
L16.1250 2.8208
" />
<path d="M16.1250 2.8208
L16.2202 2.7732
" />
<path d="M16.2202 2.7732
L16.3631 2.7732
" />
<path d="M16.3631 2.7732
L16.4583 2.8208
" />
<path d="M16.4583 2.8208
L16.5060 2.9160
" />
<path d="M16.5060 2.9160
L16.5060 3.4398
" />
<path d="M16.9345 3.3922
L17.0774 3.4398
" />
<path d="M17.0774 3.4398
L17.3155 3.4398
" />
<path d="M17.3155 3.4398
L17.4107 3.3922
" />
<path d="M17.4107 3.3922
L17.4583 3.3446
" />
<path d="M17.4583 3.3446
L17.5060 3.2493
" />
<path d="M17.5060 3.2493
L17.5060 3.1541
" />
<path d="M17.5060 3.1541
L17.4583 3.0589
" />
<path d="M17.4583 3.0589
L17.4107 3.0112
" />
<path d="M17.4107 3.0112
L17.3155 2.9636
" />
<path d="M17.3155 2.9636
L17.1250 2.9160
" />
<path d="M17.1250 2.9160
L17.0298 2.8684
" />
<path d="M17.0298 2.8684
L16.9821 2.8208
" />
<path d="M16.9821 2.8208
L16.9345 2.7255
" />
<path d="M16.9345 2.7255
L16.9345 2.6303
" />
<path d="M16.9345 2.6303
L16.9821 2.5351
" />
<path d="M16.9821 2.5351
L17.0298 2.4874
" />
<path d="M17.0298 2.4874
L17.1250 2.4398
" />
<path d="M17.1250 2.4398
L17.3631 2.4398
" />
<path d="M17.3631 2.4398
L17.5060 2.4874
" />
<path d="M17.9345 3.4398
L17.9345 2.7732
" />
<path d="M17.9345 2.4398
L17.8869 2.4874
" />
<path d="M17.8869 2.4874
L17.9345 2.5351
" />
<path d="M17.9345 2.5351
L17.9821 2.4874
" />
<path d="M17.9821 2.4874
L17.9345 2.4398
" />
<path d="M17.9345 2.4398
L17.9345 2.5351
" />
<path d="M18.5536 3.4398
L18.4583 3.3922
" />
<path d="M18.4583 3.3922
L18.4107 3.2970
" />
<path d="M18.4107 3.2970
L18.4107 2.4398
" />
<path d="M18.9345 3.4398
L18.9345 2.4398
" />
<path d="M19.0298 3.0589
L19.3155 3.4398
" />
<path d="M19.3155 2.7732
L18.9345 3.1541
" />
</g></g>
<g style="fill:none; 
stroke:#AFAFAF; stroke-width:0.1200; stroke-opacity:1; 
stroke-linecap:round; stroke-linejoin:round;">
<text x="9.8155" y="1.5550"
textLength="3.6286" font-size="1.0667" lengthAdjust="spacingAndGlyphs"
text-anchor="middle" opacity="0" stroke-opacity="0">REF**</text>
<g class="stroked-text"><desc>REF**</desc>
<path d="M8.7488 1.5189
L8.4821 1.1379
" />
<path d="M8.2917 1.5189
L8.2917 0.7189
" />
<path d="M8.2917 0.7189
L8.5964 0.7189
" />
<path d="M8.5964 0.7189
L8.6726 0.7570
" />
<path d="M8.6726 0.7570
L8.7107 0.7950
" />
<path d="M8.7107 0.7950
L8.7488 0.8712
" />
<path d="M8.7488 0.8712
L8.7488 0.9855
" />
<path d="M8.7488 0.9855
L8.7107 1.0617
" />
<path d="M8.7107 1.0617
L8.6726 1.0998
" />
<path d="M8.6726 1.0998
L8.5964 1.1379
" />
<path d="M8.5964 1.1379
L8.2917 1.1379
" />
<path d="M9.0917 1.0998
L9.3583 1.0998
" />
<path d="M9.4726 1.5189
L9.0917 1.5189
" />
<path d="M9.0917 1.5189
L9.0917 0.7189
" />
<path d="M9.0917 0.7189
L9.4726 0.7189
" />
<path d="M10.0821 1.0998
L9.8155 1.0998
" />
<path d="M9.8155 1.5189
L9.8155 0.7189
" />
<path d="M9.8155 0.7189
L10.1964 0.7189
" />
<path d="M10.6155 0.7189
L10.6155 0.9093
" />
<path d="M10.4250 0.8331
L10.6155 0.9093
" />
<path d="M10.6155 0.9093
L10.8060 0.8331
" />
<path d="M10.5012 1.0617
L10.6155 0.9093
" />
<path d="M10.6155 0.9093
L10.7298 1.0617
" />
<path d="M11.2250 0.7189
L11.2250 0.9093
" />
<path d="M11.0345 0.8331
L11.2250 0.9093
" />
<path d="M11.2250 0.9093
L11.4155 0.8331
" />
<path d="M11.1107 1.0617
L11.2250 0.9093
" />
<path d="M11.2250 0.9093
L11.3393 1.0617
" />
</g></g>
<g style="fill:none; 
stroke:#AFAFAF; stroke-width:0.1000; stroke-opacity:1; 
stroke-linecap:round; stroke-linejoin:round;">
<path d="M8.2155 0.3550
L11.4155 0.3550
" />
<path d="M8.2155 1.9550
L8.2155 0.3550
" />
<path d="M11.4155 0.3550
L11.4155 1.9550
" />
<path d="M11.4155 1.9550
L8.2155 1.9550
" />
</g>
<g style="fill:none; 
stroke:#AFAFAF; stroke-width:0.0486; stroke-opacity:1; 
stroke-linecap:round; stroke-linejoin:round;">
<g transform="rotate(-90.000000 8.2655 1.1550)">
<text x="8.2655" y="1.4467"
textLength="0.5847" font-size="0.7778" lengthAdjust="spacingAndGlyphs"
text-anchor="middle" opacity="0" stroke-opacity="0">1</text>
</g>
<g class="stroked-text"><desc>1</desc>
<path d="M8.5328 0.9883
L8.5328 1.3217
" />
<path d="M8.5328 1.1550
L7.9495 1.1550
" />
<path d="M7.9495 1.1550
L8.0328 1.2106
" />
<path d="M8.0328 1.2106
L8.0884 1.2661
" />
<path d="M8.0884 1.2661
L8.1161 1.3217
" />
</g><path style="fill:none; 
stroke:#AFAFAF; stroke-width:0.0212; stroke-opacity:1; 
stroke-linecap:round; stroke-linejoin:round;fill:none"
d="M 7.6155,0.5300
7.6345,0.4343
7.6887,0.3532
7.7698,0.2990
7.8655,0.2800
8.6655,0.2800
8.7611,0.2990
8.8423,0.3532
8.8964,0.4343
8.9155,0.5300
8.9155,1.7800
8.8964,1.8757
8.8423,1.9568
8.7611,2.0110
8.6655,2.0300
7.8655,2.0300
7.7698,2.0110
7.6887,1.9568
7.6345,1.8757
7.6155,1.7800
Z" /> 
</g>
<g style="fill:none; 
stroke:#AFAFAF; stroke-width:0.0486; stroke-opacity:1; 
stroke-linecap:round; stroke-linejoin:round;">
<g transform="rotate(-90.000000 11.3655 1.1550)">
<text x="11.3655" y="1.4467"
textLength="0.5847" font-size="0.7778" lengthAdjust="spacingAndGlyphs"
text-anchor="middle" opacity="0" stroke-opacity="0">2</text>
</g>
<g class="stroked-text"><desc>2</desc>
<path d="M11.1050 1.3217
L11.0773 1.2939
" />
<path d="M11.0773 1.2939
L11.0495 1.2383
" />
<path d="M11.0495 1.2383
L11.0495 1.0994
" />
<path d="M11.0495 1.0994
L11.0773 1.0439
" />
<path d="M11.0773 1.0439
L11.1050 1.0161
" />
<path d="M11.1050 1.0161
L11.1606 0.9883
" />
<path d="M11.1606 0.9883
L11.2161 0.9883
" />
<path d="M11.2161 0.9883
L11.2995 1.0161
" />
<path d="M11.2995 1.0161
L11.6328 1.3494
" />
<path d="M11.6328 1.3494
L11.6328 0.9883
" />
</g><path style="fill:none; 
stroke:#AFAFAF; stroke-width:0.0212; stroke-opacity:1; 
stroke-linecap:round; stroke-linejoin:round;fill:none"
d="M 10.7155,0.5300
10.7345,0.4343
10.7887,0.3532
10.8698,0.2990
10.9655,0.2800
11.7655,0.2800
11.8611,0.2990
11.9423,0.3532
11.9964,0.4343
12.0155,0.5300
12.0155,1.7800
11.9964,1.8757
11.9423,1.9568
11.8611,2.0110
11.7655,2.0300
10.9655,2.0300
10.8698,2.0110
10.7887,1.9568
10.7345,1.8757
10.7155,1.7800
Z" /> 
</g> 
</svg>
