<svg xmlns="http://www.w3.org/2000/svg" width="74.112" height="14.4" viewBox="0 0 19.609 3.81">
    <g style="fill:none;stroke:#f2eda1;stroke-width:.12;stroke-opacity:1;stroke-linecap:round;stroke-linejoin:round">
        <g class="stroked-text">
            <path d="m8.749 1.519-.267-.381M8.292 1.519v-.8M8.292.719h.304M8.596.719l.077.038M8.673.757l.038.038M8.71.795l.039.076M8.749.871v.115M8.749.986l-.038.076M8.71 1.062l-.037.038M8.673 1.1l-.077.038M8.596 1.138h-.304M9.092 1.1h.266M9.473 1.519h-.381M9.092 1.519v-.8M9.092.719h.38M10.082 1.1h-.267M9.816 1.519v-.8M9.816.719h.38M10.616.719v.19M10.425.833l.19.076M10.616.91l.19-.077M10.501 1.062l.115-.153M10.616.91l.114.152M11.225.719v.19M11.035.833l.19.076M11.225.91l.19-.077M11.11 1.062l.115-.153M11.225.91l.114.152"/>
        </g>
        <path d="M9.116.255h1.4M9.116 2.055h1.4"/>
        <path stroke="none" d="m7.616.53.019-.096.054-.08.08-.055.096-.019h.8l.096.019.081.054.054.081.02.096v1.25l-.02.096-.054.08-.08.055-.097.019h-.8l-.095-.019-.081-.054-.054-.081-.02-.096ZM10.716.53l.019-.096.054-.08.08-.055.097-.019h.8l.095.019.081.054.054.081.02.096v1.25l-.02.096-.054.08-.08.055-.097.019h-.8l-.095-.019-.081-.054-.054-.081-.02-.096Z" style="fill:#b4a09a;fill-opacity:.9;stroke:none;fill-rule:evenodd"/>
        <path stroke="none" d="m7.616.53.019-.096.054-.08.08-.055.096-.019h.8l.096.019.081.054.054.081.02.096v1.25l-.02.096-.054.08-.08.055-.097.019h-.8l-.095-.019-.081-.054-.054-.081-.02-.096ZM10.716.53l.019-.096.054-.08.08-.055.097-.019h.8l.095.019.081.054.054.081.02.096v1.25l-.02.096-.054.08-.08.055-.097.019h-.8l-.095-.019-.081-.054-.054-.081-.02-.096Z" style="fill:#c83434;fill-opacity:1;stroke:none;fill-rule:evenodd"/>
    </g>
    <g class="stroked-text" style="fill:none;stroke:#afafaf;stroke-width:.15;stroke-opacity:1;stroke-linecap:round;stroke-linejoin:round">
        <path d="M.935 3.44.6 2.964M.363 3.44v-1M.363 2.44h.381M.744 2.44l.095.047M.84 2.487l.047.048M.887 2.535l.047.095M.935 2.63v.143M.935 2.773l-.048.095M.887 2.868l-.048.048M.84 2.916l-.096.048M.744 2.964h-.38M1.744 3.392l-.095.048M1.649 3.44h-.19M1.458 3.44l-.095-.048M1.363 3.392l-.048-.095M1.316 3.297v-.381M1.316 2.916l.047-.095M1.363 2.82l.095-.047M1.458 2.773h.19M1.649 2.773l.095.048M1.744 2.82l.048.096M1.792 2.916v.095M1.792 3.011l-.477.095M2.173 3.392l.095.048M2.268 3.44h.19M2.458 3.44l.096-.048M2.554 3.392l.047-.095M2.601 3.297v-.048M2.601 3.25l-.047-.096M2.554 3.154l-.096-.047M2.458 3.107h-.143M2.316 3.107l-.096-.048M2.22 3.059l-.047-.095M2.173 2.964v-.048M2.173 2.916l.047-.095M2.22 2.82l.095-.047M2.316 2.773h.142M2.458 2.773l.096.048M3.03 3.44v-.667M3.03 2.44l-.048.047M2.982 2.487l.048.048M3.03 2.535l.047-.048M3.077 2.487 3.03 2.44M3.03 2.44v.095M3.458 3.392l.096.048M3.554 3.44h.19M3.744 3.44l.095-.048M3.84 3.392l.047-.095M3.887 3.297v-.048M3.887 3.25l-.048-.096M3.84 3.154l-.096-.047M3.744 3.107h-.143M3.601 3.107l-.095-.048M3.506 3.059l-.048-.095M3.458 2.964v-.048M3.458 2.916l.048-.095M3.506 2.82l.095-.047M3.601 2.773h.143M3.744 2.773l.095.048M4.173 2.773h.38M4.316 2.44v.857M4.316 3.297l.047.095M4.363 3.392l.095.048M4.458 3.44h.096M5.03 3.44l-.096-.048M4.935 3.392l-.048-.047M4.887 3.345l-.048-.096M4.84 3.25v-.286M4.84 2.964l.047-.096M4.887 2.868l.048-.047M4.935 2.82l.095-.047M5.03 2.773h.143M5.173 2.773l.095.048M5.268 2.82l.048.048M5.316 2.868l.047.096M5.363 2.964v.285M5.363 3.25l-.048.095M5.316 3.345l-.048.047M5.268 3.392l-.095.048M5.173 3.44H5.03M5.792 3.44v-.667M5.792 2.964l.047-.096M5.84 2.868l.047-.047M5.887 2.82l.095-.047M5.982 2.773h.095M6.173 3.535h.761M7.125 3.392l.143.048M7.268 3.44h.238M7.506 3.44l.095-.048M7.601 3.392l.048-.047M7.649 3.345l.047-.096M7.696 3.25v-.096M7.696 3.154 7.65 3.06M7.649 3.059 7.6 3.01M7.601 3.011l-.095-.047M7.506 2.964l-.19-.048M7.316 2.916l-.096-.048M7.22 2.868l-.047-.047M7.173 2.82l-.048-.095M7.125 2.726V2.63M7.125 2.63l.048-.095M7.173 2.535l.047-.048M7.22 2.487l.096-.047M7.316 2.44h.238M7.554 2.44l.142.047M8.125 3.44v-1M8.125 2.44l.333.714M8.458 3.154l.334-.714M8.792 2.44v1M9.268 3.44v-1M9.268 2.44h.238M9.506 2.44l.143.047M9.649 2.487l.095.096M9.744 2.583l.048.095M9.792 2.678l.047.19M9.84 2.868v.143M9.84 3.011l-.048.19M9.792 3.202l-.048.095M9.744 3.297l-.095.095M9.649 3.392l-.143.048M9.506 3.44h-.238M10.03 3.535h.762M11.554 3.44h-.572M11.268 3.44v-1M11.268 2.44l-.095.143M11.173 2.583l-.096.095M11.077 2.678l-.095.047M11.935 2.535l.047-.048M11.982 2.487l.095-.047M12.077 2.44h.239M12.316 2.44l.095.047M12.41 2.487l.048.048M12.458 2.535l.048.095M12.506 2.63v.095M12.506 2.726l-.048.142M12.458 2.868l-.571.572M11.887 3.44h.619M13.125 2.44h.095M13.22 2.44l.095.047M13.316 2.487l.047.048M13.363 2.535l.048.095M13.41 2.63l.048.19M13.458 2.82v.239M13.458 3.059l-.047.19M13.41 3.25l-.047.095M13.363 3.345l-.047.047M13.316 3.392l-.096.048M13.22 3.44h-.095M13.125 3.44l-.095-.048M13.03 3.392l-.048-.047M12.982 3.345l-.047-.096M12.935 3.25l-.048-.191M12.887 3.059V2.82M12.887 2.82l.047-.19M12.935 2.63l.047-.095M12.982 2.535l.048-.048M13.03 2.487l.095-.047M14.316 2.44h-.191M14.125 2.44l-.095.047M14.03 2.487l-.048.048M13.982 2.535l-.095.143M13.887 2.678l-.048.19M13.84 2.868v.381M13.84 3.25l.047.095M13.887 3.345l.047.047M13.935 3.392l.095.048M14.03 3.44h.19M14.22 3.44l.095-.048M14.316 3.392l.047-.047M14.363 3.345l.048-.096M14.41 3.25V3.01M14.41 3.011l-.047-.095M14.363 2.916l-.047-.048M14.316 2.868l-.096-.047M14.22 2.82h-.19M14.03 2.82l-.095.048M13.935 2.868l-.048.048M13.887 2.916l-.048.095M14.601 3.535h.762M15.601 3.44v-.667M15.601 2.44l-.047.047M15.554 2.487l.047.048M15.601 2.535l.048-.048M15.649 2.487 15.6 2.44M15.601 2.44v.095M16.077 2.773v.667M16.077 2.868l.048-.047M16.125 2.82l.095-.047M16.22 2.773h.143M16.363 2.773l.095.048M16.458 2.82l.048.096M16.506 2.916v.524M16.935 3.392l.142.048M17.077 3.44h.238M17.316 3.44l.095-.048M17.41 3.392l.048-.047M17.458 3.345l.048-.096M17.506 3.25v-.096M17.506 3.154l-.048-.095M17.458 3.059l-.047-.048M17.41 3.011l-.095-.047M17.316 2.964l-.191-.048M17.125 2.916l-.095-.048M17.03 2.868l-.048-.047M16.982 2.82l-.047-.095M16.935 2.726V2.63M16.935 2.63l.047-.095M16.982 2.535l.048-.048M17.03 2.487l.095-.047M17.125 2.44h.238M17.363 2.44l.143.047M17.935 3.44v-.667M17.935 2.44l-.048.047M17.887 2.487l.047.048M17.935 2.535l.047-.048M17.982 2.487l-.047-.047M17.935 2.44v.095M18.554 3.44l-.096-.048M18.458 3.392l-.047-.095M18.41 3.297V2.44M18.935 3.44v-1M19.03 3.059l.285.38M19.316 2.773l-.381.381"/>
    </g>
    <g class="stroked-text" style="fill:none;stroke:#afafaf;stroke-width:.12;stroke-opacity:1;stroke-linecap:round;stroke-linejoin:round">
        <path d="m8.749 1.519-.267-.381M8.292 1.519v-.8M8.292.719h.304M8.596.719l.077.038M8.673.757l.038.038M8.71.795l.039.076M8.749.871v.115M8.749.986l-.038.076M8.71 1.062l-.037.038M8.673 1.1l-.077.038M8.596 1.138h-.304M9.092 1.1h.266M9.473 1.519h-.381M9.092 1.519v-.8M9.092.719h.38M10.082 1.1h-.267M9.816 1.519v-.8M9.816.719h.38M10.616.719v.19M10.425.833l.19.076M10.616.91l.19-.077M10.501 1.062l.115-.153M10.616.91l.114.152M11.225.719v.19M11.035.833l.19.076M11.225.91l.19-.077M11.11 1.062l.115-.153M11.225.91l.114.152"/>
    </g>
    <g style="fill:none;stroke:#afafaf;stroke-width:.1;stroke-opacity:1;stroke-linecap:round;stroke-linejoin:round">
        <path d="M8.216.355h3.2M8.216 1.955v-1.6M11.416.355v1.6M11.416 1.955h-3.2"/>
    </g>
    <g style="fill:none;stroke:#afafaf;stroke-width:.0486;stroke-opacity:1;stroke-linecap:round;stroke-linejoin:round">
        <g class="stroked-text">
            <path d="M8.533.988v.334M8.533 1.155H7.95M7.95 1.155l.083.056M8.033 1.21l.055.056M8.088 1.266l.028.056"/>
        </g>
        <path d="m7.616.53.019-.096.054-.08.08-.055.096-.019h.8l.096.019.081.054.054.081.02.096v1.25l-.02.096-.054.08-.08.055-.097.019h-.8l-.095-.019-.081-.054-.054-.081-.02-.096Z" style="stroke:#afafaf;stroke-width:.0212;stroke-opacity:1;stroke-linecap:round;stroke-linejoin:round;fill:none"/>
    </g>
    <g style="fill:none;stroke:#afafaf;stroke-width:.0486;stroke-opacity:1;stroke-linecap:round;stroke-linejoin:round">
        <g class="stroked-text">
            <path d="m11.105 1.322-.028-.028M11.077 1.294l-.027-.056M11.05 1.238V1.1M11.05 1.1l.027-.056M11.077 1.044l.028-.028M11.105 1.016l.056-.028M11.16.988h.056M11.216.988l.084.028M11.3 1.016l.333.333M11.633 1.35V.987"/>
        </g>
        <path d="m10.716.53.019-.096.054-.08.08-.055.097-.019h.8l.095.019.081.054.054.081.02.096v1.25l-.02.096-.054.08-.08.055-.097.019h-.8l-.095-.019-.081-.054-.054-.081-.02-.096Z" style="stroke:#afafaf;stroke-width:.0212;stroke-opacity:1;stroke-linecap:round;stroke-linejoin:round;fill:none"/>
    </g>
</svg>
