<svg xmlns="http://www.w3.org/2000/svg" width="70.752" height="28.32" viewBox="0 0 18.72 7.493">
    <g class="stroked-text" style="fill:none;stroke:#f2eda1;stroke-width:.15;stroke-opacity:1;stroke-linecap:round;stroke-linejoin:round">
        <path d="m8.03 7.103-.334-.476M7.458 7.103v-1M7.458 6.103h.381M7.84 6.103l.095.048M7.935 6.15l.047.048M7.982 6.198l.048.095M8.03 6.294v.142M8.03 6.436l-.048.096M7.982 6.532l-.048.047M7.935 6.58l-.096.047M7.84 6.627h-.382M8.458 6.58h.334M8.935 7.103h-.477M8.458 7.103v-1M8.458 6.103h.476M9.696 6.58h-.333M9.363 7.103v-1M9.363 6.103h.476M10.363 6.103v.238M10.125 6.246l.238.095M10.363 6.341l.238-.095M10.22 6.532l.143-.19M10.363 6.341l.143.19M11.125 6.103v.238M10.887 6.246l.238.095M11.125 6.341l.238-.095M10.982 6.532l.143-.19M11.125 6.341l.143.19"/>
    </g>
    <g style="fill:none;stroke:#f2eda1;stroke-width:.12;stroke-opacity:1;stroke-linecap:round;stroke-linejoin:round">
        <path d="M6.263 1.898v.46M6.263 5.138v.46M6.263 5.598h6.2M12.463 1.898h-6.2M12.463 1.898v.46M12.463 5.138v.46"/>
        <path d="M7.863 3.198h2.85v1.05h-2.85Z" style="stroke:#f2eda1;stroke-width:.12;stroke-opacity:1;stroke-linecap:round;stroke-linejoin:round;fill:none"/>
        <path stroke="none" d="m5.213 4.873-.086-.017-.073-.049-.049-.073-.017-.086v-1.8l.017-.086.049-.073.073-.049.086-.017h1.8l.086.017.073.05.049.072.017.086v1.8l-.017.086-.049.073-.073.05-.086.016Z" style="fill:#4d7fc4;fill-opacity:1;stroke:none;fill-rule:evenodd"/>
    </g>
    <g style="fill:#4d7fc4;fill-opacity:1;stroke:none">
        <circle cx="12.613" cy="3.748" r="1.125"/>
        <path d="m5.213 4.873-.086-.017-.073-.049-.049-.073-.017-.086v-1.8l.017-.086.049-.073.073-.049.086-.017h1.8l.086.017.073.05.049.072.017.086v1.8l-.017.086-.049.073-.073.05-.086.016Z" style="fill:#c83434;fill-opacity:1;stroke:none;fill-rule:evenodd"/>
    </g>
    <circle cx="12.613" cy="3.748" r="1.125" style="fill:#c83434;fill-opacity:1;stroke:none"/>
    <g style="fill:none;stroke:#585d84;stroke-width:.0625;stroke-opacity:1;stroke-linecap:round;stroke-linejoin:round">
        <g class="stroked-text">
            <path d="M6.327 4.092H5.9M6.113 4.092v-.75M6.113 3.342l-.071.107M6.042 3.45l-.072.07M5.97 3.52l-.071.036"/>
        </g>
        <path d="m5.213 4.873-.086-.017-.073-.049-.049-.073-.017-.086v-1.8l.017-.086.049-.073.073-.049.086-.017h1.8l.086.017.073.05.049.072.017.086v1.8l-.017.086-.049.073-.073.05-.086.016Z" style="stroke:#585d84;stroke-width:.0212;stroke-opacity:1;stroke-linecap:round;stroke-linejoin:round;fill:none"/>
    </g>
    <g class="stroked-text" style="fill:none;stroke:#585d84;stroke-width:.0625;stroke-opacity:1;stroke-linecap:round;stroke-linejoin:round">
        <path d="m12.399 3.413.036-.035M12.435 3.378l.071-.036M12.506 3.342h.178M12.685 3.342l.071.036M12.756 3.378l.036.035M12.792 3.413l.035.072M12.827 3.485v.071M12.827 3.556l-.035.107M12.792 3.663l-.429.429M12.363 4.092h.464"/>
    </g>
    <circle cx="12.613" cy="3.748" r="1.125" style="fill:none;stroke:#585d84;stroke-width:.0212;stroke-opacity:1;stroke-linecap:round;stroke-linejoin:round"/>
    <g style="fill:none;stroke:#afafaf;stroke-width:.15;stroke-opacity:1;stroke-linecap:round;stroke-linejoin:round">
        <g class="stroked-text">
            <path d="m.316 1.255.142.048M.458 1.303h.238M.696 1.303l.096-.048M.792 1.255l.047-.047M.84 1.208l.047-.095M.887 1.113v-.096M.887 1.017.839.922M.84.922.791.875M.792.875.696.827M.696.827.506.779M.506.78.411.731M.41.732.364.684M.363.684.316.589M.316.589V.494M.316.494.363.397M.363.398.411.351M.41.35.507.304M.506.303h.238M.744.303l.143.048M1.22.303l.238 1M1.458 1.303l.19-.714M1.649.589l.19.714M1.84 1.303l.237-1M2.22 1.398h.762M3.22 1.303v-1M3.22.303h.381M3.601.303l.095.048M3.696.35l.048.048M3.744.398l.048.095M3.792.494v.142M3.792.636l-.048.096M3.744.732l-.048.047M3.696.78l-.095.047M3.601.827h-.38M4.649.636v.667M4.22.636v.524M4.22 1.16l.048.095M4.268 1.255l.095.048M4.363 1.303h.143M4.506 1.303l.095-.048M4.601 1.255l.048-.047M5.077 1.255l.096.048M5.173 1.303h.19M5.363 1.303l.095-.048M5.458 1.255l.048-.095M5.506 1.16v-.047M5.506 1.113l-.048-.096M5.458 1.017 5.363.97M5.363.97H5.22M5.22.97 5.125.922M5.125.922 5.077.827M5.077.827V.779M5.077.78l.048-.096M5.125.684 5.22.636M5.22.636h.143M5.363.636l.095.048M5.935 1.303v-1M6.363 1.303V.78M6.363.78 6.315.683M6.316.684 6.22.636M6.22.636h-.143M6.077.636l-.095.048M5.982.684l-.048.048M6.601 1.398h.762M8.125 1.303h-.571M7.84 1.303v-1M7.84.303l-.096.143M7.744.446 7.649.54M7.649.541 7.554.59M8.554 1.303v-1M8.554.303h.38M8.935.303l.095.048M9.03.35l.047.048M9.077.398l.048.095M9.125.494v.142M9.125.636l-.048.096M9.077.732 9.03.779M9.03.78l-.095.047M8.935.827h-.381M10.077 1.303h-.571M9.792 1.303v-1M9.792.303l-.096.143M9.696.446 9.601.54M9.601.541 9.506.59M10.363.303h.572M10.649 1.303v-1M11.03 1.398h.762M12.458.303h-.19M12.268.303l-.095.048M12.173.35l-.048.048M12.125.398l-.095.143M12.03.541l-.048.19M11.982.732v.38M11.982 1.113l.048.095M12.03 1.208l.047.047M12.077 1.255l.096.048M12.173 1.303h.19M12.363 1.303l.095-.048M12.458 1.255l.048-.047M12.506 1.208l.048-.095M12.554 1.113V.875M12.554.875l-.048-.096M12.506.78l-.048-.048M12.458.732l-.095-.048M12.363.684h-.19M12.173.684l-.096.048M12.077.732l-.047.047M12.03.78l-.048.095M12.887 1.303l.524-.667M12.887.636l.524.667M13.696.303h.62M14.316.303l-.334.381M13.982.684h.143M14.125.684l.095.048M14.22.732l.048.047M14.268.78l.047.095M14.316.875v.238M14.316 1.113l-.048.095M14.268 1.208l-.048.047M14.22 1.255l-.095.048M14.125 1.303h-.286M13.84 1.303l-.096-.048M13.744 1.255l-.048-.047M14.744 1.208l.048.047M14.792 1.255l-.048.048M14.744 1.303l-.048-.048M14.696 1.255l.048-.047M14.744 1.208v.095M15.696.303h-.476M15.22.303l-.047.476M15.173.78l.047-.048M15.22.732l.095-.048M15.316.684h.238M15.554.684l.095.048M15.649.732l.047.047M15.696.78l.048.095M15.744.875v.238M15.744 1.113l-.048.095M15.696 1.208l-.047.047M15.649 1.255l-.095.048M15.554 1.303h-.239M15.316 1.303l-.096-.048M15.22 1.255l-.047-.047M16.173 1.303V.636M16.173.732l.047-.048M16.22.684l.096-.048M16.316.636h.142M16.458.636l.096.048M16.554.684l.047.095M16.601.78v.523M16.601.78l.048-.096M16.649.684l.095-.048M16.744.636h.143M16.887.636l.095.048M16.982.684l.048.095M17.03.78v.523M17.506 1.303V.636M17.506.732l.048-.048M17.554.684l.095-.048M17.649.636h.143M17.792.636l.095.048M17.887.684l.047.095M17.935.78v.523M17.935.78l.047-.096M17.982.684l.095-.048M18.077.636h.143M18.22.636l.096.048M18.316.684l.047.095M18.363.78v.523"/>
        </g>
        <g class="stroked-text">
            <path d="m8.03 7.103-.334-.476M7.458 7.103v-1M7.458 6.103h.381M7.84 6.103l.095.048M7.935 6.15l.047.048M7.982 6.198l.048.095M8.03 6.294v.142M8.03 6.436l-.048.096M7.982 6.532l-.048.047M7.935 6.58l-.096.047M7.84 6.627h-.382M8.458 6.58h.334M8.935 7.103h-.477M8.458 7.103v-1M8.458 6.103h.476M9.696 6.58h-.333M9.363 7.103v-1M9.363 6.103h.476M10.363 6.103v.238M10.125 6.246l.238.095M10.363 6.341l.238-.095M10.22 6.532l.143-.19M10.363 6.341l.143.19M11.125 6.103v.238M10.887 6.246l.238.095M11.125 6.341l.238-.095M10.982 6.532l.143-.19M11.125 6.341l.143.19"/>
        </g>
    </g>
    <g style="fill:none;stroke:#afafaf;stroke-width:.1;stroke-opacity:1;stroke-linecap:round;stroke-linejoin:round">
        <path d="M6.363 5.498v-3.1M6.763 1.998l-.4.4M6.763 1.998h5.6M12.363 1.998v3.5M12.363 5.498h-6"/>
    </g>
    <g style="fill:none;stroke:#afafaf;stroke-width:.0625;stroke-opacity:1;stroke-linecap:round;stroke-linejoin:round">
        <g class="stroked-text">
            <path d="M6.327 4.092H5.9M6.113 4.092v-.75M6.113 3.342l-.071.107M6.042 3.45l-.072.07M5.97 3.52l-.071.036"/>
        </g>
        <path d="m5.213 4.873-.086-.017-.073-.049-.049-.073-.017-.086v-1.8l.017-.086.049-.073.073-.049.086-.017h1.8l.086.017.073.05.049.072.017.086v1.8l-.017.086-.049.073-.073.05-.086.016Z" style="stroke:#afafaf;stroke-width:.0212;stroke-opacity:1;stroke-linecap:round;stroke-linejoin:round;fill:none"/>
    </g>
    <g class="stroked-text" style="fill:none;stroke:#afafaf;stroke-width:.0625;stroke-opacity:1;stroke-linecap:round;stroke-linejoin:round">
        <path d="m12.399 3.413.036-.035M12.435 3.378l.071-.036M12.506 3.342h.178M12.685 3.342l.071.036M12.756 3.378l.036.035M12.792 3.413l.035.072M12.827 3.485v.071M12.827 3.556l-.035.107M12.792 3.663l-.429.429M12.363 4.092h.464"/>
    </g>
    <circle cx="12.613" cy="3.748" r="1.125" style="fill:none;stroke:#afafaf;stroke-width:.0212;stroke-opacity:1;stroke-linecap:round;stroke-linejoin:round"/>
</svg>
