<?xml version="1.0" standalone="no"?>
 <!DOCTYPE svg PUBLIC "-//W3C//DTD SVG 1.1//EN" 
 "http://www.w3.org/Graphics/SVG/1.1/DTD/svg11.dtd"> 
<svg
  xmlns:svg="http://www.w3.org/2000/svg"
  xmlns="http://www.w3.org/2000/svg"
  xmlns:xlink="http://www.w3.org/1999/xlink"
  version="1.1"
  width="29.3370mm" height="37.8714mm" viewBox="0.0000 0.0000 29.3370 37.8714">
<title>SVG Image created as MCU_ProMicro_DIP-24_Socket_Reverse.svg date 2025/04/10 11:36:10 </title>
  <desc>Image generated by PCBNEW </desc>
<g style="fill:#000000; fill-opacity:1.0000;stroke:#000000; stroke-opacity:1.0000;
stroke-linecap:round; stroke-linejoin:round;"
 transform="translate(0 0) scale(1 1)">
</g>
<g style="fill:none; 
stroke:#F2EDA1; stroke-width:0.1500; stroke-opacity:1; 
stroke-linecap:round; stroke-linejoin:round;">
<text x="14.6726" y="3.1400"
textLength="4.5357" font-size="1.3333" lengthAdjust="spacingAndGlyphs"
text-anchor="middle" opacity="0" stroke-opacity="0">REF**</text>
<g class="stroked-text"><desc>REF**</desc>
<path d="M13.3393 3.0948
L13.0060 2.6186
" />
<path d="M12.7679 3.0948
L12.7679 2.0948
" />
<path d="M12.7679 2.0948
L13.1488 2.0948
" />
<path d="M13.1488 2.0948
L13.2440 2.1424
" />
<path d="M13.2440 2.1424
L13.2917 2.1901
" />
<path d="M13.2917 2.1901
L13.3393 2.2853
" />
<path d="M13.3393 2.2853
L13.3393 2.4282
" />
<path d="M13.3393 2.4282
L13.2917 2.5234
" />
<path d="M13.2917 2.5234
L13.2440 2.5710
" />
<path d="M13.2440 2.5710
L13.1488 2.6186
" />
<path d="M13.1488 2.6186
L12.7679 2.6186
" />
<path d="M13.7679 2.5710
L14.1012 2.5710
" />
<path d="M14.2440 3.0948
L13.7679 3.0948
" />
<path d="M13.7679 3.0948
L13.7679 2.0948
" />
<path d="M13.7679 2.0948
L14.2440 2.0948
" />
<path d="M15.0060 2.5710
L14.6726 2.5710
" />
<path d="M14.6726 3.0948
L14.6726 2.0948
" />
<path d="M14.6726 2.0948
L15.1488 2.0948
" />
<path d="M15.6726 2.0948
L15.6726 2.3329
" />
<path d="M15.4345 2.2377
L15.6726 2.3329
" />
<path d="M15.6726 2.3329
L15.9107 2.2377
" />
<path d="M15.5298 2.5234
L15.6726 2.3329
" />
<path d="M15.6726 2.3329
L15.8155 2.5234
" />
<path d="M16.4345 2.0948
L16.4345 2.3329
" />
<path d="M16.1964 2.2377
L16.4345 2.3329
" />
<path d="M16.4345 2.3329
L16.6726 2.2377
" />
<path d="M16.2917 2.5234
L16.4345 2.3329
" />
<path d="M16.4345 2.3329
L16.5774 2.5234
" />
</g></g>
<g style="fill:none; 
stroke:#F2EDA1; stroke-width:0.1200; stroke-opacity:1; 
stroke-linecap:round; stroke-linejoin:round;">
<path d="M8.3226 3.7700
L21.0226 3.7700
" />
<path d="M8.3226 34.2500
L21.0226 34.2500
" />
<path style="fill:none; 
stroke:#F2EDA1; stroke-width:0.1200; stroke-opacity:1; 
stroke-linecap:round; stroke-linejoin:round;fill:none"
d="M 5.7826,3.7700
8.3226,3.7700
8.3226,34.2500
5.7826,34.2500
Z" /> 
<path style="fill:none; 
stroke:#F2EDA1; stroke-width:0.1200; stroke-opacity:1; 
stroke-linecap:round; stroke-linejoin:round;fill:none"
d="M 21.0226,3.7700
23.5626,3.7700
23.5626,34.2500
21.0226,34.2500
Z" /> 
<path style="fill:#C83434; fill-opacity:1.0000; stroke:none;fill-rule:evenodd;"
d="M 21.6926,4.2600
21.7018,4.2141
21.7278,4.1751
21.7667,4.1491
21.8126,4.1400
22.7726,4.1400
22.8185,4.1491
22.8575,4.1751
22.8835,4.2141
22.8926,4.2600
22.8926,5.8200
22.8835,5.8659
22.8575,5.9049
22.8185,5.9309
22.7726,5.9400
21.8126,5.9400
21.7667,5.9309
21.7278,5.9049
21.7018,5.8659
21.6926,5.8200
Z" /> 
</g>
<g style="fill:none; 
stroke:#C83434; stroke-width:1.2000; stroke-opacity:1; 
stroke-linecap:round; stroke-linejoin:round;">
<path d="M22.2926 7.2800
L22.2926 7.8800
" />
<path d="M22.2926 9.8200
L22.2926 10.4200
" />
<path d="M22.2926 12.3600
L22.2926 12.9600
" />
<path d="M22.2926 14.9000
L22.2926 15.5000
" />
<path d="M22.2926 17.4400
L22.2926 18.0400
" />
<path d="M22.2926 19.9800
L22.2926 20.5800
" />
<path d="M22.2926 22.5200
L22.2926 23.1200
" />
<path d="M22.2926 25.0600
L22.2926 25.6600
" />
<path d="M22.2926 27.6000
L22.2926 28.2000
" />
<path d="M22.2926 30.1400
L22.2926 30.7400
" />
<path d="M22.2926 32.6800
L22.2926 33.2800
" />
<path d="M7.0526 32.6800
L7.0526 33.2800
" />
<path d="M7.0526 30.1400
L7.0526 30.7400
" />
<path d="M7.0526 27.6000
L7.0526 28.2000
" />
<path d="M7.0526 25.0600
L7.0526 25.6600
" />
<path d="M7.0526 22.5200
L7.0526 23.1200
" />
<path d="M7.0526 19.9800
L7.0526 20.5800
" />
<path d="M7.0526 17.4400
L7.0526 18.0400
" />
<path d="M7.0526 14.9000
L7.0526 15.5000
" />
<path d="M7.0526 12.3600
L7.0526 12.9600
" />
<path d="M7.0526 9.8200
L7.0526 10.4200
" />
<path d="M7.0526 7.2800
L7.0526 7.8800
" />
<path d="M7.0526 4.7400
L7.0526 5.3400
" />
<path style="fill:#4D7FC4; fill-opacity:1.0000; stroke:none;fill-rule:evenodd;"
d="M 21.6926,4.2600
21.7018,4.2141
21.7278,4.1751
21.7667,4.1491
21.8126,4.1400
22.7726,4.1400
22.8185,4.1491
22.8575,4.1751
22.8835,4.2141
22.8926,4.2600
22.8926,5.8200
22.8835,5.8659
22.8575,5.9049
22.8185,5.9309
22.7726,5.9400
21.8126,5.9400
21.7667,5.9309
21.7278,5.9049
21.7018,5.8659
21.6926,5.8200
Z" /> 
</g>
<g style="fill:none; 
stroke:#4D7FC4; stroke-width:1.2000; stroke-opacity:1; 
stroke-linecap:round; stroke-linejoin:round;">
<path d="M22.2926 7.2800
L22.2926 7.8800
" />
<path d="M22.2926 9.8200
L22.2926 10.4200
" />
<path d="M22.2926 12.3600
L22.2926 12.9600
" />
<path d="M22.2926 14.9000
L22.2926 15.5000
" />
<path d="M22.2926 17.4400
L22.2926 18.0400
" />
<path d="M22.2926 19.9800
L22.2926 20.5800
" />
<path d="M22.2926 22.5200
L22.2926 23.1200
" />
<path d="M22.2926 25.0600
L22.2926 25.6600
" />
<path d="M22.2926 27.6000
L22.2926 28.2000
" />
<path d="M22.2926 30.1400
L22.2926 30.7400
" />
<path d="M22.2926 32.6800
L22.2926 33.2800
" />
<path d="M7.0526 32.6800
L7.0526 33.2800
" />
<path d="M7.0526 30.1400
L7.0526 30.7400
" />
<path d="M7.0526 27.6000
L7.0526 28.2000
" />
<path d="M7.0526 25.0600
L7.0526 25.6600
" />
<path d="M7.0526 22.5200
L7.0526 23.1200
" />
<path d="M7.0526 19.9800
L7.0526 20.5800
" />
<path d="M7.0526 17.4400
L7.0526 18.0400
" />
<path d="M7.0526 14.9000
L7.0526 15.5000
" />
<path d="M7.0526 12.3600
L7.0526 12.9600
" />
<path d="M7.0526 9.8200
L7.0526 10.4200
" />
<path d="M7.0526 7.2800
L7.0526 7.8800
" />
<path d="M7.0526 4.7400
L7.0526 5.3400
" />
</g>
<g style="fill:none; 
stroke:#AFAFAF; stroke-width:0.1500; stroke-opacity:1; 
stroke-linecap:round; stroke-linejoin:round;">
<text x="14.6726" y="35.9400"
textLength="29.3452" font-size="1.3333" lengthAdjust="spacingAndGlyphs"
text-anchor="middle" opacity="0" stroke-opacity="0">MCU_ProMicro_DIP-24_Socket_Reverse</text>
<g class="stroked-text"><desc>MCU_ProMicro_DIP-24_Socket_Reverse</desc>
<path d="M0.3631 35.8948
L0.3631 34.8948
" />
<path d="M0.3631 34.8948
L0.6964 35.6091
" />
<path d="M0.6964 35.6091
L1.0298 34.8948
" />
<path d="M1.0298 34.8948
L1.0298 35.8948
" />
<path d="M2.0774 35.7996
L2.0298 35.8472
" />
<path d="M2.0298 35.8472
L1.8869 35.8948
" />
<path d="M1.8869 35.8948
L1.7917 35.8948
" />
<path d="M1.7917 35.8948
L1.6488 35.8472
" />
<path d="M1.6488 35.8472
L1.5536 35.7520
" />
<path d="M1.5536 35.7520
L1.5060 35.6567
" />
<path d="M1.5060 35.6567
L1.4583 35.4662
" />
<path d="M1.4583 35.4662
L1.4583 35.3234
" />
<path d="M1.4583 35.3234
L1.5060 35.1329
" />
<path d="M1.5060 35.1329
L1.5536 35.0377
" />
<path d="M1.5536 35.0377
L1.6488 34.9424
" />
<path d="M1.6488 34.9424
L1.7917 34.8948
" />
<path d="M1.7917 34.8948
L1.8869 34.8948
" />
<path d="M1.8869 34.8948
L2.0298 34.9424
" />
<path d="M2.0298 34.9424
L2.0774 34.9901
" />
<path d="M2.5060 34.8948
L2.5060 35.7043
" />
<path d="M2.5060 35.7043
L2.5536 35.7996
" />
<path d="M2.5536 35.7996
L2.6012 35.8472
" />
<path d="M2.6012 35.8472
L2.6964 35.8948
" />
<path d="M2.6964 35.8948
L2.8869 35.8948
" />
<path d="M2.8869 35.8948
L2.9821 35.8472
" />
<path d="M2.9821 35.8472
L3.0298 35.7996
" />
<path d="M3.0298 35.7996
L3.0774 35.7043
" />
<path d="M3.0774 35.7043
L3.0774 34.8948
" />
<path d="M3.3155 35.9901
L4.0774 35.9901
" />
<path d="M4.3155 35.8948
L4.3155 34.8948
" />
<path d="M4.3155 34.8948
L4.6964 34.8948
" />
<path d="M4.6964 34.8948
L4.7917 34.9424
" />
<path d="M4.7917 34.9424
L4.8393 34.9901
" />
<path d="M4.8393 34.9901
L4.8869 35.0853
" />
<path d="M4.8869 35.0853
L4.8869 35.2282
" />
<path d="M4.8869 35.2282
L4.8393 35.3234
" />
<path d="M4.8393 35.3234
L4.7917 35.3710
" />
<path d="M4.7917 35.3710
L4.6964 35.4186
" />
<path d="M4.6964 35.4186
L4.3155 35.4186
" />
<path d="M5.3155 35.8948
L5.3155 35.2282
" />
<path d="M5.3155 35.4186
L5.3631 35.3234
" />
<path d="M5.3631 35.3234
L5.4107 35.2758
" />
<path d="M5.4107 35.2758
L5.5060 35.2282
" />
<path d="M5.5060 35.2282
L5.6012 35.2282
" />
<path d="M6.0774 35.8948
L5.9821 35.8472
" />
<path d="M5.9821 35.8472
L5.9345 35.7996
" />
<path d="M5.9345 35.7996
L5.8869 35.7043
" />
<path d="M5.8869 35.7043
L5.8869 35.4186
" />
<path d="M5.8869 35.4186
L5.9345 35.3234
" />
<path d="M5.9345 35.3234
L5.9821 35.2758
" />
<path d="M5.9821 35.2758
L6.0774 35.2282
" />
<path d="M6.0774 35.2282
L6.2202 35.2282
" />
<path d="M6.2202 35.2282
L6.3155 35.2758
" />
<path d="M6.3155 35.2758
L6.3631 35.3234
" />
<path d="M6.3631 35.3234
L6.4107 35.4186
" />
<path d="M6.4107 35.4186
L6.4107 35.7043
" />
<path d="M6.4107 35.7043
L6.3631 35.7996
" />
<path d="M6.3631 35.7996
L6.3155 35.8472
" />
<path d="M6.3155 35.8472
L6.2202 35.8948
" />
<path d="M6.2202 35.8948
L6.0774 35.8948
" />
<path d="M6.8393 35.8948
L6.8393 34.8948
" />
<path d="M6.8393 34.8948
L7.1726 35.6091
" />
<path d="M7.1726 35.6091
L7.5060 34.8948
" />
<path d="M7.5060 34.8948
L7.5060 35.8948
" />
<path d="M7.9821 35.8948
L7.9821 35.2282
" />
<path d="M7.9821 34.8948
L7.9345 34.9424
" />
<path d="M7.9345 34.9424
L7.9821 34.9901
" />
<path d="M7.9821 34.9901
L8.0298 34.9424
" />
<path d="M8.0298 34.9424
L7.9821 34.8948
" />
<path d="M7.9821 34.8948
L7.9821 34.9901
" />
<path d="M8.8869 35.8472
L8.7917 35.8948
" />
<path d="M8.7917 35.8948
L8.6012 35.8948
" />
<path d="M8.6012 35.8948
L8.5060 35.8472
" />
<path d="M8.5060 35.8472
L8.4583 35.7996
" />
<path d="M8.4583 35.7996
L8.4107 35.7043
" />
<path d="M8.4107 35.7043
L8.4107 35.4186
" />
<path d="M8.4107 35.4186
L8.4583 35.3234
" />
<path d="M8.4583 35.3234
L8.5060 35.2758
" />
<path d="M8.5060 35.2758
L8.6012 35.2282
" />
<path d="M8.6012 35.2282
L8.7917 35.2282
" />
<path d="M8.7917 35.2282
L8.8869 35.2758
" />
<path d="M9.3155 35.8948
L9.3155 35.2282
" />
<path d="M9.3155 35.4186
L9.3631 35.3234
" />
<path d="M9.3631 35.3234
L9.4107 35.2758
" />
<path d="M9.4107 35.2758
L9.5060 35.2282
" />
<path d="M9.5060 35.2282
L9.6012 35.2282
" />
<path d="M10.0774 35.8948
L9.9821 35.8472
" />
<path d="M9.9821 35.8472
L9.9345 35.7996
" />
<path d="M9.9345 35.7996
L9.8869 35.7043
" />
<path d="M9.8869 35.7043
L9.8869 35.4186
" />
<path d="M9.8869 35.4186
L9.9345 35.3234
" />
<path d="M9.9345 35.3234
L9.9821 35.2758
" />
<path d="M9.9821 35.2758
L10.0774 35.2282
" />
<path d="M10.0774 35.2282
L10.2202 35.2282
" />
<path d="M10.2202 35.2282
L10.3155 35.2758
" />
<path d="M10.3155 35.2758
L10.3631 35.3234
" />
<path d="M10.3631 35.3234
L10.4107 35.4186
" />
<path d="M10.4107 35.4186
L10.4107 35.7043
" />
<path d="M10.4107 35.7043
L10.3631 35.7996
" />
<path d="M10.3631 35.7996
L10.3155 35.8472
" />
<path d="M10.3155 35.8472
L10.2202 35.8948
" />
<path d="M10.2202 35.8948
L10.0774 35.8948
" />
<path d="M10.6012 35.9901
L11.3631 35.9901
" />
<path d="M11.6012 35.8948
L11.6012 34.8948
" />
<path d="M11.6012 34.8948
L11.8393 34.8948
" />
<path d="M11.8393 34.8948
L11.9821 34.9424
" />
<path d="M11.9821 34.9424
L12.0774 35.0377
" />
<path d="M12.0774 35.0377
L12.1250 35.1329
" />
<path d="M12.1250 35.1329
L12.1726 35.3234
" />
<path d="M12.1726 35.3234
L12.1726 35.4662
" />
<path d="M12.1726 35.4662
L12.1250 35.6567
" />
<path d="M12.1250 35.6567
L12.0774 35.7520
" />
<path d="M12.0774 35.7520
L11.9821 35.8472
" />
<path d="M11.9821 35.8472
L11.8393 35.8948
" />
<path d="M11.8393 35.8948
L11.6012 35.8948
" />
<path d="M12.6012 35.8948
L12.6012 34.8948
" />
<path d="M13.0774 35.8948
L13.0774 34.8948
" />
<path d="M13.0774 34.8948
L13.4583 34.8948
" />
<path d="M13.4583 34.8948
L13.5536 34.9424
" />
<path d="M13.5536 34.9424
L13.6012 34.9901
" />
<path d="M13.6012 34.9901
L13.6488 35.0853
" />
<path d="M13.6488 35.0853
L13.6488 35.2282
" />
<path d="M13.6488 35.2282
L13.6012 35.3234
" />
<path d="M13.6012 35.3234
L13.5536 35.3710
" />
<path d="M13.5536 35.3710
L13.4583 35.4186
" />
<path d="M13.4583 35.4186
L13.0774 35.4186
" />
<path d="M14.0774 35.5139
L14.8393 35.5139
" />
<path d="M15.2679 34.9901
L15.3155 34.9424
" />
<path d="M15.3155 34.9424
L15.4107 34.8948
" />
<path d="M15.4107 34.8948
L15.6488 34.8948
" />
<path d="M15.6488 34.8948
L15.7440 34.9424
" />
<path d="M15.7440 34.9424
L15.7917 34.9901
" />
<path d="M15.7917 34.9901
L15.8393 35.0853
" />
<path d="M15.8393 35.0853
L15.8393 35.1805
" />
<path d="M15.8393 35.1805
L15.7917 35.3234
" />
<path d="M15.7917 35.3234
L15.2202 35.8948
" />
<path d="M15.2202 35.8948
L15.8393 35.8948
" />
<path d="M16.6964 35.2282
L16.6964 35.8948
" />
<path d="M16.4583 34.8472
L16.2202 35.5615
" />
<path d="M16.2202 35.5615
L16.8393 35.5615
" />
<path d="M16.9821 35.9901
L17.7440 35.9901
" />
<path d="M17.9345 35.8472
L18.0774 35.8948
" />
<path d="M18.0774 35.8948
L18.3155 35.8948
" />
<path d="M18.3155 35.8948
L18.4107 35.8472
" />
<path d="M18.4107 35.8472
L18.4583 35.7996
" />
<path d="M18.4583 35.7996
L18.5060 35.7043
" />
<path d="M18.5060 35.7043
L18.5060 35.6091
" />
<path d="M18.5060 35.6091
L18.4583 35.5139
" />
<path d="M18.4583 35.5139
L18.4107 35.4662
" />
<path d="M18.4107 35.4662
L18.3155 35.4186
" />
<path d="M18.3155 35.4186
L18.1250 35.3710
" />
<path d="M18.1250 35.3710
L18.0298 35.3234
" />
<path d="M18.0298 35.3234
L17.9821 35.2758
" />
<path d="M17.9821 35.2758
L17.9345 35.1805
" />
<path d="M17.9345 35.1805
L17.9345 35.0853
" />
<path d="M17.9345 35.0853
L17.9821 34.9901
" />
<path d="M17.9821 34.9901
L18.0298 34.9424
" />
<path d="M18.0298 34.9424
L18.1250 34.8948
" />
<path d="M18.1250 34.8948
L18.3631 34.8948
" />
<path d="M18.3631 34.8948
L18.5060 34.9424
" />
<path d="M19.0774 35.8948
L18.9821 35.8472
" />
<path d="M18.9821 35.8472
L18.9345 35.7996
" />
<path d="M18.9345 35.7996
L18.8869 35.7043
" />
<path d="M18.8869 35.7043
L18.8869 35.4186
" />
<path d="M18.8869 35.4186
L18.9345 35.3234
" />
<path d="M18.9345 35.3234
L18.9821 35.2758
" />
<path d="M18.9821 35.2758
L19.0774 35.2282
" />
<path d="M19.0774 35.2282
L19.2202 35.2282
" />
<path d="M19.2202 35.2282
L19.3155 35.2758
" />
<path d="M19.3155 35.2758
L19.3631 35.3234
" />
<path d="M19.3631 35.3234
L19.4107 35.4186
" />
<path d="M19.4107 35.4186
L19.4107 35.7043
" />
<path d="M19.4107 35.7043
L19.3631 35.7996
" />
<path d="M19.3631 35.7996
L19.3155 35.8472
" />
<path d="M19.3155 35.8472
L19.2202 35.8948
" />
<path d="M19.2202 35.8948
L19.0774 35.8948
" />
<path d="M20.2679 35.8472
L20.1726 35.8948
" />
<path d="M20.1726 35.8948
L19.9821 35.8948
" />
<path d="M19.9821 35.8948
L19.8869 35.8472
" />
<path d="M19.8869 35.8472
L19.8393 35.7996
" />
<path d="M19.8393 35.7996
L19.7917 35.7043
" />
<path d="M19.7917 35.7043
L19.7917 35.4186
" />
<path d="M19.7917 35.4186
L19.8393 35.3234
" />
<path d="M19.8393 35.3234
L19.8869 35.2758
" />
<path d="M19.8869 35.2758
L19.9821 35.2282
" />
<path d="M19.9821 35.2282
L20.1726 35.2282
" />
<path d="M20.1726 35.2282
L20.2679 35.2758
" />
<path d="M20.6964 35.8948
L20.6964 34.8948
" />
<path d="M20.7917 35.5139
L21.0774 35.8948
" />
<path d="M21.0774 35.2282
L20.6964 35.6091
" />
<path d="M21.8869 35.8472
L21.7917 35.8948
" />
<path d="M21.7917 35.8948
L21.6012 35.8948
" />
<path d="M21.6012 35.8948
L21.5060 35.8472
" />
<path d="M21.5060 35.8472
L21.4583 35.7520
" />
<path d="M21.4583 35.7520
L21.4583 35.3710
" />
<path d="M21.4583 35.3710
L21.5060 35.2758
" />
<path d="M21.5060 35.2758
L21.6012 35.2282
" />
<path d="M21.6012 35.2282
L21.7917 35.2282
" />
<path d="M21.7917 35.2282
L21.8869 35.2758
" />
<path d="M21.8869 35.2758
L21.9345 35.3710
" />
<path d="M21.9345 35.3710
L21.9345 35.4662
" />
<path d="M21.9345 35.4662
L21.4583 35.5615
" />
<path d="M22.2202 35.2282
L22.6012 35.2282
" />
<path d="M22.3631 34.8948
L22.3631 35.7520
" />
<path d="M22.3631 35.7520
L22.4107 35.8472
" />
<path d="M22.4107 35.8472
L22.5060 35.8948
" />
<path d="M22.5060 35.8948
L22.6012 35.8948
" />
<path d="M22.6964 35.9901
L23.4583 35.9901
" />
<path d="M24.2679 35.8948
L23.9345 35.4186
" />
<path d="M23.6964 35.8948
L23.6964 34.8948
" />
<path d="M23.6964 34.8948
L24.0774 34.8948
" />
<path d="M24.0774 34.8948
L24.1726 34.9424
" />
<path d="M24.1726 34.9424
L24.2202 34.9901
" />
<path d="M24.2202 34.9901
L24.2679 35.0853
" />
<path d="M24.2679 35.0853
L24.2679 35.2282
" />
<path d="M24.2679 35.2282
L24.2202 35.3234
" />
<path d="M24.2202 35.3234
L24.1726 35.3710
" />
<path d="M24.1726 35.3710
L24.0774 35.4186
" />
<path d="M24.0774 35.4186
L23.6964 35.4186
" />
<path d="M25.0774 35.8472
L24.9821 35.8948
" />
<path d="M24.9821 35.8948
L24.7917 35.8948
" />
<path d="M24.7917 35.8948
L24.6964 35.8472
" />
<path d="M24.6964 35.8472
L24.6488 35.7520
" />
<path d="M24.6488 35.7520
L24.6488 35.3710
" />
<path d="M24.6488 35.3710
L24.6964 35.2758
" />
<path d="M24.6964 35.2758
L24.7917 35.2282
" />
<path d="M24.7917 35.2282
L24.9821 35.2282
" />
<path d="M24.9821 35.2282
L25.0774 35.2758
" />
<path d="M25.0774 35.2758
L25.1250 35.3710
" />
<path d="M25.1250 35.3710
L25.1250 35.4662
" />
<path d="M25.1250 35.4662
L24.6488 35.5615
" />
<path d="M25.4583 35.2282
L25.6964 35.8948
" />
<path d="M25.6964 35.8948
L25.9345 35.2282
" />
<path d="M26.6964 35.8472
L26.6012 35.8948
" />
<path d="M26.6012 35.8948
L26.4107 35.8948
" />
<path d="M26.4107 35.8948
L26.3155 35.8472
" />
<path d="M26.3155 35.8472
L26.2679 35.7520
" />
<path d="M26.2679 35.7520
L26.2679 35.3710
" />
<path d="M26.2679 35.3710
L26.3155 35.2758
" />
<path d="M26.3155 35.2758
L26.4107 35.2282
" />
<path d="M26.4107 35.2282
L26.6012 35.2282
" />
<path d="M26.6012 35.2282
L26.6964 35.2758
" />
<path d="M26.6964 35.2758
L26.7440 35.3710
" />
<path d="M26.7440 35.3710
L26.7440 35.4662
" />
<path d="M26.7440 35.4662
L26.2679 35.5615
" />
<path d="M27.1726 35.8948
L27.1726 35.2282
" />
<path d="M27.1726 35.4186
L27.2202 35.3234
" />
<path d="M27.2202 35.3234
L27.2679 35.2758
" />
<path d="M27.2679 35.2758
L27.3631 35.2282
" />
<path d="M27.3631 35.2282
L27.4583 35.2282
" />
<path d="M27.7440 35.8472
L27.8393 35.8948
" />
<path d="M27.8393 35.8948
L28.0298 35.8948
" />
<path d="M28.0298 35.8948
L28.1250 35.8472
" />
<path d="M28.1250 35.8472
L28.1726 35.7520
" />
<path d="M28.1726 35.7520
L28.1726 35.7043
" />
<path d="M28.1726 35.7043
L28.1250 35.6091
" />
<path d="M28.1250 35.6091
L28.0298 35.5615
" />
<path d="M28.0298 35.5615
L27.8869 35.5615
" />
<path d="M27.8869 35.5615
L27.7917 35.5139
" />
<path d="M27.7917 35.5139
L27.7440 35.4186
" />
<path d="M27.7440 35.4186
L27.7440 35.3710
" />
<path d="M27.7440 35.3710
L27.7917 35.2758
" />
<path d="M27.7917 35.2758
L27.8869 35.2282
" />
<path d="M27.8869 35.2282
L28.0298 35.2282
" />
<path d="M28.0298 35.2282
L28.1250 35.2758
" />
<path d="M28.9821 35.8472
L28.8869 35.8948
" />
<path d="M28.8869 35.8948
L28.6964 35.8948
" />
<path d="M28.6964 35.8948
L28.6012 35.8472
" />
<path d="M28.6012 35.8472
L28.5536 35.7520
" />
<path d="M28.5536 35.7520
L28.5536 35.3710
" />
<path d="M28.5536 35.3710
L28.6012 35.2758
" />
<path d="M28.6012 35.2758
L28.6964 35.2282
" />
<path d="M28.6964 35.2282
L28.8869 35.2282
" />
<path d="M28.8869 35.2282
L28.9821 35.2758
" />
<path d="M28.9821 35.2758
L29.0298 35.3710
" />
<path d="M29.0298 35.3710
L29.0298 35.4662
" />
<path d="M29.0298 35.4662
L28.5536 35.5615
" />
</g><text x="14.6726" y="37.5400"
textLength="4.5357" font-size="1.3333" lengthAdjust="spacingAndGlyphs"
text-anchor="middle" opacity="0" stroke-opacity="0">REF**</text>
<g class="stroked-text"><desc>REF**</desc>
<path d="M13.3393 37.4948
L13.0060 37.0186
" />
<path d="M12.7679 37.4948
L12.7679 36.4948
" />
<path d="M12.7679 36.4948
L13.1488 36.4948
" />
<path d="M13.1488 36.4948
L13.2440 36.5424
" />
<path d="M13.2440 36.5424
L13.2917 36.5901
" />
<path d="M13.2917 36.5901
L13.3393 36.6853
" />
<path d="M13.3393 36.6853
L13.3393 36.8282
" />
<path d="M13.3393 36.8282
L13.2917 36.9234
" />
<path d="M13.2917 36.9234
L13.2440 36.9710
" />
<path d="M13.2440 36.9710
L13.1488 37.0186
" />
<path d="M13.1488 37.0186
L12.7679 37.0186
" />
<path d="M13.7679 36.9710
L14.1012 36.9710
" />
<path d="M14.2440 37.4948
L13.7679 37.4948
" />
<path d="M13.7679 37.4948
L13.7679 36.4948
" />
<path d="M13.7679 36.4948
L14.2440 36.4948
" />
<path d="M15.0060 36.9710
L14.6726 36.9710
" />
<path d="M14.6726 37.4948
L14.6726 36.4948
" />
<path d="M14.6726 36.4948
L15.1488 36.4948
" />
<path d="M15.6726 36.4948
L15.6726 36.7329
" />
<path d="M15.4345 36.6377
L15.6726 36.7329
" />
<path d="M15.6726 36.7329
L15.9107 36.6377
" />
<path d="M15.5298 36.9234
L15.6726 36.7329
" />
<path d="M15.6726 36.7329
L15.8155 36.9234
" />
<path d="M16.4345 36.4948
L16.4345 36.7329
" />
<path d="M16.1964 36.6377
L16.4345 36.7329
" />
<path d="M16.4345 36.7329
L16.6726 36.6377
" />
<path d="M16.2917 36.9234
L16.4345 36.7329
" />
<path d="M16.4345 36.7329
L16.5774 36.9234
" />
</g><path style="fill:none; 
stroke:#AFAFAF; stroke-width:0.1000; stroke-opacity:1; 
stroke-linecap:round; stroke-linejoin:round;fill:none"
d="M 5.7826,1.2300
23.5626,1.2300
23.5626,34.2500
5.7826,34.2500
Z" /> 
<path style="fill:none; 
stroke:#AFAFAF; stroke-width:0.1000; stroke-opacity:1; 
stroke-linecap:round; stroke-linejoin:round;fill:none"
d="M 10.1726,0.0500
19.1726,0.0500
19.1726,1.2300
10.1726,1.2300
Z" /> 
</g>
<g style="fill:none; 
stroke:#AFAFAF; stroke-width:0.0500; stroke-opacity:1; 
stroke-linecap:round; stroke-linejoin:round;">
<g transform="rotate(-90.000000 22.2926 5.0400)">
<text x="22.2926" y="5.3400"
textLength="0.6014" font-size="0.8000" lengthAdjust="spacingAndGlyphs"
text-anchor="middle" opacity="0" stroke-opacity="0">1</text>
</g>
<g class="stroked-text"><desc>1</desc>
<path d="M22.5676 4.8686
L22.5676 5.2114
" />
<path d="M22.5676 5.0400
L21.9676 5.0400
" />
<path d="M21.9676 5.0400
L22.0533 5.0971
" />
<path d="M22.0533 5.0971
L22.1104 5.1543
" />
<path d="M22.1104 5.1543
L22.1390 5.2114
" />
</g><path style="fill:none; 
stroke:#AFAFAF; stroke-width:0.0212; stroke-opacity:1; 
stroke-linecap:round; stroke-linejoin:round;fill:none"
d="M 21.6926,4.2600
21.7018,4.2141
21.7278,4.1751
21.7667,4.1491
21.8126,4.1400
22.7726,4.1400
22.8185,4.1491
22.8575,4.1751
22.8835,4.2141
22.8926,4.2600
22.8926,5.8200
22.8835,5.8659
22.8575,5.9049
22.8185,5.9309
22.7726,5.9400
21.8126,5.9400
21.7667,5.9309
21.7278,5.9049
21.7018,5.8659
21.6926,5.8200
Z" /> 
</g>
<g style="fill:none; 
stroke:#AFAFAF; stroke-width:0.0500; stroke-opacity:1; 
stroke-linecap:round; stroke-linejoin:round;">
<g transform="rotate(-90.000000 22.2926 7.5800)">
<text x="22.2926" y="7.8800"
textLength="0.6014" font-size="0.8000" lengthAdjust="spacingAndGlyphs"
text-anchor="middle" opacity="0" stroke-opacity="0">2</text>
</g>
<g class="stroked-text"><desc>2</desc>
<path d="M22.0247 7.7514
L21.9962 7.7229
" />
<path d="M21.9962 7.7229
L21.9676 7.6657
" />
<path d="M21.9676 7.6657
L21.9676 7.5229
" />
<path d="M21.9676 7.5229
L21.9962 7.4657
" />
<path d="M21.9962 7.4657
L22.0247 7.4371
" />
<path d="M22.0247 7.4371
L22.0819 7.4086
" />
<path d="M22.0819 7.4086
L22.1390 7.4086
" />
<path d="M22.1390 7.4086
L22.2247 7.4371
" />
<path d="M22.2247 7.4371
L22.5676 7.7800
" />
<path d="M22.5676 7.7800
L22.5676 7.4086
" />
</g></g>
<g style="fill:none; 
stroke:#AFAFAF; stroke-width:0.0212; stroke-opacity:1; 
stroke-linecap:round; stroke-linejoin:round;">
<path d="M21.6926 7.2800
L21.6926 7.8800
" />
<path d="M21.6926 7.8800 A0.6000 0.6000 0.0 0 0 22.8926 7.8800" />
<path d="M22.8926 7.8800
L22.8926 7.2800
" />
<path d="M22.8926 7.2800 A0.6000 0.6000 0.0 0 0 21.6926 7.2800" />
</g>
<g style="fill:none; 
stroke:#AFAFAF; stroke-width:0.0500; stroke-opacity:1; 
stroke-linecap:round; stroke-linejoin:round;">
<g transform="rotate(-90.000000 22.2926 10.1200)">
<text x="22.2926" y="10.4200"
textLength="0.6014" font-size="0.8000" lengthAdjust="spacingAndGlyphs"
text-anchor="middle" opacity="0" stroke-opacity="0">3</text>
</g>
<g class="stroked-text"><desc>3</desc>
<path d="M21.9676 10.3200
L21.9676 9.9486
" />
<path d="M21.9676 9.9486
L22.1962 10.1486
" />
<path d="M22.1962 10.1486
L22.1962 10.0629
" />
<path d="M22.1962 10.0629
L22.2247 10.0057
" />
<path d="M22.2247 10.0057
L22.2533 9.9771
" />
<path d="M22.2533 9.9771
L22.3104 9.9486
" />
<path d="M22.3104 9.9486
L22.4533 9.9486
" />
<path d="M22.4533 9.9486
L22.5104 9.9771
" />
<path d="M22.5104 9.9771
L22.5390 10.0057
" />
<path d="M22.5390 10.0057
L22.5676 10.0629
" />
<path d="M22.5676 10.0629
L22.5676 10.2343
" />
<path d="M22.5676 10.2343
L22.5390 10.2914
" />
<path d="M22.5390 10.2914
L22.5104 10.3200
" />
</g></g>
<g style="fill:none; 
stroke:#AFAFAF; stroke-width:0.0212; stroke-opacity:1; 
stroke-linecap:round; stroke-linejoin:round;">
<path d="M21.6926 9.8200
L21.6926 10.4200
" />
<path d="M21.6926 10.4200 A0.6000 0.6000 0.0 0 0 22.8926 10.4200" />
<path d="M22.8926 10.4200
L22.8926 9.8200
" />
<path d="M22.8926 9.8200 A0.6000 0.6000 0.0 0 0 21.6926 9.8200" />
</g>
<g style="fill:none; 
stroke:#AFAFAF; stroke-width:0.0500; stroke-opacity:1; 
stroke-linecap:round; stroke-linejoin:round;">
<g transform="rotate(-90.000000 22.2926 12.6600)">
<text x="22.2926" y="12.9600"
textLength="0.6014" font-size="0.8000" lengthAdjust="spacingAndGlyphs"
text-anchor="middle" opacity="0" stroke-opacity="0">4</text>
</g>
<g class="stroked-text"><desc>4</desc>
<path d="M22.1676 12.5457
L22.5676 12.5457
" />
<path d="M21.9390 12.6886
L22.3676 12.8314
" />
<path d="M22.3676 12.8314
L22.3676 12.4600
" />
</g></g>
<g style="fill:none; 
stroke:#AFAFAF; stroke-width:0.0212; stroke-opacity:1; 
stroke-linecap:round; stroke-linejoin:round;">
<path d="M21.6926 12.3600
L21.6926 12.9600
" />
<path d="M21.6926 12.9600 A0.6000 0.6000 0.0 0 0 22.8926 12.9600" />
<path d="M22.8926 12.9600
L22.8926 12.3600
" />
<path d="M22.8926 12.3600 A0.6000 0.6000 0.0 0 0 21.6926 12.3600" />
</g>
<g style="fill:none; 
stroke:#AFAFAF; stroke-width:0.0500; stroke-opacity:1; 
stroke-linecap:round; stroke-linejoin:round;">
<g transform="rotate(-90.000000 22.2926 15.2000)">
<text x="22.2926" y="15.5000"
textLength="0.6014" font-size="0.8000" lengthAdjust="spacingAndGlyphs"
text-anchor="middle" opacity="0" stroke-opacity="0">5</text>
</g>
<g class="stroked-text"><desc>5</desc>
<path d="M21.9676 15.0571
L21.9676 15.3429
" />
<path d="M21.9676 15.3429
L22.2533 15.3714
" />
<path d="M22.2533 15.3714
L22.2247 15.3429
" />
<path d="M22.2247 15.3429
L22.1962 15.2857
" />
<path d="M22.1962 15.2857
L22.1962 15.1429
" />
<path d="M22.1962 15.1429
L22.2247 15.0857
" />
<path d="M22.2247 15.0857
L22.2533 15.0571
" />
<path d="M22.2533 15.0571
L22.3104 15.0286
" />
<path d="M22.3104 15.0286
L22.4533 15.0286
" />
<path d="M22.4533 15.0286
L22.5104 15.0571
" />
<path d="M22.5104 15.0571
L22.5390 15.0857
" />
<path d="M22.5390 15.0857
L22.5676 15.1429
" />
<path d="M22.5676 15.1429
L22.5676 15.2857
" />
<path d="M22.5676 15.2857
L22.5390 15.3429
" />
<path d="M22.5390 15.3429
L22.5104 15.3714
" />
</g></g>
<g style="fill:none; 
stroke:#AFAFAF; stroke-width:0.0212; stroke-opacity:1; 
stroke-linecap:round; stroke-linejoin:round;">
<path d="M21.6926 14.9000
L21.6926 15.5000
" />
<path d="M21.6926 15.5000 A0.6000 0.6000 0.0 0 0 22.8926 15.5000" />
<path d="M22.8926 15.5000
L22.8926 14.9000
" />
<path d="M22.8926 14.9000 A0.6000 0.6000 0.0 0 0 21.6926 14.9000" />
</g>
<g style="fill:none; 
stroke:#AFAFAF; stroke-width:0.0500; stroke-opacity:1; 
stroke-linecap:round; stroke-linejoin:round;">
<g transform="rotate(-90.000000 22.2926 17.7400)">
<text x="22.2926" y="18.0400"
textLength="0.6014" font-size="0.8000" lengthAdjust="spacingAndGlyphs"
text-anchor="middle" opacity="0" stroke-opacity="0">6</text>
</g>
<g class="stroked-text"><desc>6</desc>
<path d="M21.9676 17.6257
L21.9676 17.7400
" />
<path d="M21.9676 17.7400
L21.9962 17.7971
" />
<path d="M21.9962 17.7971
L22.0247 17.8257
" />
<path d="M22.0247 17.8257
L22.1104 17.8829
" />
<path d="M22.1104 17.8829
L22.2247 17.9114
" />
<path d="M22.2247 17.9114
L22.4533 17.9114
" />
<path d="M22.4533 17.9114
L22.5104 17.8829
" />
<path d="M22.5104 17.8829
L22.5390 17.8543
" />
<path d="M22.5390 17.8543
L22.5676 17.7971
" />
<path d="M22.5676 17.7971
L22.5676 17.6829
" />
<path d="M22.5676 17.6829
L22.5390 17.6257
" />
<path d="M22.5390 17.6257
L22.5104 17.5971
" />
<path d="M22.5104 17.5971
L22.4533 17.5686
" />
<path d="M22.4533 17.5686
L22.3104 17.5686
" />
<path d="M22.3104 17.5686
L22.2533 17.5971
" />
<path d="M22.2533 17.5971
L22.2247 17.6257
" />
<path d="M22.2247 17.6257
L22.1962 17.6829
" />
<path d="M22.1962 17.6829
L22.1962 17.7971
" />
<path d="M22.1962 17.7971
L22.2247 17.8543
" />
<path d="M22.2247 17.8543
L22.2533 17.8829
" />
<path d="M22.2533 17.8829
L22.3104 17.9114
" />
</g></g>
<g style="fill:none; 
stroke:#AFAFAF; stroke-width:0.0212; stroke-opacity:1; 
stroke-linecap:round; stroke-linejoin:round;">
<path d="M21.6926 17.4400
L21.6926 18.0400
" />
<path d="M21.6926 18.0400 A0.6000 0.6000 0.0 0 0 22.8926 18.0400" />
<path d="M22.8926 18.0400
L22.8926 17.4400
" />
<path d="M22.8926 17.4400 A0.6000 0.6000 0.0 0 0 21.6926 17.4400" />
</g>
<g style="fill:none; 
stroke:#AFAFAF; stroke-width:0.0500; stroke-opacity:1; 
stroke-linecap:round; stroke-linejoin:round;">
<g transform="rotate(-90.000000 22.2926 20.2800)">
<text x="22.2926" y="20.5800"
textLength="0.6014" font-size="0.8000" lengthAdjust="spacingAndGlyphs"
text-anchor="middle" opacity="0" stroke-opacity="0">7</text>
</g>
<g class="stroked-text"><desc>7</desc>
<path d="M21.9676 20.4800
L21.9676 20.0800
" />
<path d="M21.9676 20.0800
L22.5676 20.3371
" />
</g></g>
<g style="fill:none; 
stroke:#AFAFAF; stroke-width:0.0212; stroke-opacity:1; 
stroke-linecap:round; stroke-linejoin:round;">
<path d="M21.6926 19.9800
L21.6926 20.5800
" />
<path d="M21.6926 20.5800 A0.6000 0.6000 0.0 0 0 22.8926 20.5800" />
<path d="M22.8926 20.5800
L22.8926 19.9800
" />
<path d="M22.8926 19.9800 A0.6000 0.6000 0.0 0 0 21.6926 19.9800" />
</g>
<g style="fill:none; 
stroke:#AFAFAF; stroke-width:0.0500; stroke-opacity:1; 
stroke-linecap:round; stroke-linejoin:round;">
<g transform="rotate(-90.000000 22.2926 22.8200)">
<text x="22.2926" y="23.1200"
textLength="0.6014" font-size="0.8000" lengthAdjust="spacingAndGlyphs"
text-anchor="middle" opacity="0" stroke-opacity="0">8</text>
</g>
<g class="stroked-text"><desc>8</desc>
<path d="M22.2247 22.8771
L22.1962 22.9343
" />
<path d="M22.1962 22.9343
L22.1676 22.9629
" />
<path d="M22.1676 22.9629
L22.1104 22.9914
" />
<path d="M22.1104 22.9914
L22.0819 22.9914
" />
<path d="M22.0819 22.9914
L22.0247 22.9629
" />
<path d="M22.0247 22.9629
L21.9962 22.9343
" />
<path d="M21.9962 22.9343
L21.9676 22.8771
" />
<path d="M21.9676 22.8771
L21.9676 22.7629
" />
<path d="M21.9676 22.7629
L21.9962 22.7057
" />
<path d="M21.9962 22.7057
L22.0247 22.6771
" />
<path d="M22.0247 22.6771
L22.0819 22.6486
" />
<path d="M22.0819 22.6486
L22.1104 22.6486
" />
<path d="M22.1104 22.6486
L22.1676 22.6771
" />
<path d="M22.1676 22.6771
L22.1962 22.7057
" />
<path d="M22.1962 22.7057
L22.2247 22.7629
" />
<path d="M22.2247 22.7629
L22.2247 22.8771
" />
<path d="M22.2247 22.8771
L22.2533 22.9343
" />
<path d="M22.2533 22.9343
L22.2819 22.9629
" />
<path d="M22.2819 22.9629
L22.3390 22.9914
" />
<path d="M22.3390 22.9914
L22.4533 22.9914
" />
<path d="M22.4533 22.9914
L22.5104 22.9629
" />
<path d="M22.5104 22.9629
L22.5390 22.9343
" />
<path d="M22.5390 22.9343
L22.5676 22.8771
" />
<path d="M22.5676 22.8771
L22.5676 22.7629
" />
<path d="M22.5676 22.7629
L22.5390 22.7057
" />
<path d="M22.5390 22.7057
L22.5104 22.6771
" />
<path d="M22.5104 22.6771
L22.4533 22.6486
" />
<path d="M22.4533 22.6486
L22.3390 22.6486
" />
<path d="M22.3390 22.6486
L22.2819 22.6771
" />
<path d="M22.2819 22.6771
L22.2533 22.7057
" />
<path d="M22.2533 22.7057
L22.2247 22.7629
" />
</g></g>
<g style="fill:none; 
stroke:#AFAFAF; stroke-width:0.0212; stroke-opacity:1; 
stroke-linecap:round; stroke-linejoin:round;">
<path d="M21.6926 22.5200
L21.6926 23.1200
" />
<path d="M21.6926 23.1200 A0.6000 0.6000 0.0 0 0 22.8926 23.1200" />
<path d="M22.8926 23.1200
L22.8926 22.5200
" />
<path d="M22.8926 22.5200 A0.6000 0.6000 0.0 0 0 21.6926 22.5200" />
</g>
<g style="fill:none; 
stroke:#AFAFAF; stroke-width:0.0500; stroke-opacity:1; 
stroke-linecap:round; stroke-linejoin:round;">
<g transform="rotate(-90.000000 22.2926 25.3600)">
<text x="22.2926" y="25.6600"
textLength="0.6014" font-size="0.8000" lengthAdjust="spacingAndGlyphs"
text-anchor="middle" opacity="0" stroke-opacity="0">9</text>
</g>
<g class="stroked-text"><desc>9</desc>
<path d="M22.5676 25.4743
L22.5676 25.3600
" />
<path d="M22.5676 25.3600
L22.5390 25.3029
" />
<path d="M22.5390 25.3029
L22.5104 25.2743
" />
<path d="M22.5104 25.2743
L22.4247 25.2171
" />
<path d="M22.4247 25.2171
L22.3104 25.1886
" />
<path d="M22.3104 25.1886
L22.0819 25.1886
" />
<path d="M22.0819 25.1886
L22.0247 25.2171
" />
<path d="M22.0247 25.2171
L21.9962 25.2457
" />
<path d="M21.9962 25.2457
L21.9676 25.3029
" />
<path d="M21.9676 25.3029
L21.9676 25.4171
" />
<path d="M21.9676 25.4171
L21.9962 25.4743
" />
<path d="M21.9962 25.4743
L22.0247 25.5029
" />
<path d="M22.0247 25.5029
L22.0819 25.5314
" />
<path d="M22.0819 25.5314
L22.2247 25.5314
" />
<path d="M22.2247 25.5314
L22.2819 25.5029
" />
<path d="M22.2819 25.5029
L22.3104 25.4743
" />
<path d="M22.3104 25.4743
L22.3390 25.4171
" />
<path d="M22.3390 25.4171
L22.3390 25.3029
" />
<path d="M22.3390 25.3029
L22.3104 25.2457
" />
<path d="M22.3104 25.2457
L22.2819 25.2171
" />
<path d="M22.2819 25.2171
L22.2247 25.1886
" />
</g></g>
<g style="fill:none; 
stroke:#AFAFAF; stroke-width:0.0212; stroke-opacity:1; 
stroke-linecap:round; stroke-linejoin:round;">
<path d="M21.6926 25.0600
L21.6926 25.6600
" />
<path d="M21.6926 25.6600 A0.6000 0.6000 0.0 0 0 22.8926 25.6600" />
<path d="M22.8926 25.6600
L22.8926 25.0600
" />
<path d="M22.8926 25.0600 A0.6000 0.6000 0.0 0 0 21.6926 25.0600" />
</g>
<g style="fill:none; 
stroke:#AFAFAF; stroke-width:0.0500; stroke-opacity:1; 
stroke-linecap:round; stroke-linejoin:round;">
<g transform="rotate(-90.000000 22.2926 27.9000)">
<text x="22.2926" y="28.2000"
textLength="1.1729" font-size="0.8000" lengthAdjust="spacingAndGlyphs"
text-anchor="middle" opacity="0" stroke-opacity="0">10</text>
</g>
<g class="stroked-text"><desc>10</desc>
<path d="M22.5676 28.0143
L22.5676 28.3571
" />
<path d="M22.5676 28.1857
L21.9676 28.1857
" />
<path d="M21.9676 28.1857
L22.0533 28.2429
" />
<path d="M22.0533 28.2429
L22.1104 28.3000
" />
<path d="M22.1104 28.3000
L22.1390 28.3571
" />
<path d="M21.9676 27.6429
L21.9676 27.5857
" />
<path d="M21.9676 27.5857
L21.9962 27.5286
" />
<path d="M21.9962 27.5286
L22.0247 27.5000
" />
<path d="M22.0247 27.5000
L22.0819 27.4714
" />
<path d="M22.0819 27.4714
L22.1962 27.4429
" />
<path d="M22.1962 27.4429
L22.3390 27.4429
" />
<path d="M22.3390 27.4429
L22.4533 27.4714
" />
<path d="M22.4533 27.4714
L22.5104 27.5000
" />
<path d="M22.5104 27.5000
L22.5390 27.5286
" />
<path d="M22.5390 27.5286
L22.5676 27.5857
" />
<path d="M22.5676 27.5857
L22.5676 27.6429
" />
<path d="M22.5676 27.6429
L22.5390 27.7000
" />
<path d="M22.5390 27.7000
L22.5104 27.7286
" />
<path d="M22.5104 27.7286
L22.4533 27.7571
" />
<path d="M22.4533 27.7571
L22.3390 27.7857
" />
<path d="M22.3390 27.7857
L22.1962 27.7857
" />
<path d="M22.1962 27.7857
L22.0819 27.7571
" />
<path d="M22.0819 27.7571
L22.0247 27.7286
" />
<path d="M22.0247 27.7286
L21.9962 27.7000
" />
<path d="M21.9962 27.7000
L21.9676 27.6429
" />
</g></g>
<g style="fill:none; 
stroke:#AFAFAF; stroke-width:0.0212; stroke-opacity:1; 
stroke-linecap:round; stroke-linejoin:round;">
<path d="M21.6926 27.6000
L21.6926 28.2000
" />
<path d="M21.6926 28.2000 A0.6000 0.6000 0.0 0 0 22.8926 28.2000" />
<path d="M22.8926 28.2000
L22.8926 27.6000
" />
<path d="M22.8926 27.6000 A0.6000 0.6000 0.0 0 0 21.6926 27.6000" />
</g>
<g style="fill:none; 
stroke:#AFAFAF; stroke-width:0.0500; stroke-opacity:1; 
stroke-linecap:round; stroke-linejoin:round;">
<g transform="rotate(-90.000000 22.2926 30.4400)">
<text x="22.2926" y="30.7400"
textLength="1.1729" font-size="0.8000" lengthAdjust="spacingAndGlyphs"
text-anchor="middle" opacity="0" stroke-opacity="0">11</text>
</g>
<g class="stroked-text"><desc>11</desc>
<path d="M22.5676 30.5543
L22.5676 30.8971
" />
<path d="M22.5676 30.7257
L21.9676 30.7257
" />
<path d="M21.9676 30.7257
L22.0533 30.7829
" />
<path d="M22.0533 30.7829
L22.1104 30.8400
" />
<path d="M22.1104 30.8400
L22.1390 30.8971
" />
<path d="M22.5676 29.9829
L22.5676 30.3257
" />
<path d="M22.5676 30.1543
L21.9676 30.1543
" />
<path d="M21.9676 30.1543
L22.0533 30.2114
" />
<path d="M22.0533 30.2114
L22.1104 30.2686
" />
<path d="M22.1104 30.2686
L22.1390 30.3257
" />
</g></g>
<g style="fill:none; 
stroke:#AFAFAF; stroke-width:0.0212; stroke-opacity:1; 
stroke-linecap:round; stroke-linejoin:round;">
<path d="M21.6926 30.1400
L21.6926 30.7400
" />
<path d="M21.6926 30.7400 A0.6000 0.6000 0.0 0 0 22.8926 30.7400" />
<path d="M22.8926 30.7400
L22.8926 30.1400
" />
<path d="M22.8926 30.1400 A0.6000 0.6000 0.0 0 0 21.6926 30.1400" />
</g>
<g style="fill:none; 
stroke:#AFAFAF; stroke-width:0.0500; stroke-opacity:1; 
stroke-linecap:round; stroke-linejoin:round;">
<g transform="rotate(-90.000000 22.2926 32.9800)">
<text x="22.2926" y="33.2800"
textLength="1.1729" font-size="0.8000" lengthAdjust="spacingAndGlyphs"
text-anchor="middle" opacity="0" stroke-opacity="0">12</text>
</g>
<g class="stroked-text"><desc>12</desc>
<path d="M22.5676 33.0943
L22.5676 33.4371
" />
<path d="M22.5676 33.2657
L21.9676 33.2657
" />
<path d="M21.9676 33.2657
L22.0533 33.3229
" />
<path d="M22.0533 33.3229
L22.1104 33.3800
" />
<path d="M22.1104 33.3800
L22.1390 33.4371
" />
<path d="M22.0247 32.8657
L21.9962 32.8371
" />
<path d="M21.9962 32.8371
L21.9676 32.7800
" />
<path d="M21.9676 32.7800
L21.9676 32.6371
" />
<path d="M21.9676 32.6371
L21.9962 32.5800
" />
<path d="M21.9962 32.5800
L22.0247 32.5514
" />
<path d="M22.0247 32.5514
L22.0819 32.5229
" />
<path d="M22.0819 32.5229
L22.1390 32.5229
" />
<path d="M22.1390 32.5229
L22.2247 32.5514
" />
<path d="M22.2247 32.5514
L22.5676 32.8943
" />
<path d="M22.5676 32.8943
L22.5676 32.5229
" />
</g></g>
<g style="fill:none; 
stroke:#AFAFAF; stroke-width:0.0212; stroke-opacity:1; 
stroke-linecap:round; stroke-linejoin:round;">
<path d="M21.6926 32.6800
L21.6926 33.2800
" />
<path d="M21.6926 33.2800 A0.6000 0.6000 0.0 0 0 22.8926 33.2800" />
<path d="M22.8926 33.2800
L22.8926 32.6800
" />
<path d="M22.8926 32.6800 A0.6000 0.6000 0.0 0 0 21.6926 32.6800" />
</g>
<g style="fill:none; 
stroke:#AFAFAF; stroke-width:0.0500; stroke-opacity:1; 
stroke-linecap:round; stroke-linejoin:round;">
<g transform="rotate(-90.000000 7.0526 32.9800)">
<text x="7.0526" y="33.2800"
textLength="1.1729" font-size="0.8000" lengthAdjust="spacingAndGlyphs"
text-anchor="middle" opacity="0" stroke-opacity="0">13</text>
</g>
<g class="stroked-text"><desc>13</desc>
<path d="M7.3276 33.0943
L7.3276 33.4371
" />
<path d="M7.3276 33.2657
L6.7276 33.2657
" />
<path d="M6.7276 33.2657
L6.8133 33.3229
" />
<path d="M6.8133 33.3229
L6.8704 33.3800
" />
<path d="M6.8704 33.3800
L6.8990 33.4371
" />
<path d="M6.7276 32.8943
L6.7276 32.5229
" />
<path d="M6.7276 32.5229
L6.9562 32.7229
" />
<path d="M6.9562 32.7229
L6.9562 32.6371
" />
<path d="M6.9562 32.6371
L6.9847 32.5800
" />
<path d="M6.9847 32.5800
L7.0133 32.5514
" />
<path d="M7.0133 32.5514
L7.0704 32.5229
" />
<path d="M7.0704 32.5229
L7.2133 32.5229
" />
<path d="M7.2133 32.5229
L7.2704 32.5514
" />
<path d="M7.2704 32.5514
L7.2990 32.5800
" />
<path d="M7.2990 32.5800
L7.3276 32.6371
" />
<path d="M7.3276 32.6371
L7.3276 32.8086
" />
<path d="M7.3276 32.8086
L7.2990 32.8657
" />
<path d="M7.2990 32.8657
L7.2704 32.8943
" />
</g></g>
<g style="fill:none; 
stroke:#AFAFAF; stroke-width:0.0212; stroke-opacity:1; 
stroke-linecap:round; stroke-linejoin:round;">
<path d="M6.4526 32.6800
L6.4526 33.2800
" />
<path d="M6.4526 33.2800 A0.6000 0.6000 0.0 0 0 7.6526 33.2800" />
<path d="M7.6526 33.2800
L7.6526 32.6800
" />
<path d="M7.6526 32.6800 A0.6000 0.6000 0.0 0 0 6.4526 32.6800" />
</g>
<g style="fill:none; 
stroke:#AFAFAF; stroke-width:0.0500; stroke-opacity:1; 
stroke-linecap:round; stroke-linejoin:round;">
<g transform="rotate(-90.000000 7.0526 30.4400)">
<text x="7.0526" y="30.7400"
textLength="1.1729" font-size="0.8000" lengthAdjust="spacingAndGlyphs"
text-anchor="middle" opacity="0" stroke-opacity="0">14</text>
</g>
<g class="stroked-text"><desc>14</desc>
<path d="M7.3276 30.5543
L7.3276 30.8971
" />
<path d="M7.3276 30.7257
L6.7276 30.7257
" />
<path d="M6.7276 30.7257
L6.8133 30.7829
" />
<path d="M6.8133 30.7829
L6.8704 30.8400
" />
<path d="M6.8704 30.8400
L6.8990 30.8971
" />
<path d="M6.9276 30.0400
L7.3276 30.0400
" />
<path d="M6.6990 30.1829
L7.1276 30.3257
" />
<path d="M7.1276 30.3257
L7.1276 29.9543
" />
</g></g>
<g style="fill:none; 
stroke:#AFAFAF; stroke-width:0.0212; stroke-opacity:1; 
stroke-linecap:round; stroke-linejoin:round;">
<path d="M6.4526 30.1400
L6.4526 30.7400
" />
<path d="M6.4526 30.7400 A0.6000 0.6000 0.0 0 0 7.6526 30.7400" />
<path d="M7.6526 30.7400
L7.6526 30.1400
" />
<path d="M7.6526 30.1400 A0.6000 0.6000 0.0 0 0 6.4526 30.1400" />
</g>
<g style="fill:none; 
stroke:#AFAFAF; stroke-width:0.0500; stroke-opacity:1; 
stroke-linecap:round; stroke-linejoin:round;">
<g transform="rotate(-90.000000 7.0526 27.9000)">
<text x="7.0526" y="28.2000"
textLength="1.1729" font-size="0.8000" lengthAdjust="spacingAndGlyphs"
text-anchor="middle" opacity="0" stroke-opacity="0">15</text>
</g>
<g class="stroked-text"><desc>15</desc>
<path d="M7.3276 28.0143
L7.3276 28.3571
" />
<path d="M7.3276 28.1857
L6.7276 28.1857
" />
<path d="M6.7276 28.1857
L6.8133 28.2429
" />
<path d="M6.8133 28.2429
L6.8704 28.3000
" />
<path d="M6.8704 28.3000
L6.8990 28.3571
" />
<path d="M6.7276 27.4714
L6.7276 27.7571
" />
<path d="M6.7276 27.7571
L7.0133 27.7857
" />
<path d="M7.0133 27.7857
L6.9847 27.7571
" />
<path d="M6.9847 27.7571
L6.9562 27.7000
" />
<path d="M6.9562 27.7000
L6.9562 27.5571
" />
<path d="M6.9562 27.5571
L6.9847 27.5000
" />
<path d="M6.9847 27.5000
L7.0133 27.4714
" />
<path d="M7.0133 27.4714
L7.0704 27.4429
" />
<path d="M7.0704 27.4429
L7.2133 27.4429
" />
<path d="M7.2133 27.4429
L7.2704 27.4714
" />
<path d="M7.2704 27.4714
L7.2990 27.5000
" />
<path d="M7.2990 27.5000
L7.3276 27.5571
" />
<path d="M7.3276 27.5571
L7.3276 27.7000
" />
<path d="M7.3276 27.7000
L7.2990 27.7571
" />
<path d="M7.2990 27.7571
L7.2704 27.7857
" />
</g></g>
<g style="fill:none; 
stroke:#AFAFAF; stroke-width:0.0212; stroke-opacity:1; 
stroke-linecap:round; stroke-linejoin:round;">
<path d="M6.4526 27.6000
L6.4526 28.2000
" />
<path d="M6.4526 28.2000 A0.6000 0.6000 0.0 0 0 7.6526 28.2000" />
<path d="M7.6526 28.2000
L7.6526 27.6000
" />
<path d="M7.6526 27.6000 A0.6000 0.6000 0.0 0 0 6.4526 27.6000" />
</g>
<g style="fill:none; 
stroke:#AFAFAF; stroke-width:0.0500; stroke-opacity:1; 
stroke-linecap:round; stroke-linejoin:round;">
<g transform="rotate(-90.000000 7.0526 25.3600)">
<text x="7.0526" y="25.6600"
textLength="1.1729" font-size="0.8000" lengthAdjust="spacingAndGlyphs"
text-anchor="middle" opacity="0" stroke-opacity="0">16</text>
</g>
<g class="stroked-text"><desc>16</desc>
<path d="M7.3276 25.4743
L7.3276 25.8171
" />
<path d="M7.3276 25.6457
L6.7276 25.6457
" />
<path d="M6.7276 25.6457
L6.8133 25.7029
" />
<path d="M6.8133 25.7029
L6.8704 25.7600
" />
<path d="M6.8704 25.7600
L6.8990 25.8171
" />
<path d="M6.7276 24.9600
L6.7276 25.0743
" />
<path d="M6.7276 25.0743
L6.7562 25.1314
" />
<path d="M6.7562 25.1314
L6.7847 25.1600
" />
<path d="M6.7847 25.1600
L6.8704 25.2171
" />
<path d="M6.8704 25.2171
L6.9847 25.2457
" />
<path d="M6.9847 25.2457
L7.2133 25.2457
" />
<path d="M7.2133 25.2457
L7.2704 25.2171
" />
<path d="M7.2704 25.2171
L7.2990 25.1886
" />
<path d="M7.2990 25.1886
L7.3276 25.1314
" />
<path d="M7.3276 25.1314
L7.3276 25.0171
" />
<path d="M7.3276 25.0171
L7.2990 24.9600
" />
<path d="M7.2990 24.9600
L7.2704 24.9314
" />
<path d="M7.2704 24.9314
L7.2133 24.9029
" />
<path d="M7.2133 24.9029
L7.0704 24.9029
" />
<path d="M7.0704 24.9029
L7.0133 24.9314
" />
<path d="M7.0133 24.9314
L6.9847 24.9600
" />
<path d="M6.9847 24.9600
L6.9562 25.0171
" />
<path d="M6.9562 25.0171
L6.9562 25.1314
" />
<path d="M6.9562 25.1314
L6.9847 25.1886
" />
<path d="M6.9847 25.1886
L7.0133 25.2171
" />
<path d="M7.0133 25.2171
L7.0704 25.2457
" />
</g></g>
<g style="fill:none; 
stroke:#AFAFAF; stroke-width:0.0212; stroke-opacity:1; 
stroke-linecap:round; stroke-linejoin:round;">
<path d="M6.4526 25.0600
L6.4526 25.6600
" />
<path d="M6.4526 25.6600 A0.6000 0.6000 0.0 0 0 7.6526 25.6600" />
<path d="M7.6526 25.6600
L7.6526 25.0600
" />
<path d="M7.6526 25.0600 A0.6000 0.6000 0.0 0 0 6.4526 25.0600" />
</g>
<g style="fill:none; 
stroke:#AFAFAF; stroke-width:0.0500; stroke-opacity:1; 
stroke-linecap:round; stroke-linejoin:round;">
<g transform="rotate(-90.000000 7.0526 22.8200)">
<text x="7.0526" y="23.1200"
textLength="1.1729" font-size="0.8000" lengthAdjust="spacingAndGlyphs"
text-anchor="middle" opacity="0" stroke-opacity="0">17</text>
</g>
<g class="stroked-text"><desc>17</desc>
<path d="M7.3276 22.9343
L7.3276 23.2771
" />
<path d="M7.3276 23.1057
L6.7276 23.1057
" />
<path d="M6.7276 23.1057
L6.8133 23.1629
" />
<path d="M6.8133 23.1629
L6.8704 23.2200
" />
<path d="M6.8704 23.2200
L6.8990 23.2771
" />
<path d="M6.7276 22.7343
L6.7276 22.3343
" />
<path d="M6.7276 22.3343
L7.3276 22.5914
" />
</g></g>
<g style="fill:none; 
stroke:#AFAFAF; stroke-width:0.0212; stroke-opacity:1; 
stroke-linecap:round; stroke-linejoin:round;">
<path d="M6.4526 22.5200
L6.4526 23.1200
" />
<path d="M6.4526 23.1200 A0.6000 0.6000 0.0 0 0 7.6526 23.1200" />
<path d="M7.6526 23.1200
L7.6526 22.5200
" />
<path d="M7.6526 22.5200 A0.6000 0.6000 0.0 0 0 6.4526 22.5200" />
</g>
<g style="fill:none; 
stroke:#AFAFAF; stroke-width:0.0500; stroke-opacity:1; 
stroke-linecap:round; stroke-linejoin:round;">
<g transform="rotate(-90.000000 7.0526 20.2800)">
<text x="7.0526" y="20.5800"
textLength="1.1729" font-size="0.8000" lengthAdjust="spacingAndGlyphs"
text-anchor="middle" opacity="0" stroke-opacity="0">18</text>
</g>
<g class="stroked-text"><desc>18</desc>
<path d="M7.3276 20.3943
L7.3276 20.7371
" />
<path d="M7.3276 20.5657
L6.7276 20.5657
" />
<path d="M6.7276 20.5657
L6.8133 20.6229
" />
<path d="M6.8133 20.6229
L6.8704 20.6800
" />
<path d="M6.8704 20.6800
L6.8990 20.7371
" />
<path d="M6.9847 20.0514
L6.9562 20.1086
" />
<path d="M6.9562 20.1086
L6.9276 20.1371
" />
<path d="M6.9276 20.1371
L6.8704 20.1657
" />
<path d="M6.8704 20.1657
L6.8419 20.1657
" />
<path d="M6.8419 20.1657
L6.7847 20.1371
" />
<path d="M6.7847 20.1371
L6.7562 20.1086
" />
<path d="M6.7562 20.1086
L6.7276 20.0514
" />
<path d="M6.7276 20.0514
L6.7276 19.9371
" />
<path d="M6.7276 19.9371
L6.7562 19.8800
" />
<path d="M6.7562 19.8800
L6.7847 19.8514
" />
<path d="M6.7847 19.8514
L6.8419 19.8229
" />
<path d="M6.8419 19.8229
L6.8704 19.8229
" />
<path d="M6.8704 19.8229
L6.9276 19.8514
" />
<path d="M6.9276 19.8514
L6.9562 19.8800
" />
<path d="M6.9562 19.8800
L6.9847 19.9371
" />
<path d="M6.9847 19.9371
L6.9847 20.0514
" />
<path d="M6.9847 20.0514
L7.0133 20.1086
" />
<path d="M7.0133 20.1086
L7.0419 20.1371
" />
<path d="M7.0419 20.1371
L7.0990 20.1657
" />
<path d="M7.0990 20.1657
L7.2133 20.1657
" />
<path d="M7.2133 20.1657
L7.2704 20.1371
" />
<path d="M7.2704 20.1371
L7.2990 20.1086
" />
<path d="M7.2990 20.1086
L7.3276 20.0514
" />
<path d="M7.3276 20.0514
L7.3276 19.9371
" />
<path d="M7.3276 19.9371
L7.2990 19.8800
" />
<path d="M7.2990 19.8800
L7.2704 19.8514
" />
<path d="M7.2704 19.8514
L7.2133 19.8229
" />
<path d="M7.2133 19.8229
L7.0990 19.8229
" />
<path d="M7.0990 19.8229
L7.0419 19.8514
" />
<path d="M7.0419 19.8514
L7.0133 19.8800
" />
<path d="M7.0133 19.8800
L6.9847 19.9371
" />
</g></g>
<g style="fill:none; 
stroke:#AFAFAF; stroke-width:0.0212; stroke-opacity:1; 
stroke-linecap:round; stroke-linejoin:round;">
<path d="M6.4526 19.9800
L6.4526 20.5800
" />
<path d="M6.4526 20.5800 A0.6000 0.6000 0.0 0 0 7.6526 20.5800" />
<path d="M7.6526 20.5800
L7.6526 19.9800
" />
<path d="M7.6526 19.9800 A0.6000 0.6000 0.0 0 0 6.4526 19.9800" />
</g>
<g style="fill:none; 
stroke:#AFAFAF; stroke-width:0.0500; stroke-opacity:1; 
stroke-linecap:round; stroke-linejoin:round;">
<g transform="rotate(-90.000000 7.0526 17.7400)">
<text x="7.0526" y="18.0400"
textLength="1.1729" font-size="0.8000" lengthAdjust="spacingAndGlyphs"
text-anchor="middle" opacity="0" stroke-opacity="0">19</text>
</g>
<g class="stroked-text"><desc>19</desc>
<path d="M7.3276 17.8543
L7.3276 18.1971
" />
<path d="M7.3276 18.0257
L6.7276 18.0257
" />
<path d="M6.7276 18.0257
L6.8133 18.0829
" />
<path d="M6.8133 18.0829
L6.8704 18.1400
" />
<path d="M6.8704 18.1400
L6.8990 18.1971
" />
<path d="M7.3276 17.5686
L7.3276 17.4543
" />
<path d="M7.3276 17.4543
L7.2990 17.3971
" />
<path d="M7.2990 17.3971
L7.2704 17.3686
" />
<path d="M7.2704 17.3686
L7.1847 17.3114
" />
<path d="M7.1847 17.3114
L7.0704 17.2829
" />
<path d="M7.0704 17.2829
L6.8419 17.2829
" />
<path d="M6.8419 17.2829
L6.7847 17.3114
" />
<path d="M6.7847 17.3114
L6.7562 17.3400
" />
<path d="M6.7562 17.3400
L6.7276 17.3971
" />
<path d="M6.7276 17.3971
L6.7276 17.5114
" />
<path d="M6.7276 17.5114
L6.7562 17.5686
" />
<path d="M6.7562 17.5686
L6.7847 17.5971
" />
<path d="M6.7847 17.5971
L6.8419 17.6257
" />
<path d="M6.8419 17.6257
L6.9847 17.6257
" />
<path d="M6.9847 17.6257
L7.0419 17.5971
" />
<path d="M7.0419 17.5971
L7.0704 17.5686
" />
<path d="M7.0704 17.5686
L7.0990 17.5114
" />
<path d="M7.0990 17.5114
L7.0990 17.3971
" />
<path d="M7.0990 17.3971
L7.0704 17.3400
" />
<path d="M7.0704 17.3400
L7.0419 17.3114
" />
<path d="M7.0419 17.3114
L6.9847 17.2829
" />
</g></g>
<g style="fill:none; 
stroke:#AFAFAF; stroke-width:0.0212; stroke-opacity:1; 
stroke-linecap:round; stroke-linejoin:round;">
<path d="M6.4526 17.4400
L6.4526 18.0400
" />
<path d="M6.4526 18.0400 A0.6000 0.6000 0.0 0 0 7.6526 18.0400" />
<path d="M7.6526 18.0400
L7.6526 17.4400
" />
<path d="M7.6526 17.4400 A0.6000 0.6000 0.0 0 0 6.4526 17.4400" />
</g>
<g style="fill:none; 
stroke:#AFAFAF; stroke-width:0.0500; stroke-opacity:1; 
stroke-linecap:round; stroke-linejoin:round;">
<g transform="rotate(-90.000000 7.0526 15.2000)">
<text x="7.0526" y="15.5000"
textLength="1.1729" font-size="0.8000" lengthAdjust="spacingAndGlyphs"
text-anchor="middle" opacity="0" stroke-opacity="0">20</text>
</g>
<g class="stroked-text"><desc>20</desc>
<path d="M6.7847 15.6571
L6.7562 15.6286
" />
<path d="M6.7562 15.6286
L6.7276 15.5714
" />
<path d="M6.7276 15.5714
L6.7276 15.4286
" />
<path d="M6.7276 15.4286
L6.7562 15.3714
" />
<path d="M6.7562 15.3714
L6.7847 15.3429
" />
<path d="M6.7847 15.3429
L6.8419 15.3143
" />
<path d="M6.8419 15.3143
L6.8990 15.3143
" />
<path d="M6.8990 15.3143
L6.9847 15.3429
" />
<path d="M6.9847 15.3429
L7.3276 15.6857
" />
<path d="M7.3276 15.6857
L7.3276 15.3143
" />
<path d="M6.7276 14.9429
L6.7276 14.8857
" />
<path d="M6.7276 14.8857
L6.7562 14.8286
" />
<path d="M6.7562 14.8286
L6.7847 14.8000
" />
<path d="M6.7847 14.8000
L6.8419 14.7714
" />
<path d="M6.8419 14.7714
L6.9562 14.7429
" />
<path d="M6.9562 14.7429
L7.0990 14.7429
" />
<path d="M7.0990 14.7429
L7.2133 14.7714
" />
<path d="M7.2133 14.7714
L7.2704 14.8000
" />
<path d="M7.2704 14.8000
L7.2990 14.8286
" />
<path d="M7.2990 14.8286
L7.3276 14.8857
" />
<path d="M7.3276 14.8857
L7.3276 14.9429
" />
<path d="M7.3276 14.9429
L7.2990 15.0000
" />
<path d="M7.2990 15.0000
L7.2704 15.0286
" />
<path d="M7.2704 15.0286
L7.2133 15.0571
" />
<path d="M7.2133 15.0571
L7.0990 15.0857
" />
<path d="M7.0990 15.0857
L6.9562 15.0857
" />
<path d="M6.9562 15.0857
L6.8419 15.0571
" />
<path d="M6.8419 15.0571
L6.7847 15.0286
" />
<path d="M6.7847 15.0286
L6.7562 15.0000
" />
<path d="M6.7562 15.0000
L6.7276 14.9429
" />
</g></g>
<g style="fill:none; 
stroke:#AFAFAF; stroke-width:0.0212; stroke-opacity:1; 
stroke-linecap:round; stroke-linejoin:round;">
<path d="M6.4526 14.9000
L6.4526 15.5000
" />
<path d="M6.4526 15.5000 A0.6000 0.6000 0.0 0 0 7.6526 15.5000" />
<path d="M7.6526 15.5000
L7.6526 14.9000
" />
<path d="M7.6526 14.9000 A0.6000 0.6000 0.0 0 0 6.4526 14.9000" />
</g>
<g style="fill:none; 
stroke:#AFAFAF; stroke-width:0.0500; stroke-opacity:1; 
stroke-linecap:round; stroke-linejoin:round;">
<g transform="rotate(-90.000000 7.0526 12.6600)">
<text x="7.0526" y="12.9600"
textLength="1.1729" font-size="0.8000" lengthAdjust="spacingAndGlyphs"
text-anchor="middle" opacity="0" stroke-opacity="0">21</text>
</g>
<g class="stroked-text"><desc>21</desc>
<path d="M6.7847 13.1171
L6.7562 13.0886
" />
<path d="M6.7562 13.0886
L6.7276 13.0314
" />
<path d="M6.7276 13.0314
L6.7276 12.8886
" />
<path d="M6.7276 12.8886
L6.7562 12.8314
" />
<path d="M6.7562 12.8314
L6.7847 12.8029
" />
<path d="M6.7847 12.8029
L6.8419 12.7743
" />
<path d="M6.8419 12.7743
L6.8990 12.7743
" />
<path d="M6.8990 12.7743
L6.9847 12.8029
" />
<path d="M6.9847 12.8029
L7.3276 13.1457
" />
<path d="M7.3276 13.1457
L7.3276 12.7743
" />
<path d="M7.3276 12.2029
L7.3276 12.5457
" />
<path d="M7.3276 12.3743
L6.7276 12.3743
" />
<path d="M6.7276 12.3743
L6.8133 12.4314
" />
<path d="M6.8133 12.4314
L6.8704 12.4886
" />
<path d="M6.8704 12.4886
L6.8990 12.5457
" />
</g></g>
<g style="fill:none; 
stroke:#AFAFAF; stroke-width:0.0212; stroke-opacity:1; 
stroke-linecap:round; stroke-linejoin:round;">
<path d="M6.4526 12.3600
L6.4526 12.9600
" />
<path d="M6.4526 12.9600 A0.6000 0.6000 0.0 0 0 7.6526 12.9600" />
<path d="M7.6526 12.9600
L7.6526 12.3600
" />
<path d="M7.6526 12.3600 A0.6000 0.6000 0.0 0 0 6.4526 12.3600" />
</g>
<g style="fill:none; 
stroke:#AFAFAF; stroke-width:0.0500; stroke-opacity:1; 
stroke-linecap:round; stroke-linejoin:round;">
<g transform="rotate(-90.000000 7.0526 10.1200)">
<text x="7.0526" y="10.4200"
textLength="1.1729" font-size="0.8000" lengthAdjust="spacingAndGlyphs"
text-anchor="middle" opacity="0" stroke-opacity="0">22</text>
</g>
<g class="stroked-text"><desc>22</desc>
<path d="M6.7847 10.5771
L6.7562 10.5486
" />
<path d="M6.7562 10.5486
L6.7276 10.4914
" />
<path d="M6.7276 10.4914
L6.7276 10.3486
" />
<path d="M6.7276 10.3486
L6.7562 10.2914
" />
<path d="M6.7562 10.2914
L6.7847 10.2629
" />
<path d="M6.7847 10.2629
L6.8419 10.2343
" />
<path d="M6.8419 10.2343
L6.8990 10.2343
" />
<path d="M6.8990 10.2343
L6.9847 10.2629
" />
<path d="M6.9847 10.2629
L7.3276 10.6057
" />
<path d="M7.3276 10.6057
L7.3276 10.2343
" />
<path d="M6.7847 10.0057
L6.7562 9.9771
" />
<path d="M6.7562 9.9771
L6.7276 9.9200
" />
<path d="M6.7276 9.9200
L6.7276 9.7771
" />
<path d="M6.7276 9.7771
L6.7562 9.7200
" />
<path d="M6.7562 9.7200
L6.7847 9.6914
" />
<path d="M6.7847 9.6914
L6.8419 9.6629
" />
<path d="M6.8419 9.6629
L6.8990 9.6629
" />
<path d="M6.8990 9.6629
L6.9847 9.6914
" />
<path d="M6.9847 9.6914
L7.3276 10.0343
" />
<path d="M7.3276 10.0343
L7.3276 9.6629
" />
</g></g>
<g style="fill:none; 
stroke:#AFAFAF; stroke-width:0.0212; stroke-opacity:1; 
stroke-linecap:round; stroke-linejoin:round;">
<path d="M6.4526 9.8200
L6.4526 10.4200
" />
<path d="M6.4526 10.4200 A0.6000 0.6000 0.0 0 0 7.6526 10.4200" />
<path d="M7.6526 10.4200
L7.6526 9.8200
" />
<path d="M7.6526 9.8200 A0.6000 0.6000 0.0 0 0 6.4526 9.8200" />
</g>
<g style="fill:none; 
stroke:#AFAFAF; stroke-width:0.0500; stroke-opacity:1; 
stroke-linecap:round; stroke-linejoin:round;">
<g transform="rotate(-90.000000 7.0526 7.5800)">
<text x="7.0526" y="7.8800"
textLength="1.1729" font-size="0.8000" lengthAdjust="spacingAndGlyphs"
text-anchor="middle" opacity="0" stroke-opacity="0">23</text>
</g>
<g class="stroked-text"><desc>23</desc>
<path d="M6.7847 8.0371
L6.7562 8.0086
" />
<path d="M6.7562 8.0086
L6.7276 7.9514
" />
<path d="M6.7276 7.9514
L6.7276 7.8086
" />
<path d="M6.7276 7.8086
L6.7562 7.7514
" />
<path d="M6.7562 7.7514
L6.7847 7.7229
" />
<path d="M6.7847 7.7229
L6.8419 7.6943
" />
<path d="M6.8419 7.6943
L6.8990 7.6943
" />
<path d="M6.8990 7.6943
L6.9847 7.7229
" />
<path d="M6.9847 7.7229
L7.3276 8.0657
" />
<path d="M7.3276 8.0657
L7.3276 7.6943
" />
<path d="M6.7276 7.4943
L6.7276 7.1229
" />
<path d="M6.7276 7.1229
L6.9562 7.3229
" />
<path d="M6.9562 7.3229
L6.9562 7.2371
" />
<path d="M6.9562 7.2371
L6.9847 7.1800
" />
<path d="M6.9847 7.1800
L7.0133 7.1514
" />
<path d="M7.0133 7.1514
L7.0704 7.1229
" />
<path d="M7.0704 7.1229
L7.2133 7.1229
" />
<path d="M7.2133 7.1229
L7.2704 7.1514
" />
<path d="M7.2704 7.1514
L7.2990 7.1800
" />
<path d="M7.2990 7.1800
L7.3276 7.2371
" />
<path d="M7.3276 7.2371
L7.3276 7.4086
" />
<path d="M7.3276 7.4086
L7.2990 7.4657
" />
<path d="M7.2990 7.4657
L7.2704 7.4943
" />
</g></g>
<g style="fill:none; 
stroke:#AFAFAF; stroke-width:0.0212; stroke-opacity:1; 
stroke-linecap:round; stroke-linejoin:round;">
<path d="M6.4526 7.2800
L6.4526 7.8800
" />
<path d="M6.4526 7.8800 A0.6000 0.6000 0.0 0 0 7.6526 7.8800" />
<path d="M7.6526 7.8800
L7.6526 7.2800
" />
<path d="M7.6526 7.2800 A0.6000 0.6000 0.0 0 0 6.4526 7.2800" />
</g>
<g style="fill:none; 
stroke:#AFAFAF; stroke-width:0.0500; stroke-opacity:1; 
stroke-linecap:round; stroke-linejoin:round;">
<g transform="rotate(-90.000000 7.0526 5.0400)">
<text x="7.0526" y="5.3400"
textLength="1.1729" font-size="0.8000" lengthAdjust="spacingAndGlyphs"
text-anchor="middle" opacity="0" stroke-opacity="0">24</text>
</g>
<g class="stroked-text"><desc>24</desc>
<path d="M6.7847 5.4971
L6.7562 5.4686
" />
<path d="M6.7562 5.4686
L6.7276 5.4114
" />
<path d="M6.7276 5.4114
L6.7276 5.2686
" />
<path d="M6.7276 5.2686
L6.7562 5.2114
" />
<path d="M6.7562 5.2114
L6.7847 5.1829
" />
<path d="M6.7847 5.1829
L6.8419 5.1543
" />
<path d="M6.8419 5.1543
L6.8990 5.1543
" />
<path d="M6.8990 5.1543
L6.9847 5.1829
" />
<path d="M6.9847 5.1829
L7.3276 5.5257
" />
<path d="M7.3276 5.5257
L7.3276 5.1543
" />
<path d="M6.9276 4.6400
L7.3276 4.6400
" />
<path d="M6.6990 4.7829
L7.1276 4.9257
" />
<path d="M7.1276 4.9257
L7.1276 4.5543
" />
</g></g>
<g style="fill:none; 
stroke:#AFAFAF; stroke-width:0.0212; stroke-opacity:1; 
stroke-linecap:round; stroke-linejoin:round;">
<path d="M6.4526 4.7400
L6.4526 5.3400
" />
<path d="M6.4526 5.3400 A0.6000 0.6000 0.0 0 0 7.6526 5.3400" />
<path d="M7.6526 5.3400
L7.6526 4.7400
" />
<path d="M7.6526 4.7400 A0.6000 0.6000 0.0 0 0 6.4526 4.7400" />
</g>
<g style="fill:none; 
stroke:#585D84; stroke-width:0.0500; stroke-opacity:1; 
stroke-linecap:round; stroke-linejoin:round;">
<g transform="rotate(-90.000000 22.2926 5.0400)">
<text x="22.2926" y="5.3400"
textLength="0.6014" font-size="0.8000" lengthAdjust="spacingAndGlyphs"
text-anchor="middle" opacity="0" stroke-opacity="0">1</text>
</g>
<g class="stroked-text"><desc>1</desc>
<path d="M22.5676 4.8686
L22.5676 5.2114
" />
<path d="M22.5676 5.0400
L21.9676 5.0400
" />
<path d="M21.9676 5.0400
L22.0533 5.0971
" />
<path d="M22.0533 5.0971
L22.1104 5.1543
" />
<path d="M22.1104 5.1543
L22.1390 5.2114
" />
</g><path style="fill:none; 
stroke:#585D84; stroke-width:0.0212; stroke-opacity:1; 
stroke-linecap:round; stroke-linejoin:round;fill:none"
d="M 21.6926,4.2600
21.7018,4.2141
21.7278,4.1751
21.7667,4.1491
21.8126,4.1400
22.7726,4.1400
22.8185,4.1491
22.8575,4.1751
22.8835,4.2141
22.8926,4.2600
22.8926,5.8200
22.8835,5.8659
22.8575,5.9049
22.8185,5.9309
22.7726,5.9400
21.8126,5.9400
21.7667,5.9309
21.7278,5.9049
21.7018,5.8659
21.6926,5.8200
Z" /> 
</g>
<g style="fill:none; 
stroke:#585D84; stroke-width:0.0500; stroke-opacity:1; 
stroke-linecap:round; stroke-linejoin:round;">
<g transform="rotate(-90.000000 22.2926 7.5800)">
<text x="22.2926" y="7.8800"
textLength="0.6014" font-size="0.8000" lengthAdjust="spacingAndGlyphs"
text-anchor="middle" opacity="0" stroke-opacity="0">2</text>
</g>
<g class="stroked-text"><desc>2</desc>
<path d="M22.0247 7.7514
L21.9962 7.7229
" />
<path d="M21.9962 7.7229
L21.9676 7.6657
" />
<path d="M21.9676 7.6657
L21.9676 7.5229
" />
<path d="M21.9676 7.5229
L21.9962 7.4657
" />
<path d="M21.9962 7.4657
L22.0247 7.4371
" />
<path d="M22.0247 7.4371
L22.0819 7.4086
" />
<path d="M22.0819 7.4086
L22.1390 7.4086
" />
<path d="M22.1390 7.4086
L22.2247 7.4371
" />
<path d="M22.2247 7.4371
L22.5676 7.7800
" />
<path d="M22.5676 7.7800
L22.5676 7.4086
" />
</g></g>
<g style="fill:none; 
stroke:#585D84; stroke-width:0.0212; stroke-opacity:1; 
stroke-linecap:round; stroke-linejoin:round;">
<path d="M21.6926 7.2800
L21.6926 7.8800
" />
<path d="M21.6926 7.8800 A0.6000 0.6000 0.0 0 0 22.8926 7.8800" />
<path d="M22.8926 7.8800
L22.8926 7.2800
" />
<path d="M22.8926 7.2800 A0.6000 0.6000 0.0 0 0 21.6926 7.2800" />
</g>
<g style="fill:none; 
stroke:#585D84; stroke-width:0.0500; stroke-opacity:1; 
stroke-linecap:round; stroke-linejoin:round;">
<g transform="rotate(-90.000000 22.2926 10.1200)">
<text x="22.2926" y="10.4200"
textLength="0.6014" font-size="0.8000" lengthAdjust="spacingAndGlyphs"
text-anchor="middle" opacity="0" stroke-opacity="0">3</text>
</g>
<g class="stroked-text"><desc>3</desc>
<path d="M21.9676 10.3200
L21.9676 9.9486
" />
<path d="M21.9676 9.9486
L22.1962 10.1486
" />
<path d="M22.1962 10.1486
L22.1962 10.0629
" />
<path d="M22.1962 10.0629
L22.2247 10.0057
" />
<path d="M22.2247 10.0057
L22.2533 9.9771
" />
<path d="M22.2533 9.9771
L22.3104 9.9486
" />
<path d="M22.3104 9.9486
L22.4533 9.9486
" />
<path d="M22.4533 9.9486
L22.5104 9.9771
" />
<path d="M22.5104 9.9771
L22.5390 10.0057
" />
<path d="M22.5390 10.0057
L22.5676 10.0629
" />
<path d="M22.5676 10.0629
L22.5676 10.2343
" />
<path d="M22.5676 10.2343
L22.5390 10.2914
" />
<path d="M22.5390 10.2914
L22.5104 10.3200
" />
</g></g>
<g style="fill:none; 
stroke:#585D84; stroke-width:0.0212; stroke-opacity:1; 
stroke-linecap:round; stroke-linejoin:round;">
<path d="M21.6926 9.8200
L21.6926 10.4200
" />
<path d="M21.6926 10.4200 A0.6000 0.6000 0.0 0 0 22.8926 10.4200" />
<path d="M22.8926 10.4200
L22.8926 9.8200
" />
<path d="M22.8926 9.8200 A0.6000 0.6000 0.0 0 0 21.6926 9.8200" />
</g>
<g style="fill:none; 
stroke:#585D84; stroke-width:0.0500; stroke-opacity:1; 
stroke-linecap:round; stroke-linejoin:round;">
<g transform="rotate(-90.000000 22.2926 12.6600)">
<text x="22.2926" y="12.9600"
textLength="0.6014" font-size="0.8000" lengthAdjust="spacingAndGlyphs"
text-anchor="middle" opacity="0" stroke-opacity="0">4</text>
</g>
<g class="stroked-text"><desc>4</desc>
<path d="M22.1676 12.5457
L22.5676 12.5457
" />
<path d="M21.9390 12.6886
L22.3676 12.8314
" />
<path d="M22.3676 12.8314
L22.3676 12.4600
" />
</g></g>
<g style="fill:none; 
stroke:#585D84; stroke-width:0.0212; stroke-opacity:1; 
stroke-linecap:round; stroke-linejoin:round;">
<path d="M21.6926 12.3600
L21.6926 12.9600
" />
<path d="M21.6926 12.9600 A0.6000 0.6000 0.0 0 0 22.8926 12.9600" />
<path d="M22.8926 12.9600
L22.8926 12.3600
" />
<path d="M22.8926 12.3600 A0.6000 0.6000 0.0 0 0 21.6926 12.3600" />
</g>
<g style="fill:none; 
stroke:#585D84; stroke-width:0.0500; stroke-opacity:1; 
stroke-linecap:round; stroke-linejoin:round;">
<g transform="rotate(-90.000000 22.2926 15.2000)">
<text x="22.2926" y="15.5000"
textLength="0.6014" font-size="0.8000" lengthAdjust="spacingAndGlyphs"
text-anchor="middle" opacity="0" stroke-opacity="0">5</text>
</g>
<g class="stroked-text"><desc>5</desc>
<path d="M21.9676 15.0571
L21.9676 15.3429
" />
<path d="M21.9676 15.3429
L22.2533 15.3714
" />
<path d="M22.2533 15.3714
L22.2247 15.3429
" />
<path d="M22.2247 15.3429
L22.1962 15.2857
" />
<path d="M22.1962 15.2857
L22.1962 15.1429
" />
<path d="M22.1962 15.1429
L22.2247 15.0857
" />
<path d="M22.2247 15.0857
L22.2533 15.0571
" />
<path d="M22.2533 15.0571
L22.3104 15.0286
" />
<path d="M22.3104 15.0286
L22.4533 15.0286
" />
<path d="M22.4533 15.0286
L22.5104 15.0571
" />
<path d="M22.5104 15.0571
L22.5390 15.0857
" />
<path d="M22.5390 15.0857
L22.5676 15.1429
" />
<path d="M22.5676 15.1429
L22.5676 15.2857
" />
<path d="M22.5676 15.2857
L22.5390 15.3429
" />
<path d="M22.5390 15.3429
L22.5104 15.3714
" />
</g></g>
<g style="fill:none; 
stroke:#585D84; stroke-width:0.0212; stroke-opacity:1; 
stroke-linecap:round; stroke-linejoin:round;">
<path d="M21.6926 14.9000
L21.6926 15.5000
" />
<path d="M21.6926 15.5000 A0.6000 0.6000 0.0 0 0 22.8926 15.5000" />
<path d="M22.8926 15.5000
L22.8926 14.9000
" />
<path d="M22.8926 14.9000 A0.6000 0.6000 0.0 0 0 21.6926 14.9000" />
</g>
<g style="fill:none; 
stroke:#585D84; stroke-width:0.0500; stroke-opacity:1; 
stroke-linecap:round; stroke-linejoin:round;">
<g transform="rotate(-90.000000 22.2926 17.7400)">
<text x="22.2926" y="18.0400"
textLength="0.6014" font-size="0.8000" lengthAdjust="spacingAndGlyphs"
text-anchor="middle" opacity="0" stroke-opacity="0">6</text>
</g>
<g class="stroked-text"><desc>6</desc>
<path d="M21.9676 17.6257
L21.9676 17.7400
" />
<path d="M21.9676 17.7400
L21.9962 17.7971
" />
<path d="M21.9962 17.7971
L22.0247 17.8257
" />
<path d="M22.0247 17.8257
L22.1104 17.8829
" />
<path d="M22.1104 17.8829
L22.2247 17.9114
" />
<path d="M22.2247 17.9114
L22.4533 17.9114
" />
<path d="M22.4533 17.9114
L22.5104 17.8829
" />
<path d="M22.5104 17.8829
L22.5390 17.8543
" />
<path d="M22.5390 17.8543
L22.5676 17.7971
" />
<path d="M22.5676 17.7971
L22.5676 17.6829
" />
<path d="M22.5676 17.6829
L22.5390 17.6257
" />
<path d="M22.5390 17.6257
L22.5104 17.5971
" />
<path d="M22.5104 17.5971
L22.4533 17.5686
" />
<path d="M22.4533 17.5686
L22.3104 17.5686
" />
<path d="M22.3104 17.5686
L22.2533 17.5971
" />
<path d="M22.2533 17.5971
L22.2247 17.6257
" />
<path d="M22.2247 17.6257
L22.1962 17.6829
" />
<path d="M22.1962 17.6829
L22.1962 17.7971
" />
<path d="M22.1962 17.7971
L22.2247 17.8543
" />
<path d="M22.2247 17.8543
L22.2533 17.8829
" />
<path d="M22.2533 17.8829
L22.3104 17.9114
" />
</g></g>
<g style="fill:none; 
stroke:#585D84; stroke-width:0.0212; stroke-opacity:1; 
stroke-linecap:round; stroke-linejoin:round;">
<path d="M21.6926 17.4400
L21.6926 18.0400
" />
<path d="M21.6926 18.0400 A0.6000 0.6000 0.0 0 0 22.8926 18.0400" />
<path d="M22.8926 18.0400
L22.8926 17.4400
" />
<path d="M22.8926 17.4400 A0.6000 0.6000 0.0 0 0 21.6926 17.4400" />
</g>
<g style="fill:none; 
stroke:#585D84; stroke-width:0.0500; stroke-opacity:1; 
stroke-linecap:round; stroke-linejoin:round;">
<g transform="rotate(-90.000000 22.2926 20.2800)">
<text x="22.2926" y="20.5800"
textLength="0.6014" font-size="0.8000" lengthAdjust="spacingAndGlyphs"
text-anchor="middle" opacity="0" stroke-opacity="0">7</text>
</g>
<g class="stroked-text"><desc>7</desc>
<path d="M21.9676 20.4800
L21.9676 20.0800
" />
<path d="M21.9676 20.0800
L22.5676 20.3371
" />
</g></g>
<g style="fill:none; 
stroke:#585D84; stroke-width:0.0212; stroke-opacity:1; 
stroke-linecap:round; stroke-linejoin:round;">
<path d="M21.6926 19.9800
L21.6926 20.5800
" />
<path d="M21.6926 20.5800 A0.6000 0.6000 0.0 0 0 22.8926 20.5800" />
<path d="M22.8926 20.5800
L22.8926 19.9800
" />
<path d="M22.8926 19.9800 A0.6000 0.6000 0.0 0 0 21.6926 19.9800" />
</g>
<g style="fill:none; 
stroke:#585D84; stroke-width:0.0500; stroke-opacity:1; 
stroke-linecap:round; stroke-linejoin:round;">
<g transform="rotate(-90.000000 22.2926 22.8200)">
<text x="22.2926" y="23.1200"
textLength="0.6014" font-size="0.8000" lengthAdjust="spacingAndGlyphs"
text-anchor="middle" opacity="0" stroke-opacity="0">8</text>
</g>
<g class="stroked-text"><desc>8</desc>
<path d="M22.2247 22.8771
L22.1962 22.9343
" />
<path d="M22.1962 22.9343
L22.1676 22.9629
" />
<path d="M22.1676 22.9629
L22.1104 22.9914
" />
<path d="M22.1104 22.9914
L22.0819 22.9914
" />
<path d="M22.0819 22.9914
L22.0247 22.9629
" />
<path d="M22.0247 22.9629
L21.9962 22.9343
" />
<path d="M21.9962 22.9343
L21.9676 22.8771
" />
<path d="M21.9676 22.8771
L21.9676 22.7629
" />
<path d="M21.9676 22.7629
L21.9962 22.7057
" />
<path d="M21.9962 22.7057
L22.0247 22.6771
" />
<path d="M22.0247 22.6771
L22.0819 22.6486
" />
<path d="M22.0819 22.6486
L22.1104 22.6486
" />
<path d="M22.1104 22.6486
L22.1676 22.6771
" />
<path d="M22.1676 22.6771
L22.1962 22.7057
" />
<path d="M22.1962 22.7057
L22.2247 22.7629
" />
<path d="M22.2247 22.7629
L22.2247 22.8771
" />
<path d="M22.2247 22.8771
L22.2533 22.9343
" />
<path d="M22.2533 22.9343
L22.2819 22.9629
" />
<path d="M22.2819 22.9629
L22.3390 22.9914
" />
<path d="M22.3390 22.9914
L22.4533 22.9914
" />
<path d="M22.4533 22.9914
L22.5104 22.9629
" />
<path d="M22.5104 22.9629
L22.5390 22.9343
" />
<path d="M22.5390 22.9343
L22.5676 22.8771
" />
<path d="M22.5676 22.8771
L22.5676 22.7629
" />
<path d="M22.5676 22.7629
L22.5390 22.7057
" />
<path d="M22.5390 22.7057
L22.5104 22.6771
" />
<path d="M22.5104 22.6771
L22.4533 22.6486
" />
<path d="M22.4533 22.6486
L22.3390 22.6486
" />
<path d="M22.3390 22.6486
L22.2819 22.6771
" />
<path d="M22.2819 22.6771
L22.2533 22.7057
" />
<path d="M22.2533 22.7057
L22.2247 22.7629
" />
</g></g>
<g style="fill:none; 
stroke:#585D84; stroke-width:0.0212; stroke-opacity:1; 
stroke-linecap:round; stroke-linejoin:round;">
<path d="M21.6926 22.5200
L21.6926 23.1200
" />
<path d="M21.6926 23.1200 A0.6000 0.6000 0.0 0 0 22.8926 23.1200" />
<path d="M22.8926 23.1200
L22.8926 22.5200
" />
<path d="M22.8926 22.5200 A0.6000 0.6000 0.0 0 0 21.6926 22.5200" />
</g>
<g style="fill:none; 
stroke:#585D84; stroke-width:0.0500; stroke-opacity:1; 
stroke-linecap:round; stroke-linejoin:round;">
<g transform="rotate(-90.000000 22.2926 25.3600)">
<text x="22.2926" y="25.6600"
textLength="0.6014" font-size="0.8000" lengthAdjust="spacingAndGlyphs"
text-anchor="middle" opacity="0" stroke-opacity="0">9</text>
</g>
<g class="stroked-text"><desc>9</desc>
<path d="M22.5676 25.4743
L22.5676 25.3600
" />
<path d="M22.5676 25.3600
L22.5390 25.3029
" />
<path d="M22.5390 25.3029
L22.5104 25.2743
" />
<path d="M22.5104 25.2743
L22.4247 25.2171
" />
<path d="M22.4247 25.2171
L22.3104 25.1886
" />
<path d="M22.3104 25.1886
L22.0819 25.1886
" />
<path d="M22.0819 25.1886
L22.0247 25.2171
" />
<path d="M22.0247 25.2171
L21.9962 25.2457
" />
<path d="M21.9962 25.2457
L21.9676 25.3029
" />
<path d="M21.9676 25.3029
L21.9676 25.4171
" />
<path d="M21.9676 25.4171
L21.9962 25.4743
" />
<path d="M21.9962 25.4743
L22.0247 25.5029
" />
<path d="M22.0247 25.5029
L22.0819 25.5314
" />
<path d="M22.0819 25.5314
L22.2247 25.5314
" />
<path d="M22.2247 25.5314
L22.2819 25.5029
" />
<path d="M22.2819 25.5029
L22.3104 25.4743
" />
<path d="M22.3104 25.4743
L22.3390 25.4171
" />
<path d="M22.3390 25.4171
L22.3390 25.3029
" />
<path d="M22.3390 25.3029
L22.3104 25.2457
" />
<path d="M22.3104 25.2457
L22.2819 25.2171
" />
<path d="M22.2819 25.2171
L22.2247 25.1886
" />
</g></g>
<g style="fill:none; 
stroke:#585D84; stroke-width:0.0212; stroke-opacity:1; 
stroke-linecap:round; stroke-linejoin:round;">
<path d="M21.6926 25.0600
L21.6926 25.6600
" />
<path d="M21.6926 25.6600 A0.6000 0.6000 0.0 0 0 22.8926 25.6600" />
<path d="M22.8926 25.6600
L22.8926 25.0600
" />
<path d="M22.8926 25.0600 A0.6000 0.6000 0.0 0 0 21.6926 25.0600" />
</g>
<g style="fill:none; 
stroke:#585D84; stroke-width:0.0500; stroke-opacity:1; 
stroke-linecap:round; stroke-linejoin:round;">
<g transform="rotate(-90.000000 22.2926 27.9000)">
<text x="22.2926" y="28.2000"
textLength="1.1729" font-size="0.8000" lengthAdjust="spacingAndGlyphs"
text-anchor="middle" opacity="0" stroke-opacity="0">10</text>
</g>
<g class="stroked-text"><desc>10</desc>
<path d="M22.5676 28.0143
L22.5676 28.3571
" />
<path d="M22.5676 28.1857
L21.9676 28.1857
" />
<path d="M21.9676 28.1857
L22.0533 28.2429
" />
<path d="M22.0533 28.2429
L22.1104 28.3000
" />
<path d="M22.1104 28.3000
L22.1390 28.3571
" />
<path d="M21.9676 27.6429
L21.9676 27.5857
" />
<path d="M21.9676 27.5857
L21.9962 27.5286
" />
<path d="M21.9962 27.5286
L22.0247 27.5000
" />
<path d="M22.0247 27.5000
L22.0819 27.4714
" />
<path d="M22.0819 27.4714
L22.1962 27.4429
" />
<path d="M22.1962 27.4429
L22.3390 27.4429
" />
<path d="M22.3390 27.4429
L22.4533 27.4714
" />
<path d="M22.4533 27.4714
L22.5104 27.5000
" />
<path d="M22.5104 27.5000
L22.5390 27.5286
" />
<path d="M22.5390 27.5286
L22.5676 27.5857
" />
<path d="M22.5676 27.5857
L22.5676 27.6429
" />
<path d="M22.5676 27.6429
L22.5390 27.7000
" />
<path d="M22.5390 27.7000
L22.5104 27.7286
" />
<path d="M22.5104 27.7286
L22.4533 27.7571
" />
<path d="M22.4533 27.7571
L22.3390 27.7857
" />
<path d="M22.3390 27.7857
L22.1962 27.7857
" />
<path d="M22.1962 27.7857
L22.0819 27.7571
" />
<path d="M22.0819 27.7571
L22.0247 27.7286
" />
<path d="M22.0247 27.7286
L21.9962 27.7000
" />
<path d="M21.9962 27.7000
L21.9676 27.6429
" />
</g></g>
<g style="fill:none; 
stroke:#585D84; stroke-width:0.0212; stroke-opacity:1; 
stroke-linecap:round; stroke-linejoin:round;">
<path d="M21.6926 27.6000
L21.6926 28.2000
" />
<path d="M21.6926 28.2000 A0.6000 0.6000 0.0 0 0 22.8926 28.2000" />
<path d="M22.8926 28.2000
L22.8926 27.6000
" />
<path d="M22.8926 27.6000 A0.6000 0.6000 0.0 0 0 21.6926 27.6000" />
</g>
<g style="fill:none; 
stroke:#585D84; stroke-width:0.0500; stroke-opacity:1; 
stroke-linecap:round; stroke-linejoin:round;">
<g transform="rotate(-90.000000 22.2926 30.4400)">
<text x="22.2926" y="30.7400"
textLength="1.1729" font-size="0.8000" lengthAdjust="spacingAndGlyphs"
text-anchor="middle" opacity="0" stroke-opacity="0">11</text>
</g>
<g class="stroked-text"><desc>11</desc>
<path d="M22.5676 30.5543
L22.5676 30.8971
" />
<path d="M22.5676 30.7257
L21.9676 30.7257
" />
<path d="M21.9676 30.7257
L22.0533 30.7829
" />
<path d="M22.0533 30.7829
L22.1104 30.8400
" />
<path d="M22.1104 30.8400
L22.1390 30.8971
" />
<path d="M22.5676 29.9829
L22.5676 30.3257
" />
<path d="M22.5676 30.1543
L21.9676 30.1543
" />
<path d="M21.9676 30.1543
L22.0533 30.2114
" />
<path d="M22.0533 30.2114
L22.1104 30.2686
" />
<path d="M22.1104 30.2686
L22.1390 30.3257
" />
</g></g>
<g style="fill:none; 
stroke:#585D84; stroke-width:0.0212; stroke-opacity:1; 
stroke-linecap:round; stroke-linejoin:round;">
<path d="M21.6926 30.1400
L21.6926 30.7400
" />
<path d="M21.6926 30.7400 A0.6000 0.6000 0.0 0 0 22.8926 30.7400" />
<path d="M22.8926 30.7400
L22.8926 30.1400
" />
<path d="M22.8926 30.1400 A0.6000 0.6000 0.0 0 0 21.6926 30.1400" />
</g>
<g style="fill:none; 
stroke:#585D84; stroke-width:0.0500; stroke-opacity:1; 
stroke-linecap:round; stroke-linejoin:round;">
<g transform="rotate(-90.000000 22.2926 32.9800)">
<text x="22.2926" y="33.2800"
textLength="1.1729" font-size="0.8000" lengthAdjust="spacingAndGlyphs"
text-anchor="middle" opacity="0" stroke-opacity="0">12</text>
</g>
<g class="stroked-text"><desc>12</desc>
<path d="M22.5676 33.0943
L22.5676 33.4371
" />
<path d="M22.5676 33.2657
L21.9676 33.2657
" />
<path d="M21.9676 33.2657
L22.0533 33.3229
" />
<path d="M22.0533 33.3229
L22.1104 33.3800
" />
<path d="M22.1104 33.3800
L22.1390 33.4371
" />
<path d="M22.0247 32.8657
L21.9962 32.8371
" />
<path d="M21.9962 32.8371
L21.9676 32.7800
" />
<path d="M21.9676 32.7800
L21.9676 32.6371
" />
<path d="M21.9676 32.6371
L21.9962 32.5800
" />
<path d="M21.9962 32.5800
L22.0247 32.5514
" />
<path d="M22.0247 32.5514
L22.0819 32.5229
" />
<path d="M22.0819 32.5229
L22.1390 32.5229
" />
<path d="M22.1390 32.5229
L22.2247 32.5514
" />
<path d="M22.2247 32.5514
L22.5676 32.8943
" />
<path d="M22.5676 32.8943
L22.5676 32.5229
" />
</g></g>
<g style="fill:none; 
stroke:#585D84; stroke-width:0.0212; stroke-opacity:1; 
stroke-linecap:round; stroke-linejoin:round;">
<path d="M21.6926 32.6800
L21.6926 33.2800
" />
<path d="M21.6926 33.2800 A0.6000 0.6000 0.0 0 0 22.8926 33.2800" />
<path d="M22.8926 33.2800
L22.8926 32.6800
" />
<path d="M22.8926 32.6800 A0.6000 0.6000 0.0 0 0 21.6926 32.6800" />
</g>
<g style="fill:none; 
stroke:#585D84; stroke-width:0.0500; stroke-opacity:1; 
stroke-linecap:round; stroke-linejoin:round;">
<g transform="rotate(-90.000000 7.0526 32.9800)">
<text x="7.0526" y="33.2800"
textLength="1.1729" font-size="0.8000" lengthAdjust="spacingAndGlyphs"
text-anchor="middle" opacity="0" stroke-opacity="0">13</text>
</g>
<g class="stroked-text"><desc>13</desc>
<path d="M7.3276 33.0943
L7.3276 33.4371
" />
<path d="M7.3276 33.2657
L6.7276 33.2657
" />
<path d="M6.7276 33.2657
L6.8133 33.3229
" />
<path d="M6.8133 33.3229
L6.8704 33.3800
" />
<path d="M6.8704 33.3800
L6.8990 33.4371
" />
<path d="M6.7276 32.8943
L6.7276 32.5229
" />
<path d="M6.7276 32.5229
L6.9562 32.7229
" />
<path d="M6.9562 32.7229
L6.9562 32.6371
" />
<path d="M6.9562 32.6371
L6.9847 32.5800
" />
<path d="M6.9847 32.5800
L7.0133 32.5514
" />
<path d="M7.0133 32.5514
L7.0704 32.5229
" />
<path d="M7.0704 32.5229
L7.2133 32.5229
" />
<path d="M7.2133 32.5229
L7.2704 32.5514
" />
<path d="M7.2704 32.5514
L7.2990 32.5800
" />
<path d="M7.2990 32.5800
L7.3276 32.6371
" />
<path d="M7.3276 32.6371
L7.3276 32.8086
" />
<path d="M7.3276 32.8086
L7.2990 32.8657
" />
<path d="M7.2990 32.8657
L7.2704 32.8943
" />
</g></g>
<g style="fill:none; 
stroke:#585D84; stroke-width:0.0212; stroke-opacity:1; 
stroke-linecap:round; stroke-linejoin:round;">
<path d="M6.4526 32.6800
L6.4526 33.2800
" />
<path d="M6.4526 33.2800 A0.6000 0.6000 0.0 0 0 7.6526 33.2800" />
<path d="M7.6526 33.2800
L7.6526 32.6800
" />
<path d="M7.6526 32.6800 A0.6000 0.6000 0.0 0 0 6.4526 32.6800" />
</g>
<g style="fill:none; 
stroke:#585D84; stroke-width:0.0500; stroke-opacity:1; 
stroke-linecap:round; stroke-linejoin:round;">
<g transform="rotate(-90.000000 7.0526 30.4400)">
<text x="7.0526" y="30.7400"
textLength="1.1729" font-size="0.8000" lengthAdjust="spacingAndGlyphs"
text-anchor="middle" opacity="0" stroke-opacity="0">14</text>
</g>
<g class="stroked-text"><desc>14</desc>
<path d="M7.3276 30.5543
L7.3276 30.8971
" />
<path d="M7.3276 30.7257
L6.7276 30.7257
" />
<path d="M6.7276 30.7257
L6.8133 30.7829
" />
<path d="M6.8133 30.7829
L6.8704 30.8400
" />
<path d="M6.8704 30.8400
L6.8990 30.8971
" />
<path d="M6.9276 30.0400
L7.3276 30.0400
" />
<path d="M6.6990 30.1829
L7.1276 30.3257
" />
<path d="M7.1276 30.3257
L7.1276 29.9543
" />
</g></g>
<g style="fill:none; 
stroke:#585D84; stroke-width:0.0212; stroke-opacity:1; 
stroke-linecap:round; stroke-linejoin:round;">
<path d="M6.4526 30.1400
L6.4526 30.7400
" />
<path d="M6.4526 30.7400 A0.6000 0.6000 0.0 0 0 7.6526 30.7400" />
<path d="M7.6526 30.7400
L7.6526 30.1400
" />
<path d="M7.6526 30.1400 A0.6000 0.6000 0.0 0 0 6.4526 30.1400" />
</g>
<g style="fill:none; 
stroke:#585D84; stroke-width:0.0500; stroke-opacity:1; 
stroke-linecap:round; stroke-linejoin:round;">
<g transform="rotate(-90.000000 7.0526 27.9000)">
<text x="7.0526" y="28.2000"
textLength="1.1729" font-size="0.8000" lengthAdjust="spacingAndGlyphs"
text-anchor="middle" opacity="0" stroke-opacity="0">15</text>
</g>
<g class="stroked-text"><desc>15</desc>
<path d="M7.3276 28.0143
L7.3276 28.3571
" />
<path d="M7.3276 28.1857
L6.7276 28.1857
" />
<path d="M6.7276 28.1857
L6.8133 28.2429
" />
<path d="M6.8133 28.2429
L6.8704 28.3000
" />
<path d="M6.8704 28.3000
L6.8990 28.3571
" />
<path d="M6.7276 27.4714
L6.7276 27.7571
" />
<path d="M6.7276 27.7571
L7.0133 27.7857
" />
<path d="M7.0133 27.7857
L6.9847 27.7571
" />
<path d="M6.9847 27.7571
L6.9562 27.7000
" />
<path d="M6.9562 27.7000
L6.9562 27.5571
" />
<path d="M6.9562 27.5571
L6.9847 27.5000
" />
<path d="M6.9847 27.5000
L7.0133 27.4714
" />
<path d="M7.0133 27.4714
L7.0704 27.4429
" />
<path d="M7.0704 27.4429
L7.2133 27.4429
" />
<path d="M7.2133 27.4429
L7.2704 27.4714
" />
<path d="M7.2704 27.4714
L7.2990 27.5000
" />
<path d="M7.2990 27.5000
L7.3276 27.5571
" />
<path d="M7.3276 27.5571
L7.3276 27.7000
" />
<path d="M7.3276 27.7000
L7.2990 27.7571
" />
<path d="M7.2990 27.7571
L7.2704 27.7857
" />
</g></g>
<g style="fill:none; 
stroke:#585D84; stroke-width:0.0212; stroke-opacity:1; 
stroke-linecap:round; stroke-linejoin:round;">
<path d="M6.4526 27.6000
L6.4526 28.2000
" />
<path d="M6.4526 28.2000 A0.6000 0.6000 0.0 0 0 7.6526 28.2000" />
<path d="M7.6526 28.2000
L7.6526 27.6000
" />
<path d="M7.6526 27.6000 A0.6000 0.6000 0.0 0 0 6.4526 27.6000" />
</g>
<g style="fill:none; 
stroke:#585D84; stroke-width:0.0500; stroke-opacity:1; 
stroke-linecap:round; stroke-linejoin:round;">
<g transform="rotate(-90.000000 7.0526 25.3600)">
<text x="7.0526" y="25.6600"
textLength="1.1729" font-size="0.8000" lengthAdjust="spacingAndGlyphs"
text-anchor="middle" opacity="0" stroke-opacity="0">16</text>
</g>
<g class="stroked-text"><desc>16</desc>
<path d="M7.3276 25.4743
L7.3276 25.8171
" />
<path d="M7.3276 25.6457
L6.7276 25.6457
" />
<path d="M6.7276 25.6457
L6.8133 25.7029
" />
<path d="M6.8133 25.7029
L6.8704 25.7600
" />
<path d="M6.8704 25.7600
L6.8990 25.8171
" />
<path d="M6.7276 24.9600
L6.7276 25.0743
" />
<path d="M6.7276 25.0743
L6.7562 25.1314
" />
<path d="M6.7562 25.1314
L6.7847 25.1600
" />
<path d="M6.7847 25.1600
L6.8704 25.2171
" />
<path d="M6.8704 25.2171
L6.9847 25.2457
" />
<path d="M6.9847 25.2457
L7.2133 25.2457
" />
<path d="M7.2133 25.2457
L7.2704 25.2171
" />
<path d="M7.2704 25.2171
L7.2990 25.1886
" />
<path d="M7.2990 25.1886
L7.3276 25.1314
" />
<path d="M7.3276 25.1314
L7.3276 25.0171
" />
<path d="M7.3276 25.0171
L7.2990 24.9600
" />
<path d="M7.2990 24.9600
L7.2704 24.9314
" />
<path d="M7.2704 24.9314
L7.2133 24.9029
" />
<path d="M7.2133 24.9029
L7.0704 24.9029
" />
<path d="M7.0704 24.9029
L7.0133 24.9314
" />
<path d="M7.0133 24.9314
L6.9847 24.9600
" />
<path d="M6.9847 24.9600
L6.9562 25.0171
" />
<path d="M6.9562 25.0171
L6.9562 25.1314
" />
<path d="M6.9562 25.1314
L6.9847 25.1886
" />
<path d="M6.9847 25.1886
L7.0133 25.2171
" />
<path d="M7.0133 25.2171
L7.0704 25.2457
" />
</g></g>
<g style="fill:none; 
stroke:#585D84; stroke-width:0.0212; stroke-opacity:1; 
stroke-linecap:round; stroke-linejoin:round;">
<path d="M6.4526 25.0600
L6.4526 25.6600
" />
<path d="M6.4526 25.6600 A0.6000 0.6000 0.0 0 0 7.6526 25.6600" />
<path d="M7.6526 25.6600
L7.6526 25.0600
" />
<path d="M7.6526 25.0600 A0.6000 0.6000 0.0 0 0 6.4526 25.0600" />
</g>
<g style="fill:none; 
stroke:#585D84; stroke-width:0.0500; stroke-opacity:1; 
stroke-linecap:round; stroke-linejoin:round;">
<g transform="rotate(-90.000000 7.0526 22.8200)">
<text x="7.0526" y="23.1200"
textLength="1.1729" font-size="0.8000" lengthAdjust="spacingAndGlyphs"
text-anchor="middle" opacity="0" stroke-opacity="0">17</text>
</g>
<g class="stroked-text"><desc>17</desc>
<path d="M7.3276 22.9343
L7.3276 23.2771
" />
<path d="M7.3276 23.1057
L6.7276 23.1057
" />
<path d="M6.7276 23.1057
L6.8133 23.1629
" />
<path d="M6.8133 23.1629
L6.8704 23.2200
" />
<path d="M6.8704 23.2200
L6.8990 23.2771
" />
<path d="M6.7276 22.7343
L6.7276 22.3343
" />
<path d="M6.7276 22.3343
L7.3276 22.5914
" />
</g></g>
<g style="fill:none; 
stroke:#585D84; stroke-width:0.0212; stroke-opacity:1; 
stroke-linecap:round; stroke-linejoin:round;">
<path d="M6.4526 22.5200
L6.4526 23.1200
" />
<path d="M6.4526 23.1200 A0.6000 0.6000 0.0 0 0 7.6526 23.1200" />
<path d="M7.6526 23.1200
L7.6526 22.5200
" />
<path d="M7.6526 22.5200 A0.6000 0.6000 0.0 0 0 6.4526 22.5200" />
</g>
<g style="fill:none; 
stroke:#585D84; stroke-width:0.0500; stroke-opacity:1; 
stroke-linecap:round; stroke-linejoin:round;">
<g transform="rotate(-90.000000 7.0526 20.2800)">
<text x="7.0526" y="20.5800"
textLength="1.1729" font-size="0.8000" lengthAdjust="spacingAndGlyphs"
text-anchor="middle" opacity="0" stroke-opacity="0">18</text>
</g>
<g class="stroked-text"><desc>18</desc>
<path d="M7.3276 20.3943
L7.3276 20.7371
" />
<path d="M7.3276 20.5657
L6.7276 20.5657
" />
<path d="M6.7276 20.5657
L6.8133 20.6229
" />
<path d="M6.8133 20.6229
L6.8704 20.6800
" />
<path d="M6.8704 20.6800
L6.8990 20.7371
" />
<path d="M6.9847 20.0514
L6.9562 20.1086
" />
<path d="M6.9562 20.1086
L6.9276 20.1371
" />
<path d="M6.9276 20.1371
L6.8704 20.1657
" />
<path d="M6.8704 20.1657
L6.8419 20.1657
" />
<path d="M6.8419 20.1657
L6.7847 20.1371
" />
<path d="M6.7847 20.1371
L6.7562 20.1086
" />
<path d="M6.7562 20.1086
L6.7276 20.0514
" />
<path d="M6.7276 20.0514
L6.7276 19.9371
" />
<path d="M6.7276 19.9371
L6.7562 19.8800
" />
<path d="M6.7562 19.8800
L6.7847 19.8514
" />
<path d="M6.7847 19.8514
L6.8419 19.8229
" />
<path d="M6.8419 19.8229
L6.8704 19.8229
" />
<path d="M6.8704 19.8229
L6.9276 19.8514
" />
<path d="M6.9276 19.8514
L6.9562 19.8800
" />
<path d="M6.9562 19.8800
L6.9847 19.9371
" />
<path d="M6.9847 19.9371
L6.9847 20.0514
" />
<path d="M6.9847 20.0514
L7.0133 20.1086
" />
<path d="M7.0133 20.1086
L7.0419 20.1371
" />
<path d="M7.0419 20.1371
L7.0990 20.1657
" />
<path d="M7.0990 20.1657
L7.2133 20.1657
" />
<path d="M7.2133 20.1657
L7.2704 20.1371
" />
<path d="M7.2704 20.1371
L7.2990 20.1086
" />
<path d="M7.2990 20.1086
L7.3276 20.0514
" />
<path d="M7.3276 20.0514
L7.3276 19.9371
" />
<path d="M7.3276 19.9371
L7.2990 19.8800
" />
<path d="M7.2990 19.8800
L7.2704 19.8514
" />
<path d="M7.2704 19.8514
L7.2133 19.8229
" />
<path d="M7.2133 19.8229
L7.0990 19.8229
" />
<path d="M7.0990 19.8229
L7.0419 19.8514
" />
<path d="M7.0419 19.8514
L7.0133 19.8800
" />
<path d="M7.0133 19.8800
L6.9847 19.9371
" />
</g></g>
<g style="fill:none; 
stroke:#585D84; stroke-width:0.0212; stroke-opacity:1; 
stroke-linecap:round; stroke-linejoin:round;">
<path d="M6.4526 19.9800
L6.4526 20.5800
" />
<path d="M6.4526 20.5800 A0.6000 0.6000 0.0 0 0 7.6526 20.5800" />
<path d="M7.6526 20.5800
L7.6526 19.9800
" />
<path d="M7.6526 19.9800 A0.6000 0.6000 0.0 0 0 6.4526 19.9800" />
</g>
<g style="fill:none; 
stroke:#585D84; stroke-width:0.0500; stroke-opacity:1; 
stroke-linecap:round; stroke-linejoin:round;">
<g transform="rotate(-90.000000 7.0526 17.7400)">
<text x="7.0526" y="18.0400"
textLength="1.1729" font-size="0.8000" lengthAdjust="spacingAndGlyphs"
text-anchor="middle" opacity="0" stroke-opacity="0">19</text>
</g>
<g class="stroked-text"><desc>19</desc>
<path d="M7.3276 17.8543
L7.3276 18.1971
" />
<path d="M7.3276 18.0257
L6.7276 18.0257
" />
<path d="M6.7276 18.0257
L6.8133 18.0829
" />
<path d="M6.8133 18.0829
L6.8704 18.1400
" />
<path d="M6.8704 18.1400
L6.8990 18.1971
" />
<path d="M7.3276 17.5686
L7.3276 17.4543
" />
<path d="M7.3276 17.4543
L7.2990 17.3971
" />
<path d="M7.2990 17.3971
L7.2704 17.3686
" />
<path d="M7.2704 17.3686
L7.1847 17.3114
" />
<path d="M7.1847 17.3114
L7.0704 17.2829
" />
<path d="M7.0704 17.2829
L6.8419 17.2829
" />
<path d="M6.8419 17.2829
L6.7847 17.3114
" />
<path d="M6.7847 17.3114
L6.7562 17.3400
" />
<path d="M6.7562 17.3400
L6.7276 17.3971
" />
<path d="M6.7276 17.3971
L6.7276 17.5114
" />
<path d="M6.7276 17.5114
L6.7562 17.5686
" />
<path d="M6.7562 17.5686
L6.7847 17.5971
" />
<path d="M6.7847 17.5971
L6.8419 17.6257
" />
<path d="M6.8419 17.6257
L6.9847 17.6257
" />
<path d="M6.9847 17.6257
L7.0419 17.5971
" />
<path d="M7.0419 17.5971
L7.0704 17.5686
" />
<path d="M7.0704 17.5686
L7.0990 17.5114
" />
<path d="M7.0990 17.5114
L7.0990 17.3971
" />
<path d="M7.0990 17.3971
L7.0704 17.3400
" />
<path d="M7.0704 17.3400
L7.0419 17.3114
" />
<path d="M7.0419 17.3114
L6.9847 17.2829
" />
</g></g>
<g style="fill:none; 
stroke:#585D84; stroke-width:0.0212; stroke-opacity:1; 
stroke-linecap:round; stroke-linejoin:round;">
<path d="M6.4526 17.4400
L6.4526 18.0400
" />
<path d="M6.4526 18.0400 A0.6000 0.6000 0.0 0 0 7.6526 18.0400" />
<path d="M7.6526 18.0400
L7.6526 17.4400
" />
<path d="M7.6526 17.4400 A0.6000 0.6000 0.0 0 0 6.4526 17.4400" />
</g>
<g style="fill:none; 
stroke:#585D84; stroke-width:0.0500; stroke-opacity:1; 
stroke-linecap:round; stroke-linejoin:round;">
<g transform="rotate(-90.000000 7.0526 15.2000)">
<text x="7.0526" y="15.5000"
textLength="1.1729" font-size="0.8000" lengthAdjust="spacingAndGlyphs"
text-anchor="middle" opacity="0" stroke-opacity="0">20</text>
</g>
<g class="stroked-text"><desc>20</desc>
<path d="M6.7847 15.6571
L6.7562 15.6286
" />
<path d="M6.7562 15.6286
L6.7276 15.5714
" />
<path d="M6.7276 15.5714
L6.7276 15.4286
" />
<path d="M6.7276 15.4286
L6.7562 15.3714
" />
<path d="M6.7562 15.3714
L6.7847 15.3429
" />
<path d="M6.7847 15.3429
L6.8419 15.3143
" />
<path d="M6.8419 15.3143
L6.8990 15.3143
" />
<path d="M6.8990 15.3143
L6.9847 15.3429
" />
<path d="M6.9847 15.3429
L7.3276 15.6857
" />
<path d="M7.3276 15.6857
L7.3276 15.3143
" />
<path d="M6.7276 14.9429
L6.7276 14.8857
" />
<path d="M6.7276 14.8857
L6.7562 14.8286
" />
<path d="M6.7562 14.8286
L6.7847 14.8000
" />
<path d="M6.7847 14.8000
L6.8419 14.7714
" />
<path d="M6.8419 14.7714
L6.9562 14.7429
" />
<path d="M6.9562 14.7429
L7.0990 14.7429
" />
<path d="M7.0990 14.7429
L7.2133 14.7714
" />
<path d="M7.2133 14.7714
L7.2704 14.8000
" />
<path d="M7.2704 14.8000
L7.2990 14.8286
" />
<path d="M7.2990 14.8286
L7.3276 14.8857
" />
<path d="M7.3276 14.8857
L7.3276 14.9429
" />
<path d="M7.3276 14.9429
L7.2990 15.0000
" />
<path d="M7.2990 15.0000
L7.2704 15.0286
" />
<path d="M7.2704 15.0286
L7.2133 15.0571
" />
<path d="M7.2133 15.0571
L7.0990 15.0857
" />
<path d="M7.0990 15.0857
L6.9562 15.0857
" />
<path d="M6.9562 15.0857
L6.8419 15.0571
" />
<path d="M6.8419 15.0571
L6.7847 15.0286
" />
<path d="M6.7847 15.0286
L6.7562 15.0000
" />
<path d="M6.7562 15.0000
L6.7276 14.9429
" />
</g></g>
<g style="fill:none; 
stroke:#585D84; stroke-width:0.0212; stroke-opacity:1; 
stroke-linecap:round; stroke-linejoin:round;">
<path d="M6.4526 14.9000
L6.4526 15.5000
" />
<path d="M6.4526 15.5000 A0.6000 0.6000 0.0 0 0 7.6526 15.5000" />
<path d="M7.6526 15.5000
L7.6526 14.9000
" />
<path d="M7.6526 14.9000 A0.6000 0.6000 0.0 0 0 6.4526 14.9000" />
</g>
<g style="fill:none; 
stroke:#585D84; stroke-width:0.0500; stroke-opacity:1; 
stroke-linecap:round; stroke-linejoin:round;">
<g transform="rotate(-90.000000 7.0526 12.6600)">
<text x="7.0526" y="12.9600"
textLength="1.1729" font-size="0.8000" lengthAdjust="spacingAndGlyphs"
text-anchor="middle" opacity="0" stroke-opacity="0">21</text>
</g>
<g class="stroked-text"><desc>21</desc>
<path d="M6.7847 13.1171
L6.7562 13.0886
" />
<path d="M6.7562 13.0886
L6.7276 13.0314
" />
<path d="M6.7276 13.0314
L6.7276 12.8886
" />
<path d="M6.7276 12.8886
L6.7562 12.8314
" />
<path d="M6.7562 12.8314
L6.7847 12.8029
" />
<path d="M6.7847 12.8029
L6.8419 12.7743
" />
<path d="M6.8419 12.7743
L6.8990 12.7743
" />
<path d="M6.8990 12.7743
L6.9847 12.8029
" />
<path d="M6.9847 12.8029
L7.3276 13.1457
" />
<path d="M7.3276 13.1457
L7.3276 12.7743
" />
<path d="M7.3276 12.2029
L7.3276 12.5457
" />
<path d="M7.3276 12.3743
L6.7276 12.3743
" />
<path d="M6.7276 12.3743
L6.8133 12.4314
" />
<path d="M6.8133 12.4314
L6.8704 12.4886
" />
<path d="M6.8704 12.4886
L6.8990 12.5457
" />
</g></g>
<g style="fill:none; 
stroke:#585D84; stroke-width:0.0212; stroke-opacity:1; 
stroke-linecap:round; stroke-linejoin:round;">
<path d="M6.4526 12.3600
L6.4526 12.9600
" />
<path d="M6.4526 12.9600 A0.6000 0.6000 0.0 0 0 7.6526 12.9600" />
<path d="M7.6526 12.9600
L7.6526 12.3600
" />
<path d="M7.6526 12.3600 A0.6000 0.6000 0.0 0 0 6.4526 12.3600" />
</g>
<g style="fill:none; 
stroke:#585D84; stroke-width:0.0500; stroke-opacity:1; 
stroke-linecap:round; stroke-linejoin:round;">
<g transform="rotate(-90.000000 7.0526 10.1200)">
<text x="7.0526" y="10.4200"
textLength="1.1729" font-size="0.8000" lengthAdjust="spacingAndGlyphs"
text-anchor="middle" opacity="0" stroke-opacity="0">22</text>
</g>
<g class="stroked-text"><desc>22</desc>
<path d="M6.7847 10.5771
L6.7562 10.5486
" />
<path d="M6.7562 10.5486
L6.7276 10.4914
" />
<path d="M6.7276 10.4914
L6.7276 10.3486
" />
<path d="M6.7276 10.3486
L6.7562 10.2914
" />
<path d="M6.7562 10.2914
L6.7847 10.2629
" />
<path d="M6.7847 10.2629
L6.8419 10.2343
" />
<path d="M6.8419 10.2343
L6.8990 10.2343
" />
<path d="M6.8990 10.2343
L6.9847 10.2629
" />
<path d="M6.9847 10.2629
L7.3276 10.6057
" />
<path d="M7.3276 10.6057
L7.3276 10.2343
" />
<path d="M6.7847 10.0057
L6.7562 9.9771
" />
<path d="M6.7562 9.9771
L6.7276 9.9200
" />
<path d="M6.7276 9.9200
L6.7276 9.7771
" />
<path d="M6.7276 9.7771
L6.7562 9.7200
" />
<path d="M6.7562 9.7200
L6.7847 9.6914
" />
<path d="M6.7847 9.6914
L6.8419 9.6629
" />
<path d="M6.8419 9.6629
L6.8990 9.6629
" />
<path d="M6.8990 9.6629
L6.9847 9.6914
" />
<path d="M6.9847 9.6914
L7.3276 10.0343
" />
<path d="M7.3276 10.0343
L7.3276 9.6629
" />
</g></g>
<g style="fill:none; 
stroke:#585D84; stroke-width:0.0212; stroke-opacity:1; 
stroke-linecap:round; stroke-linejoin:round;">
<path d="M6.4526 9.8200
L6.4526 10.4200
" />
<path d="M6.4526 10.4200 A0.6000 0.6000 0.0 0 0 7.6526 10.4200" />
<path d="M7.6526 10.4200
L7.6526 9.8200
" />
<path d="M7.6526 9.8200 A0.6000 0.6000 0.0 0 0 6.4526 9.8200" />
</g>
<g style="fill:none; 
stroke:#585D84; stroke-width:0.0500; stroke-opacity:1; 
stroke-linecap:round; stroke-linejoin:round;">
<g transform="rotate(-90.000000 7.0526 7.5800)">
<text x="7.0526" y="7.8800"
textLength="1.1729" font-size="0.8000" lengthAdjust="spacingAndGlyphs"
text-anchor="middle" opacity="0" stroke-opacity="0">23</text>
</g>
<g class="stroked-text"><desc>23</desc>
<path d="M6.7847 8.0371
L6.7562 8.0086
" />
<path d="M6.7562 8.0086
L6.7276 7.9514
" />
<path d="M6.7276 7.9514
L6.7276 7.8086
" />
<path d="M6.7276 7.8086
L6.7562 7.7514
" />
<path d="M6.7562 7.7514
L6.7847 7.7229
" />
<path d="M6.7847 7.7229
L6.8419 7.6943
" />
<path d="M6.8419 7.6943
L6.8990 7.6943
" />
<path d="M6.8990 7.6943
L6.9847 7.7229
" />
<path d="M6.9847 7.7229
L7.3276 8.0657
" />
<path d="M7.3276 8.0657
L7.3276 7.6943
" />
<path d="M6.7276 7.4943
L6.7276 7.1229
" />
<path d="M6.7276 7.1229
L6.9562 7.3229
" />
<path d="M6.9562 7.3229
L6.9562 7.2371
" />
<path d="M6.9562 7.2371
L6.9847 7.1800
" />
<path d="M6.9847 7.1800
L7.0133 7.1514
" />
<path d="M7.0133 7.1514
L7.0704 7.1229
" />
<path d="M7.0704 7.1229
L7.2133 7.1229
" />
<path d="M7.2133 7.1229
L7.2704 7.1514
" />
<path d="M7.2704 7.1514
L7.2990 7.1800
" />
<path d="M7.2990 7.1800
L7.3276 7.2371
" />
<path d="M7.3276 7.2371
L7.3276 7.4086
" />
<path d="M7.3276 7.4086
L7.2990 7.4657
" />
<path d="M7.2990 7.4657
L7.2704 7.4943
" />
</g></g>
<g style="fill:none; 
stroke:#585D84; stroke-width:0.0212; stroke-opacity:1; 
stroke-linecap:round; stroke-linejoin:round;">
<path d="M6.4526 7.2800
L6.4526 7.8800
" />
<path d="M6.4526 7.8800 A0.6000 0.6000 0.0 0 0 7.6526 7.8800" />
<path d="M7.6526 7.8800
L7.6526 7.2800
" />
<path d="M7.6526 7.2800 A0.6000 0.6000 0.0 0 0 6.4526 7.2800" />
</g>
<g style="fill:none; 
stroke:#585D84; stroke-width:0.0500; stroke-opacity:1; 
stroke-linecap:round; stroke-linejoin:round;">
<g transform="rotate(-90.000000 7.0526 5.0400)">
<text x="7.0526" y="5.3400"
textLength="1.1729" font-size="0.8000" lengthAdjust="spacingAndGlyphs"
text-anchor="middle" opacity="0" stroke-opacity="0">24</text>
</g>
<g class="stroked-text"><desc>24</desc>
<path d="M6.7847 5.4971
L6.7562 5.4686
" />
<path d="M6.7562 5.4686
L6.7276 5.4114
" />
<path d="M6.7276 5.4114
L6.7276 5.2686
" />
<path d="M6.7276 5.2686
L6.7562 5.2114
" />
<path d="M6.7562 5.2114
L6.7847 5.1829
" />
<path d="M6.7847 5.1829
L6.8419 5.1543
" />
<path d="M6.8419 5.1543
L6.8990 5.1543
" />
<path d="M6.8990 5.1543
L6.9847 5.1829
" />
<path d="M6.9847 5.1829
L7.3276 5.5257
" />
<path d="M7.3276 5.5257
L7.3276 5.1543
" />
<path d="M6.9276 4.6400
L7.3276 4.6400
" />
<path d="M6.6990 4.7829
L7.1276 4.9257
" />
<path d="M7.1276 4.9257
L7.1276 4.5543
" />
</g></g>
<g style="fill:none; 
stroke:#585D84; stroke-width:0.0212; stroke-opacity:1; 
stroke-linecap:round; stroke-linejoin:round;">
<path d="M6.4526 4.7400
L6.4526 5.3400
" />
<path d="M6.4526 5.3400 A0.6000 0.6000 0.0 0 0 7.6526 5.3400" />
<path d="M7.6526 5.3400
L7.6526 4.7400
" />
<path d="M7.6526 4.7400 A0.6000 0.6000 0.0 0 0 6.4526 4.7400" />
</g> 
</svg>
