<svg xmlns="http://www.w3.org/2000/svg" width="89.088" height="137.088" viewBox="0 0 23.571 36.271">
    <g class="stroked-text" style="fill:none;stroke:#f2eda1;stroke-width:.15;stroke-opacity:1;stroke-linecap:round;stroke-linejoin:round">
        <path d="m10.458 5.495-.333-.476M9.887 5.495v-1M9.887 4.495h.38M10.268 4.495l.095.047M10.363 4.542l.048.048M10.41 4.59l.048.095M10.458 4.685v.143M10.458 4.828l-.047.095M10.41 4.923l-.047.048M10.363 4.971l-.095.048M10.268 5.019h-.381M10.887 4.971h.333M11.363 5.495h-.476M10.887 5.495v-1M10.887 4.495h.476M12.125 4.971h-.333M11.792 5.495v-1M11.792 4.495h.476M12.792 4.495v.238M12.554 4.638l.238.095M12.792 4.733l.238-.095M12.649 4.923l.143-.19M12.792 4.733l.143.19M13.554 4.495v.238M13.316 4.638l.238.095M13.554 4.733l.238-.095M13.41 4.923l.144-.19M13.554 4.733l.142.19"/>
    </g>
    <g style="fill:none;stroke:#f2eda1;stroke-width:.12;stroke-opacity:1;stroke-linecap:round;stroke-linejoin:round">
        <path d="M18.298 5.84v-1.6"/>
        <path d="M2.802 1.13h17.98v33.22H2.802Z" style="stroke:#f2eda1;stroke-width:.12;stroke-opacity:1;stroke-linecap:round;stroke-linejoin:round;fill:none"/>
        <path stroke="none" d="m18.562 4.445.02-.098.054-.082.083-.056.098-.019h1.19l.097.02.083.055.055.082.02.098v1.19l-.02.098-.055.082-.083.056-.097.019h-1.19l-.098-.02-.083-.055-.055-.082-.02-.098Z" style="fill:#4d7fc4;fill-opacity:1;stroke:none;fill-rule:evenodd"/>
    </g>
    <g style="fill:#4d7fc4;fill-opacity:1;stroke:none">
        <circle cx="19.412" cy="7.58" r=".85"/>
        <circle cx="19.412" cy="10.12" r=".85"/>
        <circle cx="19.412" cy="12.66" r=".85"/>
        <circle cx="19.412" cy="15.2" r=".85"/>
        <circle cx="19.412" cy="17.74" r=".85"/>
        <circle cx="19.412" cy="20.28" r=".85"/>
        <circle cx="19.412" cy="22.82" r=".85"/>
        <circle cx="19.412" cy="25.36" r=".85"/>
        <circle cx="19.412" cy="27.9" r=".85"/>
        <circle cx="19.412" cy="30.44" r=".85"/>
        <circle cx="19.412" cy="32.98" r=".85"/>
        <circle cx="4.172" cy="32.98" r=".85"/>
        <circle cx="4.172" cy="30.44" r=".85"/>
        <circle cx="4.172" cy="27.9" r=".85"/>
        <circle cx="4.172" cy="25.36" r=".85"/>
        <circle cx="4.172" cy="22.82" r=".85"/>
        <circle cx="4.172" cy="20.28" r=".85"/>
        <circle cx="4.172" cy="17.74" r=".85"/>
        <circle cx="4.172" cy="15.2" r=".85"/>
        <circle cx="4.172" cy="12.66" r=".85"/>
        <circle cx="4.172" cy="10.12" r=".85"/>
        <circle cx="4.172" cy="7.58" r=".85"/>
        <circle cx="4.172" cy="5.04" r=".85"/>
        <path d="m18.562 4.445.02-.098.054-.082.083-.056.098-.019h1.19l.097.02.083.055.055.082.02.098v1.19l-.02.098-.055.082-.083.056-.097.019h-1.19l-.098-.02-.083-.055-.055-.082-.02-.098Z" style="fill:#c83434;fill-opacity:1;stroke:none;fill-rule:evenodd"/>
    </g>
    <g style="fill:#c83434;fill-opacity:1;stroke:none">
        <circle cx="19.412" cy="7.58" r=".85"/>
        <circle cx="19.412" cy="10.12" r=".85"/>
        <circle cx="19.412" cy="12.66" r=".85"/>
        <circle cx="19.412" cy="15.2" r=".85"/>
        <circle cx="19.412" cy="17.74" r=".85"/>
        <circle cx="19.412" cy="20.28" r=".85"/>
        <circle cx="19.412" cy="22.82" r=".85"/>
        <circle cx="19.412" cy="25.36" r=".85"/>
        <circle cx="19.412" cy="27.9" r=".85"/>
        <circle cx="19.412" cy="30.44" r=".85"/>
        <circle cx="19.412" cy="32.98" r=".85"/>
        <circle cx="4.172" cy="32.98" r=".85"/>
        <circle cx="4.172" cy="30.44" r=".85"/>
        <circle cx="4.172" cy="27.9" r=".85"/>
        <circle cx="4.172" cy="25.36" r=".85"/>
        <circle cx="4.172" cy="22.82" r=".85"/>
        <circle cx="4.172" cy="20.28" r=".85"/>
        <circle cx="4.172" cy="17.74" r=".85"/>
        <circle cx="4.172" cy="15.2" r=".85"/>
        <circle cx="4.172" cy="12.66" r=".85"/>
        <circle cx="4.172" cy="10.12" r=".85"/>
        <circle cx="4.172" cy="7.58" r=".85"/>
        <circle cx="4.172" cy="5.04" r=".85"/>
    </g>
    <g style="fill:none;stroke:#585d84;stroke-width:.0472;stroke-opacity:1;stroke-linecap:round;stroke-linejoin:round">
        <g class="stroked-text">
            <path d="M19.574 5.3h-.324M19.412 5.3v-.567M19.412 4.733l-.054.081M19.358 4.814l-.054.054M19.304 4.868l-.054.027"/>
        </g>
        <path d="m18.562 4.445.02-.098.054-.082.083-.056.098-.019h1.19l.097.02.083.055.055.082.02.098v1.19l-.02.098-.055.082-.083.056-.097.019h-1.19l-.098-.02-.083-.055-.055-.082-.02-.098Z" style="stroke:#585d84;stroke-width:.0212;stroke-opacity:1;stroke-linecap:round;stroke-linejoin:round;fill:none"/>
    </g>
    <g class="stroked-text" style="fill:none;stroke:#585d84;stroke-width:.0472;stroke-opacity:1;stroke-linecap:round;stroke-linejoin:round">
        <path d="m19.25 7.327.027-.027M19.277 7.3l.054-.027M19.33 7.273h.136M19.466 7.273l.054.027M19.52 7.3l.027.027M19.547 7.327l.027.054M19.574 7.381v.054M19.574 7.435l-.027.08M19.547 7.516l-.324.324M19.223 7.84h.35"/>
    </g>
    <g style="fill:none;stroke:#585d84;stroke-width:.0212;stroke-opacity:1;stroke-linecap:round;stroke-linejoin:round">
        <path d="M18.562 7.58a.85.85 0 0 0 1.7 0M20.262 7.58a.85.85 0 0 0-1.7 0"/>
    </g>
    <g class="stroked-text" style="fill:none;stroke:#585d84;stroke-width:.0472;stroke-opacity:1;stroke-linecap:round;stroke-linejoin:round">
        <path d="M19.223 9.813h.35M19.574 9.813l-.19.216M19.385 10.029h.08M19.466 10.029l.054.027M19.52 10.056l.027.027M19.547 10.083l.027.054M19.574 10.137v.135M19.574 10.272l-.027.054M19.547 10.326l-.027.027M19.52 10.353l-.054.027M19.466 10.38h-.162M19.304 10.38l-.054-.027M19.25 10.353l-.027-.027"/>
    </g>
    <g style="fill:none;stroke:#585d84;stroke-width:.0212;stroke-opacity:1;stroke-linecap:round;stroke-linejoin:round">
        <path d="M18.562 10.12a.85.85 0 0 0 1.7 0M20.262 10.12a.85.85 0 0 0-1.7 0"/>
    </g>
    <g class="stroked-text" style="fill:none;stroke:#585d84;stroke-width:.0472;stroke-opacity:1;stroke-linecap:round;stroke-linejoin:round">
        <path d="M19.52 12.542v.378M19.385 12.326l-.135.405M19.25 12.73h.35"/>
    </g>
    <g style="fill:none;stroke:#585d84;stroke-width:.0212;stroke-opacity:1;stroke-linecap:round;stroke-linejoin:round">
        <path d="M18.562 12.66a.85.85 0 0 0 1.7 0M20.262 12.66a.85.85 0 0 0-1.7 0"/>
    </g>
    <g class="stroked-text" style="fill:none;stroke:#585d84;stroke-width:.0472;stroke-opacity:1;stroke-linecap:round;stroke-linejoin:round">
        <path d="M19.547 14.893h-.27M19.277 14.893l-.027.27M19.25 15.163l.027-.027M19.277 15.136l.054-.027M19.33 15.109h.136M19.466 15.109l.054.027M19.52 15.136l.027.027M19.547 15.163l.027.054M19.574 15.217v.135M19.574 15.352l-.027.054M19.547 15.406l-.027.027M19.52 15.433l-.054.027M19.466 15.46h-.135M19.33 15.46l-.053-.027M19.277 15.433l-.027-.027"/>
    </g>
    <g style="fill:none;stroke:#585d84;stroke-width:.0212;stroke-opacity:1;stroke-linecap:round;stroke-linejoin:round">
        <path d="M18.562 15.2a.85.85 0 0 0 1.7 0M20.262 15.2a.85.85 0 0 0-1.7 0"/>
    </g>
    <g class="stroked-text" style="fill:none;stroke:#585d84;stroke-width:.0472;stroke-opacity:1;stroke-linecap:round;stroke-linejoin:round">
        <path d="M19.52 17.433h-.108M19.412 17.433l-.054.027M19.358 17.46l-.027.027M19.33 17.487l-.053.08M19.277 17.568l-.027.108M19.25 17.676v.216M19.25 17.892l.027.054M19.277 17.946l.027.027M19.304 17.973l.054.027M19.358 18h.108M19.466 18l.054-.027M19.52 17.973l.027-.027M19.547 17.946l.027-.054M19.574 17.892v-.135M19.574 17.757l-.027-.054M19.547 17.703l-.027-.027M19.52 17.676l-.054-.027M19.466 17.649h-.108M19.358 17.649l-.054.027M19.304 17.676l-.027.027M19.277 17.703l-.027.054"/>
    </g>
    <g style="fill:none;stroke:#585d84;stroke-width:.0212;stroke-opacity:1;stroke-linecap:round;stroke-linejoin:round">
        <path d="M18.562 17.74a.85.85 0 0 0 1.7 0M20.262 17.74a.85.85 0 0 0-1.7 0"/>
    </g>
    <g class="stroked-text" style="fill:none;stroke:#585d84;stroke-width:.0472;stroke-opacity:1;stroke-linecap:round;stroke-linejoin:round">
        <path d="M19.223 19.973h.378M19.6 19.973l-.242.567"/>
    </g>
    <g style="fill:none;stroke:#585d84;stroke-width:.0212;stroke-opacity:1;stroke-linecap:round;stroke-linejoin:round">
        <path d="M18.562 20.28a.85.85 0 0 0 1.7 0M20.262 20.28a.85.85 0 0 0-1.7 0"/>
    </g>
    <g class="stroked-text" style="fill:none;stroke:#585d84;stroke-width:.0472;stroke-opacity:1;stroke-linecap:round;stroke-linejoin:round">
        <path d="m19.358 22.756-.054-.027M19.304 22.729l-.027-.027M19.277 22.702l-.027-.054M19.25 22.648v-.027M19.25 22.621l.027-.054M19.277 22.567l.027-.027M19.304 22.54l.054-.027M19.358 22.513h.108M19.466 22.513l.054.027M19.52 22.54l.027.027M19.547 22.567l.027.054M19.574 22.621v.027M19.574 22.648l-.027.054M19.547 22.702l-.027.027M19.52 22.729l-.054.027M19.466 22.756h-.108M19.358 22.756l-.054.027M19.304 22.783l-.027.027M19.277 22.81l-.027.054M19.25 22.864v.108M19.25 22.972l.027.054M19.277 23.026l.027.027M19.304 23.053l.054.027M19.358 23.08h.108M19.466 23.08l.054-.027M19.52 23.053l.027-.027M19.547 23.026l.027-.054M19.574 22.972v-.108M19.574 22.864l-.027-.054M19.547 22.81l-.027-.027M19.52 22.783l-.054-.027"/>
    </g>
    <g style="fill:none;stroke:#585d84;stroke-width:.0212;stroke-opacity:1;stroke-linecap:round;stroke-linejoin:round">
        <path d="M18.562 22.82a.85.85 0 0 0 1.7 0M20.262 22.82a.85.85 0 0 0-1.7 0"/>
    </g>
    <g class="stroked-text" style="fill:none;stroke:#585d84;stroke-width:.0472;stroke-opacity:1;stroke-linecap:round;stroke-linejoin:round">
        <path d="M19.304 25.62h.108M19.412 25.62l.054-.027M19.466 25.593l.027-.027M19.493 25.566l.054-.081M19.547 25.485l.027-.108M19.574 25.377v-.216M19.574 25.161l-.027-.054M19.547 25.107l-.027-.027M19.52 25.08l-.054-.027M19.466 25.053h-.108M19.358 25.053l-.054.027M19.304 25.08l-.027.027M19.277 25.107l-.027.054M19.25 25.161v.135M19.25 25.296l.027.054M19.277 25.35l.027.027M19.304 25.377l.054.027M19.358 25.404h.108M19.466 25.404l.054-.027M19.52 25.377l.027-.027M19.547 25.35l.027-.054"/>
    </g>
    <g style="fill:none;stroke:#585d84;stroke-width:.0212;stroke-opacity:1;stroke-linecap:round;stroke-linejoin:round">
        <path d="M18.562 25.36a.85.85 0 0 0 1.7 0M20.262 25.36a.85.85 0 0 0-1.7 0"/>
    </g>
    <g class="stroked-text" style="fill:none;stroke:#585d84;stroke-width:.0472;stroke-opacity:1;stroke-linecap:round;stroke-linejoin:round">
        <path d="M19.304 28.16h-.324M19.142 28.16v-.567M19.142 27.593l-.054.081M19.088 27.674l-.054.054M19.034 27.728l-.054.027M19.655 27.593h.053M19.709 27.593l.053.027M19.763 27.62l.026.027M19.79 27.647l.026.054M19.816 27.701l.027.108M19.843 27.809v.135M19.843 27.944l-.027.108M19.816 28.052l-.027.054M19.79 28.106l-.027.027M19.763 28.133l-.055.027M19.709 28.16h-.055M19.655 28.16l-.054-.027M19.6 28.133l-.026-.027M19.574 28.106l-.027-.054M19.547 28.052l-.027-.108M19.52 27.944v-.135M19.52 27.809l.027-.108M19.547 27.701l.027-.054M19.574 27.647l.027-.027M19.6 27.62l.054-.027"/>
    </g>
    <g style="fill:none;stroke:#585d84;stroke-width:.0212;stroke-opacity:1;stroke-linecap:round;stroke-linejoin:round">
        <path d="M18.562 27.9a.85.85 0 0 0 1.7 0M20.262 27.9a.85.85 0 0 0-1.7 0"/>
    </g>
    <g class="stroked-text" style="fill:none;stroke:#585d84;stroke-width:.0472;stroke-opacity:1;stroke-linecap:round;stroke-linejoin:round">
        <path d="M19.304 30.7h-.324M19.142 30.7v-.567M19.142 30.133l-.054.081M19.088 30.214l-.054.054M19.034 30.268l-.054.027M19.843 30.7h-.323M19.682 30.7v-.567M19.682 30.133l-.054.081M19.628 30.214l-.054.054M19.574 30.268l-.054.027"/>
    </g>
    <g style="fill:none;stroke:#585d84;stroke-width:.0212;stroke-opacity:1;stroke-linecap:round;stroke-linejoin:round">
        <path d="M18.562 30.44a.85.85 0 0 0 1.7 0M20.262 30.44a.85.85 0 0 0-1.7 0"/>
    </g>
    <g class="stroked-text" style="fill:none;stroke:#585d84;stroke-width:.0472;stroke-opacity:1;stroke-linecap:round;stroke-linejoin:round">
        <path d="M19.304 33.24h-.324M19.142 33.24v-.567M19.142 32.673l-.054.081M19.088 32.754l-.054.054M19.034 32.808l-.054.027M19.52 32.727l.027-.027M19.547 32.7l.054-.027M19.6 32.673h.135M19.736 32.673l.053.027M19.79 32.7l.026.027M19.816 32.727l.027.054M19.843 32.781v.054M19.843 32.835l-.027.08M19.816 32.916l-.323.324M19.493 33.24h.35"/>
    </g>
    <g style="fill:none;stroke:#585d84;stroke-width:.0212;stroke-opacity:1;stroke-linecap:round;stroke-linejoin:round">
        <path d="M18.562 32.98a.85.85 0 0 0 1.7 0M20.262 32.98a.85.85 0 0 0-1.7 0"/>
    </g>
    <g class="stroked-text" style="fill:none;stroke:#585d84;stroke-width:.0472;stroke-opacity:1;stroke-linecap:round;stroke-linejoin:round">
        <path d="M4.064 33.24H3.74M3.902 33.24v-.567M3.902 32.673l-.054.081M3.848 32.754l-.054.054M3.794 32.808l-.054.027M4.253 32.673h.35M4.603 32.673l-.188.216M4.415 32.889h.08M4.496 32.889l.053.027M4.55 32.916l.026.027M4.576 32.943l.027.054M4.603 32.997v.135M4.603 33.132l-.027.054M4.576 33.186l-.027.027M4.55 33.213l-.054.027M4.496 33.24h-.162M4.334 33.24l-.054-.027M4.28 33.213l-.027-.027"/>
    </g>
    <g style="fill:none;stroke:#585d84;stroke-width:.0212;stroke-opacity:1;stroke-linecap:round;stroke-linejoin:round">
        <path d="M3.322 32.98a.85.85 0 0 0 1.7 0M5.022 32.98a.85.85 0 0 0-1.7 0"/>
    </g>
    <g class="stroked-text" style="fill:none;stroke:#585d84;stroke-width:.0472;stroke-opacity:1;stroke-linecap:round;stroke-linejoin:round">
        <path d="M4.064 30.7H3.74M3.902 30.7v-.567M3.902 30.133l-.054.081M3.848 30.214l-.054.054M3.794 30.268l-.054.027M4.55 30.322v.378M4.415 30.106l-.135.405M4.28 30.51h.35"/>
    </g>
    <g style="fill:none;stroke:#585d84;stroke-width:.0212;stroke-opacity:1;stroke-linecap:round;stroke-linejoin:round">
        <path d="M3.322 30.44a.85.85 0 0 0 1.7 0M5.022 30.44a.85.85 0 0 0-1.7 0"/>
    </g>
    <g class="stroked-text" style="fill:none;stroke:#585d84;stroke-width:.0472;stroke-opacity:1;stroke-linecap:round;stroke-linejoin:round">
        <path d="M4.064 28.16H3.74M3.902 28.16v-.567M3.902 27.593l-.054.081M3.848 27.674l-.054.054M3.794 27.728l-.054.027M4.576 27.593h-.27M4.307 27.593l-.027.27M4.28 27.863l.027-.027M4.307 27.836l.054-.027M4.36 27.809h.135M4.496 27.809l.053.027M4.55 27.836l.026.027M4.576 27.863l.027.054M4.603 27.917v.135M4.603 28.052l-.027.054M4.576 28.106l-.027.027M4.55 28.133l-.054.027M4.496 28.16H4.36M4.36 28.16l-.053-.027M4.307 28.133l-.027-.027"/>
    </g>
    <g style="fill:none;stroke:#585d84;stroke-width:.0212;stroke-opacity:1;stroke-linecap:round;stroke-linejoin:round">
        <path d="M3.322 27.9a.85.85 0 0 0 1.7 0M5.022 27.9a.85.85 0 0 0-1.7 0"/>
    </g>
    <g class="stroked-text" style="fill:none;stroke:#585d84;stroke-width:.0472;stroke-opacity:1;stroke-linecap:round;stroke-linejoin:round">
        <path d="M4.064 25.62H3.74M3.902 25.62v-.567M3.902 25.053l-.054.081M3.848 25.134l-.054.054M3.794 25.188l-.054.027M4.55 25.053H4.44M4.442 25.053l-.054.027M4.388 25.08l-.027.027M4.36 25.107l-.053.08M4.307 25.188l-.027.108M4.28 25.296v.216M4.28 25.512l.027.054M4.307 25.566l.027.027M4.334 25.593l.054.027M4.388 25.62h.107M4.496 25.62l.053-.027M4.55 25.593l.026-.027M4.576 25.566l.027-.054M4.603 25.512v-.135M4.603 25.377l-.027-.054M4.576 25.323l-.027-.027M4.55 25.296l-.054-.027M4.496 25.269h-.109M4.388 25.269l-.054.027M4.334 25.296l-.027.027M4.307 25.323l-.027.054"/>
    </g>
    <g style="fill:none;stroke:#585d84;stroke-width:.0212;stroke-opacity:1;stroke-linecap:round;stroke-linejoin:round">
        <path d="M3.322 25.36a.85.85 0 0 0 1.7 0M5.022 25.36a.85.85 0 0 0-1.7 0"/>
    </g>
    <g class="stroked-text" style="fill:none;stroke:#585d84;stroke-width:.0472;stroke-opacity:1;stroke-linecap:round;stroke-linejoin:round">
        <path d="M4.064 23.08H3.74M3.902 23.08v-.567M3.902 22.513l-.054.081M3.848 22.594l-.054.054M3.794 22.648l-.054.027M4.253 22.513h.377M4.63 22.513l-.242.567"/>
    </g>
    <g style="fill:none;stroke:#585d84;stroke-width:.0212;stroke-opacity:1;stroke-linecap:round;stroke-linejoin:round">
        <path d="M3.322 22.82a.85.85 0 0 0 1.7 0M5.022 22.82a.85.85 0 0 0-1.7 0"/>
    </g>
    <g class="stroked-text" style="fill:none;stroke:#585d84;stroke-width:.0472;stroke-opacity:1;stroke-linecap:round;stroke-linejoin:round">
        <path d="M4.064 20.54H3.74M3.902 20.54v-.567M3.902 19.973l-.054.081M3.848 20.054l-.054.054M3.794 20.108l-.054.027M4.388 20.216l-.054-.027M4.334 20.189l-.027-.027M4.307 20.162l-.027-.054M4.28 20.108v-.027M4.28 20.081l.027-.054M4.307 20.027 4.334 20M4.334 20l.054-.027M4.388 19.973h.107M4.496 19.973l.053.027M4.55 20l.026.027M4.576 20.027l.027.054M4.603 20.081v.027M4.603 20.108l-.027.054M4.576 20.162l-.027.027M4.55 20.189l-.054.027M4.496 20.216h-.109M4.388 20.216l-.054.027M4.334 20.243l-.027.027M4.307 20.27l-.027.054M4.28 20.324v.108M4.28 20.432l.027.054M4.307 20.486l.027.027M4.334 20.513l.054.027M4.388 20.54h.107M4.496 20.54l.053-.027M4.55 20.513l.026-.027M4.576 20.486l.027-.054M4.603 20.432v-.108M4.603 20.324l-.027-.054M4.576 20.27l-.027-.027M4.55 20.243l-.054-.027"/>
    </g>
    <g style="fill:none;stroke:#585d84;stroke-width:.0212;stroke-opacity:1;stroke-linecap:round;stroke-linejoin:round">
        <path d="M3.322 20.28a.85.85 0 0 0 1.7 0M5.022 20.28a.85.85 0 0 0-1.7 0"/>
    </g>
    <g class="stroked-text" style="fill:none;stroke:#585d84;stroke-width:.0472;stroke-opacity:1;stroke-linecap:round;stroke-linejoin:round">
        <path d="M4.064 18H3.74M3.902 18v-.567M3.902 17.433l-.054.081M3.848 17.514l-.054.054M3.794 17.568l-.054.027M4.334 18h.107M4.442 18l.053-.027M4.496 17.973l.026-.027M4.523 17.946l.053-.081M4.576 17.865l.027-.108M4.603 17.757v-.216M4.603 17.541l-.027-.054M4.576 17.487l-.027-.027M4.55 17.46l-.054-.027M4.496 17.433h-.109M4.388 17.433l-.054.027M4.334 17.46l-.027.027M4.307 17.487l-.027.054M4.28 17.541v.135M4.28 17.676l.027.054M4.307 17.73l.027.027M4.334 17.757l.054.027M4.388 17.784h.107M4.496 17.784l.053-.027M4.55 17.757l.026-.027M4.576 17.73l.027-.054"/>
    </g>
    <g style="fill:none;stroke:#585d84;stroke-width:.0212;stroke-opacity:1;stroke-linecap:round;stroke-linejoin:round">
        <path d="M3.322 17.74a.85.85 0 0 0 1.7 0M5.022 17.74a.85.85 0 0 0-1.7 0"/>
    </g>
    <g class="stroked-text" style="fill:none;stroke:#585d84;stroke-width:.0472;stroke-opacity:1;stroke-linecap:round;stroke-linejoin:round">
        <path d="m3.74 14.947.027-.027M3.767 14.92l.054-.027M3.82 14.893h.136M3.956 14.893l.054.027M4.01 14.92l.027.027M4.037 14.947l.027.054M4.064 15.001v.054M4.064 15.055l-.027.08M4.037 15.136l-.324.324M3.713 15.46h.35M4.415 14.893h.053M4.469 14.893l.053.027M4.523 14.92l.026.027M4.55 14.947l.026.054M4.576 15.001l.027.108M4.603 15.109v.135M4.603 15.244l-.027.108M4.576 15.352l-.027.054M4.55 15.406l-.027.027M4.523 15.433l-.054.027M4.469 15.46h-.054M4.415 15.46l-.054-.027M4.36 15.433l-.026-.027M4.334 15.406l-.027-.054M4.307 15.352l-.027-.108M4.28 15.244v-.135M4.28 15.109 4.307 15M4.307 15.001l.027-.054M4.334 14.947l.027-.027M4.36 14.92l.054-.027"/>
    </g>
    <g style="fill:none;stroke:#585d84;stroke-width:.0212;stroke-opacity:1;stroke-linecap:round;stroke-linejoin:round">
        <path d="M3.322 15.2a.85.85 0 0 0 1.7 0M5.022 15.2a.85.85 0 0 0-1.7 0"/>
    </g>
    <g class="stroked-text" style="fill:none;stroke:#585d84;stroke-width:.0472;stroke-opacity:1;stroke-linecap:round;stroke-linejoin:round">
        <path d="m3.74 12.407.027-.027M3.767 12.38l.054-.027M3.82 12.353h.136M3.956 12.353l.054.027M4.01 12.38l.027.027M4.037 12.407l.027.054M4.064 12.461v.054M4.064 12.515l-.027.08M4.037 12.596l-.324.324M3.713 12.92h.35M4.603 12.92H4.28M4.442 12.92v-.567M4.442 12.353l-.054.081M4.388 12.434l-.054.054M4.334 12.488l-.054.027"/>
    </g>
    <g style="fill:none;stroke:#585d84;stroke-width:.0212;stroke-opacity:1;stroke-linecap:round;stroke-linejoin:round">
        <path d="M3.322 12.66a.85.85 0 0 0 1.7 0M5.022 12.66a.85.85 0 0 0-1.7 0"/>
    </g>
    <g class="stroked-text" style="fill:none;stroke:#585d84;stroke-width:.0472;stroke-opacity:1;stroke-linecap:round;stroke-linejoin:round">
        <path d="m3.74 9.867.027-.027M3.767 9.84l.054-.027M3.82 9.813h.136M3.956 9.813l.054.027M4.01 9.84l.027.027M4.037 9.867l.027.054M4.064 9.921v.054M4.064 9.975l-.027.08M4.037 10.056l-.324.324M3.713 10.38h.35M4.28 9.867l.027-.027M4.307 9.84l.054-.027M4.36 9.813h.135M4.496 9.813l.053.027M4.55 9.84l.026.027M4.576 9.867l.027.054M4.603 9.921v.054M4.603 9.975l-.027.08M4.576 10.056l-.323.324M4.253 10.38h.35"/>
    </g>
    <g style="fill:none;stroke:#585d84;stroke-width:.0212;stroke-opacity:1;stroke-linecap:round;stroke-linejoin:round">
        <path d="M3.322 10.12a.85.85 0 0 0 1.7 0M5.022 10.12a.85.85 0 0 0-1.7 0"/>
    </g>
    <g class="stroked-text" style="fill:none;stroke:#585d84;stroke-width:.0472;stroke-opacity:1;stroke-linecap:round;stroke-linejoin:round">
        <path d="m3.74 7.327.027-.027M3.767 7.3l.054-.027M3.82 7.273h.136M3.956 7.273l.054.027M4.01 7.3l.027.027M4.037 7.327l.027.054M4.064 7.381v.054M4.064 7.435l-.027.08M4.037 7.516l-.324.324M3.713 7.84h.35M4.253 7.273h.35M4.603 7.273l-.188.216M4.415 7.489h.08M4.496 7.489l.053.027M4.55 7.516l.026.027M4.576 7.543l.027.054M4.603 7.597v.135M4.603 7.732l-.027.054M4.576 7.786l-.027.027M4.55 7.813l-.054.027M4.496 7.84h-.162M4.334 7.84l-.054-.027M4.28 7.813l-.027-.027"/>
    </g>
    <g style="fill:none;stroke:#585d84;stroke-width:.0212;stroke-opacity:1;stroke-linecap:round;stroke-linejoin:round">
        <path d="M3.322 7.58a.85.85 0 0 0 1.7 0M5.022 7.58a.85.85 0 0 0-1.7 0"/>
    </g>
    <g class="stroked-text" style="fill:none;stroke:#585d84;stroke-width:.0472;stroke-opacity:1;stroke-linecap:round;stroke-linejoin:round">
        <path d="m3.74 4.787.027-.027M3.767 4.76l.054-.027M3.82 4.733h.136M3.956 4.733l.054.027M4.01 4.76l.027.027M4.037 4.787l.027.054M4.064 4.841v.054M4.064 4.895l-.027.08M4.037 4.976l-.324.324M3.713 5.3h.35M4.55 4.922V5.3M4.415 4.706l-.135.405M4.28 5.11h.35"/>
    </g>
    <g style="fill:none;stroke:#585d84;stroke-width:.0212;stroke-opacity:1;stroke-linecap:round;stroke-linejoin:round">
        <path d="M3.322 5.04a.85.85 0 0 0 1.7 0M5.022 5.04a.85.85 0 0 0-1.7 0"/>
    </g>
    <g style="fill:none;stroke:#afafaf;stroke-width:.15;stroke-opacity:1;stroke-linecap:round;stroke-linejoin:round">
        <g class="stroked-text">
            <path d="M.363 35.895v-1M.363 34.895l.333.714M.696 35.61l.334-.715M1.03 34.895v1M2.077 35.8l-.047.047M2.03 35.847l-.143.048M1.887 35.895h-.095M1.792 35.895l-.143-.048M1.649 35.847l-.095-.095M1.554 35.752l-.048-.095M1.506 35.657l-.048-.19M1.458 35.466v-.143M1.458 35.323l.048-.19M1.506 35.133l.048-.095M1.554 35.038l.095-.096M1.649 34.942l.143-.047M1.792 34.895h.095M1.887 34.895l.143.047M2.03 34.942l.047.048M2.506 34.895v.81M2.506 35.704l.048.096M2.554 35.8l.047.047M2.601 35.847l.095.048M2.696 35.895h.19M2.887 35.895l.095-.048M2.982 35.847l.048-.047M3.03 35.8l.047-.096M3.077 35.704v-.81M3.316 35.99h.761M4.316 35.895v-1M4.316 34.895h.38M4.696 34.895l.096.047M4.792 34.942l.047.048M4.84 34.99l.047.095M4.887 35.085v.143M4.887 35.228l-.048.095M4.84 35.323l-.048.048M4.792 35.371l-.096.048M4.696 35.419h-.38M5.316 35.895v-.667M5.316 35.419l.047-.096M5.363 35.323l.048-.047M5.41 35.276l.096-.048M5.506 35.228h.095M6.077 35.895l-.095-.048M5.982 35.847l-.048-.047M5.935 35.8l-.048-.096M5.887 35.704v-.285M5.887 35.419l.048-.096M5.935 35.323l.047-.047M5.982 35.276l.095-.048M6.077 35.228h.143M6.22 35.228l.096.048M6.316 35.276l.047.047M6.363 35.323l.048.096M6.41 35.419v.285M6.41 35.704l-.047.096M6.363 35.8l-.048.047M6.316 35.847l-.096.048M6.22 35.895h-.143M6.84 35.895v-1M6.84 34.895l.333.714M7.173 35.61l.333-.715M7.506 34.895v1M7.982 35.895v-.667M7.982 34.895l-.048.047M7.935 34.942l.047.048M7.982 34.99l.048-.048M8.03 34.942l-.048-.047M7.982 34.895v.095M8.887 35.847l-.095.048M8.792 35.895h-.19M8.601 35.895l-.095-.048M8.506 35.847l-.048-.047M8.458 35.8l-.047-.096M8.41 35.704v-.285M8.41 35.419l.048-.096M8.458 35.323l.048-.047M8.506 35.276l.095-.048M8.601 35.228h.19M8.792 35.228l.095.048M9.316 35.895v-.667M9.316 35.419l.047-.096M9.363 35.323l.048-.047M9.41 35.276l.096-.048M9.506 35.228h.095M10.077 35.895l-.095-.048M9.982 35.847l-.047-.047M9.935 35.8l-.048-.096M9.887 35.704v-.285M9.887 35.419l.047-.096M9.935 35.323l.047-.047M9.982 35.276l.095-.048M10.077 35.228h.143M10.22 35.228l.095.048M10.316 35.276l.047.047M10.363 35.323l.048.096M10.41 35.419v.285M10.41 35.704l-.047.096M10.363 35.8l-.047.047M10.316 35.847l-.096.048M10.22 35.895h-.143M10.601 35.99h.762M12.125 34.942l-.095-.047M12.03 34.895h-.143M11.887 34.895l-.143.047M11.744 34.942l-.095.096M11.649 35.038l-.048.095M11.601 35.133l-.047.19M11.554 35.323v.143M11.554 35.466l.047.19M11.601 35.657l.048.095M11.649 35.752l.095.095M11.744 35.847l.143.048M11.887 35.895h.095M11.982 35.895l.143-.048M12.125 35.847l.048-.047M12.173 35.8v-.334M12.173 35.466h-.19M12.982 35.847l-.095.048M12.887 35.895h-.19M12.696 35.895l-.095-.048M12.601 35.847l-.047-.095M12.554 35.752v-.381M12.554 35.371l.047-.095M12.601 35.276l.095-.048M12.696 35.228h.19M12.887 35.228l.095.048M12.982 35.276l.048.095M13.03 35.371v.095M13.03 35.466l-.476.096M13.458 35.228v.667M13.458 35.323l.048-.047M13.506 35.276l.095-.048M13.601 35.228h.143M13.744 35.228l.095.048M13.84 35.276l.047.095M13.887 35.371v.524M14.744 35.847l-.095.048M14.649 35.895h-.19M14.458 35.895l-.095-.048M14.363 35.847l-.047-.095M14.316 35.752v-.381M14.316 35.371l.047-.095M14.363 35.276l.095-.048M14.458 35.228h.19M14.649 35.228l.095.048M14.744 35.276l.048.095M14.792 35.371v.095M14.792 35.466l-.476.096M15.22 35.895v-.667M15.22 35.419l.048-.096M15.268 35.323l.047-.047M15.316 35.276l.095-.048M15.41 35.228h.096M15.84 35.895v-.667M15.84 34.895l-.048.047M15.792 34.942l.047.048M15.84 34.99l.047-.048M15.887 34.942l-.048-.047M15.84 34.895v.095M16.744 35.847l-.095.048M16.649 35.895h-.19M16.458 35.895l-.095-.048M16.363 35.847l-.047-.047M16.316 35.8l-.048-.096M16.268 35.704v-.285M16.268 35.419l.047-.096M16.316 35.323l.047-.047M16.363 35.276l.095-.048M16.458 35.228h.19M16.649 35.228l.095.048M16.935 35.99h.761M18.506 35.895l-.333-.476M17.935 35.895v-1M17.935 34.895h.38M18.316 34.895l.095.047M18.41 34.942l.048.048M18.458 34.99l.048.095M18.506 35.085v.143M18.506 35.228l-.048.095M18.458 35.323l-.047.048M18.41 35.371l-.095.048M18.316 35.419h-.381M19.316 35.847l-.096.048M19.22 35.895h-.19M19.03 35.895l-.096-.048M18.935 35.847l-.048-.095M18.887 35.752v-.381M18.887 35.371l.047-.095M18.935 35.276l.095-.048M19.03 35.228h.19M19.22 35.228l.096.048M19.316 35.276l.047.095M19.363 35.371v.095M19.363 35.466l-.476.096M19.696 35.228l.238.667M19.935 35.895l.238-.667M20.935 35.847l-.096.048M20.84 35.895h-.191M20.649 35.895l-.095-.048M20.554 35.847l-.048-.095M20.506 35.752v-.381M20.506 35.371l.048-.095M20.554 35.276l.095-.048M20.649 35.228h.19M20.84 35.228l.095.048M20.935 35.276l.047.095M20.982 35.371v.095M20.982 35.466l-.476.096M21.41 35.895v-.667M21.41 35.419l.048-.096M21.458 35.323l.048-.047M21.506 35.276l.095-.048M21.601 35.228h.095M21.982 35.847l.095.048M22.077 35.895h.19M22.268 35.895l.095-.048M22.363 35.847l.048-.095M22.41 35.752v-.048M22.41 35.704l-.047-.095M22.363 35.61l-.095-.048M22.268 35.562h-.143M22.125 35.562l-.095-.048M22.03 35.514l-.048-.095M21.982 35.419v-.048M21.982 35.371l.048-.095M22.03 35.276l.095-.048M22.125 35.228h.143M22.268 35.228l.095.048M23.22 35.847l-.095.048M23.125 35.895h-.19M22.935 35.895l-.096-.048M22.84 35.847l-.048-.095M22.792 35.752v-.381M22.792 35.371l.047-.095M22.84 35.276l.095-.048M22.935 35.228h.19M23.125 35.228l.095.048M23.22 35.276l.048.095M23.268 35.371v.095M23.268 35.466l-.476.096"/>
        </g>
        <g class="stroked-text">
            <path d="m10.458 18.195-.333-.476M9.887 18.195v-1M9.887 17.195h.38M10.268 17.195l.095.047M10.363 17.242l.048.048M10.41 17.29l.048.095M10.458 17.385v.143M10.458 17.528l-.047.095M10.41 17.623l-.047.048M10.363 17.671l-.095.048M10.268 17.719h-.381M10.887 17.671h.333M11.363 18.195h-.476M10.887 18.195v-1M10.887 17.195h.476M12.125 17.671h-.333M11.792 18.195v-1M11.792 17.195h.476M12.792 17.195v.238M12.554 17.338l.238.095M12.792 17.433l.238-.095M12.649 17.623l.143-.19M12.792 17.433l.143.19M13.554 17.195v.238M13.316 17.338l.238.095M13.554 17.433l.238-.095M13.41 17.623l.144-.19M13.554 17.433l.142.19"/>
        </g>
        <path d="M2.902 1.23h17.78v33.02H2.902ZM7.292.05h9v1.18h-9Z" style="stroke:#afafaf;stroke-width:.1;stroke-opacity:1;stroke-linecap:round;stroke-linejoin:round;fill:none"/>
    </g>
    <g style="fill:none;stroke:#afafaf;stroke-width:.0472;stroke-opacity:1;stroke-linecap:round;stroke-linejoin:round">
        <g class="stroked-text">
            <path d="M19.574 5.3h-.324M19.412 5.3v-.567M19.412 4.733l-.054.081M19.358 4.814l-.054.054M19.304 4.868l-.054.027"/>
        </g>
        <path d="m18.562 4.445.02-.098.054-.082.083-.056.098-.019h1.19l.097.02.083.055.055.082.02.098v1.19l-.02.098-.055.082-.083.056-.097.019h-1.19l-.098-.02-.083-.055-.055-.082-.02-.098Z" style="stroke:#afafaf;stroke-width:.0212;stroke-opacity:1;stroke-linecap:round;stroke-linejoin:round;fill:none"/>
    </g>
    <g class="stroked-text" style="fill:none;stroke:#afafaf;stroke-width:.0472;stroke-opacity:1;stroke-linecap:round;stroke-linejoin:round">
        <path d="m19.25 7.327.027-.027M19.277 7.3l.054-.027M19.33 7.273h.136M19.466 7.273l.054.027M19.52 7.3l.027.027M19.547 7.327l.027.054M19.574 7.381v.054M19.574 7.435l-.027.08M19.547 7.516l-.324.324M19.223 7.84h.35"/>
    </g>
    <g style="fill:none;stroke:#afafaf;stroke-width:.0212;stroke-opacity:1;stroke-linecap:round;stroke-linejoin:round">
        <path d="M18.562 7.58a.85.85 0 0 0 1.7 0M20.262 7.58a.85.85 0 0 0-1.7 0"/>
    </g>
    <g class="stroked-text" style="fill:none;stroke:#afafaf;stroke-width:.0472;stroke-opacity:1;stroke-linecap:round;stroke-linejoin:round">
        <path d="M19.223 9.813h.35M19.574 9.813l-.19.216M19.385 10.029h.08M19.466 10.029l.054.027M19.52 10.056l.027.027M19.547 10.083l.027.054M19.574 10.137v.135M19.574 10.272l-.027.054M19.547 10.326l-.027.027M19.52 10.353l-.054.027M19.466 10.38h-.162M19.304 10.38l-.054-.027M19.25 10.353l-.027-.027"/>
    </g>
    <g style="fill:none;stroke:#afafaf;stroke-width:.0212;stroke-opacity:1;stroke-linecap:round;stroke-linejoin:round">
        <path d="M18.562 10.12a.85.85 0 0 0 1.7 0M20.262 10.12a.85.85 0 0 0-1.7 0"/>
    </g>
    <g class="stroked-text" style="fill:none;stroke:#afafaf;stroke-width:.0472;stroke-opacity:1;stroke-linecap:round;stroke-linejoin:round">
        <path d="M19.52 12.542v.378M19.385 12.326l-.135.405M19.25 12.73h.35"/>
    </g>
    <g style="fill:none;stroke:#afafaf;stroke-width:.0212;stroke-opacity:1;stroke-linecap:round;stroke-linejoin:round">
        <path d="M18.562 12.66a.85.85 0 0 0 1.7 0M20.262 12.66a.85.85 0 0 0-1.7 0"/>
    </g>
    <g class="stroked-text" style="fill:none;stroke:#afafaf;stroke-width:.0472;stroke-opacity:1;stroke-linecap:round;stroke-linejoin:round">
        <path d="M19.547 14.893h-.27M19.277 14.893l-.027.27M19.25 15.163l.027-.027M19.277 15.136l.054-.027M19.33 15.109h.136M19.466 15.109l.054.027M19.52 15.136l.027.027M19.547 15.163l.027.054M19.574 15.217v.135M19.574 15.352l-.027.054M19.547 15.406l-.027.027M19.52 15.433l-.054.027M19.466 15.46h-.135M19.33 15.46l-.053-.027M19.277 15.433l-.027-.027"/>
    </g>
    <g style="fill:none;stroke:#afafaf;stroke-width:.0212;stroke-opacity:1;stroke-linecap:round;stroke-linejoin:round">
        <path d="M18.562 15.2a.85.85 0 0 0 1.7 0M20.262 15.2a.85.85 0 0 0-1.7 0"/>
    </g>
    <g class="stroked-text" style="fill:none;stroke:#afafaf;stroke-width:.0472;stroke-opacity:1;stroke-linecap:round;stroke-linejoin:round">
        <path d="M19.52 17.433h-.108M19.412 17.433l-.054.027M19.358 17.46l-.027.027M19.33 17.487l-.053.08M19.277 17.568l-.027.108M19.25 17.676v.216M19.25 17.892l.027.054M19.277 17.946l.027.027M19.304 17.973l.054.027M19.358 18h.108M19.466 18l.054-.027M19.52 17.973l.027-.027M19.547 17.946l.027-.054M19.574 17.892v-.135M19.574 17.757l-.027-.054M19.547 17.703l-.027-.027M19.52 17.676l-.054-.027M19.466 17.649h-.108M19.358 17.649l-.054.027M19.304 17.676l-.027.027M19.277 17.703l-.027.054"/>
    </g>
    <g style="fill:none;stroke:#afafaf;stroke-width:.0212;stroke-opacity:1;stroke-linecap:round;stroke-linejoin:round">
        <path d="M18.562 17.74a.85.85 0 0 0 1.7 0M20.262 17.74a.85.85 0 0 0-1.7 0"/>
    </g>
    <g class="stroked-text" style="fill:none;stroke:#afafaf;stroke-width:.0472;stroke-opacity:1;stroke-linecap:round;stroke-linejoin:round">
        <path d="M19.223 19.973h.378M19.6 19.973l-.242.567"/>
    </g>
    <g style="fill:none;stroke:#afafaf;stroke-width:.0212;stroke-opacity:1;stroke-linecap:round;stroke-linejoin:round">
        <path d="M18.562 20.28a.85.85 0 0 0 1.7 0M20.262 20.28a.85.85 0 0 0-1.7 0"/>
    </g>
    <g class="stroked-text" style="fill:none;stroke:#afafaf;stroke-width:.0472;stroke-opacity:1;stroke-linecap:round;stroke-linejoin:round">
        <path d="m19.358 22.756-.054-.027M19.304 22.729l-.027-.027M19.277 22.702l-.027-.054M19.25 22.648v-.027M19.25 22.621l.027-.054M19.277 22.567l.027-.027M19.304 22.54l.054-.027M19.358 22.513h.108M19.466 22.513l.054.027M19.52 22.54l.027.027M19.547 22.567l.027.054M19.574 22.621v.027M19.574 22.648l-.027.054M19.547 22.702l-.027.027M19.52 22.729l-.054.027M19.466 22.756h-.108M19.358 22.756l-.054.027M19.304 22.783l-.027.027M19.277 22.81l-.027.054M19.25 22.864v.108M19.25 22.972l.027.054M19.277 23.026l.027.027M19.304 23.053l.054.027M19.358 23.08h.108M19.466 23.08l.054-.027M19.52 23.053l.027-.027M19.547 23.026l.027-.054M19.574 22.972v-.108M19.574 22.864l-.027-.054M19.547 22.81l-.027-.027M19.52 22.783l-.054-.027"/>
    </g>
    <g style="fill:none;stroke:#afafaf;stroke-width:.0212;stroke-opacity:1;stroke-linecap:round;stroke-linejoin:round">
        <path d="M18.562 22.82a.85.85 0 0 0 1.7 0M20.262 22.82a.85.85 0 0 0-1.7 0"/>
    </g>
    <g class="stroked-text" style="fill:none;stroke:#afafaf;stroke-width:.0472;stroke-opacity:1;stroke-linecap:round;stroke-linejoin:round">
        <path d="M19.304 25.62h.108M19.412 25.62l.054-.027M19.466 25.593l.027-.027M19.493 25.566l.054-.081M19.547 25.485l.027-.108M19.574 25.377v-.216M19.574 25.161l-.027-.054M19.547 25.107l-.027-.027M19.52 25.08l-.054-.027M19.466 25.053h-.108M19.358 25.053l-.054.027M19.304 25.08l-.027.027M19.277 25.107l-.027.054M19.25 25.161v.135M19.25 25.296l.027.054M19.277 25.35l.027.027M19.304 25.377l.054.027M19.358 25.404h.108M19.466 25.404l.054-.027M19.52 25.377l.027-.027M19.547 25.35l.027-.054"/>
    </g>
    <g style="fill:none;stroke:#afafaf;stroke-width:.0212;stroke-opacity:1;stroke-linecap:round;stroke-linejoin:round">
        <path d="M18.562 25.36a.85.85 0 0 0 1.7 0M20.262 25.36a.85.85 0 0 0-1.7 0"/>
    </g>
    <g class="stroked-text" style="fill:none;stroke:#afafaf;stroke-width:.0472;stroke-opacity:1;stroke-linecap:round;stroke-linejoin:round">
        <path d="M19.304 28.16h-.324M19.142 28.16v-.567M19.142 27.593l-.054.081M19.088 27.674l-.054.054M19.034 27.728l-.054.027M19.655 27.593h.053M19.709 27.593l.053.027M19.763 27.62l.026.027M19.79 27.647l.026.054M19.816 27.701l.027.108M19.843 27.809v.135M19.843 27.944l-.027.108M19.816 28.052l-.027.054M19.79 28.106l-.027.027M19.763 28.133l-.055.027M19.709 28.16h-.055M19.655 28.16l-.054-.027M19.6 28.133l-.026-.027M19.574 28.106l-.027-.054M19.547 28.052l-.027-.108M19.52 27.944v-.135M19.52 27.809l.027-.108M19.547 27.701l.027-.054M19.574 27.647l.027-.027M19.6 27.62l.054-.027"/>
    </g>
    <g style="fill:none;stroke:#afafaf;stroke-width:.0212;stroke-opacity:1;stroke-linecap:round;stroke-linejoin:round">
        <path d="M18.562 27.9a.85.85 0 0 0 1.7 0M20.262 27.9a.85.85 0 0 0-1.7 0"/>
    </g>
    <g class="stroked-text" style="fill:none;stroke:#afafaf;stroke-width:.0472;stroke-opacity:1;stroke-linecap:round;stroke-linejoin:round">
        <path d="M19.304 30.7h-.324M19.142 30.7v-.567M19.142 30.133l-.054.081M19.088 30.214l-.054.054M19.034 30.268l-.054.027M19.843 30.7h-.323M19.682 30.7v-.567M19.682 30.133l-.054.081M19.628 30.214l-.054.054M19.574 30.268l-.054.027"/>
    </g>
    <g style="fill:none;stroke:#afafaf;stroke-width:.0212;stroke-opacity:1;stroke-linecap:round;stroke-linejoin:round">
        <path d="M18.562 30.44a.85.85 0 0 0 1.7 0M20.262 30.44a.85.85 0 0 0-1.7 0"/>
    </g>
    <g class="stroked-text" style="fill:none;stroke:#afafaf;stroke-width:.0472;stroke-opacity:1;stroke-linecap:round;stroke-linejoin:round">
        <path d="M19.304 33.24h-.324M19.142 33.24v-.567M19.142 32.673l-.054.081M19.088 32.754l-.054.054M19.034 32.808l-.054.027M19.52 32.727l.027-.027M19.547 32.7l.054-.027M19.6 32.673h.135M19.736 32.673l.053.027M19.79 32.7l.026.027M19.816 32.727l.027.054M19.843 32.781v.054M19.843 32.835l-.027.08M19.816 32.916l-.323.324M19.493 33.24h.35"/>
    </g>
    <g style="fill:none;stroke:#afafaf;stroke-width:.0212;stroke-opacity:1;stroke-linecap:round;stroke-linejoin:round">
        <path d="M18.562 32.98a.85.85 0 0 0 1.7 0M20.262 32.98a.85.85 0 0 0-1.7 0"/>
    </g>
    <g class="stroked-text" style="fill:none;stroke:#afafaf;stroke-width:.0472;stroke-opacity:1;stroke-linecap:round;stroke-linejoin:round">
        <path d="M4.064 33.24H3.74M3.902 33.24v-.567M3.902 32.673l-.054.081M3.848 32.754l-.054.054M3.794 32.808l-.054.027M4.253 32.673h.35M4.603 32.673l-.188.216M4.415 32.889h.08M4.496 32.889l.053.027M4.55 32.916l.026.027M4.576 32.943l.027.054M4.603 32.997v.135M4.603 33.132l-.027.054M4.576 33.186l-.027.027M4.55 33.213l-.054.027M4.496 33.24h-.162M4.334 33.24l-.054-.027M4.28 33.213l-.027-.027"/>
    </g>
    <g style="fill:none;stroke:#afafaf;stroke-width:.0212;stroke-opacity:1;stroke-linecap:round;stroke-linejoin:round">
        <path d="M3.322 32.98a.85.85 0 0 0 1.7 0M5.022 32.98a.85.85 0 0 0-1.7 0"/>
    </g>
    <g class="stroked-text" style="fill:none;stroke:#afafaf;stroke-width:.0472;stroke-opacity:1;stroke-linecap:round;stroke-linejoin:round">
        <path d="M4.064 30.7H3.74M3.902 30.7v-.567M3.902 30.133l-.054.081M3.848 30.214l-.054.054M3.794 30.268l-.054.027M4.55 30.322v.378M4.415 30.106l-.135.405M4.28 30.51h.35"/>
    </g>
    <g style="fill:none;stroke:#afafaf;stroke-width:.0212;stroke-opacity:1;stroke-linecap:round;stroke-linejoin:round">
        <path d="M3.322 30.44a.85.85 0 0 0 1.7 0M5.022 30.44a.85.85 0 0 0-1.7 0"/>
    </g>
    <g class="stroked-text" style="fill:none;stroke:#afafaf;stroke-width:.0472;stroke-opacity:1;stroke-linecap:round;stroke-linejoin:round">
        <path d="M4.064 28.16H3.74M3.902 28.16v-.567M3.902 27.593l-.054.081M3.848 27.674l-.054.054M3.794 27.728l-.054.027M4.576 27.593h-.27M4.307 27.593l-.027.27M4.28 27.863l.027-.027M4.307 27.836l.054-.027M4.36 27.809h.135M4.496 27.809l.053.027M4.55 27.836l.026.027M4.576 27.863l.027.054M4.603 27.917v.135M4.603 28.052l-.027.054M4.576 28.106l-.027.027M4.55 28.133l-.054.027M4.496 28.16H4.36M4.36 28.16l-.053-.027M4.307 28.133l-.027-.027"/>
    </g>
    <g style="fill:none;stroke:#afafaf;stroke-width:.0212;stroke-opacity:1;stroke-linecap:round;stroke-linejoin:round">
        <path d="M3.322 27.9a.85.85 0 0 0 1.7 0M5.022 27.9a.85.85 0 0 0-1.7 0"/>
    </g>
    <g class="stroked-text" style="fill:none;stroke:#afafaf;stroke-width:.0472;stroke-opacity:1;stroke-linecap:round;stroke-linejoin:round">
        <path d="M4.064 25.62H3.74M3.902 25.62v-.567M3.902 25.053l-.054.081M3.848 25.134l-.054.054M3.794 25.188l-.054.027M4.55 25.053H4.44M4.442 25.053l-.054.027M4.388 25.08l-.027.027M4.36 25.107l-.053.08M4.307 25.188l-.027.108M4.28 25.296v.216M4.28 25.512l.027.054M4.307 25.566l.027.027M4.334 25.593l.054.027M4.388 25.62h.107M4.496 25.62l.053-.027M4.55 25.593l.026-.027M4.576 25.566l.027-.054M4.603 25.512v-.135M4.603 25.377l-.027-.054M4.576 25.323l-.027-.027M4.55 25.296l-.054-.027M4.496 25.269h-.109M4.388 25.269l-.054.027M4.334 25.296l-.027.027M4.307 25.323l-.027.054"/>
    </g>
    <g style="fill:none;stroke:#afafaf;stroke-width:.0212;stroke-opacity:1;stroke-linecap:round;stroke-linejoin:round">
        <path d="M3.322 25.36a.85.85 0 0 0 1.7 0M5.022 25.36a.85.85 0 0 0-1.7 0"/>
    </g>
    <g class="stroked-text" style="fill:none;stroke:#afafaf;stroke-width:.0472;stroke-opacity:1;stroke-linecap:round;stroke-linejoin:round">
        <path d="M4.064 23.08H3.74M3.902 23.08v-.567M3.902 22.513l-.054.081M3.848 22.594l-.054.054M3.794 22.648l-.054.027M4.253 22.513h.377M4.63 22.513l-.242.567"/>
    </g>
    <g style="fill:none;stroke:#afafaf;stroke-width:.0212;stroke-opacity:1;stroke-linecap:round;stroke-linejoin:round">
        <path d="M3.322 22.82a.85.85 0 0 0 1.7 0M5.022 22.82a.85.85 0 0 0-1.7 0"/>
    </g>
    <g class="stroked-text" style="fill:none;stroke:#afafaf;stroke-width:.0472;stroke-opacity:1;stroke-linecap:round;stroke-linejoin:round">
        <path d="M4.064 20.54H3.74M3.902 20.54v-.567M3.902 19.973l-.054.081M3.848 20.054l-.054.054M3.794 20.108l-.054.027M4.388 20.216l-.054-.027M4.334 20.189l-.027-.027M4.307 20.162l-.027-.054M4.28 20.108v-.027M4.28 20.081l.027-.054M4.307 20.027 4.334 20M4.334 20l.054-.027M4.388 19.973h.107M4.496 19.973l.053.027M4.55 20l.026.027M4.576 20.027l.027.054M4.603 20.081v.027M4.603 20.108l-.027.054M4.576 20.162l-.027.027M4.55 20.189l-.054.027M4.496 20.216h-.109M4.388 20.216l-.054.027M4.334 20.243l-.027.027M4.307 20.27l-.027.054M4.28 20.324v.108M4.28 20.432l.027.054M4.307 20.486l.027.027M4.334 20.513l.054.027M4.388 20.54h.107M4.496 20.54l.053-.027M4.55 20.513l.026-.027M4.576 20.486l.027-.054M4.603 20.432v-.108M4.603 20.324l-.027-.054M4.576 20.27l-.027-.027M4.55 20.243l-.054-.027"/>
    </g>
    <g style="fill:none;stroke:#afafaf;stroke-width:.0212;stroke-opacity:1;stroke-linecap:round;stroke-linejoin:round">
        <path d="M3.322 20.28a.85.85 0 0 0 1.7 0M5.022 20.28a.85.85 0 0 0-1.7 0"/>
    </g>
    <g class="stroked-text" style="fill:none;stroke:#afafaf;stroke-width:.0472;stroke-opacity:1;stroke-linecap:round;stroke-linejoin:round">
        <path d="M4.064 18H3.74M3.902 18v-.567M3.902 17.433l-.054.081M3.848 17.514l-.054.054M3.794 17.568l-.054.027M4.334 18h.107M4.442 18l.053-.027M4.496 17.973l.026-.027M4.523 17.946l.053-.081M4.576 17.865l.027-.108M4.603 17.757v-.216M4.603 17.541l-.027-.054M4.576 17.487l-.027-.027M4.55 17.46l-.054-.027M4.496 17.433h-.109M4.388 17.433l-.054.027M4.334 17.46l-.027.027M4.307 17.487l-.027.054M4.28 17.541v.135M4.28 17.676l.027.054M4.307 17.73l.027.027M4.334 17.757l.054.027M4.388 17.784h.107M4.496 17.784l.053-.027M4.55 17.757l.026-.027M4.576 17.73l.027-.054"/>
    </g>
    <g style="fill:none;stroke:#afafaf;stroke-width:.0212;stroke-opacity:1;stroke-linecap:round;stroke-linejoin:round">
        <path d="M3.322 17.74a.85.85 0 0 0 1.7 0M5.022 17.74a.85.85 0 0 0-1.7 0"/>
    </g>
    <g class="stroked-text" style="fill:none;stroke:#afafaf;stroke-width:.0472;stroke-opacity:1;stroke-linecap:round;stroke-linejoin:round">
        <path d="m3.74 14.947.027-.027M3.767 14.92l.054-.027M3.82 14.893h.136M3.956 14.893l.054.027M4.01 14.92l.027.027M4.037 14.947l.027.054M4.064 15.001v.054M4.064 15.055l-.027.08M4.037 15.136l-.324.324M3.713 15.46h.35M4.415 14.893h.053M4.469 14.893l.053.027M4.523 14.92l.026.027M4.55 14.947l.026.054M4.576 15.001l.027.108M4.603 15.109v.135M4.603 15.244l-.027.108M4.576 15.352l-.027.054M4.55 15.406l-.027.027M4.523 15.433l-.054.027M4.469 15.46h-.054M4.415 15.46l-.054-.027M4.36 15.433l-.026-.027M4.334 15.406l-.027-.054M4.307 15.352l-.027-.108M4.28 15.244v-.135M4.28 15.109 4.307 15M4.307 15.001l.027-.054M4.334 14.947l.027-.027M4.36 14.92l.054-.027"/>
    </g>
    <g style="fill:none;stroke:#afafaf;stroke-width:.0212;stroke-opacity:1;stroke-linecap:round;stroke-linejoin:round">
        <path d="M3.322 15.2a.85.85 0 0 0 1.7 0M5.022 15.2a.85.85 0 0 0-1.7 0"/>
    </g>
    <g class="stroked-text" style="fill:none;stroke:#afafaf;stroke-width:.0472;stroke-opacity:1;stroke-linecap:round;stroke-linejoin:round">
        <path d="m3.74 12.407.027-.027M3.767 12.38l.054-.027M3.82 12.353h.136M3.956 12.353l.054.027M4.01 12.38l.027.027M4.037 12.407l.027.054M4.064 12.461v.054M4.064 12.515l-.027.08M4.037 12.596l-.324.324M3.713 12.92h.35M4.603 12.92H4.28M4.442 12.92v-.567M4.442 12.353l-.054.081M4.388 12.434l-.054.054M4.334 12.488l-.054.027"/>
    </g>
    <g style="fill:none;stroke:#afafaf;stroke-width:.0212;stroke-opacity:1;stroke-linecap:round;stroke-linejoin:round">
        <path d="M3.322 12.66a.85.85 0 0 0 1.7 0M5.022 12.66a.85.85 0 0 0-1.7 0"/>
    </g>
    <g class="stroked-text" style="fill:none;stroke:#afafaf;stroke-width:.0472;stroke-opacity:1;stroke-linecap:round;stroke-linejoin:round">
        <path d="m3.74 9.867.027-.027M3.767 9.84l.054-.027M3.82 9.813h.136M3.956 9.813l.054.027M4.01 9.84l.027.027M4.037 9.867l.027.054M4.064 9.921v.054M4.064 9.975l-.027.08M4.037 10.056l-.324.324M3.713 10.38h.35M4.28 9.867l.027-.027M4.307 9.84l.054-.027M4.36 9.813h.135M4.496 9.813l.053.027M4.55 9.84l.026.027M4.576 9.867l.027.054M4.603 9.921v.054M4.603 9.975l-.027.08M4.576 10.056l-.323.324M4.253 10.38h.35"/>
    </g>
    <g style="fill:none;stroke:#afafaf;stroke-width:.0212;stroke-opacity:1;stroke-linecap:round;stroke-linejoin:round">
        <path d="M3.322 10.12a.85.85 0 0 0 1.7 0M5.022 10.12a.85.85 0 0 0-1.7 0"/>
    </g>
    <g class="stroked-text" style="fill:none;stroke:#afafaf;stroke-width:.0472;stroke-opacity:1;stroke-linecap:round;stroke-linejoin:round">
        <path d="m3.74 7.327.027-.027M3.767 7.3l.054-.027M3.82 7.273h.136M3.956 7.273l.054.027M4.01 7.3l.027.027M4.037 7.327l.027.054M4.064 7.381v.054M4.064 7.435l-.027.08M4.037 7.516l-.324.324M3.713 7.84h.35M4.253 7.273h.35M4.603 7.273l-.188.216M4.415 7.489h.08M4.496 7.489l.053.027M4.55 7.516l.026.027M4.576 7.543l.027.054M4.603 7.597v.135M4.603 7.732l-.027.054M4.576 7.786l-.027.027M4.55 7.813l-.054.027M4.496 7.84h-.162M4.334 7.84l-.054-.027M4.28 7.813l-.027-.027"/>
    </g>
    <g style="fill:none;stroke:#afafaf;stroke-width:.0212;stroke-opacity:1;stroke-linecap:round;stroke-linejoin:round">
        <path d="M3.322 7.58a.85.85 0 0 0 1.7 0M5.022 7.58a.85.85 0 0 0-1.7 0"/>
    </g>
    <g class="stroked-text" style="fill:none;stroke:#afafaf;stroke-width:.0472;stroke-opacity:1;stroke-linecap:round;stroke-linejoin:round">
        <path d="m3.74 4.787.027-.027M3.767 4.76l.054-.027M3.82 4.733h.136M3.956 4.733l.054.027M4.01 4.76l.027.027M4.037 4.787l.027.054M4.064 4.841v.054M4.064 4.895l-.027.08M4.037 4.976l-.324.324M3.713 5.3h.35M4.55 4.922V5.3M4.415 4.706l-.135.405M4.28 5.11h.35"/>
    </g>
    <g style="fill:none;stroke:#afafaf;stroke-width:.0212;stroke-opacity:1;stroke-linecap:round;stroke-linejoin:round">
        <path d="M3.322 5.04a.85.85 0 0 0 1.7 0M5.022 5.04a.85.85 0 0 0-1.7 0"/>
    </g>
</svg>
