<?xml version="1.0" standalone="no"?>
 <!DOCTYPE svg PUBLIC "-//W3C//DTD SVG 1.1//EN" 
 "http://www.w3.org/Graphics/SVG/1.1/DTD/svg11.dtd"> 
<svg
  xmlns:svg="http://www.w3.org/2000/svg"
  xmlns="http://www.w3.org/2000/svg"
  xmlns:xlink="http://www.w3.org/1999/xlink"
  version="1.1"
  width="20.0406mm" height="24.3840mm" viewBox="0.0000 0.0000 20.0406 24.3840">
<title>SVG Image created as MCU_XIAO_nRF52840_BAT.svg date 2025/05/12 03:05:51 </title>
  <desc>Image generated by PCBNEW </desc>
<g style="fill:#000000; fill-opacity:1.0000;stroke:#000000; stroke-opacity:1.0000;
stroke-linecap:round; stroke-linejoin:round;"
 transform="translate(0 0) scale(1 1)">
</g>
<g style="fill:none; 
stroke:#F2EDA1; stroke-width:0.1500; stroke-opacity:1; 
stroke-linecap:round; stroke-linejoin:round;">
<text x="10.0250" y="11.9800"
textLength="4.5357" font-size="1.3333" lengthAdjust="spacingAndGlyphs"
text-anchor="middle" opacity="0" stroke-opacity="0">REF**</text>
<g class="stroked-text"><desc>REF**</desc>
<path d="M8.6917 11.9348
L8.3583 11.4586
" />
<path d="M8.1202 11.9348
L8.1202 10.9348
" />
<path d="M8.1202 10.9348
L8.5012 10.9348
" />
<path d="M8.5012 10.9348
L8.5964 10.9824
" />
<path d="M8.5964 10.9824
L8.6440 11.0301
" />
<path d="M8.6440 11.0301
L8.6917 11.1253
" />
<path d="M8.6917 11.1253
L8.6917 11.2682
" />
<path d="M8.6917 11.2682
L8.6440 11.3634
" />
<path d="M8.6440 11.3634
L8.5964 11.4110
" />
<path d="M8.5964 11.4110
L8.5012 11.4586
" />
<path d="M8.5012 11.4586
L8.1202 11.4586
" />
<path d="M9.1202 11.4110
L9.4536 11.4110
" />
<path d="M9.5964 11.9348
L9.1202 11.9348
" />
<path d="M9.1202 11.9348
L9.1202 10.9348
" />
<path d="M9.1202 10.9348
L9.5964 10.9348
" />
<path d="M10.3583 11.4110
L10.0250 11.4110
" />
<path d="M10.0250 11.9348
L10.0250 10.9348
" />
<path d="M10.0250 10.9348
L10.5012 10.9348
" />
<path d="M11.0250 10.9348
L11.0250 11.1729
" />
<path d="M10.7869 11.0777
L11.0250 11.1729
" />
<path d="M11.0250 11.1729
L11.2631 11.0777
" />
<path d="M10.8821 11.3634
L11.0250 11.1729
" />
<path d="M11.0250 11.1729
L11.1679 11.3634
" />
<path d="M11.7869 10.9348
L11.7869 11.1729
" />
<path d="M11.5488 11.0777
L11.7869 11.1729
" />
<path d="M11.7869 11.1729
L12.0250 11.0777
" />
<path d="M11.6440 11.3634
L11.7869 11.1729
" />
<path d="M11.7869 11.1729
L11.9298 11.3634
" />
</g></g>
<g style="fill:none; 
stroke:#F2EDA1; stroke-width:0.1200; stroke-opacity:1; 
stroke-linecap:round; stroke-linejoin:round;">
<path d="M1.0300 2.8100
L0.2200 2.8100
" />
<path d="M1.0350 2.8100
L1.0350 1.3000
" />
<path d="M1.0350 5.3500
L1.0350 4.9100
" />
<path d="M1.0350 7.8900
L1.0350 7.4500
" />
<path d="M1.0350 10.4300
L1.0350 9.9900
" />
<path d="M1.0350 12.9700
L1.0350 12.5300
" />
<path d="M1.0350 15.5100
L1.0350 15.0700
" />
<path d="M1.0350 17.6100
L1.0350 18.0500
" />
<path d="M1.0350 20.1500
L1.0350 20.1575
" />
<path d="M17.1150 22.0575
L2.9350 22.0575
" />
<path d="M19.0150 2.8100
L19.0150 1.3000
" />
<path d="M19.0150 5.3500
L19.0150 4.9100
" />
<path d="M19.0150 7.8900
L19.0150 7.4500
" />
<path d="M19.0150 10.4300
L19.0150 9.9900
" />
<path d="M19.0150 12.9700
L19.0150 12.5300
" />
<path d="M19.0150 15.5100
L19.0150 15.0700
" />
<path d="M19.0150 17.6100
L19.0150 18.0500
" />
<path d="M19.0150 20.1500
L19.0150 20.1575
" />
<path d="M1.0350 20.1575 A1.9000 1.9000 0.0 0 0 2.9350 22.0575" />
<path d="M17.1150 22.0575 A1.9000 1.9000 0.0 0 0 19.0150 20.1575" />
<path style="fill:#B4A09A; fill-opacity:0.9000; stroke:none;fill-rule:evenodd;"
d="M 0.2250,3.3000
0.2433,3.2082
0.2953,3.1303
0.3732,3.0783
0.4650,3.0600
2.3850,3.0600
2.4768,3.0783
2.5547,3.1303
2.6067,3.2082
2.6250,3.3000
2.6250,4.4200
2.6067,4.5118
2.5547,4.5897
2.4768,4.6417
2.3850,4.6600
0.4650,4.6600
0.3732,4.6417
0.2953,4.5897
0.2433,4.5118
0.2250,4.4200
Z" /> 
<path style="fill:#B4A09A; fill-opacity:0.9000; stroke:none;fill-rule:evenodd;"
d="M 0.2250,5.8400
0.2433,5.7482
0.2953,5.6703
0.3732,5.6183
0.4650,5.6000
2.3850,5.6000
2.4768,5.6183
2.5547,5.6703
2.6067,5.7482
2.6250,5.8400
2.6250,6.9600
2.6067,7.0518
2.5547,7.1297
2.4768,7.1817
2.3850,7.2000
0.4650,7.2000
0.3732,7.1817
0.2953,7.1297
0.2433,7.0518
0.2250,6.9600
Z" /> 
<path style="fill:#B4A09A; fill-opacity:0.9000; stroke:none;fill-rule:evenodd;"
d="M 0.2250,8.3800
0.2433,8.2882
0.2953,8.2103
0.3732,8.1583
0.4650,8.1400
2.3850,8.1400
2.4768,8.1583
2.5547,8.2103
2.6067,8.2882
2.6250,8.3800
2.6250,9.5000
2.6067,9.5918
2.5547,9.6697
2.4768,9.7217
2.3850,9.7400
0.4650,9.7400
0.3732,9.7217
0.2953,9.6697
0.2433,9.5918
0.2250,9.5000
Z" /> 
<path style="fill:#B4A09A; fill-opacity:0.9000; stroke:none;fill-rule:evenodd;"
d="M 0.2250,10.9200
0.2433,10.8282
0.2953,10.7503
0.3732,10.6983
0.4650,10.6800
2.3850,10.6800
2.4768,10.6983
2.5547,10.7503
2.6067,10.8282
2.6250,10.9200
2.6250,12.0400
2.6067,12.1318
2.5547,12.2097
2.4768,12.2617
2.3850,12.2800
0.4650,12.2800
0.3732,12.2617
0.2953,12.2097
0.2433,12.1318
0.2250,12.0400
Z" /> 
<path style="fill:#B4A09A; fill-opacity:0.9000; stroke:none;fill-rule:evenodd;"
d="M 0.2250,13.4600
0.2433,13.3682
0.2953,13.2903
0.3732,13.2383
0.4650,13.2200
2.3850,13.2200
2.4768,13.2383
2.5547,13.2903
2.6067,13.3682
2.6250,13.4600
2.6250,14.5800
2.6067,14.6718
2.5547,14.7497
2.4768,14.8017
2.3850,14.8200
0.4650,14.8200
0.3732,14.8017
0.2953,14.7497
0.2433,14.6718
0.2250,14.5800
Z" /> 
<path style="fill:#B4A09A; fill-opacity:0.9000; stroke:none;fill-rule:evenodd;"
d="M 0.2250,16.0000
0.2433,15.9082
0.2953,15.8303
0.3732,15.7783
0.4650,15.7600
2.3850,15.7600
2.4768,15.7783
2.5547,15.8303
2.6067,15.9082
2.6250,16.0000
2.6250,17.1200
2.6067,17.2118
2.5547,17.2897
2.4768,17.3417
2.3850,17.3600
0.4650,17.3600
0.3732,17.3417
0.2953,17.2897
0.2433,17.2118
0.2250,17.1200
Z" /> 
<path style="fill:#B4A09A; fill-opacity:0.9000; stroke:none;fill-rule:evenodd;"
d="M 0.2250,18.5400
0.2433,18.4482
0.2953,18.3703
0.3732,18.3183
0.4650,18.3000
2.3850,18.3000
2.4768,18.3183
2.5547,18.3703
2.6067,18.4482
2.6250,18.5400
2.6250,19.6600
2.6067,19.7518
2.5547,19.8297
2.4768,19.8817
2.3850,19.9000
0.4650,19.9000
0.3732,19.8817
0.2953,19.8297
0.2433,19.7518
0.2250,19.6600
Z" /> 
<path style="fill:#B4A09A; fill-opacity:0.9000; stroke:none;fill-rule:evenodd;"
d="M 17.4250,18.5400
17.4433,18.4482
17.4953,18.3703
17.5732,18.3183
17.6650,18.3000
19.5850,18.3000
19.6768,18.3183
19.7547,18.3703
19.8067,18.4482
19.8250,18.5400
19.8250,19.6600
19.8067,19.7518
19.7547,19.8297
19.6768,19.8817
19.5850,19.9000
17.6650,19.9000
17.5732,19.8817
17.4953,19.8297
17.4433,19.7518
17.4250,19.6600
Z" /> 
<path style="fill:#B4A09A; fill-opacity:0.9000; stroke:none;fill-rule:evenodd;"
d="M 17.4250,16.0000
17.4433,15.9082
17.4953,15.8303
17.5732,15.7783
17.6650,15.7600
19.5850,15.7600
19.6768,15.7783
19.7547,15.8303
19.8067,15.9082
19.8250,16.0000
19.8250,17.1200
19.8067,17.2118
19.7547,17.2897
19.6768,17.3417
19.5850,17.3600
17.6650,17.3600
17.5732,17.3417
17.4953,17.2897
17.4433,17.2118
17.4250,17.1200
Z" /> 
<path style="fill:#B4A09A; fill-opacity:0.9000; stroke:none;fill-rule:evenodd;"
d="M 17.4250,13.4600
17.4433,13.3682
17.4953,13.2903
17.5732,13.2383
17.6650,13.2200
19.5850,13.2200
19.6768,13.2383
19.7547,13.2903
19.8067,13.3682
19.8250,13.4600
19.8250,14.5800
19.8067,14.6718
19.7547,14.7497
19.6768,14.8017
19.5850,14.8200
17.6650,14.8200
17.5732,14.8017
17.4953,14.7497
17.4433,14.6718
17.4250,14.5800
Z" /> 
<path style="fill:#B4A09A; fill-opacity:0.9000; stroke:none;fill-rule:evenodd;"
d="M 17.4250,10.9200
17.4433,10.8282
17.4953,10.7503
17.5732,10.6983
17.6650,10.6800
19.5850,10.6800
19.6768,10.6983
19.7547,10.7503
19.8067,10.8282
19.8250,10.9200
19.8250,12.0400
19.8067,12.1318
19.7547,12.2097
19.6768,12.2617
19.5850,12.2800
17.6650,12.2800
17.5732,12.2617
17.4953,12.2097
17.4433,12.1318
17.4250,12.0400
Z" /> 
<path style="fill:#B4A09A; fill-opacity:0.9000; stroke:none;fill-rule:evenodd;"
d="M 17.4250,8.3800
17.4433,8.2882
17.4953,8.2103
17.5732,8.1583
17.6650,8.1400
19.5850,8.1400
19.6768,8.1583
19.7547,8.2103
19.8067,8.2882
19.8250,8.3800
19.8250,9.5000
19.8067,9.5918
19.7547,9.6697
19.6768,9.7217
19.5850,9.7400
17.6650,9.7400
17.5732,9.7217
17.4953,9.6697
17.4433,9.5918
17.4250,9.5000
Z" /> 
<path style="fill:#B4A09A; fill-opacity:0.9000; stroke:none;fill-rule:evenodd;"
d="M 17.4250,5.8400
17.4433,5.7482
17.4953,5.6703
17.5732,5.6183
17.6650,5.6000
19.5850,5.6000
19.6768,5.6183
19.7547,5.6703
19.8067,5.7482
19.8250,5.8400
19.8250,6.9600
19.8067,7.0518
19.7547,7.1297
19.6768,7.1817
19.5850,7.2000
17.6650,7.2000
17.5732,7.1817
17.4953,7.1297
17.4433,7.0518
17.4250,6.9600
Z" /> 
<path style="fill:#B4A09A; fill-opacity:0.9000; stroke:none;fill-rule:evenodd;"
d="M 17.4250,3.3000
17.4433,3.2082
17.4953,3.1303
17.5732,3.0783
17.6650,3.0600
19.5850,3.0600
19.6768,3.0783
19.7547,3.1303
19.8067,3.2082
19.8250,3.3000
19.8250,4.4200
19.8067,4.5118
19.7547,4.5897
19.6768,4.6417
19.5850,4.6600
17.6650,4.6600
17.5732,4.6417
17.4953,4.5897
17.4433,4.5118
17.4250,4.4200
Z" /> 
<path style="fill:#4D7FC4; fill-opacity:1.0000; stroke:none;fill-rule:evenodd;"
d="M 1.8450,4.6600
1.7532,4.6417
1.6753,4.5897
1.6233,4.5118
1.6050,4.4200
1.6050,3.3000
1.6233,3.2082
1.6753,3.1303
1.7532,3.0783
1.8450,3.0600
2.9650,3.0600
3.0568,3.0783
3.1347,3.1303
3.1867,3.2082
3.2050,3.3000
3.2050,4.4200
3.1867,4.5118
3.1347,4.5897
3.0568,4.6417
2.9650,4.6600
Z" /> 
</g>
<g style="fill:#4D7FC4; fill-opacity:1.0000; stroke:none;">
<circle cx="2.4050" cy="6.4000" r="0.8000" /> 
</g>
<g style="fill:#4D7FC4; fill-opacity:1.0000; stroke:none;">
<circle cx="2.4050" cy="8.9400" r="0.8000" /> 
</g>
<g style="fill:#4D7FC4; fill-opacity:1.0000; stroke:none;">
<circle cx="2.4050" cy="11.4800" r="0.8000" /> 
</g>
<g style="fill:#4D7FC4; fill-opacity:1.0000; stroke:none;">
<circle cx="2.4050" cy="14.0200" r="0.8000" /> 
</g>
<g style="fill:#4D7FC4; fill-opacity:1.0000; stroke:none;">
<circle cx="2.4050" cy="16.5600" r="0.8000" /> 
</g>
<g style="fill:#4D7FC4; fill-opacity:1.0000; stroke:none;">
<circle cx="2.4050" cy="19.1000" r="0.8000" /> 
</g>
<g style="fill:#4D7FC4; fill-opacity:1.0000; stroke:none;">
<circle cx="17.6450" cy="19.1000" r="0.8000" /> 
</g>
<g style="fill:#4D7FC4; fill-opacity:1.0000; stroke:none;">
<circle cx="17.6450" cy="16.5600" r="0.8000" /> 
</g>
<g style="fill:#4D7FC4; fill-opacity:1.0000; stroke:none;">
<circle cx="17.6450" cy="14.0200" r="0.8000" /> 
</g>
<g style="fill:#4D7FC4; fill-opacity:1.0000; stroke:none;">
<circle cx="17.6450" cy="11.4800" r="0.8000" /> 
</g>
<g style="fill:#4D7FC4; fill-opacity:1.0000; stroke:none;">
<circle cx="17.6450" cy="8.9400" r="0.8000" /> 
</g>
<g style="fill:#4D7FC4; fill-opacity:1.0000; stroke:none;">
<circle cx="17.6450" cy="6.4000" r="0.8000" /> 
</g>
<g style="fill:#4D7FC4; fill-opacity:1.0000; stroke:none;">
<circle cx="17.6450" cy="3.8600" r="0.8000" /> 
<path style="fill:#4D7FC4; fill-opacity:1.0000; stroke:none;fill-rule:evenodd;"
d="M 4.6800,8.7850
4.6954,8.7075
4.7393,8.6418
4.8050,8.5979
4.8825,8.5825
6.2775,8.5825
6.3550,8.5979
6.4207,8.6418
6.4646,8.7075
6.4800,8.7850
6.4800,9.7300
6.4646,9.8075
6.4207,9.8732
6.3550,9.9171
6.2775,9.9325
4.8825,9.9325
4.8050,9.9171
4.7393,9.8732
4.6954,9.8075
4.6800,9.7300
Z" /> 
<path style="fill:#4D7FC4; fill-opacity:1.0000; stroke:none;fill-rule:evenodd;"
d="M 4.6800,10.6900
4.6954,10.6125
4.7393,10.5468
4.8050,10.5029
4.8825,10.4875
6.2775,10.4875
6.3550,10.5029
6.4207,10.5468
6.4646,10.6125
6.4800,10.6900
6.4800,11.6350
6.4646,11.7125
6.4207,11.7782
6.3550,11.8221
6.2775,11.8375
4.8825,11.8375
4.8050,11.8221
4.7393,11.7782
4.6954,11.7125
4.6800,11.6350
Z" /> 
<path style="fill:#C83434; fill-opacity:1.0000; stroke:none;fill-rule:evenodd;"
d="M 0.2250,3.3000
0.2433,3.2082
0.2953,3.1303
0.3732,3.0783
0.4650,3.0600
2.3850,3.0600
2.4768,3.0783
2.5547,3.1303
2.6067,3.2082
2.6250,3.3000
2.6250,4.4200
2.6067,4.5118
2.5547,4.5897
2.4768,4.6417
2.3850,4.6600
0.4650,4.6600
0.3732,4.6417
0.2953,4.5897
0.2433,4.5118
0.2250,4.4200
Z" /> 
<path style="fill:#C83434; fill-opacity:1.0000; stroke:none;fill-rule:evenodd;"
d="M 1.8450,4.6600
1.7532,4.6417
1.6753,4.5897
1.6233,4.5118
1.6050,4.4200
1.6050,3.3000
1.6233,3.2082
1.6753,3.1303
1.7532,3.0783
1.8450,3.0600
2.9650,3.0600
3.0568,3.0783
3.1347,3.1303
3.1867,3.2082
3.2050,3.3000
3.2050,4.4200
3.1867,4.5118
3.1347,4.5897
3.0568,4.6417
2.9650,4.6600
Z" /> 
<path style="fill:#C83434; fill-opacity:1.0000; stroke:none;fill-rule:evenodd;"
d="M 0.2250,5.8400
0.2433,5.7482
0.2953,5.6703
0.3732,5.6183
0.4650,5.6000
2.3850,5.6000
2.4768,5.6183
2.5547,5.6703
2.6067,5.7482
2.6250,5.8400
2.6250,6.9600
2.6067,7.0518
2.5547,7.1297
2.4768,7.1817
2.3850,7.2000
0.4650,7.2000
0.3732,7.1817
0.2953,7.1297
0.2433,7.0518
0.2250,6.9600
Z" /> 
</g>
<g style="fill:#C83434; fill-opacity:1.0000; stroke:none;">
<circle cx="2.4050" cy="6.4000" r="0.8000" /> 
<path style="fill:#C83434; fill-opacity:1.0000; stroke:none;fill-rule:evenodd;"
d="M 0.2250,8.3800
0.2433,8.2882
0.2953,8.2103
0.3732,8.1583
0.4650,8.1400
2.3850,8.1400
2.4768,8.1583
2.5547,8.2103
2.6067,8.2882
2.6250,8.3800
2.6250,9.5000
2.6067,9.5918
2.5547,9.6697
2.4768,9.7217
2.3850,9.7400
0.4650,9.7400
0.3732,9.7217
0.2953,9.6697
0.2433,9.5918
0.2250,9.5000
Z" /> 
</g>
<g style="fill:#C83434; fill-opacity:1.0000; stroke:none;">
<circle cx="2.4050" cy="8.9400" r="0.8000" /> 
<path style="fill:#C83434; fill-opacity:1.0000; stroke:none;fill-rule:evenodd;"
d="M 0.2250,10.9200
0.2433,10.8282
0.2953,10.7503
0.3732,10.6983
0.4650,10.6800
2.3850,10.6800
2.4768,10.6983
2.5547,10.7503
2.6067,10.8282
2.6250,10.9200
2.6250,12.0400
2.6067,12.1318
2.5547,12.2097
2.4768,12.2617
2.3850,12.2800
0.4650,12.2800
0.3732,12.2617
0.2953,12.2097
0.2433,12.1318
0.2250,12.0400
Z" /> 
</g>
<g style="fill:#C83434; fill-opacity:1.0000; stroke:none;">
<circle cx="2.4050" cy="11.4800" r="0.8000" /> 
<path style="fill:#C83434; fill-opacity:1.0000; stroke:none;fill-rule:evenodd;"
d="M 0.2250,13.4600
0.2433,13.3682
0.2953,13.2903
0.3732,13.2383
0.4650,13.2200
2.3850,13.2200
2.4768,13.2383
2.5547,13.2903
2.6067,13.3682
2.6250,13.4600
2.6250,14.5800
2.6067,14.6718
2.5547,14.7497
2.4768,14.8017
2.3850,14.8200
0.4650,14.8200
0.3732,14.8017
0.2953,14.7497
0.2433,14.6718
0.2250,14.5800
Z" /> 
</g>
<g style="fill:#C83434; fill-opacity:1.0000; stroke:none;">
<circle cx="2.4050" cy="14.0200" r="0.8000" /> 
<path style="fill:#C83434; fill-opacity:1.0000; stroke:none;fill-rule:evenodd;"
d="M 0.2250,16.0000
0.2433,15.9082
0.2953,15.8303
0.3732,15.7783
0.4650,15.7600
2.3850,15.7600
2.4768,15.7783
2.5547,15.8303
2.6067,15.9082
2.6250,16.0000
2.6250,17.1200
2.6067,17.2118
2.5547,17.2897
2.4768,17.3417
2.3850,17.3600
0.4650,17.3600
0.3732,17.3417
0.2953,17.2897
0.2433,17.2118
0.2250,17.1200
Z" /> 
</g>
<g style="fill:#C83434; fill-opacity:1.0000; stroke:none;">
<circle cx="2.4050" cy="16.5600" r="0.8000" /> 
<path style="fill:#C83434; fill-opacity:1.0000; stroke:none;fill-rule:evenodd;"
d="M 0.2250,18.5400
0.2433,18.4482
0.2953,18.3703
0.3732,18.3183
0.4650,18.3000
2.3850,18.3000
2.4768,18.3183
2.5547,18.3703
2.6067,18.4482
2.6250,18.5400
2.6250,19.6600
2.6067,19.7518
2.5547,19.8297
2.4768,19.8817
2.3850,19.9000
0.4650,19.9000
0.3732,19.8817
0.2953,19.8297
0.2433,19.7518
0.2250,19.6600
Z" /> 
</g>
<g style="fill:#C83434; fill-opacity:1.0000; stroke:none;">
<circle cx="2.4050" cy="19.1000" r="0.8000" /> 
</g>
<g style="fill:#C83434; fill-opacity:1.0000; stroke:none;">
<circle cx="17.6450" cy="19.1000" r="0.8000" /> 
<path style="fill:#C83434; fill-opacity:1.0000; stroke:none;fill-rule:evenodd;"
d="M 17.4250,18.5400
17.4433,18.4482
17.4953,18.3703
17.5732,18.3183
17.6650,18.3000
19.5850,18.3000
19.6768,18.3183
19.7547,18.3703
19.8067,18.4482
19.8250,18.5400
19.8250,19.6600
19.8067,19.7518
19.7547,19.8297
19.6768,19.8817
19.5850,19.9000
17.6650,19.9000
17.5732,19.8817
17.4953,19.8297
17.4433,19.7518
17.4250,19.6600
Z" /> 
</g>
<g style="fill:#C83434; fill-opacity:1.0000; stroke:none;">
<circle cx="17.6450" cy="16.5600" r="0.8000" /> 
<path style="fill:#C83434; fill-opacity:1.0000; stroke:none;fill-rule:evenodd;"
d="M 17.4250,16.0000
17.4433,15.9082
17.4953,15.8303
17.5732,15.7783
17.6650,15.7600
19.5850,15.7600
19.6768,15.7783
19.7547,15.8303
19.8067,15.9082
19.8250,16.0000
19.8250,17.1200
19.8067,17.2118
19.7547,17.2897
19.6768,17.3417
19.5850,17.3600
17.6650,17.3600
17.5732,17.3417
17.4953,17.2897
17.4433,17.2118
17.4250,17.1200
Z" /> 
</g>
<g style="fill:#C83434; fill-opacity:1.0000; stroke:none;">
<circle cx="17.6450" cy="14.0200" r="0.8000" /> 
<path style="fill:#C83434; fill-opacity:1.0000; stroke:none;fill-rule:evenodd;"
d="M 17.4250,13.4600
17.4433,13.3682
17.4953,13.2903
17.5732,13.2383
17.6650,13.2200
19.5850,13.2200
19.6768,13.2383
19.7547,13.2903
19.8067,13.3682
19.8250,13.4600
19.8250,14.5800
19.8067,14.6718
19.7547,14.7497
19.6768,14.8017
19.5850,14.8200
17.6650,14.8200
17.5732,14.8017
17.4953,14.7497
17.4433,14.6718
17.4250,14.5800
Z" /> 
</g>
<g style="fill:#C83434; fill-opacity:1.0000; stroke:none;">
<circle cx="17.6450" cy="11.4800" r="0.8000" /> 
<path style="fill:#C83434; fill-opacity:1.0000; stroke:none;fill-rule:evenodd;"
d="M 17.4250,10.9200
17.4433,10.8282
17.4953,10.7503
17.5732,10.6983
17.6650,10.6800
19.5850,10.6800
19.6768,10.6983
19.7547,10.7503
19.8067,10.8282
19.8250,10.9200
19.8250,12.0400
19.8067,12.1318
19.7547,12.2097
19.6768,12.2617
19.5850,12.2800
17.6650,12.2800
17.5732,12.2617
17.4953,12.2097
17.4433,12.1318
17.4250,12.0400
Z" /> 
</g>
<g style="fill:#C83434; fill-opacity:1.0000; stroke:none;">
<circle cx="17.6450" cy="8.9400" r="0.8000" /> 
<path style="fill:#C83434; fill-opacity:1.0000; stroke:none;fill-rule:evenodd;"
d="M 17.4250,8.3800
17.4433,8.2882
17.4953,8.2103
17.5732,8.1583
17.6650,8.1400
19.5850,8.1400
19.6768,8.1583
19.7547,8.2103
19.8067,8.2882
19.8250,8.3800
19.8250,9.5000
19.8067,9.5918
19.7547,9.6697
19.6768,9.7217
19.5850,9.7400
17.6650,9.7400
17.5732,9.7217
17.4953,9.6697
17.4433,9.5918
17.4250,9.5000
Z" /> 
</g>
<g style="fill:#C83434; fill-opacity:1.0000; stroke:none;">
<circle cx="17.6450" cy="6.4000" r="0.8000" /> 
<path style="fill:#C83434; fill-opacity:1.0000; stroke:none;fill-rule:evenodd;"
d="M 17.4250,5.8400
17.4433,5.7482
17.4953,5.6703
17.5732,5.6183
17.6650,5.6000
19.5850,5.6000
19.6768,5.6183
19.7547,5.6703
19.8067,5.7482
19.8250,5.8400
19.8250,6.9600
19.8067,7.0518
19.7547,7.1297
19.6768,7.1817
19.5850,7.2000
17.6650,7.2000
17.5732,7.1817
17.4953,7.1297
17.4433,7.0518
17.4250,6.9600
Z" /> 
</g>
<g style="fill:#C83434; fill-opacity:1.0000; stroke:none;">
<circle cx="17.6450" cy="3.8600" r="0.8000" /> 
<path style="fill:#C83434; fill-opacity:1.0000; stroke:none;fill-rule:evenodd;"
d="M 17.4250,3.3000
17.4433,3.2082
17.4953,3.1303
17.5732,3.0783
17.6650,3.0600
19.5850,3.0600
19.6768,3.0783
19.7547,3.1303
19.8067,3.2082
19.8250,3.3000
19.8250,4.4200
19.8067,4.5118
19.7547,4.5897
19.6768,4.6417
19.5850,4.6600
17.6650,4.6600
17.5732,4.6417
17.4953,4.5897
17.4433,4.5118
17.4250,4.4200
Z" /> 
<path style="fill:#C83434; fill-opacity:1.0000; stroke:none;fill-rule:evenodd;"
d="M 4.6800,8.7850
4.6954,8.7075
4.7393,8.6418
4.8050,8.5979
4.8825,8.5825
6.2775,8.5825
6.3550,8.5979
6.4207,8.6418
6.4646,8.7075
6.4800,8.7850
6.4800,9.7300
6.4646,9.8075
6.4207,9.8732
6.3550,9.9171
6.2775,9.9325
4.8825,9.9325
4.8050,9.9171
4.7393,9.8732
4.6954,9.8075
4.6800,9.7300
Z" /> 
<path style="fill:#C83434; fill-opacity:1.0000; stroke:none;fill-rule:evenodd;"
d="M 4.3300,8.7850
4.3454,8.7075
4.3893,8.6418
4.4550,8.5979
4.5325,8.5825
6.6275,8.5825
6.7050,8.5979
6.7707,8.6418
6.8146,8.7075
6.8300,8.7850
6.8300,9.7300
6.8146,9.8075
6.7707,9.8732
6.7050,9.9171
6.6275,9.9325
4.5325,9.9325
4.4550,9.9171
4.3893,9.8732
4.3454,9.8075
4.3300,9.7300
Z" /> 
<path style="fill:#C83434; fill-opacity:1.0000; stroke:none;fill-rule:evenodd;"
d="M 4.6800,10.6900
4.6954,10.6125
4.7393,10.5468
4.8050,10.5029
4.8825,10.4875
6.2775,10.4875
6.3550,10.5029
6.4207,10.5468
6.4646,10.6125
6.4800,10.6900
6.4800,11.6350
6.4646,11.7125
6.4207,11.7782
6.3550,11.8221
6.2775,11.8375
4.8825,11.8375
4.8050,11.8221
4.7393,11.7782
4.6954,11.7125
4.6800,11.6350
Z" /> 
<path style="fill:#C83434; fill-opacity:1.0000; stroke:none;fill-rule:evenodd;"
d="M 4.3300,10.6900
4.3454,10.6125
4.3893,10.5468
4.4550,10.5029
4.5325,10.4875
6.6275,10.4875
6.7050,10.5029
6.7707,10.5468
6.8146,10.6125
6.8300,10.6900
6.8300,11.6350
6.8146,11.7125
6.7707,11.7782
6.7050,11.8221
6.6275,11.8375
4.5325,11.8375
4.4550,11.8221
4.3893,11.7782
4.3454,11.7125
4.3300,11.6350
Z" /> 
</g>
<g style="fill:none; 
stroke:#585D84; stroke-width:0.0444; stroke-opacity:1; 
stroke-linecap:round; stroke-linejoin:round;">
<text x="2.4050" y="4.1267"
textLength="0.5346" font-size="0.7111" lengthAdjust="spacingAndGlyphs"
text-anchor="middle" opacity="0" stroke-opacity="0">1</text>
<g class="stroked-text"><desc>1</desc>
<path d="M2.5574 4.1044
L2.2526 4.1044
" />
<path d="M2.4050 4.1044
L2.4050 3.5711
" />
<path d="M2.4050 3.5711
L2.3542 3.6473
" />
<path d="M2.3542 3.6473
L2.3034 3.6981
" />
<path d="M2.3034 3.6981
L2.2526 3.7235
" />
</g><path style="fill:none; 
stroke:#585D84; stroke-width:0.0212; stroke-opacity:1; 
stroke-linecap:round; stroke-linejoin:round;fill:none"
d="M 1.8450,4.6600
1.7532,4.6417
1.6753,4.5897
1.6233,4.5118
1.6050,4.4200
1.6050,3.3000
1.6233,3.2082
1.6753,3.1303
1.7532,3.0783
1.8450,3.0600
2.9650,3.0600
3.0568,3.0783
3.1347,3.1303
3.1867,3.2082
3.2050,3.3000
3.2050,4.4200
3.1867,4.5118
3.1347,4.5897
3.0568,4.6417
2.9650,4.6600
Z" /> 
</g>
<g style="fill:none; 
stroke:#585D84; stroke-width:0.0444; stroke-opacity:1; 
stroke-linecap:round; stroke-linejoin:round;">
<text x="2.4050" y="6.6667"
textLength="0.5346" font-size="0.7111" lengthAdjust="spacingAndGlyphs"
text-anchor="middle" opacity="0" stroke-opacity="0">2</text>
<g class="stroked-text"><desc>2</desc>
<path d="M2.2526 6.1619
L2.2780 6.1365
" />
<path d="M2.2780 6.1365
L2.3288 6.1111
" />
<path d="M2.3288 6.1111
L2.4558 6.1111
" />
<path d="M2.4558 6.1111
L2.5066 6.1365
" />
<path d="M2.5066 6.1365
L2.5320 6.1619
" />
<path d="M2.5320 6.1619
L2.5574 6.2127
" />
<path d="M2.5574 6.2127
L2.5574 6.2635
" />
<path d="M2.5574 6.2635
L2.5320 6.3397
" />
<path d="M2.5320 6.3397
L2.2272 6.6444
" />
<path d="M2.2272 6.6444
L2.5574 6.6444
" />
</g></g>
<g style="fill:none; 
stroke:#585D84; stroke-width:0.0212; stroke-opacity:1; 
stroke-linecap:round; stroke-linejoin:round;">
<circle cx="2.4050" cy="6.4000" r="0.8000" /> 
</g>
<g style="fill:none; 
stroke:#585D84; stroke-width:0.0444; stroke-opacity:1; 
stroke-linecap:round; stroke-linejoin:round;">
<text x="2.4050" y="9.2067"
textLength="0.5346" font-size="0.7111" lengthAdjust="spacingAndGlyphs"
text-anchor="middle" opacity="0" stroke-opacity="0">3</text>
<g class="stroked-text"><desc>3</desc>
<path d="M2.2272 8.6511
L2.5574 8.6511
" />
<path d="M2.5574 8.6511
L2.3796 8.8543
" />
<path d="M2.3796 8.8543
L2.4558 8.8543
" />
<path d="M2.4558 8.8543
L2.5066 8.8797
" />
<path d="M2.5066 8.8797
L2.5320 8.9051
" />
<path d="M2.5320 8.9051
L2.5574 8.9558
" />
<path d="M2.5574 8.9558
L2.5574 9.0828
" />
<path d="M2.5574 9.0828
L2.5320 9.1336
" />
<path d="M2.5320 9.1336
L2.5066 9.1590
" />
<path d="M2.5066 9.1590
L2.4558 9.1844
" />
<path d="M2.4558 9.1844
L2.3034 9.1844
" />
<path d="M2.3034 9.1844
L2.2526 9.1590
" />
<path d="M2.2526 9.1590
L2.2272 9.1336
" />
</g></g>
<g style="fill:none; 
stroke:#585D84; stroke-width:0.0212; stroke-opacity:1; 
stroke-linecap:round; stroke-linejoin:round;">
<circle cx="2.4050" cy="8.9400" r="0.8000" /> 
</g>
<g style="fill:none; 
stroke:#585D84; stroke-width:0.0444; stroke-opacity:1; 
stroke-linecap:round; stroke-linejoin:round;">
<text x="2.4050" y="11.7467"
textLength="0.5346" font-size="0.7111" lengthAdjust="spacingAndGlyphs"
text-anchor="middle" opacity="0" stroke-opacity="0">4</text>
<g class="stroked-text"><desc>4</desc>
<path d="M2.5066 11.3689
L2.5066 11.7244
" />
<path d="M2.3796 11.1657
L2.2526 11.5466
" />
<path d="M2.2526 11.5466
L2.5828 11.5466
" />
</g></g>
<g style="fill:none; 
stroke:#585D84; stroke-width:0.0212; stroke-opacity:1; 
stroke-linecap:round; stroke-linejoin:round;">
<circle cx="2.4050" cy="11.4800" r="0.8000" /> 
</g>
<g style="fill:none; 
stroke:#585D84; stroke-width:0.0444; stroke-opacity:1; 
stroke-linecap:round; stroke-linejoin:round;">
<text x="2.4050" y="14.2867"
textLength="0.5346" font-size="0.7111" lengthAdjust="spacingAndGlyphs"
text-anchor="middle" opacity="0" stroke-opacity="0">5</text>
<g class="stroked-text"><desc>5</desc>
<path d="M2.5320 13.7311
L2.2780 13.7311
" />
<path d="M2.2780 13.7311
L2.2526 13.9851
" />
<path d="M2.2526 13.9851
L2.2780 13.9597
" />
<path d="M2.2780 13.9597
L2.3288 13.9343
" />
<path d="M2.3288 13.9343
L2.4558 13.9343
" />
<path d="M2.4558 13.9343
L2.5066 13.9597
" />
<path d="M2.5066 13.9597
L2.5320 13.9851
" />
<path d="M2.5320 13.9851
L2.5574 14.0358
" />
<path d="M2.5574 14.0358
L2.5574 14.1628
" />
<path d="M2.5574 14.1628
L2.5320 14.2136
" />
<path d="M2.5320 14.2136
L2.5066 14.2390
" />
<path d="M2.5066 14.2390
L2.4558 14.2644
" />
<path d="M2.4558 14.2644
L2.3288 14.2644
" />
<path d="M2.3288 14.2644
L2.2780 14.2390
" />
<path d="M2.2780 14.2390
L2.2526 14.2136
" />
</g></g>
<g style="fill:none; 
stroke:#585D84; stroke-width:0.0212; stroke-opacity:1; 
stroke-linecap:round; stroke-linejoin:round;">
<circle cx="2.4050" cy="14.0200" r="0.8000" /> 
</g>
<g style="fill:none; 
stroke:#585D84; stroke-width:0.0444; stroke-opacity:1; 
stroke-linecap:round; stroke-linejoin:round;">
<text x="2.4050" y="16.8267"
textLength="0.5346" font-size="0.7111" lengthAdjust="spacingAndGlyphs"
text-anchor="middle" opacity="0" stroke-opacity="0">6</text>
<g class="stroked-text"><desc>6</desc>
<path d="M2.5066 16.2711
L2.4050 16.2711
" />
<path d="M2.4050 16.2711
L2.3542 16.2965
" />
<path d="M2.3542 16.2965
L2.3288 16.3219
" />
<path d="M2.3288 16.3219
L2.2780 16.3981
" />
<path d="M2.2780 16.3981
L2.2526 16.4997
" />
<path d="M2.2526 16.4997
L2.2526 16.7028
" />
<path d="M2.2526 16.7028
L2.2780 16.7536
" />
<path d="M2.2780 16.7536
L2.3034 16.7790
" />
<path d="M2.3034 16.7790
L2.3542 16.8044
" />
<path d="M2.3542 16.8044
L2.4558 16.8044
" />
<path d="M2.4558 16.8044
L2.5066 16.7790
" />
<path d="M2.5066 16.7790
L2.5320 16.7536
" />
<path d="M2.5320 16.7536
L2.5574 16.7028
" />
<path d="M2.5574 16.7028
L2.5574 16.5758
" />
<path d="M2.5574 16.5758
L2.5320 16.5251
" />
<path d="M2.5320 16.5251
L2.5066 16.4997
" />
<path d="M2.5066 16.4997
L2.4558 16.4743
" />
<path d="M2.4558 16.4743
L2.3542 16.4743
" />
<path d="M2.3542 16.4743
L2.3034 16.4997
" />
<path d="M2.3034 16.4997
L2.2780 16.5251
" />
<path d="M2.2780 16.5251
L2.2526 16.5758
" />
</g></g>
<g style="fill:none; 
stroke:#585D84; stroke-width:0.0212; stroke-opacity:1; 
stroke-linecap:round; stroke-linejoin:round;">
<circle cx="2.4050" cy="16.5600" r="0.8000" /> 
</g>
<g style="fill:none; 
stroke:#585D84; stroke-width:0.0444; stroke-opacity:1; 
stroke-linecap:round; stroke-linejoin:round;">
<text x="2.4050" y="19.3667"
textLength="0.5346" font-size="0.7111" lengthAdjust="spacingAndGlyphs"
text-anchor="middle" opacity="0" stroke-opacity="0">7</text>
<g class="stroked-text"><desc>7</desc>
<path d="M2.2272 18.8111
L2.5828 18.8111
" />
<path d="M2.5828 18.8111
L2.3542 19.3444
" />
</g></g>
<g style="fill:none; 
stroke:#585D84; stroke-width:0.0212; stroke-opacity:1; 
stroke-linecap:round; stroke-linejoin:round;">
<circle cx="2.4050" cy="19.1000" r="0.8000" /> 
</g>
<g style="fill:none; 
stroke:#585D84; stroke-width:0.0444; stroke-opacity:1; 
stroke-linecap:round; stroke-linejoin:round;">
<text x="17.6450" y="19.3667"
textLength="0.5346" font-size="0.7111" lengthAdjust="spacingAndGlyphs"
text-anchor="middle" opacity="0" stroke-opacity="0">8</text>
<g class="stroked-text"><desc>8</desc>
<path d="M17.5942 19.0397
L17.5434 19.0143
" />
<path d="M17.5434 19.0143
L17.5180 18.9889
" />
<path d="M17.5180 18.9889
L17.4926 18.9381
" />
<path d="M17.4926 18.9381
L17.4926 18.9127
" />
<path d="M17.4926 18.9127
L17.5180 18.8619
" />
<path d="M17.5180 18.8619
L17.5434 18.8365
" />
<path d="M17.5434 18.8365
L17.5942 18.8111
" />
<path d="M17.5942 18.8111
L17.6958 18.8111
" />
<path d="M17.6958 18.8111
L17.7466 18.8365
" />
<path d="M17.7466 18.8365
L17.7720 18.8619
" />
<path d="M17.7720 18.8619
L17.7974 18.9127
" />
<path d="M17.7974 18.9127
L17.7974 18.9381
" />
<path d="M17.7974 18.9381
L17.7720 18.9889
" />
<path d="M17.7720 18.9889
L17.7466 19.0143
" />
<path d="M17.7466 19.0143
L17.6958 19.0397
" />
<path d="M17.6958 19.0397
L17.5942 19.0397
" />
<path d="M17.5942 19.0397
L17.5434 19.0651
" />
<path d="M17.5434 19.0651
L17.5180 19.0905
" />
<path d="M17.5180 19.0905
L17.4926 19.1412
" />
<path d="M17.4926 19.1412
L17.4926 19.2428
" />
<path d="M17.4926 19.2428
L17.5180 19.2936
" />
<path d="M17.5180 19.2936
L17.5434 19.3190
" />
<path d="M17.5434 19.3190
L17.5942 19.3444
" />
<path d="M17.5942 19.3444
L17.6958 19.3444
" />
<path d="M17.6958 19.3444
L17.7466 19.3190
" />
<path d="M17.7466 19.3190
L17.7720 19.2936
" />
<path d="M17.7720 19.2936
L17.7974 19.2428
" />
<path d="M17.7974 19.2428
L17.7974 19.1412
" />
<path d="M17.7974 19.1412
L17.7720 19.0905
" />
<path d="M17.7720 19.0905
L17.7466 19.0651
" />
<path d="M17.7466 19.0651
L17.6958 19.0397
" />
</g></g>
<g style="fill:none; 
stroke:#585D84; stroke-width:0.0212; stroke-opacity:1; 
stroke-linecap:round; stroke-linejoin:round;">
<circle cx="17.6450" cy="19.1000" r="0.8000" /> 
</g>
<g style="fill:none; 
stroke:#585D84; stroke-width:0.0444; stroke-opacity:1; 
stroke-linecap:round; stroke-linejoin:round;">
<text x="17.6450" y="16.8267"
textLength="0.5346" font-size="0.7111" lengthAdjust="spacingAndGlyphs"
text-anchor="middle" opacity="0" stroke-opacity="0">9</text>
<g class="stroked-text"><desc>9</desc>
<path d="M17.5434 16.8044
L17.6450 16.8044
" />
<path d="M17.6450 16.8044
L17.6958 16.7790
" />
<path d="M17.6958 16.7790
L17.7212 16.7536
" />
<path d="M17.7212 16.7536
L17.7720 16.6774
" />
<path d="M17.7720 16.6774
L17.7974 16.5758
" />
<path d="M17.7974 16.5758
L17.7974 16.3727
" />
<path d="M17.7974 16.3727
L17.7720 16.3219
" />
<path d="M17.7720 16.3219
L17.7466 16.2965
" />
<path d="M17.7466 16.2965
L17.6958 16.2711
" />
<path d="M17.6958 16.2711
L17.5942 16.2711
" />
<path d="M17.5942 16.2711
L17.5434 16.2965
" />
<path d="M17.5434 16.2965
L17.5180 16.3219
" />
<path d="M17.5180 16.3219
L17.4926 16.3727
" />
<path d="M17.4926 16.3727
L17.4926 16.4997
" />
<path d="M17.4926 16.4997
L17.5180 16.5504
" />
<path d="M17.5180 16.5504
L17.5434 16.5758
" />
<path d="M17.5434 16.5758
L17.5942 16.6012
" />
<path d="M17.5942 16.6012
L17.6958 16.6012
" />
<path d="M17.6958 16.6012
L17.7466 16.5758
" />
<path d="M17.7466 16.5758
L17.7720 16.5504
" />
<path d="M17.7720 16.5504
L17.7974 16.4997
" />
</g></g>
<g style="fill:none; 
stroke:#585D84; stroke-width:0.0212; stroke-opacity:1; 
stroke-linecap:round; stroke-linejoin:round;">
<circle cx="17.6450" cy="16.5600" r="0.8000" /> 
</g>
<g style="fill:none; 
stroke:#585D84; stroke-width:0.0444; stroke-opacity:1; 
stroke-linecap:round; stroke-linejoin:round;">
<text x="17.6450" y="14.2867"
textLength="1.0425" font-size="0.7111" lengthAdjust="spacingAndGlyphs"
text-anchor="middle" opacity="0" stroke-opacity="0">10</text>
<g class="stroked-text"><desc>10</desc>
<path d="M17.5434 14.2644
L17.2387 14.2644
" />
<path d="M17.3910 14.2644
L17.3910 13.7311
" />
<path d="M17.3910 13.7311
L17.3402 13.8073
" />
<path d="M17.3402 13.8073
L17.2894 13.8581
" />
<path d="M17.2894 13.8581
L17.2387 13.8835
" />
<path d="M17.8736 13.7311
L17.9244 13.7311
" />
<path d="M17.9244 13.7311
L17.9752 13.7565
" />
<path d="M17.9752 13.7565
L18.0006 13.7819
" />
<path d="M18.0006 13.7819
L18.0260 13.8327
" />
<path d="M18.0260 13.8327
L18.0513 13.9343
" />
<path d="M18.0513 13.9343
L18.0513 14.0612
" />
<path d="M18.0513 14.0612
L18.0260 14.1628
" />
<path d="M18.0260 14.1628
L18.0006 14.2136
" />
<path d="M18.0006 14.2136
L17.9752 14.2390
" />
<path d="M17.9752 14.2390
L17.9244 14.2644
" />
<path d="M17.9244 14.2644
L17.8736 14.2644
" />
<path d="M17.8736 14.2644
L17.8228 14.2390
" />
<path d="M17.8228 14.2390
L17.7974 14.2136
" />
<path d="M17.7974 14.2136
L17.7720 14.1628
" />
<path d="M17.7720 14.1628
L17.7466 14.0612
" />
<path d="M17.7466 14.0612
L17.7466 13.9343
" />
<path d="M17.7466 13.9343
L17.7720 13.8327
" />
<path d="M17.7720 13.8327
L17.7974 13.7819
" />
<path d="M17.7974 13.7819
L17.8228 13.7565
" />
<path d="M17.8228 13.7565
L17.8736 13.7311
" />
</g></g>
<g style="fill:none; 
stroke:#585D84; stroke-width:0.0212; stroke-opacity:1; 
stroke-linecap:round; stroke-linejoin:round;">
<circle cx="17.6450" cy="14.0200" r="0.8000" /> 
</g>
<g style="fill:none; 
stroke:#585D84; stroke-width:0.0444; stroke-opacity:1; 
stroke-linecap:round; stroke-linejoin:round;">
<text x="17.6450" y="11.7467"
textLength="1.0425" font-size="0.7111" lengthAdjust="spacingAndGlyphs"
text-anchor="middle" opacity="0" stroke-opacity="0">11</text>
<g class="stroked-text"><desc>11</desc>
<path d="M17.5434 11.7244
L17.2387 11.7244
" />
<path d="M17.3910 11.7244
L17.3910 11.1911
" />
<path d="M17.3910 11.1911
L17.3402 11.2673
" />
<path d="M17.3402 11.2673
L17.2894 11.3181
" />
<path d="M17.2894 11.3181
L17.2387 11.3435
" />
<path d="M18.0513 11.7244
L17.7466 11.7244
" />
<path d="M17.8990 11.7244
L17.8990 11.1911
" />
<path d="M17.8990 11.1911
L17.8482 11.2673
" />
<path d="M17.8482 11.2673
L17.7974 11.3181
" />
<path d="M17.7974 11.3181
L17.7466 11.3435
" />
</g></g>
<g style="fill:none; 
stroke:#585D84; stroke-width:0.0212; stroke-opacity:1; 
stroke-linecap:round; stroke-linejoin:round;">
<circle cx="17.6450" cy="11.4800" r="0.8000" /> 
</g>
<g style="fill:none; 
stroke:#585D84; stroke-width:0.0444; stroke-opacity:1; 
stroke-linecap:round; stroke-linejoin:round;">
<text x="17.6450" y="9.2067"
textLength="1.0425" font-size="0.7111" lengthAdjust="spacingAndGlyphs"
text-anchor="middle" opacity="0" stroke-opacity="0">12</text>
<g class="stroked-text"><desc>12</desc>
<path d="M17.5434 9.1844
L17.2387 9.1844
" />
<path d="M17.3910 9.1844
L17.3910 8.6511
" />
<path d="M17.3910 8.6511
L17.3402 8.7273
" />
<path d="M17.3402 8.7273
L17.2894 8.7781
" />
<path d="M17.2894 8.7781
L17.2387 8.8035
" />
<path d="M17.7466 8.7019
L17.7720 8.6765
" />
<path d="M17.7720 8.6765
L17.8228 8.6511
" />
<path d="M17.8228 8.6511
L17.9498 8.6511
" />
<path d="M17.9498 8.6511
L18.0006 8.6765
" />
<path d="M18.0006 8.6765
L18.0260 8.7019
" />
<path d="M18.0260 8.7019
L18.0513 8.7527
" />
<path d="M18.0513 8.7527
L18.0513 8.8035
" />
<path d="M18.0513 8.8035
L18.0260 8.8797
" />
<path d="M18.0260 8.8797
L17.7212 9.1844
" />
<path d="M17.7212 9.1844
L18.0513 9.1844
" />
</g></g>
<g style="fill:none; 
stroke:#585D84; stroke-width:0.0212; stroke-opacity:1; 
stroke-linecap:round; stroke-linejoin:round;">
<circle cx="17.6450" cy="8.9400" r="0.8000" /> 
</g>
<g style="fill:none; 
stroke:#585D84; stroke-width:0.0444; stroke-opacity:1; 
stroke-linecap:round; stroke-linejoin:round;">
<text x="17.6450" y="6.6667"
textLength="1.0425" font-size="0.7111" lengthAdjust="spacingAndGlyphs"
text-anchor="middle" opacity="0" stroke-opacity="0">13</text>
<g class="stroked-text"><desc>13</desc>
<path d="M17.5434 6.6444
L17.2387 6.6444
" />
<path d="M17.3910 6.6444
L17.3910 6.1111
" />
<path d="M17.3910 6.1111
L17.3402 6.1873
" />
<path d="M17.3402 6.1873
L17.2894 6.2381
" />
<path d="M17.2894 6.2381
L17.2387 6.2635
" />
<path d="M17.7212 6.1111
L18.0513 6.1111
" />
<path d="M18.0513 6.1111
L17.8736 6.3143
" />
<path d="M17.8736 6.3143
L17.9498 6.3143
" />
<path d="M17.9498 6.3143
L18.0006 6.3397
" />
<path d="M18.0006 6.3397
L18.0260 6.3651
" />
<path d="M18.0260 6.3651
L18.0513 6.4158
" />
<path d="M18.0513 6.4158
L18.0513 6.5428
" />
<path d="M18.0513 6.5428
L18.0260 6.5936
" />
<path d="M18.0260 6.5936
L18.0006 6.6190
" />
<path d="M18.0006 6.6190
L17.9498 6.6444
" />
<path d="M17.9498 6.6444
L17.7974 6.6444
" />
<path d="M17.7974 6.6444
L17.7466 6.6190
" />
<path d="M17.7466 6.6190
L17.7212 6.5936
" />
</g></g>
<g style="fill:none; 
stroke:#585D84; stroke-width:0.0212; stroke-opacity:1; 
stroke-linecap:round; stroke-linejoin:round;">
<circle cx="17.6450" cy="6.4000" r="0.8000" /> 
</g>
<g style="fill:none; 
stroke:#585D84; stroke-width:0.0444; stroke-opacity:1; 
stroke-linecap:round; stroke-linejoin:round;">
<text x="17.6450" y="4.1267"
textLength="1.0425" font-size="0.7111" lengthAdjust="spacingAndGlyphs"
text-anchor="middle" opacity="0" stroke-opacity="0">14</text>
<g class="stroked-text"><desc>14</desc>
<path d="M17.5434 4.1044
L17.2387 4.1044
" />
<path d="M17.3910 4.1044
L17.3910 3.5711
" />
<path d="M17.3910 3.5711
L17.3402 3.6473
" />
<path d="M17.3402 3.6473
L17.2894 3.6981
" />
<path d="M17.2894 3.6981
L17.2387 3.7235
" />
<path d="M18.0006 3.7489
L18.0006 4.1044
" />
<path d="M17.8736 3.5457
L17.7466 3.9266
" />
<path d="M17.7466 3.9266
L18.0767 3.9266
" />
</g></g>
<g style="fill:none; 
stroke:#585D84; stroke-width:0.0212; stroke-opacity:1; 
stroke-linecap:round; stroke-linejoin:round;">
<circle cx="17.6450" cy="3.8600" r="0.8000" /> 
</g>
<g style="fill:none; 
stroke:#585D84; stroke-width:0.0500; stroke-opacity:1; 
stroke-linecap:round; stroke-linejoin:round;">
<text x="5.5800" y="9.5575"
textLength="1.2014" font-size="0.8000" lengthAdjust="spacingAndGlyphs"
text-anchor="middle" opacity="0" stroke-opacity="0">B1</text>
<g class="stroked-text"><desc>B1</desc>
<path d="M5.3371 9.2182
L5.4229 9.2468
" />
<path d="M5.4229 9.2468
L5.4514 9.2753
" />
<path d="M5.4514 9.2753
L5.4800 9.3325
" />
<path d="M5.4800 9.3325
L5.4800 9.4182
" />
<path d="M5.4800 9.4182
L5.4514 9.4753
" />
<path d="M5.4514 9.4753
L5.4229 9.5039
" />
<path d="M5.4229 9.5039
L5.3657 9.5325
" />
<path d="M5.3657 9.5325
L5.1371 9.5325
" />
<path d="M5.1371 9.5325
L5.1371 8.9325
" />
<path d="M5.1371 8.9325
L5.3371 8.9325
" />
<path d="M5.3371 8.9325
L5.3943 8.9610
" />
<path d="M5.3943 8.9610
L5.4229 8.9896
" />
<path d="M5.4229 8.9896
L5.4514 9.0468
" />
<path d="M5.4514 9.0468
L5.4514 9.1039
" />
<path d="M5.4514 9.1039
L5.4229 9.1610
" />
<path d="M5.4229 9.1610
L5.3943 9.1896
" />
<path d="M5.3943 9.1896
L5.3371 9.2182
" />
<path d="M5.3371 9.2182
L5.1371 9.2182
" />
<path d="M6.0514 9.5325
L5.7086 9.5325
" />
<path d="M5.8800 9.5325
L5.8800 8.9325
" />
<path d="M5.8800 8.9325
L5.8229 9.0182
" />
<path d="M5.8229 9.0182
L5.7657 9.0753
" />
<path d="M5.7657 9.0753
L5.7086 9.1039
" />
</g><path style="fill:none; 
stroke:#585D84; stroke-width:0.0212; stroke-opacity:1; 
stroke-linecap:round; stroke-linejoin:round;fill:none"
d="M 4.6800,8.7850
4.6954,8.7075
4.7393,8.6418
4.8050,8.5979
4.8825,8.5825
6.2775,8.5825
6.3550,8.5979
6.4207,8.6418
6.4646,8.7075
6.4800,8.7850
6.4800,9.7300
6.4646,9.8075
6.4207,9.8732
6.3550,9.9171
6.2775,9.9325
4.8825,9.9325
4.8050,9.9171
4.7393,9.8732
4.6954,9.8075
4.6800,9.7300
Z" /> 
</g>
<g style="fill:none; 
stroke:#585D84; stroke-width:0.0500; stroke-opacity:1; 
stroke-linecap:round; stroke-linejoin:round;">
<text x="5.5800" y="11.4625"
textLength="1.2014" font-size="0.8000" lengthAdjust="spacingAndGlyphs"
text-anchor="middle" opacity="0" stroke-opacity="0">B2</text>
<g class="stroked-text"><desc>B2</desc>
<path d="M5.3371 11.1232
L5.4229 11.1518
" />
<path d="M5.4229 11.1518
L5.4514 11.1803
" />
<path d="M5.4514 11.1803
L5.4800 11.2375
" />
<path d="M5.4800 11.2375
L5.4800 11.3232
" />
<path d="M5.4800 11.3232
L5.4514 11.3803
" />
<path d="M5.4514 11.3803
L5.4229 11.4089
" />
<path d="M5.4229 11.4089
L5.3657 11.4375
" />
<path d="M5.3657 11.4375
L5.1371 11.4375
" />
<path d="M5.1371 11.4375
L5.1371 10.8375
" />
<path d="M5.1371 10.8375
L5.3371 10.8375
" />
<path d="M5.3371 10.8375
L5.3943 10.8660
" />
<path d="M5.3943 10.8660
L5.4229 10.8946
" />
<path d="M5.4229 10.8946
L5.4514 10.9518
" />
<path d="M5.4514 10.9518
L5.4514 11.0089
" />
<path d="M5.4514 11.0089
L5.4229 11.0660
" />
<path d="M5.4229 11.0660
L5.3943 11.0946
" />
<path d="M5.3943 11.0946
L5.3371 11.1232
" />
<path d="M5.3371 11.1232
L5.1371 11.1232
" />
<path d="M5.7086 10.8946
L5.7371 10.8660
" />
<path d="M5.7371 10.8660
L5.7943 10.8375
" />
<path d="M5.7943 10.8375
L5.9371 10.8375
" />
<path d="M5.9371 10.8375
L5.9943 10.8660
" />
<path d="M5.9943 10.8660
L6.0229 10.8946
" />
<path d="M6.0229 10.8946
L6.0514 10.9518
" />
<path d="M6.0514 10.9518
L6.0514 11.0089
" />
<path d="M6.0514 11.0089
L6.0229 11.0946
" />
<path d="M6.0229 11.0946
L5.6800 11.4375
" />
<path d="M5.6800 11.4375
L6.0514 11.4375
" />
</g><path style="fill:none; 
stroke:#585D84; stroke-width:0.0212; stroke-opacity:1; 
stroke-linecap:round; stroke-linejoin:round;fill:none"
d="M 4.6800,10.6900
4.6954,10.6125
4.7393,10.5468
4.8050,10.5029
4.8825,10.4875
6.2775,10.4875
6.3550,10.5029
6.4207,10.5468
6.4646,10.6125
6.4800,10.6900
6.4800,11.6350
6.4646,11.7125
6.4207,11.7782
6.3550,11.8221
6.2775,11.8375
4.8825,11.8375
4.8050,11.8221
4.7393,11.7782
4.6954,11.7125
4.6800,11.6350
Z" /> 
</g>
<g style="fill:none; 
stroke:#AFAFAF; stroke-width:0.1500; stroke-opacity:1; 
stroke-linecap:round; stroke-linejoin:round;">
<text x="10.0250" y="24.0450"
textLength="19.2024" font-size="1.3333" lengthAdjust="spacingAndGlyphs"
text-anchor="middle" opacity="0" stroke-opacity="0">MCU_XIAO_nRF52840_BAT</text>
<g class="stroked-text"><desc>MCU_XIAO_nRF52840_BAT</desc>
<path d="M0.7869 23.9998
L0.7869 22.9998
" />
<path d="M0.7869 22.9998
L1.1202 23.7141
" />
<path d="M1.1202 23.7141
L1.4536 22.9998
" />
<path d="M1.4536 22.9998
L1.4536 23.9998
" />
<path d="M2.5012 23.9046
L2.4536 23.9522
" />
<path d="M2.4536 23.9522
L2.3107 23.9998
" />
<path d="M2.3107 23.9998
L2.2155 23.9998
" />
<path d="M2.2155 23.9998
L2.0726 23.9522
" />
<path d="M2.0726 23.9522
L1.9774 23.8570
" />
<path d="M1.9774 23.8570
L1.9298 23.7617
" />
<path d="M1.9298 23.7617
L1.8821 23.5712
" />
<path d="M1.8821 23.5712
L1.8821 23.4284
" />
<path d="M1.8821 23.4284
L1.9298 23.2379
" />
<path d="M1.9298 23.2379
L1.9774 23.1427
" />
<path d="M1.9774 23.1427
L2.0726 23.0474
" />
<path d="M2.0726 23.0474
L2.2155 22.9998
" />
<path d="M2.2155 22.9998
L2.3107 22.9998
" />
<path d="M2.3107 22.9998
L2.4536 23.0474
" />
<path d="M2.4536 23.0474
L2.5012 23.0951
" />
<path d="M2.9298 22.9998
L2.9298 23.8093
" />
<path d="M2.9298 23.8093
L2.9774 23.9046
" />
<path d="M2.9774 23.9046
L3.0250 23.9522
" />
<path d="M3.0250 23.9522
L3.1202 23.9998
" />
<path d="M3.1202 23.9998
L3.3107 23.9998
" />
<path d="M3.3107 23.9998
L3.4060 23.9522
" />
<path d="M3.4060 23.9522
L3.4536 23.9046
" />
<path d="M3.4536 23.9046
L3.5012 23.8093
" />
<path d="M3.5012 23.8093
L3.5012 22.9998
" />
<path d="M3.7393 24.0951
L4.5012 24.0951
" />
<path d="M4.6440 22.9998
L5.3107 23.9998
" />
<path d="M5.3107 22.9998
L4.6440 23.9998
" />
<path d="M5.6917 23.9998
L5.6917 22.9998
" />
<path d="M6.1202 23.7141
L6.5964 23.7141
" />
<path d="M6.0250 23.9998
L6.3583 22.9998
" />
<path d="M6.3583 22.9998
L6.6917 23.9998
" />
<path d="M7.2155 22.9998
L7.4060 22.9998
" />
<path d="M7.4060 22.9998
L7.5012 23.0474
" />
<path d="M7.5012 23.0474
L7.5964 23.1427
" />
<path d="M7.5964 23.1427
L7.6440 23.3332
" />
<path d="M7.6440 23.3332
L7.6440 23.6665
" />
<path d="M7.6440 23.6665
L7.5964 23.8570
" />
<path d="M7.5964 23.8570
L7.5012 23.9522
" />
<path d="M7.5012 23.9522
L7.4060 23.9998
" />
<path d="M7.4060 23.9998
L7.2155 23.9998
" />
<path d="M7.2155 23.9998
L7.1202 23.9522
" />
<path d="M7.1202 23.9522
L7.0250 23.8570
" />
<path d="M7.0250 23.8570
L6.9774 23.6665
" />
<path d="M6.9774 23.6665
L6.9774 23.3332
" />
<path d="M6.9774 23.3332
L7.0250 23.1427
" />
<path d="M7.0250 23.1427
L7.1202 23.0474
" />
<path d="M7.1202 23.0474
L7.2155 22.9998
" />
<path d="M7.8345 24.0951
L8.5964 24.0951
" />
<path d="M8.8345 23.3332
L8.8345 23.9998
" />
<path d="M8.8345 23.4284
L8.8821 23.3808
" />
<path d="M8.8821 23.3808
L8.9774 23.3332
" />
<path d="M8.9774 23.3332
L9.1202 23.3332
" />
<path d="M9.1202 23.3332
L9.2155 23.3808
" />
<path d="M9.2155 23.3808
L9.2631 23.4760
" />
<path d="M9.2631 23.4760
L9.2631 23.9998
" />
<path d="M10.3107 23.9998
L9.9774 23.5236
" />
<path d="M9.7393 23.9998
L9.7393 22.9998
" />
<path d="M9.7393 22.9998
L10.1202 22.9998
" />
<path d="M10.1202 22.9998
L10.2155 23.0474
" />
<path d="M10.2155 23.0474
L10.2631 23.0951
" />
<path d="M10.2631 23.0951
L10.3107 23.1903
" />
<path d="M10.3107 23.1903
L10.3107 23.3332
" />
<path d="M10.3107 23.3332
L10.2631 23.4284
" />
<path d="M10.2631 23.4284
L10.2155 23.4760
" />
<path d="M10.2155 23.4760
L10.1202 23.5236
" />
<path d="M10.1202 23.5236
L9.7393 23.5236
" />
<path d="M11.0726 23.4760
L10.7393 23.4760
" />
<path d="M10.7393 23.9998
L10.7393 22.9998
" />
<path d="M10.7393 22.9998
L11.2155 22.9998
" />
<path d="M12.0726 22.9998
L11.5964 22.9998
" />
<path d="M11.5964 22.9998
L11.5488 23.4760
" />
<path d="M11.5488 23.4760
L11.5964 23.4284
" />
<path d="M11.5964 23.4284
L11.6917 23.3808
" />
<path d="M11.6917 23.3808
L11.9298 23.3808
" />
<path d="M11.9298 23.3808
L12.0250 23.4284
" />
<path d="M12.0250 23.4284
L12.0726 23.4760
" />
<path d="M12.0726 23.4760
L12.1202 23.5712
" />
<path d="M12.1202 23.5712
L12.1202 23.8093
" />
<path d="M12.1202 23.8093
L12.0726 23.9046
" />
<path d="M12.0726 23.9046
L12.0250 23.9522
" />
<path d="M12.0250 23.9522
L11.9298 23.9998
" />
<path d="M11.9298 23.9998
L11.6917 23.9998
" />
<path d="M11.6917 23.9998
L11.5964 23.9522
" />
<path d="M11.5964 23.9522
L11.5488 23.9046
" />
<path d="M12.5012 23.0951
L12.5488 23.0474
" />
<path d="M12.5488 23.0474
L12.6440 22.9998
" />
<path d="M12.6440 22.9998
L12.8821 22.9998
" />
<path d="M12.8821 22.9998
L12.9774 23.0474
" />
<path d="M12.9774 23.0474
L13.0250 23.0951
" />
<path d="M13.0250 23.0951
L13.0726 23.1903
" />
<path d="M13.0726 23.1903
L13.0726 23.2855
" />
<path d="M13.0726 23.2855
L13.0250 23.4284
" />
<path d="M13.0250 23.4284
L12.4536 23.9998
" />
<path d="M12.4536 23.9998
L13.0726 23.9998
" />
<path d="M13.6440 23.4284
L13.5488 23.3808
" />
<path d="M13.5488 23.3808
L13.5012 23.3332
" />
<path d="M13.5012 23.3332
L13.4536 23.2379
" />
<path d="M13.4536 23.2379
L13.4536 23.1903
" />
<path d="M13.4536 23.1903
L13.5012 23.0951
" />
<path d="M13.5012 23.0951
L13.5488 23.0474
" />
<path d="M13.5488 23.0474
L13.6440 22.9998
" />
<path d="M13.6440 22.9998
L13.8345 22.9998
" />
<path d="M13.8345 22.9998
L13.9298 23.0474
" />
<path d="M13.9298 23.0474
L13.9774 23.0951
" />
<path d="M13.9774 23.0951
L14.0250 23.1903
" />
<path d="M14.0250 23.1903
L14.0250 23.2379
" />
<path d="M14.0250 23.2379
L13.9774 23.3332
" />
<path d="M13.9774 23.3332
L13.9298 23.3808
" />
<path d="M13.9298 23.3808
L13.8345 23.4284
" />
<path d="M13.8345 23.4284
L13.6440 23.4284
" />
<path d="M13.6440 23.4284
L13.5488 23.4760
" />
<path d="M13.5488 23.4760
L13.5012 23.5236
" />
<path d="M13.5012 23.5236
L13.4536 23.6189
" />
<path d="M13.4536 23.6189
L13.4536 23.8093
" />
<path d="M13.4536 23.8093
L13.5012 23.9046
" />
<path d="M13.5012 23.9046
L13.5488 23.9522
" />
<path d="M13.5488 23.9522
L13.6440 23.9998
" />
<path d="M13.6440 23.9998
L13.8345 23.9998
" />
<path d="M13.8345 23.9998
L13.9298 23.9522
" />
<path d="M13.9298 23.9522
L13.9774 23.9046
" />
<path d="M13.9774 23.9046
L14.0250 23.8093
" />
<path d="M14.0250 23.8093
L14.0250 23.6189
" />
<path d="M14.0250 23.6189
L13.9774 23.5236
" />
<path d="M13.9774 23.5236
L13.9298 23.4760
" />
<path d="M13.9298 23.4760
L13.8345 23.4284
" />
<path d="M14.8821 23.3332
L14.8821 23.9998
" />
<path d="M14.6440 22.9522
L14.4060 23.6665
" />
<path d="M14.4060 23.6665
L15.0250 23.6665
" />
<path d="M15.5964 22.9998
L15.6917 22.9998
" />
<path d="M15.6917 22.9998
L15.7869 23.0474
" />
<path d="M15.7869 23.0474
L15.8345 23.0951
" />
<path d="M15.8345 23.0951
L15.8821 23.1903
" />
<path d="M15.8821 23.1903
L15.9298 23.3808
" />
<path d="M15.9298 23.3808
L15.9298 23.6189
" />
<path d="M15.9298 23.6189
L15.8821 23.8093
" />
<path d="M15.8821 23.8093
L15.8345 23.9046
" />
<path d="M15.8345 23.9046
L15.7869 23.9522
" />
<path d="M15.7869 23.9522
L15.6917 23.9998
" />
<path d="M15.6917 23.9998
L15.5964 23.9998
" />
<path d="M15.5964 23.9998
L15.5012 23.9522
" />
<path d="M15.5012 23.9522
L15.4536 23.9046
" />
<path d="M15.4536 23.9046
L15.4060 23.8093
" />
<path d="M15.4060 23.8093
L15.3583 23.6189
" />
<path d="M15.3583 23.6189
L15.3583 23.3808
" />
<path d="M15.3583 23.3808
L15.4060 23.1903
" />
<path d="M15.4060 23.1903
L15.4536 23.0951
" />
<path d="M15.4536 23.0951
L15.5012 23.0474
" />
<path d="M15.5012 23.0474
L15.5964 22.9998
" />
<path d="M16.1202 24.0951
L16.8821 24.0951
" />
<path d="M17.4536 23.4760
L17.5964 23.5236
" />
<path d="M17.5964 23.5236
L17.6440 23.5712
" />
<path d="M17.6440 23.5712
L17.6917 23.6665
" />
<path d="M17.6917 23.6665
L17.6917 23.8093
" />
<path d="M17.6917 23.8093
L17.6440 23.9046
" />
<path d="M17.6440 23.9046
L17.5964 23.9522
" />
<path d="M17.5964 23.9522
L17.5012 23.9998
" />
<path d="M17.5012 23.9998
L17.1202 23.9998
" />
<path d="M17.1202 23.9998
L17.1202 22.9998
" />
<path d="M17.1202 22.9998
L17.4536 22.9998
" />
<path d="M17.4536 22.9998
L17.5488 23.0474
" />
<path d="M17.5488 23.0474
L17.5964 23.0951
" />
<path d="M17.5964 23.0951
L17.6440 23.1903
" />
<path d="M17.6440 23.1903
L17.6440 23.2855
" />
<path d="M17.6440 23.2855
L17.5964 23.3808
" />
<path d="M17.5964 23.3808
L17.5488 23.4284
" />
<path d="M17.5488 23.4284
L17.4536 23.4760
" />
<path d="M17.4536 23.4760
L17.1202 23.4760
" />
<path d="M18.0726 23.7141
L18.5488 23.7141
" />
<path d="M17.9774 23.9998
L18.3107 22.9998
" />
<path d="M18.3107 22.9998
L18.6440 23.9998
" />
<path d="M18.8345 22.9998
L19.4060 22.9998
" />
<path d="M19.1202 23.9998
L19.1202 22.9998
" />
</g><text x="10.0250" y="11.9800"
textLength="4.5357" font-size="1.3333" lengthAdjust="spacingAndGlyphs"
text-anchor="middle" opacity="0" stroke-opacity="0">REF**</text>
<g class="stroked-text"><desc>REF**</desc>
<path d="M8.6917 11.9348
L8.3583 11.4586
" />
<path d="M8.1202 11.9348
L8.1202 10.9348
" />
<path d="M8.1202 10.9348
L8.5012 10.9348
" />
<path d="M8.5012 10.9348
L8.5964 10.9824
" />
<path d="M8.5964 10.9824
L8.6440 11.0301
" />
<path d="M8.6440 11.0301
L8.6917 11.1253
" />
<path d="M8.6917 11.1253
L8.6917 11.2682
" />
<path d="M8.6917 11.2682
L8.6440 11.3634
" />
<path d="M8.6440 11.3634
L8.5964 11.4110
" />
<path d="M8.5964 11.4110
L8.5012 11.4586
" />
<path d="M8.5012 11.4586
L8.1202 11.4586
" />
<path d="M9.1202 11.4110
L9.4536 11.4110
" />
<path d="M9.5964 11.9348
L9.1202 11.9348
" />
<path d="M9.1202 11.9348
L9.1202 10.9348
" />
<path d="M9.1202 10.9348
L9.5964 10.9348
" />
<path d="M10.3583 11.4110
L10.0250 11.4110
" />
<path d="M10.0250 11.9348
L10.0250 10.9348
" />
<path d="M10.0250 10.9348
L10.5012 10.9348
" />
<path d="M11.0250 10.9348
L11.0250 11.1729
" />
<path d="M10.7869 11.0777
L11.0250 11.1729
" />
<path d="M11.0250 11.1729
L11.2631 11.0777
" />
<path d="M10.8821 11.3634
L11.0250 11.1729
" />
<path d="M11.0250 11.1729
L11.1679 11.3634
" />
<path d="M11.7869 10.9348
L11.7869 11.1729
" />
<path d="M11.5488 11.0777
L11.7869 11.1729
" />
<path d="M11.7869 11.1729
L12.0250 11.0777
" />
<path d="M11.6440 11.3634
L11.7869 11.1729
" />
<path d="M11.7869 11.1729
L11.9298 11.3634
" />
</g></g>
<g style="fill:none; 
stroke:#AFAFAF; stroke-width:0.1000; stroke-opacity:1; 
stroke-linecap:round; stroke-linejoin:round;">
<path d="M1.1350 20.1575
L1.1350 2.8500
" />
<path d="M2.9350 1.0500
L17.1150 1.0500
" />
<path d="M17.1150 21.9575
L2.9350 21.9575
" />
<path d="M18.9150 2.8500
L18.9150 20.1575
" />
<path style="fill:none; 
stroke:#AFAFAF; stroke-width:0.1000; stroke-opacity:1; 
stroke-linecap:round; stroke-linejoin:round;fill:none"
d="M 5.5250,0.0500
14.5250,0.0500
14.5250,1.0500
5.5250,1.0500
Z" /> 
<path d="M2.9350 1.0500 A1.8000 1.8000 0.0 0 0 1.1350 2.8500" />
<path d="M1.1350 20.1575 A1.8000 1.8000 0.0 0 0 2.9350 21.9575" />
<path d="M18.9150 2.8500 A1.8000 1.8000 0.0 0 0 17.1150 1.0500" />
<path d="M17.1150 21.9575 A1.8000 1.8000 0.0 0 0 18.9150 20.1575" />
</g>
<g style="fill:none; 
stroke:#AFAFAF; stroke-width:0.0667; stroke-opacity:1; 
stroke-linecap:round; stroke-linejoin:round;">
<text x="1.4250" y="4.2600"
textLength="0.8019" font-size="1.0667" lengthAdjust="spacingAndGlyphs"
text-anchor="middle" opacity="0" stroke-opacity="0">1</text>
<g class="stroked-text"><desc>1</desc>
<path d="M1.6536 4.2266
L1.1964 4.2266
" />
<path d="M1.4250 4.2266
L1.4250 3.4266
" />
<path d="M1.4250 3.4266
L1.3488 3.5409
" />
<path d="M1.3488 3.5409
L1.2726 3.6171
" />
<path d="M1.2726 3.6171
L1.1964 3.6552
" />
</g><path style="fill:none; 
stroke:#AFAFAF; stroke-width:0.0212; stroke-opacity:1; 
stroke-linecap:round; stroke-linejoin:round;fill:none"
d="M 0.2250,3.3000
0.2433,3.2082
0.2953,3.1303
0.3732,3.0783
0.4650,3.0600
2.3850,3.0600
2.4768,3.0783
2.5547,3.1303
2.6067,3.2082
2.6250,3.3000
2.6250,4.4200
2.6067,4.5118
2.5547,4.5897
2.4768,4.6417
2.3850,4.6600
0.4650,4.6600
0.3732,4.6417
0.2953,4.5897
0.2433,4.5118
0.2250,4.4200
Z" /> 
</g>
<g style="fill:none; 
stroke:#AFAFAF; stroke-width:0.0444; stroke-opacity:1; 
stroke-linecap:round; stroke-linejoin:round;">
<text x="2.4050" y="4.1267"
textLength="0.5346" font-size="0.7111" lengthAdjust="spacingAndGlyphs"
text-anchor="middle" opacity="0" stroke-opacity="0">1</text>
<g class="stroked-text"><desc>1</desc>
<path d="M2.5574 4.1044
L2.2526 4.1044
" />
<path d="M2.4050 4.1044
L2.4050 3.5711
" />
<path d="M2.4050 3.5711
L2.3542 3.6473
" />
<path d="M2.3542 3.6473
L2.3034 3.6981
" />
<path d="M2.3034 3.6981
L2.2526 3.7235
" />
</g><path style="fill:none; 
stroke:#AFAFAF; stroke-width:0.0212; stroke-opacity:1; 
stroke-linecap:round; stroke-linejoin:round;fill:none"
d="M 1.8450,4.6600
1.7532,4.6417
1.6753,4.5897
1.6233,4.5118
1.6050,4.4200
1.6050,3.3000
1.6233,3.2082
1.6753,3.1303
1.7532,3.0783
1.8450,3.0600
2.9650,3.0600
3.0568,3.0783
3.1347,3.1303
3.1867,3.2082
3.2050,3.3000
3.2050,4.4200
3.1867,4.5118
3.1347,4.5897
3.0568,4.6417
2.9650,4.6600
Z" /> 
</g>
<g style="fill:none; 
stroke:#AFAFAF; stroke-width:0.0667; stroke-opacity:1; 
stroke-linecap:round; stroke-linejoin:round;">
<text x="1.4250" y="6.8000"
textLength="0.8019" font-size="1.0667" lengthAdjust="spacingAndGlyphs"
text-anchor="middle" opacity="0" stroke-opacity="0">2</text>
<g class="stroked-text"><desc>2</desc>
<path d="M1.1964 6.0428
L1.2345 6.0047
" />
<path d="M1.2345 6.0047
L1.3107 5.9666
" />
<path d="M1.3107 5.9666
L1.5012 5.9666
" />
<path d="M1.5012 5.9666
L1.5774 6.0047
" />
<path d="M1.5774 6.0047
L1.6155 6.0428
" />
<path d="M1.6155 6.0428
L1.6536 6.1190
" />
<path d="M1.6536 6.1190
L1.6536 6.1952
" />
<path d="M1.6536 6.1952
L1.6155 6.3095
" />
<path d="M1.6155 6.3095
L1.1583 6.7666
" />
<path d="M1.1583 6.7666
L1.6536 6.7666
" />
</g><path style="fill:none; 
stroke:#AFAFAF; stroke-width:0.0212; stroke-opacity:1; 
stroke-linecap:round; stroke-linejoin:round;fill:none"
d="M 0.2250,5.8400
0.2433,5.7482
0.2953,5.6703
0.3732,5.6183
0.4650,5.6000
2.3850,5.6000
2.4768,5.6183
2.5547,5.6703
2.6067,5.7482
2.6250,5.8400
2.6250,6.9600
2.6067,7.0518
2.5547,7.1297
2.4768,7.1817
2.3850,7.2000
0.4650,7.2000
0.3732,7.1817
0.2953,7.1297
0.2433,7.0518
0.2250,6.9600
Z" /> 
</g>
<g style="fill:none; 
stroke:#AFAFAF; stroke-width:0.0444; stroke-opacity:1; 
stroke-linecap:round; stroke-linejoin:round;">
<text x="2.4050" y="6.6667"
textLength="0.5346" font-size="0.7111" lengthAdjust="spacingAndGlyphs"
text-anchor="middle" opacity="0" stroke-opacity="0">2</text>
<g class="stroked-text"><desc>2</desc>
<path d="M2.2526 6.1619
L2.2780 6.1365
" />
<path d="M2.2780 6.1365
L2.3288 6.1111
" />
<path d="M2.3288 6.1111
L2.4558 6.1111
" />
<path d="M2.4558 6.1111
L2.5066 6.1365
" />
<path d="M2.5066 6.1365
L2.5320 6.1619
" />
<path d="M2.5320 6.1619
L2.5574 6.2127
" />
<path d="M2.5574 6.2127
L2.5574 6.2635
" />
<path d="M2.5574 6.2635
L2.5320 6.3397
" />
<path d="M2.5320 6.3397
L2.2272 6.6444
" />
<path d="M2.2272 6.6444
L2.5574 6.6444
" />
</g></g>
<g style="fill:none; 
stroke:#AFAFAF; stroke-width:0.0212; stroke-opacity:1; 
stroke-linecap:round; stroke-linejoin:round;">
<circle cx="2.4050" cy="6.4000" r="0.8000" /> 
</g>
<g style="fill:none; 
stroke:#AFAFAF; stroke-width:0.0667; stroke-opacity:1; 
stroke-linecap:round; stroke-linejoin:round;">
<text x="1.4250" y="9.3400"
textLength="0.8019" font-size="1.0667" lengthAdjust="spacingAndGlyphs"
text-anchor="middle" opacity="0" stroke-opacity="0">3</text>
<g class="stroked-text"><desc>3</desc>
<path d="M1.1583 8.5066
L1.6536 8.5066
" />
<path d="M1.6536 8.5066
L1.3869 8.8114
" />
<path d="M1.3869 8.8114
L1.5012 8.8114
" />
<path d="M1.5012 8.8114
L1.5774 8.8495
" />
<path d="M1.5774 8.8495
L1.6155 8.8876
" />
<path d="M1.6155 8.8876
L1.6536 8.9638
" />
<path d="M1.6536 8.9638
L1.6536 9.1542
" />
<path d="M1.6536 9.1542
L1.6155 9.2304
" />
<path d="M1.6155 9.2304
L1.5774 9.2685
" />
<path d="M1.5774 9.2685
L1.5012 9.3066
" />
<path d="M1.5012 9.3066
L1.2726 9.3066
" />
<path d="M1.2726 9.3066
L1.1964 9.2685
" />
<path d="M1.1964 9.2685
L1.1583 9.2304
" />
</g><path style="fill:none; 
stroke:#AFAFAF; stroke-width:0.0212; stroke-opacity:1; 
stroke-linecap:round; stroke-linejoin:round;fill:none"
d="M 0.2250,8.3800
0.2433,8.2882
0.2953,8.2103
0.3732,8.1583
0.4650,8.1400
2.3850,8.1400
2.4768,8.1583
2.5547,8.2103
2.6067,8.2882
2.6250,8.3800
2.6250,9.5000
2.6067,9.5918
2.5547,9.6697
2.4768,9.7217
2.3850,9.7400
0.4650,9.7400
0.3732,9.7217
0.2953,9.6697
0.2433,9.5918
0.2250,9.5000
Z" /> 
</g>
<g style="fill:none; 
stroke:#AFAFAF; stroke-width:0.0444; stroke-opacity:1; 
stroke-linecap:round; stroke-linejoin:round;">
<text x="2.4050" y="9.2067"
textLength="0.5346" font-size="0.7111" lengthAdjust="spacingAndGlyphs"
text-anchor="middle" opacity="0" stroke-opacity="0">3</text>
<g class="stroked-text"><desc>3</desc>
<path d="M2.2272 8.6511
L2.5574 8.6511
" />
<path d="M2.5574 8.6511
L2.3796 8.8543
" />
<path d="M2.3796 8.8543
L2.4558 8.8543
" />
<path d="M2.4558 8.8543
L2.5066 8.8797
" />
<path d="M2.5066 8.8797
L2.5320 8.9051
" />
<path d="M2.5320 8.9051
L2.5574 8.9558
" />
<path d="M2.5574 8.9558
L2.5574 9.0828
" />
<path d="M2.5574 9.0828
L2.5320 9.1336
" />
<path d="M2.5320 9.1336
L2.5066 9.1590
" />
<path d="M2.5066 9.1590
L2.4558 9.1844
" />
<path d="M2.4558 9.1844
L2.3034 9.1844
" />
<path d="M2.3034 9.1844
L2.2526 9.1590
" />
<path d="M2.2526 9.1590
L2.2272 9.1336
" />
</g></g>
<g style="fill:none; 
stroke:#AFAFAF; stroke-width:0.0212; stroke-opacity:1; 
stroke-linecap:round; stroke-linejoin:round;">
<circle cx="2.4050" cy="8.9400" r="0.8000" /> 
</g>
<g style="fill:none; 
stroke:#AFAFAF; stroke-width:0.0667; stroke-opacity:1; 
stroke-linecap:round; stroke-linejoin:round;">
<text x="1.4250" y="11.8800"
textLength="0.8019" font-size="1.0667" lengthAdjust="spacingAndGlyphs"
text-anchor="middle" opacity="0" stroke-opacity="0">4</text>
<g class="stroked-text"><desc>4</desc>
<path d="M1.5774 11.3133
L1.5774 11.8466
" />
<path d="M1.3869 11.0085
L1.1964 11.5800
" />
<path d="M1.1964 11.5800
L1.6917 11.5800
" />
</g><path style="fill:none; 
stroke:#AFAFAF; stroke-width:0.0212; stroke-opacity:1; 
stroke-linecap:round; stroke-linejoin:round;fill:none"
d="M 0.2250,10.9200
0.2433,10.8282
0.2953,10.7503
0.3732,10.6983
0.4650,10.6800
2.3850,10.6800
2.4768,10.6983
2.5547,10.7503
2.6067,10.8282
2.6250,10.9200
2.6250,12.0400
2.6067,12.1318
2.5547,12.2097
2.4768,12.2617
2.3850,12.2800
0.4650,12.2800
0.3732,12.2617
0.2953,12.2097
0.2433,12.1318
0.2250,12.0400
Z" /> 
</g>
<g style="fill:none; 
stroke:#AFAFAF; stroke-width:0.0444; stroke-opacity:1; 
stroke-linecap:round; stroke-linejoin:round;">
<text x="2.4050" y="11.7467"
textLength="0.5346" font-size="0.7111" lengthAdjust="spacingAndGlyphs"
text-anchor="middle" opacity="0" stroke-opacity="0">4</text>
<g class="stroked-text"><desc>4</desc>
<path d="M2.5066 11.3689
L2.5066 11.7244
" />
<path d="M2.3796 11.1657
L2.2526 11.5466
" />
<path d="M2.2526 11.5466
L2.5828 11.5466
" />
</g></g>
<g style="fill:none; 
stroke:#AFAFAF; stroke-width:0.0212; stroke-opacity:1; 
stroke-linecap:round; stroke-linejoin:round;">
<circle cx="2.4050" cy="11.4800" r="0.8000" /> 
</g>
<g style="fill:none; 
stroke:#AFAFAF; stroke-width:0.0667; stroke-opacity:1; 
stroke-linecap:round; stroke-linejoin:round;">
<text x="1.4250" y="14.4200"
textLength="0.8019" font-size="1.0667" lengthAdjust="spacingAndGlyphs"
text-anchor="middle" opacity="0" stroke-opacity="0">5</text>
<g class="stroked-text"><desc>5</desc>
<path d="M1.6155 13.5866
L1.2345 13.5866
" />
<path d="M1.2345 13.5866
L1.1964 13.9676
" />
<path d="M1.1964 13.9676
L1.2345 13.9295
" />
<path d="M1.2345 13.9295
L1.3107 13.8914
" />
<path d="M1.3107 13.8914
L1.5012 13.8914
" />
<path d="M1.5012 13.8914
L1.5774 13.9295
" />
<path d="M1.5774 13.9295
L1.6155 13.9676
" />
<path d="M1.6155 13.9676
L1.6536 14.0438
" />
<path d="M1.6536 14.0438
L1.6536 14.2342
" />
<path d="M1.6536 14.2342
L1.6155 14.3104
" />
<path d="M1.6155 14.3104
L1.5774 14.3485
" />
<path d="M1.5774 14.3485
L1.5012 14.3866
" />
<path d="M1.5012 14.3866
L1.3107 14.3866
" />
<path d="M1.3107 14.3866
L1.2345 14.3485
" />
<path d="M1.2345 14.3485
L1.1964 14.3104
" />
</g><path style="fill:none; 
stroke:#AFAFAF; stroke-width:0.0212; stroke-opacity:1; 
stroke-linecap:round; stroke-linejoin:round;fill:none"
d="M 0.2250,13.4600
0.2433,13.3682
0.2953,13.2903
0.3732,13.2383
0.4650,13.2200
2.3850,13.2200
2.4768,13.2383
2.5547,13.2903
2.6067,13.3682
2.6250,13.4600
2.6250,14.5800
2.6067,14.6718
2.5547,14.7497
2.4768,14.8017
2.3850,14.8200
0.4650,14.8200
0.3732,14.8017
0.2953,14.7497
0.2433,14.6718
0.2250,14.5800
Z" /> 
</g>
<g style="fill:none; 
stroke:#AFAFAF; stroke-width:0.0444; stroke-opacity:1; 
stroke-linecap:round; stroke-linejoin:round;">
<text x="2.4050" y="14.2867"
textLength="0.5346" font-size="0.7111" lengthAdjust="spacingAndGlyphs"
text-anchor="middle" opacity="0" stroke-opacity="0">5</text>
<g class="stroked-text"><desc>5</desc>
<path d="M2.5320 13.7311
L2.2780 13.7311
" />
<path d="M2.2780 13.7311
L2.2526 13.9851
" />
<path d="M2.2526 13.9851
L2.2780 13.9597
" />
<path d="M2.2780 13.9597
L2.3288 13.9343
" />
<path d="M2.3288 13.9343
L2.4558 13.9343
" />
<path d="M2.4558 13.9343
L2.5066 13.9597
" />
<path d="M2.5066 13.9597
L2.5320 13.9851
" />
<path d="M2.5320 13.9851
L2.5574 14.0358
" />
<path d="M2.5574 14.0358
L2.5574 14.1628
" />
<path d="M2.5574 14.1628
L2.5320 14.2136
" />
<path d="M2.5320 14.2136
L2.5066 14.2390
" />
<path d="M2.5066 14.2390
L2.4558 14.2644
" />
<path d="M2.4558 14.2644
L2.3288 14.2644
" />
<path d="M2.3288 14.2644
L2.2780 14.2390
" />
<path d="M2.2780 14.2390
L2.2526 14.2136
" />
</g></g>
<g style="fill:none; 
stroke:#AFAFAF; stroke-width:0.0212; stroke-opacity:1; 
stroke-linecap:round; stroke-linejoin:round;">
<circle cx="2.4050" cy="14.0200" r="0.8000" /> 
</g>
<g style="fill:none; 
stroke:#AFAFAF; stroke-width:0.0667; stroke-opacity:1; 
stroke-linecap:round; stroke-linejoin:round;">
<text x="1.4250" y="16.9600"
textLength="0.8019" font-size="1.0667" lengthAdjust="spacingAndGlyphs"
text-anchor="middle" opacity="0" stroke-opacity="0">6</text>
<g class="stroked-text"><desc>6</desc>
<path d="M1.5774 16.1266
L1.4250 16.1266
" />
<path d="M1.4250 16.1266
L1.3488 16.1647
" />
<path d="M1.3488 16.1647
L1.3107 16.2028
" />
<path d="M1.3107 16.2028
L1.2345 16.3171
" />
<path d="M1.2345 16.3171
L1.1964 16.4695
" />
<path d="M1.1964 16.4695
L1.1964 16.7742
" />
<path d="M1.1964 16.7742
L1.2345 16.8504
" />
<path d="M1.2345 16.8504
L1.2726 16.8885
" />
<path d="M1.2726 16.8885
L1.3488 16.9266
" />
<path d="M1.3488 16.9266
L1.5012 16.9266
" />
<path d="M1.5012 16.9266
L1.5774 16.8885
" />
<path d="M1.5774 16.8885
L1.6155 16.8504
" />
<path d="M1.6155 16.8504
L1.6536 16.7742
" />
<path d="M1.6536 16.7742
L1.6536 16.5838
" />
<path d="M1.6536 16.5838
L1.6155 16.5076
" />
<path d="M1.6155 16.5076
L1.5774 16.4695
" />
<path d="M1.5774 16.4695
L1.5012 16.4314
" />
<path d="M1.5012 16.4314
L1.3488 16.4314
" />
<path d="M1.3488 16.4314
L1.2726 16.4695
" />
<path d="M1.2726 16.4695
L1.2345 16.5076
" />
<path d="M1.2345 16.5076
L1.1964 16.5838
" />
</g><path style="fill:none; 
stroke:#AFAFAF; stroke-width:0.0212; stroke-opacity:1; 
stroke-linecap:round; stroke-linejoin:round;fill:none"
d="M 0.2250,16.0000
0.2433,15.9082
0.2953,15.8303
0.3732,15.7783
0.4650,15.7600
2.3850,15.7600
2.4768,15.7783
2.5547,15.8303
2.6067,15.9082
2.6250,16.0000
2.6250,17.1200
2.6067,17.2118
2.5547,17.2897
2.4768,17.3417
2.3850,17.3600
0.4650,17.3600
0.3732,17.3417
0.2953,17.2897
0.2433,17.2118
0.2250,17.1200
Z" /> 
</g>
<g style="fill:none; 
stroke:#AFAFAF; stroke-width:0.0444; stroke-opacity:1; 
stroke-linecap:round; stroke-linejoin:round;">
<text x="2.4050" y="16.8267"
textLength="0.5346" font-size="0.7111" lengthAdjust="spacingAndGlyphs"
text-anchor="middle" opacity="0" stroke-opacity="0">6</text>
<g class="stroked-text"><desc>6</desc>
<path d="M2.5066 16.2711
L2.4050 16.2711
" />
<path d="M2.4050 16.2711
L2.3542 16.2965
" />
<path d="M2.3542 16.2965
L2.3288 16.3219
" />
<path d="M2.3288 16.3219
L2.2780 16.3981
" />
<path d="M2.2780 16.3981
L2.2526 16.4997
" />
<path d="M2.2526 16.4997
L2.2526 16.7028
" />
<path d="M2.2526 16.7028
L2.2780 16.7536
" />
<path d="M2.2780 16.7536
L2.3034 16.7790
" />
<path d="M2.3034 16.7790
L2.3542 16.8044
" />
<path d="M2.3542 16.8044
L2.4558 16.8044
" />
<path d="M2.4558 16.8044
L2.5066 16.7790
" />
<path d="M2.5066 16.7790
L2.5320 16.7536
" />
<path d="M2.5320 16.7536
L2.5574 16.7028
" />
<path d="M2.5574 16.7028
L2.5574 16.5758
" />
<path d="M2.5574 16.5758
L2.5320 16.5251
" />
<path d="M2.5320 16.5251
L2.5066 16.4997
" />
<path d="M2.5066 16.4997
L2.4558 16.4743
" />
<path d="M2.4558 16.4743
L2.3542 16.4743
" />
<path d="M2.3542 16.4743
L2.3034 16.4997
" />
<path d="M2.3034 16.4997
L2.2780 16.5251
" />
<path d="M2.2780 16.5251
L2.2526 16.5758
" />
</g></g>
<g style="fill:none; 
stroke:#AFAFAF; stroke-width:0.0212; stroke-opacity:1; 
stroke-linecap:round; stroke-linejoin:round;">
<circle cx="2.4050" cy="16.5600" r="0.8000" /> 
</g>
<g style="fill:none; 
stroke:#AFAFAF; stroke-width:0.0667; stroke-opacity:1; 
stroke-linecap:round; stroke-linejoin:round;">
<text x="1.4250" y="19.5000"
textLength="0.8019" font-size="1.0667" lengthAdjust="spacingAndGlyphs"
text-anchor="middle" opacity="0" stroke-opacity="0">7</text>
<g class="stroked-text"><desc>7</desc>
<path d="M1.1583 18.6666
L1.6917 18.6666
" />
<path d="M1.6917 18.6666
L1.3488 19.4666
" />
</g><path style="fill:none; 
stroke:#AFAFAF; stroke-width:0.0212; stroke-opacity:1; 
stroke-linecap:round; stroke-linejoin:round;fill:none"
d="M 0.2250,18.5400
0.2433,18.4482
0.2953,18.3703
0.3732,18.3183
0.4650,18.3000
2.3850,18.3000
2.4768,18.3183
2.5547,18.3703
2.6067,18.4482
2.6250,18.5400
2.6250,19.6600
2.6067,19.7518
2.5547,19.8297
2.4768,19.8817
2.3850,19.9000
0.4650,19.9000
0.3732,19.8817
0.2953,19.8297
0.2433,19.7518
0.2250,19.6600
Z" /> 
</g>
<g style="fill:none; 
stroke:#AFAFAF; stroke-width:0.0444; stroke-opacity:1; 
stroke-linecap:round; stroke-linejoin:round;">
<text x="2.4050" y="19.3667"
textLength="0.5346" font-size="0.7111" lengthAdjust="spacingAndGlyphs"
text-anchor="middle" opacity="0" stroke-opacity="0">7</text>
<g class="stroked-text"><desc>7</desc>
<path d="M2.2272 18.8111
L2.5828 18.8111
" />
<path d="M2.5828 18.8111
L2.3542 19.3444
" />
</g></g>
<g style="fill:none; 
stroke:#AFAFAF; stroke-width:0.0212; stroke-opacity:1; 
stroke-linecap:round; stroke-linejoin:round;">
<circle cx="2.4050" cy="19.1000" r="0.8000" /> 
</g>
<g style="fill:none; 
stroke:#AFAFAF; stroke-width:0.0444; stroke-opacity:1; 
stroke-linecap:round; stroke-linejoin:round;">
<text x="17.6450" y="19.3667"
textLength="0.5346" font-size="0.7111" lengthAdjust="spacingAndGlyphs"
text-anchor="middle" opacity="0" stroke-opacity="0">8</text>
<g class="stroked-text"><desc>8</desc>
<path d="M17.5942 19.0397
L17.5434 19.0143
" />
<path d="M17.5434 19.0143
L17.5180 18.9889
" />
<path d="M17.5180 18.9889
L17.4926 18.9381
" />
<path d="M17.4926 18.9381
L17.4926 18.9127
" />
<path d="M17.4926 18.9127
L17.5180 18.8619
" />
<path d="M17.5180 18.8619
L17.5434 18.8365
" />
<path d="M17.5434 18.8365
L17.5942 18.8111
" />
<path d="M17.5942 18.8111
L17.6958 18.8111
" />
<path d="M17.6958 18.8111
L17.7466 18.8365
" />
<path d="M17.7466 18.8365
L17.7720 18.8619
" />
<path d="M17.7720 18.8619
L17.7974 18.9127
" />
<path d="M17.7974 18.9127
L17.7974 18.9381
" />
<path d="M17.7974 18.9381
L17.7720 18.9889
" />
<path d="M17.7720 18.9889
L17.7466 19.0143
" />
<path d="M17.7466 19.0143
L17.6958 19.0397
" />
<path d="M17.6958 19.0397
L17.5942 19.0397
" />
<path d="M17.5942 19.0397
L17.5434 19.0651
" />
<path d="M17.5434 19.0651
L17.5180 19.0905
" />
<path d="M17.5180 19.0905
L17.4926 19.1412
" />
<path d="M17.4926 19.1412
L17.4926 19.2428
" />
<path d="M17.4926 19.2428
L17.5180 19.2936
" />
<path d="M17.5180 19.2936
L17.5434 19.3190
" />
<path d="M17.5434 19.3190
L17.5942 19.3444
" />
<path d="M17.5942 19.3444
L17.6958 19.3444
" />
<path d="M17.6958 19.3444
L17.7466 19.3190
" />
<path d="M17.7466 19.3190
L17.7720 19.2936
" />
<path d="M17.7720 19.2936
L17.7974 19.2428
" />
<path d="M17.7974 19.2428
L17.7974 19.1412
" />
<path d="M17.7974 19.1412
L17.7720 19.0905
" />
<path d="M17.7720 19.0905
L17.7466 19.0651
" />
<path d="M17.7466 19.0651
L17.6958 19.0397
" />
</g></g>
<g style="fill:none; 
stroke:#AFAFAF; stroke-width:0.0212; stroke-opacity:1; 
stroke-linecap:round; stroke-linejoin:round;">
<circle cx="17.6450" cy="19.1000" r="0.8000" /> 
</g>
<g style="fill:none; 
stroke:#AFAFAF; stroke-width:0.0667; stroke-opacity:1; 
stroke-linecap:round; stroke-linejoin:round;">
<text x="18.6250" y="19.5000"
textLength="0.8019" font-size="1.0667" lengthAdjust="spacingAndGlyphs"
text-anchor="middle" opacity="0" stroke-opacity="0">8</text>
<g class="stroked-text"><desc>8</desc>
<path d="M18.5488 19.0095
L18.4726 18.9714
" />
<path d="M18.4726 18.9714
L18.4345 18.9333
" />
<path d="M18.4345 18.9333
L18.3964 18.8571
" />
<path d="M18.3964 18.8571
L18.3964 18.8190
" />
<path d="M18.3964 18.8190
L18.4345 18.7428
" />
<path d="M18.4345 18.7428
L18.4726 18.7047
" />
<path d="M18.4726 18.7047
L18.5488 18.6666
" />
<path d="M18.5488 18.6666
L18.7012 18.6666
" />
<path d="M18.7012 18.6666
L18.7774 18.7047
" />
<path d="M18.7774 18.7047
L18.8155 18.7428
" />
<path d="M18.8155 18.7428
L18.8536 18.8190
" />
<path d="M18.8536 18.8190
L18.8536 18.8571
" />
<path d="M18.8536 18.8571
L18.8155 18.9333
" />
<path d="M18.8155 18.9333
L18.7774 18.9714
" />
<path d="M18.7774 18.9714
L18.7012 19.0095
" />
<path d="M18.7012 19.0095
L18.5488 19.0095
" />
<path d="M18.5488 19.0095
L18.4726 19.0476
" />
<path d="M18.4726 19.0476
L18.4345 19.0857
" />
<path d="M18.4345 19.0857
L18.3964 19.1619
" />
<path d="M18.3964 19.1619
L18.3964 19.3142
" />
<path d="M18.3964 19.3142
L18.4345 19.3904
" />
<path d="M18.4345 19.3904
L18.4726 19.4285
" />
<path d="M18.4726 19.4285
L18.5488 19.4666
" />
<path d="M18.5488 19.4666
L18.7012 19.4666
" />
<path d="M18.7012 19.4666
L18.7774 19.4285
" />
<path d="M18.7774 19.4285
L18.8155 19.3904
" />
<path d="M18.8155 19.3904
L18.8536 19.3142
" />
<path d="M18.8536 19.3142
L18.8536 19.1619
" />
<path d="M18.8536 19.1619
L18.8155 19.0857
" />
<path d="M18.8155 19.0857
L18.7774 19.0476
" />
<path d="M18.7774 19.0476
L18.7012 19.0095
" />
</g><path style="fill:none; 
stroke:#AFAFAF; stroke-width:0.0212; stroke-opacity:1; 
stroke-linecap:round; stroke-linejoin:round;fill:none"
d="M 17.4250,18.5400
17.4433,18.4482
17.4953,18.3703
17.5732,18.3183
17.6650,18.3000
19.5850,18.3000
19.6768,18.3183
19.7547,18.3703
19.8067,18.4482
19.8250,18.5400
19.8250,19.6600
19.8067,19.7518
19.7547,19.8297
19.6768,19.8817
19.5850,19.9000
17.6650,19.9000
17.5732,19.8817
17.4953,19.8297
17.4433,19.7518
17.4250,19.6600
Z" /> 
</g>
<g style="fill:none; 
stroke:#AFAFAF; stroke-width:0.0444; stroke-opacity:1; 
stroke-linecap:round; stroke-linejoin:round;">
<text x="17.6450" y="16.8267"
textLength="0.5346" font-size="0.7111" lengthAdjust="spacingAndGlyphs"
text-anchor="middle" opacity="0" stroke-opacity="0">9</text>
<g class="stroked-text"><desc>9</desc>
<path d="M17.5434 16.8044
L17.6450 16.8044
" />
<path d="M17.6450 16.8044
L17.6958 16.7790
" />
<path d="M17.6958 16.7790
L17.7212 16.7536
" />
<path d="M17.7212 16.7536
L17.7720 16.6774
" />
<path d="M17.7720 16.6774
L17.7974 16.5758
" />
<path d="M17.7974 16.5758
L17.7974 16.3727
" />
<path d="M17.7974 16.3727
L17.7720 16.3219
" />
<path d="M17.7720 16.3219
L17.7466 16.2965
" />
<path d="M17.7466 16.2965
L17.6958 16.2711
" />
<path d="M17.6958 16.2711
L17.5942 16.2711
" />
<path d="M17.5942 16.2711
L17.5434 16.2965
" />
<path d="M17.5434 16.2965
L17.5180 16.3219
" />
<path d="M17.5180 16.3219
L17.4926 16.3727
" />
<path d="M17.4926 16.3727
L17.4926 16.4997
" />
<path d="M17.4926 16.4997
L17.5180 16.5504
" />
<path d="M17.5180 16.5504
L17.5434 16.5758
" />
<path d="M17.5434 16.5758
L17.5942 16.6012
" />
<path d="M17.5942 16.6012
L17.6958 16.6012
" />
<path d="M17.6958 16.6012
L17.7466 16.5758
" />
<path d="M17.7466 16.5758
L17.7720 16.5504
" />
<path d="M17.7720 16.5504
L17.7974 16.4997
" />
</g></g>
<g style="fill:none; 
stroke:#AFAFAF; stroke-width:0.0212; stroke-opacity:1; 
stroke-linecap:round; stroke-linejoin:round;">
<circle cx="17.6450" cy="16.5600" r="0.8000" /> 
</g>
<g style="fill:none; 
stroke:#AFAFAF; stroke-width:0.0667; stroke-opacity:1; 
stroke-linecap:round; stroke-linejoin:round;">
<text x="18.6250" y="16.9600"
textLength="0.8019" font-size="1.0667" lengthAdjust="spacingAndGlyphs"
text-anchor="middle" opacity="0" stroke-opacity="0">9</text>
<g class="stroked-text"><desc>9</desc>
<path d="M18.4726 16.9266
L18.6250 16.9266
" />
<path d="M18.6250 16.9266
L18.7012 16.8885
" />
<path d="M18.7012 16.8885
L18.7393 16.8504
" />
<path d="M18.7393 16.8504
L18.8155 16.7362
" />
<path d="M18.8155 16.7362
L18.8536 16.5838
" />
<path d="M18.8536 16.5838
L18.8536 16.2790
" />
<path d="M18.8536 16.2790
L18.8155 16.2028
" />
<path d="M18.8155 16.2028
L18.7774 16.1647
" />
<path d="M18.7774 16.1647
L18.7012 16.1266
" />
<path d="M18.7012 16.1266
L18.5488 16.1266
" />
<path d="M18.5488 16.1266
L18.4726 16.1647
" />
<path d="M18.4726 16.1647
L18.4345 16.2028
" />
<path d="M18.4345 16.2028
L18.3964 16.2790
" />
<path d="M18.3964 16.2790
L18.3964 16.4695
" />
<path d="M18.3964 16.4695
L18.4345 16.5457
" />
<path d="M18.4345 16.5457
L18.4726 16.5838
" />
<path d="M18.4726 16.5838
L18.5488 16.6219
" />
<path d="M18.5488 16.6219
L18.7012 16.6219
" />
<path d="M18.7012 16.6219
L18.7774 16.5838
" />
<path d="M18.7774 16.5838
L18.8155 16.5457
" />
<path d="M18.8155 16.5457
L18.8536 16.4695
" />
</g><path style="fill:none; 
stroke:#AFAFAF; stroke-width:0.0212; stroke-opacity:1; 
stroke-linecap:round; stroke-linejoin:round;fill:none"
d="M 17.4250,16.0000
17.4433,15.9082
17.4953,15.8303
17.5732,15.7783
17.6650,15.7600
19.5850,15.7600
19.6768,15.7783
19.7547,15.8303
19.8067,15.9082
19.8250,16.0000
19.8250,17.1200
19.8067,17.2118
19.7547,17.2897
19.6768,17.3417
19.5850,17.3600
17.6650,17.3600
17.5732,17.3417
17.4953,17.2897
17.4433,17.2118
17.4250,17.1200
Z" /> 
</g>
<g style="fill:none; 
stroke:#AFAFAF; stroke-width:0.0444; stroke-opacity:1; 
stroke-linecap:round; stroke-linejoin:round;">
<text x="17.6450" y="14.2867"
textLength="1.0425" font-size="0.7111" lengthAdjust="spacingAndGlyphs"
text-anchor="middle" opacity="0" stroke-opacity="0">10</text>
<g class="stroked-text"><desc>10</desc>
<path d="M17.5434 14.2644
L17.2387 14.2644
" />
<path d="M17.3910 14.2644
L17.3910 13.7311
" />
<path d="M17.3910 13.7311
L17.3402 13.8073
" />
<path d="M17.3402 13.8073
L17.2894 13.8581
" />
<path d="M17.2894 13.8581
L17.2387 13.8835
" />
<path d="M17.8736 13.7311
L17.9244 13.7311
" />
<path d="M17.9244 13.7311
L17.9752 13.7565
" />
<path d="M17.9752 13.7565
L18.0006 13.7819
" />
<path d="M18.0006 13.7819
L18.0260 13.8327
" />
<path d="M18.0260 13.8327
L18.0513 13.9343
" />
<path d="M18.0513 13.9343
L18.0513 14.0612
" />
<path d="M18.0513 14.0612
L18.0260 14.1628
" />
<path d="M18.0260 14.1628
L18.0006 14.2136
" />
<path d="M18.0006 14.2136
L17.9752 14.2390
" />
<path d="M17.9752 14.2390
L17.9244 14.2644
" />
<path d="M17.9244 14.2644
L17.8736 14.2644
" />
<path d="M17.8736 14.2644
L17.8228 14.2390
" />
<path d="M17.8228 14.2390
L17.7974 14.2136
" />
<path d="M17.7974 14.2136
L17.7720 14.1628
" />
<path d="M17.7720 14.1628
L17.7466 14.0612
" />
<path d="M17.7466 14.0612
L17.7466 13.9343
" />
<path d="M17.7466 13.9343
L17.7720 13.8327
" />
<path d="M17.7720 13.8327
L17.7974 13.7819
" />
<path d="M17.7974 13.7819
L17.8228 13.7565
" />
<path d="M17.8228 13.7565
L17.8736 13.7311
" />
</g></g>
<g style="fill:none; 
stroke:#AFAFAF; stroke-width:0.0212; stroke-opacity:1; 
stroke-linecap:round; stroke-linejoin:round;">
<circle cx="17.6450" cy="14.0200" r="0.8000" /> 
</g>
<g style="fill:none; 
stroke:#AFAFAF; stroke-width:0.0667; stroke-opacity:1; 
stroke-linecap:round; stroke-linejoin:round;">
<text x="18.6250" y="14.4200"
textLength="1.5638" font-size="1.0667" lengthAdjust="spacingAndGlyphs"
text-anchor="middle" opacity="0" stroke-opacity="0">10</text>
<g class="stroked-text"><desc>10</desc>
<path d="M18.4726 14.3866
L18.0155 14.3866
" />
<path d="M18.2440 14.3866
L18.2440 13.5866
" />
<path d="M18.2440 13.5866
L18.1679 13.7009
" />
<path d="M18.1679 13.7009
L18.0917 13.7771
" />
<path d="M18.0917 13.7771
L18.0155 13.8152
" />
<path d="M18.9679 13.5866
L19.0440 13.5866
" />
<path d="M19.0440 13.5866
L19.1202 13.6247
" />
<path d="M19.1202 13.6247
L19.1583 13.6628
" />
<path d="M19.1583 13.6628
L19.1964 13.7390
" />
<path d="M19.1964 13.7390
L19.2345 13.8914
" />
<path d="M19.2345 13.8914
L19.2345 14.0819
" />
<path d="M19.2345 14.0819
L19.1964 14.2342
" />
<path d="M19.1964 14.2342
L19.1583 14.3104
" />
<path d="M19.1583 14.3104
L19.1202 14.3485
" />
<path d="M19.1202 14.3485
L19.0440 14.3866
" />
<path d="M19.0440 14.3866
L18.9679 14.3866
" />
<path d="M18.9679 14.3866
L18.8917 14.3485
" />
<path d="M18.8917 14.3485
L18.8536 14.3104
" />
<path d="M18.8536 14.3104
L18.8155 14.2342
" />
<path d="M18.8155 14.2342
L18.7774 14.0819
" />
<path d="M18.7774 14.0819
L18.7774 13.8914
" />
<path d="M18.7774 13.8914
L18.8155 13.7390
" />
<path d="M18.8155 13.7390
L18.8536 13.6628
" />
<path d="M18.8536 13.6628
L18.8917 13.6247
" />
<path d="M18.8917 13.6247
L18.9679 13.5866
" />
</g><path style="fill:none; 
stroke:#AFAFAF; stroke-width:0.0212; stroke-opacity:1; 
stroke-linecap:round; stroke-linejoin:round;fill:none"
d="M 17.4250,13.4600
17.4433,13.3682
17.4953,13.2903
17.5732,13.2383
17.6650,13.2200
19.5850,13.2200
19.6768,13.2383
19.7547,13.2903
19.8067,13.3682
19.8250,13.4600
19.8250,14.5800
19.8067,14.6718
19.7547,14.7497
19.6768,14.8017
19.5850,14.8200
17.6650,14.8200
17.5732,14.8017
17.4953,14.7497
17.4433,14.6718
17.4250,14.5800
Z" /> 
</g>
<g style="fill:none; 
stroke:#AFAFAF; stroke-width:0.0444; stroke-opacity:1; 
stroke-linecap:round; stroke-linejoin:round;">
<text x="17.6450" y="11.7467"
textLength="1.0425" font-size="0.7111" lengthAdjust="spacingAndGlyphs"
text-anchor="middle" opacity="0" stroke-opacity="0">11</text>
<g class="stroked-text"><desc>11</desc>
<path d="M17.5434 11.7244
L17.2387 11.7244
" />
<path d="M17.3910 11.7244
L17.3910 11.1911
" />
<path d="M17.3910 11.1911
L17.3402 11.2673
" />
<path d="M17.3402 11.2673
L17.2894 11.3181
" />
<path d="M17.2894 11.3181
L17.2387 11.3435
" />
<path d="M18.0513 11.7244
L17.7466 11.7244
" />
<path d="M17.8990 11.7244
L17.8990 11.1911
" />
<path d="M17.8990 11.1911
L17.8482 11.2673
" />
<path d="M17.8482 11.2673
L17.7974 11.3181
" />
<path d="M17.7974 11.3181
L17.7466 11.3435
" />
</g></g>
<g style="fill:none; 
stroke:#AFAFAF; stroke-width:0.0212; stroke-opacity:1; 
stroke-linecap:round; stroke-linejoin:round;">
<circle cx="17.6450" cy="11.4800" r="0.8000" /> 
</g>
<g style="fill:none; 
stroke:#AFAFAF; stroke-width:0.0667; stroke-opacity:1; 
stroke-linecap:round; stroke-linejoin:round;">
<text x="18.6250" y="11.8800"
textLength="1.5638" font-size="1.0667" lengthAdjust="spacingAndGlyphs"
text-anchor="middle" opacity="0" stroke-opacity="0">11</text>
<g class="stroked-text"><desc>11</desc>
<path d="M18.4726 11.8466
L18.0155 11.8466
" />
<path d="M18.2440 11.8466
L18.2440 11.0466
" />
<path d="M18.2440 11.0466
L18.1679 11.1609
" />
<path d="M18.1679 11.1609
L18.0917 11.2371
" />
<path d="M18.0917 11.2371
L18.0155 11.2752
" />
<path d="M19.2345 11.8466
L18.7774 11.8466
" />
<path d="M19.0060 11.8466
L19.0060 11.0466
" />
<path d="M19.0060 11.0466
L18.9298 11.1609
" />
<path d="M18.9298 11.1609
L18.8536 11.2371
" />
<path d="M18.8536 11.2371
L18.7774 11.2752
" />
</g><path style="fill:none; 
stroke:#AFAFAF; stroke-width:0.0212; stroke-opacity:1; 
stroke-linecap:round; stroke-linejoin:round;fill:none"
d="M 17.4250,10.9200
17.4433,10.8282
17.4953,10.7503
17.5732,10.6983
17.6650,10.6800
19.5850,10.6800
19.6768,10.6983
19.7547,10.7503
19.8067,10.8282
19.8250,10.9200
19.8250,12.0400
19.8067,12.1318
19.7547,12.2097
19.6768,12.2617
19.5850,12.2800
17.6650,12.2800
17.5732,12.2617
17.4953,12.2097
17.4433,12.1318
17.4250,12.0400
Z" /> 
</g>
<g style="fill:none; 
stroke:#AFAFAF; stroke-width:0.0444; stroke-opacity:1; 
stroke-linecap:round; stroke-linejoin:round;">
<text x="17.6450" y="9.2067"
textLength="1.0425" font-size="0.7111" lengthAdjust="spacingAndGlyphs"
text-anchor="middle" opacity="0" stroke-opacity="0">12</text>
<g class="stroked-text"><desc>12</desc>
<path d="M17.5434 9.1844
L17.2387 9.1844
" />
<path d="M17.3910 9.1844
L17.3910 8.6511
" />
<path d="M17.3910 8.6511
L17.3402 8.7273
" />
<path d="M17.3402 8.7273
L17.2894 8.7781
" />
<path d="M17.2894 8.7781
L17.2387 8.8035
" />
<path d="M17.7466 8.7019
L17.7720 8.6765
" />
<path d="M17.7720 8.6765
L17.8228 8.6511
" />
<path d="M17.8228 8.6511
L17.9498 8.6511
" />
<path d="M17.9498 8.6511
L18.0006 8.6765
" />
<path d="M18.0006 8.6765
L18.0260 8.7019
" />
<path d="M18.0260 8.7019
L18.0513 8.7527
" />
<path d="M18.0513 8.7527
L18.0513 8.8035
" />
<path d="M18.0513 8.8035
L18.0260 8.8797
" />
<path d="M18.0260 8.8797
L17.7212 9.1844
" />
<path d="M17.7212 9.1844
L18.0513 9.1844
" />
</g></g>
<g style="fill:none; 
stroke:#AFAFAF; stroke-width:0.0212; stroke-opacity:1; 
stroke-linecap:round; stroke-linejoin:round;">
<circle cx="17.6450" cy="8.9400" r="0.8000" /> 
</g>
<g style="fill:none; 
stroke:#AFAFAF; stroke-width:0.0667; stroke-opacity:1; 
stroke-linecap:round; stroke-linejoin:round;">
<text x="18.6250" y="9.3400"
textLength="1.5638" font-size="1.0667" lengthAdjust="spacingAndGlyphs"
text-anchor="middle" opacity="0" stroke-opacity="0">12</text>
<g class="stroked-text"><desc>12</desc>
<path d="M18.4726 9.3066
L18.0155 9.3066
" />
<path d="M18.2440 9.3066
L18.2440 8.5066
" />
<path d="M18.2440 8.5066
L18.1679 8.6209
" />
<path d="M18.1679 8.6209
L18.0917 8.6971
" />
<path d="M18.0917 8.6971
L18.0155 8.7352
" />
<path d="M18.7774 8.5828
L18.8155 8.5447
" />
<path d="M18.8155 8.5447
L18.8917 8.5066
" />
<path d="M18.8917 8.5066
L19.0821 8.5066
" />
<path d="M19.0821 8.5066
L19.1583 8.5447
" />
<path d="M19.1583 8.5447
L19.1964 8.5828
" />
<path d="M19.1964 8.5828
L19.2345 8.6590
" />
<path d="M19.2345 8.6590
L19.2345 8.7352
" />
<path d="M19.2345 8.7352
L19.1964 8.8495
" />
<path d="M19.1964 8.8495
L18.7393 9.3066
" />
<path d="M18.7393 9.3066
L19.2345 9.3066
" />
</g><path style="fill:none; 
stroke:#AFAFAF; stroke-width:0.0212; stroke-opacity:1; 
stroke-linecap:round; stroke-linejoin:round;fill:none"
d="M 17.4250,8.3800
17.4433,8.2882
17.4953,8.2103
17.5732,8.1583
17.6650,8.1400
19.5850,8.1400
19.6768,8.1583
19.7547,8.2103
19.8067,8.2882
19.8250,8.3800
19.8250,9.5000
19.8067,9.5918
19.7547,9.6697
19.6768,9.7217
19.5850,9.7400
17.6650,9.7400
17.5732,9.7217
17.4953,9.6697
17.4433,9.5918
17.4250,9.5000
Z" /> 
</g>
<g style="fill:none; 
stroke:#AFAFAF; stroke-width:0.0444; stroke-opacity:1; 
stroke-linecap:round; stroke-linejoin:round;">
<text x="17.6450" y="6.6667"
textLength="1.0425" font-size="0.7111" lengthAdjust="spacingAndGlyphs"
text-anchor="middle" opacity="0" stroke-opacity="0">13</text>
<g class="stroked-text"><desc>13</desc>
<path d="M17.5434 6.6444
L17.2387 6.6444
" />
<path d="M17.3910 6.6444
L17.3910 6.1111
" />
<path d="M17.3910 6.1111
L17.3402 6.1873
" />
<path d="M17.3402 6.1873
L17.2894 6.2381
" />
<path d="M17.2894 6.2381
L17.2387 6.2635
" />
<path d="M17.7212 6.1111
L18.0513 6.1111
" />
<path d="M18.0513 6.1111
L17.8736 6.3143
" />
<path d="M17.8736 6.3143
L17.9498 6.3143
" />
<path d="M17.9498 6.3143
L18.0006 6.3397
" />
<path d="M18.0006 6.3397
L18.0260 6.3651
" />
<path d="M18.0260 6.3651
L18.0513 6.4158
" />
<path d="M18.0513 6.4158
L18.0513 6.5428
" />
<path d="M18.0513 6.5428
L18.0260 6.5936
" />
<path d="M18.0260 6.5936
L18.0006 6.6190
" />
<path d="M18.0006 6.6190
L17.9498 6.6444
" />
<path d="M17.9498 6.6444
L17.7974 6.6444
" />
<path d="M17.7974 6.6444
L17.7466 6.6190
" />
<path d="M17.7466 6.6190
L17.7212 6.5936
" />
</g></g>
<g style="fill:none; 
stroke:#AFAFAF; stroke-width:0.0212; stroke-opacity:1; 
stroke-linecap:round; stroke-linejoin:round;">
<circle cx="17.6450" cy="6.4000" r="0.8000" /> 
</g>
<g style="fill:none; 
stroke:#AFAFAF; stroke-width:0.0667; stroke-opacity:1; 
stroke-linecap:round; stroke-linejoin:round;">
<text x="18.6250" y="6.8000"
textLength="1.5638" font-size="1.0667" lengthAdjust="spacingAndGlyphs"
text-anchor="middle" opacity="0" stroke-opacity="0">13</text>
<g class="stroked-text"><desc>13</desc>
<path d="M18.4726 6.7666
L18.0155 6.7666
" />
<path d="M18.2440 6.7666
L18.2440 5.9666
" />
<path d="M18.2440 5.9666
L18.1679 6.0809
" />
<path d="M18.1679 6.0809
L18.0917 6.1571
" />
<path d="M18.0917 6.1571
L18.0155 6.1952
" />
<path d="M18.7393 5.9666
L19.2345 5.9666
" />
<path d="M19.2345 5.9666
L18.9679 6.2714
" />
<path d="M18.9679 6.2714
L19.0821 6.2714
" />
<path d="M19.0821 6.2714
L19.1583 6.3095
" />
<path d="M19.1583 6.3095
L19.1964 6.3476
" />
<path d="M19.1964 6.3476
L19.2345 6.4238
" />
<path d="M19.2345 6.4238
L19.2345 6.6142
" />
<path d="M19.2345 6.6142
L19.1964 6.6904
" />
<path d="M19.1964 6.6904
L19.1583 6.7285
" />
<path d="M19.1583 6.7285
L19.0821 6.7666
" />
<path d="M19.0821 6.7666
L18.8536 6.7666
" />
<path d="M18.8536 6.7666
L18.7774 6.7285
" />
<path d="M18.7774 6.7285
L18.7393 6.6904
" />
</g><path style="fill:none; 
stroke:#AFAFAF; stroke-width:0.0212; stroke-opacity:1; 
stroke-linecap:round; stroke-linejoin:round;fill:none"
d="M 17.4250,5.8400
17.4433,5.7482
17.4953,5.6703
17.5732,5.6183
17.6650,5.6000
19.5850,5.6000
19.6768,5.6183
19.7547,5.6703
19.8067,5.7482
19.8250,5.8400
19.8250,6.9600
19.8067,7.0518
19.7547,7.1297
19.6768,7.1817
19.5850,7.2000
17.6650,7.2000
17.5732,7.1817
17.4953,7.1297
17.4433,7.0518
17.4250,6.9600
Z" /> 
</g>
<g style="fill:none; 
stroke:#AFAFAF; stroke-width:0.0444; stroke-opacity:1; 
stroke-linecap:round; stroke-linejoin:round;">
<text x="17.6450" y="4.1267"
textLength="1.0425" font-size="0.7111" lengthAdjust="spacingAndGlyphs"
text-anchor="middle" opacity="0" stroke-opacity="0">14</text>
<g class="stroked-text"><desc>14</desc>
<path d="M17.5434 4.1044
L17.2387 4.1044
" />
<path d="M17.3910 4.1044
L17.3910 3.5711
" />
<path d="M17.3910 3.5711
L17.3402 3.6473
" />
<path d="M17.3402 3.6473
L17.2894 3.6981
" />
<path d="M17.2894 3.6981
L17.2387 3.7235
" />
<path d="M18.0006 3.7489
L18.0006 4.1044
" />
<path d="M17.8736 3.5457
L17.7466 3.9266
" />
<path d="M17.7466 3.9266
L18.0767 3.9266
" />
</g></g>
<g style="fill:none; 
stroke:#AFAFAF; stroke-width:0.0212; stroke-opacity:1; 
stroke-linecap:round; stroke-linejoin:round;">
<circle cx="17.6450" cy="3.8600" r="0.8000" /> 
</g>
<g style="fill:none; 
stroke:#AFAFAF; stroke-width:0.0667; stroke-opacity:1; 
stroke-linecap:round; stroke-linejoin:round;">
<text x="18.6250" y="4.2600"
textLength="1.5638" font-size="1.0667" lengthAdjust="spacingAndGlyphs"
text-anchor="middle" opacity="0" stroke-opacity="0">14</text>
<g class="stroked-text"><desc>14</desc>
<path d="M18.4726 4.2266
L18.0155 4.2266
" />
<path d="M18.2440 4.2266
L18.2440 3.4266
" />
<path d="M18.2440 3.4266
L18.1679 3.5409
" />
<path d="M18.1679 3.5409
L18.0917 3.6171
" />
<path d="M18.0917 3.6171
L18.0155 3.6552
" />
<path d="M19.1583 3.6933
L19.1583 4.2266
" />
<path d="M18.9679 3.3885
L18.7774 3.9600
" />
<path d="M18.7774 3.9600
L19.2726 3.9600
" />
</g><path style="fill:none; 
stroke:#AFAFAF; stroke-width:0.0212; stroke-opacity:1; 
stroke-linecap:round; stroke-linejoin:round;fill:none"
d="M 17.4250,3.3000
17.4433,3.2082
17.4953,3.1303
17.5732,3.0783
17.6650,3.0600
19.5850,3.0600
19.6768,3.0783
19.7547,3.1303
19.8067,3.2082
19.8250,3.3000
19.8250,4.4200
19.8067,4.5118
19.7547,4.5897
19.6768,4.6417
19.5850,4.6600
17.6650,4.6600
17.5732,4.6417
17.4953,4.5897
17.4433,4.5118
17.4250,4.4200
Z" /> 
</g>
<g style="fill:none; 
stroke:#AFAFAF; stroke-width:0.0500; stroke-opacity:1; 
stroke-linecap:round; stroke-linejoin:round;">
<text x="5.5800" y="9.5575"
textLength="1.2014" font-size="0.8000" lengthAdjust="spacingAndGlyphs"
text-anchor="middle" opacity="0" stroke-opacity="0">B1</text>
<g class="stroked-text"><desc>B1</desc>
<path d="M5.3371 9.2182
L5.4229 9.2468
" />
<path d="M5.4229 9.2468
L5.4514 9.2753
" />
<path d="M5.4514 9.2753
L5.4800 9.3325
" />
<path d="M5.4800 9.3325
L5.4800 9.4182
" />
<path d="M5.4800 9.4182
L5.4514 9.4753
" />
<path d="M5.4514 9.4753
L5.4229 9.5039
" />
<path d="M5.4229 9.5039
L5.3657 9.5325
" />
<path d="M5.3657 9.5325
L5.1371 9.5325
" />
<path d="M5.1371 9.5325
L5.1371 8.9325
" />
<path d="M5.1371 8.9325
L5.3371 8.9325
" />
<path d="M5.3371 8.9325
L5.3943 8.9610
" />
<path d="M5.3943 8.9610
L5.4229 8.9896
" />
<path d="M5.4229 8.9896
L5.4514 9.0468
" />
<path d="M5.4514 9.0468
L5.4514 9.1039
" />
<path d="M5.4514 9.1039
L5.4229 9.1610
" />
<path d="M5.4229 9.1610
L5.3943 9.1896
" />
<path d="M5.3943 9.1896
L5.3371 9.2182
" />
<path d="M5.3371 9.2182
L5.1371 9.2182
" />
<path d="M6.0514 9.5325
L5.7086 9.5325
" />
<path d="M5.8800 9.5325
L5.8800 8.9325
" />
<path d="M5.8800 8.9325
L5.8229 9.0182
" />
<path d="M5.8229 9.0182
L5.7657 9.0753
" />
<path d="M5.7657 9.0753
L5.7086 9.1039
" />
</g><path style="fill:none; 
stroke:#AFAFAF; stroke-width:0.0212; stroke-opacity:1; 
stroke-linecap:round; stroke-linejoin:round;fill:none"
d="M 4.6800,8.7850
4.6954,8.7075
4.7393,8.6418
4.8050,8.5979
4.8825,8.5825
6.2775,8.5825
6.3550,8.5979
6.4207,8.6418
6.4646,8.7075
6.4800,8.7850
6.4800,9.7300
6.4646,9.8075
6.4207,9.8732
6.3550,9.9171
6.2775,9.9325
4.8825,9.9325
4.8050,9.9171
4.7393,9.8732
4.6954,9.8075
4.6800,9.7300
Z" /> 
</g>
<g style="fill:none; 
stroke:#AFAFAF; stroke-width:0.0694; stroke-opacity:1; 
stroke-linecap:round; stroke-linejoin:round;">
<text x="5.5800" y="9.6742"
textLength="1.6686" font-size="1.1111" lengthAdjust="spacingAndGlyphs"
text-anchor="middle" opacity="0" stroke-opacity="0">B1</text>
<g class="stroked-text"><desc>B1</desc>
<path d="M5.2427 9.2029
L5.3617 9.2426
" />
<path d="M5.3617 9.2426
L5.4014 9.2823
" />
<path d="M5.4014 9.2823
L5.4411 9.3616
" />
<path d="M5.4411 9.3616
L5.4411 9.4807
" />
<path d="M5.4411 9.4807
L5.4014 9.5600
" />
<path d="M5.4014 9.5600
L5.3617 9.5997
" />
<path d="M5.3617 9.5997
L5.2824 9.6394
" />
<path d="M5.2824 9.6394
L4.9649 9.6394
" />
<path d="M4.9649 9.6394
L4.9649 8.8061
" />
<path d="M4.9649 8.8061
L5.2427 8.8061
" />
<path d="M5.2427 8.8061
L5.3221 8.8458
" />
<path d="M5.3221 8.8458
L5.3617 8.8854
" />
<path d="M5.3617 8.8854
L5.4014 8.9648
" />
<path d="M5.4014 8.9648
L5.4014 9.0442
" />
<path d="M5.4014 9.0442
L5.3617 9.1235
" />
<path d="M5.3617 9.1235
L5.3221 9.1632
" />
<path d="M5.3221 9.1632
L5.2427 9.2029
" />
<path d="M5.2427 9.2029
L4.9649 9.2029
" />
<path d="M6.2348 9.6394
L5.7586 9.6394
" />
<path d="M5.9967 9.6394
L5.9967 8.8061
" />
<path d="M5.9967 8.8061
L5.9173 8.9251
" />
<path d="M5.9173 8.9251
L5.8379 9.0045
" />
<path d="M5.8379 9.0045
L5.7586 9.0442
" />
</g><path style="fill:none; 
stroke:#AFAFAF; stroke-width:0.0212; stroke-opacity:1; 
stroke-linecap:round; stroke-linejoin:round;fill:none"
d="M 4.3300,8.7850
4.3454,8.7075
4.3893,8.6418
4.4550,8.5979
4.5325,8.5825
6.6275,8.5825
6.7050,8.5979
6.7707,8.6418
6.8146,8.7075
6.8300,8.7850
6.8300,9.7300
6.8146,9.8075
6.7707,9.8732
6.7050,9.9171
6.6275,9.9325
4.5325,9.9325
4.4550,9.9171
4.3893,9.8732
4.3454,9.8075
4.3300,9.7300
Z" /> 
</g>
<g style="fill:none; 
stroke:#AFAFAF; stroke-width:0.0500; stroke-opacity:1; 
stroke-linecap:round; stroke-linejoin:round;">
<text x="5.5800" y="11.4625"
textLength="1.2014" font-size="0.8000" lengthAdjust="spacingAndGlyphs"
text-anchor="middle" opacity="0" stroke-opacity="0">B2</text>
<g class="stroked-text"><desc>B2</desc>
<path d="M5.3371 11.1232
L5.4229 11.1518
" />
<path d="M5.4229 11.1518
L5.4514 11.1803
" />
<path d="M5.4514 11.1803
L5.4800 11.2375
" />
<path d="M5.4800 11.2375
L5.4800 11.3232
" />
<path d="M5.4800 11.3232
L5.4514 11.3803
" />
<path d="M5.4514 11.3803
L5.4229 11.4089
" />
<path d="M5.4229 11.4089
L5.3657 11.4375
" />
<path d="M5.3657 11.4375
L5.1371 11.4375
" />
<path d="M5.1371 11.4375
L5.1371 10.8375
" />
<path d="M5.1371 10.8375
L5.3371 10.8375
" />
<path d="M5.3371 10.8375
L5.3943 10.8660
" />
<path d="M5.3943 10.8660
L5.4229 10.8946
" />
<path d="M5.4229 10.8946
L5.4514 10.9518
" />
<path d="M5.4514 10.9518
L5.4514 11.0089
" />
<path d="M5.4514 11.0089
L5.4229 11.0660
" />
<path d="M5.4229 11.0660
L5.3943 11.0946
" />
<path d="M5.3943 11.0946
L5.3371 11.1232
" />
<path d="M5.3371 11.1232
L5.1371 11.1232
" />
<path d="M5.7086 10.8946
L5.7371 10.8660
" />
<path d="M5.7371 10.8660
L5.7943 10.8375
" />
<path d="M5.7943 10.8375
L5.9371 10.8375
" />
<path d="M5.9371 10.8375
L5.9943 10.8660
" />
<path d="M5.9943 10.8660
L6.0229 10.8946
" />
<path d="M6.0229 10.8946
L6.0514 10.9518
" />
<path d="M6.0514 10.9518
L6.0514 11.0089
" />
<path d="M6.0514 11.0089
L6.0229 11.0946
" />
<path d="M6.0229 11.0946
L5.6800 11.4375
" />
<path d="M5.6800 11.4375
L6.0514 11.4375
" />
</g><path style="fill:none; 
stroke:#AFAFAF; stroke-width:0.0212; stroke-opacity:1; 
stroke-linecap:round; stroke-linejoin:round;fill:none"
d="M 4.6800,10.6900
4.6954,10.6125
4.7393,10.5468
4.8050,10.5029
4.8825,10.4875
6.2775,10.4875
6.3550,10.5029
6.4207,10.5468
6.4646,10.6125
6.4800,10.6900
6.4800,11.6350
6.4646,11.7125
6.4207,11.7782
6.3550,11.8221
6.2775,11.8375
4.8825,11.8375
4.8050,11.8221
4.7393,11.7782
4.6954,11.7125
4.6800,11.6350
Z" /> 
</g>
<g style="fill:none; 
stroke:#AFAFAF; stroke-width:0.0694; stroke-opacity:1; 
stroke-linecap:round; stroke-linejoin:round;">
<text x="5.5800" y="11.5792"
textLength="1.6686" font-size="1.1111" lengthAdjust="spacingAndGlyphs"
text-anchor="middle" opacity="0" stroke-opacity="0">B2</text>
<g class="stroked-text"><desc>B2</desc>
<path d="M5.2427 11.1079
L5.3617 11.1476
" />
<path d="M5.3617 11.1476
L5.4014 11.1873
" />
<path d="M5.4014 11.1873
L5.4411 11.2666
" />
<path d="M5.4411 11.2666
L5.4411 11.3857
" />
<path d="M5.4411 11.3857
L5.4014 11.4650
" />
<path d="M5.4014 11.4650
L5.3617 11.5047
" />
<path d="M5.3617 11.5047
L5.2824 11.5444
" />
<path d="M5.2824 11.5444
L4.9649 11.5444
" />
<path d="M4.9649 11.5444
L4.9649 10.7111
" />
<path d="M4.9649 10.7111
L5.2427 10.7111
" />
<path d="M5.2427 10.7111
L5.3221 10.7508
" />
<path d="M5.3221 10.7508
L5.3617 10.7904
" />
<path d="M5.3617 10.7904
L5.4014 10.8698
" />
<path d="M5.4014 10.8698
L5.4014 10.9492
" />
<path d="M5.4014 10.9492
L5.3617 11.0285
" />
<path d="M5.3617 11.0285
L5.3221 11.0682
" />
<path d="M5.3221 11.0682
L5.2427 11.1079
" />
<path d="M5.2427 11.1079
L4.9649 11.1079
" />
<path d="M5.7586 10.7904
L5.7983 10.7508
" />
<path d="M5.7983 10.7508
L5.8776 10.7111
" />
<path d="M5.8776 10.7111
L6.0760 10.7111
" />
<path d="M6.0760 10.7111
L6.1554 10.7508
" />
<path d="M6.1554 10.7508
L6.1951 10.7904
" />
<path d="M6.1951 10.7904
L6.2348 10.8698
" />
<path d="M6.2348 10.8698
L6.2348 10.9492
" />
<path d="M6.2348 10.9492
L6.1951 11.0682
" />
<path d="M6.1951 11.0682
L5.7189 11.5444
" />
<path d="M5.7189 11.5444
L6.2348 11.5444
" />
</g><path style="fill:none; 
stroke:#AFAFAF; stroke-width:0.0212; stroke-opacity:1; 
stroke-linecap:round; stroke-linejoin:round;fill:none"
d="M 4.3300,10.6900
4.3454,10.6125
4.3893,10.5468
4.4550,10.5029
4.5325,10.4875
6.6275,10.4875
6.7050,10.5029
6.7707,10.5468
6.8146,10.6125
6.8300,10.6900
6.8300,11.6350
6.8146,11.7125
6.7707,11.7782
6.7050,11.8221
6.6275,11.8375
4.5325,11.8375
4.4550,11.8221
4.3893,11.7782
4.3454,11.7125
4.3300,11.6350
Z" /> 
</g> 
</svg>
