<svg xmlns="http://www.w3.org/2000/svg" width="75.744" height="92.16" viewBox="0 0 20.041 24.384">
    <g class="stroked-text" style="fill:none;stroke:#f2eda1;stroke-width:.15;stroke-opacity:1;stroke-linecap:round;stroke-linejoin:round">
        <path d="m8.692 11.935-.334-.476M8.12 11.935v-1M8.12 10.935h.381M8.501 10.935l.095.047M8.596 10.982l.048.048M8.644 11.03l.048.095M8.692 11.125v.143M8.692 11.268l-.048.095M8.644 11.363l-.048.048M8.596 11.411l-.095.048M8.501 11.459h-.38M9.12 11.411h.334M9.596 11.935H9.12M9.12 11.935v-1M9.12 10.935h.476M10.358 11.411h-.333M10.025 11.935v-1M10.025 10.935h.476M11.025 10.935v.238M10.787 11.078l.238.095M11.025 11.173l.238-.095M10.882 11.363l.143-.19M11.025 11.173l.143.19M11.787 10.935v.238M11.549 11.078l.238.095M11.787 11.173l.238-.095M11.644 11.363l.143-.19M11.787 11.173l.143.19"/>
    </g>
    <g style="fill:none;stroke:#f2eda1;stroke-width:.12;stroke-opacity:1;stroke-linecap:round;stroke-linejoin:round">
        <path d="M1.03 2.81H.22M1.035 2.81V1.3M1.035 5.35v-.44M1.035 7.89v-.44M1.035 10.43v-.44M1.035 12.97v-.44M1.035 15.51v-.44M1.035 17.61v.44M1.035 20.15v.008M17.115 22.058H2.935M19.015 2.81V1.3M19.015 5.35v-.44M19.015 7.89v-.44M19.015 10.43v-.44M19.015 12.97v-.44M19.015 15.51v-.44M19.015 17.61v.44M19.015 20.15v.008M1.035 20.158a1.9 1.9 0 0 0 1.9 1.9M17.115 22.058a1.9 1.9 0 0 0 1.9-1.9"/>
        <path stroke="none" d="m.225 3.3.018-.092.052-.078.078-.052.092-.018h1.92l.092.018.078.052.052.078.018.092v1.12l-.018.092-.052.078-.078.052-.092.018H.465l-.092-.018-.078-.052-.052-.078-.018-.092ZM.225 5.84l.018-.092.052-.078.078-.052.092-.018h1.92l.092.018.078.052.052.078.018.092v1.12l-.018.092-.052.078-.078.052-.092.018H.465l-.092-.018-.078-.052-.052-.078-.018-.092ZM.225 8.38l.018-.092.052-.078.078-.052.092-.018h1.92l.092.018.078.052.052.078.018.092V9.5l-.018.092-.052.078-.078.052-.092.018H.465l-.092-.018-.078-.052-.052-.078L.225 9.5ZM.225 10.92l.018-.092.052-.078.078-.052.092-.018h1.92l.092.018.078.052.052.078.018.092v1.12l-.018.092-.052.078-.078.052-.092.018H.465l-.092-.018-.078-.052-.052-.078-.018-.092ZM.225 13.46l.018-.092.052-.078.078-.052.092-.018h1.92l.092.018.078.052.052.078.018.092v1.12l-.018.092-.052.078-.078.052-.092.018H.465l-.092-.018-.078-.052-.052-.078-.018-.092ZM.225 16l.018-.092.052-.078.078-.052.092-.018h1.92l.092.018.078.052.052.078.018.092v1.12l-.018.092-.052.078-.078.052-.092.018H.465l-.092-.018-.078-.052-.052-.078-.018-.092ZM.225 18.54l.018-.092.052-.078.078-.052.092-.018h1.92l.092.018.078.052.052.078.018.092v1.12l-.018.092-.052.078-.078.052-.092.018H.465l-.092-.018-.078-.052-.052-.078-.018-.092ZM17.425 18.54l.018-.092.052-.078.078-.052.092-.018h1.92l.092.018.078.052.052.078.018.092v1.12l-.018.092-.052.078-.078.052-.092.018h-1.92l-.092-.018-.078-.052-.052-.078-.018-.092ZM17.425 16l.018-.092.052-.078.078-.052.092-.018h1.92l.092.018.078.052.052.078.018.092v1.12l-.018.092-.052.078-.078.052-.092.018h-1.92l-.092-.018-.078-.052-.052-.078-.018-.092ZM17.425 13.46l.018-.092.052-.078.078-.052.092-.018h1.92l.092.018.078.052.052.078.018.092v1.12l-.018.092-.052.078-.078.052-.092.018h-1.92l-.092-.018-.078-.052-.052-.078-.018-.092ZM17.425 10.92l.018-.092.052-.078.078-.052.092-.018h1.92l.092.018.078.052.052.078.018.092v1.12l-.018.092-.052.078-.078.052-.092.018h-1.92l-.092-.018-.078-.052-.052-.078-.018-.092ZM17.425 8.38l.018-.092.052-.078.078-.052.092-.018h1.92l.092.018.078.052.052.078.018.092V9.5l-.018.092-.052.078-.078.052-.092.018h-1.92l-.092-.018-.078-.052-.052-.078-.018-.092ZM17.425 5.84l.018-.092.052-.078.078-.052.092-.018h1.92l.092.018.078.052.052.078.018.092v1.12l-.018.092-.052.078-.078.052-.092.018h-1.92l-.092-.018-.078-.052-.052-.078-.018-.092ZM17.425 3.3l.018-.092.052-.078.078-.052.092-.018h1.92l.092.018.078.052.052.078.018.092v1.12l-.018.092-.052.078-.078.052-.092.018h-1.92l-.092-.018-.078-.052-.052-.078-.018-.092Z" style="fill:#b4a09a;fill-opacity:.9;stroke:none;fill-rule:evenodd"/>
        <path stroke="none" d="m1.845 4.66-.092-.018-.078-.052-.052-.078-.018-.092V3.3l.018-.092.052-.078.078-.052.092-.018h1.12l.092.018.078.052.052.078.018.092v1.12l-.018.092-.052.078-.078.052-.092.018Z" style="fill:#4d7fc4;fill-opacity:1;stroke:none;fill-rule:evenodd"/>
    </g>
    <circle cx="2.405" cy="6.4" r=".8" style="fill:#4d7fc4;fill-opacity:1;stroke:none"/>
    <circle cx="2.405" cy="8.94" r=".8" style="fill:#4d7fc4;fill-opacity:1;stroke:none"/>
    <circle cx="2.405" cy="11.48" r=".8" style="fill:#4d7fc4;fill-opacity:1;stroke:none"/>
    <circle cx="2.405" cy="14.02" r=".8" style="fill:#4d7fc4;fill-opacity:1;stroke:none"/>
    <circle cx="2.405" cy="16.56" r=".8" style="fill:#4d7fc4;fill-opacity:1;stroke:none"/>
    <circle cx="2.405" cy="19.1" r=".8" style="fill:#4d7fc4;fill-opacity:1;stroke:none"/>
    <circle cx="17.645" cy="19.1" r=".8" style="fill:#4d7fc4;fill-opacity:1;stroke:none"/>
    <circle cx="17.645" cy="16.56" r=".8" style="fill:#4d7fc4;fill-opacity:1;stroke:none"/>
    <circle cx="17.645" cy="14.02" r=".8" style="fill:#4d7fc4;fill-opacity:1;stroke:none"/>
    <circle cx="17.645" cy="11.48" r=".8" style="fill:#4d7fc4;fill-opacity:1;stroke:none"/>
    <circle cx="17.645" cy="8.94" r=".8" style="fill:#4d7fc4;fill-opacity:1;stroke:none"/>
    <circle cx="17.645" cy="6.4" r=".8" style="fill:#4d7fc4;fill-opacity:1;stroke:none"/>
    <g style="fill:#4d7fc4;fill-opacity:1;stroke:none">
        <circle cx="17.645" cy="3.86" r=".8"/>
        <path d="m4.68 8.785.015-.078.044-.065.066-.044.078-.016h1.394l.078.016.066.044.044.066.015.077v.945l-.015.077-.044.066-.066.044-.078.015H4.884l-.078-.015-.066-.044-.044-.066-.015-.077ZM4.68 10.69l.015-.077.044-.066.066-.044.078-.015h1.394l.078.015.066.044.044.066.015.077v.945l-.015.078-.044.065-.066.044-.078.016H4.884l-.078-.016-.066-.044-.044-.066-.015-.077Z" style="fill:#4d7fc4;fill-opacity:1;stroke:none;fill-rule:evenodd"/>
        <path d="m.225 3.3.018-.092.052-.078.078-.052.092-.018h1.92l.092.018.078.052.052.078.018.092v1.12l-.018.092-.052.078-.078.052-.092.018H.465l-.092-.018-.078-.052-.052-.078-.018-.092Z" style="fill:#c83434;fill-opacity:1;stroke:none;fill-rule:evenodd"/>
        <path d="m1.845 4.66-.092-.018-.078-.052-.052-.078-.018-.092V3.3l.018-.092.052-.078.078-.052.092-.018h1.12l.092.018.078.052.052.078.018.092v1.12l-.018.092-.052.078-.078.052-.092.018ZM.225 5.84l.018-.092.052-.078.078-.052.092-.018h1.92l.092.018.078.052.052.078.018.092v1.12l-.018.092-.052.078-.078.052-.092.018H.465l-.092-.018-.078-.052-.052-.078-.018-.092Z" style="fill:#c83434;fill-opacity:1;stroke:none;fill-rule:evenodd"/>
    </g>
    <g style="fill:#c83434;fill-opacity:1;stroke:none">
        <circle cx="2.405" cy="6.4" r=".8"/>
        <path d="m.225 8.38.018-.092.052-.078.078-.052.092-.018h1.92l.092.018.078.052.052.078.018.092V9.5l-.018.092-.052.078-.078.052-.092.018H.465l-.092-.018-.078-.052-.052-.078L.225 9.5Z" style="fill:#c83434;fill-opacity:1;stroke:none;fill-rule:evenodd"/>
    </g>
    <g style="fill:#c83434;fill-opacity:1;stroke:none">
        <circle cx="2.405" cy="8.94" r=".8"/>
        <path d="m.225 10.92.018-.092.052-.078.078-.052.092-.018h1.92l.092.018.078.052.052.078.018.092v1.12l-.018.092-.052.078-.078.052-.092.018H.465l-.092-.018-.078-.052-.052-.078-.018-.092Z" style="fill:#c83434;fill-opacity:1;stroke:none;fill-rule:evenodd"/>
    </g>
    <g style="fill:#c83434;fill-opacity:1;stroke:none">
        <circle cx="2.405" cy="11.48" r=".8"/>
        <path d="m.225 13.46.018-.092.052-.078.078-.052.092-.018h1.92l.092.018.078.052.052.078.018.092v1.12l-.018.092-.052.078-.078.052-.092.018H.465l-.092-.018-.078-.052-.052-.078-.018-.092Z" style="fill:#c83434;fill-opacity:1;stroke:none;fill-rule:evenodd"/>
    </g>
    <g style="fill:#c83434;fill-opacity:1;stroke:none">
        <circle cx="2.405" cy="14.02" r=".8"/>
        <path d="m.225 16 .018-.092.052-.078.078-.052.092-.018h1.92l.092.018.078.052.052.078.018.092v1.12l-.018.092-.052.078-.078.052-.092.018H.465l-.092-.018-.078-.052-.052-.078-.018-.092Z" style="fill:#c83434;fill-opacity:1;stroke:none;fill-rule:evenodd"/>
    </g>
    <g style="fill:#c83434;fill-opacity:1;stroke:none">
        <circle cx="2.405" cy="16.56" r=".8"/>
        <path d="m.225 18.54.018-.092.052-.078.078-.052.092-.018h1.92l.092.018.078.052.052.078.018.092v1.12l-.018.092-.052.078-.078.052-.092.018H.465l-.092-.018-.078-.052-.052-.078-.018-.092Z" style="fill:#c83434;fill-opacity:1;stroke:none;fill-rule:evenodd"/>
    </g>
    <circle cx="2.405" cy="19.1" r=".8" style="fill:#c83434;fill-opacity:1;stroke:none"/>
    <g style="fill:#c83434;fill-opacity:1;stroke:none">
        <circle cx="17.645" cy="19.1" r=".8"/>
        <path d="m17.425 18.54.018-.092.052-.078.078-.052.092-.018h1.92l.092.018.078.052.052.078.018.092v1.12l-.018.092-.052.078-.078.052-.092.018h-1.92l-.092-.018-.078-.052-.052-.078-.018-.092Z" style="fill:#c83434;fill-opacity:1;stroke:none;fill-rule:evenodd"/>
    </g>
    <g style="fill:#c83434;fill-opacity:1;stroke:none">
        <circle cx="17.645" cy="16.56" r=".8"/>
        <path d="m17.425 16 .018-.092.052-.078.078-.052.092-.018h1.92l.092.018.078.052.052.078.018.092v1.12l-.018.092-.052.078-.078.052-.092.018h-1.92l-.092-.018-.078-.052-.052-.078-.018-.092Z" style="fill:#c83434;fill-opacity:1;stroke:none;fill-rule:evenodd"/>
    </g>
    <g style="fill:#c83434;fill-opacity:1;stroke:none">
        <circle cx="17.645" cy="14.02" r=".8"/>
        <path d="m17.425 13.46.018-.092.052-.078.078-.052.092-.018h1.92l.092.018.078.052.052.078.018.092v1.12l-.018.092-.052.078-.078.052-.092.018h-1.92l-.092-.018-.078-.052-.052-.078-.018-.092Z" style="fill:#c83434;fill-opacity:1;stroke:none;fill-rule:evenodd"/>
    </g>
    <g style="fill:#c83434;fill-opacity:1;stroke:none">
        <circle cx="17.645" cy="11.48" r=".8"/>
        <path d="m17.425 10.92.018-.092.052-.078.078-.052.092-.018h1.92l.092.018.078.052.052.078.018.092v1.12l-.018.092-.052.078-.078.052-.092.018h-1.92l-.092-.018-.078-.052-.052-.078-.018-.092Z" style="fill:#c83434;fill-opacity:1;stroke:none;fill-rule:evenodd"/>
    </g>
    <g style="fill:#c83434;fill-opacity:1;stroke:none">
        <circle cx="17.645" cy="8.94" r=".8"/>
        <path d="m17.425 8.38.018-.092.052-.078.078-.052.092-.018h1.92l.092.018.078.052.052.078.018.092V9.5l-.018.092-.052.078-.078.052-.092.018h-1.92l-.092-.018-.078-.052-.052-.078-.018-.092Z" style="fill:#c83434;fill-opacity:1;stroke:none;fill-rule:evenodd"/>
    </g>
    <g style="fill:#c83434;fill-opacity:1;stroke:none">
        <circle cx="17.645" cy="6.4" r=".8"/>
        <path d="m17.425 5.84.018-.092.052-.078.078-.052.092-.018h1.92l.092.018.078.052.052.078.018.092v1.12l-.018.092-.052.078-.078.052-.092.018h-1.92l-.092-.018-.078-.052-.052-.078-.018-.092Z" style="fill:#c83434;fill-opacity:1;stroke:none;fill-rule:evenodd"/>
    </g>
    <g style="fill:#c83434;fill-opacity:1;stroke:none">
        <circle cx="17.645" cy="3.86" r=".8"/>
        <path d="m17.425 3.3.018-.092.052-.078.078-.052.092-.018h1.92l.092.018.078.052.052.078.018.092v1.12l-.018.092-.052.078-.078.052-.092.018h-1.92l-.092-.018-.078-.052-.052-.078-.018-.092ZM4.68 8.785l.015-.078.044-.065.066-.044.078-.016h1.394l.078.016.066.044.044.066.015.077v.945l-.015.077-.044.066-.066.044-.078.015H4.884l-.078-.015-.066-.044-.044-.066-.015-.077Z" style="fill:#c83434;fill-opacity:1;stroke:none;fill-rule:evenodd"/>
        <path d="m4.33 8.785.015-.078.044-.065.066-.044.077-.016h2.096l.077.016.066.044.044.066.015.077v.945l-.015.077-.044.066-.066.044-.077.015H4.532l-.077-.015-.066-.044-.044-.066-.015-.077ZM4.68 10.69l.015-.077.044-.066.066-.044.078-.015h1.394l.078.015.066.044.044.066.015.077v.945l-.015.078-.044.065-.066.044-.078.016H4.884l-.078-.016-.066-.044-.044-.066-.015-.077Z" style="fill:#c83434;fill-opacity:1;stroke:none;fill-rule:evenodd"/>
        <path d="m4.33 10.69.015-.077.044-.066.066-.044.077-.015h2.096l.077.015.066.044.044.066.015.077v.945l-.015.078-.044.065-.066.044-.077.016H4.532l-.077-.016-.066-.044-.044-.066-.015-.077Z" style="fill:#c83434;fill-opacity:1;stroke:none;fill-rule:evenodd"/>
    </g>
    <g style="fill:none;stroke:#585d84;stroke-width:.0444;stroke-opacity:1;stroke-linecap:round;stroke-linejoin:round">
        <g class="stroked-text">
            <path d="M2.557 4.104h-.304M2.405 4.104v-.533M2.405 3.571l-.05.076M2.354 3.647l-.05.051M2.303 3.698l-.05.026"/>
        </g>
        <path d="m1.845 4.66-.092-.018-.078-.052-.052-.078-.018-.092V3.3l.018-.092.052-.078.078-.052.092-.018h1.12l.092.018.078.052.052.078.018.092v1.12l-.018.092-.052.078-.078.052-.092.018Z" style="stroke:#585d84;stroke-width:.0212;stroke-opacity:1;stroke-linecap:round;stroke-linejoin:round;fill:none"/>
    </g>
    <g class="stroked-text" style="fill:none;stroke:#585d84;stroke-width:.0444;stroke-opacity:1;stroke-linecap:round;stroke-linejoin:round">
        <path d="m2.253 6.162.025-.026M2.278 6.137l.05-.026M2.329 6.111h.127M2.456 6.111l.05.026M2.507 6.137l.025.025M2.532 6.162l.025.05M2.557 6.213v.05M2.557 6.264l-.025.076M2.532 6.34l-.305.304M2.227 6.644h.33"/>
    </g>
    <circle cx="2.405" cy="6.4" r=".8" style="fill:none;stroke:#585d84;stroke-width:.0212;stroke-opacity:1;stroke-linecap:round;stroke-linejoin:round"/>
    <g class="stroked-text" style="fill:none;stroke:#585d84;stroke-width:.0444;stroke-opacity:1;stroke-linecap:round;stroke-linejoin:round">
        <path d="M2.227 8.651h.33M2.557 8.651l-.177.203M2.38 8.854h.076M2.456 8.854l.05.026M2.507 8.88l.025.025M2.532 8.905l.025.05M2.557 8.956v.127M2.557 9.083l-.025.05M2.532 9.134l-.025.025M2.507 9.159l-.051.025M2.456 9.184h-.153M2.303 9.184l-.05-.025M2.253 9.159l-.026-.025"/>
    </g>
    <circle cx="2.405" cy="8.94" r=".8" style="fill:none;stroke:#585d84;stroke-width:.0212;stroke-opacity:1;stroke-linecap:round;stroke-linejoin:round"/>
    <g class="stroked-text" style="fill:none;stroke:#585d84;stroke-width:.0444;stroke-opacity:1;stroke-linecap:round;stroke-linejoin:round">
        <path d="M2.507 11.369v.355M2.38 11.166l-.127.38M2.253 11.547h.33"/>
    </g>
    <circle cx="2.405" cy="11.48" r=".8" style="fill:none;stroke:#585d84;stroke-width:.0212;stroke-opacity:1;stroke-linecap:round;stroke-linejoin:round"/>
    <g class="stroked-text" style="fill:none;stroke:#585d84;stroke-width:.0444;stroke-opacity:1;stroke-linecap:round;stroke-linejoin:round">
        <path d="M2.532 13.731h-.254M2.278 13.731l-.025.254M2.253 13.985l.025-.025M2.278 13.96l.05-.026M2.329 13.934h.127M2.456 13.934l.05.026M2.507 13.96l.025.025M2.532 13.985l.025.05M2.557 14.036v.127M2.557 14.163l-.025.05M2.532 14.214l-.025.025M2.507 14.239l-.051.025M2.456 14.264h-.127M2.329 14.264l-.051-.025M2.278 14.239l-.025-.025"/>
    </g>
    <circle cx="2.405" cy="14.02" r=".8" style="fill:none;stroke:#585d84;stroke-width:.0212;stroke-opacity:1;stroke-linecap:round;stroke-linejoin:round"/>
    <g class="stroked-text" style="fill:none;stroke:#585d84;stroke-width:.0444;stroke-opacity:1;stroke-linecap:round;stroke-linejoin:round">
        <path d="M2.507 16.271h-.102M2.405 16.271l-.05.026M2.354 16.297l-.025.025M2.329 16.322l-.051.076M2.278 16.398l-.025.102M2.253 16.5v.203M2.253 16.703l.025.05M2.278 16.754l.025.025M2.303 16.779l.051.025M2.354 16.804h.102M2.456 16.804l.05-.025M2.507 16.779l.025-.025M2.532 16.754l.025-.051M2.557 16.703v-.127M2.557 16.576l-.025-.05M2.532 16.525l-.025-.025M2.507 16.5l-.051-.026M2.456 16.474h-.102M2.354 16.474l-.05.026M2.303 16.5l-.025.025M2.278 16.525l-.025.05"/>
    </g>
    <circle cx="2.405" cy="16.56" r=".8" style="fill:none;stroke:#585d84;stroke-width:.0212;stroke-opacity:1;stroke-linecap:round;stroke-linejoin:round"/>
    <g class="stroked-text" style="fill:none;stroke:#585d84;stroke-width:.0444;stroke-opacity:1;stroke-linecap:round;stroke-linejoin:round">
        <path d="M2.227 18.811h.356M2.583 18.811l-.229.533"/>
    </g>
    <circle cx="2.405" cy="19.1" r=".8" style="fill:none;stroke:#585d84;stroke-width:.0212;stroke-opacity:1;stroke-linecap:round;stroke-linejoin:round"/>
    <g class="stroked-text" style="fill:none;stroke:#585d84;stroke-width:.0444;stroke-opacity:1;stroke-linecap:round;stroke-linejoin:round">
        <path d="m17.594 19.04-.05-.026M17.543 19.014l-.025-.025M17.518 18.989l-.025-.05M17.493 18.938v-.025M17.493 18.913l.025-.051M17.518 18.862l.025-.025M17.543 18.837l.051-.026M17.594 18.811h.102M17.696 18.811l.05.026M17.747 18.837l.025.025M17.772 18.862l.025.05M17.797 18.913v.025M17.797 18.938l-.025.05M17.772 18.989l-.025.025M17.747 19.014l-.051.026M17.696 19.04h-.102M17.594 19.04l-.05.025M17.543 19.065l-.025.025M17.518 19.09l-.025.051M17.493 19.141v.102M17.493 19.243l.025.05M17.518 19.294l.025.025M17.543 19.319l.051.025M17.594 19.344h.102M17.696 19.344l.05-.025M17.747 19.319l.025-.025M17.772 19.294l.025-.051M17.797 19.243v-.102M17.797 19.141l-.025-.05M17.772 19.09l-.025-.025M17.747 19.065l-.051-.025"/>
    </g>
    <circle cx="17.645" cy="19.1" r=".8" style="fill:none;stroke:#585d84;stroke-width:.0212;stroke-opacity:1;stroke-linecap:round;stroke-linejoin:round"/>
    <g class="stroked-text" style="fill:none;stroke:#585d84;stroke-width:.0444;stroke-opacity:1;stroke-linecap:round;stroke-linejoin:round">
        <path d="M17.543 16.804h.102M17.645 16.804l.05-.025M17.696 16.779l.025-.025M17.721 16.754l.051-.077M17.772 16.677l.025-.101M17.797 16.576v-.203M17.797 16.373l-.025-.051M17.772 16.322l-.025-.025M17.747 16.297l-.051-.026M17.696 16.271h-.102M17.594 16.271l-.05.026M17.543 16.297l-.025.025M17.518 16.322l-.025.05M17.493 16.373v.127M17.493 16.5l.025.05M17.518 16.55l.025.026M17.543 16.576l.051.025M17.594 16.601h.102M17.696 16.601l.05-.025M17.747 16.576l.025-.026M17.772 16.55l.025-.05"/>
    </g>
    <circle cx="17.645" cy="16.56" r=".8" style="fill:none;stroke:#585d84;stroke-width:.0212;stroke-opacity:1;stroke-linecap:round;stroke-linejoin:round"/>
    <g class="stroked-text" style="fill:none;stroke:#585d84;stroke-width:.0444;stroke-opacity:1;stroke-linecap:round;stroke-linejoin:round">
        <path d="M17.543 14.264h-.304M17.391 14.264v-.533M17.391 13.731l-.05.076M17.34 13.807l-.05.051M17.29 13.858l-.051.025M17.874 13.731h.05M17.924 13.731l.051.026M17.975 13.757l.026.025M18 13.782l.026.05M18.026 13.833l.025.101M18.051 13.934v.127M18.051 14.061l-.025.102M18.026 14.163l-.025.05M18 14.214l-.025.025M17.975 14.239l-.05.025M17.924 14.264h-.05M17.874 14.264l-.051-.025M17.823 14.239l-.026-.025M17.797 14.214l-.025-.051M17.772 14.163l-.025-.102M17.747 14.061v-.127M17.747 13.934l.025-.101M17.772 13.833l.025-.051M17.797 13.782l.026-.025M17.823 13.757l.05-.026"/>
    </g>
    <circle cx="17.645" cy="14.02" r=".8" style="fill:none;stroke:#585d84;stroke-width:.0212;stroke-opacity:1;stroke-linecap:round;stroke-linejoin:round"/>
    <g class="stroked-text" style="fill:none;stroke:#585d84;stroke-width:.0444;stroke-opacity:1;stroke-linecap:round;stroke-linejoin:round">
        <path d="M17.543 11.724h-.304M17.391 11.724v-.533M17.391 11.191l-.05.076M17.34 11.267l-.05.051M17.29 11.318l-.051.026M18.051 11.724h-.304M17.899 11.724v-.533M17.899 11.191l-.05.076M17.848 11.267l-.05.051M17.797 11.318l-.05.026"/>
    </g>
    <circle cx="17.645" cy="11.48" r=".8" style="fill:none;stroke:#585d84;stroke-width:.0212;stroke-opacity:1;stroke-linecap:round;stroke-linejoin:round"/>
    <g class="stroked-text" style="fill:none;stroke:#585d84;stroke-width:.0444;stroke-opacity:1;stroke-linecap:round;stroke-linejoin:round">
        <path d="M17.543 9.184h-.304M17.391 9.184v-.533M17.391 8.651l-.05.076M17.34 8.727l-.05.051M17.29 8.778l-.051.025M17.747 8.702l.025-.025M17.772 8.677l.05-.026M17.823 8.651h.127M17.95 8.651l.05.026M18 8.677l.026.025M18.026 8.702l.025.05M18.051 8.753v.05M18.051 8.804l-.025.076M18.026 8.88l-.305.304M17.721 9.184h.33"/>
    </g>
    <circle cx="17.645" cy="8.94" r=".8" style="fill:none;stroke:#585d84;stroke-width:.0212;stroke-opacity:1;stroke-linecap:round;stroke-linejoin:round"/>
    <g class="stroked-text" style="fill:none;stroke:#585d84;stroke-width:.0444;stroke-opacity:1;stroke-linecap:round;stroke-linejoin:round">
        <path d="M17.543 6.644h-.304M17.391 6.644v-.533M17.391 6.111l-.05.076M17.34 6.187l-.05.051M17.29 6.238l-.051.025M17.721 6.111h.33M18.051 6.111l-.177.203M17.874 6.314h.076M17.95 6.314l.05.026M18 6.34l.026.025M18.026 6.365l.025.05M18.051 6.416v.127M18.051 6.543l-.025.05M18.026 6.594l-.025.025M18 6.619l-.05.025M17.95 6.644h-.153M17.797 6.644l-.05-.025M17.747 6.619l-.026-.025"/>
    </g>
    <circle cx="17.645" cy="6.4" r=".8" style="fill:none;stroke:#585d84;stroke-width:.0212;stroke-opacity:1;stroke-linecap:round;stroke-linejoin:round"/>
    <g class="stroked-text" style="fill:none;stroke:#585d84;stroke-width:.0444;stroke-opacity:1;stroke-linecap:round;stroke-linejoin:round">
        <path d="M17.543 4.104h-.304M17.391 4.104v-.533M17.391 3.571l-.05.076M17.34 3.647l-.05.051M17.29 3.698l-.051.026M18 3.749v.355M17.874 3.546l-.127.38M17.747 3.927h.33"/>
    </g>
    <circle cx="17.645" cy="3.86" r=".8" style="fill:none;stroke:#585d84;stroke-width:.0212;stroke-opacity:1;stroke-linecap:round;stroke-linejoin:round"/>
    <g style="fill:none;stroke:#585d84;stroke-width:.05;stroke-opacity:1;stroke-linecap:round;stroke-linejoin:round">
        <g class="stroked-text">
            <path d="m5.337 9.218.086.029M5.423 9.247l.028.028M5.451 9.275l.029.057M5.48 9.333v.085M5.48 9.418l-.029.057M5.451 9.475l-.028.029M5.423 9.504l-.057.029M5.366 9.533h-.229M5.137 9.533v-.6M5.137 8.933h.2M5.337 8.933l.057.028M5.394 8.961l.029.029M5.423 8.99l.028.057M5.451 9.047v.057M5.451 9.104l-.028.057M5.423 9.161l-.029.029M5.394 9.19l-.057.028M5.337 9.218h-.2M6.051 9.533H5.71M5.88 9.533v-.6M5.88 8.933l-.057.085M5.823 9.018l-.057.057M5.766 9.075l-.057.029"/>
        </g>
        <path d="m4.68 8.785.015-.078.044-.065.066-.044.078-.016h1.394l.078.016.066.044.044.066.015.077v.945l-.015.077-.044.066-.066.044-.078.015H4.884l-.078-.015-.066-.044-.044-.066-.015-.077Z" style="stroke:#585d84;stroke-width:.0212;stroke-opacity:1;stroke-linecap:round;stroke-linejoin:round;fill:none"/>
    </g>
    <g style="fill:none;stroke:#585d84;stroke-width:.05;stroke-opacity:1;stroke-linecap:round;stroke-linejoin:round">
        <g class="stroked-text">
            <path d="m5.337 11.123.086.029M5.423 11.152l.028.028M5.451 11.18l.029.058M5.48 11.238v.085M5.48 11.323l-.029.057M5.451 11.38l-.028.029M5.423 11.409l-.057.028M5.366 11.438h-.229M5.137 11.438v-.6M5.137 10.838h.2M5.337 10.838l.057.028M5.394 10.866l.029.029M5.423 10.895l.028.057M5.451 10.952v.057M5.451 11.009l-.028.057M5.423 11.066l-.029.029M5.394 11.095l-.057.028M5.337 11.123h-.2M5.709 10.895l.028-.029M5.737 10.866l.057-.028M5.794 10.838h.143M5.937 10.838l.057.028M5.994 10.866l.029.029M6.023 10.895l.028.057M6.051 10.952v.057M6.051 11.009l-.028.086M6.023 11.095l-.343.342M5.68 11.438h.371"/>
        </g>
        <path d="m4.68 10.69.015-.077.044-.066.066-.044.078-.015h1.394l.078.015.066.044.044.066.015.077v.945l-.015.078-.044.065-.066.044-.078.016H4.884l-.078-.016-.066-.044-.044-.066-.015-.077Z" style="stroke:#585d84;stroke-width:.0212;stroke-opacity:1;stroke-linecap:round;stroke-linejoin:round;fill:none"/>
    </g>
    <g style="fill:none;stroke:#afafaf;stroke-width:.15;stroke-opacity:1;stroke-linecap:round;stroke-linejoin:round">
        <g class="stroked-text">
            <path d="M.787 24v-1M.787 23l.333.714M1.12 23.714 1.454 23M1.454 23v1M2.501 23.905l-.047.047M2.454 23.952 2.31 24M2.31 24h-.095M2.216 24l-.143-.048M2.073 23.952l-.096-.095M1.977 23.857l-.047-.095M1.93 23.762l-.048-.19M1.882 23.571v-.143M1.882 23.428l.048-.19M1.93 23.238l.047-.095M1.977 23.143l.096-.096M2.073 23.047 2.216 23M2.216 23h.095M2.31 23l.144.047M2.454 23.047l.047.048M2.93 23v.81M2.93 23.81l.047.095M2.977 23.905l.048.047M3.025 23.952 3.12 24M3.12 24h.19M3.31 24l.096-.048M3.406 23.952l.048-.047M3.454 23.905l.047-.096M3.501 23.81V23M3.74 24.095H4.5M4.644 23l.667 1M5.31 23l-.666 1M5.692 24v-1M6.12 23.714h.476M6.025 24l.333-1M6.358 23l.334 1M7.216 23h.19M7.406 23l.095.047M7.501 23.047l.095.096M7.596 23.143l.048.19M7.644 23.333v.334M7.644 23.667l-.048.19M7.596 23.857l-.095.095M7.501 23.952 7.406 24M7.406 24h-.19M7.216 24l-.096-.048M7.12 23.952l-.095-.095M7.025 23.857l-.048-.19M6.977 23.667v-.334M6.977 23.333l.048-.19M7.025 23.143l.095-.096M7.12 23.047 7.215 23M7.835 24.095h.761M8.835 23.333V24M8.835 23.428l.047-.047M8.882 23.38l.095-.047M8.977 23.333h.143M9.12 23.333l.096.048M9.216 23.38l.047.096M9.263 23.476V24M10.31 24l-.333-.476M9.74 24v-1M9.74 23h.38M10.12 23l.096.047M10.216 23.047l.047.048M10.263 23.095l.048.095M10.31 23.19v.143M10.31 23.333l-.047.095M10.263 23.428l-.047.048M10.216 23.476l-.096.048M10.12 23.524h-.38M11.073 23.476h-.334M10.74 24v-1M10.74 23h.476M12.073 23h-.477M11.596 23l-.047.476M11.549 23.476l.047-.048M11.596 23.428l.096-.047M11.692 23.38h.238M11.93 23.38l.095.048M12.025 23.428l.048.048M12.073 23.476l.047.095M12.12 23.571v.238M12.12 23.81l-.047.095M12.073 23.905l-.048.047M12.025 23.952 11.93 24M11.93 24h-.238M11.692 24l-.096-.048M11.596 23.952l-.047-.047M12.501 23.095l.048-.048M12.549 23.047l.095-.047M12.644 23h.238M12.882 23l.095.047M12.977 23.047l.048.048M13.025 23.095l.048.095M13.073 23.19v.095M13.073 23.286l-.048.142M13.025 23.428l-.571.572M12.454 24h.619M13.644 23.428l-.095-.047M13.549 23.38l-.048-.047M13.501 23.333l-.047-.095M13.454 23.238v-.048M13.454 23.19l.047-.095M13.501 23.095l.048-.048M13.549 23.047l.095-.047M13.644 23h.19M13.835 23l.095.047M13.93 23.047l.047.048M13.977 23.095l.048.095M14.025 23.19v.048M14.025 23.238l-.048.095M13.977 23.333l-.047.048M13.93 23.38l-.095.048M13.835 23.428h-.191M13.644 23.428l-.095.048M13.549 23.476l-.048.048M13.501 23.524l-.047.095M13.454 23.619v.19M13.454 23.81l.047.095M13.501 23.905l.048.047M13.549 23.952l.095.048M13.644 24h.19M13.835 24l.095-.048M13.93 23.952l.047-.047M13.977 23.905l.048-.096M14.025 23.81v-.191M14.025 23.619l-.048-.095M13.977 23.524l-.047-.048M13.93 23.476l-.095-.048M14.882 23.333V24M14.644 22.952l-.238.714M14.406 23.667h.619M15.596 23h.096M15.692 23l.095.047M15.787 23.047l.047.048M15.835 23.095l.047.095M15.882 23.19l.048.19M15.93 23.38v.239M15.93 23.619l-.048.19M15.882 23.81l-.047.095M15.835 23.905l-.048.047M15.787 23.952l-.095.048M15.692 24h-.096M15.596 24l-.095-.048M15.501 23.952l-.047-.047M15.454 23.905l-.048-.096M15.406 23.81l-.048-.191M15.358 23.619v-.238M15.358 23.38l.048-.19M15.406 23.19l.048-.095M15.454 23.095l.047-.048M15.501 23.047l.095-.047M16.12 24.095h.762M17.454 23.476l.142.048M17.596 23.524l.048.047M17.644 23.571l.048.095M17.692 23.667v.142M17.692 23.81l-.048.095M17.644 23.905l-.048.047M17.596 23.952l-.095.048M17.501 24h-.38M17.12 24v-1M17.12 23h.334M17.454 23l.095.047M17.549 23.047l.047.048M17.596 23.095l.048.095M17.644 23.19v.095M17.644 23.286l-.048.095M17.596 23.38l-.047.048M17.549 23.428l-.095.048M17.454 23.476h-.334M18.073 23.714h.476M17.977 24l.334-1M18.31 23l.334 1M18.835 23h.571M19.12 24v-1"/>
        </g>
        <g class="stroked-text">
            <path d="m8.692 11.935-.334-.476M8.12 11.935v-1M8.12 10.935h.381M8.501 10.935l.095.047M8.596 10.982l.048.048M8.644 11.03l.048.095M8.692 11.125v.143M8.692 11.268l-.048.095M8.644 11.363l-.048.048M8.596 11.411l-.095.048M8.501 11.459h-.38M9.12 11.411h.334M9.596 11.935H9.12M9.12 11.935v-1M9.12 10.935h.476M10.358 11.411h-.333M10.025 11.935v-1M10.025 10.935h.476M11.025 10.935v.238M10.787 11.078l.238.095M11.025 11.173l.238-.095M10.882 11.363l.143-.19M11.025 11.173l.143.19M11.787 10.935v.238M11.549 11.078l.238.095M11.787 11.173l.238-.095M11.644 11.363l.143-.19M11.787 11.173l.143.19"/>
        </g>
    </g>
    <g style="fill:none;stroke:#afafaf;stroke-width:.1;stroke-opacity:1;stroke-linecap:round;stroke-linejoin:round">
        <path d="M1.135 20.158V2.85M2.935 1.05h14.18M17.115 21.958H2.935M18.915 2.85v17.307"/>
        <path d="M5.525.05h9v1h-9Z" style="stroke:#afafaf;stroke-width:.1;stroke-opacity:1;stroke-linecap:round;stroke-linejoin:round;fill:none"/>
        <path d="M2.935 1.05a1.8 1.8 0 0 0-1.8 1.8M1.135 20.158a1.8 1.8 0 0 0 1.8 1.8M18.915 2.85a1.8 1.8 0 0 0-1.8-1.8M17.115 21.958a1.8 1.8 0 0 0 1.8-1.8"/>
    </g>
    <g style="fill:none;stroke:#afafaf;stroke-width:.0667;stroke-opacity:1;stroke-linecap:round;stroke-linejoin:round">
        <g class="stroked-text">
            <path d="M1.654 4.227h-.458M1.425 4.227v-.8M1.425 3.427l-.076.114M1.349 3.54l-.076.077M1.273 3.617l-.077.038"/>
        </g>
        <path d="m.225 3.3.018-.092.052-.078.078-.052.092-.018h1.92l.092.018.078.052.052.078.018.092v1.12l-.018.092-.052.078-.078.052-.092.018H.465l-.092-.018-.078-.052-.052-.078-.018-.092Z" style="stroke:#afafaf;stroke-width:.0212;stroke-opacity:1;stroke-linecap:round;stroke-linejoin:round;fill:none"/>
    </g>
    <g style="fill:none;stroke:#afafaf;stroke-width:.0444;stroke-opacity:1;stroke-linecap:round;stroke-linejoin:round">
        <g class="stroked-text">
            <path d="M2.557 4.104h-.304M2.405 4.104v-.533M2.405 3.571l-.05.076M2.354 3.647l-.05.051M2.303 3.698l-.05.026"/>
        </g>
        <path d="m1.845 4.66-.092-.018-.078-.052-.052-.078-.018-.092V3.3l.018-.092.052-.078.078-.052.092-.018h1.12l.092.018.078.052.052.078.018.092v1.12l-.018.092-.052.078-.078.052-.092.018Z" style="stroke:#afafaf;stroke-width:.0212;stroke-opacity:1;stroke-linecap:round;stroke-linejoin:round;fill:none"/>
    </g>
    <g style="fill:none;stroke:#afafaf;stroke-width:.0667;stroke-opacity:1;stroke-linecap:round;stroke-linejoin:round">
        <g class="stroked-text">
            <path d="m1.196 6.043.038-.038M1.235 6.005l.076-.038M1.31 5.967h.191M1.501 5.967l.076.038M1.577 6.005l.038.038M1.616 6.043l.038.076M1.654 6.119v.076M1.654 6.195l-.038.114M1.616 6.31l-.458.457M1.158 6.767h.496"/>
        </g>
        <path d="m.225 5.84.018-.092.052-.078.078-.052.092-.018h1.92l.092.018.078.052.052.078.018.092v1.12l-.018.092-.052.078-.078.052-.092.018H.465l-.092-.018-.078-.052-.052-.078-.018-.092Z" style="stroke:#afafaf;stroke-width:.0212;stroke-opacity:1;stroke-linecap:round;stroke-linejoin:round;fill:none"/>
    </g>
    <g class="stroked-text" style="fill:none;stroke:#afafaf;stroke-width:.0444;stroke-opacity:1;stroke-linecap:round;stroke-linejoin:round">
        <path d="m2.253 6.162.025-.026M2.278 6.137l.05-.026M2.329 6.111h.127M2.456 6.111l.05.026M2.507 6.137l.025.025M2.532 6.162l.025.05M2.557 6.213v.05M2.557 6.264l-.025.076M2.532 6.34l-.305.304M2.227 6.644h.33"/>
    </g>
    <circle cx="2.405" cy="6.4" r=".8" style="fill:none;stroke:#afafaf;stroke-width:.0212;stroke-opacity:1;stroke-linecap:round;stroke-linejoin:round"/>
    <g style="fill:none;stroke:#afafaf;stroke-width:.0667;stroke-opacity:1;stroke-linecap:round;stroke-linejoin:round">
        <g class="stroked-text">
            <path d="M1.158 8.507h.496M1.654 8.507l-.267.304M1.387 8.811H1.5M1.501 8.811l.076.039M1.577 8.85l.038.038M1.616 8.888l.038.076M1.654 8.964v.19M1.654 9.154l-.038.076M1.616 9.23l-.039.038M1.577 9.269l-.076.038M1.501 9.307h-.228M1.273 9.307l-.077-.039M1.196 9.269l-.038-.039"/>
        </g>
        <path d="m.225 8.38.018-.092.052-.078.078-.052.092-.018h1.92l.092.018.078.052.052.078.018.092V9.5l-.018.092-.052.078-.078.052-.092.018H.465l-.092-.018-.078-.052-.052-.078L.225 9.5Z" style="stroke:#afafaf;stroke-width:.0212;stroke-opacity:1;stroke-linecap:round;stroke-linejoin:round;fill:none"/>
    </g>
    <g class="stroked-text" style="fill:none;stroke:#afafaf;stroke-width:.0444;stroke-opacity:1;stroke-linecap:round;stroke-linejoin:round">
        <path d="M2.227 8.651h.33M2.557 8.651l-.177.203M2.38 8.854h.076M2.456 8.854l.05.026M2.507 8.88l.025.025M2.532 8.905l.025.05M2.557 8.956v.127M2.557 9.083l-.025.05M2.532 9.134l-.025.025M2.507 9.159l-.051.025M2.456 9.184h-.153M2.303 9.184l-.05-.025M2.253 9.159l-.026-.025"/>
    </g>
    <circle cx="2.405" cy="8.94" r=".8" style="fill:none;stroke:#afafaf;stroke-width:.0212;stroke-opacity:1;stroke-linecap:round;stroke-linejoin:round"/>
    <g style="fill:none;stroke:#afafaf;stroke-width:.0667;stroke-opacity:1;stroke-linecap:round;stroke-linejoin:round">
        <g class="stroked-text">
            <path d="M1.577 11.313v.534M1.387 11.009l-.19.571M1.196 11.58h.496"/>
        </g>
        <path d="m.225 10.92.018-.092.052-.078.078-.052.092-.018h1.92l.092.018.078.052.052.078.018.092v1.12l-.018.092-.052.078-.078.052-.092.018H.465l-.092-.018-.078-.052-.052-.078-.018-.092Z" style="stroke:#afafaf;stroke-width:.0212;stroke-opacity:1;stroke-linecap:round;stroke-linejoin:round;fill:none"/>
    </g>
    <g class="stroked-text" style="fill:none;stroke:#afafaf;stroke-width:.0444;stroke-opacity:1;stroke-linecap:round;stroke-linejoin:round">
        <path d="M2.507 11.369v.355M2.38 11.166l-.127.38M2.253 11.547h.33"/>
    </g>
    <circle cx="2.405" cy="11.48" r=".8" style="fill:none;stroke:#afafaf;stroke-width:.0212;stroke-opacity:1;stroke-linecap:round;stroke-linejoin:round"/>
    <g style="fill:none;stroke:#afafaf;stroke-width:.0667;stroke-opacity:1;stroke-linecap:round;stroke-linejoin:round">
        <g class="stroked-text">
            <path d="M1.616 13.587h-.382M1.235 13.587l-.039.38M1.196 13.968l.038-.038M1.235 13.93l.076-.039M1.31 13.891h.191M1.501 13.891l.076.039M1.577 13.93l.038.038M1.616 13.968l.038.076M1.654 14.044v.19M1.654 14.234l-.038.076M1.616 14.31l-.039.038M1.577 14.349l-.076.038M1.501 14.387h-.19M1.31 14.387l-.076-.039M1.235 14.349l-.039-.039"/>
        </g>
        <path d="m.225 13.46.018-.092.052-.078.078-.052.092-.018h1.92l.092.018.078.052.052.078.018.092v1.12l-.018.092-.052.078-.078.052-.092.018H.465l-.092-.018-.078-.052-.052-.078-.018-.092Z" style="stroke:#afafaf;stroke-width:.0212;stroke-opacity:1;stroke-linecap:round;stroke-linejoin:round;fill:none"/>
    </g>
    <g class="stroked-text" style="fill:none;stroke:#afafaf;stroke-width:.0444;stroke-opacity:1;stroke-linecap:round;stroke-linejoin:round">
        <path d="M2.532 13.731h-.254M2.278 13.731l-.025.254M2.253 13.985l.025-.025M2.278 13.96l.05-.026M2.329 13.934h.127M2.456 13.934l.05.026M2.507 13.96l.025.025M2.532 13.985l.025.05M2.557 14.036v.127M2.557 14.163l-.025.05M2.532 14.214l-.025.025M2.507 14.239l-.051.025M2.456 14.264h-.127M2.329 14.264l-.051-.025M2.278 14.239l-.025-.025"/>
    </g>
    <circle cx="2.405" cy="14.02" r=".8" style="fill:none;stroke:#afafaf;stroke-width:.0212;stroke-opacity:1;stroke-linecap:round;stroke-linejoin:round"/>
    <g style="fill:none;stroke:#afafaf;stroke-width:.0667;stroke-opacity:1;stroke-linecap:round;stroke-linejoin:round">
        <g class="stroked-text">
            <path d="M1.577 16.127h-.152M1.425 16.127l-.076.038M1.349 16.165l-.038.038M1.31 16.203l-.076.114M1.235 16.317l-.039.152M1.196 16.47v.304M1.196 16.774l.038.076M1.235 16.85l.038.038M1.273 16.889l.076.038M1.349 16.927H1.5M1.501 16.927l.076-.038M1.577 16.889l.038-.039M1.616 16.85l.038-.076M1.654 16.774v-.19M1.654 16.584l-.038-.076M1.616 16.508l-.039-.038M1.577 16.47l-.076-.039M1.501 16.431H1.35M1.349 16.431l-.076.038M1.273 16.47l-.038.038M1.235 16.508l-.039.076"/>
        </g>
        <path d="m.225 16 .018-.092.052-.078.078-.052.092-.018h1.92l.092.018.078.052.052.078.018.092v1.12l-.018.092-.052.078-.078.052-.092.018H.465l-.092-.018-.078-.052-.052-.078-.018-.092Z" style="stroke:#afafaf;stroke-width:.0212;stroke-opacity:1;stroke-linecap:round;stroke-linejoin:round;fill:none"/>
    </g>
    <g class="stroked-text" style="fill:none;stroke:#afafaf;stroke-width:.0444;stroke-opacity:1;stroke-linecap:round;stroke-linejoin:round">
        <path d="M2.507 16.271h-.102M2.405 16.271l-.05.026M2.354 16.297l-.025.025M2.329 16.322l-.051.076M2.278 16.398l-.025.102M2.253 16.5v.203M2.253 16.703l.025.05M2.278 16.754l.025.025M2.303 16.779l.051.025M2.354 16.804h.102M2.456 16.804l.05-.025M2.507 16.779l.025-.025M2.532 16.754l.025-.051M2.557 16.703v-.127M2.557 16.576l-.025-.05M2.532 16.525l-.025-.025M2.507 16.5l-.051-.026M2.456 16.474h-.102M2.354 16.474l-.05.026M2.303 16.5l-.025.025M2.278 16.525l-.025.05"/>
    </g>
    <circle cx="2.405" cy="16.56" r=".8" style="fill:none;stroke:#afafaf;stroke-width:.0212;stroke-opacity:1;stroke-linecap:round;stroke-linejoin:round"/>
    <g style="fill:none;stroke:#afafaf;stroke-width:.0667;stroke-opacity:1;stroke-linecap:round;stroke-linejoin:round">
        <g class="stroked-text">
            <path d="M1.158 18.667h.534M1.692 18.667l-.343.8"/>
        </g>
        <path d="m.225 18.54.018-.092.052-.078.078-.052.092-.018h1.92l.092.018.078.052.052.078.018.092v1.12l-.018.092-.052.078-.078.052-.092.018H.465l-.092-.018-.078-.052-.052-.078-.018-.092Z" style="stroke:#afafaf;stroke-width:.0212;stroke-opacity:1;stroke-linecap:round;stroke-linejoin:round;fill:none"/>
    </g>
    <g class="stroked-text" style="fill:none;stroke:#afafaf;stroke-width:.0444;stroke-opacity:1;stroke-linecap:round;stroke-linejoin:round">
        <path d="M2.227 18.811h.356M2.583 18.811l-.229.533"/>
    </g>
    <circle cx="2.405" cy="19.1" r=".8" style="fill:none;stroke:#afafaf;stroke-width:.0212;stroke-opacity:1;stroke-linecap:round;stroke-linejoin:round"/>
    <g class="stroked-text" style="fill:none;stroke:#afafaf;stroke-width:.0444;stroke-opacity:1;stroke-linecap:round;stroke-linejoin:round">
        <path d="m17.594 19.04-.05-.026M17.543 19.014l-.025-.025M17.518 18.989l-.025-.05M17.493 18.938v-.025M17.493 18.913l.025-.051M17.518 18.862l.025-.025M17.543 18.837l.051-.026M17.594 18.811h.102M17.696 18.811l.05.026M17.747 18.837l.025.025M17.772 18.862l.025.05M17.797 18.913v.025M17.797 18.938l-.025.05M17.772 18.989l-.025.025M17.747 19.014l-.051.026M17.696 19.04h-.102M17.594 19.04l-.05.025M17.543 19.065l-.025.025M17.518 19.09l-.025.051M17.493 19.141v.102M17.493 19.243l.025.05M17.518 19.294l.025.025M17.543 19.319l.051.025M17.594 19.344h.102M17.696 19.344l.05-.025M17.747 19.319l.025-.025M17.772 19.294l.025-.051M17.797 19.243v-.102M17.797 19.141l-.025-.05M17.772 19.09l-.025-.025M17.747 19.065l-.051-.025"/>
    </g>
    <circle cx="17.645" cy="19.1" r=".8" style="fill:none;stroke:#afafaf;stroke-width:.0212;stroke-opacity:1;stroke-linecap:round;stroke-linejoin:round"/>
    <g style="fill:none;stroke:#afafaf;stroke-width:.0667;stroke-opacity:1;stroke-linecap:round;stroke-linejoin:round">
        <g class="stroked-text">
            <path d="m18.549 19.01-.076-.039M18.473 18.971l-.038-.038M18.435 18.933l-.039-.076M18.396 18.857v-.038M18.396 18.819l.038-.076M18.435 18.743l.038-.038M18.473 18.705l.076-.038M18.549 18.667h.152M18.701 18.667l.076.038M18.777 18.705l.038.038M18.816 18.743l.038.076M18.854 18.819v.038M18.854 18.857l-.038.076M18.816 18.933l-.039.038M18.777 18.971l-.076.038M18.701 19.01h-.152M18.549 19.01l-.076.038M18.473 19.048l-.038.038M18.435 19.086l-.039.076M18.396 19.162v.152M18.396 19.314l.038.076M18.435 19.39l.038.038M18.473 19.429l.076.038M18.549 19.467h.152M18.701 19.467l.076-.038M18.777 19.429l.038-.039M18.816 19.39l.038-.076M18.854 19.314v-.152M18.854 19.162l-.038-.076M18.816 19.086l-.039-.038M18.777 19.048l-.076-.038"/>
        </g>
        <path d="m17.425 18.54.018-.092.052-.078.078-.052.092-.018h1.92l.092.018.078.052.052.078.018.092v1.12l-.018.092-.052.078-.078.052-.092.018h-1.92l-.092-.018-.078-.052-.052-.078-.018-.092Z" style="stroke:#afafaf;stroke-width:.0212;stroke-opacity:1;stroke-linecap:round;stroke-linejoin:round;fill:none"/>
    </g>
    <g class="stroked-text" style="fill:none;stroke:#afafaf;stroke-width:.0444;stroke-opacity:1;stroke-linecap:round;stroke-linejoin:round">
        <path d="M17.543 16.804h.102M17.645 16.804l.05-.025M17.696 16.779l.025-.025M17.721 16.754l.051-.077M17.772 16.677l.025-.101M17.797 16.576v-.203M17.797 16.373l-.025-.051M17.772 16.322l-.025-.025M17.747 16.297l-.051-.026M17.696 16.271h-.102M17.594 16.271l-.05.026M17.543 16.297l-.025.025M17.518 16.322l-.025.05M17.493 16.373v.127M17.493 16.5l.025.05M17.518 16.55l.025.026M17.543 16.576l.051.025M17.594 16.601h.102M17.696 16.601l.05-.025M17.747 16.576l.025-.026M17.772 16.55l.025-.05"/>
    </g>
    <circle cx="17.645" cy="16.56" r=".8" style="fill:none;stroke:#afafaf;stroke-width:.0212;stroke-opacity:1;stroke-linecap:round;stroke-linejoin:round"/>
    <g style="fill:none;stroke:#afafaf;stroke-width:.0667;stroke-opacity:1;stroke-linecap:round;stroke-linejoin:round">
        <g class="stroked-text">
            <path d="M18.473 16.927h.152M18.625 16.927l.076-.038M18.701 16.889l.038-.039M18.74 16.85l.076-.114M18.816 16.736l.038-.152M18.854 16.584v-.305M18.854 16.279l-.038-.076M18.816 16.203l-.039-.038M18.777 16.165l-.076-.038M18.701 16.127h-.152M18.549 16.127l-.076.038M18.473 16.165l-.038.038M18.435 16.203l-.039.076M18.396 16.279v.19M18.396 16.47l.038.076M18.435 16.546l.038.038M18.473 16.584l.076.038M18.549 16.622h.152M18.701 16.622l.076-.038M18.777 16.584l.038-.038M18.816 16.546l.038-.076"/>
        </g>
        <path d="m17.425 16 .018-.092.052-.078.078-.052.092-.018h1.92l.092.018.078.052.052.078.018.092v1.12l-.018.092-.052.078-.078.052-.092.018h-1.92l-.092-.018-.078-.052-.052-.078-.018-.092Z" style="stroke:#afafaf;stroke-width:.0212;stroke-opacity:1;stroke-linecap:round;stroke-linejoin:round;fill:none"/>
    </g>
    <g class="stroked-text" style="fill:none;stroke:#afafaf;stroke-width:.0444;stroke-opacity:1;stroke-linecap:round;stroke-linejoin:round">
        <path d="M17.543 14.264h-.304M17.391 14.264v-.533M17.391 13.731l-.05.076M17.34 13.807l-.05.051M17.29 13.858l-.051.025M17.874 13.731h.05M17.924 13.731l.051.026M17.975 13.757l.026.025M18 13.782l.026.05M18.026 13.833l.025.101M18.051 13.934v.127M18.051 14.061l-.025.102M18.026 14.163l-.025.05M18 14.214l-.025.025M17.975 14.239l-.05.025M17.924 14.264h-.05M17.874 14.264l-.051-.025M17.823 14.239l-.026-.025M17.797 14.214l-.025-.051M17.772 14.163l-.025-.102M17.747 14.061v-.127M17.747 13.934l.025-.101M17.772 13.833l.025-.051M17.797 13.782l.026-.025M17.823 13.757l.05-.026"/>
    </g>
    <circle cx="17.645" cy="14.02" r=".8" style="fill:none;stroke:#afafaf;stroke-width:.0212;stroke-opacity:1;stroke-linecap:round;stroke-linejoin:round"/>
    <g style="fill:none;stroke:#afafaf;stroke-width:.0667;stroke-opacity:1;stroke-linecap:round;stroke-linejoin:round">
        <g class="stroked-text">
            <path d="M18.473 14.387h-.457M18.244 14.387v-.8M18.244 13.587l-.076.114M18.168 13.7l-.076.077M18.092 13.777l-.076.038M18.968 13.587h.076M19.044 13.587l.076.038M19.12 13.625l.038.038M19.158 13.663l.038.076M19.196 13.739l.038.152M19.235 13.891v.19M19.235 14.082l-.039.152M19.196 14.234l-.038.076M19.158 14.31l-.038.038M19.12 14.349l-.076.038M19.044 14.387h-.076M18.968 14.387l-.076-.039M18.892 14.349l-.038-.039M18.854 14.31l-.038-.076M18.816 14.234l-.039-.152M18.777 14.082v-.19M18.777 13.891l.038-.152M18.816 13.739l.038-.076M18.854 13.663l.038-.038M18.892 13.625l.076-.038"/>
        </g>
        <path d="m17.425 13.46.018-.092.052-.078.078-.052.092-.018h1.92l.092.018.078.052.052.078.018.092v1.12l-.018.092-.052.078-.078.052-.092.018h-1.92l-.092-.018-.078-.052-.052-.078-.018-.092Z" style="stroke:#afafaf;stroke-width:.0212;stroke-opacity:1;stroke-linecap:round;stroke-linejoin:round;fill:none"/>
    </g>
    <g class="stroked-text" style="fill:none;stroke:#afafaf;stroke-width:.0444;stroke-opacity:1;stroke-linecap:round;stroke-linejoin:round">
        <path d="M17.543 11.724h-.304M17.391 11.724v-.533M17.391 11.191l-.05.076M17.34 11.267l-.05.051M17.29 11.318l-.051.026M18.051 11.724h-.304M17.899 11.724v-.533M17.899 11.191l-.05.076M17.848 11.267l-.05.051M17.797 11.318l-.05.026"/>
    </g>
    <circle cx="17.645" cy="11.48" r=".8" style="fill:none;stroke:#afafaf;stroke-width:.0212;stroke-opacity:1;stroke-linecap:round;stroke-linejoin:round"/>
    <g style="fill:none;stroke:#afafaf;stroke-width:.0667;stroke-opacity:1;stroke-linecap:round;stroke-linejoin:round">
        <g class="stroked-text">
            <path d="M18.473 11.847h-.457M18.244 11.847v-.8M18.244 11.047l-.076.114M18.168 11.16l-.076.077M18.092 11.237l-.076.038M19.235 11.847h-.458M19.006 11.847v-.8M19.006 11.047l-.076.114M18.93 11.16l-.076.077M18.854 11.237l-.077.038"/>
        </g>
        <path d="m17.425 10.92.018-.092.052-.078.078-.052.092-.018h1.92l.092.018.078.052.052.078.018.092v1.12l-.018.092-.052.078-.078.052-.092.018h-1.92l-.092-.018-.078-.052-.052-.078-.018-.092Z" style="stroke:#afafaf;stroke-width:.0212;stroke-opacity:1;stroke-linecap:round;stroke-linejoin:round;fill:none"/>
    </g>
    <g class="stroked-text" style="fill:none;stroke:#afafaf;stroke-width:.0444;stroke-opacity:1;stroke-linecap:round;stroke-linejoin:round">
        <path d="M17.543 9.184h-.304M17.391 9.184v-.533M17.391 8.651l-.05.076M17.34 8.727l-.05.051M17.29 8.778l-.051.025M17.747 8.702l.025-.025M17.772 8.677l.05-.026M17.823 8.651h.127M17.95 8.651l.05.026M18 8.677l.026.025M18.026 8.702l.025.05M18.051 8.753v.05M18.051 8.804l-.025.076M18.026 8.88l-.305.304M17.721 9.184h.33"/>
    </g>
    <circle cx="17.645" cy="8.94" r=".8" style="fill:none;stroke:#afafaf;stroke-width:.0212;stroke-opacity:1;stroke-linecap:round;stroke-linejoin:round"/>
    <g style="fill:none;stroke:#afafaf;stroke-width:.0667;stroke-opacity:1;stroke-linecap:round;stroke-linejoin:round">
        <g class="stroked-text">
            <path d="M18.473 9.307h-.457M18.244 9.307v-.8M18.244 8.507l-.076.114M18.168 8.62l-.076.077M18.092 8.697l-.076.038M18.777 8.583l.038-.038M18.816 8.545l.076-.038M18.892 8.507h.19M19.082 8.507l.076.038M19.158 8.545l.038.038M19.196 8.583l.038.076M19.235 8.659v.076M19.235 8.735l-.039.115M19.196 8.85l-.457.457M18.74 9.307h.495"/>
        </g>
        <path d="m17.425 8.38.018-.092.052-.078.078-.052.092-.018h1.92l.092.018.078.052.052.078.018.092V9.5l-.018.092-.052.078-.078.052-.092.018h-1.92l-.092-.018-.078-.052-.052-.078-.018-.092Z" style="stroke:#afafaf;stroke-width:.0212;stroke-opacity:1;stroke-linecap:round;stroke-linejoin:round;fill:none"/>
    </g>
    <g class="stroked-text" style="fill:none;stroke:#afafaf;stroke-width:.0444;stroke-opacity:1;stroke-linecap:round;stroke-linejoin:round">
        <path d="M17.543 6.644h-.304M17.391 6.644v-.533M17.391 6.111l-.05.076M17.34 6.187l-.05.051M17.29 6.238l-.051.025M17.721 6.111h.33M18.051 6.111l-.177.203M17.874 6.314h.076M17.95 6.314l.05.026M18 6.34l.026.025M18.026 6.365l.025.05M18.051 6.416v.127M18.051 6.543l-.025.05M18.026 6.594l-.025.025M18 6.619l-.05.025M17.95 6.644h-.153M17.797 6.644l-.05-.025M17.747 6.619l-.026-.025"/>
    </g>
    <circle cx="17.645" cy="6.4" r=".8" style="fill:none;stroke:#afafaf;stroke-width:.0212;stroke-opacity:1;stroke-linecap:round;stroke-linejoin:round"/>
    <g style="fill:none;stroke:#afafaf;stroke-width:.0667;stroke-opacity:1;stroke-linecap:round;stroke-linejoin:round">
        <g class="stroked-text">
            <path d="M18.473 6.767h-.457M18.244 6.767v-.8M18.244 5.967l-.076.114M18.168 6.08l-.076.077M18.092 6.157l-.076.038M18.74 5.967h.495M19.235 5.967l-.267.304M18.968 6.271h.114M19.082 6.271l.076.038M19.158 6.31l.038.038M19.196 6.348l.038.076M19.235 6.424v.19M19.235 6.614l-.039.076M19.196 6.69l-.038.038M19.158 6.729l-.076.038M19.082 6.767h-.228M18.854 6.767l-.077-.038M18.777 6.729l-.038-.039"/>
        </g>
        <path d="m17.425 5.84.018-.092.052-.078.078-.052.092-.018h1.92l.092.018.078.052.052.078.018.092v1.12l-.018.092-.052.078-.078.052-.092.018h-1.92l-.092-.018-.078-.052-.052-.078-.018-.092Z" style="stroke:#afafaf;stroke-width:.0212;stroke-opacity:1;stroke-linecap:round;stroke-linejoin:round;fill:none"/>
    </g>
    <g class="stroked-text" style="fill:none;stroke:#afafaf;stroke-width:.0444;stroke-opacity:1;stroke-linecap:round;stroke-linejoin:round">
        <path d="M17.543 4.104h-.304M17.391 4.104v-.533M17.391 3.571l-.05.076M17.34 3.647l-.05.051M17.29 3.698l-.051.026M18 3.749v.355M17.874 3.546l-.127.38M17.747 3.927h.33"/>
    </g>
    <circle cx="17.645" cy="3.86" r=".8" style="fill:none;stroke:#afafaf;stroke-width:.0212;stroke-opacity:1;stroke-linecap:round;stroke-linejoin:round"/>
    <g style="fill:none;stroke:#afafaf;stroke-width:.0667;stroke-opacity:1;stroke-linecap:round;stroke-linejoin:round">
        <g class="stroked-text">
            <path d="M18.473 4.227h-.457M18.244 4.227v-.8M18.244 3.427l-.076.114M18.168 3.54l-.076.077M18.092 3.617l-.076.038M19.158 3.693v.534M18.968 3.389l-.19.571M18.777 3.96h.496"/>
        </g>
        <path d="m17.425 3.3.018-.092.052-.078.078-.052.092-.018h1.92l.092.018.078.052.052.078.018.092v1.12l-.018.092-.052.078-.078.052-.092.018h-1.92l-.092-.018-.078-.052-.052-.078-.018-.092Z" style="stroke:#afafaf;stroke-width:.0212;stroke-opacity:1;stroke-linecap:round;stroke-linejoin:round;fill:none"/>
    </g>
    <g style="fill:none;stroke:#afafaf;stroke-width:.05;stroke-opacity:1;stroke-linecap:round;stroke-linejoin:round">
        <g class="stroked-text">
            <path d="m5.337 9.218.086.029M5.423 9.247l.028.028M5.451 9.275l.029.057M5.48 9.333v.085M5.48 9.418l-.029.057M5.451 9.475l-.028.029M5.423 9.504l-.057.029M5.366 9.533h-.229M5.137 9.533v-.6M5.137 8.933h.2M5.337 8.933l.057.028M5.394 8.961l.029.029M5.423 8.99l.028.057M5.451 9.047v.057M5.451 9.104l-.028.057M5.423 9.161l-.029.029M5.394 9.19l-.057.028M5.337 9.218h-.2M6.051 9.533H5.71M5.88 9.533v-.6M5.88 8.933l-.057.085M5.823 9.018l-.057.057M5.766 9.075l-.057.029"/>
        </g>
        <path d="m4.68 8.785.015-.078.044-.065.066-.044.078-.016h1.394l.078.016.066.044.044.066.015.077v.945l-.015.077-.044.066-.066.044-.078.015H4.884l-.078-.015-.066-.044-.044-.066-.015-.077Z" style="stroke:#afafaf;stroke-width:.0212;stroke-opacity:1;stroke-linecap:round;stroke-linejoin:round;fill:none"/>
    </g>
    <g style="fill:none;stroke:#afafaf;stroke-width:.0694;stroke-opacity:1;stroke-linecap:round;stroke-linejoin:round">
        <g class="stroked-text">
            <path d="m5.243 9.203.119.04M5.362 9.243l.04.04M5.401 9.282l.04.08M5.441 9.362v.119M5.441 9.48l-.04.08M5.401 9.56l-.04.04M5.362 9.6l-.08.04M5.282 9.64h-.317M4.965 9.64v-.834M4.965 8.806h.278M5.243 8.806l.08.04M5.322 8.846l.04.04M5.362 8.885l.04.08M5.401 8.965v.08M5.401 9.044l-.04.08M5.362 9.124l-.04.04M5.322 9.163l-.08.04M5.243 9.203h-.278M6.235 9.64h-.476M5.997 9.64v-.834M5.997 8.806l-.08.12M5.917 8.925l-.08.08M5.838 9.005l-.08.04"/>
        </g>
        <path d="m4.33 8.785.015-.078.044-.065.066-.044.077-.016h2.096l.077.016.066.044.044.066.015.077v.945l-.015.077-.044.066-.066.044-.077.015H4.532l-.077-.015-.066-.044-.044-.066-.015-.077Z" style="stroke:#afafaf;stroke-width:.0212;stroke-opacity:1;stroke-linecap:round;stroke-linejoin:round;fill:none"/>
    </g>
    <g style="fill:none;stroke:#afafaf;stroke-width:.05;stroke-opacity:1;stroke-linecap:round;stroke-linejoin:round">
        <g class="stroked-text">
            <path d="m5.337 11.123.086.029M5.423 11.152l.028.028M5.451 11.18l.029.058M5.48 11.238v.085M5.48 11.323l-.029.057M5.451 11.38l-.028.029M5.423 11.409l-.057.028M5.366 11.438h-.229M5.137 11.438v-.6M5.137 10.838h.2M5.337 10.838l.057.028M5.394 10.866l.029.029M5.423 10.895l.028.057M5.451 10.952v.057M5.451 11.009l-.028.057M5.423 11.066l-.029.029M5.394 11.095l-.057.028M5.337 11.123h-.2M5.709 10.895l.028-.029M5.737 10.866l.057-.028M5.794 10.838h.143M5.937 10.838l.057.028M5.994 10.866l.029.029M6.023 10.895l.028.057M6.051 10.952v.057M6.051 11.009l-.028.086M6.023 11.095l-.343.342M5.68 11.438h.371"/>
        </g>
        <path d="m4.68 10.69.015-.077.044-.066.066-.044.078-.015h1.394l.078.015.066.044.044.066.015.077v.945l-.015.078-.044.065-.066.044-.078.016H4.884l-.078-.016-.066-.044-.044-.066-.015-.077Z" style="stroke:#afafaf;stroke-width:.0212;stroke-opacity:1;stroke-linecap:round;stroke-linejoin:round;fill:none"/>
    </g>
    <g style="fill:none;stroke:#afafaf;stroke-width:.0694;stroke-opacity:1;stroke-linecap:round;stroke-linejoin:round">
        <g class="stroked-text">
            <path d="m5.243 11.108.119.04M5.362 11.148l.04.04M5.401 11.187l.04.08M5.441 11.267v.119M5.441 11.386l-.04.079M5.401 11.465l-.04.04M5.362 11.505l-.08.04M5.282 11.544h-.317M4.965 11.544v-.833M4.965 10.711h.278M5.243 10.711l.08.04M5.322 10.75l.04.04M5.362 10.79l.04.08M5.401 10.87v.08M5.401 10.95l-.04.079M5.362 11.029l-.04.04M5.322 11.068l-.08.04M5.243 11.108h-.278M5.759 10.79l.04-.04M5.798 10.75l.08-.039M5.878 10.711h.198M6.076 10.711l.08.04M6.155 10.75l.04.04M6.195 10.79l.04.08M6.235 10.87v.08M6.235 10.95l-.04.118M6.195 11.068l-.476.476M5.719 11.544h.516"/>
        </g>
        <path d="m4.33 10.69.015-.077.044-.066.066-.044.077-.015h2.096l.077.015.066.044.044.066.015.077v.945l-.015.078-.044.065-.066.044-.077.016H4.532l-.077-.016-.066-.044-.044-.066-.015-.077Z" style="stroke:#afafaf;stroke-width:.0212;stroke-opacity:1;stroke-linecap:round;stroke-linejoin:round;fill:none"/>
    </g>
</svg>
