<?xml version="1.0" standalone="no"?>
 <!DOCTYPE svg PUBLIC "-//W3C//DTD SVG 1.1//EN" 
 "http://www.w3.org/Graphics/SVG/1.1/DTD/svg11.dtd"> 
<svg
  xmlns:svg="http://www.w3.org/2000/svg"
  xmlns="http://www.w3.org/2000/svg"
  xmlns:xlink="http://www.w3.org/1999/xlink"
  version="1.1"
  width="29.4386mm" height="36.2712mm" viewBox="0.0000 0.0000 29.4386 36.2712">
<title>SVG Image created as MCU_ProMicro_Generic_ZigZag_Reverse.svg date 2025/05/12 22:52:35 </title>
  <desc>Image generated by PCBNEW </desc>
<g style="fill:#000000; fill-opacity:1.0000;stroke:#000000; stroke-opacity:1.0000;
stroke-linecap:round; stroke-linejoin:round;"
 transform="translate(0 0) scale(1 1)">
</g>
<g style="fill:none; 
stroke:#F2EDA1; stroke-width:0.1500; stroke-opacity:1; 
stroke-linecap:round; stroke-linejoin:round;">
<text x="14.7202" y="5.5400"
textLength="4.5357" font-size="1.3333" lengthAdjust="spacingAndGlyphs"
text-anchor="middle" opacity="0" stroke-opacity="0">REF**</text>
<g class="stroked-text"><desc>REF**</desc>
<path d="M13.3869 5.4948
L13.0536 5.0186
" />
<path d="M12.8155 5.4948
L12.8155 4.4948
" />
<path d="M12.8155 4.4948
L13.1964 4.4948
" />
<path d="M13.1964 4.4948
L13.2917 4.5424
" />
<path d="M13.2917 4.5424
L13.3393 4.5901
" />
<path d="M13.3393 4.5901
L13.3869 4.6853
" />
<path d="M13.3869 4.6853
L13.3869 4.8282
" />
<path d="M13.3869 4.8282
L13.3393 4.9234
" />
<path d="M13.3393 4.9234
L13.2917 4.9710
" />
<path d="M13.2917 4.9710
L13.1964 5.0186
" />
<path d="M13.1964 5.0186
L12.8155 5.0186
" />
<path d="M13.8155 4.9710
L14.1488 4.9710
" />
<path d="M14.2917 5.4948
L13.8155 5.4948
" />
<path d="M13.8155 5.4948
L13.8155 4.4948
" />
<path d="M13.8155 4.4948
L14.2917 4.4948
" />
<path d="M15.0536 4.9710
L14.7202 4.9710
" />
<path d="M14.7202 5.4948
L14.7202 4.4948
" />
<path d="M14.7202 4.4948
L15.1964 4.4948
" />
<path d="M15.7202 4.4948
L15.7202 4.7329
" />
<path d="M15.4821 4.6377
L15.7202 4.7329
" />
<path d="M15.7202 4.7329
L15.9583 4.6377
" />
<path d="M15.5774 4.9234
L15.7202 4.7329
" />
<path d="M15.7202 4.7329
L15.8631 4.9234
" />
<path d="M16.4821 4.4948
L16.4821 4.7329
" />
<path d="M16.2440 4.6377
L16.4821 4.7329
" />
<path d="M16.4821 4.7329
L16.7202 4.6377
" />
<path d="M16.3393 4.9234
L16.4821 4.7329
" />
<path d="M16.4821 4.7329
L16.6250 4.9234
" />
</g></g>
<g style="fill:none; 
stroke:#F2EDA1; stroke-width:0.1200; stroke-opacity:1; 
stroke-linecap:round; stroke-linejoin:round;">
<path d="M21.4802 4.2400
L21.4802 5.8400
" />
<path style="fill:none; 
stroke:#F2EDA1; stroke-width:0.1200; stroke-opacity:1; 
stroke-linecap:round; stroke-linejoin:round;fill:none"
d="M 5.7302,1.1300
23.7102,1.1300
23.7102,34.3500
5.7302,34.3500
Z" /> 
<path style="fill:#4D7FC4; fill-opacity:1.0000; stroke:none;fill-rule:evenodd;"
d="M 21.7942,4.4800
21.8125,4.3882
21.8645,4.3103
21.9424,4.2583
22.0342,4.2400
23.1542,4.2400
23.2461,4.2583
23.3239,4.3103
23.3760,4.3882
23.3942,4.4800
23.3942,5.6000
23.3760,5.6918
23.3239,5.7697
23.2461,5.8217
23.1542,5.8400
22.0342,5.8400
21.9424,5.8217
21.8645,5.7697
21.8125,5.6918
21.7942,5.6000
Z" /> 
</g>
<g style="fill:#4D7FC4; fill-opacity:1.0000; stroke:none;">
<circle cx="22.0862" cy="7.5800" r="0.8000" /> 
<circle cx="22.5942" cy="10.1200" r="0.8000" /> 
<circle cx="22.0862" cy="12.6600" r="0.8000" /> 
<circle cx="22.5942" cy="15.2000" r="0.8000" /> 
<circle cx="22.0862" cy="17.7400" r="0.8000" /> 
<circle cx="22.5942" cy="20.2800" r="0.8000" /> 
<circle cx="22.0862" cy="22.8200" r="0.8000" /> 
<circle cx="22.5942" cy="25.3600" r="0.8000" /> 
<circle cx="22.0862" cy="27.9000" r="0.8000" /> 
<circle cx="22.5942" cy="30.4400" r="0.8000" /> 
<circle cx="22.0862" cy="32.9800" r="0.8000" /> 
<circle cx="7.3542" cy="32.9800" r="0.8000" /> 
<circle cx="6.8462" cy="30.4400" r="0.8000" /> 
<circle cx="7.3542" cy="27.9000" r="0.8000" /> 
<circle cx="6.8462" cy="25.3600" r="0.8000" /> 
<circle cx="7.3542" cy="22.8200" r="0.8000" /> 
<circle cx="6.8462" cy="20.2800" r="0.8000" /> 
<circle cx="7.3542" cy="17.7400" r="0.8000" /> 
<circle cx="6.8462" cy="15.2000" r="0.8000" /> 
<circle cx="7.3542" cy="12.6600" r="0.8000" /> 
<circle cx="6.8462" cy="10.1200" r="0.8000" /> 
<circle cx="7.3542" cy="7.5800" r="0.8000" /> 
<circle cx="6.8462" cy="5.0400" r="0.8000" /> 
<path style="fill:#C83434; fill-opacity:1.0000; stroke:none;fill-rule:evenodd;"
d="M 21.7942,4.4800
21.8125,4.3882
21.8645,4.3103
21.9424,4.2583
22.0342,4.2400
23.1542,4.2400
23.2461,4.2583
23.3239,4.3103
23.3760,4.3882
23.3942,4.4800
23.3942,5.6000
23.3760,5.6918
23.3239,5.7697
23.2461,5.8217
23.1542,5.8400
22.0342,5.8400
21.9424,5.8217
21.8645,5.7697
21.8125,5.6918
21.7942,5.6000
Z" /> 
</g>
<g style="fill:#C83434; fill-opacity:1.0000; stroke:none;">
<circle cx="22.0862" cy="7.5800" r="0.8000" /> 
<circle cx="22.5942" cy="10.1200" r="0.8000" /> 
<circle cx="22.0862" cy="12.6600" r="0.8000" /> 
<circle cx="22.5942" cy="15.2000" r="0.8000" /> 
<circle cx="22.0862" cy="17.7400" r="0.8000" /> 
<circle cx="22.5942" cy="20.2800" r="0.8000" /> 
<circle cx="22.0862" cy="22.8200" r="0.8000" /> 
<circle cx="22.5942" cy="25.3600" r="0.8000" /> 
<circle cx="22.0862" cy="27.9000" r="0.8000" /> 
<circle cx="22.5942" cy="30.4400" r="0.8000" /> 
<circle cx="22.0862" cy="32.9800" r="0.8000" /> 
<circle cx="7.3542" cy="32.9800" r="0.8000" /> 
<circle cx="6.8462" cy="30.4400" r="0.8000" /> 
<circle cx="7.3542" cy="27.9000" r="0.8000" /> 
<circle cx="6.8462" cy="25.3600" r="0.8000" /> 
<circle cx="7.3542" cy="22.8200" r="0.8000" /> 
<circle cx="6.8462" cy="20.2800" r="0.8000" /> 
<circle cx="7.3542" cy="17.7400" r="0.8000" /> 
<circle cx="6.8462" cy="15.2000" r="0.8000" /> 
<circle cx="7.3542" cy="12.6600" r="0.8000" /> 
<circle cx="6.8462" cy="10.1200" r="0.8000" /> 
<circle cx="7.3542" cy="7.5800" r="0.8000" /> 
<circle cx="6.8462" cy="5.0400" r="0.8000" /> 
</g>
<g style="fill:none; 
stroke:#585D84; stroke-width:0.0444; stroke-opacity:1; 
stroke-linecap:round; stroke-linejoin:round;">
<text x="22.5942" y="5.3067"
textLength="0.5346" font-size="0.7111" lengthAdjust="spacingAndGlyphs"
text-anchor="middle" opacity="0" stroke-opacity="0">1</text>
<g class="stroked-text"><desc>1</desc>
<path d="M22.7466 5.2844
L22.4419 5.2844
" />
<path d="M22.5942 5.2844
L22.5942 4.7511
" />
<path d="M22.5942 4.7511
L22.5434 4.8273
" />
<path d="M22.5434 4.8273
L22.4927 4.8781
" />
<path d="M22.4927 4.8781
L22.4419 4.9035
" />
</g><path style="fill:none; 
stroke:#585D84; stroke-width:0.0212; stroke-opacity:1; 
stroke-linecap:round; stroke-linejoin:round;fill:none"
d="M 21.7942,4.4800
21.8125,4.3882
21.8645,4.3103
21.9424,4.2583
22.0342,4.2400
23.1542,4.2400
23.2461,4.2583
23.3239,4.3103
23.3760,4.3882
23.3942,4.4800
23.3942,5.6000
23.3760,5.6918
23.3239,5.7697
23.2461,5.8217
23.1542,5.8400
22.0342,5.8400
21.9424,5.8217
21.8645,5.7697
21.8125,5.6918
21.7942,5.6000
Z" /> 
</g>
<g style="fill:none; 
stroke:#585D84; stroke-width:0.0444; stroke-opacity:1; 
stroke-linecap:round; stroke-linejoin:round;">
<text x="22.0862" y="7.8467"
textLength="0.5346" font-size="0.7111" lengthAdjust="spacingAndGlyphs"
text-anchor="middle" opacity="0" stroke-opacity="0">2</text>
<g class="stroked-text"><desc>2</desc>
<path d="M21.9339 7.3419
L21.9593 7.3165
" />
<path d="M21.9593 7.3165
L22.0100 7.2911
" />
<path d="M22.0100 7.2911
L22.1370 7.2911
" />
<path d="M22.1370 7.2911
L22.1878 7.3165
" />
<path d="M22.1878 7.3165
L22.2132 7.3419
" />
<path d="M22.2132 7.3419
L22.2386 7.3927
" />
<path d="M22.2386 7.3927
L22.2386 7.4435
" />
<path d="M22.2386 7.4435
L22.2132 7.5197
" />
<path d="M22.2132 7.5197
L21.9085 7.8244
" />
<path d="M21.9085 7.8244
L22.2386 7.8244
" />
</g></g>
<g style="fill:none; 
stroke:#585D84; stroke-width:0.0212; stroke-opacity:1; 
stroke-linecap:round; stroke-linejoin:round;">
<path d="M21.2862 7.5800
L21.2862 7.5800
" />
<path d="M21.2862 7.5800 A0.8000 0.8000 0.0 0 0 22.8862 7.5800" />
<path d="M22.8862 7.5800
L22.8862 7.5800
" />
<path d="M22.8862 7.5800 A0.8000 0.8000 0.0 0 0 21.2862 7.5800" />
</g>
<g style="fill:none; 
stroke:#585D84; stroke-width:0.0444; stroke-opacity:1; 
stroke-linecap:round; stroke-linejoin:round;">
<text x="22.5942" y="10.3867"
textLength="0.5346" font-size="0.7111" lengthAdjust="spacingAndGlyphs"
text-anchor="middle" opacity="0" stroke-opacity="0">3</text>
<g class="stroked-text"><desc>3</desc>
<path d="M22.4165 9.8311
L22.7466 9.8311
" />
<path d="M22.7466 9.8311
L22.5688 10.0343
" />
<path d="M22.5688 10.0343
L22.6450 10.0343
" />
<path d="M22.6450 10.0343
L22.6958 10.0597
" />
<path d="M22.6958 10.0597
L22.7212 10.0851
" />
<path d="M22.7212 10.0851
L22.7466 10.1358
" />
<path d="M22.7466 10.1358
L22.7466 10.2628
" />
<path d="M22.7466 10.2628
L22.7212 10.3136
" />
<path d="M22.7212 10.3136
L22.6958 10.3390
" />
<path d="M22.6958 10.3390
L22.6450 10.3644
" />
<path d="M22.6450 10.3644
L22.4927 10.3644
" />
<path d="M22.4927 10.3644
L22.4419 10.3390
" />
<path d="M22.4419 10.3390
L22.4165 10.3136
" />
</g></g>
<g style="fill:none; 
stroke:#585D84; stroke-width:0.0212; stroke-opacity:1; 
stroke-linecap:round; stroke-linejoin:round;">
<path d="M21.7942 10.1200
L21.7942 10.1200
" />
<path d="M21.7942 10.1200 A0.8000 0.8000 0.0 0 0 23.3942 10.1200" />
<path d="M23.3942 10.1200
L23.3942 10.1200
" />
<path d="M23.3942 10.1200 A0.8000 0.8000 0.0 0 0 21.7942 10.1200" />
</g>
<g style="fill:none; 
stroke:#585D84; stroke-width:0.0444; stroke-opacity:1; 
stroke-linecap:round; stroke-linejoin:round;">
<text x="22.0862" y="12.9267"
textLength="0.5346" font-size="0.7111" lengthAdjust="spacingAndGlyphs"
text-anchor="middle" opacity="0" stroke-opacity="0">4</text>
<g class="stroked-text"><desc>4</desc>
<path d="M22.1878 12.5489
L22.1878 12.9044
" />
<path d="M22.0608 12.3457
L21.9339 12.7266
" />
<path d="M21.9339 12.7266
L22.2640 12.7266
" />
</g></g>
<g style="fill:none; 
stroke:#585D84; stroke-width:0.0212; stroke-opacity:1; 
stroke-linecap:round; stroke-linejoin:round;">
<path d="M21.2862 12.6600
L21.2862 12.6600
" />
<path d="M21.2862 12.6600 A0.8000 0.8000 0.0 0 0 22.8862 12.6600" />
<path d="M22.8862 12.6600
L22.8862 12.6600
" />
<path d="M22.8862 12.6600 A0.8000 0.8000 0.0 0 0 21.2862 12.6600" />
</g>
<g style="fill:none; 
stroke:#585D84; stroke-width:0.0444; stroke-opacity:1; 
stroke-linecap:round; stroke-linejoin:round;">
<text x="22.5942" y="15.4667"
textLength="0.5346" font-size="0.7111" lengthAdjust="spacingAndGlyphs"
text-anchor="middle" opacity="0" stroke-opacity="0">5</text>
<g class="stroked-text"><desc>5</desc>
<path d="M22.7212 14.9111
L22.4673 14.9111
" />
<path d="M22.4673 14.9111
L22.4419 15.1651
" />
<path d="M22.4419 15.1651
L22.4673 15.1397
" />
<path d="M22.4673 15.1397
L22.5180 15.1143
" />
<path d="M22.5180 15.1143
L22.6450 15.1143
" />
<path d="M22.6450 15.1143
L22.6958 15.1397
" />
<path d="M22.6958 15.1397
L22.7212 15.1651
" />
<path d="M22.7212 15.1651
L22.7466 15.2158
" />
<path d="M22.7466 15.2158
L22.7466 15.3428
" />
<path d="M22.7466 15.3428
L22.7212 15.3936
" />
<path d="M22.7212 15.3936
L22.6958 15.4190
" />
<path d="M22.6958 15.4190
L22.6450 15.4444
" />
<path d="M22.6450 15.4444
L22.5180 15.4444
" />
<path d="M22.5180 15.4444
L22.4673 15.4190
" />
<path d="M22.4673 15.4190
L22.4419 15.3936
" />
</g></g>
<g style="fill:none; 
stroke:#585D84; stroke-width:0.0212; stroke-opacity:1; 
stroke-linecap:round; stroke-linejoin:round;">
<path d="M21.7942 15.2000
L21.7942 15.2000
" />
<path d="M21.7942 15.2000 A0.8000 0.8000 0.0 0 0 23.3942 15.2000" />
<path d="M23.3942 15.2000
L23.3942 15.2000
" />
<path d="M23.3942 15.2000 A0.8000 0.8000 0.0 0 0 21.7942 15.2000" />
</g>
<g style="fill:none; 
stroke:#585D84; stroke-width:0.0444; stroke-opacity:1; 
stroke-linecap:round; stroke-linejoin:round;">
<text x="22.0862" y="18.0067"
textLength="0.5346" font-size="0.7111" lengthAdjust="spacingAndGlyphs"
text-anchor="middle" opacity="0" stroke-opacity="0">6</text>
<g class="stroked-text"><desc>6</desc>
<path d="M22.1878 17.4511
L22.0862 17.4511
" />
<path d="M22.0862 17.4511
L22.0354 17.4765
" />
<path d="M22.0354 17.4765
L22.0100 17.5019
" />
<path d="M22.0100 17.5019
L21.9593 17.5781
" />
<path d="M21.9593 17.5781
L21.9339 17.6797
" />
<path d="M21.9339 17.6797
L21.9339 17.8828
" />
<path d="M21.9339 17.8828
L21.9593 17.9336
" />
<path d="M21.9593 17.9336
L21.9847 17.9590
" />
<path d="M21.9847 17.9590
L22.0354 17.9844
" />
<path d="M22.0354 17.9844
L22.1370 17.9844
" />
<path d="M22.1370 17.9844
L22.1878 17.9590
" />
<path d="M22.1878 17.9590
L22.2132 17.9336
" />
<path d="M22.2132 17.9336
L22.2386 17.8828
" />
<path d="M22.2386 17.8828
L22.2386 17.7558
" />
<path d="M22.2386 17.7558
L22.2132 17.7051
" />
<path d="M22.2132 17.7051
L22.1878 17.6797
" />
<path d="M22.1878 17.6797
L22.1370 17.6543
" />
<path d="M22.1370 17.6543
L22.0354 17.6543
" />
<path d="M22.0354 17.6543
L21.9847 17.6797
" />
<path d="M21.9847 17.6797
L21.9593 17.7051
" />
<path d="M21.9593 17.7051
L21.9339 17.7558
" />
</g></g>
<g style="fill:none; 
stroke:#585D84; stroke-width:0.0212; stroke-opacity:1; 
stroke-linecap:round; stroke-linejoin:round;">
<path d="M21.2862 17.7400
L21.2862 17.7400
" />
<path d="M21.2862 17.7400 A0.8000 0.8000 0.0 0 0 22.8862 17.7400" />
<path d="M22.8862 17.7400
L22.8862 17.7400
" />
<path d="M22.8862 17.7400 A0.8000 0.8000 0.0 0 0 21.2862 17.7400" />
</g>
<g style="fill:none; 
stroke:#585D84; stroke-width:0.0444; stroke-opacity:1; 
stroke-linecap:round; stroke-linejoin:round;">
<text x="22.5942" y="20.5467"
textLength="0.5346" font-size="0.7111" lengthAdjust="spacingAndGlyphs"
text-anchor="middle" opacity="0" stroke-opacity="0">7</text>
<g class="stroked-text"><desc>7</desc>
<path d="M22.4165 19.9911
L22.7720 19.9911
" />
<path d="M22.7720 19.9911
L22.5434 20.5244
" />
</g></g>
<g style="fill:none; 
stroke:#585D84; stroke-width:0.0212; stroke-opacity:1; 
stroke-linecap:round; stroke-linejoin:round;">
<path d="M21.7942 20.2800
L21.7942 20.2800
" />
<path d="M21.7942 20.2800 A0.8000 0.8000 0.0 0 0 23.3942 20.2800" />
<path d="M23.3942 20.2800
L23.3942 20.2800
" />
<path d="M23.3942 20.2800 A0.8000 0.8000 0.0 0 0 21.7942 20.2800" />
</g>
<g style="fill:none; 
stroke:#585D84; stroke-width:0.0444; stroke-opacity:1; 
stroke-linecap:round; stroke-linejoin:round;">
<text x="22.0862" y="23.0867"
textLength="0.5346" font-size="0.7111" lengthAdjust="spacingAndGlyphs"
text-anchor="middle" opacity="0" stroke-opacity="0">8</text>
<g class="stroked-text"><desc>8</desc>
<path d="M22.0354 22.7597
L21.9847 22.7343
" />
<path d="M21.9847 22.7343
L21.9593 22.7089
" />
<path d="M21.9593 22.7089
L21.9339 22.6581
" />
<path d="M21.9339 22.6581
L21.9339 22.6327
" />
<path d="M21.9339 22.6327
L21.9593 22.5819
" />
<path d="M21.9593 22.5819
L21.9847 22.5565
" />
<path d="M21.9847 22.5565
L22.0354 22.5311
" />
<path d="M22.0354 22.5311
L22.1370 22.5311
" />
<path d="M22.1370 22.5311
L22.1878 22.5565
" />
<path d="M22.1878 22.5565
L22.2132 22.5819
" />
<path d="M22.2132 22.5819
L22.2386 22.6327
" />
<path d="M22.2386 22.6327
L22.2386 22.6581
" />
<path d="M22.2386 22.6581
L22.2132 22.7089
" />
<path d="M22.2132 22.7089
L22.1878 22.7343
" />
<path d="M22.1878 22.7343
L22.1370 22.7597
" />
<path d="M22.1370 22.7597
L22.0354 22.7597
" />
<path d="M22.0354 22.7597
L21.9847 22.7851
" />
<path d="M21.9847 22.7851
L21.9593 22.8104
" />
<path d="M21.9593 22.8104
L21.9339 22.8612
" />
<path d="M21.9339 22.8612
L21.9339 22.9628
" />
<path d="M21.9339 22.9628
L21.9593 23.0136
" />
<path d="M21.9593 23.0136
L21.9847 23.0390
" />
<path d="M21.9847 23.0390
L22.0354 23.0644
" />
<path d="M22.0354 23.0644
L22.1370 23.0644
" />
<path d="M22.1370 23.0644
L22.1878 23.0390
" />
<path d="M22.1878 23.0390
L22.2132 23.0136
" />
<path d="M22.2132 23.0136
L22.2386 22.9628
" />
<path d="M22.2386 22.9628
L22.2386 22.8612
" />
<path d="M22.2386 22.8612
L22.2132 22.8104
" />
<path d="M22.2132 22.8104
L22.1878 22.7851
" />
<path d="M22.1878 22.7851
L22.1370 22.7597
" />
</g></g>
<g style="fill:none; 
stroke:#585D84; stroke-width:0.0212; stroke-opacity:1; 
stroke-linecap:round; stroke-linejoin:round;">
<path d="M21.2862 22.8200
L21.2862 22.8200
" />
<path d="M21.2862 22.8200 A0.8000 0.8000 0.0 0 0 22.8862 22.8200" />
<path d="M22.8862 22.8200
L22.8862 22.8200
" />
<path d="M22.8862 22.8200 A0.8000 0.8000 0.0 0 0 21.2862 22.8200" />
</g>
<g style="fill:none; 
stroke:#585D84; stroke-width:0.0444; stroke-opacity:1; 
stroke-linecap:round; stroke-linejoin:round;">
<text x="22.5942" y="25.6267"
textLength="0.5346" font-size="0.7111" lengthAdjust="spacingAndGlyphs"
text-anchor="middle" opacity="0" stroke-opacity="0">9</text>
<g class="stroked-text"><desc>9</desc>
<path d="M22.4927 25.6044
L22.5942 25.6044
" />
<path d="M22.5942 25.6044
L22.6450 25.5790
" />
<path d="M22.6450 25.5790
L22.6704 25.5536
" />
<path d="M22.6704 25.5536
L22.7212 25.4774
" />
<path d="M22.7212 25.4774
L22.7466 25.3758
" />
<path d="M22.7466 25.3758
L22.7466 25.1727
" />
<path d="M22.7466 25.1727
L22.7212 25.1219
" />
<path d="M22.7212 25.1219
L22.6958 25.0965
" />
<path d="M22.6958 25.0965
L22.6450 25.0711
" />
<path d="M22.6450 25.0711
L22.5434 25.0711
" />
<path d="M22.5434 25.0711
L22.4927 25.0965
" />
<path d="M22.4927 25.0965
L22.4673 25.1219
" />
<path d="M22.4673 25.1219
L22.4419 25.1727
" />
<path d="M22.4419 25.1727
L22.4419 25.2997
" />
<path d="M22.4419 25.2997
L22.4673 25.3504
" />
<path d="M22.4673 25.3504
L22.4927 25.3758
" />
<path d="M22.4927 25.3758
L22.5434 25.4012
" />
<path d="M22.5434 25.4012
L22.6450 25.4012
" />
<path d="M22.6450 25.4012
L22.6958 25.3758
" />
<path d="M22.6958 25.3758
L22.7212 25.3504
" />
<path d="M22.7212 25.3504
L22.7466 25.2997
" />
</g></g>
<g style="fill:none; 
stroke:#585D84; stroke-width:0.0212; stroke-opacity:1; 
stroke-linecap:round; stroke-linejoin:round;">
<path d="M21.7942 25.3600
L21.7942 25.3600
" />
<path d="M21.7942 25.3600 A0.8000 0.8000 0.0 0 0 23.3942 25.3600" />
<path d="M23.3942 25.3600
L23.3942 25.3600
" />
<path d="M23.3942 25.3600 A0.8000 0.8000 0.0 0 0 21.7942 25.3600" />
</g>
<g style="fill:none; 
stroke:#585D84; stroke-width:0.0444; stroke-opacity:1; 
stroke-linecap:round; stroke-linejoin:round;">
<text x="22.0862" y="28.1667"
textLength="1.0425" font-size="0.7111" lengthAdjust="spacingAndGlyphs"
text-anchor="middle" opacity="0" stroke-opacity="0">10</text>
<g class="stroked-text"><desc>10</desc>
<path d="M21.9847 28.1444
L21.6799 28.1444
" />
<path d="M21.8323 28.1444
L21.8323 27.6111
" />
<path d="M21.8323 27.6111
L21.7815 27.6873
" />
<path d="M21.7815 27.6873
L21.7307 27.7381
" />
<path d="M21.7307 27.7381
L21.6799 27.7635
" />
<path d="M22.3148 27.6111
L22.3656 27.6111
" />
<path d="M22.3656 27.6111
L22.4164 27.6365
" />
<path d="M22.4164 27.6365
L22.4418 27.6619
" />
<path d="M22.4418 27.6619
L22.4672 27.7127
" />
<path d="M22.4672 27.7127
L22.4926 27.8143
" />
<path d="M22.4926 27.8143
L22.4926 27.9412
" />
<path d="M22.4926 27.9412
L22.4672 28.0428
" />
<path d="M22.4672 28.0428
L22.4418 28.0936
" />
<path d="M22.4418 28.0936
L22.4164 28.1190
" />
<path d="M22.4164 28.1190
L22.3656 28.1444
" />
<path d="M22.3656 28.1444
L22.3148 28.1444
" />
<path d="M22.3148 28.1444
L22.2640 28.1190
" />
<path d="M22.2640 28.1190
L22.2386 28.0936
" />
<path d="M22.2386 28.0936
L22.2132 28.0428
" />
<path d="M22.2132 28.0428
L22.1878 27.9412
" />
<path d="M22.1878 27.9412
L22.1878 27.8143
" />
<path d="M22.1878 27.8143
L22.2132 27.7127
" />
<path d="M22.2132 27.7127
L22.2386 27.6619
" />
<path d="M22.2386 27.6619
L22.2640 27.6365
" />
<path d="M22.2640 27.6365
L22.3148 27.6111
" />
</g></g>
<g style="fill:none; 
stroke:#585D84; stroke-width:0.0212; stroke-opacity:1; 
stroke-linecap:round; stroke-linejoin:round;">
<path d="M21.2862 27.9000
L21.2862 27.9000
" />
<path d="M21.2862 27.9000 A0.8000 0.8000 0.0 0 0 22.8862 27.9000" />
<path d="M22.8862 27.9000
L22.8862 27.9000
" />
<path d="M22.8862 27.9000 A0.8000 0.8000 0.0 0 0 21.2862 27.9000" />
</g>
<g style="fill:none; 
stroke:#585D84; stroke-width:0.0444; stroke-opacity:1; 
stroke-linecap:round; stroke-linejoin:round;">
<text x="22.5942" y="30.7067"
textLength="1.0425" font-size="0.7111" lengthAdjust="spacingAndGlyphs"
text-anchor="middle" opacity="0" stroke-opacity="0">11</text>
<g class="stroked-text"><desc>11</desc>
<path d="M22.4927 30.6844
L22.1879 30.6844
" />
<path d="M22.3403 30.6844
L22.3403 30.1511
" />
<path d="M22.3403 30.1511
L22.2895 30.2273
" />
<path d="M22.2895 30.2273
L22.2387 30.2781
" />
<path d="M22.2387 30.2781
L22.1879 30.3035
" />
<path d="M23.0006 30.6844
L22.6958 30.6844
" />
<path d="M22.8482 30.6844
L22.8482 30.1511
" />
<path d="M22.8482 30.1511
L22.7974 30.2273
" />
<path d="M22.7974 30.2273
L22.7466 30.2781
" />
<path d="M22.7466 30.2781
L22.6958 30.3035
" />
</g></g>
<g style="fill:none; 
stroke:#585D84; stroke-width:0.0212; stroke-opacity:1; 
stroke-linecap:round; stroke-linejoin:round;">
<path d="M21.7942 30.4400
L21.7942 30.4400
" />
<path d="M21.7942 30.4400 A0.8000 0.8000 0.0 0 0 23.3942 30.4400" />
<path d="M23.3942 30.4400
L23.3942 30.4400
" />
<path d="M23.3942 30.4400 A0.8000 0.8000 0.0 0 0 21.7942 30.4400" />
</g>
<g style="fill:none; 
stroke:#585D84; stroke-width:0.0444; stroke-opacity:1; 
stroke-linecap:round; stroke-linejoin:round;">
<text x="22.0862" y="33.2467"
textLength="1.0425" font-size="0.7111" lengthAdjust="spacingAndGlyphs"
text-anchor="middle" opacity="0" stroke-opacity="0">12</text>
<g class="stroked-text"><desc>12</desc>
<path d="M21.9847 33.2244
L21.6799 33.2244
" />
<path d="M21.8323 33.2244
L21.8323 32.6911
" />
<path d="M21.8323 32.6911
L21.7815 32.7673
" />
<path d="M21.7815 32.7673
L21.7307 32.8181
" />
<path d="M21.7307 32.8181
L21.6799 32.8435
" />
<path d="M22.1878 32.7419
L22.2132 32.7165
" />
<path d="M22.2132 32.7165
L22.2640 32.6911
" />
<path d="M22.2640 32.6911
L22.3910 32.6911
" />
<path d="M22.3910 32.6911
L22.4418 32.7165
" />
<path d="M22.4418 32.7165
L22.4672 32.7419
" />
<path d="M22.4672 32.7419
L22.4926 32.7927
" />
<path d="M22.4926 32.7927
L22.4926 32.8435
" />
<path d="M22.4926 32.8435
L22.4672 32.9197
" />
<path d="M22.4672 32.9197
L22.1624 33.2244
" />
<path d="M22.1624 33.2244
L22.4926 33.2244
" />
</g></g>
<g style="fill:none; 
stroke:#585D84; stroke-width:0.0212; stroke-opacity:1; 
stroke-linecap:round; stroke-linejoin:round;">
<path d="M21.2862 32.9800
L21.2862 32.9800
" />
<path d="M21.2862 32.9800 A0.8000 0.8000 0.0 0 0 22.8862 32.9800" />
<path d="M22.8862 32.9800
L22.8862 32.9800
" />
<path d="M22.8862 32.9800 A0.8000 0.8000 0.0 0 0 21.2862 32.9800" />
</g>
<g style="fill:none; 
stroke:#585D84; stroke-width:0.0444; stroke-opacity:1; 
stroke-linecap:round; stroke-linejoin:round;">
<text x="7.3542" y="33.2467"
textLength="1.0425" font-size="0.7111" lengthAdjust="spacingAndGlyphs"
text-anchor="middle" opacity="0" stroke-opacity="0">13</text>
<g class="stroked-text"><desc>13</desc>
<path d="M7.2527 33.2244
L6.9479 33.2244
" />
<path d="M7.1003 33.2244
L7.1003 32.6911
" />
<path d="M7.1003 32.6911
L7.0495 32.7673
" />
<path d="M7.0495 32.7673
L6.9987 32.8181
" />
<path d="M6.9987 32.8181
L6.9479 32.8435
" />
<path d="M7.4304 32.6911
L7.7606 32.6911
" />
<path d="M7.7606 32.6911
L7.5828 32.8943
" />
<path d="M7.5828 32.8943
L7.6590 32.8943
" />
<path d="M7.6590 32.8943
L7.7098 32.9197
" />
<path d="M7.7098 32.9197
L7.7352 32.9451
" />
<path d="M7.7352 32.9451
L7.7606 32.9958
" />
<path d="M7.7606 32.9958
L7.7606 33.1228
" />
<path d="M7.7606 33.1228
L7.7352 33.1736
" />
<path d="M7.7352 33.1736
L7.7098 33.1990
" />
<path d="M7.7098 33.1990
L7.6590 33.2244
" />
<path d="M7.6590 33.2244
L7.5066 33.2244
" />
<path d="M7.5066 33.2244
L7.4558 33.1990
" />
<path d="M7.4558 33.1990
L7.4304 33.1736
" />
</g></g>
<g style="fill:none; 
stroke:#585D84; stroke-width:0.0212; stroke-opacity:1; 
stroke-linecap:round; stroke-linejoin:round;">
<path d="M6.5542 32.9800
L6.5542 32.9800
" />
<path d="M6.5542 32.9800 A0.8000 0.8000 0.0 0 0 8.1542 32.9800" />
<path d="M8.1542 32.9800
L8.1542 32.9800
" />
<path d="M8.1542 32.9800 A0.8000 0.8000 0.0 0 0 6.5542 32.9800" />
</g>
<g style="fill:none; 
stroke:#585D84; stroke-width:0.0444; stroke-opacity:1; 
stroke-linecap:round; stroke-linejoin:round;">
<text x="6.8462" y="30.7067"
textLength="1.0425" font-size="0.7111" lengthAdjust="spacingAndGlyphs"
text-anchor="middle" opacity="0" stroke-opacity="0">14</text>
<g class="stroked-text"><desc>14</desc>
<path d="M6.7447 30.6844
L6.4399 30.6844
" />
<path d="M6.5923 30.6844
L6.5923 30.1511
" />
<path d="M6.5923 30.1511
L6.5415 30.2273
" />
<path d="M6.5415 30.2273
L6.4907 30.2781
" />
<path d="M6.4907 30.2781
L6.4399 30.3035
" />
<path d="M7.2018 30.3289
L7.2018 30.6844
" />
<path d="M7.0748 30.1257
L6.9478 30.5066
" />
<path d="M6.9478 30.5066
L7.2780 30.5066
" />
</g></g>
<g style="fill:none; 
stroke:#585D84; stroke-width:0.0212; stroke-opacity:1; 
stroke-linecap:round; stroke-linejoin:round;">
<path d="M6.0462 30.4400
L6.0462 30.4400
" />
<path d="M6.0462 30.4400 A0.8000 0.8000 0.0 0 0 7.6462 30.4400" />
<path d="M7.6462 30.4400
L7.6462 30.4400
" />
<path d="M7.6462 30.4400 A0.8000 0.8000 0.0 0 0 6.0462 30.4400" />
</g>
<g style="fill:none; 
stroke:#585D84; stroke-width:0.0444; stroke-opacity:1; 
stroke-linecap:round; stroke-linejoin:round;">
<text x="7.3542" y="28.1667"
textLength="1.0425" font-size="0.7111" lengthAdjust="spacingAndGlyphs"
text-anchor="middle" opacity="0" stroke-opacity="0">15</text>
<g class="stroked-text"><desc>15</desc>
<path d="M7.2527 28.1444
L6.9479 28.1444
" />
<path d="M7.1003 28.1444
L7.1003 27.6111
" />
<path d="M7.1003 27.6111
L7.0495 27.6873
" />
<path d="M7.0495 27.6873
L6.9987 27.7381
" />
<path d="M6.9987 27.7381
L6.9479 27.7635
" />
<path d="M7.7352 27.6111
L7.4812 27.6111
" />
<path d="M7.4812 27.6111
L7.4558 27.8651
" />
<path d="M7.4558 27.8651
L7.4812 27.8397
" />
<path d="M7.4812 27.8397
L7.5320 27.8143
" />
<path d="M7.5320 27.8143
L7.6590 27.8143
" />
<path d="M7.6590 27.8143
L7.7098 27.8397
" />
<path d="M7.7098 27.8397
L7.7352 27.8651
" />
<path d="M7.7352 27.8651
L7.7606 27.9158
" />
<path d="M7.7606 27.9158
L7.7606 28.0428
" />
<path d="M7.7606 28.0428
L7.7352 28.0936
" />
<path d="M7.7352 28.0936
L7.7098 28.1190
" />
<path d="M7.7098 28.1190
L7.6590 28.1444
" />
<path d="M7.6590 28.1444
L7.5320 28.1444
" />
<path d="M7.5320 28.1444
L7.4812 28.1190
" />
<path d="M7.4812 28.1190
L7.4558 28.0936
" />
</g></g>
<g style="fill:none; 
stroke:#585D84; stroke-width:0.0212; stroke-opacity:1; 
stroke-linecap:round; stroke-linejoin:round;">
<path d="M6.5542 27.9000
L6.5542 27.9000
" />
<path d="M6.5542 27.9000 A0.8000 0.8000 0.0 0 0 8.1542 27.9000" />
<path d="M8.1542 27.9000
L8.1542 27.9000
" />
<path d="M8.1542 27.9000 A0.8000 0.8000 0.0 0 0 6.5542 27.9000" />
</g>
<g style="fill:none; 
stroke:#585D84; stroke-width:0.0444; stroke-opacity:1; 
stroke-linecap:round; stroke-linejoin:round;">
<text x="6.8462" y="25.6267"
textLength="1.0425" font-size="0.7111" lengthAdjust="spacingAndGlyphs"
text-anchor="middle" opacity="0" stroke-opacity="0">16</text>
<g class="stroked-text"><desc>16</desc>
<path d="M6.7447 25.6044
L6.4399 25.6044
" />
<path d="M6.5923 25.6044
L6.5923 25.0711
" />
<path d="M6.5923 25.0711
L6.5415 25.1473
" />
<path d="M6.5415 25.1473
L6.4907 25.1981
" />
<path d="M6.4907 25.1981
L6.4399 25.2235
" />
<path d="M7.2018 25.0711
L7.1002 25.0711
" />
<path d="M7.1002 25.0711
L7.0494 25.0965
" />
<path d="M7.0494 25.0965
L7.0240 25.1219
" />
<path d="M7.0240 25.1219
L6.9732 25.1981
" />
<path d="M6.9732 25.1981
L6.9478 25.2997
" />
<path d="M6.9478 25.2997
L6.9478 25.5028
" />
<path d="M6.9478 25.5028
L6.9732 25.5536
" />
<path d="M6.9732 25.5536
L6.9986 25.5790
" />
<path d="M6.9986 25.5790
L7.0494 25.6044
" />
<path d="M7.0494 25.6044
L7.1510 25.6044
" />
<path d="M7.1510 25.6044
L7.2018 25.5790
" />
<path d="M7.2018 25.5790
L7.2272 25.5536
" />
<path d="M7.2272 25.5536
L7.2526 25.5028
" />
<path d="M7.2526 25.5028
L7.2526 25.3758
" />
<path d="M7.2526 25.3758
L7.2272 25.3251
" />
<path d="M7.2272 25.3251
L7.2018 25.2997
" />
<path d="M7.2018 25.2997
L7.1510 25.2743
" />
<path d="M7.1510 25.2743
L7.0494 25.2743
" />
<path d="M7.0494 25.2743
L6.9986 25.2997
" />
<path d="M6.9986 25.2997
L6.9732 25.3251
" />
<path d="M6.9732 25.3251
L6.9478 25.3758
" />
</g></g>
<g style="fill:none; 
stroke:#585D84; stroke-width:0.0212; stroke-opacity:1; 
stroke-linecap:round; stroke-linejoin:round;">
<path d="M6.0462 25.3600
L6.0462 25.3600
" />
<path d="M6.0462 25.3600 A0.8000 0.8000 0.0 0 0 7.6462 25.3600" />
<path d="M7.6462 25.3600
L7.6462 25.3600
" />
<path d="M7.6462 25.3600 A0.8000 0.8000 0.0 0 0 6.0462 25.3600" />
</g>
<g style="fill:none; 
stroke:#585D84; stroke-width:0.0444; stroke-opacity:1; 
stroke-linecap:round; stroke-linejoin:round;">
<text x="7.3542" y="23.0867"
textLength="1.0425" font-size="0.7111" lengthAdjust="spacingAndGlyphs"
text-anchor="middle" opacity="0" stroke-opacity="0">17</text>
<g class="stroked-text"><desc>17</desc>
<path d="M7.2527 23.0644
L6.9479 23.0644
" />
<path d="M7.1003 23.0644
L7.1003 22.5311
" />
<path d="M7.1003 22.5311
L7.0495 22.6073
" />
<path d="M7.0495 22.6073
L6.9987 22.6581
" />
<path d="M6.9987 22.6581
L6.9479 22.6835
" />
<path d="M7.4304 22.5311
L7.7860 22.5311
" />
<path d="M7.7860 22.5311
L7.5574 23.0644
" />
</g></g>
<g style="fill:none; 
stroke:#585D84; stroke-width:0.0212; stroke-opacity:1; 
stroke-linecap:round; stroke-linejoin:round;">
<path d="M6.5542 22.8200
L6.5542 22.8200
" />
<path d="M6.5542 22.8200 A0.8000 0.8000 0.0 0 0 8.1542 22.8200" />
<path d="M8.1542 22.8200
L8.1542 22.8200
" />
<path d="M8.1542 22.8200 A0.8000 0.8000 0.0 0 0 6.5542 22.8200" />
</g>
<g style="fill:none; 
stroke:#585D84; stroke-width:0.0444; stroke-opacity:1; 
stroke-linecap:round; stroke-linejoin:round;">
<text x="6.8462" y="20.5467"
textLength="1.0425" font-size="0.7111" lengthAdjust="spacingAndGlyphs"
text-anchor="middle" opacity="0" stroke-opacity="0">18</text>
<g class="stroked-text"><desc>18</desc>
<path d="M6.7447 20.5244
L6.4399 20.5244
" />
<path d="M6.5923 20.5244
L6.5923 19.9911
" />
<path d="M6.5923 19.9911
L6.5415 20.0673
" />
<path d="M6.5415 20.0673
L6.4907 20.1181
" />
<path d="M6.4907 20.1181
L6.4399 20.1435
" />
<path d="M7.0494 20.2197
L6.9986 20.1943
" />
<path d="M6.9986 20.1943
L6.9732 20.1689
" />
<path d="M6.9732 20.1689
L6.9478 20.1181
" />
<path d="M6.9478 20.1181
L6.9478 20.0927
" />
<path d="M6.9478 20.0927
L6.9732 20.0419
" />
<path d="M6.9732 20.0419
L6.9986 20.0165
" />
<path d="M6.9986 20.0165
L7.0494 19.9911
" />
<path d="M7.0494 19.9911
L7.1510 19.9911
" />
<path d="M7.1510 19.9911
L7.2018 20.0165
" />
<path d="M7.2018 20.0165
L7.2272 20.0419
" />
<path d="M7.2272 20.0419
L7.2526 20.0927
" />
<path d="M7.2526 20.0927
L7.2526 20.1181
" />
<path d="M7.2526 20.1181
L7.2272 20.1689
" />
<path d="M7.2272 20.1689
L7.2018 20.1943
" />
<path d="M7.2018 20.1943
L7.1510 20.2197
" />
<path d="M7.1510 20.2197
L7.0494 20.2197
" />
<path d="M7.0494 20.2197
L6.9986 20.2451
" />
<path d="M6.9986 20.2451
L6.9732 20.2705
" />
<path d="M6.9732 20.2705
L6.9478 20.3212
" />
<path d="M6.9478 20.3212
L6.9478 20.4228
" />
<path d="M6.9478 20.4228
L6.9732 20.4736
" />
<path d="M6.9732 20.4736
L6.9986 20.4990
" />
<path d="M6.9986 20.4990
L7.0494 20.5244
" />
<path d="M7.0494 20.5244
L7.1510 20.5244
" />
<path d="M7.1510 20.5244
L7.2018 20.4990
" />
<path d="M7.2018 20.4990
L7.2272 20.4736
" />
<path d="M7.2272 20.4736
L7.2526 20.4228
" />
<path d="M7.2526 20.4228
L7.2526 20.3212
" />
<path d="M7.2526 20.3212
L7.2272 20.2705
" />
<path d="M7.2272 20.2705
L7.2018 20.2451
" />
<path d="M7.2018 20.2451
L7.1510 20.2197
" />
</g></g>
<g style="fill:none; 
stroke:#585D84; stroke-width:0.0212; stroke-opacity:1; 
stroke-linecap:round; stroke-linejoin:round;">
<path d="M6.0462 20.2800
L6.0462 20.2800
" />
<path d="M6.0462 20.2800 A0.8000 0.8000 0.0 0 0 7.6462 20.2800" />
<path d="M7.6462 20.2800
L7.6462 20.2800
" />
<path d="M7.6462 20.2800 A0.8000 0.8000 0.0 0 0 6.0462 20.2800" />
</g>
<g style="fill:none; 
stroke:#585D84; stroke-width:0.0444; stroke-opacity:1; 
stroke-linecap:round; stroke-linejoin:round;">
<text x="7.3542" y="18.0067"
textLength="1.0425" font-size="0.7111" lengthAdjust="spacingAndGlyphs"
text-anchor="middle" opacity="0" stroke-opacity="0">19</text>
<g class="stroked-text"><desc>19</desc>
<path d="M7.2527 17.9844
L6.9479 17.9844
" />
<path d="M7.1003 17.9844
L7.1003 17.4511
" />
<path d="M7.1003 17.4511
L7.0495 17.5273
" />
<path d="M7.0495 17.5273
L6.9987 17.5781
" />
<path d="M6.9987 17.5781
L6.9479 17.6035
" />
<path d="M7.5066 17.9844
L7.6082 17.9844
" />
<path d="M7.6082 17.9844
L7.6590 17.9590
" />
<path d="M7.6590 17.9590
L7.6844 17.9336
" />
<path d="M7.6844 17.9336
L7.7352 17.8574
" />
<path d="M7.7352 17.8574
L7.7606 17.7558
" />
<path d="M7.7606 17.7558
L7.7606 17.5527
" />
<path d="M7.7606 17.5527
L7.7352 17.5019
" />
<path d="M7.7352 17.5019
L7.7098 17.4765
" />
<path d="M7.7098 17.4765
L7.6590 17.4511
" />
<path d="M7.6590 17.4511
L7.5574 17.4511
" />
<path d="M7.5574 17.4511
L7.5066 17.4765
" />
<path d="M7.5066 17.4765
L7.4812 17.5019
" />
<path d="M7.4812 17.5019
L7.4558 17.5527
" />
<path d="M7.4558 17.5527
L7.4558 17.6797
" />
<path d="M7.4558 17.6797
L7.4812 17.7304
" />
<path d="M7.4812 17.7304
L7.5066 17.7558
" />
<path d="M7.5066 17.7558
L7.5574 17.7812
" />
<path d="M7.5574 17.7812
L7.6590 17.7812
" />
<path d="M7.6590 17.7812
L7.7098 17.7558
" />
<path d="M7.7098 17.7558
L7.7352 17.7304
" />
<path d="M7.7352 17.7304
L7.7606 17.6797
" />
</g></g>
<g style="fill:none; 
stroke:#585D84; stroke-width:0.0212; stroke-opacity:1; 
stroke-linecap:round; stroke-linejoin:round;">
<path d="M6.5542 17.7400
L6.5542 17.7400
" />
<path d="M6.5542 17.7400 A0.8000 0.8000 0.0 0 0 8.1542 17.7400" />
<path d="M8.1542 17.7400
L8.1542 17.7400
" />
<path d="M8.1542 17.7400 A0.8000 0.8000 0.0 0 0 6.5542 17.7400" />
</g>
<g style="fill:none; 
stroke:#585D84; stroke-width:0.0444; stroke-opacity:1; 
stroke-linecap:round; stroke-linejoin:round;">
<text x="6.8462" y="15.4667"
textLength="1.0425" font-size="0.7111" lengthAdjust="spacingAndGlyphs"
text-anchor="middle" opacity="0" stroke-opacity="0">20</text>
<g class="stroked-text"><desc>20</desc>
<path d="M6.4399 14.9619
L6.4653 14.9365
" />
<path d="M6.4653 14.9365
L6.5161 14.9111
" />
<path d="M6.5161 14.9111
L6.6431 14.9111
" />
<path d="M6.6431 14.9111
L6.6939 14.9365
" />
<path d="M6.6939 14.9365
L6.7193 14.9619
" />
<path d="M6.7193 14.9619
L6.7447 15.0127
" />
<path d="M6.7447 15.0127
L6.7447 15.0635
" />
<path d="M6.7447 15.0635
L6.7193 15.1397
" />
<path d="M6.7193 15.1397
L6.4145 15.4444
" />
<path d="M6.4145 15.4444
L6.7447 15.4444
" />
<path d="M7.0748 14.9111
L7.1256 14.9111
" />
<path d="M7.1256 14.9111
L7.1764 14.9365
" />
<path d="M7.1764 14.9365
L7.2018 14.9619
" />
<path d="M7.2018 14.9619
L7.2272 15.0127
" />
<path d="M7.2272 15.0127
L7.2526 15.1143
" />
<path d="M7.2526 15.1143
L7.2526 15.2412
" />
<path d="M7.2526 15.2412
L7.2272 15.3428
" />
<path d="M7.2272 15.3428
L7.2018 15.3936
" />
<path d="M7.2018 15.3936
L7.1764 15.4190
" />
<path d="M7.1764 15.4190
L7.1256 15.4444
" />
<path d="M7.1256 15.4444
L7.0748 15.4444
" />
<path d="M7.0748 15.4444
L7.0240 15.4190
" />
<path d="M7.0240 15.4190
L6.9986 15.3936
" />
<path d="M6.9986 15.3936
L6.9732 15.3428
" />
<path d="M6.9732 15.3428
L6.9478 15.2412
" />
<path d="M6.9478 15.2412
L6.9478 15.1143
" />
<path d="M6.9478 15.1143
L6.9732 15.0127
" />
<path d="M6.9732 15.0127
L6.9986 14.9619
" />
<path d="M6.9986 14.9619
L7.0240 14.9365
" />
<path d="M7.0240 14.9365
L7.0748 14.9111
" />
</g></g>
<g style="fill:none; 
stroke:#585D84; stroke-width:0.0212; stroke-opacity:1; 
stroke-linecap:round; stroke-linejoin:round;">
<path d="M6.0462 15.2000
L6.0462 15.2000
" />
<path d="M6.0462 15.2000 A0.8000 0.8000 0.0 0 0 7.6462 15.2000" />
<path d="M7.6462 15.2000
L7.6462 15.2000
" />
<path d="M7.6462 15.2000 A0.8000 0.8000 0.0 0 0 6.0462 15.2000" />
</g>
<g style="fill:none; 
stroke:#585D84; stroke-width:0.0444; stroke-opacity:1; 
stroke-linecap:round; stroke-linejoin:round;">
<text x="7.3542" y="12.9267"
textLength="1.0425" font-size="0.7111" lengthAdjust="spacingAndGlyphs"
text-anchor="middle" opacity="0" stroke-opacity="0">21</text>
<g class="stroked-text"><desc>21</desc>
<path d="M6.9479 12.4219
L6.9733 12.3965
" />
<path d="M6.9733 12.3965
L7.0241 12.3711
" />
<path d="M7.0241 12.3711
L7.1511 12.3711
" />
<path d="M7.1511 12.3711
L7.2019 12.3965
" />
<path d="M7.2019 12.3965
L7.2273 12.4219
" />
<path d="M7.2273 12.4219
L7.2527 12.4727
" />
<path d="M7.2527 12.4727
L7.2527 12.5235
" />
<path d="M7.2527 12.5235
L7.2273 12.5997
" />
<path d="M7.2273 12.5997
L6.9225 12.9044
" />
<path d="M6.9225 12.9044
L7.2527 12.9044
" />
<path d="M7.7606 12.9044
L7.4558 12.9044
" />
<path d="M7.6082 12.9044
L7.6082 12.3711
" />
<path d="M7.6082 12.3711
L7.5574 12.4473
" />
<path d="M7.5574 12.4473
L7.5066 12.4981
" />
<path d="M7.5066 12.4981
L7.4558 12.5235
" />
</g></g>
<g style="fill:none; 
stroke:#585D84; stroke-width:0.0212; stroke-opacity:1; 
stroke-linecap:round; stroke-linejoin:round;">
<path d="M6.5542 12.6600
L6.5542 12.6600
" />
<path d="M6.5542 12.6600 A0.8000 0.8000 0.0 0 0 8.1542 12.6600" />
<path d="M8.1542 12.6600
L8.1542 12.6600
" />
<path d="M8.1542 12.6600 A0.8000 0.8000 0.0 0 0 6.5542 12.6600" />
</g>
<g style="fill:none; 
stroke:#585D84; stroke-width:0.0444; stroke-opacity:1; 
stroke-linecap:round; stroke-linejoin:round;">
<text x="6.8462" y="10.3867"
textLength="1.0425" font-size="0.7111" lengthAdjust="spacingAndGlyphs"
text-anchor="middle" opacity="0" stroke-opacity="0">22</text>
<g class="stroked-text"><desc>22</desc>
<path d="M6.4399 9.8819
L6.4653 9.8565
" />
<path d="M6.4653 9.8565
L6.5161 9.8311
" />
<path d="M6.5161 9.8311
L6.6431 9.8311
" />
<path d="M6.6431 9.8311
L6.6939 9.8565
" />
<path d="M6.6939 9.8565
L6.7193 9.8819
" />
<path d="M6.7193 9.8819
L6.7447 9.9327
" />
<path d="M6.7447 9.9327
L6.7447 9.9835
" />
<path d="M6.7447 9.9835
L6.7193 10.0597
" />
<path d="M6.7193 10.0597
L6.4145 10.3644
" />
<path d="M6.4145 10.3644
L6.7447 10.3644
" />
<path d="M6.9478 9.8819
L6.9732 9.8565
" />
<path d="M6.9732 9.8565
L7.0240 9.8311
" />
<path d="M7.0240 9.8311
L7.1510 9.8311
" />
<path d="M7.1510 9.8311
L7.2018 9.8565
" />
<path d="M7.2018 9.8565
L7.2272 9.8819
" />
<path d="M7.2272 9.8819
L7.2526 9.9327
" />
<path d="M7.2526 9.9327
L7.2526 9.9835
" />
<path d="M7.2526 9.9835
L7.2272 10.0597
" />
<path d="M7.2272 10.0597
L6.9224 10.3644
" />
<path d="M6.9224 10.3644
L7.2526 10.3644
" />
</g></g>
<g style="fill:none; 
stroke:#585D84; stroke-width:0.0212; stroke-opacity:1; 
stroke-linecap:round; stroke-linejoin:round;">
<path d="M6.0462 10.1200
L6.0462 10.1200
" />
<path d="M6.0462 10.1200 A0.8000 0.8000 0.0 0 0 7.6462 10.1200" />
<path d="M7.6462 10.1200
L7.6462 10.1200
" />
<path d="M7.6462 10.1200 A0.8000 0.8000 0.0 0 0 6.0462 10.1200" />
</g>
<g style="fill:none; 
stroke:#585D84; stroke-width:0.0444; stroke-opacity:1; 
stroke-linecap:round; stroke-linejoin:round;">
<text x="7.3542" y="7.8467"
textLength="1.0425" font-size="0.7111" lengthAdjust="spacingAndGlyphs"
text-anchor="middle" opacity="0" stroke-opacity="0">23</text>
<g class="stroked-text"><desc>23</desc>
<path d="M6.9479 7.3419
L6.9733 7.3165
" />
<path d="M6.9733 7.3165
L7.0241 7.2911
" />
<path d="M7.0241 7.2911
L7.1511 7.2911
" />
<path d="M7.1511 7.2911
L7.2019 7.3165
" />
<path d="M7.2019 7.3165
L7.2273 7.3419
" />
<path d="M7.2273 7.3419
L7.2527 7.3927
" />
<path d="M7.2527 7.3927
L7.2527 7.4435
" />
<path d="M7.2527 7.4435
L7.2273 7.5197
" />
<path d="M7.2273 7.5197
L6.9225 7.8244
" />
<path d="M6.9225 7.8244
L7.2527 7.8244
" />
<path d="M7.4304 7.2911
L7.7606 7.2911
" />
<path d="M7.7606 7.2911
L7.5828 7.4943
" />
<path d="M7.5828 7.4943
L7.6590 7.4943
" />
<path d="M7.6590 7.4943
L7.7098 7.5197
" />
<path d="M7.7098 7.5197
L7.7352 7.5451
" />
<path d="M7.7352 7.5451
L7.7606 7.5958
" />
<path d="M7.7606 7.5958
L7.7606 7.7228
" />
<path d="M7.7606 7.7228
L7.7352 7.7736
" />
<path d="M7.7352 7.7736
L7.7098 7.7990
" />
<path d="M7.7098 7.7990
L7.6590 7.8244
" />
<path d="M7.6590 7.8244
L7.5066 7.8244
" />
<path d="M7.5066 7.8244
L7.4558 7.7990
" />
<path d="M7.4558 7.7990
L7.4304 7.7736
" />
</g></g>
<g style="fill:none; 
stroke:#585D84; stroke-width:0.0212; stroke-opacity:1; 
stroke-linecap:round; stroke-linejoin:round;">
<path d="M6.5542 7.5800
L6.5542 7.5800
" />
<path d="M6.5542 7.5800 A0.8000 0.8000 0.0 0 0 8.1542 7.5800" />
<path d="M8.1542 7.5800
L8.1542 7.5800
" />
<path d="M8.1542 7.5800 A0.8000 0.8000 0.0 0 0 6.5542 7.5800" />
</g>
<g style="fill:none; 
stroke:#585D84; stroke-width:0.0444; stroke-opacity:1; 
stroke-linecap:round; stroke-linejoin:round;">
<text x="6.8462" y="5.3067"
textLength="1.0425" font-size="0.7111" lengthAdjust="spacingAndGlyphs"
text-anchor="middle" opacity="0" stroke-opacity="0">24</text>
<g class="stroked-text"><desc>24</desc>
<path d="M6.4399 4.8019
L6.4653 4.7765
" />
<path d="M6.4653 4.7765
L6.5161 4.7511
" />
<path d="M6.5161 4.7511
L6.6431 4.7511
" />
<path d="M6.6431 4.7511
L6.6939 4.7765
" />
<path d="M6.6939 4.7765
L6.7193 4.8019
" />
<path d="M6.7193 4.8019
L6.7447 4.8527
" />
<path d="M6.7447 4.8527
L6.7447 4.9035
" />
<path d="M6.7447 4.9035
L6.7193 4.9797
" />
<path d="M6.7193 4.9797
L6.4145 5.2844
" />
<path d="M6.4145 5.2844
L6.7447 5.2844
" />
<path d="M7.2018 4.9289
L7.2018 5.2844
" />
<path d="M7.0748 4.7257
L6.9478 5.1066
" />
<path d="M6.9478 5.1066
L7.2780 5.1066
" />
</g></g>
<g style="fill:none; 
stroke:#585D84; stroke-width:0.0212; stroke-opacity:1; 
stroke-linecap:round; stroke-linejoin:round;">
<path d="M6.0462 5.0400
L6.0462 5.0400
" />
<path d="M6.0462 5.0400 A0.8000 0.8000 0.0 0 0 7.6462 5.0400" />
<path d="M7.6462 5.0400
L7.6462 5.0400
" />
<path d="M7.6462 5.0400 A0.8000 0.8000 0.0 0 0 6.0462 5.0400" />
</g>
<g style="fill:none; 
stroke:#AFAFAF; stroke-width:0.1500; stroke-opacity:1; 
stroke-linecap:round; stroke-linejoin:round;">
<text x="14.7202" y="35.9400"
textLength="29.4405" font-size="1.3333" lengthAdjust="spacingAndGlyphs"
text-anchor="middle" opacity="0" stroke-opacity="0">MCU_ProMicro_Generic_ZigZag_Reverse</text>
<g class="stroked-text"><desc>MCU_ProMicro_Generic_ZigZag_Reverse</desc>
<path d="M0.3631 35.8948
L0.3631 34.8948
" />
<path d="M0.3631 34.8948
L0.6964 35.6091
" />
<path d="M0.6964 35.6091
L1.0298 34.8948
" />
<path d="M1.0298 34.8948
L1.0298 35.8948
" />
<path d="M2.0774 35.7996
L2.0298 35.8472
" />
<path d="M2.0298 35.8472
L1.8869 35.8948
" />
<path d="M1.8869 35.8948
L1.7917 35.8948
" />
<path d="M1.7917 35.8948
L1.6488 35.8472
" />
<path d="M1.6488 35.8472
L1.5536 35.7520
" />
<path d="M1.5536 35.7520
L1.5060 35.6567
" />
<path d="M1.5060 35.6567
L1.4583 35.4662
" />
<path d="M1.4583 35.4662
L1.4583 35.3234
" />
<path d="M1.4583 35.3234
L1.5060 35.1329
" />
<path d="M1.5060 35.1329
L1.5536 35.0377
" />
<path d="M1.5536 35.0377
L1.6488 34.9424
" />
<path d="M1.6488 34.9424
L1.7917 34.8948
" />
<path d="M1.7917 34.8948
L1.8869 34.8948
" />
<path d="M1.8869 34.8948
L2.0298 34.9424
" />
<path d="M2.0298 34.9424
L2.0774 34.9901
" />
<path d="M2.5060 34.8948
L2.5060 35.7043
" />
<path d="M2.5060 35.7043
L2.5536 35.7996
" />
<path d="M2.5536 35.7996
L2.6012 35.8472
" />
<path d="M2.6012 35.8472
L2.6964 35.8948
" />
<path d="M2.6964 35.8948
L2.8869 35.8948
" />
<path d="M2.8869 35.8948
L2.9821 35.8472
" />
<path d="M2.9821 35.8472
L3.0298 35.7996
" />
<path d="M3.0298 35.7996
L3.0774 35.7043
" />
<path d="M3.0774 35.7043
L3.0774 34.8948
" />
<path d="M3.3155 35.9901
L4.0774 35.9901
" />
<path d="M4.3155 35.8948
L4.3155 34.8948
" />
<path d="M4.3155 34.8948
L4.6964 34.8948
" />
<path d="M4.6964 34.8948
L4.7917 34.9424
" />
<path d="M4.7917 34.9424
L4.8393 34.9901
" />
<path d="M4.8393 34.9901
L4.8869 35.0853
" />
<path d="M4.8869 35.0853
L4.8869 35.2282
" />
<path d="M4.8869 35.2282
L4.8393 35.3234
" />
<path d="M4.8393 35.3234
L4.7917 35.3710
" />
<path d="M4.7917 35.3710
L4.6964 35.4186
" />
<path d="M4.6964 35.4186
L4.3155 35.4186
" />
<path d="M5.3155 35.8948
L5.3155 35.2282
" />
<path d="M5.3155 35.4186
L5.3631 35.3234
" />
<path d="M5.3631 35.3234
L5.4107 35.2758
" />
<path d="M5.4107 35.2758
L5.5060 35.2282
" />
<path d="M5.5060 35.2282
L5.6012 35.2282
" />
<path d="M6.0774 35.8948
L5.9821 35.8472
" />
<path d="M5.9821 35.8472
L5.9345 35.7996
" />
<path d="M5.9345 35.7996
L5.8869 35.7043
" />
<path d="M5.8869 35.7043
L5.8869 35.4186
" />
<path d="M5.8869 35.4186
L5.9345 35.3234
" />
<path d="M5.9345 35.3234
L5.9821 35.2758
" />
<path d="M5.9821 35.2758
L6.0774 35.2282
" />
<path d="M6.0774 35.2282
L6.2202 35.2282
" />
<path d="M6.2202 35.2282
L6.3155 35.2758
" />
<path d="M6.3155 35.2758
L6.3631 35.3234
" />
<path d="M6.3631 35.3234
L6.4107 35.4186
" />
<path d="M6.4107 35.4186
L6.4107 35.7043
" />
<path d="M6.4107 35.7043
L6.3631 35.7996
" />
<path d="M6.3631 35.7996
L6.3155 35.8472
" />
<path d="M6.3155 35.8472
L6.2202 35.8948
" />
<path d="M6.2202 35.8948
L6.0774 35.8948
" />
<path d="M6.8393 35.8948
L6.8393 34.8948
" />
<path d="M6.8393 34.8948
L7.1726 35.6091
" />
<path d="M7.1726 35.6091
L7.5060 34.8948
" />
<path d="M7.5060 34.8948
L7.5060 35.8948
" />
<path d="M7.9821 35.8948
L7.9821 35.2282
" />
<path d="M7.9821 34.8948
L7.9345 34.9424
" />
<path d="M7.9345 34.9424
L7.9821 34.9901
" />
<path d="M7.9821 34.9901
L8.0298 34.9424
" />
<path d="M8.0298 34.9424
L7.9821 34.8948
" />
<path d="M7.9821 34.8948
L7.9821 34.9901
" />
<path d="M8.8869 35.8472
L8.7917 35.8948
" />
<path d="M8.7917 35.8948
L8.6012 35.8948
" />
<path d="M8.6012 35.8948
L8.5060 35.8472
" />
<path d="M8.5060 35.8472
L8.4583 35.7996
" />
<path d="M8.4583 35.7996
L8.4107 35.7043
" />
<path d="M8.4107 35.7043
L8.4107 35.4186
" />
<path d="M8.4107 35.4186
L8.4583 35.3234
" />
<path d="M8.4583 35.3234
L8.5060 35.2758
" />
<path d="M8.5060 35.2758
L8.6012 35.2282
" />
<path d="M8.6012 35.2282
L8.7917 35.2282
" />
<path d="M8.7917 35.2282
L8.8869 35.2758
" />
<path d="M9.3155 35.8948
L9.3155 35.2282
" />
<path d="M9.3155 35.4186
L9.3631 35.3234
" />
<path d="M9.3631 35.3234
L9.4107 35.2758
" />
<path d="M9.4107 35.2758
L9.5060 35.2282
" />
<path d="M9.5060 35.2282
L9.6012 35.2282
" />
<path d="M10.0774 35.8948
L9.9821 35.8472
" />
<path d="M9.9821 35.8472
L9.9345 35.7996
" />
<path d="M9.9345 35.7996
L9.8869 35.7043
" />
<path d="M9.8869 35.7043
L9.8869 35.4186
" />
<path d="M9.8869 35.4186
L9.9345 35.3234
" />
<path d="M9.9345 35.3234
L9.9821 35.2758
" />
<path d="M9.9821 35.2758
L10.0774 35.2282
" />
<path d="M10.0774 35.2282
L10.2202 35.2282
" />
<path d="M10.2202 35.2282
L10.3155 35.2758
" />
<path d="M10.3155 35.2758
L10.3631 35.3234
" />
<path d="M10.3631 35.3234
L10.4107 35.4186
" />
<path d="M10.4107 35.4186
L10.4107 35.7043
" />
<path d="M10.4107 35.7043
L10.3631 35.7996
" />
<path d="M10.3631 35.7996
L10.3155 35.8472
" />
<path d="M10.3155 35.8472
L10.2202 35.8948
" />
<path d="M10.2202 35.8948
L10.0774 35.8948
" />
<path d="M10.6012 35.9901
L11.3631 35.9901
" />
<path d="M12.1250 34.9424
L12.0298 34.8948
" />
<path d="M12.0298 34.8948
L11.8869 34.8948
" />
<path d="M11.8869 34.8948
L11.7440 34.9424
" />
<path d="M11.7440 34.9424
L11.6488 35.0377
" />
<path d="M11.6488 35.0377
L11.6012 35.1329
" />
<path d="M11.6012 35.1329
L11.5536 35.3234
" />
<path d="M11.5536 35.3234
L11.5536 35.4662
" />
<path d="M11.5536 35.4662
L11.6012 35.6567
" />
<path d="M11.6012 35.6567
L11.6488 35.7520
" />
<path d="M11.6488 35.7520
L11.7440 35.8472
" />
<path d="M11.7440 35.8472
L11.8869 35.8948
" />
<path d="M11.8869 35.8948
L11.9821 35.8948
" />
<path d="M11.9821 35.8948
L12.1250 35.8472
" />
<path d="M12.1250 35.8472
L12.1726 35.7996
" />
<path d="M12.1726 35.7996
L12.1726 35.4662
" />
<path d="M12.1726 35.4662
L11.9821 35.4662
" />
<path d="M12.9821 35.8472
L12.8869 35.8948
" />
<path d="M12.8869 35.8948
L12.6964 35.8948
" />
<path d="M12.6964 35.8948
L12.6012 35.8472
" />
<path d="M12.6012 35.8472
L12.5536 35.7520
" />
<path d="M12.5536 35.7520
L12.5536 35.3710
" />
<path d="M12.5536 35.3710
L12.6012 35.2758
" />
<path d="M12.6012 35.2758
L12.6964 35.2282
" />
<path d="M12.6964 35.2282
L12.8869 35.2282
" />
<path d="M12.8869 35.2282
L12.9821 35.2758
" />
<path d="M12.9821 35.2758
L13.0298 35.3710
" />
<path d="M13.0298 35.3710
L13.0298 35.4662
" />
<path d="M13.0298 35.4662
L12.5536 35.5615
" />
<path d="M13.4583 35.2282
L13.4583 35.8948
" />
<path d="M13.4583 35.3234
L13.5060 35.2758
" />
<path d="M13.5060 35.2758
L13.6012 35.2282
" />
<path d="M13.6012 35.2282
L13.7440 35.2282
" />
<path d="M13.7440 35.2282
L13.8393 35.2758
" />
<path d="M13.8393 35.2758
L13.8869 35.3710
" />
<path d="M13.8869 35.3710
L13.8869 35.8948
" />
<path d="M14.7440 35.8472
L14.6488 35.8948
" />
<path d="M14.6488 35.8948
L14.4583 35.8948
" />
<path d="M14.4583 35.8948
L14.3631 35.8472
" />
<path d="M14.3631 35.8472
L14.3155 35.7520
" />
<path d="M14.3155 35.7520
L14.3155 35.3710
" />
<path d="M14.3155 35.3710
L14.3631 35.2758
" />
<path d="M14.3631 35.2758
L14.4583 35.2282
" />
<path d="M14.4583 35.2282
L14.6488 35.2282
" />
<path d="M14.6488 35.2282
L14.7440 35.2758
" />
<path d="M14.7440 35.2758
L14.7917 35.3710
" />
<path d="M14.7917 35.3710
L14.7917 35.4662
" />
<path d="M14.7917 35.4662
L14.3155 35.5615
" />
<path d="M15.2202 35.8948
L15.2202 35.2282
" />
<path d="M15.2202 35.4186
L15.2679 35.3234
" />
<path d="M15.2679 35.3234
L15.3155 35.2758
" />
<path d="M15.3155 35.2758
L15.4107 35.2282
" />
<path d="M15.4107 35.2282
L15.5060 35.2282
" />
<path d="M15.8393 35.8948
L15.8393 35.2282
" />
<path d="M15.8393 34.8948
L15.7917 34.9424
" />
<path d="M15.7917 34.9424
L15.8393 34.9901
" />
<path d="M15.8393 34.9901
L15.8869 34.9424
" />
<path d="M15.8869 34.9424
L15.8393 34.8948
" />
<path d="M15.8393 34.8948
L15.8393 34.9901
" />
<path d="M16.7440 35.8472
L16.6488 35.8948
" />
<path d="M16.6488 35.8948
L16.4583 35.8948
" />
<path d="M16.4583 35.8948
L16.3631 35.8472
" />
<path d="M16.3631 35.8472
L16.3155 35.7996
" />
<path d="M16.3155 35.7996
L16.2679 35.7043
" />
<path d="M16.2679 35.7043
L16.2679 35.4186
" />
<path d="M16.2679 35.4186
L16.3155 35.3234
" />
<path d="M16.3155 35.3234
L16.3631 35.2758
" />
<path d="M16.3631 35.2758
L16.4583 35.2282
" />
<path d="M16.4583 35.2282
L16.6488 35.2282
" />
<path d="M16.6488 35.2282
L16.7440 35.2758
" />
<path d="M16.9345 35.9901
L17.6964 35.9901
" />
<path d="M17.8393 34.8948
L18.5060 34.8948
" />
<path d="M18.5060 34.8948
L17.8393 35.8948
" />
<path d="M17.8393 35.8948
L18.5060 35.8948
" />
<path d="M18.8869 35.8948
L18.8869 35.2282
" />
<path d="M18.8869 34.8948
L18.8393 34.9424
" />
<path d="M18.8393 34.9424
L18.8869 34.9901
" />
<path d="M18.8869 34.9901
L18.9345 34.9424
" />
<path d="M18.9345 34.9424
L18.8869 34.8948
" />
<path d="M18.8869 34.8948
L18.8869 34.9901
" />
<path d="M19.7917 35.2282
L19.7917 36.0377
" />
<path d="M19.7917 36.0377
L19.7440 36.1329
" />
<path d="M19.7440 36.1329
L19.6964 36.1805
" />
<path d="M19.6964 36.1805
L19.6012 36.2282
" />
<path d="M19.6012 36.2282
L19.4583 36.2282
" />
<path d="M19.4583 36.2282
L19.3631 36.1805
" />
<path d="M19.7917 35.8472
L19.6964 35.8948
" />
<path d="M19.6964 35.8948
L19.5060 35.8948
" />
<path d="M19.5060 35.8948
L19.4107 35.8472
" />
<path d="M19.4107 35.8472
L19.3631 35.7996
" />
<path d="M19.3631 35.7996
L19.3155 35.7043
" />
<path d="M19.3155 35.7043
L19.3155 35.4186
" />
<path d="M19.3155 35.4186
L19.3631 35.3234
" />
<path d="M19.3631 35.3234
L19.4107 35.2758
" />
<path d="M19.4107 35.2758
L19.5060 35.2282
" />
<path d="M19.5060 35.2282
L19.6964 35.2282
" />
<path d="M19.6964 35.2282
L19.7917 35.2758
" />
<path d="M20.1726 34.8948
L20.8393 34.8948
" />
<path d="M20.8393 34.8948
L20.1726 35.8948
" />
<path d="M20.1726 35.8948
L20.8393 35.8948
" />
<path d="M21.6488 35.8948
L21.6488 35.3710
" />
<path d="M21.6488 35.3710
L21.6012 35.2758
" />
<path d="M21.6012 35.2758
L21.5060 35.2282
" />
<path d="M21.5060 35.2282
L21.3155 35.2282
" />
<path d="M21.3155 35.2282
L21.2202 35.2758
" />
<path d="M21.6488 35.8472
L21.5536 35.8948
" />
<path d="M21.5536 35.8948
L21.3155 35.8948
" />
<path d="M21.3155 35.8948
L21.2202 35.8472
" />
<path d="M21.2202 35.8472
L21.1726 35.7520
" />
<path d="M21.1726 35.7520
L21.1726 35.6567
" />
<path d="M21.1726 35.6567
L21.2202 35.5615
" />
<path d="M21.2202 35.5615
L21.3155 35.5139
" />
<path d="M21.3155 35.5139
L21.5536 35.5139
" />
<path d="M21.5536 35.5139
L21.6488 35.4662
" />
<path d="M22.5536 35.2282
L22.5536 36.0377
" />
<path d="M22.5536 36.0377
L22.5060 36.1329
" />
<path d="M22.5060 36.1329
L22.4583 36.1805
" />
<path d="M22.4583 36.1805
L22.3631 36.2282
" />
<path d="M22.3631 36.2282
L22.2202 36.2282
" />
<path d="M22.2202 36.2282
L22.1250 36.1805
" />
<path d="M22.5536 35.8472
L22.4583 35.8948
" />
<path d="M22.4583 35.8948
L22.2679 35.8948
" />
<path d="M22.2679 35.8948
L22.1726 35.8472
" />
<path d="M22.1726 35.8472
L22.1250 35.7996
" />
<path d="M22.1250 35.7996
L22.0774 35.7043
" />
<path d="M22.0774 35.7043
L22.0774 35.4186
" />
<path d="M22.0774 35.4186
L22.1250 35.3234
" />
<path d="M22.1250 35.3234
L22.1726 35.2758
" />
<path d="M22.1726 35.2758
L22.2679 35.2282
" />
<path d="M22.2679 35.2282
L22.4583 35.2282
" />
<path d="M22.4583 35.2282
L22.5536 35.2758
" />
<path d="M22.7917 35.9901
L23.5536 35.9901
" />
<path d="M24.3631 35.8948
L24.0298 35.4186
" />
<path d="M23.7917 35.8948
L23.7917 34.8948
" />
<path d="M23.7917 34.8948
L24.1726 34.8948
" />
<path d="M24.1726 34.8948
L24.2679 34.9424
" />
<path d="M24.2679 34.9424
L24.3155 34.9901
" />
<path d="M24.3155 34.9901
L24.3631 35.0853
" />
<path d="M24.3631 35.0853
L24.3631 35.2282
" />
<path d="M24.3631 35.2282
L24.3155 35.3234
" />
<path d="M24.3155 35.3234
L24.2679 35.3710
" />
<path d="M24.2679 35.3710
L24.1726 35.4186
" />
<path d="M24.1726 35.4186
L23.7917 35.4186
" />
<path d="M25.1726 35.8472
L25.0774 35.8948
" />
<path d="M25.0774 35.8948
L24.8869 35.8948
" />
<path d="M24.8869 35.8948
L24.7917 35.8472
" />
<path d="M24.7917 35.8472
L24.7440 35.7520
" />
<path d="M24.7440 35.7520
L24.7440 35.3710
" />
<path d="M24.7440 35.3710
L24.7917 35.2758
" />
<path d="M24.7917 35.2758
L24.8869 35.2282
" />
<path d="M24.8869 35.2282
L25.0774 35.2282
" />
<path d="M25.0774 35.2282
L25.1726 35.2758
" />
<path d="M25.1726 35.2758
L25.2202 35.3710
" />
<path d="M25.2202 35.3710
L25.2202 35.4662
" />
<path d="M25.2202 35.4662
L24.7440 35.5615
" />
<path d="M25.5536 35.2282
L25.7917 35.8948
" />
<path d="M25.7917 35.8948
L26.0298 35.2282
" />
<path d="M26.7917 35.8472
L26.6964 35.8948
" />
<path d="M26.6964 35.8948
L26.5060 35.8948
" />
<path d="M26.5060 35.8948
L26.4107 35.8472
" />
<path d="M26.4107 35.8472
L26.3631 35.7520
" />
<path d="M26.3631 35.7520
L26.3631 35.3710
" />
<path d="M26.3631 35.3710
L26.4107 35.2758
" />
<path d="M26.4107 35.2758
L26.5060 35.2282
" />
<path d="M26.5060 35.2282
L26.6964 35.2282
" />
<path d="M26.6964 35.2282
L26.7917 35.2758
" />
<path d="M26.7917 35.2758
L26.8393 35.3710
" />
<path d="M26.8393 35.3710
L26.8393 35.4662
" />
<path d="M26.8393 35.4662
L26.3631 35.5615
" />
<path d="M27.2679 35.8948
L27.2679 35.2282
" />
<path d="M27.2679 35.4186
L27.3155 35.3234
" />
<path d="M27.3155 35.3234
L27.3631 35.2758
" />
<path d="M27.3631 35.2758
L27.4583 35.2282
" />
<path d="M27.4583 35.2282
L27.5536 35.2282
" />
<path d="M27.8393 35.8472
L27.9345 35.8948
" />
<path d="M27.9345 35.8948
L28.1250 35.8948
" />
<path d="M28.1250 35.8948
L28.2202 35.8472
" />
<path d="M28.2202 35.8472
L28.2679 35.7520
" />
<path d="M28.2679 35.7520
L28.2679 35.7043
" />
<path d="M28.2679 35.7043
L28.2202 35.6091
" />
<path d="M28.2202 35.6091
L28.1250 35.5615
" />
<path d="M28.1250 35.5615
L27.9821 35.5615
" />
<path d="M27.9821 35.5615
L27.8869 35.5139
" />
<path d="M27.8869 35.5139
L27.8393 35.4186
" />
<path d="M27.8393 35.4186
L27.8393 35.3710
" />
<path d="M27.8393 35.3710
L27.8869 35.2758
" />
<path d="M27.8869 35.2758
L27.9821 35.2282
" />
<path d="M27.9821 35.2282
L28.1250 35.2282
" />
<path d="M28.1250 35.2282
L28.2202 35.2758
" />
<path d="M29.0774 35.8472
L28.9821 35.8948
" />
<path d="M28.9821 35.8948
L28.7917 35.8948
" />
<path d="M28.7917 35.8948
L28.6964 35.8472
" />
<path d="M28.6964 35.8472
L28.6488 35.7520
" />
<path d="M28.6488 35.7520
L28.6488 35.3710
" />
<path d="M28.6488 35.3710
L28.6964 35.2758
" />
<path d="M28.6964 35.2758
L28.7917 35.2282
" />
<path d="M28.7917 35.2282
L28.9821 35.2282
" />
<path d="M28.9821 35.2282
L29.0774 35.2758
" />
<path d="M29.0774 35.2758
L29.1250 35.3710
" />
<path d="M29.1250 35.3710
L29.1250 35.4662
" />
<path d="M29.1250 35.4662
L28.6488 35.5615
" />
</g><text x="14.7202" y="18.2400"
textLength="4.5357" font-size="1.3333" lengthAdjust="spacingAndGlyphs"
text-anchor="middle" opacity="0" stroke-opacity="0">REF**</text>
<g class="stroked-text"><desc>REF**</desc>
<path d="M13.3869 18.1948
L13.0536 17.7186
" />
<path d="M12.8155 18.1948
L12.8155 17.1948
" />
<path d="M12.8155 17.1948
L13.1964 17.1948
" />
<path d="M13.1964 17.1948
L13.2917 17.2424
" />
<path d="M13.2917 17.2424
L13.3393 17.2901
" />
<path d="M13.3393 17.2901
L13.3869 17.3853
" />
<path d="M13.3869 17.3853
L13.3869 17.5282
" />
<path d="M13.3869 17.5282
L13.3393 17.6234
" />
<path d="M13.3393 17.6234
L13.2917 17.6710
" />
<path d="M13.2917 17.6710
L13.1964 17.7186
" />
<path d="M13.1964 17.7186
L12.8155 17.7186
" />
<path d="M13.8155 17.6710
L14.1488 17.6710
" />
<path d="M14.2917 18.1948
L13.8155 18.1948
" />
<path d="M13.8155 18.1948
L13.8155 17.1948
" />
<path d="M13.8155 17.1948
L14.2917 17.1948
" />
<path d="M15.0536 17.6710
L14.7202 17.6710
" />
<path d="M14.7202 18.1948
L14.7202 17.1948
" />
<path d="M14.7202 17.1948
L15.1964 17.1948
" />
<path d="M15.7202 17.1948
L15.7202 17.4329
" />
<path d="M15.4821 17.3377
L15.7202 17.4329
" />
<path d="M15.7202 17.4329
L15.9583 17.3377
" />
<path d="M15.5774 17.6234
L15.7202 17.4329
" />
<path d="M15.7202 17.4329
L15.8631 17.6234
" />
<path d="M16.4821 17.1948
L16.4821 17.4329
" />
<path d="M16.2440 17.3377
L16.4821 17.4329
" />
<path d="M16.4821 17.4329
L16.7202 17.3377
" />
<path d="M16.3393 17.6234
L16.4821 17.4329
" />
<path d="M16.4821 17.4329
L16.6250 17.6234
" />
</g><path style="fill:none; 
stroke:#AFAFAF; stroke-width:0.1000; stroke-opacity:1; 
stroke-linecap:round; stroke-linejoin:round;fill:none"
d="M 5.8302,1.2300
23.6102,1.2300
23.6102,34.2500
5.8302,34.2500
Z" /> 
<path style="fill:none; 
stroke:#AFAFAF; stroke-width:0.1000; stroke-opacity:1; 
stroke-linecap:round; stroke-linejoin:round;fill:none"
d="M 10.2202,0.0500
19.2202,0.0500
19.2202,1.2300
10.2202,1.2300
Z" /> 
</g>
<g style="fill:none; 
stroke:#AFAFAF; stroke-width:0.0444; stroke-opacity:1; 
stroke-linecap:round; stroke-linejoin:round;">
<text x="22.5942" y="5.3067"
textLength="0.5346" font-size="0.7111" lengthAdjust="spacingAndGlyphs"
text-anchor="middle" opacity="0" stroke-opacity="0">1</text>
<g class="stroked-text"><desc>1</desc>
<path d="M22.7466 5.2844
L22.4419 5.2844
" />
<path d="M22.5942 5.2844
L22.5942 4.7511
" />
<path d="M22.5942 4.7511
L22.5434 4.8273
" />
<path d="M22.5434 4.8273
L22.4927 4.8781
" />
<path d="M22.4927 4.8781
L22.4419 4.9035
" />
</g><path style="fill:none; 
stroke:#AFAFAF; stroke-width:0.0212; stroke-opacity:1; 
stroke-linecap:round; stroke-linejoin:round;fill:none"
d="M 21.7942,4.4800
21.8125,4.3882
21.8645,4.3103
21.9424,4.2583
22.0342,4.2400
23.1542,4.2400
23.2461,4.2583
23.3239,4.3103
23.3760,4.3882
23.3942,4.4800
23.3942,5.6000
23.3760,5.6918
23.3239,5.7697
23.2461,5.8217
23.1542,5.8400
22.0342,5.8400
21.9424,5.8217
21.8645,5.7697
21.8125,5.6918
21.7942,5.6000
Z" /> 
</g>
<g style="fill:none; 
stroke:#AFAFAF; stroke-width:0.0444; stroke-opacity:1; 
stroke-linecap:round; stroke-linejoin:round;">
<text x="22.0862" y="7.8467"
textLength="0.5346" font-size="0.7111" lengthAdjust="spacingAndGlyphs"
text-anchor="middle" opacity="0" stroke-opacity="0">2</text>
<g class="stroked-text"><desc>2</desc>
<path d="M21.9339 7.3419
L21.9593 7.3165
" />
<path d="M21.9593 7.3165
L22.0100 7.2911
" />
<path d="M22.0100 7.2911
L22.1370 7.2911
" />
<path d="M22.1370 7.2911
L22.1878 7.3165
" />
<path d="M22.1878 7.3165
L22.2132 7.3419
" />
<path d="M22.2132 7.3419
L22.2386 7.3927
" />
<path d="M22.2386 7.3927
L22.2386 7.4435
" />
<path d="M22.2386 7.4435
L22.2132 7.5197
" />
<path d="M22.2132 7.5197
L21.9085 7.8244
" />
<path d="M21.9085 7.8244
L22.2386 7.8244
" />
</g></g>
<g style="fill:none; 
stroke:#AFAFAF; stroke-width:0.0212; stroke-opacity:1; 
stroke-linecap:round; stroke-linejoin:round;">
<path d="M21.2862 7.5800
L21.2862 7.5800
" />
<path d="M21.2862 7.5800 A0.8000 0.8000 0.0 0 0 22.8862 7.5800" />
<path d="M22.8862 7.5800
L22.8862 7.5800
" />
<path d="M22.8862 7.5800 A0.8000 0.8000 0.0 0 0 21.2862 7.5800" />
</g>
<g style="fill:none; 
stroke:#AFAFAF; stroke-width:0.0444; stroke-opacity:1; 
stroke-linecap:round; stroke-linejoin:round;">
<text x="22.5942" y="10.3867"
textLength="0.5346" font-size="0.7111" lengthAdjust="spacingAndGlyphs"
text-anchor="middle" opacity="0" stroke-opacity="0">3</text>
<g class="stroked-text"><desc>3</desc>
<path d="M22.4165 9.8311
L22.7466 9.8311
" />
<path d="M22.7466 9.8311
L22.5688 10.0343
" />
<path d="M22.5688 10.0343
L22.6450 10.0343
" />
<path d="M22.6450 10.0343
L22.6958 10.0597
" />
<path d="M22.6958 10.0597
L22.7212 10.0851
" />
<path d="M22.7212 10.0851
L22.7466 10.1358
" />
<path d="M22.7466 10.1358
L22.7466 10.2628
" />
<path d="M22.7466 10.2628
L22.7212 10.3136
" />
<path d="M22.7212 10.3136
L22.6958 10.3390
" />
<path d="M22.6958 10.3390
L22.6450 10.3644
" />
<path d="M22.6450 10.3644
L22.4927 10.3644
" />
<path d="M22.4927 10.3644
L22.4419 10.3390
" />
<path d="M22.4419 10.3390
L22.4165 10.3136
" />
</g></g>
<g style="fill:none; 
stroke:#AFAFAF; stroke-width:0.0212; stroke-opacity:1; 
stroke-linecap:round; stroke-linejoin:round;">
<path d="M21.7942 10.1200
L21.7942 10.1200
" />
<path d="M21.7942 10.1200 A0.8000 0.8000 0.0 0 0 23.3942 10.1200" />
<path d="M23.3942 10.1200
L23.3942 10.1200
" />
<path d="M23.3942 10.1200 A0.8000 0.8000 0.0 0 0 21.7942 10.1200" />
</g>
<g style="fill:none; 
stroke:#AFAFAF; stroke-width:0.0444; stroke-opacity:1; 
stroke-linecap:round; stroke-linejoin:round;">
<text x="22.0862" y="12.9267"
textLength="0.5346" font-size="0.7111" lengthAdjust="spacingAndGlyphs"
text-anchor="middle" opacity="0" stroke-opacity="0">4</text>
<g class="stroked-text"><desc>4</desc>
<path d="M22.1878 12.5489
L22.1878 12.9044
" />
<path d="M22.0608 12.3457
L21.9339 12.7266
" />
<path d="M21.9339 12.7266
L22.2640 12.7266
" />
</g></g>
<g style="fill:none; 
stroke:#AFAFAF; stroke-width:0.0212; stroke-opacity:1; 
stroke-linecap:round; stroke-linejoin:round;">
<path d="M21.2862 12.6600
L21.2862 12.6600
" />
<path d="M21.2862 12.6600 A0.8000 0.8000 0.0 0 0 22.8862 12.6600" />
<path d="M22.8862 12.6600
L22.8862 12.6600
" />
<path d="M22.8862 12.6600 A0.8000 0.8000 0.0 0 0 21.2862 12.6600" />
</g>
<g style="fill:none; 
stroke:#AFAFAF; stroke-width:0.0444; stroke-opacity:1; 
stroke-linecap:round; stroke-linejoin:round;">
<text x="22.5942" y="15.4667"
textLength="0.5346" font-size="0.7111" lengthAdjust="spacingAndGlyphs"
text-anchor="middle" opacity="0" stroke-opacity="0">5</text>
<g class="stroked-text"><desc>5</desc>
<path d="M22.7212 14.9111
L22.4673 14.9111
" />
<path d="M22.4673 14.9111
L22.4419 15.1651
" />
<path d="M22.4419 15.1651
L22.4673 15.1397
" />
<path d="M22.4673 15.1397
L22.5180 15.1143
" />
<path d="M22.5180 15.1143
L22.6450 15.1143
" />
<path d="M22.6450 15.1143
L22.6958 15.1397
" />
<path d="M22.6958 15.1397
L22.7212 15.1651
" />
<path d="M22.7212 15.1651
L22.7466 15.2158
" />
<path d="M22.7466 15.2158
L22.7466 15.3428
" />
<path d="M22.7466 15.3428
L22.7212 15.3936
" />
<path d="M22.7212 15.3936
L22.6958 15.4190
" />
<path d="M22.6958 15.4190
L22.6450 15.4444
" />
<path d="M22.6450 15.4444
L22.5180 15.4444
" />
<path d="M22.5180 15.4444
L22.4673 15.4190
" />
<path d="M22.4673 15.4190
L22.4419 15.3936
" />
</g></g>
<g style="fill:none; 
stroke:#AFAFAF; stroke-width:0.0212; stroke-opacity:1; 
stroke-linecap:round; stroke-linejoin:round;">
<path d="M21.7942 15.2000
L21.7942 15.2000
" />
<path d="M21.7942 15.2000 A0.8000 0.8000 0.0 0 0 23.3942 15.2000" />
<path d="M23.3942 15.2000
L23.3942 15.2000
" />
<path d="M23.3942 15.2000 A0.8000 0.8000 0.0 0 0 21.7942 15.2000" />
</g>
<g style="fill:none; 
stroke:#AFAFAF; stroke-width:0.0444; stroke-opacity:1; 
stroke-linecap:round; stroke-linejoin:round;">
<text x="22.0862" y="18.0067"
textLength="0.5346" font-size="0.7111" lengthAdjust="spacingAndGlyphs"
text-anchor="middle" opacity="0" stroke-opacity="0">6</text>
<g class="stroked-text"><desc>6</desc>
<path d="M22.1878 17.4511
L22.0862 17.4511
" />
<path d="M22.0862 17.4511
L22.0354 17.4765
" />
<path d="M22.0354 17.4765
L22.0100 17.5019
" />
<path d="M22.0100 17.5019
L21.9593 17.5781
" />
<path d="M21.9593 17.5781
L21.9339 17.6797
" />
<path d="M21.9339 17.6797
L21.9339 17.8828
" />
<path d="M21.9339 17.8828
L21.9593 17.9336
" />
<path d="M21.9593 17.9336
L21.9847 17.9590
" />
<path d="M21.9847 17.9590
L22.0354 17.9844
" />
<path d="M22.0354 17.9844
L22.1370 17.9844
" />
<path d="M22.1370 17.9844
L22.1878 17.9590
" />
<path d="M22.1878 17.9590
L22.2132 17.9336
" />
<path d="M22.2132 17.9336
L22.2386 17.8828
" />
<path d="M22.2386 17.8828
L22.2386 17.7558
" />
<path d="M22.2386 17.7558
L22.2132 17.7051
" />
<path d="M22.2132 17.7051
L22.1878 17.6797
" />
<path d="M22.1878 17.6797
L22.1370 17.6543
" />
<path d="M22.1370 17.6543
L22.0354 17.6543
" />
<path d="M22.0354 17.6543
L21.9847 17.6797
" />
<path d="M21.9847 17.6797
L21.9593 17.7051
" />
<path d="M21.9593 17.7051
L21.9339 17.7558
" />
</g></g>
<g style="fill:none; 
stroke:#AFAFAF; stroke-width:0.0212; stroke-opacity:1; 
stroke-linecap:round; stroke-linejoin:round;">
<path d="M21.2862 17.7400
L21.2862 17.7400
" />
<path d="M21.2862 17.7400 A0.8000 0.8000 0.0 0 0 22.8862 17.7400" />
<path d="M22.8862 17.7400
L22.8862 17.7400
" />
<path d="M22.8862 17.7400 A0.8000 0.8000 0.0 0 0 21.2862 17.7400" />
</g>
<g style="fill:none; 
stroke:#AFAFAF; stroke-width:0.0444; stroke-opacity:1; 
stroke-linecap:round; stroke-linejoin:round;">
<text x="22.5942" y="20.5467"
textLength="0.5346" font-size="0.7111" lengthAdjust="spacingAndGlyphs"
text-anchor="middle" opacity="0" stroke-opacity="0">7</text>
<g class="stroked-text"><desc>7</desc>
<path d="M22.4165 19.9911
L22.7720 19.9911
" />
<path d="M22.7720 19.9911
L22.5434 20.5244
" />
</g></g>
<g style="fill:none; 
stroke:#AFAFAF; stroke-width:0.0212; stroke-opacity:1; 
stroke-linecap:round; stroke-linejoin:round;">
<path d="M21.7942 20.2800
L21.7942 20.2800
" />
<path d="M21.7942 20.2800 A0.8000 0.8000 0.0 0 0 23.3942 20.2800" />
<path d="M23.3942 20.2800
L23.3942 20.2800
" />
<path d="M23.3942 20.2800 A0.8000 0.8000 0.0 0 0 21.7942 20.2800" />
</g>
<g style="fill:none; 
stroke:#AFAFAF; stroke-width:0.0444; stroke-opacity:1; 
stroke-linecap:round; stroke-linejoin:round;">
<text x="22.0862" y="23.0867"
textLength="0.5346" font-size="0.7111" lengthAdjust="spacingAndGlyphs"
text-anchor="middle" opacity="0" stroke-opacity="0">8</text>
<g class="stroked-text"><desc>8</desc>
<path d="M22.0354 22.7597
L21.9847 22.7343
" />
<path d="M21.9847 22.7343
L21.9593 22.7089
" />
<path d="M21.9593 22.7089
L21.9339 22.6581
" />
<path d="M21.9339 22.6581
L21.9339 22.6327
" />
<path d="M21.9339 22.6327
L21.9593 22.5819
" />
<path d="M21.9593 22.5819
L21.9847 22.5565
" />
<path d="M21.9847 22.5565
L22.0354 22.5311
" />
<path d="M22.0354 22.5311
L22.1370 22.5311
" />
<path d="M22.1370 22.5311
L22.1878 22.5565
" />
<path d="M22.1878 22.5565
L22.2132 22.5819
" />
<path d="M22.2132 22.5819
L22.2386 22.6327
" />
<path d="M22.2386 22.6327
L22.2386 22.6581
" />
<path d="M22.2386 22.6581
L22.2132 22.7089
" />
<path d="M22.2132 22.7089
L22.1878 22.7343
" />
<path d="M22.1878 22.7343
L22.1370 22.7597
" />
<path d="M22.1370 22.7597
L22.0354 22.7597
" />
<path d="M22.0354 22.7597
L21.9847 22.7851
" />
<path d="M21.9847 22.7851
L21.9593 22.8104
" />
<path d="M21.9593 22.8104
L21.9339 22.8612
" />
<path d="M21.9339 22.8612
L21.9339 22.9628
" />
<path d="M21.9339 22.9628
L21.9593 23.0136
" />
<path d="M21.9593 23.0136
L21.9847 23.0390
" />
<path d="M21.9847 23.0390
L22.0354 23.0644
" />
<path d="M22.0354 23.0644
L22.1370 23.0644
" />
<path d="M22.1370 23.0644
L22.1878 23.0390
" />
<path d="M22.1878 23.0390
L22.2132 23.0136
" />
<path d="M22.2132 23.0136
L22.2386 22.9628
" />
<path d="M22.2386 22.9628
L22.2386 22.8612
" />
<path d="M22.2386 22.8612
L22.2132 22.8104
" />
<path d="M22.2132 22.8104
L22.1878 22.7851
" />
<path d="M22.1878 22.7851
L22.1370 22.7597
" />
</g></g>
<g style="fill:none; 
stroke:#AFAFAF; stroke-width:0.0212; stroke-opacity:1; 
stroke-linecap:round; stroke-linejoin:round;">
<path d="M21.2862 22.8200
L21.2862 22.8200
" />
<path d="M21.2862 22.8200 A0.8000 0.8000 0.0 0 0 22.8862 22.8200" />
<path d="M22.8862 22.8200
L22.8862 22.8200
" />
<path d="M22.8862 22.8200 A0.8000 0.8000 0.0 0 0 21.2862 22.8200" />
</g>
<g style="fill:none; 
stroke:#AFAFAF; stroke-width:0.0444; stroke-opacity:1; 
stroke-linecap:round; stroke-linejoin:round;">
<text x="22.5942" y="25.6267"
textLength="0.5346" font-size="0.7111" lengthAdjust="spacingAndGlyphs"
text-anchor="middle" opacity="0" stroke-opacity="0">9</text>
<g class="stroked-text"><desc>9</desc>
<path d="M22.4927 25.6044
L22.5942 25.6044
" />
<path d="M22.5942 25.6044
L22.6450 25.5790
" />
<path d="M22.6450 25.5790
L22.6704 25.5536
" />
<path d="M22.6704 25.5536
L22.7212 25.4774
" />
<path d="M22.7212 25.4774
L22.7466 25.3758
" />
<path d="M22.7466 25.3758
L22.7466 25.1727
" />
<path d="M22.7466 25.1727
L22.7212 25.1219
" />
<path d="M22.7212 25.1219
L22.6958 25.0965
" />
<path d="M22.6958 25.0965
L22.6450 25.0711
" />
<path d="M22.6450 25.0711
L22.5434 25.0711
" />
<path d="M22.5434 25.0711
L22.4927 25.0965
" />
<path d="M22.4927 25.0965
L22.4673 25.1219
" />
<path d="M22.4673 25.1219
L22.4419 25.1727
" />
<path d="M22.4419 25.1727
L22.4419 25.2997
" />
<path d="M22.4419 25.2997
L22.4673 25.3504
" />
<path d="M22.4673 25.3504
L22.4927 25.3758
" />
<path d="M22.4927 25.3758
L22.5434 25.4012
" />
<path d="M22.5434 25.4012
L22.6450 25.4012
" />
<path d="M22.6450 25.4012
L22.6958 25.3758
" />
<path d="M22.6958 25.3758
L22.7212 25.3504
" />
<path d="M22.7212 25.3504
L22.7466 25.2997
" />
</g></g>
<g style="fill:none; 
stroke:#AFAFAF; stroke-width:0.0212; stroke-opacity:1; 
stroke-linecap:round; stroke-linejoin:round;">
<path d="M21.7942 25.3600
L21.7942 25.3600
" />
<path d="M21.7942 25.3600 A0.8000 0.8000 0.0 0 0 23.3942 25.3600" />
<path d="M23.3942 25.3600
L23.3942 25.3600
" />
<path d="M23.3942 25.3600 A0.8000 0.8000 0.0 0 0 21.7942 25.3600" />
</g>
<g style="fill:none; 
stroke:#AFAFAF; stroke-width:0.0444; stroke-opacity:1; 
stroke-linecap:round; stroke-linejoin:round;">
<text x="22.0862" y="28.1667"
textLength="1.0425" font-size="0.7111" lengthAdjust="spacingAndGlyphs"
text-anchor="middle" opacity="0" stroke-opacity="0">10</text>
<g class="stroked-text"><desc>10</desc>
<path d="M21.9847 28.1444
L21.6799 28.1444
" />
<path d="M21.8323 28.1444
L21.8323 27.6111
" />
<path d="M21.8323 27.6111
L21.7815 27.6873
" />
<path d="M21.7815 27.6873
L21.7307 27.7381
" />
<path d="M21.7307 27.7381
L21.6799 27.7635
" />
<path d="M22.3148 27.6111
L22.3656 27.6111
" />
<path d="M22.3656 27.6111
L22.4164 27.6365
" />
<path d="M22.4164 27.6365
L22.4418 27.6619
" />
<path d="M22.4418 27.6619
L22.4672 27.7127
" />
<path d="M22.4672 27.7127
L22.4926 27.8143
" />
<path d="M22.4926 27.8143
L22.4926 27.9412
" />
<path d="M22.4926 27.9412
L22.4672 28.0428
" />
<path d="M22.4672 28.0428
L22.4418 28.0936
" />
<path d="M22.4418 28.0936
L22.4164 28.1190
" />
<path d="M22.4164 28.1190
L22.3656 28.1444
" />
<path d="M22.3656 28.1444
L22.3148 28.1444
" />
<path d="M22.3148 28.1444
L22.2640 28.1190
" />
<path d="M22.2640 28.1190
L22.2386 28.0936
" />
<path d="M22.2386 28.0936
L22.2132 28.0428
" />
<path d="M22.2132 28.0428
L22.1878 27.9412
" />
<path d="M22.1878 27.9412
L22.1878 27.8143
" />
<path d="M22.1878 27.8143
L22.2132 27.7127
" />
<path d="M22.2132 27.7127
L22.2386 27.6619
" />
<path d="M22.2386 27.6619
L22.2640 27.6365
" />
<path d="M22.2640 27.6365
L22.3148 27.6111
" />
</g></g>
<g style="fill:none; 
stroke:#AFAFAF; stroke-width:0.0212; stroke-opacity:1; 
stroke-linecap:round; stroke-linejoin:round;">
<path d="M21.2862 27.9000
L21.2862 27.9000
" />
<path d="M21.2862 27.9000 A0.8000 0.8000 0.0 0 0 22.8862 27.9000" />
<path d="M22.8862 27.9000
L22.8862 27.9000
" />
<path d="M22.8862 27.9000 A0.8000 0.8000 0.0 0 0 21.2862 27.9000" />
</g>
<g style="fill:none; 
stroke:#AFAFAF; stroke-width:0.0444; stroke-opacity:1; 
stroke-linecap:round; stroke-linejoin:round;">
<text x="22.5942" y="30.7067"
textLength="1.0425" font-size="0.7111" lengthAdjust="spacingAndGlyphs"
text-anchor="middle" opacity="0" stroke-opacity="0">11</text>
<g class="stroked-text"><desc>11</desc>
<path d="M22.4927 30.6844
L22.1879 30.6844
" />
<path d="M22.3403 30.6844
L22.3403 30.1511
" />
<path d="M22.3403 30.1511
L22.2895 30.2273
" />
<path d="M22.2895 30.2273
L22.2387 30.2781
" />
<path d="M22.2387 30.2781
L22.1879 30.3035
" />
<path d="M23.0006 30.6844
L22.6958 30.6844
" />
<path d="M22.8482 30.6844
L22.8482 30.1511
" />
<path d="M22.8482 30.1511
L22.7974 30.2273
" />
<path d="M22.7974 30.2273
L22.7466 30.2781
" />
<path d="M22.7466 30.2781
L22.6958 30.3035
" />
</g></g>
<g style="fill:none; 
stroke:#AFAFAF; stroke-width:0.0212; stroke-opacity:1; 
stroke-linecap:round; stroke-linejoin:round;">
<path d="M21.7942 30.4400
L21.7942 30.4400
" />
<path d="M21.7942 30.4400 A0.8000 0.8000 0.0 0 0 23.3942 30.4400" />
<path d="M23.3942 30.4400
L23.3942 30.4400
" />
<path d="M23.3942 30.4400 A0.8000 0.8000 0.0 0 0 21.7942 30.4400" />
</g>
<g style="fill:none; 
stroke:#AFAFAF; stroke-width:0.0444; stroke-opacity:1; 
stroke-linecap:round; stroke-linejoin:round;">
<text x="22.0862" y="33.2467"
textLength="1.0425" font-size="0.7111" lengthAdjust="spacingAndGlyphs"
text-anchor="middle" opacity="0" stroke-opacity="0">12</text>
<g class="stroked-text"><desc>12</desc>
<path d="M21.9847 33.2244
L21.6799 33.2244
" />
<path d="M21.8323 33.2244
L21.8323 32.6911
" />
<path d="M21.8323 32.6911
L21.7815 32.7673
" />
<path d="M21.7815 32.7673
L21.7307 32.8181
" />
<path d="M21.7307 32.8181
L21.6799 32.8435
" />
<path d="M22.1878 32.7419
L22.2132 32.7165
" />
<path d="M22.2132 32.7165
L22.2640 32.6911
" />
<path d="M22.2640 32.6911
L22.3910 32.6911
" />
<path d="M22.3910 32.6911
L22.4418 32.7165
" />
<path d="M22.4418 32.7165
L22.4672 32.7419
" />
<path d="M22.4672 32.7419
L22.4926 32.7927
" />
<path d="M22.4926 32.7927
L22.4926 32.8435
" />
<path d="M22.4926 32.8435
L22.4672 32.9197
" />
<path d="M22.4672 32.9197
L22.1624 33.2244
" />
<path d="M22.1624 33.2244
L22.4926 33.2244
" />
</g></g>
<g style="fill:none; 
stroke:#AFAFAF; stroke-width:0.0212; stroke-opacity:1; 
stroke-linecap:round; stroke-linejoin:round;">
<path d="M21.2862 32.9800
L21.2862 32.9800
" />
<path d="M21.2862 32.9800 A0.8000 0.8000 0.0 0 0 22.8862 32.9800" />
<path d="M22.8862 32.9800
L22.8862 32.9800
" />
<path d="M22.8862 32.9800 A0.8000 0.8000 0.0 0 0 21.2862 32.9800" />
</g>
<g style="fill:none; 
stroke:#AFAFAF; stroke-width:0.0444; stroke-opacity:1; 
stroke-linecap:round; stroke-linejoin:round;">
<text x="7.3542" y="33.2467"
textLength="1.0425" font-size="0.7111" lengthAdjust="spacingAndGlyphs"
text-anchor="middle" opacity="0" stroke-opacity="0">13</text>
<g class="stroked-text"><desc>13</desc>
<path d="M7.2527 33.2244
L6.9479 33.2244
" />
<path d="M7.1003 33.2244
L7.1003 32.6911
" />
<path d="M7.1003 32.6911
L7.0495 32.7673
" />
<path d="M7.0495 32.7673
L6.9987 32.8181
" />
<path d="M6.9987 32.8181
L6.9479 32.8435
" />
<path d="M7.4304 32.6911
L7.7606 32.6911
" />
<path d="M7.7606 32.6911
L7.5828 32.8943
" />
<path d="M7.5828 32.8943
L7.6590 32.8943
" />
<path d="M7.6590 32.8943
L7.7098 32.9197
" />
<path d="M7.7098 32.9197
L7.7352 32.9451
" />
<path d="M7.7352 32.9451
L7.7606 32.9958
" />
<path d="M7.7606 32.9958
L7.7606 33.1228
" />
<path d="M7.7606 33.1228
L7.7352 33.1736
" />
<path d="M7.7352 33.1736
L7.7098 33.1990
" />
<path d="M7.7098 33.1990
L7.6590 33.2244
" />
<path d="M7.6590 33.2244
L7.5066 33.2244
" />
<path d="M7.5066 33.2244
L7.4558 33.1990
" />
<path d="M7.4558 33.1990
L7.4304 33.1736
" />
</g></g>
<g style="fill:none; 
stroke:#AFAFAF; stroke-width:0.0212; stroke-opacity:1; 
stroke-linecap:round; stroke-linejoin:round;">
<path d="M6.5542 32.9800
L6.5542 32.9800
" />
<path d="M6.5542 32.9800 A0.8000 0.8000 0.0 0 0 8.1542 32.9800" />
<path d="M8.1542 32.9800
L8.1542 32.9800
" />
<path d="M8.1542 32.9800 A0.8000 0.8000 0.0 0 0 6.5542 32.9800" />
</g>
<g style="fill:none; 
stroke:#AFAFAF; stroke-width:0.0444; stroke-opacity:1; 
stroke-linecap:round; stroke-linejoin:round;">
<text x="6.8462" y="30.7067"
textLength="1.0425" font-size="0.7111" lengthAdjust="spacingAndGlyphs"
text-anchor="middle" opacity="0" stroke-opacity="0">14</text>
<g class="stroked-text"><desc>14</desc>
<path d="M6.7447 30.6844
L6.4399 30.6844
" />
<path d="M6.5923 30.6844
L6.5923 30.1511
" />
<path d="M6.5923 30.1511
L6.5415 30.2273
" />
<path d="M6.5415 30.2273
L6.4907 30.2781
" />
<path d="M6.4907 30.2781
L6.4399 30.3035
" />
<path d="M7.2018 30.3289
L7.2018 30.6844
" />
<path d="M7.0748 30.1257
L6.9478 30.5066
" />
<path d="M6.9478 30.5066
L7.2780 30.5066
" />
</g></g>
<g style="fill:none; 
stroke:#AFAFAF; stroke-width:0.0212; stroke-opacity:1; 
stroke-linecap:round; stroke-linejoin:round;">
<path d="M6.0462 30.4400
L6.0462 30.4400
" />
<path d="M6.0462 30.4400 A0.8000 0.8000 0.0 0 0 7.6462 30.4400" />
<path d="M7.6462 30.4400
L7.6462 30.4400
" />
<path d="M7.6462 30.4400 A0.8000 0.8000 0.0 0 0 6.0462 30.4400" />
</g>
<g style="fill:none; 
stroke:#AFAFAF; stroke-width:0.0444; stroke-opacity:1; 
stroke-linecap:round; stroke-linejoin:round;">
<text x="7.3542" y="28.1667"
textLength="1.0425" font-size="0.7111" lengthAdjust="spacingAndGlyphs"
text-anchor="middle" opacity="0" stroke-opacity="0">15</text>
<g class="stroked-text"><desc>15</desc>
<path d="M7.2527 28.1444
L6.9479 28.1444
" />
<path d="M7.1003 28.1444
L7.1003 27.6111
" />
<path d="M7.1003 27.6111
L7.0495 27.6873
" />
<path d="M7.0495 27.6873
L6.9987 27.7381
" />
<path d="M6.9987 27.7381
L6.9479 27.7635
" />
<path d="M7.7352 27.6111
L7.4812 27.6111
" />
<path d="M7.4812 27.6111
L7.4558 27.8651
" />
<path d="M7.4558 27.8651
L7.4812 27.8397
" />
<path d="M7.4812 27.8397
L7.5320 27.8143
" />
<path d="M7.5320 27.8143
L7.6590 27.8143
" />
<path d="M7.6590 27.8143
L7.7098 27.8397
" />
<path d="M7.7098 27.8397
L7.7352 27.8651
" />
<path d="M7.7352 27.8651
L7.7606 27.9158
" />
<path d="M7.7606 27.9158
L7.7606 28.0428
" />
<path d="M7.7606 28.0428
L7.7352 28.0936
" />
<path d="M7.7352 28.0936
L7.7098 28.1190
" />
<path d="M7.7098 28.1190
L7.6590 28.1444
" />
<path d="M7.6590 28.1444
L7.5320 28.1444
" />
<path d="M7.5320 28.1444
L7.4812 28.1190
" />
<path d="M7.4812 28.1190
L7.4558 28.0936
" />
</g></g>
<g style="fill:none; 
stroke:#AFAFAF; stroke-width:0.0212; stroke-opacity:1; 
stroke-linecap:round; stroke-linejoin:round;">
<path d="M6.5542 27.9000
L6.5542 27.9000
" />
<path d="M6.5542 27.9000 A0.8000 0.8000 0.0 0 0 8.1542 27.9000" />
<path d="M8.1542 27.9000
L8.1542 27.9000
" />
<path d="M8.1542 27.9000 A0.8000 0.8000 0.0 0 0 6.5542 27.9000" />
</g>
<g style="fill:none; 
stroke:#AFAFAF; stroke-width:0.0444; stroke-opacity:1; 
stroke-linecap:round; stroke-linejoin:round;">
<text x="6.8462" y="25.6267"
textLength="1.0425" font-size="0.7111" lengthAdjust="spacingAndGlyphs"
text-anchor="middle" opacity="0" stroke-opacity="0">16</text>
<g class="stroked-text"><desc>16</desc>
<path d="M6.7447 25.6044
L6.4399 25.6044
" />
<path d="M6.5923 25.6044
L6.5923 25.0711
" />
<path d="M6.5923 25.0711
L6.5415 25.1473
" />
<path d="M6.5415 25.1473
L6.4907 25.1981
" />
<path d="M6.4907 25.1981
L6.4399 25.2235
" />
<path d="M7.2018 25.0711
L7.1002 25.0711
" />
<path d="M7.1002 25.0711
L7.0494 25.0965
" />
<path d="M7.0494 25.0965
L7.0240 25.1219
" />
<path d="M7.0240 25.1219
L6.9732 25.1981
" />
<path d="M6.9732 25.1981
L6.9478 25.2997
" />
<path d="M6.9478 25.2997
L6.9478 25.5028
" />
<path d="M6.9478 25.5028
L6.9732 25.5536
" />
<path d="M6.9732 25.5536
L6.9986 25.5790
" />
<path d="M6.9986 25.5790
L7.0494 25.6044
" />
<path d="M7.0494 25.6044
L7.1510 25.6044
" />
<path d="M7.1510 25.6044
L7.2018 25.5790
" />
<path d="M7.2018 25.5790
L7.2272 25.5536
" />
<path d="M7.2272 25.5536
L7.2526 25.5028
" />
<path d="M7.2526 25.5028
L7.2526 25.3758
" />
<path d="M7.2526 25.3758
L7.2272 25.3251
" />
<path d="M7.2272 25.3251
L7.2018 25.2997
" />
<path d="M7.2018 25.2997
L7.1510 25.2743
" />
<path d="M7.1510 25.2743
L7.0494 25.2743
" />
<path d="M7.0494 25.2743
L6.9986 25.2997
" />
<path d="M6.9986 25.2997
L6.9732 25.3251
" />
<path d="M6.9732 25.3251
L6.9478 25.3758
" />
</g></g>
<g style="fill:none; 
stroke:#AFAFAF; stroke-width:0.0212; stroke-opacity:1; 
stroke-linecap:round; stroke-linejoin:round;">
<path d="M6.0462 25.3600
L6.0462 25.3600
" />
<path d="M6.0462 25.3600 A0.8000 0.8000 0.0 0 0 7.6462 25.3600" />
<path d="M7.6462 25.3600
L7.6462 25.3600
" />
<path d="M7.6462 25.3600 A0.8000 0.8000 0.0 0 0 6.0462 25.3600" />
</g>
<g style="fill:none; 
stroke:#AFAFAF; stroke-width:0.0444; stroke-opacity:1; 
stroke-linecap:round; stroke-linejoin:round;">
<text x="7.3542" y="23.0867"
textLength="1.0425" font-size="0.7111" lengthAdjust="spacingAndGlyphs"
text-anchor="middle" opacity="0" stroke-opacity="0">17</text>
<g class="stroked-text"><desc>17</desc>
<path d="M7.2527 23.0644
L6.9479 23.0644
" />
<path d="M7.1003 23.0644
L7.1003 22.5311
" />
<path d="M7.1003 22.5311
L7.0495 22.6073
" />
<path d="M7.0495 22.6073
L6.9987 22.6581
" />
<path d="M6.9987 22.6581
L6.9479 22.6835
" />
<path d="M7.4304 22.5311
L7.7860 22.5311
" />
<path d="M7.7860 22.5311
L7.5574 23.0644
" />
</g></g>
<g style="fill:none; 
stroke:#AFAFAF; stroke-width:0.0212; stroke-opacity:1; 
stroke-linecap:round; stroke-linejoin:round;">
<path d="M6.5542 22.8200
L6.5542 22.8200
" />
<path d="M6.5542 22.8200 A0.8000 0.8000 0.0 0 0 8.1542 22.8200" />
<path d="M8.1542 22.8200
L8.1542 22.8200
" />
<path d="M8.1542 22.8200 A0.8000 0.8000 0.0 0 0 6.5542 22.8200" />
</g>
<g style="fill:none; 
stroke:#AFAFAF; stroke-width:0.0444; stroke-opacity:1; 
stroke-linecap:round; stroke-linejoin:round;">
<text x="6.8462" y="20.5467"
textLength="1.0425" font-size="0.7111" lengthAdjust="spacingAndGlyphs"
text-anchor="middle" opacity="0" stroke-opacity="0">18</text>
<g class="stroked-text"><desc>18</desc>
<path d="M6.7447 20.5244
L6.4399 20.5244
" />
<path d="M6.5923 20.5244
L6.5923 19.9911
" />
<path d="M6.5923 19.9911
L6.5415 20.0673
" />
<path d="M6.5415 20.0673
L6.4907 20.1181
" />
<path d="M6.4907 20.1181
L6.4399 20.1435
" />
<path d="M7.0494 20.2197
L6.9986 20.1943
" />
<path d="M6.9986 20.1943
L6.9732 20.1689
" />
<path d="M6.9732 20.1689
L6.9478 20.1181
" />
<path d="M6.9478 20.1181
L6.9478 20.0927
" />
<path d="M6.9478 20.0927
L6.9732 20.0419
" />
<path d="M6.9732 20.0419
L6.9986 20.0165
" />
<path d="M6.9986 20.0165
L7.0494 19.9911
" />
<path d="M7.0494 19.9911
L7.1510 19.9911
" />
<path d="M7.1510 19.9911
L7.2018 20.0165
" />
<path d="M7.2018 20.0165
L7.2272 20.0419
" />
<path d="M7.2272 20.0419
L7.2526 20.0927
" />
<path d="M7.2526 20.0927
L7.2526 20.1181
" />
<path d="M7.2526 20.1181
L7.2272 20.1689
" />
<path d="M7.2272 20.1689
L7.2018 20.1943
" />
<path d="M7.2018 20.1943
L7.1510 20.2197
" />
<path d="M7.1510 20.2197
L7.0494 20.2197
" />
<path d="M7.0494 20.2197
L6.9986 20.2451
" />
<path d="M6.9986 20.2451
L6.9732 20.2705
" />
<path d="M6.9732 20.2705
L6.9478 20.3212
" />
<path d="M6.9478 20.3212
L6.9478 20.4228
" />
<path d="M6.9478 20.4228
L6.9732 20.4736
" />
<path d="M6.9732 20.4736
L6.9986 20.4990
" />
<path d="M6.9986 20.4990
L7.0494 20.5244
" />
<path d="M7.0494 20.5244
L7.1510 20.5244
" />
<path d="M7.1510 20.5244
L7.2018 20.4990
" />
<path d="M7.2018 20.4990
L7.2272 20.4736
" />
<path d="M7.2272 20.4736
L7.2526 20.4228
" />
<path d="M7.2526 20.4228
L7.2526 20.3212
" />
<path d="M7.2526 20.3212
L7.2272 20.2705
" />
<path d="M7.2272 20.2705
L7.2018 20.2451
" />
<path d="M7.2018 20.2451
L7.1510 20.2197
" />
</g></g>
<g style="fill:none; 
stroke:#AFAFAF; stroke-width:0.0212; stroke-opacity:1; 
stroke-linecap:round; stroke-linejoin:round;">
<path d="M6.0462 20.2800
L6.0462 20.2800
" />
<path d="M6.0462 20.2800 A0.8000 0.8000 0.0 0 0 7.6462 20.2800" />
<path d="M7.6462 20.2800
L7.6462 20.2800
" />
<path d="M7.6462 20.2800 A0.8000 0.8000 0.0 0 0 6.0462 20.2800" />
</g>
<g style="fill:none; 
stroke:#AFAFAF; stroke-width:0.0444; stroke-opacity:1; 
stroke-linecap:round; stroke-linejoin:round;">
<text x="7.3542" y="18.0067"
textLength="1.0425" font-size="0.7111" lengthAdjust="spacingAndGlyphs"
text-anchor="middle" opacity="0" stroke-opacity="0">19</text>
<g class="stroked-text"><desc>19</desc>
<path d="M7.2527 17.9844
L6.9479 17.9844
" />
<path d="M7.1003 17.9844
L7.1003 17.4511
" />
<path d="M7.1003 17.4511
L7.0495 17.5273
" />
<path d="M7.0495 17.5273
L6.9987 17.5781
" />
<path d="M6.9987 17.5781
L6.9479 17.6035
" />
<path d="M7.5066 17.9844
L7.6082 17.9844
" />
<path d="M7.6082 17.9844
L7.6590 17.9590
" />
<path d="M7.6590 17.9590
L7.6844 17.9336
" />
<path d="M7.6844 17.9336
L7.7352 17.8574
" />
<path d="M7.7352 17.8574
L7.7606 17.7558
" />
<path d="M7.7606 17.7558
L7.7606 17.5527
" />
<path d="M7.7606 17.5527
L7.7352 17.5019
" />
<path d="M7.7352 17.5019
L7.7098 17.4765
" />
<path d="M7.7098 17.4765
L7.6590 17.4511
" />
<path d="M7.6590 17.4511
L7.5574 17.4511
" />
<path d="M7.5574 17.4511
L7.5066 17.4765
" />
<path d="M7.5066 17.4765
L7.4812 17.5019
" />
<path d="M7.4812 17.5019
L7.4558 17.5527
" />
<path d="M7.4558 17.5527
L7.4558 17.6797
" />
<path d="M7.4558 17.6797
L7.4812 17.7304
" />
<path d="M7.4812 17.7304
L7.5066 17.7558
" />
<path d="M7.5066 17.7558
L7.5574 17.7812
" />
<path d="M7.5574 17.7812
L7.6590 17.7812
" />
<path d="M7.6590 17.7812
L7.7098 17.7558
" />
<path d="M7.7098 17.7558
L7.7352 17.7304
" />
<path d="M7.7352 17.7304
L7.7606 17.6797
" />
</g></g>
<g style="fill:none; 
stroke:#AFAFAF; stroke-width:0.0212; stroke-opacity:1; 
stroke-linecap:round; stroke-linejoin:round;">
<path d="M6.5542 17.7400
L6.5542 17.7400
" />
<path d="M6.5542 17.7400 A0.8000 0.8000 0.0 0 0 8.1542 17.7400" />
<path d="M8.1542 17.7400
L8.1542 17.7400
" />
<path d="M8.1542 17.7400 A0.8000 0.8000 0.0 0 0 6.5542 17.7400" />
</g>
<g style="fill:none; 
stroke:#AFAFAF; stroke-width:0.0444; stroke-opacity:1; 
stroke-linecap:round; stroke-linejoin:round;">
<text x="6.8462" y="15.4667"
textLength="1.0425" font-size="0.7111" lengthAdjust="spacingAndGlyphs"
text-anchor="middle" opacity="0" stroke-opacity="0">20</text>
<g class="stroked-text"><desc>20</desc>
<path d="M6.4399 14.9619
L6.4653 14.9365
" />
<path d="M6.4653 14.9365
L6.5161 14.9111
" />
<path d="M6.5161 14.9111
L6.6431 14.9111
" />
<path d="M6.6431 14.9111
L6.6939 14.9365
" />
<path d="M6.6939 14.9365
L6.7193 14.9619
" />
<path d="M6.7193 14.9619
L6.7447 15.0127
" />
<path d="M6.7447 15.0127
L6.7447 15.0635
" />
<path d="M6.7447 15.0635
L6.7193 15.1397
" />
<path d="M6.7193 15.1397
L6.4145 15.4444
" />
<path d="M6.4145 15.4444
L6.7447 15.4444
" />
<path d="M7.0748 14.9111
L7.1256 14.9111
" />
<path d="M7.1256 14.9111
L7.1764 14.9365
" />
<path d="M7.1764 14.9365
L7.2018 14.9619
" />
<path d="M7.2018 14.9619
L7.2272 15.0127
" />
<path d="M7.2272 15.0127
L7.2526 15.1143
" />
<path d="M7.2526 15.1143
L7.2526 15.2412
" />
<path d="M7.2526 15.2412
L7.2272 15.3428
" />
<path d="M7.2272 15.3428
L7.2018 15.3936
" />
<path d="M7.2018 15.3936
L7.1764 15.4190
" />
<path d="M7.1764 15.4190
L7.1256 15.4444
" />
<path d="M7.1256 15.4444
L7.0748 15.4444
" />
<path d="M7.0748 15.4444
L7.0240 15.4190
" />
<path d="M7.0240 15.4190
L6.9986 15.3936
" />
<path d="M6.9986 15.3936
L6.9732 15.3428
" />
<path d="M6.9732 15.3428
L6.9478 15.2412
" />
<path d="M6.9478 15.2412
L6.9478 15.1143
" />
<path d="M6.9478 15.1143
L6.9732 15.0127
" />
<path d="M6.9732 15.0127
L6.9986 14.9619
" />
<path d="M6.9986 14.9619
L7.0240 14.9365
" />
<path d="M7.0240 14.9365
L7.0748 14.9111
" />
</g></g>
<g style="fill:none; 
stroke:#AFAFAF; stroke-width:0.0212; stroke-opacity:1; 
stroke-linecap:round; stroke-linejoin:round;">
<path d="M6.0462 15.2000
L6.0462 15.2000
" />
<path d="M6.0462 15.2000 A0.8000 0.8000 0.0 0 0 7.6462 15.2000" />
<path d="M7.6462 15.2000
L7.6462 15.2000
" />
<path d="M7.6462 15.2000 A0.8000 0.8000 0.0 0 0 6.0462 15.2000" />
</g>
<g style="fill:none; 
stroke:#AFAFAF; stroke-width:0.0444; stroke-opacity:1; 
stroke-linecap:round; stroke-linejoin:round;">
<text x="7.3542" y="12.9267"
textLength="1.0425" font-size="0.7111" lengthAdjust="spacingAndGlyphs"
text-anchor="middle" opacity="0" stroke-opacity="0">21</text>
<g class="stroked-text"><desc>21</desc>
<path d="M6.9479 12.4219
L6.9733 12.3965
" />
<path d="M6.9733 12.3965
L7.0241 12.3711
" />
<path d="M7.0241 12.3711
L7.1511 12.3711
" />
<path d="M7.1511 12.3711
L7.2019 12.3965
" />
<path d="M7.2019 12.3965
L7.2273 12.4219
" />
<path d="M7.2273 12.4219
L7.2527 12.4727
" />
<path d="M7.2527 12.4727
L7.2527 12.5235
" />
<path d="M7.2527 12.5235
L7.2273 12.5997
" />
<path d="M7.2273 12.5997
L6.9225 12.9044
" />
<path d="M6.9225 12.9044
L7.2527 12.9044
" />
<path d="M7.7606 12.9044
L7.4558 12.9044
" />
<path d="M7.6082 12.9044
L7.6082 12.3711
" />
<path d="M7.6082 12.3711
L7.5574 12.4473
" />
<path d="M7.5574 12.4473
L7.5066 12.4981
" />
<path d="M7.5066 12.4981
L7.4558 12.5235
" />
</g></g>
<g style="fill:none; 
stroke:#AFAFAF; stroke-width:0.0212; stroke-opacity:1; 
stroke-linecap:round; stroke-linejoin:round;">
<path d="M6.5542 12.6600
L6.5542 12.6600
" />
<path d="M6.5542 12.6600 A0.8000 0.8000 0.0 0 0 8.1542 12.6600" />
<path d="M8.1542 12.6600
L8.1542 12.6600
" />
<path d="M8.1542 12.6600 A0.8000 0.8000 0.0 0 0 6.5542 12.6600" />
</g>
<g style="fill:none; 
stroke:#AFAFAF; stroke-width:0.0444; stroke-opacity:1; 
stroke-linecap:round; stroke-linejoin:round;">
<text x="6.8462" y="10.3867"
textLength="1.0425" font-size="0.7111" lengthAdjust="spacingAndGlyphs"
text-anchor="middle" opacity="0" stroke-opacity="0">22</text>
<g class="stroked-text"><desc>22</desc>
<path d="M6.4399 9.8819
L6.4653 9.8565
" />
<path d="M6.4653 9.8565
L6.5161 9.8311
" />
<path d="M6.5161 9.8311
L6.6431 9.8311
" />
<path d="M6.6431 9.8311
L6.6939 9.8565
" />
<path d="M6.6939 9.8565
L6.7193 9.8819
" />
<path d="M6.7193 9.8819
L6.7447 9.9327
" />
<path d="M6.7447 9.9327
L6.7447 9.9835
" />
<path d="M6.7447 9.9835
L6.7193 10.0597
" />
<path d="M6.7193 10.0597
L6.4145 10.3644
" />
<path d="M6.4145 10.3644
L6.7447 10.3644
" />
<path d="M6.9478 9.8819
L6.9732 9.8565
" />
<path d="M6.9732 9.8565
L7.0240 9.8311
" />
<path d="M7.0240 9.8311
L7.1510 9.8311
" />
<path d="M7.1510 9.8311
L7.2018 9.8565
" />
<path d="M7.2018 9.8565
L7.2272 9.8819
" />
<path d="M7.2272 9.8819
L7.2526 9.9327
" />
<path d="M7.2526 9.9327
L7.2526 9.9835
" />
<path d="M7.2526 9.9835
L7.2272 10.0597
" />
<path d="M7.2272 10.0597
L6.9224 10.3644
" />
<path d="M6.9224 10.3644
L7.2526 10.3644
" />
</g></g>
<g style="fill:none; 
stroke:#AFAFAF; stroke-width:0.0212; stroke-opacity:1; 
stroke-linecap:round; stroke-linejoin:round;">
<path d="M6.0462 10.1200
L6.0462 10.1200
" />
<path d="M6.0462 10.1200 A0.8000 0.8000 0.0 0 0 7.6462 10.1200" />
<path d="M7.6462 10.1200
L7.6462 10.1200
" />
<path d="M7.6462 10.1200 A0.8000 0.8000 0.0 0 0 6.0462 10.1200" />
</g>
<g style="fill:none; 
stroke:#AFAFAF; stroke-width:0.0444; stroke-opacity:1; 
stroke-linecap:round; stroke-linejoin:round;">
<text x="7.3542" y="7.8467"
textLength="1.0425" font-size="0.7111" lengthAdjust="spacingAndGlyphs"
text-anchor="middle" opacity="0" stroke-opacity="0">23</text>
<g class="stroked-text"><desc>23</desc>
<path d="M6.9479 7.3419
L6.9733 7.3165
" />
<path d="M6.9733 7.3165
L7.0241 7.2911
" />
<path d="M7.0241 7.2911
L7.1511 7.2911
" />
<path d="M7.1511 7.2911
L7.2019 7.3165
" />
<path d="M7.2019 7.3165
L7.2273 7.3419
" />
<path d="M7.2273 7.3419
L7.2527 7.3927
" />
<path d="M7.2527 7.3927
L7.2527 7.4435
" />
<path d="M7.2527 7.4435
L7.2273 7.5197
" />
<path d="M7.2273 7.5197
L6.9225 7.8244
" />
<path d="M6.9225 7.8244
L7.2527 7.8244
" />
<path d="M7.4304 7.2911
L7.7606 7.2911
" />
<path d="M7.7606 7.2911
L7.5828 7.4943
" />
<path d="M7.5828 7.4943
L7.6590 7.4943
" />
<path d="M7.6590 7.4943
L7.7098 7.5197
" />
<path d="M7.7098 7.5197
L7.7352 7.5451
" />
<path d="M7.7352 7.5451
L7.7606 7.5958
" />
<path d="M7.7606 7.5958
L7.7606 7.7228
" />
<path d="M7.7606 7.7228
L7.7352 7.7736
" />
<path d="M7.7352 7.7736
L7.7098 7.7990
" />
<path d="M7.7098 7.7990
L7.6590 7.8244
" />
<path d="M7.6590 7.8244
L7.5066 7.8244
" />
<path d="M7.5066 7.8244
L7.4558 7.7990
" />
<path d="M7.4558 7.7990
L7.4304 7.7736
" />
</g></g>
<g style="fill:none; 
stroke:#AFAFAF; stroke-width:0.0212; stroke-opacity:1; 
stroke-linecap:round; stroke-linejoin:round;">
<path d="M6.5542 7.5800
L6.5542 7.5800
" />
<path d="M6.5542 7.5800 A0.8000 0.8000 0.0 0 0 8.1542 7.5800" />
<path d="M8.1542 7.5800
L8.1542 7.5800
" />
<path d="M8.1542 7.5800 A0.8000 0.8000 0.0 0 0 6.5542 7.5800" />
</g>
<g style="fill:none; 
stroke:#AFAFAF; stroke-width:0.0444; stroke-opacity:1; 
stroke-linecap:round; stroke-linejoin:round;">
<text x="6.8462" y="5.3067"
textLength="1.0425" font-size="0.7111" lengthAdjust="spacingAndGlyphs"
text-anchor="middle" opacity="0" stroke-opacity="0">24</text>
<g class="stroked-text"><desc>24</desc>
<path d="M6.4399 4.8019
L6.4653 4.7765
" />
<path d="M6.4653 4.7765
L6.5161 4.7511
" />
<path d="M6.5161 4.7511
L6.6431 4.7511
" />
<path d="M6.6431 4.7511
L6.6939 4.7765
" />
<path d="M6.6939 4.7765
L6.7193 4.8019
" />
<path d="M6.7193 4.8019
L6.7447 4.8527
" />
<path d="M6.7447 4.8527
L6.7447 4.9035
" />
<path d="M6.7447 4.9035
L6.7193 4.9797
" />
<path d="M6.7193 4.9797
L6.4145 5.2844
" />
<path d="M6.4145 5.2844
L6.7447 5.2844
" />
<path d="M7.2018 4.9289
L7.2018 5.2844
" />
<path d="M7.0748 4.7257
L6.9478 5.1066
" />
<path d="M6.9478 5.1066
L7.2780 5.1066
" />
</g></g>
<g style="fill:none; 
stroke:#AFAFAF; stroke-width:0.0212; stroke-opacity:1; 
stroke-linecap:round; stroke-linejoin:round;">
<path d="M6.0462 5.0400
L6.0462 5.0400
" />
<path d="M6.0462 5.0400 A0.8000 0.8000 0.0 0 0 7.6462 5.0400" />
<path d="M7.6462 5.0400
L7.6462 5.0400
" />
<path d="M7.6462 5.0400 A0.8000 0.8000 0.0 0 0 6.0462 5.0400" />
</g> 
</svg>
