<?xml version="1.0" standalone="no"?>
 <!DOCTYPE svg PUBLIC "-//W3C//DTD SVG 1.1//EN" 
 "http://www.w3.org/Graphics/SVG/1.1/DTD/svg11.dtd"> 
<svg
  xmlns:svg="http://www.w3.org/2000/svg"
  xmlns="http://www.w3.org/2000/svg"
  xmlns:xlink="http://www.w3.org/1999/xlink"
  version="1.1"
  width="22.9108mm" height="37.8714mm" viewBox="0.0000 0.0000 22.9108 37.8714">
<title>SVG Image created as MCU_ProMicro_Generic_ZigZag.svg date 2025/04/12 02:54:53 </title>
  <desc>Image generated by PCBNEW </desc>
<g style="fill:#000000; fill-opacity:1.0000;stroke:#000000; stroke-opacity:1.0000;
stroke-linecap:round; stroke-linejoin:round;"
 transform="translate(0 0) scale(1 1)">
</g>
<g style="fill:none; 
stroke:#F2EDA1; stroke-width:0.1500; stroke-opacity:1; 
stroke-linecap:round; stroke-linejoin:round;">
<text x="11.4583" y="3.1400"
textLength="4.5357" font-size="1.3333" lengthAdjust="spacingAndGlyphs"
text-anchor="middle" opacity="0" stroke-opacity="0">REF**</text>
<g class="stroked-text"><desc>REF**</desc>
<path d="M10.1250 3.0948
L9.7917 2.6186
" />
<path d="M9.5536 3.0948
L9.5536 2.0948
" />
<path d="M9.5536 2.0948
L9.9345 2.0948
" />
<path d="M9.9345 2.0948
L10.0298 2.1424
" />
<path d="M10.0298 2.1424
L10.0774 2.1901
" />
<path d="M10.0774 2.1901
L10.1250 2.2853
" />
<path d="M10.1250 2.2853
L10.1250 2.4282
" />
<path d="M10.1250 2.4282
L10.0774 2.5234
" />
<path d="M10.0774 2.5234
L10.0298 2.5710
" />
<path d="M10.0298 2.5710
L9.9345 2.6186
" />
<path d="M9.9345 2.6186
L9.5536 2.6186
" />
<path d="M10.5536 2.5710
L10.8869 2.5710
" />
<path d="M11.0298 3.0948
L10.5536 3.0948
" />
<path d="M10.5536 3.0948
L10.5536 2.0948
" />
<path d="M10.5536 2.0948
L11.0298 2.0948
" />
<path d="M11.7917 2.5710
L11.4583 2.5710
" />
<path d="M11.4583 3.0948
L11.4583 2.0948
" />
<path d="M11.4583 2.0948
L11.9345 2.0948
" />
<path d="M12.4583 2.0948
L12.4583 2.3329
" />
<path d="M12.2202 2.2377
L12.4583 2.3329
" />
<path d="M12.4583 2.3329
L12.6964 2.2377
" />
<path d="M12.3155 2.5234
L12.4583 2.3329
" />
<path d="M12.4583 2.3329
L12.6012 2.5234
" />
<path d="M13.2202 2.0948
L13.2202 2.3329
" />
<path d="M12.9821 2.2377
L13.2202 2.3329
" />
<path d="M13.2202 2.3329
L13.4583 2.2377
" />
<path d="M13.0774 2.5234
L13.2202 2.3329
" />
<path d="M13.2202 2.3329
L13.3631 2.5234
" />
</g></g>
<g style="fill:none; 
stroke:#F2EDA1; stroke-width:0.1200; stroke-opacity:1; 
stroke-linecap:round; stroke-linejoin:round;">
<path d="M4.6983 5.8400
L4.6983 4.2400
" />
<path style="fill:none; 
stroke:#F2EDA1; stroke-width:0.1200; stroke-opacity:1; 
stroke-linecap:round; stroke-linejoin:round;fill:none"
d="M 20.3483,3.7700
2.5683,3.7700
2.5683,34.2500
20.3483,34.2500
Z" /> 
<path style="fill:#C83434; fill-opacity:1.0000; stroke:none;fill-rule:evenodd;"
d="M 2.7843,4.4800
2.8026,4.3882
2.8546,4.3103
2.9325,4.2583
3.0243,4.2400
4.1443,4.2400
4.2362,4.2583
4.3140,4.3103
4.3661,4.3882
4.3843,4.4800
4.3843,5.6000
4.3661,5.6918
4.3140,5.7697
4.2362,5.8217
4.1443,5.8400
3.0243,5.8400
2.9325,5.8217
2.8546,5.7697
2.8026,5.6918
2.7843,5.6000
Z" /> 
</g>
<g style="fill:#C83434; fill-opacity:1.0000; stroke:none;">
<circle cx="4.0923" cy="7.5800" r="0.8000" /> 
<circle cx="3.5843" cy="10.1200" r="0.8000" /> 
<circle cx="4.0923" cy="12.6600" r="0.8000" /> 
<circle cx="3.5843" cy="15.2000" r="0.8000" /> 
<circle cx="4.0923" cy="17.7400" r="0.8000" /> 
<circle cx="3.5843" cy="20.2800" r="0.8000" /> 
<circle cx="4.0923" cy="22.8200" r="0.8000" /> 
<circle cx="3.5843" cy="25.3600" r="0.8000" /> 
<circle cx="4.0923" cy="27.9000" r="0.8000" /> 
<circle cx="3.5843" cy="30.4400" r="0.8000" /> 
<circle cx="4.0923" cy="32.9800" r="0.8000" /> 
<circle cx="18.8243" cy="32.9800" r="0.8000" /> 
<circle cx="19.3323" cy="30.4400" r="0.8000" /> 
<circle cx="18.8243" cy="27.9000" r="0.8000" /> 
<circle cx="19.3323" cy="25.3600" r="0.8000" /> 
<circle cx="18.8243" cy="22.8200" r="0.8000" /> 
<circle cx="19.3323" cy="20.2800" r="0.8000" /> 
<circle cx="18.8243" cy="17.7400" r="0.8000" /> 
<circle cx="19.3323" cy="15.2000" r="0.8000" /> 
<circle cx="18.8243" cy="12.6600" r="0.8000" /> 
<circle cx="19.3323" cy="10.1200" r="0.8000" /> 
<circle cx="18.8243" cy="7.5800" r="0.8000" /> 
<circle cx="19.3323" cy="5.0400" r="0.8000" /> 
<path style="fill:#4D7FC4; fill-opacity:1.0000; stroke:none;fill-rule:evenodd;"
d="M 2.7843,4.4800
2.8026,4.3882
2.8546,4.3103
2.9325,4.2583
3.0243,4.2400
4.1443,4.2400
4.2362,4.2583
4.3140,4.3103
4.3661,4.3882
4.3843,4.4800
4.3843,5.6000
4.3661,5.6918
4.3140,5.7697
4.2362,5.8217
4.1443,5.8400
3.0243,5.8400
2.9325,5.8217
2.8546,5.7697
2.8026,5.6918
2.7843,5.6000
Z" /> 
</g>
<g style="fill:#4D7FC4; fill-opacity:1.0000; stroke:none;">
<circle cx="4.0923" cy="7.5800" r="0.8000" /> 
<circle cx="3.5843" cy="10.1200" r="0.8000" /> 
<circle cx="4.0923" cy="12.6600" r="0.8000" /> 
<circle cx="3.5843" cy="15.2000" r="0.8000" /> 
<circle cx="4.0923" cy="17.7400" r="0.8000" /> 
<circle cx="3.5843" cy="20.2800" r="0.8000" /> 
<circle cx="4.0923" cy="22.8200" r="0.8000" /> 
<circle cx="3.5843" cy="25.3600" r="0.8000" /> 
<circle cx="4.0923" cy="27.9000" r="0.8000" /> 
<circle cx="3.5843" cy="30.4400" r="0.8000" /> 
<circle cx="4.0923" cy="32.9800" r="0.8000" /> 
<circle cx="18.8243" cy="32.9800" r="0.8000" /> 
<circle cx="19.3323" cy="30.4400" r="0.8000" /> 
<circle cx="18.8243" cy="27.9000" r="0.8000" /> 
<circle cx="19.3323" cy="25.3600" r="0.8000" /> 
<circle cx="18.8243" cy="22.8200" r="0.8000" /> 
<circle cx="19.3323" cy="20.2800" r="0.8000" /> 
<circle cx="18.8243" cy="17.7400" r="0.8000" /> 
<circle cx="19.3323" cy="15.2000" r="0.8000" /> 
<circle cx="18.8243" cy="12.6600" r="0.8000" /> 
<circle cx="19.3323" cy="10.1200" r="0.8000" /> 
<circle cx="18.8243" cy="7.5800" r="0.8000" /> 
<circle cx="19.3323" cy="5.0400" r="0.8000" /> 
</g>
<g style="fill:none; 
stroke:#AFAFAF; stroke-width:0.1500; stroke-opacity:1; 
stroke-linecap:round; stroke-linejoin:round;">
<text x="11.4583" y="35.9400"
textLength="22.9167" font-size="1.3333" lengthAdjust="spacingAndGlyphs"
text-anchor="middle" opacity="0" stroke-opacity="0">MCU_ProMicro_Generic_ZigZag</text>
<g class="stroked-text"><desc>MCU_ProMicro_Generic_ZigZag</desc>
<path d="M0.3631 35.8948
L0.3631 34.8948
" />
<path d="M0.3631 34.8948
L0.6964 35.6091
" />
<path d="M0.6964 35.6091
L1.0298 34.8948
" />
<path d="M1.0298 34.8948
L1.0298 35.8948
" />
<path d="M2.0774 35.7996
L2.0298 35.8472
" />
<path d="M2.0298 35.8472
L1.8869 35.8948
" />
<path d="M1.8869 35.8948
L1.7917 35.8948
" />
<path d="M1.7917 35.8948
L1.6488 35.8472
" />
<path d="M1.6488 35.8472
L1.5536 35.7520
" />
<path d="M1.5536 35.7520
L1.5060 35.6567
" />
<path d="M1.5060 35.6567
L1.4583 35.4662
" />
<path d="M1.4583 35.4662
L1.4583 35.3234
" />
<path d="M1.4583 35.3234
L1.5060 35.1329
" />
<path d="M1.5060 35.1329
L1.5536 35.0377
" />
<path d="M1.5536 35.0377
L1.6488 34.9424
" />
<path d="M1.6488 34.9424
L1.7917 34.8948
" />
<path d="M1.7917 34.8948
L1.8869 34.8948
" />
<path d="M1.8869 34.8948
L2.0298 34.9424
" />
<path d="M2.0298 34.9424
L2.0774 34.9901
" />
<path d="M2.5060 34.8948
L2.5060 35.7043
" />
<path d="M2.5060 35.7043
L2.5536 35.7996
" />
<path d="M2.5536 35.7996
L2.6012 35.8472
" />
<path d="M2.6012 35.8472
L2.6964 35.8948
" />
<path d="M2.6964 35.8948
L2.8869 35.8948
" />
<path d="M2.8869 35.8948
L2.9821 35.8472
" />
<path d="M2.9821 35.8472
L3.0298 35.7996
" />
<path d="M3.0298 35.7996
L3.0774 35.7043
" />
<path d="M3.0774 35.7043
L3.0774 34.8948
" />
<path d="M3.3155 35.9901
L4.0774 35.9901
" />
<path d="M4.3155 35.8948
L4.3155 34.8948
" />
<path d="M4.3155 34.8948
L4.6964 34.8948
" />
<path d="M4.6964 34.8948
L4.7917 34.9424
" />
<path d="M4.7917 34.9424
L4.8393 34.9901
" />
<path d="M4.8393 34.9901
L4.8869 35.0853
" />
<path d="M4.8869 35.0853
L4.8869 35.2282
" />
<path d="M4.8869 35.2282
L4.8393 35.3234
" />
<path d="M4.8393 35.3234
L4.7917 35.3710
" />
<path d="M4.7917 35.3710
L4.6964 35.4186
" />
<path d="M4.6964 35.4186
L4.3155 35.4186
" />
<path d="M5.3155 35.8948
L5.3155 35.2282
" />
<path d="M5.3155 35.4186
L5.3631 35.3234
" />
<path d="M5.3631 35.3234
L5.4107 35.2758
" />
<path d="M5.4107 35.2758
L5.5060 35.2282
" />
<path d="M5.5060 35.2282
L5.6012 35.2282
" />
<path d="M6.0774 35.8948
L5.9821 35.8472
" />
<path d="M5.9821 35.8472
L5.9345 35.7996
" />
<path d="M5.9345 35.7996
L5.8869 35.7043
" />
<path d="M5.8869 35.7043
L5.8869 35.4186
" />
<path d="M5.8869 35.4186
L5.9345 35.3234
" />
<path d="M5.9345 35.3234
L5.9821 35.2758
" />
<path d="M5.9821 35.2758
L6.0774 35.2282
" />
<path d="M6.0774 35.2282
L6.2202 35.2282
" />
<path d="M6.2202 35.2282
L6.3155 35.2758
" />
<path d="M6.3155 35.2758
L6.3631 35.3234
" />
<path d="M6.3631 35.3234
L6.4107 35.4186
" />
<path d="M6.4107 35.4186
L6.4107 35.7043
" />
<path d="M6.4107 35.7043
L6.3631 35.7996
" />
<path d="M6.3631 35.7996
L6.3155 35.8472
" />
<path d="M6.3155 35.8472
L6.2202 35.8948
" />
<path d="M6.2202 35.8948
L6.0774 35.8948
" />
<path d="M6.8393 35.8948
L6.8393 34.8948
" />
<path d="M6.8393 34.8948
L7.1726 35.6091
" />
<path d="M7.1726 35.6091
L7.5060 34.8948
" />
<path d="M7.5060 34.8948
L7.5060 35.8948
" />
<path d="M7.9821 35.8948
L7.9821 35.2282
" />
<path d="M7.9821 34.8948
L7.9345 34.9424
" />
<path d="M7.9345 34.9424
L7.9821 34.9901
" />
<path d="M7.9821 34.9901
L8.0298 34.9424
" />
<path d="M8.0298 34.9424
L7.9821 34.8948
" />
<path d="M7.9821 34.8948
L7.9821 34.9901
" />
<path d="M8.8869 35.8472
L8.7917 35.8948
" />
<path d="M8.7917 35.8948
L8.6012 35.8948
" />
<path d="M8.6012 35.8948
L8.5060 35.8472
" />
<path d="M8.5060 35.8472
L8.4583 35.7996
" />
<path d="M8.4583 35.7996
L8.4107 35.7043
" />
<path d="M8.4107 35.7043
L8.4107 35.4186
" />
<path d="M8.4107 35.4186
L8.4583 35.3234
" />
<path d="M8.4583 35.3234
L8.5060 35.2758
" />
<path d="M8.5060 35.2758
L8.6012 35.2282
" />
<path d="M8.6012 35.2282
L8.7917 35.2282
" />
<path d="M8.7917 35.2282
L8.8869 35.2758
" />
<path d="M9.3155 35.8948
L9.3155 35.2282
" />
<path d="M9.3155 35.4186
L9.3631 35.3234
" />
<path d="M9.3631 35.3234
L9.4107 35.2758
" />
<path d="M9.4107 35.2758
L9.5060 35.2282
" />
<path d="M9.5060 35.2282
L9.6012 35.2282
" />
<path d="M10.0774 35.8948
L9.9821 35.8472
" />
<path d="M9.9821 35.8472
L9.9345 35.7996
" />
<path d="M9.9345 35.7996
L9.8869 35.7043
" />
<path d="M9.8869 35.7043
L9.8869 35.4186
" />
<path d="M9.8869 35.4186
L9.9345 35.3234
" />
<path d="M9.9345 35.3234
L9.9821 35.2758
" />
<path d="M9.9821 35.2758
L10.0774 35.2282
" />
<path d="M10.0774 35.2282
L10.2202 35.2282
" />
<path d="M10.2202 35.2282
L10.3155 35.2758
" />
<path d="M10.3155 35.2758
L10.3631 35.3234
" />
<path d="M10.3631 35.3234
L10.4107 35.4186
" />
<path d="M10.4107 35.4186
L10.4107 35.7043
" />
<path d="M10.4107 35.7043
L10.3631 35.7996
" />
<path d="M10.3631 35.7996
L10.3155 35.8472
" />
<path d="M10.3155 35.8472
L10.2202 35.8948
" />
<path d="M10.2202 35.8948
L10.0774 35.8948
" />
<path d="M10.6012 35.9901
L11.3631 35.9901
" />
<path d="M12.1250 34.9424
L12.0298 34.8948
" />
<path d="M12.0298 34.8948
L11.8869 34.8948
" />
<path d="M11.8869 34.8948
L11.7440 34.9424
" />
<path d="M11.7440 34.9424
L11.6488 35.0377
" />
<path d="M11.6488 35.0377
L11.6012 35.1329
" />
<path d="M11.6012 35.1329
L11.5536 35.3234
" />
<path d="M11.5536 35.3234
L11.5536 35.4662
" />
<path d="M11.5536 35.4662
L11.6012 35.6567
" />
<path d="M11.6012 35.6567
L11.6488 35.7520
" />
<path d="M11.6488 35.7520
L11.7440 35.8472
" />
<path d="M11.7440 35.8472
L11.8869 35.8948
" />
<path d="M11.8869 35.8948
L11.9821 35.8948
" />
<path d="M11.9821 35.8948
L12.1250 35.8472
" />
<path d="M12.1250 35.8472
L12.1726 35.7996
" />
<path d="M12.1726 35.7996
L12.1726 35.4662
" />
<path d="M12.1726 35.4662
L11.9821 35.4662
" />
<path d="M12.9821 35.8472
L12.8869 35.8948
" />
<path d="M12.8869 35.8948
L12.6964 35.8948
" />
<path d="M12.6964 35.8948
L12.6012 35.8472
" />
<path d="M12.6012 35.8472
L12.5536 35.7520
" />
<path d="M12.5536 35.7520
L12.5536 35.3710
" />
<path d="M12.5536 35.3710
L12.6012 35.2758
" />
<path d="M12.6012 35.2758
L12.6964 35.2282
" />
<path d="M12.6964 35.2282
L12.8869 35.2282
" />
<path d="M12.8869 35.2282
L12.9821 35.2758
" />
<path d="M12.9821 35.2758
L13.0298 35.3710
" />
<path d="M13.0298 35.3710
L13.0298 35.4662
" />
<path d="M13.0298 35.4662
L12.5536 35.5615
" />
<path d="M13.4583 35.2282
L13.4583 35.8948
" />
<path d="M13.4583 35.3234
L13.5060 35.2758
" />
<path d="M13.5060 35.2758
L13.6012 35.2282
" />
<path d="M13.6012 35.2282
L13.7440 35.2282
" />
<path d="M13.7440 35.2282
L13.8393 35.2758
" />
<path d="M13.8393 35.2758
L13.8869 35.3710
" />
<path d="M13.8869 35.3710
L13.8869 35.8948
" />
<path d="M14.7440 35.8472
L14.6488 35.8948
" />
<path d="M14.6488 35.8948
L14.4583 35.8948
" />
<path d="M14.4583 35.8948
L14.3631 35.8472
" />
<path d="M14.3631 35.8472
L14.3155 35.7520
" />
<path d="M14.3155 35.7520
L14.3155 35.3710
" />
<path d="M14.3155 35.3710
L14.3631 35.2758
" />
<path d="M14.3631 35.2758
L14.4583 35.2282
" />
<path d="M14.4583 35.2282
L14.6488 35.2282
" />
<path d="M14.6488 35.2282
L14.7440 35.2758
" />
<path d="M14.7440 35.2758
L14.7917 35.3710
" />
<path d="M14.7917 35.3710
L14.7917 35.4662
" />
<path d="M14.7917 35.4662
L14.3155 35.5615
" />
<path d="M15.2202 35.8948
L15.2202 35.2282
" />
<path d="M15.2202 35.4186
L15.2679 35.3234
" />
<path d="M15.2679 35.3234
L15.3155 35.2758
" />
<path d="M15.3155 35.2758
L15.4107 35.2282
" />
<path d="M15.4107 35.2282
L15.5060 35.2282
" />
<path d="M15.8393 35.8948
L15.8393 35.2282
" />
<path d="M15.8393 34.8948
L15.7917 34.9424
" />
<path d="M15.7917 34.9424
L15.8393 34.9901
" />
<path d="M15.8393 34.9901
L15.8869 34.9424
" />
<path d="M15.8869 34.9424
L15.8393 34.8948
" />
<path d="M15.8393 34.8948
L15.8393 34.9901
" />
<path d="M16.7440 35.8472
L16.6488 35.8948
" />
<path d="M16.6488 35.8948
L16.4583 35.8948
" />
<path d="M16.4583 35.8948
L16.3631 35.8472
" />
<path d="M16.3631 35.8472
L16.3155 35.7996
" />
<path d="M16.3155 35.7996
L16.2679 35.7043
" />
<path d="M16.2679 35.7043
L16.2679 35.4186
" />
<path d="M16.2679 35.4186
L16.3155 35.3234
" />
<path d="M16.3155 35.3234
L16.3631 35.2758
" />
<path d="M16.3631 35.2758
L16.4583 35.2282
" />
<path d="M16.4583 35.2282
L16.6488 35.2282
" />
<path d="M16.6488 35.2282
L16.7440 35.2758
" />
<path d="M16.9345 35.9901
L17.6964 35.9901
" />
<path d="M17.8393 34.8948
L18.5060 34.8948
" />
<path d="M18.5060 34.8948
L17.8393 35.8948
" />
<path d="M17.8393 35.8948
L18.5060 35.8948
" />
<path d="M18.8869 35.8948
L18.8869 35.2282
" />
<path d="M18.8869 34.8948
L18.8393 34.9424
" />
<path d="M18.8393 34.9424
L18.8869 34.9901
" />
<path d="M18.8869 34.9901
L18.9345 34.9424
" />
<path d="M18.9345 34.9424
L18.8869 34.8948
" />
<path d="M18.8869 34.8948
L18.8869 34.9901
" />
<path d="M19.7917 35.2282
L19.7917 36.0377
" />
<path d="M19.7917 36.0377
L19.7440 36.1329
" />
<path d="M19.7440 36.1329
L19.6964 36.1805
" />
<path d="M19.6964 36.1805
L19.6012 36.2282
" />
<path d="M19.6012 36.2282
L19.4583 36.2282
" />
<path d="M19.4583 36.2282
L19.3631 36.1805
" />
<path d="M19.7917 35.8472
L19.6964 35.8948
" />
<path d="M19.6964 35.8948
L19.5060 35.8948
" />
<path d="M19.5060 35.8948
L19.4107 35.8472
" />
<path d="M19.4107 35.8472
L19.3631 35.7996
" />
<path d="M19.3631 35.7996
L19.3155 35.7043
" />
<path d="M19.3155 35.7043
L19.3155 35.4186
" />
<path d="M19.3155 35.4186
L19.3631 35.3234
" />
<path d="M19.3631 35.3234
L19.4107 35.2758
" />
<path d="M19.4107 35.2758
L19.5060 35.2282
" />
<path d="M19.5060 35.2282
L19.6964 35.2282
" />
<path d="M19.6964 35.2282
L19.7917 35.2758
" />
<path d="M20.1726 34.8948
L20.8393 34.8948
" />
<path d="M20.8393 34.8948
L20.1726 35.8948
" />
<path d="M20.1726 35.8948
L20.8393 35.8948
" />
<path d="M21.6488 35.8948
L21.6488 35.3710
" />
<path d="M21.6488 35.3710
L21.6012 35.2758
" />
<path d="M21.6012 35.2758
L21.5060 35.2282
" />
<path d="M21.5060 35.2282
L21.3155 35.2282
" />
<path d="M21.3155 35.2282
L21.2202 35.2758
" />
<path d="M21.6488 35.8472
L21.5536 35.8948
" />
<path d="M21.5536 35.8948
L21.3155 35.8948
" />
<path d="M21.3155 35.8948
L21.2202 35.8472
" />
<path d="M21.2202 35.8472
L21.1726 35.7520
" />
<path d="M21.1726 35.7520
L21.1726 35.6567
" />
<path d="M21.1726 35.6567
L21.2202 35.5615
" />
<path d="M21.2202 35.5615
L21.3155 35.5139
" />
<path d="M21.3155 35.5139
L21.5536 35.5139
" />
<path d="M21.5536 35.5139
L21.6488 35.4662
" />
<path d="M22.5536 35.2282
L22.5536 36.0377
" />
<path d="M22.5536 36.0377
L22.5060 36.1329
" />
<path d="M22.5060 36.1329
L22.4583 36.1805
" />
<path d="M22.4583 36.1805
L22.3631 36.2282
" />
<path d="M22.3631 36.2282
L22.2202 36.2282
" />
<path d="M22.2202 36.2282
L22.1250 36.1805
" />
<path d="M22.5536 35.8472
L22.4583 35.8948
" />
<path d="M22.4583 35.8948
L22.2679 35.8948
" />
<path d="M22.2679 35.8948
L22.1726 35.8472
" />
<path d="M22.1726 35.8472
L22.1250 35.7996
" />
<path d="M22.1250 35.7996
L22.0774 35.7043
" />
<path d="M22.0774 35.7043
L22.0774 35.4186
" />
<path d="M22.0774 35.4186
L22.1250 35.3234
" />
<path d="M22.1250 35.3234
L22.1726 35.2758
" />
<path d="M22.1726 35.2758
L22.2679 35.2282
" />
<path d="M22.2679 35.2282
L22.4583 35.2282
" />
<path d="M22.4583 35.2282
L22.5536 35.2758
" />
</g><text x="11.4583" y="37.5400"
textLength="4.5357" font-size="1.3333" lengthAdjust="spacingAndGlyphs"
text-anchor="middle" opacity="0" stroke-opacity="0">REF**</text>
<g class="stroked-text"><desc>REF**</desc>
<path d="M10.1250 37.4948
L9.7917 37.0186
" />
<path d="M9.5536 37.4948
L9.5536 36.4948
" />
<path d="M9.5536 36.4948
L9.9345 36.4948
" />
<path d="M9.9345 36.4948
L10.0298 36.5424
" />
<path d="M10.0298 36.5424
L10.0774 36.5901
" />
<path d="M10.0774 36.5901
L10.1250 36.6853
" />
<path d="M10.1250 36.6853
L10.1250 36.8282
" />
<path d="M10.1250 36.8282
L10.0774 36.9234
" />
<path d="M10.0774 36.9234
L10.0298 36.9710
" />
<path d="M10.0298 36.9710
L9.9345 37.0186
" />
<path d="M9.9345 37.0186
L9.5536 37.0186
" />
<path d="M10.5536 36.9710
L10.8869 36.9710
" />
<path d="M11.0298 37.4948
L10.5536 37.4948
" />
<path d="M10.5536 37.4948
L10.5536 36.4948
" />
<path d="M10.5536 36.4948
L11.0298 36.4948
" />
<path d="M11.7917 36.9710
L11.4583 36.9710
" />
<path d="M11.4583 37.4948
L11.4583 36.4948
" />
<path d="M11.4583 36.4948
L11.9345 36.4948
" />
<path d="M12.4583 36.4948
L12.4583 36.7329
" />
<path d="M12.2202 36.6377
L12.4583 36.7329
" />
<path d="M12.4583 36.7329
L12.6964 36.6377
" />
<path d="M12.3155 36.9234
L12.4583 36.7329
" />
<path d="M12.4583 36.7329
L12.6012 36.9234
" />
<path d="M13.2202 36.4948
L13.2202 36.7329
" />
<path d="M12.9821 36.6377
L13.2202 36.7329
" />
<path d="M13.2202 36.7329
L13.4583 36.6377
" />
<path d="M13.0774 36.9234
L13.2202 36.7329
" />
<path d="M13.2202 36.7329
L13.3631 36.9234
" />
</g><path style="fill:none; 
stroke:#AFAFAF; stroke-width:0.1000; stroke-opacity:1; 
stroke-linecap:round; stroke-linejoin:round;fill:none"
d="M 2.5683,1.2300
20.3483,1.2300
20.3483,34.2500
2.5683,34.2500
Z" /> 
<path style="fill:none; 
stroke:#AFAFAF; stroke-width:0.1000; stroke-opacity:1; 
stroke-linecap:round; stroke-linejoin:round;fill:none"
d="M 6.9583,0.0500
15.9583,0.0500
15.9583,1.2300
6.9583,1.2300
Z" /> 
</g>
<g style="fill:none; 
stroke:#AFAFAF; stroke-width:0.0444; stroke-opacity:1; 
stroke-linecap:round; stroke-linejoin:round;">
<text x="3.5843" y="5.3067"
textLength="0.5346" font-size="0.7111" lengthAdjust="spacingAndGlyphs"
text-anchor="middle" opacity="0" stroke-opacity="0">1</text>
<g class="stroked-text"><desc>1</desc>
<path d="M3.7367 5.2844
L3.4320 5.2844
" />
<path d="M3.5843 5.2844
L3.5843 4.7511
" />
<path d="M3.5843 4.7511
L3.5335 4.8273
" />
<path d="M3.5335 4.8273
L3.4827 4.8781
" />
<path d="M3.4827 4.8781
L3.4320 4.9035
" />
</g><path style="fill:none; 
stroke:#AFAFAF; stroke-width:0.0212; stroke-opacity:1; 
stroke-linecap:round; stroke-linejoin:round;fill:none"
d="M 2.7843,4.4800
2.8026,4.3882
2.8546,4.3103
2.9325,4.2583
3.0243,4.2400
4.1443,4.2400
4.2362,4.2583
4.3140,4.3103
4.3661,4.3882
4.3843,4.4800
4.3843,5.6000
4.3661,5.6918
4.3140,5.7697
4.2362,5.8217
4.1443,5.8400
3.0243,5.8400
2.9325,5.8217
2.8546,5.7697
2.8026,5.6918
2.7843,5.6000
Z" /> 
</g>
<g style="fill:none; 
stroke:#AFAFAF; stroke-width:0.0444; stroke-opacity:1; 
stroke-linecap:round; stroke-linejoin:round;">
<text x="4.0923" y="7.8467"
textLength="0.5346" font-size="0.7111" lengthAdjust="spacingAndGlyphs"
text-anchor="middle" opacity="0" stroke-opacity="0">2</text>
<g class="stroked-text"><desc>2</desc>
<path d="M3.9400 7.3419
L3.9654 7.3165
" />
<path d="M3.9654 7.3165
L4.0161 7.2911
" />
<path d="M4.0161 7.2911
L4.1431 7.2911
" />
<path d="M4.1431 7.2911
L4.1939 7.3165
" />
<path d="M4.1939 7.3165
L4.2193 7.3419
" />
<path d="M4.2193 7.3419
L4.2447 7.3927
" />
<path d="M4.2447 7.3927
L4.2447 7.4435
" />
<path d="M4.2447 7.4435
L4.2193 7.5197
" />
<path d="M4.2193 7.5197
L3.9146 7.8244
" />
<path d="M3.9146 7.8244
L4.2447 7.8244
" />
</g></g>
<g style="fill:none; 
stroke:#AFAFAF; stroke-width:0.0212; stroke-opacity:1; 
stroke-linecap:round; stroke-linejoin:round;">
<path d="M3.2923 7.5800
L3.2923 7.5800
" />
<path d="M3.2923 7.5800 A0.8000 0.8000 0.0 0 0 4.8923 7.5800" />
<path d="M4.8923 7.5800
L4.8923 7.5800
" />
<path d="M4.8923 7.5800 A0.8000 0.8000 0.0 0 0 3.2923 7.5800" />
</g>
<g style="fill:none; 
stroke:#AFAFAF; stroke-width:0.0444; stroke-opacity:1; 
stroke-linecap:round; stroke-linejoin:round;">
<text x="3.5843" y="10.3867"
textLength="0.5346" font-size="0.7111" lengthAdjust="spacingAndGlyphs"
text-anchor="middle" opacity="0" stroke-opacity="0">3</text>
<g class="stroked-text"><desc>3</desc>
<path d="M3.4066 9.8311
L3.7367 9.8311
" />
<path d="M3.7367 9.8311
L3.5589 10.0343
" />
<path d="M3.5589 10.0343
L3.6351 10.0343
" />
<path d="M3.6351 10.0343
L3.6859 10.0597
" />
<path d="M3.6859 10.0597
L3.7113 10.0851
" />
<path d="M3.7113 10.0851
L3.7367 10.1358
" />
<path d="M3.7367 10.1358
L3.7367 10.2628
" />
<path d="M3.7367 10.2628
L3.7113 10.3136
" />
<path d="M3.7113 10.3136
L3.6859 10.3390
" />
<path d="M3.6859 10.3390
L3.6351 10.3644
" />
<path d="M3.6351 10.3644
L3.4827 10.3644
" />
<path d="M3.4827 10.3644
L3.4320 10.3390
" />
<path d="M3.4320 10.3390
L3.4066 10.3136
" />
</g></g>
<g style="fill:none; 
stroke:#AFAFAF; stroke-width:0.0212; stroke-opacity:1; 
stroke-linecap:round; stroke-linejoin:round;">
<path d="M2.7843 10.1200
L2.7843 10.1200
" />
<path d="M2.7843 10.1200 A0.8000 0.8000 0.0 0 0 4.3843 10.1200" />
<path d="M4.3843 10.1200
L4.3843 10.1200
" />
<path d="M4.3843 10.1200 A0.8000 0.8000 0.0 0 0 2.7843 10.1200" />
</g>
<g style="fill:none; 
stroke:#AFAFAF; stroke-width:0.0444; stroke-opacity:1; 
stroke-linecap:round; stroke-linejoin:round;">
<text x="4.0923" y="12.9267"
textLength="0.5346" font-size="0.7111" lengthAdjust="spacingAndGlyphs"
text-anchor="middle" opacity="0" stroke-opacity="0">4</text>
<g class="stroked-text"><desc>4</desc>
<path d="M4.1939 12.5489
L4.1939 12.9044
" />
<path d="M4.0669 12.3457
L3.9400 12.7266
" />
<path d="M3.9400 12.7266
L4.2701 12.7266
" />
</g></g>
<g style="fill:none; 
stroke:#AFAFAF; stroke-width:0.0212; stroke-opacity:1; 
stroke-linecap:round; stroke-linejoin:round;">
<path d="M3.2923 12.6600
L3.2923 12.6600
" />
<path d="M3.2923 12.6600 A0.8000 0.8000 0.0 0 0 4.8923 12.6600" />
<path d="M4.8923 12.6600
L4.8923 12.6600
" />
<path d="M4.8923 12.6600 A0.8000 0.8000 0.0 0 0 3.2923 12.6600" />
</g>
<g style="fill:none; 
stroke:#AFAFAF; stroke-width:0.0444; stroke-opacity:1; 
stroke-linecap:round; stroke-linejoin:round;">
<text x="3.5843" y="15.4667"
textLength="0.5346" font-size="0.7111" lengthAdjust="spacingAndGlyphs"
text-anchor="middle" opacity="0" stroke-opacity="0">5</text>
<g class="stroked-text"><desc>5</desc>
<path d="M3.7113 14.9111
L3.4574 14.9111
" />
<path d="M3.4574 14.9111
L3.4320 15.1651
" />
<path d="M3.4320 15.1651
L3.4574 15.1397
" />
<path d="M3.4574 15.1397
L3.5081 15.1143
" />
<path d="M3.5081 15.1143
L3.6351 15.1143
" />
<path d="M3.6351 15.1143
L3.6859 15.1397
" />
<path d="M3.6859 15.1397
L3.7113 15.1651
" />
<path d="M3.7113 15.1651
L3.7367 15.2158
" />
<path d="M3.7367 15.2158
L3.7367 15.3428
" />
<path d="M3.7367 15.3428
L3.7113 15.3936
" />
<path d="M3.7113 15.3936
L3.6859 15.4190
" />
<path d="M3.6859 15.4190
L3.6351 15.4444
" />
<path d="M3.6351 15.4444
L3.5081 15.4444
" />
<path d="M3.5081 15.4444
L3.4574 15.4190
" />
<path d="M3.4574 15.4190
L3.4320 15.3936
" />
</g></g>
<g style="fill:none; 
stroke:#AFAFAF; stroke-width:0.0212; stroke-opacity:1; 
stroke-linecap:round; stroke-linejoin:round;">
<path d="M2.7843 15.2000
L2.7843 15.2000
" />
<path d="M2.7843 15.2000 A0.8000 0.8000 0.0 0 0 4.3843 15.2000" />
<path d="M4.3843 15.2000
L4.3843 15.2000
" />
<path d="M4.3843 15.2000 A0.8000 0.8000 0.0 0 0 2.7843 15.2000" />
</g>
<g style="fill:none; 
stroke:#AFAFAF; stroke-width:0.0444; stroke-opacity:1; 
stroke-linecap:round; stroke-linejoin:round;">
<text x="4.0923" y="18.0067"
textLength="0.5346" font-size="0.7111" lengthAdjust="spacingAndGlyphs"
text-anchor="middle" opacity="0" stroke-opacity="0">6</text>
<g class="stroked-text"><desc>6</desc>
<path d="M4.1939 17.4511
L4.0923 17.4511
" />
<path d="M4.0923 17.4511
L4.0415 17.4765
" />
<path d="M4.0415 17.4765
L4.0161 17.5019
" />
<path d="M4.0161 17.5019
L3.9654 17.5781
" />
<path d="M3.9654 17.5781
L3.9400 17.6797
" />
<path d="M3.9400 17.6797
L3.9400 17.8828
" />
<path d="M3.9400 17.8828
L3.9654 17.9336
" />
<path d="M3.9654 17.9336
L3.9907 17.9590
" />
<path d="M3.9907 17.9590
L4.0415 17.9844
" />
<path d="M4.0415 17.9844
L4.1431 17.9844
" />
<path d="M4.1431 17.9844
L4.1939 17.9590
" />
<path d="M4.1939 17.9590
L4.2193 17.9336
" />
<path d="M4.2193 17.9336
L4.2447 17.8828
" />
<path d="M4.2447 17.8828
L4.2447 17.7558
" />
<path d="M4.2447 17.7558
L4.2193 17.7051
" />
<path d="M4.2193 17.7051
L4.1939 17.6797
" />
<path d="M4.1939 17.6797
L4.1431 17.6543
" />
<path d="M4.1431 17.6543
L4.0415 17.6543
" />
<path d="M4.0415 17.6543
L3.9907 17.6797
" />
<path d="M3.9907 17.6797
L3.9654 17.7051
" />
<path d="M3.9654 17.7051
L3.9400 17.7558
" />
</g></g>
<g style="fill:none; 
stroke:#AFAFAF; stroke-width:0.0212; stroke-opacity:1; 
stroke-linecap:round; stroke-linejoin:round;">
<path d="M3.2923 17.7400
L3.2923 17.7400
" />
<path d="M3.2923 17.7400 A0.8000 0.8000 0.0 0 0 4.8923 17.7400" />
<path d="M4.8923 17.7400
L4.8923 17.7400
" />
<path d="M4.8923 17.7400 A0.8000 0.8000 0.0 0 0 3.2923 17.7400" />
</g>
<g style="fill:none; 
stroke:#AFAFAF; stroke-width:0.0444; stroke-opacity:1; 
stroke-linecap:round; stroke-linejoin:round;">
<text x="3.5843" y="20.5467"
textLength="0.5346" font-size="0.7111" lengthAdjust="spacingAndGlyphs"
text-anchor="middle" opacity="0" stroke-opacity="0">7</text>
<g class="stroked-text"><desc>7</desc>
<path d="M3.4066 19.9911
L3.7621 19.9911
" />
<path d="M3.7621 19.9911
L3.5335 20.5244
" />
</g></g>
<g style="fill:none; 
stroke:#AFAFAF; stroke-width:0.0212; stroke-opacity:1; 
stroke-linecap:round; stroke-linejoin:round;">
<path d="M2.7843 20.2800
L2.7843 20.2800
" />
<path d="M2.7843 20.2800 A0.8000 0.8000 0.0 0 0 4.3843 20.2800" />
<path d="M4.3843 20.2800
L4.3843 20.2800
" />
<path d="M4.3843 20.2800 A0.8000 0.8000 0.0 0 0 2.7843 20.2800" />
</g>
<g style="fill:none; 
stroke:#AFAFAF; stroke-width:0.0444; stroke-opacity:1; 
stroke-linecap:round; stroke-linejoin:round;">
<text x="4.0923" y="23.0867"
textLength="0.5346" font-size="0.7111" lengthAdjust="spacingAndGlyphs"
text-anchor="middle" opacity="0" stroke-opacity="0">8</text>
<g class="stroked-text"><desc>8</desc>
<path d="M4.0415 22.7597
L3.9907 22.7343
" />
<path d="M3.9907 22.7343
L3.9654 22.7089
" />
<path d="M3.9654 22.7089
L3.9400 22.6581
" />
<path d="M3.9400 22.6581
L3.9400 22.6327
" />
<path d="M3.9400 22.6327
L3.9654 22.5819
" />
<path d="M3.9654 22.5819
L3.9907 22.5565
" />
<path d="M3.9907 22.5565
L4.0415 22.5311
" />
<path d="M4.0415 22.5311
L4.1431 22.5311
" />
<path d="M4.1431 22.5311
L4.1939 22.5565
" />
<path d="M4.1939 22.5565
L4.2193 22.5819
" />
<path d="M4.2193 22.5819
L4.2447 22.6327
" />
<path d="M4.2447 22.6327
L4.2447 22.6581
" />
<path d="M4.2447 22.6581
L4.2193 22.7089
" />
<path d="M4.2193 22.7089
L4.1939 22.7343
" />
<path d="M4.1939 22.7343
L4.1431 22.7597
" />
<path d="M4.1431 22.7597
L4.0415 22.7597
" />
<path d="M4.0415 22.7597
L3.9907 22.7851
" />
<path d="M3.9907 22.7851
L3.9654 22.8104
" />
<path d="M3.9654 22.8104
L3.9400 22.8612
" />
<path d="M3.9400 22.8612
L3.9400 22.9628
" />
<path d="M3.9400 22.9628
L3.9654 23.0136
" />
<path d="M3.9654 23.0136
L3.9907 23.0390
" />
<path d="M3.9907 23.0390
L4.0415 23.0644
" />
<path d="M4.0415 23.0644
L4.1431 23.0644
" />
<path d="M4.1431 23.0644
L4.1939 23.0390
" />
<path d="M4.1939 23.0390
L4.2193 23.0136
" />
<path d="M4.2193 23.0136
L4.2447 22.9628
" />
<path d="M4.2447 22.9628
L4.2447 22.8612
" />
<path d="M4.2447 22.8612
L4.2193 22.8104
" />
<path d="M4.2193 22.8104
L4.1939 22.7851
" />
<path d="M4.1939 22.7851
L4.1431 22.7597
" />
</g></g>
<g style="fill:none; 
stroke:#AFAFAF; stroke-width:0.0212; stroke-opacity:1; 
stroke-linecap:round; stroke-linejoin:round;">
<path d="M3.2923 22.8200
L3.2923 22.8200
" />
<path d="M3.2923 22.8200 A0.8000 0.8000 0.0 0 0 4.8923 22.8200" />
<path d="M4.8923 22.8200
L4.8923 22.8200
" />
<path d="M4.8923 22.8200 A0.8000 0.8000 0.0 0 0 3.2923 22.8200" />
</g>
<g style="fill:none; 
stroke:#AFAFAF; stroke-width:0.0444; stroke-opacity:1; 
stroke-linecap:round; stroke-linejoin:round;">
<text x="3.5843" y="25.6267"
textLength="0.5346" font-size="0.7111" lengthAdjust="spacingAndGlyphs"
text-anchor="middle" opacity="0" stroke-opacity="0">9</text>
<g class="stroked-text"><desc>9</desc>
<path d="M3.4827 25.6044
L3.5843 25.6044
" />
<path d="M3.5843 25.6044
L3.6351 25.5790
" />
<path d="M3.6351 25.5790
L3.6605 25.5536
" />
<path d="M3.6605 25.5536
L3.7113 25.4774
" />
<path d="M3.7113 25.4774
L3.7367 25.3758
" />
<path d="M3.7367 25.3758
L3.7367 25.1727
" />
<path d="M3.7367 25.1727
L3.7113 25.1219
" />
<path d="M3.7113 25.1219
L3.6859 25.0965
" />
<path d="M3.6859 25.0965
L3.6351 25.0711
" />
<path d="M3.6351 25.0711
L3.5335 25.0711
" />
<path d="M3.5335 25.0711
L3.4827 25.0965
" />
<path d="M3.4827 25.0965
L3.4574 25.1219
" />
<path d="M3.4574 25.1219
L3.4320 25.1727
" />
<path d="M3.4320 25.1727
L3.4320 25.2997
" />
<path d="M3.4320 25.2997
L3.4574 25.3504
" />
<path d="M3.4574 25.3504
L3.4827 25.3758
" />
<path d="M3.4827 25.3758
L3.5335 25.4012
" />
<path d="M3.5335 25.4012
L3.6351 25.4012
" />
<path d="M3.6351 25.4012
L3.6859 25.3758
" />
<path d="M3.6859 25.3758
L3.7113 25.3504
" />
<path d="M3.7113 25.3504
L3.7367 25.2997
" />
</g></g>
<g style="fill:none; 
stroke:#AFAFAF; stroke-width:0.0212; stroke-opacity:1; 
stroke-linecap:round; stroke-linejoin:round;">
<path d="M2.7843 25.3600
L2.7843 25.3600
" />
<path d="M2.7843 25.3600 A0.8000 0.8000 0.0 0 0 4.3843 25.3600" />
<path d="M4.3843 25.3600
L4.3843 25.3600
" />
<path d="M4.3843 25.3600 A0.8000 0.8000 0.0 0 0 2.7843 25.3600" />
</g>
<g style="fill:none; 
stroke:#AFAFAF; stroke-width:0.0444; stroke-opacity:1; 
stroke-linecap:round; stroke-linejoin:round;">
<text x="4.0923" y="28.1667"
textLength="1.0425" font-size="0.7111" lengthAdjust="spacingAndGlyphs"
text-anchor="middle" opacity="0" stroke-opacity="0">10</text>
<g class="stroked-text"><desc>10</desc>
<path d="M3.9907 28.1444
L3.6860 28.1444
" />
<path d="M3.8384 28.1444
L3.8384 27.6111
" />
<path d="M3.8384 27.6111
L3.7876 27.6873
" />
<path d="M3.7876 27.6873
L3.7368 27.7381
" />
<path d="M3.7368 27.7381
L3.6860 27.7635
" />
<path d="M4.3209 27.6111
L4.3717 27.6111
" />
<path d="M4.3717 27.6111
L4.4225 27.6365
" />
<path d="M4.4225 27.6365
L4.4479 27.6619
" />
<path d="M4.4479 27.6619
L4.4733 27.7127
" />
<path d="M4.4733 27.7127
L4.4987 27.8143
" />
<path d="M4.4987 27.8143
L4.4987 27.9412
" />
<path d="M4.4987 27.9412
L4.4733 28.0428
" />
<path d="M4.4733 28.0428
L4.4479 28.0936
" />
<path d="M4.4479 28.0936
L4.4225 28.1190
" />
<path d="M4.4225 28.1190
L4.3717 28.1444
" />
<path d="M4.3717 28.1444
L4.3209 28.1444
" />
<path d="M4.3209 28.1444
L4.2701 28.1190
" />
<path d="M4.2701 28.1190
L4.2447 28.0936
" />
<path d="M4.2447 28.0936
L4.2193 28.0428
" />
<path d="M4.2193 28.0428
L4.1939 27.9412
" />
<path d="M4.1939 27.9412
L4.1939 27.8143
" />
<path d="M4.1939 27.8143
L4.2193 27.7127
" />
<path d="M4.2193 27.7127
L4.2447 27.6619
" />
<path d="M4.2447 27.6619
L4.2701 27.6365
" />
<path d="M4.2701 27.6365
L4.3209 27.6111
" />
</g></g>
<g style="fill:none; 
stroke:#AFAFAF; stroke-width:0.0212; stroke-opacity:1; 
stroke-linecap:round; stroke-linejoin:round;">
<path d="M3.2923 27.9000
L3.2923 27.9000
" />
<path d="M3.2923 27.9000 A0.8000 0.8000 0.0 0 0 4.8923 27.9000" />
<path d="M4.8923 27.9000
L4.8923 27.9000
" />
<path d="M4.8923 27.9000 A0.8000 0.8000 0.0 0 0 3.2923 27.9000" />
</g>
<g style="fill:none; 
stroke:#AFAFAF; stroke-width:0.0444; stroke-opacity:1; 
stroke-linecap:round; stroke-linejoin:round;">
<text x="3.5843" y="30.7067"
textLength="1.0425" font-size="0.7111" lengthAdjust="spacingAndGlyphs"
text-anchor="middle" opacity="0" stroke-opacity="0">11</text>
<g class="stroked-text"><desc>11</desc>
<path d="M3.4827 30.6844
L3.1780 30.6844
" />
<path d="M3.3304 30.6844
L3.3304 30.1511
" />
<path d="M3.3304 30.1511
L3.2796 30.2273
" />
<path d="M3.2796 30.2273
L3.2288 30.2781
" />
<path d="M3.2288 30.2781
L3.1780 30.3035
" />
<path d="M3.9907 30.6844
L3.6859 30.6844
" />
<path d="M3.8383 30.6844
L3.8383 30.1511
" />
<path d="M3.8383 30.1511
L3.7875 30.2273
" />
<path d="M3.7875 30.2273
L3.7367 30.2781
" />
<path d="M3.7367 30.2781
L3.6859 30.3035
" />
</g></g>
<g style="fill:none; 
stroke:#AFAFAF; stroke-width:0.0212; stroke-opacity:1; 
stroke-linecap:round; stroke-linejoin:round;">
<path d="M2.7843 30.4400
L2.7843 30.4400
" />
<path d="M2.7843 30.4400 A0.8000 0.8000 0.0 0 0 4.3843 30.4400" />
<path d="M4.3843 30.4400
L4.3843 30.4400
" />
<path d="M4.3843 30.4400 A0.8000 0.8000 0.0 0 0 2.7843 30.4400" />
</g>
<g style="fill:none; 
stroke:#AFAFAF; stroke-width:0.0444; stroke-opacity:1; 
stroke-linecap:round; stroke-linejoin:round;">
<text x="4.0923" y="33.2467"
textLength="1.0425" font-size="0.7111" lengthAdjust="spacingAndGlyphs"
text-anchor="middle" opacity="0" stroke-opacity="0">12</text>
<g class="stroked-text"><desc>12</desc>
<path d="M3.9907 33.2244
L3.6860 33.2244
" />
<path d="M3.8384 33.2244
L3.8384 32.6911
" />
<path d="M3.8384 32.6911
L3.7876 32.7673
" />
<path d="M3.7876 32.7673
L3.7368 32.8181
" />
<path d="M3.7368 32.8181
L3.6860 32.8435
" />
<path d="M4.1939 32.7419
L4.2193 32.7165
" />
<path d="M4.2193 32.7165
L4.2701 32.6911
" />
<path d="M4.2701 32.6911
L4.3971 32.6911
" />
<path d="M4.3971 32.6911
L4.4479 32.7165
" />
<path d="M4.4479 32.7165
L4.4733 32.7419
" />
<path d="M4.4733 32.7419
L4.4987 32.7927
" />
<path d="M4.4987 32.7927
L4.4987 32.8435
" />
<path d="M4.4987 32.8435
L4.4733 32.9197
" />
<path d="M4.4733 32.9197
L4.1685 33.2244
" />
<path d="M4.1685 33.2244
L4.4987 33.2244
" />
</g></g>
<g style="fill:none; 
stroke:#AFAFAF; stroke-width:0.0212; stroke-opacity:1; 
stroke-linecap:round; stroke-linejoin:round;">
<path d="M3.2923 32.9800
L3.2923 32.9800
" />
<path d="M3.2923 32.9800 A0.8000 0.8000 0.0 0 0 4.8923 32.9800" />
<path d="M4.8923 32.9800
L4.8923 32.9800
" />
<path d="M4.8923 32.9800 A0.8000 0.8000 0.0 0 0 3.2923 32.9800" />
</g>
<g style="fill:none; 
stroke:#AFAFAF; stroke-width:0.0444; stroke-opacity:1; 
stroke-linecap:round; stroke-linejoin:round;">
<text x="18.8243" y="33.2467"
textLength="1.0425" font-size="0.7111" lengthAdjust="spacingAndGlyphs"
text-anchor="middle" opacity="0" stroke-opacity="0">13</text>
<g class="stroked-text"><desc>13</desc>
<path d="M18.7227 33.2244
L18.4180 33.2244
" />
<path d="M18.5704 33.2244
L18.5704 32.6911
" />
<path d="M18.5704 32.6911
L18.5196 32.7673
" />
<path d="M18.5196 32.7673
L18.4688 32.8181
" />
<path d="M18.4688 32.8181
L18.4180 32.8435
" />
<path d="M18.9005 32.6911
L19.2307 32.6911
" />
<path d="M19.2307 32.6911
L19.0529 32.8943
" />
<path d="M19.0529 32.8943
L19.1291 32.8943
" />
<path d="M19.1291 32.8943
L19.1799 32.9197
" />
<path d="M19.1799 32.9197
L19.2053 32.9451
" />
<path d="M19.2053 32.9451
L19.2307 32.9958
" />
<path d="M19.2307 32.9958
L19.2307 33.1228
" />
<path d="M19.2307 33.1228
L19.2053 33.1736
" />
<path d="M19.2053 33.1736
L19.1799 33.1990
" />
<path d="M19.1799 33.1990
L19.1291 33.2244
" />
<path d="M19.1291 33.2244
L18.9767 33.2244
" />
<path d="M18.9767 33.2244
L18.9259 33.1990
" />
<path d="M18.9259 33.1990
L18.9005 33.1736
" />
</g></g>
<g style="fill:none; 
stroke:#AFAFAF; stroke-width:0.0212; stroke-opacity:1; 
stroke-linecap:round; stroke-linejoin:round;">
<path d="M18.0243 32.9800
L18.0243 32.9800
" />
<path d="M18.0243 32.9800 A0.8000 0.8000 0.0 0 0 19.6243 32.9800" />
<path d="M19.6243 32.9800
L19.6243 32.9800
" />
<path d="M19.6243 32.9800 A0.8000 0.8000 0.0 0 0 18.0243 32.9800" />
</g>
<g style="fill:none; 
stroke:#AFAFAF; stroke-width:0.0444; stroke-opacity:1; 
stroke-linecap:round; stroke-linejoin:round;">
<text x="19.3323" y="30.7067"
textLength="1.0425" font-size="0.7111" lengthAdjust="spacingAndGlyphs"
text-anchor="middle" opacity="0" stroke-opacity="0">14</text>
<g class="stroked-text"><desc>14</desc>
<path d="M19.2307 30.6844
L18.9260 30.6844
" />
<path d="M19.0784 30.6844
L19.0784 30.1511
" />
<path d="M19.0784 30.1511
L19.0276 30.2273
" />
<path d="M19.0276 30.2273
L18.9768 30.2781
" />
<path d="M18.9768 30.2781
L18.9260 30.3035
" />
<path d="M19.6879 30.3289
L19.6879 30.6844
" />
<path d="M19.5609 30.1257
L19.4339 30.5066
" />
<path d="M19.4339 30.5066
L19.7641 30.5066
" />
</g></g>
<g style="fill:none; 
stroke:#AFAFAF; stroke-width:0.0212; stroke-opacity:1; 
stroke-linecap:round; stroke-linejoin:round;">
<path d="M18.5323 30.4400
L18.5323 30.4400
" />
<path d="M18.5323 30.4400 A0.8000 0.8000 0.0 0 0 20.1323 30.4400" />
<path d="M20.1323 30.4400
L20.1323 30.4400
" />
<path d="M20.1323 30.4400 A0.8000 0.8000 0.0 0 0 18.5323 30.4400" />
</g>
<g style="fill:none; 
stroke:#AFAFAF; stroke-width:0.0444; stroke-opacity:1; 
stroke-linecap:round; stroke-linejoin:round;">
<text x="18.8243" y="28.1667"
textLength="1.0425" font-size="0.7111" lengthAdjust="spacingAndGlyphs"
text-anchor="middle" opacity="0" stroke-opacity="0">15</text>
<g class="stroked-text"><desc>15</desc>
<path d="M18.7227 28.1444
L18.4180 28.1444
" />
<path d="M18.5704 28.1444
L18.5704 27.6111
" />
<path d="M18.5704 27.6111
L18.5196 27.6873
" />
<path d="M18.5196 27.6873
L18.4688 27.7381
" />
<path d="M18.4688 27.7381
L18.4180 27.7635
" />
<path d="M19.2053 27.6111
L18.9513 27.6111
" />
<path d="M18.9513 27.6111
L18.9259 27.8651
" />
<path d="M18.9259 27.8651
L18.9513 27.8397
" />
<path d="M18.9513 27.8397
L19.0021 27.8143
" />
<path d="M19.0021 27.8143
L19.1291 27.8143
" />
<path d="M19.1291 27.8143
L19.1799 27.8397
" />
<path d="M19.1799 27.8397
L19.2053 27.8651
" />
<path d="M19.2053 27.8651
L19.2307 27.9158
" />
<path d="M19.2307 27.9158
L19.2307 28.0428
" />
<path d="M19.2307 28.0428
L19.2053 28.0936
" />
<path d="M19.2053 28.0936
L19.1799 28.1190
" />
<path d="M19.1799 28.1190
L19.1291 28.1444
" />
<path d="M19.1291 28.1444
L19.0021 28.1444
" />
<path d="M19.0021 28.1444
L18.9513 28.1190
" />
<path d="M18.9513 28.1190
L18.9259 28.0936
" />
</g></g>
<g style="fill:none; 
stroke:#AFAFAF; stroke-width:0.0212; stroke-opacity:1; 
stroke-linecap:round; stroke-linejoin:round;">
<path d="M18.0243 27.9000
L18.0243 27.9000
" />
<path d="M18.0243 27.9000 A0.8000 0.8000 0.0 0 0 19.6243 27.9000" />
<path d="M19.6243 27.9000
L19.6243 27.9000
" />
<path d="M19.6243 27.9000 A0.8000 0.8000 0.0 0 0 18.0243 27.9000" />
</g>
<g style="fill:none; 
stroke:#AFAFAF; stroke-width:0.0444; stroke-opacity:1; 
stroke-linecap:round; stroke-linejoin:round;">
<text x="19.3323" y="25.6267"
textLength="1.0425" font-size="0.7111" lengthAdjust="spacingAndGlyphs"
text-anchor="middle" opacity="0" stroke-opacity="0">16</text>
<g class="stroked-text"><desc>16</desc>
<path d="M19.2307 25.6044
L18.9260 25.6044
" />
<path d="M19.0784 25.6044
L19.0784 25.0711
" />
<path d="M19.0784 25.0711
L19.0276 25.1473
" />
<path d="M19.0276 25.1473
L18.9768 25.1981
" />
<path d="M18.9768 25.1981
L18.9260 25.2235
" />
<path d="M19.6879 25.0711
L19.5863 25.0711
" />
<path d="M19.5863 25.0711
L19.5355 25.0965
" />
<path d="M19.5355 25.0965
L19.5101 25.1219
" />
<path d="M19.5101 25.1219
L19.4593 25.1981
" />
<path d="M19.4593 25.1981
L19.4339 25.2997
" />
<path d="M19.4339 25.2997
L19.4339 25.5028
" />
<path d="M19.4339 25.5028
L19.4593 25.5536
" />
<path d="M19.4593 25.5536
L19.4847 25.5790
" />
<path d="M19.4847 25.5790
L19.5355 25.6044
" />
<path d="M19.5355 25.6044
L19.6371 25.6044
" />
<path d="M19.6371 25.6044
L19.6879 25.5790
" />
<path d="M19.6879 25.5790
L19.7133 25.5536
" />
<path d="M19.7133 25.5536
L19.7387 25.5028
" />
<path d="M19.7387 25.5028
L19.7387 25.3758
" />
<path d="M19.7387 25.3758
L19.7133 25.3251
" />
<path d="M19.7133 25.3251
L19.6879 25.2997
" />
<path d="M19.6879 25.2997
L19.6371 25.2743
" />
<path d="M19.6371 25.2743
L19.5355 25.2743
" />
<path d="M19.5355 25.2743
L19.4847 25.2997
" />
<path d="M19.4847 25.2997
L19.4593 25.3251
" />
<path d="M19.4593 25.3251
L19.4339 25.3758
" />
</g></g>
<g style="fill:none; 
stroke:#AFAFAF; stroke-width:0.0212; stroke-opacity:1; 
stroke-linecap:round; stroke-linejoin:round;">
<path d="M18.5323 25.3600
L18.5323 25.3600
" />
<path d="M18.5323 25.3600 A0.8000 0.8000 0.0 0 0 20.1323 25.3600" />
<path d="M20.1323 25.3600
L20.1323 25.3600
" />
<path d="M20.1323 25.3600 A0.8000 0.8000 0.0 0 0 18.5323 25.3600" />
</g>
<g style="fill:none; 
stroke:#AFAFAF; stroke-width:0.0444; stroke-opacity:1; 
stroke-linecap:round; stroke-linejoin:round;">
<text x="18.8243" y="23.0867"
textLength="1.0425" font-size="0.7111" lengthAdjust="spacingAndGlyphs"
text-anchor="middle" opacity="0" stroke-opacity="0">17</text>
<g class="stroked-text"><desc>17</desc>
<path d="M18.7227 23.0644
L18.4180 23.0644
" />
<path d="M18.5704 23.0644
L18.5704 22.5311
" />
<path d="M18.5704 22.5311
L18.5196 22.6073
" />
<path d="M18.5196 22.6073
L18.4688 22.6581
" />
<path d="M18.4688 22.6581
L18.4180 22.6835
" />
<path d="M18.9005 22.5311
L19.2561 22.5311
" />
<path d="M19.2561 22.5311
L19.0275 23.0644
" />
</g></g>
<g style="fill:none; 
stroke:#AFAFAF; stroke-width:0.0212; stroke-opacity:1; 
stroke-linecap:round; stroke-linejoin:round;">
<path d="M18.0243 22.8200
L18.0243 22.8200
" />
<path d="M18.0243 22.8200 A0.8000 0.8000 0.0 0 0 19.6243 22.8200" />
<path d="M19.6243 22.8200
L19.6243 22.8200
" />
<path d="M19.6243 22.8200 A0.8000 0.8000 0.0 0 0 18.0243 22.8200" />
</g>
<g style="fill:none; 
stroke:#AFAFAF; stroke-width:0.0444; stroke-opacity:1; 
stroke-linecap:round; stroke-linejoin:round;">
<text x="19.3323" y="20.5467"
textLength="1.0425" font-size="0.7111" lengthAdjust="spacingAndGlyphs"
text-anchor="middle" opacity="0" stroke-opacity="0">18</text>
<g class="stroked-text"><desc>18</desc>
<path d="M19.2307 20.5244
L18.9260 20.5244
" />
<path d="M19.0784 20.5244
L19.0784 19.9911
" />
<path d="M19.0784 19.9911
L19.0276 20.0673
" />
<path d="M19.0276 20.0673
L18.9768 20.1181
" />
<path d="M18.9768 20.1181
L18.9260 20.1435
" />
<path d="M19.5355 20.2197
L19.4847 20.1943
" />
<path d="M19.4847 20.1943
L19.4593 20.1689
" />
<path d="M19.4593 20.1689
L19.4339 20.1181
" />
<path d="M19.4339 20.1181
L19.4339 20.0927
" />
<path d="M19.4339 20.0927
L19.4593 20.0419
" />
<path d="M19.4593 20.0419
L19.4847 20.0165
" />
<path d="M19.4847 20.0165
L19.5355 19.9911
" />
<path d="M19.5355 19.9911
L19.6371 19.9911
" />
<path d="M19.6371 19.9911
L19.6879 20.0165
" />
<path d="M19.6879 20.0165
L19.7133 20.0419
" />
<path d="M19.7133 20.0419
L19.7387 20.0927
" />
<path d="M19.7387 20.0927
L19.7387 20.1181
" />
<path d="M19.7387 20.1181
L19.7133 20.1689
" />
<path d="M19.7133 20.1689
L19.6879 20.1943
" />
<path d="M19.6879 20.1943
L19.6371 20.2197
" />
<path d="M19.6371 20.2197
L19.5355 20.2197
" />
<path d="M19.5355 20.2197
L19.4847 20.2451
" />
<path d="M19.4847 20.2451
L19.4593 20.2705
" />
<path d="M19.4593 20.2705
L19.4339 20.3212
" />
<path d="M19.4339 20.3212
L19.4339 20.4228
" />
<path d="M19.4339 20.4228
L19.4593 20.4736
" />
<path d="M19.4593 20.4736
L19.4847 20.4990
" />
<path d="M19.4847 20.4990
L19.5355 20.5244
" />
<path d="M19.5355 20.5244
L19.6371 20.5244
" />
<path d="M19.6371 20.5244
L19.6879 20.4990
" />
<path d="M19.6879 20.4990
L19.7133 20.4736
" />
<path d="M19.7133 20.4736
L19.7387 20.4228
" />
<path d="M19.7387 20.4228
L19.7387 20.3212
" />
<path d="M19.7387 20.3212
L19.7133 20.2705
" />
<path d="M19.7133 20.2705
L19.6879 20.2451
" />
<path d="M19.6879 20.2451
L19.6371 20.2197
" />
</g></g>
<g style="fill:none; 
stroke:#AFAFAF; stroke-width:0.0212; stroke-opacity:1; 
stroke-linecap:round; stroke-linejoin:round;">
<path d="M18.5323 20.2800
L18.5323 20.2800
" />
<path d="M18.5323 20.2800 A0.8000 0.8000 0.0 0 0 20.1323 20.2800" />
<path d="M20.1323 20.2800
L20.1323 20.2800
" />
<path d="M20.1323 20.2800 A0.8000 0.8000 0.0 0 0 18.5323 20.2800" />
</g>
<g style="fill:none; 
stroke:#AFAFAF; stroke-width:0.0444; stroke-opacity:1; 
stroke-linecap:round; stroke-linejoin:round;">
<text x="18.8243" y="18.0067"
textLength="1.0425" font-size="0.7111" lengthAdjust="spacingAndGlyphs"
text-anchor="middle" opacity="0" stroke-opacity="0">19</text>
<g class="stroked-text"><desc>19</desc>
<path d="M18.7227 17.9844
L18.4180 17.9844
" />
<path d="M18.5704 17.9844
L18.5704 17.4511
" />
<path d="M18.5704 17.4511
L18.5196 17.5273
" />
<path d="M18.5196 17.5273
L18.4688 17.5781
" />
<path d="M18.4688 17.5781
L18.4180 17.6035
" />
<path d="M18.9767 17.9844
L19.0783 17.9844
" />
<path d="M19.0783 17.9844
L19.1291 17.9590
" />
<path d="M19.1291 17.9590
L19.1545 17.9336
" />
<path d="M19.1545 17.9336
L19.2053 17.8574
" />
<path d="M19.2053 17.8574
L19.2307 17.7558
" />
<path d="M19.2307 17.7558
L19.2307 17.5527
" />
<path d="M19.2307 17.5527
L19.2053 17.5019
" />
<path d="M19.2053 17.5019
L19.1799 17.4765
" />
<path d="M19.1799 17.4765
L19.1291 17.4511
" />
<path d="M19.1291 17.4511
L19.0275 17.4511
" />
<path d="M19.0275 17.4511
L18.9767 17.4765
" />
<path d="M18.9767 17.4765
L18.9513 17.5019
" />
<path d="M18.9513 17.5019
L18.9259 17.5527
" />
<path d="M18.9259 17.5527
L18.9259 17.6797
" />
<path d="M18.9259 17.6797
L18.9513 17.7304
" />
<path d="M18.9513 17.7304
L18.9767 17.7558
" />
<path d="M18.9767 17.7558
L19.0275 17.7812
" />
<path d="M19.0275 17.7812
L19.1291 17.7812
" />
<path d="M19.1291 17.7812
L19.1799 17.7558
" />
<path d="M19.1799 17.7558
L19.2053 17.7304
" />
<path d="M19.2053 17.7304
L19.2307 17.6797
" />
</g></g>
<g style="fill:none; 
stroke:#AFAFAF; stroke-width:0.0212; stroke-opacity:1; 
stroke-linecap:round; stroke-linejoin:round;">
<path d="M18.0243 17.7400
L18.0243 17.7400
" />
<path d="M18.0243 17.7400 A0.8000 0.8000 0.0 0 0 19.6243 17.7400" />
<path d="M19.6243 17.7400
L19.6243 17.7400
" />
<path d="M19.6243 17.7400 A0.8000 0.8000 0.0 0 0 18.0243 17.7400" />
</g>
<g style="fill:none; 
stroke:#AFAFAF; stroke-width:0.0444; stroke-opacity:1; 
stroke-linecap:round; stroke-linejoin:round;">
<text x="19.3323" y="15.4667"
textLength="1.0425" font-size="0.7111" lengthAdjust="spacingAndGlyphs"
text-anchor="middle" opacity="0" stroke-opacity="0">20</text>
<g class="stroked-text"><desc>20</desc>
<path d="M18.9260 14.9619
L18.9514 14.9365
" />
<path d="M18.9514 14.9365
L19.0022 14.9111
" />
<path d="M19.0022 14.9111
L19.1292 14.9111
" />
<path d="M19.1292 14.9111
L19.1800 14.9365
" />
<path d="M19.1800 14.9365
L19.2053 14.9619
" />
<path d="M19.2053 14.9619
L19.2307 15.0127
" />
<path d="M19.2307 15.0127
L19.2307 15.0635
" />
<path d="M19.2307 15.0635
L19.2053 15.1397
" />
<path d="M19.2053 15.1397
L18.9006 15.4444
" />
<path d="M18.9006 15.4444
L19.2307 15.4444
" />
<path d="M19.5609 14.9111
L19.6117 14.9111
" />
<path d="M19.6117 14.9111
L19.6625 14.9365
" />
<path d="M19.6625 14.9365
L19.6879 14.9619
" />
<path d="M19.6879 14.9619
L19.7133 15.0127
" />
<path d="M19.7133 15.0127
L19.7387 15.1143
" />
<path d="M19.7387 15.1143
L19.7387 15.2412
" />
<path d="M19.7387 15.2412
L19.7133 15.3428
" />
<path d="M19.7133 15.3428
L19.6879 15.3936
" />
<path d="M19.6879 15.3936
L19.6625 15.4190
" />
<path d="M19.6625 15.4190
L19.6117 15.4444
" />
<path d="M19.6117 15.4444
L19.5609 15.4444
" />
<path d="M19.5609 15.4444
L19.5101 15.4190
" />
<path d="M19.5101 15.4190
L19.4847 15.3936
" />
<path d="M19.4847 15.3936
L19.4593 15.3428
" />
<path d="M19.4593 15.3428
L19.4339 15.2412
" />
<path d="M19.4339 15.2412
L19.4339 15.1143
" />
<path d="M19.4339 15.1143
L19.4593 15.0127
" />
<path d="M19.4593 15.0127
L19.4847 14.9619
" />
<path d="M19.4847 14.9619
L19.5101 14.9365
" />
<path d="M19.5101 14.9365
L19.5609 14.9111
" />
</g></g>
<g style="fill:none; 
stroke:#AFAFAF; stroke-width:0.0212; stroke-opacity:1; 
stroke-linecap:round; stroke-linejoin:round;">
<path d="M18.5323 15.2000
L18.5323 15.2000
" />
<path d="M18.5323 15.2000 A0.8000 0.8000 0.0 0 0 20.1323 15.2000" />
<path d="M20.1323 15.2000
L20.1323 15.2000
" />
<path d="M20.1323 15.2000 A0.8000 0.8000 0.0 0 0 18.5323 15.2000" />
</g>
<g style="fill:none; 
stroke:#AFAFAF; stroke-width:0.0444; stroke-opacity:1; 
stroke-linecap:round; stroke-linejoin:round;">
<text x="18.8243" y="12.9267"
textLength="1.0425" font-size="0.7111" lengthAdjust="spacingAndGlyphs"
text-anchor="middle" opacity="0" stroke-opacity="0">21</text>
<g class="stroked-text"><desc>21</desc>
<path d="M18.4180 12.4219
L18.4434 12.3965
" />
<path d="M18.4434 12.3965
L18.4942 12.3711
" />
<path d="M18.4942 12.3711
L18.6212 12.3711
" />
<path d="M18.6212 12.3711
L18.6720 12.3965
" />
<path d="M18.6720 12.3965
L18.6974 12.4219
" />
<path d="M18.6974 12.4219
L18.7227 12.4727
" />
<path d="M18.7227 12.4727
L18.7227 12.5235
" />
<path d="M18.7227 12.5235
L18.6974 12.5997
" />
<path d="M18.6974 12.5997
L18.3926 12.9044
" />
<path d="M18.3926 12.9044
L18.7227 12.9044
" />
<path d="M19.2307 12.9044
L18.9259 12.9044
" />
<path d="M19.0783 12.9044
L19.0783 12.3711
" />
<path d="M19.0783 12.3711
L19.0275 12.4473
" />
<path d="M19.0275 12.4473
L18.9767 12.4981
" />
<path d="M18.9767 12.4981
L18.9259 12.5235
" />
</g></g>
<g style="fill:none; 
stroke:#AFAFAF; stroke-width:0.0212; stroke-opacity:1; 
stroke-linecap:round; stroke-linejoin:round;">
<path d="M18.0243 12.6600
L18.0243 12.6600
" />
<path d="M18.0243 12.6600 A0.8000 0.8000 0.0 0 0 19.6243 12.6600" />
<path d="M19.6243 12.6600
L19.6243 12.6600
" />
<path d="M19.6243 12.6600 A0.8000 0.8000 0.0 0 0 18.0243 12.6600" />
</g>
<g style="fill:none; 
stroke:#AFAFAF; stroke-width:0.0444; stroke-opacity:1; 
stroke-linecap:round; stroke-linejoin:round;">
<text x="19.3323" y="10.3867"
textLength="1.0425" font-size="0.7111" lengthAdjust="spacingAndGlyphs"
text-anchor="middle" opacity="0" stroke-opacity="0">22</text>
<g class="stroked-text"><desc>22</desc>
<path d="M18.9260 9.8819
L18.9514 9.8565
" />
<path d="M18.9514 9.8565
L19.0022 9.8311
" />
<path d="M19.0022 9.8311
L19.1292 9.8311
" />
<path d="M19.1292 9.8311
L19.1800 9.8565
" />
<path d="M19.1800 9.8565
L19.2053 9.8819
" />
<path d="M19.2053 9.8819
L19.2307 9.9327
" />
<path d="M19.2307 9.9327
L19.2307 9.9835
" />
<path d="M19.2307 9.9835
L19.2053 10.0597
" />
<path d="M19.2053 10.0597
L18.9006 10.3644
" />
<path d="M18.9006 10.3644
L19.2307 10.3644
" />
<path d="M19.4339 9.8819
L19.4593 9.8565
" />
<path d="M19.4593 9.8565
L19.5101 9.8311
" />
<path d="M19.5101 9.8311
L19.6371 9.8311
" />
<path d="M19.6371 9.8311
L19.6879 9.8565
" />
<path d="M19.6879 9.8565
L19.7133 9.8819
" />
<path d="M19.7133 9.8819
L19.7387 9.9327
" />
<path d="M19.7387 9.9327
L19.7387 9.9835
" />
<path d="M19.7387 9.9835
L19.7133 10.0597
" />
<path d="M19.7133 10.0597
L19.4085 10.3644
" />
<path d="M19.4085 10.3644
L19.7387 10.3644
" />
</g></g>
<g style="fill:none; 
stroke:#AFAFAF; stroke-width:0.0212; stroke-opacity:1; 
stroke-linecap:round; stroke-linejoin:round;">
<path d="M18.5323 10.1200
L18.5323 10.1200
" />
<path d="M18.5323 10.1200 A0.8000 0.8000 0.0 0 0 20.1323 10.1200" />
<path d="M20.1323 10.1200
L20.1323 10.1200
" />
<path d="M20.1323 10.1200 A0.8000 0.8000 0.0 0 0 18.5323 10.1200" />
</g>
<g style="fill:none; 
stroke:#AFAFAF; stroke-width:0.0444; stroke-opacity:1; 
stroke-linecap:round; stroke-linejoin:round;">
<text x="18.8243" y="7.8467"
textLength="1.0425" font-size="0.7111" lengthAdjust="spacingAndGlyphs"
text-anchor="middle" opacity="0" stroke-opacity="0">23</text>
<g class="stroked-text"><desc>23</desc>
<path d="M18.4180 7.3419
L18.4434 7.3165
" />
<path d="M18.4434 7.3165
L18.4942 7.2911
" />
<path d="M18.4942 7.2911
L18.6212 7.2911
" />
<path d="M18.6212 7.2911
L18.6720 7.3165
" />
<path d="M18.6720 7.3165
L18.6974 7.3419
" />
<path d="M18.6974 7.3419
L18.7227 7.3927
" />
<path d="M18.7227 7.3927
L18.7227 7.4435
" />
<path d="M18.7227 7.4435
L18.6974 7.5197
" />
<path d="M18.6974 7.5197
L18.3926 7.8244
" />
<path d="M18.3926 7.8244
L18.7227 7.8244
" />
<path d="M18.9005 7.2911
L19.2307 7.2911
" />
<path d="M19.2307 7.2911
L19.0529 7.4943
" />
<path d="M19.0529 7.4943
L19.1291 7.4943
" />
<path d="M19.1291 7.4943
L19.1799 7.5197
" />
<path d="M19.1799 7.5197
L19.2053 7.5451
" />
<path d="M19.2053 7.5451
L19.2307 7.5958
" />
<path d="M19.2307 7.5958
L19.2307 7.7228
" />
<path d="M19.2307 7.7228
L19.2053 7.7736
" />
<path d="M19.2053 7.7736
L19.1799 7.7990
" />
<path d="M19.1799 7.7990
L19.1291 7.8244
" />
<path d="M19.1291 7.8244
L18.9767 7.8244
" />
<path d="M18.9767 7.8244
L18.9259 7.7990
" />
<path d="M18.9259 7.7990
L18.9005 7.7736
" />
</g></g>
<g style="fill:none; 
stroke:#AFAFAF; stroke-width:0.0212; stroke-opacity:1; 
stroke-linecap:round; stroke-linejoin:round;">
<path d="M18.0243 7.5800
L18.0243 7.5800
" />
<path d="M18.0243 7.5800 A0.8000 0.8000 0.0 0 0 19.6243 7.5800" />
<path d="M19.6243 7.5800
L19.6243 7.5800
" />
<path d="M19.6243 7.5800 A0.8000 0.8000 0.0 0 0 18.0243 7.5800" />
</g>
<g style="fill:none; 
stroke:#AFAFAF; stroke-width:0.0444; stroke-opacity:1; 
stroke-linecap:round; stroke-linejoin:round;">
<text x="19.3323" y="5.3067"
textLength="1.0425" font-size="0.7111" lengthAdjust="spacingAndGlyphs"
text-anchor="middle" opacity="0" stroke-opacity="0">24</text>
<g class="stroked-text"><desc>24</desc>
<path d="M18.9260 4.8019
L18.9514 4.7765
" />
<path d="M18.9514 4.7765
L19.0022 4.7511
" />
<path d="M19.0022 4.7511
L19.1292 4.7511
" />
<path d="M19.1292 4.7511
L19.1800 4.7765
" />
<path d="M19.1800 4.7765
L19.2053 4.8019
" />
<path d="M19.2053 4.8019
L19.2307 4.8527
" />
<path d="M19.2307 4.8527
L19.2307 4.9035
" />
<path d="M19.2307 4.9035
L19.2053 4.9797
" />
<path d="M19.2053 4.9797
L18.9006 5.2844
" />
<path d="M18.9006 5.2844
L19.2307 5.2844
" />
<path d="M19.6879 4.9289
L19.6879 5.2844
" />
<path d="M19.5609 4.7257
L19.4339 5.1066
" />
<path d="M19.4339 5.1066
L19.7641 5.1066
" />
</g></g>
<g style="fill:none; 
stroke:#AFAFAF; stroke-width:0.0212; stroke-opacity:1; 
stroke-linecap:round; stroke-linejoin:round;">
<path d="M18.5323 5.0400
L18.5323 5.0400
" />
<path d="M18.5323 5.0400 A0.8000 0.8000 0.0 0 0 20.1323 5.0400" />
<path d="M20.1323 5.0400
L20.1323 5.0400
" />
<path d="M20.1323 5.0400 A0.8000 0.8000 0.0 0 0 18.5323 5.0400" />
</g>
<g style="fill:none; 
stroke:#585D84; stroke-width:0.0444; stroke-opacity:1; 
stroke-linecap:round; stroke-linejoin:round;">
<text x="3.5843" y="5.3067"
textLength="0.5346" font-size="0.7111" lengthAdjust="spacingAndGlyphs"
text-anchor="middle" opacity="0" stroke-opacity="0">1</text>
<g class="stroked-text"><desc>1</desc>
<path d="M3.7367 5.2844
L3.4320 5.2844
" />
<path d="M3.5843 5.2844
L3.5843 4.7511
" />
<path d="M3.5843 4.7511
L3.5335 4.8273
" />
<path d="M3.5335 4.8273
L3.4827 4.8781
" />
<path d="M3.4827 4.8781
L3.4320 4.9035
" />
</g><path style="fill:none; 
stroke:#585D84; stroke-width:0.0212; stroke-opacity:1; 
stroke-linecap:round; stroke-linejoin:round;fill:none"
d="M 2.7843,4.4800
2.8026,4.3882
2.8546,4.3103
2.9325,4.2583
3.0243,4.2400
4.1443,4.2400
4.2362,4.2583
4.3140,4.3103
4.3661,4.3882
4.3843,4.4800
4.3843,5.6000
4.3661,5.6918
4.3140,5.7697
4.2362,5.8217
4.1443,5.8400
3.0243,5.8400
2.9325,5.8217
2.8546,5.7697
2.8026,5.6918
2.7843,5.6000
Z" /> 
</g>
<g style="fill:none; 
stroke:#585D84; stroke-width:0.0444; stroke-opacity:1; 
stroke-linecap:round; stroke-linejoin:round;">
<text x="4.0923" y="7.8467"
textLength="0.5346" font-size="0.7111" lengthAdjust="spacingAndGlyphs"
text-anchor="middle" opacity="0" stroke-opacity="0">2</text>
<g class="stroked-text"><desc>2</desc>
<path d="M3.9400 7.3419
L3.9654 7.3165
" />
<path d="M3.9654 7.3165
L4.0161 7.2911
" />
<path d="M4.0161 7.2911
L4.1431 7.2911
" />
<path d="M4.1431 7.2911
L4.1939 7.3165
" />
<path d="M4.1939 7.3165
L4.2193 7.3419
" />
<path d="M4.2193 7.3419
L4.2447 7.3927
" />
<path d="M4.2447 7.3927
L4.2447 7.4435
" />
<path d="M4.2447 7.4435
L4.2193 7.5197
" />
<path d="M4.2193 7.5197
L3.9146 7.8244
" />
<path d="M3.9146 7.8244
L4.2447 7.8244
" />
</g></g>
<g style="fill:none; 
stroke:#585D84; stroke-width:0.0212; stroke-opacity:1; 
stroke-linecap:round; stroke-linejoin:round;">
<path d="M3.2923 7.5800
L3.2923 7.5800
" />
<path d="M3.2923 7.5800 A0.8000 0.8000 0.0 0 0 4.8923 7.5800" />
<path d="M4.8923 7.5800
L4.8923 7.5800
" />
<path d="M4.8923 7.5800 A0.8000 0.8000 0.0 0 0 3.2923 7.5800" />
</g>
<g style="fill:none; 
stroke:#585D84; stroke-width:0.0444; stroke-opacity:1; 
stroke-linecap:round; stroke-linejoin:round;">
<text x="3.5843" y="10.3867"
textLength="0.5346" font-size="0.7111" lengthAdjust="spacingAndGlyphs"
text-anchor="middle" opacity="0" stroke-opacity="0">3</text>
<g class="stroked-text"><desc>3</desc>
<path d="M3.4066 9.8311
L3.7367 9.8311
" />
<path d="M3.7367 9.8311
L3.5589 10.0343
" />
<path d="M3.5589 10.0343
L3.6351 10.0343
" />
<path d="M3.6351 10.0343
L3.6859 10.0597
" />
<path d="M3.6859 10.0597
L3.7113 10.0851
" />
<path d="M3.7113 10.0851
L3.7367 10.1358
" />
<path d="M3.7367 10.1358
L3.7367 10.2628
" />
<path d="M3.7367 10.2628
L3.7113 10.3136
" />
<path d="M3.7113 10.3136
L3.6859 10.3390
" />
<path d="M3.6859 10.3390
L3.6351 10.3644
" />
<path d="M3.6351 10.3644
L3.4827 10.3644
" />
<path d="M3.4827 10.3644
L3.4320 10.3390
" />
<path d="M3.4320 10.3390
L3.4066 10.3136
" />
</g></g>
<g style="fill:none; 
stroke:#585D84; stroke-width:0.0212; stroke-opacity:1; 
stroke-linecap:round; stroke-linejoin:round;">
<path d="M2.7843 10.1200
L2.7843 10.1200
" />
<path d="M2.7843 10.1200 A0.8000 0.8000 0.0 0 0 4.3843 10.1200" />
<path d="M4.3843 10.1200
L4.3843 10.1200
" />
<path d="M4.3843 10.1200 A0.8000 0.8000 0.0 0 0 2.7843 10.1200" />
</g>
<g style="fill:none; 
stroke:#585D84; stroke-width:0.0444; stroke-opacity:1; 
stroke-linecap:round; stroke-linejoin:round;">
<text x="4.0923" y="12.9267"
textLength="0.5346" font-size="0.7111" lengthAdjust="spacingAndGlyphs"
text-anchor="middle" opacity="0" stroke-opacity="0">4</text>
<g class="stroked-text"><desc>4</desc>
<path d="M4.1939 12.5489
L4.1939 12.9044
" />
<path d="M4.0669 12.3457
L3.9400 12.7266
" />
<path d="M3.9400 12.7266
L4.2701 12.7266
" />
</g></g>
<g style="fill:none; 
stroke:#585D84; stroke-width:0.0212; stroke-opacity:1; 
stroke-linecap:round; stroke-linejoin:round;">
<path d="M3.2923 12.6600
L3.2923 12.6600
" />
<path d="M3.2923 12.6600 A0.8000 0.8000 0.0 0 0 4.8923 12.6600" />
<path d="M4.8923 12.6600
L4.8923 12.6600
" />
<path d="M4.8923 12.6600 A0.8000 0.8000 0.0 0 0 3.2923 12.6600" />
</g>
<g style="fill:none; 
stroke:#585D84; stroke-width:0.0444; stroke-opacity:1; 
stroke-linecap:round; stroke-linejoin:round;">
<text x="3.5843" y="15.4667"
textLength="0.5346" font-size="0.7111" lengthAdjust="spacingAndGlyphs"
text-anchor="middle" opacity="0" stroke-opacity="0">5</text>
<g class="stroked-text"><desc>5</desc>
<path d="M3.7113 14.9111
L3.4574 14.9111
" />
<path d="M3.4574 14.9111
L3.4320 15.1651
" />
<path d="M3.4320 15.1651
L3.4574 15.1397
" />
<path d="M3.4574 15.1397
L3.5081 15.1143
" />
<path d="M3.5081 15.1143
L3.6351 15.1143
" />
<path d="M3.6351 15.1143
L3.6859 15.1397
" />
<path d="M3.6859 15.1397
L3.7113 15.1651
" />
<path d="M3.7113 15.1651
L3.7367 15.2158
" />
<path d="M3.7367 15.2158
L3.7367 15.3428
" />
<path d="M3.7367 15.3428
L3.7113 15.3936
" />
<path d="M3.7113 15.3936
L3.6859 15.4190
" />
<path d="M3.6859 15.4190
L3.6351 15.4444
" />
<path d="M3.6351 15.4444
L3.5081 15.4444
" />
<path d="M3.5081 15.4444
L3.4574 15.4190
" />
<path d="M3.4574 15.4190
L3.4320 15.3936
" />
</g></g>
<g style="fill:none; 
stroke:#585D84; stroke-width:0.0212; stroke-opacity:1; 
stroke-linecap:round; stroke-linejoin:round;">
<path d="M2.7843 15.2000
L2.7843 15.2000
" />
<path d="M2.7843 15.2000 A0.8000 0.8000 0.0 0 0 4.3843 15.2000" />
<path d="M4.3843 15.2000
L4.3843 15.2000
" />
<path d="M4.3843 15.2000 A0.8000 0.8000 0.0 0 0 2.7843 15.2000" />
</g>
<g style="fill:none; 
stroke:#585D84; stroke-width:0.0444; stroke-opacity:1; 
stroke-linecap:round; stroke-linejoin:round;">
<text x="4.0923" y="18.0067"
textLength="0.5346" font-size="0.7111" lengthAdjust="spacingAndGlyphs"
text-anchor="middle" opacity="0" stroke-opacity="0">6</text>
<g class="stroked-text"><desc>6</desc>
<path d="M4.1939 17.4511
L4.0923 17.4511
" />
<path d="M4.0923 17.4511
L4.0415 17.4765
" />
<path d="M4.0415 17.4765
L4.0161 17.5019
" />
<path d="M4.0161 17.5019
L3.9654 17.5781
" />
<path d="M3.9654 17.5781
L3.9400 17.6797
" />
<path d="M3.9400 17.6797
L3.9400 17.8828
" />
<path d="M3.9400 17.8828
L3.9654 17.9336
" />
<path d="M3.9654 17.9336
L3.9907 17.9590
" />
<path d="M3.9907 17.9590
L4.0415 17.9844
" />
<path d="M4.0415 17.9844
L4.1431 17.9844
" />
<path d="M4.1431 17.9844
L4.1939 17.9590
" />
<path d="M4.1939 17.9590
L4.2193 17.9336
" />
<path d="M4.2193 17.9336
L4.2447 17.8828
" />
<path d="M4.2447 17.8828
L4.2447 17.7558
" />
<path d="M4.2447 17.7558
L4.2193 17.7051
" />
<path d="M4.2193 17.7051
L4.1939 17.6797
" />
<path d="M4.1939 17.6797
L4.1431 17.6543
" />
<path d="M4.1431 17.6543
L4.0415 17.6543
" />
<path d="M4.0415 17.6543
L3.9907 17.6797
" />
<path d="M3.9907 17.6797
L3.9654 17.7051
" />
<path d="M3.9654 17.7051
L3.9400 17.7558
" />
</g></g>
<g style="fill:none; 
stroke:#585D84; stroke-width:0.0212; stroke-opacity:1; 
stroke-linecap:round; stroke-linejoin:round;">
<path d="M3.2923 17.7400
L3.2923 17.7400
" />
<path d="M3.2923 17.7400 A0.8000 0.8000 0.0 0 0 4.8923 17.7400" />
<path d="M4.8923 17.7400
L4.8923 17.7400
" />
<path d="M4.8923 17.7400 A0.8000 0.8000 0.0 0 0 3.2923 17.7400" />
</g>
<g style="fill:none; 
stroke:#585D84; stroke-width:0.0444; stroke-opacity:1; 
stroke-linecap:round; stroke-linejoin:round;">
<text x="3.5843" y="20.5467"
textLength="0.5346" font-size="0.7111" lengthAdjust="spacingAndGlyphs"
text-anchor="middle" opacity="0" stroke-opacity="0">7</text>
<g class="stroked-text"><desc>7</desc>
<path d="M3.4066 19.9911
L3.7621 19.9911
" />
<path d="M3.7621 19.9911
L3.5335 20.5244
" />
</g></g>
<g style="fill:none; 
stroke:#585D84; stroke-width:0.0212; stroke-opacity:1; 
stroke-linecap:round; stroke-linejoin:round;">
<path d="M2.7843 20.2800
L2.7843 20.2800
" />
<path d="M2.7843 20.2800 A0.8000 0.8000 0.0 0 0 4.3843 20.2800" />
<path d="M4.3843 20.2800
L4.3843 20.2800
" />
<path d="M4.3843 20.2800 A0.8000 0.8000 0.0 0 0 2.7843 20.2800" />
</g>
<g style="fill:none; 
stroke:#585D84; stroke-width:0.0444; stroke-opacity:1; 
stroke-linecap:round; stroke-linejoin:round;">
<text x="4.0923" y="23.0867"
textLength="0.5346" font-size="0.7111" lengthAdjust="spacingAndGlyphs"
text-anchor="middle" opacity="0" stroke-opacity="0">8</text>
<g class="stroked-text"><desc>8</desc>
<path d="M4.0415 22.7597
L3.9907 22.7343
" />
<path d="M3.9907 22.7343
L3.9654 22.7089
" />
<path d="M3.9654 22.7089
L3.9400 22.6581
" />
<path d="M3.9400 22.6581
L3.9400 22.6327
" />
<path d="M3.9400 22.6327
L3.9654 22.5819
" />
<path d="M3.9654 22.5819
L3.9907 22.5565
" />
<path d="M3.9907 22.5565
L4.0415 22.5311
" />
<path d="M4.0415 22.5311
L4.1431 22.5311
" />
<path d="M4.1431 22.5311
L4.1939 22.5565
" />
<path d="M4.1939 22.5565
L4.2193 22.5819
" />
<path d="M4.2193 22.5819
L4.2447 22.6327
" />
<path d="M4.2447 22.6327
L4.2447 22.6581
" />
<path d="M4.2447 22.6581
L4.2193 22.7089
" />
<path d="M4.2193 22.7089
L4.1939 22.7343
" />
<path d="M4.1939 22.7343
L4.1431 22.7597
" />
<path d="M4.1431 22.7597
L4.0415 22.7597
" />
<path d="M4.0415 22.7597
L3.9907 22.7851
" />
<path d="M3.9907 22.7851
L3.9654 22.8104
" />
<path d="M3.9654 22.8104
L3.9400 22.8612
" />
<path d="M3.9400 22.8612
L3.9400 22.9628
" />
<path d="M3.9400 22.9628
L3.9654 23.0136
" />
<path d="M3.9654 23.0136
L3.9907 23.0390
" />
<path d="M3.9907 23.0390
L4.0415 23.0644
" />
<path d="M4.0415 23.0644
L4.1431 23.0644
" />
<path d="M4.1431 23.0644
L4.1939 23.0390
" />
<path d="M4.1939 23.0390
L4.2193 23.0136
" />
<path d="M4.2193 23.0136
L4.2447 22.9628
" />
<path d="M4.2447 22.9628
L4.2447 22.8612
" />
<path d="M4.2447 22.8612
L4.2193 22.8104
" />
<path d="M4.2193 22.8104
L4.1939 22.7851
" />
<path d="M4.1939 22.7851
L4.1431 22.7597
" />
</g></g>
<g style="fill:none; 
stroke:#585D84; stroke-width:0.0212; stroke-opacity:1; 
stroke-linecap:round; stroke-linejoin:round;">
<path d="M3.2923 22.8200
L3.2923 22.8200
" />
<path d="M3.2923 22.8200 A0.8000 0.8000 0.0 0 0 4.8923 22.8200" />
<path d="M4.8923 22.8200
L4.8923 22.8200
" />
<path d="M4.8923 22.8200 A0.8000 0.8000 0.0 0 0 3.2923 22.8200" />
</g>
<g style="fill:none; 
stroke:#585D84; stroke-width:0.0444; stroke-opacity:1; 
stroke-linecap:round; stroke-linejoin:round;">
<text x="3.5843" y="25.6267"
textLength="0.5346" font-size="0.7111" lengthAdjust="spacingAndGlyphs"
text-anchor="middle" opacity="0" stroke-opacity="0">9</text>
<g class="stroked-text"><desc>9</desc>
<path d="M3.4827 25.6044
L3.5843 25.6044
" />
<path d="M3.5843 25.6044
L3.6351 25.5790
" />
<path d="M3.6351 25.5790
L3.6605 25.5536
" />
<path d="M3.6605 25.5536
L3.7113 25.4774
" />
<path d="M3.7113 25.4774
L3.7367 25.3758
" />
<path d="M3.7367 25.3758
L3.7367 25.1727
" />
<path d="M3.7367 25.1727
L3.7113 25.1219
" />
<path d="M3.7113 25.1219
L3.6859 25.0965
" />
<path d="M3.6859 25.0965
L3.6351 25.0711
" />
<path d="M3.6351 25.0711
L3.5335 25.0711
" />
<path d="M3.5335 25.0711
L3.4827 25.0965
" />
<path d="M3.4827 25.0965
L3.4574 25.1219
" />
<path d="M3.4574 25.1219
L3.4320 25.1727
" />
<path d="M3.4320 25.1727
L3.4320 25.2997
" />
<path d="M3.4320 25.2997
L3.4574 25.3504
" />
<path d="M3.4574 25.3504
L3.4827 25.3758
" />
<path d="M3.4827 25.3758
L3.5335 25.4012
" />
<path d="M3.5335 25.4012
L3.6351 25.4012
" />
<path d="M3.6351 25.4012
L3.6859 25.3758
" />
<path d="M3.6859 25.3758
L3.7113 25.3504
" />
<path d="M3.7113 25.3504
L3.7367 25.2997
" />
</g></g>
<g style="fill:none; 
stroke:#585D84; stroke-width:0.0212; stroke-opacity:1; 
stroke-linecap:round; stroke-linejoin:round;">
<path d="M2.7843 25.3600
L2.7843 25.3600
" />
<path d="M2.7843 25.3600 A0.8000 0.8000 0.0 0 0 4.3843 25.3600" />
<path d="M4.3843 25.3600
L4.3843 25.3600
" />
<path d="M4.3843 25.3600 A0.8000 0.8000 0.0 0 0 2.7843 25.3600" />
</g>
<g style="fill:none; 
stroke:#585D84; stroke-width:0.0444; stroke-opacity:1; 
stroke-linecap:round; stroke-linejoin:round;">
<text x="4.0923" y="28.1667"
textLength="1.0425" font-size="0.7111" lengthAdjust="spacingAndGlyphs"
text-anchor="middle" opacity="0" stroke-opacity="0">10</text>
<g class="stroked-text"><desc>10</desc>
<path d="M3.9907 28.1444
L3.6860 28.1444
" />
<path d="M3.8384 28.1444
L3.8384 27.6111
" />
<path d="M3.8384 27.6111
L3.7876 27.6873
" />
<path d="M3.7876 27.6873
L3.7368 27.7381
" />
<path d="M3.7368 27.7381
L3.6860 27.7635
" />
<path d="M4.3209 27.6111
L4.3717 27.6111
" />
<path d="M4.3717 27.6111
L4.4225 27.6365
" />
<path d="M4.4225 27.6365
L4.4479 27.6619
" />
<path d="M4.4479 27.6619
L4.4733 27.7127
" />
<path d="M4.4733 27.7127
L4.4987 27.8143
" />
<path d="M4.4987 27.8143
L4.4987 27.9412
" />
<path d="M4.4987 27.9412
L4.4733 28.0428
" />
<path d="M4.4733 28.0428
L4.4479 28.0936
" />
<path d="M4.4479 28.0936
L4.4225 28.1190
" />
<path d="M4.4225 28.1190
L4.3717 28.1444
" />
<path d="M4.3717 28.1444
L4.3209 28.1444
" />
<path d="M4.3209 28.1444
L4.2701 28.1190
" />
<path d="M4.2701 28.1190
L4.2447 28.0936
" />
<path d="M4.2447 28.0936
L4.2193 28.0428
" />
<path d="M4.2193 28.0428
L4.1939 27.9412
" />
<path d="M4.1939 27.9412
L4.1939 27.8143
" />
<path d="M4.1939 27.8143
L4.2193 27.7127
" />
<path d="M4.2193 27.7127
L4.2447 27.6619
" />
<path d="M4.2447 27.6619
L4.2701 27.6365
" />
<path d="M4.2701 27.6365
L4.3209 27.6111
" />
</g></g>
<g style="fill:none; 
stroke:#585D84; stroke-width:0.0212; stroke-opacity:1; 
stroke-linecap:round; stroke-linejoin:round;">
<path d="M3.2923 27.9000
L3.2923 27.9000
" />
<path d="M3.2923 27.9000 A0.8000 0.8000 0.0 0 0 4.8923 27.9000" />
<path d="M4.8923 27.9000
L4.8923 27.9000
" />
<path d="M4.8923 27.9000 A0.8000 0.8000 0.0 0 0 3.2923 27.9000" />
</g>
<g style="fill:none; 
stroke:#585D84; stroke-width:0.0444; stroke-opacity:1; 
stroke-linecap:round; stroke-linejoin:round;">
<text x="3.5843" y="30.7067"
textLength="1.0425" font-size="0.7111" lengthAdjust="spacingAndGlyphs"
text-anchor="middle" opacity="0" stroke-opacity="0">11</text>
<g class="stroked-text"><desc>11</desc>
<path d="M3.4827 30.6844
L3.1780 30.6844
" />
<path d="M3.3304 30.6844
L3.3304 30.1511
" />
<path d="M3.3304 30.1511
L3.2796 30.2273
" />
<path d="M3.2796 30.2273
L3.2288 30.2781
" />
<path d="M3.2288 30.2781
L3.1780 30.3035
" />
<path d="M3.9907 30.6844
L3.6859 30.6844
" />
<path d="M3.8383 30.6844
L3.8383 30.1511
" />
<path d="M3.8383 30.1511
L3.7875 30.2273
" />
<path d="M3.7875 30.2273
L3.7367 30.2781
" />
<path d="M3.7367 30.2781
L3.6859 30.3035
" />
</g></g>
<g style="fill:none; 
stroke:#585D84; stroke-width:0.0212; stroke-opacity:1; 
stroke-linecap:round; stroke-linejoin:round;">
<path d="M2.7843 30.4400
L2.7843 30.4400
" />
<path d="M2.7843 30.4400 A0.8000 0.8000 0.0 0 0 4.3843 30.4400" />
<path d="M4.3843 30.4400
L4.3843 30.4400
" />
<path d="M4.3843 30.4400 A0.8000 0.8000 0.0 0 0 2.7843 30.4400" />
</g>
<g style="fill:none; 
stroke:#585D84; stroke-width:0.0444; stroke-opacity:1; 
stroke-linecap:round; stroke-linejoin:round;">
<text x="4.0923" y="33.2467"
textLength="1.0425" font-size="0.7111" lengthAdjust="spacingAndGlyphs"
text-anchor="middle" opacity="0" stroke-opacity="0">12</text>
<g class="stroked-text"><desc>12</desc>
<path d="M3.9907 33.2244
L3.6860 33.2244
" />
<path d="M3.8384 33.2244
L3.8384 32.6911
" />
<path d="M3.8384 32.6911
L3.7876 32.7673
" />
<path d="M3.7876 32.7673
L3.7368 32.8181
" />
<path d="M3.7368 32.8181
L3.6860 32.8435
" />
<path d="M4.1939 32.7419
L4.2193 32.7165
" />
<path d="M4.2193 32.7165
L4.2701 32.6911
" />
<path d="M4.2701 32.6911
L4.3971 32.6911
" />
<path d="M4.3971 32.6911
L4.4479 32.7165
" />
<path d="M4.4479 32.7165
L4.4733 32.7419
" />
<path d="M4.4733 32.7419
L4.4987 32.7927
" />
<path d="M4.4987 32.7927
L4.4987 32.8435
" />
<path d="M4.4987 32.8435
L4.4733 32.9197
" />
<path d="M4.4733 32.9197
L4.1685 33.2244
" />
<path d="M4.1685 33.2244
L4.4987 33.2244
" />
</g></g>
<g style="fill:none; 
stroke:#585D84; stroke-width:0.0212; stroke-opacity:1; 
stroke-linecap:round; stroke-linejoin:round;">
<path d="M3.2923 32.9800
L3.2923 32.9800
" />
<path d="M3.2923 32.9800 A0.8000 0.8000 0.0 0 0 4.8923 32.9800" />
<path d="M4.8923 32.9800
L4.8923 32.9800
" />
<path d="M4.8923 32.9800 A0.8000 0.8000 0.0 0 0 3.2923 32.9800" />
</g>
<g style="fill:none; 
stroke:#585D84; stroke-width:0.0444; stroke-opacity:1; 
stroke-linecap:round; stroke-linejoin:round;">
<text x="18.8243" y="33.2467"
textLength="1.0425" font-size="0.7111" lengthAdjust="spacingAndGlyphs"
text-anchor="middle" opacity="0" stroke-opacity="0">13</text>
<g class="stroked-text"><desc>13</desc>
<path d="M18.7227 33.2244
L18.4180 33.2244
" />
<path d="M18.5704 33.2244
L18.5704 32.6911
" />
<path d="M18.5704 32.6911
L18.5196 32.7673
" />
<path d="M18.5196 32.7673
L18.4688 32.8181
" />
<path d="M18.4688 32.8181
L18.4180 32.8435
" />
<path d="M18.9005 32.6911
L19.2307 32.6911
" />
<path d="M19.2307 32.6911
L19.0529 32.8943
" />
<path d="M19.0529 32.8943
L19.1291 32.8943
" />
<path d="M19.1291 32.8943
L19.1799 32.9197
" />
<path d="M19.1799 32.9197
L19.2053 32.9451
" />
<path d="M19.2053 32.9451
L19.2307 32.9958
" />
<path d="M19.2307 32.9958
L19.2307 33.1228
" />
<path d="M19.2307 33.1228
L19.2053 33.1736
" />
<path d="M19.2053 33.1736
L19.1799 33.1990
" />
<path d="M19.1799 33.1990
L19.1291 33.2244
" />
<path d="M19.1291 33.2244
L18.9767 33.2244
" />
<path d="M18.9767 33.2244
L18.9259 33.1990
" />
<path d="M18.9259 33.1990
L18.9005 33.1736
" />
</g></g>
<g style="fill:none; 
stroke:#585D84; stroke-width:0.0212; stroke-opacity:1; 
stroke-linecap:round; stroke-linejoin:round;">
<path d="M18.0243 32.9800
L18.0243 32.9800
" />
<path d="M18.0243 32.9800 A0.8000 0.8000 0.0 0 0 19.6243 32.9800" />
<path d="M19.6243 32.9800
L19.6243 32.9800
" />
<path d="M19.6243 32.9800 A0.8000 0.8000 0.0 0 0 18.0243 32.9800" />
</g>
<g style="fill:none; 
stroke:#585D84; stroke-width:0.0444; stroke-opacity:1; 
stroke-linecap:round; stroke-linejoin:round;">
<text x="19.3323" y="30.7067"
textLength="1.0425" font-size="0.7111" lengthAdjust="spacingAndGlyphs"
text-anchor="middle" opacity="0" stroke-opacity="0">14</text>
<g class="stroked-text"><desc>14</desc>
<path d="M19.2307 30.6844
L18.9260 30.6844
" />
<path d="M19.0784 30.6844
L19.0784 30.1511
" />
<path d="M19.0784 30.1511
L19.0276 30.2273
" />
<path d="M19.0276 30.2273
L18.9768 30.2781
" />
<path d="M18.9768 30.2781
L18.9260 30.3035
" />
<path d="M19.6879 30.3289
L19.6879 30.6844
" />
<path d="M19.5609 30.1257
L19.4339 30.5066
" />
<path d="M19.4339 30.5066
L19.7641 30.5066
" />
</g></g>
<g style="fill:none; 
stroke:#585D84; stroke-width:0.0212; stroke-opacity:1; 
stroke-linecap:round; stroke-linejoin:round;">
<path d="M18.5323 30.4400
L18.5323 30.4400
" />
<path d="M18.5323 30.4400 A0.8000 0.8000 0.0 0 0 20.1323 30.4400" />
<path d="M20.1323 30.4400
L20.1323 30.4400
" />
<path d="M20.1323 30.4400 A0.8000 0.8000 0.0 0 0 18.5323 30.4400" />
</g>
<g style="fill:none; 
stroke:#585D84; stroke-width:0.0444; stroke-opacity:1; 
stroke-linecap:round; stroke-linejoin:round;">
<text x="18.8243" y="28.1667"
textLength="1.0425" font-size="0.7111" lengthAdjust="spacingAndGlyphs"
text-anchor="middle" opacity="0" stroke-opacity="0">15</text>
<g class="stroked-text"><desc>15</desc>
<path d="M18.7227 28.1444
L18.4180 28.1444
" />
<path d="M18.5704 28.1444
L18.5704 27.6111
" />
<path d="M18.5704 27.6111
L18.5196 27.6873
" />
<path d="M18.5196 27.6873
L18.4688 27.7381
" />
<path d="M18.4688 27.7381
L18.4180 27.7635
" />
<path d="M19.2053 27.6111
L18.9513 27.6111
" />
<path d="M18.9513 27.6111
L18.9259 27.8651
" />
<path d="M18.9259 27.8651
L18.9513 27.8397
" />
<path d="M18.9513 27.8397
L19.0021 27.8143
" />
<path d="M19.0021 27.8143
L19.1291 27.8143
" />
<path d="M19.1291 27.8143
L19.1799 27.8397
" />
<path d="M19.1799 27.8397
L19.2053 27.8651
" />
<path d="M19.2053 27.8651
L19.2307 27.9158
" />
<path d="M19.2307 27.9158
L19.2307 28.0428
" />
<path d="M19.2307 28.0428
L19.2053 28.0936
" />
<path d="M19.2053 28.0936
L19.1799 28.1190
" />
<path d="M19.1799 28.1190
L19.1291 28.1444
" />
<path d="M19.1291 28.1444
L19.0021 28.1444
" />
<path d="M19.0021 28.1444
L18.9513 28.1190
" />
<path d="M18.9513 28.1190
L18.9259 28.0936
" />
</g></g>
<g style="fill:none; 
stroke:#585D84; stroke-width:0.0212; stroke-opacity:1; 
stroke-linecap:round; stroke-linejoin:round;">
<path d="M18.0243 27.9000
L18.0243 27.9000
" />
<path d="M18.0243 27.9000 A0.8000 0.8000 0.0 0 0 19.6243 27.9000" />
<path d="M19.6243 27.9000
L19.6243 27.9000
" />
<path d="M19.6243 27.9000 A0.8000 0.8000 0.0 0 0 18.0243 27.9000" />
</g>
<g style="fill:none; 
stroke:#585D84; stroke-width:0.0444; stroke-opacity:1; 
stroke-linecap:round; stroke-linejoin:round;">
<text x="19.3323" y="25.6267"
textLength="1.0425" font-size="0.7111" lengthAdjust="spacingAndGlyphs"
text-anchor="middle" opacity="0" stroke-opacity="0">16</text>
<g class="stroked-text"><desc>16</desc>
<path d="M19.2307 25.6044
L18.9260 25.6044
" />
<path d="M19.0784 25.6044
L19.0784 25.0711
" />
<path d="M19.0784 25.0711
L19.0276 25.1473
" />
<path d="M19.0276 25.1473
L18.9768 25.1981
" />
<path d="M18.9768 25.1981
L18.9260 25.2235
" />
<path d="M19.6879 25.0711
L19.5863 25.0711
" />
<path d="M19.5863 25.0711
L19.5355 25.0965
" />
<path d="M19.5355 25.0965
L19.5101 25.1219
" />
<path d="M19.5101 25.1219
L19.4593 25.1981
" />
<path d="M19.4593 25.1981
L19.4339 25.2997
" />
<path d="M19.4339 25.2997
L19.4339 25.5028
" />
<path d="M19.4339 25.5028
L19.4593 25.5536
" />
<path d="M19.4593 25.5536
L19.4847 25.5790
" />
<path d="M19.4847 25.5790
L19.5355 25.6044
" />
<path d="M19.5355 25.6044
L19.6371 25.6044
" />
<path d="M19.6371 25.6044
L19.6879 25.5790
" />
<path d="M19.6879 25.5790
L19.7133 25.5536
" />
<path d="M19.7133 25.5536
L19.7387 25.5028
" />
<path d="M19.7387 25.5028
L19.7387 25.3758
" />
<path d="M19.7387 25.3758
L19.7133 25.3251
" />
<path d="M19.7133 25.3251
L19.6879 25.2997
" />
<path d="M19.6879 25.2997
L19.6371 25.2743
" />
<path d="M19.6371 25.2743
L19.5355 25.2743
" />
<path d="M19.5355 25.2743
L19.4847 25.2997
" />
<path d="M19.4847 25.2997
L19.4593 25.3251
" />
<path d="M19.4593 25.3251
L19.4339 25.3758
" />
</g></g>
<g style="fill:none; 
stroke:#585D84; stroke-width:0.0212; stroke-opacity:1; 
stroke-linecap:round; stroke-linejoin:round;">
<path d="M18.5323 25.3600
L18.5323 25.3600
" />
<path d="M18.5323 25.3600 A0.8000 0.8000 0.0 0 0 20.1323 25.3600" />
<path d="M20.1323 25.3600
L20.1323 25.3600
" />
<path d="M20.1323 25.3600 A0.8000 0.8000 0.0 0 0 18.5323 25.3600" />
</g>
<g style="fill:none; 
stroke:#585D84; stroke-width:0.0444; stroke-opacity:1; 
stroke-linecap:round; stroke-linejoin:round;">
<text x="18.8243" y="23.0867"
textLength="1.0425" font-size="0.7111" lengthAdjust="spacingAndGlyphs"
text-anchor="middle" opacity="0" stroke-opacity="0">17</text>
<g class="stroked-text"><desc>17</desc>
<path d="M18.7227 23.0644
L18.4180 23.0644
" />
<path d="M18.5704 23.0644
L18.5704 22.5311
" />
<path d="M18.5704 22.5311
L18.5196 22.6073
" />
<path d="M18.5196 22.6073
L18.4688 22.6581
" />
<path d="M18.4688 22.6581
L18.4180 22.6835
" />
<path d="M18.9005 22.5311
L19.2561 22.5311
" />
<path d="M19.2561 22.5311
L19.0275 23.0644
" />
</g></g>
<g style="fill:none; 
stroke:#585D84; stroke-width:0.0212; stroke-opacity:1; 
stroke-linecap:round; stroke-linejoin:round;">
<path d="M18.0243 22.8200
L18.0243 22.8200
" />
<path d="M18.0243 22.8200 A0.8000 0.8000 0.0 0 0 19.6243 22.8200" />
<path d="M19.6243 22.8200
L19.6243 22.8200
" />
<path d="M19.6243 22.8200 A0.8000 0.8000 0.0 0 0 18.0243 22.8200" />
</g>
<g style="fill:none; 
stroke:#585D84; stroke-width:0.0444; stroke-opacity:1; 
stroke-linecap:round; stroke-linejoin:round;">
<text x="19.3323" y="20.5467"
textLength="1.0425" font-size="0.7111" lengthAdjust="spacingAndGlyphs"
text-anchor="middle" opacity="0" stroke-opacity="0">18</text>
<g class="stroked-text"><desc>18</desc>
<path d="M19.2307 20.5244
L18.9260 20.5244
" />
<path d="M19.0784 20.5244
L19.0784 19.9911
" />
<path d="M19.0784 19.9911
L19.0276 20.0673
" />
<path d="M19.0276 20.0673
L18.9768 20.1181
" />
<path d="M18.9768 20.1181
L18.9260 20.1435
" />
<path d="M19.5355 20.2197
L19.4847 20.1943
" />
<path d="M19.4847 20.1943
L19.4593 20.1689
" />
<path d="M19.4593 20.1689
L19.4339 20.1181
" />
<path d="M19.4339 20.1181
L19.4339 20.0927
" />
<path d="M19.4339 20.0927
L19.4593 20.0419
" />
<path d="M19.4593 20.0419
L19.4847 20.0165
" />
<path d="M19.4847 20.0165
L19.5355 19.9911
" />
<path d="M19.5355 19.9911
L19.6371 19.9911
" />
<path d="M19.6371 19.9911
L19.6879 20.0165
" />
<path d="M19.6879 20.0165
L19.7133 20.0419
" />
<path d="M19.7133 20.0419
L19.7387 20.0927
" />
<path d="M19.7387 20.0927
L19.7387 20.1181
" />
<path d="M19.7387 20.1181
L19.7133 20.1689
" />
<path d="M19.7133 20.1689
L19.6879 20.1943
" />
<path d="M19.6879 20.1943
L19.6371 20.2197
" />
<path d="M19.6371 20.2197
L19.5355 20.2197
" />
<path d="M19.5355 20.2197
L19.4847 20.2451
" />
<path d="M19.4847 20.2451
L19.4593 20.2705
" />
<path d="M19.4593 20.2705
L19.4339 20.3212
" />
<path d="M19.4339 20.3212
L19.4339 20.4228
" />
<path d="M19.4339 20.4228
L19.4593 20.4736
" />
<path d="M19.4593 20.4736
L19.4847 20.4990
" />
<path d="M19.4847 20.4990
L19.5355 20.5244
" />
<path d="M19.5355 20.5244
L19.6371 20.5244
" />
<path d="M19.6371 20.5244
L19.6879 20.4990
" />
<path d="M19.6879 20.4990
L19.7133 20.4736
" />
<path d="M19.7133 20.4736
L19.7387 20.4228
" />
<path d="M19.7387 20.4228
L19.7387 20.3212
" />
<path d="M19.7387 20.3212
L19.7133 20.2705
" />
<path d="M19.7133 20.2705
L19.6879 20.2451
" />
<path d="M19.6879 20.2451
L19.6371 20.2197
" />
</g></g>
<g style="fill:none; 
stroke:#585D84; stroke-width:0.0212; stroke-opacity:1; 
stroke-linecap:round; stroke-linejoin:round;">
<path d="M18.5323 20.2800
L18.5323 20.2800
" />
<path d="M18.5323 20.2800 A0.8000 0.8000 0.0 0 0 20.1323 20.2800" />
<path d="M20.1323 20.2800
L20.1323 20.2800
" />
<path d="M20.1323 20.2800 A0.8000 0.8000 0.0 0 0 18.5323 20.2800" />
</g>
<g style="fill:none; 
stroke:#585D84; stroke-width:0.0444; stroke-opacity:1; 
stroke-linecap:round; stroke-linejoin:round;">
<text x="18.8243" y="18.0067"
textLength="1.0425" font-size="0.7111" lengthAdjust="spacingAndGlyphs"
text-anchor="middle" opacity="0" stroke-opacity="0">19</text>
<g class="stroked-text"><desc>19</desc>
<path d="M18.7227 17.9844
L18.4180 17.9844
" />
<path d="M18.5704 17.9844
L18.5704 17.4511
" />
<path d="M18.5704 17.4511
L18.5196 17.5273
" />
<path d="M18.5196 17.5273
L18.4688 17.5781
" />
<path d="M18.4688 17.5781
L18.4180 17.6035
" />
<path d="M18.9767 17.9844
L19.0783 17.9844
" />
<path d="M19.0783 17.9844
L19.1291 17.9590
" />
<path d="M19.1291 17.9590
L19.1545 17.9336
" />
<path d="M19.1545 17.9336
L19.2053 17.8574
" />
<path d="M19.2053 17.8574
L19.2307 17.7558
" />
<path d="M19.2307 17.7558
L19.2307 17.5527
" />
<path d="M19.2307 17.5527
L19.2053 17.5019
" />
<path d="M19.2053 17.5019
L19.1799 17.4765
" />
<path d="M19.1799 17.4765
L19.1291 17.4511
" />
<path d="M19.1291 17.4511
L19.0275 17.4511
" />
<path d="M19.0275 17.4511
L18.9767 17.4765
" />
<path d="M18.9767 17.4765
L18.9513 17.5019
" />
<path d="M18.9513 17.5019
L18.9259 17.5527
" />
<path d="M18.9259 17.5527
L18.9259 17.6797
" />
<path d="M18.9259 17.6797
L18.9513 17.7304
" />
<path d="M18.9513 17.7304
L18.9767 17.7558
" />
<path d="M18.9767 17.7558
L19.0275 17.7812
" />
<path d="M19.0275 17.7812
L19.1291 17.7812
" />
<path d="M19.1291 17.7812
L19.1799 17.7558
" />
<path d="M19.1799 17.7558
L19.2053 17.7304
" />
<path d="M19.2053 17.7304
L19.2307 17.6797
" />
</g></g>
<g style="fill:none; 
stroke:#585D84; stroke-width:0.0212; stroke-opacity:1; 
stroke-linecap:round; stroke-linejoin:round;">
<path d="M18.0243 17.7400
L18.0243 17.7400
" />
<path d="M18.0243 17.7400 A0.8000 0.8000 0.0 0 0 19.6243 17.7400" />
<path d="M19.6243 17.7400
L19.6243 17.7400
" />
<path d="M19.6243 17.7400 A0.8000 0.8000 0.0 0 0 18.0243 17.7400" />
</g>
<g style="fill:none; 
stroke:#585D84; stroke-width:0.0444; stroke-opacity:1; 
stroke-linecap:round; stroke-linejoin:round;">
<text x="19.3323" y="15.4667"
textLength="1.0425" font-size="0.7111" lengthAdjust="spacingAndGlyphs"
text-anchor="middle" opacity="0" stroke-opacity="0">20</text>
<g class="stroked-text"><desc>20</desc>
<path d="M18.9260 14.9619
L18.9514 14.9365
" />
<path d="M18.9514 14.9365
L19.0022 14.9111
" />
<path d="M19.0022 14.9111
L19.1292 14.9111
" />
<path d="M19.1292 14.9111
L19.1800 14.9365
" />
<path d="M19.1800 14.9365
L19.2053 14.9619
" />
<path d="M19.2053 14.9619
L19.2307 15.0127
" />
<path d="M19.2307 15.0127
L19.2307 15.0635
" />
<path d="M19.2307 15.0635
L19.2053 15.1397
" />
<path d="M19.2053 15.1397
L18.9006 15.4444
" />
<path d="M18.9006 15.4444
L19.2307 15.4444
" />
<path d="M19.5609 14.9111
L19.6117 14.9111
" />
<path d="M19.6117 14.9111
L19.6625 14.9365
" />
<path d="M19.6625 14.9365
L19.6879 14.9619
" />
<path d="M19.6879 14.9619
L19.7133 15.0127
" />
<path d="M19.7133 15.0127
L19.7387 15.1143
" />
<path d="M19.7387 15.1143
L19.7387 15.2412
" />
<path d="M19.7387 15.2412
L19.7133 15.3428
" />
<path d="M19.7133 15.3428
L19.6879 15.3936
" />
<path d="M19.6879 15.3936
L19.6625 15.4190
" />
<path d="M19.6625 15.4190
L19.6117 15.4444
" />
<path d="M19.6117 15.4444
L19.5609 15.4444
" />
<path d="M19.5609 15.4444
L19.5101 15.4190
" />
<path d="M19.5101 15.4190
L19.4847 15.3936
" />
<path d="M19.4847 15.3936
L19.4593 15.3428
" />
<path d="M19.4593 15.3428
L19.4339 15.2412
" />
<path d="M19.4339 15.2412
L19.4339 15.1143
" />
<path d="M19.4339 15.1143
L19.4593 15.0127
" />
<path d="M19.4593 15.0127
L19.4847 14.9619
" />
<path d="M19.4847 14.9619
L19.5101 14.9365
" />
<path d="M19.5101 14.9365
L19.5609 14.9111
" />
</g></g>
<g style="fill:none; 
stroke:#585D84; stroke-width:0.0212; stroke-opacity:1; 
stroke-linecap:round; stroke-linejoin:round;">
<path d="M18.5323 15.2000
L18.5323 15.2000
" />
<path d="M18.5323 15.2000 A0.8000 0.8000 0.0 0 0 20.1323 15.2000" />
<path d="M20.1323 15.2000
L20.1323 15.2000
" />
<path d="M20.1323 15.2000 A0.8000 0.8000 0.0 0 0 18.5323 15.2000" />
</g>
<g style="fill:none; 
stroke:#585D84; stroke-width:0.0444; stroke-opacity:1; 
stroke-linecap:round; stroke-linejoin:round;">
<text x="18.8243" y="12.9267"
textLength="1.0425" font-size="0.7111" lengthAdjust="spacingAndGlyphs"
text-anchor="middle" opacity="0" stroke-opacity="0">21</text>
<g class="stroked-text"><desc>21</desc>
<path d="M18.4180 12.4219
L18.4434 12.3965
" />
<path d="M18.4434 12.3965
L18.4942 12.3711
" />
<path d="M18.4942 12.3711
L18.6212 12.3711
" />
<path d="M18.6212 12.3711
L18.6720 12.3965
" />
<path d="M18.6720 12.3965
L18.6974 12.4219
" />
<path d="M18.6974 12.4219
L18.7227 12.4727
" />
<path d="M18.7227 12.4727
L18.7227 12.5235
" />
<path d="M18.7227 12.5235
L18.6974 12.5997
" />
<path d="M18.6974 12.5997
L18.3926 12.9044
" />
<path d="M18.3926 12.9044
L18.7227 12.9044
" />
<path d="M19.2307 12.9044
L18.9259 12.9044
" />
<path d="M19.0783 12.9044
L19.0783 12.3711
" />
<path d="M19.0783 12.3711
L19.0275 12.4473
" />
<path d="M19.0275 12.4473
L18.9767 12.4981
" />
<path d="M18.9767 12.4981
L18.9259 12.5235
" />
</g></g>
<g style="fill:none; 
stroke:#585D84; stroke-width:0.0212; stroke-opacity:1; 
stroke-linecap:round; stroke-linejoin:round;">
<path d="M18.0243 12.6600
L18.0243 12.6600
" />
<path d="M18.0243 12.6600 A0.8000 0.8000 0.0 0 0 19.6243 12.6600" />
<path d="M19.6243 12.6600
L19.6243 12.6600
" />
<path d="M19.6243 12.6600 A0.8000 0.8000 0.0 0 0 18.0243 12.6600" />
</g>
<g style="fill:none; 
stroke:#585D84; stroke-width:0.0444; stroke-opacity:1; 
stroke-linecap:round; stroke-linejoin:round;">
<text x="19.3323" y="10.3867"
textLength="1.0425" font-size="0.7111" lengthAdjust="spacingAndGlyphs"
text-anchor="middle" opacity="0" stroke-opacity="0">22</text>
<g class="stroked-text"><desc>22</desc>
<path d="M18.9260 9.8819
L18.9514 9.8565
" />
<path d="M18.9514 9.8565
L19.0022 9.8311
" />
<path d="M19.0022 9.8311
L19.1292 9.8311
" />
<path d="M19.1292 9.8311
L19.1800 9.8565
" />
<path d="M19.1800 9.8565
L19.2053 9.8819
" />
<path d="M19.2053 9.8819
L19.2307 9.9327
" />
<path d="M19.2307 9.9327
L19.2307 9.9835
" />
<path d="M19.2307 9.9835
L19.2053 10.0597
" />
<path d="M19.2053 10.0597
L18.9006 10.3644
" />
<path d="M18.9006 10.3644
L19.2307 10.3644
" />
<path d="M19.4339 9.8819
L19.4593 9.8565
" />
<path d="M19.4593 9.8565
L19.5101 9.8311
" />
<path d="M19.5101 9.8311
L19.6371 9.8311
" />
<path d="M19.6371 9.8311
L19.6879 9.8565
" />
<path d="M19.6879 9.8565
L19.7133 9.8819
" />
<path d="M19.7133 9.8819
L19.7387 9.9327
" />
<path d="M19.7387 9.9327
L19.7387 9.9835
" />
<path d="M19.7387 9.9835
L19.7133 10.0597
" />
<path d="M19.7133 10.0597
L19.4085 10.3644
" />
<path d="M19.4085 10.3644
L19.7387 10.3644
" />
</g></g>
<g style="fill:none; 
stroke:#585D84; stroke-width:0.0212; stroke-opacity:1; 
stroke-linecap:round; stroke-linejoin:round;">
<path d="M18.5323 10.1200
L18.5323 10.1200
" />
<path d="M18.5323 10.1200 A0.8000 0.8000 0.0 0 0 20.1323 10.1200" />
<path d="M20.1323 10.1200
L20.1323 10.1200
" />
<path d="M20.1323 10.1200 A0.8000 0.8000 0.0 0 0 18.5323 10.1200" />
</g>
<g style="fill:none; 
stroke:#585D84; stroke-width:0.0444; stroke-opacity:1; 
stroke-linecap:round; stroke-linejoin:round;">
<text x="18.8243" y="7.8467"
textLength="1.0425" font-size="0.7111" lengthAdjust="spacingAndGlyphs"
text-anchor="middle" opacity="0" stroke-opacity="0">23</text>
<g class="stroked-text"><desc>23</desc>
<path d="M18.4180 7.3419
L18.4434 7.3165
" />
<path d="M18.4434 7.3165
L18.4942 7.2911
" />
<path d="M18.4942 7.2911
L18.6212 7.2911
" />
<path d="M18.6212 7.2911
L18.6720 7.3165
" />
<path d="M18.6720 7.3165
L18.6974 7.3419
" />
<path d="M18.6974 7.3419
L18.7227 7.3927
" />
<path d="M18.7227 7.3927
L18.7227 7.4435
" />
<path d="M18.7227 7.4435
L18.6974 7.5197
" />
<path d="M18.6974 7.5197
L18.3926 7.8244
" />
<path d="M18.3926 7.8244
L18.7227 7.8244
" />
<path d="M18.9005 7.2911
L19.2307 7.2911
" />
<path d="M19.2307 7.2911
L19.0529 7.4943
" />
<path d="M19.0529 7.4943
L19.1291 7.4943
" />
<path d="M19.1291 7.4943
L19.1799 7.5197
" />
<path d="M19.1799 7.5197
L19.2053 7.5451
" />
<path d="M19.2053 7.5451
L19.2307 7.5958
" />
<path d="M19.2307 7.5958
L19.2307 7.7228
" />
<path d="M19.2307 7.7228
L19.2053 7.7736
" />
<path d="M19.2053 7.7736
L19.1799 7.7990
" />
<path d="M19.1799 7.7990
L19.1291 7.8244
" />
<path d="M19.1291 7.8244
L18.9767 7.8244
" />
<path d="M18.9767 7.8244
L18.9259 7.7990
" />
<path d="M18.9259 7.7990
L18.9005 7.7736
" />
</g></g>
<g style="fill:none; 
stroke:#585D84; stroke-width:0.0212; stroke-opacity:1; 
stroke-linecap:round; stroke-linejoin:round;">
<path d="M18.0243 7.5800
L18.0243 7.5800
" />
<path d="M18.0243 7.5800 A0.8000 0.8000 0.0 0 0 19.6243 7.5800" />
<path d="M19.6243 7.5800
L19.6243 7.5800
" />
<path d="M19.6243 7.5800 A0.8000 0.8000 0.0 0 0 18.0243 7.5800" />
</g>
<g style="fill:none; 
stroke:#585D84; stroke-width:0.0444; stroke-opacity:1; 
stroke-linecap:round; stroke-linejoin:round;">
<text x="19.3323" y="5.3067"
textLength="1.0425" font-size="0.7111" lengthAdjust="spacingAndGlyphs"
text-anchor="middle" opacity="0" stroke-opacity="0">24</text>
<g class="stroked-text"><desc>24</desc>
<path d="M18.9260 4.8019
L18.9514 4.7765
" />
<path d="M18.9514 4.7765
L19.0022 4.7511
" />
<path d="M19.0022 4.7511
L19.1292 4.7511
" />
<path d="M19.1292 4.7511
L19.1800 4.7765
" />
<path d="M19.1800 4.7765
L19.2053 4.8019
" />
<path d="M19.2053 4.8019
L19.2307 4.8527
" />
<path d="M19.2307 4.8527
L19.2307 4.9035
" />
<path d="M19.2307 4.9035
L19.2053 4.9797
" />
<path d="M19.2053 4.9797
L18.9006 5.2844
" />
<path d="M18.9006 5.2844
L19.2307 5.2844
" />
<path d="M19.6879 4.9289
L19.6879 5.2844
" />
<path d="M19.5609 4.7257
L19.4339 5.1066
" />
<path d="M19.4339 5.1066
L19.7641 5.1066
" />
</g></g>
<g style="fill:none; 
stroke:#585D84; stroke-width:0.0212; stroke-opacity:1; 
stroke-linecap:round; stroke-linejoin:round;">
<path d="M18.5323 5.0400
L18.5323 5.0400
" />
<path d="M18.5323 5.0400 A0.8000 0.8000 0.0 0 0 20.1323 5.0400" />
<path d="M20.1323 5.0400
L20.1323 5.0400
" />
<path d="M20.1323 5.0400 A0.8000 0.8000 0.0 0 0 18.5323 5.0400" />
</g> 
</svg>
