<svg xmlns="http://www.w3.org/2000/svg" width="110.88" height="137.088" viewBox="0 0 29.337 36.271">
    <g style="fill:none;stroke:#f2eda1;stroke-width:.15;stroke-opacity:1;stroke-linecap:round;stroke-linejoin:round">
        <g class="stroked-text">
            <path d="m13.34 8.035-.334-.476M12.768 8.035v-1M12.768 7.035h.38M13.149 7.035l.095.047M13.244 7.082l.048.048M13.292 7.13l.047.095M13.34 7.225v.143M13.34 7.368l-.048.095M13.292 7.463l-.048.048M13.244 7.511l-.095.048M13.149 7.559h-.381M13.768 7.511h.333M14.244 8.035h-.476M13.768 8.035v-1M13.768 7.035h.476M15.006 7.511h-.333M14.673 8.035v-1M14.673 7.035h.476M15.673 7.035v.238M15.435 7.178l.238.095M15.673 7.273l.238-.095M15.53 7.463l.143-.19M15.673 7.273l.143.19M16.435 7.035v.238M16.196 7.178l.238.095M16.435 7.273l.238-.095M16.292 7.463l.142-.19M16.435 7.273l.142.19"/>
        </g>
        <path d="M5.683 3.67h17.98v30.68H5.683Z" style="stroke:#f2eda1;stroke-width:.12;stroke-opacity:1;stroke-linecap:round;stroke-linejoin:round;fill:none"/>
        <path d="M8.423 3.67h-2.74v30.68h2.74ZM23.663 3.67h-2.74v30.68h2.74Z" style="stroke:#f2eda1;stroke-width:.12;stroke-opacity:1;stroke-linecap:round;stroke-linejoin:round;fill:none"/>
        <path stroke="none" d="m21.693 4.32.013-.069.04-.058.058-.04.069-.013h.84l.069.014.058.039.039.058.014.069v1.44l-.014.069-.04.058-.057.04-.07.013h-.84l-.068-.014-.059-.039-.039-.058-.013-.069Z" style="fill:#4d7fc4;fill-opacity:1;stroke:none;fill-rule:evenodd"/>
    </g>
    <g style="fill:none;stroke:#4d7fc4;stroke-width:1.2;stroke-opacity:1;stroke-linecap:round;stroke-linejoin:round">
        <path d="M22.293 7.28v.6M22.293 9.82v.6M22.293 12.36v.6M22.293 14.9v.6M22.293 17.44v.6M22.293 19.98v.6M22.293 22.52v.6M22.293 25.06v.6M22.293 27.6v.6M22.293 30.14v.6M22.293 32.68v.6M7.053 32.68v.6M7.053 30.14v.6M7.053 27.6v.6M7.053 25.06v.6M7.053 22.52v.6M7.053 19.98v.6M7.053 17.44v.6M7.053 14.9v.6M7.053 12.36v.6M7.053 9.82v.6M7.053 7.28v.6M7.053 4.74v.6"/>
        <path stroke="none" d="m21.693 4.32.013-.069.04-.058.058-.04.069-.013h.84l.069.014.058.039.039.058.014.069v1.44l-.014.069-.04.058-.057.04-.07.013h-.84l-.068-.014-.059-.039-.039-.058-.013-.069Z" style="fill:#c83434;fill-opacity:1;stroke:none;fill-rule:evenodd"/>
    </g>
    <g style="fill:none;stroke:#c83434;stroke-width:1.2;stroke-opacity:1;stroke-linecap:round;stroke-linejoin:round">
        <path d="M22.293 7.28v.6M22.293 9.82v.6M22.293 12.36v.6M22.293 14.9v.6M22.293 17.44v.6M22.293 19.98v.6M22.293 22.52v.6M22.293 25.06v.6M22.293 27.6v.6M22.293 30.14v.6M22.293 32.68v.6M7.053 32.68v.6M7.053 30.14v.6M7.053 27.6v.6M7.053 25.06v.6M7.053 22.52v.6M7.053 19.98v.6M7.053 17.44v.6M7.053 14.9v.6M7.053 12.36v.6M7.053 9.82v.6M7.053 7.28v.6M7.053 4.74v.6"/>
    </g>
    <g style="fill:none;stroke:#585d84;stroke-width:.05;stroke-opacity:1;stroke-linecap:round;stroke-linejoin:round">
        <g class="stroked-text">
            <path d="M22.568 4.869v.342M22.568 5.04h-.6M21.968 5.04l.085.057M22.053 5.097l.057.057M22.11 5.154l.029.057"/>
        </g>
        <path d="m21.693 4.32.013-.069.04-.058.058-.04.069-.013h.84l.069.014.058.039.039.058.014.069v1.44l-.014.069-.04.058-.057.04-.07.013h-.84l-.068-.014-.059-.039-.039-.058-.013-.069Z" style="stroke:#585d84;stroke-width:.0212;stroke-opacity:1;stroke-linecap:round;stroke-linejoin:round;fill:none"/>
    </g>
    <g style="fill:none;stroke:#585d84;stroke-width:.05;stroke-opacity:1;stroke-linecap:round;stroke-linejoin:round">
        <g class="stroked-text">
            <path d="m22.025 7.751-.029-.028M21.996 7.723l-.028-.057M21.968 7.666v-.143M21.968 7.523l.028-.057M21.996 7.466l.029-.029M22.025 7.437l.057-.028M22.082 7.409h.057M22.139 7.409l.086.028M22.225 7.437l.343.343M22.568 7.78v-.371"/>
        </g>
    </g>
    <g style="fill:none;stroke:#585d84;stroke-width:.0212;stroke-opacity:1;stroke-linecap:round;stroke-linejoin:round">
        <path d="M21.693 7.28v.6M21.693 7.88a.6.6 0 0 0 1.2 0M22.893 7.88v-.6M22.893 7.28a.6.6 0 0 0-1.2 0"/>
    </g>
    <g style="fill:none;stroke:#585d84;stroke-width:.05;stroke-opacity:1;stroke-linecap:round;stroke-linejoin:round">
        <g class="stroked-text">
            <path d="M21.968 10.32v-.371M21.968 9.949l.228.2M22.196 10.149v-.086M22.196 10.063l.029-.057M22.225 10.006l.028-.029M22.253 9.977l.057-.028M22.31 9.949h.143M22.453 9.949l.057.028M22.51 9.977l.029.029M22.539 10.006l.029.057M22.568 10.063v.171M22.568 10.234l-.029.057M22.539 10.291l-.029.029"/>
        </g>
    </g>
    <g style="fill:none;stroke:#585d84;stroke-width:.0212;stroke-opacity:1;stroke-linecap:round;stroke-linejoin:round">
        <path d="M21.693 9.82v.6M21.693 10.42a.6.6 0 0 0 1.2 0M22.893 10.42v-.6M22.893 9.82a.6.6 0 0 0-1.2 0"/>
    </g>
    <g style="fill:none;stroke:#585d84;stroke-width:.05;stroke-opacity:1;stroke-linecap:round;stroke-linejoin:round">
        <g class="stroked-text">
            <path d="M22.168 12.546h.4M21.939 12.689l.429.142M22.368 12.831v-.371"/>
        </g>
    </g>
    <g style="fill:none;stroke:#585d84;stroke-width:.0212;stroke-opacity:1;stroke-linecap:round;stroke-linejoin:round">
        <path d="M21.693 12.36v.6M21.693 12.96a.6.6 0 0 0 1.2 0M22.893 12.96v-.6M22.893 12.36a.6.6 0 0 0-1.2 0"/>
    </g>
    <g style="fill:none;stroke:#585d84;stroke-width:.05;stroke-opacity:1;stroke-linecap:round;stroke-linejoin:round">
        <g class="stroked-text">
            <path d="M21.968 15.057v.286M21.968 15.343l.285.028M22.253 15.371l-.028-.028M22.225 15.343l-.029-.057M22.196 15.286v-.143M22.196 15.143l.029-.057M22.225 15.086l.028-.029M22.253 15.057l.057-.028M22.31 15.029h.143M22.453 15.029l.057.028M22.51 15.057l.029.029M22.539 15.086l.029.057M22.568 15.143v.143M22.568 15.286l-.029.057M22.539 15.343l-.029.028"/>
        </g>
    </g>
    <g style="fill:none;stroke:#585d84;stroke-width:.0212;stroke-opacity:1;stroke-linecap:round;stroke-linejoin:round">
        <path d="M21.693 14.9v.6M21.693 15.5a.6.6 0 0 0 1.2 0M22.893 15.5v-.6M22.893 14.9a.6.6 0 0 0-1.2 0"/>
    </g>
    <g style="fill:none;stroke:#585d84;stroke-width:.05;stroke-opacity:1;stroke-linecap:round;stroke-linejoin:round">
        <g class="stroked-text">
            <path d="M21.968 17.626v.114M21.968 17.74l.028.057M21.996 17.797l.029.029M22.025 17.826l.085.057M22.11 17.883l.115.028M22.225 17.911h.228M22.453 17.911l.057-.028M22.51 17.883l.029-.029M22.539 17.854l.029-.057M22.568 17.797v-.114M22.568 17.683l-.029-.057M22.539 17.626l-.029-.029M22.51 17.597l-.057-.028M22.453 17.569h-.143M22.31 17.569l-.057.028M22.253 17.597l-.028.029M22.225 17.626l-.029.057M22.196 17.683v.114M22.196 17.797l.029.057M22.225 17.854l.028.029M22.253 17.883l.057.028"/>
        </g>
    </g>
    <g style="fill:none;stroke:#585d84;stroke-width:.0212;stroke-opacity:1;stroke-linecap:round;stroke-linejoin:round">
        <path d="M21.693 17.44v.6M21.693 18.04a.6.6 0 0 0 1.2 0M22.893 18.04v-.6M22.893 17.44a.6.6 0 0 0-1.2 0"/>
    </g>
    <g style="fill:none;stroke:#585d84;stroke-width:.05;stroke-opacity:1;stroke-linecap:round;stroke-linejoin:round">
        <g class="stroked-text">
            <path d="M21.968 20.48v-.4M21.968 20.08l.6.257"/>
        </g>
    </g>
    <g style="fill:none;stroke:#585d84;stroke-width:.0212;stroke-opacity:1;stroke-linecap:round;stroke-linejoin:round">
        <path d="M21.693 19.98v.6M21.693 20.58a.6.6 0 0 0 1.2 0M22.893 20.58v-.6M22.893 19.98a.6.6 0 0 0-1.2 0"/>
    </g>
    <g style="fill:none;stroke:#585d84;stroke-width:.05;stroke-opacity:1;stroke-linecap:round;stroke-linejoin:round">
        <g class="stroked-text">
            <path d="m22.225 22.877-.029.057M22.196 22.934l-.028.029M22.168 22.963l-.058.028M22.11 22.991h-.028M22.082 22.991l-.057-.028M22.025 22.963l-.029-.029M21.996 22.934l-.028-.057M21.968 22.877v-.114M21.968 22.763l.028-.057M21.996 22.706l.029-.029M22.025 22.677l.057-.028M22.082 22.649h.028M22.11 22.649l.058.028M22.168 22.677l.028.029M22.196 22.706l.029.057M22.225 22.763v.114M22.225 22.877l.028.057M22.253 22.934l.029.029M22.282 22.963l.057.028M22.339 22.991h.114M22.453 22.991l.057-.028M22.51 22.963l.029-.029M22.539 22.934l.029-.057M22.568 22.877v-.114M22.568 22.763l-.029-.057M22.539 22.706l-.029-.029M22.51 22.677l-.057-.028M22.453 22.649h-.114M22.339 22.649l-.057.028M22.282 22.677l-.029.029M22.253 22.706l-.028.057"/>
        </g>
    </g>
    <g style="fill:none;stroke:#585d84;stroke-width:.0212;stroke-opacity:1;stroke-linecap:round;stroke-linejoin:round">
        <path d="M21.693 22.52v.6M21.693 23.12a.6.6 0 0 0 1.2 0M22.893 23.12v-.6M22.893 22.52a.6.6 0 0 0-1.2 0"/>
    </g>
    <g style="fill:none;stroke:#585d84;stroke-width:.05;stroke-opacity:1;stroke-linecap:round;stroke-linejoin:round">
        <g class="stroked-text">
            <path d="M22.568 25.474v-.114M22.568 25.36l-.029-.057M22.539 25.303l-.029-.029M22.51 25.274l-.085-.057M22.425 25.217l-.115-.028M22.31 25.189h-.228M22.082 25.189l-.057.028M22.025 25.217l-.029.029M21.996 25.246l-.028.057M21.968 25.303v.114M21.968 25.417l.028.057M21.996 25.474l.029.029M22.025 25.503l.057.028M22.082 25.531h.143M22.225 25.531l.057-.028M22.282 25.503l.028-.029M22.31 25.474l.029-.057M22.339 25.417v-.114M22.339 25.303l-.029-.057M22.31 25.246l-.028-.029M22.282 25.217l-.057-.028"/>
        </g>
    </g>
    <g style="fill:none;stroke:#585d84;stroke-width:.0212;stroke-opacity:1;stroke-linecap:round;stroke-linejoin:round">
        <path d="M21.693 25.06v.6M21.693 25.66a.6.6 0 0 0 1.2 0M22.893 25.66v-.6M22.893 25.06a.6.6 0 0 0-1.2 0"/>
    </g>
    <g style="fill:none;stroke:#585d84;stroke-width:.05;stroke-opacity:1;stroke-linecap:round;stroke-linejoin:round">
        <g class="stroked-text">
            <path d="M22.568 28.014v.343M22.568 28.186h-.6M21.968 28.186l.085.057M22.053 28.243l.057.057M22.11 28.3l.029.057M21.968 27.643v-.057M21.968 27.586l.028-.057M21.996 27.529l.029-.029M22.025 27.5l.057-.029M22.082 27.471l.114-.028M22.196 27.443h.143M22.339 27.443l.114.028M22.453 27.471l.057.029M22.51 27.5l.029.029M22.539 27.529l.029.057M22.568 27.586v.057M22.568 27.643l-.029.057M22.539 27.7l-.029.029M22.51 27.729l-.057.028M22.453 27.757l-.114.029M22.339 27.786h-.143M22.196 27.786l-.114-.029M22.082 27.757l-.057-.028M22.025 27.729l-.029-.029M21.996 27.7l-.028-.057"/>
        </g>
    </g>
    <g style="fill:none;stroke:#585d84;stroke-width:.0212;stroke-opacity:1;stroke-linecap:round;stroke-linejoin:round">
        <path d="M21.693 27.6v.6M21.693 28.2a.6.6 0 0 0 1.2 0M22.893 28.2v-.6M22.893 27.6a.6.6 0 0 0-1.2 0"/>
    </g>
    <g style="fill:none;stroke:#585d84;stroke-width:.05;stroke-opacity:1;stroke-linecap:round;stroke-linejoin:round">
        <g class="stroked-text">
            <path d="M22.568 30.554v.343M22.568 30.726h-.6M21.968 30.726l.085.057M22.053 30.783l.057.057M22.11 30.84l.029.057M22.568 29.983v.343M22.568 30.154h-.6M21.968 30.154l.085.057M22.053 30.211l.057.058M22.11 30.269l.029.057"/>
        </g>
    </g>
    <g style="fill:none;stroke:#585d84;stroke-width:.0212;stroke-opacity:1;stroke-linecap:round;stroke-linejoin:round">
        <path d="M21.693 30.14v.6M21.693 30.74a.6.6 0 0 0 1.2 0M22.893 30.74v-.6M22.893 30.14a.6.6 0 0 0-1.2 0"/>
    </g>
    <g style="fill:none;stroke:#585d84;stroke-width:.05;stroke-opacity:1;stroke-linecap:round;stroke-linejoin:round">
        <g class="stroked-text">
            <path d="M22.568 33.094v.343M22.568 33.266h-.6M21.968 33.266l.085.057M22.053 33.323l.057.057M22.11 33.38l.029.057M22.025 32.866l-.029-.029M21.996 32.837l-.028-.057M21.968 32.78v-.143M21.968 32.637l.028-.057M21.996 32.58l.029-.029M22.025 32.551l.057-.028M22.082 32.523h.057M22.139 32.523l.086.028M22.225 32.551l.343.343M22.568 32.894v-.371"/>
        </g>
    </g>
    <g style="fill:none;stroke:#585d84;stroke-width:.0212;stroke-opacity:1;stroke-linecap:round;stroke-linejoin:round">
        <path d="M21.693 32.68v.6M21.693 33.28a.6.6 0 0 0 1.2 0M22.893 33.28v-.6M22.893 32.68a.6.6 0 0 0-1.2 0"/>
    </g>
    <g style="fill:none;stroke:#585d84;stroke-width:.05;stroke-opacity:1;stroke-linecap:round;stroke-linejoin:round">
        <g class="stroked-text">
            <path d="M7.328 33.094v.343M7.328 33.266h-.6M6.728 33.266l.085.057M6.813 33.323l.057.057M6.87 33.38l.029.057M6.728 32.894v-.371M6.728 32.523l.228.2M6.956 32.723v-.086M6.956 32.637l.029-.057M6.985 32.58l.028-.029M7.013 32.551l.057-.028M7.07 32.523h.143M7.213 32.523l.057.028M7.27 32.551l.029.029M7.299 32.58l.029.057M7.328 32.637v.172M7.328 32.809l-.029.057M7.299 32.866l-.029.028"/>
        </g>
    </g>
    <g style="fill:none;stroke:#585d84;stroke-width:.0212;stroke-opacity:1;stroke-linecap:round;stroke-linejoin:round">
        <path d="M6.453 32.68v.6M6.453 33.28a.6.6 0 0 0 1.2 0M7.653 33.28v-.6M7.653 32.68a.6.6 0 0 0-1.2 0"/>
    </g>
    <g style="fill:none;stroke:#585d84;stroke-width:.05;stroke-opacity:1;stroke-linecap:round;stroke-linejoin:round">
        <g class="stroked-text">
            <path d="M7.328 30.554v.343M7.328 30.726h-.6M6.728 30.726l.085.057M6.813 30.783l.057.057M6.87 30.84l.029.057M6.928 30.04h.4M6.699 30.183l.429.143M7.128 30.326v-.372"/>
        </g>
    </g>
    <g style="fill:none;stroke:#585d84;stroke-width:.0212;stroke-opacity:1;stroke-linecap:round;stroke-linejoin:round">
        <path d="M6.453 30.14v.6M6.453 30.74a.6.6 0 0 0 1.2 0M7.653 30.74v-.6M7.653 30.14a.6.6 0 0 0-1.2 0"/>
    </g>
    <g style="fill:none;stroke:#585d84;stroke-width:.05;stroke-opacity:1;stroke-linecap:round;stroke-linejoin:round">
        <g class="stroked-text">
            <path d="M7.328 28.014v.343M7.328 28.186h-.6M6.728 28.186l.085.057M6.813 28.243l.057.057M6.87 28.3l.029.057M6.728 27.471v.286M6.728 27.757l.285.029M7.013 27.786l-.028-.029M6.985 27.757l-.029-.057M6.956 27.7v-.143M6.956 27.557l.029-.057M6.985 27.5l.028-.029M7.013 27.471l.057-.028M7.07 27.443h.143M7.213 27.443l.057.028M7.27 27.471l.029.029M7.299 27.5l.029.057M7.328 27.557v.143M7.328 27.7l-.029.057M7.299 27.757l-.029.029"/>
        </g>
    </g>
    <g style="fill:none;stroke:#585d84;stroke-width:.0212;stroke-opacity:1;stroke-linecap:round;stroke-linejoin:round">
        <path d="M6.453 27.6v.6M6.453 28.2a.6.6 0 0 0 1.2 0M7.653 28.2v-.6M7.653 27.6a.6.6 0 0 0-1.2 0"/>
    </g>
    <g style="fill:none;stroke:#585d84;stroke-width:.05;stroke-opacity:1;stroke-linecap:round;stroke-linejoin:round">
        <g class="stroked-text">
            <path d="M7.328 25.474v.343M7.328 25.646h-.6M6.728 25.646l.085.057M6.813 25.703l.057.057M6.87 25.76l.029.057M6.728 24.96v.114M6.728 25.074l.028.057M6.756 25.131l.029.029M6.785 25.16l.085.057M6.87 25.217l.115.029M6.985 25.246h.228M7.213 25.246l.057-.029M7.27 25.217l.029-.028M7.299 25.189l.029-.058M7.328 25.131v-.114M7.328 25.017l-.029-.057M7.299 24.96l-.029-.029M7.27 24.931l-.057-.028M7.213 24.903H7.07M7.07 24.903l-.057.028M7.013 24.931l-.028.029M6.985 24.96l-.029.057M6.956 25.017v.114M6.956 25.131l.029.058M6.985 25.189l.028.028M7.013 25.217l.057.029"/>
        </g>
    </g>
    <g style="fill:none;stroke:#585d84;stroke-width:.0212;stroke-opacity:1;stroke-linecap:round;stroke-linejoin:round">
        <path d="M6.453 25.06v.6M6.453 25.66a.6.6 0 0 0 1.2 0M7.653 25.66v-.6M7.653 25.06a.6.6 0 0 0-1.2 0"/>
    </g>
    <g style="fill:none;stroke:#585d84;stroke-width:.05;stroke-opacity:1;stroke-linecap:round;stroke-linejoin:round">
        <g class="stroked-text">
            <path d="M7.328 22.934v.343M7.328 23.106h-.6M6.728 23.106l.085.057M6.813 23.163l.057.057M6.87 23.22l.029.057M6.728 22.734v-.4M6.728 22.334l.6.257"/>
        </g>
    </g>
    <g style="fill:none;stroke:#585d84;stroke-width:.0212;stroke-opacity:1;stroke-linecap:round;stroke-linejoin:round">
        <path d="M6.453 22.52v.6M6.453 23.12a.6.6 0 0 0 1.2 0M7.653 23.12v-.6M7.653 22.52a.6.6 0 0 0-1.2 0"/>
    </g>
    <g style="fill:none;stroke:#585d84;stroke-width:.05;stroke-opacity:1;stroke-linecap:round;stroke-linejoin:round">
        <g class="stroked-text">
            <path d="M7.328 20.394v.343M7.328 20.566h-.6M6.728 20.566l.085.057M6.813 20.623l.057.057M6.87 20.68l.029.057M6.985 20.051l-.029.058M6.956 20.109l-.028.028M6.928 20.137l-.058.029M6.87 20.166h-.028M6.842 20.166l-.057-.029M6.785 20.137l-.029-.028M6.756 20.109l-.028-.058M6.728 20.051v-.114M6.728 19.937l.028-.057M6.756 19.88l.029-.029M6.785 19.851l.057-.028M6.842 19.823h.028M6.87 19.823l.058.028M6.928 19.851l.028.029M6.956 19.88l.029.057M6.985 19.937v.114M6.985 20.051l.028.058M7.013 20.109l.029.028M7.042 20.137l.057.029M7.099 20.166h.114M7.213 20.166l.057-.029M7.27 20.137l.029-.028M7.299 20.109l.029-.058M7.328 20.051v-.114M7.328 19.937l-.029-.057M7.299 19.88l-.029-.029M7.27 19.851l-.057-.028M7.213 19.823H7.1M7.099 19.823l-.057.028M7.042 19.851l-.029.029M7.013 19.88l-.028.057"/>
        </g>
    </g>
    <g style="fill:none;stroke:#585d84;stroke-width:.0212;stroke-opacity:1;stroke-linecap:round;stroke-linejoin:round">
        <path d="M6.453 19.98v.6M6.453 20.58a.6.6 0 0 0 1.2 0M7.653 20.58v-.6M7.653 19.98a.6.6 0 0 0-1.2 0"/>
    </g>
    <g style="fill:none;stroke:#585d84;stroke-width:.05;stroke-opacity:1;stroke-linecap:round;stroke-linejoin:round">
        <g class="stroked-text">
            <path d="M7.328 17.854v.343M7.328 18.026h-.6M6.728 18.026l.085.057M6.813 18.083l.057.057M6.87 18.14l.029.057M7.328 17.569v-.115M7.328 17.454l-.029-.057M7.299 17.397l-.029-.028M7.27 17.369l-.085-.058M7.185 17.311l-.115-.028M7.07 17.283h-.228M6.842 17.283l-.057.028M6.785 17.311l-.029.029M6.756 17.34l-.028.057M6.728 17.397v.114M6.728 17.511l.028.058M6.756 17.569l.029.028M6.785 17.597l.057.029M6.842 17.626h.143M6.985 17.626l.057-.029M7.042 17.597l.028-.028M7.07 17.569l.029-.058M7.099 17.511v-.114M7.099 17.397l-.029-.057M7.07 17.34l-.028-.029M7.042 17.311l-.057-.028"/>
        </g>
    </g>
    <g style="fill:none;stroke:#585d84;stroke-width:.0212;stroke-opacity:1;stroke-linecap:round;stroke-linejoin:round">
        <path d="M6.453 17.44v.6M6.453 18.04a.6.6 0 0 0 1.2 0M7.653 18.04v-.6M7.653 17.44a.6.6 0 0 0-1.2 0"/>
    </g>
    <g style="fill:none;stroke:#585d84;stroke-width:.05;stroke-opacity:1;stroke-linecap:round;stroke-linejoin:round">
        <g class="stroked-text">
            <path d="m6.785 15.657-.029-.028M6.756 15.629l-.028-.058M6.728 15.571v-.142M6.728 15.429l.028-.058M6.756 15.371l.029-.028M6.785 15.343l.057-.029M6.842 15.314h.057M6.899 15.314l.086.029M6.985 15.343l.343.343M7.328 15.686v-.372M6.728 14.943v-.057M6.728 14.886l.028-.057M6.756 14.829l.029-.029M6.785 14.8l.057-.029M6.842 14.771l.114-.028M6.956 14.743H7.1M7.099 14.743l.114.028M7.213 14.771l.057.029M7.27 14.8l.029.029M7.299 14.829l.029.057M7.328 14.886v.057M7.328 14.943 7.299 15M7.299 15l-.029.029M7.27 15.029l-.057.028M7.213 15.057l-.114.029M7.099 15.086h-.143M6.956 15.086l-.114-.029M6.842 15.057l-.057-.028M6.785 15.029 6.756 15M6.756 15l-.028-.057"/>
        </g>
    </g>
    <g style="fill:none;stroke:#585d84;stroke-width:.0212;stroke-opacity:1;stroke-linecap:round;stroke-linejoin:round">
        <path d="M6.453 14.9v.6M6.453 15.5a.6.6 0 0 0 1.2 0M7.653 15.5v-.6M7.653 14.9a.6.6 0 0 0-1.2 0"/>
    </g>
    <g style="fill:none;stroke:#585d84;stroke-width:.05;stroke-opacity:1;stroke-linecap:round;stroke-linejoin:round">
        <g class="stroked-text">
            <path d="m6.785 13.117-.029-.028M6.756 13.089l-.028-.058M6.728 13.031v-.142M6.728 12.889l.028-.058M6.756 12.831l.029-.028M6.785 12.803l.057-.029M6.842 12.774h.057M6.899 12.774l.086.029M6.985 12.803l.343.343M7.328 13.146v-.372M7.328 12.203v.343M7.328 12.374h-.6M6.728 12.374l.085.057M6.813 12.431l.057.058M6.87 12.489l.029.057"/>
        </g>
    </g>
    <g style="fill:none;stroke:#585d84;stroke-width:.0212;stroke-opacity:1;stroke-linecap:round;stroke-linejoin:round">
        <path d="M6.453 12.36v.6M6.453 12.96a.6.6 0 0 0 1.2 0M7.653 12.96v-.6M7.653 12.36a.6.6 0 0 0-1.2 0"/>
    </g>
    <g style="fill:none;stroke:#585d84;stroke-width:.05;stroke-opacity:1;stroke-linecap:round;stroke-linejoin:round">
        <g class="stroked-text">
            <path d="m6.785 10.577-.029-.028M6.756 10.549l-.028-.058M6.728 10.491v-.142M6.728 10.349l.028-.058M6.756 10.291l.029-.028M6.785 10.263l.057-.029M6.842 10.234h.057M6.899 10.234l.086.029M6.985 10.263l.343.343M7.328 10.606v-.372M6.785 10.006l-.029-.029M6.756 9.977l-.028-.057M6.728 9.92v-.143M6.728 9.777l.028-.057M6.756 9.72l.029-.029M6.785 9.691l.057-.028M6.842 9.663h.057M6.899 9.663l.086.028M6.985 9.691l.343.343M7.328 10.034v-.371"/>
        </g>
    </g>
    <g style="fill:none;stroke:#585d84;stroke-width:.0212;stroke-opacity:1;stroke-linecap:round;stroke-linejoin:round">
        <path d="M6.453 9.82v.6M6.453 10.42a.6.6 0 0 0 1.2 0M7.653 10.42v-.6M7.653 9.82a.6.6 0 0 0-1.2 0"/>
    </g>
    <g style="fill:none;stroke:#585d84;stroke-width:.05;stroke-opacity:1;stroke-linecap:round;stroke-linejoin:round">
        <g class="stroked-text">
            <path d="m6.785 8.037-.029-.028M6.756 8.009l-.028-.058M6.728 7.951V7.81M6.728 7.809l.028-.058M6.756 7.751l.029-.028M6.785 7.723l.057-.029M6.842 7.694h.057M6.899 7.694l.086.029M6.985 7.723l.343.343M7.328 8.066v-.372M6.728 7.494v-.371M6.728 7.123l.228.2M6.956 7.323v-.086M6.956 7.237l.029-.057M6.985 7.18l.028-.029M7.013 7.151l.057-.028M7.07 7.123h.143M7.213 7.123l.057.028M7.27 7.151l.029.029M7.299 7.18l.029.057M7.328 7.237v.172M7.328 7.409l-.029.057M7.299 7.466l-.029.028"/>
        </g>
    </g>
    <g style="fill:none;stroke:#585d84;stroke-width:.0212;stroke-opacity:1;stroke-linecap:round;stroke-linejoin:round">
        <path d="M6.453 7.28v.6M6.453 7.88a.6.6 0 0 0 1.2 0M7.653 7.88v-.6M7.653 7.28a.6.6 0 0 0-1.2 0"/>
    </g>
    <g style="fill:none;stroke:#585d84;stroke-width:.05;stroke-opacity:1;stroke-linecap:round;stroke-linejoin:round">
        <g class="stroked-text">
            <path d="m6.785 5.497-.029-.028M6.756 5.469l-.028-.058M6.728 5.411V5.27M6.728 5.269l.028-.058M6.756 5.211l.029-.028M6.785 5.183l.057-.029M6.842 5.154h.057M6.899 5.154l.086.029M6.985 5.183l.343.343M7.328 5.526v-.372M6.928 4.64h.4M6.699 4.783l.429.143M7.128 4.926v-.372"/>
        </g>
    </g>
    <g style="fill:none;stroke:#585d84;stroke-width:.0212;stroke-opacity:1;stroke-linecap:round;stroke-linejoin:round">
        <path d="M6.453 4.74v.6M6.453 5.34a.6.6 0 0 0 1.2 0M7.653 5.34v-.6M7.653 4.74a.6.6 0 0 0-1.2 0"/>
    </g>
    <g style="fill:none;stroke:#afafaf;stroke-width:.15;stroke-opacity:1;stroke-linecap:round;stroke-linejoin:round">
        <g class="stroked-text">
            <path d="M.363 35.895v-1M.363 34.895l.333.714M.696 35.61l.334-.715M1.03 34.895v1M2.077 35.8l-.047.047M2.03 35.847l-.143.048M1.887 35.895h-.095M1.792 35.895l-.143-.048M1.649 35.847l-.095-.095M1.554 35.752l-.048-.095M1.506 35.657l-.048-.19M1.458 35.466v-.143M1.458 35.323l.048-.19M1.506 35.133l.048-.095M1.554 35.038l.095-.096M1.649 34.942l.143-.047M1.792 34.895h.095M1.887 34.895l.143.047M2.03 34.942l.047.048M2.506 34.895v.81M2.506 35.704l.048.096M2.554 35.8l.047.047M2.601 35.847l.095.048M2.696 35.895h.19M2.887 35.895l.095-.048M2.982 35.847l.048-.047M3.03 35.8l.047-.096M3.077 35.704v-.81M3.316 35.99h.761M4.316 35.895v-1M4.316 34.895h.38M4.696 34.895l.096.047M4.792 34.942l.047.048M4.84 34.99l.047.095M4.887 35.085v.143M4.887 35.228l-.048.095M4.84 35.323l-.048.048M4.792 35.371l-.096.048M4.696 35.419h-.38M5.316 35.895v-.667M5.316 35.419l.047-.096M5.363 35.323l.048-.047M5.41 35.276l.096-.048M5.506 35.228h.095M6.077 35.895l-.095-.048M5.982 35.847l-.048-.047M5.935 35.8l-.048-.096M5.887 35.704v-.285M5.887 35.419l.048-.096M5.935 35.323l.047-.047M5.982 35.276l.095-.048M6.077 35.228h.143M6.22 35.228l.096.048M6.316 35.276l.047.047M6.363 35.323l.048.096M6.41 35.419v.285M6.41 35.704l-.047.096M6.363 35.8l-.048.047M6.316 35.847l-.096.048M6.22 35.895h-.143M6.84 35.895v-1M6.84 34.895l.333.714M7.173 35.61l.333-.715M7.506 34.895v1M7.982 35.895v-.667M7.982 34.895l-.048.047M7.935 34.942l.047.048M7.982 34.99l.048-.048M8.03 34.942l-.048-.047M7.982 34.895v.095M8.887 35.847l-.095.048M8.792 35.895h-.19M8.601 35.895l-.095-.048M8.506 35.847l-.048-.047M8.458 35.8l-.047-.096M8.41 35.704v-.285M8.41 35.419l.048-.096M8.458 35.323l.048-.047M8.506 35.276l.095-.048M8.601 35.228h.19M8.792 35.228l.095.048M9.316 35.895v-.667M9.316 35.419l.047-.096M9.363 35.323l.048-.047M9.41 35.276l.096-.048M9.506 35.228h.095M10.077 35.895l-.095-.048M9.982 35.847l-.047-.047M9.935 35.8l-.048-.096M9.887 35.704v-.285M9.887 35.419l.047-.096M9.935 35.323l.047-.047M9.982 35.276l.095-.048M10.077 35.228h.143M10.22 35.228l.095.048M10.316 35.276l.047.047M10.363 35.323l.048.096M10.41 35.419v.285M10.41 35.704l-.047.096M10.363 35.8l-.047.047M10.316 35.847l-.096.048M10.22 35.895h-.143M10.601 35.99h.762M11.601 35.895v-1M11.601 34.895h.238M11.84 34.895l.142.047M11.982 34.942l.095.096M12.077 35.038l.048.095M12.125 35.133l.048.19M12.173 35.323v.143M12.173 35.466l-.048.19M12.125 35.657l-.048.095M12.077 35.752l-.095.095M11.982 35.847l-.143.048M11.84 35.895H11.6M12.601 35.895v-1M13.077 35.895v-1M13.077 34.895h.381M13.458 34.895l.096.047M13.554 34.942l.047.048M13.601 34.99l.048.095M13.649 35.085v.143M13.649 35.228l-.048.095M13.601 35.323l-.047.048M13.554 35.371l-.096.048M13.458 35.419h-.38M14.077 35.514h.762M15.268 34.99l.047-.048M15.316 34.942l.095-.047M15.41 34.895h.239M15.649 34.895l.095.047M15.744 34.942l.048.048M15.792 34.99l.047.095M15.84 35.085v.096M15.84 35.18l-.048.143M15.792 35.323l-.572.572M15.22 35.895h.62M16.696 35.228v.667M16.458 34.847l-.238.715M16.22 35.562h.62M16.982 35.99h.762M17.935 35.847l.142.048M18.077 35.895h.238M18.316 35.895l.095-.048M18.41 35.847l.048-.047M18.458 35.8l.048-.096M18.506 35.704v-.095M18.506 35.61l-.048-.096M18.458 35.514l-.047-.048M18.41 35.466l-.095-.047M18.316 35.419l-.191-.048M18.125 35.371l-.095-.048M18.03 35.323l-.048-.047M17.982 35.276l-.047-.096M17.935 35.18v-.095M17.935 35.085l.047-.095M17.982 34.99l.048-.048M18.03 34.942l.095-.047M18.125 34.895h.238M18.363 34.895l.143.047M19.077 35.895l-.095-.048M18.982 35.847l-.047-.047M18.935 35.8l-.048-.096M18.887 35.704v-.285M18.887 35.419l.047-.096M18.935 35.323l.047-.047M18.982 35.276l.095-.048M19.077 35.228h.143M19.22 35.228l.096.048M19.316 35.276l.047.047M19.363 35.323l.048.096M19.41 35.419v.285M19.41 35.704l-.047.096M19.363 35.8l-.047.047M19.316 35.847l-.096.048M19.22 35.895h-.143M20.268 35.847l-.095.048M20.173 35.895h-.19M19.982 35.895l-.095-.048M19.887 35.847l-.048-.047M19.84 35.8l-.048-.096M19.792 35.704v-.285M19.792 35.419l.047-.096M19.84 35.323l.047-.047M19.887 35.276l.095-.048M19.982 35.228h.19M20.173 35.228l.095.048M20.696 35.895v-1M20.792 35.514l.285.38M21.077 35.228l-.38.381M21.887 35.847l-.095.048M21.792 35.895h-.19M21.601 35.895l-.095-.048M21.506 35.847l-.048-.095M21.458 35.752v-.381M21.458 35.371l.048-.095M21.506 35.276l.095-.048M21.601 35.228h.19M21.792 35.228l.095.048M21.887 35.276l.047.095M21.935 35.371v.095M21.935 35.466l-.477.096M22.22 35.228h.381M22.363 34.895v.857M22.363 35.752l.048.095M22.41 35.847l.096.048M22.506 35.895h.095M22.696 35.99h.762M24.268 35.895l-.334-.476M23.696 35.895v-1M23.696 34.895h.381M24.077 34.895l.096.047M24.173 34.942l.047.048M24.22 34.99l.048.095M24.268 35.085v.143M24.268 35.228l-.048.095M24.22 35.323l-.047.048M24.173 35.371l-.096.048M24.077 35.419h-.38M25.077 35.847l-.095.048M24.982 35.895h-.19M24.792 35.895l-.096-.048M24.696 35.847l-.047-.095M24.649 35.752v-.381M24.649 35.371l.047-.095M24.696 35.276l.096-.048M24.792 35.228h.19M24.982 35.228l.095.048M25.077 35.276l.048.095M25.125 35.371v.095M25.125 35.466l-.476.096M25.458 35.228l.238.667M25.696 35.895l.238-.667M26.696 35.847l-.095.048M26.601 35.895h-.19M26.41 35.895l-.095-.048M26.316 35.847l-.048-.095M26.268 35.752v-.381M26.268 35.371l.047-.095M26.316 35.276l.095-.048M26.41 35.228h.191M26.601 35.228l.095.048M26.696 35.276l.048.095M26.744 35.371v.095M26.744 35.466l-.476.096M27.173 35.895v-.667M27.173 35.419l.047-.096M27.22 35.323l.048-.047M27.268 35.276l.095-.048M27.363 35.228h.095M27.744 35.847l.095.048M27.84 35.895h.19M28.03 35.895l.095-.048M28.125 35.847l.048-.095M28.173 35.752v-.048M28.173 35.704l-.048-.095M28.125 35.61l-.095-.048M28.03 35.562h-.143M27.887 35.562l-.095-.048M27.792 35.514l-.048-.095M27.744 35.419v-.048M27.744 35.371l.048-.095M27.792 35.276l.095-.048M27.887 35.228h.143M28.03 35.228l.095.048M28.982 35.847l-.095.048M28.887 35.895h-.19M28.696 35.895l-.095-.048M28.601 35.847l-.047-.095M28.554 35.752v-.381M28.554 35.371l.047-.095M28.601 35.276l.095-.048M28.696 35.228h.19M28.887 35.228l.095.048M28.982 35.276l.048.095M29.03 35.371v.095M29.03 35.466l-.476.096"/>
        </g>
        <g class="stroked-text">
            <path d="m13.34 18.195-.334-.476M12.768 18.195v-1M12.768 17.195h.38M13.149 17.195l.095.047M13.244 17.242l.048.048M13.292 17.29l.047.095M13.34 17.385v.143M13.34 17.528l-.048.095M13.292 17.623l-.048.048M13.244 17.671l-.095.048M13.149 17.719h-.381M13.768 17.671h.333M14.244 18.195h-.476M13.768 18.195v-1M13.768 17.195h.476M15.006 17.671h-.333M14.673 18.195v-1M14.673 17.195h.476M15.673 17.195v.238M15.435 17.338l.238.095M15.673 17.433l.238-.095M15.53 17.623l.143-.19M15.673 17.433l.143.19M16.435 17.195v.238M16.196 17.338l.238.095M16.435 17.433l.238-.095M16.292 17.623l.142-.19M16.435 17.433l.142.19"/>
        </g>
        <path d="M5.783 1.23h17.78v33.02H5.783ZM10.173.05h9v1.18h-9Z" style="stroke:#afafaf;stroke-width:.1;stroke-opacity:1;stroke-linecap:round;stroke-linejoin:round;fill:none"/>
    </g>
    <g style="fill:none;stroke:#afafaf;stroke-width:.05;stroke-opacity:1;stroke-linecap:round;stroke-linejoin:round">
        <g class="stroked-text">
            <path d="M22.568 4.869v.342M22.568 5.04h-.6M21.968 5.04l.085.057M22.053 5.097l.057.057M22.11 5.154l.029.057"/>
        </g>
        <path d="m21.693 4.32.013-.069.04-.058.058-.04.069-.013h.84l.069.014.058.039.039.058.014.069v1.44l-.014.069-.04.058-.057.04-.07.013h-.84l-.068-.014-.059-.039-.039-.058-.013-.069Z" style="stroke:#afafaf;stroke-width:.0212;stroke-opacity:1;stroke-linecap:round;stroke-linejoin:round;fill:none"/>
    </g>
    <g style="fill:none;stroke:#afafaf;stroke-width:.05;stroke-opacity:1;stroke-linecap:round;stroke-linejoin:round">
        <g class="stroked-text">
            <path d="m22.025 7.751-.029-.028M21.996 7.723l-.028-.057M21.968 7.666v-.143M21.968 7.523l.028-.057M21.996 7.466l.029-.029M22.025 7.437l.057-.028M22.082 7.409h.057M22.139 7.409l.086.028M22.225 7.437l.343.343M22.568 7.78v-.371"/>
        </g>
    </g>
    <g style="fill:none;stroke:#afafaf;stroke-width:.0212;stroke-opacity:1;stroke-linecap:round;stroke-linejoin:round">
        <path d="M21.693 7.28v.6M21.693 7.88a.6.6 0 0 0 1.2 0M22.893 7.88v-.6M22.893 7.28a.6.6 0 0 0-1.2 0"/>
    </g>
    <g style="fill:none;stroke:#afafaf;stroke-width:.05;stroke-opacity:1;stroke-linecap:round;stroke-linejoin:round">
        <g class="stroked-text">
            <path d="M21.968 10.32v-.371M21.968 9.949l.228.2M22.196 10.149v-.086M22.196 10.063l.029-.057M22.225 10.006l.028-.029M22.253 9.977l.057-.028M22.31 9.949h.143M22.453 9.949l.057.028M22.51 9.977l.029.029M22.539 10.006l.029.057M22.568 10.063v.171M22.568 10.234l-.029.057M22.539 10.291l-.029.029"/>
        </g>
    </g>
    <g style="fill:none;stroke:#afafaf;stroke-width:.0212;stroke-opacity:1;stroke-linecap:round;stroke-linejoin:round">
        <path d="M21.693 9.82v.6M21.693 10.42a.6.6 0 0 0 1.2 0M22.893 10.42v-.6M22.893 9.82a.6.6 0 0 0-1.2 0"/>
    </g>
    <g style="fill:none;stroke:#afafaf;stroke-width:.05;stroke-opacity:1;stroke-linecap:round;stroke-linejoin:round">
        <g class="stroked-text">
            <path d="M22.168 12.546h.4M21.939 12.689l.429.142M22.368 12.831v-.371"/>
        </g>
    </g>
    <g style="fill:none;stroke:#afafaf;stroke-width:.0212;stroke-opacity:1;stroke-linecap:round;stroke-linejoin:round">
        <path d="M21.693 12.36v.6M21.693 12.96a.6.6 0 0 0 1.2 0M22.893 12.96v-.6M22.893 12.36a.6.6 0 0 0-1.2 0"/>
    </g>
    <g style="fill:none;stroke:#afafaf;stroke-width:.05;stroke-opacity:1;stroke-linecap:round;stroke-linejoin:round">
        <g class="stroked-text">
            <path d="M21.968 15.057v.286M21.968 15.343l.285.028M22.253 15.371l-.028-.028M22.225 15.343l-.029-.057M22.196 15.286v-.143M22.196 15.143l.029-.057M22.225 15.086l.028-.029M22.253 15.057l.057-.028M22.31 15.029h.143M22.453 15.029l.057.028M22.51 15.057l.029.029M22.539 15.086l.029.057M22.568 15.143v.143M22.568 15.286l-.029.057M22.539 15.343l-.029.028"/>
        </g>
    </g>
    <g style="fill:none;stroke:#afafaf;stroke-width:.0212;stroke-opacity:1;stroke-linecap:round;stroke-linejoin:round">
        <path d="M21.693 14.9v.6M21.693 15.5a.6.6 0 0 0 1.2 0M22.893 15.5v-.6M22.893 14.9a.6.6 0 0 0-1.2 0"/>
    </g>
    <g style="fill:none;stroke:#afafaf;stroke-width:.05;stroke-opacity:1;stroke-linecap:round;stroke-linejoin:round">
        <g class="stroked-text">
            <path d="M21.968 17.626v.114M21.968 17.74l.028.057M21.996 17.797l.029.029M22.025 17.826l.085.057M22.11 17.883l.115.028M22.225 17.911h.228M22.453 17.911l.057-.028M22.51 17.883l.029-.029M22.539 17.854l.029-.057M22.568 17.797v-.114M22.568 17.683l-.029-.057M22.539 17.626l-.029-.029M22.51 17.597l-.057-.028M22.453 17.569h-.143M22.31 17.569l-.057.028M22.253 17.597l-.028.029M22.225 17.626l-.029.057M22.196 17.683v.114M22.196 17.797l.029.057M22.225 17.854l.028.029M22.253 17.883l.057.028"/>
        </g>
    </g>
    <g style="fill:none;stroke:#afafaf;stroke-width:.0212;stroke-opacity:1;stroke-linecap:round;stroke-linejoin:round">
        <path d="M21.693 17.44v.6M21.693 18.04a.6.6 0 0 0 1.2 0M22.893 18.04v-.6M22.893 17.44a.6.6 0 0 0-1.2 0"/>
    </g>
    <g style="fill:none;stroke:#afafaf;stroke-width:.05;stroke-opacity:1;stroke-linecap:round;stroke-linejoin:round">
        <g class="stroked-text">
            <path d="M21.968 20.48v-.4M21.968 20.08l.6.257"/>
        </g>
    </g>
    <g style="fill:none;stroke:#afafaf;stroke-width:.0212;stroke-opacity:1;stroke-linecap:round;stroke-linejoin:round">
        <path d="M21.693 19.98v.6M21.693 20.58a.6.6 0 0 0 1.2 0M22.893 20.58v-.6M22.893 19.98a.6.6 0 0 0-1.2 0"/>
    </g>
    <g style="fill:none;stroke:#afafaf;stroke-width:.05;stroke-opacity:1;stroke-linecap:round;stroke-linejoin:round">
        <g class="stroked-text">
            <path d="m22.225 22.877-.029.057M22.196 22.934l-.028.029M22.168 22.963l-.058.028M22.11 22.991h-.028M22.082 22.991l-.057-.028M22.025 22.963l-.029-.029M21.996 22.934l-.028-.057M21.968 22.877v-.114M21.968 22.763l.028-.057M21.996 22.706l.029-.029M22.025 22.677l.057-.028M22.082 22.649h.028M22.11 22.649l.058.028M22.168 22.677l.028.029M22.196 22.706l.029.057M22.225 22.763v.114M22.225 22.877l.028.057M22.253 22.934l.029.029M22.282 22.963l.057.028M22.339 22.991h.114M22.453 22.991l.057-.028M22.51 22.963l.029-.029M22.539 22.934l.029-.057M22.568 22.877v-.114M22.568 22.763l-.029-.057M22.539 22.706l-.029-.029M22.51 22.677l-.057-.028M22.453 22.649h-.114M22.339 22.649l-.057.028M22.282 22.677l-.029.029M22.253 22.706l-.028.057"/>
        </g>
    </g>
    <g style="fill:none;stroke:#afafaf;stroke-width:.0212;stroke-opacity:1;stroke-linecap:round;stroke-linejoin:round">
        <path d="M21.693 22.52v.6M21.693 23.12a.6.6 0 0 0 1.2 0M22.893 23.12v-.6M22.893 22.52a.6.6 0 0 0-1.2 0"/>
    </g>
    <g style="fill:none;stroke:#afafaf;stroke-width:.05;stroke-opacity:1;stroke-linecap:round;stroke-linejoin:round">
        <g class="stroked-text">
            <path d="M22.568 25.474v-.114M22.568 25.36l-.029-.057M22.539 25.303l-.029-.029M22.51 25.274l-.085-.057M22.425 25.217l-.115-.028M22.31 25.189h-.228M22.082 25.189l-.057.028M22.025 25.217l-.029.029M21.996 25.246l-.028.057M21.968 25.303v.114M21.968 25.417l.028.057M21.996 25.474l.029.029M22.025 25.503l.057.028M22.082 25.531h.143M22.225 25.531l.057-.028M22.282 25.503l.028-.029M22.31 25.474l.029-.057M22.339 25.417v-.114M22.339 25.303l-.029-.057M22.31 25.246l-.028-.029M22.282 25.217l-.057-.028"/>
        </g>
    </g>
    <g style="fill:none;stroke:#afafaf;stroke-width:.0212;stroke-opacity:1;stroke-linecap:round;stroke-linejoin:round">
        <path d="M21.693 25.06v.6M21.693 25.66a.6.6 0 0 0 1.2 0M22.893 25.66v-.6M22.893 25.06a.6.6 0 0 0-1.2 0"/>
    </g>
    <g style="fill:none;stroke:#afafaf;stroke-width:.05;stroke-opacity:1;stroke-linecap:round;stroke-linejoin:round">
        <g class="stroked-text">
            <path d="M22.568 28.014v.343M22.568 28.186h-.6M21.968 28.186l.085.057M22.053 28.243l.057.057M22.11 28.3l.029.057M21.968 27.643v-.057M21.968 27.586l.028-.057M21.996 27.529l.029-.029M22.025 27.5l.057-.029M22.082 27.471l.114-.028M22.196 27.443h.143M22.339 27.443l.114.028M22.453 27.471l.057.029M22.51 27.5l.029.029M22.539 27.529l.029.057M22.568 27.586v.057M22.568 27.643l-.029.057M22.539 27.7l-.029.029M22.51 27.729l-.057.028M22.453 27.757l-.114.029M22.339 27.786h-.143M22.196 27.786l-.114-.029M22.082 27.757l-.057-.028M22.025 27.729l-.029-.029M21.996 27.7l-.028-.057"/>
        </g>
    </g>
    <g style="fill:none;stroke:#afafaf;stroke-width:.0212;stroke-opacity:1;stroke-linecap:round;stroke-linejoin:round">
        <path d="M21.693 27.6v.6M21.693 28.2a.6.6 0 0 0 1.2 0M22.893 28.2v-.6M22.893 27.6a.6.6 0 0 0-1.2 0"/>
    </g>
    <g style="fill:none;stroke:#afafaf;stroke-width:.05;stroke-opacity:1;stroke-linecap:round;stroke-linejoin:round">
        <g class="stroked-text">
            <path d="M22.568 30.554v.343M22.568 30.726h-.6M21.968 30.726l.085.057M22.053 30.783l.057.057M22.11 30.84l.029.057M22.568 29.983v.343M22.568 30.154h-.6M21.968 30.154l.085.057M22.053 30.211l.057.058M22.11 30.269l.029.057"/>
        </g>
    </g>
    <g style="fill:none;stroke:#afafaf;stroke-width:.0212;stroke-opacity:1;stroke-linecap:round;stroke-linejoin:round">
        <path d="M21.693 30.14v.6M21.693 30.74a.6.6 0 0 0 1.2 0M22.893 30.74v-.6M22.893 30.14a.6.6 0 0 0-1.2 0"/>
    </g>
    <g style="fill:none;stroke:#afafaf;stroke-width:.05;stroke-opacity:1;stroke-linecap:round;stroke-linejoin:round">
        <g class="stroked-text">
            <path d="M22.568 33.094v.343M22.568 33.266h-.6M21.968 33.266l.085.057M22.053 33.323l.057.057M22.11 33.38l.029.057M22.025 32.866l-.029-.029M21.996 32.837l-.028-.057M21.968 32.78v-.143M21.968 32.637l.028-.057M21.996 32.58l.029-.029M22.025 32.551l.057-.028M22.082 32.523h.057M22.139 32.523l.086.028M22.225 32.551l.343.343M22.568 32.894v-.371"/>
        </g>
    </g>
    <g style="fill:none;stroke:#afafaf;stroke-width:.0212;stroke-opacity:1;stroke-linecap:round;stroke-linejoin:round">
        <path d="M21.693 32.68v.6M21.693 33.28a.6.6 0 0 0 1.2 0M22.893 33.28v-.6M22.893 32.68a.6.6 0 0 0-1.2 0"/>
    </g>
    <g style="fill:none;stroke:#afafaf;stroke-width:.05;stroke-opacity:1;stroke-linecap:round;stroke-linejoin:round">
        <g class="stroked-text">
            <path d="M7.328 33.094v.343M7.328 33.266h-.6M6.728 33.266l.085.057M6.813 33.323l.057.057M6.87 33.38l.029.057M6.728 32.894v-.371M6.728 32.523l.228.2M6.956 32.723v-.086M6.956 32.637l.029-.057M6.985 32.58l.028-.029M7.013 32.551l.057-.028M7.07 32.523h.143M7.213 32.523l.057.028M7.27 32.551l.029.029M7.299 32.58l.029.057M7.328 32.637v.172M7.328 32.809l-.029.057M7.299 32.866l-.029.028"/>
        </g>
    </g>
    <g style="fill:none;stroke:#afafaf;stroke-width:.0212;stroke-opacity:1;stroke-linecap:round;stroke-linejoin:round">
        <path d="M6.453 32.68v.6M6.453 33.28a.6.6 0 0 0 1.2 0M7.653 33.28v-.6M7.653 32.68a.6.6 0 0 0-1.2 0"/>
    </g>
    <g style="fill:none;stroke:#afafaf;stroke-width:.05;stroke-opacity:1;stroke-linecap:round;stroke-linejoin:round">
        <g class="stroked-text">
            <path d="M7.328 30.554v.343M7.328 30.726h-.6M6.728 30.726l.085.057M6.813 30.783l.057.057M6.87 30.84l.029.057M6.928 30.04h.4M6.699 30.183l.429.143M7.128 30.326v-.372"/>
        </g>
    </g>
    <g style="fill:none;stroke:#afafaf;stroke-width:.0212;stroke-opacity:1;stroke-linecap:round;stroke-linejoin:round">
        <path d="M6.453 30.14v.6M6.453 30.74a.6.6 0 0 0 1.2 0M7.653 30.74v-.6M7.653 30.14a.6.6 0 0 0-1.2 0"/>
    </g>
    <g style="fill:none;stroke:#afafaf;stroke-width:.05;stroke-opacity:1;stroke-linecap:round;stroke-linejoin:round">
        <g class="stroked-text">
            <path d="M7.328 28.014v.343M7.328 28.186h-.6M6.728 28.186l.085.057M6.813 28.243l.057.057M6.87 28.3l.029.057M6.728 27.471v.286M6.728 27.757l.285.029M7.013 27.786l-.028-.029M6.985 27.757l-.029-.057M6.956 27.7v-.143M6.956 27.557l.029-.057M6.985 27.5l.028-.029M7.013 27.471l.057-.028M7.07 27.443h.143M7.213 27.443l.057.028M7.27 27.471l.029.029M7.299 27.5l.029.057M7.328 27.557v.143M7.328 27.7l-.029.057M7.299 27.757l-.029.029"/>
        </g>
    </g>
    <g style="fill:none;stroke:#afafaf;stroke-width:.0212;stroke-opacity:1;stroke-linecap:round;stroke-linejoin:round">
        <path d="M6.453 27.6v.6M6.453 28.2a.6.6 0 0 0 1.2 0M7.653 28.2v-.6M7.653 27.6a.6.6 0 0 0-1.2 0"/>
    </g>
    <g style="fill:none;stroke:#afafaf;stroke-width:.05;stroke-opacity:1;stroke-linecap:round;stroke-linejoin:round">
        <g class="stroked-text">
            <path d="M7.328 25.474v.343M7.328 25.646h-.6M6.728 25.646l.085.057M6.813 25.703l.057.057M6.87 25.76l.029.057M6.728 24.96v.114M6.728 25.074l.028.057M6.756 25.131l.029.029M6.785 25.16l.085.057M6.87 25.217l.115.029M6.985 25.246h.228M7.213 25.246l.057-.029M7.27 25.217l.029-.028M7.299 25.189l.029-.058M7.328 25.131v-.114M7.328 25.017l-.029-.057M7.299 24.96l-.029-.029M7.27 24.931l-.057-.028M7.213 24.903H7.07M7.07 24.903l-.057.028M7.013 24.931l-.028.029M6.985 24.96l-.029.057M6.956 25.017v.114M6.956 25.131l.029.058M6.985 25.189l.028.028M7.013 25.217l.057.029"/>
        </g>
    </g>
    <g style="fill:none;stroke:#afafaf;stroke-width:.0212;stroke-opacity:1;stroke-linecap:round;stroke-linejoin:round">
        <path d="M6.453 25.06v.6M6.453 25.66a.6.6 0 0 0 1.2 0M7.653 25.66v-.6M7.653 25.06a.6.6 0 0 0-1.2 0"/>
    </g>
    <g style="fill:none;stroke:#afafaf;stroke-width:.05;stroke-opacity:1;stroke-linecap:round;stroke-linejoin:round">
        <g class="stroked-text">
            <path d="M7.328 22.934v.343M7.328 23.106h-.6M6.728 23.106l.085.057M6.813 23.163l.057.057M6.87 23.22l.029.057M6.728 22.734v-.4M6.728 22.334l.6.257"/>
        </g>
    </g>
    <g style="fill:none;stroke:#afafaf;stroke-width:.0212;stroke-opacity:1;stroke-linecap:round;stroke-linejoin:round">
        <path d="M6.453 22.52v.6M6.453 23.12a.6.6 0 0 0 1.2 0M7.653 23.12v-.6M7.653 22.52a.6.6 0 0 0-1.2 0"/>
    </g>
    <g style="fill:none;stroke:#afafaf;stroke-width:.05;stroke-opacity:1;stroke-linecap:round;stroke-linejoin:round">
        <g class="stroked-text">
            <path d="M7.328 20.394v.343M7.328 20.566h-.6M6.728 20.566l.085.057M6.813 20.623l.057.057M6.87 20.68l.029.057M6.985 20.051l-.029.058M6.956 20.109l-.028.028M6.928 20.137l-.058.029M6.87 20.166h-.028M6.842 20.166l-.057-.029M6.785 20.137l-.029-.028M6.756 20.109l-.028-.058M6.728 20.051v-.114M6.728 19.937l.028-.057M6.756 19.88l.029-.029M6.785 19.851l.057-.028M6.842 19.823h.028M6.87 19.823l.058.028M6.928 19.851l.028.029M6.956 19.88l.029.057M6.985 19.937v.114M6.985 20.051l.028.058M7.013 20.109l.029.028M7.042 20.137l.057.029M7.099 20.166h.114M7.213 20.166l.057-.029M7.27 20.137l.029-.028M7.299 20.109l.029-.058M7.328 20.051v-.114M7.328 19.937l-.029-.057M7.299 19.88l-.029-.029M7.27 19.851l-.057-.028M7.213 19.823H7.1M7.099 19.823l-.057.028M7.042 19.851l-.029.029M7.013 19.88l-.028.057"/>
        </g>
    </g>
    <g style="fill:none;stroke:#afafaf;stroke-width:.0212;stroke-opacity:1;stroke-linecap:round;stroke-linejoin:round">
        <path d="M6.453 19.98v.6M6.453 20.58a.6.6 0 0 0 1.2 0M7.653 20.58v-.6M7.653 19.98a.6.6 0 0 0-1.2 0"/>
    </g>
    <g style="fill:none;stroke:#afafaf;stroke-width:.05;stroke-opacity:1;stroke-linecap:round;stroke-linejoin:round">
        <g class="stroked-text">
            <path d="M7.328 17.854v.343M7.328 18.026h-.6M6.728 18.026l.085.057M6.813 18.083l.057.057M6.87 18.14l.029.057M7.328 17.569v-.115M7.328 17.454l-.029-.057M7.299 17.397l-.029-.028M7.27 17.369l-.085-.058M7.185 17.311l-.115-.028M7.07 17.283h-.228M6.842 17.283l-.057.028M6.785 17.311l-.029.029M6.756 17.34l-.028.057M6.728 17.397v.114M6.728 17.511l.028.058M6.756 17.569l.029.028M6.785 17.597l.057.029M6.842 17.626h.143M6.985 17.626l.057-.029M7.042 17.597l.028-.028M7.07 17.569l.029-.058M7.099 17.511v-.114M7.099 17.397l-.029-.057M7.07 17.34l-.028-.029M7.042 17.311l-.057-.028"/>
        </g>
    </g>
    <g style="fill:none;stroke:#afafaf;stroke-width:.0212;stroke-opacity:1;stroke-linecap:round;stroke-linejoin:round">
        <path d="M6.453 17.44v.6M6.453 18.04a.6.6 0 0 0 1.2 0M7.653 18.04v-.6M7.653 17.44a.6.6 0 0 0-1.2 0"/>
    </g>
    <g style="fill:none;stroke:#afafaf;stroke-width:.05;stroke-opacity:1;stroke-linecap:round;stroke-linejoin:round">
        <g class="stroked-text">
            <path d="m6.785 15.657-.029-.028M6.756 15.629l-.028-.058M6.728 15.571v-.142M6.728 15.429l.028-.058M6.756 15.371l.029-.028M6.785 15.343l.057-.029M6.842 15.314h.057M6.899 15.314l.086.029M6.985 15.343l.343.343M7.328 15.686v-.372M6.728 14.943v-.057M6.728 14.886l.028-.057M6.756 14.829l.029-.029M6.785 14.8l.057-.029M6.842 14.771l.114-.028M6.956 14.743H7.1M7.099 14.743l.114.028M7.213 14.771l.057.029M7.27 14.8l.029.029M7.299 14.829l.029.057M7.328 14.886v.057M7.328 14.943 7.299 15M7.299 15l-.029.029M7.27 15.029l-.057.028M7.213 15.057l-.114.029M7.099 15.086h-.143M6.956 15.086l-.114-.029M6.842 15.057l-.057-.028M6.785 15.029 6.756 15M6.756 15l-.028-.057"/>
        </g>
    </g>
    <g style="fill:none;stroke:#afafaf;stroke-width:.0212;stroke-opacity:1;stroke-linecap:round;stroke-linejoin:round">
        <path d="M6.453 14.9v.6M6.453 15.5a.6.6 0 0 0 1.2 0M7.653 15.5v-.6M7.653 14.9a.6.6 0 0 0-1.2 0"/>
    </g>
    <g style="fill:none;stroke:#afafaf;stroke-width:.05;stroke-opacity:1;stroke-linecap:round;stroke-linejoin:round">
        <g class="stroked-text">
            <path d="m6.785 13.117-.029-.028M6.756 13.089l-.028-.058M6.728 13.031v-.142M6.728 12.889l.028-.058M6.756 12.831l.029-.028M6.785 12.803l.057-.029M6.842 12.774h.057M6.899 12.774l.086.029M6.985 12.803l.343.343M7.328 13.146v-.372M7.328 12.203v.343M7.328 12.374h-.6M6.728 12.374l.085.057M6.813 12.431l.057.058M6.87 12.489l.029.057"/>
        </g>
    </g>
    <g style="fill:none;stroke:#afafaf;stroke-width:.0212;stroke-opacity:1;stroke-linecap:round;stroke-linejoin:round">
        <path d="M6.453 12.36v.6M6.453 12.96a.6.6 0 0 0 1.2 0M7.653 12.96v-.6M7.653 12.36a.6.6 0 0 0-1.2 0"/>
    </g>
    <g style="fill:none;stroke:#afafaf;stroke-width:.05;stroke-opacity:1;stroke-linecap:round;stroke-linejoin:round">
        <g class="stroked-text">
            <path d="m6.785 10.577-.029-.028M6.756 10.549l-.028-.058M6.728 10.491v-.142M6.728 10.349l.028-.058M6.756 10.291l.029-.028M6.785 10.263l.057-.029M6.842 10.234h.057M6.899 10.234l.086.029M6.985 10.263l.343.343M7.328 10.606v-.372M6.785 10.006l-.029-.029M6.756 9.977l-.028-.057M6.728 9.92v-.143M6.728 9.777l.028-.057M6.756 9.72l.029-.029M6.785 9.691l.057-.028M6.842 9.663h.057M6.899 9.663l.086.028M6.985 9.691l.343.343M7.328 10.034v-.371"/>
        </g>
    </g>
    <g style="fill:none;stroke:#afafaf;stroke-width:.0212;stroke-opacity:1;stroke-linecap:round;stroke-linejoin:round">
        <path d="M6.453 9.82v.6M6.453 10.42a.6.6 0 0 0 1.2 0M7.653 10.42v-.6M7.653 9.82a.6.6 0 0 0-1.2 0"/>
    </g>
    <g style="fill:none;stroke:#afafaf;stroke-width:.05;stroke-opacity:1;stroke-linecap:round;stroke-linejoin:round">
        <g class="stroked-text">
            <path d="m6.785 8.037-.029-.028M6.756 8.009l-.028-.058M6.728 7.951V7.81M6.728 7.809l.028-.058M6.756 7.751l.029-.028M6.785 7.723l.057-.029M6.842 7.694h.057M6.899 7.694l.086.029M6.985 7.723l.343.343M7.328 8.066v-.372M6.728 7.494v-.371M6.728 7.123l.228.2M6.956 7.323v-.086M6.956 7.237l.029-.057M6.985 7.18l.028-.029M7.013 7.151l.057-.028M7.07 7.123h.143M7.213 7.123l.057.028M7.27 7.151l.029.029M7.299 7.18l.029.057M7.328 7.237v.172M7.328 7.409l-.029.057M7.299 7.466l-.029.028"/>
        </g>
    </g>
    <g style="fill:none;stroke:#afafaf;stroke-width:.0212;stroke-opacity:1;stroke-linecap:round;stroke-linejoin:round">
        <path d="M6.453 7.28v.6M6.453 7.88a.6.6 0 0 0 1.2 0M7.653 7.88v-.6M7.653 7.28a.6.6 0 0 0-1.2 0"/>
    </g>
    <g style="fill:none;stroke:#afafaf;stroke-width:.05;stroke-opacity:1;stroke-linecap:round;stroke-linejoin:round">
        <g class="stroked-text">
            <path d="m6.785 5.497-.029-.028M6.756 5.469l-.028-.058M6.728 5.411V5.27M6.728 5.269l.028-.058M6.756 5.211l.029-.028M6.785 5.183l.057-.029M6.842 5.154h.057M6.899 5.154l.086.029M6.985 5.183l.343.343M7.328 5.526v-.372M6.928 4.64h.4M6.699 4.783l.429.143M7.128 4.926v-.372"/>
        </g>
    </g>
    <g style="fill:none;stroke:#afafaf;stroke-width:.0212;stroke-opacity:1;stroke-linecap:round;stroke-linejoin:round">
        <path d="M6.453 4.74v.6M6.453 5.34a.6.6 0 0 0 1.2 0M7.653 5.34v-.6M7.653 4.74a.6.6 0 0 0-1.2 0"/>
    </g>
</svg>
