<svg xmlns="http://www.w3.org/2000/svg" width="70.464" height="102.72" viewBox="0 0 18.644 27.178">
    <g class="stroked-text" style="fill:none;stroke:#f2eda1;stroke-width:.15;stroke-opacity:1;stroke-linecap:round;stroke-linejoin:round">
        <path d="m7.992 12.285-.334-.476M7.42 12.285v-1M7.42 11.285h.381M7.801 11.285l.095.047M7.896 11.332l.048.048M7.944 11.38l.048.095M7.992 11.475v.143M7.992 11.618l-.048.095M7.944 11.713l-.048.048M7.896 11.761l-.095.048M7.801 11.809h-.38M8.42 11.761h.334M8.896 12.285H8.42M8.42 12.285v-1M8.42 11.285h.476M9.658 11.761h-.333M9.325 12.285v-1M9.325 11.285h.476M10.325 11.285v.238M10.087 11.428l.238.095M10.325 11.523l.238-.095M10.182 11.713l.143-.19M10.325 11.523l.143.19M11.087 11.285v.238M10.849 11.428l.238.095M11.087 11.523l.238-.095M10.944 11.713l.143-.19M11.087 11.523l.143.19"/>
    </g>
    <g style="fill:none;stroke:#f2eda1;stroke-width:.12;stroke-opacity:1;stroke-linecap:round;stroke-linejoin:round">
        <path d="M.225 23.85V1.44M15.831 2.14v1.6M17.325 24.95h-16M18.425 4.43v-.44M18.425 6.97v-.44M18.425 9.51v-.44M18.425 12.05v-.44M18.425 14.59v-.44M18.425 16.69v.44M18.425 19.67v-.44M18.425 22.21v-.44M18.425 23.85V1.44M.225 23.85a1.1 1.1 0 0 0 1.1 1.1M17.325 24.95a1.1 1.1 0 0 0 1.1-1.1"/>
        <path stroke="none" d="m17.54 2.09.098.02.082.055.056.082.019.098v1.19l-.02.098-.055.082-.082.056-.098.019h-1.19l-.098-.02-.082-.055-.056-.082-.019-.098v-1.19l.02-.098.055-.082.082-.056.098-.019Z" style="fill:#4d7fc4;fill-opacity:1;stroke:none;fill-rule:evenodd"/>
    </g>
    <circle cx="16.945" cy="5.48" r=".85" style="fill:#4d7fc4;fill-opacity:1;stroke:none"/>
    <circle cx="16.945" cy="8.02" r=".85" style="fill:#4d7fc4;fill-opacity:1;stroke:none"/>
    <circle cx="16.945" cy="10.56" r=".85" style="fill:#4d7fc4;fill-opacity:1;stroke:none"/>
    <circle cx="16.945" cy="13.1" r=".85" style="fill:#4d7fc4;fill-opacity:1;stroke:none"/>
    <circle cx="16.945" cy="15.64" r=".85" style="fill:#4d7fc4;fill-opacity:1;stroke:none"/>
    <circle cx="16.945" cy="18.18" r=".85" style="fill:#4d7fc4;fill-opacity:1;stroke:none"/>
    <circle cx="16.945" cy="20.72" r=".85" style="fill:#4d7fc4;fill-opacity:1;stroke:none"/>
    <circle cx="16.945" cy="23.26" r=".85" style="fill:#4d7fc4;fill-opacity:1;stroke:none"/>
    <circle cx="14.405" cy="23.26" r=".85" style="fill:#4d7fc4;fill-opacity:1;stroke:none"/>
    <circle cx="11.865" cy="23.26" r=".85" style="fill:#4d7fc4;fill-opacity:1;stroke:none"/>
    <circle cx="9.325" cy="23.26" r=".85" style="fill:#4d7fc4;fill-opacity:1;stroke:none"/>
    <circle cx="6.785" cy="23.26" r=".85" style="fill:#4d7fc4;fill-opacity:1;stroke:none"/>
    <circle cx="4.245" cy="23.26" r=".85" style="fill:#4d7fc4;fill-opacity:1;stroke:none"/>
    <circle cx="1.705" cy="23.26" r=".85" style="fill:#4d7fc4;fill-opacity:1;stroke:none"/>
    <circle cx="1.705" cy="20.72" r=".85" style="fill:#4d7fc4;fill-opacity:1;stroke:none"/>
    <circle cx="1.705" cy="18.18" r=".85" style="fill:#4d7fc4;fill-opacity:1;stroke:none"/>
    <circle cx="1.705" cy="15.64" r=".85" style="fill:#4d7fc4;fill-opacity:1;stroke:none"/>
    <circle cx="1.705" cy="13.1" r=".85" style="fill:#4d7fc4;fill-opacity:1;stroke:none"/>
    <circle cx="1.705" cy="10.56" r=".85" style="fill:#4d7fc4;fill-opacity:1;stroke:none"/>
    <circle cx="1.705" cy="8.02" r=".85" style="fill:#4d7fc4;fill-opacity:1;stroke:none"/>
    <circle cx="1.705" cy="5.48" r=".85" style="fill:#4d7fc4;fill-opacity:1;stroke:none"/>
    <g style="fill:#4d7fc4;fill-opacity:1;stroke:none">
        <circle cx="1.705" cy="2.94" r=".85"/>
        <path d="m17.54 2.09.098.02.082.055.056.082.019.098v1.19l-.02.098-.055.082-.082.056-.098.019h-1.19l-.098-.02-.082-.055-.056-.082-.019-.098v-1.19l.02-.098.055-.082.082-.056.098-.019Z" style="fill:#c83434;fill-opacity:1;stroke:none;fill-rule:evenodd"/>
    </g>
    <circle cx="16.945" cy="5.48" r=".85" style="fill:#c83434;fill-opacity:1;stroke:none"/>
    <circle cx="16.945" cy="8.02" r=".85" style="fill:#c83434;fill-opacity:1;stroke:none"/>
    <circle cx="16.945" cy="10.56" r=".85" style="fill:#c83434;fill-opacity:1;stroke:none"/>
    <circle cx="16.945" cy="13.1" r=".85" style="fill:#c83434;fill-opacity:1;stroke:none"/>
    <circle cx="16.945" cy="15.64" r=".85" style="fill:#c83434;fill-opacity:1;stroke:none"/>
    <circle cx="16.945" cy="18.18" r=".85" style="fill:#c83434;fill-opacity:1;stroke:none"/>
    <circle cx="16.945" cy="20.72" r=".85" style="fill:#c83434;fill-opacity:1;stroke:none"/>
    <circle cx="16.945" cy="23.26" r=".85" style="fill:#c83434;fill-opacity:1;stroke:none"/>
    <circle cx="14.405" cy="23.26" r=".85" style="fill:#c83434;fill-opacity:1;stroke:none"/>
    <circle cx="11.865" cy="23.26" r=".85" style="fill:#c83434;fill-opacity:1;stroke:none"/>
    <circle cx="9.325" cy="23.26" r=".85" style="fill:#c83434;fill-opacity:1;stroke:none"/>
    <circle cx="6.785" cy="23.26" r=".85" style="fill:#c83434;fill-opacity:1;stroke:none"/>
    <circle cx="4.245" cy="23.26" r=".85" style="fill:#c83434;fill-opacity:1;stroke:none"/>
    <circle cx="1.705" cy="23.26" r=".85" style="fill:#c83434;fill-opacity:1;stroke:none"/>
    <circle cx="1.705" cy="20.72" r=".85" style="fill:#c83434;fill-opacity:1;stroke:none"/>
    <circle cx="1.705" cy="18.18" r=".85" style="fill:#c83434;fill-opacity:1;stroke:none"/>
    <circle cx="1.705" cy="15.64" r=".85" style="fill:#c83434;fill-opacity:1;stroke:none"/>
    <circle cx="1.705" cy="13.1" r=".85" style="fill:#c83434;fill-opacity:1;stroke:none"/>
    <circle cx="1.705" cy="10.56" r=".85" style="fill:#c83434;fill-opacity:1;stroke:none"/>
    <circle cx="1.705" cy="8.02" r=".85" style="fill:#c83434;fill-opacity:1;stroke:none"/>
    <circle cx="1.705" cy="5.48" r=".85" style="fill:#c83434;fill-opacity:1;stroke:none"/>
    <circle cx="1.705" cy="2.94" r=".85" style="fill:#c83434;fill-opacity:1;stroke:none"/>
    <g style="fill:none;stroke:#585d84;stroke-width:.0472;stroke-opacity:1;stroke-linecap:round;stroke-linejoin:round">
        <g class="stroked-text">
            <path d="M17.107 3.2h-.324M16.945 3.2v-.567M16.945 2.633l-.054.081M16.891 2.714l-.054.054M16.837 2.768l-.054.027"/>
        </g>
        <path d="m17.54 2.09.098.02.082.055.056.082.019.098v1.19l-.02.098-.055.082-.082.056-.098.019h-1.19l-.098-.02-.082-.055-.056-.082-.019-.098v-1.19l.02-.098.055-.082.082-.056.098-.019Z" style="stroke:#585d84;stroke-width:.0212;stroke-opacity:1;stroke-linecap:round;stroke-linejoin:round;fill:none"/>
    </g>
    <g class="stroked-text" style="fill:none;stroke:#585d84;stroke-width:.0472;stroke-opacity:1;stroke-linecap:round;stroke-linejoin:round">
        <path d="m16.783 5.227.027-.027M16.81 5.2l.054-.027M16.864 5.173h.135M16.999 5.173l.054.027M17.053 5.2l.027.027M17.08 5.227l.027.054M17.107 5.281v.054M17.107 5.335l-.027.08M17.08 5.416l-.324.324M16.756 5.74h.35"/>
    </g>
    <circle cx="16.945" cy="5.48" r=".85" style="fill:none;stroke:#585d84;stroke-width:.0212;stroke-opacity:1;stroke-linecap:round;stroke-linejoin:round"/>
    <g class="stroked-text" style="fill:none;stroke:#585d84;stroke-width:.0472;stroke-opacity:1;stroke-linecap:round;stroke-linejoin:round">
        <path d="M16.756 7.713h.35M17.107 7.713l-.189.216M16.918 7.929h.081M16.999 7.929l.054.027M17.053 7.956l.027.027M17.08 7.983l.027.054M17.107 8.037v.135M17.107 8.172l-.027.054M17.08 8.226l-.027.027M17.053 8.253l-.054.027M16.999 8.28h-.162M16.837 8.28l-.054-.027M16.783 8.253l-.027-.027"/>
    </g>
    <circle cx="16.945" cy="8.02" r=".85" style="fill:none;stroke:#585d84;stroke-width:.0212;stroke-opacity:1;stroke-linecap:round;stroke-linejoin:round"/>
    <g class="stroked-text" style="fill:none;stroke:#585d84;stroke-width:.0472;stroke-opacity:1;stroke-linecap:round;stroke-linejoin:round">
        <path d="M17.053 10.442v.378M16.918 10.226l-.135.405M16.783 10.63h.35"/>
    </g>
    <circle cx="16.945" cy="10.56" r=".85" style="fill:none;stroke:#585d84;stroke-width:.0212;stroke-opacity:1;stroke-linecap:round;stroke-linejoin:round"/>
    <g class="stroked-text" style="fill:none;stroke:#585d84;stroke-width:.0472;stroke-opacity:1;stroke-linecap:round;stroke-linejoin:round">
        <path d="M17.08 12.793h-.27M16.81 12.793l-.027.27M16.783 13.063l.027-.027M16.81 13.036l.054-.027M16.864 13.009h.135M16.999 13.009l.054.027M17.053 13.036l.027.027M17.08 13.063l.027.054M17.107 13.117v.135M17.107 13.252l-.027.054M17.08 13.306l-.027.027M17.053 13.333l-.054.027M16.999 13.36h-.135M16.864 13.36l-.054-.027M16.81 13.333l-.027-.027"/>
    </g>
    <circle cx="16.945" cy="13.1" r=".85" style="fill:none;stroke:#585d84;stroke-width:.0212;stroke-opacity:1;stroke-linecap:round;stroke-linejoin:round"/>
    <g class="stroked-text" style="fill:none;stroke:#585d84;stroke-width:.0472;stroke-opacity:1;stroke-linecap:round;stroke-linejoin:round">
        <path d="M17.053 15.333h-.108M16.945 15.333l-.054.027M16.891 15.36l-.027.027M16.864 15.387l-.054.08M16.81 15.468l-.027.108M16.783 15.576v.216M16.783 15.792l.027.054M16.81 15.846l.027.027M16.837 15.873l.054.027M16.891 15.9h.108M16.999 15.9l.054-.027M17.053 15.873l.027-.027M17.08 15.846l.027-.054M17.107 15.792v-.135M17.107 15.657l-.027-.054M17.08 15.603l-.027-.027M17.053 15.576l-.054-.027M16.999 15.549h-.108M16.891 15.549l-.054.027M16.837 15.576l-.027.027M16.81 15.603l-.027.054"/>
    </g>
    <circle cx="16.945" cy="15.64" r=".85" style="fill:none;stroke:#585d84;stroke-width:.0212;stroke-opacity:1;stroke-linecap:round;stroke-linejoin:round"/>
    <g class="stroked-text" style="fill:none;stroke:#585d84;stroke-width:.0472;stroke-opacity:1;stroke-linecap:round;stroke-linejoin:round">
        <path d="M16.756 17.873h.378M17.134 17.873l-.243.567"/>
    </g>
    <circle cx="16.945" cy="18.18" r=".85" style="fill:none;stroke:#585d84;stroke-width:.0212;stroke-opacity:1;stroke-linecap:round;stroke-linejoin:round"/>
    <g class="stroked-text" style="fill:none;stroke:#585d84;stroke-width:.0472;stroke-opacity:1;stroke-linecap:round;stroke-linejoin:round">
        <path d="m16.891 20.656-.054-.027M16.837 20.629l-.027-.027M16.81 20.602l-.027-.054M16.783 20.548v-.027M16.783 20.521l.027-.054M16.81 20.467l.027-.027M16.837 20.44l.054-.027M16.891 20.413h.108M16.999 20.413l.054.027M17.053 20.44l.027.027M17.08 20.467l.027.054M17.107 20.521v.027M17.107 20.548l-.027.054M17.08 20.602l-.027.027M17.053 20.629l-.054.027M16.999 20.656h-.108M16.891 20.656l-.054.027M16.837 20.683l-.027.027M16.81 20.71l-.027.054M16.783 20.764v.108M16.783 20.872l.027.054M16.81 20.926l.027.027M16.837 20.953l.054.027M16.891 20.98h.108M16.999 20.98l.054-.027M17.053 20.953l.027-.027M17.08 20.926l.027-.054M17.107 20.872v-.108M17.107 20.764l-.027-.054M17.08 20.71l-.027-.027M17.053 20.683l-.054-.027"/>
    </g>
    <circle cx="16.945" cy="20.72" r=".85" style="fill:none;stroke:#585d84;stroke-width:.0212;stroke-opacity:1;stroke-linecap:round;stroke-linejoin:round"/>
    <g class="stroked-text" style="fill:none;stroke:#585d84;stroke-width:.0472;stroke-opacity:1;stroke-linecap:round;stroke-linejoin:round">
        <path d="M16.837 23.52h.108M16.945 23.52l.054-.027M16.999 23.493l.027-.027M17.026 23.466l.054-.081M17.08 23.385l.027-.108M17.107 23.277v-.216M17.107 23.061l-.027-.054M17.08 23.007l-.027-.027M17.053 22.98l-.054-.027M16.999 22.953h-.108M16.891 22.953l-.054.027M16.837 22.98l-.027.027M16.81 23.007l-.027.054M16.783 23.061v.135M16.783 23.196l.027.054M16.81 23.25l.027.027M16.837 23.277l.054.027M16.891 23.304h.108M16.999 23.304l.054-.027M17.053 23.277l.027-.027M17.08 23.25l.027-.054"/>
    </g>
    <circle cx="16.945" cy="23.26" r=".85" style="fill:none;stroke:#585d84;stroke-width:.0212;stroke-opacity:1;stroke-linecap:round;stroke-linejoin:round"/>
    <g class="stroked-text" style="fill:none;stroke:#585d84;stroke-width:.0472;stroke-opacity:1;stroke-linecap:round;stroke-linejoin:round">
        <path d="M14.297 23.52h-.324M14.135 23.52v-.567M14.135 22.953l-.054.081M14.081 23.034l-.054.054M14.027 23.088l-.054.027M14.648 22.953h.054M14.702 22.953l.054.027M14.756 22.98l.027.027M14.783 23.007l.027.054M14.81 23.061l.027.108M14.837 23.169v.135M14.837 23.304l-.027.108M14.81 23.412l-.027.054M14.783 23.466l-.027.027M14.756 23.493l-.054.027M14.702 23.52h-.054M14.648 23.52l-.054-.027M14.594 23.493l-.027-.027M14.567 23.466l-.027-.054M14.54 23.412l-.027-.108M14.513 23.304v-.135M14.513 23.169l.027-.108M14.54 23.061l.027-.054M14.567 23.007l.027-.027M14.594 22.98l.054-.027"/>
    </g>
    <circle cx="14.405" cy="23.26" r=".85" style="fill:none;stroke:#585d84;stroke-width:.0212;stroke-opacity:1;stroke-linecap:round;stroke-linejoin:round"/>
    <g class="stroked-text" style="fill:none;stroke:#585d84;stroke-width:.0472;stroke-opacity:1;stroke-linecap:round;stroke-linejoin:round">
        <path d="M11.757 23.52h-.324M11.595 23.52v-.567M11.595 22.953l-.054.081M11.541 23.034l-.054.054M11.487 23.088l-.054.027M12.297 23.52h-.324M12.135 23.52v-.567M12.135 22.953l-.054.081M12.08 23.034l-.053.054M12.027 23.088l-.054.027"/>
    </g>
    <circle cx="11.865" cy="23.26" r=".85" style="fill:none;stroke:#585d84;stroke-width:.0212;stroke-opacity:1;stroke-linecap:round;stroke-linejoin:round"/>
    <g class="stroked-text" style="fill:none;stroke:#585d84;stroke-width:.0472;stroke-opacity:1;stroke-linecap:round;stroke-linejoin:round">
        <path d="M9.217 23.52h-.324M9.055 23.52v-.567M9.055 22.953l-.054.081M9.001 23.034l-.054.054M8.947 23.088l-.054.027M9.433 23.007l.027-.027M9.46 22.98l.054-.027M9.514 22.953h.135M9.649 22.953l.054.027M9.703 22.98l.027.027M9.73 23.007l.027.054M9.757 23.061v.054M9.757 23.115l-.027.08M9.73 23.196l-.324.324M9.406 23.52h.35"/>
    </g>
    <circle cx="9.325" cy="23.26" r=".85" style="fill:none;stroke:#585d84;stroke-width:.0212;stroke-opacity:1;stroke-linecap:round;stroke-linejoin:round"/>
    <g class="stroked-text" style="fill:none;stroke:#585d84;stroke-width:.0472;stroke-opacity:1;stroke-linecap:round;stroke-linejoin:round">
        <path d="M6.677 23.52h-.324M6.515 23.52v-.567M6.515 22.953l-.054.081M6.461 23.034l-.054.054M6.407 23.088l-.054.027M6.866 22.953h.35M7.217 22.953l-.19.216M7.028 23.169h.08M7.109 23.169l.054.027M7.163 23.196l.027.027M7.19 23.223l.027.054M7.217 23.277v.135M7.217 23.412l-.027.054M7.19 23.466l-.027.027M7.163 23.493l-.054.027M7.109 23.52h-.162M6.947 23.52l-.054-.027M6.893 23.493l-.027-.027"/>
    </g>
    <circle cx="6.785" cy="23.26" r=".85" style="fill:none;stroke:#585d84;stroke-width:.0212;stroke-opacity:1;stroke-linecap:round;stroke-linejoin:round"/>
    <g class="stroked-text" style="fill:none;stroke:#585d84;stroke-width:.0472;stroke-opacity:1;stroke-linecap:round;stroke-linejoin:round">
        <path d="M4.137 23.52h-.324M3.975 23.52v-.567M3.975 22.953l-.054.081M3.921 23.034l-.054.054M3.867 23.088l-.054.027M4.623 23.142v.378M4.488 22.926l-.135.405M4.353 23.33h.35"/>
    </g>
    <circle cx="4.245" cy="23.26" r=".85" style="fill:none;stroke:#585d84;stroke-width:.0212;stroke-opacity:1;stroke-linecap:round;stroke-linejoin:round"/>
    <g class="stroked-text" style="fill:none;stroke:#585d84;stroke-width:.0472;stroke-opacity:1;stroke-linecap:round;stroke-linejoin:round">
        <path d="M1.597 23.52h-.324M1.435 23.52v-.567M1.435 22.953l-.054.081M1.381 23.034l-.054.054M1.327 23.088l-.054.027M2.11 22.953h-.27M1.84 22.953l-.027.27M1.813 23.223l.027-.027M1.84 23.196l.054-.027M1.894 23.169h.135M2.029 23.169l.054.027M2.083 23.196l.027.027M2.11 23.223l.027.054M2.137 23.277v.135M2.137 23.412l-.027.054M2.11 23.466l-.027.027M2.083 23.493l-.054.027M2.029 23.52h-.135M1.894 23.52l-.054-.027M1.84 23.493l-.027-.027"/>
    </g>
    <circle cx="1.705" cy="23.26" r=".85" style="fill:none;stroke:#585d84;stroke-width:.0212;stroke-opacity:1;stroke-linecap:round;stroke-linejoin:round"/>
    <g class="stroked-text" style="fill:none;stroke:#585d84;stroke-width:.0472;stroke-opacity:1;stroke-linecap:round;stroke-linejoin:round">
        <path d="M1.597 20.98h-.324M1.435 20.98v-.567M1.435 20.413l-.054.081M1.381 20.494l-.054.054M1.327 20.548l-.054.027M2.083 20.413h-.108M1.975 20.413l-.054.027M1.92 20.44l-.026.027M1.894 20.467l-.054.08M1.84 20.548l-.027.108M1.813 20.656v.216M1.813 20.872l.027.054M1.84 20.926l.027.027M1.867 20.953l.054.027M1.92 20.98h.109M2.029 20.98l.054-.027M2.083 20.953l.027-.027M2.11 20.926l.027-.054M2.137 20.872v-.135M2.137 20.737l-.027-.054M2.11 20.683l-.027-.027M2.083 20.656l-.054-.027M2.029 20.629H1.92M1.92 20.629l-.053.027M1.867 20.656l-.027.027M1.84 20.683l-.027.054"/>
    </g>
    <circle cx="1.705" cy="20.72" r=".85" style="fill:none;stroke:#585d84;stroke-width:.0212;stroke-opacity:1;stroke-linecap:round;stroke-linejoin:round"/>
    <g class="stroked-text" style="fill:none;stroke:#585d84;stroke-width:.0472;stroke-opacity:1;stroke-linecap:round;stroke-linejoin:round">
        <path d="M1.597 18.44h-.324M1.435 18.44v-.567M1.435 17.873l-.054.081M1.381 17.954l-.054.054M1.327 18.008l-.054.027M1.786 17.873h.378M2.164 17.873l-.243.567"/>
    </g>
    <circle cx="1.705" cy="18.18" r=".85" style="fill:none;stroke:#585d84;stroke-width:.0212;stroke-opacity:1;stroke-linecap:round;stroke-linejoin:round"/>
    <g class="stroked-text" style="fill:none;stroke:#585d84;stroke-width:.0472;stroke-opacity:1;stroke-linecap:round;stroke-linejoin:round">
        <path d="M1.597 15.9h-.324M1.435 15.9v-.567M1.435 15.333l-.054.081M1.381 15.414l-.054.054M1.327 15.468l-.054.027M1.92 15.576l-.053-.027M1.867 15.549l-.027-.027M1.84 15.522l-.027-.054M1.813 15.468v-.027M1.813 15.441l.027-.054M1.84 15.387l.027-.027M1.867 15.36l.054-.027M1.92 15.333h.109M2.029 15.333l.054.027M2.083 15.36l.027.027M2.11 15.387l.027.054M2.137 15.441v.027M2.137 15.468l-.027.054M2.11 15.522l-.027.027M2.083 15.549l-.054.027M2.029 15.576H1.92M1.92 15.576l-.053.027M1.867 15.603l-.027.027M1.84 15.63l-.027.054M1.813 15.684v.108M1.813 15.792l.027.054M1.84 15.846l.027.027M1.867 15.873l.054.027M1.92 15.9h.109M2.029 15.9l.054-.027M2.083 15.873l.027-.027M2.11 15.846l.027-.054M2.137 15.792v-.108M2.137 15.684l-.027-.054M2.11 15.63l-.027-.027M2.083 15.603l-.054-.027"/>
    </g>
    <circle cx="1.705" cy="15.64" r=".85" style="fill:none;stroke:#585d84;stroke-width:.0212;stroke-opacity:1;stroke-linecap:round;stroke-linejoin:round"/>
    <g class="stroked-text" style="fill:none;stroke:#585d84;stroke-width:.0472;stroke-opacity:1;stroke-linecap:round;stroke-linejoin:round">
        <path d="M1.597 13.36h-.324M1.435 13.36v-.567M1.435 12.793l-.054.081M1.381 12.874l-.054.054M1.327 12.928l-.054.027M1.867 13.36h.108M1.975 13.36l.054-.027M2.029 13.333l.027-.027M2.056 13.306l.054-.081M2.11 13.225l.027-.108M2.137 13.117V12.9M2.137 12.901l-.027-.054M2.11 12.847l-.027-.027M2.083 12.82l-.054-.027M2.029 12.793H1.92M1.92 12.793l-.053.027M1.867 12.82l-.027.027M1.84 12.847l-.027.054M1.813 12.901v.135M1.813 13.036l.027.054M1.84 13.09l.027.027M1.867 13.117l.054.027M1.92 13.144h.109M2.029 13.144l.054-.027M2.083 13.117l.027-.027M2.11 13.09l.027-.054"/>
    </g>
    <circle cx="1.705" cy="13.1" r=".85" style="fill:none;stroke:#585d84;stroke-width:.0212;stroke-opacity:1;stroke-linecap:round;stroke-linejoin:round"/>
    <g class="stroked-text" style="fill:none;stroke:#585d84;stroke-width:.0472;stroke-opacity:1;stroke-linecap:round;stroke-linejoin:round">
        <path d="m1.273 10.307.027-.027M1.3 10.28l.054-.027M1.354 10.253h.135M1.49 10.253l.053.027M1.543 10.28l.027.027M1.57 10.307l.027.054M1.597 10.361v.054M1.597 10.415l-.027.08M1.57 10.496l-.324.324M1.246 10.82h.351M1.948 10.253h.054M2.002 10.253l.054.027M2.056 10.28l.027.027M2.083 10.307l.027.054M2.11 10.361l.027.108M2.137 10.469v.135M2.137 10.604l-.027.108M2.11 10.712l-.027.054M2.083 10.766l-.027.027M2.056 10.793l-.054.027M2.002 10.82h-.054M1.948 10.82l-.054-.027M1.894 10.793l-.027-.027M1.867 10.766l-.027-.054M1.84 10.712l-.027-.108M1.813 10.604v-.135M1.813 10.469l.027-.108M1.84 10.361l.027-.054M1.867 10.307l.027-.027M1.894 10.28l.054-.027"/>
    </g>
    <circle cx="1.705" cy="10.56" r=".85" style="fill:none;stroke:#585d84;stroke-width:.0212;stroke-opacity:1;stroke-linecap:round;stroke-linejoin:round"/>
    <g class="stroked-text" style="fill:none;stroke:#585d84;stroke-width:.0472;stroke-opacity:1;stroke-linecap:round;stroke-linejoin:round">
        <path d="M1.273 7.767 1.3 7.74M1.3 7.74l.054-.027M1.354 7.713h.135M1.49 7.713l.053.027M1.543 7.74l.027.027M1.57 7.767l.027.054M1.597 7.821v.054M1.597 7.875l-.027.08M1.57 7.956l-.324.324M1.246 8.28h.351M2.137 8.28h-.324M1.975 8.28v-.567M1.975 7.713l-.054.081M1.92 7.794l-.053.054M1.867 7.848l-.054.027"/>
    </g>
    <circle cx="1.705" cy="8.02" r=".85" style="fill:none;stroke:#585d84;stroke-width:.0212;stroke-opacity:1;stroke-linecap:round;stroke-linejoin:round"/>
    <g class="stroked-text" style="fill:none;stroke:#585d84;stroke-width:.0472;stroke-opacity:1;stroke-linecap:round;stroke-linejoin:round">
        <path d="M1.273 5.227 1.3 5.2M1.3 5.2l.054-.027M1.354 5.173h.135M1.49 5.173l.053.027M1.543 5.2l.027.027M1.57 5.227l.027.054M1.597 5.281v.054M1.597 5.335l-.027.08M1.57 5.416l-.324.324M1.246 5.74h.351M1.813 5.227 1.84 5.2M1.84 5.2l.054-.027M1.894 5.173h.135M2.029 5.173l.054.027M2.083 5.2l.027.027M2.11 5.227l.027.054M2.137 5.281v.054M2.137 5.335l-.027.08M2.11 5.416l-.324.324M1.786 5.74h.35"/>
    </g>
    <circle cx="1.705" cy="5.48" r=".85" style="fill:none;stroke:#585d84;stroke-width:.0212;stroke-opacity:1;stroke-linecap:round;stroke-linejoin:round"/>
    <g class="stroked-text" style="fill:none;stroke:#585d84;stroke-width:.0472;stroke-opacity:1;stroke-linecap:round;stroke-linejoin:round">
        <path d="M1.273 2.687 1.3 2.66M1.3 2.66l.054-.027M1.354 2.633h.135M1.49 2.633l.053.027M1.543 2.66l.027.027M1.57 2.687l.027.054M1.597 2.741v.054M1.597 2.795l-.027.08M1.57 2.876l-.324.324M1.246 3.2h.351M1.786 2.633h.35M2.137 2.633l-.19.216M1.948 2.849h.08M2.029 2.849l.054.027M2.083 2.876l.027.027M2.11 2.903l.027.054M2.137 2.957v.135M2.137 3.092l-.027.054M2.11 3.146l-.027.027M2.083 3.173l-.054.027M2.029 3.2h-.162M1.867 3.2l-.054-.027M1.813 3.173l-.027-.027"/>
    </g>
    <circle cx="1.705" cy="2.94" r=".85" style="fill:none;stroke:#585d84;stroke-width:.0212;stroke-opacity:1;stroke-linecap:round;stroke-linejoin:round"/>
    <g style="fill:none;stroke:#afafaf;stroke-width:.15;stroke-opacity:1;stroke-linecap:round;stroke-linejoin:round">
        <g class="stroked-text">
            <path d="M.73 26.795v-1M.73 25.795l.333.714M1.063 26.51l.333-.715M1.396 25.795v1M2.444 26.7l-.048.047M2.396 26.747l-.142.048M2.254 26.795h-.096M2.158 26.795l-.143-.048M2.015 26.747l-.095-.095M1.92 26.652l-.047-.095M1.873 26.557l-.048-.19M1.825 26.366v-.143M1.825 26.223l.048-.19M1.873 26.033l.047-.095M1.92 25.938l.095-.096M2.015 25.842l.143-.047M2.158 25.795h.096M2.254 25.795l.142.047M2.396 25.842l.048.048M2.873 25.795v.81M2.873 26.604l.047.096M2.92 26.7l.048.047M2.968 26.747l.095.048M3.063 26.795h.19M3.254 26.795l.095-.048M3.349 26.747l.047-.047M3.396 26.7l.048-.096M3.444 26.604v-.81M3.682 26.89h.762M5.254 26.795l-.334-.476M4.682 26.795v-1M4.682 25.795h.381M5.063 25.795l.095.047M5.158 25.842l.048.048M5.206 25.89l.048.095M5.254 25.985v.143M5.254 26.128l-.048.095M5.206 26.223l-.048.048M5.158 26.271l-.095.048M5.063 26.319h-.38M5.682 26.795v-1M5.682 25.795h.381M6.063 25.795l.095.047M6.158 25.842l.048.048M6.206 25.89l.048.095M6.254 25.985v.143M6.254 26.128l-.048.095M6.206 26.223l-.048.048M6.158 26.271l-.095.048M6.063 26.319h-.38M6.635 25.89l.047-.048M6.682 25.842l.095-.047M6.777 25.795h.239M7.016 25.795l.095.047M7.11 25.842l.048.048M7.158 25.89l.048.095M7.206 25.985v.096M7.206 26.08l-.048.143M7.158 26.223l-.571.572M6.587 26.795h.619M7.825 25.795h.095M7.92 25.795l.095.047M8.015 25.842l.048.048M8.063 25.89l.048.095M8.11 25.985l.048.19M8.158 26.176v.238M8.158 26.414l-.047.19M8.11 26.604l-.047.096M8.063 26.7l-.048.047M8.015 26.747l-.095.048M7.92 26.795h-.095M7.825 26.795l-.095-.048M7.73 26.747l-.048-.047M7.682 26.7l-.048-.096M7.635 26.604l-.048-.19M7.587 26.414v-.238M7.587 26.176l.048-.19M7.635 25.985l.047-.095M7.682 25.89l.048-.048M7.73 25.842l.095-.047M9.016 26.128v.667M8.777 25.747l-.238.715M8.54 26.462h.618M9.73 25.795h.095M9.825 25.795l.095.047M9.92 25.842l.048.048M9.968 25.89l.047.095M10.016 25.985l.047.19M10.063 26.176v.238M10.063 26.414l-.048.19M10.016 26.604l-.048.096M9.968 26.7l-.048.047M9.92 26.747l-.095.048M9.825 26.795H9.73M9.73 26.795l-.096-.048M9.635 26.747l-.048-.047M9.587 26.7l-.048-.096M9.54 26.604l-.048-.19M9.492 26.414v-.238M9.492 26.176l.047-.19M9.54 25.985l.047-.095M9.587 25.89l.047-.048M9.635 25.842l.095-.047M10.492 26.414h.762M11.635 25.795h.666M12.301 25.795l-.667 1M11.635 26.795h.666M13.063 26.747l-.095.048M12.968 26.795h-.19M12.777 26.795l-.095-.048M12.682 26.747l-.048-.095M12.635 26.652v-.381M12.635 26.271l.047-.095M12.682 26.176l.095-.048M12.777 26.128h.19M12.968 26.128l.095.048M13.063 26.176l.048.095M13.11 26.271v.095M13.11 26.366l-.476.096M13.54 26.795v-.667M13.54 26.319l.047-.096M13.587 26.223l.047-.047M13.635 26.176l.095-.048M13.73 26.128h.095M14.301 26.795l-.095-.048M14.206 26.747l-.048-.047M14.158 26.7l-.047-.096M14.11 26.604v-.285M14.11 26.319l.048-.096M14.158 26.223l.048-.047M14.206 26.176l.095-.048M14.301 26.128h.143M14.444 26.128l.095.048M14.54 26.176l.047.047M14.587 26.223l.047.096M14.635 26.319v.285M14.635 26.604l-.048.096M14.587 26.7l-.048.047M14.54 26.747l-.096.048M14.444 26.795h-.143M14.825 26.89h.762M15.682 25.795h.572M15.968 26.795v-1M16.587 26.795v-1M16.587 26.271h.571M17.158 26.795v-1M17.492 25.795h.571M17.777 26.795v-1"/>
        </g>
        <g class="stroked-text">
            <path d="m7.992 12.285-.334-.476M7.42 12.285v-1M7.42 11.285h.381M7.801 11.285l.095.047M7.896 11.332l.048.048M7.944 11.38l.048.095M7.992 11.475v.143M7.992 11.618l-.048.095M7.944 11.713l-.048.048M7.896 11.761l-.095.048M7.801 11.809h-.38M8.42 11.761h.334M8.896 12.285H8.42M8.42 12.285v-1M8.42 11.285h.476M9.658 11.761h-.333M9.325 12.285v-1M9.325 11.285h.476M10.325 11.285v.238M10.087 11.428l.238.095M10.325 11.523l.238-.095M10.182 11.713l.143-.19M10.325 11.523l.143.19M11.087 11.285v.238M10.849 11.428l.238.095M11.087 11.523l.238-.095M10.944 11.713l.143-.19M11.087 11.523l.143.19"/>
        </g>
    </g>
    <g style="fill:none;stroke:#afafaf;stroke-width:.1;stroke-opacity:1;stroke-linecap:round;stroke-linejoin:round">
        <path d="M.325 23.85V2.35M1.325 1.35h16M17.325 24.85h-16M18.325 2.35v21.5"/>
        <path d="M4.995.05h8.66v1.3h-8.66Z" style="stroke:#afafaf;stroke-width:.1;stroke-opacity:1;stroke-linecap:round;stroke-linejoin:round;fill:none"/>
        <path d="M1.325 1.35a1 1 0 0 0-1 1M.325 23.85a1 1 0 0 0 1 1M18.325 2.35a1 1 0 0 0-1-1M17.325 24.85a1 1 0 0 0 1-1"/>
    </g>
    <g style="fill:none;stroke:#afafaf;stroke-width:.0472;stroke-opacity:1;stroke-linecap:round;stroke-linejoin:round">
        <g class="stroked-text">
            <path d="M17.107 3.2h-.324M16.945 3.2v-.567M16.945 2.633l-.054.081M16.891 2.714l-.054.054M16.837 2.768l-.054.027"/>
        </g>
        <path d="m17.54 2.09.098.02.082.055.056.082.019.098v1.19l-.02.098-.055.082-.082.056-.098.019h-1.19l-.098-.02-.082-.055-.056-.082-.019-.098v-1.19l.02-.098.055-.082.082-.056.098-.019Z" style="stroke:#afafaf;stroke-width:.0212;stroke-opacity:1;stroke-linecap:round;stroke-linejoin:round;fill:none"/>
    </g>
    <g class="stroked-text" style="fill:none;stroke:#afafaf;stroke-width:.0472;stroke-opacity:1;stroke-linecap:round;stroke-linejoin:round">
        <path d="m16.783 5.227.027-.027M16.81 5.2l.054-.027M16.864 5.173h.135M16.999 5.173l.054.027M17.053 5.2l.027.027M17.08 5.227l.027.054M17.107 5.281v.054M17.107 5.335l-.027.08M17.08 5.416l-.324.324M16.756 5.74h.35"/>
    </g>
    <circle cx="16.945" cy="5.48" r=".85" style="fill:none;stroke:#afafaf;stroke-width:.0212;stroke-opacity:1;stroke-linecap:round;stroke-linejoin:round"/>
    <g class="stroked-text" style="fill:none;stroke:#afafaf;stroke-width:.0472;stroke-opacity:1;stroke-linecap:round;stroke-linejoin:round">
        <path d="M16.756 7.713h.35M17.107 7.713l-.189.216M16.918 7.929h.081M16.999 7.929l.054.027M17.053 7.956l.027.027M17.08 7.983l.027.054M17.107 8.037v.135M17.107 8.172l-.027.054M17.08 8.226l-.027.027M17.053 8.253l-.054.027M16.999 8.28h-.162M16.837 8.28l-.054-.027M16.783 8.253l-.027-.027"/>
    </g>
    <circle cx="16.945" cy="8.02" r=".85" style="fill:none;stroke:#afafaf;stroke-width:.0212;stroke-opacity:1;stroke-linecap:round;stroke-linejoin:round"/>
    <g class="stroked-text" style="fill:none;stroke:#afafaf;stroke-width:.0472;stroke-opacity:1;stroke-linecap:round;stroke-linejoin:round">
        <path d="M17.053 10.442v.378M16.918 10.226l-.135.405M16.783 10.63h.35"/>
    </g>
    <circle cx="16.945" cy="10.56" r=".85" style="fill:none;stroke:#afafaf;stroke-width:.0212;stroke-opacity:1;stroke-linecap:round;stroke-linejoin:round"/>
    <g class="stroked-text" style="fill:none;stroke:#afafaf;stroke-width:.0472;stroke-opacity:1;stroke-linecap:round;stroke-linejoin:round">
        <path d="M17.08 12.793h-.27M16.81 12.793l-.027.27M16.783 13.063l.027-.027M16.81 13.036l.054-.027M16.864 13.009h.135M16.999 13.009l.054.027M17.053 13.036l.027.027M17.08 13.063l.027.054M17.107 13.117v.135M17.107 13.252l-.027.054M17.08 13.306l-.027.027M17.053 13.333l-.054.027M16.999 13.36h-.135M16.864 13.36l-.054-.027M16.81 13.333l-.027-.027"/>
    </g>
    <circle cx="16.945" cy="13.1" r=".85" style="fill:none;stroke:#afafaf;stroke-width:.0212;stroke-opacity:1;stroke-linecap:round;stroke-linejoin:round"/>
    <g class="stroked-text" style="fill:none;stroke:#afafaf;stroke-width:.0472;stroke-opacity:1;stroke-linecap:round;stroke-linejoin:round">
        <path d="M17.053 15.333h-.108M16.945 15.333l-.054.027M16.891 15.36l-.027.027M16.864 15.387l-.054.08M16.81 15.468l-.027.108M16.783 15.576v.216M16.783 15.792l.027.054M16.81 15.846l.027.027M16.837 15.873l.054.027M16.891 15.9h.108M16.999 15.9l.054-.027M17.053 15.873l.027-.027M17.08 15.846l.027-.054M17.107 15.792v-.135M17.107 15.657l-.027-.054M17.08 15.603l-.027-.027M17.053 15.576l-.054-.027M16.999 15.549h-.108M16.891 15.549l-.054.027M16.837 15.576l-.027.027M16.81 15.603l-.027.054"/>
    </g>
    <circle cx="16.945" cy="15.64" r=".85" style="fill:none;stroke:#afafaf;stroke-width:.0212;stroke-opacity:1;stroke-linecap:round;stroke-linejoin:round"/>
    <g class="stroked-text" style="fill:none;stroke:#afafaf;stroke-width:.0472;stroke-opacity:1;stroke-linecap:round;stroke-linejoin:round">
        <path d="M16.756 17.873h.378M17.134 17.873l-.243.567"/>
    </g>
    <circle cx="16.945" cy="18.18" r=".85" style="fill:none;stroke:#afafaf;stroke-width:.0212;stroke-opacity:1;stroke-linecap:round;stroke-linejoin:round"/>
    <g class="stroked-text" style="fill:none;stroke:#afafaf;stroke-width:.0472;stroke-opacity:1;stroke-linecap:round;stroke-linejoin:round">
        <path d="m16.891 20.656-.054-.027M16.837 20.629l-.027-.027M16.81 20.602l-.027-.054M16.783 20.548v-.027M16.783 20.521l.027-.054M16.81 20.467l.027-.027M16.837 20.44l.054-.027M16.891 20.413h.108M16.999 20.413l.054.027M17.053 20.44l.027.027M17.08 20.467l.027.054M17.107 20.521v.027M17.107 20.548l-.027.054M17.08 20.602l-.027.027M17.053 20.629l-.054.027M16.999 20.656h-.108M16.891 20.656l-.054.027M16.837 20.683l-.027.027M16.81 20.71l-.027.054M16.783 20.764v.108M16.783 20.872l.027.054M16.81 20.926l.027.027M16.837 20.953l.054.027M16.891 20.98h.108M16.999 20.98l.054-.027M17.053 20.953l.027-.027M17.08 20.926l.027-.054M17.107 20.872v-.108M17.107 20.764l-.027-.054M17.08 20.71l-.027-.027M17.053 20.683l-.054-.027"/>
    </g>
    <circle cx="16.945" cy="20.72" r=".85" style="fill:none;stroke:#afafaf;stroke-width:.0212;stroke-opacity:1;stroke-linecap:round;stroke-linejoin:round"/>
    <g class="stroked-text" style="fill:none;stroke:#afafaf;stroke-width:.0472;stroke-opacity:1;stroke-linecap:round;stroke-linejoin:round">
        <path d="M16.837 23.52h.108M16.945 23.52l.054-.027M16.999 23.493l.027-.027M17.026 23.466l.054-.081M17.08 23.385l.027-.108M17.107 23.277v-.216M17.107 23.061l-.027-.054M17.08 23.007l-.027-.027M17.053 22.98l-.054-.027M16.999 22.953h-.108M16.891 22.953l-.054.027M16.837 22.98l-.027.027M16.81 23.007l-.027.054M16.783 23.061v.135M16.783 23.196l.027.054M16.81 23.25l.027.027M16.837 23.277l.054.027M16.891 23.304h.108M16.999 23.304l.054-.027M17.053 23.277l.027-.027M17.08 23.25l.027-.054"/>
    </g>
    <circle cx="16.945" cy="23.26" r=".85" style="fill:none;stroke:#afafaf;stroke-width:.0212;stroke-opacity:1;stroke-linecap:round;stroke-linejoin:round"/>
    <g class="stroked-text" style="fill:none;stroke:#afafaf;stroke-width:.0472;stroke-opacity:1;stroke-linecap:round;stroke-linejoin:round">
        <path d="M14.297 23.52h-.324M14.135 23.52v-.567M14.135 22.953l-.054.081M14.081 23.034l-.054.054M14.027 23.088l-.054.027M14.648 22.953h.054M14.702 22.953l.054.027M14.756 22.98l.027.027M14.783 23.007l.027.054M14.81 23.061l.027.108M14.837 23.169v.135M14.837 23.304l-.027.108M14.81 23.412l-.027.054M14.783 23.466l-.027.027M14.756 23.493l-.054.027M14.702 23.52h-.054M14.648 23.52l-.054-.027M14.594 23.493l-.027-.027M14.567 23.466l-.027-.054M14.54 23.412l-.027-.108M14.513 23.304v-.135M14.513 23.169l.027-.108M14.54 23.061l.027-.054M14.567 23.007l.027-.027M14.594 22.98l.054-.027"/>
    </g>
    <circle cx="14.405" cy="23.26" r=".85" style="fill:none;stroke:#afafaf;stroke-width:.0212;stroke-opacity:1;stroke-linecap:round;stroke-linejoin:round"/>
    <g class="stroked-text" style="fill:none;stroke:#afafaf;stroke-width:.0472;stroke-opacity:1;stroke-linecap:round;stroke-linejoin:round">
        <path d="M11.757 23.52h-.324M11.595 23.52v-.567M11.595 22.953l-.054.081M11.541 23.034l-.054.054M11.487 23.088l-.054.027M12.297 23.52h-.324M12.135 23.52v-.567M12.135 22.953l-.054.081M12.08 23.034l-.053.054M12.027 23.088l-.054.027"/>
    </g>
    <circle cx="11.865" cy="23.26" r=".85" style="fill:none;stroke:#afafaf;stroke-width:.0212;stroke-opacity:1;stroke-linecap:round;stroke-linejoin:round"/>
    <g class="stroked-text" style="fill:none;stroke:#afafaf;stroke-width:.0472;stroke-opacity:1;stroke-linecap:round;stroke-linejoin:round">
        <path d="M9.217 23.52h-.324M9.055 23.52v-.567M9.055 22.953l-.054.081M9.001 23.034l-.054.054M8.947 23.088l-.054.027M9.433 23.007l.027-.027M9.46 22.98l.054-.027M9.514 22.953h.135M9.649 22.953l.054.027M9.703 22.98l.027.027M9.73 23.007l.027.054M9.757 23.061v.054M9.757 23.115l-.027.08M9.73 23.196l-.324.324M9.406 23.52h.35"/>
    </g>
    <circle cx="9.325" cy="23.26" r=".85" style="fill:none;stroke:#afafaf;stroke-width:.0212;stroke-opacity:1;stroke-linecap:round;stroke-linejoin:round"/>
    <g class="stroked-text" style="fill:none;stroke:#afafaf;stroke-width:.0472;stroke-opacity:1;stroke-linecap:round;stroke-linejoin:round">
        <path d="M6.677 23.52h-.324M6.515 23.52v-.567M6.515 22.953l-.054.081M6.461 23.034l-.054.054M6.407 23.088l-.054.027M6.866 22.953h.35M7.217 22.953l-.19.216M7.028 23.169h.08M7.109 23.169l.054.027M7.163 23.196l.027.027M7.19 23.223l.027.054M7.217 23.277v.135M7.217 23.412l-.027.054M7.19 23.466l-.027.027M7.163 23.493l-.054.027M7.109 23.52h-.162M6.947 23.52l-.054-.027M6.893 23.493l-.027-.027"/>
    </g>
    <circle cx="6.785" cy="23.26" r=".85" style="fill:none;stroke:#afafaf;stroke-width:.0212;stroke-opacity:1;stroke-linecap:round;stroke-linejoin:round"/>
    <g class="stroked-text" style="fill:none;stroke:#afafaf;stroke-width:.0472;stroke-opacity:1;stroke-linecap:round;stroke-linejoin:round">
        <path d="M4.137 23.52h-.324M3.975 23.52v-.567M3.975 22.953l-.054.081M3.921 23.034l-.054.054M3.867 23.088l-.054.027M4.623 23.142v.378M4.488 22.926l-.135.405M4.353 23.33h.35"/>
    </g>
    <circle cx="4.245" cy="23.26" r=".85" style="fill:none;stroke:#afafaf;stroke-width:.0212;stroke-opacity:1;stroke-linecap:round;stroke-linejoin:round"/>
    <g class="stroked-text" style="fill:none;stroke:#afafaf;stroke-width:.0472;stroke-opacity:1;stroke-linecap:round;stroke-linejoin:round">
        <path d="M1.597 23.52h-.324M1.435 23.52v-.567M1.435 22.953l-.054.081M1.381 23.034l-.054.054M1.327 23.088l-.054.027M2.11 22.953h-.27M1.84 22.953l-.027.27M1.813 23.223l.027-.027M1.84 23.196l.054-.027M1.894 23.169h.135M2.029 23.169l.054.027M2.083 23.196l.027.027M2.11 23.223l.027.054M2.137 23.277v.135M2.137 23.412l-.027.054M2.11 23.466l-.027.027M2.083 23.493l-.054.027M2.029 23.52h-.135M1.894 23.52l-.054-.027M1.84 23.493l-.027-.027"/>
    </g>
    <circle cx="1.705" cy="23.26" r=".85" style="fill:none;stroke:#afafaf;stroke-width:.0212;stroke-opacity:1;stroke-linecap:round;stroke-linejoin:round"/>
    <g class="stroked-text" style="fill:none;stroke:#afafaf;stroke-width:.0472;stroke-opacity:1;stroke-linecap:round;stroke-linejoin:round">
        <path d="M1.597 20.98h-.324M1.435 20.98v-.567M1.435 20.413l-.054.081M1.381 20.494l-.054.054M1.327 20.548l-.054.027M2.083 20.413h-.108M1.975 20.413l-.054.027M1.92 20.44l-.026.027M1.894 20.467l-.054.08M1.84 20.548l-.027.108M1.813 20.656v.216M1.813 20.872l.027.054M1.84 20.926l.027.027M1.867 20.953l.054.027M1.92 20.98h.109M2.029 20.98l.054-.027M2.083 20.953l.027-.027M2.11 20.926l.027-.054M2.137 20.872v-.135M2.137 20.737l-.027-.054M2.11 20.683l-.027-.027M2.083 20.656l-.054-.027M2.029 20.629H1.92M1.92 20.629l-.053.027M1.867 20.656l-.027.027M1.84 20.683l-.027.054"/>
    </g>
    <circle cx="1.705" cy="20.72" r=".85" style="fill:none;stroke:#afafaf;stroke-width:.0212;stroke-opacity:1;stroke-linecap:round;stroke-linejoin:round"/>
    <g class="stroked-text" style="fill:none;stroke:#afafaf;stroke-width:.0472;stroke-opacity:1;stroke-linecap:round;stroke-linejoin:round">
        <path d="M1.597 18.44h-.324M1.435 18.44v-.567M1.435 17.873l-.054.081M1.381 17.954l-.054.054M1.327 18.008l-.054.027M1.786 17.873h.378M2.164 17.873l-.243.567"/>
    </g>
    <circle cx="1.705" cy="18.18" r=".85" style="fill:none;stroke:#afafaf;stroke-width:.0212;stroke-opacity:1;stroke-linecap:round;stroke-linejoin:round"/>
    <g class="stroked-text" style="fill:none;stroke:#afafaf;stroke-width:.0472;stroke-opacity:1;stroke-linecap:round;stroke-linejoin:round">
        <path d="M1.597 15.9h-.324M1.435 15.9v-.567M1.435 15.333l-.054.081M1.381 15.414l-.054.054M1.327 15.468l-.054.027M1.92 15.576l-.053-.027M1.867 15.549l-.027-.027M1.84 15.522l-.027-.054M1.813 15.468v-.027M1.813 15.441l.027-.054M1.84 15.387l.027-.027M1.867 15.36l.054-.027M1.92 15.333h.109M2.029 15.333l.054.027M2.083 15.36l.027.027M2.11 15.387l.027.054M2.137 15.441v.027M2.137 15.468l-.027.054M2.11 15.522l-.027.027M2.083 15.549l-.054.027M2.029 15.576H1.92M1.92 15.576l-.053.027M1.867 15.603l-.027.027M1.84 15.63l-.027.054M1.813 15.684v.108M1.813 15.792l.027.054M1.84 15.846l.027.027M1.867 15.873l.054.027M1.92 15.9h.109M2.029 15.9l.054-.027M2.083 15.873l.027-.027M2.11 15.846l.027-.054M2.137 15.792v-.108M2.137 15.684l-.027-.054M2.11 15.63l-.027-.027M2.083 15.603l-.054-.027"/>
    </g>
    <circle cx="1.705" cy="15.64" r=".85" style="fill:none;stroke:#afafaf;stroke-width:.0212;stroke-opacity:1;stroke-linecap:round;stroke-linejoin:round"/>
    <g class="stroked-text" style="fill:none;stroke:#afafaf;stroke-width:.0472;stroke-opacity:1;stroke-linecap:round;stroke-linejoin:round">
        <path d="M1.597 13.36h-.324M1.435 13.36v-.567M1.435 12.793l-.054.081M1.381 12.874l-.054.054M1.327 12.928l-.054.027M1.867 13.36h.108M1.975 13.36l.054-.027M2.029 13.333l.027-.027M2.056 13.306l.054-.081M2.11 13.225l.027-.108M2.137 13.117V12.9M2.137 12.901l-.027-.054M2.11 12.847l-.027-.027M2.083 12.82l-.054-.027M2.029 12.793H1.92M1.92 12.793l-.053.027M1.867 12.82l-.027.027M1.84 12.847l-.027.054M1.813 12.901v.135M1.813 13.036l.027.054M1.84 13.09l.027.027M1.867 13.117l.054.027M1.92 13.144h.109M2.029 13.144l.054-.027M2.083 13.117l.027-.027M2.11 13.09l.027-.054"/>
    </g>
    <circle cx="1.705" cy="13.1" r=".85" style="fill:none;stroke:#afafaf;stroke-width:.0212;stroke-opacity:1;stroke-linecap:round;stroke-linejoin:round"/>
    <g class="stroked-text" style="fill:none;stroke:#afafaf;stroke-width:.0472;stroke-opacity:1;stroke-linecap:round;stroke-linejoin:round">
        <path d="m1.273 10.307.027-.027M1.3 10.28l.054-.027M1.354 10.253h.135M1.49 10.253l.053.027M1.543 10.28l.027.027M1.57 10.307l.027.054M1.597 10.361v.054M1.597 10.415l-.027.08M1.57 10.496l-.324.324M1.246 10.82h.351M1.948 10.253h.054M2.002 10.253l.054.027M2.056 10.28l.027.027M2.083 10.307l.027.054M2.11 10.361l.027.108M2.137 10.469v.135M2.137 10.604l-.027.108M2.11 10.712l-.027.054M2.083 10.766l-.027.027M2.056 10.793l-.054.027M2.002 10.82h-.054M1.948 10.82l-.054-.027M1.894 10.793l-.027-.027M1.867 10.766l-.027-.054M1.84 10.712l-.027-.108M1.813 10.604v-.135M1.813 10.469l.027-.108M1.84 10.361l.027-.054M1.867 10.307l.027-.027M1.894 10.28l.054-.027"/>
    </g>
    <circle cx="1.705" cy="10.56" r=".85" style="fill:none;stroke:#afafaf;stroke-width:.0212;stroke-opacity:1;stroke-linecap:round;stroke-linejoin:round"/>
    <g class="stroked-text" style="fill:none;stroke:#afafaf;stroke-width:.0472;stroke-opacity:1;stroke-linecap:round;stroke-linejoin:round">
        <path d="M1.273 7.767 1.3 7.74M1.3 7.74l.054-.027M1.354 7.713h.135M1.49 7.713l.053.027M1.543 7.74l.027.027M1.57 7.767l.027.054M1.597 7.821v.054M1.597 7.875l-.027.08M1.57 7.956l-.324.324M1.246 8.28h.351M2.137 8.28h-.324M1.975 8.28v-.567M1.975 7.713l-.054.081M1.92 7.794l-.053.054M1.867 7.848l-.054.027"/>
    </g>
    <circle cx="1.705" cy="8.02" r=".85" style="fill:none;stroke:#afafaf;stroke-width:.0212;stroke-opacity:1;stroke-linecap:round;stroke-linejoin:round"/>
    <g class="stroked-text" style="fill:none;stroke:#afafaf;stroke-width:.0472;stroke-opacity:1;stroke-linecap:round;stroke-linejoin:round">
        <path d="M1.273 5.227 1.3 5.2M1.3 5.2l.054-.027M1.354 5.173h.135M1.49 5.173l.053.027M1.543 5.2l.027.027M1.57 5.227l.027.054M1.597 5.281v.054M1.597 5.335l-.027.08M1.57 5.416l-.324.324M1.246 5.74h.351M1.813 5.227 1.84 5.2M1.84 5.2l.054-.027M1.894 5.173h.135M2.029 5.173l.054.027M2.083 5.2l.027.027M2.11 5.227l.027.054M2.137 5.281v.054M2.137 5.335l-.027.08M2.11 5.416l-.324.324M1.786 5.74h.35"/>
    </g>
    <circle cx="1.705" cy="5.48" r=".85" style="fill:none;stroke:#afafaf;stroke-width:.0212;stroke-opacity:1;stroke-linecap:round;stroke-linejoin:round"/>
    <g class="stroked-text" style="fill:none;stroke:#afafaf;stroke-width:.0472;stroke-opacity:1;stroke-linecap:round;stroke-linejoin:round">
        <path d="M1.273 2.687 1.3 2.66M1.3 2.66l.054-.027M1.354 2.633h.135M1.49 2.633l.053.027M1.543 2.66l.027.027M1.57 2.687l.027.054M1.597 2.741v.054M1.597 2.795l-.027.08M1.57 2.876l-.324.324M1.246 3.2h.351M1.786 2.633h.35M2.137 2.633l-.19.216M1.948 2.849h.08M2.029 2.849l.054.027M2.083 2.876l.027.027M2.11 2.903l.027.054M2.137 2.957v.135M2.137 3.092l-.027.054M2.11 3.146l-.027.027M2.083 3.173l-.054.027M2.029 3.2h-.162M1.867 3.2l-.054-.027M1.813 3.173l-.027-.027"/>
    </g>
    <circle cx="1.705" cy="2.94" r=".85" style="fill:none;stroke:#afafaf;stroke-width:.0212;stroke-opacity:1;stroke-linecap:round;stroke-linejoin:round"/>
</svg>
