<svg xmlns="http://www.w3.org/2000/svg" width="80.544" height="207.84" viewBox="0 0 21.311 54.991">
    <g class="stroked-text" style="fill:none;stroke:#f2eda1;stroke-width:.15;stroke-opacity:1;stroke-linecap:round;stroke-linejoin:round">
        <path d="m9.327 5.715-.334-.476M8.755 5.715v-1M8.755 4.715h.381M9.136 4.715l.095.047M9.231 4.762l.048.048M9.279 4.81l.048.095M9.327 4.905v.143M9.327 5.048l-.048.095M9.279 5.143l-.048.048M9.231 5.191l-.095.048M9.136 5.239h-.38M9.755 5.191h.334M10.231 5.715h-.476M9.755 5.715v-1M9.755 4.715h.476M10.993 5.191h-.333M10.66 5.715v-1M10.66 4.715h.476M11.66 4.715v.238M11.422 4.858l.238.095M11.66 4.953l.238-.095M11.517 5.143l.143-.19M11.66 4.953l.143.19M12.422 4.715v.238M12.184 4.858l.238.095M12.422 4.953l.238-.095M12.279 5.143l.143-.19M12.422 4.953l.143.19"/>
    </g>
    <g style="fill:none;stroke:#f2eda1;stroke-width:.12;stroke-opacity:1;stroke-linecap:round;stroke-linejoin:round">
        <path d="M.06 1.25v51.2M.06 1.25h21.2M2.874 3.52v-1.6M21.26 1.25v51.2M21.26 52.45H.06"/>
        <path stroke="none" d="m.92 2.125.02-.098.055-.082.082-.056.098-.019h1.19l.098.02.082.055.056.082.019.098v1.19l-.02.098-.055.082-.082.056-.098.019h-1.19l-.098-.02-.082-.055-.056-.082-.019-.098Z" style="fill:#4d7fc4;fill-opacity:1;stroke:none;fill-rule:evenodd"/>
    </g>
    <g style="fill:#4d7fc4;fill-opacity:1;stroke:none">
        <circle cx="1.77" cy="5.26" r=".85"/>
        <path d="m.92 7.375.425-.425h1.02l.098.02.082.055.056.082.019.098v1.19l-.02.098-.055.082-.082.056-.098.019h-1.02L.92 8.225Z" style="fill:#4d7fc4;fill-opacity:1;stroke:none;fill-rule:evenodd"/>
    </g>
    <circle cx="1.77" cy="10.34" r=".85" style="fill:#4d7fc4;fill-opacity:1;stroke:none"/>
    <circle cx="1.77" cy="12.88" r=".85" style="fill:#4d7fc4;fill-opacity:1;stroke:none"/>
    <circle cx="1.77" cy="15.42" r=".85" style="fill:#4d7fc4;fill-opacity:1;stroke:none"/>
    <g style="fill:#4d7fc4;fill-opacity:1;stroke:none">
        <circle cx="1.77" cy="17.96" r=".85"/>
        <path d="m.92 20.075.425-.425h1.02l.098.02.082.055.056.082.019.098v1.19l-.02.098-.055.082-.082.056-.098.019h-1.02l-.425-.425Z" style="fill:#4d7fc4;fill-opacity:1;stroke:none;fill-rule:evenodd"/>
    </g>
    <circle cx="1.77" cy="23.04" r=".85" style="fill:#4d7fc4;fill-opacity:1;stroke:none"/>
    <circle cx="1.77" cy="25.58" r=".85" style="fill:#4d7fc4;fill-opacity:1;stroke:none"/>
    <circle cx="1.77" cy="28.12" r=".85" style="fill:#4d7fc4;fill-opacity:1;stroke:none"/>
    <g style="fill:#4d7fc4;fill-opacity:1;stroke:none">
        <circle cx="1.77" cy="30.66" r=".85"/>
        <path d="m.92 32.775.425-.425h1.02l.098.02.082.055.056.082.019.098v1.19l-.02.098-.055.082-.082.056-.098.019h-1.02l-.425-.425Z" style="fill:#4d7fc4;fill-opacity:1;stroke:none;fill-rule:evenodd"/>
    </g>
    <circle cx="1.77" cy="35.74" r=".85" style="fill:#4d7fc4;fill-opacity:1;stroke:none"/>
    <circle cx="1.77" cy="38.28" r=".85" style="fill:#4d7fc4;fill-opacity:1;stroke:none"/>
    <circle cx="1.77" cy="40.82" r=".85" style="fill:#4d7fc4;fill-opacity:1;stroke:none"/>
    <g style="fill:#4d7fc4;fill-opacity:1;stroke:none">
        <circle cx="1.77" cy="43.36" r=".85"/>
        <path d="m.92 45.475.425-.425h1.02l.098.02.082.055.056.082.019.098v1.19l-.02.098-.055.082-.082.056-.098.019h-1.02l-.425-.425Z" style="fill:#4d7fc4;fill-opacity:1;stroke:none;fill-rule:evenodd"/>
    </g>
    <circle cx="1.77" cy="48.44" r=".85" style="fill:#4d7fc4;fill-opacity:1;stroke:none"/>
    <circle cx="1.77" cy="50.98" r=".85" style="fill:#4d7fc4;fill-opacity:1;stroke:none"/>
    <circle cx="19.55" cy="50.98" r=".85" style="fill:#4d7fc4;fill-opacity:1;stroke:none"/>
    <g style="fill:#4d7fc4;fill-opacity:1;stroke:none">
        <circle cx="19.55" cy="48.44" r=".85"/>
        <path d="m18.7 45.305.02-.098.055-.082.082-.056.098-.019h1.02l.425.425v.85l-.425.425h-1.02l-.098-.02-.082-.055-.056-.082-.019-.098Z" style="fill:#4d7fc4;fill-opacity:1;stroke:none;fill-rule:evenodd"/>
    </g>
    <circle cx="19.55" cy="43.36" r=".85" style="fill:#4d7fc4;fill-opacity:1;stroke:none"/>
    <circle cx="19.55" cy="40.82" r=".85" style="fill:#4d7fc4;fill-opacity:1;stroke:none"/>
    <circle cx="19.55" cy="38.28" r=".85" style="fill:#4d7fc4;fill-opacity:1;stroke:none"/>
    <g style="fill:#4d7fc4;fill-opacity:1;stroke:none">
        <circle cx="19.55" cy="35.74" r=".85"/>
        <path d="m18.7 32.605.02-.098.055-.082.082-.056.098-.019h1.02l.425.425v.85l-.425.425h-1.02l-.098-.02-.082-.055-.056-.082-.019-.098Z" style="fill:#4d7fc4;fill-opacity:1;stroke:none;fill-rule:evenodd"/>
    </g>
    <circle cx="19.55" cy="30.66" r=".85" style="fill:#4d7fc4;fill-opacity:1;stroke:none"/>
    <circle cx="19.55" cy="28.12" r=".85" style="fill:#4d7fc4;fill-opacity:1;stroke:none"/>
    <circle cx="19.55" cy="25.58" r=".85" style="fill:#4d7fc4;fill-opacity:1;stroke:none"/>
    <g style="fill:#4d7fc4;fill-opacity:1;stroke:none">
        <circle cx="19.55" cy="23.04" r=".85"/>
        <path d="m18.7 19.905.02-.098.055-.082.082-.056.098-.019h1.02l.425.425v.85l-.425.425h-1.02l-.098-.02-.082-.055-.056-.082-.019-.098Z" style="fill:#4d7fc4;fill-opacity:1;stroke:none;fill-rule:evenodd"/>
    </g>
    <circle cx="19.55" cy="17.96" r=".85" style="fill:#4d7fc4;fill-opacity:1;stroke:none"/>
    <circle cx="19.55" cy="15.42" r=".85" style="fill:#4d7fc4;fill-opacity:1;stroke:none"/>
    <circle cx="19.55" cy="12.88" r=".85" style="fill:#4d7fc4;fill-opacity:1;stroke:none"/>
    <g style="fill:#4d7fc4;fill-opacity:1;stroke:none">
        <circle cx="19.55" cy="10.34" r=".85"/>
        <path d="m18.7 7.205.02-.098.055-.082.082-.056.098-.019h1.02l.425.425v.85l-.425.425h-1.02l-.098-.02-.082-.055-.056-.082-.019-.098Z" style="fill:#4d7fc4;fill-opacity:1;stroke:none;fill-rule:evenodd"/>
    </g>
    <circle cx="19.55" cy="5.26" r=".85" style="fill:#4d7fc4;fill-opacity:1;stroke:none"/>
    <g style="fill:#4d7fc4;fill-opacity:1;stroke:none">
        <circle cx="19.55" cy="2.72" r=".85"/>
        <path d="m.92 2.125.02-.098.055-.082.082-.056.098-.019h1.19l.098.02.082.055.056.082.019.098v1.19l-.02.098-.055.082-.082.056-.098.019h-1.19l-.098-.02-.082-.055-.056-.082-.019-.098Z" style="fill:#c83434;fill-opacity:1;stroke:none;fill-rule:evenodd"/>
    </g>
    <g style="fill:#c83434;fill-opacity:1;stroke:none">
        <circle cx="1.77" cy="5.26" r=".85"/>
        <path d="m.92 7.375.425-.425h1.02l.098.02.082.055.056.082.019.098v1.19l-.02.098-.055.082-.082.056-.098.019h-1.02L.92 8.225Z" style="fill:#c83434;fill-opacity:1;stroke:none;fill-rule:evenodd"/>
    </g>
    <circle cx="1.77" cy="10.34" r=".85" style="fill:#c83434;fill-opacity:1;stroke:none"/>
    <circle cx="1.77" cy="12.88" r=".85" style="fill:#c83434;fill-opacity:1;stroke:none"/>
    <circle cx="1.77" cy="15.42" r=".85" style="fill:#c83434;fill-opacity:1;stroke:none"/>
    <g style="fill:#c83434;fill-opacity:1;stroke:none">
        <circle cx="1.77" cy="17.96" r=".85"/>
        <path d="m.92 20.075.425-.425h1.02l.098.02.082.055.056.082.019.098v1.19l-.02.098-.055.082-.082.056-.098.019h-1.02l-.425-.425Z" style="fill:#c83434;fill-opacity:1;stroke:none;fill-rule:evenodd"/>
    </g>
    <circle cx="1.77" cy="23.04" r=".85" style="fill:#c83434;fill-opacity:1;stroke:none"/>
    <circle cx="1.77" cy="25.58" r=".85" style="fill:#c83434;fill-opacity:1;stroke:none"/>
    <circle cx="1.77" cy="28.12" r=".85" style="fill:#c83434;fill-opacity:1;stroke:none"/>
    <g style="fill:#c83434;fill-opacity:1;stroke:none">
        <circle cx="1.77" cy="30.66" r=".85"/>
        <path d="m.92 32.775.425-.425h1.02l.098.02.082.055.056.082.019.098v1.19l-.02.098-.055.082-.082.056-.098.019h-1.02l-.425-.425Z" style="fill:#c83434;fill-opacity:1;stroke:none;fill-rule:evenodd"/>
    </g>
    <circle cx="1.77" cy="35.74" r=".85" style="fill:#c83434;fill-opacity:1;stroke:none"/>
    <circle cx="1.77" cy="38.28" r=".85" style="fill:#c83434;fill-opacity:1;stroke:none"/>
    <circle cx="1.77" cy="40.82" r=".85" style="fill:#c83434;fill-opacity:1;stroke:none"/>
    <g style="fill:#c83434;fill-opacity:1;stroke:none">
        <circle cx="1.77" cy="43.36" r=".85"/>
        <path d="m.92 45.475.425-.425h1.02l.098.02.082.055.056.082.019.098v1.19l-.02.098-.055.082-.082.056-.098.019h-1.02l-.425-.425Z" style="fill:#c83434;fill-opacity:1;stroke:none;fill-rule:evenodd"/>
    </g>
    <circle cx="1.77" cy="48.44" r=".85" style="fill:#c83434;fill-opacity:1;stroke:none"/>
    <circle cx="1.77" cy="50.98" r=".85" style="fill:#c83434;fill-opacity:1;stroke:none"/>
    <circle cx="19.55" cy="50.98" r=".85" style="fill:#c83434;fill-opacity:1;stroke:none"/>
    <g style="fill:#c83434;fill-opacity:1;stroke:none">
        <circle cx="19.55" cy="48.44" r=".85"/>
        <path d="m18.7 45.305.02-.098.055-.082.082-.056.098-.019h1.02l.425.425v.85l-.425.425h-1.02l-.098-.02-.082-.055-.056-.082-.019-.098Z" style="fill:#c83434;fill-opacity:1;stroke:none;fill-rule:evenodd"/>
    </g>
    <circle cx="19.55" cy="43.36" r=".85" style="fill:#c83434;fill-opacity:1;stroke:none"/>
    <circle cx="19.55" cy="40.82" r=".85" style="fill:#c83434;fill-opacity:1;stroke:none"/>
    <circle cx="19.55" cy="38.28" r=".85" style="fill:#c83434;fill-opacity:1;stroke:none"/>
    <g style="fill:#c83434;fill-opacity:1;stroke:none">
        <circle cx="19.55" cy="35.74" r=".85"/>
        <path d="m18.7 32.605.02-.098.055-.082.082-.056.098-.019h1.02l.425.425v.85l-.425.425h-1.02l-.098-.02-.082-.055-.056-.082-.019-.098Z" style="fill:#c83434;fill-opacity:1;stroke:none;fill-rule:evenodd"/>
    </g>
    <circle cx="19.55" cy="30.66" r=".85" style="fill:#c83434;fill-opacity:1;stroke:none"/>
    <circle cx="19.55" cy="28.12" r=".85" style="fill:#c83434;fill-opacity:1;stroke:none"/>
    <circle cx="19.55" cy="25.58" r=".85" style="fill:#c83434;fill-opacity:1;stroke:none"/>
    <g style="fill:#c83434;fill-opacity:1;stroke:none">
        <circle cx="19.55" cy="23.04" r=".85"/>
        <path d="m18.7 19.905.02-.098.055-.082.082-.056.098-.019h1.02l.425.425v.85l-.425.425h-1.02l-.098-.02-.082-.055-.056-.082-.019-.098Z" style="fill:#c83434;fill-opacity:1;stroke:none;fill-rule:evenodd"/>
    </g>
    <circle cx="19.55" cy="17.96" r=".85" style="fill:#c83434;fill-opacity:1;stroke:none"/>
    <circle cx="19.55" cy="15.42" r=".85" style="fill:#c83434;fill-opacity:1;stroke:none"/>
    <circle cx="19.55" cy="12.88" r=".85" style="fill:#c83434;fill-opacity:1;stroke:none"/>
    <g style="fill:#c83434;fill-opacity:1;stroke:none">
        <circle cx="19.55" cy="10.34" r=".85"/>
        <path d="m18.7 7.205.02-.098.055-.082.082-.056.098-.019h1.02l.425.425v.85l-.425.425h-1.02l-.098-.02-.082-.055-.056-.082-.019-.098Z" style="fill:#c83434;fill-opacity:1;stroke:none;fill-rule:evenodd"/>
    </g>
    <circle cx="19.55" cy="5.26" r=".85" style="fill:#c83434;fill-opacity:1;stroke:none"/>
    <circle cx="19.55" cy="2.72" r=".85" style="fill:#c83434;fill-opacity:1;stroke:none"/>
    <g style="fill:none;stroke:#585d84;stroke-width:.0472;stroke-opacity:1;stroke-linecap:round;stroke-linejoin:round">
        <g class="stroked-text">
            <path d="M1.932 2.98h-.324M1.77 2.98v-.567M1.77 2.413l-.054.081M1.716 2.494l-.054.054M1.662 2.548l-.054.027"/>
        </g>
        <path d="m.92 2.125.02-.098.055-.082.082-.056.098-.019h1.19l.098.02.082.055.056.082.019.098v1.19l-.02.098-.055.082-.082.056-.098.019h-1.19l-.098-.02-.082-.055-.056-.082-.019-.098Z" style="stroke:#585d84;stroke-width:.0212;stroke-opacity:1;stroke-linecap:round;stroke-linejoin:round;fill:none"/>
    </g>
    <g class="stroked-text" style="fill:none;stroke:#585d84;stroke-width:.0472;stroke-opacity:1;stroke-linecap:round;stroke-linejoin:round">
        <path d="m1.608 5.007.027-.027M1.635 4.98l.054-.027M1.689 4.953h.135M1.824 4.953l.054.027M1.878 4.98l.027.027M1.905 5.007l.027.054M1.932 5.061v.054M1.932 5.115l-.027.08M1.905 5.196l-.324.324M1.581 5.52h.35"/>
    </g>
    <circle cx="1.77" cy="5.26" r=".85" style="fill:none;stroke:#585d84;stroke-width:.0212;stroke-opacity:1;stroke-linecap:round;stroke-linejoin:round"/>
    <g style="fill:none;stroke:#585d84;stroke-width:.0472;stroke-opacity:1;stroke-linecap:round;stroke-linejoin:round">
        <g class="stroked-text">
            <path d="M1.581 7.493h.35M1.932 7.493l-.189.216M1.743 7.709h.081M1.824 7.709l.054.027M1.878 7.736l.027.027M1.905 7.763l.027.054M1.932 7.817v.135M1.932 7.952l-.027.054M1.905 8.006l-.027.027M1.878 8.033l-.054.027M1.824 8.06h-.162M1.662 8.06l-.054-.027M1.608 8.033l-.027-.027"/>
        </g>
        <path d="m.92 7.375.425-.425h1.02l.098.02.082.055.056.082.019.098v1.19l-.02.098-.055.082-.082.056-.098.019h-1.02L.92 8.225Z" style="stroke:#585d84;stroke-width:.0212;stroke-opacity:1;stroke-linecap:round;stroke-linejoin:round;fill:none"/>
    </g>
    <g class="stroked-text" style="fill:none;stroke:#585d84;stroke-width:.0472;stroke-opacity:1;stroke-linecap:round;stroke-linejoin:round">
        <path d="M1.878 10.222v.378M1.743 10.006l-.135.405M1.608 10.41h.35"/>
    </g>
    <circle cx="1.77" cy="10.34" r=".85" style="fill:none;stroke:#585d84;stroke-width:.0212;stroke-opacity:1;stroke-linecap:round;stroke-linejoin:round"/>
    <g class="stroked-text" style="fill:none;stroke:#585d84;stroke-width:.0472;stroke-opacity:1;stroke-linecap:round;stroke-linejoin:round">
        <path d="M1.905 12.573h-.27M1.635 12.573l-.027.27M1.608 12.843l.027-.027M1.635 12.816l.054-.027M1.689 12.789h.135M1.824 12.789l.054.027M1.878 12.816l.027.027M1.905 12.843l.027.054M1.932 12.897v.135M1.932 13.032l-.027.054M1.905 13.086l-.027.027M1.878 13.113l-.054.027M1.824 13.14h-.135M1.689 13.14l-.054-.027M1.635 13.113l-.027-.027"/>
    </g>
    <circle cx="1.77" cy="12.88" r=".85" style="fill:none;stroke:#585d84;stroke-width:.0212;stroke-opacity:1;stroke-linecap:round;stroke-linejoin:round"/>
    <g class="stroked-text" style="fill:none;stroke:#585d84;stroke-width:.0472;stroke-opacity:1;stroke-linecap:round;stroke-linejoin:round">
        <path d="M1.878 15.113H1.77M1.77 15.113l-.054.027M1.716 15.14l-.027.027M1.689 15.167l-.054.08M1.635 15.248l-.027.108M1.608 15.356v.216M1.608 15.572l.027.054M1.635 15.626l.027.027M1.662 15.653l.054.027M1.716 15.68h.108M1.824 15.68l.054-.027M1.878 15.653l.027-.027M1.905 15.626l.027-.054M1.932 15.572v-.135M1.932 15.437l-.027-.054M1.905 15.383l-.027-.027M1.878 15.356l-.054-.027M1.824 15.329h-.108M1.716 15.329l-.054.027M1.662 15.356l-.027.027M1.635 15.383l-.027.054"/>
    </g>
    <circle cx="1.77" cy="15.42" r=".85" style="fill:none;stroke:#585d84;stroke-width:.0212;stroke-opacity:1;stroke-linecap:round;stroke-linejoin:round"/>
    <g class="stroked-text" style="fill:none;stroke:#585d84;stroke-width:.0472;stroke-opacity:1;stroke-linecap:round;stroke-linejoin:round">
        <path d="M1.581 17.653h.378M1.959 17.653l-.243.567"/>
    </g>
    <circle cx="1.77" cy="17.96" r=".85" style="fill:none;stroke:#585d84;stroke-width:.0212;stroke-opacity:1;stroke-linecap:round;stroke-linejoin:round"/>
    <g style="fill:none;stroke:#585d84;stroke-width:.0472;stroke-opacity:1;stroke-linecap:round;stroke-linejoin:round">
        <g class="stroked-text">
            <path d="m1.716 20.436-.054-.027M1.662 20.409l-.027-.027M1.635 20.382l-.027-.054M1.608 20.328V20.3M1.608 20.301l.027-.054M1.635 20.247l.027-.027M1.662 20.22l.054-.027M1.716 20.193h.108M1.824 20.193l.054.027M1.878 20.22l.027.027M1.905 20.247l.027.054M1.932 20.301v.027M1.932 20.328l-.027.054M1.905 20.382l-.027.027M1.878 20.409l-.054.027M1.824 20.436h-.108M1.716 20.436l-.054.027M1.662 20.463l-.027.027M1.635 20.49l-.027.054M1.608 20.544v.108M1.608 20.652l.027.054M1.635 20.706l.027.027M1.662 20.733l.054.027M1.716 20.76h.108M1.824 20.76l.054-.027M1.878 20.733l.027-.027M1.905 20.706l.027-.054M1.932 20.652v-.108M1.932 20.544l-.027-.054M1.905 20.49l-.027-.027M1.878 20.463l-.054-.027"/>
        </g>
        <path d="m.92 20.075.425-.425h1.02l.098.02.082.055.056.082.019.098v1.19l-.02.098-.055.082-.082.056-.098.019h-1.02l-.425-.425Z" style="stroke:#585d84;stroke-width:.0212;stroke-opacity:1;stroke-linecap:round;stroke-linejoin:round;fill:none"/>
    </g>
    <g class="stroked-text" style="fill:none;stroke:#585d84;stroke-width:.0472;stroke-opacity:1;stroke-linecap:round;stroke-linejoin:round">
        <path d="M1.662 23.3h.108M1.77 23.3l.054-.027M1.824 23.273l.027-.027M1.851 23.246l.054-.081M1.905 23.165l.027-.108M1.932 23.057v-.216M1.932 22.841l-.027-.054M1.905 22.787l-.027-.027M1.878 22.76l-.054-.027M1.824 22.733h-.108M1.716 22.733l-.054.027M1.662 22.76l-.027.027M1.635 22.787l-.027.054M1.608 22.841v.135M1.608 22.976l.027.054M1.635 23.03l.027.027M1.662 23.057l.054.027M1.716 23.084h.108M1.824 23.084l.054-.027M1.878 23.057l.027-.027M1.905 23.03l.027-.054"/>
    </g>
    <circle cx="1.77" cy="23.04" r=".85" style="fill:none;stroke:#585d84;stroke-width:.0212;stroke-opacity:1;stroke-linecap:round;stroke-linejoin:round"/>
    <g class="stroked-text" style="fill:none;stroke:#585d84;stroke-width:.0472;stroke-opacity:1;stroke-linecap:round;stroke-linejoin:round">
        <path d="M1.662 25.84h-.324M1.5 25.84v-.567M1.5 25.273l-.054.081M1.446 25.354l-.054.054M1.392 25.408l-.054.027M2.013 25.273h.054M2.067 25.273l.054.027M2.12 25.3l.028.027M2.148 25.327l.027.054M2.175 25.381l.027.108M2.202 25.489v.135M2.202 25.624l-.027.108M2.175 25.732l-.027.054M2.148 25.786l-.027.027M2.12 25.813l-.053.027M2.067 25.84h-.054M2.013 25.84l-.054-.027M1.959 25.813l-.027-.027M1.932 25.786l-.027-.054M1.905 25.732l-.027-.108M1.878 25.624v-.135M1.878 25.489l.027-.108M1.905 25.381l.027-.054M1.932 25.327l.027-.027M1.959 25.3l.054-.027"/>
    </g>
    <circle cx="1.77" cy="25.58" r=".85" style="fill:none;stroke:#585d84;stroke-width:.0212;stroke-opacity:1;stroke-linecap:round;stroke-linejoin:round"/>
    <g class="stroked-text" style="fill:none;stroke:#585d84;stroke-width:.0472;stroke-opacity:1;stroke-linecap:round;stroke-linejoin:round">
        <path d="M1.662 28.38h-.324M1.5 28.38v-.567M1.5 27.813l-.054.081M1.446 27.894l-.054.054M1.392 27.948l-.054.027M2.202 28.38h-.324M2.04 28.38v-.567M2.04 27.813l-.054.081M1.986 27.894l-.054.054M1.932 27.948l-.054.027"/>
    </g>
    <circle cx="1.77" cy="28.12" r=".85" style="fill:none;stroke:#585d84;stroke-width:.0212;stroke-opacity:1;stroke-linecap:round;stroke-linejoin:round"/>
    <g class="stroked-text" style="fill:none;stroke:#585d84;stroke-width:.0472;stroke-opacity:1;stroke-linecap:round;stroke-linejoin:round">
        <path d="M1.662 30.92h-.324M1.5 30.92v-.567M1.5 30.353l-.054.081M1.446 30.434l-.054.054M1.392 30.488l-.054.027M1.878 30.407l.027-.027M1.905 30.38l.054-.027M1.959 30.353h.135M2.094 30.353l.054.027M2.148 30.38l.027.027M2.175 30.407l.027.054M2.202 30.461v.054M2.202 30.515l-.027.08M2.175 30.596l-.324.324M1.851 30.92h.35"/>
    </g>
    <circle cx="1.77" cy="30.66" r=".85" style="fill:none;stroke:#585d84;stroke-width:.0212;stroke-opacity:1;stroke-linecap:round;stroke-linejoin:round"/>
    <g style="fill:none;stroke:#585d84;stroke-width:.0472;stroke-opacity:1;stroke-linecap:round;stroke-linejoin:round">
        <g class="stroked-text">
            <path d="M1.662 33.46h-.324M1.5 33.46v-.567M1.5 32.893l-.054.081M1.446 32.974l-.054.054M1.392 33.028l-.054.027M1.851 32.893h.35M2.202 32.893l-.19.216M2.013 33.109h.08M2.094 33.109l.054.027M2.148 33.136l.027.027M2.175 33.163l.027.054M2.202 33.217v.135M2.202 33.352l-.027.054M2.175 33.406l-.027.027M2.148 33.433l-.054.027M2.094 33.46h-.162M1.932 33.46l-.054-.027M1.878 33.433l-.027-.027"/>
        </g>
        <path d="m.92 32.775.425-.425h1.02l.098.02.082.055.056.082.019.098v1.19l-.02.098-.055.082-.082.056-.098.019h-1.02l-.425-.425Z" style="stroke:#585d84;stroke-width:.0212;stroke-opacity:1;stroke-linecap:round;stroke-linejoin:round;fill:none"/>
    </g>
    <g class="stroked-text" style="fill:none;stroke:#585d84;stroke-width:.0472;stroke-opacity:1;stroke-linecap:round;stroke-linejoin:round">
        <path d="M1.662 36h-.324M1.5 36v-.567M1.5 35.433l-.054.081M1.446 35.514l-.054.054M1.392 35.568l-.054.027M2.148 35.622V36M2.013 35.406l-.135.405M1.878 35.81h.35"/>
    </g>
    <circle cx="1.77" cy="35.74" r=".85" style="fill:none;stroke:#585d84;stroke-width:.0212;stroke-opacity:1;stroke-linecap:round;stroke-linejoin:round"/>
    <g class="stroked-text" style="fill:none;stroke:#585d84;stroke-width:.0472;stroke-opacity:1;stroke-linecap:round;stroke-linejoin:round">
        <path d="M1.662 38.54h-.324M1.5 38.54v-.567M1.5 37.973l-.054.081M1.446 38.054l-.054.054M1.392 38.108l-.054.027M2.175 37.973h-.27M1.905 37.973l-.027.27M1.878 38.243l.027-.027M1.905 38.216l.054-.027M1.959 38.189h.135M2.094 38.189l.054.027M2.148 38.216l.027.027M2.175 38.243l.027.054M2.202 38.297v.135M2.202 38.432l-.027.054M2.175 38.486l-.027.027M2.148 38.513l-.054.027M2.094 38.54h-.135M1.959 38.54l-.054-.027M1.905 38.513l-.027-.027"/>
    </g>
    <circle cx="1.77" cy="38.28" r=".85" style="fill:none;stroke:#585d84;stroke-width:.0212;stroke-opacity:1;stroke-linecap:round;stroke-linejoin:round"/>
    <g class="stroked-text" style="fill:none;stroke:#585d84;stroke-width:.0472;stroke-opacity:1;stroke-linecap:round;stroke-linejoin:round">
        <path d="M1.662 41.08h-.324M1.5 41.08v-.567M1.5 40.513l-.054.081M1.446 40.594l-.054.054M1.392 40.648l-.054.027M2.148 40.513H2.04M2.04 40.513l-.054.027M1.986 40.54l-.027.027M1.959 40.567l-.054.08M1.905 40.648l-.027.108M1.878 40.756v.216M1.878 40.972l.027.054M1.905 41.026l.027.027M1.932 41.053l.054.027M1.986 41.08h.108M2.094 41.08l.054-.027M2.148 41.053l.027-.027M2.175 41.026l.027-.054M2.202 40.972v-.135M2.202 40.837l-.027-.054M2.175 40.783l-.027-.027M2.148 40.756l-.054-.027M2.094 40.729h-.108M1.986 40.729l-.054.027M1.932 40.756l-.027.027M1.905 40.783l-.027.054"/>
    </g>
    <circle cx="1.77" cy="40.82" r=".85" style="fill:none;stroke:#585d84;stroke-width:.0212;stroke-opacity:1;stroke-linecap:round;stroke-linejoin:round"/>
    <g class="stroked-text" style="fill:none;stroke:#585d84;stroke-width:.0472;stroke-opacity:1;stroke-linecap:round;stroke-linejoin:round">
        <path d="M1.662 43.62h-.324M1.5 43.62v-.567M1.5 43.053l-.054.081M1.446 43.134l-.054.054M1.392 43.188l-.054.027M1.851 43.053h.378M2.229 43.053l-.243.567"/>
    </g>
    <circle cx="1.77" cy="43.36" r=".85" style="fill:none;stroke:#585d84;stroke-width:.0212;stroke-opacity:1;stroke-linecap:round;stroke-linejoin:round"/>
    <g style="fill:none;stroke:#585d84;stroke-width:.0472;stroke-opacity:1;stroke-linecap:round;stroke-linejoin:round">
        <g class="stroked-text">
            <path d="M1.662 46.16h-.324M1.5 46.16v-.567M1.5 45.593l-.054.081M1.446 45.674l-.054.054M1.392 45.728l-.054.027M1.986 45.836l-.054-.027M1.932 45.809l-.027-.027M1.905 45.782l-.027-.054M1.878 45.728V45.7M1.878 45.701l.027-.054M1.905 45.647l.027-.027M1.932 45.62l.054-.027M1.986 45.593h.108M2.094 45.593l.054.027M2.148 45.62l.027.027M2.175 45.647l.027.054M2.202 45.701v.027M2.202 45.728l-.027.054M2.175 45.782l-.027.027M2.148 45.809l-.054.027M2.094 45.836h-.108M1.986 45.836l-.054.027M1.932 45.863l-.027.027M1.905 45.89l-.027.054M1.878 45.944v.108M1.878 46.052l.027.054M1.905 46.106l.027.027M1.932 46.133l.054.027M1.986 46.16h.108M2.094 46.16l.054-.027M2.148 46.133l.027-.027M2.175 46.106l.027-.054M2.202 46.052v-.108M2.202 45.944l-.027-.054M2.175 45.89l-.027-.027M2.148 45.863l-.054-.027"/>
        </g>
        <path d="m.92 45.475.425-.425h1.02l.098.02.082.055.056.082.019.098v1.19l-.02.098-.055.082-.082.056-.098.019h-1.02l-.425-.425Z" style="stroke:#585d84;stroke-width:.0212;stroke-opacity:1;stroke-linecap:round;stroke-linejoin:round;fill:none"/>
    </g>
    <g class="stroked-text" style="fill:none;stroke:#585d84;stroke-width:.0472;stroke-opacity:1;stroke-linecap:round;stroke-linejoin:round">
        <path d="M1.662 48.7h-.324M1.5 48.7v-.567M1.5 48.133l-.054.081M1.446 48.214l-.054.054M1.392 48.268l-.054.027M1.932 48.7h.108M2.04 48.7l.054-.027M2.094 48.673l.027-.027M2.12 48.646l.055-.081M2.175 48.565l.027-.108M2.202 48.457v-.216M2.202 48.241l-.027-.054M2.175 48.187l-.027-.027M2.148 48.16l-.054-.027M2.094 48.133h-.108M1.986 48.133l-.054.027M1.932 48.16l-.027.027M1.905 48.187l-.027.054M1.878 48.241v.135M1.878 48.376l.027.054M1.905 48.43l.027.027M1.932 48.457l.054.027M1.986 48.484h.108M2.094 48.484l.054-.027M2.148 48.457l.027-.027M2.175 48.43l.027-.054"/>
    </g>
    <circle cx="1.77" cy="48.44" r=".85" style="fill:none;stroke:#585d84;stroke-width:.0212;stroke-opacity:1;stroke-linecap:round;stroke-linejoin:round"/>
    <g class="stroked-text" style="fill:none;stroke:#585d84;stroke-width:.0472;stroke-opacity:1;stroke-linecap:round;stroke-linejoin:round">
        <path d="m1.338 50.727.027-.027M1.365 50.7l.054-.027M1.42 50.673h.134M1.554 50.673l.054.027M1.608 50.7l.027.027M1.635 50.727l.027.054M1.662 50.781v.054M1.662 50.835l-.027.08M1.635 50.916l-.324.324M1.311 51.24h.351M2.013 50.673h.054M2.067 50.673l.054.027M2.12 50.7l.028.027M2.148 50.727l.027.054M2.175 50.781l.027.108M2.202 50.889v.135M2.202 51.024l-.027.108M2.175 51.132l-.027.054M2.148 51.186l-.027.027M2.12 51.213l-.053.027M2.067 51.24h-.054M2.013 51.24l-.054-.027M1.959 51.213l-.027-.027M1.932 51.186l-.027-.054M1.905 51.132l-.027-.108M1.878 51.024v-.135M1.878 50.889l.027-.108M1.905 50.781l.027-.054M1.932 50.727l.027-.027M1.959 50.7l.054-.027"/>
    </g>
    <circle cx="1.77" cy="50.98" r=".85" style="fill:none;stroke:#585d84;stroke-width:.0212;stroke-opacity:1;stroke-linecap:round;stroke-linejoin:round"/>
    <g class="stroked-text" style="fill:none;stroke:#585d84;stroke-width:.0472;stroke-opacity:1;stroke-linecap:round;stroke-linejoin:round">
        <path d="m19.118 50.727.027-.027M19.145 50.7l.054-.027M19.2 50.673h.134M19.334 50.673l.054.027M19.388 50.7l.027.027M19.415 50.727l.027.054M19.442 50.781v.054M19.442 50.835l-.027.08M19.415 50.916l-.324.324M19.091 51.24h.351M19.982 51.24h-.324M19.82 51.24v-.567M19.82 50.673l-.054.081M19.766 50.754l-.054.054M19.712 50.808l-.054.027"/>
    </g>
    <circle cx="19.55" cy="50.98" r=".85" style="fill:none;stroke:#585d84;stroke-width:.0212;stroke-opacity:1;stroke-linecap:round;stroke-linejoin:round"/>
    <g class="stroked-text" style="fill:none;stroke:#585d84;stroke-width:.0472;stroke-opacity:1;stroke-linecap:round;stroke-linejoin:round">
        <path d="m19.118 48.187.027-.027M19.145 48.16l.054-.027M19.2 48.133h.134M19.334 48.133l.054.027M19.388 48.16l.027.027M19.415 48.187l.027.054M19.442 48.241v.054M19.442 48.295l-.027.08M19.415 48.376l-.324.324M19.091 48.7h.351M19.658 48.187l.027-.027M19.685 48.16l.054-.027M19.739 48.133h.135M19.874 48.133l.054.027M19.928 48.16l.027.027M19.955 48.187l.027.054M19.982 48.241v.054M19.982 48.295l-.027.08M19.955 48.376l-.324.324M19.631 48.7h.35"/>
    </g>
    <circle cx="19.55" cy="48.44" r=".85" style="fill:none;stroke:#585d84;stroke-width:.0212;stroke-opacity:1;stroke-linecap:round;stroke-linejoin:round"/>
    <g style="fill:none;stroke:#585d84;stroke-width:.0472;stroke-opacity:1;stroke-linecap:round;stroke-linejoin:round">
        <g class="stroked-text">
            <path d="m19.118 45.647.027-.027M19.145 45.62l.054-.027M19.2 45.593h.134M19.334 45.593l.054.027M19.388 45.62l.027.027M19.415 45.647l.027.054M19.442 45.701v.054M19.442 45.755l-.027.08M19.415 45.836l-.324.324M19.091 46.16h.351M19.631 45.593h.35M19.982 45.593l-.19.216M19.793 45.809h.08M19.874 45.809l.054.027M19.928 45.836l.027.027M19.955 45.863l.027.054M19.982 45.917v.135M19.982 46.052l-.027.054M19.955 46.106l-.027.027M19.928 46.133l-.054.027M19.874 46.16h-.162M19.712 46.16l-.054-.027M19.658 46.133l-.027-.027"/>
        </g>
        <path d="m18.7 45.305.02-.098.055-.082.082-.056.098-.019h1.02l.425.425v.85l-.425.425h-1.02l-.098-.02-.082-.055-.056-.082-.019-.098Z" style="stroke:#585d84;stroke-width:.0212;stroke-opacity:1;stroke-linecap:round;stroke-linejoin:round;fill:none"/>
    </g>
    <g class="stroked-text" style="fill:none;stroke:#585d84;stroke-width:.0472;stroke-opacity:1;stroke-linecap:round;stroke-linejoin:round">
        <path d="m19.118 43.107.027-.027M19.145 43.08l.054-.027M19.2 43.053h.134M19.334 43.053l.054.027M19.388 43.08l.027.027M19.415 43.107l.027.054M19.442 43.161v.054M19.442 43.215l-.027.08M19.415 43.296l-.324.324M19.091 43.62h.351M19.928 43.242v.378M19.793 43.026l-.135.405M19.658 43.43h.35"/>
    </g>
    <circle cx="19.55" cy="43.36" r=".85" style="fill:none;stroke:#585d84;stroke-width:.0212;stroke-opacity:1;stroke-linecap:round;stroke-linejoin:round"/>
    <g class="stroked-text" style="fill:none;stroke:#585d84;stroke-width:.0472;stroke-opacity:1;stroke-linecap:round;stroke-linejoin:round">
        <path d="m19.118 40.567.027-.027M19.145 40.54l.054-.027M19.2 40.513h.134M19.334 40.513l.054.027M19.388 40.54l.027.027M19.415 40.567l.027.054M19.442 40.621v.054M19.442 40.675l-.027.08M19.415 40.756l-.324.324M19.091 41.08h.351M19.955 40.513h-.27M19.685 40.513l-.027.27M19.658 40.783l.027-.027M19.685 40.756l.054-.027M19.739 40.729h.135M19.874 40.729l.054.027M19.928 40.756l.027.027M19.955 40.783l.027.054M19.982 40.837v.135M19.982 40.972l-.027.054M19.955 41.026l-.027.027M19.928 41.053l-.054.027M19.874 41.08h-.135M19.739 41.08l-.054-.027M19.685 41.053l-.027-.027"/>
    </g>
    <circle cx="19.55" cy="40.82" r=".85" style="fill:none;stroke:#585d84;stroke-width:.0212;stroke-opacity:1;stroke-linecap:round;stroke-linejoin:round"/>
    <g class="stroked-text" style="fill:none;stroke:#585d84;stroke-width:.0472;stroke-opacity:1;stroke-linecap:round;stroke-linejoin:round">
        <path d="m19.118 38.027.027-.027M19.145 38l.054-.027M19.2 37.973h.134M19.334 37.973l.054.027M19.388 38l.027.027M19.415 38.027l.027.054M19.442 38.081v.054M19.442 38.135l-.027.08M19.415 38.216l-.324.324M19.091 38.54h.351M19.928 37.973h-.108M19.82 37.973l-.054.027M19.766 38l-.027.027M19.739 38.027l-.054.08M19.685 38.108l-.027.108M19.658 38.216v.216M19.658 38.432l.027.054M19.685 38.486l.027.027M19.712 38.513l.054.027M19.766 38.54h.108M19.874 38.54l.054-.027M19.928 38.513l.027-.027M19.955 38.486l.027-.054M19.982 38.432v-.135M19.982 38.297l-.027-.054M19.955 38.243l-.027-.027M19.928 38.216l-.054-.027M19.874 38.189h-.108M19.766 38.189l-.054.027M19.712 38.216l-.027.027M19.685 38.243l-.027.054"/>
    </g>
    <circle cx="19.55" cy="38.28" r=".85" style="fill:none;stroke:#585d84;stroke-width:.0212;stroke-opacity:1;stroke-linecap:round;stroke-linejoin:round"/>
    <g class="stroked-text" style="fill:none;stroke:#585d84;stroke-width:.0472;stroke-opacity:1;stroke-linecap:round;stroke-linejoin:round">
        <path d="m19.118 35.487.027-.027M19.145 35.46l.054-.027M19.2 35.433h.134M19.334 35.433l.054.027M19.388 35.46l.027.027M19.415 35.487l.027.054M19.442 35.541v.054M19.442 35.595l-.027.08M19.415 35.676l-.324.324M19.091 36h.351M19.631 35.433h.378M20.009 35.433l-.243.567"/>
    </g>
    <circle cx="19.55" cy="35.74" r=".85" style="fill:none;stroke:#585d84;stroke-width:.0212;stroke-opacity:1;stroke-linecap:round;stroke-linejoin:round"/>
    <g style="fill:none;stroke:#585d84;stroke-width:.0472;stroke-opacity:1;stroke-linecap:round;stroke-linejoin:round">
        <g class="stroked-text">
            <path d="m19.118 32.947.027-.027M19.145 32.92l.054-.027M19.2 32.893h.134M19.334 32.893l.054.027M19.388 32.92l.027.027M19.415 32.947l.027.054M19.442 33.001v.054M19.442 33.055l-.027.08M19.415 33.136l-.324.324M19.091 33.46h.351M19.766 33.136l-.054-.027M19.712 33.109l-.027-.027M19.685 33.082l-.027-.054M19.658 33.028V33M19.658 33.001l.027-.054M19.685 32.947l.027-.027M19.712 32.92l.054-.027M19.766 32.893h.108M19.874 32.893l.054.027M19.928 32.92l.027.027M19.955 32.947l.027.054M19.982 33.001v.027M19.982 33.028l-.027.054M19.955 33.082l-.027.027M19.928 33.109l-.054.027M19.874 33.136h-.108M19.766 33.136l-.054.027M19.712 33.163l-.027.027M19.685 33.19l-.027.054M19.658 33.244v.108M19.658 33.352l.027.054M19.685 33.406l.027.027M19.712 33.433l.054.027M19.766 33.46h.108M19.874 33.46l.054-.027M19.928 33.433l.027-.027M19.955 33.406l.027-.054M19.982 33.352v-.108M19.982 33.244l-.027-.054M19.955 33.19l-.027-.027M19.928 33.163l-.054-.027"/>
        </g>
        <path d="m18.7 32.605.02-.098.055-.082.082-.056.098-.019h1.02l.425.425v.85l-.425.425h-1.02l-.098-.02-.082-.055-.056-.082-.019-.098Z" style="stroke:#585d84;stroke-width:.0212;stroke-opacity:1;stroke-linecap:round;stroke-linejoin:round;fill:none"/>
    </g>
    <g class="stroked-text" style="fill:none;stroke:#585d84;stroke-width:.0472;stroke-opacity:1;stroke-linecap:round;stroke-linejoin:round">
        <path d="m19.118 30.407.027-.027M19.145 30.38l.054-.027M19.2 30.353h.134M19.334 30.353l.054.027M19.388 30.38l.027.027M19.415 30.407l.027.054M19.442 30.461v.054M19.442 30.515l-.027.08M19.415 30.596l-.324.324M19.091 30.92h.351M19.712 30.92h.108M19.82 30.92l.054-.027M19.874 30.893l.027-.027M19.9 30.866l.055-.081M19.955 30.785l.027-.108M19.982 30.677v-.216M19.982 30.461l-.027-.054M19.955 30.407l-.027-.027M19.928 30.38l-.054-.027M19.874 30.353h-.108M19.766 30.353l-.054.027M19.712 30.38l-.027.027M19.685 30.407l-.027.054M19.658 30.461v.135M19.658 30.596l.027.054M19.685 30.65l.027.027M19.712 30.677l.054.027M19.766 30.704h.108M19.874 30.704l.054-.027M19.928 30.677l.027-.027M19.955 30.65l.027-.054"/>
    </g>
    <circle cx="19.55" cy="30.66" r=".85" style="fill:none;stroke:#585d84;stroke-width:.0212;stroke-opacity:1;stroke-linecap:round;stroke-linejoin:round"/>
    <g class="stroked-text" style="fill:none;stroke:#585d84;stroke-width:.0472;stroke-opacity:1;stroke-linecap:round;stroke-linejoin:round">
        <path d="M19.091 27.813h.351M19.442 27.813l-.189.216M19.253 28.029h.081M19.334 28.029l.054.027M19.388 28.056l.027.027M19.415 28.083l.027.054M19.442 28.137v.135M19.442 28.272l-.027.054M19.415 28.326l-.027.027M19.388 28.353l-.054.027M19.334 28.38h-.162M19.172 28.38l-.054-.027M19.118 28.353l-.027-.027M19.793 27.813h.054M19.847 27.813l.054.027M19.9 27.84l.028.027M19.928 27.867l.027.054M19.955 27.921l.027.108M19.982 28.029v.135M19.982 28.164l-.027.108M19.955 28.272l-.027.054M19.928 28.326l-.027.027M19.9 28.353l-.053.027M19.847 28.38h-.054M19.793 28.38l-.054-.027M19.739 28.353l-.027-.027M19.712 28.326l-.027-.054M19.685 28.272l-.027-.108M19.658 28.164v-.135M19.658 28.029l.027-.108M19.685 27.921l.027-.054M19.712 27.867l.027-.027M19.739 27.84l.054-.027"/>
    </g>
    <circle cx="19.55" cy="28.12" r=".85" style="fill:none;stroke:#585d84;stroke-width:.0212;stroke-opacity:1;stroke-linecap:round;stroke-linejoin:round"/>
    <g class="stroked-text" style="fill:none;stroke:#585d84;stroke-width:.0472;stroke-opacity:1;stroke-linecap:round;stroke-linejoin:round">
        <path d="M19.091 25.273h.351M19.442 25.273l-.189.216M19.253 25.489h.081M19.334 25.489l.054.027M19.388 25.516l.027.027M19.415 25.543l.027.054M19.442 25.597v.135M19.442 25.732l-.027.054M19.415 25.786l-.027.027M19.388 25.813l-.054.027M19.334 25.84h-.162M19.172 25.84l-.054-.027M19.118 25.813l-.027-.027M19.982 25.84h-.324M19.82 25.84v-.567M19.82 25.273l-.054.081M19.766 25.354l-.054.054M19.712 25.408l-.054.027"/>
    </g>
    <circle cx="19.55" cy="25.58" r=".85" style="fill:none;stroke:#585d84;stroke-width:.0212;stroke-opacity:1;stroke-linecap:round;stroke-linejoin:round"/>
    <g class="stroked-text" style="fill:none;stroke:#585d84;stroke-width:.0472;stroke-opacity:1;stroke-linecap:round;stroke-linejoin:round">
        <path d="M19.091 22.733h.351M19.442 22.733l-.189.216M19.253 22.949h.081M19.334 22.949l.054.027M19.388 22.976l.027.027M19.415 23.003l.027.054M19.442 23.057v.135M19.442 23.192l-.027.054M19.415 23.246l-.027.027M19.388 23.273l-.054.027M19.334 23.3h-.162M19.172 23.3l-.054-.027M19.118 23.273l-.027-.027M19.658 22.787l.027-.027M19.685 22.76l.054-.027M19.739 22.733h.135M19.874 22.733l.054.027M19.928 22.76l.027.027M19.955 22.787l.027.054M19.982 22.841v.054M19.982 22.895l-.027.08M19.955 22.976l-.324.324M19.631 23.3h.35"/>
    </g>
    <circle cx="19.55" cy="23.04" r=".85" style="fill:none;stroke:#585d84;stroke-width:.0212;stroke-opacity:1;stroke-linecap:round;stroke-linejoin:round"/>
    <g style="fill:none;stroke:#585d84;stroke-width:.0472;stroke-opacity:1;stroke-linecap:round;stroke-linejoin:round">
        <g class="stroked-text">
            <path d="M19.091 20.193h.351M19.442 20.193l-.189.216M19.253 20.409h.081M19.334 20.409l.054.027M19.388 20.436l.027.027M19.415 20.463l.027.054M19.442 20.517v.135M19.442 20.652l-.027.054M19.415 20.706l-.027.027M19.388 20.733l-.054.027M19.334 20.76h-.162M19.172 20.76l-.054-.027M19.118 20.733l-.027-.027M19.631 20.193h.35M19.982 20.193l-.19.216M19.793 20.409h.08M19.874 20.409l.054.027M19.928 20.436l.027.027M19.955 20.463l.027.054M19.982 20.517v.135M19.982 20.652l-.027.054M19.955 20.706l-.027.027M19.928 20.733l-.054.027M19.874 20.76h-.162M19.712 20.76l-.054-.027M19.658 20.733l-.027-.027"/>
        </g>
        <path d="m18.7 19.905.02-.098.055-.082.082-.056.098-.019h1.02l.425.425v.85l-.425.425h-1.02l-.098-.02-.082-.055-.056-.082-.019-.098Z" style="stroke:#585d84;stroke-width:.0212;stroke-opacity:1;stroke-linecap:round;stroke-linejoin:round;fill:none"/>
    </g>
    <g class="stroked-text" style="fill:none;stroke:#585d84;stroke-width:.0472;stroke-opacity:1;stroke-linecap:round;stroke-linejoin:round">
        <path d="M19.091 17.653h.351M19.442 17.653l-.189.216M19.253 17.869h.081M19.334 17.869l.054.027M19.388 17.896l.027.027M19.415 17.923l.027.054M19.442 17.977v.135M19.442 18.112l-.027.054M19.415 18.166l-.027.027M19.388 18.193l-.054.027M19.334 18.22h-.162M19.172 18.22l-.054-.027M19.118 18.193l-.027-.027M19.928 17.842v.378M19.793 17.626l-.135.405M19.658 18.03h.35"/>
    </g>
    <circle cx="19.55" cy="17.96" r=".85" style="fill:none;stroke:#585d84;stroke-width:.0212;stroke-opacity:1;stroke-linecap:round;stroke-linejoin:round"/>
    <g class="stroked-text" style="fill:none;stroke:#585d84;stroke-width:.0472;stroke-opacity:1;stroke-linecap:round;stroke-linejoin:round">
        <path d="M19.091 15.113h.351M19.442 15.113l-.189.216M19.253 15.329h.081M19.334 15.329l.054.027M19.388 15.356l.027.027M19.415 15.383l.027.054M19.442 15.437v.135M19.442 15.572l-.027.054M19.415 15.626l-.027.027M19.388 15.653l-.054.027M19.334 15.68h-.162M19.172 15.68l-.054-.027M19.118 15.653l-.027-.027M19.955 15.113h-.27M19.685 15.113l-.027.27M19.658 15.383l.027-.027M19.685 15.356l.054-.027M19.739 15.329h.135M19.874 15.329l.054.027M19.928 15.356l.027.027M19.955 15.383l.027.054M19.982 15.437v.135M19.982 15.572l-.027.054M19.955 15.626l-.027.027M19.928 15.653l-.054.027M19.874 15.68h-.135M19.739 15.68l-.054-.027M19.685 15.653l-.027-.027"/>
    </g>
    <circle cx="19.55" cy="15.42" r=".85" style="fill:none;stroke:#585d84;stroke-width:.0212;stroke-opacity:1;stroke-linecap:round;stroke-linejoin:round"/>
    <g class="stroked-text" style="fill:none;stroke:#585d84;stroke-width:.0472;stroke-opacity:1;stroke-linecap:round;stroke-linejoin:round">
        <path d="M19.091 12.573h.351M19.442 12.573l-.189.216M19.253 12.789h.081M19.334 12.789l.054.027M19.388 12.816l.027.027M19.415 12.843l.027.054M19.442 12.897v.135M19.442 13.032l-.027.054M19.415 13.086l-.027.027M19.388 13.113l-.054.027M19.334 13.14h-.162M19.172 13.14l-.054-.027M19.118 13.113l-.027-.027M19.928 12.573h-.108M19.82 12.573l-.054.027M19.766 12.6l-.027.027M19.739 12.627l-.054.08M19.685 12.708l-.027.108M19.658 12.816v.216M19.658 13.032l.027.054M19.685 13.086l.027.027M19.712 13.113l.054.027M19.766 13.14h.108M19.874 13.14l.054-.027M19.928 13.113l.027-.027M19.955 13.086l.027-.054M19.982 13.032v-.135M19.982 12.897l-.027-.054M19.955 12.843l-.027-.027M19.928 12.816l-.054-.027M19.874 12.789h-.108M19.766 12.789l-.054.027M19.712 12.816l-.027.027M19.685 12.843l-.027.054"/>
    </g>
    <circle cx="19.55" cy="12.88" r=".85" style="fill:none;stroke:#585d84;stroke-width:.0212;stroke-opacity:1;stroke-linecap:round;stroke-linejoin:round"/>
    <g class="stroked-text" style="fill:none;stroke:#585d84;stroke-width:.0472;stroke-opacity:1;stroke-linecap:round;stroke-linejoin:round">
        <path d="M19.091 10.033h.351M19.442 10.033l-.189.216M19.253 10.249h.081M19.334 10.249l.054.027M19.388 10.276l.027.027M19.415 10.303l.027.054M19.442 10.357v.135M19.442 10.492l-.027.054M19.415 10.546l-.027.027M19.388 10.573l-.054.027M19.334 10.6h-.162M19.172 10.6l-.054-.027M19.118 10.573l-.027-.027M19.631 10.033h.378M20.009 10.033l-.243.567"/>
    </g>
    <circle cx="19.55" cy="10.34" r=".85" style="fill:none;stroke:#585d84;stroke-width:.0212;stroke-opacity:1;stroke-linecap:round;stroke-linejoin:round"/>
    <g style="fill:none;stroke:#585d84;stroke-width:.0472;stroke-opacity:1;stroke-linecap:round;stroke-linejoin:round">
        <g class="stroked-text">
            <path d="M19.091 7.493h.351M19.442 7.493l-.189.216M19.253 7.709h.081M19.334 7.709l.054.027M19.388 7.736l.027.027M19.415 7.763l.027.054M19.442 7.817v.135M19.442 7.952l-.027.054M19.415 8.006l-.027.027M19.388 8.033l-.054.027M19.334 8.06h-.162M19.172 8.06l-.054-.027M19.118 8.033l-.027-.027M19.766 7.736l-.054-.027M19.712 7.709l-.027-.027M19.685 7.682l-.027-.054M19.658 7.628V7.6M19.658 7.601l.027-.054M19.685 7.547l.027-.027M19.712 7.52l.054-.027M19.766 7.493h.108M19.874 7.493l.054.027M19.928 7.52l.027.027M19.955 7.547l.027.054M19.982 7.601v.027M19.982 7.628l-.027.054M19.955 7.682l-.027.027M19.928 7.709l-.054.027M19.874 7.736h-.108M19.766 7.736l-.054.027M19.712 7.763l-.027.027M19.685 7.79l-.027.054M19.658 7.844v.108M19.658 7.952l.027.054M19.685 8.006l.027.027M19.712 8.033l.054.027M19.766 8.06h.108M19.874 8.06l.054-.027M19.928 8.033l.027-.027M19.955 8.006l.027-.054M19.982 7.952v-.108M19.982 7.844l-.027-.054M19.955 7.79l-.027-.027M19.928 7.763l-.054-.027"/>
        </g>
        <path d="m18.7 7.205.02-.098.055-.082.082-.056.098-.019h1.02l.425.425v.85l-.425.425h-1.02l-.098-.02-.082-.055-.056-.082-.019-.098Z" style="stroke:#585d84;stroke-width:.0212;stroke-opacity:1;stroke-linecap:round;stroke-linejoin:round;fill:none"/>
    </g>
    <g class="stroked-text" style="fill:none;stroke:#585d84;stroke-width:.0472;stroke-opacity:1;stroke-linecap:round;stroke-linejoin:round">
        <path d="M19.091 4.953h.351M19.442 4.953l-.189.216M19.253 5.169h.081M19.334 5.169l.054.027M19.388 5.196l.027.027M19.415 5.223l.027.054M19.442 5.277v.135M19.442 5.412l-.027.054M19.415 5.466l-.027.027M19.388 5.493l-.054.027M19.334 5.52h-.162M19.172 5.52l-.054-.027M19.118 5.493l-.027-.027M19.712 5.52h.108M19.82 5.52l.054-.027M19.874 5.493l.027-.027M19.9 5.466l.055-.081M19.955 5.385l.027-.108M19.982 5.277V5.06M19.982 5.061l-.027-.054M19.955 5.007l-.027-.027M19.928 4.98l-.054-.027M19.874 4.953h-.108M19.766 4.953l-.054.027M19.712 4.98l-.027.027M19.685 5.007l-.027.054M19.658 5.061v.135M19.658 5.196l.027.054M19.685 5.25l.027.027M19.712 5.277l.054.027M19.766 5.304h.108M19.874 5.304l.054-.027M19.928 5.277l.027-.027M19.955 5.25l.027-.054"/>
    </g>
    <circle cx="19.55" cy="5.26" r=".85" style="fill:none;stroke:#585d84;stroke-width:.0212;stroke-opacity:1;stroke-linecap:round;stroke-linejoin:round"/>
    <g class="stroked-text" style="fill:none;stroke:#585d84;stroke-width:.0472;stroke-opacity:1;stroke-linecap:round;stroke-linejoin:round">
        <path d="M19.388 2.602v.378M19.253 2.386l-.135.405M19.118 2.79h.351M19.793 2.413h.054M19.847 2.413l.054.027M19.9 2.44l.028.027M19.928 2.467l.027.054M19.955 2.521l.027.108M19.982 2.629v.135M19.982 2.764l-.027.108M19.955 2.872l-.027.054M19.928 2.926l-.027.027M19.9 2.953l-.053.027M19.847 2.98h-.054M19.793 2.98l-.054-.027M19.739 2.953l-.027-.027M19.712 2.926l-.027-.054M19.685 2.872l-.027-.108M19.658 2.764v-.135M19.658 2.629l.027-.108M19.685 2.521l.027-.054M19.712 2.467l.027-.027M19.739 2.44l.054-.027"/>
    </g>
    <circle cx="19.55" cy="2.72" r=".85" style="fill:none;stroke:#585d84;stroke-width:.0212;stroke-opacity:1;stroke-linecap:round;stroke-linejoin:round"/>
    <g style="fill:none;stroke:#afafaf;stroke-width:.15;stroke-opacity:1;stroke-linecap:round;stroke-linejoin:round">
        <g class="stroked-text">
            <path d="m5.041 54.61-.333-.476M4.47 54.61v-1M4.47 53.61h.38M4.85 53.61l.096.047M4.946 53.657l.047.048M4.993 53.705l.048.095M5.041 53.8v.143M5.041 53.943l-.048.095M4.993 54.038l-.047.048M4.946 54.086l-.095.048M4.85 54.134h-.38M5.898 54.61v-.524M5.898 54.086l-.047-.095M5.85 53.99l-.095-.047M5.755 53.943h-.19M5.565 53.943l-.096.048M5.898 54.562l-.095.048M5.803 54.61h-.238M5.565 54.61l-.096-.048M5.47 54.562l-.048-.095M5.422 54.467v-.095M5.422 54.372l.048-.096M5.47 54.277l.095-.048M5.565 54.229h.238M5.803 54.229l.095-.048M6.327 54.562l.095.048M6.422 54.61h.19M6.612 54.61l.096-.048M6.708 54.562l.047-.095M6.755 54.467v-.048M6.755 54.42l-.047-.096M6.708 54.324l-.096-.047M6.612 54.277H6.47M6.47 54.277l-.096-.048M6.374 54.229l-.047-.095M6.327 54.134v-.048M6.327 54.086l.047-.095M6.374 53.99l.096-.047M6.47 53.943h.142M6.612 53.943l.096.048M7.184 53.943v1M7.184 53.99l.095-.047M7.279 53.943h.19M7.47 53.943l.095.048M7.565 53.99l.047.048M7.612 54.038l.048.096M7.66 54.134v.285M7.66 54.42l-.048.095M7.612 54.515l-.047.047M7.565 54.562l-.096.048M7.47 54.61h-.191M7.279 54.61l-.095-.048M8.089 54.61v-1M8.089 53.99l.095-.047M8.184 53.943h.19M8.374 53.943l.095.048M8.47 53.99l.047.048M8.517 54.038l.048.096M8.565 54.134v.285M8.565 54.42l-.048.095M8.517 54.515l-.047.047M8.47 54.562l-.096.048M8.374 54.61h-.19M8.184 54.61l-.095-.048M9.374 54.562l-.095.048M9.279 54.61h-.19M9.089 54.61l-.096-.048M8.993 54.562l-.047-.095M8.946 54.467v-.381M8.946 54.086l.047-.095M8.993 53.99l.096-.047M9.089 53.943h.19M9.279 53.943l.095.048M9.374 53.99l.048.096M9.422 54.086v.095M9.422 54.181l-.476.096M9.85 54.61v-.667M9.85 54.134l.048-.096M9.898 54.038l.048-.047M9.946 53.99l.095-.047M10.041 53.943h.095M10.47 54.61v-.667M10.47 54.134l.047-.096M10.517 54.038l.048-.047M10.565 53.99l.095-.047M10.66 53.943h.095M10.993 53.943l.238.667M11.47 53.943l-.239.667M11.231 54.61l-.095.238M11.136 54.848l-.047.047M11.089 54.896l-.096.047M11.85 54.61v-1M11.85 53.61h.381M12.231 53.61l.096.047M12.327 53.657l.047.048M12.374 53.705l.048.095M12.422 53.8v.143M12.422 53.943l-.048.095M12.374 54.038l-.047.048M12.327 54.086l-.096.048M12.231 54.134h-.38M12.85 54.61v-.667M12.85 53.61l-.047.047M12.803 53.657l.047.048M12.85 53.705l.048-.048M12.898 53.657l-.047-.047M12.85 53.61v.095M13.089 54.705h.761M14.089 54.61v-1M14.089 53.61h.38M14.47 53.61l.095.047M14.565 53.657l.047.048M14.612 53.705l.048.095M14.66 53.8v.143M14.66 53.943l-.048.095M14.612 54.038l-.047.048M14.565 54.086l-.095.048M14.47 54.134h-.381M15.089 54.61v-.667M15.089 53.61l-.048.047M15.041 53.657l.048.048M15.089 53.705l.047-.048M15.136 53.657l-.047-.047M15.089 53.61v.095M15.993 54.562l-.095.048M15.898 54.61h-.19M15.708 54.61l-.096-.048M15.612 54.562l-.047-.047M15.565 54.515l-.048-.096M15.517 54.42v-.286M15.517 54.134l.048-.096M15.565 54.038l.047-.047M15.612 53.99l.096-.047M15.708 53.943h.19M15.898 53.943l.095.048M16.565 54.61l-.096-.048M16.47 54.562l-.048-.047M16.422 54.515l-.048-.096M16.374 54.42v-.286M16.374 54.134l.048-.096M16.422 54.038l.047-.047M16.47 53.99l.095-.047M16.565 53.943h.143M16.708 53.943l.095.048M16.803 53.99l.047.048M16.85 54.038l.048.096M16.898 54.134v.285M16.898 54.42l-.047.095M16.85 54.515l-.047.047M16.803 54.562l-.095.048M16.708 54.61h-.143"/>
        </g>
        <g class="stroked-text">
            <path d="m9.327 27.305-.334-.476M8.755 27.305v-1M8.755 26.305h.381M9.136 26.305l.095.047M9.231 26.352l.048.048M9.279 26.4l.048.095M9.327 26.495v.143M9.327 26.638l-.048.095M9.279 26.733l-.048.048M9.231 26.781l-.095.048M9.136 26.829h-.38M9.755 26.781h.334M10.231 27.305h-.476M9.755 27.305v-1M9.755 26.305h.476M10.993 26.781h-.333M10.66 27.305v-1M10.66 26.305h.476M11.66 26.305v.238M11.422 26.448l.238.095M11.66 26.543l.238-.095M11.517 26.733l.143-.19M11.66 26.543l.143.19M12.422 26.305v.238M12.184 26.448l.238.095M12.422 26.543l.238-.095M12.279 26.733l.143-.19M12.422 26.543l.143.19"/>
        </g>
        <path d="M.16 1.35h21v51h-21ZM6.66.05h8v1.3h-8Z" style="stroke:#afafaf;stroke-width:.1;stroke-opacity:1;stroke-linecap:round;stroke-linejoin:round;fill:none"/>
    </g>
    <g style="fill:none;stroke:#afafaf;stroke-width:.1;stroke-opacity:1;stroke-linecap:round;stroke-linejoin:round">
        <circle cx="4.96" cy="3.35" r="1.05"/>
        <circle cx="4.96" cy="50.35" r="1.05"/>
        <circle cx="16.36" cy="3.35" r="1.05"/>
        <circle cx="16.36" cy="50.35" r="1.05"/>
    </g>
    <g style="fill:none;stroke:#afafaf;stroke-width:.0472;stroke-opacity:1;stroke-linecap:round;stroke-linejoin:round">
        <g class="stroked-text">
            <path d="M1.932 2.98h-.324M1.77 2.98v-.567M1.77 2.413l-.054.081M1.716 2.494l-.054.054M1.662 2.548l-.054.027"/>
        </g>
        <path d="m.92 2.125.02-.098.055-.082.082-.056.098-.019h1.19l.098.02.082.055.056.082.019.098v1.19l-.02.098-.055.082-.082.056-.098.019h-1.19l-.098-.02-.082-.055-.056-.082-.019-.098Z" style="stroke:#afafaf;stroke-width:.0212;stroke-opacity:1;stroke-linecap:round;stroke-linejoin:round;fill:none"/>
    </g>
    <g class="stroked-text" style="fill:none;stroke:#afafaf;stroke-width:.0472;stroke-opacity:1;stroke-linecap:round;stroke-linejoin:round">
        <path d="m1.608 5.007.027-.027M1.635 4.98l.054-.027M1.689 4.953h.135M1.824 4.953l.054.027M1.878 4.98l.027.027M1.905 5.007l.027.054M1.932 5.061v.054M1.932 5.115l-.027.08M1.905 5.196l-.324.324M1.581 5.52h.35"/>
    </g>
    <circle cx="1.77" cy="5.26" r=".85" style="fill:none;stroke:#afafaf;stroke-width:.0212;stroke-opacity:1;stroke-linecap:round;stroke-linejoin:round"/>
    <g style="fill:none;stroke:#afafaf;stroke-width:.0472;stroke-opacity:1;stroke-linecap:round;stroke-linejoin:round">
        <g class="stroked-text">
            <path d="M1.581 7.493h.35M1.932 7.493l-.189.216M1.743 7.709h.081M1.824 7.709l.054.027M1.878 7.736l.027.027M1.905 7.763l.027.054M1.932 7.817v.135M1.932 7.952l-.027.054M1.905 8.006l-.027.027M1.878 8.033l-.054.027M1.824 8.06h-.162M1.662 8.06l-.054-.027M1.608 8.033l-.027-.027"/>
        </g>
        <path d="m.92 7.375.425-.425h1.02l.098.02.082.055.056.082.019.098v1.19l-.02.098-.055.082-.082.056-.098.019h-1.02L.92 8.225Z" style="stroke:#afafaf;stroke-width:.0212;stroke-opacity:1;stroke-linecap:round;stroke-linejoin:round;fill:none"/>
    </g>
    <g class="stroked-text" style="fill:none;stroke:#afafaf;stroke-width:.0472;stroke-opacity:1;stroke-linecap:round;stroke-linejoin:round">
        <path d="M1.878 10.222v.378M1.743 10.006l-.135.405M1.608 10.41h.35"/>
    </g>
    <circle cx="1.77" cy="10.34" r=".85" style="fill:none;stroke:#afafaf;stroke-width:.0212;stroke-opacity:1;stroke-linecap:round;stroke-linejoin:round"/>
    <g class="stroked-text" style="fill:none;stroke:#afafaf;stroke-width:.0472;stroke-opacity:1;stroke-linecap:round;stroke-linejoin:round">
        <path d="M1.905 12.573h-.27M1.635 12.573l-.027.27M1.608 12.843l.027-.027M1.635 12.816l.054-.027M1.689 12.789h.135M1.824 12.789l.054.027M1.878 12.816l.027.027M1.905 12.843l.027.054M1.932 12.897v.135M1.932 13.032l-.027.054M1.905 13.086l-.027.027M1.878 13.113l-.054.027M1.824 13.14h-.135M1.689 13.14l-.054-.027M1.635 13.113l-.027-.027"/>
    </g>
    <circle cx="1.77" cy="12.88" r=".85" style="fill:none;stroke:#afafaf;stroke-width:.0212;stroke-opacity:1;stroke-linecap:round;stroke-linejoin:round"/>
    <g class="stroked-text" style="fill:none;stroke:#afafaf;stroke-width:.0472;stroke-opacity:1;stroke-linecap:round;stroke-linejoin:round">
        <path d="M1.878 15.113H1.77M1.77 15.113l-.054.027M1.716 15.14l-.027.027M1.689 15.167l-.054.08M1.635 15.248l-.027.108M1.608 15.356v.216M1.608 15.572l.027.054M1.635 15.626l.027.027M1.662 15.653l.054.027M1.716 15.68h.108M1.824 15.68l.054-.027M1.878 15.653l.027-.027M1.905 15.626l.027-.054M1.932 15.572v-.135M1.932 15.437l-.027-.054M1.905 15.383l-.027-.027M1.878 15.356l-.054-.027M1.824 15.329h-.108M1.716 15.329l-.054.027M1.662 15.356l-.027.027M1.635 15.383l-.027.054"/>
    </g>
    <circle cx="1.77" cy="15.42" r=".85" style="fill:none;stroke:#afafaf;stroke-width:.0212;stroke-opacity:1;stroke-linecap:round;stroke-linejoin:round"/>
    <g class="stroked-text" style="fill:none;stroke:#afafaf;stroke-width:.0472;stroke-opacity:1;stroke-linecap:round;stroke-linejoin:round">
        <path d="M1.581 17.653h.378M1.959 17.653l-.243.567"/>
    </g>
    <circle cx="1.77" cy="17.96" r=".85" style="fill:none;stroke:#afafaf;stroke-width:.0212;stroke-opacity:1;stroke-linecap:round;stroke-linejoin:round"/>
    <g style="fill:none;stroke:#afafaf;stroke-width:.0472;stroke-opacity:1;stroke-linecap:round;stroke-linejoin:round">
        <g class="stroked-text">
            <path d="m1.716 20.436-.054-.027M1.662 20.409l-.027-.027M1.635 20.382l-.027-.054M1.608 20.328V20.3M1.608 20.301l.027-.054M1.635 20.247l.027-.027M1.662 20.22l.054-.027M1.716 20.193h.108M1.824 20.193l.054.027M1.878 20.22l.027.027M1.905 20.247l.027.054M1.932 20.301v.027M1.932 20.328l-.027.054M1.905 20.382l-.027.027M1.878 20.409l-.054.027M1.824 20.436h-.108M1.716 20.436l-.054.027M1.662 20.463l-.027.027M1.635 20.49l-.027.054M1.608 20.544v.108M1.608 20.652l.027.054M1.635 20.706l.027.027M1.662 20.733l.054.027M1.716 20.76h.108M1.824 20.76l.054-.027M1.878 20.733l.027-.027M1.905 20.706l.027-.054M1.932 20.652v-.108M1.932 20.544l-.027-.054M1.905 20.49l-.027-.027M1.878 20.463l-.054-.027"/>
        </g>
        <path d="m.92 20.075.425-.425h1.02l.098.02.082.055.056.082.019.098v1.19l-.02.098-.055.082-.082.056-.098.019h-1.02l-.425-.425Z" style="stroke:#afafaf;stroke-width:.0212;stroke-opacity:1;stroke-linecap:round;stroke-linejoin:round;fill:none"/>
    </g>
    <g class="stroked-text" style="fill:none;stroke:#afafaf;stroke-width:.0472;stroke-opacity:1;stroke-linecap:round;stroke-linejoin:round">
        <path d="M1.662 23.3h.108M1.77 23.3l.054-.027M1.824 23.273l.027-.027M1.851 23.246l.054-.081M1.905 23.165l.027-.108M1.932 23.057v-.216M1.932 22.841l-.027-.054M1.905 22.787l-.027-.027M1.878 22.76l-.054-.027M1.824 22.733h-.108M1.716 22.733l-.054.027M1.662 22.76l-.027.027M1.635 22.787l-.027.054M1.608 22.841v.135M1.608 22.976l.027.054M1.635 23.03l.027.027M1.662 23.057l.054.027M1.716 23.084h.108M1.824 23.084l.054-.027M1.878 23.057l.027-.027M1.905 23.03l.027-.054"/>
    </g>
    <circle cx="1.77" cy="23.04" r=".85" style="fill:none;stroke:#afafaf;stroke-width:.0212;stroke-opacity:1;stroke-linecap:round;stroke-linejoin:round"/>
    <g class="stroked-text" style="fill:none;stroke:#afafaf;stroke-width:.0472;stroke-opacity:1;stroke-linecap:round;stroke-linejoin:round">
        <path d="M1.662 25.84h-.324M1.5 25.84v-.567M1.5 25.273l-.054.081M1.446 25.354l-.054.054M1.392 25.408l-.054.027M2.013 25.273h.054M2.067 25.273l.054.027M2.12 25.3l.028.027M2.148 25.327l.027.054M2.175 25.381l.027.108M2.202 25.489v.135M2.202 25.624l-.027.108M2.175 25.732l-.027.054M2.148 25.786l-.027.027M2.12 25.813l-.053.027M2.067 25.84h-.054M2.013 25.84l-.054-.027M1.959 25.813l-.027-.027M1.932 25.786l-.027-.054M1.905 25.732l-.027-.108M1.878 25.624v-.135M1.878 25.489l.027-.108M1.905 25.381l.027-.054M1.932 25.327l.027-.027M1.959 25.3l.054-.027"/>
    </g>
    <circle cx="1.77" cy="25.58" r=".85" style="fill:none;stroke:#afafaf;stroke-width:.0212;stroke-opacity:1;stroke-linecap:round;stroke-linejoin:round"/>
    <g class="stroked-text" style="fill:none;stroke:#afafaf;stroke-width:.0472;stroke-opacity:1;stroke-linecap:round;stroke-linejoin:round">
        <path d="M1.662 28.38h-.324M1.5 28.38v-.567M1.5 27.813l-.054.081M1.446 27.894l-.054.054M1.392 27.948l-.054.027M2.202 28.38h-.324M2.04 28.38v-.567M2.04 27.813l-.054.081M1.986 27.894l-.054.054M1.932 27.948l-.054.027"/>
    </g>
    <circle cx="1.77" cy="28.12" r=".85" style="fill:none;stroke:#afafaf;stroke-width:.0212;stroke-opacity:1;stroke-linecap:round;stroke-linejoin:round"/>
    <g class="stroked-text" style="fill:none;stroke:#afafaf;stroke-width:.0472;stroke-opacity:1;stroke-linecap:round;stroke-linejoin:round">
        <path d="M1.662 30.92h-.324M1.5 30.92v-.567M1.5 30.353l-.054.081M1.446 30.434l-.054.054M1.392 30.488l-.054.027M1.878 30.407l.027-.027M1.905 30.38l.054-.027M1.959 30.353h.135M2.094 30.353l.054.027M2.148 30.38l.027.027M2.175 30.407l.027.054M2.202 30.461v.054M2.202 30.515l-.027.08M2.175 30.596l-.324.324M1.851 30.92h.35"/>
    </g>
    <circle cx="1.77" cy="30.66" r=".85" style="fill:none;stroke:#afafaf;stroke-width:.0212;stroke-opacity:1;stroke-linecap:round;stroke-linejoin:round"/>
    <g style="fill:none;stroke:#afafaf;stroke-width:.0472;stroke-opacity:1;stroke-linecap:round;stroke-linejoin:round">
        <g class="stroked-text">
            <path d="M1.662 33.46h-.324M1.5 33.46v-.567M1.5 32.893l-.054.081M1.446 32.974l-.054.054M1.392 33.028l-.054.027M1.851 32.893h.35M2.202 32.893l-.19.216M2.013 33.109h.08M2.094 33.109l.054.027M2.148 33.136l.027.027M2.175 33.163l.027.054M2.202 33.217v.135M2.202 33.352l-.027.054M2.175 33.406l-.027.027M2.148 33.433l-.054.027M2.094 33.46h-.162M1.932 33.46l-.054-.027M1.878 33.433l-.027-.027"/>
        </g>
        <path d="m.92 32.775.425-.425h1.02l.098.02.082.055.056.082.019.098v1.19l-.02.098-.055.082-.082.056-.098.019h-1.02l-.425-.425Z" style="stroke:#afafaf;stroke-width:.0212;stroke-opacity:1;stroke-linecap:round;stroke-linejoin:round;fill:none"/>
    </g>
    <g class="stroked-text" style="fill:none;stroke:#afafaf;stroke-width:.0472;stroke-opacity:1;stroke-linecap:round;stroke-linejoin:round">
        <path d="M1.662 36h-.324M1.5 36v-.567M1.5 35.433l-.054.081M1.446 35.514l-.054.054M1.392 35.568l-.054.027M2.148 35.622V36M2.013 35.406l-.135.405M1.878 35.81h.35"/>
    </g>
    <circle cx="1.77" cy="35.74" r=".85" style="fill:none;stroke:#afafaf;stroke-width:.0212;stroke-opacity:1;stroke-linecap:round;stroke-linejoin:round"/>
    <g class="stroked-text" style="fill:none;stroke:#afafaf;stroke-width:.0472;stroke-opacity:1;stroke-linecap:round;stroke-linejoin:round">
        <path d="M1.662 38.54h-.324M1.5 38.54v-.567M1.5 37.973l-.054.081M1.446 38.054l-.054.054M1.392 38.108l-.054.027M2.175 37.973h-.27M1.905 37.973l-.027.27M1.878 38.243l.027-.027M1.905 38.216l.054-.027M1.959 38.189h.135M2.094 38.189l.054.027M2.148 38.216l.027.027M2.175 38.243l.027.054M2.202 38.297v.135M2.202 38.432l-.027.054M2.175 38.486l-.027.027M2.148 38.513l-.054.027M2.094 38.54h-.135M1.959 38.54l-.054-.027M1.905 38.513l-.027-.027"/>
    </g>
    <circle cx="1.77" cy="38.28" r=".85" style="fill:none;stroke:#afafaf;stroke-width:.0212;stroke-opacity:1;stroke-linecap:round;stroke-linejoin:round"/>
    <g class="stroked-text" style="fill:none;stroke:#afafaf;stroke-width:.0472;stroke-opacity:1;stroke-linecap:round;stroke-linejoin:round">
        <path d="M1.662 41.08h-.324M1.5 41.08v-.567M1.5 40.513l-.054.081M1.446 40.594l-.054.054M1.392 40.648l-.054.027M2.148 40.513H2.04M2.04 40.513l-.054.027M1.986 40.54l-.027.027M1.959 40.567l-.054.08M1.905 40.648l-.027.108M1.878 40.756v.216M1.878 40.972l.027.054M1.905 41.026l.027.027M1.932 41.053l.054.027M1.986 41.08h.108M2.094 41.08l.054-.027M2.148 41.053l.027-.027M2.175 41.026l.027-.054M2.202 40.972v-.135M2.202 40.837l-.027-.054M2.175 40.783l-.027-.027M2.148 40.756l-.054-.027M2.094 40.729h-.108M1.986 40.729l-.054.027M1.932 40.756l-.027.027M1.905 40.783l-.027.054"/>
    </g>
    <circle cx="1.77" cy="40.82" r=".85" style="fill:none;stroke:#afafaf;stroke-width:.0212;stroke-opacity:1;stroke-linecap:round;stroke-linejoin:round"/>
    <g class="stroked-text" style="fill:none;stroke:#afafaf;stroke-width:.0472;stroke-opacity:1;stroke-linecap:round;stroke-linejoin:round">
        <path d="M1.662 43.62h-.324M1.5 43.62v-.567M1.5 43.053l-.054.081M1.446 43.134l-.054.054M1.392 43.188l-.054.027M1.851 43.053h.378M2.229 43.053l-.243.567"/>
    </g>
    <circle cx="1.77" cy="43.36" r=".85" style="fill:none;stroke:#afafaf;stroke-width:.0212;stroke-opacity:1;stroke-linecap:round;stroke-linejoin:round"/>
    <g style="fill:none;stroke:#afafaf;stroke-width:.0472;stroke-opacity:1;stroke-linecap:round;stroke-linejoin:round">
        <g class="stroked-text">
            <path d="M1.662 46.16h-.324M1.5 46.16v-.567M1.5 45.593l-.054.081M1.446 45.674l-.054.054M1.392 45.728l-.054.027M1.986 45.836l-.054-.027M1.932 45.809l-.027-.027M1.905 45.782l-.027-.054M1.878 45.728V45.7M1.878 45.701l.027-.054M1.905 45.647l.027-.027M1.932 45.62l.054-.027M1.986 45.593h.108M2.094 45.593l.054.027M2.148 45.62l.027.027M2.175 45.647l.027.054M2.202 45.701v.027M2.202 45.728l-.027.054M2.175 45.782l-.027.027M2.148 45.809l-.054.027M2.094 45.836h-.108M1.986 45.836l-.054.027M1.932 45.863l-.027.027M1.905 45.89l-.027.054M1.878 45.944v.108M1.878 46.052l.027.054M1.905 46.106l.027.027M1.932 46.133l.054.027M1.986 46.16h.108M2.094 46.16l.054-.027M2.148 46.133l.027-.027M2.175 46.106l.027-.054M2.202 46.052v-.108M2.202 45.944l-.027-.054M2.175 45.89l-.027-.027M2.148 45.863l-.054-.027"/>
        </g>
        <path d="m.92 45.475.425-.425h1.02l.098.02.082.055.056.082.019.098v1.19l-.02.098-.055.082-.082.056-.098.019h-1.02l-.425-.425Z" style="stroke:#afafaf;stroke-width:.0212;stroke-opacity:1;stroke-linecap:round;stroke-linejoin:round;fill:none"/>
    </g>
    <g class="stroked-text" style="fill:none;stroke:#afafaf;stroke-width:.0472;stroke-opacity:1;stroke-linecap:round;stroke-linejoin:round">
        <path d="M1.662 48.7h-.324M1.5 48.7v-.567M1.5 48.133l-.054.081M1.446 48.214l-.054.054M1.392 48.268l-.054.027M1.932 48.7h.108M2.04 48.7l.054-.027M2.094 48.673l.027-.027M2.12 48.646l.055-.081M2.175 48.565l.027-.108M2.202 48.457v-.216M2.202 48.241l-.027-.054M2.175 48.187l-.027-.027M2.148 48.16l-.054-.027M2.094 48.133h-.108M1.986 48.133l-.054.027M1.932 48.16l-.027.027M1.905 48.187l-.027.054M1.878 48.241v.135M1.878 48.376l.027.054M1.905 48.43l.027.027M1.932 48.457l.054.027M1.986 48.484h.108M2.094 48.484l.054-.027M2.148 48.457l.027-.027M2.175 48.43l.027-.054"/>
    </g>
    <circle cx="1.77" cy="48.44" r=".85" style="fill:none;stroke:#afafaf;stroke-width:.0212;stroke-opacity:1;stroke-linecap:round;stroke-linejoin:round"/>
    <g class="stroked-text" style="fill:none;stroke:#afafaf;stroke-width:.0472;stroke-opacity:1;stroke-linecap:round;stroke-linejoin:round">
        <path d="m1.338 50.727.027-.027M1.365 50.7l.054-.027M1.42 50.673h.134M1.554 50.673l.054.027M1.608 50.7l.027.027M1.635 50.727l.027.054M1.662 50.781v.054M1.662 50.835l-.027.08M1.635 50.916l-.324.324M1.311 51.24h.351M2.013 50.673h.054M2.067 50.673l.054.027M2.12 50.7l.028.027M2.148 50.727l.027.054M2.175 50.781l.027.108M2.202 50.889v.135M2.202 51.024l-.027.108M2.175 51.132l-.027.054M2.148 51.186l-.027.027M2.12 51.213l-.053.027M2.067 51.24h-.054M2.013 51.24l-.054-.027M1.959 51.213l-.027-.027M1.932 51.186l-.027-.054M1.905 51.132l-.027-.108M1.878 51.024v-.135M1.878 50.889l.027-.108M1.905 50.781l.027-.054M1.932 50.727l.027-.027M1.959 50.7l.054-.027"/>
    </g>
    <circle cx="1.77" cy="50.98" r=".85" style="fill:none;stroke:#afafaf;stroke-width:.0212;stroke-opacity:1;stroke-linecap:round;stroke-linejoin:round"/>
    <g class="stroked-text" style="fill:none;stroke:#afafaf;stroke-width:.0472;stroke-opacity:1;stroke-linecap:round;stroke-linejoin:round">
        <path d="m19.118 50.727.027-.027M19.145 50.7l.054-.027M19.2 50.673h.134M19.334 50.673l.054.027M19.388 50.7l.027.027M19.415 50.727l.027.054M19.442 50.781v.054M19.442 50.835l-.027.08M19.415 50.916l-.324.324M19.091 51.24h.351M19.982 51.24h-.324M19.82 51.24v-.567M19.82 50.673l-.054.081M19.766 50.754l-.054.054M19.712 50.808l-.054.027"/>
    </g>
    <circle cx="19.55" cy="50.98" r=".85" style="fill:none;stroke:#afafaf;stroke-width:.0212;stroke-opacity:1;stroke-linecap:round;stroke-linejoin:round"/>
    <g class="stroked-text" style="fill:none;stroke:#afafaf;stroke-width:.0472;stroke-opacity:1;stroke-linecap:round;stroke-linejoin:round">
        <path d="m19.118 48.187.027-.027M19.145 48.16l.054-.027M19.2 48.133h.134M19.334 48.133l.054.027M19.388 48.16l.027.027M19.415 48.187l.027.054M19.442 48.241v.054M19.442 48.295l-.027.08M19.415 48.376l-.324.324M19.091 48.7h.351M19.658 48.187l.027-.027M19.685 48.16l.054-.027M19.739 48.133h.135M19.874 48.133l.054.027M19.928 48.16l.027.027M19.955 48.187l.027.054M19.982 48.241v.054M19.982 48.295l-.027.08M19.955 48.376l-.324.324M19.631 48.7h.35"/>
    </g>
    <circle cx="19.55" cy="48.44" r=".85" style="fill:none;stroke:#afafaf;stroke-width:.0212;stroke-opacity:1;stroke-linecap:round;stroke-linejoin:round"/>
    <g style="fill:none;stroke:#afafaf;stroke-width:.0472;stroke-opacity:1;stroke-linecap:round;stroke-linejoin:round">
        <g class="stroked-text">
            <path d="m19.118 45.647.027-.027M19.145 45.62l.054-.027M19.2 45.593h.134M19.334 45.593l.054.027M19.388 45.62l.027.027M19.415 45.647l.027.054M19.442 45.701v.054M19.442 45.755l-.027.08M19.415 45.836l-.324.324M19.091 46.16h.351M19.631 45.593h.35M19.982 45.593l-.19.216M19.793 45.809h.08M19.874 45.809l.054.027M19.928 45.836l.027.027M19.955 45.863l.027.054M19.982 45.917v.135M19.982 46.052l-.027.054M19.955 46.106l-.027.027M19.928 46.133l-.054.027M19.874 46.16h-.162M19.712 46.16l-.054-.027M19.658 46.133l-.027-.027"/>
        </g>
        <path d="m18.7 45.305.02-.098.055-.082.082-.056.098-.019h1.02l.425.425v.85l-.425.425h-1.02l-.098-.02-.082-.055-.056-.082-.019-.098Z" style="stroke:#afafaf;stroke-width:.0212;stroke-opacity:1;stroke-linecap:round;stroke-linejoin:round;fill:none"/>
    </g>
    <g class="stroked-text" style="fill:none;stroke:#afafaf;stroke-width:.0472;stroke-opacity:1;stroke-linecap:round;stroke-linejoin:round">
        <path d="m19.118 43.107.027-.027M19.145 43.08l.054-.027M19.2 43.053h.134M19.334 43.053l.054.027M19.388 43.08l.027.027M19.415 43.107l.027.054M19.442 43.161v.054M19.442 43.215l-.027.08M19.415 43.296l-.324.324M19.091 43.62h.351M19.928 43.242v.378M19.793 43.026l-.135.405M19.658 43.43h.35"/>
    </g>
    <circle cx="19.55" cy="43.36" r=".85" style="fill:none;stroke:#afafaf;stroke-width:.0212;stroke-opacity:1;stroke-linecap:round;stroke-linejoin:round"/>
    <g class="stroked-text" style="fill:none;stroke:#afafaf;stroke-width:.0472;stroke-opacity:1;stroke-linecap:round;stroke-linejoin:round">
        <path d="m19.118 40.567.027-.027M19.145 40.54l.054-.027M19.2 40.513h.134M19.334 40.513l.054.027M19.388 40.54l.027.027M19.415 40.567l.027.054M19.442 40.621v.054M19.442 40.675l-.027.08M19.415 40.756l-.324.324M19.091 41.08h.351M19.955 40.513h-.27M19.685 40.513l-.027.27M19.658 40.783l.027-.027M19.685 40.756l.054-.027M19.739 40.729h.135M19.874 40.729l.054.027M19.928 40.756l.027.027M19.955 40.783l.027.054M19.982 40.837v.135M19.982 40.972l-.027.054M19.955 41.026l-.027.027M19.928 41.053l-.054.027M19.874 41.08h-.135M19.739 41.08l-.054-.027M19.685 41.053l-.027-.027"/>
    </g>
    <circle cx="19.55" cy="40.82" r=".85" style="fill:none;stroke:#afafaf;stroke-width:.0212;stroke-opacity:1;stroke-linecap:round;stroke-linejoin:round"/>
    <g class="stroked-text" style="fill:none;stroke:#afafaf;stroke-width:.0472;stroke-opacity:1;stroke-linecap:round;stroke-linejoin:round">
        <path d="m19.118 38.027.027-.027M19.145 38l.054-.027M19.2 37.973h.134M19.334 37.973l.054.027M19.388 38l.027.027M19.415 38.027l.027.054M19.442 38.081v.054M19.442 38.135l-.027.08M19.415 38.216l-.324.324M19.091 38.54h.351M19.928 37.973h-.108M19.82 37.973l-.054.027M19.766 38l-.027.027M19.739 38.027l-.054.08M19.685 38.108l-.027.108M19.658 38.216v.216M19.658 38.432l.027.054M19.685 38.486l.027.027M19.712 38.513l.054.027M19.766 38.54h.108M19.874 38.54l.054-.027M19.928 38.513l.027-.027M19.955 38.486l.027-.054M19.982 38.432v-.135M19.982 38.297l-.027-.054M19.955 38.243l-.027-.027M19.928 38.216l-.054-.027M19.874 38.189h-.108M19.766 38.189l-.054.027M19.712 38.216l-.027.027M19.685 38.243l-.027.054"/>
    </g>
    <circle cx="19.55" cy="38.28" r=".85" style="fill:none;stroke:#afafaf;stroke-width:.0212;stroke-opacity:1;stroke-linecap:round;stroke-linejoin:round"/>
    <g class="stroked-text" style="fill:none;stroke:#afafaf;stroke-width:.0472;stroke-opacity:1;stroke-linecap:round;stroke-linejoin:round">
        <path d="m19.118 35.487.027-.027M19.145 35.46l.054-.027M19.2 35.433h.134M19.334 35.433l.054.027M19.388 35.46l.027.027M19.415 35.487l.027.054M19.442 35.541v.054M19.442 35.595l-.027.08M19.415 35.676l-.324.324M19.091 36h.351M19.631 35.433h.378M20.009 35.433l-.243.567"/>
    </g>
    <circle cx="19.55" cy="35.74" r=".85" style="fill:none;stroke:#afafaf;stroke-width:.0212;stroke-opacity:1;stroke-linecap:round;stroke-linejoin:round"/>
    <g style="fill:none;stroke:#afafaf;stroke-width:.0472;stroke-opacity:1;stroke-linecap:round;stroke-linejoin:round">
        <g class="stroked-text">
            <path d="m19.118 32.947.027-.027M19.145 32.92l.054-.027M19.2 32.893h.134M19.334 32.893l.054.027M19.388 32.92l.027.027M19.415 32.947l.027.054M19.442 33.001v.054M19.442 33.055l-.027.08M19.415 33.136l-.324.324M19.091 33.46h.351M19.766 33.136l-.054-.027M19.712 33.109l-.027-.027M19.685 33.082l-.027-.054M19.658 33.028V33M19.658 33.001l.027-.054M19.685 32.947l.027-.027M19.712 32.92l.054-.027M19.766 32.893h.108M19.874 32.893l.054.027M19.928 32.92l.027.027M19.955 32.947l.027.054M19.982 33.001v.027M19.982 33.028l-.027.054M19.955 33.082l-.027.027M19.928 33.109l-.054.027M19.874 33.136h-.108M19.766 33.136l-.054.027M19.712 33.163l-.027.027M19.685 33.19l-.027.054M19.658 33.244v.108M19.658 33.352l.027.054M19.685 33.406l.027.027M19.712 33.433l.054.027M19.766 33.46h.108M19.874 33.46l.054-.027M19.928 33.433l.027-.027M19.955 33.406l.027-.054M19.982 33.352v-.108M19.982 33.244l-.027-.054M19.955 33.19l-.027-.027M19.928 33.163l-.054-.027"/>
        </g>
        <path d="m18.7 32.605.02-.098.055-.082.082-.056.098-.019h1.02l.425.425v.85l-.425.425h-1.02l-.098-.02-.082-.055-.056-.082-.019-.098Z" style="stroke:#afafaf;stroke-width:.0212;stroke-opacity:1;stroke-linecap:round;stroke-linejoin:round;fill:none"/>
    </g>
    <g class="stroked-text" style="fill:none;stroke:#afafaf;stroke-width:.0472;stroke-opacity:1;stroke-linecap:round;stroke-linejoin:round">
        <path d="m19.118 30.407.027-.027M19.145 30.38l.054-.027M19.2 30.353h.134M19.334 30.353l.054.027M19.388 30.38l.027.027M19.415 30.407l.027.054M19.442 30.461v.054M19.442 30.515l-.027.08M19.415 30.596l-.324.324M19.091 30.92h.351M19.712 30.92h.108M19.82 30.92l.054-.027M19.874 30.893l.027-.027M19.9 30.866l.055-.081M19.955 30.785l.027-.108M19.982 30.677v-.216M19.982 30.461l-.027-.054M19.955 30.407l-.027-.027M19.928 30.38l-.054-.027M19.874 30.353h-.108M19.766 30.353l-.054.027M19.712 30.38l-.027.027M19.685 30.407l-.027.054M19.658 30.461v.135M19.658 30.596l.027.054M19.685 30.65l.027.027M19.712 30.677l.054.027M19.766 30.704h.108M19.874 30.704l.054-.027M19.928 30.677l.027-.027M19.955 30.65l.027-.054"/>
    </g>
    <circle cx="19.55" cy="30.66" r=".85" style="fill:none;stroke:#afafaf;stroke-width:.0212;stroke-opacity:1;stroke-linecap:round;stroke-linejoin:round"/>
    <g class="stroked-text" style="fill:none;stroke:#afafaf;stroke-width:.0472;stroke-opacity:1;stroke-linecap:round;stroke-linejoin:round">
        <path d="M19.091 27.813h.351M19.442 27.813l-.189.216M19.253 28.029h.081M19.334 28.029l.054.027M19.388 28.056l.027.027M19.415 28.083l.027.054M19.442 28.137v.135M19.442 28.272l-.027.054M19.415 28.326l-.027.027M19.388 28.353l-.054.027M19.334 28.38h-.162M19.172 28.38l-.054-.027M19.118 28.353l-.027-.027M19.793 27.813h.054M19.847 27.813l.054.027M19.9 27.84l.028.027M19.928 27.867l.027.054M19.955 27.921l.027.108M19.982 28.029v.135M19.982 28.164l-.027.108M19.955 28.272l-.027.054M19.928 28.326l-.027.027M19.9 28.353l-.053.027M19.847 28.38h-.054M19.793 28.38l-.054-.027M19.739 28.353l-.027-.027M19.712 28.326l-.027-.054M19.685 28.272l-.027-.108M19.658 28.164v-.135M19.658 28.029l.027-.108M19.685 27.921l.027-.054M19.712 27.867l.027-.027M19.739 27.84l.054-.027"/>
    </g>
    <circle cx="19.55" cy="28.12" r=".85" style="fill:none;stroke:#afafaf;stroke-width:.0212;stroke-opacity:1;stroke-linecap:round;stroke-linejoin:round"/>
    <g class="stroked-text" style="fill:none;stroke:#afafaf;stroke-width:.0472;stroke-opacity:1;stroke-linecap:round;stroke-linejoin:round">
        <path d="M19.091 25.273h.351M19.442 25.273l-.189.216M19.253 25.489h.081M19.334 25.489l.054.027M19.388 25.516l.027.027M19.415 25.543l.027.054M19.442 25.597v.135M19.442 25.732l-.027.054M19.415 25.786l-.027.027M19.388 25.813l-.054.027M19.334 25.84h-.162M19.172 25.84l-.054-.027M19.118 25.813l-.027-.027M19.982 25.84h-.324M19.82 25.84v-.567M19.82 25.273l-.054.081M19.766 25.354l-.054.054M19.712 25.408l-.054.027"/>
    </g>
    <circle cx="19.55" cy="25.58" r=".85" style="fill:none;stroke:#afafaf;stroke-width:.0212;stroke-opacity:1;stroke-linecap:round;stroke-linejoin:round"/>
    <g class="stroked-text" style="fill:none;stroke:#afafaf;stroke-width:.0472;stroke-opacity:1;stroke-linecap:round;stroke-linejoin:round">
        <path d="M19.091 22.733h.351M19.442 22.733l-.189.216M19.253 22.949h.081M19.334 22.949l.054.027M19.388 22.976l.027.027M19.415 23.003l.027.054M19.442 23.057v.135M19.442 23.192l-.027.054M19.415 23.246l-.027.027M19.388 23.273l-.054.027M19.334 23.3h-.162M19.172 23.3l-.054-.027M19.118 23.273l-.027-.027M19.658 22.787l.027-.027M19.685 22.76l.054-.027M19.739 22.733h.135M19.874 22.733l.054.027M19.928 22.76l.027.027M19.955 22.787l.027.054M19.982 22.841v.054M19.982 22.895l-.027.08M19.955 22.976l-.324.324M19.631 23.3h.35"/>
    </g>
    <circle cx="19.55" cy="23.04" r=".85" style="fill:none;stroke:#afafaf;stroke-width:.0212;stroke-opacity:1;stroke-linecap:round;stroke-linejoin:round"/>
    <g style="fill:none;stroke:#afafaf;stroke-width:.0472;stroke-opacity:1;stroke-linecap:round;stroke-linejoin:round">
        <g class="stroked-text">
            <path d="M19.091 20.193h.351M19.442 20.193l-.189.216M19.253 20.409h.081M19.334 20.409l.054.027M19.388 20.436l.027.027M19.415 20.463l.027.054M19.442 20.517v.135M19.442 20.652l-.027.054M19.415 20.706l-.027.027M19.388 20.733l-.054.027M19.334 20.76h-.162M19.172 20.76l-.054-.027M19.118 20.733l-.027-.027M19.631 20.193h.35M19.982 20.193l-.19.216M19.793 20.409h.08M19.874 20.409l.054.027M19.928 20.436l.027.027M19.955 20.463l.027.054M19.982 20.517v.135M19.982 20.652l-.027.054M19.955 20.706l-.027.027M19.928 20.733l-.054.027M19.874 20.76h-.162M19.712 20.76l-.054-.027M19.658 20.733l-.027-.027"/>
        </g>
        <path d="m18.7 19.905.02-.098.055-.082.082-.056.098-.019h1.02l.425.425v.85l-.425.425h-1.02l-.098-.02-.082-.055-.056-.082-.019-.098Z" style="stroke:#afafaf;stroke-width:.0212;stroke-opacity:1;stroke-linecap:round;stroke-linejoin:round;fill:none"/>
    </g>
    <g class="stroked-text" style="fill:none;stroke:#afafaf;stroke-width:.0472;stroke-opacity:1;stroke-linecap:round;stroke-linejoin:round">
        <path d="M19.091 17.653h.351M19.442 17.653l-.189.216M19.253 17.869h.081M19.334 17.869l.054.027M19.388 17.896l.027.027M19.415 17.923l.027.054M19.442 17.977v.135M19.442 18.112l-.027.054M19.415 18.166l-.027.027M19.388 18.193l-.054.027M19.334 18.22h-.162M19.172 18.22l-.054-.027M19.118 18.193l-.027-.027M19.928 17.842v.378M19.793 17.626l-.135.405M19.658 18.03h.35"/>
    </g>
    <circle cx="19.55" cy="17.96" r=".85" style="fill:none;stroke:#afafaf;stroke-width:.0212;stroke-opacity:1;stroke-linecap:round;stroke-linejoin:round"/>
    <g class="stroked-text" style="fill:none;stroke:#afafaf;stroke-width:.0472;stroke-opacity:1;stroke-linecap:round;stroke-linejoin:round">
        <path d="M19.091 15.113h.351M19.442 15.113l-.189.216M19.253 15.329h.081M19.334 15.329l.054.027M19.388 15.356l.027.027M19.415 15.383l.027.054M19.442 15.437v.135M19.442 15.572l-.027.054M19.415 15.626l-.027.027M19.388 15.653l-.054.027M19.334 15.68h-.162M19.172 15.68l-.054-.027M19.118 15.653l-.027-.027M19.955 15.113h-.27M19.685 15.113l-.027.27M19.658 15.383l.027-.027M19.685 15.356l.054-.027M19.739 15.329h.135M19.874 15.329l.054.027M19.928 15.356l.027.027M19.955 15.383l.027.054M19.982 15.437v.135M19.982 15.572l-.027.054M19.955 15.626l-.027.027M19.928 15.653l-.054.027M19.874 15.68h-.135M19.739 15.68l-.054-.027M19.685 15.653l-.027-.027"/>
    </g>
    <circle cx="19.55" cy="15.42" r=".85" style="fill:none;stroke:#afafaf;stroke-width:.0212;stroke-opacity:1;stroke-linecap:round;stroke-linejoin:round"/>
    <g class="stroked-text" style="fill:none;stroke:#afafaf;stroke-width:.0472;stroke-opacity:1;stroke-linecap:round;stroke-linejoin:round">
        <path d="M19.091 12.573h.351M19.442 12.573l-.189.216M19.253 12.789h.081M19.334 12.789l.054.027M19.388 12.816l.027.027M19.415 12.843l.027.054M19.442 12.897v.135M19.442 13.032l-.027.054M19.415 13.086l-.027.027M19.388 13.113l-.054.027M19.334 13.14h-.162M19.172 13.14l-.054-.027M19.118 13.113l-.027-.027M19.928 12.573h-.108M19.82 12.573l-.054.027M19.766 12.6l-.027.027M19.739 12.627l-.054.08M19.685 12.708l-.027.108M19.658 12.816v.216M19.658 13.032l.027.054M19.685 13.086l.027.027M19.712 13.113l.054.027M19.766 13.14h.108M19.874 13.14l.054-.027M19.928 13.113l.027-.027M19.955 13.086l.027-.054M19.982 13.032v-.135M19.982 12.897l-.027-.054M19.955 12.843l-.027-.027M19.928 12.816l-.054-.027M19.874 12.789h-.108M19.766 12.789l-.054.027M19.712 12.816l-.027.027M19.685 12.843l-.027.054"/>
    </g>
    <circle cx="19.55" cy="12.88" r=".85" style="fill:none;stroke:#afafaf;stroke-width:.0212;stroke-opacity:1;stroke-linecap:round;stroke-linejoin:round"/>
    <g class="stroked-text" style="fill:none;stroke:#afafaf;stroke-width:.0472;stroke-opacity:1;stroke-linecap:round;stroke-linejoin:round">
        <path d="M19.091 10.033h.351M19.442 10.033l-.189.216M19.253 10.249h.081M19.334 10.249l.054.027M19.388 10.276l.027.027M19.415 10.303l.027.054M19.442 10.357v.135M19.442 10.492l-.027.054M19.415 10.546l-.027.027M19.388 10.573l-.054.027M19.334 10.6h-.162M19.172 10.6l-.054-.027M19.118 10.573l-.027-.027M19.631 10.033h.378M20.009 10.033l-.243.567"/>
    </g>
    <circle cx="19.55" cy="10.34" r=".85" style="fill:none;stroke:#afafaf;stroke-width:.0212;stroke-opacity:1;stroke-linecap:round;stroke-linejoin:round"/>
    <g style="fill:none;stroke:#afafaf;stroke-width:.0472;stroke-opacity:1;stroke-linecap:round;stroke-linejoin:round">
        <g class="stroked-text">
            <path d="M19.091 7.493h.351M19.442 7.493l-.189.216M19.253 7.709h.081M19.334 7.709l.054.027M19.388 7.736l.027.027M19.415 7.763l.027.054M19.442 7.817v.135M19.442 7.952l-.027.054M19.415 8.006l-.027.027M19.388 8.033l-.054.027M19.334 8.06h-.162M19.172 8.06l-.054-.027M19.118 8.033l-.027-.027M19.766 7.736l-.054-.027M19.712 7.709l-.027-.027M19.685 7.682l-.027-.054M19.658 7.628V7.6M19.658 7.601l.027-.054M19.685 7.547l.027-.027M19.712 7.52l.054-.027M19.766 7.493h.108M19.874 7.493l.054.027M19.928 7.52l.027.027M19.955 7.547l.027.054M19.982 7.601v.027M19.982 7.628l-.027.054M19.955 7.682l-.027.027M19.928 7.709l-.054.027M19.874 7.736h-.108M19.766 7.736l-.054.027M19.712 7.763l-.027.027M19.685 7.79l-.027.054M19.658 7.844v.108M19.658 7.952l.027.054M19.685 8.006l.027.027M19.712 8.033l.054.027M19.766 8.06h.108M19.874 8.06l.054-.027M19.928 8.033l.027-.027M19.955 8.006l.027-.054M19.982 7.952v-.108M19.982 7.844l-.027-.054M19.955 7.79l-.027-.027M19.928 7.763l-.054-.027"/>
        </g>
        <path d="m18.7 7.205.02-.098.055-.082.082-.056.098-.019h1.02l.425.425v.85l-.425.425h-1.02l-.098-.02-.082-.055-.056-.082-.019-.098Z" style="stroke:#afafaf;stroke-width:.0212;stroke-opacity:1;stroke-linecap:round;stroke-linejoin:round;fill:none"/>
    </g>
    <g class="stroked-text" style="fill:none;stroke:#afafaf;stroke-width:.0472;stroke-opacity:1;stroke-linecap:round;stroke-linejoin:round">
        <path d="M19.091 4.953h.351M19.442 4.953l-.189.216M19.253 5.169h.081M19.334 5.169l.054.027M19.388 5.196l.027.027M19.415 5.223l.027.054M19.442 5.277v.135M19.442 5.412l-.027.054M19.415 5.466l-.027.027M19.388 5.493l-.054.027M19.334 5.52h-.162M19.172 5.52l-.054-.027M19.118 5.493l-.027-.027M19.712 5.52h.108M19.82 5.52l.054-.027M19.874 5.493l.027-.027M19.9 5.466l.055-.081M19.955 5.385l.027-.108M19.982 5.277V5.06M19.982 5.061l-.027-.054M19.955 5.007l-.027-.027M19.928 4.98l-.054-.027M19.874 4.953h-.108M19.766 4.953l-.054.027M19.712 4.98l-.027.027M19.685 5.007l-.027.054M19.658 5.061v.135M19.658 5.196l.027.054M19.685 5.25l.027.027M19.712 5.277l.054.027M19.766 5.304h.108M19.874 5.304l.054-.027M19.928 5.277l.027-.027M19.955 5.25l.027-.054"/>
    </g>
    <circle cx="19.55" cy="5.26" r=".85" style="fill:none;stroke:#afafaf;stroke-width:.0212;stroke-opacity:1;stroke-linecap:round;stroke-linejoin:round"/>
    <g class="stroked-text" style="fill:none;stroke:#afafaf;stroke-width:.0472;stroke-opacity:1;stroke-linecap:round;stroke-linejoin:round">
        <path d="M19.388 2.602v.378M19.253 2.386l-.135.405M19.118 2.79h.351M19.793 2.413h.054M19.847 2.413l.054.027M19.9 2.44l.028.027M19.928 2.467l.027.054M19.955 2.521l.027.108M19.982 2.629v.135M19.982 2.764l-.027.108M19.955 2.872l-.027.054M19.928 2.926l-.027.027M19.9 2.953l-.053.027M19.847 2.98h-.054M19.793 2.98l-.054-.027M19.739 2.953l-.027-.027M19.712 2.926l-.027-.054M19.685 2.872l-.027-.108M19.658 2.764v-.135M19.658 2.629l.027-.108M19.685 2.521l.027-.054M19.712 2.467l.027-.027M19.739 2.44l.054-.027"/>
    </g>
    <circle cx="19.55" cy="2.72" r=".85" style="fill:none;stroke:#afafaf;stroke-width:.0212;stroke-opacity:1;stroke-linecap:round;stroke-linejoin:round"/>
</svg>
