<svg xmlns="http://www.w3.org/2000/svg" width="86.592" height="137.088" viewBox="0 0 22.911 36.271">
    <g class="stroked-text" style="fill:none;stroke:#f2eda1;stroke-width:.15;stroke-opacity:1;stroke-linecap:round;stroke-linejoin:round">
        <path d="m10.125 5.495-.333-.476M9.554 5.495v-1M9.554 4.495h.38M9.935 4.495l.095.047M10.03 4.542l.047.048M10.077 4.59l.048.095M10.125 4.685v.143M10.125 4.828l-.048.095M10.077 4.923l-.047.048M10.03 4.971l-.095.048M9.935 5.019h-.381M10.554 4.971h.333M11.03 5.495h-.476M10.554 5.495v-1M10.554 4.495h.476M11.792 4.971h-.334M11.458 5.495v-1M11.458 4.495h.476M12.458 4.495v.238M12.22 4.638l.238.095M12.458 4.733l.238-.095M12.316 4.923l.142-.19M12.458 4.733l.143.19M13.22 4.495v.238M12.982 4.638l.238.095M13.22 4.733l.238-.095M13.077 4.923l.143-.19M13.22 4.733l.143.19"/>
    </g>
    <g style="fill:none;stroke:#f2eda1;stroke-width:.12;stroke-opacity:1;stroke-linecap:round;stroke-linejoin:round">
        <path d="M4.698 5.84v-1.6"/>
        <path d="M2.468 1.13h17.98v33.22H2.468Z" style="stroke:#f2eda1;stroke-width:.12;stroke-opacity:1;stroke-linecap:round;stroke-linejoin:round;fill:none"/>
        <path stroke="none" d="m2.784 4.48.019-.092.052-.078.078-.052.091-.018h1.12l.092.018.078.052.052.078.018.092V5.6l-.018.092-.052.078-.078.052-.092.018h-1.12l-.091-.018-.078-.052-.052-.078-.019-.092Z" style="fill:#4d7fc4;fill-opacity:1;stroke:none;fill-rule:evenodd"/>
    </g>
    <g style="fill:#4d7fc4;fill-opacity:1;stroke:none">
        <circle cx="4.092" cy="7.58" r=".8"/>
        <circle cx="3.584" cy="10.12" r=".8"/>
        <circle cx="4.092" cy="12.66" r=".8"/>
        <circle cx="3.584" cy="15.2" r=".8"/>
        <circle cx="4.092" cy="17.74" r=".8"/>
        <circle cx="3.584" cy="20.28" r=".8"/>
        <circle cx="4.092" cy="22.82" r=".8"/>
        <circle cx="3.584" cy="25.36" r=".8"/>
        <circle cx="4.092" cy="27.9" r=".8"/>
        <circle cx="3.584" cy="30.44" r=".8"/>
        <circle cx="4.092" cy="32.98" r=".8"/>
        <circle cx="18.824" cy="32.98" r=".8"/>
        <circle cx="19.332" cy="30.44" r=".8"/>
        <circle cx="18.824" cy="27.9" r=".8"/>
        <circle cx="19.332" cy="25.36" r=".8"/>
        <circle cx="18.824" cy="22.82" r=".8"/>
        <circle cx="19.332" cy="20.28" r=".8"/>
        <circle cx="18.824" cy="17.74" r=".8"/>
        <circle cx="19.332" cy="15.2" r=".8"/>
        <circle cx="18.824" cy="12.66" r=".8"/>
        <circle cx="19.332" cy="10.12" r=".8"/>
        <circle cx="18.824" cy="7.58" r=".8"/>
        <circle cx="19.332" cy="5.04" r=".8"/>
        <path d="m2.784 4.48.019-.092.052-.078.078-.052.091-.018h1.12l.092.018.078.052.052.078.018.092V5.6l-.018.092-.052.078-.078.052-.092.018h-1.12l-.091-.018-.078-.052-.052-.078-.019-.092Z" style="fill:#c83434;fill-opacity:1;stroke:none;fill-rule:evenodd"/>
    </g>
    <g style="fill:#c83434;fill-opacity:1;stroke:none">
        <circle cx="4.092" cy="7.58" r=".8"/>
        <circle cx="3.584" cy="10.12" r=".8"/>
        <circle cx="4.092" cy="12.66" r=".8"/>
        <circle cx="3.584" cy="15.2" r=".8"/>
        <circle cx="4.092" cy="17.74" r=".8"/>
        <circle cx="3.584" cy="20.28" r=".8"/>
        <circle cx="4.092" cy="22.82" r=".8"/>
        <circle cx="3.584" cy="25.36" r=".8"/>
        <circle cx="4.092" cy="27.9" r=".8"/>
        <circle cx="3.584" cy="30.44" r=".8"/>
        <circle cx="4.092" cy="32.98" r=".8"/>
        <circle cx="18.824" cy="32.98" r=".8"/>
        <circle cx="19.332" cy="30.44" r=".8"/>
        <circle cx="18.824" cy="27.9" r=".8"/>
        <circle cx="19.332" cy="25.36" r=".8"/>
        <circle cx="18.824" cy="22.82" r=".8"/>
        <circle cx="19.332" cy="20.28" r=".8"/>
        <circle cx="18.824" cy="17.74" r=".8"/>
        <circle cx="19.332" cy="15.2" r=".8"/>
        <circle cx="18.824" cy="12.66" r=".8"/>
        <circle cx="19.332" cy="10.12" r=".8"/>
        <circle cx="18.824" cy="7.58" r=".8"/>
        <circle cx="19.332" cy="5.04" r=".8"/>
    </g>
    <g style="fill:none;stroke:#585d84;stroke-width:.0444;stroke-opacity:1;stroke-linecap:round;stroke-linejoin:round">
        <g class="stroked-text">
            <path d="M3.737 5.284h-.305M3.584 5.284v-.533M3.584 4.751l-.05.076M3.534 4.827l-.051.051M3.483 4.878l-.051.026"/>
        </g>
        <path d="m2.784 4.48.019-.092.052-.078.078-.052.091-.018h1.12l.092.018.078.052.052.078.018.092V5.6l-.018.092-.052.078-.078.052-.092.018h-1.12l-.091-.018-.078-.052-.052-.078-.019-.092Z" style="stroke:#585d84;stroke-width:.0212;stroke-opacity:1;stroke-linecap:round;stroke-linejoin:round;fill:none"/>
    </g>
    <g class="stroked-text" style="fill:none;stroke:#585d84;stroke-width:.0444;stroke-opacity:1;stroke-linecap:round;stroke-linejoin:round">
        <path d="m3.94 7.342.025-.026M3.965 7.317l.051-.026M4.016 7.291h.127M4.143 7.291l.05.025M4.194 7.317l.025.025M4.22 7.342l.025.05M4.245 7.393v.05M4.245 7.444l-.026.076M4.22 7.52l-.305.304M3.915 7.824h.33"/>
    </g>
    <g style="fill:none;stroke:#585d84;stroke-width:.0212;stroke-opacity:1;stroke-linecap:round;stroke-linejoin:round">
        <path d="M3.292 7.58a.8.8 0 0 0 1.6 0M4.892 7.58a.8.8 0 0 0-1.6 0"/>
    </g>
    <g class="stroked-text" style="fill:none;stroke:#585d84;stroke-width:.0444;stroke-opacity:1;stroke-linecap:round;stroke-linejoin:round">
        <path d="M3.407 9.831h.33M3.737 9.831l-.178.203M3.559 10.034h.076M3.635 10.034l.05.026M3.686 10.06l.025.025M3.711 10.085l.026.05M3.737 10.136v.127M3.737 10.263l-.026.05M3.711 10.314l-.025.025M3.686 10.339l-.05.025M3.635 10.364h-.152M3.483 10.364l-.051-.025M3.432 10.339l-.025-.025"/>
    </g>
    <g style="fill:none;stroke:#585d84;stroke-width:.0212;stroke-opacity:1;stroke-linecap:round;stroke-linejoin:round">
        <path d="M2.784 10.12a.8.8 0 0 0 1.6 0M4.384 10.12a.8.8 0 0 0-1.6 0"/>
    </g>
    <g class="stroked-text" style="fill:none;stroke:#585d84;stroke-width:.0444;stroke-opacity:1;stroke-linecap:round;stroke-linejoin:round">
        <path d="M4.194 12.549v.355M4.067 12.346l-.127.38M3.94 12.727h.33"/>
    </g>
    <g style="fill:none;stroke:#585d84;stroke-width:.0212;stroke-opacity:1;stroke-linecap:round;stroke-linejoin:round">
        <path d="M3.292 12.66a.8.8 0 0 0 1.6 0M4.892 12.66a.8.8 0 0 0-1.6 0"/>
    </g>
    <g class="stroked-text" style="fill:none;stroke:#585d84;stroke-width:.0444;stroke-opacity:1;stroke-linecap:round;stroke-linejoin:round">
        <path d="M3.711 14.911h-.254M3.457 14.911l-.025.254M3.432 15.165l.025-.025M3.457 15.14l.051-.026M3.508 15.114h.127M3.635 15.114l.05.026M3.686 15.14l.025.025M3.711 15.165l.026.05M3.737 15.216v.127M3.737 15.343l-.026.05M3.711 15.394l-.025.025M3.686 15.419l-.05.025M3.635 15.444h-.127M3.508 15.444l-.05-.025M3.457 15.419l-.025-.025"/>
    </g>
    <g style="fill:none;stroke:#585d84;stroke-width:.0212;stroke-opacity:1;stroke-linecap:round;stroke-linejoin:round">
        <path d="M2.784 15.2a.8.8 0 0 0 1.6 0M4.384 15.2a.8.8 0 0 0-1.6 0"/>
    </g>
    <g class="stroked-text" style="fill:none;stroke:#585d84;stroke-width:.0444;stroke-opacity:1;stroke-linecap:round;stroke-linejoin:round">
        <path d="M4.194 17.451h-.102M4.092 17.451l-.05.026M4.042 17.477l-.026.025M4.016 17.502l-.05.076M3.965 17.578l-.025.102M3.94 17.68v.203M3.94 17.883l.025.05M3.965 17.934l.026.025M3.99 17.959l.051.025M4.042 17.984h.101M4.143 17.984l.05-.025M4.194 17.959l.025-.025M4.22 17.934l.025-.051M4.245 17.883v-.127M4.245 17.756l-.026-.05M4.22 17.705l-.026-.025M4.194 17.68l-.05-.026M4.143 17.654h-.101M4.042 17.654l-.051.026M3.99 17.68l-.025.025M3.965 17.705l-.025.05"/>
    </g>
    <g style="fill:none;stroke:#585d84;stroke-width:.0212;stroke-opacity:1;stroke-linecap:round;stroke-linejoin:round">
        <path d="M3.292 17.74a.8.8 0 0 0 1.6 0M4.892 17.74a.8.8 0 0 0-1.6 0"/>
    </g>
    <g class="stroked-text" style="fill:none;stroke:#585d84;stroke-width:.0444;stroke-opacity:1;stroke-linecap:round;stroke-linejoin:round">
        <path d="M3.407 19.991h.355M3.762 19.991l-.228.533"/>
    </g>
    <g style="fill:none;stroke:#585d84;stroke-width:.0212;stroke-opacity:1;stroke-linecap:round;stroke-linejoin:round">
        <path d="M2.784 20.28a.8.8 0 0 0 1.6 0M4.384 20.28a.8.8 0 0 0-1.6 0"/>
    </g>
    <g class="stroked-text" style="fill:none;stroke:#585d84;stroke-width:.0444;stroke-opacity:1;stroke-linecap:round;stroke-linejoin:round">
        <path d="m4.042 22.76-.051-.026M3.99 22.734l-.025-.025M3.965 22.709l-.025-.05M3.94 22.658v-.025M3.94 22.633l.025-.051M3.965 22.582l.026-.026M3.99 22.557l.051-.026M4.042 22.531h.101M4.143 22.531l.05.026M4.194 22.557l.025.025M4.22 22.582l.025.05M4.245 22.633v.025M4.245 22.658l-.026.05M4.22 22.709l-.026.025M4.194 22.734l-.05.026M4.143 22.76h-.101M4.042 22.76l-.051.025M3.99 22.785l-.025.025M3.965 22.81l-.025.051M3.94 22.861v.102M3.94 22.963l.025.05M3.965 23.014l.026.025M3.99 23.039l.051.025M4.042 23.064h.101M4.143 23.064l.05-.025M4.194 23.039l.025-.025M4.22 23.014l.025-.051M4.245 22.963v-.102M4.245 22.861l-.026-.05M4.22 22.81l-.026-.025M4.194 22.785l-.05-.025"/>
    </g>
    <g style="fill:none;stroke:#585d84;stroke-width:.0212;stroke-opacity:1;stroke-linecap:round;stroke-linejoin:round">
        <path d="M3.292 22.82a.8.8 0 0 0 1.6 0M4.892 22.82a.8.8 0 0 0-1.6 0"/>
    </g>
    <g class="stroked-text" style="fill:none;stroke:#585d84;stroke-width:.0444;stroke-opacity:1;stroke-linecap:round;stroke-linejoin:round">
        <path d="M3.483 25.604h.101M3.584 25.604l.051-.025M3.635 25.579l.026-.025M3.66 25.554l.051-.077M3.711 25.477l.026-.101M3.737 25.376v-.203M3.737 25.173l-.026-.051M3.711 25.122l-.025-.026M3.686 25.097l-.05-.026M3.635 25.071h-.101M3.534 25.071l-.051.025M3.483 25.097l-.026.025M3.457 25.122l-.025.05M3.432 25.173v.127M3.432 25.3l.025.05M3.457 25.35l.026.026M3.483 25.376l.05.025M3.534 25.401h.101M3.635 25.401l.05-.025M3.686 25.376l.025-.026M3.711 25.35l.026-.05"/>
    </g>
    <g style="fill:none;stroke:#585d84;stroke-width:.0212;stroke-opacity:1;stroke-linecap:round;stroke-linejoin:round">
        <path d="M2.784 25.36a.8.8 0 0 0 1.6 0M4.384 25.36a.8.8 0 0 0-1.6 0"/>
    </g>
    <g class="stroked-text" style="fill:none;stroke:#585d84;stroke-width:.0444;stroke-opacity:1;stroke-linecap:round;stroke-linejoin:round">
        <path d="M3.99 28.144h-.304M3.838 28.144v-.533M3.838 27.611l-.05.076M3.788 27.687l-.051.051M3.737 27.738l-.051.026M4.32 27.611h.052M4.372 27.611l.05.026M4.423 27.637l.025.025M4.448 27.662l.025.05M4.473 27.713l.026.101M4.499 27.814v.127M4.499 27.941l-.026.102M4.473 28.043l-.025.05M4.448 28.094l-.026.025M4.423 28.119l-.051.025M4.372 28.144H4.32M4.32 28.144l-.05-.025M4.27 28.119l-.025-.025M4.245 28.094l-.026-.051M4.22 28.043l-.026-.102M4.194 27.941v-.127M4.194 27.814l.025-.101M4.22 27.713l.025-.051M4.245 27.662l.025-.025M4.27 27.637l.05-.026"/>
    </g>
    <g style="fill:none;stroke:#585d84;stroke-width:.0212;stroke-opacity:1;stroke-linecap:round;stroke-linejoin:round">
        <path d="M3.292 27.9a.8.8 0 0 0 1.6 0M4.892 27.9a.8.8 0 0 0-1.6 0"/>
    </g>
    <g class="stroked-text" style="fill:none;stroke:#585d84;stroke-width:.0444;stroke-opacity:1;stroke-linecap:round;stroke-linejoin:round">
        <path d="M3.483 30.684h-.305M3.33 30.684v-.533M3.33 30.151l-.05.076M3.28 30.227l-.051.051M3.229 30.278l-.051.026M3.99 30.684h-.304M3.838 30.684v-.533M3.838 30.151l-.05.076M3.788 30.227l-.051.051M3.737 30.278l-.051.026"/>
    </g>
    <g style="fill:none;stroke:#585d84;stroke-width:.0212;stroke-opacity:1;stroke-linecap:round;stroke-linejoin:round">
        <path d="M2.784 30.44a.8.8 0 0 0 1.6 0M4.384 30.44a.8.8 0 0 0-1.6 0"/>
    </g>
    <g class="stroked-text" style="fill:none;stroke:#585d84;stroke-width:.0444;stroke-opacity:1;stroke-linecap:round;stroke-linejoin:round">
        <path d="M3.99 33.224h-.304M3.838 33.224v-.533M3.838 32.691l-.05.076M3.788 32.767l-.051.051M3.737 32.818l-.051.026M4.194 32.742l.025-.025M4.22 32.717l.05-.026M4.27 32.691h.127M4.397 32.691l.05.026M4.448 32.717l.025.025M4.473 32.742l.026.05M4.499 32.793v.05M4.499 32.844l-.026.076M4.473 32.92l-.304.304M4.169 33.224h.33"/>
    </g>
    <g style="fill:none;stroke:#585d84;stroke-width:.0212;stroke-opacity:1;stroke-linecap:round;stroke-linejoin:round">
        <path d="M3.292 32.98a.8.8 0 0 0 1.6 0M4.892 32.98a.8.8 0 0 0-1.6 0"/>
    </g>
    <g class="stroked-text" style="fill:none;stroke:#585d84;stroke-width:.0444;stroke-opacity:1;stroke-linecap:round;stroke-linejoin:round">
        <path d="M18.723 33.224h-.305M18.57 33.224v-.533M18.57 32.691l-.05.076M18.52 32.767l-.051.051M18.469 32.818l-.051.026M18.9 32.691h.33M19.23 32.691l-.177.203M19.053 32.894h.076M19.13 32.894l.05.026M19.18 32.92l.025.025M19.205 32.945l.026.05M19.23 32.996v.127M19.23 33.123l-.025.05M19.205 33.174l-.025.025M19.18 33.199l-.05.025M19.13 33.224h-.153M18.977 33.224l-.051-.025M18.926 33.199l-.025-.025"/>
    </g>
    <g style="fill:none;stroke:#585d84;stroke-width:.0212;stroke-opacity:1;stroke-linecap:round;stroke-linejoin:round">
        <path d="M18.024 32.98a.8.8 0 0 0 1.6 0M19.624 32.98a.8.8 0 0 0-1.6 0"/>
    </g>
    <g class="stroked-text" style="fill:none;stroke:#585d84;stroke-width:.0444;stroke-opacity:1;stroke-linecap:round;stroke-linejoin:round">
        <path d="M19.23 30.684h-.304M19.078 30.684v-.533M19.078 30.151l-.05.076M19.028 30.227l-.051.051M18.977 30.278l-.051.026M19.688 30.329v.355M19.56 30.126l-.126.38M19.434 30.507h.33"/>
    </g>
    <g style="fill:none;stroke:#585d84;stroke-width:.0212;stroke-opacity:1;stroke-linecap:round;stroke-linejoin:round">
        <path d="M18.532 30.44a.8.8 0 0 0 1.6 0M20.132 30.44a.8.8 0 0 0-1.6 0"/>
    </g>
    <g class="stroked-text" style="fill:none;stroke:#585d84;stroke-width:.0444;stroke-opacity:1;stroke-linecap:round;stroke-linejoin:round">
        <path d="M18.723 28.144h-.305M18.57 28.144v-.533M18.57 27.611l-.05.076M18.52 27.687l-.051.051M18.469 27.738l-.051.026M19.205 27.611h-.254M18.951 27.611l-.025.254M18.926 27.865l.025-.025M18.951 27.84l.051-.026M19.002 27.814h.127M19.13 27.814l.05.026M19.18 27.84l.025.025M19.205 27.865l.026.05M19.23 27.916v.127M19.23 28.043l-.025.05M19.205 28.094l-.025.025M19.18 28.119l-.05.025M19.13 28.144h-.128M19.002 28.144l-.05-.025M18.951 28.119l-.025-.025"/>
    </g>
    <g style="fill:none;stroke:#585d84;stroke-width:.0212;stroke-opacity:1;stroke-linecap:round;stroke-linejoin:round">
        <path d="M18.024 27.9a.8.8 0 0 0 1.6 0M19.624 27.9a.8.8 0 0 0-1.6 0"/>
    </g>
    <g class="stroked-text" style="fill:none;stroke:#585d84;stroke-width:.0444;stroke-opacity:1;stroke-linecap:round;stroke-linejoin:round">
        <path d="M19.23 25.604h-.304M19.078 25.604v-.533M19.078 25.071l-.05.076M19.028 25.147l-.051.051M18.977 25.198l-.051.026M19.688 25.071h-.102M19.586 25.071l-.05.025M19.536 25.097l-.026.025M19.51 25.122l-.05.076M19.46 25.198l-.026.102M19.434 25.3v.203M19.434 25.503l.025.05M19.46 25.554l.025.025M19.485 25.579l.05.025M19.536 25.604h.101M19.637 25.604l.05-.025M19.688 25.579l.025-.025M19.713 25.554l.026-.051M19.739 25.503v-.127M19.739 25.376l-.026-.05M19.713 25.325l-.025-.025M19.688 25.3l-.05-.026M19.637 25.274h-.102M19.536 25.274l-.051.026M19.485 25.3l-.026.025M19.46 25.325l-.026.05"/>
    </g>
    <g style="fill:none;stroke:#585d84;stroke-width:.0212;stroke-opacity:1;stroke-linecap:round;stroke-linejoin:round">
        <path d="M18.532 25.36a.8.8 0 0 0 1.6 0M20.132 25.36a.8.8 0 0 0-1.6 0"/>
    </g>
    <g class="stroked-text" style="fill:none;stroke:#585d84;stroke-width:.0444;stroke-opacity:1;stroke-linecap:round;stroke-linejoin:round">
        <path d="M18.723 23.064h-.305M18.57 23.064v-.533M18.57 22.531l-.05.076M18.52 22.607l-.051.051M18.469 22.658l-.051.025M18.9 22.531h.356M19.256 22.531l-.229.533"/>
    </g>
    <g style="fill:none;stroke:#585d84;stroke-width:.0212;stroke-opacity:1;stroke-linecap:round;stroke-linejoin:round">
        <path d="M18.024 22.82a.8.8 0 0 0 1.6 0M19.624 22.82a.8.8 0 0 0-1.6 0"/>
    </g>
    <g class="stroked-text" style="fill:none;stroke:#585d84;stroke-width:.0444;stroke-opacity:1;stroke-linecap:round;stroke-linejoin:round">
        <path d="M19.23 20.524h-.304M19.078 20.524v-.533M19.078 19.991l-.05.076M19.028 20.067l-.051.051M18.977 20.118l-.051.026M19.536 20.22l-.051-.026M19.485 20.194l-.026-.025M19.46 20.169l-.026-.05M19.434 20.118v-.025M19.434 20.093l.025-.051M19.46 20.042l.025-.026M19.485 20.017l.05-.026M19.536 19.991h.101M19.637 19.991l.05.026M19.688 20.017l.025.025M19.713 20.042l.026.05M19.739 20.093v.025M19.739 20.118l-.026.05M19.713 20.169l-.025.025M19.688 20.194l-.05.026M19.637 20.22h-.102M19.536 20.22l-.051.025M19.485 20.245l-.026.025M19.46 20.27l-.026.051M19.434 20.321v.102M19.434 20.423l.025.05M19.46 20.474l.025.025M19.485 20.499l.05.025M19.536 20.524h.101M19.637 20.524l.05-.025M19.688 20.499l.025-.025M19.713 20.474l.026-.051M19.739 20.423v-.102M19.739 20.321l-.026-.05M19.713 20.27l-.025-.025M19.688 20.245l-.05-.025"/>
    </g>
    <g style="fill:none;stroke:#585d84;stroke-width:.0212;stroke-opacity:1;stroke-linecap:round;stroke-linejoin:round">
        <path d="M18.532 20.28a.8.8 0 0 0 1.6 0M20.132 20.28a.8.8 0 0 0-1.6 0"/>
    </g>
    <g class="stroked-text" style="fill:none;stroke:#585d84;stroke-width:.0444;stroke-opacity:1;stroke-linecap:round;stroke-linejoin:round">
        <path d="M18.723 17.984h-.305M18.57 17.984v-.533M18.57 17.451l-.05.076M18.52 17.527l-.051.051M18.469 17.578l-.051.026M18.977 17.984h.101M19.078 17.984l.051-.025M19.13 17.959l.024-.025M19.155 17.934l.05-.077M19.205 17.857l.026-.101M19.23 17.756v-.203M19.23 17.553l-.025-.051M19.205 17.502l-.025-.025M19.18 17.477l-.05-.026M19.13 17.451h-.102M19.028 17.451l-.051.026M18.977 17.477l-.026.025M18.951 17.502l-.025.05M18.926 17.553v.127M18.926 17.68l.025.05M18.951 17.73l.026.026M18.977 17.756l.05.025M19.028 17.781h.101M19.13 17.781l.05-.025M19.18 17.756l.025-.026M19.205 17.73l.026-.05"/>
    </g>
    <g style="fill:none;stroke:#585d84;stroke-width:.0212;stroke-opacity:1;stroke-linecap:round;stroke-linejoin:round">
        <path d="M18.024 17.74a.8.8 0 0 0 1.6 0M19.624 17.74a.8.8 0 0 0-1.6 0"/>
    </g>
    <g class="stroked-text" style="fill:none;stroke:#585d84;stroke-width:.0444;stroke-opacity:1;stroke-linecap:round;stroke-linejoin:round">
        <path d="m18.926 14.962.025-.025M18.951 14.937l.051-.026M19.002 14.911h.127M19.13 14.911l.05.026M19.18 14.937l.025.025M19.205 14.962l.026.05M19.23 15.013v.05M19.23 15.064l-.025.076M19.205 15.14l-.304.304M18.9 15.444h.33M19.56 14.911h.052M19.612 14.911l.05.026M19.663 14.937l.025.025M19.688 14.962l.025.05M19.713 15.013l.026.101M19.739 15.114v.127M19.739 15.241l-.026.102M19.713 15.343l-.025.05M19.688 15.394l-.025.025M19.663 15.419l-.051.025M19.612 15.444h-.051M19.56 15.444l-.05-.025M19.51 15.419l-.025-.025M19.485 15.394l-.026-.051M19.46 15.343l-.026-.102M19.434 15.241v-.127M19.434 15.114l.025-.101M19.46 15.013l.025-.051M19.485 14.962l.025-.025M19.51 14.937l.05-.026"/>
    </g>
    <g style="fill:none;stroke:#585d84;stroke-width:.0212;stroke-opacity:1;stroke-linecap:round;stroke-linejoin:round">
        <path d="M18.532 15.2a.8.8 0 0 0 1.6 0M20.132 15.2a.8.8 0 0 0-1.6 0"/>
    </g>
    <g class="stroked-text" style="fill:none;stroke:#585d84;stroke-width:.0444;stroke-opacity:1;stroke-linecap:round;stroke-linejoin:round">
        <path d="m18.418 12.422.025-.026M18.443 12.397l.051-.026M18.494 12.371h.127M18.621 12.371l.051.025M18.672 12.397l.025.025M18.697 12.422l.026.05M18.723 12.473v.05M18.723 12.524l-.026.076M18.697 12.6l-.304.304M18.393 12.904h.33M19.23 12.904h-.304M19.078 12.904v-.533M19.078 12.371l-.05.076M19.028 12.447l-.051.051M18.977 12.498l-.051.026"/>
    </g>
    <g style="fill:none;stroke:#585d84;stroke-width:.0212;stroke-opacity:1;stroke-linecap:round;stroke-linejoin:round">
        <path d="M18.024 12.66a.8.8 0 0 0 1.6 0M19.624 12.66a.8.8 0 0 0-1.6 0"/>
    </g>
    <g class="stroked-text" style="fill:none;stroke:#585d84;stroke-width:.0444;stroke-opacity:1;stroke-linecap:round;stroke-linejoin:round">
        <path d="m18.926 9.882.025-.025M18.951 9.857l.051-.026M19.002 9.831h.127M19.13 9.831l.05.026M19.18 9.857l.025.025M19.205 9.882l.026.05M19.23 9.933v.05M19.23 9.984l-.025.076M19.205 10.06l-.304.304M18.9 10.364h.33M19.434 9.882l.025-.025M19.46 9.857l.05-.026M19.51 9.831h.127M19.637 9.831l.05.026M19.688 9.857l.025.025M19.713 9.882l.026.05M19.739 9.933v.05M19.739 9.984l-.026.076M19.713 10.06l-.305.304M19.409 10.364h.33"/>
    </g>
    <g style="fill:none;stroke:#585d84;stroke-width:.0212;stroke-opacity:1;stroke-linecap:round;stroke-linejoin:round">
        <path d="M18.532 10.12a.8.8 0 0 0 1.6 0M20.132 10.12a.8.8 0 0 0-1.6 0"/>
    </g>
    <g class="stroked-text" style="fill:none;stroke:#585d84;stroke-width:.0444;stroke-opacity:1;stroke-linecap:round;stroke-linejoin:round">
        <path d="m18.418 7.342.025-.026M18.443 7.317l.051-.026M18.494 7.291h.127M18.621 7.291l.051.025M18.672 7.317l.025.025M18.697 7.342l.026.05M18.723 7.393v.05M18.723 7.444l-.026.076M18.697 7.52l-.304.304M18.393 7.824h.33M18.9 7.291h.33M19.23 7.291l-.177.203M19.053 7.494h.076M19.13 7.494l.05.026M19.18 7.52l.025.025M19.205 7.545l.026.05M19.23 7.596v.127M19.23 7.723l-.025.05M19.205 7.774l-.025.025M19.18 7.799l-.05.025M19.13 7.824h-.153M18.977 7.824l-.051-.025M18.926 7.799l-.025-.025"/>
    </g>
    <g style="fill:none;stroke:#585d84;stroke-width:.0212;stroke-opacity:1;stroke-linecap:round;stroke-linejoin:round">
        <path d="M18.024 7.58a.8.8 0 0 0 1.6 0M19.624 7.58a.8.8 0 0 0-1.6 0"/>
    </g>
    <g class="stroked-text" style="fill:none;stroke:#585d84;stroke-width:.0444;stroke-opacity:1;stroke-linecap:round;stroke-linejoin:round">
        <path d="m18.926 4.802.025-.025M18.951 4.777l.051-.026M19.002 4.751h.127M19.13 4.751l.05.026M19.18 4.777l.025.025M19.205 4.802l.026.05M19.23 4.853v.05M19.23 4.904l-.025.076M19.205 4.98l-.304.304M18.9 5.284h.33M19.688 4.929v.355M19.56 4.726l-.126.38M19.434 5.107h.33"/>
    </g>
    <g style="fill:none;stroke:#585d84;stroke-width:.0212;stroke-opacity:1;stroke-linecap:round;stroke-linejoin:round">
        <path d="M18.532 5.04a.8.8 0 0 0 1.6 0M20.132 5.04a.8.8 0 0 0-1.6 0"/>
    </g>
    <g style="fill:none;stroke:#afafaf;stroke-width:.15;stroke-opacity:1;stroke-linecap:round;stroke-linejoin:round">
        <g class="stroked-text">
            <path d="M.363 35.895v-1M.363 34.895l.333.714M.696 35.61l.334-.715M1.03 34.895v1M2.077 35.8l-.047.047M2.03 35.847l-.143.048M1.887 35.895h-.095M1.792 35.895l-.143-.048M1.649 35.847l-.095-.095M1.554 35.752l-.048-.095M1.506 35.657l-.048-.19M1.458 35.466v-.143M1.458 35.323l.048-.19M1.506 35.133l.048-.095M1.554 35.038l.095-.096M1.649 34.942l.143-.047M1.792 34.895h.095M1.887 34.895l.143.047M2.03 34.942l.047.048M2.506 34.895v.81M2.506 35.704l.048.096M2.554 35.8l.047.047M2.601 35.847l.095.048M2.696 35.895h.19M2.887 35.895l.095-.048M2.982 35.847l.048-.047M3.03 35.8l.047-.096M3.077 35.704v-.81M3.316 35.99h.761M4.316 35.895v-1M4.316 34.895h.38M4.696 34.895l.096.047M4.792 34.942l.047.048M4.84 34.99l.047.095M4.887 35.085v.143M4.887 35.228l-.048.095M4.84 35.323l-.048.048M4.792 35.371l-.096.048M4.696 35.419h-.38M5.316 35.895v-.667M5.316 35.419l.047-.096M5.363 35.323l.048-.047M5.41 35.276l.096-.048M5.506 35.228h.095M6.077 35.895l-.095-.048M5.982 35.847l-.048-.047M5.935 35.8l-.048-.096M5.887 35.704v-.285M5.887 35.419l.048-.096M5.935 35.323l.047-.047M5.982 35.276l.095-.048M6.077 35.228h.143M6.22 35.228l.096.048M6.316 35.276l.047.047M6.363 35.323l.048.096M6.41 35.419v.285M6.41 35.704l-.047.096M6.363 35.8l-.048.047M6.316 35.847l-.096.048M6.22 35.895h-.143M6.84 35.895v-1M6.84 34.895l.333.714M7.173 35.61l.333-.715M7.506 34.895v1M7.982 35.895v-.667M7.982 34.895l-.048.047M7.935 34.942l.047.048M7.982 34.99l.048-.048M8.03 34.942l-.048-.047M7.982 34.895v.095M8.887 35.847l-.095.048M8.792 35.895h-.19M8.601 35.895l-.095-.048M8.506 35.847l-.048-.047M8.458 35.8l-.047-.096M8.41 35.704v-.285M8.41 35.419l.048-.096M8.458 35.323l.048-.047M8.506 35.276l.095-.048M8.601 35.228h.19M8.792 35.228l.095.048M9.316 35.895v-.667M9.316 35.419l.047-.096M9.363 35.323l.048-.047M9.41 35.276l.096-.048M9.506 35.228h.095M10.077 35.895l-.095-.048M9.982 35.847l-.047-.047M9.935 35.8l-.048-.096M9.887 35.704v-.285M9.887 35.419l.047-.096M9.935 35.323l.047-.047M9.982 35.276l.095-.048M10.077 35.228h.143M10.22 35.228l.095.048M10.316 35.276l.047.047M10.363 35.323l.048.096M10.41 35.419v.285M10.41 35.704l-.047.096M10.363 35.8l-.047.047M10.316 35.847l-.096.048M10.22 35.895h-.143M10.601 35.99h.762M12.125 34.942l-.095-.047M12.03 34.895h-.143M11.887 34.895l-.143.047M11.744 34.942l-.095.096M11.649 35.038l-.048.095M11.601 35.133l-.047.19M11.554 35.323v.143M11.554 35.466l.047.19M11.601 35.657l.048.095M11.649 35.752l.095.095M11.744 35.847l.143.048M11.887 35.895h.095M11.982 35.895l.143-.048M12.125 35.847l.048-.047M12.173 35.8v-.334M12.173 35.466h-.19M12.982 35.847l-.095.048M12.887 35.895h-.19M12.696 35.895l-.095-.048M12.601 35.847l-.047-.095M12.554 35.752v-.381M12.554 35.371l.047-.095M12.601 35.276l.095-.048M12.696 35.228h.19M12.887 35.228l.095.048M12.982 35.276l.048.095M13.03 35.371v.095M13.03 35.466l-.476.096M13.458 35.228v.667M13.458 35.323l.048-.047M13.506 35.276l.095-.048M13.601 35.228h.143M13.744 35.228l.095.048M13.84 35.276l.047.095M13.887 35.371v.524M14.744 35.847l-.095.048M14.649 35.895h-.19M14.458 35.895l-.095-.048M14.363 35.847l-.047-.095M14.316 35.752v-.381M14.316 35.371l.047-.095M14.363 35.276l.095-.048M14.458 35.228h.19M14.649 35.228l.095.048M14.744 35.276l.048.095M14.792 35.371v.095M14.792 35.466l-.476.096M15.22 35.895v-.667M15.22 35.419l.048-.096M15.268 35.323l.047-.047M15.316 35.276l.095-.048M15.41 35.228h.096M15.84 35.895v-.667M15.84 34.895l-.048.047M15.792 34.942l.047.048M15.84 34.99l.047-.048M15.887 34.942l-.048-.047M15.84 34.895v.095M16.744 35.847l-.095.048M16.649 35.895h-.19M16.458 35.895l-.095-.048M16.363 35.847l-.047-.047M16.316 35.8l-.048-.096M16.268 35.704v-.285M16.268 35.419l.047-.096M16.316 35.323l.047-.047M16.363 35.276l.095-.048M16.458 35.228h.19M16.649 35.228l.095.048M16.935 35.99h.761M17.84 34.895h.666M18.506 34.895l-.667 1M17.84 35.895h.666M18.887 35.895v-.667M18.887 34.895l-.048.047M18.84 34.942l.047.048M18.887 34.99l.047-.048M18.935 34.942l-.048-.047M18.887 34.895v.095M19.792 35.228v.81M19.792 36.038l-.048.095M19.744 36.133l-.048.047M19.696 36.18l-.095.048M19.601 36.228h-.143M19.458 36.228l-.095-.047M19.792 35.847l-.096.048M19.696 35.895h-.19M19.506 35.895l-.095-.048M19.41 35.847l-.047-.047M19.363 35.8l-.047-.096M19.316 35.704v-.285M19.316 35.419l.047-.096M19.363 35.323l.048-.047M19.41 35.276l.096-.048M19.506 35.228h.19M19.696 35.228l.096.048M20.173 34.895h.666M20.84 34.895l-.667 1M20.173 35.895h.666M21.649 35.895v-.524M21.649 35.371l-.048-.095M21.601 35.276l-.095-.048M21.506 35.228h-.19M21.316 35.228l-.096.048M21.649 35.847l-.095.048M21.554 35.895h-.238M21.316 35.895l-.096-.048M21.22 35.847l-.047-.095M21.173 35.752v-.095M21.173 35.657l.047-.095M21.22 35.562l.096-.048M21.316 35.514h.238M21.554 35.514l.095-.048M22.554 35.228v.81M22.554 36.038l-.048.095M22.506 36.133l-.048.047M22.458 36.18l-.095.048M22.363 36.228h-.143M22.22 36.228l-.095-.047M22.554 35.847l-.096.048M22.458 35.895h-.19M22.268 35.895l-.095-.048M22.173 35.847l-.048-.047M22.125 35.8l-.048-.096M22.077 35.704v-.285M22.077 35.419l.048-.096M22.125 35.323l.048-.047M22.173 35.276l.095-.048M22.268 35.228h.19M22.458 35.228l.096.048"/>
        </g>
        <g class="stroked-text">
            <path d="m10.125 18.195-.333-.476M9.554 18.195v-1M9.554 17.195h.38M9.935 17.195l.095.047M10.03 17.242l.047.048M10.077 17.29l.048.095M10.125 17.385v.143M10.125 17.528l-.048.095M10.077 17.623l-.047.048M10.03 17.671l-.095.048M9.935 17.719h-.381M10.554 17.671h.333M11.03 18.195h-.476M10.554 18.195v-1M10.554 17.195h.476M11.792 17.671h-.334M11.458 18.195v-1M11.458 17.195h.476M12.458 17.195v.238M12.22 17.338l.238.095M12.458 17.433l.238-.095M12.316 17.623l.142-.19M12.458 17.433l.143.19M13.22 17.195v.238M12.982 17.338l.238.095M13.22 17.433l.238-.095M13.077 17.623l.143-.19M13.22 17.433l.143.19"/>
        </g>
        <path d="M2.568 1.23h17.78v33.02H2.568ZM6.958.05h9v1.18h-9Z" style="stroke:#afafaf;stroke-width:.1;stroke-opacity:1;stroke-linecap:round;stroke-linejoin:round;fill:none"/>
    </g>
    <g style="fill:none;stroke:#afafaf;stroke-width:.0444;stroke-opacity:1;stroke-linecap:round;stroke-linejoin:round">
        <g class="stroked-text">
            <path d="M3.737 5.284h-.305M3.584 5.284v-.533M3.584 4.751l-.05.076M3.534 4.827l-.051.051M3.483 4.878l-.051.026"/>
        </g>
        <path d="m2.784 4.48.019-.092.052-.078.078-.052.091-.018h1.12l.092.018.078.052.052.078.018.092V5.6l-.018.092-.052.078-.078.052-.092.018h-1.12l-.091-.018-.078-.052-.052-.078-.019-.092Z" style="stroke:#afafaf;stroke-width:.0212;stroke-opacity:1;stroke-linecap:round;stroke-linejoin:round;fill:none"/>
    </g>
    <g class="stroked-text" style="fill:none;stroke:#afafaf;stroke-width:.0444;stroke-opacity:1;stroke-linecap:round;stroke-linejoin:round">
        <path d="m3.94 7.342.025-.026M3.965 7.317l.051-.026M4.016 7.291h.127M4.143 7.291l.05.025M4.194 7.317l.025.025M4.22 7.342l.025.05M4.245 7.393v.05M4.245 7.444l-.026.076M4.22 7.52l-.305.304M3.915 7.824h.33"/>
    </g>
    <g style="fill:none;stroke:#afafaf;stroke-width:.0212;stroke-opacity:1;stroke-linecap:round;stroke-linejoin:round">
        <path d="M3.292 7.58a.8.8 0 0 0 1.6 0M4.892 7.58a.8.8 0 0 0-1.6 0"/>
    </g>
    <g class="stroked-text" style="fill:none;stroke:#afafaf;stroke-width:.0444;stroke-opacity:1;stroke-linecap:round;stroke-linejoin:round">
        <path d="M3.407 9.831h.33M3.737 9.831l-.178.203M3.559 10.034h.076M3.635 10.034l.05.026M3.686 10.06l.025.025M3.711 10.085l.026.05M3.737 10.136v.127M3.737 10.263l-.026.05M3.711 10.314l-.025.025M3.686 10.339l-.05.025M3.635 10.364h-.152M3.483 10.364l-.051-.025M3.432 10.339l-.025-.025"/>
    </g>
    <g style="fill:none;stroke:#afafaf;stroke-width:.0212;stroke-opacity:1;stroke-linecap:round;stroke-linejoin:round">
        <path d="M2.784 10.12a.8.8 0 0 0 1.6 0M4.384 10.12a.8.8 0 0 0-1.6 0"/>
    </g>
    <g class="stroked-text" style="fill:none;stroke:#afafaf;stroke-width:.0444;stroke-opacity:1;stroke-linecap:round;stroke-linejoin:round">
        <path d="M4.194 12.549v.355M4.067 12.346l-.127.38M3.94 12.727h.33"/>
    </g>
    <g style="fill:none;stroke:#afafaf;stroke-width:.0212;stroke-opacity:1;stroke-linecap:round;stroke-linejoin:round">
        <path d="M3.292 12.66a.8.8 0 0 0 1.6 0M4.892 12.66a.8.8 0 0 0-1.6 0"/>
    </g>
    <g class="stroked-text" style="fill:none;stroke:#afafaf;stroke-width:.0444;stroke-opacity:1;stroke-linecap:round;stroke-linejoin:round">
        <path d="M3.711 14.911h-.254M3.457 14.911l-.025.254M3.432 15.165l.025-.025M3.457 15.14l.051-.026M3.508 15.114h.127M3.635 15.114l.05.026M3.686 15.14l.025.025M3.711 15.165l.026.05M3.737 15.216v.127M3.737 15.343l-.026.05M3.711 15.394l-.025.025M3.686 15.419l-.05.025M3.635 15.444h-.127M3.508 15.444l-.05-.025M3.457 15.419l-.025-.025"/>
    </g>
    <g style="fill:none;stroke:#afafaf;stroke-width:.0212;stroke-opacity:1;stroke-linecap:round;stroke-linejoin:round">
        <path d="M2.784 15.2a.8.8 0 0 0 1.6 0M4.384 15.2a.8.8 0 0 0-1.6 0"/>
    </g>
    <g class="stroked-text" style="fill:none;stroke:#afafaf;stroke-width:.0444;stroke-opacity:1;stroke-linecap:round;stroke-linejoin:round">
        <path d="M4.194 17.451h-.102M4.092 17.451l-.05.026M4.042 17.477l-.026.025M4.016 17.502l-.05.076M3.965 17.578l-.025.102M3.94 17.68v.203M3.94 17.883l.025.05M3.965 17.934l.026.025M3.99 17.959l.051.025M4.042 17.984h.101M4.143 17.984l.05-.025M4.194 17.959l.025-.025M4.22 17.934l.025-.051M4.245 17.883v-.127M4.245 17.756l-.026-.05M4.22 17.705l-.026-.025M4.194 17.68l-.05-.026M4.143 17.654h-.101M4.042 17.654l-.051.026M3.99 17.68l-.025.025M3.965 17.705l-.025.05"/>
    </g>
    <g style="fill:none;stroke:#afafaf;stroke-width:.0212;stroke-opacity:1;stroke-linecap:round;stroke-linejoin:round">
        <path d="M3.292 17.74a.8.8 0 0 0 1.6 0M4.892 17.74a.8.8 0 0 0-1.6 0"/>
    </g>
    <g class="stroked-text" style="fill:none;stroke:#afafaf;stroke-width:.0444;stroke-opacity:1;stroke-linecap:round;stroke-linejoin:round">
        <path d="M3.407 19.991h.355M3.762 19.991l-.228.533"/>
    </g>
    <g style="fill:none;stroke:#afafaf;stroke-width:.0212;stroke-opacity:1;stroke-linecap:round;stroke-linejoin:round">
        <path d="M2.784 20.28a.8.8 0 0 0 1.6 0M4.384 20.28a.8.8 0 0 0-1.6 0"/>
    </g>
    <g class="stroked-text" style="fill:none;stroke:#afafaf;stroke-width:.0444;stroke-opacity:1;stroke-linecap:round;stroke-linejoin:round">
        <path d="m4.042 22.76-.051-.026M3.99 22.734l-.025-.025M3.965 22.709l-.025-.05M3.94 22.658v-.025M3.94 22.633l.025-.051M3.965 22.582l.026-.026M3.99 22.557l.051-.026M4.042 22.531h.101M4.143 22.531l.05.026M4.194 22.557l.025.025M4.22 22.582l.025.05M4.245 22.633v.025M4.245 22.658l-.026.05M4.22 22.709l-.026.025M4.194 22.734l-.05.026M4.143 22.76h-.101M4.042 22.76l-.051.025M3.99 22.785l-.025.025M3.965 22.81l-.025.051M3.94 22.861v.102M3.94 22.963l.025.05M3.965 23.014l.026.025M3.99 23.039l.051.025M4.042 23.064h.101M4.143 23.064l.05-.025M4.194 23.039l.025-.025M4.22 23.014l.025-.051M4.245 22.963v-.102M4.245 22.861l-.026-.05M4.22 22.81l-.026-.025M4.194 22.785l-.05-.025"/>
    </g>
    <g style="fill:none;stroke:#afafaf;stroke-width:.0212;stroke-opacity:1;stroke-linecap:round;stroke-linejoin:round">
        <path d="M3.292 22.82a.8.8 0 0 0 1.6 0M4.892 22.82a.8.8 0 0 0-1.6 0"/>
    </g>
    <g class="stroked-text" style="fill:none;stroke:#afafaf;stroke-width:.0444;stroke-opacity:1;stroke-linecap:round;stroke-linejoin:round">
        <path d="M3.483 25.604h.101M3.584 25.604l.051-.025M3.635 25.579l.026-.025M3.66 25.554l.051-.077M3.711 25.477l.026-.101M3.737 25.376v-.203M3.737 25.173l-.026-.051M3.711 25.122l-.025-.026M3.686 25.097l-.05-.026M3.635 25.071h-.101M3.534 25.071l-.051.025M3.483 25.097l-.026.025M3.457 25.122l-.025.05M3.432 25.173v.127M3.432 25.3l.025.05M3.457 25.35l.026.026M3.483 25.376l.05.025M3.534 25.401h.101M3.635 25.401l.05-.025M3.686 25.376l.025-.026M3.711 25.35l.026-.05"/>
    </g>
    <g style="fill:none;stroke:#afafaf;stroke-width:.0212;stroke-opacity:1;stroke-linecap:round;stroke-linejoin:round">
        <path d="M2.784 25.36a.8.8 0 0 0 1.6 0M4.384 25.36a.8.8 0 0 0-1.6 0"/>
    </g>
    <g class="stroked-text" style="fill:none;stroke:#afafaf;stroke-width:.0444;stroke-opacity:1;stroke-linecap:round;stroke-linejoin:round">
        <path d="M3.99 28.144h-.304M3.838 28.144v-.533M3.838 27.611l-.05.076M3.788 27.687l-.051.051M3.737 27.738l-.051.026M4.32 27.611h.052M4.372 27.611l.05.026M4.423 27.637l.025.025M4.448 27.662l.025.05M4.473 27.713l.026.101M4.499 27.814v.127M4.499 27.941l-.026.102M4.473 28.043l-.025.05M4.448 28.094l-.026.025M4.423 28.119l-.051.025M4.372 28.144H4.32M4.32 28.144l-.05-.025M4.27 28.119l-.025-.025M4.245 28.094l-.026-.051M4.22 28.043l-.026-.102M4.194 27.941v-.127M4.194 27.814l.025-.101M4.22 27.713l.025-.051M4.245 27.662l.025-.025M4.27 27.637l.05-.026"/>
    </g>
    <g style="fill:none;stroke:#afafaf;stroke-width:.0212;stroke-opacity:1;stroke-linecap:round;stroke-linejoin:round">
        <path d="M3.292 27.9a.8.8 0 0 0 1.6 0M4.892 27.9a.8.8 0 0 0-1.6 0"/>
    </g>
    <g class="stroked-text" style="fill:none;stroke:#afafaf;stroke-width:.0444;stroke-opacity:1;stroke-linecap:round;stroke-linejoin:round">
        <path d="M3.483 30.684h-.305M3.33 30.684v-.533M3.33 30.151l-.05.076M3.28 30.227l-.051.051M3.229 30.278l-.051.026M3.99 30.684h-.304M3.838 30.684v-.533M3.838 30.151l-.05.076M3.788 30.227l-.051.051M3.737 30.278l-.051.026"/>
    </g>
    <g style="fill:none;stroke:#afafaf;stroke-width:.0212;stroke-opacity:1;stroke-linecap:round;stroke-linejoin:round">
        <path d="M2.784 30.44a.8.8 0 0 0 1.6 0M4.384 30.44a.8.8 0 0 0-1.6 0"/>
    </g>
    <g class="stroked-text" style="fill:none;stroke:#afafaf;stroke-width:.0444;stroke-opacity:1;stroke-linecap:round;stroke-linejoin:round">
        <path d="M3.99 33.224h-.304M3.838 33.224v-.533M3.838 32.691l-.05.076M3.788 32.767l-.051.051M3.737 32.818l-.051.026M4.194 32.742l.025-.025M4.22 32.717l.05-.026M4.27 32.691h.127M4.397 32.691l.05.026M4.448 32.717l.025.025M4.473 32.742l.026.05M4.499 32.793v.05M4.499 32.844l-.026.076M4.473 32.92l-.304.304M4.169 33.224h.33"/>
    </g>
    <g style="fill:none;stroke:#afafaf;stroke-width:.0212;stroke-opacity:1;stroke-linecap:round;stroke-linejoin:round">
        <path d="M3.292 32.98a.8.8 0 0 0 1.6 0M4.892 32.98a.8.8 0 0 0-1.6 0"/>
    </g>
    <g class="stroked-text" style="fill:none;stroke:#afafaf;stroke-width:.0444;stroke-opacity:1;stroke-linecap:round;stroke-linejoin:round">
        <path d="M18.723 33.224h-.305M18.57 33.224v-.533M18.57 32.691l-.05.076M18.52 32.767l-.051.051M18.469 32.818l-.051.026M18.9 32.691h.33M19.23 32.691l-.177.203M19.053 32.894h.076M19.13 32.894l.05.026M19.18 32.92l.025.025M19.205 32.945l.026.05M19.23 32.996v.127M19.23 33.123l-.025.05M19.205 33.174l-.025.025M19.18 33.199l-.05.025M19.13 33.224h-.153M18.977 33.224l-.051-.025M18.926 33.199l-.025-.025"/>
    </g>
    <g style="fill:none;stroke:#afafaf;stroke-width:.0212;stroke-opacity:1;stroke-linecap:round;stroke-linejoin:round">
        <path d="M18.024 32.98a.8.8 0 0 0 1.6 0M19.624 32.98a.8.8 0 0 0-1.6 0"/>
    </g>
    <g class="stroked-text" style="fill:none;stroke:#afafaf;stroke-width:.0444;stroke-opacity:1;stroke-linecap:round;stroke-linejoin:round">
        <path d="M19.23 30.684h-.304M19.078 30.684v-.533M19.078 30.151l-.05.076M19.028 30.227l-.051.051M18.977 30.278l-.051.026M19.688 30.329v.355M19.56 30.126l-.126.38M19.434 30.507h.33"/>
    </g>
    <g style="fill:none;stroke:#afafaf;stroke-width:.0212;stroke-opacity:1;stroke-linecap:round;stroke-linejoin:round">
        <path d="M18.532 30.44a.8.8 0 0 0 1.6 0M20.132 30.44a.8.8 0 0 0-1.6 0"/>
    </g>
    <g class="stroked-text" style="fill:none;stroke:#afafaf;stroke-width:.0444;stroke-opacity:1;stroke-linecap:round;stroke-linejoin:round">
        <path d="M18.723 28.144h-.305M18.57 28.144v-.533M18.57 27.611l-.05.076M18.52 27.687l-.051.051M18.469 27.738l-.051.026M19.205 27.611h-.254M18.951 27.611l-.025.254M18.926 27.865l.025-.025M18.951 27.84l.051-.026M19.002 27.814h.127M19.13 27.814l.05.026M19.18 27.84l.025.025M19.205 27.865l.026.05M19.23 27.916v.127M19.23 28.043l-.025.05M19.205 28.094l-.025.025M19.18 28.119l-.05.025M19.13 28.144h-.128M19.002 28.144l-.05-.025M18.951 28.119l-.025-.025"/>
    </g>
    <g style="fill:none;stroke:#afafaf;stroke-width:.0212;stroke-opacity:1;stroke-linecap:round;stroke-linejoin:round">
        <path d="M18.024 27.9a.8.8 0 0 0 1.6 0M19.624 27.9a.8.8 0 0 0-1.6 0"/>
    </g>
    <g class="stroked-text" style="fill:none;stroke:#afafaf;stroke-width:.0444;stroke-opacity:1;stroke-linecap:round;stroke-linejoin:round">
        <path d="M19.23 25.604h-.304M19.078 25.604v-.533M19.078 25.071l-.05.076M19.028 25.147l-.051.051M18.977 25.198l-.051.026M19.688 25.071h-.102M19.586 25.071l-.05.025M19.536 25.097l-.026.025M19.51 25.122l-.05.076M19.46 25.198l-.026.102M19.434 25.3v.203M19.434 25.503l.025.05M19.46 25.554l.025.025M19.485 25.579l.05.025M19.536 25.604h.101M19.637 25.604l.05-.025M19.688 25.579l.025-.025M19.713 25.554l.026-.051M19.739 25.503v-.127M19.739 25.376l-.026-.05M19.713 25.325l-.025-.025M19.688 25.3l-.05-.026M19.637 25.274h-.102M19.536 25.274l-.051.026M19.485 25.3l-.026.025M19.46 25.325l-.026.05"/>
    </g>
    <g style="fill:none;stroke:#afafaf;stroke-width:.0212;stroke-opacity:1;stroke-linecap:round;stroke-linejoin:round">
        <path d="M18.532 25.36a.8.8 0 0 0 1.6 0M20.132 25.36a.8.8 0 0 0-1.6 0"/>
    </g>
    <g class="stroked-text" style="fill:none;stroke:#afafaf;stroke-width:.0444;stroke-opacity:1;stroke-linecap:round;stroke-linejoin:round">
        <path d="M18.723 23.064h-.305M18.57 23.064v-.533M18.57 22.531l-.05.076M18.52 22.607l-.051.051M18.469 22.658l-.051.025M18.9 22.531h.356M19.256 22.531l-.229.533"/>
    </g>
    <g style="fill:none;stroke:#afafaf;stroke-width:.0212;stroke-opacity:1;stroke-linecap:round;stroke-linejoin:round">
        <path d="M18.024 22.82a.8.8 0 0 0 1.6 0M19.624 22.82a.8.8 0 0 0-1.6 0"/>
    </g>
    <g class="stroked-text" style="fill:none;stroke:#afafaf;stroke-width:.0444;stroke-opacity:1;stroke-linecap:round;stroke-linejoin:round">
        <path d="M19.23 20.524h-.304M19.078 20.524v-.533M19.078 19.991l-.05.076M19.028 20.067l-.051.051M18.977 20.118l-.051.026M19.536 20.22l-.051-.026M19.485 20.194l-.026-.025M19.46 20.169l-.026-.05M19.434 20.118v-.025M19.434 20.093l.025-.051M19.46 20.042l.025-.026M19.485 20.017l.05-.026M19.536 19.991h.101M19.637 19.991l.05.026M19.688 20.017l.025.025M19.713 20.042l.026.05M19.739 20.093v.025M19.739 20.118l-.026.05M19.713 20.169l-.025.025M19.688 20.194l-.05.026M19.637 20.22h-.102M19.536 20.22l-.051.025M19.485 20.245l-.026.025M19.46 20.27l-.026.051M19.434 20.321v.102M19.434 20.423l.025.05M19.46 20.474l.025.025M19.485 20.499l.05.025M19.536 20.524h.101M19.637 20.524l.05-.025M19.688 20.499l.025-.025M19.713 20.474l.026-.051M19.739 20.423v-.102M19.739 20.321l-.026-.05M19.713 20.27l-.025-.025M19.688 20.245l-.05-.025"/>
    </g>
    <g style="fill:none;stroke:#afafaf;stroke-width:.0212;stroke-opacity:1;stroke-linecap:round;stroke-linejoin:round">
        <path d="M18.532 20.28a.8.8 0 0 0 1.6 0M20.132 20.28a.8.8 0 0 0-1.6 0"/>
    </g>
    <g class="stroked-text" style="fill:none;stroke:#afafaf;stroke-width:.0444;stroke-opacity:1;stroke-linecap:round;stroke-linejoin:round">
        <path d="M18.723 17.984h-.305M18.57 17.984v-.533M18.57 17.451l-.05.076M18.52 17.527l-.051.051M18.469 17.578l-.051.026M18.977 17.984h.101M19.078 17.984l.051-.025M19.13 17.959l.024-.025M19.155 17.934l.05-.077M19.205 17.857l.026-.101M19.23 17.756v-.203M19.23 17.553l-.025-.051M19.205 17.502l-.025-.025M19.18 17.477l-.05-.026M19.13 17.451h-.102M19.028 17.451l-.051.026M18.977 17.477l-.026.025M18.951 17.502l-.025.05M18.926 17.553v.127M18.926 17.68l.025.05M18.951 17.73l.026.026M18.977 17.756l.05.025M19.028 17.781h.101M19.13 17.781l.05-.025M19.18 17.756l.025-.026M19.205 17.73l.026-.05"/>
    </g>
    <g style="fill:none;stroke:#afafaf;stroke-width:.0212;stroke-opacity:1;stroke-linecap:round;stroke-linejoin:round">
        <path d="M18.024 17.74a.8.8 0 0 0 1.6 0M19.624 17.74a.8.8 0 0 0-1.6 0"/>
    </g>
    <g class="stroked-text" style="fill:none;stroke:#afafaf;stroke-width:.0444;stroke-opacity:1;stroke-linecap:round;stroke-linejoin:round">
        <path d="m18.926 14.962.025-.025M18.951 14.937l.051-.026M19.002 14.911h.127M19.13 14.911l.05.026M19.18 14.937l.025.025M19.205 14.962l.026.05M19.23 15.013v.05M19.23 15.064l-.025.076M19.205 15.14l-.304.304M18.9 15.444h.33M19.56 14.911h.052M19.612 14.911l.05.026M19.663 14.937l.025.025M19.688 14.962l.025.05M19.713 15.013l.026.101M19.739 15.114v.127M19.739 15.241l-.026.102M19.713 15.343l-.025.05M19.688 15.394l-.025.025M19.663 15.419l-.051.025M19.612 15.444h-.051M19.56 15.444l-.05-.025M19.51 15.419l-.025-.025M19.485 15.394l-.026-.051M19.46 15.343l-.026-.102M19.434 15.241v-.127M19.434 15.114l.025-.101M19.46 15.013l.025-.051M19.485 14.962l.025-.025M19.51 14.937l.05-.026"/>
    </g>
    <g style="fill:none;stroke:#afafaf;stroke-width:.0212;stroke-opacity:1;stroke-linecap:round;stroke-linejoin:round">
        <path d="M18.532 15.2a.8.8 0 0 0 1.6 0M20.132 15.2a.8.8 0 0 0-1.6 0"/>
    </g>
    <g class="stroked-text" style="fill:none;stroke:#afafaf;stroke-width:.0444;stroke-opacity:1;stroke-linecap:round;stroke-linejoin:round">
        <path d="m18.418 12.422.025-.026M18.443 12.397l.051-.026M18.494 12.371h.127M18.621 12.371l.051.025M18.672 12.397l.025.025M18.697 12.422l.026.05M18.723 12.473v.05M18.723 12.524l-.026.076M18.697 12.6l-.304.304M18.393 12.904h.33M19.23 12.904h-.304M19.078 12.904v-.533M19.078 12.371l-.05.076M19.028 12.447l-.051.051M18.977 12.498l-.051.026"/>
    </g>
    <g style="fill:none;stroke:#afafaf;stroke-width:.0212;stroke-opacity:1;stroke-linecap:round;stroke-linejoin:round">
        <path d="M18.024 12.66a.8.8 0 0 0 1.6 0M19.624 12.66a.8.8 0 0 0-1.6 0"/>
    </g>
    <g class="stroked-text" style="fill:none;stroke:#afafaf;stroke-width:.0444;stroke-opacity:1;stroke-linecap:round;stroke-linejoin:round">
        <path d="m18.926 9.882.025-.025M18.951 9.857l.051-.026M19.002 9.831h.127M19.13 9.831l.05.026M19.18 9.857l.025.025M19.205 9.882l.026.05M19.23 9.933v.05M19.23 9.984l-.025.076M19.205 10.06l-.304.304M18.9 10.364h.33M19.434 9.882l.025-.025M19.46 9.857l.05-.026M19.51 9.831h.127M19.637 9.831l.05.026M19.688 9.857l.025.025M19.713 9.882l.026.05M19.739 9.933v.05M19.739 9.984l-.026.076M19.713 10.06l-.305.304M19.409 10.364h.33"/>
    </g>
    <g style="fill:none;stroke:#afafaf;stroke-width:.0212;stroke-opacity:1;stroke-linecap:round;stroke-linejoin:round">
        <path d="M18.532 10.12a.8.8 0 0 0 1.6 0M20.132 10.12a.8.8 0 0 0-1.6 0"/>
    </g>
    <g class="stroked-text" style="fill:none;stroke:#afafaf;stroke-width:.0444;stroke-opacity:1;stroke-linecap:round;stroke-linejoin:round">
        <path d="m18.418 7.342.025-.026M18.443 7.317l.051-.026M18.494 7.291h.127M18.621 7.291l.051.025M18.672 7.317l.025.025M18.697 7.342l.026.05M18.723 7.393v.05M18.723 7.444l-.026.076M18.697 7.52l-.304.304M18.393 7.824h.33M18.9 7.291h.33M19.23 7.291l-.177.203M19.053 7.494h.076M19.13 7.494l.05.026M19.18 7.52l.025.025M19.205 7.545l.026.05M19.23 7.596v.127M19.23 7.723l-.025.05M19.205 7.774l-.025.025M19.18 7.799l-.05.025M19.13 7.824h-.153M18.977 7.824l-.051-.025M18.926 7.799l-.025-.025"/>
    </g>
    <g style="fill:none;stroke:#afafaf;stroke-width:.0212;stroke-opacity:1;stroke-linecap:round;stroke-linejoin:round">
        <path d="M18.024 7.58a.8.8 0 0 0 1.6 0M19.624 7.58a.8.8 0 0 0-1.6 0"/>
    </g>
    <g class="stroked-text" style="fill:none;stroke:#afafaf;stroke-width:.0444;stroke-opacity:1;stroke-linecap:round;stroke-linejoin:round">
        <path d="m18.926 4.802.025-.025M18.951 4.777l.051-.026M19.002 4.751h.127M19.13 4.751l.05.026M19.18 4.777l.025.025M19.205 4.802l.026.05M19.23 4.853v.05M19.23 4.904l-.025.076M19.205 4.98l-.304.304M18.9 5.284h.33M19.688 4.929v.355M19.56 4.726l-.126.38M19.434 5.107h.33"/>
    </g>
    <g style="fill:none;stroke:#afafaf;stroke-width:.0212;stroke-opacity:1;stroke-linecap:round;stroke-linejoin:round">
        <path d="M18.532 5.04a.8.8 0 0 0 1.6 0M20.132 5.04a.8.8 0 0 0-1.6 0"/>
    </g>
</svg>
