<svg xmlns="http://www.w3.org/2000/svg" width="75.744" height="104.256" viewBox="0 0 20.041 27.584">
    <g class="stroked-text" style="fill:none;stroke:#f2eda1;stroke-width:.15;stroke-opacity:1;stroke-linecap:round;stroke-linejoin:round">
        <path d="m8.692 12.285-.334-.476M8.12 12.285v-1M8.12 11.285h.381M8.501 11.285l.095.047M8.596 11.332l.048.048M8.644 11.38l.048.095M8.692 11.475v.143M8.692 11.618l-.048.095M8.644 11.713l-.048.048M8.596 11.761l-.095.048M8.501 11.809h-.38M9.12 11.761h.334M9.596 12.285H9.12M9.12 12.285v-1M9.12 11.285h.476M10.358 11.761h-.333M10.025 12.285v-1M10.025 11.285h.476M11.025 11.285v.238M10.787 11.428l.238.095M11.025 11.523l.238-.095M10.882 11.713l.143-.19M11.025 11.523l.143.19M11.787 11.285v.238M11.549 11.428l.238.095M11.787 11.523l.238-.095M11.644 11.713l.143-.19M11.787 11.523l.143.19"/>
    </g>
    <g style="fill:none;stroke:#f2eda1;stroke-width:.12;stroke-opacity:1;stroke-linecap:round;stroke-linejoin:round">
        <path d="M.925 1.89v-.45M.925 4.43v-.44M.925 6.97v-.44M.925 9.51v-.44M.925 12.05v-.44M.925 14.59v-.44M.925 16.69v.44M.925 19.67v-.44M.925 22.21v-.44M2.025 24.95h1.87M5.995 24.95h.44M8.535 24.95h.44M11.515 24.95h-.44M14.055 24.95h-.44M16.154 24.95h1.87M19.125 1.89v-.45M19.125 1.89h.7M19.125 4.43v-.44M19.125 6.97v-.44M19.125 9.51v-.44M19.125 12.05v-.44M19.125 14.59v-.44M19.125 16.69v.44M19.125 19.67v-.44M19.125 22.21v-.44M1.025 24.31a1.1 1.1 0 0 0 1 .64M18.025 24.95a1.1 1.1 0 0 0 1-.64"/>
        <path stroke="none" d="m19.825 3.5-.018.092-.052.078-.078.052-.092.018h-1.92l-.092-.018-.078-.052-.052-.078-.018-.092V2.38l.018-.092.052-.078.078-.052.092-.018h1.92l.092.018.078.052.052.078.018.092ZM17.425 4.92l.018-.092.052-.078.078-.052.092-.018h1.92l.092.018.078.052.052.078.018.092v1.12l-.018.092-.052.078-.078.052-.092.018h-1.92l-.092-.018-.078-.052-.052-.078-.018-.092ZM17.425 7.46l.018-.092.052-.078.078-.052.092-.018h1.92l.092.018.078.052.052.078.018.092v1.12l-.018.092-.052.078-.078.052-.092.018h-1.92l-.092-.018-.078-.052-.052-.078-.018-.092ZM17.425 10l.018-.092.052-.078.078-.052.092-.018h1.92l.092.018.078.052.052.078.018.092v1.12l-.018.092-.052.078-.078.052-.092.018h-1.92l-.092-.018-.078-.052-.052-.078-.018-.092ZM17.425 12.54l.018-.092.052-.078.078-.052.092-.018h1.92l.092.018.078.052.052.078.018.092v1.12l-.018.092-.052.078-.078.052-.092.018h-1.92l-.092-.018-.078-.052-.052-.078-.018-.092ZM17.425 15.08l.018-.092.052-.078.078-.052.092-.018h1.92l.092.018.078.052.052.078.018.092v1.12l-.018.092-.052.078-.078.052-.092.018h-1.92l-.092-.018-.078-.052-.052-.078-.018-.092ZM17.425 17.62l.018-.092.052-.078.078-.052.092-.018h1.92l.092.018.078.052.052.078.018.092v1.12l-.018.092-.052.078-.078.052-.092.018h-1.92l-.092-.018-.078-.052-.052-.078-.018-.092ZM17.425 20.16l.018-.092.052-.078.078-.052.092-.018h1.92l.092.018.078.052.052.078.018.092v1.12l-.018.092-.052.078-.078.052-.092.018h-1.92l-.092-.018-.078-.052-.052-.078-.018-.092ZM17.425 22.7l.018-.092.052-.078.078-.052.092-.018h1.92l.092.018.078.052.052.078.018.092v1.12l-.018.092-.052.078-.078.052-.092.018h-1.92l-.092-.018-.078-.052-.052-.078-.018-.092ZM14.545 25.44l-.092-.018-.078-.052-.052-.078-.018-.092v-1.92l.018-.092.052-.078.078-.052.092-.018h1.12l.092.018.078.052.052.078.018.092v1.92l-.018.092-.052.078-.078.052-.092.018ZM12.005 25.44l-.092-.018-.078-.052-.052-.078-.018-.092v-1.92l.018-.092.052-.078.078-.052.092-.018h1.12l.092.018.078.052.052.078.018.092v1.92l-.018.092-.052.078-.078.052-.092.018ZM9.465 25.44l-.092-.018-.078-.052-.052-.078-.018-.092v-1.92l.018-.092.052-.078.078-.052.092-.018h1.12l.092.018.078.052.052.078.018.092v1.92l-.018.092-.052.078-.078.052-.092.018ZM6.925 25.44l-.092-.018-.078-.052-.052-.078-.018-.092v-1.92l.018-.092.052-.078.078-.052.092-.018h1.12l.092.018.078.052.052.078.018.092v1.92l-.018.092-.052.078-.078.052-.092.018ZM4.385 25.44l-.092-.018-.078-.052-.052-.078-.018-.092v-1.92l.018-.092.052-.078.078-.052.092-.018h1.12l.092.018.078.052.052.078.018.092v1.92l-.018.092-.052.078-.078.052-.092.018ZM.225 22.7l.018-.092.052-.078.078-.052.092-.018h1.92l.092.018.078.052.052.078.018.092v1.12l-.018.092-.052.078-.078.052-.092.018H.465l-.092-.018-.078-.052-.052-.078-.018-.092ZM.225 20.16l.018-.092.052-.078.078-.052.092-.018h1.92l.092.018.078.052.052.078.018.092v1.12l-.018.092-.052.078-.078.052-.092.018H.465l-.092-.018-.078-.052-.052-.078-.018-.092ZM.225 17.62l.018-.092.052-.078.078-.052.092-.018h1.92l.092.018.078.052.052.078.018.092v1.12l-.018.092-.052.078-.078.052-.092.018H.465l-.092-.018-.078-.052-.052-.078-.018-.092ZM.225 15.08l.018-.092.052-.078.078-.052.092-.018h1.92l.092.018.078.052.052.078.018.092v1.12l-.018.092-.052.078-.078.052-.092.018H.465l-.092-.018-.078-.052-.052-.078-.018-.092ZM.225 12.54l.018-.092.052-.078.078-.052.092-.018h1.92l.092.018.078.052.052.078.018.092v1.12l-.018.092-.052.078-.078.052-.092.018H.465l-.092-.018-.078-.052-.052-.078-.018-.092ZM.225 10l.018-.092.052-.078.078-.052.092-.018h1.92l.092.018.078.052.052.078.018.092v1.12l-.018.092-.052.078-.078.052-.092.018H.465l-.092-.018-.078-.052-.052-.078-.018-.092ZM.225 7.46l.018-.092.052-.078.078-.052.092-.018h1.92l.092.018.078.052.052.078.018.092v1.12l-.018.092-.052.078-.078.052-.092.018H.465l-.092-.018-.078-.052-.052-.078-.018-.092ZM.225 4.92l.018-.092.052-.078.078-.052.092-.018h1.92l.092.018.078.052.052.078.018.092v1.12l-.018.092-.052.078-.078.052-.092.018H.465l-.092-.018-.078-.052-.052-.078-.018-.092ZM.225 2.38l.018-.092.052-.078.078-.052.092-.018h1.92l.092.018.078.052.052.078.018.092V3.5l-.018.092-.052.078-.078.052-.092.018H.465l-.092-.018-.078-.052-.052-.078L.225 3.5Z" style="fill:#b4a09a;fill-opacity:.9;stroke:none;fill-rule:evenodd"/>
        <path stroke="none" d="m19.825 3.5-.018.092-.052.078-.078.052-.092.018h-1.92l-.092-.018-.078-.052-.052-.078-.018-.092V2.38l.018-.092.052-.078.078-.052.092-.018h1.92l.092.018.078.052.052.078.018.092ZM17.425 4.92l.018-.092.052-.078.078-.052.092-.018h1.92l.092.018.078.052.052.078.018.092v1.12l-.018.092-.052.078-.078.052-.092.018h-1.92l-.092-.018-.078-.052-.052-.078-.018-.092ZM17.425 7.46l.018-.092.052-.078.078-.052.092-.018h1.92l.092.018.078.052.052.078.018.092v1.12l-.018.092-.052.078-.078.052-.092.018h-1.92l-.092-.018-.078-.052-.052-.078-.018-.092ZM17.425 10l.018-.092.052-.078.078-.052.092-.018h1.92l.092.018.078.052.052.078.018.092v1.12l-.018.092-.052.078-.078.052-.092.018h-1.92l-.092-.018-.078-.052-.052-.078-.018-.092ZM17.425 12.54l.018-.092.052-.078.078-.052.092-.018h1.92l.092.018.078.052.052.078.018.092v1.12l-.018.092-.052.078-.078.052-.092.018h-1.92l-.092-.018-.078-.052-.052-.078-.018-.092ZM17.425 15.08l.018-.092.052-.078.078-.052.092-.018h1.92l.092.018.078.052.052.078.018.092v1.12l-.018.092-.052.078-.078.052-.092.018h-1.92l-.092-.018-.078-.052-.052-.078-.018-.092ZM17.425 17.62l.018-.092.052-.078.078-.052.092-.018h1.92l.092.018.078.052.052.078.018.092v1.12l-.018.092-.052.078-.078.052-.092.018h-1.92l-.092-.018-.078-.052-.052-.078-.018-.092ZM17.425 20.16l.018-.092.052-.078.078-.052.092-.018h1.92l.092.018.078.052.052.078.018.092v1.12l-.018.092-.052.078-.078.052-.092.018h-1.92l-.092-.018-.078-.052-.052-.078-.018-.092ZM17.425 22.7l.018-.092.052-.078.078-.052.092-.018h1.92l.092.018.078.052.052.078.018.092v1.12l-.018.092-.052.078-.078.052-.092.018h-1.92l-.092-.018-.078-.052-.052-.078-.018-.092ZM14.545 25.44l-.092-.018-.078-.052-.052-.078-.018-.092v-1.92l.018-.092.052-.078.078-.052.092-.018h1.12l.092.018.078.052.052.078.018.092v1.92l-.018.092-.052.078-.078.052-.092.018ZM12.005 25.44l-.092-.018-.078-.052-.052-.078-.018-.092v-1.92l.018-.092.052-.078.078-.052.092-.018h1.12l.092.018.078.052.052.078.018.092v1.92l-.018.092-.052.078-.078.052-.092.018ZM9.465 25.44l-.092-.018-.078-.052-.052-.078-.018-.092v-1.92l.018-.092.052-.078.078-.052.092-.018h1.12l.092.018.078.052.052.078.018.092v1.92l-.018.092-.052.078-.078.052-.092.018ZM6.925 25.44l-.092-.018-.078-.052-.052-.078-.018-.092v-1.92l.018-.092.052-.078.078-.052.092-.018h1.12l.092.018.078.052.052.078.018.092v1.92l-.018.092-.052.078-.078.052-.092.018ZM4.385 25.44l-.092-.018-.078-.052-.052-.078-.018-.092v-1.92l.018-.092.052-.078.078-.052.092-.018h1.12l.092.018.078.052.052.078.018.092v1.92l-.018.092-.052.078-.078.052-.092.018ZM.225 22.7l.018-.092.052-.078.078-.052.092-.018h1.92l.092.018.078.052.052.078.018.092v1.12l-.018.092-.052.078-.078.052-.092.018H.465l-.092-.018-.078-.052-.052-.078-.018-.092ZM.225 20.16l.018-.092.052-.078.078-.052.092-.018h1.92l.092.018.078.052.052.078.018.092v1.12l-.018.092-.052.078-.078.052-.092.018H.465l-.092-.018-.078-.052-.052-.078-.018-.092ZM.225 17.62l.018-.092.052-.078.078-.052.092-.018h1.92l.092.018.078.052.052.078.018.092v1.12l-.018.092-.052.078-.078.052-.092.018H.465l-.092-.018-.078-.052-.052-.078-.018-.092ZM.225 15.08l.018-.092.052-.078.078-.052.092-.018h1.92l.092.018.078.052.052.078.018.092v1.12l-.018.092-.052.078-.078.052-.092.018H.465l-.092-.018-.078-.052-.052-.078-.018-.092ZM.225 12.54l.018-.092.052-.078.078-.052.092-.018h1.92l.092.018.078.052.052.078.018.092v1.12l-.018.092-.052.078-.078.052-.092.018H.465l-.092-.018-.078-.052-.052-.078-.018-.092ZM.225 10l.018-.092.052-.078.078-.052.092-.018h1.92l.092.018.078.052.052.078.018.092v1.12l-.018.092-.052.078-.078.052-.092.018H.465l-.092-.018-.078-.052-.052-.078-.018-.092ZM.225 7.46l.018-.092.052-.078.078-.052.092-.018h1.92l.092.018.078.052.052.078.018.092v1.12l-.018.092-.052.078-.078.052-.092.018H.465l-.092-.018-.078-.052-.052-.078-.018-.092ZM.225 4.92l.018-.092.052-.078.078-.052.092-.018h1.92l.092.018.078.052.052.078.018.092v1.12l-.018.092-.052.078-.078.052-.092.018H.465l-.092-.018-.078-.052-.052-.078-.018-.092ZM.225 2.38l.018-.092.052-.078.078-.052.092-.018h1.92l.092.018.078.052.052.078.018.092V3.5l-.018.092-.052.078-.078.052-.092.018H.465l-.092-.018-.078-.052-.052-.078L.225 3.5Z" style="fill:#c83434;fill-opacity:1;stroke:none;fill-rule:evenodd"/>
    </g>
    <g style="fill:none;stroke:#afafaf;stroke-width:.15;stroke-opacity:1;stroke-linecap:round;stroke-linejoin:round">
        <g class="stroked-text">
            <path d="M1.168 27.195v-1M1.168 26.195l.333.714M1.501 26.91l.334-.715M1.835 26.195v1M2.882 27.1l-.048.047M2.835 27.147l-.143.048M2.692 27.195h-.096M2.596 27.195l-.142-.048M2.454 27.147l-.096-.095M2.358 27.052l-.047-.095M2.31 26.957l-.047-.19M2.263 26.766v-.143M2.263 26.623l.048-.19M2.31 26.433l.048-.095M2.358 26.338l.096-.096M2.454 26.242l.142-.047M2.596 26.195h.096M2.692 26.195l.142.047M2.835 26.242l.047.048M3.31 26.195v.81M3.31 27.004l.048.096M3.358 27.1l.048.047M3.406 27.147l.095.048M3.501 27.195h.19M3.692 27.195l.095-.048M3.787 27.147l.047-.047M3.835 27.1l.047-.096M3.882 27.004v-.81M4.12 27.29h.762M5.692 27.195l-.334-.476M5.12 27.195v-1M5.12 26.195h.381M5.501 26.195l.095.047M5.596 26.242l.048.048M5.644 26.29l.048.095M5.692 26.385v.143M5.692 26.528l-.048.095M5.644 26.623l-.048.048M5.596 26.671l-.095.048M5.501 26.719h-.38M6.12 27.195v-1M6.12 26.195h.381M6.501 26.195l.095.047M6.596 26.242l.048.048M6.644 26.29l.048.095M6.692 26.385v.143M6.692 26.528l-.048.095M6.644 26.623l-.048.048M6.596 26.671l-.095.048M6.501 26.719h-.38M7.073 26.29l.047-.048M7.12 26.242l.095-.047M7.216 26.195h.238M7.454 26.195l.095.047M7.549 26.242l.047.048M7.596 26.29l.048.095M7.644 26.385v.095M7.644 26.48l-.048.143M7.596 26.623l-.571.572M7.025 27.195h.619M8.263 26.195h.095M8.358 26.195l.096.047M8.454 26.242l.047.048M8.501 26.29l.048.095M8.549 26.385l.047.19M8.596 26.576v.238M8.596 26.814l-.047.19M8.549 27.004 8.5 27.1M8.501 27.1l-.047.047M8.454 27.147l-.096.048M8.358 27.195h-.095M8.263 27.195l-.095-.048M8.168 27.147 8.12 27.1M8.12 27.1l-.047-.096M8.073 27.004l-.048-.19M8.025 26.814v-.238M8.025 26.576l.048-.19M8.073 26.385l.047-.095M8.12 26.29l.048-.048M8.168 26.242l.095-.047M9.454 26.528v.667M9.216 26.147l-.239.715M8.977 26.862h.62M10.168 26.195h.095M10.263 26.195l.095.047M10.358 26.242l.048.048M10.406 26.29l.048.095M10.454 26.385l.047.19M10.501 26.576v.238M10.501 26.814l-.047.19M10.454 27.004l-.048.096M10.406 27.1l-.048.047M10.358 27.147l-.095.048M10.263 27.195h-.095M10.168 27.195l-.095-.048M10.073 27.147l-.048-.047M10.025 27.1l-.048-.096M9.977 27.004l-.047-.19M9.93 26.814v-.238M9.93 26.576l.047-.19M9.977 26.385l.048-.095M10.025 26.29l.048-.048M10.073 26.242l.095-.047M10.93 26.814h.762M12.073 26.195h.666M12.74 26.195l-.667 1M12.073 27.195h.666M13.501 27.147l-.095.048M13.406 27.195h-.19M13.216 27.195l-.096-.048M13.12 27.147l-.047-.095M13.073 27.052v-.381M13.073 26.671l.047-.095M13.12 26.576l.096-.048M13.216 26.528h.19M13.406 26.528l.095.048M13.501 26.576l.048.095M13.549 26.671v.095M13.549 26.766l-.476.096M13.977 27.195v-.667M13.977 26.719l.048-.096M14.025 26.623l.048-.047M14.073 26.576l.095-.048M14.168 26.528h.095M14.74 27.195l-.096-.048M14.644 27.147l-.048-.047M14.596 27.1l-.047-.096M14.549 27.004v-.285M14.549 26.719l.047-.096M14.596 26.623l.048-.047M14.644 26.576l.095-.048M14.74 26.528h.142M14.882 26.528l.095.048M14.977 26.576l.048.047M15.025 26.623l.048.096M15.073 26.719v.285M15.073 27.004l-.048.096M15.025 27.1l-.048.047M14.977 27.147l-.095.048M14.882 27.195h-.143M15.263 27.29h.762M16.215 27.147l.143.048M16.358 27.195h.238M16.596 27.195l.096-.048M16.692 27.147l.047-.047M16.74 27.1l.047-.096M16.787 27.004v-.095M16.787 26.91l-.048-.096M16.74 26.814l-.048-.048M16.692 26.766l-.096-.047M16.596 26.719l-.19-.048M16.406 26.671l-.095-.048M16.31 26.623l-.047-.047M16.263 26.576l-.048-.096M16.215 26.48v-.095M16.215 26.385l.048-.095M16.263 26.29l.048-.048M16.31 26.242l.096-.047M16.406 26.195h.238M16.644 26.195l.143.047M17.216 27.195v-1M17.216 26.195l.333.714M17.549 26.91l.333-.715M17.882 26.195v1M18.358 27.195v-1M18.358 26.195h.238M18.596 26.195l.143.047M18.74 26.242l.095.096M18.835 26.338l.047.095M18.882 26.433l.048.19M18.93 26.623v.143M18.93 26.766l-.048.19M18.882 26.957l-.048.095M18.835 27.052l-.096.095M18.74 27.147l-.144.048M18.596 27.195h-.238"/>
        </g>
        <g class="stroked-text">
            <path d="m8.692 12.285-.334-.476M8.12 12.285v-1M8.12 11.285h.381M8.501 11.285l.095.047M8.596 11.332l.048.048M8.644 11.38l.048.095M8.692 11.475v.143M8.692 11.618l-.048.095M8.644 11.713l-.048.048M8.596 11.761l-.095.048M8.501 11.809h-.38M9.12 11.761h.334M9.596 12.285H9.12M9.12 12.285v-1M9.12 11.285h.476M10.358 11.761h-.333M10.025 12.285v-1M10.025 11.285h.476M11.025 11.285v.238M10.787 11.428l.238.095M11.025 11.523l.238-.095M10.882 11.713l.143-.19M11.025 11.523l.143.19M11.787 11.285v.238M11.549 11.428l.238.095M11.787 11.523l.238-.095M11.644 11.713l.143-.19M11.787 11.523l.143.19"/>
        </g>
    </g>
    <g style="fill:none;stroke:#afafaf;stroke-width:.1;stroke-opacity:1;stroke-linecap:round;stroke-linejoin:round">
        <path d="M1.025 23.85V2.35M2.025 1.35h16M18.025 24.85h-16M19.025 2.35v21.5"/>
        <path d="M3.525 1.35h13v21h-13Z" style="stroke:#afafaf;stroke-width:.05;stroke-opacity:1;stroke-linecap:round;stroke-linejoin:round;fill:none"/>
        <path d="M5.695.05h8.66v1.3h-8.66Z" style="stroke:#afafaf;stroke-width:.1;stroke-opacity:1;stroke-linecap:round;stroke-linejoin:round;fill:none"/>
    </g>
    <g style="fill:none;stroke:#afafaf;stroke-width:.1;stroke-opacity:1;stroke-linecap:round;stroke-linejoin:round">
        <path d="M2.025 1.35a1 1 0 0 0-1 1M1.025 23.85a1 1 0 0 0 1 1M19.025 2.35a1 1 0 0 0-1-1M18.025 24.85a1 1 0 0 0 1-1"/>
    </g>
    <g style="fill:none;stroke:#afafaf;stroke-width:.0667;stroke-opacity:1;stroke-linecap:round;stroke-linejoin:round">
        <g class="stroked-text">
            <path d="M18.854 3.307h-.458M18.625 3.307v-.8M18.625 2.507l-.076.114M18.549 2.62l-.076.077M18.473 2.697l-.077.038"/>
        </g>
        <path d="m19.825 3.5-.018.092-.052.078-.078.052-.092.018h-1.92l-.092-.018-.078-.052-.052-.078-.018-.092V2.38l.018-.092.052-.078.078-.052.092-.018h1.92l.092.018.078.052.052.078.018.092Z" style="stroke:#afafaf;stroke-width:.0212;stroke-opacity:1;stroke-linecap:round;stroke-linejoin:round;fill:none"/>
    </g>
    <g style="fill:none;stroke:#afafaf;stroke-width:.0667;stroke-opacity:1;stroke-linecap:round;stroke-linejoin:round">
        <g class="stroked-text">
            <path d="m18.396 5.123.038-.038M18.435 5.085l.076-.038M18.51 5.047h.191M18.701 5.047l.076.038M18.777 5.085l.038.038M18.816 5.123l.038.076M18.854 5.199v.076M18.854 5.275l-.038.114M18.816 5.39l-.458.457M18.358 5.847h.496"/>
        </g>
        <path d="m17.425 4.92.018-.092.052-.078.078-.052.092-.018h1.92l.092.018.078.052.052.078.018.092v1.12l-.018.092-.052.078-.078.052-.092.018h-1.92l-.092-.018-.078-.052-.052-.078-.018-.092Z" style="stroke:#afafaf;stroke-width:.0212;stroke-opacity:1;stroke-linecap:round;stroke-linejoin:round;fill:none"/>
    </g>
    <g style="fill:none;stroke:#afafaf;stroke-width:.0667;stroke-opacity:1;stroke-linecap:round;stroke-linejoin:round">
        <g class="stroked-text">
            <path d="M18.358 7.587h.496M18.854 7.587l-.267.304M18.587 7.891h.114M18.701 7.891l.076.038M18.777 7.93l.038.038M18.816 7.968l.038.076M18.854 8.044v.19M18.854 8.234l-.038.076M18.816 8.31l-.039.038M18.777 8.349l-.076.038M18.701 8.387h-.228M18.473 8.387l-.077-.039M18.396 8.349l-.038-.039"/>
        </g>
        <path d="m17.425 7.46.018-.092.052-.078.078-.052.092-.018h1.92l.092.018.078.052.052.078.018.092v1.12l-.018.092-.052.078-.078.052-.092.018h-1.92l-.092-.018-.078-.052-.052-.078-.018-.092Z" style="stroke:#afafaf;stroke-width:.0212;stroke-opacity:1;stroke-linecap:round;stroke-linejoin:round;fill:none"/>
    </g>
    <g style="fill:none;stroke:#afafaf;stroke-width:.0667;stroke-opacity:1;stroke-linecap:round;stroke-linejoin:round">
        <g class="stroked-text">
            <path d="M18.777 10.393v.534M18.587 10.089l-.19.571M18.396 10.66h.496"/>
        </g>
        <path d="m17.425 10 .018-.092.052-.078.078-.052.092-.018h1.92l.092.018.078.052.052.078.018.092v1.12l-.018.092-.052.078-.078.052-.092.018h-1.92l-.092-.018-.078-.052-.052-.078-.018-.092Z" style="stroke:#afafaf;stroke-width:.0212;stroke-opacity:1;stroke-linecap:round;stroke-linejoin:round;fill:none"/>
    </g>
    <g style="fill:none;stroke:#afafaf;stroke-width:.0667;stroke-opacity:1;stroke-linecap:round;stroke-linejoin:round">
        <g class="stroked-text">
            <path d="M18.816 12.667h-.381M18.435 12.667l-.039.38M18.396 13.048l.038-.039M18.435 13.01l.076-.039M18.51 12.971h.191M18.701 12.971l.076.038M18.777 13.01l.038.038M18.816 13.048l.038.076M18.854 13.124v.19M18.854 13.314l-.038.076M18.816 13.39l-.039.038M18.777 13.429l-.076.038M18.701 13.467h-.19M18.51 13.467l-.076-.039M18.435 13.429l-.039-.039"/>
        </g>
        <path d="m17.425 12.54.018-.092.052-.078.078-.052.092-.018h1.92l.092.018.078.052.052.078.018.092v1.12l-.018.092-.052.078-.078.052-.092.018h-1.92l-.092-.018-.078-.052-.052-.078-.018-.092Z" style="stroke:#afafaf;stroke-width:.0212;stroke-opacity:1;stroke-linecap:round;stroke-linejoin:round;fill:none"/>
    </g>
    <g style="fill:none;stroke:#afafaf;stroke-width:.0667;stroke-opacity:1;stroke-linecap:round;stroke-linejoin:round">
        <g class="stroked-text">
            <path d="M18.777 15.207h-.152M18.625 15.207l-.076.038M18.549 15.245l-.038.038M18.51 15.283l-.076.114M18.435 15.397l-.039.152M18.396 15.55v.304M18.396 15.854l.038.076M18.435 15.93l.038.039M18.473 15.969l.076.038M18.549 16.007h.152M18.701 16.007l.076-.039M18.777 15.969l.038-.039M18.816 15.93l.038-.076M18.854 15.854v-.19M18.854 15.664l-.038-.076M18.816 15.588l-.039-.038M18.777 15.55l-.076-.039M18.701 15.511h-.152M18.549 15.511l-.076.039M18.473 15.55l-.038.038M18.435 15.588l-.039.076"/>
        </g>
        <path d="m17.425 15.08.018-.092.052-.078.078-.052.092-.018h1.92l.092.018.078.052.052.078.018.092v1.12l-.018.092-.052.078-.078.052-.092.018h-1.92l-.092-.018-.078-.052-.052-.078-.018-.092Z" style="stroke:#afafaf;stroke-width:.0212;stroke-opacity:1;stroke-linecap:round;stroke-linejoin:round;fill:none"/>
    </g>
    <g style="fill:none;stroke:#afafaf;stroke-width:.0667;stroke-opacity:1;stroke-linecap:round;stroke-linejoin:round">
        <g class="stroked-text">
            <path d="M18.358 17.747h.534M18.892 17.747l-.343.8"/>
        </g>
        <path d="m17.425 17.62.018-.092.052-.078.078-.052.092-.018h1.92l.092.018.078.052.052.078.018.092v1.12l-.018.092-.052.078-.078.052-.092.018h-1.92l-.092-.018-.078-.052-.052-.078-.018-.092Z" style="stroke:#afafaf;stroke-width:.0212;stroke-opacity:1;stroke-linecap:round;stroke-linejoin:round;fill:none"/>
    </g>
    <g style="fill:none;stroke:#afafaf;stroke-width:.0667;stroke-opacity:1;stroke-linecap:round;stroke-linejoin:round">
        <g class="stroked-text">
            <path d="m18.549 20.63-.076-.039M18.473 20.591l-.038-.038M18.435 20.553l-.039-.076M18.396 20.477v-.038M18.396 20.439l.038-.076M18.435 20.363l.038-.038M18.473 20.325l.076-.038M18.549 20.287h.152M18.701 20.287l.076.038M18.777 20.325l.038.038M18.816 20.363l.038.076M18.854 20.439v.038M18.854 20.477l-.038.076M18.816 20.553l-.039.038M18.777 20.591l-.076.038M18.701 20.63h-.152M18.549 20.63l-.076.038M18.473 20.668l-.038.038M18.435 20.706l-.039.076M18.396 20.782v.152M18.396 20.934l.038.076M18.435 21.01l.038.038M18.473 21.049l.076.038M18.549 21.087h.152M18.701 21.087l.076-.038M18.777 21.049l.038-.039M18.816 21.01l.038-.076M18.854 20.934v-.152M18.854 20.782l-.038-.076M18.816 20.706l-.039-.038M18.777 20.668l-.076-.038"/>
        </g>
        <path d="m17.425 20.16.018-.092.052-.078.078-.052.092-.018h1.92l.092.018.078.052.052.078.018.092v1.12l-.018.092-.052.078-.078.052-.092.018h-1.92l-.092-.018-.078-.052-.052-.078-.018-.092Z" style="stroke:#afafaf;stroke-width:.0212;stroke-opacity:1;stroke-linecap:round;stroke-linejoin:round;fill:none"/>
    </g>
    <g style="fill:none;stroke:#afafaf;stroke-width:.0667;stroke-opacity:1;stroke-linecap:round;stroke-linejoin:round">
        <g class="stroked-text">
            <path d="M18.473 23.627h.152M18.625 23.627l.076-.038M18.701 23.589l.038-.039M18.74 23.55l.076-.114M18.816 23.436l.038-.152M18.854 23.284v-.305M18.854 22.979l-.038-.076M18.816 22.903l-.039-.038M18.777 22.865l-.076-.038M18.701 22.827h-.152M18.549 22.827l-.076.038M18.473 22.865l-.038.038M18.435 22.903l-.039.076M18.396 22.979v.19M18.396 23.17l.038.076M18.435 23.246l.038.038M18.473 23.284l.076.038M18.549 23.322h.152M18.701 23.322l.076-.038M18.777 23.284l.038-.038M18.816 23.246l.038-.076"/>
        </g>
        <path d="m17.425 22.7.018-.092.052-.078.078-.052.092-.018h1.92l.092.018.078.052.052.078.018.092v1.12l-.018.092-.052.078-.078.052-.092.018h-1.92l-.092-.018-.078-.052-.052-.078-.018-.092Z" style="stroke:#afafaf;stroke-width:.0212;stroke-opacity:1;stroke-linecap:round;stroke-linejoin:round;fill:none"/>
    </g>
    <g style="fill:none;stroke:#afafaf;stroke-width:.0667;stroke-opacity:1;stroke-linecap:round;stroke-linejoin:round">
        <g class="stroked-text">
            <path d="M15.472 24.392v.457M15.472 24.621h-.8M14.672 24.621l.114.076M14.786 24.697l.076.076M14.862 24.773l.038.076M14.672 23.897v-.076M14.672 23.821l.038-.076M14.71 23.745l.038-.038M14.748 23.707l.076-.038M14.824 23.669l.152-.038M14.976 23.63h.19M15.167 23.63l.152.039M15.32 23.669l.075.038M15.395 23.707l.039.038M15.434 23.745l.038.076M15.472 23.821v.076M15.472 23.897l-.038.076M15.434 23.973l-.039.038M15.395 24.011l-.076.038M15.32 24.05l-.153.038M15.167 24.088h-.19M14.976 24.088l-.152-.039M14.824 24.05l-.076-.039M14.748 24.011l-.038-.038M14.71 23.973l-.038-.076"/>
        </g>
        <path d="m14.545 25.44-.092-.018-.078-.052-.052-.078-.018-.092v-1.92l.018-.092.052-.078.078-.052.092-.018h1.12l.092.018.078.052.052.078.018.092v1.92l-.018.092-.052.078-.078.052-.092.018Z" style="stroke:#afafaf;stroke-width:.0212;stroke-opacity:1;stroke-linecap:round;stroke-linejoin:round;fill:none"/>
    </g>
    <g style="fill:none;stroke:#afafaf;stroke-width:.0667;stroke-opacity:1;stroke-linecap:round;stroke-linejoin:round">
        <g class="stroked-text">
            <path d="M12.932 24.392v.457M12.932 24.621h-.8M12.132 24.621l.114.076M12.246 24.697l.076.076M12.322 24.773l.038.076M12.932 23.63v.458M12.932 23.859h-.8M12.132 23.859l.114.076M12.246 23.935l.076.076M12.322 24.011l.038.077"/>
        </g>
        <path d="m12.005 25.44-.092-.018-.078-.052-.052-.078-.018-.092v-1.92l.018-.092.052-.078.078-.052.092-.018h1.12l.092.018.078.052.052.078.018.092v1.92l-.018.092-.052.078-.078.052-.092.018Z" style="stroke:#afafaf;stroke-width:.0212;stroke-opacity:1;stroke-linecap:round;stroke-linejoin:round;fill:none"/>
    </g>
    <g style="fill:none;stroke:#afafaf;stroke-width:.0667;stroke-opacity:1;stroke-linecap:round;stroke-linejoin:round">
        <g class="stroked-text">
            <path d="M10.392 24.392v.457M10.392 24.621h-.8M9.592 24.621l.114.076M9.706 24.697l.076.076M9.782 24.773l.038.076M9.668 24.088l-.038-.039M9.63 24.05l-.038-.077M9.592 23.973v-.19M9.592 23.783l.038-.076M9.63 23.707l.038-.038M9.668 23.669l.076-.038M9.744 23.63h.076M9.82 23.63l.114.039M9.935 23.669l.457.457M10.392 24.126v-.495"/>
        </g>
        <path d="m9.465 25.44-.092-.018-.078-.052-.052-.078-.018-.092v-1.92l.018-.092.052-.078.078-.052.092-.018h1.12l.092.018.078.052.052.078.018.092v1.92l-.018.092-.052.078-.078.052-.092.018Z" style="stroke:#afafaf;stroke-width:.0212;stroke-opacity:1;stroke-linecap:round;stroke-linejoin:round;fill:none"/>
    </g>
    <g style="fill:none;stroke:#afafaf;stroke-width:.0667;stroke-opacity:1;stroke-linecap:round;stroke-linejoin:round">
        <g class="stroked-text">
            <path d="M7.852 24.392v.457M7.852 24.621h-.8M7.052 24.621l.114.076M7.166 24.697l.076.076M7.242 24.773l.038.076M7.052 24.126v-.495M7.052 23.63l.304.267M7.356 23.897v-.114M7.356 23.783l.038-.076M7.395 23.707l.038-.038M7.433 23.669l.076-.038M7.509 23.63h.19M7.7 23.63l.075.039M7.775 23.669l.038.038M7.814 23.707l.038.076M7.852 23.783v.228M7.852 24.011l-.038.077M7.814 24.088l-.039.038"/>
        </g>
        <path d="m6.925 25.44-.092-.018-.078-.052-.052-.078-.018-.092v-1.92l.018-.092.052-.078.078-.052.092-.018h1.12l.092.018.078.052.052.078.018.092v1.92l-.018.092-.052.078-.078.052-.092.018Z" style="stroke:#afafaf;stroke-width:.0212;stroke-opacity:1;stroke-linecap:round;stroke-linejoin:round;fill:none"/>
    </g>
    <g style="fill:none;stroke:#afafaf;stroke-width:.0667;stroke-opacity:1;stroke-linecap:round;stroke-linejoin:round">
        <g class="stroked-text">
            <path d="M5.312 24.392v.457M5.312 24.621h-.8M4.512 24.621l.114.076M4.626 24.697l.076.076M4.702 24.773l.038.076M4.778 23.707h.534M4.474 23.897l.571.19M5.045 24.088v-.496"/>
        </g>
        <path d="m4.385 25.44-.092-.018-.078-.052-.052-.078-.018-.092v-1.92l.018-.092.052-.078.078-.052.092-.018h1.12l.092.018.078.052.052.078.018.092v1.92l-.018.092-.052.078-.078.052-.092.018Z" style="stroke:#afafaf;stroke-width:.0212;stroke-opacity:1;stroke-linecap:round;stroke-linejoin:round;fill:none"/>
    </g>
    <g style="fill:none;stroke:#afafaf;stroke-width:.0667;stroke-opacity:1;stroke-linecap:round;stroke-linejoin:round">
        <g class="stroked-text">
            <path d="M1.273 23.627H.816M1.044 23.627v-.8M1.044 22.827l-.076.114M.968 22.94l-.076.077M.892 23.017l-.077.038M1.996 22.827h-.38M1.616 22.827l-.039.38M1.577 23.208l.038-.038M1.616 23.17l.076-.039M1.692 23.131h.19M1.882 23.131l.076.038M1.958 23.17l.038.038M1.996 23.208l.038.076M2.035 23.284v.19M2.035 23.474l-.039.076M1.996 23.55l-.038.038M1.958 23.589l-.076.038M1.882 23.627h-.19M1.692 23.627l-.077-.038M1.616 23.589l-.039-.039"/>
        </g>
        <path d="m.225 22.7.018-.092.052-.078.078-.052.092-.018h1.92l.092.018.078.052.052.078.018.092v1.12l-.018.092-.052.078-.078.052-.092.018H.465l-.092-.018-.078-.052-.052-.078-.018-.092Z" style="stroke:#afafaf;stroke-width:.0212;stroke-opacity:1;stroke-linecap:round;stroke-linejoin:round;fill:none"/>
    </g>
    <g style="fill:none;stroke:#afafaf;stroke-width:.0667;stroke-opacity:1;stroke-linecap:round;stroke-linejoin:round">
        <g class="stroked-text">
            <path d="M1.273 21.087H.816M1.044 21.087v-.8M1.044 20.287l-.076.114M.968 20.4l-.076.077M.892 20.477l-.077.038M1.958 20.287h-.152M1.806 20.287l-.076.038M1.73 20.325l-.038.038M1.692 20.363l-.077.114M1.616 20.477l-.039.152M1.577 20.63v.304M1.577 20.934l.038.076M1.616 21.01l.038.038M1.654 21.049l.076.038M1.73 21.087h.152M1.882 21.087l.076-.038M1.958 21.049l.038-.039M1.996 21.01l.038-.076M2.035 20.934v-.19M2.035 20.744l-.039-.076M1.996 20.668l-.038-.038M1.958 20.63l-.076-.039M1.882 20.591H1.73M1.73 20.591l-.076.038M1.654 20.63l-.038.038M1.616 20.668l-.039.076"/>
        </g>
        <path d="m.225 20.16.018-.092.052-.078.078-.052.092-.018h1.92l.092.018.078.052.052.078.018.092v1.12l-.018.092-.052.078-.078.052-.092.018H.465l-.092-.018-.078-.052-.052-.078-.018-.092Z" style="stroke:#afafaf;stroke-width:.0212;stroke-opacity:1;stroke-linecap:round;stroke-linejoin:round;fill:none"/>
    </g>
    <g style="fill:none;stroke:#afafaf;stroke-width:.0667;stroke-opacity:1;stroke-linecap:round;stroke-linejoin:round">
        <g class="stroked-text">
            <path d="M1.273 18.547H.816M1.044 18.547v-.8M1.044 17.747l-.076.114M.968 17.86l-.076.077M.892 17.937l-.077.038M1.54 17.747h.533M2.073 17.747l-.343.8"/>
        </g>
        <path d="m.225 17.62.018-.092.052-.078.078-.052.092-.018h1.92l.092.018.078.052.052.078.018.092v1.12l-.018.092-.052.078-.078.052-.092.018H.465l-.092-.018-.078-.052-.052-.078-.018-.092Z" style="stroke:#afafaf;stroke-width:.0212;stroke-opacity:1;stroke-linecap:round;stroke-linejoin:round;fill:none"/>
    </g>
    <g style="fill:none;stroke:#afafaf;stroke-width:.0667;stroke-opacity:1;stroke-linecap:round;stroke-linejoin:round">
        <g class="stroked-text">
            <path d="M1.273 16.007H.816M1.044 16.007v-.8M1.044 15.207l-.076.114M.968 15.32l-.076.077M.892 15.397l-.077.038M1.73 15.55l-.076-.039M1.654 15.511l-.038-.038M1.616 15.473l-.039-.076M1.577 15.397v-.038M1.577 15.359l.038-.076M1.616 15.283l.038-.038M1.654 15.245l.076-.038M1.73 15.207h.152M1.882 15.207l.076.038M1.958 15.245l.038.038M1.996 15.283l.038.076M2.035 15.359v.038M2.035 15.397l-.039.076M1.996 15.473l-.038.038M1.958 15.511l-.076.039M1.882 15.55H1.73M1.73 15.55l-.076.038M1.654 15.588l-.038.038M1.616 15.626l-.039.076M1.577 15.702v.152M1.577 15.854l.038.076M1.616 15.93l.038.039M1.654 15.969l.076.038M1.73 16.007h.152M1.882 16.007l.076-.039M1.958 15.969l.038-.039M1.996 15.93l.038-.076M2.035 15.854v-.152M2.035 15.702l-.039-.076M1.996 15.626l-.038-.038M1.958 15.588l-.076-.038"/>
        </g>
        <path d="m.225 15.08.018-.092.052-.078.078-.052.092-.018h1.92l.092.018.078.052.052.078.018.092v1.12l-.018.092-.052.078-.078.052-.092.018H.465l-.092-.018-.078-.052-.052-.078-.018-.092Z" style="stroke:#afafaf;stroke-width:.0212;stroke-opacity:1;stroke-linecap:round;stroke-linejoin:round;fill:none"/>
    </g>
    <g style="fill:none;stroke:#afafaf;stroke-width:.0667;stroke-opacity:1;stroke-linecap:round;stroke-linejoin:round">
        <g class="stroked-text">
            <path d="M1.273 13.467H.816M1.044 13.467v-.8M1.044 12.667l-.076.114M.968 12.78l-.076.077M.892 12.857l-.077.038M1.654 13.467h.152M1.806 13.467l.076-.039M1.882 13.429l.038-.039M1.92 13.39l.076-.114M1.996 13.276l.038-.152M2.035 13.124v-.305M2.035 12.819l-.039-.076M1.996 12.743l-.038-.038M1.958 12.705l-.076-.038M1.882 12.667H1.73M1.73 12.667l-.076.038M1.654 12.705l-.038.038M1.616 12.743l-.039.076M1.577 12.819v.19M1.577 13.01l.038.076M1.616 13.086l.038.038M1.654 13.124l.076.038M1.73 13.162h.152M1.882 13.162l.076-.038M1.958 13.124l.038-.038M1.996 13.086l.038-.077"/>
        </g>
        <path d="m.225 12.54.018-.092.052-.078.078-.052.092-.018h1.92l.092.018.078.052.052.078.018.092v1.12l-.018.092-.052.078-.078.052-.092.018H.465l-.092-.018-.078-.052-.052-.078-.018-.092Z" style="stroke:#afafaf;stroke-width:.0212;stroke-opacity:1;stroke-linecap:round;stroke-linejoin:round;fill:none"/>
    </g>
    <g style="fill:none;stroke:#afafaf;stroke-width:.0667;stroke-opacity:1;stroke-linecap:round;stroke-linejoin:round">
        <g class="stroked-text">
            <path d="m.816 10.203.038-.038M.854 10.165l.076-.038M.93 10.127h.19M1.12 10.127l.076.038M1.196 10.165l.038.038M1.235 10.203l.038.076M1.273 10.279v.076M1.273 10.355l-.038.114M1.235 10.47l-.458.457M.777 10.927h.496M1.768 10.127h.076M1.844 10.127l.076.038M1.92 10.165l.038.038M1.958 10.203l.038.076M1.996 10.279l.038.152M2.035 10.431v.19M2.035 10.622l-.039.152M1.996 10.774l-.038.076M1.958 10.85l-.038.039M1.92 10.889l-.076.038M1.844 10.927h-.076M1.768 10.927l-.076-.038M1.692 10.889l-.038-.039M1.654 10.85l-.038-.076M1.616 10.774l-.039-.152M1.577 10.622v-.19M1.577 10.431l.038-.152M1.616 10.279l.038-.076M1.654 10.203l.038-.038M1.692 10.165l.076-.038"/>
        </g>
        <path d="m.225 10 .018-.092.052-.078.078-.052.092-.018h1.92l.092.018.078.052.052.078.018.092v1.12l-.018.092-.052.078-.078.052-.092.018H.465l-.092-.018-.078-.052-.052-.078-.018-.092Z" style="stroke:#afafaf;stroke-width:.0212;stroke-opacity:1;stroke-linecap:round;stroke-linejoin:round;fill:none"/>
    </g>
    <g style="fill:none;stroke:#afafaf;stroke-width:.0667;stroke-opacity:1;stroke-linecap:round;stroke-linejoin:round">
        <g class="stroked-text">
            <path d="m.816 7.663.038-.038M.854 7.625l.076-.038M.93 7.587h.19M1.12 7.587l.076.038M1.196 7.625l.038.038M1.235 7.663l.038.076M1.273 7.739v.076M1.273 7.815l-.038.114M1.235 7.93l-.458.457M.777 8.387h.496M2.035 8.387h-.458M1.806 8.387v-.8M1.806 7.587 1.73 7.7M1.73 7.7l-.076.077M1.654 7.777l-.077.038"/>
        </g>
        <path d="m.225 7.46.018-.092.052-.078.078-.052.092-.018h1.92l.092.018.078.052.052.078.018.092v1.12l-.018.092-.052.078-.078.052-.092.018H.465l-.092-.018-.078-.052-.052-.078-.018-.092Z" style="stroke:#afafaf;stroke-width:.0212;stroke-opacity:1;stroke-linecap:round;stroke-linejoin:round;fill:none"/>
    </g>
    <g style="fill:none;stroke:#afafaf;stroke-width:.0667;stroke-opacity:1;stroke-linecap:round;stroke-linejoin:round">
        <g class="stroked-text">
            <path d="m.816 5.123.038-.038M.854 5.085l.076-.038M.93 5.047h.19M1.12 5.047l.076.038M1.196 5.085l.038.038M1.235 5.123l.038.076M1.273 5.199v.076M1.273 5.275l-.038.114M1.235 5.39l-.458.457M.777 5.847h.496M1.577 5.123l.038-.038M1.616 5.085l.076-.038M1.692 5.047h.19M1.882 5.047l.076.038M1.958 5.085l.038.038M1.996 5.123l.038.076M2.035 5.199v.076M2.035 5.275l-.039.114M1.996 5.39l-.457.457M1.54 5.847h.494"/>
        </g>
        <path d="m.225 4.92.018-.092.052-.078.078-.052.092-.018h1.92l.092.018.078.052.052.078.018.092v1.12l-.018.092-.052.078-.078.052-.092.018H.465l-.092-.018-.078-.052-.052-.078-.018-.092Z" style="stroke:#afafaf;stroke-width:.0212;stroke-opacity:1;stroke-linecap:round;stroke-linejoin:round;fill:none"/>
    </g>
    <g style="fill:none;stroke:#afafaf;stroke-width:.0667;stroke-opacity:1;stroke-linecap:round;stroke-linejoin:round">
        <g class="stroked-text">
            <path d="m.816 2.583.038-.038M.854 2.545l.076-.038M.93 2.507h.19M1.12 2.507l.076.038M1.196 2.545l.038.038M1.235 2.583l.038.076M1.273 2.659v.076M1.273 2.735l-.038.115M1.235 2.85l-.458.457M.777 3.307h.496M1.54 2.507h.494M2.035 2.507l-.267.304M1.768 2.811h.114M1.882 2.811l.076.038M1.958 2.85l.038.038M1.996 2.888l.038.076M2.035 2.964v.19M2.035 3.154l-.039.076M1.996 3.23l-.038.038M1.958 3.269l-.076.038M1.882 3.307h-.228M1.654 3.307l-.077-.038M1.577 3.269 1.54 3.23"/>
        </g>
        <path d="m.225 2.38.018-.092.052-.078.078-.052.092-.018h1.92l.092.018.078.052.052.078.018.092V3.5l-.018.092-.052.078-.078.052-.092.018H.465l-.092-.018-.078-.052-.052-.078L.225 3.5Z" style="stroke:#afafaf;stroke-width:.0212;stroke-opacity:1;stroke-linecap:round;stroke-linejoin:round;fill:none"/>
    </g>
</svg>
