<svg xmlns="http://www.w3.org/2000/svg" width="75.744" height="100.32" viewBox="0 0 20.041 26.543">
    <g class="stroked-text" style="fill:none;stroke:#f2eda1;stroke-width:.15;stroke-opacity:1;stroke-linecap:round;stroke-linejoin:round">
        <path d="m8.692 11.26-.334-.476M8.12 11.26v-1M8.12 10.26h.381M8.501 10.26l.095.047M8.596 10.307l.048.048M8.644 10.355l.048.095M8.692 10.45v.143M8.692 10.593l-.048.095M8.644 10.688l-.048.048M8.596 10.736l-.095.048M8.501 10.784h-.38M9.12 10.736h.334M9.596 11.26H9.12M9.12 11.26v-1M9.12 10.26h.476M10.358 10.736h-.333M10.025 11.26v-1M10.025 10.26h.476M11.025 10.26v.238M10.787 10.403l.238.095M11.025 10.498l.238-.095M10.882 10.688l.143-.19M11.025 10.498l.143.19M11.787 10.26v.238M11.549 10.403l.238.095M11.787 10.498l.238-.095M11.644 10.688l.143-.19M11.787 10.498l.143.19"/>
    </g>
    <g style="fill:none;stroke:#f2eda1;stroke-width:.12;stroke-opacity:1;stroke-linecap:round;stroke-linejoin:round">
        <path d="M.925 3.405v-.44M.925 5.945v-.44M.925 8.485v-.44M.925 11.025v-.44M.925 13.565v-.44M.925 15.665v.44M.925 18.645v-.44M.925 21.185v-.44M2.025.225h16M2.025 23.925h1.87M5.995 23.925h.44M8.535 23.925h.44M11.515 23.925h-.44M14.055 23.925h-.44M16.154 23.925h1.87M19.025.865h.8M19.125 3.405v-.44M19.125 5.945v-.44M19.125 8.485v-.44M19.125 11.025v-.44M19.125 13.565v-.44M19.125 15.665v.44M19.125 18.645v-.44M19.125 21.185v-.44M2.025.225a1.1 1.1 0 0 0-1 .64M1.025 23.285a1.1 1.1 0 0 0 1 .64M19.025.865a1.1 1.1 0 0 0-1-.64M18.025 23.925a1.1 1.1 0 0 0 1-.64"/>
        <path stroke="none" d="m19.825 2.475-.018.092-.052.078-.078.052-.092.018h-1.92l-.092-.018-.078-.052-.052-.078-.018-.092v-1.12l.018-.092.052-.078.078-.052.092-.018h1.92l.092.018.078.052.052.078.018.092ZM17.425 3.895l.018-.092.052-.078.078-.052.092-.018h1.92l.092.018.078.052.052.078.018.092v1.12l-.018.092-.052.078-.078.052-.092.018h-1.92l-.092-.018-.078-.052-.052-.078-.018-.092ZM17.425 6.435l.018-.092.052-.078.078-.052.092-.018h1.92l.092.018.078.052.052.078.018.092v1.12l-.018.092-.052.078-.078.052-.092.018h-1.92l-.092-.018-.078-.052-.052-.078-.018-.092ZM17.425 8.975l.018-.092.052-.078.078-.052.092-.018h1.92l.092.018.078.052.052.078.018.092v1.12l-.018.092-.052.078-.078.052-.092.018h-1.92l-.092-.018-.078-.052-.052-.078-.018-.092ZM17.425 11.515l.018-.092.052-.078.078-.052.092-.018h1.92l.092.018.078.052.052.078.018.092v1.12l-.018.092-.052.078-.078.052-.092.018h-1.92l-.092-.018-.078-.052-.052-.078-.018-.092ZM17.425 14.055l.018-.092.052-.078.078-.052.092-.018h1.92l.092.018.078.052.052.078.018.092v1.12l-.018.092-.052.078-.078.052-.092.018h-1.92l-.092-.018-.078-.052-.052-.078-.018-.092ZM17.425 16.595l.018-.092.052-.078.078-.052.092-.018h1.92l.092.018.078.052.052.078.018.092v1.12l-.018.092-.052.078-.078.052-.092.018h-1.92l-.092-.018-.078-.052-.052-.078-.018-.092ZM17.425 19.135l.018-.092.052-.078.078-.052.092-.018h1.92l.092.018.078.052.052.078.018.092v1.12l-.018.092-.052.078-.078.052-.092.018h-1.92l-.092-.018-.078-.052-.052-.078-.018-.092ZM17.425 21.675l.018-.092.052-.078.078-.052.092-.018h1.92l.092.018.078.052.052.078.018.092v1.12l-.018.092-.052.078-.078.052-.092.018h-1.92l-.092-.018-.078-.052-.052-.078-.018-.092ZM14.545 24.415l-.092-.018-.078-.052-.052-.078-.018-.092v-1.92l.018-.092.052-.078.078-.052.092-.018h1.12l.092.018.078.052.052.078.018.092v1.92l-.018.092-.052.078-.078.052-.092.018ZM12.005 24.415l-.092-.018-.078-.052-.052-.078-.018-.092v-1.92l.018-.092.052-.078.078-.052.092-.018h1.12l.092.018.078.052.052.078.018.092v1.92l-.018.092-.052.078-.078.052-.092.018ZM9.465 24.415l-.092-.018-.078-.052-.052-.078-.018-.092v-1.92l.018-.092.052-.078.078-.052.092-.018h1.12l.092.018.078.052.052.078.018.092v1.92l-.018.092-.052.078-.078.052-.092.018ZM6.925 24.415l-.092-.018-.078-.052-.052-.078-.018-.092v-1.92l.018-.092.052-.078.078-.052.092-.018h1.12l.092.018.078.052.052.078.018.092v1.92l-.018.092-.052.078-.078.052-.092.018ZM4.385 24.415l-.092-.018-.078-.052-.052-.078-.018-.092v-1.92l.018-.092.052-.078.078-.052.092-.018h1.12l.092.018.078.052.052.078.018.092v1.92l-.018.092-.052.078-.078.052-.092.018ZM.225 21.675l.018-.092.052-.078.078-.052.092-.018h1.92l.092.018.078.052.052.078.018.092v1.12l-.018.092-.052.078-.078.052-.092.018H.465l-.092-.018-.078-.052-.052-.078-.018-.092ZM.225 19.135l.018-.092.052-.078.078-.052.092-.018h1.92l.092.018.078.052.052.078.018.092v1.12l-.018.092-.052.078-.078.052-.092.018H.465l-.092-.018-.078-.052-.052-.078-.018-.092ZM.225 16.595l.018-.092.052-.078.078-.052.092-.018h1.92l.092.018.078.052.052.078.018.092v1.12l-.018.092-.052.078-.078.052-.092.018H.465l-.092-.018-.078-.052-.052-.078-.018-.092ZM.225 14.055l.018-.092.052-.078.078-.052.092-.018h1.92l.092.018.078.052.052.078.018.092v1.12l-.018.092-.052.078-.078.052-.092.018H.465l-.092-.018-.078-.052-.052-.078-.018-.092ZM.225 11.515l.018-.092.052-.078.078-.052.092-.018h1.92l.092.018.078.052.052.078.018.092v1.12l-.018.092-.052.078-.078.052-.092.018H.465l-.092-.018-.078-.052-.052-.078-.018-.092ZM.225 8.975l.018-.092.052-.078.078-.052.092-.018h1.92l.092.018.078.052.052.078.018.092v1.12l-.018.092-.052.078-.078.052-.092.018H.465l-.092-.018-.078-.052-.052-.078-.018-.092ZM.225 6.435l.018-.092.052-.078.078-.052.092-.018h1.92l.092.018.078.052.052.078.018.092v1.12l-.018.092-.052.078-.078.052-.092.018H.465l-.092-.018-.078-.052-.052-.078-.018-.092ZM.225 3.895l.018-.092.052-.078.078-.052.092-.018h1.92l.092.018.078.052.052.078.018.092v1.12l-.018.092-.052.078-.078.052-.092.018H.465l-.092-.018-.078-.052-.052-.078-.018-.092ZM.225 1.355l.018-.092.052-.078.078-.052.092-.018h1.92l.092.018.078.052.052.078.018.092v1.12l-.018.092-.052.078-.078.052-.092.018H.465l-.092-.018-.078-.052-.052-.078-.018-.092Z" style="fill:#b4a09a;fill-opacity:.9;stroke:none;fill-rule:evenodd"/>
        <path stroke="none" d="m19.825 2.475-.018.092-.052.078-.078.052-.092.018h-1.92l-.092-.018-.078-.052-.052-.078-.018-.092v-1.12l.018-.092.052-.078.078-.052.092-.018h1.92l.092.018.078.052.052.078.018.092ZM17.425 3.895l.018-.092.052-.078.078-.052.092-.018h1.92l.092.018.078.052.052.078.018.092v1.12l-.018.092-.052.078-.078.052-.092.018h-1.92l-.092-.018-.078-.052-.052-.078-.018-.092ZM17.425 6.435l.018-.092.052-.078.078-.052.092-.018h1.92l.092.018.078.052.052.078.018.092v1.12l-.018.092-.052.078-.078.052-.092.018h-1.92l-.092-.018-.078-.052-.052-.078-.018-.092ZM17.425 8.975l.018-.092.052-.078.078-.052.092-.018h1.92l.092.018.078.052.052.078.018.092v1.12l-.018.092-.052.078-.078.052-.092.018h-1.92l-.092-.018-.078-.052-.052-.078-.018-.092ZM17.425 11.515l.018-.092.052-.078.078-.052.092-.018h1.92l.092.018.078.052.052.078.018.092v1.12l-.018.092-.052.078-.078.052-.092.018h-1.92l-.092-.018-.078-.052-.052-.078-.018-.092ZM17.425 14.055l.018-.092.052-.078.078-.052.092-.018h1.92l.092.018.078.052.052.078.018.092v1.12l-.018.092-.052.078-.078.052-.092.018h-1.92l-.092-.018-.078-.052-.052-.078-.018-.092ZM17.425 16.595l.018-.092.052-.078.078-.052.092-.018h1.92l.092.018.078.052.052.078.018.092v1.12l-.018.092-.052.078-.078.052-.092.018h-1.92l-.092-.018-.078-.052-.052-.078-.018-.092ZM17.425 19.135l.018-.092.052-.078.078-.052.092-.018h1.92l.092.018.078.052.052.078.018.092v1.12l-.018.092-.052.078-.078.052-.092.018h-1.92l-.092-.018-.078-.052-.052-.078-.018-.092ZM17.425 21.675l.018-.092.052-.078.078-.052.092-.018h1.92l.092.018.078.052.052.078.018.092v1.12l-.018.092-.052.078-.078.052-.092.018h-1.92l-.092-.018-.078-.052-.052-.078-.018-.092ZM14.545 24.415l-.092-.018-.078-.052-.052-.078-.018-.092v-1.92l.018-.092.052-.078.078-.052.092-.018h1.12l.092.018.078.052.052.078.018.092v1.92l-.018.092-.052.078-.078.052-.092.018ZM12.005 24.415l-.092-.018-.078-.052-.052-.078-.018-.092v-1.92l.018-.092.052-.078.078-.052.092-.018h1.12l.092.018.078.052.052.078.018.092v1.92l-.018.092-.052.078-.078.052-.092.018ZM9.465 24.415l-.092-.018-.078-.052-.052-.078-.018-.092v-1.92l.018-.092.052-.078.078-.052.092-.018h1.12l.092.018.078.052.052.078.018.092v1.92l-.018.092-.052.078-.078.052-.092.018ZM6.925 24.415l-.092-.018-.078-.052-.052-.078-.018-.092v-1.92l.018-.092.052-.078.078-.052.092-.018h1.12l.092.018.078.052.052.078.018.092v1.92l-.018.092-.052.078-.078.052-.092.018ZM4.385 24.415l-.092-.018-.078-.052-.052-.078-.018-.092v-1.92l.018-.092.052-.078.078-.052.092-.018h1.12l.092.018.078.052.052.078.018.092v1.92l-.018.092-.052.078-.078.052-.092.018ZM.225 21.675l.018-.092.052-.078.078-.052.092-.018h1.92l.092.018.078.052.052.078.018.092v1.12l-.018.092-.052.078-.078.052-.092.018H.465l-.092-.018-.078-.052-.052-.078-.018-.092ZM.225 19.135l.018-.092.052-.078.078-.052.092-.018h1.92l.092.018.078.052.052.078.018.092v1.12l-.018.092-.052.078-.078.052-.092.018H.465l-.092-.018-.078-.052-.052-.078-.018-.092ZM.225 16.595l.018-.092.052-.078.078-.052.092-.018h1.92l.092.018.078.052.052.078.018.092v1.12l-.018.092-.052.078-.078.052-.092.018H.465l-.092-.018-.078-.052-.052-.078-.018-.092ZM.225 14.055l.018-.092.052-.078.078-.052.092-.018h1.92l.092.018.078.052.052.078.018.092v1.12l-.018.092-.052.078-.078.052-.092.018H.465l-.092-.018-.078-.052-.052-.078-.018-.092ZM.225 11.515l.018-.092.052-.078.078-.052.092-.018h1.92l.092.018.078.052.052.078.018.092v1.12l-.018.092-.052.078-.078.052-.092.018H.465l-.092-.018-.078-.052-.052-.078-.018-.092ZM.225 8.975l.018-.092.052-.078.078-.052.092-.018h1.92l.092.018.078.052.052.078.018.092v1.12l-.018.092-.052.078-.078.052-.092.018H.465l-.092-.018-.078-.052-.052-.078-.018-.092ZM.225 6.435l.018-.092.052-.078.078-.052.092-.018h1.92l.092.018.078.052.052.078.018.092v1.12l-.018.092-.052.078-.078.052-.092.018H.465l-.092-.018-.078-.052-.052-.078-.018-.092ZM.225 3.895l.018-.092.052-.078.078-.052.092-.018h1.92l.092.018.078.052.052.078.018.092v1.12l-.018.092-.052.078-.078.052-.092.018H.465l-.092-.018-.078-.052-.052-.078-.018-.092ZM.225 1.355l.018-.092.052-.078.078-.052.092-.018h1.92l.092.018.078.052.052.078.018.092v1.12l-.018.092-.052.078-.078.052-.092.018H.465l-.092-.018-.078-.052-.052-.078-.018-.092Z" style="fill:#c83434;fill-opacity:1;stroke:none;fill-rule:evenodd"/>
    </g>
    <g style="fill:none;stroke:#afafaf;stroke-width:.15;stroke-opacity:1;stroke-linecap:round;stroke-linejoin:round">
        <g class="stroked-text">
            <path d="M1.382 26.17v-1M1.382 25.17l.334.714M1.716 25.884l.333-.714M2.049 25.17v1M3.096 26.075l-.047.047M3.049 26.122l-.143.048M2.906 26.17h-.095M2.81 26.17l-.142-.048M2.668 26.122l-.095-.095M2.573 26.027l-.048-.095M2.525 25.932l-.048-.19M2.477 25.741v-.143M2.477 25.598l.048-.19M2.525 25.408l.048-.095M2.573 25.313l.095-.096M2.668 25.217l.143-.047M2.81 25.17h.096M2.906 25.17l.143.047M3.049 25.217l.047.048M3.525 25.17v.81M3.525 25.98l.048.095M3.573 26.075l.047.047M3.62 26.122l.095.048M3.716 26.17h.19M3.906 26.17l.095-.048M4.001 26.122l.048-.047M4.049 26.075l.047-.096M4.096 25.98v-.81M4.335 26.265h.761M5.906 26.17l-.333-.476M5.335 26.17v-1M5.335 25.17h.38M5.716 25.17l.095.047M5.81 25.217l.048.048M5.858 25.265l.048.095M5.906 25.36v.143M5.906 25.503l-.048.095M5.858 25.598l-.047.048M5.81 25.646l-.095.048M5.716 25.694h-.381M6.335 26.17v-1M6.335 25.17h.38M6.716 25.17l.095.047M6.81 25.217l.048.048M6.858 25.265l.048.095M6.906 25.36v.143M6.906 25.503l-.048.095M6.858 25.598l-.047.048M6.81 25.646l-.095.048M6.716 25.694h-.381M7.287 25.265l.048-.048M7.335 25.217l.095-.047M7.43 25.17h.238M7.668 25.17l.095.047M7.763 25.217l.048.048M7.81 25.265l.048.095M7.858 25.36v.096M7.858 25.456l-.047.142M7.81 25.598l-.57.572M7.24 26.17h.618M8.477 25.17h.096M8.573 25.17l.095.047M8.668 25.217l.048.048M8.716 25.265l.047.095M8.763 25.36l.048.19M8.81 25.55v.239M8.81 25.789l-.047.19M8.763 25.98l-.047.095M8.716 26.075l-.048.047M8.668 26.122l-.095.048M8.573 26.17h-.096M8.477 26.17l-.095-.048M8.382 26.122l-.047-.047M8.335 26.075l-.048-.096M8.287 25.98l-.048-.191M8.24 25.789v-.238M8.24 25.55l.047-.19M8.287 25.36l.047-.095M8.335 25.265l.047-.048M8.382 25.217l.095-.047M9.668 25.503v.667M9.43 25.122l-.238.715M9.192 25.837h.619M10.382 25.17h.095M10.477 25.17l.096.047M10.573 25.217l.047.048M10.62 25.265l.048.095M10.668 25.36l.048.19M10.716 25.55v.239M10.716 25.789l-.048.19M10.668 25.98l-.048.095M10.62 26.075l-.047.047M10.573 26.122l-.096.048M10.477 26.17h-.095M10.382 26.17l-.095-.048M10.287 26.122l-.048-.047M10.24 26.075l-.048-.096M10.192 25.98l-.048-.191M10.144 25.789v-.238M10.144 25.55l.048-.19M10.192 25.36l.047-.095M10.24 25.265l.047-.048M10.287 25.217l.095-.047M11.144 25.789h.762M12.24 25.17h.57M12.525 26.17v-1M13.144 26.17v-.667M13.144 25.17l-.048.047M13.096 25.217l.048.048M13.144 25.265l.048-.048M13.192 25.217l-.048-.047M13.144 25.17v.095M13.62 25.503v.667M13.62 25.598l.048-.047M13.668 25.55l.095-.047M13.763 25.503h.143M13.906 25.503l.095.048M14.001 25.55l.048.096M14.049 25.646v.524M14.43 25.503l.238.667M14.906 25.503l-.238.667M14.668 26.17l-.095.238M14.573 26.408l-.048.047M14.525 26.456l-.095.047M15.049 26.265h.762M16.001 26.122l.143.048M16.144 26.17h.238M16.382 26.17l.095-.048M16.477 26.122l.048-.047M16.525 26.075l.048-.096M16.573 25.98v-.096M16.573 25.884l-.048-.095M16.525 25.789l-.048-.048M16.477 25.741l-.095-.047M16.382 25.694l-.19-.048M16.192 25.646l-.096-.048M16.096 25.598l-.047-.047M16.049 25.55 16 25.456M16.001 25.456v-.096M16.001 25.36l.048-.095M16.049 25.265l.047-.048M16.096 25.217l.096-.047M16.192 25.17h.238M16.43 25.17l.143.047M17.001 26.17v-1M17.001 25.17l.333.714M17.335 25.884l.333-.714M17.668 25.17v1M18.144 26.17v-1M18.144 25.17h.238M18.382 25.17l.143.047M18.525 25.217l.095.096M18.62 25.313l.048.095M18.668 25.408l.047.19M18.716 25.598v.143M18.716 25.741l-.048.19M18.668 25.932l-.048.095M18.62 26.027l-.095.095M18.525 26.122l-.143.048M18.382 26.17h-.238"/>
        </g>
        <g class="stroked-text">
            <path d="m8.692 11.26-.334-.476M8.12 11.26v-1M8.12 10.26h.381M8.501 10.26l.095.047M8.596 10.307l.048.048M8.644 10.355l.048.095M8.692 10.45v.143M8.692 10.593l-.048.095M8.644 10.688l-.048.048M8.596 10.736l-.095.048M8.501 10.784h-.38M9.12 10.736h.334M9.596 11.26H9.12M9.12 11.26v-1M9.12 10.26h.476M10.358 10.736h-.333M10.025 11.26v-1M10.025 10.26h.476M11.025 10.26v.238M10.787 10.403l.238.095M11.025 10.498l.238-.095M10.882 10.688l.143-.19M11.025 10.498l.143.19M11.787 10.26v.238M11.549 10.403l.238.095M11.787 10.498l.238-.095M11.644 10.688l.143-.19M11.787 10.498l.143.19"/>
        </g>
    </g>
    <g style="fill:none;stroke:#afafaf;stroke-width:.1;stroke-opacity:1;stroke-linecap:round;stroke-linejoin:round">
        <path d="M1.025 22.825v-21.5M2.025.325h16M18.025 23.825h-16M19.025 1.325v21.5M2.025.325a1 1 0 0 0-1 1M1.025 22.825a1 1 0 0 0 1 1M19.025 1.325a1 1 0 0 0-1-1M18.025 23.825a1 1 0 0 0 1-1"/>
    </g>
    <g style="fill:none;stroke:#afafaf;stroke-width:.0667;stroke-opacity:1;stroke-linecap:round;stroke-linejoin:round">
        <g class="stroked-text">
            <path d="M18.854 2.282h-.458M18.625 2.282v-.8M18.625 1.482l-.076.114M18.549 1.596l-.076.076M18.473 1.672l-.077.038"/>
        </g>
        <path d="m19.825 2.475-.018.092-.052.078-.078.052-.092.018h-1.92l-.092-.018-.078-.052-.052-.078-.018-.092v-1.12l.018-.092.052-.078.078-.052.092-.018h1.92l.092.018.078.052.052.078.018.092Z" style="stroke:#afafaf;stroke-width:.0212;stroke-opacity:1;stroke-linecap:round;stroke-linejoin:round;fill:none"/>
    </g>
    <g style="fill:none;stroke:#afafaf;stroke-width:.0667;stroke-opacity:1;stroke-linecap:round;stroke-linejoin:round">
        <g class="stroked-text">
            <path d="m18.396 4.098.038-.038M18.435 4.06l.076-.038M18.51 4.022h.191M18.701 4.022l.076.038M18.777 4.06l.038.038M18.816 4.098l.038.076M18.854 4.174v.076M18.854 4.25l-.038.114M18.816 4.365l-.458.457M18.358 4.822h.496"/>
        </g>
        <path d="m17.425 3.895.018-.092.052-.078.078-.052.092-.018h1.92l.092.018.078.052.052.078.018.092v1.12l-.018.092-.052.078-.078.052-.092.018h-1.92l-.092-.018-.078-.052-.052-.078-.018-.092Z" style="stroke:#afafaf;stroke-width:.0212;stroke-opacity:1;stroke-linecap:round;stroke-linejoin:round;fill:none"/>
    </g>
    <g style="fill:none;stroke:#afafaf;stroke-width:.0667;stroke-opacity:1;stroke-linecap:round;stroke-linejoin:round">
        <g class="stroked-text">
            <path d="M18.358 6.562h.496M18.854 6.562l-.267.304M18.587 6.866h.114M18.701 6.866l.076.038M18.777 6.905l.038.038M18.816 6.943l.038.076M18.854 7.019v.19M18.854 7.21l-.038.075M18.816 7.285l-.039.038M18.777 7.324l-.076.038M18.701 7.362h-.228M18.473 7.362l-.077-.038M18.396 7.324l-.038-.039"/>
        </g>
        <path d="m17.425 6.435.018-.092.052-.078.078-.052.092-.018h1.92l.092.018.078.052.052.078.018.092v1.12l-.018.092-.052.078-.078.052-.092.018h-1.92l-.092-.018-.078-.052-.052-.078-.018-.092Z" style="stroke:#afafaf;stroke-width:.0212;stroke-opacity:1;stroke-linecap:round;stroke-linejoin:round;fill:none"/>
    </g>
    <g style="fill:none;stroke:#afafaf;stroke-width:.0667;stroke-opacity:1;stroke-linecap:round;stroke-linejoin:round">
        <g class="stroked-text">
            <path d="M18.777 9.368v.534M18.587 9.064l-.19.571M18.396 9.635h.496"/>
        </g>
        <path d="m17.425 8.975.018-.092.052-.078.078-.052.092-.018h1.92l.092.018.078.052.052.078.018.092v1.12l-.018.092-.052.078-.078.052-.092.018h-1.92l-.092-.018-.078-.052-.052-.078-.018-.092Z" style="stroke:#afafaf;stroke-width:.0212;stroke-opacity:1;stroke-linecap:round;stroke-linejoin:round;fill:none"/>
    </g>
    <g style="fill:none;stroke:#afafaf;stroke-width:.0667;stroke-opacity:1;stroke-linecap:round;stroke-linejoin:round">
        <g class="stroked-text">
            <path d="M18.816 11.642h-.381M18.435 11.642l-.039.38M18.396 12.023l.038-.038M18.435 11.985l.076-.039M18.51 11.946h.191M18.701 11.946l.076.039M18.777 11.985l.038.038M18.816 12.023l.038.076M18.854 12.099v.19M18.854 12.29l-.038.075M18.816 12.365l-.039.038M18.777 12.404l-.076.038M18.701 12.442h-.19M18.51 12.442l-.076-.039M18.435 12.404l-.039-.039"/>
        </g>
        <path d="m17.425 11.515.018-.092.052-.078.078-.052.092-.018h1.92l.092.018.078.052.052.078.018.092v1.12l-.018.092-.052.078-.078.052-.092.018h-1.92l-.092-.018-.078-.052-.052-.078-.018-.092Z" style="stroke:#afafaf;stroke-width:.0212;stroke-opacity:1;stroke-linecap:round;stroke-linejoin:round;fill:none"/>
    </g>
    <g style="fill:none;stroke:#afafaf;stroke-width:.0667;stroke-opacity:1;stroke-linecap:round;stroke-linejoin:round">
        <g class="stroked-text">
            <path d="M18.777 14.182h-.152M18.625 14.182l-.076.038M18.549 14.22l-.038.038M18.51 14.258l-.076.114M18.435 14.372l-.039.152M18.396 14.525v.304M18.396 14.83l.038.075M18.435 14.905l.038.039M18.473 14.944l.076.038M18.549 14.982h.152M18.701 14.982l.076-.038M18.777 14.944l.038-.039M18.816 14.905l.038-.076M18.854 14.83v-.191M18.854 14.639l-.038-.076M18.816 14.563l-.039-.039M18.777 14.525l-.076-.039M18.701 14.486h-.152M18.549 14.486l-.076.038M18.473 14.525l-.038.038M18.435 14.563l-.039.076"/>
        </g>
        <path d="m17.425 14.055.018-.092.052-.078.078-.052.092-.018h1.92l.092.018.078.052.052.078.018.092v1.12l-.018.092-.052.078-.078.052-.092.018h-1.92l-.092-.018-.078-.052-.052-.078-.018-.092Z" style="stroke:#afafaf;stroke-width:.0212;stroke-opacity:1;stroke-linecap:round;stroke-linejoin:round;fill:none"/>
    </g>
    <g style="fill:none;stroke:#afafaf;stroke-width:.0667;stroke-opacity:1;stroke-linecap:round;stroke-linejoin:round">
        <g class="stroked-text">
            <path d="M18.358 16.722h.534M18.892 16.722l-.343.8"/>
        </g>
        <path d="m17.425 16.595.018-.092.052-.078.078-.052.092-.018h1.92l.092.018.078.052.052.078.018.092v1.12l-.018.092-.052.078-.078.052-.092.018h-1.92l-.092-.018-.078-.052-.052-.078-.018-.092Z" style="stroke:#afafaf;stroke-width:.0212;stroke-opacity:1;stroke-linecap:round;stroke-linejoin:round;fill:none"/>
    </g>
    <g style="fill:none;stroke:#afafaf;stroke-width:.0667;stroke-opacity:1;stroke-linecap:round;stroke-linejoin:round">
        <g class="stroked-text">
            <path d="m18.549 19.605-.076-.039M18.473 19.566l-.038-.038M18.435 19.528l-.039-.076M18.396 19.452v-.038M18.396 19.414l.038-.076M18.435 19.338l.038-.038M18.473 19.3l.076-.038M18.549 19.262h.152M18.701 19.262l.076.038M18.777 19.3l.038.038M18.816 19.338l.038.076M18.854 19.414v.038M18.854 19.452l-.038.076M18.816 19.528l-.039.038M18.777 19.566l-.076.039M18.701 19.605h-.152M18.549 19.605l-.076.038M18.473 19.643l-.038.038M18.435 19.68l-.039.077M18.396 19.757v.152M18.396 19.91l.038.075M18.435 19.985l.038.038M18.473 20.024l.076.038M18.549 20.062h.152M18.701 20.062l.076-.039M18.777 20.024l.038-.039M18.816 19.985l.038-.076M18.854 19.91v-.153M18.854 19.757l-.038-.076M18.816 19.68l-.039-.037M18.777 19.643l-.076-.038"/>
        </g>
        <path d="m17.425 19.135.018-.092.052-.078.078-.052.092-.018h1.92l.092.018.078.052.052.078.018.092v1.12l-.018.092-.052.078-.078.052-.092.018h-1.92l-.092-.018-.078-.052-.052-.078-.018-.092Z" style="stroke:#afafaf;stroke-width:.0212;stroke-opacity:1;stroke-linecap:round;stroke-linejoin:round;fill:none"/>
    </g>
    <g style="fill:none;stroke:#afafaf;stroke-width:.0667;stroke-opacity:1;stroke-linecap:round;stroke-linejoin:round">
        <g class="stroked-text">
            <path d="M18.473 22.602h.152M18.625 22.602l.076-.038M18.701 22.564l.038-.039M18.74 22.525l.076-.114M18.816 22.411l.038-.152M18.854 22.259v-.305M18.854 21.954l-.038-.076M18.816 21.878l-.039-.038M18.777 21.84l-.076-.038M18.701 21.802h-.152M18.549 21.802l-.076.038M18.473 21.84l-.038.038M18.435 21.878l-.039.076M18.396 21.954v.19M18.396 22.145l.038.076M18.435 22.22l.038.039M18.473 22.259l.076.038M18.549 22.297h.152M18.701 22.297l.076-.038M18.777 22.259l.038-.038M18.816 22.22l.038-.075"/>
        </g>
        <path d="m17.425 21.675.018-.092.052-.078.078-.052.092-.018h1.92l.092.018.078.052.052.078.018.092v1.12l-.018.092-.052.078-.078.052-.092.018h-1.92l-.092-.018-.078-.052-.052-.078-.018-.092Z" style="stroke:#afafaf;stroke-width:.0212;stroke-opacity:1;stroke-linecap:round;stroke-linejoin:round;fill:none"/>
    </g>
    <g style="fill:none;stroke:#afafaf;stroke-width:.0667;stroke-opacity:1;stroke-linecap:round;stroke-linejoin:round">
        <g class="stroked-text">
            <path d="M15.472 23.367v.457M15.472 23.596h-.8M14.672 23.596l.114.076M14.786 23.672l.076.076M14.862 23.748l.038.076M14.672 22.872v-.076M14.672 22.796l.038-.076M14.71 22.72l.038-.038M14.748 22.682l.076-.038M14.824 22.644l.152-.038M14.976 22.606h.19M15.167 22.606l.152.038M15.32 22.644l.075.038M15.395 22.682l.039.038M15.434 22.72l.038.076M15.472 22.796v.076M15.472 22.872l-.038.076M15.434 22.948l-.039.038M15.395 22.986l-.076.038M15.32 23.025l-.153.038M15.167 23.063h-.19M14.976 23.063l-.152-.038M14.824 23.025l-.076-.039M14.748 22.986l-.038-.038M14.71 22.948l-.038-.076"/>
        </g>
        <path d="m14.545 24.415-.092-.018-.078-.052-.052-.078-.018-.092v-1.92l.018-.092.052-.078.078-.052.092-.018h1.12l.092.018.078.052.052.078.018.092v1.92l-.018.092-.052.078-.078.052-.092.018Z" style="stroke:#afafaf;stroke-width:.0212;stroke-opacity:1;stroke-linecap:round;stroke-linejoin:round;fill:none"/>
    </g>
    <g style="fill:none;stroke:#afafaf;stroke-width:.0667;stroke-opacity:1;stroke-linecap:round;stroke-linejoin:round">
        <g class="stroked-text">
            <path d="M12.932 23.367v.457M12.932 23.596h-.8M12.132 23.596l.114.076M12.246 23.672l.076.076M12.322 23.748l.038.076M12.932 22.606v.457M12.932 22.834h-.8M12.132 22.834l.114.076M12.246 22.91l.076.076M12.322 22.986l.038.077"/>
        </g>
        <path d="m12.005 24.415-.092-.018-.078-.052-.052-.078-.018-.092v-1.92l.018-.092.052-.078.078-.052.092-.018h1.12l.092.018.078.052.052.078.018.092v1.92l-.018.092-.052.078-.078.052-.092.018Z" style="stroke:#afafaf;stroke-width:.0212;stroke-opacity:1;stroke-linecap:round;stroke-linejoin:round;fill:none"/>
    </g>
    <g style="fill:none;stroke:#afafaf;stroke-width:.0667;stroke-opacity:1;stroke-linecap:round;stroke-linejoin:round">
        <g class="stroked-text">
            <path d="M10.392 23.367v.457M10.392 23.596h-.8M9.592 23.596l.114.076M9.706 23.672l.076.076M9.782 23.748l.038.076M9.668 23.063l-.038-.038M9.63 23.025l-.038-.077M9.592 22.948v-.19M9.592 22.758l.038-.076M9.63 22.682l.038-.038M9.668 22.644l.076-.038M9.744 22.606h.076M9.82 22.606l.114.038M9.935 22.644l.457.457M10.392 23.1v-.495"/>
        </g>
        <path d="m9.465 24.415-.092-.018-.078-.052-.052-.078-.018-.092v-1.92l.018-.092.052-.078.078-.052.092-.018h1.12l.092.018.078.052.052.078.018.092v1.92l-.018.092-.052.078-.078.052-.092.018Z" style="stroke:#afafaf;stroke-width:.0212;stroke-opacity:1;stroke-linecap:round;stroke-linejoin:round;fill:none"/>
    </g>
    <g style="fill:none;stroke:#afafaf;stroke-width:.0667;stroke-opacity:1;stroke-linecap:round;stroke-linejoin:round">
        <g class="stroked-text">
            <path d="M7.852 23.367v.457M7.852 23.596h-.8M7.052 23.596l.114.076M7.166 23.672l.076.076M7.242 23.748l.038.076M7.052 23.1v-.495M7.052 22.606l.304.266M7.356 22.872v-.114M7.356 22.758l.038-.076M7.395 22.682l.038-.038M7.433 22.644l.076-.038M7.509 22.606h.19M7.7 22.606l.075.038M7.775 22.644l.038.038M7.814 22.682l.038.076M7.852 22.758v.228M7.852 22.986l-.038.077M7.814 23.063l-.039.038"/>
        </g>
        <path d="m6.925 24.415-.092-.018-.078-.052-.052-.078-.018-.092v-1.92l.018-.092.052-.078.078-.052.092-.018h1.12l.092.018.078.052.052.078.018.092v1.92l-.018.092-.052.078-.078.052-.092.018Z" style="stroke:#afafaf;stroke-width:.0212;stroke-opacity:1;stroke-linecap:round;stroke-linejoin:round;fill:none"/>
    </g>
    <g style="fill:none;stroke:#afafaf;stroke-width:.0667;stroke-opacity:1;stroke-linecap:round;stroke-linejoin:round">
        <g class="stroked-text">
            <path d="M5.312 23.367v.457M5.312 23.596h-.8M4.512 23.596l.114.076M4.626 23.672l.076.076M4.702 23.748l.038.076M4.778 22.682h.534M4.474 22.872l.571.19M5.045 23.063v-.496"/>
        </g>
        <path d="m4.385 24.415-.092-.018-.078-.052-.052-.078-.018-.092v-1.92l.018-.092.052-.078.078-.052.092-.018h1.12l.092.018.078.052.052.078.018.092v1.92l-.018.092-.052.078-.078.052-.092.018Z" style="stroke:#afafaf;stroke-width:.0212;stroke-opacity:1;stroke-linecap:round;stroke-linejoin:round;fill:none"/>
    </g>
    <g style="fill:none;stroke:#afafaf;stroke-width:.0667;stroke-opacity:1;stroke-linecap:round;stroke-linejoin:round">
        <g class="stroked-text">
            <path d="M1.273 22.602H.816M1.044 22.602v-.8M1.044 21.802l-.076.114M.968 21.916l-.076.076M.892 21.992l-.077.038M1.996 21.802h-.38M1.616 21.802l-.039.38M1.577 22.183l.038-.038M1.616 22.145l.076-.039M1.692 22.106h.19M1.882 22.106l.076.038M1.958 22.145l.038.038M1.996 22.183l.038.076M2.035 22.259v.19M2.035 22.45l-.039.075M1.996 22.525l-.038.039M1.958 22.564l-.076.038M1.882 22.602h-.19M1.692 22.602l-.077-.038M1.616 22.564l-.039-.039"/>
        </g>
        <path d="m.225 21.675.018-.092.052-.078.078-.052.092-.018h1.92l.092.018.078.052.052.078.018.092v1.12l-.018.092-.052.078-.078.052-.092.018H.465l-.092-.018-.078-.052-.052-.078-.018-.092Z" style="stroke:#afafaf;stroke-width:.0212;stroke-opacity:1;stroke-linecap:round;stroke-linejoin:round;fill:none"/>
    </g>
    <g style="fill:none;stroke:#afafaf;stroke-width:.0667;stroke-opacity:1;stroke-linecap:round;stroke-linejoin:round">
        <g class="stroked-text">
            <path d="M1.273 20.062H.816M1.044 20.062v-.8M1.044 19.262l-.076.114M.968 19.376l-.076.076M.892 19.452l-.077.038M1.958 19.262h-.152M1.806 19.262l-.076.038M1.73 19.3l-.038.038M1.692 19.338l-.077.114M1.616 19.452l-.039.152M1.577 19.605v.304M1.577 19.91l.038.075M1.616 19.985l.038.038M1.654 20.024l.076.038M1.73 20.062h.152M1.882 20.062l.076-.039M1.958 20.024l.038-.039M1.996 19.985l.038-.076M2.035 19.91v-.191M2.035 19.719l-.039-.076M1.996 19.643l-.038-.038M1.958 19.605l-.076-.039M1.882 19.566H1.73M1.73 19.566l-.076.039M1.654 19.605l-.038.038M1.616 19.643l-.039.076"/>
        </g>
        <path d="m.225 19.135.018-.092.052-.078.078-.052.092-.018h1.92l.092.018.078.052.052.078.018.092v1.12l-.018.092-.052.078-.078.052-.092.018H.465l-.092-.018-.078-.052-.052-.078-.018-.092Z" style="stroke:#afafaf;stroke-width:.0212;stroke-opacity:1;stroke-linecap:round;stroke-linejoin:round;fill:none"/>
    </g>
    <g style="fill:none;stroke:#afafaf;stroke-width:.0667;stroke-opacity:1;stroke-linecap:round;stroke-linejoin:round">
        <g class="stroked-text">
            <path d="M1.273 17.522H.816M1.044 17.522v-.8M1.044 16.722l-.076.114M.968 16.836l-.076.076M.892 16.912l-.077.038M1.54 16.722h.533M2.073 16.722l-.343.8"/>
        </g>
        <path d="m.225 16.595.018-.092.052-.078.078-.052.092-.018h1.92l.092.018.078.052.052.078.018.092v1.12l-.018.092-.052.078-.078.052-.092.018H.465l-.092-.018-.078-.052-.052-.078-.018-.092Z" style="stroke:#afafaf;stroke-width:.0212;stroke-opacity:1;stroke-linecap:round;stroke-linejoin:round;fill:none"/>
    </g>
    <g style="fill:none;stroke:#afafaf;stroke-width:.0667;stroke-opacity:1;stroke-linecap:round;stroke-linejoin:round">
        <g class="stroked-text">
            <path d="M1.273 14.982H.816M1.044 14.982v-.8M1.044 14.182l-.076.114M.968 14.296l-.076.076M.892 14.372l-.077.038M1.73 14.525l-.076-.039M1.654 14.486l-.038-.038M1.616 14.448l-.039-.076M1.577 14.372v-.038M1.577 14.334l.038-.076M1.616 14.258l.038-.038M1.654 14.22l.076-.038M1.73 14.182h.152M1.882 14.182l.076.038M1.958 14.22l.038.038M1.996 14.258l.038.076M2.035 14.334v.038M2.035 14.372l-.039.076M1.996 14.448l-.038.038M1.958 14.486l-.076.038M1.882 14.525H1.73M1.73 14.525l-.076.038M1.654 14.563l-.038.038M1.616 14.6l-.039.077M1.577 14.677v.152M1.577 14.83l.038.075M1.616 14.905l.038.039M1.654 14.944l.076.038M1.73 14.982h.152M1.882 14.982l.076-.038M1.958 14.944l.038-.039M1.996 14.905l.038-.076M2.035 14.83v-.153M2.035 14.677l-.039-.076M1.996 14.6l-.038-.037M1.958 14.563l-.076-.039"/>
        </g>
        <path d="m.225 14.055.018-.092.052-.078.078-.052.092-.018h1.92l.092.018.078.052.052.078.018.092v1.12l-.018.092-.052.078-.078.052-.092.018H.465l-.092-.018-.078-.052-.052-.078-.018-.092Z" style="stroke:#afafaf;stroke-width:.0212;stroke-opacity:1;stroke-linecap:round;stroke-linejoin:round;fill:none"/>
    </g>
    <g style="fill:none;stroke:#afafaf;stroke-width:.0667;stroke-opacity:1;stroke-linecap:round;stroke-linejoin:round">
        <g class="stroked-text">
            <path d="M1.273 12.442H.816M1.044 12.442v-.8M1.044 11.642l-.076.114M.968 11.756l-.076.076M.892 11.832l-.077.038M1.654 12.442h.152M1.806 12.442l.076-.039M1.882 12.404l.038-.039M1.92 12.365l.076-.114M1.996 12.251l.038-.152M2.035 12.099v-.305M2.035 11.794l-.039-.076M1.996 11.718l-.038-.038M1.958 11.68l-.076-.038M1.882 11.642H1.73M1.73 11.642l-.076.038M1.654 11.68l-.038.038M1.616 11.718l-.039.076M1.577 11.794v.19M1.577 11.985l.038.076M1.616 12.06l.038.039M1.654 12.099l.076.038M1.73 12.137h.152M1.882 12.137l.076-.038M1.958 12.099l.038-.038M1.996 12.06l.038-.075"/>
        </g>
        <path d="m.225 11.515.018-.092.052-.078.078-.052.092-.018h1.92l.092.018.078.052.052.078.018.092v1.12l-.018.092-.052.078-.078.052-.092.018H.465l-.092-.018-.078-.052-.052-.078-.018-.092Z" style="stroke:#afafaf;stroke-width:.0212;stroke-opacity:1;stroke-linecap:round;stroke-linejoin:round;fill:none"/>
    </g>
    <g style="fill:none;stroke:#afafaf;stroke-width:.0667;stroke-opacity:1;stroke-linecap:round;stroke-linejoin:round">
        <g class="stroked-text">
            <path d="m.816 9.178.038-.038M.854 9.14l.076-.038M.93 9.102h.19M1.12 9.102l.076.038M1.196 9.14l.038.038M1.235 9.178l.038.076M1.273 9.254v.076M1.273 9.33l-.038.114M1.235 9.445l-.458.457M.777 9.902h.496M1.768 9.102h.076M1.844 9.102l.076.038M1.92 9.14l.038.038M1.958 9.178l.038.076M1.996 9.254l.038.152M2.035 9.406v.19M2.035 9.597l-.039.152M1.996 9.75l-.038.075M1.958 9.825l-.038.039M1.92 9.864l-.076.038M1.844 9.902h-.076M1.768 9.902l-.076-.038M1.692 9.864l-.038-.039M1.654 9.825l-.038-.076M1.616 9.75l-.039-.153M1.577 9.597v-.19M1.577 9.406l.038-.152M1.616 9.254l.038-.076M1.654 9.178l.038-.038M1.692 9.14l.076-.038"/>
        </g>
        <path d="m.225 8.975.018-.092.052-.078.078-.052.092-.018h1.92l.092.018.078.052.052.078.018.092v1.12l-.018.092-.052.078-.078.052-.092.018H.465l-.092-.018-.078-.052-.052-.078-.018-.092Z" style="stroke:#afafaf;stroke-width:.0212;stroke-opacity:1;stroke-linecap:round;stroke-linejoin:round;fill:none"/>
    </g>
    <g style="fill:none;stroke:#afafaf;stroke-width:.0667;stroke-opacity:1;stroke-linecap:round;stroke-linejoin:round">
        <g class="stroked-text">
            <path d="M.816 6.638.854 6.6M.854 6.6l.076-.038M.93 6.562h.19M1.12 6.562l.076.038M1.196 6.6l.038.038M1.235 6.638l.038.076M1.273 6.714v.076M1.273 6.79l-.038.114M1.235 6.905l-.458.457M.777 7.362h.496M2.035 7.362h-.458M1.806 7.362v-.8M1.806 6.562l-.076.114M1.73 6.676l-.076.076M1.654 6.752l-.077.038"/>
        </g>
        <path d="m.225 6.435.018-.092.052-.078.078-.052.092-.018h1.92l.092.018.078.052.052.078.018.092v1.12l-.018.092-.052.078-.078.052-.092.018H.465l-.092-.018-.078-.052-.052-.078-.018-.092Z" style="stroke:#afafaf;stroke-width:.0212;stroke-opacity:1;stroke-linecap:round;stroke-linejoin:round;fill:none"/>
    </g>
    <g style="fill:none;stroke:#afafaf;stroke-width:.0667;stroke-opacity:1;stroke-linecap:round;stroke-linejoin:round">
        <g class="stroked-text">
            <path d="m.816 4.098.038-.038M.854 4.06l.076-.038M.93 4.022h.19M1.12 4.022l.076.038M1.196 4.06l.038.038M1.235 4.098l.038.076M1.273 4.174v.076M1.273 4.25l-.038.114M1.235 4.365l-.458.457M.777 4.822h.496M1.577 4.098l.038-.038M1.616 4.06l.076-.038M1.692 4.022h.19M1.882 4.022l.076.038M1.958 4.06l.038.038M1.996 4.098l.038.076M2.035 4.174v.076M2.035 4.25l-.039.114M1.996 4.365l-.457.457M1.54 4.822h.494"/>
        </g>
        <path d="m.225 3.895.018-.092.052-.078.078-.052.092-.018h1.92l.092.018.078.052.052.078.018.092v1.12l-.018.092-.052.078-.078.052-.092.018H.465l-.092-.018-.078-.052-.052-.078-.018-.092Z" style="stroke:#afafaf;stroke-width:.0212;stroke-opacity:1;stroke-linecap:round;stroke-linejoin:round;fill:none"/>
    </g>
    <g style="fill:none;stroke:#afafaf;stroke-width:.0667;stroke-opacity:1;stroke-linecap:round;stroke-linejoin:round">
        <g class="stroked-text">
            <path d="m.816 1.558.038-.038M.854 1.52l.076-.038M.93 1.482h.19M1.12 1.482l.076.038M1.196 1.52l.038.038M1.235 1.558l.038.076M1.273 1.634v.076M1.273 1.71l-.038.115M1.235 1.825l-.458.457M.777 2.282h.496M1.54 1.482h.494M2.035 1.482l-.267.304M1.768 1.786h.114M1.882 1.786l.076.038M1.958 1.825l.038.038M1.996 1.863l.038.076M2.035 1.939v.19M2.035 2.13l-.039.075M1.996 2.205l-.038.038M1.958 2.244l-.076.038M1.882 2.282h-.228M1.654 2.282l-.077-.038M1.577 2.244l-.038-.039"/>
        </g>
        <path d="m.225 1.355.018-.092.052-.078.078-.052.092-.018h1.92l.092.018.078.052.052.078.018.092v1.12l-.018.092-.052.078-.078.052-.092.018H.465l-.092-.018-.078-.052-.052-.078-.018-.092Z" style="stroke:#afafaf;stroke-width:.0212;stroke-opacity:1;stroke-linecap:round;stroke-linejoin:round;fill:none"/>
    </g>
</svg>
