<?xml version="1.0" standalone="no"?>
 <!DOCTYPE svg PUBLIC "-//W3C//DTD SVG 1.1//EN" 
 "http://www.w3.org/Graphics/SVG/1.1/DTD/svg11.dtd"> 
<svg
  xmlns:svg="http://www.w3.org/2000/svg"
  xmlns="http://www.w3.org/2000/svg"
  xmlns:xlink="http://www.w3.org/1999/xlink"
  version="1.1"
  width="18.0848mm" height="36.2712mm" viewBox="0.0000 0.0000 18.0848 36.2712">
<title>SVG Image created as MCU_KB2040_Reverse.svg date 2025/05/12 22:52:35 </title>
  <desc>Image generated by PCBNEW </desc>
<g style="fill:#000000; fill-opacity:1.0000;stroke:#000000; stroke-opacity:1.0000;
stroke-linecap:round; stroke-linejoin:round;"
 transform="translate(0 0) scale(1 1)">
</g>
<g style="fill:none; 
stroke:#F2EDA1; stroke-width:0.1500; stroke-opacity:1; 
stroke-linecap:round; stroke-linejoin:round;">
<text x="9.0500" y="5.5400"
textLength="4.5357" font-size="1.3333" lengthAdjust="spacingAndGlyphs"
text-anchor="middle" opacity="0" stroke-opacity="0">REF**</text>
<g class="stroked-text"><desc>REF**</desc>
<path d="M7.7167 5.4948
L7.3833 5.0186
" />
<path d="M7.1452 5.4948
L7.1452 4.4948
" />
<path d="M7.1452 4.4948
L7.5262 4.4948
" />
<path d="M7.5262 4.4948
L7.6214 4.5424
" />
<path d="M7.6214 4.5424
L7.6690 4.5901
" />
<path d="M7.6690 4.5901
L7.7167 4.6853
" />
<path d="M7.7167 4.6853
L7.7167 4.8282
" />
<path d="M7.7167 4.8282
L7.6690 4.9234
" />
<path d="M7.6690 4.9234
L7.6214 4.9710
" />
<path d="M7.6214 4.9710
L7.5262 5.0186
" />
<path d="M7.5262 5.0186
L7.1452 5.0186
" />
<path d="M8.1452 4.9710
L8.4786 4.9710
" />
<path d="M8.6214 5.4948
L8.1452 5.4948
" />
<path d="M8.1452 5.4948
L8.1452 4.4948
" />
<path d="M8.1452 4.4948
L8.6214 4.4948
" />
<path d="M9.3833 4.9710
L9.0500 4.9710
" />
<path d="M9.0500 5.4948
L9.0500 4.4948
" />
<path d="M9.0500 4.4948
L9.5262 4.4948
" />
<path d="M10.0500 4.4948
L10.0500 4.7329
" />
<path d="M9.8119 4.6377
L10.0500 4.7329
" />
<path d="M10.0500 4.7329
L10.2881 4.6377
" />
<path d="M9.9071 4.9234
L10.0500 4.7329
" />
<path d="M10.0500 4.7329
L10.1929 4.9234
" />
<path d="M10.8119 4.4948
L10.8119 4.7329
" />
<path d="M10.5738 4.6377
L10.8119 4.7329
" />
<path d="M10.8119 4.7329
L11.0500 4.6377
" />
<path d="M10.6690 4.9234
L10.8119 4.7329
" />
<path d="M10.8119 4.7329
L10.9548 4.9234
" />
</g></g>
<g style="fill:none; 
stroke:#F2EDA1; stroke-width:0.1200; stroke-opacity:1; 
stroke-linecap:round; stroke-linejoin:round;">
<path d="M15.5560 3.3000
L15.5560 1.7000
" />
<path style="fill:none; 
stroke:#F2EDA1; stroke-width:0.1200; stroke-opacity:1; 
stroke-linecap:round; stroke-linejoin:round;fill:none"
d="M 0.0600,1.1300
18.0400,1.1300
18.0400,34.3500
0.0600,34.3500
Z" /> 
<path style="fill:#4D7FC4; fill-opacity:1.0000; stroke:none;fill-rule:evenodd;"
d="M 15.8200,1.9050
15.8394,1.8074
15.8947,1.7247
15.9774,1.6694
16.0750,1.6500
17.2650,1.6500
17.3626,1.6694
17.4453,1.7247
17.5006,1.8074
17.5200,1.9050
17.5200,3.0950
17.5006,3.1926
17.4453,3.2753
17.3626,3.3306
17.2650,3.3500
16.0750,3.3500
15.9774,3.3306
15.8947,3.2753
15.8394,3.1926
15.8200,3.0950
Z" /> 
</g>
<g style="fill:#4D7FC4; fill-opacity:1.0000; stroke:none;">
<circle cx="16.6700" cy="5.0400" r="0.8500" /> 
</g>
<g style="fill:#4D7FC4; fill-opacity:1.0000; stroke:none;">
<circle cx="16.6700" cy="7.5800" r="0.8500" /> 
</g>
<g style="fill:#4D7FC4; fill-opacity:1.0000; stroke:none;">
<circle cx="16.6700" cy="10.1200" r="0.8500" /> 
</g>
<g style="fill:#4D7FC4; fill-opacity:1.0000; stroke:none;">
<circle cx="16.6700" cy="12.6600" r="0.8500" /> 
</g>
<g style="fill:#4D7FC4; fill-opacity:1.0000; stroke:none;">
<circle cx="16.6700" cy="15.2000" r="0.8500" /> 
</g>
<g style="fill:#4D7FC4; fill-opacity:1.0000; stroke:none;">
<circle cx="16.6700" cy="17.7400" r="0.8500" /> 
</g>
<g style="fill:#4D7FC4; fill-opacity:1.0000; stroke:none;">
<circle cx="16.6700" cy="20.2800" r="0.8500" /> 
</g>
<g style="fill:#4D7FC4; fill-opacity:1.0000; stroke:none;">
<circle cx="16.6700" cy="22.8200" r="0.8500" /> 
</g>
<g style="fill:#4D7FC4; fill-opacity:1.0000; stroke:none;">
<circle cx="16.6700" cy="25.3600" r="0.8500" /> 
</g>
<g style="fill:#4D7FC4; fill-opacity:1.0000; stroke:none;">
<circle cx="16.6700" cy="27.9000" r="0.8500" /> 
</g>
<g style="fill:#4D7FC4; fill-opacity:1.0000; stroke:none;">
<circle cx="16.6700" cy="30.4400" r="0.8500" /> 
</g>
<g style="fill:#4D7FC4; fill-opacity:1.0000; stroke:none;">
<circle cx="16.6700" cy="32.9800" r="0.8500" /> 
</g>
<g style="fill:#4D7FC4; fill-opacity:1.0000; stroke:none;">
<circle cx="1.4300" cy="32.9800" r="0.8500" /> 
</g>
<g style="fill:#4D7FC4; fill-opacity:1.0000; stroke:none;">
<circle cx="1.4300" cy="30.4400" r="0.8500" /> 
</g>
<g style="fill:#4D7FC4; fill-opacity:1.0000; stroke:none;">
<circle cx="1.4300" cy="27.9000" r="0.8500" /> 
</g>
<g style="fill:#4D7FC4; fill-opacity:1.0000; stroke:none;">
<circle cx="1.4300" cy="25.3600" r="0.8500" /> 
</g>
<g style="fill:#4D7FC4; fill-opacity:1.0000; stroke:none;">
<circle cx="1.4300" cy="22.8200" r="0.8500" /> 
</g>
<g style="fill:#4D7FC4; fill-opacity:1.0000; stroke:none;">
<circle cx="1.4300" cy="20.2800" r="0.8500" /> 
</g>
<g style="fill:#4D7FC4; fill-opacity:1.0000; stroke:none;">
<circle cx="1.4300" cy="17.7400" r="0.8500" /> 
</g>
<g style="fill:#4D7FC4; fill-opacity:1.0000; stroke:none;">
<circle cx="1.4300" cy="15.2000" r="0.8500" /> 
</g>
<g style="fill:#4D7FC4; fill-opacity:1.0000; stroke:none;">
<circle cx="1.4300" cy="12.6600" r="0.8500" /> 
</g>
<g style="fill:#4D7FC4; fill-opacity:1.0000; stroke:none;">
<circle cx="1.4300" cy="10.1200" r="0.8500" /> 
</g>
<g style="fill:#4D7FC4; fill-opacity:1.0000; stroke:none;">
<circle cx="1.4300" cy="7.5800" r="0.8500" /> 
</g>
<g style="fill:#4D7FC4; fill-opacity:1.0000; stroke:none;">
<circle cx="1.4300" cy="5.0400" r="0.8500" /> 
</g>
<g style="fill:#4D7FC4; fill-opacity:1.0000; stroke:none;">
<circle cx="1.4300" cy="2.5000" r="0.8500" /> 
<path style="fill:#C83434; fill-opacity:1.0000; stroke:none;fill-rule:evenodd;"
d="M 15.8200,1.9050
15.8394,1.8074
15.8947,1.7247
15.9774,1.6694
16.0750,1.6500
17.2650,1.6500
17.3626,1.6694
17.4453,1.7247
17.5006,1.8074
17.5200,1.9050
17.5200,3.0950
17.5006,3.1926
17.4453,3.2753
17.3626,3.3306
17.2650,3.3500
16.0750,3.3500
15.9774,3.3306
15.8947,3.2753
15.8394,3.1926
15.8200,3.0950
Z" /> 
</g>
<g style="fill:#C83434; fill-opacity:1.0000; stroke:none;">
<circle cx="16.6700" cy="5.0400" r="0.8500" /> 
</g>
<g style="fill:#C83434; fill-opacity:1.0000; stroke:none;">
<circle cx="16.6700" cy="7.5800" r="0.8500" /> 
</g>
<g style="fill:#C83434; fill-opacity:1.0000; stroke:none;">
<circle cx="16.6700" cy="10.1200" r="0.8500" /> 
</g>
<g style="fill:#C83434; fill-opacity:1.0000; stroke:none;">
<circle cx="16.6700" cy="12.6600" r="0.8500" /> 
</g>
<g style="fill:#C83434; fill-opacity:1.0000; stroke:none;">
<circle cx="16.6700" cy="15.2000" r="0.8500" /> 
</g>
<g style="fill:#C83434; fill-opacity:1.0000; stroke:none;">
<circle cx="16.6700" cy="17.7400" r="0.8500" /> 
</g>
<g style="fill:#C83434; fill-opacity:1.0000; stroke:none;">
<circle cx="16.6700" cy="20.2800" r="0.8500" /> 
</g>
<g style="fill:#C83434; fill-opacity:1.0000; stroke:none;">
<circle cx="16.6700" cy="22.8200" r="0.8500" /> 
</g>
<g style="fill:#C83434; fill-opacity:1.0000; stroke:none;">
<circle cx="16.6700" cy="25.3600" r="0.8500" /> 
</g>
<g style="fill:#C83434; fill-opacity:1.0000; stroke:none;">
<circle cx="16.6700" cy="27.9000" r="0.8500" /> 
</g>
<g style="fill:#C83434; fill-opacity:1.0000; stroke:none;">
<circle cx="16.6700" cy="30.4400" r="0.8500" /> 
</g>
<g style="fill:#C83434; fill-opacity:1.0000; stroke:none;">
<circle cx="16.6700" cy="32.9800" r="0.8500" /> 
</g>
<g style="fill:#C83434; fill-opacity:1.0000; stroke:none;">
<circle cx="1.4300" cy="32.9800" r="0.8500" /> 
</g>
<g style="fill:#C83434; fill-opacity:1.0000; stroke:none;">
<circle cx="1.4300" cy="30.4400" r="0.8500" /> 
</g>
<g style="fill:#C83434; fill-opacity:1.0000; stroke:none;">
<circle cx="1.4300" cy="27.9000" r="0.8500" /> 
</g>
<g style="fill:#C83434; fill-opacity:1.0000; stroke:none;">
<circle cx="1.4300" cy="25.3600" r="0.8500" /> 
</g>
<g style="fill:#C83434; fill-opacity:1.0000; stroke:none;">
<circle cx="1.4300" cy="22.8200" r="0.8500" /> 
</g>
<g style="fill:#C83434; fill-opacity:1.0000; stroke:none;">
<circle cx="1.4300" cy="20.2800" r="0.8500" /> 
</g>
<g style="fill:#C83434; fill-opacity:1.0000; stroke:none;">
<circle cx="1.4300" cy="17.7400" r="0.8500" /> 
</g>
<g style="fill:#C83434; fill-opacity:1.0000; stroke:none;">
<circle cx="1.4300" cy="15.2000" r="0.8500" /> 
</g>
<g style="fill:#C83434; fill-opacity:1.0000; stroke:none;">
<circle cx="1.4300" cy="12.6600" r="0.8500" /> 
</g>
<g style="fill:#C83434; fill-opacity:1.0000; stroke:none;">
<circle cx="1.4300" cy="10.1200" r="0.8500" /> 
</g>
<g style="fill:#C83434; fill-opacity:1.0000; stroke:none;">
<circle cx="1.4300" cy="7.5800" r="0.8500" /> 
</g>
<g style="fill:#C83434; fill-opacity:1.0000; stroke:none;">
<circle cx="1.4300" cy="5.0400" r="0.8500" /> 
</g>
<g style="fill:#C83434; fill-opacity:1.0000; stroke:none;">
<circle cx="1.4300" cy="2.5000" r="0.8500" /> 
</g>
<g style="fill:none; 
stroke:#585D84; stroke-width:0.0472; stroke-opacity:1; 
stroke-linecap:round; stroke-linejoin:round;">
<text x="16.6700" y="2.7833"
textLength="0.5680" font-size="0.7556" lengthAdjust="spacingAndGlyphs"
text-anchor="middle" opacity="0" stroke-opacity="0">0</text>
<g class="stroked-text"><desc>0</desc>
<path d="M16.6430 2.1930
L16.6970 2.1930
" />
<path d="M16.6970 2.1930
L16.7510 2.2200
" />
<path d="M16.7510 2.2200
L16.7779 2.2470
" />
<path d="M16.7779 2.2470
L16.8049 2.3010
" />
<path d="M16.8049 2.3010
L16.8319 2.4089
" />
<path d="M16.8319 2.4089
L16.8319 2.5438
" />
<path d="M16.8319 2.5438
L16.8049 2.6518
" />
<path d="M16.8049 2.6518
L16.7779 2.7057
" />
<path d="M16.7779 2.7057
L16.7510 2.7327
" />
<path d="M16.7510 2.7327
L16.6970 2.7597
" />
<path d="M16.6970 2.7597
L16.6430 2.7597
" />
<path d="M16.6430 2.7597
L16.5890 2.7327
" />
<path d="M16.5890 2.7327
L16.5621 2.7057
" />
<path d="M16.5621 2.7057
L16.5351 2.6518
" />
<path d="M16.5351 2.6518
L16.5081 2.5438
" />
<path d="M16.5081 2.5438
L16.5081 2.4089
" />
<path d="M16.5081 2.4089
L16.5351 2.3010
" />
<path d="M16.5351 2.3010
L16.5621 2.2470
" />
<path d="M16.5621 2.2470
L16.5890 2.2200
" />
<path d="M16.5890 2.2200
L16.6430 2.1930
" />
</g><path style="fill:none; 
stroke:#585D84; stroke-width:0.0212; stroke-opacity:1; 
stroke-linecap:round; stroke-linejoin:round;fill:none"
d="M 15.8200,1.9050
15.8394,1.8074
15.8947,1.7247
15.9774,1.6694
16.0750,1.6500
17.2650,1.6500
17.3626,1.6694
17.4453,1.7247
17.5006,1.8074
17.5200,1.9050
17.5200,3.0950
17.5006,3.1926
17.4453,3.2753
17.3626,3.3306
17.2650,3.3500
16.0750,3.3500
15.9774,3.3306
15.8947,3.2753
15.8394,3.1926
15.8200,3.0950
Z" /> 
</g>
<g style="fill:none; 
stroke:#585D84; stroke-width:0.0472; stroke-opacity:1; 
stroke-linecap:round; stroke-linejoin:round;">
<text x="16.6700" y="5.3233"
textLength="0.5680" font-size="0.7556" lengthAdjust="spacingAndGlyphs"
text-anchor="middle" opacity="0" stroke-opacity="0">1</text>
<g class="stroked-text"><desc>1</desc>
<path d="M16.8319 5.2997
L16.5081 5.2997
" />
<path d="M16.6700 5.2997
L16.6700 4.7330
" />
<path d="M16.6700 4.7330
L16.6160 4.8140
" />
<path d="M16.6160 4.8140
L16.5621 4.8679
" />
<path d="M16.5621 4.8679
L16.5081 4.8949
" />
</g></g>
<g style="fill:none; 
stroke:#585D84; stroke-width:0.0212; stroke-opacity:1; 
stroke-linecap:round; stroke-linejoin:round;">
<circle cx="16.6700" cy="5.0400" r="0.8500" /> 
</g>
<g style="fill:none; 
stroke:#585D84; stroke-width:0.0472; stroke-opacity:1; 
stroke-linecap:round; stroke-linejoin:round;">
<text x="16.6700" y="7.8633"
textLength="0.5680" font-size="0.7556" lengthAdjust="spacingAndGlyphs"
text-anchor="middle" opacity="0" stroke-opacity="0">2</text>
<g class="stroked-text"><desc>2</desc>
<path d="M16.5081 7.3270
L16.5351 7.3000
" />
<path d="M16.5351 7.3000
L16.5890 7.2730
" />
<path d="M16.5890 7.2730
L16.7240 7.2730
" />
<path d="M16.7240 7.2730
L16.7779 7.3000
" />
<path d="M16.7779 7.3000
L16.8049 7.3270
" />
<path d="M16.8049 7.3270
L16.8319 7.3810
" />
<path d="M16.8319 7.3810
L16.8319 7.4349
" />
<path d="M16.8319 7.4349
L16.8049 7.5159
" />
<path d="M16.8049 7.5159
L16.4811 7.8397
" />
<path d="M16.4811 7.8397
L16.8319 7.8397
" />
</g></g>
<g style="fill:none; 
stroke:#585D84; stroke-width:0.0212; stroke-opacity:1; 
stroke-linecap:round; stroke-linejoin:round;">
<circle cx="16.6700" cy="7.5800" r="0.8500" /> 
</g>
<g style="fill:none; 
stroke:#585D84; stroke-width:0.0472; stroke-opacity:1; 
stroke-linecap:round; stroke-linejoin:round;">
<text x="16.6700" y="10.4033"
textLength="0.5680" font-size="0.7556" lengthAdjust="spacingAndGlyphs"
text-anchor="middle" opacity="0" stroke-opacity="0">3</text>
<g class="stroked-text"><desc>3</desc>
<path d="M16.4811 9.8130
L16.8319 9.8130
" />
<path d="M16.8319 9.8130
L16.6430 10.0289
" />
<path d="M16.6430 10.0289
L16.7240 10.0289
" />
<path d="M16.7240 10.0289
L16.7779 10.0559
" />
<path d="M16.7779 10.0559
L16.8049 10.0829
" />
<path d="M16.8049 10.0829
L16.8319 10.1368
" />
<path d="M16.8319 10.1368
L16.8319 10.2718
" />
<path d="M16.8319 10.2718
L16.8049 10.3257
" />
<path d="M16.8049 10.3257
L16.7779 10.3527
" />
<path d="M16.7779 10.3527
L16.7240 10.3797
" />
<path d="M16.7240 10.3797
L16.5621 10.3797
" />
<path d="M16.5621 10.3797
L16.5081 10.3527
" />
<path d="M16.5081 10.3527
L16.4811 10.3257
" />
</g></g>
<g style="fill:none; 
stroke:#585D84; stroke-width:0.0212; stroke-opacity:1; 
stroke-linecap:round; stroke-linejoin:round;">
<circle cx="16.6700" cy="10.1200" r="0.8500" /> 
</g>
<g style="fill:none; 
stroke:#585D84; stroke-width:0.0472; stroke-opacity:1; 
stroke-linecap:round; stroke-linejoin:round;">
<text x="16.6700" y="12.9433"
textLength="0.5680" font-size="0.7556" lengthAdjust="spacingAndGlyphs"
text-anchor="middle" opacity="0" stroke-opacity="0">4</text>
<g class="stroked-text"><desc>4</desc>
<path d="M16.7779 12.5419
L16.7779 12.9197
" />
<path d="M16.6430 12.3260
L16.5081 12.7308
" />
<path d="M16.5081 12.7308
L16.8589 12.7308
" />
</g></g>
<g style="fill:none; 
stroke:#585D84; stroke-width:0.0212; stroke-opacity:1; 
stroke-linecap:round; stroke-linejoin:round;">
<circle cx="16.6700" cy="12.6600" r="0.8500" /> 
</g>
<g style="fill:none; 
stroke:#585D84; stroke-width:0.0472; stroke-opacity:1; 
stroke-linecap:round; stroke-linejoin:round;">
<text x="16.6700" y="15.4833"
textLength="0.5680" font-size="0.7556" lengthAdjust="spacingAndGlyphs"
text-anchor="middle" opacity="0" stroke-opacity="0">5</text>
<g class="stroked-text"><desc>5</desc>
<path d="M16.8049 14.8930
L16.5351 14.8930
" />
<path d="M16.5351 14.8930
L16.5081 15.1629
" />
<path d="M16.5081 15.1629
L16.5351 15.1359
" />
<path d="M16.5351 15.1359
L16.5890 15.1089
" />
<path d="M16.5890 15.1089
L16.7240 15.1089
" />
<path d="M16.7240 15.1089
L16.7779 15.1359
" />
<path d="M16.7779 15.1359
L16.8049 15.1629
" />
<path d="M16.8049 15.1629
L16.8319 15.2168
" />
<path d="M16.8319 15.2168
L16.8319 15.3518
" />
<path d="M16.8319 15.3518
L16.8049 15.4057
" />
<path d="M16.8049 15.4057
L16.7779 15.4327
" />
<path d="M16.7779 15.4327
L16.7240 15.4597
" />
<path d="M16.7240 15.4597
L16.5890 15.4597
" />
<path d="M16.5890 15.4597
L16.5351 15.4327
" />
<path d="M16.5351 15.4327
L16.5081 15.4057
" />
</g></g>
<g style="fill:none; 
stroke:#585D84; stroke-width:0.0212; stroke-opacity:1; 
stroke-linecap:round; stroke-linejoin:round;">
<circle cx="16.6700" cy="15.2000" r="0.8500" /> 
</g>
<g style="fill:none; 
stroke:#585D84; stroke-width:0.0472; stroke-opacity:1; 
stroke-linecap:round; stroke-linejoin:round;">
<text x="16.6700" y="18.0233"
textLength="0.5680" font-size="0.7556" lengthAdjust="spacingAndGlyphs"
text-anchor="middle" opacity="0" stroke-opacity="0">6</text>
<g class="stroked-text"><desc>6</desc>
<path d="M16.7779 17.4330
L16.6700 17.4330
" />
<path d="M16.6700 17.4330
L16.6160 17.4600
" />
<path d="M16.6160 17.4600
L16.5890 17.4870
" />
<path d="M16.5890 17.4870
L16.5351 17.5679
" />
<path d="M16.5351 17.5679
L16.5081 17.6759
" />
<path d="M16.5081 17.6759
L16.5081 17.8918
" />
<path d="M16.5081 17.8918
L16.5351 17.9457
" />
<path d="M16.5351 17.9457
L16.5621 17.9727
" />
<path d="M16.5621 17.9727
L16.6160 17.9997
" />
<path d="M16.6160 17.9997
L16.7240 17.9997
" />
<path d="M16.7240 17.9997
L16.7779 17.9727
" />
<path d="M16.7779 17.9727
L16.8049 17.9457
" />
<path d="M16.8049 17.9457
L16.8319 17.8918
" />
<path d="M16.8319 17.8918
L16.8319 17.7568
" />
<path d="M16.8319 17.7568
L16.8049 17.7029
" />
<path d="M16.8049 17.7029
L16.7779 17.6759
" />
<path d="M16.7779 17.6759
L16.7240 17.6489
" />
<path d="M16.7240 17.6489
L16.6160 17.6489
" />
<path d="M16.6160 17.6489
L16.5621 17.6759
" />
<path d="M16.5621 17.6759
L16.5351 17.7029
" />
<path d="M16.5351 17.7029
L16.5081 17.7568
" />
</g></g>
<g style="fill:none; 
stroke:#585D84; stroke-width:0.0212; stroke-opacity:1; 
stroke-linecap:round; stroke-linejoin:round;">
<circle cx="16.6700" cy="17.7400" r="0.8500" /> 
</g>
<g style="fill:none; 
stroke:#585D84; stroke-width:0.0472; stroke-opacity:1; 
stroke-linecap:round; stroke-linejoin:round;">
<text x="16.6700" y="20.5633"
textLength="0.5680" font-size="0.7556" lengthAdjust="spacingAndGlyphs"
text-anchor="middle" opacity="0" stroke-opacity="0">7</text>
<g class="stroked-text"><desc>7</desc>
<path d="M16.4811 19.9730
L16.8589 19.9730
" />
<path d="M16.8589 19.9730
L16.6160 20.5397
" />
</g></g>
<g style="fill:none; 
stroke:#585D84; stroke-width:0.0212; stroke-opacity:1; 
stroke-linecap:round; stroke-linejoin:round;">
<circle cx="16.6700" cy="20.2800" r="0.8500" /> 
</g>
<g style="fill:none; 
stroke:#585D84; stroke-width:0.0472; stroke-opacity:1; 
stroke-linecap:round; stroke-linejoin:round;">
<text x="16.6700" y="23.1033"
textLength="0.5680" font-size="0.7556" lengthAdjust="spacingAndGlyphs"
text-anchor="middle" opacity="0" stroke-opacity="0">8</text>
<g class="stroked-text"><desc>8</desc>
<path d="M16.6160 22.7559
L16.5621 22.7289
" />
<path d="M16.5621 22.7289
L16.5351 22.7019
" />
<path d="M16.5351 22.7019
L16.5081 22.6479
" />
<path d="M16.5081 22.6479
L16.5081 22.6210
" />
<path d="M16.5081 22.6210
L16.5351 22.5670
" />
<path d="M16.5351 22.5670
L16.5621 22.5400
" />
<path d="M16.5621 22.5400
L16.6160 22.5130
" />
<path d="M16.6160 22.5130
L16.7240 22.5130
" />
<path d="M16.7240 22.5130
L16.7779 22.5400
" />
<path d="M16.7779 22.5400
L16.8049 22.5670
" />
<path d="M16.8049 22.5670
L16.8319 22.6210
" />
<path d="M16.8319 22.6210
L16.8319 22.6479
" />
<path d="M16.8319 22.6479
L16.8049 22.7019
" />
<path d="M16.8049 22.7019
L16.7779 22.7289
" />
<path d="M16.7779 22.7289
L16.7240 22.7559
" />
<path d="M16.7240 22.7559
L16.6160 22.7559
" />
<path d="M16.6160 22.7559
L16.5621 22.7829
" />
<path d="M16.5621 22.7829
L16.5351 22.8099
" />
<path d="M16.5351 22.8099
L16.5081 22.8638
" />
<path d="M16.5081 22.8638
L16.5081 22.9718
" />
<path d="M16.5081 22.9718
L16.5351 23.0257
" />
<path d="M16.5351 23.0257
L16.5621 23.0527
" />
<path d="M16.5621 23.0527
L16.6160 23.0797
" />
<path d="M16.6160 23.0797
L16.7240 23.0797
" />
<path d="M16.7240 23.0797
L16.7779 23.0527
" />
<path d="M16.7779 23.0527
L16.8049 23.0257
" />
<path d="M16.8049 23.0257
L16.8319 22.9718
" />
<path d="M16.8319 22.9718
L16.8319 22.8638
" />
<path d="M16.8319 22.8638
L16.8049 22.8099
" />
<path d="M16.8049 22.8099
L16.7779 22.7829
" />
<path d="M16.7779 22.7829
L16.7240 22.7559
" />
</g></g>
<g style="fill:none; 
stroke:#585D84; stroke-width:0.0212; stroke-opacity:1; 
stroke-linecap:round; stroke-linejoin:round;">
<circle cx="16.6700" cy="22.8200" r="0.8500" /> 
</g>
<g style="fill:none; 
stroke:#585D84; stroke-width:0.0472; stroke-opacity:1; 
stroke-linecap:round; stroke-linejoin:round;">
<text x="16.6700" y="25.6433"
textLength="0.5680" font-size="0.7556" lengthAdjust="spacingAndGlyphs"
text-anchor="middle" opacity="0" stroke-opacity="0">9</text>
<g class="stroked-text"><desc>9</desc>
<path d="M16.5621 25.6197
L16.6700 25.6197
" />
<path d="M16.6700 25.6197
L16.7240 25.5927
" />
<path d="M16.7240 25.5927
L16.7510 25.5657
" />
<path d="M16.7510 25.5657
L16.8049 25.4848
" />
<path d="M16.8049 25.4848
L16.8319 25.3768
" />
<path d="M16.8319 25.3768
L16.8319 25.1610
" />
<path d="M16.8319 25.1610
L16.8049 25.1070
" />
<path d="M16.8049 25.1070
L16.7779 25.0800
" />
<path d="M16.7779 25.0800
L16.7240 25.0530
" />
<path d="M16.7240 25.0530
L16.6160 25.0530
" />
<path d="M16.6160 25.0530
L16.5621 25.0800
" />
<path d="M16.5621 25.0800
L16.5351 25.1070
" />
<path d="M16.5351 25.1070
L16.5081 25.1610
" />
<path d="M16.5081 25.1610
L16.5081 25.2959
" />
<path d="M16.5081 25.2959
L16.5351 25.3499
" />
<path d="M16.5351 25.3499
L16.5621 25.3768
" />
<path d="M16.5621 25.3768
L16.6160 25.4038
" />
<path d="M16.6160 25.4038
L16.7240 25.4038
" />
<path d="M16.7240 25.4038
L16.7779 25.3768
" />
<path d="M16.7779 25.3768
L16.8049 25.3499
" />
<path d="M16.8049 25.3499
L16.8319 25.2959
" />
</g></g>
<g style="fill:none; 
stroke:#585D84; stroke-width:0.0212; stroke-opacity:1; 
stroke-linecap:round; stroke-linejoin:round;">
<circle cx="16.6700" cy="25.3600" r="0.8500" /> 
</g>
<g style="fill:none; 
stroke:#585D84; stroke-width:0.0472; stroke-opacity:1; 
stroke-linecap:round; stroke-linejoin:round;">
<text x="16.6700" y="28.1833"
textLength="1.1077" font-size="0.7556" lengthAdjust="spacingAndGlyphs"
text-anchor="middle" opacity="0" stroke-opacity="0">10</text>
<g class="stroked-text"><desc>10</desc>
<path d="M16.5621 28.1597
L16.2383 28.1597
" />
<path d="M16.4002 28.1597
L16.4002 27.5930
" />
<path d="M16.4002 27.5930
L16.3462 27.6740
" />
<path d="M16.3462 27.6740
L16.2922 27.7279
" />
<path d="M16.2922 27.7279
L16.2383 27.7549
" />
<path d="M16.9129 27.5930
L16.9668 27.5930
" />
<path d="M16.9668 27.5930
L17.0208 27.6200
" />
<path d="M17.0208 27.6200
L17.0478 27.6470
" />
<path d="M17.0478 27.6470
L17.0748 27.7010
" />
<path d="M17.0748 27.7010
L17.1017 27.8089
" />
<path d="M17.1017 27.8089
L17.1017 27.9438
" />
<path d="M17.1017 27.9438
L17.0748 28.0518
" />
<path d="M17.0748 28.0518
L17.0478 28.1057
" />
<path d="M17.0478 28.1057
L17.0208 28.1327
" />
<path d="M17.0208 28.1327
L16.9668 28.1597
" />
<path d="M16.9668 28.1597
L16.9129 28.1597
" />
<path d="M16.9129 28.1597
L16.8589 28.1327
" />
<path d="M16.8589 28.1327
L16.8319 28.1057
" />
<path d="M16.8319 28.1057
L16.8049 28.0518
" />
<path d="M16.8049 28.0518
L16.7779 27.9438
" />
<path d="M16.7779 27.9438
L16.7779 27.8089
" />
<path d="M16.7779 27.8089
L16.8049 27.7010
" />
<path d="M16.8049 27.7010
L16.8319 27.6470
" />
<path d="M16.8319 27.6470
L16.8589 27.6200
" />
<path d="M16.8589 27.6200
L16.9129 27.5930
" />
</g></g>
<g style="fill:none; 
stroke:#585D84; stroke-width:0.0212; stroke-opacity:1; 
stroke-linecap:round; stroke-linejoin:round;">
<circle cx="16.6700" cy="27.9000" r="0.8500" /> 
</g>
<g style="fill:none; 
stroke:#585D84; stroke-width:0.0472; stroke-opacity:1; 
stroke-linecap:round; stroke-linejoin:round;">
<text x="16.6700" y="30.7233"
textLength="1.1077" font-size="0.7556" lengthAdjust="spacingAndGlyphs"
text-anchor="middle" opacity="0" stroke-opacity="0">11</text>
<g class="stroked-text"><desc>11</desc>
<path d="M16.5621 30.6997
L16.2383 30.6997
" />
<path d="M16.4002 30.6997
L16.4002 30.1330
" />
<path d="M16.4002 30.1330
L16.3462 30.2140
" />
<path d="M16.3462 30.2140
L16.2922 30.2679
" />
<path d="M16.2922 30.2679
L16.2383 30.2949
" />
<path d="M17.1017 30.6997
L16.7779 30.6997
" />
<path d="M16.9398 30.6997
L16.9398 30.1330
" />
<path d="M16.9398 30.1330
L16.8859 30.2140
" />
<path d="M16.8859 30.2140
L16.8319 30.2679
" />
<path d="M16.8319 30.2679
L16.7779 30.2949
" />
</g></g>
<g style="fill:none; 
stroke:#585D84; stroke-width:0.0212; stroke-opacity:1; 
stroke-linecap:round; stroke-linejoin:round;">
<circle cx="16.6700" cy="30.4400" r="0.8500" /> 
</g>
<g style="fill:none; 
stroke:#585D84; stroke-width:0.0472; stroke-opacity:1; 
stroke-linecap:round; stroke-linejoin:round;">
<text x="16.6700" y="33.2633"
textLength="1.1077" font-size="0.7556" lengthAdjust="spacingAndGlyphs"
text-anchor="middle" opacity="0" stroke-opacity="0">12</text>
<g class="stroked-text"><desc>12</desc>
<path d="M16.5621 33.2397
L16.2383 33.2397
" />
<path d="M16.4002 33.2397
L16.4002 32.6730
" />
<path d="M16.4002 32.6730
L16.3462 32.7540
" />
<path d="M16.3462 32.7540
L16.2922 32.8079
" />
<path d="M16.2922 32.8079
L16.2383 32.8349
" />
<path d="M16.7779 32.7270
L16.8049 32.7000
" />
<path d="M16.8049 32.7000
L16.8589 32.6730
" />
<path d="M16.8589 32.6730
L16.9938 32.6730
" />
<path d="M16.9938 32.6730
L17.0478 32.7000
" />
<path d="M17.0478 32.7000
L17.0748 32.7270
" />
<path d="M17.0748 32.7270
L17.1017 32.7810
" />
<path d="M17.1017 32.7810
L17.1017 32.8349
" />
<path d="M17.1017 32.8349
L17.0748 32.9159
" />
<path d="M17.0748 32.9159
L16.7510 33.2397
" />
<path d="M16.7510 33.2397
L17.1017 33.2397
" />
</g></g>
<g style="fill:none; 
stroke:#585D84; stroke-width:0.0212; stroke-opacity:1; 
stroke-linecap:round; stroke-linejoin:round;">
<circle cx="16.6700" cy="32.9800" r="0.8500" /> 
</g>
<g style="fill:none; 
stroke:#585D84; stroke-width:0.0472; stroke-opacity:1; 
stroke-linecap:round; stroke-linejoin:round;">
<text x="1.4300" y="33.2633"
textLength="1.1077" font-size="0.7556" lengthAdjust="spacingAndGlyphs"
text-anchor="middle" opacity="0" stroke-opacity="0">13</text>
<g class="stroked-text"><desc>13</desc>
<path d="M1.3221 33.2397
L0.9983 33.2397
" />
<path d="M1.1602 33.2397
L1.1602 32.6730
" />
<path d="M1.1602 32.6730
L1.1062 32.7540
" />
<path d="M1.1062 32.7540
L1.0522 32.8079
" />
<path d="M1.0522 32.8079
L0.9983 32.8349
" />
<path d="M1.5110 32.6730
L1.8617 32.6730
" />
<path d="M1.8617 32.6730
L1.6729 32.8889
" />
<path d="M1.6729 32.8889
L1.7538 32.8889
" />
<path d="M1.7538 32.8889
L1.8078 32.9159
" />
<path d="M1.8078 32.9159
L1.8348 32.9429
" />
<path d="M1.8348 32.9429
L1.8617 32.9968
" />
<path d="M1.8617 32.9968
L1.8617 33.1318
" />
<path d="M1.8617 33.1318
L1.8348 33.1857
" />
<path d="M1.8348 33.1857
L1.8078 33.2127
" />
<path d="M1.8078 33.2127
L1.7538 33.2397
" />
<path d="M1.7538 33.2397
L1.5919 33.2397
" />
<path d="M1.5919 33.2397
L1.5379 33.2127
" />
<path d="M1.5379 33.2127
L1.5110 33.1857
" />
</g></g>
<g style="fill:none; 
stroke:#585D84; stroke-width:0.0212; stroke-opacity:1; 
stroke-linecap:round; stroke-linejoin:round;">
<circle cx="1.4300" cy="32.9800" r="0.8500" /> 
</g>
<g style="fill:none; 
stroke:#585D84; stroke-width:0.0472; stroke-opacity:1; 
stroke-linecap:round; stroke-linejoin:round;">
<text x="1.4300" y="30.7233"
textLength="1.1077" font-size="0.7556" lengthAdjust="spacingAndGlyphs"
text-anchor="middle" opacity="0" stroke-opacity="0">14</text>
<g class="stroked-text"><desc>14</desc>
<path d="M1.3221 30.6997
L0.9983 30.6997
" />
<path d="M1.1602 30.6997
L1.1602 30.1330
" />
<path d="M1.1602 30.1330
L1.1062 30.2140
" />
<path d="M1.1062 30.2140
L1.0522 30.2679
" />
<path d="M1.0522 30.2679
L0.9983 30.2949
" />
<path d="M1.8078 30.3219
L1.8078 30.6997
" />
<path d="M1.6729 30.1060
L1.5379 30.5108
" />
<path d="M1.5379 30.5108
L1.8887 30.5108
" />
</g></g>
<g style="fill:none; 
stroke:#585D84; stroke-width:0.0212; stroke-opacity:1; 
stroke-linecap:round; stroke-linejoin:round;">
<circle cx="1.4300" cy="30.4400" r="0.8500" /> 
</g>
<g style="fill:none; 
stroke:#585D84; stroke-width:0.0472; stroke-opacity:1; 
stroke-linecap:round; stroke-linejoin:round;">
<text x="1.4300" y="28.1833"
textLength="1.1077" font-size="0.7556" lengthAdjust="spacingAndGlyphs"
text-anchor="middle" opacity="0" stroke-opacity="0">15</text>
<g class="stroked-text"><desc>15</desc>
<path d="M1.3221 28.1597
L0.9983 28.1597
" />
<path d="M1.1602 28.1597
L1.1602 27.5930
" />
<path d="M1.1602 27.5930
L1.1062 27.6740
" />
<path d="M1.1062 27.6740
L1.0522 27.7279
" />
<path d="M1.0522 27.7279
L0.9983 27.7549
" />
<path d="M1.8348 27.5930
L1.5649 27.5930
" />
<path d="M1.5649 27.5930
L1.5379 27.8629
" />
<path d="M1.5379 27.8629
L1.5649 27.8359
" />
<path d="M1.5649 27.8359
L1.6189 27.8089
" />
<path d="M1.6189 27.8089
L1.7538 27.8089
" />
<path d="M1.7538 27.8089
L1.8078 27.8359
" />
<path d="M1.8078 27.8359
L1.8348 27.8629
" />
<path d="M1.8348 27.8629
L1.8617 27.9168
" />
<path d="M1.8617 27.9168
L1.8617 28.0518
" />
<path d="M1.8617 28.0518
L1.8348 28.1057
" />
<path d="M1.8348 28.1057
L1.8078 28.1327
" />
<path d="M1.8078 28.1327
L1.7538 28.1597
" />
<path d="M1.7538 28.1597
L1.6189 28.1597
" />
<path d="M1.6189 28.1597
L1.5649 28.1327
" />
<path d="M1.5649 28.1327
L1.5379 28.1057
" />
</g></g>
<g style="fill:none; 
stroke:#585D84; stroke-width:0.0212; stroke-opacity:1; 
stroke-linecap:round; stroke-linejoin:round;">
<circle cx="1.4300" cy="27.9000" r="0.8500" /> 
</g>
<g style="fill:none; 
stroke:#585D84; stroke-width:0.0472; stroke-opacity:1; 
stroke-linecap:round; stroke-linejoin:round;">
<text x="1.4300" y="25.6433"
textLength="1.1077" font-size="0.7556" lengthAdjust="spacingAndGlyphs"
text-anchor="middle" opacity="0" stroke-opacity="0">16</text>
<g class="stroked-text"><desc>16</desc>
<path d="M1.3221 25.6197
L0.9983 25.6197
" />
<path d="M1.1602 25.6197
L1.1602 25.0530
" />
<path d="M1.1602 25.0530
L1.1062 25.1340
" />
<path d="M1.1062 25.1340
L1.0522 25.1879
" />
<path d="M1.0522 25.1879
L0.9983 25.2149
" />
<path d="M1.8078 25.0530
L1.6998 25.0530
" />
<path d="M1.6998 25.0530
L1.6459 25.0800
" />
<path d="M1.6459 25.0800
L1.6189 25.1070
" />
<path d="M1.6189 25.1070
L1.5649 25.1879
" />
<path d="M1.5649 25.1879
L1.5379 25.2959
" />
<path d="M1.5379 25.2959
L1.5379 25.5118
" />
<path d="M1.5379 25.5118
L1.5649 25.5657
" />
<path d="M1.5649 25.5657
L1.5919 25.5927
" />
<path d="M1.5919 25.5927
L1.6459 25.6197
" />
<path d="M1.6459 25.6197
L1.7538 25.6197
" />
<path d="M1.7538 25.6197
L1.8078 25.5927
" />
<path d="M1.8078 25.5927
L1.8348 25.5657
" />
<path d="M1.8348 25.5657
L1.8617 25.5118
" />
<path d="M1.8617 25.5118
L1.8617 25.3768
" />
<path d="M1.8617 25.3768
L1.8348 25.3229
" />
<path d="M1.8348 25.3229
L1.8078 25.2959
" />
<path d="M1.8078 25.2959
L1.7538 25.2689
" />
<path d="M1.7538 25.2689
L1.6459 25.2689
" />
<path d="M1.6459 25.2689
L1.5919 25.2959
" />
<path d="M1.5919 25.2959
L1.5649 25.3229
" />
<path d="M1.5649 25.3229
L1.5379 25.3768
" />
</g></g>
<g style="fill:none; 
stroke:#585D84; stroke-width:0.0212; stroke-opacity:1; 
stroke-linecap:round; stroke-linejoin:round;">
<circle cx="1.4300" cy="25.3600" r="0.8500" /> 
</g>
<g style="fill:none; 
stroke:#585D84; stroke-width:0.0472; stroke-opacity:1; 
stroke-linecap:round; stroke-linejoin:round;">
<text x="1.4300" y="23.1033"
textLength="1.1077" font-size="0.7556" lengthAdjust="spacingAndGlyphs"
text-anchor="middle" opacity="0" stroke-opacity="0">17</text>
<g class="stroked-text"><desc>17</desc>
<path d="M1.3221 23.0797
L0.9983 23.0797
" />
<path d="M1.1602 23.0797
L1.1602 22.5130
" />
<path d="M1.1602 22.5130
L1.1062 22.5940
" />
<path d="M1.1062 22.5940
L1.0522 22.6479
" />
<path d="M1.0522 22.6479
L0.9983 22.6749
" />
<path d="M1.5110 22.5130
L1.8887 22.5130
" />
<path d="M1.8887 22.5130
L1.6459 23.0797
" />
</g></g>
<g style="fill:none; 
stroke:#585D84; stroke-width:0.0212; stroke-opacity:1; 
stroke-linecap:round; stroke-linejoin:round;">
<circle cx="1.4300" cy="22.8200" r="0.8500" /> 
</g>
<g style="fill:none; 
stroke:#585D84; stroke-width:0.0472; stroke-opacity:1; 
stroke-linecap:round; stroke-linejoin:round;">
<text x="1.4300" y="20.5633"
textLength="1.1077" font-size="0.7556" lengthAdjust="spacingAndGlyphs"
text-anchor="middle" opacity="0" stroke-opacity="0">18</text>
<g class="stroked-text"><desc>18</desc>
<path d="M1.3221 20.5397
L0.9983 20.5397
" />
<path d="M1.1602 20.5397
L1.1602 19.9730
" />
<path d="M1.1602 19.9730
L1.1062 20.0540
" />
<path d="M1.1062 20.0540
L1.0522 20.1079
" />
<path d="M1.0522 20.1079
L0.9983 20.1349
" />
<path d="M1.6459 20.2159
L1.5919 20.1889
" />
<path d="M1.5919 20.1889
L1.5649 20.1619
" />
<path d="M1.5649 20.1619
L1.5379 20.1079
" />
<path d="M1.5379 20.1079
L1.5379 20.0810
" />
<path d="M1.5379 20.0810
L1.5649 20.0270
" />
<path d="M1.5649 20.0270
L1.5919 20.0000
" />
<path d="M1.5919 20.0000
L1.6459 19.9730
" />
<path d="M1.6459 19.9730
L1.7538 19.9730
" />
<path d="M1.7538 19.9730
L1.8078 20.0000
" />
<path d="M1.8078 20.0000
L1.8348 20.0270
" />
<path d="M1.8348 20.0270
L1.8617 20.0810
" />
<path d="M1.8617 20.0810
L1.8617 20.1079
" />
<path d="M1.8617 20.1079
L1.8348 20.1619
" />
<path d="M1.8348 20.1619
L1.8078 20.1889
" />
<path d="M1.8078 20.1889
L1.7538 20.2159
" />
<path d="M1.7538 20.2159
L1.6459 20.2159
" />
<path d="M1.6459 20.2159
L1.5919 20.2429
" />
<path d="M1.5919 20.2429
L1.5649 20.2699
" />
<path d="M1.5649 20.2699
L1.5379 20.3238
" />
<path d="M1.5379 20.3238
L1.5379 20.4318
" />
<path d="M1.5379 20.4318
L1.5649 20.4857
" />
<path d="M1.5649 20.4857
L1.5919 20.5127
" />
<path d="M1.5919 20.5127
L1.6459 20.5397
" />
<path d="M1.6459 20.5397
L1.7538 20.5397
" />
<path d="M1.7538 20.5397
L1.8078 20.5127
" />
<path d="M1.8078 20.5127
L1.8348 20.4857
" />
<path d="M1.8348 20.4857
L1.8617 20.4318
" />
<path d="M1.8617 20.4318
L1.8617 20.3238
" />
<path d="M1.8617 20.3238
L1.8348 20.2699
" />
<path d="M1.8348 20.2699
L1.8078 20.2429
" />
<path d="M1.8078 20.2429
L1.7538 20.2159
" />
</g></g>
<g style="fill:none; 
stroke:#585D84; stroke-width:0.0212; stroke-opacity:1; 
stroke-linecap:round; stroke-linejoin:round;">
<circle cx="1.4300" cy="20.2800" r="0.8500" /> 
</g>
<g style="fill:none; 
stroke:#585D84; stroke-width:0.0472; stroke-opacity:1; 
stroke-linecap:round; stroke-linejoin:round;">
<text x="1.4300" y="18.0233"
textLength="1.1077" font-size="0.7556" lengthAdjust="spacingAndGlyphs"
text-anchor="middle" opacity="0" stroke-opacity="0">19</text>
<g class="stroked-text"><desc>19</desc>
<path d="M1.3221 17.9997
L0.9983 17.9997
" />
<path d="M1.1602 17.9997
L1.1602 17.4330
" />
<path d="M1.1602 17.4330
L1.1062 17.5140
" />
<path d="M1.1062 17.5140
L1.0522 17.5679
" />
<path d="M1.0522 17.5679
L0.9983 17.5949
" />
<path d="M1.5919 17.9997
L1.6998 17.9997
" />
<path d="M1.6998 17.9997
L1.7538 17.9727
" />
<path d="M1.7538 17.9727
L1.7808 17.9457
" />
<path d="M1.7808 17.9457
L1.8348 17.8648
" />
<path d="M1.8348 17.8648
L1.8617 17.7568
" />
<path d="M1.8617 17.7568
L1.8617 17.5410
" />
<path d="M1.8617 17.5410
L1.8348 17.4870
" />
<path d="M1.8348 17.4870
L1.8078 17.4600
" />
<path d="M1.8078 17.4600
L1.7538 17.4330
" />
<path d="M1.7538 17.4330
L1.6459 17.4330
" />
<path d="M1.6459 17.4330
L1.5919 17.4600
" />
<path d="M1.5919 17.4600
L1.5649 17.4870
" />
<path d="M1.5649 17.4870
L1.5379 17.5410
" />
<path d="M1.5379 17.5410
L1.5379 17.6759
" />
<path d="M1.5379 17.6759
L1.5649 17.7299
" />
<path d="M1.5649 17.7299
L1.5919 17.7568
" />
<path d="M1.5919 17.7568
L1.6459 17.7838
" />
<path d="M1.6459 17.7838
L1.7538 17.7838
" />
<path d="M1.7538 17.7838
L1.8078 17.7568
" />
<path d="M1.8078 17.7568
L1.8348 17.7299
" />
<path d="M1.8348 17.7299
L1.8617 17.6759
" />
</g></g>
<g style="fill:none; 
stroke:#585D84; stroke-width:0.0212; stroke-opacity:1; 
stroke-linecap:round; stroke-linejoin:round;">
<circle cx="1.4300" cy="17.7400" r="0.8500" /> 
</g>
<g style="fill:none; 
stroke:#585D84; stroke-width:0.0472; stroke-opacity:1; 
stroke-linecap:round; stroke-linejoin:round;">
<text x="1.4300" y="15.4833"
textLength="1.1077" font-size="0.7556" lengthAdjust="spacingAndGlyphs"
text-anchor="middle" opacity="0" stroke-opacity="0">20</text>
<g class="stroked-text"><desc>20</desc>
<path d="M0.9983 14.9470
L1.0252 14.9200
" />
<path d="M1.0252 14.9200
L1.0792 14.8930
" />
<path d="M1.0792 14.8930
L1.2141 14.8930
" />
<path d="M1.2141 14.8930
L1.2681 14.9200
" />
<path d="M1.2681 14.9200
L1.2951 14.9470
" />
<path d="M1.2951 14.9470
L1.3221 15.0010
" />
<path d="M1.3221 15.0010
L1.3221 15.0549
" />
<path d="M1.3221 15.0549
L1.2951 15.1359
" />
<path d="M1.2951 15.1359
L0.9713 15.4597
" />
<path d="M0.9713 15.4597
L1.3221 15.4597
" />
<path d="M1.6729 14.8930
L1.7268 14.8930
" />
<path d="M1.7268 14.8930
L1.7808 14.9200
" />
<path d="M1.7808 14.9200
L1.8078 14.9470
" />
<path d="M1.8078 14.9470
L1.8348 15.0010
" />
<path d="M1.8348 15.0010
L1.8617 15.1089
" />
<path d="M1.8617 15.1089
L1.8617 15.2438
" />
<path d="M1.8617 15.2438
L1.8348 15.3518
" />
<path d="M1.8348 15.3518
L1.8078 15.4057
" />
<path d="M1.8078 15.4057
L1.7808 15.4327
" />
<path d="M1.7808 15.4327
L1.7268 15.4597
" />
<path d="M1.7268 15.4597
L1.6729 15.4597
" />
<path d="M1.6729 15.4597
L1.6189 15.4327
" />
<path d="M1.6189 15.4327
L1.5919 15.4057
" />
<path d="M1.5919 15.4057
L1.5649 15.3518
" />
<path d="M1.5649 15.3518
L1.5379 15.2438
" />
<path d="M1.5379 15.2438
L1.5379 15.1089
" />
<path d="M1.5379 15.1089
L1.5649 15.0010
" />
<path d="M1.5649 15.0010
L1.5919 14.9470
" />
<path d="M1.5919 14.9470
L1.6189 14.9200
" />
<path d="M1.6189 14.9200
L1.6729 14.8930
" />
</g></g>
<g style="fill:none; 
stroke:#585D84; stroke-width:0.0212; stroke-opacity:1; 
stroke-linecap:round; stroke-linejoin:round;">
<circle cx="1.4300" cy="15.2000" r="0.8500" /> 
</g>
<g style="fill:none; 
stroke:#585D84; stroke-width:0.0472; stroke-opacity:1; 
stroke-linecap:round; stroke-linejoin:round;">
<text x="1.4300" y="12.9433"
textLength="1.1077" font-size="0.7556" lengthAdjust="spacingAndGlyphs"
text-anchor="middle" opacity="0" stroke-opacity="0">21</text>
<g class="stroked-text"><desc>21</desc>
<path d="M0.9983 12.4070
L1.0252 12.3800
" />
<path d="M1.0252 12.3800
L1.0792 12.3530
" />
<path d="M1.0792 12.3530
L1.2141 12.3530
" />
<path d="M1.2141 12.3530
L1.2681 12.3800
" />
<path d="M1.2681 12.3800
L1.2951 12.4070
" />
<path d="M1.2951 12.4070
L1.3221 12.4610
" />
<path d="M1.3221 12.4610
L1.3221 12.5149
" />
<path d="M1.3221 12.5149
L1.2951 12.5959
" />
<path d="M1.2951 12.5959
L0.9713 12.9197
" />
<path d="M0.9713 12.9197
L1.3221 12.9197
" />
<path d="M1.8617 12.9197
L1.5379 12.9197
" />
<path d="M1.6998 12.9197
L1.6998 12.3530
" />
<path d="M1.6998 12.3530
L1.6459 12.4340
" />
<path d="M1.6459 12.4340
L1.5919 12.4879
" />
<path d="M1.5919 12.4879
L1.5379 12.5149
" />
</g></g>
<g style="fill:none; 
stroke:#585D84; stroke-width:0.0212; stroke-opacity:1; 
stroke-linecap:round; stroke-linejoin:round;">
<circle cx="1.4300" cy="12.6600" r="0.8500" /> 
</g>
<g style="fill:none; 
stroke:#585D84; stroke-width:0.0472; stroke-opacity:1; 
stroke-linecap:round; stroke-linejoin:round;">
<text x="1.4300" y="10.4033"
textLength="1.1077" font-size="0.7556" lengthAdjust="spacingAndGlyphs"
text-anchor="middle" opacity="0" stroke-opacity="0">22</text>
<g class="stroked-text"><desc>22</desc>
<path d="M0.9983 9.8670
L1.0252 9.8400
" />
<path d="M1.0252 9.8400
L1.0792 9.8130
" />
<path d="M1.0792 9.8130
L1.2141 9.8130
" />
<path d="M1.2141 9.8130
L1.2681 9.8400
" />
<path d="M1.2681 9.8400
L1.2951 9.8670
" />
<path d="M1.2951 9.8670
L1.3221 9.9210
" />
<path d="M1.3221 9.9210
L1.3221 9.9749
" />
<path d="M1.3221 9.9749
L1.2951 10.0559
" />
<path d="M1.2951 10.0559
L0.9713 10.3797
" />
<path d="M0.9713 10.3797
L1.3221 10.3797
" />
<path d="M1.5379 9.8670
L1.5649 9.8400
" />
<path d="M1.5649 9.8400
L1.6189 9.8130
" />
<path d="M1.6189 9.8130
L1.7538 9.8130
" />
<path d="M1.7538 9.8130
L1.8078 9.8400
" />
<path d="M1.8078 9.8400
L1.8348 9.8670
" />
<path d="M1.8348 9.8670
L1.8617 9.9210
" />
<path d="M1.8617 9.9210
L1.8617 9.9749
" />
<path d="M1.8617 9.9749
L1.8348 10.0559
" />
<path d="M1.8348 10.0559
L1.5110 10.3797
" />
<path d="M1.5110 10.3797
L1.8617 10.3797
" />
</g></g>
<g style="fill:none; 
stroke:#585D84; stroke-width:0.0212; stroke-opacity:1; 
stroke-linecap:round; stroke-linejoin:round;">
<circle cx="1.4300" cy="10.1200" r="0.8500" /> 
</g>
<g style="fill:none; 
stroke:#585D84; stroke-width:0.0472; stroke-opacity:1; 
stroke-linecap:round; stroke-linejoin:round;">
<text x="1.4300" y="7.8633"
textLength="1.1077" font-size="0.7556" lengthAdjust="spacingAndGlyphs"
text-anchor="middle" opacity="0" stroke-opacity="0">23</text>
<g class="stroked-text"><desc>23</desc>
<path d="M0.9983 7.3270
L1.0252 7.3000
" />
<path d="M1.0252 7.3000
L1.0792 7.2730
" />
<path d="M1.0792 7.2730
L1.2141 7.2730
" />
<path d="M1.2141 7.2730
L1.2681 7.3000
" />
<path d="M1.2681 7.3000
L1.2951 7.3270
" />
<path d="M1.2951 7.3270
L1.3221 7.3810
" />
<path d="M1.3221 7.3810
L1.3221 7.4349
" />
<path d="M1.3221 7.4349
L1.2951 7.5159
" />
<path d="M1.2951 7.5159
L0.9713 7.8397
" />
<path d="M0.9713 7.8397
L1.3221 7.8397
" />
<path d="M1.5110 7.2730
L1.8617 7.2730
" />
<path d="M1.8617 7.2730
L1.6729 7.4889
" />
<path d="M1.6729 7.4889
L1.7538 7.4889
" />
<path d="M1.7538 7.4889
L1.8078 7.5159
" />
<path d="M1.8078 7.5159
L1.8348 7.5429
" />
<path d="M1.8348 7.5429
L1.8617 7.5968
" />
<path d="M1.8617 7.5968
L1.8617 7.7318
" />
<path d="M1.8617 7.7318
L1.8348 7.7857
" />
<path d="M1.8348 7.7857
L1.8078 7.8127
" />
<path d="M1.8078 7.8127
L1.7538 7.8397
" />
<path d="M1.7538 7.8397
L1.5919 7.8397
" />
<path d="M1.5919 7.8397
L1.5379 7.8127
" />
<path d="M1.5379 7.8127
L1.5110 7.7857
" />
</g></g>
<g style="fill:none; 
stroke:#585D84; stroke-width:0.0212; stroke-opacity:1; 
stroke-linecap:round; stroke-linejoin:round;">
<circle cx="1.4300" cy="7.5800" r="0.8500" /> 
</g>
<g style="fill:none; 
stroke:#585D84; stroke-width:0.0472; stroke-opacity:1; 
stroke-linecap:round; stroke-linejoin:round;">
<text x="1.4300" y="5.3233"
textLength="1.1077" font-size="0.7556" lengthAdjust="spacingAndGlyphs"
text-anchor="middle" opacity="0" stroke-opacity="0">24</text>
<g class="stroked-text"><desc>24</desc>
<path d="M0.9983 4.7870
L1.0252 4.7600
" />
<path d="M1.0252 4.7600
L1.0792 4.7330
" />
<path d="M1.0792 4.7330
L1.2141 4.7330
" />
<path d="M1.2141 4.7330
L1.2681 4.7600
" />
<path d="M1.2681 4.7600
L1.2951 4.7870
" />
<path d="M1.2951 4.7870
L1.3221 4.8410
" />
<path d="M1.3221 4.8410
L1.3221 4.8949
" />
<path d="M1.3221 4.8949
L1.2951 4.9759
" />
<path d="M1.2951 4.9759
L0.9713 5.2997
" />
<path d="M0.9713 5.2997
L1.3221 5.2997
" />
<path d="M1.8078 4.9219
L1.8078 5.2997
" />
<path d="M1.6729 4.7060
L1.5379 5.1108
" />
<path d="M1.5379 5.1108
L1.8887 5.1108
" />
</g></g>
<g style="fill:none; 
stroke:#585D84; stroke-width:0.0212; stroke-opacity:1; 
stroke-linecap:round; stroke-linejoin:round;">
<circle cx="1.4300" cy="5.0400" r="0.8500" /> 
</g>
<g style="fill:none; 
stroke:#585D84; stroke-width:0.0472; stroke-opacity:1; 
stroke-linecap:round; stroke-linejoin:round;">
<text x="1.4300" y="2.7833"
textLength="1.1077" font-size="0.7556" lengthAdjust="spacingAndGlyphs"
text-anchor="middle" opacity="0" stroke-opacity="0">25</text>
<g class="stroked-text"><desc>25</desc>
<path d="M0.9983 2.2470
L1.0252 2.2200
" />
<path d="M1.0252 2.2200
L1.0792 2.1930
" />
<path d="M1.0792 2.1930
L1.2141 2.1930
" />
<path d="M1.2141 2.1930
L1.2681 2.2200
" />
<path d="M1.2681 2.2200
L1.2951 2.2470
" />
<path d="M1.2951 2.2470
L1.3221 2.3010
" />
<path d="M1.3221 2.3010
L1.3221 2.3549
" />
<path d="M1.3221 2.3549
L1.2951 2.4359
" />
<path d="M1.2951 2.4359
L0.9713 2.7597
" />
<path d="M0.9713 2.7597
L1.3221 2.7597
" />
<path d="M1.8348 2.1930
L1.5649 2.1930
" />
<path d="M1.5649 2.1930
L1.5379 2.4629
" />
<path d="M1.5379 2.4629
L1.5649 2.4359
" />
<path d="M1.5649 2.4359
L1.6189 2.4089
" />
<path d="M1.6189 2.4089
L1.7538 2.4089
" />
<path d="M1.7538 2.4089
L1.8078 2.4359
" />
<path d="M1.8078 2.4359
L1.8348 2.4629
" />
<path d="M1.8348 2.4629
L1.8617 2.5168
" />
<path d="M1.8617 2.5168
L1.8617 2.6518
" />
<path d="M1.8617 2.6518
L1.8348 2.7057
" />
<path d="M1.8348 2.7057
L1.8078 2.7327
" />
<path d="M1.8078 2.7327
L1.7538 2.7597
" />
<path d="M1.7538 2.7597
L1.6189 2.7597
" />
<path d="M1.6189 2.7597
L1.5649 2.7327
" />
<path d="M1.5649 2.7327
L1.5379 2.7057
" />
</g></g>
<g style="fill:none; 
stroke:#585D84; stroke-width:0.0212; stroke-opacity:1; 
stroke-linecap:round; stroke-linejoin:round;">
<circle cx="1.4300" cy="2.5000" r="0.8500" /> 
</g>
<g style="fill:none; 
stroke:#AFAFAF; stroke-width:0.1500; stroke-opacity:1; 
stroke-linecap:round; stroke-linejoin:round;">
<text x="9.0500" y="35.9400"
textLength="16.5357" font-size="1.3333" lengthAdjust="spacingAndGlyphs"
text-anchor="middle" opacity="0" stroke-opacity="0">MCU_KB2040_Reverse</text>
<g class="stroked-text"><desc>MCU_KB2040_Reverse</desc>
<path d="M1.1452 35.8948
L1.1452 34.8948
" />
<path d="M1.1452 34.8948
L1.4786 35.6091
" />
<path d="M1.4786 35.6091
L1.8119 34.8948
" />
<path d="M1.8119 34.8948
L1.8119 35.8948
" />
<path d="M2.8595 35.7996
L2.8119 35.8472
" />
<path d="M2.8119 35.8472
L2.6690 35.8948
" />
<path d="M2.6690 35.8948
L2.5738 35.8948
" />
<path d="M2.5738 35.8948
L2.4310 35.8472
" />
<path d="M2.4310 35.8472
L2.3357 35.7520
" />
<path d="M2.3357 35.7520
L2.2881 35.6567
" />
<path d="M2.2881 35.6567
L2.2405 35.4662
" />
<path d="M2.2405 35.4662
L2.2405 35.3234
" />
<path d="M2.2405 35.3234
L2.2881 35.1329
" />
<path d="M2.2881 35.1329
L2.3357 35.0377
" />
<path d="M2.3357 35.0377
L2.4310 34.9424
" />
<path d="M2.4310 34.9424
L2.5738 34.8948
" />
<path d="M2.5738 34.8948
L2.6690 34.8948
" />
<path d="M2.6690 34.8948
L2.8119 34.9424
" />
<path d="M2.8119 34.9424
L2.8595 34.9901
" />
<path d="M3.2881 34.8948
L3.2881 35.7043
" />
<path d="M3.2881 35.7043
L3.3357 35.7996
" />
<path d="M3.3357 35.7996
L3.3833 35.8472
" />
<path d="M3.3833 35.8472
L3.4786 35.8948
" />
<path d="M3.4786 35.8948
L3.6690 35.8948
" />
<path d="M3.6690 35.8948
L3.7643 35.8472
" />
<path d="M3.7643 35.8472
L3.8119 35.7996
" />
<path d="M3.8119 35.7996
L3.8595 35.7043
" />
<path d="M3.8595 35.7043
L3.8595 34.8948
" />
<path d="M4.0976 35.9901
L4.8595 35.9901
" />
<path d="M5.0976 35.8948
L5.0976 34.8948
" />
<path d="M5.6690 35.8948
L5.2405 35.3234
" />
<path d="M5.6690 34.8948
L5.0976 35.4662
" />
<path d="M6.4310 35.3710
L6.5738 35.4186
" />
<path d="M6.5738 35.4186
L6.6214 35.4662
" />
<path d="M6.6214 35.4662
L6.6690 35.5615
" />
<path d="M6.6690 35.5615
L6.6690 35.7043
" />
<path d="M6.6690 35.7043
L6.6214 35.7996
" />
<path d="M6.6214 35.7996
L6.5738 35.8472
" />
<path d="M6.5738 35.8472
L6.4786 35.8948
" />
<path d="M6.4786 35.8948
L6.0976 35.8948
" />
<path d="M6.0976 35.8948
L6.0976 34.8948
" />
<path d="M6.0976 34.8948
L6.4310 34.8948
" />
<path d="M6.4310 34.8948
L6.5262 34.9424
" />
<path d="M6.5262 34.9424
L6.5738 34.9901
" />
<path d="M6.5738 34.9901
L6.6214 35.0853
" />
<path d="M6.6214 35.0853
L6.6214 35.1805
" />
<path d="M6.6214 35.1805
L6.5738 35.2758
" />
<path d="M6.5738 35.2758
L6.5262 35.3234
" />
<path d="M6.5262 35.3234
L6.4310 35.3710
" />
<path d="M6.4310 35.3710
L6.0976 35.3710
" />
<path d="M7.0500 34.9901
L7.0976 34.9424
" />
<path d="M7.0976 34.9424
L7.1929 34.8948
" />
<path d="M7.1929 34.8948
L7.4310 34.8948
" />
<path d="M7.4310 34.8948
L7.5262 34.9424
" />
<path d="M7.5262 34.9424
L7.5738 34.9901
" />
<path d="M7.5738 34.9901
L7.6214 35.0853
" />
<path d="M7.6214 35.0853
L7.6214 35.1805
" />
<path d="M7.6214 35.1805
L7.5738 35.3234
" />
<path d="M7.5738 35.3234
L7.0024 35.8948
" />
<path d="M7.0024 35.8948
L7.6214 35.8948
" />
<path d="M8.2405 34.8948
L8.3357 34.8948
" />
<path d="M8.3357 34.8948
L8.4310 34.9424
" />
<path d="M8.4310 34.9424
L8.4786 34.9901
" />
<path d="M8.4786 34.9901
L8.5262 35.0853
" />
<path d="M8.5262 35.0853
L8.5738 35.2758
" />
<path d="M8.5738 35.2758
L8.5738 35.5139
" />
<path d="M8.5738 35.5139
L8.5262 35.7043
" />
<path d="M8.5262 35.7043
L8.4786 35.7996
" />
<path d="M8.4786 35.7996
L8.4310 35.8472
" />
<path d="M8.4310 35.8472
L8.3357 35.8948
" />
<path d="M8.3357 35.8948
L8.2405 35.8948
" />
<path d="M8.2405 35.8948
L8.1452 35.8472
" />
<path d="M8.1452 35.8472
L8.0976 35.7996
" />
<path d="M8.0976 35.7996
L8.0500 35.7043
" />
<path d="M8.0500 35.7043
L8.0024 35.5139
" />
<path d="M8.0024 35.5139
L8.0024 35.2758
" />
<path d="M8.0024 35.2758
L8.0500 35.0853
" />
<path d="M8.0500 35.0853
L8.0976 34.9901
" />
<path d="M8.0976 34.9901
L8.1452 34.9424
" />
<path d="M8.1452 34.9424
L8.2405 34.8948
" />
<path d="M9.4310 35.2282
L9.4310 35.8948
" />
<path d="M9.1929 34.8472
L8.9548 35.5615
" />
<path d="M8.9548 35.5615
L9.5738 35.5615
" />
<path d="M10.1452 34.8948
L10.2405 34.8948
" />
<path d="M10.2405 34.8948
L10.3357 34.9424
" />
<path d="M10.3357 34.9424
L10.3833 34.9901
" />
<path d="M10.3833 34.9901
L10.4310 35.0853
" />
<path d="M10.4310 35.0853
L10.4786 35.2758
" />
<path d="M10.4786 35.2758
L10.4786 35.5139
" />
<path d="M10.4786 35.5139
L10.4310 35.7043
" />
<path d="M10.4310 35.7043
L10.3833 35.7996
" />
<path d="M10.3833 35.7996
L10.3357 35.8472
" />
<path d="M10.3357 35.8472
L10.2405 35.8948
" />
<path d="M10.2405 35.8948
L10.1452 35.8948
" />
<path d="M10.1452 35.8948
L10.0500 35.8472
" />
<path d="M10.0500 35.8472
L10.0024 35.7996
" />
<path d="M10.0024 35.7996
L9.9548 35.7043
" />
<path d="M9.9548 35.7043
L9.9071 35.5139
" />
<path d="M9.9071 35.5139
L9.9071 35.2758
" />
<path d="M9.9071 35.2758
L9.9548 35.0853
" />
<path d="M9.9548 35.0853
L10.0024 34.9901
" />
<path d="M10.0024 34.9901
L10.0500 34.9424
" />
<path d="M10.0500 34.9424
L10.1452 34.8948
" />
<path d="M10.6690 35.9901
L11.4310 35.9901
" />
<path d="M12.2405 35.8948
L11.9071 35.4186
" />
<path d="M11.6690 35.8948
L11.6690 34.8948
" />
<path d="M11.6690 34.8948
L12.0500 34.8948
" />
<path d="M12.0500 34.8948
L12.1452 34.9424
" />
<path d="M12.1452 34.9424
L12.1929 34.9901
" />
<path d="M12.1929 34.9901
L12.2405 35.0853
" />
<path d="M12.2405 35.0853
L12.2405 35.2282
" />
<path d="M12.2405 35.2282
L12.1929 35.3234
" />
<path d="M12.1929 35.3234
L12.1452 35.3710
" />
<path d="M12.1452 35.3710
L12.0500 35.4186
" />
<path d="M12.0500 35.4186
L11.6690 35.4186
" />
<path d="M13.0500 35.8472
L12.9548 35.8948
" />
<path d="M12.9548 35.8948
L12.7643 35.8948
" />
<path d="M12.7643 35.8948
L12.6690 35.8472
" />
<path d="M12.6690 35.8472
L12.6214 35.7520
" />
<path d="M12.6214 35.7520
L12.6214 35.3710
" />
<path d="M12.6214 35.3710
L12.6690 35.2758
" />
<path d="M12.6690 35.2758
L12.7643 35.2282
" />
<path d="M12.7643 35.2282
L12.9548 35.2282
" />
<path d="M12.9548 35.2282
L13.0500 35.2758
" />
<path d="M13.0500 35.2758
L13.0976 35.3710
" />
<path d="M13.0976 35.3710
L13.0976 35.4662
" />
<path d="M13.0976 35.4662
L12.6214 35.5615
" />
<path d="M13.4310 35.2282
L13.6690 35.8948
" />
<path d="M13.6690 35.8948
L13.9071 35.2282
" />
<path d="M14.6690 35.8472
L14.5738 35.8948
" />
<path d="M14.5738 35.8948
L14.3833 35.8948
" />
<path d="M14.3833 35.8948
L14.2881 35.8472
" />
<path d="M14.2881 35.8472
L14.2405 35.7520
" />
<path d="M14.2405 35.7520
L14.2405 35.3710
" />
<path d="M14.2405 35.3710
L14.2881 35.2758
" />
<path d="M14.2881 35.2758
L14.3833 35.2282
" />
<path d="M14.3833 35.2282
L14.5738 35.2282
" />
<path d="M14.5738 35.2282
L14.6690 35.2758
" />
<path d="M14.6690 35.2758
L14.7167 35.3710
" />
<path d="M14.7167 35.3710
L14.7167 35.4662
" />
<path d="M14.7167 35.4662
L14.2405 35.5615
" />
<path d="M15.1452 35.8948
L15.1452 35.2282
" />
<path d="M15.1452 35.4186
L15.1929 35.3234
" />
<path d="M15.1929 35.3234
L15.2405 35.2758
" />
<path d="M15.2405 35.2758
L15.3357 35.2282
" />
<path d="M15.3357 35.2282
L15.4310 35.2282
" />
<path d="M15.7167 35.8472
L15.8119 35.8948
" />
<path d="M15.8119 35.8948
L16.0024 35.8948
" />
<path d="M16.0024 35.8948
L16.0976 35.8472
" />
<path d="M16.0976 35.8472
L16.1452 35.7520
" />
<path d="M16.1452 35.7520
L16.1452 35.7043
" />
<path d="M16.1452 35.7043
L16.0976 35.6091
" />
<path d="M16.0976 35.6091
L16.0024 35.5615
" />
<path d="M16.0024 35.5615
L15.8595 35.5615
" />
<path d="M15.8595 35.5615
L15.7643 35.5139
" />
<path d="M15.7643 35.5139
L15.7167 35.4186
" />
<path d="M15.7167 35.4186
L15.7167 35.3710
" />
<path d="M15.7167 35.3710
L15.7643 35.2758
" />
<path d="M15.7643 35.2758
L15.8595 35.2282
" />
<path d="M15.8595 35.2282
L16.0024 35.2282
" />
<path d="M16.0024 35.2282
L16.0976 35.2758
" />
<path d="M16.9548 35.8472
L16.8595 35.8948
" />
<path d="M16.8595 35.8948
L16.6690 35.8948
" />
<path d="M16.6690 35.8948
L16.5738 35.8472
" />
<path d="M16.5738 35.8472
L16.5262 35.7520
" />
<path d="M16.5262 35.7520
L16.5262 35.3710
" />
<path d="M16.5262 35.3710
L16.5738 35.2758
" />
<path d="M16.5738 35.2758
L16.6690 35.2282
" />
<path d="M16.6690 35.2282
L16.8595 35.2282
" />
<path d="M16.8595 35.2282
L16.9548 35.2758
" />
<path d="M16.9548 35.2758
L17.0024 35.3710
" />
<path d="M17.0024 35.3710
L17.0024 35.4662
" />
<path d="M17.0024 35.4662
L16.5262 35.5615
" />
</g><text x="9.0500" y="18.2400"
textLength="4.5357" font-size="1.3333" lengthAdjust="spacingAndGlyphs"
text-anchor="middle" opacity="0" stroke-opacity="0">REF**</text>
<g class="stroked-text"><desc>REF**</desc>
<path d="M7.7167 18.1948
L7.3833 17.7186
" />
<path d="M7.1452 18.1948
L7.1452 17.1948
" />
<path d="M7.1452 17.1948
L7.5262 17.1948
" />
<path d="M7.5262 17.1948
L7.6214 17.2424
" />
<path d="M7.6214 17.2424
L7.6690 17.2901
" />
<path d="M7.6690 17.2901
L7.7167 17.3853
" />
<path d="M7.7167 17.3853
L7.7167 17.5282
" />
<path d="M7.7167 17.5282
L7.6690 17.6234
" />
<path d="M7.6690 17.6234
L7.6214 17.6710
" />
<path d="M7.6214 17.6710
L7.5262 17.7186
" />
<path d="M7.5262 17.7186
L7.1452 17.7186
" />
<path d="M8.1452 17.6710
L8.4786 17.6710
" />
<path d="M8.6214 18.1948
L8.1452 18.1948
" />
<path d="M8.1452 18.1948
L8.1452 17.1948
" />
<path d="M8.1452 17.1948
L8.6214 17.1948
" />
<path d="M9.3833 17.6710
L9.0500 17.6710
" />
<path d="M9.0500 18.1948
L9.0500 17.1948
" />
<path d="M9.0500 17.1948
L9.5262 17.1948
" />
<path d="M10.0500 17.1948
L10.0500 17.4329
" />
<path d="M9.8119 17.3377
L10.0500 17.4329
" />
<path d="M10.0500 17.4329
L10.2881 17.3377
" />
<path d="M9.9071 17.6234
L10.0500 17.4329
" />
<path d="M10.0500 17.4329
L10.1929 17.6234
" />
<path d="M10.8119 17.1948
L10.8119 17.4329
" />
<path d="M10.5738 17.3377
L10.8119 17.4329
" />
<path d="M10.8119 17.4329
L11.0500 17.3377
" />
<path d="M10.6690 17.6234
L10.8119 17.4329
" />
<path d="M10.8119 17.4329
L10.9548 17.6234
" />
</g><path style="fill:none; 
stroke:#AFAFAF; stroke-width:0.1000; stroke-opacity:1; 
stroke-linecap:round; stroke-linejoin:round;fill:none"
d="M 0.1600,1.2300
17.9400,1.2300
17.9400,34.2500
0.1600,34.2500
Z" /> 
<path style="fill:none; 
stroke:#AFAFAF; stroke-width:0.1000; stroke-opacity:1; 
stroke-linecap:round; stroke-linejoin:round;fill:none"
d="M 4.5500,0.0500
13.5500,0.0500
13.5500,1.2300
4.5500,1.2300
Z" /> 
</g>
<g style="fill:none; 
stroke:#AFAFAF; stroke-width:0.0472; stroke-opacity:1; 
stroke-linecap:round; stroke-linejoin:round;">
<text x="16.6700" y="2.7833"
textLength="0.5680" font-size="0.7556" lengthAdjust="spacingAndGlyphs"
text-anchor="middle" opacity="0" stroke-opacity="0">0</text>
<g class="stroked-text"><desc>0</desc>
<path d="M16.6430 2.1930
L16.6970 2.1930
" />
<path d="M16.6970 2.1930
L16.7510 2.2200
" />
<path d="M16.7510 2.2200
L16.7779 2.2470
" />
<path d="M16.7779 2.2470
L16.8049 2.3010
" />
<path d="M16.8049 2.3010
L16.8319 2.4089
" />
<path d="M16.8319 2.4089
L16.8319 2.5438
" />
<path d="M16.8319 2.5438
L16.8049 2.6518
" />
<path d="M16.8049 2.6518
L16.7779 2.7057
" />
<path d="M16.7779 2.7057
L16.7510 2.7327
" />
<path d="M16.7510 2.7327
L16.6970 2.7597
" />
<path d="M16.6970 2.7597
L16.6430 2.7597
" />
<path d="M16.6430 2.7597
L16.5890 2.7327
" />
<path d="M16.5890 2.7327
L16.5621 2.7057
" />
<path d="M16.5621 2.7057
L16.5351 2.6518
" />
<path d="M16.5351 2.6518
L16.5081 2.5438
" />
<path d="M16.5081 2.5438
L16.5081 2.4089
" />
<path d="M16.5081 2.4089
L16.5351 2.3010
" />
<path d="M16.5351 2.3010
L16.5621 2.2470
" />
<path d="M16.5621 2.2470
L16.5890 2.2200
" />
<path d="M16.5890 2.2200
L16.6430 2.1930
" />
</g><path style="fill:none; 
stroke:#AFAFAF; stroke-width:0.0212; stroke-opacity:1; 
stroke-linecap:round; stroke-linejoin:round;fill:none"
d="M 15.8200,1.9050
15.8394,1.8074
15.8947,1.7247
15.9774,1.6694
16.0750,1.6500
17.2650,1.6500
17.3626,1.6694
17.4453,1.7247
17.5006,1.8074
17.5200,1.9050
17.5200,3.0950
17.5006,3.1926
17.4453,3.2753
17.3626,3.3306
17.2650,3.3500
16.0750,3.3500
15.9774,3.3306
15.8947,3.2753
15.8394,3.1926
15.8200,3.0950
Z" /> 
</g>
<g style="fill:none; 
stroke:#AFAFAF; stroke-width:0.0472; stroke-opacity:1; 
stroke-linecap:round; stroke-linejoin:round;">
<text x="16.6700" y="5.3233"
textLength="0.5680" font-size="0.7556" lengthAdjust="spacingAndGlyphs"
text-anchor="middle" opacity="0" stroke-opacity="0">1</text>
<g class="stroked-text"><desc>1</desc>
<path d="M16.8319 5.2997
L16.5081 5.2997
" />
<path d="M16.6700 5.2997
L16.6700 4.7330
" />
<path d="M16.6700 4.7330
L16.6160 4.8140
" />
<path d="M16.6160 4.8140
L16.5621 4.8679
" />
<path d="M16.5621 4.8679
L16.5081 4.8949
" />
</g></g>
<g style="fill:none; 
stroke:#AFAFAF; stroke-width:0.0212; stroke-opacity:1; 
stroke-linecap:round; stroke-linejoin:round;">
<circle cx="16.6700" cy="5.0400" r="0.8500" /> 
</g>
<g style="fill:none; 
stroke:#AFAFAF; stroke-width:0.0472; stroke-opacity:1; 
stroke-linecap:round; stroke-linejoin:round;">
<text x="16.6700" y="7.8633"
textLength="0.5680" font-size="0.7556" lengthAdjust="spacingAndGlyphs"
text-anchor="middle" opacity="0" stroke-opacity="0">2</text>
<g class="stroked-text"><desc>2</desc>
<path d="M16.5081 7.3270
L16.5351 7.3000
" />
<path d="M16.5351 7.3000
L16.5890 7.2730
" />
<path d="M16.5890 7.2730
L16.7240 7.2730
" />
<path d="M16.7240 7.2730
L16.7779 7.3000
" />
<path d="M16.7779 7.3000
L16.8049 7.3270
" />
<path d="M16.8049 7.3270
L16.8319 7.3810
" />
<path d="M16.8319 7.3810
L16.8319 7.4349
" />
<path d="M16.8319 7.4349
L16.8049 7.5159
" />
<path d="M16.8049 7.5159
L16.4811 7.8397
" />
<path d="M16.4811 7.8397
L16.8319 7.8397
" />
</g></g>
<g style="fill:none; 
stroke:#AFAFAF; stroke-width:0.0212; stroke-opacity:1; 
stroke-linecap:round; stroke-linejoin:round;">
<circle cx="16.6700" cy="7.5800" r="0.8500" /> 
</g>
<g style="fill:none; 
stroke:#AFAFAF; stroke-width:0.0472; stroke-opacity:1; 
stroke-linecap:round; stroke-linejoin:round;">
<text x="16.6700" y="10.4033"
textLength="0.5680" font-size="0.7556" lengthAdjust="spacingAndGlyphs"
text-anchor="middle" opacity="0" stroke-opacity="0">3</text>
<g class="stroked-text"><desc>3</desc>
<path d="M16.4811 9.8130
L16.8319 9.8130
" />
<path d="M16.8319 9.8130
L16.6430 10.0289
" />
<path d="M16.6430 10.0289
L16.7240 10.0289
" />
<path d="M16.7240 10.0289
L16.7779 10.0559
" />
<path d="M16.7779 10.0559
L16.8049 10.0829
" />
<path d="M16.8049 10.0829
L16.8319 10.1368
" />
<path d="M16.8319 10.1368
L16.8319 10.2718
" />
<path d="M16.8319 10.2718
L16.8049 10.3257
" />
<path d="M16.8049 10.3257
L16.7779 10.3527
" />
<path d="M16.7779 10.3527
L16.7240 10.3797
" />
<path d="M16.7240 10.3797
L16.5621 10.3797
" />
<path d="M16.5621 10.3797
L16.5081 10.3527
" />
<path d="M16.5081 10.3527
L16.4811 10.3257
" />
</g></g>
<g style="fill:none; 
stroke:#AFAFAF; stroke-width:0.0212; stroke-opacity:1; 
stroke-linecap:round; stroke-linejoin:round;">
<circle cx="16.6700" cy="10.1200" r="0.8500" /> 
</g>
<g style="fill:none; 
stroke:#AFAFAF; stroke-width:0.0472; stroke-opacity:1; 
stroke-linecap:round; stroke-linejoin:round;">
<text x="16.6700" y="12.9433"
textLength="0.5680" font-size="0.7556" lengthAdjust="spacingAndGlyphs"
text-anchor="middle" opacity="0" stroke-opacity="0">4</text>
<g class="stroked-text"><desc>4</desc>
<path d="M16.7779 12.5419
L16.7779 12.9197
" />
<path d="M16.6430 12.3260
L16.5081 12.7308
" />
<path d="M16.5081 12.7308
L16.8589 12.7308
" />
</g></g>
<g style="fill:none; 
stroke:#AFAFAF; stroke-width:0.0212; stroke-opacity:1; 
stroke-linecap:round; stroke-linejoin:round;">
<circle cx="16.6700" cy="12.6600" r="0.8500" /> 
</g>
<g style="fill:none; 
stroke:#AFAFAF; stroke-width:0.0472; stroke-opacity:1; 
stroke-linecap:round; stroke-linejoin:round;">
<text x="16.6700" y="15.4833"
textLength="0.5680" font-size="0.7556" lengthAdjust="spacingAndGlyphs"
text-anchor="middle" opacity="0" stroke-opacity="0">5</text>
<g class="stroked-text"><desc>5</desc>
<path d="M16.8049 14.8930
L16.5351 14.8930
" />
<path d="M16.5351 14.8930
L16.5081 15.1629
" />
<path d="M16.5081 15.1629
L16.5351 15.1359
" />
<path d="M16.5351 15.1359
L16.5890 15.1089
" />
<path d="M16.5890 15.1089
L16.7240 15.1089
" />
<path d="M16.7240 15.1089
L16.7779 15.1359
" />
<path d="M16.7779 15.1359
L16.8049 15.1629
" />
<path d="M16.8049 15.1629
L16.8319 15.2168
" />
<path d="M16.8319 15.2168
L16.8319 15.3518
" />
<path d="M16.8319 15.3518
L16.8049 15.4057
" />
<path d="M16.8049 15.4057
L16.7779 15.4327
" />
<path d="M16.7779 15.4327
L16.7240 15.4597
" />
<path d="M16.7240 15.4597
L16.5890 15.4597
" />
<path d="M16.5890 15.4597
L16.5351 15.4327
" />
<path d="M16.5351 15.4327
L16.5081 15.4057
" />
</g></g>
<g style="fill:none; 
stroke:#AFAFAF; stroke-width:0.0212; stroke-opacity:1; 
stroke-linecap:round; stroke-linejoin:round;">
<circle cx="16.6700" cy="15.2000" r="0.8500" /> 
</g>
<g style="fill:none; 
stroke:#AFAFAF; stroke-width:0.0472; stroke-opacity:1; 
stroke-linecap:round; stroke-linejoin:round;">
<text x="16.6700" y="18.0233"
textLength="0.5680" font-size="0.7556" lengthAdjust="spacingAndGlyphs"
text-anchor="middle" opacity="0" stroke-opacity="0">6</text>
<g class="stroked-text"><desc>6</desc>
<path d="M16.7779 17.4330
L16.6700 17.4330
" />
<path d="M16.6700 17.4330
L16.6160 17.4600
" />
<path d="M16.6160 17.4600
L16.5890 17.4870
" />
<path d="M16.5890 17.4870
L16.5351 17.5679
" />
<path d="M16.5351 17.5679
L16.5081 17.6759
" />
<path d="M16.5081 17.6759
L16.5081 17.8918
" />
<path d="M16.5081 17.8918
L16.5351 17.9457
" />
<path d="M16.5351 17.9457
L16.5621 17.9727
" />
<path d="M16.5621 17.9727
L16.6160 17.9997
" />
<path d="M16.6160 17.9997
L16.7240 17.9997
" />
<path d="M16.7240 17.9997
L16.7779 17.9727
" />
<path d="M16.7779 17.9727
L16.8049 17.9457
" />
<path d="M16.8049 17.9457
L16.8319 17.8918
" />
<path d="M16.8319 17.8918
L16.8319 17.7568
" />
<path d="M16.8319 17.7568
L16.8049 17.7029
" />
<path d="M16.8049 17.7029
L16.7779 17.6759
" />
<path d="M16.7779 17.6759
L16.7240 17.6489
" />
<path d="M16.7240 17.6489
L16.6160 17.6489
" />
<path d="M16.6160 17.6489
L16.5621 17.6759
" />
<path d="M16.5621 17.6759
L16.5351 17.7029
" />
<path d="M16.5351 17.7029
L16.5081 17.7568
" />
</g></g>
<g style="fill:none; 
stroke:#AFAFAF; stroke-width:0.0212; stroke-opacity:1; 
stroke-linecap:round; stroke-linejoin:round;">
<circle cx="16.6700" cy="17.7400" r="0.8500" /> 
</g>
<g style="fill:none; 
stroke:#AFAFAF; stroke-width:0.0472; stroke-opacity:1; 
stroke-linecap:round; stroke-linejoin:round;">
<text x="16.6700" y="20.5633"
textLength="0.5680" font-size="0.7556" lengthAdjust="spacingAndGlyphs"
text-anchor="middle" opacity="0" stroke-opacity="0">7</text>
<g class="stroked-text"><desc>7</desc>
<path d="M16.4811 19.9730
L16.8589 19.9730
" />
<path d="M16.8589 19.9730
L16.6160 20.5397
" />
</g></g>
<g style="fill:none; 
stroke:#AFAFAF; stroke-width:0.0212; stroke-opacity:1; 
stroke-linecap:round; stroke-linejoin:round;">
<circle cx="16.6700" cy="20.2800" r="0.8500" /> 
</g>
<g style="fill:none; 
stroke:#AFAFAF; stroke-width:0.0472; stroke-opacity:1; 
stroke-linecap:round; stroke-linejoin:round;">
<text x="16.6700" y="23.1033"
textLength="0.5680" font-size="0.7556" lengthAdjust="spacingAndGlyphs"
text-anchor="middle" opacity="0" stroke-opacity="0">8</text>
<g class="stroked-text"><desc>8</desc>
<path d="M16.6160 22.7559
L16.5621 22.7289
" />
<path d="M16.5621 22.7289
L16.5351 22.7019
" />
<path d="M16.5351 22.7019
L16.5081 22.6479
" />
<path d="M16.5081 22.6479
L16.5081 22.6210
" />
<path d="M16.5081 22.6210
L16.5351 22.5670
" />
<path d="M16.5351 22.5670
L16.5621 22.5400
" />
<path d="M16.5621 22.5400
L16.6160 22.5130
" />
<path d="M16.6160 22.5130
L16.7240 22.5130
" />
<path d="M16.7240 22.5130
L16.7779 22.5400
" />
<path d="M16.7779 22.5400
L16.8049 22.5670
" />
<path d="M16.8049 22.5670
L16.8319 22.6210
" />
<path d="M16.8319 22.6210
L16.8319 22.6479
" />
<path d="M16.8319 22.6479
L16.8049 22.7019
" />
<path d="M16.8049 22.7019
L16.7779 22.7289
" />
<path d="M16.7779 22.7289
L16.7240 22.7559
" />
<path d="M16.7240 22.7559
L16.6160 22.7559
" />
<path d="M16.6160 22.7559
L16.5621 22.7829
" />
<path d="M16.5621 22.7829
L16.5351 22.8099
" />
<path d="M16.5351 22.8099
L16.5081 22.8638
" />
<path d="M16.5081 22.8638
L16.5081 22.9718
" />
<path d="M16.5081 22.9718
L16.5351 23.0257
" />
<path d="M16.5351 23.0257
L16.5621 23.0527
" />
<path d="M16.5621 23.0527
L16.6160 23.0797
" />
<path d="M16.6160 23.0797
L16.7240 23.0797
" />
<path d="M16.7240 23.0797
L16.7779 23.0527
" />
<path d="M16.7779 23.0527
L16.8049 23.0257
" />
<path d="M16.8049 23.0257
L16.8319 22.9718
" />
<path d="M16.8319 22.9718
L16.8319 22.8638
" />
<path d="M16.8319 22.8638
L16.8049 22.8099
" />
<path d="M16.8049 22.8099
L16.7779 22.7829
" />
<path d="M16.7779 22.7829
L16.7240 22.7559
" />
</g></g>
<g style="fill:none; 
stroke:#AFAFAF; stroke-width:0.0212; stroke-opacity:1; 
stroke-linecap:round; stroke-linejoin:round;">
<circle cx="16.6700" cy="22.8200" r="0.8500" /> 
</g>
<g style="fill:none; 
stroke:#AFAFAF; stroke-width:0.0472; stroke-opacity:1; 
stroke-linecap:round; stroke-linejoin:round;">
<text x="16.6700" y="25.6433"
textLength="0.5680" font-size="0.7556" lengthAdjust="spacingAndGlyphs"
text-anchor="middle" opacity="0" stroke-opacity="0">9</text>
<g class="stroked-text"><desc>9</desc>
<path d="M16.5621 25.6197
L16.6700 25.6197
" />
<path d="M16.6700 25.6197
L16.7240 25.5927
" />
<path d="M16.7240 25.5927
L16.7510 25.5657
" />
<path d="M16.7510 25.5657
L16.8049 25.4848
" />
<path d="M16.8049 25.4848
L16.8319 25.3768
" />
<path d="M16.8319 25.3768
L16.8319 25.1610
" />
<path d="M16.8319 25.1610
L16.8049 25.1070
" />
<path d="M16.8049 25.1070
L16.7779 25.0800
" />
<path d="M16.7779 25.0800
L16.7240 25.0530
" />
<path d="M16.7240 25.0530
L16.6160 25.0530
" />
<path d="M16.6160 25.0530
L16.5621 25.0800
" />
<path d="M16.5621 25.0800
L16.5351 25.1070
" />
<path d="M16.5351 25.1070
L16.5081 25.1610
" />
<path d="M16.5081 25.1610
L16.5081 25.2959
" />
<path d="M16.5081 25.2959
L16.5351 25.3499
" />
<path d="M16.5351 25.3499
L16.5621 25.3768
" />
<path d="M16.5621 25.3768
L16.6160 25.4038
" />
<path d="M16.6160 25.4038
L16.7240 25.4038
" />
<path d="M16.7240 25.4038
L16.7779 25.3768
" />
<path d="M16.7779 25.3768
L16.8049 25.3499
" />
<path d="M16.8049 25.3499
L16.8319 25.2959
" />
</g></g>
<g style="fill:none; 
stroke:#AFAFAF; stroke-width:0.0212; stroke-opacity:1; 
stroke-linecap:round; stroke-linejoin:round;">
<circle cx="16.6700" cy="25.3600" r="0.8500" /> 
</g>
<g style="fill:none; 
stroke:#AFAFAF; stroke-width:0.0472; stroke-opacity:1; 
stroke-linecap:round; stroke-linejoin:round;">
<text x="16.6700" y="28.1833"
textLength="1.1077" font-size="0.7556" lengthAdjust="spacingAndGlyphs"
text-anchor="middle" opacity="0" stroke-opacity="0">10</text>
<g class="stroked-text"><desc>10</desc>
<path d="M16.5621 28.1597
L16.2383 28.1597
" />
<path d="M16.4002 28.1597
L16.4002 27.5930
" />
<path d="M16.4002 27.5930
L16.3462 27.6740
" />
<path d="M16.3462 27.6740
L16.2922 27.7279
" />
<path d="M16.2922 27.7279
L16.2383 27.7549
" />
<path d="M16.9129 27.5930
L16.9668 27.5930
" />
<path d="M16.9668 27.5930
L17.0208 27.6200
" />
<path d="M17.0208 27.6200
L17.0478 27.6470
" />
<path d="M17.0478 27.6470
L17.0748 27.7010
" />
<path d="M17.0748 27.7010
L17.1017 27.8089
" />
<path d="M17.1017 27.8089
L17.1017 27.9438
" />
<path d="M17.1017 27.9438
L17.0748 28.0518
" />
<path d="M17.0748 28.0518
L17.0478 28.1057
" />
<path d="M17.0478 28.1057
L17.0208 28.1327
" />
<path d="M17.0208 28.1327
L16.9668 28.1597
" />
<path d="M16.9668 28.1597
L16.9129 28.1597
" />
<path d="M16.9129 28.1597
L16.8589 28.1327
" />
<path d="M16.8589 28.1327
L16.8319 28.1057
" />
<path d="M16.8319 28.1057
L16.8049 28.0518
" />
<path d="M16.8049 28.0518
L16.7779 27.9438
" />
<path d="M16.7779 27.9438
L16.7779 27.8089
" />
<path d="M16.7779 27.8089
L16.8049 27.7010
" />
<path d="M16.8049 27.7010
L16.8319 27.6470
" />
<path d="M16.8319 27.6470
L16.8589 27.6200
" />
<path d="M16.8589 27.6200
L16.9129 27.5930
" />
</g></g>
<g style="fill:none; 
stroke:#AFAFAF; stroke-width:0.0212; stroke-opacity:1; 
stroke-linecap:round; stroke-linejoin:round;">
<circle cx="16.6700" cy="27.9000" r="0.8500" /> 
</g>
<g style="fill:none; 
stroke:#AFAFAF; stroke-width:0.0472; stroke-opacity:1; 
stroke-linecap:round; stroke-linejoin:round;">
<text x="16.6700" y="30.7233"
textLength="1.1077" font-size="0.7556" lengthAdjust="spacingAndGlyphs"
text-anchor="middle" opacity="0" stroke-opacity="0">11</text>
<g class="stroked-text"><desc>11</desc>
<path d="M16.5621 30.6997
L16.2383 30.6997
" />
<path d="M16.4002 30.6997
L16.4002 30.1330
" />
<path d="M16.4002 30.1330
L16.3462 30.2140
" />
<path d="M16.3462 30.2140
L16.2922 30.2679
" />
<path d="M16.2922 30.2679
L16.2383 30.2949
" />
<path d="M17.1017 30.6997
L16.7779 30.6997
" />
<path d="M16.9398 30.6997
L16.9398 30.1330
" />
<path d="M16.9398 30.1330
L16.8859 30.2140
" />
<path d="M16.8859 30.2140
L16.8319 30.2679
" />
<path d="M16.8319 30.2679
L16.7779 30.2949
" />
</g></g>
<g style="fill:none; 
stroke:#AFAFAF; stroke-width:0.0212; stroke-opacity:1; 
stroke-linecap:round; stroke-linejoin:round;">
<circle cx="16.6700" cy="30.4400" r="0.8500" /> 
</g>
<g style="fill:none; 
stroke:#AFAFAF; stroke-width:0.0472; stroke-opacity:1; 
stroke-linecap:round; stroke-linejoin:round;">
<text x="16.6700" y="33.2633"
textLength="1.1077" font-size="0.7556" lengthAdjust="spacingAndGlyphs"
text-anchor="middle" opacity="0" stroke-opacity="0">12</text>
<g class="stroked-text"><desc>12</desc>
<path d="M16.5621 33.2397
L16.2383 33.2397
" />
<path d="M16.4002 33.2397
L16.4002 32.6730
" />
<path d="M16.4002 32.6730
L16.3462 32.7540
" />
<path d="M16.3462 32.7540
L16.2922 32.8079
" />
<path d="M16.2922 32.8079
L16.2383 32.8349
" />
<path d="M16.7779 32.7270
L16.8049 32.7000
" />
<path d="M16.8049 32.7000
L16.8589 32.6730
" />
<path d="M16.8589 32.6730
L16.9938 32.6730
" />
<path d="M16.9938 32.6730
L17.0478 32.7000
" />
<path d="M17.0478 32.7000
L17.0748 32.7270
" />
<path d="M17.0748 32.7270
L17.1017 32.7810
" />
<path d="M17.1017 32.7810
L17.1017 32.8349
" />
<path d="M17.1017 32.8349
L17.0748 32.9159
" />
<path d="M17.0748 32.9159
L16.7510 33.2397
" />
<path d="M16.7510 33.2397
L17.1017 33.2397
" />
</g></g>
<g style="fill:none; 
stroke:#AFAFAF; stroke-width:0.0212; stroke-opacity:1; 
stroke-linecap:round; stroke-linejoin:round;">
<circle cx="16.6700" cy="32.9800" r="0.8500" /> 
</g>
<g style="fill:none; 
stroke:#AFAFAF; stroke-width:0.0472; stroke-opacity:1; 
stroke-linecap:round; stroke-linejoin:round;">
<text x="1.4300" y="33.2633"
textLength="1.1077" font-size="0.7556" lengthAdjust="spacingAndGlyphs"
text-anchor="middle" opacity="0" stroke-opacity="0">13</text>
<g class="stroked-text"><desc>13</desc>
<path d="M1.3221 33.2397
L0.9983 33.2397
" />
<path d="M1.1602 33.2397
L1.1602 32.6730
" />
<path d="M1.1602 32.6730
L1.1062 32.7540
" />
<path d="M1.1062 32.7540
L1.0522 32.8079
" />
<path d="M1.0522 32.8079
L0.9983 32.8349
" />
<path d="M1.5110 32.6730
L1.8617 32.6730
" />
<path d="M1.8617 32.6730
L1.6729 32.8889
" />
<path d="M1.6729 32.8889
L1.7538 32.8889
" />
<path d="M1.7538 32.8889
L1.8078 32.9159
" />
<path d="M1.8078 32.9159
L1.8348 32.9429
" />
<path d="M1.8348 32.9429
L1.8617 32.9968
" />
<path d="M1.8617 32.9968
L1.8617 33.1318
" />
<path d="M1.8617 33.1318
L1.8348 33.1857
" />
<path d="M1.8348 33.1857
L1.8078 33.2127
" />
<path d="M1.8078 33.2127
L1.7538 33.2397
" />
<path d="M1.7538 33.2397
L1.5919 33.2397
" />
<path d="M1.5919 33.2397
L1.5379 33.2127
" />
<path d="M1.5379 33.2127
L1.5110 33.1857
" />
</g></g>
<g style="fill:none; 
stroke:#AFAFAF; stroke-width:0.0212; stroke-opacity:1; 
stroke-linecap:round; stroke-linejoin:round;">
<circle cx="1.4300" cy="32.9800" r="0.8500" /> 
</g>
<g style="fill:none; 
stroke:#AFAFAF; stroke-width:0.0472; stroke-opacity:1; 
stroke-linecap:round; stroke-linejoin:round;">
<text x="1.4300" y="30.7233"
textLength="1.1077" font-size="0.7556" lengthAdjust="spacingAndGlyphs"
text-anchor="middle" opacity="0" stroke-opacity="0">14</text>
<g class="stroked-text"><desc>14</desc>
<path d="M1.3221 30.6997
L0.9983 30.6997
" />
<path d="M1.1602 30.6997
L1.1602 30.1330
" />
<path d="M1.1602 30.1330
L1.1062 30.2140
" />
<path d="M1.1062 30.2140
L1.0522 30.2679
" />
<path d="M1.0522 30.2679
L0.9983 30.2949
" />
<path d="M1.8078 30.3219
L1.8078 30.6997
" />
<path d="M1.6729 30.1060
L1.5379 30.5108
" />
<path d="M1.5379 30.5108
L1.8887 30.5108
" />
</g></g>
<g style="fill:none; 
stroke:#AFAFAF; stroke-width:0.0212; stroke-opacity:1; 
stroke-linecap:round; stroke-linejoin:round;">
<circle cx="1.4300" cy="30.4400" r="0.8500" /> 
</g>
<g style="fill:none; 
stroke:#AFAFAF; stroke-width:0.0472; stroke-opacity:1; 
stroke-linecap:round; stroke-linejoin:round;">
<text x="1.4300" y="28.1833"
textLength="1.1077" font-size="0.7556" lengthAdjust="spacingAndGlyphs"
text-anchor="middle" opacity="0" stroke-opacity="0">15</text>
<g class="stroked-text"><desc>15</desc>
<path d="M1.3221 28.1597
L0.9983 28.1597
" />
<path d="M1.1602 28.1597
L1.1602 27.5930
" />
<path d="M1.1602 27.5930
L1.1062 27.6740
" />
<path d="M1.1062 27.6740
L1.0522 27.7279
" />
<path d="M1.0522 27.7279
L0.9983 27.7549
" />
<path d="M1.8348 27.5930
L1.5649 27.5930
" />
<path d="M1.5649 27.5930
L1.5379 27.8629
" />
<path d="M1.5379 27.8629
L1.5649 27.8359
" />
<path d="M1.5649 27.8359
L1.6189 27.8089
" />
<path d="M1.6189 27.8089
L1.7538 27.8089
" />
<path d="M1.7538 27.8089
L1.8078 27.8359
" />
<path d="M1.8078 27.8359
L1.8348 27.8629
" />
<path d="M1.8348 27.8629
L1.8617 27.9168
" />
<path d="M1.8617 27.9168
L1.8617 28.0518
" />
<path d="M1.8617 28.0518
L1.8348 28.1057
" />
<path d="M1.8348 28.1057
L1.8078 28.1327
" />
<path d="M1.8078 28.1327
L1.7538 28.1597
" />
<path d="M1.7538 28.1597
L1.6189 28.1597
" />
<path d="M1.6189 28.1597
L1.5649 28.1327
" />
<path d="M1.5649 28.1327
L1.5379 28.1057
" />
</g></g>
<g style="fill:none; 
stroke:#AFAFAF; stroke-width:0.0212; stroke-opacity:1; 
stroke-linecap:round; stroke-linejoin:round;">
<circle cx="1.4300" cy="27.9000" r="0.8500" /> 
</g>
<g style="fill:none; 
stroke:#AFAFAF; stroke-width:0.0472; stroke-opacity:1; 
stroke-linecap:round; stroke-linejoin:round;">
<text x="1.4300" y="25.6433"
textLength="1.1077" font-size="0.7556" lengthAdjust="spacingAndGlyphs"
text-anchor="middle" opacity="0" stroke-opacity="0">16</text>
<g class="stroked-text"><desc>16</desc>
<path d="M1.3221 25.6197
L0.9983 25.6197
" />
<path d="M1.1602 25.6197
L1.1602 25.0530
" />
<path d="M1.1602 25.0530
L1.1062 25.1340
" />
<path d="M1.1062 25.1340
L1.0522 25.1879
" />
<path d="M1.0522 25.1879
L0.9983 25.2149
" />
<path d="M1.8078 25.0530
L1.6998 25.0530
" />
<path d="M1.6998 25.0530
L1.6459 25.0800
" />
<path d="M1.6459 25.0800
L1.6189 25.1070
" />
<path d="M1.6189 25.1070
L1.5649 25.1879
" />
<path d="M1.5649 25.1879
L1.5379 25.2959
" />
<path d="M1.5379 25.2959
L1.5379 25.5118
" />
<path d="M1.5379 25.5118
L1.5649 25.5657
" />
<path d="M1.5649 25.5657
L1.5919 25.5927
" />
<path d="M1.5919 25.5927
L1.6459 25.6197
" />
<path d="M1.6459 25.6197
L1.7538 25.6197
" />
<path d="M1.7538 25.6197
L1.8078 25.5927
" />
<path d="M1.8078 25.5927
L1.8348 25.5657
" />
<path d="M1.8348 25.5657
L1.8617 25.5118
" />
<path d="M1.8617 25.5118
L1.8617 25.3768
" />
<path d="M1.8617 25.3768
L1.8348 25.3229
" />
<path d="M1.8348 25.3229
L1.8078 25.2959
" />
<path d="M1.8078 25.2959
L1.7538 25.2689
" />
<path d="M1.7538 25.2689
L1.6459 25.2689
" />
<path d="M1.6459 25.2689
L1.5919 25.2959
" />
<path d="M1.5919 25.2959
L1.5649 25.3229
" />
<path d="M1.5649 25.3229
L1.5379 25.3768
" />
</g></g>
<g style="fill:none; 
stroke:#AFAFAF; stroke-width:0.0212; stroke-opacity:1; 
stroke-linecap:round; stroke-linejoin:round;">
<circle cx="1.4300" cy="25.3600" r="0.8500" /> 
</g>
<g style="fill:none; 
stroke:#AFAFAF; stroke-width:0.0472; stroke-opacity:1; 
stroke-linecap:round; stroke-linejoin:round;">
<text x="1.4300" y="23.1033"
textLength="1.1077" font-size="0.7556" lengthAdjust="spacingAndGlyphs"
text-anchor="middle" opacity="0" stroke-opacity="0">17</text>
<g class="stroked-text"><desc>17</desc>
<path d="M1.3221 23.0797
L0.9983 23.0797
" />
<path d="M1.1602 23.0797
L1.1602 22.5130
" />
<path d="M1.1602 22.5130
L1.1062 22.5940
" />
<path d="M1.1062 22.5940
L1.0522 22.6479
" />
<path d="M1.0522 22.6479
L0.9983 22.6749
" />
<path d="M1.5110 22.5130
L1.8887 22.5130
" />
<path d="M1.8887 22.5130
L1.6459 23.0797
" />
</g></g>
<g style="fill:none; 
stroke:#AFAFAF; stroke-width:0.0212; stroke-opacity:1; 
stroke-linecap:round; stroke-linejoin:round;">
<circle cx="1.4300" cy="22.8200" r="0.8500" /> 
</g>
<g style="fill:none; 
stroke:#AFAFAF; stroke-width:0.0472; stroke-opacity:1; 
stroke-linecap:round; stroke-linejoin:round;">
<text x="1.4300" y="20.5633"
textLength="1.1077" font-size="0.7556" lengthAdjust="spacingAndGlyphs"
text-anchor="middle" opacity="0" stroke-opacity="0">18</text>
<g class="stroked-text"><desc>18</desc>
<path d="M1.3221 20.5397
L0.9983 20.5397
" />
<path d="M1.1602 20.5397
L1.1602 19.9730
" />
<path d="M1.1602 19.9730
L1.1062 20.0540
" />
<path d="M1.1062 20.0540
L1.0522 20.1079
" />
<path d="M1.0522 20.1079
L0.9983 20.1349
" />
<path d="M1.6459 20.2159
L1.5919 20.1889
" />
<path d="M1.5919 20.1889
L1.5649 20.1619
" />
<path d="M1.5649 20.1619
L1.5379 20.1079
" />
<path d="M1.5379 20.1079
L1.5379 20.0810
" />
<path d="M1.5379 20.0810
L1.5649 20.0270
" />
<path d="M1.5649 20.0270
L1.5919 20.0000
" />
<path d="M1.5919 20.0000
L1.6459 19.9730
" />
<path d="M1.6459 19.9730
L1.7538 19.9730
" />
<path d="M1.7538 19.9730
L1.8078 20.0000
" />
<path d="M1.8078 20.0000
L1.8348 20.0270
" />
<path d="M1.8348 20.0270
L1.8617 20.0810
" />
<path d="M1.8617 20.0810
L1.8617 20.1079
" />
<path d="M1.8617 20.1079
L1.8348 20.1619
" />
<path d="M1.8348 20.1619
L1.8078 20.1889
" />
<path d="M1.8078 20.1889
L1.7538 20.2159
" />
<path d="M1.7538 20.2159
L1.6459 20.2159
" />
<path d="M1.6459 20.2159
L1.5919 20.2429
" />
<path d="M1.5919 20.2429
L1.5649 20.2699
" />
<path d="M1.5649 20.2699
L1.5379 20.3238
" />
<path d="M1.5379 20.3238
L1.5379 20.4318
" />
<path d="M1.5379 20.4318
L1.5649 20.4857
" />
<path d="M1.5649 20.4857
L1.5919 20.5127
" />
<path d="M1.5919 20.5127
L1.6459 20.5397
" />
<path d="M1.6459 20.5397
L1.7538 20.5397
" />
<path d="M1.7538 20.5397
L1.8078 20.5127
" />
<path d="M1.8078 20.5127
L1.8348 20.4857
" />
<path d="M1.8348 20.4857
L1.8617 20.4318
" />
<path d="M1.8617 20.4318
L1.8617 20.3238
" />
<path d="M1.8617 20.3238
L1.8348 20.2699
" />
<path d="M1.8348 20.2699
L1.8078 20.2429
" />
<path d="M1.8078 20.2429
L1.7538 20.2159
" />
</g></g>
<g style="fill:none; 
stroke:#AFAFAF; stroke-width:0.0212; stroke-opacity:1; 
stroke-linecap:round; stroke-linejoin:round;">
<circle cx="1.4300" cy="20.2800" r="0.8500" /> 
</g>
<g style="fill:none; 
stroke:#AFAFAF; stroke-width:0.0472; stroke-opacity:1; 
stroke-linecap:round; stroke-linejoin:round;">
<text x="1.4300" y="18.0233"
textLength="1.1077" font-size="0.7556" lengthAdjust="spacingAndGlyphs"
text-anchor="middle" opacity="0" stroke-opacity="0">19</text>
<g class="stroked-text"><desc>19</desc>
<path d="M1.3221 17.9997
L0.9983 17.9997
" />
<path d="M1.1602 17.9997
L1.1602 17.4330
" />
<path d="M1.1602 17.4330
L1.1062 17.5140
" />
<path d="M1.1062 17.5140
L1.0522 17.5679
" />
<path d="M1.0522 17.5679
L0.9983 17.5949
" />
<path d="M1.5919 17.9997
L1.6998 17.9997
" />
<path d="M1.6998 17.9997
L1.7538 17.9727
" />
<path d="M1.7538 17.9727
L1.7808 17.9457
" />
<path d="M1.7808 17.9457
L1.8348 17.8648
" />
<path d="M1.8348 17.8648
L1.8617 17.7568
" />
<path d="M1.8617 17.7568
L1.8617 17.5410
" />
<path d="M1.8617 17.5410
L1.8348 17.4870
" />
<path d="M1.8348 17.4870
L1.8078 17.4600
" />
<path d="M1.8078 17.4600
L1.7538 17.4330
" />
<path d="M1.7538 17.4330
L1.6459 17.4330
" />
<path d="M1.6459 17.4330
L1.5919 17.4600
" />
<path d="M1.5919 17.4600
L1.5649 17.4870
" />
<path d="M1.5649 17.4870
L1.5379 17.5410
" />
<path d="M1.5379 17.5410
L1.5379 17.6759
" />
<path d="M1.5379 17.6759
L1.5649 17.7299
" />
<path d="M1.5649 17.7299
L1.5919 17.7568
" />
<path d="M1.5919 17.7568
L1.6459 17.7838
" />
<path d="M1.6459 17.7838
L1.7538 17.7838
" />
<path d="M1.7538 17.7838
L1.8078 17.7568
" />
<path d="M1.8078 17.7568
L1.8348 17.7299
" />
<path d="M1.8348 17.7299
L1.8617 17.6759
" />
</g></g>
<g style="fill:none; 
stroke:#AFAFAF; stroke-width:0.0212; stroke-opacity:1; 
stroke-linecap:round; stroke-linejoin:round;">
<circle cx="1.4300" cy="17.7400" r="0.8500" /> 
</g>
<g style="fill:none; 
stroke:#AFAFAF; stroke-width:0.0472; stroke-opacity:1; 
stroke-linecap:round; stroke-linejoin:round;">
<text x="1.4300" y="15.4833"
textLength="1.1077" font-size="0.7556" lengthAdjust="spacingAndGlyphs"
text-anchor="middle" opacity="0" stroke-opacity="0">20</text>
<g class="stroked-text"><desc>20</desc>
<path d="M0.9983 14.9470
L1.0252 14.9200
" />
<path d="M1.0252 14.9200
L1.0792 14.8930
" />
<path d="M1.0792 14.8930
L1.2141 14.8930
" />
<path d="M1.2141 14.8930
L1.2681 14.9200
" />
<path d="M1.2681 14.9200
L1.2951 14.9470
" />
<path d="M1.2951 14.9470
L1.3221 15.0010
" />
<path d="M1.3221 15.0010
L1.3221 15.0549
" />
<path d="M1.3221 15.0549
L1.2951 15.1359
" />
<path d="M1.2951 15.1359
L0.9713 15.4597
" />
<path d="M0.9713 15.4597
L1.3221 15.4597
" />
<path d="M1.6729 14.8930
L1.7268 14.8930
" />
<path d="M1.7268 14.8930
L1.7808 14.9200
" />
<path d="M1.7808 14.9200
L1.8078 14.9470
" />
<path d="M1.8078 14.9470
L1.8348 15.0010
" />
<path d="M1.8348 15.0010
L1.8617 15.1089
" />
<path d="M1.8617 15.1089
L1.8617 15.2438
" />
<path d="M1.8617 15.2438
L1.8348 15.3518
" />
<path d="M1.8348 15.3518
L1.8078 15.4057
" />
<path d="M1.8078 15.4057
L1.7808 15.4327
" />
<path d="M1.7808 15.4327
L1.7268 15.4597
" />
<path d="M1.7268 15.4597
L1.6729 15.4597
" />
<path d="M1.6729 15.4597
L1.6189 15.4327
" />
<path d="M1.6189 15.4327
L1.5919 15.4057
" />
<path d="M1.5919 15.4057
L1.5649 15.3518
" />
<path d="M1.5649 15.3518
L1.5379 15.2438
" />
<path d="M1.5379 15.2438
L1.5379 15.1089
" />
<path d="M1.5379 15.1089
L1.5649 15.0010
" />
<path d="M1.5649 15.0010
L1.5919 14.9470
" />
<path d="M1.5919 14.9470
L1.6189 14.9200
" />
<path d="M1.6189 14.9200
L1.6729 14.8930
" />
</g></g>
<g style="fill:none; 
stroke:#AFAFAF; stroke-width:0.0212; stroke-opacity:1; 
stroke-linecap:round; stroke-linejoin:round;">
<circle cx="1.4300" cy="15.2000" r="0.8500" /> 
</g>
<g style="fill:none; 
stroke:#AFAFAF; stroke-width:0.0472; stroke-opacity:1; 
stroke-linecap:round; stroke-linejoin:round;">
<text x="1.4300" y="12.9433"
textLength="1.1077" font-size="0.7556" lengthAdjust="spacingAndGlyphs"
text-anchor="middle" opacity="0" stroke-opacity="0">21</text>
<g class="stroked-text"><desc>21</desc>
<path d="M0.9983 12.4070
L1.0252 12.3800
" />
<path d="M1.0252 12.3800
L1.0792 12.3530
" />
<path d="M1.0792 12.3530
L1.2141 12.3530
" />
<path d="M1.2141 12.3530
L1.2681 12.3800
" />
<path d="M1.2681 12.3800
L1.2951 12.4070
" />
<path d="M1.2951 12.4070
L1.3221 12.4610
" />
<path d="M1.3221 12.4610
L1.3221 12.5149
" />
<path d="M1.3221 12.5149
L1.2951 12.5959
" />
<path d="M1.2951 12.5959
L0.9713 12.9197
" />
<path d="M0.9713 12.9197
L1.3221 12.9197
" />
<path d="M1.8617 12.9197
L1.5379 12.9197
" />
<path d="M1.6998 12.9197
L1.6998 12.3530
" />
<path d="M1.6998 12.3530
L1.6459 12.4340
" />
<path d="M1.6459 12.4340
L1.5919 12.4879
" />
<path d="M1.5919 12.4879
L1.5379 12.5149
" />
</g></g>
<g style="fill:none; 
stroke:#AFAFAF; stroke-width:0.0212; stroke-opacity:1; 
stroke-linecap:round; stroke-linejoin:round;">
<circle cx="1.4300" cy="12.6600" r="0.8500" /> 
</g>
<g style="fill:none; 
stroke:#AFAFAF; stroke-width:0.0472; stroke-opacity:1; 
stroke-linecap:round; stroke-linejoin:round;">
<text x="1.4300" y="10.4033"
textLength="1.1077" font-size="0.7556" lengthAdjust="spacingAndGlyphs"
text-anchor="middle" opacity="0" stroke-opacity="0">22</text>
<g class="stroked-text"><desc>22</desc>
<path d="M0.9983 9.8670
L1.0252 9.8400
" />
<path d="M1.0252 9.8400
L1.0792 9.8130
" />
<path d="M1.0792 9.8130
L1.2141 9.8130
" />
<path d="M1.2141 9.8130
L1.2681 9.8400
" />
<path d="M1.2681 9.8400
L1.2951 9.8670
" />
<path d="M1.2951 9.8670
L1.3221 9.9210
" />
<path d="M1.3221 9.9210
L1.3221 9.9749
" />
<path d="M1.3221 9.9749
L1.2951 10.0559
" />
<path d="M1.2951 10.0559
L0.9713 10.3797
" />
<path d="M0.9713 10.3797
L1.3221 10.3797
" />
<path d="M1.5379 9.8670
L1.5649 9.8400
" />
<path d="M1.5649 9.8400
L1.6189 9.8130
" />
<path d="M1.6189 9.8130
L1.7538 9.8130
" />
<path d="M1.7538 9.8130
L1.8078 9.8400
" />
<path d="M1.8078 9.8400
L1.8348 9.8670
" />
<path d="M1.8348 9.8670
L1.8617 9.9210
" />
<path d="M1.8617 9.9210
L1.8617 9.9749
" />
<path d="M1.8617 9.9749
L1.8348 10.0559
" />
<path d="M1.8348 10.0559
L1.5110 10.3797
" />
<path d="M1.5110 10.3797
L1.8617 10.3797
" />
</g></g>
<g style="fill:none; 
stroke:#AFAFAF; stroke-width:0.0212; stroke-opacity:1; 
stroke-linecap:round; stroke-linejoin:round;">
<circle cx="1.4300" cy="10.1200" r="0.8500" /> 
</g>
<g style="fill:none; 
stroke:#AFAFAF; stroke-width:0.0472; stroke-opacity:1; 
stroke-linecap:round; stroke-linejoin:round;">
<text x="1.4300" y="7.8633"
textLength="1.1077" font-size="0.7556" lengthAdjust="spacingAndGlyphs"
text-anchor="middle" opacity="0" stroke-opacity="0">23</text>
<g class="stroked-text"><desc>23</desc>
<path d="M0.9983 7.3270
L1.0252 7.3000
" />
<path d="M1.0252 7.3000
L1.0792 7.2730
" />
<path d="M1.0792 7.2730
L1.2141 7.2730
" />
<path d="M1.2141 7.2730
L1.2681 7.3000
" />
<path d="M1.2681 7.3000
L1.2951 7.3270
" />
<path d="M1.2951 7.3270
L1.3221 7.3810
" />
<path d="M1.3221 7.3810
L1.3221 7.4349
" />
<path d="M1.3221 7.4349
L1.2951 7.5159
" />
<path d="M1.2951 7.5159
L0.9713 7.8397
" />
<path d="M0.9713 7.8397
L1.3221 7.8397
" />
<path d="M1.5110 7.2730
L1.8617 7.2730
" />
<path d="M1.8617 7.2730
L1.6729 7.4889
" />
<path d="M1.6729 7.4889
L1.7538 7.4889
" />
<path d="M1.7538 7.4889
L1.8078 7.5159
" />
<path d="M1.8078 7.5159
L1.8348 7.5429
" />
<path d="M1.8348 7.5429
L1.8617 7.5968
" />
<path d="M1.8617 7.5968
L1.8617 7.7318
" />
<path d="M1.8617 7.7318
L1.8348 7.7857
" />
<path d="M1.8348 7.7857
L1.8078 7.8127
" />
<path d="M1.8078 7.8127
L1.7538 7.8397
" />
<path d="M1.7538 7.8397
L1.5919 7.8397
" />
<path d="M1.5919 7.8397
L1.5379 7.8127
" />
<path d="M1.5379 7.8127
L1.5110 7.7857
" />
</g></g>
<g style="fill:none; 
stroke:#AFAFAF; stroke-width:0.0212; stroke-opacity:1; 
stroke-linecap:round; stroke-linejoin:round;">
<circle cx="1.4300" cy="7.5800" r="0.8500" /> 
</g>
<g style="fill:none; 
stroke:#AFAFAF; stroke-width:0.0472; stroke-opacity:1; 
stroke-linecap:round; stroke-linejoin:round;">
<text x="1.4300" y="5.3233"
textLength="1.1077" font-size="0.7556" lengthAdjust="spacingAndGlyphs"
text-anchor="middle" opacity="0" stroke-opacity="0">24</text>
<g class="stroked-text"><desc>24</desc>
<path d="M0.9983 4.7870
L1.0252 4.7600
" />
<path d="M1.0252 4.7600
L1.0792 4.7330
" />
<path d="M1.0792 4.7330
L1.2141 4.7330
" />
<path d="M1.2141 4.7330
L1.2681 4.7600
" />
<path d="M1.2681 4.7600
L1.2951 4.7870
" />
<path d="M1.2951 4.7870
L1.3221 4.8410
" />
<path d="M1.3221 4.8410
L1.3221 4.8949
" />
<path d="M1.3221 4.8949
L1.2951 4.9759
" />
<path d="M1.2951 4.9759
L0.9713 5.2997
" />
<path d="M0.9713 5.2997
L1.3221 5.2997
" />
<path d="M1.8078 4.9219
L1.8078 5.2997
" />
<path d="M1.6729 4.7060
L1.5379 5.1108
" />
<path d="M1.5379 5.1108
L1.8887 5.1108
" />
</g></g>
<g style="fill:none; 
stroke:#AFAFAF; stroke-width:0.0212; stroke-opacity:1; 
stroke-linecap:round; stroke-linejoin:round;">
<circle cx="1.4300" cy="5.0400" r="0.8500" /> 
</g>
<g style="fill:none; 
stroke:#AFAFAF; stroke-width:0.0472; stroke-opacity:1; 
stroke-linecap:round; stroke-linejoin:round;">
<text x="1.4300" y="2.7833"
textLength="1.1077" font-size="0.7556" lengthAdjust="spacingAndGlyphs"
text-anchor="middle" opacity="0" stroke-opacity="0">25</text>
<g class="stroked-text"><desc>25</desc>
<path d="M0.9983 2.2470
L1.0252 2.2200
" />
<path d="M1.0252 2.2200
L1.0792 2.1930
" />
<path d="M1.0792 2.1930
L1.2141 2.1930
" />
<path d="M1.2141 2.1930
L1.2681 2.2200
" />
<path d="M1.2681 2.2200
L1.2951 2.2470
" />
<path d="M1.2951 2.2470
L1.3221 2.3010
" />
<path d="M1.3221 2.3010
L1.3221 2.3549
" />
<path d="M1.3221 2.3549
L1.2951 2.4359
" />
<path d="M1.2951 2.4359
L0.9713 2.7597
" />
<path d="M0.9713 2.7597
L1.3221 2.7597
" />
<path d="M1.8348 2.1930
L1.5649 2.1930
" />
<path d="M1.5649 2.1930
L1.5379 2.4629
" />
<path d="M1.5379 2.4629
L1.5649 2.4359
" />
<path d="M1.5649 2.4359
L1.6189 2.4089
" />
<path d="M1.6189 2.4089
L1.7538 2.4089
" />
<path d="M1.7538 2.4089
L1.8078 2.4359
" />
<path d="M1.8078 2.4359
L1.8348 2.4629
" />
<path d="M1.8348 2.4629
L1.8617 2.5168
" />
<path d="M1.8617 2.5168
L1.8617 2.6518
" />
<path d="M1.8617 2.6518
L1.8348 2.7057
" />
<path d="M1.8348 2.7057
L1.8078 2.7327
" />
<path d="M1.8078 2.7327
L1.7538 2.7597
" />
<path d="M1.7538 2.7597
L1.6189 2.7597
" />
<path d="M1.6189 2.7597
L1.5649 2.7327
" />
<path d="M1.5649 2.7327
L1.5379 2.7057
" />
</g></g>
<g style="fill:none; 
stroke:#AFAFAF; stroke-width:0.0212; stroke-opacity:1; 
stroke-linecap:round; stroke-linejoin:round;">
<circle cx="1.4300" cy="2.5000" r="0.8500" /> 
</g> 
</svg>
