<svg xmlns="http://www.w3.org/2000/svg" width="86.208" height="137.184" viewBox="0 0 22.809 36.297">
    <g style="fill:none;stroke:#f2eda1;stroke-width:.15;stroke-opacity:1;stroke-linecap:round;stroke-linejoin:round">
        <g class="stroked-text">
            <path d="m10.077 8.045-.333-.476M9.506 8.045v-1M9.506 7.045h.38M9.887 7.045l.095.047M9.982 7.092l.048.048M10.03 7.14l.047.095M10.077 7.235v.143M10.077 7.378l-.047.095M10.03 7.473l-.048.048M9.982 7.521l-.095.048M9.887 7.569h-.381M10.506 7.521h.333M10.982 8.045h-.476M10.506 8.045v-1M10.506 7.045h.476M11.744 7.521h-.333M11.41 8.045v-1M11.41 7.045h.477M12.41 7.045v.238M12.173 7.188l.238.095M12.41 7.283l.239-.095M12.268 7.473l.143-.19M12.41 7.283l.144.19M13.173 7.045v.238M12.935 7.188l.238.095M13.173 7.283l.238-.095M13.03 7.473l.143-.19M13.173 7.283l.143.19"/>
        </g>
        <path d="M2.42 3.68H20.4v30.68H2.42Z" style="stroke:#f2eda1;stroke-width:.12;stroke-opacity:1;stroke-linecap:round;stroke-linejoin:round;fill:none"/>
        <path d="M5.16 3.68H2.42v30.68h2.74ZM20.4 3.68h-2.74v30.68h2.74Z" style="stroke:#f2eda1;stroke-width:.12;stroke-opacity:1;stroke-linecap:round;stroke-linejoin:round;fill:none"/>
        <path stroke="none" d="m3.19 4.33.014-.069.04-.058.058-.04.069-.013h.84l.069.014.058.039.039.058.014.069v1.44l-.014.069-.039.058-.058.04-.07.013h-.84l-.068-.014-.059-.039-.039-.058-.013-.069Z" style="fill:#4d7fc4;fill-opacity:1;stroke:none;fill-rule:evenodd"/>
    </g>
    <g style="fill:none;stroke:#4d7fc4;stroke-width:1.2;stroke-opacity:1;stroke-linecap:round;stroke-linejoin:round">
        <path d="M3.79 7.29v.6M3.79 9.83v.6M3.79 12.37v.6M3.79 14.91v.6M3.79 17.45v.6M3.79 19.99v.6M3.79 22.53v.6M3.79 25.07v.6M3.79 27.61v.6M3.79 30.15v.6M3.79 32.69v.6M19.03 32.69v.6M19.03 30.15v.6M19.03 27.61v.6M19.03 25.07v.6M19.03 22.53v.6M19.03 19.99v.6M19.03 17.45v.6M19.03 14.91v.6M19.03 12.37v.6M19.03 9.83v.6M19.03 7.29v.6M19.03 4.75v.6"/>
        <path stroke="none" d="m3.19 4.33.014-.069.04-.058.058-.04.069-.013h.84l.069.014.058.039.039.058.014.069v1.44l-.014.069-.039.058-.058.04-.07.013h-.84l-.068-.014-.059-.039-.039-.058-.013-.069Z" style="fill:#c83434;fill-opacity:1;stroke:none;fill-rule:evenodd"/>
    </g>
    <g style="fill:none;stroke:#c83434;stroke-width:1.2;stroke-opacity:1;stroke-linecap:round;stroke-linejoin:round">
        <path d="M3.79 7.29v.6M3.79 9.83v.6M3.79 12.37v.6M3.79 14.91v.6M3.79 17.45v.6M3.79 19.99v.6M3.79 22.53v.6M3.79 25.07v.6M3.79 27.61v.6M3.79 30.15v.6M3.79 32.69v.6M19.03 32.69v.6M19.03 30.15v.6M19.03 27.61v.6M19.03 25.07v.6M19.03 22.53v.6M19.03 19.99v.6M19.03 17.45v.6M19.03 14.91v.6M19.03 12.37v.6M19.03 9.83v.6M19.03 7.29v.6M19.03 4.75v.6"/>
    </g>
    <g style="fill:none;stroke:#585d84;stroke-width:.05;stroke-opacity:1;stroke-linecap:round;stroke-linejoin:round">
        <g class="stroked-text">
            <path d="M4.066 4.879v.342M4.066 5.05h-.6M3.466 5.05l.085.057M3.551 5.107l.057.057M3.609 5.164l.028.057"/>
        </g>
        <path d="m3.19 4.33.014-.069.04-.058.058-.04.069-.013h.84l.069.014.058.039.039.058.014.069v1.44l-.014.069-.039.058-.058.04-.07.013h-.84l-.068-.014-.059-.039-.039-.058-.013-.069Z" style="stroke:#585d84;stroke-width:.0212;stroke-opacity:1;stroke-linecap:round;stroke-linejoin:round;fill:none"/>
    </g>
    <g style="fill:none;stroke:#585d84;stroke-width:.05;stroke-opacity:1;stroke-linecap:round;stroke-linejoin:round">
        <g class="stroked-text">
            <path d="m3.523 7.761-.029-.028M3.494 7.733l-.028-.057M3.466 7.676v-.143M3.466 7.533l.028-.057M3.494 7.476l.029-.029M3.523 7.447l.057-.028M3.58 7.419h.057M3.637 7.419l.086.028M3.723 7.447l.343.343M4.066 7.79v-.371"/>
        </g>
    </g>
    <g style="fill:none;stroke:#585d84;stroke-width:.0212;stroke-opacity:1;stroke-linecap:round;stroke-linejoin:round">
        <path d="M3.19 7.29v.6M3.19 7.89a.6.6 0 0 0 1.2 0M4.39 7.89v-.6M4.39 7.29a.6.6 0 0 0-1.2 0"/>
    </g>
    <g style="fill:none;stroke:#585d84;stroke-width:.05;stroke-opacity:1;stroke-linecap:round;stroke-linejoin:round">
        <g class="stroked-text">
            <path d="M3.466 10.33v-.371M3.466 9.959l.228.2M3.694 10.159v-.086M3.694 10.073l.029-.057M3.723 10.016l.028-.029M3.751 9.987l.058-.028M3.809 9.959h.142M3.951 9.959l.057.028M4.008 9.987l.03.029M4.037 10.016l.029.057M4.066 10.073v.171M4.066 10.244l-.029.057M4.037 10.301l-.029.029"/>
        </g>
    </g>
    <g style="fill:none;stroke:#585d84;stroke-width:.0212;stroke-opacity:1;stroke-linecap:round;stroke-linejoin:round">
        <path d="M3.19 9.83v.6M3.19 10.43a.6.6 0 0 0 1.2 0M4.39 10.43v-.6M4.39 9.83a.6.6 0 0 0-1.2 0"/>
    </g>
    <g style="fill:none;stroke:#585d84;stroke-width:.05;stroke-opacity:1;stroke-linecap:round;stroke-linejoin:round">
        <g class="stroked-text">
            <path d="M3.666 12.556h.4M3.437 12.699l.429.142M3.866 12.841v-.371"/>
        </g>
    </g>
    <g style="fill:none;stroke:#585d84;stroke-width:.0212;stroke-opacity:1;stroke-linecap:round;stroke-linejoin:round">
        <path d="M3.19 12.37v.6M3.19 12.97a.6.6 0 0 0 1.2 0M4.39 12.97v-.6M4.39 12.37a.6.6 0 0 0-1.2 0"/>
    </g>
    <g style="fill:none;stroke:#585d84;stroke-width:.05;stroke-opacity:1;stroke-linecap:round;stroke-linejoin:round">
        <g class="stroked-text">
            <path d="M3.466 15.067v.286M3.466 15.353l.285.028M3.751 15.381l-.028-.028M3.723 15.353l-.029-.057M3.694 15.296v-.143M3.694 15.153l.029-.057M3.723 15.096l.028-.029M3.751 15.067l.058-.028M3.809 15.039h.142M3.951 15.039l.057.028M4.008 15.067l.03.029M4.037 15.096l.029.057M4.066 15.153v.143M4.066 15.296l-.029.057M4.037 15.353l-.029.028"/>
        </g>
    </g>
    <g style="fill:none;stroke:#585d84;stroke-width:.0212;stroke-opacity:1;stroke-linecap:round;stroke-linejoin:round">
        <path d="M3.19 14.91v.6M3.19 15.51a.6.6 0 0 0 1.2 0M4.39 15.51v-.6M4.39 14.91a.6.6 0 0 0-1.2 0"/>
    </g>
    <g style="fill:none;stroke:#585d84;stroke-width:.05;stroke-opacity:1;stroke-linecap:round;stroke-linejoin:round">
        <g class="stroked-text">
            <path d="M3.466 17.636v.114M3.466 17.75l.028.057M3.494 17.807l.029.029M3.523 17.836l.085.057M3.609 17.893l.114.028M3.723 17.921h.228M3.951 17.921l.057-.028M4.008 17.893l.03-.029M4.037 17.864l.029-.057M4.066 17.807v-.114M4.066 17.693l-.029-.057M4.037 17.636l-.029-.029M4.008 17.607l-.057-.028M3.951 17.579h-.143M3.809 17.579l-.058.028M3.751 17.607l-.028.029M3.723 17.636l-.029.057M3.694 17.693v.114M3.694 17.807l.029.057M3.723 17.864l.028.029M3.751 17.893l.058.028"/>
        </g>
    </g>
    <g style="fill:none;stroke:#585d84;stroke-width:.0212;stroke-opacity:1;stroke-linecap:round;stroke-linejoin:round">
        <path d="M3.19 17.45v.6M3.19 18.05a.6.6 0 0 0 1.2 0M4.39 18.05v-.6M4.39 17.45a.6.6 0 0 0-1.2 0"/>
    </g>
    <g style="fill:none;stroke:#585d84;stroke-width:.05;stroke-opacity:1;stroke-linecap:round;stroke-linejoin:round">
        <g class="stroked-text">
            <path d="M3.466 20.49v-.4M3.466 20.09l.6.257"/>
        </g>
    </g>
    <g style="fill:none;stroke:#585d84;stroke-width:.0212;stroke-opacity:1;stroke-linecap:round;stroke-linejoin:round">
        <path d="M3.19 19.99v.6M3.19 20.59a.6.6 0 0 0 1.2 0M4.39 20.59v-.6M4.39 19.99a.6.6 0 0 0-1.2 0"/>
    </g>
    <g style="fill:none;stroke:#585d84;stroke-width:.05;stroke-opacity:1;stroke-linecap:round;stroke-linejoin:round">
        <g class="stroked-text">
            <path d="m3.723 22.887-.029.057M3.694 22.944l-.028.029M3.666 22.973 3.608 23M3.609 23.001H3.58M3.58 23.001l-.057-.028M3.523 22.973l-.029-.029M3.494 22.944l-.028-.057M3.466 22.887v-.114M3.466 22.773l.028-.057M3.494 22.716l.029-.029M3.523 22.687l.057-.028M3.58 22.659h.028M3.609 22.659l.057.028M3.666 22.687l.028.029M3.694 22.716l.029.057M3.723 22.773v.114M3.723 22.887l.028.057M3.751 22.944l.029.029M3.78 22.973l.057.028M3.837 23.001h.114M3.951 23.001l.057-.028M4.008 22.973l.03-.029M4.037 22.944l.029-.057M4.066 22.887v-.114M4.066 22.773l-.029-.057M4.037 22.716l-.029-.029M4.008 22.687l-.057-.028M3.951 22.659h-.114M3.837 22.659l-.057.028M3.78 22.687l-.029.029M3.751 22.716l-.028.057"/>
        </g>
    </g>
    <g style="fill:none;stroke:#585d84;stroke-width:.0212;stroke-opacity:1;stroke-linecap:round;stroke-linejoin:round">
        <path d="M3.19 22.53v.6M3.19 23.13a.6.6 0 0 0 1.2 0M4.39 23.13v-.6M4.39 22.53a.6.6 0 0 0-1.2 0"/>
    </g>
    <g style="fill:none;stroke:#585d84;stroke-width:.05;stroke-opacity:1;stroke-linecap:round;stroke-linejoin:round">
        <g class="stroked-text">
            <path d="M4.066 25.484v-.114M4.066 25.37l-.029-.057M4.037 25.313l-.029-.029M4.008 25.284l-.085-.057M3.923 25.227l-.115-.028M3.809 25.199H3.58M3.58 25.199l-.057.028M3.523 25.227l-.029.029M3.494 25.256l-.028.057M3.466 25.313v.114M3.466 25.427l.028.057M3.494 25.484l.029.029M3.523 25.513l.057.028M3.58 25.541h.143M3.723 25.541l.057-.028M3.78 25.513l.029-.029M3.809 25.484l.028-.057M3.837 25.427v-.114M3.837 25.313l-.029-.057M3.809 25.256l-.029-.029M3.78 25.227l-.057-.028"/>
        </g>
    </g>
    <g style="fill:none;stroke:#585d84;stroke-width:.0212;stroke-opacity:1;stroke-linecap:round;stroke-linejoin:round">
        <path d="M3.19 25.07v.6M3.19 25.67a.6.6 0 0 0 1.2 0M4.39 25.67v-.6M4.39 25.07a.6.6 0 0 0-1.2 0"/>
    </g>
    <g style="fill:none;stroke:#585d84;stroke-width:.05;stroke-opacity:1;stroke-linecap:round;stroke-linejoin:round">
        <g class="stroked-text">
            <path d="M4.066 28.024v.343M4.066 28.196h-.6M3.466 28.196l.085.057M3.551 28.253l.057.057M3.609 28.31l.028.057M3.466 27.653v-.057M3.466 27.596l.028-.057M3.494 27.539l.029-.029M3.523 27.51l.057-.029M3.58 27.481l.114-.028M3.694 27.453h.143M3.837 27.453l.114.028M3.951 27.481l.057.029M4.008 27.51l.03.029M4.037 27.539l.029.057M4.066 27.596v.057M4.066 27.653l-.029.057M4.037 27.71l-.029.029M4.008 27.739l-.057.028M3.951 27.767l-.114.029M3.837 27.796h-.143M3.694 27.796l-.114-.029M3.58 27.767l-.057-.028M3.523 27.739l-.029-.029M3.494 27.71l-.028-.057"/>
        </g>
    </g>
    <g style="fill:none;stroke:#585d84;stroke-width:.0212;stroke-opacity:1;stroke-linecap:round;stroke-linejoin:round">
        <path d="M3.19 27.61v.6M3.19 28.21a.6.6 0 0 0 1.2 0M4.39 28.21v-.6M4.39 27.61a.6.6 0 0 0-1.2 0"/>
    </g>
    <g style="fill:none;stroke:#585d84;stroke-width:.05;stroke-opacity:1;stroke-linecap:round;stroke-linejoin:round">
        <g class="stroked-text">
            <path d="M4.066 30.564v.343M4.066 30.736h-.6M3.466 30.736l.085.057M3.551 30.793l.057.057M3.609 30.85l.028.057M4.066 29.993v.343M4.066 30.164h-.6M3.466 30.164l.085.057M3.551 30.221l.057.058M3.609 30.279l.028.057"/>
        </g>
    </g>
    <g style="fill:none;stroke:#585d84;stroke-width:.0212;stroke-opacity:1;stroke-linecap:round;stroke-linejoin:round">
        <path d="M3.19 30.15v.6M3.19 30.75a.6.6 0 0 0 1.2 0M4.39 30.75v-.6M4.39 30.15a.6.6 0 0 0-1.2 0"/>
    </g>
    <g style="fill:none;stroke:#585d84;stroke-width:.05;stroke-opacity:1;stroke-linecap:round;stroke-linejoin:round">
        <g class="stroked-text">
            <path d="M4.066 33.104v.343M4.066 33.276h-.6M3.466 33.276l.085.057M3.551 33.333l.057.057M3.609 33.39l.028.057M3.523 32.876l-.029-.029M3.494 32.847l-.028-.057M3.466 32.79v-.143M3.466 32.647l.028-.057M3.494 32.59l.029-.029M3.523 32.561l.057-.028M3.58 32.533h.057M3.637 32.533l.086.028M3.723 32.561l.343.343M4.066 32.904v-.371"/>
        </g>
    </g>
    <g style="fill:none;stroke:#585d84;stroke-width:.0212;stroke-opacity:1;stroke-linecap:round;stroke-linejoin:round">
        <path d="M3.19 32.69v.6M3.19 33.29a.6.6 0 0 0 1.2 0M4.39 33.29v-.6M4.39 32.69a.6.6 0 0 0-1.2 0"/>
    </g>
    <g style="fill:none;stroke:#585d84;stroke-width:.05;stroke-opacity:1;stroke-linecap:round;stroke-linejoin:round">
        <g class="stroked-text">
            <path d="M19.306 33.104v.343M19.306 33.276h-.6M18.706 33.276l.085.057M18.791 33.333l.058.057M18.849 33.39l.028.057M18.706 32.904v-.371M18.706 32.533l.228.2M18.934 32.733v-.086M18.934 32.647l.029-.057M18.963 32.59l.028-.029M18.991 32.561l.058-.028M19.049 32.533h.142M19.191 32.533l.058.028M19.249 32.561l.028.029M19.277 32.59l.029.057M19.306 32.647v.172M19.306 32.819l-.029.057M19.277 32.876l-.029.028"/>
        </g>
    </g>
    <g style="fill:none;stroke:#585d84;stroke-width:.0212;stroke-opacity:1;stroke-linecap:round;stroke-linejoin:round">
        <path d="M18.43 32.69v.6M18.43 33.29a.6.6 0 0 0 1.2 0M19.63 33.29v-.6M19.63 32.69a.6.6 0 0 0-1.2 0"/>
    </g>
    <g style="fill:none;stroke:#585d84;stroke-width:.05;stroke-opacity:1;stroke-linecap:round;stroke-linejoin:round">
        <g class="stroked-text">
            <path d="M19.306 30.564v.343M19.306 30.736h-.6M18.706 30.736l.085.057M18.791 30.793l.058.057M18.849 30.85l.028.057M18.906 30.05h.4M18.677 30.193l.429.143M19.106 30.336v-.372"/>
        </g>
    </g>
    <g style="fill:none;stroke:#585d84;stroke-width:.0212;stroke-opacity:1;stroke-linecap:round;stroke-linejoin:round">
        <path d="M18.43 30.15v.6M18.43 30.75a.6.6 0 0 0 1.2 0M19.63 30.75v-.6M19.63 30.15a.6.6 0 0 0-1.2 0"/>
    </g>
    <g style="fill:none;stroke:#585d84;stroke-width:.05;stroke-opacity:1;stroke-linecap:round;stroke-linejoin:round">
        <g class="stroked-text">
            <path d="M19.306 28.024v.343M19.306 28.196h-.6M18.706 28.196l.085.057M18.791 28.253l.058.057M18.849 28.31l.028.057M18.706 27.481v.286M18.706 27.767l.285.029M18.991 27.796l-.028-.029M18.963 27.767l-.029-.057M18.934 27.71v-.143M18.934 27.567l.029-.057M18.963 27.51l.028-.029M18.991 27.481l.058-.028M19.049 27.453h.142M19.191 27.453l.058.028M19.249 27.481l.028.029M19.277 27.51l.029.057M19.306 27.567v.143M19.306 27.71l-.029.057M19.277 27.767l-.029.029"/>
        </g>
    </g>
    <g style="fill:none;stroke:#585d84;stroke-width:.0212;stroke-opacity:1;stroke-linecap:round;stroke-linejoin:round">
        <path d="M18.43 27.61v.6M18.43 28.21a.6.6 0 0 0 1.2 0M19.63 28.21v-.6M19.63 27.61a.6.6 0 0 0-1.2 0"/>
    </g>
    <g style="fill:none;stroke:#585d84;stroke-width:.05;stroke-opacity:1;stroke-linecap:round;stroke-linejoin:round">
        <g class="stroked-text">
            <path d="M19.306 25.484v.343M19.306 25.656h-.6M18.706 25.656l.085.057M18.791 25.713l.058.057M18.849 25.77l.028.057M18.706 24.97v.114M18.706 25.084l.028.057M18.734 25.141l.029.029M18.763 25.17l.085.057M18.849 25.227l.114.029M18.963 25.256h.228M19.191 25.256l.058-.029M19.249 25.227l.028-.028M19.277 25.199l.029-.058M19.306 25.141v-.114M19.306 25.027l-.029-.057M19.277 24.97l-.029-.029M19.249 24.941l-.058-.028M19.191 24.913h-.142M19.049 24.913l-.058.028M18.991 24.941l-.028.029M18.963 24.97l-.029.057M18.934 25.027v.114M18.934 25.141l.029.058M18.963 25.199l.028.028M18.991 25.227l.058.029"/>
        </g>
    </g>
    <g style="fill:none;stroke:#585d84;stroke-width:.0212;stroke-opacity:1;stroke-linecap:round;stroke-linejoin:round">
        <path d="M18.43 25.07v.6M18.43 25.67a.6.6 0 0 0 1.2 0M19.63 25.67v-.6M19.63 25.07a.6.6 0 0 0-1.2 0"/>
    </g>
    <g style="fill:none;stroke:#585d84;stroke-width:.05;stroke-opacity:1;stroke-linecap:round;stroke-linejoin:round">
        <g class="stroked-text">
            <path d="M19.306 22.944v.343M19.306 23.116h-.6M18.706 23.116l.085.057M18.791 23.173l.058.057M18.849 23.23l.028.057M18.706 22.744v-.4M18.706 22.344l.6.257"/>
        </g>
    </g>
    <g style="fill:none;stroke:#585d84;stroke-width:.0212;stroke-opacity:1;stroke-linecap:round;stroke-linejoin:round">
        <path d="M18.43 22.53v.6M18.43 23.13a.6.6 0 0 0 1.2 0M19.63 23.13v-.6M19.63 22.53a.6.6 0 0 0-1.2 0"/>
    </g>
    <g style="fill:none;stroke:#585d84;stroke-width:.05;stroke-opacity:1;stroke-linecap:round;stroke-linejoin:round">
        <g class="stroked-text">
            <path d="M19.306 20.404v.343M19.306 20.576h-.6M18.706 20.576l.085.057M18.791 20.633l.058.057M18.849 20.69l.028.057M18.963 20.061l-.029.058M18.934 20.119l-.028.028M18.906 20.147l-.057.029M18.849 20.176h-.029M18.82 20.176l-.057-.029M18.763 20.147l-.029-.028M18.734 20.119l-.028-.058M18.706 20.061v-.114M18.706 19.947l.028-.057M18.734 19.89l.029-.029M18.763 19.861l.057-.028M18.82 19.833h.029M18.849 19.833l.057.028M18.906 19.861l.028.029M18.934 19.89l.029.057M18.963 19.947v.114M18.963 20.061l.028.058M18.991 20.119l.029.028M19.02 20.147l.057.029M19.077 20.176h.114M19.191 20.176l.058-.029M19.249 20.147l.028-.028M19.277 20.119l.029-.058M19.306 20.061v-.114M19.306 19.947l-.029-.057M19.277 19.89l-.029-.029M19.249 19.861l-.058-.028M19.191 19.833h-.114M19.077 19.833l-.057.028M19.02 19.861l-.029.029M18.991 19.89l-.028.057"/>
        </g>
    </g>
    <g style="fill:none;stroke:#585d84;stroke-width:.0212;stroke-opacity:1;stroke-linecap:round;stroke-linejoin:round">
        <path d="M18.43 19.99v.6M18.43 20.59a.6.6 0 0 0 1.2 0M19.63 20.59v-.6M19.63 19.99a.6.6 0 0 0-1.2 0"/>
    </g>
    <g style="fill:none;stroke:#585d84;stroke-width:.05;stroke-opacity:1;stroke-linecap:round;stroke-linejoin:round">
        <g class="stroked-text">
            <path d="M19.306 17.864v.343M19.306 18.036h-.6M18.706 18.036l.085.057M18.791 18.093l.058.057M18.849 18.15l.028.057M19.306 17.579v-.115M19.306 17.464l-.029-.057M19.277 17.407l-.029-.028M19.249 17.379l-.086-.058M19.163 17.321l-.114-.028M19.049 17.293h-.229M18.82 17.293l-.057.028M18.763 17.321l-.029.029M18.734 17.35l-.028.057M18.706 17.407v.114M18.706 17.521l.028.058M18.734 17.579l.029.028M18.763 17.607l.057.029M18.82 17.636h.143M18.963 17.636l.057-.029M19.02 17.607l.029-.028M19.049 17.579l.028-.058M19.077 17.521v-.114M19.077 17.407l-.029-.057M19.049 17.35l-.029-.029M19.02 17.321l-.057-.028"/>
        </g>
    </g>
    <g style="fill:none;stroke:#585d84;stroke-width:.0212;stroke-opacity:1;stroke-linecap:round;stroke-linejoin:round">
        <path d="M18.43 17.45v.6M18.43 18.05a.6.6 0 0 0 1.2 0M19.63 18.05v-.6M19.63 17.45a.6.6 0 0 0-1.2 0"/>
    </g>
    <g style="fill:none;stroke:#585d84;stroke-width:.05;stroke-opacity:1;stroke-linecap:round;stroke-linejoin:round">
        <g class="stroked-text">
            <path d="m18.763 15.667-.029-.028M18.734 15.639l-.028-.058M18.706 15.581v-.142M18.706 15.439l.028-.058M18.734 15.381l.029-.028M18.763 15.353l.057-.029M18.82 15.324h.057M18.877 15.324l.086.029M18.963 15.353l.343.343M19.306 15.696v-.372M18.706 14.953v-.057M18.706 14.896l.028-.057M18.734 14.839l.029-.029M18.763 14.81l.057-.029M18.82 14.781l.114-.028M18.934 14.753h.143M19.077 14.753l.114.028M19.191 14.781l.058.029M19.249 14.81l.028.029M19.277 14.839l.029.057M19.306 14.896v.057M19.306 14.953l-.029.057M19.277 15.01l-.029.029M19.249 15.039l-.058.028M19.191 15.067l-.114.029M19.077 15.096h-.143M18.934 15.096l-.114-.029M18.82 15.067l-.057-.028M18.763 15.039l-.029-.029M18.734 15.01l-.028-.057"/>
        </g>
    </g>
    <g style="fill:none;stroke:#585d84;stroke-width:.0212;stroke-opacity:1;stroke-linecap:round;stroke-linejoin:round">
        <path d="M18.43 14.91v.6M18.43 15.51a.6.6 0 0 0 1.2 0M19.63 15.51v-.6M19.63 14.91a.6.6 0 0 0-1.2 0"/>
    </g>
    <g style="fill:none;stroke:#585d84;stroke-width:.05;stroke-opacity:1;stroke-linecap:round;stroke-linejoin:round">
        <g class="stroked-text">
            <path d="m18.763 13.127-.029-.028M18.734 13.099l-.028-.058M18.706 13.041V12.9M18.706 12.899l.028-.058M18.734 12.841l.029-.028M18.763 12.813l.057-.029M18.82 12.784h.057M18.877 12.784l.086.029M18.963 12.813l.343.343M19.306 13.156v-.372M19.306 12.213v.343M19.306 12.384h-.6M18.706 12.384l.085.057M18.791 12.441l.058.058M18.849 12.499l.028.057"/>
        </g>
    </g>
    <g style="fill:none;stroke:#585d84;stroke-width:.0212;stroke-opacity:1;stroke-linecap:round;stroke-linejoin:round">
        <path d="M18.43 12.37v.6M18.43 12.97a.6.6 0 0 0 1.2 0M19.63 12.97v-.6M19.63 12.37a.6.6 0 0 0-1.2 0"/>
    </g>
    <g style="fill:none;stroke:#585d84;stroke-width:.05;stroke-opacity:1;stroke-linecap:round;stroke-linejoin:round">
        <g class="stroked-text">
            <path d="m18.763 10.587-.029-.028M18.734 10.559l-.028-.058M18.706 10.501v-.142M18.706 10.359l.028-.058M18.734 10.301l.029-.028M18.763 10.273l.057-.029M18.82 10.244h.057M18.877 10.244l.086.029M18.963 10.273l.343.343M19.306 10.616v-.372M18.763 10.016l-.029-.029M18.734 9.987l-.028-.057M18.706 9.93v-.143M18.706 9.787l.028-.057M18.734 9.73l.029-.029M18.763 9.701l.057-.028M18.82 9.673h.057M18.877 9.673l.086.028M18.963 9.701l.343.343M19.306 10.044v-.371"/>
        </g>
    </g>
    <g style="fill:none;stroke:#585d84;stroke-width:.0212;stroke-opacity:1;stroke-linecap:round;stroke-linejoin:round">
        <path d="M18.43 9.83v.6M18.43 10.43a.6.6 0 0 0 1.2 0M19.63 10.43v-.6M19.63 9.83a.6.6 0 0 0-1.2 0"/>
    </g>
    <g style="fill:none;stroke:#585d84;stroke-width:.05;stroke-opacity:1;stroke-linecap:round;stroke-linejoin:round">
        <g class="stroked-text">
            <path d="m18.763 8.047-.029-.028M18.734 8.019l-.028-.058M18.706 7.961V7.82M18.706 7.819l.028-.058M18.734 7.761l.029-.028M18.763 7.733l.057-.029M18.82 7.704h.057M18.877 7.704l.086.029M18.963 7.733l.343.343M19.306 8.076v-.372M18.706 7.504v-.371M18.706 7.133l.228.2M18.934 7.333v-.086M18.934 7.247l.029-.057M18.963 7.19l.028-.029M18.991 7.161l.058-.028M19.049 7.133h.142M19.191 7.133l.058.028M19.249 7.161l.028.029M19.277 7.19l.029.057M19.306 7.247v.172M19.306 7.419l-.029.057M19.277 7.476l-.029.028"/>
        </g>
    </g>
    <g style="fill:none;stroke:#585d84;stroke-width:.0212;stroke-opacity:1;stroke-linecap:round;stroke-linejoin:round">
        <path d="M18.43 7.29v.6M18.43 7.89a.6.6 0 0 0 1.2 0M19.63 7.89v-.6M19.63 7.29a.6.6 0 0 0-1.2 0"/>
    </g>
    <g style="fill:none;stroke:#585d84;stroke-width:.05;stroke-opacity:1;stroke-linecap:round;stroke-linejoin:round">
        <g class="stroked-text">
            <path d="m18.763 5.507-.029-.028M18.734 5.479l-.028-.058M18.706 5.421V5.28M18.706 5.279l.028-.058M18.734 5.221l.029-.028M18.763 5.193l.057-.029M18.82 5.164h.057M18.877 5.164l.086.029M18.963 5.193l.343.343M19.306 5.536v-.372M18.906 4.65h.4M18.677 4.793l.429.143M19.106 4.936v-.372"/>
        </g>
    </g>
    <g style="fill:none;stroke:#585d84;stroke-width:.0212;stroke-opacity:1;stroke-linecap:round;stroke-linejoin:round">
        <path d="M18.43 4.75v.6M18.43 5.35a.6.6 0 0 0 1.2 0M19.63 5.35v-.6M19.63 4.75a.6.6 0 0 0-1.2 0"/>
    </g>
    <g style="fill:none;stroke:#afafaf;stroke-width:.15;stroke-opacity:1;stroke-linecap:round;stroke-linejoin:round">
        <g class="stroked-text">
            <path d="M.363 35.905v-1M.363 34.905l.333.714M.696 35.62l.334-.715M1.03 34.905v1M2.077 35.81l-.047.047M2.03 35.857l-.143.048M1.887 35.905h-.095M1.792 35.905l-.143-.048M1.649 35.857l-.095-.095M1.554 35.762l-.048-.095M1.506 35.667l-.048-.19M1.458 35.476v-.143M1.458 35.333l.048-.19M1.506 35.143l.048-.095M1.554 35.048l.095-.096M1.649 34.952l.143-.047M1.792 34.905h.095M1.887 34.905l.143.047M2.03 34.952l.047.048M2.506 34.905v.81M2.506 35.714l.048.096M2.554 35.81l.047.047M2.601 35.857l.095.048M2.696 35.905h.19M2.887 35.905l.095-.048M2.982 35.857l.048-.047M3.03 35.81l.047-.096M3.077 35.714v-.81M3.316 36h.761M4.316 35.905v-1M4.316 34.905h.38M4.696 34.905l.096.047M4.792 34.952l.047.048M4.84 35l.047.095M4.887 35.095v.143M4.887 35.238l-.048.095M4.84 35.333l-.048.048M4.792 35.381l-.096.048M4.696 35.429h-.38M5.316 35.905v-.667M5.316 35.429l.047-.096M5.363 35.333l.048-.047M5.41 35.286l.096-.048M5.506 35.238h.095M6.077 35.905l-.095-.048M5.982 35.857l-.048-.047M5.935 35.81l-.048-.096M5.887 35.714v-.285M5.887 35.429l.048-.096M5.935 35.333l.047-.047M5.982 35.286l.095-.048M6.077 35.238h.143M6.22 35.238l.096.048M6.316 35.286l.047.047M6.363 35.333l.048.096M6.41 35.429v.285M6.41 35.714l-.047.096M6.363 35.81l-.048.047M6.316 35.857l-.096.048M6.22 35.905h-.143M6.84 35.905v-1M6.84 34.905l.333.714M7.173 35.62l.333-.715M7.506 34.905v1M7.982 35.905v-.667M7.982 34.905l-.048.047M7.935 34.952l.047.048M7.982 35l.048-.048M8.03 34.952l-.048-.047M7.982 34.905V35M8.887 35.857l-.095.048M8.792 35.905h-.19M8.601 35.905l-.095-.048M8.506 35.857l-.048-.047M8.458 35.81l-.047-.096M8.41 35.714v-.285M8.41 35.429l.048-.096M8.458 35.333l.048-.047M8.506 35.286l.095-.048M8.601 35.238h.19M8.792 35.238l.095.048M9.316 35.905v-.667M9.316 35.429l.047-.096M9.363 35.333l.048-.047M9.41 35.286l.096-.048M9.506 35.238h.095M10.077 35.905l-.095-.048M9.982 35.857l-.047-.047M9.935 35.81l-.048-.096M9.887 35.714v-.285M9.887 35.429l.047-.096M9.935 35.333l.047-.047M9.982 35.286l.095-.048M10.077 35.238h.143M10.22 35.238l.095.048M10.316 35.286l.047.047M10.363 35.333l.048.096M10.41 35.429v.285M10.41 35.714l-.047.096M10.363 35.81l-.047.047M10.316 35.857l-.096.048M10.22 35.905h-.143M10.601 36h.762M11.601 35.905v-1M11.601 34.905h.238M11.84 34.905l.142.047M11.982 34.952l.095.096M12.077 35.048l.048.095M12.125 35.143l.048.19M12.173 35.333v.143M12.173 35.476l-.048.19M12.125 35.667l-.048.095M12.077 35.762l-.095.095M11.982 35.857l-.143.048M11.84 35.905H11.6M12.601 35.905v-1M13.077 35.905v-1M13.077 34.905h.381M13.458 34.905l.096.047M13.554 34.952 13.6 35M13.601 35l.048.095M13.649 35.095v.143M13.649 35.238l-.048.095M13.601 35.333l-.047.048M13.554 35.381l-.096.048M13.458 35.429h-.38M14.077 35.524h.762M15.268 35l.047-.048M15.316 34.952l.095-.047M15.41 34.905h.239M15.649 34.905l.095.047M15.744 34.952l.048.048M15.792 35l.047.095M15.84 35.095v.096M15.84 35.19l-.048.143M15.792 35.333l-.572.572M15.22 35.905h.62M16.696 35.238v.667M16.458 34.857l-.238.715M16.22 35.572h.62M16.982 36h.762M17.935 35.857l.142.048M18.077 35.905h.238M18.316 35.905l.095-.048M18.41 35.857l.048-.047M18.458 35.81l.048-.096M18.506 35.714v-.095M18.506 35.62l-.048-.096M18.458 35.524l-.047-.048M18.41 35.476l-.095-.047M18.316 35.429l-.191-.048M18.125 35.381l-.095-.048M18.03 35.333l-.048-.047M17.982 35.286l-.047-.096M17.935 35.19v-.095M17.935 35.095l.047-.095M17.982 35l.048-.048M18.03 34.952l.095-.047M18.125 34.905h.238M18.363 34.905l.143.047M19.077 35.905l-.095-.048M18.982 35.857l-.047-.047M18.935 35.81l-.048-.096M18.887 35.714v-.285M18.887 35.429l.047-.096M18.935 35.333l.047-.047M18.982 35.286l.095-.048M19.077 35.238h.143M19.22 35.238l.096.048M19.316 35.286l.047.047M19.363 35.333l.048.096M19.41 35.429v.285M19.41 35.714l-.047.096M19.363 35.81l-.047.047M19.316 35.857l-.096.048M19.22 35.905h-.143M20.268 35.857l-.095.048M20.173 35.905h-.19M19.982 35.905l-.095-.048M19.887 35.857l-.048-.047M19.84 35.81l-.048-.096M19.792 35.714v-.285M19.792 35.429l.047-.096M19.84 35.333l.047-.047M19.887 35.286l.095-.048M19.982 35.238h.19M20.173 35.238l.095.048M20.696 35.905v-1M20.792 35.524l.285.38M21.077 35.238l-.38.381M21.887 35.857l-.095.048M21.792 35.905h-.19M21.601 35.905l-.095-.048M21.506 35.857l-.048-.095M21.458 35.762v-.381M21.458 35.381l.048-.095M21.506 35.286l.095-.048M21.601 35.238h.19M21.792 35.238l.095.048M21.887 35.286l.047.095M21.935 35.381v.095M21.935 35.476l-.477.096M22.22 35.238h.381M22.363 34.905v.857M22.363 35.762l.048.095M22.41 35.857l.096.048M22.506 35.905h.095"/>
        </g>
        <g class="stroked-text">
            <path d="m10.077 18.205-.333-.476M9.506 18.205v-1M9.506 17.205h.38M9.887 17.205l.095.047M9.982 17.252l.048.048M10.03 17.3l.047.095M10.077 17.395v.143M10.077 17.538l-.047.095M10.03 17.633l-.048.048M9.982 17.681l-.095.048M9.887 17.729h-.381M10.506 17.681h.333M10.982 18.205h-.476M10.506 18.205v-1M10.506 17.205h.476M11.744 17.681h-.333M11.41 18.205v-1M11.41 17.205h.477M12.41 17.205v.238M12.173 17.348l.238.095M12.41 17.443l.239-.095M12.268 17.633l.143-.19M12.41 17.443l.144.19M13.173 17.205v.238M12.935 17.348l.238.095M13.173 17.443l.238-.095M13.03 17.633l.143-.19M13.173 17.443l.143.19"/>
        </g>
        <path d="M2.52 1.23H20.3v33.02H2.52ZM6.91.05h9v1.18h-9Z" style="stroke:#afafaf;stroke-width:.1;stroke-opacity:1;stroke-linecap:round;stroke-linejoin:round;fill:none"/>
    </g>
    <g style="fill:none;stroke:#afafaf;stroke-width:.05;stroke-opacity:1;stroke-linecap:round;stroke-linejoin:round">
        <g class="stroked-text">
            <path d="M4.066 4.879v.342M4.066 5.05h-.6M3.466 5.05l.085.057M3.551 5.107l.057.057M3.609 5.164l.028.057"/>
        </g>
        <path d="m3.19 4.33.014-.069.04-.058.058-.04.069-.013h.84l.069.014.058.039.039.058.014.069v1.44l-.014.069-.039.058-.058.04-.07.013h-.84l-.068-.014-.059-.039-.039-.058-.013-.069Z" style="stroke:#afafaf;stroke-width:.0212;stroke-opacity:1;stroke-linecap:round;stroke-linejoin:round;fill:none"/>
    </g>
    <g style="fill:none;stroke:#afafaf;stroke-width:.05;stroke-opacity:1;stroke-linecap:round;stroke-linejoin:round">
        <g class="stroked-text">
            <path d="m3.523 7.761-.029-.028M3.494 7.733l-.028-.057M3.466 7.676v-.143M3.466 7.533l.028-.057M3.494 7.476l.029-.029M3.523 7.447l.057-.028M3.58 7.419h.057M3.637 7.419l.086.028M3.723 7.447l.343.343M4.066 7.79v-.371"/>
        </g>
    </g>
    <g style="fill:none;stroke:#afafaf;stroke-width:.0212;stroke-opacity:1;stroke-linecap:round;stroke-linejoin:round">
        <path d="M3.19 7.29v.6M3.19 7.89a.6.6 0 0 0 1.2 0M4.39 7.89v-.6M4.39 7.29a.6.6 0 0 0-1.2 0"/>
    </g>
    <g style="fill:none;stroke:#afafaf;stroke-width:.05;stroke-opacity:1;stroke-linecap:round;stroke-linejoin:round">
        <g class="stroked-text">
            <path d="M3.466 10.33v-.371M3.466 9.959l.228.2M3.694 10.159v-.086M3.694 10.073l.029-.057M3.723 10.016l.028-.029M3.751 9.987l.058-.028M3.809 9.959h.142M3.951 9.959l.057.028M4.008 9.987l.03.029M4.037 10.016l.029.057M4.066 10.073v.171M4.066 10.244l-.029.057M4.037 10.301l-.029.029"/>
        </g>
    </g>
    <g style="fill:none;stroke:#afafaf;stroke-width:.0212;stroke-opacity:1;stroke-linecap:round;stroke-linejoin:round">
        <path d="M3.19 9.83v.6M3.19 10.43a.6.6 0 0 0 1.2 0M4.39 10.43v-.6M4.39 9.83a.6.6 0 0 0-1.2 0"/>
    </g>
    <g style="fill:none;stroke:#afafaf;stroke-width:.05;stroke-opacity:1;stroke-linecap:round;stroke-linejoin:round">
        <g class="stroked-text">
            <path d="M3.666 12.556h.4M3.437 12.699l.429.142M3.866 12.841v-.371"/>
        </g>
    </g>
    <g style="fill:none;stroke:#afafaf;stroke-width:.0212;stroke-opacity:1;stroke-linecap:round;stroke-linejoin:round">
        <path d="M3.19 12.37v.6M3.19 12.97a.6.6 0 0 0 1.2 0M4.39 12.97v-.6M4.39 12.37a.6.6 0 0 0-1.2 0"/>
    </g>
    <g style="fill:none;stroke:#afafaf;stroke-width:.05;stroke-opacity:1;stroke-linecap:round;stroke-linejoin:round">
        <g class="stroked-text">
            <path d="M3.466 15.067v.286M3.466 15.353l.285.028M3.751 15.381l-.028-.028M3.723 15.353l-.029-.057M3.694 15.296v-.143M3.694 15.153l.029-.057M3.723 15.096l.028-.029M3.751 15.067l.058-.028M3.809 15.039h.142M3.951 15.039l.057.028M4.008 15.067l.03.029M4.037 15.096l.029.057M4.066 15.153v.143M4.066 15.296l-.029.057M4.037 15.353l-.029.028"/>
        </g>
    </g>
    <g style="fill:none;stroke:#afafaf;stroke-width:.0212;stroke-opacity:1;stroke-linecap:round;stroke-linejoin:round">
        <path d="M3.19 14.91v.6M3.19 15.51a.6.6 0 0 0 1.2 0M4.39 15.51v-.6M4.39 14.91a.6.6 0 0 0-1.2 0"/>
    </g>
    <g style="fill:none;stroke:#afafaf;stroke-width:.05;stroke-opacity:1;stroke-linecap:round;stroke-linejoin:round">
        <g class="stroked-text">
            <path d="M3.466 17.636v.114M3.466 17.75l.028.057M3.494 17.807l.029.029M3.523 17.836l.085.057M3.609 17.893l.114.028M3.723 17.921h.228M3.951 17.921l.057-.028M4.008 17.893l.03-.029M4.037 17.864l.029-.057M4.066 17.807v-.114M4.066 17.693l-.029-.057M4.037 17.636l-.029-.029M4.008 17.607l-.057-.028M3.951 17.579h-.143M3.809 17.579l-.058.028M3.751 17.607l-.028.029M3.723 17.636l-.029.057M3.694 17.693v.114M3.694 17.807l.029.057M3.723 17.864l.028.029M3.751 17.893l.058.028"/>
        </g>
    </g>
    <g style="fill:none;stroke:#afafaf;stroke-width:.0212;stroke-opacity:1;stroke-linecap:round;stroke-linejoin:round">
        <path d="M3.19 17.45v.6M3.19 18.05a.6.6 0 0 0 1.2 0M4.39 18.05v-.6M4.39 17.45a.6.6 0 0 0-1.2 0"/>
    </g>
    <g style="fill:none;stroke:#afafaf;stroke-width:.05;stroke-opacity:1;stroke-linecap:round;stroke-linejoin:round">
        <g class="stroked-text">
            <path d="M3.466 20.49v-.4M3.466 20.09l.6.257"/>
        </g>
    </g>
    <g style="fill:none;stroke:#afafaf;stroke-width:.0212;stroke-opacity:1;stroke-linecap:round;stroke-linejoin:round">
        <path d="M3.19 19.99v.6M3.19 20.59a.6.6 0 0 0 1.2 0M4.39 20.59v-.6M4.39 19.99a.6.6 0 0 0-1.2 0"/>
    </g>
    <g style="fill:none;stroke:#afafaf;stroke-width:.05;stroke-opacity:1;stroke-linecap:round;stroke-linejoin:round">
        <g class="stroked-text">
            <path d="m3.723 22.887-.029.057M3.694 22.944l-.028.029M3.666 22.973 3.608 23M3.609 23.001H3.58M3.58 23.001l-.057-.028M3.523 22.973l-.029-.029M3.494 22.944l-.028-.057M3.466 22.887v-.114M3.466 22.773l.028-.057M3.494 22.716l.029-.029M3.523 22.687l.057-.028M3.58 22.659h.028M3.609 22.659l.057.028M3.666 22.687l.028.029M3.694 22.716l.029.057M3.723 22.773v.114M3.723 22.887l.028.057M3.751 22.944l.029.029M3.78 22.973l.057.028M3.837 23.001h.114M3.951 23.001l.057-.028M4.008 22.973l.03-.029M4.037 22.944l.029-.057M4.066 22.887v-.114M4.066 22.773l-.029-.057M4.037 22.716l-.029-.029M4.008 22.687l-.057-.028M3.951 22.659h-.114M3.837 22.659l-.057.028M3.78 22.687l-.029.029M3.751 22.716l-.028.057"/>
        </g>
    </g>
    <g style="fill:none;stroke:#afafaf;stroke-width:.0212;stroke-opacity:1;stroke-linecap:round;stroke-linejoin:round">
        <path d="M3.19 22.53v.6M3.19 23.13a.6.6 0 0 0 1.2 0M4.39 23.13v-.6M4.39 22.53a.6.6 0 0 0-1.2 0"/>
    </g>
    <g style="fill:none;stroke:#afafaf;stroke-width:.05;stroke-opacity:1;stroke-linecap:round;stroke-linejoin:round">
        <g class="stroked-text">
            <path d="M4.066 25.484v-.114M4.066 25.37l-.029-.057M4.037 25.313l-.029-.029M4.008 25.284l-.085-.057M3.923 25.227l-.115-.028M3.809 25.199H3.58M3.58 25.199l-.057.028M3.523 25.227l-.029.029M3.494 25.256l-.028.057M3.466 25.313v.114M3.466 25.427l.028.057M3.494 25.484l.029.029M3.523 25.513l.057.028M3.58 25.541h.143M3.723 25.541l.057-.028M3.78 25.513l.029-.029M3.809 25.484l.028-.057M3.837 25.427v-.114M3.837 25.313l-.029-.057M3.809 25.256l-.029-.029M3.78 25.227l-.057-.028"/>
        </g>
    </g>
    <g style="fill:none;stroke:#afafaf;stroke-width:.0212;stroke-opacity:1;stroke-linecap:round;stroke-linejoin:round">
        <path d="M3.19 25.07v.6M3.19 25.67a.6.6 0 0 0 1.2 0M4.39 25.67v-.6M4.39 25.07a.6.6 0 0 0-1.2 0"/>
    </g>
    <g style="fill:none;stroke:#afafaf;stroke-width:.05;stroke-opacity:1;stroke-linecap:round;stroke-linejoin:round">
        <g class="stroked-text">
            <path d="M4.066 28.024v.343M4.066 28.196h-.6M3.466 28.196l.085.057M3.551 28.253l.057.057M3.609 28.31l.028.057M3.466 27.653v-.057M3.466 27.596l.028-.057M3.494 27.539l.029-.029M3.523 27.51l.057-.029M3.58 27.481l.114-.028M3.694 27.453h.143M3.837 27.453l.114.028M3.951 27.481l.057.029M4.008 27.51l.03.029M4.037 27.539l.029.057M4.066 27.596v.057M4.066 27.653l-.029.057M4.037 27.71l-.029.029M4.008 27.739l-.057.028M3.951 27.767l-.114.029M3.837 27.796h-.143M3.694 27.796l-.114-.029M3.58 27.767l-.057-.028M3.523 27.739l-.029-.029M3.494 27.71l-.028-.057"/>
        </g>
    </g>
    <g style="fill:none;stroke:#afafaf;stroke-width:.0212;stroke-opacity:1;stroke-linecap:round;stroke-linejoin:round">
        <path d="M3.19 27.61v.6M3.19 28.21a.6.6 0 0 0 1.2 0M4.39 28.21v-.6M4.39 27.61a.6.6 0 0 0-1.2 0"/>
    </g>
    <g style="fill:none;stroke:#afafaf;stroke-width:.05;stroke-opacity:1;stroke-linecap:round;stroke-linejoin:round">
        <g class="stroked-text">
            <path d="M4.066 30.564v.343M4.066 30.736h-.6M3.466 30.736l.085.057M3.551 30.793l.057.057M3.609 30.85l.028.057M4.066 29.993v.343M4.066 30.164h-.6M3.466 30.164l.085.057M3.551 30.221l.057.058M3.609 30.279l.028.057"/>
        </g>
    </g>
    <g style="fill:none;stroke:#afafaf;stroke-width:.0212;stroke-opacity:1;stroke-linecap:round;stroke-linejoin:round">
        <path d="M3.19 30.15v.6M3.19 30.75a.6.6 0 0 0 1.2 0M4.39 30.75v-.6M4.39 30.15a.6.6 0 0 0-1.2 0"/>
    </g>
    <g style="fill:none;stroke:#afafaf;stroke-width:.05;stroke-opacity:1;stroke-linecap:round;stroke-linejoin:round">
        <g class="stroked-text">
            <path d="M4.066 33.104v.343M4.066 33.276h-.6M3.466 33.276l.085.057M3.551 33.333l.057.057M3.609 33.39l.028.057M3.523 32.876l-.029-.029M3.494 32.847l-.028-.057M3.466 32.79v-.143M3.466 32.647l.028-.057M3.494 32.59l.029-.029M3.523 32.561l.057-.028M3.58 32.533h.057M3.637 32.533l.086.028M3.723 32.561l.343.343M4.066 32.904v-.371"/>
        </g>
    </g>
    <g style="fill:none;stroke:#afafaf;stroke-width:.0212;stroke-opacity:1;stroke-linecap:round;stroke-linejoin:round">
        <path d="M3.19 32.69v.6M3.19 33.29a.6.6 0 0 0 1.2 0M4.39 33.29v-.6M4.39 32.69a.6.6 0 0 0-1.2 0"/>
    </g>
    <g style="fill:none;stroke:#afafaf;stroke-width:.05;stroke-opacity:1;stroke-linecap:round;stroke-linejoin:round">
        <g class="stroked-text">
            <path d="M19.306 33.104v.343M19.306 33.276h-.6M18.706 33.276l.085.057M18.791 33.333l.058.057M18.849 33.39l.028.057M18.706 32.904v-.371M18.706 32.533l.228.2M18.934 32.733v-.086M18.934 32.647l.029-.057M18.963 32.59l.028-.029M18.991 32.561l.058-.028M19.049 32.533h.142M19.191 32.533l.058.028M19.249 32.561l.028.029M19.277 32.59l.029.057M19.306 32.647v.172M19.306 32.819l-.029.057M19.277 32.876l-.029.028"/>
        </g>
    </g>
    <g style="fill:none;stroke:#afafaf;stroke-width:.0212;stroke-opacity:1;stroke-linecap:round;stroke-linejoin:round">
        <path d="M18.43 32.69v.6M18.43 33.29a.6.6 0 0 0 1.2 0M19.63 33.29v-.6M19.63 32.69a.6.6 0 0 0-1.2 0"/>
    </g>
    <g style="fill:none;stroke:#afafaf;stroke-width:.05;stroke-opacity:1;stroke-linecap:round;stroke-linejoin:round">
        <g class="stroked-text">
            <path d="M19.306 30.564v.343M19.306 30.736h-.6M18.706 30.736l.085.057M18.791 30.793l.058.057M18.849 30.85l.028.057M18.906 30.05h.4M18.677 30.193l.429.143M19.106 30.336v-.372"/>
        </g>
    </g>
    <g style="fill:none;stroke:#afafaf;stroke-width:.0212;stroke-opacity:1;stroke-linecap:round;stroke-linejoin:round">
        <path d="M18.43 30.15v.6M18.43 30.75a.6.6 0 0 0 1.2 0M19.63 30.75v-.6M19.63 30.15a.6.6 0 0 0-1.2 0"/>
    </g>
    <g style="fill:none;stroke:#afafaf;stroke-width:.05;stroke-opacity:1;stroke-linecap:round;stroke-linejoin:round">
        <g class="stroked-text">
            <path d="M19.306 28.024v.343M19.306 28.196h-.6M18.706 28.196l.085.057M18.791 28.253l.058.057M18.849 28.31l.028.057M18.706 27.481v.286M18.706 27.767l.285.029M18.991 27.796l-.028-.029M18.963 27.767l-.029-.057M18.934 27.71v-.143M18.934 27.567l.029-.057M18.963 27.51l.028-.029M18.991 27.481l.058-.028M19.049 27.453h.142M19.191 27.453l.058.028M19.249 27.481l.028.029M19.277 27.51l.029.057M19.306 27.567v.143M19.306 27.71l-.029.057M19.277 27.767l-.029.029"/>
        </g>
    </g>
    <g style="fill:none;stroke:#afafaf;stroke-width:.0212;stroke-opacity:1;stroke-linecap:round;stroke-linejoin:round">
        <path d="M18.43 27.61v.6M18.43 28.21a.6.6 0 0 0 1.2 0M19.63 28.21v-.6M19.63 27.61a.6.6 0 0 0-1.2 0"/>
    </g>
    <g style="fill:none;stroke:#afafaf;stroke-width:.05;stroke-opacity:1;stroke-linecap:round;stroke-linejoin:round">
        <g class="stroked-text">
            <path d="M19.306 25.484v.343M19.306 25.656h-.6M18.706 25.656l.085.057M18.791 25.713l.058.057M18.849 25.77l.028.057M18.706 24.97v.114M18.706 25.084l.028.057M18.734 25.141l.029.029M18.763 25.17l.085.057M18.849 25.227l.114.029M18.963 25.256h.228M19.191 25.256l.058-.029M19.249 25.227l.028-.028M19.277 25.199l.029-.058M19.306 25.141v-.114M19.306 25.027l-.029-.057M19.277 24.97l-.029-.029M19.249 24.941l-.058-.028M19.191 24.913h-.142M19.049 24.913l-.058.028M18.991 24.941l-.028.029M18.963 24.97l-.029.057M18.934 25.027v.114M18.934 25.141l.029.058M18.963 25.199l.028.028M18.991 25.227l.058.029"/>
        </g>
    </g>
    <g style="fill:none;stroke:#afafaf;stroke-width:.0212;stroke-opacity:1;stroke-linecap:round;stroke-linejoin:round">
        <path d="M18.43 25.07v.6M18.43 25.67a.6.6 0 0 0 1.2 0M19.63 25.67v-.6M19.63 25.07a.6.6 0 0 0-1.2 0"/>
    </g>
    <g style="fill:none;stroke:#afafaf;stroke-width:.05;stroke-opacity:1;stroke-linecap:round;stroke-linejoin:round">
        <g class="stroked-text">
            <path d="M19.306 22.944v.343M19.306 23.116h-.6M18.706 23.116l.085.057M18.791 23.173l.058.057M18.849 23.23l.028.057M18.706 22.744v-.4M18.706 22.344l.6.257"/>
        </g>
    </g>
    <g style="fill:none;stroke:#afafaf;stroke-width:.0212;stroke-opacity:1;stroke-linecap:round;stroke-linejoin:round">
        <path d="M18.43 22.53v.6M18.43 23.13a.6.6 0 0 0 1.2 0M19.63 23.13v-.6M19.63 22.53a.6.6 0 0 0-1.2 0"/>
    </g>
    <g style="fill:none;stroke:#afafaf;stroke-width:.05;stroke-opacity:1;stroke-linecap:round;stroke-linejoin:round">
        <g class="stroked-text">
            <path d="M19.306 20.404v.343M19.306 20.576h-.6M18.706 20.576l.085.057M18.791 20.633l.058.057M18.849 20.69l.028.057M18.963 20.061l-.029.058M18.934 20.119l-.028.028M18.906 20.147l-.057.029M18.849 20.176h-.029M18.82 20.176l-.057-.029M18.763 20.147l-.029-.028M18.734 20.119l-.028-.058M18.706 20.061v-.114M18.706 19.947l.028-.057M18.734 19.89l.029-.029M18.763 19.861l.057-.028M18.82 19.833h.029M18.849 19.833l.057.028M18.906 19.861l.028.029M18.934 19.89l.029.057M18.963 19.947v.114M18.963 20.061l.028.058M18.991 20.119l.029.028M19.02 20.147l.057.029M19.077 20.176h.114M19.191 20.176l.058-.029M19.249 20.147l.028-.028M19.277 20.119l.029-.058M19.306 20.061v-.114M19.306 19.947l-.029-.057M19.277 19.89l-.029-.029M19.249 19.861l-.058-.028M19.191 19.833h-.114M19.077 19.833l-.057.028M19.02 19.861l-.029.029M18.991 19.89l-.028.057"/>
        </g>
    </g>
    <g style="fill:none;stroke:#afafaf;stroke-width:.0212;stroke-opacity:1;stroke-linecap:round;stroke-linejoin:round">
        <path d="M18.43 19.99v.6M18.43 20.59a.6.6 0 0 0 1.2 0M19.63 20.59v-.6M19.63 19.99a.6.6 0 0 0-1.2 0"/>
    </g>
    <g style="fill:none;stroke:#afafaf;stroke-width:.05;stroke-opacity:1;stroke-linecap:round;stroke-linejoin:round">
        <g class="stroked-text">
            <path d="M19.306 17.864v.343M19.306 18.036h-.6M18.706 18.036l.085.057M18.791 18.093l.058.057M18.849 18.15l.028.057M19.306 17.579v-.115M19.306 17.464l-.029-.057M19.277 17.407l-.029-.028M19.249 17.379l-.086-.058M19.163 17.321l-.114-.028M19.049 17.293h-.229M18.82 17.293l-.057.028M18.763 17.321l-.029.029M18.734 17.35l-.028.057M18.706 17.407v.114M18.706 17.521l.028.058M18.734 17.579l.029.028M18.763 17.607l.057.029M18.82 17.636h.143M18.963 17.636l.057-.029M19.02 17.607l.029-.028M19.049 17.579l.028-.058M19.077 17.521v-.114M19.077 17.407l-.029-.057M19.049 17.35l-.029-.029M19.02 17.321l-.057-.028"/>
        </g>
    </g>
    <g style="fill:none;stroke:#afafaf;stroke-width:.0212;stroke-opacity:1;stroke-linecap:round;stroke-linejoin:round">
        <path d="M18.43 17.45v.6M18.43 18.05a.6.6 0 0 0 1.2 0M19.63 18.05v-.6M19.63 17.45a.6.6 0 0 0-1.2 0"/>
    </g>
    <g style="fill:none;stroke:#afafaf;stroke-width:.05;stroke-opacity:1;stroke-linecap:round;stroke-linejoin:round">
        <g class="stroked-text">
            <path d="m18.763 15.667-.029-.028M18.734 15.639l-.028-.058M18.706 15.581v-.142M18.706 15.439l.028-.058M18.734 15.381l.029-.028M18.763 15.353l.057-.029M18.82 15.324h.057M18.877 15.324l.086.029M18.963 15.353l.343.343M19.306 15.696v-.372M18.706 14.953v-.057M18.706 14.896l.028-.057M18.734 14.839l.029-.029M18.763 14.81l.057-.029M18.82 14.781l.114-.028M18.934 14.753h.143M19.077 14.753l.114.028M19.191 14.781l.058.029M19.249 14.81l.028.029M19.277 14.839l.029.057M19.306 14.896v.057M19.306 14.953l-.029.057M19.277 15.01l-.029.029M19.249 15.039l-.058.028M19.191 15.067l-.114.029M19.077 15.096h-.143M18.934 15.096l-.114-.029M18.82 15.067l-.057-.028M18.763 15.039l-.029-.029M18.734 15.01l-.028-.057"/>
        </g>
    </g>
    <g style="fill:none;stroke:#afafaf;stroke-width:.0212;stroke-opacity:1;stroke-linecap:round;stroke-linejoin:round">
        <path d="M18.43 14.91v.6M18.43 15.51a.6.6 0 0 0 1.2 0M19.63 15.51v-.6M19.63 14.91a.6.6 0 0 0-1.2 0"/>
    </g>
    <g style="fill:none;stroke:#afafaf;stroke-width:.05;stroke-opacity:1;stroke-linecap:round;stroke-linejoin:round">
        <g class="stroked-text">
            <path d="m18.763 13.127-.029-.028M18.734 13.099l-.028-.058M18.706 13.041V12.9M18.706 12.899l.028-.058M18.734 12.841l.029-.028M18.763 12.813l.057-.029M18.82 12.784h.057M18.877 12.784l.086.029M18.963 12.813l.343.343M19.306 13.156v-.372M19.306 12.213v.343M19.306 12.384h-.6M18.706 12.384l.085.057M18.791 12.441l.058.058M18.849 12.499l.028.057"/>
        </g>
    </g>
    <g style="fill:none;stroke:#afafaf;stroke-width:.0212;stroke-opacity:1;stroke-linecap:round;stroke-linejoin:round">
        <path d="M18.43 12.37v.6M18.43 12.97a.6.6 0 0 0 1.2 0M19.63 12.97v-.6M19.63 12.37a.6.6 0 0 0-1.2 0"/>
    </g>
    <g style="fill:none;stroke:#afafaf;stroke-width:.05;stroke-opacity:1;stroke-linecap:round;stroke-linejoin:round">
        <g class="stroked-text">
            <path d="m18.763 10.587-.029-.028M18.734 10.559l-.028-.058M18.706 10.501v-.142M18.706 10.359l.028-.058M18.734 10.301l.029-.028M18.763 10.273l.057-.029M18.82 10.244h.057M18.877 10.244l.086.029M18.963 10.273l.343.343M19.306 10.616v-.372M18.763 10.016l-.029-.029M18.734 9.987l-.028-.057M18.706 9.93v-.143M18.706 9.787l.028-.057M18.734 9.73l.029-.029M18.763 9.701l.057-.028M18.82 9.673h.057M18.877 9.673l.086.028M18.963 9.701l.343.343M19.306 10.044v-.371"/>
        </g>
    </g>
    <g style="fill:none;stroke:#afafaf;stroke-width:.0212;stroke-opacity:1;stroke-linecap:round;stroke-linejoin:round">
        <path d="M18.43 9.83v.6M18.43 10.43a.6.6 0 0 0 1.2 0M19.63 10.43v-.6M19.63 9.83a.6.6 0 0 0-1.2 0"/>
    </g>
    <g style="fill:none;stroke:#afafaf;stroke-width:.05;stroke-opacity:1;stroke-linecap:round;stroke-linejoin:round">
        <g class="stroked-text">
            <path d="m18.763 8.047-.029-.028M18.734 8.019l-.028-.058M18.706 7.961V7.82M18.706 7.819l.028-.058M18.734 7.761l.029-.028M18.763 7.733l.057-.029M18.82 7.704h.057M18.877 7.704l.086.029M18.963 7.733l.343.343M19.306 8.076v-.372M18.706 7.504v-.371M18.706 7.133l.228.2M18.934 7.333v-.086M18.934 7.247l.029-.057M18.963 7.19l.028-.029M18.991 7.161l.058-.028M19.049 7.133h.142M19.191 7.133l.058.028M19.249 7.161l.028.029M19.277 7.19l.029.057M19.306 7.247v.172M19.306 7.419l-.029.057M19.277 7.476l-.029.028"/>
        </g>
    </g>
    <g style="fill:none;stroke:#afafaf;stroke-width:.0212;stroke-opacity:1;stroke-linecap:round;stroke-linejoin:round">
        <path d="M18.43 7.29v.6M18.43 7.89a.6.6 0 0 0 1.2 0M19.63 7.89v-.6M19.63 7.29a.6.6 0 0 0-1.2 0"/>
    </g>
    <g style="fill:none;stroke:#afafaf;stroke-width:.05;stroke-opacity:1;stroke-linecap:round;stroke-linejoin:round">
        <g class="stroked-text">
            <path d="m18.763 5.507-.029-.028M18.734 5.479l-.028-.058M18.706 5.421V5.28M18.706 5.279l.028-.058M18.734 5.221l.029-.028M18.763 5.193l.057-.029M18.82 5.164h.057M18.877 5.164l.086.029M18.963 5.193l.343.343M19.306 5.536v-.372M18.906 4.65h.4M18.677 4.793l.429.143M19.106 4.936v-.372"/>
        </g>
    </g>
    <g style="fill:none;stroke:#afafaf;stroke-width:.0212;stroke-opacity:1;stroke-linecap:round;stroke-linejoin:round">
        <path d="M18.43 4.75v.6M18.43 5.35a.6.6 0 0 0 1.2 0M19.63 5.35v-.6M19.63 4.75a.6.6 0 0 0-1.2 0"/>
    </g>
</svg>
