<svg xmlns="http://www.w3.org/2000/svg" width="70.944" height="92.16" viewBox="0 0 18.771 24.384">
    <g class="stroked-text" style="fill:none;stroke:#f2eda1;stroke-width:.15;stroke-opacity:1;stroke-linecap:round;stroke-linejoin:round">
        <path d="m8.057 11.935-.334-.476M7.485 11.935v-1M7.485 10.935h.381M7.866 10.935l.095.047M7.961 10.982l.048.048M8.009 11.03l.048.095M8.057 11.125v.143M8.057 11.268l-.048.095M8.009 11.363l-.048.048M7.961 11.411l-.095.048M7.866 11.459h-.38M8.485 11.411h.334M8.961 11.935h-.476M8.485 11.935v-1M8.485 10.935h.476M9.723 11.411H9.39M9.39 11.935v-1M9.39 10.935h.476M10.39 10.935v.238M10.152 11.078l.238.095M10.39 11.173l.238-.095M10.247 11.363l.143-.19M10.39 11.173l.143.19M11.152 10.935v.238M10.914 11.078l.238.095M11.152 11.173l.238-.095M11.009 11.363l.143-.19M11.152 11.173l.143.19"/>
    </g>
    <g style="fill:none;stroke:#f2eda1;stroke-width:.12;stroke-opacity:1;stroke-linecap:round;stroke-linejoin:round">
        <path d="M.4 1.3v18.857M2.884 4.66v-1.6M16.48 22.058H2.3M18.38 20.158V1.3M.4 20.158a1.9 1.9 0 0 0 1.9 1.9M16.48 22.058a1.9 1.9 0 0 0 1.9-1.9"/>
        <path stroke="none" d="m1.175 4.71-.098-.02-.082-.055-.056-.082-.019-.098v-1.19l.02-.098.055-.082.082-.056.098-.019h1.19l.098.02.082.055.056.082.019.098v1.19l-.02.098-.055.082-.082.056-.098.019Z" style="fill:#4d7fc4;fill-opacity:1;stroke:none;fill-rule:evenodd"/>
    </g>
    <circle cx="1.77" cy="6.4" r=".85" style="fill:#4d7fc4;fill-opacity:1;stroke:none"/>
    <circle cx="1.77" cy="8.94" r=".85" style="fill:#4d7fc4;fill-opacity:1;stroke:none"/>
    <circle cx="1.77" cy="11.48" r=".85" style="fill:#4d7fc4;fill-opacity:1;stroke:none"/>
    <circle cx="1.77" cy="14.02" r=".85" style="fill:#4d7fc4;fill-opacity:1;stroke:none"/>
    <circle cx="1.77" cy="16.56" r=".85" style="fill:#4d7fc4;fill-opacity:1;stroke:none"/>
    <circle cx="1.77" cy="19.1" r=".85" style="fill:#4d7fc4;fill-opacity:1;stroke:none"/>
    <circle cx="17.01" cy="19.1" r=".85" style="fill:#4d7fc4;fill-opacity:1;stroke:none"/>
    <circle cx="17.01" cy="16.56" r=".85" style="fill:#4d7fc4;fill-opacity:1;stroke:none"/>
    <circle cx="17.01" cy="14.02" r=".85" style="fill:#4d7fc4;fill-opacity:1;stroke:none"/>
    <circle cx="17.01" cy="11.48" r=".85" style="fill:#4d7fc4;fill-opacity:1;stroke:none"/>
    <circle cx="17.01" cy="8.94" r=".85" style="fill:#4d7fc4;fill-opacity:1;stroke:none"/>
    <circle cx="17.01" cy="6.4" r=".85" style="fill:#4d7fc4;fill-opacity:1;stroke:none"/>
    <g style="fill:#4d7fc4;fill-opacity:1;stroke:none">
        <circle cx="17.01" cy="3.86" r=".85"/>
        <path d="m1.175 4.71-.098-.02-.082-.055-.056-.082-.019-.098v-1.19l.02-.098.055-.082.082-.056.098-.019h1.19l.098.02.082.055.056.082.019.098v1.19l-.02.098-.055.082-.082.056-.098.019Z" style="fill:#c83434;fill-opacity:1;stroke:none;fill-rule:evenodd"/>
    </g>
    <circle cx="1.77" cy="6.4" r=".85" style="fill:#c83434;fill-opacity:1;stroke:none"/>
    <circle cx="1.77" cy="8.94" r=".85" style="fill:#c83434;fill-opacity:1;stroke:none"/>
    <circle cx="1.77" cy="11.48" r=".85" style="fill:#c83434;fill-opacity:1;stroke:none"/>
    <circle cx="1.77" cy="14.02" r=".85" style="fill:#c83434;fill-opacity:1;stroke:none"/>
    <circle cx="1.77" cy="16.56" r=".85" style="fill:#c83434;fill-opacity:1;stroke:none"/>
    <circle cx="1.77" cy="19.1" r=".85" style="fill:#c83434;fill-opacity:1;stroke:none"/>
    <circle cx="17.01" cy="19.1" r=".85" style="fill:#c83434;fill-opacity:1;stroke:none"/>
    <circle cx="17.01" cy="16.56" r=".85" style="fill:#c83434;fill-opacity:1;stroke:none"/>
    <circle cx="17.01" cy="14.02" r=".85" style="fill:#c83434;fill-opacity:1;stroke:none"/>
    <circle cx="17.01" cy="11.48" r=".85" style="fill:#c83434;fill-opacity:1;stroke:none"/>
    <circle cx="17.01" cy="8.94" r=".85" style="fill:#c83434;fill-opacity:1;stroke:none"/>
    <circle cx="17.01" cy="6.4" r=".85" style="fill:#c83434;fill-opacity:1;stroke:none"/>
    <circle cx="17.01" cy="3.86" r=".85" style="fill:#c83434;fill-opacity:1;stroke:none"/>
    <g style="fill:none;stroke:#585d84;stroke-width:.0472;stroke-opacity:1;stroke-linecap:round;stroke-linejoin:round">
        <g class="stroked-text">
            <path d="M1.932 4.12h-.324M1.77 4.12v-.567M1.77 3.553l-.054.081M1.716 3.634l-.054.054M1.662 3.688l-.054.027"/>
        </g>
        <path d="m1.175 4.71-.098-.02-.082-.055-.056-.082-.019-.098v-1.19l.02-.098.055-.082.082-.056.098-.019h1.19l.098.02.082.055.056.082.019.098v1.19l-.02.098-.055.082-.082.056-.098.019Z" style="stroke:#585d84;stroke-width:.0212;stroke-opacity:1;stroke-linecap:round;stroke-linejoin:round;fill:none"/>
    </g>
    <g class="stroked-text" style="fill:none;stroke:#585d84;stroke-width:.0472;stroke-opacity:1;stroke-linecap:round;stroke-linejoin:round">
        <path d="m1.608 6.147.027-.027M1.635 6.12l.054-.027M1.689 6.093h.135M1.824 6.093l.054.027M1.878 6.12l.027.027M1.905 6.147l.027.054M1.932 6.201v.054M1.932 6.255l-.027.08M1.905 6.336l-.324.324M1.581 6.66h.35"/>
    </g>
    <circle cx="1.77" cy="6.4" r=".85" style="fill:none;stroke:#585d84;stroke-width:.0212;stroke-opacity:1;stroke-linecap:round;stroke-linejoin:round"/>
    <g class="stroked-text" style="fill:none;stroke:#585d84;stroke-width:.0472;stroke-opacity:1;stroke-linecap:round;stroke-linejoin:round">
        <path d="M1.581 8.633h.35M1.932 8.633l-.189.216M1.743 8.849h.081M1.824 8.849l.054.027M1.878 8.876l.027.027M1.905 8.903l.027.054M1.932 8.957v.135M1.932 9.092l-.027.054M1.905 9.146l-.027.027M1.878 9.173l-.054.027M1.824 9.2h-.162M1.662 9.2l-.054-.027M1.608 9.173l-.027-.027"/>
    </g>
    <circle cx="1.77" cy="8.94" r=".85" style="fill:none;stroke:#585d84;stroke-width:.0212;stroke-opacity:1;stroke-linecap:round;stroke-linejoin:round"/>
    <g class="stroked-text" style="fill:none;stroke:#585d84;stroke-width:.0472;stroke-opacity:1;stroke-linecap:round;stroke-linejoin:round">
        <path d="M1.878 11.362v.378M1.743 11.146l-.135.405M1.608 11.55h.35"/>
    </g>
    <circle cx="1.77" cy="11.48" r=".85" style="fill:none;stroke:#585d84;stroke-width:.0212;stroke-opacity:1;stroke-linecap:round;stroke-linejoin:round"/>
    <g class="stroked-text" style="fill:none;stroke:#585d84;stroke-width:.0472;stroke-opacity:1;stroke-linecap:round;stroke-linejoin:round">
        <path d="M1.905 13.713h-.27M1.635 13.713l-.027.27M1.608 13.983l.027-.027M1.635 13.956l.054-.027M1.689 13.929h.135M1.824 13.929l.054.027M1.878 13.956l.027.027M1.905 13.983l.027.054M1.932 14.037v.135M1.932 14.172l-.027.054M1.905 14.226l-.027.027M1.878 14.253l-.054.027M1.824 14.28h-.135M1.689 14.28l-.054-.027M1.635 14.253l-.027-.027"/>
    </g>
    <circle cx="1.77" cy="14.02" r=".85" style="fill:none;stroke:#585d84;stroke-width:.0212;stroke-opacity:1;stroke-linecap:round;stroke-linejoin:round"/>
    <g class="stroked-text" style="fill:none;stroke:#585d84;stroke-width:.0472;stroke-opacity:1;stroke-linecap:round;stroke-linejoin:round">
        <path d="M1.878 16.253H1.77M1.77 16.253l-.054.027M1.716 16.28l-.027.027M1.689 16.307l-.054.08M1.635 16.388l-.027.108M1.608 16.496v.216M1.608 16.712l.027.054M1.635 16.766l.027.027M1.662 16.793l.054.027M1.716 16.82h.108M1.824 16.82l.054-.027M1.878 16.793l.027-.027M1.905 16.766l.027-.054M1.932 16.712v-.135M1.932 16.577l-.027-.054M1.905 16.523l-.027-.027M1.878 16.496l-.054-.027M1.824 16.469h-.108M1.716 16.469l-.054.027M1.662 16.496l-.027.027M1.635 16.523l-.027.054"/>
    </g>
    <circle cx="1.77" cy="16.56" r=".85" style="fill:none;stroke:#585d84;stroke-width:.0212;stroke-opacity:1;stroke-linecap:round;stroke-linejoin:round"/>
    <g class="stroked-text" style="fill:none;stroke:#585d84;stroke-width:.0472;stroke-opacity:1;stroke-linecap:round;stroke-linejoin:round">
        <path d="M1.581 18.793h.378M1.959 18.793l-.243.567"/>
    </g>
    <circle cx="1.77" cy="19.1" r=".85" style="fill:none;stroke:#585d84;stroke-width:.0212;stroke-opacity:1;stroke-linecap:round;stroke-linejoin:round"/>
    <g class="stroked-text" style="fill:none;stroke:#585d84;stroke-width:.0472;stroke-opacity:1;stroke-linecap:round;stroke-linejoin:round">
        <path d="m16.956 19.036-.054-.027M16.902 19.009l-.027-.027M16.875 18.982l-.027-.054M16.848 18.928V18.9M16.848 18.901l.027-.054M16.875 18.847l.027-.027M16.902 18.82l.054-.027M16.956 18.793h.108M17.064 18.793l.054.027M17.118 18.82l.027.027M17.145 18.847l.027.054M17.172 18.901v.027M17.172 18.928l-.027.054M17.145 18.982l-.027.027M17.118 19.009l-.054.027M17.064 19.036h-.108M16.956 19.036l-.054.027M16.902 19.063l-.027.027M16.875 19.09l-.027.054M16.848 19.144v.108M16.848 19.252l.027.054M16.875 19.306l.027.027M16.902 19.333l.054.027M16.956 19.36h.108M17.064 19.36l.054-.027M17.118 19.333l.027-.027M17.145 19.306l.027-.054M17.172 19.252v-.108M17.172 19.144l-.027-.054M17.145 19.09l-.027-.027M17.118 19.063l-.054-.027"/>
    </g>
    <circle cx="17.01" cy="19.1" r=".85" style="fill:none;stroke:#585d84;stroke-width:.0212;stroke-opacity:1;stroke-linecap:round;stroke-linejoin:round"/>
    <g class="stroked-text" style="fill:none;stroke:#585d84;stroke-width:.0472;stroke-opacity:1;stroke-linecap:round;stroke-linejoin:round">
        <path d="M16.902 16.82h.108M17.01 16.82l.054-.027M17.064 16.793l.027-.027M17.091 16.766l.054-.081M17.145 16.685l.027-.108M17.172 16.577v-.216M17.172 16.361l-.027-.054M17.145 16.307l-.027-.027M17.118 16.28l-.054-.027M17.064 16.253h-.108M16.956 16.253l-.054.027M16.902 16.28l-.027.027M16.875 16.307l-.027.054M16.848 16.361v.135M16.848 16.496l.027.054M16.875 16.55l.027.027M16.902 16.577l.054.027M16.956 16.604h.108M17.064 16.604l.054-.027M17.118 16.577l.027-.027M17.145 16.55l.027-.054"/>
    </g>
    <circle cx="17.01" cy="16.56" r=".85" style="fill:none;stroke:#585d84;stroke-width:.0212;stroke-opacity:1;stroke-linecap:round;stroke-linejoin:round"/>
    <g class="stroked-text" style="fill:none;stroke:#585d84;stroke-width:.0472;stroke-opacity:1;stroke-linecap:round;stroke-linejoin:round">
        <path d="M16.902 14.28h-.324M16.74 14.28v-.567M16.74 13.713l-.054.081M16.686 13.794l-.054.054M16.632 13.848l-.054.027M17.253 13.713h.054M17.307 13.713l.054.027M17.36 13.74l.028.027M17.388 13.767l.027.054M17.415 13.821l.027.108M17.442 13.929v.135M17.442 14.064l-.027.108M17.415 14.172l-.027.054M17.388 14.226l-.027.027M17.36 14.253l-.053.027M17.307 14.28h-.054M17.253 14.28l-.054-.027M17.199 14.253l-.027-.027M17.172 14.226l-.027-.054M17.145 14.172l-.027-.108M17.118 14.064v-.135M17.118 13.929l.027-.108M17.145 13.821l.027-.054M17.172 13.767l.027-.027M17.199 13.74l.054-.027"/>
    </g>
    <circle cx="17.01" cy="14.02" r=".85" style="fill:none;stroke:#585d84;stroke-width:.0212;stroke-opacity:1;stroke-linecap:round;stroke-linejoin:round"/>
    <g class="stroked-text" style="fill:none;stroke:#585d84;stroke-width:.0472;stroke-opacity:1;stroke-linecap:round;stroke-linejoin:round">
        <path d="M16.902 11.74h-.324M16.74 11.74v-.567M16.74 11.173l-.054.081M16.686 11.254l-.054.054M16.632 11.308l-.054.027M17.442 11.74h-.324M17.28 11.74v-.567M17.28 11.173l-.054.081M17.226 11.254l-.054.054M17.172 11.308l-.054.027"/>
    </g>
    <circle cx="17.01" cy="11.48" r=".85" style="fill:none;stroke:#585d84;stroke-width:.0212;stroke-opacity:1;stroke-linecap:round;stroke-linejoin:round"/>
    <g class="stroked-text" style="fill:none;stroke:#585d84;stroke-width:.0472;stroke-opacity:1;stroke-linecap:round;stroke-linejoin:round">
        <path d="M16.902 9.2h-.324M16.74 9.2v-.567M16.74 8.633l-.054.081M16.686 8.714l-.054.054M16.632 8.768l-.054.027M17.118 8.687l.027-.027M17.145 8.66l.054-.027M17.199 8.633h.135M17.334 8.633l.054.027M17.388 8.66l.027.027M17.415 8.687l.027.054M17.442 8.741v.054M17.442 8.795l-.027.08M17.415 8.876l-.324.324M17.091 9.2h.35"/>
    </g>
    <circle cx="17.01" cy="8.94" r=".85" style="fill:none;stroke:#585d84;stroke-width:.0212;stroke-opacity:1;stroke-linecap:round;stroke-linejoin:round"/>
    <g class="stroked-text" style="fill:none;stroke:#585d84;stroke-width:.0472;stroke-opacity:1;stroke-linecap:round;stroke-linejoin:round">
        <path d="M16.902 6.66h-.324M16.74 6.66v-.567M16.74 6.093l-.054.081M16.686 6.174l-.054.054M16.632 6.228l-.054.027M17.091 6.093h.35M17.442 6.093l-.19.216M17.253 6.309h.08M17.334 6.309l.054.027M17.388 6.336l.027.027M17.415 6.363l.027.054M17.442 6.417v.135M17.442 6.552l-.027.054M17.415 6.606l-.027.027M17.388 6.633l-.054.027M17.334 6.66h-.162M17.172 6.66l-.054-.027M17.118 6.633l-.027-.027"/>
    </g>
    <circle cx="17.01" cy="6.4" r=".85" style="fill:none;stroke:#585d84;stroke-width:.0212;stroke-opacity:1;stroke-linecap:round;stroke-linejoin:round"/>
    <g class="stroked-text" style="fill:none;stroke:#585d84;stroke-width:.0472;stroke-opacity:1;stroke-linecap:round;stroke-linejoin:round">
        <path d="M16.902 4.12h-.324M16.74 4.12v-.567M16.74 3.553l-.054.081M16.686 3.634l-.054.054M16.632 3.688l-.054.027M17.388 3.742v.378M17.253 3.526l-.135.405M17.118 3.93h.35"/>
    </g>
    <circle cx="17.01" cy="3.86" r=".85" style="fill:none;stroke:#585d84;stroke-width:.0212;stroke-opacity:1;stroke-linecap:round;stroke-linejoin:round"/>
    <g style="fill:none;stroke:#afafaf;stroke-width:.15;stroke-opacity:1;stroke-linecap:round;stroke-linejoin:round">
        <g class="stroked-text">
            <path d="M1.152 24v-1M1.152 23l.333.714M1.485 23.714 1.82 23M1.819 23v1M2.866 23.905l-.047.047M2.819 23.952 2.676 24M2.676 24H2.58M2.58 24l-.142-.048M2.438 23.952l-.096-.095M2.342 23.857l-.047-.095M2.295 23.762l-.048-.19M2.247 23.571v-.143M2.247 23.428l.048-.19M2.295 23.238l.047-.095M2.342 23.143l.096-.096M2.438 23.047 2.58 23M2.58 23h.096M2.676 23l.143.047M2.819 23.047l.047.048M3.295 23v.81M3.295 23.81l.047.095M3.342 23.905l.048.047M3.39 23.952l.095.048M3.485 24h.19M3.676 24l.095-.048M3.771 23.952l.048-.047M3.819 23.905l.047-.096M3.866 23.81V23M4.104 24.095h.762M5.009 23l.667 1M5.676 23l-.667 1M6.057 24v-1M6.485 23.714h.476M6.39 24l.333-1M6.723 23l.334 1M7.58 23h.191M7.771 23l.095.047M7.866 23.047l.095.096M7.961 23.143l.048.19M8.009 23.333v.334M8.009 23.667l-.048.19M7.961 23.857l-.095.095M7.866 23.952 7.771 24M7.771 24h-.19M7.58 24l-.095-.048M7.485 23.952l-.095-.095M7.39 23.857l-.048-.19M7.342 23.667v-.334M7.342 23.333l.048-.19M7.39 23.143l.095-.096M7.485 23.047 7.58 23M8.2 24.095h.761M9.723 23.047 9.628 23M9.628 23h-.143M9.485 23l-.143.047M9.342 23.047l-.095.096M9.247 23.143l-.047.095M9.2 23.238l-.048.19M9.152 23.428v.143M9.152 23.571l.048.19M9.2 23.762l.047.095M9.247 23.857l.095.095M9.342 23.952l.143.048M9.485 24h.096M9.58 24l.143-.048M9.723 23.952l.048-.047M9.771 23.905v-.334M9.771 23.571h-.19M10.58 23.952l-.095.048M10.485 24h-.19M10.295 24l-.095-.048M10.2 23.952l-.048-.095M10.152 23.857v-.381M10.152 23.476l.048-.095M10.2 23.38l.095-.047M10.295 23.333h.19M10.485 23.333l.096.048M10.58 23.38l.048.096M10.628 23.476v.095M10.628 23.571l-.476.095M11.057 23.333V24M11.057 23.428l.047-.047M11.104 23.38l.096-.047M11.2 23.333h.142M11.342 23.333l.096.048M11.438 23.38l.047.096M11.485 23.476V24M12.342 23.952l-.095.048M12.247 24h-.19M12.057 24l-.096-.048M11.961 23.952l-.047-.095M11.914 23.857v-.381M11.914 23.476l.047-.095M11.961 23.38l.096-.047M12.057 23.333h.19M12.247 23.333l.095.048M12.342 23.38l.048.096M12.39 23.476v.095M12.39 23.571l-.476.095M12.819 24v-.667M12.819 23.524l.047-.096M12.866 23.428l.048-.047M12.914 23.38l.095-.047M13.009 23.333h.095M13.438 24v-.667M13.438 23l-.048.047M13.39 23.047l.048.048M13.438 23.095l.047-.048M13.485 23.047 13.438 23M13.438 23v.095M14.342 23.952l-.095.048M14.247 24h-.19M14.057 24l-.096-.048M13.961 23.952l-.047-.047M13.914 23.905l-.048-.096M13.866 23.81v-.286M13.866 23.524l.048-.096M13.914 23.428l.047-.047M13.961 23.38l.096-.047M14.057 23.333h.19M14.247 23.333l.095.048M14.533 24.095h.762M15.39 23h.571M15.676 24v-1M16.295 24v-1M16.295 23.476h.571M16.866 24v-1M17.2 23h.571M17.485 24v-1"/>
        </g>
        <g class="stroked-text">
            <path d="m8.057 11.959-.334-.477M7.485 11.959v-1M7.485 10.959h.381M7.866 10.959l.095.047M7.961 11.006l.048.048M8.009 11.054l.048.095M8.057 11.149v.143M8.057 11.292l-.048.095M8.009 11.387l-.048.048M7.961 11.435l-.095.047M7.866 11.482h-.38M8.485 11.435h.334M8.961 11.959h-.476M8.485 11.959v-1M8.485 10.959h.476M9.723 11.435H9.39M9.39 11.959v-1M9.39 10.959h.476M10.39 10.959v.238M10.152 11.101l.238.096M10.39 11.197l.238-.096M10.247 11.387l.143-.19M10.39 11.197l.143.19M11.152 10.959v.238M10.914 11.101l.238.096M11.152 11.197l.238-.096M11.009 11.387l.143-.19M11.152 11.197l.143.19"/>
        </g>
    </g>
    <g style="fill:none;stroke:#afafaf;stroke-width:.1;stroke-opacity:1;stroke-linecap:round;stroke-linejoin:round">
        <path d="M.5 20.158V2.85M2.3 1.05h14.18M16.48 21.958H2.3M18.28 2.85v17.307"/>
        <path d="M4.89.05h9v1h-9Z" style="stroke:#afafaf;stroke-width:.1;stroke-opacity:1;stroke-linecap:round;stroke-linejoin:round;fill:none"/>
        <path d="M2.3 1.05a1.8 1.8 0 0 0-1.8 1.8M.5 20.158a1.8 1.8 0 0 0 1.8 1.8M18.28 2.85a1.8 1.8 0 0 0-1.8-1.8M16.48 21.958a1.8 1.8 0 0 0 1.8-1.8"/>
    </g>
    <g style="fill:none;stroke:#afafaf;stroke-width:.0472;stroke-opacity:1;stroke-linecap:round;stroke-linejoin:round">
        <g class="stroked-text">
            <path d="M1.932 4.12h-.324M1.77 4.12v-.567M1.77 3.553l-.054.081M1.716 3.634l-.054.054M1.662 3.688l-.054.027"/>
        </g>
        <path d="m1.175 4.71-.098-.02-.082-.055-.056-.082-.019-.098v-1.19l.02-.098.055-.082.082-.056.098-.019h1.19l.098.02.082.055.056.082.019.098v1.19l-.02.098-.055.082-.082.056-.098.019Z" style="stroke:#afafaf;stroke-width:.0212;stroke-opacity:1;stroke-linecap:round;stroke-linejoin:round;fill:none"/>
    </g>
    <g class="stroked-text" style="fill:none;stroke:#afafaf;stroke-width:.0472;stroke-opacity:1;stroke-linecap:round;stroke-linejoin:round">
        <path d="m1.608 6.147.027-.027M1.635 6.12l.054-.027M1.689 6.093h.135M1.824 6.093l.054.027M1.878 6.12l.027.027M1.905 6.147l.027.054M1.932 6.201v.054M1.932 6.255l-.027.08M1.905 6.336l-.324.324M1.581 6.66h.35"/>
    </g>
    <circle cx="1.77" cy="6.4" r=".85" style="fill:none;stroke:#afafaf;stroke-width:.0212;stroke-opacity:1;stroke-linecap:round;stroke-linejoin:round"/>
    <g class="stroked-text" style="fill:none;stroke:#afafaf;stroke-width:.0472;stroke-opacity:1;stroke-linecap:round;stroke-linejoin:round">
        <path d="M1.581 8.633h.35M1.932 8.633l-.189.216M1.743 8.849h.081M1.824 8.849l.054.027M1.878 8.876l.027.027M1.905 8.903l.027.054M1.932 8.957v.135M1.932 9.092l-.027.054M1.905 9.146l-.027.027M1.878 9.173l-.054.027M1.824 9.2h-.162M1.662 9.2l-.054-.027M1.608 9.173l-.027-.027"/>
    </g>
    <circle cx="1.77" cy="8.94" r=".85" style="fill:none;stroke:#afafaf;stroke-width:.0212;stroke-opacity:1;stroke-linecap:round;stroke-linejoin:round"/>
    <g class="stroked-text" style="fill:none;stroke:#afafaf;stroke-width:.0472;stroke-opacity:1;stroke-linecap:round;stroke-linejoin:round">
        <path d="M1.878 11.362v.378M1.743 11.146l-.135.405M1.608 11.55h.35"/>
    </g>
    <circle cx="1.77" cy="11.48" r=".85" style="fill:none;stroke:#afafaf;stroke-width:.0212;stroke-opacity:1;stroke-linecap:round;stroke-linejoin:round"/>
    <g class="stroked-text" style="fill:none;stroke:#afafaf;stroke-width:.0472;stroke-opacity:1;stroke-linecap:round;stroke-linejoin:round">
        <path d="M1.905 13.713h-.27M1.635 13.713l-.027.27M1.608 13.983l.027-.027M1.635 13.956l.054-.027M1.689 13.929h.135M1.824 13.929l.054.027M1.878 13.956l.027.027M1.905 13.983l.027.054M1.932 14.037v.135M1.932 14.172l-.027.054M1.905 14.226l-.027.027M1.878 14.253l-.054.027M1.824 14.28h-.135M1.689 14.28l-.054-.027M1.635 14.253l-.027-.027"/>
    </g>
    <circle cx="1.77" cy="14.02" r=".85" style="fill:none;stroke:#afafaf;stroke-width:.0212;stroke-opacity:1;stroke-linecap:round;stroke-linejoin:round"/>
    <g class="stroked-text" style="fill:none;stroke:#afafaf;stroke-width:.0472;stroke-opacity:1;stroke-linecap:round;stroke-linejoin:round">
        <path d="M1.878 16.253H1.77M1.77 16.253l-.054.027M1.716 16.28l-.027.027M1.689 16.307l-.054.08M1.635 16.388l-.027.108M1.608 16.496v.216M1.608 16.712l.027.054M1.635 16.766l.027.027M1.662 16.793l.054.027M1.716 16.82h.108M1.824 16.82l.054-.027M1.878 16.793l.027-.027M1.905 16.766l.027-.054M1.932 16.712v-.135M1.932 16.577l-.027-.054M1.905 16.523l-.027-.027M1.878 16.496l-.054-.027M1.824 16.469h-.108M1.716 16.469l-.054.027M1.662 16.496l-.027.027M1.635 16.523l-.027.054"/>
    </g>
    <circle cx="1.77" cy="16.56" r=".85" style="fill:none;stroke:#afafaf;stroke-width:.0212;stroke-opacity:1;stroke-linecap:round;stroke-linejoin:round"/>
    <g class="stroked-text" style="fill:none;stroke:#afafaf;stroke-width:.0472;stroke-opacity:1;stroke-linecap:round;stroke-linejoin:round">
        <path d="M1.581 18.793h.378M1.959 18.793l-.243.567"/>
    </g>
    <circle cx="1.77" cy="19.1" r=".85" style="fill:none;stroke:#afafaf;stroke-width:.0212;stroke-opacity:1;stroke-linecap:round;stroke-linejoin:round"/>
    <g class="stroked-text" style="fill:none;stroke:#afafaf;stroke-width:.0472;stroke-opacity:1;stroke-linecap:round;stroke-linejoin:round">
        <path d="m16.956 19.036-.054-.027M16.902 19.009l-.027-.027M16.875 18.982l-.027-.054M16.848 18.928V18.9M16.848 18.901l.027-.054M16.875 18.847l.027-.027M16.902 18.82l.054-.027M16.956 18.793h.108M17.064 18.793l.054.027M17.118 18.82l.027.027M17.145 18.847l.027.054M17.172 18.901v.027M17.172 18.928l-.027.054M17.145 18.982l-.027.027M17.118 19.009l-.054.027M17.064 19.036h-.108M16.956 19.036l-.054.027M16.902 19.063l-.027.027M16.875 19.09l-.027.054M16.848 19.144v.108M16.848 19.252l.027.054M16.875 19.306l.027.027M16.902 19.333l.054.027M16.956 19.36h.108M17.064 19.36l.054-.027M17.118 19.333l.027-.027M17.145 19.306l.027-.054M17.172 19.252v-.108M17.172 19.144l-.027-.054M17.145 19.09l-.027-.027M17.118 19.063l-.054-.027"/>
    </g>
    <circle cx="17.01" cy="19.1" r=".85" style="fill:none;stroke:#afafaf;stroke-width:.0212;stroke-opacity:1;stroke-linecap:round;stroke-linejoin:round"/>
    <g class="stroked-text" style="fill:none;stroke:#afafaf;stroke-width:.0472;stroke-opacity:1;stroke-linecap:round;stroke-linejoin:round">
        <path d="M16.902 16.82h.108M17.01 16.82l.054-.027M17.064 16.793l.027-.027M17.091 16.766l.054-.081M17.145 16.685l.027-.108M17.172 16.577v-.216M17.172 16.361l-.027-.054M17.145 16.307l-.027-.027M17.118 16.28l-.054-.027M17.064 16.253h-.108M16.956 16.253l-.054.027M16.902 16.28l-.027.027M16.875 16.307l-.027.054M16.848 16.361v.135M16.848 16.496l.027.054M16.875 16.55l.027.027M16.902 16.577l.054.027M16.956 16.604h.108M17.064 16.604l.054-.027M17.118 16.577l.027-.027M17.145 16.55l.027-.054"/>
    </g>
    <circle cx="17.01" cy="16.56" r=".85" style="fill:none;stroke:#afafaf;stroke-width:.0212;stroke-opacity:1;stroke-linecap:round;stroke-linejoin:round"/>
    <g class="stroked-text" style="fill:none;stroke:#afafaf;stroke-width:.0472;stroke-opacity:1;stroke-linecap:round;stroke-linejoin:round">
        <path d="M16.902 14.28h-.324M16.74 14.28v-.567M16.74 13.713l-.054.081M16.686 13.794l-.054.054M16.632 13.848l-.054.027M17.253 13.713h.054M17.307 13.713l.054.027M17.36 13.74l.028.027M17.388 13.767l.027.054M17.415 13.821l.027.108M17.442 13.929v.135M17.442 14.064l-.027.108M17.415 14.172l-.027.054M17.388 14.226l-.027.027M17.36 14.253l-.053.027M17.307 14.28h-.054M17.253 14.28l-.054-.027M17.199 14.253l-.027-.027M17.172 14.226l-.027-.054M17.145 14.172l-.027-.108M17.118 14.064v-.135M17.118 13.929l.027-.108M17.145 13.821l.027-.054M17.172 13.767l.027-.027M17.199 13.74l.054-.027"/>
    </g>
    <circle cx="17.01" cy="14.02" r=".85" style="fill:none;stroke:#afafaf;stroke-width:.0212;stroke-opacity:1;stroke-linecap:round;stroke-linejoin:round"/>
    <g class="stroked-text" style="fill:none;stroke:#afafaf;stroke-width:.0472;stroke-opacity:1;stroke-linecap:round;stroke-linejoin:round">
        <path d="M16.902 11.74h-.324M16.74 11.74v-.567M16.74 11.173l-.054.081M16.686 11.254l-.054.054M16.632 11.308l-.054.027M17.442 11.74h-.324M17.28 11.74v-.567M17.28 11.173l-.054.081M17.226 11.254l-.054.054M17.172 11.308l-.054.027"/>
    </g>
    <circle cx="17.01" cy="11.48" r=".85" style="fill:none;stroke:#afafaf;stroke-width:.0212;stroke-opacity:1;stroke-linecap:round;stroke-linejoin:round"/>
    <g class="stroked-text" style="fill:none;stroke:#afafaf;stroke-width:.0472;stroke-opacity:1;stroke-linecap:round;stroke-linejoin:round">
        <path d="M16.902 9.2h-.324M16.74 9.2v-.567M16.74 8.633l-.054.081M16.686 8.714l-.054.054M16.632 8.768l-.054.027M17.118 8.687l.027-.027M17.145 8.66l.054-.027M17.199 8.633h.135M17.334 8.633l.054.027M17.388 8.66l.027.027M17.415 8.687l.027.054M17.442 8.741v.054M17.442 8.795l-.027.08M17.415 8.876l-.324.324M17.091 9.2h.35"/>
    </g>
    <circle cx="17.01" cy="8.94" r=".85" style="fill:none;stroke:#afafaf;stroke-width:.0212;stroke-opacity:1;stroke-linecap:round;stroke-linejoin:round"/>
    <g class="stroked-text" style="fill:none;stroke:#afafaf;stroke-width:.0472;stroke-opacity:1;stroke-linecap:round;stroke-linejoin:round">
        <path d="M16.902 6.66h-.324M16.74 6.66v-.567M16.74 6.093l-.054.081M16.686 6.174l-.054.054M16.632 6.228l-.054.027M17.091 6.093h.35M17.442 6.093l-.19.216M17.253 6.309h.08M17.334 6.309l.054.027M17.388 6.336l.027.027M17.415 6.363l.027.054M17.442 6.417v.135M17.442 6.552l-.027.054M17.415 6.606l-.027.027M17.388 6.633l-.054.027M17.334 6.66h-.162M17.172 6.66l-.054-.027M17.118 6.633l-.027-.027"/>
    </g>
    <circle cx="17.01" cy="6.4" r=".85" style="fill:none;stroke:#afafaf;stroke-width:.0212;stroke-opacity:1;stroke-linecap:round;stroke-linejoin:round"/>
    <g class="stroked-text" style="fill:none;stroke:#afafaf;stroke-width:.0472;stroke-opacity:1;stroke-linecap:round;stroke-linejoin:round">
        <path d="M16.902 4.12h-.324M16.74 4.12v-.567M16.74 3.553l-.054.081M16.686 3.634l-.054.054M16.632 3.688l-.054.027M17.388 3.742v.378M17.253 3.526l-.135.405M17.118 3.93h.35"/>
    </g>
    <circle cx="17.01" cy="3.86" r=".85" style="fill:none;stroke:#afafaf;stroke-width:.0212;stroke-opacity:1;stroke-linecap:round;stroke-linejoin:round"/>
</svg>
