<?xml version="1.0" standalone="no"?>
 <!DOCTYPE svg PUBLIC "-//W3C//DTD SVG 1.1//EN" 
 "http://www.w3.org/Graphics/SVG/1.1/DTD/svg11.dtd"> 
<svg
  xmlns:svg="http://www.w3.org/2000/svg"
  xmlns="http://www.w3.org/2000/svg"
  xmlns:xlink="http://www.w3.org/1999/xlink"
  version="1.1"
  width="23.5712mm" height="37.8714mm" viewBox="0.0000 0.0000 23.5712 37.8714">
<title>SVG Image created as MCU_ProMicro_Generic_Reverse.svg date 2025/04/10 11:36:10 </title>
  <desc>Image generated by PCBNEW </desc>
<g style="fill:#000000; fill-opacity:1.0000;stroke:#000000; stroke-opacity:1.0000;
stroke-linecap:round; stroke-linejoin:round;"
 transform="translate(0 0) scale(1 1)">
</g>
<g style="fill:none; 
stroke:#F2EDA1; stroke-width:0.1500; stroke-opacity:1; 
stroke-linecap:round; stroke-linejoin:round;">
<text x="11.7917" y="3.1400"
textLength="4.5357" font-size="1.3333" lengthAdjust="spacingAndGlyphs"
text-anchor="middle" opacity="0" stroke-opacity="0">REF**</text>
<g class="stroked-text"><desc>REF**</desc>
<path d="M10.4583 3.0948
L10.1250 2.6186
" />
<path d="M9.8869 3.0948
L9.8869 2.0948
" />
<path d="M9.8869 2.0948
L10.2679 2.0948
" />
<path d="M10.2679 2.0948
L10.3631 2.1424
" />
<path d="M10.3631 2.1424
L10.4107 2.1901
" />
<path d="M10.4107 2.1901
L10.4583 2.2853
" />
<path d="M10.4583 2.2853
L10.4583 2.4282
" />
<path d="M10.4583 2.4282
L10.4107 2.5234
" />
<path d="M10.4107 2.5234
L10.3631 2.5710
" />
<path d="M10.3631 2.5710
L10.2679 2.6186
" />
<path d="M10.2679 2.6186
L9.8869 2.6186
" />
<path d="M10.8869 2.5710
L11.2202 2.5710
" />
<path d="M11.3631 3.0948
L10.8869 3.0948
" />
<path d="M10.8869 3.0948
L10.8869 2.0948
" />
<path d="M10.8869 2.0948
L11.3631 2.0948
" />
<path d="M12.1250 2.5710
L11.7917 2.5710
" />
<path d="M11.7917 3.0948
L11.7917 2.0948
" />
<path d="M11.7917 2.0948
L12.2679 2.0948
" />
<path d="M12.7917 2.0948
L12.7917 2.3329
" />
<path d="M12.5536 2.2377
L12.7917 2.3329
" />
<path d="M12.7917 2.3329
L13.0298 2.2377
" />
<path d="M12.6488 2.5234
L12.7917 2.3329
" />
<path d="M12.7917 2.3329
L12.9345 2.5234
" />
<path d="M13.5536 2.0948
L13.5536 2.3329
" />
<path d="M13.3155 2.2377
L13.5536 2.3329
" />
<path d="M13.5536 2.3329
L13.7917 2.2377
" />
<path d="M13.4107 2.5234
L13.5536 2.3329
" />
<path d="M13.5536 2.3329
L13.6964 2.5234
" />
</g></g>
<g style="fill:none; 
stroke:#F2EDA1; stroke-width:0.1200; stroke-opacity:1; 
stroke-linecap:round; stroke-linejoin:round;">
<path d="M18.2977 5.8400
L18.2977 4.2400
" />
<path style="fill:none; 
stroke:#F2EDA1; stroke-width:0.1200; stroke-opacity:1; 
stroke-linecap:round; stroke-linejoin:round;fill:none"
d="M 2.9017,3.7700
20.6817,3.7700
20.6817,34.2500
2.9017,34.2500
Z" /> 
<path style="fill:#C83434; fill-opacity:1.0000; stroke:none;fill-rule:evenodd;"
d="M 18.5617,4.4450
18.5811,4.3474
18.6364,4.2647
18.7191,4.2094
18.8167,4.1900
20.0067,4.1900
20.1043,4.2094
20.1870,4.2647
20.2423,4.3474
20.2617,4.4450
20.2617,5.6350
20.2423,5.7326
20.1870,5.8153
20.1043,5.8706
20.0067,5.8900
18.8167,5.8900
18.7191,5.8706
18.6364,5.8153
18.5811,5.7326
18.5617,5.6350
Z" /> 
</g>
<g style="fill:#C83434; fill-opacity:1.0000; stroke:none;">
<circle cx="19.4117" cy="7.5800" r="0.8500" /> 
<circle cx="19.4117" cy="10.1200" r="0.8500" /> 
<circle cx="19.4117" cy="12.6600" r="0.8500" /> 
<circle cx="19.4117" cy="15.2000" r="0.8500" /> 
<circle cx="19.4117" cy="17.7400" r="0.8500" /> 
<circle cx="19.4117" cy="20.2800" r="0.8500" /> 
<circle cx="19.4117" cy="22.8200" r="0.8500" /> 
<circle cx="19.4117" cy="25.3600" r="0.8500" /> 
<circle cx="19.4117" cy="27.9000" r="0.8500" /> 
<circle cx="19.4117" cy="30.4400" r="0.8500" /> 
<circle cx="19.4117" cy="32.9800" r="0.8500" /> 
<circle cx="4.1717" cy="32.9800" r="0.8500" /> 
<circle cx="4.1717" cy="30.4400" r="0.8500" /> 
<circle cx="4.1717" cy="27.9000" r="0.8500" /> 
<circle cx="4.1717" cy="25.3600" r="0.8500" /> 
<circle cx="4.1717" cy="22.8200" r="0.8500" /> 
<circle cx="4.1717" cy="20.2800" r="0.8500" /> 
<circle cx="4.1717" cy="17.7400" r="0.8500" /> 
<circle cx="4.1717" cy="15.2000" r="0.8500" /> 
<circle cx="4.1717" cy="12.6600" r="0.8500" /> 
<circle cx="4.1717" cy="10.1200" r="0.8500" /> 
<circle cx="4.1717" cy="7.5800" r="0.8500" /> 
<circle cx="4.1717" cy="5.0400" r="0.8500" /> 
<path style="fill:#4D7FC4; fill-opacity:1.0000; stroke:none;fill-rule:evenodd;"
d="M 18.5617,4.4450
18.5811,4.3474
18.6364,4.2647
18.7191,4.2094
18.8167,4.1900
20.0067,4.1900
20.1043,4.2094
20.1870,4.2647
20.2423,4.3474
20.2617,4.4450
20.2617,5.6350
20.2423,5.7326
20.1870,5.8153
20.1043,5.8706
20.0067,5.8900
18.8167,5.8900
18.7191,5.8706
18.6364,5.8153
18.5811,5.7326
18.5617,5.6350
Z" /> 
</g>
<g style="fill:#4D7FC4; fill-opacity:1.0000; stroke:none;">
<circle cx="19.4117" cy="7.5800" r="0.8500" /> 
<circle cx="19.4117" cy="10.1200" r="0.8500" /> 
<circle cx="19.4117" cy="12.6600" r="0.8500" /> 
<circle cx="19.4117" cy="15.2000" r="0.8500" /> 
<circle cx="19.4117" cy="17.7400" r="0.8500" /> 
<circle cx="19.4117" cy="20.2800" r="0.8500" /> 
<circle cx="19.4117" cy="22.8200" r="0.8500" /> 
<circle cx="19.4117" cy="25.3600" r="0.8500" /> 
<circle cx="19.4117" cy="27.9000" r="0.8500" /> 
<circle cx="19.4117" cy="30.4400" r="0.8500" /> 
<circle cx="19.4117" cy="32.9800" r="0.8500" /> 
<circle cx="4.1717" cy="32.9800" r="0.8500" /> 
<circle cx="4.1717" cy="30.4400" r="0.8500" /> 
<circle cx="4.1717" cy="27.9000" r="0.8500" /> 
<circle cx="4.1717" cy="25.3600" r="0.8500" /> 
<circle cx="4.1717" cy="22.8200" r="0.8500" /> 
<circle cx="4.1717" cy="20.2800" r="0.8500" /> 
<circle cx="4.1717" cy="17.7400" r="0.8500" /> 
<circle cx="4.1717" cy="15.2000" r="0.8500" /> 
<circle cx="4.1717" cy="12.6600" r="0.8500" /> 
<circle cx="4.1717" cy="10.1200" r="0.8500" /> 
<circle cx="4.1717" cy="7.5800" r="0.8500" /> 
<circle cx="4.1717" cy="5.0400" r="0.8500" /> 
</g>
<g style="fill:none; 
stroke:#AFAFAF; stroke-width:0.1500; stroke-opacity:1; 
stroke-linecap:round; stroke-linejoin:round;">
<text x="11.7917" y="35.9400"
textLength="23.5833" font-size="1.3333" lengthAdjust="spacingAndGlyphs"
text-anchor="middle" opacity="0" stroke-opacity="0">MCU_ProMicro_Generic_Reverse</text>
<g class="stroked-text"><desc>MCU_ProMicro_Generic_Reverse</desc>
<path d="M0.3631 35.8948
L0.3631 34.8948
" />
<path d="M0.3631 34.8948
L0.6964 35.6091
" />
<path d="M0.6964 35.6091
L1.0298 34.8948
" />
<path d="M1.0298 34.8948
L1.0298 35.8948
" />
<path d="M2.0774 35.7996
L2.0298 35.8472
" />
<path d="M2.0298 35.8472
L1.8869 35.8948
" />
<path d="M1.8869 35.8948
L1.7917 35.8948
" />
<path d="M1.7917 35.8948
L1.6488 35.8472
" />
<path d="M1.6488 35.8472
L1.5536 35.7520
" />
<path d="M1.5536 35.7520
L1.5060 35.6567
" />
<path d="M1.5060 35.6567
L1.4583 35.4662
" />
<path d="M1.4583 35.4662
L1.4583 35.3234
" />
<path d="M1.4583 35.3234
L1.5060 35.1329
" />
<path d="M1.5060 35.1329
L1.5536 35.0377
" />
<path d="M1.5536 35.0377
L1.6488 34.9424
" />
<path d="M1.6488 34.9424
L1.7917 34.8948
" />
<path d="M1.7917 34.8948
L1.8869 34.8948
" />
<path d="M1.8869 34.8948
L2.0298 34.9424
" />
<path d="M2.0298 34.9424
L2.0774 34.9901
" />
<path d="M2.5060 34.8948
L2.5060 35.7043
" />
<path d="M2.5060 35.7043
L2.5536 35.7996
" />
<path d="M2.5536 35.7996
L2.6012 35.8472
" />
<path d="M2.6012 35.8472
L2.6964 35.8948
" />
<path d="M2.6964 35.8948
L2.8869 35.8948
" />
<path d="M2.8869 35.8948
L2.9821 35.8472
" />
<path d="M2.9821 35.8472
L3.0298 35.7996
" />
<path d="M3.0298 35.7996
L3.0774 35.7043
" />
<path d="M3.0774 35.7043
L3.0774 34.8948
" />
<path d="M3.3155 35.9901
L4.0774 35.9901
" />
<path d="M4.3155 35.8948
L4.3155 34.8948
" />
<path d="M4.3155 34.8948
L4.6964 34.8948
" />
<path d="M4.6964 34.8948
L4.7917 34.9424
" />
<path d="M4.7917 34.9424
L4.8393 34.9901
" />
<path d="M4.8393 34.9901
L4.8869 35.0853
" />
<path d="M4.8869 35.0853
L4.8869 35.2282
" />
<path d="M4.8869 35.2282
L4.8393 35.3234
" />
<path d="M4.8393 35.3234
L4.7917 35.3710
" />
<path d="M4.7917 35.3710
L4.6964 35.4186
" />
<path d="M4.6964 35.4186
L4.3155 35.4186
" />
<path d="M5.3155 35.8948
L5.3155 35.2282
" />
<path d="M5.3155 35.4186
L5.3631 35.3234
" />
<path d="M5.3631 35.3234
L5.4107 35.2758
" />
<path d="M5.4107 35.2758
L5.5060 35.2282
" />
<path d="M5.5060 35.2282
L5.6012 35.2282
" />
<path d="M6.0774 35.8948
L5.9821 35.8472
" />
<path d="M5.9821 35.8472
L5.9345 35.7996
" />
<path d="M5.9345 35.7996
L5.8869 35.7043
" />
<path d="M5.8869 35.7043
L5.8869 35.4186
" />
<path d="M5.8869 35.4186
L5.9345 35.3234
" />
<path d="M5.9345 35.3234
L5.9821 35.2758
" />
<path d="M5.9821 35.2758
L6.0774 35.2282
" />
<path d="M6.0774 35.2282
L6.2202 35.2282
" />
<path d="M6.2202 35.2282
L6.3155 35.2758
" />
<path d="M6.3155 35.2758
L6.3631 35.3234
" />
<path d="M6.3631 35.3234
L6.4107 35.4186
" />
<path d="M6.4107 35.4186
L6.4107 35.7043
" />
<path d="M6.4107 35.7043
L6.3631 35.7996
" />
<path d="M6.3631 35.7996
L6.3155 35.8472
" />
<path d="M6.3155 35.8472
L6.2202 35.8948
" />
<path d="M6.2202 35.8948
L6.0774 35.8948
" />
<path d="M6.8393 35.8948
L6.8393 34.8948
" />
<path d="M6.8393 34.8948
L7.1726 35.6091
" />
<path d="M7.1726 35.6091
L7.5060 34.8948
" />
<path d="M7.5060 34.8948
L7.5060 35.8948
" />
<path d="M7.9821 35.8948
L7.9821 35.2282
" />
<path d="M7.9821 34.8948
L7.9345 34.9424
" />
<path d="M7.9345 34.9424
L7.9821 34.9901
" />
<path d="M7.9821 34.9901
L8.0298 34.9424
" />
<path d="M8.0298 34.9424
L7.9821 34.8948
" />
<path d="M7.9821 34.8948
L7.9821 34.9901
" />
<path d="M8.8869 35.8472
L8.7917 35.8948
" />
<path d="M8.7917 35.8948
L8.6012 35.8948
" />
<path d="M8.6012 35.8948
L8.5060 35.8472
" />
<path d="M8.5060 35.8472
L8.4583 35.7996
" />
<path d="M8.4583 35.7996
L8.4107 35.7043
" />
<path d="M8.4107 35.7043
L8.4107 35.4186
" />
<path d="M8.4107 35.4186
L8.4583 35.3234
" />
<path d="M8.4583 35.3234
L8.5060 35.2758
" />
<path d="M8.5060 35.2758
L8.6012 35.2282
" />
<path d="M8.6012 35.2282
L8.7917 35.2282
" />
<path d="M8.7917 35.2282
L8.8869 35.2758
" />
<path d="M9.3155 35.8948
L9.3155 35.2282
" />
<path d="M9.3155 35.4186
L9.3631 35.3234
" />
<path d="M9.3631 35.3234
L9.4107 35.2758
" />
<path d="M9.4107 35.2758
L9.5060 35.2282
" />
<path d="M9.5060 35.2282
L9.6012 35.2282
" />
<path d="M10.0774 35.8948
L9.9821 35.8472
" />
<path d="M9.9821 35.8472
L9.9345 35.7996
" />
<path d="M9.9345 35.7996
L9.8869 35.7043
" />
<path d="M9.8869 35.7043
L9.8869 35.4186
" />
<path d="M9.8869 35.4186
L9.9345 35.3234
" />
<path d="M9.9345 35.3234
L9.9821 35.2758
" />
<path d="M9.9821 35.2758
L10.0774 35.2282
" />
<path d="M10.0774 35.2282
L10.2202 35.2282
" />
<path d="M10.2202 35.2282
L10.3155 35.2758
" />
<path d="M10.3155 35.2758
L10.3631 35.3234
" />
<path d="M10.3631 35.3234
L10.4107 35.4186
" />
<path d="M10.4107 35.4186
L10.4107 35.7043
" />
<path d="M10.4107 35.7043
L10.3631 35.7996
" />
<path d="M10.3631 35.7996
L10.3155 35.8472
" />
<path d="M10.3155 35.8472
L10.2202 35.8948
" />
<path d="M10.2202 35.8948
L10.0774 35.8948
" />
<path d="M10.6012 35.9901
L11.3631 35.9901
" />
<path d="M12.1250 34.9424
L12.0298 34.8948
" />
<path d="M12.0298 34.8948
L11.8869 34.8948
" />
<path d="M11.8869 34.8948
L11.7440 34.9424
" />
<path d="M11.7440 34.9424
L11.6488 35.0377
" />
<path d="M11.6488 35.0377
L11.6012 35.1329
" />
<path d="M11.6012 35.1329
L11.5536 35.3234
" />
<path d="M11.5536 35.3234
L11.5536 35.4662
" />
<path d="M11.5536 35.4662
L11.6012 35.6567
" />
<path d="M11.6012 35.6567
L11.6488 35.7520
" />
<path d="M11.6488 35.7520
L11.7440 35.8472
" />
<path d="M11.7440 35.8472
L11.8869 35.8948
" />
<path d="M11.8869 35.8948
L11.9821 35.8948
" />
<path d="M11.9821 35.8948
L12.1250 35.8472
" />
<path d="M12.1250 35.8472
L12.1726 35.7996
" />
<path d="M12.1726 35.7996
L12.1726 35.4662
" />
<path d="M12.1726 35.4662
L11.9821 35.4662
" />
<path d="M12.9821 35.8472
L12.8869 35.8948
" />
<path d="M12.8869 35.8948
L12.6964 35.8948
" />
<path d="M12.6964 35.8948
L12.6012 35.8472
" />
<path d="M12.6012 35.8472
L12.5536 35.7520
" />
<path d="M12.5536 35.7520
L12.5536 35.3710
" />
<path d="M12.5536 35.3710
L12.6012 35.2758
" />
<path d="M12.6012 35.2758
L12.6964 35.2282
" />
<path d="M12.6964 35.2282
L12.8869 35.2282
" />
<path d="M12.8869 35.2282
L12.9821 35.2758
" />
<path d="M12.9821 35.2758
L13.0298 35.3710
" />
<path d="M13.0298 35.3710
L13.0298 35.4662
" />
<path d="M13.0298 35.4662
L12.5536 35.5615
" />
<path d="M13.4583 35.2282
L13.4583 35.8948
" />
<path d="M13.4583 35.3234
L13.5060 35.2758
" />
<path d="M13.5060 35.2758
L13.6012 35.2282
" />
<path d="M13.6012 35.2282
L13.7440 35.2282
" />
<path d="M13.7440 35.2282
L13.8393 35.2758
" />
<path d="M13.8393 35.2758
L13.8869 35.3710
" />
<path d="M13.8869 35.3710
L13.8869 35.8948
" />
<path d="M14.7440 35.8472
L14.6488 35.8948
" />
<path d="M14.6488 35.8948
L14.4583 35.8948
" />
<path d="M14.4583 35.8948
L14.3631 35.8472
" />
<path d="M14.3631 35.8472
L14.3155 35.7520
" />
<path d="M14.3155 35.7520
L14.3155 35.3710
" />
<path d="M14.3155 35.3710
L14.3631 35.2758
" />
<path d="M14.3631 35.2758
L14.4583 35.2282
" />
<path d="M14.4583 35.2282
L14.6488 35.2282
" />
<path d="M14.6488 35.2282
L14.7440 35.2758
" />
<path d="M14.7440 35.2758
L14.7917 35.3710
" />
<path d="M14.7917 35.3710
L14.7917 35.4662
" />
<path d="M14.7917 35.4662
L14.3155 35.5615
" />
<path d="M15.2202 35.8948
L15.2202 35.2282
" />
<path d="M15.2202 35.4186
L15.2679 35.3234
" />
<path d="M15.2679 35.3234
L15.3155 35.2758
" />
<path d="M15.3155 35.2758
L15.4107 35.2282
" />
<path d="M15.4107 35.2282
L15.5060 35.2282
" />
<path d="M15.8393 35.8948
L15.8393 35.2282
" />
<path d="M15.8393 34.8948
L15.7917 34.9424
" />
<path d="M15.7917 34.9424
L15.8393 34.9901
" />
<path d="M15.8393 34.9901
L15.8869 34.9424
" />
<path d="M15.8869 34.9424
L15.8393 34.8948
" />
<path d="M15.8393 34.8948
L15.8393 34.9901
" />
<path d="M16.7440 35.8472
L16.6488 35.8948
" />
<path d="M16.6488 35.8948
L16.4583 35.8948
" />
<path d="M16.4583 35.8948
L16.3631 35.8472
" />
<path d="M16.3631 35.8472
L16.3155 35.7996
" />
<path d="M16.3155 35.7996
L16.2679 35.7043
" />
<path d="M16.2679 35.7043
L16.2679 35.4186
" />
<path d="M16.2679 35.4186
L16.3155 35.3234
" />
<path d="M16.3155 35.3234
L16.3631 35.2758
" />
<path d="M16.3631 35.2758
L16.4583 35.2282
" />
<path d="M16.4583 35.2282
L16.6488 35.2282
" />
<path d="M16.6488 35.2282
L16.7440 35.2758
" />
<path d="M16.9345 35.9901
L17.6964 35.9901
" />
<path d="M18.5060 35.8948
L18.1726 35.4186
" />
<path d="M17.9345 35.8948
L17.9345 34.8948
" />
<path d="M17.9345 34.8948
L18.3155 34.8948
" />
<path d="M18.3155 34.8948
L18.4107 34.9424
" />
<path d="M18.4107 34.9424
L18.4583 34.9901
" />
<path d="M18.4583 34.9901
L18.5060 35.0853
" />
<path d="M18.5060 35.0853
L18.5060 35.2282
" />
<path d="M18.5060 35.2282
L18.4583 35.3234
" />
<path d="M18.4583 35.3234
L18.4107 35.3710
" />
<path d="M18.4107 35.3710
L18.3155 35.4186
" />
<path d="M18.3155 35.4186
L17.9345 35.4186
" />
<path d="M19.3155 35.8472
L19.2202 35.8948
" />
<path d="M19.2202 35.8948
L19.0298 35.8948
" />
<path d="M19.0298 35.8948
L18.9345 35.8472
" />
<path d="M18.9345 35.8472
L18.8869 35.7520
" />
<path d="M18.8869 35.7520
L18.8869 35.3710
" />
<path d="M18.8869 35.3710
L18.9345 35.2758
" />
<path d="M18.9345 35.2758
L19.0298 35.2282
" />
<path d="M19.0298 35.2282
L19.2202 35.2282
" />
<path d="M19.2202 35.2282
L19.3155 35.2758
" />
<path d="M19.3155 35.2758
L19.3631 35.3710
" />
<path d="M19.3631 35.3710
L19.3631 35.4662
" />
<path d="M19.3631 35.4662
L18.8869 35.5615
" />
<path d="M19.6964 35.2282
L19.9345 35.8948
" />
<path d="M19.9345 35.8948
L20.1726 35.2282
" />
<path d="M20.9345 35.8472
L20.8393 35.8948
" />
<path d="M20.8393 35.8948
L20.6488 35.8948
" />
<path d="M20.6488 35.8948
L20.5536 35.8472
" />
<path d="M20.5536 35.8472
L20.5060 35.7520
" />
<path d="M20.5060 35.7520
L20.5060 35.3710
" />
<path d="M20.5060 35.3710
L20.5536 35.2758
" />
<path d="M20.5536 35.2758
L20.6488 35.2282
" />
<path d="M20.6488 35.2282
L20.8393 35.2282
" />
<path d="M20.8393 35.2282
L20.9345 35.2758
" />
<path d="M20.9345 35.2758
L20.9821 35.3710
" />
<path d="M20.9821 35.3710
L20.9821 35.4662
" />
<path d="M20.9821 35.4662
L20.5060 35.5615
" />
<path d="M21.4107 35.8948
L21.4107 35.2282
" />
<path d="M21.4107 35.4186
L21.4583 35.3234
" />
<path d="M21.4583 35.3234
L21.5060 35.2758
" />
<path d="M21.5060 35.2758
L21.6012 35.2282
" />
<path d="M21.6012 35.2282
L21.6964 35.2282
" />
<path d="M21.9821 35.8472
L22.0774 35.8948
" />
<path d="M22.0774 35.8948
L22.2679 35.8948
" />
<path d="M22.2679 35.8948
L22.3631 35.8472
" />
<path d="M22.3631 35.8472
L22.4107 35.7520
" />
<path d="M22.4107 35.7520
L22.4107 35.7043
" />
<path d="M22.4107 35.7043
L22.3631 35.6091
" />
<path d="M22.3631 35.6091
L22.2679 35.5615
" />
<path d="M22.2679 35.5615
L22.1250 35.5615
" />
<path d="M22.1250 35.5615
L22.0298 35.5139
" />
<path d="M22.0298 35.5139
L21.9821 35.4186
" />
<path d="M21.9821 35.4186
L21.9821 35.3710
" />
<path d="M21.9821 35.3710
L22.0298 35.2758
" />
<path d="M22.0298 35.2758
L22.1250 35.2282
" />
<path d="M22.1250 35.2282
L22.2679 35.2282
" />
<path d="M22.2679 35.2282
L22.3631 35.2758
" />
<path d="M23.2202 35.8472
L23.1250 35.8948
" />
<path d="M23.1250 35.8948
L22.9345 35.8948
" />
<path d="M22.9345 35.8948
L22.8393 35.8472
" />
<path d="M22.8393 35.8472
L22.7917 35.7520
" />
<path d="M22.7917 35.7520
L22.7917 35.3710
" />
<path d="M22.7917 35.3710
L22.8393 35.2758
" />
<path d="M22.8393 35.2758
L22.9345 35.2282
" />
<path d="M22.9345 35.2282
L23.1250 35.2282
" />
<path d="M23.1250 35.2282
L23.2202 35.2758
" />
<path d="M23.2202 35.2758
L23.2679 35.3710
" />
<path d="M23.2679 35.3710
L23.2679 35.4662
" />
<path d="M23.2679 35.4662
L22.7917 35.5615
" />
</g><text x="11.7917" y="37.5400"
textLength="4.5357" font-size="1.3333" lengthAdjust="spacingAndGlyphs"
text-anchor="middle" opacity="0" stroke-opacity="0">REF**</text>
<g class="stroked-text"><desc>REF**</desc>
<path d="M10.4583 37.4948
L10.1250 37.0186
" />
<path d="M9.8869 37.4948
L9.8869 36.4948
" />
<path d="M9.8869 36.4948
L10.2679 36.4948
" />
<path d="M10.2679 36.4948
L10.3631 36.5424
" />
<path d="M10.3631 36.5424
L10.4107 36.5901
" />
<path d="M10.4107 36.5901
L10.4583 36.6853
" />
<path d="M10.4583 36.6853
L10.4583 36.8282
" />
<path d="M10.4583 36.8282
L10.4107 36.9234
" />
<path d="M10.4107 36.9234
L10.3631 36.9710
" />
<path d="M10.3631 36.9710
L10.2679 37.0186
" />
<path d="M10.2679 37.0186
L9.8869 37.0186
" />
<path d="M10.8869 36.9710
L11.2202 36.9710
" />
<path d="M11.3631 37.4948
L10.8869 37.4948
" />
<path d="M10.8869 37.4948
L10.8869 36.4948
" />
<path d="M10.8869 36.4948
L11.3631 36.4948
" />
<path d="M12.1250 36.9710
L11.7917 36.9710
" />
<path d="M11.7917 37.4948
L11.7917 36.4948
" />
<path d="M11.7917 36.4948
L12.2679 36.4948
" />
<path d="M12.7917 36.4948
L12.7917 36.7329
" />
<path d="M12.5536 36.6377
L12.7917 36.7329
" />
<path d="M12.7917 36.7329
L13.0298 36.6377
" />
<path d="M12.6488 36.9234
L12.7917 36.7329
" />
<path d="M12.7917 36.7329
L12.9345 36.9234
" />
<path d="M13.5536 36.4948
L13.5536 36.7329
" />
<path d="M13.3155 36.6377
L13.5536 36.7329
" />
<path d="M13.5536 36.7329
L13.7917 36.6377
" />
<path d="M13.4107 36.9234
L13.5536 36.7329
" />
<path d="M13.5536 36.7329
L13.6964 36.9234
" />
</g><path style="fill:none; 
stroke:#AFAFAF; stroke-width:0.1000; stroke-opacity:1; 
stroke-linecap:round; stroke-linejoin:round;fill:none"
d="M 16.2917,0.0500
7.2917,0.0500
7.2917,1.2300
16.2917,1.2300
Z" /> 
<path style="fill:none; 
stroke:#AFAFAF; stroke-width:0.1000; stroke-opacity:1; 
stroke-linecap:round; stroke-linejoin:round;fill:none"
d="M 20.6817,1.2300
2.9017,1.2300
2.9017,34.2500
20.6817,34.2500
Z" /> 
</g>
<g style="fill:none; 
stroke:#AFAFAF; stroke-width:0.0472; stroke-opacity:1; 
stroke-linecap:round; stroke-linejoin:round;">
<text x="19.4117" y="5.3233"
textLength="0.5680" font-size="0.7556" lengthAdjust="spacingAndGlyphs"
text-anchor="middle" opacity="0" stroke-opacity="0">1</text>
<g class="stroked-text"><desc>1</desc>
<path d="M19.5736 5.2997
L19.2498 5.2997
" />
<path d="M19.4117 5.2997
L19.4117 4.7330
" />
<path d="M19.4117 4.7330
L19.3577 4.8140
" />
<path d="M19.3577 4.8140
L19.3037 4.8679
" />
<path d="M19.3037 4.8679
L19.2498 4.8949
" />
</g><path style="fill:none; 
stroke:#AFAFAF; stroke-width:0.0212; stroke-opacity:1; 
stroke-linecap:round; stroke-linejoin:round;fill:none"
d="M 18.5617,4.4450
18.5811,4.3474
18.6364,4.2647
18.7191,4.2094
18.8167,4.1900
20.0067,4.1900
20.1043,4.2094
20.1870,4.2647
20.2423,4.3474
20.2617,4.4450
20.2617,5.6350
20.2423,5.7326
20.1870,5.8153
20.1043,5.8706
20.0067,5.8900
18.8167,5.8900
18.7191,5.8706
18.6364,5.8153
18.5811,5.7326
18.5617,5.6350
Z" /> 
</g>
<g style="fill:none; 
stroke:#AFAFAF; stroke-width:0.0472; stroke-opacity:1; 
stroke-linecap:round; stroke-linejoin:round;">
<text x="19.4117" y="7.8633"
textLength="0.5680" font-size="0.7556" lengthAdjust="spacingAndGlyphs"
text-anchor="middle" opacity="0" stroke-opacity="0">2</text>
<g class="stroked-text"><desc>2</desc>
<path d="M19.2498 7.3270
L19.2767 7.3000
" />
<path d="M19.2767 7.3000
L19.3307 7.2730
" />
<path d="M19.3307 7.2730
L19.4656 7.2730
" />
<path d="M19.4656 7.2730
L19.5196 7.3000
" />
<path d="M19.5196 7.3000
L19.5466 7.3270
" />
<path d="M19.5466 7.3270
L19.5736 7.3810
" />
<path d="M19.5736 7.3810
L19.5736 7.4349
" />
<path d="M19.5736 7.4349
L19.5466 7.5159
" />
<path d="M19.5466 7.5159
L19.2228 7.8397
" />
<path d="M19.2228 7.8397
L19.5736 7.8397
" />
</g></g>
<g style="fill:none; 
stroke:#AFAFAF; stroke-width:0.0212; stroke-opacity:1; 
stroke-linecap:round; stroke-linejoin:round;">
<path d="M18.5617 7.5800
L18.5617 7.5800
" />
<path d="M18.5617 7.5800 A0.8500 0.8500 0.0 0 0 20.2617 7.5800" />
<path d="M20.2617 7.5800
L20.2617 7.5800
" />
<path d="M20.2617 7.5800 A0.8500 0.8500 0.0 0 0 18.5617 7.5800" />
</g>
<g style="fill:none; 
stroke:#AFAFAF; stroke-width:0.0472; stroke-opacity:1; 
stroke-linecap:round; stroke-linejoin:round;">
<text x="19.4117" y="10.4033"
textLength="0.5680" font-size="0.7556" lengthAdjust="spacingAndGlyphs"
text-anchor="middle" opacity="0" stroke-opacity="0">3</text>
<g class="stroked-text"><desc>3</desc>
<path d="M19.2228 9.8130
L19.5736 9.8130
" />
<path d="M19.5736 9.8130
L19.3847 10.0289
" />
<path d="M19.3847 10.0289
L19.4656 10.0289
" />
<path d="M19.4656 10.0289
L19.5196 10.0559
" />
<path d="M19.5196 10.0559
L19.5466 10.0829
" />
<path d="M19.5466 10.0829
L19.5736 10.1368
" />
<path d="M19.5736 10.1368
L19.5736 10.2718
" />
<path d="M19.5736 10.2718
L19.5466 10.3257
" />
<path d="M19.5466 10.3257
L19.5196 10.3527
" />
<path d="M19.5196 10.3527
L19.4656 10.3797
" />
<path d="M19.4656 10.3797
L19.3037 10.3797
" />
<path d="M19.3037 10.3797
L19.2498 10.3527
" />
<path d="M19.2498 10.3527
L19.2228 10.3257
" />
</g></g>
<g style="fill:none; 
stroke:#AFAFAF; stroke-width:0.0212; stroke-opacity:1; 
stroke-linecap:round; stroke-linejoin:round;">
<path d="M18.5617 10.1200
L18.5617 10.1200
" />
<path d="M18.5617 10.1200 A0.8500 0.8500 0.0 0 0 20.2617 10.1200" />
<path d="M20.2617 10.1200
L20.2617 10.1200
" />
<path d="M20.2617 10.1200 A0.8500 0.8500 0.0 0 0 18.5617 10.1200" />
</g>
<g style="fill:none; 
stroke:#AFAFAF; stroke-width:0.0472; stroke-opacity:1; 
stroke-linecap:round; stroke-linejoin:round;">
<text x="19.4117" y="12.9433"
textLength="0.5680" font-size="0.7556" lengthAdjust="spacingAndGlyphs"
text-anchor="middle" opacity="0" stroke-opacity="0">4</text>
<g class="stroked-text"><desc>4</desc>
<path d="M19.5196 12.5419
L19.5196 12.9197
" />
<path d="M19.3847 12.3260
L19.2498 12.7308
" />
<path d="M19.2498 12.7308
L19.6006 12.7308
" />
</g></g>
<g style="fill:none; 
stroke:#AFAFAF; stroke-width:0.0212; stroke-opacity:1; 
stroke-linecap:round; stroke-linejoin:round;">
<path d="M18.5617 12.6600
L18.5617 12.6600
" />
<path d="M18.5617 12.6600 A0.8500 0.8500 0.0 0 0 20.2617 12.6600" />
<path d="M20.2617 12.6600
L20.2617 12.6600
" />
<path d="M20.2617 12.6600 A0.8500 0.8500 0.0 0 0 18.5617 12.6600" />
</g>
<g style="fill:none; 
stroke:#AFAFAF; stroke-width:0.0472; stroke-opacity:1; 
stroke-linecap:round; stroke-linejoin:round;">
<text x="19.4117" y="15.4833"
textLength="0.5680" font-size="0.7556" lengthAdjust="spacingAndGlyphs"
text-anchor="middle" opacity="0" stroke-opacity="0">5</text>
<g class="stroked-text"><desc>5</desc>
<path d="M19.5466 14.8930
L19.2767 14.8930
" />
<path d="M19.2767 14.8930
L19.2498 15.1629
" />
<path d="M19.2498 15.1629
L19.2767 15.1359
" />
<path d="M19.2767 15.1359
L19.3307 15.1089
" />
<path d="M19.3307 15.1089
L19.4656 15.1089
" />
<path d="M19.4656 15.1089
L19.5196 15.1359
" />
<path d="M19.5196 15.1359
L19.5466 15.1629
" />
<path d="M19.5466 15.1629
L19.5736 15.2168
" />
<path d="M19.5736 15.2168
L19.5736 15.3518
" />
<path d="M19.5736 15.3518
L19.5466 15.4057
" />
<path d="M19.5466 15.4057
L19.5196 15.4327
" />
<path d="M19.5196 15.4327
L19.4656 15.4597
" />
<path d="M19.4656 15.4597
L19.3307 15.4597
" />
<path d="M19.3307 15.4597
L19.2767 15.4327
" />
<path d="M19.2767 15.4327
L19.2498 15.4057
" />
</g></g>
<g style="fill:none; 
stroke:#AFAFAF; stroke-width:0.0212; stroke-opacity:1; 
stroke-linecap:round; stroke-linejoin:round;">
<path d="M18.5617 15.2000
L18.5617 15.2000
" />
<path d="M18.5617 15.2000 A0.8500 0.8500 0.0 0 0 20.2617 15.2000" />
<path d="M20.2617 15.2000
L20.2617 15.2000
" />
<path d="M20.2617 15.2000 A0.8500 0.8500 0.0 0 0 18.5617 15.2000" />
</g>
<g style="fill:none; 
stroke:#AFAFAF; stroke-width:0.0472; stroke-opacity:1; 
stroke-linecap:round; stroke-linejoin:round;">
<text x="19.4117" y="18.0233"
textLength="0.5680" font-size="0.7556" lengthAdjust="spacingAndGlyphs"
text-anchor="middle" opacity="0" stroke-opacity="0">6</text>
<g class="stroked-text"><desc>6</desc>
<path d="M19.5196 17.4330
L19.4117 17.4330
" />
<path d="M19.4117 17.4330
L19.3577 17.4600
" />
<path d="M19.3577 17.4600
L19.3307 17.4870
" />
<path d="M19.3307 17.4870
L19.2767 17.5679
" />
<path d="M19.2767 17.5679
L19.2498 17.6759
" />
<path d="M19.2498 17.6759
L19.2498 17.8918
" />
<path d="M19.2498 17.8918
L19.2767 17.9457
" />
<path d="M19.2767 17.9457
L19.3037 17.9727
" />
<path d="M19.3037 17.9727
L19.3577 17.9997
" />
<path d="M19.3577 17.9997
L19.4656 17.9997
" />
<path d="M19.4656 17.9997
L19.5196 17.9727
" />
<path d="M19.5196 17.9727
L19.5466 17.9457
" />
<path d="M19.5466 17.9457
L19.5736 17.8918
" />
<path d="M19.5736 17.8918
L19.5736 17.7568
" />
<path d="M19.5736 17.7568
L19.5466 17.7029
" />
<path d="M19.5466 17.7029
L19.5196 17.6759
" />
<path d="M19.5196 17.6759
L19.4656 17.6489
" />
<path d="M19.4656 17.6489
L19.3577 17.6489
" />
<path d="M19.3577 17.6489
L19.3037 17.6759
" />
<path d="M19.3037 17.6759
L19.2767 17.7029
" />
<path d="M19.2767 17.7029
L19.2498 17.7568
" />
</g></g>
<g style="fill:none; 
stroke:#AFAFAF; stroke-width:0.0212; stroke-opacity:1; 
stroke-linecap:round; stroke-linejoin:round;">
<path d="M18.5617 17.7400
L18.5617 17.7400
" />
<path d="M18.5617 17.7400 A0.8500 0.8500 0.0 0 0 20.2617 17.7400" />
<path d="M20.2617 17.7400
L20.2617 17.7400
" />
<path d="M20.2617 17.7400 A0.8500 0.8500 0.0 0 0 18.5617 17.7400" />
</g>
<g style="fill:none; 
stroke:#AFAFAF; stroke-width:0.0472; stroke-opacity:1; 
stroke-linecap:round; stroke-linejoin:round;">
<text x="19.4117" y="20.5633"
textLength="0.5680" font-size="0.7556" lengthAdjust="spacingAndGlyphs"
text-anchor="middle" opacity="0" stroke-opacity="0">7</text>
<g class="stroked-text"><desc>7</desc>
<path d="M19.2228 19.9730
L19.6006 19.9730
" />
<path d="M19.6006 19.9730
L19.3577 20.5397
" />
</g></g>
<g style="fill:none; 
stroke:#AFAFAF; stroke-width:0.0212; stroke-opacity:1; 
stroke-linecap:round; stroke-linejoin:round;">
<path d="M18.5617 20.2800
L18.5617 20.2800
" />
<path d="M18.5617 20.2800 A0.8500 0.8500 0.0 0 0 20.2617 20.2800" />
<path d="M20.2617 20.2800
L20.2617 20.2800
" />
<path d="M20.2617 20.2800 A0.8500 0.8500 0.0 0 0 18.5617 20.2800" />
</g>
<g style="fill:none; 
stroke:#AFAFAF; stroke-width:0.0472; stroke-opacity:1; 
stroke-linecap:round; stroke-linejoin:round;">
<text x="19.4117" y="23.1033"
textLength="0.5680" font-size="0.7556" lengthAdjust="spacingAndGlyphs"
text-anchor="middle" opacity="0" stroke-opacity="0">8</text>
<g class="stroked-text"><desc>8</desc>
<path d="M19.3577 22.7559
L19.3037 22.7289
" />
<path d="M19.3037 22.7289
L19.2767 22.7019
" />
<path d="M19.2767 22.7019
L19.2498 22.6479
" />
<path d="M19.2498 22.6479
L19.2498 22.6210
" />
<path d="M19.2498 22.6210
L19.2767 22.5670
" />
<path d="M19.2767 22.5670
L19.3037 22.5400
" />
<path d="M19.3037 22.5400
L19.3577 22.5130
" />
<path d="M19.3577 22.5130
L19.4656 22.5130
" />
<path d="M19.4656 22.5130
L19.5196 22.5400
" />
<path d="M19.5196 22.5400
L19.5466 22.5670
" />
<path d="M19.5466 22.5670
L19.5736 22.6210
" />
<path d="M19.5736 22.6210
L19.5736 22.6479
" />
<path d="M19.5736 22.6479
L19.5466 22.7019
" />
<path d="M19.5466 22.7019
L19.5196 22.7289
" />
<path d="M19.5196 22.7289
L19.4656 22.7559
" />
<path d="M19.4656 22.7559
L19.3577 22.7559
" />
<path d="M19.3577 22.7559
L19.3037 22.7829
" />
<path d="M19.3037 22.7829
L19.2767 22.8099
" />
<path d="M19.2767 22.8099
L19.2498 22.8638
" />
<path d="M19.2498 22.8638
L19.2498 22.9718
" />
<path d="M19.2498 22.9718
L19.2767 23.0257
" />
<path d="M19.2767 23.0257
L19.3037 23.0527
" />
<path d="M19.3037 23.0527
L19.3577 23.0797
" />
<path d="M19.3577 23.0797
L19.4656 23.0797
" />
<path d="M19.4656 23.0797
L19.5196 23.0527
" />
<path d="M19.5196 23.0527
L19.5466 23.0257
" />
<path d="M19.5466 23.0257
L19.5736 22.9718
" />
<path d="M19.5736 22.9718
L19.5736 22.8638
" />
<path d="M19.5736 22.8638
L19.5466 22.8099
" />
<path d="M19.5466 22.8099
L19.5196 22.7829
" />
<path d="M19.5196 22.7829
L19.4656 22.7559
" />
</g></g>
<g style="fill:none; 
stroke:#AFAFAF; stroke-width:0.0212; stroke-opacity:1; 
stroke-linecap:round; stroke-linejoin:round;">
<path d="M18.5617 22.8200
L18.5617 22.8200
" />
<path d="M18.5617 22.8200 A0.8500 0.8500 0.0 0 0 20.2617 22.8200" />
<path d="M20.2617 22.8200
L20.2617 22.8200
" />
<path d="M20.2617 22.8200 A0.8500 0.8500 0.0 0 0 18.5617 22.8200" />
</g>
<g style="fill:none; 
stroke:#AFAFAF; stroke-width:0.0472; stroke-opacity:1; 
stroke-linecap:round; stroke-linejoin:round;">
<text x="19.4117" y="25.6433"
textLength="0.5680" font-size="0.7556" lengthAdjust="spacingAndGlyphs"
text-anchor="middle" opacity="0" stroke-opacity="0">9</text>
<g class="stroked-text"><desc>9</desc>
<path d="M19.3037 25.6197
L19.4117 25.6197
" />
<path d="M19.4117 25.6197
L19.4656 25.5927
" />
<path d="M19.4656 25.5927
L19.4926 25.5657
" />
<path d="M19.4926 25.5657
L19.5466 25.4848
" />
<path d="M19.5466 25.4848
L19.5736 25.3768
" />
<path d="M19.5736 25.3768
L19.5736 25.1610
" />
<path d="M19.5736 25.1610
L19.5466 25.1070
" />
<path d="M19.5466 25.1070
L19.5196 25.0800
" />
<path d="M19.5196 25.0800
L19.4656 25.0530
" />
<path d="M19.4656 25.0530
L19.3577 25.0530
" />
<path d="M19.3577 25.0530
L19.3037 25.0800
" />
<path d="M19.3037 25.0800
L19.2767 25.1070
" />
<path d="M19.2767 25.1070
L19.2498 25.1610
" />
<path d="M19.2498 25.1610
L19.2498 25.2959
" />
<path d="M19.2498 25.2959
L19.2767 25.3499
" />
<path d="M19.2767 25.3499
L19.3037 25.3768
" />
<path d="M19.3037 25.3768
L19.3577 25.4038
" />
<path d="M19.3577 25.4038
L19.4656 25.4038
" />
<path d="M19.4656 25.4038
L19.5196 25.3768
" />
<path d="M19.5196 25.3768
L19.5466 25.3499
" />
<path d="M19.5466 25.3499
L19.5736 25.2959
" />
</g></g>
<g style="fill:none; 
stroke:#AFAFAF; stroke-width:0.0212; stroke-opacity:1; 
stroke-linecap:round; stroke-linejoin:round;">
<path d="M18.5617 25.3600
L18.5617 25.3600
" />
<path d="M18.5617 25.3600 A0.8500 0.8500 0.0 0 0 20.2617 25.3600" />
<path d="M20.2617 25.3600
L20.2617 25.3600
" />
<path d="M20.2617 25.3600 A0.8500 0.8500 0.0 0 0 18.5617 25.3600" />
</g>
<g style="fill:none; 
stroke:#AFAFAF; stroke-width:0.0472; stroke-opacity:1; 
stroke-linecap:round; stroke-linejoin:round;">
<text x="19.4117" y="28.1833"
textLength="1.1077" font-size="0.7556" lengthAdjust="spacingAndGlyphs"
text-anchor="middle" opacity="0" stroke-opacity="0">10</text>
<g class="stroked-text"><desc>10</desc>
<path d="M19.3037 28.1597
L18.9799 28.1597
" />
<path d="M19.1418 28.1597
L19.1418 27.5930
" />
<path d="M19.1418 27.5930
L19.0879 27.6740
" />
<path d="M19.0879 27.6740
L19.0339 27.7279
" />
<path d="M19.0339 27.7279
L18.9799 27.7549
" />
<path d="M19.6545 27.5930
L19.7085 27.5930
" />
<path d="M19.7085 27.5930
L19.7625 27.6200
" />
<path d="M19.7625 27.6200
L19.7894 27.6470
" />
<path d="M19.7894 27.6470
L19.8164 27.7010
" />
<path d="M19.8164 27.7010
L19.8434 27.8089
" />
<path d="M19.8434 27.8089
L19.8434 27.9438
" />
<path d="M19.8434 27.9438
L19.8164 28.0518
" />
<path d="M19.8164 28.0518
L19.7894 28.1057
" />
<path d="M19.7894 28.1057
L19.7625 28.1327
" />
<path d="M19.7625 28.1327
L19.7085 28.1597
" />
<path d="M19.7085 28.1597
L19.6545 28.1597
" />
<path d="M19.6545 28.1597
L19.6006 28.1327
" />
<path d="M19.6006 28.1327
L19.5736 28.1057
" />
<path d="M19.5736 28.1057
L19.5466 28.0518
" />
<path d="M19.5466 28.0518
L19.5196 27.9438
" />
<path d="M19.5196 27.9438
L19.5196 27.8089
" />
<path d="M19.5196 27.8089
L19.5466 27.7010
" />
<path d="M19.5466 27.7010
L19.5736 27.6470
" />
<path d="M19.5736 27.6470
L19.6006 27.6200
" />
<path d="M19.6006 27.6200
L19.6545 27.5930
" />
</g></g>
<g style="fill:none; 
stroke:#AFAFAF; stroke-width:0.0212; stroke-opacity:1; 
stroke-linecap:round; stroke-linejoin:round;">
<path d="M18.5617 27.9000
L18.5617 27.9000
" />
<path d="M18.5617 27.9000 A0.8500 0.8500 0.0 0 0 20.2617 27.9000" />
<path d="M20.2617 27.9000
L20.2617 27.9000
" />
<path d="M20.2617 27.9000 A0.8500 0.8500 0.0 0 0 18.5617 27.9000" />
</g>
<g style="fill:none; 
stroke:#AFAFAF; stroke-width:0.0472; stroke-opacity:1; 
stroke-linecap:round; stroke-linejoin:round;">
<text x="19.4117" y="30.7233"
textLength="1.1077" font-size="0.7556" lengthAdjust="spacingAndGlyphs"
text-anchor="middle" opacity="0" stroke-opacity="0">11</text>
<g class="stroked-text"><desc>11</desc>
<path d="M19.3037 30.6997
L18.9799 30.6997
" />
<path d="M19.1418 30.6997
L19.1418 30.1330
" />
<path d="M19.1418 30.1330
L19.0879 30.2140
" />
<path d="M19.0879 30.2140
L19.0339 30.2679
" />
<path d="M19.0339 30.2679
L18.9799 30.2949
" />
<path d="M19.8434 30.6997
L19.5196 30.6997
" />
<path d="M19.6815 30.6997
L19.6815 30.1330
" />
<path d="M19.6815 30.1330
L19.6275 30.2140
" />
<path d="M19.6275 30.2140
L19.5736 30.2679
" />
<path d="M19.5736 30.2679
L19.5196 30.2949
" />
</g></g>
<g style="fill:none; 
stroke:#AFAFAF; stroke-width:0.0212; stroke-opacity:1; 
stroke-linecap:round; stroke-linejoin:round;">
<path d="M18.5617 30.4400
L18.5617 30.4400
" />
<path d="M18.5617 30.4400 A0.8500 0.8500 0.0 0 0 20.2617 30.4400" />
<path d="M20.2617 30.4400
L20.2617 30.4400
" />
<path d="M20.2617 30.4400 A0.8500 0.8500 0.0 0 0 18.5617 30.4400" />
</g>
<g style="fill:none; 
stroke:#AFAFAF; stroke-width:0.0472; stroke-opacity:1; 
stroke-linecap:round; stroke-linejoin:round;">
<text x="19.4117" y="33.2633"
textLength="1.1077" font-size="0.7556" lengthAdjust="spacingAndGlyphs"
text-anchor="middle" opacity="0" stroke-opacity="0">12</text>
<g class="stroked-text"><desc>12</desc>
<path d="M19.3037 33.2397
L18.9799 33.2397
" />
<path d="M19.1418 33.2397
L19.1418 32.6730
" />
<path d="M19.1418 32.6730
L19.0879 32.7540
" />
<path d="M19.0879 32.7540
L19.0339 32.8079
" />
<path d="M19.0339 32.8079
L18.9799 32.8349
" />
<path d="M19.5196 32.7270
L19.5466 32.7000
" />
<path d="M19.5466 32.7000
L19.6006 32.6730
" />
<path d="M19.6006 32.6730
L19.7355 32.6730
" />
<path d="M19.7355 32.6730
L19.7894 32.7000
" />
<path d="M19.7894 32.7000
L19.8164 32.7270
" />
<path d="M19.8164 32.7270
L19.8434 32.7810
" />
<path d="M19.8434 32.7810
L19.8434 32.8349
" />
<path d="M19.8434 32.8349
L19.8164 32.9159
" />
<path d="M19.8164 32.9159
L19.4926 33.2397
" />
<path d="M19.4926 33.2397
L19.8434 33.2397
" />
</g></g>
<g style="fill:none; 
stroke:#AFAFAF; stroke-width:0.0212; stroke-opacity:1; 
stroke-linecap:round; stroke-linejoin:round;">
<path d="M18.5617 32.9800
L18.5617 32.9800
" />
<path d="M18.5617 32.9800 A0.8500 0.8500 0.0 0 0 20.2617 32.9800" />
<path d="M20.2617 32.9800
L20.2617 32.9800
" />
<path d="M20.2617 32.9800 A0.8500 0.8500 0.0 0 0 18.5617 32.9800" />
</g>
<g style="fill:none; 
stroke:#AFAFAF; stroke-width:0.0472; stroke-opacity:1; 
stroke-linecap:round; stroke-linejoin:round;">
<text x="4.1717" y="33.2633"
textLength="1.1077" font-size="0.7556" lengthAdjust="spacingAndGlyphs"
text-anchor="middle" opacity="0" stroke-opacity="0">13</text>
<g class="stroked-text"><desc>13</desc>
<path d="M4.0637 33.2397
L3.7399 33.2397
" />
<path d="M3.9018 33.2397
L3.9018 32.6730
" />
<path d="M3.9018 32.6730
L3.8479 32.7540
" />
<path d="M3.8479 32.7540
L3.7939 32.8079
" />
<path d="M3.7939 32.8079
L3.7399 32.8349
" />
<path d="M4.2526 32.6730
L4.6034 32.6730
" />
<path d="M4.6034 32.6730
L4.4145 32.8889
" />
<path d="M4.4145 32.8889
L4.4955 32.8889
" />
<path d="M4.4955 32.8889
L4.5494 32.9159
" />
<path d="M4.5494 32.9159
L4.5764 32.9429
" />
<path d="M4.5764 32.9429
L4.6034 32.9968
" />
<path d="M4.6034 32.9968
L4.6034 33.1318
" />
<path d="M4.6034 33.1318
L4.5764 33.1857
" />
<path d="M4.5764 33.1857
L4.5494 33.2127
" />
<path d="M4.5494 33.2127
L4.4955 33.2397
" />
<path d="M4.4955 33.2397
L4.3336 33.2397
" />
<path d="M4.3336 33.2397
L4.2796 33.2127
" />
<path d="M4.2796 33.2127
L4.2526 33.1857
" />
</g></g>
<g style="fill:none; 
stroke:#AFAFAF; stroke-width:0.0212; stroke-opacity:1; 
stroke-linecap:round; stroke-linejoin:round;">
<path d="M3.3217 32.9800
L3.3217 32.9800
" />
<path d="M3.3217 32.9800 A0.8500 0.8500 0.0 0 0 5.0217 32.9800" />
<path d="M5.0217 32.9800
L5.0217 32.9800
" />
<path d="M5.0217 32.9800 A0.8500 0.8500 0.0 0 0 3.3217 32.9800" />
</g>
<g style="fill:none; 
stroke:#AFAFAF; stroke-width:0.0472; stroke-opacity:1; 
stroke-linecap:round; stroke-linejoin:round;">
<text x="4.1717" y="30.7233"
textLength="1.1077" font-size="0.7556" lengthAdjust="spacingAndGlyphs"
text-anchor="middle" opacity="0" stroke-opacity="0">14</text>
<g class="stroked-text"><desc>14</desc>
<path d="M4.0637 30.6997
L3.7399 30.6997
" />
<path d="M3.9018 30.6997
L3.9018 30.1330
" />
<path d="M3.9018 30.1330
L3.8479 30.2140
" />
<path d="M3.8479 30.2140
L3.7939 30.2679
" />
<path d="M3.7939 30.2679
L3.7399 30.2949
" />
<path d="M4.5494 30.3219
L4.5494 30.6997
" />
<path d="M4.4145 30.1060
L4.2796 30.5108
" />
<path d="M4.2796 30.5108
L4.6304 30.5108
" />
</g></g>
<g style="fill:none; 
stroke:#AFAFAF; stroke-width:0.0212; stroke-opacity:1; 
stroke-linecap:round; stroke-linejoin:round;">
<path d="M3.3217 30.4400
L3.3217 30.4400
" />
<path d="M3.3217 30.4400 A0.8500 0.8500 0.0 0 0 5.0217 30.4400" />
<path d="M5.0217 30.4400
L5.0217 30.4400
" />
<path d="M5.0217 30.4400 A0.8500 0.8500 0.0 0 0 3.3217 30.4400" />
</g>
<g style="fill:none; 
stroke:#AFAFAF; stroke-width:0.0472; stroke-opacity:1; 
stroke-linecap:round; stroke-linejoin:round;">
<text x="4.1717" y="28.1833"
textLength="1.1077" font-size="0.7556" lengthAdjust="spacingAndGlyphs"
text-anchor="middle" opacity="0" stroke-opacity="0">15</text>
<g class="stroked-text"><desc>15</desc>
<path d="M4.0637 28.1597
L3.7399 28.1597
" />
<path d="M3.9018 28.1597
L3.9018 27.5930
" />
<path d="M3.9018 27.5930
L3.8479 27.6740
" />
<path d="M3.8479 27.6740
L3.7939 27.7279
" />
<path d="M3.7939 27.7279
L3.7399 27.7549
" />
<path d="M4.5764 27.5930
L4.3066 27.5930
" />
<path d="M4.3066 27.5930
L4.2796 27.8629
" />
<path d="M4.2796 27.8629
L4.3066 27.8359
" />
<path d="M4.3066 27.8359
L4.3606 27.8089
" />
<path d="M4.3606 27.8089
L4.4955 27.8089
" />
<path d="M4.4955 27.8089
L4.5494 27.8359
" />
<path d="M4.5494 27.8359
L4.5764 27.8629
" />
<path d="M4.5764 27.8629
L4.6034 27.9168
" />
<path d="M4.6034 27.9168
L4.6034 28.0518
" />
<path d="M4.6034 28.0518
L4.5764 28.1057
" />
<path d="M4.5764 28.1057
L4.5494 28.1327
" />
<path d="M4.5494 28.1327
L4.4955 28.1597
" />
<path d="M4.4955 28.1597
L4.3606 28.1597
" />
<path d="M4.3606 28.1597
L4.3066 28.1327
" />
<path d="M4.3066 28.1327
L4.2796 28.1057
" />
</g></g>
<g style="fill:none; 
stroke:#AFAFAF; stroke-width:0.0212; stroke-opacity:1; 
stroke-linecap:round; stroke-linejoin:round;">
<path d="M3.3217 27.9000
L3.3217 27.9000
" />
<path d="M3.3217 27.9000 A0.8500 0.8500 0.0 0 0 5.0217 27.9000" />
<path d="M5.0217 27.9000
L5.0217 27.9000
" />
<path d="M5.0217 27.9000 A0.8500 0.8500 0.0 0 0 3.3217 27.9000" />
</g>
<g style="fill:none; 
stroke:#AFAFAF; stroke-width:0.0472; stroke-opacity:1; 
stroke-linecap:round; stroke-linejoin:round;">
<text x="4.1717" y="25.6433"
textLength="1.1077" font-size="0.7556" lengthAdjust="spacingAndGlyphs"
text-anchor="middle" opacity="0" stroke-opacity="0">16</text>
<g class="stroked-text"><desc>16</desc>
<path d="M4.0637 25.6197
L3.7399 25.6197
" />
<path d="M3.9018 25.6197
L3.9018 25.0530
" />
<path d="M3.9018 25.0530
L3.8479 25.1340
" />
<path d="M3.8479 25.1340
L3.7939 25.1879
" />
<path d="M3.7939 25.1879
L3.7399 25.2149
" />
<path d="M4.5494 25.0530
L4.4415 25.0530
" />
<path d="M4.4415 25.0530
L4.3875 25.0800
" />
<path d="M4.3875 25.0800
L4.3606 25.1070
" />
<path d="M4.3606 25.1070
L4.3066 25.1879
" />
<path d="M4.3066 25.1879
L4.2796 25.2959
" />
<path d="M4.2796 25.2959
L4.2796 25.5118
" />
<path d="M4.2796 25.5118
L4.3066 25.5657
" />
<path d="M4.3066 25.5657
L4.3336 25.5927
" />
<path d="M4.3336 25.5927
L4.3875 25.6197
" />
<path d="M4.3875 25.6197
L4.4955 25.6197
" />
<path d="M4.4955 25.6197
L4.5494 25.5927
" />
<path d="M4.5494 25.5927
L4.5764 25.5657
" />
<path d="M4.5764 25.5657
L4.6034 25.5118
" />
<path d="M4.6034 25.5118
L4.6034 25.3768
" />
<path d="M4.6034 25.3768
L4.5764 25.3229
" />
<path d="M4.5764 25.3229
L4.5494 25.2959
" />
<path d="M4.5494 25.2959
L4.4955 25.2689
" />
<path d="M4.4955 25.2689
L4.3875 25.2689
" />
<path d="M4.3875 25.2689
L4.3336 25.2959
" />
<path d="M4.3336 25.2959
L4.3066 25.3229
" />
<path d="M4.3066 25.3229
L4.2796 25.3768
" />
</g></g>
<g style="fill:none; 
stroke:#AFAFAF; stroke-width:0.0212; stroke-opacity:1; 
stroke-linecap:round; stroke-linejoin:round;">
<path d="M3.3217 25.3600
L3.3217 25.3600
" />
<path d="M3.3217 25.3600 A0.8500 0.8500 0.0 0 0 5.0217 25.3600" />
<path d="M5.0217 25.3600
L5.0217 25.3600
" />
<path d="M5.0217 25.3600 A0.8500 0.8500 0.0 0 0 3.3217 25.3600" />
</g>
<g style="fill:none; 
stroke:#AFAFAF; stroke-width:0.0472; stroke-opacity:1; 
stroke-linecap:round; stroke-linejoin:round;">
<text x="4.1717" y="23.1033"
textLength="1.1077" font-size="0.7556" lengthAdjust="spacingAndGlyphs"
text-anchor="middle" opacity="0" stroke-opacity="0">17</text>
<g class="stroked-text"><desc>17</desc>
<path d="M4.0637 23.0797
L3.7399 23.0797
" />
<path d="M3.9018 23.0797
L3.9018 22.5130
" />
<path d="M3.9018 22.5130
L3.8479 22.5940
" />
<path d="M3.8479 22.5940
L3.7939 22.6479
" />
<path d="M3.7939 22.6479
L3.7399 22.6749
" />
<path d="M4.2526 22.5130
L4.6304 22.5130
" />
<path d="M4.6304 22.5130
L4.3875 23.0797
" />
</g></g>
<g style="fill:none; 
stroke:#AFAFAF; stroke-width:0.0212; stroke-opacity:1; 
stroke-linecap:round; stroke-linejoin:round;">
<path d="M3.3217 22.8200
L3.3217 22.8200
" />
<path d="M3.3217 22.8200 A0.8500 0.8500 0.0 0 0 5.0217 22.8200" />
<path d="M5.0217 22.8200
L5.0217 22.8200
" />
<path d="M5.0217 22.8200 A0.8500 0.8500 0.0 0 0 3.3217 22.8200" />
</g>
<g style="fill:none; 
stroke:#AFAFAF; stroke-width:0.0472; stroke-opacity:1; 
stroke-linecap:round; stroke-linejoin:round;">
<text x="4.1717" y="20.5633"
textLength="1.1077" font-size="0.7556" lengthAdjust="spacingAndGlyphs"
text-anchor="middle" opacity="0" stroke-opacity="0">18</text>
<g class="stroked-text"><desc>18</desc>
<path d="M4.0637 20.5397
L3.7399 20.5397
" />
<path d="M3.9018 20.5397
L3.9018 19.9730
" />
<path d="M3.9018 19.9730
L3.8479 20.0540
" />
<path d="M3.8479 20.0540
L3.7939 20.1079
" />
<path d="M3.7939 20.1079
L3.7399 20.1349
" />
<path d="M4.3875 20.2159
L4.3336 20.1889
" />
<path d="M4.3336 20.1889
L4.3066 20.1619
" />
<path d="M4.3066 20.1619
L4.2796 20.1079
" />
<path d="M4.2796 20.1079
L4.2796 20.0810
" />
<path d="M4.2796 20.0810
L4.3066 20.0270
" />
<path d="M4.3066 20.0270
L4.3336 20.0000
" />
<path d="M4.3336 20.0000
L4.3875 19.9730
" />
<path d="M4.3875 19.9730
L4.4955 19.9730
" />
<path d="M4.4955 19.9730
L4.5494 20.0000
" />
<path d="M4.5494 20.0000
L4.5764 20.0270
" />
<path d="M4.5764 20.0270
L4.6034 20.0810
" />
<path d="M4.6034 20.0810
L4.6034 20.1079
" />
<path d="M4.6034 20.1079
L4.5764 20.1619
" />
<path d="M4.5764 20.1619
L4.5494 20.1889
" />
<path d="M4.5494 20.1889
L4.4955 20.2159
" />
<path d="M4.4955 20.2159
L4.3875 20.2159
" />
<path d="M4.3875 20.2159
L4.3336 20.2429
" />
<path d="M4.3336 20.2429
L4.3066 20.2699
" />
<path d="M4.3066 20.2699
L4.2796 20.3238
" />
<path d="M4.2796 20.3238
L4.2796 20.4318
" />
<path d="M4.2796 20.4318
L4.3066 20.4857
" />
<path d="M4.3066 20.4857
L4.3336 20.5127
" />
<path d="M4.3336 20.5127
L4.3875 20.5397
" />
<path d="M4.3875 20.5397
L4.4955 20.5397
" />
<path d="M4.4955 20.5397
L4.5494 20.5127
" />
<path d="M4.5494 20.5127
L4.5764 20.4857
" />
<path d="M4.5764 20.4857
L4.6034 20.4318
" />
<path d="M4.6034 20.4318
L4.6034 20.3238
" />
<path d="M4.6034 20.3238
L4.5764 20.2699
" />
<path d="M4.5764 20.2699
L4.5494 20.2429
" />
<path d="M4.5494 20.2429
L4.4955 20.2159
" />
</g></g>
<g style="fill:none; 
stroke:#AFAFAF; stroke-width:0.0212; stroke-opacity:1; 
stroke-linecap:round; stroke-linejoin:round;">
<path d="M3.3217 20.2800
L3.3217 20.2800
" />
<path d="M3.3217 20.2800 A0.8500 0.8500 0.0 0 0 5.0217 20.2800" />
<path d="M5.0217 20.2800
L5.0217 20.2800
" />
<path d="M5.0217 20.2800 A0.8500 0.8500 0.0 0 0 3.3217 20.2800" />
</g>
<g style="fill:none; 
stroke:#AFAFAF; stroke-width:0.0472; stroke-opacity:1; 
stroke-linecap:round; stroke-linejoin:round;">
<text x="4.1717" y="18.0233"
textLength="1.1077" font-size="0.7556" lengthAdjust="spacingAndGlyphs"
text-anchor="middle" opacity="0" stroke-opacity="0">19</text>
<g class="stroked-text"><desc>19</desc>
<path d="M4.0637 17.9997
L3.7399 17.9997
" />
<path d="M3.9018 17.9997
L3.9018 17.4330
" />
<path d="M3.9018 17.4330
L3.8479 17.5140
" />
<path d="M3.8479 17.5140
L3.7939 17.5679
" />
<path d="M3.7939 17.5679
L3.7399 17.5949
" />
<path d="M4.3336 17.9997
L4.4415 17.9997
" />
<path d="M4.4415 17.9997
L4.4955 17.9727
" />
<path d="M4.4955 17.9727
L4.5225 17.9457
" />
<path d="M4.5225 17.9457
L4.5764 17.8648
" />
<path d="M4.5764 17.8648
L4.6034 17.7568
" />
<path d="M4.6034 17.7568
L4.6034 17.5410
" />
<path d="M4.6034 17.5410
L4.5764 17.4870
" />
<path d="M4.5764 17.4870
L4.5494 17.4600
" />
<path d="M4.5494 17.4600
L4.4955 17.4330
" />
<path d="M4.4955 17.4330
L4.3875 17.4330
" />
<path d="M4.3875 17.4330
L4.3336 17.4600
" />
<path d="M4.3336 17.4600
L4.3066 17.4870
" />
<path d="M4.3066 17.4870
L4.2796 17.5410
" />
<path d="M4.2796 17.5410
L4.2796 17.6759
" />
<path d="M4.2796 17.6759
L4.3066 17.7299
" />
<path d="M4.3066 17.7299
L4.3336 17.7568
" />
<path d="M4.3336 17.7568
L4.3875 17.7838
" />
<path d="M4.3875 17.7838
L4.4955 17.7838
" />
<path d="M4.4955 17.7838
L4.5494 17.7568
" />
<path d="M4.5494 17.7568
L4.5764 17.7299
" />
<path d="M4.5764 17.7299
L4.6034 17.6759
" />
</g></g>
<g style="fill:none; 
stroke:#AFAFAF; stroke-width:0.0212; stroke-opacity:1; 
stroke-linecap:round; stroke-linejoin:round;">
<path d="M3.3217 17.7400
L3.3217 17.7400
" />
<path d="M3.3217 17.7400 A0.8500 0.8500 0.0 0 0 5.0217 17.7400" />
<path d="M5.0217 17.7400
L5.0217 17.7400
" />
<path d="M5.0217 17.7400 A0.8500 0.8500 0.0 0 0 3.3217 17.7400" />
</g>
<g style="fill:none; 
stroke:#AFAFAF; stroke-width:0.0472; stroke-opacity:1; 
stroke-linecap:round; stroke-linejoin:round;">
<text x="4.1717" y="15.4833"
textLength="1.1077" font-size="0.7556" lengthAdjust="spacingAndGlyphs"
text-anchor="middle" opacity="0" stroke-opacity="0">20</text>
<g class="stroked-text"><desc>20</desc>
<path d="M3.7399 14.9470
L3.7669 14.9200
" />
<path d="M3.7669 14.9200
L3.8209 14.8930
" />
<path d="M3.8209 14.8930
L3.9558 14.8930
" />
<path d="M3.9558 14.8930
L4.0098 14.9200
" />
<path d="M4.0098 14.9200
L4.0367 14.9470
" />
<path d="M4.0367 14.9470
L4.0637 15.0010
" />
<path d="M4.0637 15.0010
L4.0637 15.0549
" />
<path d="M4.0637 15.0549
L4.0367 15.1359
" />
<path d="M4.0367 15.1359
L3.7129 15.4597
" />
<path d="M3.7129 15.4597
L4.0637 15.4597
" />
<path d="M4.4145 14.8930
L4.4685 14.8930
" />
<path d="M4.4685 14.8930
L4.5225 14.9200
" />
<path d="M4.5225 14.9200
L4.5494 14.9470
" />
<path d="M4.5494 14.9470
L4.5764 15.0010
" />
<path d="M4.5764 15.0010
L4.6034 15.1089
" />
<path d="M4.6034 15.1089
L4.6034 15.2438
" />
<path d="M4.6034 15.2438
L4.5764 15.3518
" />
<path d="M4.5764 15.3518
L4.5494 15.4057
" />
<path d="M4.5494 15.4057
L4.5225 15.4327
" />
<path d="M4.5225 15.4327
L4.4685 15.4597
" />
<path d="M4.4685 15.4597
L4.4145 15.4597
" />
<path d="M4.4145 15.4597
L4.3606 15.4327
" />
<path d="M4.3606 15.4327
L4.3336 15.4057
" />
<path d="M4.3336 15.4057
L4.3066 15.3518
" />
<path d="M4.3066 15.3518
L4.2796 15.2438
" />
<path d="M4.2796 15.2438
L4.2796 15.1089
" />
<path d="M4.2796 15.1089
L4.3066 15.0010
" />
<path d="M4.3066 15.0010
L4.3336 14.9470
" />
<path d="M4.3336 14.9470
L4.3606 14.9200
" />
<path d="M4.3606 14.9200
L4.4145 14.8930
" />
</g></g>
<g style="fill:none; 
stroke:#AFAFAF; stroke-width:0.0212; stroke-opacity:1; 
stroke-linecap:round; stroke-linejoin:round;">
<path d="M3.3217 15.2000
L3.3217 15.2000
" />
<path d="M3.3217 15.2000 A0.8500 0.8500 0.0 0 0 5.0217 15.2000" />
<path d="M5.0217 15.2000
L5.0217 15.2000
" />
<path d="M5.0217 15.2000 A0.8500 0.8500 0.0 0 0 3.3217 15.2000" />
</g>
<g style="fill:none; 
stroke:#AFAFAF; stroke-width:0.0472; stroke-opacity:1; 
stroke-linecap:round; stroke-linejoin:round;">
<text x="4.1717" y="12.9433"
textLength="1.1077" font-size="0.7556" lengthAdjust="spacingAndGlyphs"
text-anchor="middle" opacity="0" stroke-opacity="0">21</text>
<g class="stroked-text"><desc>21</desc>
<path d="M3.7399 12.4070
L3.7669 12.3800
" />
<path d="M3.7669 12.3800
L3.8209 12.3530
" />
<path d="M3.8209 12.3530
L3.9558 12.3530
" />
<path d="M3.9558 12.3530
L4.0098 12.3800
" />
<path d="M4.0098 12.3800
L4.0367 12.4070
" />
<path d="M4.0367 12.4070
L4.0637 12.4610
" />
<path d="M4.0637 12.4610
L4.0637 12.5149
" />
<path d="M4.0637 12.5149
L4.0367 12.5959
" />
<path d="M4.0367 12.5959
L3.7129 12.9197
" />
<path d="M3.7129 12.9197
L4.0637 12.9197
" />
<path d="M4.6034 12.9197
L4.2796 12.9197
" />
<path d="M4.4415 12.9197
L4.4415 12.3530
" />
<path d="M4.4415 12.3530
L4.3875 12.4340
" />
<path d="M4.3875 12.4340
L4.3336 12.4879
" />
<path d="M4.3336 12.4879
L4.2796 12.5149
" />
</g></g>
<g style="fill:none; 
stroke:#AFAFAF; stroke-width:0.0212; stroke-opacity:1; 
stroke-linecap:round; stroke-linejoin:round;">
<path d="M3.3217 12.6600
L3.3217 12.6600
" />
<path d="M3.3217 12.6600 A0.8500 0.8500 0.0 0 0 5.0217 12.6600" />
<path d="M5.0217 12.6600
L5.0217 12.6600
" />
<path d="M5.0217 12.6600 A0.8500 0.8500 0.0 0 0 3.3217 12.6600" />
</g>
<g style="fill:none; 
stroke:#AFAFAF; stroke-width:0.0472; stroke-opacity:1; 
stroke-linecap:round; stroke-linejoin:round;">
<text x="4.1717" y="10.4033"
textLength="1.1077" font-size="0.7556" lengthAdjust="spacingAndGlyphs"
text-anchor="middle" opacity="0" stroke-opacity="0">22</text>
<g class="stroked-text"><desc>22</desc>
<path d="M3.7399 9.8670
L3.7669 9.8400
" />
<path d="M3.7669 9.8400
L3.8209 9.8130
" />
<path d="M3.8209 9.8130
L3.9558 9.8130
" />
<path d="M3.9558 9.8130
L4.0098 9.8400
" />
<path d="M4.0098 9.8400
L4.0367 9.8670
" />
<path d="M4.0367 9.8670
L4.0637 9.9210
" />
<path d="M4.0637 9.9210
L4.0637 9.9749
" />
<path d="M4.0637 9.9749
L4.0367 10.0559
" />
<path d="M4.0367 10.0559
L3.7129 10.3797
" />
<path d="M3.7129 10.3797
L4.0637 10.3797
" />
<path d="M4.2796 9.8670
L4.3066 9.8400
" />
<path d="M4.3066 9.8400
L4.3606 9.8130
" />
<path d="M4.3606 9.8130
L4.4955 9.8130
" />
<path d="M4.4955 9.8130
L4.5494 9.8400
" />
<path d="M4.5494 9.8400
L4.5764 9.8670
" />
<path d="M4.5764 9.8670
L4.6034 9.9210
" />
<path d="M4.6034 9.9210
L4.6034 9.9749
" />
<path d="M4.6034 9.9749
L4.5764 10.0559
" />
<path d="M4.5764 10.0559
L4.2526 10.3797
" />
<path d="M4.2526 10.3797
L4.6034 10.3797
" />
</g></g>
<g style="fill:none; 
stroke:#AFAFAF; stroke-width:0.0212; stroke-opacity:1; 
stroke-linecap:round; stroke-linejoin:round;">
<path d="M3.3217 10.1200
L3.3217 10.1200
" />
<path d="M3.3217 10.1200 A0.8500 0.8500 0.0 0 0 5.0217 10.1200" />
<path d="M5.0217 10.1200
L5.0217 10.1200
" />
<path d="M5.0217 10.1200 A0.8500 0.8500 0.0 0 0 3.3217 10.1200" />
</g>
<g style="fill:none; 
stroke:#AFAFAF; stroke-width:0.0472; stroke-opacity:1; 
stroke-linecap:round; stroke-linejoin:round;">
<text x="4.1717" y="7.8633"
textLength="1.1077" font-size="0.7556" lengthAdjust="spacingAndGlyphs"
text-anchor="middle" opacity="0" stroke-opacity="0">23</text>
<g class="stroked-text"><desc>23</desc>
<path d="M3.7399 7.3270
L3.7669 7.3000
" />
<path d="M3.7669 7.3000
L3.8209 7.2730
" />
<path d="M3.8209 7.2730
L3.9558 7.2730
" />
<path d="M3.9558 7.2730
L4.0098 7.3000
" />
<path d="M4.0098 7.3000
L4.0367 7.3270
" />
<path d="M4.0367 7.3270
L4.0637 7.3810
" />
<path d="M4.0637 7.3810
L4.0637 7.4349
" />
<path d="M4.0637 7.4349
L4.0367 7.5159
" />
<path d="M4.0367 7.5159
L3.7129 7.8397
" />
<path d="M3.7129 7.8397
L4.0637 7.8397
" />
<path d="M4.2526 7.2730
L4.6034 7.2730
" />
<path d="M4.6034 7.2730
L4.4145 7.4889
" />
<path d="M4.4145 7.4889
L4.4955 7.4889
" />
<path d="M4.4955 7.4889
L4.5494 7.5159
" />
<path d="M4.5494 7.5159
L4.5764 7.5429
" />
<path d="M4.5764 7.5429
L4.6034 7.5968
" />
<path d="M4.6034 7.5968
L4.6034 7.7318
" />
<path d="M4.6034 7.7318
L4.5764 7.7857
" />
<path d="M4.5764 7.7857
L4.5494 7.8127
" />
<path d="M4.5494 7.8127
L4.4955 7.8397
" />
<path d="M4.4955 7.8397
L4.3336 7.8397
" />
<path d="M4.3336 7.8397
L4.2796 7.8127
" />
<path d="M4.2796 7.8127
L4.2526 7.7857
" />
</g></g>
<g style="fill:none; 
stroke:#AFAFAF; stroke-width:0.0212; stroke-opacity:1; 
stroke-linecap:round; stroke-linejoin:round;">
<path d="M3.3217 7.5800
L3.3217 7.5800
" />
<path d="M3.3217 7.5800 A0.8500 0.8500 0.0 0 0 5.0217 7.5800" />
<path d="M5.0217 7.5800
L5.0217 7.5800
" />
<path d="M5.0217 7.5800 A0.8500 0.8500 0.0 0 0 3.3217 7.5800" />
</g>
<g style="fill:none; 
stroke:#AFAFAF; stroke-width:0.0472; stroke-opacity:1; 
stroke-linecap:round; stroke-linejoin:round;">
<text x="4.1717" y="5.3233"
textLength="1.1077" font-size="0.7556" lengthAdjust="spacingAndGlyphs"
text-anchor="middle" opacity="0" stroke-opacity="0">24</text>
<g class="stroked-text"><desc>24</desc>
<path d="M3.7399 4.7870
L3.7669 4.7600
" />
<path d="M3.7669 4.7600
L3.8209 4.7330
" />
<path d="M3.8209 4.7330
L3.9558 4.7330
" />
<path d="M3.9558 4.7330
L4.0098 4.7600
" />
<path d="M4.0098 4.7600
L4.0367 4.7870
" />
<path d="M4.0367 4.7870
L4.0637 4.8410
" />
<path d="M4.0637 4.8410
L4.0637 4.8949
" />
<path d="M4.0637 4.8949
L4.0367 4.9759
" />
<path d="M4.0367 4.9759
L3.7129 5.2997
" />
<path d="M3.7129 5.2997
L4.0637 5.2997
" />
<path d="M4.5494 4.9219
L4.5494 5.2997
" />
<path d="M4.4145 4.7060
L4.2796 5.1108
" />
<path d="M4.2796 5.1108
L4.6304 5.1108
" />
</g></g>
<g style="fill:none; 
stroke:#AFAFAF; stroke-width:0.0212; stroke-opacity:1; 
stroke-linecap:round; stroke-linejoin:round;">
<path d="M3.3217 5.0400
L3.3217 5.0400
" />
<path d="M3.3217 5.0400 A0.8500 0.8500 0.0 0 0 5.0217 5.0400" />
<path d="M5.0217 5.0400
L5.0217 5.0400
" />
<path d="M5.0217 5.0400 A0.8500 0.8500 0.0 0 0 3.3217 5.0400" />
</g>
<g style="fill:none; 
stroke:#585D84; stroke-width:0.0472; stroke-opacity:1; 
stroke-linecap:round; stroke-linejoin:round;">
<text x="19.4117" y="5.3233"
textLength="0.5680" font-size="0.7556" lengthAdjust="spacingAndGlyphs"
text-anchor="middle" opacity="0" stroke-opacity="0">1</text>
<g class="stroked-text"><desc>1</desc>
<path d="M19.5736 5.2997
L19.2498 5.2997
" />
<path d="M19.4117 5.2997
L19.4117 4.7330
" />
<path d="M19.4117 4.7330
L19.3577 4.8140
" />
<path d="M19.3577 4.8140
L19.3037 4.8679
" />
<path d="M19.3037 4.8679
L19.2498 4.8949
" />
</g><path style="fill:none; 
stroke:#585D84; stroke-width:0.0212; stroke-opacity:1; 
stroke-linecap:round; stroke-linejoin:round;fill:none"
d="M 18.5617,4.4450
18.5811,4.3474
18.6364,4.2647
18.7191,4.2094
18.8167,4.1900
20.0067,4.1900
20.1043,4.2094
20.1870,4.2647
20.2423,4.3474
20.2617,4.4450
20.2617,5.6350
20.2423,5.7326
20.1870,5.8153
20.1043,5.8706
20.0067,5.8900
18.8167,5.8900
18.7191,5.8706
18.6364,5.8153
18.5811,5.7326
18.5617,5.6350
Z" /> 
</g>
<g style="fill:none; 
stroke:#585D84; stroke-width:0.0472; stroke-opacity:1; 
stroke-linecap:round; stroke-linejoin:round;">
<text x="19.4117" y="7.8633"
textLength="0.5680" font-size="0.7556" lengthAdjust="spacingAndGlyphs"
text-anchor="middle" opacity="0" stroke-opacity="0">2</text>
<g class="stroked-text"><desc>2</desc>
<path d="M19.2498 7.3270
L19.2767 7.3000
" />
<path d="M19.2767 7.3000
L19.3307 7.2730
" />
<path d="M19.3307 7.2730
L19.4656 7.2730
" />
<path d="M19.4656 7.2730
L19.5196 7.3000
" />
<path d="M19.5196 7.3000
L19.5466 7.3270
" />
<path d="M19.5466 7.3270
L19.5736 7.3810
" />
<path d="M19.5736 7.3810
L19.5736 7.4349
" />
<path d="M19.5736 7.4349
L19.5466 7.5159
" />
<path d="M19.5466 7.5159
L19.2228 7.8397
" />
<path d="M19.2228 7.8397
L19.5736 7.8397
" />
</g></g>
<g style="fill:none; 
stroke:#585D84; stroke-width:0.0212; stroke-opacity:1; 
stroke-linecap:round; stroke-linejoin:round;">
<path d="M18.5617 7.5800
L18.5617 7.5800
" />
<path d="M18.5617 7.5800 A0.8500 0.8500 0.0 0 0 20.2617 7.5800" />
<path d="M20.2617 7.5800
L20.2617 7.5800
" />
<path d="M20.2617 7.5800 A0.8500 0.8500 0.0 0 0 18.5617 7.5800" />
</g>
<g style="fill:none; 
stroke:#585D84; stroke-width:0.0472; stroke-opacity:1; 
stroke-linecap:round; stroke-linejoin:round;">
<text x="19.4117" y="10.4033"
textLength="0.5680" font-size="0.7556" lengthAdjust="spacingAndGlyphs"
text-anchor="middle" opacity="0" stroke-opacity="0">3</text>
<g class="stroked-text"><desc>3</desc>
<path d="M19.2228 9.8130
L19.5736 9.8130
" />
<path d="M19.5736 9.8130
L19.3847 10.0289
" />
<path d="M19.3847 10.0289
L19.4656 10.0289
" />
<path d="M19.4656 10.0289
L19.5196 10.0559
" />
<path d="M19.5196 10.0559
L19.5466 10.0829
" />
<path d="M19.5466 10.0829
L19.5736 10.1368
" />
<path d="M19.5736 10.1368
L19.5736 10.2718
" />
<path d="M19.5736 10.2718
L19.5466 10.3257
" />
<path d="M19.5466 10.3257
L19.5196 10.3527
" />
<path d="M19.5196 10.3527
L19.4656 10.3797
" />
<path d="M19.4656 10.3797
L19.3037 10.3797
" />
<path d="M19.3037 10.3797
L19.2498 10.3527
" />
<path d="M19.2498 10.3527
L19.2228 10.3257
" />
</g></g>
<g style="fill:none; 
stroke:#585D84; stroke-width:0.0212; stroke-opacity:1; 
stroke-linecap:round; stroke-linejoin:round;">
<path d="M18.5617 10.1200
L18.5617 10.1200
" />
<path d="M18.5617 10.1200 A0.8500 0.8500 0.0 0 0 20.2617 10.1200" />
<path d="M20.2617 10.1200
L20.2617 10.1200
" />
<path d="M20.2617 10.1200 A0.8500 0.8500 0.0 0 0 18.5617 10.1200" />
</g>
<g style="fill:none; 
stroke:#585D84; stroke-width:0.0472; stroke-opacity:1; 
stroke-linecap:round; stroke-linejoin:round;">
<text x="19.4117" y="12.9433"
textLength="0.5680" font-size="0.7556" lengthAdjust="spacingAndGlyphs"
text-anchor="middle" opacity="0" stroke-opacity="0">4</text>
<g class="stroked-text"><desc>4</desc>
<path d="M19.5196 12.5419
L19.5196 12.9197
" />
<path d="M19.3847 12.3260
L19.2498 12.7308
" />
<path d="M19.2498 12.7308
L19.6006 12.7308
" />
</g></g>
<g style="fill:none; 
stroke:#585D84; stroke-width:0.0212; stroke-opacity:1; 
stroke-linecap:round; stroke-linejoin:round;">
<path d="M18.5617 12.6600
L18.5617 12.6600
" />
<path d="M18.5617 12.6600 A0.8500 0.8500 0.0 0 0 20.2617 12.6600" />
<path d="M20.2617 12.6600
L20.2617 12.6600
" />
<path d="M20.2617 12.6600 A0.8500 0.8500 0.0 0 0 18.5617 12.6600" />
</g>
<g style="fill:none; 
stroke:#585D84; stroke-width:0.0472; stroke-opacity:1; 
stroke-linecap:round; stroke-linejoin:round;">
<text x="19.4117" y="15.4833"
textLength="0.5680" font-size="0.7556" lengthAdjust="spacingAndGlyphs"
text-anchor="middle" opacity="0" stroke-opacity="0">5</text>
<g class="stroked-text"><desc>5</desc>
<path d="M19.5466 14.8930
L19.2767 14.8930
" />
<path d="M19.2767 14.8930
L19.2498 15.1629
" />
<path d="M19.2498 15.1629
L19.2767 15.1359
" />
<path d="M19.2767 15.1359
L19.3307 15.1089
" />
<path d="M19.3307 15.1089
L19.4656 15.1089
" />
<path d="M19.4656 15.1089
L19.5196 15.1359
" />
<path d="M19.5196 15.1359
L19.5466 15.1629
" />
<path d="M19.5466 15.1629
L19.5736 15.2168
" />
<path d="M19.5736 15.2168
L19.5736 15.3518
" />
<path d="M19.5736 15.3518
L19.5466 15.4057
" />
<path d="M19.5466 15.4057
L19.5196 15.4327
" />
<path d="M19.5196 15.4327
L19.4656 15.4597
" />
<path d="M19.4656 15.4597
L19.3307 15.4597
" />
<path d="M19.3307 15.4597
L19.2767 15.4327
" />
<path d="M19.2767 15.4327
L19.2498 15.4057
" />
</g></g>
<g style="fill:none; 
stroke:#585D84; stroke-width:0.0212; stroke-opacity:1; 
stroke-linecap:round; stroke-linejoin:round;">
<path d="M18.5617 15.2000
L18.5617 15.2000
" />
<path d="M18.5617 15.2000 A0.8500 0.8500 0.0 0 0 20.2617 15.2000" />
<path d="M20.2617 15.2000
L20.2617 15.2000
" />
<path d="M20.2617 15.2000 A0.8500 0.8500 0.0 0 0 18.5617 15.2000" />
</g>
<g style="fill:none; 
stroke:#585D84; stroke-width:0.0472; stroke-opacity:1; 
stroke-linecap:round; stroke-linejoin:round;">
<text x="19.4117" y="18.0233"
textLength="0.5680" font-size="0.7556" lengthAdjust="spacingAndGlyphs"
text-anchor="middle" opacity="0" stroke-opacity="0">6</text>
<g class="stroked-text"><desc>6</desc>
<path d="M19.5196 17.4330
L19.4117 17.4330
" />
<path d="M19.4117 17.4330
L19.3577 17.4600
" />
<path d="M19.3577 17.4600
L19.3307 17.4870
" />
<path d="M19.3307 17.4870
L19.2767 17.5679
" />
<path d="M19.2767 17.5679
L19.2498 17.6759
" />
<path d="M19.2498 17.6759
L19.2498 17.8918
" />
<path d="M19.2498 17.8918
L19.2767 17.9457
" />
<path d="M19.2767 17.9457
L19.3037 17.9727
" />
<path d="M19.3037 17.9727
L19.3577 17.9997
" />
<path d="M19.3577 17.9997
L19.4656 17.9997
" />
<path d="M19.4656 17.9997
L19.5196 17.9727
" />
<path d="M19.5196 17.9727
L19.5466 17.9457
" />
<path d="M19.5466 17.9457
L19.5736 17.8918
" />
<path d="M19.5736 17.8918
L19.5736 17.7568
" />
<path d="M19.5736 17.7568
L19.5466 17.7029
" />
<path d="M19.5466 17.7029
L19.5196 17.6759
" />
<path d="M19.5196 17.6759
L19.4656 17.6489
" />
<path d="M19.4656 17.6489
L19.3577 17.6489
" />
<path d="M19.3577 17.6489
L19.3037 17.6759
" />
<path d="M19.3037 17.6759
L19.2767 17.7029
" />
<path d="M19.2767 17.7029
L19.2498 17.7568
" />
</g></g>
<g style="fill:none; 
stroke:#585D84; stroke-width:0.0212; stroke-opacity:1; 
stroke-linecap:round; stroke-linejoin:round;">
<path d="M18.5617 17.7400
L18.5617 17.7400
" />
<path d="M18.5617 17.7400 A0.8500 0.8500 0.0 0 0 20.2617 17.7400" />
<path d="M20.2617 17.7400
L20.2617 17.7400
" />
<path d="M20.2617 17.7400 A0.8500 0.8500 0.0 0 0 18.5617 17.7400" />
</g>
<g style="fill:none; 
stroke:#585D84; stroke-width:0.0472; stroke-opacity:1; 
stroke-linecap:round; stroke-linejoin:round;">
<text x="19.4117" y="20.5633"
textLength="0.5680" font-size="0.7556" lengthAdjust="spacingAndGlyphs"
text-anchor="middle" opacity="0" stroke-opacity="0">7</text>
<g class="stroked-text"><desc>7</desc>
<path d="M19.2228 19.9730
L19.6006 19.9730
" />
<path d="M19.6006 19.9730
L19.3577 20.5397
" />
</g></g>
<g style="fill:none; 
stroke:#585D84; stroke-width:0.0212; stroke-opacity:1; 
stroke-linecap:round; stroke-linejoin:round;">
<path d="M18.5617 20.2800
L18.5617 20.2800
" />
<path d="M18.5617 20.2800 A0.8500 0.8500 0.0 0 0 20.2617 20.2800" />
<path d="M20.2617 20.2800
L20.2617 20.2800
" />
<path d="M20.2617 20.2800 A0.8500 0.8500 0.0 0 0 18.5617 20.2800" />
</g>
<g style="fill:none; 
stroke:#585D84; stroke-width:0.0472; stroke-opacity:1; 
stroke-linecap:round; stroke-linejoin:round;">
<text x="19.4117" y="23.1033"
textLength="0.5680" font-size="0.7556" lengthAdjust="spacingAndGlyphs"
text-anchor="middle" opacity="0" stroke-opacity="0">8</text>
<g class="stroked-text"><desc>8</desc>
<path d="M19.3577 22.7559
L19.3037 22.7289
" />
<path d="M19.3037 22.7289
L19.2767 22.7019
" />
<path d="M19.2767 22.7019
L19.2498 22.6479
" />
<path d="M19.2498 22.6479
L19.2498 22.6210
" />
<path d="M19.2498 22.6210
L19.2767 22.5670
" />
<path d="M19.2767 22.5670
L19.3037 22.5400
" />
<path d="M19.3037 22.5400
L19.3577 22.5130
" />
<path d="M19.3577 22.5130
L19.4656 22.5130
" />
<path d="M19.4656 22.5130
L19.5196 22.5400
" />
<path d="M19.5196 22.5400
L19.5466 22.5670
" />
<path d="M19.5466 22.5670
L19.5736 22.6210
" />
<path d="M19.5736 22.6210
L19.5736 22.6479
" />
<path d="M19.5736 22.6479
L19.5466 22.7019
" />
<path d="M19.5466 22.7019
L19.5196 22.7289
" />
<path d="M19.5196 22.7289
L19.4656 22.7559
" />
<path d="M19.4656 22.7559
L19.3577 22.7559
" />
<path d="M19.3577 22.7559
L19.3037 22.7829
" />
<path d="M19.3037 22.7829
L19.2767 22.8099
" />
<path d="M19.2767 22.8099
L19.2498 22.8638
" />
<path d="M19.2498 22.8638
L19.2498 22.9718
" />
<path d="M19.2498 22.9718
L19.2767 23.0257
" />
<path d="M19.2767 23.0257
L19.3037 23.0527
" />
<path d="M19.3037 23.0527
L19.3577 23.0797
" />
<path d="M19.3577 23.0797
L19.4656 23.0797
" />
<path d="M19.4656 23.0797
L19.5196 23.0527
" />
<path d="M19.5196 23.0527
L19.5466 23.0257
" />
<path d="M19.5466 23.0257
L19.5736 22.9718
" />
<path d="M19.5736 22.9718
L19.5736 22.8638
" />
<path d="M19.5736 22.8638
L19.5466 22.8099
" />
<path d="M19.5466 22.8099
L19.5196 22.7829
" />
<path d="M19.5196 22.7829
L19.4656 22.7559
" />
</g></g>
<g style="fill:none; 
stroke:#585D84; stroke-width:0.0212; stroke-opacity:1; 
stroke-linecap:round; stroke-linejoin:round;">
<path d="M18.5617 22.8200
L18.5617 22.8200
" />
<path d="M18.5617 22.8200 A0.8500 0.8500 0.0 0 0 20.2617 22.8200" />
<path d="M20.2617 22.8200
L20.2617 22.8200
" />
<path d="M20.2617 22.8200 A0.8500 0.8500 0.0 0 0 18.5617 22.8200" />
</g>
<g style="fill:none; 
stroke:#585D84; stroke-width:0.0472; stroke-opacity:1; 
stroke-linecap:round; stroke-linejoin:round;">
<text x="19.4117" y="25.6433"
textLength="0.5680" font-size="0.7556" lengthAdjust="spacingAndGlyphs"
text-anchor="middle" opacity="0" stroke-opacity="0">9</text>
<g class="stroked-text"><desc>9</desc>
<path d="M19.3037 25.6197
L19.4117 25.6197
" />
<path d="M19.4117 25.6197
L19.4656 25.5927
" />
<path d="M19.4656 25.5927
L19.4926 25.5657
" />
<path d="M19.4926 25.5657
L19.5466 25.4848
" />
<path d="M19.5466 25.4848
L19.5736 25.3768
" />
<path d="M19.5736 25.3768
L19.5736 25.1610
" />
<path d="M19.5736 25.1610
L19.5466 25.1070
" />
<path d="M19.5466 25.1070
L19.5196 25.0800
" />
<path d="M19.5196 25.0800
L19.4656 25.0530
" />
<path d="M19.4656 25.0530
L19.3577 25.0530
" />
<path d="M19.3577 25.0530
L19.3037 25.0800
" />
<path d="M19.3037 25.0800
L19.2767 25.1070
" />
<path d="M19.2767 25.1070
L19.2498 25.1610
" />
<path d="M19.2498 25.1610
L19.2498 25.2959
" />
<path d="M19.2498 25.2959
L19.2767 25.3499
" />
<path d="M19.2767 25.3499
L19.3037 25.3768
" />
<path d="M19.3037 25.3768
L19.3577 25.4038
" />
<path d="M19.3577 25.4038
L19.4656 25.4038
" />
<path d="M19.4656 25.4038
L19.5196 25.3768
" />
<path d="M19.5196 25.3768
L19.5466 25.3499
" />
<path d="M19.5466 25.3499
L19.5736 25.2959
" />
</g></g>
<g style="fill:none; 
stroke:#585D84; stroke-width:0.0212; stroke-opacity:1; 
stroke-linecap:round; stroke-linejoin:round;">
<path d="M18.5617 25.3600
L18.5617 25.3600
" />
<path d="M18.5617 25.3600 A0.8500 0.8500 0.0 0 0 20.2617 25.3600" />
<path d="M20.2617 25.3600
L20.2617 25.3600
" />
<path d="M20.2617 25.3600 A0.8500 0.8500 0.0 0 0 18.5617 25.3600" />
</g>
<g style="fill:none; 
stroke:#585D84; stroke-width:0.0472; stroke-opacity:1; 
stroke-linecap:round; stroke-linejoin:round;">
<text x="19.4117" y="28.1833"
textLength="1.1077" font-size="0.7556" lengthAdjust="spacingAndGlyphs"
text-anchor="middle" opacity="0" stroke-opacity="0">10</text>
<g class="stroked-text"><desc>10</desc>
<path d="M19.3037 28.1597
L18.9799 28.1597
" />
<path d="M19.1418 28.1597
L19.1418 27.5930
" />
<path d="M19.1418 27.5930
L19.0879 27.6740
" />
<path d="M19.0879 27.6740
L19.0339 27.7279
" />
<path d="M19.0339 27.7279
L18.9799 27.7549
" />
<path d="M19.6545 27.5930
L19.7085 27.5930
" />
<path d="M19.7085 27.5930
L19.7625 27.6200
" />
<path d="M19.7625 27.6200
L19.7894 27.6470
" />
<path d="M19.7894 27.6470
L19.8164 27.7010
" />
<path d="M19.8164 27.7010
L19.8434 27.8089
" />
<path d="M19.8434 27.8089
L19.8434 27.9438
" />
<path d="M19.8434 27.9438
L19.8164 28.0518
" />
<path d="M19.8164 28.0518
L19.7894 28.1057
" />
<path d="M19.7894 28.1057
L19.7625 28.1327
" />
<path d="M19.7625 28.1327
L19.7085 28.1597
" />
<path d="M19.7085 28.1597
L19.6545 28.1597
" />
<path d="M19.6545 28.1597
L19.6006 28.1327
" />
<path d="M19.6006 28.1327
L19.5736 28.1057
" />
<path d="M19.5736 28.1057
L19.5466 28.0518
" />
<path d="M19.5466 28.0518
L19.5196 27.9438
" />
<path d="M19.5196 27.9438
L19.5196 27.8089
" />
<path d="M19.5196 27.8089
L19.5466 27.7010
" />
<path d="M19.5466 27.7010
L19.5736 27.6470
" />
<path d="M19.5736 27.6470
L19.6006 27.6200
" />
<path d="M19.6006 27.6200
L19.6545 27.5930
" />
</g></g>
<g style="fill:none; 
stroke:#585D84; stroke-width:0.0212; stroke-opacity:1; 
stroke-linecap:round; stroke-linejoin:round;">
<path d="M18.5617 27.9000
L18.5617 27.9000
" />
<path d="M18.5617 27.9000 A0.8500 0.8500 0.0 0 0 20.2617 27.9000" />
<path d="M20.2617 27.9000
L20.2617 27.9000
" />
<path d="M20.2617 27.9000 A0.8500 0.8500 0.0 0 0 18.5617 27.9000" />
</g>
<g style="fill:none; 
stroke:#585D84; stroke-width:0.0472; stroke-opacity:1; 
stroke-linecap:round; stroke-linejoin:round;">
<text x="19.4117" y="30.7233"
textLength="1.1077" font-size="0.7556" lengthAdjust="spacingAndGlyphs"
text-anchor="middle" opacity="0" stroke-opacity="0">11</text>
<g class="stroked-text"><desc>11</desc>
<path d="M19.3037 30.6997
L18.9799 30.6997
" />
<path d="M19.1418 30.6997
L19.1418 30.1330
" />
<path d="M19.1418 30.1330
L19.0879 30.2140
" />
<path d="M19.0879 30.2140
L19.0339 30.2679
" />
<path d="M19.0339 30.2679
L18.9799 30.2949
" />
<path d="M19.8434 30.6997
L19.5196 30.6997
" />
<path d="M19.6815 30.6997
L19.6815 30.1330
" />
<path d="M19.6815 30.1330
L19.6275 30.2140
" />
<path d="M19.6275 30.2140
L19.5736 30.2679
" />
<path d="M19.5736 30.2679
L19.5196 30.2949
" />
</g></g>
<g style="fill:none; 
stroke:#585D84; stroke-width:0.0212; stroke-opacity:1; 
stroke-linecap:round; stroke-linejoin:round;">
<path d="M18.5617 30.4400
L18.5617 30.4400
" />
<path d="M18.5617 30.4400 A0.8500 0.8500 0.0 0 0 20.2617 30.4400" />
<path d="M20.2617 30.4400
L20.2617 30.4400
" />
<path d="M20.2617 30.4400 A0.8500 0.8500 0.0 0 0 18.5617 30.4400" />
</g>
<g style="fill:none; 
stroke:#585D84; stroke-width:0.0472; stroke-opacity:1; 
stroke-linecap:round; stroke-linejoin:round;">
<text x="19.4117" y="33.2633"
textLength="1.1077" font-size="0.7556" lengthAdjust="spacingAndGlyphs"
text-anchor="middle" opacity="0" stroke-opacity="0">12</text>
<g class="stroked-text"><desc>12</desc>
<path d="M19.3037 33.2397
L18.9799 33.2397
" />
<path d="M19.1418 33.2397
L19.1418 32.6730
" />
<path d="M19.1418 32.6730
L19.0879 32.7540
" />
<path d="M19.0879 32.7540
L19.0339 32.8079
" />
<path d="M19.0339 32.8079
L18.9799 32.8349
" />
<path d="M19.5196 32.7270
L19.5466 32.7000
" />
<path d="M19.5466 32.7000
L19.6006 32.6730
" />
<path d="M19.6006 32.6730
L19.7355 32.6730
" />
<path d="M19.7355 32.6730
L19.7894 32.7000
" />
<path d="M19.7894 32.7000
L19.8164 32.7270
" />
<path d="M19.8164 32.7270
L19.8434 32.7810
" />
<path d="M19.8434 32.7810
L19.8434 32.8349
" />
<path d="M19.8434 32.8349
L19.8164 32.9159
" />
<path d="M19.8164 32.9159
L19.4926 33.2397
" />
<path d="M19.4926 33.2397
L19.8434 33.2397
" />
</g></g>
<g style="fill:none; 
stroke:#585D84; stroke-width:0.0212; stroke-opacity:1; 
stroke-linecap:round; stroke-linejoin:round;">
<path d="M18.5617 32.9800
L18.5617 32.9800
" />
<path d="M18.5617 32.9800 A0.8500 0.8500 0.0 0 0 20.2617 32.9800" />
<path d="M20.2617 32.9800
L20.2617 32.9800
" />
<path d="M20.2617 32.9800 A0.8500 0.8500 0.0 0 0 18.5617 32.9800" />
</g>
<g style="fill:none; 
stroke:#585D84; stroke-width:0.0472; stroke-opacity:1; 
stroke-linecap:round; stroke-linejoin:round;">
<text x="4.1717" y="33.2633"
textLength="1.1077" font-size="0.7556" lengthAdjust="spacingAndGlyphs"
text-anchor="middle" opacity="0" stroke-opacity="0">13</text>
<g class="stroked-text"><desc>13</desc>
<path d="M4.0637 33.2397
L3.7399 33.2397
" />
<path d="M3.9018 33.2397
L3.9018 32.6730
" />
<path d="M3.9018 32.6730
L3.8479 32.7540
" />
<path d="M3.8479 32.7540
L3.7939 32.8079
" />
<path d="M3.7939 32.8079
L3.7399 32.8349
" />
<path d="M4.2526 32.6730
L4.6034 32.6730
" />
<path d="M4.6034 32.6730
L4.4145 32.8889
" />
<path d="M4.4145 32.8889
L4.4955 32.8889
" />
<path d="M4.4955 32.8889
L4.5494 32.9159
" />
<path d="M4.5494 32.9159
L4.5764 32.9429
" />
<path d="M4.5764 32.9429
L4.6034 32.9968
" />
<path d="M4.6034 32.9968
L4.6034 33.1318
" />
<path d="M4.6034 33.1318
L4.5764 33.1857
" />
<path d="M4.5764 33.1857
L4.5494 33.2127
" />
<path d="M4.5494 33.2127
L4.4955 33.2397
" />
<path d="M4.4955 33.2397
L4.3336 33.2397
" />
<path d="M4.3336 33.2397
L4.2796 33.2127
" />
<path d="M4.2796 33.2127
L4.2526 33.1857
" />
</g></g>
<g style="fill:none; 
stroke:#585D84; stroke-width:0.0212; stroke-opacity:1; 
stroke-linecap:round; stroke-linejoin:round;">
<path d="M3.3217 32.9800
L3.3217 32.9800
" />
<path d="M3.3217 32.9800 A0.8500 0.8500 0.0 0 0 5.0217 32.9800" />
<path d="M5.0217 32.9800
L5.0217 32.9800
" />
<path d="M5.0217 32.9800 A0.8500 0.8500 0.0 0 0 3.3217 32.9800" />
</g>
<g style="fill:none; 
stroke:#585D84; stroke-width:0.0472; stroke-opacity:1; 
stroke-linecap:round; stroke-linejoin:round;">
<text x="4.1717" y="30.7233"
textLength="1.1077" font-size="0.7556" lengthAdjust="spacingAndGlyphs"
text-anchor="middle" opacity="0" stroke-opacity="0">14</text>
<g class="stroked-text"><desc>14</desc>
<path d="M4.0637 30.6997
L3.7399 30.6997
" />
<path d="M3.9018 30.6997
L3.9018 30.1330
" />
<path d="M3.9018 30.1330
L3.8479 30.2140
" />
<path d="M3.8479 30.2140
L3.7939 30.2679
" />
<path d="M3.7939 30.2679
L3.7399 30.2949
" />
<path d="M4.5494 30.3219
L4.5494 30.6997
" />
<path d="M4.4145 30.1060
L4.2796 30.5108
" />
<path d="M4.2796 30.5108
L4.6304 30.5108
" />
</g></g>
<g style="fill:none; 
stroke:#585D84; stroke-width:0.0212; stroke-opacity:1; 
stroke-linecap:round; stroke-linejoin:round;">
<path d="M3.3217 30.4400
L3.3217 30.4400
" />
<path d="M3.3217 30.4400 A0.8500 0.8500 0.0 0 0 5.0217 30.4400" />
<path d="M5.0217 30.4400
L5.0217 30.4400
" />
<path d="M5.0217 30.4400 A0.8500 0.8500 0.0 0 0 3.3217 30.4400" />
</g>
<g style="fill:none; 
stroke:#585D84; stroke-width:0.0472; stroke-opacity:1; 
stroke-linecap:round; stroke-linejoin:round;">
<text x="4.1717" y="28.1833"
textLength="1.1077" font-size="0.7556" lengthAdjust="spacingAndGlyphs"
text-anchor="middle" opacity="0" stroke-opacity="0">15</text>
<g class="stroked-text"><desc>15</desc>
<path d="M4.0637 28.1597
L3.7399 28.1597
" />
<path d="M3.9018 28.1597
L3.9018 27.5930
" />
<path d="M3.9018 27.5930
L3.8479 27.6740
" />
<path d="M3.8479 27.6740
L3.7939 27.7279
" />
<path d="M3.7939 27.7279
L3.7399 27.7549
" />
<path d="M4.5764 27.5930
L4.3066 27.5930
" />
<path d="M4.3066 27.5930
L4.2796 27.8629
" />
<path d="M4.2796 27.8629
L4.3066 27.8359
" />
<path d="M4.3066 27.8359
L4.3606 27.8089
" />
<path d="M4.3606 27.8089
L4.4955 27.8089
" />
<path d="M4.4955 27.8089
L4.5494 27.8359
" />
<path d="M4.5494 27.8359
L4.5764 27.8629
" />
<path d="M4.5764 27.8629
L4.6034 27.9168
" />
<path d="M4.6034 27.9168
L4.6034 28.0518
" />
<path d="M4.6034 28.0518
L4.5764 28.1057
" />
<path d="M4.5764 28.1057
L4.5494 28.1327
" />
<path d="M4.5494 28.1327
L4.4955 28.1597
" />
<path d="M4.4955 28.1597
L4.3606 28.1597
" />
<path d="M4.3606 28.1597
L4.3066 28.1327
" />
<path d="M4.3066 28.1327
L4.2796 28.1057
" />
</g></g>
<g style="fill:none; 
stroke:#585D84; stroke-width:0.0212; stroke-opacity:1; 
stroke-linecap:round; stroke-linejoin:round;">
<path d="M3.3217 27.9000
L3.3217 27.9000
" />
<path d="M3.3217 27.9000 A0.8500 0.8500 0.0 0 0 5.0217 27.9000" />
<path d="M5.0217 27.9000
L5.0217 27.9000
" />
<path d="M5.0217 27.9000 A0.8500 0.8500 0.0 0 0 3.3217 27.9000" />
</g>
<g style="fill:none; 
stroke:#585D84; stroke-width:0.0472; stroke-opacity:1; 
stroke-linecap:round; stroke-linejoin:round;">
<text x="4.1717" y="25.6433"
textLength="1.1077" font-size="0.7556" lengthAdjust="spacingAndGlyphs"
text-anchor="middle" opacity="0" stroke-opacity="0">16</text>
<g class="stroked-text"><desc>16</desc>
<path d="M4.0637 25.6197
L3.7399 25.6197
" />
<path d="M3.9018 25.6197
L3.9018 25.0530
" />
<path d="M3.9018 25.0530
L3.8479 25.1340
" />
<path d="M3.8479 25.1340
L3.7939 25.1879
" />
<path d="M3.7939 25.1879
L3.7399 25.2149
" />
<path d="M4.5494 25.0530
L4.4415 25.0530
" />
<path d="M4.4415 25.0530
L4.3875 25.0800
" />
<path d="M4.3875 25.0800
L4.3606 25.1070
" />
<path d="M4.3606 25.1070
L4.3066 25.1879
" />
<path d="M4.3066 25.1879
L4.2796 25.2959
" />
<path d="M4.2796 25.2959
L4.2796 25.5118
" />
<path d="M4.2796 25.5118
L4.3066 25.5657
" />
<path d="M4.3066 25.5657
L4.3336 25.5927
" />
<path d="M4.3336 25.5927
L4.3875 25.6197
" />
<path d="M4.3875 25.6197
L4.4955 25.6197
" />
<path d="M4.4955 25.6197
L4.5494 25.5927
" />
<path d="M4.5494 25.5927
L4.5764 25.5657
" />
<path d="M4.5764 25.5657
L4.6034 25.5118
" />
<path d="M4.6034 25.5118
L4.6034 25.3768
" />
<path d="M4.6034 25.3768
L4.5764 25.3229
" />
<path d="M4.5764 25.3229
L4.5494 25.2959
" />
<path d="M4.5494 25.2959
L4.4955 25.2689
" />
<path d="M4.4955 25.2689
L4.3875 25.2689
" />
<path d="M4.3875 25.2689
L4.3336 25.2959
" />
<path d="M4.3336 25.2959
L4.3066 25.3229
" />
<path d="M4.3066 25.3229
L4.2796 25.3768
" />
</g></g>
<g style="fill:none; 
stroke:#585D84; stroke-width:0.0212; stroke-opacity:1; 
stroke-linecap:round; stroke-linejoin:round;">
<path d="M3.3217 25.3600
L3.3217 25.3600
" />
<path d="M3.3217 25.3600 A0.8500 0.8500 0.0 0 0 5.0217 25.3600" />
<path d="M5.0217 25.3600
L5.0217 25.3600
" />
<path d="M5.0217 25.3600 A0.8500 0.8500 0.0 0 0 3.3217 25.3600" />
</g>
<g style="fill:none; 
stroke:#585D84; stroke-width:0.0472; stroke-opacity:1; 
stroke-linecap:round; stroke-linejoin:round;">
<text x="4.1717" y="23.1033"
textLength="1.1077" font-size="0.7556" lengthAdjust="spacingAndGlyphs"
text-anchor="middle" opacity="0" stroke-opacity="0">17</text>
<g class="stroked-text"><desc>17</desc>
<path d="M4.0637 23.0797
L3.7399 23.0797
" />
<path d="M3.9018 23.0797
L3.9018 22.5130
" />
<path d="M3.9018 22.5130
L3.8479 22.5940
" />
<path d="M3.8479 22.5940
L3.7939 22.6479
" />
<path d="M3.7939 22.6479
L3.7399 22.6749
" />
<path d="M4.2526 22.5130
L4.6304 22.5130
" />
<path d="M4.6304 22.5130
L4.3875 23.0797
" />
</g></g>
<g style="fill:none; 
stroke:#585D84; stroke-width:0.0212; stroke-opacity:1; 
stroke-linecap:round; stroke-linejoin:round;">
<path d="M3.3217 22.8200
L3.3217 22.8200
" />
<path d="M3.3217 22.8200 A0.8500 0.8500 0.0 0 0 5.0217 22.8200" />
<path d="M5.0217 22.8200
L5.0217 22.8200
" />
<path d="M5.0217 22.8200 A0.8500 0.8500 0.0 0 0 3.3217 22.8200" />
</g>
<g style="fill:none; 
stroke:#585D84; stroke-width:0.0472; stroke-opacity:1; 
stroke-linecap:round; stroke-linejoin:round;">
<text x="4.1717" y="20.5633"
textLength="1.1077" font-size="0.7556" lengthAdjust="spacingAndGlyphs"
text-anchor="middle" opacity="0" stroke-opacity="0">18</text>
<g class="stroked-text"><desc>18</desc>
<path d="M4.0637 20.5397
L3.7399 20.5397
" />
<path d="M3.9018 20.5397
L3.9018 19.9730
" />
<path d="M3.9018 19.9730
L3.8479 20.0540
" />
<path d="M3.8479 20.0540
L3.7939 20.1079
" />
<path d="M3.7939 20.1079
L3.7399 20.1349
" />
<path d="M4.3875 20.2159
L4.3336 20.1889
" />
<path d="M4.3336 20.1889
L4.3066 20.1619
" />
<path d="M4.3066 20.1619
L4.2796 20.1079
" />
<path d="M4.2796 20.1079
L4.2796 20.0810
" />
<path d="M4.2796 20.0810
L4.3066 20.0270
" />
<path d="M4.3066 20.0270
L4.3336 20.0000
" />
<path d="M4.3336 20.0000
L4.3875 19.9730
" />
<path d="M4.3875 19.9730
L4.4955 19.9730
" />
<path d="M4.4955 19.9730
L4.5494 20.0000
" />
<path d="M4.5494 20.0000
L4.5764 20.0270
" />
<path d="M4.5764 20.0270
L4.6034 20.0810
" />
<path d="M4.6034 20.0810
L4.6034 20.1079
" />
<path d="M4.6034 20.1079
L4.5764 20.1619
" />
<path d="M4.5764 20.1619
L4.5494 20.1889
" />
<path d="M4.5494 20.1889
L4.4955 20.2159
" />
<path d="M4.4955 20.2159
L4.3875 20.2159
" />
<path d="M4.3875 20.2159
L4.3336 20.2429
" />
<path d="M4.3336 20.2429
L4.3066 20.2699
" />
<path d="M4.3066 20.2699
L4.2796 20.3238
" />
<path d="M4.2796 20.3238
L4.2796 20.4318
" />
<path d="M4.2796 20.4318
L4.3066 20.4857
" />
<path d="M4.3066 20.4857
L4.3336 20.5127
" />
<path d="M4.3336 20.5127
L4.3875 20.5397
" />
<path d="M4.3875 20.5397
L4.4955 20.5397
" />
<path d="M4.4955 20.5397
L4.5494 20.5127
" />
<path d="M4.5494 20.5127
L4.5764 20.4857
" />
<path d="M4.5764 20.4857
L4.6034 20.4318
" />
<path d="M4.6034 20.4318
L4.6034 20.3238
" />
<path d="M4.6034 20.3238
L4.5764 20.2699
" />
<path d="M4.5764 20.2699
L4.5494 20.2429
" />
<path d="M4.5494 20.2429
L4.4955 20.2159
" />
</g></g>
<g style="fill:none; 
stroke:#585D84; stroke-width:0.0212; stroke-opacity:1; 
stroke-linecap:round; stroke-linejoin:round;">
<path d="M3.3217 20.2800
L3.3217 20.2800
" />
<path d="M3.3217 20.2800 A0.8500 0.8500 0.0 0 0 5.0217 20.2800" />
<path d="M5.0217 20.2800
L5.0217 20.2800
" />
<path d="M5.0217 20.2800 A0.8500 0.8500 0.0 0 0 3.3217 20.2800" />
</g>
<g style="fill:none; 
stroke:#585D84; stroke-width:0.0472; stroke-opacity:1; 
stroke-linecap:round; stroke-linejoin:round;">
<text x="4.1717" y="18.0233"
textLength="1.1077" font-size="0.7556" lengthAdjust="spacingAndGlyphs"
text-anchor="middle" opacity="0" stroke-opacity="0">19</text>
<g class="stroked-text"><desc>19</desc>
<path d="M4.0637 17.9997
L3.7399 17.9997
" />
<path d="M3.9018 17.9997
L3.9018 17.4330
" />
<path d="M3.9018 17.4330
L3.8479 17.5140
" />
<path d="M3.8479 17.5140
L3.7939 17.5679
" />
<path d="M3.7939 17.5679
L3.7399 17.5949
" />
<path d="M4.3336 17.9997
L4.4415 17.9997
" />
<path d="M4.4415 17.9997
L4.4955 17.9727
" />
<path d="M4.4955 17.9727
L4.5225 17.9457
" />
<path d="M4.5225 17.9457
L4.5764 17.8648
" />
<path d="M4.5764 17.8648
L4.6034 17.7568
" />
<path d="M4.6034 17.7568
L4.6034 17.5410
" />
<path d="M4.6034 17.5410
L4.5764 17.4870
" />
<path d="M4.5764 17.4870
L4.5494 17.4600
" />
<path d="M4.5494 17.4600
L4.4955 17.4330
" />
<path d="M4.4955 17.4330
L4.3875 17.4330
" />
<path d="M4.3875 17.4330
L4.3336 17.4600
" />
<path d="M4.3336 17.4600
L4.3066 17.4870
" />
<path d="M4.3066 17.4870
L4.2796 17.5410
" />
<path d="M4.2796 17.5410
L4.2796 17.6759
" />
<path d="M4.2796 17.6759
L4.3066 17.7299
" />
<path d="M4.3066 17.7299
L4.3336 17.7568
" />
<path d="M4.3336 17.7568
L4.3875 17.7838
" />
<path d="M4.3875 17.7838
L4.4955 17.7838
" />
<path d="M4.4955 17.7838
L4.5494 17.7568
" />
<path d="M4.5494 17.7568
L4.5764 17.7299
" />
<path d="M4.5764 17.7299
L4.6034 17.6759
" />
</g></g>
<g style="fill:none; 
stroke:#585D84; stroke-width:0.0212; stroke-opacity:1; 
stroke-linecap:round; stroke-linejoin:round;">
<path d="M3.3217 17.7400
L3.3217 17.7400
" />
<path d="M3.3217 17.7400 A0.8500 0.8500 0.0 0 0 5.0217 17.7400" />
<path d="M5.0217 17.7400
L5.0217 17.7400
" />
<path d="M5.0217 17.7400 A0.8500 0.8500 0.0 0 0 3.3217 17.7400" />
</g>
<g style="fill:none; 
stroke:#585D84; stroke-width:0.0472; stroke-opacity:1; 
stroke-linecap:round; stroke-linejoin:round;">
<text x="4.1717" y="15.4833"
textLength="1.1077" font-size="0.7556" lengthAdjust="spacingAndGlyphs"
text-anchor="middle" opacity="0" stroke-opacity="0">20</text>
<g class="stroked-text"><desc>20</desc>
<path d="M3.7399 14.9470
L3.7669 14.9200
" />
<path d="M3.7669 14.9200
L3.8209 14.8930
" />
<path d="M3.8209 14.8930
L3.9558 14.8930
" />
<path d="M3.9558 14.8930
L4.0098 14.9200
" />
<path d="M4.0098 14.9200
L4.0367 14.9470
" />
<path d="M4.0367 14.9470
L4.0637 15.0010
" />
<path d="M4.0637 15.0010
L4.0637 15.0549
" />
<path d="M4.0637 15.0549
L4.0367 15.1359
" />
<path d="M4.0367 15.1359
L3.7129 15.4597
" />
<path d="M3.7129 15.4597
L4.0637 15.4597
" />
<path d="M4.4145 14.8930
L4.4685 14.8930
" />
<path d="M4.4685 14.8930
L4.5225 14.9200
" />
<path d="M4.5225 14.9200
L4.5494 14.9470
" />
<path d="M4.5494 14.9470
L4.5764 15.0010
" />
<path d="M4.5764 15.0010
L4.6034 15.1089
" />
<path d="M4.6034 15.1089
L4.6034 15.2438
" />
<path d="M4.6034 15.2438
L4.5764 15.3518
" />
<path d="M4.5764 15.3518
L4.5494 15.4057
" />
<path d="M4.5494 15.4057
L4.5225 15.4327
" />
<path d="M4.5225 15.4327
L4.4685 15.4597
" />
<path d="M4.4685 15.4597
L4.4145 15.4597
" />
<path d="M4.4145 15.4597
L4.3606 15.4327
" />
<path d="M4.3606 15.4327
L4.3336 15.4057
" />
<path d="M4.3336 15.4057
L4.3066 15.3518
" />
<path d="M4.3066 15.3518
L4.2796 15.2438
" />
<path d="M4.2796 15.2438
L4.2796 15.1089
" />
<path d="M4.2796 15.1089
L4.3066 15.0010
" />
<path d="M4.3066 15.0010
L4.3336 14.9470
" />
<path d="M4.3336 14.9470
L4.3606 14.9200
" />
<path d="M4.3606 14.9200
L4.4145 14.8930
" />
</g></g>
<g style="fill:none; 
stroke:#585D84; stroke-width:0.0212; stroke-opacity:1; 
stroke-linecap:round; stroke-linejoin:round;">
<path d="M3.3217 15.2000
L3.3217 15.2000
" />
<path d="M3.3217 15.2000 A0.8500 0.8500 0.0 0 0 5.0217 15.2000" />
<path d="M5.0217 15.2000
L5.0217 15.2000
" />
<path d="M5.0217 15.2000 A0.8500 0.8500 0.0 0 0 3.3217 15.2000" />
</g>
<g style="fill:none; 
stroke:#585D84; stroke-width:0.0472; stroke-opacity:1; 
stroke-linecap:round; stroke-linejoin:round;">
<text x="4.1717" y="12.9433"
textLength="1.1077" font-size="0.7556" lengthAdjust="spacingAndGlyphs"
text-anchor="middle" opacity="0" stroke-opacity="0">21</text>
<g class="stroked-text"><desc>21</desc>
<path d="M3.7399 12.4070
L3.7669 12.3800
" />
<path d="M3.7669 12.3800
L3.8209 12.3530
" />
<path d="M3.8209 12.3530
L3.9558 12.3530
" />
<path d="M3.9558 12.3530
L4.0098 12.3800
" />
<path d="M4.0098 12.3800
L4.0367 12.4070
" />
<path d="M4.0367 12.4070
L4.0637 12.4610
" />
<path d="M4.0637 12.4610
L4.0637 12.5149
" />
<path d="M4.0637 12.5149
L4.0367 12.5959
" />
<path d="M4.0367 12.5959
L3.7129 12.9197
" />
<path d="M3.7129 12.9197
L4.0637 12.9197
" />
<path d="M4.6034 12.9197
L4.2796 12.9197
" />
<path d="M4.4415 12.9197
L4.4415 12.3530
" />
<path d="M4.4415 12.3530
L4.3875 12.4340
" />
<path d="M4.3875 12.4340
L4.3336 12.4879
" />
<path d="M4.3336 12.4879
L4.2796 12.5149
" />
</g></g>
<g style="fill:none; 
stroke:#585D84; stroke-width:0.0212; stroke-opacity:1; 
stroke-linecap:round; stroke-linejoin:round;">
<path d="M3.3217 12.6600
L3.3217 12.6600
" />
<path d="M3.3217 12.6600 A0.8500 0.8500 0.0 0 0 5.0217 12.6600" />
<path d="M5.0217 12.6600
L5.0217 12.6600
" />
<path d="M5.0217 12.6600 A0.8500 0.8500 0.0 0 0 3.3217 12.6600" />
</g>
<g style="fill:none; 
stroke:#585D84; stroke-width:0.0472; stroke-opacity:1; 
stroke-linecap:round; stroke-linejoin:round;">
<text x="4.1717" y="10.4033"
textLength="1.1077" font-size="0.7556" lengthAdjust="spacingAndGlyphs"
text-anchor="middle" opacity="0" stroke-opacity="0">22</text>
<g class="stroked-text"><desc>22</desc>
<path d="M3.7399 9.8670
L3.7669 9.8400
" />
<path d="M3.7669 9.8400
L3.8209 9.8130
" />
<path d="M3.8209 9.8130
L3.9558 9.8130
" />
<path d="M3.9558 9.8130
L4.0098 9.8400
" />
<path d="M4.0098 9.8400
L4.0367 9.8670
" />
<path d="M4.0367 9.8670
L4.0637 9.9210
" />
<path d="M4.0637 9.9210
L4.0637 9.9749
" />
<path d="M4.0637 9.9749
L4.0367 10.0559
" />
<path d="M4.0367 10.0559
L3.7129 10.3797
" />
<path d="M3.7129 10.3797
L4.0637 10.3797
" />
<path d="M4.2796 9.8670
L4.3066 9.8400
" />
<path d="M4.3066 9.8400
L4.3606 9.8130
" />
<path d="M4.3606 9.8130
L4.4955 9.8130
" />
<path d="M4.4955 9.8130
L4.5494 9.8400
" />
<path d="M4.5494 9.8400
L4.5764 9.8670
" />
<path d="M4.5764 9.8670
L4.6034 9.9210
" />
<path d="M4.6034 9.9210
L4.6034 9.9749
" />
<path d="M4.6034 9.9749
L4.5764 10.0559
" />
<path d="M4.5764 10.0559
L4.2526 10.3797
" />
<path d="M4.2526 10.3797
L4.6034 10.3797
" />
</g></g>
<g style="fill:none; 
stroke:#585D84; stroke-width:0.0212; stroke-opacity:1; 
stroke-linecap:round; stroke-linejoin:round;">
<path d="M3.3217 10.1200
L3.3217 10.1200
" />
<path d="M3.3217 10.1200 A0.8500 0.8500 0.0 0 0 5.0217 10.1200" />
<path d="M5.0217 10.1200
L5.0217 10.1200
" />
<path d="M5.0217 10.1200 A0.8500 0.8500 0.0 0 0 3.3217 10.1200" />
</g>
<g style="fill:none; 
stroke:#585D84; stroke-width:0.0472; stroke-opacity:1; 
stroke-linecap:round; stroke-linejoin:round;">
<text x="4.1717" y="7.8633"
textLength="1.1077" font-size="0.7556" lengthAdjust="spacingAndGlyphs"
text-anchor="middle" opacity="0" stroke-opacity="0">23</text>
<g class="stroked-text"><desc>23</desc>
<path d="M3.7399 7.3270
L3.7669 7.3000
" />
<path d="M3.7669 7.3000
L3.8209 7.2730
" />
<path d="M3.8209 7.2730
L3.9558 7.2730
" />
<path d="M3.9558 7.2730
L4.0098 7.3000
" />
<path d="M4.0098 7.3000
L4.0367 7.3270
" />
<path d="M4.0367 7.3270
L4.0637 7.3810
" />
<path d="M4.0637 7.3810
L4.0637 7.4349
" />
<path d="M4.0637 7.4349
L4.0367 7.5159
" />
<path d="M4.0367 7.5159
L3.7129 7.8397
" />
<path d="M3.7129 7.8397
L4.0637 7.8397
" />
<path d="M4.2526 7.2730
L4.6034 7.2730
" />
<path d="M4.6034 7.2730
L4.4145 7.4889
" />
<path d="M4.4145 7.4889
L4.4955 7.4889
" />
<path d="M4.4955 7.4889
L4.5494 7.5159
" />
<path d="M4.5494 7.5159
L4.5764 7.5429
" />
<path d="M4.5764 7.5429
L4.6034 7.5968
" />
<path d="M4.6034 7.5968
L4.6034 7.7318
" />
<path d="M4.6034 7.7318
L4.5764 7.7857
" />
<path d="M4.5764 7.7857
L4.5494 7.8127
" />
<path d="M4.5494 7.8127
L4.4955 7.8397
" />
<path d="M4.4955 7.8397
L4.3336 7.8397
" />
<path d="M4.3336 7.8397
L4.2796 7.8127
" />
<path d="M4.2796 7.8127
L4.2526 7.7857
" />
</g></g>
<g style="fill:none; 
stroke:#585D84; stroke-width:0.0212; stroke-opacity:1; 
stroke-linecap:round; stroke-linejoin:round;">
<path d="M3.3217 7.5800
L3.3217 7.5800
" />
<path d="M3.3217 7.5800 A0.8500 0.8500 0.0 0 0 5.0217 7.5800" />
<path d="M5.0217 7.5800
L5.0217 7.5800
" />
<path d="M5.0217 7.5800 A0.8500 0.8500 0.0 0 0 3.3217 7.5800" />
</g>
<g style="fill:none; 
stroke:#585D84; stroke-width:0.0472; stroke-opacity:1; 
stroke-linecap:round; stroke-linejoin:round;">
<text x="4.1717" y="5.3233"
textLength="1.1077" font-size="0.7556" lengthAdjust="spacingAndGlyphs"
text-anchor="middle" opacity="0" stroke-opacity="0">24</text>
<g class="stroked-text"><desc>24</desc>
<path d="M3.7399 4.7870
L3.7669 4.7600
" />
<path d="M3.7669 4.7600
L3.8209 4.7330
" />
<path d="M3.8209 4.7330
L3.9558 4.7330
" />
<path d="M3.9558 4.7330
L4.0098 4.7600
" />
<path d="M4.0098 4.7600
L4.0367 4.7870
" />
<path d="M4.0367 4.7870
L4.0637 4.8410
" />
<path d="M4.0637 4.8410
L4.0637 4.8949
" />
<path d="M4.0637 4.8949
L4.0367 4.9759
" />
<path d="M4.0367 4.9759
L3.7129 5.2997
" />
<path d="M3.7129 5.2997
L4.0637 5.2997
" />
<path d="M4.5494 4.9219
L4.5494 5.2997
" />
<path d="M4.4145 4.7060
L4.2796 5.1108
" />
<path d="M4.2796 5.1108
L4.6304 5.1108
" />
</g></g>
<g style="fill:none; 
stroke:#585D84; stroke-width:0.0212; stroke-opacity:1; 
stroke-linecap:round; stroke-linejoin:round;">
<path d="M3.3217 5.0400
L3.3217 5.0400
" />
<path d="M3.3217 5.0400 A0.8500 0.8500 0.0 0 0 5.0217 5.0400" />
<path d="M5.0217 5.0400
L5.0217 5.0400
" />
<path d="M5.0217 5.0400 A0.8500 0.8500 0.0 0 0 3.3217 5.0400" />
</g> 
</svg>
