<?xml version="1.0" standalone="no"?>
 <!DOCTYPE svg PUBLIC "-//W3C//DTD SVG 1.1//EN" 
 "http://www.w3.org/Graphics/SVG/1.1/DTD/svg11.dtd"> 
<svg
  xmlns:svg="http://www.w3.org/2000/svg"
  xmlns="http://www.w3.org/2000/svg"
  xmlns:xlink="http://www.w3.org/1999/xlink"
  version="1.1"
  width="22.8092mm" height="36.2966mm" viewBox="0.0000 0.0000 22.8092 36.2966">
<title>SVG Image created as MCU_ProMicro_DIP-24_Socket.svg date 2025/05/12 02:45:50 </title>
  <desc>Image generated by PCBNEW </desc>
<g style="fill:#000000; fill-opacity:1.0000;stroke:#000000; stroke-opacity:1.0000;
stroke-linecap:round; stroke-linejoin:round;"
 transform="translate(0 0) scale(1 1)">
</g>
<g style="fill:none; 
stroke:#F2EDA1; stroke-width:0.1500; stroke-opacity:1; 
stroke-linecap:round; stroke-linejoin:round;">
<text x="11.4107" y="8.0900"
textLength="4.5357" font-size="1.3333" lengthAdjust="spacingAndGlyphs"
text-anchor="middle" opacity="0" stroke-opacity="0">REF**</text>
<g class="stroked-text"><desc>REF**</desc>
<path d="M10.0774 8.0448
L9.7440 7.5686
" />
<path d="M9.5060 8.0448
L9.5060 7.0448
" />
<path d="M9.5060 7.0448
L9.8869 7.0448
" />
<path d="M9.8869 7.0448
L9.9821 7.0924
" />
<path d="M9.9821 7.0924
L10.0298 7.1401
" />
<path d="M10.0298 7.1401
L10.0774 7.2353
" />
<path d="M10.0774 7.2353
L10.0774 7.3782
" />
<path d="M10.0774 7.3782
L10.0298 7.4734
" />
<path d="M10.0298 7.4734
L9.9821 7.5210
" />
<path d="M9.9821 7.5210
L9.8869 7.5686
" />
<path d="M9.8869 7.5686
L9.5060 7.5686
" />
<path d="M10.5060 7.5210
L10.8393 7.5210
" />
<path d="M10.9821 8.0448
L10.5060 8.0448
" />
<path d="M10.5060 8.0448
L10.5060 7.0448
" />
<path d="M10.5060 7.0448
L10.9821 7.0448
" />
<path d="M11.7440 7.5210
L11.4107 7.5210
" />
<path d="M11.4107 8.0448
L11.4107 7.0448
" />
<path d="M11.4107 7.0448
L11.8869 7.0448
" />
<path d="M12.4107 7.0448
L12.4107 7.2829
" />
<path d="M12.1726 7.1877
L12.4107 7.2829
" />
<path d="M12.4107 7.2829
L12.6488 7.1877
" />
<path d="M12.2679 7.4734
L12.4107 7.2829
" />
<path d="M12.4107 7.2829
L12.5536 7.4734
" />
<path d="M13.1726 7.0448
L13.1726 7.2829
" />
<path d="M12.9345 7.1877
L13.1726 7.2829
" />
<path d="M13.1726 7.2829
L13.4107 7.1877
" />
<path d="M13.0298 7.4734
L13.1726 7.2829
" />
<path d="M13.1726 7.2829
L13.3155 7.4734
" />
</g><path style="fill:none; 
stroke:#F2EDA1; stroke-width:0.1200; stroke-opacity:1; 
stroke-linecap:round; stroke-linejoin:round;fill:none"
d="M 2.4207,3.6800
20.4007,3.6800
20.4007,34.3600
2.4207,34.3600
Z" /> 
<path style="fill:none; 
stroke:#F2EDA1; stroke-width:0.1200; stroke-opacity:1; 
stroke-linecap:round; stroke-linejoin:round;fill:none"
d="M 5.1607,3.6800
2.4207,3.6800
2.4207,34.3600
5.1607,34.3600
Z" /> 
<path style="fill:none; 
stroke:#F2EDA1; stroke-width:0.1200; stroke-opacity:1; 
stroke-linecap:round; stroke-linejoin:round;fill:none"
d="M 20.4007,3.6800
17.6607,3.6800
17.6607,34.3600
20.4007,34.3600
Z" /> 
<path style="fill:#4D7FC4; fill-opacity:1.0000; stroke:none;fill-rule:evenodd;"
d="M 3.1907,4.3300
3.2044,4.2611
3.2434,4.2027
3.3018,4.1637
3.3707,4.1500
4.2107,4.1500
4.2796,4.1637
4.3380,4.2027
4.3770,4.2611
4.3907,4.3300
4.3907,5.7700
4.3770,5.8389
4.3380,5.8973
4.2796,5.9363
4.2107,5.9500
3.3707,5.9500
3.3018,5.9363
3.2434,5.8973
3.2044,5.8389
3.1907,5.7700
Z" /> 
</g>
<g style="fill:none; 
stroke:#4D7FC4; stroke-width:1.2000; stroke-opacity:1; 
stroke-linecap:round; stroke-linejoin:round;">
<path d="M3.7907 7.2900
L3.7907 7.8900
" />
<path d="M3.7907 9.8300
L3.7907 10.4300
" />
<path d="M3.7907 12.3700
L3.7907 12.9700
" />
<path d="M3.7907 14.9100
L3.7907 15.5100
" />
<path d="M3.7907 17.4500
L3.7907 18.0500
" />
<path d="M3.7907 19.9900
L3.7907 20.5900
" />
<path d="M3.7907 22.5300
L3.7907 23.1300
" />
<path d="M3.7907 25.0700
L3.7907 25.6700
" />
<path d="M3.7907 27.6100
L3.7907 28.2100
" />
<path d="M3.7907 30.1500
L3.7907 30.7500
" />
<path d="M3.7907 32.6900
L3.7907 33.2900
" />
<path d="M19.0307 32.6900
L19.0307 33.2900
" />
<path d="M19.0307 30.1500
L19.0307 30.7500
" />
<path d="M19.0307 27.6100
L19.0307 28.2100
" />
<path d="M19.0307 25.0700
L19.0307 25.6700
" />
<path d="M19.0307 22.5300
L19.0307 23.1300
" />
<path d="M19.0307 19.9900
L19.0307 20.5900
" />
<path d="M19.0307 17.4500
L19.0307 18.0500
" />
<path d="M19.0307 14.9100
L19.0307 15.5100
" />
<path d="M19.0307 12.3700
L19.0307 12.9700
" />
<path d="M19.0307 9.8300
L19.0307 10.4300
" />
<path d="M19.0307 7.2900
L19.0307 7.8900
" />
<path d="M19.0307 4.7500
L19.0307 5.3500
" />
<path style="fill:#C83434; fill-opacity:1.0000; stroke:none;fill-rule:evenodd;"
d="M 3.1907,4.3300
3.2044,4.2611
3.2434,4.2027
3.3018,4.1637
3.3707,4.1500
4.2107,4.1500
4.2796,4.1637
4.3380,4.2027
4.3770,4.2611
4.3907,4.3300
4.3907,5.7700
4.3770,5.8389
4.3380,5.8973
4.2796,5.9363
4.2107,5.9500
3.3707,5.9500
3.3018,5.9363
3.2434,5.8973
3.2044,5.8389
3.1907,5.7700
Z" /> 
</g>
<g style="fill:none; 
stroke:#C83434; stroke-width:1.2000; stroke-opacity:1; 
stroke-linecap:round; stroke-linejoin:round;">
<path d="M3.7907 7.2900
L3.7907 7.8900
" />
<path d="M3.7907 9.8300
L3.7907 10.4300
" />
<path d="M3.7907 12.3700
L3.7907 12.9700
" />
<path d="M3.7907 14.9100
L3.7907 15.5100
" />
<path d="M3.7907 17.4500
L3.7907 18.0500
" />
<path d="M3.7907 19.9900
L3.7907 20.5900
" />
<path d="M3.7907 22.5300
L3.7907 23.1300
" />
<path d="M3.7907 25.0700
L3.7907 25.6700
" />
<path d="M3.7907 27.6100
L3.7907 28.2100
" />
<path d="M3.7907 30.1500
L3.7907 30.7500
" />
<path d="M3.7907 32.6900
L3.7907 33.2900
" />
<path d="M19.0307 32.6900
L19.0307 33.2900
" />
<path d="M19.0307 30.1500
L19.0307 30.7500
" />
<path d="M19.0307 27.6100
L19.0307 28.2100
" />
<path d="M19.0307 25.0700
L19.0307 25.6700
" />
<path d="M19.0307 22.5300
L19.0307 23.1300
" />
<path d="M19.0307 19.9900
L19.0307 20.5900
" />
<path d="M19.0307 17.4500
L19.0307 18.0500
" />
<path d="M19.0307 14.9100
L19.0307 15.5100
" />
<path d="M19.0307 12.3700
L19.0307 12.9700
" />
<path d="M19.0307 9.8300
L19.0307 10.4300
" />
<path d="M19.0307 7.2900
L19.0307 7.8900
" />
<path d="M19.0307 4.7500
L19.0307 5.3500
" />
</g>
<g style="fill:none; 
stroke:#585D84; stroke-width:0.0500; stroke-opacity:1; 
stroke-linecap:round; stroke-linejoin:round;">
<g transform="rotate(-90.000000 3.7907 5.0500)">
<text x="3.7907" y="5.3500"
textLength="0.6014" font-size="0.8000" lengthAdjust="spacingAndGlyphs"
text-anchor="middle" opacity="0" stroke-opacity="0">1</text>
</g>
<g class="stroked-text"><desc>1</desc>
<path d="M4.0657 4.8786
L4.0657 5.2214
" />
<path d="M4.0657 5.0500
L3.4657 5.0500
" />
<path d="M3.4657 5.0500
L3.5514 5.1071
" />
<path d="M3.5514 5.1071
L3.6085 5.1643
" />
<path d="M3.6085 5.1643
L3.6371 5.2214
" />
</g><path style="fill:none; 
stroke:#585D84; stroke-width:0.0212; stroke-opacity:1; 
stroke-linecap:round; stroke-linejoin:round;fill:none"
d="M 3.1907,4.3300
3.2044,4.2611
3.2434,4.2027
3.3018,4.1637
3.3707,4.1500
4.2107,4.1500
4.2796,4.1637
4.3380,4.2027
4.3770,4.2611
4.3907,4.3300
4.3907,5.7700
4.3770,5.8389
4.3380,5.8973
4.2796,5.9363
4.2107,5.9500
3.3707,5.9500
3.3018,5.9363
3.2434,5.8973
3.2044,5.8389
3.1907,5.7700
Z" /> 
</g>
<g style="fill:none; 
stroke:#585D84; stroke-width:0.0500; stroke-opacity:1; 
stroke-linecap:round; stroke-linejoin:round;">
<g transform="rotate(-90.000000 3.7907 7.5900)">
<text x="3.7907" y="7.8900"
textLength="0.6014" font-size="0.8000" lengthAdjust="spacingAndGlyphs"
text-anchor="middle" opacity="0" stroke-opacity="0">2</text>
</g>
<g class="stroked-text"><desc>2</desc>
<path d="M3.5228 7.7614
L3.4943 7.7329
" />
<path d="M3.4943 7.7329
L3.4657 7.6757
" />
<path d="M3.4657 7.6757
L3.4657 7.5329
" />
<path d="M3.4657 7.5329
L3.4943 7.4757
" />
<path d="M3.4943 7.4757
L3.5228 7.4471
" />
<path d="M3.5228 7.4471
L3.5800 7.4186
" />
<path d="M3.5800 7.4186
L3.6371 7.4186
" />
<path d="M3.6371 7.4186
L3.7228 7.4471
" />
<path d="M3.7228 7.4471
L4.0657 7.7900
" />
<path d="M4.0657 7.7900
L4.0657 7.4186
" />
</g></g>
<g style="fill:none; 
stroke:#585D84; stroke-width:0.0212; stroke-opacity:1; 
stroke-linecap:round; stroke-linejoin:round;">
<path d="M3.1907 7.2900
L3.1907 7.8900
" />
<path d="M3.1907 7.8900 A0.6000 0.6000 0.0 0 0 4.3907 7.8900" />
<path d="M4.3907 7.8900
L4.3907 7.2900
" />
<path d="M4.3907 7.2900 A0.6000 0.6000 0.0 0 0 3.1907 7.2900" />
</g>
<g style="fill:none; 
stroke:#585D84; stroke-width:0.0500; stroke-opacity:1; 
stroke-linecap:round; stroke-linejoin:round;">
<g transform="rotate(-90.000000 3.7907 10.1300)">
<text x="3.7907" y="10.4300"
textLength="0.6014" font-size="0.8000" lengthAdjust="spacingAndGlyphs"
text-anchor="middle" opacity="0" stroke-opacity="0">3</text>
</g>
<g class="stroked-text"><desc>3</desc>
<path d="M3.4657 10.3300
L3.4657 9.9586
" />
<path d="M3.4657 9.9586
L3.6943 10.1586
" />
<path d="M3.6943 10.1586
L3.6943 10.0729
" />
<path d="M3.6943 10.0729
L3.7228 10.0157
" />
<path d="M3.7228 10.0157
L3.7514 9.9871
" />
<path d="M3.7514 9.9871
L3.8085 9.9586
" />
<path d="M3.8085 9.9586
L3.9514 9.9586
" />
<path d="M3.9514 9.9586
L4.0085 9.9871
" />
<path d="M4.0085 9.9871
L4.0371 10.0157
" />
<path d="M4.0371 10.0157
L4.0657 10.0729
" />
<path d="M4.0657 10.0729
L4.0657 10.2443
" />
<path d="M4.0657 10.2443
L4.0371 10.3014
" />
<path d="M4.0371 10.3014
L4.0085 10.3300
" />
</g></g>
<g style="fill:none; 
stroke:#585D84; stroke-width:0.0212; stroke-opacity:1; 
stroke-linecap:round; stroke-linejoin:round;">
<path d="M3.1907 9.8300
L3.1907 10.4300
" />
<path d="M3.1907 10.4300 A0.6000 0.6000 0.0 0 0 4.3907 10.4300" />
<path d="M4.3907 10.4300
L4.3907 9.8300
" />
<path d="M4.3907 9.8300 A0.6000 0.6000 0.0 0 0 3.1907 9.8300" />
</g>
<g style="fill:none; 
stroke:#585D84; stroke-width:0.0500; stroke-opacity:1; 
stroke-linecap:round; stroke-linejoin:round;">
<g transform="rotate(-90.000000 3.7907 12.6700)">
<text x="3.7907" y="12.9700"
textLength="0.6014" font-size="0.8000" lengthAdjust="spacingAndGlyphs"
text-anchor="middle" opacity="0" stroke-opacity="0">4</text>
</g>
<g class="stroked-text"><desc>4</desc>
<path d="M3.6657 12.5557
L4.0657 12.5557
" />
<path d="M3.4371 12.6986
L3.8657 12.8414
" />
<path d="M3.8657 12.8414
L3.8657 12.4700
" />
</g></g>
<g style="fill:none; 
stroke:#585D84; stroke-width:0.0212; stroke-opacity:1; 
stroke-linecap:round; stroke-linejoin:round;">
<path d="M3.1907 12.3700
L3.1907 12.9700
" />
<path d="M3.1907 12.9700 A0.6000 0.6000 0.0 0 0 4.3907 12.9700" />
<path d="M4.3907 12.9700
L4.3907 12.3700
" />
<path d="M4.3907 12.3700 A0.6000 0.6000 0.0 0 0 3.1907 12.3700" />
</g>
<g style="fill:none; 
stroke:#585D84; stroke-width:0.0500; stroke-opacity:1; 
stroke-linecap:round; stroke-linejoin:round;">
<g transform="rotate(-90.000000 3.7907 15.2100)">
<text x="3.7907" y="15.5100"
textLength="0.6014" font-size="0.8000" lengthAdjust="spacingAndGlyphs"
text-anchor="middle" opacity="0" stroke-opacity="0">5</text>
</g>
<g class="stroked-text"><desc>5</desc>
<path d="M3.4657 15.0671
L3.4657 15.3529
" />
<path d="M3.4657 15.3529
L3.7514 15.3814
" />
<path d="M3.7514 15.3814
L3.7228 15.3529
" />
<path d="M3.7228 15.3529
L3.6943 15.2957
" />
<path d="M3.6943 15.2957
L3.6943 15.1529
" />
<path d="M3.6943 15.1529
L3.7228 15.0957
" />
<path d="M3.7228 15.0957
L3.7514 15.0671
" />
<path d="M3.7514 15.0671
L3.8085 15.0386
" />
<path d="M3.8085 15.0386
L3.9514 15.0386
" />
<path d="M3.9514 15.0386
L4.0085 15.0671
" />
<path d="M4.0085 15.0671
L4.0371 15.0957
" />
<path d="M4.0371 15.0957
L4.0657 15.1529
" />
<path d="M4.0657 15.1529
L4.0657 15.2957
" />
<path d="M4.0657 15.2957
L4.0371 15.3529
" />
<path d="M4.0371 15.3529
L4.0085 15.3814
" />
</g></g>
<g style="fill:none; 
stroke:#585D84; stroke-width:0.0212; stroke-opacity:1; 
stroke-linecap:round; stroke-linejoin:round;">
<path d="M3.1907 14.9100
L3.1907 15.5100
" />
<path d="M3.1907 15.5100 A0.6000 0.6000 0.0 0 0 4.3907 15.5100" />
<path d="M4.3907 15.5100
L4.3907 14.9100
" />
<path d="M4.3907 14.9100 A0.6000 0.6000 0.0 0 0 3.1907 14.9100" />
</g>
<g style="fill:none; 
stroke:#585D84; stroke-width:0.0500; stroke-opacity:1; 
stroke-linecap:round; stroke-linejoin:round;">
<g transform="rotate(-90.000000 3.7907 17.7500)">
<text x="3.7907" y="18.0500"
textLength="0.6014" font-size="0.8000" lengthAdjust="spacingAndGlyphs"
text-anchor="middle" opacity="0" stroke-opacity="0">6</text>
</g>
<g class="stroked-text"><desc>6</desc>
<path d="M3.4657 17.6357
L3.4657 17.7500
" />
<path d="M3.4657 17.7500
L3.4943 17.8071
" />
<path d="M3.4943 17.8071
L3.5228 17.8357
" />
<path d="M3.5228 17.8357
L3.6085 17.8929
" />
<path d="M3.6085 17.8929
L3.7228 17.9214
" />
<path d="M3.7228 17.9214
L3.9514 17.9214
" />
<path d="M3.9514 17.9214
L4.0085 17.8929
" />
<path d="M4.0085 17.8929
L4.0371 17.8643
" />
<path d="M4.0371 17.8643
L4.0657 17.8071
" />
<path d="M4.0657 17.8071
L4.0657 17.6929
" />
<path d="M4.0657 17.6929
L4.0371 17.6357
" />
<path d="M4.0371 17.6357
L4.0085 17.6071
" />
<path d="M4.0085 17.6071
L3.9514 17.5786
" />
<path d="M3.9514 17.5786
L3.8085 17.5786
" />
<path d="M3.8085 17.5786
L3.7514 17.6071
" />
<path d="M3.7514 17.6071
L3.7228 17.6357
" />
<path d="M3.7228 17.6357
L3.6943 17.6929
" />
<path d="M3.6943 17.6929
L3.6943 17.8071
" />
<path d="M3.6943 17.8071
L3.7228 17.8643
" />
<path d="M3.7228 17.8643
L3.7514 17.8929
" />
<path d="M3.7514 17.8929
L3.8085 17.9214
" />
</g></g>
<g style="fill:none; 
stroke:#585D84; stroke-width:0.0212; stroke-opacity:1; 
stroke-linecap:round; stroke-linejoin:round;">
<path d="M3.1907 17.4500
L3.1907 18.0500
" />
<path d="M3.1907 18.0500 A0.6000 0.6000 0.0 0 0 4.3907 18.0500" />
<path d="M4.3907 18.0500
L4.3907 17.4500
" />
<path d="M4.3907 17.4500 A0.6000 0.6000 0.0 0 0 3.1907 17.4500" />
</g>
<g style="fill:none; 
stroke:#585D84; stroke-width:0.0500; stroke-opacity:1; 
stroke-linecap:round; stroke-linejoin:round;">
<g transform="rotate(-90.000000 3.7907 20.2900)">
<text x="3.7907" y="20.5900"
textLength="0.6014" font-size="0.8000" lengthAdjust="spacingAndGlyphs"
text-anchor="middle" opacity="0" stroke-opacity="0">7</text>
</g>
<g class="stroked-text"><desc>7</desc>
<path d="M3.4657 20.4900
L3.4657 20.0900
" />
<path d="M3.4657 20.0900
L4.0657 20.3471
" />
</g></g>
<g style="fill:none; 
stroke:#585D84; stroke-width:0.0212; stroke-opacity:1; 
stroke-linecap:round; stroke-linejoin:round;">
<path d="M3.1907 19.9900
L3.1907 20.5900
" />
<path d="M3.1907 20.5900 A0.6000 0.6000 0.0 0 0 4.3907 20.5900" />
<path d="M4.3907 20.5900
L4.3907 19.9900
" />
<path d="M4.3907 19.9900 A0.6000 0.6000 0.0 0 0 3.1907 19.9900" />
</g>
<g style="fill:none; 
stroke:#585D84; stroke-width:0.0500; stroke-opacity:1; 
stroke-linecap:round; stroke-linejoin:round;">
<g transform="rotate(-90.000000 3.7907 22.8300)">
<text x="3.7907" y="23.1300"
textLength="0.6014" font-size="0.8000" lengthAdjust="spacingAndGlyphs"
text-anchor="middle" opacity="0" stroke-opacity="0">8</text>
</g>
<g class="stroked-text"><desc>8</desc>
<path d="M3.7228 22.8871
L3.6943 22.9443
" />
<path d="M3.6943 22.9443
L3.6657 22.9729
" />
<path d="M3.6657 22.9729
L3.6085 23.0014
" />
<path d="M3.6085 23.0014
L3.5800 23.0014
" />
<path d="M3.5800 23.0014
L3.5228 22.9729
" />
<path d="M3.5228 22.9729
L3.4943 22.9443
" />
<path d="M3.4943 22.9443
L3.4657 22.8871
" />
<path d="M3.4657 22.8871
L3.4657 22.7729
" />
<path d="M3.4657 22.7729
L3.4943 22.7157
" />
<path d="M3.4943 22.7157
L3.5228 22.6871
" />
<path d="M3.5228 22.6871
L3.5800 22.6586
" />
<path d="M3.5800 22.6586
L3.6085 22.6586
" />
<path d="M3.6085 22.6586
L3.6657 22.6871
" />
<path d="M3.6657 22.6871
L3.6943 22.7157
" />
<path d="M3.6943 22.7157
L3.7228 22.7729
" />
<path d="M3.7228 22.7729
L3.7228 22.8871
" />
<path d="M3.7228 22.8871
L3.7514 22.9443
" />
<path d="M3.7514 22.9443
L3.7800 22.9729
" />
<path d="M3.7800 22.9729
L3.8371 23.0014
" />
<path d="M3.8371 23.0014
L3.9514 23.0014
" />
<path d="M3.9514 23.0014
L4.0085 22.9729
" />
<path d="M4.0085 22.9729
L4.0371 22.9443
" />
<path d="M4.0371 22.9443
L4.0657 22.8871
" />
<path d="M4.0657 22.8871
L4.0657 22.7729
" />
<path d="M4.0657 22.7729
L4.0371 22.7157
" />
<path d="M4.0371 22.7157
L4.0085 22.6871
" />
<path d="M4.0085 22.6871
L3.9514 22.6586
" />
<path d="M3.9514 22.6586
L3.8371 22.6586
" />
<path d="M3.8371 22.6586
L3.7800 22.6871
" />
<path d="M3.7800 22.6871
L3.7514 22.7157
" />
<path d="M3.7514 22.7157
L3.7228 22.7729
" />
</g></g>
<g style="fill:none; 
stroke:#585D84; stroke-width:0.0212; stroke-opacity:1; 
stroke-linecap:round; stroke-linejoin:round;">
<path d="M3.1907 22.5300
L3.1907 23.1300
" />
<path d="M3.1907 23.1300 A0.6000 0.6000 0.0 0 0 4.3907 23.1300" />
<path d="M4.3907 23.1300
L4.3907 22.5300
" />
<path d="M4.3907 22.5300 A0.6000 0.6000 0.0 0 0 3.1907 22.5300" />
</g>
<g style="fill:none; 
stroke:#585D84; stroke-width:0.0500; stroke-opacity:1; 
stroke-linecap:round; stroke-linejoin:round;">
<g transform="rotate(-90.000000 3.7907 25.3700)">
<text x="3.7907" y="25.6700"
textLength="0.6014" font-size="0.8000" lengthAdjust="spacingAndGlyphs"
text-anchor="middle" opacity="0" stroke-opacity="0">9</text>
</g>
<g class="stroked-text"><desc>9</desc>
<path d="M4.0657 25.4843
L4.0657 25.3700
" />
<path d="M4.0657 25.3700
L4.0371 25.3129
" />
<path d="M4.0371 25.3129
L4.0085 25.2843
" />
<path d="M4.0085 25.2843
L3.9228 25.2271
" />
<path d="M3.9228 25.2271
L3.8085 25.1986
" />
<path d="M3.8085 25.1986
L3.5800 25.1986
" />
<path d="M3.5800 25.1986
L3.5228 25.2271
" />
<path d="M3.5228 25.2271
L3.4943 25.2557
" />
<path d="M3.4943 25.2557
L3.4657 25.3129
" />
<path d="M3.4657 25.3129
L3.4657 25.4271
" />
<path d="M3.4657 25.4271
L3.4943 25.4843
" />
<path d="M3.4943 25.4843
L3.5228 25.5129
" />
<path d="M3.5228 25.5129
L3.5800 25.5414
" />
<path d="M3.5800 25.5414
L3.7228 25.5414
" />
<path d="M3.7228 25.5414
L3.7800 25.5129
" />
<path d="M3.7800 25.5129
L3.8085 25.4843
" />
<path d="M3.8085 25.4843
L3.8371 25.4271
" />
<path d="M3.8371 25.4271
L3.8371 25.3129
" />
<path d="M3.8371 25.3129
L3.8085 25.2557
" />
<path d="M3.8085 25.2557
L3.7800 25.2271
" />
<path d="M3.7800 25.2271
L3.7228 25.1986
" />
</g></g>
<g style="fill:none; 
stroke:#585D84; stroke-width:0.0212; stroke-opacity:1; 
stroke-linecap:round; stroke-linejoin:round;">
<path d="M3.1907 25.0700
L3.1907 25.6700
" />
<path d="M3.1907 25.6700 A0.6000 0.6000 0.0 0 0 4.3907 25.6700" />
<path d="M4.3907 25.6700
L4.3907 25.0700
" />
<path d="M4.3907 25.0700 A0.6000 0.6000 0.0 0 0 3.1907 25.0700" />
</g>
<g style="fill:none; 
stroke:#585D84; stroke-width:0.0500; stroke-opacity:1; 
stroke-linecap:round; stroke-linejoin:round;">
<g transform="rotate(-90.000000 3.7907 27.9100)">
<text x="3.7907" y="28.2100"
textLength="1.1729" font-size="0.8000" lengthAdjust="spacingAndGlyphs"
text-anchor="middle" opacity="0" stroke-opacity="0">10</text>
</g>
<g class="stroked-text"><desc>10</desc>
<path d="M4.0657 28.0243
L4.0657 28.3671
" />
<path d="M4.0657 28.1957
L3.4657 28.1957
" />
<path d="M3.4657 28.1957
L3.5514 28.2529
" />
<path d="M3.5514 28.2529
L3.6085 28.3100
" />
<path d="M3.6085 28.3100
L3.6371 28.3671
" />
<path d="M3.4657 27.6529
L3.4657 27.5957
" />
<path d="M3.4657 27.5957
L3.4943 27.5386
" />
<path d="M3.4943 27.5386
L3.5228 27.5100
" />
<path d="M3.5228 27.5100
L3.5800 27.4814
" />
<path d="M3.5800 27.4814
L3.6943 27.4529
" />
<path d="M3.6943 27.4529
L3.8371 27.4529
" />
<path d="M3.8371 27.4529
L3.9514 27.4814
" />
<path d="M3.9514 27.4814
L4.0085 27.5100
" />
<path d="M4.0085 27.5100
L4.0371 27.5386
" />
<path d="M4.0371 27.5386
L4.0657 27.5957
" />
<path d="M4.0657 27.5957
L4.0657 27.6529
" />
<path d="M4.0657 27.6529
L4.0371 27.7100
" />
<path d="M4.0371 27.7100
L4.0085 27.7386
" />
<path d="M4.0085 27.7386
L3.9514 27.7671
" />
<path d="M3.9514 27.7671
L3.8371 27.7957
" />
<path d="M3.8371 27.7957
L3.6943 27.7957
" />
<path d="M3.6943 27.7957
L3.5800 27.7671
" />
<path d="M3.5800 27.7671
L3.5228 27.7386
" />
<path d="M3.5228 27.7386
L3.4943 27.7100
" />
<path d="M3.4943 27.7100
L3.4657 27.6529
" />
</g></g>
<g style="fill:none; 
stroke:#585D84; stroke-width:0.0212; stroke-opacity:1; 
stroke-linecap:round; stroke-linejoin:round;">
<path d="M3.1907 27.6100
L3.1907 28.2100
" />
<path d="M3.1907 28.2100 A0.6000 0.6000 0.0 0 0 4.3907 28.2100" />
<path d="M4.3907 28.2100
L4.3907 27.6100
" />
<path d="M4.3907 27.6100 A0.6000 0.6000 0.0 0 0 3.1907 27.6100" />
</g>
<g style="fill:none; 
stroke:#585D84; stroke-width:0.0500; stroke-opacity:1; 
stroke-linecap:round; stroke-linejoin:round;">
<g transform="rotate(-90.000000 3.7907 30.4500)">
<text x="3.7907" y="30.7500"
textLength="1.1729" font-size="0.8000" lengthAdjust="spacingAndGlyphs"
text-anchor="middle" opacity="0" stroke-opacity="0">11</text>
</g>
<g class="stroked-text"><desc>11</desc>
<path d="M4.0657 30.5643
L4.0657 30.9071
" />
<path d="M4.0657 30.7357
L3.4657 30.7357
" />
<path d="M3.4657 30.7357
L3.5514 30.7929
" />
<path d="M3.5514 30.7929
L3.6085 30.8500
" />
<path d="M3.6085 30.8500
L3.6371 30.9071
" />
<path d="M4.0657 29.9929
L4.0657 30.3357
" />
<path d="M4.0657 30.1643
L3.4657 30.1643
" />
<path d="M3.4657 30.1643
L3.5514 30.2214
" />
<path d="M3.5514 30.2214
L3.6085 30.2786
" />
<path d="M3.6085 30.2786
L3.6371 30.3357
" />
</g></g>
<g style="fill:none; 
stroke:#585D84; stroke-width:0.0212; stroke-opacity:1; 
stroke-linecap:round; stroke-linejoin:round;">
<path d="M3.1907 30.1500
L3.1907 30.7500
" />
<path d="M3.1907 30.7500 A0.6000 0.6000 0.0 0 0 4.3907 30.7500" />
<path d="M4.3907 30.7500
L4.3907 30.1500
" />
<path d="M4.3907 30.1500 A0.6000 0.6000 0.0 0 0 3.1907 30.1500" />
</g>
<g style="fill:none; 
stroke:#585D84; stroke-width:0.0500; stroke-opacity:1; 
stroke-linecap:round; stroke-linejoin:round;">
<g transform="rotate(-90.000000 3.7907 32.9900)">
<text x="3.7907" y="33.2900"
textLength="1.1729" font-size="0.8000" lengthAdjust="spacingAndGlyphs"
text-anchor="middle" opacity="0" stroke-opacity="0">12</text>
</g>
<g class="stroked-text"><desc>12</desc>
<path d="M4.0657 33.1043
L4.0657 33.4471
" />
<path d="M4.0657 33.2757
L3.4657 33.2757
" />
<path d="M3.4657 33.2757
L3.5514 33.3329
" />
<path d="M3.5514 33.3329
L3.6085 33.3900
" />
<path d="M3.6085 33.3900
L3.6371 33.4471
" />
<path d="M3.5228 32.8757
L3.4943 32.8471
" />
<path d="M3.4943 32.8471
L3.4657 32.7900
" />
<path d="M3.4657 32.7900
L3.4657 32.6471
" />
<path d="M3.4657 32.6471
L3.4943 32.5900
" />
<path d="M3.4943 32.5900
L3.5228 32.5614
" />
<path d="M3.5228 32.5614
L3.5800 32.5329
" />
<path d="M3.5800 32.5329
L3.6371 32.5329
" />
<path d="M3.6371 32.5329
L3.7228 32.5614
" />
<path d="M3.7228 32.5614
L4.0657 32.9043
" />
<path d="M4.0657 32.9043
L4.0657 32.5329
" />
</g></g>
<g style="fill:none; 
stroke:#585D84; stroke-width:0.0212; stroke-opacity:1; 
stroke-linecap:round; stroke-linejoin:round;">
<path d="M3.1907 32.6900
L3.1907 33.2900
" />
<path d="M3.1907 33.2900 A0.6000 0.6000 0.0 0 0 4.3907 33.2900" />
<path d="M4.3907 33.2900
L4.3907 32.6900
" />
<path d="M4.3907 32.6900 A0.6000 0.6000 0.0 0 0 3.1907 32.6900" />
</g>
<g style="fill:none; 
stroke:#585D84; stroke-width:0.0500; stroke-opacity:1; 
stroke-linecap:round; stroke-linejoin:round;">
<g transform="rotate(-90.000000 19.0307 32.9900)">
<text x="19.0307" y="33.2900"
textLength="1.1729" font-size="0.8000" lengthAdjust="spacingAndGlyphs"
text-anchor="middle" opacity="0" stroke-opacity="0">13</text>
</g>
<g class="stroked-text"><desc>13</desc>
<path d="M19.3057 33.1043
L19.3057 33.4471
" />
<path d="M19.3057 33.2757
L18.7057 33.2757
" />
<path d="M18.7057 33.2757
L18.7914 33.3329
" />
<path d="M18.7914 33.3329
L18.8485 33.3900
" />
<path d="M18.8485 33.3900
L18.8771 33.4471
" />
<path d="M18.7057 32.9043
L18.7057 32.5329
" />
<path d="M18.7057 32.5329
L18.9343 32.7329
" />
<path d="M18.9343 32.7329
L18.9343 32.6471
" />
<path d="M18.9343 32.6471
L18.9628 32.5900
" />
<path d="M18.9628 32.5900
L18.9914 32.5614
" />
<path d="M18.9914 32.5614
L19.0485 32.5329
" />
<path d="M19.0485 32.5329
L19.1914 32.5329
" />
<path d="M19.1914 32.5329
L19.2485 32.5614
" />
<path d="M19.2485 32.5614
L19.2771 32.5900
" />
<path d="M19.2771 32.5900
L19.3057 32.6471
" />
<path d="M19.3057 32.6471
L19.3057 32.8186
" />
<path d="M19.3057 32.8186
L19.2771 32.8757
" />
<path d="M19.2771 32.8757
L19.2485 32.9043
" />
</g></g>
<g style="fill:none; 
stroke:#585D84; stroke-width:0.0212; stroke-opacity:1; 
stroke-linecap:round; stroke-linejoin:round;">
<path d="M18.4307 32.6900
L18.4307 33.2900
" />
<path d="M18.4307 33.2900 A0.6000 0.6000 0.0 0 0 19.6307 33.2900" />
<path d="M19.6307 33.2900
L19.6307 32.6900
" />
<path d="M19.6307 32.6900 A0.6000 0.6000 0.0 0 0 18.4307 32.6900" />
</g>
<g style="fill:none; 
stroke:#585D84; stroke-width:0.0500; stroke-opacity:1; 
stroke-linecap:round; stroke-linejoin:round;">
<g transform="rotate(-90.000000 19.0307 30.4500)">
<text x="19.0307" y="30.7500"
textLength="1.1729" font-size="0.8000" lengthAdjust="spacingAndGlyphs"
text-anchor="middle" opacity="0" stroke-opacity="0">14</text>
</g>
<g class="stroked-text"><desc>14</desc>
<path d="M19.3057 30.5643
L19.3057 30.9071
" />
<path d="M19.3057 30.7357
L18.7057 30.7357
" />
<path d="M18.7057 30.7357
L18.7914 30.7929
" />
<path d="M18.7914 30.7929
L18.8485 30.8500
" />
<path d="M18.8485 30.8500
L18.8771 30.9071
" />
<path d="M18.9057 30.0500
L19.3057 30.0500
" />
<path d="M18.6771 30.1929
L19.1057 30.3357
" />
<path d="M19.1057 30.3357
L19.1057 29.9643
" />
</g></g>
<g style="fill:none; 
stroke:#585D84; stroke-width:0.0212; stroke-opacity:1; 
stroke-linecap:round; stroke-linejoin:round;">
<path d="M18.4307 30.1500
L18.4307 30.7500
" />
<path d="M18.4307 30.7500 A0.6000 0.6000 0.0 0 0 19.6307 30.7500" />
<path d="M19.6307 30.7500
L19.6307 30.1500
" />
<path d="M19.6307 30.1500 A0.6000 0.6000 0.0 0 0 18.4307 30.1500" />
</g>
<g style="fill:none; 
stroke:#585D84; stroke-width:0.0500; stroke-opacity:1; 
stroke-linecap:round; stroke-linejoin:round;">
<g transform="rotate(-90.000000 19.0307 27.9100)">
<text x="19.0307" y="28.2100"
textLength="1.1729" font-size="0.8000" lengthAdjust="spacingAndGlyphs"
text-anchor="middle" opacity="0" stroke-opacity="0">15</text>
</g>
<g class="stroked-text"><desc>15</desc>
<path d="M19.3057 28.0243
L19.3057 28.3671
" />
<path d="M19.3057 28.1957
L18.7057 28.1957
" />
<path d="M18.7057 28.1957
L18.7914 28.2529
" />
<path d="M18.7914 28.2529
L18.8485 28.3100
" />
<path d="M18.8485 28.3100
L18.8771 28.3671
" />
<path d="M18.7057 27.4814
L18.7057 27.7671
" />
<path d="M18.7057 27.7671
L18.9914 27.7957
" />
<path d="M18.9914 27.7957
L18.9628 27.7671
" />
<path d="M18.9628 27.7671
L18.9343 27.7100
" />
<path d="M18.9343 27.7100
L18.9343 27.5671
" />
<path d="M18.9343 27.5671
L18.9628 27.5100
" />
<path d="M18.9628 27.5100
L18.9914 27.4814
" />
<path d="M18.9914 27.4814
L19.0485 27.4529
" />
<path d="M19.0485 27.4529
L19.1914 27.4529
" />
<path d="M19.1914 27.4529
L19.2485 27.4814
" />
<path d="M19.2485 27.4814
L19.2771 27.5100
" />
<path d="M19.2771 27.5100
L19.3057 27.5671
" />
<path d="M19.3057 27.5671
L19.3057 27.7100
" />
<path d="M19.3057 27.7100
L19.2771 27.7671
" />
<path d="M19.2771 27.7671
L19.2485 27.7957
" />
</g></g>
<g style="fill:none; 
stroke:#585D84; stroke-width:0.0212; stroke-opacity:1; 
stroke-linecap:round; stroke-linejoin:round;">
<path d="M18.4307 27.6100
L18.4307 28.2100
" />
<path d="M18.4307 28.2100 A0.6000 0.6000 0.0 0 0 19.6307 28.2100" />
<path d="M19.6307 28.2100
L19.6307 27.6100
" />
<path d="M19.6307 27.6100 A0.6000 0.6000 0.0 0 0 18.4307 27.6100" />
</g>
<g style="fill:none; 
stroke:#585D84; stroke-width:0.0500; stroke-opacity:1; 
stroke-linecap:round; stroke-linejoin:round;">
<g transform="rotate(-90.000000 19.0307 25.3700)">
<text x="19.0307" y="25.6700"
textLength="1.1729" font-size="0.8000" lengthAdjust="spacingAndGlyphs"
text-anchor="middle" opacity="0" stroke-opacity="0">16</text>
</g>
<g class="stroked-text"><desc>16</desc>
<path d="M19.3057 25.4843
L19.3057 25.8271
" />
<path d="M19.3057 25.6557
L18.7057 25.6557
" />
<path d="M18.7057 25.6557
L18.7914 25.7129
" />
<path d="M18.7914 25.7129
L18.8485 25.7700
" />
<path d="M18.8485 25.7700
L18.8771 25.8271
" />
<path d="M18.7057 24.9700
L18.7057 25.0843
" />
<path d="M18.7057 25.0843
L18.7343 25.1414
" />
<path d="M18.7343 25.1414
L18.7628 25.1700
" />
<path d="M18.7628 25.1700
L18.8485 25.2271
" />
<path d="M18.8485 25.2271
L18.9628 25.2557
" />
<path d="M18.9628 25.2557
L19.1914 25.2557
" />
<path d="M19.1914 25.2557
L19.2485 25.2271
" />
<path d="M19.2485 25.2271
L19.2771 25.1986
" />
<path d="M19.2771 25.1986
L19.3057 25.1414
" />
<path d="M19.3057 25.1414
L19.3057 25.0271
" />
<path d="M19.3057 25.0271
L19.2771 24.9700
" />
<path d="M19.2771 24.9700
L19.2485 24.9414
" />
<path d="M19.2485 24.9414
L19.1914 24.9129
" />
<path d="M19.1914 24.9129
L19.0485 24.9129
" />
<path d="M19.0485 24.9129
L18.9914 24.9414
" />
<path d="M18.9914 24.9414
L18.9628 24.9700
" />
<path d="M18.9628 24.9700
L18.9343 25.0271
" />
<path d="M18.9343 25.0271
L18.9343 25.1414
" />
<path d="M18.9343 25.1414
L18.9628 25.1986
" />
<path d="M18.9628 25.1986
L18.9914 25.2271
" />
<path d="M18.9914 25.2271
L19.0485 25.2557
" />
</g></g>
<g style="fill:none; 
stroke:#585D84; stroke-width:0.0212; stroke-opacity:1; 
stroke-linecap:round; stroke-linejoin:round;">
<path d="M18.4307 25.0700
L18.4307 25.6700
" />
<path d="M18.4307 25.6700 A0.6000 0.6000 0.0 0 0 19.6307 25.6700" />
<path d="M19.6307 25.6700
L19.6307 25.0700
" />
<path d="M19.6307 25.0700 A0.6000 0.6000 0.0 0 0 18.4307 25.0700" />
</g>
<g style="fill:none; 
stroke:#585D84; stroke-width:0.0500; stroke-opacity:1; 
stroke-linecap:round; stroke-linejoin:round;">
<g transform="rotate(-90.000000 19.0307 22.8300)">
<text x="19.0307" y="23.1300"
textLength="1.1729" font-size="0.8000" lengthAdjust="spacingAndGlyphs"
text-anchor="middle" opacity="0" stroke-opacity="0">17</text>
</g>
<g class="stroked-text"><desc>17</desc>
<path d="M19.3057 22.9443
L19.3057 23.2871
" />
<path d="M19.3057 23.1157
L18.7057 23.1157
" />
<path d="M18.7057 23.1157
L18.7914 23.1729
" />
<path d="M18.7914 23.1729
L18.8485 23.2300
" />
<path d="M18.8485 23.2300
L18.8771 23.2871
" />
<path d="M18.7057 22.7443
L18.7057 22.3443
" />
<path d="M18.7057 22.3443
L19.3057 22.6014
" />
</g></g>
<g style="fill:none; 
stroke:#585D84; stroke-width:0.0212; stroke-opacity:1; 
stroke-linecap:round; stroke-linejoin:round;">
<path d="M18.4307 22.5300
L18.4307 23.1300
" />
<path d="M18.4307 23.1300 A0.6000 0.6000 0.0 0 0 19.6307 23.1300" />
<path d="M19.6307 23.1300
L19.6307 22.5300
" />
<path d="M19.6307 22.5300 A0.6000 0.6000 0.0 0 0 18.4307 22.5300" />
</g>
<g style="fill:none; 
stroke:#585D84; stroke-width:0.0500; stroke-opacity:1; 
stroke-linecap:round; stroke-linejoin:round;">
<g transform="rotate(-90.000000 19.0307 20.2900)">
<text x="19.0307" y="20.5900"
textLength="1.1729" font-size="0.8000" lengthAdjust="spacingAndGlyphs"
text-anchor="middle" opacity="0" stroke-opacity="0">18</text>
</g>
<g class="stroked-text"><desc>18</desc>
<path d="M19.3057 20.4043
L19.3057 20.7471
" />
<path d="M19.3057 20.5757
L18.7057 20.5757
" />
<path d="M18.7057 20.5757
L18.7914 20.6329
" />
<path d="M18.7914 20.6329
L18.8485 20.6900
" />
<path d="M18.8485 20.6900
L18.8771 20.7471
" />
<path d="M18.9628 20.0614
L18.9343 20.1186
" />
<path d="M18.9343 20.1186
L18.9057 20.1471
" />
<path d="M18.9057 20.1471
L18.8485 20.1757
" />
<path d="M18.8485 20.1757
L18.8200 20.1757
" />
<path d="M18.8200 20.1757
L18.7628 20.1471
" />
<path d="M18.7628 20.1471
L18.7343 20.1186
" />
<path d="M18.7343 20.1186
L18.7057 20.0614
" />
<path d="M18.7057 20.0614
L18.7057 19.9471
" />
<path d="M18.7057 19.9471
L18.7343 19.8900
" />
<path d="M18.7343 19.8900
L18.7628 19.8614
" />
<path d="M18.7628 19.8614
L18.8200 19.8329
" />
<path d="M18.8200 19.8329
L18.8485 19.8329
" />
<path d="M18.8485 19.8329
L18.9057 19.8614
" />
<path d="M18.9057 19.8614
L18.9343 19.8900
" />
<path d="M18.9343 19.8900
L18.9628 19.9471
" />
<path d="M18.9628 19.9471
L18.9628 20.0614
" />
<path d="M18.9628 20.0614
L18.9914 20.1186
" />
<path d="M18.9914 20.1186
L19.0200 20.1471
" />
<path d="M19.0200 20.1471
L19.0771 20.1757
" />
<path d="M19.0771 20.1757
L19.1914 20.1757
" />
<path d="M19.1914 20.1757
L19.2485 20.1471
" />
<path d="M19.2485 20.1471
L19.2771 20.1186
" />
<path d="M19.2771 20.1186
L19.3057 20.0614
" />
<path d="M19.3057 20.0614
L19.3057 19.9471
" />
<path d="M19.3057 19.9471
L19.2771 19.8900
" />
<path d="M19.2771 19.8900
L19.2485 19.8614
" />
<path d="M19.2485 19.8614
L19.1914 19.8329
" />
<path d="M19.1914 19.8329
L19.0771 19.8329
" />
<path d="M19.0771 19.8329
L19.0200 19.8614
" />
<path d="M19.0200 19.8614
L18.9914 19.8900
" />
<path d="M18.9914 19.8900
L18.9628 19.9471
" />
</g></g>
<g style="fill:none; 
stroke:#585D84; stroke-width:0.0212; stroke-opacity:1; 
stroke-linecap:round; stroke-linejoin:round;">
<path d="M18.4307 19.9900
L18.4307 20.5900
" />
<path d="M18.4307 20.5900 A0.6000 0.6000 0.0 0 0 19.6307 20.5900" />
<path d="M19.6307 20.5900
L19.6307 19.9900
" />
<path d="M19.6307 19.9900 A0.6000 0.6000 0.0 0 0 18.4307 19.9900" />
</g>
<g style="fill:none; 
stroke:#585D84; stroke-width:0.0500; stroke-opacity:1; 
stroke-linecap:round; stroke-linejoin:round;">
<g transform="rotate(-90.000000 19.0307 17.7500)">
<text x="19.0307" y="18.0500"
textLength="1.1729" font-size="0.8000" lengthAdjust="spacingAndGlyphs"
text-anchor="middle" opacity="0" stroke-opacity="0">19</text>
</g>
<g class="stroked-text"><desc>19</desc>
<path d="M19.3057 17.8643
L19.3057 18.2071
" />
<path d="M19.3057 18.0357
L18.7057 18.0357
" />
<path d="M18.7057 18.0357
L18.7914 18.0929
" />
<path d="M18.7914 18.0929
L18.8485 18.1500
" />
<path d="M18.8485 18.1500
L18.8771 18.2071
" />
<path d="M19.3057 17.5786
L19.3057 17.4643
" />
<path d="M19.3057 17.4643
L19.2771 17.4071
" />
<path d="M19.2771 17.4071
L19.2485 17.3786
" />
<path d="M19.2485 17.3786
L19.1628 17.3214
" />
<path d="M19.1628 17.3214
L19.0485 17.2929
" />
<path d="M19.0485 17.2929
L18.8200 17.2929
" />
<path d="M18.8200 17.2929
L18.7628 17.3214
" />
<path d="M18.7628 17.3214
L18.7343 17.3500
" />
<path d="M18.7343 17.3500
L18.7057 17.4071
" />
<path d="M18.7057 17.4071
L18.7057 17.5214
" />
<path d="M18.7057 17.5214
L18.7343 17.5786
" />
<path d="M18.7343 17.5786
L18.7628 17.6071
" />
<path d="M18.7628 17.6071
L18.8200 17.6357
" />
<path d="M18.8200 17.6357
L18.9628 17.6357
" />
<path d="M18.9628 17.6357
L19.0200 17.6071
" />
<path d="M19.0200 17.6071
L19.0485 17.5786
" />
<path d="M19.0485 17.5786
L19.0771 17.5214
" />
<path d="M19.0771 17.5214
L19.0771 17.4071
" />
<path d="M19.0771 17.4071
L19.0485 17.3500
" />
<path d="M19.0485 17.3500
L19.0200 17.3214
" />
<path d="M19.0200 17.3214
L18.9628 17.2929
" />
</g></g>
<g style="fill:none; 
stroke:#585D84; stroke-width:0.0212; stroke-opacity:1; 
stroke-linecap:round; stroke-linejoin:round;">
<path d="M18.4307 17.4500
L18.4307 18.0500
" />
<path d="M18.4307 18.0500 A0.6000 0.6000 0.0 0 0 19.6307 18.0500" />
<path d="M19.6307 18.0500
L19.6307 17.4500
" />
<path d="M19.6307 17.4500 A0.6000 0.6000 0.0 0 0 18.4307 17.4500" />
</g>
<g style="fill:none; 
stroke:#585D84; stroke-width:0.0500; stroke-opacity:1; 
stroke-linecap:round; stroke-linejoin:round;">
<g transform="rotate(-90.000000 19.0307 15.2100)">
<text x="19.0307" y="15.5100"
textLength="1.1729" font-size="0.8000" lengthAdjust="spacingAndGlyphs"
text-anchor="middle" opacity="0" stroke-opacity="0">20</text>
</g>
<g class="stroked-text"><desc>20</desc>
<path d="M18.7628 15.6671
L18.7343 15.6386
" />
<path d="M18.7343 15.6386
L18.7057 15.5814
" />
<path d="M18.7057 15.5814
L18.7057 15.4386
" />
<path d="M18.7057 15.4386
L18.7343 15.3814
" />
<path d="M18.7343 15.3814
L18.7628 15.3529
" />
<path d="M18.7628 15.3529
L18.8200 15.3243
" />
<path d="M18.8200 15.3243
L18.8771 15.3243
" />
<path d="M18.8771 15.3243
L18.9628 15.3529
" />
<path d="M18.9628 15.3529
L19.3057 15.6957
" />
<path d="M19.3057 15.6957
L19.3057 15.3243
" />
<path d="M18.7057 14.9529
L18.7057 14.8957
" />
<path d="M18.7057 14.8957
L18.7343 14.8386
" />
<path d="M18.7343 14.8386
L18.7628 14.8100
" />
<path d="M18.7628 14.8100
L18.8200 14.7814
" />
<path d="M18.8200 14.7814
L18.9343 14.7529
" />
<path d="M18.9343 14.7529
L19.0771 14.7529
" />
<path d="M19.0771 14.7529
L19.1914 14.7814
" />
<path d="M19.1914 14.7814
L19.2485 14.8100
" />
<path d="M19.2485 14.8100
L19.2771 14.8386
" />
<path d="M19.2771 14.8386
L19.3057 14.8957
" />
<path d="M19.3057 14.8957
L19.3057 14.9529
" />
<path d="M19.3057 14.9529
L19.2771 15.0100
" />
<path d="M19.2771 15.0100
L19.2485 15.0386
" />
<path d="M19.2485 15.0386
L19.1914 15.0671
" />
<path d="M19.1914 15.0671
L19.0771 15.0957
" />
<path d="M19.0771 15.0957
L18.9343 15.0957
" />
<path d="M18.9343 15.0957
L18.8200 15.0671
" />
<path d="M18.8200 15.0671
L18.7628 15.0386
" />
<path d="M18.7628 15.0386
L18.7343 15.0100
" />
<path d="M18.7343 15.0100
L18.7057 14.9529
" />
</g></g>
<g style="fill:none; 
stroke:#585D84; stroke-width:0.0212; stroke-opacity:1; 
stroke-linecap:round; stroke-linejoin:round;">
<path d="M18.4307 14.9100
L18.4307 15.5100
" />
<path d="M18.4307 15.5100 A0.6000 0.6000 0.0 0 0 19.6307 15.5100" />
<path d="M19.6307 15.5100
L19.6307 14.9100
" />
<path d="M19.6307 14.9100 A0.6000 0.6000 0.0 0 0 18.4307 14.9100" />
</g>
<g style="fill:none; 
stroke:#585D84; stroke-width:0.0500; stroke-opacity:1; 
stroke-linecap:round; stroke-linejoin:round;">
<g transform="rotate(-90.000000 19.0307 12.6700)">
<text x="19.0307" y="12.9700"
textLength="1.1729" font-size="0.8000" lengthAdjust="spacingAndGlyphs"
text-anchor="middle" opacity="0" stroke-opacity="0">21</text>
</g>
<g class="stroked-text"><desc>21</desc>
<path d="M18.7628 13.1271
L18.7343 13.0986
" />
<path d="M18.7343 13.0986
L18.7057 13.0414
" />
<path d="M18.7057 13.0414
L18.7057 12.8986
" />
<path d="M18.7057 12.8986
L18.7343 12.8414
" />
<path d="M18.7343 12.8414
L18.7628 12.8129
" />
<path d="M18.7628 12.8129
L18.8200 12.7843
" />
<path d="M18.8200 12.7843
L18.8771 12.7843
" />
<path d="M18.8771 12.7843
L18.9628 12.8129
" />
<path d="M18.9628 12.8129
L19.3057 13.1557
" />
<path d="M19.3057 13.1557
L19.3057 12.7843
" />
<path d="M19.3057 12.2129
L19.3057 12.5557
" />
<path d="M19.3057 12.3843
L18.7057 12.3843
" />
<path d="M18.7057 12.3843
L18.7914 12.4414
" />
<path d="M18.7914 12.4414
L18.8485 12.4986
" />
<path d="M18.8485 12.4986
L18.8771 12.5557
" />
</g></g>
<g style="fill:none; 
stroke:#585D84; stroke-width:0.0212; stroke-opacity:1; 
stroke-linecap:round; stroke-linejoin:round;">
<path d="M18.4307 12.3700
L18.4307 12.9700
" />
<path d="M18.4307 12.9700 A0.6000 0.6000 0.0 0 0 19.6307 12.9700" />
<path d="M19.6307 12.9700
L19.6307 12.3700
" />
<path d="M19.6307 12.3700 A0.6000 0.6000 0.0 0 0 18.4307 12.3700" />
</g>
<g style="fill:none; 
stroke:#585D84; stroke-width:0.0500; stroke-opacity:1; 
stroke-linecap:round; stroke-linejoin:round;">
<g transform="rotate(-90.000000 19.0307 10.1300)">
<text x="19.0307" y="10.4300"
textLength="1.1729" font-size="0.8000" lengthAdjust="spacingAndGlyphs"
text-anchor="middle" opacity="0" stroke-opacity="0">22</text>
</g>
<g class="stroked-text"><desc>22</desc>
<path d="M18.7628 10.5871
L18.7343 10.5586
" />
<path d="M18.7343 10.5586
L18.7057 10.5014
" />
<path d="M18.7057 10.5014
L18.7057 10.3586
" />
<path d="M18.7057 10.3586
L18.7343 10.3014
" />
<path d="M18.7343 10.3014
L18.7628 10.2729
" />
<path d="M18.7628 10.2729
L18.8200 10.2443
" />
<path d="M18.8200 10.2443
L18.8771 10.2443
" />
<path d="M18.8771 10.2443
L18.9628 10.2729
" />
<path d="M18.9628 10.2729
L19.3057 10.6157
" />
<path d="M19.3057 10.6157
L19.3057 10.2443
" />
<path d="M18.7628 10.0157
L18.7343 9.9871
" />
<path d="M18.7343 9.9871
L18.7057 9.9300
" />
<path d="M18.7057 9.9300
L18.7057 9.7871
" />
<path d="M18.7057 9.7871
L18.7343 9.7300
" />
<path d="M18.7343 9.7300
L18.7628 9.7014
" />
<path d="M18.7628 9.7014
L18.8200 9.6729
" />
<path d="M18.8200 9.6729
L18.8771 9.6729
" />
<path d="M18.8771 9.6729
L18.9628 9.7014
" />
<path d="M18.9628 9.7014
L19.3057 10.0443
" />
<path d="M19.3057 10.0443
L19.3057 9.6729
" />
</g></g>
<g style="fill:none; 
stroke:#585D84; stroke-width:0.0212; stroke-opacity:1; 
stroke-linecap:round; stroke-linejoin:round;">
<path d="M18.4307 9.8300
L18.4307 10.4300
" />
<path d="M18.4307 10.4300 A0.6000 0.6000 0.0 0 0 19.6307 10.4300" />
<path d="M19.6307 10.4300
L19.6307 9.8300
" />
<path d="M19.6307 9.8300 A0.6000 0.6000 0.0 0 0 18.4307 9.8300" />
</g>
<g style="fill:none; 
stroke:#585D84; stroke-width:0.0500; stroke-opacity:1; 
stroke-linecap:round; stroke-linejoin:round;">
<g transform="rotate(-90.000000 19.0307 7.5900)">
<text x="19.0307" y="7.8900"
textLength="1.1729" font-size="0.8000" lengthAdjust="spacingAndGlyphs"
text-anchor="middle" opacity="0" stroke-opacity="0">23</text>
</g>
<g class="stroked-text"><desc>23</desc>
<path d="M18.7628 8.0471
L18.7343 8.0186
" />
<path d="M18.7343 8.0186
L18.7057 7.9614
" />
<path d="M18.7057 7.9614
L18.7057 7.8186
" />
<path d="M18.7057 7.8186
L18.7343 7.7614
" />
<path d="M18.7343 7.7614
L18.7628 7.7329
" />
<path d="M18.7628 7.7329
L18.8200 7.7043
" />
<path d="M18.8200 7.7043
L18.8771 7.7043
" />
<path d="M18.8771 7.7043
L18.9628 7.7329
" />
<path d="M18.9628 7.7329
L19.3057 8.0757
" />
<path d="M19.3057 8.0757
L19.3057 7.7043
" />
<path d="M18.7057 7.5043
L18.7057 7.1329
" />
<path d="M18.7057 7.1329
L18.9343 7.3329
" />
<path d="M18.9343 7.3329
L18.9343 7.2471
" />
<path d="M18.9343 7.2471
L18.9628 7.1900
" />
<path d="M18.9628 7.1900
L18.9914 7.1614
" />
<path d="M18.9914 7.1614
L19.0485 7.1329
" />
<path d="M19.0485 7.1329
L19.1914 7.1329
" />
<path d="M19.1914 7.1329
L19.2485 7.1614
" />
<path d="M19.2485 7.1614
L19.2771 7.1900
" />
<path d="M19.2771 7.1900
L19.3057 7.2471
" />
<path d="M19.3057 7.2471
L19.3057 7.4186
" />
<path d="M19.3057 7.4186
L19.2771 7.4757
" />
<path d="M19.2771 7.4757
L19.2485 7.5043
" />
</g></g>
<g style="fill:none; 
stroke:#585D84; stroke-width:0.0212; stroke-opacity:1; 
stroke-linecap:round; stroke-linejoin:round;">
<path d="M18.4307 7.2900
L18.4307 7.8900
" />
<path d="M18.4307 7.8900 A0.6000 0.6000 0.0 0 0 19.6307 7.8900" />
<path d="M19.6307 7.8900
L19.6307 7.2900
" />
<path d="M19.6307 7.2900 A0.6000 0.6000 0.0 0 0 18.4307 7.2900" />
</g>
<g style="fill:none; 
stroke:#585D84; stroke-width:0.0500; stroke-opacity:1; 
stroke-linecap:round; stroke-linejoin:round;">
<g transform="rotate(-90.000000 19.0307 5.0500)">
<text x="19.0307" y="5.3500"
textLength="1.1729" font-size="0.8000" lengthAdjust="spacingAndGlyphs"
text-anchor="middle" opacity="0" stroke-opacity="0">24</text>
</g>
<g class="stroked-text"><desc>24</desc>
<path d="M18.7628 5.5071
L18.7343 5.4786
" />
<path d="M18.7343 5.4786
L18.7057 5.4214
" />
<path d="M18.7057 5.4214
L18.7057 5.2786
" />
<path d="M18.7057 5.2786
L18.7343 5.2214
" />
<path d="M18.7343 5.2214
L18.7628 5.1929
" />
<path d="M18.7628 5.1929
L18.8200 5.1643
" />
<path d="M18.8200 5.1643
L18.8771 5.1643
" />
<path d="M18.8771 5.1643
L18.9628 5.1929
" />
<path d="M18.9628 5.1929
L19.3057 5.5357
" />
<path d="M19.3057 5.5357
L19.3057 5.1643
" />
<path d="M18.9057 4.6500
L19.3057 4.6500
" />
<path d="M18.6771 4.7929
L19.1057 4.9357
" />
<path d="M19.1057 4.9357
L19.1057 4.5643
" />
</g></g>
<g style="fill:none; 
stroke:#585D84; stroke-width:0.0212; stroke-opacity:1; 
stroke-linecap:round; stroke-linejoin:round;">
<path d="M18.4307 4.7500
L18.4307 5.3500
" />
<path d="M18.4307 5.3500 A0.6000 0.6000 0.0 0 0 19.6307 5.3500" />
<path d="M19.6307 5.3500
L19.6307 4.7500
" />
<path d="M19.6307 4.7500 A0.6000 0.6000 0.0 0 0 18.4307 4.7500" />
</g>
<g style="fill:none; 
stroke:#AFAFAF; stroke-width:0.1500; stroke-opacity:1; 
stroke-linecap:round; stroke-linejoin:round;">
<text x="11.4107" y="35.9500"
textLength="22.8214" font-size="1.3333" lengthAdjust="spacingAndGlyphs"
text-anchor="middle" opacity="0" stroke-opacity="0">MCU_ProMicro_DIP-24_Socket</text>
<g class="stroked-text"><desc>MCU_ProMicro_DIP-24_Socket</desc>
<path d="M0.3631 35.9048
L0.3631 34.9048
" />
<path d="M0.3631 34.9048
L0.6964 35.6191
" />
<path d="M0.6964 35.6191
L1.0298 34.9048
" />
<path d="M1.0298 34.9048
L1.0298 35.9048
" />
<path d="M2.0774 35.8096
L2.0298 35.8572
" />
<path d="M2.0298 35.8572
L1.8869 35.9048
" />
<path d="M1.8869 35.9048
L1.7917 35.9048
" />
<path d="M1.7917 35.9048
L1.6488 35.8572
" />
<path d="M1.6488 35.8572
L1.5536 35.7620
" />
<path d="M1.5536 35.7620
L1.5060 35.6667
" />
<path d="M1.5060 35.6667
L1.4583 35.4762
" />
<path d="M1.4583 35.4762
L1.4583 35.3334
" />
<path d="M1.4583 35.3334
L1.5060 35.1429
" />
<path d="M1.5060 35.1429
L1.5536 35.0477
" />
<path d="M1.5536 35.0477
L1.6488 34.9524
" />
<path d="M1.6488 34.9524
L1.7917 34.9048
" />
<path d="M1.7917 34.9048
L1.8869 34.9048
" />
<path d="M1.8869 34.9048
L2.0298 34.9524
" />
<path d="M2.0298 34.9524
L2.0774 35.0001
" />
<path d="M2.5060 34.9048
L2.5060 35.7143
" />
<path d="M2.5060 35.7143
L2.5536 35.8096
" />
<path d="M2.5536 35.8096
L2.6012 35.8572
" />
<path d="M2.6012 35.8572
L2.6964 35.9048
" />
<path d="M2.6964 35.9048
L2.8869 35.9048
" />
<path d="M2.8869 35.9048
L2.9821 35.8572
" />
<path d="M2.9821 35.8572
L3.0298 35.8096
" />
<path d="M3.0298 35.8096
L3.0774 35.7143
" />
<path d="M3.0774 35.7143
L3.0774 34.9048
" />
<path d="M3.3155 36.0001
L4.0774 36.0001
" />
<path d="M4.3155 35.9048
L4.3155 34.9048
" />
<path d="M4.3155 34.9048
L4.6964 34.9048
" />
<path d="M4.6964 34.9048
L4.7917 34.9524
" />
<path d="M4.7917 34.9524
L4.8393 35.0001
" />
<path d="M4.8393 35.0001
L4.8869 35.0953
" />
<path d="M4.8869 35.0953
L4.8869 35.2382
" />
<path d="M4.8869 35.2382
L4.8393 35.3334
" />
<path d="M4.8393 35.3334
L4.7917 35.3810
" />
<path d="M4.7917 35.3810
L4.6964 35.4286
" />
<path d="M4.6964 35.4286
L4.3155 35.4286
" />
<path d="M5.3155 35.9048
L5.3155 35.2382
" />
<path d="M5.3155 35.4286
L5.3631 35.3334
" />
<path d="M5.3631 35.3334
L5.4107 35.2858
" />
<path d="M5.4107 35.2858
L5.5060 35.2382
" />
<path d="M5.5060 35.2382
L5.6012 35.2382
" />
<path d="M6.0774 35.9048
L5.9821 35.8572
" />
<path d="M5.9821 35.8572
L5.9345 35.8096
" />
<path d="M5.9345 35.8096
L5.8869 35.7143
" />
<path d="M5.8869 35.7143
L5.8869 35.4286
" />
<path d="M5.8869 35.4286
L5.9345 35.3334
" />
<path d="M5.9345 35.3334
L5.9821 35.2858
" />
<path d="M5.9821 35.2858
L6.0774 35.2382
" />
<path d="M6.0774 35.2382
L6.2202 35.2382
" />
<path d="M6.2202 35.2382
L6.3155 35.2858
" />
<path d="M6.3155 35.2858
L6.3631 35.3334
" />
<path d="M6.3631 35.3334
L6.4107 35.4286
" />
<path d="M6.4107 35.4286
L6.4107 35.7143
" />
<path d="M6.4107 35.7143
L6.3631 35.8096
" />
<path d="M6.3631 35.8096
L6.3155 35.8572
" />
<path d="M6.3155 35.8572
L6.2202 35.9048
" />
<path d="M6.2202 35.9048
L6.0774 35.9048
" />
<path d="M6.8393 35.9048
L6.8393 34.9048
" />
<path d="M6.8393 34.9048
L7.1726 35.6191
" />
<path d="M7.1726 35.6191
L7.5060 34.9048
" />
<path d="M7.5060 34.9048
L7.5060 35.9048
" />
<path d="M7.9821 35.9048
L7.9821 35.2382
" />
<path d="M7.9821 34.9048
L7.9345 34.9524
" />
<path d="M7.9345 34.9524
L7.9821 35.0001
" />
<path d="M7.9821 35.0001
L8.0298 34.9524
" />
<path d="M8.0298 34.9524
L7.9821 34.9048
" />
<path d="M7.9821 34.9048
L7.9821 35.0001
" />
<path d="M8.8869 35.8572
L8.7917 35.9048
" />
<path d="M8.7917 35.9048
L8.6012 35.9048
" />
<path d="M8.6012 35.9048
L8.5060 35.8572
" />
<path d="M8.5060 35.8572
L8.4583 35.8096
" />
<path d="M8.4583 35.8096
L8.4107 35.7143
" />
<path d="M8.4107 35.7143
L8.4107 35.4286
" />
<path d="M8.4107 35.4286
L8.4583 35.3334
" />
<path d="M8.4583 35.3334
L8.5060 35.2858
" />
<path d="M8.5060 35.2858
L8.6012 35.2382
" />
<path d="M8.6012 35.2382
L8.7917 35.2382
" />
<path d="M8.7917 35.2382
L8.8869 35.2858
" />
<path d="M9.3155 35.9048
L9.3155 35.2382
" />
<path d="M9.3155 35.4286
L9.3631 35.3334
" />
<path d="M9.3631 35.3334
L9.4107 35.2858
" />
<path d="M9.4107 35.2858
L9.5060 35.2382
" />
<path d="M9.5060 35.2382
L9.6012 35.2382
" />
<path d="M10.0774 35.9048
L9.9821 35.8572
" />
<path d="M9.9821 35.8572
L9.9345 35.8096
" />
<path d="M9.9345 35.8096
L9.8869 35.7143
" />
<path d="M9.8869 35.7143
L9.8869 35.4286
" />
<path d="M9.8869 35.4286
L9.9345 35.3334
" />
<path d="M9.9345 35.3334
L9.9821 35.2858
" />
<path d="M9.9821 35.2858
L10.0774 35.2382
" />
<path d="M10.0774 35.2382
L10.2202 35.2382
" />
<path d="M10.2202 35.2382
L10.3155 35.2858
" />
<path d="M10.3155 35.2858
L10.3631 35.3334
" />
<path d="M10.3631 35.3334
L10.4107 35.4286
" />
<path d="M10.4107 35.4286
L10.4107 35.7143
" />
<path d="M10.4107 35.7143
L10.3631 35.8096
" />
<path d="M10.3631 35.8096
L10.3155 35.8572
" />
<path d="M10.3155 35.8572
L10.2202 35.9048
" />
<path d="M10.2202 35.9048
L10.0774 35.9048
" />
<path d="M10.6012 36.0001
L11.3631 36.0001
" />
<path d="M11.6012 35.9048
L11.6012 34.9048
" />
<path d="M11.6012 34.9048
L11.8393 34.9048
" />
<path d="M11.8393 34.9048
L11.9821 34.9524
" />
<path d="M11.9821 34.9524
L12.0774 35.0477
" />
<path d="M12.0774 35.0477
L12.1250 35.1429
" />
<path d="M12.1250 35.1429
L12.1726 35.3334
" />
<path d="M12.1726 35.3334
L12.1726 35.4762
" />
<path d="M12.1726 35.4762
L12.1250 35.6667
" />
<path d="M12.1250 35.6667
L12.0774 35.7620
" />
<path d="M12.0774 35.7620
L11.9821 35.8572
" />
<path d="M11.9821 35.8572
L11.8393 35.9048
" />
<path d="M11.8393 35.9048
L11.6012 35.9048
" />
<path d="M12.6012 35.9048
L12.6012 34.9048
" />
<path d="M13.0774 35.9048
L13.0774 34.9048
" />
<path d="M13.0774 34.9048
L13.4583 34.9048
" />
<path d="M13.4583 34.9048
L13.5536 34.9524
" />
<path d="M13.5536 34.9524
L13.6012 35.0001
" />
<path d="M13.6012 35.0001
L13.6488 35.0953
" />
<path d="M13.6488 35.0953
L13.6488 35.2382
" />
<path d="M13.6488 35.2382
L13.6012 35.3334
" />
<path d="M13.6012 35.3334
L13.5536 35.3810
" />
<path d="M13.5536 35.3810
L13.4583 35.4286
" />
<path d="M13.4583 35.4286
L13.0774 35.4286
" />
<path d="M14.0774 35.5239
L14.8393 35.5239
" />
<path d="M15.2679 35.0001
L15.3155 34.9524
" />
<path d="M15.3155 34.9524
L15.4107 34.9048
" />
<path d="M15.4107 34.9048
L15.6488 34.9048
" />
<path d="M15.6488 34.9048
L15.7440 34.9524
" />
<path d="M15.7440 34.9524
L15.7917 35.0001
" />
<path d="M15.7917 35.0001
L15.8393 35.0953
" />
<path d="M15.8393 35.0953
L15.8393 35.1905
" />
<path d="M15.8393 35.1905
L15.7917 35.3334
" />
<path d="M15.7917 35.3334
L15.2202 35.9048
" />
<path d="M15.2202 35.9048
L15.8393 35.9048
" />
<path d="M16.6964 35.2382
L16.6964 35.9048
" />
<path d="M16.4583 34.8572
L16.2202 35.5715
" />
<path d="M16.2202 35.5715
L16.8393 35.5715
" />
<path d="M16.9821 36.0001
L17.7440 36.0001
" />
<path d="M17.9345 35.8572
L18.0774 35.9048
" />
<path d="M18.0774 35.9048
L18.3155 35.9048
" />
<path d="M18.3155 35.9048
L18.4107 35.8572
" />
<path d="M18.4107 35.8572
L18.4583 35.8096
" />
<path d="M18.4583 35.8096
L18.5060 35.7143
" />
<path d="M18.5060 35.7143
L18.5060 35.6191
" />
<path d="M18.5060 35.6191
L18.4583 35.5239
" />
<path d="M18.4583 35.5239
L18.4107 35.4762
" />
<path d="M18.4107 35.4762
L18.3155 35.4286
" />
<path d="M18.3155 35.4286
L18.1250 35.3810
" />
<path d="M18.1250 35.3810
L18.0298 35.3334
" />
<path d="M18.0298 35.3334
L17.9821 35.2858
" />
<path d="M17.9821 35.2858
L17.9345 35.1905
" />
<path d="M17.9345 35.1905
L17.9345 35.0953
" />
<path d="M17.9345 35.0953
L17.9821 35.0001
" />
<path d="M17.9821 35.0001
L18.0298 34.9524
" />
<path d="M18.0298 34.9524
L18.1250 34.9048
" />
<path d="M18.1250 34.9048
L18.3631 34.9048
" />
<path d="M18.3631 34.9048
L18.5060 34.9524
" />
<path d="M19.0774 35.9048
L18.9821 35.8572
" />
<path d="M18.9821 35.8572
L18.9345 35.8096
" />
<path d="M18.9345 35.8096
L18.8869 35.7143
" />
<path d="M18.8869 35.7143
L18.8869 35.4286
" />
<path d="M18.8869 35.4286
L18.9345 35.3334
" />
<path d="M18.9345 35.3334
L18.9821 35.2858
" />
<path d="M18.9821 35.2858
L19.0774 35.2382
" />
<path d="M19.0774 35.2382
L19.2202 35.2382
" />
<path d="M19.2202 35.2382
L19.3155 35.2858
" />
<path d="M19.3155 35.2858
L19.3631 35.3334
" />
<path d="M19.3631 35.3334
L19.4107 35.4286
" />
<path d="M19.4107 35.4286
L19.4107 35.7143
" />
<path d="M19.4107 35.7143
L19.3631 35.8096
" />
<path d="M19.3631 35.8096
L19.3155 35.8572
" />
<path d="M19.3155 35.8572
L19.2202 35.9048
" />
<path d="M19.2202 35.9048
L19.0774 35.9048
" />
<path d="M20.2679 35.8572
L20.1726 35.9048
" />
<path d="M20.1726 35.9048
L19.9821 35.9048
" />
<path d="M19.9821 35.9048
L19.8869 35.8572
" />
<path d="M19.8869 35.8572
L19.8393 35.8096
" />
<path d="M19.8393 35.8096
L19.7917 35.7143
" />
<path d="M19.7917 35.7143
L19.7917 35.4286
" />
<path d="M19.7917 35.4286
L19.8393 35.3334
" />
<path d="M19.8393 35.3334
L19.8869 35.2858
" />
<path d="M19.8869 35.2858
L19.9821 35.2382
" />
<path d="M19.9821 35.2382
L20.1726 35.2382
" />
<path d="M20.1726 35.2382
L20.2679 35.2858
" />
<path d="M20.6964 35.9048
L20.6964 34.9048
" />
<path d="M20.7917 35.5239
L21.0774 35.9048
" />
<path d="M21.0774 35.2382
L20.6964 35.6191
" />
<path d="M21.8869 35.8572
L21.7917 35.9048
" />
<path d="M21.7917 35.9048
L21.6012 35.9048
" />
<path d="M21.6012 35.9048
L21.5060 35.8572
" />
<path d="M21.5060 35.8572
L21.4583 35.7620
" />
<path d="M21.4583 35.7620
L21.4583 35.3810
" />
<path d="M21.4583 35.3810
L21.5060 35.2858
" />
<path d="M21.5060 35.2858
L21.6012 35.2382
" />
<path d="M21.6012 35.2382
L21.7917 35.2382
" />
<path d="M21.7917 35.2382
L21.8869 35.2858
" />
<path d="M21.8869 35.2858
L21.9345 35.3810
" />
<path d="M21.9345 35.3810
L21.9345 35.4762
" />
<path d="M21.9345 35.4762
L21.4583 35.5715
" />
<path d="M22.2202 35.2382
L22.6012 35.2382
" />
<path d="M22.3631 34.9048
L22.3631 35.7620
" />
<path d="M22.3631 35.7620
L22.4107 35.8572
" />
<path d="M22.4107 35.8572
L22.5060 35.9048
" />
<path d="M22.5060 35.9048
L22.6012 35.9048
" />
</g><g transform="rotate(-90.000000 11.4107 17.7500)">
<text x="11.4107" y="18.2500"
textLength="4.5357" font-size="1.3333" lengthAdjust="spacingAndGlyphs"
text-anchor="middle" opacity="0" stroke-opacity="0">REF**</text>
</g>
<g class="stroked-text"><desc>REF**</desc>
<path d="M11.8655 19.0833
L11.3893 19.4167
" />
<path d="M11.8655 19.6548
L10.8655 19.6548
" />
<path d="M10.8655 19.6548
L10.8655 19.2738
" />
<path d="M10.8655 19.2738
L10.9132 19.1786
" />
<path d="M10.9132 19.1786
L10.9608 19.1310
" />
<path d="M10.9608 19.1310
L11.0560 19.0833
" />
<path d="M11.0560 19.0833
L11.1989 19.0833
" />
<path d="M11.1989 19.0833
L11.2941 19.1310
" />
<path d="M11.2941 19.1310
L11.3417 19.1786
" />
<path d="M11.3417 19.1786
L11.3893 19.2738
" />
<path d="M11.3893 19.2738
L11.3893 19.6548
" />
<path d="M11.3417 18.6548
L11.3417 18.3214
" />
<path d="M11.8655 18.1786
L11.8655 18.6548
" />
<path d="M11.8655 18.6548
L10.8655 18.6548
" />
<path d="M10.8655 18.6548
L10.8655 18.1786
" />
<path d="M11.3417 17.4167
L11.3417 17.7500
" />
<path d="M11.8655 17.7500
L10.8655 17.7500
" />
<path d="M10.8655 17.7500
L10.8655 17.2738
" />
<path d="M10.8655 16.7500
L11.1036 16.7500
" />
<path d="M11.0084 16.9881
L11.1036 16.7500
" />
<path d="M11.1036 16.7500
L11.0084 16.5119
" />
<path d="M11.2941 16.8929
L11.1036 16.7500
" />
<path d="M11.1036 16.7500
L11.2941 16.6071
" />
<path d="M10.8655 15.9881
L11.1036 15.9881
" />
<path d="M11.0084 16.2262
L11.1036 15.9881
" />
<path d="M11.1036 15.9881
L11.0084 15.7500
" />
<path d="M11.2941 16.1310
L11.1036 15.9881
" />
<path d="M11.1036 15.9881
L11.2941 15.8452
" />
</g><path style="fill:none; 
stroke:#AFAFAF; stroke-width:0.1000; stroke-opacity:1; 
stroke-linecap:round; stroke-linejoin:round;fill:none"
d="M 2.5207,1.2300
20.3007,1.2300
20.3007,34.2500
2.5207,34.2500
Z" /> 
<path style="fill:none; 
stroke:#AFAFAF; stroke-width:0.1000; stroke-opacity:1; 
stroke-linecap:round; stroke-linejoin:round;fill:none"
d="M 6.9107,0.0500
15.9107,0.0500
15.9107,1.2300
6.9107,1.2300
Z" /> 
</g>
<g style="fill:none; 
stroke:#AFAFAF; stroke-width:0.0500; stroke-opacity:1; 
stroke-linecap:round; stroke-linejoin:round;">
<g transform="rotate(-90.000000 3.7907 5.0500)">
<text x="3.7907" y="5.3500"
textLength="0.6014" font-size="0.8000" lengthAdjust="spacingAndGlyphs"
text-anchor="middle" opacity="0" stroke-opacity="0">1</text>
</g>
<g class="stroked-text"><desc>1</desc>
<path d="M4.0657 4.8786
L4.0657 5.2214
" />
<path d="M4.0657 5.0500
L3.4657 5.0500
" />
<path d="M3.4657 5.0500
L3.5514 5.1071
" />
<path d="M3.5514 5.1071
L3.6085 5.1643
" />
<path d="M3.6085 5.1643
L3.6371 5.2214
" />
</g><path style="fill:none; 
stroke:#AFAFAF; stroke-width:0.0212; stroke-opacity:1; 
stroke-linecap:round; stroke-linejoin:round;fill:none"
d="M 3.1907,4.3300
3.2044,4.2611
3.2434,4.2027
3.3018,4.1637
3.3707,4.1500
4.2107,4.1500
4.2796,4.1637
4.3380,4.2027
4.3770,4.2611
4.3907,4.3300
4.3907,5.7700
4.3770,5.8389
4.3380,5.8973
4.2796,5.9363
4.2107,5.9500
3.3707,5.9500
3.3018,5.9363
3.2434,5.8973
3.2044,5.8389
3.1907,5.7700
Z" /> 
</g>
<g style="fill:none; 
stroke:#AFAFAF; stroke-width:0.0500; stroke-opacity:1; 
stroke-linecap:round; stroke-linejoin:round;">
<g transform="rotate(-90.000000 3.7907 7.5900)">
<text x="3.7907" y="7.8900"
textLength="0.6014" font-size="0.8000" lengthAdjust="spacingAndGlyphs"
text-anchor="middle" opacity="0" stroke-opacity="0">2</text>
</g>
<g class="stroked-text"><desc>2</desc>
<path d="M3.5228 7.7614
L3.4943 7.7329
" />
<path d="M3.4943 7.7329
L3.4657 7.6757
" />
<path d="M3.4657 7.6757
L3.4657 7.5329
" />
<path d="M3.4657 7.5329
L3.4943 7.4757
" />
<path d="M3.4943 7.4757
L3.5228 7.4471
" />
<path d="M3.5228 7.4471
L3.5800 7.4186
" />
<path d="M3.5800 7.4186
L3.6371 7.4186
" />
<path d="M3.6371 7.4186
L3.7228 7.4471
" />
<path d="M3.7228 7.4471
L4.0657 7.7900
" />
<path d="M4.0657 7.7900
L4.0657 7.4186
" />
</g></g>
<g style="fill:none; 
stroke:#AFAFAF; stroke-width:0.0212; stroke-opacity:1; 
stroke-linecap:round; stroke-linejoin:round;">
<path d="M3.1907 7.2900
L3.1907 7.8900
" />
<path d="M3.1907 7.8900 A0.6000 0.6000 0.0 0 0 4.3907 7.8900" />
<path d="M4.3907 7.8900
L4.3907 7.2900
" />
<path d="M4.3907 7.2900 A0.6000 0.6000 0.0 0 0 3.1907 7.2900" />
</g>
<g style="fill:none; 
stroke:#AFAFAF; stroke-width:0.0500; stroke-opacity:1; 
stroke-linecap:round; stroke-linejoin:round;">
<g transform="rotate(-90.000000 3.7907 10.1300)">
<text x="3.7907" y="10.4300"
textLength="0.6014" font-size="0.8000" lengthAdjust="spacingAndGlyphs"
text-anchor="middle" opacity="0" stroke-opacity="0">3</text>
</g>
<g class="stroked-text"><desc>3</desc>
<path d="M3.4657 10.3300
L3.4657 9.9586
" />
<path d="M3.4657 9.9586
L3.6943 10.1586
" />
<path d="M3.6943 10.1586
L3.6943 10.0729
" />
<path d="M3.6943 10.0729
L3.7228 10.0157
" />
<path d="M3.7228 10.0157
L3.7514 9.9871
" />
<path d="M3.7514 9.9871
L3.8085 9.9586
" />
<path d="M3.8085 9.9586
L3.9514 9.9586
" />
<path d="M3.9514 9.9586
L4.0085 9.9871
" />
<path d="M4.0085 9.9871
L4.0371 10.0157
" />
<path d="M4.0371 10.0157
L4.0657 10.0729
" />
<path d="M4.0657 10.0729
L4.0657 10.2443
" />
<path d="M4.0657 10.2443
L4.0371 10.3014
" />
<path d="M4.0371 10.3014
L4.0085 10.3300
" />
</g></g>
<g style="fill:none; 
stroke:#AFAFAF; stroke-width:0.0212; stroke-opacity:1; 
stroke-linecap:round; stroke-linejoin:round;">
<path d="M3.1907 9.8300
L3.1907 10.4300
" />
<path d="M3.1907 10.4300 A0.6000 0.6000 0.0 0 0 4.3907 10.4300" />
<path d="M4.3907 10.4300
L4.3907 9.8300
" />
<path d="M4.3907 9.8300 A0.6000 0.6000 0.0 0 0 3.1907 9.8300" />
</g>
<g style="fill:none; 
stroke:#AFAFAF; stroke-width:0.0500; stroke-opacity:1; 
stroke-linecap:round; stroke-linejoin:round;">
<g transform="rotate(-90.000000 3.7907 12.6700)">
<text x="3.7907" y="12.9700"
textLength="0.6014" font-size="0.8000" lengthAdjust="spacingAndGlyphs"
text-anchor="middle" opacity="0" stroke-opacity="0">4</text>
</g>
<g class="stroked-text"><desc>4</desc>
<path d="M3.6657 12.5557
L4.0657 12.5557
" />
<path d="M3.4371 12.6986
L3.8657 12.8414
" />
<path d="M3.8657 12.8414
L3.8657 12.4700
" />
</g></g>
<g style="fill:none; 
stroke:#AFAFAF; stroke-width:0.0212; stroke-opacity:1; 
stroke-linecap:round; stroke-linejoin:round;">
<path d="M3.1907 12.3700
L3.1907 12.9700
" />
<path d="M3.1907 12.9700 A0.6000 0.6000 0.0 0 0 4.3907 12.9700" />
<path d="M4.3907 12.9700
L4.3907 12.3700
" />
<path d="M4.3907 12.3700 A0.6000 0.6000 0.0 0 0 3.1907 12.3700" />
</g>
<g style="fill:none; 
stroke:#AFAFAF; stroke-width:0.0500; stroke-opacity:1; 
stroke-linecap:round; stroke-linejoin:round;">
<g transform="rotate(-90.000000 3.7907 15.2100)">
<text x="3.7907" y="15.5100"
textLength="0.6014" font-size="0.8000" lengthAdjust="spacingAndGlyphs"
text-anchor="middle" opacity="0" stroke-opacity="0">5</text>
</g>
<g class="stroked-text"><desc>5</desc>
<path d="M3.4657 15.0671
L3.4657 15.3529
" />
<path d="M3.4657 15.3529
L3.7514 15.3814
" />
<path d="M3.7514 15.3814
L3.7228 15.3529
" />
<path d="M3.7228 15.3529
L3.6943 15.2957
" />
<path d="M3.6943 15.2957
L3.6943 15.1529
" />
<path d="M3.6943 15.1529
L3.7228 15.0957
" />
<path d="M3.7228 15.0957
L3.7514 15.0671
" />
<path d="M3.7514 15.0671
L3.8085 15.0386
" />
<path d="M3.8085 15.0386
L3.9514 15.0386
" />
<path d="M3.9514 15.0386
L4.0085 15.0671
" />
<path d="M4.0085 15.0671
L4.0371 15.0957
" />
<path d="M4.0371 15.0957
L4.0657 15.1529
" />
<path d="M4.0657 15.1529
L4.0657 15.2957
" />
<path d="M4.0657 15.2957
L4.0371 15.3529
" />
<path d="M4.0371 15.3529
L4.0085 15.3814
" />
</g></g>
<g style="fill:none; 
stroke:#AFAFAF; stroke-width:0.0212; stroke-opacity:1; 
stroke-linecap:round; stroke-linejoin:round;">
<path d="M3.1907 14.9100
L3.1907 15.5100
" />
<path d="M3.1907 15.5100 A0.6000 0.6000 0.0 0 0 4.3907 15.5100" />
<path d="M4.3907 15.5100
L4.3907 14.9100
" />
<path d="M4.3907 14.9100 A0.6000 0.6000 0.0 0 0 3.1907 14.9100" />
</g>
<g style="fill:none; 
stroke:#AFAFAF; stroke-width:0.0500; stroke-opacity:1; 
stroke-linecap:round; stroke-linejoin:round;">
<g transform="rotate(-90.000000 3.7907 17.7500)">
<text x="3.7907" y="18.0500"
textLength="0.6014" font-size="0.8000" lengthAdjust="spacingAndGlyphs"
text-anchor="middle" opacity="0" stroke-opacity="0">6</text>
</g>
<g class="stroked-text"><desc>6</desc>
<path d="M3.4657 17.6357
L3.4657 17.7500
" />
<path d="M3.4657 17.7500
L3.4943 17.8071
" />
<path d="M3.4943 17.8071
L3.5228 17.8357
" />
<path d="M3.5228 17.8357
L3.6085 17.8929
" />
<path d="M3.6085 17.8929
L3.7228 17.9214
" />
<path d="M3.7228 17.9214
L3.9514 17.9214
" />
<path d="M3.9514 17.9214
L4.0085 17.8929
" />
<path d="M4.0085 17.8929
L4.0371 17.8643
" />
<path d="M4.0371 17.8643
L4.0657 17.8071
" />
<path d="M4.0657 17.8071
L4.0657 17.6929
" />
<path d="M4.0657 17.6929
L4.0371 17.6357
" />
<path d="M4.0371 17.6357
L4.0085 17.6071
" />
<path d="M4.0085 17.6071
L3.9514 17.5786
" />
<path d="M3.9514 17.5786
L3.8085 17.5786
" />
<path d="M3.8085 17.5786
L3.7514 17.6071
" />
<path d="M3.7514 17.6071
L3.7228 17.6357
" />
<path d="M3.7228 17.6357
L3.6943 17.6929
" />
<path d="M3.6943 17.6929
L3.6943 17.8071
" />
<path d="M3.6943 17.8071
L3.7228 17.8643
" />
<path d="M3.7228 17.8643
L3.7514 17.8929
" />
<path d="M3.7514 17.8929
L3.8085 17.9214
" />
</g></g>
<g style="fill:none; 
stroke:#AFAFAF; stroke-width:0.0212; stroke-opacity:1; 
stroke-linecap:round; stroke-linejoin:round;">
<path d="M3.1907 17.4500
L3.1907 18.0500
" />
<path d="M3.1907 18.0500 A0.6000 0.6000 0.0 0 0 4.3907 18.0500" />
<path d="M4.3907 18.0500
L4.3907 17.4500
" />
<path d="M4.3907 17.4500 A0.6000 0.6000 0.0 0 0 3.1907 17.4500" />
</g>
<g style="fill:none; 
stroke:#AFAFAF; stroke-width:0.0500; stroke-opacity:1; 
stroke-linecap:round; stroke-linejoin:round;">
<g transform="rotate(-90.000000 3.7907 20.2900)">
<text x="3.7907" y="20.5900"
textLength="0.6014" font-size="0.8000" lengthAdjust="spacingAndGlyphs"
text-anchor="middle" opacity="0" stroke-opacity="0">7</text>
</g>
<g class="stroked-text"><desc>7</desc>
<path d="M3.4657 20.4900
L3.4657 20.0900
" />
<path d="M3.4657 20.0900
L4.0657 20.3471
" />
</g></g>
<g style="fill:none; 
stroke:#AFAFAF; stroke-width:0.0212; stroke-opacity:1; 
stroke-linecap:round; stroke-linejoin:round;">
<path d="M3.1907 19.9900
L3.1907 20.5900
" />
<path d="M3.1907 20.5900 A0.6000 0.6000 0.0 0 0 4.3907 20.5900" />
<path d="M4.3907 20.5900
L4.3907 19.9900
" />
<path d="M4.3907 19.9900 A0.6000 0.6000 0.0 0 0 3.1907 19.9900" />
</g>
<g style="fill:none; 
stroke:#AFAFAF; stroke-width:0.0500; stroke-opacity:1; 
stroke-linecap:round; stroke-linejoin:round;">
<g transform="rotate(-90.000000 3.7907 22.8300)">
<text x="3.7907" y="23.1300"
textLength="0.6014" font-size="0.8000" lengthAdjust="spacingAndGlyphs"
text-anchor="middle" opacity="0" stroke-opacity="0">8</text>
</g>
<g class="stroked-text"><desc>8</desc>
<path d="M3.7228 22.8871
L3.6943 22.9443
" />
<path d="M3.6943 22.9443
L3.6657 22.9729
" />
<path d="M3.6657 22.9729
L3.6085 23.0014
" />
<path d="M3.6085 23.0014
L3.5800 23.0014
" />
<path d="M3.5800 23.0014
L3.5228 22.9729
" />
<path d="M3.5228 22.9729
L3.4943 22.9443
" />
<path d="M3.4943 22.9443
L3.4657 22.8871
" />
<path d="M3.4657 22.8871
L3.4657 22.7729
" />
<path d="M3.4657 22.7729
L3.4943 22.7157
" />
<path d="M3.4943 22.7157
L3.5228 22.6871
" />
<path d="M3.5228 22.6871
L3.5800 22.6586
" />
<path d="M3.5800 22.6586
L3.6085 22.6586
" />
<path d="M3.6085 22.6586
L3.6657 22.6871
" />
<path d="M3.6657 22.6871
L3.6943 22.7157
" />
<path d="M3.6943 22.7157
L3.7228 22.7729
" />
<path d="M3.7228 22.7729
L3.7228 22.8871
" />
<path d="M3.7228 22.8871
L3.7514 22.9443
" />
<path d="M3.7514 22.9443
L3.7800 22.9729
" />
<path d="M3.7800 22.9729
L3.8371 23.0014
" />
<path d="M3.8371 23.0014
L3.9514 23.0014
" />
<path d="M3.9514 23.0014
L4.0085 22.9729
" />
<path d="M4.0085 22.9729
L4.0371 22.9443
" />
<path d="M4.0371 22.9443
L4.0657 22.8871
" />
<path d="M4.0657 22.8871
L4.0657 22.7729
" />
<path d="M4.0657 22.7729
L4.0371 22.7157
" />
<path d="M4.0371 22.7157
L4.0085 22.6871
" />
<path d="M4.0085 22.6871
L3.9514 22.6586
" />
<path d="M3.9514 22.6586
L3.8371 22.6586
" />
<path d="M3.8371 22.6586
L3.7800 22.6871
" />
<path d="M3.7800 22.6871
L3.7514 22.7157
" />
<path d="M3.7514 22.7157
L3.7228 22.7729
" />
</g></g>
<g style="fill:none; 
stroke:#AFAFAF; stroke-width:0.0212; stroke-opacity:1; 
stroke-linecap:round; stroke-linejoin:round;">
<path d="M3.1907 22.5300
L3.1907 23.1300
" />
<path d="M3.1907 23.1300 A0.6000 0.6000 0.0 0 0 4.3907 23.1300" />
<path d="M4.3907 23.1300
L4.3907 22.5300
" />
<path d="M4.3907 22.5300 A0.6000 0.6000 0.0 0 0 3.1907 22.5300" />
</g>
<g style="fill:none; 
stroke:#AFAFAF; stroke-width:0.0500; stroke-opacity:1; 
stroke-linecap:round; stroke-linejoin:round;">
<g transform="rotate(-90.000000 3.7907 25.3700)">
<text x="3.7907" y="25.6700"
textLength="0.6014" font-size="0.8000" lengthAdjust="spacingAndGlyphs"
text-anchor="middle" opacity="0" stroke-opacity="0">9</text>
</g>
<g class="stroked-text"><desc>9</desc>
<path d="M4.0657 25.4843
L4.0657 25.3700
" />
<path d="M4.0657 25.3700
L4.0371 25.3129
" />
<path d="M4.0371 25.3129
L4.0085 25.2843
" />
<path d="M4.0085 25.2843
L3.9228 25.2271
" />
<path d="M3.9228 25.2271
L3.8085 25.1986
" />
<path d="M3.8085 25.1986
L3.5800 25.1986
" />
<path d="M3.5800 25.1986
L3.5228 25.2271
" />
<path d="M3.5228 25.2271
L3.4943 25.2557
" />
<path d="M3.4943 25.2557
L3.4657 25.3129
" />
<path d="M3.4657 25.3129
L3.4657 25.4271
" />
<path d="M3.4657 25.4271
L3.4943 25.4843
" />
<path d="M3.4943 25.4843
L3.5228 25.5129
" />
<path d="M3.5228 25.5129
L3.5800 25.5414
" />
<path d="M3.5800 25.5414
L3.7228 25.5414
" />
<path d="M3.7228 25.5414
L3.7800 25.5129
" />
<path d="M3.7800 25.5129
L3.8085 25.4843
" />
<path d="M3.8085 25.4843
L3.8371 25.4271
" />
<path d="M3.8371 25.4271
L3.8371 25.3129
" />
<path d="M3.8371 25.3129
L3.8085 25.2557
" />
<path d="M3.8085 25.2557
L3.7800 25.2271
" />
<path d="M3.7800 25.2271
L3.7228 25.1986
" />
</g></g>
<g style="fill:none; 
stroke:#AFAFAF; stroke-width:0.0212; stroke-opacity:1; 
stroke-linecap:round; stroke-linejoin:round;">
<path d="M3.1907 25.0700
L3.1907 25.6700
" />
<path d="M3.1907 25.6700 A0.6000 0.6000 0.0 0 0 4.3907 25.6700" />
<path d="M4.3907 25.6700
L4.3907 25.0700
" />
<path d="M4.3907 25.0700 A0.6000 0.6000 0.0 0 0 3.1907 25.0700" />
</g>
<g style="fill:none; 
stroke:#AFAFAF; stroke-width:0.0500; stroke-opacity:1; 
stroke-linecap:round; stroke-linejoin:round;">
<g transform="rotate(-90.000000 3.7907 27.9100)">
<text x="3.7907" y="28.2100"
textLength="1.1729" font-size="0.8000" lengthAdjust="spacingAndGlyphs"
text-anchor="middle" opacity="0" stroke-opacity="0">10</text>
</g>
<g class="stroked-text"><desc>10</desc>
<path d="M4.0657 28.0243
L4.0657 28.3671
" />
<path d="M4.0657 28.1957
L3.4657 28.1957
" />
<path d="M3.4657 28.1957
L3.5514 28.2529
" />
<path d="M3.5514 28.2529
L3.6085 28.3100
" />
<path d="M3.6085 28.3100
L3.6371 28.3671
" />
<path d="M3.4657 27.6529
L3.4657 27.5957
" />
<path d="M3.4657 27.5957
L3.4943 27.5386
" />
<path d="M3.4943 27.5386
L3.5228 27.5100
" />
<path d="M3.5228 27.5100
L3.5800 27.4814
" />
<path d="M3.5800 27.4814
L3.6943 27.4529
" />
<path d="M3.6943 27.4529
L3.8371 27.4529
" />
<path d="M3.8371 27.4529
L3.9514 27.4814
" />
<path d="M3.9514 27.4814
L4.0085 27.5100
" />
<path d="M4.0085 27.5100
L4.0371 27.5386
" />
<path d="M4.0371 27.5386
L4.0657 27.5957
" />
<path d="M4.0657 27.5957
L4.0657 27.6529
" />
<path d="M4.0657 27.6529
L4.0371 27.7100
" />
<path d="M4.0371 27.7100
L4.0085 27.7386
" />
<path d="M4.0085 27.7386
L3.9514 27.7671
" />
<path d="M3.9514 27.7671
L3.8371 27.7957
" />
<path d="M3.8371 27.7957
L3.6943 27.7957
" />
<path d="M3.6943 27.7957
L3.5800 27.7671
" />
<path d="M3.5800 27.7671
L3.5228 27.7386
" />
<path d="M3.5228 27.7386
L3.4943 27.7100
" />
<path d="M3.4943 27.7100
L3.4657 27.6529
" />
</g></g>
<g style="fill:none; 
stroke:#AFAFAF; stroke-width:0.0212; stroke-opacity:1; 
stroke-linecap:round; stroke-linejoin:round;">
<path d="M3.1907 27.6100
L3.1907 28.2100
" />
<path d="M3.1907 28.2100 A0.6000 0.6000 0.0 0 0 4.3907 28.2100" />
<path d="M4.3907 28.2100
L4.3907 27.6100
" />
<path d="M4.3907 27.6100 A0.6000 0.6000 0.0 0 0 3.1907 27.6100" />
</g>
<g style="fill:none; 
stroke:#AFAFAF; stroke-width:0.0500; stroke-opacity:1; 
stroke-linecap:round; stroke-linejoin:round;">
<g transform="rotate(-90.000000 3.7907 30.4500)">
<text x="3.7907" y="30.7500"
textLength="1.1729" font-size="0.8000" lengthAdjust="spacingAndGlyphs"
text-anchor="middle" opacity="0" stroke-opacity="0">11</text>
</g>
<g class="stroked-text"><desc>11</desc>
<path d="M4.0657 30.5643
L4.0657 30.9071
" />
<path d="M4.0657 30.7357
L3.4657 30.7357
" />
<path d="M3.4657 30.7357
L3.5514 30.7929
" />
<path d="M3.5514 30.7929
L3.6085 30.8500
" />
<path d="M3.6085 30.8500
L3.6371 30.9071
" />
<path d="M4.0657 29.9929
L4.0657 30.3357
" />
<path d="M4.0657 30.1643
L3.4657 30.1643
" />
<path d="M3.4657 30.1643
L3.5514 30.2214
" />
<path d="M3.5514 30.2214
L3.6085 30.2786
" />
<path d="M3.6085 30.2786
L3.6371 30.3357
" />
</g></g>
<g style="fill:none; 
stroke:#AFAFAF; stroke-width:0.0212; stroke-opacity:1; 
stroke-linecap:round; stroke-linejoin:round;">
<path d="M3.1907 30.1500
L3.1907 30.7500
" />
<path d="M3.1907 30.7500 A0.6000 0.6000 0.0 0 0 4.3907 30.7500" />
<path d="M4.3907 30.7500
L4.3907 30.1500
" />
<path d="M4.3907 30.1500 A0.6000 0.6000 0.0 0 0 3.1907 30.1500" />
</g>
<g style="fill:none; 
stroke:#AFAFAF; stroke-width:0.0500; stroke-opacity:1; 
stroke-linecap:round; stroke-linejoin:round;">
<g transform="rotate(-90.000000 3.7907 32.9900)">
<text x="3.7907" y="33.2900"
textLength="1.1729" font-size="0.8000" lengthAdjust="spacingAndGlyphs"
text-anchor="middle" opacity="0" stroke-opacity="0">12</text>
</g>
<g class="stroked-text"><desc>12</desc>
<path d="M4.0657 33.1043
L4.0657 33.4471
" />
<path d="M4.0657 33.2757
L3.4657 33.2757
" />
<path d="M3.4657 33.2757
L3.5514 33.3329
" />
<path d="M3.5514 33.3329
L3.6085 33.3900
" />
<path d="M3.6085 33.3900
L3.6371 33.4471
" />
<path d="M3.5228 32.8757
L3.4943 32.8471
" />
<path d="M3.4943 32.8471
L3.4657 32.7900
" />
<path d="M3.4657 32.7900
L3.4657 32.6471
" />
<path d="M3.4657 32.6471
L3.4943 32.5900
" />
<path d="M3.4943 32.5900
L3.5228 32.5614
" />
<path d="M3.5228 32.5614
L3.5800 32.5329
" />
<path d="M3.5800 32.5329
L3.6371 32.5329
" />
<path d="M3.6371 32.5329
L3.7228 32.5614
" />
<path d="M3.7228 32.5614
L4.0657 32.9043
" />
<path d="M4.0657 32.9043
L4.0657 32.5329
" />
</g></g>
<g style="fill:none; 
stroke:#AFAFAF; stroke-width:0.0212; stroke-opacity:1; 
stroke-linecap:round; stroke-linejoin:round;">
<path d="M3.1907 32.6900
L3.1907 33.2900
" />
<path d="M3.1907 33.2900 A0.6000 0.6000 0.0 0 0 4.3907 33.2900" />
<path d="M4.3907 33.2900
L4.3907 32.6900
" />
<path d="M4.3907 32.6900 A0.6000 0.6000 0.0 0 0 3.1907 32.6900" />
</g>
<g style="fill:none; 
stroke:#AFAFAF; stroke-width:0.0500; stroke-opacity:1; 
stroke-linecap:round; stroke-linejoin:round;">
<g transform="rotate(-90.000000 19.0307 32.9900)">
<text x="19.0307" y="33.2900"
textLength="1.1729" font-size="0.8000" lengthAdjust="spacingAndGlyphs"
text-anchor="middle" opacity="0" stroke-opacity="0">13</text>
</g>
<g class="stroked-text"><desc>13</desc>
<path d="M19.3057 33.1043
L19.3057 33.4471
" />
<path d="M19.3057 33.2757
L18.7057 33.2757
" />
<path d="M18.7057 33.2757
L18.7914 33.3329
" />
<path d="M18.7914 33.3329
L18.8485 33.3900
" />
<path d="M18.8485 33.3900
L18.8771 33.4471
" />
<path d="M18.7057 32.9043
L18.7057 32.5329
" />
<path d="M18.7057 32.5329
L18.9343 32.7329
" />
<path d="M18.9343 32.7329
L18.9343 32.6471
" />
<path d="M18.9343 32.6471
L18.9628 32.5900
" />
<path d="M18.9628 32.5900
L18.9914 32.5614
" />
<path d="M18.9914 32.5614
L19.0485 32.5329
" />
<path d="M19.0485 32.5329
L19.1914 32.5329
" />
<path d="M19.1914 32.5329
L19.2485 32.5614
" />
<path d="M19.2485 32.5614
L19.2771 32.5900
" />
<path d="M19.2771 32.5900
L19.3057 32.6471
" />
<path d="M19.3057 32.6471
L19.3057 32.8186
" />
<path d="M19.3057 32.8186
L19.2771 32.8757
" />
<path d="M19.2771 32.8757
L19.2485 32.9043
" />
</g></g>
<g style="fill:none; 
stroke:#AFAFAF; stroke-width:0.0212; stroke-opacity:1; 
stroke-linecap:round; stroke-linejoin:round;">
<path d="M18.4307 32.6900
L18.4307 33.2900
" />
<path d="M18.4307 33.2900 A0.6000 0.6000 0.0 0 0 19.6307 33.2900" />
<path d="M19.6307 33.2900
L19.6307 32.6900
" />
<path d="M19.6307 32.6900 A0.6000 0.6000 0.0 0 0 18.4307 32.6900" />
</g>
<g style="fill:none; 
stroke:#AFAFAF; stroke-width:0.0500; stroke-opacity:1; 
stroke-linecap:round; stroke-linejoin:round;">
<g transform="rotate(-90.000000 19.0307 30.4500)">
<text x="19.0307" y="30.7500"
textLength="1.1729" font-size="0.8000" lengthAdjust="spacingAndGlyphs"
text-anchor="middle" opacity="0" stroke-opacity="0">14</text>
</g>
<g class="stroked-text"><desc>14</desc>
<path d="M19.3057 30.5643
L19.3057 30.9071
" />
<path d="M19.3057 30.7357
L18.7057 30.7357
" />
<path d="M18.7057 30.7357
L18.7914 30.7929
" />
<path d="M18.7914 30.7929
L18.8485 30.8500
" />
<path d="M18.8485 30.8500
L18.8771 30.9071
" />
<path d="M18.9057 30.0500
L19.3057 30.0500
" />
<path d="M18.6771 30.1929
L19.1057 30.3357
" />
<path d="M19.1057 30.3357
L19.1057 29.9643
" />
</g></g>
<g style="fill:none; 
stroke:#AFAFAF; stroke-width:0.0212; stroke-opacity:1; 
stroke-linecap:round; stroke-linejoin:round;">
<path d="M18.4307 30.1500
L18.4307 30.7500
" />
<path d="M18.4307 30.7500 A0.6000 0.6000 0.0 0 0 19.6307 30.7500" />
<path d="M19.6307 30.7500
L19.6307 30.1500
" />
<path d="M19.6307 30.1500 A0.6000 0.6000 0.0 0 0 18.4307 30.1500" />
</g>
<g style="fill:none; 
stroke:#AFAFAF; stroke-width:0.0500; stroke-opacity:1; 
stroke-linecap:round; stroke-linejoin:round;">
<g transform="rotate(-90.000000 19.0307 27.9100)">
<text x="19.0307" y="28.2100"
textLength="1.1729" font-size="0.8000" lengthAdjust="spacingAndGlyphs"
text-anchor="middle" opacity="0" stroke-opacity="0">15</text>
</g>
<g class="stroked-text"><desc>15</desc>
<path d="M19.3057 28.0243
L19.3057 28.3671
" />
<path d="M19.3057 28.1957
L18.7057 28.1957
" />
<path d="M18.7057 28.1957
L18.7914 28.2529
" />
<path d="M18.7914 28.2529
L18.8485 28.3100
" />
<path d="M18.8485 28.3100
L18.8771 28.3671
" />
<path d="M18.7057 27.4814
L18.7057 27.7671
" />
<path d="M18.7057 27.7671
L18.9914 27.7957
" />
<path d="M18.9914 27.7957
L18.9628 27.7671
" />
<path d="M18.9628 27.7671
L18.9343 27.7100
" />
<path d="M18.9343 27.7100
L18.9343 27.5671
" />
<path d="M18.9343 27.5671
L18.9628 27.5100
" />
<path d="M18.9628 27.5100
L18.9914 27.4814
" />
<path d="M18.9914 27.4814
L19.0485 27.4529
" />
<path d="M19.0485 27.4529
L19.1914 27.4529
" />
<path d="M19.1914 27.4529
L19.2485 27.4814
" />
<path d="M19.2485 27.4814
L19.2771 27.5100
" />
<path d="M19.2771 27.5100
L19.3057 27.5671
" />
<path d="M19.3057 27.5671
L19.3057 27.7100
" />
<path d="M19.3057 27.7100
L19.2771 27.7671
" />
<path d="M19.2771 27.7671
L19.2485 27.7957
" />
</g></g>
<g style="fill:none; 
stroke:#AFAFAF; stroke-width:0.0212; stroke-opacity:1; 
stroke-linecap:round; stroke-linejoin:round;">
<path d="M18.4307 27.6100
L18.4307 28.2100
" />
<path d="M18.4307 28.2100 A0.6000 0.6000 0.0 0 0 19.6307 28.2100" />
<path d="M19.6307 28.2100
L19.6307 27.6100
" />
<path d="M19.6307 27.6100 A0.6000 0.6000 0.0 0 0 18.4307 27.6100" />
</g>
<g style="fill:none; 
stroke:#AFAFAF; stroke-width:0.0500; stroke-opacity:1; 
stroke-linecap:round; stroke-linejoin:round;">
<g transform="rotate(-90.000000 19.0307 25.3700)">
<text x="19.0307" y="25.6700"
textLength="1.1729" font-size="0.8000" lengthAdjust="spacingAndGlyphs"
text-anchor="middle" opacity="0" stroke-opacity="0">16</text>
</g>
<g class="stroked-text"><desc>16</desc>
<path d="M19.3057 25.4843
L19.3057 25.8271
" />
<path d="M19.3057 25.6557
L18.7057 25.6557
" />
<path d="M18.7057 25.6557
L18.7914 25.7129
" />
<path d="M18.7914 25.7129
L18.8485 25.7700
" />
<path d="M18.8485 25.7700
L18.8771 25.8271
" />
<path d="M18.7057 24.9700
L18.7057 25.0843
" />
<path d="M18.7057 25.0843
L18.7343 25.1414
" />
<path d="M18.7343 25.1414
L18.7628 25.1700
" />
<path d="M18.7628 25.1700
L18.8485 25.2271
" />
<path d="M18.8485 25.2271
L18.9628 25.2557
" />
<path d="M18.9628 25.2557
L19.1914 25.2557
" />
<path d="M19.1914 25.2557
L19.2485 25.2271
" />
<path d="M19.2485 25.2271
L19.2771 25.1986
" />
<path d="M19.2771 25.1986
L19.3057 25.1414
" />
<path d="M19.3057 25.1414
L19.3057 25.0271
" />
<path d="M19.3057 25.0271
L19.2771 24.9700
" />
<path d="M19.2771 24.9700
L19.2485 24.9414
" />
<path d="M19.2485 24.9414
L19.1914 24.9129
" />
<path d="M19.1914 24.9129
L19.0485 24.9129
" />
<path d="M19.0485 24.9129
L18.9914 24.9414
" />
<path d="M18.9914 24.9414
L18.9628 24.9700
" />
<path d="M18.9628 24.9700
L18.9343 25.0271
" />
<path d="M18.9343 25.0271
L18.9343 25.1414
" />
<path d="M18.9343 25.1414
L18.9628 25.1986
" />
<path d="M18.9628 25.1986
L18.9914 25.2271
" />
<path d="M18.9914 25.2271
L19.0485 25.2557
" />
</g></g>
<g style="fill:none; 
stroke:#AFAFAF; stroke-width:0.0212; stroke-opacity:1; 
stroke-linecap:round; stroke-linejoin:round;">
<path d="M18.4307 25.0700
L18.4307 25.6700
" />
<path d="M18.4307 25.6700 A0.6000 0.6000 0.0 0 0 19.6307 25.6700" />
<path d="M19.6307 25.6700
L19.6307 25.0700
" />
<path d="M19.6307 25.0700 A0.6000 0.6000 0.0 0 0 18.4307 25.0700" />
</g>
<g style="fill:none; 
stroke:#AFAFAF; stroke-width:0.0500; stroke-opacity:1; 
stroke-linecap:round; stroke-linejoin:round;">
<g transform="rotate(-90.000000 19.0307 22.8300)">
<text x="19.0307" y="23.1300"
textLength="1.1729" font-size="0.8000" lengthAdjust="spacingAndGlyphs"
text-anchor="middle" opacity="0" stroke-opacity="0">17</text>
</g>
<g class="stroked-text"><desc>17</desc>
<path d="M19.3057 22.9443
L19.3057 23.2871
" />
<path d="M19.3057 23.1157
L18.7057 23.1157
" />
<path d="M18.7057 23.1157
L18.7914 23.1729
" />
<path d="M18.7914 23.1729
L18.8485 23.2300
" />
<path d="M18.8485 23.2300
L18.8771 23.2871
" />
<path d="M18.7057 22.7443
L18.7057 22.3443
" />
<path d="M18.7057 22.3443
L19.3057 22.6014
" />
</g></g>
<g style="fill:none; 
stroke:#AFAFAF; stroke-width:0.0212; stroke-opacity:1; 
stroke-linecap:round; stroke-linejoin:round;">
<path d="M18.4307 22.5300
L18.4307 23.1300
" />
<path d="M18.4307 23.1300 A0.6000 0.6000 0.0 0 0 19.6307 23.1300" />
<path d="M19.6307 23.1300
L19.6307 22.5300
" />
<path d="M19.6307 22.5300 A0.6000 0.6000 0.0 0 0 18.4307 22.5300" />
</g>
<g style="fill:none; 
stroke:#AFAFAF; stroke-width:0.0500; stroke-opacity:1; 
stroke-linecap:round; stroke-linejoin:round;">
<g transform="rotate(-90.000000 19.0307 20.2900)">
<text x="19.0307" y="20.5900"
textLength="1.1729" font-size="0.8000" lengthAdjust="spacingAndGlyphs"
text-anchor="middle" opacity="0" stroke-opacity="0">18</text>
</g>
<g class="stroked-text"><desc>18</desc>
<path d="M19.3057 20.4043
L19.3057 20.7471
" />
<path d="M19.3057 20.5757
L18.7057 20.5757
" />
<path d="M18.7057 20.5757
L18.7914 20.6329
" />
<path d="M18.7914 20.6329
L18.8485 20.6900
" />
<path d="M18.8485 20.6900
L18.8771 20.7471
" />
<path d="M18.9628 20.0614
L18.9343 20.1186
" />
<path d="M18.9343 20.1186
L18.9057 20.1471
" />
<path d="M18.9057 20.1471
L18.8485 20.1757
" />
<path d="M18.8485 20.1757
L18.8200 20.1757
" />
<path d="M18.8200 20.1757
L18.7628 20.1471
" />
<path d="M18.7628 20.1471
L18.7343 20.1186
" />
<path d="M18.7343 20.1186
L18.7057 20.0614
" />
<path d="M18.7057 20.0614
L18.7057 19.9471
" />
<path d="M18.7057 19.9471
L18.7343 19.8900
" />
<path d="M18.7343 19.8900
L18.7628 19.8614
" />
<path d="M18.7628 19.8614
L18.8200 19.8329
" />
<path d="M18.8200 19.8329
L18.8485 19.8329
" />
<path d="M18.8485 19.8329
L18.9057 19.8614
" />
<path d="M18.9057 19.8614
L18.9343 19.8900
" />
<path d="M18.9343 19.8900
L18.9628 19.9471
" />
<path d="M18.9628 19.9471
L18.9628 20.0614
" />
<path d="M18.9628 20.0614
L18.9914 20.1186
" />
<path d="M18.9914 20.1186
L19.0200 20.1471
" />
<path d="M19.0200 20.1471
L19.0771 20.1757
" />
<path d="M19.0771 20.1757
L19.1914 20.1757
" />
<path d="M19.1914 20.1757
L19.2485 20.1471
" />
<path d="M19.2485 20.1471
L19.2771 20.1186
" />
<path d="M19.2771 20.1186
L19.3057 20.0614
" />
<path d="M19.3057 20.0614
L19.3057 19.9471
" />
<path d="M19.3057 19.9471
L19.2771 19.8900
" />
<path d="M19.2771 19.8900
L19.2485 19.8614
" />
<path d="M19.2485 19.8614
L19.1914 19.8329
" />
<path d="M19.1914 19.8329
L19.0771 19.8329
" />
<path d="M19.0771 19.8329
L19.0200 19.8614
" />
<path d="M19.0200 19.8614
L18.9914 19.8900
" />
<path d="M18.9914 19.8900
L18.9628 19.9471
" />
</g></g>
<g style="fill:none; 
stroke:#AFAFAF; stroke-width:0.0212; stroke-opacity:1; 
stroke-linecap:round; stroke-linejoin:round;">
<path d="M18.4307 19.9900
L18.4307 20.5900
" />
<path d="M18.4307 20.5900 A0.6000 0.6000 0.0 0 0 19.6307 20.5900" />
<path d="M19.6307 20.5900
L19.6307 19.9900
" />
<path d="M19.6307 19.9900 A0.6000 0.6000 0.0 0 0 18.4307 19.9900" />
</g>
<g style="fill:none; 
stroke:#AFAFAF; stroke-width:0.0500; stroke-opacity:1; 
stroke-linecap:round; stroke-linejoin:round;">
<g transform="rotate(-90.000000 19.0307 17.7500)">
<text x="19.0307" y="18.0500"
textLength="1.1729" font-size="0.8000" lengthAdjust="spacingAndGlyphs"
text-anchor="middle" opacity="0" stroke-opacity="0">19</text>
</g>
<g class="stroked-text"><desc>19</desc>
<path d="M19.3057 17.8643
L19.3057 18.2071
" />
<path d="M19.3057 18.0357
L18.7057 18.0357
" />
<path d="M18.7057 18.0357
L18.7914 18.0929
" />
<path d="M18.7914 18.0929
L18.8485 18.1500
" />
<path d="M18.8485 18.1500
L18.8771 18.2071
" />
<path d="M19.3057 17.5786
L19.3057 17.4643
" />
<path d="M19.3057 17.4643
L19.2771 17.4071
" />
<path d="M19.2771 17.4071
L19.2485 17.3786
" />
<path d="M19.2485 17.3786
L19.1628 17.3214
" />
<path d="M19.1628 17.3214
L19.0485 17.2929
" />
<path d="M19.0485 17.2929
L18.8200 17.2929
" />
<path d="M18.8200 17.2929
L18.7628 17.3214
" />
<path d="M18.7628 17.3214
L18.7343 17.3500
" />
<path d="M18.7343 17.3500
L18.7057 17.4071
" />
<path d="M18.7057 17.4071
L18.7057 17.5214
" />
<path d="M18.7057 17.5214
L18.7343 17.5786
" />
<path d="M18.7343 17.5786
L18.7628 17.6071
" />
<path d="M18.7628 17.6071
L18.8200 17.6357
" />
<path d="M18.8200 17.6357
L18.9628 17.6357
" />
<path d="M18.9628 17.6357
L19.0200 17.6071
" />
<path d="M19.0200 17.6071
L19.0485 17.5786
" />
<path d="M19.0485 17.5786
L19.0771 17.5214
" />
<path d="M19.0771 17.5214
L19.0771 17.4071
" />
<path d="M19.0771 17.4071
L19.0485 17.3500
" />
<path d="M19.0485 17.3500
L19.0200 17.3214
" />
<path d="M19.0200 17.3214
L18.9628 17.2929
" />
</g></g>
<g style="fill:none; 
stroke:#AFAFAF; stroke-width:0.0212; stroke-opacity:1; 
stroke-linecap:round; stroke-linejoin:round;">
<path d="M18.4307 17.4500
L18.4307 18.0500
" />
<path d="M18.4307 18.0500 A0.6000 0.6000 0.0 0 0 19.6307 18.0500" />
<path d="M19.6307 18.0500
L19.6307 17.4500
" />
<path d="M19.6307 17.4500 A0.6000 0.6000 0.0 0 0 18.4307 17.4500" />
</g>
<g style="fill:none; 
stroke:#AFAFAF; stroke-width:0.0500; stroke-opacity:1; 
stroke-linecap:round; stroke-linejoin:round;">
<g transform="rotate(-90.000000 19.0307 15.2100)">
<text x="19.0307" y="15.5100"
textLength="1.1729" font-size="0.8000" lengthAdjust="spacingAndGlyphs"
text-anchor="middle" opacity="0" stroke-opacity="0">20</text>
</g>
<g class="stroked-text"><desc>20</desc>
<path d="M18.7628 15.6671
L18.7343 15.6386
" />
<path d="M18.7343 15.6386
L18.7057 15.5814
" />
<path d="M18.7057 15.5814
L18.7057 15.4386
" />
<path d="M18.7057 15.4386
L18.7343 15.3814
" />
<path d="M18.7343 15.3814
L18.7628 15.3529
" />
<path d="M18.7628 15.3529
L18.8200 15.3243
" />
<path d="M18.8200 15.3243
L18.8771 15.3243
" />
<path d="M18.8771 15.3243
L18.9628 15.3529
" />
<path d="M18.9628 15.3529
L19.3057 15.6957
" />
<path d="M19.3057 15.6957
L19.3057 15.3243
" />
<path d="M18.7057 14.9529
L18.7057 14.8957
" />
<path d="M18.7057 14.8957
L18.7343 14.8386
" />
<path d="M18.7343 14.8386
L18.7628 14.8100
" />
<path d="M18.7628 14.8100
L18.8200 14.7814
" />
<path d="M18.8200 14.7814
L18.9343 14.7529
" />
<path d="M18.9343 14.7529
L19.0771 14.7529
" />
<path d="M19.0771 14.7529
L19.1914 14.7814
" />
<path d="M19.1914 14.7814
L19.2485 14.8100
" />
<path d="M19.2485 14.8100
L19.2771 14.8386
" />
<path d="M19.2771 14.8386
L19.3057 14.8957
" />
<path d="M19.3057 14.8957
L19.3057 14.9529
" />
<path d="M19.3057 14.9529
L19.2771 15.0100
" />
<path d="M19.2771 15.0100
L19.2485 15.0386
" />
<path d="M19.2485 15.0386
L19.1914 15.0671
" />
<path d="M19.1914 15.0671
L19.0771 15.0957
" />
<path d="M19.0771 15.0957
L18.9343 15.0957
" />
<path d="M18.9343 15.0957
L18.8200 15.0671
" />
<path d="M18.8200 15.0671
L18.7628 15.0386
" />
<path d="M18.7628 15.0386
L18.7343 15.0100
" />
<path d="M18.7343 15.0100
L18.7057 14.9529
" />
</g></g>
<g style="fill:none; 
stroke:#AFAFAF; stroke-width:0.0212; stroke-opacity:1; 
stroke-linecap:round; stroke-linejoin:round;">
<path d="M18.4307 14.9100
L18.4307 15.5100
" />
<path d="M18.4307 15.5100 A0.6000 0.6000 0.0 0 0 19.6307 15.5100" />
<path d="M19.6307 15.5100
L19.6307 14.9100
" />
<path d="M19.6307 14.9100 A0.6000 0.6000 0.0 0 0 18.4307 14.9100" />
</g>
<g style="fill:none; 
stroke:#AFAFAF; stroke-width:0.0500; stroke-opacity:1; 
stroke-linecap:round; stroke-linejoin:round;">
<g transform="rotate(-90.000000 19.0307 12.6700)">
<text x="19.0307" y="12.9700"
textLength="1.1729" font-size="0.8000" lengthAdjust="spacingAndGlyphs"
text-anchor="middle" opacity="0" stroke-opacity="0">21</text>
</g>
<g class="stroked-text"><desc>21</desc>
<path d="M18.7628 13.1271
L18.7343 13.0986
" />
<path d="M18.7343 13.0986
L18.7057 13.0414
" />
<path d="M18.7057 13.0414
L18.7057 12.8986
" />
<path d="M18.7057 12.8986
L18.7343 12.8414
" />
<path d="M18.7343 12.8414
L18.7628 12.8129
" />
<path d="M18.7628 12.8129
L18.8200 12.7843
" />
<path d="M18.8200 12.7843
L18.8771 12.7843
" />
<path d="M18.8771 12.7843
L18.9628 12.8129
" />
<path d="M18.9628 12.8129
L19.3057 13.1557
" />
<path d="M19.3057 13.1557
L19.3057 12.7843
" />
<path d="M19.3057 12.2129
L19.3057 12.5557
" />
<path d="M19.3057 12.3843
L18.7057 12.3843
" />
<path d="M18.7057 12.3843
L18.7914 12.4414
" />
<path d="M18.7914 12.4414
L18.8485 12.4986
" />
<path d="M18.8485 12.4986
L18.8771 12.5557
" />
</g></g>
<g style="fill:none; 
stroke:#AFAFAF; stroke-width:0.0212; stroke-opacity:1; 
stroke-linecap:round; stroke-linejoin:round;">
<path d="M18.4307 12.3700
L18.4307 12.9700
" />
<path d="M18.4307 12.9700 A0.6000 0.6000 0.0 0 0 19.6307 12.9700" />
<path d="M19.6307 12.9700
L19.6307 12.3700
" />
<path d="M19.6307 12.3700 A0.6000 0.6000 0.0 0 0 18.4307 12.3700" />
</g>
<g style="fill:none; 
stroke:#AFAFAF; stroke-width:0.0500; stroke-opacity:1; 
stroke-linecap:round; stroke-linejoin:round;">
<g transform="rotate(-90.000000 19.0307 10.1300)">
<text x="19.0307" y="10.4300"
textLength="1.1729" font-size="0.8000" lengthAdjust="spacingAndGlyphs"
text-anchor="middle" opacity="0" stroke-opacity="0">22</text>
</g>
<g class="stroked-text"><desc>22</desc>
<path d="M18.7628 10.5871
L18.7343 10.5586
" />
<path d="M18.7343 10.5586
L18.7057 10.5014
" />
<path d="M18.7057 10.5014
L18.7057 10.3586
" />
<path d="M18.7057 10.3586
L18.7343 10.3014
" />
<path d="M18.7343 10.3014
L18.7628 10.2729
" />
<path d="M18.7628 10.2729
L18.8200 10.2443
" />
<path d="M18.8200 10.2443
L18.8771 10.2443
" />
<path d="M18.8771 10.2443
L18.9628 10.2729
" />
<path d="M18.9628 10.2729
L19.3057 10.6157
" />
<path d="M19.3057 10.6157
L19.3057 10.2443
" />
<path d="M18.7628 10.0157
L18.7343 9.9871
" />
<path d="M18.7343 9.9871
L18.7057 9.9300
" />
<path d="M18.7057 9.9300
L18.7057 9.7871
" />
<path d="M18.7057 9.7871
L18.7343 9.7300
" />
<path d="M18.7343 9.7300
L18.7628 9.7014
" />
<path d="M18.7628 9.7014
L18.8200 9.6729
" />
<path d="M18.8200 9.6729
L18.8771 9.6729
" />
<path d="M18.8771 9.6729
L18.9628 9.7014
" />
<path d="M18.9628 9.7014
L19.3057 10.0443
" />
<path d="M19.3057 10.0443
L19.3057 9.6729
" />
</g></g>
<g style="fill:none; 
stroke:#AFAFAF; stroke-width:0.0212; stroke-opacity:1; 
stroke-linecap:round; stroke-linejoin:round;">
<path d="M18.4307 9.8300
L18.4307 10.4300
" />
<path d="M18.4307 10.4300 A0.6000 0.6000 0.0 0 0 19.6307 10.4300" />
<path d="M19.6307 10.4300
L19.6307 9.8300
" />
<path d="M19.6307 9.8300 A0.6000 0.6000 0.0 0 0 18.4307 9.8300" />
</g>
<g style="fill:none; 
stroke:#AFAFAF; stroke-width:0.0500; stroke-opacity:1; 
stroke-linecap:round; stroke-linejoin:round;">
<g transform="rotate(-90.000000 19.0307 7.5900)">
<text x="19.0307" y="7.8900"
textLength="1.1729" font-size="0.8000" lengthAdjust="spacingAndGlyphs"
text-anchor="middle" opacity="0" stroke-opacity="0">23</text>
</g>
<g class="stroked-text"><desc>23</desc>
<path d="M18.7628 8.0471
L18.7343 8.0186
" />
<path d="M18.7343 8.0186
L18.7057 7.9614
" />
<path d="M18.7057 7.9614
L18.7057 7.8186
" />
<path d="M18.7057 7.8186
L18.7343 7.7614
" />
<path d="M18.7343 7.7614
L18.7628 7.7329
" />
<path d="M18.7628 7.7329
L18.8200 7.7043
" />
<path d="M18.8200 7.7043
L18.8771 7.7043
" />
<path d="M18.8771 7.7043
L18.9628 7.7329
" />
<path d="M18.9628 7.7329
L19.3057 8.0757
" />
<path d="M19.3057 8.0757
L19.3057 7.7043
" />
<path d="M18.7057 7.5043
L18.7057 7.1329
" />
<path d="M18.7057 7.1329
L18.9343 7.3329
" />
<path d="M18.9343 7.3329
L18.9343 7.2471
" />
<path d="M18.9343 7.2471
L18.9628 7.1900
" />
<path d="M18.9628 7.1900
L18.9914 7.1614
" />
<path d="M18.9914 7.1614
L19.0485 7.1329
" />
<path d="M19.0485 7.1329
L19.1914 7.1329
" />
<path d="M19.1914 7.1329
L19.2485 7.1614
" />
<path d="M19.2485 7.1614
L19.2771 7.1900
" />
<path d="M19.2771 7.1900
L19.3057 7.2471
" />
<path d="M19.3057 7.2471
L19.3057 7.4186
" />
<path d="M19.3057 7.4186
L19.2771 7.4757
" />
<path d="M19.2771 7.4757
L19.2485 7.5043
" />
</g></g>
<g style="fill:none; 
stroke:#AFAFAF; stroke-width:0.0212; stroke-opacity:1; 
stroke-linecap:round; stroke-linejoin:round;">
<path d="M18.4307 7.2900
L18.4307 7.8900
" />
<path d="M18.4307 7.8900 A0.6000 0.6000 0.0 0 0 19.6307 7.8900" />
<path d="M19.6307 7.8900
L19.6307 7.2900
" />
<path d="M19.6307 7.2900 A0.6000 0.6000 0.0 0 0 18.4307 7.2900" />
</g>
<g style="fill:none; 
stroke:#AFAFAF; stroke-width:0.0500; stroke-opacity:1; 
stroke-linecap:round; stroke-linejoin:round;">
<g transform="rotate(-90.000000 19.0307 5.0500)">
<text x="19.0307" y="5.3500"
textLength="1.1729" font-size="0.8000" lengthAdjust="spacingAndGlyphs"
text-anchor="middle" opacity="0" stroke-opacity="0">24</text>
</g>
<g class="stroked-text"><desc>24</desc>
<path d="M18.7628 5.5071
L18.7343 5.4786
" />
<path d="M18.7343 5.4786
L18.7057 5.4214
" />
<path d="M18.7057 5.4214
L18.7057 5.2786
" />
<path d="M18.7057 5.2786
L18.7343 5.2214
" />
<path d="M18.7343 5.2214
L18.7628 5.1929
" />
<path d="M18.7628 5.1929
L18.8200 5.1643
" />
<path d="M18.8200 5.1643
L18.8771 5.1643
" />
<path d="M18.8771 5.1643
L18.9628 5.1929
" />
<path d="M18.9628 5.1929
L19.3057 5.5357
" />
<path d="M19.3057 5.5357
L19.3057 5.1643
" />
<path d="M18.9057 4.6500
L19.3057 4.6500
" />
<path d="M18.6771 4.7929
L19.1057 4.9357
" />
<path d="M19.1057 4.9357
L19.1057 4.5643
" />
</g></g>
<g style="fill:none; 
stroke:#AFAFAF; stroke-width:0.0212; stroke-opacity:1; 
stroke-linecap:round; stroke-linejoin:round;">
<path d="M18.4307 4.7500
L18.4307 5.3500
" />
<path d="M18.4307 5.3500 A0.6000 0.6000 0.0 0 0 19.6307 5.3500" />
<path d="M19.6307 5.3500
L19.6307 4.7500
" />
<path d="M19.6307 4.7500 A0.6000 0.6000 0.0 0 0 18.4307 4.7500" />
</g> 
</svg>
