<svg xmlns="http://www.w3.org/2000/svg" width="75.744" height="92.16" viewBox="0 0 20.041 24.384">
    <g class="stroked-text" style="fill:none;stroke:#f2eda1;stroke-width:.15;stroke-opacity:1;stroke-linecap:round;stroke-linejoin:round">
        <path d="m8.692 11.935-.334-.476M8.12 11.935v-1M8.12 10.935h.381M8.501 10.935l.095.047M8.596 10.982l.048.048M8.644 11.03l.048.095M8.692 11.125v.143M8.692 11.268l-.048.095M8.644 11.363l-.048.048M8.596 11.411l-.095.048M8.501 11.459h-.38M9.12 11.411h.334M9.596 11.935H9.12M9.12 11.935v-1M9.12 10.935h.476M10.358 11.411h-.333M10.025 11.935v-1M10.025 10.935h.476M11.025 10.935v.238M10.787 11.078l.238.095M11.025 11.173l.238-.095M10.882 11.363l.143-.19M11.025 11.173l.143.19M11.787 10.935v.238M11.549 11.078l.238.095M11.787 11.173l.238-.095M11.644 11.363l.143-.19M11.787 11.173l.143.19"/>
    </g>
    <g style="fill:none;stroke:#f2eda1;stroke-width:.12;stroke-opacity:1;stroke-linecap:round;stroke-linejoin:round">
        <path d="M1.035 2.81h-.81M1.035 2.81V1.3M1.035 5.35v-.44M1.035 7.89v-.44M1.035 10.43v-.44M1.035 12.97v-.44M1.035 15.51v-.44M1.035 17.61v.44M1.035 20.15v.008M17.115 22.058H2.935M19.015 2.81V1.3M19.015 5.35v-.44M19.015 7.89v-.44M19.015 10.43v-.44M19.015 12.97v-.44M19.015 15.51v-.44M19.015 17.61v.44M19.015 20.15v.008M1.035 20.158a1.9 1.9 0 0 0 1.9 1.9M17.115 22.058a1.9 1.9 0 0 0 1.9-1.9"/>
        <path stroke="none" d="m.225 3.3.018-.092.052-.078.078-.052.092-.018h1.92l.092.018.078.052.052.078.018.092v1.12l-.018.092-.052.078-.078.052-.092.018H.465l-.092-.018-.078-.052-.052-.078-.018-.092ZM.225 5.84l.018-.092.052-.078.078-.052.092-.018h1.92l.092.018.078.052.052.078.018.092v1.12l-.018.092-.052.078-.078.052-.092.018H.465l-.092-.018-.078-.052-.052-.078-.018-.092ZM.225 8.38l.018-.092.052-.078.078-.052.092-.018h1.92l.092.018.078.052.052.078.018.092V9.5l-.018.092-.052.078-.078.052-.092.018H.465l-.092-.018-.078-.052-.052-.078L.225 9.5ZM.225 10.92l.018-.092.052-.078.078-.052.092-.018h1.92l.092.018.078.052.052.078.018.092v1.12l-.018.092-.052.078-.078.052-.092.018H.465l-.092-.018-.078-.052-.052-.078-.018-.092ZM.225 13.46l.018-.092.052-.078.078-.052.092-.018h1.92l.092.018.078.052.052.078.018.092v1.12l-.018.092-.052.078-.078.052-.092.018H.465l-.092-.018-.078-.052-.052-.078-.018-.092ZM.225 16l.018-.092.052-.078.078-.052.092-.018h1.92l.092.018.078.052.052.078.018.092v1.12l-.018.092-.052.078-.078.052-.092.018H.465l-.092-.018-.078-.052-.052-.078-.018-.092ZM.225 18.54l.018-.092.052-.078.078-.052.092-.018h1.92l.092.018.078.052.052.078.018.092v1.12l-.018.092-.052.078-.078.052-.092.018H.465l-.092-.018-.078-.052-.052-.078-.018-.092ZM17.425 18.54l.018-.092.052-.078.078-.052.092-.018h1.92l.092.018.078.052.052.078.018.092v1.12l-.018.092-.052.078-.078.052-.092.018h-1.92l-.092-.018-.078-.052-.052-.078-.018-.092ZM17.425 16l.018-.092.052-.078.078-.052.092-.018h1.92l.092.018.078.052.052.078.018.092v1.12l-.018.092-.052.078-.078.052-.092.018h-1.92l-.092-.018-.078-.052-.052-.078-.018-.092ZM17.425 13.46l.018-.092.052-.078.078-.052.092-.018h1.92l.092.018.078.052.052.078.018.092v1.12l-.018.092-.052.078-.078.052-.092.018h-1.92l-.092-.018-.078-.052-.052-.078-.018-.092ZM17.425 10.92l.018-.092.052-.078.078-.052.092-.018h1.92l.092.018.078.052.052.078.018.092v1.12l-.018.092-.052.078-.078.052-.092.018h-1.92l-.092-.018-.078-.052-.052-.078-.018-.092ZM17.425 8.38l.018-.092.052-.078.078-.052.092-.018h1.92l.092.018.078.052.052.078.018.092V9.5l-.018.092-.052.078-.078.052-.092.018h-1.92l-.092-.018-.078-.052-.052-.078-.018-.092ZM17.425 5.84l.018-.092.052-.078.078-.052.092-.018h1.92l.092.018.078.052.052.078.018.092v1.12l-.018.092-.052.078-.078.052-.092.018h-1.92l-.092-.018-.078-.052-.052-.078-.018-.092ZM17.425 3.3l.018-.092.052-.078.078-.052.092-.018h1.92l.092.018.078.052.052.078.018.092v1.12l-.018.092-.052.078-.078.052-.092.018h-1.92l-.092-.018-.078-.052-.052-.078-.018-.092Z" style="fill:#b4a09a;fill-opacity:.9;stroke:none;fill-rule:evenodd"/>
        <path stroke="none" d="m.225 3.3.018-.092.052-.078.078-.052.092-.018h1.92l.092.018.078.052.052.078.018.092v1.12l-.018.092-.052.078-.078.052-.092.018H.465l-.092-.018-.078-.052-.052-.078-.018-.092ZM.225 5.84l.018-.092.052-.078.078-.052.092-.018h1.92l.092.018.078.052.052.078.018.092v1.12l-.018.092-.052.078-.078.052-.092.018H.465l-.092-.018-.078-.052-.052-.078-.018-.092ZM.225 8.38l.018-.092.052-.078.078-.052.092-.018h1.92l.092.018.078.052.052.078.018.092V9.5l-.018.092-.052.078-.078.052-.092.018H.465l-.092-.018-.078-.052-.052-.078L.225 9.5ZM.225 10.92l.018-.092.052-.078.078-.052.092-.018h1.92l.092.018.078.052.052.078.018.092v1.12l-.018.092-.052.078-.078.052-.092.018H.465l-.092-.018-.078-.052-.052-.078-.018-.092ZM.225 13.46l.018-.092.052-.078.078-.052.092-.018h1.92l.092.018.078.052.052.078.018.092v1.12l-.018.092-.052.078-.078.052-.092.018H.465l-.092-.018-.078-.052-.052-.078-.018-.092ZM.225 16l.018-.092.052-.078.078-.052.092-.018h1.92l.092.018.078.052.052.078.018.092v1.12l-.018.092-.052.078-.078.052-.092.018H.465l-.092-.018-.078-.052-.052-.078-.018-.092ZM.225 18.54l.018-.092.052-.078.078-.052.092-.018h1.92l.092.018.078.052.052.078.018.092v1.12l-.018.092-.052.078-.078.052-.092.018H.465l-.092-.018-.078-.052-.052-.078-.018-.092ZM17.425 18.54l.018-.092.052-.078.078-.052.092-.018h1.92l.092.018.078.052.052.078.018.092v1.12l-.018.092-.052.078-.078.052-.092.018h-1.92l-.092-.018-.078-.052-.052-.078-.018-.092ZM17.425 16l.018-.092.052-.078.078-.052.092-.018h1.92l.092.018.078.052.052.078.018.092v1.12l-.018.092-.052.078-.078.052-.092.018h-1.92l-.092-.018-.078-.052-.052-.078-.018-.092ZM17.425 13.46l.018-.092.052-.078.078-.052.092-.018h1.92l.092.018.078.052.052.078.018.092v1.12l-.018.092-.052.078-.078.052-.092.018h-1.92l-.092-.018-.078-.052-.052-.078-.018-.092ZM17.425 10.92l.018-.092.052-.078.078-.052.092-.018h1.92l.092.018.078.052.052.078.018.092v1.12l-.018.092-.052.078-.078.052-.092.018h-1.92l-.092-.018-.078-.052-.052-.078-.018-.092ZM17.425 8.38l.018-.092.052-.078.078-.052.092-.018h1.92l.092.018.078.052.052.078.018.092V9.5l-.018.092-.052.078-.078.052-.092.018h-1.92l-.092-.018-.078-.052-.052-.078-.018-.092ZM17.425 5.84l.018-.092.052-.078.078-.052.092-.018h1.92l.092.018.078.052.052.078.018.092v1.12l-.018.092-.052.078-.078.052-.092.018h-1.92l-.092-.018-.078-.052-.052-.078-.018-.092ZM17.425 3.3l.018-.092.052-.078.078-.052.092-.018h1.92l.092.018.078.052.052.078.018.092v1.12l-.018.092-.052.078-.078.052-.092.018h-1.92l-.092-.018-.078-.052-.052-.078-.018-.092Z" style="fill:#c83434;fill-opacity:1;stroke:none;fill-rule:evenodd"/>
    </g>
    <g style="fill:none;stroke:#afafaf;stroke-width:.15;stroke-opacity:1;stroke-linecap:round;stroke-linejoin:round">
        <g class="stroked-text">
            <path d="M1.525 24v-1M1.525 23l.333.714M1.858 23.714 2.192 23M2.192 23v1M3.24 23.905l-.048.047M3.192 23.952 3.049 24M3.049 24h-.095M2.954 24l-.143-.048M2.81 23.952l-.095-.095M2.716 23.857l-.048-.095M2.668 23.762l-.048-.19M2.62 23.571v-.143M2.62 23.428l.048-.19M2.668 23.238l.047-.095M2.716 23.143l.095-.096M2.81 23.047 2.955 23M2.954 23h.095M3.049 23l.143.047M3.192 23.047l.047.048M3.668 23v.81M3.668 23.81l.047.095M3.716 23.905l.047.047M3.763 23.952l.095.048M3.858 24h.19M4.049 24l.095-.048M4.144 23.952l.048-.047M4.192 23.905l.047-.096M4.24 23.81V23M4.477 24.095h.762M5.382 23l.667 1M6.049 23l-.667 1M6.43 24v-1M6.858 23.714h.477M6.763 24l.333-1M7.096 23l.334 1M7.954 23h.19M8.144 23l.095.047M8.24 23.047l.095.096M8.335 23.143l.047.19M8.382 23.333v.334M8.382 23.667l-.047.19M8.335 23.857l-.096.095M8.24 23.952 8.143 24M8.144 24h-.19M7.954 24l-.096-.048M7.858 23.952l-.095-.095M7.763 23.857l-.048-.19M7.716 23.667v-.334M7.716 23.333l.047-.19M7.763 23.143l.095-.096M7.858 23.047 7.954 23M8.573 24.095h.761M10.096 23.047 10.001 23M10.001 23h-.143M9.858 23l-.143.047M9.716 23.047l-.096.096M9.62 23.143l-.047.095M9.573 23.238l-.048.19M9.525 23.428v.143M9.525 23.571l.048.19M9.573 23.762l.047.095M9.62 23.857l.096.095M9.716 23.952l.142.048M9.858 24h.096M9.954 24l.142-.048M10.096 23.952l.048-.047M10.144 23.905v-.334M10.144 23.571h-.19M10.954 23.952l-.096.048M10.858 24h-.19M10.668 24l-.095-.048M10.573 23.952l-.048-.095M10.525 23.857v-.381M10.525 23.476l.048-.095M10.573 23.38l.095-.047M10.668 23.333h.19M10.858 23.333l.096.048M10.954 23.38l.047.096M11.001 23.476v.095M11.001 23.571l-.476.095M11.43 23.333V24M11.43 23.428l.047-.047M11.477 23.38l.096-.047M11.573 23.333h.143M11.716 23.333l.095.048M11.81 23.38l.048.096M11.858 23.476V24M12.716 23.952 12.62 24M12.62 24h-.19M12.43 24l-.095-.048M12.335 23.952l-.048-.095M12.287 23.857v-.381M12.287 23.476l.047-.095M12.335 23.38l.095-.047M12.43 23.333h.19M12.62 23.333l.096.048M12.716 23.38l.047.096M12.763 23.476v.095M12.763 23.571l-.476.095M13.192 24v-.667M13.192 23.524l.047-.096M13.24 23.428l.047-.047M13.287 23.38l.095-.047M13.382 23.333h.095M13.81 24v-.667M13.81 23l-.047.047M13.763 23.047l.048.048M13.81 23.095l.048-.048M13.858 23.047 13.811 23M13.81 23v.095M14.716 23.952 14.62 24M14.62 24h-.19M14.43 24l-.095-.048M14.335 23.952l-.048-.047M14.287 23.905l-.048-.096M14.24 23.81v-.286M14.24 23.524l.047-.096M14.287 23.428l.047-.047M14.335 23.38l.095-.047M14.43 23.333h.19M14.62 23.333l.096.048M14.906 24.095h.762M15.858 23.952l.143.048M16.001 24h.238M16.24 24l.095-.048M16.334 23.952l.048-.047M16.382 23.905l.048-.096M16.43 23.81v-.096M16.43 23.714l-.048-.095M16.382 23.619l-.048-.048M16.334 23.571l-.095-.047M16.24 23.524l-.191-.048M16.049 23.476l-.095-.048M15.954 23.428l-.048-.047M15.906 23.38l-.048-.095M15.858 23.286v-.096M15.858 23.19l.048-.095M15.906 23.095l.048-.048M15.954 23.047l.095-.047M16.049 23h.238M16.287 23l.143.047M16.858 24v-1M16.858 23l.334.714M17.192 23.714l.333-.714M17.525 23v1M18.001 24v-1M18.001 23h.238M18.24 23l.142.047M18.382 23.047l.095.096M18.477 23.143l.048.095M18.525 23.238l.048.19M18.573 23.428v.143M18.573 23.571l-.048.19M18.525 23.762l-.048.095M18.477 23.857l-.095.095M18.382 23.952 18.24 24M18.24 24H18"/>
        </g>
        <g class="stroked-text">
            <path d="m8.692 11.959-.334-.477M8.12 11.959v-1M8.12 10.959h.381M8.501 10.959l.095.047M8.596 11.006l.048.048M8.644 11.054l.048.095M8.692 11.149v.143M8.692 11.292l-.048.095M8.644 11.387l-.048.048M8.596 11.435l-.095.047M8.501 11.482h-.38M9.12 11.435h.334M9.596 11.959H9.12M9.12 11.959v-1M9.12 10.959h.476M10.358 11.435h-.333M10.025 11.959v-1M10.025 10.959h.476M11.025 10.959v.238M10.787 11.101l.238.096M11.025 11.197l.238-.096M10.882 11.387l.143-.19M11.025 11.197l.143.19M11.787 10.959v.238M11.549 11.101l.238.096M11.787 11.197l.238-.096M11.644 11.387l.143-.19M11.787 11.197l.143.19"/>
        </g>
    </g>
    <g style="fill:none;stroke:#afafaf;stroke-width:.1;stroke-opacity:1;stroke-linecap:round;stroke-linejoin:round">
        <path d="M1.135 20.158V2.85M2.935 1.05h14.18M17.115 21.958H2.935M18.915 2.85v17.307"/>
        <path d="M5.525.05h9v1h-9Z" style="stroke:#afafaf;stroke-width:.1;stroke-opacity:1;stroke-linecap:round;stroke-linejoin:round;fill:none"/>
        <path d="M2.935 1.05a1.8 1.8 0 0 0-1.8 1.8M1.135 20.158a1.8 1.8 0 0 0 1.8 1.8M18.915 2.85a1.8 1.8 0 0 0-1.8-1.8M17.115 21.958a1.8 1.8 0 0 0 1.8-1.8"/>
    </g>
    <g style="fill:none;stroke:#afafaf;stroke-width:.0667;stroke-opacity:1;stroke-linecap:round;stroke-linejoin:round">
        <g class="stroked-text">
            <path d="M1.654 4.227h-.458M1.425 4.227v-.8M1.425 3.427l-.076.114M1.349 3.54l-.076.077M1.273 3.617l-.077.038"/>
        </g>
        <path d="m.225 3.3.018-.092.052-.078.078-.052.092-.018h1.92l.092.018.078.052.052.078.018.092v1.12l-.018.092-.052.078-.078.052-.092.018H.465l-.092-.018-.078-.052-.052-.078-.018-.092Z" style="stroke:#afafaf;stroke-width:.0212;stroke-opacity:1;stroke-linecap:round;stroke-linejoin:round;fill:none"/>
    </g>
    <g style="fill:none;stroke:#afafaf;stroke-width:.0667;stroke-opacity:1;stroke-linecap:round;stroke-linejoin:round">
        <g class="stroked-text">
            <path d="m1.196 6.043.038-.038M1.235 6.005l.076-.038M1.31 5.967h.191M1.501 5.967l.076.038M1.577 6.005l.038.038M1.616 6.043l.038.076M1.654 6.119v.076M1.654 6.195l-.038.114M1.616 6.31l-.458.457M1.158 6.767h.496"/>
        </g>
        <path d="m.225 5.84.018-.092.052-.078.078-.052.092-.018h1.92l.092.018.078.052.052.078.018.092v1.12l-.018.092-.052.078-.078.052-.092.018H.465l-.092-.018-.078-.052-.052-.078-.018-.092Z" style="stroke:#afafaf;stroke-width:.0212;stroke-opacity:1;stroke-linecap:round;stroke-linejoin:round;fill:none"/>
    </g>
    <g style="fill:none;stroke:#afafaf;stroke-width:.0667;stroke-opacity:1;stroke-linecap:round;stroke-linejoin:round">
        <g class="stroked-text">
            <path d="M1.158 8.507h.496M1.654 8.507l-.267.304M1.387 8.811H1.5M1.501 8.811l.076.039M1.577 8.85l.038.038M1.616 8.888l.038.076M1.654 8.964v.19M1.654 9.154l-.038.076M1.616 9.23l-.039.038M1.577 9.269l-.076.038M1.501 9.307h-.228M1.273 9.307l-.077-.039M1.196 9.269l-.038-.039"/>
        </g>
        <path d="m.225 8.38.018-.092.052-.078.078-.052.092-.018h1.92l.092.018.078.052.052.078.018.092V9.5l-.018.092-.052.078-.078.052-.092.018H.465l-.092-.018-.078-.052-.052-.078L.225 9.5Z" style="stroke:#afafaf;stroke-width:.0212;stroke-opacity:1;stroke-linecap:round;stroke-linejoin:round;fill:none"/>
    </g>
    <g style="fill:none;stroke:#afafaf;stroke-width:.0667;stroke-opacity:1;stroke-linecap:round;stroke-linejoin:round">
        <g class="stroked-text">
            <path d="M1.577 11.313v.534M1.387 11.009l-.19.571M1.196 11.58h.496"/>
        </g>
        <path d="m.225 10.92.018-.092.052-.078.078-.052.092-.018h1.92l.092.018.078.052.052.078.018.092v1.12l-.018.092-.052.078-.078.052-.092.018H.465l-.092-.018-.078-.052-.052-.078-.018-.092Z" style="stroke:#afafaf;stroke-width:.0212;stroke-opacity:1;stroke-linecap:round;stroke-linejoin:round;fill:none"/>
    </g>
    <g style="fill:none;stroke:#afafaf;stroke-width:.0667;stroke-opacity:1;stroke-linecap:round;stroke-linejoin:round">
        <g class="stroked-text">
            <path d="M1.616 13.587h-.382M1.235 13.587l-.039.38M1.196 13.968l.038-.038M1.235 13.93l.076-.039M1.31 13.891h.191M1.501 13.891l.076.039M1.577 13.93l.038.038M1.616 13.968l.038.076M1.654 14.044v.19M1.654 14.234l-.038.076M1.616 14.31l-.039.038M1.577 14.349l-.076.038M1.501 14.387h-.19M1.31 14.387l-.076-.039M1.235 14.349l-.039-.039"/>
        </g>
        <path d="m.225 13.46.018-.092.052-.078.078-.052.092-.018h1.92l.092.018.078.052.052.078.018.092v1.12l-.018.092-.052.078-.078.052-.092.018H.465l-.092-.018-.078-.052-.052-.078-.018-.092Z" style="stroke:#afafaf;stroke-width:.0212;stroke-opacity:1;stroke-linecap:round;stroke-linejoin:round;fill:none"/>
    </g>
    <g style="fill:none;stroke:#afafaf;stroke-width:.0667;stroke-opacity:1;stroke-linecap:round;stroke-linejoin:round">
        <g class="stroked-text">
            <path d="M1.577 16.127h-.152M1.425 16.127l-.076.038M1.349 16.165l-.038.038M1.31 16.203l-.076.114M1.235 16.317l-.039.152M1.196 16.47v.304M1.196 16.774l.038.076M1.235 16.85l.038.038M1.273 16.889l.076.038M1.349 16.927H1.5M1.501 16.927l.076-.038M1.577 16.889l.038-.039M1.616 16.85l.038-.076M1.654 16.774v-.19M1.654 16.584l-.038-.076M1.616 16.508l-.039-.038M1.577 16.47l-.076-.039M1.501 16.431H1.35M1.349 16.431l-.076.038M1.273 16.47l-.038.038M1.235 16.508l-.039.076"/>
        </g>
        <path d="m.225 16 .018-.092.052-.078.078-.052.092-.018h1.92l.092.018.078.052.052.078.018.092v1.12l-.018.092-.052.078-.078.052-.092.018H.465l-.092-.018-.078-.052-.052-.078-.018-.092Z" style="stroke:#afafaf;stroke-width:.0212;stroke-opacity:1;stroke-linecap:round;stroke-linejoin:round;fill:none"/>
    </g>
    <g style="fill:none;stroke:#afafaf;stroke-width:.0667;stroke-opacity:1;stroke-linecap:round;stroke-linejoin:round">
        <g class="stroked-text">
            <path d="M1.158 18.667h.534M1.692 18.667l-.343.8"/>
        </g>
        <path d="m.225 18.54.018-.092.052-.078.078-.052.092-.018h1.92l.092.018.078.052.052.078.018.092v1.12l-.018.092-.052.078-.078.052-.092.018H.465l-.092-.018-.078-.052-.052-.078-.018-.092Z" style="stroke:#afafaf;stroke-width:.0212;stroke-opacity:1;stroke-linecap:round;stroke-linejoin:round;fill:none"/>
    </g>
    <g style="fill:none;stroke:#afafaf;stroke-width:.0667;stroke-opacity:1;stroke-linecap:round;stroke-linejoin:round">
        <g class="stroked-text">
            <path d="m18.549 19.01-.076-.039M18.473 18.971l-.038-.038M18.435 18.933l-.039-.076M18.396 18.857v-.038M18.396 18.819l.038-.076M18.435 18.743l.038-.038M18.473 18.705l.076-.038M18.549 18.667h.152M18.701 18.667l.076.038M18.777 18.705l.038.038M18.816 18.743l.038.076M18.854 18.819v.038M18.854 18.857l-.038.076M18.816 18.933l-.039.038M18.777 18.971l-.076.038M18.701 19.01h-.152M18.549 19.01l-.076.038M18.473 19.048l-.038.038M18.435 19.086l-.039.076M18.396 19.162v.152M18.396 19.314l.038.076M18.435 19.39l.038.038M18.473 19.429l.076.038M18.549 19.467h.152M18.701 19.467l.076-.038M18.777 19.429l.038-.039M18.816 19.39l.038-.076M18.854 19.314v-.152M18.854 19.162l-.038-.076M18.816 19.086l-.039-.038M18.777 19.048l-.076-.038"/>
        </g>
        <path d="m17.425 18.54.018-.092.052-.078.078-.052.092-.018h1.92l.092.018.078.052.052.078.018.092v1.12l-.018.092-.052.078-.078.052-.092.018h-1.92l-.092-.018-.078-.052-.052-.078-.018-.092Z" style="stroke:#afafaf;stroke-width:.0212;stroke-opacity:1;stroke-linecap:round;stroke-linejoin:round;fill:none"/>
    </g>
    <g style="fill:none;stroke:#afafaf;stroke-width:.0667;stroke-opacity:1;stroke-linecap:round;stroke-linejoin:round">
        <g class="stroked-text">
            <path d="M18.473 16.927h.152M18.625 16.927l.076-.038M18.701 16.889l.038-.039M18.74 16.85l.076-.114M18.816 16.736l.038-.152M18.854 16.584v-.305M18.854 16.279l-.038-.076M18.816 16.203l-.039-.038M18.777 16.165l-.076-.038M18.701 16.127h-.152M18.549 16.127l-.076.038M18.473 16.165l-.038.038M18.435 16.203l-.039.076M18.396 16.279v.19M18.396 16.47l.038.076M18.435 16.546l.038.038M18.473 16.584l.076.038M18.549 16.622h.152M18.701 16.622l.076-.038M18.777 16.584l.038-.038M18.816 16.546l.038-.076"/>
        </g>
        <path d="m17.425 16 .018-.092.052-.078.078-.052.092-.018h1.92l.092.018.078.052.052.078.018.092v1.12l-.018.092-.052.078-.078.052-.092.018h-1.92l-.092-.018-.078-.052-.052-.078-.018-.092Z" style="stroke:#afafaf;stroke-width:.0212;stroke-opacity:1;stroke-linecap:round;stroke-linejoin:round;fill:none"/>
    </g>
    <g style="fill:none;stroke:#afafaf;stroke-width:.0667;stroke-opacity:1;stroke-linecap:round;stroke-linejoin:round">
        <g class="stroked-text">
            <path d="M18.473 14.387h-.457M18.244 14.387v-.8M18.244 13.587l-.076.114M18.168 13.7l-.076.077M18.092 13.777l-.076.038M18.968 13.587h.076M19.044 13.587l.076.038M19.12 13.625l.038.038M19.158 13.663l.038.076M19.196 13.739l.038.152M19.235 13.891v.19M19.235 14.082l-.039.152M19.196 14.234l-.038.076M19.158 14.31l-.038.038M19.12 14.349l-.076.038M19.044 14.387h-.076M18.968 14.387l-.076-.039M18.892 14.349l-.038-.039M18.854 14.31l-.038-.076M18.816 14.234l-.039-.152M18.777 14.082v-.19M18.777 13.891l.038-.152M18.816 13.739l.038-.076M18.854 13.663l.038-.038M18.892 13.625l.076-.038"/>
        </g>
        <path d="m17.425 13.46.018-.092.052-.078.078-.052.092-.018h1.92l.092.018.078.052.052.078.018.092v1.12l-.018.092-.052.078-.078.052-.092.018h-1.92l-.092-.018-.078-.052-.052-.078-.018-.092Z" style="stroke:#afafaf;stroke-width:.0212;stroke-opacity:1;stroke-linecap:round;stroke-linejoin:round;fill:none"/>
    </g>
    <g style="fill:none;stroke:#afafaf;stroke-width:.0667;stroke-opacity:1;stroke-linecap:round;stroke-linejoin:round">
        <g class="stroked-text">
            <path d="M18.473 11.847h-.457M18.244 11.847v-.8M18.244 11.047l-.076.114M18.168 11.16l-.076.077M18.092 11.237l-.076.038M19.235 11.847h-.458M19.006 11.847v-.8M19.006 11.047l-.076.114M18.93 11.16l-.076.077M18.854 11.237l-.077.038"/>
        </g>
        <path d="m17.425 10.92.018-.092.052-.078.078-.052.092-.018h1.92l.092.018.078.052.052.078.018.092v1.12l-.018.092-.052.078-.078.052-.092.018h-1.92l-.092-.018-.078-.052-.052-.078-.018-.092Z" style="stroke:#afafaf;stroke-width:.0212;stroke-opacity:1;stroke-linecap:round;stroke-linejoin:round;fill:none"/>
    </g>
    <g style="fill:none;stroke:#afafaf;stroke-width:.0667;stroke-opacity:1;stroke-linecap:round;stroke-linejoin:round">
        <g class="stroked-text">
            <path d="M18.473 9.307h-.457M18.244 9.307v-.8M18.244 8.507l-.076.114M18.168 8.62l-.076.077M18.092 8.697l-.076.038M18.777 8.583l.038-.038M18.816 8.545l.076-.038M18.892 8.507h.19M19.082 8.507l.076.038M19.158 8.545l.038.038M19.196 8.583l.038.076M19.235 8.659v.076M19.235 8.735l-.039.115M19.196 8.85l-.457.457M18.74 9.307h.495"/>
        </g>
        <path d="m17.425 8.38.018-.092.052-.078.078-.052.092-.018h1.92l.092.018.078.052.052.078.018.092V9.5l-.018.092-.052.078-.078.052-.092.018h-1.92l-.092-.018-.078-.052-.052-.078-.018-.092Z" style="stroke:#afafaf;stroke-width:.0212;stroke-opacity:1;stroke-linecap:round;stroke-linejoin:round;fill:none"/>
    </g>
    <g style="fill:none;stroke:#afafaf;stroke-width:.0667;stroke-opacity:1;stroke-linecap:round;stroke-linejoin:round">
        <g class="stroked-text">
            <path d="M18.473 6.767h-.457M18.244 6.767v-.8M18.244 5.967l-.076.114M18.168 6.08l-.076.077M18.092 6.157l-.076.038M18.74 5.967h.495M19.235 5.967l-.267.304M18.968 6.271h.114M19.082 6.271l.076.038M19.158 6.31l.038.038M19.196 6.348l.038.076M19.235 6.424v.19M19.235 6.614l-.039.076M19.196 6.69l-.038.038M19.158 6.729l-.076.038M19.082 6.767h-.228M18.854 6.767l-.077-.038M18.777 6.729l-.038-.039"/>
        </g>
        <path d="m17.425 5.84.018-.092.052-.078.078-.052.092-.018h1.92l.092.018.078.052.052.078.018.092v1.12l-.018.092-.052.078-.078.052-.092.018h-1.92l-.092-.018-.078-.052-.052-.078-.018-.092Z" style="stroke:#afafaf;stroke-width:.0212;stroke-opacity:1;stroke-linecap:round;stroke-linejoin:round;fill:none"/>
    </g>
    <g style="fill:none;stroke:#afafaf;stroke-width:.0667;stroke-opacity:1;stroke-linecap:round;stroke-linejoin:round">
        <g class="stroked-text">
            <path d="M18.473 4.227h-.457M18.244 4.227v-.8M18.244 3.427l-.076.114M18.168 3.54l-.076.077M18.092 3.617l-.076.038M19.158 3.693v.534M18.968 3.389l-.19.571M18.777 3.96h.496"/>
        </g>
        <path d="m17.425 3.3.018-.092.052-.078.078-.052.092-.018h1.92l.092.018.078.052.052.078.018.092v1.12l-.018.092-.052.078-.078.052-.092.018h-1.92l-.092-.018-.078-.052-.052-.078-.018-.092Z" style="stroke:#afafaf;stroke-width:.0212;stroke-opacity:1;stroke-linecap:round;stroke-linejoin:round;fill:none"/>
    </g>
</svg>
