<svg xmlns="http://www.w3.org/2000/svg" width="75.744" height="104.256" viewBox="0 0 20.041 27.584">
    <g class="stroked-text" style="fill:none;stroke:#f2eda1;stroke-width:.15;stroke-opacity:1;stroke-linecap:round;stroke-linejoin:round">
        <path d="m8.692 12.285-.334-.476M8.12 12.285v-1M8.12 11.285h.381M8.501 11.285l.095.047M8.596 11.332l.048.048M8.644 11.38l.048.095M8.692 11.475v.143M8.692 11.618l-.048.095M8.644 11.713l-.048.048M8.596 11.761l-.095.048M8.501 11.809h-.38M9.12 11.761h.334M9.596 12.285H9.12M9.12 12.285v-1M9.12 11.285h.476M10.358 11.761h-.333M10.025 12.285v-1M10.025 11.285h.476M11.025 11.285v.238M10.787 11.428l.238.095M11.025 11.523l.238-.095M10.882 11.713l.143-.19M11.025 11.523l.143.19M11.787 11.285v.238M11.549 11.428l.238.095M11.787 11.523l.238-.095M11.644 11.713l.143-.19M11.787 11.523l.143.19"/>
    </g>
    <g style="fill:none;stroke:#f2eda1;stroke-width:.12;stroke-opacity:1;stroke-linecap:round;stroke-linejoin:round">
        <path d="M.925 1.89v-.45M.925 4.43v-.44M.925 6.97v-.44M.925 9.51v-.44M.925 12.05v-.44M.925 14.59v-.44M.925 16.69v.44M.925 19.67v-.44M.925 22.21v-.44M2.025 24.95h1.87M5.995 24.95h.44M8.535 24.95h.44M11.515 24.95h-.44M14.055 24.95h-.44M16.154 24.95h1.87M19.125 1.89v-.45M19.125 1.89h.7M19.125 4.43v-.44M19.125 6.97v-.44M19.125 9.51v-.44M19.125 12.05v-.44M19.125 14.59v-.44M19.125 16.69v.44M19.125 19.67v-.44M19.125 22.21v-.44M1.025 24.31a1.1 1.1 0 0 0 1 .64M18.025 24.95a1.1 1.1 0 0 0 1-.64"/>
        <path stroke="none" d="m19.825 3.5-.018.092-.052.078-.078.052-.092.018h-1.92l-.092-.018-.078-.052-.052-.078-.018-.092V2.38l.018-.092.052-.078.078-.052.092-.018h1.92l.092.018.078.052.052.078.018.092ZM17.425 4.92l.018-.092.052-.078.078-.052.092-.018h1.92l.092.018.078.052.052.078.018.092v1.12l-.018.092-.052.078-.078.052-.092.018h-1.92l-.092-.018-.078-.052-.052-.078-.018-.092ZM17.425 7.46l.018-.092.052-.078.078-.052.092-.018h1.92l.092.018.078.052.052.078.018.092v1.12l-.018.092-.052.078-.078.052-.092.018h-1.92l-.092-.018-.078-.052-.052-.078-.018-.092ZM17.425 10l.018-.092.052-.078.078-.052.092-.018h1.92l.092.018.078.052.052.078.018.092v1.12l-.018.092-.052.078-.078.052-.092.018h-1.92l-.092-.018-.078-.052-.052-.078-.018-.092ZM17.425 12.54l.018-.092.052-.078.078-.052.092-.018h1.92l.092.018.078.052.052.078.018.092v1.12l-.018.092-.052.078-.078.052-.092.018h-1.92l-.092-.018-.078-.052-.052-.078-.018-.092ZM17.425 15.08l.018-.092.052-.078.078-.052.092-.018h1.92l.092.018.078.052.052.078.018.092v1.12l-.018.092-.052.078-.078.052-.092.018h-1.92l-.092-.018-.078-.052-.052-.078-.018-.092ZM17.425 17.62l.018-.092.052-.078.078-.052.092-.018h1.92l.092.018.078.052.052.078.018.092v1.12l-.018.092-.052.078-.078.052-.092.018h-1.92l-.092-.018-.078-.052-.052-.078-.018-.092ZM17.425 20.16l.018-.092.052-.078.078-.052.092-.018h1.92l.092.018.078.052.052.078.018.092v1.12l-.018.092-.052.078-.078.052-.092.018h-1.92l-.092-.018-.078-.052-.052-.078-.018-.092ZM17.425 22.7l.018-.092.052-.078.078-.052.092-.018h1.92l.092.018.078.052.052.078.018.092v1.12l-.018.092-.052.078-.078.052-.092.018h-1.92l-.092-.018-.078-.052-.052-.078-.018-.092ZM14.545 25.44l-.092-.018-.078-.052-.052-.078-.018-.092v-1.92l.018-.092.052-.078.078-.052.092-.018h1.12l.092.018.078.052.052.078.018.092v1.92l-.018.092-.052.078-.078.052-.092.018ZM12.005 25.44l-.092-.018-.078-.052-.052-.078-.018-.092v-1.92l.018-.092.052-.078.078-.052.092-.018h1.12l.092.018.078.052.052.078.018.092v1.92l-.018.092-.052.078-.078.052-.092.018ZM9.465 25.44l-.092-.018-.078-.052-.052-.078-.018-.092v-1.92l.018-.092.052-.078.078-.052.092-.018h1.12l.092.018.078.052.052.078.018.092v1.92l-.018.092-.052.078-.078.052-.092.018ZM6.925 25.44l-.092-.018-.078-.052-.052-.078-.018-.092v-1.92l.018-.092.052-.078.078-.052.092-.018h1.12l.092.018.078.052.052.078.018.092v1.92l-.018.092-.052.078-.078.052-.092.018ZM4.385 25.44l-.092-.018-.078-.052-.052-.078-.018-.092v-1.92l.018-.092.052-.078.078-.052.092-.018h1.12l.092.018.078.052.052.078.018.092v1.92l-.018.092-.052.078-.078.052-.092.018ZM.225 22.7l.018-.092.052-.078.078-.052.092-.018h1.92l.092.018.078.052.052.078.018.092v1.12l-.018.092-.052.078-.078.052-.092.018H.465l-.092-.018-.078-.052-.052-.078-.018-.092ZM.225 20.16l.018-.092.052-.078.078-.052.092-.018h1.92l.092.018.078.052.052.078.018.092v1.12l-.018.092-.052.078-.078.052-.092.018H.465l-.092-.018-.078-.052-.052-.078-.018-.092ZM.225 17.62l.018-.092.052-.078.078-.052.092-.018h1.92l.092.018.078.052.052.078.018.092v1.12l-.018.092-.052.078-.078.052-.092.018H.465l-.092-.018-.078-.052-.052-.078-.018-.092ZM.225 15.08l.018-.092.052-.078.078-.052.092-.018h1.92l.092.018.078.052.052.078.018.092v1.12l-.018.092-.052.078-.078.052-.092.018H.465l-.092-.018-.078-.052-.052-.078-.018-.092ZM.225 12.54l.018-.092.052-.078.078-.052.092-.018h1.92l.092.018.078.052.052.078.018.092v1.12l-.018.092-.052.078-.078.052-.092.018H.465l-.092-.018-.078-.052-.052-.078-.018-.092ZM.225 10l.018-.092.052-.078.078-.052.092-.018h1.92l.092.018.078.052.052.078.018.092v1.12l-.018.092-.052.078-.078.052-.092.018H.465l-.092-.018-.078-.052-.052-.078-.018-.092ZM.225 7.46l.018-.092.052-.078.078-.052.092-.018h1.92l.092.018.078.052.052.078.018.092v1.12l-.018.092-.052.078-.078.052-.092.018H.465l-.092-.018-.078-.052-.052-.078-.018-.092ZM.225 4.92l.018-.092.052-.078.078-.052.092-.018h1.92l.092.018.078.052.052.078.018.092v1.12l-.018.092-.052.078-.078.052-.092.018H.465l-.092-.018-.078-.052-.052-.078-.018-.092ZM.225 2.38l.018-.092.052-.078.078-.052.092-.018h1.92l.092.018.078.052.052.078.018.092V3.5l-.018.092-.052.078-.078.052-.092.018H.465l-.092-.018-.078-.052-.052-.078L.225 3.5Z" style="fill:#b4a09a;fill-opacity:.9;stroke:none;fill-rule:evenodd"/>
        <path stroke="none" d="m18.205 2.14.092.018.078.052.052.078.018.092V3.5l-.018.092-.052.078-.078.052-.092.018h-1.12l-.092-.018-.078-.052-.052-.078-.018-.092V2.38l.018-.092.052-.078.078-.052.092-.018Z" style="fill:#4d7fc4;fill-opacity:1;stroke:none;fill-rule:evenodd"/>
    </g>
    <circle cx="17.645" cy="5.48" r=".8" style="fill:#4d7fc4;fill-opacity:1;stroke:none"/>
    <circle cx="17.645" cy="8.02" r=".8" style="fill:#4d7fc4;fill-opacity:1;stroke:none"/>
    <circle cx="17.645" cy="10.56" r=".8" style="fill:#4d7fc4;fill-opacity:1;stroke:none"/>
    <circle cx="17.645" cy="13.1" r=".8" style="fill:#4d7fc4;fill-opacity:1;stroke:none"/>
    <circle cx="17.645" cy="15.64" r=".8" style="fill:#4d7fc4;fill-opacity:1;stroke:none"/>
    <circle cx="17.645" cy="18.18" r=".8" style="fill:#4d7fc4;fill-opacity:1;stroke:none"/>
    <circle cx="17.645" cy="20.72" r=".8" style="fill:#4d7fc4;fill-opacity:1;stroke:none"/>
    <circle cx="17.645" cy="23.26" r=".8" style="fill:#4d7fc4;fill-opacity:1;stroke:none"/>
    <circle cx="15.105" cy="23.26" r=".8" style="fill:#4d7fc4;fill-opacity:1;stroke:none"/>
    <circle cx="12.565" cy="23.26" r=".8" style="fill:#4d7fc4;fill-opacity:1;stroke:none"/>
    <circle cx="10.025" cy="23.26" r=".8" style="fill:#4d7fc4;fill-opacity:1;stroke:none"/>
    <circle cx="7.485" cy="23.26" r=".8" style="fill:#4d7fc4;fill-opacity:1;stroke:none"/>
    <circle cx="4.945" cy="23.26" r=".8" style="fill:#4d7fc4;fill-opacity:1;stroke:none"/>
    <circle cx="2.405" cy="23.26" r=".8" style="fill:#4d7fc4;fill-opacity:1;stroke:none"/>
    <circle cx="2.405" cy="20.72" r=".8" style="fill:#4d7fc4;fill-opacity:1;stroke:none"/>
    <circle cx="2.405" cy="18.18" r=".8" style="fill:#4d7fc4;fill-opacity:1;stroke:none"/>
    <circle cx="2.405" cy="15.64" r=".8" style="fill:#4d7fc4;fill-opacity:1;stroke:none"/>
    <circle cx="2.405" cy="13.1" r=".8" style="fill:#4d7fc4;fill-opacity:1;stroke:none"/>
    <circle cx="2.405" cy="10.56" r=".8" style="fill:#4d7fc4;fill-opacity:1;stroke:none"/>
    <g style="fill:#4d7fc4;fill-opacity:1;stroke:none">
        <circle cx="2.405" cy="8.02" r=".8"/>
        <path d="m2.805 4.68.4.4v.8l-.4.4h-.96l-.092-.018-.078-.052-.052-.078-.018-.092V4.92l.018-.092.052-.078.078-.052.092-.018Z" style="fill:#4d7fc4;fill-opacity:1;stroke:none;fill-rule:evenodd"/>
    </g>
    <g style="fill:#4d7fc4;fill-opacity:1;stroke:none">
        <circle cx="2.405" cy="2.94" r=".8"/>
        <path d="m18.205 2.14.092.018.078.052.052.078.018.092V3.5l-.018.092-.052.078-.078.052-.092.018h-1.12l-.092-.018-.078-.052-.052-.078-.018-.092V2.38l.018-.092.052-.078.078-.052.092-.018Z" style="fill:#c83434;fill-opacity:1;stroke:none;fill-rule:evenodd"/>
        <path d="m19.825 3.5-.018.092-.052.078-.078.052-.092.018h-1.92l-.092-.018-.078-.052-.052-.078-.018-.092V2.38l.018-.092.052-.078.078-.052.092-.018h1.92l.092.018.078.052.052.078.018.092Z" style="fill:#c83434;fill-opacity:1;stroke:none;fill-rule:evenodd"/>
    </g>
    <g style="fill:#c83434;fill-opacity:1;stroke:none">
        <circle cx="17.645" cy="5.48" r=".8"/>
        <path d="m17.425 4.92.018-.092.052-.078.078-.052.092-.018h1.92l.092.018.078.052.052.078.018.092v1.12l-.018.092-.052.078-.078.052-.092.018h-1.92l-.092-.018-.078-.052-.052-.078-.018-.092Z" style="fill:#c83434;fill-opacity:1;stroke:none;fill-rule:evenodd"/>
    </g>
    <g style="fill:#c83434;fill-opacity:1;stroke:none">
        <circle cx="17.645" cy="8.02" r=".8"/>
        <path d="m17.425 7.46.018-.092.052-.078.078-.052.092-.018h1.92l.092.018.078.052.052.078.018.092v1.12l-.018.092-.052.078-.078.052-.092.018h-1.92l-.092-.018-.078-.052-.052-.078-.018-.092Z" style="fill:#c83434;fill-opacity:1;stroke:none;fill-rule:evenodd"/>
    </g>
    <g style="fill:#c83434;fill-opacity:1;stroke:none">
        <circle cx="17.645" cy="10.56" r=".8"/>
        <path d="m17.425 10 .018-.092.052-.078.078-.052.092-.018h1.92l.092.018.078.052.052.078.018.092v1.12l-.018.092-.052.078-.078.052-.092.018h-1.92l-.092-.018-.078-.052-.052-.078-.018-.092Z" style="fill:#c83434;fill-opacity:1;stroke:none;fill-rule:evenodd"/>
    </g>
    <g style="fill:#c83434;fill-opacity:1;stroke:none">
        <circle cx="17.645" cy="13.1" r=".8"/>
        <path d="m17.425 12.54.018-.092.052-.078.078-.052.092-.018h1.92l.092.018.078.052.052.078.018.092v1.12l-.018.092-.052.078-.078.052-.092.018h-1.92l-.092-.018-.078-.052-.052-.078-.018-.092Z" style="fill:#c83434;fill-opacity:1;stroke:none;fill-rule:evenodd"/>
    </g>
    <g style="fill:#c83434;fill-opacity:1;stroke:none">
        <circle cx="17.645" cy="15.64" r=".8"/>
        <path d="m17.425 15.08.018-.092.052-.078.078-.052.092-.018h1.92l.092.018.078.052.052.078.018.092v1.12l-.018.092-.052.078-.078.052-.092.018h-1.92l-.092-.018-.078-.052-.052-.078-.018-.092Z" style="fill:#c83434;fill-opacity:1;stroke:none;fill-rule:evenodd"/>
    </g>
    <g style="fill:#c83434;fill-opacity:1;stroke:none">
        <circle cx="17.645" cy="18.18" r=".8"/>
        <path d="m17.425 17.62.018-.092.052-.078.078-.052.092-.018h1.92l.092.018.078.052.052.078.018.092v1.12l-.018.092-.052.078-.078.052-.092.018h-1.92l-.092-.018-.078-.052-.052-.078-.018-.092Z" style="fill:#c83434;fill-opacity:1;stroke:none;fill-rule:evenodd"/>
    </g>
    <g style="fill:#c83434;fill-opacity:1;stroke:none">
        <circle cx="17.645" cy="20.72" r=".8"/>
        <path d="m17.425 20.16.018-.092.052-.078.078-.052.092-.018h1.92l.092.018.078.052.052.078.018.092v1.12l-.018.092-.052.078-.078.052-.092.018h-1.92l-.092-.018-.078-.052-.052-.078-.018-.092Z" style="fill:#c83434;fill-opacity:1;stroke:none;fill-rule:evenodd"/>
    </g>
    <g style="fill:#c83434;fill-opacity:1;stroke:none">
        <circle cx="17.645" cy="23.26" r=".8"/>
        <path d="m17.425 22.7.018-.092.052-.078.078-.052.092-.018h1.92l.092.018.078.052.052.078.018.092v1.12l-.018.092-.052.078-.078.052-.092.018h-1.92l-.092-.018-.078-.052-.052-.078-.018-.092Z" style="fill:#c83434;fill-opacity:1;stroke:none;fill-rule:evenodd"/>
    </g>
    <g style="fill:#c83434;fill-opacity:1;stroke:none">
        <circle cx="15.105" cy="23.26" r=".8"/>
        <path d="m14.545 25.44-.092-.018-.078-.052-.052-.078-.018-.092v-1.92l.018-.092.052-.078.078-.052.092-.018h1.12l.092.018.078.052.052.078.018.092v1.92l-.018.092-.052.078-.078.052-.092.018Z" style="fill:#c83434;fill-opacity:1;stroke:none;fill-rule:evenodd"/>
    </g>
    <g style="fill:#c83434;fill-opacity:1;stroke:none">
        <circle cx="12.565" cy="23.26" r=".8"/>
        <path d="m12.005 25.44-.092-.018-.078-.052-.052-.078-.018-.092v-1.92l.018-.092.052-.078.078-.052.092-.018h1.12l.092.018.078.052.052.078.018.092v1.92l-.018.092-.052.078-.078.052-.092.018Z" style="fill:#c83434;fill-opacity:1;stroke:none;fill-rule:evenodd"/>
    </g>
    <g style="fill:#c83434;fill-opacity:1;stroke:none">
        <circle cx="10.025" cy="23.26" r=".8"/>
        <path d="m9.465 25.44-.092-.018-.078-.052-.052-.078-.018-.092v-1.92l.018-.092.052-.078.078-.052.092-.018h1.12l.092.018.078.052.052.078.018.092v1.92l-.018.092-.052.078-.078.052-.092.018Z" style="fill:#c83434;fill-opacity:1;stroke:none;fill-rule:evenodd"/>
    </g>
    <g style="fill:#c83434;fill-opacity:1;stroke:none">
        <circle cx="7.485" cy="23.26" r=".8"/>
        <path d="m6.925 25.44-.092-.018-.078-.052-.052-.078-.018-.092v-1.92l.018-.092.052-.078.078-.052.092-.018h1.12l.092.018.078.052.052.078.018.092v1.92l-.018.092-.052.078-.078.052-.092.018Z" style="fill:#c83434;fill-opacity:1;stroke:none;fill-rule:evenodd"/>
    </g>
    <g style="fill:#c83434;fill-opacity:1;stroke:none">
        <circle cx="4.945" cy="23.26" r=".8"/>
        <path d="m4.385 25.44-.092-.018-.078-.052-.052-.078-.018-.092v-1.92l.018-.092.052-.078.078-.052.092-.018h1.12l.092.018.078.052.052.078.018.092v1.92l-.018.092-.052.078-.078.052-.092.018ZM.225 22.7l.018-.092.052-.078.078-.052.092-.018h1.92l.092.018.078.052.052.078.018.092v1.12l-.018.092-.052.078-.078.052-.092.018H.465l-.092-.018-.078-.052-.052-.078-.018-.092Z" style="fill:#c83434;fill-opacity:1;stroke:none;fill-rule:evenodd"/>
    </g>
    <g style="fill:#c83434;fill-opacity:1;stroke:none">
        <circle cx="2.405" cy="23.26" r=".8"/>
        <path d="m.225 20.16.018-.092.052-.078.078-.052.092-.018h1.92l.092.018.078.052.052.078.018.092v1.12l-.018.092-.052.078-.078.052-.092.018H.465l-.092-.018-.078-.052-.052-.078-.018-.092Z" style="fill:#c83434;fill-opacity:1;stroke:none;fill-rule:evenodd"/>
    </g>
    <g style="fill:#c83434;fill-opacity:1;stroke:none">
        <circle cx="2.405" cy="20.72" r=".8"/>
        <path d="m.225 17.62.018-.092.052-.078.078-.052.092-.018h1.92l.092.018.078.052.052.078.018.092v1.12l-.018.092-.052.078-.078.052-.092.018H.465l-.092-.018-.078-.052-.052-.078-.018-.092Z" style="fill:#c83434;fill-opacity:1;stroke:none;fill-rule:evenodd"/>
    </g>
    <g style="fill:#c83434;fill-opacity:1;stroke:none">
        <circle cx="2.405" cy="18.18" r=".8"/>
        <path d="m.225 15.08.018-.092.052-.078.078-.052.092-.018h1.92l.092.018.078.052.052.078.018.092v1.12l-.018.092-.052.078-.078.052-.092.018H.465l-.092-.018-.078-.052-.052-.078-.018-.092Z" style="fill:#c83434;fill-opacity:1;stroke:none;fill-rule:evenodd"/>
    </g>
    <g style="fill:#c83434;fill-opacity:1;stroke:none">
        <circle cx="2.405" cy="15.64" r=".8"/>
        <path d="m.225 12.54.018-.092.052-.078.078-.052.092-.018h1.92l.092.018.078.052.052.078.018.092v1.12l-.018.092-.052.078-.078.052-.092.018H.465l-.092-.018-.078-.052-.052-.078-.018-.092Z" style="fill:#c83434;fill-opacity:1;stroke:none;fill-rule:evenodd"/>
    </g>
    <g style="fill:#c83434;fill-opacity:1;stroke:none">
        <circle cx="2.405" cy="13.1" r=".8"/>
        <path d="m.225 10 .018-.092.052-.078.078-.052.092-.018h1.92l.092.018.078.052.052.078.018.092v1.12l-.018.092-.052.078-.078.052-.092.018H.465l-.092-.018-.078-.052-.052-.078-.018-.092Z" style="fill:#c83434;fill-opacity:1;stroke:none;fill-rule:evenodd"/>
    </g>
    <g style="fill:#c83434;fill-opacity:1;stroke:none">
        <circle cx="2.405" cy="10.56" r=".8"/>
        <path d="m.225 7.46.018-.092.052-.078.078-.052.092-.018h1.92l.092.018.078.052.052.078.018.092v1.12l-.018.092-.052.078-.078.052-.092.018H.465l-.092-.018-.078-.052-.052-.078-.018-.092Z" style="fill:#c83434;fill-opacity:1;stroke:none;fill-rule:evenodd"/>
    </g>
    <g style="fill:#c83434;fill-opacity:1;stroke:none">
        <circle cx="2.405" cy="8.02" r=".8"/>
        <path d="m.225 4.92.018-.092.052-.078.078-.052.092-.018h1.92l.092.018.078.052.052.078.018.092v1.12l-.018.092-.052.078-.078.052-.092.018H.465l-.092-.018-.078-.052-.052-.078-.018-.092Z" style="fill:#c83434;fill-opacity:1;stroke:none;fill-rule:evenodd"/>
        <path d="m2.805 4.68.4.4v.8l-.4.4h-.96l-.092-.018-.078-.052-.052-.078-.018-.092V4.92l.018-.092.052-.078.078-.052.092-.018ZM.225 2.38l.018-.092.052-.078.078-.052.092-.018h1.92l.092.018.078.052.052.078.018.092V3.5l-.018.092-.052.078-.078.052-.092.018H.465l-.092-.018-.078-.052-.052-.078L.225 3.5Z" style="fill:#c83434;fill-opacity:1;stroke:none;fill-rule:evenodd"/>
    </g>
    <circle cx="2.405" cy="2.94" r=".8" style="fill:#c83434;fill-opacity:1;stroke:none"/>
    <g style="fill:none;stroke:#585d84;stroke-width:.0444;stroke-opacity:1;stroke-linecap:round;stroke-linejoin:round">
        <g class="stroked-text">
            <path d="M17.797 3.184h-.304M17.645 3.184v-.533M17.645 2.651l-.05.076M17.594 2.727l-.05.051M17.543 2.778l-.05.026"/>
        </g>
        <path d="m18.205 2.14.092.018.078.052.052.078.018.092V3.5l-.018.092-.052.078-.078.052-.092.018h-1.12l-.092-.018-.078-.052-.052-.078-.018-.092V2.38l.018-.092.052-.078.078-.052.092-.018Z" style="stroke:#585d84;stroke-width:.0212;stroke-opacity:1;stroke-linecap:round;stroke-linejoin:round;fill:none"/>
    </g>
    <g class="stroked-text" style="fill:none;stroke:#585d84;stroke-width:.0444;stroke-opacity:1;stroke-linecap:round;stroke-linejoin:round">
        <path d="m17.493 5.242.025-.026M17.518 5.217l.05-.026M17.569 5.191h.127M17.696 5.191l.05.026M17.747 5.217l.025.025M17.772 5.242l.025.05M17.797 5.293v.05M17.797 5.344l-.025.076M17.772 5.42l-.305.304M17.467 5.724h.33"/>
    </g>
    <circle cx="17.645" cy="5.48" r=".8" style="fill:none;stroke:#585d84;stroke-width:.0212;stroke-opacity:1;stroke-linecap:round;stroke-linejoin:round"/>
    <g class="stroked-text" style="fill:none;stroke:#585d84;stroke-width:.0444;stroke-opacity:1;stroke-linecap:round;stroke-linejoin:round">
        <path d="M17.467 7.731h.33M17.797 7.731l-.177.203M17.62 7.934h.076M17.696 7.934l.05.026M17.747 7.96l.025.025M17.772 7.985l.025.05M17.797 8.036v.127M17.797 8.163l-.025.05M17.772 8.214l-.025.025M17.747 8.239l-.051.025M17.696 8.264h-.153M17.543 8.264l-.05-.025M17.493 8.239l-.026-.025"/>
    </g>
    <circle cx="17.645" cy="8.02" r=".8" style="fill:none;stroke:#585d84;stroke-width:.0212;stroke-opacity:1;stroke-linecap:round;stroke-linejoin:round"/>
    <g class="stroked-text" style="fill:none;stroke:#585d84;stroke-width:.0444;stroke-opacity:1;stroke-linecap:round;stroke-linejoin:round">
        <path d="M17.747 10.449v.355M17.62 10.246l-.127.38M17.493 10.627h.33"/>
    </g>
    <circle cx="17.645" cy="10.56" r=".8" style="fill:none;stroke:#585d84;stroke-width:.0212;stroke-opacity:1;stroke-linecap:round;stroke-linejoin:round"/>
    <g class="stroked-text" style="fill:none;stroke:#585d84;stroke-width:.0444;stroke-opacity:1;stroke-linecap:round;stroke-linejoin:round">
        <path d="M17.772 12.811h-.254M17.518 12.811l-.025.254M17.493 13.065l.025-.025M17.518 13.04l.05-.026M17.569 13.014h.127M17.696 13.014l.05.026M17.747 13.04l.025.025M17.772 13.065l.025.05M17.797 13.116v.127M17.797 13.243l-.025.05M17.772 13.294l-.025.025M17.747 13.319l-.051.025M17.696 13.344h-.127M17.569 13.344l-.051-.025M17.518 13.319l-.025-.025"/>
    </g>
    <circle cx="17.645" cy="13.1" r=".8" style="fill:none;stroke:#585d84;stroke-width:.0212;stroke-opacity:1;stroke-linecap:round;stroke-linejoin:round"/>
    <g class="stroked-text" style="fill:none;stroke:#585d84;stroke-width:.0444;stroke-opacity:1;stroke-linecap:round;stroke-linejoin:round">
        <path d="M17.747 15.351h-.102M17.645 15.351l-.05.025M17.594 15.377l-.025.025M17.569 15.402l-.051.076M17.518 15.478l-.025.102M17.493 15.58v.203M17.493 15.783l.025.05M17.518 15.834l.025.025M17.543 15.859l.051.025M17.594 15.884h.102M17.696 15.884l.05-.025M17.747 15.859l.025-.025M17.772 15.834l.025-.051M17.797 15.783v-.127M17.797 15.656l-.025-.05M17.772 15.605l-.025-.025M17.747 15.58l-.051-.026M17.696 15.554h-.102M17.594 15.554l-.05.026M17.543 15.58l-.025.025M17.518 15.605l-.025.05"/>
    </g>
    <circle cx="17.645" cy="15.64" r=".8" style="fill:none;stroke:#585d84;stroke-width:.0212;stroke-opacity:1;stroke-linecap:round;stroke-linejoin:round"/>
    <g class="stroked-text" style="fill:none;stroke:#585d84;stroke-width:.0444;stroke-opacity:1;stroke-linecap:round;stroke-linejoin:round">
        <path d="M17.467 17.891h.356M17.823 17.891l-.229.533"/>
    </g>
    <circle cx="17.645" cy="18.18" r=".8" style="fill:none;stroke:#585d84;stroke-width:.0212;stroke-opacity:1;stroke-linecap:round;stroke-linejoin:round"/>
    <g class="stroked-text" style="fill:none;stroke:#585d84;stroke-width:.0444;stroke-opacity:1;stroke-linecap:round;stroke-linejoin:round">
        <path d="m17.594 20.66-.05-.026M17.543 20.634l-.025-.025M17.518 20.609l-.025-.05M17.493 20.558v-.025M17.493 20.533l.025-.051M17.518 20.482l.025-.026M17.543 20.457l.051-.026M17.594 20.431h.102M17.696 20.431l.05.025M17.747 20.457l.025.025M17.772 20.482l.025.05M17.797 20.533v.025M17.797 20.558l-.025.05M17.772 20.609l-.025.025M17.747 20.634l-.051.026M17.696 20.66h-.102M17.594 20.66l-.05.025M17.543 20.685l-.025.025M17.518 20.71l-.025.051M17.493 20.761v.102M17.493 20.863l.025.05M17.518 20.914l.025.025M17.543 20.939l.051.025M17.594 20.964h.102M17.696 20.964l.05-.025M17.747 20.939l.025-.025M17.772 20.914l.025-.051M17.797 20.863v-.102M17.797 20.761l-.025-.05M17.772 20.71l-.025-.025M17.747 20.685l-.051-.025"/>
    </g>
    <circle cx="17.645" cy="20.72" r=".8" style="fill:none;stroke:#585d84;stroke-width:.0212;stroke-opacity:1;stroke-linecap:round;stroke-linejoin:round"/>
    <g class="stroked-text" style="fill:none;stroke:#585d84;stroke-width:.0444;stroke-opacity:1;stroke-linecap:round;stroke-linejoin:round">
        <path d="M17.543 23.504h.102M17.645 23.504l.05-.025M17.696 23.479l.025-.025M17.721 23.454l.051-.077M17.772 23.377l.025-.101M17.797 23.276v-.203M17.797 23.073l-.025-.051M17.772 23.022l-.025-.025M17.747 22.997l-.051-.026M17.696 22.971h-.102M17.594 22.971l-.05.026M17.543 22.997l-.025.025M17.518 23.022l-.025.05M17.493 23.073v.127M17.493 23.2l.025.05M17.518 23.25l.025.026M17.543 23.276l.051.025M17.594 23.301h.102M17.696 23.301l.05-.025M17.747 23.276l.025-.026M17.772 23.25l.025-.05"/>
    </g>
    <circle cx="17.645" cy="23.26" r=".8" style="fill:none;stroke:#585d84;stroke-width:.0212;stroke-opacity:1;stroke-linecap:round;stroke-linejoin:round"/>
    <g class="stroked-text" style="fill:none;stroke:#585d84;stroke-width:.0444;stroke-opacity:1;stroke-linecap:round;stroke-linejoin:round">
        <path d="M15.003 23.504H14.7M14.851 23.504v-.533M14.851 22.971l-.05.076M14.8 23.047l-.05.051M14.75 23.098l-.051.026M15.334 22.971h.05M15.384 22.971l.051.026M15.435 22.997l.026.025M15.46 23.022l.026.05M15.486 23.073l.025.101M15.511 23.174v.127M15.511 23.301l-.025.102M15.486 23.403l-.025.05M15.46 23.454l-.025.025M15.435 23.479l-.05.025M15.384 23.504h-.05M15.334 23.504l-.051-.025M15.283 23.479l-.026-.025M15.257 23.454l-.025-.051M15.232 23.403l-.025-.102M15.207 23.301v-.127M15.207 23.174l.025-.101M15.232 23.073l.025-.051M15.257 23.022l.026-.025M15.283 22.997l.05-.026"/>
    </g>
    <circle cx="15.105" cy="23.26" r=".8" style="fill:none;stroke:#585d84;stroke-width:.0212;stroke-opacity:1;stroke-linecap:round;stroke-linejoin:round"/>
    <g class="stroked-text" style="fill:none;stroke:#585d84;stroke-width:.0444;stroke-opacity:1;stroke-linecap:round;stroke-linejoin:round">
        <path d="M12.463 23.504h-.304M12.311 23.504v-.533M12.311 22.971l-.05.076M12.26 23.047l-.05.051M12.21 23.098l-.051.026M12.971 23.504h-.304M12.819 23.504v-.533M12.819 22.971l-.05.076M12.768 23.047l-.05.051M12.717 23.098l-.05.026"/>
    </g>
    <circle cx="12.565" cy="23.26" r=".8" style="fill:none;stroke:#585d84;stroke-width:.0212;stroke-opacity:1;stroke-linecap:round;stroke-linejoin:round"/>
    <g class="stroked-text" style="fill:none;stroke:#585d84;stroke-width:.0444;stroke-opacity:1;stroke-linecap:round;stroke-linejoin:round">
        <path d="M9.923 23.504H9.62M9.771 23.504v-.533M9.771 22.971l-.05.076M9.72 23.047l-.05.051M9.67 23.098l-.051.026M10.127 23.022l.025-.025M10.152 22.997l.05-.026M10.203 22.971h.127M10.33 22.971l.05.026M10.38 22.997l.026.025M10.406 23.022l.025.05M10.431 23.073v.05M10.431 23.124l-.025.076M10.406 23.2l-.305.304M10.101 23.504h.33"/>
    </g>
    <circle cx="10.025" cy="23.26" r=".8" style="fill:none;stroke:#585d84;stroke-width:.0212;stroke-opacity:1;stroke-linecap:round;stroke-linejoin:round"/>
    <g class="stroked-text" style="fill:none;stroke:#585d84;stroke-width:.0444;stroke-opacity:1;stroke-linecap:round;stroke-linejoin:round">
        <path d="M7.383 23.504H7.08M7.231 23.504v-.533M7.231 22.971l-.05.076M7.18 23.047l-.05.051M7.13 23.098l-.051.026M7.561 22.971h.33M7.891 22.971l-.177.203M7.714 23.174h.076M7.79 23.174l.05.026M7.84 23.2l.026.025M7.866 23.225l.025.05M7.891 23.276v.127M7.891 23.403l-.025.05M7.866 23.454l-.025.025M7.84 23.479l-.05.025M7.79 23.504h-.153M7.637 23.504l-.05-.025M7.587 23.479l-.026-.025"/>
    </g>
    <circle cx="7.485" cy="23.26" r=".8" style="fill:none;stroke:#585d84;stroke-width:.0212;stroke-opacity:1;stroke-linecap:round;stroke-linejoin:round"/>
    <g class="stroked-text" style="fill:none;stroke:#585d84;stroke-width:.0444;stroke-opacity:1;stroke-linecap:round;stroke-linejoin:round">
        <path d="M4.843 23.504H4.54M4.691 23.504v-.533M4.691 22.971l-.05.076M4.64 23.047l-.05.051M4.59 23.098l-.051.026M5.3 23.149v.355M5.174 22.946l-.127.38M5.047 23.327h.33"/>
    </g>
    <circle cx="4.945" cy="23.26" r=".8" style="fill:none;stroke:#585d84;stroke-width:.0212;stroke-opacity:1;stroke-linecap:round;stroke-linejoin:round"/>
    <g class="stroked-text" style="fill:none;stroke:#585d84;stroke-width:.0444;stroke-opacity:1;stroke-linecap:round;stroke-linejoin:round">
        <path d="M2.303 23.504H2M2.151 23.504v-.533M2.151 22.971l-.05.076M2.1 23.047l-.05.051M2.05 23.098l-.051.026M2.786 22.971h-.254M2.532 22.971l-.025.254M2.507 23.225l.025-.025M2.532 23.2l.05-.026M2.583 23.174h.127M2.71 23.174l.05.026M2.76 23.2l.026.025M2.786 23.225l.025.05M2.811 23.276v.127M2.811 23.403l-.025.05M2.786 23.454l-.025.025M2.76 23.479l-.05.025M2.71 23.504h-.127M2.583 23.504l-.051-.025M2.532 23.479l-.025-.025"/>
    </g>
    <circle cx="2.405" cy="23.26" r=".8" style="fill:none;stroke:#585d84;stroke-width:.0212;stroke-opacity:1;stroke-linecap:round;stroke-linejoin:round"/>
    <g class="stroked-text" style="fill:none;stroke:#585d84;stroke-width:.0444;stroke-opacity:1;stroke-linecap:round;stroke-linejoin:round">
        <path d="M2.303 20.964H2M2.151 20.964v-.533M2.151 20.431l-.05.076M2.1 20.507l-.05.051M2.05 20.558l-.051.026M2.76 20.431H2.66M2.659 20.431l-.05.025M2.608 20.457l-.025.025M2.583 20.482l-.051.076M2.532 20.558l-.025.102M2.507 20.66v.203M2.507 20.863l.025.05M2.532 20.914l.025.025M2.557 20.939l.051.025M2.608 20.964h.102M2.71 20.964l.05-.025M2.76 20.939l.026-.025M2.786 20.914l.025-.051M2.811 20.863v-.127M2.811 20.736l-.025-.05M2.786 20.685l-.025-.025M2.76 20.66l-.05-.026M2.71 20.634h-.102M2.608 20.634l-.05.026M2.557 20.66l-.025.025M2.532 20.685l-.025.05"/>
    </g>
    <circle cx="2.405" cy="20.72" r=".8" style="fill:none;stroke:#585d84;stroke-width:.0212;stroke-opacity:1;stroke-linecap:round;stroke-linejoin:round"/>
    <g class="stroked-text" style="fill:none;stroke:#585d84;stroke-width:.0444;stroke-opacity:1;stroke-linecap:round;stroke-linejoin:round">
        <path d="M2.303 18.424H2M2.151 18.424v-.533M2.151 17.891l-.05.076M2.1 17.967l-.05.051M2.05 18.018l-.051.026M2.481 17.891h.356M2.837 17.891l-.229.533"/>
    </g>
    <circle cx="2.405" cy="18.18" r=".8" style="fill:none;stroke:#585d84;stroke-width:.0212;stroke-opacity:1;stroke-linecap:round;stroke-linejoin:round"/>
    <g class="stroked-text" style="fill:none;stroke:#585d84;stroke-width:.0444;stroke-opacity:1;stroke-linecap:round;stroke-linejoin:round">
        <path d="M2.303 15.884H2M2.151 15.884v-.533M2.151 15.351l-.05.076M2.1 15.427l-.05.051M2.05 15.478l-.051.026M2.608 15.58l-.05-.026M2.557 15.554l-.025-.025M2.532 15.529l-.025-.05M2.507 15.478v-.025M2.507 15.453l.025-.051M2.532 15.402l.025-.025M2.557 15.377l.051-.026M2.608 15.351h.102M2.71 15.351l.05.025M2.76 15.377l.026.025M2.786 15.402l.025.05M2.811 15.453v.025M2.811 15.478l-.025.05M2.786 15.529l-.025.025M2.76 15.554l-.05.026M2.71 15.58h-.102M2.608 15.58l-.05.025M2.557 15.605l-.025.025M2.532 15.63l-.025.051M2.507 15.681v.102M2.507 15.783l.025.05M2.532 15.834l.025.025M2.557 15.859l.051.025M2.608 15.884h.102M2.71 15.884l.05-.025M2.76 15.859l.026-.025M2.786 15.834l.025-.051M2.811 15.783v-.102M2.811 15.681l-.025-.05M2.786 15.63l-.025-.025M2.76 15.605l-.05-.025"/>
    </g>
    <circle cx="2.405" cy="15.64" r=".8" style="fill:none;stroke:#585d84;stroke-width:.0212;stroke-opacity:1;stroke-linecap:round;stroke-linejoin:round"/>
    <g class="stroked-text" style="fill:none;stroke:#585d84;stroke-width:.0444;stroke-opacity:1;stroke-linecap:round;stroke-linejoin:round">
        <path d="M2.303 13.344H2M2.151 13.344v-.533M2.151 12.811l-.05.076M2.1 12.887l-.05.051M2.05 12.938l-.051.025M2.557 13.344h.102M2.659 13.344l.05-.025M2.71 13.319l.025-.025M2.735 13.294l.051-.077M2.786 13.217l.025-.101M2.811 13.116v-.203M2.811 12.913l-.025-.051M2.786 12.862l-.025-.026M2.76 12.837l-.05-.026M2.71 12.811h-.102M2.608 12.811l-.05.025M2.557 12.837l-.025.025M2.532 12.862l-.025.05M2.507 12.913v.127M2.507 13.04l.025.05M2.532 13.09l.025.026M2.557 13.116l.051.025M2.608 13.141h.102M2.71 13.141l.05-.025M2.76 13.116l.026-.026M2.786 13.09l.025-.05"/>
    </g>
    <circle cx="2.405" cy="13.1" r=".8" style="fill:none;stroke:#585d84;stroke-width:.0212;stroke-opacity:1;stroke-linecap:round;stroke-linejoin:round"/>
    <g class="stroked-text" style="fill:none;stroke:#585d84;stroke-width:.0444;stroke-opacity:1;stroke-linecap:round;stroke-linejoin:round">
        <path d="m1.999 10.322.025-.025M2.024 10.297l.05-.026M2.075 10.271h.127M2.202 10.271l.05.025M2.253 10.297l.025.025M2.278 10.322l.025.05M2.303 10.373v.05M2.303 10.424l-.025.076M2.278 10.5l-.305.304M1.973 10.804h.33M2.634 10.271h.05M2.684 10.271l.051.025M2.735 10.297l.026.025M2.76 10.322l.026.05M2.786 10.373l.025.101M2.811 10.474v.127M2.811 10.601l-.025.102M2.786 10.703l-.025.05M2.76 10.754l-.025.025M2.735 10.779l-.05.025M2.684 10.804h-.05M2.634 10.804l-.051-.025M2.583 10.779l-.026-.025M2.557 10.754l-.025-.051M2.532 10.703l-.025-.102M2.507 10.601v-.127M2.507 10.474l.025-.101M2.532 10.373l.025-.051M2.557 10.322l.026-.025M2.583 10.297l.05-.026"/>
    </g>
    <circle cx="2.405" cy="10.56" r=".8" style="fill:none;stroke:#585d84;stroke-width:.0212;stroke-opacity:1;stroke-linecap:round;stroke-linejoin:round"/>
    <g class="stroked-text" style="fill:none;stroke:#585d84;stroke-width:.0444;stroke-opacity:1;stroke-linecap:round;stroke-linejoin:round">
        <path d="m1.999 7.782.025-.026M2.024 7.757l.05-.026M2.075 7.731h.127M2.202 7.731l.05.026M2.253 7.757l.025.025M2.278 7.782l.025.05M2.303 7.833v.05M2.303 7.884l-.025.076M2.278 7.96l-.305.304M1.973 8.264h.33M2.811 8.264h-.304M2.659 8.264v-.533M2.659 7.731l-.05.076M2.608 7.807l-.05.051M2.557 7.858l-.05.026"/>
    </g>
    <circle cx="2.405" cy="8.02" r=".8" style="fill:none;stroke:#585d84;stroke-width:.0212;stroke-opacity:1;stroke-linecap:round;stroke-linejoin:round"/>
    <g style="fill:none;stroke:#585d84;stroke-width:.0444;stroke-opacity:1;stroke-linecap:round;stroke-linejoin:round">
        <g class="stroked-text">
            <path d="m1.999 5.242.025-.026M2.024 5.217l.05-.026M2.075 5.191h.127M2.202 5.191l.05.026M2.253 5.217l.025.025M2.278 5.242l.025.05M2.303 5.293v.05M2.303 5.344l-.025.076M2.278 5.42l-.305.304M1.973 5.724h.33M2.507 5.242l.025-.026M2.532 5.217l.05-.026M2.583 5.191h.127M2.71 5.191l.05.026M2.76 5.217l.026.025M2.786 5.242l.025.05M2.811 5.293v.05M2.811 5.344l-.025.076M2.786 5.42l-.305.304M2.481 5.724h.33"/>
        </g>
        <path d="m2.805 4.68.4.4v.8l-.4.4h-.96l-.092-.018-.078-.052-.052-.078-.018-.092V4.92l.018-.092.052-.078.078-.052.092-.018Z" style="stroke:#585d84;stroke-width:.0212;stroke-opacity:1;stroke-linecap:round;stroke-linejoin:round;fill:none"/>
    </g>
    <g class="stroked-text" style="fill:none;stroke:#585d84;stroke-width:.0444;stroke-opacity:1;stroke-linecap:round;stroke-linejoin:round">
        <path d="m1.999 2.702.025-.026M2.024 2.677l.05-.026M2.075 2.651h.127M2.202 2.651l.05.026M2.253 2.677l.025.025M2.278 2.702l.025.05M2.303 2.753v.05M2.303 2.804l-.025.076M2.278 2.88l-.305.304M1.973 3.184h.33M2.481 2.651h.33M2.811 2.651l-.177.203M2.634 2.854h.076M2.71 2.854l.05.026M2.76 2.88l.026.025M2.786 2.905l.025.05M2.811 2.956v.127M2.811 3.083l-.025.05M2.786 3.134l-.025.025M2.76 3.159l-.05.025M2.71 3.184h-.153M2.557 3.184l-.05-.025M2.507 3.159l-.026-.025"/>
    </g>
    <circle cx="2.405" cy="2.94" r=".8" style="fill:none;stroke:#585d84;stroke-width:.0212;stroke-opacity:1;stroke-linecap:round;stroke-linejoin:round"/>
    <g style="fill:none;stroke:#afafaf;stroke-width:.15;stroke-opacity:1;stroke-linecap:round;stroke-linejoin:round">
        <g class="stroked-text">
            <path d="M3.096 27.195v-1M3.096 26.195l.334.714M3.43 26.91l.333-.715M3.763 26.195v1M4.81 27.1l-.047.047M4.763 27.147l-.143.048M4.62 27.195h-.095M4.525 27.195l-.143-.048M4.382 27.147l-.095-.095M4.287 27.052l-.048-.095M4.24 26.957l-.048-.19M4.192 26.766v-.143M4.192 26.623l.047-.19M4.24 26.433l.047-.095M4.287 26.338l.095-.096M4.382 26.242l.143-.047M4.525 26.195h.095M4.62 26.195l.143.047M4.763 26.242l.048.048M5.24 26.195v.81M5.24 27.004l.047.096M5.287 27.1l.048.047M5.335 27.147l.095.048M5.43 27.195h.19M5.62 27.195l.095-.048M5.716 27.147l.047-.047M5.763 27.1l.048-.096M5.81 27.004v-.81M6.049 27.29h.762M7.62 27.195l-.333-.476M7.049 27.195v-1M7.049 26.195h.38M7.43 26.195l.095.047M7.525 26.242l.048.048M7.573 26.29l.047.095M7.62 26.385v.143M7.62 26.528l-.047.095M7.573 26.623l-.048.048M7.525 26.671l-.095.048M7.43 26.719h-.381M8.049 27.195v-1M8.049 26.195h.38M8.43 26.195l.095.047M8.525 26.242l.048.048M8.573 26.29l.047.095M8.62 26.385v.143M8.62 26.528l-.047.095M8.573 26.623l-.048.048M8.525 26.671l-.095.048M8.43 26.719h-.381M9.001 26.29l.048-.048M9.049 26.242l.095-.047M9.144 26.195h.238M9.382 26.195l.095.047M9.477 26.242l.048.048M9.525 26.29l.048.095M9.573 26.385v.095M9.573 26.48l-.048.143M9.525 26.623l-.571.572M8.954 27.195h.619M10.192 26.195h.095M10.287 26.195l.095.047M10.382 26.242l.048.048M10.43 26.29l.047.095M10.477 26.385l.048.19M10.525 26.576v.238M10.525 26.814l-.048.19M10.477 27.004l-.047.096M10.43 27.1l-.048.047M10.382 27.147l-.095.048M10.287 27.195h-.095M10.192 27.195l-.096-.048M10.096 27.147l-.047-.047M10.049 27.1 10 27.004M10.001 27.004l-.047-.19M9.954 26.814v-.238M9.954 26.576l.047-.19M10.001 26.385l.048-.095M10.049 26.29l.047-.048M10.096 26.242l.096-.047M11.382 26.528v.667M11.144 26.147l-.238.715M10.906 26.862h.619M12.096 26.195h.096M12.192 26.195l.095.047M12.287 26.242l.047.048M12.335 26.29l.047.095M12.382 26.385l.048.19M12.43 26.576v.238M12.43 26.814l-.048.19M12.382 27.004l-.047.096M12.335 27.1l-.048.047M12.287 27.147l-.095.048M12.192 27.195h-.096M12.096 27.195l-.095-.048M12.001 27.147l-.047-.047M11.954 27.1l-.048-.096M11.906 27.004l-.048-.19M11.858 26.814v-.238M11.858 26.576l.048-.19M11.906 26.385l.048-.095M11.954 26.29l.047-.048M12.001 26.242l.095-.047M12.858 26.814h.762M14.001 26.195h.667M14.668 26.195l-.667 1M14.001 27.195h.667M15.43 27.147l-.095.048M15.335 27.195h-.191M15.144 27.195l-.095-.048M15.049 27.147 15 27.052M15.001 27.052v-.381M15.001 26.671l.048-.095M15.049 26.576l.095-.048M15.144 26.528h.19M15.335 26.528l.095.048M15.43 26.576l.047.095M15.477 26.671v.095M15.477 26.766l-.476.096M15.906 27.195v-.667M15.906 26.719l.048-.096M15.954 26.623l.047-.047M16.001 26.576l.095-.048M16.096 26.528h.096M16.668 27.195l-.095-.048M16.573 27.147l-.048-.047M16.525 27.1l-.048-.096M16.477 27.004v-.285M16.477 26.719l.048-.096M16.525 26.623l.048-.047M16.573 26.576l.095-.048M16.668 26.528h.143M16.81 26.528l.096.048M16.906 26.576l.048.047M16.954 26.623l.047.096M17.001 26.719v.285M17.001 27.004l-.047.096M16.954 27.1l-.048.047M16.906 27.147l-.095.048M16.81 27.195h-.142"/>
        </g>
        <g class="stroked-text">
            <path d="m8.692 12.285-.334-.476M8.12 12.285v-1M8.12 11.285h.381M8.501 11.285l.095.047M8.596 11.332l.048.048M8.644 11.38l.048.095M8.692 11.475v.143M8.692 11.618l-.048.095M8.644 11.713l-.048.048M8.596 11.761l-.095.048M8.501 11.809h-.38M9.12 11.761h.334M9.596 12.285H9.12M9.12 12.285v-1M9.12 11.285h.476M10.358 11.761h-.333M10.025 12.285v-1M10.025 11.285h.476M11.025 11.285v.238M10.787 11.428l.238.095M11.025 11.523l.238-.095M10.882 11.713l.143-.19M11.025 11.523l.143.19M11.787 11.285v.238M11.549 11.428l.238.095M11.787 11.523l.238-.095M11.644 11.713l.143-.19M11.787 11.523l.143.19"/>
        </g>
    </g>
    <g style="fill:none;stroke:#afafaf;stroke-width:.1;stroke-opacity:1;stroke-linecap:round;stroke-linejoin:round">
        <path d="M1.025 23.85V2.35M2.025 1.35h16M18.025 24.85h-16M19.025 2.35v21.5"/>
        <path d="M5.695.05h8.66v1.3h-8.66Z" style="stroke:#afafaf;stroke-width:.1;stroke-opacity:1;stroke-linecap:round;stroke-linejoin:round;fill:none"/>
        <path d="M2.025 1.35a1 1 0 0 0-1 1M1.025 23.85a1 1 0 0 0 1 1M19.025 2.35a1 1 0 0 0-1-1M18.025 24.85a1 1 0 0 0 1-1"/>
    </g>
    <g style="fill:none;stroke:#afafaf;stroke-width:.0444;stroke-opacity:1;stroke-linecap:round;stroke-linejoin:round">
        <g class="stroked-text">
            <path d="M17.797 3.184h-.304M17.645 3.184v-.533M17.645 2.651l-.05.076M17.594 2.727l-.05.051M17.543 2.778l-.05.026"/>
        </g>
        <path d="m18.205 2.14.092.018.078.052.052.078.018.092V3.5l-.018.092-.052.078-.078.052-.092.018h-1.12l-.092-.018-.078-.052-.052-.078-.018-.092V2.38l.018-.092.052-.078.078-.052.092-.018Z" style="stroke:#afafaf;stroke-width:.0212;stroke-opacity:1;stroke-linecap:round;stroke-linejoin:round;fill:none"/>
    </g>
    <g style="fill:none;stroke:#afafaf;stroke-width:.0667;stroke-opacity:1;stroke-linecap:round;stroke-linejoin:round">
        <g class="stroked-text">
            <path d="M18.854 3.307h-.458M18.625 3.307v-.8M18.625 2.507l-.076.114M18.549 2.62l-.076.077M18.473 2.697l-.077.038"/>
        </g>
        <path d="m19.825 3.5-.018.092-.052.078-.078.052-.092.018h-1.92l-.092-.018-.078-.052-.052-.078-.018-.092V2.38l.018-.092.052-.078.078-.052.092-.018h1.92l.092.018.078.052.052.078.018.092Z" style="stroke:#afafaf;stroke-width:.0212;stroke-opacity:1;stroke-linecap:round;stroke-linejoin:round;fill:none"/>
    </g>
    <g class="stroked-text" style="fill:none;stroke:#afafaf;stroke-width:.0444;stroke-opacity:1;stroke-linecap:round;stroke-linejoin:round">
        <path d="m17.493 5.242.025-.026M17.518 5.217l.05-.026M17.569 5.191h.127M17.696 5.191l.05.026M17.747 5.217l.025.025M17.772 5.242l.025.05M17.797 5.293v.05M17.797 5.344l-.025.076M17.772 5.42l-.305.304M17.467 5.724h.33"/>
    </g>
    <circle cx="17.645" cy="5.48" r=".8" style="fill:none;stroke:#afafaf;stroke-width:.0212;stroke-opacity:1;stroke-linecap:round;stroke-linejoin:round"/>
    <g style="fill:none;stroke:#afafaf;stroke-width:.0667;stroke-opacity:1;stroke-linecap:round;stroke-linejoin:round">
        <g class="stroked-text">
            <path d="m18.396 5.123.038-.038M18.435 5.085l.076-.038M18.51 5.047h.191M18.701 5.047l.076.038M18.777 5.085l.038.038M18.816 5.123l.038.076M18.854 5.199v.076M18.854 5.275l-.038.114M18.816 5.39l-.458.457M18.358 5.847h.496"/>
        </g>
        <path d="m17.425 4.92.018-.092.052-.078.078-.052.092-.018h1.92l.092.018.078.052.052.078.018.092v1.12l-.018.092-.052.078-.078.052-.092.018h-1.92l-.092-.018-.078-.052-.052-.078-.018-.092Z" style="stroke:#afafaf;stroke-width:.0212;stroke-opacity:1;stroke-linecap:round;stroke-linejoin:round;fill:none"/>
    </g>
    <g class="stroked-text" style="fill:none;stroke:#afafaf;stroke-width:.0444;stroke-opacity:1;stroke-linecap:round;stroke-linejoin:round">
        <path d="M17.467 7.731h.33M17.797 7.731l-.177.203M17.62 7.934h.076M17.696 7.934l.05.026M17.747 7.96l.025.025M17.772 7.985l.025.05M17.797 8.036v.127M17.797 8.163l-.025.05M17.772 8.214l-.025.025M17.747 8.239l-.051.025M17.696 8.264h-.153M17.543 8.264l-.05-.025M17.493 8.239l-.026-.025"/>
    </g>
    <circle cx="17.645" cy="8.02" r=".8" style="fill:none;stroke:#afafaf;stroke-width:.0212;stroke-opacity:1;stroke-linecap:round;stroke-linejoin:round"/>
    <g style="fill:none;stroke:#afafaf;stroke-width:.0667;stroke-opacity:1;stroke-linecap:round;stroke-linejoin:round">
        <g class="stroked-text">
            <path d="M18.358 7.587h.496M18.854 7.587l-.267.304M18.587 7.891h.114M18.701 7.891l.076.038M18.777 7.93l.038.038M18.816 7.968l.038.076M18.854 8.044v.19M18.854 8.234l-.038.076M18.816 8.31l-.039.038M18.777 8.349l-.076.038M18.701 8.387h-.228M18.473 8.387l-.077-.039M18.396 8.349l-.038-.039"/>
        </g>
        <path d="m17.425 7.46.018-.092.052-.078.078-.052.092-.018h1.92l.092.018.078.052.052.078.018.092v1.12l-.018.092-.052.078-.078.052-.092.018h-1.92l-.092-.018-.078-.052-.052-.078-.018-.092Z" style="stroke:#afafaf;stroke-width:.0212;stroke-opacity:1;stroke-linecap:round;stroke-linejoin:round;fill:none"/>
    </g>
    <g class="stroked-text" style="fill:none;stroke:#afafaf;stroke-width:.0444;stroke-opacity:1;stroke-linecap:round;stroke-linejoin:round">
        <path d="M17.747 10.449v.355M17.62 10.246l-.127.38M17.493 10.627h.33"/>
    </g>
    <circle cx="17.645" cy="10.56" r=".8" style="fill:none;stroke:#afafaf;stroke-width:.0212;stroke-opacity:1;stroke-linecap:round;stroke-linejoin:round"/>
    <g style="fill:none;stroke:#afafaf;stroke-width:.0667;stroke-opacity:1;stroke-linecap:round;stroke-linejoin:round">
        <g class="stroked-text">
            <path d="M18.777 10.393v.534M18.587 10.089l-.19.571M18.396 10.66h.496"/>
        </g>
        <path d="m17.425 10 .018-.092.052-.078.078-.052.092-.018h1.92l.092.018.078.052.052.078.018.092v1.12l-.018.092-.052.078-.078.052-.092.018h-1.92l-.092-.018-.078-.052-.052-.078-.018-.092Z" style="stroke:#afafaf;stroke-width:.0212;stroke-opacity:1;stroke-linecap:round;stroke-linejoin:round;fill:none"/>
    </g>
    <g class="stroked-text" style="fill:none;stroke:#afafaf;stroke-width:.0444;stroke-opacity:1;stroke-linecap:round;stroke-linejoin:round">
        <path d="M17.772 12.811h-.254M17.518 12.811l-.025.254M17.493 13.065l.025-.025M17.518 13.04l.05-.026M17.569 13.014h.127M17.696 13.014l.05.026M17.747 13.04l.025.025M17.772 13.065l.025.05M17.797 13.116v.127M17.797 13.243l-.025.05M17.772 13.294l-.025.025M17.747 13.319l-.051.025M17.696 13.344h-.127M17.569 13.344l-.051-.025M17.518 13.319l-.025-.025"/>
    </g>
    <circle cx="17.645" cy="13.1" r=".8" style="fill:none;stroke:#afafaf;stroke-width:.0212;stroke-opacity:1;stroke-linecap:round;stroke-linejoin:round"/>
    <g style="fill:none;stroke:#afafaf;stroke-width:.0667;stroke-opacity:1;stroke-linecap:round;stroke-linejoin:round">
        <g class="stroked-text">
            <path d="M18.816 12.667h-.381M18.435 12.667l-.039.38M18.396 13.048l.038-.039M18.435 13.01l.076-.039M18.51 12.971h.191M18.701 12.971l.076.038M18.777 13.01l.038.038M18.816 13.048l.038.076M18.854 13.124v.19M18.854 13.314l-.038.076M18.816 13.39l-.039.038M18.777 13.429l-.076.038M18.701 13.467h-.19M18.51 13.467l-.076-.039M18.435 13.429l-.039-.039"/>
        </g>
        <path d="m17.425 12.54.018-.092.052-.078.078-.052.092-.018h1.92l.092.018.078.052.052.078.018.092v1.12l-.018.092-.052.078-.078.052-.092.018h-1.92l-.092-.018-.078-.052-.052-.078-.018-.092Z" style="stroke:#afafaf;stroke-width:.0212;stroke-opacity:1;stroke-linecap:round;stroke-linejoin:round;fill:none"/>
    </g>
    <g class="stroked-text" style="fill:none;stroke:#afafaf;stroke-width:.0444;stroke-opacity:1;stroke-linecap:round;stroke-linejoin:round">
        <path d="M17.747 15.351h-.102M17.645 15.351l-.05.025M17.594 15.377l-.025.025M17.569 15.402l-.051.076M17.518 15.478l-.025.102M17.493 15.58v.203M17.493 15.783l.025.05M17.518 15.834l.025.025M17.543 15.859l.051.025M17.594 15.884h.102M17.696 15.884l.05-.025M17.747 15.859l.025-.025M17.772 15.834l.025-.051M17.797 15.783v-.127M17.797 15.656l-.025-.05M17.772 15.605l-.025-.025M17.747 15.58l-.051-.026M17.696 15.554h-.102M17.594 15.554l-.05.026M17.543 15.58l-.025.025M17.518 15.605l-.025.05"/>
    </g>
    <circle cx="17.645" cy="15.64" r=".8" style="fill:none;stroke:#afafaf;stroke-width:.0212;stroke-opacity:1;stroke-linecap:round;stroke-linejoin:round"/>
    <g style="fill:none;stroke:#afafaf;stroke-width:.0667;stroke-opacity:1;stroke-linecap:round;stroke-linejoin:round">
        <g class="stroked-text">
            <path d="M18.777 15.207h-.152M18.625 15.207l-.076.038M18.549 15.245l-.038.038M18.51 15.283l-.076.114M18.435 15.397l-.039.152M18.396 15.55v.304M18.396 15.854l.038.076M18.435 15.93l.038.039M18.473 15.969l.076.038M18.549 16.007h.152M18.701 16.007l.076-.039M18.777 15.969l.038-.039M18.816 15.93l.038-.076M18.854 15.854v-.19M18.854 15.664l-.038-.076M18.816 15.588l-.039-.038M18.777 15.55l-.076-.039M18.701 15.511h-.152M18.549 15.511l-.076.039M18.473 15.55l-.038.038M18.435 15.588l-.039.076"/>
        </g>
        <path d="m17.425 15.08.018-.092.052-.078.078-.052.092-.018h1.92l.092.018.078.052.052.078.018.092v1.12l-.018.092-.052.078-.078.052-.092.018h-1.92l-.092-.018-.078-.052-.052-.078-.018-.092Z" style="stroke:#afafaf;stroke-width:.0212;stroke-opacity:1;stroke-linecap:round;stroke-linejoin:round;fill:none"/>
    </g>
    <g class="stroked-text" style="fill:none;stroke:#afafaf;stroke-width:.0444;stroke-opacity:1;stroke-linecap:round;stroke-linejoin:round">
        <path d="M17.467 17.891h.356M17.823 17.891l-.229.533"/>
    </g>
    <circle cx="17.645" cy="18.18" r=".8" style="fill:none;stroke:#afafaf;stroke-width:.0212;stroke-opacity:1;stroke-linecap:round;stroke-linejoin:round"/>
    <g style="fill:none;stroke:#afafaf;stroke-width:.0667;stroke-opacity:1;stroke-linecap:round;stroke-linejoin:round">
        <g class="stroked-text">
            <path d="M18.358 17.747h.534M18.892 17.747l-.343.8"/>
        </g>
        <path d="m17.425 17.62.018-.092.052-.078.078-.052.092-.018h1.92l.092.018.078.052.052.078.018.092v1.12l-.018.092-.052.078-.078.052-.092.018h-1.92l-.092-.018-.078-.052-.052-.078-.018-.092Z" style="stroke:#afafaf;stroke-width:.0212;stroke-opacity:1;stroke-linecap:round;stroke-linejoin:round;fill:none"/>
    </g>
    <g class="stroked-text" style="fill:none;stroke:#afafaf;stroke-width:.0444;stroke-opacity:1;stroke-linecap:round;stroke-linejoin:round">
        <path d="m17.594 20.66-.05-.026M17.543 20.634l-.025-.025M17.518 20.609l-.025-.05M17.493 20.558v-.025M17.493 20.533l.025-.051M17.518 20.482l.025-.026M17.543 20.457l.051-.026M17.594 20.431h.102M17.696 20.431l.05.025M17.747 20.457l.025.025M17.772 20.482l.025.05M17.797 20.533v.025M17.797 20.558l-.025.05M17.772 20.609l-.025.025M17.747 20.634l-.051.026M17.696 20.66h-.102M17.594 20.66l-.05.025M17.543 20.685l-.025.025M17.518 20.71l-.025.051M17.493 20.761v.102M17.493 20.863l.025.05M17.518 20.914l.025.025M17.543 20.939l.051.025M17.594 20.964h.102M17.696 20.964l.05-.025M17.747 20.939l.025-.025M17.772 20.914l.025-.051M17.797 20.863v-.102M17.797 20.761l-.025-.05M17.772 20.71l-.025-.025M17.747 20.685l-.051-.025"/>
    </g>
    <circle cx="17.645" cy="20.72" r=".8" style="fill:none;stroke:#afafaf;stroke-width:.0212;stroke-opacity:1;stroke-linecap:round;stroke-linejoin:round"/>
    <g style="fill:none;stroke:#afafaf;stroke-width:.0667;stroke-opacity:1;stroke-linecap:round;stroke-linejoin:round">
        <g class="stroked-text">
            <path d="m18.549 20.63-.076-.039M18.473 20.591l-.038-.038M18.435 20.553l-.039-.076M18.396 20.477v-.038M18.396 20.439l.038-.076M18.435 20.363l.038-.038M18.473 20.325l.076-.038M18.549 20.287h.152M18.701 20.287l.076.038M18.777 20.325l.038.038M18.816 20.363l.038.076M18.854 20.439v.038M18.854 20.477l-.038.076M18.816 20.553l-.039.038M18.777 20.591l-.076.038M18.701 20.63h-.152M18.549 20.63l-.076.038M18.473 20.668l-.038.038M18.435 20.706l-.039.076M18.396 20.782v.152M18.396 20.934l.038.076M18.435 21.01l.038.038M18.473 21.049l.076.038M18.549 21.087h.152M18.701 21.087l.076-.038M18.777 21.049l.038-.039M18.816 21.01l.038-.076M18.854 20.934v-.152M18.854 20.782l-.038-.076M18.816 20.706l-.039-.038M18.777 20.668l-.076-.038"/>
        </g>
        <path d="m17.425 20.16.018-.092.052-.078.078-.052.092-.018h1.92l.092.018.078.052.052.078.018.092v1.12l-.018.092-.052.078-.078.052-.092.018h-1.92l-.092-.018-.078-.052-.052-.078-.018-.092Z" style="stroke:#afafaf;stroke-width:.0212;stroke-opacity:1;stroke-linecap:round;stroke-linejoin:round;fill:none"/>
    </g>
    <g class="stroked-text" style="fill:none;stroke:#afafaf;stroke-width:.0444;stroke-opacity:1;stroke-linecap:round;stroke-linejoin:round">
        <path d="M17.543 23.504h.102M17.645 23.504l.05-.025M17.696 23.479l.025-.025M17.721 23.454l.051-.077M17.772 23.377l.025-.101M17.797 23.276v-.203M17.797 23.073l-.025-.051M17.772 23.022l-.025-.025M17.747 22.997l-.051-.026M17.696 22.971h-.102M17.594 22.971l-.05.026M17.543 22.997l-.025.025M17.518 23.022l-.025.05M17.493 23.073v.127M17.493 23.2l.025.05M17.518 23.25l.025.026M17.543 23.276l.051.025M17.594 23.301h.102M17.696 23.301l.05-.025M17.747 23.276l.025-.026M17.772 23.25l.025-.05"/>
    </g>
    <circle cx="17.645" cy="23.26" r=".8" style="fill:none;stroke:#afafaf;stroke-width:.0212;stroke-opacity:1;stroke-linecap:round;stroke-linejoin:round"/>
    <g style="fill:none;stroke:#afafaf;stroke-width:.0667;stroke-opacity:1;stroke-linecap:round;stroke-linejoin:round">
        <g class="stroked-text">
            <path d="M18.473 23.627h.152M18.625 23.627l.076-.038M18.701 23.589l.038-.039M18.74 23.55l.076-.114M18.816 23.436l.038-.152M18.854 23.284v-.305M18.854 22.979l-.038-.076M18.816 22.903l-.039-.038M18.777 22.865l-.076-.038M18.701 22.827h-.152M18.549 22.827l-.076.038M18.473 22.865l-.038.038M18.435 22.903l-.039.076M18.396 22.979v.19M18.396 23.17l.038.076M18.435 23.246l.038.038M18.473 23.284l.076.038M18.549 23.322h.152M18.701 23.322l.076-.038M18.777 23.284l.038-.038M18.816 23.246l.038-.076"/>
        </g>
        <path d="m17.425 22.7.018-.092.052-.078.078-.052.092-.018h1.92l.092.018.078.052.052.078.018.092v1.12l-.018.092-.052.078-.078.052-.092.018h-1.92l-.092-.018-.078-.052-.052-.078-.018-.092Z" style="stroke:#afafaf;stroke-width:.0212;stroke-opacity:1;stroke-linecap:round;stroke-linejoin:round;fill:none"/>
    </g>
    <g class="stroked-text" style="fill:none;stroke:#afafaf;stroke-width:.0444;stroke-opacity:1;stroke-linecap:round;stroke-linejoin:round">
        <path d="M15.003 23.504H14.7M14.851 23.504v-.533M14.851 22.971l-.05.076M14.8 23.047l-.05.051M14.75 23.098l-.051.026M15.334 22.971h.05M15.384 22.971l.051.026M15.435 22.997l.026.025M15.46 23.022l.026.05M15.486 23.073l.025.101M15.511 23.174v.127M15.511 23.301l-.025.102M15.486 23.403l-.025.05M15.46 23.454l-.025.025M15.435 23.479l-.05.025M15.384 23.504h-.05M15.334 23.504l-.051-.025M15.283 23.479l-.026-.025M15.257 23.454l-.025-.051M15.232 23.403l-.025-.102M15.207 23.301v-.127M15.207 23.174l.025-.101M15.232 23.073l.025-.051M15.257 23.022l.026-.025M15.283 22.997l.05-.026"/>
    </g>
    <circle cx="15.105" cy="23.26" r=".8" style="fill:none;stroke:#afafaf;stroke-width:.0212;stroke-opacity:1;stroke-linecap:round;stroke-linejoin:round"/>
    <g style="fill:none;stroke:#afafaf;stroke-width:.0667;stroke-opacity:1;stroke-linecap:round;stroke-linejoin:round">
        <g class="stroked-text">
            <path d="M15.472 24.392v.457M15.472 24.621h-.8M14.672 24.621l.114.076M14.786 24.697l.076.076M14.862 24.773l.038.076M14.672 23.897v-.076M14.672 23.821l.038-.076M14.71 23.745l.038-.038M14.748 23.707l.076-.038M14.824 23.669l.152-.038M14.976 23.63h.19M15.167 23.63l.152.039M15.32 23.669l.075.038M15.395 23.707l.039.038M15.434 23.745l.038.076M15.472 23.821v.076M15.472 23.897l-.038.076M15.434 23.973l-.039.038M15.395 24.011l-.076.038M15.32 24.05l-.153.038M15.167 24.088h-.19M14.976 24.088l-.152-.039M14.824 24.05l-.076-.039M14.748 24.011l-.038-.038M14.71 23.973l-.038-.076"/>
        </g>
        <path d="m14.545 25.44-.092-.018-.078-.052-.052-.078-.018-.092v-1.92l.018-.092.052-.078.078-.052.092-.018h1.12l.092.018.078.052.052.078.018.092v1.92l-.018.092-.052.078-.078.052-.092.018Z" style="stroke:#afafaf;stroke-width:.0212;stroke-opacity:1;stroke-linecap:round;stroke-linejoin:round;fill:none"/>
    </g>
    <g class="stroked-text" style="fill:none;stroke:#afafaf;stroke-width:.0444;stroke-opacity:1;stroke-linecap:round;stroke-linejoin:round">
        <path d="M12.463 23.504h-.304M12.311 23.504v-.533M12.311 22.971l-.05.076M12.26 23.047l-.05.051M12.21 23.098l-.051.026M12.971 23.504h-.304M12.819 23.504v-.533M12.819 22.971l-.05.076M12.768 23.047l-.05.051M12.717 23.098l-.05.026"/>
    </g>
    <circle cx="12.565" cy="23.26" r=".8" style="fill:none;stroke:#afafaf;stroke-width:.0212;stroke-opacity:1;stroke-linecap:round;stroke-linejoin:round"/>
    <g style="fill:none;stroke:#afafaf;stroke-width:.0667;stroke-opacity:1;stroke-linecap:round;stroke-linejoin:round">
        <g class="stroked-text">
            <path d="M12.932 24.392v.457M12.932 24.621h-.8M12.132 24.621l.114.076M12.246 24.697l.076.076M12.322 24.773l.038.076M12.932 23.63v.458M12.932 23.859h-.8M12.132 23.859l.114.076M12.246 23.935l.076.076M12.322 24.011l.038.077"/>
        </g>
        <path d="m12.005 25.44-.092-.018-.078-.052-.052-.078-.018-.092v-1.92l.018-.092.052-.078.078-.052.092-.018h1.12l.092.018.078.052.052.078.018.092v1.92l-.018.092-.052.078-.078.052-.092.018Z" style="stroke:#afafaf;stroke-width:.0212;stroke-opacity:1;stroke-linecap:round;stroke-linejoin:round;fill:none"/>
    </g>
    <g class="stroked-text" style="fill:none;stroke:#afafaf;stroke-width:.0444;stroke-opacity:1;stroke-linecap:round;stroke-linejoin:round">
        <path d="M9.923 23.504H9.62M9.771 23.504v-.533M9.771 22.971l-.05.076M9.72 23.047l-.05.051M9.67 23.098l-.051.026M10.127 23.022l.025-.025M10.152 22.997l.05-.026M10.203 22.971h.127M10.33 22.971l.05.026M10.38 22.997l.026.025M10.406 23.022l.025.05M10.431 23.073v.05M10.431 23.124l-.025.076M10.406 23.2l-.305.304M10.101 23.504h.33"/>
    </g>
    <circle cx="10.025" cy="23.26" r=".8" style="fill:none;stroke:#afafaf;stroke-width:.0212;stroke-opacity:1;stroke-linecap:round;stroke-linejoin:round"/>
    <g style="fill:none;stroke:#afafaf;stroke-width:.0667;stroke-opacity:1;stroke-linecap:round;stroke-linejoin:round">
        <g class="stroked-text">
            <path d="M10.392 24.392v.457M10.392 24.621h-.8M9.592 24.621l.114.076M9.706 24.697l.076.076M9.782 24.773l.038.076M9.668 24.088l-.038-.039M9.63 24.05l-.038-.077M9.592 23.973v-.19M9.592 23.783l.038-.076M9.63 23.707l.038-.038M9.668 23.669l.076-.038M9.744 23.63h.076M9.82 23.63l.114.039M9.935 23.669l.457.457M10.392 24.126v-.495"/>
        </g>
        <path d="m9.465 25.44-.092-.018-.078-.052-.052-.078-.018-.092v-1.92l.018-.092.052-.078.078-.052.092-.018h1.12l.092.018.078.052.052.078.018.092v1.92l-.018.092-.052.078-.078.052-.092.018Z" style="stroke:#afafaf;stroke-width:.0212;stroke-opacity:1;stroke-linecap:round;stroke-linejoin:round;fill:none"/>
    </g>
    <g class="stroked-text" style="fill:none;stroke:#afafaf;stroke-width:.0444;stroke-opacity:1;stroke-linecap:round;stroke-linejoin:round">
        <path d="M7.383 23.504H7.08M7.231 23.504v-.533M7.231 22.971l-.05.076M7.18 23.047l-.05.051M7.13 23.098l-.051.026M7.561 22.971h.33M7.891 22.971l-.177.203M7.714 23.174h.076M7.79 23.174l.05.026M7.84 23.2l.026.025M7.866 23.225l.025.05M7.891 23.276v.127M7.891 23.403l-.025.05M7.866 23.454l-.025.025M7.84 23.479l-.05.025M7.79 23.504h-.153M7.637 23.504l-.05-.025M7.587 23.479l-.026-.025"/>
    </g>
    <circle cx="7.485" cy="23.26" r=".8" style="fill:none;stroke:#afafaf;stroke-width:.0212;stroke-opacity:1;stroke-linecap:round;stroke-linejoin:round"/>
    <g style="fill:none;stroke:#afafaf;stroke-width:.0667;stroke-opacity:1;stroke-linecap:round;stroke-linejoin:round">
        <g class="stroked-text">
            <path d="M7.852 24.392v.457M7.852 24.621h-.8M7.052 24.621l.114.076M7.166 24.697l.076.076M7.242 24.773l.038.076M7.052 24.126v-.495M7.052 23.63l.304.267M7.356 23.897v-.114M7.356 23.783l.038-.076M7.395 23.707l.038-.038M7.433 23.669l.076-.038M7.509 23.63h.19M7.7 23.63l.075.039M7.775 23.669l.038.038M7.814 23.707l.038.076M7.852 23.783v.228M7.852 24.011l-.038.077M7.814 24.088l-.039.038"/>
        </g>
        <path d="m6.925 25.44-.092-.018-.078-.052-.052-.078-.018-.092v-1.92l.018-.092.052-.078.078-.052.092-.018h1.12l.092.018.078.052.052.078.018.092v1.92l-.018.092-.052.078-.078.052-.092.018Z" style="stroke:#afafaf;stroke-width:.0212;stroke-opacity:1;stroke-linecap:round;stroke-linejoin:round;fill:none"/>
    </g>
    <g class="stroked-text" style="fill:none;stroke:#afafaf;stroke-width:.0444;stroke-opacity:1;stroke-linecap:round;stroke-linejoin:round">
        <path d="M4.843 23.504H4.54M4.691 23.504v-.533M4.691 22.971l-.05.076M4.64 23.047l-.05.051M4.59 23.098l-.051.026M5.3 23.149v.355M5.174 22.946l-.127.38M5.047 23.327h.33"/>
    </g>
    <circle cx="4.945" cy="23.26" r=".8" style="fill:none;stroke:#afafaf;stroke-width:.0212;stroke-opacity:1;stroke-linecap:round;stroke-linejoin:round"/>
    <g style="fill:none;stroke:#afafaf;stroke-width:.0667;stroke-opacity:1;stroke-linecap:round;stroke-linejoin:round">
        <g class="stroked-text">
            <path d="M5.312 24.392v.457M5.312 24.621h-.8M4.512 24.621l.114.076M4.626 24.697l.076.076M4.702 24.773l.038.076M4.778 23.707h.534M4.474 23.897l.571.19M5.045 24.088v-.496"/>
        </g>
        <path d="m4.385 25.44-.092-.018-.078-.052-.052-.078-.018-.092v-1.92l.018-.092.052-.078.078-.052.092-.018h1.12l.092.018.078.052.052.078.018.092v1.92l-.018.092-.052.078-.078.052-.092.018Z" style="stroke:#afafaf;stroke-width:.0212;stroke-opacity:1;stroke-linecap:round;stroke-linejoin:round;fill:none"/>
    </g>
    <g style="fill:none;stroke:#afafaf;stroke-width:.0667;stroke-opacity:1;stroke-linecap:round;stroke-linejoin:round">
        <g class="stroked-text">
            <path d="M1.273 23.627H.816M1.044 23.627v-.8M1.044 22.827l-.076.114M.968 22.94l-.076.077M.892 23.017l-.077.038M1.996 22.827h-.38M1.616 22.827l-.039.38M1.577 23.208l.038-.038M1.616 23.17l.076-.039M1.692 23.131h.19M1.882 23.131l.076.038M1.958 23.17l.038.038M1.996 23.208l.038.076M2.035 23.284v.19M2.035 23.474l-.039.076M1.996 23.55l-.038.038M1.958 23.589l-.076.038M1.882 23.627h-.19M1.692 23.627l-.077-.038M1.616 23.589l-.039-.039"/>
        </g>
        <path d="m.225 22.7.018-.092.052-.078.078-.052.092-.018h1.92l.092.018.078.052.052.078.018.092v1.12l-.018.092-.052.078-.078.052-.092.018H.465l-.092-.018-.078-.052-.052-.078-.018-.092Z" style="stroke:#afafaf;stroke-width:.0212;stroke-opacity:1;stroke-linecap:round;stroke-linejoin:round;fill:none"/>
    </g>
    <g class="stroked-text" style="fill:none;stroke:#afafaf;stroke-width:.0444;stroke-opacity:1;stroke-linecap:round;stroke-linejoin:round">
        <path d="M2.303 23.504H2M2.151 23.504v-.533M2.151 22.971l-.05.076M2.1 23.047l-.05.051M2.05 23.098l-.051.026M2.786 22.971h-.254M2.532 22.971l-.025.254M2.507 23.225l.025-.025M2.532 23.2l.05-.026M2.583 23.174h.127M2.71 23.174l.05.026M2.76 23.2l.026.025M2.786 23.225l.025.05M2.811 23.276v.127M2.811 23.403l-.025.05M2.786 23.454l-.025.025M2.76 23.479l-.05.025M2.71 23.504h-.127M2.583 23.504l-.051-.025M2.532 23.479l-.025-.025"/>
    </g>
    <circle cx="2.405" cy="23.26" r=".8" style="fill:none;stroke:#afafaf;stroke-width:.0212;stroke-opacity:1;stroke-linecap:round;stroke-linejoin:round"/>
    <g style="fill:none;stroke:#afafaf;stroke-width:.0667;stroke-opacity:1;stroke-linecap:round;stroke-linejoin:round">
        <g class="stroked-text">
            <path d="M1.273 21.087H.816M1.044 21.087v-.8M1.044 20.287l-.076.114M.968 20.4l-.076.077M.892 20.477l-.077.038M1.958 20.287h-.152M1.806 20.287l-.076.038M1.73 20.325l-.038.038M1.692 20.363l-.077.114M1.616 20.477l-.039.152M1.577 20.63v.304M1.577 20.934l.038.076M1.616 21.01l.038.038M1.654 21.049l.076.038M1.73 21.087h.152M1.882 21.087l.076-.038M1.958 21.049l.038-.039M1.996 21.01l.038-.076M2.035 20.934v-.19M2.035 20.744l-.039-.076M1.996 20.668l-.038-.038M1.958 20.63l-.076-.039M1.882 20.591H1.73M1.73 20.591l-.076.038M1.654 20.63l-.038.038M1.616 20.668l-.039.076"/>
        </g>
        <path d="m.225 20.16.018-.092.052-.078.078-.052.092-.018h1.92l.092.018.078.052.052.078.018.092v1.12l-.018.092-.052.078-.078.052-.092.018H.465l-.092-.018-.078-.052-.052-.078-.018-.092Z" style="stroke:#afafaf;stroke-width:.0212;stroke-opacity:1;stroke-linecap:round;stroke-linejoin:round;fill:none"/>
    </g>
    <g class="stroked-text" style="fill:none;stroke:#afafaf;stroke-width:.0444;stroke-opacity:1;stroke-linecap:round;stroke-linejoin:round">
        <path d="M2.303 20.964H2M2.151 20.964v-.533M2.151 20.431l-.05.076M2.1 20.507l-.05.051M2.05 20.558l-.051.026M2.76 20.431H2.66M2.659 20.431l-.05.025M2.608 20.457l-.025.025M2.583 20.482l-.051.076M2.532 20.558l-.025.102M2.507 20.66v.203M2.507 20.863l.025.05M2.532 20.914l.025.025M2.557 20.939l.051.025M2.608 20.964h.102M2.71 20.964l.05-.025M2.76 20.939l.026-.025M2.786 20.914l.025-.051M2.811 20.863v-.127M2.811 20.736l-.025-.05M2.786 20.685l-.025-.025M2.76 20.66l-.05-.026M2.71 20.634h-.102M2.608 20.634l-.05.026M2.557 20.66l-.025.025M2.532 20.685l-.025.05"/>
    </g>
    <circle cx="2.405" cy="20.72" r=".8" style="fill:none;stroke:#afafaf;stroke-width:.0212;stroke-opacity:1;stroke-linecap:round;stroke-linejoin:round"/>
    <g style="fill:none;stroke:#afafaf;stroke-width:.0667;stroke-opacity:1;stroke-linecap:round;stroke-linejoin:round">
        <g class="stroked-text">
            <path d="M1.273 18.547H.816M1.044 18.547v-.8M1.044 17.747l-.076.114M.968 17.86l-.076.077M.892 17.937l-.077.038M1.54 17.747h.533M2.073 17.747l-.343.8"/>
        </g>
        <path d="m.225 17.62.018-.092.052-.078.078-.052.092-.018h1.92l.092.018.078.052.052.078.018.092v1.12l-.018.092-.052.078-.078.052-.092.018H.465l-.092-.018-.078-.052-.052-.078-.018-.092Z" style="stroke:#afafaf;stroke-width:.0212;stroke-opacity:1;stroke-linecap:round;stroke-linejoin:round;fill:none"/>
    </g>
    <g class="stroked-text" style="fill:none;stroke:#afafaf;stroke-width:.0444;stroke-opacity:1;stroke-linecap:round;stroke-linejoin:round">
        <path d="M2.303 18.424H2M2.151 18.424v-.533M2.151 17.891l-.05.076M2.1 17.967l-.05.051M2.05 18.018l-.051.026M2.481 17.891h.356M2.837 17.891l-.229.533"/>
    </g>
    <circle cx="2.405" cy="18.18" r=".8" style="fill:none;stroke:#afafaf;stroke-width:.0212;stroke-opacity:1;stroke-linecap:round;stroke-linejoin:round"/>
    <g style="fill:none;stroke:#afafaf;stroke-width:.0667;stroke-opacity:1;stroke-linecap:round;stroke-linejoin:round">
        <g class="stroked-text">
            <path d="M1.273 16.007H.816M1.044 16.007v-.8M1.044 15.207l-.076.114M.968 15.32l-.076.077M.892 15.397l-.077.038M1.73 15.55l-.076-.039M1.654 15.511l-.038-.038M1.616 15.473l-.039-.076M1.577 15.397v-.038M1.577 15.359l.038-.076M1.616 15.283l.038-.038M1.654 15.245l.076-.038M1.73 15.207h.152M1.882 15.207l.076.038M1.958 15.245l.038.038M1.996 15.283l.038.076M2.035 15.359v.038M2.035 15.397l-.039.076M1.996 15.473l-.038.038M1.958 15.511l-.076.039M1.882 15.55H1.73M1.73 15.55l-.076.038M1.654 15.588l-.038.038M1.616 15.626l-.039.076M1.577 15.702v.152M1.577 15.854l.038.076M1.616 15.93l.038.039M1.654 15.969l.076.038M1.73 16.007h.152M1.882 16.007l.076-.039M1.958 15.969l.038-.039M1.996 15.93l.038-.076M2.035 15.854v-.152M2.035 15.702l-.039-.076M1.996 15.626l-.038-.038M1.958 15.588l-.076-.038"/>
        </g>
        <path d="m.225 15.08.018-.092.052-.078.078-.052.092-.018h1.92l.092.018.078.052.052.078.018.092v1.12l-.018.092-.052.078-.078.052-.092.018H.465l-.092-.018-.078-.052-.052-.078-.018-.092Z" style="stroke:#afafaf;stroke-width:.0212;stroke-opacity:1;stroke-linecap:round;stroke-linejoin:round;fill:none"/>
    </g>
    <g class="stroked-text" style="fill:none;stroke:#afafaf;stroke-width:.0444;stroke-opacity:1;stroke-linecap:round;stroke-linejoin:round">
        <path d="M2.303 15.884H2M2.151 15.884v-.533M2.151 15.351l-.05.076M2.1 15.427l-.05.051M2.05 15.478l-.051.026M2.608 15.58l-.05-.026M2.557 15.554l-.025-.025M2.532 15.529l-.025-.05M2.507 15.478v-.025M2.507 15.453l.025-.051M2.532 15.402l.025-.025M2.557 15.377l.051-.026M2.608 15.351h.102M2.71 15.351l.05.025M2.76 15.377l.026.025M2.786 15.402l.025.05M2.811 15.453v.025M2.811 15.478l-.025.05M2.786 15.529l-.025.025M2.76 15.554l-.05.026M2.71 15.58h-.102M2.608 15.58l-.05.025M2.557 15.605l-.025.025M2.532 15.63l-.025.051M2.507 15.681v.102M2.507 15.783l.025.05M2.532 15.834l.025.025M2.557 15.859l.051.025M2.608 15.884h.102M2.71 15.884l.05-.025M2.76 15.859l.026-.025M2.786 15.834l.025-.051M2.811 15.783v-.102M2.811 15.681l-.025-.05M2.786 15.63l-.025-.025M2.76 15.605l-.05-.025"/>
    </g>
    <circle cx="2.405" cy="15.64" r=".8" style="fill:none;stroke:#afafaf;stroke-width:.0212;stroke-opacity:1;stroke-linecap:round;stroke-linejoin:round"/>
    <g style="fill:none;stroke:#afafaf;stroke-width:.0667;stroke-opacity:1;stroke-linecap:round;stroke-linejoin:round">
        <g class="stroked-text">
            <path d="M1.273 13.467H.816M1.044 13.467v-.8M1.044 12.667l-.076.114M.968 12.78l-.076.077M.892 12.857l-.077.038M1.654 13.467h.152M1.806 13.467l.076-.039M1.882 13.429l.038-.039M1.92 13.39l.076-.114M1.996 13.276l.038-.152M2.035 13.124v-.305M2.035 12.819l-.039-.076M1.996 12.743l-.038-.038M1.958 12.705l-.076-.038M1.882 12.667H1.73M1.73 12.667l-.076.038M1.654 12.705l-.038.038M1.616 12.743l-.039.076M1.577 12.819v.19M1.577 13.01l.038.076M1.616 13.086l.038.038M1.654 13.124l.076.038M1.73 13.162h.152M1.882 13.162l.076-.038M1.958 13.124l.038-.038M1.996 13.086l.038-.077"/>
        </g>
        <path d="m.225 12.54.018-.092.052-.078.078-.052.092-.018h1.92l.092.018.078.052.052.078.018.092v1.12l-.018.092-.052.078-.078.052-.092.018H.465l-.092-.018-.078-.052-.052-.078-.018-.092Z" style="stroke:#afafaf;stroke-width:.0212;stroke-opacity:1;stroke-linecap:round;stroke-linejoin:round;fill:none"/>
    </g>
    <g class="stroked-text" style="fill:none;stroke:#afafaf;stroke-width:.0444;stroke-opacity:1;stroke-linecap:round;stroke-linejoin:round">
        <path d="M2.303 13.344H2M2.151 13.344v-.533M2.151 12.811l-.05.076M2.1 12.887l-.05.051M2.05 12.938l-.051.025M2.557 13.344h.102M2.659 13.344l.05-.025M2.71 13.319l.025-.025M2.735 13.294l.051-.077M2.786 13.217l.025-.101M2.811 13.116v-.203M2.811 12.913l-.025-.051M2.786 12.862l-.025-.026M2.76 12.837l-.05-.026M2.71 12.811h-.102M2.608 12.811l-.05.025M2.557 12.837l-.025.025M2.532 12.862l-.025.05M2.507 12.913v.127M2.507 13.04l.025.05M2.532 13.09l.025.026M2.557 13.116l.051.025M2.608 13.141h.102M2.71 13.141l.05-.025M2.76 13.116l.026-.026M2.786 13.09l.025-.05"/>
    </g>
    <circle cx="2.405" cy="13.1" r=".8" style="fill:none;stroke:#afafaf;stroke-width:.0212;stroke-opacity:1;stroke-linecap:round;stroke-linejoin:round"/>
    <g style="fill:none;stroke:#afafaf;stroke-width:.0667;stroke-opacity:1;stroke-linecap:round;stroke-linejoin:round">
        <g class="stroked-text">
            <path d="m.816 10.203.038-.038M.854 10.165l.076-.038M.93 10.127h.19M1.12 10.127l.076.038M1.196 10.165l.038.038M1.235 10.203l.038.076M1.273 10.279v.076M1.273 10.355l-.038.114M1.235 10.47l-.458.457M.777 10.927h.496M1.768 10.127h.076M1.844 10.127l.076.038M1.92 10.165l.038.038M1.958 10.203l.038.076M1.996 10.279l.038.152M2.035 10.431v.19M2.035 10.622l-.039.152M1.996 10.774l-.038.076M1.958 10.85l-.038.039M1.92 10.889l-.076.038M1.844 10.927h-.076M1.768 10.927l-.076-.038M1.692 10.889l-.038-.039M1.654 10.85l-.038-.076M1.616 10.774l-.039-.152M1.577 10.622v-.19M1.577 10.431l.038-.152M1.616 10.279l.038-.076M1.654 10.203l.038-.038M1.692 10.165l.076-.038"/>
        </g>
        <path d="m.225 10 .018-.092.052-.078.078-.052.092-.018h1.92l.092.018.078.052.052.078.018.092v1.12l-.018.092-.052.078-.078.052-.092.018H.465l-.092-.018-.078-.052-.052-.078-.018-.092Z" style="stroke:#afafaf;stroke-width:.0212;stroke-opacity:1;stroke-linecap:round;stroke-linejoin:round;fill:none"/>
    </g>
    <g class="stroked-text" style="fill:none;stroke:#afafaf;stroke-width:.0444;stroke-opacity:1;stroke-linecap:round;stroke-linejoin:round">
        <path d="m1.999 10.322.025-.025M2.024 10.297l.05-.026M2.075 10.271h.127M2.202 10.271l.05.025M2.253 10.297l.025.025M2.278 10.322l.025.05M2.303 10.373v.05M2.303 10.424l-.025.076M2.278 10.5l-.305.304M1.973 10.804h.33M2.634 10.271h.05M2.684 10.271l.051.025M2.735 10.297l.026.025M2.76 10.322l.026.05M2.786 10.373l.025.101M2.811 10.474v.127M2.811 10.601l-.025.102M2.786 10.703l-.025.05M2.76 10.754l-.025.025M2.735 10.779l-.05.025M2.684 10.804h-.05M2.634 10.804l-.051-.025M2.583 10.779l-.026-.025M2.557 10.754l-.025-.051M2.532 10.703l-.025-.102M2.507 10.601v-.127M2.507 10.474l.025-.101M2.532 10.373l.025-.051M2.557 10.322l.026-.025M2.583 10.297l.05-.026"/>
    </g>
    <circle cx="2.405" cy="10.56" r=".8" style="fill:none;stroke:#afafaf;stroke-width:.0212;stroke-opacity:1;stroke-linecap:round;stroke-linejoin:round"/>
    <g style="fill:none;stroke:#afafaf;stroke-width:.0667;stroke-opacity:1;stroke-linecap:round;stroke-linejoin:round">
        <g class="stroked-text">
            <path d="m.816 7.663.038-.038M.854 7.625l.076-.038M.93 7.587h.19M1.12 7.587l.076.038M1.196 7.625l.038.038M1.235 7.663l.038.076M1.273 7.739v.076M1.273 7.815l-.038.114M1.235 7.93l-.458.457M.777 8.387h.496M2.035 8.387h-.458M1.806 8.387v-.8M1.806 7.587 1.73 7.7M1.73 7.7l-.076.077M1.654 7.777l-.077.038"/>
        </g>
        <path d="m.225 7.46.018-.092.052-.078.078-.052.092-.018h1.92l.092.018.078.052.052.078.018.092v1.12l-.018.092-.052.078-.078.052-.092.018H.465l-.092-.018-.078-.052-.052-.078-.018-.092Z" style="stroke:#afafaf;stroke-width:.0212;stroke-opacity:1;stroke-linecap:round;stroke-linejoin:round;fill:none"/>
    </g>
    <g class="stroked-text" style="fill:none;stroke:#afafaf;stroke-width:.0444;stroke-opacity:1;stroke-linecap:round;stroke-linejoin:round">
        <path d="m1.999 7.782.025-.026M2.024 7.757l.05-.026M2.075 7.731h.127M2.202 7.731l.05.026M2.253 7.757l.025.025M2.278 7.782l.025.05M2.303 7.833v.05M2.303 7.884l-.025.076M2.278 7.96l-.305.304M1.973 8.264h.33M2.811 8.264h-.304M2.659 8.264v-.533M2.659 7.731l-.05.076M2.608 7.807l-.05.051M2.557 7.858l-.05.026"/>
    </g>
    <circle cx="2.405" cy="8.02" r=".8" style="fill:none;stroke:#afafaf;stroke-width:.0212;stroke-opacity:1;stroke-linecap:round;stroke-linejoin:round"/>
    <g style="fill:none;stroke:#afafaf;stroke-width:.0667;stroke-opacity:1;stroke-linecap:round;stroke-linejoin:round">
        <g class="stroked-text">
            <path d="m.816 5.123.038-.038M.854 5.085l.076-.038M.93 5.047h.19M1.12 5.047l.076.038M1.196 5.085l.038.038M1.235 5.123l.038.076M1.273 5.199v.076M1.273 5.275l-.038.114M1.235 5.39l-.458.457M.777 5.847h.496M1.577 5.123l.038-.038M1.616 5.085l.076-.038M1.692 5.047h.19M1.882 5.047l.076.038M1.958 5.085l.038.038M1.996 5.123l.038.076M2.035 5.199v.076M2.035 5.275l-.039.114M1.996 5.39l-.457.457M1.54 5.847h.494"/>
        </g>
        <path d="m.225 4.92.018-.092.052-.078.078-.052.092-.018h1.92l.092.018.078.052.052.078.018.092v1.12l-.018.092-.052.078-.078.052-.092.018H.465l-.092-.018-.078-.052-.052-.078-.018-.092Z" style="stroke:#afafaf;stroke-width:.0212;stroke-opacity:1;stroke-linecap:round;stroke-linejoin:round;fill:none"/>
    </g>
    <g style="fill:none;stroke:#afafaf;stroke-width:.0444;stroke-opacity:1;stroke-linecap:round;stroke-linejoin:round">
        <g class="stroked-text">
            <path d="m1.999 5.242.025-.026M2.024 5.217l.05-.026M2.075 5.191h.127M2.202 5.191l.05.026M2.253 5.217l.025.025M2.278 5.242l.025.05M2.303 5.293v.05M2.303 5.344l-.025.076M2.278 5.42l-.305.304M1.973 5.724h.33M2.507 5.242l.025-.026M2.532 5.217l.05-.026M2.583 5.191h.127M2.71 5.191l.05.026M2.76 5.217l.026.025M2.786 5.242l.025.05M2.811 5.293v.05M2.811 5.344l-.025.076M2.786 5.42l-.305.304M2.481 5.724h.33"/>
        </g>
        <path d="m2.805 4.68.4.4v.8l-.4.4h-.96l-.092-.018-.078-.052-.052-.078-.018-.092V4.92l.018-.092.052-.078.078-.052.092-.018Z" style="stroke:#afafaf;stroke-width:.0212;stroke-opacity:1;stroke-linecap:round;stroke-linejoin:round;fill:none"/>
    </g>
    <g style="fill:none;stroke:#afafaf;stroke-width:.0667;stroke-opacity:1;stroke-linecap:round;stroke-linejoin:round">
        <g class="stroked-text">
            <path d="m.816 2.583.038-.038M.854 2.545l.076-.038M.93 2.507h.19M1.12 2.507l.076.038M1.196 2.545l.038.038M1.235 2.583l.038.076M1.273 2.659v.076M1.273 2.735l-.038.115M1.235 2.85l-.458.457M.777 3.307h.496M1.54 2.507h.494M2.035 2.507l-.267.304M1.768 2.811h.114M1.882 2.811l.076.038M1.958 2.85l.038.038M1.996 2.888l.038.076M2.035 2.964v.19M2.035 3.154l-.039.076M1.996 3.23l-.038.038M1.958 3.269l-.076.038M1.882 3.307h-.228M1.654 3.307l-.077-.038M1.577 3.269 1.54 3.23"/>
        </g>
        <path d="m.225 2.38.018-.092.052-.078.078-.052.092-.018h1.92l.092.018.078.052.052.078.018.092V3.5l-.018.092-.052.078-.078.052-.092.018H.465l-.092-.018-.078-.052-.052-.078L.225 3.5Z" style="stroke:#afafaf;stroke-width:.0212;stroke-opacity:1;stroke-linecap:round;stroke-linejoin:round;fill:none"/>
    </g>
    <g class="stroked-text" style="fill:none;stroke:#afafaf;stroke-width:.0444;stroke-opacity:1;stroke-linecap:round;stroke-linejoin:round">
        <path d="m1.999 2.702.025-.026M2.024 2.677l.05-.026M2.075 2.651h.127M2.202 2.651l.05.026M2.253 2.677l.025.025M2.278 2.702l.025.05M2.303 2.753v.05M2.303 2.804l-.025.076M2.278 2.88l-.305.304M1.973 3.184h.33M2.481 2.651h.33M2.811 2.651l-.177.203M2.634 2.854h.076M2.71 2.854l.05.026M2.76 2.88l.026.025M2.786 2.905l.025.05M2.811 2.956v.127M2.811 3.083l-.025.05M2.786 3.134l-.025.025M2.76 3.159l-.05.025M2.71 3.184h-.153M2.557 3.184l-.05-.025M2.507 3.159l-.026-.025"/>
    </g>
    <circle cx="2.405" cy="2.94" r=".8" style="fill:none;stroke:#afafaf;stroke-width:.0212;stroke-opacity:1;stroke-linecap:round;stroke-linejoin:round"/>
</svg>
