<svg xmlns="http://www.w3.org/2000/svg" width="68.352" height="137.088" viewBox="0 0 18.085 36.271">
    <g class="stroked-text" style="fill:none;stroke:#f2eda1;stroke-width:.15;stroke-opacity:1;stroke-linecap:round;stroke-linejoin:round">
        <path d="m7.717 5.495-.334-.476M7.145 5.495v-1M7.145 4.495h.381M7.526 4.495l.095.047M7.621 4.542l.048.048M7.669 4.59l.048.095M7.717 4.685v.143M7.717 4.828l-.048.095M7.669 4.923l-.048.048M7.621 4.971l-.095.048M7.526 5.019h-.38M8.145 4.971h.334M8.621 5.495h-.476M8.145 5.495v-1M8.145 4.495h.476M9.383 4.971H9.05M9.05 5.495v-1M9.05 4.495h.476M10.05 4.495v.238M9.812 4.638l.238.095M10.05 4.733l.238-.095M9.907 4.923l.143-.19M10.05 4.733l.143.19M10.812 4.495v.238M10.574 4.638l.238.095M10.812 4.733l.238-.095M10.669 4.923l.143-.19M10.812 4.733l.143.19"/>
    </g>
    <g style="fill:none;stroke:#f2eda1;stroke-width:.12;stroke-opacity:1;stroke-linecap:round;stroke-linejoin:round">
        <path d="M2.544 3.3V1.7"/>
        <path d="M.06 1.13h17.98v33.22H.06Z" style="stroke:#f2eda1;stroke-width:.12;stroke-opacity:1;stroke-linecap:round;stroke-linejoin:round;fill:none"/>
        <path stroke="none" d="m.58 1.905.02-.098.055-.082.082-.056.098-.019h1.19l.098.02.082.055.056.082.019.098v1.19l-.02.098-.055.082-.082.056-.098.019H.835l-.098-.02-.082-.055-.056-.082-.019-.098Z" style="fill:#4d7fc4;fill-opacity:1;stroke:none;fill-rule:evenodd"/>
    </g>
    <circle cx="1.43" cy="5.04" r=".85" style="fill:#4d7fc4;fill-opacity:1;stroke:none"/>
    <circle cx="1.43" cy="7.58" r=".85" style="fill:#4d7fc4;fill-opacity:1;stroke:none"/>
    <circle cx="1.43" cy="10.12" r=".85" style="fill:#4d7fc4;fill-opacity:1;stroke:none"/>
    <circle cx="1.43" cy="12.66" r=".85" style="fill:#4d7fc4;fill-opacity:1;stroke:none"/>
    <circle cx="1.43" cy="15.2" r=".85" style="fill:#4d7fc4;fill-opacity:1;stroke:none"/>
    <circle cx="1.43" cy="17.74" r=".85" style="fill:#4d7fc4;fill-opacity:1;stroke:none"/>
    <circle cx="1.43" cy="20.28" r=".85" style="fill:#4d7fc4;fill-opacity:1;stroke:none"/>
    <circle cx="1.43" cy="22.82" r=".85" style="fill:#4d7fc4;fill-opacity:1;stroke:none"/>
    <circle cx="1.43" cy="25.36" r=".85" style="fill:#4d7fc4;fill-opacity:1;stroke:none"/>
    <circle cx="1.43" cy="27.9" r=".85" style="fill:#4d7fc4;fill-opacity:1;stroke:none"/>
    <circle cx="1.43" cy="30.44" r=".85" style="fill:#4d7fc4;fill-opacity:1;stroke:none"/>
    <circle cx="1.43" cy="32.98" r=".85" style="fill:#4d7fc4;fill-opacity:1;stroke:none"/>
    <circle cx="16.67" cy="32.98" r=".85" style="fill:#4d7fc4;fill-opacity:1;stroke:none"/>
    <circle cx="16.67" cy="30.44" r=".85" style="fill:#4d7fc4;fill-opacity:1;stroke:none"/>
    <circle cx="16.67" cy="27.9" r=".85" style="fill:#4d7fc4;fill-opacity:1;stroke:none"/>
    <circle cx="16.67" cy="25.36" r=".85" style="fill:#4d7fc4;fill-opacity:1;stroke:none"/>
    <circle cx="16.67" cy="22.82" r=".85" style="fill:#4d7fc4;fill-opacity:1;stroke:none"/>
    <circle cx="16.67" cy="20.28" r=".85" style="fill:#4d7fc4;fill-opacity:1;stroke:none"/>
    <circle cx="16.67" cy="17.74" r=".85" style="fill:#4d7fc4;fill-opacity:1;stroke:none"/>
    <circle cx="16.67" cy="15.2" r=".85" style="fill:#4d7fc4;fill-opacity:1;stroke:none"/>
    <circle cx="16.67" cy="12.66" r=".85" style="fill:#4d7fc4;fill-opacity:1;stroke:none"/>
    <circle cx="16.67" cy="10.12" r=".85" style="fill:#4d7fc4;fill-opacity:1;stroke:none"/>
    <circle cx="16.67" cy="7.58" r=".85" style="fill:#4d7fc4;fill-opacity:1;stroke:none"/>
    <circle cx="16.67" cy="5.04" r=".85" style="fill:#4d7fc4;fill-opacity:1;stroke:none"/>
    <g style="fill:#4d7fc4;fill-opacity:1;stroke:none">
        <circle cx="16.67" cy="2.5" r=".85"/>
        <path d="m.58 1.905.02-.098.055-.082.082-.056.098-.019h1.19l.098.02.082.055.056.082.019.098v1.19l-.02.098-.055.082-.082.056-.098.019H.835l-.098-.02-.082-.055-.056-.082-.019-.098Z" style="fill:#c83434;fill-opacity:1;stroke:none;fill-rule:evenodd"/>
    </g>
    <circle cx="1.43" cy="5.04" r=".85" style="fill:#c83434;fill-opacity:1;stroke:none"/>
    <circle cx="1.43" cy="7.58" r=".85" style="fill:#c83434;fill-opacity:1;stroke:none"/>
    <circle cx="1.43" cy="10.12" r=".85" style="fill:#c83434;fill-opacity:1;stroke:none"/>
    <circle cx="1.43" cy="12.66" r=".85" style="fill:#c83434;fill-opacity:1;stroke:none"/>
    <circle cx="1.43" cy="15.2" r=".85" style="fill:#c83434;fill-opacity:1;stroke:none"/>
    <circle cx="1.43" cy="17.74" r=".85" style="fill:#c83434;fill-opacity:1;stroke:none"/>
    <circle cx="1.43" cy="20.28" r=".85" style="fill:#c83434;fill-opacity:1;stroke:none"/>
    <circle cx="1.43" cy="22.82" r=".85" style="fill:#c83434;fill-opacity:1;stroke:none"/>
    <circle cx="1.43" cy="25.36" r=".85" style="fill:#c83434;fill-opacity:1;stroke:none"/>
    <circle cx="1.43" cy="27.9" r=".85" style="fill:#c83434;fill-opacity:1;stroke:none"/>
    <circle cx="1.43" cy="30.44" r=".85" style="fill:#c83434;fill-opacity:1;stroke:none"/>
    <circle cx="1.43" cy="32.98" r=".85" style="fill:#c83434;fill-opacity:1;stroke:none"/>
    <circle cx="16.67" cy="32.98" r=".85" style="fill:#c83434;fill-opacity:1;stroke:none"/>
    <circle cx="16.67" cy="30.44" r=".85" style="fill:#c83434;fill-opacity:1;stroke:none"/>
    <circle cx="16.67" cy="27.9" r=".85" style="fill:#c83434;fill-opacity:1;stroke:none"/>
    <circle cx="16.67" cy="25.36" r=".85" style="fill:#c83434;fill-opacity:1;stroke:none"/>
    <circle cx="16.67" cy="22.82" r=".85" style="fill:#c83434;fill-opacity:1;stroke:none"/>
    <circle cx="16.67" cy="20.28" r=".85" style="fill:#c83434;fill-opacity:1;stroke:none"/>
    <circle cx="16.67" cy="17.74" r=".85" style="fill:#c83434;fill-opacity:1;stroke:none"/>
    <circle cx="16.67" cy="15.2" r=".85" style="fill:#c83434;fill-opacity:1;stroke:none"/>
    <circle cx="16.67" cy="12.66" r=".85" style="fill:#c83434;fill-opacity:1;stroke:none"/>
    <circle cx="16.67" cy="10.12" r=".85" style="fill:#c83434;fill-opacity:1;stroke:none"/>
    <circle cx="16.67" cy="7.58" r=".85" style="fill:#c83434;fill-opacity:1;stroke:none"/>
    <circle cx="16.67" cy="5.04" r=".85" style="fill:#c83434;fill-opacity:1;stroke:none"/>
    <circle cx="16.67" cy="2.5" r=".85" style="fill:#c83434;fill-opacity:1;stroke:none"/>
    <g style="fill:none;stroke:#585d84;stroke-width:.0472;stroke-opacity:1;stroke-linecap:round;stroke-linejoin:round">
        <g class="stroked-text">
            <path d="M1.403 2.193h.054M1.457 2.193l.054.027M1.511 2.22l.027.027M1.538 2.247l.027.054M1.565 2.301l.027.108M1.592 2.409v.135M1.592 2.544l-.027.108M1.565 2.652l-.027.054M1.538 2.706l-.027.027M1.511 2.733l-.054.027M1.457 2.76h-.054M1.403 2.76l-.054-.027M1.349 2.733l-.027-.027M1.322 2.706l-.027-.054M1.295 2.652l-.027-.108M1.268 2.544v-.135M1.268 2.409l.027-.108M1.295 2.301l.027-.054M1.322 2.247l.027-.027M1.349 2.22l.054-.027"/>
        </g>
        <path d="m.58 1.905.02-.098.055-.082.082-.056.098-.019h1.19l.098.02.082.055.056.082.019.098v1.19l-.02.098-.055.082-.082.056-.098.019H.835l-.098-.02-.082-.055-.056-.082-.019-.098Z" style="stroke:#585d84;stroke-width:.0212;stroke-opacity:1;stroke-linecap:round;stroke-linejoin:round;fill:none"/>
    </g>
    <g class="stroked-text" style="fill:none;stroke:#585d84;stroke-width:.0472;stroke-opacity:1;stroke-linecap:round;stroke-linejoin:round">
        <path d="M1.592 5.3h-.324M1.43 5.3v-.567M1.43 4.733l-.054.081M1.376 4.814l-.054.054M1.322 4.868l-.054.027"/>
    </g>
    <circle cx="1.43" cy="5.04" r=".85" style="fill:none;stroke:#585d84;stroke-width:.0212;stroke-opacity:1;stroke-linecap:round;stroke-linejoin:round"/>
    <g class="stroked-text" style="fill:none;stroke:#585d84;stroke-width:.0472;stroke-opacity:1;stroke-linecap:round;stroke-linejoin:round">
        <path d="m1.268 7.327.027-.027M1.295 7.3l.054-.027M1.349 7.273h.135M1.484 7.273l.054.027M1.538 7.3l.027.027M1.565 7.327l.027.054M1.592 7.381v.054M1.592 7.435l-.027.08M1.565 7.516l-.324.324M1.241 7.84h.35"/>
    </g>
    <circle cx="1.43" cy="7.58" r=".85" style="fill:none;stroke:#585d84;stroke-width:.0212;stroke-opacity:1;stroke-linecap:round;stroke-linejoin:round"/>
    <g class="stroked-text" style="fill:none;stroke:#585d84;stroke-width:.0472;stroke-opacity:1;stroke-linecap:round;stroke-linejoin:round">
        <path d="M1.241 9.813h.35M1.592 9.813l-.189.216M1.403 10.029h.081M1.484 10.029l.054.027M1.538 10.056l.027.027M1.565 10.083l.027.054M1.592 10.137v.135M1.592 10.272l-.027.054M1.565 10.326l-.027.027M1.538 10.353l-.054.027M1.484 10.38h-.162M1.322 10.38l-.054-.027M1.268 10.353l-.027-.027"/>
    </g>
    <circle cx="1.43" cy="10.12" r=".85" style="fill:none;stroke:#585d84;stroke-width:.0212;stroke-opacity:1;stroke-linecap:round;stroke-linejoin:round"/>
    <g class="stroked-text" style="fill:none;stroke:#585d84;stroke-width:.0472;stroke-opacity:1;stroke-linecap:round;stroke-linejoin:round">
        <path d="M1.538 12.542v.378M1.403 12.326l-.135.405M1.268 12.73h.35"/>
    </g>
    <circle cx="1.43" cy="12.66" r=".85" style="fill:none;stroke:#585d84;stroke-width:.0212;stroke-opacity:1;stroke-linecap:round;stroke-linejoin:round"/>
    <g class="stroked-text" style="fill:none;stroke:#585d84;stroke-width:.0472;stroke-opacity:1;stroke-linecap:round;stroke-linejoin:round">
        <path d="M1.565 14.893h-.27M1.295 14.893l-.027.27M1.268 15.163l.027-.027M1.295 15.136l.054-.027M1.349 15.109h.135M1.484 15.109l.054.027M1.538 15.136l.027.027M1.565 15.163l.027.054M1.592 15.217v.135M1.592 15.352l-.027.054M1.565 15.406l-.027.027M1.538 15.433l-.054.027M1.484 15.46h-.135M1.349 15.46l-.054-.027M1.295 15.433l-.027-.027"/>
    </g>
    <circle cx="1.43" cy="15.2" r=".85" style="fill:none;stroke:#585d84;stroke-width:.0212;stroke-opacity:1;stroke-linecap:round;stroke-linejoin:round"/>
    <g class="stroked-text" style="fill:none;stroke:#585d84;stroke-width:.0472;stroke-opacity:1;stroke-linecap:round;stroke-linejoin:round">
        <path d="M1.538 17.433H1.43M1.43 17.433l-.054.027M1.376 17.46l-.027.027M1.349 17.487l-.054.08M1.295 17.568l-.027.108M1.268 17.676v.216M1.268 17.892l.027.054M1.295 17.946l.027.027M1.322 17.973l.054.027M1.376 18h.108M1.484 18l.054-.027M1.538 17.973l.027-.027M1.565 17.946l.027-.054M1.592 17.892v-.135M1.592 17.757l-.027-.054M1.565 17.703l-.027-.027M1.538 17.676l-.054-.027M1.484 17.649h-.108M1.376 17.649l-.054.027M1.322 17.676l-.027.027M1.295 17.703l-.027.054"/>
    </g>
    <circle cx="1.43" cy="17.74" r=".85" style="fill:none;stroke:#585d84;stroke-width:.0212;stroke-opacity:1;stroke-linecap:round;stroke-linejoin:round"/>
    <g class="stroked-text" style="fill:none;stroke:#585d84;stroke-width:.0472;stroke-opacity:1;stroke-linecap:round;stroke-linejoin:round">
        <path d="M1.241 19.973h.378M1.619 19.973l-.243.567"/>
    </g>
    <circle cx="1.43" cy="20.28" r=".85" style="fill:none;stroke:#585d84;stroke-width:.0212;stroke-opacity:1;stroke-linecap:round;stroke-linejoin:round"/>
    <g class="stroked-text" style="fill:none;stroke:#585d84;stroke-width:.0472;stroke-opacity:1;stroke-linecap:round;stroke-linejoin:round">
        <path d="m1.376 22.756-.054-.027M1.322 22.729l-.027-.027M1.295 22.702l-.027-.054M1.268 22.648v-.027M1.268 22.621l.027-.054M1.295 22.567l.027-.027M1.322 22.54l.054-.027M1.376 22.513h.108M1.484 22.513l.054.027M1.538 22.54l.027.027M1.565 22.567l.027.054M1.592 22.621v.027M1.592 22.648l-.027.054M1.565 22.702l-.027.027M1.538 22.729l-.054.027M1.484 22.756h-.108M1.376 22.756l-.054.027M1.322 22.783l-.027.027M1.295 22.81l-.027.054M1.268 22.864v.108M1.268 22.972l.027.054M1.295 23.026l.027.027M1.322 23.053l.054.027M1.376 23.08h.108M1.484 23.08l.054-.027M1.538 23.053l.027-.027M1.565 23.026l.027-.054M1.592 22.972v-.108M1.592 22.864l-.027-.054M1.565 22.81l-.027-.027M1.538 22.783l-.054-.027"/>
    </g>
    <circle cx="1.43" cy="22.82" r=".85" style="fill:none;stroke:#585d84;stroke-width:.0212;stroke-opacity:1;stroke-linecap:round;stroke-linejoin:round"/>
    <g class="stroked-text" style="fill:none;stroke:#585d84;stroke-width:.0472;stroke-opacity:1;stroke-linecap:round;stroke-linejoin:round">
        <path d="M1.322 25.62h.108M1.43 25.62l.054-.027M1.484 25.593l.027-.027M1.511 25.566l.054-.081M1.565 25.485l.027-.108M1.592 25.377v-.216M1.592 25.161l-.027-.054M1.565 25.107l-.027-.027M1.538 25.08l-.054-.027M1.484 25.053h-.108M1.376 25.053l-.054.027M1.322 25.08l-.027.027M1.295 25.107l-.027.054M1.268 25.161v.135M1.268 25.296l.027.054M1.295 25.35l.027.027M1.322 25.377l.054.027M1.376 25.404h.108M1.484 25.404l.054-.027M1.538 25.377l.027-.027M1.565 25.35l.027-.054"/>
    </g>
    <circle cx="1.43" cy="25.36" r=".85" style="fill:none;stroke:#585d84;stroke-width:.0212;stroke-opacity:1;stroke-linecap:round;stroke-linejoin:round"/>
    <g class="stroked-text" style="fill:none;stroke:#585d84;stroke-width:.0472;stroke-opacity:1;stroke-linecap:round;stroke-linejoin:round">
        <path d="M1.322 28.16H.998M1.16 28.16v-.567M1.16 27.593l-.054.081M1.106 27.674l-.054.054M1.052 27.728l-.054.027M1.673 27.593h.054M1.727 27.593l.054.027M1.78 27.62l.028.027M1.808 27.647l.027.054M1.835 27.701l.027.108M1.862 27.809v.135M1.862 27.944l-.027.108M1.835 28.052l-.027.054M1.808 28.106l-.027.027M1.78 28.133l-.053.027M1.727 28.16h-.054M1.673 28.16l-.054-.027M1.619 28.133l-.027-.027M1.592 28.106l-.027-.054M1.565 28.052l-.027-.108M1.538 27.944v-.135M1.538 27.809l.027-.108M1.565 27.701l.027-.054M1.592 27.647l.027-.027M1.619 27.62l.054-.027"/>
    </g>
    <circle cx="1.43" cy="27.9" r=".85" style="fill:none;stroke:#585d84;stroke-width:.0212;stroke-opacity:1;stroke-linecap:round;stroke-linejoin:round"/>
    <g class="stroked-text" style="fill:none;stroke:#585d84;stroke-width:.0472;stroke-opacity:1;stroke-linecap:round;stroke-linejoin:round">
        <path d="M1.322 30.7H.998M1.16 30.7v-.567M1.16 30.133l-.054.081M1.106 30.214l-.054.054M1.052 30.268l-.054.027M1.862 30.7h-.324M1.7 30.7v-.567M1.7 30.133l-.054.081M1.646 30.214l-.054.054M1.592 30.268l-.054.027"/>
    </g>
    <circle cx="1.43" cy="30.44" r=".85" style="fill:none;stroke:#585d84;stroke-width:.0212;stroke-opacity:1;stroke-linecap:round;stroke-linejoin:round"/>
    <g class="stroked-text" style="fill:none;stroke:#585d84;stroke-width:.0472;stroke-opacity:1;stroke-linecap:round;stroke-linejoin:round">
        <path d="M1.322 33.24H.998M1.16 33.24v-.567M1.16 32.673l-.054.081M1.106 32.754l-.054.054M1.052 32.808l-.054.027M1.538 32.727l.027-.027M1.565 32.7l.054-.027M1.619 32.673h.135M1.754 32.673l.054.027M1.808 32.7l.027.027M1.835 32.727l.027.054M1.862 32.781v.054M1.862 32.835l-.027.08M1.835 32.916l-.324.324M1.511 33.24h.35"/>
    </g>
    <circle cx="1.43" cy="32.98" r=".85" style="fill:none;stroke:#585d84;stroke-width:.0212;stroke-opacity:1;stroke-linecap:round;stroke-linejoin:round"/>
    <g class="stroked-text" style="fill:none;stroke:#585d84;stroke-width:.0472;stroke-opacity:1;stroke-linecap:round;stroke-linejoin:round">
        <path d="M16.562 33.24h-.324M16.4 33.24v-.567M16.4 32.673l-.054.081M16.346 32.754l-.054.054M16.292 32.808l-.054.027M16.751 32.673h.35M17.102 32.673l-.19.216M16.913 32.889h.08M16.994 32.889l.054.027M17.048 32.916l.027.027M17.075 32.943l.027.054M17.102 32.997v.135M17.102 33.132l-.027.054M17.075 33.186l-.027.027M17.048 33.213l-.054.027M16.994 33.24h-.162M16.832 33.24l-.054-.027M16.778 33.213l-.027-.027"/>
    </g>
    <circle cx="16.67" cy="32.98" r=".85" style="fill:none;stroke:#585d84;stroke-width:.0212;stroke-opacity:1;stroke-linecap:round;stroke-linejoin:round"/>
    <g class="stroked-text" style="fill:none;stroke:#585d84;stroke-width:.0472;stroke-opacity:1;stroke-linecap:round;stroke-linejoin:round">
        <path d="M16.562 30.7h-.324M16.4 30.7v-.567M16.4 30.133l-.054.081M16.346 30.214l-.054.054M16.292 30.268l-.054.027M17.048 30.322v.378M16.913 30.106l-.135.405M16.778 30.51h.35"/>
    </g>
    <circle cx="16.67" cy="30.44" r=".85" style="fill:none;stroke:#585d84;stroke-width:.0212;stroke-opacity:1;stroke-linecap:round;stroke-linejoin:round"/>
    <g class="stroked-text" style="fill:none;stroke:#585d84;stroke-width:.0472;stroke-opacity:1;stroke-linecap:round;stroke-linejoin:round">
        <path d="M16.562 28.16h-.324M16.4 28.16v-.567M16.4 27.593l-.054.081M16.346 27.674l-.054.054M16.292 27.728l-.054.027M17.075 27.593h-.27M16.805 27.593l-.027.27M16.778 27.863l.027-.027M16.805 27.836l.054-.027M16.859 27.809h.135M16.994 27.809l.054.027M17.048 27.836l.027.027M17.075 27.863l.027.054M17.102 27.917v.135M17.102 28.052l-.027.054M17.075 28.106l-.027.027M17.048 28.133l-.054.027M16.994 28.16h-.135M16.859 28.16l-.054-.027M16.805 28.133l-.027-.027"/>
    </g>
    <circle cx="16.67" cy="27.9" r=".85" style="fill:none;stroke:#585d84;stroke-width:.0212;stroke-opacity:1;stroke-linecap:round;stroke-linejoin:round"/>
    <g class="stroked-text" style="fill:none;stroke:#585d84;stroke-width:.0472;stroke-opacity:1;stroke-linecap:round;stroke-linejoin:round">
        <path d="M16.562 25.62h-.324M16.4 25.62v-.567M16.4 25.053l-.054.081M16.346 25.134l-.054.054M16.292 25.188l-.054.027M17.048 25.053h-.108M16.94 25.053l-.054.027M16.886 25.08l-.027.027M16.859 25.107l-.054.08M16.805 25.188l-.027.108M16.778 25.296v.216M16.778 25.512l.027.054M16.805 25.566l.027.027M16.832 25.593l.054.027M16.886 25.62h.108M16.994 25.62l.054-.027M17.048 25.593l.027-.027M17.075 25.566l.027-.054M17.102 25.512v-.135M17.102 25.377l-.027-.054M17.075 25.323l-.027-.027M17.048 25.296l-.054-.027M16.994 25.269h-.108M16.886 25.269l-.054.027M16.832 25.296l-.027.027M16.805 25.323l-.027.054"/>
    </g>
    <circle cx="16.67" cy="25.36" r=".85" style="fill:none;stroke:#585d84;stroke-width:.0212;stroke-opacity:1;stroke-linecap:round;stroke-linejoin:round"/>
    <g class="stroked-text" style="fill:none;stroke:#585d84;stroke-width:.0472;stroke-opacity:1;stroke-linecap:round;stroke-linejoin:round">
        <path d="M16.562 23.08h-.324M16.4 23.08v-.567M16.4 22.513l-.054.081M16.346 22.594l-.054.054M16.292 22.648l-.054.027M16.751 22.513h.378M17.129 22.513l-.243.567"/>
    </g>
    <circle cx="16.67" cy="22.82" r=".85" style="fill:none;stroke:#585d84;stroke-width:.0212;stroke-opacity:1;stroke-linecap:round;stroke-linejoin:round"/>
    <g class="stroked-text" style="fill:none;stroke:#585d84;stroke-width:.0472;stroke-opacity:1;stroke-linecap:round;stroke-linejoin:round">
        <path d="M16.562 20.54h-.324M16.4 20.54v-.567M16.4 19.973l-.054.081M16.346 20.054l-.054.054M16.292 20.108l-.054.027M16.886 20.216l-.054-.027M16.832 20.189l-.027-.027M16.805 20.162l-.027-.054M16.778 20.108v-.027M16.778 20.081l.027-.054M16.805 20.027l.027-.027M16.832 20l.054-.027M16.886 19.973h.108M16.994 19.973l.054.027M17.048 20l.027.027M17.075 20.027l.027.054M17.102 20.081v.027M17.102 20.108l-.027.054M17.075 20.162l-.027.027M17.048 20.189l-.054.027M16.994 20.216h-.108M16.886 20.216l-.054.027M16.832 20.243l-.027.027M16.805 20.27l-.027.054M16.778 20.324v.108M16.778 20.432l.027.054M16.805 20.486l.027.027M16.832 20.513l.054.027M16.886 20.54h.108M16.994 20.54l.054-.027M17.048 20.513l.027-.027M17.075 20.486l.027-.054M17.102 20.432v-.108M17.102 20.324l-.027-.054M17.075 20.27l-.027-.027M17.048 20.243l-.054-.027"/>
    </g>
    <circle cx="16.67" cy="20.28" r=".85" style="fill:none;stroke:#585d84;stroke-width:.0212;stroke-opacity:1;stroke-linecap:round;stroke-linejoin:round"/>
    <g class="stroked-text" style="fill:none;stroke:#585d84;stroke-width:.0472;stroke-opacity:1;stroke-linecap:round;stroke-linejoin:round">
        <path d="M16.562 18h-.324M16.4 18v-.567M16.4 17.433l-.054.081M16.346 17.514l-.054.054M16.292 17.568l-.054.027M16.832 18h.108M16.94 18l.054-.027M16.994 17.973l.027-.027M17.02 17.946l.055-.081M17.075 17.865l.027-.108M17.102 17.757v-.216M17.102 17.541l-.027-.054M17.075 17.487l-.027-.027M17.048 17.46l-.054-.027M16.994 17.433h-.108M16.886 17.433l-.054.027M16.832 17.46l-.027.027M16.805 17.487l-.027.054M16.778 17.541v.135M16.778 17.676l.027.054M16.805 17.73l.027.027M16.832 17.757l.054.027M16.886 17.784h.108M16.994 17.784l.054-.027M17.048 17.757l.027-.027M17.075 17.73l.027-.054"/>
    </g>
    <circle cx="16.67" cy="17.74" r=".85" style="fill:none;stroke:#585d84;stroke-width:.0212;stroke-opacity:1;stroke-linecap:round;stroke-linejoin:round"/>
    <g class="stroked-text" style="fill:none;stroke:#585d84;stroke-width:.0472;stroke-opacity:1;stroke-linecap:round;stroke-linejoin:round">
        <path d="m16.238 14.947.027-.027M16.265 14.92l.054-.027M16.32 14.893h.134M16.454 14.893l.054.027M16.508 14.92l.027.027M16.535 14.947l.027.054M16.562 15.001v.054M16.562 15.055l-.027.08M16.535 15.136l-.324.324M16.211 15.46h.351M16.913 14.893h.054M16.967 14.893l.054.027M17.02 14.92l.028.027M17.048 14.947l.027.054M17.075 15.001l.027.108M17.102 15.109v.135M17.102 15.244l-.027.108M17.075 15.352l-.027.054M17.048 15.406l-.027.027M17.02 15.433l-.053.027M16.967 15.46h-.054M16.913 15.46l-.054-.027M16.859 15.433l-.027-.027M16.832 15.406l-.027-.054M16.805 15.352l-.027-.108M16.778 15.244v-.135M16.778 15.109l.027-.108M16.805 15.001l.027-.054M16.832 14.947l.027-.027M16.859 14.92l.054-.027"/>
    </g>
    <circle cx="16.67" cy="15.2" r=".85" style="fill:none;stroke:#585d84;stroke-width:.0212;stroke-opacity:1;stroke-linecap:round;stroke-linejoin:round"/>
    <g class="stroked-text" style="fill:none;stroke:#585d84;stroke-width:.0472;stroke-opacity:1;stroke-linecap:round;stroke-linejoin:round">
        <path d="m16.238 12.407.027-.027M16.265 12.38l.054-.027M16.32 12.353h.134M16.454 12.353l.054.027M16.508 12.38l.027.027M16.535 12.407l.027.054M16.562 12.461v.054M16.562 12.515l-.027.08M16.535 12.596l-.324.324M16.211 12.92h.351M17.102 12.92h-.324M16.94 12.92v-.567M16.94 12.353l-.054.081M16.886 12.434l-.054.054M16.832 12.488l-.054.027"/>
    </g>
    <circle cx="16.67" cy="12.66" r=".85" style="fill:none;stroke:#585d84;stroke-width:.0212;stroke-opacity:1;stroke-linecap:round;stroke-linejoin:round"/>
    <g class="stroked-text" style="fill:none;stroke:#585d84;stroke-width:.0472;stroke-opacity:1;stroke-linecap:round;stroke-linejoin:round">
        <path d="m16.238 9.867.027-.027M16.265 9.84l.054-.027M16.32 9.813h.134M16.454 9.813l.054.027M16.508 9.84l.027.027M16.535 9.867l.027.054M16.562 9.921v.054M16.562 9.975l-.027.08M16.535 10.056l-.324.324M16.211 10.38h.351M16.778 9.867l.027-.027M16.805 9.84l.054-.027M16.859 9.813h.135M16.994 9.813l.054.027M17.048 9.84l.027.027M17.075 9.867l.027.054M17.102 9.921v.054M17.102 9.975l-.027.08M17.075 10.056l-.324.324M16.751 10.38h.35"/>
    </g>
    <circle cx="16.67" cy="10.12" r=".85" style="fill:none;stroke:#585d84;stroke-width:.0212;stroke-opacity:1;stroke-linecap:round;stroke-linejoin:round"/>
    <g class="stroked-text" style="fill:none;stroke:#585d84;stroke-width:.0472;stroke-opacity:1;stroke-linecap:round;stroke-linejoin:round">
        <path d="m16.238 7.327.027-.027M16.265 7.3l.054-.027M16.32 7.273h.134M16.454 7.273l.054.027M16.508 7.3l.027.027M16.535 7.327l.027.054M16.562 7.381v.054M16.562 7.435l-.027.08M16.535 7.516l-.324.324M16.211 7.84h.351M16.751 7.273h.35M17.102 7.273l-.19.216M16.913 7.489h.08M16.994 7.489l.054.027M17.048 7.516l.027.027M17.075 7.543l.027.054M17.102 7.597v.135M17.102 7.732l-.027.054M17.075 7.786l-.027.027M17.048 7.813l-.054.027M16.994 7.84h-.162M16.832 7.84l-.054-.027M16.778 7.813l-.027-.027"/>
    </g>
    <circle cx="16.67" cy="7.58" r=".85" style="fill:none;stroke:#585d84;stroke-width:.0212;stroke-opacity:1;stroke-linecap:round;stroke-linejoin:round"/>
    <g class="stroked-text" style="fill:none;stroke:#585d84;stroke-width:.0472;stroke-opacity:1;stroke-linecap:round;stroke-linejoin:round">
        <path d="m16.238 4.787.027-.027M16.265 4.76l.054-.027M16.32 4.733h.134M16.454 4.733l.054.027M16.508 4.76l.027.027M16.535 4.787l.027.054M16.562 4.841v.054M16.562 4.895l-.027.08M16.535 4.976l-.324.324M16.211 5.3h.351M17.048 4.922V5.3M16.913 4.706l-.135.405M16.778 5.11h.35"/>
    </g>
    <circle cx="16.67" cy="5.04" r=".85" style="fill:none;stroke:#585d84;stroke-width:.0212;stroke-opacity:1;stroke-linecap:round;stroke-linejoin:round"/>
    <g class="stroked-text" style="fill:none;stroke:#585d84;stroke-width:.0472;stroke-opacity:1;stroke-linecap:round;stroke-linejoin:round">
        <path d="m16.238 2.247.027-.027M16.265 2.22l.054-.027M16.32 2.193h.134M16.454 2.193l.054.027M16.508 2.22l.027.027M16.535 2.247l.027.054M16.562 2.301v.054M16.562 2.355l-.027.08M16.535 2.436l-.324.324M16.211 2.76h.351M17.075 2.193h-.27M16.805 2.193l-.027.27M16.778 2.463l.027-.027M16.805 2.436l.054-.027M16.859 2.409h.135M16.994 2.409l.054.027M17.048 2.436l.027.027M17.075 2.463l.027.054M17.102 2.517v.135M17.102 2.652l-.027.054M17.075 2.706l-.027.027M17.048 2.733l-.054.027M16.994 2.76h-.135M16.859 2.76l-.054-.027M16.805 2.733l-.027-.027"/>
    </g>
    <circle cx="16.67" cy="2.5" r=".85" style="fill:none;stroke:#585d84;stroke-width:.0212;stroke-opacity:1;stroke-linecap:round;stroke-linejoin:round"/>
    <g style="fill:none;stroke:#afafaf;stroke-width:.15;stroke-opacity:1;stroke-linecap:round;stroke-linejoin:round">
        <g class="stroked-text">
            <path d="M4.407 35.895v-1M4.407 34.895l.333.714M4.74 35.61l.334-.715M5.074 34.895v1M6.121 35.8l-.047.047M6.074 35.847l-.143.048M5.931 35.895h-.095M5.836 35.895l-.143-.048M5.693 35.847l-.095-.095M5.598 35.752l-.048-.095M5.55 35.657l-.048-.19M5.502 35.466v-.143M5.502 35.323l.048-.19M5.55 35.133l.048-.095M5.598 35.038l.095-.096M5.693 34.942l.143-.047M5.836 34.895h.095M5.931 34.895l.143.047M6.074 34.942l.047.048M6.55 34.895v.81M6.55 35.704l.048.096M6.598 35.8l.047.047M6.645 35.847l.096.048M6.74 35.895h.191M6.931 35.895l.095-.048M7.026 35.847l.048-.047M7.074 35.8l.047-.096M7.121 35.704v-.81M7.36 35.99h.761M8.36 35.895v-1M8.931 35.895l-.429-.572M8.931 34.895l-.571.571M9.693 35.371l.143.048M9.836 35.419l.047.047M9.883 35.466l.048.096M9.931 35.562v.142M9.931 35.704l-.048.096M9.883 35.8l-.047.047M9.836 35.847l-.095.048M9.74 35.895h-.38M9.36 35.895v-1M9.36 34.895h.333M9.693 34.895l.095.047M9.788 34.942l.048.048M9.836 34.99l.047.095M9.883 35.085v.096M9.883 35.18l-.047.096M9.836 35.276l-.048.047M9.788 35.323l-.095.048M9.693 35.371H9.36M10.312 34.99l.048-.048M10.36 34.942l.095-.047M10.455 34.895h.238M10.693 34.895l.095.047M10.788 34.942l.048.048M10.836 34.99l.047.095M10.883 35.085v.096M10.883 35.18l-.047.143M10.836 35.323l-.572.572M10.264 35.895h.62M11.502 34.895h.096M11.598 34.895l.095.047M11.693 34.942l.048.048M11.74 34.99l.048.095M11.788 35.085l.048.19M11.836 35.276v.238M11.836 35.514l-.048.19M11.788 35.704l-.047.096M11.74 35.8l-.047.047M11.693 35.847l-.095.048M11.598 35.895h-.096M11.502 35.895l-.095-.048M11.407 35.847l-.047-.047M11.36 35.8l-.048-.096M11.312 35.704l-.048-.19M11.264 35.514v-.238M11.264 35.276l.048-.19M11.312 35.085l.048-.095M11.36 34.99l.047-.048M11.407 34.942l.095-.047M12.693 35.228v.667M12.455 34.847l-.238.715M12.217 35.562h.619M13.407 34.895h.095M13.502 34.895l.096.047M13.598 34.942l.047.048M13.645 34.99l.048.095M13.693 35.085l.048.19M13.74 35.276v.238M13.74 35.514l-.047.19M13.693 35.704l-.048.096M13.645 35.8l-.047.047M13.598 35.847l-.096.048M13.502 35.895h-.095M13.407 35.895l-.095-.048M13.312 35.847l-.048-.047M13.264 35.8l-.047-.096M13.217 35.704l-.048-.19M13.169 35.514v-.238M13.169 35.276l.048-.19M13.217 35.085l.047-.095M13.264 34.99l.048-.048M13.312 34.942l.095-.047"/>
        </g>
        <g class="stroked-text">
            <path d="m7.717 18.195-.334-.476M7.145 18.195v-1M7.145 17.195h.381M7.526 17.195l.095.047M7.621 17.242l.048.048M7.669 17.29l.048.095M7.717 17.385v.143M7.717 17.528l-.048.095M7.669 17.623l-.048.048M7.621 17.671l-.095.048M7.526 17.719h-.38M8.145 17.671h.334M8.621 18.195h-.476M8.145 18.195v-1M8.145 17.195h.476M9.383 17.671H9.05M9.05 18.195v-1M9.05 17.195h.476M10.05 17.195v.238M9.812 17.338l.238.095M10.05 17.433l.238-.095M9.907 17.623l.143-.19M10.05 17.433l.143.19M10.812 17.195v.238M10.574 17.338l.238.095M10.812 17.433l.238-.095M10.669 17.623l.143-.19M10.812 17.433l.143.19"/>
        </g>
        <path d="M.16 1.23h17.78v33.02H.16ZM4.55.05h9v1.18h-9Z" style="stroke:#afafaf;stroke-width:.1;stroke-opacity:1;stroke-linecap:round;stroke-linejoin:round;fill:none"/>
    </g>
    <g style="fill:none;stroke:#afafaf;stroke-width:.0472;stroke-opacity:1;stroke-linecap:round;stroke-linejoin:round">
        <g class="stroked-text">
            <path d="M1.403 2.193h.054M1.457 2.193l.054.027M1.511 2.22l.027.027M1.538 2.247l.027.054M1.565 2.301l.027.108M1.592 2.409v.135M1.592 2.544l-.027.108M1.565 2.652l-.027.054M1.538 2.706l-.027.027M1.511 2.733l-.054.027M1.457 2.76h-.054M1.403 2.76l-.054-.027M1.349 2.733l-.027-.027M1.322 2.706l-.027-.054M1.295 2.652l-.027-.108M1.268 2.544v-.135M1.268 2.409l.027-.108M1.295 2.301l.027-.054M1.322 2.247l.027-.027M1.349 2.22l.054-.027"/>
        </g>
        <path d="m.58 1.905.02-.098.055-.082.082-.056.098-.019h1.19l.098.02.082.055.056.082.019.098v1.19l-.02.098-.055.082-.082.056-.098.019H.835l-.098-.02-.082-.055-.056-.082-.019-.098Z" style="stroke:#afafaf;stroke-width:.0212;stroke-opacity:1;stroke-linecap:round;stroke-linejoin:round;fill:none"/>
    </g>
    <g class="stroked-text" style="fill:none;stroke:#afafaf;stroke-width:.0472;stroke-opacity:1;stroke-linecap:round;stroke-linejoin:round">
        <path d="M1.592 5.3h-.324M1.43 5.3v-.567M1.43 4.733l-.054.081M1.376 4.814l-.054.054M1.322 4.868l-.054.027"/>
    </g>
    <circle cx="1.43" cy="5.04" r=".85" style="fill:none;stroke:#afafaf;stroke-width:.0212;stroke-opacity:1;stroke-linecap:round;stroke-linejoin:round"/>
    <g class="stroked-text" style="fill:none;stroke:#afafaf;stroke-width:.0472;stroke-opacity:1;stroke-linecap:round;stroke-linejoin:round">
        <path d="m1.268 7.327.027-.027M1.295 7.3l.054-.027M1.349 7.273h.135M1.484 7.273l.054.027M1.538 7.3l.027.027M1.565 7.327l.027.054M1.592 7.381v.054M1.592 7.435l-.027.08M1.565 7.516l-.324.324M1.241 7.84h.35"/>
    </g>
    <circle cx="1.43" cy="7.58" r=".85" style="fill:none;stroke:#afafaf;stroke-width:.0212;stroke-opacity:1;stroke-linecap:round;stroke-linejoin:round"/>
    <g class="stroked-text" style="fill:none;stroke:#afafaf;stroke-width:.0472;stroke-opacity:1;stroke-linecap:round;stroke-linejoin:round">
        <path d="M1.241 9.813h.35M1.592 9.813l-.189.216M1.403 10.029h.081M1.484 10.029l.054.027M1.538 10.056l.027.027M1.565 10.083l.027.054M1.592 10.137v.135M1.592 10.272l-.027.054M1.565 10.326l-.027.027M1.538 10.353l-.054.027M1.484 10.38h-.162M1.322 10.38l-.054-.027M1.268 10.353l-.027-.027"/>
    </g>
    <circle cx="1.43" cy="10.12" r=".85" style="fill:none;stroke:#afafaf;stroke-width:.0212;stroke-opacity:1;stroke-linecap:round;stroke-linejoin:round"/>
    <g class="stroked-text" style="fill:none;stroke:#afafaf;stroke-width:.0472;stroke-opacity:1;stroke-linecap:round;stroke-linejoin:round">
        <path d="M1.538 12.542v.378M1.403 12.326l-.135.405M1.268 12.73h.35"/>
    </g>
    <circle cx="1.43" cy="12.66" r=".85" style="fill:none;stroke:#afafaf;stroke-width:.0212;stroke-opacity:1;stroke-linecap:round;stroke-linejoin:round"/>
    <g class="stroked-text" style="fill:none;stroke:#afafaf;stroke-width:.0472;stroke-opacity:1;stroke-linecap:round;stroke-linejoin:round">
        <path d="M1.565 14.893h-.27M1.295 14.893l-.027.27M1.268 15.163l.027-.027M1.295 15.136l.054-.027M1.349 15.109h.135M1.484 15.109l.054.027M1.538 15.136l.027.027M1.565 15.163l.027.054M1.592 15.217v.135M1.592 15.352l-.027.054M1.565 15.406l-.027.027M1.538 15.433l-.054.027M1.484 15.46h-.135M1.349 15.46l-.054-.027M1.295 15.433l-.027-.027"/>
    </g>
    <circle cx="1.43" cy="15.2" r=".85" style="fill:none;stroke:#afafaf;stroke-width:.0212;stroke-opacity:1;stroke-linecap:round;stroke-linejoin:round"/>
    <g class="stroked-text" style="fill:none;stroke:#afafaf;stroke-width:.0472;stroke-opacity:1;stroke-linecap:round;stroke-linejoin:round">
        <path d="M1.538 17.433H1.43M1.43 17.433l-.054.027M1.376 17.46l-.027.027M1.349 17.487l-.054.08M1.295 17.568l-.027.108M1.268 17.676v.216M1.268 17.892l.027.054M1.295 17.946l.027.027M1.322 17.973l.054.027M1.376 18h.108M1.484 18l.054-.027M1.538 17.973l.027-.027M1.565 17.946l.027-.054M1.592 17.892v-.135M1.592 17.757l-.027-.054M1.565 17.703l-.027-.027M1.538 17.676l-.054-.027M1.484 17.649h-.108M1.376 17.649l-.054.027M1.322 17.676l-.027.027M1.295 17.703l-.027.054"/>
    </g>
    <circle cx="1.43" cy="17.74" r=".85" style="fill:none;stroke:#afafaf;stroke-width:.0212;stroke-opacity:1;stroke-linecap:round;stroke-linejoin:round"/>
    <g class="stroked-text" style="fill:none;stroke:#afafaf;stroke-width:.0472;stroke-opacity:1;stroke-linecap:round;stroke-linejoin:round">
        <path d="M1.241 19.973h.378M1.619 19.973l-.243.567"/>
    </g>
    <circle cx="1.43" cy="20.28" r=".85" style="fill:none;stroke:#afafaf;stroke-width:.0212;stroke-opacity:1;stroke-linecap:round;stroke-linejoin:round"/>
    <g class="stroked-text" style="fill:none;stroke:#afafaf;stroke-width:.0472;stroke-opacity:1;stroke-linecap:round;stroke-linejoin:round">
        <path d="m1.376 22.756-.054-.027M1.322 22.729l-.027-.027M1.295 22.702l-.027-.054M1.268 22.648v-.027M1.268 22.621l.027-.054M1.295 22.567l.027-.027M1.322 22.54l.054-.027M1.376 22.513h.108M1.484 22.513l.054.027M1.538 22.54l.027.027M1.565 22.567l.027.054M1.592 22.621v.027M1.592 22.648l-.027.054M1.565 22.702l-.027.027M1.538 22.729l-.054.027M1.484 22.756h-.108M1.376 22.756l-.054.027M1.322 22.783l-.027.027M1.295 22.81l-.027.054M1.268 22.864v.108M1.268 22.972l.027.054M1.295 23.026l.027.027M1.322 23.053l.054.027M1.376 23.08h.108M1.484 23.08l.054-.027M1.538 23.053l.027-.027M1.565 23.026l.027-.054M1.592 22.972v-.108M1.592 22.864l-.027-.054M1.565 22.81l-.027-.027M1.538 22.783l-.054-.027"/>
    </g>
    <circle cx="1.43" cy="22.82" r=".85" style="fill:none;stroke:#afafaf;stroke-width:.0212;stroke-opacity:1;stroke-linecap:round;stroke-linejoin:round"/>
    <g class="stroked-text" style="fill:none;stroke:#afafaf;stroke-width:.0472;stroke-opacity:1;stroke-linecap:round;stroke-linejoin:round">
        <path d="M1.322 25.62h.108M1.43 25.62l.054-.027M1.484 25.593l.027-.027M1.511 25.566l.054-.081M1.565 25.485l.027-.108M1.592 25.377v-.216M1.592 25.161l-.027-.054M1.565 25.107l-.027-.027M1.538 25.08l-.054-.027M1.484 25.053h-.108M1.376 25.053l-.054.027M1.322 25.08l-.027.027M1.295 25.107l-.027.054M1.268 25.161v.135M1.268 25.296l.027.054M1.295 25.35l.027.027M1.322 25.377l.054.027M1.376 25.404h.108M1.484 25.404l.054-.027M1.538 25.377l.027-.027M1.565 25.35l.027-.054"/>
    </g>
    <circle cx="1.43" cy="25.36" r=".85" style="fill:none;stroke:#afafaf;stroke-width:.0212;stroke-opacity:1;stroke-linecap:round;stroke-linejoin:round"/>
    <g class="stroked-text" style="fill:none;stroke:#afafaf;stroke-width:.0472;stroke-opacity:1;stroke-linecap:round;stroke-linejoin:round">
        <path d="M1.322 28.16H.998M1.16 28.16v-.567M1.16 27.593l-.054.081M1.106 27.674l-.054.054M1.052 27.728l-.054.027M1.673 27.593h.054M1.727 27.593l.054.027M1.78 27.62l.028.027M1.808 27.647l.027.054M1.835 27.701l.027.108M1.862 27.809v.135M1.862 27.944l-.027.108M1.835 28.052l-.027.054M1.808 28.106l-.027.027M1.78 28.133l-.053.027M1.727 28.16h-.054M1.673 28.16l-.054-.027M1.619 28.133l-.027-.027M1.592 28.106l-.027-.054M1.565 28.052l-.027-.108M1.538 27.944v-.135M1.538 27.809l.027-.108M1.565 27.701l.027-.054M1.592 27.647l.027-.027M1.619 27.62l.054-.027"/>
    </g>
    <circle cx="1.43" cy="27.9" r=".85" style="fill:none;stroke:#afafaf;stroke-width:.0212;stroke-opacity:1;stroke-linecap:round;stroke-linejoin:round"/>
    <g class="stroked-text" style="fill:none;stroke:#afafaf;stroke-width:.0472;stroke-opacity:1;stroke-linecap:round;stroke-linejoin:round">
        <path d="M1.322 30.7H.998M1.16 30.7v-.567M1.16 30.133l-.054.081M1.106 30.214l-.054.054M1.052 30.268l-.054.027M1.862 30.7h-.324M1.7 30.7v-.567M1.7 30.133l-.054.081M1.646 30.214l-.054.054M1.592 30.268l-.054.027"/>
    </g>
    <circle cx="1.43" cy="30.44" r=".85" style="fill:none;stroke:#afafaf;stroke-width:.0212;stroke-opacity:1;stroke-linecap:round;stroke-linejoin:round"/>
    <g class="stroked-text" style="fill:none;stroke:#afafaf;stroke-width:.0472;stroke-opacity:1;stroke-linecap:round;stroke-linejoin:round">
        <path d="M1.322 33.24H.998M1.16 33.24v-.567M1.16 32.673l-.054.081M1.106 32.754l-.054.054M1.052 32.808l-.054.027M1.538 32.727l.027-.027M1.565 32.7l.054-.027M1.619 32.673h.135M1.754 32.673l.054.027M1.808 32.7l.027.027M1.835 32.727l.027.054M1.862 32.781v.054M1.862 32.835l-.027.08M1.835 32.916l-.324.324M1.511 33.24h.35"/>
    </g>
    <circle cx="1.43" cy="32.98" r=".85" style="fill:none;stroke:#afafaf;stroke-width:.0212;stroke-opacity:1;stroke-linecap:round;stroke-linejoin:round"/>
    <g class="stroked-text" style="fill:none;stroke:#afafaf;stroke-width:.0472;stroke-opacity:1;stroke-linecap:round;stroke-linejoin:round">
        <path d="M16.562 33.24h-.324M16.4 33.24v-.567M16.4 32.673l-.054.081M16.346 32.754l-.054.054M16.292 32.808l-.054.027M16.751 32.673h.35M17.102 32.673l-.19.216M16.913 32.889h.08M16.994 32.889l.054.027M17.048 32.916l.027.027M17.075 32.943l.027.054M17.102 32.997v.135M17.102 33.132l-.027.054M17.075 33.186l-.027.027M17.048 33.213l-.054.027M16.994 33.24h-.162M16.832 33.24l-.054-.027M16.778 33.213l-.027-.027"/>
    </g>
    <circle cx="16.67" cy="32.98" r=".85" style="fill:none;stroke:#afafaf;stroke-width:.0212;stroke-opacity:1;stroke-linecap:round;stroke-linejoin:round"/>
    <g class="stroked-text" style="fill:none;stroke:#afafaf;stroke-width:.0472;stroke-opacity:1;stroke-linecap:round;stroke-linejoin:round">
        <path d="M16.562 30.7h-.324M16.4 30.7v-.567M16.4 30.133l-.054.081M16.346 30.214l-.054.054M16.292 30.268l-.054.027M17.048 30.322v.378M16.913 30.106l-.135.405M16.778 30.51h.35"/>
    </g>
    <circle cx="16.67" cy="30.44" r=".85" style="fill:none;stroke:#afafaf;stroke-width:.0212;stroke-opacity:1;stroke-linecap:round;stroke-linejoin:round"/>
    <g class="stroked-text" style="fill:none;stroke:#afafaf;stroke-width:.0472;stroke-opacity:1;stroke-linecap:round;stroke-linejoin:round">
        <path d="M16.562 28.16h-.324M16.4 28.16v-.567M16.4 27.593l-.054.081M16.346 27.674l-.054.054M16.292 27.728l-.054.027M17.075 27.593h-.27M16.805 27.593l-.027.27M16.778 27.863l.027-.027M16.805 27.836l.054-.027M16.859 27.809h.135M16.994 27.809l.054.027M17.048 27.836l.027.027M17.075 27.863l.027.054M17.102 27.917v.135M17.102 28.052l-.027.054M17.075 28.106l-.027.027M17.048 28.133l-.054.027M16.994 28.16h-.135M16.859 28.16l-.054-.027M16.805 28.133l-.027-.027"/>
    </g>
    <circle cx="16.67" cy="27.9" r=".85" style="fill:none;stroke:#afafaf;stroke-width:.0212;stroke-opacity:1;stroke-linecap:round;stroke-linejoin:round"/>
    <g class="stroked-text" style="fill:none;stroke:#afafaf;stroke-width:.0472;stroke-opacity:1;stroke-linecap:round;stroke-linejoin:round">
        <path d="M16.562 25.62h-.324M16.4 25.62v-.567M16.4 25.053l-.054.081M16.346 25.134l-.054.054M16.292 25.188l-.054.027M17.048 25.053h-.108M16.94 25.053l-.054.027M16.886 25.08l-.027.027M16.859 25.107l-.054.08M16.805 25.188l-.027.108M16.778 25.296v.216M16.778 25.512l.027.054M16.805 25.566l.027.027M16.832 25.593l.054.027M16.886 25.62h.108M16.994 25.62l.054-.027M17.048 25.593l.027-.027M17.075 25.566l.027-.054M17.102 25.512v-.135M17.102 25.377l-.027-.054M17.075 25.323l-.027-.027M17.048 25.296l-.054-.027M16.994 25.269h-.108M16.886 25.269l-.054.027M16.832 25.296l-.027.027M16.805 25.323l-.027.054"/>
    </g>
    <circle cx="16.67" cy="25.36" r=".85" style="fill:none;stroke:#afafaf;stroke-width:.0212;stroke-opacity:1;stroke-linecap:round;stroke-linejoin:round"/>
    <g class="stroked-text" style="fill:none;stroke:#afafaf;stroke-width:.0472;stroke-opacity:1;stroke-linecap:round;stroke-linejoin:round">
        <path d="M16.562 23.08h-.324M16.4 23.08v-.567M16.4 22.513l-.054.081M16.346 22.594l-.054.054M16.292 22.648l-.054.027M16.751 22.513h.378M17.129 22.513l-.243.567"/>
    </g>
    <circle cx="16.67" cy="22.82" r=".85" style="fill:none;stroke:#afafaf;stroke-width:.0212;stroke-opacity:1;stroke-linecap:round;stroke-linejoin:round"/>
    <g class="stroked-text" style="fill:none;stroke:#afafaf;stroke-width:.0472;stroke-opacity:1;stroke-linecap:round;stroke-linejoin:round">
        <path d="M16.562 20.54h-.324M16.4 20.54v-.567M16.4 19.973l-.054.081M16.346 20.054l-.054.054M16.292 20.108l-.054.027M16.886 20.216l-.054-.027M16.832 20.189l-.027-.027M16.805 20.162l-.027-.054M16.778 20.108v-.027M16.778 20.081l.027-.054M16.805 20.027l.027-.027M16.832 20l.054-.027M16.886 19.973h.108M16.994 19.973l.054.027M17.048 20l.027.027M17.075 20.027l.027.054M17.102 20.081v.027M17.102 20.108l-.027.054M17.075 20.162l-.027.027M17.048 20.189l-.054.027M16.994 20.216h-.108M16.886 20.216l-.054.027M16.832 20.243l-.027.027M16.805 20.27l-.027.054M16.778 20.324v.108M16.778 20.432l.027.054M16.805 20.486l.027.027M16.832 20.513l.054.027M16.886 20.54h.108M16.994 20.54l.054-.027M17.048 20.513l.027-.027M17.075 20.486l.027-.054M17.102 20.432v-.108M17.102 20.324l-.027-.054M17.075 20.27l-.027-.027M17.048 20.243l-.054-.027"/>
    </g>
    <circle cx="16.67" cy="20.28" r=".85" style="fill:none;stroke:#afafaf;stroke-width:.0212;stroke-opacity:1;stroke-linecap:round;stroke-linejoin:round"/>
    <g class="stroked-text" style="fill:none;stroke:#afafaf;stroke-width:.0472;stroke-opacity:1;stroke-linecap:round;stroke-linejoin:round">
        <path d="M16.562 18h-.324M16.4 18v-.567M16.4 17.433l-.054.081M16.346 17.514l-.054.054M16.292 17.568l-.054.027M16.832 18h.108M16.94 18l.054-.027M16.994 17.973l.027-.027M17.02 17.946l.055-.081M17.075 17.865l.027-.108M17.102 17.757v-.216M17.102 17.541l-.027-.054M17.075 17.487l-.027-.027M17.048 17.46l-.054-.027M16.994 17.433h-.108M16.886 17.433l-.054.027M16.832 17.46l-.027.027M16.805 17.487l-.027.054M16.778 17.541v.135M16.778 17.676l.027.054M16.805 17.73l.027.027M16.832 17.757l.054.027M16.886 17.784h.108M16.994 17.784l.054-.027M17.048 17.757l.027-.027M17.075 17.73l.027-.054"/>
    </g>
    <circle cx="16.67" cy="17.74" r=".85" style="fill:none;stroke:#afafaf;stroke-width:.0212;stroke-opacity:1;stroke-linecap:round;stroke-linejoin:round"/>
    <g class="stroked-text" style="fill:none;stroke:#afafaf;stroke-width:.0472;stroke-opacity:1;stroke-linecap:round;stroke-linejoin:round">
        <path d="m16.238 14.947.027-.027M16.265 14.92l.054-.027M16.32 14.893h.134M16.454 14.893l.054.027M16.508 14.92l.027.027M16.535 14.947l.027.054M16.562 15.001v.054M16.562 15.055l-.027.08M16.535 15.136l-.324.324M16.211 15.46h.351M16.913 14.893h.054M16.967 14.893l.054.027M17.02 14.92l.028.027M17.048 14.947l.027.054M17.075 15.001l.027.108M17.102 15.109v.135M17.102 15.244l-.027.108M17.075 15.352l-.027.054M17.048 15.406l-.027.027M17.02 15.433l-.053.027M16.967 15.46h-.054M16.913 15.46l-.054-.027M16.859 15.433l-.027-.027M16.832 15.406l-.027-.054M16.805 15.352l-.027-.108M16.778 15.244v-.135M16.778 15.109l.027-.108M16.805 15.001l.027-.054M16.832 14.947l.027-.027M16.859 14.92l.054-.027"/>
    </g>
    <circle cx="16.67" cy="15.2" r=".85" style="fill:none;stroke:#afafaf;stroke-width:.0212;stroke-opacity:1;stroke-linecap:round;stroke-linejoin:round"/>
    <g class="stroked-text" style="fill:none;stroke:#afafaf;stroke-width:.0472;stroke-opacity:1;stroke-linecap:round;stroke-linejoin:round">
        <path d="m16.238 12.407.027-.027M16.265 12.38l.054-.027M16.32 12.353h.134M16.454 12.353l.054.027M16.508 12.38l.027.027M16.535 12.407l.027.054M16.562 12.461v.054M16.562 12.515l-.027.08M16.535 12.596l-.324.324M16.211 12.92h.351M17.102 12.92h-.324M16.94 12.92v-.567M16.94 12.353l-.054.081M16.886 12.434l-.054.054M16.832 12.488l-.054.027"/>
    </g>
    <circle cx="16.67" cy="12.66" r=".85" style="fill:none;stroke:#afafaf;stroke-width:.0212;stroke-opacity:1;stroke-linecap:round;stroke-linejoin:round"/>
    <g class="stroked-text" style="fill:none;stroke:#afafaf;stroke-width:.0472;stroke-opacity:1;stroke-linecap:round;stroke-linejoin:round">
        <path d="m16.238 9.867.027-.027M16.265 9.84l.054-.027M16.32 9.813h.134M16.454 9.813l.054.027M16.508 9.84l.027.027M16.535 9.867l.027.054M16.562 9.921v.054M16.562 9.975l-.027.08M16.535 10.056l-.324.324M16.211 10.38h.351M16.778 9.867l.027-.027M16.805 9.84l.054-.027M16.859 9.813h.135M16.994 9.813l.054.027M17.048 9.84l.027.027M17.075 9.867l.027.054M17.102 9.921v.054M17.102 9.975l-.027.08M17.075 10.056l-.324.324M16.751 10.38h.35"/>
    </g>
    <circle cx="16.67" cy="10.12" r=".85" style="fill:none;stroke:#afafaf;stroke-width:.0212;stroke-opacity:1;stroke-linecap:round;stroke-linejoin:round"/>
    <g class="stroked-text" style="fill:none;stroke:#afafaf;stroke-width:.0472;stroke-opacity:1;stroke-linecap:round;stroke-linejoin:round">
        <path d="m16.238 7.327.027-.027M16.265 7.3l.054-.027M16.32 7.273h.134M16.454 7.273l.054.027M16.508 7.3l.027.027M16.535 7.327l.027.054M16.562 7.381v.054M16.562 7.435l-.027.08M16.535 7.516l-.324.324M16.211 7.84h.351M16.751 7.273h.35M17.102 7.273l-.19.216M16.913 7.489h.08M16.994 7.489l.054.027M17.048 7.516l.027.027M17.075 7.543l.027.054M17.102 7.597v.135M17.102 7.732l-.027.054M17.075 7.786l-.027.027M17.048 7.813l-.054.027M16.994 7.84h-.162M16.832 7.84l-.054-.027M16.778 7.813l-.027-.027"/>
    </g>
    <circle cx="16.67" cy="7.58" r=".85" style="fill:none;stroke:#afafaf;stroke-width:.0212;stroke-opacity:1;stroke-linecap:round;stroke-linejoin:round"/>
    <g class="stroked-text" style="fill:none;stroke:#afafaf;stroke-width:.0472;stroke-opacity:1;stroke-linecap:round;stroke-linejoin:round">
        <path d="m16.238 4.787.027-.027M16.265 4.76l.054-.027M16.32 4.733h.134M16.454 4.733l.054.027M16.508 4.76l.027.027M16.535 4.787l.027.054M16.562 4.841v.054M16.562 4.895l-.027.08M16.535 4.976l-.324.324M16.211 5.3h.351M17.048 4.922V5.3M16.913 4.706l-.135.405M16.778 5.11h.35"/>
    </g>
    <circle cx="16.67" cy="5.04" r=".85" style="fill:none;stroke:#afafaf;stroke-width:.0212;stroke-opacity:1;stroke-linecap:round;stroke-linejoin:round"/>
    <g class="stroked-text" style="fill:none;stroke:#afafaf;stroke-width:.0472;stroke-opacity:1;stroke-linecap:round;stroke-linejoin:round">
        <path d="m16.238 2.247.027-.027M16.265 2.22l.054-.027M16.32 2.193h.134M16.454 2.193l.054.027M16.508 2.22l.027.027M16.535 2.247l.027.054M16.562 2.301v.054M16.562 2.355l-.027.08M16.535 2.436l-.324.324M16.211 2.76h.351M17.075 2.193h-.27M16.805 2.193l-.027.27M16.778 2.463l.027-.027M16.805 2.436l.054-.027M16.859 2.409h.135M16.994 2.409l.054.027M17.048 2.436l.027.027M17.075 2.463l.027.054M17.102 2.517v.135M17.102 2.652l-.027.054M17.075 2.706l-.027.027M17.048 2.733l-.054.027M16.994 2.76h-.135M16.859 2.76l-.054-.027M16.805 2.733l-.027-.027"/>
    </g>
    <circle cx="16.67" cy="2.5" r=".85" style="fill:none;stroke:#afafaf;stroke-width:.0212;stroke-opacity:1;stroke-linecap:round;stroke-linejoin:round"/>
</svg>
