<?xml version="1.0" standalone="no"?>
 <!DOCTYPE svg PUBLIC "-//W3C//DTD SVG 1.1//EN" 
 "http://www.w3.org/Graphics/SVG/1.1/DTD/svg11.dtd"> 
<svg
  xmlns:svg="http://www.w3.org/2000/svg"
  xmlns="http://www.w3.org/2000/svg"
  xmlns:xlink="http://www.w3.org/1999/xlink"
  version="1.1"
  width="18.0848mm" height="36.2712mm" viewBox="0.0000 0.0000 18.0848 36.2712">
<title>SVG Image created as MCU_KB2040.svg date 2025/05/12 03:05:51 </title>
  <desc>Image generated by PCBNEW </desc>
<g style="fill:#000000; fill-opacity:1.0000;stroke:#000000; stroke-opacity:1.0000;
stroke-linecap:round; stroke-linejoin:round;"
 transform="translate(0 0) scale(1 1)">
</g>
<g style="fill:none; 
stroke:#F2EDA1; stroke-width:0.1500; stroke-opacity:1; 
stroke-linecap:round; stroke-linejoin:round;">
<text x="9.0500" y="5.5400"
textLength="4.5357" font-size="1.3333" lengthAdjust="spacingAndGlyphs"
text-anchor="middle" opacity="0" stroke-opacity="0">REF**</text>
<g class="stroked-text"><desc>REF**</desc>
<path d="M7.7167 5.4948
L7.3833 5.0186
" />
<path d="M7.1452 5.4948
L7.1452 4.4948
" />
<path d="M7.1452 4.4948
L7.5262 4.4948
" />
<path d="M7.5262 4.4948
L7.6214 4.5424
" />
<path d="M7.6214 4.5424
L7.6690 4.5901
" />
<path d="M7.6690 4.5901
L7.7167 4.6853
" />
<path d="M7.7167 4.6853
L7.7167 4.8282
" />
<path d="M7.7167 4.8282
L7.6690 4.9234
" />
<path d="M7.6690 4.9234
L7.6214 4.9710
" />
<path d="M7.6214 4.9710
L7.5262 5.0186
" />
<path d="M7.5262 5.0186
L7.1452 5.0186
" />
<path d="M8.1452 4.9710
L8.4786 4.9710
" />
<path d="M8.6214 5.4948
L8.1452 5.4948
" />
<path d="M8.1452 5.4948
L8.1452 4.4948
" />
<path d="M8.1452 4.4948
L8.6214 4.4948
" />
<path d="M9.3833 4.9710
L9.0500 4.9710
" />
<path d="M9.0500 5.4948
L9.0500 4.4948
" />
<path d="M9.0500 4.4948
L9.5262 4.4948
" />
<path d="M10.0500 4.4948
L10.0500 4.7329
" />
<path d="M9.8119 4.6377
L10.0500 4.7329
" />
<path d="M10.0500 4.7329
L10.2881 4.6377
" />
<path d="M9.9071 4.9234
L10.0500 4.7329
" />
<path d="M10.0500 4.7329
L10.1929 4.9234
" />
<path d="M10.8119 4.4948
L10.8119 4.7329
" />
<path d="M10.5738 4.6377
L10.8119 4.7329
" />
<path d="M10.8119 4.7329
L11.0500 4.6377
" />
<path d="M10.6690 4.9234
L10.8119 4.7329
" />
<path d="M10.8119 4.7329
L10.9548 4.9234
" />
</g></g>
<g style="fill:none; 
stroke:#F2EDA1; stroke-width:0.1200; stroke-opacity:1; 
stroke-linecap:round; stroke-linejoin:round;">
<path d="M2.5440 3.3000
L2.5440 1.7000
" />
<path style="fill:none; 
stroke:#F2EDA1; stroke-width:0.1200; stroke-opacity:1; 
stroke-linecap:round; stroke-linejoin:round;fill:none"
d="M 0.0600,1.1300
18.0400,1.1300
18.0400,34.3500
0.0600,34.3500
Z" /> 
<path style="fill:#4D7FC4; fill-opacity:1.0000; stroke:none;fill-rule:evenodd;"
d="M 0.5800,1.9050
0.5994,1.8074
0.6547,1.7247
0.7374,1.6694
0.8350,1.6500
2.0250,1.6500
2.1226,1.6694
2.2053,1.7247
2.2606,1.8074
2.2800,1.9050
2.2800,3.0950
2.2606,3.1926
2.2053,3.2753
2.1226,3.3306
2.0250,3.3500
0.8350,3.3500
0.7374,3.3306
0.6547,3.2753
0.5994,3.1926
0.5800,3.0950
Z" /> 
</g>
<g style="fill:#4D7FC4; fill-opacity:1.0000; stroke:none;">
<circle cx="1.4300" cy="5.0400" r="0.8500" /> 
</g>
<g style="fill:#4D7FC4; fill-opacity:1.0000; stroke:none;">
<circle cx="1.4300" cy="7.5800" r="0.8500" /> 
</g>
<g style="fill:#4D7FC4; fill-opacity:1.0000; stroke:none;">
<circle cx="1.4300" cy="10.1200" r="0.8500" /> 
</g>
<g style="fill:#4D7FC4; fill-opacity:1.0000; stroke:none;">
<circle cx="1.4300" cy="12.6600" r="0.8500" /> 
</g>
<g style="fill:#4D7FC4; fill-opacity:1.0000; stroke:none;">
<circle cx="1.4300" cy="15.2000" r="0.8500" /> 
</g>
<g style="fill:#4D7FC4; fill-opacity:1.0000; stroke:none;">
<circle cx="1.4300" cy="17.7400" r="0.8500" /> 
</g>
<g style="fill:#4D7FC4; fill-opacity:1.0000; stroke:none;">
<circle cx="1.4300" cy="20.2800" r="0.8500" /> 
</g>
<g style="fill:#4D7FC4; fill-opacity:1.0000; stroke:none;">
<circle cx="1.4300" cy="22.8200" r="0.8500" /> 
</g>
<g style="fill:#4D7FC4; fill-opacity:1.0000; stroke:none;">
<circle cx="1.4300" cy="25.3600" r="0.8500" /> 
</g>
<g style="fill:#4D7FC4; fill-opacity:1.0000; stroke:none;">
<circle cx="1.4300" cy="27.9000" r="0.8500" /> 
</g>
<g style="fill:#4D7FC4; fill-opacity:1.0000; stroke:none;">
<circle cx="1.4300" cy="30.4400" r="0.8500" /> 
</g>
<g style="fill:#4D7FC4; fill-opacity:1.0000; stroke:none;">
<circle cx="1.4300" cy="32.9800" r="0.8500" /> 
</g>
<g style="fill:#4D7FC4; fill-opacity:1.0000; stroke:none;">
<circle cx="16.6700" cy="32.9800" r="0.8500" /> 
</g>
<g style="fill:#4D7FC4; fill-opacity:1.0000; stroke:none;">
<circle cx="16.6700" cy="30.4400" r="0.8500" /> 
</g>
<g style="fill:#4D7FC4; fill-opacity:1.0000; stroke:none;">
<circle cx="16.6700" cy="27.9000" r="0.8500" /> 
</g>
<g style="fill:#4D7FC4; fill-opacity:1.0000; stroke:none;">
<circle cx="16.6700" cy="25.3600" r="0.8500" /> 
</g>
<g style="fill:#4D7FC4; fill-opacity:1.0000; stroke:none;">
<circle cx="16.6700" cy="22.8200" r="0.8500" /> 
</g>
<g style="fill:#4D7FC4; fill-opacity:1.0000; stroke:none;">
<circle cx="16.6700" cy="20.2800" r="0.8500" /> 
</g>
<g style="fill:#4D7FC4; fill-opacity:1.0000; stroke:none;">
<circle cx="16.6700" cy="17.7400" r="0.8500" /> 
</g>
<g style="fill:#4D7FC4; fill-opacity:1.0000; stroke:none;">
<circle cx="16.6700" cy="15.2000" r="0.8500" /> 
</g>
<g style="fill:#4D7FC4; fill-opacity:1.0000; stroke:none;">
<circle cx="16.6700" cy="12.6600" r="0.8500" /> 
</g>
<g style="fill:#4D7FC4; fill-opacity:1.0000; stroke:none;">
<circle cx="16.6700" cy="10.1200" r="0.8500" /> 
</g>
<g style="fill:#4D7FC4; fill-opacity:1.0000; stroke:none;">
<circle cx="16.6700" cy="7.5800" r="0.8500" /> 
</g>
<g style="fill:#4D7FC4; fill-opacity:1.0000; stroke:none;">
<circle cx="16.6700" cy="5.0400" r="0.8500" /> 
</g>
<g style="fill:#4D7FC4; fill-opacity:1.0000; stroke:none;">
<circle cx="16.6700" cy="2.5000" r="0.8500" /> 
<path style="fill:#C83434; fill-opacity:1.0000; stroke:none;fill-rule:evenodd;"
d="M 0.5800,1.9050
0.5994,1.8074
0.6547,1.7247
0.7374,1.6694
0.8350,1.6500
2.0250,1.6500
2.1226,1.6694
2.2053,1.7247
2.2606,1.8074
2.2800,1.9050
2.2800,3.0950
2.2606,3.1926
2.2053,3.2753
2.1226,3.3306
2.0250,3.3500
0.8350,3.3500
0.7374,3.3306
0.6547,3.2753
0.5994,3.1926
0.5800,3.0950
Z" /> 
</g>
<g style="fill:#C83434; fill-opacity:1.0000; stroke:none;">
<circle cx="1.4300" cy="5.0400" r="0.8500" /> 
</g>
<g style="fill:#C83434; fill-opacity:1.0000; stroke:none;">
<circle cx="1.4300" cy="7.5800" r="0.8500" /> 
</g>
<g style="fill:#C83434; fill-opacity:1.0000; stroke:none;">
<circle cx="1.4300" cy="10.1200" r="0.8500" /> 
</g>
<g style="fill:#C83434; fill-opacity:1.0000; stroke:none;">
<circle cx="1.4300" cy="12.6600" r="0.8500" /> 
</g>
<g style="fill:#C83434; fill-opacity:1.0000; stroke:none;">
<circle cx="1.4300" cy="15.2000" r="0.8500" /> 
</g>
<g style="fill:#C83434; fill-opacity:1.0000; stroke:none;">
<circle cx="1.4300" cy="17.7400" r="0.8500" /> 
</g>
<g style="fill:#C83434; fill-opacity:1.0000; stroke:none;">
<circle cx="1.4300" cy="20.2800" r="0.8500" /> 
</g>
<g style="fill:#C83434; fill-opacity:1.0000; stroke:none;">
<circle cx="1.4300" cy="22.8200" r="0.8500" /> 
</g>
<g style="fill:#C83434; fill-opacity:1.0000; stroke:none;">
<circle cx="1.4300" cy="25.3600" r="0.8500" /> 
</g>
<g style="fill:#C83434; fill-opacity:1.0000; stroke:none;">
<circle cx="1.4300" cy="27.9000" r="0.8500" /> 
</g>
<g style="fill:#C83434; fill-opacity:1.0000; stroke:none;">
<circle cx="1.4300" cy="30.4400" r="0.8500" /> 
</g>
<g style="fill:#C83434; fill-opacity:1.0000; stroke:none;">
<circle cx="1.4300" cy="32.9800" r="0.8500" /> 
</g>
<g style="fill:#C83434; fill-opacity:1.0000; stroke:none;">
<circle cx="16.6700" cy="32.9800" r="0.8500" /> 
</g>
<g style="fill:#C83434; fill-opacity:1.0000; stroke:none;">
<circle cx="16.6700" cy="30.4400" r="0.8500" /> 
</g>
<g style="fill:#C83434; fill-opacity:1.0000; stroke:none;">
<circle cx="16.6700" cy="27.9000" r="0.8500" /> 
</g>
<g style="fill:#C83434; fill-opacity:1.0000; stroke:none;">
<circle cx="16.6700" cy="25.3600" r="0.8500" /> 
</g>
<g style="fill:#C83434; fill-opacity:1.0000; stroke:none;">
<circle cx="16.6700" cy="22.8200" r="0.8500" /> 
</g>
<g style="fill:#C83434; fill-opacity:1.0000; stroke:none;">
<circle cx="16.6700" cy="20.2800" r="0.8500" /> 
</g>
<g style="fill:#C83434; fill-opacity:1.0000; stroke:none;">
<circle cx="16.6700" cy="17.7400" r="0.8500" /> 
</g>
<g style="fill:#C83434; fill-opacity:1.0000; stroke:none;">
<circle cx="16.6700" cy="15.2000" r="0.8500" /> 
</g>
<g style="fill:#C83434; fill-opacity:1.0000; stroke:none;">
<circle cx="16.6700" cy="12.6600" r="0.8500" /> 
</g>
<g style="fill:#C83434; fill-opacity:1.0000; stroke:none;">
<circle cx="16.6700" cy="10.1200" r="0.8500" /> 
</g>
<g style="fill:#C83434; fill-opacity:1.0000; stroke:none;">
<circle cx="16.6700" cy="7.5800" r="0.8500" /> 
</g>
<g style="fill:#C83434; fill-opacity:1.0000; stroke:none;">
<circle cx="16.6700" cy="5.0400" r="0.8500" /> 
</g>
<g style="fill:#C83434; fill-opacity:1.0000; stroke:none;">
<circle cx="16.6700" cy="2.5000" r="0.8500" /> 
</g>
<g style="fill:none; 
stroke:#585D84; stroke-width:0.0472; stroke-opacity:1; 
stroke-linecap:round; stroke-linejoin:round;">
<text x="1.4300" y="2.7833"
textLength="0.5680" font-size="0.7556" lengthAdjust="spacingAndGlyphs"
text-anchor="middle" opacity="0" stroke-opacity="0">0</text>
<g class="stroked-text"><desc>0</desc>
<path d="M1.4030 2.1930
L1.4570 2.1930
" />
<path d="M1.4570 2.1930
L1.5110 2.2200
" />
<path d="M1.5110 2.2200
L1.5379 2.2470
" />
<path d="M1.5379 2.2470
L1.5649 2.3010
" />
<path d="M1.5649 2.3010
L1.5919 2.4089
" />
<path d="M1.5919 2.4089
L1.5919 2.5438
" />
<path d="M1.5919 2.5438
L1.5649 2.6518
" />
<path d="M1.5649 2.6518
L1.5379 2.7057
" />
<path d="M1.5379 2.7057
L1.5110 2.7327
" />
<path d="M1.5110 2.7327
L1.4570 2.7597
" />
<path d="M1.4570 2.7597
L1.4030 2.7597
" />
<path d="M1.4030 2.7597
L1.3490 2.7327
" />
<path d="M1.3490 2.7327
L1.3221 2.7057
" />
<path d="M1.3221 2.7057
L1.2951 2.6518
" />
<path d="M1.2951 2.6518
L1.2681 2.5438
" />
<path d="M1.2681 2.5438
L1.2681 2.4089
" />
<path d="M1.2681 2.4089
L1.2951 2.3010
" />
<path d="M1.2951 2.3010
L1.3221 2.2470
" />
<path d="M1.3221 2.2470
L1.3490 2.2200
" />
<path d="M1.3490 2.2200
L1.4030 2.1930
" />
</g><path style="fill:none; 
stroke:#585D84; stroke-width:0.0212; stroke-opacity:1; 
stroke-linecap:round; stroke-linejoin:round;fill:none"
d="M 0.5800,1.9050
0.5994,1.8074
0.6547,1.7247
0.7374,1.6694
0.8350,1.6500
2.0250,1.6500
2.1226,1.6694
2.2053,1.7247
2.2606,1.8074
2.2800,1.9050
2.2800,3.0950
2.2606,3.1926
2.2053,3.2753
2.1226,3.3306
2.0250,3.3500
0.8350,3.3500
0.7374,3.3306
0.6547,3.2753
0.5994,3.1926
0.5800,3.0950
Z" /> 
</g>
<g style="fill:none; 
stroke:#585D84; stroke-width:0.0472; stroke-opacity:1; 
stroke-linecap:round; stroke-linejoin:round;">
<text x="1.4300" y="5.3233"
textLength="0.5680" font-size="0.7556" lengthAdjust="spacingAndGlyphs"
text-anchor="middle" opacity="0" stroke-opacity="0">1</text>
<g class="stroked-text"><desc>1</desc>
<path d="M1.5919 5.2997
L1.2681 5.2997
" />
<path d="M1.4300 5.2997
L1.4300 4.7330
" />
<path d="M1.4300 4.7330
L1.3760 4.8140
" />
<path d="M1.3760 4.8140
L1.3221 4.8679
" />
<path d="M1.3221 4.8679
L1.2681 4.8949
" />
</g></g>
<g style="fill:none; 
stroke:#585D84; stroke-width:0.0212; stroke-opacity:1; 
stroke-linecap:round; stroke-linejoin:round;">
<circle cx="1.4300" cy="5.0400" r="0.8500" /> 
</g>
<g style="fill:none; 
stroke:#585D84; stroke-width:0.0472; stroke-opacity:1; 
stroke-linecap:round; stroke-linejoin:round;">
<text x="1.4300" y="7.8633"
textLength="0.5680" font-size="0.7556" lengthAdjust="spacingAndGlyphs"
text-anchor="middle" opacity="0" stroke-opacity="0">2</text>
<g class="stroked-text"><desc>2</desc>
<path d="M1.2681 7.3270
L1.2951 7.3000
" />
<path d="M1.2951 7.3000
L1.3490 7.2730
" />
<path d="M1.3490 7.2730
L1.4840 7.2730
" />
<path d="M1.4840 7.2730
L1.5379 7.3000
" />
<path d="M1.5379 7.3000
L1.5649 7.3270
" />
<path d="M1.5649 7.3270
L1.5919 7.3810
" />
<path d="M1.5919 7.3810
L1.5919 7.4349
" />
<path d="M1.5919 7.4349
L1.5649 7.5159
" />
<path d="M1.5649 7.5159
L1.2411 7.8397
" />
<path d="M1.2411 7.8397
L1.5919 7.8397
" />
</g></g>
<g style="fill:none; 
stroke:#585D84; stroke-width:0.0212; stroke-opacity:1; 
stroke-linecap:round; stroke-linejoin:round;">
<circle cx="1.4300" cy="7.5800" r="0.8500" /> 
</g>
<g style="fill:none; 
stroke:#585D84; stroke-width:0.0472; stroke-opacity:1; 
stroke-linecap:round; stroke-linejoin:round;">
<text x="1.4300" y="10.4033"
textLength="0.5680" font-size="0.7556" lengthAdjust="spacingAndGlyphs"
text-anchor="middle" opacity="0" stroke-opacity="0">3</text>
<g class="stroked-text"><desc>3</desc>
<path d="M1.2411 9.8130
L1.5919 9.8130
" />
<path d="M1.5919 9.8130
L1.4030 10.0289
" />
<path d="M1.4030 10.0289
L1.4840 10.0289
" />
<path d="M1.4840 10.0289
L1.5379 10.0559
" />
<path d="M1.5379 10.0559
L1.5649 10.0829
" />
<path d="M1.5649 10.0829
L1.5919 10.1368
" />
<path d="M1.5919 10.1368
L1.5919 10.2718
" />
<path d="M1.5919 10.2718
L1.5649 10.3257
" />
<path d="M1.5649 10.3257
L1.5379 10.3527
" />
<path d="M1.5379 10.3527
L1.4840 10.3797
" />
<path d="M1.4840 10.3797
L1.3221 10.3797
" />
<path d="M1.3221 10.3797
L1.2681 10.3527
" />
<path d="M1.2681 10.3527
L1.2411 10.3257
" />
</g></g>
<g style="fill:none; 
stroke:#585D84; stroke-width:0.0212; stroke-opacity:1; 
stroke-linecap:round; stroke-linejoin:round;">
<circle cx="1.4300" cy="10.1200" r="0.8500" /> 
</g>
<g style="fill:none; 
stroke:#585D84; stroke-width:0.0472; stroke-opacity:1; 
stroke-linecap:round; stroke-linejoin:round;">
<text x="1.4300" y="12.9433"
textLength="0.5680" font-size="0.7556" lengthAdjust="spacingAndGlyphs"
text-anchor="middle" opacity="0" stroke-opacity="0">4</text>
<g class="stroked-text"><desc>4</desc>
<path d="M1.5379 12.5419
L1.5379 12.9197
" />
<path d="M1.4030 12.3260
L1.2681 12.7308
" />
<path d="M1.2681 12.7308
L1.6189 12.7308
" />
</g></g>
<g style="fill:none; 
stroke:#585D84; stroke-width:0.0212; stroke-opacity:1; 
stroke-linecap:round; stroke-linejoin:round;">
<circle cx="1.4300" cy="12.6600" r="0.8500" /> 
</g>
<g style="fill:none; 
stroke:#585D84; stroke-width:0.0472; stroke-opacity:1; 
stroke-linecap:round; stroke-linejoin:round;">
<text x="1.4300" y="15.4833"
textLength="0.5680" font-size="0.7556" lengthAdjust="spacingAndGlyphs"
text-anchor="middle" opacity="0" stroke-opacity="0">5</text>
<g class="stroked-text"><desc>5</desc>
<path d="M1.5649 14.8930
L1.2951 14.8930
" />
<path d="M1.2951 14.8930
L1.2681 15.1629
" />
<path d="M1.2681 15.1629
L1.2951 15.1359
" />
<path d="M1.2951 15.1359
L1.3490 15.1089
" />
<path d="M1.3490 15.1089
L1.4840 15.1089
" />
<path d="M1.4840 15.1089
L1.5379 15.1359
" />
<path d="M1.5379 15.1359
L1.5649 15.1629
" />
<path d="M1.5649 15.1629
L1.5919 15.2168
" />
<path d="M1.5919 15.2168
L1.5919 15.3518
" />
<path d="M1.5919 15.3518
L1.5649 15.4057
" />
<path d="M1.5649 15.4057
L1.5379 15.4327
" />
<path d="M1.5379 15.4327
L1.4840 15.4597
" />
<path d="M1.4840 15.4597
L1.3490 15.4597
" />
<path d="M1.3490 15.4597
L1.2951 15.4327
" />
<path d="M1.2951 15.4327
L1.2681 15.4057
" />
</g></g>
<g style="fill:none; 
stroke:#585D84; stroke-width:0.0212; stroke-opacity:1; 
stroke-linecap:round; stroke-linejoin:round;">
<circle cx="1.4300" cy="15.2000" r="0.8500" /> 
</g>
<g style="fill:none; 
stroke:#585D84; stroke-width:0.0472; stroke-opacity:1; 
stroke-linecap:round; stroke-linejoin:round;">
<text x="1.4300" y="18.0233"
textLength="0.5680" font-size="0.7556" lengthAdjust="spacingAndGlyphs"
text-anchor="middle" opacity="0" stroke-opacity="0">6</text>
<g class="stroked-text"><desc>6</desc>
<path d="M1.5379 17.4330
L1.4300 17.4330
" />
<path d="M1.4300 17.4330
L1.3760 17.4600
" />
<path d="M1.3760 17.4600
L1.3490 17.4870
" />
<path d="M1.3490 17.4870
L1.2951 17.5679
" />
<path d="M1.2951 17.5679
L1.2681 17.6759
" />
<path d="M1.2681 17.6759
L1.2681 17.8918
" />
<path d="M1.2681 17.8918
L1.2951 17.9457
" />
<path d="M1.2951 17.9457
L1.3221 17.9727
" />
<path d="M1.3221 17.9727
L1.3760 17.9997
" />
<path d="M1.3760 17.9997
L1.4840 17.9997
" />
<path d="M1.4840 17.9997
L1.5379 17.9727
" />
<path d="M1.5379 17.9727
L1.5649 17.9457
" />
<path d="M1.5649 17.9457
L1.5919 17.8918
" />
<path d="M1.5919 17.8918
L1.5919 17.7568
" />
<path d="M1.5919 17.7568
L1.5649 17.7029
" />
<path d="M1.5649 17.7029
L1.5379 17.6759
" />
<path d="M1.5379 17.6759
L1.4840 17.6489
" />
<path d="M1.4840 17.6489
L1.3760 17.6489
" />
<path d="M1.3760 17.6489
L1.3221 17.6759
" />
<path d="M1.3221 17.6759
L1.2951 17.7029
" />
<path d="M1.2951 17.7029
L1.2681 17.7568
" />
</g></g>
<g style="fill:none; 
stroke:#585D84; stroke-width:0.0212; stroke-opacity:1; 
stroke-linecap:round; stroke-linejoin:round;">
<circle cx="1.4300" cy="17.7400" r="0.8500" /> 
</g>
<g style="fill:none; 
stroke:#585D84; stroke-width:0.0472; stroke-opacity:1; 
stroke-linecap:round; stroke-linejoin:round;">
<text x="1.4300" y="20.5633"
textLength="0.5680" font-size="0.7556" lengthAdjust="spacingAndGlyphs"
text-anchor="middle" opacity="0" stroke-opacity="0">7</text>
<g class="stroked-text"><desc>7</desc>
<path d="M1.2411 19.9730
L1.6189 19.9730
" />
<path d="M1.6189 19.9730
L1.3760 20.5397
" />
</g></g>
<g style="fill:none; 
stroke:#585D84; stroke-width:0.0212; stroke-opacity:1; 
stroke-linecap:round; stroke-linejoin:round;">
<circle cx="1.4300" cy="20.2800" r="0.8500" /> 
</g>
<g style="fill:none; 
stroke:#585D84; stroke-width:0.0472; stroke-opacity:1; 
stroke-linecap:round; stroke-linejoin:round;">
<text x="1.4300" y="23.1033"
textLength="0.5680" font-size="0.7556" lengthAdjust="spacingAndGlyphs"
text-anchor="middle" opacity="0" stroke-opacity="0">8</text>
<g class="stroked-text"><desc>8</desc>
<path d="M1.3760 22.7559
L1.3221 22.7289
" />
<path d="M1.3221 22.7289
L1.2951 22.7019
" />
<path d="M1.2951 22.7019
L1.2681 22.6479
" />
<path d="M1.2681 22.6479
L1.2681 22.6210
" />
<path d="M1.2681 22.6210
L1.2951 22.5670
" />
<path d="M1.2951 22.5670
L1.3221 22.5400
" />
<path d="M1.3221 22.5400
L1.3760 22.5130
" />
<path d="M1.3760 22.5130
L1.4840 22.5130
" />
<path d="M1.4840 22.5130
L1.5379 22.5400
" />
<path d="M1.5379 22.5400
L1.5649 22.5670
" />
<path d="M1.5649 22.5670
L1.5919 22.6210
" />
<path d="M1.5919 22.6210
L1.5919 22.6479
" />
<path d="M1.5919 22.6479
L1.5649 22.7019
" />
<path d="M1.5649 22.7019
L1.5379 22.7289
" />
<path d="M1.5379 22.7289
L1.4840 22.7559
" />
<path d="M1.4840 22.7559
L1.3760 22.7559
" />
<path d="M1.3760 22.7559
L1.3221 22.7829
" />
<path d="M1.3221 22.7829
L1.2951 22.8099
" />
<path d="M1.2951 22.8099
L1.2681 22.8638
" />
<path d="M1.2681 22.8638
L1.2681 22.9718
" />
<path d="M1.2681 22.9718
L1.2951 23.0257
" />
<path d="M1.2951 23.0257
L1.3221 23.0527
" />
<path d="M1.3221 23.0527
L1.3760 23.0797
" />
<path d="M1.3760 23.0797
L1.4840 23.0797
" />
<path d="M1.4840 23.0797
L1.5379 23.0527
" />
<path d="M1.5379 23.0527
L1.5649 23.0257
" />
<path d="M1.5649 23.0257
L1.5919 22.9718
" />
<path d="M1.5919 22.9718
L1.5919 22.8638
" />
<path d="M1.5919 22.8638
L1.5649 22.8099
" />
<path d="M1.5649 22.8099
L1.5379 22.7829
" />
<path d="M1.5379 22.7829
L1.4840 22.7559
" />
</g></g>
<g style="fill:none; 
stroke:#585D84; stroke-width:0.0212; stroke-opacity:1; 
stroke-linecap:round; stroke-linejoin:round;">
<circle cx="1.4300" cy="22.8200" r="0.8500" /> 
</g>
<g style="fill:none; 
stroke:#585D84; stroke-width:0.0472; stroke-opacity:1; 
stroke-linecap:round; stroke-linejoin:round;">
<text x="1.4300" y="25.6433"
textLength="0.5680" font-size="0.7556" lengthAdjust="spacingAndGlyphs"
text-anchor="middle" opacity="0" stroke-opacity="0">9</text>
<g class="stroked-text"><desc>9</desc>
<path d="M1.3221 25.6197
L1.4300 25.6197
" />
<path d="M1.4300 25.6197
L1.4840 25.5927
" />
<path d="M1.4840 25.5927
L1.5110 25.5657
" />
<path d="M1.5110 25.5657
L1.5649 25.4848
" />
<path d="M1.5649 25.4848
L1.5919 25.3768
" />
<path d="M1.5919 25.3768
L1.5919 25.1610
" />
<path d="M1.5919 25.1610
L1.5649 25.1070
" />
<path d="M1.5649 25.1070
L1.5379 25.0800
" />
<path d="M1.5379 25.0800
L1.4840 25.0530
" />
<path d="M1.4840 25.0530
L1.3760 25.0530
" />
<path d="M1.3760 25.0530
L1.3221 25.0800
" />
<path d="M1.3221 25.0800
L1.2951 25.1070
" />
<path d="M1.2951 25.1070
L1.2681 25.1610
" />
<path d="M1.2681 25.1610
L1.2681 25.2959
" />
<path d="M1.2681 25.2959
L1.2951 25.3499
" />
<path d="M1.2951 25.3499
L1.3221 25.3768
" />
<path d="M1.3221 25.3768
L1.3760 25.4038
" />
<path d="M1.3760 25.4038
L1.4840 25.4038
" />
<path d="M1.4840 25.4038
L1.5379 25.3768
" />
<path d="M1.5379 25.3768
L1.5649 25.3499
" />
<path d="M1.5649 25.3499
L1.5919 25.2959
" />
</g></g>
<g style="fill:none; 
stroke:#585D84; stroke-width:0.0212; stroke-opacity:1; 
stroke-linecap:round; stroke-linejoin:round;">
<circle cx="1.4300" cy="25.3600" r="0.8500" /> 
</g>
<g style="fill:none; 
stroke:#585D84; stroke-width:0.0472; stroke-opacity:1; 
stroke-linecap:round; stroke-linejoin:round;">
<text x="1.4300" y="28.1833"
textLength="1.1077" font-size="0.7556" lengthAdjust="spacingAndGlyphs"
text-anchor="middle" opacity="0" stroke-opacity="0">10</text>
<g class="stroked-text"><desc>10</desc>
<path d="M1.3221 28.1597
L0.9983 28.1597
" />
<path d="M1.1602 28.1597
L1.1602 27.5930
" />
<path d="M1.1602 27.5930
L1.1062 27.6740
" />
<path d="M1.1062 27.6740
L1.0522 27.7279
" />
<path d="M1.0522 27.7279
L0.9983 27.7549
" />
<path d="M1.6729 27.5930
L1.7268 27.5930
" />
<path d="M1.7268 27.5930
L1.7808 27.6200
" />
<path d="M1.7808 27.6200
L1.8078 27.6470
" />
<path d="M1.8078 27.6470
L1.8348 27.7010
" />
<path d="M1.8348 27.7010
L1.8617 27.8089
" />
<path d="M1.8617 27.8089
L1.8617 27.9438
" />
<path d="M1.8617 27.9438
L1.8348 28.0518
" />
<path d="M1.8348 28.0518
L1.8078 28.1057
" />
<path d="M1.8078 28.1057
L1.7808 28.1327
" />
<path d="M1.7808 28.1327
L1.7268 28.1597
" />
<path d="M1.7268 28.1597
L1.6729 28.1597
" />
<path d="M1.6729 28.1597
L1.6189 28.1327
" />
<path d="M1.6189 28.1327
L1.5919 28.1057
" />
<path d="M1.5919 28.1057
L1.5649 28.0518
" />
<path d="M1.5649 28.0518
L1.5379 27.9438
" />
<path d="M1.5379 27.9438
L1.5379 27.8089
" />
<path d="M1.5379 27.8089
L1.5649 27.7010
" />
<path d="M1.5649 27.7010
L1.5919 27.6470
" />
<path d="M1.5919 27.6470
L1.6189 27.6200
" />
<path d="M1.6189 27.6200
L1.6729 27.5930
" />
</g></g>
<g style="fill:none; 
stroke:#585D84; stroke-width:0.0212; stroke-opacity:1; 
stroke-linecap:round; stroke-linejoin:round;">
<circle cx="1.4300" cy="27.9000" r="0.8500" /> 
</g>
<g style="fill:none; 
stroke:#585D84; stroke-width:0.0472; stroke-opacity:1; 
stroke-linecap:round; stroke-linejoin:round;">
<text x="1.4300" y="30.7233"
textLength="1.1077" font-size="0.7556" lengthAdjust="spacingAndGlyphs"
text-anchor="middle" opacity="0" stroke-opacity="0">11</text>
<g class="stroked-text"><desc>11</desc>
<path d="M1.3221 30.6997
L0.9983 30.6997
" />
<path d="M1.1602 30.6997
L1.1602 30.1330
" />
<path d="M1.1602 30.1330
L1.1062 30.2140
" />
<path d="M1.1062 30.2140
L1.0522 30.2679
" />
<path d="M1.0522 30.2679
L0.9983 30.2949
" />
<path d="M1.8617 30.6997
L1.5379 30.6997
" />
<path d="M1.6998 30.6997
L1.6998 30.1330
" />
<path d="M1.6998 30.1330
L1.6459 30.2140
" />
<path d="M1.6459 30.2140
L1.5919 30.2679
" />
<path d="M1.5919 30.2679
L1.5379 30.2949
" />
</g></g>
<g style="fill:none; 
stroke:#585D84; stroke-width:0.0212; stroke-opacity:1; 
stroke-linecap:round; stroke-linejoin:round;">
<circle cx="1.4300" cy="30.4400" r="0.8500" /> 
</g>
<g style="fill:none; 
stroke:#585D84; stroke-width:0.0472; stroke-opacity:1; 
stroke-linecap:round; stroke-linejoin:round;">
<text x="1.4300" y="33.2633"
textLength="1.1077" font-size="0.7556" lengthAdjust="spacingAndGlyphs"
text-anchor="middle" opacity="0" stroke-opacity="0">12</text>
<g class="stroked-text"><desc>12</desc>
<path d="M1.3221 33.2397
L0.9983 33.2397
" />
<path d="M1.1602 33.2397
L1.1602 32.6730
" />
<path d="M1.1602 32.6730
L1.1062 32.7540
" />
<path d="M1.1062 32.7540
L1.0522 32.8079
" />
<path d="M1.0522 32.8079
L0.9983 32.8349
" />
<path d="M1.5379 32.7270
L1.5649 32.7000
" />
<path d="M1.5649 32.7000
L1.6189 32.6730
" />
<path d="M1.6189 32.6730
L1.7538 32.6730
" />
<path d="M1.7538 32.6730
L1.8078 32.7000
" />
<path d="M1.8078 32.7000
L1.8348 32.7270
" />
<path d="M1.8348 32.7270
L1.8617 32.7810
" />
<path d="M1.8617 32.7810
L1.8617 32.8349
" />
<path d="M1.8617 32.8349
L1.8348 32.9159
" />
<path d="M1.8348 32.9159
L1.5110 33.2397
" />
<path d="M1.5110 33.2397
L1.8617 33.2397
" />
</g></g>
<g style="fill:none; 
stroke:#585D84; stroke-width:0.0212; stroke-opacity:1; 
stroke-linecap:round; stroke-linejoin:round;">
<circle cx="1.4300" cy="32.9800" r="0.8500" /> 
</g>
<g style="fill:none; 
stroke:#585D84; stroke-width:0.0472; stroke-opacity:1; 
stroke-linecap:round; stroke-linejoin:round;">
<text x="16.6700" y="33.2633"
textLength="1.1077" font-size="0.7556" lengthAdjust="spacingAndGlyphs"
text-anchor="middle" opacity="0" stroke-opacity="0">13</text>
<g class="stroked-text"><desc>13</desc>
<path d="M16.5621 33.2397
L16.2383 33.2397
" />
<path d="M16.4002 33.2397
L16.4002 32.6730
" />
<path d="M16.4002 32.6730
L16.3462 32.7540
" />
<path d="M16.3462 32.7540
L16.2922 32.8079
" />
<path d="M16.2922 32.8079
L16.2383 32.8349
" />
<path d="M16.7510 32.6730
L17.1017 32.6730
" />
<path d="M17.1017 32.6730
L16.9129 32.8889
" />
<path d="M16.9129 32.8889
L16.9938 32.8889
" />
<path d="M16.9938 32.8889
L17.0478 32.9159
" />
<path d="M17.0478 32.9159
L17.0748 32.9429
" />
<path d="M17.0748 32.9429
L17.1017 32.9968
" />
<path d="M17.1017 32.9968
L17.1017 33.1318
" />
<path d="M17.1017 33.1318
L17.0748 33.1857
" />
<path d="M17.0748 33.1857
L17.0478 33.2127
" />
<path d="M17.0478 33.2127
L16.9938 33.2397
" />
<path d="M16.9938 33.2397
L16.8319 33.2397
" />
<path d="M16.8319 33.2397
L16.7779 33.2127
" />
<path d="M16.7779 33.2127
L16.7510 33.1857
" />
</g></g>
<g style="fill:none; 
stroke:#585D84; stroke-width:0.0212; stroke-opacity:1; 
stroke-linecap:round; stroke-linejoin:round;">
<circle cx="16.6700" cy="32.9800" r="0.8500" /> 
</g>
<g style="fill:none; 
stroke:#585D84; stroke-width:0.0472; stroke-opacity:1; 
stroke-linecap:round; stroke-linejoin:round;">
<text x="16.6700" y="30.7233"
textLength="1.1077" font-size="0.7556" lengthAdjust="spacingAndGlyphs"
text-anchor="middle" opacity="0" stroke-opacity="0">14</text>
<g class="stroked-text"><desc>14</desc>
<path d="M16.5621 30.6997
L16.2383 30.6997
" />
<path d="M16.4002 30.6997
L16.4002 30.1330
" />
<path d="M16.4002 30.1330
L16.3462 30.2140
" />
<path d="M16.3462 30.2140
L16.2922 30.2679
" />
<path d="M16.2922 30.2679
L16.2383 30.2949
" />
<path d="M17.0478 30.3219
L17.0478 30.6997
" />
<path d="M16.9129 30.1060
L16.7779 30.5108
" />
<path d="M16.7779 30.5108
L17.1287 30.5108
" />
</g></g>
<g style="fill:none; 
stroke:#585D84; stroke-width:0.0212; stroke-opacity:1; 
stroke-linecap:round; stroke-linejoin:round;">
<circle cx="16.6700" cy="30.4400" r="0.8500" /> 
</g>
<g style="fill:none; 
stroke:#585D84; stroke-width:0.0472; stroke-opacity:1; 
stroke-linecap:round; stroke-linejoin:round;">
<text x="16.6700" y="28.1833"
textLength="1.1077" font-size="0.7556" lengthAdjust="spacingAndGlyphs"
text-anchor="middle" opacity="0" stroke-opacity="0">15</text>
<g class="stroked-text"><desc>15</desc>
<path d="M16.5621 28.1597
L16.2383 28.1597
" />
<path d="M16.4002 28.1597
L16.4002 27.5930
" />
<path d="M16.4002 27.5930
L16.3462 27.6740
" />
<path d="M16.3462 27.6740
L16.2922 27.7279
" />
<path d="M16.2922 27.7279
L16.2383 27.7549
" />
<path d="M17.0748 27.5930
L16.8049 27.5930
" />
<path d="M16.8049 27.5930
L16.7779 27.8629
" />
<path d="M16.7779 27.8629
L16.8049 27.8359
" />
<path d="M16.8049 27.8359
L16.8589 27.8089
" />
<path d="M16.8589 27.8089
L16.9938 27.8089
" />
<path d="M16.9938 27.8089
L17.0478 27.8359
" />
<path d="M17.0478 27.8359
L17.0748 27.8629
" />
<path d="M17.0748 27.8629
L17.1017 27.9168
" />
<path d="M17.1017 27.9168
L17.1017 28.0518
" />
<path d="M17.1017 28.0518
L17.0748 28.1057
" />
<path d="M17.0748 28.1057
L17.0478 28.1327
" />
<path d="M17.0478 28.1327
L16.9938 28.1597
" />
<path d="M16.9938 28.1597
L16.8589 28.1597
" />
<path d="M16.8589 28.1597
L16.8049 28.1327
" />
<path d="M16.8049 28.1327
L16.7779 28.1057
" />
</g></g>
<g style="fill:none; 
stroke:#585D84; stroke-width:0.0212; stroke-opacity:1; 
stroke-linecap:round; stroke-linejoin:round;">
<circle cx="16.6700" cy="27.9000" r="0.8500" /> 
</g>
<g style="fill:none; 
stroke:#585D84; stroke-width:0.0472; stroke-opacity:1; 
stroke-linecap:round; stroke-linejoin:round;">
<text x="16.6700" y="25.6433"
textLength="1.1077" font-size="0.7556" lengthAdjust="spacingAndGlyphs"
text-anchor="middle" opacity="0" stroke-opacity="0">16</text>
<g class="stroked-text"><desc>16</desc>
<path d="M16.5621 25.6197
L16.2383 25.6197
" />
<path d="M16.4002 25.6197
L16.4002 25.0530
" />
<path d="M16.4002 25.0530
L16.3462 25.1340
" />
<path d="M16.3462 25.1340
L16.2922 25.1879
" />
<path d="M16.2922 25.1879
L16.2383 25.2149
" />
<path d="M17.0478 25.0530
L16.9398 25.0530
" />
<path d="M16.9398 25.0530
L16.8859 25.0800
" />
<path d="M16.8859 25.0800
L16.8589 25.1070
" />
<path d="M16.8589 25.1070
L16.8049 25.1879
" />
<path d="M16.8049 25.1879
L16.7779 25.2959
" />
<path d="M16.7779 25.2959
L16.7779 25.5118
" />
<path d="M16.7779 25.5118
L16.8049 25.5657
" />
<path d="M16.8049 25.5657
L16.8319 25.5927
" />
<path d="M16.8319 25.5927
L16.8859 25.6197
" />
<path d="M16.8859 25.6197
L16.9938 25.6197
" />
<path d="M16.9938 25.6197
L17.0478 25.5927
" />
<path d="M17.0478 25.5927
L17.0748 25.5657
" />
<path d="M17.0748 25.5657
L17.1017 25.5118
" />
<path d="M17.1017 25.5118
L17.1017 25.3768
" />
<path d="M17.1017 25.3768
L17.0748 25.3229
" />
<path d="M17.0748 25.3229
L17.0478 25.2959
" />
<path d="M17.0478 25.2959
L16.9938 25.2689
" />
<path d="M16.9938 25.2689
L16.8859 25.2689
" />
<path d="M16.8859 25.2689
L16.8319 25.2959
" />
<path d="M16.8319 25.2959
L16.8049 25.3229
" />
<path d="M16.8049 25.3229
L16.7779 25.3768
" />
</g></g>
<g style="fill:none; 
stroke:#585D84; stroke-width:0.0212; stroke-opacity:1; 
stroke-linecap:round; stroke-linejoin:round;">
<circle cx="16.6700" cy="25.3600" r="0.8500" /> 
</g>
<g style="fill:none; 
stroke:#585D84; stroke-width:0.0472; stroke-opacity:1; 
stroke-linecap:round; stroke-linejoin:round;">
<text x="16.6700" y="23.1033"
textLength="1.1077" font-size="0.7556" lengthAdjust="spacingAndGlyphs"
text-anchor="middle" opacity="0" stroke-opacity="0">17</text>
<g class="stroked-text"><desc>17</desc>
<path d="M16.5621 23.0797
L16.2383 23.0797
" />
<path d="M16.4002 23.0797
L16.4002 22.5130
" />
<path d="M16.4002 22.5130
L16.3462 22.5940
" />
<path d="M16.3462 22.5940
L16.2922 22.6479
" />
<path d="M16.2922 22.6479
L16.2383 22.6749
" />
<path d="M16.7510 22.5130
L17.1287 22.5130
" />
<path d="M17.1287 22.5130
L16.8859 23.0797
" />
</g></g>
<g style="fill:none; 
stroke:#585D84; stroke-width:0.0212; stroke-opacity:1; 
stroke-linecap:round; stroke-linejoin:round;">
<circle cx="16.6700" cy="22.8200" r="0.8500" /> 
</g>
<g style="fill:none; 
stroke:#585D84; stroke-width:0.0472; stroke-opacity:1; 
stroke-linecap:round; stroke-linejoin:round;">
<text x="16.6700" y="20.5633"
textLength="1.1077" font-size="0.7556" lengthAdjust="spacingAndGlyphs"
text-anchor="middle" opacity="0" stroke-opacity="0">18</text>
<g class="stroked-text"><desc>18</desc>
<path d="M16.5621 20.5397
L16.2383 20.5397
" />
<path d="M16.4002 20.5397
L16.4002 19.9730
" />
<path d="M16.4002 19.9730
L16.3462 20.0540
" />
<path d="M16.3462 20.0540
L16.2922 20.1079
" />
<path d="M16.2922 20.1079
L16.2383 20.1349
" />
<path d="M16.8859 20.2159
L16.8319 20.1889
" />
<path d="M16.8319 20.1889
L16.8049 20.1619
" />
<path d="M16.8049 20.1619
L16.7779 20.1079
" />
<path d="M16.7779 20.1079
L16.7779 20.0810
" />
<path d="M16.7779 20.0810
L16.8049 20.0270
" />
<path d="M16.8049 20.0270
L16.8319 20.0000
" />
<path d="M16.8319 20.0000
L16.8859 19.9730
" />
<path d="M16.8859 19.9730
L16.9938 19.9730
" />
<path d="M16.9938 19.9730
L17.0478 20.0000
" />
<path d="M17.0478 20.0000
L17.0748 20.0270
" />
<path d="M17.0748 20.0270
L17.1017 20.0810
" />
<path d="M17.1017 20.0810
L17.1017 20.1079
" />
<path d="M17.1017 20.1079
L17.0748 20.1619
" />
<path d="M17.0748 20.1619
L17.0478 20.1889
" />
<path d="M17.0478 20.1889
L16.9938 20.2159
" />
<path d="M16.9938 20.2159
L16.8859 20.2159
" />
<path d="M16.8859 20.2159
L16.8319 20.2429
" />
<path d="M16.8319 20.2429
L16.8049 20.2699
" />
<path d="M16.8049 20.2699
L16.7779 20.3238
" />
<path d="M16.7779 20.3238
L16.7779 20.4318
" />
<path d="M16.7779 20.4318
L16.8049 20.4857
" />
<path d="M16.8049 20.4857
L16.8319 20.5127
" />
<path d="M16.8319 20.5127
L16.8859 20.5397
" />
<path d="M16.8859 20.5397
L16.9938 20.5397
" />
<path d="M16.9938 20.5397
L17.0478 20.5127
" />
<path d="M17.0478 20.5127
L17.0748 20.4857
" />
<path d="M17.0748 20.4857
L17.1017 20.4318
" />
<path d="M17.1017 20.4318
L17.1017 20.3238
" />
<path d="M17.1017 20.3238
L17.0748 20.2699
" />
<path d="M17.0748 20.2699
L17.0478 20.2429
" />
<path d="M17.0478 20.2429
L16.9938 20.2159
" />
</g></g>
<g style="fill:none; 
stroke:#585D84; stroke-width:0.0212; stroke-opacity:1; 
stroke-linecap:round; stroke-linejoin:round;">
<circle cx="16.6700" cy="20.2800" r="0.8500" /> 
</g>
<g style="fill:none; 
stroke:#585D84; stroke-width:0.0472; stroke-opacity:1; 
stroke-linecap:round; stroke-linejoin:round;">
<text x="16.6700" y="18.0233"
textLength="1.1077" font-size="0.7556" lengthAdjust="spacingAndGlyphs"
text-anchor="middle" opacity="0" stroke-opacity="0">19</text>
<g class="stroked-text"><desc>19</desc>
<path d="M16.5621 17.9997
L16.2383 17.9997
" />
<path d="M16.4002 17.9997
L16.4002 17.4330
" />
<path d="M16.4002 17.4330
L16.3462 17.5140
" />
<path d="M16.3462 17.5140
L16.2922 17.5679
" />
<path d="M16.2922 17.5679
L16.2383 17.5949
" />
<path d="M16.8319 17.9997
L16.9398 17.9997
" />
<path d="M16.9398 17.9997
L16.9938 17.9727
" />
<path d="M16.9938 17.9727
L17.0208 17.9457
" />
<path d="M17.0208 17.9457
L17.0748 17.8648
" />
<path d="M17.0748 17.8648
L17.1017 17.7568
" />
<path d="M17.1017 17.7568
L17.1017 17.5410
" />
<path d="M17.1017 17.5410
L17.0748 17.4870
" />
<path d="M17.0748 17.4870
L17.0478 17.4600
" />
<path d="M17.0478 17.4600
L16.9938 17.4330
" />
<path d="M16.9938 17.4330
L16.8859 17.4330
" />
<path d="M16.8859 17.4330
L16.8319 17.4600
" />
<path d="M16.8319 17.4600
L16.8049 17.4870
" />
<path d="M16.8049 17.4870
L16.7779 17.5410
" />
<path d="M16.7779 17.5410
L16.7779 17.6759
" />
<path d="M16.7779 17.6759
L16.8049 17.7299
" />
<path d="M16.8049 17.7299
L16.8319 17.7568
" />
<path d="M16.8319 17.7568
L16.8859 17.7838
" />
<path d="M16.8859 17.7838
L16.9938 17.7838
" />
<path d="M16.9938 17.7838
L17.0478 17.7568
" />
<path d="M17.0478 17.7568
L17.0748 17.7299
" />
<path d="M17.0748 17.7299
L17.1017 17.6759
" />
</g></g>
<g style="fill:none; 
stroke:#585D84; stroke-width:0.0212; stroke-opacity:1; 
stroke-linecap:round; stroke-linejoin:round;">
<circle cx="16.6700" cy="17.7400" r="0.8500" /> 
</g>
<g style="fill:none; 
stroke:#585D84; stroke-width:0.0472; stroke-opacity:1; 
stroke-linecap:round; stroke-linejoin:round;">
<text x="16.6700" y="15.4833"
textLength="1.1077" font-size="0.7556" lengthAdjust="spacingAndGlyphs"
text-anchor="middle" opacity="0" stroke-opacity="0">20</text>
<g class="stroked-text"><desc>20</desc>
<path d="M16.2383 14.9470
L16.2652 14.9200
" />
<path d="M16.2652 14.9200
L16.3192 14.8930
" />
<path d="M16.3192 14.8930
L16.4541 14.8930
" />
<path d="M16.4541 14.8930
L16.5081 14.9200
" />
<path d="M16.5081 14.9200
L16.5351 14.9470
" />
<path d="M16.5351 14.9470
L16.5621 15.0010
" />
<path d="M16.5621 15.0010
L16.5621 15.0549
" />
<path d="M16.5621 15.0549
L16.5351 15.1359
" />
<path d="M16.5351 15.1359
L16.2113 15.4597
" />
<path d="M16.2113 15.4597
L16.5621 15.4597
" />
<path d="M16.9129 14.8930
L16.9668 14.8930
" />
<path d="M16.9668 14.8930
L17.0208 14.9200
" />
<path d="M17.0208 14.9200
L17.0478 14.9470
" />
<path d="M17.0478 14.9470
L17.0748 15.0010
" />
<path d="M17.0748 15.0010
L17.1017 15.1089
" />
<path d="M17.1017 15.1089
L17.1017 15.2438
" />
<path d="M17.1017 15.2438
L17.0748 15.3518
" />
<path d="M17.0748 15.3518
L17.0478 15.4057
" />
<path d="M17.0478 15.4057
L17.0208 15.4327
" />
<path d="M17.0208 15.4327
L16.9668 15.4597
" />
<path d="M16.9668 15.4597
L16.9129 15.4597
" />
<path d="M16.9129 15.4597
L16.8589 15.4327
" />
<path d="M16.8589 15.4327
L16.8319 15.4057
" />
<path d="M16.8319 15.4057
L16.8049 15.3518
" />
<path d="M16.8049 15.3518
L16.7779 15.2438
" />
<path d="M16.7779 15.2438
L16.7779 15.1089
" />
<path d="M16.7779 15.1089
L16.8049 15.0010
" />
<path d="M16.8049 15.0010
L16.8319 14.9470
" />
<path d="M16.8319 14.9470
L16.8589 14.9200
" />
<path d="M16.8589 14.9200
L16.9129 14.8930
" />
</g></g>
<g style="fill:none; 
stroke:#585D84; stroke-width:0.0212; stroke-opacity:1; 
stroke-linecap:round; stroke-linejoin:round;">
<circle cx="16.6700" cy="15.2000" r="0.8500" /> 
</g>
<g style="fill:none; 
stroke:#585D84; stroke-width:0.0472; stroke-opacity:1; 
stroke-linecap:round; stroke-linejoin:round;">
<text x="16.6700" y="12.9433"
textLength="1.1077" font-size="0.7556" lengthAdjust="spacingAndGlyphs"
text-anchor="middle" opacity="0" stroke-opacity="0">21</text>
<g class="stroked-text"><desc>21</desc>
<path d="M16.2383 12.4070
L16.2652 12.3800
" />
<path d="M16.2652 12.3800
L16.3192 12.3530
" />
<path d="M16.3192 12.3530
L16.4541 12.3530
" />
<path d="M16.4541 12.3530
L16.5081 12.3800
" />
<path d="M16.5081 12.3800
L16.5351 12.4070
" />
<path d="M16.5351 12.4070
L16.5621 12.4610
" />
<path d="M16.5621 12.4610
L16.5621 12.5149
" />
<path d="M16.5621 12.5149
L16.5351 12.5959
" />
<path d="M16.5351 12.5959
L16.2113 12.9197
" />
<path d="M16.2113 12.9197
L16.5621 12.9197
" />
<path d="M17.1017 12.9197
L16.7779 12.9197
" />
<path d="M16.9398 12.9197
L16.9398 12.3530
" />
<path d="M16.9398 12.3530
L16.8859 12.4340
" />
<path d="M16.8859 12.4340
L16.8319 12.4879
" />
<path d="M16.8319 12.4879
L16.7779 12.5149
" />
</g></g>
<g style="fill:none; 
stroke:#585D84; stroke-width:0.0212; stroke-opacity:1; 
stroke-linecap:round; stroke-linejoin:round;">
<circle cx="16.6700" cy="12.6600" r="0.8500" /> 
</g>
<g style="fill:none; 
stroke:#585D84; stroke-width:0.0472; stroke-opacity:1; 
stroke-linecap:round; stroke-linejoin:round;">
<text x="16.6700" y="10.4033"
textLength="1.1077" font-size="0.7556" lengthAdjust="spacingAndGlyphs"
text-anchor="middle" opacity="0" stroke-opacity="0">22</text>
<g class="stroked-text"><desc>22</desc>
<path d="M16.2383 9.8670
L16.2652 9.8400
" />
<path d="M16.2652 9.8400
L16.3192 9.8130
" />
<path d="M16.3192 9.8130
L16.4541 9.8130
" />
<path d="M16.4541 9.8130
L16.5081 9.8400
" />
<path d="M16.5081 9.8400
L16.5351 9.8670
" />
<path d="M16.5351 9.8670
L16.5621 9.9210
" />
<path d="M16.5621 9.9210
L16.5621 9.9749
" />
<path d="M16.5621 9.9749
L16.5351 10.0559
" />
<path d="M16.5351 10.0559
L16.2113 10.3797
" />
<path d="M16.2113 10.3797
L16.5621 10.3797
" />
<path d="M16.7779 9.8670
L16.8049 9.8400
" />
<path d="M16.8049 9.8400
L16.8589 9.8130
" />
<path d="M16.8589 9.8130
L16.9938 9.8130
" />
<path d="M16.9938 9.8130
L17.0478 9.8400
" />
<path d="M17.0478 9.8400
L17.0748 9.8670
" />
<path d="M17.0748 9.8670
L17.1017 9.9210
" />
<path d="M17.1017 9.9210
L17.1017 9.9749
" />
<path d="M17.1017 9.9749
L17.0748 10.0559
" />
<path d="M17.0748 10.0559
L16.7510 10.3797
" />
<path d="M16.7510 10.3797
L17.1017 10.3797
" />
</g></g>
<g style="fill:none; 
stroke:#585D84; stroke-width:0.0212; stroke-opacity:1; 
stroke-linecap:round; stroke-linejoin:round;">
<circle cx="16.6700" cy="10.1200" r="0.8500" /> 
</g>
<g style="fill:none; 
stroke:#585D84; stroke-width:0.0472; stroke-opacity:1; 
stroke-linecap:round; stroke-linejoin:round;">
<text x="16.6700" y="7.8633"
textLength="1.1077" font-size="0.7556" lengthAdjust="spacingAndGlyphs"
text-anchor="middle" opacity="0" stroke-opacity="0">23</text>
<g class="stroked-text"><desc>23</desc>
<path d="M16.2383 7.3270
L16.2652 7.3000
" />
<path d="M16.2652 7.3000
L16.3192 7.2730
" />
<path d="M16.3192 7.2730
L16.4541 7.2730
" />
<path d="M16.4541 7.2730
L16.5081 7.3000
" />
<path d="M16.5081 7.3000
L16.5351 7.3270
" />
<path d="M16.5351 7.3270
L16.5621 7.3810
" />
<path d="M16.5621 7.3810
L16.5621 7.4349
" />
<path d="M16.5621 7.4349
L16.5351 7.5159
" />
<path d="M16.5351 7.5159
L16.2113 7.8397
" />
<path d="M16.2113 7.8397
L16.5621 7.8397
" />
<path d="M16.7510 7.2730
L17.1017 7.2730
" />
<path d="M17.1017 7.2730
L16.9129 7.4889
" />
<path d="M16.9129 7.4889
L16.9938 7.4889
" />
<path d="M16.9938 7.4889
L17.0478 7.5159
" />
<path d="M17.0478 7.5159
L17.0748 7.5429
" />
<path d="M17.0748 7.5429
L17.1017 7.5968
" />
<path d="M17.1017 7.5968
L17.1017 7.7318
" />
<path d="M17.1017 7.7318
L17.0748 7.7857
" />
<path d="M17.0748 7.7857
L17.0478 7.8127
" />
<path d="M17.0478 7.8127
L16.9938 7.8397
" />
<path d="M16.9938 7.8397
L16.8319 7.8397
" />
<path d="M16.8319 7.8397
L16.7779 7.8127
" />
<path d="M16.7779 7.8127
L16.7510 7.7857
" />
</g></g>
<g style="fill:none; 
stroke:#585D84; stroke-width:0.0212; stroke-opacity:1; 
stroke-linecap:round; stroke-linejoin:round;">
<circle cx="16.6700" cy="7.5800" r="0.8500" /> 
</g>
<g style="fill:none; 
stroke:#585D84; stroke-width:0.0472; stroke-opacity:1; 
stroke-linecap:round; stroke-linejoin:round;">
<text x="16.6700" y="5.3233"
textLength="1.1077" font-size="0.7556" lengthAdjust="spacingAndGlyphs"
text-anchor="middle" opacity="0" stroke-opacity="0">24</text>
<g class="stroked-text"><desc>24</desc>
<path d="M16.2383 4.7870
L16.2652 4.7600
" />
<path d="M16.2652 4.7600
L16.3192 4.7330
" />
<path d="M16.3192 4.7330
L16.4541 4.7330
" />
<path d="M16.4541 4.7330
L16.5081 4.7600
" />
<path d="M16.5081 4.7600
L16.5351 4.7870
" />
<path d="M16.5351 4.7870
L16.5621 4.8410
" />
<path d="M16.5621 4.8410
L16.5621 4.8949
" />
<path d="M16.5621 4.8949
L16.5351 4.9759
" />
<path d="M16.5351 4.9759
L16.2113 5.2997
" />
<path d="M16.2113 5.2997
L16.5621 5.2997
" />
<path d="M17.0478 4.9219
L17.0478 5.2997
" />
<path d="M16.9129 4.7060
L16.7779 5.1108
" />
<path d="M16.7779 5.1108
L17.1287 5.1108
" />
</g></g>
<g style="fill:none; 
stroke:#585D84; stroke-width:0.0212; stroke-opacity:1; 
stroke-linecap:round; stroke-linejoin:round;">
<circle cx="16.6700" cy="5.0400" r="0.8500" /> 
</g>
<g style="fill:none; 
stroke:#585D84; stroke-width:0.0472; stroke-opacity:1; 
stroke-linecap:round; stroke-linejoin:round;">
<text x="16.6700" y="2.7833"
textLength="1.1077" font-size="0.7556" lengthAdjust="spacingAndGlyphs"
text-anchor="middle" opacity="0" stroke-opacity="0">25</text>
<g class="stroked-text"><desc>25</desc>
<path d="M16.2383 2.2470
L16.2652 2.2200
" />
<path d="M16.2652 2.2200
L16.3192 2.1930
" />
<path d="M16.3192 2.1930
L16.4541 2.1930
" />
<path d="M16.4541 2.1930
L16.5081 2.2200
" />
<path d="M16.5081 2.2200
L16.5351 2.2470
" />
<path d="M16.5351 2.2470
L16.5621 2.3010
" />
<path d="M16.5621 2.3010
L16.5621 2.3549
" />
<path d="M16.5621 2.3549
L16.5351 2.4359
" />
<path d="M16.5351 2.4359
L16.2113 2.7597
" />
<path d="M16.2113 2.7597
L16.5621 2.7597
" />
<path d="M17.0748 2.1930
L16.8049 2.1930
" />
<path d="M16.8049 2.1930
L16.7779 2.4629
" />
<path d="M16.7779 2.4629
L16.8049 2.4359
" />
<path d="M16.8049 2.4359
L16.8589 2.4089
" />
<path d="M16.8589 2.4089
L16.9938 2.4089
" />
<path d="M16.9938 2.4089
L17.0478 2.4359
" />
<path d="M17.0478 2.4359
L17.0748 2.4629
" />
<path d="M17.0748 2.4629
L17.1017 2.5168
" />
<path d="M17.1017 2.5168
L17.1017 2.6518
" />
<path d="M17.1017 2.6518
L17.0748 2.7057
" />
<path d="M17.0748 2.7057
L17.0478 2.7327
" />
<path d="M17.0478 2.7327
L16.9938 2.7597
" />
<path d="M16.9938 2.7597
L16.8589 2.7597
" />
<path d="M16.8589 2.7597
L16.8049 2.7327
" />
<path d="M16.8049 2.7327
L16.7779 2.7057
" />
</g></g>
<g style="fill:none; 
stroke:#585D84; stroke-width:0.0212; stroke-opacity:1; 
stroke-linecap:round; stroke-linejoin:round;">
<circle cx="16.6700" cy="2.5000" r="0.8500" /> 
</g>
<g style="fill:none; 
stroke:#AFAFAF; stroke-width:0.1500; stroke-opacity:1; 
stroke-linecap:round; stroke-linejoin:round;">
<text x="9.0500" y="35.9400"
textLength="10.0119" font-size="1.3333" lengthAdjust="spacingAndGlyphs"
text-anchor="middle" opacity="0" stroke-opacity="0">MCU_KB2040</text>
<g class="stroked-text"><desc>MCU_KB2040</desc>
<path d="M4.4071 35.8948
L4.4071 34.8948
" />
<path d="M4.4071 34.8948
L4.7405 35.6091
" />
<path d="M4.7405 35.6091
L5.0738 34.8948
" />
<path d="M5.0738 34.8948
L5.0738 35.8948
" />
<path d="M6.1214 35.7996
L6.0738 35.8472
" />
<path d="M6.0738 35.8472
L5.9310 35.8948
" />
<path d="M5.9310 35.8948
L5.8357 35.8948
" />
<path d="M5.8357 35.8948
L5.6929 35.8472
" />
<path d="M5.6929 35.8472
L5.5976 35.7520
" />
<path d="M5.5976 35.7520
L5.5500 35.6567
" />
<path d="M5.5500 35.6567
L5.5024 35.4662
" />
<path d="M5.5024 35.4662
L5.5024 35.3234
" />
<path d="M5.5024 35.3234
L5.5500 35.1329
" />
<path d="M5.5500 35.1329
L5.5976 35.0377
" />
<path d="M5.5976 35.0377
L5.6929 34.9424
" />
<path d="M5.6929 34.9424
L5.8357 34.8948
" />
<path d="M5.8357 34.8948
L5.9310 34.8948
" />
<path d="M5.9310 34.8948
L6.0738 34.9424
" />
<path d="M6.0738 34.9424
L6.1214 34.9901
" />
<path d="M6.5500 34.8948
L6.5500 35.7043
" />
<path d="M6.5500 35.7043
L6.5976 35.7996
" />
<path d="M6.5976 35.7996
L6.6452 35.8472
" />
<path d="M6.6452 35.8472
L6.7405 35.8948
" />
<path d="M6.7405 35.8948
L6.9310 35.8948
" />
<path d="M6.9310 35.8948
L7.0262 35.8472
" />
<path d="M7.0262 35.8472
L7.0738 35.7996
" />
<path d="M7.0738 35.7996
L7.1214 35.7043
" />
<path d="M7.1214 35.7043
L7.1214 34.8948
" />
<path d="M7.3595 35.9901
L8.1214 35.9901
" />
<path d="M8.3595 35.8948
L8.3595 34.8948
" />
<path d="M8.9310 35.8948
L8.5024 35.3234
" />
<path d="M8.9310 34.8948
L8.3595 35.4662
" />
<path d="M9.6929 35.3710
L9.8357 35.4186
" />
<path d="M9.8357 35.4186
L9.8833 35.4662
" />
<path d="M9.8833 35.4662
L9.9310 35.5615
" />
<path d="M9.9310 35.5615
L9.9310 35.7043
" />
<path d="M9.9310 35.7043
L9.8833 35.7996
" />
<path d="M9.8833 35.7996
L9.8357 35.8472
" />
<path d="M9.8357 35.8472
L9.7405 35.8948
" />
<path d="M9.7405 35.8948
L9.3595 35.8948
" />
<path d="M9.3595 35.8948
L9.3595 34.8948
" />
<path d="M9.3595 34.8948
L9.6929 34.8948
" />
<path d="M9.6929 34.8948
L9.7881 34.9424
" />
<path d="M9.7881 34.9424
L9.8357 34.9901
" />
<path d="M9.8357 34.9901
L9.8833 35.0853
" />
<path d="M9.8833 35.0853
L9.8833 35.1805
" />
<path d="M9.8833 35.1805
L9.8357 35.2758
" />
<path d="M9.8357 35.2758
L9.7881 35.3234
" />
<path d="M9.7881 35.3234
L9.6929 35.3710
" />
<path d="M9.6929 35.3710
L9.3595 35.3710
" />
<path d="M10.3119 34.9901
L10.3595 34.9424
" />
<path d="M10.3595 34.9424
L10.4548 34.8948
" />
<path d="M10.4548 34.8948
L10.6929 34.8948
" />
<path d="M10.6929 34.8948
L10.7881 34.9424
" />
<path d="M10.7881 34.9424
L10.8357 34.9901
" />
<path d="M10.8357 34.9901
L10.8833 35.0853
" />
<path d="M10.8833 35.0853
L10.8833 35.1805
" />
<path d="M10.8833 35.1805
L10.8357 35.3234
" />
<path d="M10.8357 35.3234
L10.2643 35.8948
" />
<path d="M10.2643 35.8948
L10.8833 35.8948
" />
<path d="M11.5024 34.8948
L11.5976 34.8948
" />
<path d="M11.5976 34.8948
L11.6929 34.9424
" />
<path d="M11.6929 34.9424
L11.7405 34.9901
" />
<path d="M11.7405 34.9901
L11.7881 35.0853
" />
<path d="M11.7881 35.0853
L11.8357 35.2758
" />
<path d="M11.8357 35.2758
L11.8357 35.5139
" />
<path d="M11.8357 35.5139
L11.7881 35.7043
" />
<path d="M11.7881 35.7043
L11.7405 35.7996
" />
<path d="M11.7405 35.7996
L11.6929 35.8472
" />
<path d="M11.6929 35.8472
L11.5976 35.8948
" />
<path d="M11.5976 35.8948
L11.5024 35.8948
" />
<path d="M11.5024 35.8948
L11.4071 35.8472
" />
<path d="M11.4071 35.8472
L11.3595 35.7996
" />
<path d="M11.3595 35.7996
L11.3119 35.7043
" />
<path d="M11.3119 35.7043
L11.2643 35.5139
" />
<path d="M11.2643 35.5139
L11.2643 35.2758
" />
<path d="M11.2643 35.2758
L11.3119 35.0853
" />
<path d="M11.3119 35.0853
L11.3595 34.9901
" />
<path d="M11.3595 34.9901
L11.4071 34.9424
" />
<path d="M11.4071 34.9424
L11.5024 34.8948
" />
<path d="M12.6929 35.2282
L12.6929 35.8948
" />
<path d="M12.4548 34.8472
L12.2167 35.5615
" />
<path d="M12.2167 35.5615
L12.8357 35.5615
" />
<path d="M13.4071 34.8948
L13.5024 34.8948
" />
<path d="M13.5024 34.8948
L13.5976 34.9424
" />
<path d="M13.5976 34.9424
L13.6452 34.9901
" />
<path d="M13.6452 34.9901
L13.6929 35.0853
" />
<path d="M13.6929 35.0853
L13.7405 35.2758
" />
<path d="M13.7405 35.2758
L13.7405 35.5139
" />
<path d="M13.7405 35.5139
L13.6929 35.7043
" />
<path d="M13.6929 35.7043
L13.6452 35.7996
" />
<path d="M13.6452 35.7996
L13.5976 35.8472
" />
<path d="M13.5976 35.8472
L13.5024 35.8948
" />
<path d="M13.5024 35.8948
L13.4071 35.8948
" />
<path d="M13.4071 35.8948
L13.3119 35.8472
" />
<path d="M13.3119 35.8472
L13.2643 35.7996
" />
<path d="M13.2643 35.7996
L13.2167 35.7043
" />
<path d="M13.2167 35.7043
L13.1690 35.5139
" />
<path d="M13.1690 35.5139
L13.1690 35.2758
" />
<path d="M13.1690 35.2758
L13.2167 35.0853
" />
<path d="M13.2167 35.0853
L13.2643 34.9901
" />
<path d="M13.2643 34.9901
L13.3119 34.9424
" />
<path d="M13.3119 34.9424
L13.4071 34.8948
" />
</g><text x="9.0500" y="18.2400"
textLength="4.5357" font-size="1.3333" lengthAdjust="spacingAndGlyphs"
text-anchor="middle" opacity="0" stroke-opacity="0">REF**</text>
<g class="stroked-text"><desc>REF**</desc>
<path d="M7.7167 18.1948
L7.3833 17.7186
" />
<path d="M7.1452 18.1948
L7.1452 17.1948
" />
<path d="M7.1452 17.1948
L7.5262 17.1948
" />
<path d="M7.5262 17.1948
L7.6214 17.2424
" />
<path d="M7.6214 17.2424
L7.6690 17.2901
" />
<path d="M7.6690 17.2901
L7.7167 17.3853
" />
<path d="M7.7167 17.3853
L7.7167 17.5282
" />
<path d="M7.7167 17.5282
L7.6690 17.6234
" />
<path d="M7.6690 17.6234
L7.6214 17.6710
" />
<path d="M7.6214 17.6710
L7.5262 17.7186
" />
<path d="M7.5262 17.7186
L7.1452 17.7186
" />
<path d="M8.1452 17.6710
L8.4786 17.6710
" />
<path d="M8.6214 18.1948
L8.1452 18.1948
" />
<path d="M8.1452 18.1948
L8.1452 17.1948
" />
<path d="M8.1452 17.1948
L8.6214 17.1948
" />
<path d="M9.3833 17.6710
L9.0500 17.6710
" />
<path d="M9.0500 18.1948
L9.0500 17.1948
" />
<path d="M9.0500 17.1948
L9.5262 17.1948
" />
<path d="M10.0500 17.1948
L10.0500 17.4329
" />
<path d="M9.8119 17.3377
L10.0500 17.4329
" />
<path d="M10.0500 17.4329
L10.2881 17.3377
" />
<path d="M9.9071 17.6234
L10.0500 17.4329
" />
<path d="M10.0500 17.4329
L10.1929 17.6234
" />
<path d="M10.8119 17.1948
L10.8119 17.4329
" />
<path d="M10.5738 17.3377
L10.8119 17.4329
" />
<path d="M10.8119 17.4329
L11.0500 17.3377
" />
<path d="M10.6690 17.6234
L10.8119 17.4329
" />
<path d="M10.8119 17.4329
L10.9548 17.6234
" />
</g><path style="fill:none; 
stroke:#AFAFAF; stroke-width:0.1000; stroke-opacity:1; 
stroke-linecap:round; stroke-linejoin:round;fill:none"
d="M 0.1600,1.2300
17.9400,1.2300
17.9400,34.2500
0.1600,34.2500
Z" /> 
<path style="fill:none; 
stroke:#AFAFAF; stroke-width:0.1000; stroke-opacity:1; 
stroke-linecap:round; stroke-linejoin:round;fill:none"
d="M 4.5500,0.0500
13.5500,0.0500
13.5500,1.2300
4.5500,1.2300
Z" /> 
</g>
<g style="fill:none; 
stroke:#AFAFAF; stroke-width:0.0472; stroke-opacity:1; 
stroke-linecap:round; stroke-linejoin:round;">
<text x="1.4300" y="2.7833"
textLength="0.5680" font-size="0.7556" lengthAdjust="spacingAndGlyphs"
text-anchor="middle" opacity="0" stroke-opacity="0">0</text>
<g class="stroked-text"><desc>0</desc>
<path d="M1.4030 2.1930
L1.4570 2.1930
" />
<path d="M1.4570 2.1930
L1.5110 2.2200
" />
<path d="M1.5110 2.2200
L1.5379 2.2470
" />
<path d="M1.5379 2.2470
L1.5649 2.3010
" />
<path d="M1.5649 2.3010
L1.5919 2.4089
" />
<path d="M1.5919 2.4089
L1.5919 2.5438
" />
<path d="M1.5919 2.5438
L1.5649 2.6518
" />
<path d="M1.5649 2.6518
L1.5379 2.7057
" />
<path d="M1.5379 2.7057
L1.5110 2.7327
" />
<path d="M1.5110 2.7327
L1.4570 2.7597
" />
<path d="M1.4570 2.7597
L1.4030 2.7597
" />
<path d="M1.4030 2.7597
L1.3490 2.7327
" />
<path d="M1.3490 2.7327
L1.3221 2.7057
" />
<path d="M1.3221 2.7057
L1.2951 2.6518
" />
<path d="M1.2951 2.6518
L1.2681 2.5438
" />
<path d="M1.2681 2.5438
L1.2681 2.4089
" />
<path d="M1.2681 2.4089
L1.2951 2.3010
" />
<path d="M1.2951 2.3010
L1.3221 2.2470
" />
<path d="M1.3221 2.2470
L1.3490 2.2200
" />
<path d="M1.3490 2.2200
L1.4030 2.1930
" />
</g><path style="fill:none; 
stroke:#AFAFAF; stroke-width:0.0212; stroke-opacity:1; 
stroke-linecap:round; stroke-linejoin:round;fill:none"
d="M 0.5800,1.9050
0.5994,1.8074
0.6547,1.7247
0.7374,1.6694
0.8350,1.6500
2.0250,1.6500
2.1226,1.6694
2.2053,1.7247
2.2606,1.8074
2.2800,1.9050
2.2800,3.0950
2.2606,3.1926
2.2053,3.2753
2.1226,3.3306
2.0250,3.3500
0.8350,3.3500
0.7374,3.3306
0.6547,3.2753
0.5994,3.1926
0.5800,3.0950
Z" /> 
</g>
<g style="fill:none; 
stroke:#AFAFAF; stroke-width:0.0472; stroke-opacity:1; 
stroke-linecap:round; stroke-linejoin:round;">
<text x="1.4300" y="5.3233"
textLength="0.5680" font-size="0.7556" lengthAdjust="spacingAndGlyphs"
text-anchor="middle" opacity="0" stroke-opacity="0">1</text>
<g class="stroked-text"><desc>1</desc>
<path d="M1.5919 5.2997
L1.2681 5.2997
" />
<path d="M1.4300 5.2997
L1.4300 4.7330
" />
<path d="M1.4300 4.7330
L1.3760 4.8140
" />
<path d="M1.3760 4.8140
L1.3221 4.8679
" />
<path d="M1.3221 4.8679
L1.2681 4.8949
" />
</g></g>
<g style="fill:none; 
stroke:#AFAFAF; stroke-width:0.0212; stroke-opacity:1; 
stroke-linecap:round; stroke-linejoin:round;">
<circle cx="1.4300" cy="5.0400" r="0.8500" /> 
</g>
<g style="fill:none; 
stroke:#AFAFAF; stroke-width:0.0472; stroke-opacity:1; 
stroke-linecap:round; stroke-linejoin:round;">
<text x="1.4300" y="7.8633"
textLength="0.5680" font-size="0.7556" lengthAdjust="spacingAndGlyphs"
text-anchor="middle" opacity="0" stroke-opacity="0">2</text>
<g class="stroked-text"><desc>2</desc>
<path d="M1.2681 7.3270
L1.2951 7.3000
" />
<path d="M1.2951 7.3000
L1.3490 7.2730
" />
<path d="M1.3490 7.2730
L1.4840 7.2730
" />
<path d="M1.4840 7.2730
L1.5379 7.3000
" />
<path d="M1.5379 7.3000
L1.5649 7.3270
" />
<path d="M1.5649 7.3270
L1.5919 7.3810
" />
<path d="M1.5919 7.3810
L1.5919 7.4349
" />
<path d="M1.5919 7.4349
L1.5649 7.5159
" />
<path d="M1.5649 7.5159
L1.2411 7.8397
" />
<path d="M1.2411 7.8397
L1.5919 7.8397
" />
</g></g>
<g style="fill:none; 
stroke:#AFAFAF; stroke-width:0.0212; stroke-opacity:1; 
stroke-linecap:round; stroke-linejoin:round;">
<circle cx="1.4300" cy="7.5800" r="0.8500" /> 
</g>
<g style="fill:none; 
stroke:#AFAFAF; stroke-width:0.0472; stroke-opacity:1; 
stroke-linecap:round; stroke-linejoin:round;">
<text x="1.4300" y="10.4033"
textLength="0.5680" font-size="0.7556" lengthAdjust="spacingAndGlyphs"
text-anchor="middle" opacity="0" stroke-opacity="0">3</text>
<g class="stroked-text"><desc>3</desc>
<path d="M1.2411 9.8130
L1.5919 9.8130
" />
<path d="M1.5919 9.8130
L1.4030 10.0289
" />
<path d="M1.4030 10.0289
L1.4840 10.0289
" />
<path d="M1.4840 10.0289
L1.5379 10.0559
" />
<path d="M1.5379 10.0559
L1.5649 10.0829
" />
<path d="M1.5649 10.0829
L1.5919 10.1368
" />
<path d="M1.5919 10.1368
L1.5919 10.2718
" />
<path d="M1.5919 10.2718
L1.5649 10.3257
" />
<path d="M1.5649 10.3257
L1.5379 10.3527
" />
<path d="M1.5379 10.3527
L1.4840 10.3797
" />
<path d="M1.4840 10.3797
L1.3221 10.3797
" />
<path d="M1.3221 10.3797
L1.2681 10.3527
" />
<path d="M1.2681 10.3527
L1.2411 10.3257
" />
</g></g>
<g style="fill:none; 
stroke:#AFAFAF; stroke-width:0.0212; stroke-opacity:1; 
stroke-linecap:round; stroke-linejoin:round;">
<circle cx="1.4300" cy="10.1200" r="0.8500" /> 
</g>
<g style="fill:none; 
stroke:#AFAFAF; stroke-width:0.0472; stroke-opacity:1; 
stroke-linecap:round; stroke-linejoin:round;">
<text x="1.4300" y="12.9433"
textLength="0.5680" font-size="0.7556" lengthAdjust="spacingAndGlyphs"
text-anchor="middle" opacity="0" stroke-opacity="0">4</text>
<g class="stroked-text"><desc>4</desc>
<path d="M1.5379 12.5419
L1.5379 12.9197
" />
<path d="M1.4030 12.3260
L1.2681 12.7308
" />
<path d="M1.2681 12.7308
L1.6189 12.7308
" />
</g></g>
<g style="fill:none; 
stroke:#AFAFAF; stroke-width:0.0212; stroke-opacity:1; 
stroke-linecap:round; stroke-linejoin:round;">
<circle cx="1.4300" cy="12.6600" r="0.8500" /> 
</g>
<g style="fill:none; 
stroke:#AFAFAF; stroke-width:0.0472; stroke-opacity:1; 
stroke-linecap:round; stroke-linejoin:round;">
<text x="1.4300" y="15.4833"
textLength="0.5680" font-size="0.7556" lengthAdjust="spacingAndGlyphs"
text-anchor="middle" opacity="0" stroke-opacity="0">5</text>
<g class="stroked-text"><desc>5</desc>
<path d="M1.5649 14.8930
L1.2951 14.8930
" />
<path d="M1.2951 14.8930
L1.2681 15.1629
" />
<path d="M1.2681 15.1629
L1.2951 15.1359
" />
<path d="M1.2951 15.1359
L1.3490 15.1089
" />
<path d="M1.3490 15.1089
L1.4840 15.1089
" />
<path d="M1.4840 15.1089
L1.5379 15.1359
" />
<path d="M1.5379 15.1359
L1.5649 15.1629
" />
<path d="M1.5649 15.1629
L1.5919 15.2168
" />
<path d="M1.5919 15.2168
L1.5919 15.3518
" />
<path d="M1.5919 15.3518
L1.5649 15.4057
" />
<path d="M1.5649 15.4057
L1.5379 15.4327
" />
<path d="M1.5379 15.4327
L1.4840 15.4597
" />
<path d="M1.4840 15.4597
L1.3490 15.4597
" />
<path d="M1.3490 15.4597
L1.2951 15.4327
" />
<path d="M1.2951 15.4327
L1.2681 15.4057
" />
</g></g>
<g style="fill:none; 
stroke:#AFAFAF; stroke-width:0.0212; stroke-opacity:1; 
stroke-linecap:round; stroke-linejoin:round;">
<circle cx="1.4300" cy="15.2000" r="0.8500" /> 
</g>
<g style="fill:none; 
stroke:#AFAFAF; stroke-width:0.0472; stroke-opacity:1; 
stroke-linecap:round; stroke-linejoin:round;">
<text x="1.4300" y="18.0233"
textLength="0.5680" font-size="0.7556" lengthAdjust="spacingAndGlyphs"
text-anchor="middle" opacity="0" stroke-opacity="0">6</text>
<g class="stroked-text"><desc>6</desc>
<path d="M1.5379 17.4330
L1.4300 17.4330
" />
<path d="M1.4300 17.4330
L1.3760 17.4600
" />
<path d="M1.3760 17.4600
L1.3490 17.4870
" />
<path d="M1.3490 17.4870
L1.2951 17.5679
" />
<path d="M1.2951 17.5679
L1.2681 17.6759
" />
<path d="M1.2681 17.6759
L1.2681 17.8918
" />
<path d="M1.2681 17.8918
L1.2951 17.9457
" />
<path d="M1.2951 17.9457
L1.3221 17.9727
" />
<path d="M1.3221 17.9727
L1.3760 17.9997
" />
<path d="M1.3760 17.9997
L1.4840 17.9997
" />
<path d="M1.4840 17.9997
L1.5379 17.9727
" />
<path d="M1.5379 17.9727
L1.5649 17.9457
" />
<path d="M1.5649 17.9457
L1.5919 17.8918
" />
<path d="M1.5919 17.8918
L1.5919 17.7568
" />
<path d="M1.5919 17.7568
L1.5649 17.7029
" />
<path d="M1.5649 17.7029
L1.5379 17.6759
" />
<path d="M1.5379 17.6759
L1.4840 17.6489
" />
<path d="M1.4840 17.6489
L1.3760 17.6489
" />
<path d="M1.3760 17.6489
L1.3221 17.6759
" />
<path d="M1.3221 17.6759
L1.2951 17.7029
" />
<path d="M1.2951 17.7029
L1.2681 17.7568
" />
</g></g>
<g style="fill:none; 
stroke:#AFAFAF; stroke-width:0.0212; stroke-opacity:1; 
stroke-linecap:round; stroke-linejoin:round;">
<circle cx="1.4300" cy="17.7400" r="0.8500" /> 
</g>
<g style="fill:none; 
stroke:#AFAFAF; stroke-width:0.0472; stroke-opacity:1; 
stroke-linecap:round; stroke-linejoin:round;">
<text x="1.4300" y="20.5633"
textLength="0.5680" font-size="0.7556" lengthAdjust="spacingAndGlyphs"
text-anchor="middle" opacity="0" stroke-opacity="0">7</text>
<g class="stroked-text"><desc>7</desc>
<path d="M1.2411 19.9730
L1.6189 19.9730
" />
<path d="M1.6189 19.9730
L1.3760 20.5397
" />
</g></g>
<g style="fill:none; 
stroke:#AFAFAF; stroke-width:0.0212; stroke-opacity:1; 
stroke-linecap:round; stroke-linejoin:round;">
<circle cx="1.4300" cy="20.2800" r="0.8500" /> 
</g>
<g style="fill:none; 
stroke:#AFAFAF; stroke-width:0.0472; stroke-opacity:1; 
stroke-linecap:round; stroke-linejoin:round;">
<text x="1.4300" y="23.1033"
textLength="0.5680" font-size="0.7556" lengthAdjust="spacingAndGlyphs"
text-anchor="middle" opacity="0" stroke-opacity="0">8</text>
<g class="stroked-text"><desc>8</desc>
<path d="M1.3760 22.7559
L1.3221 22.7289
" />
<path d="M1.3221 22.7289
L1.2951 22.7019
" />
<path d="M1.2951 22.7019
L1.2681 22.6479
" />
<path d="M1.2681 22.6479
L1.2681 22.6210
" />
<path d="M1.2681 22.6210
L1.2951 22.5670
" />
<path d="M1.2951 22.5670
L1.3221 22.5400
" />
<path d="M1.3221 22.5400
L1.3760 22.5130
" />
<path d="M1.3760 22.5130
L1.4840 22.5130
" />
<path d="M1.4840 22.5130
L1.5379 22.5400
" />
<path d="M1.5379 22.5400
L1.5649 22.5670
" />
<path d="M1.5649 22.5670
L1.5919 22.6210
" />
<path d="M1.5919 22.6210
L1.5919 22.6479
" />
<path d="M1.5919 22.6479
L1.5649 22.7019
" />
<path d="M1.5649 22.7019
L1.5379 22.7289
" />
<path d="M1.5379 22.7289
L1.4840 22.7559
" />
<path d="M1.4840 22.7559
L1.3760 22.7559
" />
<path d="M1.3760 22.7559
L1.3221 22.7829
" />
<path d="M1.3221 22.7829
L1.2951 22.8099
" />
<path d="M1.2951 22.8099
L1.2681 22.8638
" />
<path d="M1.2681 22.8638
L1.2681 22.9718
" />
<path d="M1.2681 22.9718
L1.2951 23.0257
" />
<path d="M1.2951 23.0257
L1.3221 23.0527
" />
<path d="M1.3221 23.0527
L1.3760 23.0797
" />
<path d="M1.3760 23.0797
L1.4840 23.0797
" />
<path d="M1.4840 23.0797
L1.5379 23.0527
" />
<path d="M1.5379 23.0527
L1.5649 23.0257
" />
<path d="M1.5649 23.0257
L1.5919 22.9718
" />
<path d="M1.5919 22.9718
L1.5919 22.8638
" />
<path d="M1.5919 22.8638
L1.5649 22.8099
" />
<path d="M1.5649 22.8099
L1.5379 22.7829
" />
<path d="M1.5379 22.7829
L1.4840 22.7559
" />
</g></g>
<g style="fill:none; 
stroke:#AFAFAF; stroke-width:0.0212; stroke-opacity:1; 
stroke-linecap:round; stroke-linejoin:round;">
<circle cx="1.4300" cy="22.8200" r="0.8500" /> 
</g>
<g style="fill:none; 
stroke:#AFAFAF; stroke-width:0.0472; stroke-opacity:1; 
stroke-linecap:round; stroke-linejoin:round;">
<text x="1.4300" y="25.6433"
textLength="0.5680" font-size="0.7556" lengthAdjust="spacingAndGlyphs"
text-anchor="middle" opacity="0" stroke-opacity="0">9</text>
<g class="stroked-text"><desc>9</desc>
<path d="M1.3221 25.6197
L1.4300 25.6197
" />
<path d="M1.4300 25.6197
L1.4840 25.5927
" />
<path d="M1.4840 25.5927
L1.5110 25.5657
" />
<path d="M1.5110 25.5657
L1.5649 25.4848
" />
<path d="M1.5649 25.4848
L1.5919 25.3768
" />
<path d="M1.5919 25.3768
L1.5919 25.1610
" />
<path d="M1.5919 25.1610
L1.5649 25.1070
" />
<path d="M1.5649 25.1070
L1.5379 25.0800
" />
<path d="M1.5379 25.0800
L1.4840 25.0530
" />
<path d="M1.4840 25.0530
L1.3760 25.0530
" />
<path d="M1.3760 25.0530
L1.3221 25.0800
" />
<path d="M1.3221 25.0800
L1.2951 25.1070
" />
<path d="M1.2951 25.1070
L1.2681 25.1610
" />
<path d="M1.2681 25.1610
L1.2681 25.2959
" />
<path d="M1.2681 25.2959
L1.2951 25.3499
" />
<path d="M1.2951 25.3499
L1.3221 25.3768
" />
<path d="M1.3221 25.3768
L1.3760 25.4038
" />
<path d="M1.3760 25.4038
L1.4840 25.4038
" />
<path d="M1.4840 25.4038
L1.5379 25.3768
" />
<path d="M1.5379 25.3768
L1.5649 25.3499
" />
<path d="M1.5649 25.3499
L1.5919 25.2959
" />
</g></g>
<g style="fill:none; 
stroke:#AFAFAF; stroke-width:0.0212; stroke-opacity:1; 
stroke-linecap:round; stroke-linejoin:round;">
<circle cx="1.4300" cy="25.3600" r="0.8500" /> 
</g>
<g style="fill:none; 
stroke:#AFAFAF; stroke-width:0.0472; stroke-opacity:1; 
stroke-linecap:round; stroke-linejoin:round;">
<text x="1.4300" y="28.1833"
textLength="1.1077" font-size="0.7556" lengthAdjust="spacingAndGlyphs"
text-anchor="middle" opacity="0" stroke-opacity="0">10</text>
<g class="stroked-text"><desc>10</desc>
<path d="M1.3221 28.1597
L0.9983 28.1597
" />
<path d="M1.1602 28.1597
L1.1602 27.5930
" />
<path d="M1.1602 27.5930
L1.1062 27.6740
" />
<path d="M1.1062 27.6740
L1.0522 27.7279
" />
<path d="M1.0522 27.7279
L0.9983 27.7549
" />
<path d="M1.6729 27.5930
L1.7268 27.5930
" />
<path d="M1.7268 27.5930
L1.7808 27.6200
" />
<path d="M1.7808 27.6200
L1.8078 27.6470
" />
<path d="M1.8078 27.6470
L1.8348 27.7010
" />
<path d="M1.8348 27.7010
L1.8617 27.8089
" />
<path d="M1.8617 27.8089
L1.8617 27.9438
" />
<path d="M1.8617 27.9438
L1.8348 28.0518
" />
<path d="M1.8348 28.0518
L1.8078 28.1057
" />
<path d="M1.8078 28.1057
L1.7808 28.1327
" />
<path d="M1.7808 28.1327
L1.7268 28.1597
" />
<path d="M1.7268 28.1597
L1.6729 28.1597
" />
<path d="M1.6729 28.1597
L1.6189 28.1327
" />
<path d="M1.6189 28.1327
L1.5919 28.1057
" />
<path d="M1.5919 28.1057
L1.5649 28.0518
" />
<path d="M1.5649 28.0518
L1.5379 27.9438
" />
<path d="M1.5379 27.9438
L1.5379 27.8089
" />
<path d="M1.5379 27.8089
L1.5649 27.7010
" />
<path d="M1.5649 27.7010
L1.5919 27.6470
" />
<path d="M1.5919 27.6470
L1.6189 27.6200
" />
<path d="M1.6189 27.6200
L1.6729 27.5930
" />
</g></g>
<g style="fill:none; 
stroke:#AFAFAF; stroke-width:0.0212; stroke-opacity:1; 
stroke-linecap:round; stroke-linejoin:round;">
<circle cx="1.4300" cy="27.9000" r="0.8500" /> 
</g>
<g style="fill:none; 
stroke:#AFAFAF; stroke-width:0.0472; stroke-opacity:1; 
stroke-linecap:round; stroke-linejoin:round;">
<text x="1.4300" y="30.7233"
textLength="1.1077" font-size="0.7556" lengthAdjust="spacingAndGlyphs"
text-anchor="middle" opacity="0" stroke-opacity="0">11</text>
<g class="stroked-text"><desc>11</desc>
<path d="M1.3221 30.6997
L0.9983 30.6997
" />
<path d="M1.1602 30.6997
L1.1602 30.1330
" />
<path d="M1.1602 30.1330
L1.1062 30.2140
" />
<path d="M1.1062 30.2140
L1.0522 30.2679
" />
<path d="M1.0522 30.2679
L0.9983 30.2949
" />
<path d="M1.8617 30.6997
L1.5379 30.6997
" />
<path d="M1.6998 30.6997
L1.6998 30.1330
" />
<path d="M1.6998 30.1330
L1.6459 30.2140
" />
<path d="M1.6459 30.2140
L1.5919 30.2679
" />
<path d="M1.5919 30.2679
L1.5379 30.2949
" />
</g></g>
<g style="fill:none; 
stroke:#AFAFAF; stroke-width:0.0212; stroke-opacity:1; 
stroke-linecap:round; stroke-linejoin:round;">
<circle cx="1.4300" cy="30.4400" r="0.8500" /> 
</g>
<g style="fill:none; 
stroke:#AFAFAF; stroke-width:0.0472; stroke-opacity:1; 
stroke-linecap:round; stroke-linejoin:round;">
<text x="1.4300" y="33.2633"
textLength="1.1077" font-size="0.7556" lengthAdjust="spacingAndGlyphs"
text-anchor="middle" opacity="0" stroke-opacity="0">12</text>
<g class="stroked-text"><desc>12</desc>
<path d="M1.3221 33.2397
L0.9983 33.2397
" />
<path d="M1.1602 33.2397
L1.1602 32.6730
" />
<path d="M1.1602 32.6730
L1.1062 32.7540
" />
<path d="M1.1062 32.7540
L1.0522 32.8079
" />
<path d="M1.0522 32.8079
L0.9983 32.8349
" />
<path d="M1.5379 32.7270
L1.5649 32.7000
" />
<path d="M1.5649 32.7000
L1.6189 32.6730
" />
<path d="M1.6189 32.6730
L1.7538 32.6730
" />
<path d="M1.7538 32.6730
L1.8078 32.7000
" />
<path d="M1.8078 32.7000
L1.8348 32.7270
" />
<path d="M1.8348 32.7270
L1.8617 32.7810
" />
<path d="M1.8617 32.7810
L1.8617 32.8349
" />
<path d="M1.8617 32.8349
L1.8348 32.9159
" />
<path d="M1.8348 32.9159
L1.5110 33.2397
" />
<path d="M1.5110 33.2397
L1.8617 33.2397
" />
</g></g>
<g style="fill:none; 
stroke:#AFAFAF; stroke-width:0.0212; stroke-opacity:1; 
stroke-linecap:round; stroke-linejoin:round;">
<circle cx="1.4300" cy="32.9800" r="0.8500" /> 
</g>
<g style="fill:none; 
stroke:#AFAFAF; stroke-width:0.0472; stroke-opacity:1; 
stroke-linecap:round; stroke-linejoin:round;">
<text x="16.6700" y="33.2633"
textLength="1.1077" font-size="0.7556" lengthAdjust="spacingAndGlyphs"
text-anchor="middle" opacity="0" stroke-opacity="0">13</text>
<g class="stroked-text"><desc>13</desc>
<path d="M16.5621 33.2397
L16.2383 33.2397
" />
<path d="M16.4002 33.2397
L16.4002 32.6730
" />
<path d="M16.4002 32.6730
L16.3462 32.7540
" />
<path d="M16.3462 32.7540
L16.2922 32.8079
" />
<path d="M16.2922 32.8079
L16.2383 32.8349
" />
<path d="M16.7510 32.6730
L17.1017 32.6730
" />
<path d="M17.1017 32.6730
L16.9129 32.8889
" />
<path d="M16.9129 32.8889
L16.9938 32.8889
" />
<path d="M16.9938 32.8889
L17.0478 32.9159
" />
<path d="M17.0478 32.9159
L17.0748 32.9429
" />
<path d="M17.0748 32.9429
L17.1017 32.9968
" />
<path d="M17.1017 32.9968
L17.1017 33.1318
" />
<path d="M17.1017 33.1318
L17.0748 33.1857
" />
<path d="M17.0748 33.1857
L17.0478 33.2127
" />
<path d="M17.0478 33.2127
L16.9938 33.2397
" />
<path d="M16.9938 33.2397
L16.8319 33.2397
" />
<path d="M16.8319 33.2397
L16.7779 33.2127
" />
<path d="M16.7779 33.2127
L16.7510 33.1857
" />
</g></g>
<g style="fill:none; 
stroke:#AFAFAF; stroke-width:0.0212; stroke-opacity:1; 
stroke-linecap:round; stroke-linejoin:round;">
<circle cx="16.6700" cy="32.9800" r="0.8500" /> 
</g>
<g style="fill:none; 
stroke:#AFAFAF; stroke-width:0.0472; stroke-opacity:1; 
stroke-linecap:round; stroke-linejoin:round;">
<text x="16.6700" y="30.7233"
textLength="1.1077" font-size="0.7556" lengthAdjust="spacingAndGlyphs"
text-anchor="middle" opacity="0" stroke-opacity="0">14</text>
<g class="stroked-text"><desc>14</desc>
<path d="M16.5621 30.6997
L16.2383 30.6997
" />
<path d="M16.4002 30.6997
L16.4002 30.1330
" />
<path d="M16.4002 30.1330
L16.3462 30.2140
" />
<path d="M16.3462 30.2140
L16.2922 30.2679
" />
<path d="M16.2922 30.2679
L16.2383 30.2949
" />
<path d="M17.0478 30.3219
L17.0478 30.6997
" />
<path d="M16.9129 30.1060
L16.7779 30.5108
" />
<path d="M16.7779 30.5108
L17.1287 30.5108
" />
</g></g>
<g style="fill:none; 
stroke:#AFAFAF; stroke-width:0.0212; stroke-opacity:1; 
stroke-linecap:round; stroke-linejoin:round;">
<circle cx="16.6700" cy="30.4400" r="0.8500" /> 
</g>
<g style="fill:none; 
stroke:#AFAFAF; stroke-width:0.0472; stroke-opacity:1; 
stroke-linecap:round; stroke-linejoin:round;">
<text x="16.6700" y="28.1833"
textLength="1.1077" font-size="0.7556" lengthAdjust="spacingAndGlyphs"
text-anchor="middle" opacity="0" stroke-opacity="0">15</text>
<g class="stroked-text"><desc>15</desc>
<path d="M16.5621 28.1597
L16.2383 28.1597
" />
<path d="M16.4002 28.1597
L16.4002 27.5930
" />
<path d="M16.4002 27.5930
L16.3462 27.6740
" />
<path d="M16.3462 27.6740
L16.2922 27.7279
" />
<path d="M16.2922 27.7279
L16.2383 27.7549
" />
<path d="M17.0748 27.5930
L16.8049 27.5930
" />
<path d="M16.8049 27.5930
L16.7779 27.8629
" />
<path d="M16.7779 27.8629
L16.8049 27.8359
" />
<path d="M16.8049 27.8359
L16.8589 27.8089
" />
<path d="M16.8589 27.8089
L16.9938 27.8089
" />
<path d="M16.9938 27.8089
L17.0478 27.8359
" />
<path d="M17.0478 27.8359
L17.0748 27.8629
" />
<path d="M17.0748 27.8629
L17.1017 27.9168
" />
<path d="M17.1017 27.9168
L17.1017 28.0518
" />
<path d="M17.1017 28.0518
L17.0748 28.1057
" />
<path d="M17.0748 28.1057
L17.0478 28.1327
" />
<path d="M17.0478 28.1327
L16.9938 28.1597
" />
<path d="M16.9938 28.1597
L16.8589 28.1597
" />
<path d="M16.8589 28.1597
L16.8049 28.1327
" />
<path d="M16.8049 28.1327
L16.7779 28.1057
" />
</g></g>
<g style="fill:none; 
stroke:#AFAFAF; stroke-width:0.0212; stroke-opacity:1; 
stroke-linecap:round; stroke-linejoin:round;">
<circle cx="16.6700" cy="27.9000" r="0.8500" /> 
</g>
<g style="fill:none; 
stroke:#AFAFAF; stroke-width:0.0472; stroke-opacity:1; 
stroke-linecap:round; stroke-linejoin:round;">
<text x="16.6700" y="25.6433"
textLength="1.1077" font-size="0.7556" lengthAdjust="spacingAndGlyphs"
text-anchor="middle" opacity="0" stroke-opacity="0">16</text>
<g class="stroked-text"><desc>16</desc>
<path d="M16.5621 25.6197
L16.2383 25.6197
" />
<path d="M16.4002 25.6197
L16.4002 25.0530
" />
<path d="M16.4002 25.0530
L16.3462 25.1340
" />
<path d="M16.3462 25.1340
L16.2922 25.1879
" />
<path d="M16.2922 25.1879
L16.2383 25.2149
" />
<path d="M17.0478 25.0530
L16.9398 25.0530
" />
<path d="M16.9398 25.0530
L16.8859 25.0800
" />
<path d="M16.8859 25.0800
L16.8589 25.1070
" />
<path d="M16.8589 25.1070
L16.8049 25.1879
" />
<path d="M16.8049 25.1879
L16.7779 25.2959
" />
<path d="M16.7779 25.2959
L16.7779 25.5118
" />
<path d="M16.7779 25.5118
L16.8049 25.5657
" />
<path d="M16.8049 25.5657
L16.8319 25.5927
" />
<path d="M16.8319 25.5927
L16.8859 25.6197
" />
<path d="M16.8859 25.6197
L16.9938 25.6197
" />
<path d="M16.9938 25.6197
L17.0478 25.5927
" />
<path d="M17.0478 25.5927
L17.0748 25.5657
" />
<path d="M17.0748 25.5657
L17.1017 25.5118
" />
<path d="M17.1017 25.5118
L17.1017 25.3768
" />
<path d="M17.1017 25.3768
L17.0748 25.3229
" />
<path d="M17.0748 25.3229
L17.0478 25.2959
" />
<path d="M17.0478 25.2959
L16.9938 25.2689
" />
<path d="M16.9938 25.2689
L16.8859 25.2689
" />
<path d="M16.8859 25.2689
L16.8319 25.2959
" />
<path d="M16.8319 25.2959
L16.8049 25.3229
" />
<path d="M16.8049 25.3229
L16.7779 25.3768
" />
</g></g>
<g style="fill:none; 
stroke:#AFAFAF; stroke-width:0.0212; stroke-opacity:1; 
stroke-linecap:round; stroke-linejoin:round;">
<circle cx="16.6700" cy="25.3600" r="0.8500" /> 
</g>
<g style="fill:none; 
stroke:#AFAFAF; stroke-width:0.0472; stroke-opacity:1; 
stroke-linecap:round; stroke-linejoin:round;">
<text x="16.6700" y="23.1033"
textLength="1.1077" font-size="0.7556" lengthAdjust="spacingAndGlyphs"
text-anchor="middle" opacity="0" stroke-opacity="0">17</text>
<g class="stroked-text"><desc>17</desc>
<path d="M16.5621 23.0797
L16.2383 23.0797
" />
<path d="M16.4002 23.0797
L16.4002 22.5130
" />
<path d="M16.4002 22.5130
L16.3462 22.5940
" />
<path d="M16.3462 22.5940
L16.2922 22.6479
" />
<path d="M16.2922 22.6479
L16.2383 22.6749
" />
<path d="M16.7510 22.5130
L17.1287 22.5130
" />
<path d="M17.1287 22.5130
L16.8859 23.0797
" />
</g></g>
<g style="fill:none; 
stroke:#AFAFAF; stroke-width:0.0212; stroke-opacity:1; 
stroke-linecap:round; stroke-linejoin:round;">
<circle cx="16.6700" cy="22.8200" r="0.8500" /> 
</g>
<g style="fill:none; 
stroke:#AFAFAF; stroke-width:0.0472; stroke-opacity:1; 
stroke-linecap:round; stroke-linejoin:round;">
<text x="16.6700" y="20.5633"
textLength="1.1077" font-size="0.7556" lengthAdjust="spacingAndGlyphs"
text-anchor="middle" opacity="0" stroke-opacity="0">18</text>
<g class="stroked-text"><desc>18</desc>
<path d="M16.5621 20.5397
L16.2383 20.5397
" />
<path d="M16.4002 20.5397
L16.4002 19.9730
" />
<path d="M16.4002 19.9730
L16.3462 20.0540
" />
<path d="M16.3462 20.0540
L16.2922 20.1079
" />
<path d="M16.2922 20.1079
L16.2383 20.1349
" />
<path d="M16.8859 20.2159
L16.8319 20.1889
" />
<path d="M16.8319 20.1889
L16.8049 20.1619
" />
<path d="M16.8049 20.1619
L16.7779 20.1079
" />
<path d="M16.7779 20.1079
L16.7779 20.0810
" />
<path d="M16.7779 20.0810
L16.8049 20.0270
" />
<path d="M16.8049 20.0270
L16.8319 20.0000
" />
<path d="M16.8319 20.0000
L16.8859 19.9730
" />
<path d="M16.8859 19.9730
L16.9938 19.9730
" />
<path d="M16.9938 19.9730
L17.0478 20.0000
" />
<path d="M17.0478 20.0000
L17.0748 20.0270
" />
<path d="M17.0748 20.0270
L17.1017 20.0810
" />
<path d="M17.1017 20.0810
L17.1017 20.1079
" />
<path d="M17.1017 20.1079
L17.0748 20.1619
" />
<path d="M17.0748 20.1619
L17.0478 20.1889
" />
<path d="M17.0478 20.1889
L16.9938 20.2159
" />
<path d="M16.9938 20.2159
L16.8859 20.2159
" />
<path d="M16.8859 20.2159
L16.8319 20.2429
" />
<path d="M16.8319 20.2429
L16.8049 20.2699
" />
<path d="M16.8049 20.2699
L16.7779 20.3238
" />
<path d="M16.7779 20.3238
L16.7779 20.4318
" />
<path d="M16.7779 20.4318
L16.8049 20.4857
" />
<path d="M16.8049 20.4857
L16.8319 20.5127
" />
<path d="M16.8319 20.5127
L16.8859 20.5397
" />
<path d="M16.8859 20.5397
L16.9938 20.5397
" />
<path d="M16.9938 20.5397
L17.0478 20.5127
" />
<path d="M17.0478 20.5127
L17.0748 20.4857
" />
<path d="M17.0748 20.4857
L17.1017 20.4318
" />
<path d="M17.1017 20.4318
L17.1017 20.3238
" />
<path d="M17.1017 20.3238
L17.0748 20.2699
" />
<path d="M17.0748 20.2699
L17.0478 20.2429
" />
<path d="M17.0478 20.2429
L16.9938 20.2159
" />
</g></g>
<g style="fill:none; 
stroke:#AFAFAF; stroke-width:0.0212; stroke-opacity:1; 
stroke-linecap:round; stroke-linejoin:round;">
<circle cx="16.6700" cy="20.2800" r="0.8500" /> 
</g>
<g style="fill:none; 
stroke:#AFAFAF; stroke-width:0.0472; stroke-opacity:1; 
stroke-linecap:round; stroke-linejoin:round;">
<text x="16.6700" y="18.0233"
textLength="1.1077" font-size="0.7556" lengthAdjust="spacingAndGlyphs"
text-anchor="middle" opacity="0" stroke-opacity="0">19</text>
<g class="stroked-text"><desc>19</desc>
<path d="M16.5621 17.9997
L16.2383 17.9997
" />
<path d="M16.4002 17.9997
L16.4002 17.4330
" />
<path d="M16.4002 17.4330
L16.3462 17.5140
" />
<path d="M16.3462 17.5140
L16.2922 17.5679
" />
<path d="M16.2922 17.5679
L16.2383 17.5949
" />
<path d="M16.8319 17.9997
L16.9398 17.9997
" />
<path d="M16.9398 17.9997
L16.9938 17.9727
" />
<path d="M16.9938 17.9727
L17.0208 17.9457
" />
<path d="M17.0208 17.9457
L17.0748 17.8648
" />
<path d="M17.0748 17.8648
L17.1017 17.7568
" />
<path d="M17.1017 17.7568
L17.1017 17.5410
" />
<path d="M17.1017 17.5410
L17.0748 17.4870
" />
<path d="M17.0748 17.4870
L17.0478 17.4600
" />
<path d="M17.0478 17.4600
L16.9938 17.4330
" />
<path d="M16.9938 17.4330
L16.8859 17.4330
" />
<path d="M16.8859 17.4330
L16.8319 17.4600
" />
<path d="M16.8319 17.4600
L16.8049 17.4870
" />
<path d="M16.8049 17.4870
L16.7779 17.5410
" />
<path d="M16.7779 17.5410
L16.7779 17.6759
" />
<path d="M16.7779 17.6759
L16.8049 17.7299
" />
<path d="M16.8049 17.7299
L16.8319 17.7568
" />
<path d="M16.8319 17.7568
L16.8859 17.7838
" />
<path d="M16.8859 17.7838
L16.9938 17.7838
" />
<path d="M16.9938 17.7838
L17.0478 17.7568
" />
<path d="M17.0478 17.7568
L17.0748 17.7299
" />
<path d="M17.0748 17.7299
L17.1017 17.6759
" />
</g></g>
<g style="fill:none; 
stroke:#AFAFAF; stroke-width:0.0212; stroke-opacity:1; 
stroke-linecap:round; stroke-linejoin:round;">
<circle cx="16.6700" cy="17.7400" r="0.8500" /> 
</g>
<g style="fill:none; 
stroke:#AFAFAF; stroke-width:0.0472; stroke-opacity:1; 
stroke-linecap:round; stroke-linejoin:round;">
<text x="16.6700" y="15.4833"
textLength="1.1077" font-size="0.7556" lengthAdjust="spacingAndGlyphs"
text-anchor="middle" opacity="0" stroke-opacity="0">20</text>
<g class="stroked-text"><desc>20</desc>
<path d="M16.2383 14.9470
L16.2652 14.9200
" />
<path d="M16.2652 14.9200
L16.3192 14.8930
" />
<path d="M16.3192 14.8930
L16.4541 14.8930
" />
<path d="M16.4541 14.8930
L16.5081 14.9200
" />
<path d="M16.5081 14.9200
L16.5351 14.9470
" />
<path d="M16.5351 14.9470
L16.5621 15.0010
" />
<path d="M16.5621 15.0010
L16.5621 15.0549
" />
<path d="M16.5621 15.0549
L16.5351 15.1359
" />
<path d="M16.5351 15.1359
L16.2113 15.4597
" />
<path d="M16.2113 15.4597
L16.5621 15.4597
" />
<path d="M16.9129 14.8930
L16.9668 14.8930
" />
<path d="M16.9668 14.8930
L17.0208 14.9200
" />
<path d="M17.0208 14.9200
L17.0478 14.9470
" />
<path d="M17.0478 14.9470
L17.0748 15.0010
" />
<path d="M17.0748 15.0010
L17.1017 15.1089
" />
<path d="M17.1017 15.1089
L17.1017 15.2438
" />
<path d="M17.1017 15.2438
L17.0748 15.3518
" />
<path d="M17.0748 15.3518
L17.0478 15.4057
" />
<path d="M17.0478 15.4057
L17.0208 15.4327
" />
<path d="M17.0208 15.4327
L16.9668 15.4597
" />
<path d="M16.9668 15.4597
L16.9129 15.4597
" />
<path d="M16.9129 15.4597
L16.8589 15.4327
" />
<path d="M16.8589 15.4327
L16.8319 15.4057
" />
<path d="M16.8319 15.4057
L16.8049 15.3518
" />
<path d="M16.8049 15.3518
L16.7779 15.2438
" />
<path d="M16.7779 15.2438
L16.7779 15.1089
" />
<path d="M16.7779 15.1089
L16.8049 15.0010
" />
<path d="M16.8049 15.0010
L16.8319 14.9470
" />
<path d="M16.8319 14.9470
L16.8589 14.9200
" />
<path d="M16.8589 14.9200
L16.9129 14.8930
" />
</g></g>
<g style="fill:none; 
stroke:#AFAFAF; stroke-width:0.0212; stroke-opacity:1; 
stroke-linecap:round; stroke-linejoin:round;">
<circle cx="16.6700" cy="15.2000" r="0.8500" /> 
</g>
<g style="fill:none; 
stroke:#AFAFAF; stroke-width:0.0472; stroke-opacity:1; 
stroke-linecap:round; stroke-linejoin:round;">
<text x="16.6700" y="12.9433"
textLength="1.1077" font-size="0.7556" lengthAdjust="spacingAndGlyphs"
text-anchor="middle" opacity="0" stroke-opacity="0">21</text>
<g class="stroked-text"><desc>21</desc>
<path d="M16.2383 12.4070
L16.2652 12.3800
" />
<path d="M16.2652 12.3800
L16.3192 12.3530
" />
<path d="M16.3192 12.3530
L16.4541 12.3530
" />
<path d="M16.4541 12.3530
L16.5081 12.3800
" />
<path d="M16.5081 12.3800
L16.5351 12.4070
" />
<path d="M16.5351 12.4070
L16.5621 12.4610
" />
<path d="M16.5621 12.4610
L16.5621 12.5149
" />
<path d="M16.5621 12.5149
L16.5351 12.5959
" />
<path d="M16.5351 12.5959
L16.2113 12.9197
" />
<path d="M16.2113 12.9197
L16.5621 12.9197
" />
<path d="M17.1017 12.9197
L16.7779 12.9197
" />
<path d="M16.9398 12.9197
L16.9398 12.3530
" />
<path d="M16.9398 12.3530
L16.8859 12.4340
" />
<path d="M16.8859 12.4340
L16.8319 12.4879
" />
<path d="M16.8319 12.4879
L16.7779 12.5149
" />
</g></g>
<g style="fill:none; 
stroke:#AFAFAF; stroke-width:0.0212; stroke-opacity:1; 
stroke-linecap:round; stroke-linejoin:round;">
<circle cx="16.6700" cy="12.6600" r="0.8500" /> 
</g>
<g style="fill:none; 
stroke:#AFAFAF; stroke-width:0.0472; stroke-opacity:1; 
stroke-linecap:round; stroke-linejoin:round;">
<text x="16.6700" y="10.4033"
textLength="1.1077" font-size="0.7556" lengthAdjust="spacingAndGlyphs"
text-anchor="middle" opacity="0" stroke-opacity="0">22</text>
<g class="stroked-text"><desc>22</desc>
<path d="M16.2383 9.8670
L16.2652 9.8400
" />
<path d="M16.2652 9.8400
L16.3192 9.8130
" />
<path d="M16.3192 9.8130
L16.4541 9.8130
" />
<path d="M16.4541 9.8130
L16.5081 9.8400
" />
<path d="M16.5081 9.8400
L16.5351 9.8670
" />
<path d="M16.5351 9.8670
L16.5621 9.9210
" />
<path d="M16.5621 9.9210
L16.5621 9.9749
" />
<path d="M16.5621 9.9749
L16.5351 10.0559
" />
<path d="M16.5351 10.0559
L16.2113 10.3797
" />
<path d="M16.2113 10.3797
L16.5621 10.3797
" />
<path d="M16.7779 9.8670
L16.8049 9.8400
" />
<path d="M16.8049 9.8400
L16.8589 9.8130
" />
<path d="M16.8589 9.8130
L16.9938 9.8130
" />
<path d="M16.9938 9.8130
L17.0478 9.8400
" />
<path d="M17.0478 9.8400
L17.0748 9.8670
" />
<path d="M17.0748 9.8670
L17.1017 9.9210
" />
<path d="M17.1017 9.9210
L17.1017 9.9749
" />
<path d="M17.1017 9.9749
L17.0748 10.0559
" />
<path d="M17.0748 10.0559
L16.7510 10.3797
" />
<path d="M16.7510 10.3797
L17.1017 10.3797
" />
</g></g>
<g style="fill:none; 
stroke:#AFAFAF; stroke-width:0.0212; stroke-opacity:1; 
stroke-linecap:round; stroke-linejoin:round;">
<circle cx="16.6700" cy="10.1200" r="0.8500" /> 
</g>
<g style="fill:none; 
stroke:#AFAFAF; stroke-width:0.0472; stroke-opacity:1; 
stroke-linecap:round; stroke-linejoin:round;">
<text x="16.6700" y="7.8633"
textLength="1.1077" font-size="0.7556" lengthAdjust="spacingAndGlyphs"
text-anchor="middle" opacity="0" stroke-opacity="0">23</text>
<g class="stroked-text"><desc>23</desc>
<path d="M16.2383 7.3270
L16.2652 7.3000
" />
<path d="M16.2652 7.3000
L16.3192 7.2730
" />
<path d="M16.3192 7.2730
L16.4541 7.2730
" />
<path d="M16.4541 7.2730
L16.5081 7.3000
" />
<path d="M16.5081 7.3000
L16.5351 7.3270
" />
<path d="M16.5351 7.3270
L16.5621 7.3810
" />
<path d="M16.5621 7.3810
L16.5621 7.4349
" />
<path d="M16.5621 7.4349
L16.5351 7.5159
" />
<path d="M16.5351 7.5159
L16.2113 7.8397
" />
<path d="M16.2113 7.8397
L16.5621 7.8397
" />
<path d="M16.7510 7.2730
L17.1017 7.2730
" />
<path d="M17.1017 7.2730
L16.9129 7.4889
" />
<path d="M16.9129 7.4889
L16.9938 7.4889
" />
<path d="M16.9938 7.4889
L17.0478 7.5159
" />
<path d="M17.0478 7.5159
L17.0748 7.5429
" />
<path d="M17.0748 7.5429
L17.1017 7.5968
" />
<path d="M17.1017 7.5968
L17.1017 7.7318
" />
<path d="M17.1017 7.7318
L17.0748 7.7857
" />
<path d="M17.0748 7.7857
L17.0478 7.8127
" />
<path d="M17.0478 7.8127
L16.9938 7.8397
" />
<path d="M16.9938 7.8397
L16.8319 7.8397
" />
<path d="M16.8319 7.8397
L16.7779 7.8127
" />
<path d="M16.7779 7.8127
L16.7510 7.7857
" />
</g></g>
<g style="fill:none; 
stroke:#AFAFAF; stroke-width:0.0212; stroke-opacity:1; 
stroke-linecap:round; stroke-linejoin:round;">
<circle cx="16.6700" cy="7.5800" r="0.8500" /> 
</g>
<g style="fill:none; 
stroke:#AFAFAF; stroke-width:0.0472; stroke-opacity:1; 
stroke-linecap:round; stroke-linejoin:round;">
<text x="16.6700" y="5.3233"
textLength="1.1077" font-size="0.7556" lengthAdjust="spacingAndGlyphs"
text-anchor="middle" opacity="0" stroke-opacity="0">24</text>
<g class="stroked-text"><desc>24</desc>
<path d="M16.2383 4.7870
L16.2652 4.7600
" />
<path d="M16.2652 4.7600
L16.3192 4.7330
" />
<path d="M16.3192 4.7330
L16.4541 4.7330
" />
<path d="M16.4541 4.7330
L16.5081 4.7600
" />
<path d="M16.5081 4.7600
L16.5351 4.7870
" />
<path d="M16.5351 4.7870
L16.5621 4.8410
" />
<path d="M16.5621 4.8410
L16.5621 4.8949
" />
<path d="M16.5621 4.8949
L16.5351 4.9759
" />
<path d="M16.5351 4.9759
L16.2113 5.2997
" />
<path d="M16.2113 5.2997
L16.5621 5.2997
" />
<path d="M17.0478 4.9219
L17.0478 5.2997
" />
<path d="M16.9129 4.7060
L16.7779 5.1108
" />
<path d="M16.7779 5.1108
L17.1287 5.1108
" />
</g></g>
<g style="fill:none; 
stroke:#AFAFAF; stroke-width:0.0212; stroke-opacity:1; 
stroke-linecap:round; stroke-linejoin:round;">
<circle cx="16.6700" cy="5.0400" r="0.8500" /> 
</g>
<g style="fill:none; 
stroke:#AFAFAF; stroke-width:0.0472; stroke-opacity:1; 
stroke-linecap:round; stroke-linejoin:round;">
<text x="16.6700" y="2.7833"
textLength="1.1077" font-size="0.7556" lengthAdjust="spacingAndGlyphs"
text-anchor="middle" opacity="0" stroke-opacity="0">25</text>
<g class="stroked-text"><desc>25</desc>
<path d="M16.2383 2.2470
L16.2652 2.2200
" />
<path d="M16.2652 2.2200
L16.3192 2.1930
" />
<path d="M16.3192 2.1930
L16.4541 2.1930
" />
<path d="M16.4541 2.1930
L16.5081 2.2200
" />
<path d="M16.5081 2.2200
L16.5351 2.2470
" />
<path d="M16.5351 2.2470
L16.5621 2.3010
" />
<path d="M16.5621 2.3010
L16.5621 2.3549
" />
<path d="M16.5621 2.3549
L16.5351 2.4359
" />
<path d="M16.5351 2.4359
L16.2113 2.7597
" />
<path d="M16.2113 2.7597
L16.5621 2.7597
" />
<path d="M17.0748 2.1930
L16.8049 2.1930
" />
<path d="M16.8049 2.1930
L16.7779 2.4629
" />
<path d="M16.7779 2.4629
L16.8049 2.4359
" />
<path d="M16.8049 2.4359
L16.8589 2.4089
" />
<path d="M16.8589 2.4089
L16.9938 2.4089
" />
<path d="M16.9938 2.4089
L17.0478 2.4359
" />
<path d="M17.0478 2.4359
L17.0748 2.4629
" />
<path d="M17.0748 2.4629
L17.1017 2.5168
" />
<path d="M17.1017 2.5168
L17.1017 2.6518
" />
<path d="M17.1017 2.6518
L17.0748 2.7057
" />
<path d="M17.0748 2.7057
L17.0478 2.7327
" />
<path d="M17.0478 2.7327
L16.9938 2.7597
" />
<path d="M16.9938 2.7597
L16.8589 2.7597
" />
<path d="M16.8589 2.7597
L16.8049 2.7327
" />
<path d="M16.8049 2.7327
L16.7779 2.7057
" />
</g></g>
<g style="fill:none; 
stroke:#AFAFAF; stroke-width:0.0212; stroke-opacity:1; 
stroke-linecap:round; stroke-linejoin:round;">
<circle cx="16.6700" cy="2.5000" r="0.8500" /> 
</g> 
</svg>
