<svg xmlns="http://www.w3.org/2000/svg" width="90.336" height="72.288" viewBox="0 0 23.901 19.126">
    <g style="fill:none;stroke:#afafaf;stroke-width:.15;stroke-opacity:1;stroke-linecap:round;stroke-linejoin:round">
        <g class="stroked-text">
            <path d="M6.266 9.23v-1M6.266 8.23h.38M6.647 8.23l.095.047M6.742 8.277l.048.048M6.79 8.325l.047.095M6.837 8.42v.143M6.837 8.563l-.047.095M6.79 8.658l-.048.048M6.742 8.706l-.095.048M6.647 8.754h-.381M7.409 9.23l-.096-.048M7.313 9.182l-.047-.095M7.266 9.087V8.23M8.218 9.23v-.524M8.218 8.706l-.047-.095M8.17 8.61l-.095-.047M8.075 8.563h-.19M7.885 8.563l-.095.048M8.218 9.182l-.095.048M8.123 9.23h-.238M7.885 9.23l-.095-.048M7.79 9.182l-.048-.095M7.742 9.087v-.095M7.742 8.992l.048-.096M7.79 8.897l.095-.048M7.885 8.849h.238M8.123 8.849l.095-.048M8.552 8.563h.38M8.694 8.23v.857M8.694 9.087l.048.095M8.742 9.182l.095.048M8.837 9.23h.095M9.647 9.182l-.095.048M9.552 9.23H9.36M9.361 9.23l-.095-.048M9.266 9.182l-.048-.095M9.218 9.087v-.381M9.218 8.706l.048-.095M9.266 8.61l.095-.047M9.361 8.563h.19M9.552 8.563l.095.048M9.647 8.61l.047.096M9.694 8.706v.095M9.694 8.801l-.476.095M9.885 9.325h.762M10.885 9.23v-1M10.885 8.23l.333.714M11.218 8.944l.334-.714M11.552 8.23v1M11.932 8.23l.667 1M12.6 8.23l-.668 1M12.742 9.325h.762M14.266 9.23h-.572M13.98 9.23v-1M13.98 8.23l-.095.143M13.885 8.373l-.095.095M13.79 8.468l-.096.047M14.694 9.135l.048.047M14.742 9.182l-.048.048M14.694 9.23l-.047-.048M14.647 9.182l.047-.047M14.694 9.135v.095M15.123 8.325l.048-.048M15.17 8.277l.096-.047M15.266 8.23h.238M15.504 8.23l.095.047M15.6 8.277l.047.048M15.647 8.325l.047.095M15.694 8.42v.095M15.694 8.516l-.047.142M15.647 8.658l-.572.572M15.075 9.23h.62M16.6 8.23h-.477M16.123 8.23l-.048.476M16.075 8.706l.048-.048M16.123 8.658l.095-.047M16.218 8.61h.238M16.456 8.61l.096.048M16.552 8.658l.047.048M16.6 8.706l.047.095M16.647 8.801v.238M16.647 9.04l-.048.095M16.6 9.135l-.049.047M16.552 9.182l-.096.048M16.456 9.23h-.238M16.218 9.23l-.095-.048M16.123 9.182l-.048-.047M17.075 8.23v.81M17.075 9.04l.048.095M17.123 9.135l.047.047M17.17 9.182l.096.048M17.266 9.23h.19M17.456 9.23l.096-.048M17.552 9.182l.047-.047M17.6 9.135l.047-.096M17.647 9.04v-.81"/>
        </g>
        <g class="stroked-text">
            <path d="m10.623 10.83-.333-.476M10.052 10.83v-1M10.052 9.83h.38M10.432 9.83l.096.047M10.528 9.877l.047.048M10.575 9.925l.048.095M10.623 10.02v.143M10.623 10.163l-.048.095M10.575 10.258l-.047.048M10.528 10.306l-.096.048M10.432 10.354h-.38M11.052 10.306h.333M11.528 10.83h-.476M11.052 10.83v-1M11.052 9.83h.476M12.29 10.306h-.334M11.956 10.83v-1M11.956 9.83h.476M12.956 9.83v.238M12.718 9.973l.238.095M12.956 10.068l.238-.095M12.813 10.258l.143-.19M12.956 10.068l.143.19M13.718 9.83v.238M13.48 9.973l.238.095M13.718 10.068l.238-.095M13.575 10.258l.143-.19M13.718 10.068l.143.19"/>
        </g>
    </g>
    <g style="fill:none;stroke:#afafaf;stroke-width:.1;stroke-opacity:1;stroke-linecap:round;stroke-linejoin:round">
        <path d="M4.956 2.575v1.5M4.956 2.575h1.5M4.956 15.075v1.5M6.456 16.575h-1.5M17.456 2.575h1.5M18.956 4.075v-1.5M18.956 16.575h-1.5M18.956 16.575v-1.5"/>
    </g>
    <g style="fill:none;stroke:#d0d2cd;stroke-width:.05;stroke-opacity:1;stroke-linecap:round;stroke-linejoin:round">
        <path d="M4.971 16.16V2.99M5.371 2.59h13.17M18.541 16.56H5.371M18.941 2.99v13.17M5.371 2.59a.4.4 0 0 0-.4.4M4.971 16.16a.4.4 0 0 0 .4.4M18.941 2.99a.4.4 0 0 0-.4-.4M18.541 16.56a.4.4 0 0 0 .4-.4"/>
        <path d="M.05.05h23.813V19.1H.05Z" style="stroke:#c2c2c2;stroke-width:.1;stroke-opacity:1;stroke-linecap:round;stroke-linejoin:round;fill:none"/>
    </g>
</svg>
