<svg xmlns="http://www.w3.org/2000/svg" width="144.288" height="72.288" viewBox="0 0 38.176 19.126">
    <g style="fill:none;stroke:#4d7fc4;stroke-width:.5;stroke-opacity:1;stroke-linecap:round;stroke-linejoin:round">
        <path d="M11.85 16.075v-13M12.6 2.325h13M25.6 16.825h-13M26.35 3.075v13M12.6 2.325a.75.75 0 0 0-.75.75M11.85 16.075a.75.75 0 0 0 .75.75M26.35 3.075a.75.75 0 0 0-.75-.75M25.6 16.825a.75.75 0 0 0 .75-.75"/>
    </g>
    <g style="fill:none;stroke:#c83434;stroke-width:.5;stroke-opacity:1;stroke-linecap:round;stroke-linejoin:round">
        <path d="M11.85 16.075v-13M12.6 2.325h13M25.6 16.825h-13M26.35 3.075v13M12.6 2.325a.75.75 0 0 0-.75.75M11.85 16.075a.75.75 0 0 0 .75.75M26.35 3.075a.75.75 0 0 0-.75-.75M25.6 16.825a.75.75 0 0 0 .75-.75"/>
    </g>
    <g style="fill:none;stroke:#afafaf;stroke-width:.15;stroke-opacity:1;stroke-linecap:round;stroke-linejoin:round">
        <g class="stroked-text">
            <path d="M14.6 9.23v-1M14.6 8.23h.381M14.981 8.23l.095.047M15.076 8.277l.048.048M15.124 8.325l.047.095M15.171 8.42v.143M15.171 8.563l-.047.095M15.124 8.658l-.048.048M15.076 8.706l-.095.048M14.981 8.754H14.6M15.743 9.23l-.095-.048M15.648 9.182l-.048-.095M15.6 9.087V8.23M16.552 9.23v-.524M16.552 8.706l-.047-.095M16.505 8.61l-.095-.047M16.41 8.563h-.191M16.219 8.563l-.095.048M16.552 9.182l-.095.048M16.457 9.23h-.238M16.219 9.23l-.095-.048M16.124 9.182l-.048-.095M16.076 9.087v-.095M16.076 8.992l.048-.096M16.124 8.897l.095-.048M16.219 8.849h.238M16.457 8.849l.095-.048M16.886 8.563h.38M17.029 8.23v.857M17.029 9.087l.047.095M17.076 9.182l.095.048M17.171 9.23h.096M17.981 9.182l-.095.048M17.886 9.23h-.19M17.695 9.23l-.095-.048M17.6 9.182l-.048-.095M17.552 9.087v-.381M17.552 8.706l.048-.095M17.6 8.61l.095-.047M17.695 8.563h.19M17.886 8.563l.095.048M17.981 8.61l.048.096M18.029 8.706v.095M18.029 8.801l-.477.095M18.219 9.325h.762M19.219 9.23v-1M19.219 8.23l.333.714M19.552 8.944l.334-.714M19.886 8.23v1M20.267 8.23l.666 1M20.933 8.23l-.666 1M21.076 9.325h.762M22.029 8.325l.047-.048M22.076 8.277l.095-.047M22.171 8.23h.239M22.41 8.23l.095.047M22.505 8.277l.047.048M22.552 8.325l.048.095M22.6 8.42v.095M22.6 8.516l-.048.142M22.552 8.658l-.571.572M21.981 9.23h.619M23.029 8.23v.81M23.029 9.04l.047.095M23.076 9.135l.048.047M23.124 9.182l.095.048M23.219 9.23h.19M23.41 9.23l.095-.048M23.505 9.182l.047-.047M23.552 9.135l.048-.096M23.6 9.04v-.81"/>
        </g>
        <g class="stroked-text">
            <path d="m17.767 10.83-.334-.476M17.195 10.83v-1M17.195 9.83h.381M17.576 9.83l.095.047M17.671 9.877l.048.048M17.719 9.925l.048.095M17.767 10.02v.143M17.767 10.163l-.048.095M17.719 10.258l-.048.048M17.671 10.306l-.095.048M17.576 10.354h-.38M18.195 10.306h.334M18.671 10.83h-.476M18.195 10.83v-1M18.195 9.83h.476M19.433 10.306H19.1M19.1 10.83v-1M19.1 9.83h.476M20.1 9.83v.238M19.862 9.973l.238.095M20.1 10.068l.238-.095M19.957 10.258l.143-.19M20.1 10.068l.143.19M20.862 9.83v.238M20.624 9.973l.238.095M20.862 10.068l.238-.095M20.719 10.258l.143-.19M20.862 10.068l.143.19"/>
        </g>
    </g>
    <g style="fill:none;stroke:#d0d2cd;stroke-width:.05;stroke-opacity:1;stroke-linecap:round;stroke-linejoin:round">
        <path d="M3.819 4.075v13M4.319 3.575h5.75M4.319 17.575h5.75M10.569 4.075v13M12.1 16.075v-13M12.6 2.575h13M25.6 16.575h-13M26.1 3.075v13M27.631 4.075v13M28.131 3.575h5.749M28.131 17.575h5.75M34.38 4.075l.001 13M4.319 3.575a.5.5 0 0 0-.5.5M3.819 17.075a.5.5 0 0 0 .5.5M10.569 4.075a.5.5 0 0 0-.5-.5M10.069 17.575a.5.5 0 0 0 .5-.5M12.6 2.575a.5.5 0 0 0-.5.5M12.1 16.075a.5.5 0 0 0 .5.5M26.1 3.075a.5.5 0 0 0-.5-.5M25.6 16.575a.5.5 0 0 0 .5-.5M28.131 3.575a.5.5 0 0 0-.5.5M27.631 17.075a.5.5 0 0 0 .5.5M34.38 4.075a.5.5 0 0 0-.5-.5M33.881 17.575a.5.5 0 0 0 .5-.5"/>
        <path d="M.05.05h38.1V19.1H.05Z" style="stroke:#c2c2c2;stroke-width:.1;stroke-opacity:1;stroke-linecap:round;stroke-linejoin:round;fill:none"/>
    </g>
</svg>
