<?xml version="1.0" standalone="no"?>
 <!DOCTYPE svg PUBLIC "-//W3C//DTD SVG 1.1//EN" 
 "http://www.w3.org/Graphics/SVG/1.1/DTD/svg11.dtd"> 
<svg
  xmlns:svg="http://www.w3.org/2000/svg"
  xmlns="http://www.w3.org/2000/svg"
  xmlns:xlink="http://www.w3.org/1999/xlink"
  version="1.1"
  width="47.7012mm" height="19.1262mm" viewBox="0.0000 0.0000 47.7012 19.1262">
<title>SVG Image created as Plate_MX_2.5U.svg date 2025/05/12 22:52:38 </title>
  <desc>Image generated by PCBNEW </desc>
<g style="fill:#000000; fill-opacity:1.0000;stroke:#000000; stroke-opacity:1.0000;
stroke-linecap:round; stroke-linejoin:round;"
 transform="translate(0 0) scale(1 1)">
</g>
<g style="fill:none; 
stroke:#4D7FC4; stroke-width:0.5000; stroke-opacity:1; 
stroke-linecap:round; stroke-linejoin:round;">
<path d="M16.6125 16.0750
L16.6125 3.0750
" />
<path d="M17.3625 2.3250
L30.3625 2.3250
" />
<path d="M30.3625 16.8250
L17.3625 16.8250
" />
<path d="M31.1125 3.0750
L31.1125 16.0750
" />
<path d="M17.3625 2.3250 A0.7500 0.7500 0.0 0 0 16.6125 3.0750" />
<path d="M16.6125 16.0750 A0.7500 0.7500 0.0 0 0 17.3625 16.8250" />
<path d="M31.1125 3.0750 A0.7500 0.7500 0.0 0 0 30.3625 2.3250" />
<path d="M30.3625 16.8250 A0.7500 0.7500 0.0 0 0 31.1125 16.0750" />
</g>
<g style="fill:none; 
stroke:#C83434; stroke-width:0.5000; stroke-opacity:1; 
stroke-linecap:round; stroke-linejoin:round;">
<path d="M16.6125 16.0750
L16.6125 3.0750
" />
<path d="M17.3625 2.3250
L30.3625 2.3250
" />
<path d="M30.3625 16.8250
L17.3625 16.8250
" />
<path d="M31.1125 3.0750
L31.1125 16.0750
" />
<path d="M17.3625 2.3250 A0.7500 0.7500 0.0 0 0 16.6125 3.0750" />
<path d="M16.6125 16.0750 A0.7500 0.7500 0.0 0 0 17.3625 16.8250" />
<path d="M31.1125 3.0750 A0.7500 0.7500 0.0 0 0 30.3625 2.3250" />
<path d="M30.3625 16.8250 A0.7500 0.7500 0.0 0 0 31.1125 16.0750" />
</g>
<g style="fill:none; 
stroke:#AFAFAF; stroke-width:0.1500; stroke-opacity:1; 
stroke-linecap:round; stroke-linejoin:round;">
<text x="23.8625" y="9.2750"
textLength="11.1548" font-size="1.3333" lengthAdjust="spacingAndGlyphs"
text-anchor="middle" opacity="0" stroke-opacity="0">Plate_MX_2.5U</text>
<g class="stroked-text"><desc>Plate_MX_2.5U</desc>
<path d="M18.6482 9.2298
L18.6482 8.2298
" />
<path d="M18.6482 8.2298
L19.0292 8.2298
" />
<path d="M19.0292 8.2298
L19.1244 8.2774
" />
<path d="M19.1244 8.2774
L19.1720 8.3251
" />
<path d="M19.1720 8.3251
L19.2196 8.4203
" />
<path d="M19.2196 8.4203
L19.2196 8.5632
" />
<path d="M19.2196 8.5632
L19.1720 8.6584
" />
<path d="M19.1720 8.6584
L19.1244 8.7060
" />
<path d="M19.1244 8.7060
L19.0292 8.7536
" />
<path d="M19.0292 8.7536
L18.6482 8.7536
" />
<path d="M19.7911 9.2298
L19.6958 9.1822
" />
<path d="M19.6958 9.1822
L19.6482 9.0870
" />
<path d="M19.6482 9.0870
L19.6482 8.2298
" />
<path d="M20.6006 9.2298
L20.6006 8.7060
" />
<path d="M20.6006 8.7060
L20.5530 8.6108
" />
<path d="M20.5530 8.6108
L20.4577 8.5632
" />
<path d="M20.4577 8.5632
L20.2673 8.5632
" />
<path d="M20.2673 8.5632
L20.1720 8.6108
" />
<path d="M20.6006 9.1822
L20.5054 9.2298
" />
<path d="M20.5054 9.2298
L20.2673 9.2298
" />
<path d="M20.2673 9.2298
L20.1720 9.1822
" />
<path d="M20.1720 9.1822
L20.1244 9.0870
" />
<path d="M20.1244 9.0870
L20.1244 8.9917
" />
<path d="M20.1244 8.9917
L20.1720 8.8965
" />
<path d="M20.1720 8.8965
L20.2673 8.8489
" />
<path d="M20.2673 8.8489
L20.5054 8.8489
" />
<path d="M20.5054 8.8489
L20.6006 8.8012
" />
<path d="M20.9339 8.5632
L21.3149 8.5632
" />
<path d="M21.0768 8.2298
L21.0768 9.0870
" />
<path d="M21.0768 9.0870
L21.1244 9.1822
" />
<path d="M21.1244 9.1822
L21.2196 9.2298
" />
<path d="M21.2196 9.2298
L21.3149 9.2298
" />
<path d="M22.0292 9.1822
L21.9339 9.2298
" />
<path d="M21.9339 9.2298
L21.7435 9.2298
" />
<path d="M21.7435 9.2298
L21.6482 9.1822
" />
<path d="M21.6482 9.1822
L21.6006 9.0870
" />
<path d="M21.6006 9.0870
L21.6006 8.7060
" />
<path d="M21.6006 8.7060
L21.6482 8.6108
" />
<path d="M21.6482 8.6108
L21.7435 8.5632
" />
<path d="M21.7435 8.5632
L21.9339 8.5632
" />
<path d="M21.9339 8.5632
L22.0292 8.6108
" />
<path d="M22.0292 8.6108
L22.0768 8.7060
" />
<path d="M22.0768 8.7060
L22.0768 8.8012
" />
<path d="M22.0768 8.8012
L21.6006 8.8965
" />
<path d="M22.2673 9.3251
L23.0292 9.3251
" />
<path d="M23.2673 9.2298
L23.2673 8.2298
" />
<path d="M23.2673 8.2298
L23.6006 8.9441
" />
<path d="M23.6006 8.9441
L23.9339 8.2298
" />
<path d="M23.9339 8.2298
L23.9339 9.2298
" />
<path d="M24.3149 8.2298
L24.9815 9.2298
" />
<path d="M24.9815 8.2298
L24.3149 9.2298
" />
<path d="M25.1244 9.3251
L25.8863 9.3251
" />
<path d="M26.0768 8.3251
L26.1244 8.2774
" />
<path d="M26.1244 8.2774
L26.2196 8.2298
" />
<path d="M26.2196 8.2298
L26.4577 8.2298
" />
<path d="M26.4577 8.2298
L26.5530 8.2774
" />
<path d="M26.5530 8.2774
L26.6006 8.3251
" />
<path d="M26.6006 8.3251
L26.6482 8.4203
" />
<path d="M26.6482 8.4203
L26.6482 8.5155
" />
<path d="M26.6482 8.5155
L26.6006 8.6584
" />
<path d="M26.6006 8.6584
L26.0292 9.2298
" />
<path d="M26.0292 9.2298
L26.6482 9.2298
" />
<path d="M27.0768 9.1346
L27.1244 9.1822
" />
<path d="M27.1244 9.1822
L27.0768 9.2298
" />
<path d="M27.0768 9.2298
L27.0292 9.1822
" />
<path d="M27.0292 9.1822
L27.0768 9.1346
" />
<path d="M27.0768 9.1346
L27.0768 9.2298
" />
<path d="M28.0292 8.2298
L27.5530 8.2298
" />
<path d="M27.5530 8.2298
L27.5054 8.7060
" />
<path d="M27.5054 8.7060
L27.5530 8.6584
" />
<path d="M27.5530 8.6584
L27.6482 8.6108
" />
<path d="M27.6482 8.6108
L27.8863 8.6108
" />
<path d="M27.8863 8.6108
L27.9815 8.6584
" />
<path d="M27.9815 8.6584
L28.0292 8.7060
" />
<path d="M28.0292 8.7060
L28.0768 8.8012
" />
<path d="M28.0768 8.8012
L28.0768 9.0393
" />
<path d="M28.0768 9.0393
L28.0292 9.1346
" />
<path d="M28.0292 9.1346
L27.9815 9.1822
" />
<path d="M27.9815 9.1822
L27.8863 9.2298
" />
<path d="M27.8863 9.2298
L27.6482 9.2298
" />
<path d="M27.6482 9.2298
L27.5530 9.1822
" />
<path d="M27.5530 9.1822
L27.5054 9.1346
" />
<path d="M28.5054 8.2298
L28.5054 9.0393
" />
<path d="M28.5054 9.0393
L28.5530 9.1346
" />
<path d="M28.5530 9.1346
L28.6006 9.1822
" />
<path d="M28.6006 9.1822
L28.6958 9.2298
" />
<path d="M28.6958 9.2298
L28.8863 9.2298
" />
<path d="M28.8863 9.2298
L28.9815 9.1822
" />
<path d="M28.9815 9.1822
L29.0292 9.1346
" />
<path d="M29.0292 9.1346
L29.0768 9.0393
" />
<path d="M29.0768 9.0393
L29.0768 8.2298
" />
</g><text x="23.8625" y="10.8750"
textLength="4.5357" font-size="1.3333" lengthAdjust="spacingAndGlyphs"
text-anchor="middle" opacity="0" stroke-opacity="0">REF**</text>
<g class="stroked-text"><desc>REF**</desc>
<path d="M22.5292 10.8298
L22.1958 10.3536
" />
<path d="M21.9577 10.8298
L21.9577 9.8298
" />
<path d="M21.9577 9.8298
L22.3387 9.8298
" />
<path d="M22.3387 9.8298
L22.4339 9.8774
" />
<path d="M22.4339 9.8774
L22.4815 9.9251
" />
<path d="M22.4815 9.9251
L22.5292 10.0203
" />
<path d="M22.5292 10.0203
L22.5292 10.1632
" />
<path d="M22.5292 10.1632
L22.4815 10.2584
" />
<path d="M22.4815 10.2584
L22.4339 10.3060
" />
<path d="M22.4339 10.3060
L22.3387 10.3536
" />
<path d="M22.3387 10.3536
L21.9577 10.3536
" />
<path d="M22.9577 10.3060
L23.2911 10.3060
" />
<path d="M23.4339 10.8298
L22.9577 10.8298
" />
<path d="M22.9577 10.8298
L22.9577 9.8298
" />
<path d="M22.9577 9.8298
L23.4339 9.8298
" />
<path d="M24.1958 10.3060
L23.8625 10.3060
" />
<path d="M23.8625 10.8298
L23.8625 9.8298
" />
<path d="M23.8625 9.8298
L24.3387 9.8298
" />
<path d="M24.8625 9.8298
L24.8625 10.0679
" />
<path d="M24.6244 9.9727
L24.8625 10.0679
" />
<path d="M24.8625 10.0679
L25.1006 9.9727
" />
<path d="M24.7196 10.2584
L24.8625 10.0679
" />
<path d="M24.8625 10.0679
L25.0054 10.2584
" />
<path d="M25.6244 9.8298
L25.6244 10.0679
" />
<path d="M25.3863 9.9727
L25.6244 10.0679
" />
<path d="M25.6244 10.0679
L25.8625 9.9727
" />
<path d="M25.4815 10.2584
L25.6244 10.0679
" />
<path d="M25.6244 10.0679
L25.7673 10.2584
" />
</g></g>
<g style="fill:none; 
stroke:#D0D2CD; stroke-width:0.0500; stroke-opacity:1; 
stroke-linecap:round; stroke-linejoin:round;">
<path d="M8.5812 4.0750
L8.5812 17.0750
" />
<path d="M9.0812 3.5750
L14.8312 3.5750
" />
<path d="M9.0812 17.5750
L14.8312 17.5750
" />
<path d="M15.3312 4.0750
L15.3312 17.0750
" />
<path d="M16.8625 16.0750
L16.8625 3.0750
" />
<path d="M17.3625 2.5750
L30.3625 2.5750
" />
<path d="M30.3625 16.5750
L17.3625 16.5750
" />
<path d="M30.8625 3.0750
L30.8625 16.0750
" />
<path d="M32.3937 4.0750
L32.3937 17.0750
" />
<path d="M32.8937 3.5750
L38.6425 3.5750
" />
<path d="M32.8937 17.5750
L38.6437 17.5750
" />
<path d="M39.1425 4.0750
L39.1437 17.0750
" />
<path d="M9.0813 3.5750 A0.5000 0.5000 0.0 0 0 8.5813 4.0750" />
<path d="M8.5813 17.0750 A0.5000 0.5000 0.0 0 0 9.0813 17.5750" />
<path d="M15.3312 4.0750 A0.5000 0.5000 0.0 0 0 14.8312 3.5750" />
<path d="M14.8313 17.5750 A0.5000 0.5000 0.0 0 0 15.3312 17.0750" />
<path d="M17.3625 2.5750 A0.5000 0.5000 0.0 0 0 16.8625 3.0750" />
<path d="M16.8625 16.0750 A0.5000 0.5000 0.0 0 0 17.3625 16.5750" />
<path d="M30.8625 3.0750 A0.5000 0.5000 0.0 0 0 30.3625 2.5750" />
<path d="M30.3625 16.5750 A0.5000 0.5000 0.0 0 0 30.8625 16.0750" />
<path d="M32.8937 3.5750 A0.5000 0.5000 0.0 0 0 32.3937 4.0750" />
<path d="M32.3937 17.0750 A0.5001 0.5001 0.0 0 0 32.8937 17.5750" />
<path d="M39.1426 4.0750 A0.5001 0.5001 0.0 0 0 38.6425 3.5750" />
<path d="M38.6438 17.5749 A0.4999 0.4999 0.0 0 0 39.1437 17.0750" />
<path style="fill:none; 
stroke:#C2C2C2; stroke-width:0.1000; stroke-opacity:1; 
stroke-linecap:round; stroke-linejoin:round;fill:none"
d="M 0.0500,0.0500
47.6750,0.0500
47.6750,19.1000
0.0500,19.1000
Z" /> 
</g> 
</svg>
