<svg xmlns="http://www.w3.org/2000/svg" width="162.336" height="72.288" viewBox="0 0 42.951 19.126">
    <g style="fill:none;stroke:#afafaf;stroke-width:.15;stroke-opacity:1;stroke-linecap:round;stroke-linejoin:round">
        <g class="stroked-text">
            <path d="M15.79 9.23v-1M15.79 8.23h.382M16.172 8.23l.095.047M16.267 8.277l.048.048M16.315 8.325l.047.095M16.362 8.42v.143M16.362 8.563l-.047.095M16.315 8.658l-.048.048M16.267 8.706l-.095.048M16.172 8.754h-.381M16.934 9.23l-.096-.048M16.838 9.182l-.047-.095M16.79 9.087V8.23M17.743 9.23v-.524M17.743 8.706l-.047-.095M17.696 8.61l-.096-.047M17.6 8.563h-.19M17.41 8.563l-.095.048M17.743 9.182l-.095.048M17.648 9.23h-.238M17.41 9.23l-.095-.048M17.315 9.182l-.048-.095M17.267 9.087v-.095M17.267 8.992l.048-.096M17.315 8.897l.095-.048M17.41 8.849h.238M17.648 8.849l.095-.048M18.077 8.563h.38M18.22 8.23v.857M18.22 9.087l.047.095M18.267 9.182l.095.048M18.362 9.23h.095M19.172 9.182l-.096.048M19.077 9.23h-.191M18.886 9.23l-.095-.048M18.79 9.182l-.047-.095M18.743 9.087v-.381M18.743 8.706l.048-.095M18.79 8.61l.096-.047M18.886 8.563h.19M19.077 8.563l.095.048M19.172 8.61l.047.096M19.22 8.706v.095M19.22 8.801l-.477.095M19.41 9.325h.762M20.41 9.23v-1M20.41 8.23l.333.714M20.743 8.944l.334-.714M21.077 8.23v1M21.457 8.23l.667 1M22.124 8.23l-.667 1M22.267 9.325h.762M23.22 8.325l.047-.048M23.267 8.277l.095-.047M23.362 8.23h.238M23.6 8.23l.095.047M23.696 8.277l.047.048M23.743 8.325l.048.095M23.79 8.42v.095M23.79 8.516l-.047.142M23.743 8.658l-.571.572M23.172 9.23h.619M24.22 9.135l.047.047M24.267 9.182l-.048.048M24.22 9.23l-.048-.048M24.172 9.182l.047-.047M24.22 9.135v.095M24.648 8.325l.047-.048M24.696 8.277l.095-.047M24.79 8.23h.239M25.029 8.23l.095.047M25.124 8.277l.048.048M25.172 8.325l.047.095M25.22 8.42v.095M25.22 8.516l-.048.142M25.172 8.658l-.572.572M24.6 9.23h.62M26.124 8.23h-.476M25.648 8.23l-.048.476M25.6 8.706l.048-.048M25.648 8.658l.095-.047M25.743 8.61h.238M25.981 8.61l.095.048M26.077 8.658l.047.048M26.124 8.706l.048.095M26.172 8.801v.238M26.172 9.04l-.048.095M26.124 9.135l-.047.047M26.077 9.182l-.096.048M25.981 9.23h-.238M25.743 9.23l-.095-.048M25.648 9.182l-.048-.047M26.6 8.23v.81M26.6 9.04l.048.095M26.648 9.135l.047.047M26.696 9.182l.095.048M26.79 9.23h.191M26.981 9.23l.095-.048M27.077 9.182l.047-.047M27.124 9.135l.048-.096M27.172 9.04v-.81"/>
        </g>
        <g class="stroked-text">
            <path d="m20.148 10.83-.333-.476M19.577 10.83v-1M19.577 9.83h.38M19.957 9.83l.096.047M20.053 9.877l.047.048M20.1 9.925l.048.095M20.148 10.02v.143M20.148 10.163l-.048.095M20.1 10.258l-.047.048M20.053 10.306l-.096.048M19.957 10.354h-.38M20.577 10.306h.333M21.053 10.83h-.477M20.577 10.83v-1M20.577 9.83h.476M21.815 10.306h-.334M21.481 10.83v-1M21.481 9.83h.476M22.481 9.83v.238M22.243 9.973l.238.095M22.481 10.068l.238-.095M22.338 10.258l.143-.19M22.481 10.068l.143.19M23.243 9.83v.238M23.005 9.973l.238.095M23.243 10.068l.238-.095M23.1 10.258l.143-.19M23.243 10.068l.143.19"/>
        </g>
    </g>
    <g style="fill:none;stroke:#afafaf;stroke-width:.1;stroke-opacity:1;stroke-linecap:round;stroke-linejoin:round">
        <path d="M14.481 2.575v1.5M14.481 2.575h1.5M14.481 15.075v1.5M15.981 16.575h-1.5M26.981 2.575h1.5M28.481 4.075v-1.5M28.481 16.575h-1.5M28.481 16.575v-1.5"/>
        <path d="M6.043 3.575h7v15h-7ZM29.92 3.575h7v15h-7Z" style="stroke:#afafaf;stroke-width:.1;stroke-opacity:1;stroke-linecap:round;stroke-linejoin:round;fill:none"/>
    </g>
    <g style="fill:none;stroke:#d0d2cd;stroke-width:.05;stroke-opacity:1;stroke-linecap:round;stroke-linejoin:round">
        <path d="M6.043 18.175v-14.2M6.443 3.575h6.2M12.643 18.575h-6.2M13.043 3.975v14.2M14.496 16.16V2.99M14.896 2.59h13.17M28.066 16.56h-13.17M28.466 2.99v13.17M29.92 18.175v-14.2M30.32 3.575h6.2M36.52 18.575h-6.2M36.92 3.975v14.2M6.443 3.575a.4.4 0 0 0-.4.4M6.043 18.175a.4.4 0 0 0 .4.4M13.043 3.975a.4.4 0 0 0-.4-.4M12.643 18.575a.4.4 0 0 0 .4-.4M14.896 2.59a.4.4 0 0 0-.4.4M14.496 16.16a.4.4 0 0 0 .4.4M28.466 2.99a.4.4 0 0 0-.4-.4M28.066 16.56a.4.4 0 0 0 .4-.4M30.32 3.575a.4.4 0 0 0-.4.4M29.92 18.175a.4.4 0 0 0 .4.4M36.92 3.975a.4.4 0 0 0-.4-.4M36.52 18.575a.4.4 0 0 0 .4-.4"/>
        <path d="M.05.05h42.863V19.1H.05Z" style="stroke:#c2c2c2;stroke-width:.1;stroke-opacity:1;stroke-linecap:round;stroke-linejoin:round;fill:none"/>
    </g>
</svg>
