<svg xmlns="http://www.w3.org/2000/svg" width="180.288" height="72.288" viewBox="0 0 47.701 19.126">
    <g style="fill:none;stroke:#4d7fc4;stroke-width:.5;stroke-opacity:1;stroke-linecap:round;stroke-linejoin:round">
        <path d="M16.613 16.075v-13M17.363 2.325h13M30.363 16.825h-13M31.113 3.075v13M17.363 2.325a.75.75 0 0 0-.75.75M16.613 16.075a.75.75 0 0 0 .75.75M31.113 3.075a.75.75 0 0 0-.75-.75M30.363 16.825a.75.75 0 0 0 .75-.75"/>
    </g>
    <g style="fill:none;stroke:#c83434;stroke-width:.5;stroke-opacity:1;stroke-linecap:round;stroke-linejoin:round">
        <path d="M16.613 16.075v-13M17.363 2.325h13M30.363 16.825h-13M31.113 3.075v13M17.363 2.325a.75.75 0 0 0-.75.75M16.613 16.075a.75.75 0 0 0 .75.75M31.113 3.075a.75.75 0 0 0-.75-.75M30.363 16.825a.75.75 0 0 0 .75-.75"/>
    </g>
    <g style="fill:none;stroke:#afafaf;stroke-width:.15;stroke-opacity:1;stroke-linecap:round;stroke-linejoin:round">
        <g class="stroked-text">
            <path d="M18.648 9.23v-1M18.648 8.23h.381M19.03 8.23l.094.047M19.124 8.277l.048.048M19.172 8.325l.048.095M19.22 8.42v.143M19.22 8.563l-.048.095M19.172 8.658l-.048.048M19.124 8.706l-.095.048M19.03 8.754h-.382M19.791 9.23l-.095-.048M19.696 9.182l-.048-.095M19.648 9.087V8.23M20.6 9.23v-.524M20.6 8.706l-.047-.095M20.553 8.61l-.095-.047M20.458 8.563h-.19M20.267 8.563l-.095.048M20.6 9.182l-.095.048M20.505 9.23h-.238M20.267 9.23l-.095-.048M20.172 9.182l-.048-.095M20.124 9.087v-.095M20.124 8.992l.048-.096M20.172 8.897l.095-.048M20.267 8.849h.238M20.505 8.849l.096-.048M20.934 8.563h.38M21.077 8.23v.857M21.077 9.087l.047.095M21.124 9.182l.096.048M21.22 9.23h.095M22.03 9.182l-.096.048M21.934 9.23h-.19M21.744 9.23l-.096-.048M21.648 9.182l-.047-.095M21.6 9.087v-.381M21.6 8.706l.048-.095M21.648 8.61l.096-.047M21.744 8.563h.19M21.934 8.563l.095.048M22.03 8.61l.047.096M22.077 8.706v.095M22.077 8.801l-.476.095M22.267 9.325h.762M23.267 9.23v-1M23.267 8.23l.334.714M23.6 8.944l.334-.714M23.934 8.23v1M24.315 8.23l.666 1M24.982 8.23l-.667 1M25.124 9.325h.762M26.077 8.325l.047-.048M26.124 8.277l.096-.047M26.22 8.23h.238M26.458 8.23l.095.047M26.553 8.277l.048.048M26.6 8.325l.048.095M26.648 8.42v.095M26.648 8.516l-.047.142M26.6 8.658l-.57.572M26.03 9.23h.618M27.077 9.135l.047.047M27.124 9.182l-.047.048M27.077 9.23l-.048-.048M27.03 9.182l.047-.047M27.077 9.135v.095M28.03 8.23h-.477M27.553 8.23l-.048.476M27.505 8.706l.048-.048M27.553 8.658l.095-.047M27.648 8.61h.238M27.886 8.61l.096.048M27.982 8.658l.047.048M28.03 8.706l.047.095M28.077 8.801v.238M28.077 9.04l-.048.095M28.03 9.135l-.049.047M27.982 9.182l-.096.048M27.886 9.23h-.238M27.648 9.23l-.095-.048M27.553 9.182l-.048-.047M28.505 8.23v.81M28.505 9.04l.048.095M28.553 9.135l.048.047M28.6 9.182l.096.048M28.696 9.23h.19M28.886 9.23l.096-.048M28.982 9.182l.047-.047M29.03 9.135l.047-.096M29.077 9.04v-.81"/>
        </g>
        <g class="stroked-text">
            <path d="m22.53 10.83-.334-.476M21.958 10.83v-1M21.958 9.83h.38M22.339 9.83l.095.047M22.434 9.877l.047.048M22.482 9.925l.047.095M22.53 10.02v.143M22.53 10.163l-.049.095M22.482 10.258l-.048.048M22.434 10.306l-.095.048M22.339 10.354h-.381M22.958 10.306h.333M23.434 10.83h-.476M22.958 10.83v-1M22.958 9.83h.476M24.196 10.306h-.334M23.863 10.83v-1M23.863 9.83h.476M24.863 9.83v.238M24.624 9.973l.239.095M24.863 10.068l.238-.095M24.72 10.258l.143-.19M24.863 10.068l.142.19M25.624 9.83v.238M25.386 9.973l.238.095M25.624 10.068l.239-.095M25.482 10.258l.142-.19M25.624 10.068l.143.19"/>
        </g>
    </g>
    <g style="fill:none;stroke:#d0d2cd;stroke-width:.05;stroke-opacity:1;stroke-linecap:round;stroke-linejoin:round">
        <path d="M8.581 4.075v13M9.081 3.575h5.75M9.081 17.575h5.75M15.331 4.075v13M16.863 16.075v-13M17.363 2.575h13M30.363 16.575h-13M30.863 3.075v13M32.394 4.075v13M32.894 3.575h5.749M32.894 17.575h5.75M39.143 4.075v13M9.081 3.575a.5.5 0 0 0-.5.5M8.581 17.075a.5.5 0 0 0 .5.5M15.331 4.075a.5.5 0 0 0-.5-.5M14.831 17.575a.5.5 0 0 0 .5-.5M17.363 2.575a.5.5 0 0 0-.5.5M16.863 16.075a.5.5 0 0 0 .5.5M30.863 3.075a.5.5 0 0 0-.5-.5M30.363 16.575a.5.5 0 0 0 .5-.5M32.894 3.575a.5.5 0 0 0-.5.5M32.394 17.075a.5.5 0 0 0 .5.5M39.143 4.075a.5.5 0 0 0-.5-.5M38.644 17.575a.5.5 0 0 0 .5-.5"/>
        <path d="M.05.05h47.625V19.1H.05Z" style="stroke:#c2c2c2;stroke-width:.1;stroke-opacity:1;stroke-linecap:round;stroke-linejoin:round;fill:none"/>
    </g>
</svg>
