<svg xmlns="http://www.w3.org/2000/svg" width="216.288" height="72.288" viewBox="0 0 57.226 19.126">
    <g style="fill:none;stroke:#afafaf;stroke-width:.15;stroke-opacity:1;stroke-linecap:round;stroke-linejoin:round">
        <g class="stroked-text">
            <path d="M24.125 9.23v-1M24.125 8.23h.381M24.506 8.23l.095.047M24.601 8.277l.048.048M24.649 8.325l.047.095M24.696 8.42v.143M24.696 8.563l-.047.095M24.649 8.658l-.048.048M24.601 8.706l-.095.048M24.506 8.754h-.381M25.268 9.23l-.095-.048M25.173 9.182l-.048-.095M25.125 9.087V8.23M26.077 9.23v-.524M26.077 8.706l-.047-.095M26.03 8.61l-.096-.047M25.935 8.563h-.191M25.744 8.563l-.095.048M26.077 9.182l-.095.048M25.982 9.23h-.238M25.744 9.23l-.095-.048M25.649 9.182l-.048-.095M25.601 9.087v-.095M25.601 8.992l.048-.096M25.649 8.897l.095-.048M25.744 8.849h.238M25.982 8.849l.095-.048M26.41 8.563h.382M26.554 8.23v.857M26.554 9.087l.047.095M26.601 9.182l.095.048M26.696 9.23h.096M27.506 9.182l-.095.048M27.41 9.23h-.19M27.22 9.23l-.095-.048M27.125 9.182l-.048-.095M27.077 9.087v-.381M27.077 8.706l.048-.095M27.125 8.61l.095-.047M27.22 8.563h.19M27.41 8.563l.096.048M27.506 8.61l.048.096M27.554 8.706v.095M27.554 8.801l-.477.095M27.744 9.325h.762M28.744 9.23v-1M28.744 8.23l.333.714M29.077 8.944l.334-.714M29.41 8.23v1M29.792 8.23l.666 1M30.458 8.23l-.666 1M30.601 9.325h.762M31.506 8.23h.619M32.125 8.23l-.333.38M31.792 8.61h.142M31.935 8.61l.095.048M32.03 8.658l.047.048M32.077 8.706l.048.095M32.125 8.801v.238M32.125 9.04l-.048.095M32.077 9.135l-.047.047M32.03 9.182l-.096.048M31.935 9.23h-.286M31.649 9.23l-.095-.048M31.554 9.182l-.048-.047M32.554 8.23v.81M32.554 9.04l.047.095M32.601 9.135l.048.047M32.649 9.182l.095.048M32.744 9.23h.19M32.935 9.23l.095-.048M33.03 9.182l.047-.047M33.077 9.135l.048-.096M33.125 9.04v-.81"/>
        </g>
        <g class="stroked-text">
            <path d="m27.292 10.83-.334-.476M26.72 10.83v-1M26.72 9.83h.381M27.101 9.83l.095.047M27.196 9.877l.048.048M27.244 9.925l.048.095M27.292 10.02v.143M27.292 10.163l-.048.095M27.244 10.258l-.048.048M27.196 10.306l-.095.048M27.101 10.354h-.38M27.72 10.306h.334M28.196 10.83h-.476M27.72 10.83v-1M27.72 9.83h.476M28.958 10.306h-.333M28.625 10.83v-1M28.625 9.83h.476M29.625 9.83v.238M29.387 9.973l.238.095M29.625 10.068l.238-.095M29.482 10.258l.143-.19M29.625 10.068l.143.19M30.387 9.83v.238M30.149 9.973l.238.095M30.387 10.068l.238-.095M30.244 10.258l.143-.19M30.387 10.068l.143.19"/>
        </g>
    </g>
    <g style="fill:none;stroke:#afafaf;stroke-width:.1;stroke-opacity:1;stroke-linecap:round;stroke-linejoin:round">
        <path d="M21.625 2.575v1.5M21.625 2.575h1.5M21.625 15.075v1.5M23.125 16.575h-1.5M34.125 2.575h1.5M35.625 4.075v-1.5M35.625 16.575h-1.5M35.625 16.575v-1.5"/>
        <path d="M6.125 3.575h7v15h-7ZM44.125 3.575h7v15h-7Z" style="stroke:#afafaf;stroke-width:.1;stroke-opacity:1;stroke-linecap:round;stroke-linejoin:round;fill:none"/>
    </g>
    <g style="fill:none;stroke:#d0d2cd;stroke-width:.05;stroke-opacity:1;stroke-linecap:round;stroke-linejoin:round">
        <path d="M6.125 18.175v-14.2M6.525 3.575h6.2M12.725 18.575h-6.2M13.125 3.975v14.2M21.64 16.16V2.99M22.04 2.59h13.17M35.21 16.56H22.04M35.61 2.99v13.17M44.125 18.175v-14.2M44.525 3.575h6.2M50.725 18.575h-6.2M51.125 3.975v14.2M6.525 3.575a.4.4 0 0 0-.4.4M6.125 18.175a.4.4 0 0 0 .4.4M13.125 3.975a.4.4 0 0 0-.4-.4M12.725 18.575a.4.4 0 0 0 .4-.4M22.04 2.59a.4.4 0 0 0-.4.4M21.64 16.16a.4.4 0 0 0 .4.4M35.61 2.99a.4.4 0 0 0-.4-.4M35.21 16.56a.4.4 0 0 0 .4-.4M44.525 3.575a.4.4 0 0 0-.4.4M44.125 18.175a.4.4 0 0 0 .4.4M51.125 3.975a.4.4 0 0 0-.4-.4M50.725 18.575a.4.4 0 0 0 .4-.4"/>
        <path d="M.05.05H57.2V19.1H.05Z" style="stroke:#c2c2c2;stroke-width:.1;stroke-opacity:1;stroke-linecap:round;stroke-linejoin:round;fill:none"/>
    </g>
</svg>
