<svg xmlns="http://www.w3.org/2000/svg" width="288.288" height="72.288" viewBox="0 0 76.276 19.126">
    <g style="fill:none;stroke:#afafaf;stroke-width:.15;stroke-opacity:1;stroke-linecap:round;stroke-linejoin:round">
        <g class="stroked-text">
            <path d="M28.174 9.23v-1M28.174 8.23h.38M28.555 8.23l.095.047M28.65 8.277l.048.048M28.698 8.325l.047.095M28.745 8.42v.143M28.745 8.563l-.047.095M28.698 8.658l-.048.048M28.65 8.706l-.095.048M28.555 8.754h-.381M29.317 9.23l-.096-.048M29.221 9.182l-.047-.095M29.174 9.087V8.23M30.126 9.23v-.524M30.126 8.706l-.047-.095M30.079 8.61l-.096-.047M29.983 8.563h-.19M29.793 8.563l-.095.048M30.126 9.182l-.095.048M30.031 9.23h-.238M29.793 9.23l-.095-.048M29.698 9.182l-.048-.095M29.65 9.087v-.095M29.65 8.992l.048-.096M29.698 8.897l.095-.048M29.793 8.849h.238M30.031 8.849l.095-.048M30.46 8.563h.38M30.602 8.23v.857M30.602 9.087l.048.095M30.65 9.182l.095.048M30.745 9.23h.095M31.555 9.182l-.096.048M31.46 9.23h-.191M31.269 9.23l-.095-.048M31.174 9.182l-.048-.095M31.126 9.087v-.381M31.126 8.706l.048-.095M31.174 8.61l.095-.047M31.269 8.563h.19M31.46 8.563l.095.048M31.555 8.61l.047.096M31.602 8.706v.095M31.602 8.801l-.476.095M31.793 9.325h.762M32.793 9.23v-1M32.793 8.23l.333.714M33.126 8.944l.334-.714M33.46 8.23v1M33.84 8.23l.667 1M34.507 8.23l-.666 1M34.65 9.325h.762M36.079 8.563v.667M35.84 8.182l-.238.714M35.602 8.897h.62M36.507 9.23l.524-.667M36.507 8.563l.524.667M37.936 9.23h-.572M37.65 9.23v-1M37.65 8.23l-.095.143M37.555 8.373l-.096.095M37.46 8.468l-.096.047M38.364 8.23v.81M38.364 9.04l.048.095M38.412 9.135l.047.047M38.46 9.182l.095.048M38.555 9.23h.19M38.745 9.23l.096-.048M38.84 9.182l.048-.047M38.888 9.135l.048-.096M38.936 9.04v-.81M39.174 9.325h.762M40.126 8.325l.048-.048M40.174 8.277l.095-.047M40.269 8.23h.238M40.507 8.23l.095.047M40.602 8.277l.048.048M40.65 8.325l.048.095M40.698 8.42v.095M40.698 8.516l-.048.142M40.65 8.658l-.571.572M40.079 9.23h.619M41.031 9.23l.524-.667M41.031 8.563l.524.667M42.46 9.23h-.572M42.174 9.23v-1M42.174 8.23l-.095.143M42.079 8.373l-.096.095M41.983 8.468l-.095.047M42.888 9.135l.048.047M42.936 9.182l-.048.048M42.888 9.23l-.047-.048M42.84 9.182l.048-.047M42.888 9.135v.095M43.84 8.23h-.476M43.364 8.23l-.047.476M43.317 8.706l.047-.048M43.364 8.658l.096-.047M43.46 8.61h.238M43.698 8.61l.095.048M43.793 8.658l.047.048M43.84 8.706l.048.095M43.888 8.801v.238M43.888 9.04l-.047.095M43.84 9.135l-.047.047M43.793 9.182l-.095.048M43.698 9.23h-.239M43.46 9.23l-.096-.048M43.364 9.182l-.047-.047M44.317 8.23v.81M44.317 9.04l.047.095M44.364 9.135l.048.047M44.412 9.182l.095.048M44.507 9.23h.19M44.698 9.23l.095-.048M44.793 9.182l.047-.047M44.84 9.135l.048-.096M44.888 9.04v-.81M45.364 8.849h.762M45.745 9.23v-.762M47.126 9.23h-.571M46.84 9.23v-1M46.84 8.23l-.095.143M46.745 8.373l-.095.095M46.65 8.468l-.095.047M47.555 8.23v.81M47.555 9.04l.047.095M47.602 9.135l.048.047M47.65 9.182l.095.048M47.745 9.23h.19M47.936 9.23l.095-.048M48.031 9.182l.048-.047M48.079 9.135l.047-.096M48.126 9.04v-.81"/>
        </g>
        <g class="stroked-text">
            <path d="m36.817 10.83-.334-.476M36.245 10.83v-1M36.245 9.83h.381M36.626 9.83l.095.047M36.721 9.877l.048.048M36.769 9.925l.048.095M36.817 10.02v.143M36.817 10.163l-.048.095M36.769 10.258l-.048.048M36.721 10.306l-.095.048M36.626 10.354h-.38M37.245 10.306h.334M37.721 10.83h-.476M37.245 10.83v-1M37.245 9.83h.476M38.483 10.306h-.333M38.15 10.83v-1M38.15 9.83h.476M39.15 9.83v.238M38.912 9.973l.238.095M39.15 10.068l.238-.095M39.007 10.258l.143-.19M39.15 10.068l.143.19M39.912 9.83v.238M39.674 9.973l.238.095M39.912 10.068l.238-.095M39.769 10.258l.143-.19M39.912 10.068l.143.19"/>
        </g>
    </g>
    <g style="fill:none;stroke:#afafaf;stroke-width:.1;stroke-opacity:1;stroke-linecap:round;stroke-linejoin:round">
        <path d="M2.575 2.575v1.5M2.575 2.575h1.5M2.575 15.075v1.5M4.075 16.575h-1.5M9.338 4.575v1.5M9.338 4.575h1.5M9.338 13.075v1.5M10.838 14.575h-1.5M15.075 2.575h1.5M16.575 4.075v-1.5M16.575 16.575h-1.5M16.575 16.575v-1.5M17.838 4.575h1.5M19.338 6.075v-1.5M19.338 14.575h-1.5M19.338 14.575v-1.5M21.625 2.575v1.5M21.625 2.575h1.5M21.625 15.075v1.5M23.125 16.575h-1.5M33.15 4.575v1.5M33.15 4.575h1.5M33.15 13.075v1.5M34.125 2.575h1.5M34.65 14.575h-1.5M35.625 4.075v-1.5M35.625 16.575h-1.5M35.625 16.575v-1.5M40.675 2.575v1.5M40.675 2.575h1.5M40.675 15.075v1.5M41.65 4.575h1.5M42.175 16.575h-1.5M43.15 6.075v-1.5M43.15 14.575h-1.5M43.15 14.575v-1.5M53.175 2.575h1.5M54.675 4.075v-1.5M54.675 16.575h-1.5M54.675 16.575v-1.5M56.963 4.575v1.5M56.963 4.575h1.5M56.963 13.075v1.5M58.463 14.575h-1.5M59.725 2.575v1.5M59.725 2.575h1.5M59.725 15.075v1.5M61.225 16.575h-1.5M65.463 4.575h1.5M66.963 6.075v-1.5M66.963 14.575h-1.5M66.963 14.575v-1.5M72.225 2.575h1.5M73.725 4.075v-1.5M73.725 16.575h-1.5M73.725 16.575v-1.5"/>
    </g>
    <g style="fill:none;stroke:#d0d2cd;stroke-width:.05;stroke-opacity:1;stroke-linecap:round;stroke-linejoin:round">
        <path d="M2.59 16.16V2.99M2.99 2.59h70.32M73.31 16.56H2.99M73.71 2.99v13.17M2.99 2.59a.4.4 0 0 0-.4.4M2.59 16.16a.4.4 0 0 0 .4.4M73.71 2.99a.4.4 0 0 0-.4-.4M73.31 16.56a.4.4 0 0 0 .4-.4"/>
        <path d="M.05.05H19.1V19.1H.05Z" style="stroke:#c2c2c2;stroke-width:.1;stroke-opacity:1;stroke-linecap:round;stroke-linejoin:round;fill:none"/>
        <path d="M.05.05h28.575V19.1H.05Z" style="stroke:#c2c2c2;stroke-width:.1;stroke-opacity:1;stroke-linecap:round;stroke-linejoin:round;fill:none"/>
        <path d="M19.1.05h19.05V19.1H19.1Z" style="stroke:#c2c2c2;stroke-width:.1;stroke-opacity:1;stroke-linecap:round;stroke-linejoin:round;fill:none"/>
        <path d="M38.15.05H57.2V19.1H38.15Z" style="stroke:#c2c2c2;stroke-width:.1;stroke-opacity:1;stroke-linecap:round;stroke-linejoin:round;fill:none"/>
        <path d="M47.675.05H76.25V19.1H47.675Z" style="stroke:#c2c2c2;stroke-width:.1;stroke-opacity:1;stroke-linecap:round;stroke-linejoin:round;fill:none"/>
        <path d="M57.2.05h19.05V19.1H57.2Z" style="stroke:#c2c2c2;stroke-width:.1;stroke-opacity:1;stroke-linecap:round;stroke-linejoin:round;fill:none"/>
    </g>
</svg>
