<svg xmlns="http://www.w3.org/2000/svg" width="108.288" height="72.288" viewBox="0 0 28.651 19.126">
    <g style="fill:none;stroke:#afafaf;stroke-width:.15;stroke-opacity:1;stroke-linecap:round;stroke-linejoin:round">
        <g class="stroked-text">
            <path d="M9.123 9.23v-1M9.123 8.23h.381M9.504 8.23l.095.047M9.6 8.277l.047.048M9.647 8.325l.048.095M9.695 8.42v.143M9.695 8.563l-.048.095M9.647 8.658l-.048.048M9.6 8.706l-.096.048M9.504 8.754h-.38M10.266 9.23l-.095-.048M10.17 9.182l-.047-.095M10.123 9.087V8.23M11.076 9.23v-.524M11.076 8.706l-.048-.095M11.028 8.61l-.095-.047M10.933 8.563h-.19M10.742 8.563l-.095.048M11.076 9.182l-.096.048M10.98 9.23h-.238M10.742 9.23l-.095-.048M10.647 9.182l-.048-.095M10.6 9.087v-.095M10.6 8.992l.047-.096M10.647 8.897l.095-.048M10.742 8.849h.238M10.98 8.849l.096-.048M11.409 8.563h.38M11.552 8.23v.857M11.552 9.087l.047.095M11.6 9.182l.095.048M11.695 9.23h.095M12.504 9.182l-.095.048M12.409 9.23h-.19M12.219 9.23l-.096-.048M12.123 9.182l-.047-.095M12.076 9.087v-.381M12.076 8.706l.047-.095M12.123 8.61l.096-.047M12.219 8.563h.19M12.409 8.563l.095.048M12.504 8.61l.048.096M12.552 8.706v.095M12.552 8.801l-.476.095M12.742 9.325h.762M13.742 9.23v-1M13.742 8.23l.334.714M14.076 8.944l.333-.714M14.409 8.23v1M14.79 8.23l.667 1M15.457 8.23l-.667 1M15.6 9.325h.761M17.123 9.23h-.571M16.838 9.23v-1M16.838 8.23l-.096.143M16.742 8.373l-.095.095M16.647 8.468l-.095.047M17.552 9.135l.047.047M17.6 9.182l-.048.048M17.552 9.23l-.048-.048M17.504 9.182l.048-.047M17.552 9.135v.095M18.504 8.23h-.476M18.028 8.23l-.048.476M17.98 8.706l.048-.048M18.028 8.658l.095-.047M18.123 8.61h.238M18.361 8.61l.095.048M18.457 8.658l.047.048M18.504 8.706l.048.095M18.552 8.801v.238M18.552 9.04l-.048.095M18.504 9.135l-.048.047M18.457 9.182l-.096.048M18.361 9.23h-.238M18.123 9.23l-.095-.048M18.028 9.182l-.048-.047M18.98 8.23v.81M18.98 9.04l.048.095M19.028 9.135l.048.047M19.076 9.182l.095.048M19.17 9.23h.191M19.361 9.23l.095-.048M19.457 9.182l.047-.047M19.504 9.135l.048-.096M19.552 9.04v-.81"/>
        </g>
        <g class="stroked-text">
            <path d="m13.004 10.83-.333-.476M12.433 10.83v-1M12.433 9.83h.38M12.814 9.83l.095.047M12.909 9.877l.047.048M12.957 9.925l.047.095M13.004 10.02v.143M13.004 10.163l-.047.095M12.957 10.258l-.048.048M12.909 10.306l-.095.048M12.814 10.354h-.381M13.433 10.306h.333M13.909 10.83h-.476M13.433 10.83v-1M13.433 9.83h.476M14.67 10.306h-.332M14.338 10.83v-1M14.338 9.83h.476M15.338 9.83v.238M15.1 9.973l.238.095M15.338 10.068l.238-.095M15.195 10.258l.143-.19M15.338 10.068l.142.19M16.1 9.83v.238M15.861 9.973l.238.095M16.1 10.068l.237-.095M15.957 10.258l.142-.19M16.1 10.068l.142.19"/>
        </g>
    </g>
    <g style="fill:none;stroke:#afafaf;stroke-width:.1;stroke-opacity:1;stroke-linecap:round;stroke-linejoin:round">
        <path d="M7.338 2.575v1.5M7.338 2.575h1.5M7.338 15.075v1.5M8.838 16.575h-1.5M19.838 2.575h1.5M21.338 4.075v-1.5M21.338 16.575h-1.5M21.338 16.575v-1.5"/>
    </g>
    <g style="fill:none;stroke:#d0d2cd;stroke-width:.05;stroke-opacity:1;stroke-linecap:round;stroke-linejoin:round">
        <path d="M7.353 16.16V2.99M7.753 2.59h13.17M20.923 16.56H7.752M21.323 2.99v13.17M7.753 2.59a.4.4 0 0 0-.4.4M7.353 16.16a.4.4 0 0 0 .4.4M21.323 2.99a.4.4 0 0 0-.4-.4M20.923 16.56a.4.4 0 0 0 .4-.4"/>
        <path d="M.05.05h28.575V19.1H.05Z" style="stroke:#c2c2c2;stroke-width:.1;stroke-opacity:1;stroke-linecap:round;stroke-linejoin:round;fill:none"/>
    </g>
</svg>
