<svg xmlns="http://www.w3.org/2000/svg" width="450.336" height="72.288" viewBox="0 0 119.151 19.126">
    <g style="fill:none;stroke:#afafaf;stroke-width:.15;stroke-opacity:1;stroke-linecap:round;stroke-linejoin:round">
        <g class="stroked-text">
            <path d="M53.89 9.23v-1M53.89 8.23h.382M54.272 8.23l.095.047M54.367 8.277l.048.048M54.415 8.325l.047.095M54.462 8.42v.143M54.462 8.563l-.047.095M54.415 8.658l-.048.048M54.367 8.706l-.095.048M54.272 8.754h-.381M55.034 9.23l-.096-.048M54.938 9.182l-.047-.095M54.89 9.087V8.23M55.843 9.23v-.524M55.843 8.706l-.048-.095M55.796 8.61l-.096-.047M55.7 8.563h-.19M55.51 8.563l-.095.048M55.843 9.182l-.095.048M55.748 9.23h-.238M55.51 9.23l-.095-.048M55.415 9.182l-.048-.095M55.367 9.087v-.095M55.367 8.992l.048-.096M55.415 8.897l.095-.048M55.51 8.849h.238M55.748 8.849l.095-.048M56.177 8.563h.38M56.32 8.23v.857M56.32 9.087l.047.095M56.367 9.182l.095.048M56.462 9.23h.095M57.272 9.182l-.096.048M57.177 9.23h-.191M56.986 9.23l-.095-.048M56.89 9.182l-.047-.095M56.843 9.087v-.381M56.843 8.706l.048-.095M56.89 8.61l.096-.047M56.986 8.563h.19M57.177 8.563l.095.048M57.272 8.61l.047.096M57.32 8.706v.095M57.32 8.801l-.477.095M57.51 9.325h.762M58.51 9.23v-1M58.51 8.23l.333.714M58.843 8.944l.333-.714M59.177 8.23v1M59.557 8.23l.667 1M60.224 8.23l-.667 1M60.367 9.325h.762M61.796 8.23h-.19M61.605 8.23l-.095.047M61.51 8.277l-.048.048M61.462 8.325l-.095.143M61.367 8.468l-.048.19M61.32 8.658v.381M61.32 9.04l.047.095M61.367 9.135l.048.047M61.415 9.182l.095.048M61.51 9.23h.19M61.7 9.23l.095-.048M61.796 9.182l.047-.047M61.843 9.135l.048-.096M61.89 9.04V8.8M61.89 8.801l-.047-.095M61.843 8.706l-.048-.048M61.796 8.658l-.096-.047M61.7 8.61h-.19M61.51 8.61l-.095.048M61.415 8.658l-.048.048M61.367 8.706l-.048.095M62.32 9.135l.047.047M62.367 9.182l-.048.048M62.32 9.23l-.048-.048M62.272 9.182l.047-.047M62.32 9.135v.095M62.748 8.325l.047-.048M62.796 8.277l.095-.047M62.89 8.23h.239M63.129 8.23l.095.047M63.224 8.277l.048.048M63.272 8.325l.047.095M63.32 8.42v.095M63.32 8.516l-.048.142M63.272 8.658l-.572.572M62.7 9.23h.62M64.224 8.23h-.476M63.748 8.23l-.048.476M63.7 8.706l.048-.048M63.748 8.658l.095-.047M63.843 8.61h.238M64.081 8.61l.096.048M64.177 8.658l.047.048M64.224 8.706l.048.095M64.272 8.801v.238M64.272 9.04l-.048.095M64.224 9.135l-.047.047M64.177 9.182l-.096.048M64.081 9.23h-.238M63.843 9.23l-.095-.048M63.748 9.182l-.048-.047M64.7 8.23v.81M64.7 9.04l.048.095M64.748 9.135l.047.047M64.796 9.182l.095.048M64.89 9.23h.191M65.081 9.23l.096-.048M65.177 9.182l.047-.047M65.224 9.135l.048-.096M65.272 9.04v-.81"/>
        </g>
        <g class="stroked-text">
            <path d="m58.248 10.83-.333-.476M57.677 10.83v-1M57.677 9.83h.38M58.057 9.83l.096.047M58.153 9.877l.047.048M58.2 9.925l.048.095M58.248 10.02v.143M58.248 10.163l-.048.095M58.2 10.258l-.047.048M58.153 10.306l-.096.048M58.057 10.354h-.38M58.677 10.306h.333M59.153 10.83h-.477M58.677 10.83v-1M58.677 9.83h.476M59.915 10.306h-.334M59.581 10.83v-1M59.581 9.83h.476M60.581 9.83v.238M60.343 9.973l.238.095M60.581 10.068l.238-.095M60.438 10.258l.143-.19M60.581 10.068l.143.19M61.343 9.83v.238M61.105 9.973l.238.095M61.343 10.068l.238-.095M61.2 10.258l.143-.19M61.343 10.068l.143.19"/>
        </g>
    </g>
    <g style="fill:none;stroke:#afafaf;stroke-width:.1;stroke-opacity:1;stroke-linecap:round;stroke-linejoin:round">
        <path d="M52.581 2.575v1.5M52.581 2.575h1.5M52.581 15.075v1.5M54.081 16.575h-1.5M65.081 2.575h1.5M66.581 4.075v-1.5M66.581 16.575h-1.5M66.581 16.575v-1.5"/>
        <path d="M6.081 3.575h7v15h-7ZM106.081 3.575h7v15h-7Z" style="stroke:#afafaf;stroke-width:.1;stroke-opacity:1;stroke-linecap:round;stroke-linejoin:round;fill:none"/>
    </g>
    <g style="fill:none;stroke:#d0d2cd;stroke-width:.05;stroke-opacity:1;stroke-linecap:round;stroke-linejoin:round">
        <path d="M6.081 18.175v-14.2M6.481 3.575h6.2M12.681 18.575h-6.2M13.081 3.975v14.2M52.596 16.16V2.99M52.996 2.59h13.17M66.166 16.56h-13.17M66.566 2.99v13.17M106.081 18.175v-14.2M106.481 3.575h6.2M112.681 18.575h-6.2M113.081 3.975v14.2M6.481 3.575a.4.4 0 0 0-.4.4M6.081 18.175a.4.4 0 0 0 .4.4M13.081 3.975a.4.4 0 0 0-.4-.4M12.681 18.575a.4.4 0 0 0 .4-.4M52.996 2.59a.4.4 0 0 0-.4.4M52.596 16.16a.4.4 0 0 0 .4.4M66.566 2.99a.4.4 0 0 0-.4-.4M66.166 16.56a.4.4 0 0 0 .4-.4M106.481 3.575a.4.4 0 0 0-.4.4M106.081 18.175a.4.4 0 0 0 .4.4M113.081 3.975a.4.4 0 0 0-.4-.4M112.681 18.575a.4.4 0 0 0 .4-.4"/>
        <path d="M.05.05h119.063V19.1H.05Z" style="stroke:#c2c2c2;stroke-width:.1;stroke-opacity:1;stroke-linecap:round;stroke-linejoin:round;fill:none"/>
    </g>
</svg>
