<svg xmlns="http://www.w3.org/2000/svg" width="576.288" height="72.288" viewBox="0 0 152.476 19.126">
    <g style="fill:none;stroke:#afafaf;stroke-width:.15;stroke-opacity:1;stroke-linecap:round;stroke-linejoin:round">
        <g class="stroked-text">
            <path d="M71.75 9.23v-1M71.75 8.23h.381M72.131 8.23l.095.047M72.226 8.277l.048.048M72.274 8.325l.047.095M72.321 8.42v.143M72.321 8.563l-.047.095M72.274 8.658l-.048.048M72.226 8.706l-.095.048M72.131 8.754h-.381M72.893 9.23l-.095-.048M72.798 9.182l-.048-.095M72.75 9.087V8.23M73.702 9.23v-.524M73.702 8.706l-.047-.095M73.655 8.61l-.096-.047M73.56 8.563h-.191M73.369 8.563l-.095.048M73.702 9.182l-.095.048M73.607 9.23h-.238M73.369 9.23l-.095-.048M73.274 9.182l-.048-.095M73.226 9.087v-.095M73.226 8.992l.048-.096M73.274 8.897l.095-.048M73.369 8.849h.238M73.607 8.849l.095-.048M74.036 8.563h.38M74.179 8.23v.857M74.179 9.087l.047.095M74.226 9.182l.095.048M74.321 9.23h.096M75.131 9.182l-.095.048M75.036 9.23h-.19M74.845 9.23l-.095-.048M74.75 9.182l-.048-.095M74.702 9.087v-.381M74.702 8.706l.048-.095M74.75 8.61l.095-.047M74.845 8.563h.19M75.036 8.563l.095.048M75.131 8.61l.048.096M75.179 8.706v.095M75.179 8.801l-.477.095M75.369 9.325h.762M76.369 9.23v-1M76.369 8.23l.333.714M76.702 8.944l.334-.714M77.036 8.23v1M77.417 8.23l.666 1M78.083 8.23l-.666 1M78.226 9.325h.762M79.369 8.658l-.095-.047M79.274 8.61l-.048-.047M79.226 8.563l-.047-.095M79.179 8.468V8.42M79.179 8.42l.047-.095M79.226 8.325l.048-.048M79.274 8.277l.095-.047M79.369 8.23h.19M79.56 8.23l.095.047M79.655 8.277l.047.048M79.702 8.325l.048.095M79.75 8.42v.048M79.75 8.468l-.048.095M79.702 8.563l-.047.048M79.655 8.61l-.096.048M79.56 8.658h-.191M79.369 8.658l-.095.048M79.274 8.706l-.048.048M79.226 8.754l-.047.095M79.179 8.849v.19M79.179 9.04l.047.095M79.226 9.135l.048.047M79.274 9.182l.095.048M79.369 9.23h.19M79.56 9.23l.095-.048M79.655 9.182l.047-.047M79.702 9.135l.048-.096M79.75 9.04v-.191M79.75 8.849l-.048-.095M79.702 8.754l-.047-.048M79.655 8.706l-.096-.048M80.179 8.23v.81M80.179 9.04l.047.095M80.226 9.135l.048.047M80.274 9.182l.095.048M80.369 9.23h.19M80.56 9.23l.095-.048M80.655 9.182l.047-.047M80.702 9.135l.048-.096M80.75 9.04v-.81"/>
        </g>
        <g class="stroked-text">
            <path d="m74.917 10.83-.334-.476M74.345 10.83v-1M74.345 9.83h.381M74.726 9.83l.095.047M74.821 9.877l.048.048M74.869 9.925l.048.095M74.917 10.02v.143M74.917 10.163l-.048.095M74.869 10.258l-.048.048M74.821 10.306l-.095.048M74.726 10.354h-.38M75.345 10.306h.334M75.821 10.83h-.476M75.345 10.83v-1M75.345 9.83h.476M76.583 10.306h-.333M76.25 10.83v-1M76.25 9.83h.476M77.25 9.83v.238M77.012 9.973l.238.095M77.25 10.068l.238-.095M77.107 10.258l.143-.19M77.25 10.068l.143.19M78.012 9.83v.238M77.774 9.973l.238.095M78.012 10.068l.238-.095M77.869 10.258l.143-.19M78.012 10.068l.143.19"/>
        </g>
    </g>
    <g style="fill:none;stroke:#afafaf;stroke-width:.1;stroke-opacity:1;stroke-linecap:round;stroke-linejoin:round">
        <path d="M69.25 2.575v1.5M69.25 2.575h1.5M69.25 15.075v1.5M70.75 16.575h-1.5M81.75 2.575h1.5M83.25 4.075v-1.5M83.25 16.575h-1.5M83.25 16.575v-1.5"/>
        <path d="M6.05 3.575h7v15h-7ZM139.45 3.575h7v15h-7Z" style="stroke:#afafaf;stroke-width:.1;stroke-opacity:1;stroke-linecap:round;stroke-linejoin:round;fill:none"/>
    </g>
    <g style="fill:none;stroke:#d0d2cd;stroke-width:.05;stroke-opacity:1;stroke-linecap:round;stroke-linejoin:round">
        <path d="M6.05 18.175v-14.2M6.45 3.575h6.2M12.65 18.575h-6.2M13.05 3.975v14.2M69.265 16.16V2.99M69.665 2.59h13.17M82.835 16.56h-13.17M83.235 2.99v13.17M139.45 18.175v-14.2M139.85 3.575h6.2M146.05 18.575h-6.2M146.45 3.975v14.2M6.45 3.575a.4.4 0 0 0-.4.4M6.05 18.175a.4.4 0 0 0 .4.4M13.05 3.975a.4.4 0 0 0-.4-.4M12.65 18.575a.4.4 0 0 0 .4-.4M69.665 2.59a.4.4 0 0 0-.4.4M69.265 16.16a.4.4 0 0 0 .4.4M83.235 2.99a.4.4 0 0 0-.4-.4M82.835 16.56a.4.4 0 0 0 .4-.4M139.85 3.575a.4.4 0 0 0-.4.4M139.45 18.175a.4.4 0 0 0 .4.4M146.45 3.975a.4.4 0 0 0-.4-.4M146.05 18.575a.4.4 0 0 0 .4-.4"/>
        <path d="M.05.05h152.4V19.1H.05Z" style="stroke:#c2c2c2;stroke-width:.1;stroke-opacity:1;stroke-linecap:round;stroke-linejoin:round;fill:none"/>
    </g>
</svg>
