<svg xmlns="http://www.w3.org/2000/svg" width="72.288" height="72.288" viewBox="0 0 19.126 19.126">
    <g style="fill:none;stroke:#afafaf;stroke-width:.15;stroke-opacity:1;stroke-linecap:round;stroke-linejoin:round">
        <g class="stroked-text">
            <path d="M5.075 9.23v-1M5.075 8.23h.381M5.456 8.23l.095.047M5.551 8.277l.048.048M5.599 8.325l.047.095M5.646 8.42v.143M5.646 8.563l-.047.095M5.599 8.658l-.048.048M5.551 8.706l-.095.048M5.456 8.754h-.381M6.218 9.23l-.095-.048M6.123 9.182l-.048-.095M6.075 9.087V8.23M7.027 9.23v-.524M7.027 8.706l-.047-.095M6.98 8.61l-.096-.047M6.885 8.563h-.191M6.694 8.563l-.095.048M7.027 9.182l-.095.048M6.932 9.23h-.238M6.694 9.23l-.095-.048M6.599 9.182l-.048-.095M6.551 9.087v-.095M6.551 8.992l.048-.096M6.599 8.897l.095-.048M6.694 8.849h.238M6.932 8.849l.095-.048M7.36 8.563h.382M7.504 8.23v.857M7.504 9.087l.047.095M7.551 9.182l.095.048M7.646 9.23h.096M8.456 9.182l-.095.048M8.36 9.23h-.19M8.17 9.23l-.095-.048M8.075 9.182l-.048-.095M8.027 9.087v-.381M8.027 8.706l.048-.095M8.075 8.61l.095-.047M8.17 8.563h.19M8.36 8.563l.096.048M8.456 8.61l.048.096M8.504 8.706v.095M8.504 8.801l-.477.095M8.694 9.325h.762M9.694 9.23v-1M9.694 8.23l.333.714M10.027 8.944l.334-.714M10.36 8.23v1M10.742 8.23l.666 1M11.408 8.23l-.666 1M11.551 9.325h.762M13.075 9.23h-.571M12.79 9.23v-1M12.79 8.23l-.096.143M12.694 8.373l-.095.095M12.599 8.468l-.095.047M13.504 8.23v.81M13.504 9.04l.047.095M13.551 9.135l.048.047M13.599 9.182l.095.048M13.694 9.23h.19M13.885 9.23l.095-.048M13.98 9.182l.047-.047M14.027 9.135l.048-.096M14.075 9.04v-.81"/>
        </g>
        <g class="stroked-text">
            <path d="m8.242 10.83-.334-.476M7.67 10.83v-1M7.67 9.83h.381M8.051 9.83l.095.047M8.146 9.877l.048.048M8.194 9.925l.048.095M8.242 10.02v.143M8.242 10.163l-.048.095M8.194 10.258l-.048.048M8.146 10.306l-.095.048M8.051 10.354h-.38M8.67 10.306h.334M9.146 10.83H8.67M8.67 10.83v-1M8.67 9.83h.476M9.908 10.306h-.333M9.575 10.83v-1M9.575 9.83h.476M10.575 9.83v.238M10.337 9.973l.238.095M10.575 10.068l.238-.095M10.432 10.258l.143-.19M10.575 10.068l.143.19M11.337 9.83v.238M11.099 9.973l.238.095M11.337 10.068l.238-.095M11.194 10.258l.143-.19M11.337 10.068l.143.19"/>
        </g>
        <path d="M2.59 2.59h13.97v13.97H2.59Z" style="stroke:#afafaf;stroke-width:.1;stroke-opacity:1;stroke-linecap:round;stroke-linejoin:round;fill:none"/>
    </g>
    <g style="fill:none;stroke:#d0d2cd;stroke-width:.05;stroke-opacity:1;stroke-linecap:round;stroke-linejoin:round">
        <path d="M2.59 16.16V2.99M2.99 2.59h13.17M16.16 16.56H2.99M16.56 2.99v13.17M2.99 2.59a.4.4 0 0 0-.4.4M2.59 16.16a.4.4 0 0 0 .4.4M16.56 2.99a.4.4 0 0 0-.4-.4M16.16 16.56a.4.4 0 0 0 .4-.4"/>
        <path d="M.05.05H19.1V19.1H.05Z" style="stroke:#c2c2c2;stroke-width:.1;stroke-opacity:1;stroke-linecap:round;stroke-linejoin:round;fill:none"/>
    </g>
</svg>
