<svg xmlns="http://www.w3.org/2000/svg" width="432.288" height="72.288" viewBox="0 0 114.376 19.126">
    <g style="fill:none;stroke:#afafaf;stroke-width:.15;stroke-opacity:1;stroke-linecap:round;stroke-linejoin:round">
        <g class="stroked-text">
            <path d="M43.239 13.83v-1M43.239 12.83h.38M43.62 12.83l.095.047M43.715 12.877l.047.048M43.762 12.925l.048.095M43.81 13.02v.143M43.81 13.163l-.048.095M43.762 13.258l-.047.048M43.715 13.306l-.096.048M43.62 13.354h-.381M44.381 13.83l-.095-.048M44.286 13.782l-.047-.095M44.239 13.687v-.857M45.19 13.83v-.524M45.19 13.306l-.047-.095M45.143 13.21l-.095-.047M45.048 13.163h-.19M44.858 13.163l-.096.048M45.19 13.782l-.094.048M45.096 13.83h-.238M44.858 13.83l-.096-.048M44.762 13.782l-.047-.095M44.715 13.687v-.095M44.715 13.592l.047-.096M44.762 13.497l.096-.048M44.858 13.449h.238M45.096 13.449l.095-.048M45.524 13.163h.381M45.667 12.83v.857M45.667 13.687l.048.095M45.715 13.782l.095.048M45.81 13.83h.095M46.62 13.782l-.096.048M46.524 13.83h-.19M46.334 13.83l-.096-.048M46.239 13.782l-.048-.095M46.19 13.687v-.381M46.19 13.306l.049-.095M46.239 13.21l.095-.047M46.334 13.163h.19M46.524 13.163l.096.048M46.62 13.21l.047.096M46.667 13.306v.095M46.667 13.401l-.476.095M46.858 13.925h.762M47.858 13.83v-1M47.858 12.83l.333.714M48.19 13.544l.334-.714M48.524 12.83v1M48.905 12.83l.667 1M49.572 12.83l-.667 1M49.715 13.925h.762M51.143 12.83h-.19M50.953 12.83l-.096.047M50.858 12.877l-.048.048M50.81 12.925l-.095.143M50.715 13.068l-.048.19M50.667 13.258v.381M50.667 13.64l.048.095M50.715 13.735l.047.047M50.762 13.782l.096.048M50.858 13.83h.19M51.048 13.83l.095-.048M51.143 13.782l.048-.047M51.19 13.735l.049-.096M51.239 13.64V13.4M51.239 13.401l-.048-.095M51.19 13.306l-.047-.048M51.143 13.258l-.095-.047M51.048 13.21h-.19M50.858 13.21l-.096.048M50.762 13.258l-.047.048M50.715 13.306l-.048.095M51.667 12.83v.81M51.667 13.64l.048.095M51.715 13.735l.047.047M51.762 13.782l.096.048M51.858 13.83h.19M52.048 13.83l.095-.048M52.143 13.782l.048-.047M52.19 13.735l.049-.096M52.239 13.64v-.81M52.477 13.925h.762M54 13.83h-.571M53.715 13.83v-1M53.715 12.83l-.096.143M53.62 12.973l-.096.095M53.524 13.068l-.095.048M54.429 12.83v.81M54.429 13.64l.048.095M54.477 13.735l.047.047M54.524 13.782l.096.048M54.62 13.83h.19M54.81 13.83l.095-.048M54.905 13.782l.048-.047M54.953 13.735l.047-.096M55 13.64v-.81M55.477 13.449h.762M55.858 13.83v-.762M56.667 12.925l.048-.048M56.715 12.877l.095-.047M56.81 12.83h.238M57.048 12.83l.095.047M57.143 12.877l.048.048M57.19 12.925l.049.095M57.239 13.02v.096M57.239 13.116l-.048.142M57.19 13.258l-.57.572M56.62 13.83h.619M57.667 13.735l.048.047M57.715 13.782l-.048.048M57.667 13.83l-.047-.048M57.62 13.782l.047-.047M57.667 13.735v.095M58.096 12.925l.047-.048M58.143 12.877l.096-.047M58.239 12.83h.238M58.477 12.83l.095.047M58.572 12.877l.047.048M58.62 12.925l.047.095M58.667 13.02v.096M58.667 13.116l-.047.142M58.62 13.258l-.572.572M58.048 13.83h.62M59.572 12.83h-.476M59.096 12.83l-.048.476M59.048 13.306l.048-.048M59.096 13.258l.095-.047M59.19 13.21h.239M59.429 13.21l.095.048M59.524 13.258l.048.048M59.572 13.306l.047.095M59.62 13.401v.238M59.62 13.64l-.048.095M59.572 13.735l-.048.047M59.524 13.782l-.095.048M59.429 13.83h-.238M59.19 13.83l-.094-.048M59.096 13.782l-.048-.047M60.048 12.83v.81M60.048 13.64l.048.095M60.096 13.735l.047.047M60.143 13.782l.096.048M60.239 13.83h.19M60.429 13.83l.095-.048M60.524 13.782l.048-.047M60.572 13.735l.047-.096M60.62 13.64v-.81M61.096 13.449h.762M61.477 13.83v-.762M62.286 12.925l.048-.048M62.334 12.877l.095-.047M62.429 12.83h.238M62.667 12.83l.095.047M62.762 12.877l.048.048M62.81 12.925l.047.095M62.858 13.02v.096M62.858 13.116l-.048.142M62.81 13.258l-.572.572M62.239 13.83h.619M63.286 13.735l.048.047M63.334 13.782l-.048.048M63.286 13.83l-.047-.048M63.239 13.782l.047-.047M63.286 13.735v.095M63.667 12.83h.667M64.334 12.83l-.429 1M65.19 12.83h-.475M64.715 12.83l-.048.476M64.667 13.306l.048-.048M64.715 13.258l.095-.047M64.81 13.21h.238M65.048 13.21l.095.048M65.143 13.258l.048.048M65.19 13.306l.049.095M65.239 13.401v.238M65.239 13.64l-.048.095M65.19 13.735l-.047.047M65.143 13.782l-.095.048M65.048 13.83h-.238M64.81 13.83l-.095-.048M64.715 13.782l-.048-.047M65.667 12.83v.81M65.667 13.64l.048.095M65.715 13.735l.047.047M65.762 13.782l.096.048M65.858 13.83h.19M66.048 13.83l.095-.048M66.143 13.782l.048-.047M66.19 13.735l.049-.096M66.239 13.64v-.81"/>
        </g>
        <g class="stroked-text">
            <path d="m53.405 12.23-.333-.476M52.834 12.23v-1M52.834 11.23h.38M53.215 11.23l.095.047M53.31 11.277l.047.048M53.358 11.325l.047.095M53.405 11.42v.143M53.405 11.563l-.047.095M53.358 11.658l-.048.048M53.31 11.706l-.095.048M53.215 11.754h-.381M53.834 11.706h.333M54.31 12.23h-.476M53.834 12.23v-1M53.834 11.23h.476M55.072 11.706h-.334M54.739 12.23v-1M54.739 11.23h.476M55.739 11.23v.238M55.5 11.373l.239.095M55.739 11.468l.238-.095M55.596 11.658l.143-.19M55.739 11.468l.142.19M56.5 11.23v.238M56.262 11.373l.238.095M56.5 11.468l.239-.095M56.358 11.658l.142-.19M56.5 11.468l.143.19"/>
        </g>
    </g>
    <g style="fill:none;stroke:#afafaf;stroke-width:.1;stroke-opacity:1;stroke-linecap:round;stroke-linejoin:round">
        <path d="M2.575 4.075v-1.5M2.575 16.575v-1.5M2.575 16.575h1.5M4.075 2.575h-1.5M15.075 16.575h1.5M16.575 2.575h-1.5M16.575 2.575v1.5M16.575 15.075v1.5M33.531 4.075v-1.5M33.531 16.575v-1.5M33.531 16.575h1.5M35.031 2.575h-1.5M46.031 16.575h1.5M47.531 2.575h-1.5M47.531 2.575v1.5M47.531 15.075v1.5M52.2 6.075v-1.5M52.2 14.575v-1.5M52.2 14.575h1.5M53.7 4.575h-1.5M60.7 14.575h1.5M62.2 4.575h-1.5M62.2 4.575v1.5M62.2 13.075v1.5M81.156 4.075v-1.5M81.156 16.575v-1.5M81.156 16.575h1.5M82.656 2.575h-1.5M93.656 16.575h1.5M95.156 2.575h-1.5M95.156 2.575v1.5M95.156 15.075v1.5"/>
        <path d="M13.1 3.575h-7v15h7ZM32.093 3.575h-7v15h7ZM55.97 3.575h-7v15h7ZM79.718 3.575h-7v15h7ZM103.594 3.575h-7v15h7Z" style="stroke:#afafaf;stroke-width:.1;stroke-opacity:1;stroke-linecap:round;stroke-linejoin:round;fill:none"/>
        <path d="M108.3 3.575h-7v15h7Z" style="stroke:#afafaf;stroke-width:.1;stroke-opacity:1;stroke-linecap:round;stroke-linejoin:round;fill:none"/>
    </g>
    <g style="fill:none;stroke:#d0d2cd;stroke-width:.05;stroke-opacity:1;stroke-linecap:round;stroke-linejoin:round">
        <path d="M2.59 2.99v13.17M5.7 16.56H2.99M6.1 16.96v1.215M6.5 18.575h6.2M13.1 18.175V16.96M13.5 16.56h2.66M16.16 2.59H2.99M16.56 16.16V2.99M25.093 3.975v14.2M25.493 18.575h6.2M31.693 3.575h-6.2M32.093 18.175v-14.2M33.546 2.99v13.17M33.946 16.56h13.17M47.116 2.59h-13.17M47.516 16.16V2.99M48.97 2.99v15.185M49.37 18.575h6.2M55.97 18.175V16.96M56.37 16.56h7.415M63.785 2.59H49.369M64.185 16.16V2.99M72.718 3.975v14.2M73.118 18.575h6.2M79.318 3.575h-6.2M79.718 18.175v-14.2M81.171 2.99v13.17M81.571 16.56h13.17M94.741 2.59h-13.17M95.141 16.16V2.99M96.594 3.975v14.2M96.994 18.575H107.9M107.9 3.575H96.994M108.3 18.175v-14.2M2.99 2.59a.4.4 0 0 0-.4.4M2.59 16.16a.4.4 0 0 0 .4.4M6.1 16.96a.4.4 0 0 0-.4-.4M6.1 18.175a.4.4 0 0 0 .4.4M13.5 16.56a.4.4 0 0 0-.4.4M12.7 18.575a.4.4 0 0 0 .4-.4M16.56 2.99a.4.4 0 0 0-.4-.4M16.16 16.56a.4.4 0 0 0 .4-.4M25.493 3.575a.4.4 0 0 0-.4.4M25.093 18.175a.4.4 0 0 0 .4.4M32.093 3.975a.4.4 0 0 0-.4-.4M31.693 18.575a.4.4 0 0 0 .4-.4M33.946 2.59a.4.4 0 0 0-.4.4M33.546 16.16a.4.4 0 0 0 .4.4M47.516 2.99a.4.4 0 0 0-.4-.4M47.116 16.56a.4.4 0 0 0 .4-.4M49.37 2.59a.4.4 0 0 0-.4.4M48.97 18.175a.4.4 0 0 0 .4.4M56.37 16.56a.4.4 0 0 0-.4.4M55.57 18.575a.4.4 0 0 0 .4-.4M64.185 2.99a.4.4 0 0 0-.4-.4M63.785 16.56a.4.4 0 0 0 .4-.4M73.118 3.575a.4.4 0 0 0-.4.4M72.718 18.175a.4.4 0 0 0 .4.4M79.718 3.975a.4.4 0 0 0-.4-.4M79.318 18.575a.4.4 0 0 0 .4-.4M81.571 2.59a.4.4 0 0 0-.4.4M81.171 16.16a.4.4 0 0 0 .4.4M95.141 2.99a.4.4 0 0 0-.4-.4M94.741 16.56a.4.4 0 0 0 .4-.4M96.994 3.575a.4.4 0 0 0-.4.4M96.594 18.175a.4.4 0 0 0 .4.4M108.3 3.975a.4.4 0 0 0-.4-.4M107.9 18.575a.4.4 0 0 0 .4-.4"/>
        <path d="M19.1.05H.05V19.1H19.1ZM61.963.05H19.1V19.1h42.863ZM114.35.05H61.963V19.1h52.387Z" style="stroke:#c2c2c2;stroke-width:.1;stroke-opacity:1;stroke-linecap:round;stroke-linejoin:round;fill:none"/>
    </g>
</svg>
