<svg xmlns="http://www.w3.org/2000/svg" width="126.336" height="72.288" viewBox="0 0 33.426 19.126">
    <g style="fill:none;stroke:#afafaf;stroke-width:.15;stroke-opacity:1;stroke-linecap:round;stroke-linejoin:round">
        <g class="stroked-text">
            <path d="M11.028 9.23v-1M11.028 8.23h.381M11.41 8.23l.095.047M11.505 8.277l.047.048M11.552 8.325l.048.095M11.6 8.42v.143M11.6 8.563l-.048.095M11.552 8.658l-.047.048M11.505 8.706l-.096.048M11.41 8.754h-.382M12.171 9.23l-.095-.048M12.076 9.182l-.048-.095M12.028 9.087V8.23M12.98 9.23v-.524M12.98 8.706l-.047-.095M12.933 8.61l-.095-.047M12.838 8.563h-.19M12.647 8.563l-.095.048M12.98 9.182l-.095.048M12.885 9.23h-.238M12.647 9.23l-.095-.048M12.552 9.182l-.047-.095M12.505 9.087v-.095M12.505 8.992l.047-.096M12.552 8.897l.095-.048M12.647 8.849h.238M12.885 8.849l.096-.048M13.314 8.563h.38M13.457 8.23v.857M13.457 9.087l.047.095M13.505 9.182l.095.048M13.6 9.23h.095M14.41 9.182l-.096.048M14.314 9.23h-.19M14.124 9.23l-.096-.048M14.028 9.182l-.047-.095M13.98 9.087v-.381M13.98 8.706l.048-.095M14.028 8.61l.095-.047M14.124 8.563h.19M14.314 8.563l.095.048M14.41 8.61l.047.096M14.457 8.706v.095M14.457 8.801l-.476.095M14.647 9.325h.762M15.647 9.23v-1M15.647 8.23l.334.714M15.98 8.944l.334-.714M16.314 8.23v1M16.695 8.23l.667 1M17.362 8.23l-.667 1M17.505 9.325h.761M19.028 9.23h-.571M18.743 9.23v-1M18.743 8.23l-.096.143M18.647 8.373l-.095.095M18.552 8.468l-.095.047M19.457 9.135l.047.047M19.505 9.182l-.048.048M19.457 9.23l-.048-.048M19.41 9.182l.047-.047M19.457 9.135v.095M19.838 8.23h.666M20.505 8.23l-.43 1M21.362 8.23h-.477M20.885 8.23l-.047.476M20.838 8.706l.047-.048M20.885 8.658l.096-.047M20.98 8.61h.239M21.219 8.61l.095.048M21.314 8.658l.048.048M21.362 8.706l.047.095M21.41 8.801v.238M21.41 9.04l-.048.095M21.362 9.135l-.048.047M21.314 9.182l-.095.048M21.219 9.23h-.238M20.98 9.23l-.095-.048M20.885 9.182l-.047-.047M21.838 8.23v.81M21.838 9.04l.047.095M21.885 9.135l.048.047M21.933 9.182l.095.048M22.028 9.23h.19M22.219 9.23l.095-.048M22.314 9.182l.048-.047M22.362 9.135l.047-.096M22.41 9.04v-.81"/>
        </g>
        <g class="stroked-text">
            <path d="m15.385 10.83-.333-.476M14.814 10.83v-1M14.814 9.83h.38M15.195 9.83l.095.047M15.29 9.877l.048.048M15.338 9.925l.047.095M15.385 10.02v.143M15.385 10.163l-.047.095M15.338 10.258l-.048.048M15.29 10.306l-.095.048M15.195 10.354h-.381M15.814 10.306h.333M16.29 10.83h-.476M15.814 10.83v-1M15.814 9.83h.476M17.052 10.306h-.333M16.719 10.83v-1M16.719 9.83h.476M17.719 9.83v.238M17.48 9.973l.239.095M17.719 10.068l.238-.095M17.576 10.258l.143-.19M17.719 10.068l.143.19M18.48 9.83v.238M18.243 9.973l.238.095M18.48 10.068l.239-.095M18.338 10.258l.143-.19M18.48 10.068l.143.19"/>
        </g>
    </g>
    <g style="fill:none;stroke:#afafaf;stroke-width:.1;stroke-opacity:1;stroke-linecap:round;stroke-linejoin:round">
        <path d="M9.719 2.575v1.5M9.719 2.575h1.5M9.719 15.075v1.5M11.219 16.575h-1.5M22.219 2.575h1.5M23.719 4.075v-1.5M23.719 16.575h-1.5M23.719 16.575v-1.5"/>
    </g>
    <g style="fill:none;stroke:#d0d2cd;stroke-width:.05;stroke-opacity:1;stroke-linecap:round;stroke-linejoin:round">
        <path d="M9.734 16.16V2.99M10.134 2.59h13.17M23.304 16.56h-13.17M23.704 2.99v13.17M10.134 2.59a.4.4 0 0 0-.4.4M9.734 16.16a.4.4 0 0 0 .4.4M23.704 2.99a.4.4 0 0 0-.4-.4M23.304 16.56a.4.4 0 0 0 .4-.4"/>
        <path d="M.05.05h33.338V19.1H.05Z" style="stroke:#c2c2c2;stroke-width:.1;stroke-opacity:1;stroke-linecap:round;stroke-linejoin:round;fill:none"/>
    </g>
</svg>
