<svg xmlns="http://www.w3.org/2000/svg" width="198.336" height="72.288" viewBox="0 0 52.476 19.126">
    <g style="fill:none;stroke:#4d7fc4;stroke-width:.5;stroke-opacity:1;stroke-linecap:round;stroke-linejoin:round">
        <path d="M18.994 16.075v-13M19.744 2.325h13M32.744 16.825h-13M33.494 3.075v13M19.744 2.325a.75.75 0 0 0-.75.75M18.994 16.075a.75.75 0 0 0 .75.75M33.494 3.075a.75.75 0 0 0-.75-.75M32.744 16.825a.75.75 0 0 0 .75-.75"/>
    </g>
    <g style="fill:none;stroke:#c83434;stroke-width:.5;stroke-opacity:1;stroke-linecap:round;stroke-linejoin:round">
        <path d="M18.994 16.075v-13M19.744 2.325h13M32.744 16.825h-13M33.494 3.075v13M19.744 2.325a.75.75 0 0 0-.75.75M18.994 16.075a.75.75 0 0 0 .75.75M33.494 3.075a.75.75 0 0 0-.75-.75M32.744 16.825a.75.75 0 0 0 .75-.75"/>
    </g>
    <g style="fill:none;stroke:#afafaf;stroke-width:.15;stroke-opacity:1;stroke-linecap:round;stroke-linejoin:round">
        <g class="stroked-text">
            <path d="M20.553 9.23v-1M20.553 8.23h.381M20.934 8.23l.095.047M21.03 8.277l.047.048M21.077 8.325l.048.095M21.125 8.42v.143M21.125 8.563l-.048.095M21.077 8.658l-.048.048M21.03 8.706l-.096.048M20.934 8.754h-.38M21.696 9.23l-.095-.048M21.6 9.182l-.047-.095M21.553 9.087V8.23M22.506 9.23v-.524M22.506 8.706l-.048-.095M22.458 8.61l-.095-.047M22.363 8.563h-.19M22.172 8.563l-.095.048M22.506 9.182l-.096.048M22.41 9.23h-.238M22.172 9.23l-.095-.048M22.077 9.182l-.048-.095M22.03 9.087v-.095M22.03 8.992l.047-.096M22.077 8.897l.095-.048M22.172 8.849h.238M22.41 8.849l.096-.048M22.839 8.563h.38M22.982 8.23v.857M22.982 9.087l.047.095M23.03 9.182l.095.048M23.125 9.23h.095M23.934 9.182l-.095.048M23.839 9.23h-.19M23.649 9.23l-.096-.048M23.553 9.182l-.047-.095M23.506 9.087v-.381M23.506 8.706l.047-.095M23.553 8.61l.095-.047M23.649 8.563h.19M23.839 8.563l.095.048M23.934 8.61l.048.096M23.982 8.706v.095M23.982 8.801l-.476.095M24.172 9.325h.762M25.172 9.23v-1M25.172 8.23l.334.714M25.506 8.944l.333-.714M25.839 8.23v1M26.22 8.23l.667 1M26.887 8.23l-.667 1M27.03 9.325h.761M27.982 8.325l.047-.048M28.03 8.277l.095-.047M28.125 8.23h.238M28.363 8.23l.095.047M28.458 8.277l.048.048M28.506 8.325l.047.095M28.553 8.42v.095M28.553 8.516l-.047.142M28.506 8.658l-.572.572M27.934 9.23h.62M28.982 9.135l.047.047M29.03 9.182l-.048.048M28.982 9.23l-.048-.048M28.934 9.182l.048-.047M28.982 9.135v.095M29.363 8.23h.666M30.03 8.23l-.43 1M30.887 8.23h-.477M30.41 8.23l-.047.476M30.363 8.706l.047-.048M30.41 8.658l.096-.047M30.506 8.61h.238M30.744 8.61l.095.048M30.839 8.658l.048.048M30.887 8.706l.047.095M30.934 8.801v.238M30.934 9.04l-.047.095M30.887 9.135l-.048.047M30.839 9.182l-.095.048M30.744 9.23h-.238M30.506 9.23l-.096-.048M30.41 9.182l-.047-.047M31.363 8.23v.81M31.363 9.04l.047.095M31.41 9.135l.048.047M31.458 9.182l.095.048M31.553 9.23h.19M31.744 9.23l.095-.048M31.839 9.182l.048-.047M31.887 9.135l.047-.096M31.934 9.04v-.81"/>
        </g>
        <g class="stroked-text">
            <path d="m24.91 10.83-.333-.476M24.339 10.83v-1M24.339 9.83h.38M24.72 9.83l.095.047M24.815 9.877l.048.048M24.863 9.925l.047.095M24.91 10.02v.143M24.91 10.163l-.047.095M24.863 10.258l-.048.048M24.815 10.306l-.095.048M24.72 10.354h-.381M25.339 10.306h.333M25.815 10.83h-.476M25.339 10.83v-1M25.339 9.83h.476M26.577 10.306h-.333M26.244 10.83v-1M26.244 9.83h.476M27.244 9.83v.238M27.006 9.973l.238.095M27.244 10.068l.238-.095M27.1 10.258l.144-.19M27.244 10.068l.143.19M28.006 9.83v.238M27.768 9.973l.238.095M28.006 10.068l.238-.095M27.863 10.258l.143-.19M28.006 10.068l.142.19"/>
        </g>
    </g>
    <g style="fill:none;stroke:#d0d2cd;stroke-width:.05;stroke-opacity:1;stroke-linecap:round;stroke-linejoin:round">
        <path d="M10.963 4.075v13M11.463 3.575h5.75M11.463 17.575h5.75M17.713 4.075v13M19.244 16.075v-13M19.744 2.575h13M32.744 16.575h-13M33.244 3.075v13M34.775 4.075v13M35.275 3.575h5.749M35.275 17.575h5.75M41.524 4.075l.001 13M11.463 3.575a.5.5 0 0 0-.5.5M10.963 17.075a.5.5 0 0 0 .5.5M17.713 4.075a.5.5 0 0 0-.5-.5M17.213 17.575a.5.5 0 0 0 .5-.5M19.744 2.575a.5.5 0 0 0-.5.5M19.244 16.075a.5.5 0 0 0 .5.5M33.244 3.075a.5.5 0 0 0-.5-.5M32.744 16.575a.5.5 0 0 0 .5-.5M35.275 3.575a.5.5 0 0 0-.5.5M34.775 17.075a.5.5 0 0 0 .5.5M41.524 4.075a.5.5 0 0 0-.5-.5M41.025 17.575a.5.5 0 0 0 .5-.5"/>
        <path d="M.05.05h52.388V19.1H.05Z" style="stroke:#c2c2c2;stroke-width:.1;stroke-opacity:1;stroke-linecap:round;stroke-linejoin:round;fill:none"/>
    </g>
</svg>
