<svg xmlns="http://www.w3.org/2000/svg" width="162.336" height="72.288" viewBox="0 0 42.951 19.126">
    <g style="fill:none;stroke:#afafaf;stroke-width:.15;stroke-opacity:1;stroke-linecap:round;stroke-linejoin:round">
        <g class="stroked-text">
            <path d="M11.6 10.83v-1M11.6 9.83h.381M11.981 9.83l.095.047M12.077 9.877l.047.048M12.124 9.925l.048.095M12.172 10.02v.143M12.172 10.163l-.048.095M12.124 10.258l-.048.048M12.077 10.306l-.096.048M11.981 10.354h-.38M12.743 10.83l-.095-.048M12.648 10.782l-.048-.095M12.6 10.687V9.83M13.553 10.83v-.524M13.553 10.306l-.048-.095M13.505 10.21l-.095-.047M13.41 10.163h-.19M13.22 10.163l-.096.048M13.553 10.782l-.096.048M13.457 10.83h-.238M13.22 10.83l-.096-.048M13.124 10.782l-.048-.095M13.077 10.687v-.095M13.077 10.592l.047-.096M13.124 10.497l.095-.048M13.22 10.449h.237M13.457 10.449l.096-.048M13.886 10.163h.381M14.029 9.83v.857M14.029 10.687l.047.095M14.077 10.782l.095.048M14.172 10.83h.095M14.981 10.782l-.095.048M14.886 10.83h-.19M14.696 10.83l-.096-.048M14.6 10.782l-.047-.095M14.553 10.687v-.381M14.553 10.306l.047-.095M14.6 10.21l.095-.047M14.696 10.163h.19M14.886 10.163l.095.048M14.981 10.21l.048.096M15.029 10.306v.095M15.029 10.401l-.476.095M15.22 10.925h.761M16.22 10.83v-1M16.22 9.83l.333.714M16.553 10.544l.333-.714M16.886 9.83v1M17.267 9.83l.667 1M17.934 9.83l-.667 1M18.077 10.925h.761M19.029 9.925l.047-.048M19.077 9.877l.095-.047M19.172 9.83h.238M19.41 9.83l.095.047M19.505 9.877l.048.048M19.553 9.925l.047.095M19.6 10.02v.096M19.6 10.116l-.047.142M19.553 10.258l-.572.572M18.981 10.83h.62M20.029 10.735l.047.047M20.077 10.782l-.048.048M20.029 10.83l-.048-.048M19.981 10.782l.048-.047M20.029 10.735v.095M20.457 9.925l.048-.048M20.505 9.877l.095-.047M20.6 9.83h.238M20.838 9.83l.096.047M20.934 9.877l.047.048M20.981 9.925l.048.095M21.029 10.02v.096M21.029 10.116l-.048.142M20.981 10.258l-.571.572M20.41 10.83h.619M21.934 9.83h-.477M21.457 9.83l-.047.476M21.41 10.306l.047-.048M21.457 10.258l.096-.047M21.553 10.21h.238M21.79 10.21l.096.048M21.886 10.258l.048.048M21.934 10.306l.047.095M21.981 10.401v.238M21.981 10.64l-.047.095M21.934 10.735l-.048.047M21.886 10.782l-.095.048M21.79 10.83h-.237M21.553 10.83l-.096-.048M21.457 10.782l-.047-.047M22.41 9.83v.81M22.41 10.64l.047.095M22.457 10.735l.048.047M22.505 10.782l.095.048M22.6 10.83h.19M22.79 10.83l.096-.048M22.886 10.782l.048-.047M22.934 10.735l.047-.096M22.981 10.64v-.81M23.22 10.925h.761M24.743 10.83h-.571M24.457 10.83v-1M24.457 9.83l-.095.143M24.362 9.973l-.095.095M24.267 10.068l-.095.048M25.172 10.735l.047.047M25.22 10.782l-.048.048M25.172 10.83l-.048-.048M25.124 10.782l.048-.047M25.172 10.735v.095M25.6 9.925l.048-.048M25.648 9.877l.095-.047M25.743 9.83h.238M25.981 9.83l.095.047M26.077 9.877l.047.048M26.124 9.925l.048.095M26.172 10.02v.096M26.172 10.116l-.048.142M26.124 10.258l-.571.572M25.553 10.83h.619M27.077 9.83H26.6M26.6 9.83l-.047.476M26.553 10.306l.047-.048M26.6 10.258l.095-.047M26.696 10.21h.238M26.934 10.21l.095.048M27.029 10.258l.047.048M27.077 10.306l.047.095M27.124 10.401v.238M27.124 10.64l-.047.095M27.077 10.735l-.048.047M27.029 10.782l-.095.048M26.934 10.83h-.239M26.696 10.83l-.096-.048M26.6 10.782l-.047-.047M27.553 9.83v.81M27.553 10.64l.047.095M27.6 10.735l.048.047M27.648 10.782l.095.048M27.743 10.83h.19M27.934 10.83l.095-.048M28.029 10.782l.047-.047M28.077 10.735l.047-.096M28.124 10.64v-.81M28.6 10.449h.762M28.981 10.83v-.762M30.362 10.83h-.571M30.077 10.83v-1M30.077 9.83l-.096.143M29.981 9.973l-.095.095M29.886 10.068l-.095.048M30.79 9.83v.81M30.79 10.64l.048.095M30.838 10.735l.048.047M30.886 10.782l.095.048M30.981 10.83h.19M31.172 10.83l.095-.048M31.267 10.782l.048-.047M31.315 10.735l.047-.096M31.362 10.64v-.81"/>
        </g>
        <g class="stroked-text">
            <path d="m20.148 9.23-.333-.476M19.577 9.23v-1M19.577 8.23h.38M19.957 8.23l.096.047M20.053 8.277l.047.048M20.1 8.325l.048.095M20.148 8.42v.143M20.148 8.563l-.048.095M20.1 8.658l-.047.048M20.053 8.706l-.096.048M19.957 8.754h-.38M20.577 8.706h.333M21.053 9.23h-.477M20.577 9.23v-1M20.577 8.23h.476M21.815 8.706h-.334M21.481 9.23v-1M21.481 8.23h.476M22.481 8.23v.238M22.243 8.373l.238.095M22.481 8.468l.238-.095M22.338 8.658l.143-.19M22.481 8.468l.143.19M23.243 8.23v.238M23.005 8.373l.238.095M23.243 8.468l.238-.095M23.1 8.658l.143-.19M23.243 8.468l.143.19"/>
        </g>
    </g>
    <g style="fill:none;stroke:#afafaf;stroke-width:.1;stroke-opacity:1;stroke-linecap:round;stroke-linejoin:round">
        <path d="M4.956 4.075v-1.5M4.956 16.575v-1.5M4.956 16.575h1.5M6.456 2.575h-1.5M16.481 6.075v-1.5M16.481 14.575v-1.5M16.481 14.575h1.5M17.456 16.575h1.5M17.981 4.575h-1.5M18.956 2.575h-1.5M18.956 2.575v1.5M18.956 15.075v1.5M24.981 14.575h1.5M26.388 4.075v-1.5M26.388 16.575v-1.5M26.388 16.575h1.5M26.481 4.575h-1.5M26.481 4.575v1.5M26.481 13.075v1.5M27.888 2.575h-1.5M38.888 16.575h1.5M40.388 2.575h-1.5M40.388 2.575v1.5M40.388 15.075v1.5"/>
        <path d="M13.081 3.575h-7v15h7ZM36.881 3.575h-7v15h7Z" style="stroke:#afafaf;stroke-width:.1;stroke-opacity:1;stroke-linecap:round;stroke-linejoin:round;fill:none"/>
    </g>
    <g style="fill:none;stroke:#d0d2cd;stroke-width:.05;stroke-opacity:1;stroke-linecap:round;stroke-linejoin:round">
        <path d="M4.971 2.99v13.17M5.881 16.56h-.51M6.081 16.76v1.415M6.481 18.575h6.2M13.081 16.76v1.415M13.281 16.56h16.4M29.881 16.76v1.415M36.481 18.575h-6.2M36.881 16.76v1.415M37.081 16.56h2.891M39.972 2.59h-34.6M40.373 16.16V2.984M5.371 2.59a.4.4 0 0 0-.4.4M4.971 16.16a.4.4 0 0 0 .4.4M6.081 16.76a.2.2 0 0 0-.2-.2M6.081 18.175a.4.4 0 0 0 .4.4M13.281 16.56a.2.2 0 0 0-.2.2M12.681 18.575a.4.4 0 0 0 .4-.4M29.881 16.76a.2.2 0 0 0-.2-.2M29.881 18.175a.4.4 0 0 0 .4.4M37.081 16.56a.2.2 0 0 0-.2.2M36.481 18.575a.4.4 0 0 0 .4-.4M40.373 2.984a.4.4 0 0 0-.4-.394M39.973 16.56a.4.4 0 0 0 .4-.4"/>
        <path d="M.05.05h23.813V19.1H.05Z" style="stroke:#c2c2c2;stroke-width:.1;stroke-opacity:1;stroke-linecap:round;stroke-linejoin:round;fill:none"/>
        <path d="M23.863.05h19.05V19.1h-19.05Z" style="stroke:#c2c2c2;stroke-width:.1;stroke-opacity:1;stroke-linecap:round;stroke-linejoin:round;fill:none"/>
    </g>
</svg>
