<svg xmlns="http://www.w3.org/2000/svg" width="504.288" height="72.288" viewBox="0 0 133.426 19.126">
    <g style="fill:none;stroke:#afafaf;stroke-width:.15;stroke-opacity:1;stroke-linecap:round;stroke-linejoin:round">
        <g class="stroked-text">
            <path d="M62.225 9.23v-1M62.225 8.23h.381M62.606 8.23l.095.047M62.701 8.277l.048.048M62.749 8.325l.047.095M62.796 8.42v.143M62.796 8.563l-.047.095M62.749 8.658l-.048.048M62.701 8.706l-.095.048M62.606 8.754h-.381M63.368 9.23l-.095-.048M63.273 9.182l-.048-.095M63.225 9.087V8.23M64.177 9.23v-.524M64.177 8.706l-.047-.095M64.13 8.61l-.096-.047M64.034 8.563h-.19M63.844 8.563l-.095.048M64.177 9.182l-.095.048M64.082 9.23h-.238M63.844 9.23l-.095-.048M63.749 9.182l-.048-.095M63.701 9.087v-.095M63.701 8.992l.048-.096M63.749 8.897l.095-.048M63.844 8.849h.238M64.082 8.849l.095-.048M64.51 8.563h.382M64.654 8.23v.857M64.654 9.087l.047.095M64.701 9.182l.095.048M64.796 9.23h.096M65.606 9.182l-.095.048M65.51 9.23h-.19M65.32 9.23l-.095-.048M65.225 9.182l-.048-.095M65.177 9.087v-.381M65.177 8.706l.048-.095M65.225 8.61l.095-.047M65.32 8.563h.19M65.51 8.563l.096.048M65.606 8.61l.048.096M65.654 8.706v.095M65.654 8.801l-.477.095M65.844 9.325h.762M66.844 9.23v-1M66.844 8.23l.333.714M67.177 8.944l.334-.714M67.51 8.23v1M67.892 8.23l.666 1M68.558 8.23l-.666 1M68.701 9.325h.762M69.606 8.23h.667M70.273 8.23l-.429 1M70.654 8.23v.81M70.654 9.04l.047.095M70.701 9.135l.048.047M70.749 9.182l.095.048M70.844 9.23h.19M71.035 9.23l.095-.048M71.13 9.182l.047-.047M71.177 9.135l.048-.096M71.225 9.04v-.81"/>
        </g>
        <g class="stroked-text">
            <path d="m65.392 10.83-.334-.476M64.82 10.83v-1M64.82 9.83h.381M65.201 9.83l.095.047M65.296 9.877l.048.048M65.344 9.925l.048.095M65.392 10.02v.143M65.392 10.163l-.048.095M65.344 10.258l-.048.048M65.296 10.306l-.095.048M65.201 10.354h-.38M65.82 10.306h.334M66.296 10.83h-.476M65.82 10.83v-1M65.82 9.83h.476M67.058 10.306h-.333M66.725 10.83v-1M66.725 9.83h.476M67.725 9.83v.238M67.487 9.973l.238.095M67.725 10.068l.238-.095M67.582 10.258l.143-.19M67.725 10.068l.143.19M68.487 9.83v.238M68.249 9.973l.238.095M68.487 10.068l.238-.095M68.344 10.258l.143-.19M68.487 10.068l.143.19"/>
        </g>
    </g>
    <g style="fill:none;stroke:#afafaf;stroke-width:.1;stroke-opacity:1;stroke-linecap:round;stroke-linejoin:round">
        <path d="M59.725 2.575v1.5M59.725 2.575h1.5M59.725 15.075v1.5M61.225 16.575h-1.5M72.225 2.575h1.5M73.725 4.075v-1.5M73.725 16.575h-1.5M73.725 16.575v-1.5"/>
        <path d="M6.025 3.575h7v15h-7ZM120.425 3.575h7v15h-7Z" style="stroke:#afafaf;stroke-width:.1;stroke-opacity:1;stroke-linecap:round;stroke-linejoin:round;fill:none"/>
    </g>
    <g style="fill:none;stroke:#d0d2cd;stroke-width:.05;stroke-opacity:1;stroke-linecap:round;stroke-linejoin:round">
        <path d="M6.025 18.175v-14.2M6.425 3.575h6.2M12.625 18.575h-6.2M13.025 3.975v14.2M59.74 16.16V2.99M60.14 2.59h13.17M73.31 16.56H60.14M73.71 2.99v13.17M120.425 18.175v-14.2M120.825 3.575h6.2M127.025 18.575h-6.2M127.425 3.975v14.2M6.425 3.575a.4.4 0 0 0-.4.4M6.025 18.175a.4.4 0 0 0 .4.4M13.025 3.975a.4.4 0 0 0-.4-.4M12.625 18.575a.4.4 0 0 0 .4-.4M60.14 2.59a.4.4 0 0 0-.4.4M59.74 16.16a.4.4 0 0 0 .4.4M73.71 2.99a.4.4 0 0 0-.4-.4M73.31 16.56a.4.4 0 0 0 .4-.4M120.825 3.575a.4.4 0 0 0-.4.4M120.425 18.175a.4.4 0 0 0 .4.4M127.425 3.975a.4.4 0 0 0-.4-.4M127.025 18.575a.4.4 0 0 0 .4-.4"/>
        <path d="M.05.05H133.4V19.1H.05Z" style="stroke:#c2c2c2;stroke-width:.1;stroke-opacity:1;stroke-linecap:round;stroke-linejoin:round;fill:none"/>
    </g>
</svg>
