<?xml version="1.0" standalone="no"?>
 <!DOCTYPE svg PUBLIC "-//W3C//DTD SVG 1.1//EN" 
 "http://www.w3.org/Graphics/SVG/1.1/DTD/svg11.dtd"> 
<svg
  xmlns:svg="http://www.w3.org/2000/svg"
  xmlns="http://www.w3.org/2000/svg"
  xmlns:xlink="http://www.w3.org/1999/xlink"
  version="1.1"
  width="52.4764mm" height="19.1262mm" viewBox="0.0000 0.0000 52.4764 19.1262">
<title>SVG Image created as Plate_MX_2.75U.svg date 2025/04/12 02:50:54 </title>
  <desc>Image generated by PCBNEW </desc>
<g style="fill:#000000; fill-opacity:1.0000;stroke:#000000; stroke-opacity:1.0000;
stroke-linecap:round; stroke-linejoin:round;"
 transform="translate(0 0) scale(1 1)">
</g>
<g style="fill:none; 
stroke:#C83434; stroke-width:0.5000; stroke-opacity:1; 
stroke-linecap:round; stroke-linejoin:round;">
<path d="M18.9937 16.0750
L18.9937 3.0750
" />
<path d="M19.7437 2.3250
L32.7437 2.3250
" />
<path d="M32.7437 16.8250
L19.7437 16.8250
" />
<path d="M33.4937 3.0750
L33.4937 16.0750
" />
<path d="M19.7437 2.3250 A0.7500 0.7500 0.0 0 0 18.9937 3.0750" />
<path d="M18.9937 16.0750 A0.7500 0.7500 0.0 0 0 19.7437 16.8250" />
<path d="M33.4937 3.0750 A0.7500 0.7500 0.0 0 0 32.7437 2.3250" />
<path d="M32.7437 16.8250 A0.7500 0.7500 0.0 0 0 33.4937 16.0750" />
</g>
<g style="fill:none; 
stroke:#4D7FC4; stroke-width:0.5000; stroke-opacity:1; 
stroke-linecap:round; stroke-linejoin:round;">
<path d="M18.9937 16.0750
L18.9937 3.0750
" />
<path d="M19.7437 2.3250
L32.7437 2.3250
" />
<path d="M32.7437 16.8250
L19.7437 16.8250
" />
<path d="M33.4937 3.0750
L33.4937 16.0750
" />
<path d="M19.7437 2.3250 A0.7500 0.7500 0.0 0 0 18.9937 3.0750" />
<path d="M18.9937 16.0750 A0.7500 0.7500 0.0 0 0 19.7437 16.8250" />
<path d="M33.4937 3.0750 A0.7500 0.7500 0.0 0 0 32.7437 2.3250" />
<path d="M32.7437 16.8250 A0.7500 0.7500 0.0 0 0 33.4937 16.0750" />
</g>
<g style="fill:none; 
stroke:#AFAFAF; stroke-width:0.1500; stroke-opacity:1; 
stroke-linecap:round; stroke-linejoin:round;">
<text x="26.2437" y="9.2750"
textLength="12.1071" font-size="1.3333" lengthAdjust="spacingAndGlyphs"
text-anchor="middle" opacity="0" stroke-opacity="0">Plate_MX_2.75U</text>
<g class="stroked-text"><desc>Plate_MX_2.75U</desc>
<path d="M20.5533 9.2298
L20.5533 8.2298
" />
<path d="M20.5533 8.2298
L20.9342 8.2298
" />
<path d="M20.9342 8.2298
L21.0295 8.2774
" />
<path d="M21.0295 8.2774
L21.0771 8.3251
" />
<path d="M21.0771 8.3251
L21.1247 8.4203
" />
<path d="M21.1247 8.4203
L21.1247 8.5632
" />
<path d="M21.1247 8.5632
L21.0771 8.6584
" />
<path d="M21.0771 8.6584
L21.0295 8.7060
" />
<path d="M21.0295 8.7060
L20.9342 8.7536
" />
<path d="M20.9342 8.7536
L20.5533 8.7536
" />
<path d="M21.6961 9.2298
L21.6009 9.1822
" />
<path d="M21.6009 9.1822
L21.5533 9.0870
" />
<path d="M21.5533 9.0870
L21.5533 8.2298
" />
<path d="M22.5057 9.2298
L22.5057 8.7060
" />
<path d="M22.5057 8.7060
L22.4580 8.6108
" />
<path d="M22.4580 8.6108
L22.3628 8.5632
" />
<path d="M22.3628 8.5632
L22.1723 8.5632
" />
<path d="M22.1723 8.5632
L22.0771 8.6108
" />
<path d="M22.5057 9.1822
L22.4104 9.2298
" />
<path d="M22.4104 9.2298
L22.1723 9.2298
" />
<path d="M22.1723 9.2298
L22.0771 9.1822
" />
<path d="M22.0771 9.1822
L22.0295 9.0870
" />
<path d="M22.0295 9.0870
L22.0295 8.9917
" />
<path d="M22.0295 8.9917
L22.0771 8.8965
" />
<path d="M22.0771 8.8965
L22.1723 8.8489
" />
<path d="M22.1723 8.8489
L22.4104 8.8489
" />
<path d="M22.4104 8.8489
L22.5057 8.8012
" />
<path d="M22.8390 8.5632
L23.2199 8.5632
" />
<path d="M22.9818 8.2298
L22.9818 9.0870
" />
<path d="M22.9818 9.0870
L23.0295 9.1822
" />
<path d="M23.0295 9.1822
L23.1247 9.2298
" />
<path d="M23.1247 9.2298
L23.2199 9.2298
" />
<path d="M23.9342 9.1822
L23.8390 9.2298
" />
<path d="M23.8390 9.2298
L23.6485 9.2298
" />
<path d="M23.6485 9.2298
L23.5533 9.1822
" />
<path d="M23.5533 9.1822
L23.5057 9.0870
" />
<path d="M23.5057 9.0870
L23.5057 8.7060
" />
<path d="M23.5057 8.7060
L23.5533 8.6108
" />
<path d="M23.5533 8.6108
L23.6485 8.5632
" />
<path d="M23.6485 8.5632
L23.8390 8.5632
" />
<path d="M23.8390 8.5632
L23.9342 8.6108
" />
<path d="M23.9342 8.6108
L23.9818 8.7060
" />
<path d="M23.9818 8.7060
L23.9818 8.8012
" />
<path d="M23.9818 8.8012
L23.5057 8.8965
" />
<path d="M24.1723 9.3251
L24.9342 9.3251
" />
<path d="M25.1723 9.2298
L25.1723 8.2298
" />
<path d="M25.1723 8.2298
L25.5057 8.9441
" />
<path d="M25.5057 8.9441
L25.8390 8.2298
" />
<path d="M25.8390 8.2298
L25.8390 9.2298
" />
<path d="M26.2199 8.2298
L26.8866 9.2298
" />
<path d="M26.8866 8.2298
L26.2199 9.2298
" />
<path d="M27.0295 9.3251
L27.7914 9.3251
" />
<path d="M27.9818 8.3251
L28.0295 8.2774
" />
<path d="M28.0295 8.2774
L28.1247 8.2298
" />
<path d="M28.1247 8.2298
L28.3628 8.2298
" />
<path d="M28.3628 8.2298
L28.4580 8.2774
" />
<path d="M28.4580 8.2774
L28.5057 8.3251
" />
<path d="M28.5057 8.3251
L28.5533 8.4203
" />
<path d="M28.5533 8.4203
L28.5533 8.5155
" />
<path d="M28.5533 8.5155
L28.5057 8.6584
" />
<path d="M28.5057 8.6584
L27.9342 9.2298
" />
<path d="M27.9342 9.2298
L28.5533 9.2298
" />
<path d="M28.9818 9.1346
L29.0295 9.1822
" />
<path d="M29.0295 9.1822
L28.9818 9.2298
" />
<path d="M28.9818 9.2298
L28.9342 9.1822
" />
<path d="M28.9342 9.1822
L28.9818 9.1346
" />
<path d="M28.9818 9.1346
L28.9818 9.2298
" />
<path d="M29.3628 8.2298
L30.0295 8.2298
" />
<path d="M30.0295 8.2298
L29.6009 9.2298
" />
<path d="M30.8866 8.2298
L30.4104 8.2298
" />
<path d="M30.4104 8.2298
L30.3628 8.7060
" />
<path d="M30.3628 8.7060
L30.4104 8.6584
" />
<path d="M30.4104 8.6584
L30.5057 8.6108
" />
<path d="M30.5057 8.6108
L30.7437 8.6108
" />
<path d="M30.7437 8.6108
L30.8390 8.6584
" />
<path d="M30.8390 8.6584
L30.8866 8.7060
" />
<path d="M30.8866 8.7060
L30.9342 8.8012
" />
<path d="M30.9342 8.8012
L30.9342 9.0393
" />
<path d="M30.9342 9.0393
L30.8866 9.1346
" />
<path d="M30.8866 9.1346
L30.8390 9.1822
" />
<path d="M30.8390 9.1822
L30.7437 9.2298
" />
<path d="M30.7437 9.2298
L30.5057 9.2298
" />
<path d="M30.5057 9.2298
L30.4104 9.1822
" />
<path d="M30.4104 9.1822
L30.3628 9.1346
" />
<path d="M31.3628 8.2298
L31.3628 9.0393
" />
<path d="M31.3628 9.0393
L31.4104 9.1346
" />
<path d="M31.4104 9.1346
L31.4580 9.1822
" />
<path d="M31.4580 9.1822
L31.5533 9.2298
" />
<path d="M31.5533 9.2298
L31.7437 9.2298
" />
<path d="M31.7437 9.2298
L31.8390 9.1822
" />
<path d="M31.8390 9.1822
L31.8866 9.1346
" />
<path d="M31.8866 9.1346
L31.9342 9.0393
" />
<path d="M31.9342 9.0393
L31.9342 8.2298
" />
</g><text x="26.2437" y="10.8750"
textLength="4.5357" font-size="1.3333" lengthAdjust="spacingAndGlyphs"
text-anchor="middle" opacity="0" stroke-opacity="0">REF**</text>
<g class="stroked-text"><desc>REF**</desc>
<path d="M24.9104 10.8298
L24.5771 10.3536
" />
<path d="M24.3390 10.8298
L24.3390 9.8298
" />
<path d="M24.3390 9.8298
L24.7199 9.8298
" />
<path d="M24.7199 9.8298
L24.8152 9.8774
" />
<path d="M24.8152 9.8774
L24.8628 9.9251
" />
<path d="M24.8628 9.9251
L24.9104 10.0203
" />
<path d="M24.9104 10.0203
L24.9104 10.1632
" />
<path d="M24.9104 10.1632
L24.8628 10.2584
" />
<path d="M24.8628 10.2584
L24.8152 10.3060
" />
<path d="M24.8152 10.3060
L24.7199 10.3536
" />
<path d="M24.7199 10.3536
L24.3390 10.3536
" />
<path d="M25.3390 10.3060
L25.6723 10.3060
" />
<path d="M25.8152 10.8298
L25.3390 10.8298
" />
<path d="M25.3390 10.8298
L25.3390 9.8298
" />
<path d="M25.3390 9.8298
L25.8152 9.8298
" />
<path d="M26.5771 10.3060
L26.2437 10.3060
" />
<path d="M26.2437 10.8298
L26.2437 9.8298
" />
<path d="M26.2437 9.8298
L26.7199 9.8298
" />
<path d="M27.2437 9.8298
L27.2437 10.0679
" />
<path d="M27.0057 9.9727
L27.2437 10.0679
" />
<path d="M27.2437 10.0679
L27.4818 9.9727
" />
<path d="M27.1009 10.2584
L27.2437 10.0679
" />
<path d="M27.2437 10.0679
L27.3866 10.2584
" />
<path d="M28.0057 9.8298
L28.0057 10.0679
" />
<path d="M27.7676 9.9727
L28.0057 10.0679
" />
<path d="M28.0057 10.0679
L28.2437 9.9727
" />
<path d="M27.8628 10.2584
L28.0057 10.0679
" />
<path d="M28.0057 10.0679
L28.1485 10.2584
" />
</g></g>
<g style="fill:none; 
stroke:#D0D2CD; stroke-width:0.0500; stroke-opacity:1; 
stroke-linecap:round; stroke-linejoin:round;">
<path d="M10.9625 4.0750
L10.9625 17.0750
" />
<path d="M11.4625 3.5750
L17.2125 3.5750
" />
<path d="M11.4625 17.5750
L17.2125 17.5750
" />
<path d="M17.7125 4.0750
L17.7125 17.0750
" />
<path d="M19.2437 16.0750
L19.2437 3.0750
" />
<path d="M19.7437 2.5750
L32.7437 2.5750
" />
<path d="M32.7437 16.5750
L19.7437 16.5750
" />
<path d="M33.2437 3.0750
L33.2437 16.0750
" />
<path d="M34.7750 4.0750
L34.7750 17.0750
" />
<path d="M35.2750 3.5750
L41.0238 3.5750
" />
<path d="M35.2750 17.5750
L41.0250 17.5750
" />
<path d="M41.5238 4.0750
L41.5250 17.0750
" />
<path d="M11.4625 3.5750 A0.5000 0.5000 0.0 0 0 10.9625 4.0750" />
<path d="M10.9625 17.0750 A0.5000 0.5000 0.0 0 0 11.4625 17.5750" />
<path d="M17.7125 4.0750 A0.5000 0.5000 0.0 0 0 17.2125 3.5750" />
<path d="M17.2125 17.5750 A0.5000 0.5000 0.0 0 0 17.7125 17.0750" />
<path d="M19.7437 2.5750 A0.5000 0.5000 0.0 0 0 19.2437 3.0750" />
<path d="M19.2437 16.0750 A0.5000 0.5000 0.0 0 0 19.7437 16.5750" />
<path d="M33.2437 3.0750 A0.5000 0.5000 0.0 0 0 32.7437 2.5750" />
<path d="M32.7437 16.5750 A0.5000 0.5000 0.0 0 0 33.2437 16.0750" />
<path d="M35.2750 3.5750 A0.5000 0.5000 0.0 0 0 34.7750 4.0750" />
<path d="M34.7750 17.0750 A0.5001 0.5001 0.0 0 0 35.2750 17.5750" />
<path d="M41.5238 4.0750 A0.5001 0.5001 0.0 0 0 41.0238 3.5750" />
<path d="M41.0250 17.5749 A0.4999 0.4999 0.0 0 0 41.5250 17.0750" />
<path style="fill:none; 
stroke:#C2C2C2; stroke-width:0.1000; stroke-opacity:1; 
stroke-linecap:round; stroke-linejoin:round;fill:none"
d="M 0.0500,0.0500
52.4375,0.0500
52.4375,19.1000
0.0500,19.1000
Z" /> 
</g> 
</svg>
