<svg xmlns="http://www.w3.org/2000/svg" width="432.288" height="72.288" viewBox="0 0 114.376 19.126">
    <g style="fill:none;stroke:#afafaf;stroke-width:.15;stroke-opacity:1;stroke-linecap:round;stroke-linejoin:round">
        <g class="stroked-text">
            <path d="M49.033 9.23v-1M49.033 8.23h.381M49.414 8.23l.096.047M49.51 8.277l.047.048M49.557 8.325l.048.095M49.605 8.42v.143M49.605 8.563l-.048.095M49.557 8.658l-.047.048M49.51 8.706l-.096.048M49.414 8.754h-.38M50.176 9.23l-.095-.048M50.081 9.182l-.048-.095M50.033 9.087V8.23M50.986 9.23v-.524M50.986 8.706l-.048-.095M50.938 8.61l-.095-.047M50.843 8.563h-.19M50.652 8.563l-.095.048M50.986 9.182l-.095.048M50.89 9.23h-.238M50.652 9.23l-.095-.048M50.557 9.182l-.047-.095M50.51 9.087v-.095M50.51 8.992l.047-.096M50.557 8.897l.095-.048M50.652 8.849h.239M50.89 8.849l.096-.048M51.319 8.563h.381M51.462 8.23v.857M51.462 9.087l.047.095M51.51 9.182l.095.048M51.605 9.23h.095M52.414 9.182l-.095.048M52.319 9.23h-.19M52.129 9.23l-.096-.048M52.033 9.182l-.047-.095M51.986 9.087v-.381M51.986 8.706l.047-.095M52.033 8.61l.096-.047M52.129 8.563h.19M52.319 8.563l.095.048M52.414 8.61l.048.096M52.462 8.706v.095M52.462 8.801l-.476.095M52.652 9.325h.762M53.652 9.23v-1M53.652 8.23l.334.714M53.986 8.944l.333-.714M54.319 8.23v1M54.7 8.23l.667 1M55.367 8.23l-.667 1M55.51 9.325h.761M56.938 8.23h-.19M56.748 8.23l-.096.047M56.652 8.277l-.047.048M56.605 8.325l-.095.143M56.51 8.468l-.048.19M56.462 8.658v.381M56.462 9.04l.047.095M56.51 9.135l.047.047M56.557 9.182l.095.048M56.652 9.23h.19M56.843 9.23l.095-.048M56.938 9.182l.048-.047M56.986 9.135l.047-.096M57.033 9.04V8.8M57.033 8.801l-.047-.095M56.986 8.706l-.048-.048M56.938 8.658l-.095-.047M56.843 8.61h-.19M56.652 8.61l-.095.048M56.557 8.658l-.047.048M56.51 8.706l-.048.095M57.462 8.23v.81M57.462 9.04l.047.095M57.51 9.135l.047.047M57.557 9.182l.095.048M57.652 9.23h.19M57.843 9.23l.095-.048M57.938 9.182l.048-.047M57.986 9.135l.047-.096M58.033 9.04v-.81M58.271 9.325h.762M59.843 9.135l-.048.047M59.795 9.182l-.143.048M59.652 9.23h-.095M59.557 9.23l-.143-.048M59.414 9.182l-.095-.095M59.319 9.087l-.048-.095M59.271 8.992l-.047-.19M59.224 8.801v-.143M59.224 8.658l.047-.19M59.271 8.468l.048-.095M59.319 8.373l.095-.096M59.414 8.277l.143-.047M59.557 8.23h.095M59.652 8.23l.143.047M59.795 8.277l.048.048M60.652 9.182l-.095.048M60.557 9.23h-.19M60.367 9.23l-.096-.048M60.271 9.182l-.047-.095M60.224 9.087v-.381M60.224 8.706l.047-.095M60.271 8.61l.096-.047M60.367 8.563h.19M60.557 8.563l.095.048M60.652 8.61l.048.096M60.7 8.706v.095M60.7 8.801l-.476.095M61.129 8.563v.667M61.129 8.658l.047-.047M61.176 8.61l.095-.047M61.271 8.563h.143M61.414 8.563l.096.048M61.51 8.61l.047.096M61.557 8.706v.524M61.89 8.563h.381M62.033 8.23v.857M62.033 9.087l.048.095M62.081 9.182l.095.048M62.176 9.23h.095M62.986 9.182l-.095.048M62.89 9.23h-.19M62.7 9.23l-.095-.048M62.605 9.182l-.048-.095M62.557 9.087v-.381M62.557 8.706l.048-.095M62.605 8.61l.095-.047M62.7 8.563h.19M62.89 8.563l.096.048M62.986 8.61l.047.096M63.033 8.706v.095M63.033 8.801l-.476.095M63.462 9.23v-.667M63.462 8.754l.047-.096M63.51 8.658l.047-.047M63.557 8.61l.095-.047M63.652 8.563h.096M64.462 9.182l-.095.048M64.367 9.23h-.19M64.176 9.23l-.095-.048M64.081 9.182l-.048-.095M64.033 9.087v-.381M64.033 8.706l.048-.095M64.081 8.61l.095-.047M64.176 8.563h.19M64.367 8.563l.095.048M64.462 8.61l.047.096M64.51 8.706v.095M64.51 8.801l-.477.095M65.367 9.23v-1M65.367 9.182l-.096.048M65.271 9.23h-.19M65.081 9.23l-.095-.048M64.986 9.182l-.048-.047M64.938 9.135l-.047-.096M64.89 9.04v-.286M64.89 8.754l.048-.096M64.938 8.658l.048-.047M64.986 8.61l.095-.047M65.081 8.563h.19M65.271 8.563l.096.048"/>
        </g>
        <g class="stroked-text">
            <path d="m55.867 10.83-.334-.476M55.295 10.83v-1M55.295 9.83h.381M55.676 9.83l.095.047M55.771 9.877l.048.048M55.819 9.925l.048.095M55.867 10.02v.143M55.867 10.163l-.048.095M55.819 10.258l-.048.048M55.771 10.306l-.095.048M55.676 10.354h-.38M56.295 10.306h.334M56.771 10.83h-.476M56.295 10.83v-1M56.295 9.83h.476M57.533 10.306H57.2M57.2 10.83v-1M57.2 9.83h.476M58.2 9.83v.238M57.962 9.973l.238.095M58.2 10.068l.238-.095M58.057 10.258l.143-.19M58.2 10.068l.143.19M58.962 9.83v.238M58.724 9.973l.238.095M58.962 10.068l.238-.095M58.819 10.258l.143-.19M58.962 10.068l.143.19"/>
        </g>
    </g>
    <g style="fill:none;stroke:#afafaf;stroke-width:.1;stroke-opacity:1;stroke-linecap:round;stroke-linejoin:round">
        <path d="M50.2 2.575v1.5M50.2 2.575h1.5M50.2 15.075v1.5M51.7 16.575h-1.5M62.7 2.575h1.5M64.2 4.075v-1.5M64.2 16.575h-1.5M64.2 16.575v-1.5"/>
        <path d="M6.1 3.575h7v15h-7ZM101.3 3.575h7v15h-7Z" style="stroke:#afafaf;stroke-width:.1;stroke-opacity:1;stroke-linecap:round;stroke-linejoin:round;fill:none"/>
    </g>
    <g style="fill:none;stroke:#d0d2cd;stroke-width:.05;stroke-opacity:1;stroke-linecap:round;stroke-linejoin:round">
        <path d="M6.1 18.175v-14.2M6.5 3.575h6.2M12.7 18.575H6.5M13.1 3.975v14.2M50.215 16.16V2.99M50.615 2.59h13.17M63.785 16.56h-13.17M64.185 2.99v13.17M101.3 18.175v-14.2M101.7 3.575h6.2M107.9 18.575h-6.2M108.3 3.975v14.2M6.5 3.575a.4.4 0 0 0-.4.4M6.1 18.175a.4.4 0 0 0 .4.4M13.1 3.975a.4.4 0 0 0-.4-.4M12.7 18.575a.4.4 0 0 0 .4-.4M50.615 2.59a.4.4 0 0 0-.4.4M50.215 16.16a.4.4 0 0 0 .4.4M64.185 2.99a.4.4 0 0 0-.4-.4M63.785 16.56a.4.4 0 0 0 .4-.4M101.7 3.575a.4.4 0 0 0-.4.4M101.3 18.175a.4.4 0 0 0 .4.4M108.3 3.975a.4.4 0 0 0-.4-.4M107.9 18.575a.4.4 0 0 0 .4-.4"/>
        <path d="M.05.05h114.3V19.1H.05Z" style="stroke:#c2c2c2;stroke-width:.1;stroke-opacity:1;stroke-linecap:round;stroke-linejoin:round;fill:none"/>
    </g>
</svg>
